# Blender 5.1.1
# www.blender.org
o Куб.001
v 0.541093 1.168521 0.598458
v 0.532750 2.435226 0.472952
v 0.602155 1.161916 0.088335
v 0.619472 2.369860 -0.234917
v 0.000061 0.997941 -0.324377
v -0.000000 2.480862 -0.357245
v 0.708448 1.781705 0.100226
v 0.613006 1.126644 0.314810
v 0.609568 2.456566 0.116371
v 0.653448 1.754738 0.517919
v 0.003528 0.930329 0.682512
v -0.000000 2.544096 0.544675
v 0.718930 1.791774 0.192658
v 0.000516 0.887245 0.183770
v -0.000000 2.614716 0.130571
v 0.820347 0.220909 -0.198315
v 0.537649 2.221597 -0.538042
v 0.000037 1.086599 -0.581751
v 0.000000 2.280686 -0.622767
v 0.464300 1.216862 -0.586329
v 0.464300 2.021664 -0.746215
v 0.090363 0.732195 3.022240
v 0.000008 1.209819 -0.802088
v -0.000000 2.103516 -0.887623
v 0.561879 1.600067 -0.775708
v -0.000012 1.592164 -0.914911
v 0.084677 1.109756 3.155927
v 0.172094 1.526476 3.026125
v 0.467575 1.252553 0.952899
v 0.502594 2.386030 0.889791
v 0.175772 0.784704 2.827103
v 0.621244 1.719116 0.848363
v 0.006115 0.973355 1.132701
v 0.000079 2.487059 0.979387
v 0.059274 0.710013 3.252756
v 0.033850 0.855961 3.342251
v 0.047665 0.680955 3.136110
v 0.566385 2.560315 1.239684
v 0.550663 0.779952 0.801687
v 0.003969 0.932790 1.479300
v -0.005782 2.646479 1.345361
v 0.118300 1.317861 3.181148
v 0.136209 0.744271 2.936807
v 0.177045 1.741897 2.828811
v 0.578706 2.563837 1.435916
v 0.456304 0.728782 0.834406
v 0.002708 0.975298 1.622244
v -0.002684 2.653042 1.544480
v 0.190837 0.833059 2.716644
v 0.177045 1.887224 2.656013
v 0.177045 0.889666 2.581276
v 0.540922 2.494836 1.719261
v 0.696219 1.752038 1.699956
v 0.555238 0.947291 1.647982
v 0.000925 1.078032 1.777636
v -0.000058 2.587679 1.817999
v 0.181751 2.051518 2.405887
v 0.181751 1.085341 2.261884
v 0.460295 2.243111 2.018548
v 0.564066 1.549280 1.895233
v 0.460376 1.279834 1.871984
v 0.000349 1.166746 1.903051
v 0.000000 2.337217 2.104255
v 0.227786 2.304018 2.071597
v 0.230181 1.214078 1.882628
v 0.270445 2.556502 1.765669
v 0.359270 1.012694 1.603552
v 0.364925 1.996103 2.359868
v 0.446113 1.415859 2.297015
v 0.364925 1.140881 2.214114
v 0.000000 1.050265 2.269017
v -0.000000 2.080623 2.408610
v 0.284234 2.627861 1.479477
v 0.303892 1.017896 1.489789
v 0.277147 2.626194 1.276953
v 0.355746 1.840553 2.611033
v 0.433703 1.347035 2.568109
v 0.355746 0.943875 2.539807
v 0.000000 0.864601 2.565236
v -0.000000 1.915422 2.643928
v 0.305641 1.071493 1.355260
v 0.251478 2.457889 0.911335
v 0.332113 1.159734 1.110692
v 0.372539 1.563965 2.768333
v 0.455708 1.356952 2.713107
v 0.382651 0.888762 2.678947
v 0.000000 0.809267 2.696005
v 0.000000 1.773201 2.811997
v 0.248975 1.602698 -0.872792
v 0.203268 2.083210 -0.852102
v 0.324483 1.187985 -0.563967
v 0.241143 1.298481 3.125737
v 0.339854 1.072616 2.993629
v 0.276080 0.785970 2.904046
v 0.000000 0.738875 2.900569
v 0.000000 1.345140 3.155452
v 0.249692 2.239037 -0.666951
v 0.282756 1.109612 -0.311159
v 0.307155 2.557863 0.092578
v 0.069124 0.859732 3.320373
v 0.125993 0.730657 3.217629
v 0.103346 0.707109 3.136802
v 0.000000 0.669605 3.143440
v 0.064203 0.807581 3.318539
v 0.000000 0.700807 3.246816
v 0.465527 1.388512 2.805471
v 0.000000 0.769931 2.800207
v 0.353261 0.833793 2.790393
v 0.308836 1.016258 0.248541
v 0.000000 1.560704 3.006456
v 0.402860 1.519083 2.846601
v 0.267620 2.510784 0.480969
v 0.000000 1.112464 3.155430
v 0.274108 1.050792 0.598510
v 0.301735 2.444481 -0.401811
v 0.356832 1.076986 -0.010401
v 0.186642 0.767300 2.990276
v 0.000000 0.733986 2.981004
v 0.210413 0.901630 3.105640
v 0.175549 1.079723 3.128637
v 0.070240 0.706947 3.073919
v 0.067630 0.945181 3.256860
v 0.139993 0.726536 3.069099
v 0.161300 0.817070 3.161161
v 0.000000 0.955075 3.246819
v 0.000000 0.702559 3.058355
v 0.134901 0.938776 3.224766
v 0.624432 2.285999 0.990753
v 0.721967 1.705469 0.894380
v 0.669364 1.357873 0.980264
v 0.680248 2.448078 1.239374
v 0.823358 1.686949 1.299947
v 0.826212 1.141263 1.305515
v 0.641968 2.464272 1.420537
v 0.839280 1.714327 1.471105
v 0.835308 1.036764 1.451930
v 0.662305 2.321694 1.604959
v 0.792755 1.751880 1.665912
v 0.765092 0.982914 1.601345
v 0.444777 0.923335 0.898812
v 0.544003 0.987904 0.853513
v 0.756956 0.645004 1.251954
v 0.605805 0.593082 1.281014
v 0.807623 0.706990 1.150772
v 0.421773 0.751832 1.047616
v 0.800794 0.793861 1.051683
v 0.688625 1.005085 0.855694
v 0.424415 0.651584 1.152860
v 0.467055 0.611687 1.247498
v 0.763348 0.484093 1.023335
v 0.615004 0.452432 1.052632
v 0.530491 0.575937 0.388938
v 0.814131 0.547986 0.957699
v 0.433504 0.617245 0.908521
v 0.415252 0.529479 0.423760
v 0.803037 0.627635 0.894266
v 0.688265 0.776301 0.803307
v 0.434440 0.528525 0.982707
v 0.477615 0.478621 1.034325
v 0.444153 0.669836 0.648288
v 0.548177 0.713773 0.616001
v 0.783489 0.430736 0.802361
v 0.621763 0.401837 0.830923
v 0.803043 0.494601 0.746033
v 0.425422 0.565440 0.713483
v 0.792962 0.569462 0.692304
v 0.700929 0.706951 0.613239
v 0.428416 0.479246 0.777559
v 0.472637 0.428627 0.821308
v 0.817054 0.265152 0.572675
v 0.610677 0.235330 0.602686
v 0.648927 0.337158 0.532826
v 0.813678 0.338093 0.523228
v 0.394500 0.418041 0.492486
v 0.638351 0.427051 0.472654
v 0.804085 0.419498 0.468282
v 0.699750 0.567832 0.384931
v 0.399770 0.325332 0.555281
v 0.418003 0.267406 0.593243
v 0.427526 0.602688 0.541380
v 0.412699 0.406185 0.670890
v 0.407493 0.495158 0.608358
v 0.802081 0.497191 0.585752
v 0.811455 0.419069 0.640635
v 0.797751 0.381175 0.739548
v 0.622520 0.349979 0.768131
v 0.702341 0.640008 0.504153
v 0.538834 0.647564 0.507634
v 0.459407 0.381375 0.756863
v 0.614513 0.188540 0.767476
v 0.609700 0.119140 0.673384
v 0.785892 0.149992 0.644398
v 0.447458 0.150339 0.662585
v 0.784708 0.218855 0.739704
v 0.457793 0.218922 0.756682
v 0.762347 2.231111 -0.306485
v 0.786894 1.775248 0.017143
v 0.762347 1.178484 0.009044
v 0.752301 2.093779 -0.517846
v 0.858109 1.657396 -0.454130
v 0.810121 1.185630 -0.249944
v 0.742126 1.929537 -0.683622
v 0.837789 1.602608 -0.671162
v 0.742126 1.215898 -0.524481
v 0.603063 -0.007061 -0.171890
v 0.522568 0.871602 -0.583071
v 0.633096 0.964082 0.035483
v 0.436403 0.940804 -0.029643
v 0.377007 0.901356 -0.293152
v 0.410466 0.873969 -0.536756
v 0.799837 0.915607 -0.282941
v 0.745320 0.878055 -0.540871
v 0.761533 0.954182 -0.040239
v 0.538878 0.655968 -0.523617
v 0.639562 0.559829 0.041189
v 0.460388 0.560614 -0.026001
v 0.406281 0.610066 -0.266266
v 0.436760 0.647408 -0.482670
v 0.791452 0.617512 -0.248700
v 0.741792 0.652754 -0.483884
v 0.756560 0.575145 -0.026286
v 0.546194 -0.001995 -0.406860
v 0.665640 -0.008134 0.049255
v 0.410744 -0.018940 -0.002859
v 0.398616 -0.015284 -0.196579
v 0.432539 -0.006549 -0.373605
v 0.827306 -0.005216 -0.183948
v 0.772035 -0.001531 -0.375117
v 0.832083 -0.005842 -0.005307
v 0.823188 0.228898 -0.019951
v 0.391657 0.210246 -0.210591
v 0.425580 0.210437 -0.387609
v 0.401848 0.215936 -0.017074
v 0.656744 0.229243 0.034596
v 0.539235 0.213381 -0.420958
v 0.765075 0.215374 -0.389284
v 0.781513 0.110320 0.119353
v 0.788472 -0.004831 0.133082
v 0.658255 -0.007123 0.187645
v 0.458836 -0.017929 0.135530
v 0.451877 0.097361 0.122229
v 0.651295 0.110660 0.173900
v 0.782484 0.437881 -0.224933
v 0.423258 0.429341 -0.236813
v 0.640825 0.431959 0.003667
v 0.749942 0.434403 -0.050026
v 0.451684 0.438758 -0.407197
v 0.473720 0.423034 -0.047543
v 0.546923 0.442750 -0.439226
v 0.736168 0.443172 -0.408603
v -0.000000 1.964712 -0.963352
v -0.000000 1.715167 -1.003691
v 0.092420 1.728696 -0.965369
v 0.076591 1.955334 -0.937061
v 0.127605 1.707514 -0.912102
v 0.088882 2.048142 -0.898695
v -0.000000 1.692332 -0.956154
v -0.000000 2.059583 -0.930772
v 0.353936 1.704934 2.705403
v 0.462452 1.283224 2.664666
v 0.346085 1.489755 2.972321
v 0.469988 1.228919 2.861309
v 0.431634 1.597569 2.811943
v 0.509515 1.578861 2.826699
v 0.472450 1.602315 2.829536
v 0.537234 1.543931 2.812794
v 0.536419 1.462093 2.772979
v 0.550043 1.503506 2.794589
v 0.514399 1.536693 2.857796
v 0.455471 1.547480 2.862055
v 0.486059 1.551787 2.864840
v 0.527030 1.464776 2.828422
v 0.527210 1.522569 2.850899
v 0.537319 1.494613 2.838960
v 0.372831 1.527948 2.849753
v 0.460350 1.346264 2.789940
v 0.490673 1.574786 2.873384
v 0.529939 1.553667 2.864134
v 0.447174 1.568537 2.869839
v 0.548145 1.533343 2.854956
v 0.562047 1.494678 2.839062
v 0.548125 1.454349 2.824631
v 0.383871 1.504720 2.842098
v 0.450291 1.367181 2.796802
v 0.413090 1.505058 2.830499
v 0.458299 1.410922 2.800830
v 0.473111 1.528670 2.843662
v 0.493557 1.517799 2.838586
v 0.451044 1.525565 2.841650
v 0.502798 1.507623 2.833615
v 0.510091 1.487475 2.825009
v 0.502668 1.465985 2.817420
v 0.399391 1.494767 2.827269
v 0.447307 1.395525 2.794557
v 0.058900 0.872218 3.311773
v 0.055763 0.784093 3.310280
v 0.099802 0.878618 3.284342
v 0.095412 0.790115 3.283677
v 0.000000 0.783855 3.313321
v 0.000000 0.869368 3.314879
v 0.030579 0.804032 3.339760
v 0.000000 0.854281 3.340930
v 0.000000 0.803892 3.339123
v -0.532355 0.904823 0.646857
v -0.532479 2.425256 0.477298
v -0.601788 1.039645 -0.295079
v -0.619472 2.362269 -0.210908
v -0.708481 1.657014 -0.000274
v -0.609281 0.882514 0.114693
v -0.609568 2.443548 0.128786
v -0.649171 1.610305 0.514216
v -0.718754 1.650620 0.109351
v -0.819148 0.614345 -1.283322
v -0.537649 2.269986 -0.494957
v -0.464325 1.388548 -0.842769
v -0.464300 2.115176 -0.748179
v -0.090362 0.732195 3.022240
v -0.561968 1.743104 -0.877198
v -0.084677 1.109756 3.155927
v -0.172094 1.526478 3.026126
v -0.443317 1.022428 1.311365
v -0.500000 2.376712 0.889565
v -0.175772 0.784704 2.827103
v -0.609568 1.617985 0.885445
v -0.059274 0.710013 3.252756
v -0.033850 0.855961 3.342251
v -0.047665 0.680955 3.136110
v -0.570340 2.528199 1.239684
v -0.537046 0.459393 1.712440
v -0.118300 1.317861 3.181148
v -0.136209 0.744271 2.936807
v -0.177045 1.741897 2.828811
v -0.583003 2.528340 1.435916
v -0.443138 0.457868 1.773375
v -0.190837 0.833059 2.716644
v -0.177045 1.887224 2.656013
v -0.177045 0.889666 2.581276
v -0.540207 2.469419 1.719261
v -0.658585 1.832234 1.779143
v -0.539035 1.152177 2.060456
v -0.181751 2.051518 2.405887
v -0.181751 1.085341 2.261884
v -0.453446 2.247502 2.002979
v -0.552813 1.624727 1.933423
v -0.453446 1.371429 1.951890
v -0.227127 2.303779 2.071597
v -0.227127 1.262127 1.929490
v -0.271600 2.554620 1.765669
v -0.350340 1.098056 1.811092
v -0.364925 1.996103 2.359868
v -0.444893 1.430272 2.299281
v -0.364925 1.140881 2.214114
v -0.293614 2.618699 1.479477
v -0.293538 1.073529 1.710217
v -0.287356 2.615750 1.276953
v -0.355746 1.840553 2.611033
v -0.433703 1.347035 2.568110
v -0.355746 0.943876 2.539809
v -0.286892 1.083021 1.706440
v -0.250990 2.456718 0.911335
v -0.309279 1.043725 1.479928
v -0.372539 1.563964 2.768333
v -0.455708 1.356955 2.713110
v -0.382651 0.888763 2.678949
v -0.249027 1.651878 -0.902878
v -0.203268 2.100976 -0.850963
v -0.324451 1.321736 -0.802197
v -0.241143 1.298484 3.125738
v -0.339854 1.072616 2.993629
v -0.276080 0.785970 2.904046
v -0.249692 2.255198 -0.658985
v -0.282614 1.134826 -0.583478
v -0.307155 2.556681 0.094153
v -0.069124 0.859732 3.320373
v -0.125993 0.730657 3.217629
v -0.103346 0.707109 3.136802
v -0.064203 0.807581 3.318539
v -0.465527 1.388521 2.805476
v -0.353261 0.833793 2.790393
v -0.306965 0.868796 0.090726
v -0.402860 1.519101 2.846604
v -0.267639 2.510685 0.480969
v -0.266697 0.885738 0.645304
v -0.301735 2.446894 -0.391744
v -0.356570 0.997627 -0.359719
v -0.186642 0.767300 2.990276
v -0.210413 0.901630 3.105640
v -0.175549 1.079723 3.128637
v -0.070240 0.706947 3.073919
v -0.067630 0.945181 3.256860
v -0.139993 0.726536 3.069099
v -0.161300 0.817070 3.161161
v -0.134901 0.938776 3.224766
v -0.611508 2.242432 0.988170
v -0.707503 1.599154 0.953573
v -0.640027 1.089541 1.336825
v -0.671983 2.393262 1.229349
v -0.785151 1.589585 1.467274
v -0.799071 1.120183 1.787238
v -0.636691 2.421318 1.417285
v -0.799130 1.695206 1.610104
v -0.810537 1.147364 1.965078
v -0.641481 2.278455 1.583507
v -0.751887 1.819090 1.753706
v -0.743522 1.195627 2.080323
v -0.422389 0.660798 1.644988
v -0.520156 0.677593 1.565840
v -0.740165 0.740914 2.098832
v -0.590298 0.722076 2.145865
v -0.789690 0.709454 1.982792
v -0.403122 0.654433 1.881254
v -0.781212 0.695854 1.851766
v -0.664314 0.696396 1.559419
v -0.408045 0.664114 2.010109
v -0.451874 0.698624 2.079281
v -0.751867 0.501474 2.080568
v -0.603858 0.501938 2.125265
v -0.539167 0.000848 1.692270
v -0.802478 0.483870 1.990608
v -0.421492 0.462110 1.908196
v -0.424209 0.001760 1.750807
v -0.790913 0.471756 1.889549
v -0.674650 0.464649 1.715653
v -0.422991 0.476987 2.023388
v -0.466293 0.494312 2.093756
v -0.440455 0.263954 1.739685
v -0.544222 0.262125 1.684703
v -0.781058 0.295232 2.020561
v -0.619362 0.297072 2.061971
v -0.800757 0.279950 1.937601
v -0.422511 0.268449 1.862462
v -0.790360 0.269427 1.845660
v -0.697109 0.263486 1.687844
v -0.425708 0.280762 1.968102
v -0.469835 0.294383 2.033094
v -0.828207 0.010852 2.049557
v -0.621882 0.008849 2.091648
v -0.659523 0.006766 1.968140
v -0.824409 0.007722 1.961864
v -0.404384 0.003265 1.881476
v -0.648406 0.002504 1.861671
v -0.814343 0.002692 1.864725
v -0.708627 0.001318 1.695883
v -0.410191 0.008742 1.992475
v -0.428789 0.010787 2.061272
v -0.429881 0.138136 1.746474
v -0.416356 0.151764 1.982035
v -0.410717 0.142061 1.873347
v -0.805621 0.142024 1.856818
v -0.815369 0.151155 1.952179
v -0.799205 0.216824 2.034852
v -0.624085 0.214252 2.080479
v -0.704600 0.137002 1.693168
v -0.540921 0.136121 1.689759
v -0.460607 0.215780 2.046224
v -0.621084 0.123744 2.219499
v -0.621882 0.005867 2.227628
v -0.797987 0.007792 2.185148
v -0.459263 0.007296 2.196734
v -0.791173 0.126331 2.177493
v -0.464007 0.125835 2.188429
v -0.762347 2.216341 -0.262616
v -0.786931 1.666264 -0.101704
v -0.762017 1.089655 -0.359343
v -0.752301 2.152990 -0.502610
v -0.858161 1.723654 -0.584683
v -0.809929 1.222305 -0.582773
v -0.742158 2.048295 -0.708751
v -0.837875 1.749432 -0.801015
v -0.742133 1.379885 -0.805878
v -0.601705 0.529053 -1.496221
v -0.522148 1.116948 -0.994135
v -0.632410 0.857718 -0.455370
v -0.435770 0.869294 -0.515293
v -0.376472 0.978485 -0.745239
v -0.410021 1.093174 -0.953782
v -0.799281 0.994538 -0.740418
v -0.744880 1.099002 -0.962375
v -0.760863 0.891716 -0.523311
v -0.538235 0.965840 -1.009449
v -0.638240 0.482357 -0.867000
v -0.459150 0.543161 -0.888951
v -0.405377 0.775470 -0.918612
v -0.436078 0.936371 -0.989997
v -0.790531 0.761985 -0.906714
v -0.741114 0.939240 -0.987120
v -0.755333 0.548287 -0.873911
v -0.545159 0.757341 -1.554165
v -0.663982 0.316058 -1.436380
v -0.409150 0.363599 -1.461701
v -0.397288 0.551276 -1.510861
v -0.431456 0.724271 -1.549615
v -0.825966 0.541197 -1.497849
v -0.770956 0.726559 -1.545263
v -0.830500 0.368903 -1.449731
v -0.821751 0.444668 -1.228939
v -0.390470 0.624134 -1.296788
v -0.424634 0.794971 -1.342733
v -0.400402 0.439219 -1.240561
v -0.655234 0.392487 -1.214184
v -0.538336 0.827749 -1.348548
v -0.764134 0.797346 -1.338378
v -0.779825 0.280688 -1.304006
v -0.786702 0.236157 -1.410515
v -0.656410 0.183305 -1.397308
v -0.457056 0.230682 -1.422509
v -0.450178 0.274721 -1.315944
v -0.649535 0.228725 -1.288319
v -0.781437 0.696030 -1.080528
v -0.422222 0.704245 -1.089603
v -0.639466 0.474577 -1.021895
v -0.748656 0.526378 -1.036544
v -0.450867 0.858553 -1.122159
v -0.472425 0.521448 -1.045222
v -0.546147 0.887165 -1.127460
v -0.735355 0.860483 -1.118446
v -0.092420 1.733808 -0.967805
v -0.076591 1.955334 -0.937061
v -0.127618 1.725567 -0.919792
v -0.088882 2.048142 -0.898695
v -0.353936 1.704934 2.705403
v -0.462452 1.283226 2.664669
v -0.346085 1.489760 2.972322
v -0.469988 1.228922 2.861312
v -0.431634 1.597593 2.811944
v -0.509515 1.578902 2.826701
v -0.472450 1.602355 2.829537
v -0.537234 1.543976 2.812801
v -0.536419 1.462118 2.772990
v -0.550043 1.503540 2.794598
v -0.514399 1.536729 2.857802
v -0.455471 1.547513 2.862059
v -0.486059 1.551822 2.864844
v -0.527030 1.464804 2.828432
v -0.527210 1.522604 2.850906
v -0.537319 1.494646 2.838969
v -0.372831 1.527954 2.849754
v -0.460350 1.346269 2.789944
v -0.490673 1.574826 2.873386
v -0.529939 1.553708 2.864139
v -0.447174 1.568569 2.869842
v -0.548145 1.533383 2.854962
v -0.562047 1.494713 2.839072
v -0.548125 1.454378 2.824642
v -0.383871 1.504739 2.842103
v -0.450291 1.367186 2.796805
v -0.413090 1.505078 2.830504
v -0.458299 1.410929 2.800834
v -0.473111 1.528700 2.843667
v -0.493557 1.517824 2.838592
v -0.451044 1.525597 2.841656
v -0.502798 1.507651 2.833622
v -0.510091 1.487506 2.825018
v -0.502668 1.466009 2.817429
v -0.399391 1.494785 2.827274
v -0.447307 1.395532 2.794561
v -0.058900 0.872218 3.311773
v -0.055763 0.784093 3.310280
v -0.099802 0.878618 3.284342
v -0.095412 0.790115 3.283677
v -0.030579 0.804032 3.339760
v 0.291561 1.099083 3.029313
v 0.306648 1.165488 3.050961
v 0.269728 1.093136 3.070817
v 0.232186 1.053385 3.064903
v 0.245906 1.101171 3.041391
v 0.291926 1.170453 3.032775
v 0.256597 1.160830 3.099931
v 0.210577 1.091547 3.108547
v 0.195855 1.096513 3.090361
v 0.232775 1.168864 3.070505
v 0.270316 1.208615 3.076420
v 0.210942 1.162917 3.112009
v 0.285805 1.089984 3.046449
v 0.307506 1.132511 3.034778
v 0.294673 1.129015 3.059173
v 0.307720 1.174461 3.036813
v 0.298852 1.135430 3.024089
v 0.263739 1.066619 3.042973
v 0.250905 1.063123 3.067368
v 0.271803 1.094707 3.029153
v 0.236903 1.067846 3.050072
v 0.272017 1.136657 3.031188
v 0.295019 1.196892 3.062467
v 0.286365 1.199811 3.051777
v 0.265254 1.126277 3.087957
v 0.286955 1.168805 3.076286
v 0.216138 1.062189 3.089545
v 0.238204 1.085554 3.093022
v 0.215548 1.093195 3.065036
v 0.207484 1.065108 3.078856
v 0.264299 1.176446 3.048301
v 0.237249 1.135723 3.053365
v 0.265600 1.194155 3.091250
v 0.230486 1.125344 3.110134
v 0.194783 1.087539 3.104509
v 0.207830 1.132985 3.082149
v 0.251598 1.198877 3.073954
v 0.230700 1.167294 3.112169
v 0.238764 1.195381 3.098349
v 0.203650 1.126571 3.117233
v 0.194997 1.129489 3.106544
v 0.216698 1.172016 3.094873
v -0.291561 1.099083 3.029313
v -0.306648 1.165488 3.050961
v -0.269728 1.093136 3.070817
v -0.232186 1.053385 3.064903
v -0.245906 1.101170 3.041392
v -0.291925 1.170453 3.032775
v -0.256597 1.160830 3.099931
v -0.210577 1.091547 3.108547
v -0.195854 1.096513 3.090361
v -0.232775 1.168864 3.070505
v -0.270316 1.208615 3.076420
v -0.210942 1.162917 3.112009
v -0.285805 1.089984 3.046449
v -0.307506 1.132511 3.034778
v -0.294673 1.129015 3.059174
v -0.307720 1.174461 3.036814
v -0.298852 1.135429 3.024089
v -0.263739 1.066619 3.042973
v -0.250905 1.063123 3.067369
v -0.271803 1.094706 3.029153
v -0.236903 1.067845 3.050072
v -0.272017 1.136657 3.031188
v -0.295019 1.196892 3.062467
v -0.286365 1.199811 3.051777
v -0.265254 1.126277 3.087957
v -0.286955 1.168805 3.076286
v -0.216137 1.062189 3.089545
v -0.238204 1.085554 3.093022
v -0.215548 1.093195 3.065036
v -0.207484 1.065108 3.078856
v -0.264299 1.176446 3.048301
v -0.237249 1.135723 3.053365
v -0.265599 1.194155 3.091250
v -0.230486 1.125344 3.110134
v -0.194782 1.087539 3.104509
v -0.207830 1.132985 3.082149
v -0.251597 1.198877 3.073954
v -0.230700 1.167294 3.112170
v -0.238764 1.195381 3.098350
v -0.203650 1.126570 3.117234
v -0.194997 1.129489 3.106544
v -0.216698 1.172016 3.094873
vn -0.8722 -0.4409 0.2116
vn 0.3821 0.7415 -0.5515
vn 0.9824 -0.1690 -0.0791
vn 0.9888 0.1457 -0.0331
vn 0.9590 0.1835 0.2159
vn 0.9666 -0.1331 0.2192
vn 0.9629 -0.2145 0.1638
vn 0.5137 -0.8355 0.1952
vn 0.3714 -0.9158 -0.1527
vn 0.3485 -0.9218 0.1698
vn 0.1145 0.9632 -0.2431
vn 0.1793 0.9721 0.1514
vn 0.3813 0.6249 -0.6813
vn 0.2595 -0.4403 -0.8595
vn 0.3662 -0.8981 -0.2438
vn 0.6900 0.4384 0.5759
vn 0.3421 0.1063 -0.9336
vn 0.1681 -0.5254 -0.8341
vn 0.3023 0.0996 -0.9480
vn 0.2967 -0.8877 -0.3521
vn 0.7677 0.6406 0.0193
vn 0.9969 -0.0154 -0.0766
vn 0.1504 0.9804 0.1274
vn 0.9795 0.1743 0.1015
vn 0.3077 -0.2899 -0.9062
vn 0.0743 0.9970 -0.0223
vn -0.0198 0.9126 -0.4083
vn -0.7057 0.1622 -0.6897
vn 0.6069 0.1904 -0.7717
vn 0.1471 0.9602 0.2375
vn -0.9687 -0.2106 -0.1315
vn 0.9259 0.1733 -0.3357
vn 0.0144 0.7937 -0.6081
vn 0.8262 -0.2244 0.5168
vn -0.0561 -0.6971 0.7148
vn 0.4699 -0.8760 0.1087
vn 0.3849 -0.9055 -0.1785
vn 0.3966 -0.9127 0.0983
vn 0.3046 -0.6759 0.6711
vn 0.6957 0.5579 -0.4526
vn 0.3273 0.9199 -0.2159
vn 0.9288 -0.3429 0.1409
vn 0.2298 -0.9265 -0.2980
vn 0.2915 0.9473 0.1325
vn 0.2050 0.7387 0.6421
vn 0.0973 0.7952 -0.5985
vn 0.8723 0.1100 0.4764
vn 0.4689 -0.1759 0.8655
vn 0.8402 0.1197 -0.5289
vn 0.3961 -0.3998 -0.8266
vn 0.9857 0.1363 0.0993
vn 0.9745 0.0069 -0.2243
vn 0.1700 0.7646 0.6217
vn 0.4208 -0.8904 -0.1736
vn 0.9440 0.0907 0.3174
vn 0.2791 0.9514 0.1299
vn 0.2141 0.9765 -0.0231
vn 0.9790 0.1936 0.0641
vn 0.1759 0.8791 -0.4429
vn 0.0756 0.7622 0.6430
vn 0.1306 -0.8481 -0.5135
vn 0.9739 -0.2184 -0.0620
vn 0.2483 0.9351 0.2529
vn 0.1166 0.8212 0.5585
vn -0.0035 0.5828 0.8126
vn 0.2740 -0.9611 -0.0354
vn 0.8386 -0.3249 0.4372
vn 0.2122 -0.9417 -0.2612
vn 0.1783 -0.7716 0.6106
vn 0.1831 -0.9008 -0.3938
vn 0.9334 -0.1792 -0.3108
vn 0.1154 -0.9410 0.3180
vn 0.8717 -0.4806 0.0955
vn 0.3324 -0.9272 -0.1726
vn 0.1682 -0.9396 -0.2982
vn 0.2989 0.7024 0.6460
vn 0.3450 0.7188 0.6036
vn 0.7588 0.0219 0.6509
vn 0.4512 0.6135 0.6481
vn 0.1538 -0.8405 -0.5195
vn 0.1859 -0.9501 0.2504
vn 0.8837 -0.0526 0.4650
vn 0.3500 0.7853 0.5107
vn 0.3818 0.4647 0.7989
vn 0.1217 -0.9464 -0.2992
vn 0.4144 0.5112 0.7530
vn 0.1593 -0.9070 -0.3898
vn 0.5346 -0.0770 0.8416
vn 0.1479 -0.9258 -0.3479
vn 0.3937 -0.9030 0.1723
vn -0.3040 -0.4651 0.8314
vn -0.0092 0.6129 0.7901
vn 0.1792 -0.9051 -0.3856
vn 0.9705 -0.2404 -0.0164
vn 0.0310 -0.6189 0.7849
vn 0.0495 0.6741 0.7370
vn 0.6301 -0.0879 0.7715
vn 0.1441 -0.9196 -0.3655
vn -0.1346 -0.0464 0.9898
vn 0.4470 0.6497 0.6149
vn 0.3325 -0.1262 0.9346
vn 0.0463 -0.9950 -0.0890
vn 0.3308 -0.9392 0.0925
vn 0.7809 -0.3971 0.4822
vn 0.4028 0.4412 0.8019
vn 0.1485 -0.9137 -0.3782
vn 0.8472 0.0198 0.5309
vn -0.0169 0.5134 0.8580
vn 0.2233 -0.9110 -0.3466
vn 0.8796 -0.4056 0.2486
vn 0.9299 -0.0883 -0.3570
vn 0.9744 0.2221 0.0344
vn 0.9474 0.1770 -0.2665
vn 0.9589 0.2496 0.1353
vn 0.9969 -0.0000 -0.0785
vn 0.9469 -0.0392 0.3193
vn 0.6406 0.1633 0.7503
vn 0.8530 0.4629 0.2412
vn -0.3239 -0.6888 0.6485
vn 0.2641 -0.0993 0.9594
vn 0.0020 0.2321 -0.9727
vn 0.8951 -0.3416 0.2866
vn -0.9861 0.0311 -0.1631
vn -0.9984 -0.0478 -0.0304
vn 0.9968 0.0691 -0.0392
vn 0.3222 -0.7851 0.5290
vn 0.9017 -0.3256 0.2845
vn -0.8219 -0.4966 0.2791
vn -0.0384 0.3355 -0.9413
vn -0.9563 -0.1739 -0.2351
vn 0.9127 -0.3919 0.1158
vn -0.9823 0.1874 -0.0023
vn -0.9994 0.0045 0.0341
vn 0.9941 0.0811 -0.0727
vn 0.2285 -0.9446 0.2357
vn 0.8429 0.5133 -0.1614
vn -0.8678 -0.4335 0.2430
vn -0.2298 -0.8318 0.5053
vn -0.4765 0.2240 -0.8502
vn 0.8815 0.2248 -0.4153
vn 0.0286 0.8549 -0.5180
vn 0.9974 0.0042 0.0726
vn -0.9840 0.1782 -0.0082
vn -0.9947 0.0132 0.1023
vn 0.9951 0.0892 -0.0423
vn 0.9807 -0.1153 0.1579
vn 0.0326 0.9405 -0.3383
vn -0.8135 -0.5607 0.1545
vn -0.1981 -0.9551 0.2202
vn -0.4856 0.8341 -0.2616
vn -0.0502 -0.5171 -0.8544
vn -0.0423 -0.5575 -0.8291
vn -0.0472 -0.5608 -0.8266
vn -0.0454 -0.5139 -0.8566
vn -0.0499 -0.5544 -0.8307
vn -0.0462 -0.5609 -0.8266
vn -0.9167 -0.2212 0.3327
vn -0.9735 -0.0414 0.2247
vn -0.4471 0.7795 -0.4388
vn 0.8534 0.4394 -0.2803
vn 0.8599 0.4470 -0.2466
vn -0.4537 0.7810 -0.4291
vn -0.1840 -0.7666 0.6152
vn -0.8503 -0.3520 0.3913
vn 0.2386 -0.7414 0.6272
vn 0.9924 0.1234 -0.0040
vn -0.9909 0.0453 0.1268
vn -0.9796 0.1985 0.0310
vn 0.9832 -0.0558 0.1740
vn 0.0284 0.8520 -0.5227
vn 0.2326 -0.7877 0.5705
vn -0.1914 -0.7841 0.5903
vn 0.1631 -0.0121 0.9865
vn -0.0494 -0.5186 -0.8536
vn -0.0689 -0.0005 0.9976
vn -0.0437 -0.5182 -0.8542
vn 0.9871 0.1571 0.0297
vn 0.9605 -0.2266 -0.1613
vn 0.9854 -0.0364 0.1661
vn 0.9508 0.2302 -0.2075
vn 0.5631 -0.0741 0.8230
vn 0.4745 0.7309 -0.4905
vn 0.9838 -0.0507 0.1720
vn 0.3898 0.6147 -0.6857
vn -0.9736 -0.0673 0.2180
vn -0.3573 -0.2644 -0.8958
vn -0.3320 -0.0016 0.9433
vn 0.9878 -0.0084 0.1554
vn 0.2030 0.0371 -0.9785
vn -0.2519 -0.0996 -0.9626
vn -0.9260 -0.3347 -0.1746
vn -0.2702 -0.2877 0.9188
vn -0.2783 -0.0712 -0.9578
vn -0.9450 -0.0171 0.3267
vn 0.9992 0.0330 -0.0220
vn -0.9810 -0.0428 -0.1891
vn 0.5034 0.0226 0.8637
vn 0.1850 -0.2459 -0.9515
vn 0.9768 -0.0582 -0.2061
vn -0.9821 -0.1272 -0.1393
vn 0.0096 -0.9999 -0.0059
vn 0.0446 -0.9988 -0.0194
vn 0.0392 -0.9986 -0.0356
vn 0.0061 -0.9997 -0.0221
vn -0.9979 -0.0308 0.0577
vn 0.9451 0.0687 0.3194
vn 0.1391 -0.0602 -0.9884
vn 0.9605 0.0123 -0.2779
vn 0.9585 0.1170 -0.2600
vn 0.1484 -0.0742 -0.9861
vn 0.3558 0.2137 0.9098
vn -0.9557 0.2522 0.1518
vn -0.9790 0.1086 -0.1727
vn 0.9616 0.2633 0.0775
vn -0.2419 0.1760 0.9542
vn -0.2965 -0.0570 -0.9533
vn -0.2561 0.0963 0.9618
vn 0.3823 0.1307 0.9148
vn -0.1916 0.7320 0.6538
vn 0.0474 -0.9989 0.0003
vn 0.2416 0.7184 0.6524
vn 0.0195 -0.9998 0.0109
vn -0.3049 -0.3520 -0.8850
vn -0.3107 -0.2227 0.9240
vn 0.9857 -0.0479 0.1618
vn -0.9786 -0.1244 -0.1641
vn -0.9705 -0.0868 0.2250
vn 0.4748 -0.2047 0.8560
vn 0.1632 -0.3477 -0.9233
vn 0.9683 -0.0951 -0.2311
vn 0.3502 0.1450 -0.9254
vn 0.2836 -0.8386 -0.4652
vn 0.3507 0.3110 -0.8834
vn 0.2445 0.5518 -0.7973
vn 0.2320 -0.2337 -0.9442
vn 0.3611 0.0757 -0.9295
vn 0.9572 0.2814 0.0680
vn 0.9330 0.2820 0.2236
vn 0.9963 0.0824 -0.0248
vn 0.8965 0.3039 0.3223
vn -0.5835 0.7084 0.3971
vn 0.7663 0.6423 -0.0129
vn 0.8092 -0.5583 -0.1831
vn 0.5168 0.8093 0.2792
vn -0.2392 0.8128 0.5312
vn 0.9131 0.3762 -0.1572
vn 0.9427 -0.2000 -0.2670
vn 0.2570 0.4076 -0.8763
vn -0.0616 -0.3377 0.9392
vn 0.0305 -0.3622 0.9316
vn -0.0302 -0.3496 0.9364
vn 0.0069 -0.3834 0.9236
vn -0.0000 -0.3353 0.9421
vn 0.0382 -0.3942 0.9183
vn -0.0441 -0.3923 0.9188
vn 0.0459 -0.3318 0.9422
vn -0.0024 -0.3473 0.9378
vn 0.0085 -0.3093 0.9509
vn 0.1652 -0.6896 0.7051
vn -0.0311 -0.3204 0.9468
vn 0.2957 -0.6200 0.7268
vn -0.4093 0.0558 0.9107
vn -0.4126 -0.1735 0.8943
vn -0.1416 -0.6245 0.7681
vn 0.7276 0.1294 0.6736
vn -0.2079 -0.5751 0.7912
vn -0.5098 0.0141 0.8602
vn 0.0300 -0.6843 0.7286
vn 0.3193 0.7008 0.6379
vn 0.5296 -0.4444 0.7225
vn 0.5248 -0.5021 0.6874
vn -0.0292 -0.0410 0.9987
vn 0.0200 -0.8058 0.5918
vn -0.0339 0.8803 0.4731
vn 0.7525 -0.0615 0.6557
vn 0.8639 -0.5033 -0.0196
vn -0.3723 0.7852 -0.4949
vn -0.9874 -0.1379 -0.0772
vn -0.9915 0.1283 -0.0222
vn -0.9700 0.1384 0.1996
vn -0.9792 -0.1363 0.1505
vn -0.9783 -0.1528 0.1400
vn -0.0708 -0.9807 0.1825
vn -0.1453 -0.9410 -0.3057
vn -0.0557 -0.9976 0.0420
vn -0.1174 0.9632 -0.2417
vn -0.1808 0.9719 0.1504
vn -0.2497 0.7627 -0.5966
vn -0.1988 -0.0929 -0.9756
vn -0.0427 -0.9019 -0.4299
vn -0.6547 0.2684 0.7067
vn -0.1698 0.2402 -0.9557
vn -0.0357 -0.1946 -0.9802
vn -0.2283 0.3637 -0.9031
vn -0.2114 -0.8077 -0.5504
vn -0.8420 0.5394 0.0100
vn -0.9971 -0.0503 -0.0577
vn -0.1531 0.9798 0.1287
vn -0.9848 0.1436 0.0981
vn -0.3296 -0.6021 -0.7272
vn -0.1073 0.9939 -0.0244
vn -0.0028 0.9168 -0.3993
vn 0.6355 -0.5034 -0.5855
vn -0.6700 0.1185 -0.7328
vn -0.1628 0.9597 0.2291
vn 0.9719 -0.2194 0.0851
vn -0.9329 -0.1128 -0.3420
vn -0.0107 0.8050 -0.5932
vn -0.2395 0.2455 0.9393
vn 0.4517 -0.2679 0.8510
vn 0.0389 -0.9870 0.1556
vn 0.0748 -0.9665 -0.2454
vn 0.0966 -0.9939 0.0527
vn -0.0550 0.1194 0.9913
vn -0.7746 0.4771 -0.4153
vn -0.3621 0.9086 -0.2083
vn -0.9437 -0.3214 0.0777
vn -0.2985 -0.8174 -0.4927
vn -0.3210 0.9377 0.1329
vn -0.2078 0.7388 0.6411
vn -0.0504 0.8060 -0.5898
vn -0.8471 0.1425 0.5120
vn -0.4747 -0.5498 0.6873
vn -0.8061 0.1357 -0.5760
vn -0.1024 -0.2756 -0.9558
vn -0.9854 0.1370 0.1015
vn -0.9731 0.1099 -0.2025
vn -0.1707 0.7647 0.6214
vn -0.3338 -0.9426 0.0097
vn -0.9409 0.1067 0.3216
vn -0.3097 0.9415 0.1326
vn -0.2940 0.9556 -0.0214
vn -0.9790 0.1936 0.0641
vn -0.2309 0.8796 -0.4160
vn -0.0756 0.7622 0.6430
vn -0.1306 -0.8481 -0.5135
vn -0.9751 -0.2115 -0.0663
vn -0.3260 0.9157 0.2349
vn -0.1166 0.8212 0.5585
vn 0.0035 0.5828 0.8126
vn -0.2916 -0.9364 0.1950
vn -0.8386 -0.3249 0.4372
vn -0.2122 -0.9417 -0.2612
vn -0.0594 -0.6779 0.7327
vn -0.1831 -0.9008 -0.3938
vn -0.9334 -0.1792 -0.3108
vn -0.0842 -0.9000 0.4277
vn -0.8717 -0.4806 0.0955
vn -0.3324 -0.9272 -0.1726
vn -0.2993 -0.8865 -0.3530
vn -0.3452 0.6932 0.6327
vn -0.3622 0.7185 0.5937
vn -0.7588 0.0219 0.6509
vn -0.4512 0.6135 0.6481
vn -0.1538 -0.8405 -0.5195
vn -0.1859 -0.9501 0.2504
vn -0.8837 -0.0526 0.4650
vn -0.3500 0.7853 0.5107
vn -0.3818 0.4647 0.7989
vn -0.1217 -0.9464 -0.2992
vn -0.4144 0.5112 0.7530
vn -0.1593 -0.9070 -0.3898
vn -0.5346 -0.0770 0.8416
vn -0.1479 -0.9258 -0.3479
vn -0.3937 -0.9030 0.1723
vn 0.3040 -0.4650 0.8315
vn 0.0092 0.6129 0.7901
vn -0.1792 -0.9051 -0.3856
vn -0.9705 -0.2404 -0.0164
vn -0.0310 -0.6189 0.7849
vn -0.0495 0.6741 0.7369
vn -0.6301 -0.0879 0.7715
vn -0.1441 -0.9196 -0.3655
vn 0.1346 -0.0464 0.9898
vn -0.4470 0.6497 0.6149
vn -0.3325 -0.1262 0.9346
vn -0.0463 -0.9950 -0.0890
vn -0.3308 -0.9392 0.0925
vn -0.7809 -0.3971 0.4822
vn -0.4028 0.4412 0.8019
vn -0.1485 -0.9137 -0.3782
vn -0.8472 0.0198 0.5309
vn 0.0169 0.5134 0.8580
vn -0.2233 -0.9110 -0.3466
vn -0.8796 -0.4056 0.2486
vn -0.9493 -0.2159 -0.2283
vn -0.9845 0.1753 -0.0074
vn -0.9735 0.1127 -0.1992
vn -0.9532 0.2643 0.1468
vn -0.9973 -0.0217 -0.0701
vn -0.9384 0.1755 0.2975
vn -0.7696 0.2809 0.5734
vn -0.9069 0.3504 0.2339
vn 0.7052 0.1641 0.6898
vn 0.0263 0.4246 0.9050
vn -0.0381 -0.5564 -0.8301
vn -0.9022 0.0379 0.4296
vn 0.9841 -0.1403 -0.1093
vn 0.9959 -0.0838 0.0346
vn -0.9951 0.0406 -0.0904
vn -0.2973 -0.0642 0.9526
vn -0.8922 -0.0059 0.4516
vn 0.8713 0.1041 0.4795
vn -0.1771 -0.5171 -0.8374
vn 0.9529 -0.2964 -0.0647
vn -0.9225 -0.0439 0.3834
vn 0.9876 0.0356 -0.1530
vn 0.9996 -0.0156 0.0232
vn -0.9931 0.0220 -0.1156
vn -0.2575 -0.2518 0.9329
vn -0.8347 0.1400 -0.5327
vn 0.8437 -0.0253 0.5362
vn 0.3311 -0.0354 0.9429
vn 0.4750 -0.5105 -0.7168
vn -0.8853 -0.1486 -0.4406
vn -0.0211 -0.0191 -0.9996
vn -0.9935 0.1101 0.0277
vn 0.9880 0.0363 -0.1503
vn 0.9977 0.0475 0.0487
vn -0.9928 0.0557 -0.1063
vn -0.9773 0.1199 0.1747
vn -0.0185 0.1394 -0.9901
vn 0.8077 -0.1773 0.5622
vn 0.1864 -0.2957 0.9369
vn 0.5015 0.1286 -0.8556
vn 0.0022 -0.9999 0.0112
vn -0.0114 -0.9996 0.0265
vn 0.0015 -0.9990 0.0449
vn -0.0018 -1.0000 0.0078
vn 0.0091 -0.9997 0.0206
vn -0.0039 -0.9990 0.0452
vn 0.9197 0.1276 0.3713
vn 0.9794 0.1223 0.1606
vn 0.4544 -0.0100 -0.8907
vn -0.8489 0.0190 -0.5282
vn -0.8544 0.0430 -0.5178
vn 0.4615 -0.0163 -0.8870
vn 0.1947 0.1939 0.9615
vn 0.8546 0.1416 0.4996
vn -0.2432 0.2264 0.9432
vn -0.9877 0.1034 -0.1171
vn 0.9958 0.0856 0.0323
vn 0.9858 0.0770 -0.1491
vn -0.9768 0.1722 0.1273
vn -0.0210 -0.0407 -0.9990
vn -0.2356 0.0723 0.9692
vn 0.1890 0.0712 0.9794
vn -0.1246 0.8325 0.5399
vn -0.0055 -0.9998 -0.0216
vn 0.1001 0.8373 0.5374
vn 0.0055 -0.9997 -0.0232
vn -0.9870 0.1381 0.0824
vn -0.9537 -0.1568 -0.2566
vn -0.9852 -0.0999 0.1393
vn -0.9485 0.2920 -0.1229
vn -0.5883 -0.3921 0.7072
vn -0.5245 0.7867 -0.3256
vn -0.9842 -0.1232 0.1270
vn -0.3297 0.7951 -0.5091
vn 0.9663 -0.2248 0.1251
vn 0.2941 0.1185 -0.9484
vn 0.2772 -0.7216 0.6343
vn -0.9837 -0.1331 0.1212
vn -0.1439 0.4937 -0.8577
vn 0.4049 0.3860 -0.8289
vn 0.9345 -0.1914 -0.3000
vn 0.1383 -0.7302 0.6691
vn 0.2770 0.9063 -0.3192
vn 0.9450 -0.3191 0.0714
vn -0.9993 0.0286 0.0259
vn 0.9808 0.1726 -0.0906
vn -0.4509 -0.6493 0.6125
vn -0.1385 0.1320 -0.9815
vn -0.9647 0.0898 -0.2476
vn 0.9720 -0.0118 -0.2347
vn -0.0077 -0.2686 -0.9632
vn -0.0454 -0.2544 -0.9660
vn -0.0387 -0.2320 -0.9719
vn -0.0055 -0.2454 -0.9694
vn 0.9979 -0.0624 -0.0144
vn -0.9445 -0.2912 0.1521
vn -0.1405 0.9381 -0.3165
vn -0.9609 0.2700 -0.0611
vn -0.9553 0.2914 0.0504
vn -0.1434 0.9553 -0.2586
vn -0.3580 -0.8264 0.4346
vn 0.9569 -0.0801 0.2790
vn 0.9769 0.2041 0.0639
vn -0.9621 -0.0066 0.2725
vn 0.2433 -0.8798 0.4083
vn 0.2854 0.9287 -0.2366
vn 0.2576 -0.8982 0.3563
vn -0.3813 -0.8442 0.3767
vn 0.1924 -0.4280 0.8830
vn -0.0492 -0.2754 -0.9601
vn -0.2404 -0.4309 0.8698
vn -0.0160 -0.2856 -0.9582
vn 0.3001 0.7962 -0.5253
vn 0.3052 -0.9493 0.0758
vn -0.9846 -0.1747 -0.0005
vn 0.9777 0.1294 -0.1657
vn 0.9690 -0.2462 -0.0193
vn -0.4658 -0.8817 0.0744
vn -0.1557 0.8359 -0.5264
vn -0.9644 0.2176 -0.1501
vn -0.3339 0.1516 -0.9303
vn -0.3327 -0.8539 -0.4003
vn -0.3507 0.3110 -0.8834
vn -0.2194 0.5175 -0.8271
vn -0.1735 -0.2013 -0.9640
vn -0.2724 0.1201 -0.9547
vn -0.9572 0.2814 0.0680
vn -0.9330 0.2820 0.2236
vn -0.9963 0.0824 -0.0248
vn -0.8965 0.3039 0.3224
vn 0.5836 0.7084 0.3970
vn -0.7663 0.6423 -0.0129
vn -0.8093 -0.5582 -0.1830
vn -0.5168 0.8093 0.2792
vn 0.2394 0.8127 0.5312
vn -0.9131 0.3761 -0.1572
vn -0.9427 -0.1999 -0.2670
vn -0.2569 0.4076 -0.8763
vn 0.0616 -0.3377 0.9392
vn -0.0305 -0.3621 0.9316
vn 0.0302 -0.3495 0.9365
vn -0.0069 -0.3833 0.9236
vn -0.0000 -0.3352 0.9422
vn -0.0382 -0.3940 0.9183
vn 0.0440 -0.3922 0.9188
vn -0.0459 -0.3317 0.9423
vn 0.0024 -0.3472 0.9378
vn -0.0085 -0.3094 0.9509
vn -0.1654 -0.6895 0.7051
vn 0.0311 -0.3204 0.9468
vn -0.2957 -0.6200 0.7268
vn 0.4093 0.0557 0.9107
vn 0.4126 -0.1734 0.8943
vn 0.1416 -0.6244 0.7682
vn -0.7276 0.1294 0.6736
vn 0.2079 -0.5751 0.7913
vn 0.5099 0.0141 0.8601
vn -0.0300 -0.6842 0.7286
vn -0.3193 0.7008 0.6379
vn -0.5296 -0.4444 0.7225
vn -0.5248 -0.5021 0.6874
vn 0.0292 -0.0410 0.9987
vn -0.0200 -0.8058 0.5918
vn 0.0339 0.8803 0.4731
vn -0.7525 -0.0615 0.6557
vn 0.8961 -0.4386 0.0681
vn 0.9975 -0.0085 0.0702
vn 0.7307 -0.6734 -0.1122
vn 0.1099 -0.4641 -0.8790
vn 0.0413 -0.1503 -0.9878
vn 0.9363 0.2602 0.2360
vn 0.6878 -0.2580 0.6785
vn 0.3444 -0.7903 0.5067
vn -0.6069 -0.0428 -0.7936
vn -0.4208 0.2883 -0.8601
vn 0.7919 0.0710 0.6065
vn 0.5964 -0.3038 0.7430
vn -0.3952 -0.9159 0.0698
vn -0.6285 0.1094 -0.7701
vn -0.3576 0.4588 -0.8134
vn 0.4470 0.1105 0.8877
vn 0.2431 -0.1879 0.9516
vn -0.9975 0.0085 -0.0702
vn -0.7601 0.3510 -0.5469
vn -0.4475 0.8877 -0.1082
vn -0.7307 0.6734 0.1121
vn -0.6822 0.6831 -0.2610
vn -0.6942 0.4954 -0.5221
vn -0.8961 0.4386 -0.0681
vn -0.8552 0.3257 -0.4032
vn -0.8798 0.1908 -0.4355
vn -0.7220 0.2382 0.6496
vn -0.7805 -0.0263 0.6246
vn -0.1738 -0.2693 0.9472
vn -0.0413 0.1503 0.9878
vn 0.2534 -0.0482 0.9662
vn 0.4174 -0.0461 0.9076
vn -0.1099 0.4640 0.8790
vn 0.2535 0.3675 0.8948
vn 0.2197 0.6626 0.7160
vn -0.3444 0.7904 -0.5067
vn -0.4625 0.5413 -0.7022
vn -0.5848 0.4447 -0.6784
vn -0.6878 0.2580 -0.6785
vn -0.6976 0.1646 -0.6973
vn -0.7767 0.1156 -0.6191
vn -0.9363 -0.2603 -0.2360
vn -0.6272 -0.7131 0.3130
vn -0.0725 -0.5516 0.8310
vn 0.4208 -0.2883 0.8601
vn 0.5257 -0.2480 0.8137
vn 0.5343 -0.1542 0.8311
vn 0.6069 0.0428 0.7936
vn 0.6835 0.1547 0.7133
vn 0.5927 0.4743 0.6509
vn -0.5964 0.3038 -0.7430
vn -0.5257 0.2480 -0.8137
vn -0.5343 0.1542 -0.8311
vn -0.7919 -0.0711 -0.6065
vn -0.6835 -0.1547 -0.7133
vn -0.5927 -0.4743 -0.6509
vn 0.3576 -0.4588 0.8134
vn 0.4625 -0.5413 0.7022
vn 0.5848 -0.4447 0.6784
vn 0.6285 -0.1094 0.7701
vn 0.6976 -0.1646 0.6973
vn 0.7767 -0.1156 0.6191
vn 0.3952 0.9159 -0.0698
vn 0.6272 0.7132 -0.3130
vn 0.0725 0.5516 -0.8310
vn -0.2431 0.1879 -0.9516
vn -0.2534 0.0482 -0.9662
vn -0.4174 0.0461 -0.9076
vn -0.4471 -0.1105 -0.8877
vn -0.2535 -0.3675 -0.8948
vn -0.2197 -0.6626 -0.7160
vn 0.4475 -0.8877 0.1082
vn 0.6821 -0.6831 0.2610
vn 0.6942 -0.4954 0.5221
vn 0.1738 0.2693 -0.9472
vn 0.7805 0.0263 -0.6246
vn 0.7220 -0.2382 -0.6496
vn 0.7601 -0.3510 0.5469
vn 0.8552 -0.3257 0.4032
vn 0.8798 -0.1908 0.4355
vn -0.8961 -0.4386 0.0681
vn -0.9975 -0.0085 0.0702
vn -0.7307 -0.6734 -0.1121
vn -0.1099 -0.4640 -0.8790
vn -0.0413 -0.1503 -0.9878
vn -0.9363 0.2602 0.2360
vn -0.6878 -0.2580 0.6785
vn -0.3444 -0.7903 0.5067
vn 0.6069 -0.0428 -0.7936
vn 0.4208 0.2883 -0.8601
vn -0.7919 0.0711 0.6065
vn -0.5964 -0.3037 0.7430
vn 0.3952 -0.9159 0.0698
vn 0.6285 0.1094 -0.7701
vn 0.3576 0.4588 -0.8134
vn -0.4471 0.1105 0.8877
vn -0.2432 -0.1879 0.9516
vn 0.9975 0.0085 -0.0702
vn 0.7601 0.3510 -0.5469
vn 0.4475 0.8877 -0.1082
vn 0.7307 0.6734 0.1121
vn 0.6821 0.6831 -0.2610
vn 0.6942 0.4954 -0.5221
vn 0.8961 0.4386 -0.0681
vn 0.8552 0.3257 -0.4032
vn 0.8798 0.1908 -0.4354
vn 0.7220 0.2382 0.6496
vn 0.7805 -0.0263 0.6246
vn 0.1738 -0.2693 0.9472
vn 0.0413 0.1503 0.9878
vn -0.2534 -0.0482 0.9662
vn -0.4174 -0.0462 0.9076
vn 0.1099 0.4641 0.8790
vn -0.2535 0.3675 0.8948
vn -0.2197 0.6626 0.7160
vn 0.3444 0.7904 -0.5067
vn 0.4625 0.5413 -0.7023
vn 0.5848 0.4447 -0.6784
vn 0.6878 0.2580 -0.6785
vn 0.6976 0.1646 -0.6973
vn 0.7767 0.1156 -0.6191
vn 0.9363 -0.2602 -0.2360
vn 0.6272 -0.7132 0.3130
vn 0.0725 -0.5516 0.8310
vn -0.4208 -0.2883 0.8601
vn -0.5257 -0.2480 0.8137
vn -0.5343 -0.1542 0.8311
vn -0.6069 0.0428 0.7936
vn -0.6835 0.1547 0.7133
vn -0.5927 0.4743 0.6509
vn 0.5964 0.3038 -0.7430
vn 0.5257 0.2480 -0.8137
vn 0.5343 0.1542 -0.8311
vn 0.7919 -0.0711 -0.6065
vn 0.6835 -0.1548 -0.7133
vn 0.5927 -0.4743 -0.6509
vn -0.3576 -0.4588 0.8134
vn -0.4625 -0.5413 0.7023
vn -0.5848 -0.4447 0.6784
vn -0.6285 -0.1094 0.7701
vn -0.6976 -0.1646 0.6973
vn -0.7767 -0.1156 0.6191
vn -0.3952 0.9159 -0.0698
vn -0.6272 0.7132 -0.3130
vn -0.0725 0.5516 -0.8310
vn 0.2432 0.1879 -0.9516
vn 0.2534 0.0482 -0.9662
vn 0.4174 0.0461 -0.9076
vn 0.4471 -0.1104 -0.8877
vn 0.2535 -0.3675 -0.8948
vn 0.2197 -0.6627 -0.7160
vn -0.4475 -0.8877 0.1082
vn -0.6822 -0.6831 0.2610
vn -0.6942 -0.4954 0.5221
vn -0.1738 0.2693 -0.9472
vn -0.7805 0.0263 -0.6246
vn -0.7220 -0.2382 -0.6496
vn -0.7601 -0.3510 0.5469
vn -0.8552 -0.3257 0.4032
vn -0.8798 -0.1908 0.4355
vt 0.833374 0.494548
vt 0.893919 0.512741
vt 0.908415 0.468160
vt 0.848637 0.467455
vt 0.567859 0.867914
vt 0.639317 0.828812
vt 0.620915 0.894044
vt 0.556155 0.927906
vt 0.812683 0.509803
vt 0.774909 0.642712
vt 0.751394 0.643294
vt 0.751725 0.493743
vt 0.828812 0.793372
vt 0.751727 0.811870
vt 0.672932 0.807420
vt 0.672336 0.642732
vt 0.672998 0.503429
vt 0.598676 0.643182
vt 0.594201 0.530171
vt 0.560191 0.672195
vt 0.619753 0.672998
vt 0.599703 0.594201
vt 0.569702 0.558226
vt 0.580250 0.833374
vt 0.635423 0.812683
vt 0.637090 0.751725
vt 0.569078 0.759035
vt 0.500000 0.859251
vt 0.500000 0.750726
vt 0.569078 0.758996
vt 0.500000 0.657595
vt 0.560191 0.671923
vt 0.604420 0.951058
vt 0.545714 0.976119
vt 0.604420 0.548422
vt 0.626365 0.643481
vt 0.688416 0.643970
vt 0.666902 0.547256
vt 0.500000 0.917421
vt 0.563590 0.893919
vt 0.639317 0.793372
vt 0.659328 0.642712
vt 0.676970 0.643370
vt 0.671449 0.761101
vt 0.555994 0.632181
vt 0.545714 0.747180
vt 0.604420 0.735145
vt 0.572975 0.538591
vt 0.666902 0.715601
vt 0.500000 0.969030
vt 0.572975 0.947229
vt 0.501290 0.830086
vt 0.457158 0.830118
vt 0.460328 0.806630
vt 0.500288 0.803578
vt 0.499838 0.512886
vt 0.460007 0.507514
vt 0.481582 0.413128
vt 0.510774 0.417065
vt 0.500000 0.559830
vt 0.556447 0.575135
vt 0.579931 0.796381
vt 0.599703 0.530171
vt 0.637090 0.643182
vt 0.659115 0.643738
vt 0.643940 0.535244
vt 0.564556 0.492909
vt 0.500000 0.477524
vt 0.500000 0.432743
vt 0.566016 0.447361
vt 0.569702 0.518348
vt 0.616981 0.429733
vt 0.594994 0.421068
vt 0.612448 0.796381
vt 0.637526 0.771615
vt 0.500000 0.371229
vt 0.561082 0.382998
vt 0.450625 0.491920
vt 0.495971 0.498202
vt 0.507939 0.406303
vt 0.474705 0.401699
vt 0.591615 0.535244
vt 0.575831 0.433451
vt 0.407144 0.499901
vt 0.406490 0.640437
vt 0.358675 0.605643
vt 0.363238 0.556600
vt 0.578790 0.420824
vt 0.621227 0.407144
vt 0.601979 0.363238
vt 0.551080 0.357545
vt 0.500000 0.657756
vt 0.500000 0.571782
vt 0.667216 0.508652
vt 0.621227 0.499901
vt 0.632756 0.407548
vt 0.666461 0.413961
vt 0.556577 0.771615
vt 0.637090 0.751727
vt 0.260484 0.580516
vt 0.278839 0.520364
vt 0.582070 0.278839
vt 0.540875 0.268345
vt 0.619753 0.672932
vt 0.500000 0.307117
vt 0.551080 0.314473
vt 0.500000 0.983839
vt 0.393435 0.816867
vt 0.325561 0.763148
vt 0.671449 0.517077
vt 0.635423 0.509803
vt 0.642381 0.470278
vt 0.671266 0.470798
vt 0.988807 0.740196
vt 1.002924 0.661469
vt 1.015365 0.669173
vt 1.001496 0.721513
vt 0.500000 0.531683
vt 0.500000 0.631036
vt 0.249130 0.712570
vt 0.191059 0.679456
vt 0.198981 0.567653
vt 0.945839 0.547256
vt 0.886123 0.529161
vt 0.904522 0.470747
vt 0.963512 0.471464
vt 0.500000 0.238897
vt 0.540875 0.239236
vt 0.564556 0.495971
vt 0.612448 0.579931
vt 0.628268 0.501290
vt 0.631115 0.457158
vt 0.168698 0.648799
vt 0.177283 0.553376
vt 0.539817 0.181283
vt 0.500000 0.184290
vt 0.500000 0.144817
vt 0.539817 0.140934
vt 0.580006 0.205473
vt 0.539817 0.196322
vt 0.205473 0.476864
vt 0.621491 0.393435
vt 0.538703 0.608225
vt 0.500000 0.615960
vt 0.500000 0.567098
vt 0.526605 0.560962
vt 0.566016 0.450625
vt 0.149293 0.452102
vt 0.133162 0.541160
vt 0.103583 0.505809
vt 0.123733 0.441345
vt 0.539531 0.141037
vt 0.579447 0.149293
vt 0.562090 0.123733
vt 0.530633 0.116366
vt 0.500000 0.385014
vt 0.500000 0.353218
vt 0.586057 0.174337
vt 0.542919 0.165879
vt 0.174337 0.464471
vt 0.086614 0.427976
vt 0.065909 0.448336
vt 0.053210 0.428901
vt 0.071388 0.423606
vt 0.515797 0.085531
vt 0.531484 0.086614
vt 0.523242 0.071388
vt 0.510720 0.071544
vt 0.500000 0.266808
vt 0.601979 0.325561
vt 0.582070 0.249130
vt 0.108290 0.599988
vt 0.073849 0.556649
vt 0.580006 0.679456
vt 0.539817 0.690304
vt 0.539817 0.657159
vt 0.579599 0.648799
vt 0.500000 0.199929
vt 0.513331 0.045311
vt 0.500000 0.046647
vt 0.500000 0.069896
vt 0.051602 0.475706
vt 0.038205 0.462176
vt 0.038356 0.442272
vt 0.580006 0.191059
vt 0.577833 0.599988
vt 0.554232 0.556649
vt 0.500000 0.147087
vt 0.500000 0.124516
vt 0.530339 0.475706
vt 0.515210 0.477146
vt 0.513246 0.460736
vt 0.522445 0.462176
vt 0.500000 0.170521
vt 0.515546 0.457928
vt 0.507613 0.457080
vt 0.506877 0.445401
vt 0.514439 0.446199
vt 0.500000 0.089031
vt 0.528336 0.053210
vt 0.620841 0.601238
vt 0.618568 0.607555
vt 0.613078 0.604170
vt 0.614718 0.599612
vt 0.500000 0.479371
vt 0.500000 0.460095
vt 0.513331 0.424258
vt 0.512541 0.440917
vt 0.500000 0.440864
vt 0.500000 0.422187
vt 0.500000 0.664242
vt 0.576432 0.505809
vt 0.539481 0.507406
vt 0.547321 0.467354
vt 0.500000 0.513551
vt 0.519044 0.508271
vt 0.579599 0.168698
vt 0.538703 0.096221
vt 0.577833 0.108290
vt 0.520322 0.097153
vt 0.500000 0.106427
vt 0.541975 0.104341
vt 0.078394 0.467354
vt 0.104341 0.437145
vt 0.073220 0.507406
vt 0.590300 0.643738
vt 0.499630 0.641384
vt 0.459655 0.640419
vt 0.417546 0.774144
vt 0.414448 0.641253
vt 0.423095 0.508652
vt 0.621491 0.816867
vt 0.648114 0.640437
vt 0.669097 0.641253
vt 0.644267 0.774144
vt 0.578790 0.496630
vt 0.601625 0.405151
vt 0.649402 0.433451
vt 0.651726 0.367843
vt 0.620780 0.366797
vt 0.454529 0.413961
vt 0.467814 0.368189
vt 0.488225 0.366596
vt 0.561691 0.421068
vt 0.537425 0.365401
vt 0.507200 0.363509
vt 0.481273 0.364028
vt 0.510983 0.366114
vt 0.635806 0.367147
vt 0.669092 0.368189
vt 0.420824 0.496630
vt 0.452865 0.405151
vt 0.558226 0.518348
vt 0.484328 0.324872
vt 0.502799 0.322553
vt 0.547406 0.321655
vt 0.519920 0.320969
vt 0.496410 0.322232
vt 0.523434 0.321439
vt 0.639292 0.324944
vt 0.675657 0.324872
vt 0.550036 0.367843
vt 0.558926 0.322330
vt 0.465216 0.366023
vt 0.604868 0.366023
vt 0.599660 0.365401
vt 0.621651 0.293283
vt 0.658462 0.293469
vt 0.659368 0.261742
vt 0.621257 0.261665
vt 0.501495 0.293600
vt 0.482345 0.307625
vt 0.480362 0.262732
vt 0.500191 0.261781
vt 0.519246 0.292376
vt 0.547742 0.292993
vt 0.548078 0.261464
vt 0.518571 0.260916
vt 0.494871 0.293528
vt 0.493332 0.261956
vt 0.522889 0.292587
vt 0.522344 0.260869
vt 0.451756 0.288897
vt 0.449773 0.262732
vt 0.656778 0.322330
vt 0.622394 0.322035
vt 0.481902 0.324350
vt 0.605664 0.324350
vt 0.599057 0.321655
vt 0.595403 0.548078
vt 0.621257 0.561263
vt 0.645824 0.523009
vt 0.590945 0.518571
vt 0.639859 0.470735
vt 0.648324 0.498544
vt 0.685407 0.500191
vt 0.686261 0.480362
vt 0.592251 0.493332
vt 0.659368 0.560446
vt 0.683143 0.522344
vt 0.596433 0.477757
vt 0.479829 0.307317
vt 0.477757 0.262636
vt 0.447168 0.262636
vt 0.449241 0.288588
vt 0.596679 0.292993
vt 0.595403 0.261464
vt 0.559686 0.293469
vt 0.560446 0.261742
vt 0.603589 0.307317
vt 0.640355 0.307779
vt 0.679739 0.307625
vt 0.677932 0.288897
vt 0.639680 0.289050
vt 0.639859 0.262967
vt 0.679465 0.262732
vt 0.604354 0.288588
vt 0.603287 0.262636
vt 0.679739 0.482345
vt 0.640355 0.473048
vt 0.639680 0.442459
vt 0.677932 0.451756
vt 0.679465 0.449773
vt 0.639859 0.440146
vt 0.603589 0.479829
vt 0.604354 0.449241
vt 0.603287 0.447168
vt 0.841501 0.761101
vt 0.796910 0.643370
vt 0.906455 0.644155
vt 0.894416 0.742499
vt 0.957194 0.643970
vt 0.829265 0.517077
vt 0.940741 0.715601
vt 0.671449 0.841501
vt 0.669190 0.894416
vt 0.849398 0.470798
vt 0.666902 0.940741
vt 0.909364 0.402088
vt 0.855378 0.389954
vt 0.592313 0.470184
vt 0.617524 0.471308
vt 0.621192 0.417417
vt 0.598226 0.414426
vt 0.598146 0.467455
vt 0.603540 0.389954
vt 0.643835 0.389418
vt 0.855424 0.393127
vt 0.905341 0.403681
vt 0.667620 0.471464
vt 0.947229 0.538591
vt 0.963044 0.470184
vt 0.580250 0.494548
vt 0.595712 0.312254
vt 0.621272 0.312916
vt 0.622837 0.264476
vt 0.597277 0.263453
vt 0.852894 0.313492
vt 0.849695 0.260671
vt 0.818572 0.260902
vt 0.821566 0.286829
vt 0.893654 0.314609
vt 0.853541 0.316407
vt 0.850246 0.263617
vt 0.890422 0.263754
vt 0.896415 0.312211
vt 0.936226 0.312254
vt 0.933075 0.263453
vt 0.893263 0.261490
vt 0.670148 0.393127
vt 0.666826 0.415674
vt 0.958612 0.415674
vt 0.958434 0.414426
vt 0.649700 0.837975
vt 0.635627 0.887710
vt 0.686058 0.890422
vt 0.687133 0.850246
vt 0.592375 0.849695
vt 0.589648 0.893263
vt 0.597277 0.933075
vt 0.622837 0.940554
vt 0.673628 0.933416
vt 0.822213 0.289744
vt 0.819123 0.263848
vt 0.672063 0.313364
vt 0.673628 0.264581
vt 0.936602 0.313364
vt 0.933416 0.264581
vt 0.941647 0.364922
vt 0.899640 0.363406
vt 0.623001 0.364960
vt 0.665562 0.364922
vt 0.668659 0.362549
vt 0.644119 0.361871
vt 0.647700 0.316485
vt 0.685132 0.316407
vt 0.859879 0.359936
vt 0.902447 0.361457
vt 0.941330 0.363919
vt 0.860378 0.362549
vt 0.606538 0.359936
vt 0.590374 0.313492
vt 0.601582 0.363919
vt 0.646474 0.289822
vt 0.601626 0.286829
vt 0.603191 0.260902
vt 0.648039 0.263334
vt 0.675760 0.289744
vt 0.677325 0.263848
vt 0.647700 0.841274
vt 0.590374 0.852894
vt 0.601626 0.821566
vt 0.646474 0.809945
vt 0.648039 0.806852
vt 0.603191 0.818572
vt 0.685132 0.853541
vt 0.675760 0.822213
vt 0.677325 0.819123
vt 0.500000 0.668378
vt 0.500000 0.724779
vt 0.517225 0.721513
vt 0.520785 0.669173
vt 0.528698 1.002924
vt 0.500000 1.014901
vt 0.500000 1.025182
vt 0.520785 1.015365
vt 0.500000 0.744181
vt 0.519989 0.740196
vt 0.519989 0.988807
vt 0.500000 0.995348
vt 0.500000 0.660499
vt 0.528698 0.661469
vt 0.154177 0.616909
vt 0.166410 0.570048
vt 0.135838 0.608740
vt 0.149154 0.567675
vt 0.147623 0.572395
vt 0.137518 0.603560
vt 0.583783 0.154177
vt 0.583848 0.135838
vt 0.600568 0.131366
vt 0.597073 0.144428
vt 0.144166 0.612314
vt 0.141084 0.620214
vt 0.132632 0.614576
vt 0.134671 0.609983
vt 0.153028 0.593819
vt 0.141399 0.592146
vt 0.619182 0.132632
vt 0.614588 0.141084
vt 0.606252 0.140479
vt 0.610351 0.130579
vt 0.138199 0.601250
vt 0.148213 0.603179
vt 0.602487 0.570048
vt 0.583783 0.616909
vt 0.597073 0.624463
vt 0.606252 0.625520
vt 0.614588 0.620214
vt 0.620822 0.612314
vt 0.623703 0.603179
vt 0.620639 0.593819
vt 0.604695 0.577238
vt 0.601269 0.572395
vt 0.603531 0.567675
vt 0.609313 0.614171
vt 0.615687 0.610750
vt 0.619182 0.614576
vt 0.610351 0.619358
vt 0.602434 0.613212
vt 0.600568 0.617961
vt 0.626402 0.601250
vt 0.623276 0.609983
vt 0.618527 0.594500
vt 0.623272 0.592146
vt 0.590602 0.606787
vt 0.583848 0.608740
vt 0.592903 0.603615
vt 0.603070 0.582298
vt 0.613048 0.594751
vt 0.610999 0.606475
vt 0.606401 0.608943
vt 0.601438 0.608251
vt 0.586331 0.603560
vt 0.600598 0.578805
vt 0.589822 0.601288
vt 0.148133 0.578805
vt 0.140843 0.601288
vt 0.522445 0.038205
vt 0.513246 0.032036
vt 0.507613 0.025182
vt 0.515546 0.030102
vt 0.521458 0.442272
vt 0.528336 0.428901
vt 0.500000 0.456702
vt 0.500000 0.445370
vt 0.500000 0.031689
vt 0.512541 0.032373
vt 0.506877 0.025742
vt 0.500000 0.025886
vt 0.500000 0.031337
vt 0.500000 0.025479
vt 0.030102 0.457928
vt 0.030515 0.446199
vt 0.432141 0.867914
vt 0.443845 0.927906
vt 0.379085 0.894044
vt 0.360683 0.828812
vt 0.439809 0.672195
vt 0.430298 0.558226
vt 0.400297 0.594201
vt 0.380247 0.672998
vt 0.419750 0.833374
vt 0.430922 0.759035
vt 0.362910 0.751725
vt 0.364577 0.812683
vt 0.430922 0.758996
vt 0.439809 0.671923
vt 0.454286 0.976119
vt 0.395580 0.951058
vt 0.395580 0.548422
vt 0.333098 0.547256
vt 0.311584 0.643970
vt 0.373635 0.643481
vt 0.436410 0.893919
vt 0.360683 0.793372
vt 0.328551 0.761101
vt 0.323030 0.643370
vt 0.340672 0.642712
vt 0.444006 0.632181
vt 0.395580 0.735145
vt 0.454286 0.747180
vt 0.427025 0.538591
vt 0.333098 0.715601
vt 0.427025 0.947229
vt 0.443553 0.575135
vt 0.400297 0.530171
vt 0.356060 0.535244
vt 0.340885 0.643738
vt 0.362910 0.643182
vt 0.435444 0.492909
vt 0.433984 0.447361
vt 0.430298 0.518348
vt 0.405006 0.421068
vt 0.383019 0.429733
vt 0.362474 0.771615
vt 0.387552 0.796381
vt 0.438918 0.382998
vt 0.421210 0.420824
vt 0.448920 0.357545
vt 0.398021 0.363238
vt 0.378773 0.407144
vt 0.332784 0.508652
vt 0.333539 0.413961
vt 0.367244 0.407548
vt 0.378773 0.499901
vt 0.362910 0.751727
vt 0.459125 0.268345
vt 0.417930 0.278839
vt 0.380247 0.672932
vt 0.448920 0.314473
vt 0.328551 0.517077
vt 0.328734 0.470798
vt 0.357619 0.470278
vt 0.364577 0.509803
vt 0.459125 0.239236
vt 0.435444 0.495971
vt 0.387552 0.579931
vt 0.371732 0.501290
vt 0.368885 0.457158
vt 0.460183 0.181283
vt 0.460183 0.140934
vt 0.460183 0.196322
vt 0.419994 0.205473
vt 0.378509 0.393435
vt 0.461297 0.608225
vt 0.473395 0.560962
vt 0.433984 0.450625
vt 0.460469 0.141037
vt 0.469367 0.116366
vt 0.437911 0.123733
vt 0.420553 0.149293
vt 0.457081 0.165879
vt 0.413943 0.174337
vt 0.484203 0.085531
vt 0.489280 0.071544
vt 0.476758 0.071388
vt 0.468516 0.086614
vt 0.398021 0.325561
vt 0.417930 0.249130
vt 0.419994 0.679456
vt 0.420401 0.648799
vt 0.460183 0.657159
vt 0.460183 0.690304
vt 0.486669 0.045311
vt 0.419994 0.191059
vt 0.422167 0.599988
vt 0.445768 0.556649
vt 0.469661 0.475706
vt 0.477555 0.462176
vt 0.486754 0.460736
vt 0.484790 0.477146
vt 0.484454 0.457928
vt 0.485561 0.446199
vt 0.493123 0.445401
vt 0.492387 0.457080
vt 0.471665 0.053210
vt 0.379159 0.601238
vt 0.385282 0.599612
vt 0.386922 0.604170
vt 0.381432 0.607555
vt 0.486669 0.424258
vt 0.487459 0.440917
vt 0.423568 0.505809
vt 0.452679 0.467354
vt 0.460520 0.507406
vt 0.480956 0.508271
vt 0.420401 0.168698
vt 0.422167 0.108290
vt 0.461297 0.096221
vt 0.479678 0.097153
vt 0.458025 0.104341
vt 0.378509 0.816867
vt 0.355733 0.774144
vt 0.330903 0.641253
vt 0.351886 0.640437
vt 0.398375 0.405151
vt 0.421210 0.496630
vt 0.379220 0.366797
vt 0.348274 0.367843
vt 0.350598 0.433451
vt 0.330908 0.368189
vt 0.364194 0.367147
vt 0.324343 0.324872
vt 0.360708 0.324944
vt 0.395132 0.366023
vt 0.400340 0.365401
vt 0.378349 0.293283
vt 0.378743 0.261665
vt 0.340632 0.261742
vt 0.341538 0.293469
vt 0.377606 0.322035
vt 0.343222 0.322330
vt 0.394336 0.324350
vt 0.400943 0.321655
vt 0.404597 0.548078
vt 0.409055 0.518571
vt 0.354176 0.523009
vt 0.378743 0.561263
vt 0.360141 0.470735
vt 0.313739 0.480362
vt 0.314593 0.500191
vt 0.351676 0.498544
vt 0.407749 0.493332
vt 0.316857 0.522344
vt 0.340632 0.560446
vt 0.403567 0.477757
vt 0.403321 0.292993
vt 0.404597 0.261464
vt 0.359645 0.307779
vt 0.396411 0.307317
vt 0.320262 0.307625
vt 0.322068 0.288897
vt 0.320535 0.262732
vt 0.360141 0.262967
vt 0.360320 0.289050
vt 0.396713 0.262636
vt 0.395646 0.288588
vt 0.320262 0.482345
vt 0.322068 0.451756
vt 0.360320 0.442459
vt 0.359645 0.473048
vt 0.360141 0.440146
vt 0.320535 0.449773
vt 0.395646 0.449241
vt 0.396411 0.479829
vt 0.396713 0.447168
vt 0.330810 0.894416
vt 0.328551 0.841501
vt 0.333098 0.940741
vt 0.407688 0.470184
vt 0.401774 0.414426
vt 0.378808 0.417417
vt 0.382476 0.471308
vt 0.356165 0.389418
vt 0.396460 0.389954
vt 0.401854 0.467455
vt 0.332380 0.471464
vt 0.419750 0.494548
vt 0.404289 0.312254
vt 0.402723 0.263453
vt 0.377163 0.264476
vt 0.378728 0.312916
vt 0.329852 0.393127
vt 0.333174 0.415674
vt 0.350300 0.837975
vt 0.312867 0.850246
vt 0.313942 0.890422
vt 0.364373 0.887710
vt 0.410353 0.893263
vt 0.407625 0.849695
vt 0.377163 0.940554
vt 0.402723 0.933075
vt 0.326372 0.933416
vt 0.326372 0.264581
vt 0.327937 0.313364
vt 0.376999 0.364960
vt 0.334438 0.364922
vt 0.331341 0.362549
vt 0.314868 0.316407
vt 0.352300 0.316485
vt 0.355881 0.361871
vt 0.409626 0.313492
vt 0.393462 0.359936
vt 0.398418 0.363919
vt 0.353526 0.289822
vt 0.351961 0.263334
vt 0.396809 0.260902
vt 0.398374 0.286829
vt 0.324240 0.289744
vt 0.322675 0.263848
vt 0.352300 0.841274
vt 0.353526 0.809945
vt 0.398374 0.821566
vt 0.409626 0.852894
vt 0.396809 0.818572
vt 0.351961 0.806852
vt 0.314868 0.853541
vt 0.324240 0.822213
vt 0.322675 0.819123
vt 0.479215 0.669173
vt 0.482775 0.721513
vt 0.471302 1.002924
vt 0.479215 1.015365
vt 0.480011 0.740196
vt 0.480011 0.988807
vt 0.471302 0.661469
vt 0.416217 0.154177
vt 0.402927 0.144428
vt 0.399432 0.131366
vt 0.416152 0.135838
vt 0.380819 0.132632
vt 0.389649 0.130579
vt 0.393748 0.140479
vt 0.385412 0.141084
vt 0.397513 0.570048
vt 0.379361 0.593819
vt 0.376297 0.603179
vt 0.379178 0.612314
vt 0.385412 0.620214
vt 0.393748 0.625520
vt 0.402927 0.624463
vt 0.416217 0.616909
vt 0.395305 0.577238
vt 0.396469 0.567675
vt 0.398731 0.572395
vt 0.390687 0.614171
vt 0.389649 0.619358
vt 0.380819 0.614576
vt 0.384313 0.610750
vt 0.397566 0.613212
vt 0.399432 0.617961
vt 0.376724 0.609983
vt 0.373598 0.601250
vt 0.376728 0.592146
vt 0.381473 0.594500
vt 0.409398 0.606787
vt 0.416152 0.608740
vt 0.407098 0.603615
vt 0.398562 0.608251
vt 0.393599 0.608943
vt 0.389001 0.606475
vt 0.386952 0.594751
vt 0.396930 0.582298
vt 0.413669 0.603560
vt 0.399402 0.578805
vt 0.410178 0.601288
vt 0.477555 0.038205
vt 0.484454 0.030102
vt 0.492387 0.025182
vt 0.486754 0.032036
vt 0.478542 0.442272
vt 0.471665 0.428901
vt 0.493123 0.025742
vt 0.487459 0.032373
vt 0.181819 0.000000
vt 0.227273 0.078731
vt 0.136365 0.078731
vt 0.272728 0.157461
vt 0.318182 0.078731
vt 0.363637 0.157461
vt 0.909091 0.000000
vt 0.954545 0.078731
vt 0.863636 0.078731
vt 0.727273 0.000000
vt 0.772727 0.078731
vt 0.681818 0.078731
vt 0.545455 0.000000
vt 0.590909 0.078731
vt 0.500000 0.078731
vt 0.318182 0.236191
vt 0.090910 0.157461
vt 0.181819 0.157461
vt 0.136365 0.236191
vt 0.818182 0.157461
vt 0.909091 0.157461
vt 0.863636 0.236191
vt 0.636364 0.157461
vt 0.727273 0.157461
vt 0.681818 0.236191
vt 0.454546 0.157461
vt 0.545455 0.157461
vt 0.500000 0.236191
vt 0.227273 0.236191
vt 0.045455 0.236191
vt 0.772727 0.236191
vt 0.590909 0.236191
vt 0.409092 0.236191
vt 0.181819 0.314921
vt 0.272728 0.314921
vt 0.227273 0.393651
vt 0.000000 0.314921
vt 0.090910 0.314921
vt 0.045455 0.393651
vt 0.727273 0.314921
vt 0.818182 0.314921
vt 0.772727 0.393651
vt 0.545455 0.314921
vt 0.636364 0.314921
vt 0.590909 0.393651
vt 0.363637 0.314921
vt 0.454546 0.314921
vt 0.409092 0.393651
vt 0.500000 0.393651
vt 0.454546 0.472382
vt 0.681818 0.393651
vt 0.636364 0.472382
vt 0.863636 0.393651
vt 0.818182 0.472382
vt 0.909091 0.314921
vt 0.136365 0.393651
vt 0.090910 0.472382
vt 0.318182 0.393651
vt 0.272728 0.472382
vt 0.954545 0.236191
vt 1.000000 0.157461
vt 0.409092 0.078731
vt 0.363637 0.000000
s 1
f 116/1/1 98/2/1 209/3/1 208/4/1
f 115/5/2 4/6/2 17/7/2 97/8/2
f 3/9/3 7/10/3 13/11/3 8/12/3
f 7/10/4 4/13/4 9/14/4 13/11/4
f 13/11/5 9/14/5 2/15/5 10/16/5
f 8/12/6 13/11/6 10/16/6 1/17/6
f 1/17/7 10/16/7 32/18/7 29/19/7
f 114/20/8 1/21/8 29/22/8 83/23/8
f 116/24/9 3/25/9 8/26/9 109/27/9
f 109/27/10 8/26/10 1/21/10 114/20/10
f 115/5/11 6/28/11 15/29/11 99/30/11
f 99/30/12 15/29/12 12/31/12 112/32/12
f 97/8/13 17/7/13 21/33/13 90/34/13
f 20/35/14 25/36/14 203/37/14 204/38/14
f 116/24/15 5/28/15 18/39/15 98/40/15
f 4/41/16 7/42/16 197/43/16 196/44/16
f 89/45/17 90/46/17 21/47/17 25/36/17
f 91/48/18 89/45/18 25/36/18 20/35/18
f 25/36/19 21/47/19 202/49/19 203/37/19
f 98/40/20 18/39/20 23/50/20 91/51/20
f 38/52/21 45/53/21 134/54/21 131/55/21
f 133/56/22 136/57/22 144/58/22 146/59/22
f 112/32/23 12/31/23 34/60/23 82/61/23
f 10/16/24 2/15/24 30/62/24 32/18/24
f 29/63/25 32/64/25 129/65/25 130/66/25
f 75/67/26 41/68/26 48/69/26 73/70/26
f 82/61/27 34/60/27 41/68/27 75/67/27
f 83/71/28 29/63/28 141/72/28 140/73/28
f 32/64/29 30/74/29 128/75/29 129/65/29
f 73/70/30 48/69/30 56/76/30 66/77/30
f 74/78/31 81/79/31 145/80/31 148/81/31
f 130/82/32 133/56/32 146/59/32 147/83/32
f 6/28/33 115/5/33 97/8/33 19/39/33
f 54/84/34 53/85/34 60/86/34 61/87/34
f 67/88/35 54/89/35 61/90/35 65/91/35
f 11/92/36 114/20/36 83/23/36 33/93/36
f 5/28/37 116/24/37 109/27/37 14/29/37
f 14/29/38 109/27/38 114/20/38 11/92/38
f 139/94/39 54/95/39 143/96/39 142/97/39
f 30/62/40 38/52/40 131/55/40 128/98/40
f 4/6/41 115/5/41 99/30/41 9/99/41
f 61/87/42 60/86/42 69/100/42 70/101/42
f 65/91/43 61/90/43 70/102/43 58/103/43
f 9/99/44 99/30/44 112/32/44 2/104/44
f 66/77/45 56/76/45 63/105/45 64/106/45
f 19/39/46 97/8/46 90/34/46 24/107/46
f 53/85/47 52/108/47 59/109/47 60/86/47
f 198/110/48 3/111/48 207/112/48 213/113/48
f 256/114/49 255/115/49 253/116/49 254/117/49
f 23/118/50 26/119/50 89/45/50 91/48/50
f 69/100/51 68/120/51 76/121/51 77/122/51
f 204/123/52 201/124/52 211/125/52 212/126/52
f 64/106/53 63/105/53 72/127/53 57/128/53
f 33/93/54 83/23/54 81/129/54 40/68/54
f 60/86/55 59/109/55 68/120/55 69/100/55
f 2/104/56 112/32/56 82/61/56 30/130/56
f 38/131/57 75/67/57 73/70/57 45/132/57
f 77/122/58 76/121/58 259/133/58 260/134/58
f 30/130/59 82/61/59 75/67/59 38/131/59
f 50/135/60 80/136/60 88/137/60 44/138/60
f 58/103/61 70/102/61 78/139/61 51/140/61
f 70/101/62 69/100/62 77/122/62 78/141/62
f 45/132/63 73/70/63 66/77/63 52/142/63
f 57/128/64 72/127/64 80/136/64 50/135/64
f 28/143/65 110/144/65 96/145/65 42/146/65
f 40/68/66 81/129/66 74/147/66 47/69/66
f 108/148/67 262/149/67 93/150/67 94/151/67
f 31/152/68 108/153/68 94/154/68 43/155/68
f 55/156/69 67/88/69 65/91/69 62/157/69
f 51/140/70 78/139/70 86/158/70 49/159/70
f 78/141/71 77/122/71 260/134/71 86/160/71
f 47/69/72 74/147/72 67/88/72 55/156/72
f 123/161/73 124/162/73 101/163/73 102/164/73
f 121/165/74 123/166/74 102/167/74 37/168/74
f 62/157/75 65/91/75 58/103/75 71/169/75
f 52/142/76 66/77/76 64/106/76 59/170/76
f 59/170/77 64/106/77 57/128/77 68/171/77
f 262/149/78 261/172/78 92/173/78 93/150/78
f 76/174/79 50/175/79 44/176/79 259/177/79
f 71/169/80 58/103/80 51/140/80 79/178/80
f 37/168/81 35/179/81 105/180/81 103/181/81
f 124/162/82 127/182/82 297/183/82 298/184/82 101/163/82
f 68/171/83 57/128/83 50/135/83 76/185/83
f 261/186/84 28/143/84 42/146/84 92/187/84
f 107/188/85 31/152/85 43/155/85 95/189/85
f 127/190/86 122/191/86 295/192/86 297/193/86
f 79/178/87 51/140/87 49/159/87 87/194/87
f 100/195/88 36/196/88 301/197/88 104/198/88
f 126/199/89 121/165/89 37/168/89 103/181/89
f 102/167/90 101/200/90 35/179/90 37/168/90
f 274/201/91 273/202/91 290/203/91 291/204/91
f 122/191/92 125/205/92 300/206/92 295/192/92
f 49/159/93 86/158/93 108/153/93 31/152/93
f 86/160/94 260/134/94 262/149/94 108/148/94
f 35/207/95 296/208/95 299/209/95 105/210/95
f 44/176/96 88/211/96 110/144/96 28/143/96
f 93/212/97 92/187/97 120/213/97 119/214/97
f 87/194/98 49/159/98 31/152/98 107/188/98
f 42/146/99 96/145/99 113/215/99 27/216/99
f 259/217/100 44/138/100 28/218/100 261/219/100
f 92/187/101 42/146/101 27/216/101 120/213/101
f 95/189/102 43/155/102 22/220/102 118/221/102
f 43/155/103 94/154/103 117/222/103 22/220/103
f 94/151/104 93/150/104 119/223/104 117/224/104
f 120/213/105 27/216/105 122/191/105 127/190/105
f 118/221/106 22/220/106 121/165/106 126/199/106
f 119/223/107 120/225/107 127/182/107 124/162/107
f 27/216/108 113/215/108 125/205/108 122/191/108
f 22/220/109 117/222/109 123/166/109 121/165/109
f 117/224/110 119/223/110 124/162/110 123/161/110
f 130/82/111 129/226/111 132/227/111 133/56/111
f 132/227/112 131/55/112 134/54/112 135/228/112
f 129/226/113 128/98/113 131/55/113 132/227/113
f 135/228/114 134/54/114 137/229/114 138/230/114
f 133/56/115 132/227/115 135/228/115 136/57/115
f 136/57/116 135/228/116 138/230/116 139/231/116
f 52/232/117 53/233/117 138/234/117 137/235/117
f 45/53/118 52/108/118 137/229/118 134/54/118
f 54/95/119 67/236/119 149/237/119 143/96/119
f 53/233/120 54/95/120 139/94/120 138/234/120
f 141/72/121 147/238/121 157/239/121 39/240/121
f 144/58/122 142/241/122 150/242/122 153/243/122
f 145/80/123 140/244/123 46/245/123 154/246/123
f 148/81/124 145/80/124 154/246/124 158/247/124
f 146/59/125 144/58/125 153/243/125 156/248/125
f 142/97/126 143/96/126 151/249/126 150/250/126
f 136/57/127 139/231/127 142/241/127 144/58/127
f 67/251/128 74/78/128 148/81/128 149/252/128
f 29/63/129 130/66/129 147/238/129 141/72/129
f 81/79/130 83/253/130 140/244/130 145/80/130
f 153/243/131 150/242/131 162/254/131 164/255/131
f 154/246/132 46/245/132 160/256/132 165/257/132
f 158/247/133 154/246/133 165/257/133 168/258/133
f 156/248/134 153/243/134 164/255/134 166/259/134
f 150/250/135 151/249/135 163/260/135 162/261/135
f 157/262/136 156/248/136 166/259/136 167/263/136
f 149/252/137 148/81/137 158/247/137 159/264/137
f 143/96/138 149/237/138 159/265/138 151/249/138
f 140/73/139 141/72/139 39/240/139 46/266/139
f 147/83/140 146/59/140 156/248/140 157/262/140
f 188/267/141 187/268/141 177/269/141 152/270/141
f 184/271/142 185/272/142 170/273/142 173/274/142
f 182/275/143 180/276/143 155/277/143 174/278/143
f 181/279/144 182/275/144 174/278/144 178/280/144
f 183/281/145 184/271/145 173/274/145 176/282/145
f 170/273/146 185/272/146 194/283/146 192/284/146
f 39/240/147 157/239/147 167/285/147 161/286/147
f 159/264/148 158/247/148 168/258/148 169/287/148
f 151/249/149 159/265/149 169/288/149 163/260/149
f 46/266/150 39/240/150 161/286/150 160/289/150
f 155/290/151 152/291/151 175/292/151 174/293/151
f 171/294/152 172/295/152 173/296/152 170/297/152
f 174/293/153 175/292/153 172/295/153 178/298/153
f 175/292/154 152/291/154 177/299/154 176/300/154
f 178/298/155 172/295/155 171/294/155 179/301/155
f 172/295/156 175/292/156 176/300/156 173/296/156
f 189/302/157 181/279/157 178/280/157 179/303/157
f 189/302/158 179/303/158 193/304/158 195/305/158
f 180/306/159 188/267/159 152/270/159 155/307/159
f 187/308/160 183/281/160 176/282/160 177/309/160
f 167/263/161 166/259/161 183/281/161 187/308/161
f 160/289/162 161/286/162 188/267/162 180/306/162
f 163/260/163 169/288/163 189/310/163 186/311/163
f 169/287/164 168/258/164 181/279/164 189/302/164
f 162/261/165 163/260/165 186/311/165 185/312/165
f 166/259/166 164/255/166 184/271/166 183/281/166
f 168/258/167 165/257/167 182/275/167 181/279/167
f 165/257/168 160/256/168 180/276/168 182/275/168
f 164/255/169 162/254/169 185/272/169 184/271/169
f 161/286/170 167/285/170 187/268/170 188/267/170
f 194/313/171 190/314/171 191/315/171 192/316/171
f 190/314/172 195/317/172 193/318/172 191/315/172
f 185/319/173 186/320/173 190/321/173 194/322/173
f 171/294/174 170/297/174 192/323/174 191/324/174
f 186/320/175 189/325/175 195/326/175 190/321/175
f 179/301/176 171/294/176 191/324/176 193/327/176
f 196/328/177 197/329/177 200/330/177 199/331/177
f 200/330/178 201/124/178 204/123/178 203/332/178
f 197/329/179 198/333/179 201/124/179 200/330/179
f 199/331/180 200/330/180 203/332/180 202/334/180
f 7/42/181 3/111/181 198/110/181 197/43/181
f 17/7/182 4/6/182 196/335/182 199/336/182
f 201/124/183 198/333/183 213/337/183 211/125/183
f 21/33/184 17/7/184 199/336/184 202/338/184
f 208/4/185 209/3/185 217/339/185 216/340/185
f 210/341/186 206/342/186 214/343/186 218/344/186
f 207/112/187 208/345/187 216/346/187 215/347/187
f 211/125/188 213/337/188 221/348/188 219/349/188
f 20/35/189 204/38/189 212/350/189 206/342/189
f 91/48/190 20/35/190 206/342/190 210/341/190
f 98/2/191 91/351/191 210/352/191 209/3/191
f 3/111/192 116/353/192 208/345/192 207/112/192
f 232/354/193 235/355/193 222/356/193 226/357/193
f 233/358/194 224/359/194 240/360/194 241/361/194
f 16/362/195 230/363/195 229/364/195 227/365/195
f 231/366/196 232/367/196 226/368/196 225/369/196
f 213/113/197 207/112/197 215/347/197 221/370/197
f 206/342/198 212/350/198 220/371/198 214/343/198
f 212/126/199 211/125/199 219/349/199 220/372/199
f 209/3/200 210/352/200 218/373/200 217/339/200
f 223/374/201 205/375/201 227/376/201 229/377/201
f 223/374/202 224/378/202 225/379/202 205/375/202
f 205/375/203 225/379/203 226/380/203 222/381/203
f 205/375/204 222/381/204 228/382/204 227/376/204
f 233/358/205 231/366/205 225/369/205 224/359/205
f 229/364/206 230/363/206 237/383/206 238/384/206
f 235/355/207 236/385/207 228/386/207 222/356/207
f 236/387/208 16/362/208 227/365/208 228/388/208
f 250/389/209 243/390/209 16/362/209 236/387/209
f 249/391/210 250/392/210 236/385/210 235/355/210
f 246/393/211 245/394/211 234/395/211 230/396/211
f 248/397/212 244/398/212 231/366/212 233/358/212
f 244/398/213 247/399/213 232/367/213 231/366/213
f 243/390/214 246/400/214 230/363/214 16/362/214
f 245/394/215 248/401/215 233/402/215 234/395/215
f 247/403/216 249/391/216 235/355/216 232/354/216
f 242/404/217 241/405/217 240/406/217 239/407/217
f 237/408/218 242/404/218 239/407/218 238/409/218
f 234/410/219 233/411/219 241/412/219 242/413/219
f 224/378/220 223/374/220 239/414/220 240/415/220
f 230/416/221 234/410/221 242/413/221 237/417/221
f 223/374/222 229/377/222 238/418/222 239/414/222
f 218/344/223 214/343/223 249/391/223 247/403/223
f 215/347/224 216/346/224 248/401/224 245/394/224
f 219/349/225 221/348/225 246/400/225 243/390/225
f 217/339/226 218/373/226 247/399/226 244/398/226
f 216/340/227 217/339/227 244/398/227 248/397/227
f 221/370/228 215/347/228 245/394/228 246/393/228
f 214/343/229 220/371/229 250/392/229 249/391/229
f 220/372/230 219/349/230 243/390/230 250/389/230
f 252/419/231 251/420/231 254/421/231 253/422/231
f 255/423/232 257/424/232 252/425/232 253/426/232
f 258/427/233 256/428/233 254/421/233 251/420/233
f 24/107/234 90/34/234 256/429/234 258/430/234
f 89/45/235 26/119/235 257/431/235 255/432/235
f 90/46/236 89/45/236 255/432/236 256/428/236
f 84/433/237 85/434/237 260/134/237 259/133/237
f 275/435/238 84/433/238 259/133/238 261/172/238
f 85/434/239 276/436/239 262/149/239 260/134/239
f 276/436/240 284/437/240 283/438/240 275/435/240 261/172/240 262/149/240
f 84/439/241 275/440/241 279/441/241 263/442/241
f 266/443/242 264/444/242 278/445/242 280/446/242
f 276/436/243 85/434/243 267/447/243 282/448/243
f 278/449/244 264/450/244 265/451/244 277/452/244
f 277/452/245 265/451/245 263/442/245 279/441/245
f 266/443/246 280/446/246 281/453/246 268/454/246
f 268/454/247 281/453/247 282/448/247 267/447/247
f 85/455/248 84/456/248 263/457/248 265/458/248 264/459/248 266/460/248 268/461/248 267/462/248
f 106/463/249 284/464/249 276/465/249
f 271/466/250 269/467/250 278/468/250 277/469/250
f 270/470/251 271/466/251 277/469/251 279/471/251
f 273/202/252 274/201/252 281/472/252 280/473/252
f 274/201/253 272/474/253 282/475/253 281/472/253
f 269/467/254 273/202/254 280/473/254 278/468/254
f 111/476/255 270/470/255 279/471/255 275/477/255
f 272/474/256 106/463/256 276/465/256 282/475/256
f 285/478/257 286/479/257 292/480/257 291/204/257 290/203/257 288/481/257 287/482/257 289/483/257
f 283/484/258 111/476/258 275/477/258
f 270/470/259 111/476/259 285/478/259 289/483/259
f 294/485/260 286/479/260 285/478/260 293/486/260
f 111/476/261 283/484/261 293/486/261 285/478/261
f 106/463/262 272/474/262 292/480/262 286/479/262
f 272/474/263 274/201/263 291/204/263 292/480/263
f 269/467/264 271/466/264 287/482/264 288/481/264
f 283/438/265 284/437/265 294/487/265 293/488/265
f 273/202/266 269/467/266 288/481/266 290/203/266
f 284/464/267 106/463/267 286/479/267 294/485/267
f 271/466/268 270/470/268 289/483/268 287/482/268
f 297/489/269 295/490/269 36/491/269 100/492/269
f 296/208/270 298/493/270 104/198/270 301/197/270
f 101/494/271 298/493/271 296/208/271 35/207/271
f 36/196/272 302/495/272 303/496/272 301/197/272
f 299/497/273 296/498/273 301/499/273 303/500/273
f 295/490/274 300/501/274 302/502/274 36/491/274
f 298/184/275 297/183/275 100/503/275 104/504/275
f 385/1/276 474/4/276 475/3/276 372/2/276
f 384/505/277 371/506/277 314/507/277 307/508/277
f 306/9/278 309/12/278 312/11/278 308/10/278
f 308/10/279 312/11/279 310/14/279 307/13/279
f 312/11/280 311/16/280 305/15/280 310/14/280
f 309/12/281 304/17/281 311/16/281 312/11/281
f 304/17/282 321/19/282 324/18/282 311/16/282
f 383/509/283 361/510/283 321/511/283 304/512/283
f 385/513/284 380/514/284 309/515/284 306/516/284
f 380/514/285 383/509/285 304/512/285 309/515/285
f 384/505/286 373/517/286 15/29/286 6/28/286
f 373/517/287 382/518/287 12/31/287 15/29/287
f 371/506/288 366/519/288 316/520/288 314/507/288
f 315/521/289 470/522/289 469/523/289 318/524/289
f 385/513/290 372/525/290 18/39/290 5/28/290
f 307/526/291 462/527/291 463/528/291 308/529/291
f 365/530/292 318/524/292 316/531/292 366/532/292
f 367/533/293 315/521/293 318/524/293 365/530/293
f 318/524/294 469/523/294 468/534/294 316/531/294
f 372/525/295 367/535/295 23/50/295 18/39/295
f 328/52/296 397/55/296 400/54/296 333/53/296
f 399/56/297 412/59/297 410/58/297 402/57/297
f 382/518/298 360/536/298 34/60/298 12/31/298
f 311/16/299 324/18/299 322/62/299 305/15/299
f 321/537/300 396/538/300 395/539/300 324/540/300
f 355/541/301 353/542/301 48/69/301 41/68/301
f 360/536/302 355/541/302 41/68/302 34/60/302
f 361/543/303 406/544/303 407/545/303 321/537/303
f 324/540/304 395/539/304 394/546/304 322/547/304
f 353/542/305 348/548/305 56/76/305 48/69/305
f 354/78/306 414/81/306 411/80/306 359/79/306
f 396/82/307 413/83/307 412/59/307 399/56/307
f 6/28/308 19/39/308 371/506/308 384/505/308
f 340/84/309 345/87/309 344/86/309 339/85/309
f 349/549/310 347/550/310 345/551/310 340/552/310
f 11/92/311 33/93/311 361/510/311 383/509/311
f 5/28/312 14/29/312 380/514/312 385/513/312
f 14/29/313 11/92/313 383/509/313 380/514/313
f 405/553/314 408/554/314 409/555/314 340/556/314
f 322/62/315 394/98/315 397/55/315 328/52/315
f 307/508/316 310/557/316 373/517/316 384/505/316
f 345/87/317 352/101/317 351/100/317 344/86/317
f 347/550/318 342/558/318 352/559/318 345/551/318
f 310/557/319 305/560/319 382/518/319 373/517/319
f 348/548/320 346/561/320 63/105/320 56/76/320
f 19/39/321 24/107/321 366/519/321 371/506/321
f 339/85/322 344/86/322 343/109/322 338/108/322
f 464/562/323 479/563/323 473/564/323 306/565/323
f 520/114/324 518/117/324 517/116/324 519/115/324
f 23/118/325 367/533/325 365/530/325 26/119/325
f 351/100/326 357/122/326 356/121/326 350/120/326
f 470/123/327 478/126/327 477/125/327 467/124/327
f 346/561/328 341/566/328 72/127/328 63/105/328
f 33/93/329 40/68/329 359/567/329 361/510/329
f 344/86/330 351/100/330 350/120/330 343/109/330
f 305/560/331 322/568/331 360/536/331 382/518/331
f 328/569/332 333/570/332 353/542/332 355/541/332
f 357/122/333 522/134/333 521/133/333 356/121/333
f 322/568/334 328/569/334 355/541/334 360/536/334
f 336/571/335 332/572/335 88/137/335 80/136/335
f 342/558/336 337/573/336 358/574/336 352/559/336
f 352/101/337 358/141/337 357/122/337 351/100/337
f 333/570/338 338/575/338 348/548/338 353/542/338
f 341/566/339 336/571/339 80/136/339 72/127/339
f 320/576/340 330/577/340 96/145/340 110/144/340
f 40/68/341 47/69/341 354/578/341 359/567/341
f 379/148/342 370/151/342 369/150/342 524/149/342
f 323/579/343 331/580/343 370/581/343 379/582/343
f 55/156/344 62/157/344 347/550/344 349/549/344
f 337/573/345 335/583/345 364/584/345 358/574/345
f 358/141/346 364/160/346 522/134/346 357/122/346
f 47/69/347 55/156/347 349/549/347 354/578/347
f 391/161/348 376/164/348 375/163/348 392/162/348
f 389/585/349 327/586/349 376/587/349 391/588/349
f 62/157/350 71/169/350 342/558/350 347/550/350
f 338/575/351 343/589/351 346/561/351 348/548/351
f 343/589/352 350/590/352 341/566/352 346/561/352
f 524/149/353 369/150/353 368/173/353 523/172/353
f 356/591/354 521/592/354 332/593/354 336/594/354
f 71/169/355 79/178/355 337/573/355 342/558/355
f 327/586/356 103/181/356 105/180/356 325/595/356
f 392/162/357 375/163/357 560/184/357 559/183/357 393/182/357
f 350/590/358 356/596/358 336/571/358 341/566/358
f 523/597/359 368/598/359 330/577/359 320/576/359
f 107/188/360 95/189/360 331/580/360 323/579/360
f 393/599/361 559/600/361 557/601/361 390/602/361
f 79/178/362 87/194/362 335/583/362 337/573/362
f 374/603/363 377/604/363 561/605/363 326/606/363
f 126/199/364 103/181/364 327/586/364 389/585/364
f 376/587/365 327/586/365 325/595/365 375/607/365
f 536/608/366 553/609/366 552/610/366 535/611/366
f 390/602/367 557/601/367 300/206/367 125/205/367
f 335/583/368 323/579/368 379/582/368 364/584/368
f 364/160/369 379/148/369 524/149/369 522/134/369
f 325/612/370 105/210/370 299/209/370 558/613/370
f 332/593/371 320/576/371 110/144/371 88/211/371
f 369/614/372 387/615/372 388/616/372 368/598/372
f 87/194/373 107/188/373 323/579/373 335/583/373
f 330/577/374 319/617/374 113/215/374 96/145/374
f 521/618/375 523/619/375 320/620/375 332/572/375
f 368/598/376 388/616/376 319/617/376 330/577/376
f 95/189/377 118/221/377 317/621/377 331/580/377
f 331/580/378 317/621/378 386/622/378 370/581/378
f 370/151/379 386/224/379 387/223/379 369/150/379
f 388/616/380 393/599/380 390/602/380 319/617/380
f 118/221/381 126/199/381 389/585/381 317/621/381
f 387/223/382 392/162/382 393/182/382 388/225/382
f 319/617/383 390/602/383 125/205/383 113/215/383
f 317/621/384 389/585/384 391/588/384 386/622/384
f 386/224/385 391/161/385 392/162/385 387/223/385
f 396/82/386 399/56/386 398/227/386 395/226/386
f 398/227/387 401/228/387 400/54/387 397/55/387
f 395/226/388 398/227/388 397/55/388 394/98/388
f 401/228/389 404/230/389 403/229/389 400/54/389
f 399/56/390 402/57/390 401/228/390 398/227/390
f 402/57/391 405/231/391 404/230/391 401/228/391
f 338/623/392 403/624/392 404/625/392 339/626/392
f 333/53/393 400/54/393 403/229/393 338/108/393
f 340/556/394 409/555/394 415/627/394 349/628/394
f 339/626/395 404/625/395 405/553/395 340/556/395
f 407/545/396 329/629/396 423/630/396 413/631/396
f 410/58/397 419/243/397 416/242/397 408/241/397
f 411/80/398 420/246/398 334/245/398 406/244/398
f 414/81/399 424/247/399 420/246/399 411/80/399
f 412/59/400 422/248/400 419/243/400 410/58/400
f 408/554/401 416/632/401 417/633/401 409/555/401
f 402/57/402 410/58/402 408/241/402 405/231/402
f 349/251/403 415/252/403 414/81/403 354/78/403
f 321/537/404 407/545/404 413/631/404 396/538/404
f 359/79/405 411/80/405 406/244/405 361/253/405
f 419/243/406 430/255/406 428/254/406 416/242/406
f 420/246/407 431/257/407 426/256/407 334/245/407
f 424/247/408 434/258/408 431/257/408 420/246/408
f 422/248/409 432/259/409 430/255/409 419/243/409
f 416/632/410 428/634/410 429/635/410 417/633/410
f 423/262/411 433/263/411 432/259/411 422/248/411
f 415/252/412 425/264/412 424/247/412 414/81/412
f 409/555/413 417/633/413 425/636/413 415/627/413
f 406/544/414 334/637/414 329/629/414 407/545/414
f 413/83/415 423/262/415 422/248/415 412/59/415
f 454/638/416 418/639/416 443/640/416 453/641/416
f 450/271/417 439/274/417 436/273/417 451/272/417
f 448/275/418 440/278/418 421/277/418 446/276/418
f 447/279/419 444/280/419 440/278/419 448/275/419
f 449/281/420 442/282/420 439/274/420 450/271/420
f 436/273/421 458/284/421 460/283/421 451/272/421
f 329/629/422 427/642/422 433/643/422 423/630/422
f 425/264/423 435/287/423 434/258/423 424/247/423
f 417/633/424 429/635/424 435/644/424 425/636/424
f 334/637/425 426/645/425 427/642/425 329/629/425
f 421/646/426 440/647/426 441/648/426 418/649/426
f 437/650/427 436/651/427 439/652/427 438/653/427
f 440/647/428 444/654/428 438/653/428 441/648/428
f 441/648/429 442/655/429 443/656/429 418/649/429
f 444/654/430 445/657/430 437/650/430 438/653/430
f 438/653/431 439/652/431 442/655/431 441/648/431
f 455/302/432 445/303/432 444/280/432 447/279/432
f 455/302/433 461/305/433 459/304/433 445/303/433
f 446/658/434 421/659/434 418/639/434 454/638/434
f 453/308/435 443/309/435 442/282/435 449/281/435
f 433/263/436 453/308/436 449/281/436 432/259/436
f 426/645/437 446/658/437 454/638/437 427/642/437
f 429/635/438 452/660/438 455/661/438 435/644/438
f 435/287/439 455/302/439 447/279/439 434/258/439
f 428/634/440 451/662/440 452/660/440 429/635/440
f 432/259/441 449/281/441 450/271/441 430/255/441
f 434/258/442 447/279/442 448/275/442 431/257/442
f 431/257/443 448/275/443 446/276/443 426/256/443
f 430/255/444 450/271/444 451/272/444 428/254/444
f 427/642/445 454/638/445 453/641/445 433/643/445
f 460/663/446 458/664/446 457/665/446 456/666/446
f 456/666/447 457/665/447 459/667/447 461/668/447
f 451/669/448 460/670/448 456/671/448 452/672/448
f 437/650/449 457/673/449 458/674/449 436/651/449
f 452/672/450 456/671/450 461/675/450 455/676/450
f 445/657/451 459/677/451 457/673/451 437/650/451
f 462/328/452 465/331/452 466/330/452 463/329/452
f 466/330/453 469/332/453 470/123/453 467/124/453
f 463/329/454 466/330/454 467/124/454 464/333/454
f 465/331/455 468/334/455 469/332/455 466/330/455
f 308/529/456 463/528/456 464/562/456 306/565/456
f 314/507/457 465/678/457 462/679/457 307/508/457
f 467/124/458 477/125/458 479/337/458 464/333/458
f 316/520/459 468/680/459 465/678/459 314/507/459
f 474/4/460 482/340/460 483/339/460 475/3/460
f 476/681/461 484/682/461 480/683/461 472/684/461
f 473/564/462 481/685/462 482/686/462 474/687/462
f 477/125/463 485/349/463 487/348/463 479/337/463
f 315/521/464 472/684/464 478/688/464 470/522/464
f 367/533/465 476/681/465 472/684/465 315/521/465
f 372/2/466 475/3/466 476/352/466 367/351/466
f 306/565/467 473/564/467 474/687/467 385/689/467
f 498/690/468 492/691/468 488/692/468 501/693/468
f 499/358/469 507/361/469 506/360/469 490/359/469
f 313/362/470 493/365/470 495/364/470 496/363/470
f 497/366/471 491/369/471 492/368/471 498/367/471
f 479/563/472 487/694/472 481/685/472 473/564/472
f 472/684/473 480/683/473 486/695/473 478/688/473
f 478/126/474 486/372/474 485/349/474 477/125/474
f 475/3/475 483/339/475 484/373/475 476/352/475
f 489/696/476 495/697/476 493/698/476 471/699/476
f 489/696/477 471/699/477 491/700/477 490/701/477
f 471/699/478 488/702/478 492/703/478 491/700/478
f 471/699/479 493/698/479 494/704/479 488/702/479
f 499/358/480 490/359/480 491/369/480 497/366/480
f 495/364/481 504/384/481 503/383/481 496/363/481
f 501/693/482 488/692/482 494/705/482 502/706/482
f 502/387/483 494/388/483 493/365/483 313/362/483
f 516/389/484 502/387/484 313/362/484 509/390/484
f 515/707/485 501/693/485 502/706/485 516/708/485
f 512/709/486 496/710/486 500/711/486 511/712/486
f 514/397/487 499/358/487 497/366/487 510/398/487
f 510/398/488 497/366/488 498/367/488 513/399/488
f 509/390/489 313/362/489 496/363/489 512/400/489
f 511/712/490 500/711/490 499/713/490 514/714/490
f 513/715/491 498/690/491 501/693/491 515/707/491
f 508/716/492 505/717/492 506/718/492 507/719/492
f 503/720/493 504/721/493 505/717/493 508/716/493
f 500/722/494 508/723/494 507/724/494 499/725/494
f 490/701/495 506/726/495 505/727/495 489/696/495
f 496/728/496 503/729/496 508/723/496 500/722/496
f 489/696/497 505/727/497 504/730/497 495/697/497
f 484/682/498 513/715/498 515/707/498 480/683/498
f 481/685/499 511/712/499 514/714/499 482/686/499
f 485/349/500 509/390/500 512/400/500 487/348/500
f 483/339/501 510/398/501 513/399/501 484/373/501
f 482/340/502 514/397/502 510/398/502 483/339/502
f 487/694/503 512/709/503 511/712/503 481/685/503
f 480/683/504 515/707/504 516/708/504 486/695/504
f 486/372/505 516/389/505 509/390/505 485/349/505
f 252/419/506 517/731/506 518/732/506 251/420/506
f 519/733/507 517/734/507 252/425/507 257/424/507
f 258/427/508 251/420/508 518/732/508 520/735/508
f 24/107/509 258/430/509 520/736/509 366/519/509
f 365/530/510 519/737/510 257/431/510 26/119/510
f 366/532/511 520/735/511 519/737/511 365/530/511
f 362/433/512 521/133/512 522/134/512 363/434/512
f 537/435/513 523/172/513 521/133/513 362/433/513
f 363/434/514 522/134/514 524/149/514 538/436/514
f 538/436/515 524/149/515 523/172/515 537/435/515 545/438/515 546/437/515
f 362/738/516 525/739/516 541/740/516 537/741/516
f 528/443/517 542/446/517 540/445/517 526/444/517
f 538/436/518 544/448/518 529/447/518 363/434/518
f 540/742/519 539/743/519 527/744/519 526/745/519
f 539/743/520 541/740/520 525/739/520 527/744/520
f 528/443/521 530/454/521 543/453/521 542/446/521
f 530/454/522 529/447/522 544/448/522 543/453/522
f 363/746/523 529/747/523 530/748/523 528/749/523 526/750/523 527/751/523 525/752/523 362/753/523
f 378/754/524 538/755/524 546/756/524
f 533/757/525 539/758/525 540/759/525 531/760/525
f 532/761/526 541/762/526 539/758/526 533/757/526
f 535/611/527 542/763/527 543/764/527 536/608/527
f 536/608/528 543/764/528 544/765/528 534/766/528
f 531/760/529 540/759/529 542/763/529 535/611/529
f 381/767/530 537/768/530 541/762/530 532/761/530
f 534/766/531 544/765/531 538/755/531 378/754/531
f 547/769/532 551/770/532 549/771/532 550/772/532 552/610/532 553/609/532 554/773/532 548/774/532
f 545/775/533 537/768/533 381/767/533
f 532/761/534 551/770/534 547/769/534 381/767/534
f 556/776/535 555/777/535 547/769/535 548/774/535
f 381/767/536 547/769/536 555/777/536 545/775/536
f 378/754/537 548/774/537 554/773/537 534/766/537
f 534/766/538 554/773/538 553/609/538 536/608/538
f 531/760/539 550/772/539 549/771/539 533/757/539
f 545/438/540 555/488/540 556/487/540 546/437/540
f 535/611/541 552/610/541 550/772/541 531/760/541
f 546/756/542 556/776/542 548/774/542 378/754/542
f 533/757/543 549/771/543 551/770/543 532/761/543
f 559/778/544 374/779/544 326/780/544 557/781/544
f 558/613/545 561/605/545 377/604/545 560/782/545
f 375/783/546 325/612/546 558/613/546 560/782/546
f 326/606/547 561/605/547 303/496/547 302/495/547
f 299/497/548 303/500/548 561/784/548 558/785/548
f 557/781/549 326/780/549 302/502/549 300/501/549
f 560/184/550 377/504/550 374/503/550 559/183/550
f 562/786/551 575/787/551 574/788/551
f 563/789/552 575/790/552 577/791/552
f 562/792/553 574/793/553 579/794/553
f 562/795/554 579/796/554 581/797/554
f 562/798/555 581/799/555 578/800/555
f 563/789/556 577/791/556 584/801/556
f 564/802/557 576/803/557 586/804/557
f 565/805/558 580/806/558 588/807/558
f 566/808/559 582/809/559 590/810/559
f 567/811/560 583/812/560 592/813/560
f 563/789/561 584/801/561 587/814/561
f 564/802/562 586/804/562 589/815/562
f 565/805/563 588/807/563 591/816/563
f 566/808/564 590/810/564 593/817/564
f 567/811/565 592/813/565 585/818/565
f 568/819/566 594/820/566 599/821/566
f 569/822/567 595/823/567 601/824/567
f 570/825/568 596/826/568 602/827/568
f 571/828/569 597/829/569 603/830/569
f 572/831/570 598/832/570 600/833/570
f 600/833/571 603/834/571 573/835/571
f 600/833/572 598/832/572 603/834/572
f 598/832/573 571/828/573 603/834/573
f 603/830/574 602/836/574 573/837/574
f 603/830/575 597/829/575 602/836/575
f 597/829/576 570/825/576 602/836/576
f 602/827/577 601/838/577 573/839/577
f 602/827/578 596/826/578 601/838/578
f 596/826/579 569/840/579 601/838/579
f 601/824/580 599/841/580 573/842/580
f 601/824/581 595/823/581 599/841/581
f 595/823/582 568/819/582 599/841/582
f 599/821/583 600/843/583 573/844/583
f 599/821/584 594/820/584 600/843/584
f 594/820/585 572/831/585 600/843/585
f 585/818/586 598/832/586 572/831/586
f 585/818/587 592/813/587 598/832/587
f 592/813/588 571/828/588 598/832/588
f 593/817/589 597/829/589 571/828/589
f 593/817/590 590/810/590 597/829/590
f 590/810/591 570/825/591 597/829/591
f 591/816/592 596/826/592 570/825/592
f 591/816/593 588/807/593 596/826/593
f 588/807/594 569/840/594 596/826/594
f 589/815/595 595/823/595 569/822/595
f 589/815/596 586/804/596 595/823/596
f 586/804/597 568/819/597 595/823/597
f 587/814/598 594/820/598 568/819/598
f 587/814/599 584/801/599 594/820/599
f 584/801/600 572/831/600 594/820/600
f 592/813/601 593/817/601 571/828/601
f 592/813/602 583/812/602 593/817/602
f 583/812/603 566/808/603 593/817/603
f 590/810/604 591/816/604 570/825/604
f 590/810/605 582/809/605 591/816/605
f 582/809/606 565/805/606 591/816/606
f 588/807/607 589/845/607 569/840/607
f 588/807/608 580/806/608 589/845/608
f 580/806/609 564/846/609 589/845/609
f 586/804/610 587/814/610 568/819/610
f 586/804/611 576/803/611 587/814/611
f 576/803/612 563/789/612 587/814/612
f 584/801/613 585/818/613 572/831/613
f 584/801/614 577/791/614 585/818/614
f 577/791/615 567/811/615 585/818/615
f 578/800/616 583/812/616 567/811/616
f 578/800/617 581/799/617 583/812/617
f 581/799/618 566/808/618 583/812/618
f 581/797/619 582/809/619 566/808/619
f 581/797/620 579/796/620 582/809/620
f 579/796/621 565/805/621 582/809/621
f 579/794/622 580/806/622 565/805/622
f 579/794/623 574/793/623 580/806/623
f 574/793/624 564/846/624 580/806/624
f 577/791/625 578/847/625 567/811/625
f 577/791/626 575/790/626 578/847/626
f 575/790/627 562/848/627 578/847/627
f 574/788/628 576/803/628 564/802/628
f 574/788/629 575/787/629 576/803/629
f 575/787/630 563/789/630 576/803/630
f 604/786/631 616/788/631 617/787/631
f 605/789/632 619/791/632 617/790/632
f 604/792/633 621/794/633 616/793/633
f 604/795/634 623/797/634 621/796/634
f 604/798/635 620/800/635 623/799/635
f 605/789/636 626/801/636 619/791/636
f 606/802/637 628/804/637 618/803/637
f 607/805/638 630/807/638 622/806/638
f 608/808/639 632/810/639 624/809/639
f 609/811/640 634/813/640 625/812/640
f 605/789/641 629/814/641 626/801/641
f 606/802/642 631/815/642 628/804/642
f 607/805/643 633/816/643 630/807/643
f 608/808/644 635/817/644 632/810/644
f 609/811/645 627/818/645 634/813/645
f 610/819/646 641/821/646 636/820/646
f 611/822/647 643/824/647 637/823/647
f 612/825/648 644/827/648 638/826/648
f 613/828/649 645/830/649 639/829/649
f 614/831/650 642/833/650 640/832/650
f 642/833/651 615/835/651 645/834/651
f 642/833/652 645/834/652 640/832/652
f 640/832/653 645/834/653 613/828/653
f 645/830/654 615/837/654 644/836/654
f 645/830/655 644/836/655 639/829/655
f 639/829/656 644/836/656 612/825/656
f 644/827/657 615/839/657 643/838/657
f 644/827/658 643/838/658 638/826/658
f 638/826/659 643/838/659 611/840/659
f 643/824/660 615/842/660 641/841/660
f 643/824/661 641/841/661 637/823/661
f 637/823/662 641/841/662 610/819/662
f 641/821/663 615/844/663 642/843/663
f 641/821/664 642/843/664 636/820/664
f 636/820/665 642/843/665 614/831/665
f 627/818/666 614/831/666 640/832/666
f 627/818/667 640/832/667 634/813/667
f 634/813/668 640/832/668 613/828/668
f 635/817/669 613/828/669 639/829/669
f 635/817/670 639/829/670 632/810/670
f 632/810/671 639/829/671 612/825/671
f 633/816/672 612/825/672 638/826/672
f 633/816/673 638/826/673 630/807/673
f 630/807/674 638/826/674 611/840/674
f 631/815/675 611/822/675 637/823/675
f 631/815/676 637/823/676 628/804/676
f 628/804/677 637/823/677 610/819/677
f 629/814/678 610/819/678 636/820/678
f 629/814/679 636/820/679 626/801/679
f 626/801/680 636/820/680 614/831/680
f 634/813/681 613/828/681 635/817/681
f 634/813/682 635/817/682 625/812/682
f 625/812/683 635/817/683 608/808/683
f 632/810/684 612/825/684 633/816/684
f 632/810/685 633/816/685 624/809/685
f 624/809/686 633/816/686 607/805/686
f 630/807/687 611/840/687 631/845/687
f 630/807/688 631/845/688 622/806/688
f 622/806/689 631/845/689 606/846/689
f 628/804/690 610/819/690 629/814/690
f 628/804/691 629/814/691 618/803/691
f 618/803/692 629/814/692 605/789/692
f 626/801/693 614/831/693 627/818/693
f 626/801/694 627/818/694 619/791/694
f 619/791/695 627/818/695 609/811/695
f 620/800/696 609/811/696 625/812/696
f 620/800/697 625/812/697 623/799/697
f 623/799/698 625/812/698 608/808/698
f 623/797/699 608/808/699 624/809/699
f 623/797/700 624/809/700 621/796/700
f 621/796/701 624/809/701 607/805/701
f 621/794/702 607/805/702 622/806/702
f 621/794/703 622/806/703 616/793/703
f 616/793/704 622/806/704 606/846/704
f 619/791/705 609/811/705 620/847/705
f 619/791/706 620/847/706 617/790/706
f 617/790/707 620/847/707 604/848/707
f 616/788/708 606/802/708 618/803/708
f 616/788/709 618/803/709 617/787/709
f 617/787/710 618/803/710 605/789/710
