# Blender 5.1.1
# www.blender.org
o Куб.001
v 0.542422 1.001573 0.626153
v 0.532147 2.432267 0.476362
v 0.629374 1.204052 -0.194909
v 0.617520 2.401697 -0.217376
v 0.006632 1.023226 -0.323172
v -0.000000 2.480862 -0.357245
v 0.717858 1.820611 0.034060
v 0.630051 1.028034 0.163167
v 0.608587 2.461295 0.125763
v 0.652534 1.690599 0.516129
v -0.002370 0.972083 0.669337
v -0.000000 2.544096 0.544675
v 0.726882 1.802577 0.138919
v 0.006180 0.917985 0.185047
v -0.000000 2.614716 0.130571
v 0.840279 0.535660 -1.014246
v 0.533978 2.373270 -0.508828
v 0.005747 1.110621 -0.582510
v 0.000000 2.280686 -0.622767
v 0.483853 1.488533 -0.778754
v 0.464212 2.185101 -0.751052
v 0.090362 0.818648 3.132237
v 0.003527 1.227422 -0.804126
v -0.000000 2.103516 -0.887623
v 0.570963 1.822355 -0.851007
v 0.000642 1.598223 -0.915933
v 0.084677 1.209511 3.219709
v 0.172094 1.603776 3.040580
v 0.444963 1.059510 1.199506
v 0.500006 2.377072 0.889561
v 0.175772 0.847392 2.932214
v 0.610455 1.651398 0.872066
v -0.009972 1.014681 1.110489
v -0.000013 2.487711 0.979386
v 0.059274 0.824255 3.363750
v 0.033850 0.979876 3.435107
v 0.047665 0.781425 3.251427
v 0.570340 2.528199 1.239684
v 0.537557 0.416657 1.461894
v -0.006534 0.956180 1.467372
v 0.001296 2.651779 1.345342
v 0.118300 1.419138 3.219806
v 0.136209 0.820398 3.045973
v 0.177045 1.788768 2.822997
v 0.583003 2.528340 1.435916
v 0.443499 0.417532 1.521628
v -0.003854 0.989282 1.616518
v 0.000605 2.655466 1.544471
v 0.190837 0.882159 2.816756
v 0.177045 1.907411 2.650971
v 0.177045 0.922133 2.675578
v 0.540207 2.469419 1.719261
v 0.658004 1.794911 1.763436
v 0.538157 1.061036 1.963892
v -0.001149 1.076278 1.783631
v 0.000014 2.587774 1.817999
v 0.181751 2.058961 2.402168
v 0.181751 1.079975 2.320862
v 0.453392 2.245014 2.007100
v 0.552407 1.594013 1.930506
v 0.453048 1.332343 1.942912
v -0.000458 1.156764 1.917657
v 0.000000 2.337319 2.103408
v 0.227127 2.303799 2.070713
v 0.226922 1.234742 1.931081
v 0.271600 2.554620 1.765669
v 0.349929 1.055814 1.761429
v 0.364925 2.001917 2.357012
v 0.444816 1.427023 2.318974
v 0.364925 1.132430 2.263273
v -0.000000 1.045444 2.332983
v -0.000000 2.088203 2.404940
v 0.293557 2.618970 1.479477
v 0.293209 1.039975 1.652580
v 0.287124 2.616852 1.276950
v 0.355746 1.858911 2.607707
v 0.433703 1.371680 2.602917
v 0.355746 0.970280 2.624897
v -0.000000 0.895326 2.662658
v -0.000000 1.934091 2.638847
v 0.286550 1.050906 1.609824
v 0.250990 2.456718 0.911335
v 0.309242 1.048327 1.369276
v 0.372539 1.607278 2.780084
v 0.455708 1.398451 2.747744
v 0.382651 0.932864 2.772450
v -0.000000 0.856065 2.799117
v -0.000000 1.817412 2.803724
v 0.251954 1.672495 -0.894677
v 0.203135 2.109698 -0.851955
v 0.342184 1.407643 -0.743519
v 0.241143 1.392742 3.166916
v 0.339854 1.153187 3.063033
v 0.276080 0.857870 3.008451
v -0.000000 0.810698 3.010643
v -0.000000 1.443125 3.191022
v 0.249007 2.271060 -0.661848
v 0.304448 1.241753 -0.513230
v 0.307030 2.558365 0.093750
v 0.069124 0.980998 3.412936
v 0.125993 0.840540 3.326402
v 0.103346 0.807474 3.248980
v -0.000000 0.771036 3.260065
v 0.064203 0.929003 3.417365
v -0.000000 0.814403 3.358957
v 0.465527 1.439827 2.836101
v -0.000000 0.829501 2.907282
v 0.353261 0.891727 2.889885
v 0.325515 0.976508 0.132510
v -0.000000 1.634984 3.017157
v 0.402860 1.572380 2.862601
v 0.267639 2.510685 0.480969
v -0.000000 1.212140 3.218891
v 0.272937 0.953149 0.623360
v 0.300909 2.458398 -0.394681
v 0.382552 1.139637 -0.264970
v 0.186642 0.849670 3.096296
v -0.000000 0.815484 3.091084
v 0.210413 0.996858 3.194729
v 0.175549 1.176423 3.196215
v 0.070240 0.799776 3.186570
v 0.067630 1.058219 3.339638
v 0.139993 0.818647 3.179437
v 0.161300 0.919562 3.259984
v -0.000000 1.066838 3.328485
v -0.000000 0.793555 3.171644
v 0.134901 1.048013 3.308544
v 0.611604 2.248090 0.987834
v 0.708087 1.626097 0.932410
v 0.640781 1.134065 1.219297
v 0.672051 2.397654 1.231415
v 0.785435 1.597431 1.417852
v 0.798922 1.086845 1.654325
v 0.636702 2.422117 1.418072
v 0.799026 1.682283 1.572835
v 0.809942 1.075358 1.833913
v 0.641495 2.280329 1.589349
v 0.751363 1.784674 1.735185
v 0.742588 1.097808 1.966339
v 0.422960 0.661354 1.411632
v 0.520902 0.694518 1.338361
v 0.739585 0.658278 1.871875
v 0.589605 0.633653 1.917531
v 0.789414 0.648165 1.752196
v 0.403131 0.613085 1.641287
v 0.781258 0.658892 1.622107
v 0.665064 0.715371 1.334786
v 0.407708 0.600435 1.774221
v 0.451316 0.621545 1.856511
v 0.751450 0.463292 1.828061
v 0.603330 0.462677 1.872178
v 0.539783 -0.047019 1.471828
v 0.802288 0.447054 1.739078
v 0.421515 0.424066 1.655791
v 0.424677 -0.042686 1.529928
v 0.790977 0.433895 1.639086
v 0.675150 0.421629 1.465670
v 0.422726 0.438371 1.769791
v 0.465847 0.454217 1.839929
v 0.440915 0.218832 1.503567
v 0.544819 0.213854 1.449258
v 0.780808 0.265360 1.782015
v 0.619008 0.269154 1.822478
v 0.800714 0.246141 1.701337
v 0.422663 0.230197 1.625293
v 0.790551 0.230386 1.610161
v 0.697698 0.215443 1.452708
v 0.425596 0.247578 1.728508
v 0.469559 0.263706 1.791838
v 0.827907 -0.015505 1.828777
v 0.621472 -0.014798 1.870414
v 0.659433 -0.024583 1.747361
v 0.824336 -0.024046 1.741398
v 0.404519 -0.033475 1.660270
v 0.648591 -0.035353 1.641169
v 0.814520 -0.034934 1.644622
v 0.709234 -0.046292 1.475837
v 0.410041 -0.021290 1.770827
v 0.428461 -0.014988 1.839445
v 0.430340 0.093452 1.517661
v 0.416217 0.120689 1.751955
v 0.410855 0.104672 1.644039
v 0.805799 0.103797 1.628551
v 0.815306 0.118430 1.723218
v 0.798924 0.188817 1.801873
v 0.623685 0.189167 1.846843
v 0.705193 0.089353 1.465207
v 0.541523 0.088225 1.461439
v 0.460299 0.188354 1.812423
v 0.620333 0.107737 1.990888
v 0.621121 -0.009300 2.006314
v 0.797337 -0.010109 1.964242
v 0.458585 -0.009986 1.974967
v 0.790531 0.107601 1.949296
v 0.463338 0.107629 1.959425
v 0.758736 2.358480 -0.274276
v 0.797753 1.849941 -0.062619
v 0.788540 1.251233 -0.263604
v 0.750813 2.291043 -0.508851
v 0.869348 1.864201 -0.548337
v 0.834037 1.363482 -0.498418
v 0.744266 2.161657 -0.704650
v 0.849113 1.866013 -0.766760
v 0.763464 1.498163 -0.735114
v 0.616989 0.353118 -1.140600
v 0.551290 1.217073 -0.917226
v 0.663609 1.025167 -0.330169
v 0.467279 1.028884 -0.391852
v 0.407180 1.108082 -0.643399
v 0.439575 1.196841 -0.873925
v 0.828888 1.127482 -0.637594
v 0.773841 1.206416 -0.879696
v 0.791615 1.051936 -0.404416
v 0.572399 1.033099 -0.943838
v 0.666031 0.614280 -0.588752
v 0.487626 0.663740 -0.635716
v 0.437327 0.862633 -0.773787
v 0.470194 1.006427 -0.914740
v 0.822273 0.848449 -0.759257
v 0.775156 1.009570 -0.914170
v 0.784075 0.668666 -0.627553
v 0.562510 0.505291 -1.326662
v 0.678283 0.241029 -0.949355
v 0.423260 0.258641 -1.006332
v 0.412662 0.369749 -1.168399
v 0.448496 0.485332 -1.302099
v 0.841342 0.359114 -1.156289
v 0.787992 0.480797 -1.303328
v 0.844841 0.260732 -1.003663
v 0.841357 0.425763 -0.882443
v 0.411644 0.548557 -1.028185
v 0.447674 0.669273 -1.154873
v 0.419873 0.427513 -0.885655
v 0.674435 0.396423 -0.840688
v 0.561774 0.691653 -1.176898
v 0.787202 0.665340 -1.154208
v 0.796554 0.293128 -0.836854
v 0.800546 0.195046 -0.880264
v 0.670160 0.173633 -0.828528
v 0.470619 0.189959 -0.883492
v 0.466526 0.284518 -0.841009
v 0.666262 0.275517 -0.785857
v 0.808106 0.705430 -0.874038
v 0.449123 0.716881 -0.884165
v 0.663823 0.548099 -0.716987
v 0.773435 0.582490 -0.754559
v 0.480426 0.838355 -0.994459
v 0.497137 0.581899 -0.758963
v 0.576177 0.860152 -1.014794
v 0.764927 0.835737 -0.994638
v -0.000000 1.964712 -0.963352
v -0.000000 1.715167 -1.003691
v 0.092610 1.735331 -0.967315
v 0.076591 1.955334 -0.937061
v 0.128373 1.731928 -0.917874
v 0.088882 2.048142 -0.898695
v -0.000000 1.692332 -0.956154
v -0.000000 2.059583 -0.930772
v 0.353936 1.737835 2.704979
v 0.462452 1.320458 2.708186
v 0.346085 1.560608 2.991214
v 0.469988 1.290182 2.911075
v 0.431634 1.645932 2.820019
v 0.509515 1.629585 2.836591
v 0.472450 1.652872 2.836988
v 0.537234 1.593705 2.826439
v 0.536419 1.508644 2.795605
v 0.550043 1.551858 2.812636
v 0.514399 1.591182 2.871899
v 0.455471 1.602005 2.874977
v 0.486059 1.606729 2.877306
v 0.527030 1.517082 2.850365
v 0.527210 1.576533 2.866539
v 0.537319 1.547670 2.857645
v 0.372831 1.582020 2.864868
v 0.460350 1.396706 2.825582
v 0.490673 1.630443 2.883395
v 0.529939 1.608717 2.876419
v 0.447174 1.623714 2.880522
v 0.548145 1.587673 2.869440
v 0.562047 1.547774 2.857746
v 0.548125 1.506361 2.847714
v 0.383871 1.557529 2.859607
v 0.450291 1.418124 2.830041
v 0.413090 1.556707 2.848057
v 0.458299 1.461294 2.828935
v 0.473111 1.581554 2.858675
v 0.493557 1.570403 2.854793
v 0.451044 1.578151 2.856987
v 0.502798 1.559883 2.850940
v 0.510091 1.539133 2.844544
v 0.502668 1.517191 2.839330
v 0.399391 1.546247 2.845942
v 0.447307 1.445605 2.824498
v 0.058900 0.992363 3.402901
v 0.055763 0.904694 3.411981
v 0.099802 0.995430 3.374901
v 0.095412 0.907485 3.384848
v -0.000000 0.904823 3.415029
v -0.000000 0.989906 3.406326
v 0.030579 0.928024 3.438859
v -0.000000 0.978051 3.433997
v -0.000000 0.927808 3.438243
v -0.545626 1.189425 0.593185
v -0.532555 2.431611 0.474464
v -0.602192 1.132950 0.001693
v -0.619472 2.368574 -0.227891
v -0.708444 1.746619 0.073839
v -0.615571 1.107187 0.263089
v -0.609568 2.453342 0.120326
v -0.652618 1.747750 0.514251
v -0.718895 1.754572 0.171465
v -0.820522 0.217812 -0.318574
v -0.537649 2.236743 -0.527631
v -0.464302 1.233433 -0.661661
v -0.464300 2.047913 -0.750082
v -0.090363 0.818648 3.132237
v -0.561870 1.632101 -0.813464
v -0.084677 1.209511 3.219709
v -0.172094 1.603782 3.040580
v -0.474009 1.393685 0.999347
v -0.500582 2.380303 0.889728
v -0.175772 0.847392 2.932214
v -0.617078 1.752658 0.852863
v -0.059274 0.824255 3.363750
v -0.033850 0.979876 3.435107
v -0.047665 0.781425 3.251427
v -0.569732 2.535133 1.239707
v -0.552403 0.897032 0.892423
v -0.118300 1.419138 3.219806
v -0.136209 0.820398 3.045973
v -0.177045 1.788769 2.822997
v -0.582331 2.536044 1.435942
v -0.456922 0.862252 0.939376
v -0.190837 0.882159 2.816756
v -0.177045 1.907411 2.650971
v -0.177045 0.922133 2.675578
v -0.540524 2.474952 1.719288
v -0.670112 1.971983 1.715893
v -0.557770 1.127218 1.713902
v -0.181751 2.058961 2.402168
v -0.181751 1.079975 2.320863
v -0.453546 2.255459 2.015807
v -0.558182 1.622864 1.906831
v -0.460139 1.338116 1.893868
v -0.227268 2.303852 2.070715
v -0.230366 1.235436 1.902354
v -0.271358 2.555052 1.765668
v -0.360933 1.103591 1.637195
v -0.364925 2.001917 2.357012
v -0.445363 1.426352 2.317371
v -0.364925 1.132430 2.263274
v -0.291587 2.621037 1.479465
v -0.306571 1.113596 1.523453
v -0.284984 2.619164 1.276939
v -0.355746 1.858911 2.607707
v -0.433703 1.371682 2.602921
v -0.355746 0.970282 2.624903
v -0.313285 1.219172 1.407327
v -0.251110 2.456954 0.911338
v -0.339931 1.306519 1.160459
v -0.372539 1.607277 2.780084
v -0.455708 1.398464 2.747755
v -0.382651 0.932867 2.772458
v -0.248970 1.612164 -0.885264
v -0.203268 2.088250 -0.852411
v -0.324397 1.199982 -0.630701
v -0.241143 1.392754 3.166921
v -0.339854 1.153187 3.063033
v -0.276080 0.857870 3.008451
v -0.249692 2.243867 -0.665282
v -0.282254 1.109157 -0.383981
v -0.307155 2.557586 0.093063
v -0.069124 0.980998 3.412936
v -0.125993 0.840540 3.326402
v -0.103346 0.807474 3.248980
v -0.064203 0.929003 3.417365
v -0.465527 1.439859 2.836117
v -0.353261 0.891727 2.889885
v -0.308514 1.005674 0.208154
v -0.402860 1.572444 2.862609
v -0.267636 2.510705 0.480969
v -0.277024 1.077202 0.594060
v -0.301735 2.445517 -0.399063
v -0.356857 1.054769 -0.094654
v -0.186642 0.849670 3.096296
v -0.210413 0.996858 3.194729
v -0.175550 1.176423 3.196215
v -0.070240 0.799776 3.186570
v -0.067630 1.058219 3.339638
v -0.139993 0.818647 3.179437
v -0.161300 0.919562 3.259984
v -0.134901 1.048013 3.308544
v -0.613757 2.280824 0.989747
v -0.717226 1.763270 0.901789
v -0.672366 1.524420 1.024833
v -0.672826 2.430230 1.237476
v -0.802320 1.898059 1.323592
v -0.828252 1.351932 1.373335
v -0.637764 2.436148 1.420028
v -0.814394 1.946960 1.492984
v -0.838059 1.261131 1.528406
v -0.643939 2.320717 1.601757
v -0.764471 1.981283 1.682954
v -0.768176 1.203164 1.677112
v -0.446066 1.097113 0.978216
v -0.545183 1.157039 0.927406
v -0.755958 0.863253 1.369204
v -0.604449 0.814625 1.404834
v -0.806574 0.911717 1.259583
v -0.421231 0.945746 1.150537
v -0.799801 0.985318 1.150178
v -0.688315 1.174711 0.928678
v -0.422890 0.856687 1.267715
v -0.465642 0.820644 1.364367
v -0.758998 0.690426 1.205549
v -0.609957 0.667075 1.241579
v -0.537758 0.573037 0.606710
v -0.811108 0.730574 1.124295
v -0.431911 0.782371 1.047428
v -0.421090 0.538679 0.648262
v -0.801689 0.784548 1.037890
v -0.689961 0.892645 0.897816
v -0.431062 0.721328 1.146703
v -0.473188 0.688011 1.212378
v -0.447223 0.730709 0.797029
v -0.552366 0.758965 0.752112
v -0.780458 0.556635 1.033028
v -0.617567 0.533558 1.066604
v -0.801954 0.599337 0.959208
v -0.425955 0.657025 0.895096
v -0.793882 0.651443 0.880267
v -0.705032 0.750584 0.754225
v -0.426633 0.597532 0.984561
v -0.469356 0.562149 1.042826
v -0.814822 0.308581 0.842903
v -0.606877 0.279752 0.859304
v -0.649191 0.378033 0.788015
v -0.814163 0.375615 0.789599
v -0.397171 0.450623 0.738952
v -0.641552 0.452744 0.724342
v -0.807172 0.442114 0.726115
v -0.706917 0.562587 0.609097
v -0.399394 0.373361 0.811456
v -0.415493 0.319669 0.852449
v -0.431554 0.631478 0.727848
v -0.411322 0.484666 0.912805
v -0.408764 0.552488 0.826106
v -0.803701 0.544290 0.811590
v -0.810839 0.486422 0.889469
v -0.794540 0.478087 0.993583
v -0.617043 0.432349 1.022787
v -0.707451 0.651160 0.684839
v -0.544046 0.660903 0.682609
v -0.455928 0.485639 1.002030
v -0.604879 0.245516 1.029668
v -0.601530 0.166597 0.934581
v -0.779337 0.197898 0.916877
v -0.440581 0.205142 0.924524
v -0.776825 0.280204 1.011194
v -0.449778 0.290173 1.020047
v -0.762347 2.228509 -0.293615
v -0.786890 1.743248 -0.015063
v -0.762381 1.155692 -0.075898
v -0.752301 2.110984 -0.515656
v -0.858104 1.670619 -0.495945
v -0.810143 1.180824 -0.333556
v -0.742123 1.961473 -0.696587
v -0.837780 1.635682 -0.717055
v -0.742130 1.230428 -0.605746
v -0.603275 -0.008635 -0.283500
v -0.522623 0.887521 -0.688680
v -0.633164 0.942712 -0.065300
v -0.436467 0.923334 -0.132982
v -0.377067 0.900246 -0.398337
v -0.410523 0.887016 -0.642465
v -0.799899 0.913744 -0.385443
v -0.745377 0.891798 -0.645864
v -0.761601 0.937583 -0.141008
v -0.538970 0.662277 -0.641750
v -0.639693 0.554090 -0.076359
v -0.460516 0.555635 -0.143550
v -0.406392 0.607452 -0.383669
v -0.436856 0.651830 -0.600951
v -0.791563 0.614779 -0.365972
v -0.741886 0.657312 -0.602010
v -0.756686 0.570060 -0.143765
v -0.546398 -0.019376 -0.521313
v -0.665855 0.020981 -0.064259
v -0.410960 -0.002055 -0.115786
v -0.398828 -0.019232 -0.310479
v -0.432745 -0.021335 -0.488058
v -0.827517 -0.008187 -0.298817
v -0.772239 -0.016595 -0.489825
v -0.832297 0.011565 -0.119499
v -0.823367 0.230102 -0.143793
v -0.391833 0.206742 -0.331528
v -0.425749 0.204896 -0.507861
v -0.402030 0.217866 -0.141402
v -0.656925 0.232758 -0.090213
v -0.539403 0.207880 -0.540953
v -0.765244 0.210473 -0.509176
v -0.781711 0.140908 -0.009125
v -0.788688 0.032809 0.018034
v -0.658472 0.041166 0.072655
v -0.459055 0.019062 0.022030
v -0.452078 0.125558 -0.004079
v -0.651494 0.151760 0.043813
v -0.782623 0.435307 -0.342174
v -0.423399 0.426689 -0.354283
v -0.640974 0.429381 -0.116571
v -0.750089 0.431617 -0.169168
v -0.451816 0.437134 -0.525587
v -0.473868 0.420411 -0.167870
v -0.547053 0.441463 -0.557770
v -0.736300 0.441614 -0.526993
v -0.092420 1.730048 -0.966236
v -0.076591 1.955334 -0.937061
v -0.127603 1.711594 -0.915537
v -0.088882 2.048142 -0.898695
v -0.353936 1.737836 2.704979
v -0.462452 1.320466 2.708196
v -0.346085 1.560626 2.991217
v -0.469988 1.290192 2.911083
v -0.431634 1.646018 2.820014
v -0.509515 1.629734 2.836590
v -0.472450 1.653012 2.836977
v -0.537234 1.593867 2.826452
v -0.536419 1.508735 2.795635
v -0.550043 1.551981 2.812661
v -0.514399 1.591308 2.871909
v -0.455471 1.602121 2.874984
v -0.486059 1.606854 2.877311
v -0.527030 1.517182 2.850393
v -0.527210 1.576657 2.866554
v -0.537319 1.547787 2.857668
v -0.372831 1.582043 2.864870
v -0.460350 1.396724 2.825593
v -0.490673 1.630583 2.883394
v -0.529939 1.608859 2.876425
v -0.447174 1.623829 2.880523
v -0.548145 1.587813 2.869453
v -0.562047 1.547899 2.857770
v -0.548125 1.506464 2.847746
v -0.383871 1.557597 2.859618
v -0.450291 1.418143 2.830052
v -0.413090 1.556780 2.848070
v -0.458299 1.461320 2.828947
v -0.473111 1.581661 2.858687
v -0.493557 1.570493 2.854805
v -0.451044 1.578266 2.857000
v -0.502798 1.559983 2.850956
v -0.510091 1.539243 2.844568
v -0.502668 1.517279 2.839355
v -0.399391 1.546311 2.845954
v -0.447307 1.445630 2.824510
v -0.058900 0.992363 3.402901
v -0.055763 0.904694 3.411981
v -0.099802 0.995430 3.374901
v -0.095412 0.907485 3.384848
v -0.030579 0.928024 3.438859
v 0.291561 1.183740 3.095287
v 0.306648 1.252260 3.108820
v 0.269728 1.182810 3.137205
v 0.232186 1.142637 3.136097
v 0.245906 1.187260 3.107028
v 0.291926 1.255010 3.090170
v 0.256597 1.253505 3.157995
v 0.210577 1.185754 3.174853
v 0.195855 1.188504 3.156203
v 0.232775 1.257955 3.127819
v 0.270316 1.298128 3.128926
v 0.210942 1.257025 3.169736
v 0.285805 1.176759 3.113390
v 0.307506 1.217582 3.096706
v 0.294673 1.217035 3.121345
v 0.307720 1.259473 3.093699
v 0.298852 1.219198 3.085744
v 0.263739 1.153147 3.112739
v 0.250905 1.152600 3.137377
v 0.271803 1.179375 3.095653
v 0.236903 1.155215 3.119640
v 0.272017 1.221267 3.092645
v 0.295019 1.284817 3.116479
v 0.286365 1.286434 3.105516
v 0.265254 1.217767 3.150249
v 0.286955 1.258589 3.133565
v 0.216138 1.154330 3.159507
v 0.238204 1.177943 3.160158
v 0.215548 1.182176 3.131458
v 0.207484 1.155947 3.148545
v 0.264299 1.262821 3.104865
v 0.237249 1.222998 3.114774
v 0.265600 1.285549 3.145383
v 0.230486 1.219498 3.172378
v 0.194783 1.181291 3.171324
v 0.207830 1.223730 3.143678
v 0.251597 1.288165 3.127645
v 0.230700 1.261389 3.169370
v 0.238764 1.287618 3.152284
v 0.203650 1.221567 3.179279
v 0.194997 1.223183 3.168317
v 0.216698 1.264005 3.151633
v -0.291561 1.183740 3.095287
v -0.306648 1.252260 3.108820
v -0.269728 1.182809 3.137205
v -0.232186 1.142637 3.136097
v -0.245906 1.187259 3.107028
v -0.291925 1.255010 3.090170
v -0.256597 1.253505 3.157995
v -0.210577 1.185754 3.174853
v -0.195854 1.188504 3.156203
v -0.232775 1.257955 3.127819
v -0.270316 1.298128 3.128926
v -0.210942 1.257025 3.169736
v -0.285805 1.176759 3.113390
v -0.307506 1.217581 3.096707
v -0.294673 1.217035 3.121345
v -0.307720 1.259473 3.093699
v -0.298852 1.219198 3.085744
v -0.263739 1.153147 3.112740
v -0.250905 1.152600 3.137378
v -0.271803 1.179375 3.095653
v -0.236903 1.155215 3.119641
v -0.272017 1.221267 3.092645
v -0.295019 1.284817 3.116479
v -0.286365 1.286434 3.105517
v -0.265254 1.217767 3.150249
v -0.286955 1.258589 3.133565
v -0.216137 1.154330 3.159507
v -0.238204 1.177943 3.160158
v -0.215548 1.182176 3.131458
v -0.207484 1.155947 3.148545
v -0.264299 1.262821 3.104866
v -0.237249 1.222998 3.114774
v -0.265599 1.285549 3.145383
v -0.230486 1.219497 3.172378
v -0.194782 1.181291 3.171325
v -0.207830 1.223729 3.143679
v -0.251597 1.288165 3.127646
v -0.230700 1.261389 3.169371
v -0.238764 1.287618 3.152284
v -0.203650 1.221566 3.179279
v -0.194997 1.223183 3.168317
v -0.216698 1.264005 3.151634
vn -0.7940 -0.6079 -0.0010
vn 0.1434 0.9110 -0.3866
vn 0.9900 -0.1213 -0.0716
vn 0.9853 0.1703 -0.0160
vn 0.9575 0.1719 0.2317
vn 0.9780 -0.1229 0.1683
vn 0.9759 -0.1588 0.1497
vn 0.1935 -0.9735 0.1220
vn 0.2563 -0.8888 -0.3799
vn 0.1730 -0.9846 -0.0260
vn 0.0971 0.9678 -0.2324
vn 0.1785 0.9721 0.1523
vn 0.0446 0.7710 -0.6353
vn 0.2370 -0.1992 -0.9509
vn 0.3810 -0.8452 -0.3748
vn 0.5424 0.3864 0.7460
vn 0.1616 0.2036 -0.9656
vn 0.1884 -0.3425 -0.9204
vn 0.2075 0.2962 -0.9323
vn 0.4648 -0.7666 -0.4430
vn 0.8366 0.5476 0.0144
vn 0.9973 -0.0360 -0.0643
vn 0.1542 0.9797 0.1279
vn 0.9812 0.1561 0.1138
vn 0.3052 -0.5183 -0.7989
vn 0.1188 0.9928 -0.0160
vn 0.0092 0.9140 -0.4055
vn -0.6500 -0.3290 -0.6850
vn 0.6622 0.1415 -0.7359
vn 0.1666 0.9582 0.2327
vn -0.9678 -0.2500 0.0283
vn 0.9331 -0.0280 -0.3584
vn -0.0342 0.8098 -0.5857
vn 0.6154 0.0329 0.7875
vn -0.3284 -0.4296 0.8412
vn -0.0168 -0.9931 0.1157
vn 0.2375 -0.9354 -0.2621
vn 0.0723 -0.9967 0.0360
vn 0.1453 -0.1507 0.9778
vn 0.7680 0.4870 -0.4158
vn 0.2942 0.9388 -0.1791
vn 0.9448 -0.3122 0.0993
vn 0.2790 -0.8790 -0.3866
vn 0.2867 0.9472 0.1435
vn 0.2081 0.7378 0.6421
vn 0.0016 0.8022 -0.5971
vn 0.8641 0.1294 0.4865
vn 0.4867 -0.4832 0.7277
vn 0.8038 0.1366 -0.5790
vn 0.2695 -0.3342 -0.9032
vn 0.9856 0.1428 0.0904
vn 0.9722 0.1184 -0.2022
vn 0.1715 0.7707 0.6137
vn 0.2556 -0.9633 -0.0819
vn 0.9442 0.1087 0.3111
vn 0.2978 0.9444 0.1394
vn 0.2962 0.9549 -0.0196
vn 0.9786 0.2016 0.0414
vn 0.2317 0.8790 -0.4167
vn 0.0771 0.8174 0.5709
vn 0.1316 -0.9061 -0.4022
vn 0.9748 -0.2190 -0.0431
vn 0.3264 0.9155 0.2353
vn 0.1168 0.8386 0.5321
vn -0.0011 0.6842 0.7293
vn 0.2087 -0.9726 0.1022
vn 0.8390 -0.2699 0.4725
vn 0.2122 -0.9662 -0.1464
vn 0.0838 -0.7408 0.6665
vn 0.1804 -0.9434 -0.2783
vn 0.9344 -0.2177 -0.2820
vn 0.0365 -0.9390 0.3420
vn 0.8717 -0.4657 0.1524
vn 0.3324 -0.9412 -0.0603
vn 0.2546 -0.9223 -0.2907
vn 0.3427 0.6945 0.6326
vn 0.3610 0.7232 0.5888
vn 0.7613 0.1012 0.6404
vn 0.4549 0.6637 0.5938
vn 0.1550 -0.9013 -0.4045
vn 0.1859 -0.9133 0.3625
vn 0.8837 0.0035 0.4680
vn 0.3519 0.8020 0.4827
vn 0.3840 0.5635 0.7314
vn 0.1217 -0.9754 -0.1836
vn 0.4144 0.5977 0.6863
vn 0.1593 -0.9472 -0.2782
vn 0.5346 0.0244 0.8447
vn 0.1479 -0.9608 -0.2344
vn 0.3937 -0.8758 0.2792
vn -0.3032 -0.3762 0.8756
vn -0.0092 0.7032 0.7110
vn 0.1790 -0.9450 -0.2738
vn 0.9702 -0.2419 0.0123
vn 0.0310 -0.5203 0.8534
vn 0.0510 0.7597 0.6482
vn 0.6302 0.0056 0.7764
vn 0.1441 -0.9568 -0.2527
vn -0.1346 0.0726 0.9882
vn 0.4462 0.7212 0.5299
vn 0.3333 -0.0130 0.9427
vn 0.0463 -0.9985 0.0309
vn 0.3308 -0.9213 0.2044
vn 0.7809 -0.3365 0.5263
vn 0.4028 0.5341 0.7433
vn 0.1485 -0.9525 -0.2659
vn 0.8472 0.0833 0.5247
vn -0.0169 0.6125 0.7903
vn 0.2233 -0.9460 -0.2349
vn 0.8796 -0.3729 0.2954
vn 0.9482 -0.1855 -0.2579
vn 0.9841 0.1775 0.0059
vn 0.9710 0.1245 -0.2042
vn 0.9568 0.2478 0.1522
vn 0.9974 -0.0099 -0.0712
vn 0.9410 0.1217 0.3157
vn 0.7503 0.2456 0.6138
vn 0.9042 0.3577 0.2335
vn -0.6244 -0.0668 0.7782
vn 0.0575 0.2854 0.9567
vn 0.0378 -0.4049 -0.9136
vn 0.9003 -0.0063 0.4351
vn -0.9839 -0.1251 -0.1274
vn -0.9953 -0.0940 0.0240
vn 0.9950 0.0520 -0.0847
vn 0.2981 -0.2062 0.9320
vn 0.8955 -0.1119 0.4307
vn -0.8734 -0.0974 0.4773
vn 0.1270 -0.2915 -0.9481
vn -0.9543 -0.2766 -0.1132
vn 0.9216 -0.0173 0.3879
vn -0.9874 0.0230 -0.1569
vn -0.9997 -0.0144 0.0212
vn 0.9934 0.0138 -0.1137
vn 0.2559 -0.2018 0.9454
vn 0.8378 0.1001 -0.5367
vn -0.8524 -0.1091 0.5114
vn -0.3010 -0.1960 0.9333
vn -0.4803 -0.3867 -0.7873
vn 0.8853 -0.0959 -0.4550
vn 0.0237 -0.0771 -0.9967
vn 0.9934 0.1119 0.0234
vn -0.9876 0.0271 -0.1547
vn -0.9978 0.0500 0.0433
vn 0.9930 0.0497 -0.1069
vn 0.9768 0.1306 0.1695
vn 0.0234 0.0641 -0.9977
vn -0.8120 -0.1464 0.5649
vn -0.1956 -0.2513 0.9480
vn -0.4969 0.0604 -0.8657
vn -0.0022 -0.9975 0.0701
vn 0.0109 -0.9960 0.0885
vn -0.0013 -0.9944 0.1054
vn 0.0019 -0.9978 0.0667
vn -0.0084 -0.9965 0.0828
vn 0.0037 -0.9944 0.1057
vn -0.9208 0.1493 0.3603
vn -0.9798 0.1316 0.1503
vn -0.4521 -0.0619 -0.8898
vn 0.8503 -0.0117 -0.5262
vn 0.8557 0.0138 -0.5173
vn -0.4586 -0.0674 -0.8861
vn -0.2009 0.2778 0.9394
vn -0.8556 0.1842 0.4838
vn 0.2381 0.2960 0.9250
vn 0.9880 0.0969 -0.1204
vn -0.9958 0.0878 0.0252
vn -0.9854 0.0675 -0.1560
vn 0.9761 0.1809 0.1206
vn 0.0235 -0.0972 -0.9950
vn 0.2330 0.1322 0.9634
vn -0.1915 0.1316 0.9726
vn 0.1233 0.8645 0.4874
vn 0.0049 -0.9992 0.0407
vn -0.1020 0.8691 0.4841
vn -0.0044 -0.9992 0.0391
vn 0.9811 0.1788 0.0735
vn 0.9587 -0.1559 -0.2380
vn 0.9869 -0.0605 0.1497
vn 0.9372 0.3118 -0.1566
vn 0.6060 -0.3082 0.7334
vn 0.2911 0.9310 -0.2203
vn 0.9862 -0.0929 0.1371
vn 0.2198 0.7712 -0.5974
vn -0.9730 -0.1735 0.1518
vn -0.3419 0.1206 -0.9320
vn -0.3049 -0.5239 0.7953
vn 0.9859 -0.0933 0.1387
vn 0.1426 0.4601 -0.8763
vn -0.3992 0.3386 -0.8520
vn -0.9056 -0.2975 -0.3022
vn -0.1168 -0.6924 0.7120
vn -0.2655 0.6025 -0.7526
vn -0.9402 -0.1983 0.2771
vn 0.9999 0.0164 -0.0041
vn -0.9796 0.1217 -0.1599
vn 0.4913 -0.4540 0.7433
vn 0.1669 0.1657 -0.9719
vn 0.9748 0.0596 -0.2148
vn -0.9770 -0.0552 -0.2062
vn -0.0363 -0.8554 -0.5167
vn 0.0368 -0.8415 -0.5391
vn 0.0145 -0.7662 -0.6424
vn -0.0212 -0.7756 -0.6308
vn -0.9987 -0.0375 0.0331
vn 0.9388 -0.1632 0.3034
vn 0.1485 0.6209 -0.7697
vn 0.9632 0.1717 -0.2068
vn 0.9626 0.2487 -0.1074
vn 0.1574 0.6818 -0.7144
vn 0.3447 -0.5391 0.7685
vn -0.9521 0.0947 0.2906
vn -0.9714 0.2348 -0.0361
vn 0.9673 0.1081 0.2295
vn -0.2494 -0.5801 0.7754
vn -0.2800 0.6833 -0.6743
vn -0.2676 -0.3924 0.8800
vn 0.3883 -0.3514 0.8519
vn -0.1762 0.3246 0.9293
vn 0.0568 -0.8677 -0.4938
vn 0.2372 0.3145 0.9192
vn -0.0530 -0.8720 -0.4866
vn -0.3098 0.3736 -0.8743
vn -0.3200 -0.8205 0.4737
vn 0.9814 -0.1790 0.0690
vn -0.9791 0.0505 -0.1968
vn -0.9735 -0.2017 0.1077
vn 0.4506 -0.7763 0.4407
vn 0.1632 0.3923 -0.9053
vn 0.9681 0.0732 -0.2398
vn 0.3348 0.1512 -0.9301
vn 0.3558 -0.8607 -0.3641
vn 0.3507 0.3110 -0.8834
vn 0.2046 0.4970 -0.8433
vn 0.2150 -0.2192 -0.9517
vn 0.2795 0.1111 -0.9537
vn 0.9561 0.2911 0.0345
vn 0.9353 0.3022 0.1840
vn 0.9962 0.0800 -0.0341
vn 0.8971 0.3432 0.2782
vn -0.5818 0.7523 0.3092
vn 0.7637 0.6405 -0.0809
vn 0.8060 -0.5797 -0.1194
vn 0.5122 0.8374 0.1909
vn -0.2434 0.8653 0.4382
vn 0.9124 0.3593 -0.1960
vn 0.9423 -0.2284 -0.2448
vn 0.2539 0.3134 -0.9150
vn -0.0589 -0.2299 0.9714
vn 0.0314 -0.2634 0.9642
vn -0.0293 -0.2502 0.9677
vn 0.0071 -0.2846 0.9586
vn -0.0000 -0.2338 0.9723
vn 0.0387 -0.2962 0.9543
vn -0.0457 -0.2938 0.9548
vn 0.0444 -0.2250 0.9734
vn -0.0017 -0.2460 0.9693
vn 0.0075 -0.2068 0.9784
vn 0.1635 -0.6125 0.7734
vn -0.0300 -0.2162 0.9759
vn 0.2959 -0.5411 0.7872
vn -0.4091 0.1589 0.8985
vn -0.4122 -0.0769 0.9079
vn -0.1389 -0.5422 0.8287
vn 0.7291 0.2087 0.6518
vn -0.2062 -0.4906 0.8467
vn -0.5071 0.1159 0.8540
vn 0.0328 -0.6055 0.7952
vn 0.3193 0.7722 0.5493
vn 0.5296 -0.3546 0.7706
vn 0.5248 -0.4161 0.7426
vn -0.0292 0.0790 0.9964
vn 0.0200 -0.7291 0.6842
vn -0.0339 0.9307 0.3642
vn 0.7525 0.0176 0.6583
vn 0.8634 -0.4706 0.1820
vn -0.3776 0.7560 -0.5347
vn -0.9836 -0.1646 -0.0735
vn -0.9896 0.1405 -0.0304
vn -0.9633 0.1733 0.2052
vn -0.9675 -0.1389 0.2114
vn -0.9570 -0.2124 0.1973
vn -0.5250 -0.7756 0.3505
vn -0.3332 -0.9371 -0.1037
vn -0.3177 -0.9168 0.2419
vn -0.1147 0.9634 -0.2424
vn -0.1797 0.9720 0.1513
vn -0.3465 0.6656 -0.6610
vn -0.2483 -0.3547 -0.9014
vn -0.2214 -0.9366 -0.2718
vn -0.6840 0.3924 0.6150
vn -0.2919 0.1488 -0.9448
vn -0.1325 -0.4470 -0.8847
vn -0.2820 0.1800 -0.9424
vn -0.1888 -0.9042 -0.3830
vn -0.7918 0.6097 0.0360
vn -0.9964 -0.0284 -0.0801
vn -0.1536 0.9798 0.1277
vn -0.9793 0.1769 0.0986
vn -0.4192 -0.4794 -0.7710
vn -0.1115 0.9936 -0.0158
vn -0.0042 0.9132 -0.4075
vn 0.7072 0.1163 -0.6974
vn -0.6158 0.2013 -0.7618
vn -0.1630 0.9583 0.2346
vn 0.9567 -0.2129 -0.1983
vn -0.9275 0.1385 -0.3471
vn -0.0120 0.7972 -0.6036
vn -0.8838 -0.1704 0.4358
vn -0.1208 -0.7556 0.6438
vn -0.5449 -0.8183 0.1827
vn -0.2311 -0.9582 -0.1687
vn -0.3192 -0.9367 0.1436
vn -0.3554 -0.6322 0.6885
vn -0.7148 0.5492 -0.4329
vn -0.3362 0.9174 -0.2131
vn -0.9479 -0.3035 0.0963
vn -0.2776 -0.8915 -0.3579
vn -0.3002 0.9443 0.1345
vn -0.2075 0.7378 0.6423
vn -0.0822 0.7985 -0.5964
vn -0.8574 0.1275 0.4986
vn -0.4667 -0.2408 0.8510
vn -0.8284 0.1252 -0.5460
vn -0.3001 -0.3813 -0.8744
vn -0.9855 0.1431 0.0910
vn -0.9745 0.0226 -0.2230
vn -0.1714 0.7707 0.6138
vn -0.6484 -0.7468 -0.1481
vn -0.9429 0.1056 0.3159
vn -0.2939 0.9463 0.1344
vn -0.2791 0.9600 -0.0201
vn -0.9786 0.2017 0.0414
vn -0.2183 0.8802 -0.4214
vn -0.0771 0.8174 0.5709
vn -0.1316 -0.9061 -0.4022
vn -0.9746 -0.2201 -0.0423
vn -0.3097 0.9203 0.2391
vn -0.1168 0.8386 0.5321
vn 0.0011 0.6841 0.7293
vn -0.4849 -0.8479 -0.2145
vn -0.8390 -0.2699 0.4725
vn -0.2122 -0.9662 -0.1464
vn -0.2875 -0.8032 0.5218
vn -0.1804 -0.9434 -0.2783
vn -0.9344 -0.2177 -0.2820
vn -0.2878 -0.9358 0.2036
vn -0.8717 -0.4657 0.1524
vn -0.3324 -0.9412 -0.0603
vn -0.2367 -0.9293 -0.2834
vn -0.3132 0.7136 0.6266
vn -0.3339 0.7243 0.6033
vn -0.7613 0.1012 0.6404
vn -0.4549 0.6637 0.5938
vn -0.1550 -0.9013 -0.4045
vn -0.1859 -0.9133 0.3625
vn -0.8837 0.0035 0.4680
vn -0.3519 0.8020 0.4827
vn -0.3840 0.5635 0.7314
vn -0.1217 -0.9754 -0.1836
vn -0.4144 0.5977 0.6863
vn -0.1593 -0.9472 -0.2782
vn -0.5346 0.0244 0.8447
vn -0.1479 -0.9608 -0.2344
vn -0.3937 -0.8758 0.2792
vn 0.3031 -0.3759 0.8757
vn 0.0092 0.7032 0.7110
vn -0.1790 -0.9450 -0.2738
vn -0.9702 -0.2419 0.0123
vn -0.0310 -0.5203 0.8534
vn -0.0510 0.7597 0.6482
vn -0.6302 0.0056 0.7764
vn -0.1441 -0.9568 -0.2527
vn 0.1346 0.0726 0.9882
vn -0.4462 0.7213 0.5298
vn -0.3333 -0.0130 0.9427
vn -0.0463 -0.9985 0.0309
vn -0.3308 -0.9213 0.2044
vn -0.7809 -0.3365 0.5263
vn -0.4028 0.5341 0.7433
vn -0.1485 -0.9525 -0.2659
vn -0.8472 0.0833 0.5247
vn 0.0169 0.6125 0.7903
vn -0.2233 -0.9460 -0.2349
vn -0.8796 -0.3729 0.2954
vn -0.9493 -0.0892 -0.3014
vn -0.9570 0.2895 0.0174
vn -0.9344 0.2079 -0.2894
vn -0.9132 0.3622 0.1865
vn -0.9974 0.0358 -0.0626
vn -0.9419 0.0244 0.3349
vn -0.7002 0.2690 0.6613
vn -0.8749 0.4267 0.2290
vn 0.1985 -0.7103 0.6753
vn -0.2283 -0.0200 0.9734
vn -0.0178 0.1209 -0.9925
vn -0.8938 -0.2781 0.3519
vn 0.9855 0.0071 -0.1694
vn 0.9987 -0.0433 -0.0263
vn -0.9975 0.0494 -0.0503
vn -0.3202 -0.6724 0.6673
vn -0.9050 -0.3053 0.2963
vn 0.7913 -0.5613 0.2424
vn 0.0418 0.2696 -0.9621
vn 0.9496 -0.2075 -0.2348
vn -0.9134 -0.3034 0.2715
vn 0.9811 0.1685 -0.0948
vn 0.9996 0.0237 0.0142
vn -0.9960 0.0363 -0.0821
vn -0.2475 -0.7578 0.6037
vn -0.8550 0.3930 -0.3384
vn 0.8804 -0.3627 0.3054
vn 0.2335 -0.7316 0.6405
vn 0.4888 0.1112 -0.8653
vn -0.8891 0.1361 -0.4370
vn -0.0500 0.6499 -0.7584
vn -0.9952 -0.0032 0.0973
vn 0.9800 0.1813 -0.0820
vn 0.9963 0.0462 0.0720
vn -0.9969 0.0671 -0.0406
vn -0.9735 -0.1080 0.2016
vn -0.0494 0.7123 -0.7002
vn 0.8396 -0.4238 0.3399
vn 0.2430 -0.7762 0.5817
vn 0.4764 0.6444 -0.5982
vn 0.0367 -0.7136 -0.6996
vn -0.0111 -0.6036 -0.7972
vn 0.0480 -0.6683 -0.7423
vn 0.0362 -0.7131 -0.7002
vn 0.0770 -0.5838 -0.8082
vn 0.0189 -0.6701 -0.7420
vn 0.9179 -0.1565 0.3645
vn 0.9798 -0.0017 0.2001
vn 0.4233 0.6132 -0.6669
vn -0.8614 0.3356 -0.3814
vn -0.8697 0.3089 -0.3851
vn 0.4398 0.5516 -0.7087
vn 0.2340 -0.4029 0.8848
vn 0.8656 -0.1521 0.4770
vn -0.2430 -0.3926 0.8871
vn -0.9946 0.1008 -0.0258
vn 0.9920 0.0930 0.0854
vn 0.9776 0.2006 -0.0634
vn -0.9782 -0.0010 0.2075
vn -0.0441 0.5738 -0.8178
vn -0.2062 -0.7456 0.6337
vn 0.2322 -0.7298 0.6430
vn -0.1229 0.0535 0.9910
vn -0.0133 -0.5564 -0.8308
vn 0.0744 0.0684 0.9949
vn 0.0817 -0.5465 -0.8335
vn -0.9872 0.1533 0.0444
vn -0.9615 -0.2088 -0.1784
vn -0.9855 -0.0510 0.1620
vn -0.9501 0.2500 -0.1868
vn -0.5738 -0.1516 0.8048
vn -0.4905 0.7495 -0.4446
vn -0.9837 -0.0630 0.1684
vn -0.3742 0.6709 -0.6402
vn 0.9737 -0.0774 0.2143
vn 0.3590 -0.2081 -0.9099
vn 0.3358 -0.0405 0.9411
vn -0.9879 -0.0158 0.1542
vn -0.1920 0.1129 -0.9749
vn 0.2919 -0.0077 -0.9564
vn 0.9301 -0.3128 -0.1927
vn 0.2478 -0.3774 0.8923
vn 0.2772 -0.0917 -0.9564
vn 0.9412 0.0076 0.3377
vn -0.9991 0.0334 -0.0245
vn 0.9811 -0.0473 -0.1875
vn -0.5042 -0.0147 0.8635
vn -0.1868 -0.1853 -0.9648
vn -0.9772 -0.0462 -0.2070
vn 0.9824 -0.1189 -0.1441
vn 0.0006 -0.9924 0.1230
vn -0.0552 -0.9932 0.1023
vn -0.0400 -0.9988 0.0287
vn -0.0056 -0.9991 0.0431
vn 0.9978 -0.0294 0.0601
vn -0.9427 0.0962 0.3193
vn -0.1392 -0.0804 -0.9870
vn -0.9604 0.0056 -0.2785
vn -0.9584 0.1188 -0.2597
vn -0.1491 -0.0667 -0.9866
vn -0.3527 0.1979 0.9146
vn 0.9560 0.2516 0.1508
vn 0.9789 0.1093 -0.1728
vn -0.9616 0.2640 0.0756
vn 0.2415 0.1605 0.9570
vn 0.2963 -0.0493 -0.9538
vn 0.2590 0.2213 0.9402
vn -0.3852 0.2519 0.8878
vn 0.1935 0.8121 0.5505
vn -0.0670 -0.9881 0.1386
vn -0.2337 0.8024 0.5492
vn 0.0043 -0.9889 0.1485
vn 0.3034 -0.3415 -0.8896
vn 0.3091 -0.2455 0.9188
vn -0.9856 -0.0490 0.1621
vn 0.9785 -0.1230 -0.1656
vn 0.9701 -0.0896 0.2257
vn -0.4710 -0.2224 0.8537
vn -0.1626 -0.3369 -0.9274
vn -0.9683 -0.0935 -0.2317
vn -0.3449 0.1472 -0.9270
vn -0.2927 -0.8396 -0.4577
vn -0.3507 0.3110 -0.8834
vn -0.2355 0.5396 -0.8083
vn -0.1999 -0.2228 -0.9541
vn -0.3283 0.0916 -0.9401
vn -0.9561 0.2911 0.0345
vn -0.9353 0.3022 0.1840
vn -0.9962 0.0800 -0.0341
vn -0.8971 0.3432 0.2783
vn 0.5824 0.7519 0.3089
vn -0.7637 0.6405 -0.0807
vn -0.8062 -0.5794 -0.1193
vn -0.5121 0.8374 0.1910
vn 0.2441 0.8651 0.4381
vn -0.9125 0.3590 -0.1960
vn -0.9423 -0.2284 -0.2447
vn -0.2538 0.3132 -0.9151
vn 0.0590 -0.2299 0.9714
vn -0.0315 -0.2629 0.9643
vn 0.0292 -0.2499 0.9678
vn -0.0071 -0.2842 0.9587
vn -0.0000 -0.2335 0.9724
vn -0.0388 -0.2959 0.9544
vn 0.0455 -0.2936 0.9548
vn -0.0443 -0.2250 0.9734
vn 0.0017 -0.2458 0.9693
vn -0.0076 -0.2068 0.9784
vn -0.1640 -0.6124 0.7734
vn 0.0300 -0.2161 0.9759
vn -0.2960 -0.5410 0.7872
vn 0.4094 0.1588 0.8984
vn 0.4122 -0.0768 0.9079
vn 0.1389 -0.5417 0.8290
vn -0.7291 0.2087 0.6519
vn 0.2058 -0.4903 0.8469
vn 0.5073 0.1159 0.8539
vn -0.0328 -0.6052 0.7954
vn -0.3193 0.7722 0.5493
vn -0.5296 -0.3546 0.7706
vn -0.5248 -0.4161 0.7426
vn 0.0292 0.0790 0.9964
vn -0.0200 -0.7291 0.6841
vn 0.0339 0.9307 0.3642
vn -0.7525 0.0176 0.6583
vn 0.8961 -0.4272 0.1202
vn 0.9975 -0.0000 0.0707
vn 0.7307 -0.6820 -0.0306
vn 0.1099 -0.5660 -0.8170
vn 0.0413 -0.2676 -0.9627
vn 0.9363 0.2867 0.2031
vn 0.6878 -0.1748 0.7045
vn 0.3444 -0.7239 0.5977
vn -0.6069 -0.1376 -0.7828
vn -0.4208 0.1831 -0.8885
vn 0.7919 0.1432 0.5936
vn 0.5964 -0.2125 0.7740
vn -0.3952 -0.9010 0.1791
vn -0.6285 0.0163 -0.7776
vn -0.3576 0.3580 -0.8625
vn 0.4470 0.2161 0.8680
vn 0.2431 -0.0725 0.9673
vn -0.9975 -0.0000 -0.0707
vn -0.7601 0.2829 -0.5850
vn -0.4475 0.8683 -0.2138
vn -0.7307 0.6820 0.0306
vn -0.6821 0.6469 -0.3409
vn -0.6942 0.4292 -0.5777
vn -0.8961 0.4273 -0.1202
vn -0.8552 0.2751 -0.4393
vn -0.8798 0.1372 -0.4552
vn -0.7220 0.3143 0.6163
vn -0.7805 0.0487 0.6233
vn -0.1738 -0.1538 0.9727
vn -0.0413 0.2676 0.9627
vn 0.2534 0.0680 0.9650
vn 0.4174 0.0630 0.9066
vn -0.1099 0.5660 0.8170
vn 0.2535 0.4721 0.8443
vn 0.2197 0.7437 0.6314
vn -0.3444 0.7239 -0.5977
vn -0.4625 0.4532 -0.7621
vn -0.5848 0.3602 -0.7268
vn -0.6878 0.1749 -0.7045
vn -0.6976 0.0798 -0.7120
vn -0.7767 0.0406 -0.6285
vn -0.9363 -0.2867 -0.2031
vn -0.6272 -0.6705 0.3963
vn -0.0725 -0.4480 0.8911
vn 0.4208 -0.1831 0.8885
vn 0.5257 -0.1487 0.8376
vn 0.5343 -0.0534 0.8436
vn 0.6069 0.1376 0.7828
vn 0.6835 0.2391 0.6897
vn 0.5927 0.5489 0.5894
vn -0.5964 0.2125 -0.7740
vn -0.5257 0.1487 -0.8376
vn -0.5343 0.0534 -0.8436
vn -0.7919 -0.1432 -0.5936
vn -0.6835 -0.2391 -0.6897
vn -0.5928 -0.5488 -0.5894
vn 0.3576 -0.3579 0.8626
vn 0.4625 -0.4532 0.7621
vn 0.5848 -0.3602 0.7268
vn 0.6285 -0.0163 0.7776
vn 0.6976 -0.0798 0.7120
vn 0.7767 -0.0406 0.6285
vn 0.3952 0.9010 -0.1791
vn 0.6272 0.6705 -0.3963
vn 0.0725 0.4480 -0.8911
vn -0.2432 0.0725 -0.9673
vn -0.2534 -0.0680 -0.9650
vn -0.4174 -0.0630 -0.9066
vn -0.4470 -0.2160 -0.8680
vn -0.2535 -0.4721 -0.8443
vn -0.2197 -0.7437 -0.6314
vn 0.4475 -0.8683 0.2138
vn 0.6821 -0.6469 0.3410
vn 0.6942 -0.4293 0.5777
vn 0.1739 0.1538 -0.9727
vn 0.7805 -0.0487 -0.6233
vn 0.7220 -0.3144 -0.6163
vn 0.7601 -0.2829 0.5850
vn 0.8552 -0.2751 0.4393
vn 0.8798 -0.1372 0.4552
vn -0.8961 -0.4273 0.1202
vn -0.9975 -0.0000 0.0707
vn -0.7307 -0.6820 -0.0306
vn -0.1099 -0.5660 -0.8170
vn -0.0413 -0.2676 -0.9627
vn -0.9363 0.2866 0.2031
vn -0.6878 -0.1749 0.7045
vn -0.3444 -0.7239 0.5978
vn 0.6069 -0.1376 -0.7828
vn 0.4208 0.1831 -0.8885
vn -0.7919 0.1432 0.5936
vn -0.5964 -0.2125 0.7740
vn 0.3952 -0.9010 0.1791
vn 0.6285 0.0163 -0.7776
vn 0.3576 0.3580 -0.8625
vn -0.4471 0.2160 0.8680
vn -0.2432 -0.0725 0.9673
vn 0.9975 -0.0000 -0.0707
vn 0.7601 0.2829 -0.5850
vn 0.4475 0.8683 -0.2138
vn 0.7307 0.6820 0.0306
vn 0.6821 0.6469 -0.3409
vn 0.6942 0.4292 -0.5777
vn 0.8961 0.4273 -0.1202
vn 0.8552 0.2751 -0.4393
vn 0.8798 0.1372 -0.4552
vn 0.7220 0.3143 0.6163
vn 0.7805 0.0487 0.6233
vn 0.1738 -0.1538 0.9727
vn 0.0413 0.2676 0.9627
vn -0.2534 0.0680 0.9650
vn -0.4174 0.0630 0.9065
vn 0.1099 0.5661 0.8170
vn -0.2535 0.4721 0.8443
vn -0.2197 0.7437 0.6314
vn 0.3444 0.7239 -0.5977
vn 0.4625 0.4532 -0.7621
vn 0.5848 0.3602 -0.7268
vn 0.6878 0.1748 -0.7045
vn 0.6976 0.0798 -0.7120
vn 0.7767 0.0406 -0.6285
vn 0.9363 -0.2866 -0.2031
vn 0.6272 -0.6705 0.3963
vn 0.0725 -0.4480 0.8911
vn -0.4208 -0.1831 0.8885
vn -0.5257 -0.1487 0.8376
vn -0.5343 -0.0534 0.8436
vn -0.6069 0.1376 0.7828
vn -0.6835 0.2391 0.6896
vn -0.5927 0.5489 0.5894
vn 0.5964 0.2125 -0.7740
vn 0.5257 0.1487 -0.8376
vn 0.5343 0.0534 -0.8436
vn 0.7919 -0.1432 -0.5936
vn 0.6835 -0.2391 -0.6897
vn 0.5927 -0.5489 -0.5894
vn -0.3576 -0.3580 0.8625
vn -0.4625 -0.4532 0.7621
vn -0.5848 -0.3602 0.7268
vn -0.6285 -0.0163 0.7776
vn -0.6976 -0.0798 0.7120
vn -0.7767 -0.0406 0.6285
vn -0.3952 0.9010 -0.1791
vn -0.6272 0.6705 -0.3963
vn -0.0725 0.4480 -0.8911
vn 0.2432 0.0725 -0.9673
vn 0.2534 -0.0680 -0.9650
vn 0.4174 -0.0629 -0.9066
vn 0.4471 -0.2161 -0.8680
vn 0.2535 -0.4721 -0.8443
vn 0.2197 -0.7437 -0.6314
vn -0.4475 -0.8683 0.2138
vn -0.6821 -0.6469 0.3410
vn -0.6942 -0.4293 0.5777
vn -0.1738 0.1538 -0.9727
vn -0.7805 -0.0487 -0.6233
vn -0.7220 -0.3143 -0.6163
vn -0.7601 -0.2829 0.5850
vn -0.8552 -0.2751 0.4393
vn -0.8798 -0.1372 0.4552
vt 0.833374 0.494548
vt 0.893919 0.512741
vt 0.908415 0.468160
vt 0.848637 0.467455
vt 0.567859 0.867914
vt 0.639317 0.828812
vt 0.620915 0.894044
vt 0.556155 0.927906
vt 0.812683 0.509803
vt 0.774909 0.642712
vt 0.751394 0.643294
vt 0.751725 0.493743
vt 0.828812 0.793372
vt 0.751727 0.811870
vt 0.672932 0.807420
vt 0.672336 0.642732
vt 0.672998 0.503429
vt 0.598676 0.643182
vt 0.594201 0.530171
vt 0.560191 0.672195
vt 0.619753 0.672998
vt 0.599703 0.594201
vt 0.569702 0.558226
vt 0.580250 0.833374
vt 0.635423 0.812683
vt 0.637090 0.751725
vt 0.569078 0.759035
vt 0.500000 0.859251
vt 0.500000 0.750726
vt 0.569078 0.758996
vt 0.500000 0.657595
vt 0.560191 0.671923
vt 0.604420 0.951058
vt 0.545714 0.976119
vt 0.604420 0.548422
vt 0.626365 0.643481
vt 0.688416 0.643970
vt 0.666902 0.547256
vt 0.500000 0.917421
vt 0.563590 0.893919
vt 0.639317 0.793372
vt 0.659328 0.642712
vt 0.676970 0.643370
vt 0.671449 0.761101
vt 0.555994 0.632181
vt 0.545714 0.747180
vt 0.604420 0.735145
vt 0.572975 0.538591
vt 0.666902 0.715601
vt 0.500000 0.969030
vt 0.572975 0.947229
vt 0.501290 0.830086
vt 0.457158 0.830118
vt 0.460328 0.806630
vt 0.500288 0.803578
vt 0.499838 0.512886
vt 0.460007 0.507514
vt 0.481582 0.413128
vt 0.510774 0.417065
vt 0.500000 0.559830
vt 0.556447 0.575135
vt 0.579931 0.796381
vt 0.599703 0.530171
vt 0.637090 0.643182
vt 0.659115 0.643738
vt 0.643940 0.535244
vt 0.564556 0.492909
vt 0.500000 0.477524
vt 0.500000 0.432743
vt 0.566016 0.447361
vt 0.569702 0.518348
vt 0.616981 0.429733
vt 0.594994 0.421068
vt 0.612448 0.796381
vt 0.637526 0.771615
vt 0.500000 0.371229
vt 0.561082 0.382998
vt 0.450625 0.491920
vt 0.495971 0.498202
vt 0.507939 0.406303
vt 0.474705 0.401699
vt 0.591615 0.535244
vt 0.575831 0.433451
vt 0.407144 0.499901
vt 0.406490 0.640437
vt 0.358675 0.605643
vt 0.363238 0.556600
vt 0.578790 0.420824
vt 0.621227 0.407144
vt 0.601979 0.363238
vt 0.551080 0.357545
vt 0.500000 0.657756
vt 0.500000 0.571782
vt 0.667216 0.508652
vt 0.621227 0.499901
vt 0.632756 0.407548
vt 0.666461 0.413961
vt 0.556577 0.771615
vt 0.637090 0.751727
vt 0.260484 0.580516
vt 0.278839 0.520364
vt 0.582070 0.278839
vt 0.540875 0.268345
vt 0.619753 0.672932
vt 0.500000 0.307117
vt 0.551080 0.314473
vt 0.500000 0.983839
vt 0.393435 0.816867
vt 0.325561 0.763148
vt 0.671449 0.517077
vt 0.635423 0.509803
vt 0.642381 0.470278
vt 0.671266 0.470798
vt 0.988807 0.740196
vt 1.002924 0.661469
vt 1.015365 0.669173
vt 1.001496 0.721513
vt 0.500000 0.531683
vt 0.500000 0.631036
vt 0.249130 0.712570
vt 0.191059 0.679456
vt 0.198981 0.567653
vt 0.945839 0.547256
vt 0.886123 0.529161
vt 0.904522 0.470747
vt 0.963512 0.471464
vt 0.500000 0.238897
vt 0.540875 0.239236
vt 0.564556 0.495971
vt 0.612448 0.579931
vt 0.628268 0.501290
vt 0.631115 0.457158
vt 0.168698 0.648799
vt 0.177283 0.553376
vt 0.539817 0.181283
vt 0.500000 0.184290
vt 0.500000 0.144817
vt 0.539817 0.140934
vt 0.580006 0.205473
vt 0.539817 0.196322
vt 0.205473 0.476864
vt 0.621491 0.393435
vt 0.538703 0.608225
vt 0.500000 0.615960
vt 0.500000 0.567098
vt 0.526605 0.560962
vt 0.566016 0.450625
vt 0.149293 0.452102
vt 0.133162 0.541160
vt 0.103583 0.505809
vt 0.123733 0.441345
vt 0.539531 0.141037
vt 0.579447 0.149293
vt 0.562090 0.123733
vt 0.530633 0.116366
vt 0.500000 0.385014
vt 0.500000 0.353218
vt 0.586057 0.174337
vt 0.542919 0.165879
vt 0.174337 0.464471
vt 0.086614 0.427976
vt 0.065909 0.448336
vt 0.053210 0.428901
vt 0.071388 0.423606
vt 0.515797 0.085531
vt 0.531484 0.086614
vt 0.523242 0.071388
vt 0.510720 0.071544
vt 0.500000 0.266808
vt 0.601979 0.325561
vt 0.582070 0.249130
vt 0.108290 0.599988
vt 0.073849 0.556649
vt 0.580006 0.679456
vt 0.539817 0.690304
vt 0.539817 0.657159
vt 0.579599 0.648799
vt 0.500000 0.199929
vt 0.513331 0.045311
vt 0.500000 0.046647
vt 0.500000 0.069896
vt 0.051602 0.475706
vt 0.038205 0.462176
vt 0.038356 0.442272
vt 0.580006 0.191059
vt 0.577833 0.599988
vt 0.554232 0.556649
vt 0.500000 0.147087
vt 0.500000 0.124516
vt 0.530339 0.475706
vt 0.515210 0.477146
vt 0.513246 0.460736
vt 0.522445 0.462176
vt 0.500000 0.170521
vt 0.515546 0.457928
vt 0.507613 0.457080
vt 0.506877 0.445401
vt 0.514439 0.446199
vt 0.500000 0.089031
vt 0.528336 0.053210
vt 0.620841 0.601238
vt 0.618568 0.607555
vt 0.613078 0.604170
vt 0.614718 0.599612
vt 0.500000 0.479371
vt 0.500000 0.460095
vt 0.513331 0.424258
vt 0.512541 0.440917
vt 0.500000 0.440864
vt 0.500000 0.422187
vt 0.500000 0.664242
vt 0.576432 0.505809
vt 0.539481 0.507406
vt 0.547321 0.467354
vt 0.500000 0.513551
vt 0.519044 0.508271
vt 0.579599 0.168698
vt 0.538703 0.096221
vt 0.577833 0.108290
vt 0.520322 0.097153
vt 0.500000 0.106427
vt 0.541975 0.104341
vt 0.078394 0.467354
vt 0.104341 0.437145
vt 0.073220 0.507406
vt 0.590300 0.643738
vt 0.499630 0.641384
vt 0.459655 0.640419
vt 0.417546 0.774144
vt 0.414448 0.641253
vt 0.423095 0.508652
vt 0.621491 0.816867
vt 0.648114 0.640437
vt 0.669097 0.641253
vt 0.644267 0.774144
vt 0.578790 0.496630
vt 0.601625 0.405151
vt 0.649402 0.433451
vt 0.651726 0.367843
vt 0.620780 0.366797
vt 0.454529 0.413961
vt 0.467814 0.368189
vt 0.488225 0.366596
vt 0.561691 0.421068
vt 0.537425 0.365401
vt 0.507200 0.363509
vt 0.481273 0.364028
vt 0.510983 0.366114
vt 0.635806 0.367147
vt 0.669092 0.368189
vt 0.420824 0.496630
vt 0.452865 0.405151
vt 0.558226 0.518348
vt 0.484328 0.324872
vt 0.502799 0.322553
vt 0.547406 0.321655
vt 0.519920 0.320969
vt 0.496410 0.322232
vt 0.523434 0.321439
vt 0.639292 0.324944
vt 0.675657 0.324872
vt 0.550036 0.367843
vt 0.558926 0.322330
vt 0.465216 0.366023
vt 0.604868 0.366023
vt 0.599660 0.365401
vt 0.621651 0.293283
vt 0.658462 0.293469
vt 0.659368 0.261742
vt 0.621257 0.261665
vt 0.501495 0.293600
vt 0.482345 0.307625
vt 0.480362 0.262732
vt 0.500191 0.261781
vt 0.519246 0.292376
vt 0.547742 0.292993
vt 0.548078 0.261464
vt 0.518571 0.260916
vt 0.494871 0.293528
vt 0.493332 0.261956
vt 0.522889 0.292587
vt 0.522344 0.260869
vt 0.451756 0.288897
vt 0.449773 0.262732
vt 0.656778 0.322330
vt 0.622394 0.322035
vt 0.481902 0.324350
vt 0.605664 0.324350
vt 0.599057 0.321655
vt 0.595403 0.548078
vt 0.621257 0.561263
vt 0.645824 0.523009
vt 0.590945 0.518571
vt 0.639859 0.470735
vt 0.648324 0.498544
vt 0.685407 0.500191
vt 0.686261 0.480362
vt 0.592251 0.493332
vt 0.659368 0.560446
vt 0.683143 0.522344
vt 0.596433 0.477757
vt 0.479829 0.307317
vt 0.477757 0.262636
vt 0.447168 0.262636
vt 0.449241 0.288588
vt 0.596679 0.292993
vt 0.595403 0.261464
vt 0.559686 0.293469
vt 0.560446 0.261742
vt 0.603589 0.307317
vt 0.640355 0.307779
vt 0.679739 0.307625
vt 0.677932 0.288897
vt 0.639680 0.289050
vt 0.639859 0.262967
vt 0.679465 0.262732
vt 0.604354 0.288588
vt 0.603287 0.262636
vt 0.679739 0.482345
vt 0.640355 0.473048
vt 0.639680 0.442459
vt 0.677932 0.451756
vt 0.679465 0.449773
vt 0.639859 0.440146
vt 0.603589 0.479829
vt 0.604354 0.449241
vt 0.603287 0.447168
vt 0.841501 0.761101
vt 0.796910 0.643370
vt 0.906455 0.644155
vt 0.894416 0.742499
vt 0.957194 0.643970
vt 0.829265 0.517077
vt 0.940741 0.715601
vt 0.671449 0.841501
vt 0.669190 0.894416
vt 0.849398 0.470798
vt 0.666902 0.940741
vt 0.909364 0.402088
vt 0.855378 0.389954
vt 0.592313 0.470184
vt 0.617524 0.471308
vt 0.621192 0.417417
vt 0.598226 0.414426
vt 0.598146 0.467455
vt 0.603540 0.389954
vt 0.643835 0.389418
vt 0.855424 0.393127
vt 0.905341 0.403681
vt 0.667620 0.471464
vt 0.947229 0.538591
vt 0.963044 0.470184
vt 0.580250 0.494548
vt 0.595712 0.312254
vt 0.621272 0.312916
vt 0.622837 0.264476
vt 0.597277 0.263453
vt 0.852894 0.313492
vt 0.849695 0.260671
vt 0.818572 0.260902
vt 0.821566 0.286829
vt 0.893654 0.314609
vt 0.853541 0.316407
vt 0.850246 0.263617
vt 0.890422 0.263754
vt 0.896415 0.312211
vt 0.936226 0.312254
vt 0.933075 0.263453
vt 0.893263 0.261490
vt 0.670148 0.393127
vt 0.666826 0.415674
vt 0.958612 0.415674
vt 0.958434 0.414426
vt 0.649700 0.837975
vt 0.635627 0.887710
vt 0.686058 0.890422
vt 0.687133 0.850246
vt 0.592375 0.849695
vt 0.589648 0.893263
vt 0.597277 0.933075
vt 0.622837 0.940554
vt 0.673628 0.933416
vt 0.822213 0.289744
vt 0.819123 0.263848
vt 0.672063 0.313364
vt 0.673628 0.264581
vt 0.936602 0.313364
vt 0.933416 0.264581
vt 0.941647 0.364922
vt 0.899640 0.363406
vt 0.623001 0.364960
vt 0.665562 0.364922
vt 0.668659 0.362549
vt 0.644119 0.361871
vt 0.647700 0.316485
vt 0.685132 0.316407
vt 0.859879 0.359936
vt 0.902447 0.361457
vt 0.941330 0.363919
vt 0.860378 0.362549
vt 0.606538 0.359936
vt 0.590374 0.313492
vt 0.601582 0.363919
vt 0.646474 0.289822
vt 0.601626 0.286829
vt 0.603191 0.260902
vt 0.648039 0.263334
vt 0.675760 0.289744
vt 0.677325 0.263848
vt 0.647700 0.841274
vt 0.590374 0.852894
vt 0.601626 0.821566
vt 0.646474 0.809945
vt 0.648039 0.806852
vt 0.603191 0.818572
vt 0.685132 0.853541
vt 0.675760 0.822213
vt 0.677325 0.819123
vt 0.500000 0.668378
vt 0.500000 0.724779
vt 0.517225 0.721513
vt 0.520785 0.669173
vt 0.528698 1.002924
vt 0.500000 1.014901
vt 0.500000 1.025182
vt 0.520785 1.015365
vt 0.500000 0.744181
vt 0.519989 0.740196
vt 0.519989 0.988807
vt 0.500000 0.995348
vt 0.500000 0.660499
vt 0.528698 0.661469
vt 0.154177 0.616909
vt 0.166410 0.570048
vt 0.135838 0.608740
vt 0.149154 0.567675
vt 0.147623 0.572395
vt 0.137518 0.603560
vt 0.583783 0.154177
vt 0.583848 0.135838
vt 0.600568 0.131366
vt 0.597073 0.144428
vt 0.144166 0.612314
vt 0.141084 0.620214
vt 0.132632 0.614576
vt 0.134671 0.609983
vt 0.153028 0.593819
vt 0.141399 0.592146
vt 0.619182 0.132632
vt 0.614588 0.141084
vt 0.606252 0.140479
vt 0.610351 0.130579
vt 0.138199 0.601250
vt 0.148213 0.603179
vt 0.602487 0.570048
vt 0.583783 0.616909
vt 0.597073 0.624463
vt 0.606252 0.625520
vt 0.614588 0.620214
vt 0.620822 0.612314
vt 0.623703 0.603179
vt 0.620639 0.593819
vt 0.604695 0.577238
vt 0.601269 0.572395
vt 0.603531 0.567675
vt 0.609313 0.614171
vt 0.615687 0.610750
vt 0.619182 0.614576
vt 0.610351 0.619358
vt 0.602434 0.613212
vt 0.600568 0.617961
vt 0.626402 0.601250
vt 0.623276 0.609983
vt 0.618527 0.594500
vt 0.623272 0.592146
vt 0.590602 0.606787
vt 0.583848 0.608740
vt 0.592903 0.603615
vt 0.603070 0.582298
vt 0.613048 0.594751
vt 0.610999 0.606475
vt 0.606401 0.608943
vt 0.601438 0.608251
vt 0.586331 0.603560
vt 0.600598 0.578805
vt 0.589822 0.601288
vt 0.148133 0.578805
vt 0.140843 0.601288
vt 0.522445 0.038205
vt 0.513246 0.032036
vt 0.507613 0.025182
vt 0.515546 0.030102
vt 0.521458 0.442272
vt 0.528336 0.428901
vt 0.500000 0.456702
vt 0.500000 0.445370
vt 0.500000 0.031689
vt 0.512541 0.032373
vt 0.506877 0.025742
vt 0.500000 0.025886
vt 0.500000 0.031337
vt 0.500000 0.025479
vt 0.030102 0.457928
vt 0.030515 0.446199
vt 0.432141 0.867914
vt 0.443845 0.927906
vt 0.379085 0.894044
vt 0.360683 0.828812
vt 0.439809 0.672195
vt 0.430298 0.558226
vt 0.400297 0.594201
vt 0.380247 0.672998
vt 0.419750 0.833374
vt 0.430922 0.759035
vt 0.362910 0.751725
vt 0.364577 0.812683
vt 0.430922 0.758996
vt 0.439809 0.671923
vt 0.454286 0.976119
vt 0.395580 0.951058
vt 0.395580 0.548422
vt 0.333098 0.547256
vt 0.311584 0.643970
vt 0.373635 0.643481
vt 0.436410 0.893919
vt 0.360683 0.793372
vt 0.328551 0.761101
vt 0.323030 0.643370
vt 0.340672 0.642712
vt 0.444006 0.632181
vt 0.395580 0.735145
vt 0.454286 0.747180
vt 0.427025 0.538591
vt 0.333098 0.715601
vt 0.427025 0.947229
vt 0.443553 0.575135
vt 0.400297 0.530171
vt 0.356060 0.535244
vt 0.340885 0.643738
vt 0.362910 0.643182
vt 0.435444 0.492909
vt 0.433984 0.447361
vt 0.430298 0.518348
vt 0.405006 0.421068
vt 0.383019 0.429733
vt 0.362474 0.771615
vt 0.387552 0.796381
vt 0.438918 0.382998
vt 0.421210 0.420824
vt 0.448920 0.357545
vt 0.398021 0.363238
vt 0.378773 0.407144
vt 0.332784 0.508652
vt 0.333539 0.413961
vt 0.367244 0.407548
vt 0.378773 0.499901
vt 0.362910 0.751727
vt 0.459125 0.268345
vt 0.417930 0.278839
vt 0.380247 0.672932
vt 0.448920 0.314473
vt 0.328551 0.517077
vt 0.328734 0.470798
vt 0.357619 0.470278
vt 0.364577 0.509803
vt 0.459125 0.239236
vt 0.435444 0.495971
vt 0.387552 0.579931
vt 0.371732 0.501290
vt 0.368885 0.457158
vt 0.460183 0.181283
vt 0.460183 0.140934
vt 0.460183 0.196322
vt 0.419994 0.205473
vt 0.378509 0.393435
vt 0.461297 0.608225
vt 0.473395 0.560962
vt 0.433984 0.450625
vt 0.460469 0.141037
vt 0.469367 0.116366
vt 0.437911 0.123733
vt 0.420553 0.149293
vt 0.457081 0.165879
vt 0.413943 0.174337
vt 0.484203 0.085531
vt 0.489280 0.071544
vt 0.476758 0.071388
vt 0.468516 0.086614
vt 0.398021 0.325561
vt 0.417930 0.249130
vt 0.419994 0.679456
vt 0.420401 0.648799
vt 0.460183 0.657159
vt 0.460183 0.690304
vt 0.486669 0.045311
vt 0.419994 0.191059
vt 0.422167 0.599988
vt 0.445768 0.556649
vt 0.469661 0.475706
vt 0.477555 0.462176
vt 0.486754 0.460736
vt 0.484790 0.477146
vt 0.484454 0.457928
vt 0.485561 0.446199
vt 0.493123 0.445401
vt 0.492387 0.457080
vt 0.471665 0.053210
vt 0.379159 0.601238
vt 0.385282 0.599612
vt 0.386922 0.604170
vt 0.381432 0.607555
vt 0.486669 0.424258
vt 0.487459 0.440917
vt 0.423568 0.505809
vt 0.452679 0.467354
vt 0.460520 0.507406
vt 0.480956 0.508271
vt 0.420401 0.168698
vt 0.422167 0.108290
vt 0.461297 0.096221
vt 0.479678 0.097153
vt 0.458025 0.104341
vt 0.378509 0.816867
vt 0.355733 0.774144
vt 0.330903 0.641253
vt 0.351886 0.640437
vt 0.398375 0.405151
vt 0.421210 0.496630
vt 0.379220 0.366797
vt 0.348274 0.367843
vt 0.350598 0.433451
vt 0.330908 0.368189
vt 0.364194 0.367147
vt 0.324343 0.324872
vt 0.360708 0.324944
vt 0.395132 0.366023
vt 0.400340 0.365401
vt 0.378349 0.293283
vt 0.378743 0.261665
vt 0.340632 0.261742
vt 0.341538 0.293469
vt 0.377606 0.322035
vt 0.343222 0.322330
vt 0.394336 0.324350
vt 0.400943 0.321655
vt 0.404597 0.548078
vt 0.409055 0.518571
vt 0.354176 0.523009
vt 0.378743 0.561263
vt 0.360141 0.470735
vt 0.313739 0.480362
vt 0.314593 0.500191
vt 0.351676 0.498544
vt 0.407749 0.493332
vt 0.316857 0.522344
vt 0.340632 0.560446
vt 0.403567 0.477757
vt 0.403321 0.292993
vt 0.404597 0.261464
vt 0.359645 0.307779
vt 0.396411 0.307317
vt 0.320262 0.307625
vt 0.322068 0.288897
vt 0.320535 0.262732
vt 0.360141 0.262967
vt 0.360320 0.289050
vt 0.396713 0.262636
vt 0.395646 0.288588
vt 0.320262 0.482345
vt 0.322068 0.451756
vt 0.360320 0.442459
vt 0.359645 0.473048
vt 0.360141 0.440146
vt 0.320535 0.449773
vt 0.395646 0.449241
vt 0.396411 0.479829
vt 0.396713 0.447168
vt 0.330810 0.894416
vt 0.328551 0.841501
vt 0.333098 0.940741
vt 0.407688 0.470184
vt 0.401774 0.414426
vt 0.378808 0.417417
vt 0.382476 0.471308
vt 0.356165 0.389418
vt 0.396460 0.389954
vt 0.401854 0.467455
vt 0.332380 0.471464
vt 0.419750 0.494548
vt 0.404289 0.312254
vt 0.402723 0.263453
vt 0.377163 0.264476
vt 0.378728 0.312916
vt 0.329852 0.393127
vt 0.333174 0.415674
vt 0.350300 0.837975
vt 0.312867 0.850246
vt 0.313942 0.890422
vt 0.364373 0.887710
vt 0.410353 0.893263
vt 0.407625 0.849695
vt 0.377163 0.940554
vt 0.402723 0.933075
vt 0.326372 0.933416
vt 0.326372 0.264581
vt 0.327937 0.313364
vt 0.376999 0.364960
vt 0.334438 0.364922
vt 0.331341 0.362549
vt 0.314868 0.316407
vt 0.352300 0.316485
vt 0.355881 0.361871
vt 0.409626 0.313492
vt 0.393462 0.359936
vt 0.398418 0.363919
vt 0.353526 0.289822
vt 0.351961 0.263334
vt 0.396809 0.260902
vt 0.398374 0.286829
vt 0.324240 0.289744
vt 0.322675 0.263848
vt 0.352300 0.841274
vt 0.353526 0.809945
vt 0.398374 0.821566
vt 0.409626 0.852894
vt 0.396809 0.818572
vt 0.351961 0.806852
vt 0.314868 0.853541
vt 0.324240 0.822213
vt 0.322675 0.819123
vt 0.479215 0.669173
vt 0.482775 0.721513
vt 0.471302 1.002924
vt 0.479215 1.015365
vt 0.480011 0.740196
vt 0.480011 0.988807
vt 0.471302 0.661469
vt 0.416217 0.154177
vt 0.402927 0.144428
vt 0.399432 0.131366
vt 0.416152 0.135838
vt 0.380819 0.132632
vt 0.389649 0.130579
vt 0.393748 0.140479
vt 0.385412 0.141084
vt 0.397513 0.570048
vt 0.379361 0.593819
vt 0.376297 0.603179
vt 0.379178 0.612314
vt 0.385412 0.620214
vt 0.393748 0.625520
vt 0.402927 0.624463
vt 0.416217 0.616909
vt 0.395305 0.577238
vt 0.396469 0.567675
vt 0.398731 0.572395
vt 0.390687 0.614171
vt 0.389649 0.619358
vt 0.380819 0.614576
vt 0.384313 0.610750
vt 0.397566 0.613212
vt 0.399432 0.617961
vt 0.376724 0.609983
vt 0.373598 0.601250
vt 0.376728 0.592146
vt 0.381473 0.594500
vt 0.409398 0.606787
vt 0.416152 0.608740
vt 0.407098 0.603615
vt 0.398562 0.608251
vt 0.393599 0.608943
vt 0.389001 0.606475
vt 0.386952 0.594751
vt 0.396930 0.582298
vt 0.413669 0.603560
vt 0.399402 0.578805
vt 0.410178 0.601288
vt 0.477555 0.038205
vt 0.484454 0.030102
vt 0.492387 0.025182
vt 0.486754 0.032036
vt 0.478542 0.442272
vt 0.471665 0.428901
vt 0.493123 0.025742
vt 0.487459 0.032373
vt 0.181819 0.000000
vt 0.227273 0.078731
vt 0.136365 0.078731
vt 0.272728 0.157461
vt 0.318182 0.078731
vt 0.363637 0.157461
vt 0.909091 0.000000
vt 0.954545 0.078731
vt 0.863636 0.078731
vt 0.727273 0.000000
vt 0.772727 0.078731
vt 0.681818 0.078731
vt 0.545455 0.000000
vt 0.590909 0.078731
vt 0.500000 0.078731
vt 0.318182 0.236191
vt 0.090910 0.157461
vt 0.181819 0.157461
vt 0.136365 0.236191
vt 0.818182 0.157461
vt 0.909091 0.157461
vt 0.863636 0.236191
vt 0.636364 0.157461
vt 0.727273 0.157461
vt 0.681818 0.236191
vt 0.454546 0.157461
vt 0.545455 0.157461
vt 0.500000 0.236191
vt 0.227273 0.236191
vt 0.045455 0.236191
vt 0.772727 0.236191
vt 0.590909 0.236191
vt 0.409092 0.236191
vt 0.181819 0.314921
vt 0.272728 0.314921
vt 0.227273 0.393651
vt 0.000000 0.314921
vt 0.090910 0.314921
vt 0.045455 0.393651
vt 0.727273 0.314921
vt 0.818182 0.314921
vt 0.772727 0.393651
vt 0.545455 0.314921
vt 0.636364 0.314921
vt 0.590909 0.393651
vt 0.363637 0.314921
vt 0.454546 0.314921
vt 0.409092 0.393651
vt 0.500000 0.393651
vt 0.454546 0.472382
vt 0.681818 0.393651
vt 0.636364 0.472382
vt 0.863636 0.393651
vt 0.818182 0.472382
vt 0.909091 0.314921
vt 0.136365 0.393651
vt 0.090910 0.472382
vt 0.318182 0.393651
vt 0.272728 0.472382
vt 0.954545 0.236191
vt 1.000000 0.157461
vt 0.409092 0.078731
vt 0.363637 0.000000
s 1
f 116/1/1 98/2/1 209/3/1 208/4/1
f 115/5/2 4/6/2 17/7/2 97/8/2
f 3/9/3 7/10/3 13/11/3 8/12/3
f 7/10/4 4/13/4 9/14/4 13/11/4
f 13/11/5 9/14/5 2/15/5 10/16/5
f 8/12/6 13/11/6 10/16/6 1/17/6
f 1/17/7 10/16/7 32/18/7 29/19/7
f 114/20/8 1/21/8 29/22/8 83/23/8
f 116/24/9 3/25/9 8/26/9 109/27/9
f 109/27/10 8/26/10 1/21/10 114/20/10
f 115/5/11 6/28/11 15/29/11 99/30/11
f 99/30/12 15/29/12 12/31/12 112/32/12
f 97/8/13 17/7/13 21/33/13 90/34/13
f 20/35/14 25/36/14 203/37/14 204/38/14
f 116/24/15 5/28/15 18/39/15 98/40/15
f 4/41/16 7/42/16 197/43/16 196/44/16
f 89/45/17 90/46/17 21/47/17 25/36/17
f 91/48/18 89/45/18 25/36/18 20/35/18
f 25/36/19 21/47/19 202/49/19 203/37/19
f 98/40/20 18/39/20 23/50/20 91/51/20
f 38/52/21 45/53/21 134/54/21 131/55/21
f 133/56/22 136/57/22 144/58/22 146/59/22
f 112/32/23 12/31/23 34/60/23 82/61/23
f 10/16/24 2/15/24 30/62/24 32/18/24
f 29/63/25 32/64/25 129/65/25 130/66/25
f 75/67/26 41/68/26 48/69/26 73/70/26
f 82/61/27 34/60/27 41/68/27 75/67/27
f 83/71/28 29/63/28 141/72/28 140/73/28
f 32/64/29 30/74/29 128/75/29 129/65/29
f 73/70/30 48/69/30 56/76/30 66/77/30
f 74/78/31 81/79/31 145/80/31 148/81/31
f 130/82/32 133/56/32 146/59/32 147/83/32
f 6/28/33 115/5/33 97/8/33 19/39/33
f 54/84/34 53/85/34 60/86/34 61/87/34
f 67/88/35 54/89/35 61/90/35 65/91/35
f 11/92/36 114/20/36 83/23/36 33/93/36
f 5/28/37 116/24/37 109/27/37 14/29/37
f 14/29/38 109/27/38 114/20/38 11/92/38
f 139/94/39 54/95/39 143/96/39 142/97/39
f 30/62/40 38/52/40 131/55/40 128/98/40
f 4/6/41 115/5/41 99/30/41 9/99/41
f 61/87/42 60/86/42 69/100/42 70/101/42
f 65/91/43 61/90/43 70/102/43 58/103/43
f 9/99/44 99/30/44 112/32/44 2/104/44
f 66/77/45 56/76/45 63/105/45 64/106/45
f 19/39/46 97/8/46 90/34/46 24/107/46
f 53/85/47 52/108/47 59/109/47 60/86/47
f 198/110/48 3/111/48 207/112/48 213/113/48
f 256/114/49 255/115/49 253/116/49 254/117/49
f 23/118/50 26/119/50 89/45/50 91/48/50
f 69/100/51 68/120/51 76/121/51 77/122/51
f 204/123/52 201/124/52 211/125/52 212/126/52
f 64/106/53 63/105/53 72/127/53 57/128/53
f 33/93/54 83/23/54 81/129/54 40/68/54
f 60/86/55 59/109/55 68/120/55 69/100/55
f 2/104/56 112/32/56 82/61/56 30/130/56
f 38/131/57 75/67/57 73/70/57 45/132/57
f 77/122/58 76/121/58 259/133/58 260/134/58
f 30/130/59 82/61/59 75/67/59 38/131/59
f 50/135/60 80/136/60 88/137/60 44/138/60
f 58/103/61 70/102/61 78/139/61 51/140/61
f 70/101/62 69/100/62 77/122/62 78/141/62
f 45/132/63 73/70/63 66/77/63 52/142/63
f 57/128/64 72/127/64 80/136/64 50/135/64
f 28/143/65 110/144/65 96/145/65 42/146/65
f 40/68/66 81/129/66 74/147/66 47/69/66
f 108/148/67 262/149/67 93/150/67 94/151/67
f 31/152/68 108/153/68 94/154/68 43/155/68
f 55/156/69 67/88/69 65/91/69 62/157/69
f 51/140/70 78/139/70 86/158/70 49/159/70
f 78/141/71 77/122/71 260/134/71 86/160/71
f 47/69/72 74/147/72 67/88/72 55/156/72
f 123/161/73 124/162/73 101/163/73 102/164/73
f 121/165/74 123/166/74 102/167/74 37/168/74
f 62/157/75 65/91/75 58/103/75 71/169/75
f 52/142/76 66/77/76 64/106/76 59/170/76
f 59/170/77 64/106/77 57/128/77 68/171/77
f 262/149/78 261/172/78 92/173/78 93/150/78
f 76/174/79 50/175/79 44/176/79 259/177/79
f 71/169/80 58/103/80 51/140/80 79/178/80
f 37/168/81 35/179/81 105/180/81 103/181/81
f 124/162/82 127/182/82 297/183/82 298/184/82 101/163/82
f 68/171/83 57/128/83 50/135/83 76/185/83
f 261/186/84 28/143/84 42/146/84 92/187/84
f 107/188/85 31/152/85 43/155/85 95/189/85
f 127/190/86 122/191/86 295/192/86 297/193/86
f 79/178/87 51/140/87 49/159/87 87/194/87
f 100/195/88 36/196/88 301/197/88 104/198/88
f 126/199/89 121/165/89 37/168/89 103/181/89
f 102/167/90 101/200/90 35/179/90 37/168/90
f 274/201/91 273/202/91 290/203/91 291/204/91
f 122/191/92 125/205/92 300/206/92 295/192/92
f 49/159/93 86/158/93 108/153/93 31/152/93
f 86/160/94 260/134/94 262/149/94 108/148/94
f 35/207/95 296/208/95 299/209/95 105/210/95
f 44/176/96 88/211/96 110/144/96 28/143/96
f 93/212/97 92/187/97 120/213/97 119/214/97
f 87/194/98 49/159/98 31/152/98 107/188/98
f 42/146/99 96/145/99 113/215/99 27/216/99
f 259/217/100 44/138/100 28/218/100 261/219/100
f 92/187/101 42/146/101 27/216/101 120/213/101
f 95/189/102 43/155/102 22/220/102 118/221/102
f 43/155/103 94/154/103 117/222/103 22/220/103
f 94/151/104 93/150/104 119/223/104 117/224/104
f 120/213/105 27/216/105 122/191/105 127/190/105
f 118/221/106 22/220/106 121/165/106 126/199/106
f 119/223/107 120/225/107 127/182/107 124/162/107
f 27/216/108 113/215/108 125/205/108 122/191/108
f 22/220/109 117/222/109 123/166/109 121/165/109
f 117/224/110 119/223/110 124/162/110 123/161/110
f 130/82/111 129/226/111 132/227/111 133/56/111
f 132/227/112 131/55/112 134/54/112 135/228/112
f 129/226/113 128/98/113 131/55/113 132/227/113
f 135/228/114 134/54/114 137/229/114 138/230/114
f 133/56/115 132/227/115 135/228/115 136/57/115
f 136/57/116 135/228/116 138/230/116 139/231/116
f 52/232/117 53/233/117 138/234/117 137/235/117
f 45/53/118 52/108/118 137/229/118 134/54/118
f 54/95/119 67/236/119 149/237/119 143/96/119
f 53/233/120 54/95/120 139/94/120 138/234/120
f 141/72/121 147/238/121 157/239/121 39/240/121
f 144/58/122 142/241/122 150/242/122 153/243/122
f 145/80/123 140/244/123 46/245/123 154/246/123
f 148/81/124 145/80/124 154/246/124 158/247/124
f 146/59/125 144/58/125 153/243/125 156/248/125
f 142/97/126 143/96/126 151/249/126 150/250/126
f 136/57/127 139/231/127 142/241/127 144/58/127
f 67/251/128 74/78/128 148/81/128 149/252/128
f 29/63/129 130/66/129 147/238/129 141/72/129
f 81/79/130 83/253/130 140/244/130 145/80/130
f 153/243/131 150/242/131 162/254/131 164/255/131
f 154/246/132 46/245/132 160/256/132 165/257/132
f 158/247/133 154/246/133 165/257/133 168/258/133
f 156/248/134 153/243/134 164/255/134 166/259/134
f 150/250/135 151/249/135 163/260/135 162/261/135
f 157/262/136 156/248/136 166/259/136 167/263/136
f 149/252/137 148/81/137 158/247/137 159/264/137
f 143/96/138 149/237/138 159/265/138 151/249/138
f 140/73/139 141/72/139 39/240/139 46/266/139
f 147/83/140 146/59/140 156/248/140 157/262/140
f 188/267/141 187/268/141 177/269/141 152/270/141
f 184/271/142 185/272/142 170/273/142 173/274/142
f 182/275/143 180/276/143 155/277/143 174/278/143
f 181/279/144 182/275/144 174/278/144 178/280/144
f 183/281/145 184/271/145 173/274/145 176/282/145
f 170/273/146 185/272/146 194/283/146 192/284/146
f 39/240/147 157/239/147 167/285/147 161/286/147
f 159/264/148 158/247/148 168/258/148 169/287/148
f 151/249/149 159/265/149 169/288/149 163/260/149
f 46/266/150 39/240/150 161/286/150 160/289/150
f 155/290/151 152/291/151 175/292/151 174/293/151
f 171/294/152 172/295/152 173/296/152 170/297/152
f 174/293/153 175/292/153 172/295/153 178/298/153
f 175/292/154 152/291/154 177/299/154 176/300/154
f 178/298/155 172/295/155 171/294/155 179/301/155
f 172/295/156 175/292/156 176/300/156 173/296/156
f 189/302/157 181/279/157 178/280/157 179/303/157
f 189/302/158 179/303/158 193/304/158 195/305/158
f 180/306/159 188/267/159 152/270/159 155/307/159
f 187/308/160 183/281/160 176/282/160 177/309/160
f 167/263/161 166/259/161 183/281/161 187/308/161
f 160/289/162 161/286/162 188/267/162 180/306/162
f 163/260/163 169/288/163 189/310/163 186/311/163
f 169/287/164 168/258/164 181/279/164 189/302/164
f 162/261/165 163/260/165 186/311/165 185/312/165
f 166/259/166 164/255/166 184/271/166 183/281/166
f 168/258/167 165/257/167 182/275/167 181/279/167
f 165/257/168 160/256/168 180/276/168 182/275/168
f 164/255/169 162/254/169 185/272/169 184/271/169
f 161/286/170 167/285/170 187/268/170 188/267/170
f 194/313/171 190/314/171 191/315/171 192/316/171
f 190/314/172 195/317/172 193/318/172 191/315/172
f 185/319/173 186/320/173 190/321/173 194/322/173
f 171/294/174 170/297/174 192/323/174 191/324/174
f 186/320/175 189/325/175 195/326/175 190/321/175
f 179/301/176 171/294/176 191/324/176 193/327/176
f 196/328/177 197/329/177 200/330/177 199/331/177
f 200/330/178 201/124/178 204/123/178 203/332/178
f 197/329/179 198/333/179 201/124/179 200/330/179
f 199/331/180 200/330/180 203/332/180 202/334/180
f 7/42/181 3/111/181 198/110/181 197/43/181
f 17/7/182 4/6/182 196/335/182 199/336/182
f 201/124/183 198/333/183 213/337/183 211/125/183
f 21/33/184 17/7/184 199/336/184 202/338/184
f 208/4/185 209/3/185 217/339/185 216/340/185
f 210/341/186 206/342/186 214/343/186 218/344/186
f 207/112/187 208/345/187 216/346/187 215/347/187
f 211/125/188 213/337/188 221/348/188 219/349/188
f 20/35/189 204/38/189 212/350/189 206/342/189
f 91/48/190 20/35/190 206/342/190 210/341/190
f 98/2/191 91/351/191 210/352/191 209/3/191
f 3/111/192 116/353/192 208/345/192 207/112/192
f 232/354/193 235/355/193 222/356/193 226/357/193
f 233/358/194 224/359/194 240/360/194 241/361/194
f 16/362/195 230/363/195 229/364/195 227/365/195
f 231/366/196 232/367/196 226/368/196 225/369/196
f 213/113/197 207/112/197 215/347/197 221/370/197
f 206/342/198 212/350/198 220/371/198 214/343/198
f 212/126/199 211/125/199 219/349/199 220/372/199
f 209/3/200 210/352/200 218/373/200 217/339/200
f 223/374/201 205/375/201 227/376/201 229/377/201
f 223/374/202 224/378/202 225/379/202 205/375/202
f 205/375/203 225/379/203 226/380/203 222/381/203
f 205/375/204 222/381/204 228/382/204 227/376/204
f 233/358/205 231/366/205 225/369/205 224/359/205
f 229/364/206 230/363/206 237/383/206 238/384/206
f 235/355/207 236/385/207 228/386/207 222/356/207
f 236/387/208 16/362/208 227/365/208 228/388/208
f 250/389/209 243/390/209 16/362/209 236/387/209
f 249/391/210 250/392/210 236/385/210 235/355/210
f 246/393/211 245/394/211 234/395/211 230/396/211
f 248/397/212 244/398/212 231/366/212 233/358/212
f 244/398/213 247/399/213 232/367/213 231/366/213
f 243/390/214 246/400/214 230/363/214 16/362/214
f 245/394/215 248/401/215 233/402/215 234/395/215
f 247/403/216 249/391/216 235/355/216 232/354/216
f 242/404/217 241/405/217 240/406/217 239/407/217
f 237/408/218 242/404/218 239/407/218 238/409/218
f 234/410/219 233/411/219 241/412/219 242/413/219
f 224/378/220 223/374/220 239/414/220 240/415/220
f 230/416/221 234/410/221 242/413/221 237/417/221
f 223/374/222 229/377/222 238/418/222 239/414/222
f 218/344/223 214/343/223 249/391/223 247/403/223
f 215/347/224 216/346/224 248/401/224 245/394/224
f 219/349/225 221/348/225 246/400/225 243/390/225
f 217/339/226 218/373/226 247/399/226 244/398/226
f 216/340/227 217/339/227 244/398/227 248/397/227
f 221/370/228 215/347/228 245/394/228 246/393/228
f 214/343/229 220/371/229 250/392/229 249/391/229
f 220/372/230 219/349/230 243/390/230 250/389/230
f 252/419/231 251/420/231 254/421/231 253/422/231
f 255/423/232 257/424/232 252/425/232 253/426/232
f 258/427/233 256/428/233 254/421/233 251/420/233
f 24/107/234 90/34/234 256/429/234 258/430/234
f 89/45/235 26/119/235 257/431/235 255/432/235
f 90/46/236 89/45/236 255/432/236 256/428/236
f 84/433/237 85/434/237 260/134/237 259/133/237
f 275/435/238 84/433/238 259/133/238 261/172/238
f 85/434/239 276/436/239 262/149/239 260/134/239
f 276/436/240 284/437/240 283/438/240 275/435/240 261/172/240 262/149/240
f 84/439/241 275/440/241 279/441/241 263/442/241
f 266/443/242 264/444/242 278/445/242 280/446/242
f 276/436/243 85/434/243 267/447/243 282/448/243
f 278/449/244 264/450/244 265/451/244 277/452/244
f 277/452/245 265/451/245 263/442/245 279/441/245
f 266/443/246 280/446/246 281/453/246 268/454/246
f 268/454/247 281/453/247 282/448/247 267/447/247
f 85/455/248 84/456/248 263/457/248 265/458/248 264/459/248 266/460/248 268/461/248 267/462/248
f 106/463/249 284/464/249 276/465/249
f 271/466/250 269/467/250 278/468/250 277/469/250
f 270/470/251 271/466/251 277/469/251 279/471/251
f 273/202/252 274/201/252 281/472/252 280/473/252
f 274/201/253 272/474/253 282/475/253 281/472/253
f 269/467/254 273/202/254 280/473/254 278/468/254
f 111/476/255 270/470/255 279/471/255 275/477/255
f 272/474/256 106/463/256 276/465/256 282/475/256
f 285/478/257 286/479/257 292/480/257 291/204/257 290/203/257 288/481/257 287/482/257 289/483/257
f 283/484/258 111/476/258 275/477/258
f 270/470/259 111/476/259 285/478/259 289/483/259
f 294/485/260 286/479/260 285/478/260 293/486/260
f 111/476/261 283/484/261 293/486/261 285/478/261
f 106/463/262 272/474/262 292/480/262 286/479/262
f 272/474/263 274/201/263 291/204/263 292/480/263
f 269/467/264 271/466/264 287/482/264 288/481/264
f 283/438/265 284/437/265 294/487/265 293/488/265
f 273/202/266 269/467/266 288/481/266 290/203/266
f 284/464/267 106/463/267 286/479/267 294/485/267
f 271/466/268 270/470/268 289/483/268 287/482/268
f 297/489/269 295/490/269 36/491/269 100/492/269
f 296/208/270 298/493/270 104/198/270 301/197/270
f 101/494/271 298/493/271 296/208/271 35/207/271
f 36/196/272 302/495/272 303/496/272 301/197/272
f 299/497/273 296/498/273 301/499/273 303/500/273
f 295/490/274 300/501/274 302/502/274 36/491/274
f 298/184/275 297/183/275 100/503/275 104/504/275
f 385/1/276 474/4/276 475/3/276 372/2/276
f 384/505/277 371/506/277 314/507/277 307/508/277
f 306/9/278 309/12/278 312/11/278 308/10/278
f 308/10/279 312/11/279 310/14/279 307/13/279
f 312/11/280 311/16/280 305/15/280 310/14/280
f 309/12/281 304/17/281 311/16/281 312/11/281
f 304/17/282 321/19/282 324/18/282 311/16/282
f 383/509/283 361/510/283 321/511/283 304/512/283
f 385/513/284 380/514/284 309/515/284 306/516/284
f 380/514/285 383/509/285 304/512/285 309/515/285
f 384/505/286 373/517/286 15/29/286 6/28/286
f 373/517/287 382/518/287 12/31/287 15/29/287
f 371/506/288 366/519/288 316/520/288 314/507/288
f 315/521/289 470/522/289 469/523/289 318/524/289
f 385/513/290 372/525/290 18/39/290 5/28/290
f 307/526/291 462/527/291 463/528/291 308/529/291
f 365/530/292 318/524/292 316/531/292 366/532/292
f 367/533/293 315/521/293 318/524/293 365/530/293
f 318/524/294 469/523/294 468/534/294 316/531/294
f 372/525/295 367/535/295 23/50/295 18/39/295
f 328/52/296 397/55/296 400/54/296 333/53/296
f 399/56/297 412/59/297 410/58/297 402/57/297
f 382/518/298 360/536/298 34/60/298 12/31/298
f 311/16/299 324/18/299 322/62/299 305/15/299
f 321/537/300 396/538/300 395/539/300 324/540/300
f 355/541/301 353/542/301 48/69/301 41/68/301
f 360/536/302 355/541/302 41/68/302 34/60/302
f 361/543/303 406/544/303 407/545/303 321/537/303
f 324/540/304 395/539/304 394/546/304 322/547/304
f 353/542/305 348/548/305 56/76/305 48/69/305
f 354/78/306 414/81/306 411/80/306 359/79/306
f 396/82/307 413/83/307 412/59/307 399/56/307
f 6/28/308 19/39/308 371/506/308 384/505/308
f 340/84/309 345/87/309 344/86/309 339/85/309
f 349/549/310 347/550/310 345/551/310 340/552/310
f 11/92/311 33/93/311 361/510/311 383/509/311
f 5/28/312 14/29/312 380/514/312 385/513/312
f 14/29/313 11/92/313 383/509/313 380/514/313
f 405/553/314 408/554/314 409/555/314 340/556/314
f 322/62/315 394/98/315 397/55/315 328/52/315
f 307/508/316 310/557/316 373/517/316 384/505/316
f 345/87/317 352/101/317 351/100/317 344/86/317
f 347/550/318 342/558/318 352/559/318 345/551/318
f 310/557/319 305/560/319 382/518/319 373/517/319
f 348/548/320 346/561/320 63/105/320 56/76/320
f 19/39/321 24/107/321 366/519/321 371/506/321
f 339/85/322 344/86/322 343/109/322 338/108/322
f 464/562/323 479/563/323 473/564/323 306/565/323
f 520/114/324 518/117/324 517/116/324 519/115/324
f 23/118/325 367/533/325 365/530/325 26/119/325
f 351/100/326 357/122/326 356/121/326 350/120/326
f 470/123/327 478/126/327 477/125/327 467/124/327
f 346/561/328 341/566/328 72/127/328 63/105/328
f 33/93/329 40/68/329 359/567/329 361/510/329
f 344/86/330 351/100/330 350/120/330 343/109/330
f 305/560/331 322/568/331 360/536/331 382/518/331
f 328/569/332 333/570/332 353/542/332 355/541/332
f 357/122/333 522/134/333 521/133/333 356/121/333
f 322/568/334 328/569/334 355/541/334 360/536/334
f 336/571/335 332/572/335 88/137/335 80/136/335
f 342/558/336 337/573/336 358/574/336 352/559/336
f 352/101/337 358/141/337 357/122/337 351/100/337
f 333/570/338 338/575/338 348/548/338 353/542/338
f 341/566/339 336/571/339 80/136/339 72/127/339
f 320/576/340 330/577/340 96/145/340 110/144/340
f 40/68/341 47/69/341 354/578/341 359/567/341
f 379/148/342 370/151/342 369/150/342 524/149/342
f 323/579/343 331/580/343 370/581/343 379/582/343
f 55/156/344 62/157/344 347/550/344 349/549/344
f 337/573/345 335/583/345 364/584/345 358/574/345
f 358/141/346 364/160/346 522/134/346 357/122/346
f 47/69/347 55/156/347 349/549/347 354/578/347
f 391/161/348 376/164/348 375/163/348 392/162/348
f 389/585/349 327/586/349 376/587/349 391/588/349
f 62/157/350 71/169/350 342/558/350 347/550/350
f 338/575/351 343/589/351 346/561/351 348/548/351
f 343/589/352 350/590/352 341/566/352 346/561/352
f 524/149/353 369/150/353 368/173/353 523/172/353
f 356/591/354 521/592/354 332/593/354 336/594/354
f 71/169/355 79/178/355 337/573/355 342/558/355
f 327/586/356 103/181/356 105/180/356 325/595/356
f 392/162/357 375/163/357 560/184/357 559/183/357 393/182/357
f 350/590/358 356/596/358 336/571/358 341/566/358
f 523/597/359 368/598/359 330/577/359 320/576/359
f 107/188/360 95/189/360 331/580/360 323/579/360
f 393/599/361 559/600/361 557/601/361 390/602/361
f 79/178/362 87/194/362 335/583/362 337/573/362
f 374/603/363 377/604/363 561/605/363 326/606/363
f 126/199/364 103/181/364 327/586/364 389/585/364
f 376/587/365 327/586/365 325/595/365 375/607/365
f 536/608/366 553/609/366 552/610/366 535/611/366
f 390/602/367 557/601/367 300/206/367 125/205/367
f 335/583/368 323/579/368 379/582/368 364/584/368
f 364/160/369 379/148/369 524/149/369 522/134/369
f 325/612/370 105/210/370 299/209/370 558/613/370
f 332/593/371 320/576/371 110/144/371 88/211/371
f 369/614/372 387/615/372 388/616/372 368/598/372
f 87/194/373 107/188/373 323/579/373 335/583/373
f 330/577/374 319/617/374 113/215/374 96/145/374
f 521/618/375 523/619/375 320/620/375 332/572/375
f 368/598/376 388/616/376 319/617/376 330/577/376
f 95/189/377 118/221/377 317/621/377 331/580/377
f 331/580/378 317/621/378 386/622/378 370/581/378
f 370/151/379 386/224/379 387/223/379 369/150/379
f 388/616/380 393/599/380 390/602/380 319/617/380
f 118/221/381 126/199/381 389/585/381 317/621/381
f 387/223/382 392/162/382 393/182/382 388/225/382
f 319/617/383 390/602/383 125/205/383 113/215/383
f 317/621/384 389/585/384 391/588/384 386/622/384
f 386/224/385 391/161/385 392/162/385 387/223/385
f 396/82/386 399/56/386 398/227/386 395/226/386
f 398/227/387 401/228/387 400/54/387 397/55/387
f 395/226/388 398/227/388 397/55/388 394/98/388
f 401/228/389 404/230/389 403/229/389 400/54/389
f 399/56/390 402/57/390 401/228/390 398/227/390
f 402/57/391 405/231/391 404/230/391 401/228/391
f 338/623/392 403/624/392 404/625/392 339/626/392
f 333/53/393 400/54/393 403/229/393 338/108/393
f 340/556/394 409/555/394 415/627/394 349/628/394
f 339/626/395 404/625/395 405/553/395 340/556/395
f 407/545/396 329/629/396 423/630/396 413/631/396
f 410/58/397 419/243/397 416/242/397 408/241/397
f 411/80/398 420/246/398 334/245/398 406/244/398
f 414/81/399 424/247/399 420/246/399 411/80/399
f 412/59/400 422/248/400 419/243/400 410/58/400
f 408/554/401 416/632/401 417/633/401 409/555/401
f 402/57/402 410/58/402 408/241/402 405/231/402
f 349/251/403 415/252/403 414/81/403 354/78/403
f 321/537/404 407/545/404 413/631/404 396/538/404
f 359/79/405 411/80/405 406/244/405 361/253/405
f 419/243/406 430/255/406 428/254/406 416/242/406
f 420/246/407 431/257/407 426/256/407 334/245/407
f 424/247/408 434/258/408 431/257/408 420/246/408
f 422/248/409 432/259/409 430/255/409 419/243/409
f 416/632/410 428/634/410 429/635/410 417/633/410
f 423/262/411 433/263/411 432/259/411 422/248/411
f 415/252/412 425/264/412 424/247/412 414/81/412
f 409/555/413 417/633/413 425/636/413 415/627/413
f 406/544/414 334/637/414 329/629/414 407/545/414
f 413/83/415 423/262/415 422/248/415 412/59/415
f 454/638/416 418/639/416 443/640/416 453/641/416
f 450/271/417 439/274/417 436/273/417 451/272/417
f 448/275/418 440/278/418 421/277/418 446/276/418
f 447/279/419 444/280/419 440/278/419 448/275/419
f 449/281/420 442/282/420 439/274/420 450/271/420
f 436/273/421 458/284/421 460/283/421 451/272/421
f 329/629/422 427/642/422 433/643/422 423/630/422
f 425/264/423 435/287/423 434/258/423 424/247/423
f 417/633/424 429/635/424 435/644/424 425/636/424
f 334/637/425 426/645/425 427/642/425 329/629/425
f 421/646/426 440/647/426 441/648/426 418/649/426
f 437/650/427 436/651/427 439/652/427 438/653/427
f 440/647/428 444/654/428 438/653/428 441/648/428
f 441/648/429 442/655/429 443/656/429 418/649/429
f 444/654/430 445/657/430 437/650/430 438/653/430
f 438/653/431 439/652/431 442/655/431 441/648/431
f 455/302/432 445/303/432 444/280/432 447/279/432
f 455/302/433 461/305/433 459/304/433 445/303/433
f 446/658/434 421/659/434 418/639/434 454/638/434
f 453/308/435 443/309/435 442/282/435 449/281/435
f 433/263/436 453/308/436 449/281/436 432/259/436
f 426/645/437 446/658/437 454/638/437 427/642/437
f 429/635/438 452/660/438 455/661/438 435/644/438
f 435/287/439 455/302/439 447/279/439 434/258/439
f 428/634/440 451/662/440 452/660/440 429/635/440
f 432/259/441 449/281/441 450/271/441 430/255/441
f 434/258/442 447/279/442 448/275/442 431/257/442
f 431/257/443 448/275/443 446/276/443 426/256/443
f 430/255/444 450/271/444 451/272/444 428/254/444
f 427/642/445 454/638/445 453/641/445 433/643/445
f 460/663/446 458/664/446 457/665/446 456/666/446
f 456/666/447 457/665/447 459/667/447 461/668/447
f 451/669/448 460/670/448 456/671/448 452/672/448
f 437/650/449 457/673/449 458/674/449 436/651/449
f 452/672/450 456/671/450 461/675/450 455/676/450
f 445/657/451 459/677/451 457/673/451 437/650/451
f 462/328/452 465/331/452 466/330/452 463/329/452
f 466/330/453 469/332/453 470/123/453 467/124/453
f 463/329/454 466/330/454 467/124/454 464/333/454
f 465/331/455 468/334/455 469/332/455 466/330/455
f 308/529/456 463/528/456 464/562/456 306/565/456
f 314/507/457 465/678/457 462/679/457 307/508/457
f 467/124/458 477/125/458 479/337/458 464/333/458
f 316/520/459 468/680/459 465/678/459 314/507/459
f 474/4/460 482/340/460 483/339/460 475/3/460
f 476/681/461 484/682/461 480/683/461 472/684/461
f 473/564/462 481/685/462 482/686/462 474/687/462
f 477/125/463 485/349/463 487/348/463 479/337/463
f 315/521/464 472/684/464 478/688/464 470/522/464
f 367/533/465 476/681/465 472/684/465 315/521/465
f 372/2/466 475/3/466 476/352/466 367/351/466
f 306/565/467 473/564/467 474/687/467 385/689/467
f 498/690/468 492/691/468 488/692/468 501/693/468
f 499/358/469 507/361/469 506/360/469 490/359/469
f 313/362/470 493/365/470 495/364/470 496/363/470
f 497/366/471 491/369/471 492/368/471 498/367/471
f 479/563/472 487/694/472 481/685/472 473/564/472
f 472/684/473 480/683/473 486/695/473 478/688/473
f 478/126/474 486/372/474 485/349/474 477/125/474
f 475/3/475 483/339/475 484/373/475 476/352/475
f 489/696/476 495/697/476 493/698/476 471/699/476
f 489/696/477 471/699/477 491/700/477 490/701/477
f 471/699/478 488/702/478 492/703/478 491/700/478
f 471/699/479 493/698/479 494/704/479 488/702/479
f 499/358/480 490/359/480 491/369/480 497/366/480
f 495/364/481 504/384/481 503/383/481 496/363/481
f 501/693/482 488/692/482 494/705/482 502/706/482
f 502/387/483 494/388/483 493/365/483 313/362/483
f 516/389/484 502/387/484 313/362/484 509/390/484
f 515/707/485 501/693/485 502/706/485 516/708/485
f 512/709/486 496/710/486 500/711/486 511/712/486
f 514/397/487 499/358/487 497/366/487 510/398/487
f 510/398/488 497/366/488 498/367/488 513/399/488
f 509/390/489 313/362/489 496/363/489 512/400/489
f 511/712/490 500/711/490 499/713/490 514/714/490
f 513/715/491 498/690/491 501/693/491 515/707/491
f 508/716/492 505/717/492 506/718/492 507/719/492
f 503/720/493 504/721/493 505/717/493 508/716/493
f 500/722/494 508/723/494 507/724/494 499/725/494
f 490/701/495 506/726/495 505/727/495 489/696/495
f 496/728/496 503/729/496 508/723/496 500/722/496
f 489/696/497 505/727/497 504/730/497 495/697/497
f 484/682/498 513/715/498 515/707/498 480/683/498
f 481/685/499 511/712/499 514/714/499 482/686/499
f 485/349/500 509/390/500 512/400/500 487/348/500
f 483/339/501 510/398/501 513/399/501 484/373/501
f 482/340/502 514/397/502 510/398/502 483/339/502
f 487/694/503 512/709/503 511/712/503 481/685/503
f 480/683/504 515/707/504 516/708/504 486/695/504
f 486/372/505 516/389/505 509/390/505 485/349/505
f 252/419/506 517/731/506 518/732/506 251/420/506
f 519/733/507 517/734/507 252/425/507 257/424/507
f 258/427/508 251/420/508 518/732/508 520/735/508
f 24/107/509 258/430/509 520/736/509 366/519/509
f 365/530/510 519/737/510 257/431/510 26/119/510
f 366/532/511 520/735/511 519/737/511 365/530/511
f 362/433/512 521/133/512 522/134/512 363/434/512
f 537/435/513 523/172/513 521/133/513 362/433/513
f 363/434/514 522/134/514 524/149/514 538/436/514
f 538/436/515 524/149/515 523/172/515 537/435/515 545/438/515 546/437/515
f 362/738/516 525/739/516 541/740/516 537/741/516
f 528/443/517 542/446/517 540/445/517 526/444/517
f 538/436/518 544/448/518 529/447/518 363/434/518
f 540/742/519 539/743/519 527/744/519 526/745/519
f 539/743/520 541/740/520 525/739/520 527/744/520
f 528/443/521 530/454/521 543/453/521 542/446/521
f 530/454/522 529/447/522 544/448/522 543/453/522
f 363/746/523 529/747/523 530/748/523 528/749/523 526/750/523 527/751/523 525/752/523 362/753/523
f 378/754/524 538/755/524 546/756/524
f 533/757/525 539/758/525 540/759/525 531/760/525
f 532/761/526 541/762/526 539/758/526 533/757/526
f 535/611/527 542/763/527 543/764/527 536/608/527
f 536/608/528 543/764/528 544/765/528 534/766/528
f 531/760/529 540/759/529 542/763/529 535/611/529
f 381/767/530 537/768/530 541/762/530 532/761/530
f 534/766/531 544/765/531 538/755/531 378/754/531
f 547/769/532 551/770/532 549/771/532 550/772/532 552/610/532 553/609/532 554/773/532 548/774/532
f 545/775/533 537/768/533 381/767/533
f 532/761/534 551/770/534 547/769/534 381/767/534
f 556/776/535 555/777/535 547/769/535 548/774/535
f 381/767/536 547/769/536 555/777/536 545/775/536
f 378/754/537 548/774/537 554/773/537 534/766/537
f 534/766/538 554/773/538 553/609/538 536/608/538
f 531/760/539 550/772/539 549/771/539 533/757/539
f 545/438/540 555/488/540 556/487/540 546/437/540
f 535/611/541 552/610/541 550/772/541 531/760/541
f 546/756/542 556/776/542 548/774/542 378/754/542
f 533/757/543 549/771/543 551/770/543 532/761/543
f 559/778/544 374/779/544 326/780/544 557/781/544
f 558/613/545 561/605/545 377/604/545 560/782/545
f 375/783/546 325/612/546 558/613/546 560/782/546
f 326/606/547 561/605/547 303/496/547 302/495/547
f 299/497/548 303/500/548 561/784/548 558/785/548
f 557/781/549 326/780/549 302/502/549 300/501/549
f 560/184/550 377/504/550 374/503/550 559/183/550
f 562/786/551 575/787/551 574/788/551
f 563/789/552 575/790/552 577/791/552
f 562/792/553 574/793/553 579/794/553
f 562/795/554 579/796/554 581/797/554
f 562/798/555 581/799/555 578/800/555
f 563/789/556 577/791/556 584/801/556
f 564/802/557 576/803/557 586/804/557
f 565/805/558 580/806/558 588/807/558
f 566/808/559 582/809/559 590/810/559
f 567/811/560 583/812/560 592/813/560
f 563/789/561 584/801/561 587/814/561
f 564/802/562 586/804/562 589/815/562
f 565/805/563 588/807/563 591/816/563
f 566/808/564 590/810/564 593/817/564
f 567/811/565 592/813/565 585/818/565
f 568/819/566 594/820/566 599/821/566
f 569/822/567 595/823/567 601/824/567
f 570/825/568 596/826/568 602/827/568
f 571/828/569 597/829/569 603/830/569
f 572/831/570 598/832/570 600/833/570
f 600/833/571 603/834/571 573/835/571
f 600/833/572 598/832/572 603/834/572
f 598/832/573 571/828/573 603/834/573
f 603/830/574 602/836/574 573/837/574
f 603/830/575 597/829/575 602/836/575
f 597/829/576 570/825/576 602/836/576
f 602/827/577 601/838/577 573/839/577
f 602/827/578 596/826/578 601/838/578
f 596/826/579 569/840/579 601/838/579
f 601/824/580 599/841/580 573/842/580
f 601/824/581 595/823/581 599/841/581
f 595/823/582 568/819/582 599/841/582
f 599/821/583 600/843/583 573/844/583
f 599/821/584 594/820/584 600/843/584
f 594/820/585 572/831/585 600/843/585
f 585/818/586 598/832/586 572/831/586
f 585/818/587 592/813/587 598/832/587
f 592/813/588 571/828/588 598/832/588
f 593/817/589 597/829/589 571/828/589
f 593/817/590 590/810/590 597/829/590
f 590/810/591 570/825/591 597/829/591
f 591/816/592 596/826/592 570/825/592
f 591/816/593 588/807/593 596/826/593
f 588/807/594 569/840/594 596/826/594
f 589/815/595 595/823/595 569/822/595
f 589/815/596 586/804/596 595/823/596
f 586/804/597 568/819/597 595/823/597
f 587/814/598 594/820/598 568/819/598
f 587/814/599 584/801/599 594/820/599
f 584/801/600 572/831/600 594/820/600
f 592/813/601 593/817/601 571/828/601
f 592/813/602 583/812/602 593/817/602
f 583/812/603 566/808/603 593/817/603
f 590/810/604 591/816/604 570/825/604
f 590/810/605 582/809/605 591/816/605
f 582/809/606 565/805/606 591/816/606
f 588/807/607 589/845/607 569/840/607
f 588/807/608 580/806/608 589/845/608
f 580/806/609 564/846/609 589/845/609
f 586/804/610 587/814/610 568/819/610
f 586/804/611 576/803/611 587/814/611
f 576/803/612 563/789/612 587/814/612
f 584/801/613 585/818/613 572/831/613
f 584/801/614 577/791/614 585/818/614
f 577/791/615 567/811/615 585/818/615
f 578/800/616 583/812/616 567/811/616
f 578/800/617 581/799/617 583/812/617
f 581/799/618 566/808/618 583/812/618
f 581/797/619 582/809/619 566/808/619
f 581/797/620 579/796/620 582/809/620
f 579/796/621 565/805/621 582/809/621
f 579/794/622 580/806/622 565/805/622
f 579/794/623 574/793/623 580/806/623
f 574/793/624 564/846/624 580/806/624
f 577/791/625 578/847/625 567/811/625
f 577/791/626 575/790/626 578/847/626
f 575/790/627 562/848/627 578/847/627
f 574/788/628 576/803/628 564/802/628
f 574/788/629 575/787/629 576/803/629
f 575/787/630 563/789/630 576/803/630
f 604/786/631 616/788/631 617/787/631
f 605/789/632 619/791/632 617/790/632
f 604/792/633 621/794/633 616/793/633
f 604/795/634 623/797/634 621/796/634
f 604/798/635 620/800/635 623/799/635
f 605/789/636 626/801/636 619/791/636
f 606/802/637 628/804/637 618/803/637
f 607/805/638 630/807/638 622/806/638
f 608/808/639 632/810/639 624/809/639
f 609/811/640 634/813/640 625/812/640
f 605/789/641 629/814/641 626/801/641
f 606/802/642 631/815/642 628/804/642
f 607/805/643 633/816/643 630/807/643
f 608/808/644 635/817/644 632/810/644
f 609/811/645 627/818/645 634/813/645
f 610/819/646 641/821/646 636/820/646
f 611/822/647 643/824/647 637/823/647
f 612/825/648 644/827/648 638/826/648
f 613/828/649 645/830/649 639/829/649
f 614/831/650 642/833/650 640/832/650
f 642/833/651 615/835/651 645/834/651
f 642/833/652 645/834/652 640/832/652
f 640/832/653 645/834/653 613/828/653
f 645/830/654 615/837/654 644/836/654
f 645/830/655 644/836/655 639/829/655
f 639/829/656 644/836/656 612/825/656
f 644/827/657 615/839/657 643/838/657
f 644/827/658 643/838/658 638/826/658
f 638/826/659 643/838/659 611/840/659
f 643/824/660 615/842/660 641/841/660
f 643/824/661 641/841/661 637/823/661
f 637/823/662 641/841/662 610/819/662
f 641/821/663 615/844/663 642/843/663
f 641/821/664 642/843/664 636/820/664
f 636/820/665 642/843/665 614/831/665
f 627/818/666 614/831/666 640/832/666
f 627/818/667 640/832/667 634/813/667
f 634/813/668 640/832/668 613/828/668
f 635/817/669 613/828/669 639/829/669
f 635/817/670 639/829/670 632/810/670
f 632/810/671 639/829/671 612/825/671
f 633/816/672 612/825/672 638/826/672
f 633/816/673 638/826/673 630/807/673
f 630/807/674 638/826/674 611/840/674
f 631/815/675 611/822/675 637/823/675
f 631/815/676 637/823/676 628/804/676
f 628/804/677 637/823/677 610/819/677
f 629/814/678 610/819/678 636/820/678
f 629/814/679 636/820/679 626/801/679
f 626/801/680 636/820/680 614/831/680
f 634/813/681 613/828/681 635/817/681
f 634/813/682 635/817/682 625/812/682
f 625/812/683 635/817/683 608/808/683
f 632/810/684 612/825/684 633/816/684
f 632/810/685 633/816/685 624/809/685
f 624/809/686 633/816/686 607/805/686
f 630/807/687 611/840/687 631/845/687
f 630/807/688 631/845/688 622/806/688
f 622/806/689 631/845/689 606/846/689
f 628/804/690 610/819/690 629/814/690
f 628/804/691 629/814/691 618/803/691
f 618/803/692 629/814/692 605/789/692
f 626/801/693 614/831/693 627/818/693
f 626/801/694 627/818/694 619/791/694
f 619/791/695 627/818/695 609/811/695
f 620/800/696 609/811/696 625/812/696
f 620/800/697 625/812/697 623/799/697
f 623/799/698 625/812/698 608/808/698
f 623/797/699 608/808/699 624/809/699
f 623/797/700 624/809/700 621/796/700
f 621/796/701 624/809/701 607/805/701
f 621/794/702 607/805/702 622/806/702
f 621/794/703 622/806/703 616/793/703
f 616/793/704 622/806/704 606/846/704
f 619/791/705 609/811/705 620/847/705
f 619/791/706 620/847/706 617/790/706
f 617/790/707 620/847/707 604/848/707
f 616/788/708 606/802/708 618/803/708
f 616/788/709 618/803/709 617/787/709
f 617/787/710 618/803/710 605/789/710
