# Blender 5.1.1
# www.blender.org
o Куб.001
v 0.536962 0.942075 0.638314
v 0.532339 2.428221 0.476979
v 0.614441 1.110496 -0.259789
v 0.618606 2.379812 -0.213258
v 0.002958 1.010931 -0.320551
v -0.000000 2.480862 -0.357245
v 0.712806 1.727385 0.012842
v 0.618829 0.942012 0.131092
v 0.609144 2.451224 0.127718
v 0.650727 1.642983 0.514949
v -0.004574 0.952908 0.677611
v -0.000000 2.544096 0.544675
v 0.722534 1.715402 0.120714
v 0.002162 0.907079 0.187123
v -0.000000 2.614716 0.130571
v 0.828833 0.585120 -1.196795
v 0.535943 2.317503 -0.500238
v 0.002539 1.096089 -0.578922
v 0.000000 2.280686 -0.622767
v 0.472869 1.437661 -0.819435
v 0.464142 2.148728 -0.749590
v 0.090363 0.834521 3.149887
v 0.001537 1.213066 -0.800078
v -0.000000 2.103516 -0.887623
v 0.565784 1.781879 -0.867630
v 0.000273 1.593769 -0.915659
v 0.084677 1.226999 3.229799
v 0.172094 1.617206 3.043034
v 0.443986 1.034271 1.269586
v 0.500001 2.376844 0.889558
v 0.175772 0.859399 2.949346
v 0.609937 1.630851 0.880281
v -0.010658 0.989505 1.123195
v -0.000045 2.487348 0.979386
v 0.059274 0.844594 3.381248
v 0.033850 1.001564 3.449589
v 0.047665 0.799605 3.269773
v 0.570340 2.528199 1.239684
v 0.537280 0.439984 1.619464
v -0.007343 0.941747 1.474178
v 0.003811 2.648899 1.345335
v 0.118300 1.436589 3.225851
v 0.136209 0.834606 3.063605
v 0.177045 1.797234 2.822459
v 0.583003 2.528340 1.435916
v 0.443344 0.438501 1.680076
v -0.004705 0.980164 1.620287
v 0.001774 2.654156 1.544468
v 0.190837 0.891932 2.833238
v 0.177045 1.911771 2.650453
v 0.177045 0.929174 2.691316
v 0.540207 2.469419 1.719261
v 0.658485 1.818253 1.774000
v 0.538924 1.116855 2.027122
v -0.001599 1.072543 1.785748
v 0.000039 2.587723 1.817999
v 0.181751 2.060808 2.401487
v 0.181751 1.080401 2.331290
v 0.453433 2.246538 2.003840
v 0.552740 1.610152 1.935135
v 0.453382 1.351999 1.954425
v -0.000619 1.154282 1.920458
v 0.000000 2.337340 2.103198
v 0.227127 2.303801 2.070494
v 0.227094 1.244443 1.939402
v 0.271600 2.554620 1.765669
v 0.350291 1.080997 1.794399
v 0.364925 2.003410 2.356606
v 0.444879 1.430814 2.323086
v 0.364925 1.132179 2.272225
v -0.000000 1.046030 2.344188
v -0.000000 2.090076 2.404189
v 0.293591 2.618822 1.479477
v 0.293509 1.060089 1.689841
v 0.287261 2.616247 1.276950
v 0.355746 1.862891 2.607571
v 0.433703 1.376827 2.609288
v 0.355746 0.976242 2.639273
v -0.000000 0.902123 2.678916
v -0.000000 1.938206 2.638258
v 0.286801 1.069463 1.671617
v 0.250990 2.456718 0.911335
v 0.309017 1.043401 1.439125
v 0.372539 1.615297 2.782497
v 0.455708 1.406346 2.753892
v 0.382651 0.941763 2.787935
v -0.000000 0.865502 2.816107
v -0.000000 1.825439 2.802794
v 0.250250 1.662222 -0.899793
v 0.203184 2.105304 -0.851405
v 0.332254 1.363455 -0.780963
v 0.241143 1.409108 3.173450
v 0.339854 1.167662 3.074239
v 0.276080 0.871347 3.025366
v -0.000000 0.824225 3.028468
v -0.000000 1.460014 3.196609
v 0.249362 2.262699 -0.660114
v 0.292400 1.183433 -0.557700
v 0.307100 2.557411 0.094008
v 0.069124 1.002257 3.427400
v 0.125993 0.860155 3.343593
v 0.103346 0.825601 3.266824
v -0.000000 0.789384 3.278609
v 0.064203 0.950358 3.432832
v -0.000000 0.834652 3.376646
v 0.465527 1.449278 2.841489
v -0.000000 0.841030 2.924763
v 0.353261 0.902909 2.906169
v 0.315445 0.915516 0.106211
v -0.000000 1.647899 3.019039
v 0.402860 1.582038 2.865596
v 0.267639 2.510685 0.480969
v -0.000000 1.229612 3.228931
v 0.269015 0.913258 0.636583
v 0.301360 2.452123 -0.392842
v 0.368373 1.059308 -0.325259
v 0.186642 0.864843 3.113353
v -0.000000 0.830563 3.108802
v 0.210413 1.013903 3.208928
v 0.175549 1.193464 3.206948
v 0.070240 0.816701 3.204573
v 0.067630 1.078050 3.352626
v 0.139993 0.835430 3.197078
v 0.161300 0.937881 3.275663
v -0.000000 1.086452 3.341308
v -0.000000 0.810193 3.189770
v 0.134901 1.067246 3.321734
v 0.611526 2.244505 0.987951
v 0.707700 1.609048 0.945396
v 0.640245 1.103784 1.292352
v 0.671994 2.394911 1.230032
v 0.785239 1.591648 1.448913
v 0.799122 1.105428 1.738926
v 0.636693 2.421625 1.417561
v 0.799135 1.689829 1.596557
v 0.810501 1.118436 1.918379
v 0.641480 2.279243 1.585621
v 0.751800 1.806134 1.747439
v 0.743413 1.157570 2.040631
v 0.422610 0.656443 1.559218
v 0.520409 0.679417 1.481768
v 0.740162 0.705178 2.017524
v 0.590274 0.683913 2.064302
v 0.789747 0.681713 1.899508
v 0.403237 0.633973 1.794117
v 0.781331 0.677304 1.768116
v 0.664565 0.698975 1.476287
v 0.408091 0.635101 1.925119
v 0.451873 0.664810 1.999505
v 0.751922 0.479361 1.987791
v 0.603892 0.478946 2.032449
v 0.539500 -0.019877 1.603580
v 0.802577 0.463208 1.897789
v 0.421634 0.441929 1.814886
v 0.424514 -0.018625 1.662052
v 0.791062 0.451911 1.796818
v 0.674881 0.445138 1.622879
v 0.423078 0.455315 1.930029
v 0.466343 0.471390 2.000625
v 0.440713 0.243450 1.649187
v 0.544506 0.241266 1.594331
v 0.781178 0.276330 1.929730
v 0.619461 0.278253 1.970984
v 0.800918 0.260788 1.847233
v 0.422711 0.248697 1.771758
v 0.790567 0.249664 1.755351
v 0.697391 0.242674 1.597533
v 0.425856 0.261369 1.876854
v 0.469949 0.275015 1.941529
v 0.828362 -0.007675 1.960914
v 0.622014 -0.009506 2.002905
v 0.659719 -0.012270 1.879432
v 0.824609 -0.011304 1.873244
v 0.404625 -0.016318 1.792691
v 0.648657 -0.017152 1.773010
v 0.814592 -0.016914 1.776145
v 0.708959 -0.019352 1.607271
v 0.410376 -0.010183 1.903642
v 0.428938 -0.007745 1.972429
v 0.430161 0.117678 1.656865
v 0.416520 0.132804 1.892334
v 0.410935 0.122415 1.783702
v 0.805847 0.122346 1.767357
v 0.815548 0.132087 1.862669
v 0.799331 0.198270 1.944921
v 0.624187 0.195896 1.990527
v 0.704904 0.116249 1.603695
v 0.541227 0.115317 1.600215
v 0.460729 0.197231 1.956138
v 0.621130 0.106120 2.130105
v 0.621945 -0.011729 2.138898
v 0.798073 -0.009984 2.096501
v 0.459343 -0.010478 2.107918
v 0.791241 0.108531 2.088163
v 0.464070 0.108046 2.098933
v 0.760759 2.279842 -0.266793
v 0.791892 1.746014 -0.086828
v 0.774149 1.160175 -0.325541
v 0.751579 2.216342 -0.505037
v 0.863088 1.788143 -0.571232
v 0.820786 1.286876 -0.552681
v 0.742959 2.101872 -0.707440
v 0.842715 1.805039 -0.788415
v 0.751515 1.437218 -0.780078
v 0.608724 0.455676 -1.382748
v 0.535197 1.169732 -0.968575
v 0.646771 0.930408 -0.410717
v 0.450200 0.939219 -0.471004
v 0.390388 1.039340 -0.709658
v 0.423282 1.146726 -0.927040
v 0.812737 1.057230 -0.704870
v 0.757881 1.154425 -0.934599
v 0.774992 0.962598 -0.481340
v 0.553717 1.007166 -0.992567
v 0.651077 0.534932 -0.764112
v 0.472256 0.592851 -0.796073
v 0.419966 0.818891 -0.870006
v 0.451555 0.977968 -0.969190
v 0.805065 0.805041 -0.858043
v 0.756578 0.981360 -0.967758
v 0.768587 0.598372 -0.784474
v 0.553237 0.664981 -1.495638
v 0.670206 0.268810 -1.263785
v 0.415415 0.308671 -1.303282
v 0.404341 0.477020 -1.402068
v 0.439357 0.635349 -1.482034
v 0.833046 0.466650 -1.390343
v 0.778889 0.635372 -1.481136
v 0.836895 0.313260 -1.296007
v 0.830725 0.433403 -1.107546
v 0.400132 0.596248 -1.209052
v 0.435121 0.752840 -1.290078
v 0.409263 0.430138 -1.114229
v 0.663991 0.388118 -1.080095
v 0.549005 0.782546 -1.303235
v 0.774658 0.752855 -1.288475
v 0.787103 0.269273 -1.131391
v 0.792634 0.198089 -1.218588
v 0.662161 0.153321 -1.187596
v 0.462846 0.192268 -1.226564
v 0.457295 0.262107 -1.140056
v 0.656668 0.226820 -1.098716
v 0.793651 0.705089 -1.013396
v 0.434507 0.714658 -1.021790
v 0.650675 0.502619 -0.911371
v 0.760058 0.549082 -0.936519
v 0.464307 0.861046 -1.086982
v 0.483764 0.545573 -0.942370
v 0.559798 0.887967 -1.098826
v 0.748825 0.861473 -1.085780
v -0.000000 1.964712 -0.963352
v -0.000000 1.715167 -1.003691
v 0.092498 1.734608 -0.967647
v 0.076591 1.955334 -0.937061
v 0.127925 1.728823 -0.919094
v 0.088882 2.048142 -0.898695
v -0.000000 1.692332 -0.956154
v -0.000000 2.059583 -0.930772
v 0.353936 1.744109 2.705457
v 0.462452 1.327743 2.715810
v 0.346085 1.573059 2.994462
v 0.469988 1.301392 2.919402
v 0.431634 1.654720 2.821769
v 0.509515 1.638760 2.838613
v 0.472450 1.662003 2.838611
v 0.537234 1.602756 2.829084
v 0.536419 1.517251 2.799750
v 0.550043 1.560717 2.816015
v 0.514399 1.601012 2.874569
v 0.455471 1.611837 2.877455
v 0.486059 1.616621 2.879704
v 0.527030 1.526626 2.854339
v 0.527210 1.586291 2.869466
v 0.537319 1.557307 2.861079
v 0.372831 1.591782 2.867706
v 0.460350 1.406055 2.831785
v 0.490673 1.640427 2.885384
v 0.529939 1.618619 2.878785
v 0.447174 1.633631 2.882627
v 0.548145 1.597477 2.872174
v 0.562047 1.557417 2.861179
v 0.548125 1.515868 2.851877
v 0.383871 1.567127 2.862855
v 0.450291 1.427532 2.835850
v 0.413090 1.566113 2.851326
v 0.458299 1.470571 2.833927
v 0.473111 1.591135 2.861513
v 0.493557 1.579947 2.857828
v 0.451044 1.587690 2.859882
v 0.502798 1.569380 2.854161
v 0.510091 1.548549 2.848131
v 0.502668 1.526553 2.843309
v 0.399391 1.555634 2.849394
v 0.447307 1.454847 2.829787
v 0.058900 1.013427 3.417147
v 0.055763 0.925949 3.427918
v 0.099802 1.015952 3.389093
v 0.095412 0.928216 3.400736
v -0.000000 0.926137 3.430963
v -0.000000 1.011036 3.420619
v 0.030579 0.949793 3.454341
v -0.000000 0.999717 3.448514
v -0.000000 0.949566 3.453729
v -0.545978 1.198863 0.596574
v -0.532679 2.433776 0.473538
v -0.602179 1.177842 0.070914
v -0.619472 2.369465 -0.232302
v -0.708445 1.771878 0.086807
v -0.615406 1.149135 0.303790
v -0.609568 2.455419 0.117872
v -0.653183 1.757402 0.514724
v -0.718934 1.781758 0.181487
v -0.820461 0.215708 -0.190581
v -0.537649 2.227322 -0.534363
v -0.464302 1.196272 -0.604145
v -0.464300 2.031334 -0.747948
v -0.090363 0.834521 3.149887
v -0.561873 1.604779 -0.793539
v -0.084677 1.226999 3.229799
v -0.172094 1.617213 3.043034
v -0.476860 1.320144 0.966402
v -0.501722 2.383438 0.889785
v -0.175772 0.859399 2.949346
v -0.619524 1.735959 0.849729
v -0.059274 0.844594 3.381248
v -0.033850 1.001564 3.449589
v -0.047665 0.799605 3.269773
v -0.568110 2.549011 1.239714
v -0.570445 0.804125 0.815620
v -0.118300 1.436589 3.225851
v -0.136209 0.834606 3.063605
v -0.177045 1.797235 2.822459
v -0.580563 2.551395 1.435949
v -0.474454 0.769971 0.861819
v -0.190837 0.891932 2.833238
v -0.177045 1.911771 2.650453
v -0.177045 0.929174 2.691316
v -0.540888 2.485950 1.719296
v -0.684128 1.848341 1.705037
v -0.566291 1.023830 1.668024
v -0.181751 2.060808 2.401487
v -0.181751 1.080401 2.331291
v -0.456643 2.248013 2.016997
v -0.562107 1.577122 1.901297
v -0.462465 1.299132 1.884196
v -0.227553 2.303957 2.070497
v -0.231546 1.215291 1.898272
v -0.270860 2.555874 1.765667
v -0.364882 1.049819 1.614463
v -0.364925 2.003410 2.356606
v -0.445839 1.421733 2.320943
v -0.364925 1.132179 2.272226
v -0.287587 2.624877 1.479461
v -0.310086 1.058558 1.499737
v -0.280733 2.623091 1.276934
v -0.355746 1.862891 2.607570
v -0.433703 1.376830 2.609292
v -0.355746 0.976244 2.639281
v -0.316808 1.133777 1.370640
v -0.251326 2.457454 0.911338
v -0.342998 1.223815 1.125281
v -0.372539 1.615296 2.782497
v -0.455708 1.406361 2.753903
v -0.382651 0.941766 2.787942
v -0.248972 1.601480 -0.879203
v -0.203268 2.085072 -0.852274
v -0.324447 1.172347 -0.577426
v -0.241143 1.409121 3.173455
v -0.339854 1.167662 3.074239
v -0.276080 0.871347 3.025366
v -0.249692 2.240844 -0.666389
v -0.282534 1.107681 -0.326920
v -0.307155 2.557766 0.092761
v -0.069124 1.002257 3.427400
v -0.125993 0.860155 3.343593
v -0.103346 0.825601 3.266824
v -0.064203 0.950358 3.432832
v -0.465527 1.449313 2.841506
v -0.353261 0.902909 2.906169
v -0.309638 1.028699 0.240289
v -0.402860 1.582110 2.865604
v -0.267629 2.510747 0.480969
v -0.277952 1.074760 0.597256
v -0.301735 2.444896 -0.400806
v -0.356849 1.078112 -0.027455
v -0.186642 0.864843 3.113353
v -0.210413 1.013903 3.208928
v -0.175549 1.193464 3.206948
v -0.070240 0.816701 3.204573
v -0.067630 1.078050 3.352626
v -0.139993 0.835430 3.197078
v -0.161300 0.937881 3.275663
v -0.134901 1.067246 3.321734
v -0.619290 2.283957 0.990477
v -0.720076 1.733729 0.896609
v -0.676029 1.437488 0.993550
v -0.676508 2.440295 1.238849
v -0.814626 1.785512 1.307256
v -0.836691 1.239324 1.325688
v -0.640158 2.451654 1.420434
v -0.828398 1.820987 1.478019
v -0.847787 1.139009 1.474783
v -0.653118 2.321141 1.604084
v -0.779743 1.854125 1.671424
v -0.777823 1.080232 1.624171
v -0.459955 1.003568 0.912825
v -0.558071 1.067470 0.866130
v -0.773087 0.752000 1.291225
v -0.621726 0.701990 1.325396
v -0.823307 0.807202 1.184539
v -0.437540 0.842495 1.076401
v -0.815648 0.886892 1.079552
v -0.701594 1.087073 0.868840
v -0.439884 0.750332 1.190789
v -0.482177 0.713426 1.288523
v -0.774044 0.589249 1.124980
v -0.624902 0.568044 1.159947
v -0.549282 0.468933 0.516162
v -0.826536 0.630406 1.044915
v -0.448262 0.688334 0.968344
v -0.432135 0.438815 0.560690
v -0.817829 0.685828 0.959649
v -0.707887 0.797569 0.821156
v -0.446727 0.625113 1.066037
v -0.488514 0.590081 1.130841
v -0.462366 0.640747 0.715688
v -0.568018 0.667121 0.671461
v -0.792569 0.462945 0.951814
v -0.629587 0.446541 0.985403
v -0.814566 0.503297 0.878196
v -0.439781 0.567559 0.813512
v -0.807426 0.554610 0.799941
v -0.720503 0.655921 0.674146
v -0.439635 0.509069 0.902632
v -0.481962 0.474341 0.960989
v -0.822682 0.218035 0.782507
v -0.614687 0.199289 0.808912
v -0.657833 0.282731 0.720648
v -0.822696 0.276919 0.718315
v -0.406876 0.355499 0.658826
v -0.651175 0.351917 0.643114
v -0.816605 0.338730 0.645168
v -0.718231 0.455552 0.518809
v -0.408107 0.284554 0.742334
v -0.423656 0.236970 0.792210
v -0.444862 0.540834 0.643039
v -0.422225 0.399683 0.832036
v -0.420690 0.463776 0.742909
v -0.815393 0.447967 0.729000
v -0.821602 0.392440 0.808061
v -0.805404 0.389064 0.913395
v -0.628087 0.361221 0.946334
v -0.721087 0.555375 0.600373
v -0.557877 0.567938 0.597711
v -0.467022 0.403374 0.922064
v -0.613751 0.191638 0.981488
v -0.608281 0.101000 0.902706
v -0.786153 0.122222 0.875614
v -0.447647 0.136568 0.884334
v -0.785701 0.214480 0.954534
v -0.458829 0.229567 0.963276
v -0.762347 2.230296 -0.301692
v -0.786891 1.765652 0.001625
v -0.762369 1.191757 -0.008247
v -0.752301 2.100172 -0.517233
v -0.858106 1.660031 -0.472736
v -0.810136 1.182257 -0.266349
v -0.742124 1.939991 -0.690600
v -0.837783 1.608741 -0.692327
v -0.742130 1.195782 -0.543756
v -0.603201 -0.011821 -0.162122
v -0.522605 0.848092 -0.572308
v -0.633140 0.977555 0.036110
v -0.436445 0.948024 -0.029905
v -0.377047 0.895678 -0.288802
v -0.410505 0.853644 -0.526333
v -0.799878 0.910439 -0.277299
v -0.745359 0.856679 -0.531081
v -0.761578 0.964368 -0.037479
v -0.538938 0.646458 -0.500794
v -0.639651 0.552864 0.059365
v -0.460474 0.554300 -0.007715
v -0.406354 0.606795 -0.246611
v -0.436823 0.639592 -0.460022
v -0.791525 0.614051 -0.229091
v -0.741853 0.644855 -0.461343
v -0.756645 0.569091 -0.007745
v -0.546324 -0.014094 -0.399598
v -0.665783 0.006446 0.058335
v -0.410887 -0.012804 0.006123
v -0.398754 -0.021308 -0.188825
v -0.432670 -0.017316 -0.366370
v -0.827443 -0.010727 -0.176718
v -0.772165 -0.012485 -0.367987
v -0.832225 0.000775 0.002974
v -0.823307 0.223436 -0.014751
v -0.391772 0.205015 -0.203611
v -0.425688 0.207279 -0.380117
v -0.401969 0.211005 -0.012498
v -0.656866 0.224477 0.039106
v -0.539342 0.210937 -0.413199
v -0.765183 0.212730 -0.381394
v -0.781646 0.124983 0.119276
v -0.788617 0.014681 0.141258
v -0.658402 0.019545 0.196107
v -0.458983 0.000994 0.144623
v -0.452012 0.110053 0.123507
v -0.651430 0.132418 0.172863
v -0.782575 0.433518 -0.210320
v -0.423350 0.425326 -0.222059
v -0.640925 0.423734 0.016330
v -0.750040 0.426592 -0.036752
v -0.451769 0.437993 -0.390704
v -0.473819 0.415568 -0.035214
v -0.547006 0.442409 -0.422370
v -0.736252 0.442441 -0.392012
v -0.092420 1.729186 -0.965705
v -0.076591 1.955334 -0.937061
v -0.127604 1.707938 -0.913949
v -0.088882 2.048142 -0.898695
v -0.353936 1.744109 2.705457
v -0.462452 1.327752 2.715820
v -0.346085 1.573079 2.994464
v -0.469988 1.301403 2.919411
v -0.431634 1.654814 2.821762
v -0.509515 1.638923 2.838609
v -0.472450 1.662157 2.838598
v -0.537234 1.602935 2.829096
v -0.536419 1.517352 2.799782
v -0.550043 1.560852 2.816041
v -0.514399 1.601150 2.874579
v -0.455471 1.611965 2.877461
v -0.486059 1.616759 2.879709
v -0.527030 1.526736 2.854368
v -0.527210 1.586428 2.869481
v -0.537319 1.557436 2.861102
v -0.372831 1.591808 2.867708
v -0.460350 1.406075 2.831797
v -0.490673 1.640581 2.885380
v -0.529939 1.618776 2.878790
v -0.447174 1.633757 2.882626
v -0.548145 1.597632 2.872186
v -0.562047 1.557554 2.861203
v -0.548125 1.515982 2.851910
v -0.383871 1.567201 2.862867
v -0.450291 1.427553 2.835862
v -0.413090 1.566194 2.851338
v -0.458299 1.470600 2.833940
v -0.473111 1.591253 2.861525
v -0.493557 1.580045 2.857841
v -0.451044 1.587817 2.859895
v -0.502798 1.569489 2.854177
v -0.510091 1.548670 2.848156
v -0.502668 1.526651 2.843335
v -0.399391 1.555706 2.849407
v -0.447307 1.454874 2.829800
v -0.058900 1.013427 3.417147
v -0.055763 0.925949 3.427918
v -0.099802 1.015952 3.389093
v -0.095412 0.928216 3.400736
v -0.030579 0.949793 3.454341
v 0.291561 1.198832 3.105898
v 0.306648 1.267600 3.118106
v 0.269728 1.198710 3.147826
v 0.232186 1.158524 3.147493
v 0.245906 1.202577 3.117568
v 0.291926 1.269990 3.099406
v 0.256597 1.269794 3.167248
v 0.210577 1.202381 3.185410
v 0.195855 1.204771 3.166710
v 0.232775 1.273661 3.136991
v 0.270316 1.313848 3.137323
v 0.210942 1.273540 3.178919
v 0.285805 1.192202 3.124132
v 0.307506 1.232694 3.106663
v 0.294673 1.232623 3.131308
v 0.307720 1.274520 3.102848
v 0.298852 1.234099 3.095672
v 0.263739 1.168581 3.123937
v 0.250905 1.168509 3.148581
v 0.271803 1.194475 3.106348
v 0.236903 1.170782 3.130797
v 0.272017 1.236301 3.102532
v 0.295019 1.300299 3.125135
v 0.286365 1.301704 3.114144
v 0.265254 1.233913 3.160193
v 0.286955 1.274405 3.142724
v 0.216138 1.170667 3.170673
v 0.238204 1.194288 3.170869
v 0.215548 1.197966 3.142092
v 0.207484 1.172072 3.159682
v 0.264299 1.278083 3.113948
v 0.237249 1.238458 3.124623
v 0.265600 1.301589 3.154020
v 0.230486 1.236070 3.182285
v 0.194783 1.197851 3.181968
v 0.207830 1.239748 3.153509
v 0.251598 1.303862 3.136235
v 0.230700 1.277896 3.178469
v 0.238764 1.303790 3.160880
v 0.203650 1.238272 3.189144
v 0.194997 1.239677 3.178153
v 0.216698 1.280169 3.160685
v -0.291561 1.198831 3.105898
v -0.306648 1.267600 3.118106
v -0.269728 1.198710 3.147826
v -0.232186 1.158524 3.147494
v -0.245906 1.202577 3.117569
v -0.291925 1.269990 3.099407
v -0.256597 1.269794 3.167248
v -0.210577 1.202381 3.185410
v -0.195854 1.204771 3.166711
v -0.232775 1.273661 3.136991
v -0.270316 1.313847 3.137323
v -0.210942 1.273540 3.178919
v -0.285805 1.192202 3.124132
v -0.307506 1.232694 3.106664
v -0.294673 1.232623 3.131308
v -0.307720 1.274520 3.102849
v -0.298852 1.234099 3.095673
v -0.263739 1.168581 3.123937
v -0.250905 1.168509 3.148582
v -0.271803 1.194475 3.106348
v -0.236903 1.170782 3.130797
v -0.272017 1.236301 3.102532
v -0.295019 1.300299 3.125135
v -0.286365 1.301704 3.114144
v -0.265254 1.233913 3.160193
v -0.286955 1.274405 3.142725
v -0.216137 1.170667 3.170673
v -0.238204 1.194288 3.170869
v -0.215548 1.197966 3.142092
v -0.207484 1.172071 3.159682
v -0.264299 1.278083 3.113948
v -0.237249 1.238458 3.124624
v -0.265599 1.301589 3.154020
v -0.230486 1.236070 3.182285
v -0.194782 1.197851 3.181968
v -0.207830 1.239748 3.153509
v -0.251597 1.303862 3.136235
v -0.230700 1.277896 3.178469
v -0.238764 1.303790 3.160880
v -0.203650 1.238272 3.189145
v -0.194997 1.239677 3.178153
v -0.216698 1.280169 3.160685
vn -0.8366 -0.5475 -0.0195
vn 0.2789 0.8470 -0.4525
vn 0.9887 -0.1296 -0.0749
vn 0.9893 0.1448 -0.0198
vn 0.9654 0.1514 0.2124
vn 0.9791 -0.1302 0.1565
vn 0.9776 -0.1540 0.1436
vn 0.1131 -0.9812 0.1563
vn 0.1861 -0.9221 -0.3392
vn 0.0959 -0.9953 0.0098
vn 0.1083 0.9653 -0.2375
vn 0.1798 0.9720 0.1512
vn 0.1547 0.7738 -0.6142
vn 0.2120 -0.1317 -0.9683
vn 0.1949 -0.8909 -0.4102
vn 0.6158 0.3126 0.7232
vn 0.1592 0.2267 -0.9609
vn 0.0937 -0.2518 -0.9632
vn 0.2145 0.3397 -0.9158
vn 0.3376 -0.7960 -0.5024
vn 0.8401 0.5424 0.0116
vn 0.9971 -0.0452 -0.0610
vn 0.1536 0.9798 0.1284
vn 0.9834 0.1486 0.1046
vn 0.3187 -0.5724 -0.7555
vn 0.1126 0.9934 -0.0206
vn 0.0057 0.9156 -0.4021
vn -0.6392 -0.4447 -0.6274
vn 0.6671 0.1271 -0.7341
vn 0.1646 0.9590 0.2308
vn -0.9701 -0.2346 0.0622
vn 0.9329 -0.0824 -0.3505
vn -0.0096 0.8076 -0.5896
vn 0.4325 0.1536 0.8885
vn -0.3852 -0.3562 0.8513
vn -0.0380 -0.9903 0.1333
vn 0.0491 -0.9665 -0.2520
vn -0.0447 -0.9982 0.0403
vn 0.0899 0.0207 0.9957
vn 0.7721 0.4808 -0.4155
vn 0.3332 0.9224 -0.1954
vn 0.9467 -0.3099 0.0881
vn 0.2916 -0.8633 -0.4120
vn 0.3063 0.9419 0.1376
vn 0.2081 0.7377 0.6423
vn 0.0273 0.8047 -0.5930
vn 0.8533 0.1387 0.5027
vn 0.4815 -0.5266 0.7005
vn 0.8044 0.1364 -0.5782
vn 0.1705 -0.3026 -0.9377
vn 0.9855 0.1443 0.0896
vn 0.9726 0.1170 -0.2008
vn 0.1716 0.7724 0.6115
vn 0.3032 -0.9526 -0.0256
vn 0.9425 0.1132 0.3144
vn 0.3047 0.9428 0.1355
vn 0.2950 0.9553 -0.0206
vn 0.9785 0.2027 0.0375
vn 0.2313 0.8793 -0.4164
vn 0.0773 0.8262 0.5580
vn 0.1319 -0.9140 -0.3836
vn 0.9749 -0.2190 -0.0400
vn 0.3262 0.9156 0.2350
vn 0.1169 0.8425 0.5259
vn -0.0007 0.6992 0.7149
vn 0.2647 -0.9521 0.1532
vn 0.8391 -0.2607 0.4775
vn 0.2122 -0.9688 -0.1278
vn 0.0917 -0.7286 0.6787
vn 0.1800 -0.9488 -0.2594
vn 0.9345 -0.2234 -0.2770
vn 0.0813 -0.9254 0.3702
vn 0.8717 -0.4626 0.1614
vn 0.3324 -0.9422 -0.0421
vn 0.2824 -0.9145 -0.2898
vn 0.3442 0.6929 0.6335
vn 0.3625 0.7246 0.5861
vn 0.7617 0.1138 0.6379
vn 0.4554 0.6720 0.5840
vn 0.1552 -0.9096 -0.3854
vn 0.1859 -0.9061 0.3800
vn 0.8837 0.0125 0.4678
vn 0.3521 0.8056 0.4764
vn 0.3843 0.5784 0.7195
vn 0.1217 -0.9788 -0.1647
vn 0.4144 0.6109 0.6746
vn 0.1593 -0.9524 -0.2599
vn 0.5346 0.0407 0.8441
vn 0.1479 -0.9652 -0.2158
vn 0.3937 -0.8703 0.2961
vn -0.3030 -0.3611 0.8819
vn -0.0092 0.7167 0.6973
vn 0.1789 -0.9501 -0.2555
vn 0.9702 -0.2418 0.0169
vn 0.0310 -0.5038 0.8633
vn 0.0512 0.7725 0.6329
vn 0.6302 0.0207 0.7762
vn 0.1441 -0.9614 -0.2342
vn -0.1346 0.0916 0.9867
vn 0.4460 0.7318 0.5154
vn 0.3334 0.0052 0.9428
vn 0.0463 -0.9977 0.0502
vn 0.3308 -0.9172 0.2221
vn 0.7809 -0.3263 0.5327
vn 0.4028 0.5484 0.7328
vn 0.1485 -0.9574 -0.2475
vn 0.8472 0.0934 0.5230
vn -0.0169 0.6277 0.7783
vn 0.2233 -0.9504 -0.2166
vn 0.8796 -0.3671 0.3025
vn 0.9490 -0.2052 -0.2395
vn 0.9844 0.1761 -0.0027
vn 0.9726 0.1170 -0.2009
vn 0.9546 0.2581 0.1485
vn 0.9973 -0.0174 -0.0712
vn 0.9395 0.1560 0.3048
vn 0.7631 0.2684 0.5879
vn 0.9059 0.3532 0.2338
vn -0.6783 0.0860 0.7297
vn 0.0046 0.3748 0.9271
vn 0.0373 -0.4974 -0.8667
vn 0.9021 0.0194 0.4310
vn -0.9841 -0.1341 -0.1163
vn -0.9957 -0.0873 0.0306
vn 0.9951 0.0452 -0.0884
vn 0.2992 -0.1177 0.9469
vn 0.8940 -0.0452 0.4459
vn -0.8748 0.0284 0.4836
vn 0.1599 -0.4396 -0.8838
vn -0.9532 -0.2909 -0.0826
vn 0.9225 -0.0400 0.3838
vn -0.9876 0.0332 -0.1535
vn -0.9996 -0.0156 0.0227
vn 0.9931 0.0209 -0.1150
vn 0.2578 -0.2479 0.9339
vn 0.8356 0.1334 -0.5329
vn -0.8476 -0.0584 0.5274
vn -0.3208 -0.0953 0.9424
vn -0.4789 -0.4615 -0.7468
vn 0.8856 -0.1264 -0.4470
vn 0.0216 -0.0254 -0.9994
vn 0.9935 0.1104 0.0275
vn -0.9879 0.0352 -0.1510
vn -0.9977 0.0476 0.0479
vn 0.9928 0.0553 -0.1062
vn 0.9772 0.1211 0.1745
vn 0.0197 0.1263 -0.9918
vn -0.8092 -0.1746 0.5610
vn -0.1890 -0.2936 0.9370
vn -0.5006 0.1162 -0.8579
vn -0.0020 -0.9998 0.0174
vn 0.0117 -0.9994 0.0321
vn -0.0014 -0.9987 0.0507
vn 0.0020 -0.9999 0.0140
vn -0.0091 -0.9996 0.0261
vn 0.0041 -0.9987 0.0511
vn -0.9199 0.1296 0.3701
vn -0.9795 0.1230 0.1594
vn -0.4540 -0.0157 -0.8909
vn 0.8492 0.0158 -0.5279
vn 0.8547 0.0397 -0.5177
vn -0.4609 -0.0225 -0.8872
vn -0.1967 0.2098 0.9578
vn -0.8549 0.1493 0.4968
vn 0.2422 0.2382 0.9405
vn 0.9878 0.1028 -0.1173
vn -0.9958 0.0859 0.0314
vn -0.9858 0.0756 -0.1502
vn 0.9766 0.1737 0.1270
vn 0.0214 -0.0473 -0.9987
vn 0.2351 0.0778 0.9689
vn -0.1896 0.0768 0.9789
vn 0.1241 0.8355 0.5352
vn 0.0058 -0.9999 -0.0160
vn -0.1004 0.8403 0.5327
vn -0.0054 -0.9998 -0.0176
vn 0.9846 0.1554 0.0799
vn 0.9556 -0.1546 -0.2508
vn 0.9861 -0.0835 0.1435
vn 0.9435 0.3024 -0.1355
vn 0.5986 -0.3617 0.7148
vn 0.4351 0.8554 -0.2810
vn 0.9853 -0.1105 0.1302
vn 0.2779 0.7908 -0.5453
vn -0.9696 -0.2039 0.1350
vn -0.3188 0.1421 -0.9371
vn -0.2882 -0.6518 0.7015
vn 0.9849 -0.1169 0.1275
vn 0.1411 0.4915 -0.8594
vn -0.4085 0.3771 -0.8312
vn -0.9238 -0.2326 -0.3042
vn -0.1246 -0.7210 0.6816
vn -0.2726 0.8181 -0.5063
vn -0.9441 -0.2882 0.1600
vn 0.9996 0.0256 0.0112
vn -0.9804 0.1575 -0.1183
vn 0.4715 -0.5774 0.6666
vn 0.1512 0.1735 -0.9732
vn 0.9698 0.0805 -0.2304
vn -0.9744 -0.0289 -0.2228
vn -0.0107 -0.5326 -0.8463
vn 0.0408 -0.5161 -0.8555
vn 0.0280 -0.4631 -0.8858
vn -0.0062 -0.4757 -0.8796
vn -0.9984 -0.0557 0.0080
vn 0.9423 -0.2549 0.2169
vn 0.1444 0.8460 -0.5132
vn 0.9622 0.2413 -0.1264
vn 0.9586 0.2843 -0.0168
vn 0.1494 0.8774 -0.4558
vn 0.3540 -0.7313 0.5830
vn -0.9548 -0.0118 0.2972
vn -0.9745 0.2226 0.0294
vn 0.9646 0.0413 0.2606
vn -0.2461 -0.7822 0.5723
vn -0.2833 0.8605 -0.4233
vn -0.2617 -0.7553 0.6008
vn 0.3815 -0.7023 0.6010
vn -0.1875 -0.1541 0.9701
vn 0.0504 -0.5438 -0.8377
vn 0.2416 -0.1627 0.9567
vn -0.0114 -0.5525 -0.8335
vn -0.3074 0.6420 -0.7024
vn -0.3117 -0.9200 0.2376
vn 0.9834 -0.1802 0.0237
vn -0.9785 0.0994 -0.1806
vn -0.9711 -0.2360 0.0351
vn 0.4607 -0.8597 0.2206
vn 0.1597 0.6748 -0.7205
vn 0.9666 0.1625 -0.1984
vn 0.3339 0.1516 -0.9303
vn 0.3444 -0.8574 -0.3824
vn 0.3507 0.3110 -0.8834
vn 0.2121 0.5074 -0.8352
vn 0.1915 -0.2054 -0.9598
vn 0.2734 0.1170 -0.9548
vn 0.9559 0.2922 0.0290
vn 0.9356 0.3052 0.1776
vn 0.9962 0.0794 -0.0356
vn 0.8972 0.3489 0.2708
vn -0.5815 0.7583 0.2946
vn 0.7633 0.6394 -0.0921
vn 0.8056 -0.5824 -0.1088
vn 0.5116 0.8410 0.1761
vn -0.2440 0.8729 0.4225
vn 0.9123 0.3561 -0.2023
vn 0.9422 -0.2329 -0.2408
vn 0.2535 0.2975 -0.9204
vn -0.0584 -0.2120 0.9755
vn 0.0315 -0.2468 0.9686
vn -0.0292 -0.2336 0.9719
vn 0.0071 -0.2680 0.9634
vn -0.0000 -0.2168 0.9762
vn 0.0388 -0.2798 0.9593
vn -0.0459 -0.2774 0.9597
vn 0.0442 -0.2072 0.9773
vn -0.0016 -0.2290 0.9734
vn 0.0074 -0.1898 0.9818
vn 0.1632 -0.5992 0.7838
vn -0.0299 -0.1988 0.9796
vn 0.2959 -0.5275 0.7963
vn -0.4091 0.1755 0.8954
vn -0.4121 -0.0610 0.9091
vn -0.1386 -0.5281 0.8378
vn 0.7292 0.2213 0.6475
vn -0.2059 -0.4761 0.8550
vn -0.5067 0.1323 0.8519
vn 0.0332 -0.5919 0.8053
vn 0.3193 0.7827 0.5343
vn 0.5296 -0.3396 0.7773
vn 0.5248 -0.4017 0.7505
vn -0.0292 0.0982 0.9947
vn 0.0200 -0.7157 0.6981
vn -0.0339 0.9376 0.3462
vn 0.7525 0.0303 0.6579
vn 0.8773 -0.4228 0.2273
vn -0.3803 0.7470 -0.5453
vn -0.9812 -0.1749 -0.0811
vn -0.9890 0.1445 -0.0324
vn -0.9608 0.1800 0.2110
vn -0.9675 -0.1344 0.2144
vn -0.9623 -0.2121 0.1704
vn -0.5392 -0.8057 0.2450
vn -0.3975 -0.9104 -0.1151
vn -0.3670 -0.9103 0.1913
vn -0.1145 0.9633 -0.2428
vn -0.1794 0.9721 0.1514
vn -0.3686 0.6400 -0.6741
vn -0.2568 -0.4188 -0.8710
vn -0.3077 -0.9231 -0.2306
vn -0.6887 0.4199 0.5911
vn -0.3217 0.1254 -0.9385
vn -0.1412 -0.5035 -0.8524
vn -0.2922 0.1337 -0.9470
vn -0.2155 -0.9177 -0.3338
vn -0.7794 0.6260 0.0265
vn -0.9970 -0.0056 -0.0775
vn -0.1518 0.9801 0.1275
vn -0.9791 0.1763 0.1011
vn -0.3497 -0.3521 -0.8682
vn -0.0910 0.9957 -0.0195
vn 0.0090 0.9129 -0.4080
vn 0.7127 0.1539 -0.6843
vn -0.6108 0.1972 -0.7668
vn -0.1542 0.9594 0.2363
vn 0.9585 -0.2265 -0.1730
vn -0.9247 0.1823 -0.3342
vn -0.0134 0.7950 -0.6064
vn -0.8598 -0.1928 0.4728
vn -0.0378 -0.7406 0.6709
vn -0.5148 -0.8483 0.1241
vn -0.3437 -0.9250 -0.1623
vn -0.3862 -0.9158 0.1107
vn -0.3382 -0.6653 0.6656
vn -0.7054 0.5531 -0.4433
vn -0.3305 0.9190 -0.2148
vn -0.9413 -0.3138 0.1239
vn -0.2501 -0.9224 -0.2942
vn -0.2948 0.9462 0.1335
vn -0.2062 0.7376 0.6430
vn -0.0916 0.7964 -0.5977
vn -0.8678 0.1170 0.4829
vn -0.4657 -0.0988 0.8794
vn -0.8349 0.1220 -0.5367
vn -0.3568 -0.4019 -0.8433
vn -0.9856 0.1438 0.0884
vn -0.9745 -0.0118 -0.2239
vn -0.1711 0.7723 0.6117
vn -0.5272 -0.8333 -0.1665
vn -0.9443 0.1027 0.3128
vn -0.2855 0.9492 0.1321
vn -0.2435 0.9697 -0.0219
vn -0.9785 0.2027 0.0375
vn -0.1949 0.8799 -0.4334
vn -0.0773 0.8262 0.5580
vn -0.1319 -0.9140 -0.3836
vn -0.9741 -0.2232 -0.0367
vn -0.2760 0.9290 0.2466
vn -0.1169 0.8425 0.5259
vn 0.0008 0.6992 0.7149
vn -0.3659 -0.9240 -0.1111
vn -0.8391 -0.2607 0.4775
vn -0.2122 -0.9688 -0.1278
vn -0.2304 -0.8037 0.5487
vn -0.1800 -0.9488 -0.2594
vn -0.9346 -0.2234 -0.2770
vn -0.1878 -0.9501 0.2490
vn -0.8717 -0.4626 0.1614
vn -0.3324 -0.9422 -0.0421
vn -0.1968 -0.9462 -0.2569
vn -0.3059 0.7060 0.6387
vn -0.3420 0.7252 0.5976
vn -0.7617 0.1138 0.6379
vn -0.4554 0.6720 0.5840
vn -0.1552 -0.9096 -0.3854
vn -0.1859 -0.9061 0.3800
vn -0.8837 0.0125 0.4678
vn -0.3521 0.8056 0.4764
vn -0.3843 0.5785 0.7195
vn -0.1217 -0.9788 -0.1647
vn -0.4144 0.6109 0.6746
vn -0.1593 -0.9524 -0.2599
vn -0.5346 0.0407 0.8441
vn -0.1479 -0.9652 -0.2158
vn -0.3937 -0.8703 0.2961
vn 0.3029 -0.3608 0.8821
vn 0.0092 0.7167 0.6973
vn -0.1789 -0.9501 -0.2555
vn -0.9702 -0.2418 0.0169
vn -0.0310 -0.5038 0.8633
vn -0.0512 0.7725 0.6329
vn -0.6302 0.0207 0.7762
vn -0.1441 -0.9614 -0.2342
vn 0.1346 0.0916 0.9867
vn -0.4460 0.7318 0.5153
vn -0.3334 0.0052 0.9428
vn -0.0463 -0.9977 0.0502
vn -0.3308 -0.9172 0.2221
vn -0.7809 -0.3263 0.5327
vn -0.4028 0.5484 0.7328
vn -0.1485 -0.9574 -0.2475
vn -0.8472 0.0934 0.5230
vn 0.0169 0.6277 0.7783
vn -0.2233 -0.9504 -0.2166
vn -0.8796 -0.3671 0.3025
vn -0.9390 -0.0706 -0.3365
vn -0.9682 0.2486 0.0290
vn -0.9412 0.1925 -0.2775
vn -0.9431 0.2892 0.1640
vn -0.9969 0.0328 -0.0709
vn -0.9450 -0.0000 0.3270
vn -0.6660 0.1973 0.7194
vn -0.8641 0.4446 0.2360
vn 0.2504 -0.7214 0.6456
vn -0.2573 -0.0701 0.9638
vn -0.0207 0.1755 -0.9843
vn -0.8933 -0.2946 0.3393
vn 0.9851 0.0063 -0.1716
vn 0.9988 -0.0410 -0.0262
vn -0.9975 0.0492 -0.0509
vn -0.3134 -0.7058 0.6353
vn -0.9061 -0.3110 0.2869
vn 0.7984 -0.5492 0.2469
vn 0.0543 0.3405 -0.9387
vn 0.9493 -0.2048 -0.2386
vn -0.9062 -0.3305 0.2639
vn 0.9778 0.1890 -0.0902
vn 0.9990 0.0415 0.0180
vn -0.9963 0.0196 -0.0838
vn -0.2213 -0.7871 0.5757
vn -0.8617 0.3822 -0.3338
vn 0.8805 -0.3754 0.2893
vn 0.2363 -0.7635 0.6010
vn 0.4872 0.1494 -0.8604
vn -0.8899 0.1612 -0.4268
vn -0.0616 0.6309 -0.7734
vn -0.9957 -0.0074 0.0925
vn 0.9773 0.1928 -0.0878
vn 0.9951 0.0696 0.0704
vn -0.9979 0.0455 -0.0456
vn -0.9732 -0.0995 0.2072
vn -0.0638 0.7221 -0.6888
vn 0.8408 -0.4277 0.3319
vn 0.2439 -0.7980 0.5511
vn 0.4626 0.6648 -0.5866
vn 0.0535 -0.7549 -0.6537
vn 0.0277 -0.7268 -0.6863
vn 0.0577 -0.7545 -0.6537
vn 0.0506 -0.7535 -0.6555
vn 0.0721 -0.7164 -0.6939
vn 0.0440 -0.7558 -0.6533
vn 0.9246 -0.0982 0.3680
vn 0.9783 0.0423 0.2030
vn 0.4159 0.6008 -0.6827
vn -0.8693 0.3024 -0.3909
vn -0.8759 0.3000 -0.3778
vn 0.4267 0.5735 -0.6993
vn 0.2327 -0.4146 0.8798
vn 0.8665 -0.1362 0.4803
vn -0.2262 -0.4132 0.8821
vn -0.9960 0.0857 -0.0263
vn 0.9899 0.1129 0.0854
vn 0.9735 0.2195 -0.0634
vn -0.9786 -0.0153 0.2051
vn -0.0581 0.5913 -0.8043
vn -0.1954 -0.6435 0.7401
vn 0.2315 -0.6217 0.7483
vn -0.1371 0.2014 0.9699
vn 0.0288 -0.6900 -0.7232
vn 0.0747 0.2211 0.9724
vn 0.0703 -0.6849 -0.7253
vn -0.9872 0.1555 0.0344
vn -0.9638 -0.2171 -0.1548
vn -0.9855 -0.0369 0.1659
vn -0.9504 0.2371 -0.2013
vn -0.5671 -0.0816 0.8196
vn -0.4806 0.7381 -0.4735
vn -0.9840 -0.0358 0.1746
vn -0.3836 0.6367 -0.6689
vn 0.9735 -0.0551 0.2220
vn 0.3530 -0.3269 -0.8767
vn 0.3362 0.0397 0.9410
vn -0.9876 -0.0013 0.1567
vn -0.1994 -0.0455 -0.9789
vn 0.2612 -0.1746 -0.9494
vn 0.9262 -0.3419 -0.1589
vn 0.2889 -0.2022 0.9358
vn 0.2776 -0.0669 -0.9584
vn 0.9421 -0.0049 0.3352
vn -0.9992 0.0337 -0.0233
vn 0.9811 -0.0423 -0.1887
vn -0.4960 0.0569 0.8664
vn -0.1818 -0.3128 -0.9322
vn -0.9760 -0.0706 -0.2059
vn 0.9810 -0.1379 -0.1362
vn -0.0016 -0.9973 0.0739
vn -0.0530 -0.9971 0.0547
vn -0.0398 -0.9992 -0.0063
vn -0.0057 -1.0000 0.0079
vn 0.9978 -0.0309 0.0589
vn -0.9433 0.0833 0.3213
vn -0.1392 -0.0550 -0.9887
vn -0.9605 0.0129 -0.2781
vn -0.9576 0.1254 -0.2592
vn -0.1482 -0.0356 -0.9883
vn -0.3548 0.1807 0.9173
vn 0.9562 0.2479 0.1559
vn 0.9785 0.1140 -0.1718
vn -0.9617 0.2620 0.0811
vn 0.2419 0.1416 0.9599
vn 0.2953 -0.0193 -0.9552
vn 0.2581 0.1737 0.9504
vn -0.3844 0.2064 0.8998
vn 0.1933 0.7825 0.5919
vn -0.0627 -0.9942 0.0875
vn -0.2359 0.7717 0.5905
vn -0.0009 -0.9952 0.0975
vn 0.3067 -0.3410 -0.8886
vn 0.3086 -0.2579 0.9155
vn -0.9855 -0.0526 0.1613
vn 0.9786 -0.1221 -0.1654
vn 0.9699 -0.0940 0.2245
vn -0.4716 -0.2347 0.8500
vn -0.1638 -0.3362 -0.9275
vn -0.9682 -0.0904 -0.2332
vn -0.3482 0.1459 -0.9260
vn -0.2842 -0.8349 -0.4714
vn -0.3507 0.3110 -0.8834
vn -0.2410 0.5471 -0.8016
vn -0.2124 -0.2236 -0.9512
vn -0.3463 0.0833 -0.9344
vn -0.9559 0.2922 0.0290
vn -0.9356 0.3052 0.1776
vn -0.9962 0.0794 -0.0356
vn -0.8972 0.3489 0.2708
vn 0.5822 0.7579 0.2942
vn -0.7633 0.6395 -0.0918
vn -0.8058 -0.5821 -0.1087
vn -0.5115 0.8410 0.1762
vn 0.2448 0.8727 0.4224
vn -0.9124 0.3558 -0.2022
vn -0.9423 -0.2328 -0.2408
vn -0.2534 0.2973 -0.9205
vn 0.0585 -0.2120 0.9755
vn -0.0316 -0.2463 0.9687
vn 0.0290 -0.2333 0.9720
vn -0.0071 -0.2676 0.9635
vn -0.0000 -0.2165 0.9763
vn -0.0389 -0.2794 0.9594
vn 0.0457 -0.2771 0.9597
vn -0.0442 -0.2072 0.9773
vn 0.0016 -0.2288 0.9735
vn -0.0075 -0.1898 0.9818
vn -0.1638 -0.5990 0.7838
vn 0.0299 -0.1987 0.9796
vn -0.2960 -0.5274 0.7964
vn 0.4094 0.1754 0.8953
vn 0.4121 -0.0608 0.9091
vn 0.1386 -0.5275 0.8382
vn -0.7292 0.2212 0.6476
vn 0.2056 -0.4758 0.8552
vn 0.5069 0.1323 0.8518
vn -0.0331 -0.5916 0.8056
vn -0.3193 0.7827 0.5343
vn -0.5296 -0.3396 0.7773
vn -0.5248 -0.4017 0.7505
vn 0.0292 0.0982 0.9947
vn -0.0200 -0.7157 0.6981
vn 0.0339 0.9376 0.3462
vn -0.7525 0.0303 0.6579
vn 0.8961 -0.4249 0.1284
vn 0.9975 0.0013 0.0707
vn 0.7307 -0.6824 -0.0175
vn 0.1099 -0.5817 -0.8059
vn 0.0413 -0.2861 -0.9573
vn 0.9363 0.2905 0.1975
vn 0.6878 -0.1612 0.7077
vn 0.3444 -0.7122 0.6116
vn -0.6069 -0.1527 -0.7800
vn -0.4208 0.1659 -0.8918
vn 0.7919 0.1547 0.5907
vn 0.5964 -0.1975 0.7780
vn -0.3952 -0.8973 0.1965
vn -0.6285 0.0013 -0.7778
vn -0.3576 0.3412 -0.8693
vn 0.4470 0.2328 0.8637
vn 0.2431 -0.0539 0.9685
vn -0.9975 -0.0013 -0.0707
vn -0.7601 0.2716 -0.5904
vn -0.4475 0.8640 -0.2305
vn -0.7307 0.6825 0.0175
vn -0.6821 0.6402 -0.3534
vn -0.6942 0.4180 -0.5859
vn -0.8961 0.4249 -0.1284
vn -0.8552 0.2665 -0.4446
vn -0.8798 0.1284 -0.4578
vn -0.7220 0.3262 0.6101
vn -0.7805 0.0608 0.6222
vn -0.1738 -0.1350 0.9755
vn -0.0413 0.2861 0.9573
vn 0.2534 0.0866 0.9635
vn 0.4174 0.0805 0.9052
vn -0.1099 0.5817 0.8059
vn 0.2535 0.4882 0.8351
vn 0.2197 0.7557 0.6169
vn -0.3444 0.7123 -0.6116
vn -0.4625 0.4384 -0.7707
vn -0.5848 0.3461 -0.7336
vn -0.6878 0.1612 -0.7077
vn -0.6976 0.0661 -0.7134
vn -0.7767 0.0285 -0.6292
vn -0.9363 -0.2905 -0.1975
vn -0.6272 -0.6627 0.4091
vn -0.0725 -0.4307 0.8996
vn 0.4208 -0.1659 0.8918
vn 0.5257 -0.1325 0.8403
vn 0.5343 -0.0372 0.8445
vn 0.6069 0.1527 0.7800
vn 0.6835 0.2524 0.6849
vn 0.5927 0.5601 0.5787
vn -0.5964 0.1975 -0.7780
vn -0.5257 0.1325 -0.8403
vn -0.5343 0.0371 -0.8445
vn -0.7919 -0.1547 -0.5907
vn -0.6835 -0.2524 -0.6849
vn -0.5928 -0.5601 -0.5787
vn 0.3576 -0.3413 0.8693
vn 0.4625 -0.4384 0.7707
vn 0.5848 -0.3461 0.7336
vn 0.6285 -0.0013 0.7778
vn 0.6976 -0.0661 0.7134
vn 0.7767 -0.0284 0.6292
vn 0.3952 0.8973 -0.1965
vn 0.6272 0.6627 -0.4091
vn 0.0725 0.4307 -0.8996
vn -0.2432 0.0539 -0.9685
vn -0.2534 -0.0866 -0.9635
vn -0.4174 -0.0804 -0.9052
vn -0.4471 -0.2328 -0.8637
vn -0.2535 -0.4883 -0.8350
vn -0.2197 -0.7557 -0.6169
vn 0.4475 -0.8640 0.2305
vn 0.6821 -0.6402 0.3534
vn 0.6942 -0.4180 0.5859
vn 0.1738 0.1350 -0.9755
vn 0.7805 -0.0607 -0.6222
vn 0.7220 -0.3262 -0.6101
vn 0.7601 -0.2716 0.5904
vn 0.8552 -0.2665 0.4446
vn 0.8798 -0.1284 0.4577
vn -0.8961 -0.4249 0.1284
vn -0.9975 0.0013 0.0707
vn -0.7307 -0.6825 -0.0175
vn -0.1099 -0.5817 -0.8059
vn -0.0413 -0.2861 -0.9573
vn -0.9363 0.2905 0.1975
vn -0.6878 -0.1612 0.7077
vn -0.3444 -0.7122 0.6116
vn 0.6069 -0.1527 -0.7800
vn 0.4208 0.1659 -0.8918
vn -0.7919 0.1547 0.5907
vn -0.5964 -0.1975 0.7780
vn 0.3952 -0.8973 0.1965
vn 0.6285 0.0013 -0.7778
vn 0.3576 0.3413 -0.8693
vn -0.4471 0.2327 0.8637
vn -0.2432 -0.0538 0.9685
vn 0.9975 -0.0013 -0.0707
vn 0.7601 0.2716 -0.5903
vn 0.4475 0.8640 -0.2305
vn 0.7307 0.6825 0.0175
vn 0.6822 0.6402 -0.3534
vn 0.6942 0.4180 -0.5859
vn 0.8961 0.4249 -0.1284
vn 0.8552 0.2665 -0.4445
vn 0.8798 0.1284 -0.4577
vn 0.7220 0.3262 0.6101
vn 0.7805 0.0608 0.6222
vn 0.1738 -0.1351 0.9755
vn 0.0413 0.2861 0.9573
vn -0.2534 0.0866 0.9635
vn -0.4174 0.0804 0.9052
vn 0.1099 0.5817 0.8059
vn -0.2535 0.4883 0.8350
vn -0.2197 0.7557 0.6169
vn 0.3444 0.7122 -0.6116
vn 0.4625 0.4384 -0.7707
vn 0.5848 0.3461 -0.7336
vn 0.6878 0.1612 -0.7077
vn 0.6976 0.0661 -0.7134
vn 0.7767 0.0284 -0.6292
vn 0.9363 -0.2905 -0.1975
vn 0.6272 -0.6627 0.4091
vn 0.0725 -0.4307 0.8996
vn -0.4208 -0.1660 0.8918
vn -0.5257 -0.1325 0.8403
vn -0.5343 -0.0371 0.8445
vn -0.6069 0.1527 0.7800
vn -0.6835 0.2524 0.6849
vn -0.5927 0.5602 0.5787
vn 0.5964 0.1975 -0.7780
vn 0.5257 0.1325 -0.8403
vn 0.5343 0.0371 -0.8445
vn 0.7919 -0.1547 -0.5907
vn 0.6835 -0.2524 -0.6849
vn 0.5927 -0.5602 -0.5787
vn -0.3576 -0.3412 0.8693
vn -0.4625 -0.4384 0.7707
vn -0.5848 -0.3461 0.7336
vn -0.6285 -0.0013 0.7778
vn -0.6976 -0.0661 0.7134
vn -0.7767 -0.0285 0.6292
vn -0.3952 0.8973 -0.1965
vn -0.6272 0.6627 -0.4091
vn -0.0725 0.4307 -0.8996
vn 0.2432 0.0539 -0.9685
vn 0.2534 -0.0866 -0.9635
vn 0.4174 -0.0804 -0.9052
vn 0.4471 -0.2328 -0.8637
vn 0.2535 -0.4883 -0.8350
vn 0.2197 -0.7557 -0.6169
vn -0.4475 -0.8640 0.2305
vn -0.6821 -0.6402 0.3534
vn -0.6942 -0.4180 0.5859
vn -0.1738 0.1350 -0.9755
vn -0.7805 -0.0607 -0.6222
vn -0.7220 -0.3262 -0.6101
vn -0.7601 -0.2716 0.5904
vn -0.8552 -0.2665 0.4446
vn -0.8798 -0.1284 0.4577
vt 0.833374 0.494548
vt 0.893919 0.512741
vt 0.908415 0.468160
vt 0.848637 0.467455
vt 0.567859 0.867914
vt 0.639317 0.828812
vt 0.620915 0.894044
vt 0.556155 0.927906
vt 0.812683 0.509803
vt 0.774909 0.642712
vt 0.751394 0.643294
vt 0.751725 0.493743
vt 0.828812 0.793372
vt 0.751727 0.811870
vt 0.672932 0.807420
vt 0.672336 0.642732
vt 0.672998 0.503429
vt 0.598676 0.643182
vt 0.594201 0.530171
vt 0.560191 0.672195
vt 0.619753 0.672998
vt 0.599703 0.594201
vt 0.569702 0.558226
vt 0.580250 0.833374
vt 0.635423 0.812683
vt 0.637090 0.751725
vt 0.569078 0.759035
vt 0.500000 0.859251
vt 0.500000 0.750726
vt 0.569078 0.758996
vt 0.500000 0.657595
vt 0.560191 0.671923
vt 0.604420 0.951058
vt 0.545714 0.976119
vt 0.604420 0.548422
vt 0.626365 0.643481
vt 0.688416 0.643970
vt 0.666902 0.547256
vt 0.500000 0.917421
vt 0.563590 0.893919
vt 0.639317 0.793372
vt 0.659328 0.642712
vt 0.676970 0.643370
vt 0.671449 0.761101
vt 0.555994 0.632181
vt 0.545714 0.747180
vt 0.604420 0.735145
vt 0.572975 0.538591
vt 0.666902 0.715601
vt 0.500000 0.969030
vt 0.572975 0.947229
vt 0.501290 0.830086
vt 0.457158 0.830118
vt 0.460328 0.806630
vt 0.500288 0.803578
vt 0.499838 0.512886
vt 0.460007 0.507514
vt 0.481582 0.413128
vt 0.510774 0.417065
vt 0.500000 0.559830
vt 0.556447 0.575135
vt 0.579931 0.796381
vt 0.599703 0.530171
vt 0.637090 0.643182
vt 0.659115 0.643738
vt 0.643940 0.535244
vt 0.564556 0.492909
vt 0.500000 0.477524
vt 0.500000 0.432743
vt 0.566016 0.447361
vt 0.569702 0.518348
vt 0.616981 0.429733
vt 0.594994 0.421068
vt 0.612448 0.796381
vt 0.637526 0.771615
vt 0.500000 0.371229
vt 0.561082 0.382998
vt 0.450625 0.491920
vt 0.495971 0.498202
vt 0.507939 0.406303
vt 0.474705 0.401699
vt 0.591615 0.535244
vt 0.575831 0.433451
vt 0.407144 0.499901
vt 0.406490 0.640437
vt 0.358675 0.605643
vt 0.363238 0.556600
vt 0.578790 0.420824
vt 0.621227 0.407144
vt 0.601979 0.363238
vt 0.551080 0.357545
vt 0.500000 0.657756
vt 0.500000 0.571782
vt 0.667216 0.508652
vt 0.621227 0.499901
vt 0.632756 0.407548
vt 0.666461 0.413961
vt 0.556577 0.771615
vt 0.637090 0.751727
vt 0.260484 0.580516
vt 0.278839 0.520364
vt 0.582070 0.278839
vt 0.540875 0.268345
vt 0.619753 0.672932
vt 0.500000 0.307117
vt 0.551080 0.314473
vt 0.500000 0.983839
vt 0.393435 0.816867
vt 0.325561 0.763148
vt 0.671449 0.517077
vt 0.635423 0.509803
vt 0.642381 0.470278
vt 0.671266 0.470798
vt 0.988807 0.740196
vt 1.002924 0.661469
vt 1.015365 0.669173
vt 1.001496 0.721513
vt 0.500000 0.531683
vt 0.500000 0.631036
vt 0.249130 0.712570
vt 0.191059 0.679456
vt 0.198981 0.567653
vt 0.945839 0.547256
vt 0.886123 0.529161
vt 0.904522 0.470747
vt 0.963512 0.471464
vt 0.500000 0.238897
vt 0.540875 0.239236
vt 0.564556 0.495971
vt 0.612448 0.579931
vt 0.628268 0.501290
vt 0.631115 0.457158
vt 0.168698 0.648799
vt 0.177283 0.553376
vt 0.539817 0.181283
vt 0.500000 0.184290
vt 0.500000 0.144817
vt 0.539817 0.140934
vt 0.580006 0.205473
vt 0.539817 0.196322
vt 0.205473 0.476864
vt 0.621491 0.393435
vt 0.538703 0.608225
vt 0.500000 0.615960
vt 0.500000 0.567098
vt 0.526605 0.560962
vt 0.566016 0.450625
vt 0.149293 0.452102
vt 0.133162 0.541160
vt 0.103583 0.505809
vt 0.123733 0.441345
vt 0.539531 0.141037
vt 0.579447 0.149293
vt 0.562090 0.123733
vt 0.530633 0.116366
vt 0.500000 0.385014
vt 0.500000 0.353218
vt 0.586057 0.174337
vt 0.542919 0.165879
vt 0.174337 0.464471
vt 0.086614 0.427976
vt 0.065909 0.448336
vt 0.053210 0.428901
vt 0.071388 0.423606
vt 0.515797 0.085531
vt 0.531484 0.086614
vt 0.523242 0.071388
vt 0.510720 0.071544
vt 0.500000 0.266808
vt 0.601979 0.325561
vt 0.582070 0.249130
vt 0.108290 0.599988
vt 0.073849 0.556649
vt 0.580006 0.679456
vt 0.539817 0.690304
vt 0.539817 0.657159
vt 0.579599 0.648799
vt 0.500000 0.199929
vt 0.513331 0.045311
vt 0.500000 0.046647
vt 0.500000 0.069896
vt 0.051602 0.475706
vt 0.038205 0.462176
vt 0.038356 0.442272
vt 0.580006 0.191059
vt 0.577833 0.599988
vt 0.554232 0.556649
vt 0.500000 0.147087
vt 0.500000 0.124516
vt 0.530339 0.475706
vt 0.515210 0.477146
vt 0.513246 0.460736
vt 0.522445 0.462176
vt 0.500000 0.170521
vt 0.515546 0.457928
vt 0.507613 0.457080
vt 0.506877 0.445401
vt 0.514439 0.446199
vt 0.500000 0.089031
vt 0.528336 0.053210
vt 0.620841 0.601238
vt 0.618568 0.607555
vt 0.613078 0.604170
vt 0.614718 0.599612
vt 0.500000 0.479371
vt 0.500000 0.460095
vt 0.513331 0.424258
vt 0.512541 0.440917
vt 0.500000 0.440864
vt 0.500000 0.422187
vt 0.500000 0.664242
vt 0.576432 0.505809
vt 0.539481 0.507406
vt 0.547321 0.467354
vt 0.500000 0.513551
vt 0.519044 0.508271
vt 0.579599 0.168698
vt 0.538703 0.096221
vt 0.577833 0.108290
vt 0.520322 0.097153
vt 0.500000 0.106427
vt 0.541975 0.104341
vt 0.078394 0.467354
vt 0.104341 0.437145
vt 0.073220 0.507406
vt 0.590300 0.643738
vt 0.499630 0.641384
vt 0.459655 0.640419
vt 0.417546 0.774144
vt 0.414448 0.641253
vt 0.423095 0.508652
vt 0.621491 0.816867
vt 0.648114 0.640437
vt 0.669097 0.641253
vt 0.644267 0.774144
vt 0.578790 0.496630
vt 0.601625 0.405151
vt 0.649402 0.433451
vt 0.651726 0.367843
vt 0.620780 0.366797
vt 0.454529 0.413961
vt 0.467814 0.368189
vt 0.488225 0.366596
vt 0.561691 0.421068
vt 0.537425 0.365401
vt 0.507200 0.363509
vt 0.481273 0.364028
vt 0.510983 0.366114
vt 0.635806 0.367147
vt 0.669092 0.368189
vt 0.420824 0.496630
vt 0.452865 0.405151
vt 0.558226 0.518348
vt 0.484328 0.324872
vt 0.502799 0.322553
vt 0.547406 0.321655
vt 0.519920 0.320969
vt 0.496410 0.322232
vt 0.523434 0.321439
vt 0.639292 0.324944
vt 0.675657 0.324872
vt 0.550036 0.367843
vt 0.558926 0.322330
vt 0.465216 0.366023
vt 0.604868 0.366023
vt 0.599660 0.365401
vt 0.621651 0.293283
vt 0.658462 0.293469
vt 0.659368 0.261742
vt 0.621257 0.261665
vt 0.501495 0.293600
vt 0.482345 0.307625
vt 0.480362 0.262732
vt 0.500191 0.261781
vt 0.519246 0.292376
vt 0.547742 0.292993
vt 0.548078 0.261464
vt 0.518571 0.260916
vt 0.494871 0.293528
vt 0.493332 0.261956
vt 0.522889 0.292587
vt 0.522344 0.260869
vt 0.451756 0.288897
vt 0.449773 0.262732
vt 0.656778 0.322330
vt 0.622394 0.322035
vt 0.481902 0.324350
vt 0.605664 0.324350
vt 0.599057 0.321655
vt 0.595403 0.548078
vt 0.621257 0.561263
vt 0.645824 0.523009
vt 0.590945 0.518571
vt 0.639859 0.470735
vt 0.648324 0.498544
vt 0.685407 0.500191
vt 0.686261 0.480362
vt 0.592251 0.493332
vt 0.659368 0.560446
vt 0.683143 0.522344
vt 0.596433 0.477757
vt 0.479829 0.307317
vt 0.477757 0.262636
vt 0.447168 0.262636
vt 0.449241 0.288588
vt 0.596679 0.292993
vt 0.595403 0.261464
vt 0.559686 0.293469
vt 0.560446 0.261742
vt 0.603589 0.307317
vt 0.640355 0.307779
vt 0.679739 0.307625
vt 0.677932 0.288897
vt 0.639680 0.289050
vt 0.639859 0.262967
vt 0.679465 0.262732
vt 0.604354 0.288588
vt 0.603287 0.262636
vt 0.679739 0.482345
vt 0.640355 0.473048
vt 0.639680 0.442459
vt 0.677932 0.451756
vt 0.679465 0.449773
vt 0.639859 0.440146
vt 0.603589 0.479829
vt 0.604354 0.449241
vt 0.603287 0.447168
vt 0.841501 0.761101
vt 0.796910 0.643370
vt 0.906455 0.644155
vt 0.894416 0.742499
vt 0.957194 0.643970
vt 0.829265 0.517077
vt 0.940741 0.715601
vt 0.671449 0.841501
vt 0.669190 0.894416
vt 0.849398 0.470798
vt 0.666902 0.940741
vt 0.909364 0.402088
vt 0.855378 0.389954
vt 0.592313 0.470184
vt 0.617524 0.471308
vt 0.621192 0.417417
vt 0.598226 0.414426
vt 0.598146 0.467455
vt 0.603540 0.389954
vt 0.643835 0.389418
vt 0.855424 0.393127
vt 0.905341 0.403681
vt 0.667620 0.471464
vt 0.947229 0.538591
vt 0.963044 0.470184
vt 0.580250 0.494548
vt 0.595712 0.312254
vt 0.621272 0.312916
vt 0.622837 0.264476
vt 0.597277 0.263453
vt 0.852894 0.313492
vt 0.849695 0.260671
vt 0.818572 0.260902
vt 0.821566 0.286829
vt 0.893654 0.314609
vt 0.853541 0.316407
vt 0.850246 0.263617
vt 0.890422 0.263754
vt 0.896415 0.312211
vt 0.936226 0.312254
vt 0.933075 0.263453
vt 0.893263 0.261490
vt 0.670148 0.393127
vt 0.666826 0.415674
vt 0.958612 0.415674
vt 0.958434 0.414426
vt 0.649700 0.837975
vt 0.635627 0.887710
vt 0.686058 0.890422
vt 0.687133 0.850246
vt 0.592375 0.849695
vt 0.589648 0.893263
vt 0.597277 0.933075
vt 0.622837 0.940554
vt 0.673628 0.933416
vt 0.822213 0.289744
vt 0.819123 0.263848
vt 0.672063 0.313364
vt 0.673628 0.264581
vt 0.936602 0.313364
vt 0.933416 0.264581
vt 0.941647 0.364922
vt 0.899640 0.363406
vt 0.623001 0.364960
vt 0.665562 0.364922
vt 0.668659 0.362549
vt 0.644119 0.361871
vt 0.647700 0.316485
vt 0.685132 0.316407
vt 0.859879 0.359936
vt 0.902447 0.361457
vt 0.941330 0.363919
vt 0.860378 0.362549
vt 0.606538 0.359936
vt 0.590374 0.313492
vt 0.601582 0.363919
vt 0.646474 0.289822
vt 0.601626 0.286829
vt 0.603191 0.260902
vt 0.648039 0.263334
vt 0.675760 0.289744
vt 0.677325 0.263848
vt 0.647700 0.841274
vt 0.590374 0.852894
vt 0.601626 0.821566
vt 0.646474 0.809945
vt 0.648039 0.806852
vt 0.603191 0.818572
vt 0.685132 0.853541
vt 0.675760 0.822213
vt 0.677325 0.819123
vt 0.500000 0.668378
vt 0.500000 0.724779
vt 0.517225 0.721513
vt 0.520785 0.669173
vt 0.528698 1.002924
vt 0.500000 1.014901
vt 0.500000 1.025182
vt 0.520785 1.015365
vt 0.500000 0.744181
vt 0.519989 0.740196
vt 0.519989 0.988807
vt 0.500000 0.995348
vt 0.500000 0.660499
vt 0.528698 0.661469
vt 0.154177 0.616909
vt 0.166410 0.570048
vt 0.135838 0.608740
vt 0.149154 0.567675
vt 0.147623 0.572395
vt 0.137518 0.603560
vt 0.583783 0.154177
vt 0.583848 0.135838
vt 0.600568 0.131366
vt 0.597073 0.144428
vt 0.144166 0.612314
vt 0.141084 0.620214
vt 0.132632 0.614576
vt 0.134671 0.609983
vt 0.153028 0.593819
vt 0.141399 0.592146
vt 0.619182 0.132632
vt 0.614588 0.141084
vt 0.606252 0.140479
vt 0.610351 0.130579
vt 0.138199 0.601250
vt 0.148213 0.603179
vt 0.602487 0.570048
vt 0.583783 0.616909
vt 0.597073 0.624463
vt 0.606252 0.625520
vt 0.614588 0.620214
vt 0.620822 0.612314
vt 0.623703 0.603179
vt 0.620639 0.593819
vt 0.604695 0.577238
vt 0.601269 0.572395
vt 0.603531 0.567675
vt 0.609313 0.614171
vt 0.615687 0.610750
vt 0.619182 0.614576
vt 0.610351 0.619358
vt 0.602434 0.613212
vt 0.600568 0.617961
vt 0.626402 0.601250
vt 0.623276 0.609983
vt 0.618527 0.594500
vt 0.623272 0.592146
vt 0.590602 0.606787
vt 0.583848 0.608740
vt 0.592903 0.603615
vt 0.603070 0.582298
vt 0.613048 0.594751
vt 0.610999 0.606475
vt 0.606401 0.608943
vt 0.601438 0.608251
vt 0.586331 0.603560
vt 0.600598 0.578805
vt 0.589822 0.601288
vt 0.148133 0.578805
vt 0.140843 0.601288
vt 0.522445 0.038205
vt 0.513246 0.032036
vt 0.507613 0.025182
vt 0.515546 0.030102
vt 0.521458 0.442272
vt 0.528336 0.428901
vt 0.500000 0.456702
vt 0.500000 0.445370
vt 0.500000 0.031689
vt 0.512541 0.032373
vt 0.506877 0.025742
vt 0.500000 0.025886
vt 0.500000 0.031337
vt 0.500000 0.025479
vt 0.030102 0.457928
vt 0.030515 0.446199
vt 0.432141 0.867914
vt 0.443845 0.927906
vt 0.379085 0.894044
vt 0.360683 0.828812
vt 0.439809 0.672195
vt 0.430298 0.558226
vt 0.400297 0.594201
vt 0.380247 0.672998
vt 0.419750 0.833374
vt 0.430922 0.759035
vt 0.362910 0.751725
vt 0.364577 0.812683
vt 0.430922 0.758996
vt 0.439809 0.671923
vt 0.454286 0.976119
vt 0.395580 0.951058
vt 0.395580 0.548422
vt 0.333098 0.547256
vt 0.311584 0.643970
vt 0.373635 0.643481
vt 0.436410 0.893919
vt 0.360683 0.793372
vt 0.328551 0.761101
vt 0.323030 0.643370
vt 0.340672 0.642712
vt 0.444006 0.632181
vt 0.395580 0.735145
vt 0.454286 0.747180
vt 0.427025 0.538591
vt 0.333098 0.715601
vt 0.427025 0.947229
vt 0.443553 0.575135
vt 0.400297 0.530171
vt 0.356060 0.535244
vt 0.340885 0.643738
vt 0.362910 0.643182
vt 0.435444 0.492909
vt 0.433984 0.447361
vt 0.430298 0.518348
vt 0.405006 0.421068
vt 0.383019 0.429733
vt 0.362474 0.771615
vt 0.387552 0.796381
vt 0.438918 0.382998
vt 0.421210 0.420824
vt 0.448920 0.357545
vt 0.398021 0.363238
vt 0.378773 0.407144
vt 0.332784 0.508652
vt 0.333539 0.413961
vt 0.367244 0.407548
vt 0.378773 0.499901
vt 0.362910 0.751727
vt 0.459125 0.268345
vt 0.417930 0.278839
vt 0.380247 0.672932
vt 0.448920 0.314473
vt 0.328551 0.517077
vt 0.328734 0.470798
vt 0.357619 0.470278
vt 0.364577 0.509803
vt 0.459125 0.239236
vt 0.435444 0.495971
vt 0.387552 0.579931
vt 0.371732 0.501290
vt 0.368885 0.457158
vt 0.460183 0.181283
vt 0.460183 0.140934
vt 0.460183 0.196322
vt 0.419994 0.205473
vt 0.378509 0.393435
vt 0.461297 0.608225
vt 0.473395 0.560962
vt 0.433984 0.450625
vt 0.460469 0.141037
vt 0.469367 0.116366
vt 0.437911 0.123733
vt 0.420553 0.149293
vt 0.457081 0.165879
vt 0.413943 0.174337
vt 0.484203 0.085531
vt 0.489280 0.071544
vt 0.476758 0.071388
vt 0.468516 0.086614
vt 0.398021 0.325561
vt 0.417930 0.249130
vt 0.419994 0.679456
vt 0.420401 0.648799
vt 0.460183 0.657159
vt 0.460183 0.690304
vt 0.486669 0.045311
vt 0.419994 0.191059
vt 0.422167 0.599988
vt 0.445768 0.556649
vt 0.469661 0.475706
vt 0.477555 0.462176
vt 0.486754 0.460736
vt 0.484790 0.477146
vt 0.484454 0.457928
vt 0.485561 0.446199
vt 0.493123 0.445401
vt 0.492387 0.457080
vt 0.471665 0.053210
vt 0.379159 0.601238
vt 0.385282 0.599612
vt 0.386922 0.604170
vt 0.381432 0.607555
vt 0.486669 0.424258
vt 0.487459 0.440917
vt 0.423568 0.505809
vt 0.452679 0.467354
vt 0.460520 0.507406
vt 0.480956 0.508271
vt 0.420401 0.168698
vt 0.422167 0.108290
vt 0.461297 0.096221
vt 0.479678 0.097153
vt 0.458025 0.104341
vt 0.378509 0.816867
vt 0.355733 0.774144
vt 0.330903 0.641253
vt 0.351886 0.640437
vt 0.398375 0.405151
vt 0.421210 0.496630
vt 0.379220 0.366797
vt 0.348274 0.367843
vt 0.350598 0.433451
vt 0.330908 0.368189
vt 0.364194 0.367147
vt 0.324343 0.324872
vt 0.360708 0.324944
vt 0.395132 0.366023
vt 0.400340 0.365401
vt 0.378349 0.293283
vt 0.378743 0.261665
vt 0.340632 0.261742
vt 0.341538 0.293469
vt 0.377606 0.322035
vt 0.343222 0.322330
vt 0.394336 0.324350
vt 0.400943 0.321655
vt 0.404597 0.548078
vt 0.409055 0.518571
vt 0.354176 0.523009
vt 0.378743 0.561263
vt 0.360141 0.470735
vt 0.313739 0.480362
vt 0.314593 0.500191
vt 0.351676 0.498544
vt 0.407749 0.493332
vt 0.316857 0.522344
vt 0.340632 0.560446
vt 0.403567 0.477757
vt 0.403321 0.292993
vt 0.404597 0.261464
vt 0.359645 0.307779
vt 0.396411 0.307317
vt 0.320262 0.307625
vt 0.322068 0.288897
vt 0.320535 0.262732
vt 0.360141 0.262967
vt 0.360320 0.289050
vt 0.396713 0.262636
vt 0.395646 0.288588
vt 0.320262 0.482345
vt 0.322068 0.451756
vt 0.360320 0.442459
vt 0.359645 0.473048
vt 0.360141 0.440146
vt 0.320535 0.449773
vt 0.395646 0.449241
vt 0.396411 0.479829
vt 0.396713 0.447168
vt 0.330810 0.894416
vt 0.328551 0.841501
vt 0.333098 0.940741
vt 0.407688 0.470184
vt 0.401774 0.414426
vt 0.378808 0.417417
vt 0.382476 0.471308
vt 0.356165 0.389418
vt 0.396460 0.389954
vt 0.401854 0.467455
vt 0.332380 0.471464
vt 0.419750 0.494548
vt 0.404289 0.312254
vt 0.402723 0.263453
vt 0.377163 0.264476
vt 0.378728 0.312916
vt 0.329852 0.393127
vt 0.333174 0.415674
vt 0.350300 0.837975
vt 0.312867 0.850246
vt 0.313942 0.890422
vt 0.364373 0.887710
vt 0.410353 0.893263
vt 0.407625 0.849695
vt 0.377163 0.940554
vt 0.402723 0.933075
vt 0.326372 0.933416
vt 0.326372 0.264581
vt 0.327937 0.313364
vt 0.376999 0.364960
vt 0.334438 0.364922
vt 0.331341 0.362549
vt 0.314868 0.316407
vt 0.352300 0.316485
vt 0.355881 0.361871
vt 0.409626 0.313492
vt 0.393462 0.359936
vt 0.398418 0.363919
vt 0.353526 0.289822
vt 0.351961 0.263334
vt 0.396809 0.260902
vt 0.398374 0.286829
vt 0.324240 0.289744
vt 0.322675 0.263848
vt 0.352300 0.841274
vt 0.353526 0.809945
vt 0.398374 0.821566
vt 0.409626 0.852894
vt 0.396809 0.818572
vt 0.351961 0.806852
vt 0.314868 0.853541
vt 0.324240 0.822213
vt 0.322675 0.819123
vt 0.479215 0.669173
vt 0.482775 0.721513
vt 0.471302 1.002924
vt 0.479215 1.015365
vt 0.480011 0.740196
vt 0.480011 0.988807
vt 0.471302 0.661469
vt 0.416217 0.154177
vt 0.402927 0.144428
vt 0.399432 0.131366
vt 0.416152 0.135838
vt 0.380819 0.132632
vt 0.389649 0.130579
vt 0.393748 0.140479
vt 0.385412 0.141084
vt 0.397513 0.570048
vt 0.379361 0.593819
vt 0.376297 0.603179
vt 0.379178 0.612314
vt 0.385412 0.620214
vt 0.393748 0.625520
vt 0.402927 0.624463
vt 0.416217 0.616909
vt 0.395305 0.577238
vt 0.396469 0.567675
vt 0.398731 0.572395
vt 0.390687 0.614171
vt 0.389649 0.619358
vt 0.380819 0.614576
vt 0.384313 0.610750
vt 0.397566 0.613212
vt 0.399432 0.617961
vt 0.376724 0.609983
vt 0.373598 0.601250
vt 0.376728 0.592146
vt 0.381473 0.594500
vt 0.409398 0.606787
vt 0.416152 0.608740
vt 0.407098 0.603615
vt 0.398562 0.608251
vt 0.393599 0.608943
vt 0.389001 0.606475
vt 0.386952 0.594751
vt 0.396930 0.582298
vt 0.413669 0.603560
vt 0.399402 0.578805
vt 0.410178 0.601288
vt 0.477555 0.038205
vt 0.484454 0.030102
vt 0.492387 0.025182
vt 0.486754 0.032036
vt 0.478542 0.442272
vt 0.471665 0.428901
vt 0.493123 0.025742
vt 0.487459 0.032373
vt 0.181819 0.000000
vt 0.227273 0.078731
vt 0.136365 0.078731
vt 0.272728 0.157461
vt 0.318182 0.078731
vt 0.363637 0.157461
vt 0.909091 0.000000
vt 0.954545 0.078731
vt 0.863636 0.078731
vt 0.727273 0.000000
vt 0.772727 0.078731
vt 0.681818 0.078731
vt 0.545455 0.000000
vt 0.590909 0.078731
vt 0.500000 0.078731
vt 0.318182 0.236191
vt 0.090910 0.157461
vt 0.181819 0.157461
vt 0.136365 0.236191
vt 0.818182 0.157461
vt 0.909091 0.157461
vt 0.863636 0.236191
vt 0.636364 0.157461
vt 0.727273 0.157461
vt 0.681818 0.236191
vt 0.454546 0.157461
vt 0.545455 0.157461
vt 0.500000 0.236191
vt 0.227273 0.236191
vt 0.045455 0.236191
vt 0.772727 0.236191
vt 0.590909 0.236191
vt 0.409092 0.236191
vt 0.181819 0.314921
vt 0.272728 0.314921
vt 0.227273 0.393651
vt 0.000000 0.314921
vt 0.090910 0.314921
vt 0.045455 0.393651
vt 0.727273 0.314921
vt 0.818182 0.314921
vt 0.772727 0.393651
vt 0.545455 0.314921
vt 0.636364 0.314921
vt 0.590909 0.393651
vt 0.363637 0.314921
vt 0.454546 0.314921
vt 0.409092 0.393651
vt 0.500000 0.393651
vt 0.454546 0.472382
vt 0.681818 0.393651
vt 0.636364 0.472382
vt 0.863636 0.393651
vt 0.818182 0.472382
vt 0.909091 0.314921
vt 0.136365 0.393651
vt 0.090910 0.472382
vt 0.318182 0.393651
vt 0.272728 0.472382
vt 0.954545 0.236191
vt 1.000000 0.157461
vt 0.409092 0.078731
vt 0.363637 0.000000
s 1
f 116/1/1 98/2/1 209/3/1 208/4/1
f 115/5/2 4/6/2 17/7/2 97/8/2
f 3/9/3 7/10/3 13/11/3 8/12/3
f 7/10/4 4/13/4 9/14/4 13/11/4
f 13/11/5 9/14/5 2/15/5 10/16/5
f 8/12/6 13/11/6 10/16/6 1/17/6
f 1/17/7 10/16/7 32/18/7 29/19/7
f 114/20/8 1/21/8 29/22/8 83/23/8
f 116/24/9 3/25/9 8/26/9 109/27/9
f 109/27/10 8/26/10 1/21/10 114/20/10
f 115/5/11 6/28/11 15/29/11 99/30/11
f 99/30/12 15/29/12 12/31/12 112/32/12
f 97/8/13 17/7/13 21/33/13 90/34/13
f 20/35/14 25/36/14 203/37/14 204/38/14
f 116/24/15 5/28/15 18/39/15 98/40/15
f 4/41/16 7/42/16 197/43/16 196/44/16
f 89/45/17 90/46/17 21/47/17 25/36/17
f 91/48/18 89/45/18 25/36/18 20/35/18
f 25/36/19 21/47/19 202/49/19 203/37/19
f 98/40/20 18/39/20 23/50/20 91/51/20
f 38/52/21 45/53/21 134/54/21 131/55/21
f 133/56/22 136/57/22 144/58/22 146/59/22
f 112/32/23 12/31/23 34/60/23 82/61/23
f 10/16/24 2/15/24 30/62/24 32/18/24
f 29/63/25 32/64/25 129/65/25 130/66/25
f 75/67/26 41/68/26 48/69/26 73/70/26
f 82/61/27 34/60/27 41/68/27 75/67/27
f 83/71/28 29/63/28 141/72/28 140/73/28
f 32/64/29 30/74/29 128/75/29 129/65/29
f 73/70/30 48/69/30 56/76/30 66/77/30
f 74/78/31 81/79/31 145/80/31 148/81/31
f 130/82/32 133/56/32 146/59/32 147/83/32
f 6/28/33 115/5/33 97/8/33 19/39/33
f 54/84/34 53/85/34 60/86/34 61/87/34
f 67/88/35 54/89/35 61/90/35 65/91/35
f 11/92/36 114/20/36 83/23/36 33/93/36
f 5/28/37 116/24/37 109/27/37 14/29/37
f 14/29/38 109/27/38 114/20/38 11/92/38
f 139/94/39 54/95/39 143/96/39 142/97/39
f 30/62/40 38/52/40 131/55/40 128/98/40
f 4/6/41 115/5/41 99/30/41 9/99/41
f 61/87/42 60/86/42 69/100/42 70/101/42
f 65/91/43 61/90/43 70/102/43 58/103/43
f 9/99/44 99/30/44 112/32/44 2/104/44
f 66/77/45 56/76/45 63/105/45 64/106/45
f 19/39/46 97/8/46 90/34/46 24/107/46
f 53/85/47 52/108/47 59/109/47 60/86/47
f 198/110/48 3/111/48 207/112/48 213/113/48
f 256/114/49 255/115/49 253/116/49 254/117/49
f 23/118/50 26/119/50 89/45/50 91/48/50
f 69/100/51 68/120/51 76/121/51 77/122/51
f 204/123/52 201/124/52 211/125/52 212/126/52
f 64/106/53 63/105/53 72/127/53 57/128/53
f 33/93/54 83/23/54 81/129/54 40/68/54
f 60/86/55 59/109/55 68/120/55 69/100/55
f 2/104/56 112/32/56 82/61/56 30/130/56
f 38/131/57 75/67/57 73/70/57 45/132/57
f 77/122/58 76/121/58 259/133/58 260/134/58
f 30/130/59 82/61/59 75/67/59 38/131/59
f 50/135/60 80/136/60 88/137/60 44/138/60
f 58/103/61 70/102/61 78/139/61 51/140/61
f 70/101/62 69/100/62 77/122/62 78/141/62
f 45/132/63 73/70/63 66/77/63 52/142/63
f 57/128/64 72/127/64 80/136/64 50/135/64
f 28/143/65 110/144/65 96/145/65 42/146/65
f 40/68/66 81/129/66 74/147/66 47/69/66
f 108/148/67 262/149/67 93/150/67 94/151/67
f 31/152/68 108/153/68 94/154/68 43/155/68
f 55/156/69 67/88/69 65/91/69 62/157/69
f 51/140/70 78/139/70 86/158/70 49/159/70
f 78/141/71 77/122/71 260/134/71 86/160/71
f 47/69/72 74/147/72 67/88/72 55/156/72
f 123/161/73 124/162/73 101/163/73 102/164/73
f 121/165/74 123/166/74 102/167/74 37/168/74
f 62/157/75 65/91/75 58/103/75 71/169/75
f 52/142/76 66/77/76 64/106/76 59/170/76
f 59/170/77 64/106/77 57/128/77 68/171/77
f 262/149/78 261/172/78 92/173/78 93/150/78
f 76/174/79 50/175/79 44/176/79 259/177/79
f 71/169/80 58/103/80 51/140/80 79/178/80
f 37/168/81 35/179/81 105/180/81 103/181/81
f 124/162/82 127/182/82 297/183/82 298/184/82 101/163/82
f 68/171/83 57/128/83 50/135/83 76/185/83
f 261/186/84 28/143/84 42/146/84 92/187/84
f 107/188/85 31/152/85 43/155/85 95/189/85
f 127/190/86 122/191/86 295/192/86 297/193/86
f 79/178/87 51/140/87 49/159/87 87/194/87
f 100/195/88 36/196/88 301/197/88 104/198/88
f 126/199/89 121/165/89 37/168/89 103/181/89
f 102/167/90 101/200/90 35/179/90 37/168/90
f 274/201/91 273/202/91 290/203/91 291/204/91
f 122/191/92 125/205/92 300/206/92 295/192/92
f 49/159/93 86/158/93 108/153/93 31/152/93
f 86/160/94 260/134/94 262/149/94 108/148/94
f 35/207/95 296/208/95 299/209/95 105/210/95
f 44/176/96 88/211/96 110/144/96 28/143/96
f 93/212/97 92/187/97 120/213/97 119/214/97
f 87/194/98 49/159/98 31/152/98 107/188/98
f 42/146/99 96/145/99 113/215/99 27/216/99
f 259/217/100 44/138/100 28/218/100 261/219/100
f 92/187/101 42/146/101 27/216/101 120/213/101
f 95/189/102 43/155/102 22/220/102 118/221/102
f 43/155/103 94/154/103 117/222/103 22/220/103
f 94/151/104 93/150/104 119/223/104 117/224/104
f 120/213/105 27/216/105 122/191/105 127/190/105
f 118/221/106 22/220/106 121/165/106 126/199/106
f 119/223/107 120/225/107 127/182/107 124/162/107
f 27/216/108 113/215/108 125/205/108 122/191/108
f 22/220/109 117/222/109 123/166/109 121/165/109
f 117/224/110 119/223/110 124/162/110 123/161/110
f 130/82/111 129/226/111 132/227/111 133/56/111
f 132/227/112 131/55/112 134/54/112 135/228/112
f 129/226/113 128/98/113 131/55/113 132/227/113
f 135/228/114 134/54/114 137/229/114 138/230/114
f 133/56/115 132/227/115 135/228/115 136/57/115
f 136/57/116 135/228/116 138/230/116 139/231/116
f 52/232/117 53/233/117 138/234/117 137/235/117
f 45/53/118 52/108/118 137/229/118 134/54/118
f 54/95/119 67/236/119 149/237/119 143/96/119
f 53/233/120 54/95/120 139/94/120 138/234/120
f 141/72/121 147/238/121 157/239/121 39/240/121
f 144/58/122 142/241/122 150/242/122 153/243/122
f 145/80/123 140/244/123 46/245/123 154/246/123
f 148/81/124 145/80/124 154/246/124 158/247/124
f 146/59/125 144/58/125 153/243/125 156/248/125
f 142/97/126 143/96/126 151/249/126 150/250/126
f 136/57/127 139/231/127 142/241/127 144/58/127
f 67/251/128 74/78/128 148/81/128 149/252/128
f 29/63/129 130/66/129 147/238/129 141/72/129
f 81/79/130 83/253/130 140/244/130 145/80/130
f 153/243/131 150/242/131 162/254/131 164/255/131
f 154/246/132 46/245/132 160/256/132 165/257/132
f 158/247/133 154/246/133 165/257/133 168/258/133
f 156/248/134 153/243/134 164/255/134 166/259/134
f 150/250/135 151/249/135 163/260/135 162/261/135
f 157/262/136 156/248/136 166/259/136 167/263/136
f 149/252/137 148/81/137 158/247/137 159/264/137
f 143/96/138 149/237/138 159/265/138 151/249/138
f 140/73/139 141/72/139 39/240/139 46/266/139
f 147/83/140 146/59/140 156/248/140 157/262/140
f 188/267/141 187/268/141 177/269/141 152/270/141
f 184/271/142 185/272/142 170/273/142 173/274/142
f 182/275/143 180/276/143 155/277/143 174/278/143
f 181/279/144 182/275/144 174/278/144 178/280/144
f 183/281/145 184/271/145 173/274/145 176/282/145
f 170/273/146 185/272/146 194/283/146 192/284/146
f 39/240/147 157/239/147 167/285/147 161/286/147
f 159/264/148 158/247/148 168/258/148 169/287/148
f 151/249/149 159/265/149 169/288/149 163/260/149
f 46/266/150 39/240/150 161/286/150 160/289/150
f 155/290/151 152/291/151 175/292/151 174/293/151
f 171/294/152 172/295/152 173/296/152 170/297/152
f 174/293/153 175/292/153 172/295/153 178/298/153
f 175/292/154 152/291/154 177/299/154 176/300/154
f 178/298/155 172/295/155 171/294/155 179/301/155
f 172/295/156 175/292/156 176/300/156 173/296/156
f 189/302/157 181/279/157 178/280/157 179/303/157
f 189/302/158 179/303/158 193/304/158 195/305/158
f 180/306/159 188/267/159 152/270/159 155/307/159
f 187/308/160 183/281/160 176/282/160 177/309/160
f 167/263/161 166/259/161 183/281/161 187/308/161
f 160/289/162 161/286/162 188/267/162 180/306/162
f 163/260/163 169/288/163 189/310/163 186/311/163
f 169/287/164 168/258/164 181/279/164 189/302/164
f 162/261/165 163/260/165 186/311/165 185/312/165
f 166/259/166 164/255/166 184/271/166 183/281/166
f 168/258/167 165/257/167 182/275/167 181/279/167
f 165/257/168 160/256/168 180/276/168 182/275/168
f 164/255/169 162/254/169 185/272/169 184/271/169
f 161/286/170 167/285/170 187/268/170 188/267/170
f 194/313/171 190/314/171 191/315/171 192/316/171
f 190/314/172 195/317/172 193/318/172 191/315/172
f 185/319/173 186/320/173 190/321/173 194/322/173
f 171/294/174 170/297/174 192/323/174 191/324/174
f 186/320/175 189/325/175 195/326/175 190/321/175
f 179/301/176 171/294/176 191/324/176 193/327/176
f 196/328/177 197/329/177 200/330/177 199/331/177
f 200/330/178 201/124/178 204/123/178 203/332/178
f 197/329/179 198/333/179 201/124/179 200/330/179
f 199/331/180 200/330/180 203/332/180 202/334/180
f 7/42/181 3/111/181 198/110/181 197/43/181
f 17/7/182 4/6/182 196/335/182 199/336/182
f 201/124/183 198/333/183 213/337/183 211/125/183
f 21/33/184 17/7/184 199/336/184 202/338/184
f 208/4/185 209/3/185 217/339/185 216/340/185
f 210/341/186 206/342/186 214/343/186 218/344/186
f 207/112/187 208/345/187 216/346/187 215/347/187
f 211/125/188 213/337/188 221/348/188 219/349/188
f 20/35/189 204/38/189 212/350/189 206/342/189
f 91/48/190 20/35/190 206/342/190 210/341/190
f 98/2/191 91/351/191 210/352/191 209/3/191
f 3/111/192 116/353/192 208/345/192 207/112/192
f 232/354/193 235/355/193 222/356/193 226/357/193
f 233/358/194 224/359/194 240/360/194 241/361/194
f 16/362/195 230/363/195 229/364/195 227/365/195
f 231/366/196 232/367/196 226/368/196 225/369/196
f 213/113/197 207/112/197 215/347/197 221/370/197
f 206/342/198 212/350/198 220/371/198 214/343/198
f 212/126/199 211/125/199 219/349/199 220/372/199
f 209/3/200 210/352/200 218/373/200 217/339/200
f 223/374/201 205/375/201 227/376/201 229/377/201
f 223/374/202 224/378/202 225/379/202 205/375/202
f 205/375/203 225/379/203 226/380/203 222/381/203
f 205/375/204 222/381/204 228/382/204 227/376/204
f 233/358/205 231/366/205 225/369/205 224/359/205
f 229/364/206 230/363/206 237/383/206 238/384/206
f 235/355/207 236/385/207 228/386/207 222/356/207
f 236/387/208 16/362/208 227/365/208 228/388/208
f 250/389/209 243/390/209 16/362/209 236/387/209
f 249/391/210 250/392/210 236/385/210 235/355/210
f 246/393/211 245/394/211 234/395/211 230/396/211
f 248/397/212 244/398/212 231/366/212 233/358/212
f 244/398/213 247/399/213 232/367/213 231/366/213
f 243/390/214 246/400/214 230/363/214 16/362/214
f 245/394/215 248/401/215 233/402/215 234/395/215
f 247/403/216 249/391/216 235/355/216 232/354/216
f 242/404/217 241/405/217 240/406/217 239/407/217
f 237/408/218 242/404/218 239/407/218 238/409/218
f 234/410/219 233/411/219 241/412/219 242/413/219
f 224/378/220 223/374/220 239/414/220 240/415/220
f 230/416/221 234/410/221 242/413/221 237/417/221
f 223/374/222 229/377/222 238/418/222 239/414/222
f 218/344/223 214/343/223 249/391/223 247/403/223
f 215/347/224 216/346/224 248/401/224 245/394/224
f 219/349/225 221/348/225 246/400/225 243/390/225
f 217/339/226 218/373/226 247/399/226 244/398/226
f 216/340/227 217/339/227 244/398/227 248/397/227
f 221/370/228 215/347/228 245/394/228 246/393/228
f 214/343/229 220/371/229 250/392/229 249/391/229
f 220/372/230 219/349/230 243/390/230 250/389/230
f 252/419/231 251/420/231 254/421/231 253/422/231
f 255/423/232 257/424/232 252/425/232 253/426/232
f 258/427/233 256/428/233 254/421/233 251/420/233
f 24/107/234 90/34/234 256/429/234 258/430/234
f 89/45/235 26/119/235 257/431/235 255/432/235
f 90/46/236 89/45/236 255/432/236 256/428/236
f 84/433/237 85/434/237 260/134/237 259/133/237
f 275/435/238 84/433/238 259/133/238 261/172/238
f 85/434/239 276/436/239 262/149/239 260/134/239
f 276/436/240 284/437/240 283/438/240 275/435/240 261/172/240 262/149/240
f 84/439/241 275/440/241 279/441/241 263/442/241
f 266/443/242 264/444/242 278/445/242 280/446/242
f 276/436/243 85/434/243 267/447/243 282/448/243
f 278/449/244 264/450/244 265/451/244 277/452/244
f 277/452/245 265/451/245 263/442/245 279/441/245
f 266/443/246 280/446/246 281/453/246 268/454/246
f 268/454/247 281/453/247 282/448/247 267/447/247
f 85/455/248 84/456/248 263/457/248 265/458/248 264/459/248 266/460/248 268/461/248 267/462/248
f 106/463/249 284/464/249 276/465/249
f 271/466/250 269/467/250 278/468/250 277/469/250
f 270/470/251 271/466/251 277/469/251 279/471/251
f 273/202/252 274/201/252 281/472/252 280/473/252
f 274/201/253 272/474/253 282/475/253 281/472/253
f 269/467/254 273/202/254 280/473/254 278/468/254
f 111/476/255 270/470/255 279/471/255 275/477/255
f 272/474/256 106/463/256 276/465/256 282/475/256
f 285/478/257 286/479/257 292/480/257 291/204/257 290/203/257 288/481/257 287/482/257 289/483/257
f 283/484/258 111/476/258 275/477/258
f 270/470/259 111/476/259 285/478/259 289/483/259
f 294/485/260 286/479/260 285/478/260 293/486/260
f 111/476/261 283/484/261 293/486/261 285/478/261
f 106/463/262 272/474/262 292/480/262 286/479/262
f 272/474/263 274/201/263 291/204/263 292/480/263
f 269/467/264 271/466/264 287/482/264 288/481/264
f 283/438/265 284/437/265 294/487/265 293/488/265
f 273/202/266 269/467/266 288/481/266 290/203/266
f 284/464/267 106/463/267 286/479/267 294/485/267
f 271/466/268 270/470/268 289/483/268 287/482/268
f 297/489/269 295/490/269 36/491/269 100/492/269
f 296/208/270 298/493/270 104/198/270 301/197/270
f 101/494/271 298/493/271 296/208/271 35/207/271
f 36/196/272 302/495/272 303/496/272 301/197/272
f 299/497/273 296/498/273 301/499/273 303/500/273
f 295/490/274 300/501/274 302/502/274 36/491/274
f 298/184/275 297/183/275 100/503/275 104/504/275
f 385/1/276 474/4/276 475/3/276 372/2/276
f 384/505/277 371/506/277 314/507/277 307/508/277
f 306/9/278 309/12/278 312/11/278 308/10/278
f 308/10/279 312/11/279 310/14/279 307/13/279
f 312/11/280 311/16/280 305/15/280 310/14/280
f 309/12/281 304/17/281 311/16/281 312/11/281
f 304/17/282 321/19/282 324/18/282 311/16/282
f 383/509/283 361/510/283 321/511/283 304/512/283
f 385/513/284 380/514/284 309/515/284 306/516/284
f 380/514/285 383/509/285 304/512/285 309/515/285
f 384/505/286 373/517/286 15/29/286 6/28/286
f 373/517/287 382/518/287 12/31/287 15/29/287
f 371/506/288 366/519/288 316/520/288 314/507/288
f 315/521/289 470/522/289 469/523/289 318/524/289
f 385/513/290 372/525/290 18/39/290 5/28/290
f 307/526/291 462/527/291 463/528/291 308/529/291
f 365/530/292 318/524/292 316/531/292 366/532/292
f 367/533/293 315/521/293 318/524/293 365/530/293
f 318/524/294 469/523/294 468/534/294 316/531/294
f 372/525/295 367/535/295 23/50/295 18/39/295
f 328/52/296 397/55/296 400/54/296 333/53/296
f 399/56/297 412/59/297 410/58/297 402/57/297
f 382/518/298 360/536/298 34/60/298 12/31/298
f 311/16/299 324/18/299 322/62/299 305/15/299
f 321/537/300 396/538/300 395/539/300 324/540/300
f 355/541/301 353/542/301 48/69/301 41/68/301
f 360/536/302 355/541/302 41/68/302 34/60/302
f 361/543/303 406/544/303 407/545/303 321/537/303
f 324/540/304 395/539/304 394/546/304 322/547/304
f 353/542/305 348/548/305 56/76/305 48/69/305
f 354/78/306 414/81/306 411/80/306 359/79/306
f 396/82/307 413/83/307 412/59/307 399/56/307
f 6/28/308 19/39/308 371/506/308 384/505/308
f 340/84/309 345/87/309 344/86/309 339/85/309
f 349/549/310 347/550/310 345/551/310 340/552/310
f 11/92/311 33/93/311 361/510/311 383/509/311
f 5/28/312 14/29/312 380/514/312 385/513/312
f 14/29/313 11/92/313 383/509/313 380/514/313
f 405/553/314 408/554/314 409/555/314 340/556/314
f 322/62/315 394/98/315 397/55/315 328/52/315
f 307/508/316 310/557/316 373/517/316 384/505/316
f 345/87/317 352/101/317 351/100/317 344/86/317
f 347/550/318 342/558/318 352/559/318 345/551/318
f 310/557/319 305/560/319 382/518/319 373/517/319
f 348/548/320 346/561/320 63/105/320 56/76/320
f 19/39/321 24/107/321 366/519/321 371/506/321
f 339/85/322 344/86/322 343/109/322 338/108/322
f 464/562/323 479/563/323 473/564/323 306/565/323
f 520/114/324 518/117/324 517/116/324 519/115/324
f 23/118/325 367/533/325 365/530/325 26/119/325
f 351/100/326 357/122/326 356/121/326 350/120/326
f 470/123/327 478/126/327 477/125/327 467/124/327
f 346/561/328 341/566/328 72/127/328 63/105/328
f 33/93/329 40/68/329 359/567/329 361/510/329
f 344/86/330 351/100/330 350/120/330 343/109/330
f 305/560/331 322/568/331 360/536/331 382/518/331
f 328/569/332 333/570/332 353/542/332 355/541/332
f 357/122/333 522/134/333 521/133/333 356/121/333
f 322/568/334 328/569/334 355/541/334 360/536/334
f 336/571/335 332/572/335 88/137/335 80/136/335
f 342/558/336 337/573/336 358/574/336 352/559/336
f 352/101/337 358/141/337 357/122/337 351/100/337
f 333/570/338 338/575/338 348/548/338 353/542/338
f 341/566/339 336/571/339 80/136/339 72/127/339
f 320/576/340 330/577/340 96/145/340 110/144/340
f 40/68/341 47/69/341 354/578/341 359/567/341
f 379/148/342 370/151/342 369/150/342 524/149/342
f 323/579/343 331/580/343 370/581/343 379/582/343
f 55/156/344 62/157/344 347/550/344 349/549/344
f 337/573/345 335/583/345 364/584/345 358/574/345
f 358/141/346 364/160/346 522/134/346 357/122/346
f 47/69/347 55/156/347 349/549/347 354/578/347
f 391/161/348 376/164/348 375/163/348 392/162/348
f 389/585/349 327/586/349 376/587/349 391/588/349
f 62/157/350 71/169/350 342/558/350 347/550/350
f 338/575/351 343/589/351 346/561/351 348/548/351
f 343/589/352 350/590/352 341/566/352 346/561/352
f 524/149/353 369/150/353 368/173/353 523/172/353
f 356/591/354 521/592/354 332/593/354 336/594/354
f 71/169/355 79/178/355 337/573/355 342/558/355
f 327/586/356 103/181/356 105/180/356 325/595/356
f 392/162/357 375/163/357 560/184/357 559/183/357 393/182/357
f 350/590/358 356/596/358 336/571/358 341/566/358
f 523/597/359 368/598/359 330/577/359 320/576/359
f 107/188/360 95/189/360 331/580/360 323/579/360
f 393/599/361 559/600/361 557/601/361 390/602/361
f 79/178/362 87/194/362 335/583/362 337/573/362
f 374/603/363 377/604/363 561/605/363 326/606/363
f 126/199/364 103/181/364 327/586/364 389/585/364
f 376/587/365 327/586/365 325/595/365 375/607/365
f 536/608/366 553/609/366 552/610/366 535/611/366
f 390/602/367 557/601/367 300/206/367 125/205/367
f 335/583/368 323/579/368 379/582/368 364/584/368
f 364/160/369 379/148/369 524/149/369 522/134/369
f 325/612/370 105/210/370 299/209/370 558/613/370
f 332/593/371 320/576/371 110/144/371 88/211/371
f 369/614/372 387/615/372 388/616/372 368/598/372
f 87/194/373 107/188/373 323/579/373 335/583/373
f 330/577/374 319/617/374 113/215/374 96/145/374
f 521/618/375 523/619/375 320/620/375 332/572/375
f 368/598/376 388/616/376 319/617/376 330/577/376
f 95/189/377 118/221/377 317/621/377 331/580/377
f 331/580/378 317/621/378 386/622/378 370/581/378
f 370/151/379 386/224/379 387/223/379 369/150/379
f 388/616/380 393/599/380 390/602/380 319/617/380
f 118/221/381 126/199/381 389/585/381 317/621/381
f 387/223/382 392/162/382 393/182/382 388/225/382
f 319/617/383 390/602/383 125/205/383 113/215/383
f 317/621/384 389/585/384 391/588/384 386/622/384
f 386/224/385 391/161/385 392/162/385 387/223/385
f 396/82/386 399/56/386 398/227/386 395/226/386
f 398/227/387 401/228/387 400/54/387 397/55/387
f 395/226/388 398/227/388 397/55/388 394/98/388
f 401/228/389 404/230/389 403/229/389 400/54/389
f 399/56/390 402/57/390 401/228/390 398/227/390
f 402/57/391 405/231/391 404/230/391 401/228/391
f 338/623/392 403/624/392 404/625/392 339/626/392
f 333/53/393 400/54/393 403/229/393 338/108/393
f 340/556/394 409/555/394 415/627/394 349/628/394
f 339/626/395 404/625/395 405/553/395 340/556/395
f 407/545/396 329/629/396 423/630/396 413/631/396
f 410/58/397 419/243/397 416/242/397 408/241/397
f 411/80/398 420/246/398 334/245/398 406/244/398
f 414/81/399 424/247/399 420/246/399 411/80/399
f 412/59/400 422/248/400 419/243/400 410/58/400
f 408/554/401 416/632/401 417/633/401 409/555/401
f 402/57/402 410/58/402 408/241/402 405/231/402
f 349/251/403 415/252/403 414/81/403 354/78/403
f 321/537/404 407/545/404 413/631/404 396/538/404
f 359/79/405 411/80/405 406/244/405 361/253/405
f 419/243/406 430/255/406 428/254/406 416/242/406
f 420/246/407 431/257/407 426/256/407 334/245/407
f 424/247/408 434/258/408 431/257/408 420/246/408
f 422/248/409 432/259/409 430/255/409 419/243/409
f 416/632/410 428/634/410 429/635/410 417/633/410
f 423/262/411 433/263/411 432/259/411 422/248/411
f 415/252/412 425/264/412 424/247/412 414/81/412
f 409/555/413 417/633/413 425/636/413 415/627/413
f 406/544/414 334/637/414 329/629/414 407/545/414
f 413/83/415 423/262/415 422/248/415 412/59/415
f 454/638/416 418/639/416 443/640/416 453/641/416
f 450/271/417 439/274/417 436/273/417 451/272/417
f 448/275/418 440/278/418 421/277/418 446/276/418
f 447/279/419 444/280/419 440/278/419 448/275/419
f 449/281/420 442/282/420 439/274/420 450/271/420
f 436/273/421 458/284/421 460/283/421 451/272/421
f 329/629/422 427/642/422 433/643/422 423/630/422
f 425/264/423 435/287/423 434/258/423 424/247/423
f 417/633/424 429/635/424 435/644/424 425/636/424
f 334/637/425 426/645/425 427/642/425 329/629/425
f 421/646/426 440/647/426 441/648/426 418/649/426
f 437/650/427 436/651/427 439/652/427 438/653/427
f 440/647/428 444/654/428 438/653/428 441/648/428
f 441/648/429 442/655/429 443/656/429 418/649/429
f 444/654/430 445/657/430 437/650/430 438/653/430
f 438/653/431 439/652/431 442/655/431 441/648/431
f 455/302/432 445/303/432 444/280/432 447/279/432
f 455/302/433 461/305/433 459/304/433 445/303/433
f 446/658/434 421/659/434 418/639/434 454/638/434
f 453/308/435 443/309/435 442/282/435 449/281/435
f 433/263/436 453/308/436 449/281/436 432/259/436
f 426/645/437 446/658/437 454/638/437 427/642/437
f 429/635/438 452/660/438 455/661/438 435/644/438
f 435/287/439 455/302/439 447/279/439 434/258/439
f 428/634/440 451/662/440 452/660/440 429/635/440
f 432/259/441 449/281/441 450/271/441 430/255/441
f 434/258/442 447/279/442 448/275/442 431/257/442
f 431/257/443 448/275/443 446/276/443 426/256/443
f 430/255/444 450/271/444 451/272/444 428/254/444
f 427/642/445 454/638/445 453/641/445 433/643/445
f 460/663/446 458/664/446 457/665/446 456/666/446
f 456/666/447 457/665/447 459/667/447 461/668/447
f 451/669/448 460/670/448 456/671/448 452/672/448
f 437/650/449 457/673/449 458/674/449 436/651/449
f 452/672/450 456/671/450 461/675/450 455/676/450
f 445/657/451 459/677/451 457/673/451 437/650/451
f 462/328/452 465/331/452 466/330/452 463/329/452
f 466/330/453 469/332/453 470/123/453 467/124/453
f 463/329/454 466/330/454 467/124/454 464/333/454
f 465/331/455 468/334/455 469/332/455 466/330/455
f 308/529/456 463/528/456 464/562/456 306/565/456
f 314/507/457 465/678/457 462/679/457 307/508/457
f 467/124/458 477/125/458 479/337/458 464/333/458
f 316/520/459 468/680/459 465/678/459 314/507/459
f 474/4/460 482/340/460 483/339/460 475/3/460
f 476/681/461 484/682/461 480/683/461 472/684/461
f 473/564/462 481/685/462 482/686/462 474/687/462
f 477/125/463 485/349/463 487/348/463 479/337/463
f 315/521/464 472/684/464 478/688/464 470/522/464
f 367/533/465 476/681/465 472/684/465 315/521/465
f 372/2/466 475/3/466 476/352/466 367/351/466
f 306/565/467 473/564/467 474/687/467 385/689/467
f 498/690/468 492/691/468 488/692/468 501/693/468
f 499/358/469 507/361/469 506/360/469 490/359/469
f 313/362/470 493/365/470 495/364/470 496/363/470
f 497/366/471 491/369/471 492/368/471 498/367/471
f 479/563/472 487/694/472 481/685/472 473/564/472
f 472/684/473 480/683/473 486/695/473 478/688/473
f 478/126/474 486/372/474 485/349/474 477/125/474
f 475/3/475 483/339/475 484/373/475 476/352/475
f 489/696/476 495/697/476 493/698/476 471/699/476
f 489/696/477 471/699/477 491/700/477 490/701/477
f 471/699/478 488/702/478 492/703/478 491/700/478
f 471/699/479 493/698/479 494/704/479 488/702/479
f 499/358/480 490/359/480 491/369/480 497/366/480
f 495/364/481 504/384/481 503/383/481 496/363/481
f 501/693/482 488/692/482 494/705/482 502/706/482
f 502/387/483 494/388/483 493/365/483 313/362/483
f 516/389/484 502/387/484 313/362/484 509/390/484
f 515/707/485 501/693/485 502/706/485 516/708/485
f 512/709/486 496/710/486 500/711/486 511/712/486
f 514/397/487 499/358/487 497/366/487 510/398/487
f 510/398/488 497/366/488 498/367/488 513/399/488
f 509/390/489 313/362/489 496/363/489 512/400/489
f 511/712/490 500/711/490 499/713/490 514/714/490
f 513/715/491 498/690/491 501/693/491 515/707/491
f 508/716/492 505/717/492 506/718/492 507/719/492
f 503/720/493 504/721/493 505/717/493 508/716/493
f 500/722/494 508/723/494 507/724/494 499/725/494
f 490/701/495 506/726/495 505/727/495 489/696/495
f 496/728/496 503/729/496 508/723/496 500/722/496
f 489/696/497 505/727/497 504/730/497 495/697/497
f 484/682/498 513/715/498 515/707/498 480/683/498
f 481/685/499 511/712/499 514/714/499 482/686/499
f 485/349/500 509/390/500 512/400/500 487/348/500
f 483/339/501 510/398/501 513/399/501 484/373/501
f 482/340/502 514/397/502 510/398/502 483/339/502
f 487/694/503 512/709/503 511/712/503 481/685/503
f 480/683/504 515/707/504 516/708/504 486/695/504
f 486/372/505 516/389/505 509/390/505 485/349/505
f 252/419/506 517/731/506 518/732/506 251/420/506
f 519/733/507 517/734/507 252/425/507 257/424/507
f 258/427/508 251/420/508 518/732/508 520/735/508
f 24/107/509 258/430/509 520/736/509 366/519/509
f 365/530/510 519/737/510 257/431/510 26/119/510
f 366/532/511 520/735/511 519/737/511 365/530/511
f 362/433/512 521/133/512 522/134/512 363/434/512
f 537/435/513 523/172/513 521/133/513 362/433/513
f 363/434/514 522/134/514 524/149/514 538/436/514
f 538/436/515 524/149/515 523/172/515 537/435/515 545/438/515 546/437/515
f 362/738/516 525/739/516 541/740/516 537/741/516
f 528/443/517 542/446/517 540/445/517 526/444/517
f 538/436/518 544/448/518 529/447/518 363/434/518
f 540/742/519 539/743/519 527/744/519 526/745/519
f 539/743/520 541/740/520 525/739/520 527/744/520
f 528/443/521 530/454/521 543/453/521 542/446/521
f 530/454/522 529/447/522 544/448/522 543/453/522
f 363/746/523 529/747/523 530/748/523 528/749/523 526/750/523 527/751/523 525/752/523 362/753/523
f 378/754/524 538/755/524 546/756/524
f 533/757/525 539/758/525 540/759/525 531/760/525
f 532/761/526 541/762/526 539/758/526 533/757/526
f 535/611/527 542/763/527 543/764/527 536/608/527
f 536/608/528 543/764/528 544/765/528 534/766/528
f 531/760/529 540/759/529 542/763/529 535/611/529
f 381/767/530 537/768/530 541/762/530 532/761/530
f 534/766/531 544/765/531 538/755/531 378/754/531
f 547/769/532 551/770/532 549/771/532 550/772/532 552/610/532 553/609/532 554/773/532 548/774/532
f 545/775/533 537/768/533 381/767/533
f 532/761/534 551/770/534 547/769/534 381/767/534
f 556/776/535 555/777/535 547/769/535 548/774/535
f 381/767/536 547/769/536 555/777/536 545/775/536
f 378/754/537 548/774/537 554/773/537 534/766/537
f 534/766/538 554/773/538 553/609/538 536/608/538
f 531/760/539 550/772/539 549/771/539 533/757/539
f 545/438/540 555/488/540 556/487/540 546/437/540
f 535/611/541 552/610/541 550/772/541 531/760/541
f 546/756/542 556/776/542 548/774/542 378/754/542
f 533/757/543 549/771/543 551/770/543 532/761/543
f 559/778/544 374/779/544 326/780/544 557/781/544
f 558/613/545 561/605/545 377/604/545 560/782/545
f 375/783/546 325/612/546 558/613/546 560/782/546
f 326/606/547 561/605/547 303/496/547 302/495/547
f 299/497/548 303/500/548 561/784/548 558/785/548
f 557/781/549 326/780/549 302/502/549 300/501/549
f 560/184/550 377/504/550 374/503/550 559/183/550
f 562/786/551 575/787/551 574/788/551
f 563/789/552 575/790/552 577/791/552
f 562/792/553 574/793/553 579/794/553
f 562/795/554 579/796/554 581/797/554
f 562/798/555 581/799/555 578/800/555
f 563/789/556 577/791/556 584/801/556
f 564/802/557 576/803/557 586/804/557
f 565/805/558 580/806/558 588/807/558
f 566/808/559 582/809/559 590/810/559
f 567/811/560 583/812/560 592/813/560
f 563/789/561 584/801/561 587/814/561
f 564/802/562 586/804/562 589/815/562
f 565/805/563 588/807/563 591/816/563
f 566/808/564 590/810/564 593/817/564
f 567/811/565 592/813/565 585/818/565
f 568/819/566 594/820/566 599/821/566
f 569/822/567 595/823/567 601/824/567
f 570/825/568 596/826/568 602/827/568
f 571/828/569 597/829/569 603/830/569
f 572/831/570 598/832/570 600/833/570
f 600/833/571 603/834/571 573/835/571
f 600/833/572 598/832/572 603/834/572
f 598/832/573 571/828/573 603/834/573
f 603/830/574 602/836/574 573/837/574
f 603/830/575 597/829/575 602/836/575
f 597/829/576 570/825/576 602/836/576
f 602/827/577 601/838/577 573/839/577
f 602/827/578 596/826/578 601/838/578
f 596/826/579 569/840/579 601/838/579
f 601/824/580 599/841/580 573/842/580
f 601/824/581 595/823/581 599/841/581
f 595/823/582 568/819/582 599/841/582
f 599/821/583 600/843/583 573/844/583
f 599/821/584 594/820/584 600/843/584
f 594/820/585 572/831/585 600/843/585
f 585/818/586 598/832/586 572/831/586
f 585/818/587 592/813/587 598/832/587
f 592/813/588 571/828/588 598/832/588
f 593/817/589 597/829/589 571/828/589
f 593/817/590 590/810/590 597/829/590
f 590/810/591 570/825/591 597/829/591
f 591/816/592 596/826/592 570/825/592
f 591/816/593 588/807/593 596/826/593
f 588/807/594 569/840/594 596/826/594
f 589/815/595 595/823/595 569/822/595
f 589/815/596 586/804/596 595/823/596
f 586/804/597 568/819/597 595/823/597
f 587/814/598 594/820/598 568/819/598
f 587/814/599 584/801/599 594/820/599
f 584/801/600 572/831/600 594/820/600
f 592/813/601 593/817/601 571/828/601
f 592/813/602 583/812/602 593/817/602
f 583/812/603 566/808/603 593/817/603
f 590/810/604 591/816/604 570/825/604
f 590/810/605 582/809/605 591/816/605
f 582/809/606 565/805/606 591/816/606
f 588/807/607 589/845/607 569/840/607
f 588/807/608 580/806/608 589/845/608
f 580/806/609 564/846/609 589/845/609
f 586/804/610 587/814/610 568/819/610
f 586/804/611 576/803/611 587/814/611
f 576/803/612 563/789/612 587/814/612
f 584/801/613 585/818/613 572/831/613
f 584/801/614 577/791/614 585/818/614
f 577/791/615 567/811/615 585/818/615
f 578/800/616 583/812/616 567/811/616
f 578/800/617 581/799/617 583/812/617
f 581/799/618 566/808/618 583/812/618
f 581/797/619 582/809/619 566/808/619
f 581/797/620 579/796/620 582/809/620
f 579/796/621 565/805/621 582/809/621
f 579/794/622 580/806/622 565/805/622
f 579/794/623 574/793/623 580/806/623
f 574/793/624 564/846/624 580/806/624
f 577/791/625 578/847/625 567/811/625
f 577/791/626 575/790/626 578/847/626
f 575/790/627 562/848/627 578/847/627
f 574/788/628 576/803/628 564/802/628
f 574/788/629 575/787/629 576/803/629
f 575/787/630 563/789/630 576/803/630
f 604/786/631 616/788/631 617/787/631
f 605/789/632 619/791/632 617/790/632
f 604/792/633 621/794/633 616/793/633
f 604/795/634 623/797/634 621/796/634
f 604/798/635 620/800/635 623/799/635
f 605/789/636 626/801/636 619/791/636
f 606/802/637 628/804/637 618/803/637
f 607/805/638 630/807/638 622/806/638
f 608/808/639 632/810/639 624/809/639
f 609/811/640 634/813/640 625/812/640
f 605/789/641 629/814/641 626/801/641
f 606/802/642 631/815/642 628/804/642
f 607/805/643 633/816/643 630/807/643
f 608/808/644 635/817/644 632/810/644
f 609/811/645 627/818/645 634/813/645
f 610/819/646 641/821/646 636/820/646
f 611/822/647 643/824/647 637/823/647
f 612/825/648 644/827/648 638/826/648
f 613/828/649 645/830/649 639/829/649
f 614/831/650 642/833/650 640/832/650
f 642/833/651 615/835/651 645/834/651
f 642/833/652 645/834/652 640/832/652
f 640/832/653 645/834/653 613/828/653
f 645/830/654 615/837/654 644/836/654
f 645/830/655 644/836/655 639/829/655
f 639/829/656 644/836/656 612/825/656
f 644/827/657 615/839/657 643/838/657
f 644/827/658 643/838/658 638/826/658
f 638/826/659 643/838/659 611/840/659
f 643/824/660 615/842/660 641/841/660
f 643/824/661 641/841/661 637/823/661
f 637/823/662 641/841/662 610/819/662
f 641/821/663 615/844/663 642/843/663
f 641/821/664 642/843/664 636/820/664
f 636/820/665 642/843/665 614/831/665
f 627/818/666 614/831/666 640/832/666
f 627/818/667 640/832/667 634/813/667
f 634/813/668 640/832/668 613/828/668
f 635/817/669 613/828/669 639/829/669
f 635/817/670 639/829/670 632/810/670
f 632/810/671 639/829/671 612/825/671
f 633/816/672 612/825/672 638/826/672
f 633/816/673 638/826/673 630/807/673
f 630/807/674 638/826/674 611/840/674
f 631/815/675 611/822/675 637/823/675
f 631/815/676 637/823/676 628/804/676
f 628/804/677 637/823/677 610/819/677
f 629/814/678 610/819/678 636/820/678
f 629/814/679 636/820/679 626/801/679
f 626/801/680 636/820/680 614/831/680
f 634/813/681 613/828/681 635/817/681
f 634/813/682 635/817/682 625/812/682
f 625/812/683 635/817/683 608/808/683
f 632/810/684 612/825/684 633/816/684
f 632/810/685 633/816/685 624/809/685
f 624/809/686 633/816/686 607/805/686
f 630/807/687 611/840/687 631/845/687
f 630/807/688 631/845/688 622/806/688
f 622/806/689 631/845/689 606/846/689
f 628/804/690 610/819/690 629/814/690
f 628/804/691 629/814/691 618/803/691
f 618/803/692 629/814/692 605/789/692
f 626/801/693 614/831/693 627/818/693
f 626/801/694 627/818/694 619/791/694
f 619/791/695 627/818/695 609/811/695
f 620/800/696 609/811/696 625/812/696
f 620/800/697 625/812/697 623/799/697
f 623/799/698 625/812/698 608/808/698
f 623/797/699 608/808/699 624/809/699
f 623/797/700 624/809/700 621/796/700
f 621/796/701 624/809/701 607/805/701
f 621/794/702 607/805/702 622/806/702
f 621/794/703 622/806/703 616/793/703
f 616/793/704 622/806/704 606/846/704
f 619/791/705 609/811/705 620/847/705
f 619/791/706 620/847/706 617/790/706
f 617/790/707 620/847/707 604/848/707
f 616/788/708 606/802/708 618/803/708
f 616/788/709 618/803/709 617/787/709
f 617/787/710 618/803/710 605/789/710
