# Blender 5.1.1
# www.blender.org
o Куб.001
v 0.545659 1.176013 0.595153
v 0.532679 2.433783 0.473533
v 0.602450 1.141990 0.051780
v 0.619472 2.369468 -0.232324
v -0.002256 1.006197 -0.326788
v -0.000000 2.480862 -0.357245
v 0.708372 1.767370 0.092125
v 0.615564 1.112823 0.292593
v 0.609568 2.455429 0.117859
v 0.653719 1.753045 0.517263
v 0.004195 0.945149 0.676244
v -0.000000 2.544096 0.544675
v 0.718866 1.776716 0.186376
v -0.001513 0.896300 0.181589
v -0.000000 2.614716 0.130571
v 0.822472 0.221161 -0.258801
v 0.537649 2.227274 -0.534395
v -0.001923 1.095077 -0.584974
v 0.000000 2.280686 -0.622767
v 0.464482 1.230100 -0.616761
v 0.464300 2.031252 -0.747934
v 0.090363 0.721248 3.005144
v -0.001154 1.216218 -0.805311
v -0.000000 2.103516 -0.887623
v 0.561807 1.613375 -0.788691
v -0.000200 1.594730 -0.915762
v 0.084677 1.095867 3.146864
v 0.172094 1.516302 3.026164
v 0.475865 1.316466 0.968145
v 0.501730 2.383425 0.889782
v 0.175772 0.777913 2.811173
v 0.620768 1.735011 0.849973
v 0.009117 0.990012 1.123708
v 0.000045 2.487348 0.979386
v 0.059274 0.694148 3.235134
v 0.033850 0.838151 3.327725
v 0.047665 0.667588 3.117893
v 0.568110 2.549011 1.239714
v 0.545974 0.859925 0.831602
v 0.005508 0.942333 1.474603
v -0.003811 2.648899 1.345335
v 0.118300 1.303386 3.176524
v 0.136209 0.735146 2.919989
v 0.177045 1.737382 2.832503
v 0.580563 2.551395 1.435949
v 0.450013 0.811650 0.864372
v 0.003142 0.981646 1.619823
v -0.001774 2.654156 1.544468
v 0.190837 0.828615 2.701773
v 0.177045 1.888001 2.658397
v 0.177045 0.888100 2.567644
v 0.540888 2.485950 1.719296
v 0.683101 1.845631 1.705502
v 0.555502 1.023869 1.669446
v 0.000829 1.081779 1.776438
v -0.000039 2.587723 1.817999
v 0.181751 2.052715 2.406352
v 0.181751 1.089469 2.254764
v 0.456720 2.248087 2.017803
v 0.561496 1.582043 1.898432
v 0.460799 1.307926 1.876973
v 0.000348 1.170395 1.901444
v -0.000000 2.337233 2.104133
v 0.227553 2.303940 2.071471
v 0.230425 1.229582 1.884668
v 0.270860 2.555874 1.765667
v 0.360097 1.052871 1.614442
v 0.364925 1.997235 2.360651
v 0.445749 1.421398 2.297627
v 0.364925 1.145175 2.209018
v -0.000000 1.054420 2.260939
v 0.000000 2.081799 2.408783
v 0.287587 2.624877 1.479461
v 0.305885 1.059097 1.501027
v 0.280733 2.623091 1.276934
v 0.355746 1.841297 2.613467
v 0.433703 1.346220 2.565441
v 0.355746 0.943264 2.528065
v -0.000000 0.863384 2.551073
v 0.000000 1.916452 2.646039
v 0.312770 1.134296 1.372209
v 0.251326 2.457454 0.911338
v 0.340489 1.224203 1.126696
v 0.372539 1.560043 2.769312
v 0.455708 1.353317 2.710227
v 0.382651 0.885128 2.665330
v -0.000000 0.805270 2.680630
v 0.000000 1.769176 2.816056
v 0.248939 1.607351 -0.876850
v 0.203268 2.085056 -0.852273
v 0.324658 1.197457 -0.591738
v 0.241143 1.285328 3.120777
v 0.339854 1.062202 2.983810
v 0.276080 0.777535 2.888126
v -0.000000 0.730525 2.883643
v -0.000000 1.331211 3.151419
v 0.249692 2.240829 -0.666394
v 0.282762 1.108837 -0.341457
v 0.307155 2.557767 0.092759
v 0.069124 0.842388 3.305933
v 0.125993 0.715538 3.200456
v 0.103346 0.693721 3.119144
v -0.000000 0.656084 3.124979
v 0.064203 0.790288 3.302986
v -0.000000 0.685071 3.228999
v 0.465527 1.383183 2.803148
v -0.000000 0.763717 2.783967
v 0.353261 0.827775 2.775520
v 0.309850 1.008152 0.230688
v -0.000000 1.551059 3.007184
v 0.402860 1.513412 2.846748
v 0.267629 2.510747 0.480969
v -0.000000 1.098586 3.146425
v 0.277511 1.060892 0.595298
v 0.301735 2.444892 -0.400815
v 0.357093 1.064757 -0.045643
v 0.186642 0.757028 2.973937
v -0.000000 0.723919 2.963956
v 0.210413 0.888863 3.092144
v 0.175549 1.066424 3.118939
v 0.070240 0.694902 3.056272
v 0.067630 0.929174 3.244259
v 0.139993 0.714589 3.051872
v 0.161300 0.803137 3.145846
v -0.000000 0.939280 3.234432
v -0.000000 0.690848 3.040618
v 0.134901 0.923456 3.212036
v 0.619419 2.283677 0.990445
v 0.721589 1.731948 0.896937
v 0.676703 1.433833 0.994998
v 0.676665 2.440037 1.238799
v 0.814068 1.781127 1.308097
v 0.829109 1.229821 1.326652
v 0.640197 2.451597 1.420419
v 0.827417 1.816874 1.478839
v 0.837132 1.129380 1.475750
v 0.653320 2.320760 1.603997
v 0.778720 1.850849 1.672043
v 0.766409 1.073707 1.625305
v 0.441815 1.008970 0.927238
v 0.542088 1.070523 0.880125
v 0.747532 0.734247 1.287216
v 0.595392 0.684842 1.317587
v 0.799063 0.792351 1.184139
v 0.414377 0.842554 1.080803
v 0.793708 0.876604 1.082522
v 0.685604 1.085046 0.881391
v 0.414751 0.743130 1.187779
v 0.457213 0.701541 1.282360
v 0.749606 0.567685 1.066635
v 0.600239 0.537441 1.094313
v 0.532795 0.659080 0.446135
v 0.802468 0.628513 1.000015
v 0.423960 0.703082 0.941883
v 0.415771 0.613285 0.473777
v 0.793884 0.706244 0.933987
v 0.683497 0.853835 0.835986
v 0.422151 0.616477 1.019256
v 0.463698 0.566754 1.073189
v 0.441342 0.744139 0.683377
v 0.546875 0.785834 0.651702
v 0.772448 0.498166 0.848447
v 0.609301 0.466959 0.872128
v 0.794630 0.563480 0.792296
v 0.419178 0.640935 0.750288
v 0.787222 0.639325 0.736246
v 0.699501 0.776471 0.651841
v 0.418992 0.554105 0.815697
v 0.461166 0.501240 0.860293
v 0.807658 0.329597 0.589936
v 0.599573 0.298546 0.598044
v 0.642515 0.413116 0.558214
v 0.807479 0.409879 0.558594
v 0.391028 0.499762 0.531203
v 0.635497 0.505383 0.519168
v 0.801079 0.494101 0.518292
v 0.701908 0.647656 0.445866
v 0.392588 0.402717 0.576809
v 0.408312 0.338888 0.600429
v 0.425975 0.675350 0.582743
v 0.404147 0.474852 0.707439
v 0.402320 0.567618 0.648238
v 0.797323 0.562931 0.634211
v 0.803802 0.482266 0.688055
v 0.786795 0.439821 0.783805
v 0.609174 0.391670 0.797487
v 0.702211 0.707354 0.550870
v 0.538849 0.718017 0.551041
v 0.448156 0.445713 0.792506
v 0.596626 0.215489 0.750342
v 0.593536 0.168455 0.637275
v 0.771488 0.202168 0.628739
v 0.432718 0.208216 0.636807
v 0.768701 0.251988 0.742243
v 0.441618 0.259696 0.751866
v 0.762347 2.230304 -0.301732
v 0.786819 1.762258 0.006863
v 0.762630 1.162643 -0.026695
v 0.752301 2.100118 -0.517239
v 0.858051 1.662291 -0.468657
v 0.810400 1.183760 -0.285039
v 0.742090 1.941450 -0.688154
v 0.837712 1.615916 -0.687069
v 0.742322 1.228362 -0.557294
v 0.605617 -0.006306 -0.225912
v 0.523415 0.885884 -0.636907
v 0.633829 0.948995 -0.013546
v 0.437125 0.929178 -0.079499
v 0.377781 0.901558 -0.345111
v 0.411310 0.885668 -0.590586
v 0.800642 0.916087 -0.334012
v 0.746166 0.891032 -0.594152
v 0.762297 0.942690 -0.089870
v 0.540028 0.661396 -0.587356
v 0.641322 0.559363 -0.020975
v 0.462083 0.559927 -0.088009
v 0.407655 0.609185 -0.328597
v 0.437941 0.651238 -0.546394
v 0.792829 0.617310 -0.311330
v 0.742962 0.657211 -0.547668
v 0.758227 0.574826 -0.088649
v 0.548502 -0.011087 -0.462468
v 0.668394 0.009735 -0.005363
v 0.413478 -0.007958 -0.056989
v 0.401160 -0.016216 -0.251471
v 0.434888 -0.014266 -0.429020
v 0.829844 -0.004840 -0.239842
v 0.774373 -0.008835 -0.431064
v 0.834789 0.006084 -0.060600
v 0.825487 0.232846 -0.082210
v 0.393788 0.209492 -0.270858
v 0.427520 0.207209 -0.447606
v 0.404173 0.219576 -0.078998
v 0.659100 0.234533 -0.027932
v 0.541133 0.210071 -0.480977
v 0.767004 0.213004 -0.449508
v 0.784128 0.129898 0.056261
v 0.791300 0.018171 0.077666
v 0.661132 0.021368 0.132547
v 0.461692 0.004213 0.081317
v 0.454523 0.115219 0.060626
v 0.653955 0.135681 0.110284
v 0.784202 0.438064 -0.285750
v 0.424979 0.428758 -0.297384
v 0.642797 0.433734 -0.058526
v 0.751855 0.435889 -0.111763
v 0.453211 0.437501 -0.468802
v 0.475654 0.424130 -0.109507
v 0.548412 0.441650 -0.501118
v 0.737686 0.442418 -0.470534
v -0.000000 1.964712 -0.963352
v -0.000000 1.715167 -1.003691
v 0.092420 1.729182 -0.965703
v 0.076591 1.955334 -0.937061
v 0.127594 1.709269 -0.913221
v 0.088882 2.048142 -0.898695
v -0.000000 1.692332 -0.956154
v -0.000000 2.059583 -0.930772
v 0.353936 1.702916 2.708303
v 0.462452 1.280363 2.660281
v 0.346085 1.480802 2.971687
v 0.469988 1.221878 2.855409
v 0.431634 1.592706 2.813449
v 0.509515 1.573557 2.827877
v 0.472450 1.597044 2.831118
v 0.537234 1.538795 2.813363
v 0.536419 1.457545 2.772087
v 0.550043 1.498630 2.794442
v 0.514399 1.530793 2.858239
v 0.455471 1.541596 2.862698
v 0.486059 1.545813 2.865550
v 0.527030 1.459278 2.827583
v 0.527210 1.516761 2.851092
v 0.537319 1.488971 2.838657
v 0.372831 1.522089 2.850025
v 0.460350 1.341089 2.786748
v 0.490673 1.568671 2.874488
v 0.529939 1.547654 2.864869
v 0.447174 1.562524 2.870841
v 0.548145 1.527461 2.855335
v 0.562047 1.489027 2.838758
v 0.548125 1.448908 2.823606
v 0.383871 1.499158 2.842007
v 0.450291 1.361904 2.794017
v 0.413090 1.499681 2.830410
v 0.458299 1.405750 2.798958
v 0.473111 1.523061 2.843976
v 0.493557 1.512231 2.838704
v 0.451044 1.520020 2.841918
v 0.502798 1.502112 2.833550
v 0.510091 1.482071 2.824581
v 0.502668 1.460661 2.816596
v 0.399391 1.489420 2.826996
v 0.447307 1.390396 2.792364
v 0.058900 0.855055 3.297602
v 0.055763 0.766982 3.294227
v 0.099802 0.862039 3.270314
v 0.095412 0.773571 3.267758
v -0.000000 0.766679 3.297262
v -0.000000 0.852139 3.300646
v 0.030579 0.786287 3.324126
v -0.000000 0.836500 3.326369
v -0.000000 0.786161 3.323486
v -0.536486 0.941025 0.637457
v -0.532378 2.427516 0.477099
v -0.611853 1.104025 -0.262004
v -0.618819 2.376375 -0.212401
v -0.711769 1.714558 0.007383
v -0.617136 0.938914 0.129841
v -0.609255 2.449538 0.128112
v -0.650310 1.637742 0.513117
v -0.721656 1.703479 0.115969
v -0.835761 0.545885 -1.171310
v -0.536316 2.309552 -0.498341
v -0.470916 1.419612 -0.829535
v -0.464112 2.144318 -0.749118
v -0.090363 0.721248 3.005144
v -0.564680 1.775658 -0.873741
v -0.084677 1.095867 3.146864
v -0.172094 1.516303 3.026164
v -0.444395 1.033346 1.269523
v -0.500005 2.376844 0.889557
v -0.175772 0.777913 2.811173
v -0.609513 1.629029 0.879913
v -0.059274 0.694148 3.235134
v -0.033850 0.838151 3.327725
v -0.047665 0.667588 3.117893
v -0.570340 2.528199 1.239684
v -0.549063 0.432167 1.624212
v -0.118300 1.303386 3.176524
v -0.136209 0.735146 2.919989
v -0.177045 1.737382 2.832503
v -0.583003 2.528340 1.435916
v -0.455344 0.431890 1.685016
v -0.190837 0.828615 2.701773
v -0.177045 1.888001 2.658397
v -0.177045 0.888100 2.567644
v -0.540207 2.469419 1.719261
v -0.658183 1.818257 1.774027
v -0.541264 1.115637 2.027276
v -0.181751 2.052715 2.406352
v -0.181751 1.089469 2.254764
v -0.453393 2.246699 2.004700
v -0.552429 1.615558 1.932038
v -0.453264 1.360009 1.946871
v -0.227127 2.303783 2.071469
v -0.227141 1.257248 1.925624
v -0.271600 2.554620 1.765669
v -0.351331 1.080644 1.793696
v -0.364925 1.997235 2.360651
v -0.444834 1.430490 2.299747
v -0.364925 1.145175 2.209018
v -0.293591 2.618822 1.479477
v -0.294393 1.058833 1.689851
v -0.287261 2.616247 1.276950
v -0.355746 1.841297 2.613467
v -0.433703 1.346220 2.565441
v -0.355746 0.943264 2.528066
v -0.287457 1.068316 1.671521
v -0.250990 2.456718 0.911335
v -0.309688 1.042239 1.439101
v -0.372539 1.560043 2.769312
v -0.455708 1.353318 2.710228
v -0.382651 0.885128 2.665331
v -0.249878 1.659800 -0.902456
v -0.203191 2.104855 -0.851252
v -0.330536 1.348418 -0.788747
v -0.241143 1.285329 3.120778
v -0.339854 1.062202 2.983810
v -0.276080 0.777535 2.888126
v -0.249429 2.261626 -0.659711
v -0.290111 1.174006 -0.564597
v -0.307114 2.557253 0.094061
v -0.069124 0.842388 3.305933
v -0.125993 0.715538 3.200456
v -0.103346 0.693721 3.119144
v -0.064203 0.790288 3.302986
v -0.465527 1.383186 2.803150
v -0.353261 0.827775 2.775520
v -0.313816 0.907543 0.101756
v -0.402860 1.513418 2.846750
v -0.267639 2.510685 0.480969
v -0.268945 0.909324 0.635550
v -0.301448 2.451194 -0.392444
v -0.365891 1.050652 -0.329940
v -0.186642 0.757028 2.973937
v -0.210413 0.888863 3.092144
v -0.175549 1.066424 3.118939
v -0.070240 0.694902 3.056272
v -0.067630 0.929174 3.244259
v -0.139993 0.714589 3.051872
v -0.161300 0.803137 3.145846
v -0.134901 0.923456 3.212036
v -0.611581 2.244506 0.987948
v -0.707224 1.608498 0.945274
v -0.640523 1.104066 1.292257
v -0.672029 2.394913 1.230036
v -0.785345 1.591774 1.449096
v -0.801202 1.107867 1.738199
v -0.636698 2.421625 1.417561
v -0.799141 1.689914 1.596779
v -0.813003 1.120823 1.917652
v -0.641477 2.279244 1.585624
v -0.751535 1.806185 1.747590
v -0.745686 1.158736 2.040217
v -0.430295 0.652164 1.558726
v -0.527472 0.676546 1.480983
v -0.749278 0.708143 2.015885
v -0.599753 0.685410 2.063187
v -0.798785 0.684723 1.897807
v -0.412484 0.630709 1.793927
v -0.789961 0.679533 1.766659
v -0.671652 0.698318 1.474985
v -0.417774 0.633175 1.924847
v -0.461102 0.664158 1.998957
v -0.764228 0.488899 1.989691
v -0.616364 0.487745 2.034812
v -0.558213 -0.029271 1.630381
v -0.814836 0.470471 1.900267
v -0.434002 0.440288 1.819601
v -0.443394 -0.026863 1.689159
v -0.803179 0.455160 1.799988
v -0.686582 0.439451 1.626970
v -0.435605 0.457781 1.933991
v -0.478848 0.476820 2.003748
v -0.455583 0.235018 1.663846
v -0.559233 0.231852 1.608822
v -0.796349 0.285908 1.941045
v -0.634745 0.287358 1.982585
v -0.816074 0.266936 1.859552
v -0.437869 0.245661 1.785998
v -0.805619 0.251399 1.768383
v -0.712088 0.235711 1.611406
v -0.441137 0.263110 1.890076
v -0.485214 0.280246 1.953695
v -0.847908 0.005369 1.985804
v -0.641733 0.002918 2.028646
v -0.679116 -0.005971 1.905344
v -0.843955 -0.002976 1.898415
v -0.423859 -0.018413 1.819659
v -0.667817 -0.016585 1.799147
v -0.833738 -0.013700 1.801643
v -0.727654 -0.026029 1.633416
v -0.429842 -0.006497 1.930246
v -0.448567 -0.000114 1.998784
v -0.446959 0.109451 1.677372
v -0.433791 0.135579 1.911839
v -0.428042 0.119886 1.803902
v -0.822858 0.124970 1.786148
v -0.832695 0.139380 1.880806
v -0.815722 0.209224 1.959818
v -0.640765 0.206869 2.005724
v -0.721533 0.109668 1.623327
v -0.557879 0.106109 1.620494
v -0.477209 0.203670 1.972311
v -0.639471 0.125070 2.149474
v -0.642094 0.008043 2.164561
v -0.818053 0.009944 2.121463
v -0.479404 0.004981 2.134151
v -0.809404 0.127550 2.106912
v -0.482312 0.122650 2.118940
v -0.761152 2.267655 -0.265270
v -0.790694 1.731386 -0.093065
v -0.771647 1.152668 -0.328295
v -0.751711 2.205605 -0.504182
v -0.861792 1.777573 -0.577548
v -0.818493 1.273319 -0.558526
v -0.742641 2.094049 -0.708852
v -0.841360 1.796274 -0.795499
v -0.749383 1.418274 -0.790449
v -0.620089 0.399494 -1.349541
v -0.532136 1.143802 -0.972159
v -0.644388 0.922169 -0.405925
v -0.447699 0.928589 -0.468204
v -0.387562 1.021894 -0.710039
v -0.420200 1.121900 -0.930155
v -0.810225 1.039922 -0.703680
v -0.755013 1.130027 -0.937077
v -0.772576 0.952559 -0.476873
v -0.549791 0.977680 -0.993433
v -0.654856 0.516592 -0.738208
v -0.475178 0.569362 -0.774742
v -0.418936 0.790385 -0.862105
v -0.447934 0.948009 -0.969225
v -0.804177 0.784282 -0.846634
v -0.752913 0.954902 -0.966507
v -0.771237 0.581062 -0.761415
v -0.561329 0.599069 -1.478394
v -0.684296 0.225322 -1.213892
v -0.429121 0.255828 -1.259775
v -0.415492 0.415428 -1.372385
v -0.447964 0.568204 -1.463459
v -0.844193 0.415143 -1.356649
v -0.787401 0.575482 -1.459991
v -0.850331 0.270049 -1.249555
v -0.839968 0.401024 -1.072688
v -0.407050 0.547245 -1.187710
v -0.439532 0.699010 -1.278068
v -0.418740 0.388607 -1.082379
v -0.673959 0.354391 -1.043557
v -0.552892 0.730230 -1.292073
v -0.778968 0.706319 -1.273667
v -0.799923 0.239019 -1.082312
v -0.807731 0.161305 -1.162237
v -0.677922 0.116939 -1.127753
v -0.478224 0.147689 -1.172355
v -0.470433 0.223714 -1.093268
v -0.670086 0.197342 -1.046502
v -0.796444 0.675467 -0.995363
v -0.437189 0.676974 -1.007215
v -0.656662 0.476954 -0.882816
v -0.765341 0.523958 -0.909746
v -0.464222 0.820386 -1.081079
v -0.489204 0.514513 -0.917646
v -0.559191 0.848571 -1.093835
v -0.748656 0.826503 -1.077809
v -0.092476 1.734568 -0.967707
v -0.076591 1.955334 -0.937061
v -0.127825 1.728273 -0.919755
v -0.088882 2.048142 -0.898695
v -0.353936 1.702916 2.708303
v -0.462452 1.280364 2.660282
v -0.346085 1.480803 2.971687
v -0.469988 1.221878 2.855410
v -0.431634 1.592713 2.813450
v -0.509515 1.573570 2.827878
v -0.472450 1.597057 2.831118
v -0.537234 1.538810 2.813365
v -0.536419 1.457553 2.772091
v -0.550043 1.498641 2.794445
v -0.514399 1.530804 2.858241
v -0.455471 1.541607 2.862699
v -0.486059 1.545825 2.865552
v -0.527030 1.459287 2.827586
v -0.527210 1.516772 2.851094
v -0.537319 1.488982 2.838660
v -0.372831 1.522091 2.850026
v -0.460350 1.341090 2.786749
v -0.490673 1.568684 2.874489
v -0.529939 1.547667 2.864871
v -0.447174 1.562534 2.870842
v -0.548145 1.527474 2.855337
v -0.562047 1.489038 2.838761
v -0.548125 1.448917 2.823609
v -0.383871 1.499164 2.842009
v -0.450291 1.361905 2.794018
v -0.413090 1.499688 2.830412
v -0.458299 1.405752 2.798959
v -0.473111 1.523071 2.843978
v -0.493557 1.512239 2.838706
v -0.451044 1.520030 2.841920
v -0.502798 1.502121 2.833552
v -0.510091 1.482081 2.824584
v -0.502668 1.460669 2.816599
v -0.399391 1.489426 2.826998
v -0.447307 1.390399 2.792365
v -0.058900 0.855055 3.297602
v -0.055763 0.766982 3.294227
v -0.099802 0.862039 3.270314
v -0.095412 0.773571 3.267758
v -0.030579 0.786287 3.324126
v 0.291561 1.087901 3.020052
v 0.306648 1.153828 3.043113
v 0.269728 1.081069 3.061419
v 0.232186 1.041454 3.054657
v 0.245906 1.089730 3.032171
v 0.291926 1.159181 3.025037
v 0.256597 1.148126 3.091972
v 0.210577 1.078675 3.099106
v 0.195855 1.084028 3.081030
v 0.232775 1.156787 3.062724
v 0.270316 1.196402 3.069487
v 0.210942 1.149954 3.104092
v 0.285805 1.078438 3.036989
v 0.307506 1.121205 3.026229
v 0.294673 1.117189 3.050544
v 0.307720 1.163102 3.029160
v 0.298852 1.124351 3.015604
v 0.263739 1.055153 3.033015
v 0.250905 1.051136 3.057329
v 0.271803 1.083529 3.019798
v 0.236903 1.056227 3.040139
v 0.272017 1.125426 3.022728
v 0.295019 1.184980 3.055286
v 0.286365 1.188127 3.044662
v 0.265254 1.113837 3.079263
v 0.286955 1.156604 3.068503
v 0.216138 1.049729 3.079482
v 0.238204 1.073014 3.083457
v 0.215548 1.081252 3.055640
v 0.207484 1.052876 3.068857
v 0.264299 1.164841 3.040687
v 0.237249 1.124019 3.044880
v 0.265600 1.181628 3.084005
v 0.230486 1.112430 3.101415
v 0.194783 1.074754 3.094984
v 0.207830 1.120667 3.073599
v 0.251598 1.186719 3.066813
v 0.230700 1.154327 3.104345
v 0.238764 1.182703 3.091129
v 0.203650 1.113505 3.108538
v 0.194997 1.116651 3.097914
v 0.216698 1.159418 3.087154
v -0.291561 1.087901 3.020052
v -0.306648 1.153828 3.043113
v -0.269728 1.081069 3.061419
v -0.232186 1.041453 3.054657
v -0.245906 1.089730 3.032171
v -0.291925 1.159181 3.025037
v -0.256597 1.148125 3.091972
v -0.210577 1.078675 3.099107
v -0.195854 1.084027 3.081031
v -0.232775 1.156787 3.062724
v -0.270316 1.196402 3.069487
v -0.210942 1.149954 3.104092
v -0.285805 1.078438 3.036989
v -0.307506 1.121204 3.026229
v -0.294673 1.117189 3.050545
v -0.307720 1.163102 3.029160
v -0.298852 1.124351 3.015605
v -0.263739 1.055153 3.033015
v -0.250905 1.051136 3.057330
v -0.271803 1.083529 3.019798
v -0.236903 1.056227 3.040139
v -0.272017 1.125426 3.022728
v -0.295019 1.184980 3.055287
v -0.286365 1.188126 3.044662
v -0.265254 1.113837 3.079263
v -0.286955 1.156604 3.068503
v -0.216137 1.049729 3.079482
v -0.238204 1.073014 3.083457
v -0.215548 1.081252 3.055641
v -0.207484 1.052875 3.068857
v -0.264299 1.164841 3.040687
v -0.237249 1.124019 3.044881
v -0.265599 1.181628 3.084005
v -0.230486 1.112430 3.101415
v -0.194782 1.074754 3.094984
v -0.207830 1.120667 3.073599
v -0.251597 1.186719 3.066814
v -0.230700 1.154327 3.104346
v -0.238764 1.182703 3.091129
v -0.203650 1.113505 3.108539
v -0.194997 1.116651 3.097914
v -0.216698 1.159418 3.087154
vn -0.8653 -0.4628 0.1925
vn 0.3803 0.7470 -0.5453
vn 0.9834 -0.1636 -0.0790
vn 0.9892 0.1432 -0.0320
vn 0.9608 0.1802 0.2107
vn 0.9676 -0.1330 0.2146
vn 0.9617 -0.2096 0.1764
vn 0.5228 -0.8069 0.2750
vn 0.3448 -0.9294 -0.1314
vn 0.3298 -0.9203 0.2105
vn 0.1145 0.9633 -0.2428
vn 0.1794 0.9721 0.1514
vn 0.3688 0.6399 -0.6742
vn 0.2557 -0.4071 -0.8769
vn 0.3151 -0.9124 -0.2611
vn 0.6878 0.4222 0.5905
vn 0.3247 0.1203 -0.9381
vn 0.1614 -0.4960 -0.8532
vn 0.2960 0.1274 -0.9466
vn 0.2707 -0.8882 -0.3713
vn 0.7795 0.6259 0.0264
vn 0.9957 -0.0412 -0.0835
vn 0.1518 0.9801 0.1275
vn 0.9791 0.1771 0.0997
vn 0.3467 -0.3539 -0.8687
vn 0.0910 0.9957 -0.0195
vn -0.0090 0.9129 -0.4080
vn -0.7085 0.1696 -0.6850
vn 0.6110 0.1978 -0.7666
vn 0.1542 0.9594 0.2363
vn -0.9711 -0.1783 -0.1588
vn 0.9281 0.1407 -0.3449
vn 0.0134 0.7950 -0.6064
vn 0.8571 -0.2034 0.4733
vn 0.0060 -0.7184 0.6956
vn 0.5095 -0.8481 0.1450
vn 0.3237 -0.9293 -0.1780
vn 0.3658 -0.9229 0.1204
vn 0.3206 -0.6705 0.6691
vn 0.7055 0.5529 -0.4433
vn 0.3305 0.9190 -0.2148
vn 0.9348 -0.3330 0.1233
vn 0.2500 -0.9067 -0.3396
vn 0.2948 0.9462 0.1335
vn 0.2060 0.7386 0.6419
vn 0.0916 0.7964 -0.5977
vn 0.8689 0.1152 0.4814
vn 0.4688 -0.2301 0.8528
vn 0.8364 0.1216 -0.5345
vn 0.3669 -0.3891 -0.8450
vn 0.9856 0.1357 0.1004
vn 0.9745 0.0222 -0.2235
vn 0.1699 0.7665 0.6194
vn 0.5297 -0.8321 -0.1641
vn 0.9439 0.0946 0.3164
vn 0.2855 0.9492 0.1321
vn 0.2435 0.9697 -0.0219
vn 0.9791 0.1919 0.0676
vn 0.1950 0.8799 -0.4334
vn 0.0752 0.7539 0.6526
vn 0.1312 -0.8370 -0.5313
vn 0.9743 -0.2154 -0.0665
vn 0.2760 0.9290 0.2466
vn 0.1166 0.8228 0.5562
vn -0.0041 0.5631 0.8264
vn 0.3685 -0.9233 -0.1085
vn 0.8386 -0.3343 0.4302
vn 0.2122 -0.9359 -0.2812
vn 0.2196 -0.7750 0.5926
vn 0.1838 -0.8916 -0.4140
vn 0.9333 -0.1717 -0.3155
vn 0.1915 -0.9379 0.2894
vn 0.8717 -0.4825 0.0852
vn 0.3324 -0.9233 -0.1924
vn 0.1952 -0.9294 -0.3131
vn 0.3059 0.7070 0.6376
vn 0.3402 0.7213 0.6034
vn 0.7582 0.0076 0.6520
vn 0.4501 0.6068 0.6551
vn 0.1536 -0.8288 -0.5381
vn 0.1859 -0.9553 0.2301
vn 0.8837 -0.0626 0.4638
vn 0.3496 0.7865 0.5091
vn 0.3812 0.4457 0.8100
vn 0.1217 -0.9398 -0.3193
vn 0.4144 0.4950 0.7637
vn 0.1593 -0.8985 -0.4090
vn 0.5346 -0.0950 0.8397
vn 0.1479 -0.9182 -0.3676
vn 0.3937 -0.9064 0.1529
vn -0.3042 -0.4791 0.8233
vn -0.0092 0.5959 0.8030
vn 0.1792 -0.8966 -0.4049
vn 0.9706 -0.2396 -0.0214
vn 0.0310 -0.6355 0.7715
vn 0.0491 0.6579 0.7515
vn 0.6301 -0.1044 0.7694
vn 0.1441 -0.9116 -0.3851
vn -0.1346 -0.0676 0.9886
vn 0.4471 0.6358 0.6291
vn 0.3323 -0.1461 0.9318
vn 0.0463 -0.9928 -0.1102
vn 0.3308 -0.9409 0.0724
vn 0.7809 -0.4074 0.4736
vn 0.4028 0.4240 0.8112
vn 0.1485 -0.9055 -0.3976
vn 0.8472 0.0084 0.5312
vn -0.0169 0.4950 0.8688
vn 0.2233 -0.9034 -0.3659
vn 0.8796 -0.4109 0.2399
vn 0.9419 -0.0780 -0.3268
vn 0.9688 0.2461 0.0305
vn 0.9424 0.1920 -0.2738
vn 0.9444 0.2859 0.1627
vn 0.9978 0.0192 -0.0628
vn 0.9445 -0.0128 0.3283
vn 0.6655 0.1956 0.7204
vn 0.8641 0.4446 0.2360
vn -0.2737 -0.7038 0.6556
vn 0.2570 -0.0724 0.9637
vn 0.0134 0.2080 -0.9780
vn 0.8870 -0.3517 0.2992
vn -0.9844 0.0494 -0.1691
vn -0.9991 -0.0253 -0.0333
vn 0.9982 0.0476 -0.0370
vn 0.3107 -0.7737 0.5521
vn 0.8978 -0.3382 0.2821
vn -0.8196 -0.5084 0.2641
vn -0.0436 0.3158 -0.9478
vn -0.9594 -0.1576 -0.2338
vn 0.9080 -0.3893 0.1550
vn -0.9793 0.1997 -0.0341
vn -0.9997 0.0223 0.0131
vn 0.9967 0.0599 -0.0552
vn 0.2322 -0.9220 0.3099
vn 0.8559 0.4903 -0.1643
vn -0.8797 -0.4055 0.2483
vn -0.2443 -0.8150 0.5254
vn -0.4707 0.2194 -0.8546
vn 0.8883 0.1963 -0.4152
vn 0.0570 0.8684 -0.4925
vn 0.9947 -0.0367 0.0962
vn -0.9792 0.2016 -0.0227
vn -0.9967 0.0251 0.0777
vn 0.9974 0.0716 -0.0110
vn 0.9721 -0.1688 0.1627
vn 0.0551 0.9228 -0.3814
vn -0.8374 -0.5192 0.1709
vn -0.2403 -0.9275 0.2863
vn -0.4690 0.8256 -0.3138
vn -0.0346 -0.4466 -0.8941
vn 0.0062 -0.3443 -0.9388
vn -0.0432 -0.4095 -0.9113
vn -0.0333 -0.4454 -0.8947
vn -0.0669 -0.3253 -0.9433
vn -0.0194 -0.4112 -0.9113
vn -0.9227 -0.2554 0.2886
vn -0.9809 -0.0578 0.1855
vn -0.4184 0.8038 -0.4229
vn 0.8658 0.4383 -0.2415
vn 0.8733 0.4204 -0.2462
vn -0.4334 0.7683 -0.4710
vn -0.2376 -0.7044 0.6689
vn -0.8701 -0.3152 0.3790
vn 0.2356 -0.6891 0.6852
vn 0.9949 0.0999 0.0166
vn -0.9926 0.0630 0.1039
vn -0.9766 0.2150 0.0045
vn 0.9772 -0.0755 0.1985
vn 0.0523 0.8255 -0.5620
vn 0.1991 -0.9012 0.3850
vn -0.2347 -0.8879 0.3957
vn 0.1191 -0.2445 0.9623
vn 0.0076 -0.2911 -0.9567
vn -0.0823 -0.2306 0.9695
vn -0.0694 -0.2823 -0.9568
vn 0.9871 0.1559 0.0355
vn 0.9600 -0.2209 -0.1722
vn 0.9855 -0.0428 0.1644
vn 0.9506 0.2378 -0.1998
vn 0.5672 -0.1095 0.8163
vn 0.4805 0.7380 -0.4737
vn 0.9838 -0.0593 0.1692
vn 0.3845 0.6353 -0.6697
vn -0.9734 -0.0781 0.2154
vn -0.3591 -0.2192 -0.9072
vn -0.3318 -0.0340 0.9428
vn 0.9880 -0.0121 0.1540
vn 0.1984 0.0998 -0.9750
vn -0.2685 -0.0317 -0.9628
vn -0.9272 -0.3236 -0.1885
vn -0.2537 -0.3574 0.8988
vn -0.2788 -0.0894 -0.9562
vn -0.9429 -0.0039 0.3331
vn 0.9991 0.0346 -0.0245
vn -0.9812 -0.0482 -0.1868
vn 0.5063 -0.0048 0.8624
vn 0.1869 -0.1962 -0.9626
vn 0.9773 -0.0471 -0.2068
vn -0.9823 -0.1217 -0.1422
vn 0.0062 -0.9978 0.0663
vn 0.0517 -0.9975 0.0490
vn 0.0412 -0.9991 0.0045
vn 0.0075 -0.9998 0.0185
vn -0.9977 -0.0312 0.0601
vn 0.9442 0.0863 0.3178
vn 0.1383 -0.0778 -0.9873
vn 0.9602 0.0083 -0.2792
vn 0.9581 0.1170 -0.2614
vn 0.1481 -0.0809 -0.9857
vn 0.3548 0.2154 0.9098
vn -0.9561 0.2518 0.1501
vn -0.9794 0.1056 -0.1723
vn 0.9612 0.2660 0.0732
vn -0.2410 0.1773 0.9542
vn -0.2975 -0.0640 -0.9526
vn -0.2565 0.1652 0.9523
vn 0.3840 0.1986 0.9017
vn -0.1934 0.7766 0.5995
vn 0.0589 -0.9953 0.0770
vn 0.2377 0.7653 0.5981
vn 0.0094 -0.9961 0.0873
vn -0.3035 -0.3513 -0.8857
vn -0.3088 -0.2264 0.9238
vn 0.9859 -0.0452 0.1613
vn -0.9784 -0.1261 -0.1636
vn -0.9700 -0.0878 0.2269
vn 0.4741 -0.2051 0.8562
vn 0.1625 -0.3462 -0.9240
vn 0.9682 -0.0945 -0.2315
vn 0.3482 0.1459 -0.9260
vn 0.2874 -0.8401 -0.4601
vn 0.3507 0.3110 -0.8834
vn 0.2410 0.5471 -0.8016
vn 0.2238 -0.2286 -0.9474
vn 0.3501 0.0809 -0.9332
vn 0.9574 0.2791 0.0736
vn 0.9323 0.2784 0.2309
vn 0.9963 0.0827 -0.0231
vn 0.8963 0.2960 0.3301
vn -0.5838 0.6996 0.4121
vn 0.7670 0.6417 -0.0017
vn 0.8100 -0.5535 -0.1936
vn 0.5179 0.8035 0.2936
vn -0.2380 0.8030 0.5464
vn 0.9133 0.3784 -0.1507
vn 0.9428 -0.1949 -0.2704
vn 0.2578 0.4226 -0.8689
vn -0.0621 -0.3557 0.9325
vn 0.0302 -0.3780 0.9253
vn -0.0305 -0.3655 0.9303
vn 0.0068 -0.3992 0.9168
vn -0.0000 -0.3517 0.9361
vn 0.0380 -0.4098 0.9114
vn -0.0435 -0.4081 0.9119
vn 0.0463 -0.3494 0.9358
vn -0.0026 -0.3636 0.9316
vn 0.0089 -0.3263 0.9452
vn 0.1657 -0.7015 0.6932
vn -0.0314 -0.3374 0.9408
vn 0.2956 -0.6323 0.7161
vn -0.4092 0.0379 0.9116
vn -0.4126 -0.1893 0.8910
vn -0.1423 -0.6372 0.7574
vn 0.7272 0.1152 0.6767
vn -0.2084 -0.5883 0.7813
vn -0.5104 -0.0037 0.8599
vn 0.0291 -0.6965 0.7170
vn 0.3193 0.6870 0.6527
vn 0.5296 -0.4597 0.7129
vn 0.5248 -0.5167 0.6765
vn -0.0292 -0.0623 0.9976
vn 0.0200 -0.8183 0.5745
vn -0.0339 0.8700 0.4918
vn 0.7525 -0.0755 0.6542
vn 0.8402 -0.5422 -0.0069
vn -0.2972 0.8367 -0.4600
vn -0.9882 -0.1327 -0.0767
vn -0.9897 0.1414 -0.0203
vn -0.9665 0.1482 0.2094
vn -0.9791 -0.1316 0.1552
vn -0.9776 -0.1542 0.1430
vn -0.1215 -0.9799 0.1581
vn -0.2004 -0.9212 -0.3334
vn -0.1089 -0.9939 0.0168
vn -0.1101 0.9649 -0.2382
vn -0.1800 0.9720 0.1511
vn -0.1695 0.7746 -0.6093
vn -0.2093 -0.1181 -0.9707
vn -0.1799 -0.8931 -0.4124
vn -0.6243 0.2998 0.7213
vn -0.1546 0.2353 -0.9595
vn -0.0692 -0.2310 -0.9705
vn -0.2133 0.3526 -0.9111
vn -0.3057 -0.8052 -0.5081
vn -0.8400 0.5425 0.0117
vn -0.9975 -0.0300 -0.0645
vn -0.1536 0.9798 0.1284
vn -0.9837 0.1473 0.1036
vn -0.3236 -0.5726 -0.7533
vn -0.1126 0.9934 -0.0206
vn -0.0057 0.9156 -0.4021
vn 0.6369 -0.4509 -0.6254
vn -0.6670 0.1266 -0.7342
vn -0.1646 0.9590 0.2308
vn 0.9659 -0.2500 0.0674
vn -0.9327 -0.0674 -0.3542
vn 0.0059 0.8074 -0.5900
vn -0.3969 0.1632 0.9032
vn 0.4177 -0.3149 0.8523
vn 0.0383 -0.9892 0.1417
vn -0.0480 -0.9652 -0.2571
vn 0.0321 -0.9984 0.0476
vn -0.0930 0.0196 0.9955
vn -0.7720 0.4810 -0.4156
vn -0.3393 0.9197 -0.1977
vn -0.9420 -0.3241 0.0872
vn -0.2937 -0.8315 -0.4716
vn -0.3096 0.9410 0.1367
vn -0.2079 0.7387 0.6412
vn -0.0308 0.8052 -0.5923
vn -0.8536 0.1374 0.5025
vn -0.4803 -0.5064 0.7162
vn -0.8028 0.1369 -0.5803
vn -0.1475 -0.2898 -0.9456
vn -0.9855 0.1361 0.1016
vn -0.9727 0.1095 -0.2046
vn -0.1704 0.7665 0.6192
vn -0.2994 -0.9538 -0.0258
vn -0.9421 0.1052 0.3184
vn -0.3058 0.9425 0.1348
vn -0.2950 0.9553 -0.0206
vn -0.9791 0.1919 0.0676
vn -0.2313 0.8793 -0.4164
vn -0.0752 0.7539 0.6526
vn -0.1312 -0.8370 -0.5313
vn -0.9751 -0.2108 -0.0693
vn -0.3262 0.9156 0.2350
vn -0.1166 0.8228 0.5562
vn 0.0041 0.5631 0.8264
vn -0.2560 -0.9534 0.1593
vn -0.8386 -0.3343 0.4302
vn -0.2122 -0.9359 -0.2812
vn -0.0489 -0.6831 0.7287
vn -0.1838 -0.8916 -0.4140
vn -0.9333 -0.1717 -0.3155
vn -0.0508 -0.9089 0.4140
vn -0.8717 -0.4825 0.0852
vn -0.3324 -0.9233 -0.1924
vn -0.2815 -0.8935 -0.3498
vn -0.3442 0.6941 0.6323
vn -0.3608 0.7207 0.5920
vn -0.7582 0.0076 0.6520
vn -0.4501 0.6068 0.6551
vn -0.1536 -0.8288 -0.5381
vn -0.1859 -0.9553 0.2301
vn -0.8837 -0.0626 0.4638
vn -0.3496 0.7865 0.5091
vn -0.3812 0.4457 0.8100
vn -0.1217 -0.9398 -0.3193
vn -0.4144 0.4950 0.7637
vn -0.1593 -0.8985 -0.4090
vn -0.5346 -0.0950 0.8397
vn -0.1479 -0.9182 -0.3676
vn -0.3937 -0.9064 0.1529
vn 0.3042 -0.4791 0.8234
vn 0.0092 0.5959 0.8030
vn -0.1792 -0.8966 -0.4049
vn -0.9706 -0.2396 -0.0214
vn -0.0310 -0.6355 0.7715
vn -0.0491 0.6579 0.7515
vn -0.6301 -0.1044 0.7694
vn -0.1441 -0.9116 -0.3851
vn 0.1346 -0.0676 0.9886
vn -0.4471 0.6358 0.6291
vn -0.3323 -0.1461 0.9318
vn -0.0463 -0.9928 -0.1102
vn -0.3308 -0.9409 0.0724
vn -0.7809 -0.4074 0.4736
vn -0.4028 0.4240 0.8112
vn -0.1485 -0.9055 -0.3976
vn -0.8472 0.0084 0.5312
vn 0.0169 0.4950 0.8688
vn -0.2233 -0.9034 -0.3659
vn -0.8796 -0.4109 0.2399
vn -0.9487 -0.2041 -0.2413
vn -0.9843 0.1762 -0.0024
vn -0.9725 0.1165 -0.2015
vn -0.9545 0.2582 0.1493
vn -0.9972 -0.0143 -0.0732
vn -0.9390 0.1598 0.3046
vn -0.7627 0.2682 0.5885
vn -0.9059 0.3532 0.2338
vn 0.6766 0.0742 0.7326
vn -0.0030 0.3746 0.9272
vn -0.0420 -0.5033 -0.8631
vn -0.9031 0.0412 0.4274
vn 0.9823 -0.1519 -0.1094
vn 0.9940 -0.1035 0.0363
vn -0.9939 0.0587 -0.0932
vn -0.3027 -0.1011 0.9477
vn -0.8958 -0.0328 0.4432
vn 0.8728 0.0134 0.4878
vn -0.1615 -0.4340 -0.8863
vn 0.9493 -0.3046 -0.0783
vn -0.9241 -0.0082 0.3821
vn 0.9884 0.0108 -0.1512
vn 0.9992 -0.0295 0.0270
vn -0.9924 0.0302 -0.1195
vn -0.2639 -0.2028 0.9430
vn -0.8322 0.1197 -0.5413
vn 0.8454 -0.0625 0.5305
vn 0.3160 -0.0861 0.9448
vn 0.4752 -0.4767 -0.7396
vn -0.8856 -0.1204 -0.4485
vn -0.0191 -0.0730 -0.9971
vn -0.9918 0.1267 0.0180
vn 0.9888 0.0130 -0.1489
vn 0.9982 0.0349 0.0492
vn -0.9915 0.0649 -0.1124
vn -0.9757 0.1447 0.1643
vn -0.0154 0.0777 -0.9969
vn 0.8050 -0.1616 0.5708
vn 0.1822 -0.2560 0.9494
vn 0.5043 0.0660 -0.8610
vn -0.0131 -0.9977 0.0665
vn -0.0261 -0.9960 0.0856
vn -0.0142 -0.9947 0.1022
vn -0.0172 -0.9979 0.0631
vn -0.0071 -0.9968 0.0800
vn -0.0191 -0.9945 0.1025
vn 0.9209 0.1343 0.3661
vn 0.9808 0.1165 0.1564
vn 0.4563 -0.0654 -0.8874
vn -0.8473 0.0030 -0.5311
vn -0.8524 0.0287 -0.5221
vn 0.4629 -0.0702 -0.8836
vn 0.1968 0.2542 0.9469
vn 0.8554 0.1617 0.4921
vn -0.2402 0.2862 0.9276
vn -0.9857 0.1121 -0.1257
vn 0.9969 0.0725 0.0311
vn 0.9872 0.0537 -0.1500
vn -0.9742 0.1943 0.1152
vn -0.0192 -0.0927 -0.9955
vn -0.2367 0.1329 0.9625
vn 0.1878 0.1260 0.9741
vn -0.1133 0.8649 0.4891
vn -0.0199 -0.9991 0.0378
vn 0.1123 0.8661 0.4871
vn -0.0109 -0.9993 0.0364
vn -0.9852 0.1509 0.0807
vn -0.9570 -0.1535 -0.2463
vn -0.9861 -0.0853 0.1428
vn -0.9445 0.3008 -0.1320
vn -0.5984 -0.3629 0.7143
vn -0.4544 0.8434 -0.2867
vn -0.9853 -0.1071 0.1334
vn -0.2856 0.7955 -0.5344
vn 0.9676 -0.2079 0.1436
vn 0.3207 0.1238 -0.9391
vn 0.2889 -0.6221 0.7277
vn -0.9865 -0.1002 0.1299
vn -0.1433 0.4650 -0.8736
vn 0.4069 0.3539 -0.8421
vn 0.9262 -0.2332 -0.2964
vn 0.1319 -0.7007 0.7012
vn 0.2845 0.7775 -0.5609
vn 0.9385 -0.2973 0.1755
vn -0.9987 0.0479 0.0172
vn 0.9823 0.1285 -0.1360
vn -0.4768 -0.5431 0.6912
vn -0.1551 0.1521 -0.9761
vn -0.9688 0.0761 -0.2359
vn 0.9756 -0.0406 -0.2157
vn -0.0062 -0.6044 -0.7967
vn -0.0615 -0.5864 -0.8077
vn -0.0458 -0.5265 -0.8490
vn -0.0116 -0.5394 -0.8419
vn 0.9971 -0.0765 0.0041
vn -0.9448 -0.2183 0.2443
vn -0.1316 0.8137 -0.5662
vn -0.9581 0.2530 -0.1346
vn -0.9522 0.3043 -0.0261
vn -0.1362 0.8512 -0.5069
vn -0.3630 -0.6899 0.6263
vn 0.9571 -0.0142 0.2894
vn 0.9794 0.2019 0.0080
vn -0.9610 0.0777 0.2653
vn 0.2349 -0.7537 0.6138
vn 0.2971 0.8266 -0.4780
vn 0.2525 -0.7048 0.6630
vn -0.3910 -0.6378 0.6636
vn 0.1935 -0.0708 0.9785
vn -0.0734 -0.6149 -0.7852
vn -0.2339 -0.0704 0.9697
vn -0.0029 -0.6246 -0.7810
vn 0.3127 0.5865 -0.7472
vn 0.2957 -0.9123 0.2835
vn -0.9866 -0.1575 0.0427
vn 0.9789 0.0659 -0.1934
vn 0.9663 -0.2542 0.0402
vn -0.4750 -0.8376 0.2700
vn -0.1552 0.6292 -0.7616
vn -0.9647 0.1710 -0.2005
vn -0.3337 0.1517 -0.9304
vn -0.3424 -0.8558 -0.3878
vn -0.3507 0.3110 -0.8834
vn -0.2131 0.5088 -0.8341
vn -0.1807 -0.2014 -0.9627
vn -0.2678 0.1203 -0.9559
vn -0.9574 0.2791 0.0736
vn -0.9323 0.2784 0.2309
vn -0.9963 0.0827 -0.0231
vn -0.8963 0.2960 0.3301
vn 0.5838 0.6995 0.4120
vn -0.7670 0.6417 -0.0017
vn -0.8101 -0.5535 -0.1936
vn -0.5179 0.8035 0.2936
vn 0.2381 0.8030 0.5464
vn -0.9133 0.3784 -0.1507
vn -0.9428 -0.1949 -0.2704
vn -0.2578 0.4226 -0.8689
vn 0.0621 -0.3557 0.9325
vn -0.0302 -0.3780 0.9253
vn 0.0305 -0.3655 0.9303
vn -0.0068 -0.3992 0.9169
vn -0.0380 -0.4098 0.9114
vn 0.0435 -0.4081 0.9119
vn -0.0463 -0.3494 0.9358
vn 0.0026 -0.3636 0.9316
vn -0.0089 -0.3262 0.9453
vn -0.1657 -0.7015 0.6932
vn 0.0314 -0.3374 0.9409
vn -0.2956 -0.6323 0.7161
vn 0.4092 0.0379 0.9116
vn 0.4126 -0.1893 0.8910
vn 0.1423 -0.6372 0.7574
vn -0.7272 0.1152 0.6767
vn 0.2084 -0.5883 0.7813
vn 0.5105 -0.0037 0.8599
vn -0.0291 -0.6964 0.7170
vn -0.3193 0.6870 0.6527
vn -0.5296 -0.4597 0.7129
vn -0.5248 -0.5167 0.6765
vn 0.0292 -0.0623 0.9976
vn -0.0200 -0.8183 0.5745
vn 0.0339 0.8700 0.4918
vn -0.7525 -0.0755 0.6542
vn 0.8961 -0.4399 0.0587
vn 0.9975 -0.0100 0.0700
vn 0.7307 -0.6709 -0.1265
vn 0.1099 -0.4452 -0.8887
vn 0.0413 -0.1291 -0.9908
vn 0.9363 0.2551 0.2415
vn 0.6878 -0.2725 0.6728
vn 0.3444 -0.8010 0.4897
vn -0.6069 -0.0258 -0.7944
vn -0.4208 0.3066 -0.8538
vn 0.7919 0.0581 0.6079
vn 0.5964 -0.3195 0.7363
vn -0.3952 -0.9172 0.0503
vn -0.6285 0.1258 -0.7676
vn -0.3576 0.4760 -0.8034
vn 0.4470 0.0915 0.8898
vn 0.2431 -0.2082 0.9474
vn -0.9975 0.0100 -0.0700
vn -0.7601 0.3626 -0.5393
vn -0.4475 0.8898 -0.0892
vn -0.7307 0.6709 0.1265
vn -0.6822 0.6885 -0.2463
vn -0.6942 0.5064 -0.5114
vn -0.8961 0.4399 -0.0587
vn -0.8552 0.3343 -0.3961
vn -0.8798 0.2001 -0.4313
vn -0.7220 0.2243 0.6545
vn -0.7805 -0.0397 0.6239
vn -0.1738 -0.2895 0.9413
vn -0.0413 0.1291 0.9908
vn 0.2534 -0.0688 0.9649
vn 0.4174 -0.0655 0.9064
vn -0.1099 0.4452 0.8887
vn 0.2535 0.3483 0.9025
vn 0.2197 0.6472 0.7300
vn -0.3444 0.8010 -0.4897
vn -0.4625 0.5561 -0.6905
vn -0.5848 0.4591 -0.6687
vn -0.6878 0.2725 -0.6728
vn -0.6976 0.1795 -0.6937
vn -0.7767 0.1288 -0.6165
vn -0.9363 -0.2551 -0.2415
vn -0.6272 -0.7197 0.2977
vn -0.0725 -0.5692 0.8190
vn 0.4208 -0.3066 0.8538
vn 0.5257 -0.2653 0.8082
vn 0.5343 -0.1719 0.8276
vn 0.6069 0.0258 0.7944
vn 0.6835 0.1395 0.7165
vn 0.5927 0.4602 0.6609
vn -0.5964 0.3195 -0.7363
vn -0.5257 0.2653 -0.8082
vn -0.5343 0.1719 -0.8276
vn -0.7919 -0.0581 -0.6079
vn -0.6835 -0.1395 -0.7165
vn -0.5927 -0.4603 -0.6609
vn 0.3576 -0.4760 0.8034
vn 0.4625 -0.5561 0.6905
vn 0.5848 -0.4591 0.6687
vn 0.6285 -0.1258 0.7676
vn 0.6976 -0.1794 0.6937
vn 0.7767 -0.1288 0.6165
vn 0.3952 0.9172 -0.0503
vn 0.6272 0.7197 -0.2977
vn 0.0725 0.5692 -0.8190
vn -0.2432 0.2082 -0.9474
vn -0.2534 0.0688 -0.9649
vn -0.4174 0.0655 -0.9064
vn -0.4471 -0.0915 -0.8898
vn -0.2535 -0.3483 -0.9025
vn -0.2197 -0.6472 -0.7300
vn 0.4475 -0.8898 0.0892
vn 0.6821 -0.6885 0.2463
vn 0.6942 -0.5064 0.5114
vn 0.1738 0.2895 -0.9413
vn 0.7805 0.0397 -0.6239
vn 0.7220 -0.2243 -0.6545
vn 0.7601 -0.3626 0.5393
vn 0.8552 -0.3343 0.3961
vn 0.8798 -0.2001 0.4313
vn -0.8961 -0.4399 0.0587
vn -0.9975 -0.0100 0.0700
vn -0.7307 -0.6709 -0.1265
vn -0.1099 -0.4452 -0.8887
vn -0.0413 -0.1291 -0.9908
vn -0.9363 0.2551 0.2415
vn -0.6878 -0.2724 0.6728
vn -0.3444 -0.8010 0.4897
vn 0.6069 -0.0258 -0.7944
vn 0.4208 0.3066 -0.8538
vn -0.7919 0.0581 0.6079
vn -0.5964 -0.3195 0.7363
vn 0.3952 -0.9172 0.0503
vn 0.6285 0.1258 -0.7676
vn 0.3576 0.4760 -0.8034
vn -0.4471 0.0915 0.8898
vn -0.2432 -0.2082 0.9474
vn 0.9975 0.0100 -0.0700
vn 0.7601 0.3626 -0.5393
vn 0.4475 0.8898 -0.0892
vn 0.7307 0.6709 0.1265
vn 0.6822 0.6885 -0.2463
vn 0.6942 0.5064 -0.5114
vn 0.8961 0.4399 -0.0587
vn 0.8552 0.3343 -0.3961
vn 0.8798 0.2001 -0.4313
vn 0.7220 0.2243 0.6545
vn 0.7805 -0.0397 0.6239
vn 0.1738 -0.2895 0.9413
vn 0.0413 0.1292 0.9908
vn -0.2534 -0.0688 0.9649
vn -0.4174 -0.0655 0.9064
vn 0.1099 0.4452 0.8887
vn -0.2535 0.3483 0.9025
vn -0.2197 0.6472 0.7300
vn 0.3444 0.8010 -0.4897
vn 0.4625 0.5561 -0.6905
vn 0.5848 0.4591 -0.6687
vn 0.6878 0.2725 -0.6728
vn 0.6976 0.1795 -0.6937
vn 0.7767 0.1288 -0.6165
vn 0.9363 -0.2551 -0.2415
vn 0.6272 -0.7197 0.2977
vn 0.0725 -0.5692 0.8190
vn -0.4208 -0.3066 0.8538
vn -0.5257 -0.2653 0.8082
vn -0.5343 -0.1719 0.8277
vn -0.6069 0.0258 0.7944
vn -0.6835 0.1395 0.7165
vn -0.5927 0.4603 0.6609
vn 0.5964 0.3196 -0.7363
vn 0.5257 0.2653 -0.8082
vn 0.5343 0.1719 -0.8276
vn 0.7919 -0.0581 -0.6079
vn 0.6835 -0.1395 -0.7165
vn 0.5927 -0.4603 -0.6609
vn -0.3576 -0.4760 0.8034
vn -0.4625 -0.5561 0.6905
vn -0.5848 -0.4591 0.6687
vn -0.6285 -0.1258 0.7676
vn -0.6976 -0.1795 0.6937
vn -0.7767 -0.1288 0.6165
vn -0.3952 0.9172 -0.0503
vn -0.6272 0.7197 -0.2977
vn -0.0725 0.5692 -0.8190
vn 0.2431 0.2082 -0.9474
vn 0.2534 0.0688 -0.9649
vn 0.4174 0.0655 -0.9064
vn 0.4470 -0.0915 -0.8898
vn 0.2535 -0.3483 -0.9025
vn 0.2197 -0.6472 -0.7300
vn -0.4475 -0.8898 0.0892
vn -0.6822 -0.6885 0.2463
vn -0.6942 -0.5064 0.5114
vn -0.1738 0.2895 -0.9413
vn -0.7805 0.0397 -0.6239
vn -0.7220 -0.2243 -0.6545
vn -0.7601 -0.3626 0.5393
vn -0.8552 -0.3343 0.3961
vn -0.8798 -0.2001 0.4313
vt 0.833374 0.494548
vt 0.893919 0.512741
vt 0.908415 0.468160
vt 0.848637 0.467455
vt 0.567859 0.867914
vt 0.639317 0.828812
vt 0.620915 0.894044
vt 0.556155 0.927906
vt 0.812683 0.509803
vt 0.774909 0.642712
vt 0.751394 0.643294
vt 0.751725 0.493743
vt 0.828812 0.793372
vt 0.751727 0.811870
vt 0.672932 0.807420
vt 0.672336 0.642732
vt 0.672998 0.503429
vt 0.598676 0.643182
vt 0.594201 0.530171
vt 0.560191 0.672195
vt 0.619753 0.672998
vt 0.599703 0.594201
vt 0.569702 0.558226
vt 0.580250 0.833374
vt 0.635423 0.812683
vt 0.637090 0.751725
vt 0.569078 0.759035
vt 0.500000 0.859251
vt 0.500000 0.750726
vt 0.569078 0.758996
vt 0.500000 0.657595
vt 0.560191 0.671923
vt 0.604420 0.951058
vt 0.545714 0.976119
vt 0.604420 0.548422
vt 0.626365 0.643481
vt 0.688416 0.643970
vt 0.666902 0.547256
vt 0.500000 0.917421
vt 0.563590 0.893919
vt 0.639317 0.793372
vt 0.659328 0.642712
vt 0.676970 0.643370
vt 0.671449 0.761101
vt 0.555994 0.632181
vt 0.545714 0.747180
vt 0.604420 0.735145
vt 0.572975 0.538591
vt 0.666902 0.715601
vt 0.500000 0.969030
vt 0.572975 0.947229
vt 0.501290 0.830086
vt 0.457158 0.830118
vt 0.460328 0.806630
vt 0.500288 0.803578
vt 0.499838 0.512886
vt 0.460007 0.507514
vt 0.481582 0.413128
vt 0.510774 0.417065
vt 0.500000 0.559830
vt 0.556447 0.575135
vt 0.579931 0.796381
vt 0.599703 0.530171
vt 0.637090 0.643182
vt 0.659115 0.643738
vt 0.643940 0.535244
vt 0.564556 0.492909
vt 0.500000 0.477524
vt 0.500000 0.432743
vt 0.566016 0.447361
vt 0.569702 0.518348
vt 0.616981 0.429733
vt 0.594994 0.421068
vt 0.612448 0.796381
vt 0.637526 0.771615
vt 0.500000 0.371229
vt 0.561082 0.382998
vt 0.450625 0.491920
vt 0.495971 0.498202
vt 0.507939 0.406303
vt 0.474705 0.401699
vt 0.591615 0.535244
vt 0.575831 0.433451
vt 0.407144 0.499901
vt 0.406490 0.640437
vt 0.358675 0.605643
vt 0.363238 0.556600
vt 0.578790 0.420824
vt 0.621227 0.407144
vt 0.601979 0.363238
vt 0.551080 0.357545
vt 0.500000 0.657756
vt 0.500000 0.571782
vt 0.667216 0.508652
vt 0.621227 0.499901
vt 0.632756 0.407548
vt 0.666461 0.413961
vt 0.556577 0.771615
vt 0.637090 0.751727
vt 0.260484 0.580516
vt 0.278839 0.520364
vt 0.582070 0.278839
vt 0.540875 0.268345
vt 0.619753 0.672932
vt 0.500000 0.307117
vt 0.551080 0.314473
vt 0.500000 0.983839
vt 0.393435 0.816867
vt 0.325561 0.763148
vt 0.671449 0.517077
vt 0.635423 0.509803
vt 0.642381 0.470278
vt 0.671266 0.470798
vt 0.988807 0.740196
vt 1.002924 0.661469
vt 1.015365 0.669173
vt 1.001496 0.721513
vt 0.500000 0.531683
vt 0.500000 0.631036
vt 0.249130 0.712570
vt 0.191059 0.679456
vt 0.198981 0.567653
vt 0.945839 0.547256
vt 0.886123 0.529161
vt 0.904522 0.470747
vt 0.963512 0.471464
vt 0.500000 0.238897
vt 0.540875 0.239236
vt 0.564556 0.495971
vt 0.612448 0.579931
vt 0.628268 0.501290
vt 0.631115 0.457158
vt 0.168698 0.648799
vt 0.177283 0.553376
vt 0.539817 0.181283
vt 0.500000 0.184290
vt 0.500000 0.144817
vt 0.539817 0.140934
vt 0.580006 0.205473
vt 0.539817 0.196322
vt 0.205473 0.476864
vt 0.621491 0.393435
vt 0.538703 0.608225
vt 0.500000 0.615960
vt 0.500000 0.567098
vt 0.526605 0.560962
vt 0.566016 0.450625
vt 0.149293 0.452102
vt 0.133162 0.541160
vt 0.103583 0.505809
vt 0.123733 0.441345
vt 0.539531 0.141037
vt 0.579447 0.149293
vt 0.562090 0.123733
vt 0.530633 0.116366
vt 0.500000 0.385014
vt 0.500000 0.353218
vt 0.586057 0.174337
vt 0.542919 0.165879
vt 0.174337 0.464471
vt 0.086614 0.427976
vt 0.065909 0.448336
vt 0.053210 0.428901
vt 0.071388 0.423606
vt 0.515797 0.085531
vt 0.531484 0.086614
vt 0.523242 0.071388
vt 0.510720 0.071544
vt 0.500000 0.266808
vt 0.601979 0.325561
vt 0.582070 0.249130
vt 0.108290 0.599988
vt 0.073849 0.556649
vt 0.580006 0.679456
vt 0.539817 0.690304
vt 0.539817 0.657159
vt 0.579599 0.648799
vt 0.500000 0.199929
vt 0.513331 0.045311
vt 0.500000 0.046647
vt 0.500000 0.069896
vt 0.051602 0.475706
vt 0.038205 0.462176
vt 0.038356 0.442272
vt 0.580006 0.191059
vt 0.577833 0.599988
vt 0.554232 0.556649
vt 0.500000 0.147087
vt 0.500000 0.124516
vt 0.530339 0.475706
vt 0.515210 0.477146
vt 0.513246 0.460736
vt 0.522445 0.462176
vt 0.500000 0.170521
vt 0.515546 0.457928
vt 0.507613 0.457080
vt 0.506877 0.445401
vt 0.514439 0.446199
vt 0.500000 0.089031
vt 0.528336 0.053210
vt 0.620841 0.601238
vt 0.618568 0.607555
vt 0.613078 0.604170
vt 0.614718 0.599612
vt 0.500000 0.479371
vt 0.500000 0.460095
vt 0.513331 0.424258
vt 0.512541 0.440917
vt 0.500000 0.440864
vt 0.500000 0.422187
vt 0.500000 0.664242
vt 0.576432 0.505809
vt 0.539481 0.507406
vt 0.547321 0.467354
vt 0.500000 0.513551
vt 0.519044 0.508271
vt 0.579599 0.168698
vt 0.538703 0.096221
vt 0.577833 0.108290
vt 0.520322 0.097153
vt 0.500000 0.106427
vt 0.541975 0.104341
vt 0.078394 0.467354
vt 0.104341 0.437145
vt 0.073220 0.507406
vt 0.590300 0.643738
vt 0.499630 0.641384
vt 0.459655 0.640419
vt 0.417546 0.774144
vt 0.414448 0.641253
vt 0.423095 0.508652
vt 0.621491 0.816867
vt 0.648114 0.640437
vt 0.669097 0.641253
vt 0.644267 0.774144
vt 0.578790 0.496630
vt 0.601625 0.405151
vt 0.649402 0.433451
vt 0.651726 0.367843
vt 0.620780 0.366797
vt 0.454529 0.413961
vt 0.467814 0.368189
vt 0.488225 0.366596
vt 0.561691 0.421068
vt 0.537425 0.365401
vt 0.507200 0.363509
vt 0.481273 0.364028
vt 0.510983 0.366114
vt 0.635806 0.367147
vt 0.669092 0.368189
vt 0.420824 0.496630
vt 0.452865 0.405151
vt 0.558226 0.518348
vt 0.484328 0.324872
vt 0.502799 0.322553
vt 0.547406 0.321655
vt 0.519920 0.320969
vt 0.496410 0.322232
vt 0.523434 0.321439
vt 0.639292 0.324944
vt 0.675657 0.324872
vt 0.550036 0.367843
vt 0.558926 0.322330
vt 0.465216 0.366023
vt 0.604868 0.366023
vt 0.599660 0.365401
vt 0.621651 0.293283
vt 0.658462 0.293469
vt 0.659368 0.261742
vt 0.621257 0.261665
vt 0.501495 0.293600
vt 0.482345 0.307625
vt 0.480362 0.262732
vt 0.500191 0.261781
vt 0.519246 0.292376
vt 0.547742 0.292993
vt 0.548078 0.261464
vt 0.518571 0.260916
vt 0.494871 0.293528
vt 0.493332 0.261956
vt 0.522889 0.292587
vt 0.522344 0.260869
vt 0.451756 0.288897
vt 0.449773 0.262732
vt 0.656778 0.322330
vt 0.622394 0.322035
vt 0.481902 0.324350
vt 0.605664 0.324350
vt 0.599057 0.321655
vt 0.595403 0.548078
vt 0.621257 0.561263
vt 0.645824 0.523009
vt 0.590945 0.518571
vt 0.639859 0.470735
vt 0.648324 0.498544
vt 0.685407 0.500191
vt 0.686261 0.480362
vt 0.592251 0.493332
vt 0.659368 0.560446
vt 0.683143 0.522344
vt 0.596433 0.477757
vt 0.479829 0.307317
vt 0.477757 0.262636
vt 0.447168 0.262636
vt 0.449241 0.288588
vt 0.596679 0.292993
vt 0.595403 0.261464
vt 0.559686 0.293469
vt 0.560446 0.261742
vt 0.603589 0.307317
vt 0.640355 0.307779
vt 0.679739 0.307625
vt 0.677932 0.288897
vt 0.639680 0.289050
vt 0.639859 0.262967
vt 0.679465 0.262732
vt 0.604354 0.288588
vt 0.603287 0.262636
vt 0.679739 0.482345
vt 0.640355 0.473048
vt 0.639680 0.442459
vt 0.677932 0.451756
vt 0.679465 0.449773
vt 0.639859 0.440146
vt 0.603589 0.479829
vt 0.604354 0.449241
vt 0.603287 0.447168
vt 0.841501 0.761101
vt 0.796910 0.643370
vt 0.906455 0.644155
vt 0.894416 0.742499
vt 0.957194 0.643970
vt 0.829265 0.517077
vt 0.940741 0.715601
vt 0.671449 0.841501
vt 0.669190 0.894416
vt 0.849398 0.470798
vt 0.666902 0.940741
vt 0.909364 0.402088
vt 0.855378 0.389954
vt 0.592313 0.470184
vt 0.617524 0.471308
vt 0.621192 0.417417
vt 0.598226 0.414426
vt 0.598146 0.467455
vt 0.603540 0.389954
vt 0.643835 0.389418
vt 0.855424 0.393127
vt 0.905341 0.403681
vt 0.667620 0.471464
vt 0.947229 0.538591
vt 0.963044 0.470184
vt 0.580250 0.494548
vt 0.595712 0.312254
vt 0.621272 0.312916
vt 0.622837 0.264476
vt 0.597277 0.263453
vt 0.852894 0.313492
vt 0.849695 0.260671
vt 0.818572 0.260902
vt 0.821566 0.286829
vt 0.893654 0.314609
vt 0.853541 0.316407
vt 0.850246 0.263617
vt 0.890422 0.263754
vt 0.896415 0.312211
vt 0.936226 0.312254
vt 0.933075 0.263453
vt 0.893263 0.261490
vt 0.670148 0.393127
vt 0.666826 0.415674
vt 0.958612 0.415674
vt 0.958434 0.414426
vt 0.649700 0.837975
vt 0.635627 0.887710
vt 0.686058 0.890422
vt 0.687133 0.850246
vt 0.592375 0.849695
vt 0.589648 0.893263
vt 0.597277 0.933075
vt 0.622837 0.940554
vt 0.673628 0.933416
vt 0.822213 0.289744
vt 0.819123 0.263848
vt 0.672063 0.313364
vt 0.673628 0.264581
vt 0.936602 0.313364
vt 0.933416 0.264581
vt 0.941647 0.364922
vt 0.899640 0.363406
vt 0.623001 0.364960
vt 0.665562 0.364922
vt 0.668659 0.362549
vt 0.644119 0.361871
vt 0.647700 0.316485
vt 0.685132 0.316407
vt 0.859879 0.359936
vt 0.902447 0.361457
vt 0.941330 0.363919
vt 0.860378 0.362549
vt 0.606538 0.359936
vt 0.590374 0.313492
vt 0.601582 0.363919
vt 0.646474 0.289822
vt 0.601626 0.286829
vt 0.603191 0.260902
vt 0.648039 0.263334
vt 0.675760 0.289744
vt 0.677325 0.263848
vt 0.647700 0.841274
vt 0.590374 0.852894
vt 0.601626 0.821566
vt 0.646474 0.809945
vt 0.648039 0.806852
vt 0.603191 0.818572
vt 0.685132 0.853541
vt 0.675760 0.822213
vt 0.677325 0.819123
vt 0.500000 0.668378
vt 0.500000 0.724779
vt 0.517225 0.721513
vt 0.520785 0.669173
vt 0.528698 1.002924
vt 0.500000 1.014901
vt 0.500000 1.025182
vt 0.520785 1.015365
vt 0.500000 0.744181
vt 0.519989 0.740196
vt 0.519989 0.988807
vt 0.500000 0.995348
vt 0.500000 0.660499
vt 0.528698 0.661469
vt 0.154177 0.616909
vt 0.166410 0.570048
vt 0.135838 0.608740
vt 0.149154 0.567675
vt 0.147623 0.572395
vt 0.137518 0.603560
vt 0.583783 0.154177
vt 0.583848 0.135838
vt 0.600568 0.131366
vt 0.597073 0.144428
vt 0.144166 0.612314
vt 0.141084 0.620214
vt 0.132632 0.614576
vt 0.134671 0.609983
vt 0.153028 0.593819
vt 0.141399 0.592146
vt 0.619182 0.132632
vt 0.614588 0.141084
vt 0.606252 0.140479
vt 0.610351 0.130579
vt 0.138199 0.601250
vt 0.148213 0.603179
vt 0.602487 0.570048
vt 0.583783 0.616909
vt 0.597073 0.624463
vt 0.606252 0.625520
vt 0.614588 0.620214
vt 0.620822 0.612314
vt 0.623703 0.603179
vt 0.620639 0.593819
vt 0.604695 0.577238
vt 0.601269 0.572395
vt 0.603531 0.567675
vt 0.609313 0.614171
vt 0.615687 0.610750
vt 0.619182 0.614576
vt 0.610351 0.619358
vt 0.602434 0.613212
vt 0.600568 0.617961
vt 0.626402 0.601250
vt 0.623276 0.609983
vt 0.618527 0.594500
vt 0.623272 0.592146
vt 0.590602 0.606787
vt 0.583848 0.608740
vt 0.592903 0.603615
vt 0.603070 0.582298
vt 0.613048 0.594751
vt 0.610999 0.606475
vt 0.606401 0.608943
vt 0.601438 0.608251
vt 0.586331 0.603560
vt 0.600598 0.578805
vt 0.589822 0.601288
vt 0.148133 0.578805
vt 0.140843 0.601288
vt 0.522445 0.038205
vt 0.513246 0.032036
vt 0.507613 0.025182
vt 0.515546 0.030102
vt 0.521458 0.442272
vt 0.528336 0.428901
vt 0.500000 0.456702
vt 0.500000 0.445370
vt 0.500000 0.031689
vt 0.512541 0.032373
vt 0.506877 0.025742
vt 0.500000 0.025886
vt 0.500000 0.031337
vt 0.500000 0.025479
vt 0.030102 0.457928
vt 0.030515 0.446199
vt 0.432141 0.867914
vt 0.443845 0.927906
vt 0.379085 0.894044
vt 0.360683 0.828812
vt 0.439809 0.672195
vt 0.430298 0.558226
vt 0.400297 0.594201
vt 0.380247 0.672998
vt 0.419750 0.833374
vt 0.430922 0.759035
vt 0.362910 0.751725
vt 0.364577 0.812683
vt 0.430922 0.758996
vt 0.439809 0.671923
vt 0.454286 0.976119
vt 0.395580 0.951058
vt 0.395580 0.548422
vt 0.333098 0.547256
vt 0.311584 0.643970
vt 0.373635 0.643481
vt 0.436410 0.893919
vt 0.360683 0.793372
vt 0.328551 0.761101
vt 0.323030 0.643370
vt 0.340672 0.642712
vt 0.444006 0.632181
vt 0.395580 0.735145
vt 0.454286 0.747180
vt 0.427025 0.538591
vt 0.333098 0.715601
vt 0.427025 0.947229
vt 0.443553 0.575135
vt 0.400297 0.530171
vt 0.356060 0.535244
vt 0.340885 0.643738
vt 0.362910 0.643182
vt 0.435444 0.492909
vt 0.433984 0.447361
vt 0.430298 0.518348
vt 0.405006 0.421068
vt 0.383019 0.429733
vt 0.362474 0.771615
vt 0.387552 0.796381
vt 0.438918 0.382998
vt 0.421210 0.420824
vt 0.448920 0.357545
vt 0.398021 0.363238
vt 0.378773 0.407144
vt 0.332784 0.508652
vt 0.333539 0.413961
vt 0.367244 0.407548
vt 0.378773 0.499901
vt 0.362910 0.751727
vt 0.459125 0.268345
vt 0.417930 0.278839
vt 0.380247 0.672932
vt 0.448920 0.314473
vt 0.328551 0.517077
vt 0.328734 0.470798
vt 0.357619 0.470278
vt 0.364577 0.509803
vt 0.459125 0.239236
vt 0.435444 0.495971
vt 0.387552 0.579931
vt 0.371732 0.501290
vt 0.368885 0.457158
vt 0.460183 0.181283
vt 0.460183 0.140934
vt 0.460183 0.196322
vt 0.419994 0.205473
vt 0.378509 0.393435
vt 0.461297 0.608225
vt 0.473395 0.560962
vt 0.433984 0.450625
vt 0.460469 0.141037
vt 0.469367 0.116366
vt 0.437911 0.123733
vt 0.420553 0.149293
vt 0.457081 0.165879
vt 0.413943 0.174337
vt 0.484203 0.085531
vt 0.489280 0.071544
vt 0.476758 0.071388
vt 0.468516 0.086614
vt 0.398021 0.325561
vt 0.417930 0.249130
vt 0.419994 0.679456
vt 0.420401 0.648799
vt 0.460183 0.657159
vt 0.460183 0.690304
vt 0.486669 0.045311
vt 0.419994 0.191059
vt 0.422167 0.599988
vt 0.445768 0.556649
vt 0.469661 0.475706
vt 0.477555 0.462176
vt 0.486754 0.460736
vt 0.484790 0.477146
vt 0.484454 0.457928
vt 0.485561 0.446199
vt 0.493123 0.445401
vt 0.492387 0.457080
vt 0.471665 0.053210
vt 0.379159 0.601238
vt 0.385282 0.599612
vt 0.386922 0.604170
vt 0.381432 0.607555
vt 0.486669 0.424258
vt 0.487459 0.440917
vt 0.423568 0.505809
vt 0.452679 0.467354
vt 0.460520 0.507406
vt 0.480956 0.508271
vt 0.420401 0.168698
vt 0.422167 0.108290
vt 0.461297 0.096221
vt 0.479678 0.097153
vt 0.458025 0.104341
vt 0.378509 0.816867
vt 0.355733 0.774144
vt 0.330903 0.641253
vt 0.351886 0.640437
vt 0.398375 0.405151
vt 0.421210 0.496630
vt 0.379220 0.366797
vt 0.348274 0.367843
vt 0.350598 0.433451
vt 0.330908 0.368189
vt 0.364194 0.367147
vt 0.324343 0.324872
vt 0.360708 0.324944
vt 0.395132 0.366023
vt 0.400340 0.365401
vt 0.378349 0.293283
vt 0.378743 0.261665
vt 0.340632 0.261742
vt 0.341538 0.293469
vt 0.377606 0.322035
vt 0.343222 0.322330
vt 0.394336 0.324350
vt 0.400943 0.321655
vt 0.404597 0.548078
vt 0.409055 0.518571
vt 0.354176 0.523009
vt 0.378743 0.561263
vt 0.360141 0.470735
vt 0.313739 0.480362
vt 0.314593 0.500191
vt 0.351676 0.498544
vt 0.407749 0.493332
vt 0.316857 0.522344
vt 0.340632 0.560446
vt 0.403567 0.477757
vt 0.403321 0.292993
vt 0.404597 0.261464
vt 0.359645 0.307779
vt 0.396411 0.307317
vt 0.320262 0.307625
vt 0.322068 0.288897
vt 0.320535 0.262732
vt 0.360141 0.262967
vt 0.360320 0.289050
vt 0.396713 0.262636
vt 0.395646 0.288588
vt 0.320262 0.482345
vt 0.322068 0.451756
vt 0.360320 0.442459
vt 0.359645 0.473048
vt 0.360141 0.440146
vt 0.320535 0.449773
vt 0.395646 0.449241
vt 0.396411 0.479829
vt 0.396713 0.447168
vt 0.330810 0.894416
vt 0.328551 0.841501
vt 0.333098 0.940741
vt 0.407688 0.470184
vt 0.401774 0.414426
vt 0.378808 0.417417
vt 0.382476 0.471308
vt 0.356165 0.389418
vt 0.396460 0.389954
vt 0.401854 0.467455
vt 0.332380 0.471464
vt 0.419750 0.494548
vt 0.404289 0.312254
vt 0.402723 0.263453
vt 0.377163 0.264476
vt 0.378728 0.312916
vt 0.329852 0.393127
vt 0.333174 0.415674
vt 0.350300 0.837975
vt 0.312867 0.850246
vt 0.313942 0.890422
vt 0.364373 0.887710
vt 0.410353 0.893263
vt 0.407625 0.849695
vt 0.377163 0.940554
vt 0.402723 0.933075
vt 0.326372 0.933416
vt 0.326372 0.264581
vt 0.327937 0.313364
vt 0.376999 0.364960
vt 0.334438 0.364922
vt 0.331341 0.362549
vt 0.314868 0.316407
vt 0.352300 0.316485
vt 0.355881 0.361871
vt 0.409626 0.313492
vt 0.393462 0.359936
vt 0.398418 0.363919
vt 0.353526 0.289822
vt 0.351961 0.263334
vt 0.396809 0.260902
vt 0.398374 0.286829
vt 0.324240 0.289744
vt 0.322675 0.263848
vt 0.352300 0.841274
vt 0.353526 0.809945
vt 0.398374 0.821566
vt 0.409626 0.852894
vt 0.396809 0.818572
vt 0.351961 0.806852
vt 0.314868 0.853541
vt 0.324240 0.822213
vt 0.322675 0.819123
vt 0.479215 0.669173
vt 0.482775 0.721513
vt 0.471302 1.002924
vt 0.479215 1.015365
vt 0.480011 0.740196
vt 0.480011 0.988807
vt 0.471302 0.661469
vt 0.416217 0.154177
vt 0.402927 0.144428
vt 0.399432 0.131366
vt 0.416152 0.135838
vt 0.380819 0.132632
vt 0.389649 0.130579
vt 0.393748 0.140479
vt 0.385412 0.141084
vt 0.397513 0.570048
vt 0.379361 0.593819
vt 0.376297 0.603179
vt 0.379178 0.612314
vt 0.385412 0.620214
vt 0.393748 0.625520
vt 0.402927 0.624463
vt 0.416217 0.616909
vt 0.395305 0.577238
vt 0.396469 0.567675
vt 0.398731 0.572395
vt 0.390687 0.614171
vt 0.389649 0.619358
vt 0.380819 0.614576
vt 0.384313 0.610750
vt 0.397566 0.613212
vt 0.399432 0.617961
vt 0.376724 0.609983
vt 0.373598 0.601250
vt 0.376728 0.592146
vt 0.381473 0.594500
vt 0.409398 0.606787
vt 0.416152 0.608740
vt 0.407098 0.603615
vt 0.398562 0.608251
vt 0.393599 0.608943
vt 0.389001 0.606475
vt 0.386952 0.594751
vt 0.396930 0.582298
vt 0.413669 0.603560
vt 0.399402 0.578805
vt 0.410178 0.601288
vt 0.477555 0.038205
vt 0.484454 0.030102
vt 0.492387 0.025182
vt 0.486754 0.032036
vt 0.478542 0.442272
vt 0.471665 0.428901
vt 0.493123 0.025742
vt 0.487459 0.032373
vt 0.181819 0.000000
vt 0.227273 0.078731
vt 0.136365 0.078731
vt 0.272728 0.157461
vt 0.318182 0.078731
vt 0.363637 0.157461
vt 0.909091 0.000000
vt 0.954545 0.078731
vt 0.863636 0.078731
vt 0.727273 0.000000
vt 0.772727 0.078731
vt 0.681818 0.078731
vt 0.545455 0.000000
vt 0.590909 0.078731
vt 0.500000 0.078731
vt 0.318182 0.236191
vt 0.090910 0.157461
vt 0.181819 0.157461
vt 0.136365 0.236191
vt 0.818182 0.157461
vt 0.909091 0.157461
vt 0.863636 0.236191
vt 0.636364 0.157461
vt 0.727273 0.157461
vt 0.681818 0.236191
vt 0.454546 0.157461
vt 0.545455 0.157461
vt 0.500000 0.236191
vt 0.227273 0.236191
vt 0.045455 0.236191
vt 0.772727 0.236191
vt 0.590909 0.236191
vt 0.409092 0.236191
vt 0.181819 0.314921
vt 0.272728 0.314921
vt 0.227273 0.393651
vt 0.000000 0.314921
vt 0.090910 0.314921
vt 0.045455 0.393651
vt 0.727273 0.314921
vt 0.818182 0.314921
vt 0.772727 0.393651
vt 0.545455 0.314921
vt 0.636364 0.314921
vt 0.590909 0.393651
vt 0.363637 0.314921
vt 0.454546 0.314921
vt 0.409092 0.393651
vt 0.500000 0.393651
vt 0.454546 0.472382
vt 0.681818 0.393651
vt 0.636364 0.472382
vt 0.863636 0.393651
vt 0.818182 0.472382
vt 0.909091 0.314921
vt 0.136365 0.393651
vt 0.090910 0.472382
vt 0.318182 0.393651
vt 0.272728 0.472382
vt 0.954545 0.236191
vt 1.000000 0.157461
vt 0.409092 0.078731
vt 0.363637 0.000000
s 1
f 116/1/1 98/2/1 209/3/1 208/4/1
f 115/5/2 4/6/2 17/7/2 97/8/2
f 3/9/3 7/10/3 13/11/3 8/12/3
f 7/10/4 4/13/4 9/14/4 13/11/4
f 13/11/5 9/14/5 2/15/5 10/16/5
f 8/12/6 13/11/6 10/16/6 1/17/6
f 1/17/7 10/16/7 32/18/7 29/19/7
f 114/20/8 1/21/8 29/22/8 83/23/8
f 116/24/9 3/25/9 8/26/9 109/27/9
f 109/27/10 8/26/10 1/21/10 114/20/10
f 115/5/11 6/28/11 15/29/11 99/30/11
f 99/30/12 15/29/12 12/31/12 112/32/12
f 97/8/13 17/7/13 21/33/13 90/34/13
f 20/35/14 25/36/14 203/37/14 204/38/14
f 116/24/15 5/28/15 18/39/15 98/40/15
f 4/41/16 7/42/16 197/43/16 196/44/16
f 89/45/17 90/46/17 21/47/17 25/36/17
f 91/48/18 89/45/18 25/36/18 20/35/18
f 25/36/19 21/47/19 202/49/19 203/37/19
f 98/40/20 18/39/20 23/50/20 91/51/20
f 38/52/21 45/53/21 134/54/21 131/55/21
f 133/56/22 136/57/22 144/58/22 146/59/22
f 112/32/23 12/31/23 34/60/23 82/61/23
f 10/16/24 2/15/24 30/62/24 32/18/24
f 29/63/25 32/64/25 129/65/25 130/66/25
f 75/67/26 41/68/26 48/69/26 73/70/26
f 82/61/27 34/60/27 41/68/27 75/67/27
f 83/71/28 29/63/28 141/72/28 140/73/28
f 32/64/29 30/74/29 128/75/29 129/65/29
f 73/70/30 48/69/30 56/76/30 66/77/30
f 74/78/31 81/79/31 145/80/31 148/81/31
f 130/82/32 133/56/32 146/59/32 147/83/32
f 6/28/33 115/5/33 97/8/33 19/39/33
f 54/84/34 53/85/34 60/86/34 61/87/34
f 67/88/35 54/89/35 61/90/35 65/91/35
f 11/92/36 114/20/36 83/23/36 33/93/36
f 5/28/37 116/24/37 109/27/37 14/29/37
f 14/29/38 109/27/38 114/20/38 11/92/38
f 139/94/39 54/95/39 143/96/39 142/97/39
f 30/62/40 38/52/40 131/55/40 128/98/40
f 4/6/41 115/5/41 99/30/41 9/99/41
f 61/87/42 60/86/42 69/100/42 70/101/42
f 65/91/43 61/90/43 70/102/43 58/103/43
f 9/99/44 99/30/44 112/32/44 2/104/44
f 66/77/45 56/76/45 63/105/45 64/106/45
f 19/39/46 97/8/46 90/34/46 24/107/46
f 53/85/47 52/108/47 59/109/47 60/86/47
f 198/110/48 3/111/48 207/112/48 213/113/48
f 256/114/49 255/115/49 253/116/49 254/117/49
f 23/118/50 26/119/50 89/45/50 91/48/50
f 69/100/51 68/120/51 76/121/51 77/122/51
f 204/123/52 201/124/52 211/125/52 212/126/52
f 64/106/53 63/105/53 72/127/53 57/128/53
f 33/93/54 83/23/54 81/129/54 40/68/54
f 60/86/55 59/109/55 68/120/55 69/100/55
f 2/104/56 112/32/56 82/61/56 30/130/56
f 38/131/57 75/67/57 73/70/57 45/132/57
f 77/122/58 76/121/58 259/133/58 260/134/58
f 30/130/59 82/61/59 75/67/59 38/131/59
f 50/135/60 80/136/60 88/137/60 44/138/60
f 58/103/61 70/102/61 78/139/61 51/140/61
f 70/101/62 69/100/62 77/122/62 78/141/62
f 45/132/63 73/70/63 66/77/63 52/142/63
f 57/128/64 72/127/64 80/136/64 50/135/64
f 28/143/65 110/144/65 96/145/65 42/146/65
f 40/68/66 81/129/66 74/147/66 47/69/66
f 108/148/67 262/149/67 93/150/67 94/151/67
f 31/152/68 108/153/68 94/154/68 43/155/68
f 55/156/69 67/88/69 65/91/69 62/157/69
f 51/140/70 78/139/70 86/158/70 49/159/70
f 78/141/71 77/122/71 260/134/71 86/160/71
f 47/69/72 74/147/72 67/88/72 55/156/72
f 123/161/73 124/162/73 101/163/73 102/164/73
f 121/165/74 123/166/74 102/167/74 37/168/74
f 62/157/75 65/91/75 58/103/75 71/169/75
f 52/142/76 66/77/76 64/106/76 59/170/76
f 59/170/77 64/106/77 57/128/77 68/171/77
f 262/149/78 261/172/78 92/173/78 93/150/78
f 76/174/79 50/175/79 44/176/79 259/177/79
f 71/169/80 58/103/80 51/140/80 79/178/80
f 37/168/81 35/179/81 105/180/81 103/181/81
f 124/162/82 127/182/82 297/183/82 298/184/82 101/163/82
f 68/171/83 57/128/83 50/135/83 76/185/83
f 261/186/84 28/143/84 42/146/84 92/187/84
f 107/188/85 31/152/85 43/155/85 95/189/85
f 127/190/86 122/191/86 295/192/86 297/193/86
f 79/178/87 51/140/87 49/159/87 87/194/87
f 100/195/88 36/196/88 301/197/88 104/198/88
f 126/199/89 121/165/89 37/168/89 103/181/89
f 102/167/90 101/200/90 35/179/90 37/168/90
f 274/201/91 273/202/91 290/203/91 291/204/91
f 122/191/92 125/205/92 300/206/92 295/192/92
f 49/159/93 86/158/93 108/153/93 31/152/93
f 86/160/94 260/134/94 262/149/94 108/148/94
f 35/207/95 296/208/95 299/209/95 105/210/95
f 44/176/96 88/211/96 110/144/96 28/143/96
f 93/212/97 92/187/97 120/213/97 119/214/97
f 87/194/98 49/159/98 31/152/98 107/188/98
f 42/146/99 96/145/99 113/215/99 27/216/99
f 259/217/100 44/138/100 28/218/100 261/219/100
f 92/187/101 42/146/101 27/216/101 120/213/101
f 95/189/102 43/155/102 22/220/102 118/221/102
f 43/155/103 94/154/103 117/222/103 22/220/103
f 94/151/104 93/150/104 119/223/104 117/224/104
f 120/213/105 27/216/105 122/191/105 127/190/105
f 118/221/106 22/220/106 121/165/106 126/199/106
f 119/223/107 120/225/107 127/182/107 124/162/107
f 27/216/108 113/215/108 125/205/108 122/191/108
f 22/220/109 117/222/109 123/166/109 121/165/109
f 117/224/110 119/223/110 124/162/110 123/161/110
f 130/82/111 129/226/111 132/227/111 133/56/111
f 132/227/112 131/55/112 134/54/112 135/228/112
f 129/226/113 128/98/113 131/55/113 132/227/113
f 135/228/114 134/54/114 137/229/114 138/230/114
f 133/56/115 132/227/115 135/228/115 136/57/115
f 136/57/116 135/228/116 138/230/116 139/231/116
f 52/232/117 53/233/117 138/234/117 137/235/117
f 45/53/118 52/108/118 137/229/118 134/54/118
f 54/95/119 67/236/119 149/237/119 143/96/119
f 53/233/120 54/95/120 139/94/120 138/234/120
f 141/72/121 147/238/121 157/239/121 39/240/121
f 144/58/122 142/241/122 150/242/122 153/243/122
f 145/80/123 140/244/123 46/245/123 154/246/123
f 148/81/124 145/80/124 154/246/124 158/247/124
f 146/59/125 144/58/125 153/243/125 156/248/125
f 142/97/126 143/96/126 151/249/126 150/250/126
f 136/57/127 139/231/127 142/241/127 144/58/127
f 67/251/128 74/78/128 148/81/128 149/252/128
f 29/63/129 130/66/129 147/238/129 141/72/129
f 81/79/130 83/253/130 140/244/130 145/80/130
f 153/243/131 150/242/131 162/254/131 164/255/131
f 154/246/132 46/245/132 160/256/132 165/257/132
f 158/247/133 154/246/133 165/257/133 168/258/133
f 156/248/134 153/243/134 164/255/134 166/259/134
f 150/250/135 151/249/135 163/260/135 162/261/135
f 157/262/136 156/248/136 166/259/136 167/263/136
f 149/252/137 148/81/137 158/247/137 159/264/137
f 143/96/138 149/237/138 159/265/138 151/249/138
f 140/73/139 141/72/139 39/240/139 46/266/139
f 147/83/140 146/59/140 156/248/140 157/262/140
f 188/267/141 187/268/141 177/269/141 152/270/141
f 184/271/142 185/272/142 170/273/142 173/274/142
f 182/275/143 180/276/143 155/277/143 174/278/143
f 181/279/144 182/275/144 174/278/144 178/280/144
f 183/281/145 184/271/145 173/274/145 176/282/145
f 170/273/146 185/272/146 194/283/146 192/284/146
f 39/240/147 157/239/147 167/285/147 161/286/147
f 159/264/148 158/247/148 168/258/148 169/287/148
f 151/249/149 159/265/149 169/288/149 163/260/149
f 46/266/150 39/240/150 161/286/150 160/289/150
f 155/290/151 152/291/151 175/292/151 174/293/151
f 171/294/152 172/295/152 173/296/152 170/297/152
f 174/293/153 175/292/153 172/295/153 178/298/153
f 175/292/154 152/291/154 177/299/154 176/300/154
f 178/298/155 172/295/155 171/294/155 179/301/155
f 172/295/156 175/292/156 176/300/156 173/296/156
f 189/302/157 181/279/157 178/280/157 179/303/157
f 189/302/158 179/303/158 193/304/158 195/305/158
f 180/306/159 188/267/159 152/270/159 155/307/159
f 187/308/160 183/281/160 176/282/160 177/309/160
f 167/263/161 166/259/161 183/281/161 187/308/161
f 160/289/162 161/286/162 188/267/162 180/306/162
f 163/260/163 169/288/163 189/310/163 186/311/163
f 169/287/164 168/258/164 181/279/164 189/302/164
f 162/261/165 163/260/165 186/311/165 185/312/165
f 166/259/166 164/255/166 184/271/166 183/281/166
f 168/258/167 165/257/167 182/275/167 181/279/167
f 165/257/168 160/256/168 180/276/168 182/275/168
f 164/255/169 162/254/169 185/272/169 184/271/169
f 161/286/170 167/285/170 187/268/170 188/267/170
f 194/313/171 190/314/171 191/315/171 192/316/171
f 190/314/172 195/317/172 193/318/172 191/315/172
f 185/319/173 186/320/173 190/321/173 194/322/173
f 171/294/174 170/297/174 192/323/174 191/324/174
f 186/320/175 189/325/175 195/326/175 190/321/175
f 179/301/176 171/294/176 191/324/176 193/327/176
f 196/328/177 197/329/177 200/330/177 199/331/177
f 200/330/178 201/124/178 204/123/178 203/332/178
f 197/329/179 198/333/179 201/124/179 200/330/179
f 199/331/180 200/330/180 203/332/180 202/334/180
f 7/42/181 3/111/181 198/110/181 197/43/181
f 17/7/182 4/6/182 196/335/182 199/336/182
f 201/124/183 198/333/183 213/337/183 211/125/183
f 21/33/184 17/7/184 199/336/184 202/338/184
f 208/4/185 209/3/185 217/339/185 216/340/185
f 210/341/186 206/342/186 214/343/186 218/344/186
f 207/112/187 208/345/187 216/346/187 215/347/187
f 211/125/188 213/337/188 221/348/188 219/349/188
f 20/35/189 204/38/189 212/350/189 206/342/189
f 91/48/190 20/35/190 206/342/190 210/341/190
f 98/2/191 91/351/191 210/352/191 209/3/191
f 3/111/192 116/353/192 208/345/192 207/112/192
f 232/354/193 235/355/193 222/356/193 226/357/193
f 233/358/194 224/359/194 240/360/194 241/361/194
f 16/362/195 230/363/195 229/364/195 227/365/195
f 231/366/196 232/367/196 226/368/196 225/369/196
f 213/113/197 207/112/197 215/347/197 221/370/197
f 206/342/198 212/350/198 220/371/198 214/343/198
f 212/126/199 211/125/199 219/349/199 220/372/199
f 209/3/200 210/352/200 218/373/200 217/339/200
f 223/374/201 205/375/201 227/376/201 229/377/201
f 223/374/202 224/378/202 225/379/202 205/375/202
f 205/375/203 225/379/203 226/380/203 222/381/203
f 205/375/204 222/381/204 228/382/204 227/376/204
f 233/358/205 231/366/205 225/369/205 224/359/205
f 229/364/206 230/363/206 237/383/206 238/384/206
f 235/355/207 236/385/207 228/386/207 222/356/207
f 236/387/208 16/362/208 227/365/208 228/388/208
f 250/389/209 243/390/209 16/362/209 236/387/209
f 249/391/210 250/392/210 236/385/210 235/355/210
f 246/393/211 245/394/211 234/395/211 230/396/211
f 248/397/212 244/398/212 231/366/212 233/358/212
f 244/398/213 247/399/213 232/367/213 231/366/213
f 243/390/214 246/400/214 230/363/214 16/362/214
f 245/394/215 248/401/215 233/402/215 234/395/215
f 247/403/216 249/391/216 235/355/216 232/354/216
f 242/404/217 241/405/217 240/406/217 239/407/217
f 237/408/218 242/404/218 239/407/218 238/409/218
f 234/410/219 233/411/219 241/412/219 242/413/219
f 224/378/220 223/374/220 239/414/220 240/415/220
f 230/416/221 234/410/221 242/413/221 237/417/221
f 223/374/222 229/377/222 238/418/222 239/414/222
f 218/344/223 214/343/223 249/391/223 247/403/223
f 215/347/224 216/346/224 248/401/224 245/394/224
f 219/349/225 221/348/225 246/400/225 243/390/225
f 217/339/226 218/373/226 247/399/226 244/398/226
f 216/340/227 217/339/227 244/398/227 248/397/227
f 221/370/228 215/347/228 245/394/228 246/393/228
f 214/343/229 220/371/229 250/392/229 249/391/229
f 220/372/230 219/349/230 243/390/230 250/389/230
f 252/419/231 251/420/231 254/421/231 253/422/231
f 255/423/232 257/424/232 252/425/232 253/426/232
f 258/427/233 256/428/233 254/421/233 251/420/233
f 24/107/234 90/34/234 256/429/234 258/430/234
f 89/45/235 26/119/235 257/431/235 255/432/235
f 90/46/236 89/45/236 255/432/236 256/428/236
f 84/433/237 85/434/237 260/134/237 259/133/237
f 275/435/238 84/433/238 259/133/238 261/172/238
f 85/434/239 276/436/239 262/149/239 260/134/239
f 276/436/240 284/437/240 283/438/240 275/435/240 261/172/240 262/149/240
f 84/439/241 275/440/241 279/441/241 263/442/241
f 266/443/242 264/444/242 278/445/242 280/446/242
f 276/436/243 85/434/243 267/447/243 282/448/243
f 278/449/244 264/450/244 265/451/244 277/452/244
f 277/452/245 265/451/245 263/442/245 279/441/245
f 266/443/246 280/446/246 281/453/246 268/454/246
f 268/454/247 281/453/247 282/448/247 267/447/247
f 85/455/248 84/456/248 263/457/248 265/458/248 264/459/248 266/460/248 268/461/248 267/462/248
f 106/463/249 284/464/249 276/465/249
f 271/466/250 269/467/250 278/468/250 277/469/250
f 270/470/251 271/466/251 277/469/251 279/471/251
f 273/202/252 274/201/252 281/472/252 280/473/252
f 274/201/253 272/474/253 282/475/253 281/472/253
f 269/467/254 273/202/254 280/473/254 278/468/254
f 111/476/255 270/470/255 279/471/255 275/477/255
f 272/474/256 106/463/256 276/465/256 282/475/256
f 285/478/257 286/479/257 292/480/257 291/204/257 290/203/257 288/481/257 287/482/257 289/483/257
f 283/484/258 111/476/258 275/477/258
f 270/470/259 111/476/259 285/478/259 289/483/259
f 294/485/260 286/479/260 285/478/260 293/486/260
f 111/476/261 283/484/261 293/486/261 285/478/261
f 106/463/262 272/474/262 292/480/262 286/479/262
f 272/474/263 274/201/263 291/204/263 292/480/263
f 269/467/264 271/466/264 287/482/264 288/481/264
f 283/438/265 284/437/265 294/487/265 293/488/265
f 273/202/266 269/467/266 288/481/266 290/203/266
f 284/464/267 106/463/267 286/479/267 294/485/267
f 271/466/268 270/470/268 289/483/268 287/482/268
f 297/489/269 295/490/269 36/491/269 100/492/269
f 296/208/270 298/493/270 104/198/270 301/197/270
f 101/494/271 298/493/271 296/208/271 35/207/271
f 36/196/272 302/495/272 303/496/272 301/197/272
f 299/497/273 296/498/273 301/499/273 303/500/273
f 295/490/274 300/501/274 302/502/274 36/491/274
f 298/184/275 297/183/275 100/503/275 104/504/275
f 385/1/276 474/4/276 475/3/276 372/2/276
f 384/505/277 371/506/277 314/507/277 307/508/277
f 306/9/278 309/12/278 312/11/278 308/10/278
f 308/10/279 312/11/279 310/14/279 307/13/279
f 312/11/280 311/16/280 305/15/280 310/14/280
f 309/12/281 304/17/281 311/16/281 312/11/281
f 304/17/282 321/19/282 324/18/282 311/16/282
f 383/509/283 361/510/283 321/511/283 304/512/283
f 385/513/284 380/514/284 309/515/284 306/516/284
f 380/514/285 383/509/285 304/512/285 309/515/285
f 384/505/286 373/517/286 15/29/286 6/28/286
f 373/517/287 382/518/287 12/31/287 15/29/287
f 371/506/288 366/519/288 316/520/288 314/507/288
f 315/521/289 470/522/289 469/523/289 318/524/289
f 385/513/290 372/525/290 18/39/290 5/28/290
f 307/526/291 462/527/291 463/528/291 308/529/291
f 365/530/292 318/524/292 316/531/292 366/532/292
f 367/533/293 315/521/293 318/524/293 365/530/293
f 318/524/294 469/523/294 468/534/294 316/531/294
f 372/525/295 367/535/295 23/50/295 18/39/295
f 328/52/296 397/55/296 400/54/296 333/53/296
f 399/56/297 412/59/297 410/58/297 402/57/297
f 382/518/298 360/536/298 34/60/298 12/31/298
f 311/16/299 324/18/299 322/62/299 305/15/299
f 321/537/300 396/538/300 395/539/300 324/540/300
f 355/541/301 353/542/301 48/69/301 41/68/301
f 360/536/302 355/541/302 41/68/302 34/60/302
f 361/543/303 406/544/303 407/545/303 321/537/303
f 324/540/304 395/539/304 394/546/304 322/547/304
f 353/542/305 348/548/305 56/76/305 48/69/305
f 354/78/306 414/81/306 411/80/306 359/79/306
f 396/82/307 413/83/307 412/59/307 399/56/307
f 6/28/308 19/39/308 371/506/308 384/505/308
f 340/84/309 345/87/309 344/86/309 339/85/309
f 349/549/310 347/550/310 345/551/310 340/552/310
f 11/92/311 33/93/311 361/510/311 383/509/311
f 5/28/312 14/29/312 380/514/312 385/513/312
f 14/29/313 11/92/313 383/509/313 380/514/313
f 405/553/314 408/554/314 409/555/314 340/556/314
f 322/62/315 394/98/315 397/55/315 328/52/315
f 307/508/316 310/557/316 373/517/316 384/505/316
f 345/87/317 352/101/317 351/100/317 344/86/317
f 347/550/318 342/558/318 352/559/318 345/551/318
f 310/557/319 305/560/319 382/518/319 373/517/319
f 348/548/320 346/561/320 63/105/320 56/76/320
f 19/39/321 24/107/321 366/519/321 371/506/321
f 339/85/322 344/86/322 343/109/322 338/108/322
f 464/562/323 479/563/323 473/564/323 306/565/323
f 520/114/324 518/117/324 517/116/324 519/115/324
f 23/118/325 367/533/325 365/530/325 26/119/325
f 351/100/326 357/122/326 356/121/326 350/120/326
f 470/123/327 478/126/327 477/125/327 467/124/327
f 346/561/328 341/566/328 72/127/328 63/105/328
f 33/93/329 40/68/329 359/567/329 361/510/329
f 344/86/330 351/100/330 350/120/330 343/109/330
f 305/560/331 322/568/331 360/536/331 382/518/331
f 328/569/332 333/570/332 353/542/332 355/541/332
f 357/122/333 522/134/333 521/133/333 356/121/333
f 322/568/334 328/569/334 355/541/334 360/536/334
f 336/571/335 332/572/335 88/137/335 80/136/335
f 342/558/336 337/573/336 358/574/336 352/559/336
f 352/101/337 358/141/337 357/122/337 351/100/337
f 333/570/338 338/575/338 348/548/338 353/542/338
f 341/566/339 336/571/339 80/136/339 72/127/339
f 320/576/340 330/577/340 96/145/340 110/144/340
f 40/68/341 47/69/341 354/578/341 359/567/341
f 379/148/342 370/151/342 369/150/342 524/149/342
f 323/579/343 331/580/343 370/581/343 379/582/343
f 55/156/344 62/157/344 347/550/344 349/549/344
f 337/573/345 335/583/345 364/584/345 358/574/345
f 358/141/346 364/160/346 522/134/346 357/122/346
f 47/69/347 55/156/347 349/549/347 354/578/347
f 391/161/348 376/164/348 375/163/348 392/162/348
f 389/585/349 327/586/349 376/587/349 391/588/349
f 62/157/350 71/169/350 342/558/350 347/550/350
f 338/575/351 343/589/351 346/561/351 348/548/351
f 343/589/352 350/590/352 341/566/352 346/561/352
f 524/149/353 369/150/353 368/173/353 523/172/353
f 356/591/354 521/592/354 332/593/354 336/594/354
f 71/169/355 79/178/355 337/573/355 342/558/355
f 327/586/356 103/181/356 105/180/356 325/595/356
f 392/162/357 375/163/357 560/184/357 559/183/357 393/182/357
f 350/590/358 356/596/358 336/571/358 341/566/358
f 523/597/359 368/598/359 330/577/359 320/576/359
f 107/188/360 95/189/360 331/580/360 323/579/360
f 393/599/361 559/600/361 557/601/361 390/602/361
f 79/178/362 87/194/362 335/583/362 337/573/362
f 374/603/363 377/604/363 561/605/363 326/606/363
f 126/199/364 103/181/364 327/586/364 389/585/364
f 376/587/365 327/586/365 325/595/365 375/607/365
f 536/608/366 553/609/366 552/610/366 535/611/366
f 390/602/367 557/601/367 300/206/367 125/205/367
f 335/583/368 323/579/368 379/582/368 364/584/368
f 364/160/369 379/148/369 524/149/369 522/134/369
f 325/612/370 105/210/370 299/209/370 558/613/370
f 332/593/371 320/576/371 110/144/371 88/211/371
f 369/614/372 387/615/372 388/616/372 368/598/372
f 87/194/373 107/188/373 323/579/373 335/583/373
f 330/577/374 319/617/374 113/215/374 96/145/374
f 521/618/375 523/619/375 320/620/375 332/572/375
f 368/598/376 388/616/376 319/617/376 330/577/376
f 95/189/377 118/221/377 317/621/377 331/580/377
f 331/580/378 317/621/378 386/622/378 370/581/378
f 370/151/379 386/224/379 387/223/379 369/150/379
f 388/616/380 393/599/380 390/602/380 319/617/380
f 118/221/381 126/199/381 389/585/381 317/621/381
f 387/223/382 392/162/382 393/182/382 388/225/382
f 319/617/383 390/602/383 125/205/383 113/215/383
f 317/621/384 389/585/384 391/588/384 386/622/384
f 386/224/385 391/161/385 392/162/385 387/223/385
f 396/82/386 399/56/386 398/227/386 395/226/386
f 398/227/387 401/228/387 400/54/387 397/55/387
f 395/226/388 398/227/388 397/55/388 394/98/388
f 401/228/389 404/230/389 403/229/389 400/54/389
f 399/56/390 402/57/390 401/228/390 398/227/390
f 402/57/391 405/231/391 404/230/391 401/228/391
f 338/623/392 403/624/392 404/625/392 339/626/392
f 333/53/393 400/54/393 403/229/393 338/108/393
f 340/556/394 409/555/394 415/627/394 349/628/394
f 339/626/395 404/625/395 405/553/395 340/556/395
f 407/545/396 329/629/396 423/630/396 413/631/396
f 410/58/397 419/243/397 416/242/397 408/241/397
f 411/80/398 420/246/398 334/245/398 406/244/398
f 414/81/399 424/247/399 420/246/399 411/80/399
f 412/59/400 422/248/400 419/243/400 410/58/400
f 408/554/401 416/632/401 417/633/401 409/555/401
f 402/57/402 410/58/402 408/241/402 405/231/402
f 349/251/403 415/252/403 414/81/403 354/78/403
f 321/537/404 407/545/404 413/631/404 396/538/404
f 359/79/405 411/80/405 406/244/405 361/253/405
f 419/243/406 430/255/406 428/254/406 416/242/406
f 420/246/407 431/257/407 426/256/407 334/245/407
f 424/247/408 434/258/408 431/257/408 420/246/408
f 422/248/409 432/259/409 430/255/409 419/243/409
f 416/632/410 428/634/410 429/635/410 417/633/410
f 423/262/411 433/263/411 432/259/411 422/248/411
f 415/252/412 425/264/412 424/247/412 414/81/412
f 409/555/413 417/633/413 425/636/413 415/627/413
f 406/544/414 334/637/414 329/629/414 407/545/414
f 413/83/415 423/262/415 422/248/415 412/59/415
f 454/638/416 418/639/416 443/640/416 453/641/416
f 450/271/417 439/274/417 436/273/417 451/272/417
f 448/275/418 440/278/418 421/277/418 446/276/418
f 447/279/419 444/280/419 440/278/419 448/275/419
f 449/281/420 442/282/420 439/274/420 450/271/420
f 436/273/421 458/284/421 460/283/421 451/272/421
f 329/629/422 427/642/422 433/643/422 423/630/422
f 425/264/423 435/287/423 434/258/423 424/247/423
f 417/633/424 429/635/424 435/644/424 425/636/424
f 334/637/425 426/645/425 427/642/425 329/629/425
f 421/646/426 440/647/426 441/648/426 418/649/426
f 437/650/427 436/651/427 439/652/427 438/653/427
f 440/647/428 444/654/428 438/653/428 441/648/428
f 441/648/429 442/655/429 443/656/429 418/649/429
f 444/654/430 445/657/430 437/650/430 438/653/430
f 438/653/431 439/652/431 442/655/431 441/648/431
f 455/302/432 445/303/432 444/280/432 447/279/432
f 455/302/433 461/305/433 459/304/433 445/303/433
f 446/658/434 421/659/434 418/639/434 454/638/434
f 453/308/435 443/309/435 442/282/435 449/281/435
f 433/263/436 453/308/436 449/281/436 432/259/436
f 426/645/437 446/658/437 454/638/437 427/642/437
f 429/635/438 452/660/438 455/661/438 435/644/438
f 435/287/439 455/302/439 447/279/439 434/258/439
f 428/634/440 451/662/440 452/660/440 429/635/440
f 432/259/441 449/281/441 450/271/441 430/255/441
f 434/258/442 447/279/442 448/275/442 431/257/442
f 431/257/443 448/275/443 446/276/443 426/256/443
f 430/255/444 450/271/444 451/272/444 428/254/444
f 427/642/445 454/638/445 453/641/445 433/643/445
f 460/663/446 458/664/446 457/665/446 456/666/446
f 456/666/447 457/665/447 459/667/447 461/668/447
f 451/669/448 460/670/448 456/671/448 452/672/448
f 437/650/449 457/673/449 458/674/449 436/651/449
f 452/672/450 456/671/450 461/675/450 455/676/450
f 445/657/451 459/677/451 457/673/451 437/650/451
f 462/328/452 465/331/452 466/330/452 463/329/452
f 466/330/453 469/332/453 470/123/453 467/124/453
f 463/329/454 466/330/454 467/124/454 464/333/454
f 465/331/455 468/334/455 469/332/455 466/330/455
f 308/529/456 463/528/456 464/562/456 306/565/456
f 314/507/457 465/678/457 462/679/457 307/508/457
f 467/124/458 477/125/458 479/337/458 464/333/458
f 316/520/459 468/680/459 465/678/459 314/507/459
f 474/4/460 482/340/460 483/339/460 475/3/460
f 476/681/461 484/682/461 480/683/461 472/684/461
f 473/564/462 481/685/462 482/686/462 474/687/462
f 477/125/463 485/349/463 487/348/463 479/337/463
f 315/521/464 472/684/464 478/688/464 470/522/464
f 367/533/465 476/681/465 472/684/465 315/521/465
f 372/2/466 475/3/466 476/352/466 367/351/466
f 306/565/467 473/564/467 474/687/467 385/689/467
f 498/690/468 492/691/468 488/692/468 501/693/468
f 499/358/469 507/361/469 506/360/469 490/359/469
f 313/362/470 493/365/470 495/364/470 496/363/470
f 497/366/471 491/369/471 492/368/471 498/367/471
f 479/563/472 487/694/472 481/685/472 473/564/472
f 472/684/473 480/683/473 486/695/473 478/688/473
f 478/126/474 486/372/474 485/349/474 477/125/474
f 475/3/475 483/339/475 484/373/475 476/352/475
f 489/696/476 495/697/476 493/698/476 471/699/476
f 489/696/477 471/699/477 491/700/477 490/701/477
f 471/699/478 488/702/478 492/703/478 491/700/478
f 471/699/479 493/698/479 494/704/479 488/702/479
f 499/358/480 490/359/480 491/369/480 497/366/480
f 495/364/481 504/384/481 503/383/481 496/363/481
f 501/693/482 488/692/482 494/705/482 502/706/482
f 502/387/483 494/388/483 493/365/483 313/362/483
f 516/389/484 502/387/484 313/362/484 509/390/484
f 515/707/485 501/693/485 502/706/485 516/708/485
f 512/709/486 496/710/486 500/711/486 511/712/486
f 514/397/487 499/358/487 497/366/487 510/398/487
f 510/398/488 497/366/488 498/367/488 513/399/488
f 509/390/489 313/362/489 496/363/489 512/400/489
f 511/712/490 500/711/490 499/713/490 514/714/490
f 513/715/491 498/690/491 501/693/491 515/707/491
f 508/716/492 505/717/492 506/718/492 507/719/492
f 503/720/493 504/721/493 505/717/493 508/716/493
f 500/722/494 508/723/494 507/724/494 499/725/494
f 490/701/495 506/726/495 505/727/495 489/696/495
f 496/728/496 503/729/496 508/723/496 500/722/496
f 489/696/497 505/727/497 504/730/497 495/697/497
f 484/682/498 513/715/498 515/707/498 480/683/498
f 481/685/499 511/712/499 514/714/499 482/686/499
f 485/349/500 509/390/500 512/400/500 487/348/500
f 483/339/501 510/398/501 513/399/501 484/373/501
f 482/340/502 514/397/502 510/398/502 483/339/502
f 487/694/503 512/709/503 511/712/503 481/685/503
f 480/683/504 515/707/504 516/708/504 486/695/504
f 486/372/505 516/389/505 509/390/505 485/349/505
f 252/419/506 517/731/506 518/732/506 251/420/506
f 519/733/507 517/734/507 252/425/507 257/424/507
f 258/427/508 251/420/508 518/732/508 520/735/508
f 24/107/509 258/430/509 520/736/509 366/519/509
f 365/530/510 519/737/510 257/431/510 26/119/510
f 366/532/511 520/735/511 519/737/511 365/530/511
f 362/433/512 521/133/512 522/134/512 363/434/512
f 537/435/513 523/172/513 521/133/513 362/433/513
f 363/434/514 522/134/514 524/149/514 538/436/514
f 538/436/515 524/149/515 523/172/515 537/435/515 545/438/515 546/437/515
f 362/738/516 525/739/516 541/740/516 537/741/516
f 528/443/517 542/446/517 540/445/517 526/444/517
f 538/436/518 544/448/518 529/447/518 363/434/518
f 540/742/519 539/743/519 527/744/519 526/745/519
f 539/743/520 541/740/520 525/739/520 527/744/520
f 528/443/521 530/454/521 543/453/521 542/446/521
f 530/454/522 529/447/522 544/448/522 543/453/522
f 363/746/523 529/747/523 530/748/523 528/749/523 526/750/523 527/751/523 525/752/523 362/753/523
f 378/754/524 538/755/524 546/756/524
f 533/757/525 539/758/525 540/759/525 531/760/525
f 532/761/526 541/762/526 539/758/526 533/757/526
f 535/611/527 542/763/527 543/764/527 536/608/527
f 536/608/253 543/764/253 544/765/253 534/766/253
f 531/760/528 540/759/528 542/763/528 535/611/528
f 381/767/529 537/768/529 541/762/529 532/761/529
f 534/766/530 544/765/530 538/755/530 378/754/530
f 547/769/531 551/770/531 549/771/531 550/772/531 552/610/531 553/609/531 554/773/531 548/774/531
f 545/775/532 537/768/532 381/767/532
f 532/761/533 551/770/533 547/769/533 381/767/533
f 556/776/534 555/777/534 547/769/534 548/774/534
f 381/767/535 547/769/535 555/777/535 545/775/535
f 378/754/536 548/774/536 554/773/536 534/766/536
f 534/766/537 554/773/537 553/609/537 536/608/537
f 531/760/538 550/772/538 549/771/538 533/757/538
f 545/438/539 555/488/539 556/487/539 546/437/539
f 535/611/540 552/610/540 550/772/540 531/760/540
f 546/756/541 556/776/541 548/774/541 378/754/541
f 533/757/542 549/771/542 551/770/542 532/761/542
f 559/778/543 374/779/543 326/780/543 557/781/543
f 558/613/544 561/605/544 377/604/544 560/782/544
f 375/783/545 325/612/545 558/613/545 560/782/545
f 326/606/546 561/605/546 303/496/546 302/495/546
f 299/497/547 303/500/547 561/784/547 558/785/547
f 557/781/548 326/780/548 302/502/548 300/501/548
f 560/184/549 377/504/549 374/503/549 559/183/549
f 562/786/550 575/787/550 574/788/550
f 563/789/551 575/790/551 577/791/551
f 562/792/552 574/793/552 579/794/552
f 562/795/553 579/796/553 581/797/553
f 562/798/554 581/799/554 578/800/554
f 563/789/555 577/791/555 584/801/555
f 564/802/556 576/803/556 586/804/556
f 565/805/557 580/806/557 588/807/557
f 566/808/558 582/809/558 590/810/558
f 567/811/559 583/812/559 592/813/559
f 563/789/560 584/801/560 587/814/560
f 564/802/561 586/804/561 589/815/561
f 565/805/562 588/807/562 591/816/562
f 566/808/563 590/810/563 593/817/563
f 567/811/564 592/813/564 585/818/564
f 568/819/565 594/820/565 599/821/565
f 569/822/566 595/823/566 601/824/566
f 570/825/567 596/826/567 602/827/567
f 571/828/568 597/829/568 603/830/568
f 572/831/569 598/832/569 600/833/569
f 600/833/570 603/834/570 573/835/570
f 600/833/571 598/832/571 603/834/571
f 598/832/572 571/828/572 603/834/572
f 603/830/573 602/836/573 573/837/573
f 603/830/574 597/829/574 602/836/574
f 597/829/575 570/825/575 602/836/575
f 602/827/576 601/838/576 573/839/576
f 602/827/577 596/826/577 601/838/577
f 596/826/578 569/840/578 601/838/578
f 601/824/579 599/841/579 573/842/579
f 601/824/580 595/823/580 599/841/580
f 595/823/581 568/819/581 599/841/581
f 599/821/582 600/843/582 573/844/582
f 599/821/583 594/820/583 600/843/583
f 594/820/584 572/831/584 600/843/584
f 585/818/585 598/832/585 572/831/585
f 585/818/586 592/813/586 598/832/586
f 592/813/587 571/828/587 598/832/587
f 593/817/588 597/829/588 571/828/588
f 593/817/589 590/810/589 597/829/589
f 590/810/590 570/825/590 597/829/590
f 591/816/591 596/826/591 570/825/591
f 591/816/592 588/807/592 596/826/592
f 588/807/593 569/840/593 596/826/593
f 589/815/594 595/823/594 569/822/594
f 589/815/595 586/804/595 595/823/595
f 586/804/596 568/819/596 595/823/596
f 587/814/597 594/820/597 568/819/597
f 587/814/598 584/801/598 594/820/598
f 584/801/599 572/831/599 594/820/599
f 592/813/600 593/817/600 571/828/600
f 592/813/601 583/812/601 593/817/601
f 583/812/602 566/808/602 593/817/602
f 590/810/603 591/816/603 570/825/603
f 590/810/604 582/809/604 591/816/604
f 582/809/605 565/805/605 591/816/605
f 588/807/606 589/845/606 569/840/606
f 588/807/607 580/806/607 589/845/607
f 580/806/608 564/846/608 589/845/608
f 586/804/609 587/814/609 568/819/609
f 586/804/610 576/803/610 587/814/610
f 576/803/611 563/789/611 587/814/611
f 584/801/612 585/818/612 572/831/612
f 584/801/613 577/791/613 585/818/613
f 577/791/614 567/811/614 585/818/614
f 578/800/615 583/812/615 567/811/615
f 578/800/616 581/799/616 583/812/616
f 581/799/617 566/808/617 583/812/617
f 581/797/618 582/809/618 566/808/618
f 581/797/619 579/796/619 582/809/619
f 579/796/620 565/805/620 582/809/620
f 579/794/621 580/806/621 565/805/621
f 579/794/622 574/793/622 580/806/622
f 574/793/623 564/846/623 580/806/623
f 577/791/624 578/847/624 567/811/624
f 577/791/625 575/790/625 578/847/625
f 575/790/626 562/848/626 578/847/626
f 574/788/627 576/803/627 564/802/627
f 574/788/628 575/787/628 576/803/628
f 575/787/629 563/789/629 576/803/629
f 604/786/630 616/788/630 617/787/630
f 605/789/631 619/791/631 617/790/631
f 604/792/632 621/794/632 616/793/632
f 604/795/633 623/797/633 621/796/633
f 604/798/634 620/800/634 623/799/634
f 605/789/635 626/801/635 619/791/635
f 606/802/636 628/804/636 618/803/636
f 607/805/637 630/807/637 622/806/637
f 608/808/638 632/810/638 624/809/638
f 609/811/639 634/813/639 625/812/639
f 605/789/640 629/814/640 626/801/640
f 606/802/641 631/815/641 628/804/641
f 607/805/642 633/816/642 630/807/642
f 608/808/643 635/817/643 632/810/643
f 609/811/644 627/818/644 634/813/644
f 610/819/645 641/821/645 636/820/645
f 611/822/646 643/824/646 637/823/646
f 612/825/647 644/827/647 638/826/647
f 613/828/648 645/830/648 639/829/648
f 614/831/649 642/833/649 640/832/649
f 642/833/650 615/835/650 645/834/650
f 642/833/651 645/834/651 640/832/651
f 640/832/652 645/834/652 613/828/652
f 645/830/653 615/837/653 644/836/653
f 645/830/654 644/836/654 639/829/654
f 639/829/655 644/836/655 612/825/655
f 644/827/656 615/839/656 643/838/656
f 644/827/657 643/838/657 638/826/657
f 638/826/658 643/838/658 611/840/658
f 643/824/659 615/842/659 641/841/659
f 643/824/660 641/841/660 637/823/660
f 637/823/661 641/841/661 610/819/661
f 641/821/662 615/844/662 642/843/662
f 641/821/663 642/843/663 636/820/663
f 636/820/664 642/843/664 614/831/664
f 627/818/665 614/831/665 640/832/665
f 627/818/666 640/832/666 634/813/666
f 634/813/667 640/832/667 613/828/667
f 635/817/668 613/828/668 639/829/668
f 635/817/669 639/829/669 632/810/669
f 632/810/670 639/829/670 612/825/670
f 633/816/671 612/825/671 638/826/671
f 633/816/672 638/826/672 630/807/672
f 630/807/673 638/826/673 611/840/673
f 631/815/674 611/822/674 637/823/674
f 631/815/675 637/823/675 628/804/675
f 628/804/676 637/823/676 610/819/676
f 629/814/677 610/819/677 636/820/677
f 629/814/678 636/820/678 626/801/678
f 626/801/679 636/820/679 614/831/679
f 634/813/680 613/828/680 635/817/680
f 634/813/681 635/817/681 625/812/681
f 625/812/682 635/817/682 608/808/682
f 632/810/683 612/825/683 633/816/683
f 632/810/684 633/816/684 624/809/684
f 624/809/685 633/816/685 607/805/685
f 630/807/686 611/840/686 631/845/686
f 630/807/687 631/845/687 622/806/687
f 622/806/688 631/845/688 606/846/688
f 628/804/689 610/819/689 629/814/689
f 628/804/690 629/814/690 618/803/690
f 618/803/691 629/814/691 605/789/691
f 626/801/692 614/831/692 627/818/692
f 626/801/693 627/818/693 619/791/693
f 619/791/694 627/818/694 609/811/694
f 620/800/695 609/811/695 625/812/695
f 620/800/696 625/812/696 623/799/696
f 623/799/697 625/812/697 608/808/697
f 623/797/698 608/808/698 624/809/698
f 623/797/699 624/809/699 621/796/699
f 621/796/700 624/809/700 607/805/700
f 621/794/701 607/805/701 622/806/701
f 621/794/702 622/806/702 616/793/702
f 616/793/703 622/806/703 606/846/703
f 619/791/704 609/811/704 620/847/704
f 619/791/705 620/847/705 617/790/705
f 617/790/706 620/847/706 604/848/706
f 616/788/707 606/802/707 618/803/707
f 616/788/708 618/803/708 617/787/708
f 617/787/709 618/803/709 605/789/709
