# Blender 5.1.1
# www.blender.org
o Куб.001
v 0.545362 1.061920 0.613174
v 0.532023 2.435341 0.475478
v 0.636480 1.262577 -0.114972
v 0.616949 2.413598 -0.222580
v 0.008485 1.029181 -0.325882
v -0.000000 2.480862 -0.357245
v 0.719949 1.883077 0.058302
v 0.635539 1.098234 0.203696
v 0.608263 2.468015 0.123148
v 0.653418 1.732386 0.517484
v -0.001839 0.979568 0.662930
v -0.000000 2.544096 0.544675
v 0.728599 1.864060 0.159339
v 0.007985 0.921142 0.182180
v -0.000000 2.614716 0.130571
v 0.846976 0.483295 -0.788597
v 0.533165 2.394758 -0.518616
v 0.007446 1.118860 -0.585363
v 0.000000 2.280686 -0.622767
v 0.489988 1.496410 -0.726395
v 0.464578 2.191055 -0.751288
v 0.090363 0.798070 3.108367
v 0.004657 1.236872 -0.806852
v -0.000000 2.103516 -0.887623
v 0.574052 1.825197 -0.828583
v 0.000868 1.600894 -0.915803
v 0.084677 1.186530 3.205956
v 0.172094 1.586053 3.037232
v 0.446151 1.098036 1.116693
v 0.500018 2.377351 0.889593
v 0.175772 0.831997 2.909157
v 0.610987 1.673607 0.863154
v -0.010614 1.026331 1.102451
v -0.000000 2.487897 0.979387
v 0.059274 0.797665 3.339947
v 0.033850 0.951381 3.415320
v 0.047665 0.757766 3.226550
v 0.570340 2.528199 1.239684
v 0.538271 0.434349 1.252224
v -0.007029 0.962052 1.463094
v -0.000000 2.653181 1.345361
v 0.118300 1.396085 3.211496
v 0.136209 0.802059 3.022177
v 0.177045 1.777680 2.823801
v 0.583003 2.528340 1.435916
v 0.443933 0.430398 1.310997
v -0.004089 0.992666 1.613982
v 0.000000 2.656096 1.544480
v 0.190837 0.869750 2.794640
v 0.177045 1.901913 2.651742
v 0.177045 0.913376 2.654548
v 0.540207 2.469419 1.719261
v 0.656863 1.767600 1.747527
v 0.536339 1.001910 1.876524
v -0.001187 1.078134 1.781331
v 0.000000 2.587798 1.817999
v 0.181751 2.056690 2.403048
v 0.181751 1.079905 2.307146
v 0.453299 2.242756 2.010875
v 0.551617 1.574740 1.922426
v 0.452251 1.309657 1.925217
v -0.000485 1.159050 1.914081
v 0.000000 2.337290 2.103666
v 0.227127 2.303796 2.070982
v 0.226511 1.223940 1.918770
v 0.271600 2.554620 1.765669
v 0.349070 1.029755 1.716565
v 0.364925 2.000093 2.357569
v 0.444669 1.422516 2.313391
v 0.364925 1.133199 2.251583
v 0.000000 1.045187 2.318213
v -0.000000 2.085897 2.405887
v 0.293538 2.619044 1.479477
v 0.292491 1.020390 1.604003
v 0.287047 2.617153 1.276953
v 0.355746 1.853898 2.608002
v 0.433703 1.365191 2.594573
v 0.355746 0.962930 2.605746
v 0.000000 0.886914 2.640937
v -0.000000 1.928923 2.639692
v 0.285857 1.036095 1.531274
v 0.250990 2.456718 0.911335
v 0.309486 1.061795 1.284564
v 0.372539 1.596854 2.776963
v 0.455708 1.388276 2.739615
v 0.382651 0.921601 2.751706
v 0.000000 0.844123 2.776330
v -0.000000 1.806909 2.805059
v 0.252981 1.672042 -0.887764
v 0.203175 2.109568 -0.852310
v 0.347669 1.416028 -0.695406
v 0.241143 1.371166 3.157983
v 0.339854 1.134293 3.047871
v 0.276080 0.840493 2.985640
v 0.000000 0.793279 2.986606
v 0.000000 1.420814 3.183345
v 0.248890 2.273113 -0.663675
v 0.310654 1.267667 -0.457503
v 0.306991 2.558995 0.093417
v 0.069124 0.953078 3.393185
v 0.125993 0.814914 3.303034
v 0.103346 0.783869 3.224780
v 0.000000 0.747155 3.234915
v 0.064203 0.900986 3.396264
v 0.000000 0.787941 3.334900
v 0.465527 1.427546 2.828944
v 0.000000 0.814760 2.883769
v 0.353261 0.877417 2.867993
v 0.330403 1.023409 0.164629
v 0.000000 1.617940 3.014592
v 0.402860 1.559765 2.858650
v 0.267639 2.510685 0.480969
v 0.000000 1.189180 3.205207
v 0.274908 0.991551 0.609629
v 0.300694 2.461205 -0.396883
v 0.389503 1.188323 -0.192443
v 0.186642 0.830015 3.073243
v 0.000000 0.795976 3.067145
v 0.210413 0.974597 3.175464
v 0.175549 1.154063 3.181611
v 0.070240 0.777794 3.162191
v 0.067630 1.032176 3.321918
v 0.139993 0.796843 3.155551
v 0.161300 0.895634 3.238691
v 0.000000 1.041081 3.310992
v 0.000000 0.771962 3.147109
v 0.134901 1.022781 3.290569
v 0.611786 2.252506 0.988148
v 0.708722 1.646882 0.918362
v 0.641966 1.180676 1.136044
v 0.672184 2.400842 1.233468
v 0.785852 1.608353 1.380790
v 0.798408 1.075928 1.548526
v 0.636725 2.422655 1.418764
v 0.798741 1.675976 1.543118
v 0.808590 1.034571 1.723697
v 0.641534 2.281183 1.594066
v 0.750323 1.759848 1.717640
v 0.740619 1.035142 1.865243
v 0.423836 0.695148 1.235281
v 0.522102 0.739971 1.169182
v 0.738310 0.619780 1.688211
v 0.588124 0.589018 1.731393
v 0.788705 0.628593 1.568922
v 0.402962 0.611950 1.452597
v 0.781151 0.659784 1.442812
v 0.666276 0.761671 1.168545
v 0.406900 0.578272 1.585159
v 0.450098 0.585698 1.675801
v 0.750435 0.447065 1.620620
v 0.602111 0.442004 1.663411
v 0.540388 -0.031855 1.227590
v 0.801691 0.439863 1.531363
v 0.421317 0.424820 1.444638
v 0.425009 -0.031605 1.285331
v 0.790850 0.435983 1.431095
v 0.675844 0.438742 1.257151
v 0.421992 0.427971 1.558708
v 0.464783 0.436491 1.629801
v 0.441407 0.232110 1.278699
v 0.545567 0.231245 1.224762
v 0.779985 0.257022 1.560911
v 0.617999 0.257898 1.600412
v 0.800267 0.244061 1.479683
v 0.422580 0.234165 1.400627
v 0.790534 0.235309 1.387637
v 0.698427 0.232521 1.229075
v 0.425031 0.243497 1.504204
v 0.468699 0.254501 1.568306
v 0.826831 -0.024898 1.587651
v 0.620205 -0.026286 1.628405
v 0.658739 -0.028515 1.505122
v 0.823668 -0.027879 1.499795
v 0.404237 -0.031651 1.416015
v 0.648396 -0.032331 1.397987
v 0.814307 -0.032218 1.402221
v 0.709818 -0.031498 1.232438
v 0.409240 -0.026899 1.527389
v 0.427340 -0.024949 1.596444
v 0.430752 0.105737 1.283067
v 0.415525 0.115565 1.518537
v 0.410670 0.107474 1.409811
v 0.805682 0.107596 1.396216
v 0.814743 0.115165 1.491657
v 0.797999 0.179674 1.575134
v 0.622560 0.177723 1.618448
v 0.705849 0.105526 1.231777
v 0.542199 0.104738 1.227154
v 0.459328 0.178628 1.584006
v 0.618527 0.088275 1.756291
v 0.619220 -0.029194 1.764382
v 0.795629 -0.027850 1.723113
v 0.456830 -0.028252 1.732245
v 0.788914 0.090212 1.715694
v 0.461677 0.089583 1.724322
v 0.757660 2.399671 -0.283904
v 0.800297 1.915878 -0.034574
v 0.795481 1.304951 -0.186998
v 0.750622 2.320629 -0.512818
v 0.872691 1.894064 -0.519457
v 0.840839 1.397556 -0.430221
v 0.745317 2.176264 -0.699626
v 0.852804 1.878453 -0.738312
v 0.770046 1.511855 -0.677517
v 0.622296 0.273428 -0.852498
v 0.560279 1.212558 -0.844714
v 0.671910 1.082361 -0.234328
v 0.475832 1.080162 -0.297514
v 0.416026 1.132413 -0.559062
v 0.448589 1.196366 -0.800050
v 0.837387 1.152712 -0.551648
v 0.782688 1.207148 -0.804078
v 0.799929 1.101527 -0.311095
v 0.582643 1.007530 -0.861055
v 0.673948 0.673904 -0.405418
v 0.495818 0.710768 -0.464380
v 0.446661 0.867547 -0.652319
v 0.480374 0.984970 -0.827425
v 0.831487 0.855636 -0.633507
v 0.785287 0.988077 -0.826326
v 0.792291 0.715722 -0.457546
v 0.568317 0.357883 -1.078249
v 0.683681 0.237915 -0.633663
v 0.428471 0.233268 -0.694980
v 0.418018 0.281829 -0.885682
v 0.454253 0.348039 -1.048708
v 0.846653 0.272842 -0.871124
v 0.793704 0.340883 -1.048524
v 0.850074 0.233609 -0.693345
v 0.847581 0.418669 -0.632310
v 0.418417 0.494494 -0.806396
v 0.455057 0.572404 -0.962144
v 0.426133 0.422819 -0.636363
v 0.680568 0.405104 -0.584249
v 0.569277 0.586740 -0.989402
v 0.794562 0.566790 -0.959832
v 0.802543 0.322250 -0.548938
v 0.805891 0.217819 -0.553828
v 0.675636 0.218997 -0.496606
v 0.475914 0.213701 -0.554935
v 0.472403 0.313417 -0.549837
v 0.672413 0.327034 -0.494472
v 0.816109 0.686041 -0.701068
v 0.457245 0.696512 -0.715047
v 0.671045 0.580934 -0.508274
v 0.780794 0.602592 -0.552965
v 0.489409 0.783521 -0.857963
v 0.504526 0.602706 -0.558166
v 0.585305 0.798874 -0.883910
v 0.773881 0.779334 -0.857069
v -0.000000 1.964712 -0.963352
v -0.000000 1.715167 -1.003691
v 0.092684 1.735026 -0.966811
v 0.076591 1.955334 -0.937061
v 0.128661 1.731313 -0.916106
v 0.088882 2.048142 -0.898695
v -0.000000 1.692332 -0.956154
v -0.000000 2.059583 -0.930772
v 0.353936 1.729723 2.704480
v 0.462452 1.311140 2.698091
v 0.346085 1.544227 2.986832
v 0.469988 1.275608 2.899904
v 0.431634 1.634454 2.817759
v 0.509515 1.617591 2.833957
v 0.472450 1.640929 2.834887
v 0.537234 1.581891 2.822973
v 0.536419 1.497462 2.790142
v 0.550044 1.540320 2.808192
v 0.514400 1.578328 2.868377
v 0.455471 1.589144 2.871712
v 0.486059 1.593785 2.874146
v 0.527030 1.504643 2.845106
v 0.527210 1.563782 2.862675
v 0.537319 1.535093 2.853106
v 0.372831 1.569257 2.861122
v 0.460350 1.384579 2.817332
v 0.490673 1.617365 2.880782
v 0.529939 1.595757 2.873302
v 0.447174 1.610731 2.877756
v 0.548145 1.574853 2.865834
v 0.562047 1.535190 2.853208
v 0.548125 1.493976 2.842203
v 0.383871 1.545003 2.855319
v 0.450291 1.405909 2.822319
v 0.413090 1.544437 2.843747
v 0.458299 1.449236 2.822317
v 0.473111 1.569038 2.854937
v 0.493557 1.557942 2.850791
v 0.451044 1.565694 2.853173
v 0.502798 1.547490 2.846690
v 0.510091 1.526855 2.839805
v 0.502668 1.504995 2.834069
v 0.399391 1.534006 2.841387
v 0.447307 1.433600 2.817479
v 0.058900 0.964700 3.383449
v 0.055763 0.876825 3.390250
v 0.099802 0.968492 3.355538
v 0.095412 0.880319 3.363199
v 0.000000 0.876874 3.393300
v 0.000000 0.962154 3.386809
v 0.030579 0.899449 3.417725
v 0.000000 0.949585 3.414164
v 0.000000 0.899249 3.417104
v -0.546873 1.148584 0.593901
v -0.532479 2.429486 0.475478
v -0.602155 1.089918 -0.087588
v -0.619472 2.367115 -0.222580
v -0.708448 1.716940 0.054846
v -0.616250 1.050133 0.211712
v -0.609568 2.450600 0.123148
v -0.652841 1.724186 0.513199
v -0.718908 1.721705 0.156023
v -0.820347 0.233878 -0.512599
v -0.537649 2.247676 -0.518616
v -0.464300 1.280876 -0.724180
v -0.464300 2.068334 -0.751288
v -0.090362 0.798070 3.108367
v -0.561879 1.665703 -0.835249
v -0.084677 1.186530 3.205956
v -0.172094 1.586058 3.037232
v -0.476112 1.403254 1.059147
v -0.499971 2.378614 0.889643
v -0.175772 0.831997 2.909157
v -0.616844 1.749669 0.858983
v -0.059274 0.797665 3.339947
v -0.033850 0.951381 3.415320
v -0.047665 0.757766 3.226550
v -0.570340 2.528199 1.239684
v -0.547914 0.903957 1.030150
v -0.118300 1.396085 3.211496
v -0.136209 0.802059 3.022177
v -0.177045 1.777680 2.823801
v -0.583003 2.528340 1.435916
v -0.452822 0.872382 1.080096
v -0.190837 0.869750 2.794640
v -0.177045 1.901913 2.651742
v -0.177045 0.913376 2.654548
v -0.540207 2.469419 1.719261
v -0.666345 2.048488 1.733165
v -0.556326 1.197727 1.791599
v -0.181751 2.056690 2.403048
v -0.181751 1.079905 2.307147
v -0.452192 2.260919 2.013495
v -0.557225 1.656998 1.915665
v -0.459824 1.368895 1.910021
v -0.227127 2.303796 2.070982
v -0.230195 1.252023 1.909665
v -0.271600 2.554620 1.765669
v -0.360439 1.138897 1.675596
v -0.364925 2.000093 2.357569
v -0.445218 1.430214 2.312937
v -0.364925 1.133198 2.251584
v -0.293538 2.619044 1.479477
v -0.306449 1.146714 1.563832
v -0.287047 2.617153 1.276953
v -0.355746 1.853898 2.608002
v -0.433703 1.365193 2.594576
v -0.355746 0.962932 2.605752
v -0.314390 1.263244 1.471399
v -0.250990 2.456718 0.911335
v -0.341759 1.334100 1.224400
v -0.372539 1.596853 2.776963
v -0.455708 1.388287 2.739624
v -0.382651 0.921603 2.751712
v -0.248975 1.624823 -0.891494
v -0.203268 2.092143 -0.852310
v -0.324360 1.236383 -0.689431
v -0.241143 1.371176 3.157987
v -0.339854 1.134293 3.047871
v -0.276080 0.840493 2.985640
v -0.249692 2.247466 -0.663675
v -0.282091 1.115709 -0.450470
v -0.307155 2.557341 0.093417
v -0.069124 0.953078 3.393185
v -0.125993 0.814914 3.303034
v -0.103346 0.783869 3.224780
v -0.064203 0.900986 3.396264
v -0.465526 1.427573 2.828958
v -0.353261 0.877417 2.867993
v -0.308350 0.972266 0.168303
v -0.402860 1.559821 2.858658
v -0.267639 2.510685 0.480969
v -0.277689 1.055552 0.595224
v -0.301735 2.446128 -0.396883
v -0.356832 1.033609 -0.176421
v -0.186642 0.830015 3.073243
v -0.210413 0.974597 3.175464
v -0.175549 1.154063 3.181611
v -0.070240 0.777794 3.162191
v -0.067630 1.032176 3.321918
v -0.139993 0.796843 3.155551
v -0.161300 0.895634 3.238691
v -0.134901 1.022781 3.290569
v -0.611134 2.276819 0.988738
v -0.717184 1.766327 0.911738
v -0.674364 1.539792 1.082292
v -0.671004 2.423599 1.235240
v -0.800007 1.944656 1.352566
v -0.828027 1.403976 1.457972
v -0.636391 2.428179 1.419327
v -0.811189 2.010978 1.518372
v -0.837088 1.330782 1.622118
v -0.639596 2.320544 1.597691
v -0.760213 2.057905 1.701274
v -0.766849 1.284112 1.767952
v -0.443462 1.110008 1.093498
v -0.543091 1.163637 1.036417
v -0.751657 0.917857 1.507755
v -0.600058 0.872743 1.545556
v -0.802500 0.953967 1.393654
v -0.417453 0.978075 1.281307
v -0.796200 1.015293 1.276932
v -0.686020 1.180371 1.036133
v -0.418689 0.900482 1.403634
v -0.461489 0.872431 1.498262
v -0.756608 0.728083 1.360230
v -0.607722 0.706090 1.398466
v -0.537918 0.563700 0.778357
v -0.808433 0.761294 1.275523
v -0.428664 0.802237 1.194811
v -0.421695 0.530211 0.821047
v -0.798504 0.807420 1.184598
v -0.685523 0.901663 1.035733
v -0.428322 0.750496 1.299261
v -0.470692 0.723586 1.367694
v -0.445018 0.728630 0.950618
v -0.549776 0.754621 0.903201
v -0.780452 0.577418 1.199197
v -0.617785 0.553066 1.234505
v -0.801513 0.615330 1.122180
v -0.424715 0.662715 1.054302
v -0.792747 0.661316 1.039083
v -0.702544 0.748547 0.905572
v -0.426041 0.610126 1.148291
v -0.469102 0.579419 1.209026
v -0.818257 0.314252 1.019081
v -0.610620 0.281097 1.032765
v -0.651827 0.380526 0.962638
v -0.816820 0.380598 0.966237
v -0.398908 0.447419 0.914619
v -0.643259 0.452290 0.900285
v -0.809001 0.443872 0.902620
v -0.707202 0.555712 0.781305
v -0.402080 0.373338 0.987382
v -0.418803 0.320345 1.027924
v -0.430728 0.624485 0.891357
v -0.412410 0.490163 1.085177
v -0.408992 0.552604 0.994706
v -0.804013 0.548871 0.980303
v -0.811896 0.496327 1.061839
v -0.795631 0.493796 1.165519
v -0.618517 0.440932 1.196216
v -0.706333 0.644479 0.846569
v -0.542813 0.651852 0.843916
v -0.456937 0.497098 1.173470
v -0.608621 0.247357 1.203527
v -0.606570 0.167357 1.107237
v -0.784047 0.202746 1.091789
v -0.445207 0.205524 1.098535
v -0.780226 0.286932 1.186636
v -0.453088 0.293535 1.194984
v -0.762347 2.225645 -0.283904
v -0.786894 1.717247 -0.038245
v -0.762347 1.122455 -0.162007
v -0.752301 2.124052 -0.512818
v -0.858109 1.684880 -0.523641
v -0.810121 1.186282 -0.413410
v -0.742126 1.987807 -0.702224
v -0.837789 1.669354 -0.744912
v -0.742126 1.275405 -0.673966
v -0.603063 0.005615 -0.494091
v -0.522568 0.950210 -0.813376
v -0.633096 0.912790 -0.186782
v -0.436403 0.904945 -0.254410
v -0.377007 0.919209 -0.521753
v -0.410466 0.942600 -0.767786
v -0.799837 0.931102 -0.508469
v -0.745320 0.948404 -0.769987
v -0.761533 0.918135 -0.263548
v -0.538878 0.712430 -0.800660
v -0.639562 0.547712 -0.246171
v -0.460388 0.555208 -0.312948
v -0.406281 0.627499 -0.548044
v -0.436760 0.696711 -0.761281
v -0.791452 0.633193 -0.529691
v -0.741792 0.702286 -0.761700
v -0.756560 0.569360 -0.312021
v -0.546194 0.011453 -0.732339
v -0.665640 0.021673 -0.273432
v -0.410744 0.001358 -0.326521
v -0.398616 -0.003102 -0.522065
v -0.432539 0.007251 -0.699337
v -0.827306 0.007046 -0.509683
v -0.772035 0.012022 -0.700752
v -0.832083 0.015206 -0.329303
v -0.823188 0.233166 -0.337790
v -0.391657 0.223867 -0.526453
v -0.425580 0.235355 -0.702324
v -0.401848 0.220938 -0.336414
v -0.656744 0.231979 -0.284279
v -0.539235 0.240860 -0.735056
v -0.765075 0.241028 -0.703156
v -0.781513 0.137146 -0.210895
v -0.788472 0.028060 -0.190640
v -0.658255 0.033394 -0.135535
v -0.458836 0.014033 -0.187551
v -0.451877 0.121247 -0.206814
v -0.651295 0.145082 -0.157461
v -0.782484 0.452601 -0.519068
v -0.423258 0.444970 -0.532100
v -0.640825 0.429022 -0.295281
v -0.749942 0.435477 -0.347228
v -0.451684 0.469434 -0.703176
v -0.473720 0.424179 -0.347060
v -0.546923 0.476534 -0.735086
v -0.736168 0.473986 -0.704224
v -0.092420 1.731146 -0.966811
v -0.076591 1.955334 -0.937061
v -0.127605 1.715971 -0.917128
v -0.088882 2.048142 -0.898695
v -0.353936 1.729723 2.704479
v -0.462452 1.311147 2.698099
v -0.346085 1.544242 2.986834
v -0.469988 1.275616 2.899911
v -0.431634 1.634528 2.817756
v -0.509515 1.617719 2.833957
v -0.472450 1.641050 2.834880
v -0.537234 1.582031 2.822986
v -0.536419 1.497541 2.790169
v -0.550043 1.540426 2.808215
v -0.514399 1.578436 2.868388
v -0.455471 1.589244 2.871720
v -0.486059 1.593894 2.874153
v -0.527030 1.504729 2.845131
v -0.527210 1.563889 2.862690
v -0.537319 1.535194 2.853127
v -0.372831 1.569277 2.861125
v -0.460350 1.384595 2.817342
v -0.490672 1.617486 2.880783
v -0.529939 1.595880 2.873309
v -0.447174 1.610830 2.877758
v -0.548145 1.574974 2.865847
v -0.562047 1.535297 2.853230
v -0.548125 1.494065 2.842231
v -0.383871 1.545062 2.855330
v -0.450291 1.405926 2.822328
v -0.413090 1.544500 2.843759
v -0.458299 1.449259 2.822327
v -0.473111 1.569131 2.854948
v -0.493556 1.558019 2.850803
v -0.451044 1.565794 2.853186
v -0.502798 1.547576 2.846705
v -0.510091 1.526950 2.839828
v -0.502668 1.505071 2.834091
v -0.399391 1.534062 2.841398
v -0.447307 1.433622 2.817490
v -0.058900 0.964700 3.383449
v -0.055763 0.876825 3.390250
v -0.099802 0.968492 3.355538
v -0.095412 0.880319 3.363199
v -0.030579 0.899449 3.417725
v 0.291561 1.163998 3.080908
v 0.306648 1.232144 3.096215
v 0.269728 1.161980 3.122787
v 0.232186 1.121849 3.120636
v 0.245906 1.167212 3.092736
v 0.291926 1.235378 3.077643
v 0.256597 1.232112 3.145406
v 0.210577 1.163946 3.160498
v 0.195855 1.167180 3.141926
v 0.232775 1.237344 3.115355
v 0.270316 1.277474 3.117505
v 0.210942 1.235326 3.157234
v 0.285805 1.156550 3.098823
v 0.307506 1.197792 3.083205
v 0.294673 1.196605 3.107821
v 0.307720 1.239747 3.081286
v 0.298852 1.199692 3.072288
v 0.263739 1.132962 3.097559
v 0.250905 1.131776 3.122175
v 0.271803 1.159626 3.081159
v 0.236903 1.134851 3.104512
v 0.272017 1.201581 3.079241
v 0.295019 1.264492 3.104716
v 0.286365 1.266392 3.093799
v 0.265254 1.196587 3.136734
v 0.286955 1.237828 3.121115
v 0.216138 1.132932 3.144342
v 0.238204 1.156520 3.145606
v 0.215548 1.161495 3.117025
v 0.207484 1.134832 3.133425
v 0.264299 1.242804 3.092535
v 0.237249 1.202737 3.101407
v 0.265600 1.264473 3.133630
v 0.230486 1.197742 3.158901
v 0.194783 1.159576 3.156855
v 0.207830 1.202718 3.130321
v 0.251598 1.267548 3.115966
v 0.230700 1.239698 3.156981
v 0.238764 1.266361 3.140582
v 0.203650 1.199632 3.165853
v 0.194997 1.201532 3.154936
v 0.216698 1.242773 3.139318
v -0.291561 1.163998 3.080908
v -0.306648 1.232144 3.096215
v -0.269728 1.161980 3.122787
v -0.232186 1.121849 3.120637
v -0.245906 1.167212 3.092736
v -0.291925 1.235377 3.077643
v -0.256597 1.232112 3.145406
v -0.210577 1.163946 3.160499
v -0.195854 1.167180 3.141927
v -0.232775 1.237344 3.115355
v -0.270316 1.277474 3.117505
v -0.210942 1.235326 3.157234
v -0.285805 1.156550 3.098823
v -0.307506 1.197792 3.083205
v -0.294673 1.196605 3.107821
v -0.307720 1.239747 3.081286
v -0.298852 1.199692 3.072288
v -0.263739 1.132962 3.097560
v -0.250905 1.131776 3.122175
v -0.271803 1.159626 3.081160
v -0.236903 1.134851 3.104512
v -0.272017 1.201581 3.079241
v -0.295019 1.264492 3.104717
v -0.286365 1.266392 3.093800
v -0.265254 1.196587 3.136734
v -0.286955 1.237828 3.121116
v -0.216137 1.132931 3.144342
v -0.238204 1.156520 3.145606
v -0.215548 1.161495 3.117026
v -0.207484 1.134832 3.133425
v -0.264299 1.242804 3.092536
v -0.237249 1.202737 3.101407
v -0.265599 1.264473 3.133630
v -0.230486 1.197742 3.158901
v -0.194782 1.159576 3.156856
v -0.207830 1.202718 3.130321
v -0.251597 1.267548 3.115966
v -0.230700 1.239698 3.156982
v -0.238764 1.266361 3.140582
v -0.203650 1.199631 3.165854
v -0.194997 1.201532 3.154937
v -0.216698 1.242773 3.139319
vn -0.7672 -0.6400 0.0421
vn 0.0770 0.9296 -0.3603
vn 0.9903 -0.1196 -0.0704
vn 0.9818 0.1891 -0.0149
vn 0.9502 0.1905 0.2466
vn 0.9757 -0.1187 0.1842
vn 0.9729 -0.1689 0.1578
vn 0.2903 -0.9515 0.1018
vn 0.3161 -0.8636 -0.3927
vn 0.2469 -0.9684 -0.0352
vn 0.0911 0.9689 -0.2300
vn 0.1776 0.9721 0.1529
vn 0.0178 0.7513 -0.6597
vn 0.2642 -0.2797 -0.9230
vn 0.4900 -0.8052 -0.3341
vn 0.4815 0.4593 0.7465
vn 0.1953 0.1742 -0.9652
vn 0.2688 -0.4294 -0.8622
vn 0.2234 0.2382 -0.9452
vn 0.5280 -0.7512 -0.3962
vn 0.8324 0.5539 0.0179
vn 0.9976 -0.0246 -0.0646
vn 0.1545 0.9797 0.1277
vn 0.9792 0.1631 0.1210
vn 0.2993 -0.4477 -0.8426
vn 0.1217 0.9925 -0.0138
vn 0.0108 0.9133 -0.4072
vn -0.6631 -0.1773 -0.7272
vn 0.6561 0.1584 -0.7378
vn 0.1675 0.9578 0.2337
vn -0.9664 -0.2569 -0.0120
vn 0.9333 0.0392 -0.3569
vn -0.0458 0.8092 -0.5858
vn 0.7422 -0.0732 0.6661
vn -0.2574 -0.5147 0.8178
vn 0.0567 -0.9931 0.1029
vn 0.3735 -0.8917 -0.2556
vn 0.1919 -0.9805 0.0417
vn 0.2030 -0.3444 0.9166
vn 0.7633 0.4943 -0.4159
vn 0.2694 0.9476 -0.1717
vn 0.9423 -0.3162 0.1103
vn 0.2626 -0.8976 -0.3540
vn 0.2732 0.9507 0.1467
vn 0.2081 0.7381 0.6418
vn -0.0047 0.7997 -0.6004
vn 0.8768 0.1171 0.4664
vn 0.4864 -0.4316 0.7597
vn 0.8087 0.1344 -0.5727
vn 0.3545 -0.3625 -0.8619
vn 0.9858 0.1409 0.0913
vn 0.9722 0.1097 -0.2071
vn 0.1714 0.7686 0.6163
vn 0.2275 -0.9643 -0.1354
vn 0.9466 0.1028 0.3057
vn 0.2925 0.9456 0.1422
vn 0.2968 0.9548 -0.0191
vn 0.9787 0.2001 0.0465
vn 0.2317 0.8790 -0.4167
vn 0.0768 0.8054 0.5878
vn 0.1312 -0.8947 -0.4269
vn 0.9746 -0.2188 -0.0475
vn 0.3265 0.9154 0.2354
vn 0.1168 0.8337 0.5398
vn -0.0016 0.6633 0.7483
vn 0.1642 -0.9847 0.0586
vn 0.8389 -0.2821 0.4654
vn 0.2122 -0.9621 -0.1715
vn 0.0893 -0.7535 0.6514
vn 0.1809 -0.9355 -0.3036
vn 0.9342 -0.2097 -0.2886
vn 0.0067 -0.9475 0.3196
vn 0.8717 -0.4695 0.1403
vn 0.3324 -0.9393 -0.0847
vn 0.2223 -0.9307 -0.2905
vn 0.3417 0.6958 0.6318
vn 0.3599 0.7215 0.5915
vn 0.7608 0.0842 0.6435
vn 0.4543 0.6524 0.6066
vn 0.1547 -0.8895 -0.4300
vn 0.1859 -0.9224 0.3387
vn 0.8837 -0.0087 0.4679
vn 0.3515 0.7974 0.4906
vn 0.3836 0.5430 0.7470
vn 0.1217 -0.9703 -0.2088
vn 0.4144 0.5797 0.7016
vn 0.1593 -0.9397 -0.3027
vn 0.5346 0.0024 0.8451
vn 0.1479 -0.9544 -0.2593
vn 0.3937 -0.8828 0.2564
vn -0.3033 -0.3961 0.8666
vn -0.0092 0.6845 0.7290
vn 0.1790 -0.9375 -0.2984
vn 0.9703 -0.2419 0.0060
vn 0.0310 -0.5423 0.8396
vn 0.0507 0.7421 0.6684
vn 0.6302 -0.0146 0.7763
vn 0.1441 -0.9499 -0.2774
vn -0.1346 0.0469 0.9898
vn 0.4464 0.7066 0.5490
vn 0.3331 -0.0375 0.9421
vn 0.0463 -0.9989 0.0050
vn 0.3308 -0.9263 0.1804
vn 0.7809 -0.3500 0.5174
vn 0.4028 0.5146 0.7569
vn 0.1485 -0.9453 -0.2906
vn 0.8472 0.0696 0.5267
vn -0.0169 0.5918 0.8059
vn 0.2233 -0.9396 -0.2594
vn 0.8796 -0.3805 0.2856
vn 0.9471 -0.1590 -0.2789
vn 0.9836 0.1793 0.0177
vn 0.9686 0.1343 -0.2091
vn 0.9588 0.2357 0.1583
vn 0.9977 -0.0012 -0.0681
vn 0.9421 0.0784 0.3260
vn 0.7315 0.2151 0.6470
vn 0.9021 0.3629 0.2333
vn -0.5460 -0.2694 0.7933
vn 0.1206 0.1709 0.9779
vn 0.0389 -0.2618 -0.9643
vn 0.8972 -0.0647 0.4368
vn -0.9832 -0.1060 -0.1486
vn -0.9950 -0.0993 0.0063
vn 0.9953 0.0635 -0.0732
vn 0.2978 -0.3520 0.8874
vn 0.8969 -0.1863 0.4011
vn -0.8635 -0.2398 0.4438
vn 0.0845 -0.0976 -0.9916
vn -0.9550 -0.2550 -0.1514
vn 0.9192 -0.0459 0.3911
vn -0.9866 0.0345 -0.1595
vn -0.9998 -0.0155 0.0152
vn 0.9939 0.0215 -0.1077
vn 0.2500 -0.2742 0.9286
vn 0.8407 0.1381 -0.5237
vn -0.8568 -0.2001 0.4753
vn -0.2758 -0.3683 0.8878
vn -0.4768 -0.2637 -0.8385
vn 0.8861 -0.0338 -0.4623
vn 0.0284 -0.0038 -0.9996
vn 0.9933 0.1100 0.0354
vn -0.9869 0.0387 -0.1569
vn -0.9980 0.0473 0.0419
vn 0.9935 0.0567 -0.0983
vn 0.9761 0.1188 0.1822
vn 0.0288 0.1365 -0.9902
vn -0.8147 -0.1890 0.5483
vn -0.2017 -0.3251 0.9239
vn -0.4915 0.1225 -0.8622
vn -0.0028 -1.0000 -0.0009
vn 0.0087 -0.9996 0.0261
vn -0.0014 -0.9992 0.0393
vn 0.0015 -1.0000 -0.0045
vn -0.0071 -0.9998 0.0210
vn 0.0024 -0.9992 0.0396
vn -0.9228 0.1245 0.3645
vn -0.9805 0.1221 0.1539
vn -0.4480 0.0035 -0.8940
vn 0.8529 0.0262 -0.5215
vn 0.8581 0.0534 -0.5107
vn -0.4540 0.0014 -0.8910
vn -0.2051 0.2129 0.9553
vn -0.8573 0.1519 0.4919
vn 0.2315 0.2269 0.9460
vn 0.9885 0.1054 -0.1083
vn -0.9959 0.0863 0.0272
vn -0.9847 0.0795 -0.1553
vn 0.9754 0.1713 0.1387
vn 0.0283 -0.0196 -0.9994
vn 0.2285 0.0711 0.9709
vn -0.1959 0.0700 0.9781
vn 0.1218 0.8324 0.5407
vn 0.0026 -0.9998 -0.0213
vn -0.1055 0.8372 0.5366
vn -0.0023 -0.9997 -0.0226
vn 0.9791 0.1937 0.0623
vn 0.9608 -0.1662 -0.2221
vn 0.9869 -0.0416 0.1556
vn 0.9346 0.3074 -0.1793
vn 0.6010 -0.2444 0.7610
vn 0.2020 0.9559 -0.2132
vn 0.9863 -0.0776 0.1458
vn 0.2057 0.7350 -0.6461
vn -0.9748 -0.1467 0.1681
vn -0.3515 0.0524 -0.9347
vn -0.3184 -0.3853 0.8661
vn 0.9863 -0.0696 0.1496
vn 0.1532 0.3979 -0.9045
vn -0.3675 0.2692 -0.8902
vn -0.8913 -0.3521 -0.2856
vn -0.1290 -0.6424 0.7555
vn -0.2609 0.3493 -0.8999
vn -0.9376 -0.0928 0.3350
vn 0.9999 0.0089 -0.0093
vn -0.9789 0.0748 -0.1900
vn 0.5003 -0.3245 0.8028
vn 0.1794 0.0996 -0.9787
vn 0.9778 0.0354 -0.2067
vn -0.9784 -0.0799 -0.1907
vn -0.0479 -0.9830 -0.1774
vn 0.0345 -0.9778 -0.2068
vn 0.0084 -0.9323 -0.3617
vn -0.0281 -0.9374 -0.3471
vn -0.9988 -0.0198 0.0437
vn 0.9367 -0.0597 0.3449
vn 0.1506 0.3590 -0.9211
vn 0.9636 0.0954 -0.2498
vn 0.9649 0.1985 -0.1718
vn 0.1623 0.4359 -0.8853
vn 0.3374 -0.3119 0.8882
vn -0.9510 0.1803 0.2513
vn -0.9701 0.2201 -0.1020
vn 0.9683 0.1627 0.1896
vn -0.2515 -0.3435 0.9049
vn -0.2785 0.4528 -0.8470
vn -0.2715 -0.0423 0.9615
vn 0.3938 -0.0182 0.9190
vn -0.1679 0.6570 0.7349
vn 0.0599 -0.9875 -0.1457
vn 0.2310 0.6490 0.7249
vn -0.0725 -0.9878 -0.1377
vn -0.3060 0.1143 -0.9451
vn -0.3253 -0.6660 0.6713
vn 0.9804 -0.1597 0.1154
vn -0.9791 -0.0007 -0.2033
vn -0.9748 -0.1565 0.1589
vn 0.4446 -0.6369 0.6298
vn 0.1662 0.1222 -0.9785
vn 0.9687 -0.0041 -0.2482
vn 0.3375 0.1502 -0.9293
vn 0.3551 -0.8615 -0.3629
vn 0.3507 0.3110 -0.8834
vn 0.2039 0.4961 -0.8440
vn 0.2362 -0.2337 -0.9432
vn 0.2965 0.1018 -0.9496
vn 0.9563 0.2894 0.0420
vn 0.9349 0.2981 0.1926
vn 0.9962 0.0806 -0.0321
vn 0.8970 0.3353 0.2880
vn -0.5822 0.7437 0.3287
vn 0.7642 0.6416 -0.0660
vn 0.8067 -0.5757 -0.1335
vn 0.5132 0.8321 0.2105
vn -0.2426 0.8547 0.4590
vn 0.9126 0.3634 -0.1876
vn 0.9424 -0.2224 -0.2499
vn 0.2545 0.3345 -0.9074
vn -0.0595 -0.2538 0.9654
vn 0.0313 -0.2854 0.9579
vn -0.0294 -0.2724 0.9617
vn 0.0070 -0.3066 0.9518
vn -0.0000 -0.2563 0.9666
vn 0.0386 -0.3181 0.9473
vn -0.0455 -0.3158 0.9477
vn 0.0446 -0.2486 0.9676
vn -0.0018 -0.2685 0.9633
vn 0.0076 -0.2294 0.9733
vn 0.1638 -0.6301 0.7590
vn -0.0303 -0.2393 0.9705
vn 0.2959 -0.5590 0.7746
vn -0.4092 0.1365 0.9022
vn -0.4123 -0.0982 0.9057
vn -0.1394 -0.5609 0.8161
vn 0.7288 0.1918 0.6573
vn -0.2065 -0.5097 0.8352
vn -0.5077 0.0939 0.8564
vn 0.0323 -0.6235 0.7812
vn 0.3193 0.7577 0.5691
vn 0.5296 -0.3745 0.7611
vn 0.5248 -0.4352 0.7315
vn -0.0292 0.0531 0.9982
vn 0.0200 -0.7466 0.6650
vn -0.0339 0.9209 0.3882
vn 0.7525 0.0005 0.6586
vn 0.8509 -0.5116 0.1198
vn -0.3750 0.7660 -0.5221
vn -0.9854 -0.1536 -0.0739
vn -0.9903 0.1361 -0.0281
vn -0.9660 0.1645 0.1992
vn -0.9703 -0.1408 0.1970
vn -0.9607 -0.1977 0.1948
vn -0.4770 -0.7890 0.3873
vn -0.2641 -0.9549 -0.1358
vn -0.2592 -0.9350 0.2421
vn -0.1152 0.9634 -0.2420
vn -0.1800 0.9720 0.1511
vn -0.3184 0.6961 -0.6435
vn -0.2356 -0.2762 -0.9318
vn -0.1412 -0.9365 -0.3210
vn -0.6768 0.3570 0.6438
vn -0.2552 0.1766 -0.9506
vn -0.1145 -0.3757 -0.9196
vn -0.2679 0.2359 -0.9341
vn -0.1742 -0.8811 -0.4397
vn -0.8004 0.5982 0.0388
vn -0.9960 -0.0456 -0.0763
vn -0.1545 0.9797 0.1277
vn -0.9801 0.1748 0.0942
vn -0.4674 -0.5809 -0.6664
vn -0.1217 0.9925 -0.0138
vn -0.0108 0.9133 -0.4072
vn 0.6864 -0.0088 -0.7272
vn -0.6224 0.1934 -0.7584
vn -0.1675 0.9578 0.2337
vn 0.9449 -0.2277 -0.2353
vn -0.9302 0.0835 -0.3574
vn -0.0109 0.7997 -0.6003
vn -0.8612 -0.1341 0.4903
vn -0.1200 -0.7336 0.6689
vn -0.5073 -0.8334 0.2191
vn -0.1167 -0.9754 -0.1872
vn -0.2277 -0.9613 0.1553
vn -0.3297 -0.5489 0.7681
vn -0.7215 0.5443 -0.4279
vn -0.3436 0.9150 -0.2113
vn -0.9512 -0.2980 0.0798
vn -0.2984 -0.8590 -0.4161
vn -0.3065 0.9423 0.1346
vn -0.2081 0.7381 0.6418
vn -0.0715 0.8009 -0.5945
vn -0.8363 0.1453 0.5287
vn -0.4676 -0.3824 0.7969
vn -0.8211 0.1287 -0.5562
vn -0.2360 -0.3519 -0.9058
vn -0.9853 0.1421 0.0947
vn -0.9745 0.0592 -0.2166
vn -0.1714 0.7686 0.6163
vn -0.6979 -0.7058 -0.1214
vn -0.9397 0.1090 0.3243
vn -0.2999 0.9444 0.1347
vn -0.2968 0.9548 -0.0191
vn -0.9787 0.2001 0.0465
vn -0.2302 0.8800 -0.4154
vn -0.0768 0.8054 0.5878
vn -0.1312 -0.8947 -0.4269
vn -0.9749 -0.2171 -0.0486
vn -0.3265 0.9154 0.2354
vn -0.1168 0.8337 0.5398
vn 0.0016 0.6633 0.7483
vn -0.5679 -0.7838 -0.2513
vn -0.8389 -0.2821 0.4654
vn -0.2122 -0.9621 -0.1715
vn -0.3056 -0.7922 0.5282
vn -0.1809 -0.9355 -0.3036
vn -0.9342 -0.2097 -0.2886
vn -0.3438 -0.9190 0.1928
vn -0.8717 -0.4695 0.1403
vn -0.3324 -0.9393 -0.0847
vn -0.2713 -0.9117 -0.3087
vn -0.3167 0.7179 0.6200
vn -0.3294 0.7228 0.6076
vn -0.7608 0.0842 0.6435
vn -0.4543 0.6524 0.6066
vn -0.1547 -0.8895 -0.4300
vn -0.1859 -0.9224 0.3387
vn -0.8837 -0.0087 0.4679
vn -0.3515 0.7974 0.4906
vn -0.3836 0.5430 0.7470
vn -0.1217 -0.9703 -0.2088
vn -0.4144 0.5797 0.7016
vn -0.1593 -0.9397 -0.3027
vn -0.5346 0.0024 0.8451
vn -0.1479 -0.9544 -0.2593
vn -0.3937 -0.8828 0.2564
vn 0.3033 -0.3959 0.8668
vn 0.0092 0.6845 0.7290
vn -0.1790 -0.9375 -0.2984
vn -0.9703 -0.2419 0.0060
vn -0.0310 -0.5423 0.8396
vn -0.0507 0.7421 0.6684
vn -0.6302 -0.0146 0.7763
vn -0.1441 -0.9499 -0.2774
vn 0.1346 0.0469 0.9898
vn -0.4463 0.7066 0.5490
vn -0.3331 -0.0375 0.9421
vn -0.0463 -0.9989 0.0050
vn -0.3308 -0.9263 0.1804
vn -0.7809 -0.3500 0.5174
vn -0.4028 0.5146 0.7569
vn -0.1485 -0.9453 -0.2906
vn -0.8472 0.0696 0.5267
vn 0.0169 0.5918 0.8059
vn -0.2233 -0.9396 -0.2594
vn -0.8796 -0.3805 0.2856
vn -0.9557 -0.1158 -0.2708
vn -0.9472 0.3207 -0.0016
vn -0.9329 0.2097 -0.2929
vn -0.8785 0.4383 0.1898
vn -0.9976 0.0337 -0.0605
vn -0.9365 0.0614 0.3453
vn -0.7258 0.3625 0.5846
vn -0.8812 0.4155 0.2255
vn 0.2612 -0.6033 0.7535
vn -0.1590 0.0657 0.9851
vn -0.0182 0.0125 -0.9998
vn -0.8943 -0.2378 0.3790
vn 0.9856 -0.0082 -0.1689
vn 0.9985 -0.0496 -0.0244
vn -0.9974 0.0483 -0.0529
vn -0.3195 -0.5970 0.7359
vn -0.9015 -0.2783 0.3313
vn 0.8033 -0.5224 0.2859
vn -0.0144 0.1161 -0.9931
vn 0.9447 -0.2371 -0.2265
vn -0.9176 -0.2632 0.2978
vn 0.9833 0.1453 -0.1097
vn 0.9999 0.0110 0.0108
vn -0.9955 0.0430 -0.0842
vn -0.2618 -0.6914 0.6734
vn -0.8499 0.3740 -0.3712
vn 0.8780 -0.3288 0.3478
vn 0.2447 -0.6479 0.7213
vn 0.4885 0.0206 -0.8723
vn -0.8887 0.0890 -0.4497
vn -0.0409 0.5935 -0.8038
vn -0.9950 0.0114 0.0993
vn 0.9820 0.1643 -0.0930
vn 0.9969 0.0356 0.0700
vn -0.9959 0.0795 -0.0443
vn -0.9742 -0.0910 0.2063
vn -0.0395 0.6486 -0.7601
vn 0.8369 -0.3978 0.3760
vn 0.2389 -0.7173 0.6545
vn 0.4856 0.5812 -0.6530
vn 0.0255 -0.7475 -0.6638
vn -0.0319 -0.6004 -0.7991
vn 0.0412 -0.6808 -0.7313
vn 0.0261 -0.7475 -0.6638
vn 0.0786 -0.5774 -0.8127
vn 0.0041 -0.6824 -0.7310
vn 0.9124 -0.1612 0.3762
vn 0.9799 -0.0118 0.1992
vn 0.4290 0.5604 -0.7084
vn -0.8549 0.3244 -0.4048
vn -0.8649 0.2849 -0.4132
vn 0.4481 0.4786 -0.7551
vn 0.2308 -0.3335 0.9140
vn 0.8638 -0.1276 0.4874
vn -0.2497 -0.3162 0.9153
vn -0.9933 0.1106 -0.0343
vn 0.9933 0.0849 0.0785
vn 0.9803 0.1809 -0.0786
vn -0.9778 0.0268 0.2080
vn -0.0349 0.4957 -0.8678
vn -0.2178 -0.7394 0.6371
vn 0.2289 -0.7279 0.6463
vn -0.1186 0.0629 0.9910
vn -0.0350 -0.5508 -0.8339
vn 0.0740 0.0747 0.9945
vn 0.0862 -0.5399 -0.8373
vn -0.9871 0.1498 0.0564
vn -0.9588 -0.1961 -0.2057
vn -0.9854 -0.0673 0.1563
vn -0.9496 0.2644 -0.1682
vn -0.5800 -0.2322 0.7808
vn -0.5018 0.7623 -0.4088
vn -0.9835 -0.0907 0.1565
vn -0.3619 0.7109 -0.6031
vn 0.9736 -0.1075 0.2014
vn 0.3613 -0.0688 -0.9299
vn 0.3318 -0.1673 0.9284
vn -0.9880 -0.0366 0.1503
vn -0.1803 0.2822 -0.9423
vn 0.3313 0.1723 -0.9277
vn 0.9340 -0.2754 -0.2276
vn 0.2082 -0.5456 0.8118
vn 0.2769 -0.0204 -0.9607
vn 0.9408 -0.0154 0.3387
vn -0.9991 0.0350 -0.0222
vn 0.9811 -0.0331 -0.1905
vn -0.5088 -0.1276 0.8514
vn -0.1888 -0.0376 -0.9813
vn -0.9777 -0.0164 -0.2093
vn 0.9831 -0.0959 -0.1562
vn 0.0018 -0.9982 0.0606
vn -0.0562 -0.9977 0.0391
vn -0.0399 -0.9984 -0.0411
vn -0.0054 -0.9996 -0.0266
vn 0.9978 -0.0336 0.0579
vn -0.9425 0.0743 0.3260
vn -0.1392 -0.0068 -0.9902
vn -0.9604 0.0261 -0.2774
vn -0.9587 0.1376 -0.2488
vn -0.1495 0.0045 -0.9887
vn -0.3515 0.1260 0.9277
vn 0.9559 0.2396 0.1697
vn 0.9790 0.1218 -0.1633
vn -0.9616 0.2574 0.0956
vn 0.2413 0.0860 0.9666
vn 0.2966 0.0195 -0.9548
vn 0.2596 0.1626 0.9519
vn -0.3857 0.1965 0.9014
vn 0.1935 0.7770 0.5990
vn -0.0689 -0.9946 0.0775
vn -0.2326 0.7679 0.5968
vn 0.0070 -0.9962 0.0872
vn 0.3013 -0.2599 -0.9174
vn 0.3094 -0.3169 0.8966
vn -0.9856 -0.0612 0.1579
vn 0.9784 -0.1080 -0.1763
vn 0.9702 -0.1064 0.2179
vn -0.4703 -0.2884 0.8340
vn -0.1617 -0.2521 -0.9541
vn -0.9682 -0.0743 -0.2389
vn -0.3411 0.1487 -0.9282
vn -0.3040 -0.8448 -0.4403
vn -0.3507 0.3110 -0.8834
vn -0.2296 0.5315 -0.8153
vn -0.1885 -0.2214 -0.9568
vn -0.3090 0.1008 -0.9457
vn -0.9563 0.2894 0.0420
vn -0.9349 0.2981 0.1926
vn -0.9962 0.0806 -0.0321
vn -0.8970 0.3352 0.2881
vn 0.5827 0.7434 0.3284
vn -0.7642 0.6416 -0.0658
vn -0.8068 -0.5755 -0.1334
vn -0.5131 0.8321 0.2106
vn 0.2432 0.8545 0.4589
vn -0.9126 0.3631 -0.1876
vn -0.9424 -0.2223 -0.2499
vn -0.2544 0.3343 -0.9075
vn 0.0596 -0.2538 0.9654
vn -0.0313 -0.2850 0.9580
vn 0.0293 -0.2721 0.9618
vn -0.0071 -0.3063 0.9519
vn -0.0000 -0.2561 0.9667
vn -0.0387 -0.3178 0.9474
vn 0.0453 -0.3156 0.9478
vn -0.0446 -0.2486 0.9676
vn 0.0018 -0.2684 0.9633
vn -0.0077 -0.2294 0.9733
vn -0.1643 -0.6300 0.7591
vn 0.0302 -0.2393 0.9705
vn -0.2960 -0.5589 0.7746
vn 0.4094 0.1365 0.9021
vn 0.4123 -0.0981 0.9057
vn 0.1394 -0.5605 0.8163
vn -0.7288 0.1917 0.6573
vn 0.2062 -0.5095 0.8354
vn 0.5078 0.0939 0.8563
vn -0.0323 -0.6232 0.7814
vn -0.3193 0.7577 0.5691
vn -0.5296 -0.3745 0.7611
vn -0.5248 -0.4352 0.7315
vn 0.0292 0.0531 0.9982
vn -0.0200 -0.7466 0.6650
vn 0.0339 0.9209 0.3882
vn -0.7525 0.0005 0.6586
vn 0.8961 -0.4302 0.1091
vn 0.9975 -0.0019 0.0707
vn 0.7307 -0.6810 -0.0483
vn 0.1099 -0.5446 -0.8314
vn 0.0413 -0.2425 -0.9693
vn 0.9363 0.2813 0.2105
vn 0.6878 -0.1931 0.6997
vn 0.3444 -0.7392 0.5788
vn -0.6069 -0.1172 -0.7861
vn -0.4208 0.2061 -0.8834
vn 0.7919 0.1278 0.5971
vn 0.5964 -0.2325 0.7683
vn -0.3952 -0.9053 0.1557
vn -0.6285 0.0365 -0.7769
vn -0.3576 0.3802 -0.8530
vn 0.4470 0.1934 0.8733
vn 0.2431 -0.0976 0.9651
vn -0.9975 0.0019 -0.0707
vn -0.7601 0.2980 -0.5775
vn -0.4475 0.8736 -0.1912
vn -0.7307 0.6810 0.0483
vn -0.6821 0.6555 -0.3240
vn -0.6942 0.4441 -0.5664
vn -0.8961 0.4302 -0.1091
vn -0.8552 0.2864 -0.4320
vn -0.8798 0.1490 -0.4515
vn -0.7220 0.2982 0.6243
vn -0.7805 0.0325 0.6244
vn -0.1738 -0.1790 0.9684
vn -0.0413 0.2425 0.9693
vn 0.2534 0.0429 0.9664
vn 0.4174 0.0394 0.9079
vn -0.1099 0.5446 0.8314
vn 0.2535 0.4500 0.8563
vn 0.2197 0.7270 0.6505
vn -0.3444 0.7392 -0.5787
vn -0.4625 0.4728 -0.7500
vn -0.5848 0.3790 -0.7172
vn -0.6878 0.1931 -0.6997
vn -0.6976 0.0983 -0.7097
vn -0.7767 0.0569 -0.6273
vn -0.9363 -0.2813 -0.2105
vn -0.6272 -0.6806 0.3787
vn -0.0725 -0.4710 0.8792
vn 0.4208 -0.2061 0.8834
vn 0.5257 -0.1704 0.8334
vn 0.5343 -0.0753 0.8419
vn 0.6069 0.1172 0.7861
vn 0.6835 0.2211 0.6956
vn 0.5927 0.5334 0.6035
vn -0.5964 0.2325 -0.7683
vn -0.5257 0.1704 -0.8334
vn -0.5343 0.0753 -0.8419
vn -0.7919 -0.1278 -0.5971
vn -0.6835 -0.2211 -0.6956
vn -0.5927 -0.5334 -0.6035
vn 0.3576 -0.3802 0.8530
vn 0.4625 -0.4728 0.7500
vn 0.5848 -0.3790 0.7172
vn 0.6285 -0.0365 0.7769
vn 0.6976 -0.0983 0.7097
vn 0.7767 -0.0569 0.6273
vn 0.3952 0.9053 -0.1557
vn 0.6272 0.6806 -0.3787
vn 0.0725 0.4710 -0.8792
vn -0.2432 0.0976 -0.9651
vn -0.2534 -0.0429 -0.9664
vn -0.4174 -0.0394 -0.9079
vn -0.4471 -0.1934 -0.8733
vn -0.2535 -0.4500 -0.8563
vn -0.2197 -0.7270 -0.6505
vn 0.4475 -0.8736 0.1912
vn 0.6821 -0.6555 0.3240
vn 0.6942 -0.4441 0.5664
vn 0.1738 0.1790 -0.9684
vn 0.7805 -0.0325 -0.6244
vn 0.7220 -0.2983 -0.6243
vn 0.7601 -0.2980 0.5775
vn 0.8552 -0.2864 0.4320
vn 0.8798 -0.1490 0.4515
vn -0.8961 -0.4302 0.1091
vn -0.9975 -0.0019 0.0707
vn -0.7307 -0.6810 -0.0483
vn -0.1099 -0.5446 -0.8314
vn -0.0413 -0.2425 -0.9693
vn -0.9363 0.2813 0.2105
vn -0.6878 -0.1931 0.6997
vn -0.3444 -0.7392 0.5787
vn 0.6069 -0.1172 -0.7861
vn 0.4208 0.2061 -0.8834
vn -0.7919 0.1278 0.5971
vn -0.5964 -0.2325 0.7683
vn 0.3952 -0.9053 0.1557
vn 0.6285 0.0365 -0.7769
vn 0.3576 0.3802 -0.8530
vn -0.4471 0.1934 0.8733
vn -0.2432 -0.0976 0.9651
vn 0.9975 0.0019 -0.0707
vn 0.7601 0.2980 -0.5775
vn 0.4475 0.8736 -0.1912
vn 0.7307 0.6810 0.0483
vn 0.6822 0.6555 -0.3240
vn 0.6942 0.4441 -0.5664
vn 0.8961 0.4302 -0.1091
vn 0.8552 0.2864 -0.4320
vn 0.8798 0.1490 -0.4515
vn 0.7220 0.2983 0.6243
vn 0.7805 0.0325 0.6244
vn 0.1738 -0.1791 0.9684
vn 0.0413 0.2425 0.9693
vn -0.2534 0.0429 0.9664
vn -0.4174 0.0394 0.9079
vn 0.1099 0.5446 0.8314
vn -0.2535 0.4500 0.8563
vn -0.2197 0.7271 0.6505
vn 0.3444 0.7392 -0.5788
vn 0.4625 0.4728 -0.7500
vn 0.5848 0.3789 -0.7172
vn 0.6878 0.1931 -0.6997
vn 0.6976 0.0983 -0.7097
vn 0.7767 0.0569 -0.6273
vn 0.9363 -0.2813 -0.2105
vn 0.6272 -0.6806 0.3787
vn 0.0725 -0.4710 0.8792
vn -0.4208 -0.2061 0.8834
vn -0.5257 -0.1704 0.8334
vn -0.5343 -0.0753 0.8419
vn -0.6069 0.1172 0.7861
vn -0.6835 0.2211 0.6956
vn -0.5927 0.5334 0.6035
vn 0.5964 0.2325 -0.7683
vn 0.5257 0.1704 -0.8334
vn 0.5343 0.0753 -0.8419
vn 0.7919 -0.1278 -0.5971
vn 0.6835 -0.2211 -0.6956
vn 0.5927 -0.5334 -0.6035
vn -0.3576 -0.3802 0.8530
vn -0.4625 -0.4728 0.7500
vn -0.5848 -0.3789 0.7172
vn -0.6285 -0.0365 0.7769
vn -0.6976 -0.0983 0.7097
vn -0.7767 -0.0569 0.6273
vn -0.3952 0.9053 -0.1557
vn -0.6272 0.6806 -0.3787
vn -0.0725 0.4710 -0.8792
vn 0.2432 0.0976 -0.9651
vn 0.2534 -0.0429 -0.9664
vn 0.4174 -0.0394 -0.9079
vn 0.4470 -0.1934 -0.8733
vn 0.2535 -0.4500 -0.8563
vn 0.2197 -0.7270 -0.6505
vn -0.4475 -0.8736 0.1912
vn -0.6821 -0.6555 0.3240
vn -0.6942 -0.4441 0.5664
vn -0.1738 0.1790 -0.9684
vn -0.7805 -0.0325 -0.6244
vn -0.7220 -0.2982 -0.6243
vn -0.7601 -0.2980 0.5775
vn -0.8552 -0.2864 0.4320
vn -0.8798 -0.1490 0.4515
vt 0.833374 0.494548
vt 0.893919 0.512741
vt 0.908415 0.468160
vt 0.848637 0.467455
vt 0.567859 0.867914
vt 0.639317 0.828812
vt 0.620915 0.894044
vt 0.556155 0.927906
vt 0.812683 0.509803
vt 0.774909 0.642712
vt 0.751394 0.643294
vt 0.751725 0.493743
vt 0.828812 0.793372
vt 0.751727 0.811870
vt 0.672932 0.807420
vt 0.672336 0.642732
vt 0.672998 0.503429
vt 0.598676 0.643182
vt 0.594201 0.530171
vt 0.560191 0.672195
vt 0.619753 0.672998
vt 0.599703 0.594201
vt 0.569702 0.558226
vt 0.580250 0.833374
vt 0.635423 0.812683
vt 0.637090 0.751725
vt 0.569078 0.759035
vt 0.500000 0.859251
vt 0.500000 0.750726
vt 0.569078 0.758996
vt 0.500000 0.657595
vt 0.560191 0.671923
vt 0.604420 0.951058
vt 0.545714 0.976119
vt 0.604420 0.548422
vt 0.626365 0.643481
vt 0.688416 0.643970
vt 0.666902 0.547256
vt 0.500000 0.917421
vt 0.563590 0.893919
vt 0.639317 0.793372
vt 0.659328 0.642712
vt 0.676970 0.643370
vt 0.671449 0.761101
vt 0.555994 0.632181
vt 0.545714 0.747180
vt 0.604420 0.735145
vt 0.572975 0.538591
vt 0.666902 0.715601
vt 0.500000 0.969030
vt 0.572975 0.947229
vt 0.501290 0.830086
vt 0.457158 0.830118
vt 0.460328 0.806630
vt 0.500288 0.803578
vt 0.499838 0.512886
vt 0.460007 0.507514
vt 0.481582 0.413128
vt 0.510774 0.417065
vt 0.500000 0.559830
vt 0.556447 0.575135
vt 0.579931 0.796381
vt 0.599703 0.530171
vt 0.637090 0.643182
vt 0.659115 0.643738
vt 0.643940 0.535244
vt 0.564556 0.492909
vt 0.500000 0.477524
vt 0.500000 0.432743
vt 0.566016 0.447361
vt 0.569702 0.518348
vt 0.616981 0.429733
vt 0.594994 0.421068
vt 0.612448 0.796381
vt 0.637526 0.771615
vt 0.500000 0.371229
vt 0.561082 0.382998
vt 0.450625 0.491920
vt 0.495971 0.498202
vt 0.507939 0.406303
vt 0.474705 0.401699
vt 0.591615 0.535244
vt 0.575831 0.433451
vt 0.407144 0.499901
vt 0.406490 0.640437
vt 0.358675 0.605643
vt 0.363238 0.556600
vt 0.578790 0.420824
vt 0.621227 0.407144
vt 0.601979 0.363238
vt 0.551080 0.357545
vt 0.500000 0.657756
vt 0.500000 0.571782
vt 0.667216 0.508652
vt 0.621227 0.499901
vt 0.632756 0.407548
vt 0.666461 0.413961
vt 0.556577 0.771615
vt 0.637090 0.751727
vt 0.260484 0.580516
vt 0.278839 0.520364
vt 0.582070 0.278839
vt 0.540875 0.268345
vt 0.619753 0.672932
vt 0.500000 0.307117
vt 0.551080 0.314473
vt 0.500000 0.983839
vt 0.393435 0.816867
vt 0.325561 0.763148
vt 0.671449 0.517077
vt 0.635423 0.509803
vt 0.642381 0.470278
vt 0.671266 0.470798
vt 0.988807 0.740196
vt 1.002924 0.661469
vt 1.015365 0.669173
vt 1.001496 0.721513
vt 0.500000 0.531683
vt 0.500000 0.631036
vt 0.249130 0.712570
vt 0.191059 0.679456
vt 0.198981 0.567653
vt 0.945839 0.547256
vt 0.886123 0.529161
vt 0.904522 0.470747
vt 0.963512 0.471464
vt 0.500000 0.238897
vt 0.540875 0.239236
vt 0.564556 0.495971
vt 0.612448 0.579931
vt 0.628268 0.501290
vt 0.631115 0.457158
vt 0.168698 0.648799
vt 0.177283 0.553376
vt 0.539817 0.181283
vt 0.500000 0.184290
vt 0.500000 0.144817
vt 0.539817 0.140934
vt 0.580006 0.205473
vt 0.539817 0.196322
vt 0.205473 0.476864
vt 0.621491 0.393435
vt 0.538703 0.608225
vt 0.500000 0.615960
vt 0.500000 0.567098
vt 0.526605 0.560962
vt 0.566016 0.450625
vt 0.149293 0.452102
vt 0.133162 0.541160
vt 0.103583 0.505809
vt 0.123733 0.441345
vt 0.539531 0.141037
vt 0.579447 0.149293
vt 0.562090 0.123733
vt 0.530633 0.116366
vt 0.500000 0.385014
vt 0.500000 0.353218
vt 0.586057 0.174337
vt 0.542919 0.165879
vt 0.174337 0.464471
vt 0.086614 0.427976
vt 0.065909 0.448336
vt 0.053210 0.428901
vt 0.071388 0.423606
vt 0.515797 0.085531
vt 0.531484 0.086614
vt 0.523242 0.071388
vt 0.510720 0.071544
vt 0.500000 0.266808
vt 0.601979 0.325561
vt 0.582070 0.249130
vt 0.108290 0.599988
vt 0.073849 0.556649
vt 0.580006 0.679456
vt 0.539817 0.690304
vt 0.539817 0.657159
vt 0.579599 0.648799
vt 0.500000 0.199929
vt 0.513331 0.045311
vt 0.500000 0.046647
vt 0.500000 0.069896
vt 0.051602 0.475706
vt 0.038205 0.462176
vt 0.038356 0.442272
vt 0.580006 0.191059
vt 0.577833 0.599988
vt 0.554232 0.556649
vt 0.500000 0.147087
vt 0.500000 0.124516
vt 0.530339 0.475706
vt 0.515210 0.477146
vt 0.513246 0.460736
vt 0.522445 0.462176
vt 0.500000 0.170521
vt 0.515546 0.457928
vt 0.507613 0.457080
vt 0.506877 0.445401
vt 0.514439 0.446199
vt 0.500000 0.089031
vt 0.528336 0.053210
vt 0.620841 0.601238
vt 0.618568 0.607555
vt 0.613078 0.604170
vt 0.614718 0.599612
vt 0.500000 0.479371
vt 0.500000 0.460095
vt 0.513331 0.424258
vt 0.512541 0.440917
vt 0.500000 0.440864
vt 0.500000 0.422187
vt 0.500000 0.664242
vt 0.576432 0.505809
vt 0.539481 0.507406
vt 0.547321 0.467354
vt 0.500000 0.513551
vt 0.519044 0.508271
vt 0.579599 0.168698
vt 0.538703 0.096221
vt 0.577833 0.108290
vt 0.520322 0.097153
vt 0.500000 0.106427
vt 0.541975 0.104341
vt 0.078394 0.467354
vt 0.104341 0.437145
vt 0.073220 0.507406
vt 0.590300 0.643738
vt 0.499630 0.641384
vt 0.459655 0.640419
vt 0.417546 0.774144
vt 0.414448 0.641253
vt 0.423095 0.508652
vt 0.621491 0.816867
vt 0.648114 0.640437
vt 0.669097 0.641253
vt 0.644267 0.774144
vt 0.578790 0.496630
vt 0.601625 0.405151
vt 0.649402 0.433451
vt 0.651726 0.367843
vt 0.620780 0.366797
vt 0.454529 0.413961
vt 0.467814 0.368189
vt 0.488225 0.366596
vt 0.561691 0.421068
vt 0.537425 0.365401
vt 0.507200 0.363509
vt 0.481273 0.364028
vt 0.510983 0.366114
vt 0.635806 0.367147
vt 0.669092 0.368189
vt 0.420824 0.496630
vt 0.452865 0.405151
vt 0.558226 0.518348
vt 0.484328 0.324872
vt 0.502799 0.322553
vt 0.547406 0.321655
vt 0.519920 0.320969
vt 0.496410 0.322232
vt 0.523434 0.321439
vt 0.639292 0.324944
vt 0.675657 0.324872
vt 0.550036 0.367843
vt 0.558926 0.322330
vt 0.465216 0.366023
vt 0.604868 0.366023
vt 0.599660 0.365401
vt 0.621651 0.293283
vt 0.658462 0.293469
vt 0.659368 0.261742
vt 0.621257 0.261665
vt 0.501495 0.293600
vt 0.482345 0.307625
vt 0.480362 0.262732
vt 0.500191 0.261781
vt 0.519246 0.292376
vt 0.547742 0.292993
vt 0.548078 0.261464
vt 0.518571 0.260916
vt 0.494871 0.293528
vt 0.493332 0.261956
vt 0.522889 0.292587
vt 0.522344 0.260869
vt 0.451756 0.288897
vt 0.449773 0.262732
vt 0.656778 0.322330
vt 0.622394 0.322035
vt 0.481902 0.324350
vt 0.605664 0.324350
vt 0.599057 0.321655
vt 0.595403 0.548078
vt 0.621257 0.561263
vt 0.645824 0.523009
vt 0.590945 0.518571
vt 0.639859 0.470735
vt 0.648324 0.498544
vt 0.685407 0.500191
vt 0.686261 0.480362
vt 0.592251 0.493332
vt 0.659368 0.560446
vt 0.683143 0.522344
vt 0.596433 0.477757
vt 0.479829 0.307317
vt 0.477757 0.262636
vt 0.447168 0.262636
vt 0.449241 0.288588
vt 0.596679 0.292993
vt 0.595403 0.261464
vt 0.559686 0.293469
vt 0.560446 0.261742
vt 0.603589 0.307317
vt 0.640355 0.307779
vt 0.679739 0.307625
vt 0.677932 0.288897
vt 0.639680 0.289050
vt 0.639859 0.262967
vt 0.679465 0.262732
vt 0.604354 0.288588
vt 0.603287 0.262636
vt 0.679739 0.482345
vt 0.640355 0.473048
vt 0.639680 0.442459
vt 0.677932 0.451756
vt 0.679465 0.449773
vt 0.639859 0.440146
vt 0.603589 0.479829
vt 0.604354 0.449241
vt 0.603287 0.447168
vt 0.841501 0.761101
vt 0.796910 0.643370
vt 0.906455 0.644155
vt 0.894416 0.742499
vt 0.957194 0.643970
vt 0.829265 0.517077
vt 0.940741 0.715601
vt 0.671449 0.841501
vt 0.669190 0.894416
vt 0.849398 0.470798
vt 0.666902 0.940741
vt 0.909364 0.402088
vt 0.855378 0.389954
vt 0.592313 0.470184
vt 0.617524 0.471308
vt 0.621192 0.417417
vt 0.598226 0.414426
vt 0.598146 0.467455
vt 0.603540 0.389954
vt 0.643835 0.389418
vt 0.855424 0.393127
vt 0.905341 0.403681
vt 0.667620 0.471464
vt 0.947229 0.538591
vt 0.963044 0.470184
vt 0.580250 0.494548
vt 0.595712 0.312254
vt 0.621272 0.312916
vt 0.622837 0.264476
vt 0.597277 0.263453
vt 0.852894 0.313492
vt 0.849695 0.260671
vt 0.818572 0.260902
vt 0.821566 0.286829
vt 0.893654 0.314609
vt 0.853541 0.316407
vt 0.850246 0.263617
vt 0.890422 0.263754
vt 0.896415 0.312211
vt 0.936226 0.312254
vt 0.933075 0.263453
vt 0.893263 0.261490
vt 0.670148 0.393127
vt 0.666826 0.415674
vt 0.958612 0.415674
vt 0.958434 0.414426
vt 0.649700 0.837975
vt 0.635627 0.887710
vt 0.686058 0.890422
vt 0.687133 0.850246
vt 0.592375 0.849695
vt 0.589648 0.893263
vt 0.597277 0.933075
vt 0.622837 0.940554
vt 0.673628 0.933416
vt 0.822213 0.289744
vt 0.819123 0.263848
vt 0.672063 0.313364
vt 0.673628 0.264581
vt 0.936602 0.313364
vt 0.933416 0.264581
vt 0.941647 0.364922
vt 0.899640 0.363406
vt 0.623001 0.364960
vt 0.665562 0.364922
vt 0.668659 0.362549
vt 0.644119 0.361871
vt 0.647700 0.316485
vt 0.685132 0.316407
vt 0.859879 0.359936
vt 0.902447 0.361457
vt 0.941330 0.363919
vt 0.860378 0.362549
vt 0.606538 0.359936
vt 0.590374 0.313492
vt 0.601582 0.363919
vt 0.646474 0.289822
vt 0.601626 0.286829
vt 0.603191 0.260902
vt 0.648039 0.263334
vt 0.675760 0.289744
vt 0.677325 0.263848
vt 0.647700 0.841274
vt 0.590374 0.852894
vt 0.601626 0.821566
vt 0.646474 0.809945
vt 0.648039 0.806852
vt 0.603191 0.818572
vt 0.685132 0.853541
vt 0.675760 0.822213
vt 0.677325 0.819123
vt 0.500000 0.668378
vt 0.500000 0.724779
vt 0.517225 0.721513
vt 0.520785 0.669173
vt 0.528698 1.002924
vt 0.500000 1.014901
vt 0.500000 1.025182
vt 0.520785 1.015365
vt 0.500000 0.744181
vt 0.519989 0.740196
vt 0.519989 0.988807
vt 0.500000 0.995348
vt 0.500000 0.660499
vt 0.528698 0.661469
vt 0.154177 0.616909
vt 0.166410 0.570048
vt 0.135838 0.608740
vt 0.149154 0.567675
vt 0.147623 0.572395
vt 0.137518 0.603560
vt 0.583783 0.154177
vt 0.583848 0.135838
vt 0.600568 0.131366
vt 0.597073 0.144428
vt 0.144166 0.612314
vt 0.141084 0.620214
vt 0.132632 0.614576
vt 0.134671 0.609983
vt 0.153028 0.593819
vt 0.141399 0.592146
vt 0.619182 0.132632
vt 0.614588 0.141084
vt 0.606252 0.140479
vt 0.610351 0.130579
vt 0.138199 0.601250
vt 0.148213 0.603179
vt 0.602487 0.570048
vt 0.583783 0.616909
vt 0.597073 0.624463
vt 0.606252 0.625520
vt 0.614588 0.620214
vt 0.620822 0.612314
vt 0.623703 0.603179
vt 0.620639 0.593819
vt 0.604695 0.577238
vt 0.601269 0.572395
vt 0.603531 0.567675
vt 0.609313 0.614171
vt 0.615687 0.610750
vt 0.619182 0.614576
vt 0.610351 0.619358
vt 0.602434 0.613212
vt 0.600568 0.617961
vt 0.626402 0.601250
vt 0.623276 0.609983
vt 0.618527 0.594500
vt 0.623272 0.592146
vt 0.590602 0.606787
vt 0.583848 0.608740
vt 0.592903 0.603615
vt 0.603070 0.582298
vt 0.613048 0.594751
vt 0.610999 0.606475
vt 0.606401 0.608943
vt 0.601438 0.608251
vt 0.586331 0.603560
vt 0.600598 0.578805
vt 0.589822 0.601288
vt 0.148133 0.578805
vt 0.140843 0.601288
vt 0.522445 0.038205
vt 0.513246 0.032036
vt 0.507613 0.025182
vt 0.515546 0.030102
vt 0.521458 0.442272
vt 0.528336 0.428901
vt 0.500000 0.456702
vt 0.500000 0.445370
vt 0.500000 0.031689
vt 0.512541 0.032373
vt 0.506877 0.025742
vt 0.500000 0.025886
vt 0.500000 0.031337
vt 0.500000 0.025479
vt 0.030102 0.457928
vt 0.030515 0.446199
vt 0.432141 0.867914
vt 0.443845 0.927906
vt 0.379085 0.894044
vt 0.360683 0.828812
vt 0.439809 0.672195
vt 0.430298 0.558226
vt 0.400297 0.594201
vt 0.380247 0.672998
vt 0.419750 0.833374
vt 0.430922 0.759035
vt 0.362910 0.751725
vt 0.364577 0.812683
vt 0.430922 0.758996
vt 0.439809 0.671923
vt 0.454286 0.976119
vt 0.395580 0.951058
vt 0.395580 0.548422
vt 0.333098 0.547256
vt 0.311584 0.643970
vt 0.373635 0.643481
vt 0.436410 0.893919
vt 0.360683 0.793372
vt 0.328551 0.761101
vt 0.323030 0.643370
vt 0.340672 0.642712
vt 0.444006 0.632181
vt 0.395580 0.735145
vt 0.454286 0.747180
vt 0.427025 0.538591
vt 0.333098 0.715601
vt 0.427025 0.947229
vt 0.443553 0.575135
vt 0.400297 0.530171
vt 0.356060 0.535244
vt 0.340885 0.643738
vt 0.362910 0.643182
vt 0.435444 0.492909
vt 0.433984 0.447361
vt 0.430298 0.518348
vt 0.405006 0.421068
vt 0.383019 0.429733
vt 0.362474 0.771615
vt 0.387552 0.796381
vt 0.438918 0.382998
vt 0.421210 0.420824
vt 0.448920 0.357545
vt 0.398021 0.363238
vt 0.378773 0.407144
vt 0.332784 0.508652
vt 0.333539 0.413961
vt 0.367244 0.407548
vt 0.378773 0.499901
vt 0.362910 0.751727
vt 0.459125 0.268345
vt 0.417930 0.278839
vt 0.380247 0.672932
vt 0.448920 0.314473
vt 0.328551 0.517077
vt 0.328734 0.470798
vt 0.357619 0.470278
vt 0.364577 0.509803
vt 0.459125 0.239236
vt 0.435444 0.495971
vt 0.387552 0.579931
vt 0.371732 0.501290
vt 0.368885 0.457158
vt 0.460183 0.181283
vt 0.460183 0.140934
vt 0.460183 0.196322
vt 0.419994 0.205473
vt 0.378509 0.393435
vt 0.461297 0.608225
vt 0.473395 0.560962
vt 0.433984 0.450625
vt 0.460469 0.141037
vt 0.469367 0.116366
vt 0.437911 0.123733
vt 0.420553 0.149293
vt 0.457081 0.165879
vt 0.413943 0.174337
vt 0.484203 0.085531
vt 0.489280 0.071544
vt 0.476758 0.071388
vt 0.468516 0.086614
vt 0.398021 0.325561
vt 0.417930 0.249130
vt 0.419994 0.679456
vt 0.420401 0.648799
vt 0.460183 0.657159
vt 0.460183 0.690304
vt 0.486669 0.045311
vt 0.419994 0.191059
vt 0.422167 0.599988
vt 0.445768 0.556649
vt 0.469661 0.475706
vt 0.477555 0.462176
vt 0.486754 0.460736
vt 0.484790 0.477146
vt 0.484454 0.457928
vt 0.485561 0.446199
vt 0.493123 0.445401
vt 0.492387 0.457080
vt 0.471665 0.053210
vt 0.379159 0.601238
vt 0.385282 0.599612
vt 0.386922 0.604170
vt 0.381432 0.607555
vt 0.486669 0.424258
vt 0.487459 0.440917
vt 0.423568 0.505809
vt 0.452679 0.467354
vt 0.460520 0.507406
vt 0.480956 0.508271
vt 0.420401 0.168698
vt 0.422167 0.108290
vt 0.461297 0.096221
vt 0.479678 0.097153
vt 0.458025 0.104341
vt 0.378509 0.816867
vt 0.355733 0.774144
vt 0.330903 0.641253
vt 0.351886 0.640437
vt 0.398375 0.405151
vt 0.421210 0.496630
vt 0.379220 0.366797
vt 0.348274 0.367843
vt 0.350598 0.433451
vt 0.330908 0.368189
vt 0.364194 0.367147
vt 0.324343 0.324872
vt 0.360708 0.324944
vt 0.395132 0.366023
vt 0.400340 0.365401
vt 0.378349 0.293283
vt 0.378743 0.261665
vt 0.340632 0.261742
vt 0.341538 0.293469
vt 0.377606 0.322035
vt 0.343222 0.322330
vt 0.394336 0.324350
vt 0.400943 0.321655
vt 0.404597 0.548078
vt 0.409055 0.518571
vt 0.354176 0.523009
vt 0.378743 0.561263
vt 0.360141 0.470735
vt 0.313739 0.480362
vt 0.314593 0.500191
vt 0.351676 0.498544
vt 0.407749 0.493332
vt 0.316857 0.522344
vt 0.340632 0.560446
vt 0.403567 0.477757
vt 0.403321 0.292993
vt 0.404597 0.261464
vt 0.359645 0.307779
vt 0.396411 0.307317
vt 0.320262 0.307625
vt 0.322068 0.288897
vt 0.320535 0.262732
vt 0.360141 0.262967
vt 0.360320 0.289050
vt 0.396713 0.262636
vt 0.395646 0.288588
vt 0.320262 0.482345
vt 0.322068 0.451756
vt 0.360320 0.442459
vt 0.359645 0.473048
vt 0.360141 0.440146
vt 0.320535 0.449773
vt 0.395646 0.449241
vt 0.396411 0.479829
vt 0.396713 0.447168
vt 0.330810 0.894416
vt 0.328551 0.841501
vt 0.333098 0.940741
vt 0.407688 0.470184
vt 0.401774 0.414426
vt 0.378808 0.417417
vt 0.382476 0.471308
vt 0.356165 0.389418
vt 0.396460 0.389954
vt 0.401854 0.467455
vt 0.332380 0.471464
vt 0.419750 0.494548
vt 0.404289 0.312254
vt 0.402723 0.263453
vt 0.377163 0.264476
vt 0.378728 0.312916
vt 0.329852 0.393127
vt 0.333174 0.415674
vt 0.350300 0.837975
vt 0.312867 0.850246
vt 0.313942 0.890422
vt 0.364373 0.887710
vt 0.410353 0.893263
vt 0.407625 0.849695
vt 0.377163 0.940554
vt 0.402723 0.933075
vt 0.326372 0.933416
vt 0.326372 0.264581
vt 0.327937 0.313364
vt 0.376999 0.364960
vt 0.334438 0.364922
vt 0.331341 0.362549
vt 0.314868 0.316407
vt 0.352300 0.316485
vt 0.355881 0.361871
vt 0.409626 0.313492
vt 0.393462 0.359936
vt 0.398418 0.363919
vt 0.353526 0.289822
vt 0.351961 0.263334
vt 0.396809 0.260902
vt 0.398374 0.286829
vt 0.324240 0.289744
vt 0.322675 0.263848
vt 0.352300 0.841274
vt 0.353526 0.809945
vt 0.398374 0.821566
vt 0.409626 0.852894
vt 0.396809 0.818572
vt 0.351961 0.806852
vt 0.314868 0.853541
vt 0.324240 0.822213
vt 0.322675 0.819123
vt 0.479215 0.669173
vt 0.482775 0.721513
vt 0.471302 1.002924
vt 0.479215 1.015365
vt 0.480011 0.740196
vt 0.480011 0.988807
vt 0.471302 0.661469
vt 0.416217 0.154177
vt 0.402927 0.144428
vt 0.399432 0.131366
vt 0.416152 0.135838
vt 0.380819 0.132632
vt 0.389649 0.130579
vt 0.393748 0.140479
vt 0.385412 0.141084
vt 0.397513 0.570048
vt 0.379361 0.593819
vt 0.376297 0.603179
vt 0.379178 0.612314
vt 0.385412 0.620214
vt 0.393748 0.625520
vt 0.402927 0.624463
vt 0.416217 0.616909
vt 0.395305 0.577238
vt 0.396469 0.567675
vt 0.398731 0.572395
vt 0.390687 0.614171
vt 0.389649 0.619358
vt 0.380819 0.614576
vt 0.384313 0.610750
vt 0.397566 0.613212
vt 0.399432 0.617961
vt 0.376724 0.609983
vt 0.373598 0.601250
vt 0.376728 0.592146
vt 0.381473 0.594500
vt 0.409398 0.606787
vt 0.416152 0.608740
vt 0.407098 0.603615
vt 0.398562 0.608251
vt 0.393599 0.608943
vt 0.389001 0.606475
vt 0.386952 0.594751
vt 0.396930 0.582298
vt 0.413669 0.603560
vt 0.399402 0.578805
vt 0.410178 0.601288
vt 0.477555 0.038205
vt 0.484454 0.030102
vt 0.492387 0.025182
vt 0.486754 0.032036
vt 0.478542 0.442272
vt 0.471665 0.428901
vt 0.493123 0.025742
vt 0.487459 0.032373
vt 0.181819 0.000000
vt 0.227273 0.078731
vt 0.136365 0.078731
vt 0.272728 0.157461
vt 0.318182 0.078731
vt 0.363637 0.157461
vt 0.909091 0.000000
vt 0.954545 0.078731
vt 0.863636 0.078731
vt 0.727273 0.000000
vt 0.772727 0.078731
vt 0.681818 0.078731
vt 0.545455 0.000000
vt 0.590909 0.078731
vt 0.500000 0.078731
vt 0.318182 0.236191
vt 0.090910 0.157461
vt 0.181819 0.157461
vt 0.136365 0.236191
vt 0.818182 0.157461
vt 0.909091 0.157461
vt 0.863636 0.236191
vt 0.636364 0.157461
vt 0.727273 0.157461
vt 0.681818 0.236191
vt 0.454546 0.157461
vt 0.545455 0.157461
vt 0.500000 0.236191
vt 0.227273 0.236191
vt 0.045455 0.236191
vt 0.772727 0.236191
vt 0.590909 0.236191
vt 0.409092 0.236191
vt 0.181819 0.314921
vt 0.272728 0.314921
vt 0.227273 0.393651
vt 0.000000 0.314921
vt 0.090910 0.314921
vt 0.045455 0.393651
vt 0.727273 0.314921
vt 0.818182 0.314921
vt 0.772727 0.393651
vt 0.545455 0.314921
vt 0.636364 0.314921
vt 0.590909 0.393651
vt 0.363637 0.314921
vt 0.454546 0.314921
vt 0.409092 0.393651
vt 0.500000 0.393651
vt 0.454546 0.472382
vt 0.681818 0.393651
vt 0.636364 0.472382
vt 0.863636 0.393651
vt 0.818182 0.472382
vt 0.909091 0.314921
vt 0.136365 0.393651
vt 0.090910 0.472382
vt 0.318182 0.393651
vt 0.272728 0.472382
vt 0.954545 0.236191
vt 1.000000 0.157461
vt 0.409092 0.078731
vt 0.363637 0.000000
s 1
f 116/1/1 98/2/1 209/3/1 208/4/1
f 115/5/2 4/6/2 17/7/2 97/8/2
f 3/9/3 7/10/3 13/11/3 8/12/3
f 7/10/4 4/13/4 9/14/4 13/11/4
f 13/11/5 9/14/5 2/15/5 10/16/5
f 8/12/6 13/11/6 10/16/6 1/17/6
f 1/17/7 10/16/7 32/18/7 29/19/7
f 114/20/8 1/21/8 29/22/8 83/23/8
f 116/24/9 3/25/9 8/26/9 109/27/9
f 109/27/10 8/26/10 1/21/10 114/20/10
f 115/5/11 6/28/11 15/29/11 99/30/11
f 99/30/12 15/29/12 12/31/12 112/32/12
f 97/8/13 17/7/13 21/33/13 90/34/13
f 20/35/14 25/36/14 203/37/14 204/38/14
f 116/24/15 5/28/15 18/39/15 98/40/15
f 4/41/16 7/42/16 197/43/16 196/44/16
f 89/45/17 90/46/17 21/47/17 25/36/17
f 91/48/18 89/45/18 25/36/18 20/35/18
f 25/36/19 21/47/19 202/49/19 203/37/19
f 98/40/20 18/39/20 23/50/20 91/51/20
f 38/52/21 45/53/21 134/54/21 131/55/21
f 133/56/22 136/57/22 144/58/22 146/59/22
f 112/32/23 12/31/23 34/60/23 82/61/23
f 10/16/24 2/15/24 30/62/24 32/18/24
f 29/63/25 32/64/25 129/65/25 130/66/25
f 75/67/26 41/68/26 48/69/26 73/70/26
f 82/61/27 34/60/27 41/68/27 75/67/27
f 83/71/28 29/63/28 141/72/28 140/73/28
f 32/64/29 30/74/29 128/75/29 129/65/29
f 73/70/30 48/69/30 56/76/30 66/77/30
f 74/78/31 81/79/31 145/80/31 148/81/31
f 130/82/32 133/56/32 146/59/32 147/83/32
f 6/28/33 115/5/33 97/8/33 19/39/33
f 54/84/34 53/85/34 60/86/34 61/87/34
f 67/88/35 54/89/35 61/90/35 65/91/35
f 11/92/36 114/20/36 83/23/36 33/93/36
f 5/28/37 116/24/37 109/27/37 14/29/37
f 14/29/38 109/27/38 114/20/38 11/92/38
f 139/94/39 54/95/39 143/96/39 142/97/39
f 30/62/40 38/52/40 131/55/40 128/98/40
f 4/6/41 115/5/41 99/30/41 9/99/41
f 61/87/42 60/86/42 69/100/42 70/101/42
f 65/91/43 61/90/43 70/102/43 58/103/43
f 9/99/44 99/30/44 112/32/44 2/104/44
f 66/77/45 56/76/45 63/105/45 64/106/45
f 19/39/46 97/8/46 90/34/46 24/107/46
f 53/85/47 52/108/47 59/109/47 60/86/47
f 198/110/48 3/111/48 207/112/48 213/113/48
f 256/114/49 255/115/49 253/116/49 254/117/49
f 23/118/50 26/119/50 89/45/50 91/48/50
f 69/100/51 68/120/51 76/121/51 77/122/51
f 204/123/52 201/124/52 211/125/52 212/126/52
f 64/106/53 63/105/53 72/127/53 57/128/53
f 33/93/54 83/23/54 81/129/54 40/68/54
f 60/86/55 59/109/55 68/120/55 69/100/55
f 2/104/56 112/32/56 82/61/56 30/130/56
f 38/131/57 75/67/57 73/70/57 45/132/57
f 77/122/58 76/121/58 259/133/58 260/134/58
f 30/130/59 82/61/59 75/67/59 38/131/59
f 50/135/60 80/136/60 88/137/60 44/138/60
f 58/103/61 70/102/61 78/139/61 51/140/61
f 70/101/62 69/100/62 77/122/62 78/141/62
f 45/132/63 73/70/63 66/77/63 52/142/63
f 57/128/64 72/127/64 80/136/64 50/135/64
f 28/143/65 110/144/65 96/145/65 42/146/65
f 40/68/66 81/129/66 74/147/66 47/69/66
f 108/148/67 262/149/67 93/150/67 94/151/67
f 31/152/68 108/153/68 94/154/68 43/155/68
f 55/156/69 67/88/69 65/91/69 62/157/69
f 51/140/70 78/139/70 86/158/70 49/159/70
f 78/141/71 77/122/71 260/134/71 86/160/71
f 47/69/72 74/147/72 67/88/72 55/156/72
f 123/161/73 124/162/73 101/163/73 102/164/73
f 121/165/74 123/166/74 102/167/74 37/168/74
f 62/157/75 65/91/75 58/103/75 71/169/75
f 52/142/76 66/77/76 64/106/76 59/170/76
f 59/170/77 64/106/77 57/128/77 68/171/77
f 262/149/78 261/172/78 92/173/78 93/150/78
f 76/174/79 50/175/79 44/176/79 259/177/79
f 71/169/80 58/103/80 51/140/80 79/178/80
f 37/168/81 35/179/81 105/180/81 103/181/81
f 124/162/82 127/182/82 297/183/82 298/184/82 101/163/82
f 68/171/83 57/128/83 50/135/83 76/185/83
f 261/186/84 28/143/84 42/146/84 92/187/84
f 107/188/85 31/152/85 43/155/85 95/189/85
f 127/190/86 122/191/86 295/192/86 297/193/86
f 79/178/87 51/140/87 49/159/87 87/194/87
f 100/195/88 36/196/88 301/197/88 104/198/88
f 126/199/89 121/165/89 37/168/89 103/181/89
f 102/167/90 101/200/90 35/179/90 37/168/90
f 274/201/91 273/202/91 290/203/91 291/204/91
f 122/191/92 125/205/92 300/206/92 295/192/92
f 49/159/93 86/158/93 108/153/93 31/152/93
f 86/160/94 260/134/94 262/149/94 108/148/94
f 35/207/95 296/208/95 299/209/95 105/210/95
f 44/176/96 88/211/96 110/144/96 28/143/96
f 93/212/97 92/187/97 120/213/97 119/214/97
f 87/194/98 49/159/98 31/152/98 107/188/98
f 42/146/99 96/145/99 113/215/99 27/216/99
f 259/217/100 44/138/100 28/218/100 261/219/100
f 92/187/101 42/146/101 27/216/101 120/213/101
f 95/189/102 43/155/102 22/220/102 118/221/102
f 43/155/103 94/154/103 117/222/103 22/220/103
f 94/151/104 93/150/104 119/223/104 117/224/104
f 120/213/105 27/216/105 122/191/105 127/190/105
f 118/221/106 22/220/106 121/165/106 126/199/106
f 119/223/107 120/225/107 127/182/107 124/162/107
f 27/216/108 113/215/108 125/205/108 122/191/108
f 22/220/109 117/222/109 123/166/109 121/165/109
f 117/224/110 119/223/110 124/162/110 123/161/110
f 130/82/111 129/226/111 132/227/111 133/56/111
f 132/227/112 131/55/112 134/54/112 135/228/112
f 129/226/113 128/98/113 131/55/113 132/227/113
f 135/228/114 134/54/114 137/229/114 138/230/114
f 133/56/115 132/227/115 135/228/115 136/57/115
f 136/57/116 135/228/116 138/230/116 139/231/116
f 52/232/117 53/233/117 138/234/117 137/235/117
f 45/53/118 52/108/118 137/229/118 134/54/118
f 54/95/119 67/236/119 149/237/119 143/96/119
f 53/233/120 54/95/120 139/94/120 138/234/120
f 141/72/121 147/238/121 157/239/121 39/240/121
f 144/58/122 142/241/122 150/242/122 153/243/122
f 145/80/123 140/244/123 46/245/123 154/246/123
f 148/81/124 145/80/124 154/246/124 158/247/124
f 146/59/125 144/58/125 153/243/125 156/248/125
f 142/97/126 143/96/126 151/249/126 150/250/126
f 136/57/127 139/231/127 142/241/127 144/58/127
f 67/251/128 74/78/128 148/81/128 149/252/128
f 29/63/129 130/66/129 147/238/129 141/72/129
f 81/79/130 83/253/130 140/244/130 145/80/130
f 153/243/131 150/242/131 162/254/131 164/255/131
f 154/246/132 46/245/132 160/256/132 165/257/132
f 158/247/133 154/246/133 165/257/133 168/258/133
f 156/248/134 153/243/134 164/255/134 166/259/134
f 150/250/135 151/249/135 163/260/135 162/261/135
f 157/262/136 156/248/136 166/259/136 167/263/136
f 149/252/137 148/81/137 158/247/137 159/264/137
f 143/96/138 149/237/138 159/265/138 151/249/138
f 140/73/139 141/72/139 39/240/139 46/266/139
f 147/83/140 146/59/140 156/248/140 157/262/140
f 188/267/141 187/268/141 177/269/141 152/270/141
f 184/271/142 185/272/142 170/273/142 173/274/142
f 182/275/143 180/276/143 155/277/143 174/278/143
f 181/279/144 182/275/144 174/278/144 178/280/144
f 183/281/145 184/271/145 173/274/145 176/282/145
f 170/273/146 185/272/146 194/283/146 192/284/146
f 39/240/147 157/239/147 167/285/147 161/286/147
f 159/264/148 158/247/148 168/258/148 169/287/148
f 151/249/149 159/265/149 169/288/149 163/260/149
f 46/266/150 39/240/150 161/286/150 160/289/150
f 155/290/151 152/291/151 175/292/151 174/293/151
f 171/294/152 172/295/152 173/296/152 170/297/152
f 174/293/153 175/292/153 172/295/153 178/298/153
f 175/292/154 152/291/154 177/299/154 176/300/154
f 178/298/155 172/295/155 171/294/155 179/301/155
f 172/295/156 175/292/156 176/300/156 173/296/156
f 189/302/157 181/279/157 178/280/157 179/303/157
f 189/302/158 179/303/158 193/304/158 195/305/158
f 180/306/159 188/267/159 152/270/159 155/307/159
f 187/308/160 183/281/160 176/282/160 177/309/160
f 167/263/161 166/259/161 183/281/161 187/308/161
f 160/289/162 161/286/162 188/267/162 180/306/162
f 163/260/163 169/288/163 189/310/163 186/311/163
f 169/287/164 168/258/164 181/279/164 189/302/164
f 162/261/165 163/260/165 186/311/165 185/312/165
f 166/259/166 164/255/166 184/271/166 183/281/166
f 168/258/167 165/257/167 182/275/167 181/279/167
f 165/257/168 160/256/168 180/276/168 182/275/168
f 164/255/169 162/254/169 185/272/169 184/271/169
f 161/286/170 167/285/170 187/268/170 188/267/170
f 194/313/171 190/314/171 191/315/171 192/316/171
f 190/314/172 195/317/172 193/318/172 191/315/172
f 185/319/173 186/320/173 190/321/173 194/322/173
f 171/294/174 170/297/174 192/323/174 191/324/174
f 186/320/175 189/325/175 195/326/175 190/321/175
f 179/301/176 171/294/176 191/324/176 193/327/176
f 196/328/177 197/329/177 200/330/177 199/331/177
f 200/330/178 201/124/178 204/123/178 203/332/178
f 197/329/179 198/333/179 201/124/179 200/330/179
f 199/331/180 200/330/180 203/332/180 202/334/180
f 7/42/181 3/111/181 198/110/181 197/43/181
f 17/7/182 4/6/182 196/335/182 199/336/182
f 201/124/183 198/333/183 213/337/183 211/125/183
f 21/33/184 17/7/184 199/336/184 202/338/184
f 208/4/185 209/3/185 217/339/185 216/340/185
f 210/341/186 206/342/186 214/343/186 218/344/186
f 207/112/187 208/345/187 216/346/187 215/347/187
f 211/125/188 213/337/188 221/348/188 219/349/188
f 20/35/189 204/38/189 212/350/189 206/342/189
f 91/48/190 20/35/190 206/342/190 210/341/190
f 98/2/191 91/351/191 210/352/191 209/3/191
f 3/111/192 116/353/192 208/345/192 207/112/192
f 232/354/193 235/355/193 222/356/193 226/357/193
f 233/358/194 224/359/194 240/360/194 241/361/194
f 16/362/195 230/363/195 229/364/195 227/365/195
f 231/366/196 232/367/196 226/368/196 225/369/196
f 213/113/197 207/112/197 215/347/197 221/370/197
f 206/342/198 212/350/198 220/371/198 214/343/198
f 212/126/199 211/125/199 219/349/199 220/372/199
f 209/3/200 210/352/200 218/373/200 217/339/200
f 223/374/201 205/375/201 227/376/201 229/377/201
f 223/374/202 224/378/202 225/379/202 205/375/202
f 205/375/203 225/379/203 226/380/203 222/381/203
f 205/375/204 222/381/204 228/382/204 227/376/204
f 233/358/205 231/366/205 225/369/205 224/359/205
f 229/364/206 230/363/206 237/383/206 238/384/206
f 235/355/207 236/385/207 228/386/207 222/356/207
f 236/387/208 16/362/208 227/365/208 228/388/208
f 250/389/209 243/390/209 16/362/209 236/387/209
f 249/391/210 250/392/210 236/385/210 235/355/210
f 246/393/211 245/394/211 234/395/211 230/396/211
f 248/397/212 244/398/212 231/366/212 233/358/212
f 244/398/213 247/399/213 232/367/213 231/366/213
f 243/390/214 246/400/214 230/363/214 16/362/214
f 245/394/215 248/401/215 233/402/215 234/395/215
f 247/403/216 249/391/216 235/355/216 232/354/216
f 242/404/217 241/405/217 240/406/217 239/407/217
f 237/408/218 242/404/218 239/407/218 238/409/218
f 234/410/219 233/411/219 241/412/219 242/413/219
f 224/378/220 223/374/220 239/414/220 240/415/220
f 230/416/221 234/410/221 242/413/221 237/417/221
f 223/374/222 229/377/222 238/418/222 239/414/222
f 218/344/223 214/343/223 249/391/223 247/403/223
f 215/347/224 216/346/224 248/401/224 245/394/224
f 219/349/225 221/348/225 246/400/225 243/390/225
f 217/339/226 218/373/226 247/399/226 244/398/226
f 216/340/227 217/339/227 244/398/227 248/397/227
f 221/370/228 215/347/228 245/394/228 246/393/228
f 214/343/229 220/371/229 250/392/229 249/391/229
f 220/372/230 219/349/230 243/390/230 250/389/230
f 252/419/231 251/420/231 254/421/231 253/422/231
f 255/423/232 257/424/232 252/425/232 253/426/232
f 258/427/233 256/428/233 254/421/233 251/420/233
f 24/107/234 90/34/234 256/429/234 258/430/234
f 89/45/235 26/119/235 257/431/235 255/432/235
f 90/46/236 89/45/236 255/432/236 256/428/236
f 84/433/237 85/434/237 260/134/237 259/133/237
f 275/435/238 84/433/238 259/133/238 261/172/238
f 85/434/239 276/436/239 262/149/239 260/134/239
f 276/436/240 284/437/240 283/438/240 275/435/240 261/172/240 262/149/240
f 84/439/241 275/440/241 279/441/241 263/442/241
f 266/443/242 264/444/242 278/445/242 280/446/242
f 276/436/243 85/434/243 267/447/243 282/448/243
f 278/449/244 264/450/244 265/451/244 277/452/244
f 277/452/245 265/451/245 263/442/245 279/441/245
f 266/443/246 280/446/246 281/453/246 268/454/246
f 268/454/247 281/453/247 282/448/247 267/447/247
f 85/455/248 84/456/248 263/457/248 265/458/248 264/459/248 266/460/248 268/461/248 267/462/248
f 106/463/249 284/464/249 276/465/249
f 271/466/250 269/467/250 278/468/250 277/469/250
f 270/470/251 271/466/251 277/469/251 279/471/251
f 273/202/252 274/201/252 281/472/252 280/473/252
f 274/201/253 272/474/253 282/475/253 281/472/253
f 269/467/254 273/202/254 280/473/254 278/468/254
f 111/476/255 270/470/255 279/471/255 275/477/255
f 272/474/256 106/463/256 276/465/256 282/475/256
f 285/478/257 286/479/257 292/480/257 291/204/257 290/203/257 288/481/257 287/482/257 289/483/257
f 283/484/258 111/476/258 275/477/258
f 270/470/259 111/476/259 285/478/259 289/483/259
f 294/485/260 286/479/260 285/478/260 293/486/260
f 111/476/261 283/484/261 293/486/261 285/478/261
f 106/463/262 272/474/262 292/480/262 286/479/262
f 272/474/263 274/201/263 291/204/263 292/480/263
f 269/467/264 271/466/264 287/482/264 288/481/264
f 283/438/265 284/437/265 294/487/265 293/488/265
f 273/202/266 269/467/266 288/481/266 290/203/266
f 284/464/267 106/463/267 286/479/267 294/485/267
f 271/466/268 270/470/268 289/483/268 287/482/268
f 297/489/269 295/490/269 36/491/269 100/492/269
f 296/208/270 298/493/270 104/198/270 301/197/270
f 101/494/271 298/493/271 296/208/271 35/207/271
f 36/196/272 302/495/272 303/496/272 301/197/272
f 299/497/273 296/498/273 301/499/273 303/500/273
f 295/490/274 300/501/274 302/502/274 36/491/274
f 298/184/275 297/183/275 100/503/275 104/504/275
f 385/1/276 474/4/276 475/3/276 372/2/276
f 384/505/277 371/506/277 314/507/277 307/508/277
f 306/9/278 309/12/278 312/11/278 308/10/278
f 308/10/279 312/11/279 310/14/279 307/13/279
f 312/11/280 311/16/280 305/15/280 310/14/280
f 309/12/281 304/17/281 311/16/281 312/11/281
f 304/17/282 321/19/282 324/18/282 311/16/282
f 383/509/283 361/510/283 321/511/283 304/512/283
f 385/513/284 380/514/284 309/515/284 306/516/284
f 380/514/285 383/509/285 304/512/285 309/515/285
f 384/505/286 373/517/286 15/29/286 6/28/286
f 373/517/287 382/518/287 12/31/287 15/29/287
f 371/506/288 366/519/288 316/520/288 314/507/288
f 315/521/289 470/522/289 469/523/289 318/524/289
f 385/513/290 372/525/290 18/39/290 5/28/290
f 307/526/291 462/527/291 463/528/291 308/529/291
f 365/530/292 318/524/292 316/531/292 366/532/292
f 367/533/293 315/521/293 318/524/293 365/530/293
f 318/524/294 469/523/294 468/534/294 316/531/294
f 372/525/295 367/535/295 23/50/295 18/39/295
f 328/52/296 397/55/296 400/54/296 333/53/296
f 399/56/297 412/59/297 410/58/297 402/57/297
f 382/518/298 360/536/298 34/60/298 12/31/298
f 311/16/299 324/18/299 322/62/299 305/15/299
f 321/537/300 396/538/300 395/539/300 324/540/300
f 355/541/301 353/542/301 48/69/301 41/68/301
f 360/536/302 355/541/302 41/68/302 34/60/302
f 361/543/303 406/544/303 407/545/303 321/537/303
f 324/540/304 395/539/304 394/546/304 322/547/304
f 353/542/305 348/548/305 56/76/305 48/69/305
f 354/78/306 414/81/306 411/80/306 359/79/306
f 396/82/307 413/83/307 412/59/307 399/56/307
f 6/28/308 19/39/308 371/506/308 384/505/308
f 340/84/309 345/87/309 344/86/309 339/85/309
f 349/549/310 347/550/310 345/551/310 340/552/310
f 11/92/311 33/93/311 361/510/311 383/509/311
f 5/28/312 14/29/312 380/514/312 385/513/312
f 14/29/313 11/92/313 383/509/313 380/514/313
f 405/553/314 408/554/314 409/555/314 340/556/314
f 322/62/315 394/98/315 397/55/315 328/52/315
f 307/508/316 310/557/316 373/517/316 384/505/316
f 345/87/317 352/101/317 351/100/317 344/86/317
f 347/550/318 342/558/318 352/559/318 345/551/318
f 310/557/319 305/560/319 382/518/319 373/517/319
f 348/548/320 346/561/320 63/105/320 56/76/320
f 19/39/321 24/107/321 366/519/321 371/506/321
f 339/85/322 344/86/322 343/109/322 338/108/322
f 464/562/323 479/563/323 473/564/323 306/565/323
f 520/114/324 518/117/324 517/116/324 519/115/324
f 23/118/325 367/533/325 365/530/325 26/119/325
f 351/100/326 357/122/326 356/121/326 350/120/326
f 470/123/327 478/126/327 477/125/327 467/124/327
f 346/561/328 341/566/328 72/127/328 63/105/328
f 33/93/329 40/68/329 359/567/329 361/510/329
f 344/86/330 351/100/330 350/120/330 343/109/330
f 305/560/331 322/568/331 360/536/331 382/518/331
f 328/569/332 333/570/332 353/542/332 355/541/332
f 357/122/333 522/134/333 521/133/333 356/121/333
f 322/568/334 328/569/334 355/541/334 360/536/334
f 336/571/335 332/572/335 88/137/335 80/136/335
f 342/558/336 337/573/336 358/574/336 352/559/336
f 352/101/337 358/141/337 357/122/337 351/100/337
f 333/570/338 338/575/338 348/548/338 353/542/338
f 341/566/339 336/571/339 80/136/339 72/127/339
f 320/576/340 330/577/340 96/145/340 110/144/340
f 40/68/341 47/69/341 354/578/341 359/567/341
f 379/148/342 370/151/342 369/150/342 524/149/342
f 323/579/343 331/580/343 370/581/343 379/582/343
f 55/156/344 62/157/344 347/550/344 349/549/344
f 337/573/345 335/583/345 364/584/345 358/574/345
f 358/141/346 364/160/346 522/134/346 357/122/346
f 47/69/347 55/156/347 349/549/347 354/578/347
f 391/161/348 376/164/348 375/163/348 392/162/348
f 389/585/349 327/586/349 376/587/349 391/588/349
f 62/157/350 71/169/350 342/558/350 347/550/350
f 338/575/351 343/589/351 346/561/351 348/548/351
f 343/589/352 350/590/352 341/566/352 346/561/352
f 524/149/353 369/150/353 368/173/353 523/172/353
f 356/591/354 521/592/354 332/593/354 336/594/354
f 71/169/355 79/178/355 337/573/355 342/558/355
f 327/586/356 103/181/356 105/180/356 325/595/356
f 392/162/357 375/163/357 560/184/357 559/183/357 393/182/357
f 350/590/358 356/596/358 336/571/358 341/566/358
f 523/597/359 368/598/359 330/577/359 320/576/359
f 107/188/360 95/189/360 331/580/360 323/579/360
f 393/599/361 559/600/361 557/601/361 390/602/361
f 79/178/362 87/194/362 335/583/362 337/573/362
f 374/603/363 377/604/363 561/605/363 326/606/363
f 126/199/364 103/181/364 327/586/364 389/585/364
f 376/587/365 327/586/365 325/595/365 375/607/365
f 536/608/366 553/609/366 552/610/366 535/611/366
f 390/602/367 557/601/367 300/206/367 125/205/367
f 335/583/368 323/579/368 379/582/368 364/584/368
f 364/160/369 379/148/369 524/149/369 522/134/369
f 325/612/370 105/210/370 299/209/370 558/613/370
f 332/593/371 320/576/371 110/144/371 88/211/371
f 369/614/372 387/615/372 388/616/372 368/598/372
f 87/194/373 107/188/373 323/579/373 335/583/373
f 330/577/374 319/617/374 113/215/374 96/145/374
f 521/618/375 523/619/375 320/620/375 332/572/375
f 368/598/376 388/616/376 319/617/376 330/577/376
f 95/189/377 118/221/377 317/621/377 331/580/377
f 331/580/378 317/621/378 386/622/378 370/581/378
f 370/151/379 386/224/379 387/223/379 369/150/379
f 388/616/380 393/599/380 390/602/380 319/617/380
f 118/221/381 126/199/381 389/585/381 317/621/381
f 387/223/382 392/162/382 393/182/382 388/225/382
f 319/617/383 390/602/383 125/205/383 113/215/383
f 317/621/384 389/585/384 391/588/384 386/622/384
f 386/224/385 391/161/385 392/162/385 387/223/385
f 396/82/386 399/56/386 398/227/386 395/226/386
f 398/227/387 401/228/387 400/54/387 397/55/387
f 395/226/388 398/227/388 397/55/388 394/98/388
f 401/228/389 404/230/389 403/229/389 400/54/389
f 399/56/390 402/57/390 401/228/390 398/227/390
f 402/57/391 405/231/391 404/230/391 401/228/391
f 338/623/392 403/624/392 404/625/392 339/626/392
f 333/53/393 400/54/393 403/229/393 338/108/393
f 340/556/394 409/555/394 415/627/394 349/628/394
f 339/626/395 404/625/395 405/553/395 340/556/395
f 407/545/396 329/629/396 423/630/396 413/631/396
f 410/58/397 419/243/397 416/242/397 408/241/397
f 411/80/398 420/246/398 334/245/398 406/244/398
f 414/81/399 424/247/399 420/246/399 411/80/399
f 412/59/400 422/248/400 419/243/400 410/58/400
f 408/554/401 416/632/401 417/633/401 409/555/401
f 402/57/402 410/58/402 408/241/402 405/231/402
f 349/251/403 415/252/403 414/81/403 354/78/403
f 321/537/404 407/545/404 413/631/404 396/538/404
f 359/79/405 411/80/405 406/244/405 361/253/405
f 419/243/406 430/255/406 428/254/406 416/242/406
f 420/246/407 431/257/407 426/256/407 334/245/407
f 424/247/408 434/258/408 431/257/408 420/246/408
f 422/248/409 432/259/409 430/255/409 419/243/409
f 416/632/410 428/634/410 429/635/410 417/633/410
f 423/262/411 433/263/411 432/259/411 422/248/411
f 415/252/412 425/264/412 424/247/412 414/81/412
f 409/555/413 417/633/413 425/636/413 415/627/413
f 406/544/414 334/637/414 329/629/414 407/545/414
f 413/83/415 423/262/415 422/248/415 412/59/415
f 454/638/416 418/639/416 443/640/416 453/641/416
f 450/271/417 439/274/417 436/273/417 451/272/417
f 448/275/418 440/278/418 421/277/418 446/276/418
f 447/279/419 444/280/419 440/278/419 448/275/419
f 449/281/420 442/282/420 439/274/420 450/271/420
f 436/273/421 458/284/421 460/283/421 451/272/421
f 329/629/422 427/642/422 433/643/422 423/630/422
f 425/264/423 435/287/423 434/258/423 424/247/423
f 417/633/424 429/635/424 435/644/424 425/636/424
f 334/637/425 426/645/425 427/642/425 329/629/425
f 421/646/426 440/647/426 441/648/426 418/649/426
f 437/650/427 436/651/427 439/652/427 438/653/427
f 440/647/428 444/654/428 438/653/428 441/648/428
f 441/648/429 442/655/429 443/656/429 418/649/429
f 444/654/430 445/657/430 437/650/430 438/653/430
f 438/653/431 439/652/431 442/655/431 441/648/431
f 455/302/432 445/303/432 444/280/432 447/279/432
f 455/302/433 461/305/433 459/304/433 445/303/433
f 446/658/434 421/659/434 418/639/434 454/638/434
f 453/308/435 443/309/435 442/282/435 449/281/435
f 433/263/436 453/308/436 449/281/436 432/259/436
f 426/645/437 446/658/437 454/638/437 427/642/437
f 429/635/438 452/660/438 455/661/438 435/644/438
f 435/287/439 455/302/439 447/279/439 434/258/439
f 428/634/440 451/662/440 452/660/440 429/635/440
f 432/259/441 449/281/441 450/271/441 430/255/441
f 434/258/442 447/279/442 448/275/442 431/257/442
f 431/257/443 448/275/443 446/276/443 426/256/443
f 430/255/444 450/271/444 451/272/444 428/254/444
f 427/642/445 454/638/445 453/641/445 433/643/445
f 460/663/446 458/664/446 457/665/446 456/666/446
f 456/666/447 457/665/447 459/667/447 461/668/447
f 451/669/448 460/670/448 456/671/448 452/672/448
f 437/650/449 457/673/449 458/674/449 436/651/449
f 452/672/450 456/671/450 461/675/450 455/676/450
f 445/657/451 459/677/451 457/673/451 437/650/451
f 462/328/452 465/331/452 466/330/452 463/329/452
f 466/330/453 469/332/453 470/123/453 467/124/453
f 463/329/454 466/330/454 467/124/454 464/333/454
f 465/331/455 468/334/455 469/332/455 466/330/455
f 308/529/456 463/528/456 464/562/456 306/565/456
f 314/507/457 465/678/457 462/679/457 307/508/457
f 467/124/458 477/125/458 479/337/458 464/333/458
f 316/520/459 468/680/459 465/678/459 314/507/459
f 474/4/460 482/340/460 483/339/460 475/3/460
f 476/681/461 484/682/461 480/683/461 472/684/461
f 473/564/462 481/685/462 482/686/462 474/687/462
f 477/125/463 485/349/463 487/348/463 479/337/463
f 315/521/464 472/684/464 478/688/464 470/522/464
f 367/533/465 476/681/465 472/684/465 315/521/465
f 372/2/466 475/3/466 476/352/466 367/351/466
f 306/565/467 473/564/467 474/687/467 385/689/467
f 498/690/468 492/691/468 488/692/468 501/693/468
f 499/358/469 507/361/469 506/360/469 490/359/469
f 313/362/470 493/365/470 495/364/470 496/363/470
f 497/366/471 491/369/471 492/368/471 498/367/471
f 479/563/472 487/694/472 481/685/472 473/564/472
f 472/684/473 480/683/473 486/695/473 478/688/473
f 478/126/474 486/372/474 485/349/474 477/125/474
f 475/3/475 483/339/475 484/373/475 476/352/475
f 489/696/476 495/697/476 493/698/476 471/699/476
f 489/696/477 471/699/477 491/700/477 490/701/477
f 471/699/478 488/702/478 492/703/478 491/700/478
f 471/699/479 493/698/479 494/704/479 488/702/479
f 499/358/480 490/359/480 491/369/480 497/366/480
f 495/364/481 504/384/481 503/383/481 496/363/481
f 501/693/482 488/692/482 494/705/482 502/706/482
f 502/387/483 494/388/483 493/365/483 313/362/483
f 516/389/484 502/387/484 313/362/484 509/390/484
f 515/707/485 501/693/485 502/706/485 516/708/485
f 512/709/486 496/710/486 500/711/486 511/712/486
f 514/397/487 499/358/487 497/366/487 510/398/487
f 510/398/488 497/366/488 498/367/488 513/399/488
f 509/390/489 313/362/489 496/363/489 512/400/489
f 511/712/490 500/711/490 499/713/490 514/714/490
f 513/715/491 498/690/491 501/693/491 515/707/491
f 508/716/492 505/717/492 506/718/492 507/719/492
f 503/720/493 504/721/493 505/717/493 508/716/493
f 500/722/494 508/723/494 507/724/494 499/725/494
f 490/701/495 506/726/495 505/727/495 489/696/495
f 496/728/496 503/729/496 508/723/496 500/722/496
f 489/696/497 505/727/497 504/730/497 495/697/497
f 484/682/498 513/715/498 515/707/498 480/683/498
f 481/685/499 511/712/499 514/714/499 482/686/499
f 485/349/500 509/390/500 512/400/500 487/348/500
f 483/339/501 510/398/501 513/399/501 484/373/501
f 482/340/502 514/397/502 510/398/502 483/339/502
f 487/694/503 512/709/503 511/712/503 481/685/503
f 480/683/504 515/707/504 516/708/504 486/695/504
f 486/372/505 516/389/505 509/390/505 485/349/505
f 252/419/506 517/731/506 518/732/506 251/420/506
f 519/733/507 517/734/507 252/425/507 257/424/507
f 258/427/508 251/420/508 518/732/508 520/735/508
f 24/107/509 258/430/509 520/736/509 366/519/509
f 365/530/510 519/737/510 257/431/510 26/119/510
f 366/532/511 520/735/511 519/737/511 365/530/511
f 362/433/512 521/133/512 522/134/512 363/434/512
f 537/435/513 523/172/513 521/133/513 362/433/513
f 363/434/514 522/134/514 524/149/514 538/436/514
f 538/436/515 524/149/515 523/172/515 537/435/515 545/438/515 546/437/515
f 362/738/516 525/739/516 541/740/516 537/741/516
f 528/443/517 542/446/517 540/445/517 526/444/517
f 538/436/518 544/448/518 529/447/518 363/434/518
f 540/742/519 539/743/519 527/744/519 526/745/519
f 539/743/520 541/740/520 525/739/520 527/744/520
f 528/443/521 530/454/521 543/453/521 542/446/521
f 530/454/522 529/447/522 544/448/522 543/453/522
f 363/746/523 529/747/523 530/748/523 528/749/523 526/750/523 527/751/523 525/752/523 362/753/523
f 378/754/524 538/755/524 546/756/524
f 533/757/525 539/758/525 540/759/525 531/760/525
f 532/761/526 541/762/526 539/758/526 533/757/526
f 535/611/527 542/763/527 543/764/527 536/608/527
f 536/608/528 543/764/528 544/765/528 534/766/528
f 531/760/529 540/759/529 542/763/529 535/611/529
f 381/767/530 537/768/530 541/762/530 532/761/530
f 534/766/531 544/765/531 538/755/531 378/754/531
f 547/769/532 551/770/532 549/771/532 550/772/532 552/610/532 553/609/532 554/773/532 548/774/532
f 545/775/533 537/768/533 381/767/533
f 532/761/534 551/770/534 547/769/534 381/767/534
f 556/776/535 555/777/535 547/769/535 548/774/535
f 381/767/536 547/769/536 555/777/536 545/775/536
f 378/754/537 548/774/537 554/773/537 534/766/537
f 534/766/538 554/773/538 553/609/538 536/608/538
f 531/760/539 550/772/539 549/771/539 533/757/539
f 545/438/540 555/488/540 556/487/540 546/437/540
f 535/611/541 552/610/541 550/772/541 531/760/541
f 546/756/542 556/776/542 548/774/542 378/754/542
f 533/757/543 549/771/543 551/770/543 532/761/543
f 559/778/544 374/779/544 326/780/544 557/781/544
f 558/613/545 561/605/545 377/604/545 560/782/545
f 375/783/546 325/612/546 558/613/546 560/782/546
f 326/606/547 561/605/547 303/496/547 302/495/547
f 299/497/548 303/500/548 561/784/548 558/785/548
f 557/781/549 326/780/549 302/502/549 300/501/549
f 560/184/550 377/504/550 374/503/550 559/183/550
f 562/786/551 575/787/551 574/788/551
f 563/789/552 575/790/552 577/791/552
f 562/792/553 574/793/553 579/794/553
f 562/795/554 579/796/554 581/797/554
f 562/798/555 581/799/555 578/800/555
f 563/789/556 577/791/556 584/801/556
f 564/802/557 576/803/557 586/804/557
f 565/805/558 580/806/558 588/807/558
f 566/808/559 582/809/559 590/810/559
f 567/811/560 583/812/560 592/813/560
f 563/789/561 584/801/561 587/814/561
f 564/802/562 586/804/562 589/815/562
f 565/805/563 588/807/563 591/816/563
f 566/808/564 590/810/564 593/817/564
f 567/811/565 592/813/565 585/818/565
f 568/819/566 594/820/566 599/821/566
f 569/822/567 595/823/567 601/824/567
f 570/825/568 596/826/568 602/827/568
f 571/828/569 597/829/569 603/830/569
f 572/831/570 598/832/570 600/833/570
f 600/833/571 603/834/571 573/835/571
f 600/833/572 598/832/572 603/834/572
f 598/832/573 571/828/573 603/834/573
f 603/830/574 602/836/574 573/837/574
f 603/830/575 597/829/575 602/836/575
f 597/829/576 570/825/576 602/836/576
f 602/827/577 601/838/577 573/839/577
f 602/827/578 596/826/578 601/838/578
f 596/826/579 569/840/579 601/838/579
f 601/824/580 599/841/580 573/842/580
f 601/824/581 595/823/581 599/841/581
f 595/823/582 568/819/582 599/841/582
f 599/821/583 600/843/583 573/844/583
f 599/821/584 594/820/584 600/843/584
f 594/820/585 572/831/585 600/843/585
f 585/818/586 598/832/586 572/831/586
f 585/818/587 592/813/587 598/832/587
f 592/813/588 571/828/588 598/832/588
f 593/817/589 597/829/589 571/828/589
f 593/817/590 590/810/590 597/829/590
f 590/810/591 570/825/591 597/829/591
f 591/816/592 596/826/592 570/825/592
f 591/816/593 588/807/593 596/826/593
f 588/807/594 569/840/594 596/826/594
f 589/815/595 595/823/595 569/822/595
f 589/815/596 586/804/596 595/823/596
f 586/804/597 568/819/597 595/823/597
f 587/814/598 594/820/598 568/819/598
f 587/814/599 584/801/599 594/820/599
f 584/801/600 572/831/600 594/820/600
f 592/813/601 593/817/601 571/828/601
f 592/813/602 583/812/602 593/817/602
f 583/812/603 566/808/603 593/817/603
f 590/810/604 591/816/604 570/825/604
f 590/810/605 582/809/605 591/816/605
f 582/809/606 565/805/606 591/816/606
f 588/807/607 589/845/607 569/840/607
f 588/807/608 580/806/608 589/845/608
f 580/806/609 564/846/609 589/845/609
f 586/804/610 587/814/610 568/819/610
f 586/804/611 576/803/611 587/814/611
f 576/803/612 563/789/612 587/814/612
f 584/801/613 585/818/613 572/831/613
f 584/801/614 577/791/614 585/818/614
f 577/791/615 567/811/615 585/818/615
f 578/800/616 583/812/616 567/811/616
f 578/800/617 581/799/617 583/812/617
f 581/799/618 566/808/618 583/812/618
f 581/797/619 582/809/619 566/808/619
f 581/797/620 579/796/620 582/809/620
f 579/796/621 565/805/621 582/809/621
f 579/794/622 580/806/622 565/805/622
f 579/794/623 574/793/623 580/806/623
f 574/793/624 564/846/624 580/806/624
f 577/791/625 578/847/625 567/811/625
f 577/791/626 575/790/626 578/847/626
f 575/790/627 562/848/627 578/847/627
f 574/788/628 576/803/628 564/802/628
f 574/788/629 575/787/629 576/803/629
f 575/787/630 563/789/630 576/803/630
f 604/786/631 616/788/631 617/787/631
f 605/789/632 619/791/632 617/790/632
f 604/792/633 621/794/633 616/793/633
f 604/795/634 623/797/634 621/796/634
f 604/798/635 620/800/635 623/799/635
f 605/789/636 626/801/636 619/791/636
f 606/802/637 628/804/637 618/803/637
f 607/805/638 630/807/638 622/806/638
f 608/808/639 632/810/639 624/809/639
f 609/811/640 634/813/640 625/812/640
f 605/789/641 629/814/641 626/801/641
f 606/802/642 631/815/642 628/804/642
f 607/805/643 633/816/643 630/807/643
f 608/808/644 635/817/644 632/810/644
f 609/811/645 627/818/645 634/813/645
f 610/819/646 641/821/646 636/820/646
f 611/822/647 643/824/647 637/823/647
f 612/825/648 644/827/648 638/826/648
f 613/828/649 645/830/649 639/829/649
f 614/831/650 642/833/650 640/832/650
f 642/833/651 615/835/651 645/834/651
f 642/833/652 645/834/652 640/832/652
f 640/832/653 645/834/653 613/828/653
f 645/830/654 615/837/654 644/836/654
f 645/830/655 644/836/655 639/829/655
f 639/829/656 644/836/656 612/825/656
f 644/827/657 615/839/657 643/838/657
f 644/827/658 643/838/658 638/826/658
f 638/826/659 643/838/659 611/840/659
f 643/824/660 615/842/660 641/841/660
f 643/824/661 641/841/661 637/823/661
f 637/823/662 641/841/662 610/819/662
f 641/821/663 615/844/663 642/843/663
f 641/821/664 642/843/664 636/820/664
f 636/820/665 642/843/665 614/831/665
f 627/818/666 614/831/666 640/832/666
f 627/818/667 640/832/667 634/813/667
f 634/813/668 640/832/668 613/828/668
f 635/817/669 613/828/669 639/829/669
f 635/817/670 639/829/670 632/810/670
f 632/810/671 639/829/671 612/825/671
f 633/816/672 612/825/672 638/826/672
f 633/816/673 638/826/673 630/807/673
f 630/807/674 638/826/674 611/840/674
f 631/815/675 611/822/675 637/823/675
f 631/815/676 637/823/676 628/804/676
f 628/804/677 637/823/677 610/819/677
f 629/814/678 610/819/678 636/820/678
f 629/814/679 636/820/679 626/801/679
f 626/801/680 636/820/680 614/831/680
f 634/813/681 613/828/681 635/817/681
f 634/813/682 635/817/682 625/812/682
f 625/812/683 635/817/683 608/808/683
f 632/810/684 612/825/684 633/816/684
f 632/810/685 633/816/685 624/809/685
f 624/809/686 633/816/686 607/805/686
f 630/807/687 611/840/687 631/845/687
f 630/807/688 631/845/688 622/806/688
f 622/806/689 631/845/689 606/846/689
f 628/804/690 610/819/690 629/814/690
f 628/804/691 629/814/691 618/803/691
f 618/803/692 629/814/692 605/789/692
f 626/801/693 614/831/693 627/818/693
f 626/801/694 627/818/694 619/791/694
f 619/791/695 627/818/695 609/811/695
f 620/800/696 609/811/696 625/812/696
f 620/800/697 625/812/697 623/799/697
f 623/799/698 625/812/698 608/808/698
f 623/797/699 608/808/699 624/809/699
f 623/797/700 624/809/700 621/796/700
f 621/796/701 624/809/701 607/805/701
f 621/794/702 607/805/702 622/806/702
f 621/794/703 622/806/703 616/793/703
f 616/793/704 622/806/704 606/846/704
f 619/791/705 609/811/705 620/847/705
f 619/791/706 620/847/706 617/790/706
f 617/790/707 620/847/707 604/848/707
f 616/788/708 606/802/708 618/803/708
f 616/788/709 618/803/709 617/787/709
f 617/787/710 618/803/710 605/789/710
