# Blender 5.1.1
# www.blender.org
o Куб.001
v 0.541618 1.162811 0.599030
v 0.532677 2.435430 0.473112
v 0.605343 1.173997 0.076768
v 0.619204 2.374602 -0.234217
v 0.000882 1.001036 -0.324745
v -0.000000 2.480862 -0.357245
v 0.709547 1.795227 0.098543
v 0.615153 1.128265 0.308487
v 0.609421 2.458079 0.116776
v 0.653480 1.755749 0.518084
v 0.003049 0.934715 0.679906
v -0.000000 2.544096 0.544675
v 0.719832 1.802652 0.191451
v 0.001201 0.890142 0.183480
v -0.000000 2.614716 0.130571
v 0.822234 0.238460 -0.241706
v 0.537225 2.238442 -0.537059
v 0.000792 1.090039 -0.582376
v 0.000000 2.280686 -0.622767
v 0.467131 1.242395 -0.595644
v 0.464406 2.037001 -0.746678
v 0.090362 0.742053 3.036389
v 0.000513 1.213009 -0.802873
v -0.000000 2.103516 -0.887623
v 0.563322 1.620270 -0.778791
v 0.000096 1.593167 -0.914993
v 0.084677 1.121698 3.164036
v 0.172094 1.535679 3.027514
v 0.465793 1.240885 0.960819
v 0.502367 2.385134 0.889783
v 0.175772 0.791443 2.840440
v 0.620321 1.716530 0.848948
v 0.004560 0.978333 1.129060
v 0.000068 2.487144 0.979387
v 0.059274 0.723551 3.267229
v 0.033850 0.870908 3.354385
v 0.047665 0.692636 3.151061
v 0.566932 2.556976 1.239696
v 0.549629 0.749270 0.818920
v 0.002968 0.935418 1.477581
v -0.005207 2.647201 1.345351
v 0.118300 1.330179 3.185934
v 0.136209 0.752765 2.950774
v 0.177045 1.747051 2.827391
v 0.579293 2.560168 1.435929
v 0.455354 0.700795 0.855497
v 0.002122 0.976823 1.621463
v -0.002419 2.653376 1.544475
v 0.190837 0.838030 2.729223
v 0.177045 1.888663 2.654945
v 0.177045 0.892470 2.592969
v 0.540936 2.492218 1.719275
v 0.692018 1.750520 1.703066
v 0.553140 0.946898 1.661748
v 0.000765 1.077556 1.778347
v -0.000053 2.587693 1.817999
v 0.181751 2.051784 2.405457
v 0.181751 1.083537 2.268700
v 0.459560 2.242793 2.018161
v 0.562641 1.549464 1.897089
v 0.459417 1.279982 1.875655
v 0.000276 1.165101 1.904725
v 0.000000 2.337221 2.104223
v 0.227717 2.303995 2.071563
v 0.229742 1.213092 1.885491
v 0.270568 2.556321 1.765668
v 0.358149 1.011757 1.610164
v 0.364925 1.996256 2.359412
v 0.445932 1.415633 2.298655
v 0.364925 1.138811 2.219537
v -0.000000 1.048480 2.276517
v -0.000000 2.080904 2.408269
v 0.285233 2.626994 1.479470
v 0.302686 1.016243 1.496230
v 0.278218 2.625286 1.276945
v 0.355746 1.841849 2.610086
v 0.433703 1.349183 2.571764
v 0.355746 0.945942 2.550184
v -0.000000 0.867152 2.577331
v -0.000000 1.916662 2.642932
v 0.303649 1.066496 1.364612
v 0.251435 2.457758 0.911336
v 0.330078 1.151212 1.119293
v 0.372539 1.568603 2.769116
v 0.455708 1.361286 2.716864
v 0.382651 0.893114 2.690609
v -0.000000 0.813911 2.708966
v -0.000000 1.778003 2.810261
v 0.249464 1.608923 -0.873664
v 0.203272 2.085519 -0.852142
v 0.326979 1.208932 -0.572701
v 0.241143 1.309838 3.130802
v 0.339854 1.081975 3.002352
v 0.276080 0.793936 2.917352
v -0.000000 0.746791 2.914626
v -0.000000 1.357042 3.159807
v 0.249621 2.242190 -0.666791
v 0.285574 1.125139 -0.319978
v 0.307137 2.558010 0.092628
v 0.069124 0.874329 3.332449
v 0.125993 0.743632 3.231777
v 0.103346 0.718797 3.151337
v -0.000000 0.681404 3.158571
v 0.064203 0.822155 3.331448
v -0.000000 0.714251 3.261437
v 0.465527 1.394148 2.808772
v -0.000000 0.776242 2.813782
v 0.353261 0.839940 2.802951
v 0.310915 1.019746 0.243736
v -0.000000 1.569520 3.007329
v 0.402860 1.525025 2.848002
v 0.267623 2.510773 0.480969
v -0.000000 1.124398 3.163496
v 0.274264 1.047747 0.598545
v 0.301628 2.446166 -0.401537
v 0.359964 1.089526 -0.020887
v 0.186642 0.776644 3.003869
v -0.000000 0.743186 2.995129
v 0.210413 0.912796 3.117076
v 0.175549 1.091233 3.137229
v 0.070240 0.717632 3.088464
v 0.067630 0.958754 3.267581
v 0.139993 0.737142 3.083333
v 0.161300 0.829133 3.173939
v -0.000000 0.968486 3.257385
v -0.000000 0.712997 3.072972
v 0.134901 0.951838 3.235594
v 0.623264 2.282935 0.990568
v 0.720803 1.701560 0.895406
v 0.667020 1.344728 0.987471
v 0.679608 2.443466 1.239041
v 0.819775 1.679977 1.304463
v 0.823525 1.133571 1.319196
v 0.641588 2.459983 1.420460
v 0.835205 1.709565 1.475458
v 0.832571 1.032435 1.467977
v 0.660298 2.317492 1.604406
v 0.788275 1.749820 1.669369
v 0.762432 0.981871 1.617396
v 0.443114 0.905454 0.914332
v 0.542297 0.969144 0.867769
v 0.755292 0.638155 1.278436
v 0.604241 0.587289 1.308926
v 0.806003 0.697131 1.175085
v 0.420229 0.738184 1.069323
v 0.799169 0.780858 1.073205
v 0.686884 0.986703 0.870205
v 0.422951 0.641659 1.177968
v 0.465584 0.604762 1.273457
v 0.762734 0.472010 1.064371
v 0.614491 0.443247 1.095201
v 0.530510 0.493808 0.417090
v 0.813484 0.531275 0.994320
v 0.432744 0.595238 0.938421
v 0.415644 0.452733 0.459055
v 0.802294 0.605776 0.924745
v 0.687242 0.746166 0.821271
v 0.433788 0.512409 1.019114
v 0.477015 0.466771 1.074382
v 0.444053 0.624636 0.673115
v 0.547998 0.665526 0.637598
v 0.784143 0.406340 0.850000
v 0.622699 0.383429 0.880821
v 0.803475 0.462421 0.788246
v 0.425605 0.527588 0.747796
v 0.793186 0.530435 0.728285
v 0.700802 0.659145 0.636357
v 0.428854 0.449540 0.819429
v 0.473271 0.405231 0.867864
v 0.820279 0.224250 0.657817
v 0.614780 0.202896 0.700527
v 0.651222 0.283046 0.605203
v 0.815781 0.283409 0.591488
v 0.395775 0.353265 0.545350
v 0.639493 0.360248 0.523560
v 0.805292 0.353628 0.520081
v 0.699818 0.486374 0.414098
v 0.402130 0.273984 0.627423
v 0.421266 0.226839 0.679190
v 0.427868 0.546290 0.570499
v 0.414044 0.369299 0.722193
v 0.408290 0.447658 0.649062
v 0.802908 0.448887 0.627437
v 0.812668 0.379310 0.690550
v 0.799159 0.355975 0.793356
v 0.625008 0.341308 0.827788
v 0.702608 0.580796 0.530545
v 0.539041 0.587723 0.532639
v 0.460838 0.356843 0.810560
v 0.619951 0.198498 0.869743
v 0.615774 0.109533 0.799429
v 0.791079 0.131355 0.758252
v 0.452753 0.132484 0.778355
v 0.789194 0.218071 0.830873
v 0.462231 0.217171 0.848485
v 0.761856 2.249015 -0.305238
v 0.788212 1.792480 0.014838
v 0.765474 1.192477 -0.002247
v 0.752187 2.115930 -0.517741
v 0.859722 1.680452 -0.457757
v 0.813212 1.206170 -0.261074
v 0.742590 1.952368 -0.684694
v 0.839541 1.627913 -0.675067
v 0.745178 1.243038 -0.534529
v 0.603992 0.010658 -0.222904
v 0.526460 0.901118 -0.602086
v 0.636579 0.976491 0.018861
v 0.440014 0.954962 -0.046415
v 0.380786 0.922477 -0.311035
v 0.414356 0.902096 -0.555730
v 0.803455 0.936979 -0.300990
v 0.749142 0.906546 -0.559699
v 0.765029 0.968705 -0.057283
v 0.543286 0.685540 -0.548901
v 0.642040 0.568655 0.011527
v 0.463084 0.572634 -0.056129
v 0.409948 0.631599 -0.294326
v 0.441094 0.675859 -0.508510
v 0.795074 0.637128 -0.275335
v 0.746129 0.680833 -0.508967
v 0.759313 0.586227 -0.054916
v 0.547983 0.021331 -0.458789
v 0.665792 0.008435 -0.001528
v 0.411036 -0.002431 -0.055055
v 0.399607 0.003676 -0.249258
v 0.434194 0.016568 -0.426076
v 0.828285 0.011814 -0.234969
v 0.773709 0.020237 -0.426277
v 0.832429 0.009256 -0.055824
v 0.824465 0.240499 -0.063969
v 0.393554 0.229899 -0.256074
v 0.428117 0.236484 -0.432702
v 0.403074 0.229293 -0.063186
v 0.657831 0.239939 -0.010224
v 0.541902 0.240312 -0.465446
v 0.767632 0.240300 -0.432890
v 0.781871 0.124270 0.069842
v 0.788340 0.010129 0.082599
v 0.657928 0.008908 0.136838
v 0.458648 -0.001958 0.083758
v 0.452176 0.111842 0.071553
v 0.651470 0.125682 0.123739
v 0.785282 0.456542 -0.258983
v 0.426094 0.449895 -0.272391
v 0.642817 0.442289 -0.031931
v 0.752111 0.446267 -0.084902
v 0.455228 0.465962 -0.441909
v 0.475856 0.435995 -0.084079
v 0.550599 0.470865 -0.473401
v 0.739729 0.469423 -0.442212
v -0.000000 1.964712 -0.963352
v -0.000000 1.715167 -1.003691
v 0.092452 1.729229 -0.965457
v 0.076591 1.955334 -0.937061
v 0.127737 1.709602 -0.912332
v 0.088882 2.048142 -0.898695
v -0.000000 1.692332 -0.956154
v -0.000000 2.059583 -0.930772
v 0.353936 1.708212 2.704605
v 0.462452 1.286959 2.669567
v 0.346085 1.498066 2.974243
v 0.469988 1.235797 2.867236
v 0.431634 1.602902 2.812291
v 0.509515 1.584507 2.827297
v 0.472450 1.607946 2.829819
v 0.537234 1.549440 2.813871
v 0.536419 1.467141 2.775199
v 0.550043 1.508810 2.796227
v 0.514399 1.542806 2.858962
v 0.455471 1.553594 2.863067
v 0.486059 1.557962 2.865797
v 0.527030 1.470570 2.830590
v 0.527210 1.528607 2.852260
v 0.537319 1.500520 2.840710
v 0.372831 1.534011 2.851049
v 0.460350 1.351768 2.793898
v 0.490673 1.581069 2.874029
v 0.529939 1.559864 2.865069
v 0.447174 1.574749 2.870567
v 0.548145 1.539436 2.856170
v 0.562047 1.500591 2.840813
v 0.548125 1.460098 2.826945
v 0.383871 1.510587 2.843690
v 0.450291 1.372763 2.800448
v 0.413090 1.510777 2.832090
v 0.458299 1.416444 2.803792
v 0.473111 1.534564 2.844933
v 0.493557 1.523655 2.840012
v 0.451044 1.531415 2.842960
v 0.502798 1.513431 2.835183
v 0.510091 1.493196 2.826860
v 0.502668 1.471639 2.819578
v 0.399391 1.500460 2.829003
v 0.447307 1.401005 2.797760
v 0.058900 0.886676 3.323652
v 0.055763 0.798539 3.323564
v 0.099802 0.892638 3.296122
v 0.095412 0.804136 3.296869
v -0.000000 0.798349 3.326609
v -0.000000 0.883876 3.326802
v 0.030579 0.818946 3.352723
v -0.000000 0.869207 3.353091
v -0.000000 0.818795 3.352088
v -0.533870 0.922607 0.641246
v -0.532479 2.425502 0.477216
v -0.601818 1.040900 -0.283622
v -0.619472 2.362594 -0.211539
v -0.708479 1.660025 0.003169
v -0.610011 0.892698 0.118721
v -0.609568 2.443968 0.128504
v -0.649672 1.618532 0.513786
v -0.718771 1.654371 0.112304
v -0.819193 0.562789 -1.245713
v -0.537649 2.268847 -0.496382
v -0.464322 1.382580 -0.836820
v -0.464300 2.112571 -0.748569
v -0.090363 0.742053 3.036389
v -0.561961 1.738727 -0.875118
v -0.084677 1.121698 3.164036
v -0.172094 1.535681 3.027514
v -0.446884 1.055837 1.292393
v -0.499997 2.376879 0.889562
v -0.175772 0.791443 2.840440
v -0.610625 1.629491 0.883242
v -0.059274 0.723551 3.267229
v -0.033850 0.870908 3.354385
v -0.047665 0.692636 3.151061
v -0.570340 2.528199 1.239684
v -0.533100 0.482046 1.666535
v -0.118300 1.330179 3.185934
v -0.136209 0.752765 2.950774
v -0.177045 1.747051 2.827391
v -0.583003 2.528340 1.435916
v -0.438821 0.482454 1.726716
v -0.190837 0.838030 2.729223
v -0.177045 1.888663 2.654945
v -0.177045 0.892470 2.592969
v -0.540207 2.469419 1.719261
v -0.659451 1.857351 1.776964
v -0.539586 1.159610 2.045337
v -0.181751 2.051784 2.405457
v -0.181751 1.083537 2.268701
v -0.453311 2.249277 2.003777
v -0.553348 1.629952 1.933155
v -0.454102 1.372956 1.950682
v -0.227127 2.303780 2.071563
v -0.227389 1.261603 1.929374
v -0.271600 2.554620 1.765669
v -0.350851 1.103710 1.802977
v -0.364925 1.996256 2.359412
v -0.444931 1.430144 2.300848
v -0.364925 1.138811 2.219537
v -0.293607 2.618735 1.479477
v -0.294451 1.082105 1.700666
v -0.287329 2.615897 1.276951
v -0.355746 1.841849 2.610086
v -0.433703 1.349183 2.571765
v -0.355746 0.945943 2.550186
v -0.289562 1.101348 1.691041
v -0.250990 2.456718 0.911335
v -0.312654 1.070463 1.461916
v -0.372539 1.568602 2.769116
v -0.455708 1.361291 2.716868
v -0.382651 0.893115 2.690612
v -0.249022 1.650412 -0.902320
v -0.203268 2.100489 -0.851079
v -0.324440 1.316936 -0.796523
v -0.241143 1.309843 3.130805
v -0.339854 1.081975 3.002352
v -0.276080 0.793936 2.917352
v -0.249692 2.254787 -0.659283
v -0.282562 1.134017 -0.576132
v -0.307155 2.556722 0.094115
v -0.069124 0.874329 3.332449
v -0.125993 0.743632 3.231777
v -0.103346 0.718797 3.151337
v -0.064203 0.822155 3.331448
v -0.465527 1.394160 2.808779
v -0.353261 0.839940 2.802951
v -0.307144 0.875156 0.094362
v -0.402860 1.525051 2.848007
v -0.267639 2.510685 0.480969
v -0.267787 0.898572 0.640181
v -0.301735 2.446875 -0.392035
v -0.356594 0.999177 -0.348623
v -0.186642 0.776644 3.003869
v -0.210413 0.912796 3.117076
v -0.175549 1.091233 3.137229
v -0.070240 0.717632 3.088464
v -0.067630 0.958754 3.267581
v -0.139993 0.737142 3.083333
v -0.161300 0.829133 3.173939
v -0.134901 0.951838 3.235594
v -0.611463 2.245514 0.988064
v -0.708892 1.614189 0.950234
v -0.643926 1.129307 1.316502
v -0.671874 2.396115 1.229630
v -0.786834 1.624131 1.459141
v -0.801244 1.145744 1.765809
v -0.636658 2.421991 1.417403
v -0.800458 1.727810 1.603958
v -0.812112 1.165031 1.944698
v -0.641276 2.282878 1.584417
v -0.752821 1.846193 1.750868
v -0.744755 1.206435 2.063211
v -0.421255 0.695034 1.600703
v -0.519575 0.714355 1.522886
v -0.736822 0.755575 2.058536
v -0.586534 0.736615 2.104666
v -0.786648 0.727773 1.941583
v -0.400277 0.680527 1.836129
v -0.778733 0.719123 1.810288
v -0.663575 0.732253 1.517437
v -0.404430 0.685019 1.966089
v -0.448271 0.715436 2.038269
v -0.746157 0.526024 2.035340
v -0.597901 0.527799 2.079495
v -0.531060 0.026316 1.656201
v -0.797115 0.507572 1.945908
v -0.416427 0.488499 1.861346
v -0.415760 0.028503 1.713936
v -0.786027 0.494545 1.845054
v -0.670728 0.485959 1.670599
v -0.417399 0.504098 1.976351
v -0.460458 0.521147 2.046966
v -0.434520 0.287591 1.698868
v -0.538593 0.283627 1.644511
v -0.773709 0.320392 1.981478
v -0.611782 0.323763 2.022493
v -0.793764 0.303881 1.898851
v -0.415883 0.294543 1.821394
v -0.783821 0.291738 1.806740
v -0.691464 0.283541 1.648483
v -0.418560 0.308390 1.926709
v -0.462420 0.322211 1.991781
v -0.817964 0.031857 2.013849
v -0.611356 0.029690 2.054281
v -0.649765 0.030314 1.931102
v -0.814692 0.030424 1.926385
v -0.395150 0.030592 1.844098
v -0.639272 0.027615 1.825769
v -0.805181 0.026209 1.829897
v -0.700493 0.025223 1.660850
v -0.400318 0.035061 1.954488
v -0.418498 0.035567 2.023157
v -0.422721 0.162762 1.708385
v -0.407896 0.179374 1.943998
v -0.402830 0.168720 1.835117
v -0.797808 0.164691 1.820877
v -0.807064 0.174922 1.916419
v -0.791013 0.241346 1.998447
v -0.615564 0.238221 2.045171
v -0.697732 0.158048 1.656727
v -0.534076 0.158714 1.652352
v -0.452357 0.243496 2.007802
v -0.610808 0.142394 2.184575
v -0.610460 0.023491 2.190148
v -0.786852 0.025823 2.148942
v -0.448072 0.028315 2.158429
v -0.781191 0.145583 2.143301
v -0.453978 0.148457 2.152069
v -0.762347 2.216959 -0.263764
v -0.786928 1.668756 -0.097836
v -0.762044 1.090096 -0.348513
v -0.752301 2.151420 -0.503314
v -0.858157 1.721240 -0.581378
v -0.809945 1.219558 -0.573794
v -0.742156 2.044908 -0.708622
v -0.837868 1.744816 -0.798151
v -0.742132 1.374014 -0.799185
v -0.601737 0.454519 -1.447875
v -0.522181 1.109586 -0.987466
v -0.632470 0.859934 -0.438635
v -0.435826 0.870835 -0.499111
v -0.376517 0.975871 -0.733566
v -0.410057 1.086639 -0.946544
v -0.799327 0.990975 -0.728403
v -0.744915 1.092060 -0.954460
v -0.760921 0.892545 -0.507830
v -0.538278 0.952475 -1.007754
v -0.638345 0.472800 -0.819875
v -0.459246 0.531682 -0.847791
v -0.405440 0.761687 -0.900936
v -0.436124 0.923019 -0.986478
v -0.790597 0.749348 -0.887637
v -0.741160 0.926235 -0.983713
v -0.755429 0.538188 -0.833459
v -0.545152 0.675106 -1.531398
v -0.664051 0.250293 -1.362793
v -0.409210 0.294384 -1.394167
v -0.397315 0.475181 -1.465074
v -0.431454 0.642779 -1.523088
v -0.825996 0.466720 -1.451060
v -0.770954 0.645572 -1.519086
v -0.830560 0.301121 -1.382879
v -0.821826 0.400347 -1.173291
v -0.390512 0.571094 -1.260147
v -0.424647 0.735950 -1.324180
v -0.400476 0.393716 -1.184155
v -0.655318 0.350182 -1.152853
v -0.538344 0.767913 -1.333451
v -0.764147 0.738799 -1.320075
v -0.779916 0.230725 -1.227770
v -0.786786 0.174039 -1.327811
v -0.656503 0.123219 -1.307998
v -0.457139 0.167108 -1.339122
v -0.450268 0.223194 -1.239122
v -0.649636 0.181211 -1.205652
v -0.781493 0.665295 -1.052597
v -0.422276 0.672512 -1.062765
v -0.639559 0.451290 -0.971312
v -0.748740 0.501349 -0.991106
v -0.450898 0.823733 -1.112432
v -0.472509 0.495536 -0.999362
v -0.546173 0.852024 -1.120826
v -0.735386 0.826106 -1.108974
v -0.092420 1.733655 -0.967761
v -0.076591 1.955334 -0.937061
v -0.127617 1.725040 -0.919674
v -0.088882 2.048142 -0.898695
v -0.353936 1.708212 2.704605
v -0.462452 1.286962 2.669571
v -0.346085 1.498073 2.974244
v -0.469988 1.235801 2.867239
v -0.431634 1.602936 2.812292
v -0.509515 1.584566 2.827301
v -0.472450 1.608002 2.829819
v -0.537234 1.549504 2.813881
v -0.536419 1.467176 2.775214
v -0.550043 1.508858 2.796239
v -0.514399 1.542855 2.858969
v -0.455471 1.553640 2.863072
v -0.486059 1.558012 2.865803
v -0.527030 1.470609 2.830603
v -0.527210 1.528656 2.852270
v -0.537319 1.500566 2.840722
v -0.372831 1.534020 2.851051
v -0.460350 1.351775 2.793903
v -0.490673 1.581124 2.874032
v -0.529939 1.559920 2.865075
v -0.447174 1.574794 2.870570
v -0.548145 1.539491 2.856179
v -0.562047 1.500640 2.840825
v -0.548125 1.460138 2.826960
v -0.383871 1.510613 2.843696
v -0.450291 1.372771 2.800452
v -0.413090 1.510805 2.832097
v -0.458299 1.416454 2.803798
v -0.473111 1.534607 2.844940
v -0.493557 1.523690 2.840019
v -0.451044 1.531461 2.842969
v -0.502798 1.513470 2.835192
v -0.510091 1.493239 2.826873
v -0.502668 1.471673 2.819590
v -0.399391 1.500485 2.829010
v -0.447307 1.401015 2.797766
v -0.058900 0.886676 3.323652
v -0.055763 0.798539 3.323564
v -0.099802 0.892638 3.296122
v -0.095412 0.804136 3.296869
v -0.030579 0.818946 3.352723
v 0.291561 1.109007 3.037609
v 0.306648 1.175749 3.058195
v 0.269728 1.103723 3.079202
v 0.232186 1.063883 3.073923
v 0.245906 1.111287 3.049652
v 0.291926 1.180423 3.039932
v 0.256597 1.171873 3.107233
v 0.210577 1.102736 3.116952
v 0.195855 1.107411 3.098690
v 0.232775 1.179437 3.077682
v 0.270316 1.219277 3.082962
v 0.210942 1.174152 3.119276
v 0.285805 1.100182 3.054888
v 0.307506 1.142518 3.042540
v 0.294673 1.139412 3.066988
v 0.307720 1.184495 3.043906
v 0.298852 1.145266 3.031805
v 0.263739 1.076765 3.051785
v 0.250905 1.073659 3.076232
v 0.271803 1.104629 3.037519
v 0.236903 1.078105 3.058863
v 0.272017 1.146606 3.038884
v 0.295019 1.207333 3.069198
v 0.286365 1.210081 3.058463
v 0.265254 1.137134 3.095812
v 0.286955 1.179470 3.083464
v 0.216138 1.073079 3.098422
v 0.238204 1.096496 3.101525
v 0.215548 1.103690 3.073421
v 0.207484 1.075827 3.087687
v 0.264299 1.186664 3.055360
v 0.237249 1.146026 3.061073
v 0.265600 1.205055 3.098022
v 0.230486 1.136554 3.118001
v 0.194783 1.098664 3.112979
v 0.207830 1.143748 3.089897
v 0.251598 1.209501 3.080652
v 0.230700 1.178531 3.119366
v 0.238764 1.206394 3.105100
v 0.203650 1.137894 3.125079
v 0.194997 1.140641 3.114345
v 0.216698 1.182977 3.101997
v -0.291561 1.109007 3.037609
v -0.306648 1.175748 3.058195
v -0.269728 1.103723 3.079203
v -0.232186 1.063883 3.073923
v -0.245906 1.111287 3.049652
v -0.291925 1.180423 3.039932
v -0.256597 1.171872 3.107233
v -0.210577 1.102736 3.116953
v -0.195854 1.107411 3.098690
v -0.232775 1.179437 3.077682
v -0.270316 1.219276 3.082962
v -0.210942 1.174152 3.119276
v -0.285805 1.100182 3.054888
v -0.307506 1.142518 3.042540
v -0.294673 1.139412 3.066988
v -0.307720 1.184495 3.043906
v -0.298852 1.145266 3.031806
v -0.263739 1.076765 3.051785
v -0.250905 1.073658 3.076233
v -0.271803 1.104629 3.037519
v -0.236903 1.078105 3.058864
v -0.272017 1.146606 3.038885
v -0.295019 1.207333 3.069198
v -0.286365 1.210081 3.058464
v -0.265254 1.137133 3.095812
v -0.286955 1.179469 3.083464
v -0.216137 1.073078 3.098422
v -0.238204 1.096496 3.101525
v -0.215548 1.103690 3.073421
v -0.207484 1.075826 3.087687
v -0.264299 1.186664 3.055360
v -0.237249 1.146026 3.061073
v -0.265599 1.205055 3.098022
v -0.230486 1.136554 3.118001
v -0.194782 1.098664 3.112980
v -0.207830 1.143747 3.089897
v -0.251597 1.209501 3.080653
v -0.230700 1.178531 3.119367
v -0.238764 1.206394 3.105101
v -0.203650 1.137894 3.125080
v -0.194997 1.140641 3.114345
v -0.216698 1.182977 3.101998
vn -0.8648 -0.4594 0.2024
vn 0.3599 0.7606 -0.5403
vn 0.9831 -0.1644 -0.0803
vn 0.9882 0.1501 -0.0319
vn 0.9578 0.1855 0.2196
vn 0.9674 -0.1314 0.2166
vn 0.9638 -0.2108 0.1635
vn 0.5018 -0.8449 0.1852
vn 0.3733 -0.9097 -0.1822
vn 0.3455 -0.9266 0.1488
vn 0.1121 0.9638 -0.2418
vn 0.1791 0.9721 0.1516
vn 0.3541 0.6372 -0.6846
vn 0.2630 -0.4318 -0.8627
vn 0.3904 -0.8859 -0.2505
vn 0.6720 0.4475 0.5900
vn 0.3334 0.1104 -0.9363
vn 0.1835 -0.5226 -0.8326
vn 0.2984 0.1076 -0.9484
vn 0.3295 -0.8753 -0.3538
vn 0.7743 0.6325 0.0196
vn 0.9971 -0.0154 -0.0745
vn 0.1508 0.9803 0.1274
vn 0.9793 0.1737 0.1040
vn 0.3069 -0.2982 -0.9038
vn 0.0793 0.9966 -0.0215
vn -0.0166 0.9127 -0.4082
vn -0.7025 0.1441 -0.6970
vn 0.6112 0.1890 -0.7686
vn 0.1491 0.9600 0.2371
vn -0.9681 -0.2168 -0.1254
vn 0.9269 0.1661 -0.3364
vn 0.0084 0.7952 -0.6063
vn 0.8253 -0.2167 0.5215
vn -0.0677 -0.6888 0.7217
vn 0.4430 -0.8899 0.1088
vn 0.3945 -0.9000 -0.1855
vn 0.3866 -0.9174 0.0940
vn 0.3002 -0.6593 0.6894
vn 0.7025 0.5524 -0.4488
vn 0.3208 0.9232 -0.2117
vn 0.9304 -0.3393 0.1385
vn 0.2311 -0.9257 -0.2994
vn 0.2890 0.9479 0.1341
vn 0.2053 0.7387 0.6421
vn 0.0880 0.7958 -0.5992
vn 0.8739 0.1095 0.4737
vn 0.4700 -0.1964 0.8606
vn 0.8379 0.1208 -0.5323
vn 0.3978 -0.3980 -0.8267
vn 0.9857 0.1369 0.0980
vn 0.9745 0.0147 -0.2239
vn 0.1703 0.7645 0.6217
vn 0.4022 -0.8988 -0.1742
vn 0.9445 0.0914 0.3155
vn 0.2802 0.9509 0.1314
vn 0.2228 0.9746 -0.0228
vn 0.9789 0.1948 0.0613
vn 0.1817 0.8793 -0.4402
vn 0.0758 0.7692 0.6345
vn 0.1305 -0.8565 -0.4994
vn 0.9739 -0.2189 -0.0595
vn 0.2565 0.9334 0.2511
vn 0.1166 0.8222 0.5571
vn -0.0031 0.5971 0.8022
vn 0.2620 -0.9646 -0.0293
vn 0.8387 -0.3179 0.4422
vn 0.2122 -0.9457 -0.2461
vn 0.1716 -0.7729 0.6109
vn 0.1827 -0.9073 -0.3786
vn 0.9336 -0.1846 -0.3072
vn 0.1026 -0.9436 0.3148
vn 0.8717 -0.4790 0.1032
vn 0.3324 -0.9298 -0.1578
vn 0.1704 -0.9400 -0.2956
vn 0.3032 0.7019 0.6446
vn 0.3466 0.7185 0.6030
vn 0.7592 0.0325 0.6500
vn 0.4518 0.6196 0.6419
vn 0.1539 -0.8494 -0.5049
vn 0.1859 -0.9460 0.2655
vn 0.8837 -0.0452 0.4658
vn 0.3502 0.7863 0.5089
vn 0.3821 0.4784 0.7906
vn 0.1217 -0.9511 -0.2840
vn 0.4144 0.5231 0.7447
vn 0.1593 -0.9131 -0.3752
vn 0.5346 -0.0636 0.8427
vn 0.1479 -0.9312 -0.3331
vn 0.3937 -0.9001 0.1866
vn -0.3039 -0.4539 0.8376
vn -0.0092 0.6254 0.7803
vn 0.1791 -0.9112 -0.3710
vn 0.9705 -0.2408 -0.0126
vn 0.0310 -0.6063 0.7947
vn 0.0498 0.6861 0.7258
vn 0.6301 -0.0755 0.7728
vn 0.1441 -0.9253 -0.3508
vn -0.1346 -0.0306 0.9904
vn 0.4469 0.6597 0.6042
vn 0.3326 -0.1112 0.9365
vn 0.0463 -0.9963 -0.0731
vn 0.3308 -0.9376 0.1075
vn 0.7809 -0.3894 0.4885
vn 0.4028 0.4539 0.7948
vn 0.1485 -0.9197 -0.3636
vn 0.8472 0.0282 0.5305
vn -0.0169 0.5270 0.8497
vn 0.2233 -0.9165 -0.3320
vn 0.8796 -0.4016 0.2550
vn 0.9319 -0.0931 -0.3506
vn 0.9754 0.2178 0.0340
vn 0.9496 0.1736 -0.2610
vn 0.9592 0.2466 0.1384
vn 0.9971 0.0005 -0.0762
vn 0.9463 -0.0319 0.3217
vn 0.6474 0.1657 0.7439
vn 0.8584 0.4533 0.2402
vn -0.3378 -0.6671 0.6640
vn 0.2554 -0.0839 0.9632
vn 0.0060 0.2078 -0.9781
vn 0.8963 -0.3221 0.3048
vn -0.9860 0.0201 -0.1655
vn -0.9981 -0.0532 -0.0305
vn 0.9967 0.0699 -0.0403
vn 0.3183 -0.7612 0.5651
vn 0.9016 -0.3178 0.2934
vn -0.8252 -0.4842 0.2909
vn -0.0298 0.3125 -0.9494
vn -0.9559 -0.1806 -0.2315
vn 0.9111 -0.3847 0.1478
vn -0.9830 0.1823 -0.0217
vn -0.9995 0.0020 0.0303
vn 0.9938 0.0806 -0.0761
vn 0.2131 -0.9336 0.2880
vn 0.8413 0.5008 -0.2034
vn -0.8672 -0.4233 0.2621
vn -0.2303 -0.8091 0.5407
vn -0.4804 0.1948 -0.8551
vn 0.8831 0.2073 -0.4209
vn 0.0238 0.7756 -0.6308
vn 0.9970 0.0342 0.0698
vn -0.9852 0.1682 -0.0336
vn -0.9947 0.0227 0.1007
vn 0.9944 0.0896 -0.0565
vn 0.9827 -0.0626 0.1743
vn 0.0312 0.9063 -0.4215
vn -0.8036 -0.5641 0.1899
vn -0.1812 -0.9455 0.2707
vn -0.4861 0.8062 -0.3372
vn -0.0484 -0.6476 -0.7605
vn -0.0563 -0.7508 -0.6581
vn -0.0379 -0.7245 -0.6883
vn -0.0417 -0.6434 -0.7644
vn -0.0267 -0.7543 -0.6559
vn -0.0496 -0.7229 -0.6891
vn -0.9177 -0.1567 0.3651
vn -0.9719 0.0013 0.2353
vn -0.4505 0.7082 -0.5437
vn 0.8507 0.4002 -0.3408
vn 0.8578 0.4286 -0.2838
vn -0.4530 0.7379 -0.5002
vn -0.1513 -0.7574 0.6352
vn -0.8427 -0.3314 0.4244
vn 0.2082 -0.7313 0.6495
vn 0.9912 0.1314 -0.0146
vn -0.9915 0.0531 0.1191
vn -0.9804 0.1970 0.0083
vn 0.9830 -0.0312 0.1811
vn 0.0275 0.8028 -0.5957
vn 0.2479 -0.6134 0.7499
vn -0.1810 -0.6098 0.7716
vn 0.1768 0.2593 0.9495
vn -0.0691 -0.7240 -0.6863
vn -0.0857 0.2721 0.9584
vn -0.0139 -0.7269 -0.6866
vn 0.9864 0.1614 0.0313
vn 0.9608 -0.2225 -0.1656
vn 0.9856 -0.0359 0.1655
vn 0.9494 0.2365 -0.2066
vn 0.5649 -0.0848 0.8208
vn 0.4544 0.7538 -0.4746
vn 0.9839 -0.0532 0.1706
vn 0.3750 0.6233 -0.6862
vn -0.9741 -0.0734 0.2138
vn -0.3558 -0.2403 -0.9031
vn -0.3322 -0.0323 0.9427
vn 0.9875 -0.0139 0.1573
vn 0.2013 0.0644 -0.9774
vn -0.2554 -0.0735 -0.9640
vn -0.9226 -0.3399 -0.1824
vn -0.2604 -0.3165 0.9122
vn -0.2750 -0.0367 -0.9608
vn -0.9453 -0.0203 0.3255
vn 0.9994 0.0300 -0.0178
vn -0.9805 -0.0325 -0.1936
vn 0.5021 -0.0056 0.8648
vn 0.1857 -0.2197 -0.9577
vn 0.9771 -0.0512 -0.2063
vn -0.9816 -0.1240 -0.1449
vn 0.0029 -0.9999 -0.0124
vn 0.0436 -0.9987 -0.0277
vn 0.0356 -0.9976 -0.0588
vn 0.0022 -0.9990 -0.0452
vn -0.9982 -0.0288 0.0535
vn 0.9437 0.0591 0.3255
vn 0.1425 -0.0260 -0.9894
vn 0.9616 0.0179 -0.2740
vn 0.9598 0.1242 -0.2518
vn 0.1517 -0.0308 -0.9879
vn 0.3529 0.1716 0.9198
vn -0.9554 0.2496 0.1581
vn -0.9778 0.1200 -0.1721
vn 0.9623 0.2563 0.0906
vn -0.2447 0.1346 0.9602
vn -0.2931 -0.0129 -0.9560
vn -0.2596 0.0910 0.9614
vn 0.3801 0.1239 0.9166
vn -0.1917 0.7280 0.6583
vn 0.0486 -0.9988 -0.0036
vn 0.2405 0.7135 0.6581
vn 0.0093 -0.9999 0.0066
vn -0.3037 -0.3162 -0.8988
vn -0.3141 -0.2638 0.9120
vn 0.9849 -0.0591 0.1629
vn -0.9785 -0.1145 -0.1717
vn -0.9714 -0.0924 0.2186
vn 0.4702 -0.2452 0.8478
vn 0.1649 -0.3120 -0.9357
vn 0.9687 -0.0891 -0.2317
vn 0.3493 0.1454 -0.9257
vn 0.2898 -0.8412 -0.4564
vn 0.3507 0.3110 -0.8834
vn 0.2406 0.5465 -0.8021
vn 0.2336 -0.2345 -0.9436
vn 0.3568 0.0774 -0.9310
vn 0.9570 0.2830 0.0637
vn 0.9334 0.2848 0.2183
vn 0.9963 0.0822 -0.0260
vn 0.8966 0.3095 0.3166
vn -0.5832 0.7149 0.3858
vn 0.7659 0.6426 -0.0217
vn 0.8087 -0.5616 -0.1749
vn 0.5161 0.8135 0.2680
vn -0.2399 0.8202 0.5194
vn 0.9130 0.3743 -0.1623
vn 0.9427 -0.2038 -0.2643
vn 0.2565 0.3957 -0.8818
vn -0.0612 -0.3239 0.9441
vn 0.0307 -0.3497 0.9364
vn -0.0300 -0.3370 0.9410
vn 0.0069 -0.3709 0.9287
vn -0.0000 -0.3224 0.9466
vn 0.0383 -0.3818 0.9235
vn -0.0444 -0.3798 0.9240
vn 0.0456 -0.3181 0.9470
vn -0.0022 -0.3344 0.9424
vn 0.0083 -0.2962 0.9551
vn 0.1649 -0.6801 0.7144
vn -0.0309 -0.3071 0.9512
vn 0.2958 -0.6102 0.7350
vn -0.4093 0.0693 0.9098
vn -0.4125 -0.1611 0.8966
vn -0.1412 -0.6143 0.7763
vn 0.7279 0.1400 0.6712
vn -0.2077 -0.5646 0.7988
vn -0.5094 0.0275 0.8601
vn 0.0304 -0.6746 0.7376
vn 0.3193 0.7109 0.6266
vn 0.5296 -0.4328 0.7295
vn 0.5248 -0.4911 0.6953
vn -0.0292 -0.0251 0.9993
vn 0.0200 -0.7963 0.6046
vn -0.0339 0.8878 0.4590
vn 0.7525 -0.0510 0.6566
vn 0.8623 -0.5062 -0.0140
vn -0.3723 0.7843 -0.4963
vn -0.9874 -0.1383 -0.0773
vn -0.9914 0.1287 -0.0226
vn -0.9699 0.1401 0.1991
vn -0.9787 -0.1367 0.1530
vn -0.9776 -0.1550 0.1426
vn -0.1090 -0.9728 0.2046
vn -0.1503 -0.9432 -0.2964
vn -0.0702 -0.9959 0.0573
vn -0.1172 0.9633 -0.2417
vn -0.1808 0.9719 0.1505
vn -0.2537 0.7591 -0.5995
vn -0.2011 -0.1034 -0.9741
vn -0.0477 -0.9042 -0.4245
vn -0.6561 0.2736 0.7033
vn -0.1746 0.2366 -0.9558
vn -0.0416 -0.2056 -0.9777
vn -0.2308 0.3565 -0.9053
vn -0.2089 -0.8127 -0.5439
vn -0.8387 0.5444 0.0124
vn -0.9968 -0.0580 -0.0551
vn -0.1532 0.9798 0.1286
vn -0.9845 0.1462 0.0971
vn -0.3413 -0.6023 -0.7216
vn -0.1089 0.9938 -0.0232
vn -0.0037 0.9165 -0.4001
vn 0.6369 -0.4742 -0.6079
vn -0.6667 0.1241 -0.7349
vn -0.1633 0.9595 0.2296
vn 0.9693 -0.2429 0.0371
vn -0.9337 -0.1052 -0.3423
vn -0.0106 0.8047 -0.5935
vn -0.2844 0.2145 0.9344
vn 0.4181 -0.3084 0.8544
vn -0.0107 -0.9859 0.1668
vn 0.0656 -0.9679 -0.2425
vn 0.0741 -0.9953 0.0620
vn -0.0671 0.0653 0.9956
vn -0.7702 0.4829 -0.4166
vn -0.3610 0.9090 -0.2084
vn -0.9450 -0.3179 0.0767
vn -0.2998 -0.8193 -0.4888
vn -0.3201 0.9380 0.1330
vn -0.2078 0.7388 0.6411
vn -0.0515 0.8057 -0.5901
vn -0.8439 0.1449 0.5166
vn -0.4756 -0.5397 0.6946
vn -0.8069 0.1354 -0.5750
vn -0.1101 -0.2797 -0.9538
vn -0.9853 0.1378 0.1007
vn -0.9733 0.1079 -0.2024
vn -0.1709 0.7646 0.6214
vn -0.3932 -0.9195 -0.0045
vn -0.9402 0.1076 0.3232
vn -0.3090 0.9418 0.1327
vn -0.2943 0.9555 -0.0211
vn -0.9789 0.1948 0.0613
vn -0.2308 0.8796 -0.4160
vn -0.0758 0.7692 0.6345
vn -0.1305 -0.8565 -0.4994
vn -0.9751 -0.2123 -0.0636
vn -0.3260 0.9157 0.2349
vn -0.1166 0.8222 0.5571
vn 0.0031 0.5971 0.8022
vn -0.3655 -0.9231 0.1196
vn -0.8387 -0.3179 0.4422
vn -0.2122 -0.9457 -0.2461
vn -0.0860 -0.6935 0.7153
vn -0.1827 -0.9073 -0.3786
vn -0.9336 -0.1846 -0.3072
vn -0.1197 -0.9079 0.4018
vn -0.8717 -0.4790 0.1032
vn -0.3324 -0.9298 -0.1578
vn -0.2997 -0.8880 -0.3489
vn -0.3422 0.6959 0.6313
vn -0.3588 0.7185 0.5958
vn -0.7592 0.0325 0.6500
vn -0.4518 0.6196 0.6419
vn -0.1539 -0.8494 -0.5049
vn -0.1859 -0.9460 0.2655
vn -0.8837 -0.0452 0.4658
vn -0.3502 0.7863 0.5089
vn -0.3821 0.4784 0.7906
vn -0.1217 -0.9511 -0.2840
vn -0.4144 0.5231 0.7447
vn -0.1593 -0.9131 -0.3752
vn -0.5346 -0.0636 0.8427
vn -0.1479 -0.9312 -0.3331
vn -0.3937 -0.9001 0.1866
vn 0.3038 -0.4538 0.8377
vn 0.0092 0.6254 0.7803
vn -0.1791 -0.9112 -0.3710
vn -0.9705 -0.2408 -0.0126
vn -0.0310 -0.6063 0.7947
vn -0.0497 0.6861 0.7258
vn -0.6301 -0.0755 0.7728
vn -0.1441 -0.9253 -0.3508
vn 0.1346 -0.0306 0.9904
vn -0.4469 0.6598 0.6042
vn -0.3326 -0.1112 0.9365
vn -0.0463 -0.9963 -0.0731
vn -0.3308 -0.9376 0.1075
vn -0.7809 -0.3894 0.4885
vn -0.4028 0.4539 0.7948
vn -0.1485 -0.9197 -0.3636
vn -0.8472 0.0282 0.5305
vn 0.0169 0.5270 0.8497
vn -0.2233 -0.9165 -0.3320
vn -0.8796 -0.4016 0.2550
vn -0.9510 -0.2090 -0.2277
vn -0.9828 0.1846 -0.0081
vn -0.9716 0.1191 -0.2046
vn -0.9492 0.2774 0.1484
vn -0.9975 -0.0178 -0.0687
vn -0.9374 0.1683 0.3048
vn -0.7680 0.2909 0.5705
vn -0.9049 0.3559 0.2332
vn 0.6968 0.1320 0.7050
vn 0.0226 0.4000 0.9162
vn -0.0365 -0.5255 -0.8500
vn -0.9003 0.0214 0.4348
vn 0.9849 -0.1263 -0.1183
vn 0.9968 -0.0753 0.0270
vn -0.9959 0.0323 -0.0845
vn -0.2931 -0.0912 0.9517
vn -0.8902 -0.0375 0.4540
vn 0.8742 0.0751 0.4798
vn -0.1756 -0.4801 -0.8594
vn 0.9533 -0.2912 -0.0802
vn -0.9206 -0.0413 0.3883
vn 0.9864 0.0401 -0.1594
vn 0.9998 -0.0056 0.0173
vn -0.9939 0.0094 -0.1096
vn -0.2542 -0.2286 0.9397
vn -0.8398 0.1174 -0.5301
vn 0.8493 -0.0303 0.5270
vn 0.3320 -0.0579 0.9415
vn 0.4797 -0.4791 -0.7351
vn -0.8864 -0.1478 -0.4386
vn -0.0269 -0.0301 -0.9992
vn -0.9944 0.0997 0.0351
vn 0.9866 0.0447 -0.1569
vn 0.9975 0.0568 0.0426
vn -0.9939 0.0459 -0.1006
vn -0.9772 0.1084 0.1823
vn -0.0260 0.1111 -0.9935
vn 0.8156 -0.1546 0.5576
vn 0.2000 -0.2701 0.9418
vn 0.4954 0.1078 -0.8620
vn 0.0113 -0.9998 0.0146
vn -0.0067 -1.0000 0.0050
vn 0.0128 -0.9993 0.0341
vn 0.0078 -0.9999 0.0116
vn 0.0240 -0.9997 -0.0031
vn 0.0039 -0.9994 0.0346
vn 0.9196 0.1352 0.3689
vn 0.9792 0.1290 0.1565
vn 0.4489 -0.0147 -0.8935
vn -0.8519 0.0065 -0.5237
vn -0.8580 0.0233 -0.5132
vn 0.4567 -0.0320 -0.8890
vn 0.2044 0.2319 0.9510
vn 0.8571 0.1638 0.4883
vn -0.2434 0.2565 0.9354
vn -0.9895 0.0916 -0.1121
vn 0.9951 0.0957 0.0250
vn 0.9842 0.0831 -0.1564
vn -0.9775 0.1656 0.1309
vn -0.0262 -0.0639 -0.9976
vn -0.2303 0.0508 0.9718
vn 0.1952 0.0540 0.9793
vn -0.1272 0.8195 0.5588
vn -0.0022 -0.9990 -0.0448
vn 0.0919 0.8266 0.5552
vn 0.0217 -0.9986 -0.0472
vn -0.9870 0.1389 0.0810
vn -0.9539 -0.1593 -0.2542
vn -0.9852 -0.0982 0.1404
vn -0.9486 0.2906 -0.1255
vn -0.5880 -0.3840 0.7119
vn -0.5233 0.7855 -0.3303
vn -0.9842 -0.1217 0.1283
vn -0.3316 0.7906 -0.5147
vn 0.9680 -0.2141 0.1313
vn 0.3068 0.1365 -0.9419
vn 0.2849 -0.6852 0.6703
vn -0.9845 -0.1242 0.1237
vn -0.1468 0.4898 -0.8594
vn 0.4025 0.3822 -0.8318
vn 0.9344 -0.1974 -0.2964
vn 0.1424 -0.7207 0.6785
vn 0.2771 0.8664 -0.4155
vn 0.9446 -0.3099 0.1078
vn -0.9992 0.0316 0.0225
vn 0.9809 0.1615 -0.1087
vn -0.4609 -0.6122 0.6424
vn -0.1469 0.1555 -0.9769
vn -0.9670 0.0819 -0.2411
vn 0.9740 -0.0179 -0.2258
vn -0.0065 -0.3818 -0.9242
vn -0.0464 -0.3674 -0.9289
vn -0.0387 -0.3403 -0.9395
vn -0.0054 -0.3534 -0.9355
vn 0.9979 -0.0639 -0.0073
vn -0.9443 -0.2723 0.1847
vn -0.1403 0.8984 -0.4162
vn -0.9609 0.2619 -0.0903
vn -0.9555 0.2943 0.0189
vn -0.1442 0.9198 -0.3650
vn -0.3579 -0.7763 0.5188
vn 0.9568 -0.0499 0.2864
vn 0.9770 0.2090 0.0419
vn -0.9621 0.0227 0.2717
vn 0.2432 -0.8322 0.4983
vn 0.2870 0.8957 -0.3397
vn 0.2576 -0.8491 0.4612
vn -0.3817 -0.7928 0.4751
vn 0.1925 -0.3195 0.9278
vn -0.0512 -0.3891 -0.9198
vn -0.2400 -0.3237 0.9152
vn -0.0134 -0.3990 -0.9168
vn 0.3040 0.7167 -0.6277
vn 0.3059 -0.9379 0.1638
vn -0.9848 -0.1732 0.0167
vn 0.9780 0.1084 -0.1784
vn 0.9692 -0.2462 0.0054
vn -0.4671 -0.8703 0.1560
vn -0.1587 0.7561 -0.6349
vn -0.9654 0.1949 -0.1732
vn -0.3343 0.1515 -0.9302
vn -0.3310 -0.8534 -0.4025
vn -0.3507 0.3110 -0.8834
vn -0.2198 0.5181 -0.8266
vn -0.1742 -0.2029 -0.9636
vn -0.2742 0.1191 -0.9543
vn -0.9570 0.2830 0.0637
vn -0.9334 0.2848 0.2183
vn -0.9963 0.0822 -0.0260
vn -0.8966 0.3095 0.3167
vn 0.5835 0.7147 0.3856
vn -0.7659 0.6426 -0.0216
vn -0.8088 -0.5615 -0.1749
vn -0.5161 0.8135 0.2680
vn 0.2401 0.8201 0.5194
vn -0.9131 0.3742 -0.1623
vn -0.9427 -0.2038 -0.2643
vn -0.2564 0.3957 -0.8819
vn 0.0613 -0.3239 0.9441
vn -0.0307 -0.3495 0.9364
vn 0.0300 -0.3369 0.9411
vn -0.0069 -0.3707 0.9287
vn -0.0000 -0.3223 0.9467
vn -0.0383 -0.3816 0.9235
vn 0.0443 -0.3797 0.9241
vn -0.0456 -0.3181 0.9470
vn 0.0023 -0.3343 0.9424
vn -0.0083 -0.2962 0.9551
vn -0.1652 -0.6800 0.7144
vn 0.0309 -0.3071 0.9512
vn -0.2958 -0.6102 0.7350
vn 0.4094 0.0693 0.9097
vn 0.4126 -0.1610 0.8966
vn 0.1411 -0.6141 0.7765
vn -0.7279 0.1400 0.6712
vn 0.2075 -0.5645 0.7989
vn 0.5095 0.0275 0.8600
vn -0.0304 -0.6745 0.7377
vn -0.3193 0.7109 0.6266
vn -0.5296 -0.4328 0.7295
vn -0.5248 -0.4911 0.6953
vn 0.0292 -0.0251 0.9993
vn -0.0200 -0.7963 0.6046
vn 0.0339 0.8878 0.4590
vn -0.7525 -0.0510 0.6566
vn 0.8961 -0.4374 0.0751
vn 0.9975 -0.0074 0.0703
vn 0.7307 -0.6751 -0.1014
vn 0.1099 -0.4780 -0.8715
vn 0.0413 -0.1660 -0.9853
vn 0.9363 0.2640 0.2318
vn 0.6878 -0.2472 0.6825
vn 0.3444 -0.7822 0.5192
vn -0.6069 -0.0554 -0.7929
vn -0.4208 0.2745 -0.8646
vn 0.7919 0.0807 0.6053
vn 0.5964 -0.2919 0.7477
vn -0.3952 -0.9147 0.0844
vn -0.6285 0.0971 -0.7717
vn -0.3576 0.4457 -0.8206
vn 0.4470 0.1246 0.8858
vn 0.2431 -0.1727 0.9545
vn -0.9975 0.0074 -0.0703
vn -0.7601 0.3422 -0.5524
vn -0.4475 0.8859 -0.1224
vn -0.7307 0.6751 0.1014
vn -0.6821 0.6788 -0.2718
vn -0.6942 0.4870 -0.5300
vn -0.8961 0.4374 -0.0751
vn -0.8552 0.3193 -0.4083
vn -0.8798 0.1838 -0.4384
vn -0.7220 0.2486 0.6457
vn -0.7805 -0.0163 0.6250
vn -0.1738 -0.2542 0.9514
vn -0.0413 0.1660 0.9853
vn 0.2534 -0.0327 0.9668
vn 0.4174 -0.0317 0.9082
vn -0.1099 0.4780 0.8715
vn 0.2535 0.3817 0.8888
vn 0.2197 0.6740 0.7053
vn -0.3444 0.7822 -0.5192
vn -0.4625 0.5300 -0.7108
vn -0.5848 0.4338 -0.6854
vn -0.6878 0.2472 -0.6825
vn -0.6976 0.1535 -0.6999
vn -0.7767 0.1057 -0.6209
vn -0.9363 -0.2640 -0.2318
vn -0.6272 -0.7081 0.3244
vn -0.0725 -0.5382 0.8397
vn 0.4208 -0.2745 0.8646
vn 0.5257 -0.2350 0.8176
vn 0.5343 -0.1409 0.8335
vn 0.6069 0.0554 0.7928
vn 0.6835 0.1661 0.7108
vn 0.5927 0.4846 0.6433
vn -0.5964 0.2918 -0.7477
vn -0.5257 0.2350 -0.8176
vn -0.5343 0.1409 -0.8335
vn -0.7919 -0.0807 -0.6053
vn -0.6835 -0.1661 -0.7108
vn -0.5927 -0.4846 -0.6433
vn 0.3576 -0.4457 0.8207
vn 0.4625 -0.5300 0.7108
vn 0.5848 -0.4338 0.6854
vn 0.6285 -0.0971 0.7717
vn 0.6976 -0.1535 0.6999
vn 0.7767 -0.1057 0.6209
vn 0.3952 0.9147 -0.0845
vn 0.6272 0.7081 -0.3244
vn 0.0725 0.5383 -0.8397
vn -0.2432 0.1727 -0.9545
vn -0.2534 0.0327 -0.9668
vn -0.4174 0.0317 -0.9082
vn -0.4471 -0.1246 -0.8858
vn -0.2535 -0.3817 -0.8888
vn -0.2197 -0.6740 -0.7053
vn 0.4475 -0.8859 0.1224
vn 0.6822 -0.6788 0.2718
vn 0.6942 -0.4870 0.5299
vn 0.1738 0.2542 -0.9514
vn 0.7805 0.0163 -0.6250
vn 0.7220 -0.2485 -0.6457
vn 0.7601 -0.3422 0.5524
vn 0.8552 -0.3193 0.4083
vn 0.8798 -0.1838 0.4384
vn -0.8961 -0.4374 0.0751
vn -0.9975 -0.0074 0.0703
vn -0.7307 -0.6751 -0.1014
vn -0.1099 -0.4780 -0.8715
vn -0.0413 -0.1660 -0.9853
vn -0.9363 0.2640 0.2318
vn -0.6878 -0.2472 0.6825
vn -0.3444 -0.7822 0.5192
vn 0.6069 -0.0554 -0.7928
vn 0.4208 0.2745 -0.8646
vn -0.7919 0.0807 0.6053
vn -0.5964 -0.2919 0.7478
vn 0.3952 -0.9147 0.0844
vn 0.6285 0.0971 -0.7717
vn 0.3576 0.4457 -0.8206
vn -0.4471 0.1246 0.8858
vn -0.2432 -0.1727 0.9545
vn 0.9975 0.0074 -0.0703
vn 0.7601 0.3422 -0.5524
vn 0.4475 0.8859 -0.1224
vn 0.7307 0.6751 0.1014
vn 0.6822 0.6788 -0.2718
vn 0.6942 0.4870 -0.5299
vn 0.8961 0.4374 -0.0751
vn 0.8552 0.3193 -0.4083
vn 0.8798 0.1838 -0.4384
vn 0.7220 0.2486 0.6457
vn 0.7805 -0.0164 0.6250
vn 0.1738 -0.2542 0.9514
vn 0.0413 0.1660 0.9853
vn -0.2534 -0.0328 0.9668
vn -0.4174 -0.0317 0.9082
vn 0.1099 0.4780 0.8714
vn -0.2535 0.3817 0.8888
vn -0.2197 0.6740 0.7053
vn 0.3444 0.7822 -0.5192
vn 0.4625 0.5300 -0.7108
vn 0.5848 0.4338 -0.6854
vn 0.6878 0.2472 -0.6825
vn 0.6976 0.1534 -0.6999
vn 0.7767 0.1057 -0.6209
vn 0.9363 -0.2640 -0.2318
vn 0.6272 -0.7081 0.3244
vn 0.0725 -0.5382 0.8397
vn -0.4208 -0.2745 0.8646
vn -0.5257 -0.2350 0.8176
vn -0.5343 -0.1409 0.8335
vn -0.6069 0.0554 0.7928
vn -0.6835 0.1661 0.7108
vn -0.5927 0.4846 0.6433
vn 0.5964 0.2919 -0.7478
vn 0.5257 0.2350 -0.8176
vn 0.5343 0.1409 -0.8335
vn 0.7919 -0.0807 -0.6053
vn 0.6835 -0.1661 -0.7108
vn 0.5927 -0.4846 -0.6433
vn -0.3576 -0.4457 0.8206
vn -0.4625 -0.5300 0.7108
vn -0.5848 -0.4338 0.6854
vn -0.6285 -0.0971 0.7717
vn -0.6976 -0.1535 0.6999
vn -0.7767 -0.1057 0.6209
vn -0.3952 0.9147 -0.0844
vn -0.6272 0.7081 -0.3244
vn -0.0725 0.5382 -0.8397
vn 0.2432 0.1727 -0.9545
vn 0.2534 0.0327 -0.9668
vn 0.4174 0.0317 -0.9082
vn 0.4471 -0.1246 -0.8858
vn 0.2535 -0.3817 -0.8888
vn 0.2197 -0.6740 -0.7053
vn -0.4475 -0.8859 0.1224
vn -0.6822 -0.6788 0.2718
vn -0.6942 -0.4870 0.5299
vn -0.1739 0.2542 -0.9514
vn -0.7805 0.0164 -0.6250
vn -0.7220 -0.2485 -0.6457
vn -0.7601 -0.3422 0.5524
vn -0.8552 -0.3193 0.4083
vn -0.8798 -0.1838 0.4384
vt 0.833374 0.494548
vt 0.893919 0.512741
vt 0.908415 0.468160
vt 0.848637 0.467455
vt 0.567859 0.867914
vt 0.639317 0.828812
vt 0.620915 0.894044
vt 0.556155 0.927906
vt 0.812683 0.509803
vt 0.774909 0.642712
vt 0.751394 0.643294
vt 0.751725 0.493743
vt 0.828812 0.793372
vt 0.751727 0.811870
vt 0.672932 0.807420
vt 0.672336 0.642732
vt 0.672998 0.503429
vt 0.598676 0.643182
vt 0.594201 0.530171
vt 0.560191 0.672195
vt 0.619753 0.672998
vt 0.599703 0.594201
vt 0.569702 0.558226
vt 0.580250 0.833374
vt 0.635423 0.812683
vt 0.637090 0.751725
vt 0.569078 0.759035
vt 0.500000 0.859251
vt 0.500000 0.750726
vt 0.569078 0.758996
vt 0.500000 0.657595
vt 0.560191 0.671923
vt 0.604420 0.951058
vt 0.545714 0.976119
vt 0.604420 0.548422
vt 0.626365 0.643481
vt 0.688416 0.643970
vt 0.666902 0.547256
vt 0.500000 0.917421
vt 0.563590 0.893919
vt 0.639317 0.793372
vt 0.659328 0.642712
vt 0.676970 0.643370
vt 0.671449 0.761101
vt 0.555994 0.632181
vt 0.545714 0.747180
vt 0.604420 0.735145
vt 0.572975 0.538591
vt 0.666902 0.715601
vt 0.500000 0.969030
vt 0.572975 0.947229
vt 0.501290 0.830086
vt 0.457158 0.830118
vt 0.460328 0.806630
vt 0.500288 0.803578
vt 0.499838 0.512886
vt 0.460007 0.507514
vt 0.481582 0.413128
vt 0.510774 0.417065
vt 0.500000 0.559830
vt 0.556447 0.575135
vt 0.579931 0.796381
vt 0.599703 0.530171
vt 0.637090 0.643182
vt 0.659115 0.643738
vt 0.643940 0.535244
vt 0.564556 0.492909
vt 0.500000 0.477524
vt 0.500000 0.432743
vt 0.566016 0.447361
vt 0.569702 0.518348
vt 0.616981 0.429733
vt 0.594994 0.421068
vt 0.612448 0.796381
vt 0.637526 0.771615
vt 0.500000 0.371229
vt 0.561082 0.382998
vt 0.450625 0.491920
vt 0.495971 0.498202
vt 0.507939 0.406303
vt 0.474705 0.401699
vt 0.591615 0.535244
vt 0.575831 0.433451
vt 0.407144 0.499901
vt 0.406490 0.640437
vt 0.358675 0.605643
vt 0.363238 0.556600
vt 0.578790 0.420824
vt 0.621227 0.407144
vt 0.601979 0.363238
vt 0.551080 0.357545
vt 0.500000 0.657756
vt 0.500000 0.571782
vt 0.667216 0.508652
vt 0.621227 0.499901
vt 0.632756 0.407548
vt 0.666461 0.413961
vt 0.556577 0.771615
vt 0.637090 0.751727
vt 0.260484 0.580516
vt 0.278839 0.520364
vt 0.582070 0.278839
vt 0.540875 0.268345
vt 0.619753 0.672932
vt 0.500000 0.307117
vt 0.551080 0.314473
vt 0.500000 0.983839
vt 0.393435 0.816867
vt 0.325561 0.763148
vt 0.671449 0.517077
vt 0.635423 0.509803
vt 0.642381 0.470278
vt 0.671266 0.470798
vt 0.988807 0.740196
vt 1.002924 0.661469
vt 1.015365 0.669173
vt 1.001496 0.721513
vt 0.500000 0.531683
vt 0.500000 0.631036
vt 0.249130 0.712570
vt 0.191059 0.679456
vt 0.198981 0.567653
vt 0.945839 0.547256
vt 0.886123 0.529161
vt 0.904522 0.470747
vt 0.963512 0.471464
vt 0.500000 0.238897
vt 0.540875 0.239236
vt 0.564556 0.495971
vt 0.612448 0.579931
vt 0.628268 0.501290
vt 0.631115 0.457158
vt 0.168698 0.648799
vt 0.177283 0.553376
vt 0.539817 0.181283
vt 0.500000 0.184290
vt 0.500000 0.144817
vt 0.539817 0.140934
vt 0.580006 0.205473
vt 0.539817 0.196322
vt 0.205473 0.476864
vt 0.621491 0.393435
vt 0.538703 0.608225
vt 0.500000 0.615960
vt 0.500000 0.567098
vt 0.526605 0.560962
vt 0.566016 0.450625
vt 0.149293 0.452102
vt 0.133162 0.541160
vt 0.103583 0.505809
vt 0.123733 0.441345
vt 0.539531 0.141037
vt 0.579447 0.149293
vt 0.562090 0.123733
vt 0.530633 0.116366
vt 0.500000 0.385014
vt 0.500000 0.353218
vt 0.586057 0.174337
vt 0.542919 0.165879
vt 0.174337 0.464471
vt 0.086614 0.427976
vt 0.065909 0.448336
vt 0.053210 0.428901
vt 0.071388 0.423606
vt 0.515797 0.085531
vt 0.531484 0.086614
vt 0.523242 0.071388
vt 0.510720 0.071544
vt 0.500000 0.266808
vt 0.601979 0.325561
vt 0.582070 0.249130
vt 0.108290 0.599988
vt 0.073849 0.556649
vt 0.580006 0.679456
vt 0.539817 0.690304
vt 0.539817 0.657159
vt 0.579599 0.648799
vt 0.500000 0.199929
vt 0.513331 0.045311
vt 0.500000 0.046647
vt 0.500000 0.069896
vt 0.051602 0.475706
vt 0.038205 0.462176
vt 0.038356 0.442272
vt 0.580006 0.191059
vt 0.577833 0.599988
vt 0.554232 0.556649
vt 0.500000 0.147087
vt 0.500000 0.124516
vt 0.530339 0.475706
vt 0.515210 0.477146
vt 0.513246 0.460736
vt 0.522445 0.462176
vt 0.500000 0.170521
vt 0.515546 0.457928
vt 0.507613 0.457080
vt 0.506877 0.445401
vt 0.514439 0.446199
vt 0.500000 0.089031
vt 0.528336 0.053210
vt 0.620841 0.601238
vt 0.618568 0.607555
vt 0.613078 0.604170
vt 0.614718 0.599612
vt 0.500000 0.479371
vt 0.500000 0.460095
vt 0.513331 0.424258
vt 0.512541 0.440917
vt 0.500000 0.440864
vt 0.500000 0.422187
vt 0.500000 0.664242
vt 0.576432 0.505809
vt 0.539481 0.507406
vt 0.547321 0.467354
vt 0.500000 0.513551
vt 0.519044 0.508271
vt 0.579599 0.168698
vt 0.538703 0.096221
vt 0.577833 0.108290
vt 0.520322 0.097153
vt 0.500000 0.106427
vt 0.541975 0.104341
vt 0.078394 0.467354
vt 0.104341 0.437145
vt 0.073220 0.507406
vt 0.590300 0.643738
vt 0.499630 0.641384
vt 0.459655 0.640419
vt 0.417546 0.774144
vt 0.414448 0.641253
vt 0.423095 0.508652
vt 0.621491 0.816867
vt 0.648114 0.640437
vt 0.669097 0.641253
vt 0.644267 0.774144
vt 0.578790 0.496630
vt 0.601625 0.405151
vt 0.649402 0.433451
vt 0.651726 0.367843
vt 0.620780 0.366797
vt 0.454529 0.413961
vt 0.467814 0.368189
vt 0.488225 0.366596
vt 0.561691 0.421068
vt 0.537425 0.365401
vt 0.507200 0.363509
vt 0.481273 0.364028
vt 0.510983 0.366114
vt 0.635806 0.367147
vt 0.669092 0.368189
vt 0.420824 0.496630
vt 0.452865 0.405151
vt 0.558226 0.518348
vt 0.484328 0.324872
vt 0.502799 0.322553
vt 0.547406 0.321655
vt 0.519920 0.320969
vt 0.496410 0.322232
vt 0.523434 0.321439
vt 0.639292 0.324944
vt 0.675657 0.324872
vt 0.550036 0.367843
vt 0.558926 0.322330
vt 0.465216 0.366023
vt 0.604868 0.366023
vt 0.599660 0.365401
vt 0.621651 0.293283
vt 0.658462 0.293469
vt 0.659368 0.261742
vt 0.621257 0.261665
vt 0.501495 0.293600
vt 0.482345 0.307625
vt 0.480362 0.262732
vt 0.500191 0.261781
vt 0.519246 0.292376
vt 0.547742 0.292993
vt 0.548078 0.261464
vt 0.518571 0.260916
vt 0.494871 0.293528
vt 0.493332 0.261956
vt 0.522889 0.292587
vt 0.522344 0.260869
vt 0.451756 0.288897
vt 0.449773 0.262732
vt 0.656778 0.322330
vt 0.622394 0.322035
vt 0.481902 0.324350
vt 0.605664 0.324350
vt 0.599057 0.321655
vt 0.595403 0.548078
vt 0.621257 0.561263
vt 0.645824 0.523009
vt 0.590945 0.518571
vt 0.639859 0.470735
vt 0.648324 0.498544
vt 0.685407 0.500191
vt 0.686261 0.480362
vt 0.592251 0.493332
vt 0.659368 0.560446
vt 0.683143 0.522344
vt 0.596433 0.477757
vt 0.479829 0.307317
vt 0.477757 0.262636
vt 0.447168 0.262636
vt 0.449241 0.288588
vt 0.596679 0.292993
vt 0.595403 0.261464
vt 0.559686 0.293469
vt 0.560446 0.261742
vt 0.603589 0.307317
vt 0.640355 0.307779
vt 0.679739 0.307625
vt 0.677932 0.288897
vt 0.639680 0.289050
vt 0.639859 0.262967
vt 0.679465 0.262732
vt 0.604354 0.288588
vt 0.603287 0.262636
vt 0.679739 0.482345
vt 0.640355 0.473048
vt 0.639680 0.442459
vt 0.677932 0.451756
vt 0.679465 0.449773
vt 0.639859 0.440146
vt 0.603589 0.479829
vt 0.604354 0.449241
vt 0.603287 0.447168
vt 0.841501 0.761101
vt 0.796910 0.643370
vt 0.906455 0.644155
vt 0.894416 0.742499
vt 0.957194 0.643970
vt 0.829265 0.517077
vt 0.940741 0.715601
vt 0.671449 0.841501
vt 0.669190 0.894416
vt 0.849398 0.470798
vt 0.666902 0.940741
vt 0.909364 0.402088
vt 0.855378 0.389954
vt 0.592313 0.470184
vt 0.617524 0.471308
vt 0.621192 0.417417
vt 0.598226 0.414426
vt 0.598146 0.467455
vt 0.603540 0.389954
vt 0.643835 0.389418
vt 0.855424 0.393127
vt 0.905341 0.403681
vt 0.667620 0.471464
vt 0.947229 0.538591
vt 0.963044 0.470184
vt 0.580250 0.494548
vt 0.595712 0.312254
vt 0.621272 0.312916
vt 0.622837 0.264476
vt 0.597277 0.263453
vt 0.852894 0.313492
vt 0.849695 0.260671
vt 0.818572 0.260902
vt 0.821566 0.286829
vt 0.893654 0.314609
vt 0.853541 0.316407
vt 0.850246 0.263617
vt 0.890422 0.263754
vt 0.896415 0.312211
vt 0.936226 0.312254
vt 0.933075 0.263453
vt 0.893263 0.261490
vt 0.670148 0.393127
vt 0.666826 0.415674
vt 0.958612 0.415674
vt 0.958434 0.414426
vt 0.649700 0.837975
vt 0.635627 0.887710
vt 0.686058 0.890422
vt 0.687133 0.850246
vt 0.592375 0.849695
vt 0.589648 0.893263
vt 0.597277 0.933075
vt 0.622837 0.940554
vt 0.673628 0.933416
vt 0.822213 0.289744
vt 0.819123 0.263848
vt 0.672063 0.313364
vt 0.673628 0.264581
vt 0.936602 0.313364
vt 0.933416 0.264581
vt 0.941647 0.364922
vt 0.899640 0.363406
vt 0.623001 0.364960
vt 0.665562 0.364922
vt 0.668659 0.362549
vt 0.644119 0.361871
vt 0.647700 0.316485
vt 0.685132 0.316407
vt 0.859879 0.359936
vt 0.902447 0.361457
vt 0.941330 0.363919
vt 0.860378 0.362549
vt 0.606538 0.359936
vt 0.590374 0.313492
vt 0.601582 0.363919
vt 0.646474 0.289822
vt 0.601626 0.286829
vt 0.603191 0.260902
vt 0.648039 0.263334
vt 0.675760 0.289744
vt 0.677325 0.263848
vt 0.647700 0.841274
vt 0.590374 0.852894
vt 0.601626 0.821566
vt 0.646474 0.809945
vt 0.648039 0.806852
vt 0.603191 0.818572
vt 0.685132 0.853541
vt 0.675760 0.822213
vt 0.677325 0.819123
vt 0.500000 0.668378
vt 0.500000 0.724779
vt 0.517225 0.721513
vt 0.520785 0.669173
vt 0.528698 1.002924
vt 0.500000 1.014901
vt 0.500000 1.025182
vt 0.520785 1.015365
vt 0.500000 0.744181
vt 0.519989 0.740196
vt 0.519989 0.988807
vt 0.500000 0.995348
vt 0.500000 0.660499
vt 0.528698 0.661469
vt 0.154177 0.616909
vt 0.166410 0.570048
vt 0.135838 0.608740
vt 0.149154 0.567675
vt 0.147623 0.572395
vt 0.137518 0.603560
vt 0.583783 0.154177
vt 0.583848 0.135838
vt 0.600568 0.131366
vt 0.597073 0.144428
vt 0.144166 0.612314
vt 0.141084 0.620214
vt 0.132632 0.614576
vt 0.134671 0.609983
vt 0.153028 0.593819
vt 0.141399 0.592146
vt 0.619182 0.132632
vt 0.614588 0.141084
vt 0.606252 0.140479
vt 0.610351 0.130579
vt 0.138199 0.601250
vt 0.148213 0.603179
vt 0.602487 0.570048
vt 0.583783 0.616909
vt 0.597073 0.624463
vt 0.606252 0.625520
vt 0.614588 0.620214
vt 0.620822 0.612314
vt 0.623703 0.603179
vt 0.620639 0.593819
vt 0.604695 0.577238
vt 0.601269 0.572395
vt 0.603531 0.567675
vt 0.609313 0.614171
vt 0.615687 0.610750
vt 0.619182 0.614576
vt 0.610351 0.619358
vt 0.602434 0.613212
vt 0.600568 0.617961
vt 0.626402 0.601250
vt 0.623276 0.609983
vt 0.618527 0.594500
vt 0.623272 0.592146
vt 0.590602 0.606787
vt 0.583848 0.608740
vt 0.592903 0.603615
vt 0.603070 0.582298
vt 0.613048 0.594751
vt 0.610999 0.606475
vt 0.606401 0.608943
vt 0.601438 0.608251
vt 0.586331 0.603560
vt 0.600598 0.578805
vt 0.589822 0.601288
vt 0.148133 0.578805
vt 0.140843 0.601288
vt 0.522445 0.038205
vt 0.513246 0.032036
vt 0.507613 0.025182
vt 0.515546 0.030102
vt 0.521458 0.442272
vt 0.528336 0.428901
vt 0.500000 0.456702
vt 0.500000 0.445370
vt 0.500000 0.031689
vt 0.512541 0.032373
vt 0.506877 0.025742
vt 0.500000 0.025886
vt 0.500000 0.031337
vt 0.500000 0.025479
vt 0.030102 0.457928
vt 0.030515 0.446199
vt 0.432141 0.867914
vt 0.443845 0.927906
vt 0.379085 0.894044
vt 0.360683 0.828812
vt 0.439809 0.672195
vt 0.430298 0.558226
vt 0.400297 0.594201
vt 0.380247 0.672998
vt 0.419750 0.833374
vt 0.430922 0.759035
vt 0.362910 0.751725
vt 0.364577 0.812683
vt 0.430922 0.758996
vt 0.439809 0.671923
vt 0.454286 0.976119
vt 0.395580 0.951058
vt 0.395580 0.548422
vt 0.333098 0.547256
vt 0.311584 0.643970
vt 0.373635 0.643481
vt 0.436410 0.893919
vt 0.360683 0.793372
vt 0.328551 0.761101
vt 0.323030 0.643370
vt 0.340672 0.642712
vt 0.444006 0.632181
vt 0.395580 0.735145
vt 0.454286 0.747180
vt 0.427025 0.538591
vt 0.333098 0.715601
vt 0.427025 0.947229
vt 0.443553 0.575135
vt 0.400297 0.530171
vt 0.356060 0.535244
vt 0.340885 0.643738
vt 0.362910 0.643182
vt 0.435444 0.492909
vt 0.433984 0.447361
vt 0.430298 0.518348
vt 0.405006 0.421068
vt 0.383019 0.429733
vt 0.362474 0.771615
vt 0.387552 0.796381
vt 0.438918 0.382998
vt 0.421210 0.420824
vt 0.448920 0.357545
vt 0.398021 0.363238
vt 0.378773 0.407144
vt 0.332784 0.508652
vt 0.333539 0.413961
vt 0.367244 0.407548
vt 0.378773 0.499901
vt 0.362910 0.751727
vt 0.459125 0.268345
vt 0.417930 0.278839
vt 0.380247 0.672932
vt 0.448920 0.314473
vt 0.328551 0.517077
vt 0.328734 0.470798
vt 0.357619 0.470278
vt 0.364577 0.509803
vt 0.459125 0.239236
vt 0.435444 0.495971
vt 0.387552 0.579931
vt 0.371732 0.501290
vt 0.368885 0.457158
vt 0.460183 0.181283
vt 0.460183 0.140934
vt 0.460183 0.196322
vt 0.419994 0.205473
vt 0.378509 0.393435
vt 0.461297 0.608225
vt 0.473395 0.560962
vt 0.433984 0.450625
vt 0.460469 0.141037
vt 0.469367 0.116366
vt 0.437911 0.123733
vt 0.420553 0.149293
vt 0.457081 0.165879
vt 0.413943 0.174337
vt 0.484203 0.085531
vt 0.489280 0.071544
vt 0.476758 0.071388
vt 0.468516 0.086614
vt 0.398021 0.325561
vt 0.417930 0.249130
vt 0.419994 0.679456
vt 0.420401 0.648799
vt 0.460183 0.657159
vt 0.460183 0.690304
vt 0.486669 0.045311
vt 0.419994 0.191059
vt 0.422167 0.599988
vt 0.445768 0.556649
vt 0.469661 0.475706
vt 0.477555 0.462176
vt 0.486754 0.460736
vt 0.484790 0.477146
vt 0.484454 0.457928
vt 0.485561 0.446199
vt 0.493123 0.445401
vt 0.492387 0.457080
vt 0.471665 0.053210
vt 0.379159 0.601238
vt 0.385282 0.599612
vt 0.386922 0.604170
vt 0.381432 0.607555
vt 0.486669 0.424258
vt 0.487459 0.440917
vt 0.423568 0.505809
vt 0.452679 0.467354
vt 0.460520 0.507406
vt 0.480956 0.508271
vt 0.420401 0.168698
vt 0.422167 0.108290
vt 0.461297 0.096221
vt 0.479678 0.097153
vt 0.458025 0.104341
vt 0.378509 0.816867
vt 0.355733 0.774144
vt 0.330903 0.641253
vt 0.351886 0.640437
vt 0.398375 0.405151
vt 0.421210 0.496630
vt 0.379220 0.366797
vt 0.348274 0.367843
vt 0.350598 0.433451
vt 0.330908 0.368189
vt 0.364194 0.367147
vt 0.324343 0.324872
vt 0.360708 0.324944
vt 0.395132 0.366023
vt 0.400340 0.365401
vt 0.378349 0.293283
vt 0.378743 0.261665
vt 0.340632 0.261742
vt 0.341538 0.293469
vt 0.377606 0.322035
vt 0.343222 0.322330
vt 0.394336 0.324350
vt 0.400943 0.321655
vt 0.404597 0.548078
vt 0.409055 0.518571
vt 0.354176 0.523009
vt 0.378743 0.561263
vt 0.360141 0.470735
vt 0.313739 0.480362
vt 0.314593 0.500191
vt 0.351676 0.498544
vt 0.407749 0.493332
vt 0.316857 0.522344
vt 0.340632 0.560446
vt 0.403567 0.477757
vt 0.403321 0.292993
vt 0.404597 0.261464
vt 0.359645 0.307779
vt 0.396411 0.307317
vt 0.320262 0.307625
vt 0.322068 0.288897
vt 0.320535 0.262732
vt 0.360141 0.262967
vt 0.360320 0.289050
vt 0.396713 0.262636
vt 0.395646 0.288588
vt 0.320262 0.482345
vt 0.322068 0.451756
vt 0.360320 0.442459
vt 0.359645 0.473048
vt 0.360141 0.440146
vt 0.320535 0.449773
vt 0.395646 0.449241
vt 0.396411 0.479829
vt 0.396713 0.447168
vt 0.330810 0.894416
vt 0.328551 0.841501
vt 0.333098 0.940741
vt 0.407688 0.470184
vt 0.401774 0.414426
vt 0.378808 0.417417
vt 0.382476 0.471308
vt 0.356165 0.389418
vt 0.396460 0.389954
vt 0.401854 0.467455
vt 0.332380 0.471464
vt 0.419750 0.494548
vt 0.404289 0.312254
vt 0.402723 0.263453
vt 0.377163 0.264476
vt 0.378728 0.312916
vt 0.329852 0.393127
vt 0.333174 0.415674
vt 0.350300 0.837975
vt 0.312867 0.850246
vt 0.313942 0.890422
vt 0.364373 0.887710
vt 0.410353 0.893263
vt 0.407625 0.849695
vt 0.377163 0.940554
vt 0.402723 0.933075
vt 0.326372 0.933416
vt 0.326372 0.264581
vt 0.327937 0.313364
vt 0.376999 0.364960
vt 0.334438 0.364922
vt 0.331341 0.362549
vt 0.314868 0.316407
vt 0.352300 0.316485
vt 0.355881 0.361871
vt 0.409626 0.313492
vt 0.393462 0.359936
vt 0.398418 0.363919
vt 0.353526 0.289822
vt 0.351961 0.263334
vt 0.396809 0.260902
vt 0.398374 0.286829
vt 0.324240 0.289744
vt 0.322675 0.263848
vt 0.352300 0.841274
vt 0.353526 0.809945
vt 0.398374 0.821566
vt 0.409626 0.852894
vt 0.396809 0.818572
vt 0.351961 0.806852
vt 0.314868 0.853541
vt 0.324240 0.822213
vt 0.322675 0.819123
vt 0.479215 0.669173
vt 0.482775 0.721513
vt 0.471302 1.002924
vt 0.479215 1.015365
vt 0.480011 0.740196
vt 0.480011 0.988807
vt 0.471302 0.661469
vt 0.416217 0.154177
vt 0.402927 0.144428
vt 0.399432 0.131366
vt 0.416152 0.135838
vt 0.380819 0.132632
vt 0.389649 0.130579
vt 0.393748 0.140479
vt 0.385412 0.141084
vt 0.397513 0.570048
vt 0.379361 0.593819
vt 0.376297 0.603179
vt 0.379178 0.612314
vt 0.385412 0.620214
vt 0.393748 0.625520
vt 0.402927 0.624463
vt 0.416217 0.616909
vt 0.395305 0.577238
vt 0.396469 0.567675
vt 0.398731 0.572395
vt 0.390687 0.614171
vt 0.389649 0.619358
vt 0.380819 0.614576
vt 0.384313 0.610750
vt 0.397566 0.613212
vt 0.399432 0.617961
vt 0.376724 0.609983
vt 0.373598 0.601250
vt 0.376728 0.592146
vt 0.381473 0.594500
vt 0.409398 0.606787
vt 0.416152 0.608740
vt 0.407098 0.603615
vt 0.398562 0.608251
vt 0.393599 0.608943
vt 0.389001 0.606475
vt 0.386952 0.594751
vt 0.396930 0.582298
vt 0.413669 0.603560
vt 0.399402 0.578805
vt 0.410178 0.601288
vt 0.477555 0.038205
vt 0.484454 0.030102
vt 0.492387 0.025182
vt 0.486754 0.032036
vt 0.478542 0.442272
vt 0.471665 0.428901
vt 0.493123 0.025742
vt 0.487459 0.032373
vt 0.181819 0.000000
vt 0.227273 0.078731
vt 0.136365 0.078731
vt 0.272728 0.157461
vt 0.318182 0.078731
vt 0.363637 0.157461
vt 0.909091 0.000000
vt 0.954545 0.078731
vt 0.863636 0.078731
vt 0.727273 0.000000
vt 0.772727 0.078731
vt 0.681818 0.078731
vt 0.545455 0.000000
vt 0.590909 0.078731
vt 0.500000 0.078731
vt 0.318182 0.236191
vt 0.090910 0.157461
vt 0.181819 0.157461
vt 0.136365 0.236191
vt 0.818182 0.157461
vt 0.909091 0.157461
vt 0.863636 0.236191
vt 0.636364 0.157461
vt 0.727273 0.157461
vt 0.681818 0.236191
vt 0.454546 0.157461
vt 0.545455 0.157461
vt 0.500000 0.236191
vt 0.227273 0.236191
vt 0.045455 0.236191
vt 0.772727 0.236191
vt 0.590909 0.236191
vt 0.409092 0.236191
vt 0.181819 0.314921
vt 0.272728 0.314921
vt 0.227273 0.393651
vt 0.000000 0.314921
vt 0.090910 0.314921
vt 0.045455 0.393651
vt 0.727273 0.314921
vt 0.818182 0.314921
vt 0.772727 0.393651
vt 0.545455 0.314921
vt 0.636364 0.314921
vt 0.590909 0.393651
vt 0.363637 0.314921
vt 0.454546 0.314921
vt 0.409092 0.393651
vt 0.500000 0.393651
vt 0.454546 0.472382
vt 0.681818 0.393651
vt 0.636364 0.472382
vt 0.863636 0.393651
vt 0.818182 0.472382
vt 0.909091 0.314921
vt 0.136365 0.393651
vt 0.090910 0.472382
vt 0.318182 0.393651
vt 0.272728 0.472382
vt 0.954545 0.236191
vt 1.000000 0.157461
vt 0.409092 0.078731
vt 0.363637 0.000000
s 1
f 116/1/1 98/2/1 209/3/1 208/4/1
f 115/5/2 4/6/2 17/7/2 97/8/2
f 3/9/3 7/10/3 13/11/3 8/12/3
f 7/10/4 4/13/4 9/14/4 13/11/4
f 13/11/5 9/14/5 2/15/5 10/16/5
f 8/12/6 13/11/6 10/16/6 1/17/6
f 1/17/7 10/16/7 32/18/7 29/19/7
f 114/20/8 1/21/8 29/22/8 83/23/8
f 116/24/9 3/25/9 8/26/9 109/27/9
f 109/27/10 8/26/10 1/21/10 114/20/10
f 115/5/11 6/28/11 15/29/11 99/30/11
f 99/30/12 15/29/12 12/31/12 112/32/12
f 97/8/13 17/7/13 21/33/13 90/34/13
f 20/35/14 25/36/14 203/37/14 204/38/14
f 116/24/15 5/28/15 18/39/15 98/40/15
f 4/41/16 7/42/16 197/43/16 196/44/16
f 89/45/17 90/46/17 21/47/17 25/36/17
f 91/48/18 89/45/18 25/36/18 20/35/18
f 25/36/19 21/47/19 202/49/19 203/37/19
f 98/40/20 18/39/20 23/50/20 91/51/20
f 38/52/21 45/53/21 134/54/21 131/55/21
f 133/56/22 136/57/22 144/58/22 146/59/22
f 112/32/23 12/31/23 34/60/23 82/61/23
f 10/16/24 2/15/24 30/62/24 32/18/24
f 29/63/25 32/64/25 129/65/25 130/66/25
f 75/67/26 41/68/26 48/69/26 73/70/26
f 82/61/27 34/60/27 41/68/27 75/67/27
f 83/71/28 29/63/28 141/72/28 140/73/28
f 32/64/29 30/74/29 128/75/29 129/65/29
f 73/70/30 48/69/30 56/76/30 66/77/30
f 74/78/31 81/79/31 145/80/31 148/81/31
f 130/82/32 133/56/32 146/59/32 147/83/32
f 6/28/33 115/5/33 97/8/33 19/39/33
f 54/84/34 53/85/34 60/86/34 61/87/34
f 67/88/35 54/89/35 61/90/35 65/91/35
f 11/92/36 114/20/36 83/23/36 33/93/36
f 5/28/37 116/24/37 109/27/37 14/29/37
f 14/29/38 109/27/38 114/20/38 11/92/38
f 139/94/39 54/95/39 143/96/39 142/97/39
f 30/62/40 38/52/40 131/55/40 128/98/40
f 4/6/41 115/5/41 99/30/41 9/99/41
f 61/87/42 60/86/42 69/100/42 70/101/42
f 65/91/43 61/90/43 70/102/43 58/103/43
f 9/99/44 99/30/44 112/32/44 2/104/44
f 66/77/45 56/76/45 63/105/45 64/106/45
f 19/39/46 97/8/46 90/34/46 24/107/46
f 53/85/47 52/108/47 59/109/47 60/86/47
f 198/110/48 3/111/48 207/112/48 213/113/48
f 256/114/49 255/115/49 253/116/49 254/117/49
f 23/118/50 26/119/50 89/45/50 91/48/50
f 69/100/51 68/120/51 76/121/51 77/122/51
f 204/123/52 201/124/52 211/125/52 212/126/52
f 64/106/53 63/105/53 72/127/53 57/128/53
f 33/93/54 83/23/54 81/129/54 40/68/54
f 60/86/55 59/109/55 68/120/55 69/100/55
f 2/104/56 112/32/56 82/61/56 30/130/56
f 38/131/57 75/67/57 73/70/57 45/132/57
f 77/122/58 76/121/58 259/133/58 260/134/58
f 30/130/59 82/61/59 75/67/59 38/131/59
f 50/135/60 80/136/60 88/137/60 44/138/60
f 58/103/61 70/102/61 78/139/61 51/140/61
f 70/101/62 69/100/62 77/122/62 78/141/62
f 45/132/63 73/70/63 66/77/63 52/142/63
f 57/128/64 72/127/64 80/136/64 50/135/64
f 28/143/65 110/144/65 96/145/65 42/146/65
f 40/68/66 81/129/66 74/147/66 47/69/66
f 108/148/67 262/149/67 93/150/67 94/151/67
f 31/152/68 108/153/68 94/154/68 43/155/68
f 55/156/69 67/88/69 65/91/69 62/157/69
f 51/140/70 78/139/70 86/158/70 49/159/70
f 78/141/71 77/122/71 260/134/71 86/160/71
f 47/69/72 74/147/72 67/88/72 55/156/72
f 123/161/73 124/162/73 101/163/73 102/164/73
f 121/165/74 123/166/74 102/167/74 37/168/74
f 62/157/75 65/91/75 58/103/75 71/169/75
f 52/142/76 66/77/76 64/106/76 59/170/76
f 59/170/77 64/106/77 57/128/77 68/171/77
f 262/149/78 261/172/78 92/173/78 93/150/78
f 76/174/79 50/175/79 44/176/79 259/177/79
f 71/169/80 58/103/80 51/140/80 79/178/80
f 37/168/81 35/179/81 105/180/81 103/181/81
f 124/162/82 127/182/82 297/183/82 298/184/82 101/163/82
f 68/171/83 57/128/83 50/135/83 76/185/83
f 261/186/84 28/143/84 42/146/84 92/187/84
f 107/188/85 31/152/85 43/155/85 95/189/85
f 127/190/86 122/191/86 295/192/86 297/193/86
f 79/178/87 51/140/87 49/159/87 87/194/87
f 100/195/88 36/196/88 301/197/88 104/198/88
f 126/199/89 121/165/89 37/168/89 103/181/89
f 102/167/90 101/200/90 35/179/90 37/168/90
f 274/201/91 273/202/91 290/203/91 291/204/91
f 122/191/92 125/205/92 300/206/92 295/192/92
f 49/159/93 86/158/93 108/153/93 31/152/93
f 86/160/94 260/134/94 262/149/94 108/148/94
f 35/207/95 296/208/95 299/209/95 105/210/95
f 44/176/96 88/211/96 110/144/96 28/143/96
f 93/212/97 92/187/97 120/213/97 119/214/97
f 87/194/98 49/159/98 31/152/98 107/188/98
f 42/146/99 96/145/99 113/215/99 27/216/99
f 259/217/100 44/138/100 28/218/100 261/219/100
f 92/187/101 42/146/101 27/216/101 120/213/101
f 95/189/102 43/155/102 22/220/102 118/221/102
f 43/155/103 94/154/103 117/222/103 22/220/103
f 94/151/104 93/150/104 119/223/104 117/224/104
f 120/213/105 27/216/105 122/191/105 127/190/105
f 118/221/106 22/220/106 121/165/106 126/199/106
f 119/223/107 120/225/107 127/182/107 124/162/107
f 27/216/108 113/215/108 125/205/108 122/191/108
f 22/220/109 117/222/109 123/166/109 121/165/109
f 117/224/110 119/223/110 124/162/110 123/161/110
f 130/82/111 129/226/111 132/227/111 133/56/111
f 132/227/112 131/55/112 134/54/112 135/228/112
f 129/226/113 128/98/113 131/55/113 132/227/113
f 135/228/114 134/54/114 137/229/114 138/230/114
f 133/56/115 132/227/115 135/228/115 136/57/115
f 136/57/116 135/228/116 138/230/116 139/231/116
f 52/232/117 53/233/117 138/234/117 137/235/117
f 45/53/118 52/108/118 137/229/118 134/54/118
f 54/95/119 67/236/119 149/237/119 143/96/119
f 53/233/120 54/95/120 139/94/120 138/234/120
f 141/72/121 147/238/121 157/239/121 39/240/121
f 144/58/122 142/241/122 150/242/122 153/243/122
f 145/80/123 140/244/123 46/245/123 154/246/123
f 148/81/124 145/80/124 154/246/124 158/247/124
f 146/59/125 144/58/125 153/243/125 156/248/125
f 142/97/126 143/96/126 151/249/126 150/250/126
f 136/57/127 139/231/127 142/241/127 144/58/127
f 67/251/128 74/78/128 148/81/128 149/252/128
f 29/63/129 130/66/129 147/238/129 141/72/129
f 81/79/130 83/253/130 140/244/130 145/80/130
f 153/243/131 150/242/131 162/254/131 164/255/131
f 154/246/132 46/245/132 160/256/132 165/257/132
f 158/247/133 154/246/133 165/257/133 168/258/133
f 156/248/134 153/243/134 164/255/134 166/259/134
f 150/250/135 151/249/135 163/260/135 162/261/135
f 157/262/136 156/248/136 166/259/136 167/263/136
f 149/252/137 148/81/137 158/247/137 159/264/137
f 143/96/138 149/237/138 159/265/138 151/249/138
f 140/73/139 141/72/139 39/240/139 46/266/139
f 147/83/140 146/59/140 156/248/140 157/262/140
f 188/267/141 187/268/141 177/269/141 152/270/141
f 184/271/142 185/272/142 170/273/142 173/274/142
f 182/275/143 180/276/143 155/277/143 174/278/143
f 181/279/144 182/275/144 174/278/144 178/280/144
f 183/281/145 184/271/145 173/274/145 176/282/145
f 170/273/146 185/272/146 194/283/146 192/284/146
f 39/240/147 157/239/147 167/285/147 161/286/147
f 159/264/148 158/247/148 168/258/148 169/287/148
f 151/249/149 159/265/149 169/288/149 163/260/149
f 46/266/150 39/240/150 161/286/150 160/289/150
f 155/290/151 152/291/151 175/292/151 174/293/151
f 171/294/152 172/295/152 173/296/152 170/297/152
f 174/293/153 175/292/153 172/295/153 178/298/153
f 175/292/154 152/291/154 177/299/154 176/300/154
f 178/298/155 172/295/155 171/294/155 179/301/155
f 172/295/156 175/292/156 176/300/156 173/296/156
f 189/302/157 181/279/157 178/280/157 179/303/157
f 189/302/158 179/303/158 193/304/158 195/305/158
f 180/306/159 188/267/159 152/270/159 155/307/159
f 187/308/160 183/281/160 176/282/160 177/309/160
f 167/263/161 166/259/161 183/281/161 187/308/161
f 160/289/162 161/286/162 188/267/162 180/306/162
f 163/260/163 169/288/163 189/310/163 186/311/163
f 169/287/164 168/258/164 181/279/164 189/302/164
f 162/261/165 163/260/165 186/311/165 185/312/165
f 166/259/166 164/255/166 184/271/166 183/281/166
f 168/258/167 165/257/167 182/275/167 181/279/167
f 165/257/168 160/256/168 180/276/168 182/275/168
f 164/255/169 162/254/169 185/272/169 184/271/169
f 161/286/170 167/285/170 187/268/170 188/267/170
f 194/313/171 190/314/171 191/315/171 192/316/171
f 190/314/172 195/317/172 193/318/172 191/315/172
f 185/319/173 186/320/173 190/321/173 194/322/173
f 171/294/174 170/297/174 192/323/174 191/324/174
f 186/320/175 189/325/175 195/326/175 190/321/175
f 179/301/176 171/294/176 191/324/176 193/327/176
f 196/328/177 197/329/177 200/330/177 199/331/177
f 200/330/178 201/124/178 204/123/178 203/332/178
f 197/329/179 198/333/179 201/124/179 200/330/179
f 199/331/180 200/330/180 203/332/180 202/334/180
f 7/42/181 3/111/181 198/110/181 197/43/181
f 17/7/182 4/6/182 196/335/182 199/336/182
f 201/124/183 198/333/183 213/337/183 211/125/183
f 21/33/184 17/7/184 199/336/184 202/338/184
f 208/4/185 209/3/185 217/339/185 216/340/185
f 210/341/186 206/342/186 214/343/186 218/344/186
f 207/112/187 208/345/187 216/346/187 215/347/187
f 211/125/188 213/337/188 221/348/188 219/349/188
f 20/35/189 204/38/189 212/350/189 206/342/189
f 91/48/190 20/35/190 206/342/190 210/341/190
f 98/2/191 91/351/191 210/352/191 209/3/191
f 3/111/192 116/353/192 208/345/192 207/112/192
f 232/354/193 235/355/193 222/356/193 226/357/193
f 233/358/194 224/359/194 240/360/194 241/361/194
f 16/362/195 230/363/195 229/364/195 227/365/195
f 231/366/196 232/367/196 226/368/196 225/369/196
f 213/113/197 207/112/197 215/347/197 221/370/197
f 206/342/198 212/350/198 220/371/198 214/343/198
f 212/126/199 211/125/199 219/349/199 220/372/199
f 209/3/200 210/352/200 218/373/200 217/339/200
f 223/374/201 205/375/201 227/376/201 229/377/201
f 223/374/202 224/378/202 225/379/202 205/375/202
f 205/375/203 225/379/203 226/380/203 222/381/203
f 205/375/204 222/381/204 228/382/204 227/376/204
f 233/358/205 231/366/205 225/369/205 224/359/205
f 229/364/206 230/363/206 237/383/206 238/384/206
f 235/355/207 236/385/207 228/386/207 222/356/207
f 236/387/208 16/362/208 227/365/208 228/388/208
f 250/389/209 243/390/209 16/362/209 236/387/209
f 249/391/210 250/392/210 236/385/210 235/355/210
f 246/393/211 245/394/211 234/395/211 230/396/211
f 248/397/212 244/398/212 231/366/212 233/358/212
f 244/398/213 247/399/213 232/367/213 231/366/213
f 243/390/214 246/400/214 230/363/214 16/362/214
f 245/394/215 248/401/215 233/402/215 234/395/215
f 247/403/216 249/391/216 235/355/216 232/354/216
f 242/404/217 241/405/217 240/406/217 239/407/217
f 237/408/218 242/404/218 239/407/218 238/409/218
f 234/410/219 233/411/219 241/412/219 242/413/219
f 224/378/220 223/374/220 239/414/220 240/415/220
f 230/416/221 234/410/221 242/413/221 237/417/221
f 223/374/222 229/377/222 238/418/222 239/414/222
f 218/344/223 214/343/223 249/391/223 247/403/223
f 215/347/224 216/346/224 248/401/224 245/394/224
f 219/349/225 221/348/225 246/400/225 243/390/225
f 217/339/226 218/373/226 247/399/226 244/398/226
f 216/340/227 217/339/227 244/398/227 248/397/227
f 221/370/228 215/347/228 245/394/228 246/393/228
f 214/343/229 220/371/229 250/392/229 249/391/229
f 220/372/230 219/349/230 243/390/230 250/389/230
f 252/419/231 251/420/231 254/421/231 253/422/231
f 255/423/232 257/424/232 252/425/232 253/426/232
f 258/427/233 256/428/233 254/421/233 251/420/233
f 24/107/234 90/34/234 256/429/234 258/430/234
f 89/45/235 26/119/235 257/431/235 255/432/235
f 90/46/236 89/45/236 255/432/236 256/428/236
f 84/433/237 85/434/237 260/134/237 259/133/237
f 275/435/238 84/433/238 259/133/238 261/172/238
f 85/434/239 276/436/239 262/149/239 260/134/239
f 276/436/240 284/437/240 283/438/240 275/435/240 261/172/240 262/149/240
f 84/439/241 275/440/241 279/441/241 263/442/241
f 266/443/242 264/444/242 278/445/242 280/446/242
f 276/436/243 85/434/243 267/447/243 282/448/243
f 278/449/244 264/450/244 265/451/244 277/452/244
f 277/452/245 265/451/245 263/442/245 279/441/245
f 266/443/246 280/446/246 281/453/246 268/454/246
f 268/454/247 281/453/247 282/448/247 267/447/247
f 85/455/248 84/456/248 263/457/248 265/458/248 264/459/248 266/460/248 268/461/248 267/462/248
f 106/463/249 284/464/249 276/465/249
f 271/466/250 269/467/250 278/468/250 277/469/250
f 270/470/251 271/466/251 277/469/251 279/471/251
f 273/202/252 274/201/252 281/472/252 280/473/252
f 274/201/253 272/474/253 282/475/253 281/472/253
f 269/467/254 273/202/254 280/473/254 278/468/254
f 111/476/255 270/470/255 279/471/255 275/477/255
f 272/474/256 106/463/256 276/465/256 282/475/256
f 285/478/257 286/479/257 292/480/257 291/204/257 290/203/257 288/481/257 287/482/257 289/483/257
f 283/484/258 111/476/258 275/477/258
f 270/470/259 111/476/259 285/478/259 289/483/259
f 294/485/260 286/479/260 285/478/260 293/486/260
f 111/476/261 283/484/261 293/486/261 285/478/261
f 106/463/262 272/474/262 292/480/262 286/479/262
f 272/474/263 274/201/263 291/204/263 292/480/263
f 269/467/264 271/466/264 287/482/264 288/481/264
f 283/438/265 284/437/265 294/487/265 293/488/265
f 273/202/266 269/467/266 288/481/266 290/203/266
f 284/464/267 106/463/267 286/479/267 294/485/267
f 271/466/268 270/470/268 289/483/268 287/482/268
f 297/489/269 295/490/269 36/491/269 100/492/269
f 296/208/270 298/493/270 104/198/270 301/197/270
f 101/494/271 298/493/271 296/208/271 35/207/271
f 36/196/272 302/495/272 303/496/272 301/197/272
f 299/497/273 296/498/273 301/499/273 303/500/273
f 295/490/274 300/501/274 302/502/274 36/491/274
f 298/184/275 297/183/275 100/503/275 104/504/275
f 385/1/276 474/4/276 475/3/276 372/2/276
f 384/505/277 371/506/277 314/507/277 307/508/277
f 306/9/278 309/12/278 312/11/278 308/10/278
f 308/10/279 312/11/279 310/14/279 307/13/279
f 312/11/280 311/16/280 305/15/280 310/14/280
f 309/12/281 304/17/281 311/16/281 312/11/281
f 304/17/282 321/19/282 324/18/282 311/16/282
f 383/509/283 361/510/283 321/511/283 304/512/283
f 385/513/284 380/514/284 309/515/284 306/516/284
f 380/514/285 383/509/285 304/512/285 309/515/285
f 384/505/286 373/517/286 15/29/286 6/28/286
f 373/517/287 382/518/287 12/31/287 15/29/287
f 371/506/288 366/519/288 316/520/288 314/507/288
f 315/521/289 470/522/289 469/523/289 318/524/289
f 385/513/290 372/525/290 18/39/290 5/28/290
f 307/526/291 462/527/291 463/528/291 308/529/291
f 365/530/292 318/524/292 316/531/292 366/532/292
f 367/533/293 315/521/293 318/524/293 365/530/293
f 318/524/294 469/523/294 468/534/294 316/531/294
f 372/525/295 367/535/295 23/50/295 18/39/295
f 328/52/296 397/55/296 400/54/296 333/53/296
f 399/56/297 412/59/297 410/58/297 402/57/297
f 382/518/298 360/536/298 34/60/298 12/31/298
f 311/16/299 324/18/299 322/62/299 305/15/299
f 321/537/300 396/538/300 395/539/300 324/540/300
f 355/541/301 353/542/301 48/69/301 41/68/301
f 360/536/302 355/541/302 41/68/302 34/60/302
f 361/543/303 406/544/303 407/545/303 321/537/303
f 324/540/304 395/539/304 394/546/304 322/547/304
f 353/542/305 348/548/305 56/76/305 48/69/305
f 354/78/306 414/81/306 411/80/306 359/79/306
f 396/82/307 413/83/307 412/59/307 399/56/307
f 6/28/308 19/39/308 371/506/308 384/505/308
f 340/84/309 345/87/309 344/86/309 339/85/309
f 349/549/310 347/550/310 345/551/310 340/552/310
f 11/92/311 33/93/311 361/510/311 383/509/311
f 5/28/312 14/29/312 380/514/312 385/513/312
f 14/29/313 11/92/313 383/509/313 380/514/313
f 405/553/314 408/554/314 409/555/314 340/556/314
f 322/62/315 394/98/315 397/55/315 328/52/315
f 307/508/316 310/557/316 373/517/316 384/505/316
f 345/87/317 352/101/317 351/100/317 344/86/317
f 347/550/318 342/558/318 352/559/318 345/551/318
f 310/557/319 305/560/319 382/518/319 373/517/319
f 348/548/320 346/561/320 63/105/320 56/76/320
f 19/39/321 24/107/321 366/519/321 371/506/321
f 339/85/322 344/86/322 343/109/322 338/108/322
f 464/562/323 479/563/323 473/564/323 306/565/323
f 520/114/324 518/117/324 517/116/324 519/115/324
f 23/118/325 367/533/325 365/530/325 26/119/325
f 351/100/326 357/122/326 356/121/326 350/120/326
f 470/123/327 478/126/327 477/125/327 467/124/327
f 346/561/328 341/566/328 72/127/328 63/105/328
f 33/93/329 40/68/329 359/567/329 361/510/329
f 344/86/330 351/100/330 350/120/330 343/109/330
f 305/560/331 322/568/331 360/536/331 382/518/331
f 328/569/332 333/570/332 353/542/332 355/541/332
f 357/122/333 522/134/333 521/133/333 356/121/333
f 322/568/334 328/569/334 355/541/334 360/536/334
f 336/571/335 332/572/335 88/137/335 80/136/335
f 342/558/336 337/573/336 358/574/336 352/559/336
f 352/101/337 358/141/337 357/122/337 351/100/337
f 333/570/338 338/575/338 348/548/338 353/542/338
f 341/566/339 336/571/339 80/136/339 72/127/339
f 320/576/340 330/577/340 96/145/340 110/144/340
f 40/68/341 47/69/341 354/578/341 359/567/341
f 379/148/342 370/151/342 369/150/342 524/149/342
f 323/579/343 331/580/343 370/581/343 379/582/343
f 55/156/344 62/157/344 347/550/344 349/549/344
f 337/573/345 335/583/345 364/584/345 358/574/345
f 358/141/346 364/160/346 522/134/346 357/122/346
f 47/69/347 55/156/347 349/549/347 354/578/347
f 391/161/348 376/164/348 375/163/348 392/162/348
f 389/585/349 327/586/349 376/587/349 391/588/349
f 62/157/350 71/169/350 342/558/350 347/550/350
f 338/575/351 343/589/351 346/561/351 348/548/351
f 343/589/352 350/590/352 341/566/352 346/561/352
f 524/149/353 369/150/353 368/173/353 523/172/353
f 356/591/354 521/592/354 332/593/354 336/594/354
f 71/169/355 79/178/355 337/573/355 342/558/355
f 327/586/356 103/181/356 105/180/356 325/595/356
f 392/162/357 375/163/357 560/184/357 559/183/357 393/182/357
f 350/590/358 356/596/358 336/571/358 341/566/358
f 523/597/359 368/598/359 330/577/359 320/576/359
f 107/188/360 95/189/360 331/580/360 323/579/360
f 393/599/361 559/600/361 557/601/361 390/602/361
f 79/178/362 87/194/362 335/583/362 337/573/362
f 374/603/363 377/604/363 561/605/363 326/606/363
f 126/199/364 103/181/364 327/586/364 389/585/364
f 376/587/365 327/586/365 325/595/365 375/607/365
f 536/608/366 553/609/366 552/610/366 535/611/366
f 390/602/367 557/601/367 300/206/367 125/205/367
f 335/583/368 323/579/368 379/582/368 364/584/368
f 364/160/369 379/148/369 524/149/369 522/134/369
f 325/612/370 105/210/370 299/209/370 558/613/370
f 332/593/371 320/576/371 110/144/371 88/211/371
f 369/614/372 387/615/372 388/616/372 368/598/372
f 87/194/373 107/188/373 323/579/373 335/583/373
f 330/577/374 319/617/374 113/215/374 96/145/374
f 521/618/375 523/619/375 320/620/375 332/572/375
f 368/598/376 388/616/376 319/617/376 330/577/376
f 95/189/377 118/221/377 317/621/377 331/580/377
f 331/580/378 317/621/378 386/622/378 370/581/378
f 370/151/379 386/224/379 387/223/379 369/150/379
f 388/616/380 393/599/380 390/602/380 319/617/380
f 118/221/381 126/199/381 389/585/381 317/621/381
f 387/223/382 392/162/382 393/182/382 388/225/382
f 319/617/383 390/602/383 125/205/383 113/215/383
f 317/621/384 389/585/384 391/588/384 386/622/384
f 386/224/385 391/161/385 392/162/385 387/223/385
f 396/82/386 399/56/386 398/227/386 395/226/386
f 398/227/387 401/228/387 400/54/387 397/55/387
f 395/226/388 398/227/388 397/55/388 394/98/388
f 401/228/389 404/230/389 403/229/389 400/54/389
f 399/56/390 402/57/390 401/228/390 398/227/390
f 402/57/391 405/231/391 404/230/391 401/228/391
f 338/623/392 403/624/392 404/625/392 339/626/392
f 333/53/393 400/54/393 403/229/393 338/108/393
f 340/556/394 409/555/394 415/627/394 349/628/394
f 339/626/395 404/625/395 405/553/395 340/556/395
f 407/545/396 329/629/396 423/630/396 413/631/396
f 410/58/397 419/243/397 416/242/397 408/241/397
f 411/80/398 420/246/398 334/245/398 406/244/398
f 414/81/399 424/247/399 420/246/399 411/80/399
f 412/59/400 422/248/400 419/243/400 410/58/400
f 408/554/401 416/632/401 417/633/401 409/555/401
f 402/57/402 410/58/402 408/241/402 405/231/402
f 349/251/403 415/252/403 414/81/403 354/78/403
f 321/537/404 407/545/404 413/631/404 396/538/404
f 359/79/405 411/80/405 406/244/405 361/253/405
f 419/243/406 430/255/406 428/254/406 416/242/406
f 420/246/407 431/257/407 426/256/407 334/245/407
f 424/247/408 434/258/408 431/257/408 420/246/408
f 422/248/409 432/259/409 430/255/409 419/243/409
f 416/632/410 428/634/410 429/635/410 417/633/410
f 423/262/411 433/263/411 432/259/411 422/248/411
f 415/252/412 425/264/412 424/247/412 414/81/412
f 409/555/413 417/633/413 425/636/413 415/627/413
f 406/544/414 334/637/414 329/629/414 407/545/414
f 413/83/415 423/262/415 422/248/415 412/59/415
f 454/638/416 418/639/416 443/640/416 453/641/416
f 450/271/417 439/274/417 436/273/417 451/272/417
f 448/275/418 440/278/418 421/277/418 446/276/418
f 447/279/419 444/280/419 440/278/419 448/275/419
f 449/281/420 442/282/420 439/274/420 450/271/420
f 436/273/421 458/284/421 460/283/421 451/272/421
f 329/629/422 427/642/422 433/643/422 423/630/422
f 425/264/423 435/287/423 434/258/423 424/247/423
f 417/633/424 429/635/424 435/644/424 425/636/424
f 334/637/425 426/645/425 427/642/425 329/629/425
f 421/646/426 440/647/426 441/648/426 418/649/426
f 437/650/427 436/651/427 439/652/427 438/653/427
f 440/647/428 444/654/428 438/653/428 441/648/428
f 441/648/429 442/655/429 443/656/429 418/649/429
f 444/654/430 445/657/430 437/650/430 438/653/430
f 438/653/431 439/652/431 442/655/431 441/648/431
f 455/302/432 445/303/432 444/280/432 447/279/432
f 455/302/433 461/305/433 459/304/433 445/303/433
f 446/658/434 421/659/434 418/639/434 454/638/434
f 453/308/435 443/309/435 442/282/435 449/281/435
f 433/263/436 453/308/436 449/281/436 432/259/436
f 426/645/437 446/658/437 454/638/437 427/642/437
f 429/635/438 452/660/438 455/661/438 435/644/438
f 435/287/439 455/302/439 447/279/439 434/258/439
f 428/634/440 451/662/440 452/660/440 429/635/440
f 432/259/441 449/281/441 450/271/441 430/255/441
f 434/258/442 447/279/442 448/275/442 431/257/442
f 431/257/443 448/275/443 446/276/443 426/256/443
f 430/255/444 450/271/444 451/272/444 428/254/444
f 427/642/445 454/638/445 453/641/445 433/643/445
f 460/663/446 458/664/446 457/665/446 456/666/446
f 456/666/447 457/665/447 459/667/447 461/668/447
f 451/669/448 460/670/448 456/671/448 452/672/448
f 437/650/449 457/673/449 458/674/449 436/651/449
f 452/672/450 456/671/450 461/675/450 455/676/450
f 445/657/451 459/677/451 457/673/451 437/650/451
f 462/328/452 465/331/452 466/330/452 463/329/452
f 466/330/453 469/332/453 470/123/453 467/124/453
f 463/329/454 466/330/454 467/124/454 464/333/454
f 465/331/455 468/334/455 469/332/455 466/330/455
f 308/529/456 463/528/456 464/562/456 306/565/456
f 314/507/457 465/678/457 462/679/457 307/508/457
f 467/124/458 477/125/458 479/337/458 464/333/458
f 316/520/459 468/680/459 465/678/459 314/507/459
f 474/4/460 482/340/460 483/339/460 475/3/460
f 476/681/461 484/682/461 480/683/461 472/684/461
f 473/564/462 481/685/462 482/686/462 474/687/462
f 477/125/463 485/349/463 487/348/463 479/337/463
f 315/521/464 472/684/464 478/688/464 470/522/464
f 367/533/465 476/681/465 472/684/465 315/521/465
f 372/2/466 475/3/466 476/352/466 367/351/466
f 306/565/467 473/564/467 474/687/467 385/689/467
f 498/690/468 492/691/468 488/692/468 501/693/468
f 499/358/469 507/361/469 506/360/469 490/359/469
f 313/362/470 493/365/470 495/364/470 496/363/470
f 497/366/471 491/369/471 492/368/471 498/367/471
f 479/563/472 487/694/472 481/685/472 473/564/472
f 472/684/473 480/683/473 486/695/473 478/688/473
f 478/126/474 486/372/474 485/349/474 477/125/474
f 475/3/475 483/339/475 484/373/475 476/352/475
f 489/696/476 495/697/476 493/698/476 471/699/476
f 489/696/477 471/699/477 491/700/477 490/701/477
f 471/699/478 488/702/478 492/703/478 491/700/478
f 471/699/479 493/698/479 494/704/479 488/702/479
f 499/358/480 490/359/480 491/369/480 497/366/480
f 495/364/481 504/384/481 503/383/481 496/363/481
f 501/693/482 488/692/482 494/705/482 502/706/482
f 502/387/483 494/388/483 493/365/483 313/362/483
f 516/389/484 502/387/484 313/362/484 509/390/484
f 515/707/485 501/693/485 502/706/485 516/708/485
f 512/709/486 496/710/486 500/711/486 511/712/486
f 514/397/487 499/358/487 497/366/487 510/398/487
f 510/398/488 497/366/488 498/367/488 513/399/488
f 509/390/489 313/362/489 496/363/489 512/400/489
f 511/712/490 500/711/490 499/713/490 514/714/490
f 513/715/491 498/690/491 501/693/491 515/707/491
f 508/716/492 505/717/492 506/718/492 507/719/492
f 503/720/493 504/721/493 505/717/493 508/716/493
f 500/722/494 508/723/494 507/724/494 499/725/494
f 490/701/495 506/726/495 505/727/495 489/696/495
f 496/728/496 503/729/496 508/723/496 500/722/496
f 489/696/497 505/727/497 504/730/497 495/697/497
f 484/682/498 513/715/498 515/707/498 480/683/498
f 481/685/499 511/712/499 514/714/499 482/686/499
f 485/349/500 509/390/500 512/400/500 487/348/500
f 483/339/501 510/398/501 513/399/501 484/373/501
f 482/340/502 514/397/502 510/398/502 483/339/502
f 487/694/503 512/709/503 511/712/503 481/685/503
f 480/683/504 515/707/504 516/708/504 486/695/504
f 486/372/505 516/389/505 509/390/505 485/349/505
f 252/419/506 517/731/506 518/732/506 251/420/506
f 519/733/507 517/734/507 252/425/507 257/424/507
f 258/427/508 251/420/508 518/732/508 520/735/508
f 24/107/509 258/430/509 520/736/509 366/519/509
f 365/530/510 519/737/510 257/431/510 26/119/510
f 366/532/511 520/735/511 519/737/511 365/530/511
f 362/433/512 521/133/512 522/134/512 363/434/512
f 537/435/513 523/172/513 521/133/513 362/433/513
f 363/434/514 522/134/514 524/149/514 538/436/514
f 538/436/515 524/149/515 523/172/515 537/435/515 545/438/515 546/437/515
f 362/738/516 525/739/516 541/740/516 537/741/516
f 528/443/517 542/446/517 540/445/517 526/444/517
f 538/436/518 544/448/518 529/447/518 363/434/518
f 540/742/519 539/743/519 527/744/519 526/745/519
f 539/743/520 541/740/520 525/739/520 527/744/520
f 528/443/521 530/454/521 543/453/521 542/446/521
f 530/454/522 529/447/522 544/448/522 543/453/522
f 363/746/523 529/747/523 530/748/523 528/749/523 526/750/523 527/751/523 525/752/523 362/753/523
f 378/754/524 538/755/524 546/756/524
f 533/757/525 539/758/525 540/759/525 531/760/525
f 532/761/526 541/762/526 539/758/526 533/757/526
f 535/611/527 542/763/527 543/764/527 536/608/527
f 536/608/528 543/764/528 544/765/528 534/766/528
f 531/760/529 540/759/529 542/763/529 535/611/529
f 381/767/530 537/768/530 541/762/530 532/761/530
f 534/766/531 544/765/531 538/755/531 378/754/531
f 547/769/532 551/770/532 549/771/532 550/772/532 552/610/532 553/609/532 554/773/532 548/774/532
f 545/775/533 537/768/533 381/767/533
f 532/761/534 551/770/534 547/769/534 381/767/534
f 556/776/535 555/777/535 547/769/535 548/774/535
f 381/767/536 547/769/536 555/777/536 545/775/536
f 378/754/537 548/774/537 554/773/537 534/766/537
f 534/766/538 554/773/538 553/609/538 536/608/538
f 531/760/539 550/772/539 549/771/539 533/757/539
f 545/438/540 555/488/540 556/487/540 546/437/540
f 535/611/541 552/610/541 550/772/541 531/760/541
f 546/756/542 556/776/542 548/774/542 378/754/542
f 533/757/543 549/771/543 551/770/543 532/761/543
f 559/778/544 374/779/544 326/780/544 557/781/544
f 558/613/545 561/605/545 377/604/545 560/782/545
f 375/783/546 325/612/546 558/613/546 560/782/546
f 326/606/547 561/605/547 303/496/547 302/495/547
f 299/497/548 303/500/548 561/784/548 558/785/548
f 557/781/549 326/780/549 302/502/549 300/501/549
f 560/184/550 377/504/550 374/503/550 559/183/550
f 562/786/551 575/787/551 574/788/551
f 563/789/552 575/790/552 577/791/552
f 562/792/553 574/793/553 579/794/553
f 562/795/554 579/796/554 581/797/554
f 562/798/555 581/799/555 578/800/555
f 563/789/556 577/791/556 584/801/556
f 564/802/557 576/803/557 586/804/557
f 565/805/558 580/806/558 588/807/558
f 566/808/559 582/809/559 590/810/559
f 567/811/560 583/812/560 592/813/560
f 563/789/561 584/801/561 587/814/561
f 564/802/562 586/804/562 589/815/562
f 565/805/563 588/807/563 591/816/563
f 566/808/564 590/810/564 593/817/564
f 567/811/565 592/813/565 585/818/565
f 568/819/566 594/820/566 599/821/566
f 569/822/567 595/823/567 601/824/567
f 570/825/568 596/826/568 602/827/568
f 571/828/569 597/829/569 603/830/569
f 572/831/570 598/832/570 600/833/570
f 600/833/571 603/834/571 573/835/571
f 600/833/572 598/832/572 603/834/572
f 598/832/573 571/828/573 603/834/573
f 603/830/574 602/836/574 573/837/574
f 603/830/575 597/829/575 602/836/575
f 597/829/576 570/825/576 602/836/576
f 602/827/577 601/838/577 573/839/577
f 602/827/578 596/826/578 601/838/578
f 596/826/579 569/840/579 601/838/579
f 601/824/580 599/841/580 573/842/580
f 601/824/581 595/823/581 599/841/581
f 595/823/582 568/819/582 599/841/582
f 599/821/583 600/843/583 573/844/583
f 599/821/584 594/820/584 600/843/584
f 594/820/585 572/831/585 600/843/585
f 585/818/586 598/832/586 572/831/586
f 585/818/587 592/813/587 598/832/587
f 592/813/588 571/828/588 598/832/588
f 593/817/589 597/829/589 571/828/589
f 593/817/590 590/810/590 597/829/590
f 590/810/591 570/825/591 597/829/591
f 591/816/592 596/826/592 570/825/592
f 591/816/593 588/807/593 596/826/593
f 588/807/594 569/840/594 596/826/594
f 589/815/595 595/823/595 569/822/595
f 589/815/596 586/804/596 595/823/596
f 586/804/597 568/819/597 595/823/597
f 587/814/598 594/820/598 568/819/598
f 587/814/599 584/801/599 594/820/599
f 584/801/600 572/831/600 594/820/600
f 592/813/601 593/817/601 571/828/601
f 592/813/602 583/812/602 593/817/602
f 583/812/603 566/808/603 593/817/603
f 590/810/604 591/816/604 570/825/604
f 590/810/605 582/809/605 591/816/605
f 582/809/606 565/805/606 591/816/606
f 588/807/607 589/845/607 569/840/607
f 588/807/608 580/806/608 589/845/608
f 580/806/609 564/846/609 589/845/609
f 586/804/610 587/814/610 568/819/610
f 586/804/611 576/803/611 587/814/611
f 576/803/612 563/789/612 587/814/612
f 584/801/613 585/818/613 572/831/613
f 584/801/614 577/791/614 585/818/614
f 577/791/615 567/811/615 585/818/615
f 578/800/616 583/812/616 567/811/616
f 578/800/617 581/799/617 583/812/617
f 581/799/618 566/808/618 583/812/618
f 581/797/619 582/809/619 566/808/619
f 581/797/620 579/796/620 582/809/620
f 579/796/621 565/805/621 582/809/621
f 579/794/622 580/806/622 565/805/622
f 579/794/623 574/793/623 580/806/623
f 574/793/624 564/846/624 580/806/624
f 577/791/625 578/847/625 567/811/625
f 577/791/626 575/790/626 578/847/626
f 575/790/627 562/848/627 578/847/627
f 574/788/628 576/803/628 564/802/628
f 574/788/629 575/787/629 576/803/629
f 575/787/630 563/789/630 576/803/630
f 604/786/631 616/788/631 617/787/631
f 605/789/632 619/791/632 617/790/632
f 604/792/633 621/794/633 616/793/633
f 604/795/634 623/797/634 621/796/634
f 604/798/635 620/800/635 623/799/635
f 605/789/636 626/801/636 619/791/636
f 606/802/637 628/804/637 618/803/637
f 607/805/638 630/807/638 622/806/638
f 608/808/639 632/810/639 624/809/639
f 609/811/640 634/813/640 625/812/640
f 605/789/641 629/814/641 626/801/641
f 606/802/642 631/815/642 628/804/642
f 607/805/643 633/816/643 630/807/643
f 608/808/644 635/817/644 632/810/644
f 609/811/645 627/818/645 634/813/645
f 610/819/646 641/821/646 636/820/646
f 611/822/647 643/824/647 637/823/647
f 612/825/648 644/827/648 638/826/648
f 613/828/649 645/830/649 639/829/649
f 614/831/650 642/833/650 640/832/650
f 642/833/651 615/835/651 645/834/651
f 642/833/652 645/834/652 640/832/652
f 640/832/653 645/834/653 613/828/653
f 645/830/654 615/837/654 644/836/654
f 645/830/655 644/836/655 639/829/655
f 639/829/656 644/836/656 612/825/656
f 644/827/657 615/839/657 643/838/657
f 644/827/658 643/838/658 638/826/658
f 638/826/659 643/838/659 611/840/659
f 643/824/660 615/842/660 641/841/660
f 643/824/661 641/841/661 637/823/661
f 637/823/662 641/841/662 610/819/662
f 641/821/663 615/844/663 642/843/663
f 641/821/664 642/843/664 636/820/664
f 636/820/665 642/843/665 614/831/665
f 627/818/666 614/831/666 640/832/666
f 627/818/667 640/832/667 634/813/667
f 634/813/668 640/832/668 613/828/668
f 635/817/669 613/828/669 639/829/669
f 635/817/670 639/829/670 632/810/670
f 632/810/671 639/829/671 612/825/671
f 633/816/672 612/825/672 638/826/672
f 633/816/673 638/826/673 630/807/673
f 630/807/674 638/826/674 611/840/674
f 631/815/675 611/822/675 637/823/675
f 631/815/676 637/823/676 628/804/676
f 628/804/677 637/823/677 610/819/677
f 629/814/678 610/819/678 636/820/678
f 629/814/679 636/820/679 626/801/679
f 626/801/680 636/820/680 614/831/680
f 634/813/681 613/828/681 635/817/681
f 634/813/682 635/817/682 625/812/682
f 625/812/683 635/817/683 608/808/683
f 632/810/684 612/825/684 633/816/684
f 632/810/685 633/816/685 624/809/685
f 624/809/686 633/816/686 607/805/686
f 630/807/687 611/840/687 631/845/687
f 630/807/688 631/845/688 622/806/688
f 622/806/689 631/845/689 606/846/689
f 628/804/690 610/819/690 629/814/690
f 628/804/691 629/814/691 618/803/691
f 618/803/692 629/814/692 605/789/692
f 626/801/693 614/831/693 627/818/693
f 626/801/694 627/818/694 619/791/694
f 619/791/695 627/818/695 609/811/695
f 620/800/696 609/811/696 625/812/696
f 620/800/697 625/812/697 623/799/697
f 623/799/698 625/812/698 608/808/698
f 623/797/699 608/808/699 624/809/699
f 623/797/700 624/809/700 621/796/700
f 621/796/701 624/809/701 607/805/701
f 621/794/702 607/805/702 622/806/702
f 621/794/703 622/806/703 616/793/703
f 616/793/704 622/806/704 606/846/704
f 619/791/705 609/811/705 620/847/705
f 619/791/706 620/847/706 617/790/706
f 617/790/707 620/847/707 604/848/707
f 616/788/708 606/802/708 618/803/708
f 616/788/709 618/803/709 617/787/709
f 617/787/710 618/803/710 605/789/710
