# Blender 5.1.1
# www.blender.org
o Куб.001
v 0.551261 1.176378 0.592659
v 0.532598 2.432379 0.474126
v 0.602500 1.122254 0.011237
v 0.619472 2.368941 -0.229542
v -0.004273 1.013169 -0.328657
v -0.000000 2.480862 -0.357245
v 0.708361 1.752181 0.082751
v 0.618345 1.095423 0.268262
v 0.609568 2.454140 0.119419
v 0.654578 1.748256 0.516390
v 0.005775 0.958259 0.670608
v -0.000000 2.544096 0.544675
v 0.718895 1.760507 0.178943
v -0.003060 0.904103 0.179937
v -0.000000 2.614716 0.130571
v 0.822783 0.222263 -0.338315
v 0.537649 2.233252 -0.530230
v -0.003665 1.102132 -0.587574
v 0.000000 2.280686 -0.622767
v 0.464503 1.245923 -0.648723
v 0.464300 2.041667 -0.749400
v 0.090363 0.719975 3.002457
v -0.002240 1.221436 -0.807953
v -0.000000 2.103516 -0.887623
v 0.561795 1.628223 -0.802086
v -0.000369 1.596850 -0.916508
v 0.084677 1.093893 3.146019
v 0.172094 1.515291 3.027446
v 0.487436 1.365890 0.988695
v 0.500944 2.381254 0.889748
v 0.175772 0.777595 2.808768
v 0.621615 1.746454 0.852046
v 0.013266 1.004511 1.115635
v 0.000022 2.487596 0.979386
v 0.059274 0.691744 3.232310
v 0.033850 0.835290 3.325609
v 0.047665 0.665761 3.114941
v 0.569280 2.539502 1.239715
v 0.547538 0.918054 0.873270
v 0.007989 0.950586 1.470357
v -0.002099 2.650883 1.345335
v 0.118300 1.301264 3.176700
v 0.136209 0.734292 2.917371
v 0.177045 1.737854 2.834512
v 0.581835 2.540885 1.435950
v 0.450311 0.873056 0.907155
v 0.004338 0.987088 1.617587
v -0.000979 2.655061 1.544468
v 0.190837 0.828835 2.699618
v 0.177045 1.889880 2.659541
v 0.177045 0.888979 2.565783
v 0.540677 2.478425 1.719297
v 0.676534 1.927669 1.712408
v 0.559584 1.092157 1.697879
v 0.001061 1.084223 1.775931
v -0.000022 2.587758 1.817999
v 0.181751 2.053962 2.406383
v 0.181751 1.091417 2.254342
v 0.454000 2.252615 2.016810
v 0.560820 1.611345 1.902583
v 0.462404 1.332924 1.884027
v 0.000454 1.172001 1.901356
v -0.000000 2.337250 2.104001
v 0.227358 2.303873 2.071334
v 0.231256 1.242459 1.888621
v 0.271203 2.555317 1.765668
v 0.362862 1.088350 1.628731
v 0.364925 1.998335 2.360934
v 0.445599 1.426078 2.299490
v 0.364925 1.147062 2.209159
v -0.000000 1.056400 2.260271
v 0.000000 2.083039 2.408640
v 0.290342 2.622267 1.479461
v 0.309877 1.095120 1.515801
v 0.283663 2.620414 1.276934
v 0.355746 1.843029 2.614754
v 0.433703 1.347285 2.566225
v 0.355746 0.944357 2.526711
v -0.000000 0.864344 2.549091
v 0.000000 1.918379 2.647007
v 0.322811 1.187909 1.395078
v 0.251181 2.457107 0.911338
v 0.352095 1.276459 1.148699
v 0.372539 1.560567 2.770839
v 0.455708 1.353799 2.710939
v 0.382651 0.885532 2.663474
v -0.000000 0.805593 2.678360
v 0.000000 1.769777 2.818112
v 0.248933 1.612564 -0.880987
v 0.203268 2.087055 -0.852383
v 0.324656 1.209230 -0.621038
v 0.241143 1.283528 3.120888
v 0.339854 1.061031 2.982802
v 0.276080 0.776838 2.885717
v -0.000000 0.729850 2.881003
v -0.000000 1.329213 3.151733
v 0.249692 2.242739 -0.665720
v 0.282627 1.109342 -0.373693
v 0.307155 2.557656 0.092951
v 0.069124 0.839634 3.303839
v 0.125993 0.713304 3.197738
v 0.103346 0.691887 3.116320
v -0.000000 0.654222 3.121970
v 0.064203 0.787549 3.300635
v -0.000000 0.682697 3.226131
v 0.465527 1.383309 2.803970
v -0.000000 0.763533 2.781492
v 0.353261 0.827631 2.773360
v 0.311078 0.997925 0.211463
v 0.000000 1.550182 3.008621
v 0.402860 1.513525 2.848097
v 0.267634 2.510717 0.480969
v -0.000000 1.096614 3.145594
v 0.281847 1.065809 0.593087
v 0.301735 2.445296 -0.399723
v 0.357123 1.052930 -0.083820
v 0.186642 0.755909 2.971426
v -0.000000 0.722849 2.961282
v 0.210413 0.887160 3.090281
v 0.175549 1.064587 3.117949
v 0.070240 0.693378 3.053455
v 0.067630 0.926723 3.242592
v 0.139993 0.713087 3.049152
v 0.161300 0.801171 3.143560
v -0.000000 0.936877 3.232816
v -0.000000 0.689401 3.037781
v 0.134901 0.921163 3.210341
v 0.615351 2.281405 0.989986
v 0.722996 1.752305 0.900290
v 0.687779 1.493280 1.014731
v 0.673639 2.433060 1.237945
v 0.811107 1.859188 1.318466
v 0.836761 1.304143 1.355912
v 0.638461 2.440927 1.420175
v 0.822339 1.903994 1.488401
v 0.843813 1.209432 1.508607
v 0.646077 2.320101 1.602555
v 0.771455 1.937162 1.679449
v 0.772239 1.154186 1.657862
v 0.444979 1.075237 0.965240
v 0.546095 1.133496 0.915875
v 0.745012 0.809676 1.335865
v 0.592022 0.762954 1.367628
v 0.797279 0.862775 1.230376
v 0.413782 0.915728 1.125484
v 0.793192 0.943039 1.125349
v 0.688611 1.145784 0.916451
v 0.412100 0.818880 1.235119
v 0.454185 0.777336 1.329716
v 0.743579 0.635597 1.126559
v 0.593476 0.608200 1.153488
v 0.539071 0.700349 0.506751
v 0.798128 0.692234 1.057827
v 0.421586 0.769111 0.990071
v 0.420901 0.657163 0.532582
v 0.791620 0.766550 0.987817
v 0.684914 0.910237 0.880237
v 0.417509 0.686540 1.072040
v 0.457694 0.638764 1.129078
v 0.444320 0.794289 0.730796
v 0.551033 0.832952 0.698795
v 0.768678 0.551587 0.913604
v 0.604593 0.522055 0.934924
v 0.792909 0.614508 0.855227
v 0.419410 0.694903 0.802400
v 0.787665 0.688052 0.795168
v 0.703488 0.821656 0.702096
v 0.416693 0.611043 0.871828
v 0.457250 0.559264 0.919288
v 0.806444 0.371762 0.654390
v 0.597810 0.342825 0.654125
v 0.643234 0.458149 0.620100
v 0.808045 0.452180 0.625751
v 0.393474 0.546411 0.590807
v 0.638194 0.548500 0.583983
v 0.803576 0.534789 0.586651
v 0.707977 0.686618 0.510170
v 0.392800 0.450826 0.634846
v 0.407134 0.386688 0.656534
v 0.429789 0.720536 0.635351
v 0.402701 0.525231 0.766594
v 0.403367 0.616210 0.704646
v 0.798471 0.605761 0.698309
v 0.802745 0.526926 0.755217
v 0.783265 0.487643 0.851152
v 0.604400 0.436402 0.859307
v 0.707005 0.747229 0.607128
v 0.543836 0.760099 0.603835
v 0.444633 0.498320 0.852783
v 0.590171 0.255453 0.804288
v 0.589073 0.211436 0.688181
v 0.767654 0.243789 0.687112
v 0.428906 0.254532 0.687667
v 0.762976 0.291741 0.803321
v 0.435938 0.304696 0.806455
v 0.762347 2.229239 -0.296637
v 0.786809 1.748593 -0.004796
v 0.762677 1.147007 -0.066142
v 0.752301 2.106932 -0.516328
v 0.858042 1.668086 -0.484119
v 0.810441 1.183034 -0.322951
v 0.742085 1.954457 -0.692549
v 0.837699 1.630815 -0.703635
v 0.742345 1.243047 -0.591883
v 0.605991 -0.005269 -0.307174
v 0.523554 0.905316 -0.693057
v 0.633917 0.934023 -0.066505
v 0.437211 0.918311 -0.133046
v 0.377891 0.904762 -0.400158
v 0.411447 0.902407 -0.646856
v 0.800758 0.918831 -0.388422
v 0.746299 0.908321 -0.649901
v 0.762395 0.931737 -0.143300
v 0.540278 0.674908 -0.655830
v 0.641421 0.553478 -0.091926
v 0.462209 0.555930 -0.158989
v 0.407863 0.611893 -0.398281
v 0.438188 0.662771 -0.615285
v 0.793027 0.619650 -0.380596
v 0.743207 0.668908 -0.616241
v 0.758349 0.570852 -0.159124
v 0.549010 -0.011235 -0.544898
v 0.668618 0.018500 -0.087244
v 0.413748 -0.003164 -0.139091
v 0.401552 -0.015646 -0.334002
v 0.435378 -0.014131 -0.511606
v 0.830225 -0.004024 -0.322297
v 0.774862 -0.008681 -0.513451
v 0.835055 0.011279 -0.142678
v 0.825705 0.231662 -0.163022
v 0.394110 0.210584 -0.351132
v 0.427928 0.211525 -0.527565
v 0.404393 0.218508 -0.160536
v 0.659288 0.233015 -0.109221
v 0.541556 0.215202 -0.560697
v 0.767410 0.217723 -0.529017
v 0.784277 0.137776 -0.029061
v 0.791470 0.028604 -0.004663
v 0.661260 0.034945 0.050171
v 0.461865 0.014218 -0.000867
v 0.454679 0.121929 -0.024297
v 0.654063 0.146656 0.024281
v 0.784450 0.439943 -0.359039
v 0.425236 0.430776 -0.371185
v 0.642941 0.430303 -0.133348
v 0.752023 0.433653 -0.185981
v 0.453540 0.443994 -0.542829
v 0.475825 0.421823 -0.184644
v 0.548752 0.449086 -0.575073
v 0.738013 0.449055 -0.544315
v -0.000000 1.964712 -0.963352
v -0.000000 1.715167 -1.003691
v 0.092420 1.729721 -0.966043
v 0.076591 1.955334 -0.937061
v 0.127592 1.711214 -0.914346
v 0.088882 2.048142 -0.898695
v -0.000000 1.692332 -0.956154
v -0.000000 2.059583 -0.930772
v 0.353936 1.703946 2.710134
v 0.462452 1.280992 2.660657
v 0.346085 1.480082 2.972831
v 0.469988 1.221548 2.855383
v 0.431634 1.593010 2.815071
v 0.509515 1.573744 2.829433
v 0.472450 1.597251 2.832754
v 0.537234 1.539006 2.814796
v 0.536419 1.457859 2.773222
v 0.550043 1.498885 2.795730
v 0.514399 1.530853 2.859646
v 0.455471 1.541673 2.864146
v 0.486059 1.545866 2.867011
v 0.527030 1.459404 2.828728
v 0.527210 1.516835 2.852448
v 0.537319 1.489074 2.839912
v 0.372831 1.522142 2.851395
v 0.460350 1.341229 2.787374
v 0.490673 1.568696 2.876027
v 0.529939 1.547690 2.866334
v 0.447174 1.562575 2.872360
v 0.548145 1.527520 2.856728
v 0.562047 1.489126 2.840012
v 0.548125 1.449044 2.824712
v 0.383871 1.499297 2.843310
v 0.450291 1.362025 2.794732
v 0.413090 1.499855 2.831714
v 0.458299 1.405919 2.799881
v 0.473111 1.523188 2.845359
v 0.493557 1.512358 2.840046
v 0.451044 1.520163 2.843292
v 0.502798 1.502247 2.834854
v 0.510091 1.482220 2.825810
v 0.502668 1.460819 2.817744
v 0.399391 1.489596 2.828262
v 0.447307 1.390564 2.793214
v 0.058900 0.852342 3.295570
v 0.055763 0.764286 3.291761
v 0.099802 0.859460 3.268316
v 0.095412 0.771006 3.265326
v -0.000000 0.763968 3.294795
v -0.000000 0.849411 3.298599
v 0.030579 0.783444 3.321756
v -0.000000 0.833645 3.324245
v -0.000000 0.783321 3.321115
v -0.539675 0.978563 0.628536
v -0.532288 2.429624 0.476840
v -0.620176 1.161746 -0.223738
v -0.618262 2.388467 -0.214234
v -0.714423 1.766023 0.016358
v -0.623471 0.993138 0.148248
v -0.608981 2.454919 0.127265
v -0.651291 1.664422 0.512380
v -0.723969 1.751456 0.123684
v -0.851424 0.493589 -1.034036
v -0.535231 2.341702 -0.502329
v -0.476777 1.439811 -0.811954
v -0.464029 2.166504 -0.750017
v -0.090363 0.719975 3.002457
v -0.567103 1.799015 -0.868772
v -0.084677 1.093893 3.146019
v -0.172094 1.515291 3.027446
v -0.445294 1.048355 1.224976
v -0.500007 2.376987 0.889557
v -0.175772 0.777595 2.808768
v -0.609779 1.640629 0.874387
v -0.059274 0.691744 3.232310
v -0.033850 0.835290 3.325609
v -0.047665 0.665761 3.114941
v -0.570340 2.528199 1.239684
v -0.551958 0.415935 1.524376
v -0.118300 1.301264 3.176700
v -0.136209 0.734292 2.917371
v -0.177045 1.737854 2.834512
v -0.583003 2.528340 1.435916
v -0.458126 0.416510 1.584582
v -0.190837 0.828835 2.699618
v -0.177045 1.889880 2.659541
v -0.177045 0.888979 2.565783
v -0.540207 2.469419 1.719261
v -0.658053 1.803457 1.767620
v -0.541739 1.079440 1.988222
v -0.181751 2.053962 2.406383
v -0.181751 1.091417 2.254342
v -0.453357 2.245720 2.006526
v -0.552310 1.605123 1.929978
v -0.453219 1.347234 1.940883
v -0.227127 2.303787 2.071331
v -0.227138 1.250836 1.921910
v -0.271600 2.554620 1.765669
v -0.351560 1.064079 1.773333
v -0.364925 1.998335 2.360934
v -0.444808 1.429879 2.301301
v -0.364925 1.147062 2.209159
v -0.293568 2.618924 1.479477
v -0.294630 1.045423 1.666654
v -0.287169 2.616663 1.276950
v -0.355746 1.843029 2.614754
v -0.433703 1.347285 2.566225
v -0.355746 0.944356 2.526711
v -0.287711 1.055541 1.632873
v -0.250990 2.456718 0.911335
v -0.309807 1.043867 1.395078
v -0.372539 1.560567 2.770839
v -0.455708 1.353799 2.710939
v -0.382651 0.885532 2.663474
v -0.250658 1.664984 -0.901522
v -0.203142 2.107677 -0.851548
v -0.335921 1.366202 -0.771271
v -0.241143 1.283528 3.120888
v -0.339854 1.061031 2.982802
v -0.276080 0.776838 2.885717
v -0.249222 2.266644 -0.660536
v -0.296485 1.205431 -0.542015
v -0.307079 2.557765 0.093948
v -0.069124 0.839634 3.303839
v -0.125993 0.713304 3.197738
v -0.103346 0.691887 3.116320
v -0.064203 0.787549 3.300635
v -0.465527 1.383309 2.803971
v -0.353261 0.827631 2.773360
v -0.319445 0.944085 0.115495
v -0.402860 1.513526 2.848098
v -0.267639 2.510685 0.480969
v -0.270313 0.933824 0.626226
v -0.301209 2.454767 -0.393280
v -0.373642 1.097103 -0.296400
v -0.186642 0.755909 2.971426
v -0.210413 0.887160 3.090281
v -0.175549 1.064587 3.117949
v -0.070240 0.693378 3.053455
v -0.067630 0.926723 3.242592
v -0.139993 0.713087 3.049152
v -0.161300 0.801171 3.143560
v -0.134901 0.921163 3.210341
v -0.611614 2.246761 0.987837
v -0.707399 1.618675 0.936852
v -0.641109 1.122425 1.245723
v -0.672044 2.396656 1.230875
v -0.785607 1.595164 1.429423
v -0.801895 1.095649 1.685136
v -0.636698 2.421940 1.417878
v -0.799248 1.684987 1.581858
v -0.813664 1.093139 1.865053
v -0.641460 2.279968 1.587959
v -0.751435 1.792596 1.740061
v -0.746196 1.120412 1.994278
v -0.432241 0.652969 1.465499
v -0.529349 0.684134 1.390258
v -0.751043 0.676711 1.924758
v -0.601517 0.651286 1.971367
v -0.800642 0.661958 1.805414
v -0.414490 0.614826 1.697741
v -0.791858 0.666432 1.674824
v -0.673511 0.707130 1.385470
v -0.419700 0.608436 1.830104
v -0.462854 0.634155 1.909372
v -0.766342 0.475958 1.888682
v -0.618420 0.474022 1.933458
v -0.562542 -0.046960 1.543927
v -0.817136 0.458050 1.799817
v -0.436530 0.426088 1.718738
v -0.447600 -0.043403 1.602405
v -0.805691 0.442059 1.700103
v -0.689452 0.423504 1.527418
v -0.437905 0.443598 1.832489
v -0.480991 0.462297 1.902065
v -0.459037 0.217814 1.570329
v -0.562806 0.213536 1.515686
v -0.799098 0.276506 1.846371
v -0.637411 0.278341 1.887431
v -0.819040 0.255828 1.765925
v -0.441048 0.231483 1.691911
v -0.808813 0.237929 1.675165
v -0.715644 0.217936 1.518462
v -0.444061 0.251227 1.794875
v -0.487967 0.269631 1.857751
v -0.851421 -0.002307 1.898901
v -0.645171 -0.004294 1.941397
v -0.682826 -0.016235 1.818437
v -0.847668 -0.012908 1.811747
v -0.427780 -0.031669 1.732609
v -0.671771 -0.029609 1.712523
v -0.837677 -0.026145 1.715261
v -0.731967 -0.043115 1.547203
v -0.433506 -0.016898 1.842866
v -0.452075 -0.008697 1.911253
v -0.450771 0.092580 1.587133
v -0.437056 0.124666 1.820827
v -0.431570 0.106194 1.713318
v -0.826404 0.112050 1.696195
v -0.836008 0.128911 1.790469
v -0.818664 0.200705 1.867633
v -0.643624 0.198989 1.913243
v -0.725450 0.092266 1.533626
v -0.561814 0.088127 1.530571
v -0.480145 0.194420 1.879616
v -0.642293 0.120916 2.059040
v -0.645245 0.004327 2.077136
v -0.821283 0.005663 2.034340
v -0.482626 -0.000026 2.046504
v -0.812303 0.122826 2.016754
v -0.485204 0.117218 2.028279
v -0.760123 2.311251 -0.268584
v -0.793758 1.788769 -0.082862
v -0.779638 1.208216 -0.292243
v -0.751248 2.248415 -0.506027
v -0.864893 1.820976 -0.568650
v -0.825787 1.314661 -0.529358
v -0.743129 2.129493 -0.708663
v -0.844413 1.831562 -0.788180
v -0.755772 1.444845 -0.770419
v -0.638004 0.303604 -1.166970
v -0.541036 1.155891 -0.941626
v -0.654279 0.979674 -0.352301
v -0.457620 0.980374 -0.416786
v -0.397066 1.054482 -0.668436
v -0.429218 1.136459 -0.898175
v -0.819604 1.074591 -0.660349
v -0.763973 1.146865 -0.903730
v -0.782321 1.005393 -0.425611
v -0.560329 0.973782 -0.960953
v -0.668788 0.559636 -0.608799
v -0.488795 0.602021 -0.656857
v -0.430920 0.799784 -0.793093
v -0.458700 0.945280 -0.932282
v -0.816131 0.800841 -0.775404
v -0.763592 0.955548 -0.930073
v -0.784678 0.618999 -0.645947
v -0.578248 0.458303 -1.348863
v -0.702733 0.185829 -0.980351
v -0.447669 0.194792 -1.038159
v -0.433394 0.311320 -1.195868
v -0.465062 0.432274 -1.326070
v -0.861980 0.320002 -1.179528
v -0.804401 0.443449 -1.323851
v -0.868663 0.216040 -1.031040
v -0.856367 0.380704 -0.903662
v -0.422802 0.486874 -1.051946
v -0.454392 0.611411 -1.176446
v -0.435306 0.362846 -0.911112
v -0.690606 0.342538 -0.864128
v -0.567537 0.639377 -1.197059
v -0.793720 0.623075 -1.172558
v -0.817442 0.239482 -0.863380
v -0.826370 0.142779 -0.911505
v -0.696673 0.112679 -0.862794
v -0.497072 0.122837 -0.918335
v -0.488206 0.216431 -0.871072
v -0.687673 0.213002 -0.815030
v -0.810105 0.659983 -0.892418
v -0.450909 0.655101 -0.905828
v -0.671540 0.493603 -0.738315
v -0.779932 0.533633 -0.774569
v -0.476957 0.779216 -1.013633
v -0.503921 0.520343 -0.781492
v -0.571714 0.805212 -1.032725
v -0.761305 0.788766 -1.011173
v -0.092527 1.735076 -0.967571
v -0.076591 1.955334 -0.937061
v -0.128020 1.730042 -0.919586
v -0.088882 2.048142 -0.898695
v -0.353936 1.703946 2.710134
v -0.462452 1.280992 2.660658
v -0.346085 1.480082 2.972831
v -0.469988 1.221548 2.855383
v -0.431634 1.593011 2.815071
v -0.509515 1.573747 2.829433
v -0.472450 1.597254 2.832754
v -0.537234 1.539009 2.814796
v -0.536419 1.457861 2.773223
v -0.550043 1.498888 2.795730
v -0.514399 1.530855 2.859646
v -0.455471 1.541675 2.864146
v -0.486059 1.545868 2.867011
v -0.527030 1.459406 2.828728
v -0.527210 1.516838 2.852449
v -0.537319 1.489076 2.839912
v -0.372831 1.522143 2.851395
v -0.460350 1.341229 2.787374
v -0.490673 1.568699 2.876027
v -0.529939 1.547693 2.866334
v -0.447174 1.562577 2.872360
v -0.548145 1.527522 2.856728
v -0.562047 1.489129 2.840013
v -0.548125 1.449046 2.824713
v -0.383871 1.499298 2.843310
v -0.450291 1.362026 2.794732
v -0.413090 1.499856 2.831714
v -0.458299 1.405919 2.799881
v -0.473111 1.523190 2.845360
v -0.493557 1.512360 2.840047
v -0.451044 1.520165 2.843293
v -0.502798 1.502249 2.834855
v -0.510091 1.482223 2.825811
v -0.502668 1.460820 2.817744
v -0.399391 1.489597 2.828263
v -0.447307 1.390564 2.793214
v -0.058900 0.852342 3.295570
v -0.055763 0.764286 3.291761
v -0.099802 0.859460 3.268316
v -0.095412 0.771006 3.265326
v -0.030579 0.783444 3.321756
v 0.291561 1.086551 3.019169
v 0.306648 1.152364 3.042554
v 0.269728 1.079515 3.060502
v 0.232186 1.039934 3.053545
v 0.245906 1.088320 3.031297
v 0.291926 1.157806 3.024505
v 0.256597 1.146421 3.091385
v 0.210577 1.076936 3.098177
v 0.195855 1.082377 3.080128
v 0.232775 1.155226 3.062180
v 0.270316 1.194808 3.069137
v 0.210942 1.148190 3.103513
v 0.285805 1.077005 3.036060
v 0.307506 1.119824 3.025510
v 0.294673 1.115688 3.049805
v 0.307720 1.161706 3.028647
v 0.298852 1.123022 3.014901
v 0.263739 1.053739 3.031971
v 0.250905 1.049603 3.056266
v 0.271803 1.082180 3.018894
v 0.236903 1.054779 3.039100
v 0.272017 1.124062 3.022030
v 0.295019 1.183455 3.054881
v 0.286365 1.186654 3.044272
v 0.265254 1.112195 3.078507
v 0.286955 1.155015 3.067957
v 0.216138 1.048087 3.078411
v 0.238204 1.071352 3.082500
v 0.215548 1.079726 3.054724
v 0.207484 1.051286 3.067801
v 0.264299 1.163389 3.040182
v 0.237249 1.122546 3.044175
v 0.265600 1.179962 3.083583
v 0.230486 1.110679 3.100652
v 0.194783 1.073035 3.094035
v 0.207830 1.119053 3.072877
v 0.251598 1.185138 3.066417
v 0.230700 1.152561 3.103788
v 0.238764 1.181002 3.090712
v 0.203650 1.111719 3.107781
v 0.194997 1.114917 3.097172
v 0.216698 1.157737 3.086622
v -0.291561 1.086551 3.019169
v -0.306648 1.152364 3.042554
v -0.269728 1.079515 3.060503
v -0.232186 1.039934 3.053545
v -0.245906 1.088320 3.031298
v -0.291925 1.157805 3.024505
v -0.256597 1.146421 3.091385
v -0.210577 1.076936 3.098177
v -0.195854 1.082377 3.080128
v -0.232775 1.155226 3.062180
v -0.270316 1.194807 3.069137
v -0.210942 1.148190 3.103514
v -0.285805 1.077004 3.036060
v -0.307506 1.119823 3.025511
v -0.294673 1.115688 3.049806
v -0.307720 1.161706 3.028647
v -0.298852 1.123022 3.014901
v -0.263739 1.053739 3.031971
v -0.250905 1.049603 3.056266
v -0.271803 1.082180 3.018894
v -0.236903 1.054779 3.039100
v -0.272017 1.124062 3.022031
v -0.295019 1.183455 3.054881
v -0.286365 1.186654 3.044272
v -0.265254 1.112195 3.078507
v -0.286955 1.155015 3.067958
v -0.216137 1.048087 3.078411
v -0.238204 1.071352 3.082500
v -0.215548 1.079726 3.054725
v -0.207484 1.051286 3.067801
v -0.264299 1.163389 3.040183
v -0.237249 1.122546 3.044175
v -0.265599 1.179962 3.083583
v -0.230486 1.110679 3.100652
v -0.194782 1.073035 3.094035
v -0.207830 1.119053 3.072877
v -0.251597 1.185138 3.066417
v -0.230700 1.152561 3.103789
v -0.238764 1.181002 3.090712
v -0.203650 1.111719 3.107781
v -0.194997 1.114917 3.097172
v -0.216698 1.157736 3.086623
vn -0.8596 -0.4822 0.1694
vn 0.3785 0.7527 -0.5387
vn 0.9841 -0.1580 -0.0818
vn 0.9895 0.1409 -0.0310
vn 0.9626 0.1768 0.2052
vn 0.9695 -0.1322 0.2062
vn 0.9633 -0.2002 0.1788
vn 0.5198 -0.7887 0.3282
vn 0.3174 -0.9404 -0.1220
vn 0.3092 -0.9211 0.2364
vn 0.1146 0.9633 -0.2425
vn 0.1796 0.9720 0.1513
vn 0.3549 0.6560 -0.6661
vn 0.2506 -0.3706 -0.8943
vn 0.2653 -0.9226 -0.2801
vn 0.6851 0.4043 0.6059
vn 0.3057 0.1356 -0.9424
vn 0.1524 -0.4634 -0.8729
vn 0.2889 0.1574 -0.9443
vn 0.2490 -0.8857 -0.3919
vn 0.7894 0.6130 0.0322
vn 0.9942 -0.0643 -0.0866
vn 0.1531 0.9799 0.1276
vn 0.9788 0.1804 0.0969
vn 0.3886 -0.4241 -0.8180
vn 0.1051 0.9943 -0.0170
vn 0.0001 0.9131 -0.4077
vn -0.7083 0.1590 -0.6878
vn 0.6137 0.2039 -0.7628
vn 0.1602 0.9587 0.2351
vn -0.9702 -0.1533 -0.1878
vn 0.9298 0.1073 -0.3521
vn 0.0125 0.7964 -0.6047
vn 0.8711 -0.1820 0.4562
vn 0.0590 -0.7322 0.6785
vn 0.5263 -0.8325 0.1729
vn 0.2608 -0.9486 -0.1791
vn 0.3294 -0.9340 0.1384
vn 0.3285 -0.6557 0.6799
vn 0.7135 0.5488 -0.4355
vn 0.3340 0.9180 -0.2137
vn 0.9397 -0.3235 0.1105
vn 0.2677 -0.8872 -0.3757
vn 0.2983 0.9450 0.1342
vn 0.2069 0.7384 0.6418
vn 0.0857 0.7977 -0.5969
vn 0.8597 0.1247 0.4954
vn 0.4688 -0.2848 0.8361
vn 0.8322 0.1236 -0.5405
vn 0.3356 -0.3767 -0.8634
vn 0.9855 0.1360 0.1011
vn 0.9744 0.0364 -0.2217
vn 0.1700 0.7681 0.6174
vn 0.6014 -0.7845 -0.1514
vn 0.9426 0.0995 0.3189
vn 0.2912 0.9473 0.1338
vn 0.2680 0.9632 -0.0207
vn 0.9791 0.1915 0.0682
vn 0.2110 0.8801 -0.4252
vn 0.0750 0.7528 0.6539
vn 0.1316 -0.8347 -0.5347
vn 0.9745 -0.2138 -0.0678
vn 0.2991 0.9232 0.2414
vn 0.1166 0.8250 0.5529
vn -0.0043 0.5582 0.8297
vn 0.4456 -0.8812 -0.1575
vn 0.8386 -0.3364 0.4286
vn 0.2122 -0.9345 -0.2858
vn 0.2531 -0.7779 0.5752
vn 0.1840 -0.8893 -0.4187
vn 0.9332 -0.1699 -0.3166
vn 0.2546 -0.9305 0.2633
vn 0.8717 -0.4829 0.0828
vn 0.3324 -0.9223 -0.1969
vn 0.2206 -0.9202 -0.3234
vn 0.3118 0.7111 0.6301
vn 0.3358 0.7232 0.6035
vn 0.7579 0.0043 0.6523
vn 0.4497 0.6063 0.6559
vn 0.1536 -0.8263 -0.5419
vn 0.1859 -0.9564 0.2254
vn 0.8837 -0.0648 0.4635
vn 0.3495 0.7884 0.5062
vn 0.3810 0.4411 0.8126
vn 0.1217 -0.9382 -0.3239
vn 0.4144 0.4912 0.7662
vn 0.1593 -0.8965 -0.4135
vn 0.5346 -0.0991 0.8393
vn 0.1479 -0.9163 -0.3721
vn 0.3937 -0.9072 0.1485
vn -0.3043 -0.4819 0.8217
vn -0.0092 0.5919 0.8060
vn 0.1792 -0.8946 -0.4094
vn 0.9707 -0.2394 -0.0226
vn 0.0310 -0.6393 0.7684
vn 0.0490 0.6541 0.7549
vn 0.6301 -0.1082 0.7689
vn 0.1441 -0.9096 -0.3896
vn -0.1346 -0.0724 0.9883
vn 0.4472 0.6326 0.6324
vn 0.3323 -0.1508 0.9311
vn 0.0463 -0.9923 -0.1151
vn 0.3308 -0.9413 0.0678
vn 0.7809 -0.4097 0.4716
vn 0.4028 0.4200 0.8133
vn 0.1485 -0.9035 -0.4021
vn 0.8472 0.0058 0.5312
vn -0.0169 0.4907 0.8712
vn 0.2233 -0.9016 -0.3704
vn 0.8796 -0.4120 0.2378
vn 0.9502 -0.0679 -0.3040
vn 0.9595 0.2807 0.0233
vn 0.9346 0.2101 -0.2869
vn 0.9220 0.3394 0.1865
vn 0.9981 0.0353 -0.0511
vn 0.9406 0.0139 0.3394
vn 0.6904 0.2442 0.6810
vn 0.8731 0.4289 0.2317
vn -0.2366 -0.7040 0.6697
vn 0.2392 -0.0388 0.9702
vn 0.0238 0.1720 -0.9848
vn 0.8802 -0.3530 0.3173
vn -0.9825 0.0608 -0.1763
vn -0.9993 -0.0076 -0.0371
vn 0.9990 0.0290 -0.0348
vn 0.2978 -0.7540 0.5855
vn 0.8934 -0.3451 0.2876
vn -0.8164 -0.5190 0.2532
vn -0.0392 0.2791 -0.9595
vn -0.9607 -0.1492 -0.2339
vn 0.9012 -0.3876 0.1940
vn -0.9760 0.2077 -0.0654
vn -0.9994 0.0354 -0.0059
vn 0.9982 0.0437 -0.0405
vn 0.2206 -0.9009 0.3738
vn 0.8658 0.4681 -0.1768
vn -0.8887 -0.3778 0.2596
vn -0.2565 -0.7906 0.5560
vn -0.4660 0.2002 -0.8618
vn 0.8940 0.1644 -0.4169
vn 0.0784 0.8465 -0.5266
vn 0.9917 -0.0526 0.1173
vn -0.9753 0.2157 -0.0480
vn -0.9976 0.0396 0.0571
vn 0.9983 0.0586 0.0077
vn 0.9657 -0.1847 0.1826
vn 0.0746 0.8964 -0.4369
vn -0.8501 -0.4917 0.1885
vn -0.2642 -0.9017 0.3421
vn -0.4529 0.8090 -0.3747
vn -0.0220 -0.4631 -0.8861
vn 0.0342 -0.3122 -0.9494
vn -0.0324 -0.3963 -0.9175
vn -0.0218 -0.4626 -0.8863
vn -0.0609 -0.2863 -0.9562
vn -0.0007 -0.3988 -0.9170
vn -0.9289 -0.2482 0.2750
vn -0.9854 -0.0472 0.1635
vn -0.3967 0.7934 -0.4617
vn 0.8748 0.4208 -0.2399
vn 0.8834 0.3931 -0.2552
vn -0.4145 0.7433 -0.5250
vn -0.2637 -0.6595 0.7040
vn -0.8817 -0.2824 0.3779
vn 0.2159 -0.6509 0.7278
vn 0.9959 0.0856 0.0305
vn -0.9934 0.0806 0.0817
vn -0.9734 0.2276 -0.0256
vn 0.9718 -0.0810 0.2216
vn 0.0731 0.7874 -0.6120
vn 0.1806 -0.9136 0.3644
vn -0.2604 -0.8930 0.3671
vn 0.0921 -0.2700 0.9584
vn 0.0385 -0.2558 -0.9660
vn -0.1032 -0.2539 0.9617
vn -0.0654 -0.2426 -0.9679
vn 0.9871 0.1544 0.0416
vn 0.9593 -0.2145 -0.1837
vn 0.9855 -0.0501 0.1623
vn 0.9503 0.2457 -0.1912
vn 0.5712 -0.1474 0.8075
vn 0.4868 0.7454 -0.4555
vn 0.9837 -0.0697 0.1656
vn 0.3786 0.6571 -0.6518
vn -0.9734 -0.0894 0.2110
vn -0.3599 -0.1676 -0.9178
vn -0.3313 -0.0795 0.9402
vn 0.9880 -0.0195 0.1532
vn 0.1932 0.1646 -0.9673
vn -0.2868 0.0391 -0.9572
vn -0.9288 -0.3099 -0.2033
vn -0.2374 -0.4254 0.8733
vn -0.2777 -0.0764 -0.9576
vn -0.9415 -0.0013 0.3372
vn 0.9991 0.0356 -0.0243
vn -0.9811 -0.0461 -0.1878
vn 0.5076 -0.0455 0.8604
vn 0.1879 -0.1412 -0.9720
vn 0.9775 -0.0357 -0.2078
vn -0.9825 -0.1139 -0.1473
vn 0.0023 -0.9953 0.0969
vn 0.0563 -0.9955 0.0768
vn 0.0419 -0.9991 0.0084
vn 0.0076 -0.9997 0.0228
vn -0.9977 -0.0323 0.0599
vn 0.9429 0.0908 0.3203
vn 0.1388 -0.0639 -0.9883
vn 0.9603 0.0121 -0.2788
vn 0.9582 0.1238 -0.2580
vn 0.1488 -0.0559 -0.9873
vn 0.3528 0.1876 0.9167
vn -0.9563 0.2478 0.1550
vn -0.9793 0.1095 -0.1703
vn 0.9611 0.2647 0.0790
vn -0.2413 0.1486 0.9590
vn -0.2970 -0.0397 -0.9541
vn -0.2586 0.1957 0.9460
vn 0.3848 0.2287 0.8942
vn -0.1947 0.7964 0.5726
vn 0.0672 -0.9915 0.1117
vn 0.2334 0.7870 0.5711
vn -0.0002 -0.9926 0.1217
vn -0.3022 -0.3250 -0.8961
vn -0.3085 -0.2569 0.9159
vn 0.9858 -0.0490 0.1608
vn -0.9783 -0.1218 -0.1677
vn -0.9699 -0.0943 0.2246
vn 0.4722 -0.2317 0.8505
vn 0.1626 -0.3187 -0.9338
vn 0.9683 -0.0880 -0.2336
vn 0.3461 0.1467 -0.9267
vn 0.2919 -0.8417 -0.4541
vn 0.3507 0.3110 -0.8834
vn 0.2375 0.5423 -0.8059
vn 0.2155 -0.2232 -0.9506
vn 0.3386 0.0863 -0.9370
vn 0.9575 0.2785 0.0748
vn 0.9321 0.2777 0.2327
vn 0.9963 0.0827 -0.0228
vn 0.8963 0.2941 0.3320
vn -0.5839 0.6975 0.4155
vn 0.7672 0.6414 0.0005
vn 0.8103 -0.5523 -0.1959
vn 0.5183 0.8021 0.2965
vn -0.2376 0.8009 0.5496
vn 0.9133 0.3788 -0.1494
vn 0.9428 -0.1939 -0.2710
vn 0.2581 0.4256 -0.8673
vn -0.0623 -0.3595 0.9310
vn 0.0301 -0.3811 0.9240
vn -0.0306 -0.3686 0.9291
vn 0.0068 -0.4023 0.9155
vn -0.0000 -0.3550 0.9349
vn 0.0379 -0.4129 0.9100
vn -0.0433 -0.4113 0.9105
vn 0.0464 -0.3532 0.9344
vn -0.0027 -0.3668 0.9303
vn 0.0090 -0.3297 0.9440
vn 0.1658 -0.7038 0.6908
vn -0.0315 -0.3409 0.9396
vn 0.2955 -0.6347 0.7140
vn -0.4092 0.0340 0.9118
vn -0.4126 -0.1925 0.8903
vn -0.1426 -0.6397 0.7553
vn 0.7270 0.1120 0.6775
vn -0.2086 -0.5908 0.7794
vn -0.5106 -0.0077 0.8598
vn 0.0288 -0.6988 0.7147
vn 0.3193 0.6838 0.6561
vn 0.5296 -0.4632 0.7106
vn 0.5248 -0.5200 0.6739
vn -0.0292 -0.0672 0.9973
vn 0.0200 -0.8211 0.5705
vn -0.0339 0.8676 0.4961
vn 0.7525 -0.0787 0.6538
vn 0.8168 -0.5767 0.0146
vn -0.2252 0.8765 -0.4255
vn -0.9887 -0.1293 -0.0759
vn -0.9879 0.1542 -0.0184
vn -0.9628 0.1582 0.2189
vn -0.9786 -0.1280 0.1612
vn -0.9766 -0.1576 0.1460
vn -0.1747 -0.9752 0.1355
vn -0.2536 -0.9006 -0.3530
vn -0.1616 -0.9868 -0.0031
vn -0.1038 0.9663 -0.2354
vn -0.1793 0.9720 0.1516
vn -0.1042 0.7776 -0.6201
vn -0.2216 -0.1495 -0.9636
vn -0.2927 -0.8744 -0.3870
vn -0.5917 0.3339 0.7338
vn -0.1477 0.2279 -0.9624
vn -0.1072 -0.2727 -0.9561
vn -0.2042 0.3366 -0.9192
vn -0.3779 -0.7999 -0.4663
vn -0.8379 0.5457 0.0134
vn -0.9976 -0.0213 -0.0665
vn -0.1540 0.9797 0.1281
vn -0.9825 0.1512 0.1085
vn -0.3170 -0.5397 -0.7799
vn -0.1169 0.9930 -0.0175
vn -0.0081 0.9145 -0.4045
vn 0.6420 -0.3829 -0.6643
vn -0.6638 0.1357 -0.7355
vn -0.1660 0.9584 0.2321
vn 0.9633 -0.2650 0.0440
vn -0.9325 -0.0305 -0.3600
vn 0.0198 0.8089 -0.5876
vn -0.5295 0.0829 0.8442
vn 0.3789 -0.3667 0.8497
vn 0.0257 -0.9914 0.1283
vn -0.1597 -0.9519 -0.2614
vn -0.0346 -0.9984 0.0458
vn -0.1297 -0.0882 0.9876
vn -0.7694 0.4849 -0.4158
vn -0.3186 0.9289 -0.1886
vn -0.9405 -0.3258 0.0967
vn -0.2869 -0.8487 -0.4442
vn -0.2992 0.9439 0.1399
vn -0.2079 0.7385 0.6414
vn -0.0153 0.8040 -0.5944
vn -0.8602 0.1321 0.4925
vn -0.4830 -0.4606 0.7447
vn -0.8008 0.1376 -0.5830
vn -0.1938 -0.3052 -0.9324
vn -0.9856 0.1359 0.1009
vn -0.9724 0.1058 -0.2080
vn -0.1702 0.7681 0.6173
vn -0.2678 -0.9615 -0.0610
vn -0.9433 0.1040 0.3152
vn -0.3022 0.9434 0.1368
vn -0.2958 0.9550 -0.0199
vn -0.9791 0.1915 0.0682
vn -0.2316 0.8791 -0.4166
vn -0.0750 0.7528 0.6539
vn -0.1316 -0.8347 -0.5347
vn -0.9750 -0.2111 -0.0694
vn -0.3263 0.9155 0.2352
vn -0.1166 0.8250 0.5529
vn 0.0043 0.5582 0.8297
vn -0.2200 -0.9671 0.1281
vn -0.8386 -0.3364 0.4286
vn -0.2122 -0.9345 -0.2858
vn -0.0481 -0.6947 0.7177
vn -0.1840 -0.8893 -0.4187
vn -0.9332 -0.1699 -0.3166
vn -0.0256 -0.9182 0.3953
vn -0.8717 -0.4829 0.0828
vn -0.3324 -0.9223 -0.1969
vn -0.2631 -0.9022 -0.3418
vn -0.3432 0.6948 0.6321
vn -0.3597 0.7223 0.5907
vn -0.7579 0.0042 0.6523
vn -0.4497 0.6063 0.6559
vn -0.1536 -0.8263 -0.5419
vn -0.1859 -0.9564 0.2254
vn -0.8837 -0.0648 0.4635
vn -0.3495 0.7884 0.5062
vn -0.3810 0.4411 0.8126
vn -0.1217 -0.9382 -0.3239
vn -0.4144 0.4912 0.7662
vn -0.1593 -0.8965 -0.4135
vn -0.5346 -0.0991 0.8393
vn -0.1479 -0.9163 -0.3721
vn -0.3937 -0.9072 0.1485
vn 0.3043 -0.4819 0.8217
vn 0.0092 0.5919 0.8060
vn -0.1792 -0.8946 -0.4094
vn -0.9707 -0.2394 -0.0226
vn -0.0310 -0.6393 0.7684
vn -0.0490 0.6541 0.7549
vn -0.6301 -0.1082 0.7689
vn -0.1441 -0.9096 -0.3896
vn 0.1346 -0.0724 0.9883
vn -0.4472 0.6326 0.6324
vn -0.3323 -0.1508 0.9311
vn -0.0463 -0.9923 -0.1151
vn -0.3308 -0.9413 0.0678
vn -0.7809 -0.4097 0.4716
vn -0.4028 0.4200 0.8133
vn -0.1485 -0.9035 -0.4021
vn -0.8472 0.0058 0.5312
vn 0.0169 0.4907 0.8712
vn -0.2233 -0.9016 -0.3704
vn -0.8796 -0.4120 0.2378
vn -0.9482 -0.1913 -0.2535
vn -0.9842 0.1773 0.0028
vn -0.9715 0.1212 -0.2039
vn -0.9558 0.2519 0.1517
vn -0.9972 -0.0085 -0.0740
vn -0.9399 0.1393 0.3116
vn -0.7550 0.2542 0.6045
vn -0.9048 0.3560 0.2336
vn 0.6427 -0.0218 0.7658
vn -0.0361 0.3189 0.9471
vn -0.0427 -0.4446 -0.8947
vn -0.9021 0.0265 0.4308
vn 0.9818 -0.1492 -0.1171
vn 0.9933 -0.1110 0.0316
vn -0.9937 0.0662 -0.0906
vn -0.3033 -0.1581 0.9397
vn -0.8975 -0.0726 0.4350
vn 0.8714 -0.0698 0.4857
vn -0.1414 -0.3424 -0.9289
vn 0.9489 -0.3002 -0.0973
vn -0.9232 0.0068 0.3842
vn 0.9882 0.0024 -0.1532
vn 0.9992 -0.0318 0.0257
vn -0.9926 0.0294 -0.1182
vn -0.2630 -0.1776 0.9483
vn -0.8337 0.1045 -0.5423
vn 0.8479 -0.0991 0.5208
vn 0.3024 -0.1522 0.9410
vn 0.4753 -0.4306 -0.7673
vn -0.8855 -0.0976 -0.4543
vn -0.0213 -0.0985 -0.9949
vn -0.9913 0.1302 0.0167
vn 0.9885 0.0061 -0.1510
vn 0.9984 0.0331 0.0464
vn -0.9916 0.0651 -0.1121
vn -0.9750 0.1519 0.1624
vn -0.0182 0.0448 -0.9988
vn 0.8068 -0.1492 0.5717
vn 0.1864 -0.2344 0.9541
vn 0.5016 0.0347 -0.8644
vn -0.0160 -0.9956 0.0921
vn -0.0290 -0.9934 0.1112
vn -0.0170 -0.9917 0.1278
vn -0.0201 -0.9959 0.0887
vn -0.0100 -0.9944 0.1057
vn -0.0219 -0.9915 0.1281
vn 0.9220 0.1408 0.3607
vn 0.9815 0.1175 0.1515
vn 0.4544 -0.0895 -0.8863
vn -0.8483 -0.0080 -0.5294
vn -0.8533 0.0180 -0.5211
vn 0.4607 -0.0946 -0.8825
vn 0.2016 0.2906 0.9354
vn 0.8569 0.1777 0.4840
vn -0.2364 0.3179 0.9182
vn -0.9856 0.1119 -0.1267
vn 0.9971 0.0704 0.0275
vn 0.9871 0.0465 -0.1533
vn -0.9732 0.2008 0.1124
vn -0.0215 -0.1181 -0.9928
vn -0.2343 0.1584 0.9592
vn 0.1901 0.1504 0.9702
vn -0.1097 0.8775 0.4669
vn -0.0229 -0.9977 0.0636
vn 0.1159 0.8780 0.4644
vn -0.0140 -0.9980 0.0621
vn -0.9836 0.1626 0.0778
vn -0.9599 -0.1523 -0.2352
vn -0.9867 -0.0712 0.1464
vn -0.9411 0.3068 -0.1425
vn -0.6047 -0.3302 0.7247
vn -0.3825 0.8888 -0.2523
vn -0.9859 -0.0915 0.1403
vn -0.2504 0.7898 -0.5599
vn 0.9681 -0.1921 0.1609
vn 0.3369 0.0901 -0.9372
vn 0.2989 -0.5163 0.8026
vn -0.9880 -0.0714 0.1372
vn -0.1450 0.4224 -0.8947
vn 0.4007 0.3081 -0.8628
vn 0.9171 -0.2751 -0.2885
vn 0.1317 -0.6647 0.7354
vn 0.2868 0.6047 -0.7430
vn 0.9336 -0.2480 0.2586
vn -0.9981 0.0621 0.0067
vn 0.9827 0.0796 -0.1673
vn -0.4929 -0.4352 0.7534
vn -0.1660 0.1280 -0.9778
vn -0.9715 0.0615 -0.2289
vn 0.9774 -0.0675 -0.2004
vn -0.0098 -0.8330 -0.5533
vn -0.0785 -0.8157 -0.5731
vn -0.0557 -0.7458 -0.6638
vn -0.0207 -0.7571 -0.6530
vn 0.9962 -0.0838 0.0219
vn -0.9432 -0.1290 0.3062
vn -0.1270 0.6425 -0.7557
vn -0.9562 0.2198 -0.1932
vn -0.9500 0.2974 -0.0948
vn -0.1328 0.7004 -0.7013
vn -0.3630 -0.5291 0.7670
vn 0.9584 0.0461 0.2818
vn 0.9813 0.1874 -0.0429
vn -0.9589 0.1491 0.2412
vn 0.2302 -0.5984 0.7675
vn 0.3039 0.6793 -0.6680
vn 0.2552 -0.4443 0.8587
vn -0.3953 -0.3726 0.8396
vn 0.1995 0.2683 0.9424
vn -0.0972 -0.8412 -0.5319
vn -0.2182 0.2753 0.9363
vn 0.0033 -0.8505 -0.5259
vn 0.3155 0.3716 -0.8732
vn 0.2886 -0.8365 0.4659
vn -0.9878 -0.1336 0.0797
vn 0.9787 0.0076 -0.2050
vn 0.9642 -0.2480 0.0939
vn -0.4803 -0.7582 0.4410
vn -0.1562 0.4132 -0.8971
vn -0.9653 0.1225 -0.2307
vn -0.3339 0.1516 -0.9303
vn -0.3490 -0.8568 -0.3796
vn -0.3507 0.3110 -0.8834
vn -0.2084 0.5023 -0.8392
vn -0.1875 -0.2019 -0.9613
vn -0.2661 0.1194 -0.9565
vn -0.9575 0.2785 0.0748
vn -0.9321 0.2777 0.2327
vn -0.9963 0.0827 -0.0228
vn -0.8963 0.2941 0.3320
vn 0.5839 0.6974 0.4155
vn -0.7672 0.6414 0.0005
vn -0.8103 -0.5523 -0.1959
vn -0.5183 0.8021 0.2965
vn 0.2376 0.8009 0.5496
vn -0.9133 0.3788 -0.1494
vn -0.9428 -0.1939 -0.2710
vn -0.2581 0.4256 -0.8673
vn 0.0623 -0.3595 0.9310
vn -0.0301 -0.3811 0.9240
vn 0.0306 -0.3686 0.9291
vn -0.0068 -0.4023 0.9155
vn -0.0379 -0.4129 0.9100
vn 0.0433 -0.4113 0.9105
vn -0.0464 -0.3532 0.9344
vn 0.0027 -0.3668 0.9303
vn -0.0090 -0.3297 0.9440
vn -0.1659 -0.7038 0.6908
vn 0.0315 -0.3408 0.9396
vn -0.2955 -0.6347 0.7140
vn 0.4092 0.0340 0.9118
vn 0.4126 -0.1925 0.8903
vn 0.1426 -0.6397 0.7553
vn -0.7270 0.1120 0.6775
vn 0.2086 -0.5908 0.7794
vn 0.5106 -0.0077 0.8598
vn -0.0288 -0.6988 0.7147
vn -0.3193 0.6838 0.6561
vn -0.5296 -0.4632 0.7106
vn -0.5248 -0.5200 0.6739
vn 0.0292 -0.0672 0.9973
vn -0.0200 -0.8211 0.5705
vn 0.0339 0.8676 0.4961
vn -0.7525 -0.0787 0.6538
vn 0.8961 -0.4402 0.0566
vn 0.9975 -0.0103 0.0700
vn 0.7307 -0.6702 -0.1298
vn 0.1099 -0.4408 -0.8909
vn 0.0413 -0.1243 -0.9914
vn 0.9363 0.2539 0.2428
vn 0.6878 -0.2758 0.6715
vn 0.3444 -0.8034 0.4857
vn -0.6069 -0.0219 -0.7945
vn -0.4208 0.3108 -0.8522
vn 0.7919 0.0551 0.6082
vn 0.5964 -0.3232 0.7348
vn -0.3952 -0.9175 0.0458
vn -0.6285 0.1296 -0.7669
vn -0.3576 0.4800 -0.8011
vn 0.4470 0.0871 0.8903
vn 0.2431 -0.2129 0.9463
vn -0.9975 0.0103 -0.0699
vn -0.7601 0.3652 -0.5375
vn -0.4475 0.8902 -0.0849
vn -0.7307 0.6702 0.1298
vn -0.6821 0.6897 -0.2429
vn -0.6942 0.5089 -0.5089
vn -0.8961 0.4402 -0.0566
vn -0.8552 0.3362 -0.3945
vn -0.8798 0.2022 -0.4303
vn -0.7220 0.2211 0.6556
vn -0.7805 -0.0427 0.6237
vn -0.1738 -0.2941 0.9398
vn -0.0413 0.1243 0.9914
vn 0.2534 -0.0735 0.9646
vn 0.4174 -0.0700 0.9060
vn -0.1099 0.4407 0.8909
vn 0.2535 0.3438 0.9042
vn 0.2197 0.6436 0.7332
vn -0.3444 0.8034 -0.4857
vn -0.4625 0.5595 -0.6878
vn -0.5848 0.4624 -0.6665
vn -0.6878 0.2758 -0.6715
vn -0.6976 0.1829 -0.6928
vn -0.7767 0.1318 -0.6159
vn -0.9363 -0.2540 -0.2428
vn -0.6272 -0.7211 0.2942
vn -0.0725 -0.5732 0.8162
vn 0.4208 -0.3108 0.8522
vn 0.5257 -0.2693 0.8069
vn 0.5343 -0.1759 0.8268
vn 0.6069 0.0219 0.7945
vn 0.6835 0.1359 0.7172
vn 0.5927 0.4570 0.6632
vn -0.5964 0.3232 -0.7348
vn -0.5257 0.2693 -0.8069
vn -0.5343 0.1759 -0.8268
vn -0.7919 -0.0551 -0.6082
vn -0.6835 -0.1359 -0.7172
vn -0.5928 -0.4570 -0.6632
vn 0.3576 -0.4800 0.8011
vn 0.4625 -0.5595 0.6878
vn 0.5848 -0.4624 0.6665
vn 0.6285 -0.1296 0.7669
vn 0.6976 -0.1829 0.6928
vn 0.7767 -0.1318 0.6159
vn 0.3952 0.9175 -0.0458
vn 0.6272 0.7211 -0.2942
vn 0.0725 0.5732 -0.8162
vn -0.2432 0.2129 -0.9463
vn -0.2534 0.0735 -0.9646
vn -0.4174 0.0700 -0.9060
vn -0.4471 -0.0871 -0.8903
vn -0.2535 -0.3439 -0.9042
vn -0.2197 -0.6436 -0.7332
vn 0.4475 -0.8902 0.0849
vn 0.6821 -0.6897 0.2429
vn 0.6942 -0.5089 0.5089
vn 0.1738 0.2941 -0.9398
vn 0.7805 0.0427 -0.6237
vn 0.7220 -0.2211 -0.6556
vn 0.7601 -0.3652 0.5375
vn 0.8552 -0.3362 0.3945
vn 0.8798 -0.2022 0.4303
vn -0.8961 -0.4402 0.0566
vn -0.9975 -0.0103 0.0700
vn -0.7307 -0.6702 -0.1298
vn -0.1099 -0.4408 -0.8909
vn -0.0413 -0.1243 -0.9914
vn -0.9363 0.2540 0.2428
vn -0.6878 -0.2758 0.6715
vn -0.3444 -0.8034 0.4857
vn 0.6069 -0.0219 -0.7945
vn 0.4208 0.3108 -0.8522
vn -0.7919 0.0551 0.6082
vn -0.5964 -0.3232 0.7348
vn 0.3952 -0.9175 0.0458
vn 0.6285 0.1296 -0.7669
vn 0.3576 0.4800 -0.8011
vn -0.4471 0.0871 0.8903
vn -0.2432 -0.2129 0.9463
vn 0.9975 0.0103 -0.0700
vn 0.7601 0.3652 -0.5375
vn 0.4475 0.8902 -0.0849
vn 0.7307 0.6702 0.1298
vn 0.6821 0.6897 -0.2429
vn 0.6942 0.5090 -0.5089
vn 0.8961 0.4402 -0.0566
vn 0.8552 0.3362 -0.3945
vn 0.8798 0.2022 -0.4303
vn 0.7220 0.2211 0.6556
vn 0.7805 -0.0427 0.6237
vn 0.1738 -0.2941 0.9398
vn 0.0413 0.1243 0.9914
vn -0.2534 -0.0735 0.9646
vn -0.4174 -0.0700 0.9060
vn 0.1099 0.4408 0.8909
vn -0.2535 0.3438 0.9042
vn -0.2197 0.6436 0.7332
vn 0.3444 0.8034 -0.4857
vn 0.4625 0.5595 -0.6878
vn 0.5848 0.4624 -0.6665
vn 0.6878 0.2758 -0.6715
vn 0.6976 0.1829 -0.6928
vn 0.7767 0.1318 -0.6159
vn 0.9363 -0.2539 -0.2428
vn 0.6272 -0.7211 0.2942
vn 0.0725 -0.5732 0.8162
vn -0.4208 -0.3108 0.8522
vn -0.5257 -0.2693 0.8069
vn -0.5343 -0.1760 0.8268
vn -0.6069 0.0219 0.7945
vn -0.6835 0.1359 0.7172
vn -0.5927 0.4570 0.6632
vn 0.5964 0.3232 -0.7348
vn 0.5257 0.2693 -0.8069
vn 0.5343 0.1759 -0.8268
vn 0.7919 -0.0551 -0.6081
vn 0.6835 -0.1359 -0.7172
vn 0.5927 -0.4570 -0.6632
vn -0.3576 -0.4800 0.8011
vn -0.4625 -0.5595 0.6878
vn -0.5848 -0.4624 0.6665
vn -0.6285 -0.1296 0.7669
vn -0.6976 -0.1829 0.6928
vn -0.7767 -0.1318 0.6159
vn -0.3952 0.9175 -0.0458
vn -0.6272 0.7211 -0.2942
vn -0.0725 0.5732 -0.8162
vn 0.2432 0.2129 -0.9463
vn 0.2534 0.0735 -0.9646
vn 0.4174 0.0700 -0.9060
vn 0.4471 -0.0871 -0.8903
vn 0.2535 -0.3438 -0.9042
vn 0.2197 -0.6436 -0.7331
vn -0.4475 -0.8902 0.0849
vn -0.6821 -0.6897 0.2429
vn -0.6942 -0.5089 0.5089
vn -0.1738 0.2941 -0.9398
vn -0.7805 0.0427 -0.6237
vn -0.7220 -0.2211 -0.6556
vn -0.7601 -0.3652 0.5375
vn -0.8552 -0.3362 0.3945
vn -0.8798 -0.2022 0.4303
vt 0.833374 0.494548
vt 0.893919 0.512741
vt 0.908415 0.468160
vt 0.848637 0.467455
vt 0.567859 0.867914
vt 0.639317 0.828812
vt 0.620915 0.894044
vt 0.556155 0.927906
vt 0.812683 0.509803
vt 0.774909 0.642712
vt 0.751394 0.643294
vt 0.751725 0.493743
vt 0.828812 0.793372
vt 0.751727 0.811870
vt 0.672932 0.807420
vt 0.672336 0.642732
vt 0.672998 0.503429
vt 0.598676 0.643182
vt 0.594201 0.530171
vt 0.560191 0.672195
vt 0.619753 0.672998
vt 0.599703 0.594201
vt 0.569702 0.558226
vt 0.580250 0.833374
vt 0.635423 0.812683
vt 0.637090 0.751725
vt 0.569078 0.759035
vt 0.500000 0.859251
vt 0.500000 0.750726
vt 0.569078 0.758996
vt 0.500000 0.657595
vt 0.560191 0.671923
vt 0.604420 0.951058
vt 0.545714 0.976119
vt 0.604420 0.548422
vt 0.626365 0.643481
vt 0.688416 0.643970
vt 0.666902 0.547256
vt 0.500000 0.917421
vt 0.563590 0.893919
vt 0.639317 0.793372
vt 0.659328 0.642712
vt 0.676970 0.643370
vt 0.671449 0.761101
vt 0.555994 0.632181
vt 0.545714 0.747180
vt 0.604420 0.735145
vt 0.572975 0.538591
vt 0.666902 0.715601
vt 0.500000 0.969030
vt 0.572975 0.947229
vt 0.501290 0.830086
vt 0.457158 0.830118
vt 0.460328 0.806630
vt 0.500288 0.803578
vt 0.499838 0.512886
vt 0.460007 0.507514
vt 0.481582 0.413128
vt 0.510774 0.417065
vt 0.500000 0.559830
vt 0.556447 0.575135
vt 0.579931 0.796381
vt 0.599703 0.530171
vt 0.637090 0.643182
vt 0.659115 0.643738
vt 0.643940 0.535244
vt 0.564556 0.492909
vt 0.500000 0.477524
vt 0.500000 0.432743
vt 0.566016 0.447361
vt 0.569702 0.518348
vt 0.616981 0.429733
vt 0.594994 0.421068
vt 0.612448 0.796381
vt 0.637526 0.771615
vt 0.500000 0.371229
vt 0.561082 0.382998
vt 0.450625 0.491920
vt 0.495971 0.498202
vt 0.507939 0.406303
vt 0.474705 0.401699
vt 0.591615 0.535244
vt 0.575831 0.433451
vt 0.407144 0.499901
vt 0.406490 0.640437
vt 0.358675 0.605643
vt 0.363238 0.556600
vt 0.578790 0.420824
vt 0.621227 0.407144
vt 0.601979 0.363238
vt 0.551080 0.357545
vt 0.500000 0.657756
vt 0.500000 0.571782
vt 0.667216 0.508652
vt 0.621227 0.499901
vt 0.632756 0.407548
vt 0.666461 0.413961
vt 0.556577 0.771615
vt 0.637090 0.751727
vt 0.260484 0.580516
vt 0.278839 0.520364
vt 0.582070 0.278839
vt 0.540875 0.268345
vt 0.619753 0.672932
vt 0.500000 0.307117
vt 0.551080 0.314473
vt 0.500000 0.983839
vt 0.393435 0.816867
vt 0.325561 0.763148
vt 0.671449 0.517077
vt 0.635423 0.509803
vt 0.642381 0.470278
vt 0.671266 0.470798
vt 0.988807 0.740196
vt 1.002924 0.661469
vt 1.015365 0.669173
vt 1.001496 0.721513
vt 0.500000 0.531683
vt 0.500000 0.631036
vt 0.249130 0.712570
vt 0.191059 0.679456
vt 0.198981 0.567653
vt 0.945839 0.547256
vt 0.886123 0.529161
vt 0.904522 0.470747
vt 0.963512 0.471464
vt 0.500000 0.238897
vt 0.540875 0.239236
vt 0.564556 0.495971
vt 0.612448 0.579931
vt 0.628268 0.501290
vt 0.631115 0.457158
vt 0.168698 0.648799
vt 0.177283 0.553376
vt 0.539817 0.181283
vt 0.500000 0.184290
vt 0.500000 0.144817
vt 0.539817 0.140934
vt 0.580006 0.205473
vt 0.539817 0.196322
vt 0.205473 0.476864
vt 0.621491 0.393435
vt 0.538703 0.608225
vt 0.500000 0.615960
vt 0.500000 0.567098
vt 0.526605 0.560962
vt 0.566016 0.450625
vt 0.149293 0.452102
vt 0.133162 0.541160
vt 0.103583 0.505809
vt 0.123733 0.441345
vt 0.539531 0.141037
vt 0.579447 0.149293
vt 0.562090 0.123733
vt 0.530633 0.116366
vt 0.500000 0.385014
vt 0.500000 0.353218
vt 0.586057 0.174337
vt 0.542919 0.165879
vt 0.174337 0.464471
vt 0.086614 0.427976
vt 0.065909 0.448336
vt 0.053210 0.428901
vt 0.071388 0.423606
vt 0.515797 0.085531
vt 0.531484 0.086614
vt 0.523242 0.071388
vt 0.510720 0.071544
vt 0.500000 0.266808
vt 0.601979 0.325561
vt 0.582070 0.249130
vt 0.108290 0.599988
vt 0.073849 0.556649
vt 0.580006 0.679456
vt 0.539817 0.690304
vt 0.539817 0.657159
vt 0.579599 0.648799
vt 0.500000 0.199929
vt 0.513331 0.045311
vt 0.500000 0.046647
vt 0.500000 0.069896
vt 0.051602 0.475706
vt 0.038205 0.462176
vt 0.038356 0.442272
vt 0.580006 0.191059
vt 0.577833 0.599988
vt 0.554232 0.556649
vt 0.500000 0.147087
vt 0.500000 0.124516
vt 0.530339 0.475706
vt 0.515210 0.477146
vt 0.513246 0.460736
vt 0.522445 0.462176
vt 0.500000 0.170521
vt 0.515546 0.457928
vt 0.507613 0.457080
vt 0.506877 0.445401
vt 0.514439 0.446199
vt 0.500000 0.089031
vt 0.528336 0.053210
vt 0.620841 0.601238
vt 0.618568 0.607555
vt 0.613078 0.604170
vt 0.614718 0.599612
vt 0.500000 0.479371
vt 0.500000 0.460095
vt 0.513331 0.424258
vt 0.512541 0.440917
vt 0.500000 0.440864
vt 0.500000 0.422187
vt 0.500000 0.664242
vt 0.576432 0.505809
vt 0.539481 0.507406
vt 0.547321 0.467354
vt 0.500000 0.513551
vt 0.519044 0.508271
vt 0.579599 0.168698
vt 0.538703 0.096221
vt 0.577833 0.108290
vt 0.520322 0.097153
vt 0.500000 0.106427
vt 0.541975 0.104341
vt 0.078394 0.467354
vt 0.104341 0.437145
vt 0.073220 0.507406
vt 0.590300 0.643738
vt 0.499630 0.641384
vt 0.459655 0.640419
vt 0.417546 0.774144
vt 0.414448 0.641253
vt 0.423095 0.508652
vt 0.621491 0.816867
vt 0.648114 0.640437
vt 0.669097 0.641253
vt 0.644267 0.774144
vt 0.578790 0.496630
vt 0.601625 0.405151
vt 0.649402 0.433451
vt 0.651726 0.367843
vt 0.620780 0.366797
vt 0.454529 0.413961
vt 0.467814 0.368189
vt 0.488225 0.366596
vt 0.561691 0.421068
vt 0.537425 0.365401
vt 0.507200 0.363509
vt 0.481273 0.364028
vt 0.510983 0.366114
vt 0.635806 0.367147
vt 0.669092 0.368189
vt 0.420824 0.496630
vt 0.452865 0.405151
vt 0.558226 0.518348
vt 0.484328 0.324872
vt 0.502799 0.322553
vt 0.547406 0.321655
vt 0.519920 0.320969
vt 0.496410 0.322232
vt 0.523434 0.321439
vt 0.639292 0.324944
vt 0.675657 0.324872
vt 0.550036 0.367843
vt 0.558926 0.322330
vt 0.465216 0.366023
vt 0.604868 0.366023
vt 0.599660 0.365401
vt 0.621651 0.293283
vt 0.658462 0.293469
vt 0.659368 0.261742
vt 0.621257 0.261665
vt 0.501495 0.293600
vt 0.482345 0.307625
vt 0.480362 0.262732
vt 0.500191 0.261781
vt 0.519246 0.292376
vt 0.547742 0.292993
vt 0.548078 0.261464
vt 0.518571 0.260916
vt 0.494871 0.293528
vt 0.493332 0.261956
vt 0.522889 0.292587
vt 0.522344 0.260869
vt 0.451756 0.288897
vt 0.449773 0.262732
vt 0.656778 0.322330
vt 0.622394 0.322035
vt 0.481902 0.324350
vt 0.605664 0.324350
vt 0.599057 0.321655
vt 0.595403 0.548078
vt 0.621257 0.561263
vt 0.645824 0.523009
vt 0.590945 0.518571
vt 0.639859 0.470735
vt 0.648324 0.498544
vt 0.685407 0.500191
vt 0.686261 0.480362
vt 0.592251 0.493332
vt 0.659368 0.560446
vt 0.683143 0.522344
vt 0.596433 0.477757
vt 0.479829 0.307317
vt 0.477757 0.262636
vt 0.447168 0.262636
vt 0.449241 0.288588
vt 0.596679 0.292993
vt 0.595403 0.261464
vt 0.559686 0.293469
vt 0.560446 0.261742
vt 0.603589 0.307317
vt 0.640355 0.307779
vt 0.679739 0.307625
vt 0.677932 0.288897
vt 0.639680 0.289050
vt 0.639859 0.262967
vt 0.679465 0.262732
vt 0.604354 0.288588
vt 0.603287 0.262636
vt 0.679739 0.482345
vt 0.640355 0.473048
vt 0.639680 0.442459
vt 0.677932 0.451756
vt 0.679465 0.449773
vt 0.639859 0.440146
vt 0.603589 0.479829
vt 0.604354 0.449241
vt 0.603287 0.447168
vt 0.841501 0.761101
vt 0.796910 0.643370
vt 0.906455 0.644155
vt 0.894416 0.742499
vt 0.957194 0.643970
vt 0.829265 0.517077
vt 0.940741 0.715601
vt 0.671449 0.841501
vt 0.669190 0.894416
vt 0.849398 0.470798
vt 0.666902 0.940741
vt 0.909364 0.402088
vt 0.855378 0.389954
vt 0.592313 0.470184
vt 0.617524 0.471308
vt 0.621192 0.417417
vt 0.598226 0.414426
vt 0.598146 0.467455
vt 0.603540 0.389954
vt 0.643835 0.389418
vt 0.855424 0.393127
vt 0.905341 0.403681
vt 0.667620 0.471464
vt 0.947229 0.538591
vt 0.963044 0.470184
vt 0.580250 0.494548
vt 0.595712 0.312254
vt 0.621272 0.312916
vt 0.622837 0.264476
vt 0.597277 0.263453
vt 0.852894 0.313492
vt 0.849695 0.260671
vt 0.818572 0.260902
vt 0.821566 0.286829
vt 0.893654 0.314609
vt 0.853541 0.316407
vt 0.850246 0.263617
vt 0.890422 0.263754
vt 0.896415 0.312211
vt 0.936226 0.312254
vt 0.933075 0.263453
vt 0.893263 0.261490
vt 0.670148 0.393127
vt 0.666826 0.415674
vt 0.958612 0.415674
vt 0.958434 0.414426
vt 0.649700 0.837975
vt 0.635627 0.887710
vt 0.686058 0.890422
vt 0.687133 0.850246
vt 0.592375 0.849695
vt 0.589648 0.893263
vt 0.597277 0.933075
vt 0.622837 0.940554
vt 0.673628 0.933416
vt 0.822213 0.289744
vt 0.819123 0.263848
vt 0.672063 0.313364
vt 0.673628 0.264581
vt 0.936602 0.313364
vt 0.933416 0.264581
vt 0.941647 0.364922
vt 0.899640 0.363406
vt 0.623001 0.364960
vt 0.665562 0.364922
vt 0.668659 0.362549
vt 0.644119 0.361871
vt 0.647700 0.316485
vt 0.685132 0.316407
vt 0.859879 0.359936
vt 0.902447 0.361457
vt 0.941330 0.363919
vt 0.860378 0.362549
vt 0.606538 0.359936
vt 0.590374 0.313492
vt 0.601582 0.363919
vt 0.646474 0.289822
vt 0.601626 0.286829
vt 0.603191 0.260902
vt 0.648039 0.263334
vt 0.675760 0.289744
vt 0.677325 0.263848
vt 0.647700 0.841274
vt 0.590374 0.852894
vt 0.601626 0.821566
vt 0.646474 0.809945
vt 0.648039 0.806852
vt 0.603191 0.818572
vt 0.685132 0.853541
vt 0.675760 0.822213
vt 0.677325 0.819123
vt 0.500000 0.668378
vt 0.500000 0.724779
vt 0.517225 0.721513
vt 0.520785 0.669173
vt 0.528698 1.002924
vt 0.500000 1.014901
vt 0.500000 1.025182
vt 0.520785 1.015365
vt 0.500000 0.744181
vt 0.519989 0.740196
vt 0.519989 0.988807
vt 0.500000 0.995348
vt 0.500000 0.660499
vt 0.528698 0.661469
vt 0.154177 0.616909
vt 0.166410 0.570048
vt 0.135838 0.608740
vt 0.149154 0.567675
vt 0.147623 0.572395
vt 0.137518 0.603560
vt 0.583783 0.154177
vt 0.583848 0.135838
vt 0.600568 0.131366
vt 0.597073 0.144428
vt 0.144166 0.612314
vt 0.141084 0.620214
vt 0.132632 0.614576
vt 0.134671 0.609983
vt 0.153028 0.593819
vt 0.141399 0.592146
vt 0.619182 0.132632
vt 0.614588 0.141084
vt 0.606252 0.140479
vt 0.610351 0.130579
vt 0.138199 0.601250
vt 0.148213 0.603179
vt 0.602487 0.570048
vt 0.583783 0.616909
vt 0.597073 0.624463
vt 0.606252 0.625520
vt 0.614588 0.620214
vt 0.620822 0.612314
vt 0.623703 0.603179
vt 0.620639 0.593819
vt 0.604695 0.577238
vt 0.601269 0.572395
vt 0.603531 0.567675
vt 0.609313 0.614171
vt 0.615687 0.610750
vt 0.619182 0.614576
vt 0.610351 0.619358
vt 0.602434 0.613212
vt 0.600568 0.617961
vt 0.626402 0.601250
vt 0.623276 0.609983
vt 0.618527 0.594500
vt 0.623272 0.592146
vt 0.590602 0.606787
vt 0.583848 0.608740
vt 0.592903 0.603615
vt 0.603070 0.582298
vt 0.613048 0.594751
vt 0.610999 0.606475
vt 0.606401 0.608943
vt 0.601438 0.608251
vt 0.586331 0.603560
vt 0.600598 0.578805
vt 0.589822 0.601288
vt 0.148133 0.578805
vt 0.140843 0.601288
vt 0.522445 0.038205
vt 0.513246 0.032036
vt 0.507613 0.025182
vt 0.515546 0.030102
vt 0.521458 0.442272
vt 0.528336 0.428901
vt 0.500000 0.456702
vt 0.500000 0.445370
vt 0.500000 0.031689
vt 0.512541 0.032373
vt 0.506877 0.025742
vt 0.500000 0.025886
vt 0.500000 0.031337
vt 0.500000 0.025479
vt 0.030102 0.457928
vt 0.030515 0.446199
vt 0.432141 0.867914
vt 0.443845 0.927906
vt 0.379085 0.894044
vt 0.360683 0.828812
vt 0.439809 0.672195
vt 0.430298 0.558226
vt 0.400297 0.594201
vt 0.380247 0.672998
vt 0.419750 0.833374
vt 0.430922 0.759035
vt 0.362910 0.751725
vt 0.364577 0.812683
vt 0.430922 0.758996
vt 0.439809 0.671923
vt 0.454286 0.976119
vt 0.395580 0.951058
vt 0.395580 0.548422
vt 0.333098 0.547256
vt 0.311584 0.643970
vt 0.373635 0.643481
vt 0.436410 0.893919
vt 0.360683 0.793372
vt 0.328551 0.761101
vt 0.323030 0.643370
vt 0.340672 0.642712
vt 0.444006 0.632181
vt 0.395580 0.735145
vt 0.454286 0.747180
vt 0.427025 0.538591
vt 0.333098 0.715601
vt 0.427025 0.947229
vt 0.443553 0.575135
vt 0.400297 0.530171
vt 0.356060 0.535244
vt 0.340885 0.643738
vt 0.362910 0.643182
vt 0.435444 0.492909
vt 0.433984 0.447361
vt 0.430298 0.518348
vt 0.405006 0.421068
vt 0.383019 0.429733
vt 0.362474 0.771615
vt 0.387552 0.796381
vt 0.438918 0.382998
vt 0.421210 0.420824
vt 0.448920 0.357545
vt 0.398021 0.363238
vt 0.378773 0.407144
vt 0.332784 0.508652
vt 0.333539 0.413961
vt 0.367244 0.407548
vt 0.378773 0.499901
vt 0.362910 0.751727
vt 0.459125 0.268345
vt 0.417930 0.278839
vt 0.380247 0.672932
vt 0.448920 0.314473
vt 0.328551 0.517077
vt 0.328734 0.470798
vt 0.357619 0.470278
vt 0.364577 0.509803
vt 0.459125 0.239236
vt 0.435444 0.495971
vt 0.387552 0.579931
vt 0.371732 0.501290
vt 0.368885 0.457158
vt 0.460183 0.181283
vt 0.460183 0.140934
vt 0.460183 0.196322
vt 0.419994 0.205473
vt 0.378509 0.393435
vt 0.461297 0.608225
vt 0.473395 0.560962
vt 0.433984 0.450625
vt 0.460469 0.141037
vt 0.469367 0.116366
vt 0.437911 0.123733
vt 0.420553 0.149293
vt 0.457081 0.165879
vt 0.413943 0.174337
vt 0.484203 0.085531
vt 0.489280 0.071544
vt 0.476758 0.071388
vt 0.468516 0.086614
vt 0.398021 0.325561
vt 0.417930 0.249130
vt 0.419994 0.679456
vt 0.420401 0.648799
vt 0.460183 0.657159
vt 0.460183 0.690304
vt 0.486669 0.045311
vt 0.419994 0.191059
vt 0.422167 0.599988
vt 0.445768 0.556649
vt 0.469661 0.475706
vt 0.477555 0.462176
vt 0.486754 0.460736
vt 0.484790 0.477146
vt 0.484454 0.457928
vt 0.485561 0.446199
vt 0.493123 0.445401
vt 0.492387 0.457080
vt 0.471665 0.053210
vt 0.379159 0.601238
vt 0.385282 0.599612
vt 0.386922 0.604170
vt 0.381432 0.607555
vt 0.486669 0.424258
vt 0.487459 0.440917
vt 0.423568 0.505809
vt 0.452679 0.467354
vt 0.460520 0.507406
vt 0.480956 0.508271
vt 0.420401 0.168698
vt 0.422167 0.108290
vt 0.461297 0.096221
vt 0.479678 0.097153
vt 0.458025 0.104341
vt 0.378509 0.816867
vt 0.355733 0.774144
vt 0.330903 0.641253
vt 0.351886 0.640437
vt 0.398375 0.405151
vt 0.421210 0.496630
vt 0.379220 0.366797
vt 0.348274 0.367843
vt 0.350598 0.433451
vt 0.330908 0.368189
vt 0.364194 0.367147
vt 0.324343 0.324872
vt 0.360708 0.324944
vt 0.395132 0.366023
vt 0.400340 0.365401
vt 0.378349 0.293283
vt 0.378743 0.261665
vt 0.340632 0.261742
vt 0.341538 0.293469
vt 0.377606 0.322035
vt 0.343222 0.322330
vt 0.394336 0.324350
vt 0.400943 0.321655
vt 0.404597 0.548078
vt 0.409055 0.518571
vt 0.354176 0.523009
vt 0.378743 0.561263
vt 0.360141 0.470735
vt 0.313739 0.480362
vt 0.314593 0.500191
vt 0.351676 0.498544
vt 0.407749 0.493332
vt 0.316857 0.522344
vt 0.340632 0.560446
vt 0.403567 0.477757
vt 0.403321 0.292993
vt 0.404597 0.261464
vt 0.359645 0.307779
vt 0.396411 0.307317
vt 0.320262 0.307625
vt 0.322068 0.288897
vt 0.320535 0.262732
vt 0.360141 0.262967
vt 0.360320 0.289050
vt 0.396713 0.262636
vt 0.395646 0.288588
vt 0.320262 0.482345
vt 0.322068 0.451756
vt 0.360320 0.442459
vt 0.359645 0.473048
vt 0.360141 0.440146
vt 0.320535 0.449773
vt 0.395646 0.449241
vt 0.396411 0.479829
vt 0.396713 0.447168
vt 0.330810 0.894416
vt 0.328551 0.841501
vt 0.333098 0.940741
vt 0.407688 0.470184
vt 0.401774 0.414426
vt 0.378808 0.417417
vt 0.382476 0.471308
vt 0.356165 0.389418
vt 0.396460 0.389954
vt 0.401854 0.467455
vt 0.332380 0.471464
vt 0.419750 0.494548
vt 0.404289 0.312254
vt 0.402723 0.263453
vt 0.377163 0.264476
vt 0.378728 0.312916
vt 0.329852 0.393127
vt 0.333174 0.415674
vt 0.350300 0.837975
vt 0.312867 0.850246
vt 0.313942 0.890422
vt 0.364373 0.887710
vt 0.410353 0.893263
vt 0.407625 0.849695
vt 0.377163 0.940554
vt 0.402723 0.933075
vt 0.326372 0.933416
vt 0.326372 0.264581
vt 0.327937 0.313364
vt 0.376999 0.364960
vt 0.334438 0.364922
vt 0.331341 0.362549
vt 0.314868 0.316407
vt 0.352300 0.316485
vt 0.355881 0.361871
vt 0.409626 0.313492
vt 0.393462 0.359936
vt 0.398418 0.363919
vt 0.353526 0.289822
vt 0.351961 0.263334
vt 0.396809 0.260902
vt 0.398374 0.286829
vt 0.324240 0.289744
vt 0.322675 0.263848
vt 0.352300 0.841274
vt 0.353526 0.809945
vt 0.398374 0.821566
vt 0.409626 0.852894
vt 0.396809 0.818572
vt 0.351961 0.806852
vt 0.314868 0.853541
vt 0.324240 0.822213
vt 0.322675 0.819123
vt 0.479215 0.669173
vt 0.482775 0.721513
vt 0.471302 1.002924
vt 0.479215 1.015365
vt 0.480011 0.740196
vt 0.480011 0.988807
vt 0.471302 0.661469
vt 0.416217 0.154177
vt 0.402927 0.144428
vt 0.399432 0.131366
vt 0.416152 0.135838
vt 0.380819 0.132632
vt 0.389649 0.130579
vt 0.393748 0.140479
vt 0.385412 0.141084
vt 0.397513 0.570048
vt 0.379361 0.593819
vt 0.376297 0.603179
vt 0.379178 0.612314
vt 0.385412 0.620214
vt 0.393748 0.625520
vt 0.402927 0.624463
vt 0.416217 0.616909
vt 0.395305 0.577238
vt 0.396469 0.567675
vt 0.398731 0.572395
vt 0.390687 0.614171
vt 0.389649 0.619358
vt 0.380819 0.614576
vt 0.384313 0.610750
vt 0.397566 0.613212
vt 0.399432 0.617961
vt 0.376724 0.609983
vt 0.373598 0.601250
vt 0.376728 0.592146
vt 0.381473 0.594500
vt 0.409398 0.606787
vt 0.416152 0.608740
vt 0.407098 0.603615
vt 0.398562 0.608251
vt 0.393599 0.608943
vt 0.389001 0.606475
vt 0.386952 0.594751
vt 0.396930 0.582298
vt 0.413669 0.603560
vt 0.399402 0.578805
vt 0.410178 0.601288
vt 0.477555 0.038205
vt 0.484454 0.030102
vt 0.492387 0.025182
vt 0.486754 0.032036
vt 0.478542 0.442272
vt 0.471665 0.428901
vt 0.493123 0.025742
vt 0.487459 0.032373
vt 0.181819 0.000000
vt 0.227273 0.078731
vt 0.136365 0.078731
vt 0.272728 0.157461
vt 0.318182 0.078731
vt 0.363637 0.157461
vt 0.909091 0.000000
vt 0.954545 0.078731
vt 0.863636 0.078731
vt 0.727273 0.000000
vt 0.772727 0.078731
vt 0.681818 0.078731
vt 0.545455 0.000000
vt 0.590909 0.078731
vt 0.500000 0.078731
vt 0.318182 0.236191
vt 0.090910 0.157461
vt 0.181819 0.157461
vt 0.136365 0.236191
vt 0.818182 0.157461
vt 0.909091 0.157461
vt 0.863636 0.236191
vt 0.636364 0.157461
vt 0.727273 0.157461
vt 0.681818 0.236191
vt 0.454546 0.157461
vt 0.545455 0.157461
vt 0.500000 0.236191
vt 0.227273 0.236191
vt 0.045455 0.236191
vt 0.772727 0.236191
vt 0.590909 0.236191
vt 0.409092 0.236191
vt 0.181819 0.314921
vt 0.272728 0.314921
vt 0.227273 0.393651
vt 0.000000 0.314921
vt 0.090910 0.314921
vt 0.045455 0.393651
vt 0.727273 0.314921
vt 0.818182 0.314921
vt 0.772727 0.393651
vt 0.545455 0.314921
vt 0.636364 0.314921
vt 0.590909 0.393651
vt 0.363637 0.314921
vt 0.454546 0.314921
vt 0.409092 0.393651
vt 0.500000 0.393651
vt 0.454546 0.472382
vt 0.681818 0.393651
vt 0.636364 0.472382
vt 0.863636 0.393651
vt 0.818182 0.472382
vt 0.909091 0.314921
vt 0.136365 0.393651
vt 0.090910 0.472382
vt 0.318182 0.393651
vt 0.272728 0.472382
vt 0.954545 0.236191
vt 1.000000 0.157461
vt 0.409092 0.078731
vt 0.363637 0.000000
s 1
f 116/1/1 98/2/1 209/3/1 208/4/1
f 115/5/2 4/6/2 17/7/2 97/8/2
f 3/9/3 7/10/3 13/11/3 8/12/3
f 7/10/4 4/13/4 9/14/4 13/11/4
f 13/11/5 9/14/5 2/15/5 10/16/5
f 8/12/6 13/11/6 10/16/6 1/17/6
f 1/17/7 10/16/7 32/18/7 29/19/7
f 114/20/8 1/21/8 29/22/8 83/23/8
f 116/24/9 3/25/9 8/26/9 109/27/9
f 109/27/10 8/26/10 1/21/10 114/20/10
f 115/5/11 6/28/11 15/29/11 99/30/11
f 99/30/12 15/29/12 12/31/12 112/32/12
f 97/8/13 17/7/13 21/33/13 90/34/13
f 20/35/14 25/36/14 203/37/14 204/38/14
f 116/24/15 5/28/15 18/39/15 98/40/15
f 4/41/16 7/42/16 197/43/16 196/44/16
f 89/45/17 90/46/17 21/47/17 25/36/17
f 91/48/18 89/45/18 25/36/18 20/35/18
f 25/36/19 21/47/19 202/49/19 203/37/19
f 98/40/20 18/39/20 23/50/20 91/51/20
f 38/52/21 45/53/21 134/54/21 131/55/21
f 133/56/22 136/57/22 144/58/22 146/59/22
f 112/32/23 12/31/23 34/60/23 82/61/23
f 10/16/24 2/15/24 30/62/24 32/18/24
f 29/63/25 32/64/25 129/65/25 130/66/25
f 75/67/26 41/68/26 48/69/26 73/70/26
f 82/61/27 34/60/27 41/68/27 75/67/27
f 83/71/28 29/63/28 141/72/28 140/73/28
f 32/64/29 30/74/29 128/75/29 129/65/29
f 73/70/30 48/69/30 56/76/30 66/77/30
f 74/78/31 81/79/31 145/80/31 148/81/31
f 130/82/32 133/56/32 146/59/32 147/83/32
f 6/28/33 115/5/33 97/8/33 19/39/33
f 54/84/34 53/85/34 60/86/34 61/87/34
f 67/88/35 54/89/35 61/90/35 65/91/35
f 11/92/36 114/20/36 83/23/36 33/93/36
f 5/28/37 116/24/37 109/27/37 14/29/37
f 14/29/38 109/27/38 114/20/38 11/92/38
f 139/94/39 54/95/39 143/96/39 142/97/39
f 30/62/40 38/52/40 131/55/40 128/98/40
f 4/6/41 115/5/41 99/30/41 9/99/41
f 61/87/42 60/86/42 69/100/42 70/101/42
f 65/91/43 61/90/43 70/102/43 58/103/43
f 9/99/44 99/30/44 112/32/44 2/104/44
f 66/77/45 56/76/45 63/105/45 64/106/45
f 19/39/46 97/8/46 90/34/46 24/107/46
f 53/85/47 52/108/47 59/109/47 60/86/47
f 198/110/48 3/111/48 207/112/48 213/113/48
f 256/114/49 255/115/49 253/116/49 254/117/49
f 23/118/50 26/119/50 89/45/50 91/48/50
f 69/100/51 68/120/51 76/121/51 77/122/51
f 204/123/52 201/124/52 211/125/52 212/126/52
f 64/106/53 63/105/53 72/127/53 57/128/53
f 33/93/54 83/23/54 81/129/54 40/68/54
f 60/86/55 59/109/55 68/120/55 69/100/55
f 2/104/56 112/32/56 82/61/56 30/130/56
f 38/131/57 75/67/57 73/70/57 45/132/57
f 77/122/58 76/121/58 259/133/58 260/134/58
f 30/130/59 82/61/59 75/67/59 38/131/59
f 50/135/60 80/136/60 88/137/60 44/138/60
f 58/103/61 70/102/61 78/139/61 51/140/61
f 70/101/62 69/100/62 77/122/62 78/141/62
f 45/132/63 73/70/63 66/77/63 52/142/63
f 57/128/64 72/127/64 80/136/64 50/135/64
f 28/143/65 110/144/65 96/145/65 42/146/65
f 40/68/66 81/129/66 74/147/66 47/69/66
f 108/148/67 262/149/67 93/150/67 94/151/67
f 31/152/68 108/153/68 94/154/68 43/155/68
f 55/156/69 67/88/69 65/91/69 62/157/69
f 51/140/70 78/139/70 86/158/70 49/159/70
f 78/141/71 77/122/71 260/134/71 86/160/71
f 47/69/72 74/147/72 67/88/72 55/156/72
f 123/161/73 124/162/73 101/163/73 102/164/73
f 121/165/74 123/166/74 102/167/74 37/168/74
f 62/157/75 65/91/75 58/103/75 71/169/75
f 52/142/76 66/77/76 64/106/76 59/170/76
f 59/170/77 64/106/77 57/128/77 68/171/77
f 262/149/78 261/172/78 92/173/78 93/150/78
f 76/174/79 50/175/79 44/176/79 259/177/79
f 71/169/80 58/103/80 51/140/80 79/178/80
f 37/168/81 35/179/81 105/180/81 103/181/81
f 124/162/82 127/182/82 297/183/82 298/184/82 101/163/82
f 68/171/83 57/128/83 50/135/83 76/185/83
f 261/186/84 28/143/84 42/146/84 92/187/84
f 107/188/85 31/152/85 43/155/85 95/189/85
f 127/190/86 122/191/86 295/192/86 297/193/86
f 79/178/87 51/140/87 49/159/87 87/194/87
f 100/195/88 36/196/88 301/197/88 104/198/88
f 126/199/89 121/165/89 37/168/89 103/181/89
f 102/167/90 101/200/90 35/179/90 37/168/90
f 274/201/91 273/202/91 290/203/91 291/204/91
f 122/191/92 125/205/92 300/206/92 295/192/92
f 49/159/93 86/158/93 108/153/93 31/152/93
f 86/160/94 260/134/94 262/149/94 108/148/94
f 35/207/95 296/208/95 299/209/95 105/210/95
f 44/176/96 88/211/96 110/144/96 28/143/96
f 93/212/97 92/187/97 120/213/97 119/214/97
f 87/194/98 49/159/98 31/152/98 107/188/98
f 42/146/99 96/145/99 113/215/99 27/216/99
f 259/217/100 44/138/100 28/218/100 261/219/100
f 92/187/101 42/146/101 27/216/101 120/213/101
f 95/189/102 43/155/102 22/220/102 118/221/102
f 43/155/103 94/154/103 117/222/103 22/220/103
f 94/151/104 93/150/104 119/223/104 117/224/104
f 120/213/105 27/216/105 122/191/105 127/190/105
f 118/221/106 22/220/106 121/165/106 126/199/106
f 119/223/107 120/225/107 127/182/107 124/162/107
f 27/216/108 113/215/108 125/205/108 122/191/108
f 22/220/109 117/222/109 123/166/109 121/165/109
f 117/224/110 119/223/110 124/162/110 123/161/110
f 130/82/111 129/226/111 132/227/111 133/56/111
f 132/227/112 131/55/112 134/54/112 135/228/112
f 129/226/113 128/98/113 131/55/113 132/227/113
f 135/228/114 134/54/114 137/229/114 138/230/114
f 133/56/115 132/227/115 135/228/115 136/57/115
f 136/57/116 135/228/116 138/230/116 139/231/116
f 52/232/117 53/233/117 138/234/117 137/235/117
f 45/53/118 52/108/118 137/229/118 134/54/118
f 54/95/119 67/236/119 149/237/119 143/96/119
f 53/233/120 54/95/120 139/94/120 138/234/120
f 141/72/121 147/238/121 157/239/121 39/240/121
f 144/58/122 142/241/122 150/242/122 153/243/122
f 145/80/123 140/244/123 46/245/123 154/246/123
f 148/81/124 145/80/124 154/246/124 158/247/124
f 146/59/125 144/58/125 153/243/125 156/248/125
f 142/97/126 143/96/126 151/249/126 150/250/126
f 136/57/127 139/231/127 142/241/127 144/58/127
f 67/251/128 74/78/128 148/81/128 149/252/128
f 29/63/129 130/66/129 147/238/129 141/72/129
f 81/79/130 83/253/130 140/244/130 145/80/130
f 153/243/131 150/242/131 162/254/131 164/255/131
f 154/246/132 46/245/132 160/256/132 165/257/132
f 158/247/133 154/246/133 165/257/133 168/258/133
f 156/248/134 153/243/134 164/255/134 166/259/134
f 150/250/135 151/249/135 163/260/135 162/261/135
f 157/262/136 156/248/136 166/259/136 167/263/136
f 149/252/137 148/81/137 158/247/137 159/264/137
f 143/96/138 149/237/138 159/265/138 151/249/138
f 140/73/139 141/72/139 39/240/139 46/266/139
f 147/83/140 146/59/140 156/248/140 157/262/140
f 188/267/141 187/268/141 177/269/141 152/270/141
f 184/271/142 185/272/142 170/273/142 173/274/142
f 182/275/143 180/276/143 155/277/143 174/278/143
f 181/279/144 182/275/144 174/278/144 178/280/144
f 183/281/145 184/271/145 173/274/145 176/282/145
f 170/273/146 185/272/146 194/283/146 192/284/146
f 39/240/147 157/239/147 167/285/147 161/286/147
f 159/264/148 158/247/148 168/258/148 169/287/148
f 151/249/149 159/265/149 169/288/149 163/260/149
f 46/266/150 39/240/150 161/286/150 160/289/150
f 155/290/151 152/291/151 175/292/151 174/293/151
f 171/294/152 172/295/152 173/296/152 170/297/152
f 174/293/153 175/292/153 172/295/153 178/298/153
f 175/292/154 152/291/154 177/299/154 176/300/154
f 178/298/155 172/295/155 171/294/155 179/301/155
f 172/295/156 175/292/156 176/300/156 173/296/156
f 189/302/157 181/279/157 178/280/157 179/303/157
f 189/302/158 179/303/158 193/304/158 195/305/158
f 180/306/159 188/267/159 152/270/159 155/307/159
f 187/308/160 183/281/160 176/282/160 177/309/160
f 167/263/161 166/259/161 183/281/161 187/308/161
f 160/289/162 161/286/162 188/267/162 180/306/162
f 163/260/163 169/288/163 189/310/163 186/311/163
f 169/287/164 168/258/164 181/279/164 189/302/164
f 162/261/165 163/260/165 186/311/165 185/312/165
f 166/259/166 164/255/166 184/271/166 183/281/166
f 168/258/167 165/257/167 182/275/167 181/279/167
f 165/257/168 160/256/168 180/276/168 182/275/168
f 164/255/169 162/254/169 185/272/169 184/271/169
f 161/286/170 167/285/170 187/268/170 188/267/170
f 194/313/171 190/314/171 191/315/171 192/316/171
f 190/314/172 195/317/172 193/318/172 191/315/172
f 185/319/173 186/320/173 190/321/173 194/322/173
f 171/294/174 170/297/174 192/323/174 191/324/174
f 186/320/175 189/325/175 195/326/175 190/321/175
f 179/301/176 171/294/176 191/324/176 193/327/176
f 196/328/177 197/329/177 200/330/177 199/331/177
f 200/330/178 201/124/178 204/123/178 203/332/178
f 197/329/179 198/333/179 201/124/179 200/330/179
f 199/331/180 200/330/180 203/332/180 202/334/180
f 7/42/181 3/111/181 198/110/181 197/43/181
f 17/7/182 4/6/182 196/335/182 199/336/182
f 201/124/183 198/333/183 213/337/183 211/125/183
f 21/33/184 17/7/184 199/336/184 202/338/184
f 208/4/185 209/3/185 217/339/185 216/340/185
f 210/341/186 206/342/186 214/343/186 218/344/186
f 207/112/187 208/345/187 216/346/187 215/347/187
f 211/125/188 213/337/188 221/348/188 219/349/188
f 20/35/189 204/38/189 212/350/189 206/342/189
f 91/48/190 20/35/190 206/342/190 210/341/190
f 98/2/191 91/351/191 210/352/191 209/3/191
f 3/111/192 116/353/192 208/345/192 207/112/192
f 232/354/193 235/355/193 222/356/193 226/357/193
f 233/358/194 224/359/194 240/360/194 241/361/194
f 16/362/195 230/363/195 229/364/195 227/365/195
f 231/366/196 232/367/196 226/368/196 225/369/196
f 213/113/197 207/112/197 215/347/197 221/370/197
f 206/342/198 212/350/198 220/371/198 214/343/198
f 212/126/199 211/125/199 219/349/199 220/372/199
f 209/3/200 210/352/200 218/373/200 217/339/200
f 223/374/201 205/375/201 227/376/201 229/377/201
f 223/374/202 224/378/202 225/379/202 205/375/202
f 205/375/203 225/379/203 226/380/203 222/381/203
f 205/375/204 222/381/204 228/382/204 227/376/204
f 233/358/205 231/366/205 225/369/205 224/359/205
f 229/364/206 230/363/206 237/383/206 238/384/206
f 235/355/207 236/385/207 228/386/207 222/356/207
f 236/387/208 16/362/208 227/365/208 228/388/208
f 250/389/209 243/390/209 16/362/209 236/387/209
f 249/391/210 250/392/210 236/385/210 235/355/210
f 246/393/211 245/394/211 234/395/211 230/396/211
f 248/397/212 244/398/212 231/366/212 233/358/212
f 244/398/213 247/399/213 232/367/213 231/366/213
f 243/390/214 246/400/214 230/363/214 16/362/214
f 245/394/215 248/401/215 233/402/215 234/395/215
f 247/403/216 249/391/216 235/355/216 232/354/216
f 242/404/217 241/405/217 240/406/217 239/407/217
f 237/408/218 242/404/218 239/407/218 238/409/218
f 234/410/219 233/411/219 241/412/219 242/413/219
f 224/378/220 223/374/220 239/414/220 240/415/220
f 230/416/221 234/410/221 242/413/221 237/417/221
f 223/374/222 229/377/222 238/418/222 239/414/222
f 218/344/223 214/343/223 249/391/223 247/403/223
f 215/347/224 216/346/224 248/401/224 245/394/224
f 219/349/225 221/348/225 246/400/225 243/390/225
f 217/339/226 218/373/226 247/399/226 244/398/226
f 216/340/227 217/339/227 244/398/227 248/397/227
f 221/370/228 215/347/228 245/394/228 246/393/228
f 214/343/229 220/371/229 250/392/229 249/391/229
f 220/372/230 219/349/230 243/390/230 250/389/230
f 252/419/231 251/420/231 254/421/231 253/422/231
f 255/423/232 257/424/232 252/425/232 253/426/232
f 258/427/233 256/428/233 254/421/233 251/420/233
f 24/107/234 90/34/234 256/429/234 258/430/234
f 89/45/235 26/119/235 257/431/235 255/432/235
f 90/46/236 89/45/236 255/432/236 256/428/236
f 84/433/237 85/434/237 260/134/237 259/133/237
f 275/435/238 84/433/238 259/133/238 261/172/238
f 85/434/239 276/436/239 262/149/239 260/134/239
f 276/436/240 284/437/240 283/438/240 275/435/240 261/172/240 262/149/240
f 84/439/241 275/440/241 279/441/241 263/442/241
f 266/443/242 264/444/242 278/445/242 280/446/242
f 276/436/243 85/434/243 267/447/243 282/448/243
f 278/449/244 264/450/244 265/451/244 277/452/244
f 277/452/245 265/451/245 263/442/245 279/441/245
f 266/443/246 280/446/246 281/453/246 268/454/246
f 268/454/247 281/453/247 282/448/247 267/447/247
f 85/455/248 84/456/248 263/457/248 265/458/248 264/459/248 266/460/248 268/461/248 267/462/248
f 106/463/249 284/464/249 276/465/249
f 271/466/250 269/467/250 278/468/250 277/469/250
f 270/470/251 271/466/251 277/469/251 279/471/251
f 273/202/252 274/201/252 281/472/252 280/473/252
f 274/201/253 272/474/253 282/475/253 281/472/253
f 269/467/254 273/202/254 280/473/254 278/468/254
f 111/476/255 270/470/255 279/471/255 275/477/255
f 272/474/256 106/463/256 276/465/256 282/475/256
f 285/478/257 286/479/257 292/480/257 291/204/257 290/203/257 288/481/257 287/482/257 289/483/257
f 283/484/258 111/476/258 275/477/258
f 270/470/259 111/476/259 285/478/259 289/483/259
f 294/485/260 286/479/260 285/478/260 293/486/260
f 111/476/261 283/484/261 293/486/261 285/478/261
f 106/463/262 272/474/262 292/480/262 286/479/262
f 272/474/263 274/201/263 291/204/263 292/480/263
f 269/467/264 271/466/264 287/482/264 288/481/264
f 283/438/265 284/437/265 294/487/265 293/488/265
f 273/202/266 269/467/266 288/481/266 290/203/266
f 284/464/267 106/463/267 286/479/267 294/485/267
f 271/466/268 270/470/268 289/483/268 287/482/268
f 297/489/269 295/490/269 36/491/269 100/492/269
f 296/208/270 298/493/270 104/198/270 301/197/270
f 101/494/271 298/493/271 296/208/271 35/207/271
f 36/196/272 302/495/272 303/496/272 301/197/272
f 299/497/273 296/498/273 301/499/273 303/500/273
f 295/490/274 300/501/274 302/502/274 36/491/274
f 298/184/275 297/183/275 100/503/275 104/504/275
f 385/1/276 474/4/276 475/3/276 372/2/276
f 384/505/277 371/506/277 314/507/277 307/508/277
f 306/9/278 309/12/278 312/11/278 308/10/278
f 308/10/279 312/11/279 310/14/279 307/13/279
f 312/11/280 311/16/280 305/15/280 310/14/280
f 309/12/281 304/17/281 311/16/281 312/11/281
f 304/17/282 321/19/282 324/18/282 311/16/282
f 383/509/283 361/510/283 321/511/283 304/512/283
f 385/513/284 380/514/284 309/515/284 306/516/284
f 380/514/285 383/509/285 304/512/285 309/515/285
f 384/505/286 373/517/286 15/29/286 6/28/286
f 373/517/287 382/518/287 12/31/287 15/29/287
f 371/506/288 366/519/288 316/520/288 314/507/288
f 315/521/289 470/522/289 469/523/289 318/524/289
f 385/513/290 372/525/290 18/39/290 5/28/290
f 307/526/291 462/527/291 463/528/291 308/529/291
f 365/530/292 318/524/292 316/531/292 366/532/292
f 367/533/293 315/521/293 318/524/293 365/530/293
f 318/524/294 469/523/294 468/534/294 316/531/294
f 372/525/295 367/535/295 23/50/295 18/39/295
f 328/52/296 397/55/296 400/54/296 333/53/296
f 399/56/297 412/59/297 410/58/297 402/57/297
f 382/518/298 360/536/298 34/60/298 12/31/298
f 311/16/299 324/18/299 322/62/299 305/15/299
f 321/537/300 396/538/300 395/539/300 324/540/300
f 355/541/301 353/542/301 48/69/301 41/68/301
f 360/536/302 355/541/302 41/68/302 34/60/302
f 361/543/303 406/544/303 407/545/303 321/537/303
f 324/540/304 395/539/304 394/546/304 322/547/304
f 353/542/305 348/548/305 56/76/305 48/69/305
f 354/78/306 414/81/306 411/80/306 359/79/306
f 396/82/307 413/83/307 412/59/307 399/56/307
f 6/28/308 19/39/308 371/506/308 384/505/308
f 340/84/309 345/87/309 344/86/309 339/85/309
f 349/549/310 347/550/310 345/551/310 340/552/310
f 11/92/311 33/93/311 361/510/311 383/509/311
f 5/28/312 14/29/312 380/514/312 385/513/312
f 14/29/313 11/92/313 383/509/313 380/514/313
f 405/553/314 408/554/314 409/555/314 340/556/314
f 322/62/315 394/98/315 397/55/315 328/52/315
f 307/508/316 310/557/316 373/517/316 384/505/316
f 345/87/317 352/101/317 351/100/317 344/86/317
f 347/550/318 342/558/318 352/559/318 345/551/318
f 310/557/319 305/560/319 382/518/319 373/517/319
f 348/548/320 346/561/320 63/105/320 56/76/320
f 19/39/321 24/107/321 366/519/321 371/506/321
f 339/85/322 344/86/322 343/109/322 338/108/322
f 464/562/323 479/563/323 473/564/323 306/565/323
f 520/114/324 518/117/324 517/116/324 519/115/324
f 23/118/325 367/533/325 365/530/325 26/119/325
f 351/100/326 357/122/326 356/121/326 350/120/326
f 470/123/327 478/126/327 477/125/327 467/124/327
f 346/561/328 341/566/328 72/127/328 63/105/328
f 33/93/329 40/68/329 359/567/329 361/510/329
f 344/86/330 351/100/330 350/120/330 343/109/330
f 305/560/331 322/568/331 360/536/331 382/518/331
f 328/569/332 333/570/332 353/542/332 355/541/332
f 357/122/333 522/134/333 521/133/333 356/121/333
f 322/568/334 328/569/334 355/541/334 360/536/334
f 336/571/335 332/572/335 88/137/335 80/136/335
f 342/558/336 337/573/336 358/574/336 352/559/336
f 352/101/337 358/141/337 357/122/337 351/100/337
f 333/570/338 338/575/338 348/548/338 353/542/338
f 341/566/339 336/571/339 80/136/339 72/127/339
f 320/576/340 330/577/340 96/145/340 110/144/340
f 40/68/341 47/69/341 354/578/341 359/567/341
f 379/148/342 370/151/342 369/150/342 524/149/342
f 323/579/343 331/580/343 370/581/343 379/582/343
f 55/156/344 62/157/344 347/550/344 349/549/344
f 337/573/345 335/583/345 364/584/345 358/574/345
f 358/141/346 364/160/346 522/134/346 357/122/346
f 47/69/347 55/156/347 349/549/347 354/578/347
f 391/161/348 376/164/348 375/163/348 392/162/348
f 389/585/349 327/586/349 376/587/349 391/588/349
f 62/157/350 71/169/350 342/558/350 347/550/350
f 338/575/351 343/589/351 346/561/351 348/548/351
f 343/589/352 350/590/352 341/566/352 346/561/352
f 524/149/353 369/150/353 368/173/353 523/172/353
f 356/591/354 521/592/354 332/593/354 336/594/354
f 71/169/355 79/178/355 337/573/355 342/558/355
f 327/586/356 103/181/356 105/180/356 325/595/356
f 392/162/357 375/163/357 560/184/357 559/183/357 393/182/357
f 350/590/358 356/596/358 336/571/358 341/566/358
f 523/597/359 368/598/359 330/577/359 320/576/359
f 107/188/360 95/189/360 331/580/360 323/579/360
f 393/599/361 559/600/361 557/601/361 390/602/361
f 79/178/362 87/194/362 335/583/362 337/573/362
f 374/603/363 377/604/363 561/605/363 326/606/363
f 126/199/364 103/181/364 327/586/364 389/585/364
f 376/587/365 327/586/365 325/595/365 375/607/365
f 536/608/366 553/609/366 552/610/366 535/611/366
f 390/602/367 557/601/367 300/206/367 125/205/367
f 335/583/368 323/579/368 379/582/368 364/584/368
f 364/160/369 379/148/369 524/149/369 522/134/369
f 325/612/370 105/210/370 299/209/370 558/613/370
f 332/593/371 320/576/371 110/144/371 88/211/371
f 369/614/372 387/615/372 388/616/372 368/598/372
f 87/194/373 107/188/373 323/579/373 335/583/373
f 330/577/374 319/617/374 113/215/374 96/145/374
f 521/618/375 523/619/375 320/620/375 332/572/375
f 368/598/376 388/616/376 319/617/376 330/577/376
f 95/189/377 118/221/377 317/621/377 331/580/377
f 331/580/378 317/621/378 386/622/378 370/581/378
f 370/151/379 386/224/379 387/223/379 369/150/379
f 388/616/380 393/599/380 390/602/380 319/617/380
f 118/221/381 126/199/381 389/585/381 317/621/381
f 387/223/382 392/162/382 393/182/382 388/225/382
f 319/617/383 390/602/383 125/205/383 113/215/383
f 317/621/384 389/585/384 391/588/384 386/622/384
f 386/224/385 391/161/385 392/162/385 387/223/385
f 396/82/386 399/56/386 398/227/386 395/226/386
f 398/227/387 401/228/387 400/54/387 397/55/387
f 395/226/388 398/227/388 397/55/388 394/98/388
f 401/228/389 404/230/389 403/229/389 400/54/389
f 399/56/390 402/57/390 401/228/390 398/227/390
f 402/57/391 405/231/391 404/230/391 401/228/391
f 338/623/392 403/624/392 404/625/392 339/626/392
f 333/53/393 400/54/393 403/229/393 338/108/393
f 340/556/394 409/555/394 415/627/394 349/628/394
f 339/626/395 404/625/395 405/553/395 340/556/395
f 407/545/396 329/629/396 423/630/396 413/631/396
f 410/58/397 419/243/397 416/242/397 408/241/397
f 411/80/398 420/246/398 334/245/398 406/244/398
f 414/81/399 424/247/399 420/246/399 411/80/399
f 412/59/400 422/248/400 419/243/400 410/58/400
f 408/554/401 416/632/401 417/633/401 409/555/401
f 402/57/402 410/58/402 408/241/402 405/231/402
f 349/251/403 415/252/403 414/81/403 354/78/403
f 321/537/404 407/545/404 413/631/404 396/538/404
f 359/79/405 411/80/405 406/244/405 361/253/405
f 419/243/406 430/255/406 428/254/406 416/242/406
f 420/246/407 431/257/407 426/256/407 334/245/407
f 424/247/408 434/258/408 431/257/408 420/246/408
f 422/248/409 432/259/409 430/255/409 419/243/409
f 416/632/410 428/634/410 429/635/410 417/633/410
f 423/262/411 433/263/411 432/259/411 422/248/411
f 415/252/412 425/264/412 424/247/412 414/81/412
f 409/555/413 417/633/413 425/636/413 415/627/413
f 406/544/414 334/637/414 329/629/414 407/545/414
f 413/83/415 423/262/415 422/248/415 412/59/415
f 454/638/416 418/639/416 443/640/416 453/641/416
f 450/271/417 439/274/417 436/273/417 451/272/417
f 448/275/418 440/278/418 421/277/418 446/276/418
f 447/279/419 444/280/419 440/278/419 448/275/419
f 449/281/420 442/282/420 439/274/420 450/271/420
f 436/273/421 458/284/421 460/283/421 451/272/421
f 329/629/422 427/642/422 433/643/422 423/630/422
f 425/264/423 435/287/423 434/258/423 424/247/423
f 417/633/424 429/635/424 435/644/424 425/636/424
f 334/637/425 426/645/425 427/642/425 329/629/425
f 421/646/426 440/647/426 441/648/426 418/649/426
f 437/650/427 436/651/427 439/652/427 438/653/427
f 440/647/428 444/654/428 438/653/428 441/648/428
f 441/648/429 442/655/429 443/656/429 418/649/429
f 444/654/430 445/657/430 437/650/430 438/653/430
f 438/653/431 439/652/431 442/655/431 441/648/431
f 455/302/432 445/303/432 444/280/432 447/279/432
f 455/302/433 461/305/433 459/304/433 445/303/433
f 446/658/434 421/659/434 418/639/434 454/638/434
f 453/308/435 443/309/435 442/282/435 449/281/435
f 433/263/436 453/308/436 449/281/436 432/259/436
f 426/645/437 446/658/437 454/638/437 427/642/437
f 429/635/438 452/660/438 455/661/438 435/644/438
f 435/287/439 455/302/439 447/279/439 434/258/439
f 428/634/440 451/662/440 452/660/440 429/635/440
f 432/259/441 449/281/441 450/271/441 430/255/441
f 434/258/442 447/279/442 448/275/442 431/257/442
f 431/257/443 448/275/443 446/276/443 426/256/443
f 430/255/444 450/271/444 451/272/444 428/254/444
f 427/642/445 454/638/445 453/641/445 433/643/445
f 460/663/446 458/664/446 457/665/446 456/666/446
f 456/666/447 457/665/447 459/667/447 461/668/447
f 451/669/448 460/670/448 456/671/448 452/672/448
f 437/650/449 457/673/449 458/674/449 436/651/449
f 452/672/450 456/671/450 461/675/450 455/676/450
f 445/657/451 459/677/451 457/673/451 437/650/451
f 462/328/452 465/331/452 466/330/452 463/329/452
f 466/330/453 469/332/453 470/123/453 467/124/453
f 463/329/454 466/330/454 467/124/454 464/333/454
f 465/331/455 468/334/455 469/332/455 466/330/455
f 308/529/456 463/528/456 464/562/456 306/565/456
f 314/507/457 465/678/457 462/679/457 307/508/457
f 467/124/458 477/125/458 479/337/458 464/333/458
f 316/520/459 468/680/459 465/678/459 314/507/459
f 474/4/460 482/340/460 483/339/460 475/3/460
f 476/681/461 484/682/461 480/683/461 472/684/461
f 473/564/462 481/685/462 482/686/462 474/687/462
f 477/125/463 485/349/463 487/348/463 479/337/463
f 315/521/464 472/684/464 478/688/464 470/522/464
f 367/533/465 476/681/465 472/684/465 315/521/465
f 372/2/466 475/3/466 476/352/466 367/351/466
f 306/565/467 473/564/467 474/687/467 385/689/467
f 498/690/468 492/691/468 488/692/468 501/693/468
f 499/358/469 507/361/469 506/360/469 490/359/469
f 313/362/470 493/365/470 495/364/470 496/363/470
f 497/366/471 491/369/471 492/368/471 498/367/471
f 479/563/472 487/694/472 481/685/472 473/564/472
f 472/684/473 480/683/473 486/695/473 478/688/473
f 478/126/474 486/372/474 485/349/474 477/125/474
f 475/3/475 483/339/475 484/373/475 476/352/475
f 489/696/476 495/697/476 493/698/476 471/699/476
f 489/696/477 471/699/477 491/700/477 490/701/477
f 471/699/478 488/702/478 492/703/478 491/700/478
f 471/699/479 493/698/479 494/704/479 488/702/479
f 499/358/480 490/359/480 491/369/480 497/366/480
f 495/364/481 504/384/481 503/383/481 496/363/481
f 501/693/482 488/692/482 494/705/482 502/706/482
f 502/387/483 494/388/483 493/365/483 313/362/483
f 516/389/484 502/387/484 313/362/484 509/390/484
f 515/707/485 501/693/485 502/706/485 516/708/485
f 512/709/486 496/710/486 500/711/486 511/712/486
f 514/397/487 499/358/487 497/366/487 510/398/487
f 510/398/488 497/366/488 498/367/488 513/399/488
f 509/390/489 313/362/489 496/363/489 512/400/489
f 511/712/490 500/711/490 499/713/490 514/714/490
f 513/715/491 498/690/491 501/693/491 515/707/491
f 508/716/492 505/717/492 506/718/492 507/719/492
f 503/720/493 504/721/493 505/717/493 508/716/493
f 500/722/494 508/723/494 507/724/494 499/725/494
f 490/701/495 506/726/495 505/727/495 489/696/495
f 496/728/496 503/729/496 508/723/496 500/722/496
f 489/696/497 505/727/497 504/730/497 495/697/497
f 484/682/498 513/715/498 515/707/498 480/683/498
f 481/685/499 511/712/499 514/714/499 482/686/499
f 485/349/500 509/390/500 512/400/500 487/348/500
f 483/339/501 510/398/501 513/399/501 484/373/501
f 482/340/502 514/397/502 510/398/502 483/339/502
f 487/694/503 512/709/503 511/712/503 481/685/503
f 480/683/504 515/707/504 516/708/504 486/695/504
f 486/372/505 516/389/505 509/390/505 485/349/505
f 252/419/506 517/731/506 518/732/506 251/420/506
f 519/733/507 517/734/507 252/425/507 257/424/507
f 258/427/508 251/420/508 518/732/508 520/735/508
f 24/107/509 258/430/509 520/736/509 366/519/509
f 365/530/510 519/737/510 257/431/510 26/119/510
f 366/532/511 520/735/511 519/737/511 365/530/511
f 362/433/512 521/133/512 522/134/512 363/434/512
f 537/435/513 523/172/513 521/133/513 362/433/513
f 363/434/514 522/134/514 524/149/514 538/436/514
f 538/436/515 524/149/515 523/172/515 537/435/515 545/438/515 546/437/515
f 362/738/516 525/739/516 541/740/516 537/741/516
f 528/443/517 542/446/517 540/445/517 526/444/517
f 538/436/518 544/448/518 529/447/518 363/434/518
f 540/742/519 539/743/519 527/744/519 526/745/519
f 539/743/520 541/740/520 525/739/520 527/744/520
f 528/443/521 530/454/521 543/453/521 542/446/521
f 530/454/522 529/447/522 544/448/522 543/453/522
f 363/746/523 529/747/523 530/748/523 528/749/523 526/750/523 527/751/523 525/752/523 362/753/523
f 378/754/524 538/755/524 546/756/524
f 533/757/525 539/758/525 540/759/525 531/760/525
f 532/761/526 541/762/526 539/758/526 533/757/526
f 535/611/527 542/763/527 543/764/527 536/608/527
f 536/608/253 543/764/253 544/765/253 534/766/253
f 531/760/528 540/759/528 542/763/528 535/611/528
f 381/767/529 537/768/529 541/762/529 532/761/529
f 534/766/530 544/765/530 538/755/530 378/754/530
f 547/769/531 551/770/531 549/771/531 550/772/531 552/610/531 553/609/531 554/773/531 548/774/531
f 545/775/532 537/768/532 381/767/532
f 532/761/533 551/770/533 547/769/533 381/767/533
f 556/776/534 555/777/534 547/769/534 548/774/534
f 381/767/535 547/769/535 555/777/535 545/775/535
f 378/754/536 548/774/536 554/773/536 534/766/536
f 534/766/537 554/773/537 553/609/537 536/608/537
f 531/760/538 550/772/538 549/771/538 533/757/538
f 545/438/539 555/488/539 556/487/539 546/437/539
f 535/611/540 552/610/540 550/772/540 531/760/540
f 546/756/541 556/776/541 548/774/541 378/754/541
f 533/757/542 549/771/542 551/770/542 532/761/542
f 559/778/543 374/779/543 326/780/543 557/781/543
f 558/613/544 561/605/544 377/604/544 560/782/544
f 375/783/545 325/612/545 558/613/545 560/782/545
f 326/606/546 561/605/546 303/496/546 302/495/546
f 299/497/547 303/500/547 561/784/547 558/785/547
f 557/781/548 326/780/548 302/502/548 300/501/548
f 560/184/549 377/504/549 374/503/549 559/183/549
f 562/786/550 575/787/550 574/788/550
f 563/789/551 575/790/551 577/791/551
f 562/792/552 574/793/552 579/794/552
f 562/795/553 579/796/553 581/797/553
f 562/798/554 581/799/554 578/800/554
f 563/789/555 577/791/555 584/801/555
f 564/802/556 576/803/556 586/804/556
f 565/805/557 580/806/557 588/807/557
f 566/808/558 582/809/558 590/810/558
f 567/811/559 583/812/559 592/813/559
f 563/789/560 584/801/560 587/814/560
f 564/802/561 586/804/561 589/815/561
f 565/805/562 588/807/562 591/816/562
f 566/808/563 590/810/563 593/817/563
f 567/811/564 592/813/564 585/818/564
f 568/819/565 594/820/565 599/821/565
f 569/822/566 595/823/566 601/824/566
f 570/825/567 596/826/567 602/827/567
f 571/828/568 597/829/568 603/830/568
f 572/831/569 598/832/569 600/833/569
f 600/833/570 603/834/570 573/835/570
f 600/833/571 598/832/571 603/834/571
f 598/832/572 571/828/572 603/834/572
f 603/830/573 602/836/573 573/837/573
f 603/830/574 597/829/574 602/836/574
f 597/829/575 570/825/575 602/836/575
f 602/827/576 601/838/576 573/839/576
f 602/827/577 596/826/577 601/838/577
f 596/826/578 569/840/578 601/838/578
f 601/824/579 599/841/579 573/842/579
f 601/824/580 595/823/580 599/841/580
f 595/823/581 568/819/581 599/841/581
f 599/821/582 600/843/582 573/844/582
f 599/821/583 594/820/583 600/843/583
f 594/820/584 572/831/584 600/843/584
f 585/818/585 598/832/585 572/831/585
f 585/818/586 592/813/586 598/832/586
f 592/813/587 571/828/587 598/832/587
f 593/817/588 597/829/588 571/828/588
f 593/817/589 590/810/589 597/829/589
f 590/810/590 570/825/590 597/829/590
f 591/816/591 596/826/591 570/825/591
f 591/816/592 588/807/592 596/826/592
f 588/807/593 569/840/593 596/826/593
f 589/815/594 595/823/594 569/822/594
f 589/815/595 586/804/595 595/823/595
f 586/804/596 568/819/596 595/823/596
f 587/814/597 594/820/597 568/819/597
f 587/814/598 584/801/598 594/820/598
f 584/801/599 572/831/599 594/820/599
f 592/813/600 593/817/600 571/828/600
f 592/813/601 583/812/601 593/817/601
f 583/812/602 566/808/602 593/817/602
f 590/810/603 591/816/603 570/825/603
f 590/810/604 582/809/604 591/816/604
f 582/809/605 565/805/605 591/816/605
f 588/807/606 589/845/606 569/840/606
f 588/807/607 580/806/607 589/845/607
f 580/806/608 564/846/608 589/845/608
f 586/804/609 587/814/609 568/819/609
f 586/804/610 576/803/610 587/814/610
f 576/803/611 563/789/611 587/814/611
f 584/801/612 585/818/612 572/831/612
f 584/801/613 577/791/613 585/818/613
f 577/791/614 567/811/614 585/818/614
f 578/800/615 583/812/615 567/811/615
f 578/800/616 581/799/616 583/812/616
f 581/799/617 566/808/617 583/812/617
f 581/797/618 582/809/618 566/808/618
f 581/797/619 579/796/619 582/809/619
f 579/796/620 565/805/620 582/809/620
f 579/794/621 580/806/621 565/805/621
f 579/794/622 574/793/622 580/806/622
f 574/793/623 564/846/623 580/806/623
f 577/791/624 578/847/624 567/811/624
f 577/791/625 575/790/625 578/847/625
f 575/790/626 562/848/626 578/847/626
f 574/788/627 576/803/627 564/802/627
f 574/788/628 575/787/628 576/803/628
f 575/787/629 563/789/629 576/803/629
f 604/786/630 616/788/630 617/787/630
f 605/789/631 619/791/631 617/790/631
f 604/792/632 621/794/632 616/793/632
f 604/795/633 623/797/633 621/796/633
f 604/798/634 620/800/634 623/799/634
f 605/789/635 626/801/635 619/791/635
f 606/802/636 628/804/636 618/803/636
f 607/805/637 630/807/637 622/806/637
f 608/808/638 632/810/638 624/809/638
f 609/811/639 634/813/639 625/812/639
f 605/789/640 629/814/640 626/801/640
f 606/802/641 631/815/641 628/804/641
f 607/805/642 633/816/642 630/807/642
f 608/808/643 635/817/643 632/810/643
f 609/811/644 627/818/644 634/813/644
f 610/819/645 641/821/645 636/820/645
f 611/822/646 643/824/646 637/823/646
f 612/825/647 644/827/647 638/826/647
f 613/828/648 645/830/648 639/829/648
f 614/831/649 642/833/649 640/832/649
f 642/833/650 615/835/650 645/834/650
f 642/833/651 645/834/651 640/832/651
f 640/832/652 645/834/652 613/828/652
f 645/830/653 615/837/653 644/836/653
f 645/830/654 644/836/654 639/829/654
f 639/829/655 644/836/655 612/825/655
f 644/827/656 615/839/656 643/838/656
f 644/827/657 643/838/657 638/826/657
f 638/826/658 643/838/658 611/840/658
f 643/824/659 615/842/659 641/841/659
f 643/824/660 641/841/660 637/823/660
f 637/823/661 641/841/661 610/819/661
f 641/821/662 615/844/662 642/843/662
f 641/821/663 642/843/663 636/820/663
f 636/820/664 642/843/664 614/831/664
f 627/818/665 614/831/665 640/832/665
f 627/818/666 640/832/666 634/813/666
f 634/813/667 640/832/667 613/828/667
f 635/817/668 613/828/668 639/829/668
f 635/817/669 639/829/669 632/810/669
f 632/810/670 639/829/670 612/825/670
f 633/816/671 612/825/671 638/826/671
f 633/816/672 638/826/672 630/807/672
f 630/807/673 638/826/673 611/840/673
f 631/815/674 611/822/674 637/823/674
f 631/815/675 637/823/675 628/804/675
f 628/804/676 637/823/676 610/819/676
f 629/814/677 610/819/677 636/820/677
f 629/814/678 636/820/678 626/801/678
f 626/801/679 636/820/679 614/831/679
f 634/813/680 613/828/680 635/817/680
f 634/813/681 635/817/681 625/812/681
f 625/812/682 635/817/682 608/808/682
f 632/810/683 612/825/683 633/816/683
f 632/810/684 633/816/684 624/809/684
f 624/809/685 633/816/685 607/805/685
f 630/807/686 611/840/686 631/845/686
f 630/807/687 631/845/687 622/806/687
f 622/806/688 631/845/688 606/846/688
f 628/804/689 610/819/689 629/814/689
f 628/804/690 629/814/690 618/803/690
f 618/803/691 629/814/691 605/789/691
f 626/801/692 614/831/692 627/818/692
f 626/801/693 627/818/693 619/791/693
f 619/791/694 627/818/694 609/811/694
f 620/800/695 609/811/695 625/812/695
f 620/800/696 625/812/696 623/799/696
f 623/799/697 625/812/697 608/808/697
f 623/797/698 608/808/698 624/809/698
f 623/797/699 624/809/699 621/796/699
f 621/796/700 624/809/700 607/805/700
f 621/794/701 607/805/701 622/806/701
f 621/794/702 622/806/702 616/793/702
f 616/793/703 622/806/703 606/846/703
f 619/791/704 609/811/704 620/847/704
f 619/791/705 620/847/705 617/790/705
f 617/790/706 620/847/706 604/848/706
f 616/788/707 606/802/707 618/803/707
f 616/788/708 618/803/708 617/787/708
f 617/787/709 618/803/709 605/789/709
