# Blender 5.1.1
# www.blender.org
o Куб.001
v 0.540703 0.980436 0.630504
v 0.532211 2.430914 0.476601
v 0.624704 1.173646 -0.218954
v 0.617866 2.394739 -0.215839
v 0.005471 1.019328 -0.322239
v -0.000000 2.480862 -0.357245
v 0.716318 1.790030 0.026358
v 0.626543 0.998810 0.151201
v 0.608768 2.457998 0.126505
v 0.651981 1.674220 0.515701
v -0.002904 0.966176 0.672170
v -0.000000 2.544096 0.544675
v 0.725568 1.773748 0.132343
v 0.004953 0.914684 0.185877
v -0.000000 2.614716 0.130571
v 0.836522 0.552161 -1.083803
v 0.534576 2.356210 -0.505715
v 0.004723 1.105933 -0.581316
v 0.000000 2.280686 -0.622767
v 0.480319 1.473811 -0.794016
v 0.464148 2.174584 -0.750648
v 0.090362 0.824602 3.138932
v 0.002884 1.222698 -0.802828
v -0.000000 2.103516 -0.887623
v 0.569270 1.810917 -0.857336
v 0.000520 1.596786 -0.915877
v 0.084677 1.216094 3.223544
v 0.172094 1.608837 3.041513
v 0.444613 1.049490 1.225210
v 0.500004 2.376987 0.889557
v 0.175772 0.851883 2.938704
v 0.610277 1.644004 0.875010
v -0.009909 1.006817 1.114650
v -0.000022 2.487596 0.979386
v 0.059274 0.831901 3.370398
v 0.033850 0.988041 3.440616
v 0.047665 0.788252 3.258391
v 0.570340 2.528199 1.239684
v 0.537451 0.421526 1.521594
v -0.006571 0.951744 1.469603
v 0.002099 2.650883 1.345335
v 0.118300 1.425717 3.222109
v 0.136209 0.825722 3.052658
v 0.177045 1.791952 2.822788
v 0.583003 2.528340 1.435916
v 0.443448 0.422117 1.581651
v -0.003969 0.986508 1.617769
v 0.000979 2.655061 1.544468
v 0.190837 0.885805 2.822995
v 0.177045 1.909035 2.650770
v 0.177045 0.924746 2.681529
v 0.540207 2.469419 1.719261
v 0.658225 1.803449 1.767601
v 0.538515 1.080955 1.988165
v -0.001233 1.075108 1.784399
v 0.000022 2.587758 1.817999
v 0.181751 2.059644 2.401913
v 0.181751 1.080099 2.324789
v 0.453410 2.245612 2.005910
v 0.552559 1.599953 1.932423
v 0.453202 1.339517 1.947478
v -0.000486 1.155906 1.918706
v 0.000000 2.337327 2.103331
v 0.227127 2.303800 2.070632
v 0.227001 1.238253 1.934340
v 0.271600 2.554620 1.765669
v 0.350099 1.064748 1.774025
v 0.364925 2.002468 2.356857
v 0.444844 1.428416 2.320539
v 0.364925 1.132302 2.266637
v -0.000000 1.045625 2.337205
v -0.000000 2.088896 2.404661
v 0.293568 2.618924 1.479477
v 0.293350 1.047003 1.666639
v 0.287169 2.616663 1.276950
v 0.355746 1.860393 2.607647
v 0.433703 1.373596 2.605313
v 0.355746 0.972488 2.630328
v -0.000000 0.897846 2.668806
v -0.000000 1.935622 2.638620
v 0.286684 1.057111 1.632959
v 0.250990 2.456718 0.911335
v 0.309189 1.045857 1.395084
v 0.372539 1.610288 2.780989
v 0.455708 1.401407 2.750062
v 0.382651 0.936181 2.778309
v -0.000000 0.859583 2.805547
v -0.000000 1.820430 2.803366
v 0.251395 1.669679 -0.896628
v 0.203142 2.108493 -0.851781
v 0.338996 1.394735 -0.757563
v 0.241143 1.398908 3.169402
v 0.339854 1.158626 3.067284
v 0.276080 0.862918 3.014862
v -0.000000 0.815763 3.017399
v -0.000000 1.449492 3.193150
v 0.249111 2.268592 -0.661234
v 0.300627 1.223607 -0.529734
v 0.307053 2.558054 0.093847
v 0.069124 0.989000 3.418436
v 0.125993 0.847913 3.332932
v 0.103346 0.814282 3.255754
v -0.000000 0.777926 3.267104
v 0.064203 0.937039 3.423246
v -0.000000 0.822015 3.365677
v 0.465527 1.443374 2.838135
v -0.000000 0.833810 2.913903
v 0.353261 0.895908 2.896052
v 0.322364 0.955994 0.122793
v -0.000000 1.639851 3.017872
v 0.402860 1.576009 2.863730
v 0.267639 2.510685 0.480969
v -0.000000 1.218717 3.222707
v 0.271744 0.939127 0.628076
v 0.301050 2.456450 -0.394006
v 0.378095 1.113610 -0.287091
v 0.186642 0.855361 3.102765
v -0.000000 0.821138 3.097803
v 0.210413 1.003264 3.200119
v 0.175549 1.182835 3.200293
v 0.070240 0.806128 3.193401
v 0.067630 1.065683 3.344577
v 0.139993 0.824946 3.186131
v 0.161300 0.926447 3.265938
v -0.000000 1.074220 3.333360
v -0.000000 0.799798 3.178521
v 0.134901 1.055250 3.313558
v 0.611569 2.246760 0.987839
v 0.707934 1.619774 0.937061
v 0.640551 1.122018 1.245834
v 0.672025 2.396652 1.230872
v 0.785352 1.594961 1.429277
v 0.799026 1.092722 1.685863
v 0.636698 2.421940 1.417877
v 0.799081 1.684827 1.581682
v 0.810209 1.090312 1.865791
v 0.641487 2.279967 1.587955
v 0.751564 1.792499 1.739941
v 0.742975 1.119075 1.994729
v 0.422815 0.657203 1.465984
v 0.520692 0.686655 1.390990
v 0.739860 0.674020 1.926348
v 0.589921 0.650796 1.972513
v 0.789578 0.658753 1.807076
v 0.403193 0.618749 1.698087
v 0.781305 0.663720 1.676294
v 0.664851 0.707085 1.386662
v 0.407895 0.611530 1.830543
v 0.451581 0.636083 1.910020
v 0.751681 0.468745 1.888230
v 0.603602 0.468530 1.932604
v 0.539702 -0.040944 1.527006
v 0.802438 0.451838 1.798975
v 0.421589 0.428717 1.716048
v 0.424650 -0.037151 1.585245
v 0.791035 0.438484 1.698721
v 0.675048 0.426592 1.525183
v 0.422904 0.443623 1.830373
v 0.466090 0.460094 1.900574
v 0.440855 0.224384 1.561121
v 0.544709 0.219864 1.506628
v 0.781005 0.268784 1.839891
v 0.619242 0.272287 1.880652
v 0.800837 0.250103 1.758741
v 0.422715 0.234766 1.683078
v 0.790589 0.235093 1.667428
v 0.697591 0.221424 1.509944
v 0.425743 0.251459 1.786798
v 0.469764 0.267293 1.850450
v 0.828157 -0.012905 1.883887
v 0.621761 -0.012739 1.925703
v 0.659608 -0.021159 1.802521
v 0.824505 -0.020511 1.796444
v 0.404613 -0.029144 1.715662
v 0.648667 -0.030828 1.696316
v 0.814599 -0.030437 1.699621
v 0.709157 -0.040246 1.530864
v 0.410237 -0.018067 1.826287
v 0.428721 -0.012502 1.894934
v 0.430297 0.098960 1.574180
v 0.416391 0.124177 1.808738
v 0.410929 0.109110 1.700671
v 0.805859 0.108377 1.684800
v 0.815453 0.122197 1.779597
v 0.799141 0.191878 1.858891
v 0.623945 0.191659 1.904177
v 0.705101 0.095299 1.521433
v 0.541428 0.094202 1.517810
v 0.460526 0.191304 1.869755
v 0.620729 0.108520 2.047500
v 0.621536 -0.008735 2.061656
v 0.797713 -0.009004 2.019418
v 0.458970 -0.009007 2.030459
v 0.790888 0.108928 2.005721
v 0.463706 0.108867 2.016143
v 0.759384 2.333588 -0.271463
v 0.795954 1.816132 -0.071436
v 0.784031 1.221886 -0.286579
v 0.751033 2.268120 -0.507495
v 0.867352 1.840851 -0.556872
v 0.829841 1.339635 -0.518633
v 0.743807 2.143995 -0.705815
v 0.847040 1.848165 -0.774929
v 0.759632 1.480206 -0.751954
v 0.614188 0.385287 -1.232565
v 0.546122 1.204464 -0.936924
v 0.658311 0.994422 -0.359592
v 0.461889 1.000007 -0.420754
v 0.401837 1.087195 -0.668037
v 0.434351 1.183143 -0.894194
v 0.823753 1.106091 -0.662702
v 0.768723 1.192075 -0.900622
v 0.786373 1.023314 -0.432679
v 0.566428 1.028330 -0.963916
v 0.661225 0.586324 -0.651217
v 0.482687 0.639305 -0.693133
v 0.431776 0.849912 -0.809862
v 0.464238 1.000564 -0.936716
v 0.816778 0.835646 -0.796515
v 0.769224 1.003810 -0.936030
v 0.779107 0.644475 -0.684024
v 0.559457 0.560357 -1.396364
v 0.675425 0.244280 -1.061542
v 0.420513 0.270487 -1.113922
v 0.409846 0.404123 -1.257562
v 0.445471 0.536649 -1.374977
v 0.838539 0.393467 -1.245844
v 0.784987 0.533674 -1.375913
v 0.842070 0.273541 -1.110020
v 0.837830 0.426432 -0.964851
v 0.407857 0.564707 -1.096778
v 0.443579 0.699455 -1.209147
v 0.416340 0.426487 -0.968696
v 0.670953 0.391143 -0.927163
v 0.557615 0.724630 -1.228460
v 0.783116 0.696768 -1.208527
v 0.793266 0.280195 -0.940017
v 0.797707 0.188788 -0.999308
v 0.667252 0.158396 -0.953078
v 0.467819 0.183295 -1.003968
v 0.463309 0.271930 -0.945729
v 0.662887 0.253295 -0.893612
v 0.803442 0.706065 -0.926856
v 0.444401 0.717057 -0.936044
v 0.659551 0.531374 -0.787038
v 0.769098 0.570292 -0.820871
v 0.475241 0.848788 -1.031627
v 0.492792 0.568803 -0.825423
v 0.570914 0.872641 -1.049270
v 0.759754 0.847187 -1.031648
v -0.000000 1.964712 -0.963352
v -0.000000 1.715167 -1.003691
v 0.092572 1.735154 -0.967447
v 0.076591 1.955334 -0.937061
v 0.128223 1.731114 -0.918350
v 0.088882 2.048142 -0.898695
v -0.000000 1.692332 -0.956154
v -0.000000 2.059583 -0.930772
v 0.353936 1.740187 2.705149
v 0.462452 1.323181 2.711062
v 0.346085 1.565297 2.992445
v 0.469988 1.294390 2.914227
v 0.431634 1.649234 2.820675
v 0.509515 1.633034 2.837351
v 0.472450 1.656304 2.837596
v 0.537234 1.597106 2.827434
v 0.536419 1.511874 2.797166
v 0.550043 1.555185 2.813908
v 0.514399 1.594878 2.872905
v 0.455471 1.605701 2.875910
v 0.486059 1.610448 2.878209
v 0.527030 1.520666 2.851864
v 0.527210 1.580200 2.867642
v 0.537319 1.551291 2.858940
v 0.372831 1.585689 2.865937
v 0.460350 1.400213 2.827924
v 0.490673 1.634198 2.884144
v 0.529939 1.612440 2.877310
v 0.447174 1.627443 2.881314
v 0.548145 1.591358 2.870470
v 0.562047 1.551397 2.859040
v 0.548125 1.509931 2.849284
v 0.383871 1.561135 2.860831
v 0.450291 1.421654 2.832234
v 0.413090 1.560240 2.849288
v 0.458299 1.464775 2.830819
v 0.473111 1.585154 2.859744
v 0.493557 1.573989 2.855937
v 0.451044 1.581735 2.858077
v 0.502798 1.563452 2.852153
v 0.510091 1.542670 2.845896
v 0.502668 1.520707 2.840830
v 0.399391 1.549773 2.847243
v 0.447307 1.449073 2.826494
v 0.058900 1.000292 3.408319
v 0.055763 0.912691 3.418039
v 0.099802 1.003153 3.380297
v 0.095412 0.915283 3.390887
v -0.000000 0.912842 3.421086
v -0.000000 0.997859 3.411762
v 0.030579 0.936216 3.444746
v -0.000000 0.986207 3.439519
v -0.000000 0.935996 3.444132
v -0.545389 1.195144 0.594224
v -0.532598 2.432370 0.474132
v -0.602191 1.148556 0.027784
v -0.619472 2.368935 -0.229514
v -0.708444 1.755870 0.078899
v -0.615378 1.123087 0.278442
v -0.609568 2.454127 0.119435
v -0.652675 1.752211 0.514506
v -0.718900 1.764600 0.175446
v -0.820518 0.215722 -0.268491
v -0.537649 2.233311 -0.530186
v -0.464303 1.219434 -0.641118
v -0.464300 2.041773 -0.749413
v -0.090363 0.824602 3.138932
v -0.561870 1.621980 -0.806349
v -0.084677 1.216094 3.223544
v -0.172094 1.608843 3.041513
v -0.473992 1.372629 0.985803
v -0.500953 2.381291 0.889753
v -0.175772 0.851883 2.938704
v -0.617594 1.748246 0.851565
v -0.059274 0.831901 3.370398
v -0.033850 0.988041 3.440616
v -0.047665 0.788252 3.258391
v -0.569280 2.539502 1.239715
v -0.556947 0.870939 0.860918
v -0.118300 1.425717 3.222109
v -0.136209 0.825722 3.052658
v -0.177045 1.791952 2.822787
v -0.581835 2.540885 1.435950
v -0.461291 0.836101 0.907426
v -0.190837 0.885805 2.822995
v -0.177045 1.909035 2.650769
v -0.177045 0.924746 2.681529
v -0.540677 2.478425 1.719297
v -0.673535 1.931916 1.711567
v -0.559614 1.093334 1.695294
v -0.181751 2.059644 2.401913
v -0.181751 1.080098 2.324789
v -0.454458 2.252975 2.016308
v -0.559088 1.607610 1.904607
v -0.460596 1.325005 1.889945
v -0.227358 2.303885 2.070635
v -0.230602 1.228611 1.900659
v -0.271203 2.555317 1.765668
v -0.361736 1.086067 1.627986
v -0.364925 2.002468 2.356857
v -0.445478 1.424781 2.318691
v -0.364925 1.132302 2.266639
v -0.290342 2.622267 1.479461
v -0.307198 1.095887 1.513826
v -0.283663 2.620414 1.276934
v -0.355746 1.860393 2.607647
v -0.433703 1.373599 2.605318
v -0.355746 0.972490 2.630335
v -0.313578 1.192243 1.392325
v -0.251181 2.457107 0.911338
v -0.339995 1.281573 1.145930
v -0.372539 1.610287 2.780989
v -0.455708 1.401422 2.750073
v -0.382651 0.936184 2.778316
v -0.248970 1.608243 -0.883142
v -0.203268 2.087075 -0.852384
v -0.324414 1.189463 -0.611585
v -0.241143 1.398920 3.169406
v -0.339854 1.158626 3.067284
v -0.276080 0.862918 3.014862
v -0.249692 2.242759 -0.665713
v -0.282344 1.108157 -0.363135
v -0.307155 2.557655 0.092953
v -0.069124 0.989000 3.418436
v -0.125993 0.847913 3.332932
v -0.103346 0.814282 3.255754
v -0.064203 0.937039 3.423246
v -0.465527 1.443407 2.838151
v -0.353261 0.895908 2.896052
v -0.308781 1.014534 0.220179
v -0.402860 1.576077 2.863738
v -0.267634 2.510717 0.480969
v -0.277036 1.078165 0.594963
v -0.301735 2.445300 -0.399712
v -0.356857 1.062733 -0.069776
v -0.186642 0.855361 3.102765
v -0.210413 1.003264 3.200119
v -0.175549 1.182835 3.200293
v -0.070240 0.806128 3.193401
v -0.067630 1.065683 3.344577
v -0.139993 0.824946 3.186131
v -0.161300 0.926447 3.265938
v -0.134901 1.055250 3.313558
v -0.615469 2.281968 0.990040
v -0.717765 1.754841 0.899644
v -0.672517 1.499195 1.011942
v -0.673987 2.433499 1.238039
v -0.805137 1.863331 1.316947
v -0.829801 1.316875 1.353786
v -0.638569 2.441038 1.420203
v -0.817712 1.907190 1.486965
v -0.840009 1.222128 1.506478
v -0.646757 2.320820 1.602722
v -0.768258 1.940227 1.678380
v -0.770180 1.163085 1.655556
v -0.449313 1.070344 0.951541
v -0.548122 1.131835 0.902356
v -0.760211 0.828488 1.337175
v -0.608757 0.779218 1.372232
v -0.810709 0.879740 1.228733
v -0.425223 0.914858 1.120228
v -0.803662 0.955938 1.121133
v -0.691382 1.150112 0.904141
v -0.427115 0.824089 1.236212
v -0.469757 0.787204 1.333290
v -0.762538 0.659779 1.171625
v -0.613449 0.636931 1.207215
v -0.540202 0.545344 0.568684
v -0.814782 0.700719 1.090982
v -0.435880 0.755021 1.014523
v -0.423354 0.512044 0.611012
v -0.805604 0.755671 1.005259
v -0.694471 0.865793 0.866331
v -0.434796 0.692691 1.112944
v -0.476805 0.658425 1.178158
v -0.450794 0.706207 0.763120
v -0.556113 0.734098 0.718585
v -0.783002 0.529388 0.998208
v -0.620053 0.508254 1.031728
v -0.804682 0.571798 0.924660
v -0.429078 0.632083 0.860688
v -0.796929 0.624129 0.846214
v -0.708724 0.724754 0.720830
v -0.429468 0.572353 0.949727
v -0.472047 0.536795 1.007851
v -0.815917 0.282997 0.813180
v -0.607906 0.257110 0.832675
v -0.650590 0.351489 0.756353
v -0.815537 0.348016 0.756687
v -0.398953 0.424778 0.703614
v -0.643323 0.425134 0.688649
v -0.808884 0.413626 0.690459
v -0.709296 0.533895 0.571097
v -0.400798 0.348836 0.779251
v -0.416671 0.296629 0.822847
v -0.434522 0.607228 0.692222
v -0.413445 0.460984 0.877705
v -0.411254 0.528216 0.790560
v -0.806131 0.517566 0.776184
v -0.812940 0.459929 0.854150
v -0.796645 0.452509 0.958707
v -0.619122 0.412200 0.989099
v -0.710541 0.625457 0.649435
v -0.547197 0.636165 0.647120
v -0.458093 0.462246 0.967275
v -0.606118 0.230163 1.004079
v -0.602109 0.147794 0.913395
v -0.779989 0.176163 0.892795
v -0.441297 0.185688 0.900835
v -0.778125 0.261352 0.982978
v -0.451128 0.272990 0.991834
v -0.762347 2.229228 -0.296585
v -0.786890 1.751426 -0.008662
v -0.762380 1.168110 -0.050510
v -0.752301 2.107002 -0.516317
v -0.858104 1.666597 -0.487439
v -0.810143 1.180694 -0.308883
v -0.742123 1.953530 -0.694527
v -0.837780 1.625659 -0.708146
v -0.742131 1.217306 -0.583525
v -0.603270 -0.010879 -0.234044
v -0.522623 0.871539 -0.647091
v -0.633162 0.954411 -0.027858
v -0.436466 0.931339 -0.095120
v -0.377066 0.897280 -0.358625
v -0.410523 0.873254 -0.600873
v -0.799898 0.911250 -0.346144
v -0.745376 0.877478 -0.604747
v -0.761600 0.946244 -0.102923
v -0.538968 0.653738 -0.590657
v -0.639692 0.553832 -0.025905
v -0.460515 0.554908 -0.093091
v -0.406390 0.605397 -0.333216
v -0.436854 0.644683 -0.549747
v -0.791561 0.612825 -0.315620
v -0.741884 0.650097 -0.550928
v -0.756685 0.569453 -0.093337
v -0.546393 -0.020471 -0.471733
v -0.665852 0.016576 -0.014528
v -0.410957 -0.005605 -0.066152
v -0.398824 -0.021298 -0.260875
v -0.432739 -0.022616 -0.438466
v -0.827513 -0.010315 -0.249143
v -0.772234 -0.017853 -0.440218
v -0.832294 0.007987 -0.069776
v -0.823364 0.227702 -0.093436
v -0.391829 0.204682 -0.281397
v -0.425745 0.203002 -0.457790
v -0.402027 0.215414 -0.091007
v -0.656923 0.230192 -0.039777
v -0.539398 0.205988 -0.490901
v -0.765239 0.208536 -0.459129
v -0.781709 0.136459 0.041672
v -0.788686 0.027805 0.067911
v -0.658470 0.035411 0.122577
v -0.459052 0.014093 0.071797
v -0.452076 0.121264 0.046557
v -0.651493 0.146578 0.094772
v -0.782621 0.433173 -0.292265
v -0.423396 0.424601 -0.304199
v -0.640973 0.427474 -0.066267
v -0.750087 0.429571 -0.119043
v -0.451813 0.434623 -0.474753
v -0.473867 0.418427 -0.117592
v -0.547050 0.438770 -0.506808
v -0.736296 0.439088 -0.476158
v -0.092420 1.729726 -0.966046
v -0.076591 1.955334 -0.937061
v -0.127603 1.710250 -0.914984
v -0.088882 2.048142 -0.898695
v -0.353936 1.740187 2.705149
v -0.462452 1.323189 2.711072
v -0.346085 1.565315 2.992447
v -0.469988 1.294401 2.914235
v -0.431634 1.649323 2.820669
v -0.509515 1.633188 2.837348
v -0.472450 1.656450 2.837585
v -0.537234 1.597274 2.827447
v -0.536419 1.511969 2.797197
v -0.550043 1.555313 2.813933
v -0.514399 1.595008 2.872915
v -0.455471 1.605822 2.875916
v -0.486059 1.610578 2.878214
v -0.527030 1.520771 2.851892
v -0.527210 1.580330 2.867657
v -0.537319 1.551413 2.858963
v -0.372831 1.585713 2.865940
v -0.460350 1.400232 2.827935
v -0.490673 1.634343 2.884142
v -0.529939 1.612588 2.877315
v -0.447174 1.627562 2.881314
v -0.548145 1.591504 2.870482
v -0.562047 1.551527 2.859065
v -0.548125 1.510038 2.849316
v -0.383871 1.561205 2.860842
v -0.450291 1.421674 2.832246
v -0.413090 1.560317 2.849301
v -0.458299 1.464803 2.830831
v -0.473111 1.585266 2.859756
v -0.493557 1.574082 2.855949
v -0.451044 1.581855 2.858090
v -0.502798 1.563555 2.852170
v -0.510091 1.542784 2.845921
v -0.502668 1.520799 2.840855
v -0.399391 1.549840 2.847255
v -0.447307 1.449099 2.826506
v -0.058900 1.000292 3.408319
v -0.055763 0.912691 3.418039
v -0.099802 1.003153 3.380297
v -0.095412 0.915283 3.390887
v -0.030579 0.936216 3.444746
v 0.291561 1.189414 3.099314
v 0.306648 1.258032 3.112346
v 0.269728 1.188790 3.141237
v 0.232186 1.148610 3.140423
v 0.245906 1.193020 3.111029
v 0.291926 1.260645 3.093676
v 0.256597 1.259636 3.161511
v 0.210577 1.192010 3.178863
v 0.195855 1.194624 3.160193
v 0.232775 1.263865 3.131302
v 0.270316 1.304045 3.132116
v 0.210942 1.263242 3.173225
v 0.285805 1.182566 3.117467
v 0.307506 1.223265 3.100486
v 0.294673 1.222899 3.125128
v 0.307720 1.265134 3.097172
v 0.298852 1.224802 3.089512
v 0.263739 1.158949 3.116989
v 0.250905 1.158582 3.141631
v 0.271803 1.185053 3.099711
v 0.236903 1.161068 3.123875
v 0.272017 1.226921 3.096398
v 0.295019 1.290644 3.119766
v 0.286365 1.292181 3.108792
v 0.265254 1.223842 3.154026
v 0.286955 1.264541 3.137044
v 0.216138 1.160475 3.163747
v 0.238204 1.184092 3.164226
v 0.215548 1.188115 3.135495
v 0.207484 1.162012 3.152773
v 0.264299 1.268563 3.108314
v 0.237249 1.228814 3.118513
v 0.265600 1.291587 3.148664
v 0.230486 1.225735 3.176142
v 0.194783 1.187521 3.175367
v 0.207830 1.229757 3.147412
v 0.251598 1.294073 3.130908
v 0.230700 1.267603 3.172827
v 0.238764 1.293706 3.155550
v 0.203650 1.227854 3.183027
v 0.194997 1.229390 3.172053
v 0.216698 1.270089 3.155072
v -0.291561 1.189414 3.099314
v -0.306648 1.258031 3.112346
v -0.269728 1.188790 3.141238
v -0.232186 1.148610 3.140424
v -0.245906 1.193020 3.111029
v -0.291925 1.260645 3.093677
v -0.256597 1.259636 3.161511
v -0.210577 1.192010 3.178863
v -0.195854 1.194624 3.160194
v -0.232775 1.263865 3.131302
v -0.270316 1.304045 3.132116
v -0.210942 1.263242 3.173225
v -0.285805 1.182566 3.117468
v -0.307506 1.223265 3.100486
v -0.294673 1.222899 3.125128
v -0.307720 1.265134 3.097173
v -0.298852 1.224802 3.089512
v -0.263739 1.158949 3.116990
v -0.250905 1.158582 3.141632
v -0.271803 1.185052 3.099712
v -0.236903 1.161068 3.123875
v -0.272017 1.226921 3.096398
v -0.295019 1.290644 3.119766
v -0.286365 1.292180 3.108793
v -0.265254 1.223842 3.154026
v -0.286955 1.264541 3.137044
v -0.216137 1.160475 3.163747
v -0.238204 1.184092 3.164226
v -0.215548 1.188114 3.135496
v -0.207484 1.162011 3.152773
v -0.264299 1.268563 3.108314
v -0.237249 1.228813 3.118514
v -0.265599 1.291587 3.148665
v -0.230486 1.225734 3.176142
v -0.194782 1.187521 3.175367
v -0.207830 1.229757 3.147412
v -0.251597 1.294073 3.130908
v -0.230700 1.267603 3.172828
v -0.238764 1.293706 3.155550
v -0.203650 1.227854 3.183028
v -0.194997 1.229390 3.172054
v -0.216698 1.270089 3.155072
vn -0.8088 -0.5880 -0.0096
vn 0.1879 0.8932 -0.4086
vn 0.9896 -0.1238 -0.0727
vn 0.9867 0.1615 -0.0173
vn 0.9603 0.1647 0.2250
vn 0.9785 -0.1252 0.1637
vn 0.9766 -0.1567 0.1474
vn 0.1638 -0.9775 0.1332
vn 0.2326 -0.9004 -0.3677
vn 0.1460 -0.9892 -0.0152
vn 0.1006 0.9670 -0.2340
vn 0.1789 0.9721 0.1519
vn 0.0773 0.7742 -0.6282
vn 0.2277 -0.1742 -0.9580
vn 0.3239 -0.8626 -0.3885
vn 0.5697 0.3598 0.7390
vn 0.1579 0.2123 -0.9644
vn 0.1548 -0.3105 -0.9379
vn 0.2078 0.3127 -0.9268
vn 0.4270 -0.7768 -0.4630
vn 0.8379 0.5456 0.0133
vn 0.9972 -0.0394 -0.0634
vn 0.1540 0.9797 0.1281
vn 0.9819 0.1535 0.1107
vn 0.3093 -0.5388 -0.7836
vn 0.1169 0.9930 -0.0175
vn 0.0081 0.9145 -0.4045
vn -0.6461 -0.3729 -0.6660
vn 0.6640 0.1362 -0.7352
vn 0.1660 0.9584 0.2321
vn -0.9686 -0.2454 0.0407
vn 0.9331 -0.0482 -0.3564
vn -0.0265 0.8093 -0.5868
vn 0.5583 0.0736 0.8263
vn -0.3496 -0.4028 0.8459
vn -0.0284 -0.9922 0.1216
vn 0.1760 -0.9493 -0.2604
vn 0.0307 -0.9989 0.0367
vn 0.1256 -0.0879 0.9882
vn 0.7695 0.4848 -0.4158
vn 0.3070 0.9337 -0.1843
vn 0.9455 -0.3112 0.0953
vn 0.2838 -0.8732 -0.3962
vn 0.2932 0.9455 0.1416
vn 0.2081 0.7378 0.6422
vn 0.0092 0.8031 -0.5957
vn 0.8601 0.1330 0.4925
vn 0.4854 -0.4988 0.7180
vn 0.8036 0.1367 -0.5792
vn 0.2356 -0.3233 -0.9165
vn 0.9856 0.1434 0.0901
vn 0.9723 0.1186 -0.2014
vn 0.1716 0.7713 0.6129
vn 0.2716 -0.9604 -0.0622
vn 0.9435 0.1104 0.3124
vn 0.3002 0.9438 0.1381
vn 0.2958 0.9550 -0.0199
vn 0.9786 0.2021 0.0399
vn 0.2316 0.8791 -0.4166
vn 0.0772 0.8207 0.5661
vn 0.1317 -0.9091 -0.3952
vn 0.9748 -0.2190 -0.0419
vn 0.3263 0.9155 0.2352
vn 0.1168 0.8400 0.5298
vn -0.0010 0.6899 0.7239
vn 0.2285 -0.9662 0.1194
vn 0.8390 -0.2664 0.4744
vn 0.2122 -0.9672 -0.1394
vn 0.0855 -0.7364 0.6711
vn 0.1802 -0.9455 -0.2711
vn 0.9345 -0.2198 -0.2801
vn 0.0514 -0.9347 0.3516
vn 0.8717 -0.4646 0.1558
vn 0.3324 -0.9416 -0.0534
vn 0.2648 -0.9195 -0.2905
vn 0.3432 0.6940 0.6329
vn 0.3615 0.7237 0.5879
vn 0.7615 0.1060 0.6395
vn 0.4551 0.6668 0.5901
vn 0.1551 -0.9045 -0.3973
vn 0.1859 -0.9106 0.3692
vn 0.8837 0.0069 0.4680
vn 0.3520 0.8033 0.4804
vn 0.3841 0.5692 0.7269
vn 0.1217 -0.9768 -0.1764
vn 0.4144 0.6027 0.6819
vn 0.1593 -0.9492 -0.2713
vn 0.5346 0.0306 0.8445
vn 0.1479 -0.9625 -0.2274
vn 0.3937 -0.8737 0.2856
vn -0.3031 -0.3705 0.8780
vn -0.0092 0.7083 0.7058
vn 0.1789 -0.9470 -0.2669
vn 0.9702 -0.2419 0.0140
vn 0.0310 -0.5141 0.8572
vn 0.0510 0.7646 0.6425
vn 0.6302 0.0113 0.7764
vn 0.1441 -0.9586 -0.2457
vn -0.1346 0.0798 0.9877
vn 0.4461 0.7252 0.5244
vn 0.3334 -0.0061 0.9428
vn 0.0463 -0.9982 0.0382
vn 0.3308 -0.9198 0.2111
vn 0.7809 -0.3326 0.5288
vn 0.4028 0.5395 0.7394
vn 0.1485 -0.9544 -0.2590
vn 0.8472 0.0871 0.5241
vn -0.0169 0.6183 0.7858
vn 0.2233 -0.9477 -0.2280
vn 0.8796 -0.3707 0.2981
vn 0.9485 -0.1930 -0.2512
vn 0.9842 0.1770 0.0026
vn 0.9716 0.1216 -0.2029
vn 0.9560 0.2516 0.1507
vn 0.9974 -0.0127 -0.0714
vn 0.9405 0.1345 0.3119
vn 0.7553 0.2543 0.6041
vn 0.9048 0.3560 0.2336
vn -0.6457 -0.0080 0.7636
vn 0.0380 0.3190 0.9470
vn 0.0375 -0.4406 -0.8969
vn 0.9012 0.0054 0.4334
vn -0.9841 -0.1289 -0.1226
vn -0.9954 -0.0916 0.0271
vn 0.9950 0.0491 -0.0865
vn 0.2987 -0.1694 0.9392
vn 0.8950 -0.0876 0.4373
vn -0.8748 -0.0515 0.4818
vn 0.1394 -0.3475 -0.9272
vn -0.9539 -0.2822 -0.1018
vn 0.9221 -0.0216 0.3865
vn -0.9875 0.0250 -0.1557
vn -0.9997 -0.0146 0.0220
vn 0.9933 0.0152 -0.1145
vn 0.2570 -0.2096 0.9434
vn 0.8371 0.1064 -0.5367
vn -0.8510 -0.0875 0.5179
vn -0.3087 -0.1536 0.9387
vn -0.4807 -0.4160 -0.7719
vn 0.8855 -0.1089 -0.4518
vn 0.0228 -0.0684 -0.9974
vn 0.9935 0.1117 0.0237
vn -0.9877 0.0285 -0.1535
vn -0.9978 0.0495 0.0447
vn 0.9929 0.0507 -0.1073
vn 0.9770 0.1289 0.1700
vn 0.0220 0.0756 -0.9969
vn -0.8111 -0.1512 0.5650
vn -0.1932 -0.2580 0.9466
vn -0.4984 0.0710 -0.8640
vn -0.0021 -0.9981 0.0610
vn 0.0113 -0.9969 0.0777
vn -0.0013 -0.9954 0.0953
vn 0.0020 -0.9983 0.0576
vn -0.0086 -0.9974 0.0718
vn 0.0039 -0.9954 0.0957
vn -0.9204 0.1458 0.3628
vn -0.9797 0.1300 0.1526
vn -0.4530 -0.0542 -0.8899
vn 0.8498 -0.0070 -0.5271
vn 0.8552 0.0179 -0.5180
vn -0.4595 -0.0602 -0.8861
vn -0.1994 0.2639 0.9437
vn -0.8553 0.1770 0.4870
vn 0.2398 0.2853 0.9280
vn 0.9879 0.0979 -0.1205
vn -0.9958 0.0874 0.0268
vn -0.9856 0.0688 -0.1545
vn 0.9763 0.1797 0.1210
vn 0.0226 -0.0893 -0.9958
vn 0.2339 0.1218 0.9646
vn -0.1906 0.1211 0.9742
vn 0.1236 0.8591 0.4967
vn 0.0054 -0.9995 0.0297
vn -0.1014 0.8637 0.4936
vn -0.0048 -0.9996 0.0281
vn 0.9823 0.1711 0.0762
vn 0.9577 -0.1547 -0.2428
vn 0.9867 -0.0684 0.1476
vn 0.9391 0.3096 -0.1490
vn 0.6045 -0.3278 0.7260
vn 0.3407 0.9092 -0.2392
vn 0.9860 -0.0989 0.1346
vn 0.2368 0.7799 -0.5794
vn -0.9721 -0.1837 0.1461
vn -0.3355 0.1338 -0.9325
vn -0.2994 -0.5704 0.7649
vn 0.9857 -0.1016 0.1348
vn 0.1414 0.4737 -0.8693
vn -0.4044 0.3545 -0.8431
vn -0.9121 -0.2749 -0.3041
vn -0.1180 -0.7037 0.7007
vn -0.2678 0.6866 -0.6759
vn -0.9416 -0.2344 0.2416
vn 0.9998 0.0199 0.0002
vn -0.9799 0.1359 -0.1462
vn 0.4856 -0.4983 0.7183
vn 0.1618 0.1755 -0.9711
vn 0.9733 0.0672 -0.2193
vn -0.9762 -0.0461 -0.2119
vn -0.0285 -0.7645 -0.6440
vn 0.0381 -0.7485 -0.6620
vn 0.0187 -0.6740 -0.7385
vn -0.0165 -0.6848 -0.7286
vn -0.9987 -0.0445 0.0259
vn 0.9399 -0.1989 0.2776
vn 0.1475 0.7085 -0.6901
vn 0.9630 0.1984 -0.1824
vn 0.9614 0.2640 -0.0781
vn 0.1550 0.7593 -0.6320
vn 0.3480 -0.6120 0.7101
vn -0.9530 0.0586 0.2974
vn -0.9723 0.2334 -0.0121
vn 0.9665 0.0860 0.2419
vn -0.2485 -0.6568 0.7119
vn -0.2809 0.7543 -0.5934
vn -0.2657 -0.5295 0.8056
vn 0.3853 -0.4830 0.7863
vn -0.1806 0.1634 0.9699
vn 0.0548 -0.7778 -0.6261
vn 0.2393 0.1527 0.9589
vn -0.0402 -0.7837 -0.6198
vn -0.3098 0.4692 -0.8269
vn -0.3174 -0.8627 0.3937
vn 0.9820 -0.1813 0.0524
vn -0.9790 0.0680 -0.1922
vn -0.9728 -0.2158 0.0842
vn 0.4539 -0.8127 0.3654
vn 0.1622 0.4928 -0.8549
vn 0.9677 0.1041 -0.2296
vn 0.3344 0.1514 -0.9302
vn 0.3527 -0.8598 -0.3692
vn 0.3507 0.3110 -0.8834
vn 0.2067 0.4999 -0.8410
vn 0.2068 -0.2141 -0.9547
vn 0.2764 0.1135 -0.9543
vn 0.9560 0.2915 0.0324
vn 0.9354 0.3034 0.1816
vn 0.9962 0.0798 -0.0347
vn 0.8971 0.3454 0.2754
vn -0.5817 0.7546 0.3037
vn 0.7636 0.6401 -0.0851
vn 0.8059 -0.5808 -0.1154
vn 0.5120 0.8388 0.1853
vn -0.2436 0.8682 0.4323
vn 0.9124 0.3581 -0.1984
vn 0.9423 -0.2301 -0.2433
vn 0.2537 0.3074 -0.9171
vn -0.0587 -0.2231 0.9730
vn 0.0315 -0.2571 0.9659
vn -0.0292 -0.2440 0.9693
vn 0.0071 -0.2783 0.9605
vn -0.0000 -0.2273 0.9738
vn 0.0388 -0.2900 0.9562
vn -0.0458 -0.2876 0.9567
vn 0.0443 -0.2183 0.9749
vn -0.0016 -0.2396 0.9709
vn 0.0074 -0.2004 0.9797
vn 0.1634 -0.6075 0.7773
vn -0.0300 -0.2096 0.9773
vn 0.2959 -0.5360 0.7907
vn -0.4091 0.1652 0.8974
vn -0.4121 -0.0709 0.9084
vn -0.1388 -0.5369 0.8322
vn 0.7291 0.2135 0.6502
vn -0.2061 -0.4851 0.8498
vn -0.5070 0.1222 0.8533
vn 0.0329 -0.6004 0.7990
vn 0.3193 0.7762 0.5436
vn 0.5296 -0.3490 0.7731
vn 0.5248 -0.4107 0.7456
vn -0.0292 0.0863 0.9958
vn 0.0200 -0.7241 0.6895
vn -0.0339 0.9333 0.3574
vn 0.7525 0.0224 0.6582
vn 0.8682 -0.4543 0.1995
vn -0.3785 0.7527 -0.5386
vn -0.9829 -0.1682 -0.0750
vn -0.9894 0.1419 -0.0311
vn -0.9624 0.1758 0.2073
vn -0.9672 -0.1375 0.2137
vn -0.9580 -0.2139 0.1909
vn -0.5331 -0.7828 0.3211
vn -0.3563 -0.9286 -0.1035
vn -0.3355 -0.9138 0.2290
vn -0.1146 0.9633 -0.2425
vn -0.1796 0.9720 0.1513
vn -0.3548 0.6562 -0.6660
vn -0.2517 -0.3784 -0.8908
vn -0.2516 -0.9332 -0.2566
vn -0.6858 0.4027 0.6062
vn -0.3030 0.1403 -0.9426
vn -0.1363 -0.4680 -0.8731
vn -0.2860 0.1630 -0.9443
vn -0.1973 -0.9098 -0.3650
vn -0.7878 0.6150 0.0331
vn -0.9966 -0.0207 -0.0797
vn -0.1531 0.9799 0.1276
vn -0.9792 0.1767 0.0997
vn -0.3948 -0.4343 -0.8096
vn -0.1051 0.9943 -0.0170
vn -0.0001 0.9131 -0.4077
vn 0.7102 0.1363 -0.6906
vn -0.6141 0.2005 -0.7633
vn -0.1602 0.9587 0.2351
vn 0.9582 -0.2157 -0.1881
vn -0.9266 0.1548 -0.3427
vn -0.0125 0.7964 -0.6046
vn -0.8793 -0.1788 0.4414
vn -0.0964 -0.7532 0.6506
vn -0.5406 -0.8250 0.1646
vn -0.2711 -0.9482 -0.1654
vn -0.3446 -0.9292 0.1338
vn -0.3524 -0.6472 0.6760
vn -0.7118 0.5505 -0.4362
vn -0.3341 0.9180 -0.2137
vn -0.9460 -0.3067 0.1047
vn -0.2686 -0.9027 -0.3361
vn -0.2983 0.9450 0.1342
vn -0.2071 0.7377 0.6426
vn -0.0856 0.7978 -0.5969
vn -0.8626 0.1227 0.4908
vn -0.4665 -0.1905 0.8638
vn -0.8307 0.1240 -0.5427
vn -0.3206 -0.3893 -0.8635
vn -0.9856 0.1433 0.0900
vn -0.9746 0.0103 -0.2239
vn -0.1713 0.7713 0.6130
vn -0.6144 -0.7735 -0.1554
vn -0.9437 0.1044 0.3140
vn -0.2911 0.9473 0.1338
vn -0.2680 0.9632 -0.0207
vn -0.9786 0.2021 0.0399
vn -0.2110 0.8802 -0.4252
vn -0.0772 0.8207 0.5661
vn -0.1317 -0.9091 -0.3952
vn -0.9744 -0.2211 -0.0403
vn -0.2991 0.9232 0.2414
vn -0.1168 0.8400 0.5298
vn 0.0010 0.6899 0.7239
vn -0.4469 -0.8753 -0.1850
vn -0.8390 -0.2664 0.4744
vn -0.2122 -0.9672 -0.1394
vn -0.2702 -0.8044 0.5290
vn -0.1802 -0.9455 -0.2711
vn -0.9345 -0.2198 -0.2801
vn -0.2559 -0.9420 0.2171
vn -0.8717 -0.4646 0.1558
vn -0.3324 -0.9416 -0.0534
vn -0.2231 -0.9354 -0.2742
vn -0.3109 0.7112 0.6305
vn -0.3366 0.7246 0.6013
vn -0.7615 0.1060 0.6395
vn -0.4551 0.6668 0.5901
vn -0.1551 -0.9045 -0.3973
vn -0.1859 -0.9106 0.3692
vn -0.8837 0.0069 0.4680
vn -0.3520 0.8033 0.4804
vn -0.3841 0.5692 0.7270
vn -0.1217 -0.9768 -0.1764
vn -0.4144 0.6027 0.6819
vn -0.1593 -0.9492 -0.2713
vn -0.5346 0.0306 0.8445
vn -0.1479 -0.9625 -0.2274
vn -0.3937 -0.8737 0.2856
vn 0.3030 -0.3702 0.8781
vn 0.0092 0.7083 0.7058
vn -0.1790 -0.9470 -0.2669
vn -0.9702 -0.2419 0.0140
vn -0.0310 -0.5141 0.8572
vn -0.0510 0.7646 0.6425
vn -0.6302 0.0113 0.7764
vn -0.1441 -0.9586 -0.2457
vn 0.1346 0.0798 0.9877
vn -0.4461 0.7253 0.5244
vn -0.3333 -0.0061 0.9428
vn -0.0463 -0.9982 0.0382
vn -0.3308 -0.9198 0.2111
vn -0.7809 -0.3326 0.5288
vn -0.4028 0.5395 0.7394
vn -0.1485 -0.9544 -0.2590
vn -0.8472 0.0871 0.5241
vn 0.0169 0.6183 0.7858
vn -0.2233 -0.9477 -0.2280
vn -0.8796 -0.3707 0.2981
vn -0.9462 -0.0825 -0.3130
vn -0.9617 0.2733 0.0225
vn -0.9371 0.2023 -0.2846
vn -0.9259 0.3324 0.1797
vn -0.9973 0.0351 -0.0649
vn -0.9433 0.0149 0.3316
vn -0.6884 0.2391 0.6848
vn -0.8716 0.4323 0.2312
vn 0.2101 -0.7202 0.6612
vn -0.2419 -0.0402 0.9695
vn -0.0186 0.1442 -0.9894
vn -0.8936 -0.2856 0.3463
vn 0.9854 0.0080 -0.1700
vn 0.9988 -0.0422 -0.0264
vn -0.9975 0.0494 -0.0502
vn -0.3184 -0.6871 0.6531
vn -0.9056 -0.3087 0.2909
vn 0.7933 -0.5589 0.2414
vn 0.0497 0.3009 -0.9523
vn 0.9500 -0.2042 -0.2361
vn -0.9111 -0.3137 0.2672
vn 0.9801 0.1759 -0.0923
vn 0.9994 0.0296 0.0155
vn -0.9961 0.0311 -0.0824
vn -0.2394 -0.7705 0.5907
vn -0.8573 0.3913 -0.3345
vn 0.8806 -0.3685 0.2978
vn 0.2336 -0.7463 0.6233
vn 0.4884 0.1286 -0.8631
vn -0.8894 0.1466 -0.4330
vn -0.0541 0.6495 -0.7584
vn -0.9954 -0.0055 0.0959
vn 0.9791 0.1857 -0.0827
vn 0.9960 0.0535 0.0718
vn -0.9973 0.0601 -0.0417
vn -0.9733 -0.1071 0.2030
vn -0.0542 0.7196 -0.6922
vn 0.8402 -0.4265 0.3348
vn 0.2438 -0.7862 0.5678
vn 0.4719 0.6547 -0.5906
vn 0.0421 -0.7227 -0.6898
vn 0.0010 -0.6400 -0.7684
vn 0.0509 -0.6926 -0.7195
vn 0.0408 -0.7219 -0.6908
vn 0.0752 -0.6231 -0.7785
vn 0.0268 -0.6943 -0.7191
vn 0.9205 -0.1398 0.3648
vn 0.9795 0.0111 0.2013
vn 0.4208 0.6141 -0.6676
vn -0.8643 0.3273 -0.3820
vn -0.8718 0.3082 -0.3807
vn 0.4356 0.5633 -0.7021
vn 0.2345 -0.4095 0.8816
vn 0.8662 -0.1492 0.4769
vn -0.2385 -0.4023 0.8839
vn -0.9951 0.0958 -0.0253
vn 0.9914 0.0991 0.0860
vn 0.9763 0.2073 -0.0621
vn -0.9784 -0.0069 0.2067
vn -0.0488 0.5848 -0.8097
vn -0.2017 -0.7197 0.6643
vn 0.2323 -0.7020 0.6733
vn -0.1264 0.0932 0.9876
vn -0.0003 -0.5958 -0.8031
vn 0.0747 0.1096 0.9912
vn 0.0779 -0.5872 -0.8057
vn -0.9872 0.1542 0.0407
vn -0.9624 -0.2121 -0.1698
vn -0.9855 -0.0459 0.1636
vn -0.9502 0.2453 -0.1922
vn -0.5715 -0.1261 0.8108
vn -0.4869 0.7454 -0.4553
vn -0.9838 -0.0533 0.1712
vn -0.3777 0.6584 -0.6510
vn 0.9737 -0.0688 0.2172
vn 0.3573 -0.2509 -0.8996
vn 0.3363 -0.0084 0.9417
vn -0.9878 -0.0102 0.1551
vn -0.1951 0.0562 -0.9792
vn 0.2802 -0.0678 -0.9575
vn 0.9287 -0.3238 -0.1807
vn 0.2622 -0.3159 0.9118
vn 0.2773 -0.0900 -0.9566
vn 0.9415 0.0058 0.3370
vn -0.9991 0.0333 -0.0244
vn 0.9811 -0.0469 -0.1876
vn -0.5017 0.0139 0.8649
vn -0.1854 -0.2312 -0.9551
vn -0.9769 -0.0551 -0.2065
vn 0.9820 -0.1257 -0.1410
vn -0.0001 -0.9935 0.1139
vn -0.0545 -0.9941 0.0937
vn -0.0399 -0.9989 0.0240
vn -0.0057 -0.9992 0.0384
vn 0.9978 -0.0295 0.0599
vn -0.9429 0.0942 0.3194
vn -0.1392 -0.0787 -0.9871
vn -0.9604 0.0062 -0.2784
vn -0.9581 0.1192 -0.2603
vn -0.1488 -0.0633 -0.9868
vn -0.3534 0.1983 0.9142
vn 0.9561 0.2514 0.1508
vn 0.9788 0.1097 -0.1732
vn -0.9616 0.2639 0.0756
vn 0.2416 0.1606 0.9570
vn 0.2961 -0.0460 -0.9541
vn 0.2587 0.2124 0.9423
vn -0.3850 0.2433 0.8903
vn 0.1935 0.8065 0.5586
vn -0.0657 -0.9895 0.1289
vn -0.2344 0.7965 0.5574
vn 0.0026 -0.9903 0.1388
vn 0.3046 -0.3479 -0.8867
vn 0.3090 -0.2440 0.9192
vn -0.9855 -0.0491 0.1621
vn 0.9786 -0.1238 -0.1646
vn 0.9700 -0.0896 0.2259
vn -0.4712 -0.2213 0.8538
vn -0.1631 -0.3434 -0.9249
vn -0.9683 -0.0941 -0.2314
vn -0.3461 0.1467 -0.9267
vn -0.2895 -0.8379 -0.4628
vn -0.3507 0.3110 -0.8834
vn -0.2375 0.5423 -0.8059
vn -0.2042 -0.2231 -0.9532
vn -0.3347 0.0886 -0.9381
vn -0.9560 0.2915 0.0324
vn -0.9354 0.3034 0.1815
vn -0.9962 0.0798 -0.0347
vn -0.8971 0.3454 0.2755
vn 0.5823 0.7542 0.3033
vn -0.7635 0.6401 -0.0849
vn -0.8061 -0.5805 -0.1153
vn -0.5119 0.8388 0.1854
vn 0.2444 0.8680 0.4322
vn -0.9125 0.3578 -0.1984
vn -0.9423 -0.2300 -0.2432
vn -0.2536 0.3072 -0.9172
vn 0.0588 -0.2231 0.9730
vn -0.0315 -0.2567 0.9660
vn 0.0291 -0.2436 0.9694
vn -0.0071 -0.2779 0.9606
vn -0.0000 -0.2271 0.9739
vn -0.0389 -0.2896 0.9564
vn 0.0456 -0.2874 0.9567
vn -0.0443 -0.2182 0.9749
vn 0.0017 -0.2394 0.9709
vn -0.0075 -0.2004 0.9797
vn -0.1639 -0.6073 0.7773
vn 0.0300 -0.2095 0.9773
vn -0.2960 -0.5359 0.7907
vn 0.4094 0.1651 0.8973
vn 0.4122 -0.0708 0.9084
vn 0.1388 -0.5364 0.8325
vn -0.7291 0.2134 0.6503
vn 0.2057 -0.4848 0.8501
vn 0.5071 0.1221 0.8532
vn -0.0329 -0.6001 0.7992
vn -0.3193 0.7762 0.5436
vn -0.5296 -0.3489 0.7731
vn -0.5248 -0.4107 0.7456
vn 0.0292 0.0863 0.9958
vn -0.0200 -0.7241 0.6895
vn 0.0339 0.9333 0.3574
vn -0.7525 0.0224 0.6582
vn 0.8961 -0.4264 0.1233
vn 0.9975 0.0005 0.0707
vn 0.7307 -0.6822 -0.0256
vn 0.1099 -0.5720 -0.8128
vn 0.0413 -0.2746 -0.9607
vn 0.9363 0.2881 0.2010
vn 0.6878 -0.1697 0.7058
vn 0.3444 -0.7195 0.6030
vn -0.6069 -0.1433 -0.7818
vn -0.4208 0.1766 -0.8898
vn 0.7919 0.1476 0.5925
vn 0.5964 -0.2068 0.7756
vn -0.3952 -0.8996 0.1857
vn -0.6285 0.0106 -0.7777
vn -0.3576 0.3516 -0.8651
vn 0.4470 0.2224 0.8664
vn 0.2431 -0.0655 0.9678
vn -0.9975 -0.0005 -0.0707
vn -0.7601 0.2786 -0.5871
vn -0.4475 0.8667 -0.2202
vn -0.7307 0.6822 0.0256
vn -0.6821 0.6444 -0.3457
vn -0.6942 0.4250 -0.5809
vn -0.8961 0.4264 -0.1233
vn -0.8552 0.2718 -0.4413
vn -0.8798 0.1339 -0.4562
vn -0.7220 0.3188 0.6140
vn -0.7805 0.0533 0.6229
vn -0.1738 -0.1467 0.9738
vn -0.0413 0.2746 0.9607
vn 0.2534 0.0750 0.9644
vn 0.4174 0.0696 0.9061
vn -0.1099 0.5720 0.8129
vn 0.2535 0.4782 0.8408
vn 0.2197 0.7483 0.6260
vn -0.3444 0.7196 -0.6030
vn -0.4625 0.4476 -0.7653
vn -0.5848 0.3549 -0.7294
vn -0.6878 0.1697 -0.7058
vn -0.6976 0.0746 -0.7126
vn -0.7767 0.0360 -0.6288
vn -0.9363 -0.2881 -0.2010
vn -0.6272 -0.6676 0.4011
vn -0.0725 -0.4414 0.8944
vn 0.4208 -0.1766 0.8898
vn 0.5257 -0.1425 0.8386
vn 0.5343 -0.0473 0.8440
vn 0.6069 0.1433 0.7818
vn 0.6835 0.2441 0.6879
vn 0.5927 0.5532 0.5854
vn -0.5964 0.2068 -0.7756
vn -0.5257 0.1426 -0.8386
vn -0.5343 0.0473 -0.8440
vn -0.7919 -0.1476 -0.5925
vn -0.6835 -0.2442 -0.6879
vn -0.5928 -0.5531 -0.5854
vn 0.3576 -0.3516 0.8651
vn 0.4625 -0.4476 0.7653
vn 0.5848 -0.3549 0.7294
vn 0.6285 -0.0106 0.7777
vn 0.6976 -0.0746 0.7126
vn 0.7767 -0.0360 0.6288
vn 0.3952 0.8996 -0.1857
vn 0.6272 0.6676 -0.4012
vn 0.0725 0.4415 -0.8943
vn -0.2432 0.0655 -0.9678
vn -0.2534 -0.0750 -0.9644
vn -0.4174 -0.0696 -0.9061
vn -0.4471 -0.2224 -0.8664
vn -0.2535 -0.4782 -0.8408
vn -0.2197 -0.7483 -0.6260
vn 0.4475 -0.8667 0.2202
vn 0.6821 -0.6444 0.3457
vn 0.6942 -0.4250 0.5808
vn 0.1738 0.1467 -0.9738
vn 0.7805 -0.0533 -0.6229
vn 0.7220 -0.3188 -0.6140
vn 0.7601 -0.2786 0.5871
vn 0.8552 -0.2719 0.4413
vn 0.8798 -0.1339 0.4562
vn -0.8961 -0.4264 0.1233
vn -0.9975 0.0005 0.0707
vn -0.7307 -0.6822 -0.0256
vn -0.1099 -0.5720 -0.8129
vn -0.0413 -0.2746 -0.9607
vn -0.9363 0.2881 0.2010
vn -0.6878 -0.1697 0.7058
vn -0.3444 -0.7195 0.6030
vn 0.6069 -0.1433 -0.7818
vn 0.4208 0.1766 -0.8898
vn -0.7919 0.1476 0.5925
vn -0.5964 -0.2068 0.7756
vn 0.3952 -0.8996 0.1857
vn 0.6285 0.0106 -0.7777
vn 0.3576 0.3516 -0.8651
vn -0.4471 0.2224 0.8664
vn -0.2432 -0.0655 0.9678
vn 0.9975 -0.0005 -0.0707
vn 0.7601 0.2786 -0.5871
vn 0.4475 0.8667 -0.2202
vn 0.7307 0.6822 0.0256
vn 0.6821 0.6444 -0.3457
vn 0.6942 0.4250 -0.5809
vn 0.8961 0.4264 -0.1233
vn 0.8552 0.2719 -0.4413
vn 0.8798 0.1339 -0.4562
vn 0.7220 0.3188 0.6140
vn 0.7805 0.0533 0.6229
vn 0.1738 -0.1467 0.9738
vn 0.0413 0.2746 0.9607
vn -0.2534 0.0750 0.9644
vn -0.4174 0.0696 0.9061
vn 0.1099 0.5720 0.8129
vn -0.2535 0.4782 0.8408
vn -0.2197 0.7483 0.6259
vn 0.3444 0.7195 -0.6030
vn 0.4625 0.4476 -0.7653
vn 0.5848 0.3549 -0.7294
vn 0.6878 0.1697 -0.7058
vn 0.6976 0.0746 -0.7126
vn 0.7767 0.0360 -0.6288
vn 0.9363 -0.2881 -0.2010
vn 0.6272 -0.6676 0.4012
vn 0.0725 -0.4415 0.8943
vn -0.4208 -0.1766 0.8898
vn -0.5257 -0.1425 0.8386
vn -0.5343 -0.0473 0.8440
vn -0.6069 0.1433 0.7818
vn -0.6835 0.2441 0.6879
vn -0.5927 0.5532 0.5854
vn 0.5964 0.2068 -0.7756
vn 0.5257 0.1426 -0.8386
vn 0.5343 0.0473 -0.8440
vn 0.7919 -0.1476 -0.5925
vn 0.6835 -0.2441 -0.6879
vn 0.5927 -0.5532 -0.5854
vn -0.3576 -0.3517 0.8651
vn -0.4625 -0.4476 0.7654
vn -0.5848 -0.3549 0.7294
vn -0.6285 -0.0106 0.7777
vn -0.6976 -0.0746 0.7126
vn -0.7767 -0.0360 0.6288
vn -0.3952 0.8996 -0.1857
vn -0.6272 0.6676 -0.4012
vn -0.0725 0.4415 -0.8943
vn 0.2432 0.0655 -0.9678
vn 0.2534 -0.0750 -0.9644
vn 0.4174 -0.0696 -0.9061
vn 0.4471 -0.2224 -0.8664
vn 0.2535 -0.4782 -0.8408
vn 0.2197 -0.7483 -0.6260
vn -0.4475 -0.8667 0.2202
vn -0.6822 -0.6443 0.3457
vn -0.6942 -0.4250 0.5808
vn -0.1738 0.1467 -0.9738
vn -0.7805 -0.0533 -0.6229
vn -0.7220 -0.3188 -0.6140
vn -0.7601 -0.2786 0.5871
vn -0.8552 -0.2719 0.4413
vn -0.8798 -0.1339 0.4562
vt 0.833374 0.494548
vt 0.893919 0.512741
vt 0.908415 0.468160
vt 0.848637 0.467455
vt 0.567859 0.867914
vt 0.639317 0.828812
vt 0.620915 0.894044
vt 0.556155 0.927906
vt 0.812683 0.509803
vt 0.774909 0.642712
vt 0.751394 0.643294
vt 0.751725 0.493743
vt 0.828812 0.793372
vt 0.751727 0.811870
vt 0.672932 0.807420
vt 0.672336 0.642732
vt 0.672998 0.503429
vt 0.598676 0.643182
vt 0.594201 0.530171
vt 0.560191 0.672195
vt 0.619753 0.672998
vt 0.599703 0.594201
vt 0.569702 0.558226
vt 0.580250 0.833374
vt 0.635423 0.812683
vt 0.637090 0.751725
vt 0.569078 0.759035
vt 0.500000 0.859251
vt 0.500000 0.750726
vt 0.569078 0.758996
vt 0.500000 0.657595
vt 0.560191 0.671923
vt 0.604420 0.951058
vt 0.545714 0.976119
vt 0.604420 0.548422
vt 0.626365 0.643481
vt 0.688416 0.643970
vt 0.666902 0.547256
vt 0.500000 0.917421
vt 0.563590 0.893919
vt 0.639317 0.793372
vt 0.659328 0.642712
vt 0.676970 0.643370
vt 0.671449 0.761101
vt 0.555994 0.632181
vt 0.545714 0.747180
vt 0.604420 0.735145
vt 0.572975 0.538591
vt 0.666902 0.715601
vt 0.500000 0.969030
vt 0.572975 0.947229
vt 0.501290 0.830086
vt 0.457158 0.830118
vt 0.460328 0.806630
vt 0.500288 0.803578
vt 0.499838 0.512886
vt 0.460007 0.507514
vt 0.481582 0.413128
vt 0.510774 0.417065
vt 0.500000 0.559830
vt 0.556447 0.575135
vt 0.579931 0.796381
vt 0.599703 0.530171
vt 0.637090 0.643182
vt 0.659115 0.643738
vt 0.643940 0.535244
vt 0.564556 0.492909
vt 0.500000 0.477524
vt 0.500000 0.432743
vt 0.566016 0.447361
vt 0.569702 0.518348
vt 0.616981 0.429733
vt 0.594994 0.421068
vt 0.612448 0.796381
vt 0.637526 0.771615
vt 0.500000 0.371229
vt 0.561082 0.382998
vt 0.450625 0.491920
vt 0.495971 0.498202
vt 0.507939 0.406303
vt 0.474705 0.401699
vt 0.591615 0.535244
vt 0.575831 0.433451
vt 0.407144 0.499901
vt 0.406490 0.640437
vt 0.358675 0.605643
vt 0.363238 0.556600
vt 0.578790 0.420824
vt 0.621227 0.407144
vt 0.601979 0.363238
vt 0.551080 0.357545
vt 0.500000 0.657756
vt 0.500000 0.571782
vt 0.667216 0.508652
vt 0.621227 0.499901
vt 0.632756 0.407548
vt 0.666461 0.413961
vt 0.556577 0.771615
vt 0.637090 0.751727
vt 0.260484 0.580516
vt 0.278839 0.520364
vt 0.582070 0.278839
vt 0.540875 0.268345
vt 0.619753 0.672932
vt 0.500000 0.307117
vt 0.551080 0.314473
vt 0.500000 0.983839
vt 0.393435 0.816867
vt 0.325561 0.763148
vt 0.671449 0.517077
vt 0.635423 0.509803
vt 0.642381 0.470278
vt 0.671266 0.470798
vt 0.988807 0.740196
vt 1.002924 0.661469
vt 1.015365 0.669173
vt 1.001496 0.721513
vt 0.500000 0.531683
vt 0.500000 0.631036
vt 0.249130 0.712570
vt 0.191059 0.679456
vt 0.198981 0.567653
vt 0.945839 0.547256
vt 0.886123 0.529161
vt 0.904522 0.470747
vt 0.963512 0.471464
vt 0.500000 0.238897
vt 0.540875 0.239236
vt 0.564556 0.495971
vt 0.612448 0.579931
vt 0.628268 0.501290
vt 0.631115 0.457158
vt 0.168698 0.648799
vt 0.177283 0.553376
vt 0.539817 0.181283
vt 0.500000 0.184290
vt 0.500000 0.144817
vt 0.539817 0.140934
vt 0.580006 0.205473
vt 0.539817 0.196322
vt 0.205473 0.476864
vt 0.621491 0.393435
vt 0.538703 0.608225
vt 0.500000 0.615960
vt 0.500000 0.567098
vt 0.526605 0.560962
vt 0.566016 0.450625
vt 0.149293 0.452102
vt 0.133162 0.541160
vt 0.103583 0.505809
vt 0.123733 0.441345
vt 0.539531 0.141037
vt 0.579447 0.149293
vt 0.562090 0.123733
vt 0.530633 0.116366
vt 0.500000 0.385014
vt 0.500000 0.353218
vt 0.586057 0.174337
vt 0.542919 0.165879
vt 0.174337 0.464471
vt 0.086614 0.427976
vt 0.065909 0.448336
vt 0.053210 0.428901
vt 0.071388 0.423606
vt 0.515797 0.085531
vt 0.531484 0.086614
vt 0.523242 0.071388
vt 0.510720 0.071544
vt 0.500000 0.266808
vt 0.601979 0.325561
vt 0.582070 0.249130
vt 0.108290 0.599988
vt 0.073849 0.556649
vt 0.580006 0.679456
vt 0.539817 0.690304
vt 0.539817 0.657159
vt 0.579599 0.648799
vt 0.500000 0.199929
vt 0.513331 0.045311
vt 0.500000 0.046647
vt 0.500000 0.069896
vt 0.051602 0.475706
vt 0.038205 0.462176
vt 0.038356 0.442272
vt 0.580006 0.191059
vt 0.577833 0.599988
vt 0.554232 0.556649
vt 0.500000 0.147087
vt 0.500000 0.124516
vt 0.530339 0.475706
vt 0.515210 0.477146
vt 0.513246 0.460736
vt 0.522445 0.462176
vt 0.500000 0.170521
vt 0.515546 0.457928
vt 0.507613 0.457080
vt 0.506877 0.445401
vt 0.514439 0.446199
vt 0.500000 0.089031
vt 0.528336 0.053210
vt 0.620841 0.601238
vt 0.618568 0.607555
vt 0.613078 0.604170
vt 0.614718 0.599612
vt 0.500000 0.479371
vt 0.500000 0.460095
vt 0.513331 0.424258
vt 0.512541 0.440917
vt 0.500000 0.440864
vt 0.500000 0.422187
vt 0.500000 0.664242
vt 0.576432 0.505809
vt 0.539481 0.507406
vt 0.547321 0.467354
vt 0.500000 0.513551
vt 0.519044 0.508271
vt 0.579599 0.168698
vt 0.538703 0.096221
vt 0.577833 0.108290
vt 0.520322 0.097153
vt 0.500000 0.106427
vt 0.541975 0.104341
vt 0.078394 0.467354
vt 0.104341 0.437145
vt 0.073220 0.507406
vt 0.590300 0.643738
vt 0.499630 0.641384
vt 0.459655 0.640419
vt 0.417546 0.774144
vt 0.414448 0.641253
vt 0.423095 0.508652
vt 0.621491 0.816867
vt 0.648114 0.640437
vt 0.669097 0.641253
vt 0.644267 0.774144
vt 0.578790 0.496630
vt 0.601625 0.405151
vt 0.649402 0.433451
vt 0.651726 0.367843
vt 0.620780 0.366797
vt 0.454529 0.413961
vt 0.467814 0.368189
vt 0.488225 0.366596
vt 0.561691 0.421068
vt 0.537425 0.365401
vt 0.507200 0.363509
vt 0.481273 0.364028
vt 0.510983 0.366114
vt 0.635806 0.367147
vt 0.669092 0.368189
vt 0.420824 0.496630
vt 0.452865 0.405151
vt 0.558226 0.518348
vt 0.484328 0.324872
vt 0.502799 0.322553
vt 0.547406 0.321655
vt 0.519920 0.320969
vt 0.496410 0.322232
vt 0.523434 0.321439
vt 0.639292 0.324944
vt 0.675657 0.324872
vt 0.550036 0.367843
vt 0.558926 0.322330
vt 0.465216 0.366023
vt 0.604868 0.366023
vt 0.599660 0.365401
vt 0.621651 0.293283
vt 0.658462 0.293469
vt 0.659368 0.261742
vt 0.621257 0.261665
vt 0.501495 0.293600
vt 0.482345 0.307625
vt 0.480362 0.262732
vt 0.500191 0.261781
vt 0.519246 0.292376
vt 0.547742 0.292993
vt 0.548078 0.261464
vt 0.518571 0.260916
vt 0.494871 0.293528
vt 0.493332 0.261956
vt 0.522889 0.292587
vt 0.522344 0.260869
vt 0.451756 0.288897
vt 0.449773 0.262732
vt 0.656778 0.322330
vt 0.622394 0.322035
vt 0.481902 0.324350
vt 0.605664 0.324350
vt 0.599057 0.321655
vt 0.595403 0.548078
vt 0.621257 0.561263
vt 0.645824 0.523009
vt 0.590945 0.518571
vt 0.639859 0.470735
vt 0.648324 0.498544
vt 0.685407 0.500191
vt 0.686261 0.480362
vt 0.592251 0.493332
vt 0.659368 0.560446
vt 0.683143 0.522344
vt 0.596433 0.477757
vt 0.479829 0.307317
vt 0.477757 0.262636
vt 0.447168 0.262636
vt 0.449241 0.288588
vt 0.596679 0.292993
vt 0.595403 0.261464
vt 0.559686 0.293469
vt 0.560446 0.261742
vt 0.603589 0.307317
vt 0.640355 0.307779
vt 0.679739 0.307625
vt 0.677932 0.288897
vt 0.639680 0.289050
vt 0.639859 0.262967
vt 0.679465 0.262732
vt 0.604354 0.288588
vt 0.603287 0.262636
vt 0.679739 0.482345
vt 0.640355 0.473048
vt 0.639680 0.442459
vt 0.677932 0.451756
vt 0.679465 0.449773
vt 0.639859 0.440146
vt 0.603589 0.479829
vt 0.604354 0.449241
vt 0.603287 0.447168
vt 0.841501 0.761101
vt 0.796910 0.643370
vt 0.906455 0.644155
vt 0.894416 0.742499
vt 0.957194 0.643970
vt 0.829265 0.517077
vt 0.940741 0.715601
vt 0.671449 0.841501
vt 0.669190 0.894416
vt 0.849398 0.470798
vt 0.666902 0.940741
vt 0.909364 0.402088
vt 0.855378 0.389954
vt 0.592313 0.470184
vt 0.617524 0.471308
vt 0.621192 0.417417
vt 0.598226 0.414426
vt 0.598146 0.467455
vt 0.603540 0.389954
vt 0.643835 0.389418
vt 0.855424 0.393127
vt 0.905341 0.403681
vt 0.667620 0.471464
vt 0.947229 0.538591
vt 0.963044 0.470184
vt 0.580250 0.494548
vt 0.595712 0.312254
vt 0.621272 0.312916
vt 0.622837 0.264476
vt 0.597277 0.263453
vt 0.852894 0.313492
vt 0.849695 0.260671
vt 0.818572 0.260902
vt 0.821566 0.286829
vt 0.893654 0.314609
vt 0.853541 0.316407
vt 0.850246 0.263617
vt 0.890422 0.263754
vt 0.896415 0.312211
vt 0.936226 0.312254
vt 0.933075 0.263453
vt 0.893263 0.261490
vt 0.670148 0.393127
vt 0.666826 0.415674
vt 0.958612 0.415674
vt 0.958434 0.414426
vt 0.649700 0.837975
vt 0.635627 0.887710
vt 0.686058 0.890422
vt 0.687133 0.850246
vt 0.592375 0.849695
vt 0.589648 0.893263
vt 0.597277 0.933075
vt 0.622837 0.940554
vt 0.673628 0.933416
vt 0.822213 0.289744
vt 0.819123 0.263848
vt 0.672063 0.313364
vt 0.673628 0.264581
vt 0.936602 0.313364
vt 0.933416 0.264581
vt 0.941647 0.364922
vt 0.899640 0.363406
vt 0.623001 0.364960
vt 0.665562 0.364922
vt 0.668659 0.362549
vt 0.644119 0.361871
vt 0.647700 0.316485
vt 0.685132 0.316407
vt 0.859879 0.359936
vt 0.902447 0.361457
vt 0.941330 0.363919
vt 0.860378 0.362549
vt 0.606538 0.359936
vt 0.590374 0.313492
vt 0.601582 0.363919
vt 0.646474 0.289822
vt 0.601626 0.286829
vt 0.603191 0.260902
vt 0.648039 0.263334
vt 0.675760 0.289744
vt 0.677325 0.263848
vt 0.647700 0.841274
vt 0.590374 0.852894
vt 0.601626 0.821566
vt 0.646474 0.809945
vt 0.648039 0.806852
vt 0.603191 0.818572
vt 0.685132 0.853541
vt 0.675760 0.822213
vt 0.677325 0.819123
vt 0.500000 0.668378
vt 0.500000 0.724779
vt 0.517225 0.721513
vt 0.520785 0.669173
vt 0.528698 1.002924
vt 0.500000 1.014901
vt 0.500000 1.025182
vt 0.520785 1.015365
vt 0.500000 0.744181
vt 0.519989 0.740196
vt 0.519989 0.988807
vt 0.500000 0.995348
vt 0.500000 0.660499
vt 0.528698 0.661469
vt 0.154177 0.616909
vt 0.166410 0.570048
vt 0.135838 0.608740
vt 0.149154 0.567675
vt 0.147623 0.572395
vt 0.137518 0.603560
vt 0.583783 0.154177
vt 0.583848 0.135838
vt 0.600568 0.131366
vt 0.597073 0.144428
vt 0.144166 0.612314
vt 0.141084 0.620214
vt 0.132632 0.614576
vt 0.134671 0.609983
vt 0.153028 0.593819
vt 0.141399 0.592146
vt 0.619182 0.132632
vt 0.614588 0.141084
vt 0.606252 0.140479
vt 0.610351 0.130579
vt 0.138199 0.601250
vt 0.148213 0.603179
vt 0.602487 0.570048
vt 0.583783 0.616909
vt 0.597073 0.624463
vt 0.606252 0.625520
vt 0.614588 0.620214
vt 0.620822 0.612314
vt 0.623703 0.603179
vt 0.620639 0.593819
vt 0.604695 0.577238
vt 0.601269 0.572395
vt 0.603531 0.567675
vt 0.609313 0.614171
vt 0.615687 0.610750
vt 0.619182 0.614576
vt 0.610351 0.619358
vt 0.602434 0.613212
vt 0.600568 0.617961
vt 0.626402 0.601250
vt 0.623276 0.609983
vt 0.618527 0.594500
vt 0.623272 0.592146
vt 0.590602 0.606787
vt 0.583848 0.608740
vt 0.592903 0.603615
vt 0.603070 0.582298
vt 0.613048 0.594751
vt 0.610999 0.606475
vt 0.606401 0.608943
vt 0.601438 0.608251
vt 0.586331 0.603560
vt 0.600598 0.578805
vt 0.589822 0.601288
vt 0.148133 0.578805
vt 0.140843 0.601288
vt 0.522445 0.038205
vt 0.513246 0.032036
vt 0.507613 0.025182
vt 0.515546 0.030102
vt 0.521458 0.442272
vt 0.528336 0.428901
vt 0.500000 0.456702
vt 0.500000 0.445370
vt 0.500000 0.031689
vt 0.512541 0.032373
vt 0.506877 0.025742
vt 0.500000 0.025886
vt 0.500000 0.031337
vt 0.500000 0.025479
vt 0.030102 0.457928
vt 0.030515 0.446199
vt 0.432141 0.867914
vt 0.443845 0.927906
vt 0.379085 0.894044
vt 0.360683 0.828812
vt 0.439809 0.672195
vt 0.430298 0.558226
vt 0.400297 0.594201
vt 0.380247 0.672998
vt 0.419750 0.833374
vt 0.430922 0.759035
vt 0.362910 0.751725
vt 0.364577 0.812683
vt 0.430922 0.758996
vt 0.439809 0.671923
vt 0.454286 0.976119
vt 0.395580 0.951058
vt 0.395580 0.548422
vt 0.333098 0.547256
vt 0.311584 0.643970
vt 0.373635 0.643481
vt 0.436410 0.893919
vt 0.360683 0.793372
vt 0.328551 0.761101
vt 0.323030 0.643370
vt 0.340672 0.642712
vt 0.444006 0.632181
vt 0.395580 0.735145
vt 0.454286 0.747180
vt 0.427025 0.538591
vt 0.333098 0.715601
vt 0.427025 0.947229
vt 0.443553 0.575135
vt 0.400297 0.530171
vt 0.356060 0.535244
vt 0.340885 0.643738
vt 0.362910 0.643182
vt 0.435444 0.492909
vt 0.433984 0.447361
vt 0.430298 0.518348
vt 0.405006 0.421068
vt 0.383019 0.429733
vt 0.362474 0.771615
vt 0.387552 0.796381
vt 0.438918 0.382998
vt 0.421210 0.420824
vt 0.448920 0.357545
vt 0.398021 0.363238
vt 0.378773 0.407144
vt 0.332784 0.508652
vt 0.333539 0.413961
vt 0.367244 0.407548
vt 0.378773 0.499901
vt 0.362910 0.751727
vt 0.459125 0.268345
vt 0.417930 0.278839
vt 0.380247 0.672932
vt 0.448920 0.314473
vt 0.328551 0.517077
vt 0.328734 0.470798
vt 0.357619 0.470278
vt 0.364577 0.509803
vt 0.459125 0.239236
vt 0.435444 0.495971
vt 0.387552 0.579931
vt 0.371732 0.501290
vt 0.368885 0.457158
vt 0.460183 0.181283
vt 0.460183 0.140934
vt 0.460183 0.196322
vt 0.419994 0.205473
vt 0.378509 0.393435
vt 0.461297 0.608225
vt 0.473395 0.560962
vt 0.433984 0.450625
vt 0.460469 0.141037
vt 0.469367 0.116366
vt 0.437911 0.123733
vt 0.420553 0.149293
vt 0.457081 0.165879
vt 0.413943 0.174337
vt 0.484203 0.085531
vt 0.489280 0.071544
vt 0.476758 0.071388
vt 0.468516 0.086614
vt 0.398021 0.325561
vt 0.417930 0.249130
vt 0.419994 0.679456
vt 0.420401 0.648799
vt 0.460183 0.657159
vt 0.460183 0.690304
vt 0.486669 0.045311
vt 0.419994 0.191059
vt 0.422167 0.599988
vt 0.445768 0.556649
vt 0.469661 0.475706
vt 0.477555 0.462176
vt 0.486754 0.460736
vt 0.484790 0.477146
vt 0.484454 0.457928
vt 0.485561 0.446199
vt 0.493123 0.445401
vt 0.492387 0.457080
vt 0.471665 0.053210
vt 0.379159 0.601238
vt 0.385282 0.599612
vt 0.386922 0.604170
vt 0.381432 0.607555
vt 0.486669 0.424258
vt 0.487459 0.440917
vt 0.423568 0.505809
vt 0.452679 0.467354
vt 0.460520 0.507406
vt 0.480956 0.508271
vt 0.420401 0.168698
vt 0.422167 0.108290
vt 0.461297 0.096221
vt 0.479678 0.097153
vt 0.458025 0.104341
vt 0.378509 0.816867
vt 0.355733 0.774144
vt 0.330903 0.641253
vt 0.351886 0.640437
vt 0.398375 0.405151
vt 0.421210 0.496630
vt 0.379220 0.366797
vt 0.348274 0.367843
vt 0.350598 0.433451
vt 0.330908 0.368189
vt 0.364194 0.367147
vt 0.324343 0.324872
vt 0.360708 0.324944
vt 0.395132 0.366023
vt 0.400340 0.365401
vt 0.378349 0.293283
vt 0.378743 0.261665
vt 0.340632 0.261742
vt 0.341538 0.293469
vt 0.377606 0.322035
vt 0.343222 0.322330
vt 0.394336 0.324350
vt 0.400943 0.321655
vt 0.404597 0.548078
vt 0.409055 0.518571
vt 0.354176 0.523009
vt 0.378743 0.561263
vt 0.360141 0.470735
vt 0.313739 0.480362
vt 0.314593 0.500191
vt 0.351676 0.498544
vt 0.407749 0.493332
vt 0.316857 0.522344
vt 0.340632 0.560446
vt 0.403567 0.477757
vt 0.403321 0.292993
vt 0.404597 0.261464
vt 0.359645 0.307779
vt 0.396411 0.307317
vt 0.320262 0.307625
vt 0.322068 0.288897
vt 0.320535 0.262732
vt 0.360141 0.262967
vt 0.360320 0.289050
vt 0.396713 0.262636
vt 0.395646 0.288588
vt 0.320262 0.482345
vt 0.322068 0.451756
vt 0.360320 0.442459
vt 0.359645 0.473048
vt 0.360141 0.440146
vt 0.320535 0.449773
vt 0.395646 0.449241
vt 0.396411 0.479829
vt 0.396713 0.447168
vt 0.330810 0.894416
vt 0.328551 0.841501
vt 0.333098 0.940741
vt 0.407688 0.470184
vt 0.401774 0.414426
vt 0.378808 0.417417
vt 0.382476 0.471308
vt 0.356165 0.389418
vt 0.396460 0.389954
vt 0.401854 0.467455
vt 0.332380 0.471464
vt 0.419750 0.494548
vt 0.404289 0.312254
vt 0.402723 0.263453
vt 0.377163 0.264476
vt 0.378728 0.312916
vt 0.329852 0.393127
vt 0.333174 0.415674
vt 0.350300 0.837975
vt 0.312867 0.850246
vt 0.313942 0.890422
vt 0.364373 0.887710
vt 0.410353 0.893263
vt 0.407625 0.849695
vt 0.377163 0.940554
vt 0.402723 0.933075
vt 0.326372 0.933416
vt 0.326372 0.264581
vt 0.327937 0.313364
vt 0.376999 0.364960
vt 0.334438 0.364922
vt 0.331341 0.362549
vt 0.314868 0.316407
vt 0.352300 0.316485
vt 0.355881 0.361871
vt 0.409626 0.313492
vt 0.393462 0.359936
vt 0.398418 0.363919
vt 0.353526 0.289822
vt 0.351961 0.263334
vt 0.396809 0.260902
vt 0.398374 0.286829
vt 0.324240 0.289744
vt 0.322675 0.263848
vt 0.352300 0.841274
vt 0.353526 0.809945
vt 0.398374 0.821566
vt 0.409626 0.852894
vt 0.396809 0.818572
vt 0.351961 0.806852
vt 0.314868 0.853541
vt 0.324240 0.822213
vt 0.322675 0.819123
vt 0.479215 0.669173
vt 0.482775 0.721513
vt 0.471302 1.002924
vt 0.479215 1.015365
vt 0.480011 0.740196
vt 0.480011 0.988807
vt 0.471302 0.661469
vt 0.416217 0.154177
vt 0.402927 0.144428
vt 0.399432 0.131366
vt 0.416152 0.135838
vt 0.380819 0.132632
vt 0.389649 0.130579
vt 0.393748 0.140479
vt 0.385412 0.141084
vt 0.397513 0.570048
vt 0.379361 0.593819
vt 0.376297 0.603179
vt 0.379178 0.612314
vt 0.385412 0.620214
vt 0.393748 0.625520
vt 0.402927 0.624463
vt 0.416217 0.616909
vt 0.395305 0.577238
vt 0.396469 0.567675
vt 0.398731 0.572395
vt 0.390687 0.614171
vt 0.389649 0.619358
vt 0.380819 0.614576
vt 0.384313 0.610750
vt 0.397566 0.613212
vt 0.399432 0.617961
vt 0.376724 0.609983
vt 0.373598 0.601250
vt 0.376728 0.592146
vt 0.381473 0.594500
vt 0.409398 0.606787
vt 0.416152 0.608740
vt 0.407098 0.603615
vt 0.398562 0.608251
vt 0.393599 0.608943
vt 0.389001 0.606475
vt 0.386952 0.594751
vt 0.396930 0.582298
vt 0.413669 0.603560
vt 0.399402 0.578805
vt 0.410178 0.601288
vt 0.477555 0.038205
vt 0.484454 0.030102
vt 0.492387 0.025182
vt 0.486754 0.032036
vt 0.478542 0.442272
vt 0.471665 0.428901
vt 0.493123 0.025742
vt 0.487459 0.032373
vt 0.181819 0.000000
vt 0.227273 0.078731
vt 0.136365 0.078731
vt 0.272728 0.157461
vt 0.318182 0.078731
vt 0.363637 0.157461
vt 0.909091 0.000000
vt 0.954545 0.078731
vt 0.863636 0.078731
vt 0.727273 0.000000
vt 0.772727 0.078731
vt 0.681818 0.078731
vt 0.545455 0.000000
vt 0.590909 0.078731
vt 0.500000 0.078731
vt 0.318182 0.236191
vt 0.090910 0.157461
vt 0.181819 0.157461
vt 0.136365 0.236191
vt 0.818182 0.157461
vt 0.909091 0.157461
vt 0.863636 0.236191
vt 0.636364 0.157461
vt 0.727273 0.157461
vt 0.681818 0.236191
vt 0.454546 0.157461
vt 0.545455 0.157461
vt 0.500000 0.236191
vt 0.227273 0.236191
vt 0.045455 0.236191
vt 0.772727 0.236191
vt 0.590909 0.236191
vt 0.409092 0.236191
vt 0.181819 0.314921
vt 0.272728 0.314921
vt 0.227273 0.393651
vt 0.000000 0.314921
vt 0.090910 0.314921
vt 0.045455 0.393651
vt 0.727273 0.314921
vt 0.818182 0.314921
vt 0.772727 0.393651
vt 0.545455 0.314921
vt 0.636364 0.314921
vt 0.590909 0.393651
vt 0.363637 0.314921
vt 0.454546 0.314921
vt 0.409092 0.393651
vt 0.500000 0.393651
vt 0.454546 0.472382
vt 0.681818 0.393651
vt 0.636364 0.472382
vt 0.863636 0.393651
vt 0.818182 0.472382
vt 0.909091 0.314921
vt 0.136365 0.393651
vt 0.090910 0.472382
vt 0.318182 0.393651
vt 0.272728 0.472382
vt 0.954545 0.236191
vt 1.000000 0.157461
vt 0.409092 0.078731
vt 0.363637 0.000000
s 1
f 116/1/1 98/2/1 209/3/1 208/4/1
f 115/5/2 4/6/2 17/7/2 97/8/2
f 3/9/3 7/10/3 13/11/3 8/12/3
f 7/10/4 4/13/4 9/14/4 13/11/4
f 13/11/5 9/14/5 2/15/5 10/16/5
f 8/12/6 13/11/6 10/16/6 1/17/6
f 1/17/7 10/16/7 32/18/7 29/19/7
f 114/20/8 1/21/8 29/22/8 83/23/8
f 116/24/9 3/25/9 8/26/9 109/27/9
f 109/27/10 8/26/10 1/21/10 114/20/10
f 115/5/11 6/28/11 15/29/11 99/30/11
f 99/30/12 15/29/12 12/31/12 112/32/12
f 97/8/13 17/7/13 21/33/13 90/34/13
f 20/35/14 25/36/14 203/37/14 204/38/14
f 116/24/15 5/28/15 18/39/15 98/40/15
f 4/41/16 7/42/16 197/43/16 196/44/16
f 89/45/17 90/46/17 21/47/17 25/36/17
f 91/48/18 89/45/18 25/36/18 20/35/18
f 25/36/19 21/47/19 202/49/19 203/37/19
f 98/40/20 18/39/20 23/50/20 91/51/20
f 38/52/21 45/53/21 134/54/21 131/55/21
f 133/56/22 136/57/22 144/58/22 146/59/22
f 112/32/23 12/31/23 34/60/23 82/61/23
f 10/16/24 2/15/24 30/62/24 32/18/24
f 29/63/25 32/64/25 129/65/25 130/66/25
f 75/67/26 41/68/26 48/69/26 73/70/26
f 82/61/27 34/60/27 41/68/27 75/67/27
f 83/71/28 29/63/28 141/72/28 140/73/28
f 32/64/29 30/74/29 128/75/29 129/65/29
f 73/70/30 48/69/30 56/76/30 66/77/30
f 74/78/31 81/79/31 145/80/31 148/81/31
f 130/82/32 133/56/32 146/59/32 147/83/32
f 6/28/33 115/5/33 97/8/33 19/39/33
f 54/84/34 53/85/34 60/86/34 61/87/34
f 67/88/35 54/89/35 61/90/35 65/91/35
f 11/92/36 114/20/36 83/23/36 33/93/36
f 5/28/37 116/24/37 109/27/37 14/29/37
f 14/29/38 109/27/38 114/20/38 11/92/38
f 139/94/39 54/95/39 143/96/39 142/97/39
f 30/62/40 38/52/40 131/55/40 128/98/40
f 4/6/41 115/5/41 99/30/41 9/99/41
f 61/87/42 60/86/42 69/100/42 70/101/42
f 65/91/43 61/90/43 70/102/43 58/103/43
f 9/99/44 99/30/44 112/32/44 2/104/44
f 66/77/45 56/76/45 63/105/45 64/106/45
f 19/39/46 97/8/46 90/34/46 24/107/46
f 53/85/47 52/108/47 59/109/47 60/86/47
f 198/110/48 3/111/48 207/112/48 213/113/48
f 256/114/49 255/115/49 253/116/49 254/117/49
f 23/118/50 26/119/50 89/45/50 91/48/50
f 69/100/51 68/120/51 76/121/51 77/122/51
f 204/123/52 201/124/52 211/125/52 212/126/52
f 64/106/53 63/105/53 72/127/53 57/128/53
f 33/93/54 83/23/54 81/129/54 40/68/54
f 60/86/55 59/109/55 68/120/55 69/100/55
f 2/104/56 112/32/56 82/61/56 30/130/56
f 38/131/57 75/67/57 73/70/57 45/132/57
f 77/122/58 76/121/58 259/133/58 260/134/58
f 30/130/59 82/61/59 75/67/59 38/131/59
f 50/135/60 80/136/60 88/137/60 44/138/60
f 58/103/61 70/102/61 78/139/61 51/140/61
f 70/101/62 69/100/62 77/122/62 78/141/62
f 45/132/63 73/70/63 66/77/63 52/142/63
f 57/128/64 72/127/64 80/136/64 50/135/64
f 28/143/65 110/144/65 96/145/65 42/146/65
f 40/68/66 81/129/66 74/147/66 47/69/66
f 108/148/67 262/149/67 93/150/67 94/151/67
f 31/152/68 108/153/68 94/154/68 43/155/68
f 55/156/69 67/88/69 65/91/69 62/157/69
f 51/140/70 78/139/70 86/158/70 49/159/70
f 78/141/71 77/122/71 260/134/71 86/160/71
f 47/69/72 74/147/72 67/88/72 55/156/72
f 123/161/73 124/162/73 101/163/73 102/164/73
f 121/165/74 123/166/74 102/167/74 37/168/74
f 62/157/75 65/91/75 58/103/75 71/169/75
f 52/142/76 66/77/76 64/106/76 59/170/76
f 59/170/77 64/106/77 57/128/77 68/171/77
f 262/149/78 261/172/78 92/173/78 93/150/78
f 76/174/79 50/175/79 44/176/79 259/177/79
f 71/169/80 58/103/80 51/140/80 79/178/80
f 37/168/81 35/179/81 105/180/81 103/181/81
f 124/162/82 127/182/82 297/183/82 298/184/82 101/163/82
f 68/171/83 57/128/83 50/135/83 76/185/83
f 261/186/84 28/143/84 42/146/84 92/187/84
f 107/188/85 31/152/85 43/155/85 95/189/85
f 127/190/86 122/191/86 295/192/86 297/193/86
f 79/178/87 51/140/87 49/159/87 87/194/87
f 100/195/88 36/196/88 301/197/88 104/198/88
f 126/199/89 121/165/89 37/168/89 103/181/89
f 102/167/90 101/200/90 35/179/90 37/168/90
f 274/201/91 273/202/91 290/203/91 291/204/91
f 122/191/92 125/205/92 300/206/92 295/192/92
f 49/159/93 86/158/93 108/153/93 31/152/93
f 86/160/94 260/134/94 262/149/94 108/148/94
f 35/207/95 296/208/95 299/209/95 105/210/95
f 44/176/96 88/211/96 110/144/96 28/143/96
f 93/212/97 92/187/97 120/213/97 119/214/97
f 87/194/98 49/159/98 31/152/98 107/188/98
f 42/146/99 96/145/99 113/215/99 27/216/99
f 259/217/100 44/138/100 28/218/100 261/219/100
f 92/187/101 42/146/101 27/216/101 120/213/101
f 95/189/102 43/155/102 22/220/102 118/221/102
f 43/155/103 94/154/103 117/222/103 22/220/103
f 94/151/104 93/150/104 119/223/104 117/224/104
f 120/213/105 27/216/105 122/191/105 127/190/105
f 118/221/106 22/220/106 121/165/106 126/199/106
f 119/223/107 120/225/107 127/182/107 124/162/107
f 27/216/108 113/215/108 125/205/108 122/191/108
f 22/220/109 117/222/109 123/166/109 121/165/109
f 117/224/110 119/223/110 124/162/110 123/161/110
f 130/82/111 129/226/111 132/227/111 133/56/111
f 132/227/112 131/55/112 134/54/112 135/228/112
f 129/226/113 128/98/113 131/55/113 132/227/113
f 135/228/114 134/54/114 137/229/114 138/230/114
f 133/56/115 132/227/115 135/228/115 136/57/115
f 136/57/116 135/228/116 138/230/116 139/231/116
f 52/232/117 53/233/117 138/234/117 137/235/117
f 45/53/118 52/108/118 137/229/118 134/54/118
f 54/95/119 67/236/119 149/237/119 143/96/119
f 53/233/120 54/95/120 139/94/120 138/234/120
f 141/72/121 147/238/121 157/239/121 39/240/121
f 144/58/122 142/241/122 150/242/122 153/243/122
f 145/80/123 140/244/123 46/245/123 154/246/123
f 148/81/124 145/80/124 154/246/124 158/247/124
f 146/59/125 144/58/125 153/243/125 156/248/125
f 142/97/126 143/96/126 151/249/126 150/250/126
f 136/57/127 139/231/127 142/241/127 144/58/127
f 67/251/128 74/78/128 148/81/128 149/252/128
f 29/63/129 130/66/129 147/238/129 141/72/129
f 81/79/130 83/253/130 140/244/130 145/80/130
f 153/243/131 150/242/131 162/254/131 164/255/131
f 154/246/132 46/245/132 160/256/132 165/257/132
f 158/247/133 154/246/133 165/257/133 168/258/133
f 156/248/134 153/243/134 164/255/134 166/259/134
f 150/250/135 151/249/135 163/260/135 162/261/135
f 157/262/136 156/248/136 166/259/136 167/263/136
f 149/252/137 148/81/137 158/247/137 159/264/137
f 143/96/138 149/237/138 159/265/138 151/249/138
f 140/73/139 141/72/139 39/240/139 46/266/139
f 147/83/140 146/59/140 156/248/140 157/262/140
f 188/267/141 187/268/141 177/269/141 152/270/141
f 184/271/142 185/272/142 170/273/142 173/274/142
f 182/275/143 180/276/143 155/277/143 174/278/143
f 181/279/144 182/275/144 174/278/144 178/280/144
f 183/281/145 184/271/145 173/274/145 176/282/145
f 170/273/146 185/272/146 194/283/146 192/284/146
f 39/240/147 157/239/147 167/285/147 161/286/147
f 159/264/148 158/247/148 168/258/148 169/287/148
f 151/249/149 159/265/149 169/288/149 163/260/149
f 46/266/150 39/240/150 161/286/150 160/289/150
f 155/290/151 152/291/151 175/292/151 174/293/151
f 171/294/152 172/295/152 173/296/152 170/297/152
f 174/293/153 175/292/153 172/295/153 178/298/153
f 175/292/154 152/291/154 177/299/154 176/300/154
f 178/298/155 172/295/155 171/294/155 179/301/155
f 172/295/156 175/292/156 176/300/156 173/296/156
f 189/302/157 181/279/157 178/280/157 179/303/157
f 189/302/158 179/303/158 193/304/158 195/305/158
f 180/306/159 188/267/159 152/270/159 155/307/159
f 187/308/160 183/281/160 176/282/160 177/309/160
f 167/263/161 166/259/161 183/281/161 187/308/161
f 160/289/162 161/286/162 188/267/162 180/306/162
f 163/260/163 169/288/163 189/310/163 186/311/163
f 169/287/164 168/258/164 181/279/164 189/302/164
f 162/261/165 163/260/165 186/311/165 185/312/165
f 166/259/166 164/255/166 184/271/166 183/281/166
f 168/258/167 165/257/167 182/275/167 181/279/167
f 165/257/168 160/256/168 180/276/168 182/275/168
f 164/255/169 162/254/169 185/272/169 184/271/169
f 161/286/170 167/285/170 187/268/170 188/267/170
f 194/313/171 190/314/171 191/315/171 192/316/171
f 190/314/172 195/317/172 193/318/172 191/315/172
f 185/319/173 186/320/173 190/321/173 194/322/173
f 171/294/174 170/297/174 192/323/174 191/324/174
f 186/320/175 189/325/175 195/326/175 190/321/175
f 179/301/176 171/294/176 191/324/176 193/327/176
f 196/328/177 197/329/177 200/330/177 199/331/177
f 200/330/178 201/124/178 204/123/178 203/332/178
f 197/329/179 198/333/179 201/124/179 200/330/179
f 199/331/180 200/330/180 203/332/180 202/334/180
f 7/42/181 3/111/181 198/110/181 197/43/181
f 17/7/182 4/6/182 196/335/182 199/336/182
f 201/124/183 198/333/183 213/337/183 211/125/183
f 21/33/184 17/7/184 199/336/184 202/338/184
f 208/4/185 209/3/185 217/339/185 216/340/185
f 210/341/186 206/342/186 214/343/186 218/344/186
f 207/112/187 208/345/187 216/346/187 215/347/187
f 211/125/188 213/337/188 221/348/188 219/349/188
f 20/35/189 204/38/189 212/350/189 206/342/189
f 91/48/190 20/35/190 206/342/190 210/341/190
f 98/2/191 91/351/191 210/352/191 209/3/191
f 3/111/192 116/353/192 208/345/192 207/112/192
f 232/354/193 235/355/193 222/356/193 226/357/193
f 233/358/194 224/359/194 240/360/194 241/361/194
f 16/362/195 230/363/195 229/364/195 227/365/195
f 231/366/196 232/367/196 226/368/196 225/369/196
f 213/113/197 207/112/197 215/347/197 221/370/197
f 206/342/198 212/350/198 220/371/198 214/343/198
f 212/126/199 211/125/199 219/349/199 220/372/199
f 209/3/200 210/352/200 218/373/200 217/339/200
f 223/374/201 205/375/201 227/376/201 229/377/201
f 223/374/202 224/378/202 225/379/202 205/375/202
f 205/375/203 225/379/203 226/380/203 222/381/203
f 205/375/204 222/381/204 228/382/204 227/376/204
f 233/358/205 231/366/205 225/369/205 224/359/205
f 229/364/206 230/363/206 237/383/206 238/384/206
f 235/355/207 236/385/207 228/386/207 222/356/207
f 236/387/208 16/362/208 227/365/208 228/388/208
f 250/389/209 243/390/209 16/362/209 236/387/209
f 249/391/210 250/392/210 236/385/210 235/355/210
f 246/393/211 245/394/211 234/395/211 230/396/211
f 248/397/212 244/398/212 231/366/212 233/358/212
f 244/398/213 247/399/213 232/367/213 231/366/213
f 243/390/214 246/400/214 230/363/214 16/362/214
f 245/394/215 248/401/215 233/402/215 234/395/215
f 247/403/216 249/391/216 235/355/216 232/354/216
f 242/404/217 241/405/217 240/406/217 239/407/217
f 237/408/218 242/404/218 239/407/218 238/409/218
f 234/410/219 233/411/219 241/412/219 242/413/219
f 224/378/220 223/374/220 239/414/220 240/415/220
f 230/416/221 234/410/221 242/413/221 237/417/221
f 223/374/222 229/377/222 238/418/222 239/414/222
f 218/344/223 214/343/223 249/391/223 247/403/223
f 215/347/224 216/346/224 248/401/224 245/394/224
f 219/349/225 221/348/225 246/400/225 243/390/225
f 217/339/226 218/373/226 247/399/226 244/398/226
f 216/340/227 217/339/227 244/398/227 248/397/227
f 221/370/228 215/347/228 245/394/228 246/393/228
f 214/343/229 220/371/229 250/392/229 249/391/229
f 220/372/230 219/349/230 243/390/230 250/389/230
f 252/419/231 251/420/231 254/421/231 253/422/231
f 255/423/232 257/424/232 252/425/232 253/426/232
f 258/427/233 256/428/233 254/421/233 251/420/233
f 24/107/234 90/34/234 256/429/234 258/430/234
f 89/45/235 26/119/235 257/431/235 255/432/235
f 90/46/236 89/45/236 255/432/236 256/428/236
f 84/433/237 85/434/237 260/134/237 259/133/237
f 275/435/238 84/433/238 259/133/238 261/172/238
f 85/434/239 276/436/239 262/149/239 260/134/239
f 276/436/240 284/437/240 283/438/240 275/435/240 261/172/240 262/149/240
f 84/439/241 275/440/241 279/441/241 263/442/241
f 266/443/242 264/444/242 278/445/242 280/446/242
f 276/436/243 85/434/243 267/447/243 282/448/243
f 278/449/244 264/450/244 265/451/244 277/452/244
f 277/452/245 265/451/245 263/442/245 279/441/245
f 266/443/246 280/446/246 281/453/246 268/454/246
f 268/454/247 281/453/247 282/448/247 267/447/247
f 85/455/248 84/456/248 263/457/248 265/458/248 264/459/248 266/460/248 268/461/248 267/462/248
f 106/463/249 284/464/249 276/465/249
f 271/466/250 269/467/250 278/468/250 277/469/250
f 270/470/251 271/466/251 277/469/251 279/471/251
f 273/202/252 274/201/252 281/472/252 280/473/252
f 274/201/253 272/474/253 282/475/253 281/472/253
f 269/467/254 273/202/254 280/473/254 278/468/254
f 111/476/255 270/470/255 279/471/255 275/477/255
f 272/474/256 106/463/256 276/465/256 282/475/256
f 285/478/257 286/479/257 292/480/257 291/204/257 290/203/257 288/481/257 287/482/257 289/483/257
f 283/484/258 111/476/258 275/477/258
f 270/470/259 111/476/259 285/478/259 289/483/259
f 294/485/260 286/479/260 285/478/260 293/486/260
f 111/476/261 283/484/261 293/486/261 285/478/261
f 106/463/262 272/474/262 292/480/262 286/479/262
f 272/474/263 274/201/263 291/204/263 292/480/263
f 269/467/264 271/466/264 287/482/264 288/481/264
f 283/438/265 284/437/265 294/487/265 293/488/265
f 273/202/266 269/467/266 288/481/266 290/203/266
f 284/464/267 106/463/267 286/479/267 294/485/267
f 271/466/268 270/470/268 289/483/268 287/482/268
f 297/489/269 295/490/269 36/491/269 100/492/269
f 296/208/270 298/493/270 104/198/270 301/197/270
f 101/494/271 298/493/271 296/208/271 35/207/271
f 36/196/272 302/495/272 303/496/272 301/197/272
f 299/497/273 296/498/273 301/499/273 303/500/273
f 295/490/274 300/501/274 302/502/274 36/491/274
f 298/184/275 297/183/275 100/503/275 104/504/275
f 385/1/276 474/4/276 475/3/276 372/2/276
f 384/505/277 371/506/277 314/507/277 307/508/277
f 306/9/278 309/12/278 312/11/278 308/10/278
f 308/10/279 312/11/279 310/14/279 307/13/279
f 312/11/280 311/16/280 305/15/280 310/14/280
f 309/12/281 304/17/281 311/16/281 312/11/281
f 304/17/282 321/19/282 324/18/282 311/16/282
f 383/509/283 361/510/283 321/511/283 304/512/283
f 385/513/284 380/514/284 309/515/284 306/516/284
f 380/514/285 383/509/285 304/512/285 309/515/285
f 384/505/286 373/517/286 15/29/286 6/28/286
f 373/517/287 382/518/287 12/31/287 15/29/287
f 371/506/288 366/519/288 316/520/288 314/507/288
f 315/521/289 470/522/289 469/523/289 318/524/289
f 385/513/290 372/525/290 18/39/290 5/28/290
f 307/526/291 462/527/291 463/528/291 308/529/291
f 365/530/292 318/524/292 316/531/292 366/532/292
f 367/533/293 315/521/293 318/524/293 365/530/293
f 318/524/294 469/523/294 468/534/294 316/531/294
f 372/525/295 367/535/295 23/50/295 18/39/295
f 328/52/296 397/55/296 400/54/296 333/53/296
f 399/56/297 412/59/297 410/58/297 402/57/297
f 382/518/298 360/536/298 34/60/298 12/31/298
f 311/16/299 324/18/299 322/62/299 305/15/299
f 321/537/300 396/538/300 395/539/300 324/540/300
f 355/541/301 353/542/301 48/69/301 41/68/301
f 360/536/302 355/541/302 41/68/302 34/60/302
f 361/543/303 406/544/303 407/545/303 321/537/303
f 324/540/304 395/539/304 394/546/304 322/547/304
f 353/542/305 348/548/305 56/76/305 48/69/305
f 354/78/306 414/81/306 411/80/306 359/79/306
f 396/82/307 413/83/307 412/59/307 399/56/307
f 6/28/308 19/39/308 371/506/308 384/505/308
f 340/84/309 345/87/309 344/86/309 339/85/309
f 349/549/310 347/550/310 345/551/310 340/552/310
f 11/92/311 33/93/311 361/510/311 383/509/311
f 5/28/312 14/29/312 380/514/312 385/513/312
f 14/29/313 11/92/313 383/509/313 380/514/313
f 405/553/314 408/554/314 409/555/314 340/556/314
f 322/62/315 394/98/315 397/55/315 328/52/315
f 307/508/316 310/557/316 373/517/316 384/505/316
f 345/87/317 352/101/317 351/100/317 344/86/317
f 347/550/318 342/558/318 352/559/318 345/551/318
f 310/557/319 305/560/319 382/518/319 373/517/319
f 348/548/320 346/561/320 63/105/320 56/76/320
f 19/39/321 24/107/321 366/519/321 371/506/321
f 339/85/322 344/86/322 343/109/322 338/108/322
f 464/562/323 479/563/323 473/564/323 306/565/323
f 520/114/324 518/117/324 517/116/324 519/115/324
f 23/118/325 367/533/325 365/530/325 26/119/325
f 351/100/326 357/122/326 356/121/326 350/120/326
f 470/123/327 478/126/327 477/125/327 467/124/327
f 346/561/328 341/566/328 72/127/328 63/105/328
f 33/93/329 40/68/329 359/567/329 361/510/329
f 344/86/330 351/100/330 350/120/330 343/109/330
f 305/560/331 322/568/331 360/536/331 382/518/331
f 328/569/332 333/570/332 353/542/332 355/541/332
f 357/122/333 522/134/333 521/133/333 356/121/333
f 322/568/334 328/569/334 355/541/334 360/536/334
f 336/571/335 332/572/335 88/137/335 80/136/335
f 342/558/336 337/573/336 358/574/336 352/559/336
f 352/101/337 358/141/337 357/122/337 351/100/337
f 333/570/338 338/575/338 348/548/338 353/542/338
f 341/566/339 336/571/339 80/136/339 72/127/339
f 320/576/340 330/577/340 96/145/340 110/144/340
f 40/68/341 47/69/341 354/578/341 359/567/341
f 379/148/342 370/151/342 369/150/342 524/149/342
f 323/579/343 331/580/343 370/581/343 379/582/343
f 55/156/344 62/157/344 347/550/344 349/549/344
f 337/573/345 335/583/345 364/584/345 358/574/345
f 358/141/346 364/160/346 522/134/346 357/122/346
f 47/69/347 55/156/347 349/549/347 354/578/347
f 391/161/348 376/164/348 375/163/348 392/162/348
f 389/585/349 327/586/349 376/587/349 391/588/349
f 62/157/350 71/169/350 342/558/350 347/550/350
f 338/575/351 343/589/351 346/561/351 348/548/351
f 343/589/352 350/590/352 341/566/352 346/561/352
f 524/149/353 369/150/353 368/173/353 523/172/353
f 356/591/354 521/592/354 332/593/354 336/594/354
f 71/169/355 79/178/355 337/573/355 342/558/355
f 327/586/356 103/181/356 105/180/356 325/595/356
f 392/162/357 375/163/357 560/184/357 559/183/357 393/182/357
f 350/590/358 356/596/358 336/571/358 341/566/358
f 523/597/359 368/598/359 330/577/359 320/576/359
f 107/188/360 95/189/360 331/580/360 323/579/360
f 393/599/361 559/600/361 557/601/361 390/602/361
f 79/178/362 87/194/362 335/583/362 337/573/362
f 374/603/363 377/604/363 561/605/363 326/606/363
f 126/199/364 103/181/364 327/586/364 389/585/364
f 376/587/365 327/586/365 325/595/365 375/607/365
f 536/608/366 553/609/366 552/610/366 535/611/366
f 390/602/367 557/601/367 300/206/367 125/205/367
f 335/583/368 323/579/368 379/582/368 364/584/368
f 364/160/369 379/148/369 524/149/369 522/134/369
f 325/612/370 105/210/370 299/209/370 558/613/370
f 332/593/371 320/576/371 110/144/371 88/211/371
f 369/614/372 387/615/372 388/616/372 368/598/372
f 87/194/373 107/188/373 323/579/373 335/583/373
f 330/577/374 319/617/374 113/215/374 96/145/374
f 521/618/375 523/619/375 320/620/375 332/572/375
f 368/598/376 388/616/376 319/617/376 330/577/376
f 95/189/377 118/221/377 317/621/377 331/580/377
f 331/580/378 317/621/378 386/622/378 370/581/378
f 370/151/379 386/224/379 387/223/379 369/150/379
f 388/616/380 393/599/380 390/602/380 319/617/380
f 118/221/381 126/199/381 389/585/381 317/621/381
f 387/223/382 392/162/382 393/182/382 388/225/382
f 319/617/383 390/602/383 125/205/383 113/215/383
f 317/621/384 389/585/384 391/588/384 386/622/384
f 386/224/385 391/161/385 392/162/385 387/223/385
f 396/82/386 399/56/386 398/227/386 395/226/386
f 398/227/387 401/228/387 400/54/387 397/55/387
f 395/226/388 398/227/388 397/55/388 394/98/388
f 401/228/389 404/230/389 403/229/389 400/54/389
f 399/56/390 402/57/390 401/228/390 398/227/390
f 402/57/391 405/231/391 404/230/391 401/228/391
f 338/623/392 403/624/392 404/625/392 339/626/392
f 333/53/393 400/54/393 403/229/393 338/108/393
f 340/556/394 409/555/394 415/627/394 349/628/394
f 339/626/395 404/625/395 405/553/395 340/556/395
f 407/545/396 329/629/396 423/630/396 413/631/396
f 410/58/397 419/243/397 416/242/397 408/241/397
f 411/80/398 420/246/398 334/245/398 406/244/398
f 414/81/399 424/247/399 420/246/399 411/80/399
f 412/59/400 422/248/400 419/243/400 410/58/400
f 408/554/401 416/632/401 417/633/401 409/555/401
f 402/57/402 410/58/402 408/241/402 405/231/402
f 349/251/403 415/252/403 414/81/403 354/78/403
f 321/537/404 407/545/404 413/631/404 396/538/404
f 359/79/405 411/80/405 406/244/405 361/253/405
f 419/243/406 430/255/406 428/254/406 416/242/406
f 420/246/407 431/257/407 426/256/407 334/245/407
f 424/247/408 434/258/408 431/257/408 420/246/408
f 422/248/409 432/259/409 430/255/409 419/243/409
f 416/632/410 428/634/410 429/635/410 417/633/410
f 423/262/411 433/263/411 432/259/411 422/248/411
f 415/252/412 425/264/412 424/247/412 414/81/412
f 409/555/413 417/633/413 425/636/413 415/627/413
f 406/544/414 334/637/414 329/629/414 407/545/414
f 413/83/415 423/262/415 422/248/415 412/59/415
f 454/638/416 418/639/416 443/640/416 453/641/416
f 450/271/417 439/274/417 436/273/417 451/272/417
f 448/275/418 440/278/418 421/277/418 446/276/418
f 447/279/419 444/280/419 440/278/419 448/275/419
f 449/281/420 442/282/420 439/274/420 450/271/420
f 436/273/421 458/284/421 460/283/421 451/272/421
f 329/629/422 427/642/422 433/643/422 423/630/422
f 425/264/423 435/287/423 434/258/423 424/247/423
f 417/633/424 429/635/424 435/644/424 425/636/424
f 334/637/425 426/645/425 427/642/425 329/629/425
f 421/646/426 440/647/426 441/648/426 418/649/426
f 437/650/427 436/651/427 439/652/427 438/653/427
f 440/647/428 444/654/428 438/653/428 441/648/428
f 441/648/429 442/655/429 443/656/429 418/649/429
f 444/654/430 445/657/430 437/650/430 438/653/430
f 438/653/431 439/652/431 442/655/431 441/648/431
f 455/302/432 445/303/432 444/280/432 447/279/432
f 455/302/433 461/305/433 459/304/433 445/303/433
f 446/658/434 421/659/434 418/639/434 454/638/434
f 453/308/435 443/309/435 442/282/435 449/281/435
f 433/263/436 453/308/436 449/281/436 432/259/436
f 426/645/437 446/658/437 454/638/437 427/642/437
f 429/635/438 452/660/438 455/661/438 435/644/438
f 435/287/439 455/302/439 447/279/439 434/258/439
f 428/634/440 451/662/440 452/660/440 429/635/440
f 432/259/441 449/281/441 450/271/441 430/255/441
f 434/258/442 447/279/442 448/275/442 431/257/442
f 431/257/443 448/275/443 446/276/443 426/256/443
f 430/255/444 450/271/444 451/272/444 428/254/444
f 427/642/445 454/638/445 453/641/445 433/643/445
f 460/663/446 458/664/446 457/665/446 456/666/446
f 456/666/447 457/665/447 459/667/447 461/668/447
f 451/669/448 460/670/448 456/671/448 452/672/448
f 437/650/449 457/673/449 458/674/449 436/651/449
f 452/672/450 456/671/450 461/675/450 455/676/450
f 445/657/451 459/677/451 457/673/451 437/650/451
f 462/328/452 465/331/452 466/330/452 463/329/452
f 466/330/453 469/332/453 470/123/453 467/124/453
f 463/329/454 466/330/454 467/124/454 464/333/454
f 465/331/455 468/334/455 469/332/455 466/330/455
f 308/529/456 463/528/456 464/562/456 306/565/456
f 314/507/457 465/678/457 462/679/457 307/508/457
f 467/124/458 477/125/458 479/337/458 464/333/458
f 316/520/459 468/680/459 465/678/459 314/507/459
f 474/4/460 482/340/460 483/339/460 475/3/460
f 476/681/461 484/682/461 480/683/461 472/684/461
f 473/564/462 481/685/462 482/686/462 474/687/462
f 477/125/463 485/349/463 487/348/463 479/337/463
f 315/521/464 472/684/464 478/688/464 470/522/464
f 367/533/465 476/681/465 472/684/465 315/521/465
f 372/2/466 475/3/466 476/352/466 367/351/466
f 306/565/467 473/564/467 474/687/467 385/689/467
f 498/690/468 492/691/468 488/692/468 501/693/468
f 499/358/469 507/361/469 506/360/469 490/359/469
f 313/362/470 493/365/470 495/364/470 496/363/470
f 497/366/471 491/369/471 492/368/471 498/367/471
f 479/563/472 487/694/472 481/685/472 473/564/472
f 472/684/473 480/683/473 486/695/473 478/688/473
f 478/126/474 486/372/474 485/349/474 477/125/474
f 475/3/475 483/339/475 484/373/475 476/352/475
f 489/696/476 495/697/476 493/698/476 471/699/476
f 489/696/477 471/699/477 491/700/477 490/701/477
f 471/699/478 488/702/478 492/703/478 491/700/478
f 471/699/479 493/698/479 494/704/479 488/702/479
f 499/358/480 490/359/480 491/369/480 497/366/480
f 495/364/481 504/384/481 503/383/481 496/363/481
f 501/693/482 488/692/482 494/705/482 502/706/482
f 502/387/483 494/388/483 493/365/483 313/362/483
f 516/389/484 502/387/484 313/362/484 509/390/484
f 515/707/485 501/693/485 502/706/485 516/708/485
f 512/709/486 496/710/486 500/711/486 511/712/486
f 514/397/487 499/358/487 497/366/487 510/398/487
f 510/398/488 497/366/488 498/367/488 513/399/488
f 509/390/489 313/362/489 496/363/489 512/400/489
f 511/712/490 500/711/490 499/713/490 514/714/490
f 513/715/491 498/690/491 501/693/491 515/707/491
f 508/716/492 505/717/492 506/718/492 507/719/492
f 503/720/493 504/721/493 505/717/493 508/716/493
f 500/722/494 508/723/494 507/724/494 499/725/494
f 490/701/495 506/726/495 505/727/495 489/696/495
f 496/728/496 503/729/496 508/723/496 500/722/496
f 489/696/497 505/727/497 504/730/497 495/697/497
f 484/682/498 513/715/498 515/707/498 480/683/498
f 481/685/499 511/712/499 514/714/499 482/686/499
f 485/349/500 509/390/500 512/400/500 487/348/500
f 483/339/501 510/398/501 513/399/501 484/373/501
f 482/340/502 514/397/502 510/398/502 483/339/502
f 487/694/503 512/709/503 511/712/503 481/685/503
f 480/683/504 515/707/504 516/708/504 486/695/504
f 486/372/505 516/389/505 509/390/505 485/349/505
f 252/419/506 517/731/506 518/732/506 251/420/506
f 519/733/507 517/734/507 252/425/507 257/424/507
f 258/427/508 251/420/508 518/732/508 520/735/508
f 24/107/509 258/430/509 520/736/509 366/519/509
f 365/530/510 519/737/510 257/431/510 26/119/510
f 366/532/511 520/735/511 519/737/511 365/530/511
f 362/433/512 521/133/512 522/134/512 363/434/512
f 537/435/513 523/172/513 521/133/513 362/433/513
f 363/434/514 522/134/514 524/149/514 538/436/514
f 538/436/515 524/149/515 523/172/515 537/435/515 545/438/515 546/437/515
f 362/738/516 525/739/516 541/740/516 537/741/516
f 528/443/517 542/446/517 540/445/517 526/444/517
f 538/436/518 544/448/518 529/447/518 363/434/518
f 540/742/519 539/743/519 527/744/519 526/745/519
f 539/743/520 541/740/520 525/739/520 527/744/520
f 528/443/521 530/454/521 543/453/521 542/446/521
f 530/454/522 529/447/522 544/448/522 543/453/522
f 363/746/523 529/747/523 530/748/523 528/749/523 526/750/523 527/751/523 525/752/523 362/753/523
f 378/754/524 538/755/524 546/756/524
f 533/757/525 539/758/525 540/759/525 531/760/525
f 532/761/526 541/762/526 539/758/526 533/757/526
f 535/611/527 542/763/527 543/764/527 536/608/527
f 536/608/528 543/764/528 544/765/528 534/766/528
f 531/760/529 540/759/529 542/763/529 535/611/529
f 381/767/530 537/768/530 541/762/530 532/761/530
f 534/766/531 544/765/531 538/755/531 378/754/531
f 547/769/532 551/770/532 549/771/532 550/772/532 552/610/532 553/609/532 554/773/532 548/774/532
f 545/775/533 537/768/533 381/767/533
f 532/761/534 551/770/534 547/769/534 381/767/534
f 556/776/535 555/777/535 547/769/535 548/774/535
f 381/767/536 547/769/536 555/777/536 545/775/536
f 378/754/537 548/774/537 554/773/537 534/766/537
f 534/766/538 554/773/538 553/609/538 536/608/538
f 531/760/539 550/772/539 549/771/539 533/757/539
f 545/438/540 555/488/540 556/487/540 546/437/540
f 535/611/541 552/610/541 550/772/541 531/760/541
f 546/756/542 556/776/542 548/774/542 378/754/542
f 533/757/543 549/771/543 551/770/543 532/761/543
f 559/778/544 374/779/544 326/780/544 557/781/544
f 558/613/545 561/605/545 377/604/545 560/782/545
f 375/783/546 325/612/546 558/613/546 560/782/546
f 326/606/547 561/605/547 303/496/547 302/495/547
f 299/497/548 303/500/548 561/784/548 558/785/548
f 557/781/549 326/780/549 302/502/549 300/501/549
f 560/184/550 377/504/550 374/503/550 559/183/550
f 562/786/551 575/787/551 574/788/551
f 563/789/552 575/790/552 577/791/552
f 562/792/553 574/793/553 579/794/553
f 562/795/554 579/796/554 581/797/554
f 562/798/555 581/799/555 578/800/555
f 563/789/556 577/791/556 584/801/556
f 564/802/557 576/803/557 586/804/557
f 565/805/558 580/806/558 588/807/558
f 566/808/559 582/809/559 590/810/559
f 567/811/560 583/812/560 592/813/560
f 563/789/561 584/801/561 587/814/561
f 564/802/562 586/804/562 589/815/562
f 565/805/563 588/807/563 591/816/563
f 566/808/564 590/810/564 593/817/564
f 567/811/565 592/813/565 585/818/565
f 568/819/566 594/820/566 599/821/566
f 569/822/567 595/823/567 601/824/567
f 570/825/568 596/826/568 602/827/568
f 571/828/569 597/829/569 603/830/569
f 572/831/570 598/832/570 600/833/570
f 600/833/571 603/834/571 573/835/571
f 600/833/572 598/832/572 603/834/572
f 598/832/573 571/828/573 603/834/573
f 603/830/574 602/836/574 573/837/574
f 603/830/575 597/829/575 602/836/575
f 597/829/576 570/825/576 602/836/576
f 602/827/577 601/838/577 573/839/577
f 602/827/578 596/826/578 601/838/578
f 596/826/579 569/840/579 601/838/579
f 601/824/580 599/841/580 573/842/580
f 601/824/581 595/823/581 599/841/581
f 595/823/582 568/819/582 599/841/582
f 599/821/583 600/843/583 573/844/583
f 599/821/584 594/820/584 600/843/584
f 594/820/585 572/831/585 600/843/585
f 585/818/586 598/832/586 572/831/586
f 585/818/587 592/813/587 598/832/587
f 592/813/588 571/828/588 598/832/588
f 593/817/589 597/829/589 571/828/589
f 593/817/590 590/810/590 597/829/590
f 590/810/591 570/825/591 597/829/591
f 591/816/592 596/826/592 570/825/592
f 591/816/593 588/807/593 596/826/593
f 588/807/594 569/840/594 596/826/594
f 589/815/595 595/823/595 569/822/595
f 589/815/596 586/804/596 595/823/596
f 586/804/597 568/819/597 595/823/597
f 587/814/598 594/820/598 568/819/598
f 587/814/599 584/801/599 594/820/599
f 584/801/600 572/831/600 594/820/600
f 592/813/601 593/817/601 571/828/601
f 592/813/602 583/812/602 593/817/602
f 583/812/603 566/808/603 593/817/603
f 590/810/604 591/816/604 570/825/604
f 590/810/605 582/809/605 591/816/605
f 582/809/606 565/805/606 591/816/606
f 588/807/607 589/845/607 569/840/607
f 588/807/608 580/806/608 589/845/608
f 580/806/609 564/846/609 589/845/609
f 586/804/610 587/814/610 568/819/610
f 586/804/611 576/803/611 587/814/611
f 576/803/612 563/789/612 587/814/612
f 584/801/613 585/818/613 572/831/613
f 584/801/614 577/791/614 585/818/614
f 577/791/615 567/811/615 585/818/615
f 578/800/616 583/812/616 567/811/616
f 578/800/617 581/799/617 583/812/617
f 581/799/618 566/808/618 583/812/618
f 581/797/619 582/809/619 566/808/619
f 581/797/620 579/796/620 582/809/620
f 579/796/621 565/805/621 582/809/621
f 579/794/622 580/806/622 565/805/622
f 579/794/623 574/793/623 580/806/623
f 574/793/624 564/846/624 580/806/624
f 577/791/625 578/847/625 567/811/625
f 577/791/626 575/790/626 578/847/626
f 575/790/627 562/848/627 578/847/627
f 574/788/628 576/803/628 564/802/628
f 574/788/629 575/787/629 576/803/629
f 575/787/630 563/789/630 576/803/630
f 604/786/631 616/788/631 617/787/631
f 605/789/632 619/791/632 617/790/632
f 604/792/633 621/794/633 616/793/633
f 604/795/634 623/797/634 621/796/634
f 604/798/635 620/800/635 623/799/635
f 605/789/636 626/801/636 619/791/636
f 606/802/637 628/804/637 618/803/637
f 607/805/638 630/807/638 622/806/638
f 608/808/639 632/810/639 624/809/639
f 609/811/640 634/813/640 625/812/640
f 605/789/641 629/814/641 626/801/641
f 606/802/642 631/815/642 628/804/642
f 607/805/643 633/816/643 630/807/643
f 608/808/644 635/817/644 632/810/644
f 609/811/645 627/818/645 634/813/645
f 610/819/646 641/821/646 636/820/646
f 611/822/647 643/824/647 637/823/647
f 612/825/648 644/827/648 638/826/648
f 613/828/649 645/830/649 639/829/649
f 614/831/650 642/833/650 640/832/650
f 642/833/651 615/835/651 645/834/651
f 642/833/652 645/834/652 640/832/652
f 640/832/653 645/834/653 613/828/653
f 645/830/654 615/837/654 644/836/654
f 645/830/655 644/836/655 639/829/655
f 639/829/656 644/836/656 612/825/656
f 644/827/657 615/839/657 643/838/657
f 644/827/658 643/838/658 638/826/658
f 638/826/659 643/838/659 611/840/659
f 643/824/660 615/842/660 641/841/660
f 643/824/661 641/841/661 637/823/661
f 637/823/662 641/841/662 610/819/662
f 641/821/663 615/844/663 642/843/663
f 641/821/664 642/843/664 636/820/664
f 636/820/665 642/843/665 614/831/665
f 627/818/666 614/831/666 640/832/666
f 627/818/667 640/832/667 634/813/667
f 634/813/668 640/832/668 613/828/668
f 635/817/669 613/828/669 639/829/669
f 635/817/670 639/829/670 632/810/670
f 632/810/671 639/829/671 612/825/671
f 633/816/672 612/825/672 638/826/672
f 633/816/673 638/826/673 630/807/673
f 630/807/674 638/826/674 611/840/674
f 631/815/675 611/822/675 637/823/675
f 631/815/676 637/823/676 628/804/676
f 628/804/677 637/823/677 610/819/677
f 629/814/678 610/819/678 636/820/678
f 629/814/679 636/820/679 626/801/679
f 626/801/680 636/820/680 614/831/680
f 634/813/681 613/828/681 635/817/681
f 634/813/682 635/817/682 625/812/682
f 625/812/683 635/817/683 608/808/683
f 632/810/684 612/825/684 633/816/684
f 632/810/685 633/816/685 624/809/685
f 624/809/686 633/816/686 607/805/686
f 630/807/687 611/840/687 631/845/687
f 630/807/688 631/845/688 622/806/688
f 622/806/689 631/845/689 606/846/689
f 628/804/690 610/819/690 629/814/690
f 628/804/691 629/814/691 618/803/691
f 618/803/692 629/814/692 605/789/692
f 626/801/693 614/831/693 627/818/693
f 626/801/694 627/818/694 619/791/694
f 619/791/695 627/818/695 609/811/695
f 620/800/696 609/811/696 625/812/696
f 620/800/697 625/812/697 623/799/697
f 623/799/698 625/812/698 608/808/698
f 623/797/699 608/808/699 624/809/699
f 623/797/700 624/809/700 621/796/700
f 621/796/701 624/809/701 607/805/701
f 621/794/702 607/805/702 622/806/702
f 621/794/703 622/806/703 616/793/703
f 616/793/704 622/806/704 606/846/704
f 619/791/705 609/811/705 620/847/705
f 619/791/706 620/847/706 617/790/706
f 617/790/707 620/847/707 604/848/707
f 616/788/708 606/802/708 618/803/708
f 616/788/709 618/803/709 617/787/709
f 617/787/710 618/803/710 605/789/710
