# Blender 5.1.1
# www.blender.org
o Куб.001
v 0.533301 0.908285 0.644520
v 0.532479 2.425320 0.477277
v 0.602162 1.038532 -0.294427
v 0.619472 2.362354 -0.211070
v -0.000184 1.001536 -0.319106
v -0.000000 2.480862 -0.357245
v 0.708447 1.657360 0.000759
v 0.609946 0.883527 0.113851
v 0.609568 2.443656 0.128714
v 0.649369 1.612160 0.514119
v -0.007037 0.937621 0.682573
v -0.000000 2.544096 0.544675
v 0.718734 1.651142 0.110217
v -0.001415 0.898041 0.187907
v -0.000000 2.614716 0.130571
v 0.820554 0.606693 -1.279847
v 0.537649 2.269694 -0.495325
v -0.000169 1.085344 -0.576601
v 0.000000 2.280686 -0.622767
v 0.464303 1.389169 -0.840855
v 0.464300 2.114506 -0.748282
v 0.090363 0.840075 3.155883
v -0.000117 1.202812 -0.797233
v -0.000000 2.103516 -0.887623
v 0.561878 1.742297 -0.876110
v -0.000021 1.590513 -0.915378
v 0.084677 1.233022 3.233452
v 0.172094 1.622009 3.044350
v 0.445244 1.030950 1.306402
v 0.499997 2.376755 0.889565
v 0.175772 0.863756 2.955197
v 0.610007 1.621012 0.884905
v -0.012252 0.969803 1.131804
v -0.000076 2.487082 0.979387
v 0.059274 0.851529 3.387180
v 0.033850 1.008903 3.454583
v 0.047665 0.805875 3.275975
v 0.570340 2.528199 1.239684
v 0.537474 0.471252 1.695352
v -0.008888 0.929983 1.478868
v 0.005628 2.646674 1.345358
v 0.118300 1.442586 3.228253
v 0.136209 0.839645 3.069602
v 0.177045 1.800581 2.822806
v 0.583003 2.528340 1.435916
v 0.443351 0.467605 1.755963
v -0.006088 0.972565 1.622806
v 0.002613 2.653132 1.544478
v 0.190837 0.895595 2.838898
v 0.177045 1.913931 2.650546
v 0.177045 0.931990 2.696755
v 0.540207 2.469419 1.719261
v 0.659161 1.838866 1.778579
v 0.539828 1.153824 2.056566
v -0.002266 1.069727 1.786712
v 0.000057 2.587683 1.817999
v 0.181751 2.061838 2.401225
v 0.181751 1.081045 2.335079
v 0.453382 2.247748 2.002106
v 0.553143 1.621317 1.936906
v 0.453828 1.364609 1.959339
v -0.000865 1.153024 1.921504
v -0.000000 2.337351 2.103084
v 0.227127 2.303801 2.070375
v 0.227298 1.250967 1.942858
v 0.271600 2.554620 1.765669
v 0.350853 1.098542 1.809861
v 0.364925 2.004270 2.356515
v 0.444928 1.433251 2.324909
v 0.364925 1.132564 2.275605
v 0.000000 1.046736 2.348204
v 0.000000 2.091111 2.403855
v 0.293612 2.618709 1.479477
v 0.294242 1.075552 1.707905
v 0.287349 2.615790 1.276952
v 0.355746 1.864871 2.607846
v 0.433703 1.379044 2.611893
v 0.355746 0.978720 2.644329
v 0.000000 0.904866 2.684517
v 0.000000 1.940284 2.638276
v 0.288347 1.087419 1.702662
v 0.250990 2.456718 0.911335
v 0.310526 1.049849 1.475420
v 0.372539 1.618473 2.783825
v 0.455708 1.409442 2.756411
v 0.382651 0.945153 2.793292
v 0.000000 0.869064 2.821924
v 0.000000 1.828656 2.803003
v 0.248974 1.651713 -0.902412
v 0.203268 2.100851 -0.850994
v 0.324483 1.321921 -0.800623
v 0.241144 1.414779 3.176012
v 0.339854 1.172758 3.078249
v 0.276080 0.876157 3.031145
v 0.000000 0.829055 3.034528
v 0.000000 1.465835 3.198872
v 0.249692 2.255093 -0.659062
v 0.282736 1.134798 -0.581701
v 0.307155 2.556692 0.094143
v 0.069124 1.009464 3.432390
v 0.125993 0.866865 3.349433
v 0.103346 0.831853 3.272871
v 0.000000 0.795707 3.284873
v 0.064203 0.957598 3.438132
v 0.000000 0.841559 3.382638
v 0.465527 1.452869 2.843760
v 0.000000 0.845241 2.930725
v 0.353261 0.907008 2.911762
v 0.307330 0.872790 0.091765
v 0.000000 1.652547 3.020177
v 0.402860 1.585719 2.867107
v 0.267639 2.510685 0.480969
v 0.000000 1.235631 3.232568
v 0.266184 0.890105 0.643640
v 0.301735 2.446889 -0.391819
v 0.356836 0.997510 -0.358417
v 0.186642 0.870179 3.119170
v 0.000000 0.835872 3.114823
v 0.210413 1.019806 3.213853
v 0.175550 1.199352 3.210802
v 0.070240 0.822582 3.210675
v 0.067630 1.084809 3.357166
v 0.139993 0.841266 3.203068
v 0.161300 0.944184 3.281040
v 0.000000 1.093143 3.345798
v 0.000000 0.815985 3.195911
v 0.134901 1.073821 3.326339
v 0.611466 2.243230 0.988142
v 0.708082 1.603134 0.952734
v 0.642154 1.100165 1.331484
v 0.671912 2.394007 1.229417
v 0.785993 1.598772 1.465073
v 0.800685 1.126816 1.781735
v 0.636671 2.421493 1.417315
v 0.799874 1.703933 1.608383
v 0.811922 1.151792 1.959902
v 0.641367 2.279613 1.583737
v 0.752489 1.826343 1.752888
v 0.744690 1.198171 2.076017
v 0.423248 0.670998 1.633610
v 0.521195 0.688584 1.554865
v 0.740082 0.742911 2.088749
v 0.590036 0.723222 2.135412
v 0.789772 0.713244 1.972362
v 0.403345 0.660833 1.869356
v 0.781537 0.701741 1.841050
v 0.665279 0.707047 1.548791
v 0.407910 0.667773 1.998530
v 0.451648 0.700609 2.068688
v 0.751132 0.500562 2.065377
v 0.602990 0.499731 2.109708
v 0.539464 0.015934 1.657018
v 0.802005 0.485767 1.975046
v 0.421267 0.467233 1.890771
v 0.424301 0.014248 1.715099
v 0.790760 0.477104 1.873575
v 0.675076 0.476300 1.699170
v 0.422415 0.478372 2.006467
v 0.465519 0.493433 2.077528
v 0.440730 0.275490 1.714676
v 0.544691 0.275699 1.659958
v 0.780356 0.295420 1.998044
v 0.618516 0.295504 2.039242
v 0.800342 0.283447 1.914366
v 0.422353 0.275206 1.837564
v 0.790265 0.276552 1.821909
v 0.697567 0.276796 1.663647
v 0.425179 0.283395 1.943864
v 0.469086 0.294414 2.009674
v 0.827248 0.008116 2.014769
v 0.620775 0.003383 2.055792
v 0.658851 0.008420 1.932550
v 0.823758 0.009843 1.927149
v 0.404016 0.009770 1.845475
v 0.648106 0.009802 1.826498
v 0.814031 0.009710 1.830159
v 0.708911 0.016123 1.661240
v 0.409435 0.009597 1.956341
v 0.427791 0.007796 2.025096
v 0.430063 0.149824 1.716653
v 0.415714 0.153539 1.952677
v 0.410453 0.148558 1.843538
v 0.805413 0.148900 1.828338
v 0.814830 0.154016 1.924139
v 0.798410 0.215992 2.009549
v 0.623125 0.210408 2.055282
v 0.704967 0.150584 1.664271
v 0.541301 0.149986 1.660269
v 0.459774 0.214661 2.019705
v 0.619583 0.111128 2.189936
v 0.620292 -0.007397 2.191375
v 0.796548 -0.002714 2.149769
v 0.457785 -0.003595 2.160126
v 0.789821 0.116523 2.148600
v 0.462619 0.115878 2.158298
v 0.762347 2.216501 -0.262911
v 0.786893 1.666553 -0.100530
v 0.762353 1.088889 -0.358574
v 0.752301 2.152587 -0.502792
v 0.858108 1.723057 -0.583532
v 0.810126 1.222537 -0.581469
v 0.742126 2.047436 -0.708533
v 0.837787 1.748520 -0.799746
v 0.742129 1.380804 -0.803843
v 0.603356 0.518795 -1.491913
v 0.522565 1.119146 -0.994446
v 0.633111 0.857962 -0.455014
v 0.436417 0.869651 -0.514751
v 0.377013 0.979467 -0.745154
v 0.410464 1.095062 -0.954153
v 0.799847 0.995925 -0.740282
v 0.745321 1.101357 -0.962458
v 0.761547 0.892325 -0.523115
v 0.538870 0.966665 -1.012497
v 0.639698 0.482586 -0.861907
v 0.460508 0.542824 -0.885038
v 0.406329 0.774967 -0.919077
v 0.436759 0.936844 -0.992845
v 0.791502 0.762335 -0.906749
v 0.741789 0.940277 -0.989872
v 0.756675 0.548714 -0.870008
v 0.546426 0.745939 -1.550555
v 0.665990 0.305173 -1.434816
v 0.411084 0.352488 -1.458412
v 0.398906 0.539955 -1.506417
v 0.432781 0.712631 -1.546006
v 0.827596 0.530640 -1.493199
v 0.772274 0.715574 -1.541474
v 0.832418 0.358474 -1.446419
v 0.823437 0.437087 -1.222991
v 0.391864 0.615306 -1.293561
v 0.425742 0.785532 -1.342358
v 0.402103 0.430502 -1.234831
v 0.657008 0.384567 -1.207780
v 0.539387 0.818452 -1.348778
v 0.765235 0.788657 -1.338065
v 0.781839 0.269111 -1.301332
v 0.788842 0.225244 -1.409217
v 0.658639 0.171911 -1.397470
v 0.459211 0.219325 -1.421175
v 0.452208 0.262928 -1.312861
v 0.651636 0.216342 -1.287009
v 0.782607 0.692875 -1.078966
v 0.423380 0.700280 -1.088434
v 0.641006 0.471639 -1.016212
v 0.750110 0.523631 -1.031677
v 0.451756 0.854303 -1.124297
v 0.473892 0.517756 -1.040432
v 0.546985 0.883080 -1.130149
v 0.736238 0.856821 -1.120511
v -0.000000 1.964712 -0.963352
v -0.000000 1.715167 -1.003691
v 0.092420 1.733769 -0.967794
v 0.076591 1.955334 -0.937061
v 0.127605 1.725471 -0.919678
v 0.088882 2.048142 -0.898695
v -0.000000 1.692332 -0.956154
v -0.000000 2.059583 -0.930772
v 0.353936 1.746772 2.706125
v 0.462452 1.330639 2.718792
v 0.346085 1.577567 2.996033
v 0.469988 1.305505 2.922568
v 0.431634 1.658131 2.822878
v 0.509515 1.642284 2.839809
v 0.472450 1.665517 2.839678
v 0.537234 1.606236 2.830482
v 0.536419 1.520583 2.801631
v 0.550043 1.564133 2.817650
v 0.514399 1.604746 2.875974
v 0.455471 1.615577 2.878799
v 0.486059 1.620376 2.881021
v 0.527030 1.530261 2.856164
v 0.527210 1.589999 2.870954
v 0.537319 1.560974 2.862731
v 0.372831 1.595486 2.869164
v 0.460350 1.409607 2.834311
v 0.490673 1.644212 2.886568
v 0.529939 1.622375 2.880091
v 0.447174 1.637398 2.883848
v 0.548145 1.601200 2.873599
v 0.562047 1.561085 2.862829
v 0.548125 1.519491 2.853762
v 0.383871 1.570790 2.864449
v 0.450291 1.431103 2.838252
v 0.413090 1.569714 2.852926
v 0.458299 1.474111 2.836075
v 0.473111 1.594792 2.862973
v 0.493557 1.583587 2.859352
v 0.451044 1.591334 2.861361
v 0.502798 1.573003 2.855744
v 0.510091 1.552145 2.849833
v 0.502668 1.530129 2.845135
v 0.399391 1.559227 2.851053
v 0.447307 1.458372 2.832027
v 0.058900 1.020573 3.422071
v 0.055763 0.933161 3.433363
v 0.099802 1.022930 3.394003
v 0.095412 0.935265 3.406168
v 0.000000 0.933366 3.436407
v 0.000000 1.018203 3.425558
v 0.030579 0.957162 3.459644
v 0.000000 1.007050 3.453520
v 0.000000 0.956931 3.459033
v -0.548500 1.193246 0.599253
v -0.532734 2.435231 0.473010
v -0.602863 1.210348 0.105854
v -0.619417 2.370888 -0.234661
v -0.708659 1.789493 0.092607
v -0.616601 1.171743 0.324284
v -0.609538 2.456855 0.116519
v -0.654366 1.759181 0.514602
v -0.719181 1.799617 0.185701
v -0.821842 0.224523 -0.136042
v -0.537560 2.225524 -0.537687
v -0.464933 1.181123 -0.570731
v -0.464318 2.025411 -0.746391
v -0.090362 0.840075 3.155883
v -0.562159 1.593699 -0.782145
v -0.084677 1.233022 3.233452
v -0.172094 1.622016 3.044350
v -0.484419 1.248437 0.954391
v -0.502503 2.385776 0.889789
v -0.175772 0.863756 2.955197
v -0.622817 1.718116 0.848527
v -0.059274 0.851529 3.387180
v -0.033850 1.008903 3.454583
v -0.047665 0.805875 3.275975
v -0.566536 2.559416 1.239688
v -0.593793 0.704238 0.788417
v -0.118300 1.442586 3.228253
v -0.136209 0.839645 3.069602
v -0.177045 1.800582 2.822806
v -0.578867 2.562850 1.435920
v -0.497554 0.672883 0.835719
v -0.190837 0.895595 2.838898
v -0.177045 1.913932 2.650546
v -0.177045 0.931990 2.696755
v -0.540927 2.494132 1.719265
v -0.701058 1.752190 1.700767
v -0.578440 0.944629 1.651399
v -0.181751 2.061838 2.401225
v -0.181751 1.081044 2.335079
v -0.459423 2.242491 2.017361
v -0.567091 1.543799 1.899220
v -0.465887 1.271266 1.880602
v -0.227768 2.304034 2.070375
v -0.233279 1.201291 1.896709
v -0.270478 2.556454 1.765668
v -0.370787 1.008003 1.606039
v -0.364925 2.004270 2.356515
v -0.446414 1.418631 2.322657
v -0.364925 1.132564 2.275607
v -0.284504 2.627629 1.479475
v -0.315811 1.014673 1.490881
v -0.277436 2.625950 1.276950
v -0.355746 1.864871 2.607846
v -0.433703 1.379047 2.611898
v -0.355746 0.978722 2.644337
v -0.324340 1.062976 1.357330
v -0.251467 2.457853 0.911336
v -0.350600 1.149607 1.112908
v -0.372539 1.618472 2.783825
v -0.455708 1.409458 2.756423
v -0.382651 0.945156 2.793300
v -0.249069 1.596573 -0.875576
v -0.203268 2.083791 -0.852118
v -0.325049 1.161866 -0.546778
v -0.241143 1.414793 3.176017
v -0.339854 1.172758 3.078249
v -0.276080 0.876157 3.031145
v -0.249677 2.239803 -0.666895
v -0.283357 1.111816 -0.295480
v -0.307151 2.557892 0.092596
v -0.069124 1.009464 3.432390
v -0.125993 0.866865 3.349433
v -0.103346 0.831853 3.272871
v -0.064203 0.957598 3.438132
v -0.465527 1.452906 2.843777
v -0.353261 0.907008 2.911762
v -0.311523 1.040863 0.256849
v -0.402860 1.585791 2.867115
v -0.267621 2.510781 0.480969
v -0.280400 1.064381 0.600046
v -0.301713 2.444869 -0.401712
v -0.357521 1.096802 0.008311
v -0.186642 0.870179 3.119170
v -0.210413 1.019806 3.213853
v -0.175549 1.199352 3.210802
v -0.070240 0.822582 3.210675
v -0.067630 1.084809 3.357166
v -0.139993 0.841266 3.203068
v -0.161300 0.944184 3.281040
v -0.134901 1.073821 3.326339
v -0.623696 2.285141 0.990705
v -0.724285 1.705085 0.894670
v -0.684634 1.354581 0.982177
v -0.679343 2.446913 1.239288
v -0.830662 1.689240 1.301109
v -0.850181 1.144312 1.309134
v -0.641662 2.463120 1.420518
v -0.845973 1.717731 1.472221
v -0.862455 1.040940 1.456130
v -0.660579 2.320596 1.604817
v -0.797829 1.754437 1.666804
v -0.791954 0.985491 1.605476
v -0.479051 0.910541 0.887621
v -0.576183 0.976469 0.842672
v -0.795339 0.659038 1.264990
v -0.644153 0.608877 1.298713
v -0.845148 0.716104 1.159071
v -0.459097 0.747372 1.049517
v -0.836616 0.796897 1.055206
v -0.720005 0.998187 0.846492
v -0.462046 0.657069 1.163910
v -0.503700 0.622924 1.262504
v -0.795810 0.501509 1.106518
v -0.646755 0.483547 1.140858
v -0.568783 0.333227 0.498936
v -0.848476 0.539445 1.025529
v -0.470763 0.595835 0.945381
v -0.451602 0.310563 0.548018
v -0.840130 0.591129 0.938273
v -0.731150 0.696998 0.794658
v -0.468921 0.536368 1.044864
v -0.510564 0.503814 1.110573
v -0.484458 0.535565 0.693519
v -0.590371 0.558230 0.648681
v -0.813255 0.373703 0.939753
v -0.650513 0.365477 0.972961
v -0.835351 0.406599 0.864729
v -0.461223 0.469355 0.795268
v -0.828646 0.451772 0.784605
v -0.742756 0.546005 0.652890
v -0.460777 0.418179 0.886939
v -0.503038 0.388813 0.946891
v -0.842114 0.129341 0.810676
v -0.634725 0.124657 0.848011
v -0.677027 0.179892 0.738863
v -0.841718 0.170873 0.732501
v -0.426094 0.241513 0.658621
v -0.670226 0.232952 0.642459
v -0.835580 0.219121 0.645673
v -0.737626 0.318833 0.502826
v -0.427451 0.187083 0.757493
v -0.443315 0.153038 0.818851
v -0.466018 0.429340 0.623839
v -0.442580 0.308721 0.824292
v -0.441276 0.361582 0.729676
v -0.835805 0.341090 0.718006
v -0.841721 0.294158 0.800962
v -0.825843 0.303650 0.906064
v -0.649685 0.298143 0.940553
v -0.742382 0.438540 0.581086
v -0.579269 0.452028 0.577028
v -0.487655 0.322247 0.913593
v -0.636020 0.160347 1.014951
v -0.629126 0.055969 0.965271
v -0.806379 0.062881 0.927961
v -0.468109 0.082103 0.936482
v -0.807212 0.166976 0.979309
v -0.480398 0.184395 0.986933
v -0.762247 2.235007 -0.306025
v -0.787151 1.782516 0.009512
v -0.763041 1.219336 0.026315
v -0.752276 2.098884 -0.517806
v -0.858427 1.659477 -0.460275
v -0.810818 1.190130 -0.229874
v -0.742210 1.932868 -0.686939
v -0.838130 1.599191 -0.678496
v -0.742807 1.182726 -0.508074
v -0.604760 -0.004420 -0.119448
v -0.523507 0.836713 -0.504001
v -0.633959 1.005141 0.090733
v -0.437288 0.969715 0.026405
v -0.377921 0.902329 -0.226818
v -0.411403 0.845509 -0.458501
v -0.800740 0.918094 -0.216547
v -0.746256 0.847482 -0.464148
v -0.762402 0.988000 0.018846
v -0.539960 0.653598 -0.420872
v -0.640805 0.554197 0.129936
v -0.461618 0.557486 0.063183
v -0.407426 0.617827 -0.172555
v -0.437852 0.648244 -0.380645
v -0.792594 0.624763 -0.155031
v -0.742879 0.653580 -0.382021
v -0.757777 0.572781 0.063702
v -0.547848 0.006468 -0.356328
v -0.667365 -0.000409 0.101711
v -0.412475 -0.015834 0.048663
v -0.400317 -0.012509 -0.146247
v -0.434202 0.001262 -0.323289
v -0.829000 -0.002301 -0.133586
v -0.773693 0.006467 -0.324682
v -0.833802 -0.001860 0.046266
v -0.824709 0.223368 0.040386
v -0.393159 0.214167 -0.149427
v -0.427047 0.225067 -0.325710
v -0.403381 0.210418 0.042155
v -0.658275 0.221433 0.094362
v -0.540693 0.230373 -0.358628
v -0.766538 0.230763 -0.326816
v -0.783147 0.114947 0.170048
v -0.790206 0.002914 0.185069
v -0.659996 0.003741 0.240044
v -0.460583 -0.011089 0.187631
v -0.453525 0.099882 0.173346
v -0.652934 0.118410 0.224093
v -0.783787 0.442945 -0.145828
v -0.424566 0.435205 -0.157481
v -0.642177 0.423023 0.080873
v -0.751282 0.428069 0.027641
v -0.452949 0.455018 -0.323345
v -0.475070 0.416943 0.028983
v -0.548179 0.460582 -0.354401
v -0.737429 0.459706 -0.324464
v -0.092427 1.728832 -0.965402
v -0.076591 1.955334 -0.937061
v -0.127630 1.706276 -0.912989
v -0.088882 2.048142 -0.898695
v -0.353936 1.746773 2.706125
v -0.462452 1.330649 2.718802
v -0.346085 1.577586 2.996035
v -0.469988 1.305516 2.922576
v -0.431634 1.658227 2.822871
v -0.509515 1.642450 2.839804
v -0.472450 1.665674 2.839664
v -0.537234 1.606418 2.830493
v -0.536419 1.520686 2.801663
v -0.550043 1.564270 2.817675
v -0.514399 1.604886 2.875983
v -0.455471 1.615707 2.878804
v -0.486059 1.620517 2.881025
v -0.527030 1.530374 2.856192
v -0.527210 1.590138 2.870968
v -0.537319 1.561105 2.862753
v -0.372831 1.595513 2.869166
v -0.460350 1.409628 2.834323
v -0.490673 1.644369 2.886563
v -0.529939 1.622534 2.880095
v -0.447174 1.637525 2.883847
v -0.548145 1.601358 2.873610
v -0.562047 1.561225 2.862854
v -0.548125 1.519607 2.853795
v -0.383871 1.570866 2.864460
v -0.450291 1.431125 2.838264
v -0.413090 1.569796 2.852938
v -0.458299 1.474141 2.836087
v -0.473111 1.594912 2.862984
v -0.493557 1.583688 2.859364
v -0.451044 1.591463 2.861373
v -0.502798 1.573115 2.855760
v -0.510091 1.552268 2.849858
v -0.502668 1.530227 2.845161
v -0.399391 1.559300 2.851066
v -0.447307 1.458400 2.832041
v -0.058900 1.020573 3.422071
v -0.055763 0.933161 3.433363
v -0.099802 1.022930 3.394003
v -0.095412 0.935265 3.406168
v -0.030579 0.957162 3.459644
v 0.291561 1.204117 3.109721
v 0.306648 1.272957 3.121519
v 0.269728 1.204246 3.151649
v 0.232186 1.164057 3.151556
v 0.245906 1.207932 3.121369
v 0.291926 1.275235 3.102805
v 0.256597 1.275444 3.170647
v 0.210577 1.208141 3.189210
v 0.195855 1.210419 3.170497
v 0.232775 1.279130 3.140367
v 0.270316 1.319318 3.140460
v 0.210942 1.279259 3.182295
v 0.285805 1.197596 3.127994
v 0.307506 1.237983 3.110285
v 0.294673 1.238059 3.134929
v 0.307720 1.279786 3.106220
v 0.298853 1.239322 3.099285
v 0.263739 1.173974 3.127940
v 0.250905 1.174050 3.152585
v 0.271803 1.199763 3.110197
v 0.236903 1.176217 3.134787
v 0.272017 1.241565 3.106132
v 0.295019 1.305697 3.128352
v 0.286365 1.307036 3.117353
v 0.265254 1.239521 3.163805
v 0.286955 1.279909 3.146096
v 0.216138 1.176339 3.174663
v 0.238204 1.199961 3.174718
v 0.215548 1.203467 3.145920
v 0.207484 1.177678 3.163664
v 0.264299 1.283415 3.117298
v 0.237249 1.243855 3.128210
v 0.265600 1.307159 3.157229
v 0.230486 1.241811 3.185884
v 0.194783 1.203590 3.185796
v 0.207830 1.245316 3.157087
v 0.251598 1.309326 3.139431
v 0.230700 1.283613 3.181819
v 0.238764 1.309401 3.164075
v 0.203650 1.244053 3.192730
v 0.194997 1.245392 3.181731
v 0.216698 1.285779 3.164021
v -0.291561 1.204116 3.109721
v -0.306648 1.272957 3.121519
v -0.269728 1.204245 3.151649
v -0.232186 1.164057 3.151557
v -0.245906 1.207932 3.121369
v -0.291925 1.275235 3.102806
v -0.256597 1.275444 3.170647
v -0.210577 1.208140 3.189211
v -0.195854 1.210418 3.170497
v -0.232775 1.279130 3.140367
v -0.270316 1.319318 3.140460
v -0.210942 1.279259 3.182295
v -0.285805 1.197596 3.127995
v -0.307506 1.237983 3.110285
v -0.294673 1.238059 3.134929
v -0.307720 1.279786 3.106220
v -0.298852 1.239322 3.099286
v -0.263739 1.173974 3.127941
v -0.250905 1.174050 3.152585
v -0.271803 1.199763 3.110197
v -0.236903 1.176216 3.134787
v -0.272017 1.241565 3.106132
v -0.295019 1.305697 3.128353
v -0.286365 1.307036 3.117353
v -0.265253 1.239521 3.163806
v -0.286955 1.279909 3.146096
v -0.216137 1.176339 3.174663
v -0.238204 1.199961 3.174718
v -0.215548 1.203467 3.145920
v -0.207484 1.177678 3.163664
v -0.264299 1.283415 3.117299
v -0.237249 1.243854 3.128210
v -0.265599 1.307159 3.157229
v -0.230486 1.241810 3.185884
v -0.194782 1.203590 3.185796
v -0.207830 1.245316 3.157087
v -0.251597 1.309326 3.139431
v -0.230700 1.283613 3.181820
v -0.238764 1.309401 3.164076
v -0.203650 1.244053 3.192731
v -0.194996 1.245392 3.181731
v -0.216698 1.285779 3.164022
vn -0.8626 -0.5054 -0.0214
vn 0.3723 0.7849 -0.4952
vn 0.9876 -0.1370 -0.0771
vn 0.9915 0.1283 -0.0223
vn 0.9700 0.1388 0.1994
vn 0.9792 -0.1359 0.1509
vn 0.9783 -0.1526 0.1401
vn 0.0767 -0.9793 0.1874
vn 0.1364 -0.9438 -0.3009
vn 0.0489 -0.9978 0.0441
vn 0.1174 0.9632 -0.2417
vn 0.1808 0.9719 0.1504
vn 0.2507 0.7618 -0.5973
vn 0.1993 -0.0956 -0.9753
vn 0.0350 -0.9059 -0.4220
vn 0.6549 0.2697 0.7059
vn 0.1715 0.2385 -0.9559
vn 0.0388 -0.1978 -0.9795
vn 0.2292 0.3610 -0.9039
vn 0.2177 -0.8118 -0.5418
vn 0.8413 0.5405 0.0106
vn 0.9970 -0.0524 -0.0566
vn 0.1531 0.9798 0.1287
vn 0.9847 0.1444 0.0977
vn 0.3333 -0.6017 -0.7258
vn 0.1077 0.9939 -0.0241
vn 0.0031 0.9167 -0.3995
vn -0.6329 -0.4992 -0.5917
vn 0.6692 0.1201 -0.7334
vn 0.1629 0.9596 0.2292
vn -0.9710 -0.2293 0.0672
vn 0.9331 -0.1111 -0.3421
vn 0.0107 0.8049 -0.5933
vn 0.2877 0.2298 0.9297
vn -0.4103 -0.3208 0.8537
vn -0.0221 -0.9886 0.1488
vn -0.0905 -0.9677 -0.2355
vn -0.1127 -0.9924 0.0489
vn 0.0571 0.1056 0.9928
vn 0.7735 0.4785 -0.4156
vn 0.3618 0.9087 -0.2083
vn 0.9477 -0.3088 0.0811
vn 0.2991 -0.8532 -0.4273
vn 0.3208 0.9378 0.1329
vn 0.2081 0.7376 0.6424
vn 0.0507 0.8059 -0.5899
vn 0.8456 0.1447 0.5137
vn 0.4758 -0.5522 0.6846
vn 0.8067 0.1355 -0.5753
vn 0.1044 -0.2814 -0.9539
vn 0.9854 0.1449 0.0895
vn 0.9730 0.1127 -0.2013
vn 0.1716 0.7735 0.6102
vn 0.3514 -0.9362 0.0078
vn 0.9414 0.1157 0.3167
vn 0.3095 0.9416 0.1326
vn 0.2941 0.9555 -0.0213
vn 0.9785 0.2030 0.0362
vn 0.2309 0.8796 -0.4160
vn 0.0773 0.8292 0.5536
vn 0.1321 -0.9165 -0.3776
vn 0.9750 -0.2188 -0.0391
vn 0.3260 0.9157 0.2349
vn 0.1169 0.8445 0.5227
vn -0.0007 0.7037 0.7105
vn 0.3167 -0.9325 0.1735
vn 0.8391 -0.2578 0.4791
vn 0.2122 -0.9696 -0.1220
vn 0.1051 -0.7222 0.6837
vn 0.1799 -0.9504 -0.2536
vn 0.9346 -0.2251 -0.2754
vn 0.1205 -0.9146 0.3859
vn 0.8717 -0.4617 0.1641
vn 0.3324 -0.9424 -0.0365
vn 0.2991 -0.9090 -0.2903
vn 0.3445 0.6925 0.6339
vn 0.3627 0.7255 0.5848
vn 0.7618 0.1177 0.6371
vn 0.4554 0.6750 0.5805
vn 0.1553 -0.9122 -0.3792
vn 0.1859 -0.9038 0.3854
vn 0.8837 0.0153 0.4678
vn 0.3522 0.8075 0.4732
vn 0.3844 0.5829 0.7159
vn 0.1217 -0.9798 -0.1589
vn 0.4144 0.6149 0.6710
vn 0.1593 -0.9539 -0.2542
vn 0.5346 0.0457 0.8439
vn 0.1479 -0.9664 -0.2101
vn 0.3937 -0.8685 0.3013
vn -0.3030 -0.3562 0.8839
vn -0.0092 0.7209 0.6930
vn 0.1789 -0.9516 -0.2498
vn 0.9702 -0.2417 0.0183
vn 0.0310 -0.4986 0.8663
vn 0.0512 0.7764 0.6282
vn 0.6302 0.0253 0.7760
vn 0.1441 -0.9628 -0.2284
vn -0.1346 0.0975 0.9861
vn 0.4460 0.7349 0.5109
vn 0.3335 0.0109 0.9427
vn 0.0463 -0.9974 0.0561
vn 0.3308 -0.9158 0.2276
vn 0.7809 -0.3231 0.5347
vn 0.4028 0.5527 0.7296
vn 0.1485 -0.9589 -0.2418
vn 0.8472 0.0965 0.5224
vn -0.0169 0.6323 0.7745
vn 0.2233 -0.9517 -0.2109
vn 0.8796 -0.3653 0.3047
vn 0.9500 -0.2129 -0.2284
vn 0.9840 0.1781 -0.0079
vn 0.9729 0.1148 -0.2009
vn 0.9519 0.2684 0.1475
vn 0.9974 -0.0196 -0.0700
vn 0.9380 0.1745 0.2995
vn 0.7695 0.2839 0.5720
vn 0.9065 0.3516 0.2338
vn -0.7022 0.1552 0.6949
vn -0.0256 0.4181 0.9080
vn 0.0386 -0.5425 -0.8392
vn 0.9011 0.0256 0.4329
vn -0.9840 -0.1360 -0.1154
vn -0.9962 -0.0821 0.0293
vn 0.9954 0.0405 -0.0868
vn 0.2962 -0.0850 0.9514
vn 0.8915 -0.0139 0.4529
vn -0.8730 0.0940 0.4785
vn 0.1779 -0.5093 -0.8420
vn -0.9524 -0.2971 -0.0690
vn 0.9214 -0.0584 0.3842
vn -0.9870 0.0420 -0.1549
vn -0.9997 -0.0157 0.0193
vn 0.9935 0.0257 -0.1113
vn 0.2557 -0.2832 0.9243
vn 0.8364 0.1602 -0.5242
vn -0.8454 -0.0380 0.5328
vn -0.3316 -0.0575 0.9417
vn -0.4734 -0.4958 -0.7281
vn 0.8861 -0.1404 -0.4418
vn 0.0246 0.0236 -0.9994
vn 0.9935 0.1074 0.0368
vn -0.9874 0.0437 -0.1521
vn -0.9978 0.0458 0.0474
vn 0.9932 0.0598 -0.1002
vn 0.9767 0.1098 0.1842
vn 0.0217 0.1782 -0.9838
vn -0.8102 -0.1959 0.5524
vn -0.1908 -0.3266 0.9257
vn -0.4988 0.1625 -0.8513
vn -0.0026 -0.9994 -0.0346
vn 0.0128 -0.9995 -0.0300
vn -0.0029 -1.0000 -0.0070
vn 0.0012 -0.9993 -0.0378
vn -0.0120 -0.9992 -0.0368
vn 0.0040 -1.0000 -0.0066
vn -0.9205 0.1101 0.3750
vn -0.9799 0.1142 0.1636
vn -0.4512 0.0286 -0.8920
vn 0.8506 0.0414 -0.5241
vn 0.8563 0.0618 -0.5127
vn -0.4587 0.0176 -0.8884
vn -0.1998 0.1586 0.9669
vn -0.8567 0.1218 0.5012
vn 0.2421 0.1926 0.9510
vn 0.9882 0.1070 -0.1092
vn -0.9959 0.0848 0.0322
vn -0.9853 0.0834 -0.1493
vn 0.9765 0.1662 0.1376
vn 0.0243 -0.0033 -0.9997
vn 0.2323 0.0179 0.9725
vn -0.1927 0.0168 0.9811
vn 0.1224 0.8005 0.5867
vn 0.0075 -0.9969 -0.0788
vn -0.0999 0.8057 0.5838
vn -0.0090 -0.9967 -0.0807
vn 0.9870 0.1382 0.0821
vn 0.9533 -0.1571 -0.2578
vn 0.9853 -0.0993 0.1393
vn 0.9485 0.2915 -0.1236
vn 0.5882 -0.3915 0.7076
vn 0.5242 0.7864 -0.3268
vn 0.9844 -0.1225 0.1265
vn 0.3303 0.7938 -0.5107
vn -0.9664 -0.2247 0.1245
vn -0.2978 0.1318 -0.9455
vn -0.2781 -0.7182 0.6379
vn 0.9841 -0.1301 0.1209
vn 0.1438 0.5010 -0.8534
vn -0.4060 0.3923 -0.8254
vn -0.9344 -0.1919 -0.3000
vn -0.1377 -0.7334 0.6657
vn -0.2786 0.9009 -0.3328
vn -0.9453 -0.3184 0.0712
vn 0.9992 0.0304 0.0259
vn -0.9810 0.1697 -0.0936
vn 0.4547 -0.6440 0.6153
vn 0.1409 0.1477 -0.9789
vn 0.9653 0.0912 -0.2449
vn -0.9725 -0.0129 -0.2324
vn 0.0112 -0.2582 -0.9660
vn 0.0437 -0.2456 -0.9684
vn 0.0394 -0.2363 -0.9709
vn 0.0065 -0.2495 -0.9684
vn -0.9978 -0.0641 -0.0141
vn 0.9454 -0.2881 0.1521
vn 0.1388 0.9335 -0.3306
vn 0.9604 0.2709 -0.0645
vn 0.9549 0.2935 0.0445
vn 0.1420 0.9489 -0.2819
vn 0.3598 -0.8153 0.4536
vn -0.9568 -0.0767 0.2805
vn -0.9774 0.2031 0.0591
vn 0.9620 -0.0002 0.2730
vn -0.2419 -0.8707 0.4282
vn -0.2876 0.9219 -0.2595
vn -0.2558 -0.9024 0.3468
vn 0.3822 -0.8479 0.3674
vn -0.1913 -0.4371 0.8788
vn 0.0455 -0.2628 -0.9638
vn 0.2421 -0.4393 0.8651
vn 0.0226 -0.2733 -0.9617
vn -0.3024 0.7798 -0.5481
vn -0.3042 -0.9478 0.0958
vn 0.9850 -0.1725 0.0032
vn -0.9779 0.1235 -0.1687
vn -0.9688 -0.2475 -0.0148
vn 0.4686 -0.8785 0.0924
vn 0.1554 0.8204 -0.5503
vn 0.9644 0.2147 -0.1544
vn 0.3340 0.1516 -0.9303
vn 0.3325 -0.8540 -0.4002
vn 0.3507 0.3110 -0.8834
vn 0.2195 0.5176 -0.8270
vn 0.1760 -0.1972 -0.9644
vn 0.2737 0.1195 -0.9544
vn 0.9559 0.2925 0.0272
vn 0.9356 0.3062 0.1757
vn 0.9962 0.0792 -0.0360
vn 0.8972 0.3506 0.2685
vn -0.5815 0.7601 0.2901
vn 0.7632 0.6390 -0.0956
vn 0.8055 -0.5832 -0.1054
vn 0.5114 0.8421 0.1714
vn -0.2441 0.8753 0.4175
vn 0.9123 0.3550 -0.2043
vn 0.9422 -0.2342 -0.2395
vn 0.2534 0.2924 -0.9221
vn -0.0583 -0.2064 0.9767
vn 0.0315 -0.2414 0.9699
vn -0.0291 -0.2282 0.9732
vn 0.0071 -0.2626 0.9649
vn -0.0000 -0.2113 0.9774
vn 0.0388 -0.2744 0.9608
vn -0.0459 -0.2720 0.9612
vn 0.0441 -0.2016 0.9785
vn -0.0016 -0.2236 0.9747
vn 0.0074 -0.1844 0.9828
vn 0.1632 -0.5948 0.7871
vn -0.0299 -0.1933 0.9807
vn 0.2959 -0.5231 0.7992
vn -0.4091 0.1807 0.8944
vn -0.4121 -0.0559 0.9094
vn -0.1385 -0.5234 0.8407
vn 0.7292 0.2251 0.6462
vn -0.2058 -0.4713 0.8576
vn -0.5066 0.1374 0.8511
vn 0.0332 -0.5874 0.8086
vn 0.3193 0.7858 0.5296
vn 0.5296 -0.3350 0.7793
vn 0.5248 -0.3972 0.7529
vn -0.0292 0.1041 0.9941
vn 0.0200 -0.7116 0.7023
vn -0.0339 0.9396 0.3406
vn 0.7525 0.0342 0.6577
vn 0.8847 -0.3940 0.2491
vn -0.3772 0.7459 -0.5489
vn -0.9792 -0.1807 -0.0928
vn -0.9884 0.1480 -0.0334
vn -0.9591 0.1842 0.2149
vn -0.9692 -0.1301 0.2092
vn -0.9693 -0.2031 0.1387
vn -0.5277 -0.8391 0.1320
vn -0.4383 -0.8864 -0.1492
vn -0.3967 -0.9087 0.1299
vn -0.1140 0.9634 -0.2428
vn -0.1792 0.9721 0.1514
vn -0.3749 0.6282 -0.6818
vn -0.2617 -0.4532 -0.8521
vn -0.3700 -0.9054 -0.2083
vn -0.6871 0.4368 0.5806
vn -0.3364 0.1128 -0.9350
vn -0.1470 -0.5344 -0.8324
vn -0.2965 0.1089 -0.9488
vn -0.2448 -0.9203 -0.3051
vn -0.7710 0.6365 0.0187
vn -0.9973 0.0137 -0.0726
vn -0.1505 0.9804 0.1274
vn -0.9791 0.1763 0.1018
vn -0.3094 -0.2813 -0.9084
vn -0.0757 0.9969 -0.0221
vn 0.0189 0.9127 -0.4083
vn 0.7109 0.1472 -0.6877
vn -0.6073 0.1923 -0.7708
vn -0.1476 0.9601 0.2374
vn 0.9555 -0.2479 -0.1601
vn -0.9222 0.2087 -0.3254
vn -0.0131 0.7941 -0.6076
vn -0.8227 -0.2039 0.5306
vn 0.0357 -0.7151 0.6981
vn -0.4564 -0.8868 0.0724
vn -0.4164 -0.8943 -0.1640
vn -0.4196 -0.9041 0.0809
vn -0.3141 -0.6706 0.6720
vn -0.6991 0.5550 -0.4508
vn -0.3260 0.9206 -0.2150
vn -0.9346 -0.3232 0.1489
vn -0.2294 -0.9406 -0.2503
vn -0.2911 0.9474 0.1329
vn -0.2053 0.7374 0.6435
vn -0.0950 0.7954 -0.5986
vn -0.8677 0.1154 0.4835
vn -0.4643 -0.0134 0.8856
vn -0.8383 0.1204 -0.5318
vn -0.3913 -0.4112 -0.8233
vn -0.9857 0.1442 0.0877
vn -0.9745 -0.0316 -0.2223
vn -0.1709 0.7734 0.6105
vn -0.3945 -0.9024 -0.1732
vn -0.9437 0.1017 0.3148
vn -0.2795 0.9513 0.1303
vn -0.2165 0.9760 -0.0230
vn -0.9785 0.2030 0.0362
vn -0.1775 0.8792 -0.4422
vn -0.0773 0.8292 0.5536
vn -0.1321 -0.9165 -0.3776
vn -0.9737 -0.2255 -0.0339
vn -0.2505 0.9346 0.2524
vn -0.1169 0.8445 0.5227
vn 0.0007 0.7037 0.7105
vn -0.2663 -0.9638 -0.0090
vn -0.8391 -0.2578 0.4791
vn -0.2122 -0.9696 -0.1220
vn -0.1793 -0.7970 0.5767
vn -0.1799 -0.9504 -0.2536
vn -0.9346 -0.2251 -0.2754
vn -0.1057 -0.9514 0.2891
vn -0.8717 -0.4617 0.1641
vn -0.3324 -0.9424 -0.0365
vn -0.1686 -0.9560 -0.2401
vn -0.3009 0.7002 0.6475
vn -0.3482 0.7257 0.5934
vn -0.7618 0.1177 0.6371
vn -0.4555 0.6750 0.5805
vn -0.1553 -0.9122 -0.3792
vn -0.1859 -0.9038 0.3854
vn -0.8837 0.0153 0.4678
vn -0.3522 0.8075 0.4732
vn -0.3843 0.5829 0.7159
vn -0.1217 -0.9798 -0.1589
vn -0.4144 0.6149 0.6710
vn -0.1593 -0.9539 -0.2542
vn -0.5346 0.0457 0.8439
vn -0.1479 -0.9664 -0.2101
vn -0.3937 -0.8685 0.3013
vn 0.3029 -0.3559 0.8841
vn 0.0092 0.7209 0.6930
vn -0.1789 -0.9516 -0.2498
vn -0.9702 -0.2417 0.0183
vn -0.0310 -0.4986 0.8663
vn -0.0512 0.7764 0.6282
vn -0.6302 0.0253 0.7760
vn -0.1441 -0.9628 -0.2284
vn 0.1346 0.0975 0.9861
vn -0.4460 0.7349 0.5109
vn -0.3334 0.0108 0.9427
vn -0.0463 -0.9974 0.0561
vn -0.3308 -0.9158 0.2276
vn -0.7809 -0.3231 0.5347
vn -0.4028 0.5527 0.7296
vn -0.1485 -0.9589 -0.2418
vn -0.8472 0.0965 0.5224
vn 0.0169 0.6323 0.7745
vn -0.2233 -0.9517 -0.2109
vn -0.8796 -0.3653 0.3047
vn -0.9298 -0.0596 -0.3631
vn -0.9721 0.2324 0.0322
vn -0.9437 0.1847 -0.2746
vn -0.9541 0.2612 0.1465
vn -0.9964 0.0299 -0.0794
vn -0.9455 -0.0105 0.3256
vn -0.6459 0.1716 0.7439
vn -0.8561 0.4570 0.2412
vn 0.3067 -0.7036 0.6410
vn -0.2599 -0.0887 0.9616
vn -0.0257 0.1831 -0.9828
vn -0.8937 -0.2894 0.3429
vn 0.9846 -0.0062 -0.1749
vn 0.9986 -0.0459 -0.0270
vn -0.9973 0.0519 -0.0521
vn -0.3050 -0.7084 0.6364
vn -0.9062 -0.3056 0.2924
vn 0.8026 -0.5367 0.2603
vn 0.0472 0.3577 -0.9327
vn 0.9459 -0.2171 -0.2411
vn -0.8998 -0.3355 0.2789
vn 0.9759 0.1940 -0.0995
vn 0.9986 0.0505 0.0173
vn -0.9964 0.0080 -0.0849
vn -0.1935 -0.7848 0.5888
vn -0.8648 0.3583 -0.3517
vn 0.8782 -0.3794 0.2912
vn 0.2385 -0.7659 0.5971
vn 0.4846 0.1453 -0.8626
vn -0.8900 0.1670 -0.4243
vn -0.0657 0.5441 -0.8364
vn -0.9963 0.0074 0.0855
vn 0.9763 0.1875 -0.1082
vn 0.9941 0.0888 0.0629
vn -0.9981 0.0301 -0.0540
vn -0.9748 -0.0593 0.2150
vn -0.0722 0.6872 -0.7229
vn 0.8355 -0.4247 0.3486
vn 0.2335 -0.7942 0.5609
vn 0.4534 0.6418 -0.6184
vn 0.0647 -0.8393 -0.5399
vn 0.0654 -0.8805 -0.4695
vn 0.0617 -0.8755 -0.4793
vn 0.0592 -0.8373 -0.5435
vn 0.0598 -0.8805 -0.4703
vn 0.0652 -0.8752 -0.4793
vn 0.9277 -0.0174 0.3729
vn 0.9755 0.0982 0.1969
vn 0.4130 0.5253 -0.7440
vn -0.8720 0.2458 -0.4233
vn -0.8787 0.2750 -0.3903
vn 0.4171 0.5429 -0.7288
vn 0.2147 -0.4092 0.8868
vn 0.8632 -0.1046 0.4940
vn -0.1945 -0.4117 0.8903
vn -0.9963 0.0793 -0.0323
vn 0.9888 0.1285 0.0763
vn 0.9712 0.2245 -0.0796
vn -0.9787 -0.0080 0.2053
vn -0.0669 0.5537 -0.8300
vn -0.2008 -0.4332 0.8786
vn 0.2235 -0.4081 0.8852
vn -0.1612 0.4528 0.8769
vn 0.0726 -0.8586 -0.5075
vn 0.0795 0.4756 0.8761
vn 0.0497 -0.8603 -0.5073
vn -0.9871 0.1572 0.0290
vn -0.9652 -0.2199 -0.1417
vn -0.9855 -0.0283 0.1675
vn -0.9503 0.2305 -0.2092
vn -0.5629 -0.0423 0.8255
vn -0.4705 0.7362 -0.4865
vn -0.9842 -0.0189 0.1762
vn -0.3855 0.6187 -0.6845
vn 0.9729 -0.0456 0.2266
vn 0.3463 -0.3985 -0.8493
vn 0.3339 0.0707 0.9400
vn -0.9873 0.0060 0.1588
vn -0.2019 -0.1394 -0.9694
vn 0.2452 -0.2721 -0.9305
vn 0.9230 -0.3589 -0.1386
vn 0.3135 -0.0962 0.9447
vn 0.2778 -0.0190 -0.9604
vn 0.9426 -0.0246 0.3332
vn -0.9991 0.0355 -0.0214
vn 0.9811 -0.0335 -0.1905
vn -0.4883 0.0855 0.8685
vn -0.1769 -0.3900 -0.9037
vn -0.9748 -0.0840 -0.2066
vn 0.9796 -0.1503 -0.1333
vn -0.0036 -0.9999 0.0105
vn -0.0525 -0.9986 -0.0078
vn -0.0405 -0.9973 -0.0617
vn -0.0066 -0.9988 -0.0476
vn 0.9978 -0.0346 0.0571
vn -0.9436 0.0653 0.3245
vn -0.1391 -0.0054 -0.9903
vn -0.9604 0.0277 -0.2771
vn -0.9569 0.1394 -0.2547
vn -0.1471 0.0211 -0.9889
vn -0.3561 0.1381 0.9242
vn 0.9565 0.2389 0.1676
vn 0.9783 0.1222 -0.1671
vn -0.9615 0.2583 0.0933
vn 0.2421 0.0960 0.9655
vn 0.2943 0.0350 -0.9551
vn 0.2576 0.1125 0.9597
vn -0.3840 0.1484 0.9113
vn 0.1936 0.7427 0.6411
vn -0.0611 -0.9979 0.0230
vn -0.2365 0.7317 0.6392
vn -0.0046 -0.9994 0.0330
vn 0.3082 -0.3071 -0.9004
vn 0.3077 -0.2941 0.9049
vn -0.9855 -0.0593 0.1591
vn 0.9786 -0.1166 -0.1696
vn 0.9696 -0.1049 0.2209
vn -0.4719 -0.2679 0.8400
vn -0.1641 -0.3001 -0.9397
vn -0.9680 -0.0791 -0.2382
vn -0.3499 0.1452 -0.9255
vn -0.2811 -0.8327 -0.4771
vn -0.3507 0.3110 -0.8834
vn -0.2435 0.5505 -0.7986
vn -0.2210 -0.2240 -0.9492
vn -0.3563 0.0787 -0.9310
vn -0.9559 0.2925 0.0272
vn -0.9356 0.3062 0.1756
vn -0.9962 0.0792 -0.0360
vn -0.8972 0.3506 0.2686
vn 0.5822 0.7597 0.2897
vn -0.7632 0.6390 -0.0954
vn -0.8057 -0.5829 -0.1054
vn -0.5113 0.8421 0.1715
vn 0.2449 0.8751 0.4174
vn -0.9124 0.3547 -0.2042
vn -0.9422 -0.2341 -0.2395
vn -0.2533 0.2922 -0.9222
vn 0.0584 -0.2064 0.9767
vn -0.0316 -0.2409 0.9700
vn 0.0290 -0.2278 0.9733
vn -0.0071 -0.2622 0.9650
vn -0.0000 -0.2110 0.9775
vn -0.0389 -0.2740 0.9609
vn 0.0457 -0.2718 0.9613
vn -0.0441 -0.2016 0.9785
vn 0.0016 -0.2234 0.9747
vn -0.0075 -0.1843 0.9828
vn -0.1638 -0.5947 0.7871
vn 0.0298 -0.1932 0.9807
vn -0.2960 -0.5230 0.7993
vn 0.4094 0.1807 0.8943
vn 0.4121 -0.0557 0.9094
vn 0.1385 -0.5229 0.8411
vn -0.7292 0.2250 0.6462
vn 0.2055 -0.4710 0.8578
vn 0.5068 0.1374 0.8510
vn -0.0332 -0.5871 0.8088
vn -0.3193 0.7858 0.5296
vn -0.5296 -0.3350 0.7793
vn -0.5248 -0.3972 0.7529
vn 0.0292 0.1041 0.9941
vn -0.0200 -0.7116 0.7023
vn 0.0339 0.9396 0.3406
vn -0.7525 0.0342 0.6577
vn 0.8961 -0.4241 0.1309
vn 0.9975 0.0018 0.0707
vn 0.7307 -0.6826 -0.0134
vn 0.1099 -0.5865 -0.8025
vn 0.0413 -0.2918 -0.9556
vn 0.9363 0.2917 0.1958
vn 0.6878 -0.1570 0.7087
vn 0.3444 -0.7086 0.6158
vn -0.6069 -0.1573 -0.7791
vn -0.4208 0.1606 -0.8928
vn 0.7919 0.1582 0.5898
vn 0.5964 -0.1929 0.7792
vn -0.3952 -0.8961 0.2018
vn -0.6285 -0.0034 -0.7778
vn -0.3576 0.3360 -0.8713
vn 0.4470 0.2379 0.8623
vn 0.2431 -0.0481 0.9688
vn -0.9975 -0.0018 -0.0707
vn -0.7601 0.2680 -0.5920
vn -0.4475 0.8627 -0.2357
vn -0.7307 0.6826 0.0134
vn -0.6822 0.6380 -0.3572
vn -0.6942 0.4145 -0.5884
vn -0.8961 0.4241 -0.1310
vn -0.8552 0.2639 -0.4461
vn -0.8798 0.1257 -0.4585
vn -0.7220 0.3298 0.6082
vn -0.7805 0.0645 0.6219
vn -0.1738 -0.1292 0.9763
vn -0.0413 0.2918 0.9556
vn 0.2534 0.0924 0.9629
vn 0.4174 0.0858 0.9047
vn -0.1099 0.5865 0.8025
vn 0.2535 0.4932 0.8321
vn 0.2197 0.7594 0.6124
vn -0.3444 0.7086 -0.6158
vn -0.4625 0.4338 -0.7733
vn -0.5848 0.3417 -0.7357
vn -0.6878 0.1570 -0.7087
vn -0.6976 0.0618 -0.7138
vn -0.7767 0.0247 -0.6294
vn -0.9363 -0.2917 -0.1958
vn -0.6272 -0.6603 0.4131
vn -0.0725 -0.4253 0.9021
vn 0.4208 -0.1606 0.8928
vn 0.5257 -0.1275 0.8411
vn 0.5343 -0.0321 0.8447
vn 0.6069 0.1573 0.7791
vn 0.6835 0.2565 0.6834
vn 0.5927 0.5636 0.5754
vn -0.5964 0.1929 -0.7792
vn -0.5257 0.1275 -0.8411
vn -0.5343 0.0321 -0.8447
vn -0.7919 -0.1582 -0.5898
vn -0.6835 -0.2565 -0.6834
vn -0.5927 -0.5636 -0.5754
vn 0.3576 -0.3360 0.8713
vn 0.4625 -0.4338 0.7733
vn 0.5848 -0.3417 0.7357
vn 0.6285 0.0033 0.7778
vn 0.6976 -0.0618 0.7138
vn 0.7767 -0.0247 0.6294
vn 0.3952 0.8961 -0.2018
vn 0.6272 0.6603 -0.4131
vn 0.0725 0.4253 -0.9021
vn -0.2432 0.0481 -0.9688
vn -0.2534 -0.0923 -0.9629
vn -0.4174 -0.0858 -0.9047
vn -0.4471 -0.2379 -0.8623
vn -0.2535 -0.4933 -0.8321
vn -0.2197 -0.7594 -0.6124
vn 0.4475 -0.8626 0.2357
vn 0.6821 -0.6380 0.3572
vn 0.6942 -0.4145 0.5884
vn 0.1738 0.1292 -0.9763
vn 0.7805 -0.0645 -0.6219
vn 0.7220 -0.3298 -0.6082
vn 0.7601 -0.2680 0.5920
vn 0.8552 -0.2639 0.4461
vn 0.8798 -0.1257 0.4585
vn -0.8961 -0.4241 0.1310
vn -0.9975 0.0018 0.0707
vn -0.7307 -0.6826 -0.0134
vn -0.1099 -0.5865 -0.8025
vn -0.0413 -0.2918 -0.9556
vn -0.9363 0.2917 0.1958
vn -0.6878 -0.1570 0.7087
vn -0.3444 -0.7086 0.6158
vn 0.6069 -0.1573 -0.7791
vn 0.4208 0.1606 -0.8928
vn -0.7919 0.1582 0.5898
vn -0.5964 -0.1929 0.7792
vn 0.3952 -0.8961 0.2018
vn 0.6285 -0.0033 -0.7778
vn 0.3576 0.3361 -0.8713
vn -0.4471 0.2379 0.8623
vn -0.2432 -0.0481 0.9688
vn 0.9975 -0.0018 -0.0707
vn 0.7601 0.2680 -0.5920
vn 0.4475 0.8626 -0.2357
vn 0.7307 0.6826 0.0134
vn 0.6822 0.6380 -0.3572
vn 0.6942 0.4145 -0.5884
vn 0.8961 0.4241 -0.1309
vn 0.8552 0.2639 -0.4461
vn 0.8798 0.1257 -0.4585
vn 0.7220 0.3298 0.6082
vn 0.7805 0.0645 0.6219
vn 0.1738 -0.1292 0.9763
vn 0.0413 0.2918 0.9556
vn -0.2534 0.0923 0.9629
vn -0.4174 0.0858 0.9047
vn 0.1099 0.5865 0.8024
vn -0.2535 0.4933 0.8321
vn -0.2197 0.7594 0.6124
vn 0.3444 0.7086 -0.6159
vn 0.4625 0.4338 -0.7733
vn 0.5848 0.3417 -0.7357
vn 0.6878 0.1570 -0.7087
vn 0.6976 0.0618 -0.7138
vn 0.7767 0.0247 -0.6294
vn 0.9363 -0.2917 -0.1958
vn 0.6272 -0.6603 0.4131
vn 0.0725 -0.4253 0.9021
vn -0.4208 -0.1606 0.8928
vn -0.5257 -0.1275 0.8411
vn -0.5343 -0.0321 0.8447
vn -0.6069 0.1573 0.7791
vn -0.6835 0.2565 0.6834
vn -0.5927 0.5636 0.5754
vn 0.5964 0.1929 -0.7792
vn 0.5257 0.1275 -0.8411
vn 0.5343 0.0321 -0.8447
vn 0.7919 -0.1582 -0.5898
vn 0.6835 -0.2565 -0.6834
vn 0.5927 -0.5636 -0.5754
vn -0.3576 -0.3361 0.8713
vn -0.4625 -0.4338 0.7733
vn -0.5848 -0.3417 0.7357
vn -0.6285 0.0033 0.7778
vn -0.6976 -0.0618 0.7138
vn -0.7767 -0.0247 0.6294
vn -0.3952 0.8962 -0.2018
vn -0.6272 0.6603 -0.4131
vn -0.0725 0.4253 -0.9021
vn 0.2431 0.0481 -0.9688
vn 0.2534 -0.0924 -0.9629
vn 0.4174 -0.0858 -0.9047
vn 0.4470 -0.2379 -0.8623
vn 0.2535 -0.4933 -0.8321
vn 0.2197 -0.7594 -0.6124
vn -0.4475 -0.8626 0.2357
vn -0.6822 -0.6380 0.3572
vn -0.6942 -0.4145 0.5884
vn -0.1738 0.1292 -0.9763
vn -0.7805 -0.0645 -0.6219
vn -0.7220 -0.3298 -0.6082
vn -0.7601 -0.2680 0.5920
vn -0.8552 -0.2639 0.4461
vn -0.8798 -0.1257 0.4585
vt 0.833374 0.494548
vt 0.893919 0.512741
vt 0.908415 0.468160
vt 0.848637 0.467455
vt 0.567859 0.867914
vt 0.639317 0.828812
vt 0.620915 0.894044
vt 0.556155 0.927906
vt 0.812683 0.509803
vt 0.774909 0.642712
vt 0.751394 0.643294
vt 0.751725 0.493743
vt 0.828812 0.793372
vt 0.751727 0.811870
vt 0.672932 0.807420
vt 0.672336 0.642732
vt 0.672998 0.503429
vt 0.598676 0.643182
vt 0.594201 0.530171
vt 0.560191 0.672195
vt 0.619753 0.672998
vt 0.599703 0.594201
vt 0.569702 0.558226
vt 0.580250 0.833374
vt 0.635423 0.812683
vt 0.637090 0.751725
vt 0.569078 0.759035
vt 0.500000 0.859251
vt 0.500000 0.750726
vt 0.569078 0.758996
vt 0.500000 0.657595
vt 0.560191 0.671923
vt 0.604420 0.951058
vt 0.545714 0.976119
vt 0.604420 0.548422
vt 0.626365 0.643481
vt 0.688416 0.643970
vt 0.666902 0.547256
vt 0.500000 0.917421
vt 0.563590 0.893919
vt 0.639317 0.793372
vt 0.659328 0.642712
vt 0.676970 0.643370
vt 0.671449 0.761101
vt 0.555994 0.632181
vt 0.545714 0.747180
vt 0.604420 0.735145
vt 0.572975 0.538591
vt 0.666902 0.715601
vt 0.500000 0.969030
vt 0.572975 0.947229
vt 0.501290 0.830086
vt 0.457158 0.830118
vt 0.460328 0.806630
vt 0.500288 0.803578
vt 0.499838 0.512886
vt 0.460007 0.507514
vt 0.481582 0.413128
vt 0.510774 0.417065
vt 0.500000 0.559830
vt 0.556447 0.575135
vt 0.579931 0.796381
vt 0.599703 0.530171
vt 0.637090 0.643182
vt 0.659115 0.643738
vt 0.643940 0.535244
vt 0.564556 0.492909
vt 0.500000 0.477524
vt 0.500000 0.432743
vt 0.566016 0.447361
vt 0.569702 0.518348
vt 0.616981 0.429733
vt 0.594994 0.421068
vt 0.612448 0.796381
vt 0.637526 0.771615
vt 0.500000 0.371229
vt 0.561082 0.382998
vt 0.450625 0.491920
vt 0.495971 0.498202
vt 0.507939 0.406303
vt 0.474705 0.401699
vt 0.591615 0.535244
vt 0.575831 0.433451
vt 0.407144 0.499901
vt 0.406490 0.640437
vt 0.358675 0.605643
vt 0.363238 0.556600
vt 0.578790 0.420824
vt 0.621227 0.407144
vt 0.601979 0.363238
vt 0.551080 0.357545
vt 0.500000 0.657756
vt 0.500000 0.571782
vt 0.667216 0.508652
vt 0.621227 0.499901
vt 0.632756 0.407548
vt 0.666461 0.413961
vt 0.556577 0.771615
vt 0.637090 0.751727
vt 0.260484 0.580516
vt 0.278839 0.520364
vt 0.582070 0.278839
vt 0.540875 0.268345
vt 0.619753 0.672932
vt 0.500000 0.307117
vt 0.551080 0.314473
vt 0.500000 0.983839
vt 0.393435 0.816867
vt 0.325561 0.763148
vt 0.671449 0.517077
vt 0.635423 0.509803
vt 0.642381 0.470278
vt 0.671266 0.470798
vt 0.988807 0.740196
vt 1.002924 0.661469
vt 1.015365 0.669173
vt 1.001496 0.721513
vt 0.500000 0.531683
vt 0.500000 0.631036
vt 0.249130 0.712570
vt 0.191059 0.679456
vt 0.198981 0.567653
vt 0.945839 0.547256
vt 0.886123 0.529161
vt 0.904522 0.470747
vt 0.963512 0.471464
vt 0.500000 0.238897
vt 0.540875 0.239236
vt 0.564556 0.495971
vt 0.612448 0.579931
vt 0.628268 0.501290
vt 0.631115 0.457158
vt 0.168698 0.648799
vt 0.177283 0.553376
vt 0.539817 0.181283
vt 0.500000 0.184290
vt 0.500000 0.144817
vt 0.539817 0.140934
vt 0.580006 0.205473
vt 0.539817 0.196322
vt 0.205473 0.476864
vt 0.621491 0.393435
vt 0.538703 0.608225
vt 0.500000 0.615960
vt 0.500000 0.567098
vt 0.526605 0.560962
vt 0.566016 0.450625
vt 0.149293 0.452102
vt 0.133162 0.541160
vt 0.103583 0.505809
vt 0.123733 0.441345
vt 0.539531 0.141037
vt 0.579447 0.149293
vt 0.562090 0.123733
vt 0.530633 0.116366
vt 0.500000 0.385014
vt 0.500000 0.353218
vt 0.586057 0.174337
vt 0.542919 0.165879
vt 0.174337 0.464471
vt 0.086614 0.427976
vt 0.065909 0.448336
vt 0.053210 0.428901
vt 0.071388 0.423606
vt 0.515797 0.085531
vt 0.531484 0.086614
vt 0.523242 0.071388
vt 0.510720 0.071544
vt 0.500000 0.266808
vt 0.601979 0.325561
vt 0.582070 0.249130
vt 0.108290 0.599988
vt 0.073849 0.556649
vt 0.580006 0.679456
vt 0.539817 0.690304
vt 0.539817 0.657159
vt 0.579599 0.648799
vt 0.500000 0.199929
vt 0.513331 0.045311
vt 0.500000 0.046647
vt 0.500000 0.069896
vt 0.051602 0.475706
vt 0.038205 0.462176
vt 0.038356 0.442272
vt 0.580006 0.191059
vt 0.577833 0.599988
vt 0.554232 0.556649
vt 0.500000 0.147087
vt 0.500000 0.124516
vt 0.530339 0.475706
vt 0.515210 0.477146
vt 0.513246 0.460736
vt 0.522445 0.462176
vt 0.500000 0.170521
vt 0.515546 0.457928
vt 0.507613 0.457080
vt 0.506877 0.445401
vt 0.514439 0.446199
vt 0.500000 0.089031
vt 0.528336 0.053210
vt 0.620841 0.601238
vt 0.618568 0.607555
vt 0.613078 0.604170
vt 0.614718 0.599612
vt 0.500000 0.479371
vt 0.500000 0.460095
vt 0.513331 0.424258
vt 0.512541 0.440917
vt 0.500000 0.440864
vt 0.500000 0.422187
vt 0.500000 0.664242
vt 0.576432 0.505809
vt 0.539481 0.507406
vt 0.547321 0.467354
vt 0.500000 0.513551
vt 0.519044 0.508271
vt 0.579599 0.168698
vt 0.538703 0.096221
vt 0.577833 0.108290
vt 0.520322 0.097153
vt 0.500000 0.106427
vt 0.541975 0.104341
vt 0.078394 0.467354
vt 0.104341 0.437145
vt 0.073220 0.507406
vt 0.590300 0.643738
vt 0.499630 0.641384
vt 0.459655 0.640419
vt 0.417546 0.774144
vt 0.414448 0.641253
vt 0.423095 0.508652
vt 0.621491 0.816867
vt 0.648114 0.640437
vt 0.669097 0.641253
vt 0.644267 0.774144
vt 0.578790 0.496630
vt 0.601625 0.405151
vt 0.649402 0.433451
vt 0.651726 0.367843
vt 0.620780 0.366797
vt 0.454529 0.413961
vt 0.467814 0.368189
vt 0.488225 0.366596
vt 0.561691 0.421068
vt 0.537425 0.365401
vt 0.507200 0.363509
vt 0.481273 0.364028
vt 0.510983 0.366114
vt 0.635806 0.367147
vt 0.669092 0.368189
vt 0.420824 0.496630
vt 0.452865 0.405151
vt 0.558226 0.518348
vt 0.484328 0.324872
vt 0.502799 0.322553
vt 0.547406 0.321655
vt 0.519920 0.320969
vt 0.496410 0.322232
vt 0.523434 0.321439
vt 0.639292 0.324944
vt 0.675657 0.324872
vt 0.550036 0.367843
vt 0.558926 0.322330
vt 0.465216 0.366023
vt 0.604868 0.366023
vt 0.599660 0.365401
vt 0.621651 0.293283
vt 0.658462 0.293469
vt 0.659368 0.261742
vt 0.621257 0.261665
vt 0.501495 0.293600
vt 0.482345 0.307625
vt 0.480362 0.262732
vt 0.500191 0.261781
vt 0.519246 0.292376
vt 0.547742 0.292993
vt 0.548078 0.261464
vt 0.518571 0.260916
vt 0.494871 0.293528
vt 0.493332 0.261956
vt 0.522889 0.292587
vt 0.522344 0.260869
vt 0.451756 0.288897
vt 0.449773 0.262732
vt 0.656778 0.322330
vt 0.622394 0.322035
vt 0.481902 0.324350
vt 0.605664 0.324350
vt 0.599057 0.321655
vt 0.595403 0.548078
vt 0.621257 0.561263
vt 0.645824 0.523009
vt 0.590945 0.518571
vt 0.639859 0.470735
vt 0.648324 0.498544
vt 0.685407 0.500191
vt 0.686261 0.480362
vt 0.592251 0.493332
vt 0.659368 0.560446
vt 0.683143 0.522344
vt 0.596433 0.477757
vt 0.479829 0.307317
vt 0.477757 0.262636
vt 0.447168 0.262636
vt 0.449241 0.288588
vt 0.596679 0.292993
vt 0.595403 0.261464
vt 0.559686 0.293469
vt 0.560446 0.261742
vt 0.603589 0.307317
vt 0.640355 0.307779
vt 0.679739 0.307625
vt 0.677932 0.288897
vt 0.639680 0.289050
vt 0.639859 0.262967
vt 0.679465 0.262732
vt 0.604354 0.288588
vt 0.603287 0.262636
vt 0.679739 0.482345
vt 0.640355 0.473048
vt 0.639680 0.442459
vt 0.677932 0.451756
vt 0.679465 0.449773
vt 0.639859 0.440146
vt 0.603589 0.479829
vt 0.604354 0.449241
vt 0.603287 0.447168
vt 0.841501 0.761101
vt 0.796910 0.643370
vt 0.906455 0.644155
vt 0.894416 0.742499
vt 0.957194 0.643970
vt 0.829265 0.517077
vt 0.940741 0.715601
vt 0.671449 0.841501
vt 0.669190 0.894416
vt 0.849398 0.470798
vt 0.666902 0.940741
vt 0.909364 0.402088
vt 0.855378 0.389954
vt 0.592313 0.470184
vt 0.617524 0.471308
vt 0.621192 0.417417
vt 0.598226 0.414426
vt 0.598146 0.467455
vt 0.603540 0.389954
vt 0.643835 0.389418
vt 0.855424 0.393127
vt 0.905341 0.403681
vt 0.667620 0.471464
vt 0.947229 0.538591
vt 0.963044 0.470184
vt 0.580250 0.494548
vt 0.595712 0.312254
vt 0.621272 0.312916
vt 0.622837 0.264476
vt 0.597277 0.263453
vt 0.852894 0.313492
vt 0.849695 0.260671
vt 0.818572 0.260902
vt 0.821566 0.286829
vt 0.893654 0.314609
vt 0.853541 0.316407
vt 0.850246 0.263617
vt 0.890422 0.263754
vt 0.896415 0.312211
vt 0.936226 0.312254
vt 0.933075 0.263453
vt 0.893263 0.261490
vt 0.670148 0.393127
vt 0.666826 0.415674
vt 0.958612 0.415674
vt 0.958434 0.414426
vt 0.649700 0.837975
vt 0.635627 0.887710
vt 0.686058 0.890422
vt 0.687133 0.850246
vt 0.592375 0.849695
vt 0.589648 0.893263
vt 0.597277 0.933075
vt 0.622837 0.940554
vt 0.673628 0.933416
vt 0.822213 0.289744
vt 0.819123 0.263848
vt 0.672063 0.313364
vt 0.673628 0.264581
vt 0.936602 0.313364
vt 0.933416 0.264581
vt 0.941647 0.364922
vt 0.899640 0.363406
vt 0.623001 0.364960
vt 0.665562 0.364922
vt 0.668659 0.362549
vt 0.644119 0.361871
vt 0.647700 0.316485
vt 0.685132 0.316407
vt 0.859879 0.359936
vt 0.902447 0.361457
vt 0.941330 0.363919
vt 0.860378 0.362549
vt 0.606538 0.359936
vt 0.590374 0.313492
vt 0.601582 0.363919
vt 0.646474 0.289822
vt 0.601626 0.286829
vt 0.603191 0.260902
vt 0.648039 0.263334
vt 0.675760 0.289744
vt 0.677325 0.263848
vt 0.647700 0.841274
vt 0.590374 0.852894
vt 0.601626 0.821566
vt 0.646474 0.809945
vt 0.648039 0.806852
vt 0.603191 0.818572
vt 0.685132 0.853541
vt 0.675760 0.822213
vt 0.677325 0.819123
vt 0.500000 0.668378
vt 0.500000 0.724779
vt 0.517225 0.721513
vt 0.520785 0.669173
vt 0.528698 1.002924
vt 0.500000 1.014901
vt 0.500000 1.025182
vt 0.520785 1.015365
vt 0.500000 0.744181
vt 0.519989 0.740196
vt 0.519989 0.988807
vt 0.500000 0.995348
vt 0.500000 0.660499
vt 0.528698 0.661469
vt 0.154177 0.616909
vt 0.166410 0.570048
vt 0.135838 0.608740
vt 0.149154 0.567675
vt 0.147623 0.572395
vt 0.137518 0.603560
vt 0.583783 0.154177
vt 0.583848 0.135838
vt 0.600568 0.131366
vt 0.597073 0.144428
vt 0.144166 0.612314
vt 0.141084 0.620214
vt 0.132632 0.614576
vt 0.134671 0.609983
vt 0.153028 0.593819
vt 0.141399 0.592146
vt 0.619182 0.132632
vt 0.614588 0.141084
vt 0.606252 0.140479
vt 0.610351 0.130579
vt 0.138199 0.601250
vt 0.148213 0.603179
vt 0.602487 0.570048
vt 0.583783 0.616909
vt 0.597073 0.624463
vt 0.606252 0.625520
vt 0.614588 0.620214
vt 0.620822 0.612314
vt 0.623703 0.603179
vt 0.620639 0.593819
vt 0.604695 0.577238
vt 0.601269 0.572395
vt 0.603531 0.567675
vt 0.609313 0.614171
vt 0.615687 0.610750
vt 0.619182 0.614576
vt 0.610351 0.619358
vt 0.602434 0.613212
vt 0.600568 0.617961
vt 0.626402 0.601250
vt 0.623276 0.609983
vt 0.618527 0.594500
vt 0.623272 0.592146
vt 0.590602 0.606787
vt 0.583848 0.608740
vt 0.592903 0.603615
vt 0.603070 0.582298
vt 0.613048 0.594751
vt 0.610999 0.606475
vt 0.606401 0.608943
vt 0.601438 0.608251
vt 0.586331 0.603560
vt 0.600598 0.578805
vt 0.589822 0.601288
vt 0.148133 0.578805
vt 0.140843 0.601288
vt 0.522445 0.038205
vt 0.513246 0.032036
vt 0.507613 0.025182
vt 0.515546 0.030102
vt 0.521458 0.442272
vt 0.528336 0.428901
vt 0.500000 0.456702
vt 0.500000 0.445370
vt 0.500000 0.031689
vt 0.512541 0.032373
vt 0.506877 0.025742
vt 0.500000 0.025886
vt 0.500000 0.031337
vt 0.500000 0.025479
vt 0.030102 0.457928
vt 0.030515 0.446199
vt 0.432141 0.867914
vt 0.443845 0.927906
vt 0.379085 0.894044
vt 0.360683 0.828812
vt 0.439809 0.672195
vt 0.430298 0.558226
vt 0.400297 0.594201
vt 0.380247 0.672998
vt 0.419750 0.833374
vt 0.430922 0.759035
vt 0.362910 0.751725
vt 0.364577 0.812683
vt 0.430922 0.758996
vt 0.439809 0.671923
vt 0.454286 0.976119
vt 0.395580 0.951058
vt 0.395580 0.548422
vt 0.333098 0.547256
vt 0.311584 0.643970
vt 0.373635 0.643481
vt 0.436410 0.893919
vt 0.360683 0.793372
vt 0.328551 0.761101
vt 0.323030 0.643370
vt 0.340672 0.642712
vt 0.444006 0.632181
vt 0.395580 0.735145
vt 0.454286 0.747180
vt 0.427025 0.538591
vt 0.333098 0.715601
vt 0.427025 0.947229
vt 0.443553 0.575135
vt 0.400297 0.530171
vt 0.356060 0.535244
vt 0.340885 0.643738
vt 0.362910 0.643182
vt 0.435444 0.492909
vt 0.433984 0.447361
vt 0.430298 0.518348
vt 0.405006 0.421068
vt 0.383019 0.429733
vt 0.362474 0.771615
vt 0.387552 0.796381
vt 0.438918 0.382998
vt 0.421210 0.420824
vt 0.448920 0.357545
vt 0.398021 0.363238
vt 0.378773 0.407144
vt 0.332784 0.508652
vt 0.333539 0.413961
vt 0.367244 0.407548
vt 0.378773 0.499901
vt 0.362910 0.751727
vt 0.459125 0.268345
vt 0.417930 0.278839
vt 0.380247 0.672932
vt 0.448920 0.314473
vt 0.328551 0.517077
vt 0.328734 0.470798
vt 0.357619 0.470278
vt 0.364577 0.509803
vt 0.459125 0.239236
vt 0.435444 0.495971
vt 0.387552 0.579931
vt 0.371732 0.501290
vt 0.368885 0.457158
vt 0.460183 0.181283
vt 0.460183 0.140934
vt 0.460183 0.196322
vt 0.419994 0.205473
vt 0.378509 0.393435
vt 0.461297 0.608225
vt 0.473395 0.560962
vt 0.433984 0.450625
vt 0.460469 0.141037
vt 0.469367 0.116366
vt 0.437911 0.123733
vt 0.420553 0.149293
vt 0.457081 0.165879
vt 0.413943 0.174337
vt 0.484203 0.085531
vt 0.489280 0.071544
vt 0.476758 0.071388
vt 0.468516 0.086614
vt 0.398021 0.325561
vt 0.417930 0.249130
vt 0.419994 0.679456
vt 0.420401 0.648799
vt 0.460183 0.657159
vt 0.460183 0.690304
vt 0.486669 0.045311
vt 0.419994 0.191059
vt 0.422167 0.599988
vt 0.445768 0.556649
vt 0.469661 0.475706
vt 0.477555 0.462176
vt 0.486754 0.460736
vt 0.484790 0.477146
vt 0.484454 0.457928
vt 0.485561 0.446199
vt 0.493123 0.445401
vt 0.492387 0.457080
vt 0.471665 0.053210
vt 0.379159 0.601238
vt 0.385282 0.599612
vt 0.386922 0.604170
vt 0.381432 0.607555
vt 0.486669 0.424258
vt 0.487459 0.440917
vt 0.423568 0.505809
vt 0.452679 0.467354
vt 0.460520 0.507406
vt 0.480956 0.508271
vt 0.420401 0.168698
vt 0.422167 0.108290
vt 0.461297 0.096221
vt 0.479678 0.097153
vt 0.458025 0.104341
vt 0.378509 0.816867
vt 0.355733 0.774144
vt 0.330903 0.641253
vt 0.351886 0.640437
vt 0.398375 0.405151
vt 0.421210 0.496630
vt 0.379220 0.366797
vt 0.348274 0.367843
vt 0.350598 0.433451
vt 0.330908 0.368189
vt 0.364194 0.367147
vt 0.324343 0.324872
vt 0.360708 0.324944
vt 0.395132 0.366023
vt 0.400340 0.365401
vt 0.378349 0.293283
vt 0.378743 0.261665
vt 0.340632 0.261742
vt 0.341538 0.293469
vt 0.377606 0.322035
vt 0.343222 0.322330
vt 0.394336 0.324350
vt 0.400943 0.321655
vt 0.404597 0.548078
vt 0.409055 0.518571
vt 0.354176 0.523009
vt 0.378743 0.561263
vt 0.360141 0.470735
vt 0.313739 0.480362
vt 0.314593 0.500191
vt 0.351676 0.498544
vt 0.407749 0.493332
vt 0.316857 0.522344
vt 0.340632 0.560446
vt 0.403567 0.477757
vt 0.403321 0.292993
vt 0.404597 0.261464
vt 0.359645 0.307779
vt 0.396411 0.307317
vt 0.320262 0.307625
vt 0.322068 0.288897
vt 0.320535 0.262732
vt 0.360141 0.262967
vt 0.360320 0.289050
vt 0.396713 0.262636
vt 0.395646 0.288588
vt 0.320262 0.482345
vt 0.322068 0.451756
vt 0.360320 0.442459
vt 0.359645 0.473048
vt 0.360141 0.440146
vt 0.320535 0.449773
vt 0.395646 0.449241
vt 0.396411 0.479829
vt 0.396713 0.447168
vt 0.330810 0.894416
vt 0.328551 0.841501
vt 0.333098 0.940741
vt 0.407688 0.470184
vt 0.401774 0.414426
vt 0.378808 0.417417
vt 0.382476 0.471308
vt 0.356165 0.389418
vt 0.396460 0.389954
vt 0.401854 0.467455
vt 0.332380 0.471464
vt 0.419750 0.494548
vt 0.404289 0.312254
vt 0.402723 0.263453
vt 0.377163 0.264476
vt 0.378728 0.312916
vt 0.329852 0.393127
vt 0.333174 0.415674
vt 0.350300 0.837975
vt 0.312867 0.850246
vt 0.313942 0.890422
vt 0.364373 0.887710
vt 0.410353 0.893263
vt 0.407625 0.849695
vt 0.377163 0.940554
vt 0.402723 0.933075
vt 0.326372 0.933416
vt 0.326372 0.264581
vt 0.327937 0.313364
vt 0.376999 0.364960
vt 0.334438 0.364922
vt 0.331341 0.362549
vt 0.314868 0.316407
vt 0.352300 0.316485
vt 0.355881 0.361871
vt 0.409626 0.313492
vt 0.393462 0.359936
vt 0.398418 0.363919
vt 0.353526 0.289822
vt 0.351961 0.263334
vt 0.396809 0.260902
vt 0.398374 0.286829
vt 0.324240 0.289744
vt 0.322675 0.263848
vt 0.352300 0.841274
vt 0.353526 0.809945
vt 0.398374 0.821566
vt 0.409626 0.852894
vt 0.396809 0.818572
vt 0.351961 0.806852
vt 0.314868 0.853541
vt 0.324240 0.822213
vt 0.322675 0.819123
vt 0.479215 0.669173
vt 0.482775 0.721513
vt 0.471302 1.002924
vt 0.479215 1.015365
vt 0.480011 0.740196
vt 0.480011 0.988807
vt 0.471302 0.661469
vt 0.416217 0.154177
vt 0.402927 0.144428
vt 0.399432 0.131366
vt 0.416152 0.135838
vt 0.380819 0.132632
vt 0.389649 0.130579
vt 0.393748 0.140479
vt 0.385412 0.141084
vt 0.397513 0.570048
vt 0.379361 0.593819
vt 0.376297 0.603179
vt 0.379178 0.612314
vt 0.385412 0.620214
vt 0.393748 0.625520
vt 0.402927 0.624463
vt 0.416217 0.616909
vt 0.395305 0.577238
vt 0.396469 0.567675
vt 0.398731 0.572395
vt 0.390687 0.614171
vt 0.389649 0.619358
vt 0.380819 0.614576
vt 0.384313 0.610750
vt 0.397566 0.613212
vt 0.399432 0.617961
vt 0.376724 0.609983
vt 0.373598 0.601250
vt 0.376728 0.592146
vt 0.381473 0.594500
vt 0.409398 0.606787
vt 0.416152 0.608740
vt 0.407098 0.603615
vt 0.398562 0.608251
vt 0.393599 0.608943
vt 0.389001 0.606475
vt 0.386952 0.594751
vt 0.396930 0.582298
vt 0.413669 0.603560
vt 0.399402 0.578805
vt 0.410178 0.601288
vt 0.477555 0.038205
vt 0.484454 0.030102
vt 0.492387 0.025182
vt 0.486754 0.032036
vt 0.478542 0.442272
vt 0.471665 0.428901
vt 0.493123 0.025742
vt 0.487459 0.032373
vt 0.181819 0.000000
vt 0.227273 0.078731
vt 0.136365 0.078731
vt 0.272728 0.157461
vt 0.318182 0.078731
vt 0.363637 0.157461
vt 0.909091 0.000000
vt 0.954545 0.078731
vt 0.863636 0.078731
vt 0.727273 0.000000
vt 0.772727 0.078731
vt 0.681818 0.078731
vt 0.545455 0.000000
vt 0.590909 0.078731
vt 0.500000 0.078731
vt 0.318182 0.236191
vt 0.090910 0.157461
vt 0.181819 0.157461
vt 0.136365 0.236191
vt 0.818182 0.157461
vt 0.909091 0.157461
vt 0.863636 0.236191
vt 0.636364 0.157461
vt 0.727273 0.157461
vt 0.681818 0.236191
vt 0.454546 0.157461
vt 0.545455 0.157461
vt 0.500000 0.236191
vt 0.227273 0.236191
vt 0.045455 0.236191
vt 0.772727 0.236191
vt 0.590909 0.236191
vt 0.409092 0.236191
vt 0.181819 0.314921
vt 0.272728 0.314921
vt 0.227273 0.393651
vt 0.000000 0.314921
vt 0.090910 0.314921
vt 0.045455 0.393651
vt 0.727273 0.314921
vt 0.818182 0.314921
vt 0.772727 0.393651
vt 0.545455 0.314921
vt 0.636364 0.314921
vt 0.590909 0.393651
vt 0.363637 0.314921
vt 0.454546 0.314921
vt 0.409092 0.393651
vt 0.500000 0.393651
vt 0.454546 0.472382
vt 0.681818 0.393651
vt 0.636364 0.472382
vt 0.863636 0.393651
vt 0.818182 0.472382
vt 0.909091 0.314921
vt 0.136365 0.393651
vt 0.090910 0.472382
vt 0.318182 0.393651
vt 0.272728 0.472382
vt 0.954545 0.236191
vt 1.000000 0.157461
vt 0.409092 0.078731
vt 0.363637 0.000000
s 1
f 116/1/1 98/2/1 209/3/1 208/4/1
f 115/5/2 4/6/2 17/7/2 97/8/2
f 3/9/3 7/10/3 13/11/3 8/12/3
f 7/10/4 4/13/4 9/14/4 13/11/4
f 13/11/5 9/14/5 2/15/5 10/16/5
f 8/12/6 13/11/6 10/16/6 1/17/6
f 1/17/7 10/16/7 32/18/7 29/19/7
f 114/20/8 1/21/8 29/22/8 83/23/8
f 116/24/9 3/25/9 8/26/9 109/27/9
f 109/27/10 8/26/10 1/21/10 114/20/10
f 115/5/11 6/28/11 15/29/11 99/30/11
f 99/30/12 15/29/12 12/31/12 112/32/12
f 97/8/13 17/7/13 21/33/13 90/34/13
f 20/35/14 25/36/14 203/37/14 204/38/14
f 116/24/15 5/28/15 18/39/15 98/40/15
f 4/41/16 7/42/16 197/43/16 196/44/16
f 89/45/17 90/46/17 21/47/17 25/36/17
f 91/48/18 89/45/18 25/36/18 20/35/18
f 25/36/19 21/47/19 202/49/19 203/37/19
f 98/40/20 18/39/20 23/50/20 91/51/20
f 38/52/21 45/53/21 134/54/21 131/55/21
f 133/56/22 136/57/22 144/58/22 146/59/22
f 112/32/23 12/31/23 34/60/23 82/61/23
f 10/16/24 2/15/24 30/62/24 32/18/24
f 29/63/25 32/64/25 129/65/25 130/66/25
f 75/67/26 41/68/26 48/69/26 73/70/26
f 82/61/27 34/60/27 41/68/27 75/67/27
f 83/71/28 29/63/28 141/72/28 140/73/28
f 32/64/29 30/74/29 128/75/29 129/65/29
f 73/70/30 48/69/30 56/76/30 66/77/30
f 74/78/31 81/79/31 145/80/31 148/81/31
f 130/82/32 133/56/32 146/59/32 147/83/32
f 6/28/33 115/5/33 97/8/33 19/39/33
f 54/84/34 53/85/34 60/86/34 61/87/34
f 67/88/35 54/89/35 61/90/35 65/91/35
f 11/92/36 114/20/36 83/23/36 33/93/36
f 5/28/37 116/24/37 109/27/37 14/29/37
f 14/29/38 109/27/38 114/20/38 11/92/38
f 139/94/39 54/95/39 143/96/39 142/97/39
f 30/62/40 38/52/40 131/55/40 128/98/40
f 4/6/41 115/5/41 99/30/41 9/99/41
f 61/87/42 60/86/42 69/100/42 70/101/42
f 65/91/43 61/90/43 70/102/43 58/103/43
f 9/99/44 99/30/44 112/32/44 2/104/44
f 66/77/45 56/76/45 63/105/45 64/106/45
f 19/39/46 97/8/46 90/34/46 24/107/46
f 53/85/47 52/108/47 59/109/47 60/86/47
f 198/110/48 3/111/48 207/112/48 213/113/48
f 256/114/49 255/115/49 253/116/49 254/117/49
f 23/118/50 26/119/50 89/45/50 91/48/50
f 69/100/51 68/120/51 76/121/51 77/122/51
f 204/123/52 201/124/52 211/125/52 212/126/52
f 64/106/53 63/105/53 72/127/53 57/128/53
f 33/93/54 83/23/54 81/129/54 40/68/54
f 60/86/55 59/109/55 68/120/55 69/100/55
f 2/104/56 112/32/56 82/61/56 30/130/56
f 38/131/57 75/67/57 73/70/57 45/132/57
f 77/122/58 76/121/58 259/133/58 260/134/58
f 30/130/59 82/61/59 75/67/59 38/131/59
f 50/135/60 80/136/60 88/137/60 44/138/60
f 58/103/61 70/102/61 78/139/61 51/140/61
f 70/101/62 69/100/62 77/122/62 78/141/62
f 45/132/63 73/70/63 66/77/63 52/142/63
f 57/128/64 72/127/64 80/136/64 50/135/64
f 28/143/65 110/144/65 96/145/65 42/146/65
f 40/68/66 81/129/66 74/147/66 47/69/66
f 108/148/67 262/149/67 93/150/67 94/151/67
f 31/152/68 108/153/68 94/154/68 43/155/68
f 55/156/69 67/88/69 65/91/69 62/157/69
f 51/140/70 78/139/70 86/158/70 49/159/70
f 78/141/71 77/122/71 260/134/71 86/160/71
f 47/69/72 74/147/72 67/88/72 55/156/72
f 123/161/73 124/162/73 101/163/73 102/164/73
f 121/165/74 123/166/74 102/167/74 37/168/74
f 62/157/75 65/91/75 58/103/75 71/169/75
f 52/142/76 66/77/76 64/106/76 59/170/76
f 59/170/77 64/106/77 57/128/77 68/171/77
f 262/149/78 261/172/78 92/173/78 93/150/78
f 76/174/79 50/175/79 44/176/79 259/177/79
f 71/169/80 58/103/80 51/140/80 79/178/80
f 37/168/81 35/179/81 105/180/81 103/181/81
f 124/162/82 127/182/82 297/183/82 298/184/82 101/163/82
f 68/171/83 57/128/83 50/135/83 76/185/83
f 261/186/84 28/143/84 42/146/84 92/187/84
f 107/188/85 31/152/85 43/155/85 95/189/85
f 127/190/86 122/191/86 295/192/86 297/193/86
f 79/178/87 51/140/87 49/159/87 87/194/87
f 100/195/88 36/196/88 301/197/88 104/198/88
f 126/199/89 121/165/89 37/168/89 103/181/89
f 102/167/90 101/200/90 35/179/90 37/168/90
f 274/201/91 273/202/91 290/203/91 291/204/91
f 122/191/92 125/205/92 300/206/92 295/192/92
f 49/159/93 86/158/93 108/153/93 31/152/93
f 86/160/94 260/134/94 262/149/94 108/148/94
f 35/207/95 296/208/95 299/209/95 105/210/95
f 44/176/96 88/211/96 110/144/96 28/143/96
f 93/212/97 92/187/97 120/213/97 119/214/97
f 87/194/98 49/159/98 31/152/98 107/188/98
f 42/146/99 96/145/99 113/215/99 27/216/99
f 259/217/100 44/138/100 28/218/100 261/219/100
f 92/187/101 42/146/101 27/216/101 120/213/101
f 95/189/102 43/155/102 22/220/102 118/221/102
f 43/155/103 94/154/103 117/222/103 22/220/103
f 94/151/104 93/150/104 119/223/104 117/224/104
f 120/213/105 27/216/105 122/191/105 127/190/105
f 118/221/106 22/220/106 121/165/106 126/199/106
f 119/223/107 120/225/107 127/182/107 124/162/107
f 27/216/108 113/215/108 125/205/108 122/191/108
f 22/220/109 117/222/109 123/166/109 121/165/109
f 117/224/110 119/223/110 124/162/110 123/161/110
f 130/82/111 129/226/111 132/227/111 133/56/111
f 132/227/112 131/55/112 134/54/112 135/228/112
f 129/226/113 128/98/113 131/55/113 132/227/113
f 135/228/114 134/54/114 137/229/114 138/230/114
f 133/56/115 132/227/115 135/228/115 136/57/115
f 136/57/116 135/228/116 138/230/116 139/231/116
f 52/232/117 53/233/117 138/234/117 137/235/117
f 45/53/118 52/108/118 137/229/118 134/54/118
f 54/95/119 67/236/119 149/237/119 143/96/119
f 53/233/120 54/95/120 139/94/120 138/234/120
f 141/72/121 147/238/121 157/239/121 39/240/121
f 144/58/122 142/241/122 150/242/122 153/243/122
f 145/80/123 140/244/123 46/245/123 154/246/123
f 148/81/124 145/80/124 154/246/124 158/247/124
f 146/59/125 144/58/125 153/243/125 156/248/125
f 142/97/126 143/96/126 151/249/126 150/250/126
f 136/57/127 139/231/127 142/241/127 144/58/127
f 67/251/128 74/78/128 148/81/128 149/252/128
f 29/63/129 130/66/129 147/238/129 141/72/129
f 81/79/130 83/253/130 140/244/130 145/80/130
f 153/243/131 150/242/131 162/254/131 164/255/131
f 154/246/132 46/245/132 160/256/132 165/257/132
f 158/247/133 154/246/133 165/257/133 168/258/133
f 156/248/134 153/243/134 164/255/134 166/259/134
f 150/250/135 151/249/135 163/260/135 162/261/135
f 157/262/136 156/248/136 166/259/136 167/263/136
f 149/252/137 148/81/137 158/247/137 159/264/137
f 143/96/138 149/237/138 159/265/138 151/249/138
f 140/73/139 141/72/139 39/240/139 46/266/139
f 147/83/140 146/59/140 156/248/140 157/262/140
f 188/267/141 187/268/141 177/269/141 152/270/141
f 184/271/142 185/272/142 170/273/142 173/274/142
f 182/275/143 180/276/143 155/277/143 174/278/143
f 181/279/144 182/275/144 174/278/144 178/280/144
f 183/281/145 184/271/145 173/274/145 176/282/145
f 170/273/146 185/272/146 194/283/146 192/284/146
f 39/240/147 157/239/147 167/285/147 161/286/147
f 159/264/148 158/247/148 168/258/148 169/287/148
f 151/249/149 159/265/149 169/288/149 163/260/149
f 46/266/150 39/240/150 161/286/150 160/289/150
f 155/290/151 152/291/151 175/292/151 174/293/151
f 171/294/152 172/295/152 173/296/152 170/297/152
f 174/293/153 175/292/153 172/295/153 178/298/153
f 175/292/154 152/291/154 177/299/154 176/300/154
f 178/298/155 172/295/155 171/294/155 179/301/155
f 172/295/156 175/292/156 176/300/156 173/296/156
f 189/302/157 181/279/157 178/280/157 179/303/157
f 189/302/158 179/303/158 193/304/158 195/305/158
f 180/306/159 188/267/159 152/270/159 155/307/159
f 187/308/160 183/281/160 176/282/160 177/309/160
f 167/263/161 166/259/161 183/281/161 187/308/161
f 160/289/162 161/286/162 188/267/162 180/306/162
f 163/260/163 169/288/163 189/310/163 186/311/163
f 169/287/164 168/258/164 181/279/164 189/302/164
f 162/261/165 163/260/165 186/311/165 185/312/165
f 166/259/166 164/255/166 184/271/166 183/281/166
f 168/258/167 165/257/167 182/275/167 181/279/167
f 165/257/168 160/256/168 180/276/168 182/275/168
f 164/255/169 162/254/169 185/272/169 184/271/169
f 161/286/170 167/285/170 187/268/170 188/267/170
f 194/313/171 190/314/171 191/315/171 192/316/171
f 190/314/172 195/317/172 193/318/172 191/315/172
f 185/319/173 186/320/173 190/321/173 194/322/173
f 171/294/174 170/297/174 192/323/174 191/324/174
f 186/320/175 189/325/175 195/326/175 190/321/175
f 179/301/176 171/294/176 191/324/176 193/327/176
f 196/328/177 197/329/177 200/330/177 199/331/177
f 200/330/178 201/124/178 204/123/178 203/332/178
f 197/329/179 198/333/179 201/124/179 200/330/179
f 199/331/180 200/330/180 203/332/180 202/334/180
f 7/42/181 3/111/181 198/110/181 197/43/181
f 17/7/182 4/6/182 196/335/182 199/336/182
f 201/124/183 198/333/183 213/337/183 211/125/183
f 21/33/184 17/7/184 199/336/184 202/338/184
f 208/4/185 209/3/185 217/339/185 216/340/185
f 210/341/186 206/342/186 214/343/186 218/344/186
f 207/112/187 208/345/187 216/346/187 215/347/187
f 211/125/188 213/337/188 221/348/188 219/349/188
f 20/35/189 204/38/189 212/350/189 206/342/189
f 91/48/190 20/35/190 206/342/190 210/341/190
f 98/2/191 91/351/191 210/352/191 209/3/191
f 3/111/192 116/353/192 208/345/192 207/112/192
f 232/354/193 235/355/193 222/356/193 226/357/193
f 233/358/194 224/359/194 240/360/194 241/361/194
f 16/362/195 230/363/195 229/364/195 227/365/195
f 231/366/196 232/367/196 226/368/196 225/369/196
f 213/113/197 207/112/197 215/347/197 221/370/197
f 206/342/198 212/350/198 220/371/198 214/343/198
f 212/126/199 211/125/199 219/349/199 220/372/199
f 209/3/200 210/352/200 218/373/200 217/339/200
f 223/374/201 205/375/201 227/376/201 229/377/201
f 223/374/202 224/378/202 225/379/202 205/375/202
f 205/375/203 225/379/203 226/380/203 222/381/203
f 205/375/204 222/381/204 228/382/204 227/376/204
f 233/358/205 231/366/205 225/369/205 224/359/205
f 229/364/206 230/363/206 237/383/206 238/384/206
f 235/355/207 236/385/207 228/386/207 222/356/207
f 236/387/208 16/362/208 227/365/208 228/388/208
f 250/389/209 243/390/209 16/362/209 236/387/209
f 249/391/210 250/392/210 236/385/210 235/355/210
f 246/393/211 245/394/211 234/395/211 230/396/211
f 248/397/212 244/398/212 231/366/212 233/358/212
f 244/398/213 247/399/213 232/367/213 231/366/213
f 243/390/214 246/400/214 230/363/214 16/362/214
f 245/394/215 248/401/215 233/402/215 234/395/215
f 247/403/216 249/391/216 235/355/216 232/354/216
f 242/404/217 241/405/217 240/406/217 239/407/217
f 237/408/218 242/404/218 239/407/218 238/409/218
f 234/410/219 233/411/219 241/412/219 242/413/219
f 224/378/220 223/374/220 239/414/220 240/415/220
f 230/416/221 234/410/221 242/413/221 237/417/221
f 223/374/222 229/377/222 238/418/222 239/414/222
f 218/344/223 214/343/223 249/391/223 247/403/223
f 215/347/224 216/346/224 248/401/224 245/394/224
f 219/349/225 221/348/225 246/400/225 243/390/225
f 217/339/226 218/373/226 247/399/226 244/398/226
f 216/340/227 217/339/227 244/398/227 248/397/227
f 221/370/228 215/347/228 245/394/228 246/393/228
f 214/343/229 220/371/229 250/392/229 249/391/229
f 220/372/230 219/349/230 243/390/230 250/389/230
f 252/419/231 251/420/231 254/421/231 253/422/231
f 255/423/232 257/424/232 252/425/232 253/426/232
f 258/427/233 256/428/233 254/421/233 251/420/233
f 24/107/234 90/34/234 256/429/234 258/430/234
f 89/45/235 26/119/235 257/431/235 255/432/235
f 90/46/236 89/45/236 255/432/236 256/428/236
f 84/433/237 85/434/237 260/134/237 259/133/237
f 275/435/238 84/433/238 259/133/238 261/172/238
f 85/434/239 276/436/239 262/149/239 260/134/239
f 276/436/240 284/437/240 283/438/240 275/435/240 261/172/240 262/149/240
f 84/439/241 275/440/241 279/441/241 263/442/241
f 266/443/242 264/444/242 278/445/242 280/446/242
f 276/436/243 85/434/243 267/447/243 282/448/243
f 278/449/244 264/450/244 265/451/244 277/452/244
f 277/452/245 265/451/245 263/442/245 279/441/245
f 266/443/246 280/446/246 281/453/246 268/454/246
f 268/454/247 281/453/247 282/448/247 267/447/247
f 85/455/248 84/456/248 263/457/248 265/458/248 264/459/248 266/460/248 268/461/248 267/462/248
f 106/463/249 284/464/249 276/465/249
f 271/466/250 269/467/250 278/468/250 277/469/250
f 270/470/251 271/466/251 277/469/251 279/471/251
f 273/202/252 274/201/252 281/472/252 280/473/252
f 274/201/253 272/474/253 282/475/253 281/472/253
f 269/467/254 273/202/254 280/473/254 278/468/254
f 111/476/255 270/470/255 279/471/255 275/477/255
f 272/474/256 106/463/256 276/465/256 282/475/256
f 285/478/257 286/479/257 292/480/257 291/204/257 290/203/257 288/481/257 287/482/257 289/483/257
f 283/484/258 111/476/258 275/477/258
f 270/470/259 111/476/259 285/478/259 289/483/259
f 294/485/260 286/479/260 285/478/260 293/486/260
f 111/476/261 283/484/261 293/486/261 285/478/261
f 106/463/262 272/474/262 292/480/262 286/479/262
f 272/474/263 274/201/263 291/204/263 292/480/263
f 269/467/264 271/466/264 287/482/264 288/481/264
f 283/438/265 284/437/265 294/487/265 293/488/265
f 273/202/266 269/467/266 288/481/266 290/203/266
f 284/464/267 106/463/267 286/479/267 294/485/267
f 271/466/268 270/470/268 289/483/268 287/482/268
f 297/489/269 295/490/269 36/491/269 100/492/269
f 296/208/270 298/493/270 104/198/270 301/197/270
f 101/494/271 298/493/271 296/208/271 35/207/271
f 36/196/272 302/495/272 303/496/272 301/197/272
f 299/497/273 296/498/273 301/499/273 303/500/273
f 295/490/274 300/501/274 302/502/274 36/491/274
f 298/184/275 297/183/275 100/503/275 104/504/275
f 385/1/276 474/4/276 475/3/276 372/2/276
f 384/505/277 371/506/277 314/507/277 307/508/277
f 306/9/278 309/12/278 312/11/278 308/10/278
f 308/10/279 312/11/279 310/14/279 307/13/279
f 312/11/280 311/16/280 305/15/280 310/14/280
f 309/12/281 304/17/281 311/16/281 312/11/281
f 304/17/282 321/19/282 324/18/282 311/16/282
f 383/509/283 361/510/283 321/511/283 304/512/283
f 385/513/284 380/514/284 309/515/284 306/516/284
f 380/514/285 383/509/285 304/512/285 309/515/285
f 384/505/286 373/517/286 15/29/286 6/28/286
f 373/517/287 382/518/287 12/31/287 15/29/287
f 371/506/288 366/519/288 316/520/288 314/507/288
f 315/521/289 470/522/289 469/523/289 318/524/289
f 385/513/290 372/525/290 18/39/290 5/28/290
f 307/526/291 462/527/291 463/528/291 308/529/291
f 365/530/292 318/524/292 316/531/292 366/532/292
f 367/533/293 315/521/293 318/524/293 365/530/293
f 318/524/294 469/523/294 468/534/294 316/531/294
f 372/525/295 367/535/295 23/50/295 18/39/295
f 328/52/296 397/55/296 400/54/296 333/53/296
f 399/56/297 412/59/297 410/58/297 402/57/297
f 382/518/298 360/536/298 34/60/298 12/31/298
f 311/16/299 324/18/299 322/62/299 305/15/299
f 321/537/300 396/538/300 395/539/300 324/540/300
f 355/541/301 353/542/301 48/69/301 41/68/301
f 360/536/302 355/541/302 41/68/302 34/60/302
f 361/543/303 406/544/303 407/545/303 321/537/303
f 324/540/304 395/539/304 394/546/304 322/547/304
f 353/542/305 348/548/305 56/76/305 48/69/305
f 354/78/306 414/81/306 411/80/306 359/79/306
f 396/82/307 413/83/307 412/59/307 399/56/307
f 6/28/308 19/39/308 371/506/308 384/505/308
f 340/84/309 345/87/309 344/86/309 339/85/309
f 349/549/310 347/550/310 345/551/310 340/552/310
f 11/92/311 33/93/311 361/510/311 383/509/311
f 5/28/312 14/29/312 380/514/312 385/513/312
f 14/29/313 11/92/313 383/509/313 380/514/313
f 405/553/314 408/554/314 409/555/314 340/556/314
f 322/62/315 394/98/315 397/55/315 328/52/315
f 307/508/316 310/557/316 373/517/316 384/505/316
f 345/87/317 352/101/317 351/100/317 344/86/317
f 347/550/318 342/558/318 352/559/318 345/551/318
f 310/557/319 305/560/319 382/518/319 373/517/319
f 348/548/320 346/561/320 63/105/320 56/76/320
f 19/39/321 24/107/321 366/519/321 371/506/321
f 339/85/322 344/86/322 343/109/322 338/108/322
f 464/562/323 479/563/323 473/564/323 306/565/323
f 520/114/324 518/117/324 517/116/324 519/115/324
f 23/118/325 367/533/325 365/530/325 26/119/325
f 351/100/326 357/122/326 356/121/326 350/120/326
f 470/123/327 478/126/327 477/125/327 467/124/327
f 346/561/328 341/566/328 72/127/328 63/105/328
f 33/93/329 40/68/329 359/567/329 361/510/329
f 344/86/330 351/100/330 350/120/330 343/109/330
f 305/560/331 322/568/331 360/536/331 382/518/331
f 328/569/332 333/570/332 353/542/332 355/541/332
f 357/122/333 522/134/333 521/133/333 356/121/333
f 322/568/334 328/569/334 355/541/334 360/536/334
f 336/571/335 332/572/335 88/137/335 80/136/335
f 342/558/336 337/573/336 358/574/336 352/559/336
f 352/101/337 358/141/337 357/122/337 351/100/337
f 333/570/338 338/575/338 348/548/338 353/542/338
f 341/566/339 336/571/339 80/136/339 72/127/339
f 320/576/340 330/577/340 96/145/340 110/144/340
f 40/68/341 47/69/341 354/578/341 359/567/341
f 379/148/342 370/151/342 369/150/342 524/149/342
f 323/579/343 331/580/343 370/581/343 379/582/343
f 55/156/344 62/157/344 347/550/344 349/549/344
f 337/573/345 335/583/345 364/584/345 358/574/345
f 358/141/346 364/160/346 522/134/346 357/122/346
f 47/69/347 55/156/347 349/549/347 354/578/347
f 391/161/348 376/164/348 375/163/348 392/162/348
f 389/585/349 327/586/349 376/587/349 391/588/349
f 62/157/350 71/169/350 342/558/350 347/550/350
f 338/575/351 343/589/351 346/561/351 348/548/351
f 343/589/352 350/590/352 341/566/352 346/561/352
f 524/149/353 369/150/353 368/173/353 523/172/353
f 356/591/354 521/592/354 332/593/354 336/594/354
f 71/169/355 79/178/355 337/573/355 342/558/355
f 327/586/356 103/181/356 105/180/356 325/595/356
f 392/162/357 375/163/357 560/184/357 559/183/357 393/182/357
f 350/590/358 356/596/358 336/571/358 341/566/358
f 523/597/359 368/598/359 330/577/359 320/576/359
f 107/188/360 95/189/360 331/580/360 323/579/360
f 393/599/361 559/600/361 557/601/361 390/602/361
f 79/178/362 87/194/362 335/583/362 337/573/362
f 374/603/363 377/604/363 561/605/363 326/606/363
f 126/199/364 103/181/364 327/586/364 389/585/364
f 376/587/365 327/586/365 325/595/365 375/607/365
f 536/608/366 553/609/366 552/610/366 535/611/366
f 390/602/367 557/601/367 300/206/367 125/205/367
f 335/583/368 323/579/368 379/582/368 364/584/368
f 364/160/369 379/148/369 524/149/369 522/134/369
f 325/612/370 105/210/370 299/209/370 558/613/370
f 332/593/371 320/576/371 110/144/371 88/211/371
f 369/614/372 387/615/372 388/616/372 368/598/372
f 87/194/373 107/188/373 323/579/373 335/583/373
f 330/577/374 319/617/374 113/215/374 96/145/374
f 521/618/375 523/619/375 320/620/375 332/572/375
f 368/598/376 388/616/376 319/617/376 330/577/376
f 95/189/377 118/221/377 317/621/377 331/580/377
f 331/580/378 317/621/378 386/622/378 370/581/378
f 370/151/379 386/224/379 387/223/379 369/150/379
f 388/616/380 393/599/380 390/602/380 319/617/380
f 118/221/381 126/199/381 389/585/381 317/621/381
f 387/223/382 392/162/382 393/182/382 388/225/382
f 319/617/383 390/602/383 125/205/383 113/215/383
f 317/621/384 389/585/384 391/588/384 386/622/384
f 386/224/385 391/161/385 392/162/385 387/223/385
f 396/82/386 399/56/386 398/227/386 395/226/386
f 398/227/387 401/228/387 400/54/387 397/55/387
f 395/226/388 398/227/388 397/55/388 394/98/388
f 401/228/389 404/230/389 403/229/389 400/54/389
f 399/56/390 402/57/390 401/228/390 398/227/390
f 402/57/391 405/231/391 404/230/391 401/228/391
f 338/623/392 403/624/392 404/625/392 339/626/392
f 333/53/393 400/54/393 403/229/393 338/108/393
f 340/556/394 409/555/394 415/627/394 349/628/394
f 339/626/395 404/625/395 405/553/395 340/556/395
f 407/545/396 329/629/396 423/630/396 413/631/396
f 410/58/397 419/243/397 416/242/397 408/241/397
f 411/80/398 420/246/398 334/245/398 406/244/398
f 414/81/399 424/247/399 420/246/399 411/80/399
f 412/59/400 422/248/400 419/243/400 410/58/400
f 408/554/401 416/632/401 417/633/401 409/555/401
f 402/57/402 410/58/402 408/241/402 405/231/402
f 349/251/403 415/252/403 414/81/403 354/78/403
f 321/537/404 407/545/404 413/631/404 396/538/404
f 359/79/405 411/80/405 406/244/405 361/253/405
f 419/243/406 430/255/406 428/254/406 416/242/406
f 420/246/407 431/257/407 426/256/407 334/245/407
f 424/247/408 434/258/408 431/257/408 420/246/408
f 422/248/409 432/259/409 430/255/409 419/243/409
f 416/632/410 428/634/410 429/635/410 417/633/410
f 423/262/411 433/263/411 432/259/411 422/248/411
f 415/252/412 425/264/412 424/247/412 414/81/412
f 409/555/413 417/633/413 425/636/413 415/627/413
f 406/544/414 334/637/414 329/629/414 407/545/414
f 413/83/415 423/262/415 422/248/415 412/59/415
f 454/638/416 418/639/416 443/640/416 453/641/416
f 450/271/417 439/274/417 436/273/417 451/272/417
f 448/275/418 440/278/418 421/277/418 446/276/418
f 447/279/419 444/280/419 440/278/419 448/275/419
f 449/281/420 442/282/420 439/274/420 450/271/420
f 436/273/421 458/284/421 460/283/421 451/272/421
f 329/629/422 427/642/422 433/643/422 423/630/422
f 425/264/423 435/287/423 434/258/423 424/247/423
f 417/633/424 429/635/424 435/644/424 425/636/424
f 334/637/425 426/645/425 427/642/425 329/629/425
f 421/646/426 440/647/426 441/648/426 418/649/426
f 437/650/427 436/651/427 439/652/427 438/653/427
f 440/647/428 444/654/428 438/653/428 441/648/428
f 441/648/429 442/655/429 443/656/429 418/649/429
f 444/654/430 445/657/430 437/650/430 438/653/430
f 438/653/431 439/652/431 442/655/431 441/648/431
f 455/302/432 445/303/432 444/280/432 447/279/432
f 455/302/433 461/305/433 459/304/433 445/303/433
f 446/658/434 421/659/434 418/639/434 454/638/434
f 453/308/435 443/309/435 442/282/435 449/281/435
f 433/263/436 453/308/436 449/281/436 432/259/436
f 426/645/437 446/658/437 454/638/437 427/642/437
f 429/635/438 452/660/438 455/661/438 435/644/438
f 435/287/439 455/302/439 447/279/439 434/258/439
f 428/634/440 451/662/440 452/660/440 429/635/440
f 432/259/441 449/281/441 450/271/441 430/255/441
f 434/258/442 447/279/442 448/275/442 431/257/442
f 431/257/443 448/275/443 446/276/443 426/256/443
f 430/255/444 450/271/444 451/272/444 428/254/444
f 427/642/445 454/638/445 453/641/445 433/643/445
f 460/663/446 458/664/446 457/665/446 456/666/446
f 456/666/447 457/665/447 459/667/447 461/668/447
f 451/669/448 460/670/448 456/671/448 452/672/448
f 437/650/449 457/673/449 458/674/449 436/651/449
f 452/672/450 456/671/450 461/675/450 455/676/450
f 445/657/451 459/677/451 457/673/451 437/650/451
f 462/328/452 465/331/452 466/330/452 463/329/452
f 466/330/453 469/332/453 470/123/453 467/124/453
f 463/329/454 466/330/454 467/124/454 464/333/454
f 465/331/455 468/334/455 469/332/455 466/330/455
f 308/529/456 463/528/456 464/562/456 306/565/456
f 314/507/457 465/678/457 462/679/457 307/508/457
f 467/124/458 477/125/458 479/337/458 464/333/458
f 316/520/459 468/680/459 465/678/459 314/507/459
f 474/4/460 482/340/460 483/339/460 475/3/460
f 476/681/461 484/682/461 480/683/461 472/684/461
f 473/564/462 481/685/462 482/686/462 474/687/462
f 477/125/463 485/349/463 487/348/463 479/337/463
f 315/521/464 472/684/464 478/688/464 470/522/464
f 367/533/465 476/681/465 472/684/465 315/521/465
f 372/2/466 475/3/466 476/352/466 367/351/466
f 306/565/467 473/564/467 474/687/467 385/689/467
f 498/690/468 492/691/468 488/692/468 501/693/468
f 499/358/469 507/361/469 506/360/469 490/359/469
f 313/362/470 493/365/470 495/364/470 496/363/470
f 497/366/471 491/369/471 492/368/471 498/367/471
f 479/563/472 487/694/472 481/685/472 473/564/472
f 472/684/473 480/683/473 486/695/473 478/688/473
f 478/126/474 486/372/474 485/349/474 477/125/474
f 475/3/475 483/339/475 484/373/475 476/352/475
f 489/696/476 495/697/476 493/698/476 471/699/476
f 489/696/477 471/699/477 491/700/477 490/701/477
f 471/699/478 488/702/478 492/703/478 491/700/478
f 471/699/479 493/698/479 494/704/479 488/702/479
f 499/358/480 490/359/480 491/369/480 497/366/480
f 495/364/481 504/384/481 503/383/481 496/363/481
f 501/693/482 488/692/482 494/705/482 502/706/482
f 502/387/483 494/388/483 493/365/483 313/362/483
f 516/389/484 502/387/484 313/362/484 509/390/484
f 515/707/485 501/693/485 502/706/485 516/708/485
f 512/709/486 496/710/486 500/711/486 511/712/486
f 514/397/487 499/358/487 497/366/487 510/398/487
f 510/398/488 497/366/488 498/367/488 513/399/488
f 509/390/489 313/362/489 496/363/489 512/400/489
f 511/712/490 500/711/490 499/713/490 514/714/490
f 513/715/491 498/690/491 501/693/491 515/707/491
f 508/716/492 505/717/492 506/718/492 507/719/492
f 503/720/493 504/721/493 505/717/493 508/716/493
f 500/722/494 508/723/494 507/724/494 499/725/494
f 490/701/495 506/726/495 505/727/495 489/696/495
f 496/728/496 503/729/496 508/723/496 500/722/496
f 489/696/497 505/727/497 504/730/497 495/697/497
f 484/682/498 513/715/498 515/707/498 480/683/498
f 481/685/499 511/712/499 514/714/499 482/686/499
f 485/349/500 509/390/500 512/400/500 487/348/500
f 483/339/501 510/398/501 513/399/501 484/373/501
f 482/340/502 514/397/502 510/398/502 483/339/502
f 487/694/503 512/709/503 511/712/503 481/685/503
f 480/683/504 515/707/504 516/708/504 486/695/504
f 486/372/505 516/389/505 509/390/505 485/349/505
f 252/419/506 517/731/506 518/732/506 251/420/506
f 519/733/507 517/734/507 252/425/507 257/424/507
f 258/427/508 251/420/508 518/732/508 520/735/508
f 24/107/509 258/430/509 520/736/509 366/519/509
f 365/530/510 519/737/510 257/431/510 26/119/510
f 366/532/511 520/735/511 519/737/511 365/530/511
f 362/433/512 521/133/512 522/134/512 363/434/512
f 537/435/513 523/172/513 521/133/513 362/433/513
f 363/434/514 522/134/514 524/149/514 538/436/514
f 538/436/515 524/149/515 523/172/515 537/435/515 545/438/515 546/437/515
f 362/738/516 525/739/516 541/740/516 537/741/516
f 528/443/517 542/446/517 540/445/517 526/444/517
f 538/436/518 544/448/518 529/447/518 363/434/518
f 540/742/519 539/743/519 527/744/519 526/745/519
f 539/743/520 541/740/520 525/739/520 527/744/520
f 528/443/521 530/454/521 543/453/521 542/446/521
f 530/454/522 529/447/522 544/448/522 543/453/522
f 363/746/523 529/747/523 530/748/523 528/749/523 526/750/523 527/751/523 525/752/523 362/753/523
f 378/754/524 538/755/524 546/756/524
f 533/757/525 539/758/525 540/759/525 531/760/525
f 532/761/526 541/762/526 539/758/526 533/757/526
f 535/611/527 542/763/527 543/764/527 536/608/527
f 536/608/528 543/764/528 544/765/528 534/766/528
f 531/760/529 540/759/529 542/763/529 535/611/529
f 381/767/530 537/768/530 541/762/530 532/761/530
f 534/766/531 544/765/531 538/755/531 378/754/531
f 547/769/532 551/770/532 549/771/532 550/772/532 552/610/532 553/609/532 554/773/532 548/774/532
f 545/775/533 537/768/533 381/767/533
f 532/761/534 551/770/534 547/769/534 381/767/534
f 556/776/535 555/777/535 547/769/535 548/774/535
f 381/767/536 547/769/536 555/777/536 545/775/536
f 378/754/537 548/774/537 554/773/537 534/766/537
f 534/766/538 554/773/538 553/609/538 536/608/538
f 531/760/539 550/772/539 549/771/539 533/757/539
f 545/438/540 555/488/540 556/487/540 546/437/540
f 535/611/541 552/610/541 550/772/541 531/760/541
f 546/756/542 556/776/542 548/774/542 378/754/542
f 533/757/543 549/771/543 551/770/543 532/761/543
f 559/778/544 374/779/544 326/780/544 557/781/544
f 558/613/545 561/605/545 377/604/545 560/782/545
f 375/783/546 325/612/546 558/613/546 560/782/546
f 326/606/547 561/605/547 303/496/547 302/495/547
f 299/497/548 303/500/548 561/784/548 558/785/548
f 557/781/549 326/780/549 302/502/549 300/501/549
f 560/184/550 377/504/550 374/503/550 559/183/550
f 562/786/551 575/787/551 574/788/551
f 563/789/552 575/790/552 577/791/552
f 562/792/553 574/793/553 579/794/553
f 562/795/554 579/796/554 581/797/554
f 562/798/555 581/799/555 578/800/555
f 563/789/556 577/791/556 584/801/556
f 564/802/557 576/803/557 586/804/557
f 565/805/558 580/806/558 588/807/558
f 566/808/559 582/809/559 590/810/559
f 567/811/560 583/812/560 592/813/560
f 563/789/561 584/801/561 587/814/561
f 564/802/562 586/804/562 589/815/562
f 565/805/563 588/807/563 591/816/563
f 566/808/564 590/810/564 593/817/564
f 567/811/565 592/813/565 585/818/565
f 568/819/566 594/820/566 599/821/566
f 569/822/567 595/823/567 601/824/567
f 570/825/568 596/826/568 602/827/568
f 571/828/569 597/829/569 603/830/569
f 572/831/570 598/832/570 600/833/570
f 600/833/571 603/834/571 573/835/571
f 600/833/572 598/832/572 603/834/572
f 598/832/573 571/828/573 603/834/573
f 603/830/574 602/836/574 573/837/574
f 603/830/575 597/829/575 602/836/575
f 597/829/576 570/825/576 602/836/576
f 602/827/577 601/838/577 573/839/577
f 602/827/578 596/826/578 601/838/578
f 596/826/579 569/840/579 601/838/579
f 601/824/580 599/841/580 573/842/580
f 601/824/581 595/823/581 599/841/581
f 595/823/582 568/819/582 599/841/582
f 599/821/583 600/843/583 573/844/583
f 599/821/584 594/820/584 600/843/584
f 594/820/585 572/831/585 600/843/585
f 585/818/586 598/832/586 572/831/586
f 585/818/587 592/813/587 598/832/587
f 592/813/588 571/828/588 598/832/588
f 593/817/589 597/829/589 571/828/589
f 593/817/590 590/810/590 597/829/590
f 590/810/591 570/825/591 597/829/591
f 591/816/592 596/826/592 570/825/592
f 591/816/593 588/807/593 596/826/593
f 588/807/594 569/840/594 596/826/594
f 589/815/595 595/823/595 569/822/595
f 589/815/596 586/804/596 595/823/596
f 586/804/597 568/819/597 595/823/597
f 587/814/598 594/820/598 568/819/598
f 587/814/599 584/801/599 594/820/599
f 584/801/600 572/831/600 594/820/600
f 592/813/601 593/817/601 571/828/601
f 592/813/602 583/812/602 593/817/602
f 583/812/603 566/808/603 593/817/603
f 590/810/604 591/816/604 570/825/604
f 590/810/605 582/809/605 591/816/605
f 582/809/606 565/805/606 591/816/606
f 588/807/607 589/845/607 569/840/607
f 588/807/608 580/806/608 589/845/608
f 580/806/609 564/846/609 589/845/609
f 586/804/610 587/814/610 568/819/610
f 586/804/611 576/803/611 587/814/611
f 576/803/612 563/789/612 587/814/612
f 584/801/613 585/818/613 572/831/613
f 584/801/614 577/791/614 585/818/614
f 577/791/615 567/811/615 585/818/615
f 578/800/616 583/812/616 567/811/616
f 578/800/617 581/799/617 583/812/617
f 581/799/618 566/808/618 583/812/618
f 581/797/619 582/809/619 566/808/619
f 581/797/620 579/796/620 582/809/620
f 579/796/621 565/805/621 582/809/621
f 579/794/622 580/806/622 565/805/622
f 579/794/623 574/793/623 580/806/623
f 574/793/624 564/846/624 580/806/624
f 577/791/625 578/847/625 567/811/625
f 577/791/626 575/790/626 578/847/626
f 575/790/627 562/848/627 578/847/627
f 574/788/628 576/803/628 564/802/628
f 574/788/629 575/787/629 576/803/629
f 575/787/630 563/789/630 576/803/630
f 604/786/631 616/788/631 617/787/631
f 605/789/632 619/791/632 617/790/632
f 604/792/633 621/794/633 616/793/633
f 604/795/634 623/797/634 621/796/634
f 604/798/635 620/800/635 623/799/635
f 605/789/636 626/801/636 619/791/636
f 606/802/637 628/804/637 618/803/637
f 607/805/638 630/807/638 622/806/638
f 608/808/639 632/810/639 624/809/639
f 609/811/640 634/813/640 625/812/640
f 605/789/641 629/814/641 626/801/641
f 606/802/642 631/815/642 628/804/642
f 607/805/643 633/816/643 630/807/643
f 608/808/644 635/817/644 632/810/644
f 609/811/645 627/818/645 634/813/645
f 610/819/646 641/821/646 636/820/646
f 611/822/647 643/824/647 637/823/647
f 612/825/648 644/827/648 638/826/648
f 613/828/649 645/830/649 639/829/649
f 614/831/650 642/833/650 640/832/650
f 642/833/651 615/835/651 645/834/651
f 642/833/652 645/834/652 640/832/652
f 640/832/653 645/834/653 613/828/653
f 645/830/654 615/837/654 644/836/654
f 645/830/655 644/836/655 639/829/655
f 639/829/656 644/836/656 612/825/656
f 644/827/657 615/839/657 643/838/657
f 644/827/658 643/838/658 638/826/658
f 638/826/659 643/838/659 611/840/659
f 643/824/660 615/842/660 641/841/660
f 643/824/661 641/841/661 637/823/661
f 637/823/662 641/841/662 610/819/662
f 641/821/663 615/844/663 642/843/663
f 641/821/664 642/843/664 636/820/664
f 636/820/665 642/843/665 614/831/665
f 627/818/666 614/831/666 640/832/666
f 627/818/667 640/832/667 634/813/667
f 634/813/668 640/832/668 613/828/668
f 635/817/669 613/828/669 639/829/669
f 635/817/670 639/829/670 632/810/670
f 632/810/671 639/829/671 612/825/671
f 633/816/672 612/825/672 638/826/672
f 633/816/673 638/826/673 630/807/673
f 630/807/674 638/826/674 611/840/674
f 631/815/675 611/822/675 637/823/675
f 631/815/676 637/823/676 628/804/676
f 628/804/677 637/823/677 610/819/677
f 629/814/678 610/819/678 636/820/678
f 629/814/679 636/820/679 626/801/679
f 626/801/680 636/820/680 614/831/680
f 634/813/681 613/828/681 635/817/681
f 634/813/682 635/817/682 625/812/682
f 625/812/683 635/817/683 608/808/683
f 632/810/684 612/825/684 633/816/684
f 632/810/685 633/816/685 624/809/685
f 624/809/686 633/816/686 607/805/686
f 630/807/687 611/840/687 631/845/687
f 630/807/688 631/845/688 622/806/688
f 622/806/689 631/845/689 606/846/689
f 628/804/690 610/819/690 629/814/690
f 628/804/691 629/814/691 618/803/691
f 618/803/692 629/814/692 605/789/692
f 626/801/693 614/831/693 627/818/693
f 626/801/694 627/818/694 619/791/694
f 619/791/695 627/818/695 609/811/695
f 620/800/696 609/811/696 625/812/696
f 620/800/697 625/812/697 623/799/697
f 623/799/698 625/812/698 608/808/698
f 623/797/699 608/808/699 624/809/699
f 623/797/700 624/809/700 621/796/700
f 621/796/701 624/809/701 607/805/701
f 621/794/702 607/805/702 622/806/702
f 621/794/703 622/806/703 616/793/703
f 616/793/704 622/806/704 606/846/704
f 619/791/705 609/811/705 620/847/705
f 619/791/706 620/847/706 617/790/706
f 617/790/707 620/847/707 604/848/707
f 616/788/708 606/802/708 618/803/708
f 616/788/709 618/803/709 617/787/709
f 617/787/710 618/803/710 605/789/710
