# Blender 5.1.1
# www.blender.org
o Куб.001
v 0.532479 0.903589 0.645967
v 0.532479 2.425256 0.477298
v 0.602155 1.038190 -0.297453
v 0.619472 2.362269 -0.210908
v 0.000000 1.000999 -0.318869
v -0.000000 2.480862 -0.357245
v 0.708448 1.656574 -0.000129
v 0.609568 0.880819 0.112774
v 0.609568 2.443548 0.128786
v 0.649164 1.609998 0.514222
v -0.007471 0.936670 0.683252
v -0.000000 2.544096 0.544675
v 0.718728 1.650165 0.109454
v -0.001335 0.897573 0.188051
v -0.000000 2.614716 0.130571
v 0.820347 0.620866 -1.289427
v 0.537649 2.269986 -0.494957
v 0.000000 1.084713 -0.576270
v 0.000000 2.280686 -0.622767
v 0.464300 1.390779 -0.842357
v 0.464300 2.115176 -0.748179
v 0.090363 0.843441 3.159535
v 0.000000 1.202244 -0.796879
v -0.000000 2.103516 -0.887623
v 0.561879 1.743433 -0.876623
v 0.000000 1.590288 -0.915307
v 0.084677 1.236742 3.235292
v 0.172094 1.624673 3.044378
v 0.443329 1.022238 1.311271
v 0.500000 2.376712 0.889565
v 0.175772 0.866197 2.958742
v 0.609568 1.617985 0.885445
v -0.013138 0.968651 1.132701
v -0.000079 2.487059 0.979387
v 0.059274 0.855961 3.390777
v 0.033850 1.013645 3.457454
v 0.047665 0.809796 3.279783
v 0.570340 2.528199 1.239684
v 0.537046 0.468990 1.705911
v -0.009455 0.929442 1.479300
v 0.005782 2.646479 1.345361
v 0.118300 1.446279 3.229127
v 0.136209 0.842614 3.073257
v 0.177045 1.801973 2.822197
v 0.583003 2.528340 1.435916
v 0.443138 0.463717 1.766829
v -0.006405 0.972257 1.623074
v 0.002684 2.653042 1.544480
v 0.190837 0.897500 2.842297
v 0.177045 1.914279 2.650194
v 0.177045 0.933240 2.699988
v 0.540207 2.469419 1.719261
v 0.658585 1.832234 1.779143
v 0.539035 1.152176 2.060456
v -0.002341 1.069438 1.787054
v 0.000058 2.587679 1.817999
v 0.181751 2.061889 2.401101
v 0.181751 1.080782 2.337101
v 0.453446 2.247290 2.001875
v 0.552813 1.619666 1.937029
v 0.453446 1.363812 1.959926
v -0.000897 1.152561 1.922045
v 0.000000 2.337352 2.103075
v 0.227127 2.303801 2.070366
v 0.227127 1.250387 1.943538
v 0.271600 2.554620 1.765669
v 0.350340 1.097143 1.812018
v 0.364925 2.004287 2.356386
v 0.444893 1.433062 2.325316
v 0.364925 1.132170 2.277237
v 0.000000 1.046507 2.350421
v -0.000000 2.091171 2.403757
v 0.293614 2.618699 1.479477
v 0.293538 1.073397 1.710446
v 0.287356 2.615750 1.276953
v 0.355746 1.865182 2.607532
v 0.433703 1.379781 2.612852
v 0.355746 0.979705 2.647214
v 0.000000 0.906059 2.687875
v -0.000000 1.940579 2.637954
v 0.286729 1.082846 1.706516
v 0.250990 2.456718 0.911335
v 0.308650 1.043038 1.479928
v 0.372539 1.619807 2.783865
v 0.455708 1.410808 2.757312
v 0.382651 0.946844 2.796454
v 0.000000 0.870891 2.825446
v 0.000000 1.829935 2.802318
v 0.248975 1.652097 -0.902543
v 0.203268 2.100976 -0.850963
v 0.324482 1.323226 -0.802065
v 0.241143 1.418209 3.177005
v 0.339854 1.175764 3.080368
v 0.276080 0.878948 3.034632
v 0.000000 0.831862 3.038232
v 0.000000 1.469393 3.199639
v 0.249692 2.255198 -0.658985
v 0.282751 1.135044 -0.583610
v 0.307155 2.556681 0.094153
v 0.069124 1.014103 3.435258
v 0.125993 0.871123 3.352959
v 0.103346 0.835759 3.276559
v 0.000000 0.799669 3.288727
v 0.064203 0.962264 3.441239
v 0.000000 0.845970 3.386280
v 0.465527 1.454589 2.844479
v 0.000000 0.847570 2.934355
v 0.353261 0.909249 2.915107
v 0.307155 0.871240 0.090819
v 0.000000 1.655080 3.020074
v 0.402860 1.587450 2.867271
v 0.267639 2.510685 0.480969
v 0.000000 1.239346 3.234396
v 0.265505 0.886796 0.644952
v 0.301735 2.446894 -0.391744
v 0.356832 0.997113 -0.361353
v 0.186642 0.873376 3.122683
v 0.000000 0.839050 3.118494
v 0.210413 1.023438 3.216676
v 0.175549 1.202967 3.212797
v 0.070240 0.826201 3.214406
v 0.067630 1.089101 3.359687
v 0.139993 0.844850 3.206714
v 0.161300 0.948126 3.284211
v 0.000000 1.097383 3.348281
v 0.000000 0.819537 3.199673
v 0.134901 1.077971 3.328912
v 0.611508 2.242432 0.988170
v 0.707503 1.599154 0.953573
v 0.640027 1.089541 1.336824
v 0.671983 2.393262 1.229349
v 0.785151 1.589585 1.467273
v 0.799071 1.120182 1.787238
v 0.636691 2.421318 1.417285
v 0.799130 1.695205 1.610104
v 0.810537 1.147364 1.965077
v 0.641481 2.278455 1.583507
v 0.751887 1.819090 1.753706
v 0.743522 1.195626 2.080323
v 0.422389 0.662795 1.646162
v 0.520156 0.679626 1.566991
v 0.740165 0.738673 2.099810
v 0.590298 0.718703 2.146797
v 0.789690 0.708334 1.983643
v 0.403122 0.654210 1.881968
v 0.781212 0.695812 1.852380
v 0.664315 0.698213 1.560583
v 0.408045 0.661974 2.010803
v 0.451874 0.695616 2.080112
v 0.751867 0.490649 2.075706
v 0.603858 0.489018 2.120329
v 0.539167 0.013959 1.654599
v 0.802478 0.477471 1.984927
v 0.421492 0.460357 1.901611
v 0.424209 0.010960 1.713063
v 0.790913 0.470914 1.883285
v 0.674649 0.474135 1.709333
v 0.422991 0.469314 2.017490
v 0.466293 0.483262 2.088604
v 0.440455 0.273152 1.719343
v 0.544222 0.274959 1.664304
v 0.781058 0.286039 2.001920
v 0.619362 0.285214 2.043458
v 0.800757 0.276072 1.917841
v 0.422511 0.269579 1.842282
v 0.790360 0.271636 1.825389
v 0.697109 0.276106 1.667523
v 0.425708 0.275136 1.948870
v 0.469835 0.284727 2.014822
v 0.828207 -0.000083 2.011674
v 0.621882 -0.005015 2.053508
v 0.659523 0.001348 1.930153
v 0.824409 0.002759 1.923987
v 0.404384 0.003733 1.843521
v 0.648406 0.004303 1.823707
v 0.814343 0.004284 1.826770
v 0.708627 0.014187 1.658235
v 0.410191 0.001713 1.954599
v 0.428789 -0.000930 2.023362
v 0.429881 0.147212 1.717796
v 0.416356 0.145190 1.953762
v 0.410717 0.142733 1.844654
v 0.805621 0.143788 1.828150
v 0.815369 0.146576 1.923921
v 0.799205 0.206597 2.010780
v 0.624085 0.200846 2.056246
v 0.704600 0.149595 1.664526
v 0.540921 0.148945 1.661068
v 0.460607 0.204795 2.022061
v 0.621084 0.100930 2.188896
v 0.621882 -0.017276 2.188966
v 0.797987 -0.012397 2.146728
v 0.459263 -0.013678 2.158255
v 0.791173 0.106447 2.147147
v 0.464007 0.105238 2.158019
v 0.762347 2.216341 -0.262616
v 0.786894 1.665903 -0.101525
v 0.762347 1.088764 -0.361429
v 0.752301 2.152991 -0.502610
v 0.858109 1.723680 -0.584372
v 0.810121 1.223278 -0.583807
v 0.742126 2.048307 -0.708558
v 0.837789 1.749716 -0.800463
v 0.742126 1.382388 -0.805542
v 0.603063 0.539565 -1.504011
v 0.522568 1.121116 -0.996161
v 0.633096 0.857411 -0.459519
v 0.436403 0.869289 -0.519093
v 0.377007 0.980193 -0.748248
v 0.410466 1.096815 -0.956024
v 0.799837 0.996901 -0.743472
v 0.745320 1.103217 -0.964520
v 0.761533 0.892134 -0.527277
v 0.538878 0.970171 -1.012789
v 0.639562 0.485610 -0.874544
v 0.460388 0.546342 -0.895996
v 0.406281 0.778823 -0.923639
v 0.436760 0.940385 -0.993613
v 0.791452 0.765794 -0.911792
v 0.741792 0.943672 -0.990657
v 0.756560 0.551767 -0.880859
v 0.546194 0.768318 -1.555352
v 0.665640 0.324063 -1.454424
v 0.410744 0.372236 -1.476056
v 0.398616 0.561122 -1.517724
v 0.432539 0.734911 -1.551848
v 0.827306 0.551239 -1.504932
v 0.772035 0.737601 -1.547311
v 0.832083 0.377677 -1.464023
v 0.823188 0.449506 -1.237656
v 0.391657 0.629989 -1.302749
v 0.425580 0.801584 -1.346532
v 0.401848 0.443380 -1.249594
v 0.656744 0.396567 -1.224015
v 0.539235 0.834649 -1.352032
v 0.765075 0.804483 -1.342272
v 0.781513 0.283472 -1.322027
v 0.788472 0.243262 -1.431532
v 0.658255 0.189582 -1.421751
v 0.458836 0.237870 -1.443551
v 0.451877 0.277843 -1.333554
v 0.651295 0.230211 -1.309636
v 0.782484 0.701344 -1.086175
v 0.423258 0.709117 -1.095243
v 0.640825 0.478387 -1.029649
v 0.749942 0.530763 -1.043710
v 0.451684 0.863743 -1.126446
v 0.473720 0.525202 -1.052511
v 0.546923 0.892539 -1.131480
v 0.736168 0.866055 -1.122666
v -0.000000 1.964712 -0.963352
v -0.000000 1.715167 -1.003691
v 0.092420 1.733808 -0.967805
v 0.076591 1.955334 -0.937061
v 0.127605 1.725608 -0.919705
v 0.088882 2.048142 -0.898695
v -0.000000 1.692332 -0.956154
v -0.000000 2.059583 -0.930772
v 0.353936 1.747653 2.705770
v 0.462452 1.331880 2.720044
v 0.346085 1.579998 2.996250
v 0.469988 1.307686 2.923987
v 0.431634 1.659646 2.822766
v 0.509515 1.643899 2.839755
v 0.472450 1.667114 2.839535
v 0.537234 1.607831 2.830570
v 0.536419 1.522092 2.802064
v 0.550043 1.565691 2.817907
v 0.514399 1.606516 2.876064
v 0.455471 1.617342 2.878845
v 0.486059 1.622157 2.881048
v 0.527030 1.531980 2.856552
v 0.527210 1.591755 2.871103
v 0.537319 1.562709 2.862995
v 0.372831 1.597248 2.869293
v 0.460350 1.411316 2.835222
v 0.490673 1.646010 2.886502
v 0.529939 1.624160 2.880112
v 0.447174 1.639179 2.883809
v 0.548145 1.602967 2.873703
v 0.562047 1.562822 2.863094
v 0.548125 1.521203 2.854195
v 0.383871 1.572507 2.864670
v 0.450291 1.432822 2.839071
v 0.413090 1.571388 2.853153
v 0.458299 1.475785 2.836701
v 0.473111 1.596504 2.863102
v 0.493557 1.585295 2.859526
v 0.451044 1.593035 2.861502
v 0.502798 1.574703 2.855960
v 0.510091 1.553831 2.850134
v 0.502668 1.531807 2.845526
v 0.399391 1.560900 2.851322
v 0.447307 1.460043 2.832725
v 0.058900 1.025164 3.424889
v 0.055763 0.937805 3.436583
v 0.099802 1.027392 3.396809
v 0.095412 0.939784 3.409379
v 0.000000 0.938025 3.439626
v 0.000000 1.022810 3.428385
v 0.030579 0.961927 3.462753
v 0.000000 1.011786 3.456399
v 0.000000 0.961693 3.462143
v -0.548618 1.195014 0.599161
v -0.532750 2.435226 0.472952
v -0.602155 1.208104 0.109210
v -0.619472 2.369860 -0.234917
v -0.708448 1.786981 0.093331
v -0.616229 1.171921 0.326102
v -0.609568 2.456566 0.116371
v -0.654461 1.759346 0.514607
v -0.719011 1.797728 0.186238
v -0.820347 0.220776 -0.126924
v -0.537649 2.221597 -0.538042
v -0.464300 1.175716 -0.567419
v -0.464300 2.021664 -0.746215
v -0.090363 0.843441 3.159535
v -0.561879 1.588854 -0.780801
v -0.084677 1.236742 3.235292
v -0.172094 1.624680 3.044379
v -0.485407 1.251563 0.952362
v -0.502563 2.386017 0.889791
v -0.175772 0.866197 2.958742
v -0.623245 1.718932 0.848363
v -0.059274 0.855961 3.390777
v -0.033850 1.013645 3.457454
v -0.047665 0.809796 3.279783
v -0.566385 2.560315 1.239684
v -0.592843 0.715010 0.782954
v -0.118300 1.446279 3.229127
v -0.136209 0.842614 3.073257
v -0.177045 1.801974 2.822196
v -0.578706 2.563837 1.435916
v -0.496503 0.682415 0.829356
v -0.190837 0.897500 2.842297
v -0.177045 1.914279 2.650194
v -0.177045 0.933240 2.699988
v -0.540922 2.494836 1.719261
v -0.702339 1.752650 1.699956
v -0.578959 0.945019 1.647982
v -0.181751 2.061889 2.401101
v -0.181751 1.080782 2.337101
v -0.459603 2.242569 2.017444
v -0.567575 1.543470 1.898839
v -0.466252 1.270853 1.880021
v -0.227786 2.304041 2.070366
v -0.233434 1.200872 1.896677
v -0.270445 2.556502 1.765669
v -0.371106 1.008429 1.604478
v -0.364925 2.004287 2.356386
v -0.446471 1.418463 2.323050
v -0.364925 1.132169 2.277239
v -0.284234 2.627861 1.479477
v -0.316223 1.015260 1.489358
v -0.277147 2.626194 1.276953
v -0.355746 1.865182 2.607532
v -0.433703 1.379784 2.612857
v -0.355746 0.979707 2.647222
v -0.325247 1.064345 1.354969
v -0.251478 2.457889 0.911335
v -0.351637 1.151901 1.110692
v -0.372539 1.619805 2.783865
v -0.455708 1.410824 2.757324
v -0.382651 0.946847 2.796462
v -0.248975 1.595111 -0.875139
v -0.203268 2.083210 -0.852102
v -0.324482 1.157520 -0.543802
v -0.241143 1.418223 3.177010
v -0.339854 1.175764 3.080368
v -0.276080 0.878948 3.034632
v -0.249692 2.239037 -0.666951
v -0.282751 1.108689 -0.292534
v -0.307155 2.557863 0.092578
v -0.069124 1.014103 3.435258
v -0.125993 0.871123 3.352959
v -0.103346 0.835759 3.276559
v -0.064203 0.962264 3.441239
v -0.465527 1.454627 2.844496
v -0.353261 0.909249 2.915107
v -0.311130 1.040629 0.258377
v -0.402860 1.587525 2.867279
v -0.267620 2.510784 0.480969
v -0.280604 1.065475 0.600062
v -0.301735 2.444481 -0.401811
v -0.356832 1.094492 0.011621
v -0.186642 0.873376 3.122683
v -0.210413 1.023438 3.216676
v -0.175549 1.202967 3.212797
v -0.070240 0.826201 3.214406
v -0.067630 1.089101 3.359687
v -0.139993 0.844850 3.206714
v -0.161300 0.948126 3.284211
v -0.134901 1.077971 3.328912
v -0.623997 2.285960 0.990753
v -0.724831 1.706159 0.894380
v -0.685833 1.357906 0.980264
v -0.679492 2.448154 1.239374
v -0.831871 1.691197 1.299947
v -0.851121 1.145941 1.305515
v -0.641755 2.464275 1.420537
v -0.847270 1.719140 1.471105
v -0.863298 1.041755 1.451930
v -0.661085 2.321730 1.604959
v -0.799194 1.755106 1.665912
v -0.792737 0.985687 1.601345
v -0.478920 0.916018 0.884294
v -0.576179 0.981912 0.839549
v -0.794760 0.659939 1.258487
v -0.643455 0.609636 1.291959
v -0.844614 0.717894 1.153061
v -0.458568 0.751358 1.044519
v -0.836198 0.799771 1.049871
v -0.719984 1.003116 0.843178
v -0.461344 0.659662 1.158019
v -0.503020 0.624413 1.256355
v -0.794245 0.501472 1.094479
v -0.645111 0.482671 1.128842
v -0.566417 0.362165 0.482740
v -0.846989 0.541498 1.014411
v -0.469468 0.602016 0.936606
v -0.449048 0.336883 0.530014
v -0.838789 0.595942 0.928725
v -0.730169 0.707008 0.788779
v -0.467459 0.539494 1.034483
v -0.509015 0.504743 1.099345
v -0.482652 0.551051 0.683311
v -0.588645 0.574977 0.639055
v -0.810713 0.376802 0.923220
v -0.647823 0.366439 0.956619
v -0.832986 0.413396 0.849151
v -0.459144 0.480767 0.782562
v -0.826486 0.462141 0.770442
v -0.740970 0.561845 0.642478
v -0.458467 0.425395 0.872530
v -0.500570 0.392790 0.931495
v -0.837966 0.133572 0.776321
v -0.630260 0.124744 0.810250
v -0.673421 0.191701 0.708483
v -0.838121 0.182749 0.703226
v -0.423036 0.260932 0.635386
v -0.667170 0.252505 0.619090
v -0.832440 0.237554 0.621630
v -0.735184 0.346739 0.485904
v -0.423848 0.198746 0.728407
v -0.439271 0.158604 0.785574
v -0.463736 0.448487 0.610605
v -0.439591 0.317310 0.805250
v -0.438648 0.375775 0.713282
v -0.833081 0.354052 0.700340
v -0.838715 0.302614 0.781237
v -0.822767 0.305946 0.886802
v -0.646082 0.293585 0.921299
v -0.740127 0.458166 0.567950
v -0.577086 0.472670 0.564654
v -0.484650 0.325534 0.895187
v -0.630921 0.142864 0.980782
v -0.623700 0.043375 0.919040
v -0.801292 0.054718 0.884930
v -0.463083 0.074737 0.894000
v -0.802502 0.154539 0.947757
v -0.475809 0.173562 0.956133
v -0.762347 2.231111 -0.306485
v -0.786894 1.779159 0.010468
v -0.762347 1.216564 0.029659
v -0.752301 2.093779 -0.517846
v -0.858109 1.654245 -0.458818
v -0.810121 1.185844 -0.226331
v -0.742126 1.927402 -0.686464
v -0.837789 1.593203 -0.676857
v -0.742126 1.176908 -0.504517
v -0.603063 -0.007956 -0.109682
v -0.522568 0.831042 -0.498333
v -0.633096 1.002853 0.095357
v -0.436403 0.967162 0.031158
v -0.377007 0.898403 -0.221639
v -0.410466 0.840196 -0.452899
v -0.799837 0.913898 -0.211356
v -0.745320 0.841869 -0.458529
v -0.761533 0.985219 0.023615
v -0.538878 0.648488 -0.414133
v -0.639562 0.552005 0.137167
v -0.460388 0.555092 0.070374
v -0.406281 0.614224 -0.165680
v -0.436760 0.643449 -0.373893
v -0.791452 0.620923 -0.148142
v -0.741792 0.648526 -0.375263
v -0.756560 0.570137 0.070854
v -0.546194 0.002645 -0.346426
v -0.665640 -0.004577 0.111491
v -0.410744 -0.019374 0.058483
v -0.398616 -0.015879 -0.136337
v -0.432539 -0.002438 -0.313384
v -0.827306 -0.006033 -0.123615
v -0.772035 0.002481 -0.314739
v -0.832083 -0.005808 0.056145
v -0.823188 0.220266 0.049696
v -0.391657 0.210742 -0.140280
v -0.425580 0.220833 -0.316644
v -0.401848 0.207648 0.051493
v -0.656745 0.218619 0.103704
v -0.539235 0.225872 -0.349587
v -0.765075 0.226196 -0.317751
v -0.781513 0.110906 0.180081
v -0.788472 -0.001410 0.194912
v -0.658255 -0.000781 0.249833
v -0.458836 -0.015077 0.197413
v -0.451877 0.096280 0.183294
v -0.651295 0.114172 0.234151
v -0.782484 0.439157 -0.137992
v -0.423258 0.431670 -0.149655
v -0.640825 0.420486 0.088940
v -0.749942 0.425192 0.035646
v -0.451684 0.450585 -0.315604
v -0.473720 0.414295 0.037065
v -0.546923 0.455902 -0.346672
v -0.736168 0.455021 -0.316706
v -0.092420 1.728696 -0.965369
v -0.076591 1.955334 -0.937061
v -0.127605 1.705767 -0.912872
v -0.088882 2.048142 -0.898695
v -0.353936 1.747654 2.705770
v -0.462452 1.331890 2.720055
v -0.346085 1.580017 2.996252
v -0.469988 1.307698 2.923995
v -0.431634 1.659744 2.822758
v -0.509515 1.644069 2.839750
v -0.472450 1.667276 2.839520
v -0.537234 1.608017 2.830582
v -0.536419 1.522197 2.802097
v -0.550043 1.565833 2.817932
v -0.514399 1.606660 2.876073
v -0.455471 1.617476 2.878850
v -0.486059 1.622301 2.881052
v -0.527030 1.532096 2.856581
v -0.527210 1.591899 2.871117
v -0.537319 1.562844 2.863018
v -0.372831 1.597275 2.869295
v -0.460350 1.411337 2.835235
v -0.490673 1.646171 2.886497
v -0.529939 1.624323 2.880116
v -0.447174 1.639310 2.883807
v -0.548145 1.603129 2.873715
v -0.562047 1.562965 2.863119
v -0.548125 1.521323 2.854228
v -0.383871 1.572585 2.864681
v -0.450291 1.432845 2.839083
v -0.413090 1.571473 2.853166
v -0.458299 1.475816 2.836714
v -0.473111 1.596627 2.863113
v -0.493557 1.585398 2.859538
v -0.451044 1.593168 2.861515
v -0.502798 1.574818 2.855977
v -0.510091 1.553958 2.850159
v -0.502668 1.531909 2.845553
v -0.399391 1.560975 2.851335
v -0.447307 1.460072 2.832738
v -0.058900 1.025164 3.424889
v -0.055763 0.937805 3.436583
v -0.099802 1.027392 3.396809
v -0.095412 0.939784 3.409379
v -0.030579 0.961927 3.462753
v 0.291561 1.207266 3.111696
v 0.306648 1.276160 3.123176
v 0.269728 1.207589 3.153622
v 0.232186 1.167401 3.153715
v 0.245906 1.211135 3.123326
v 0.291926 1.278352 3.104452
v 0.256597 1.278874 3.172292
v 0.210577 1.211657 3.191165
v 0.195855 1.213849 3.172441
v 0.232775 1.282420 3.141995
v 0.270316 1.322608 3.141903
v 0.210942 1.282743 3.183922
v 0.285805 1.200830 3.129999
v 0.307506 1.241135 3.112103
v 0.294673 1.241325 3.136747
v 0.307720 1.282919 3.107846
v 0.298852 1.242424 3.101098
v 0.263739 1.177208 3.130054
v 0.250905 1.177397 3.154697
v 0.271803 1.202915 3.112191
v 0.236903 1.179482 3.136890
v 0.272017 1.244698 3.107934
v 0.295019 1.308932 3.129858
v 0.286365 1.310220 3.118853
v 0.265254 1.242920 3.165616
v 0.286955 1.283226 3.147721
v 0.216138 1.179789 3.176765
v 0.238204 1.203410 3.176711
v 0.215548 1.206784 3.147897
v 0.207484 1.181077 3.165759
v 0.264299 1.286598 3.118907
v 0.237249 1.247089 3.130001
v 0.265600 1.310527 3.158728
v 0.230486 1.245311 3.187684
v 0.194783 1.207090 3.187772
v 0.207830 1.248684 3.158871
v 0.251598 1.312612 3.140920
v 0.230700 1.287094 3.183426
v 0.238764 1.312801 3.165564
v 0.203650 1.247585 3.194520
v 0.194997 1.248873 3.183514
v 0.216698 1.289179 3.165619
v -0.291561 1.207266 3.111696
v -0.306648 1.276160 3.123176
v -0.269728 1.207589 3.153623
v -0.232186 1.167401 3.153715
v -0.245906 1.211135 3.123326
v -0.291925 1.278352 3.104452
v -0.256597 1.278874 3.172292
v -0.210577 1.211657 3.191166
v -0.195854 1.213849 3.172442
v -0.232775 1.282420 3.141995
v -0.270316 1.322608 3.141903
v -0.210942 1.282743 3.183922
v -0.285805 1.200830 3.129999
v -0.307506 1.241135 3.112103
v -0.294673 1.241325 3.136747
v -0.307720 1.282918 3.107846
v -0.298852 1.242424 3.101098
v -0.263739 1.177208 3.130054
v -0.250905 1.177397 3.154698
v -0.271803 1.202915 3.112192
v -0.236903 1.179482 3.136890
v -0.272017 1.244698 3.107934
v -0.295019 1.308932 3.129859
v -0.286365 1.310220 3.118853
v -0.265254 1.242920 3.165617
v -0.286955 1.283225 3.147721
v -0.216137 1.179788 3.176765
v -0.238204 1.203410 3.176711
v -0.215548 1.206783 3.147897
v -0.207484 1.181077 3.165759
v -0.264299 1.286598 3.118908
v -0.237249 1.247089 3.130001
v -0.265599 1.310527 3.158728
v -0.230486 1.245311 3.187684
v -0.194782 1.207090 3.187772
v -0.207830 1.248684 3.158871
v -0.251597 1.312611 3.140921
v -0.230700 1.287094 3.183427
v -0.238764 1.312801 3.165565
v -0.203650 1.247585 3.194521
v -0.194997 1.248873 3.183515
v -0.216698 1.289179 3.165619
vn -0.8631 -0.5046 -0.0229
vn 0.3723 0.7852 -0.4949
vn 0.9876 -0.1371 -0.0768
vn 0.9915 0.1282 -0.0222
vn 0.9701 0.1384 0.1996
vn 0.9792 -0.1361 0.1506
vn 0.9783 -0.1525 0.1402
vn 0.0661 -0.9811 0.1818
vn 0.1348 -0.9433 -0.3032
vn 0.0446 -0.9982 0.0401
vn 0.1174 0.9632 -0.2417
vn 0.1808 0.9719 0.1504
vn 0.2497 0.7627 -0.5966
vn 0.1987 -0.0929 -0.9756
vn 0.0328 -0.9053 -0.4234
vn 0.6546 0.2684 0.7068
vn 0.1703 0.2394 -0.9559
vn 0.0373 -0.1950 -0.9801
vn 0.2286 0.3628 -0.9034
vn 0.2175 -0.8106 -0.5437
vn 0.8420 0.5394 0.0100
vn 0.9971 -0.0503 -0.0579
vn 0.1531 0.9798 0.1287
vn 0.9848 0.1436 0.0980
vn 0.3302 -0.6020 -0.7270
vn 0.1073 0.9939 -0.0244
vn 0.0028 0.9168 -0.3993
vn -0.6323 -0.5081 -0.5849
vn 0.6700 0.1185 -0.7328
vn 0.1628 0.9597 0.2291
vn -0.9719 -0.2201 0.0831
vn 0.9326 -0.1139 -0.3424
vn 0.0107 0.8050 -0.5932
vn 0.2778 0.2376 0.9308
vn -0.4180 -0.3117 0.8533
vn -0.0350 -0.9887 0.1459
vn -0.0935 -0.9672 -0.2362
vn -0.1192 -0.9918 0.0462
vn 0.0543 0.1207 0.9912
vn 0.7746 0.4771 -0.4153
vn 0.3621 0.9086 -0.2083
vn 0.9477 -0.3089 0.0807
vn 0.2985 -0.8541 -0.4259
vn 0.3210 0.9377 0.1329
vn 0.2081 0.7376 0.6424
vn 0.0504 0.8060 -0.5898
vn 0.8469 0.1438 0.5120
vn 0.4755 -0.5550 0.6825
vn 0.8065 0.1356 -0.5755
vn 0.1021 -0.2807 -0.9544
vn 0.9854 0.1451 0.0891
vn 0.9730 0.1132 -0.2013
vn 0.1716 0.7734 0.6102
vn 0.3363 -0.9417 0.0117
vn 0.9417 0.1156 0.3159
vn 0.3097 0.9415 0.1326
vn 0.2940 0.9556 -0.0214
vn 0.9785 0.2032 0.0353
vn 0.2309 0.8796 -0.4160
vn 0.0774 0.8310 0.5508
vn 0.1321 -0.9182 -0.3734
vn 0.9750 -0.2189 -0.0383
vn 0.3260 0.9157 0.2349
vn 0.1169 0.8447 0.5223
vn -0.0006 0.7074 0.7068
vn 0.2983 -0.9351 0.1913
vn 0.8391 -0.2556 0.4802
vn 0.2122 -0.9701 -0.1175
vn 0.1010 -0.7210 0.6856
vn 0.1798 -0.9517 -0.2490
vn 0.9346 -0.2265 -0.2742
vn 0.1132 -0.9138 0.3902
vn 0.8717 -0.4609 0.1663
vn 0.3324 -0.9426 -0.0321
vn 0.2990 -0.9095 -0.2888
vn 0.3453 0.6918 0.6342
vn 0.3637 0.7254 0.5844
vn 0.7619 0.1207 0.6364
vn 0.4556 0.6766 0.5785
vn 0.1553 -0.9140 -0.3748
vn 0.1859 -0.9020 0.3896
vn 0.8837 0.0175 0.4677
vn 0.3523 0.8077 0.4727
vn 0.3845 0.5865 0.7129
vn 0.1217 -0.9805 -0.1543
vn 0.4144 0.6180 0.6681
vn 0.1593 -0.9551 -0.2498
vn 0.5346 0.0496 0.8436
vn 0.1479 -0.9674 -0.2056
vn 0.3937 -0.8671 0.3053
vn -0.3030 -0.3527 0.8853
vn -0.0092 0.7241 0.6897
vn 0.1789 -0.9528 -0.2454
vn 0.9702 -0.2417 0.0194
vn 0.0310 -0.4946 0.8686
vn 0.0513 0.7794 0.6244
vn 0.6302 0.0289 0.7759
vn 0.1441 -0.9639 -0.2240
vn -0.1346 0.1021 0.9856
vn 0.4460 0.7374 0.5073
vn 0.3335 0.0152 0.9426
vn 0.0463 -0.9971 0.0607
vn 0.3308 -0.9148 0.2318
vn 0.7809 -0.3206 0.5362
vn 0.4028 0.5561 0.7270
vn 0.1485 -0.9600 -0.2374
vn 0.8472 0.0989 0.5220
vn -0.0169 0.6359 0.7716
vn 0.2233 -0.9526 -0.2065
vn 0.8796 -0.3639 0.3064
vn 0.9493 -0.2159 -0.2283
vn 0.9845 0.1753 -0.0074
vn 0.9735 0.1127 -0.1992
vn 0.9532 0.2643 0.1468
vn 0.9973 -0.0217 -0.0701
vn 0.9384 0.1755 0.2975
vn 0.7696 0.2809 0.5734
vn 0.9069 0.3504 0.2339
vn -0.7044 0.1642 0.6905
vn -0.0263 0.4246 0.9050
vn 0.0375 -0.5498 -0.8344
vn 0.9020 0.0256 0.4311
vn -0.9839 -0.1383 -0.1131
vn -0.9960 -0.0837 0.0319
vn 0.9951 0.0428 -0.0891
vn 0.2985 -0.0849 0.9506
vn 0.8924 -0.0049 0.4511
vn -0.8718 0.1031 0.4788
vn 0.1781 -0.5209 -0.8348
vn -0.9523 -0.2983 -0.0647
vn 0.9223 -0.0695 0.3801
vn -0.9875 0.0464 -0.1504
vn -0.9996 -0.0171 0.0222
vn 0.9930 0.0299 -0.1141
vn 0.2571 -0.3096 0.9155
vn 0.8340 0.1771 -0.5225
vn -0.8427 -0.0410 0.5368
vn -0.3298 -0.0592 0.9422
vn -0.4717 -0.5024 -0.7246
vn 0.8849 -0.1384 -0.4447
vn 0.0211 0.0473 -0.9987
vn 0.9935 0.1079 0.0350
vn -0.9880 0.0462 -0.1476
vn -0.9977 0.0441 0.0518
vn 0.9928 0.0627 -0.1023
vn 0.9773 0.1078 0.1824
vn 0.0178 0.2094 -0.9777
vn -0.8068 -0.2127 0.5512
vn -0.1852 -0.3523 0.9174
vn -0.5018 0.1896 -0.8439
vn -0.0022 -0.9985 -0.0556
vn 0.0117 -0.9991 -0.0417
vn -0.0016 -0.9997 -0.0227
vn 0.0018 -0.9983 -0.0590
vn -0.0094 -0.9988 -0.0478
vn 0.0040 -0.9997 -0.0224
vn -0.9196 0.1024 0.3792
vn -0.9794 0.1111 0.1686
vn -0.4544 0.0492 -0.8894
vn 0.8489 0.0540 -0.5258
vn 0.8544 0.0769 -0.5139
vn -0.4617 0.0422 -0.8860
vn -0.1939 0.1239 0.9732
vn -0.8546 0.1050 0.5085
vn 0.2439 0.1604 0.9564
vn 0.9877 0.1109 -0.1100
vn -0.9958 0.0831 0.0377
vn -0.9858 0.0868 -0.1437
vn 0.9769 0.1630 0.1382
vn 0.0209 0.0250 -0.9995
vn 0.2356 0.0061 0.9718
vn -0.1891 0.0044 0.9820
vn 0.1245 0.7937 0.5954
vn 0.0058 -0.9959 -0.0898
vn -0.0999 0.7988 0.5933
vn -0.0059 -0.9958 -0.0915
vn 0.9870 0.1380 0.0825
vn 0.9533 -0.1565 -0.2585
vn 0.9852 -0.0998 0.1390
vn 0.9485 0.2919 -0.1229
vn 0.5883 -0.3936 0.7064
vn 0.5245 0.7867 -0.3256
vn 0.9844 -0.1229 0.1261
vn 0.3298 0.7949 -0.5092
vn -0.9660 -0.2275 0.1228
vn -0.2942 0.1263 -0.9474
vn -0.2759 -0.7278 0.6279
vn 0.9838 -0.1327 0.1202
vn 0.1430 0.5021 -0.8529
vn -0.4067 0.3933 -0.8246
vn -0.9345 -0.1903 -0.3009
vn -0.1366 -0.7360 0.6630
vn -0.2784 0.9105 -0.3058
vn -0.9455 -0.3198 0.0611
vn 0.9992 0.0292 0.0265
vn -0.9810 0.1728 -0.0882
vn 0.4519 -0.6539 0.6068
vn 0.1385 0.1407 -0.9803
vn 0.9646 0.0933 -0.2466
vn -0.9720 -0.0111 -0.2349
vn 0.0113 -0.2247 -0.9744
vn 0.0429 -0.2124 -0.9762
vn 0.0390 -0.2054 -0.9779
vn 0.0062 -0.2186 -0.9758
vn -0.9979 -0.0633 -0.0158
vn 0.9455 -0.2930 0.1424
vn 0.1390 0.9428 -0.3028
vn 0.9605 0.2724 -0.0566
vn 0.9550 0.2920 0.0527
vn 0.1419 0.9570 -0.2529
vn 0.3597 -0.8279 0.4303
vn -0.9568 -0.0846 0.2783
vn -0.9773 0.2018 0.0652
vn 0.9621 -0.0085 0.2726
vn -0.2421 -0.8824 0.4035
vn -0.2869 0.9296 -0.2313
vn -0.2559 -0.9137 0.3156
vn 0.3820 -0.8602 0.3378
vn -0.1911 -0.4668 0.8634
vn 0.0443 -0.2290 -0.9724
vn 0.2423 -0.4688 0.8494
vn 0.0233 -0.2396 -0.9706
vn -0.3012 0.8004 -0.5184
vn -0.3042 -0.9499 0.0722
vn 0.9849 -0.1730 -0.0017
vn -0.9778 0.1295 -0.1647
vn -0.9688 -0.2469 -0.0211
vn 0.4681 -0.8809 0.0703
vn 0.1545 0.8406 -0.5191
vn 0.9641 0.2203 -0.1480
vn 0.3339 0.1516 -0.9303
vn 0.3329 -0.8541 -0.3996
vn 0.3507 0.3110 -0.8834
vn 0.2194 0.5175 -0.8271
vn 0.1758 -0.1971 -0.9645
vn 0.2732 0.1197 -0.9545
vn 0.9558 0.2927 0.0259
vn 0.9357 0.3068 0.1741
vn 0.9962 0.0791 -0.0364
vn 0.8972 0.3520 0.2667
vn -0.5814 0.7615 0.2865
vn 0.7631 0.6388 -0.0982
vn 0.8053 -0.5838 -0.1030
vn 0.5112 0.8429 0.1680
vn -0.2443 0.8769 0.4139
vn 0.9122 0.3543 -0.2057
vn 0.9422 -0.2353 -0.2386
vn 0.2533 0.2888 -0.9233
vn -0.0582 -0.2022 0.9776
vn 0.0316 -0.2376 0.9708
vn -0.0291 -0.2244 0.9741
vn 0.0071 -0.2588 0.9659
vn -0.0001 -0.2074 0.9782
vn 0.0388 -0.2707 0.9619
vn -0.0460 -0.2682 0.9623
vn 0.0441 -0.1974 0.9793
vn -0.0015 -0.2197 0.9756
vn 0.0073 -0.1805 0.9836
vn 0.1631 -0.5918 0.7894
vn -0.0298 -0.1892 0.9815
vn 0.2959 -0.5200 0.8013
vn -0.4091 0.1846 0.8936
vn -0.4120 -0.0522 0.9097
vn -0.1384 -0.5202 0.8427
vn 0.7293 0.2281 0.6451
vn -0.2058 -0.4681 0.8594
vn -0.5065 0.1413 0.8506
vn 0.0334 -0.5843 0.8108
vn 0.3193 0.7883 0.5260
vn 0.5296 -0.3314 0.7808
vn 0.5248 -0.3937 0.7547
vn -0.0292 0.1087 0.9936
vn 0.0200 -0.7083 0.7056
vn -0.0339 0.9412 0.3362
vn 0.7525 0.0372 0.6575
vn 0.8864 -0.3893 0.2506
vn -0.3821 0.7415 -0.5515
vn -0.9789 -0.1819 -0.0928
vn -0.9885 0.1471 -0.0337
vn -0.9593 0.1840 0.2140
vn -0.9691 -0.1303 0.2096
vn -0.9693 -0.2037 0.1380
vn -0.5305 -0.8371 0.1337
vn -0.4378 -0.8877 -0.1425
vn -0.3975 -0.9077 0.1342
vn -0.1145 0.9632 -0.2431
vn -0.1793 0.9721 0.1514
vn -0.3813 0.6249 -0.6813
vn -0.2609 -0.4564 -0.8507
vn -0.3650 -0.9078 -0.2064
vn -0.6910 0.4355 0.5769
vn -0.3390 0.1112 -0.9342
vn -0.1441 -0.5363 -0.8317
vn -0.2977 0.1059 -0.9488
vn -0.2374 -0.9225 -0.3042
vn -0.7693 0.6387 0.0186
vn -0.9972 0.0112 -0.0739
vn -0.1504 0.9804 0.1274
vn -0.9790 0.1767 0.1012
vn -0.3089 -0.2787 -0.9093
vn -0.0743 0.9970 -0.0223
vn 0.0198 0.9126 -0.4083
vn 0.7120 0.1528 -0.6854
vn -0.6061 0.1930 -0.7716
vn -0.1471 0.9602 0.2375
vn 0.9564 -0.2428 -0.1620
vn -0.9223 0.2078 -0.3258
vn -0.0144 0.7937 -0.6081
vn -0.8235 -0.2059 0.5287
vn 0.0316 -0.7183 0.6950
vn -0.4631 -0.8834 0.0720
vn -0.4152 -0.8951 -0.1624
vn -0.4227 -0.9026 0.0813
vn -0.3146 -0.6744 0.6679
vn -0.6973 0.5564 -0.4518
vn -0.3273 0.9199 -0.2159
vn -0.9345 -0.3230 0.1494
vn -0.2288 -0.9411 -0.2489
vn -0.2915 0.9473 0.1325
vn -0.2053 0.7374 0.6435
vn -0.0973 0.7952 -0.5985
vn -0.8672 0.1157 0.4844
vn -0.4640 -0.0083 0.8858
vn -0.8390 0.1201 -0.5307
vn -0.3919 -0.4122 -0.8225
vn -0.9856 0.1445 0.0875
vn -0.9745 -0.0337 -0.2220
vn -0.1709 0.7733 0.6105
vn -0.3992 -0.9004 -0.1729
vn -0.9435 0.1019 0.3153
vn -0.2792 0.9514 0.1299
vn -0.2141 0.9765 -0.0231
vn -0.9785 0.2032 0.0353
vn -0.1759 0.8791 -0.4429
vn -0.0774 0.8310 0.5508
vn -0.1321 -0.9182 -0.3734
vn -0.9736 -0.2257 -0.0330
vn -0.2483 0.9351 0.2529
vn -0.1169 0.8447 0.5223
vn 0.0006 0.7074 0.7068
vn -0.2697 -0.9629 -0.0100
vn -0.8391 -0.2556 0.4802
vn -0.2122 -0.9701 -0.1175
vn -0.1817 -0.7983 0.5741
vn -0.1798 -0.9517 -0.2490
vn -0.9346 -0.2265 -0.2742
vn -0.1091 -0.9514 0.2881
vn -0.8717 -0.4609 0.1663
vn -0.3324 -0.9426 -0.0321
vn -0.1684 -0.9564 -0.2388
vn -0.2998 0.7003 0.6479
vn -0.3479 0.7256 0.5937
vn -0.7619 0.1207 0.6364
vn -0.4556 0.6766 0.5785
vn -0.1553 -0.9140 -0.3748
vn -0.1859 -0.9020 0.3896
vn -0.8837 0.0175 0.4677
vn -0.3523 0.8077 0.4727
vn -0.3844 0.5865 0.7129
vn -0.1217 -0.9805 -0.1543
vn -0.4144 0.6180 0.6681
vn -0.1593 -0.9551 -0.2498
vn -0.5346 0.0496 0.8436
vn -0.1479 -0.9674 -0.2056
vn -0.3937 -0.8671 0.3053
vn 0.3029 -0.3525 0.8855
vn 0.0092 0.7241 0.6897
vn -0.1789 -0.9528 -0.2454
vn -0.9702 -0.2417 0.0194
vn -0.0310 -0.4946 0.8686
vn -0.0513 0.7794 0.6244
vn -0.6302 0.0289 0.7759
vn -0.1441 -0.9639 -0.2240
vn 0.1346 0.1021 0.9856
vn -0.4459 0.7374 0.5073
vn -0.3335 0.0152 0.9426
vn -0.0463 -0.9971 0.0607
vn -0.3308 -0.9148 0.2318
vn -0.7809 -0.3206 0.5362
vn -0.4028 0.5561 0.7270
vn -0.1485 -0.9600 -0.2374
vn -0.8472 0.0989 0.5220
vn 0.0169 0.6359 0.7716
vn -0.2233 -0.9526 -0.2065
vn -0.8796 -0.3639 0.3064
vn -0.9295 -0.0578 -0.3643
vn -0.9717 0.2339 0.0324
vn -0.9429 0.1860 -0.2761
vn -0.9539 0.2623 0.1460
vn -0.9964 0.0296 -0.0794
vn -0.9456 -0.0126 0.3252
vn -0.6442 0.1711 0.7455
vn -0.8547 0.4595 0.2415
vn 0.3038 -0.7075 0.6381
vn -0.2623 -0.0926 0.9605
vn -0.0238 0.1945 -0.9806
vn -0.8931 -0.2989 0.3361
vn 0.9848 0.0007 -0.1738
vn 0.9988 -0.0407 -0.0261
vn -0.9974 0.0489 -0.0525
vn -0.3063 -0.7167 0.6265
vn -0.9058 -0.3093 0.2896
vn 0.8032 -0.5373 0.2574
vn 0.0491 0.3626 -0.9306
vn 0.9467 -0.2127 -0.2420
vn -0.8999 -0.3456 0.2662
vn 0.9751 0.2019 -0.0914
vn 0.9983 0.0549 0.0202
vn -0.9963 0.0056 -0.0856
vn -0.1983 -0.7972 0.5702
vn -0.8663 0.3662 -0.3397
vn 0.8800 -0.3792 0.2862
vn 0.2414 -0.7715 0.5886
vn 0.4854 0.1584 -0.8598
vn -0.8902 0.1710 -0.4223
vn -0.0689 0.5897 -0.8047
vn -0.9961 -0.0070 0.0880
vn 0.9752 0.1987 -0.0975
vn 0.9938 0.0888 0.0674
vn -0.9983 0.0285 -0.0509
vn -0.9736 -0.0848 0.2118
vn -0.0742 0.7121 -0.6981
vn 0.8402 -0.4256 0.3361
vn 0.2421 -0.8038 0.5434
vn 0.4521 0.6651 -0.5944
vn 0.0672 -0.8013 -0.5945
vn 0.0595 -0.8247 -0.5624
vn 0.0668 -0.8285 -0.5560
vn 0.0625 -0.7994 -0.5975
vn 0.0702 -0.8215 -0.5658
vn 0.0646 -0.8288 -0.5558
vn 0.9273 -0.0442 0.3717
vn 0.9759 0.0830 0.2018
vn 0.4101 0.5686 -0.7131
vn -0.8734 0.2662 -0.4078
vn -0.8799 0.2840 -0.3809
vn 0.4163 0.5704 -0.7081
vn 0.2253 -0.4208 0.8787
vn 0.8653 -0.1163 0.4875
vn -0.2047 -0.4254 0.8816
vn -0.9968 0.0744 -0.0290
vn 0.9881 0.1297 0.0826
vn 0.9703 0.2317 -0.0694
vn -0.9787 -0.0215 0.2043
vn -0.0683 0.5818 -0.8104
vn -0.1939 -0.5258 0.8282
vn 0.2296 -0.4989 0.8357
vn -0.1549 0.3501 0.9238
vn 0.0643 -0.7972 -0.6003
vn 0.0743 0.3737 0.9246
vn 0.0628 -0.7967 -0.6011
vn -0.9873 0.1564 0.0285
vn -0.9651 -0.2210 -0.1406
vn -0.9854 -0.0284 0.1678
vn -0.9506 0.2289 -0.2096
vn -0.5623 -0.0391 0.8260
vn -0.4745 0.7309 -0.4905
vn -0.9841 -0.0186 0.1764
vn -0.3890 0.6160 -0.6851
vn 0.9730 -0.0434 0.2268
vn 0.3465 -0.4033 -0.8469
vn 0.3340 0.0764 0.9395
vn -0.9873 0.0062 0.1589
vn -0.2022 -0.1457 -0.9684
vn 0.2447 -0.2778 -0.9290
vn 0.9238 -0.3576 -0.1370
vn 0.3158 -0.0888 0.9447
vn 0.2778 -0.0225 -0.9604
vn 0.9428 -0.0234 0.3324
vn -0.9992 0.0345 -0.0213
vn 0.9811 -0.0334 -0.1906
vn -0.4881 0.0901 0.8681
vn -0.1767 -0.3955 -0.9013
vn -0.9748 -0.0859 -0.2061
vn 0.9797 -0.1504 -0.1326
vn -0.0033 -1.0000 0.0084
vn -0.0510 -0.9987 -0.0094
vn -0.0396 -0.9974 -0.0601
vn -0.0057 -0.9989 -0.0461
vn 0.9978 -0.0335 0.0570
vn -0.9438 0.0646 0.3242
vn -0.1393 -0.0093 -0.9902
vn -0.9605 0.0258 -0.2770
vn -0.9571 0.1372 -0.2552
vn -0.1473 0.0153 -0.9890
vn -0.3562 0.1435 0.9233
vn 0.9563 0.2407 0.1663
vn 0.9782 0.1221 -0.1678
vn -0.9618 0.2579 0.0922
vn 0.2421 0.1021 0.9649
vn 0.2942 0.0298 -0.9553
vn 0.2575 0.1106 0.9599
vn -0.3838 0.1459 0.9118
vn 0.1929 0.7413 0.6428
vn -0.0592 -0.9980 0.0204
vn -0.2375 0.7298 0.6411
vn -0.0051 -0.9995 0.0305
vn 0.3084 -0.3116 -0.8988
vn 0.3081 -0.2880 0.9067
vn -0.9854 -0.0592 0.1595
vn 0.9787 -0.1166 -0.1691
vn 0.9698 -0.1027 0.2213
vn -0.4717 -0.2631 0.8416
vn -0.1640 -0.3052 -0.9381
vn -0.9680 -0.0811 -0.2376
vn -0.3502 0.1450 -0.9254
vn -0.2796 -0.8321 -0.4790
vn -0.3507 0.3110 -0.8834
vn -0.2445 0.5518 -0.7973
vn -0.2212 -0.2244 -0.9491
vn -0.3579 0.0781 -0.9305
vn -0.9558 0.2928 0.0259
vn -0.9357 0.3068 0.1740
vn -0.9962 0.0791 -0.0364
vn -0.8972 0.3520 0.2667
vn 0.5821 0.7611 0.2862
vn -0.7631 0.6388 -0.0979
vn -0.8056 -0.5835 -0.1029
vn -0.5111 0.8429 0.1681
vn 0.2451 0.8768 0.4137
vn -0.9124 0.3540 -0.2056
vn -0.9422 -0.2352 -0.2386
vn -0.2532 0.2885 -0.9234
vn 0.0583 -0.2022 0.9776
vn -0.0317 -0.2372 0.9710
vn 0.0290 -0.2241 0.9741
vn -0.0072 -0.2584 0.9660
vn 0.0001 -0.2071 0.9783
vn -0.0389 -0.2703 0.9620
vn 0.0457 -0.2680 0.9623
vn -0.0440 -0.1974 0.9793
vn 0.0016 -0.2195 0.9756
vn -0.0074 -0.1805 0.9836
vn -0.1637 -0.5916 0.7894
vn 0.0298 -0.1891 0.9815
vn -0.2960 -0.5199 0.8013
vn 0.4094 0.1845 0.8935
vn 0.4121 -0.0520 0.9097
vn 0.1384 -0.5196 0.8431
vn -0.7293 0.2280 0.6451
vn 0.2054 -0.4677 0.8597
vn 0.5067 0.1413 0.8505
vn -0.0333 -0.5840 0.8111
vn -0.3193 0.7883 0.5260
vn -0.5296 -0.3314 0.7808
vn -0.5248 -0.3937 0.7547
vn 0.0292 0.1087 0.9936
vn -0.0200 -0.7083 0.7056
vn 0.0339 0.9412 0.3362
vn -0.7525 0.0372 0.6575
vn 0.8961 -0.4235 0.1329
vn 0.9975 0.0021 0.0707
vn 0.7307 -0.6826 -0.0102
vn 0.1099 -0.5902 -0.7997
vn 0.0413 -0.2962 -0.9542
vn 0.9363 0.2926 0.1945
vn 0.6878 -0.1537 0.7094
vn 0.3444 -0.7058 0.6191
vn -0.6069 -0.1609 -0.7783
vn -0.4208 0.1565 -0.8935
vn 0.7919 0.1609 0.5891
vn 0.5964 -0.1893 0.7800
vn -0.3952 -0.8952 0.2060
vn -0.6285 -0.0069 -0.7778
vn -0.3576 0.3320 -0.8729
vn 0.4470 0.2419 0.8612
vn 0.2431 -0.0436 0.9690
vn -0.9975 -0.0021 -0.0707
vn -0.7601 0.2653 -0.5932
vn -0.4475 0.8615 -0.2397
vn -0.7307 0.6826 0.0102
vn -0.6822 0.6364 -0.3601
vn -0.6942 0.4118 -0.5903
vn -0.8961 0.4235 -0.1329
vn -0.8552 0.2618 -0.4473
vn -0.8798 0.1236 -0.4591
vn -0.7220 0.3326 0.6067
vn -0.7805 0.0673 0.6216
vn -0.1738 -0.1247 0.9769
vn -0.0413 0.2962 0.9542
vn 0.2534 0.0968 0.9625
vn 0.4174 0.0900 0.9043
vn -0.1099 0.5902 0.7998
vn 0.2535 0.4971 0.8298
vn 0.2197 0.7622 0.6089
vn -0.3444 0.7058 -0.6191
vn -0.4625 0.4302 -0.7753
vn -0.5848 0.3384 -0.7372
vn -0.6878 0.1537 -0.7094
vn -0.6976 0.0585 -0.7141
vn -0.7767 0.0218 -0.6295
vn -0.9363 -0.2926 -0.1945
vn -0.6272 -0.6584 0.4161
vn -0.0725 -0.4212 0.9041
vn 0.4208 -0.1565 0.8935
vn 0.5257 -0.1236 0.8416
vn 0.5343 -0.0282 0.8448
vn 0.6069 0.1609 0.7783
vn 0.6835 0.2596 0.6822
vn 0.5927 0.5663 0.5727
vn -0.5964 0.1893 -0.7801
vn -0.5257 0.1236 -0.8416
vn -0.5343 0.0282 -0.8448
vn -0.7919 -0.1609 -0.5891
vn -0.6835 -0.2596 -0.6822
vn -0.5928 -0.5662 -0.5728
vn 0.3576 -0.3320 0.8729
vn 0.4625 -0.4302 0.7753
vn 0.5848 -0.3383 0.7372
vn 0.6285 0.0069 0.7778
vn 0.6976 -0.0585 0.7141
vn 0.7767 -0.0218 0.6295
vn 0.3952 0.8952 -0.2059
vn 0.6272 0.6584 -0.4161
vn 0.0725 0.4212 -0.9041
vn -0.2431 0.0436 -0.9690
vn -0.2534 -0.0968 -0.9625
vn -0.4174 -0.0900 -0.9043
vn -0.4471 -0.2419 -0.8612
vn -0.2535 -0.4971 -0.8298
vn -0.2197 -0.7622 -0.6089
vn 0.4475 -0.8615 0.2397
vn 0.6821 -0.6364 0.3601
vn 0.6942 -0.4118 0.5903
vn 0.1738 0.1247 -0.9768
vn 0.7805 -0.0673 -0.6216
vn 0.7220 -0.3326 -0.6067
vn 0.7601 -0.2653 0.5932
vn 0.8552 -0.2618 0.4473
vn 0.8798 -0.1236 0.4591
vn -0.8961 -0.4235 0.1329
vn -0.9975 0.0021 0.0707
vn -0.7307 -0.6826 -0.0102
vn -0.1099 -0.5902 -0.7997
vn -0.0413 -0.2962 -0.9542
vn -0.9363 0.2926 0.1945
vn -0.6878 -0.1537 0.7094
vn -0.3444 -0.7057 0.6191
vn 0.6069 -0.1609 -0.7783
vn 0.4208 0.1565 -0.8935
vn -0.7919 0.1609 0.5891
vn -0.5964 -0.1893 0.7801
vn 0.3952 -0.8952 0.2060
vn 0.6285 -0.0069 -0.7778
vn 0.3576 0.3321 -0.8728
vn -0.4471 0.2419 0.8612
vn -0.2432 -0.0436 0.9690
vn 0.9975 -0.0021 -0.0707
vn 0.7601 0.2653 -0.5932
vn 0.4475 0.8616 -0.2397
vn 0.7307 0.6826 0.0102
vn 0.6821 0.6364 -0.3601
vn 0.6942 0.4118 -0.5903
vn 0.8961 0.4235 -0.1329
vn 0.8552 0.2618 -0.4473
vn 0.8798 0.1236 -0.4591
vn 0.7220 0.3326 0.6067
vn 0.7805 0.0673 0.6216
vn 0.1738 -0.1247 0.9768
vn 0.0413 0.2962 0.9542
vn -0.2534 0.0968 0.9625
vn -0.4174 0.0900 0.9043
vn 0.1099 0.5902 0.7997
vn -0.2535 0.4971 0.8298
vn -0.2197 0.7622 0.6089
vn 0.3444 0.7057 -0.6191
vn 0.4625 0.4302 -0.7753
vn 0.5848 0.3383 -0.7372
vn 0.6878 0.1537 -0.7094
vn 0.6976 0.0585 -0.7141
vn 0.7767 0.0218 -0.6295
vn 0.9363 -0.2926 -0.1945
vn 0.6272 -0.6584 0.4161
vn 0.0725 -0.4212 0.9041
vn -0.4208 -0.1565 0.8935
vn -0.5257 -0.1236 0.8416
vn -0.5343 -0.0282 0.8448
vn -0.6069 0.1609 0.7783
vn -0.6835 0.2596 0.6822
vn -0.5927 0.5662 0.5727
vn 0.5964 0.1893 -0.7801
vn 0.5257 0.1236 -0.8416
vn 0.5343 0.0282 -0.8448
vn 0.7919 -0.1609 -0.5891
vn 0.6835 -0.2596 -0.6822
vn 0.5927 -0.5662 -0.5728
vn -0.3576 -0.3320 0.8729
vn -0.4625 -0.4302 0.7753
vn -0.5848 -0.3383 0.7373
vn -0.6285 0.0069 0.7778
vn -0.6976 -0.0585 0.7141
vn -0.7767 -0.0218 0.6295
vn -0.3952 0.8952 -0.2059
vn -0.6272 0.6584 -0.4161
vn -0.0725 0.4212 -0.9041
vn 0.2432 0.0436 -0.9690
vn 0.2534 -0.0968 -0.9625
vn 0.4174 -0.0900 -0.9043
vn 0.4470 -0.2419 -0.8612
vn 0.2535 -0.4971 -0.8298
vn 0.2197 -0.7622 -0.6089
vn -0.4475 -0.8615 0.2397
vn -0.6822 -0.6364 0.3601
vn -0.6942 -0.4118 0.5903
vn -0.1738 0.1247 -0.9768
vn -0.7805 -0.0673 -0.6216
vn -0.7220 -0.3326 -0.6067
vn -0.7601 -0.2653 0.5932
vn -0.8552 -0.2618 0.4473
vn -0.8798 -0.1236 0.4591
vt 0.833374 0.494548
vt 0.893919 0.512741
vt 0.908415 0.468160
vt 0.848637 0.467455
vt 0.567859 0.867914
vt 0.639317 0.828812
vt 0.620915 0.894044
vt 0.556155 0.927906
vt 0.812683 0.509803
vt 0.774909 0.642712
vt 0.751394 0.643294
vt 0.751725 0.493743
vt 0.828812 0.793372
vt 0.751727 0.811870
vt 0.672932 0.807420
vt 0.672336 0.642732
vt 0.672998 0.503429
vt 0.598676 0.643182
vt 0.594201 0.530171
vt 0.560191 0.672195
vt 0.619753 0.672998
vt 0.599703 0.594201
vt 0.569702 0.558226
vt 0.580250 0.833374
vt 0.635423 0.812683
vt 0.637090 0.751725
vt 0.569078 0.759035
vt 0.500000 0.859251
vt 0.500000 0.750726
vt 0.569078 0.758996
vt 0.500000 0.657595
vt 0.560191 0.671923
vt 0.604420 0.951058
vt 0.545714 0.976119
vt 0.604420 0.548422
vt 0.626365 0.643481
vt 0.688416 0.643970
vt 0.666902 0.547256
vt 0.500000 0.917421
vt 0.563590 0.893919
vt 0.639317 0.793372
vt 0.659328 0.642712
vt 0.676970 0.643370
vt 0.671449 0.761101
vt 0.555994 0.632181
vt 0.545714 0.747180
vt 0.604420 0.735145
vt 0.572975 0.538591
vt 0.666902 0.715601
vt 0.500000 0.969030
vt 0.572975 0.947229
vt 0.501290 0.830086
vt 0.457158 0.830118
vt 0.460328 0.806630
vt 0.500288 0.803578
vt 0.499838 0.512886
vt 0.460007 0.507514
vt 0.481582 0.413128
vt 0.510774 0.417065
vt 0.500000 0.559830
vt 0.556447 0.575135
vt 0.579931 0.796381
vt 0.599703 0.530171
vt 0.637090 0.643182
vt 0.659115 0.643738
vt 0.643940 0.535244
vt 0.564556 0.492909
vt 0.500000 0.477524
vt 0.500000 0.432743
vt 0.566016 0.447361
vt 0.569702 0.518348
vt 0.616981 0.429733
vt 0.594994 0.421068
vt 0.612448 0.796381
vt 0.637526 0.771615
vt 0.500000 0.371229
vt 0.561082 0.382998
vt 0.450625 0.491920
vt 0.495971 0.498202
vt 0.507939 0.406303
vt 0.474705 0.401699
vt 0.591615 0.535244
vt 0.575831 0.433451
vt 0.407144 0.499901
vt 0.406490 0.640437
vt 0.358675 0.605643
vt 0.363238 0.556600
vt 0.578790 0.420824
vt 0.621227 0.407144
vt 0.601979 0.363238
vt 0.551080 0.357545
vt 0.500000 0.657756
vt 0.500000 0.571782
vt 0.667216 0.508652
vt 0.621227 0.499901
vt 0.632756 0.407548
vt 0.666461 0.413961
vt 0.556577 0.771615
vt 0.637090 0.751727
vt 0.260484 0.580516
vt 0.278839 0.520364
vt 0.582070 0.278839
vt 0.540875 0.268345
vt 0.619753 0.672932
vt 0.500000 0.307117
vt 0.551080 0.314473
vt 0.500000 0.983839
vt 0.393435 0.816867
vt 0.325561 0.763148
vt 0.671449 0.517077
vt 0.635423 0.509803
vt 0.642381 0.470278
vt 0.671266 0.470798
vt 0.988807 0.740196
vt 1.002924 0.661469
vt 1.015365 0.669173
vt 1.001496 0.721513
vt 0.500000 0.531683
vt 0.500000 0.631036
vt 0.249130 0.712570
vt 0.191059 0.679456
vt 0.198981 0.567653
vt 0.945839 0.547256
vt 0.886123 0.529161
vt 0.904522 0.470747
vt 0.963512 0.471464
vt 0.500000 0.238897
vt 0.540875 0.239236
vt 0.564556 0.495971
vt 0.612448 0.579931
vt 0.628268 0.501290
vt 0.631115 0.457158
vt 0.168698 0.648799
vt 0.177283 0.553376
vt 0.539817 0.181283
vt 0.500000 0.184290
vt 0.500000 0.144817
vt 0.539817 0.140934
vt 0.580006 0.205473
vt 0.539817 0.196322
vt 0.205473 0.476864
vt 0.621491 0.393435
vt 0.538703 0.608225
vt 0.500000 0.615960
vt 0.500000 0.567098
vt 0.526605 0.560962
vt 0.566016 0.450625
vt 0.149293 0.452102
vt 0.133162 0.541160
vt 0.103583 0.505809
vt 0.123733 0.441345
vt 0.539531 0.141037
vt 0.579447 0.149293
vt 0.562090 0.123733
vt 0.530633 0.116366
vt 0.500000 0.385014
vt 0.500000 0.353218
vt 0.586057 0.174337
vt 0.542919 0.165879
vt 0.174337 0.464471
vt 0.086614 0.427976
vt 0.065909 0.448336
vt 0.053210 0.428901
vt 0.071388 0.423606
vt 0.515797 0.085531
vt 0.531484 0.086614
vt 0.523242 0.071388
vt 0.510720 0.071544
vt 0.500000 0.266808
vt 0.601979 0.325561
vt 0.582070 0.249130
vt 0.108290 0.599988
vt 0.073849 0.556649
vt 0.580006 0.679456
vt 0.539817 0.690304
vt 0.539817 0.657159
vt 0.579599 0.648799
vt 0.500000 0.199929
vt 0.513331 0.045311
vt 0.500000 0.046647
vt 0.500000 0.069896
vt 0.051602 0.475706
vt 0.038205 0.462176
vt 0.038356 0.442272
vt 0.580006 0.191059
vt 0.577833 0.599988
vt 0.554232 0.556649
vt 0.500000 0.147087
vt 0.500000 0.124516
vt 0.530339 0.475706
vt 0.515210 0.477146
vt 0.513246 0.460736
vt 0.522445 0.462176
vt 0.500000 0.170521
vt 0.515546 0.457928
vt 0.507613 0.457080
vt 0.506877 0.445401
vt 0.514439 0.446199
vt 0.500000 0.089031
vt 0.528336 0.053210
vt 0.620841 0.601238
vt 0.618568 0.607555
vt 0.613078 0.604170
vt 0.614718 0.599612
vt 0.500000 0.479371
vt 0.500000 0.460095
vt 0.513331 0.424258
vt 0.512541 0.440917
vt 0.500000 0.440864
vt 0.500000 0.422187
vt 0.500000 0.664242
vt 0.576432 0.505809
vt 0.539481 0.507406
vt 0.547321 0.467354
vt 0.500000 0.513551
vt 0.519044 0.508271
vt 0.579599 0.168698
vt 0.538703 0.096221
vt 0.577833 0.108290
vt 0.520322 0.097153
vt 0.500000 0.106427
vt 0.541975 0.104341
vt 0.078394 0.467354
vt 0.104341 0.437145
vt 0.073220 0.507406
vt 0.590300 0.643738
vt 0.499630 0.641384
vt 0.459655 0.640419
vt 0.417546 0.774144
vt 0.414448 0.641253
vt 0.423095 0.508652
vt 0.621491 0.816867
vt 0.648114 0.640437
vt 0.669097 0.641253
vt 0.644267 0.774144
vt 0.578790 0.496630
vt 0.601625 0.405151
vt 0.649402 0.433451
vt 0.651726 0.367843
vt 0.620780 0.366797
vt 0.454529 0.413961
vt 0.467814 0.368189
vt 0.488225 0.366596
vt 0.561691 0.421068
vt 0.537425 0.365401
vt 0.507200 0.363509
vt 0.481273 0.364028
vt 0.510983 0.366114
vt 0.635806 0.367147
vt 0.669092 0.368189
vt 0.420824 0.496630
vt 0.452865 0.405151
vt 0.558226 0.518348
vt 0.484328 0.324872
vt 0.502799 0.322553
vt 0.547406 0.321655
vt 0.519920 0.320969
vt 0.496410 0.322232
vt 0.523434 0.321439
vt 0.639292 0.324944
vt 0.675657 0.324872
vt 0.550036 0.367843
vt 0.558926 0.322330
vt 0.465216 0.366023
vt 0.604868 0.366023
vt 0.599660 0.365401
vt 0.621651 0.293283
vt 0.658462 0.293469
vt 0.659368 0.261742
vt 0.621257 0.261665
vt 0.501495 0.293600
vt 0.482345 0.307625
vt 0.480362 0.262732
vt 0.500191 0.261781
vt 0.519246 0.292376
vt 0.547742 0.292993
vt 0.548078 0.261464
vt 0.518571 0.260916
vt 0.494871 0.293528
vt 0.493332 0.261956
vt 0.522889 0.292587
vt 0.522344 0.260869
vt 0.451756 0.288897
vt 0.449773 0.262732
vt 0.656778 0.322330
vt 0.622394 0.322035
vt 0.481902 0.324350
vt 0.605664 0.324350
vt 0.599057 0.321655
vt 0.595403 0.548078
vt 0.621257 0.561263
vt 0.645824 0.523009
vt 0.590945 0.518571
vt 0.639859 0.470735
vt 0.648324 0.498544
vt 0.685407 0.500191
vt 0.686261 0.480362
vt 0.592251 0.493332
vt 0.659368 0.560446
vt 0.683143 0.522344
vt 0.596433 0.477757
vt 0.479829 0.307317
vt 0.477757 0.262636
vt 0.447168 0.262636
vt 0.449241 0.288588
vt 0.596679 0.292993
vt 0.595403 0.261464
vt 0.559686 0.293469
vt 0.560446 0.261742
vt 0.603589 0.307317
vt 0.640355 0.307779
vt 0.679739 0.307625
vt 0.677932 0.288897
vt 0.639680 0.289050
vt 0.639859 0.262967
vt 0.679465 0.262732
vt 0.604354 0.288588
vt 0.603287 0.262636
vt 0.679739 0.482345
vt 0.640355 0.473048
vt 0.639680 0.442459
vt 0.677932 0.451756
vt 0.679465 0.449773
vt 0.639859 0.440146
vt 0.603589 0.479829
vt 0.604354 0.449241
vt 0.603287 0.447168
vt 0.841501 0.761101
vt 0.796910 0.643370
vt 0.906455 0.644155
vt 0.894416 0.742499
vt 0.957194 0.643970
vt 0.829265 0.517077
vt 0.940741 0.715601
vt 0.671449 0.841501
vt 0.669190 0.894416
vt 0.849398 0.470798
vt 0.666902 0.940741
vt 0.909364 0.402088
vt 0.855378 0.389954
vt 0.592313 0.470184
vt 0.617524 0.471308
vt 0.621192 0.417417
vt 0.598226 0.414426
vt 0.598146 0.467455
vt 0.603540 0.389954
vt 0.643835 0.389418
vt 0.855424 0.393127
vt 0.905341 0.403681
vt 0.667620 0.471464
vt 0.947229 0.538591
vt 0.963044 0.470184
vt 0.580250 0.494548
vt 0.595712 0.312254
vt 0.621272 0.312916
vt 0.622837 0.264476
vt 0.597277 0.263453
vt 0.852894 0.313492
vt 0.849695 0.260671
vt 0.818572 0.260902
vt 0.821566 0.286829
vt 0.893654 0.314609
vt 0.853541 0.316407
vt 0.850246 0.263617
vt 0.890422 0.263754
vt 0.896415 0.312211
vt 0.936226 0.312254
vt 0.933075 0.263453
vt 0.893263 0.261490
vt 0.670148 0.393127
vt 0.666826 0.415674
vt 0.958612 0.415674
vt 0.958434 0.414426
vt 0.649700 0.837975
vt 0.635627 0.887710
vt 0.686058 0.890422
vt 0.687133 0.850246
vt 0.592375 0.849695
vt 0.589648 0.893263
vt 0.597277 0.933075
vt 0.622837 0.940554
vt 0.673628 0.933416
vt 0.822213 0.289744
vt 0.819123 0.263848
vt 0.672063 0.313364
vt 0.673628 0.264581
vt 0.936602 0.313364
vt 0.933416 0.264581
vt 0.941647 0.364922
vt 0.899640 0.363406
vt 0.623001 0.364960
vt 0.665562 0.364922
vt 0.668659 0.362549
vt 0.644119 0.361871
vt 0.647700 0.316485
vt 0.685132 0.316407
vt 0.859879 0.359936
vt 0.902447 0.361457
vt 0.941330 0.363919
vt 0.860378 0.362549
vt 0.606538 0.359936
vt 0.590374 0.313492
vt 0.601582 0.363919
vt 0.646474 0.289822
vt 0.601626 0.286829
vt 0.603191 0.260902
vt 0.648039 0.263334
vt 0.675760 0.289744
vt 0.677325 0.263848
vt 0.647700 0.841274
vt 0.590374 0.852894
vt 0.601626 0.821566
vt 0.646474 0.809945
vt 0.648039 0.806852
vt 0.603191 0.818572
vt 0.685132 0.853541
vt 0.675760 0.822213
vt 0.677325 0.819123
vt 0.500000 0.668378
vt 0.500000 0.724779
vt 0.517225 0.721513
vt 0.520785 0.669173
vt 0.528698 1.002924
vt 0.500000 1.014901
vt 0.500000 1.025182
vt 0.520785 1.015365
vt 0.500000 0.744181
vt 0.519989 0.740196
vt 0.519989 0.988807
vt 0.500000 0.995348
vt 0.500000 0.660499
vt 0.528698 0.661469
vt 0.154177 0.616909
vt 0.166410 0.570048
vt 0.135838 0.608740
vt 0.149154 0.567675
vt 0.147623 0.572395
vt 0.137518 0.603560
vt 0.583783 0.154177
vt 0.583848 0.135838
vt 0.600568 0.131366
vt 0.597073 0.144428
vt 0.144166 0.612314
vt 0.141084 0.620214
vt 0.132632 0.614576
vt 0.134671 0.609983
vt 0.153028 0.593819
vt 0.141399 0.592146
vt 0.619182 0.132632
vt 0.614588 0.141084
vt 0.606252 0.140479
vt 0.610351 0.130579
vt 0.138199 0.601250
vt 0.148213 0.603179
vt 0.602487 0.570048
vt 0.583783 0.616909
vt 0.597073 0.624463
vt 0.606252 0.625520
vt 0.614588 0.620214
vt 0.620822 0.612314
vt 0.623703 0.603179
vt 0.620639 0.593819
vt 0.604695 0.577238
vt 0.601269 0.572395
vt 0.603531 0.567675
vt 0.609313 0.614171
vt 0.615687 0.610750
vt 0.619182 0.614576
vt 0.610351 0.619358
vt 0.602434 0.613212
vt 0.600568 0.617961
vt 0.626402 0.601250
vt 0.623276 0.609983
vt 0.618527 0.594500
vt 0.623272 0.592146
vt 0.590602 0.606787
vt 0.583848 0.608740
vt 0.592903 0.603615
vt 0.603070 0.582298
vt 0.613048 0.594751
vt 0.610999 0.606475
vt 0.606401 0.608943
vt 0.601438 0.608251
vt 0.586331 0.603560
vt 0.600598 0.578805
vt 0.589822 0.601288
vt 0.148133 0.578805
vt 0.140843 0.601288
vt 0.522445 0.038205
vt 0.513246 0.032036
vt 0.507613 0.025182
vt 0.515546 0.030102
vt 0.521458 0.442272
vt 0.528336 0.428901
vt 0.500000 0.456702
vt 0.500000 0.445370
vt 0.500000 0.031689
vt 0.512541 0.032373
vt 0.506877 0.025742
vt 0.500000 0.025886
vt 0.500000 0.031337
vt 0.500000 0.025479
vt 0.030102 0.457928
vt 0.030515 0.446199
vt 0.432141 0.867914
vt 0.443845 0.927906
vt 0.379085 0.894044
vt 0.360683 0.828812
vt 0.439809 0.672195
vt 0.430298 0.558226
vt 0.400297 0.594201
vt 0.380247 0.672998
vt 0.419750 0.833374
vt 0.430922 0.759035
vt 0.362910 0.751725
vt 0.364577 0.812683
vt 0.430922 0.758996
vt 0.439809 0.671923
vt 0.454286 0.976119
vt 0.395580 0.951058
vt 0.395580 0.548422
vt 0.333098 0.547256
vt 0.311584 0.643970
vt 0.373635 0.643481
vt 0.436410 0.893919
vt 0.360683 0.793372
vt 0.328551 0.761101
vt 0.323030 0.643370
vt 0.340672 0.642712
vt 0.444006 0.632181
vt 0.395580 0.735145
vt 0.454286 0.747180
vt 0.427025 0.538591
vt 0.333098 0.715601
vt 0.427025 0.947229
vt 0.443553 0.575135
vt 0.400297 0.530171
vt 0.356060 0.535244
vt 0.340885 0.643738
vt 0.362910 0.643182
vt 0.435444 0.492909
vt 0.433984 0.447361
vt 0.430298 0.518348
vt 0.405006 0.421068
vt 0.383019 0.429733
vt 0.362474 0.771615
vt 0.387552 0.796381
vt 0.438918 0.382998
vt 0.421210 0.420824
vt 0.448920 0.357545
vt 0.398021 0.363238
vt 0.378773 0.407144
vt 0.332784 0.508652
vt 0.333539 0.413961
vt 0.367244 0.407548
vt 0.378773 0.499901
vt 0.362910 0.751727
vt 0.459125 0.268345
vt 0.417930 0.278839
vt 0.380247 0.672932
vt 0.448920 0.314473
vt 0.328551 0.517077
vt 0.328734 0.470798
vt 0.357619 0.470278
vt 0.364577 0.509803
vt 0.459125 0.239236
vt 0.435444 0.495971
vt 0.387552 0.579931
vt 0.371732 0.501290
vt 0.368885 0.457158
vt 0.460183 0.181283
vt 0.460183 0.140934
vt 0.460183 0.196322
vt 0.419994 0.205473
vt 0.378509 0.393435
vt 0.461297 0.608225
vt 0.473395 0.560962
vt 0.433984 0.450625
vt 0.460469 0.141037
vt 0.469367 0.116366
vt 0.437911 0.123733
vt 0.420553 0.149293
vt 0.457081 0.165879
vt 0.413943 0.174337
vt 0.484203 0.085531
vt 0.489280 0.071544
vt 0.476758 0.071388
vt 0.468516 0.086614
vt 0.398021 0.325561
vt 0.417930 0.249130
vt 0.419994 0.679456
vt 0.420401 0.648799
vt 0.460183 0.657159
vt 0.460183 0.690304
vt 0.486669 0.045311
vt 0.419994 0.191059
vt 0.422167 0.599988
vt 0.445768 0.556649
vt 0.469661 0.475706
vt 0.477555 0.462176
vt 0.486754 0.460736
vt 0.484790 0.477146
vt 0.484454 0.457928
vt 0.485561 0.446199
vt 0.493123 0.445401
vt 0.492387 0.457080
vt 0.471665 0.053210
vt 0.379159 0.601238
vt 0.385282 0.599612
vt 0.386922 0.604170
vt 0.381432 0.607555
vt 0.486669 0.424258
vt 0.487459 0.440917
vt 0.423568 0.505809
vt 0.452679 0.467354
vt 0.460520 0.507406
vt 0.480956 0.508271
vt 0.420401 0.168698
vt 0.422167 0.108290
vt 0.461297 0.096221
vt 0.479678 0.097153
vt 0.458025 0.104341
vt 0.378509 0.816867
vt 0.355733 0.774144
vt 0.330903 0.641253
vt 0.351886 0.640437
vt 0.398375 0.405151
vt 0.421210 0.496630
vt 0.379220 0.366797
vt 0.348274 0.367843
vt 0.350598 0.433451
vt 0.330908 0.368189
vt 0.364194 0.367147
vt 0.324343 0.324872
vt 0.360708 0.324944
vt 0.395132 0.366023
vt 0.400340 0.365401
vt 0.378349 0.293283
vt 0.378743 0.261665
vt 0.340632 0.261742
vt 0.341538 0.293469
vt 0.377606 0.322035
vt 0.343222 0.322330
vt 0.394336 0.324350
vt 0.400943 0.321655
vt 0.404597 0.548078
vt 0.409055 0.518571
vt 0.354176 0.523009
vt 0.378743 0.561263
vt 0.360141 0.470735
vt 0.313739 0.480362
vt 0.314593 0.500191
vt 0.351676 0.498544
vt 0.407749 0.493332
vt 0.316857 0.522344
vt 0.340632 0.560446
vt 0.403567 0.477757
vt 0.403321 0.292993
vt 0.404597 0.261464
vt 0.359645 0.307779
vt 0.396411 0.307317
vt 0.320262 0.307625
vt 0.322068 0.288897
vt 0.320535 0.262732
vt 0.360141 0.262967
vt 0.360320 0.289050
vt 0.396713 0.262636
vt 0.395646 0.288588
vt 0.320262 0.482345
vt 0.322068 0.451756
vt 0.360320 0.442459
vt 0.359645 0.473048
vt 0.360141 0.440146
vt 0.320535 0.449773
vt 0.395646 0.449241
vt 0.396411 0.479829
vt 0.396713 0.447168
vt 0.330810 0.894416
vt 0.328551 0.841501
vt 0.333098 0.940741
vt 0.407688 0.470184
vt 0.401774 0.414426
vt 0.378808 0.417417
vt 0.382476 0.471308
vt 0.356165 0.389418
vt 0.396460 0.389954
vt 0.401854 0.467455
vt 0.332380 0.471464
vt 0.419750 0.494548
vt 0.404289 0.312254
vt 0.402723 0.263453
vt 0.377163 0.264476
vt 0.378728 0.312916
vt 0.329852 0.393127
vt 0.333174 0.415674
vt 0.350300 0.837975
vt 0.312867 0.850246
vt 0.313942 0.890422
vt 0.364373 0.887710
vt 0.410353 0.893263
vt 0.407625 0.849695
vt 0.377163 0.940554
vt 0.402723 0.933075
vt 0.326372 0.933416
vt 0.326372 0.264581
vt 0.327937 0.313364
vt 0.376999 0.364960
vt 0.334438 0.364922
vt 0.331341 0.362549
vt 0.314868 0.316407
vt 0.352300 0.316485
vt 0.355881 0.361871
vt 0.409626 0.313492
vt 0.393462 0.359936
vt 0.398418 0.363919
vt 0.353526 0.289822
vt 0.351961 0.263334
vt 0.396809 0.260902
vt 0.398374 0.286829
vt 0.324240 0.289744
vt 0.322675 0.263848
vt 0.352300 0.841274
vt 0.353526 0.809945
vt 0.398374 0.821566
vt 0.409626 0.852894
vt 0.396809 0.818572
vt 0.351961 0.806852
vt 0.314868 0.853541
vt 0.324240 0.822213
vt 0.322675 0.819123
vt 0.479215 0.669173
vt 0.482775 0.721513
vt 0.471302 1.002924
vt 0.479215 1.015365
vt 0.480011 0.740196
vt 0.480011 0.988807
vt 0.471302 0.661469
vt 0.416217 0.154177
vt 0.402927 0.144428
vt 0.399432 0.131366
vt 0.416152 0.135838
vt 0.380819 0.132632
vt 0.389649 0.130579
vt 0.393748 0.140479
vt 0.385412 0.141084
vt 0.397513 0.570048
vt 0.379361 0.593819
vt 0.376297 0.603179
vt 0.379178 0.612314
vt 0.385412 0.620214
vt 0.393748 0.625520
vt 0.402927 0.624463
vt 0.416217 0.616909
vt 0.395305 0.577238
vt 0.396469 0.567675
vt 0.398731 0.572395
vt 0.390687 0.614171
vt 0.389649 0.619358
vt 0.380819 0.614576
vt 0.384313 0.610750
vt 0.397566 0.613212
vt 0.399432 0.617961
vt 0.376724 0.609983
vt 0.373598 0.601250
vt 0.376728 0.592146
vt 0.381473 0.594500
vt 0.409398 0.606787
vt 0.416152 0.608740
vt 0.407098 0.603615
vt 0.398562 0.608251
vt 0.393599 0.608943
vt 0.389001 0.606475
vt 0.386952 0.594751
vt 0.396930 0.582298
vt 0.413669 0.603560
vt 0.399402 0.578805
vt 0.410178 0.601288
vt 0.477555 0.038205
vt 0.484454 0.030102
vt 0.492387 0.025182
vt 0.486754 0.032036
vt 0.478542 0.442272
vt 0.471665 0.428901
vt 0.493123 0.025742
vt 0.487459 0.032373
vt 0.181819 0.000000
vt 0.227273 0.078731
vt 0.136365 0.078731
vt 0.272728 0.157461
vt 0.318182 0.078731
vt 0.363637 0.157461
vt 0.909091 0.000000
vt 0.954545 0.078731
vt 0.863636 0.078731
vt 0.727273 0.000000
vt 0.772727 0.078731
vt 0.681818 0.078731
vt 0.545455 0.000000
vt 0.590909 0.078731
vt 0.500000 0.078731
vt 0.318182 0.236191
vt 0.090910 0.157461
vt 0.181819 0.157461
vt 0.136365 0.236191
vt 0.818182 0.157461
vt 0.909091 0.157461
vt 0.863636 0.236191
vt 0.636364 0.157461
vt 0.727273 0.157461
vt 0.681818 0.236191
vt 0.454546 0.157461
vt 0.545455 0.157461
vt 0.500000 0.236191
vt 0.227273 0.236191
vt 0.045455 0.236191
vt 0.772727 0.236191
vt 0.590909 0.236191
vt 0.409092 0.236191
vt 0.181819 0.314921
vt 0.272728 0.314921
vt 0.227273 0.393651
vt 0.000000 0.314921
vt 0.090910 0.314921
vt 0.045455 0.393651
vt 0.727273 0.314921
vt 0.818182 0.314921
vt 0.772727 0.393651
vt 0.545455 0.314921
vt 0.636364 0.314921
vt 0.590909 0.393651
vt 0.363637 0.314921
vt 0.454546 0.314921
vt 0.409092 0.393651
vt 0.500000 0.393651
vt 0.454546 0.472382
vt 0.681818 0.393651
vt 0.636364 0.472382
vt 0.863636 0.393651
vt 0.818182 0.472382
vt 0.909091 0.314921
vt 0.136365 0.393651
vt 0.090910 0.472382
vt 0.318182 0.393651
vt 0.272728 0.472382
vt 0.954545 0.236191
vt 1.000000 0.157461
vt 0.409092 0.078731
vt 0.363637 0.000000
s 1
f 116/1/1 98/2/1 209/3/1 208/4/1
f 115/5/2 4/6/2 17/7/2 97/8/2
f 3/9/3 7/10/3 13/11/3 8/12/3
f 7/10/4 4/13/4 9/14/4 13/11/4
f 13/11/5 9/14/5 2/15/5 10/16/5
f 8/12/6 13/11/6 10/16/6 1/17/6
f 1/17/7 10/16/7 32/18/7 29/19/7
f 114/20/8 1/21/8 29/22/8 83/23/8
f 116/24/9 3/25/9 8/26/9 109/27/9
f 109/27/10 8/26/10 1/21/10 114/20/10
f 115/5/11 6/28/11 15/29/11 99/30/11
f 99/30/12 15/29/12 12/31/12 112/32/12
f 97/8/13 17/7/13 21/33/13 90/34/13
f 20/35/14 25/36/14 203/37/14 204/38/14
f 116/24/15 5/28/15 18/39/15 98/40/15
f 4/41/16 7/42/16 197/43/16 196/44/16
f 89/45/17 90/46/17 21/47/17 25/36/17
f 91/48/18 89/45/18 25/36/18 20/35/18
f 25/36/19 21/47/19 202/49/19 203/37/19
f 98/40/20 18/39/20 23/50/20 91/51/20
f 38/52/21 45/53/21 134/54/21 131/55/21
f 133/56/22 136/57/22 144/58/22 146/59/22
f 112/32/23 12/31/23 34/60/23 82/61/23
f 10/16/24 2/15/24 30/62/24 32/18/24
f 29/63/25 32/64/25 129/65/25 130/66/25
f 75/67/26 41/68/26 48/69/26 73/70/26
f 82/61/27 34/60/27 41/68/27 75/67/27
f 83/71/28 29/63/28 141/72/28 140/73/28
f 32/64/29 30/74/29 128/75/29 129/65/29
f 73/70/30 48/69/30 56/76/30 66/77/30
f 74/78/31 81/79/31 145/80/31 148/81/31
f 130/82/32 133/56/32 146/59/32 147/83/32
f 6/28/33 115/5/33 97/8/33 19/39/33
f 54/84/34 53/85/34 60/86/34 61/87/34
f 67/88/35 54/89/35 61/90/35 65/91/35
f 11/92/36 114/20/36 83/23/36 33/93/36
f 5/28/37 116/24/37 109/27/37 14/29/37
f 14/29/38 109/27/38 114/20/38 11/92/38
f 139/94/39 54/95/39 143/96/39 142/97/39
f 30/62/40 38/52/40 131/55/40 128/98/40
f 4/6/41 115/5/41 99/30/41 9/99/41
f 61/87/42 60/86/42 69/100/42 70/101/42
f 65/91/43 61/90/43 70/102/43 58/103/43
f 9/99/44 99/30/44 112/32/44 2/104/44
f 66/77/45 56/76/45 63/105/45 64/106/45
f 19/39/46 97/8/46 90/34/46 24/107/46
f 53/85/47 52/108/47 59/109/47 60/86/47
f 198/110/48 3/111/48 207/112/48 213/113/48
f 256/114/49 255/115/49 253/116/49 254/117/49
f 23/118/50 26/119/50 89/45/50 91/48/50
f 69/100/51 68/120/51 76/121/51 77/122/51
f 204/123/52 201/124/52 211/125/52 212/126/52
f 64/106/53 63/105/53 72/127/53 57/128/53
f 33/93/54 83/23/54 81/129/54 40/68/54
f 60/86/55 59/109/55 68/120/55 69/100/55
f 2/104/56 112/32/56 82/61/56 30/130/56
f 38/131/57 75/67/57 73/70/57 45/132/57
f 77/122/58 76/121/58 259/133/58 260/134/58
f 30/130/59 82/61/59 75/67/59 38/131/59
f 50/135/60 80/136/60 88/137/60 44/138/60
f 58/103/61 70/102/61 78/139/61 51/140/61
f 70/101/62 69/100/62 77/122/62 78/141/62
f 45/132/63 73/70/63 66/77/63 52/142/63
f 57/128/64 72/127/64 80/136/64 50/135/64
f 28/143/65 110/144/65 96/145/65 42/146/65
f 40/68/66 81/129/66 74/147/66 47/69/66
f 108/148/67 262/149/67 93/150/67 94/151/67
f 31/152/68 108/153/68 94/154/68 43/155/68
f 55/156/69 67/88/69 65/91/69 62/157/69
f 51/140/70 78/139/70 86/158/70 49/159/70
f 78/141/71 77/122/71 260/134/71 86/160/71
f 47/69/72 74/147/72 67/88/72 55/156/72
f 123/161/73 124/162/73 101/163/73 102/164/73
f 121/165/74 123/166/74 102/167/74 37/168/74
f 62/157/75 65/91/75 58/103/75 71/169/75
f 52/142/76 66/77/76 64/106/76 59/170/76
f 59/170/77 64/106/77 57/128/77 68/171/77
f 262/149/78 261/172/78 92/173/78 93/150/78
f 76/174/79 50/175/79 44/176/79 259/177/79
f 71/169/80 58/103/80 51/140/80 79/178/80
f 37/168/81 35/179/81 105/180/81 103/181/81
f 124/162/82 127/182/82 297/183/82 298/184/82 101/163/82
f 68/171/83 57/128/83 50/135/83 76/185/83
f 261/186/84 28/143/84 42/146/84 92/187/84
f 107/188/85 31/152/85 43/155/85 95/189/85
f 127/190/86 122/191/86 295/192/86 297/193/86
f 79/178/87 51/140/87 49/159/87 87/194/87
f 100/195/88 36/196/88 301/197/88 104/198/88
f 126/199/89 121/165/89 37/168/89 103/181/89
f 102/167/90 101/200/90 35/179/90 37/168/90
f 274/201/91 273/202/91 290/203/91 291/204/91
f 122/191/92 125/205/92 300/206/92 295/192/92
f 49/159/93 86/158/93 108/153/93 31/152/93
f 86/160/94 260/134/94 262/149/94 108/148/94
f 35/207/95 296/208/95 299/209/95 105/210/95
f 44/176/96 88/211/96 110/144/96 28/143/96
f 93/212/97 92/187/97 120/213/97 119/214/97
f 87/194/98 49/159/98 31/152/98 107/188/98
f 42/146/99 96/145/99 113/215/99 27/216/99
f 259/217/100 44/138/100 28/218/100 261/219/100
f 92/187/101 42/146/101 27/216/101 120/213/101
f 95/189/102 43/155/102 22/220/102 118/221/102
f 43/155/103 94/154/103 117/222/103 22/220/103
f 94/151/104 93/150/104 119/223/104 117/224/104
f 120/213/105 27/216/105 122/191/105 127/190/105
f 118/221/106 22/220/106 121/165/106 126/199/106
f 119/223/107 120/225/107 127/182/107 124/162/107
f 27/216/108 113/215/108 125/205/108 122/191/108
f 22/220/109 117/222/109 123/166/109 121/165/109
f 117/224/110 119/223/110 124/162/110 123/161/110
f 130/82/111 129/226/111 132/227/111 133/56/111
f 132/227/112 131/55/112 134/54/112 135/228/112
f 129/226/113 128/98/113 131/55/113 132/227/113
f 135/228/114 134/54/114 137/229/114 138/230/114
f 133/56/115 132/227/115 135/228/115 136/57/115
f 136/57/116 135/228/116 138/230/116 139/231/116
f 52/232/117 53/233/117 138/234/117 137/235/117
f 45/53/118 52/108/118 137/229/118 134/54/118
f 54/95/119 67/236/119 149/237/119 143/96/119
f 53/233/120 54/95/120 139/94/120 138/234/120
f 141/72/121 147/238/121 157/239/121 39/240/121
f 144/58/122 142/241/122 150/242/122 153/243/122
f 145/80/123 140/244/123 46/245/123 154/246/123
f 148/81/124 145/80/124 154/246/124 158/247/124
f 146/59/125 144/58/125 153/243/125 156/248/125
f 142/97/126 143/96/126 151/249/126 150/250/126
f 136/57/127 139/231/127 142/241/127 144/58/127
f 67/251/128 74/78/128 148/81/128 149/252/128
f 29/63/129 130/66/129 147/238/129 141/72/129
f 81/79/130 83/253/130 140/244/130 145/80/130
f 153/243/131 150/242/131 162/254/131 164/255/131
f 154/246/132 46/245/132 160/256/132 165/257/132
f 158/247/133 154/246/133 165/257/133 168/258/133
f 156/248/134 153/243/134 164/255/134 166/259/134
f 150/250/135 151/249/135 163/260/135 162/261/135
f 157/262/136 156/248/136 166/259/136 167/263/136
f 149/252/137 148/81/137 158/247/137 159/264/137
f 143/96/138 149/237/138 159/265/138 151/249/138
f 140/73/139 141/72/139 39/240/139 46/266/139
f 147/83/140 146/59/140 156/248/140 157/262/140
f 188/267/141 187/268/141 177/269/141 152/270/141
f 184/271/142 185/272/142 170/273/142 173/274/142
f 182/275/143 180/276/143 155/277/143 174/278/143
f 181/279/144 182/275/144 174/278/144 178/280/144
f 183/281/145 184/271/145 173/274/145 176/282/145
f 170/273/146 185/272/146 194/283/146 192/284/146
f 39/240/147 157/239/147 167/285/147 161/286/147
f 159/264/148 158/247/148 168/258/148 169/287/148
f 151/249/149 159/265/149 169/288/149 163/260/149
f 46/266/150 39/240/150 161/286/150 160/289/150
f 155/290/151 152/291/151 175/292/151 174/293/151
f 171/294/152 172/295/152 173/296/152 170/297/152
f 174/293/153 175/292/153 172/295/153 178/298/153
f 175/292/154 152/291/154 177/299/154 176/300/154
f 178/298/155 172/295/155 171/294/155 179/301/155
f 172/295/156 175/292/156 176/300/156 173/296/156
f 189/302/157 181/279/157 178/280/157 179/303/157
f 189/302/158 179/303/158 193/304/158 195/305/158
f 180/306/159 188/267/159 152/270/159 155/307/159
f 187/308/160 183/281/160 176/282/160 177/309/160
f 167/263/161 166/259/161 183/281/161 187/308/161
f 160/289/162 161/286/162 188/267/162 180/306/162
f 163/260/163 169/288/163 189/310/163 186/311/163
f 169/287/164 168/258/164 181/279/164 189/302/164
f 162/261/165 163/260/165 186/311/165 185/312/165
f 166/259/166 164/255/166 184/271/166 183/281/166
f 168/258/167 165/257/167 182/275/167 181/279/167
f 165/257/168 160/256/168 180/276/168 182/275/168
f 164/255/169 162/254/169 185/272/169 184/271/169
f 161/286/170 167/285/170 187/268/170 188/267/170
f 194/313/171 190/314/171 191/315/171 192/316/171
f 190/314/172 195/317/172 193/318/172 191/315/172
f 185/319/173 186/320/173 190/321/173 194/322/173
f 171/294/174 170/297/174 192/323/174 191/324/174
f 186/320/175 189/325/175 195/326/175 190/321/175
f 179/301/176 171/294/176 191/324/176 193/327/176
f 196/328/177 197/329/177 200/330/177 199/331/177
f 200/330/178 201/124/178 204/123/178 203/332/178
f 197/329/179 198/333/179 201/124/179 200/330/179
f 199/331/180 200/330/180 203/332/180 202/334/180
f 7/42/181 3/111/181 198/110/181 197/43/181
f 17/7/182 4/6/182 196/335/182 199/336/182
f 201/124/183 198/333/183 213/337/183 211/125/183
f 21/33/184 17/7/184 199/336/184 202/338/184
f 208/4/185 209/3/185 217/339/185 216/340/185
f 210/341/186 206/342/186 214/343/186 218/344/186
f 207/112/187 208/345/187 216/346/187 215/347/187
f 211/125/188 213/337/188 221/348/188 219/349/188
f 20/35/189 204/38/189 212/350/189 206/342/189
f 91/48/190 20/35/190 206/342/190 210/341/190
f 98/2/191 91/351/191 210/352/191 209/3/191
f 3/111/192 116/353/192 208/345/192 207/112/192
f 232/354/193 235/355/193 222/356/193 226/357/193
f 233/358/194 224/359/194 240/360/194 241/361/194
f 16/362/195 230/363/195 229/364/195 227/365/195
f 231/366/196 232/367/196 226/368/196 225/369/196
f 213/113/197 207/112/197 215/347/197 221/370/197
f 206/342/198 212/350/198 220/371/198 214/343/198
f 212/126/199 211/125/199 219/349/199 220/372/199
f 209/3/200 210/352/200 218/373/200 217/339/200
f 223/374/201 205/375/201 227/376/201 229/377/201
f 223/374/202 224/378/202 225/379/202 205/375/202
f 205/375/203 225/379/203 226/380/203 222/381/203
f 205/375/204 222/381/204 228/382/204 227/376/204
f 233/358/205 231/366/205 225/369/205 224/359/205
f 229/364/206 230/363/206 237/383/206 238/384/206
f 235/355/207 236/385/207 228/386/207 222/356/207
f 236/387/208 16/362/208 227/365/208 228/388/208
f 250/389/209 243/390/209 16/362/209 236/387/209
f 249/391/210 250/392/210 236/385/210 235/355/210
f 246/393/211 245/394/211 234/395/211 230/396/211
f 248/397/212 244/398/212 231/366/212 233/358/212
f 244/398/213 247/399/213 232/367/213 231/366/213
f 243/390/214 246/400/214 230/363/214 16/362/214
f 245/394/215 248/401/215 233/402/215 234/395/215
f 247/403/216 249/391/216 235/355/216 232/354/216
f 242/404/217 241/405/217 240/406/217 239/407/217
f 237/408/218 242/404/218 239/407/218 238/409/218
f 234/410/219 233/411/219 241/412/219 242/413/219
f 224/378/220 223/374/220 239/414/220 240/415/220
f 230/416/221 234/410/221 242/413/221 237/417/221
f 223/374/222 229/377/222 238/418/222 239/414/222
f 218/344/223 214/343/223 249/391/223 247/403/223
f 215/347/224 216/346/224 248/401/224 245/394/224
f 219/349/225 221/348/225 246/400/225 243/390/225
f 217/339/226 218/373/226 247/399/226 244/398/226
f 216/340/227 217/339/227 244/398/227 248/397/227
f 221/370/228 215/347/228 245/394/228 246/393/228
f 214/343/229 220/371/229 250/392/229 249/391/229
f 220/372/230 219/349/230 243/390/230 250/389/230
f 252/419/231 251/420/231 254/421/231 253/422/231
f 255/423/232 257/424/232 252/425/232 253/426/232
f 258/427/233 256/428/233 254/421/233 251/420/233
f 24/107/234 90/34/234 256/429/234 258/430/234
f 89/45/235 26/119/235 257/431/235 255/432/235
f 90/46/236 89/45/236 255/432/236 256/428/236
f 84/433/237 85/434/237 260/134/237 259/133/237
f 275/435/238 84/433/238 259/133/238 261/172/238
f 85/434/239 276/436/239 262/149/239 260/134/239
f 276/436/240 284/437/240 283/438/240 275/435/240 261/172/240 262/149/240
f 84/439/241 275/440/241 279/441/241 263/442/241
f 266/443/242 264/444/242 278/445/242 280/446/242
f 276/436/243 85/434/243 267/447/243 282/448/243
f 278/449/244 264/450/244 265/451/244 277/452/244
f 277/452/245 265/451/245 263/442/245 279/441/245
f 266/443/246 280/446/246 281/453/246 268/454/246
f 268/454/247 281/453/247 282/448/247 267/447/247
f 85/455/248 84/456/248 263/457/248 265/458/248 264/459/248 266/460/248 268/461/248 267/462/248
f 106/463/249 284/464/249 276/465/249
f 271/466/250 269/467/250 278/468/250 277/469/250
f 270/470/251 271/466/251 277/469/251 279/471/251
f 273/202/252 274/201/252 281/472/252 280/473/252
f 274/201/253 272/474/253 282/475/253 281/472/253
f 269/467/254 273/202/254 280/473/254 278/468/254
f 111/476/255 270/470/255 279/471/255 275/477/255
f 272/474/256 106/463/256 276/465/256 282/475/256
f 285/478/257 286/479/257 292/480/257 291/204/257 290/203/257 288/481/257 287/482/257 289/483/257
f 283/484/258 111/476/258 275/477/258
f 270/470/259 111/476/259 285/478/259 289/483/259
f 294/485/260 286/479/260 285/478/260 293/486/260
f 111/476/261 283/484/261 293/486/261 285/478/261
f 106/463/262 272/474/262 292/480/262 286/479/262
f 272/474/263 274/201/263 291/204/263 292/480/263
f 269/467/264 271/466/264 287/482/264 288/481/264
f 283/438/265 284/437/265 294/487/265 293/488/265
f 273/202/266 269/467/266 288/481/266 290/203/266
f 284/464/267 106/463/267 286/479/267 294/485/267
f 271/466/268 270/470/268 289/483/268 287/482/268
f 297/489/269 295/490/269 36/491/269 100/492/269
f 296/208/270 298/493/270 104/198/270 301/197/270
f 101/494/271 298/493/271 296/208/271 35/207/271
f 36/196/272 302/495/272 303/496/272 301/197/272
f 299/497/273 296/498/273 301/499/273 303/500/273
f 295/490/274 300/501/274 302/502/274 36/491/274
f 298/184/275 297/183/275 100/503/275 104/504/275
f 385/1/276 474/4/276 475/3/276 372/2/276
f 384/505/277 371/506/277 314/507/277 307/508/277
f 306/9/278 309/12/278 312/11/278 308/10/278
f 308/10/279 312/11/279 310/14/279 307/13/279
f 312/11/280 311/16/280 305/15/280 310/14/280
f 309/12/281 304/17/281 311/16/281 312/11/281
f 304/17/282 321/19/282 324/18/282 311/16/282
f 383/509/283 361/510/283 321/511/283 304/512/283
f 385/513/284 380/514/284 309/515/284 306/516/284
f 380/514/285 383/509/285 304/512/285 309/515/285
f 384/505/286 373/517/286 15/29/286 6/28/286
f 373/517/287 382/518/287 12/31/287 15/29/287
f 371/506/288 366/519/288 316/520/288 314/507/288
f 315/521/289 470/522/289 469/523/289 318/524/289
f 385/513/290 372/525/290 18/39/290 5/28/290
f 307/526/291 462/527/291 463/528/291 308/529/291
f 365/530/292 318/524/292 316/531/292 366/532/292
f 367/533/293 315/521/293 318/524/293 365/530/293
f 318/524/294 469/523/294 468/534/294 316/531/294
f 372/525/295 367/535/295 23/50/295 18/39/295
f 328/52/296 397/55/296 400/54/296 333/53/296
f 399/56/297 412/59/297 410/58/297 402/57/297
f 382/518/298 360/536/298 34/60/298 12/31/298
f 311/16/299 324/18/299 322/62/299 305/15/299
f 321/537/300 396/538/300 395/539/300 324/540/300
f 355/541/301 353/542/301 48/69/301 41/68/301
f 360/536/302 355/541/302 41/68/302 34/60/302
f 361/543/303 406/544/303 407/545/303 321/537/303
f 324/540/304 395/539/304 394/546/304 322/547/304
f 353/542/305 348/548/305 56/76/305 48/69/305
f 354/78/306 414/81/306 411/80/306 359/79/306
f 396/82/307 413/83/307 412/59/307 399/56/307
f 6/28/308 19/39/308 371/506/308 384/505/308
f 340/84/309 345/87/309 344/86/309 339/85/309
f 349/549/310 347/550/310 345/551/310 340/552/310
f 11/92/311 33/93/311 361/510/311 383/509/311
f 5/28/312 14/29/312 380/514/312 385/513/312
f 14/29/313 11/92/313 383/509/313 380/514/313
f 405/553/314 408/554/314 409/555/314 340/556/314
f 322/62/315 394/98/315 397/55/315 328/52/315
f 307/508/316 310/557/316 373/517/316 384/505/316
f 345/87/317 352/101/317 351/100/317 344/86/317
f 347/550/318 342/558/318 352/559/318 345/551/318
f 310/557/319 305/560/319 382/518/319 373/517/319
f 348/548/320 346/561/320 63/105/320 56/76/320
f 19/39/321 24/107/321 366/519/321 371/506/321
f 339/85/322 344/86/322 343/109/322 338/108/322
f 464/562/323 479/563/323 473/564/323 306/565/323
f 520/114/324 518/117/324 517/116/324 519/115/324
f 23/118/325 367/533/325 365/530/325 26/119/325
f 351/100/326 357/122/326 356/121/326 350/120/326
f 470/123/327 478/126/327 477/125/327 467/124/327
f 346/561/328 341/566/328 72/127/328 63/105/328
f 33/93/329 40/68/329 359/567/329 361/510/329
f 344/86/330 351/100/330 350/120/330 343/109/330
f 305/560/331 322/568/331 360/536/331 382/518/331
f 328/569/332 333/570/332 353/542/332 355/541/332
f 357/122/333 522/134/333 521/133/333 356/121/333
f 322/568/334 328/569/334 355/541/334 360/536/334
f 336/571/335 332/572/335 88/137/335 80/136/335
f 342/558/336 337/573/336 358/574/336 352/559/336
f 352/101/337 358/141/337 357/122/337 351/100/337
f 333/570/338 338/575/338 348/548/338 353/542/338
f 341/566/339 336/571/339 80/136/339 72/127/339
f 320/576/340 330/577/340 96/145/340 110/144/340
f 40/68/341 47/69/341 354/578/341 359/567/341
f 379/148/342 370/151/342 369/150/342 524/149/342
f 323/579/343 331/580/343 370/581/343 379/582/343
f 55/156/344 62/157/344 347/550/344 349/549/344
f 337/573/345 335/583/345 364/584/345 358/574/345
f 358/141/346 364/160/346 522/134/346 357/122/346
f 47/69/347 55/156/347 349/549/347 354/578/347
f 391/161/348 376/164/348 375/163/348 392/162/348
f 389/585/349 327/586/349 376/587/349 391/588/349
f 62/157/350 71/169/350 342/558/350 347/550/350
f 338/575/351 343/589/351 346/561/351 348/548/351
f 343/589/352 350/590/352 341/566/352 346/561/352
f 524/149/353 369/150/353 368/173/353 523/172/353
f 356/591/354 521/592/354 332/593/354 336/594/354
f 71/169/355 79/178/355 337/573/355 342/558/355
f 327/586/356 103/181/356 105/180/356 325/595/356
f 392/162/357 375/163/357 560/184/357 559/183/357 393/182/357
f 350/590/358 356/596/358 336/571/358 341/566/358
f 523/597/359 368/598/359 330/577/359 320/576/359
f 107/188/360 95/189/360 331/580/360 323/579/360
f 393/599/361 559/600/361 557/601/361 390/602/361
f 79/178/362 87/194/362 335/583/362 337/573/362
f 374/603/363 377/604/363 561/605/363 326/606/363
f 126/199/364 103/181/364 327/586/364 389/585/364
f 376/587/365 327/586/365 325/595/365 375/607/365
f 536/608/366 553/609/366 552/610/366 535/611/366
f 390/602/367 557/601/367 300/206/367 125/205/367
f 335/583/368 323/579/368 379/582/368 364/584/368
f 364/160/369 379/148/369 524/149/369 522/134/369
f 325/612/370 105/210/370 299/209/370 558/613/370
f 332/593/371 320/576/371 110/144/371 88/211/371
f 369/614/372 387/615/372 388/616/372 368/598/372
f 87/194/373 107/188/373 323/579/373 335/583/373
f 330/577/374 319/617/374 113/215/374 96/145/374
f 521/618/375 523/619/375 320/620/375 332/572/375
f 368/598/376 388/616/376 319/617/376 330/577/376
f 95/189/377 118/221/377 317/621/377 331/580/377
f 331/580/378 317/621/378 386/622/378 370/581/378
f 370/151/379 386/224/379 387/223/379 369/150/379
f 388/616/380 393/599/380 390/602/380 319/617/380
f 118/221/381 126/199/381 389/585/381 317/621/381
f 387/223/382 392/162/382 393/182/382 388/225/382
f 319/617/383 390/602/383 125/205/383 113/215/383
f 317/621/384 389/585/384 391/588/384 386/622/384
f 386/224/385 391/161/385 392/162/385 387/223/385
f 396/82/386 399/56/386 398/227/386 395/226/386
f 398/227/387 401/228/387 400/54/387 397/55/387
f 395/226/388 398/227/388 397/55/388 394/98/388
f 401/228/389 404/230/389 403/229/389 400/54/389
f 399/56/390 402/57/390 401/228/390 398/227/390
f 402/57/391 405/231/391 404/230/391 401/228/391
f 338/623/392 403/624/392 404/625/392 339/626/392
f 333/53/393 400/54/393 403/229/393 338/108/393
f 340/556/394 409/555/394 415/627/394 349/628/394
f 339/626/395 404/625/395 405/553/395 340/556/395
f 407/545/396 329/629/396 423/630/396 413/631/396
f 410/58/397 419/243/397 416/242/397 408/241/397
f 411/80/398 420/246/398 334/245/398 406/244/398
f 414/81/399 424/247/399 420/246/399 411/80/399
f 412/59/400 422/248/400 419/243/400 410/58/400
f 408/554/401 416/632/401 417/633/401 409/555/401
f 402/57/402 410/58/402 408/241/402 405/231/402
f 349/251/403 415/252/403 414/81/403 354/78/403
f 321/537/404 407/545/404 413/631/404 396/538/404
f 359/79/405 411/80/405 406/244/405 361/253/405
f 419/243/406 430/255/406 428/254/406 416/242/406
f 420/246/407 431/257/407 426/256/407 334/245/407
f 424/247/408 434/258/408 431/257/408 420/246/408
f 422/248/409 432/259/409 430/255/409 419/243/409
f 416/632/410 428/634/410 429/635/410 417/633/410
f 423/262/411 433/263/411 432/259/411 422/248/411
f 415/252/412 425/264/412 424/247/412 414/81/412
f 409/555/413 417/633/413 425/636/413 415/627/413
f 406/544/414 334/637/414 329/629/414 407/545/414
f 413/83/415 423/262/415 422/248/415 412/59/415
f 454/638/416 418/639/416 443/640/416 453/641/416
f 450/271/417 439/274/417 436/273/417 451/272/417
f 448/275/418 440/278/418 421/277/418 446/276/418
f 447/279/419 444/280/419 440/278/419 448/275/419
f 449/281/420 442/282/420 439/274/420 450/271/420
f 436/273/421 458/284/421 460/283/421 451/272/421
f 329/629/422 427/642/422 433/643/422 423/630/422
f 425/264/423 435/287/423 434/258/423 424/247/423
f 417/633/424 429/635/424 435/644/424 425/636/424
f 334/637/425 426/645/425 427/642/425 329/629/425
f 421/646/426 440/647/426 441/648/426 418/649/426
f 437/650/427 436/651/427 439/652/427 438/653/427
f 440/647/428 444/654/428 438/653/428 441/648/428
f 441/648/429 442/655/429 443/656/429 418/649/429
f 444/654/430 445/657/430 437/650/430 438/653/430
f 438/653/431 439/652/431 442/655/431 441/648/431
f 455/302/432 445/303/432 444/280/432 447/279/432
f 455/302/433 461/305/433 459/304/433 445/303/433
f 446/658/434 421/659/434 418/639/434 454/638/434
f 453/308/435 443/309/435 442/282/435 449/281/435
f 433/263/436 453/308/436 449/281/436 432/259/436
f 426/645/437 446/658/437 454/638/437 427/642/437
f 429/635/438 452/660/438 455/661/438 435/644/438
f 435/287/439 455/302/439 447/279/439 434/258/439
f 428/634/440 451/662/440 452/660/440 429/635/440
f 432/259/441 449/281/441 450/271/441 430/255/441
f 434/258/442 447/279/442 448/275/442 431/257/442
f 431/257/443 448/275/443 446/276/443 426/256/443
f 430/255/444 450/271/444 451/272/444 428/254/444
f 427/642/445 454/638/445 453/641/445 433/643/445
f 460/663/446 458/664/446 457/665/446 456/666/446
f 456/666/447 457/665/447 459/667/447 461/668/447
f 451/669/448 460/670/448 456/671/448 452/672/448
f 437/650/449 457/673/449 458/674/449 436/651/449
f 452/672/450 456/671/450 461/675/450 455/676/450
f 445/657/451 459/677/451 457/673/451 437/650/451
f 462/328/452 465/331/452 466/330/452 463/329/452
f 466/330/453 469/332/453 470/123/453 467/124/453
f 463/329/454 466/330/454 467/124/454 464/333/454
f 465/331/455 468/334/455 469/332/455 466/330/455
f 308/529/456 463/528/456 464/562/456 306/565/456
f 314/507/457 465/678/457 462/679/457 307/508/457
f 467/124/458 477/125/458 479/337/458 464/333/458
f 316/520/459 468/680/459 465/678/459 314/507/459
f 474/4/460 482/340/460 483/339/460 475/3/460
f 476/681/461 484/682/461 480/683/461 472/684/461
f 473/564/462 481/685/462 482/686/462 474/687/462
f 477/125/463 485/349/463 487/348/463 479/337/463
f 315/521/464 472/684/464 478/688/464 470/522/464
f 367/533/465 476/681/465 472/684/465 315/521/465
f 372/2/466 475/3/466 476/352/466 367/351/466
f 306/565/467 473/564/467 474/687/467 385/689/467
f 498/690/468 492/691/468 488/692/468 501/693/468
f 499/358/469 507/361/469 506/360/469 490/359/469
f 313/362/470 493/365/470 495/364/470 496/363/470
f 497/366/471 491/369/471 492/368/471 498/367/471
f 479/563/472 487/694/472 481/685/472 473/564/472
f 472/684/473 480/683/473 486/695/473 478/688/473
f 478/126/474 486/372/474 485/349/474 477/125/474
f 475/3/475 483/339/475 484/373/475 476/352/475
f 489/696/476 495/697/476 493/698/476 471/699/476
f 489/696/477 471/699/477 491/700/477 490/701/477
f 471/699/478 488/702/478 492/703/478 491/700/478
f 471/699/479 493/698/479 494/704/479 488/702/479
f 499/358/480 490/359/480 491/369/480 497/366/480
f 495/364/481 504/384/481 503/383/481 496/363/481
f 501/693/482 488/692/482 494/705/482 502/706/482
f 502/387/483 494/388/483 493/365/483 313/362/483
f 516/389/484 502/387/484 313/362/484 509/390/484
f 515/707/485 501/693/485 502/706/485 516/708/485
f 512/709/486 496/710/486 500/711/486 511/712/486
f 514/397/487 499/358/487 497/366/487 510/398/487
f 510/398/488 497/366/488 498/367/488 513/399/488
f 509/390/489 313/362/489 496/363/489 512/400/489
f 511/712/490 500/711/490 499/713/490 514/714/490
f 513/715/491 498/690/491 501/693/491 515/707/491
f 508/716/492 505/717/492 506/718/492 507/719/492
f 503/720/493 504/721/493 505/717/493 508/716/493
f 500/722/494 508/723/494 507/724/494 499/725/494
f 490/701/495 506/726/495 505/727/495 489/696/495
f 496/728/496 503/729/496 508/723/496 500/722/496
f 489/696/497 505/727/497 504/730/497 495/697/497
f 484/682/498 513/715/498 515/707/498 480/683/498
f 481/685/499 511/712/499 514/714/499 482/686/499
f 485/349/500 509/390/500 512/400/500 487/348/500
f 483/339/501 510/398/501 513/399/501 484/373/501
f 482/340/502 514/397/502 510/398/502 483/339/502
f 487/694/503 512/709/503 511/712/503 481/685/503
f 480/683/504 515/707/504 516/708/504 486/695/504
f 486/372/505 516/389/505 509/390/505 485/349/505
f 252/419/506 517/731/506 518/732/506 251/420/506
f 519/733/507 517/734/507 252/425/507 257/424/507
f 258/427/508 251/420/508 518/732/508 520/735/508
f 24/107/509 258/430/509 520/736/509 366/519/509
f 365/530/510 519/737/510 257/431/510 26/119/510
f 366/532/511 520/735/511 519/737/511 365/530/511
f 362/433/512 521/133/512 522/134/512 363/434/512
f 537/435/513 523/172/513 521/133/513 362/433/513
f 363/434/514 522/134/514 524/149/514 538/436/514
f 538/436/515 524/149/515 523/172/515 537/435/515 545/438/515 546/437/515
f 362/738/516 525/739/516 541/740/516 537/741/516
f 528/443/517 542/446/517 540/445/517 526/444/517
f 538/436/518 544/448/518 529/447/518 363/434/518
f 540/742/519 539/743/519 527/744/519 526/745/519
f 539/743/520 541/740/520 525/739/520 527/744/520
f 528/443/521 530/454/521 543/453/521 542/446/521
f 530/454/522 529/447/522 544/448/522 543/453/522
f 363/746/523 529/747/523 530/748/523 528/749/523 526/750/523 527/751/523 525/752/523 362/753/523
f 378/754/524 538/755/524 546/756/524
f 533/757/525 539/758/525 540/759/525 531/760/525
f 532/761/526 541/762/526 539/758/526 533/757/526
f 535/611/527 542/763/527 543/764/527 536/608/527
f 536/608/528 543/764/528 544/765/528 534/766/528
f 531/760/529 540/759/529 542/763/529 535/611/529
f 381/767/530 537/768/530 541/762/530 532/761/530
f 534/766/531 544/765/531 538/755/531 378/754/531
f 547/769/532 551/770/532 549/771/532 550/772/532 552/610/532 553/609/532 554/773/532 548/774/532
f 545/775/533 537/768/533 381/767/533
f 532/761/534 551/770/534 547/769/534 381/767/534
f 556/776/535 555/777/535 547/769/535 548/774/535
f 381/767/536 547/769/536 555/777/536 545/775/536
f 378/754/537 548/774/537 554/773/537 534/766/537
f 534/766/538 554/773/538 553/609/538 536/608/538
f 531/760/539 550/772/539 549/771/539 533/757/539
f 545/438/540 555/488/540 556/487/540 546/437/540
f 535/611/541 552/610/541 550/772/541 531/760/541
f 546/756/542 556/776/542 548/774/542 378/754/542
f 533/757/543 549/771/543 551/770/543 532/761/543
f 559/778/544 374/779/544 326/780/544 557/781/544
f 558/613/545 561/605/545 377/604/545 560/782/545
f 375/783/546 325/612/546 558/613/546 560/782/546
f 326/606/547 561/605/547 303/496/547 302/495/547
f 299/497/548 303/500/548 561/784/548 558/785/548
f 557/781/549 326/780/549 302/502/549 300/501/549
f 560/184/550 377/504/550 374/503/550 559/183/550
f 562/786/551 575/787/551 574/788/551
f 563/789/552 575/790/552 577/791/552
f 562/792/553 574/793/553 579/794/553
f 562/795/554 579/796/554 581/797/554
f 562/798/555 581/799/555 578/800/555
f 563/789/556 577/791/556 584/801/556
f 564/802/557 576/803/557 586/804/557
f 565/805/558 580/806/558 588/807/558
f 566/808/559 582/809/559 590/810/559
f 567/811/560 583/812/560 592/813/560
f 563/789/561 584/801/561 587/814/561
f 564/802/562 586/804/562 589/815/562
f 565/805/563 588/807/563 591/816/563
f 566/808/564 590/810/564 593/817/564
f 567/811/565 592/813/565 585/818/565
f 568/819/566 594/820/566 599/821/566
f 569/822/567 595/823/567 601/824/567
f 570/825/568 596/826/568 602/827/568
f 571/828/569 597/829/569 603/830/569
f 572/831/570 598/832/570 600/833/570
f 600/833/571 603/834/571 573/835/571
f 600/833/572 598/832/572 603/834/572
f 598/832/573 571/828/573 603/834/573
f 603/830/574 602/836/574 573/837/574
f 603/830/575 597/829/575 602/836/575
f 597/829/576 570/825/576 602/836/576
f 602/827/577 601/838/577 573/839/577
f 602/827/578 596/826/578 601/838/578
f 596/826/579 569/840/579 601/838/579
f 601/824/580 599/841/580 573/842/580
f 601/824/581 595/823/581 599/841/581
f 595/823/582 568/819/582 599/841/582
f 599/821/583 600/843/583 573/844/583
f 599/821/584 594/820/584 600/843/584
f 594/820/585 572/831/585 600/843/585
f 585/818/586 598/832/586 572/831/586
f 585/818/587 592/813/587 598/832/587
f 592/813/588 571/828/588 598/832/588
f 593/817/589 597/829/589 571/828/589
f 593/817/590 590/810/590 597/829/590
f 590/810/591 570/825/591 597/829/591
f 591/816/592 596/826/592 570/825/592
f 591/816/593 588/807/593 596/826/593
f 588/807/594 569/840/594 596/826/594
f 589/815/595 595/823/595 569/822/595
f 589/815/596 586/804/596 595/823/596
f 586/804/597 568/819/597 595/823/597
f 587/814/598 594/820/598 568/819/598
f 587/814/599 584/801/599 594/820/599
f 584/801/600 572/831/600 594/820/600
f 592/813/601 593/817/601 571/828/601
f 592/813/602 583/812/602 593/817/602
f 583/812/603 566/808/603 593/817/603
f 590/810/604 591/816/604 570/825/604
f 590/810/605 582/809/605 591/816/605
f 582/809/606 565/805/606 591/816/606
f 588/807/607 589/845/607 569/840/607
f 588/807/608 580/806/608 589/845/608
f 580/806/609 564/846/609 589/845/609
f 586/804/610 587/814/610 568/819/610
f 586/804/611 576/803/611 587/814/611
f 576/803/612 563/789/612 587/814/612
f 584/801/613 585/818/613 572/831/613
f 584/801/614 577/791/614 585/818/614
f 577/791/615 567/811/615 585/818/615
f 578/800/616 583/812/616 567/811/616
f 578/800/617 581/799/617 583/812/617
f 581/799/618 566/808/618 583/812/618
f 581/797/619 582/809/619 566/808/619
f 581/797/620 579/796/620 582/809/620
f 579/796/621 565/805/621 582/809/621
f 579/794/622 580/806/622 565/805/622
f 579/794/623 574/793/623 580/806/623
f 574/793/624 564/846/624 580/806/624
f 577/791/625 578/847/625 567/811/625
f 577/791/626 575/790/626 578/847/626
f 575/790/627 562/848/627 578/847/627
f 574/788/628 576/803/628 564/802/628
f 574/788/629 575/787/629 576/803/629
f 575/787/630 563/789/630 576/803/630
f 604/786/631 616/788/631 617/787/631
f 605/789/632 619/791/632 617/790/632
f 604/792/633 621/794/633 616/793/633
f 604/795/634 623/797/634 621/796/634
f 604/798/635 620/800/635 623/799/635
f 605/789/636 626/801/636 619/791/636
f 606/802/637 628/804/637 618/803/637
f 607/805/638 630/807/638 622/806/638
f 608/808/639 632/810/639 624/809/639
f 609/811/640 634/813/640 625/812/640
f 605/789/641 629/814/641 626/801/641
f 606/802/642 631/815/642 628/804/642
f 607/805/643 633/816/643 630/807/643
f 608/808/644 635/817/644 632/810/644
f 609/811/645 627/818/645 634/813/645
f 610/819/646 641/821/646 636/820/646
f 611/822/647 643/824/647 637/823/647
f 612/825/648 644/827/648 638/826/648
f 613/828/649 645/830/649 639/829/649
f 614/831/650 642/833/650 640/832/650
f 642/833/651 615/835/651 645/834/651
f 642/833/652 645/834/652 640/832/652
f 640/832/653 645/834/653 613/828/653
f 645/830/654 615/837/654 644/836/654
f 645/830/655 644/836/655 639/829/655
f 639/829/656 644/836/656 612/825/656
f 644/827/657 615/839/657 643/838/657
f 644/827/658 643/838/658 638/826/658
f 638/826/659 643/838/659 611/840/659
f 643/824/660 615/842/660 641/841/660
f 643/824/661 641/841/661 637/823/661
f 637/823/662 641/841/662 610/819/662
f 641/821/663 615/844/663 642/843/663
f 641/821/664 642/843/664 636/820/664
f 636/820/665 642/843/665 614/831/665
f 627/818/666 614/831/666 640/832/666
f 627/818/667 640/832/667 634/813/667
f 634/813/668 640/832/668 613/828/668
f 635/817/669 613/828/669 639/829/669
f 635/817/670 639/829/670 632/810/670
f 632/810/671 639/829/671 612/825/671
f 633/816/672 612/825/672 638/826/672
f 633/816/673 638/826/673 630/807/673
f 630/807/674 638/826/674 611/840/674
f 631/815/675 611/822/675 637/823/675
f 631/815/676 637/823/676 628/804/676
f 628/804/677 637/823/677 610/819/677
f 629/814/678 610/819/678 636/820/678
f 629/814/679 636/820/679 626/801/679
f 626/801/680 636/820/680 614/831/680
f 634/813/681 613/828/681 635/817/681
f 634/813/682 635/817/682 625/812/682
f 625/812/683 635/817/683 608/808/683
f 632/810/684 612/825/684 633/816/684
f 632/810/685 633/816/685 624/809/685
f 624/809/686 633/816/686 607/805/686
f 630/807/687 611/840/687 631/845/687
f 630/807/688 631/845/688 622/806/688
f 622/806/689 631/845/689 606/846/689
f 628/804/690 610/819/690 629/814/690
f 628/804/691 629/814/691 618/803/691
f 618/803/692 629/814/692 605/789/692
f 626/801/693 614/831/693 627/818/693
f 626/801/694 627/818/694 619/791/694
f 619/791/695 627/818/695 609/811/695
f 620/800/696 609/811/696 625/812/696
f 620/800/697 625/812/697 623/799/697
f 623/799/698 625/812/698 608/808/698
f 623/797/699 608/808/699 624/809/699
f 623/797/700 624/809/700 621/796/700
f 621/796/701 624/809/701 607/805/701
f 621/794/702 607/805/702 622/806/702
f 621/794/703 622/806/703 616/793/703
f 616/793/704 622/806/704 606/846/704
f 619/791/705 609/811/705 620/847/705
f 619/791/706 620/847/706 617/790/706
f 617/790/707 620/847/707 604/848/707
f 616/788/708 606/802/708 618/803/708
f 616/788/709 618/803/709 617/787/709
f 617/787/710 618/803/710 605/789/710
