# Blender 5.1.1
# www.blender.org
o Куб.001
v 0.555509 1.059653 0.606395
v 0.532479 2.427675 0.476365
v 0.602357 1.056998 -0.182698
v 0.619472 2.365247 -0.217372
v -0.005247 1.016576 -0.326593
v -0.000000 2.480862 -0.357245
v 0.708403 1.688404 0.032893
v 0.620527 0.977548 0.161547
v 0.609568 2.447637 0.125765
v 0.655364 1.682007 0.513181
v 0.005623 0.966972 0.665372
v -0.000000 2.544096 0.544675
v 0.718989 1.688761 0.137647
v -0.003626 0.910775 0.182049
v -0.000000 2.614716 0.130571
v 0.821821 0.293806 -0.834907
v 0.537649 2.257941 -0.508749
v -0.004704 1.103431 -0.586284
v 0.000000 2.280686 -0.622767
v 0.464395 1.332611 -0.779557
v 0.464300 2.088886 -0.750935
v 0.090363 0.752621 3.048059
v -0.003117 1.219634 -0.807162
v -0.000000 2.103516 -0.887623
v 0.561830 1.700193 -0.853937
v -0.000529 1.596882 -0.917180
v 0.084677 1.132508 3.174985
v 0.172094 1.547203 3.037814
v 0.495038 1.290493 1.151731
v 0.499967 2.378014 0.889579
v 0.175772 0.801639 2.852016
v 0.621713 1.709809 0.869264
v 0.012859 1.007765 1.107985
v -0.000013 2.487711 0.979386
v 0.059274 0.734557 3.278934
v 0.033850 0.882079 3.365809
v 0.047665 0.703422 3.162825
v 0.570340 2.528199 1.239684
v 0.550668 0.732520 1.258209
v 0.007454 0.950327 1.466429
v 0.001296 2.651779 1.345342
v 0.118300 1.341030 3.196488
v 0.136209 0.763170 2.962424
v 0.177045 1.759572 2.836329
v 0.583003 2.528340 1.435916
v 0.453447 0.720915 1.312293
v 0.003715 0.985777 1.615378
v 0.000605 2.655466 1.544471
v 0.190837 0.848014 2.740711
v 0.177045 1.902163 2.659395
v 0.177045 0.902196 2.604354
v 0.540207 2.469419 1.719261
v 0.669415 2.009377 1.754798
v 0.560754 1.194692 1.901238
v 0.000727 1.080795 1.777961
v 0.000014 2.587774 1.817999
v 0.181751 2.059399 2.404764
v 0.181751 1.090971 2.278900
v 0.451452 2.258742 2.009204
v 0.558888 1.658853 1.926893
v 0.462201 1.379516 1.930898
v 0.000323 1.167538 1.907172
v -0.000000 2.337319 2.103408
v 0.227127 2.303799 2.070713
v 0.231229 1.263897 1.917906
v 0.271600 2.554620 1.765669
v 0.363812 1.134907 1.729264
v 0.364925 2.002838 2.360103
v 0.445262 1.436991 2.312063
v 0.364925 1.145484 2.230325
v 0.000000 1.056091 2.286596
v 0.000000 2.088492 2.406754
v 0.293557 2.618970 1.479477
v 0.311678 1.132778 1.620508
v 0.287124 2.616852 1.276950
v 0.355746 1.854254 2.615582
v 0.433703 1.359190 2.583096
v 0.355746 0.955583 2.561945
v -0.000000 0.876849 2.588764
v 0.000000 1.930052 2.646506
v 0.327868 1.215941 1.564175
v 0.250990 2.456718 0.911335
v 0.358845 1.249247 1.321698
v 0.372539 1.580346 2.779414
v 0.455708 1.372063 2.728091
v 0.382651 0.903042 2.702045
v -0.000000 0.823858 2.720500
v 0.000000 1.790615 2.818852
v 0.248950 1.637458 -0.896347
v 0.203268 2.096035 -0.851911
v 0.324516 1.276520 -0.742568
v 0.241143 1.320711 3.141453
v 0.339854 1.092477 3.013376
v 0.276080 0.804278 2.928924
v -0.000000 0.757128 2.926287
v -0.000000 1.367847 3.170310
v 0.249692 2.250948 -0.661790
v 0.282435 1.124545 -0.512175
v 0.307155 2.557068 0.093753
v 0.069124 0.885459 3.343868
v 0.125993 0.754571 3.243444
v 0.103346 0.729583 3.163050
v -0.000000 0.692204 3.170356
v 0.064203 0.833283 3.342965
v -0.000000 0.725246 3.273160
v 0.465527 1.405363 2.819840
v -0.000000 0.786388 2.825387
v 0.353261 0.850065 2.814435
v 0.312336 0.927303 0.129758
v 0.000000 1.581114 3.017520
v 0.402860 1.536839 2.858521
v 0.267639 2.510685 0.480969
v -0.000000 1.135207 3.174440
v 0.284780 0.995644 0.607469
v 0.301735 2.446573 -0.394652
v 0.356988 1.015529 -0.257760
v 0.186642 0.787150 3.015473
v -0.000000 0.753676 3.006797
v 0.210413 0.923517 3.128421
v 0.175549 1.101992 3.148235
v 0.070240 0.728299 3.100180
v 0.067630 0.969761 3.278839
v 0.139993 0.747799 3.095012
v 0.161300 0.839962 3.185442
v -0.000000 0.979473 3.268624
v -0.000000 0.723635 3.084697
v 0.134901 0.962783 3.246865
v 0.611102 2.266466 0.987960
v 0.723574 1.718087 0.928022
v 0.694823 1.414101 1.172837
v 0.670604 2.415104 1.232480
v 0.808270 1.855832 1.396616
v 0.840980 1.322614 1.585900
v 0.636253 2.426353 1.418446
v 0.817201 1.941331 1.554780
v 0.846888 1.279556 1.760446
v 0.638631 2.310596 1.591935
v 0.763606 2.014988 1.724684
v 0.774136 1.265016 1.898242
v 0.450425 0.975449 1.268851
v 0.552041 1.015615 1.204740
v 0.746940 0.862649 1.720317
v 0.593681 0.833150 1.759893
v 0.799841 0.873360 1.601828
v 0.417269 0.885400 1.480440
v 0.796530 0.909949 1.475549
v 0.694053 1.028571 1.204542
v 0.414494 0.837604 1.610168
v 0.456032 0.829603 1.700934
v 0.746494 0.669117 1.632824
v 0.596333 0.662039 1.671104
v 0.541906 0.317253 1.138947
v 0.801158 0.674409 1.544454
v 0.424661 0.692002 1.442618
v 0.423778 0.302801 1.187275
v 0.794716 0.689312 1.443987
v 0.688035 0.730389 1.268980
v 0.420469 0.675634 1.557535
v 0.460557 0.670283 1.631975
v 0.447313 0.538024 1.241035
v 0.553993 0.544892 1.191564
v 0.771847 0.480687 1.537741
v 0.607786 0.472730 1.573053
v 0.796043 0.488857 1.454170
v 0.422476 0.512760 1.360121
v 0.790733 0.502720 1.360258
v 0.706455 0.538751 1.201519
v 0.419802 0.496459 1.465531
v 0.460375 0.488501 1.533975
v 0.809605 0.174384 1.469535
v 0.601012 0.152964 1.489197
v 0.646301 0.214949 1.386104
v 0.811114 0.214322 1.394068
v 0.396452 0.260300 1.305053
v 0.641165 0.257213 1.298360
v 0.806558 0.248883 1.309417
v 0.710823 0.309407 1.150576
v 0.395877 0.219489 1.402166
v 0.410283 0.186852 1.461509
v 0.432743 0.419048 1.220469
v 0.405828 0.363264 1.449120
v 0.406407 0.388684 1.342010
v 0.801511 0.376650 1.344079
v 0.805860 0.356789 1.439243
v 0.786468 0.392485 1.536609
v 0.607682 0.360377 1.577292
v 0.709932 0.419726 1.181426
v 0.546755 0.427030 1.170436
v 0.447834 0.401511 1.530898
v 0.593588 0.190007 1.658933
v 0.592423 0.079149 1.603114
v 0.770960 0.102191 1.580203
v 0.432203 0.110503 1.573784
v 0.766341 0.215998 1.633484
v 0.439289 0.227656 1.627438
v 0.762347 2.222034 -0.274395
v 0.786850 1.692684 -0.064007
v 0.762538 1.098934 -0.252581
v 0.752301 2.136926 -0.508975
v 0.858072 1.700851 -0.550268
v 0.810294 1.199739 -0.491962
v 0.742103 2.014337 -0.705825
v 0.837737 1.704461 -0.769818
v 0.742231 1.325569 -0.735273
v 0.604875 0.073618 -0.899176
v 0.523078 1.033685 -0.916363
v 0.633539 0.885986 -0.307866
v 0.436834 0.889131 -0.372671
v 0.377472 0.949523 -0.633267
v 0.410975 1.018059 -0.872333
v 0.800326 0.961164 -0.622945
v 0.745829 1.023744 -0.875194
v 0.761997 0.904916 -0.383660
v 0.539643 0.817616 -0.941221
v 0.640579 0.498185 -0.469332
v 0.461390 0.526938 -0.529964
v 0.407159 0.673123 -0.726390
v 0.437543 0.793701 -0.907215
v 0.792323 0.673008 -0.707233
v 0.742567 0.799423 -0.906060
v 0.757540 0.540751 -0.523843
v 0.547992 0.164240 -1.119475
v 0.667417 0.009024 -0.687566
v 0.412559 0.009063 -0.744383
v 0.400442 0.075185 -0.928392
v 0.434343 0.148321 -1.090215
v 0.829117 0.080811 -0.912970
v 0.773832 0.153765 -1.089659
v 0.833877 0.023528 -0.741789
v 0.824677 0.230811 -0.671665
v 0.393146 0.288763 -0.851571
v 0.427035 0.362120 -1.011873
v 0.403356 0.218256 -0.674909
v 0.658239 0.210345 -0.622137
v 0.540678 0.379058 -1.040476
v 0.766521 0.368184 -1.010510
v 0.783127 0.094615 -0.587427
v 0.790238 -0.014627 -0.607905
v 0.660007 -0.029832 -0.554740
v 0.460624 -0.029230 -0.610240
v 0.453517 0.077988 -0.589492
v 0.652892 0.082415 -0.534826
v 0.783629 0.500537 -0.763409
v 0.424412 0.497379 -0.777743
v 0.642027 0.399390 -0.561339
v 0.751130 0.423624 -0.608289
v 0.452782 0.578223 -0.926940
v 0.474924 0.412730 -0.611819
v 0.548007 0.595444 -0.954054
v 0.737259 0.583198 -0.926199
v -0.000000 1.964712 -0.963352
v -0.000000 1.715167 -1.003691
v 0.092420 1.732289 -0.967302
v 0.076591 1.955334 -0.937061
v 0.127597 1.720339 -0.918300
v 0.088882 2.048142 -0.898695
v -0.000000 1.692332 -0.956154
v -0.000000 2.059583 -0.930772
v 0.353936 1.720361 2.713592
v 0.462452 1.297387 2.680997
v 0.346085 1.509550 2.984707
v 0.469988 1.246599 2.878471
v 0.431634 1.614720 2.822355
v 0.509515 1.596234 2.837470
v 0.472450 1.619769 2.839854
v 0.537234 1.561016 2.824238
v 0.536419 1.478387 2.785989
v 0.550043 1.520227 2.806808
v 0.514399 1.554651 2.869374
v 0.455471 1.565549 2.873427
v 0.486059 1.569895 2.876128
v 0.527030 1.482140 2.841375
v 0.527210 1.540386 2.862747
v 0.537319 1.512190 2.851344
v 0.372831 1.545717 2.861494
v 0.460350 1.362781 2.805079
v 0.490673 1.593058 2.884226
v 0.529939 1.571744 2.875383
v 0.447174 1.586755 2.880804
v 0.548145 1.551235 2.866596
v 0.562047 1.512254 2.851444
v 0.548125 1.471638 2.837783
v 0.383871 1.522402 2.854299
v 0.450291 1.383834 2.811552
v 0.413090 1.522511 2.842693
v 0.458299 1.427708 2.814790
v 0.473111 1.546373 2.855398
v 0.493557 1.535389 2.850530
v 0.451044 1.543239 2.853448
v 0.502798 1.525108 2.845753
v 0.510091 1.504783 2.837532
v 0.502668 1.483131 2.830350
v 0.399391 1.512151 2.839660
v 0.447307 1.412170 2.808796
v 0.058900 0.897789 3.335046
v 0.055763 0.809651 3.335126
v 0.099802 0.903699 3.307505
v 0.095412 0.815198 3.308420
v -0.000000 0.809468 3.338171
v -0.000000 0.894995 3.338202
v 0.030579 0.830114 3.364246
v -0.000000 0.880376 3.364518
v -0.000000 0.829962 3.363612
v -0.544747 1.124092 0.604340
v -0.532280 2.434710 0.474870
v -0.622976 1.260061 -0.019763
v -0.617961 2.397790 -0.225851
v -0.714899 1.847479 0.064454
v -0.627165 1.145458 0.255691
v -0.608784 2.463462 0.121428
v -0.652875 1.743101 0.513475
v -0.724312 1.839239 0.163819
v -0.861874 0.348704 -0.465277
v -0.534972 2.335120 -0.524227
v -0.481151 1.347807 -0.681482
v -0.464477 2.134274 -0.750625
v -0.090363 0.752621 3.048059
v -0.569106 1.738279 -0.824978
v -0.084677 1.132508 3.174985
v -0.172094 1.547205 3.037815
v -0.456358 1.152531 1.039750
v -0.500642 2.379318 0.889672
v -0.175772 0.801639 2.852016
v -0.613512 1.689192 0.855417
v -0.059274 0.734557 3.278934
v -0.033850 0.882079 3.365809
v -0.047665 0.703422 3.162825
v -0.569732 2.535133 1.239707
v -0.564106 0.510829 1.036013
v -0.118300 1.341030 3.196488
v -0.136209 0.763170 2.962424
v -0.177045 1.759572 2.836329
v -0.582331 2.536044 1.435942
v -0.469316 0.495052 1.092144
v -0.190837 0.848014 2.740711
v -0.177045 1.902163 2.659395
v -0.177045 0.902196 2.604354
v -0.540524 2.474952 1.719288
v -0.666510 1.750520 1.728671
v -0.548654 0.959840 1.780277
v -0.181751 2.059399 2.404764
v -0.181751 1.090971 2.278900
v -0.454585 2.241399 2.013938
v -0.554723 1.560726 1.912781
v -0.455262 1.293806 1.903863
v -0.227268 2.303852 2.070715
v -0.228116 1.220492 1.902751
v -0.271358 2.555052 1.765668
v -0.355268 1.011879 1.668020
v -0.364925 2.002838 2.360103
v -0.444983 1.424482 2.311095
v -0.364925 1.145484 2.230325
v -0.291587 2.621037 1.479465
v -0.298971 1.008968 1.553792
v -0.284984 2.619164 1.276939
v -0.355746 1.854254 2.615582
v -0.433703 1.359190 2.583096
v -0.355746 0.955583 2.561947
v -0.295763 1.034674 1.452743
v -0.251110 2.456954 0.911338
v -0.319734 1.087025 1.204537
v -0.372539 1.580346 2.779414
v -0.455708 1.372065 2.728093
v -0.382651 0.903043 2.702047
v -0.251371 1.641091 -0.889235
v -0.203212 2.100934 -0.852370
v -0.339741 1.295579 -0.647627
v -0.241143 1.320713 3.141454
v -0.339854 1.092477 3.013376
v -0.276080 0.804278 2.928924
v -0.249209 2.261729 -0.664653
v -0.299764 1.201734 -0.399462
v -0.307056 2.558558 0.093203
v -0.069124 0.885459 3.343868
v -0.125993 0.754571 3.243444
v -0.103346 0.729583 3.163050
v -0.064203 0.833283 3.342965
v -0.465527 1.405370 2.819844
v -0.353261 0.850065 2.814435
v -0.322450 1.035396 0.200160
v -0.402860 1.536853 2.858524
v -0.267636 2.510705 0.480969
v -0.273664 1.024044 0.602014
v -0.301109 2.455451 -0.398213
v -0.376738 1.155156 -0.112575
v -0.186642 0.787150 3.015473
v -0.210413 0.923517 3.128421
v -0.175550 1.101992 3.148235
v -0.070240 0.728299 3.100180
v -0.067630 0.969761 3.278839
v -0.139993 0.747799 3.095012
v -0.161300 0.839962 3.185442
v -0.134901 0.962783 3.246865
v -0.614714 2.261839 0.989021
v -0.712211 1.668465 0.906491
v -0.653205 1.245118 1.061778
v -0.674116 2.412556 1.235922
v -0.796799 1.632505 1.344907
v -0.813188 1.090320 1.441985
v -0.638106 2.431866 1.419563
v -0.809822 1.682592 1.512489
v -0.824102 1.019979 1.607583
v -0.645977 2.290159 1.598930
v -0.760818 1.746344 1.697157
v -0.755117 0.995502 1.754596
v -0.445378 0.763965 1.069070
v -0.542839 0.820598 1.012003
v -0.761106 0.614658 1.500824
v -0.610947 0.573781 1.540375
v -0.811439 0.645201 1.385058
v -0.425952 0.643775 1.266844
v -0.803403 0.698184 1.266143
v -0.686924 0.844567 1.014248
v -0.429869 0.585815 1.394951
v -0.472129 0.576994 1.491637
v -0.773562 0.451766 1.402049
v -0.625050 0.439042 1.440723
v -0.567031 0.041907 0.921079
v -0.825354 0.461960 1.313351
v -0.445722 0.463256 1.222080
v -0.451126 0.035017 0.977344
v -0.815220 0.477618 1.214041
v -0.701621 0.514398 1.042920
v -0.445684 0.444145 1.334665
v -0.488038 0.439194 1.406218
v -0.467339 0.306664 1.017990
v -0.571996 0.316403 0.966432
v -0.803318 0.279516 1.300795
v -0.641040 0.276018 1.335562
v -0.824269 0.280605 1.220186
v -0.447393 0.285650 1.137420
v -0.815404 0.289179 1.129535
v -0.724805 0.317044 0.972753
v -0.448985 0.276048 1.239975
v -0.492149 0.276162 1.304486
v -0.850173 0.016021 1.286684
v -0.643210 0.018758 1.327558
v -0.682807 0.017292 1.204067
v -0.847786 0.015832 1.197755
v -0.429148 0.018802 1.107598
v -0.673458 0.019707 1.092047
v -0.839326 0.019486 1.097565
v -0.736409 0.041540 0.927489
v -0.433130 0.014923 1.221313
v -0.450617 0.014856 1.291550
v -0.456801 0.178959 0.996417
v -0.439384 0.150966 1.227906
v -0.435534 0.159040 1.120758
v -0.830651 0.161475 1.111813
v -0.838824 0.153587 1.205865
v -0.821254 0.205366 1.297182
v -0.645558 0.209045 1.330040
v -0.732368 0.188317 0.949018
v -0.568769 0.188156 0.942638
v -0.482520 0.203532 1.302364
v -0.640443 0.128236 1.457157
v -0.641050 0.014426 1.463483
v -0.817795 0.011788 1.422673
v -0.478928 0.011084 1.428784
v -0.811137 0.125267 1.419081
v -0.483823 0.122324 1.425098
v -0.759559 2.338578 -0.289989
v -0.794528 1.864921 -0.026179
v -0.782562 1.286729 -0.097125
v -0.751334 2.241451 -0.514796
v -0.866701 1.807702 -0.508978
v -0.829583 1.312151 -0.354637
v -0.743981 2.090640 -0.700381
v -0.846696 1.775085 -0.731212
v -0.760324 1.359938 -0.627336
v -0.650257 0.116351 -0.479319
v -0.547792 1.019255 -0.698881
v -0.658134 1.060877 -0.080221
v -0.461858 1.036757 -0.147692
v -0.402487 1.020932 -0.410867
v -0.435783 1.015685 -0.652286
v -0.824961 1.043634 -0.400557
v -0.770517 1.026083 -0.657758
v -0.786509 1.061216 -0.155599
v -0.568297 0.821041 -0.656706
v -0.675011 0.614931 -0.136047
v -0.495359 0.627187 -0.200514
v -0.438234 0.731762 -0.419736
v -0.466579 0.805112 -0.618198
v -0.823257 0.744135 -0.401888
v -0.771406 0.817465 -0.618918
v -0.791087 0.649008 -0.197563
v -0.592101 0.148244 -0.716939
v -0.713078 0.125221 -0.258234
v -0.458714 0.096000 -0.314364
v -0.445948 0.105672 -0.510624
v -0.478730 0.137962 -0.684765
v -0.874315 0.125050 -0.498346
v -0.818004 0.151009 -0.686253
v -0.879555 0.121167 -0.316651
v -0.865743 0.320949 -0.296865
v -0.433472 0.330502 -0.480614
v -0.466018 0.372602 -0.650914
v -0.444813 0.299114 -0.297333
v -0.699664 0.308393 -0.244911
v -0.579294 0.386807 -0.682026
v -0.805254 0.387308 -0.650926
v -0.826442 0.233253 -0.191182
v -0.836034 0.128354 -0.176594
v -0.705818 0.131301 -0.119967
v -0.506880 0.105050 -0.173942
v -0.497386 0.206062 -0.187449
v -0.696148 0.239107 -0.137458
v -0.818734 0.564017 -0.428363
v -0.459704 0.550118 -0.440639
v -0.679064 0.498676 -0.213593
v -0.787704 0.515636 -0.263689
v -0.486470 0.602911 -0.599733
v -0.511811 0.498522 -0.265542
v -0.581331 0.616775 -0.629328
v -0.770754 0.614468 -0.600470
v -0.092578 1.732958 -0.966454
v -0.076591 1.955334 -0.937061
v -0.128225 1.721747 -0.916599
v -0.088882 2.048142 -0.898695
v -0.353936 1.720361 2.713592
v -0.462452 1.297389 2.680999
v -0.346085 1.509554 2.984708
v -0.469988 1.246602 2.878473
v -0.431634 1.614738 2.822355
v -0.509515 1.596267 2.837471
v -0.472450 1.619799 2.839853
v -0.537234 1.561051 2.824243
v -0.536419 1.478406 2.785996
v -0.550043 1.520253 2.806814
v -0.514399 1.554678 2.869377
v -0.455471 1.565574 2.873430
v -0.486059 1.569922 2.876130
v -0.527030 1.482162 2.841382
v -0.527210 1.540413 2.862752
v -0.537319 1.512215 2.851350
v -0.372831 1.545722 2.861495
v -0.460350 1.362784 2.805081
v -0.490673 1.593088 2.884228
v -0.529939 1.571774 2.875386
v -0.447174 1.586780 2.880805
v -0.548145 1.551266 2.866601
v -0.562047 1.512281 2.851451
v -0.548125 1.471660 2.837791
v -0.383871 1.522417 2.854302
v -0.450291 1.383838 2.811555
v -0.413090 1.522527 2.842697
v -0.458299 1.427714 2.814793
v -0.473111 1.546396 2.855402
v -0.493557 1.535408 2.850534
v -0.451044 1.543264 2.853452
v -0.502798 1.525130 2.845758
v -0.510091 1.504806 2.837538
v -0.502668 1.483150 2.830356
v -0.399391 1.512165 2.839663
v -0.447307 1.412175 2.808799
v -0.058900 0.897789 3.335046
v -0.055763 0.809651 3.335126
v -0.099802 0.903699 3.307505
v -0.095412 0.815198 3.308420
v -0.030579 0.830114 3.364246
v 0.291561 1.119577 3.048583
v 0.306648 1.186357 3.069041
v 0.269728 1.114371 3.090186
v 0.232186 1.074521 3.084982
v 0.245906 1.121880 3.060621
v 0.291926 1.190997 3.050770
v 0.256597 1.182574 3.118087
v 0.210577 1.113456 3.127938
v 0.195855 1.118096 3.109666
v 0.232775 1.190082 3.088522
v 0.270316 1.229932 3.093726
v 0.210942 1.184877 3.130125
v 0.285805 1.110785 3.065877
v 0.307506 1.153097 3.053450
v 0.294673 1.150037 3.077904
v 0.307720 1.195077 3.054736
v 0.298852 1.155824 3.042710
v 0.263739 1.087362 3.062819
v 0.250905 1.084302 3.087273
v 0.271803 1.115198 3.048500
v 0.236903 1.088715 3.069896
v 0.272017 1.157178 3.049786
v 0.295019 1.217963 3.079984
v 0.286365 1.220690 3.069245
v 0.265254 1.147814 3.106731
v 0.286955 1.190126 3.094303
v 0.216138 1.083764 3.109463
v 0.238204 1.107187 3.112522
v 0.215548 1.114327 3.084404
v 0.207484 1.086491 3.098723
v 0.264299 1.197267 3.066186
v 0.237249 1.156640 3.071976
v 0.265600 1.215739 3.108812
v 0.230486 1.147276 3.128922
v 0.194783 1.109377 3.123972
v 0.207830 1.154417 3.100804
v 0.251597 1.220152 3.091435
v 0.230700 1.189255 3.130207
v 0.238764 1.217092 3.115889
v 0.203650 1.148629 3.135998
v 0.194997 1.151357 3.125258
v 0.216698 1.193669 3.112830
v -0.291561 1.119577 3.048583
v -0.306648 1.186357 3.069042
v -0.269728 1.114371 3.090186
v -0.232186 1.074521 3.084982
v -0.245906 1.121879 3.060621
v -0.291925 1.190997 3.050770
v -0.256597 1.182574 3.118087
v -0.210577 1.113456 3.127938
v -0.195854 1.118096 3.109666
v -0.232775 1.190082 3.088522
v -0.270316 1.229932 3.093726
v -0.210942 1.184876 3.130126
v -0.285805 1.110785 3.065878
v -0.307506 1.153097 3.053450
v -0.294673 1.150037 3.077904
v -0.307720 1.195077 3.054736
v -0.298852 1.155824 3.042710
v -0.263739 1.087361 3.062819
v -0.250905 1.084301 3.087273
v -0.271803 1.115198 3.048501
v -0.236903 1.088715 3.069896
v -0.272017 1.157178 3.049786
v -0.295019 1.217962 3.079985
v -0.286365 1.220690 3.069245
v -0.265254 1.147814 3.106732
v -0.286955 1.190126 3.094304
v -0.216137 1.083764 3.109463
v -0.238204 1.107187 3.112522
v -0.215548 1.114327 3.084405
v -0.207484 1.086491 3.098723
v -0.264299 1.197267 3.066186
v -0.237249 1.156640 3.071976
v -0.265599 1.215739 3.108813
v -0.230486 1.147276 3.128922
v -0.194782 1.109377 3.123972
v -0.207830 1.154416 3.100804
v -0.251597 1.220152 3.091435
v -0.230700 1.189255 3.130208
v -0.238764 1.217092 3.115889
v -0.203650 1.148629 3.135998
v -0.194997 1.151356 3.125258
v -0.216698 1.193669 3.112830
vn -0.8477 -0.5284 0.0466
vn 0.3732 0.7751 -0.5099
vn 0.9866 -0.1378 -0.0875
vn 0.9909 0.1322 -0.0259
vn 0.9687 0.1558 0.1934
vn 0.9775 -0.1309 0.1653
vn 0.9762 -0.1591 0.1476
vn 0.3643 -0.8705 0.3309
vn 0.1994 -0.9567 -0.2120
vn 0.1816 -0.9675 0.1760
vn 0.1160 0.9634 -0.2418
vn 0.1804 0.9720 0.1508
vn 0.2890 0.7260 -0.6241
vn 0.2206 -0.1964 -0.9554
vn 0.1095 -0.9235 -0.3676
vn 0.6680 0.3195 0.6721
vn 0.2188 0.2031 -0.9544
vn 0.0901 -0.3001 -0.9496
vn 0.2523 0.2904 -0.9230
vn 0.2166 -0.8483 -0.4832
vn 0.8152 0.5785 0.0290
vn 0.9941 -0.0930 -0.0551
vn 0.1542 0.9797 0.1279
vn 0.9813 0.1708 0.0892
vn 0.4375 -0.5892 -0.6793
vn 0.1188 0.9928 -0.0160
vn 0.0092 0.9140 -0.4055
vn -0.6585 -0.1785 -0.7311
vn 0.6375 0.1723 -0.7509
vn 0.1666 0.9582 0.2327
vn -0.9315 -0.2459 -0.2680
vn 0.9378 -0.0190 -0.3467
vn 0.0104 0.8021 -0.5971
vn 0.7086 -0.0361 0.7047
vn -0.0888 -0.6120 0.7858
vn 0.3436 -0.9156 0.2089
vn 0.0274 -0.9773 -0.2103
vn 0.0990 -0.9866 0.1297
vn 0.2072 -0.3759 0.9032
vn 0.7390 0.5232 -0.4244
vn 0.3514 0.9124 -0.2097
vn 0.9479 -0.3060 0.0883
vn 0.3062 -0.8393 -0.4492
vn 0.3126 0.9404 0.1340
vn 0.2081 0.7378 0.6421
vn 0.0617 0.8032 -0.5925
vn 0.8214 0.1592 0.5477
vn 0.4739 -0.4789 0.7389
vn 0.8148 0.1318 -0.5646
vn 0.1907 -0.3136 -0.9302
vn 0.9853 0.1395 0.0988
vn 0.9742 0.0918 -0.2060
vn 0.1702 0.7734 0.6106
vn 0.6268 -0.7751 -0.0791
vn 0.9374 0.1142 0.3290
vn 0.3038 0.9433 0.1336
vn 0.2962 0.9549 -0.0196
vn 0.9791 0.1946 0.0598
vn 0.2306 0.8798 -0.4158
vn 0.0754 0.7758 0.6264
vn 0.1325 -0.8600 -0.4928
vn 0.9751 -0.2130 -0.0611
vn 0.3264 0.9155 0.2353
vn 0.1166 0.8366 0.5353
vn -0.0037 0.5965 0.8026
vn 0.5592 -0.8178 -0.1358
vn 0.8386 -0.3171 0.4429
vn 0.2122 -0.9462 -0.2443
vn 0.2309 -0.7574 0.6107
vn 0.1830 -0.9078 -0.3774
vn 0.9336 -0.1845 -0.3070
vn 0.2924 -0.9159 0.2750
vn 0.8717 -0.4788 0.1041
vn 0.3324 -0.9301 -0.1561
vn 0.2887 -0.9001 -0.3263
vn 0.3245 0.7109 0.6240
vn 0.3371 0.7282 0.5968
vn 0.7586 0.0334 0.6507
vn 0.4509 0.6279 0.6344
vn 0.1541 -0.8528 -0.4989
vn 0.1859 -0.9455 0.2673
vn 0.8837 -0.0443 0.4659
vn 0.3502 0.7991 0.4886
vn 0.3816 0.4783 0.7910
vn 0.1217 -0.9516 -0.2822
vn 0.4144 0.5245 0.7437
vn 0.1593 -0.9138 -0.3735
vn 0.5346 -0.0620 0.8428
vn 0.1479 -0.9319 -0.3313
vn 0.3937 -0.8997 0.1883
vn -0.3041 -0.4489 0.8403
vn -0.0092 0.6269 0.7791
vn 0.1792 -0.9118 -0.3694
vn 0.9706 -0.2405 -0.0121
vn 0.0310 -0.6048 0.7958
vn 0.0494 0.6870 0.7249
vn 0.6301 -0.0741 0.7729
vn 0.1441 -0.9259 -0.3491
vn -0.1346 -0.0287 0.9905
vn 0.4470 0.6603 0.6034
vn 0.3324 -0.1095 0.9368
vn 0.0463 -0.9964 -0.0712
vn 0.3308 -0.9374 0.1092
vn 0.7809 -0.3885 0.4892
vn 0.4028 0.4554 0.7939
vn 0.1485 -0.9203 -0.3618
vn 0.8472 0.0292 0.5304
vn -0.0169 0.5286 0.8487
vn 0.2233 -0.9171 -0.3302
vn 0.8796 -0.4011 0.2558
vn 0.9616 -0.1227 -0.2454
vn 0.9573 0.2890 -0.0105
vn 0.9452 0.1884 -0.2668
vn 0.8921 0.4129 0.1837
vn 0.9981 0.0359 -0.0491
vn 0.9261 0.1222 0.3568
vn 0.7469 0.3737 0.5500
vn 0.8914 0.3915 0.2286
vn -0.5026 -0.3006 0.8106
vn 0.0568 0.1966 0.9788
vn 0.0448 -0.1991 -0.9789
vn 0.8805 -0.1624 0.4453
vn -0.9821 -0.0252 -0.1867
vn -0.9990 -0.0284 -0.0359
vn 0.9991 0.0076 -0.0413
vn 0.2727 -0.4174 0.8668
vn 0.8789 -0.2498 0.4063
vn -0.8651 -0.3065 0.3971
vn 0.1073 -0.1175 -0.9873
vn -0.9502 -0.2395 -0.1993
vn 0.9030 -0.1506 0.4024
vn -0.9769 0.1022 -0.1878
vn -0.9994 0.0216 -0.0279
vn 0.9982 0.0036 -0.0598
vn 0.2256 -0.4260 0.8762
vn 0.8685 0.2122 -0.4479
vn -0.8864 -0.1889 0.4227
vn -0.3136 -0.4146 0.8543
vn -0.4739 -0.1576 -0.8663
vn 0.8989 -0.0412 -0.4363
vn 0.0777 0.2704 -0.9596
vn 0.9918 0.0404 0.1209
vn -0.9754 0.1271 -0.1800
vn -0.9976 0.0679 0.0164
vn 0.9982 0.0483 -0.0348
vn 0.9660 -0.0128 0.2582
vn 0.0767 0.3363 -0.9386
vn -0.8547 -0.2402 0.4601
vn -0.2726 -0.4559 0.8472
vn -0.4524 0.3141 -0.8347
vn -0.0224 -0.9395 -0.3417
vn 0.0332 -0.8717 -0.4889
vn -0.0328 -0.9119 -0.4090
vn -0.0222 -0.9394 -0.3422
vn -0.0612 -0.8574 -0.5111
vn -0.0013 -0.9134 -0.4070
vn -0.9286 0.0026 0.3711
vn -0.9852 0.0756 0.1536
vn -0.3975 0.2748 -0.8755
vn 0.8745 0.1488 -0.4616
vn 0.8831 0.1186 -0.4540
vn -0.4140 0.1947 -0.8892
vn -0.2641 0.0224 0.9642
vn -0.8799 0.0643 0.4707
vn 0.2129 0.0305 0.9766
vn 0.9958 0.0838 -0.0359
vn -0.9933 0.1150 0.0074
vn -0.9735 0.1501 -0.1723
vn 0.9712 0.0917 0.2200
vn 0.0725 0.1699 -0.9828
vn 0.1816 -0.4273 0.8857
vn -0.2591 -0.4104 0.8743
vn 0.0931 0.4483 0.8890
vn 0.0373 -0.8414 -0.5391
vn -0.1023 0.4626 0.8807
vn -0.0656 -0.8331 -0.5492
vn 0.9871 0.1452 0.0683
vn 0.9557 -0.1802 -0.2329
vn 0.9854 -0.0826 0.1492
vn 0.9492 0.2773 -0.1488
vn 0.5843 -0.3096 0.7502
vn 0.5122 0.7738 -0.3726
vn 0.9839 -0.1094 0.1411
vn 0.3487 0.7487 -0.5637
vn -0.9732 -0.1508 0.1737
vn -0.3557 0.0913 -0.9301
vn -0.3216 -0.3818 0.8665
vn 0.9877 -0.0673 0.1408
vn 0.1662 0.4267 -0.8890
vn -0.3713 0.3201 -0.8716
vn -0.9347 -0.2392 -0.2629
vn -0.1750 -0.6572 0.7332
vn -0.2771 0.3228 -0.9050
vn -0.9409 -0.1368 0.3097
vn 0.9991 0.0419 -0.0077
vn -0.9811 0.0356 -0.1903
vn 0.5056 -0.3197 0.8013
vn 0.1833 0.1289 -0.9746
vn 0.9764 0.0267 -0.2145
vn -0.9818 -0.0647 -0.1785
vn 0.0001 -0.9529 -0.3034
vn 0.0572 -0.9447 -0.3229
vn 0.0413 -0.9175 -0.3957
vn 0.0069 -0.9239 -0.3826
vn -0.9977 -0.0533 0.0416
vn 0.9425 -0.0462 0.3311
vn 0.1392 0.3465 -0.9277
vn 0.9604 0.1245 -0.2494
vn 0.9575 0.2214 -0.1849
vn 0.1484 0.3704 -0.9169
vn 0.3535 -0.2131 0.9108
vn -0.9565 0.1616 0.2427
vn -0.9787 0.1728 -0.1108
vn 0.9613 0.2078 0.1808
vn -0.2417 -0.2665 0.9330
vn -0.2955 0.3713 -0.8802
vn -0.2596 -0.1922 0.9464
vn 0.3852 -0.1416 0.9119
vn -0.1946 0.5079 0.8391
vn 0.0695 -0.9555 -0.2867
vn 0.2320 0.5005 0.8341
vn -0.0045 -0.9605 -0.2782
vn -0.3057 0.0542 -0.9506
vn -0.3078 -0.6145 0.7264
vn 0.9856 -0.1127 0.1262
vn -0.9785 -0.0447 -0.2015
vn -0.9697 -0.1793 0.1661
vn 0.4710 -0.5647 0.6777
vn 0.1639 0.0751 -0.9836
vn 0.9683 0.0141 -0.2493
vn 0.3377 0.1501 -0.9292
vn 0.3165 -0.8498 -0.4215
vn 0.3507 0.3110 -0.8834
vn 0.2245 0.5246 -0.8212
vn 0.1864 -0.2022 -0.9614
vn 0.2931 0.1088 -0.9499
vn 0.9573 0.2823 0.0628
vn 0.9328 0.2863 0.2189
vn 0.9963 0.0819 -0.0263
vn 0.8965 0.3093 0.3173
vn -0.5836 0.7153 0.3844
vn 0.7665 0.6417 -0.0253
vn 0.8095 -0.5612 -0.1726
vn 0.5172 0.8142 0.2637
vn -0.2388 0.8227 0.5159
vn 0.9132 0.3729 -0.1644
vn 0.9428 -0.2049 -0.2631
vn 0.2572 0.3907 -0.8839
vn -0.0618 -0.3202 0.9453
vn 0.0304 -0.3441 0.9384
vn -0.0303 -0.3314 0.9430
vn 0.0069 -0.3655 0.9308
vn -0.0000 -0.3171 0.9484
vn 0.0381 -0.3763 0.9257
vn -0.0439 -0.3745 0.9262
vn 0.0460 -0.3141 0.9483
vn -0.0024 -0.3292 0.9443
vn 0.0086 -0.2911 0.9567
vn 0.1654 -0.6758 0.7183
vn -0.0312 -0.3023 0.9527
vn 0.2956 -0.6058 0.7386
vn -0.4093 0.0725 0.9095
vn -0.4126 -0.1564 0.8974
vn -0.1418 -0.6095 0.7800
vn 0.7275 0.1415 0.6714
vn -0.2081 -0.5596 0.8022
vn -0.5100 0.0297 0.8596
vn 0.0297 -0.6700 0.7417
vn 0.3193 0.7121 0.6253
vn 0.5296 -0.4314 0.7303
vn 0.5248 -0.4898 0.6962
vn -0.0292 -0.0232 0.9993
vn 0.0200 -0.7951 0.6061
vn -0.0339 0.8887 0.4573
vn 0.7525 -0.0498 0.6567
vn 0.8217 -0.5429 0.1733
vn -0.2083 0.8709 -0.4451
vn -0.9857 -0.1460 -0.0836
vn -0.9849 0.1718 -0.0226
vn -0.9544 0.1857 0.2338
vn -0.9731 -0.1253 0.1933
vn -0.9705 -0.1862 0.1534
vn -0.4073 -0.9082 0.0966
vn -0.4164 -0.8562 -0.3057
vn -0.3411 -0.9398 0.0187
vn -0.0995 0.9670 -0.2346
vn -0.1783 0.9721 0.1524
vn -0.1578 0.7214 -0.6743
vn -0.2693 -0.3355 -0.9027
vn -0.4632 -0.8436 -0.2716
vn -0.5679 0.4471 0.6911
vn -0.2368 0.1667 -0.9571
vn -0.2051 -0.4537 -0.8673
vn -0.2470 0.2118 -0.9456
vn -0.4195 -0.8408 -0.3422
vn -0.8175 0.5756 0.0197
vn -0.9979 0.0043 -0.0646
vn -0.1536 0.9798 0.1277
vn -0.9793 0.1658 0.1158
vn -0.3079 -0.3782 -0.8730
vn -0.1115 0.9936 -0.0158
vn -0.0042 0.9132 -0.4075
vn 0.6774 -0.0363 -0.7347
vn -0.6411 0.1731 -0.7477
vn -0.1630 0.9583 0.2346
vn 0.9582 -0.2771 -0.0714
vn -0.9295 0.1257 -0.3466
vn 0.0245 0.8046 -0.5934
vn -0.7926 -0.1389 0.5936
vn 0.1817 -0.5923 0.7850
vn -0.2120 -0.9732 0.0888
vn -0.4103 -0.8861 -0.2154
vn -0.2947 -0.9532 0.0676
vn -0.2591 -0.5064 0.8225
vn -0.7475 0.5116 -0.4236
vn -0.2924 0.9377 -0.1876
vn -0.9355 -0.3288 0.1291
vn -0.2491 -0.9162 -0.3138
vn -0.2812 0.9491 0.1421
vn -0.2075 0.7378 0.6423
vn -0.0293 0.7995 -0.6000
vn -0.8799 0.1114 0.4619
vn -0.4738 -0.1968 0.8584
vn -0.8153 0.1308 -0.5640
vn -0.3505 -0.3737 -0.8588
vn -0.9859 0.1380 0.0942
vn -0.9736 0.0375 -0.2251
vn -0.1701 0.7734 0.6107
vn -0.2658 -0.9500 -0.1638
vn -0.9475 0.0994 0.3038
vn -0.2904 0.9468 0.1388
vn -0.2791 0.9600 -0.0201
vn -0.9791 0.1946 0.0598
vn -0.2195 0.8794 -0.4224
vn -0.0754 0.7758 0.6264
vn -0.1325 -0.8600 -0.4928
vn -0.9744 -0.2168 -0.0586
vn -0.3097 0.9203 0.2391
vn -0.1166 0.8366 0.5353
vn 0.0037 0.5965 0.8026
vn -0.1787 -0.9833 0.0334
vn -0.8386 -0.3171 0.4429
vn -0.2122 -0.9462 -0.2443
vn -0.1063 -0.7536 0.6486
vn -0.1831 -0.9078 -0.3774
vn -0.9336 -0.1845 -0.3070
vn -0.0203 -0.9439 0.3296
vn -0.8717 -0.4788 0.1041
vn -0.3324 -0.9301 -0.1561
vn -0.1924 -0.9383 -0.2875
vn -0.3322 0.6970 0.6355
vn -0.3559 0.7271 0.5871
vn -0.7586 0.0334 0.6507
vn -0.4509 0.6279 0.6344
vn -0.1541 -0.8528 -0.4989
vn -0.1859 -0.9455 0.2673
vn -0.8837 -0.0443 0.4659
vn -0.3502 0.7991 0.4886
vn -0.3816 0.4783 0.7910
vn -0.1217 -0.9516 -0.2822
vn -0.4144 0.5245 0.7437
vn -0.1593 -0.9138 -0.3735
vn -0.5346 -0.0620 0.8428
vn -0.1479 -0.9319 -0.3313
vn -0.3937 -0.8997 0.1883
vn 0.3040 -0.4489 0.8403
vn 0.0092 0.6269 0.7791
vn -0.1792 -0.9118 -0.3694
vn -0.9706 -0.2405 -0.0121
vn -0.0310 -0.6048 0.7958
vn -0.0494 0.6870 0.7249
vn -0.6301 -0.0741 0.7729
vn -0.1441 -0.9259 -0.3491
vn 0.1346 -0.0287 0.9905
vn -0.4470 0.6604 0.6034
vn -0.3324 -0.1095 0.9368
vn -0.0463 -0.9964 -0.0712
vn -0.3308 -0.9374 0.1092
vn -0.7809 -0.3885 0.4892
vn -0.4028 0.4554 0.7939
vn -0.1485 -0.9203 -0.3618
vn -0.8472 0.0292 0.5304
vn 0.0169 0.5286 0.8487
vn -0.2233 -0.9171 -0.3302
vn -0.8796 -0.4011 0.2558
vn -0.9427 -0.1227 -0.3102
vn -0.9810 0.1923 0.0262
vn -0.9622 0.1499 -0.2273
vn -0.9587 0.2359 0.1588
vn -0.9974 0.0141 -0.0708
vn -0.9429 0.0414 0.3305
vn -0.7024 0.1915 0.6855
vn -0.8919 0.3865 0.2348
vn 0.4459 -0.4803 0.7553
vn -0.1810 0.0550 0.9820
vn -0.0402 -0.0797 -0.9960
vn -0.8967 -0.1387 0.4203
vn 0.9817 -0.0873 -0.1694
vn 0.9944 -0.1042 -0.0173
vn -0.9951 0.0810 -0.0574
vn -0.3024 -0.5099 0.8053
vn -0.9026 -0.2353 0.3606
vn 0.8381 -0.3907 0.3807
vn -0.0339 0.1077 -0.9936
vn 0.9482 -0.2540 -0.1905
vn -0.9134 -0.1367 0.3833
vn 0.9851 0.0691 -0.1574
vn 0.9998 -0.0170 0.0050
vn -0.9947 0.0428 -0.0940
vn -0.2247 -0.4884 0.8432
vn -0.8442 0.2427 -0.4779
vn 0.8594 -0.3097 0.4069
vn 0.2451 -0.5630 0.7893
vn 0.4739 -0.1081 -0.8739
vn -0.8878 0.0621 -0.4560
vn -0.0381 0.1457 -0.9886
vn -0.9924 0.1120 0.0513
vn 0.9855 0.0598 -0.1589
vn 0.9984 0.0430 0.0377
vn -0.9943 0.0692 -0.0810
vn -0.9743 0.1100 0.1965
vn -0.0379 0.3384 -0.9402
vn 0.8091 -0.3131 0.4974
vn 0.1895 -0.5344 0.8237
vn 0.4826 0.3013 -0.8224
vn 0.0036 -0.9921 -0.1255
vn 0.0105 -0.9999 0.0059
vn -0.0048 -0.9996 -0.0282
vn -0.0029 -0.9915 -0.1304
vn -0.0138 -0.9999 0.0088
vn 0.0052 -0.9996 -0.0282
vn 0.9298 0.0901 0.3569
vn 0.9817 0.1169 0.1500
vn 0.4386 0.1356 -0.8884
vn -0.8580 0.1002 -0.5039
vn -0.8619 0.1547 -0.4829
vn 0.4428 0.1795 -0.8784
vn 0.1841 -0.0470 0.9818
vn 0.8564 0.0464 0.5142
vn -0.1961 -0.0322 0.9801
vn -0.9888 0.1258 -0.0800
vn 0.9962 0.0812 0.0327
vn 0.9830 0.1088 -0.1479
vn -0.9741 0.1416 0.1765
vn -0.0390 0.1824 -0.9825
vn -0.2219 0.0496 0.9738
vn 0.2061 0.0474 0.9774
vn -0.1273 0.8295 0.5438
vn 0.0213 -0.9992 -0.0342
vn 0.1303 0.8328 0.5380
vn -0.0268 -0.9991 -0.0322
vn -0.9828 0.1777 0.0501
vn -0.9667 -0.1821 -0.1799
vn -0.9865 -0.0327 0.1602
vn -0.9411 0.2802 -0.1892
vn -0.5868 -0.1580 0.7941
vn -0.3283 0.8859 -0.3278
vn -0.9853 -0.0366 0.1670
vn -0.2740 0.7053 -0.6538
vn 0.9702 -0.1150 0.2132
vn 0.3445 -0.2138 -0.9141
vn 0.3241 -0.1379 0.9359
vn -0.9880 -0.0054 0.1544
vn -0.1824 0.0918 -0.9789
vn 0.2935 -0.0439 -0.9550
vn 0.9014 -0.3818 -0.2040
vn 0.2241 -0.3577 0.9066
vn 0.2792 0.1233 -0.9523
vn 0.9336 -0.0759 0.3503
vn -0.9977 0.0644 -0.0201
vn 0.9810 -0.0271 -0.1919
vn -0.4960 -0.0861 0.8641
vn -0.1805 -0.1830 -0.9664
vn -0.9752 -0.0179 -0.2207
vn 0.9777 -0.1382 -0.1584
vn -0.0139 -0.9999 0.0100
vn -0.0901 -0.9958 -0.0182
vn -0.0646 -0.9854 -0.1576
vn -0.0289 -0.9894 -0.1423
vn 0.9961 -0.0676 0.0560
vn -0.9388 0.0663 0.3381
vn -0.1328 0.1520 -0.9794
vn -0.9574 0.0931 -0.2733
vn -0.9510 0.2114 -0.2254
vn -0.1401 0.2274 -0.9637
vn -0.3537 -0.0657 0.9331
vn 0.9611 0.1777 0.2113
vn 0.9817 0.1301 -0.1393
vn -0.9561 0.2591 0.1372
vn 0.2354 -0.1280 0.9634
vn 0.3006 0.2239 -0.9271
vn 0.2675 0.1174 0.9564
vn -0.3892 0.1717 0.9050
vn 0.2098 0.7601 0.6151
vn -0.1124 -0.9930 0.0374
vn -0.1990 0.7696 0.6068
vn 0.0055 -0.9989 0.0466
vn 0.3067 -0.1312 -0.9427
vn 0.2912 -0.4994 0.8160
vn -0.9874 -0.0671 0.1430
vn 0.9768 -0.1041 -0.1873
vn 0.9647 -0.1729 0.1987
vn -0.4778 -0.4373 0.7619
vn -0.1649 -0.1053 -0.9807
vn -0.9680 -0.0078 -0.2508
vn -0.3412 0.1487 -0.9282
vn -0.3262 -0.8488 -0.4161
vn -0.3507 0.3110 -0.8834
vn -0.2161 0.5130 -0.8307
vn -0.2110 -0.2113 -0.9544
vn -0.3056 0.1000 -0.9469
vn -0.9573 0.2823 0.0628
vn -0.9328 0.2863 0.2189
vn -0.9963 0.0819 -0.0263
vn -0.8965 0.3093 0.3173
vn 0.5837 0.7153 0.3843
vn -0.7665 0.6417 -0.0252
vn -0.8096 -0.5611 -0.1726
vn -0.5172 0.8142 0.2638
vn 0.2389 0.8227 0.5159
vn -0.9132 0.3729 -0.1644
vn -0.9428 -0.2049 -0.2631
vn -0.2572 0.3906 -0.8839
vn 0.0618 -0.3202 0.9453
vn -0.0304 -0.3440 0.9385
vn 0.0303 -0.3313 0.9430
vn -0.0069 -0.3654 0.9308
vn -0.0381 -0.3763 0.9257
vn 0.0438 -0.3745 0.9262
vn -0.0460 -0.3141 0.9483
vn 0.0024 -0.3292 0.9443
vn -0.0087 -0.2911 0.9566
vn -0.1655 -0.6758 0.7183
vn 0.0312 -0.3023 0.9527
vn -0.2957 -0.6058 0.7386
vn 0.4093 0.0726 0.9095
vn 0.4126 -0.1563 0.8974
vn 0.1418 -0.6094 0.7801
vn -0.7275 0.1415 0.6714
vn 0.2080 -0.5596 0.8022
vn 0.5101 0.0296 0.8596
vn -0.0297 -0.6700 0.7418
vn -0.3193 0.7121 0.6253
vn -0.5296 -0.4314 0.7303
vn -0.5248 -0.4898 0.6962
vn 0.0292 -0.0232 0.9993
vn -0.0200 -0.7951 0.6061
vn 0.0339 0.8887 0.4573
vn -0.7525 -0.0498 0.6567
vn 0.8961 -0.4373 0.0759
vn 0.9975 -0.0072 0.0703
vn 0.7307 -0.6753 -0.1001
vn 0.1099 -0.4796 -0.8706
vn 0.0413 -0.1679 -0.9849
vn 0.9363 0.2644 0.2313
vn 0.6878 -0.2459 0.6830
vn 0.3444 -0.7812 0.5207
vn -0.6069 -0.0569 -0.7927
vn -0.4208 0.2729 -0.8651
vn 0.7919 0.0819 0.6051
vn 0.5964 -0.2904 0.7483
vn -0.3952 -0.9145 0.0862
vn -0.6285 0.0956 -0.7719
vn -0.3576 0.4441 -0.8215
vn 0.4470 0.1263 0.8856
vn 0.2431 -0.1709 0.9548
vn -0.9975 0.0072 -0.0703
vn -0.7601 0.3412 -0.5531
vn -0.4475 0.8856 -0.1240
vn -0.7307 0.6753 0.1001
vn -0.6821 0.6783 -0.2731
vn -0.6942 0.4860 -0.5309
vn -0.8961 0.4373 -0.0759
vn -0.8552 0.3185 -0.4089
vn -0.8798 0.1830 -0.4388
vn -0.7220 0.2498 0.6452
vn -0.7805 -0.0152 0.6250
vn -0.1738 -0.2524 0.9519
vn -0.0413 0.1679 0.9849
vn 0.2534 -0.0309 0.9669
vn 0.4174 -0.0299 0.9082
vn -0.1099 0.4796 0.8706
vn 0.2535 0.3834 0.8881
vn 0.2197 0.6753 0.7041
vn -0.3444 0.7812 -0.5207
vn -0.4625 0.5286 -0.7118
vn -0.5848 0.4325 -0.6862
vn -0.6878 0.2459 -0.6830
vn -0.6976 0.1521 -0.7002
vn -0.7767 0.1045 -0.6211
vn -0.9363 -0.2644 -0.2313
vn -0.6272 -0.7075 0.3257
vn -0.0725 -0.5366 0.8407
vn 0.4208 -0.2729 0.8651
vn 0.5257 -0.2334 0.8180
vn 0.5343 -0.1393 0.8337
vn 0.6069 0.0569 0.7927
vn 0.6835 0.1674 0.7105
vn 0.5927 0.4858 0.6424
vn -0.5964 0.2904 -0.7483
vn -0.5257 0.2334 -0.8180
vn -0.5343 0.1393 -0.8337
vn -0.7919 -0.0819 -0.6051
vn -0.6835 -0.1674 -0.7105
vn -0.5927 -0.4858 -0.6424
vn 0.3576 -0.4442 0.8215
vn 0.4625 -0.5287 0.7118
vn 0.5848 -0.4325 0.6862
vn 0.6285 -0.0956 0.7719
vn 0.6976 -0.1521 0.7002
vn 0.7767 -0.1045 0.6211
vn 0.3952 0.9145 -0.0862
vn 0.6272 0.7075 -0.3257
vn 0.0725 0.5367 -0.8407
vn -0.2431 0.1709 -0.9548
vn -0.2534 0.0309 -0.9669
vn -0.4174 0.0299 -0.9082
vn -0.4471 -0.1263 -0.8855
vn -0.2535 -0.3834 -0.8881
vn -0.2197 -0.6753 -0.7040
vn 0.4475 -0.8856 0.1240
vn 0.6821 -0.6783 0.2731
vn 0.6942 -0.4860 0.5309
vn 0.1738 0.2524 -0.9519
vn 0.7805 0.0152 -0.6250
vn 0.7220 -0.2498 -0.6452
vn 0.7601 -0.3412 0.5531
vn 0.8552 -0.3185 0.4089
vn 0.8798 -0.1830 0.4388
vn -0.8961 -0.4373 0.0759
vn -0.9975 -0.0072 0.0703
vn -0.7307 -0.6753 -0.1001
vn -0.1099 -0.4796 -0.8706
vn -0.0413 -0.1679 -0.9849
vn -0.9363 0.2644 0.2313
vn -0.6878 -0.2459 0.6830
vn -0.3444 -0.7812 0.5207
vn 0.6069 -0.0569 -0.7927
vn 0.4208 0.2729 -0.8651
vn -0.7919 0.0819 0.6051
vn -0.5964 -0.2904 0.7483
vn 0.3952 -0.9145 0.0862
vn 0.6285 0.0956 -0.7719
vn 0.3576 0.4442 -0.8215
vn -0.4471 0.1263 0.8855
vn -0.2432 -0.1709 0.9548
vn 0.9975 0.0072 -0.0703
vn 0.7601 0.3412 -0.5531
vn 0.4475 0.8856 -0.1240
vn 0.7307 0.6753 0.1001
vn 0.6821 0.6783 -0.2731
vn 0.6942 0.4860 -0.5309
vn 0.8961 0.4373 -0.0759
vn 0.8552 0.3185 -0.4089
vn 0.8798 0.1830 -0.4388
vn 0.7220 0.2498 0.6452
vn 0.7805 -0.0152 0.6250
vn 0.1738 -0.2524 0.9519
vn 0.0413 0.1679 0.9849
vn -0.2534 -0.0309 0.9669
vn -0.4174 -0.0299 0.9082
vn 0.1099 0.4796 0.8706
vn -0.2535 0.3834 0.8881
vn -0.2197 0.6753 0.7040
vn 0.3444 0.7812 -0.5207
vn 0.4625 0.5286 -0.7118
vn 0.5848 0.4325 -0.6862
vn 0.6878 0.2459 -0.6830
vn 0.6976 0.1521 -0.7002
vn 0.7767 0.1045 -0.6211
vn 0.9363 -0.2644 -0.2313
vn 0.6272 -0.7075 0.3257
vn 0.0725 -0.5366 0.8407
vn -0.4208 -0.2729 0.8651
vn -0.5257 -0.2334 0.8180
vn -0.5343 -0.1393 0.8338
vn -0.6069 0.0569 0.7927
vn -0.6835 0.1674 0.7105
vn -0.5927 0.4858 0.6424
vn 0.5964 0.2904 -0.7483
vn 0.5257 0.2334 -0.8180
vn 0.5343 0.1393 -0.8337
vn 0.7919 -0.0819 -0.6051
vn 0.6835 -0.1674 -0.7105
vn 0.5927 -0.4858 -0.6424
vn -0.3576 -0.4442 0.8215
vn -0.4625 -0.5286 0.7118
vn -0.5848 -0.4325 0.6862
vn -0.6285 -0.0956 0.7719
vn -0.6976 -0.1521 0.7002
vn -0.7767 -0.1045 0.6211
vn -0.3952 0.9145 -0.0862
vn -0.6272 0.7075 -0.3257
vn -0.0725 0.5367 -0.8407
vn 0.2432 0.1709 -0.9548
vn 0.2534 0.0309 -0.9669
vn 0.4174 0.0300 -0.9082
vn 0.4471 -0.1263 -0.8856
vn 0.2535 -0.3834 -0.8881
vn 0.2197 -0.6753 -0.7040
vn -0.4475 -0.8856 0.1240
vn -0.6822 -0.6783 0.2731
vn -0.6942 -0.4860 0.5309
vn -0.1738 0.2524 -0.9519
vn -0.7805 0.0152 -0.6250
vn -0.7220 -0.2498 -0.6452
vn -0.7601 -0.3412 0.5531
vn -0.8552 -0.3185 0.4089
vn -0.8798 -0.1830 0.4388
vt 0.833374 0.494548
vt 0.893919 0.512741
vt 0.908415 0.468160
vt 0.848637 0.467455
vt 0.567859 0.867914
vt 0.639317 0.828812
vt 0.620915 0.894044
vt 0.556155 0.927906
vt 0.812683 0.509803
vt 0.774909 0.642712
vt 0.751394 0.643294
vt 0.751725 0.493743
vt 0.828812 0.793372
vt 0.751727 0.811870
vt 0.672932 0.807420
vt 0.672336 0.642732
vt 0.672998 0.503429
vt 0.598676 0.643182
vt 0.594201 0.530171
vt 0.560191 0.672195
vt 0.619753 0.672998
vt 0.599703 0.594201
vt 0.569702 0.558226
vt 0.580250 0.833374
vt 0.635423 0.812683
vt 0.637090 0.751725
vt 0.569078 0.759035
vt 0.500000 0.859251
vt 0.500000 0.750726
vt 0.569078 0.758996
vt 0.500000 0.657595
vt 0.560191 0.671923
vt 0.604420 0.951058
vt 0.545714 0.976119
vt 0.604420 0.548422
vt 0.626365 0.643481
vt 0.688416 0.643970
vt 0.666902 0.547256
vt 0.500000 0.917421
vt 0.563590 0.893919
vt 0.639317 0.793372
vt 0.659328 0.642712
vt 0.676970 0.643370
vt 0.671449 0.761101
vt 0.555994 0.632181
vt 0.545714 0.747180
vt 0.604420 0.735145
vt 0.572975 0.538591
vt 0.666902 0.715601
vt 0.500000 0.969030
vt 0.572975 0.947229
vt 0.501290 0.830086
vt 0.457158 0.830118
vt 0.460328 0.806630
vt 0.500288 0.803578
vt 0.499838 0.512886
vt 0.460007 0.507514
vt 0.481582 0.413128
vt 0.510774 0.417065
vt 0.500000 0.559830
vt 0.556447 0.575135
vt 0.579931 0.796381
vt 0.599703 0.530171
vt 0.637090 0.643182
vt 0.659115 0.643738
vt 0.643940 0.535244
vt 0.564556 0.492909
vt 0.500000 0.477524
vt 0.500000 0.432743
vt 0.566016 0.447361
vt 0.569702 0.518348
vt 0.616981 0.429733
vt 0.594994 0.421068
vt 0.612448 0.796381
vt 0.637526 0.771615
vt 0.500000 0.371229
vt 0.561082 0.382998
vt 0.450625 0.491920
vt 0.495971 0.498202
vt 0.507939 0.406303
vt 0.474705 0.401699
vt 0.591615 0.535244
vt 0.575831 0.433451
vt 0.407144 0.499901
vt 0.406490 0.640437
vt 0.358675 0.605643
vt 0.363238 0.556600
vt 0.578790 0.420824
vt 0.621227 0.407144
vt 0.601979 0.363238
vt 0.551080 0.357545
vt 0.500000 0.657756
vt 0.500000 0.571782
vt 0.667216 0.508652
vt 0.621227 0.499901
vt 0.632756 0.407548
vt 0.666461 0.413961
vt 0.556577 0.771615
vt 0.637090 0.751727
vt 0.260484 0.580516
vt 0.278839 0.520364
vt 0.582070 0.278839
vt 0.540875 0.268345
vt 0.619753 0.672932
vt 0.500000 0.307117
vt 0.551080 0.314473
vt 0.500000 0.983839
vt 0.393435 0.816867
vt 0.325561 0.763148
vt 0.671449 0.517077
vt 0.635423 0.509803
vt 0.642381 0.470278
vt 0.671266 0.470798
vt 0.988807 0.740196
vt 1.002924 0.661469
vt 1.015365 0.669173
vt 1.001496 0.721513
vt 0.500000 0.531683
vt 0.500000 0.631036
vt 0.249130 0.712570
vt 0.191059 0.679456
vt 0.198981 0.567653
vt 0.945839 0.547256
vt 0.886123 0.529161
vt 0.904522 0.470747
vt 0.963512 0.471464
vt 0.500000 0.238897
vt 0.540875 0.239236
vt 0.564556 0.495971
vt 0.612448 0.579931
vt 0.628268 0.501290
vt 0.631115 0.457158
vt 0.168698 0.648799
vt 0.177283 0.553376
vt 0.539817 0.181283
vt 0.500000 0.184290
vt 0.500000 0.144817
vt 0.539817 0.140934
vt 0.580006 0.205473
vt 0.539817 0.196322
vt 0.205473 0.476864
vt 0.621491 0.393435
vt 0.538703 0.608225
vt 0.500000 0.615960
vt 0.500000 0.567098
vt 0.526605 0.560962
vt 0.566016 0.450625
vt 0.149293 0.452102
vt 0.133162 0.541160
vt 0.103583 0.505809
vt 0.123733 0.441345
vt 0.539531 0.141037
vt 0.579447 0.149293
vt 0.562090 0.123733
vt 0.530633 0.116366
vt 0.500000 0.385014
vt 0.500000 0.353218
vt 0.586057 0.174337
vt 0.542919 0.165879
vt 0.174337 0.464471
vt 0.086614 0.427976
vt 0.065909 0.448336
vt 0.053210 0.428901
vt 0.071388 0.423606
vt 0.515797 0.085531
vt 0.531484 0.086614
vt 0.523242 0.071388
vt 0.510720 0.071544
vt 0.500000 0.266808
vt 0.601979 0.325561
vt 0.582070 0.249130
vt 0.108290 0.599988
vt 0.073849 0.556649
vt 0.580006 0.679456
vt 0.539817 0.690304
vt 0.539817 0.657159
vt 0.579599 0.648799
vt 0.500000 0.199929
vt 0.513331 0.045311
vt 0.500000 0.046647
vt 0.500000 0.069896
vt 0.051602 0.475706
vt 0.038205 0.462176
vt 0.038356 0.442272
vt 0.580006 0.191059
vt 0.577833 0.599988
vt 0.554232 0.556649
vt 0.500000 0.147087
vt 0.500000 0.124516
vt 0.530339 0.475706
vt 0.515210 0.477146
vt 0.513246 0.460736
vt 0.522445 0.462176
vt 0.500000 0.170521
vt 0.515546 0.457928
vt 0.507613 0.457080
vt 0.506877 0.445401
vt 0.514439 0.446199
vt 0.500000 0.089031
vt 0.528336 0.053210
vt 0.620841 0.601238
vt 0.618568 0.607555
vt 0.613078 0.604170
vt 0.614718 0.599612
vt 0.500000 0.479371
vt 0.500000 0.460095
vt 0.513331 0.424258
vt 0.512541 0.440917
vt 0.500000 0.440864
vt 0.500000 0.422187
vt 0.500000 0.664242
vt 0.576432 0.505809
vt 0.539481 0.507406
vt 0.547321 0.467354
vt 0.500000 0.513551
vt 0.519044 0.508271
vt 0.579599 0.168698
vt 0.538703 0.096221
vt 0.577833 0.108290
vt 0.520322 0.097153
vt 0.500000 0.106427
vt 0.541975 0.104341
vt 0.078394 0.467354
vt 0.104341 0.437145
vt 0.073220 0.507406
vt 0.590300 0.643738
vt 0.499630 0.641384
vt 0.459655 0.640419
vt 0.417546 0.774144
vt 0.414448 0.641253
vt 0.423095 0.508652
vt 0.621491 0.816867
vt 0.648114 0.640437
vt 0.669097 0.641253
vt 0.644267 0.774144
vt 0.578790 0.496630
vt 0.601625 0.405151
vt 0.649402 0.433451
vt 0.651726 0.367843
vt 0.620780 0.366797
vt 0.454529 0.413961
vt 0.467814 0.368189
vt 0.488225 0.366596
vt 0.561691 0.421068
vt 0.537425 0.365401
vt 0.507200 0.363509
vt 0.481273 0.364028
vt 0.510983 0.366114
vt 0.635806 0.367147
vt 0.669092 0.368189
vt 0.420824 0.496630
vt 0.452865 0.405151
vt 0.558226 0.518348
vt 0.484328 0.324872
vt 0.502799 0.322553
vt 0.547406 0.321655
vt 0.519920 0.320969
vt 0.496410 0.322232
vt 0.523434 0.321439
vt 0.639292 0.324944
vt 0.675657 0.324872
vt 0.550036 0.367843
vt 0.558926 0.322330
vt 0.465216 0.366023
vt 0.604868 0.366023
vt 0.599660 0.365401
vt 0.621651 0.293283
vt 0.658462 0.293469
vt 0.659368 0.261742
vt 0.621257 0.261665
vt 0.501495 0.293600
vt 0.482345 0.307625
vt 0.480362 0.262732
vt 0.500191 0.261781
vt 0.519246 0.292376
vt 0.547742 0.292993
vt 0.548078 0.261464
vt 0.518571 0.260916
vt 0.494871 0.293528
vt 0.493332 0.261956
vt 0.522889 0.292587
vt 0.522344 0.260869
vt 0.451756 0.288897
vt 0.449773 0.262732
vt 0.656778 0.322330
vt 0.622394 0.322035
vt 0.481902 0.324350
vt 0.605664 0.324350
vt 0.599057 0.321655
vt 0.595403 0.548078
vt 0.621257 0.561263
vt 0.645824 0.523009
vt 0.590945 0.518571
vt 0.639859 0.470735
vt 0.648324 0.498544
vt 0.685407 0.500191
vt 0.686261 0.480362
vt 0.592251 0.493332
vt 0.659368 0.560446
vt 0.683143 0.522344
vt 0.596433 0.477757
vt 0.479829 0.307317
vt 0.477757 0.262636
vt 0.447168 0.262636
vt 0.449241 0.288588
vt 0.596679 0.292993
vt 0.595403 0.261464
vt 0.559686 0.293469
vt 0.560446 0.261742
vt 0.603589 0.307317
vt 0.640355 0.307779
vt 0.679739 0.307625
vt 0.677932 0.288897
vt 0.639680 0.289050
vt 0.639859 0.262967
vt 0.679465 0.262732
vt 0.604354 0.288588
vt 0.603287 0.262636
vt 0.679739 0.482345
vt 0.640355 0.473048
vt 0.639680 0.442459
vt 0.677932 0.451756
vt 0.679465 0.449773
vt 0.639859 0.440146
vt 0.603589 0.479829
vt 0.604354 0.449241
vt 0.603287 0.447168
vt 0.841501 0.761101
vt 0.796910 0.643370
vt 0.906455 0.644155
vt 0.894416 0.742499
vt 0.957194 0.643970
vt 0.829265 0.517077
vt 0.940741 0.715601
vt 0.671449 0.841501
vt 0.669190 0.894416
vt 0.849398 0.470798
vt 0.666902 0.940741
vt 0.909364 0.402088
vt 0.855378 0.389954
vt 0.592313 0.470184
vt 0.617524 0.471308
vt 0.621192 0.417417
vt 0.598226 0.414426
vt 0.598146 0.467455
vt 0.603540 0.389954
vt 0.643835 0.389418
vt 0.855424 0.393127
vt 0.905341 0.403681
vt 0.667620 0.471464
vt 0.947229 0.538591
vt 0.963044 0.470184
vt 0.580250 0.494548
vt 0.595712 0.312254
vt 0.621272 0.312916
vt 0.622837 0.264476
vt 0.597277 0.263453
vt 0.852894 0.313492
vt 0.849695 0.260671
vt 0.818572 0.260902
vt 0.821566 0.286829
vt 0.893654 0.314609
vt 0.853541 0.316407
vt 0.850246 0.263617
vt 0.890422 0.263754
vt 0.896415 0.312211
vt 0.936226 0.312254
vt 0.933075 0.263453
vt 0.893263 0.261490
vt 0.670148 0.393127
vt 0.666826 0.415674
vt 0.958612 0.415674
vt 0.958434 0.414426
vt 0.649700 0.837975
vt 0.635627 0.887710
vt 0.686058 0.890422
vt 0.687133 0.850246
vt 0.592375 0.849695
vt 0.589648 0.893263
vt 0.597277 0.933075
vt 0.622837 0.940554
vt 0.673628 0.933416
vt 0.822213 0.289744
vt 0.819123 0.263848
vt 0.672063 0.313364
vt 0.673628 0.264581
vt 0.936602 0.313364
vt 0.933416 0.264581
vt 0.941647 0.364922
vt 0.899640 0.363406
vt 0.623001 0.364960
vt 0.665562 0.364922
vt 0.668659 0.362549
vt 0.644119 0.361871
vt 0.647700 0.316485
vt 0.685132 0.316407
vt 0.859879 0.359936
vt 0.902447 0.361457
vt 0.941330 0.363919
vt 0.860378 0.362549
vt 0.606538 0.359936
vt 0.590374 0.313492
vt 0.601582 0.363919
vt 0.646474 0.289822
vt 0.601626 0.286829
vt 0.603191 0.260902
vt 0.648039 0.263334
vt 0.675760 0.289744
vt 0.677325 0.263848
vt 0.647700 0.841274
vt 0.590374 0.852894
vt 0.601626 0.821566
vt 0.646474 0.809945
vt 0.648039 0.806852
vt 0.603191 0.818572
vt 0.685132 0.853541
vt 0.675760 0.822213
vt 0.677325 0.819123
vt 0.500000 0.668378
vt 0.500000 0.724779
vt 0.517225 0.721513
vt 0.520785 0.669173
vt 0.528698 1.002924
vt 0.500000 1.014901
vt 0.500000 1.025182
vt 0.520785 1.015365
vt 0.500000 0.744181
vt 0.519989 0.740196
vt 0.519989 0.988807
vt 0.500000 0.995348
vt 0.500000 0.660499
vt 0.528698 0.661469
vt 0.154177 0.616909
vt 0.166410 0.570048
vt 0.135838 0.608740
vt 0.149154 0.567675
vt 0.147623 0.572395
vt 0.137518 0.603560
vt 0.583783 0.154177
vt 0.583848 0.135838
vt 0.600568 0.131366
vt 0.597073 0.144428
vt 0.144166 0.612314
vt 0.141084 0.620214
vt 0.132632 0.614576
vt 0.134671 0.609983
vt 0.153028 0.593819
vt 0.141399 0.592146
vt 0.619182 0.132632
vt 0.614588 0.141084
vt 0.606252 0.140479
vt 0.610351 0.130579
vt 0.138199 0.601250
vt 0.148213 0.603179
vt 0.602487 0.570048
vt 0.583783 0.616909
vt 0.597073 0.624463
vt 0.606252 0.625520
vt 0.614588 0.620214
vt 0.620822 0.612314
vt 0.623703 0.603179
vt 0.620639 0.593819
vt 0.604695 0.577238
vt 0.601269 0.572395
vt 0.603531 0.567675
vt 0.609313 0.614171
vt 0.615687 0.610750
vt 0.619182 0.614576
vt 0.610351 0.619358
vt 0.602434 0.613212
vt 0.600568 0.617961
vt 0.626402 0.601250
vt 0.623276 0.609983
vt 0.618527 0.594500
vt 0.623272 0.592146
vt 0.590602 0.606787
vt 0.583848 0.608740
vt 0.592903 0.603615
vt 0.603070 0.582298
vt 0.613048 0.594751
vt 0.610999 0.606475
vt 0.606401 0.608943
vt 0.601438 0.608251
vt 0.586331 0.603560
vt 0.600598 0.578805
vt 0.589822 0.601288
vt 0.148133 0.578805
vt 0.140843 0.601288
vt 0.522445 0.038205
vt 0.513246 0.032036
vt 0.507613 0.025182
vt 0.515546 0.030102
vt 0.521458 0.442272
vt 0.528336 0.428901
vt 0.500000 0.456702
vt 0.500000 0.445370
vt 0.500000 0.031689
vt 0.512541 0.032373
vt 0.506877 0.025742
vt 0.500000 0.025886
vt 0.500000 0.031337
vt 0.500000 0.025479
vt 0.030102 0.457928
vt 0.030515 0.446199
vt 0.432141 0.867914
vt 0.443845 0.927906
vt 0.379085 0.894044
vt 0.360683 0.828812
vt 0.439809 0.672195
vt 0.430298 0.558226
vt 0.400297 0.594201
vt 0.380247 0.672998
vt 0.419750 0.833374
vt 0.430922 0.759035
vt 0.362910 0.751725
vt 0.364577 0.812683
vt 0.430922 0.758996
vt 0.439809 0.671923
vt 0.454286 0.976119
vt 0.395580 0.951058
vt 0.395580 0.548422
vt 0.333098 0.547256
vt 0.311584 0.643970
vt 0.373635 0.643481
vt 0.436410 0.893919
vt 0.360683 0.793372
vt 0.328551 0.761101
vt 0.323030 0.643370
vt 0.340672 0.642712
vt 0.444006 0.632181
vt 0.395580 0.735145
vt 0.454286 0.747180
vt 0.427025 0.538591
vt 0.333098 0.715601
vt 0.427025 0.947229
vt 0.443553 0.575135
vt 0.400297 0.530171
vt 0.356060 0.535244
vt 0.340885 0.643738
vt 0.362910 0.643182
vt 0.435444 0.492909
vt 0.433984 0.447361
vt 0.430298 0.518348
vt 0.405006 0.421068
vt 0.383019 0.429733
vt 0.362474 0.771615
vt 0.387552 0.796381
vt 0.438918 0.382998
vt 0.421210 0.420824
vt 0.448920 0.357545
vt 0.398021 0.363238
vt 0.378773 0.407144
vt 0.332784 0.508652
vt 0.333539 0.413961
vt 0.367244 0.407548
vt 0.378773 0.499901
vt 0.362910 0.751727
vt 0.459125 0.268345
vt 0.417930 0.278839
vt 0.380247 0.672932
vt 0.448920 0.314473
vt 0.328551 0.517077
vt 0.328734 0.470798
vt 0.357619 0.470278
vt 0.364577 0.509803
vt 0.459125 0.239236
vt 0.435444 0.495971
vt 0.387552 0.579931
vt 0.371732 0.501290
vt 0.368885 0.457158
vt 0.460183 0.181283
vt 0.460183 0.140934
vt 0.460183 0.196322
vt 0.419994 0.205473
vt 0.378509 0.393435
vt 0.461297 0.608225
vt 0.473395 0.560962
vt 0.433984 0.450625
vt 0.460469 0.141037
vt 0.469367 0.116366
vt 0.437911 0.123733
vt 0.420553 0.149293
vt 0.457081 0.165879
vt 0.413943 0.174337
vt 0.484203 0.085531
vt 0.489280 0.071544
vt 0.476758 0.071388
vt 0.468516 0.086614
vt 0.398021 0.325561
vt 0.417930 0.249130
vt 0.419994 0.679456
vt 0.420401 0.648799
vt 0.460183 0.657159
vt 0.460183 0.690304
vt 0.486669 0.045311
vt 0.419994 0.191059
vt 0.422167 0.599988
vt 0.445768 0.556649
vt 0.469661 0.475706
vt 0.477555 0.462176
vt 0.486754 0.460736
vt 0.484790 0.477146
vt 0.484454 0.457928
vt 0.485561 0.446199
vt 0.493123 0.445401
vt 0.492387 0.457080
vt 0.471665 0.053210
vt 0.379159 0.601238
vt 0.385282 0.599612
vt 0.386922 0.604170
vt 0.381432 0.607555
vt 0.486669 0.424258
vt 0.487459 0.440917
vt 0.423568 0.505809
vt 0.452679 0.467354
vt 0.460520 0.507406
vt 0.480956 0.508271
vt 0.420401 0.168698
vt 0.422167 0.108290
vt 0.461297 0.096221
vt 0.479678 0.097153
vt 0.458025 0.104341
vt 0.378509 0.816867
vt 0.355733 0.774144
vt 0.330903 0.641253
vt 0.351886 0.640437
vt 0.398375 0.405151
vt 0.421210 0.496630
vt 0.379220 0.366797
vt 0.348274 0.367843
vt 0.350598 0.433451
vt 0.330908 0.368189
vt 0.364194 0.367147
vt 0.324343 0.324872
vt 0.360708 0.324944
vt 0.395132 0.366023
vt 0.400340 0.365401
vt 0.378349 0.293283
vt 0.378743 0.261665
vt 0.340632 0.261742
vt 0.341538 0.293469
vt 0.377606 0.322035
vt 0.343222 0.322330
vt 0.394336 0.324350
vt 0.400943 0.321655
vt 0.404597 0.548078
vt 0.409055 0.518571
vt 0.354176 0.523009
vt 0.378743 0.561263
vt 0.360141 0.470735
vt 0.313739 0.480362
vt 0.314593 0.500191
vt 0.351676 0.498544
vt 0.407749 0.493332
vt 0.316857 0.522344
vt 0.340632 0.560446
vt 0.403567 0.477757
vt 0.403321 0.292993
vt 0.404597 0.261464
vt 0.359645 0.307779
vt 0.396411 0.307317
vt 0.320262 0.307625
vt 0.322068 0.288897
vt 0.320535 0.262732
vt 0.360141 0.262967
vt 0.360320 0.289050
vt 0.396713 0.262636
vt 0.395646 0.288588
vt 0.320262 0.482345
vt 0.322068 0.451756
vt 0.360320 0.442459
vt 0.359645 0.473048
vt 0.360141 0.440146
vt 0.320535 0.449773
vt 0.395646 0.449241
vt 0.396411 0.479829
vt 0.396713 0.447168
vt 0.330810 0.894416
vt 0.328551 0.841501
vt 0.333098 0.940741
vt 0.407688 0.470184
vt 0.401774 0.414426
vt 0.378808 0.417417
vt 0.382476 0.471308
vt 0.356165 0.389418
vt 0.396460 0.389954
vt 0.401854 0.467455
vt 0.332380 0.471464
vt 0.419750 0.494548
vt 0.404289 0.312254
vt 0.402723 0.263453
vt 0.377163 0.264476
vt 0.378728 0.312916
vt 0.329852 0.393127
vt 0.333174 0.415674
vt 0.350300 0.837975
vt 0.312867 0.850246
vt 0.313942 0.890422
vt 0.364373 0.887710
vt 0.410353 0.893263
vt 0.407625 0.849695
vt 0.377163 0.940554
vt 0.402723 0.933075
vt 0.326372 0.933416
vt 0.326372 0.264581
vt 0.327937 0.313364
vt 0.376999 0.364960
vt 0.334438 0.364922
vt 0.331341 0.362549
vt 0.314868 0.316407
vt 0.352300 0.316485
vt 0.355881 0.361871
vt 0.409626 0.313492
vt 0.393462 0.359936
vt 0.398418 0.363919
vt 0.353526 0.289822
vt 0.351961 0.263334
vt 0.396809 0.260902
vt 0.398374 0.286829
vt 0.324240 0.289744
vt 0.322675 0.263848
vt 0.352300 0.841274
vt 0.353526 0.809945
vt 0.398374 0.821566
vt 0.409626 0.852894
vt 0.396809 0.818572
vt 0.351961 0.806852
vt 0.314868 0.853541
vt 0.324240 0.822213
vt 0.322675 0.819123
vt 0.479215 0.669173
vt 0.482775 0.721513
vt 0.471302 1.002924
vt 0.479215 1.015365
vt 0.480011 0.740196
vt 0.480011 0.988807
vt 0.471302 0.661469
vt 0.416217 0.154177
vt 0.402927 0.144428
vt 0.399432 0.131366
vt 0.416152 0.135838
vt 0.380819 0.132632
vt 0.389649 0.130579
vt 0.393748 0.140479
vt 0.385412 0.141084
vt 0.397513 0.570048
vt 0.379361 0.593819
vt 0.376297 0.603179
vt 0.379178 0.612314
vt 0.385412 0.620214
vt 0.393748 0.625520
vt 0.402927 0.624463
vt 0.416217 0.616909
vt 0.395305 0.577238
vt 0.396469 0.567675
vt 0.398731 0.572395
vt 0.390687 0.614171
vt 0.389649 0.619358
vt 0.380819 0.614576
vt 0.384313 0.610750
vt 0.397566 0.613212
vt 0.399432 0.617961
vt 0.376724 0.609983
vt 0.373598 0.601250
vt 0.376728 0.592146
vt 0.381473 0.594500
vt 0.409398 0.606787
vt 0.416152 0.608740
vt 0.407098 0.603615
vt 0.398562 0.608251
vt 0.393599 0.608943
vt 0.389001 0.606475
vt 0.386952 0.594751
vt 0.396930 0.582298
vt 0.413669 0.603560
vt 0.399402 0.578805
vt 0.410178 0.601288
vt 0.477555 0.038205
vt 0.484454 0.030102
vt 0.492387 0.025182
vt 0.486754 0.032036
vt 0.478542 0.442272
vt 0.471665 0.428901
vt 0.493123 0.025742
vt 0.487459 0.032373
vt 0.181819 0.000000
vt 0.227273 0.078731
vt 0.136365 0.078731
vt 0.272728 0.157461
vt 0.318182 0.078731
vt 0.363637 0.157461
vt 0.909091 0.000000
vt 0.954545 0.078731
vt 0.863636 0.078731
vt 0.727273 0.000000
vt 0.772727 0.078731
vt 0.681818 0.078731
vt 0.545455 0.000000
vt 0.590909 0.078731
vt 0.500000 0.078731
vt 0.318182 0.236191
vt 0.090910 0.157461
vt 0.181819 0.157461
vt 0.136365 0.236191
vt 0.818182 0.157461
vt 0.909091 0.157461
vt 0.863636 0.236191
vt 0.636364 0.157461
vt 0.727273 0.157461
vt 0.681818 0.236191
vt 0.454546 0.157461
vt 0.545455 0.157461
vt 0.500000 0.236191
vt 0.227273 0.236191
vt 0.045455 0.236191
vt 0.772727 0.236191
vt 0.590909 0.236191
vt 0.409092 0.236191
vt 0.181819 0.314921
vt 0.272728 0.314921
vt 0.227273 0.393651
vt 0.000000 0.314921
vt 0.090910 0.314921
vt 0.045455 0.393651
vt 0.727273 0.314921
vt 0.818182 0.314921
vt 0.772727 0.393651
vt 0.545455 0.314921
vt 0.636364 0.314921
vt 0.590909 0.393651
vt 0.363637 0.314921
vt 0.454546 0.314921
vt 0.409092 0.393651
vt 0.500000 0.393651
vt 0.454546 0.472382
vt 0.681818 0.393651
vt 0.636364 0.472382
vt 0.863636 0.393651
vt 0.818182 0.472382
vt 0.909091 0.314921
vt 0.136365 0.393651
vt 0.090910 0.472382
vt 0.318182 0.393651
vt 0.272728 0.472382
vt 0.954545 0.236191
vt 1.000000 0.157461
vt 0.409092 0.078731
vt 0.363637 0.000000
s 1
f 116/1/1 98/2/1 209/3/1 208/4/1
f 115/5/2 4/6/2 17/7/2 97/8/2
f 3/9/3 7/10/3 13/11/3 8/12/3
f 7/10/4 4/13/4 9/14/4 13/11/4
f 13/11/5 9/14/5 2/15/5 10/16/5
f 8/12/6 13/11/6 10/16/6 1/17/6
f 1/17/7 10/16/7 32/18/7 29/19/7
f 114/20/8 1/21/8 29/22/8 83/23/8
f 116/24/9 3/25/9 8/26/9 109/27/9
f 109/27/10 8/26/10 1/21/10 114/20/10
f 115/5/11 6/28/11 15/29/11 99/30/11
f 99/30/12 15/29/12 12/31/12 112/32/12
f 97/8/13 17/7/13 21/33/13 90/34/13
f 20/35/14 25/36/14 203/37/14 204/38/14
f 116/24/15 5/28/15 18/39/15 98/40/15
f 4/41/16 7/42/16 197/43/16 196/44/16
f 89/45/17 90/46/17 21/47/17 25/36/17
f 91/48/18 89/45/18 25/36/18 20/35/18
f 25/36/19 21/47/19 202/49/19 203/37/19
f 98/40/20 18/39/20 23/50/20 91/51/20
f 38/52/21 45/53/21 134/54/21 131/55/21
f 133/56/22 136/57/22 144/58/22 146/59/22
f 112/32/23 12/31/23 34/60/23 82/61/23
f 10/16/24 2/15/24 30/62/24 32/18/24
f 29/63/25 32/64/25 129/65/25 130/66/25
f 75/67/26 41/68/26 48/69/26 73/70/26
f 82/61/27 34/60/27 41/68/27 75/67/27
f 83/71/28 29/63/28 141/72/28 140/73/28
f 32/64/29 30/74/29 128/75/29 129/65/29
f 73/70/30 48/69/30 56/76/30 66/77/30
f 74/78/31 81/79/31 145/80/31 148/81/31
f 130/82/32 133/56/32 146/59/32 147/83/32
f 6/28/33 115/5/33 97/8/33 19/39/33
f 54/84/34 53/85/34 60/86/34 61/87/34
f 67/88/35 54/89/35 61/90/35 65/91/35
f 11/92/36 114/20/36 83/23/36 33/93/36
f 5/28/37 116/24/37 109/27/37 14/29/37
f 14/29/38 109/27/38 114/20/38 11/92/38
f 139/94/39 54/95/39 143/96/39 142/97/39
f 30/62/40 38/52/40 131/55/40 128/98/40
f 4/6/41 115/5/41 99/30/41 9/99/41
f 61/87/42 60/86/42 69/100/42 70/101/42
f 65/91/43 61/90/43 70/102/43 58/103/43
f 9/99/44 99/30/44 112/32/44 2/104/44
f 66/77/45 56/76/45 63/105/45 64/106/45
f 19/39/46 97/8/46 90/34/46 24/107/46
f 53/85/47 52/108/47 59/109/47 60/86/47
f 198/110/48 3/111/48 207/112/48 213/113/48
f 256/114/49 255/115/49 253/116/49 254/117/49
f 23/118/50 26/119/50 89/45/50 91/48/50
f 69/100/51 68/120/51 76/121/51 77/122/51
f 204/123/52 201/124/52 211/125/52 212/126/52
f 64/106/53 63/105/53 72/127/53 57/128/53
f 33/93/54 83/23/54 81/129/54 40/68/54
f 60/86/55 59/109/55 68/120/55 69/100/55
f 2/104/56 112/32/56 82/61/56 30/130/56
f 38/131/57 75/67/57 73/70/57 45/132/57
f 77/122/58 76/121/58 259/133/58 260/134/58
f 30/130/59 82/61/59 75/67/59 38/131/59
f 50/135/60 80/136/60 88/137/60 44/138/60
f 58/103/61 70/102/61 78/139/61 51/140/61
f 70/101/62 69/100/62 77/122/62 78/141/62
f 45/132/63 73/70/63 66/77/63 52/142/63
f 57/128/64 72/127/64 80/136/64 50/135/64
f 28/143/65 110/144/65 96/145/65 42/146/65
f 40/68/66 81/129/66 74/147/66 47/69/66
f 108/148/67 262/149/67 93/150/67 94/151/67
f 31/152/68 108/153/68 94/154/68 43/155/68
f 55/156/69 67/88/69 65/91/69 62/157/69
f 51/140/70 78/139/70 86/158/70 49/159/70
f 78/141/71 77/122/71 260/134/71 86/160/71
f 47/69/72 74/147/72 67/88/72 55/156/72
f 123/161/73 124/162/73 101/163/73 102/164/73
f 121/165/74 123/166/74 102/167/74 37/168/74
f 62/157/75 65/91/75 58/103/75 71/169/75
f 52/142/76 66/77/76 64/106/76 59/170/76
f 59/170/77 64/106/77 57/128/77 68/171/77
f 262/149/78 261/172/78 92/173/78 93/150/78
f 76/174/79 50/175/79 44/176/79 259/177/79
f 71/169/80 58/103/80 51/140/80 79/178/80
f 37/168/81 35/179/81 105/180/81 103/181/81
f 124/162/82 127/182/82 297/183/82 298/184/82 101/163/82
f 68/171/83 57/128/83 50/135/83 76/185/83
f 261/186/84 28/143/84 42/146/84 92/187/84
f 107/188/85 31/152/85 43/155/85 95/189/85
f 127/190/86 122/191/86 295/192/86 297/193/86
f 79/178/87 51/140/87 49/159/87 87/194/87
f 100/195/88 36/196/88 301/197/88 104/198/88
f 126/199/89 121/165/89 37/168/89 103/181/89
f 102/167/90 101/200/90 35/179/90 37/168/90
f 274/201/91 273/202/91 290/203/91 291/204/91
f 122/191/92 125/205/92 300/206/92 295/192/92
f 49/159/93 86/158/93 108/153/93 31/152/93
f 86/160/94 260/134/94 262/149/94 108/148/94
f 35/207/95 296/208/95 299/209/95 105/210/95
f 44/176/96 88/211/96 110/144/96 28/143/96
f 93/212/97 92/187/97 120/213/97 119/214/97
f 87/194/98 49/159/98 31/152/98 107/188/98
f 42/146/99 96/145/99 113/215/99 27/216/99
f 259/217/100 44/138/100 28/218/100 261/219/100
f 92/187/101 42/146/101 27/216/101 120/213/101
f 95/189/102 43/155/102 22/220/102 118/221/102
f 43/155/103 94/154/103 117/222/103 22/220/103
f 94/151/104 93/150/104 119/223/104 117/224/104
f 120/213/105 27/216/105 122/191/105 127/190/105
f 118/221/106 22/220/106 121/165/106 126/199/106
f 119/223/107 120/225/107 127/182/107 124/162/107
f 27/216/108 113/215/108 125/205/108 122/191/108
f 22/220/109 117/222/109 123/166/109 121/165/109
f 117/224/110 119/223/110 124/162/110 123/161/110
f 130/82/111 129/226/111 132/227/111 133/56/111
f 132/227/112 131/55/112 134/54/112 135/228/112
f 129/226/113 128/98/113 131/55/113 132/227/113
f 135/228/114 134/54/114 137/229/114 138/230/114
f 133/56/115 132/227/115 135/228/115 136/57/115
f 136/57/116 135/228/116 138/230/116 139/231/116
f 52/232/117 53/233/117 138/234/117 137/235/117
f 45/53/118 52/108/118 137/229/118 134/54/118
f 54/95/119 67/236/119 149/237/119 143/96/119
f 53/233/120 54/95/120 139/94/120 138/234/120
f 141/72/121 147/238/121 157/239/121 39/240/121
f 144/58/122 142/241/122 150/242/122 153/243/122
f 145/80/123 140/244/123 46/245/123 154/246/123
f 148/81/124 145/80/124 154/246/124 158/247/124
f 146/59/125 144/58/125 153/243/125 156/248/125
f 142/97/126 143/96/126 151/249/126 150/250/126
f 136/57/127 139/231/127 142/241/127 144/58/127
f 67/251/128 74/78/128 148/81/128 149/252/128
f 29/63/129 130/66/129 147/238/129 141/72/129
f 81/79/130 83/253/130 140/244/130 145/80/130
f 153/243/131 150/242/131 162/254/131 164/255/131
f 154/246/132 46/245/132 160/256/132 165/257/132
f 158/247/133 154/246/133 165/257/133 168/258/133
f 156/248/134 153/243/134 164/255/134 166/259/134
f 150/250/135 151/249/135 163/260/135 162/261/135
f 157/262/136 156/248/136 166/259/136 167/263/136
f 149/252/137 148/81/137 158/247/137 159/264/137
f 143/96/138 149/237/138 159/265/138 151/249/138
f 140/73/139 141/72/139 39/240/139 46/266/139
f 147/83/140 146/59/140 156/248/140 157/262/140
f 188/267/141 187/268/141 177/269/141 152/270/141
f 184/271/142 185/272/142 170/273/142 173/274/142
f 182/275/143 180/276/143 155/277/143 174/278/143
f 181/279/144 182/275/144 174/278/144 178/280/144
f 183/281/145 184/271/145 173/274/145 176/282/145
f 170/273/146 185/272/146 194/283/146 192/284/146
f 39/240/147 157/239/147 167/285/147 161/286/147
f 159/264/148 158/247/148 168/258/148 169/287/148
f 151/249/149 159/265/149 169/288/149 163/260/149
f 46/266/150 39/240/150 161/286/150 160/289/150
f 155/290/151 152/291/151 175/292/151 174/293/151
f 171/294/152 172/295/152 173/296/152 170/297/152
f 174/293/153 175/292/153 172/295/153 178/298/153
f 175/292/154 152/291/154 177/299/154 176/300/154
f 178/298/155 172/295/155 171/294/155 179/301/155
f 172/295/156 175/292/156 176/300/156 173/296/156
f 189/302/157 181/279/157 178/280/157 179/303/157
f 189/302/158 179/303/158 193/304/158 195/305/158
f 180/306/159 188/267/159 152/270/159 155/307/159
f 187/308/160 183/281/160 176/282/160 177/309/160
f 167/263/161 166/259/161 183/281/161 187/308/161
f 160/289/162 161/286/162 188/267/162 180/306/162
f 163/260/163 169/288/163 189/310/163 186/311/163
f 169/287/164 168/258/164 181/279/164 189/302/164
f 162/261/165 163/260/165 186/311/165 185/312/165
f 166/259/166 164/255/166 184/271/166 183/281/166
f 168/258/167 165/257/167 182/275/167 181/279/167
f 165/257/168 160/256/168 180/276/168 182/275/168
f 164/255/169 162/254/169 185/272/169 184/271/169
f 161/286/170 167/285/170 187/268/170 188/267/170
f 194/313/171 190/314/171 191/315/171 192/316/171
f 190/314/172 195/317/172 193/318/172 191/315/172
f 185/319/173 186/320/173 190/321/173 194/322/173
f 171/294/174 170/297/174 192/323/174 191/324/174
f 186/320/175 189/325/175 195/326/175 190/321/175
f 179/301/176 171/294/176 191/324/176 193/327/176
f 196/328/177 197/329/177 200/330/177 199/331/177
f 200/330/178 201/124/178 204/123/178 203/332/178
f 197/329/179 198/333/179 201/124/179 200/330/179
f 199/331/180 200/330/180 203/332/180 202/334/180
f 7/42/181 3/111/181 198/110/181 197/43/181
f 17/7/182 4/6/182 196/335/182 199/336/182
f 201/124/183 198/333/183 213/337/183 211/125/183
f 21/33/184 17/7/184 199/336/184 202/338/184
f 208/4/185 209/3/185 217/339/185 216/340/185
f 210/341/186 206/342/186 214/343/186 218/344/186
f 207/112/187 208/345/187 216/346/187 215/347/187
f 211/125/188 213/337/188 221/348/188 219/349/188
f 20/35/189 204/38/189 212/350/189 206/342/189
f 91/48/190 20/35/190 206/342/190 210/341/190
f 98/2/191 91/351/191 210/352/191 209/3/191
f 3/111/192 116/353/192 208/345/192 207/112/192
f 232/354/193 235/355/193 222/356/193 226/357/193
f 233/358/194 224/359/194 240/360/194 241/361/194
f 16/362/195 230/363/195 229/364/195 227/365/195
f 231/366/196 232/367/196 226/368/196 225/369/196
f 213/113/197 207/112/197 215/347/197 221/370/197
f 206/342/198 212/350/198 220/371/198 214/343/198
f 212/126/199 211/125/199 219/349/199 220/372/199
f 209/3/200 210/352/200 218/373/200 217/339/200
f 223/374/201 205/375/201 227/376/201 229/377/201
f 223/374/202 224/378/202 225/379/202 205/375/202
f 205/375/203 225/379/203 226/380/203 222/381/203
f 205/375/204 222/381/204 228/382/204 227/376/204
f 233/358/205 231/366/205 225/369/205 224/359/205
f 229/364/206 230/363/206 237/383/206 238/384/206
f 235/355/207 236/385/207 228/386/207 222/356/207
f 236/387/208 16/362/208 227/365/208 228/388/208
f 250/389/209 243/390/209 16/362/209 236/387/209
f 249/391/210 250/392/210 236/385/210 235/355/210
f 246/393/211 245/394/211 234/395/211 230/396/211
f 248/397/212 244/398/212 231/366/212 233/358/212
f 244/398/213 247/399/213 232/367/213 231/366/213
f 243/390/214 246/400/214 230/363/214 16/362/214
f 245/394/215 248/401/215 233/402/215 234/395/215
f 247/403/216 249/391/216 235/355/216 232/354/216
f 242/404/217 241/405/217 240/406/217 239/407/217
f 237/408/218 242/404/218 239/407/218 238/409/218
f 234/410/219 233/411/219 241/412/219 242/413/219
f 224/378/220 223/374/220 239/414/220 240/415/220
f 230/416/221 234/410/221 242/413/221 237/417/221
f 223/374/222 229/377/222 238/418/222 239/414/222
f 218/344/223 214/343/223 249/391/223 247/403/223
f 215/347/224 216/346/224 248/401/224 245/394/224
f 219/349/225 221/348/225 246/400/225 243/390/225
f 217/339/226 218/373/226 247/399/226 244/398/226
f 216/340/227 217/339/227 244/398/227 248/397/227
f 221/370/228 215/347/228 245/394/228 246/393/228
f 214/343/229 220/371/229 250/392/229 249/391/229
f 220/372/230 219/349/230 243/390/230 250/389/230
f 252/419/231 251/420/231 254/421/231 253/422/231
f 255/423/232 257/424/232 252/425/232 253/426/232
f 258/427/233 256/428/233 254/421/233 251/420/233
f 24/107/234 90/34/234 256/429/234 258/430/234
f 89/45/235 26/119/235 257/431/235 255/432/235
f 90/46/236 89/45/236 255/432/236 256/428/236
f 84/433/237 85/434/237 260/134/237 259/133/237
f 275/435/238 84/433/238 259/133/238 261/172/238
f 85/434/239 276/436/239 262/149/239 260/134/239
f 276/436/240 284/437/240 283/438/240 275/435/240 261/172/240 262/149/240
f 84/439/241 275/440/241 279/441/241 263/442/241
f 266/443/242 264/444/242 278/445/242 280/446/242
f 276/436/243 85/434/243 267/447/243 282/448/243
f 278/449/244 264/450/244 265/451/244 277/452/244
f 277/452/245 265/451/245 263/442/245 279/441/245
f 266/443/246 280/446/246 281/453/246 268/454/246
f 268/454/247 281/453/247 282/448/247 267/447/247
f 85/455/248 84/456/248 263/457/248 265/458/248 264/459/248 266/460/248 268/461/248 267/462/248
f 106/463/249 284/464/249 276/465/249
f 271/466/250 269/467/250 278/468/250 277/469/250
f 270/470/251 271/466/251 277/469/251 279/471/251
f 273/202/252 274/201/252 281/472/252 280/473/252
f 274/201/253 272/474/253 282/475/253 281/472/253
f 269/467/254 273/202/254 280/473/254 278/468/254
f 111/476/255 270/470/255 279/471/255 275/477/255
f 272/474/256 106/463/256 276/465/256 282/475/256
f 285/478/257 286/479/257 292/480/257 291/204/257 290/203/257 288/481/257 287/482/257 289/483/257
f 283/484/258 111/476/258 275/477/258
f 270/470/259 111/476/259 285/478/259 289/483/259
f 294/485/260 286/479/260 285/478/260 293/486/260
f 111/476/261 283/484/261 293/486/261 285/478/261
f 106/463/262 272/474/262 292/480/262 286/479/262
f 272/474/263 274/201/263 291/204/263 292/480/263
f 269/467/264 271/466/264 287/482/264 288/481/264
f 283/438/265 284/437/265 294/487/265 293/488/265
f 273/202/266 269/467/266 288/481/266 290/203/266
f 284/464/267 106/463/267 286/479/267 294/485/267
f 271/466/268 270/470/268 289/483/268 287/482/268
f 297/489/269 295/490/269 36/491/269 100/492/269
f 296/208/270 298/493/270 104/198/270 301/197/270
f 101/494/271 298/493/271 296/208/271 35/207/271
f 36/196/272 302/495/272 303/496/272 301/197/272
f 299/497/273 296/498/273 301/499/273 303/500/273
f 295/490/274 300/501/274 302/502/274 36/491/274
f 298/184/275 297/183/275 100/503/275 104/504/275
f 385/1/276 474/4/276 475/3/276 372/2/276
f 384/505/277 371/506/277 314/507/277 307/508/277
f 306/9/278 309/12/278 312/11/278 308/10/278
f 308/10/279 312/11/279 310/14/279 307/13/279
f 312/11/280 311/16/280 305/15/280 310/14/280
f 309/12/281 304/17/281 311/16/281 312/11/281
f 304/17/282 321/19/282 324/18/282 311/16/282
f 383/509/283 361/510/283 321/511/283 304/512/283
f 385/513/284 380/514/284 309/515/284 306/516/284
f 380/514/285 383/509/285 304/512/285 309/515/285
f 384/505/286 373/517/286 15/29/286 6/28/286
f 373/517/287 382/518/287 12/31/287 15/29/287
f 371/506/288 366/519/288 316/520/288 314/507/288
f 315/521/289 470/522/289 469/523/289 318/524/289
f 385/513/290 372/525/290 18/39/290 5/28/290
f 307/526/291 462/527/291 463/528/291 308/529/291
f 365/530/292 318/524/292 316/531/292 366/532/292
f 367/533/293 315/521/293 318/524/293 365/530/293
f 318/524/294 469/523/294 468/534/294 316/531/294
f 372/525/295 367/535/295 23/50/295 18/39/295
f 328/52/296 397/55/296 400/54/296 333/53/296
f 399/56/297 412/59/297 410/58/297 402/57/297
f 382/518/298 360/536/298 34/60/298 12/31/298
f 311/16/299 324/18/299 322/62/299 305/15/299
f 321/537/300 396/538/300 395/539/300 324/540/300
f 355/541/301 353/542/301 48/69/301 41/68/301
f 360/536/302 355/541/302 41/68/302 34/60/302
f 361/543/303 406/544/303 407/545/303 321/537/303
f 324/540/304 395/539/304 394/546/304 322/547/304
f 353/542/305 348/548/305 56/76/305 48/69/305
f 354/78/306 414/81/306 411/80/306 359/79/306
f 396/82/307 413/83/307 412/59/307 399/56/307
f 6/28/308 19/39/308 371/506/308 384/505/308
f 340/84/309 345/87/309 344/86/309 339/85/309
f 349/549/310 347/550/310 345/551/310 340/552/310
f 11/92/311 33/93/311 361/510/311 383/509/311
f 5/28/312 14/29/312 380/514/312 385/513/312
f 14/29/313 11/92/313 383/509/313 380/514/313
f 405/553/314 408/554/314 409/555/314 340/556/314
f 322/62/315 394/98/315 397/55/315 328/52/315
f 307/508/316 310/557/316 373/517/316 384/505/316
f 345/87/317 352/101/317 351/100/317 344/86/317
f 347/550/318 342/558/318 352/559/318 345/551/318
f 310/557/319 305/560/319 382/518/319 373/517/319
f 348/548/320 346/561/320 63/105/320 56/76/320
f 19/39/321 24/107/321 366/519/321 371/506/321
f 339/85/322 344/86/322 343/109/322 338/108/322
f 464/562/323 479/563/323 473/564/323 306/565/323
f 520/114/324 518/117/324 517/116/324 519/115/324
f 23/118/325 367/533/325 365/530/325 26/119/325
f 351/100/326 357/122/326 356/121/326 350/120/326
f 470/123/327 478/126/327 477/125/327 467/124/327
f 346/561/328 341/566/328 72/127/328 63/105/328
f 33/93/329 40/68/329 359/567/329 361/510/329
f 344/86/330 351/100/330 350/120/330 343/109/330
f 305/560/331 322/568/331 360/536/331 382/518/331
f 328/569/332 333/570/332 353/542/332 355/541/332
f 357/122/333 522/134/333 521/133/333 356/121/333
f 322/568/334 328/569/334 355/541/334 360/536/334
f 336/571/335 332/572/335 88/137/335 80/136/335
f 342/558/336 337/573/336 358/574/336 352/559/336
f 352/101/337 358/141/337 357/122/337 351/100/337
f 333/570/338 338/575/338 348/548/338 353/542/338
f 341/566/339 336/571/339 80/136/339 72/127/339
f 320/576/340 330/577/340 96/145/340 110/144/340
f 40/68/341 47/69/341 354/578/341 359/567/341
f 379/148/342 370/151/342 369/150/342 524/149/342
f 323/579/343 331/580/343 370/581/343 379/582/343
f 55/156/344 62/157/344 347/550/344 349/549/344
f 337/573/345 335/583/345 364/584/345 358/574/345
f 358/141/346 364/160/346 522/134/346 357/122/346
f 47/69/347 55/156/347 349/549/347 354/578/347
f 391/161/348 376/164/348 375/163/348 392/162/348
f 389/585/349 327/586/349 376/587/349 391/588/349
f 62/157/350 71/169/350 342/558/350 347/550/350
f 338/575/351 343/589/351 346/561/351 348/548/351
f 343/589/352 350/590/352 341/566/352 346/561/352
f 524/149/353 369/150/353 368/173/353 523/172/353
f 356/591/354 521/592/354 332/593/354 336/594/354
f 71/169/355 79/178/355 337/573/355 342/558/355
f 327/586/356 103/181/356 105/180/356 325/595/356
f 392/162/357 375/163/357 560/184/357 559/183/357 393/182/357
f 350/590/358 356/596/358 336/571/358 341/566/358
f 523/597/359 368/598/359 330/577/359 320/576/359
f 107/188/360 95/189/360 331/580/360 323/579/360
f 393/599/361 559/600/361 557/601/361 390/602/361
f 79/178/362 87/194/362 335/583/362 337/573/362
f 374/603/363 377/604/363 561/605/363 326/606/363
f 126/199/364 103/181/364 327/586/364 389/585/364
f 376/587/365 327/586/365 325/595/365 375/607/365
f 536/608/366 553/609/366 552/610/366 535/611/366
f 390/602/367 557/601/367 300/206/367 125/205/367
f 335/583/368 323/579/368 379/582/368 364/584/368
f 364/160/369 379/148/369 524/149/369 522/134/369
f 325/612/370 105/210/370 299/209/370 558/613/370
f 332/593/371 320/576/371 110/144/371 88/211/371
f 369/614/372 387/615/372 388/616/372 368/598/372
f 87/194/373 107/188/373 323/579/373 335/583/373
f 330/577/374 319/617/374 113/215/374 96/145/374
f 521/618/375 523/619/375 320/620/375 332/572/375
f 368/598/376 388/616/376 319/617/376 330/577/376
f 95/189/377 118/221/377 317/621/377 331/580/377
f 331/580/378 317/621/378 386/622/378 370/581/378
f 370/151/379 386/224/379 387/223/379 369/150/379
f 388/616/380 393/599/380 390/602/380 319/617/380
f 118/221/381 126/199/381 389/585/381 317/621/381
f 387/223/382 392/162/382 393/182/382 388/225/382
f 319/617/383 390/602/383 125/205/383 113/215/383
f 317/621/384 389/585/384 391/588/384 386/622/384
f 386/224/385 391/161/385 392/162/385 387/223/385
f 396/82/386 399/56/386 398/227/386 395/226/386
f 398/227/387 401/228/387 400/54/387 397/55/387
f 395/226/388 398/227/388 397/55/388 394/98/388
f 401/228/389 404/230/389 403/229/389 400/54/389
f 399/56/390 402/57/390 401/228/390 398/227/390
f 402/57/391 405/231/391 404/230/391 401/228/391
f 338/623/392 403/624/392 404/625/392 339/626/392
f 333/53/393 400/54/393 403/229/393 338/108/393
f 340/556/394 409/555/394 415/627/394 349/628/394
f 339/626/395 404/625/395 405/553/395 340/556/395
f 407/545/396 329/629/396 423/630/396 413/631/396
f 410/58/397 419/243/397 416/242/397 408/241/397
f 411/80/398 420/246/398 334/245/398 406/244/398
f 414/81/399 424/247/399 420/246/399 411/80/399
f 412/59/400 422/248/400 419/243/400 410/58/400
f 408/554/401 416/632/401 417/633/401 409/555/401
f 402/57/402 410/58/402 408/241/402 405/231/402
f 349/251/403 415/252/403 414/81/403 354/78/403
f 321/537/404 407/545/404 413/631/404 396/538/404
f 359/79/405 411/80/405 406/244/405 361/253/405
f 419/243/406 430/255/406 428/254/406 416/242/406
f 420/246/407 431/257/407 426/256/407 334/245/407
f 424/247/408 434/258/408 431/257/408 420/246/408
f 422/248/409 432/259/409 430/255/409 419/243/409
f 416/632/410 428/634/410 429/635/410 417/633/410
f 423/262/411 433/263/411 432/259/411 422/248/411
f 415/252/412 425/264/412 424/247/412 414/81/412
f 409/555/413 417/633/413 425/636/413 415/627/413
f 406/544/414 334/637/414 329/629/414 407/545/414
f 413/83/415 423/262/415 422/248/415 412/59/415
f 454/638/416 418/639/416 443/640/416 453/641/416
f 450/271/417 439/274/417 436/273/417 451/272/417
f 448/275/418 440/278/418 421/277/418 446/276/418
f 447/279/419 444/280/419 440/278/419 448/275/419
f 449/281/420 442/282/420 439/274/420 450/271/420
f 436/273/421 458/284/421 460/283/421 451/272/421
f 329/629/422 427/642/422 433/643/422 423/630/422
f 425/264/423 435/287/423 434/258/423 424/247/423
f 417/633/424 429/635/424 435/644/424 425/636/424
f 334/637/425 426/645/425 427/642/425 329/629/425
f 421/646/426 440/647/426 441/648/426 418/649/426
f 437/650/427 436/651/427 439/652/427 438/653/427
f 440/647/428 444/654/428 438/653/428 441/648/428
f 441/648/429 442/655/429 443/656/429 418/649/429
f 444/654/430 445/657/430 437/650/430 438/653/430
f 438/653/431 439/652/431 442/655/431 441/648/431
f 455/302/432 445/303/432 444/280/432 447/279/432
f 455/302/433 461/305/433 459/304/433 445/303/433
f 446/658/434 421/659/434 418/639/434 454/638/434
f 453/308/435 443/309/435 442/282/435 449/281/435
f 433/263/436 453/308/436 449/281/436 432/259/436
f 426/645/437 446/658/437 454/638/437 427/642/437
f 429/635/438 452/660/438 455/661/438 435/644/438
f 435/287/439 455/302/439 447/279/439 434/258/439
f 428/634/440 451/662/440 452/660/440 429/635/440
f 432/259/441 449/281/441 450/271/441 430/255/441
f 434/258/442 447/279/442 448/275/442 431/257/442
f 431/257/443 448/275/443 446/276/443 426/256/443
f 430/255/444 450/271/444 451/272/444 428/254/444
f 427/642/445 454/638/445 453/641/445 433/643/445
f 460/663/446 458/664/446 457/665/446 456/666/446
f 456/666/447 457/665/447 459/667/447 461/668/447
f 451/669/448 460/670/448 456/671/448 452/672/448
f 437/650/449 457/673/449 458/674/449 436/651/449
f 452/672/450 456/671/450 461/675/450 455/676/450
f 445/657/451 459/677/451 457/673/451 437/650/451
f 462/328/452 465/331/452 466/330/452 463/329/452
f 466/330/453 469/332/453 470/123/453 467/124/453
f 463/329/454 466/330/454 467/124/454 464/333/454
f 465/331/455 468/334/455 469/332/455 466/330/455
f 308/529/456 463/528/456 464/562/456 306/565/456
f 314/507/457 465/678/457 462/679/457 307/508/457
f 467/124/458 477/125/458 479/337/458 464/333/458
f 316/520/459 468/680/459 465/678/459 314/507/459
f 474/4/460 482/340/460 483/339/460 475/3/460
f 476/681/461 484/682/461 480/683/461 472/684/461
f 473/564/462 481/685/462 482/686/462 474/687/462
f 477/125/463 485/349/463 487/348/463 479/337/463
f 315/521/464 472/684/464 478/688/464 470/522/464
f 367/533/465 476/681/465 472/684/465 315/521/465
f 372/2/466 475/3/466 476/352/466 367/351/466
f 306/565/467 473/564/467 474/687/467 385/689/467
f 498/690/468 492/691/468 488/692/468 501/693/468
f 499/358/469 507/361/469 506/360/469 490/359/469
f 313/362/470 493/365/470 495/364/470 496/363/470
f 497/366/471 491/369/471 492/368/471 498/367/471
f 479/563/472 487/694/472 481/685/472 473/564/472
f 472/684/473 480/683/473 486/695/473 478/688/473
f 478/126/474 486/372/474 485/349/474 477/125/474
f 475/3/475 483/339/475 484/373/475 476/352/475
f 489/696/476 495/697/476 493/698/476 471/699/476
f 489/696/477 471/699/477 491/700/477 490/701/477
f 471/699/478 488/702/478 492/703/478 491/700/478
f 471/699/479 493/698/479 494/704/479 488/702/479
f 499/358/480 490/359/480 491/369/480 497/366/480
f 495/364/481 504/384/481 503/383/481 496/363/481
f 501/693/482 488/692/482 494/705/482 502/706/482
f 502/387/483 494/388/483 493/365/483 313/362/483
f 516/389/484 502/387/484 313/362/484 509/390/484
f 515/707/485 501/693/485 502/706/485 516/708/485
f 512/709/486 496/710/486 500/711/486 511/712/486
f 514/397/487 499/358/487 497/366/487 510/398/487
f 510/398/488 497/366/488 498/367/488 513/399/488
f 509/390/489 313/362/489 496/363/489 512/400/489
f 511/712/490 500/711/490 499/713/490 514/714/490
f 513/715/491 498/690/491 501/693/491 515/707/491
f 508/716/492 505/717/492 506/718/492 507/719/492
f 503/720/493 504/721/493 505/717/493 508/716/493
f 500/722/494 508/723/494 507/724/494 499/725/494
f 490/701/495 506/726/495 505/727/495 489/696/495
f 496/728/496 503/729/496 508/723/496 500/722/496
f 489/696/497 505/727/497 504/730/497 495/697/497
f 484/682/498 513/715/498 515/707/498 480/683/498
f 481/685/499 511/712/499 514/714/499 482/686/499
f 485/349/500 509/390/500 512/400/500 487/348/500
f 483/339/501 510/398/501 513/399/501 484/373/501
f 482/340/502 514/397/502 510/398/502 483/339/502
f 487/694/503 512/709/503 511/712/503 481/685/503
f 480/683/504 515/707/504 516/708/504 486/695/504
f 486/372/505 516/389/505 509/390/505 485/349/505
f 252/419/506 517/731/506 518/732/506 251/420/506
f 519/733/507 517/734/507 252/425/507 257/424/507
f 258/427/508 251/420/508 518/732/508 520/735/508
f 24/107/509 258/430/509 520/736/509 366/519/509
f 365/530/510 519/737/510 257/431/510 26/119/510
f 366/532/511 520/735/511 519/737/511 365/530/511
f 362/433/512 521/133/512 522/134/512 363/434/512
f 537/435/513 523/172/513 521/133/513 362/433/513
f 363/434/514 522/134/514 524/149/514 538/436/514
f 538/436/515 524/149/515 523/172/515 537/435/515 545/438/515 546/437/515
f 362/738/516 525/739/516 541/740/516 537/741/516
f 528/443/517 542/446/517 540/445/517 526/444/517
f 538/436/518 544/448/518 529/447/518 363/434/518
f 540/742/519 539/743/519 527/744/519 526/745/519
f 539/743/520 541/740/520 525/739/520 527/744/520
f 528/443/521 530/454/521 543/453/521 542/446/521
f 530/454/522 529/447/522 544/448/522 543/453/522
f 363/746/523 529/747/523 530/748/523 528/749/523 526/750/523 527/751/523 525/752/523 362/753/523
f 378/754/524 538/755/524 546/756/524
f 533/757/525 539/758/525 540/759/525 531/760/525
f 532/761/526 541/762/526 539/758/526 533/757/526
f 535/611/527 542/763/527 543/764/527 536/608/527
f 536/608/253 543/764/253 544/765/253 534/766/253
f 531/760/528 540/759/528 542/763/528 535/611/528
f 381/767/529 537/768/529 541/762/529 532/761/529
f 534/766/530 544/765/530 538/755/530 378/754/530
f 547/769/531 551/770/531 549/771/531 550/772/531 552/610/531 553/609/531 554/773/531 548/774/531
f 545/775/532 537/768/532 381/767/532
f 532/761/533 551/770/533 547/769/533 381/767/533
f 556/776/534 555/777/534 547/769/534 548/774/534
f 381/767/535 547/769/535 555/777/535 545/775/535
f 378/754/536 548/774/536 554/773/536 534/766/536
f 534/766/537 554/773/537 553/609/537 536/608/537
f 531/760/538 550/772/538 549/771/538 533/757/538
f 545/438/539 555/488/539 556/487/539 546/437/539
f 535/611/540 552/610/540 550/772/540 531/760/540
f 546/756/541 556/776/541 548/774/541 378/754/541
f 533/757/542 549/771/542 551/770/542 532/761/542
f 559/778/543 374/779/543 326/780/543 557/781/543
f 558/613/544 561/605/544 377/604/544 560/782/544
f 375/783/545 325/612/545 558/613/545 560/782/545
f 326/606/546 561/605/546 303/496/546 302/495/546
f 299/497/547 303/500/547 561/784/547 558/785/547
f 557/781/548 326/780/548 302/502/548 300/501/548
f 560/184/549 377/504/549 374/503/549 559/183/549
f 562/786/550 575/787/550 574/788/550
f 563/789/551 575/790/551 577/791/551
f 562/792/552 574/793/552 579/794/552
f 562/795/553 579/796/553 581/797/553
f 562/798/554 581/799/554 578/800/554
f 563/789/555 577/791/555 584/801/555
f 564/802/556 576/803/556 586/804/556
f 565/805/557 580/806/557 588/807/557
f 566/808/558 582/809/558 590/810/558
f 567/811/559 583/812/559 592/813/559
f 563/789/560 584/801/560 587/814/560
f 564/802/561 586/804/561 589/815/561
f 565/805/562 588/807/562 591/816/562
f 566/808/563 590/810/563 593/817/563
f 567/811/564 592/813/564 585/818/564
f 568/819/565 594/820/565 599/821/565
f 569/822/566 595/823/566 601/824/566
f 570/825/567 596/826/567 602/827/567
f 571/828/568 597/829/568 603/830/568
f 572/831/569 598/832/569 600/833/569
f 600/833/570 603/834/570 573/835/570
f 600/833/571 598/832/571 603/834/571
f 598/832/572 571/828/572 603/834/572
f 603/830/573 602/836/573 573/837/573
f 603/830/574 597/829/574 602/836/574
f 597/829/575 570/825/575 602/836/575
f 602/827/576 601/838/576 573/839/576
f 602/827/577 596/826/577 601/838/577
f 596/826/578 569/840/578 601/838/578
f 601/824/579 599/841/579 573/842/579
f 601/824/580 595/823/580 599/841/580
f 595/823/581 568/819/581 599/841/581
f 599/821/582 600/843/582 573/844/582
f 599/821/583 594/820/583 600/843/583
f 594/820/584 572/831/584 600/843/584
f 585/818/585 598/832/585 572/831/585
f 585/818/586 592/813/586 598/832/586
f 592/813/587 571/828/587 598/832/587
f 593/817/588 597/829/588 571/828/588
f 593/817/589 590/810/589 597/829/589
f 590/810/590 570/825/590 597/829/590
f 591/816/591 596/826/591 570/825/591
f 591/816/592 588/807/592 596/826/592
f 588/807/593 569/840/593 596/826/593
f 589/815/594 595/823/594 569/822/594
f 589/815/595 586/804/595 595/823/595
f 586/804/596 568/819/596 595/823/596
f 587/814/597 594/820/597 568/819/597
f 587/814/598 584/801/598 594/820/598
f 584/801/599 572/831/599 594/820/599
f 592/813/600 593/817/600 571/828/600
f 592/813/601 583/812/601 593/817/601
f 583/812/602 566/808/602 593/817/602
f 590/810/603 591/816/603 570/825/603
f 590/810/604 582/809/604 591/816/604
f 582/809/605 565/805/605 591/816/605
f 588/807/606 589/845/606 569/840/606
f 588/807/607 580/806/607 589/845/607
f 580/806/608 564/846/608 589/845/608
f 586/804/609 587/814/609 568/819/609
f 586/804/610 576/803/610 587/814/610
f 576/803/611 563/789/611 587/814/611
f 584/801/612 585/818/612 572/831/612
f 584/801/613 577/791/613 585/818/613
f 577/791/614 567/811/614 585/818/614
f 578/800/615 583/812/615 567/811/615
f 578/800/616 581/799/616 583/812/616
f 581/799/617 566/808/617 583/812/617
f 581/797/618 582/809/618 566/808/618
f 581/797/619 579/796/619 582/809/619
f 579/796/620 565/805/620 582/809/620
f 579/794/621 580/806/621 565/805/621
f 579/794/622 574/793/622 580/806/622
f 574/793/623 564/846/623 580/806/623
f 577/791/624 578/847/624 567/811/624
f 577/791/625 575/790/625 578/847/625
f 575/790/626 562/848/626 578/847/626
f 574/788/627 576/803/627 564/802/627
f 574/788/628 575/787/628 576/803/628
f 575/787/629 563/789/629 576/803/629
f 604/786/630 616/788/630 617/787/630
f 605/789/631 619/791/631 617/790/631
f 604/792/632 621/794/632 616/793/632
f 604/795/633 623/797/633 621/796/633
f 604/798/634 620/800/634 623/799/634
f 605/789/635 626/801/635 619/791/635
f 606/802/636 628/804/636 618/803/636
f 607/805/637 630/807/637 622/806/637
f 608/808/638 632/810/638 624/809/638
f 609/811/639 634/813/639 625/812/639
f 605/789/640 629/814/640 626/801/640
f 606/802/641 631/815/641 628/804/641
f 607/805/642 633/816/642 630/807/642
f 608/808/643 635/817/643 632/810/643
f 609/811/644 627/818/644 634/813/644
f 610/819/645 641/821/645 636/820/645
f 611/822/646 643/824/646 637/823/646
f 612/825/647 644/827/647 638/826/647
f 613/828/648 645/830/648 639/829/648
f 614/831/649 642/833/649 640/832/649
f 642/833/650 615/835/650 645/834/650
f 642/833/651 645/834/651 640/832/651
f 640/832/652 645/834/652 613/828/652
f 645/830/653 615/837/653 644/836/653
f 645/830/654 644/836/654 639/829/654
f 639/829/655 644/836/655 612/825/655
f 644/827/656 615/839/656 643/838/656
f 644/827/657 643/838/657 638/826/657
f 638/826/658 643/838/658 611/840/658
f 643/824/659 615/842/659 641/841/659
f 643/824/660 641/841/660 637/823/660
f 637/823/661 641/841/661 610/819/661
f 641/821/662 615/844/662 642/843/662
f 641/821/663 642/843/663 636/820/663
f 636/820/664 642/843/664 614/831/664
f 627/818/665 614/831/665 640/832/665
f 627/818/666 640/832/666 634/813/666
f 634/813/667 640/832/667 613/828/667
f 635/817/668 613/828/668 639/829/668
f 635/817/669 639/829/669 632/810/669
f 632/810/670 639/829/670 612/825/670
f 633/816/671 612/825/671 638/826/671
f 633/816/672 638/826/672 630/807/672
f 630/807/673 638/826/673 611/840/673
f 631/815/674 611/822/674 637/823/674
f 631/815/675 637/823/675 628/804/675
f 628/804/676 637/823/676 610/819/676
f 629/814/677 610/819/677 636/820/677
f 629/814/678 636/820/678 626/801/678
f 626/801/679 636/820/679 614/831/679
f 634/813/680 613/828/680 635/817/680
f 634/813/681 635/817/681 625/812/681
f 625/812/682 635/817/682 608/808/682
f 632/810/683 612/825/683 633/816/683
f 632/810/684 633/816/684 624/809/684
f 624/809/685 633/816/685 607/805/685
f 630/807/686 611/840/686 631/845/686
f 630/807/687 631/845/687 622/806/687
f 622/806/688 631/845/688 606/846/688
f 628/804/689 610/819/689 629/814/689
f 628/804/690 629/814/690 618/803/690
f 618/803/691 629/814/691 605/789/691
f 626/801/692 614/831/692 627/818/692
f 626/801/693 627/818/693 619/791/693
f 619/791/694 627/818/694 609/811/694
f 620/800/695 609/811/695 625/812/695
f 620/800/696 625/812/696 623/799/696
f 623/799/697 625/812/697 608/808/697
f 623/797/698 608/808/698 624/809/698
f 623/797/699 624/809/699 621/796/699
f 621/796/700 624/809/700 607/805/700
f 621/794/701 607/805/701 622/806/701
f 621/794/702 622/806/702 616/793/702
f 616/793/703 622/806/703 606/846/703
f 619/791/704 609/811/704 620/847/704
f 619/791/705 620/847/705 617/790/705
f 617/790/706 620/847/706 604/848/706
f 616/788/707 606/802/707 618/803/707
f 616/788/708 618/803/708 617/787/708
f 617/787/709 618/803/709 605/789/709
