# Blender 5.1.1
# www.blender.org
o Куб.001
v 0.543561 1.136280 0.601718
v 0.532388 2.436040 0.473817
v 0.618465 1.218629 0.023339
v 0.618190 2.392489 -0.231020
v 0.004191 1.012756 -0.326008
v -0.000000 2.480862 -0.357245
v 0.713776 1.843902 0.089687
v 0.623898 1.130409 0.279010
v 0.608877 2.463549 0.118595
v 0.653511 1.756545 0.518511
v 0.000896 0.951767 0.670619
v -0.000000 2.544096 0.544675
v 0.723328 1.840919 0.184781
v 0.004022 0.901541 0.182328
v -0.000000 2.614716 0.130571
v 0.833355 0.318041 -0.407155
v 0.535555 2.303648 -0.532403
v 0.003778 1.102870 -0.584542
v 0.000000 2.280686 -0.622767
v 0.477879 1.342758 -0.635335
v 0.464716 2.097467 -0.748550
v 0.090363 0.761129 3.062251
v 0.002469 1.224628 -0.805553
v -0.000000 2.103516 -0.887623
v 0.568485 1.700008 -0.792608
v 0.000474 1.596866 -0.915303
v 0.084677 1.144233 3.179111
v 0.172094 1.553213 3.030801
v 0.458273 1.192686 0.999325
v 0.501417 2.381745 0.889730
v 0.175772 0.804958 2.864983
v 0.616582 1.704799 0.852124
v -0.001931 0.997270 1.115668
v 0.000033 2.487471 0.979386
v 0.059274 0.749163 3.293522
v 0.033850 0.898925 3.376475
v 0.047665 0.714975 3.178275
v 0.568727 2.544257 1.239717
v 0.545557 0.625186 0.915335
v -0.001365 0.945170 1.470922
v -0.002962 2.649897 1.345333
v 0.118300 1.353249 3.195104
v 0.136209 0.769415 2.976368
v 0.177045 1.757469 2.825744
v 0.581232 2.546145 1.435953
v 0.451319 0.590686 0.964577
v -0.000571 0.982314 1.618223
v -0.001379 2.654612 1.544466
v 0.190837 0.848381 2.752494
v 0.177045 1.892684 2.653554
v 0.177045 0.898946 2.614754
v 0.540804 2.482193 1.719300
v 0.675998 1.747752 1.716573
v 0.545047 0.950263 1.722744
v -0.000073 1.077323 1.779453
v -0.000031 2.587740 1.817999
v 0.181751 2.053108 2.404630
v 0.181751 1.081454 2.281947
v 0.456756 2.241859 2.016311
v 0.557318 1.553319 1.904955
v 0.455833 1.284570 1.890528
v -0.000056 1.162551 1.908063
v 0.000000 2.337241 2.104071
v 0.227455 2.303906 2.071407
v 0.228104 1.213642 1.895473
v 0.271032 2.555599 1.765667
v 0.353829 1.010584 1.639719
v 0.364925 1.997259 2.358699
v 0.445277 1.416847 2.303253
v 0.364925 1.136119 2.230410
v -0.000000 1.046479 2.290954
v -0.000000 2.082257 2.407504
v 0.288972 2.623584 1.479459
v 0.297983 1.011548 1.525463
v 0.282208 2.621760 1.276932
v 0.355746 1.845498 2.609030
v 0.433703 1.354220 2.579431
v 0.355746 0.951059 2.569725
v -0.000000 0.873196 2.599839
v -0.000000 1.920326 2.641574
v 0.295794 1.048555 1.408365
v 0.251255 2.457278 0.911339
v 0.321741 1.117290 1.160686
v 0.372539 1.578109 2.771519
v 0.455708 1.370263 2.724613
v 0.382651 0.902334 2.712285
v -0.000000 0.823699 2.732927
v -0.000000 1.787804 2.808035
v 0.251177 1.633403 -0.877511
v 0.203271 2.094703 -0.852289
v 0.336605 1.290918 -0.610043
v 0.241143 1.331231 3.140512
v 0.339854 1.099952 3.018615
v 0.276080 0.809625 2.941795
v 0.000000 0.762422 2.940403
v -0.000000 1.379359 3.168226
v 0.249335 2.254553 -0.666031
v 0.296691 1.184989 -0.359832
v 0.307069 2.558544 0.092852
v 0.069124 0.901725 3.354452
v 0.125993 0.768233 3.257516
v 0.103346 0.741134 3.177810
v 0.000000 0.703960 3.186100
v 0.064203 0.849544 3.354927
v 0.000000 0.739703 3.287996
v 0.465527 1.405446 2.815652
v -0.000000 0.789009 2.838766
v 0.353261 0.852376 2.826138
v 0.319281 1.030358 0.221540
v -0.000000 1.586363 3.009714
v 0.402860 1.536858 2.851468
v 0.267632 2.510732 0.480969
v -0.000000 1.146916 3.178495
v 0.274789 1.033366 0.599373
v 0.301219 2.452631 -0.400278
v 0.372660 1.136828 -0.069248
v 0.186642 0.794787 3.028766
v 0.000000 0.761095 3.020976
v 0.210413 0.934086 3.138077
v 0.175549 1.113022 3.153175
v 0.070240 0.738191 3.114995
v 0.067630 0.984282 3.287222
v 0.139993 0.757548 3.109315
v 0.161300 0.852064 3.197283
v 0.000000 0.993722 3.276754
v 0.000000 0.733120 3.099641
v 0.134901 0.976464 3.255443
v 0.618542 2.270971 0.989740
v 0.716044 1.684767 0.900720
v 0.657293 1.290584 1.023247
v 0.676777 2.425684 1.237466
v 0.805548 1.652458 1.325042
v 0.812760 1.105227 1.381414
v 0.639795 2.443634 1.420037
v 0.819322 1.692309 1.494739
v 0.821777 1.019397 1.539585
v 0.652336 2.301563 1.601712
v 0.771127 1.744799 1.684213
v 0.752130 0.983157 1.688271
v 0.435932 0.831666 0.989996
v 0.534900 0.891125 0.937935
v 0.748089 0.616860 1.393772
v 0.597360 0.571487 1.429472
v 0.798953 0.661860 1.282819
v 0.413470 0.685788 1.168729
v 0.792102 0.730995 1.170812
v 0.679328 0.910403 0.940724
v 0.416447 0.607006 1.289200
v 0.459087 0.583485 1.386508
v 0.758585 0.440778 1.237866
v 0.610390 0.420391 1.273368
v 0.534703 0.226029 0.629160
v 0.809545 0.478082 1.154335
v 0.428831 0.516140 1.076780
v 0.420023 0.203705 0.683384
v 0.798430 0.527219 1.065156
v 0.683176 0.624641 0.920083
v 0.429788 0.461193 1.178321
v 0.472873 0.433882 1.244643
v 0.443901 0.449929 0.820611
v 0.547855 0.477201 0.774490
v 0.784231 0.316625 1.063825
v 0.622901 0.306143 1.097426
v 0.803665 0.346083 0.988705
v 0.425586 0.386061 0.923855
v 0.793360 0.387514 0.909560
v 0.700742 0.473531 0.777364
v 0.428809 0.339630 1.016260
v 0.473167 0.316918 1.075895
v 0.826519 0.090623 0.962697
v 0.621507 0.091608 1.014031
v 0.656825 0.115911 0.891069
v 0.821346 0.111834 0.876045
v 0.400708 0.147718 0.802443
v 0.644455 0.148800 0.780530
v 0.810371 0.144333 0.780382
v 0.704114 0.220847 0.630022
v 0.407675 0.112400 0.912384
v 0.427369 0.095440 0.980960
v 0.430061 0.338079 0.751240
v 0.416756 0.232598 0.956065
v 0.410751 0.275703 0.859823
v 0.805562 0.275411 0.842830
v 0.815473 0.235451 0.926000
v 0.801079 0.253813 1.028659
v 0.627686 0.261387 1.061172
v 0.704881 0.360429 0.704210
v 0.541211 0.364703 0.702166
v 0.462637 0.255944 1.042043
v 0.625928 0.167041 1.163338
v 0.623824 0.057931 1.145788
v 0.798613 0.057346 1.096199
v 0.460226 0.061939 1.114688
v 0.794576 0.164229 1.118253
v 0.467450 0.164387 1.134745
v 0.759983 2.316859 -0.299471
v 0.793243 1.855644 0.003277
v 0.778247 1.245494 -0.054087
v 0.751670 2.201588 -0.516972
v 0.865657 1.769628 -0.474397
v 0.825491 1.286497 -0.310431
v 0.744131 2.041840 -0.689315
v 0.845851 1.727324 -0.692622
v 0.756801 1.350248 -0.577614
v 0.612219 0.092906 -0.409522
v 0.542296 1.018548 -0.682483
v 0.651667 1.025717 -0.056354
v 0.455471 1.010780 -0.121712
v 0.396561 1.005932 -0.388972
v 0.430259 1.013557 -0.636245
v 0.818663 1.022818 -0.379475
v 0.764774 1.020782 -0.639730
v 0.780099 1.026837 -0.133720
v 0.561511 0.801058 -0.653733
v 0.655637 0.616369 -0.112369
v 0.477196 0.630609 -0.179972
v 0.426393 0.719386 -0.409008
v 0.459184 0.787080 -0.615165
v 0.811374 0.718734 -0.387418
v 0.764190 0.791396 -0.614036
v 0.773556 0.640965 -0.175406
v 0.557958 0.118375 -0.647399
v 0.672770 0.092822 -0.187704
v 0.418129 0.079864 -0.244749
v 0.407965 0.089850 -0.440373
v 0.443911 0.113599 -0.615914
v 0.836611 0.091713 -0.423338
v 0.783434 0.112652 -0.613825
v 0.839645 0.086805 -0.242607
v 0.834339 0.302609 -0.233530
v 0.404731 0.316540 -0.425869
v 0.440698 0.342518 -0.599652
v 0.412869 0.297597 -0.237163
v 0.667345 0.299910 -0.181974
v 0.554769 0.348934 -0.630692
v 0.780231 0.342541 -0.596808
v 0.789845 0.200734 -0.116297
v 0.794823 0.091047 -0.103678
v 0.664154 0.095243 -0.049403
v 0.464985 0.082317 -0.104650
v 0.459962 0.189802 -0.116375
v 0.659239 0.207666 -0.063691
v 0.799096 0.537138 -0.394321
v 0.440053 0.536767 -0.410625
v 0.654885 0.497359 -0.174314
v 0.764533 0.505906 -0.224846
v 0.470948 0.573563 -0.576217
v 0.488239 0.499523 -0.228026
v 0.566637 0.581289 -0.606230
v 0.755463 0.573856 -0.574427
v -0.000000 1.964712 -0.963352
v -0.000000 1.715167 -1.003691
v 0.092566 1.731371 -0.965851
v 0.076591 1.955334 -0.937061
v 0.128197 1.717870 -0.913362
v 0.088882 2.048142 -0.898695
v -0.000000 1.692332 -0.956154
v -0.000000 2.059583 -0.930772
v 0.353936 1.715312 2.704131
v 0.462452 1.294885 2.679375
v 0.346085 1.514048 2.978523
v 0.469988 1.249334 2.878703
v 0.431634 1.613622 2.813875
v 0.509515 1.595779 2.829322
v 0.472450 1.619189 2.831273
v 0.537234 1.560470 2.816765
v 0.536419 1.477367 2.780169
v 0.550043 1.519483 2.800139
v 0.514399 1.554931 2.861994
v 0.455471 1.565730 2.865822
v 0.486059 1.570201 2.868449
v 0.527030 1.482141 2.835438
v 0.527210 1.540602 2.855648
v 0.537319 1.512285 2.844802
v 0.372831 1.546039 2.854316
v 0.460350 1.362836 2.801951
v 0.490673 1.593490 2.876114
v 0.529939 1.572132 2.867681
v 0.447174 1.587051 2.872805
v 0.548145 1.551524 2.859291
v 0.562047 1.512366 2.844905
v 0.548125 1.471594 2.832057
v 0.383871 1.522293 2.847503
v 0.450291 1.383963 2.807940
v 0.413090 1.522213 2.835907
v 0.458299 1.427533 2.810072
v 0.473111 1.546306 2.848166
v 0.493557 1.535327 2.843521
v 0.451044 1.543084 2.846266
v 0.502798 1.525017 2.838952
v 0.510091 1.504630 2.831141
v 0.502668 1.482955 2.824412
v 0.399391 1.511852 2.833080
v 0.447307 1.412019 2.804471
v 0.058900 0.913819 3.345309
v 0.055763 0.825713 3.347714
v 0.099802 0.918999 3.317621
v 0.095412 0.830553 3.320870
v 0.000000 0.825610 3.350763
v 0.000000 0.911108 3.348537
v 0.030579 0.846937 3.376284
v 0.000000 0.897189 3.375230
v 0.000000 0.846769 3.375654
v -0.540000 0.997752 0.620540
v -0.532479 2.426613 0.476809
v -0.601940 1.048953 -0.230591
v -0.619472 2.364003 -0.214465
v -0.708468 1.674395 0.018446
v -0.612989 0.938262 0.140042
v -0.609568 2.445858 0.127156
v -0.651282 1.653276 0.512675
v -0.718846 1.671955 0.125371
v -0.819492 0.381518 -1.035893
v -0.537649 2.263457 -0.502770
v -0.464311 1.355001 -0.808657
v -0.464300 2.100594 -0.750030
v -0.090362 0.761129 3.062251
v -0.561931 1.718732 -0.865222
v -0.084677 1.144233 3.179111
v -0.172094 1.553216 3.030801
v -0.460392 1.188849 1.214204
v -0.499990 2.377545 0.889561
v -0.175772 0.804958 2.864983
v -0.613699 1.675368 0.874662
v -0.059274 0.749163 3.293522
v -0.033850 0.898925 3.376475
v -0.047665 0.714975 3.178275
v -0.570340 2.528199 1.239684
v -0.538086 0.602444 1.456825
v -0.118300 1.353249 3.195104
v -0.136209 0.769415 2.976368
v -0.177045 1.757470 2.825744
v -0.583003 2.528340 1.435916
v -0.443269 0.599628 1.515687
v -0.190837 0.848381 2.752494
v -0.177045 1.892684 2.653554
v -0.177045 0.898946 2.614754
v -0.540207 2.469419 1.719261
v -0.662123 1.950556 1.766060
v -0.545807 1.184259 1.973721
v -0.181751 2.053108 2.404630
v -0.181751 1.081454 2.281948
v -0.452773 2.255643 2.007056
v -0.554797 1.648843 1.930247
v -0.456318 1.377845 1.941890
v -0.227127 2.303785 2.071405
v -0.228444 1.260920 1.925259
v -0.271600 2.554620 1.765669
v -0.354564 1.122623 1.765956
v -0.364925 1.997259 2.358699
v -0.445004 1.430980 2.304915
v -0.364925 1.136119 2.230410
v -0.293580 2.618873 1.479477
v -0.299346 1.112524 1.659075
v -0.287216 2.616455 1.276949
v -0.355746 1.845498 2.609030
v -0.433703 1.354221 2.579433
v -0.355746 0.951059 2.569729
v -0.300283 1.170831 1.623554
v -0.250990 2.456718 0.911335
v -0.325729 1.175005 1.385392
v -0.372539 1.578108 2.771519
v -0.455708 1.370270 2.724620
v -0.382651 0.902336 2.712289
v -0.249005 1.643619 -0.899675
v -0.203268 2.098241 -0.851550
v -0.324397 1.294822 -0.769646
v -0.241143 1.331237 3.140515
v -0.339854 1.099952 3.018615
v -0.276080 0.809625 2.941795
v -0.249692 2.252869 -0.660596
v -0.282345 1.129753 -0.543110
v -0.307155 2.556901 0.093936
v -0.069124 0.901725 3.354452
v -0.125993 0.768233 3.257516
v -0.103346 0.741134 3.177810
v -0.064203 0.849544 3.354927
v -0.465527 1.405464 2.815662
v -0.353261 0.852376 2.826138
v -0.307865 0.903233 0.112357
v -0.402860 1.536895 2.851474
v -0.267639 2.510685 0.480969
v -0.272404 0.951735 0.621030
v -0.301735 2.446751 -0.393364
v -0.356685 1.007676 -0.299968
v -0.186642 0.794787 3.028766
v -0.210413 0.934086 3.138077
v -0.175549 1.113022 3.153175
v -0.070240 0.738191 3.114995
v -0.067630 0.984282 3.287222
v -0.139993 0.757548 3.109315
v -0.161300 0.852064 3.197283
v -0.134901 0.976464 3.255443
v -0.611383 2.257725 0.987840
v -0.712983 1.673856 0.936946
v -0.658180 1.289245 1.234715
v -0.671534 2.407258 1.231045
v -0.792947 1.758265 1.424984
v -0.812692 1.251413 1.669900
v -0.636547 2.424589 1.417945
v -0.805196 1.852415 1.577725
v -0.822250 1.237833 1.849319
v -0.640538 2.299646 1.588436
v -0.755772 1.947340 1.737720
v -0.753330 1.248167 1.980200
v -0.430320 0.840464 1.421332
v -0.529504 0.872484 1.349197
v -0.741227 0.818403 1.882364
v -0.590184 0.792336 1.926358
v -0.791812 0.810255 1.762722
v -0.406279 0.787001 1.648543
v -0.785004 0.824376 1.632351
v -0.673025 0.890068 1.346061
v -0.408718 0.765757 1.780765
v -0.451964 0.777853 1.863689
v -0.748231 0.612492 1.828948
v -0.599577 0.610759 1.872699
v -0.531410 0.160540 1.417271
v -0.799799 0.602178 1.739058
v -0.419712 0.594790 1.649972
v -0.415553 0.156834 1.473281
v -0.789491 0.597959 1.637801
v -0.675705 0.604220 1.462466
v -0.419800 0.599617 1.765603
v -0.462387 0.608801 1.837930
v -0.437059 0.406457 1.479101
v -0.541583 0.404939 1.425183
v -0.773885 0.412561 1.767001
v -0.611548 0.412052 1.808587
v -0.794568 0.403482 1.683128
v -0.417353 0.404523 1.601623
v -0.785372 0.398510 1.589302
v -0.694400 0.402575 1.430109
v -0.419174 0.409459 1.707656
v -0.462540 0.416274 1.774169
v -0.814539 0.108763 1.768029
v -0.607394 0.096657 1.803454
v -0.647294 0.123796 1.684115
v -0.812268 0.124736 1.683121
v -0.393644 0.142879 1.600742
v -0.637910 0.139912 1.584412
v -0.803738 0.135916 1.589957
v -0.700767 0.156984 1.423239
v -0.397668 0.129294 1.707735
v -0.415055 0.115790 1.774276
v -0.423833 0.283748 1.481016
v -0.406870 0.277612 1.717486
v -0.402789 0.278743 1.607530
v -0.797825 0.271310 1.595903
v -0.806245 0.272176 1.692644
v -0.790057 0.328993 1.780983
v -0.613839 0.313182 1.831267
v -0.699250 0.279685 1.431271
v -0.535662 0.282825 1.425700
v -0.451357 0.333737 1.787666
v -0.606304 0.181627 1.954518
v -0.604805 0.061342 1.934776
v -0.781758 0.074024 1.897649
v -0.442927 0.078433 1.904134
v -0.777295 0.195933 1.915769
v -0.450081 0.202388 1.921469
v -0.762347 2.219648 -0.269095
v -0.786917 1.680771 -0.080553
v -0.762153 1.094162 -0.298310
v -0.752301 2.144137 -0.506343
v -0.858140 1.710554 -0.566061
v -0.810006 1.207952 -0.531822
v -0.742145 2.029378 -0.707681
v -0.837840 1.723861 -0.784635
v -0.742127 1.347000 -0.767596
v -0.602042 0.195702 -1.170103
v -0.522313 1.069812 -0.953169
v -0.632706 0.873219 -0.366148
v -0.436045 0.880246 -0.429224
v -0.376696 0.962195 -0.680519
v -0.410198 1.050975 -0.910167
v -0.799510 0.974229 -0.672837
v -0.745055 1.055642 -0.915183
v -0.761149 0.898481 -0.439755
v -0.538459 0.881204 -0.982863
v -0.638797 0.467333 -0.617775
v -0.459660 0.512078 -0.667218
v -0.405717 0.707184 -0.810620
v -0.436318 0.853913 -0.953949
v -0.790884 0.700926 -0.793001
v -0.741354 0.858396 -0.952009
v -0.755843 0.523256 -0.657105
v -0.545306 0.356378 -1.344408
v -0.664504 0.055989 -0.998568
v -0.409626 0.078932 -1.048746
v -0.397604 0.207014 -1.195632
v -0.431630 0.331314 -1.322400
v -0.826294 0.205984 -1.179576
v -0.771129 0.335651 -1.320283
v -0.830975 0.090461 -1.041810
v -0.822239 0.267310 -0.901240
v -0.390803 0.382840 -1.052568
v -0.424826 0.504234 -1.180858
v -0.400890 0.256888 -0.907985
v -0.655766 0.231403 -0.861006
v -0.538502 0.529230 -1.202785
v -0.764326 0.508755 -1.178247
v -0.780420 0.100098 -0.871844
v -0.787294 0.004624 -0.932699
v -0.657048 -0.030071 -0.890192
v -0.457647 -0.007172 -0.939577
v -0.450772 0.087080 -0.878809
v -0.650176 0.067984 -0.828309
v -0.781785 0.555552 -0.903462
v -0.422561 0.557595 -0.916837
v -0.639993 0.395405 -0.741502
v -0.749141 0.433043 -0.779541
v -0.451086 0.677656 -1.030453
v -0.472911 0.424131 -0.785282
v -0.546345 0.701236 -1.050695
v -0.735574 0.681483 -1.028454
v -0.092420 1.732957 -0.967544
v -0.076591 1.955334 -0.937061
v -0.127613 1.722611 -0.919092
v -0.088882 2.048142 -0.898695
v -0.353936 1.715312 2.704131
v -0.462452 1.294889 2.679381
v -0.346085 1.514057 2.978525
v -0.469988 1.249340 2.878708
v -0.431634 1.613672 2.813875
v -0.509515 1.595865 2.829325
v -0.472450 1.619271 2.831271
v -0.537234 1.560563 2.816777
v -0.536419 1.477419 2.780190
v -0.550043 1.519553 2.800156
v -0.514399 1.555003 2.862003
v -0.455471 1.565797 2.865829
v -0.486059 1.570273 2.868456
v -0.527030 1.482198 2.835457
v -0.527210 1.540673 2.855660
v -0.537319 1.512353 2.844818
v -0.372831 1.546052 2.854318
v -0.460350 1.362846 2.801958
v -0.490673 1.593570 2.876117
v -0.529939 1.572214 2.867688
v -0.447174 1.587117 2.872808
v -0.548145 1.551605 2.859302
v -0.562047 1.512438 2.844922
v -0.548125 1.471653 2.832078
v -0.383871 1.522332 2.847511
v -0.450291 1.383974 2.807947
v -0.413090 1.522256 2.835917
v -0.458299 1.427549 2.810080
v -0.473111 1.546368 2.848175
v -0.493557 1.535379 2.843531
v -0.451044 1.543150 2.846276
v -0.502798 1.525075 2.838964
v -0.510091 1.504693 2.831158
v -0.502668 1.483005 2.824428
v -0.399391 1.511889 2.833089
v -0.447307 1.412033 2.804478
v -0.058900 0.913819 3.345309
v -0.055763 0.825713 3.347714
v -0.099802 0.918999 3.317621
v -0.095412 0.830553 3.320870
v -0.030579 0.846937 3.376284
v 0.291561 1.127971 3.053093
v 0.306648 1.195268 3.071783
v 0.269728 1.123865 3.094819
v 0.232186 1.083892 3.090668
v 0.245906 1.130591 3.065067
v 0.291926 1.199425 3.053395
v 0.256597 1.192780 3.120911
v 0.210577 1.123946 3.132582
v 0.195855 1.128103 3.114194
v 0.232775 1.199506 3.091159
v 0.270316 1.239479 3.095309
v 0.210942 1.195400 3.132885
v 0.285805 1.119638 3.070614
v 0.307506 1.161608 3.057074
v 0.294673 1.159194 3.081600
v 0.307720 1.203607 3.057252
v 0.298852 1.164051 3.046266
v 0.263739 1.096143 3.068175
v 0.250905 1.093729 3.092701
v 0.271803 1.123592 3.053127
v 0.236903 1.097682 3.075213
v 0.272017 1.165591 3.053304
v 0.295019 1.227151 3.081889
v 0.286365 1.229594 3.071080
v 0.265254 1.157732 3.110477
v 0.286955 1.199702 3.096937
v 0.216138 1.093777 3.114897
v 0.238204 1.117272 3.117337
v 0.215548 1.123669 3.089041
v 0.207484 1.096220 3.104089
v 0.264299 1.206099 3.068641
v 0.237249 1.165639 3.075501
v 0.265600 1.225689 3.110765
v 0.230486 1.157780 3.132674
v 0.194783 1.119764 3.128726
v 0.207830 1.164176 3.104378
v 0.251598 1.229642 3.093277
v 0.230700 1.199779 3.132851
v 0.238764 1.227228 3.117803
v 0.203650 1.159320 3.139711
v 0.194997 1.161763 3.128903
v 0.216698 1.203732 3.115364
v -0.291561 1.127971 3.053093
v -0.306648 1.195268 3.071784
v -0.269728 1.123865 3.094820
v -0.232186 1.083892 3.090669
v -0.245906 1.130590 3.065067
v -0.291925 1.199425 3.053396
v -0.256597 1.192780 3.120911
v -0.210577 1.123946 3.132583
v -0.195854 1.128103 3.114195
v -0.232775 1.199506 3.091159
v -0.270316 1.239479 3.095309
v -0.210942 1.195400 3.132885
v -0.285805 1.119638 3.070615
v -0.307506 1.161608 3.057075
v -0.294673 1.159194 3.081601
v -0.307720 1.203607 3.057253
v -0.298852 1.164051 3.046267
v -0.263739 1.096143 3.068175
v -0.250905 1.093729 3.092701
v -0.271803 1.123592 3.053127
v -0.236903 1.097682 3.075213
v -0.272017 1.165591 3.053305
v -0.295019 1.227151 3.081889
v -0.286365 1.229594 3.071081
v -0.265254 1.157732 3.110477
v -0.286955 1.199702 3.096937
v -0.216137 1.093777 3.114897
v -0.238204 1.117272 3.117337
v -0.215548 1.123669 3.089041
v -0.207484 1.096220 3.104089
v -0.264299 1.206098 3.068641
v -0.237249 1.165638 3.075501
v -0.265599 1.225689 3.110765
v -0.230486 1.157780 3.132674
v -0.194782 1.119764 3.128726
v -0.207830 1.164176 3.104378
v -0.251597 1.229642 3.093277
v -0.230700 1.199779 3.132852
v -0.238764 1.227228 3.117803
v -0.203650 1.159320 3.139712
v -0.194997 1.161763 3.128904
v -0.216698 1.203732 3.115364
vn -0.8279 -0.5381 0.1584
vn 0.2584 0.8359 -0.4842
vn 0.9861 -0.1454 -0.0799
vn 0.9854 0.1680 -0.0263
vn 0.9531 0.1923 0.2336
vn 0.9703 -0.1251 0.2070
vn 0.9670 -0.1959 0.1629
vn 0.4461 -0.8828 0.1470
vn 0.3696 -0.8851 -0.2829
vn 0.3264 -0.9426 0.0701
vn 0.1026 0.9661 -0.2368
vn 0.1783 0.9721 0.1523
vn 0.2345 0.6842 -0.6905
vn 0.2735 -0.3925 -0.8781
vn 0.4637 -0.8418 -0.2765
vn 0.5923 0.4766 0.6496
vn 0.2934 0.1282 -0.9473
vn 0.2383 -0.5052 -0.8294
vn 0.2788 0.1436 -0.9495
vn 0.4374 -0.8232 -0.3619
vn 0.7992 0.6007 0.0202
vn 0.9976 -0.0160 -0.0678
vn 0.1524 0.9800 0.1276
vn 0.9788 0.1711 0.1129
vn 0.3045 -0.3380 -0.8905
vn 0.0981 0.9950 -0.0182
vn -0.0045 0.9130 -0.4078
vn -0.6893 0.0613 -0.7219
vn 0.6286 0.1816 -0.7562
vn 0.1572 0.9590 0.2357
vn -0.9665 -0.2384 -0.0952
vn 0.9304 0.1342 -0.3410
vn -0.0148 0.8008 -0.5988
vn 0.8164 -0.1822 0.5481
vn -0.1243 -0.6444 0.7545
vn 0.3221 -0.9407 0.1069
vn 0.4186 -0.8830 -0.2125
vn 0.3390 -0.9377 0.0763
vn 0.2774 -0.5839 0.7630
vn 0.7284 0.5300 -0.4343
vn 0.2959 0.9351 -0.1951
vn 0.9350 -0.3300 0.1297
vn 0.2386 -0.9202 -0.3104
vn 0.2799 0.9498 0.1399
vn 0.2064 0.7385 0.6419
vn 0.0510 0.7976 -0.6011
vn 0.8790 0.1084 0.4642
vn 0.4750 -0.2822 0.8335
vn 0.8281 0.1255 -0.5463
vn 0.3995 -0.3892 -0.8300
vn 0.9858 0.1381 0.0951
vn 0.9741 0.0506 -0.2205
vn 0.1708 0.7655 0.6204
vn 0.3292 -0.9284 -0.1722
vn 0.9464 0.0943 0.3090
vn 0.2845 0.9489 0.1367
vn 0.2558 0.9665 -0.0214
vn 0.9788 0.1969 0.0561
vn 0.2037 0.8796 -0.4299
vn 0.0762 0.7822 0.6184
vn 0.1306 -0.8710 -0.4736
vn 0.9742 -0.2188 -0.0552
vn 0.2876 0.9261 0.2440
vn 0.1167 0.8256 0.5521
vn -0.0025 0.6217 0.7833
vn 0.2168 -0.9762 -0.0019
vn 0.8387 -0.3052 0.4510
vn 0.2122 -0.9523 -0.2193
vn 0.1424 -0.7689 0.6233
vn 0.1820 -0.9183 -0.3517
vn 0.9338 -0.1939 -0.3007
vn 0.0567 -0.9483 0.3121
vn 0.8717 -0.4759 0.1167
vn 0.3324 -0.9339 -0.1315
vn 0.1818 -0.9390 -0.2921
vn 0.3198 0.6997 0.6389
vn 0.3523 0.7191 0.5990
vn 0.7598 0.0513 0.6481
vn 0.4528 0.6312 0.6298
vn 0.1542 -0.8646 -0.4782
vn 0.1859 -0.9381 0.2922
vn 0.8837 -0.0320 0.4669
vn 0.3507 0.7896 0.5035
vn 0.3827 0.5023 0.7754
vn 0.1217 -0.9587 -0.2570
vn 0.4144 0.5440 0.7297
vn 0.1593 -0.9234 -0.3493
vn 0.5346 -0.0397 0.8442
vn 0.1479 -0.9403 -0.3066
vn 0.3937 -0.8945 0.2120
vn -0.3037 -0.4335 0.8484
vn -0.0092 0.6472 0.7623
vn 0.1791 -0.9214 -0.3450
vn 0.9704 -0.2414 -0.0059
vn 0.0310 -0.5835 0.8115
vn 0.0501 0.7068 0.7056
vn 0.6301 -0.0535 0.7746
vn 0.1441 -0.9348 -0.3245
vn -0.1346 -0.0026 0.9909
vn 0.4467 0.6772 0.5847
vn 0.3328 -0.0846 0.9392
vn 0.0463 -0.9979 -0.0449
vn 0.3308 -0.9342 0.1339
vn 0.7809 -0.3754 0.4993
vn 0.4028 0.4762 0.7816
vn 0.1485 -0.9296 -0.3374
vn 0.8472 0.0432 0.5295
vn -0.0169 0.5508 0.8344
vn 0.2233 -0.9255 -0.3059
vn 0.8796 -0.3942 0.2663
vn 0.9388 -0.1132 -0.3254
vn 0.9790 0.2013 0.0315
vn 0.9577 0.1597 -0.2396
vn 0.9600 0.2369 0.1494
vn 0.9976 0.0022 -0.0690
vn 0.9443 0.0003 0.3291
vn 0.6762 0.1772 0.7151
vn 0.8781 0.4158 0.2369
vn -0.3998 -0.5667 0.7204
vn 0.2173 -0.0145 0.9760
vn 0.0214 0.0787 -0.9967
vn 0.8981 -0.2390 0.3691
vn -0.9850 -0.0249 -0.1710
vn -0.9969 -0.0736 -0.0266
vn 0.9963 0.0718 -0.0468
vn 0.3084 -0.6448 0.6994
vn 0.9006 -0.2841 0.3291
vn -0.8381 -0.4260 0.3408
vn 0.0054 0.2073 -0.9783
vn -0.9550 -0.2070 -0.2126
vn 0.9125 -0.2994 0.2789
vn -0.9852 0.1428 -0.0949
vn -0.9998 -0.0062 0.0183
vn 0.9937 0.0669 -0.0905
vn 0.2060 -0.7982 0.5661
vn 0.8396 0.4061 -0.3608
vn -0.8654 -0.3692 0.3387
vn -0.2405 -0.6939 0.6787
vn -0.4855 0.0577 -0.8724
vn 0.8874 0.1324 -0.4417
vn 0.0210 0.4671 -0.8840
vn 0.9948 0.0885 0.0498
vn -0.9869 0.1246 -0.1027
vn -0.9958 0.0444 0.0795
vn 0.9933 0.0788 -0.0841
vn 0.9827 0.0491 0.1786
vn 0.0290 0.6887 -0.7244
vn -0.7945 -0.4918 0.3562
vn -0.1648 -0.8219 0.5452
vn -0.4890 0.6169 -0.6167
vn -0.0331 -0.9009 -0.4327
vn -0.0527 -0.9743 -0.2191
vn -0.0169 -0.9556 -0.2941
vn -0.0249 -0.8978 -0.4397
vn 0.0049 -0.9776 -0.2102
vn -0.0383 -0.9538 -0.2981
vn -0.9206 -0.0003 0.3906
vn -0.9729 0.0916 0.2125
vn -0.4509 0.4306 -0.7818
vn 0.8479 0.2489 -0.4680
vn 0.8552 0.3169 -0.4103
vn -0.4519 0.5055 -0.7350
vn -0.1165 -0.5445 0.8307
vn -0.8361 -0.1781 0.5189
vn 0.1697 -0.5212 0.8364
vn 0.9890 0.1380 -0.0540
vn -0.9936 0.0748 0.0841
vn -0.9826 0.1706 -0.0729
vn 0.9803 0.0548 0.1899
vn 0.0266 0.5415 -0.8403
vn 0.2602 -0.1719 0.9501
vn -0.1804 -0.1644 0.9697
vn 0.1769 0.7065 0.6853
vn -0.0706 -0.9655 -0.2505
vn -0.1192 0.7175 0.6863
vn 0.0233 -0.9684 -0.2481
vn 0.9834 0.1773 0.0393
vn 0.9614 -0.2042 -0.1843
vn 0.9861 -0.0339 0.1628
vn 0.9437 0.2621 -0.2017
vn 0.5745 -0.1322 0.8078
vn 0.3608 0.8447 -0.3955
vn 0.9846 -0.0606 0.1638
vn 0.3128 0.6591 -0.6839
vn -0.9750 -0.0988 0.1988
vn -0.3532 -0.1421 -0.9247
vn -0.3307 -0.1457 0.9324
vn 0.9867 -0.0313 0.1596
vn 0.1898 0.1823 -0.9648
vn -0.2805 0.0432 -0.9589
vn -0.9080 -0.3588 -0.2163
vn -0.2154 -0.4396 0.8720
vn -0.2668 0.0653 -0.9616
vn -0.9438 -0.0256 0.3295
vn 0.9997 0.0199 -0.0102
vn -0.9795 -0.0002 -0.2017
vn 0.5007 -0.1072 0.8589
vn 0.1873 -0.1111 -0.9760
vn 0.9783 -0.0213 -0.2062
vn -0.9803 -0.1126 -0.1624
vn -0.0200 -0.9998 -0.0092
vn 0.0408 -0.9987 -0.0310
vn 0.0242 -0.9926 -0.1192
vn -0.0107 -0.9944 -0.1051
vn -0.9987 -0.0214 0.0459
vn 0.9397 0.0334 0.3404
vn 0.1495 0.0743 -0.9860
vn 0.9635 0.0330 -0.2655
vn 0.9629 0.1440 -0.2281
vn 0.1591 0.1036 -0.9818
vn 0.3449 0.0325 0.9381
vn -0.9538 0.2397 0.1810
vn -0.9743 0.1556 -0.1632
vn 0.9647 0.2313 0.1259
vn -0.2504 -0.0013 0.9682
vn -0.2850 0.1241 -0.9505
vn -0.2674 0.1013 0.9583
vn 0.3802 0.1279 0.9160
vn -0.1869 0.7382 0.6482
vn 0.0545 -0.9985 0.0100
vn 0.2374 0.7229 0.6489
vn -0.0274 -0.9994 0.0187
vn -0.3014 -0.1979 -0.9328
vn -0.3216 -0.3923 0.8618
vn 0.9827 -0.0945 0.1595
vn -0.9784 -0.0807 -0.1903
vn -0.9736 -0.1085 0.2009
vn 0.4573 -0.3718 0.8079
vn 0.1680 -0.1939 -0.9665
vn 0.9694 -0.0703 -0.2354
vn 0.3455 0.1470 -0.9269
vn 0.3147 -0.8507 -0.4211
vn 0.3507 0.3110 -0.8834
vn 0.2257 0.5262 -0.8199
vn 0.2391 -0.2373 -0.9415
vn 0.3383 0.0845 -0.9372
vn 0.9567 0.2855 0.0560
vn 0.9340 0.2897 0.2090
vn 0.9963 0.0817 -0.0282
vn 0.8968 0.3191 0.3065
vn -0.5828 0.7258 0.3654
vn 0.7653 0.6426 -0.0375
vn 0.8079 -0.5671 -0.1601
vn 0.5150 0.8207 0.2475
vn -0.2409 0.8330 0.4980
vn 0.9128 0.3706 -0.1714
vn 0.9426 -0.2106 -0.2593
vn 0.2557 0.3741 -0.8915
vn -0.0606 -0.2989 0.9524
vn 0.0309 -0.3269 0.9446
vn -0.0298 -0.3141 0.9489
vn 0.0070 -0.3481 0.9374
vn -0.0000 -0.2989 0.9543
vn 0.0384 -0.3592 0.9325
vn -0.0448 -0.3571 0.9330
vn 0.0452 -0.2933 0.9549
vn -0.0021 -0.3110 0.9504
vn 0.0080 -0.2724 0.9622
vn 0.1645 -0.6625 0.7307
vn -0.0307 -0.2830 0.9586
vn 0.2958 -0.5922 0.7495
vn -0.4093 0.0936 0.9076
vn -0.4125 -0.1387 0.9004
vn -0.1405 -0.5956 0.7909
vn 0.7283 0.1588 0.6666
vn -0.2072 -0.5453 0.8122
vn -0.5088 0.0515 0.8593
vn 0.0312 -0.6567 0.7535
vn 0.3193 0.7283 0.6063
vn 0.5296 -0.4120 0.7415
vn 0.5248 -0.4712 0.7089
vn -0.0292 0.0032 0.9996
vn 0.0200 -0.7789 0.6269
vn -0.0339 0.9004 0.4337
vn 0.7525 -0.0324 0.6578
vn 0.8548 -0.5188 0.0171
vn -0.3726 0.7798 -0.5031
vn -0.9870 -0.1408 -0.0776
vn -0.9912 0.1305 -0.0241
vn -0.9691 0.1472 0.1978
vn -0.9766 -0.1381 0.1647
vn -0.9739 -0.1645 0.1561
vn -0.2595 -0.9223 0.2864
vn -0.1765 -0.9513 -0.2529
vn -0.1334 -0.9835 0.1220
vn -0.1166 0.9633 -0.2417
vn -0.1806 0.9720 0.1507
vn -0.2717 0.7425 -0.6122
vn -0.2114 -0.1511 -0.9657
vn -0.0723 -0.9147 -0.3975
vn -0.6625 0.2971 0.6876
vn -0.1966 0.2202 -0.9554
vn -0.0664 -0.2547 -0.9647
vn -0.2417 0.3237 -0.9148
vn -0.1971 -0.8340 -0.5154
vn -0.8246 0.5652 0.0223
vn -0.9966 -0.0594 -0.0580
vn -0.1538 0.9798 0.1282
vn -0.9832 0.1563 0.0944
vn -0.3940 -0.6021 -0.6944
vn -0.1148 0.9932 -0.0190
vn -0.0069 0.9150 -0.4033
vn 0.6414 -0.3504 -0.6825
vn -0.6518 0.1472 -0.7440
vn -0.1653 0.9587 0.2315
vn 0.9425 -0.3052 -0.1363
vn -0.9349 -0.0460 -0.3519
vn -0.0104 0.8034 -0.5953
vn -0.5304 0.0688 0.8449
vn 0.2449 -0.4822 0.8411
vn -0.2099 -0.9565 0.2028
vn 0.0199 -0.9732 -0.2290
vn -0.0231 -0.9948 0.0993
vn -0.1439 -0.1667 0.9754
vn -0.7518 0.5068 -0.4218
vn -0.3561 0.9108 -0.2090
vn -0.9486 -0.3076 0.0746
vn -0.3046 -0.8261 -0.4741
vn -0.3162 0.9392 0.1335
vn -0.2079 0.7386 0.6413
vn -0.0565 0.8044 -0.5913
vn -0.8332 0.1516 0.5319
vn -0.4762 -0.5009 0.7228
vn -0.8105 0.1337 -0.5703
vn -0.1450 -0.2989 -0.9432
vn -0.9853 0.1394 0.0991
vn -0.9740 0.0981 -0.2040
vn -0.1711 0.7655 0.6202
vn -0.5680 -0.8213 -0.0530
vn -0.9387 0.1093 0.3271
vn -0.3062 0.9426 0.1330
vn -0.2954 0.9552 -0.0202
vn -0.9788 0.1969 0.0561
vn -0.2307 0.8797 -0.4158
vn -0.0762 0.7822 0.6184
vn -0.1306 -0.8710 -0.4736
vn -0.9751 -0.2137 -0.0586
vn -0.3262 0.9156 0.2351
vn -0.1167 0.8256 0.5521
vn 0.0025 0.6217 0.7833
vn -0.5313 -0.8421 -0.0925
vn -0.8387 -0.3052 0.4510
vn -0.2122 -0.9523 -0.2193
vn -0.1778 -0.7381 0.6509
vn -0.1820 -0.9183 -0.3517
vn -0.9338 -0.1939 -0.3007
vn -0.2342 -0.9204 0.3130
vn -0.8717 -0.4759 0.1167
vn -0.3324 -0.9339 -0.1315
vn -0.2971 -0.8930 -0.3381
vn -0.3308 0.7060 0.6262
vn -0.3455 0.7197 0.6022
vn -0.7598 0.0513 0.6481
vn -0.4528 0.6312 0.6298
vn -0.1542 -0.8646 -0.4782
vn -0.1859 -0.9381 0.2922
vn -0.8837 -0.0320 0.4669
vn -0.3507 0.7896 0.5035
vn -0.3827 0.5023 0.7754
vn -0.1217 -0.9587 -0.2570
vn -0.4144 0.5440 0.7297
vn -0.1593 -0.9234 -0.3493
vn -0.5346 -0.0397 0.8442
vn -0.1479 -0.9403 -0.3066
vn -0.3937 -0.8945 0.2120
vn 0.3036 -0.4334 0.8485
vn 0.0092 0.6472 0.7623
vn -0.1791 -0.9214 -0.3450
vn -0.9704 -0.2414 -0.0059
vn -0.0310 -0.5835 0.8115
vn -0.0501 0.7068 0.7056
vn -0.6301 -0.0535 0.7746
vn -0.1441 -0.9348 -0.3245
vn 0.1346 -0.0026 0.9909
vn -0.4467 0.6772 0.5847
vn -0.3328 -0.0846 0.9392
vn -0.0463 -0.9979 -0.0449
vn -0.3308 -0.9342 0.1339
vn -0.7809 -0.3754 0.4993
vn -0.4028 0.4762 0.7816
vn -0.1485 -0.9296 -0.3374
vn -0.8472 0.0432 0.5295
vn 0.0169 0.5508 0.8344
vn -0.2233 -0.9255 -0.3059
vn -0.8796 -0.3942 0.2663
vn -0.9556 -0.1798 -0.2336
vn -0.9735 0.2284 -0.0098
vn -0.9617 0.1471 -0.2313
vn -0.9278 0.3378 0.1582
vn -0.9978 0.0023 -0.0661
vn -0.9338 0.1393 0.3295
vn -0.7575 0.3326 0.5617
vn -0.8963 0.3790 0.2302
vn 0.6238 -0.0668 0.7787
vn -0.0104 0.2928 0.9561
vn -0.0339 -0.3730 -0.9272
vn -0.8960 -0.0497 0.4412
vn 0.9852 -0.0920 -0.1446
vn 0.9976 -0.0685 0.0056
vn -0.9969 0.0317 -0.0723
vn -0.2933 -0.2431 0.9246
vn -0.8900 -0.1377 0.4347
vn 0.8764 -0.1136 0.4679
vn -0.1534 -0.3055 -0.9397
vn 0.9474 -0.2893 -0.1366
vn -0.9185 -0.0681 0.3895
vn 0.9847 0.0584 -0.1643
vn 0.9999 0.0055 0.0084
vn -0.9950 0.0028 -0.0996
vn -0.2566 -0.2693 0.9282
vn -0.8470 0.1345 -0.5143
vn 0.8625 -0.1155 0.4927
vn 0.3128 -0.2266 0.9224
vn 0.4838 -0.3393 -0.8067
vn -0.8884 -0.0944 -0.4492
vn -0.0359 0.0666 -0.9971
vn -0.9950 0.0788 0.0613
vn 0.9842 0.0742 -0.1609
vn 0.9972 0.0620 0.0415
vn -0.9952 0.0467 -0.0863
vn -0.9760 0.0636 0.2085
vn -0.0362 0.1602 -0.9864
vn 0.8293 -0.1684 0.5328
vn 0.2258 -0.3090 0.9239
vn 0.4873 0.1535 -0.8596
vn 0.0202 -0.9936 -0.1108
vn -0.0144 -0.9789 -0.2040
vn 0.0283 -0.9897 -0.1404
vn 0.0185 -0.9935 -0.1125
vn 0.0515 -0.9743 -0.2193
vn 0.0072 -0.9902 -0.1395
vn 0.9176 0.0895 0.3873
vn 0.9796 0.1093 0.1688
vn 0.4386 0.0801 -0.8951
vn -0.8552 0.0525 -0.5155
vn -0.8629 0.0441 -0.5034
vn 0.4503 0.0264 -0.8925
vn 0.2229 0.2011 0.9539
vn 0.8615 0.1473 0.4859
vn -0.2461 0.2148 0.9451
vn -0.9918 0.0867 -0.0943
vn 0.9941 0.1052 0.0253
vn 0.9819 0.1048 -0.1577
vn -0.9775 0.1436 0.1544
vn -0.0330 -0.0070 -0.9994
vn -0.2217 -0.1480 0.9638
vn 0.2103 -0.1394 0.9676
vn -0.1237 0.6879 0.7152
vn -0.0137 -0.9662 -0.2575
vn 0.0806 0.6982 0.7113
vn 0.0541 -0.9633 -0.2628
vn -0.9870 0.1422 0.0745
vn -0.9551 -0.1704 -0.2425
vn -0.9853 -0.0904 0.1451
vn -0.9489 0.2842 -0.1375
vn -0.5864 -0.3456 0.7325
vn -0.5178 0.7798 -0.3518
vn -0.9841 -0.1152 0.1350
vn -0.3404 0.7699 -0.5398
vn 0.9721 -0.1746 0.1565
vn 0.3420 0.1396 -0.9293
vn 0.3101 -0.5167 0.7980
vn -0.9868 -0.0909 0.1339
vn -0.1584 0.4595 -0.8739
vn 0.3878 0.3533 -0.8514
vn 0.9347 -0.2215 -0.2780
vn 0.1610 -0.6818 0.7136
vn 0.2773 0.6022 -0.7487
vn 0.9430 -0.2313 0.2394
vn -0.9992 0.0393 0.0059
vn 0.9810 0.0982 -0.1672
vn -0.4917 -0.4479 0.7468
vn -0.1719 0.1727 -0.9699
vn -0.9736 0.0489 -0.2231
vn 0.9796 -0.0440 -0.1962
vn -0.0024 -0.7710 -0.6368
vn -0.0505 -0.7585 -0.6497
vn -0.0389 -0.7242 -0.6885
vn -0.0051 -0.7344 -0.6787
vn 0.9979 -0.0615 0.0221
vn -0.9436 -0.1602 0.2898
vn -0.1398 0.6311 -0.7630
vn -0.9607 0.1975 -0.1952
vn -0.9568 0.2703 -0.1068
vn -0.1470 0.6567 -0.7397
vn -0.3564 -0.4872 0.7973
vn 0.9563 0.0772 0.2819
vn 0.9778 0.2037 -0.0495
vn -0.9620 0.1368 0.2365
vn 0.2426 -0.5454 0.8023
vn 0.2925 0.6462 -0.7049
vn 0.2580 -0.5326 0.8061
vn -0.3834 -0.4751 0.7920
vn 0.1928 0.1543 0.9690
vn -0.0588 -0.7774 -0.6262
vn -0.2376 0.1463 0.9603
vn -0.0040 -0.7850 -0.6195
vn 0.3089 0.3402 -0.8882
vn 0.3080 -0.8020 0.5119
vn -0.9852 -0.1493 0.0842
vn 0.9786 0.0198 -0.2046
vn 0.9697 -0.2209 0.1038
vn -0.4703 -0.7418 0.4781
vn -0.1640 0.3706 -0.9142
vn -0.9677 0.0915 -0.2349
vn -0.3360 0.1508 -0.9297
vn -0.3234 -0.8514 -0.4129
vn -0.3507 0.3110 -0.8834
vn -0.2220 0.5212 -0.8240
vn -0.1771 -0.2094 -0.9616
vn -0.2829 0.1143 -0.9523
vn -0.9567 0.2855 0.0560
vn -0.9340 0.2897 0.2090
vn -0.9963 0.0817 -0.0282
vn -0.8968 0.3191 0.3065
vn 0.5832 0.7256 0.3652
vn -0.7653 0.6426 -0.0374
vn -0.8081 -0.5669 -0.1601
vn -0.5149 0.8207 0.2476
vn 0.2413 0.8330 0.4979
vn -0.9129 0.3704 -0.1714
vn -0.9426 -0.2105 -0.2593
vn -0.2556 0.3739 -0.8915
vn 0.0607 -0.2989 0.9524
vn -0.0310 -0.3266 0.9446
vn 0.0297 -0.3139 0.9490
vn -0.0070 -0.3479 0.9375
vn -0.0000 -0.2987 0.9543
vn -0.0385 -0.3590 0.9326
vn 0.0447 -0.3569 0.9331
vn -0.0452 -0.2933 0.9550
vn 0.0021 -0.3109 0.9504
vn -0.0081 -0.2724 0.9622
vn -0.1648 -0.6624 0.7307
vn 0.0307 -0.2830 0.9586
vn -0.2959 -0.5921 0.7496
vn 0.4094 0.0935 0.9075
vn 0.4125 -0.1386 0.9004
vn 0.1405 -0.5953 0.7911
vn -0.7283 0.1588 0.6666
vn 0.2070 -0.5451 0.8124
vn 0.5089 0.0515 0.8593
vn -0.0312 -0.6565 0.7537
vn -0.3193 0.7283 0.6063
vn -0.5296 -0.4120 0.7415
vn -0.5248 -0.4712 0.7089
vn 0.0292 0.0032 0.9996
vn -0.0200 -0.7789 0.6269
vn 0.0339 0.9004 0.4337
vn -0.7525 -0.0324 0.6578
vn 0.8961 -0.4351 0.0874
vn 0.9975 -0.0054 0.0705
vn 0.7307 -0.6777 -0.0823
vn 0.1099 -0.5025 -0.8576
vn 0.0413 -0.1938 -0.9802
vn 0.9363 0.2704 0.2243
vn 0.6878 -0.2278 0.6892
vn 0.3444 -0.7672 0.5411
vn -0.6069 -0.0778 -0.7910
vn -0.4208 0.2500 -0.8720
vn 0.7919 0.0978 0.6028
vn 0.5964 -0.2706 0.7557
vn -0.3952 -0.9119 0.1103
vn -0.6285 0.0752 -0.7742
vn -0.3576 0.4223 -0.8329
vn 0.4470 0.1496 0.8819
vn 0.2431 -0.1457 0.9590
vn -0.9975 0.0054 -0.0705
vn -0.7601 0.3264 -0.5619
vn -0.4475 0.8820 -0.1474
vn -0.7307 0.6777 0.0823
vn -0.6822 0.6708 -0.2909
vn -0.6942 0.4718 -0.5435
vn -0.8961 0.4351 -0.0874
vn -0.8552 0.3076 -0.4172
vn -0.8798 0.1714 -0.4435
vn -0.7220 0.2667 0.6384
vn -0.7805 0.0013 0.6252
vn -0.1738 -0.2272 0.9582
vn -0.0413 0.1938 0.9802
vn 0.2534 -0.0054 0.9674
vn 0.4174 -0.0060 0.9087
vn -0.1099 0.5024 0.8576
vn 0.2535 0.4067 0.8777
vn 0.2197 0.6936 0.6860
vn -0.3444 0.7672 -0.5411
vn -0.4625 0.5097 -0.7255
vn -0.5848 0.4143 -0.6974
vn -0.6878 0.2278 -0.6892
vn -0.6976 0.1336 -0.7039
vn -0.7767 0.0881 -0.6236
vn -0.9363 -0.2704 -0.2243
vn -0.6272 -0.6986 0.3443
vn -0.0725 -0.5143 0.8545
vn 0.4208 -0.2500 0.8720
vn 0.5257 -0.2118 0.8239
vn 0.5343 -0.1173 0.8371
vn 0.6069 0.0778 0.7910
vn 0.6835 0.1861 0.7058
vn 0.5928 0.5026 0.6293
vn -0.5964 0.2706 -0.7557
vn -0.5257 0.2118 -0.8239
vn -0.5343 0.1173 -0.8371
vn -0.7919 -0.0978 -0.6028
vn -0.6835 -0.1861 -0.7058
vn -0.5927 -0.5026 -0.6293
vn 0.3576 -0.4223 0.8329
vn 0.4625 -0.5097 0.7255
vn 0.5848 -0.4143 0.6974
vn 0.6285 -0.0752 0.7741
vn 0.6976 -0.1336 0.7039
vn 0.7767 -0.0881 0.6236
vn 0.3952 0.9120 -0.1103
vn 0.6272 0.6986 -0.3443
vn 0.0725 0.5143 -0.8545
vn -0.2432 0.1457 -0.9590
vn -0.2534 0.0054 -0.9673
vn -0.4174 0.0060 -0.9087
vn -0.4471 -0.1496 -0.8819
vn -0.2535 -0.4067 -0.8777
vn -0.2197 -0.6937 -0.6860
vn 0.4475 -0.8820 0.1474
vn 0.6821 -0.6708 0.2909
vn 0.6942 -0.4718 0.5435
vn 0.1738 0.2272 -0.9582
vn 0.7805 -0.0013 -0.6252
vn 0.7220 -0.2667 -0.6384
vn 0.7601 -0.3264 0.5619
vn 0.8552 -0.3076 0.4172
vn 0.8798 -0.1714 0.4435
vn -0.8961 -0.4352 0.0874
vn -0.9975 -0.0054 0.0705
vn -0.7307 -0.6777 -0.0823
vn -0.1099 -0.5024 -0.8576
vn -0.0413 -0.1938 -0.9802
vn -0.9363 0.2704 0.2243
vn -0.6878 -0.2278 0.6892
vn -0.3444 -0.7672 0.5411
vn 0.6069 -0.0778 -0.7910
vn 0.4208 0.2500 -0.8720
vn -0.7919 0.0978 0.6028
vn -0.5964 -0.2706 0.7557
vn 0.3952 -0.9119 0.1103
vn 0.6285 0.0752 -0.7742
vn 0.3576 0.4223 -0.8329
vn -0.4471 0.1496 0.8819
vn -0.2432 -0.1457 0.9590
vn 0.9975 0.0054 -0.0705
vn 0.7601 0.3264 -0.5619
vn 0.4475 0.8820 -0.1474
vn 0.7307 0.6777 0.0823
vn 0.6821 0.6709 -0.2909
vn 0.6942 0.4718 -0.5435
vn 0.8961 0.4351 -0.0874
vn 0.8552 0.3076 -0.4172
vn 0.8798 0.1714 -0.4435
vn 0.7220 0.2667 0.6384
vn 0.7805 0.0013 0.6252
vn 0.1738 -0.2272 0.9582
vn 0.0413 0.1938 0.9802
vn -0.2534 -0.0054 0.9673
vn -0.4174 -0.0060 0.9087
vn 0.1099 0.5025 0.8576
vn -0.2535 0.4067 0.8777
vn -0.2197 0.6937 0.6860
vn 0.3444 0.7672 -0.5411
vn 0.4625 0.5097 -0.7255
vn 0.5848 0.4143 -0.6974
vn 0.6878 0.2278 -0.6892
vn 0.6976 0.1336 -0.7039
vn 0.7767 0.0881 -0.6236
vn 0.9363 -0.2704 -0.2243
vn 0.6272 -0.6986 0.3443
vn 0.0725 -0.5143 0.8545
vn -0.4208 -0.2500 0.8720
vn -0.5257 -0.2118 0.8239
vn -0.5343 -0.1173 0.8371
vn -0.6069 0.0778 0.7910
vn -0.6835 0.1861 0.7058
vn -0.5927 0.5026 0.6293
vn 0.5964 0.2706 -0.7557
vn 0.5257 0.2118 -0.8239
vn 0.5343 0.1173 -0.8371
vn 0.7919 -0.0978 -0.6028
vn 0.6835 -0.1861 -0.7058
vn 0.5927 -0.5026 -0.6293
vn -0.3576 -0.4223 0.8329
vn -0.4625 -0.5097 0.7255
vn -0.5848 -0.4143 0.6974
vn -0.6285 -0.0752 0.7742
vn -0.6976 -0.1336 0.7039
vn -0.7767 -0.0881 0.6237
vn -0.3952 0.9119 -0.1103
vn -0.6272 0.6986 -0.3443
vn -0.0725 0.5143 -0.8545
vn 0.2432 0.1457 -0.9590
vn 0.2534 0.0054 -0.9673
vn 0.4174 0.0060 -0.9087
vn 0.4471 -0.1496 -0.8819
vn 0.2535 -0.4067 -0.8777
vn 0.2197 -0.6937 -0.6860
vn -0.4475 -0.8820 0.1474
vn -0.6821 -0.6709 0.2909
vn -0.6942 -0.4718 0.5435
vn -0.1738 0.2272 -0.9582
vn -0.7805 -0.0013 -0.6252
vn -0.7220 -0.2667 -0.6384
vn -0.7601 -0.3265 0.5619
vn -0.8552 -0.3076 0.4172
vn -0.8798 -0.1714 0.4435
vt 0.833374 0.494548
vt 0.893919 0.512741
vt 0.908415 0.468160
vt 0.848637 0.467455
vt 0.567859 0.867914
vt 0.639317 0.828812
vt 0.620915 0.894044
vt 0.556155 0.927906
vt 0.812683 0.509803
vt 0.774909 0.642712
vt 0.751394 0.643294
vt 0.751725 0.493743
vt 0.828812 0.793372
vt 0.751727 0.811870
vt 0.672932 0.807420
vt 0.672336 0.642732
vt 0.672998 0.503429
vt 0.598676 0.643182
vt 0.594201 0.530171
vt 0.560191 0.672195
vt 0.619753 0.672998
vt 0.599703 0.594201
vt 0.569702 0.558226
vt 0.580250 0.833374
vt 0.635423 0.812683
vt 0.637090 0.751725
vt 0.569078 0.759035
vt 0.500000 0.859251
vt 0.500000 0.750726
vt 0.569078 0.758996
vt 0.500000 0.657595
vt 0.560191 0.671923
vt 0.604420 0.951058
vt 0.545714 0.976119
vt 0.604420 0.548422
vt 0.626365 0.643481
vt 0.688416 0.643970
vt 0.666902 0.547256
vt 0.500000 0.917421
vt 0.563590 0.893919
vt 0.639317 0.793372
vt 0.659328 0.642712
vt 0.676970 0.643370
vt 0.671449 0.761101
vt 0.555994 0.632181
vt 0.545714 0.747180
vt 0.604420 0.735145
vt 0.572975 0.538591
vt 0.666902 0.715601
vt 0.500000 0.969030
vt 0.572975 0.947229
vt 0.501290 0.830086
vt 0.457158 0.830118
vt 0.460328 0.806630
vt 0.500288 0.803578
vt 0.499838 0.512886
vt 0.460007 0.507514
vt 0.481582 0.413128
vt 0.510774 0.417065
vt 0.500000 0.559830
vt 0.556447 0.575135
vt 0.579931 0.796381
vt 0.599703 0.530171
vt 0.637090 0.643182
vt 0.659115 0.643738
vt 0.643940 0.535244
vt 0.564556 0.492909
vt 0.500000 0.477524
vt 0.500000 0.432743
vt 0.566016 0.447361
vt 0.569702 0.518348
vt 0.616981 0.429733
vt 0.594994 0.421068
vt 0.612448 0.796381
vt 0.637526 0.771615
vt 0.500000 0.371229
vt 0.561082 0.382998
vt 0.450625 0.491920
vt 0.495971 0.498202
vt 0.507939 0.406303
vt 0.474705 0.401699
vt 0.591615 0.535244
vt 0.575831 0.433451
vt 0.407144 0.499901
vt 0.406490 0.640437
vt 0.358675 0.605643
vt 0.363238 0.556600
vt 0.578790 0.420824
vt 0.621227 0.407144
vt 0.601979 0.363238
vt 0.551080 0.357545
vt 0.500000 0.657756
vt 0.500000 0.571782
vt 0.667216 0.508652
vt 0.621227 0.499901
vt 0.632756 0.407548
vt 0.666461 0.413961
vt 0.556577 0.771615
vt 0.637090 0.751727
vt 0.260484 0.580516
vt 0.278839 0.520364
vt 0.582070 0.278839
vt 0.540875 0.268345
vt 0.619753 0.672932
vt 0.500000 0.307117
vt 0.551080 0.314473
vt 0.500000 0.983839
vt 0.393435 0.816867
vt 0.325561 0.763148
vt 0.671449 0.517077
vt 0.635423 0.509803
vt 0.642381 0.470278
vt 0.671266 0.470798
vt 0.988807 0.740196
vt 1.002924 0.661469
vt 1.015365 0.669173
vt 1.001496 0.721513
vt 0.500000 0.531683
vt 0.500000 0.631036
vt 0.249130 0.712570
vt 0.191059 0.679456
vt 0.198981 0.567653
vt 0.945839 0.547256
vt 0.886123 0.529161
vt 0.904522 0.470747
vt 0.963512 0.471464
vt 0.500000 0.238897
vt 0.540875 0.239236
vt 0.564556 0.495971
vt 0.612448 0.579931
vt 0.628268 0.501290
vt 0.631115 0.457158
vt 0.168698 0.648799
vt 0.177283 0.553376
vt 0.539817 0.181283
vt 0.500000 0.184290
vt 0.500000 0.144817
vt 0.539817 0.140934
vt 0.580006 0.205473
vt 0.539817 0.196322
vt 0.205473 0.476864
vt 0.621491 0.393435
vt 0.538703 0.608225
vt 0.500000 0.615960
vt 0.500000 0.567098
vt 0.526605 0.560962
vt 0.566016 0.450625
vt 0.149293 0.452102
vt 0.133162 0.541160
vt 0.103583 0.505809
vt 0.123733 0.441345
vt 0.539531 0.141037
vt 0.579447 0.149293
vt 0.562090 0.123733
vt 0.530633 0.116366
vt 0.500000 0.385014
vt 0.500000 0.353218
vt 0.586057 0.174337
vt 0.542919 0.165879
vt 0.174337 0.464471
vt 0.086614 0.427976
vt 0.065909 0.448336
vt 0.053210 0.428901
vt 0.071388 0.423606
vt 0.515797 0.085531
vt 0.531484 0.086614
vt 0.523242 0.071388
vt 0.510720 0.071544
vt 0.500000 0.266808
vt 0.601979 0.325561
vt 0.582070 0.249130
vt 0.108290 0.599988
vt 0.073849 0.556649
vt 0.580006 0.679456
vt 0.539817 0.690304
vt 0.539817 0.657159
vt 0.579599 0.648799
vt 0.500000 0.199929
vt 0.513331 0.045311
vt 0.500000 0.046647
vt 0.500000 0.069896
vt 0.051602 0.475706
vt 0.038205 0.462176
vt 0.038356 0.442272
vt 0.580006 0.191059
vt 0.577833 0.599988
vt 0.554232 0.556649
vt 0.500000 0.147087
vt 0.500000 0.124516
vt 0.530339 0.475706
vt 0.515210 0.477146
vt 0.513246 0.460736
vt 0.522445 0.462176
vt 0.500000 0.170521
vt 0.515546 0.457928
vt 0.507613 0.457080
vt 0.506877 0.445401
vt 0.514439 0.446199
vt 0.500000 0.089031
vt 0.528336 0.053210
vt 0.620841 0.601238
vt 0.618568 0.607555
vt 0.613078 0.604170
vt 0.614718 0.599612
vt 0.500000 0.479371
vt 0.500000 0.460095
vt 0.513331 0.424258
vt 0.512541 0.440917
vt 0.500000 0.440864
vt 0.500000 0.422187
vt 0.500000 0.664242
vt 0.576432 0.505809
vt 0.539481 0.507406
vt 0.547321 0.467354
vt 0.500000 0.513551
vt 0.519044 0.508271
vt 0.579599 0.168698
vt 0.538703 0.096221
vt 0.577833 0.108290
vt 0.520322 0.097153
vt 0.500000 0.106427
vt 0.541975 0.104341
vt 0.078394 0.467354
vt 0.104341 0.437145
vt 0.073220 0.507406
vt 0.590300 0.643738
vt 0.499630 0.641384
vt 0.459655 0.640419
vt 0.417546 0.774144
vt 0.414448 0.641253
vt 0.423095 0.508652
vt 0.621491 0.816867
vt 0.648114 0.640437
vt 0.669097 0.641253
vt 0.644267 0.774144
vt 0.578790 0.496630
vt 0.601625 0.405151
vt 0.649402 0.433451
vt 0.651726 0.367843
vt 0.620780 0.366797
vt 0.454529 0.413961
vt 0.467814 0.368189
vt 0.488225 0.366596
vt 0.561691 0.421068
vt 0.537425 0.365401
vt 0.507200 0.363509
vt 0.481273 0.364028
vt 0.510983 0.366114
vt 0.635806 0.367147
vt 0.669092 0.368189
vt 0.420824 0.496630
vt 0.452865 0.405151
vt 0.558226 0.518348
vt 0.484328 0.324872
vt 0.502799 0.322553
vt 0.547406 0.321655
vt 0.519920 0.320969
vt 0.496410 0.322232
vt 0.523434 0.321439
vt 0.639292 0.324944
vt 0.675657 0.324872
vt 0.550036 0.367843
vt 0.558926 0.322330
vt 0.465216 0.366023
vt 0.604868 0.366023
vt 0.599660 0.365401
vt 0.621651 0.293283
vt 0.658462 0.293469
vt 0.659368 0.261742
vt 0.621257 0.261665
vt 0.501495 0.293600
vt 0.482345 0.307625
vt 0.480362 0.262732
vt 0.500191 0.261781
vt 0.519246 0.292376
vt 0.547742 0.292993
vt 0.548078 0.261464
vt 0.518571 0.260916
vt 0.494871 0.293528
vt 0.493332 0.261956
vt 0.522889 0.292587
vt 0.522344 0.260869
vt 0.451756 0.288897
vt 0.449773 0.262732
vt 0.656778 0.322330
vt 0.622394 0.322035
vt 0.481902 0.324350
vt 0.605664 0.324350
vt 0.599057 0.321655
vt 0.595403 0.548078
vt 0.621257 0.561263
vt 0.645824 0.523009
vt 0.590945 0.518571
vt 0.639859 0.470735
vt 0.648324 0.498544
vt 0.685407 0.500191
vt 0.686261 0.480362
vt 0.592251 0.493332
vt 0.659368 0.560446
vt 0.683143 0.522344
vt 0.596433 0.477757
vt 0.479829 0.307317
vt 0.477757 0.262636
vt 0.447168 0.262636
vt 0.449241 0.288588
vt 0.596679 0.292993
vt 0.595403 0.261464
vt 0.559686 0.293469
vt 0.560446 0.261742
vt 0.603589 0.307317
vt 0.640355 0.307779
vt 0.679739 0.307625
vt 0.677932 0.288897
vt 0.639680 0.289050
vt 0.639859 0.262967
vt 0.679465 0.262732
vt 0.604354 0.288588
vt 0.603287 0.262636
vt 0.679739 0.482345
vt 0.640355 0.473048
vt 0.639680 0.442459
vt 0.677932 0.451756
vt 0.679465 0.449773
vt 0.639859 0.440146
vt 0.603589 0.479829
vt 0.604354 0.449241
vt 0.603287 0.447168
vt 0.841501 0.761101
vt 0.796910 0.643370
vt 0.906455 0.644155
vt 0.894416 0.742499
vt 0.957194 0.643970
vt 0.829265 0.517077
vt 0.940741 0.715601
vt 0.671449 0.841501
vt 0.669190 0.894416
vt 0.849398 0.470798
vt 0.666902 0.940741
vt 0.909364 0.402088
vt 0.855378 0.389954
vt 0.592313 0.470184
vt 0.617524 0.471308
vt 0.621192 0.417417
vt 0.598226 0.414426
vt 0.598146 0.467455
vt 0.603540 0.389954
vt 0.643835 0.389418
vt 0.855424 0.393127
vt 0.905341 0.403681
vt 0.667620 0.471464
vt 0.947229 0.538591
vt 0.963044 0.470184
vt 0.580250 0.494548
vt 0.595712 0.312254
vt 0.621272 0.312916
vt 0.622837 0.264476
vt 0.597277 0.263453
vt 0.852894 0.313492
vt 0.849695 0.260671
vt 0.818572 0.260902
vt 0.821566 0.286829
vt 0.893654 0.314609
vt 0.853541 0.316407
vt 0.850246 0.263617
vt 0.890422 0.263754
vt 0.896415 0.312211
vt 0.936226 0.312254
vt 0.933075 0.263453
vt 0.893263 0.261490
vt 0.670148 0.393127
vt 0.666826 0.415674
vt 0.958612 0.415674
vt 0.958434 0.414426
vt 0.649700 0.837975
vt 0.635627 0.887710
vt 0.686058 0.890422
vt 0.687133 0.850246
vt 0.592375 0.849695
vt 0.589648 0.893263
vt 0.597277 0.933075
vt 0.622837 0.940554
vt 0.673628 0.933416
vt 0.822213 0.289744
vt 0.819123 0.263848
vt 0.672063 0.313364
vt 0.673628 0.264581
vt 0.936602 0.313364
vt 0.933416 0.264581
vt 0.941647 0.364922
vt 0.899640 0.363406
vt 0.623001 0.364960
vt 0.665562 0.364922
vt 0.668659 0.362549
vt 0.644119 0.361871
vt 0.647700 0.316485
vt 0.685132 0.316407
vt 0.859879 0.359936
vt 0.902447 0.361457
vt 0.941330 0.363919
vt 0.860378 0.362549
vt 0.606538 0.359936
vt 0.590374 0.313492
vt 0.601582 0.363919
vt 0.646474 0.289822
vt 0.601626 0.286829
vt 0.603191 0.260902
vt 0.648039 0.263334
vt 0.675760 0.289744
vt 0.677325 0.263848
vt 0.647700 0.841274
vt 0.590374 0.852894
vt 0.601626 0.821566
vt 0.646474 0.809945
vt 0.648039 0.806852
vt 0.603191 0.818572
vt 0.685132 0.853541
vt 0.675760 0.822213
vt 0.677325 0.819123
vt 0.500000 0.668378
vt 0.500000 0.724779
vt 0.517225 0.721513
vt 0.520785 0.669173
vt 0.528698 1.002924
vt 0.500000 1.014901
vt 0.500000 1.025182
vt 0.520785 1.015365
vt 0.500000 0.744181
vt 0.519989 0.740196
vt 0.519989 0.988807
vt 0.500000 0.995348
vt 0.500000 0.660499
vt 0.528698 0.661469
vt 0.154177 0.616909
vt 0.166410 0.570048
vt 0.135838 0.608740
vt 0.149154 0.567675
vt 0.147623 0.572395
vt 0.137518 0.603560
vt 0.583783 0.154177
vt 0.583848 0.135838
vt 0.600568 0.131366
vt 0.597073 0.144428
vt 0.144166 0.612314
vt 0.141084 0.620214
vt 0.132632 0.614576
vt 0.134671 0.609983
vt 0.153028 0.593819
vt 0.141399 0.592146
vt 0.619182 0.132632
vt 0.614588 0.141084
vt 0.606252 0.140479
vt 0.610351 0.130579
vt 0.138199 0.601250
vt 0.148213 0.603179
vt 0.602487 0.570048
vt 0.583783 0.616909
vt 0.597073 0.624463
vt 0.606252 0.625520
vt 0.614588 0.620214
vt 0.620822 0.612314
vt 0.623703 0.603179
vt 0.620639 0.593819
vt 0.604695 0.577238
vt 0.601269 0.572395
vt 0.603531 0.567675
vt 0.609313 0.614171
vt 0.615687 0.610750
vt 0.619182 0.614576
vt 0.610351 0.619358
vt 0.602434 0.613212
vt 0.600568 0.617961
vt 0.626402 0.601250
vt 0.623276 0.609983
vt 0.618527 0.594500
vt 0.623272 0.592146
vt 0.590602 0.606787
vt 0.583848 0.608740
vt 0.592903 0.603615
vt 0.603070 0.582298
vt 0.613048 0.594751
vt 0.610999 0.606475
vt 0.606401 0.608943
vt 0.601438 0.608251
vt 0.586331 0.603560
vt 0.600598 0.578805
vt 0.589822 0.601288
vt 0.148133 0.578805
vt 0.140843 0.601288
vt 0.522445 0.038205
vt 0.513246 0.032036
vt 0.507613 0.025182
vt 0.515546 0.030102
vt 0.521458 0.442272
vt 0.528336 0.428901
vt 0.500000 0.456702
vt 0.500000 0.445370
vt 0.500000 0.031689
vt 0.512541 0.032373
vt 0.506877 0.025742
vt 0.500000 0.025886
vt 0.500000 0.031337
vt 0.500000 0.025479
vt 0.030102 0.457928
vt 0.030515 0.446199
vt 0.432141 0.867914
vt 0.443845 0.927906
vt 0.379085 0.894044
vt 0.360683 0.828812
vt 0.439809 0.672195
vt 0.430298 0.558226
vt 0.400297 0.594201
vt 0.380247 0.672998
vt 0.419750 0.833374
vt 0.430922 0.759035
vt 0.362910 0.751725
vt 0.364577 0.812683
vt 0.430922 0.758996
vt 0.439809 0.671923
vt 0.454286 0.976119
vt 0.395580 0.951058
vt 0.395580 0.548422
vt 0.333098 0.547256
vt 0.311584 0.643970
vt 0.373635 0.643481
vt 0.436410 0.893919
vt 0.360683 0.793372
vt 0.328551 0.761101
vt 0.323030 0.643370
vt 0.340672 0.642712
vt 0.444006 0.632181
vt 0.395580 0.735145
vt 0.454286 0.747180
vt 0.427025 0.538591
vt 0.333098 0.715601
vt 0.427025 0.947229
vt 0.443553 0.575135
vt 0.400297 0.530171
vt 0.356060 0.535244
vt 0.340885 0.643738
vt 0.362910 0.643182
vt 0.435444 0.492909
vt 0.433984 0.447361
vt 0.430298 0.518348
vt 0.405006 0.421068
vt 0.383019 0.429733
vt 0.362474 0.771615
vt 0.387552 0.796381
vt 0.438918 0.382998
vt 0.421210 0.420824
vt 0.448920 0.357545
vt 0.398021 0.363238
vt 0.378773 0.407144
vt 0.332784 0.508652
vt 0.333539 0.413961
vt 0.367244 0.407548
vt 0.378773 0.499901
vt 0.362910 0.751727
vt 0.459125 0.268345
vt 0.417930 0.278839
vt 0.380247 0.672932
vt 0.448920 0.314473
vt 0.328551 0.517077
vt 0.328734 0.470798
vt 0.357619 0.470278
vt 0.364577 0.509803
vt 0.459125 0.239236
vt 0.435444 0.495971
vt 0.387552 0.579931
vt 0.371732 0.501290
vt 0.368885 0.457158
vt 0.460183 0.181283
vt 0.460183 0.140934
vt 0.460183 0.196322
vt 0.419994 0.205473
vt 0.378509 0.393435
vt 0.461297 0.608225
vt 0.473395 0.560962
vt 0.433984 0.450625
vt 0.460469 0.141037
vt 0.469367 0.116366
vt 0.437911 0.123733
vt 0.420553 0.149293
vt 0.457081 0.165879
vt 0.413943 0.174337
vt 0.484203 0.085531
vt 0.489280 0.071544
vt 0.476758 0.071388
vt 0.468516 0.086614
vt 0.398021 0.325561
vt 0.417930 0.249130
vt 0.419994 0.679456
vt 0.420401 0.648799
vt 0.460183 0.657159
vt 0.460183 0.690304
vt 0.486669 0.045311
vt 0.419994 0.191059
vt 0.422167 0.599988
vt 0.445768 0.556649
vt 0.469661 0.475706
vt 0.477555 0.462176
vt 0.486754 0.460736
vt 0.484790 0.477146
vt 0.484454 0.457928
vt 0.485561 0.446199
vt 0.493123 0.445401
vt 0.492387 0.457080
vt 0.471665 0.053210
vt 0.379159 0.601238
vt 0.385282 0.599612
vt 0.386922 0.604170
vt 0.381432 0.607555
vt 0.486669 0.424258
vt 0.487459 0.440917
vt 0.423568 0.505809
vt 0.452679 0.467354
vt 0.460520 0.507406
vt 0.480956 0.508271
vt 0.420401 0.168698
vt 0.422167 0.108290
vt 0.461297 0.096221
vt 0.479678 0.097153
vt 0.458025 0.104341
vt 0.378509 0.816867
vt 0.355733 0.774144
vt 0.330903 0.641253
vt 0.351886 0.640437
vt 0.398375 0.405151
vt 0.421210 0.496630
vt 0.379220 0.366797
vt 0.348274 0.367843
vt 0.350598 0.433451
vt 0.330908 0.368189
vt 0.364194 0.367147
vt 0.324343 0.324872
vt 0.360708 0.324944
vt 0.395132 0.366023
vt 0.400340 0.365401
vt 0.378349 0.293283
vt 0.378743 0.261665
vt 0.340632 0.261742
vt 0.341538 0.293469
vt 0.377606 0.322035
vt 0.343222 0.322330
vt 0.394336 0.324350
vt 0.400943 0.321655
vt 0.404597 0.548078
vt 0.409055 0.518571
vt 0.354176 0.523009
vt 0.378743 0.561263
vt 0.360141 0.470735
vt 0.313739 0.480362
vt 0.314593 0.500191
vt 0.351676 0.498544
vt 0.407749 0.493332
vt 0.316857 0.522344
vt 0.340632 0.560446
vt 0.403567 0.477757
vt 0.403321 0.292993
vt 0.404597 0.261464
vt 0.359645 0.307779
vt 0.396411 0.307317
vt 0.320262 0.307625
vt 0.322068 0.288897
vt 0.320535 0.262732
vt 0.360141 0.262967
vt 0.360320 0.289050
vt 0.396713 0.262636
vt 0.395646 0.288588
vt 0.320262 0.482345
vt 0.322068 0.451756
vt 0.360320 0.442459
vt 0.359645 0.473048
vt 0.360141 0.440146
vt 0.320535 0.449773
vt 0.395646 0.449241
vt 0.396411 0.479829
vt 0.396713 0.447168
vt 0.330810 0.894416
vt 0.328551 0.841501
vt 0.333098 0.940741
vt 0.407688 0.470184
vt 0.401774 0.414426
vt 0.378808 0.417417
vt 0.382476 0.471308
vt 0.356165 0.389418
vt 0.396460 0.389954
vt 0.401854 0.467455
vt 0.332380 0.471464
vt 0.419750 0.494548
vt 0.404289 0.312254
vt 0.402723 0.263453
vt 0.377163 0.264476
vt 0.378728 0.312916
vt 0.329852 0.393127
vt 0.333174 0.415674
vt 0.350300 0.837975
vt 0.312867 0.850246
vt 0.313942 0.890422
vt 0.364373 0.887710
vt 0.410353 0.893263
vt 0.407625 0.849695
vt 0.377163 0.940554
vt 0.402723 0.933075
vt 0.326372 0.933416
vt 0.326372 0.264581
vt 0.327937 0.313364
vt 0.376999 0.364960
vt 0.334438 0.364922
vt 0.331341 0.362549
vt 0.314868 0.316407
vt 0.352300 0.316485
vt 0.355881 0.361871
vt 0.409626 0.313492
vt 0.393462 0.359936
vt 0.398418 0.363919
vt 0.353526 0.289822
vt 0.351961 0.263334
vt 0.396809 0.260902
vt 0.398374 0.286829
vt 0.324240 0.289744
vt 0.322675 0.263848
vt 0.352300 0.841274
vt 0.353526 0.809945
vt 0.398374 0.821566
vt 0.409626 0.852894
vt 0.396809 0.818572
vt 0.351961 0.806852
vt 0.314868 0.853541
vt 0.324240 0.822213
vt 0.322675 0.819123
vt 0.479215 0.669173
vt 0.482775 0.721513
vt 0.471302 1.002924
vt 0.479215 1.015365
vt 0.480011 0.740196
vt 0.480011 0.988807
vt 0.471302 0.661469
vt 0.416217 0.154177
vt 0.402927 0.144428
vt 0.399432 0.131366
vt 0.416152 0.135838
vt 0.380819 0.132632
vt 0.389649 0.130579
vt 0.393748 0.140479
vt 0.385412 0.141084
vt 0.397513 0.570048
vt 0.379361 0.593819
vt 0.376297 0.603179
vt 0.379178 0.612314
vt 0.385412 0.620214
vt 0.393748 0.625520
vt 0.402927 0.624463
vt 0.416217 0.616909
vt 0.395305 0.577238
vt 0.396469 0.567675
vt 0.398731 0.572395
vt 0.390687 0.614171
vt 0.389649 0.619358
vt 0.380819 0.614576
vt 0.384313 0.610750
vt 0.397566 0.613212
vt 0.399432 0.617961
vt 0.376724 0.609983
vt 0.373598 0.601250
vt 0.376728 0.592146
vt 0.381473 0.594500
vt 0.409398 0.606787
vt 0.416152 0.608740
vt 0.407098 0.603615
vt 0.398562 0.608251
vt 0.393599 0.608943
vt 0.389001 0.606475
vt 0.386952 0.594751
vt 0.396930 0.582298
vt 0.413669 0.603560
vt 0.399402 0.578805
vt 0.410178 0.601288
vt 0.477555 0.038205
vt 0.484454 0.030102
vt 0.492387 0.025182
vt 0.486754 0.032036
vt 0.478542 0.442272
vt 0.471665 0.428901
vt 0.493123 0.025742
vt 0.487459 0.032373
vt 0.181819 0.000000
vt 0.227273 0.078731
vt 0.136365 0.078731
vt 0.272728 0.157461
vt 0.318182 0.078731
vt 0.363637 0.157461
vt 0.909091 0.000000
vt 0.954545 0.078731
vt 0.863636 0.078731
vt 0.727273 0.000000
vt 0.772727 0.078731
vt 0.681818 0.078731
vt 0.545455 0.000000
vt 0.590909 0.078731
vt 0.500000 0.078731
vt 0.318182 0.236191
vt 0.090910 0.157461
vt 0.181819 0.157461
vt 0.136365 0.236191
vt 0.818182 0.157461
vt 0.909091 0.157461
vt 0.863636 0.236191
vt 0.636364 0.157461
vt 0.727273 0.157461
vt 0.681818 0.236191
vt 0.454546 0.157461
vt 0.545455 0.157461
vt 0.500000 0.236191
vt 0.227273 0.236191
vt 0.045455 0.236191
vt 0.772727 0.236191
vt 0.590909 0.236191
vt 0.409092 0.236191
vt 0.181819 0.314921
vt 0.272728 0.314921
vt 0.227273 0.393651
vt 0.000000 0.314921
vt 0.090910 0.314921
vt 0.045455 0.393651
vt 0.727273 0.314921
vt 0.818182 0.314921
vt 0.772727 0.393651
vt 0.545455 0.314921
vt 0.636364 0.314921
vt 0.590909 0.393651
vt 0.363637 0.314921
vt 0.454546 0.314921
vt 0.409092 0.393651
vt 0.500000 0.393651
vt 0.454546 0.472382
vt 0.681818 0.393651
vt 0.636364 0.472382
vt 0.863636 0.393651
vt 0.818182 0.472382
vt 0.909091 0.314921
vt 0.136365 0.393651
vt 0.090910 0.472382
vt 0.318182 0.393651
vt 0.272728 0.472382
vt 0.954545 0.236191
vt 1.000000 0.157461
vt 0.409092 0.078731
vt 0.363637 0.000000
s 1
f 116/1/1 98/2/1 209/3/1 208/4/1
f 115/5/2 4/6/2 17/7/2 97/8/2
f 3/9/3 7/10/3 13/11/3 8/12/3
f 7/10/4 4/13/4 9/14/4 13/11/4
f 13/11/5 9/14/5 2/15/5 10/16/5
f 8/12/6 13/11/6 10/16/6 1/17/6
f 1/17/7 10/16/7 32/18/7 29/19/7
f 114/20/8 1/21/8 29/22/8 83/23/8
f 116/24/9 3/25/9 8/26/9 109/27/9
f 109/27/10 8/26/10 1/21/10 114/20/10
f 115/5/11 6/28/11 15/29/11 99/30/11
f 99/30/12 15/29/12 12/31/12 112/32/12
f 97/8/13 17/7/13 21/33/13 90/34/13
f 20/35/14 25/36/14 203/37/14 204/38/14
f 116/24/15 5/28/15 18/39/15 98/40/15
f 4/41/16 7/42/16 197/43/16 196/44/16
f 89/45/17 90/46/17 21/47/17 25/36/17
f 91/48/18 89/45/18 25/36/18 20/35/18
f 25/36/19 21/47/19 202/49/19 203/37/19
f 98/40/20 18/39/20 23/50/20 91/51/20
f 38/52/21 45/53/21 134/54/21 131/55/21
f 133/56/22 136/57/22 144/58/22 146/59/22
f 112/32/23 12/31/23 34/60/23 82/61/23
f 10/16/24 2/15/24 30/62/24 32/18/24
f 29/63/25 32/64/25 129/65/25 130/66/25
f 75/67/26 41/68/26 48/69/26 73/70/26
f 82/61/27 34/60/27 41/68/27 75/67/27
f 83/71/28 29/63/28 141/72/28 140/73/28
f 32/64/29 30/74/29 128/75/29 129/65/29
f 73/70/30 48/69/30 56/76/30 66/77/30
f 74/78/31 81/79/31 145/80/31 148/81/31
f 130/82/32 133/56/32 146/59/32 147/83/32
f 6/28/33 115/5/33 97/8/33 19/39/33
f 54/84/34 53/85/34 60/86/34 61/87/34
f 67/88/35 54/89/35 61/90/35 65/91/35
f 11/92/36 114/20/36 83/23/36 33/93/36
f 5/28/37 116/24/37 109/27/37 14/29/37
f 14/29/38 109/27/38 114/20/38 11/92/38
f 139/94/39 54/95/39 143/96/39 142/97/39
f 30/62/40 38/52/40 131/55/40 128/98/40
f 4/6/41 115/5/41 99/30/41 9/99/41
f 61/87/42 60/86/42 69/100/42 70/101/42
f 65/91/43 61/90/43 70/102/43 58/103/43
f 9/99/44 99/30/44 112/32/44 2/104/44
f 66/77/45 56/76/45 63/105/45 64/106/45
f 19/39/46 97/8/46 90/34/46 24/107/46
f 53/85/47 52/108/47 59/109/47 60/86/47
f 198/110/48 3/111/48 207/112/48 213/113/48
f 256/114/49 255/115/49 253/116/49 254/117/49
f 23/118/50 26/119/50 89/45/50 91/48/50
f 69/100/51 68/120/51 76/121/51 77/122/51
f 204/123/52 201/124/52 211/125/52 212/126/52
f 64/106/53 63/105/53 72/127/53 57/128/53
f 33/93/54 83/23/54 81/129/54 40/68/54
f 60/86/55 59/109/55 68/120/55 69/100/55
f 2/104/56 112/32/56 82/61/56 30/130/56
f 38/131/57 75/67/57 73/70/57 45/132/57
f 77/122/58 76/121/58 259/133/58 260/134/58
f 30/130/59 82/61/59 75/67/59 38/131/59
f 50/135/60 80/136/60 88/137/60 44/138/60
f 58/103/61 70/102/61 78/139/61 51/140/61
f 70/101/62 69/100/62 77/122/62 78/141/62
f 45/132/63 73/70/63 66/77/63 52/142/63
f 57/128/64 72/127/64 80/136/64 50/135/64
f 28/143/65 110/144/65 96/145/65 42/146/65
f 40/68/66 81/129/66 74/147/66 47/69/66
f 108/148/67 262/149/67 93/150/67 94/151/67
f 31/152/68 108/153/68 94/154/68 43/155/68
f 55/156/69 67/88/69 65/91/69 62/157/69
f 51/140/70 78/139/70 86/158/70 49/159/70
f 78/141/71 77/122/71 260/134/71 86/160/71
f 47/69/72 74/147/72 67/88/72 55/156/72
f 123/161/73 124/162/73 101/163/73 102/164/73
f 121/165/74 123/166/74 102/167/74 37/168/74
f 62/157/75 65/91/75 58/103/75 71/169/75
f 52/142/76 66/77/76 64/106/76 59/170/76
f 59/170/77 64/106/77 57/128/77 68/171/77
f 262/149/78 261/172/78 92/173/78 93/150/78
f 76/174/79 50/175/79 44/176/79 259/177/79
f 71/169/80 58/103/80 51/140/80 79/178/80
f 37/168/81 35/179/81 105/180/81 103/181/81
f 124/162/82 127/182/82 297/183/82 298/184/82 101/163/82
f 68/171/83 57/128/83 50/135/83 76/185/83
f 261/186/84 28/143/84 42/146/84 92/187/84
f 107/188/85 31/152/85 43/155/85 95/189/85
f 127/190/86 122/191/86 295/192/86 297/193/86
f 79/178/87 51/140/87 49/159/87 87/194/87
f 100/195/88 36/196/88 301/197/88 104/198/88
f 126/199/89 121/165/89 37/168/89 103/181/89
f 102/167/90 101/200/90 35/179/90 37/168/90
f 274/201/91 273/202/91 290/203/91 291/204/91
f 122/191/92 125/205/92 300/206/92 295/192/92
f 49/159/93 86/158/93 108/153/93 31/152/93
f 86/160/94 260/134/94 262/149/94 108/148/94
f 35/207/95 296/208/95 299/209/95 105/210/95
f 44/176/96 88/211/96 110/144/96 28/143/96
f 93/212/97 92/187/97 120/213/97 119/214/97
f 87/194/98 49/159/98 31/152/98 107/188/98
f 42/146/99 96/145/99 113/215/99 27/216/99
f 259/217/100 44/138/100 28/218/100 261/219/100
f 92/187/101 42/146/101 27/216/101 120/213/101
f 95/189/102 43/155/102 22/220/102 118/221/102
f 43/155/103 94/154/103 117/222/103 22/220/103
f 94/151/104 93/150/104 119/223/104 117/224/104
f 120/213/105 27/216/105 122/191/105 127/190/105
f 118/221/106 22/220/106 121/165/106 126/199/106
f 119/223/107 120/225/107 127/182/107 124/162/107
f 27/216/108 113/215/108 125/205/108 122/191/108
f 22/220/109 117/222/109 123/166/109 121/165/109
f 117/224/110 119/223/110 124/162/110 123/161/110
f 130/82/111 129/226/111 132/227/111 133/56/111
f 132/227/112 131/55/112 134/54/112 135/228/112
f 129/226/113 128/98/113 131/55/113 132/227/113
f 135/228/114 134/54/114 137/229/114 138/230/114
f 133/56/115 132/227/115 135/228/115 136/57/115
f 136/57/116 135/228/116 138/230/116 139/231/116
f 52/232/117 53/233/117 138/234/117 137/235/117
f 45/53/118 52/108/118 137/229/118 134/54/118
f 54/95/119 67/236/119 149/237/119 143/96/119
f 53/233/120 54/95/120 139/94/120 138/234/120
f 141/72/121 147/238/121 157/239/121 39/240/121
f 144/58/122 142/241/122 150/242/122 153/243/122
f 145/80/123 140/244/123 46/245/123 154/246/123
f 148/81/124 145/80/124 154/246/124 158/247/124
f 146/59/125 144/58/125 153/243/125 156/248/125
f 142/97/126 143/96/126 151/249/126 150/250/126
f 136/57/127 139/231/127 142/241/127 144/58/127
f 67/251/128 74/78/128 148/81/128 149/252/128
f 29/63/129 130/66/129 147/238/129 141/72/129
f 81/79/130 83/253/130 140/244/130 145/80/130
f 153/243/131 150/242/131 162/254/131 164/255/131
f 154/246/132 46/245/132 160/256/132 165/257/132
f 158/247/133 154/246/133 165/257/133 168/258/133
f 156/248/134 153/243/134 164/255/134 166/259/134
f 150/250/135 151/249/135 163/260/135 162/261/135
f 157/262/136 156/248/136 166/259/136 167/263/136
f 149/252/137 148/81/137 158/247/137 159/264/137
f 143/96/138 149/237/138 159/265/138 151/249/138
f 140/73/139 141/72/139 39/240/139 46/266/139
f 147/83/140 146/59/140 156/248/140 157/262/140
f 188/267/141 187/268/141 177/269/141 152/270/141
f 184/271/142 185/272/142 170/273/142 173/274/142
f 182/275/143 180/276/143 155/277/143 174/278/143
f 181/279/144 182/275/144 174/278/144 178/280/144
f 183/281/145 184/271/145 173/274/145 176/282/145
f 170/273/146 185/272/146 194/283/146 192/284/146
f 39/240/147 157/239/147 167/285/147 161/286/147
f 159/264/148 158/247/148 168/258/148 169/287/148
f 151/249/149 159/265/149 169/288/149 163/260/149
f 46/266/150 39/240/150 161/286/150 160/289/150
f 155/290/151 152/291/151 175/292/151 174/293/151
f 171/294/152 172/295/152 173/296/152 170/297/152
f 174/293/153 175/292/153 172/295/153 178/298/153
f 175/292/154 152/291/154 177/299/154 176/300/154
f 178/298/155 172/295/155 171/294/155 179/301/155
f 172/295/156 175/292/156 176/300/156 173/296/156
f 189/302/157 181/279/157 178/280/157 179/303/157
f 189/302/158 179/303/158 193/304/158 195/305/158
f 180/306/159 188/267/159 152/270/159 155/307/159
f 187/308/160 183/281/160 176/282/160 177/309/160
f 167/263/161 166/259/161 183/281/161 187/308/161
f 160/289/162 161/286/162 188/267/162 180/306/162
f 163/260/163 169/288/163 189/310/163 186/311/163
f 169/287/164 168/258/164 181/279/164 189/302/164
f 162/261/165 163/260/165 186/311/165 185/312/165
f 166/259/166 164/255/166 184/271/166 183/281/166
f 168/258/167 165/257/167 182/275/167 181/279/167
f 165/257/168 160/256/168 180/276/168 182/275/168
f 164/255/169 162/254/169 185/272/169 184/271/169
f 161/286/170 167/285/170 187/268/170 188/267/170
f 194/313/171 190/314/171 191/315/171 192/316/171
f 190/314/172 195/317/172 193/318/172 191/315/172
f 185/319/173 186/320/173 190/321/173 194/322/173
f 171/294/174 170/297/174 192/323/174 191/324/174
f 186/320/175 189/325/175 195/326/175 190/321/175
f 179/301/176 171/294/176 191/324/176 193/327/176
f 196/328/177 197/329/177 200/330/177 199/331/177
f 200/330/178 201/124/178 204/123/178 203/332/178
f 197/329/179 198/333/179 201/124/179 200/330/179
f 199/331/180 200/330/180 203/332/180 202/334/180
f 7/42/181 3/111/181 198/110/181 197/43/181
f 17/7/182 4/6/182 196/335/182 199/336/182
f 201/124/183 198/333/183 213/337/183 211/125/183
f 21/33/184 17/7/184 199/336/184 202/338/184
f 208/4/185 209/3/185 217/339/185 216/340/185
f 210/341/186 206/342/186 214/343/186 218/344/186
f 207/112/187 208/345/187 216/346/187 215/347/187
f 211/125/188 213/337/188 221/348/188 219/349/188
f 20/35/189 204/38/189 212/350/189 206/342/189
f 91/48/190 20/35/190 206/342/190 210/341/190
f 98/2/191 91/351/191 210/352/191 209/3/191
f 3/111/192 116/353/192 208/345/192 207/112/192
f 232/354/193 235/355/193 222/356/193 226/357/193
f 233/358/194 224/359/194 240/360/194 241/361/194
f 16/362/195 230/363/195 229/364/195 227/365/195
f 231/366/196 232/367/196 226/368/196 225/369/196
f 213/113/197 207/112/197 215/347/197 221/370/197
f 206/342/198 212/350/198 220/371/198 214/343/198
f 212/126/199 211/125/199 219/349/199 220/372/199
f 209/3/200 210/352/200 218/373/200 217/339/200
f 223/374/201 205/375/201 227/376/201 229/377/201
f 223/374/202 224/378/202 225/379/202 205/375/202
f 205/375/203 225/379/203 226/380/203 222/381/203
f 205/375/204 222/381/204 228/382/204 227/376/204
f 233/358/205 231/366/205 225/369/205 224/359/205
f 229/364/206 230/363/206 237/383/206 238/384/206
f 235/355/207 236/385/207 228/386/207 222/356/207
f 236/387/208 16/362/208 227/365/208 228/388/208
f 250/389/209 243/390/209 16/362/209 236/387/209
f 249/391/210 250/392/210 236/385/210 235/355/210
f 246/393/211 245/394/211 234/395/211 230/396/211
f 248/397/212 244/398/212 231/366/212 233/358/212
f 244/398/213 247/399/213 232/367/213 231/366/213
f 243/390/214 246/400/214 230/363/214 16/362/214
f 245/394/215 248/401/215 233/402/215 234/395/215
f 247/403/216 249/391/216 235/355/216 232/354/216
f 242/404/217 241/405/217 240/406/217 239/407/217
f 237/408/218 242/404/218 239/407/218 238/409/218
f 234/410/219 233/411/219 241/412/219 242/413/219
f 224/378/220 223/374/220 239/414/220 240/415/220
f 230/416/221 234/410/221 242/413/221 237/417/221
f 223/374/222 229/377/222 238/418/222 239/414/222
f 218/344/223 214/343/223 249/391/223 247/403/223
f 215/347/224 216/346/224 248/401/224 245/394/224
f 219/349/225 221/348/225 246/400/225 243/390/225
f 217/339/226 218/373/226 247/399/226 244/398/226
f 216/340/227 217/339/227 244/398/227 248/397/227
f 221/370/228 215/347/228 245/394/228 246/393/228
f 214/343/229 220/371/229 250/392/229 249/391/229
f 220/372/230 219/349/230 243/390/230 250/389/230
f 252/419/231 251/420/231 254/421/231 253/422/231
f 255/423/232 257/424/232 252/425/232 253/426/232
f 258/427/233 256/428/233 254/421/233 251/420/233
f 24/107/234 90/34/234 256/429/234 258/430/234
f 89/45/235 26/119/235 257/431/235 255/432/235
f 90/46/236 89/45/236 255/432/236 256/428/236
f 84/433/237 85/434/237 260/134/237 259/133/237
f 275/435/238 84/433/238 259/133/238 261/172/238
f 85/434/239 276/436/239 262/149/239 260/134/239
f 276/436/240 284/437/240 283/438/240 275/435/240 261/172/240 262/149/240
f 84/439/241 275/440/241 279/441/241 263/442/241
f 266/443/242 264/444/242 278/445/242 280/446/242
f 276/436/243 85/434/243 267/447/243 282/448/243
f 278/449/244 264/450/244 265/451/244 277/452/244
f 277/452/245 265/451/245 263/442/245 279/441/245
f 266/443/246 280/446/246 281/453/246 268/454/246
f 268/454/247 281/453/247 282/448/247 267/447/247
f 85/455/248 84/456/248 263/457/248 265/458/248 264/459/248 266/460/248 268/461/248 267/462/248
f 106/463/249 284/464/249 276/465/249
f 271/466/250 269/467/250 278/468/250 277/469/250
f 270/470/251 271/466/251 277/469/251 279/471/251
f 273/202/252 274/201/252 281/472/252 280/473/252
f 274/201/253 272/474/253 282/475/253 281/472/253
f 269/467/254 273/202/254 280/473/254 278/468/254
f 111/476/255 270/470/255 279/471/255 275/477/255
f 272/474/256 106/463/256 276/465/256 282/475/256
f 285/478/257 286/479/257 292/480/257 291/204/257 290/203/257 288/481/257 287/482/257 289/483/257
f 283/484/258 111/476/258 275/477/258
f 270/470/259 111/476/259 285/478/259 289/483/259
f 294/485/260 286/479/260 285/478/260 293/486/260
f 111/476/261 283/484/261 293/486/261 285/478/261
f 106/463/262 272/474/262 292/480/262 286/479/262
f 272/474/263 274/201/263 291/204/263 292/480/263
f 269/467/264 271/466/264 287/482/264 288/481/264
f 283/438/265 284/437/265 294/487/265 293/488/265
f 273/202/266 269/467/266 288/481/266 290/203/266
f 284/464/267 106/463/267 286/479/267 294/485/267
f 271/466/268 270/470/268 289/483/268 287/482/268
f 297/489/269 295/490/269 36/491/269 100/492/269
f 296/208/270 298/493/270 104/198/270 301/197/270
f 101/494/271 298/493/271 296/208/271 35/207/271
f 36/196/272 302/495/272 303/496/272 301/197/272
f 299/497/273 296/498/273 301/499/273 303/500/273
f 295/490/274 300/501/274 302/502/274 36/491/274
f 298/184/275 297/183/275 100/503/275 104/504/275
f 385/1/276 474/4/276 475/3/276 372/2/276
f 384/505/277 371/506/277 314/507/277 307/508/277
f 306/9/278 309/12/278 312/11/278 308/10/278
f 308/10/279 312/11/279 310/14/279 307/13/279
f 312/11/280 311/16/280 305/15/280 310/14/280
f 309/12/281 304/17/281 311/16/281 312/11/281
f 304/17/282 321/19/282 324/18/282 311/16/282
f 383/509/283 361/510/283 321/511/283 304/512/283
f 385/513/284 380/514/284 309/515/284 306/516/284
f 380/514/285 383/509/285 304/512/285 309/515/285
f 384/505/286 373/517/286 15/29/286 6/28/286
f 373/517/287 382/518/287 12/31/287 15/29/287
f 371/506/288 366/519/288 316/520/288 314/507/288
f 315/521/289 470/522/289 469/523/289 318/524/289
f 385/513/290 372/525/290 18/39/290 5/28/290
f 307/526/291 462/527/291 463/528/291 308/529/291
f 365/530/292 318/524/292 316/531/292 366/532/292
f 367/533/293 315/521/293 318/524/293 365/530/293
f 318/524/294 469/523/294 468/534/294 316/531/294
f 372/525/295 367/535/295 23/50/295 18/39/295
f 328/52/296 397/55/296 400/54/296 333/53/296
f 399/56/297 412/59/297 410/58/297 402/57/297
f 382/518/298 360/536/298 34/60/298 12/31/298
f 311/16/299 324/18/299 322/62/299 305/15/299
f 321/537/300 396/538/300 395/539/300 324/540/300
f 355/541/301 353/542/301 48/69/301 41/68/301
f 360/536/302 355/541/302 41/68/302 34/60/302
f 361/543/303 406/544/303 407/545/303 321/537/303
f 324/540/304 395/539/304 394/546/304 322/547/304
f 353/542/305 348/548/305 56/76/305 48/69/305
f 354/78/306 414/81/306 411/80/306 359/79/306
f 396/82/307 413/83/307 412/59/307 399/56/307
f 6/28/308 19/39/308 371/506/308 384/505/308
f 340/84/309 345/87/309 344/86/309 339/85/309
f 349/549/310 347/550/310 345/551/310 340/552/310
f 11/92/311 33/93/311 361/510/311 383/509/311
f 5/28/312 14/29/312 380/514/312 385/513/312
f 14/29/313 11/92/313 383/509/313 380/514/313
f 405/553/314 408/554/314 409/555/314 340/556/314
f 322/62/315 394/98/315 397/55/315 328/52/315
f 307/508/316 310/557/316 373/517/316 384/505/316
f 345/87/317 352/101/317 351/100/317 344/86/317
f 347/550/318 342/558/318 352/559/318 345/551/318
f 310/557/319 305/560/319 382/518/319 373/517/319
f 348/548/320 346/561/320 63/105/320 56/76/320
f 19/39/321 24/107/321 366/519/321 371/506/321
f 339/85/322 344/86/322 343/109/322 338/108/322
f 464/562/323 479/563/323 473/564/323 306/565/323
f 520/114/324 518/117/324 517/116/324 519/115/324
f 23/118/325 367/533/325 365/530/325 26/119/325
f 351/100/326 357/122/326 356/121/326 350/120/326
f 470/123/327 478/126/327 477/125/327 467/124/327
f 346/561/328 341/566/328 72/127/328 63/105/328
f 33/93/329 40/68/329 359/567/329 361/510/329
f 344/86/330 351/100/330 350/120/330 343/109/330
f 305/560/331 322/568/331 360/536/331 382/518/331
f 328/569/332 333/570/332 353/542/332 355/541/332
f 357/122/333 522/134/333 521/133/333 356/121/333
f 322/568/334 328/569/334 355/541/334 360/536/334
f 336/571/335 332/572/335 88/137/335 80/136/335
f 342/558/336 337/573/336 358/574/336 352/559/336
f 352/101/337 358/141/337 357/122/337 351/100/337
f 333/570/338 338/575/338 348/548/338 353/542/338
f 341/566/339 336/571/339 80/136/339 72/127/339
f 320/576/340 330/577/340 96/145/340 110/144/340
f 40/68/341 47/69/341 354/578/341 359/567/341
f 379/148/342 370/151/342 369/150/342 524/149/342
f 323/579/343 331/580/343 370/581/343 379/582/343
f 55/156/344 62/157/344 347/550/344 349/549/344
f 337/573/345 335/583/345 364/584/345 358/574/345
f 358/141/346 364/160/346 522/134/346 357/122/346
f 47/69/347 55/156/347 349/549/347 354/578/347
f 391/161/348 376/164/348 375/163/348 392/162/348
f 389/585/349 327/586/349 376/587/349 391/588/349
f 62/157/350 71/169/350 342/558/350 347/550/350
f 338/575/351 343/589/351 346/561/351 348/548/351
f 343/589/352 350/590/352 341/566/352 346/561/352
f 524/149/353 369/150/353 368/173/353 523/172/353
f 356/591/354 521/592/354 332/593/354 336/594/354
f 71/169/355 79/178/355 337/573/355 342/558/355
f 327/586/356 103/181/356 105/180/356 325/595/356
f 392/162/357 375/163/357 560/184/357 559/183/357 393/182/357
f 350/590/358 356/596/358 336/571/358 341/566/358
f 523/597/359 368/598/359 330/577/359 320/576/359
f 107/188/360 95/189/360 331/580/360 323/579/360
f 393/599/361 559/600/361 557/601/361 390/602/361
f 79/178/362 87/194/362 335/583/362 337/573/362
f 374/603/363 377/604/363 561/605/363 326/606/363
f 126/199/364 103/181/364 327/586/364 389/585/364
f 376/587/365 327/586/365 325/595/365 375/607/365
f 536/608/366 553/609/366 552/610/366 535/611/366
f 390/602/367 557/601/367 300/206/367 125/205/367
f 335/583/368 323/579/368 379/582/368 364/584/368
f 364/160/369 379/148/369 524/149/369 522/134/369
f 325/612/370 105/210/370 299/209/370 558/613/370
f 332/593/371 320/576/371 110/144/371 88/211/371
f 369/614/372 387/615/372 388/616/372 368/598/372
f 87/194/373 107/188/373 323/579/373 335/583/373
f 330/577/374 319/617/374 113/215/374 96/145/374
f 521/618/375 523/619/375 320/620/375 332/572/375
f 368/598/376 388/616/376 319/617/376 330/577/376
f 95/189/377 118/221/377 317/621/377 331/580/377
f 331/580/378 317/621/378 386/622/378 370/581/378
f 370/151/379 386/224/379 387/223/379 369/150/379
f 388/616/380 393/599/380 390/602/380 319/617/380
f 118/221/381 126/199/381 389/585/381 317/621/381
f 387/223/382 392/162/382 393/182/382 388/225/382
f 319/617/383 390/602/383 125/205/383 113/215/383
f 317/621/384 389/585/384 391/588/384 386/622/384
f 386/224/385 391/161/385 392/162/385 387/223/385
f 396/82/386 399/56/386 398/227/386 395/226/386
f 398/227/387 401/228/387 400/54/387 397/55/387
f 395/226/388 398/227/388 397/55/388 394/98/388
f 401/228/389 404/230/389 403/229/389 400/54/389
f 399/56/390 402/57/390 401/228/390 398/227/390
f 402/57/391 405/231/391 404/230/391 401/228/391
f 338/623/392 403/624/392 404/625/392 339/626/392
f 333/53/393 400/54/393 403/229/393 338/108/393
f 340/556/394 409/555/394 415/627/394 349/628/394
f 339/626/395 404/625/395 405/553/395 340/556/395
f 407/545/396 329/629/396 423/630/396 413/631/396
f 410/58/397 419/243/397 416/242/397 408/241/397
f 411/80/398 420/246/398 334/245/398 406/244/398
f 414/81/399 424/247/399 420/246/399 411/80/399
f 412/59/400 422/248/400 419/243/400 410/58/400
f 408/554/401 416/632/401 417/633/401 409/555/401
f 402/57/402 410/58/402 408/241/402 405/231/402
f 349/251/403 415/252/403 414/81/403 354/78/403
f 321/537/404 407/545/404 413/631/404 396/538/404
f 359/79/405 411/80/405 406/244/405 361/253/405
f 419/243/406 430/255/406 428/254/406 416/242/406
f 420/246/407 431/257/407 426/256/407 334/245/407
f 424/247/408 434/258/408 431/257/408 420/246/408
f 422/248/409 432/259/409 430/255/409 419/243/409
f 416/632/410 428/634/410 429/635/410 417/633/410
f 423/262/411 433/263/411 432/259/411 422/248/411
f 415/252/412 425/264/412 424/247/412 414/81/412
f 409/555/413 417/633/413 425/636/413 415/627/413
f 406/544/414 334/637/414 329/629/414 407/545/414
f 413/83/415 423/262/415 422/248/415 412/59/415
f 454/638/416 418/639/416 443/640/416 453/641/416
f 450/271/417 439/274/417 436/273/417 451/272/417
f 448/275/418 440/278/418 421/277/418 446/276/418
f 447/279/419 444/280/419 440/278/419 448/275/419
f 449/281/420 442/282/420 439/274/420 450/271/420
f 436/273/421 458/284/421 460/283/421 451/272/421
f 329/629/422 427/642/422 433/643/422 423/630/422
f 425/264/423 435/287/423 434/258/423 424/247/423
f 417/633/424 429/635/424 435/644/424 425/636/424
f 334/637/425 426/645/425 427/642/425 329/629/425
f 421/646/426 440/647/426 441/648/426 418/649/426
f 437/650/427 436/651/427 439/652/427 438/653/427
f 440/647/428 444/654/428 438/653/428 441/648/428
f 441/648/429 442/655/429 443/656/429 418/649/429
f 444/654/430 445/657/430 437/650/430 438/653/430
f 438/653/431 439/652/431 442/655/431 441/648/431
f 455/302/432 445/303/432 444/280/432 447/279/432
f 455/302/433 461/305/433 459/304/433 445/303/433
f 446/658/434 421/659/434 418/639/434 454/638/434
f 453/308/435 443/309/435 442/282/435 449/281/435
f 433/263/436 453/308/436 449/281/436 432/259/436
f 426/645/437 446/658/437 454/638/437 427/642/437
f 429/635/438 452/660/438 455/661/438 435/644/438
f 435/287/439 455/302/439 447/279/439 434/258/439
f 428/634/440 451/662/440 452/660/440 429/635/440
f 432/259/441 449/281/441 450/271/441 430/255/441
f 434/258/442 447/279/442 448/275/442 431/257/442
f 431/257/443 448/275/443 446/276/443 426/256/443
f 430/255/444 450/271/444 451/272/444 428/254/444
f 427/642/445 454/638/445 453/641/445 433/643/445
f 460/663/446 458/664/446 457/665/446 456/666/446
f 456/666/447 457/665/447 459/667/447 461/668/447
f 451/669/448 460/670/448 456/671/448 452/672/448
f 437/650/449 457/673/449 458/674/449 436/651/449
f 452/672/450 456/671/450 461/675/450 455/676/450
f 445/657/451 459/677/451 457/673/451 437/650/451
f 462/328/452 465/331/452 466/330/452 463/329/452
f 466/330/453 469/332/453 470/123/453 467/124/453
f 463/329/454 466/330/454 467/124/454 464/333/454
f 465/331/455 468/334/455 469/332/455 466/330/455
f 308/529/456 463/528/456 464/562/456 306/565/456
f 314/507/457 465/678/457 462/679/457 307/508/457
f 467/124/458 477/125/458 479/337/458 464/333/458
f 316/520/459 468/680/459 465/678/459 314/507/459
f 474/4/460 482/340/460 483/339/460 475/3/460
f 476/681/461 484/682/461 480/683/461 472/684/461
f 473/564/462 481/685/462 482/686/462 474/687/462
f 477/125/463 485/349/463 487/348/463 479/337/463
f 315/521/464 472/684/464 478/688/464 470/522/464
f 367/533/465 476/681/465 472/684/465 315/521/465
f 372/2/466 475/3/466 476/352/466 367/351/466
f 306/565/467 473/564/467 474/687/467 385/689/467
f 498/690/468 492/691/468 488/692/468 501/693/468
f 499/358/469 507/361/469 506/360/469 490/359/469
f 313/362/470 493/365/470 495/364/470 496/363/470
f 497/366/471 491/369/471 492/368/471 498/367/471
f 479/563/472 487/694/472 481/685/472 473/564/472
f 472/684/473 480/683/473 486/695/473 478/688/473
f 478/126/474 486/372/474 485/349/474 477/125/474
f 475/3/475 483/339/475 484/373/475 476/352/475
f 489/696/476 495/697/476 493/698/476 471/699/476
f 489/696/477 471/699/477 491/700/477 490/701/477
f 471/699/478 488/702/478 492/703/478 491/700/478
f 471/699/479 493/698/479 494/704/479 488/702/479
f 499/358/480 490/359/480 491/369/480 497/366/480
f 495/364/481 504/384/481 503/383/481 496/363/481
f 501/693/482 488/692/482 494/705/482 502/706/482
f 502/387/483 494/388/483 493/365/483 313/362/483
f 516/389/484 502/387/484 313/362/484 509/390/484
f 515/707/485 501/693/485 502/706/485 516/708/485
f 512/709/486 496/710/486 500/711/486 511/712/486
f 514/397/487 499/358/487 497/366/487 510/398/487
f 510/398/488 497/366/488 498/367/488 513/399/488
f 509/390/489 313/362/489 496/363/489 512/400/489
f 511/712/490 500/711/490 499/713/490 514/714/490
f 513/715/491 498/690/491 501/693/491 515/707/491
f 508/716/492 505/717/492 506/718/492 507/719/492
f 503/720/493 504/721/493 505/717/493 508/716/493
f 500/722/494 508/723/494 507/724/494 499/725/494
f 490/701/495 506/726/495 505/727/495 489/696/495
f 496/728/496 503/729/496 508/723/496 500/722/496
f 489/696/497 505/727/497 504/730/497 495/697/497
f 484/682/498 513/715/498 515/707/498 480/683/498
f 481/685/499 511/712/499 514/714/499 482/686/499
f 485/349/500 509/390/500 512/400/500 487/348/500
f 483/339/501 510/398/501 513/399/501 484/373/501
f 482/340/502 514/397/502 510/398/502 483/339/502
f 487/694/503 512/709/503 511/712/503 481/685/503
f 480/683/504 515/707/504 516/708/504 486/695/504
f 486/372/505 516/389/505 509/390/505 485/349/505
f 252/419/506 517/731/506 518/732/506 251/420/506
f 519/733/507 517/734/507 252/425/507 257/424/507
f 258/427/508 251/420/508 518/732/508 520/735/508
f 24/107/509 258/430/509 520/736/509 366/519/509
f 365/530/510 519/737/510 257/431/510 26/119/510
f 366/532/511 520/735/511 519/737/511 365/530/511
f 362/433/512 521/133/512 522/134/512 363/434/512
f 537/435/513 523/172/513 521/133/513 362/433/513
f 363/434/514 522/134/514 524/149/514 538/436/514
f 538/436/515 524/149/515 523/172/515 537/435/515 545/438/515 546/437/515
f 362/738/516 525/739/516 541/740/516 537/741/516
f 528/443/517 542/446/517 540/445/517 526/444/517
f 538/436/518 544/448/518 529/447/518 363/434/518
f 540/742/519 539/743/519 527/744/519 526/745/519
f 539/743/520 541/740/520 525/739/520 527/744/520
f 528/443/521 530/454/521 543/453/521 542/446/521
f 530/454/522 529/447/522 544/448/522 543/453/522
f 363/746/523 529/747/523 530/748/523 528/749/523 526/750/523 527/751/523 525/752/523 362/753/523
f 378/754/524 538/755/524 546/756/524
f 533/757/525 539/758/525 540/759/525 531/760/525
f 532/761/526 541/762/526 539/758/526 533/757/526
f 535/611/527 542/763/527 543/764/527 536/608/527
f 536/608/528 543/764/528 544/765/528 534/766/528
f 531/760/529 540/759/529 542/763/529 535/611/529
f 381/767/530 537/768/530 541/762/530 532/761/530
f 534/766/531 544/765/531 538/755/531 378/754/531
f 547/769/532 551/770/532 549/771/532 550/772/532 552/610/532 553/609/532 554/773/532 548/774/532
f 545/775/533 537/768/533 381/767/533
f 532/761/534 551/770/534 547/769/534 381/767/534
f 556/776/535 555/777/535 547/769/535 548/774/535
f 381/767/536 547/769/536 555/777/536 545/775/536
f 378/754/537 548/774/537 554/773/537 534/766/537
f 534/766/538 554/773/538 553/609/538 536/608/538
f 531/760/539 550/772/539 549/771/539 533/757/539
f 545/438/540 555/488/540 556/487/540 546/437/540
f 535/611/541 552/610/541 550/772/541 531/760/541
f 546/756/542 556/776/542 548/774/542 378/754/542
f 533/757/543 549/771/543 551/770/543 532/761/543
f 559/778/544 374/779/544 326/780/544 557/781/544
f 558/613/545 561/605/545 377/604/545 560/782/545
f 375/783/546 325/612/546 558/613/546 560/782/546
f 326/606/547 561/605/547 303/496/547 302/495/547
f 299/497/548 303/500/548 561/784/548 558/785/548
f 557/781/549 326/780/549 302/502/549 300/501/549
f 560/184/550 377/504/550 374/503/550 559/183/550
f 562/786/551 575/787/551 574/788/551
f 563/789/552 575/790/552 577/791/552
f 562/792/553 574/793/553 579/794/553
f 562/795/554 579/796/554 581/797/554
f 562/798/555 581/799/555 578/800/555
f 563/789/556 577/791/556 584/801/556
f 564/802/557 576/803/557 586/804/557
f 565/805/558 580/806/558 588/807/558
f 566/808/559 582/809/559 590/810/559
f 567/811/560 583/812/560 592/813/560
f 563/789/561 584/801/561 587/814/561
f 564/802/562 586/804/562 589/815/562
f 565/805/563 588/807/563 591/816/563
f 566/808/564 590/810/564 593/817/564
f 567/811/565 592/813/565 585/818/565
f 568/819/566 594/820/566 599/821/566
f 569/822/567 595/823/567 601/824/567
f 570/825/568 596/826/568 602/827/568
f 571/828/569 597/829/569 603/830/569
f 572/831/570 598/832/570 600/833/570
f 600/833/571 603/834/571 573/835/571
f 600/833/572 598/832/572 603/834/572
f 598/832/573 571/828/573 603/834/573
f 603/830/574 602/836/574 573/837/574
f 603/830/575 597/829/575 602/836/575
f 597/829/576 570/825/576 602/836/576
f 602/827/577 601/838/577 573/839/577
f 602/827/578 596/826/578 601/838/578
f 596/826/579 569/840/579 601/838/579
f 601/824/580 599/841/580 573/842/580
f 601/824/581 595/823/581 599/841/581
f 595/823/582 568/819/582 599/841/582
f 599/821/583 600/843/583 573/844/583
f 599/821/584 594/820/584 600/843/584
f 594/820/585 572/831/585 600/843/585
f 585/818/586 598/832/586 572/831/586
f 585/818/587 592/813/587 598/832/587
f 592/813/588 571/828/588 598/832/588
f 593/817/589 597/829/589 571/828/589
f 593/817/590 590/810/590 597/829/590
f 590/810/591 570/825/591 597/829/591
f 591/816/592 596/826/592 570/825/592
f 591/816/593 588/807/593 596/826/593
f 588/807/594 569/840/594 596/826/594
f 589/815/595 595/823/595 569/822/595
f 589/815/596 586/804/596 595/823/596
f 586/804/597 568/819/597 595/823/597
f 587/814/598 594/820/598 568/819/598
f 587/814/599 584/801/599 594/820/599
f 584/801/600 572/831/600 594/820/600
f 592/813/601 593/817/601 571/828/601
f 592/813/602 583/812/602 593/817/602
f 583/812/603 566/808/603 593/817/603
f 590/810/604 591/816/604 570/825/604
f 590/810/605 582/809/605 591/816/605
f 582/809/606 565/805/606 591/816/606
f 588/807/607 589/845/607 569/840/607
f 588/807/608 580/806/608 589/845/608
f 580/806/609 564/846/609 589/845/609
f 586/804/610 587/814/610 568/819/610
f 586/804/611 576/803/611 587/814/611
f 576/803/612 563/789/612 587/814/612
f 584/801/613 585/818/613 572/831/613
f 584/801/614 577/791/614 585/818/614
f 577/791/615 567/811/615 585/818/615
f 578/800/616 583/812/616 567/811/616
f 578/800/617 581/799/617 583/812/617
f 581/799/618 566/808/618 583/812/618
f 581/797/619 582/809/619 566/808/619
f 581/797/620 579/796/620 582/809/620
f 579/796/621 565/805/621 582/809/621
f 579/794/622 580/806/622 565/805/622
f 579/794/623 574/793/623 580/806/623
f 574/793/624 564/846/624 580/806/624
f 577/791/625 578/847/625 567/811/625
f 577/791/626 575/790/626 578/847/626
f 575/790/627 562/848/627 578/847/627
f 574/788/628 576/803/628 564/802/628
f 574/788/629 575/787/629 576/803/629
f 575/787/630 563/789/630 576/803/630
f 604/786/631 616/788/631 617/787/631
f 605/789/632 619/791/632 617/790/632
f 604/792/633 621/794/633 616/793/633
f 604/795/634 623/797/634 621/796/634
f 604/798/635 620/800/635 623/799/635
f 605/789/636 626/801/636 619/791/636
f 606/802/637 628/804/637 618/803/637
f 607/805/638 630/807/638 622/806/638
f 608/808/639 632/810/639 624/809/639
f 609/811/640 634/813/640 625/812/640
f 605/789/641 629/814/641 626/801/641
f 606/802/642 631/815/642 628/804/642
f 607/805/643 633/816/643 630/807/643
f 608/808/644 635/817/644 632/810/644
f 609/811/645 627/818/645 634/813/645
f 610/819/646 641/821/646 636/820/646
f 611/822/647 643/824/647 637/823/647
f 612/825/648 644/827/648 638/826/648
f 613/828/649 645/830/649 639/829/649
f 614/831/650 642/833/650 640/832/650
f 642/833/651 615/835/651 645/834/651
f 642/833/652 645/834/652 640/832/652
f 640/832/653 645/834/653 613/828/653
f 645/830/654 615/837/654 644/836/654
f 645/830/655 644/836/655 639/829/655
f 639/829/656 644/836/656 612/825/656
f 644/827/657 615/839/657 643/838/657
f 644/827/658 643/838/658 638/826/658
f 638/826/659 643/838/659 611/840/659
f 643/824/660 615/842/660 641/841/660
f 643/824/661 641/841/661 637/823/661
f 637/823/662 641/841/662 610/819/662
f 641/821/663 615/844/663 642/843/663
f 641/821/664 642/843/664 636/820/664
f 636/820/665 642/843/665 614/831/665
f 627/818/666 614/831/666 640/832/666
f 627/818/667 640/832/667 634/813/667
f 634/813/668 640/832/668 613/828/668
f 635/817/669 613/828/669 639/829/669
f 635/817/670 639/829/670 632/810/670
f 632/810/671 639/829/671 612/825/671
f 633/816/672 612/825/672 638/826/672
f 633/816/673 638/826/673 630/807/673
f 630/807/674 638/826/674 611/840/674
f 631/815/675 611/822/675 637/823/675
f 631/815/676 637/823/676 628/804/676
f 628/804/677 637/823/677 610/819/677
f 629/814/678 610/819/678 636/820/678
f 629/814/679 636/820/679 626/801/679
f 626/801/680 636/820/680 614/831/680
f 634/813/681 613/828/681 635/817/681
f 634/813/682 635/817/682 625/812/682
f 625/812/683 635/817/683 608/808/683
f 632/810/684 612/825/684 633/816/684
f 632/810/685 633/816/685 624/809/685
f 624/809/686 633/816/686 607/805/686
f 630/807/687 611/840/687 631/845/687
f 630/807/688 631/845/688 622/806/688
f 622/806/689 631/845/689 606/846/689
f 628/804/690 610/819/690 629/814/690
f 628/804/691 629/814/691 618/803/691
f 618/803/692 629/814/692 605/789/692
f 626/801/693 614/831/693 627/818/693
f 626/801/694 627/818/694 619/791/694
f 619/791/695 627/818/695 609/811/695
f 620/800/696 609/811/696 625/812/696
f 620/800/697 625/812/697 623/799/697
f 623/799/698 625/812/698 608/808/698
f 623/797/699 608/808/699 624/809/699
f 623/797/700 624/809/700 621/796/700
f 621/796/701 624/809/701 607/805/701
f 621/794/702 607/805/702 622/806/702
f 621/794/703 622/806/703 616/793/703
f 616/793/704 622/806/704 606/846/704
f 619/791/705 609/811/705 620/847/705
f 619/791/706 620/847/706 617/790/706
f 617/790/707 620/847/707 604/848/707
f 616/788/708 606/802/708 618/803/708
f 616/788/709 618/803/709 617/787/709
f 617/787/710 618/803/710 605/789/710
