# Blender 5.1.1
# www.blender.org
o Куб.001
v 0.566346 1.770318 0.923103
v 0.462934 2.868069 0.120448
v 0.627473 1.244254 0.139660
v 0.630897 2.448612 -0.243021
v 0.056468 1.137779 0.157565
v 0.003928 2.500059 -0.454178
v 0.739394 1.873790 0.210296
v 0.638783 1.387043 0.529094
v 0.579586 2.673185 -0.030796
v 0.682942 2.283703 0.612157
v 0.087397 1.756225 1.119079
v -0.094229 2.942497 0.112880
v 0.751014 1.933433 0.311325
v 0.047709 1.263077 0.674477
v -0.036490 2.778519 -0.125055
v 0.828887 0.287786 -0.211576
v 0.556132 2.288644 -0.427661
v 0.074353 1.120644 -0.102652
v 0.000357 2.246734 -0.633141
v 0.476468 1.273411 -0.490427
v 0.474292 2.073577 -0.640048
v 0.061177 3.331828 2.905424
v 0.082112 1.133026 -0.323862
v 0.001791 1.995716 -0.829420
v 0.576499 1.660619 -0.650534
v 0.038460 1.464831 -0.638032
v 0.060298 3.732384 2.902163
v 0.146664 4.100041 2.625833
v 0.481059 2.293685 1.215771
v 0.469327 3.156569 0.437743
v 0.143456 3.313515 2.702878
v 0.634718 2.587470 0.838872
v 0.095142 2.151870 1.433015
v -0.042761 3.277585 0.460180
v 0.034032 3.390066 3.130074
v 0.011140 3.558096 3.164687
v 0.020173 3.323069 3.030552
v 0.562480 3.473235 0.661059
v 0.504414 1.805136 1.237638
v 0.095344 2.284683 1.769819
v -0.046211 3.601792 0.699271
v 0.095706 3.936171 2.854290
v 0.105581 3.313452 2.820354
v 0.145256 4.250195 2.329231
v 0.579302 3.593361 0.818161
v 0.431542 1.788918 1.320960
v 0.092543 2.426889 1.878779
v -0.045217 3.727915 0.816318
v 0.156875 3.321062 2.582340
v 0.132225 4.304007 2.014129
v 0.141055 3.328208 2.435992
v 0.536378 3.722630 1.058793
v 0.740991 3.128860 1.495299
v 0.711953 2.399583 1.893496
v 0.072485 2.692214 1.924065
v -0.040961 3.843837 0.968039
v 0.130433 4.220355 1.674722
v 0.162185 3.348703 2.125858
v 0.426325 3.907813 1.319148
v 0.616563 3.190087 1.738864
v 0.542664 2.957990 1.873582
v 0.049814 2.929462 1.936785
v -0.050053 4.021475 1.218708
v 0.182162 3.988972 1.247997
v 0.297012 2.948838 1.906499
v 0.241005 3.800428 0.980056
v 0.472694 2.494239 1.849688
v 0.316934 4.161514 1.691263
v 0.432718 3.665306 2.075620
v 0.348391 3.378360 2.084057
v -0.020514 3.320073 2.141864
v -0.052649 4.228585 1.651274
v 0.279184 3.667873 0.804735
v 0.406537 2.430417 1.769510
v 0.271535 3.547882 0.652990
v 0.312975 4.246862 2.015505
v 0.403448 3.771775 2.278667
v 0.321460 3.370507 2.387949
v -0.036405 3.301321 2.432037
v -0.046409 4.310563 1.978980
v 0.392931 2.376065 1.647737
v 0.212580 3.223195 0.409620
v 0.377919 2.312603 1.398676
v 0.341584 4.063005 2.359191
v 0.424972 3.837975 2.399101
v 0.348418 3.359327 2.525900
v -0.034447 3.293967 2.573827
v -0.032584 4.271996 2.298098
v 0.294375 1.499757 -0.585694
v 0.205420 2.010609 -0.784135
v 0.344772 1.235306 -0.399505
v 0.217313 3.900900 2.806452
v 0.312317 3.638972 2.758650
v 0.245116 3.339761 2.773304
v -0.031280 3.297657 2.790108
v -0.022855 3.954561 2.822509
v 0.257097 2.205071 -0.639837
v 0.307234 1.189446 -0.144841
v 0.272478 2.732227 -0.137648
v 0.046045 3.553743 3.142331
v 0.100251 3.396665 3.089049
v 0.076025 3.347211 3.021465
v -0.027428 3.315482 3.042005
v 0.040755 3.504164 3.158494
v -0.025396 3.380104 3.128493
v 0.435986 3.902886 2.469488
v -0.032857 3.292577 2.685186
v 0.320581 3.344965 2.649049
v 0.346494 1.270084 0.555246
v -0.025791 4.128375 2.595797
v 0.373409 4.046852 2.451407
v 0.177540 2.902091 0.069070
v -0.024355 3.735787 2.901993
v 0.330000 1.744923 1.018348
v 0.319094 2.424349 -0.470288
v 0.380674 1.166241 0.111953
v 0.157100 3.352741 2.862005
v -0.029888 3.320527 2.867366
v 0.183778 3.518089 2.924187
v 0.150478 3.693739 2.885465
v 0.041810 3.325989 2.962904
v 0.043979 3.612382 3.053478
v 0.111592 3.341908 2.950676
v 0.135110 3.458170 3.005957
v -0.023753 3.619072 3.041639
v -0.028721 3.317402 2.950790
v 0.110628 3.594589 3.024535
v 0.604891 3.134197 0.598884
v 0.727746 2.641123 0.861181
v 0.635174 2.450621 1.141035
v 0.671588 3.387808 0.730195
v 0.830536 2.848009 1.189108
v 0.874919 2.390977 1.446525
v 0.641196 3.505838 0.868304
v 0.861620 2.965884 1.311434
v 0.936953 2.354567 1.611864
v 0.658682 3.514825 1.102737
v 0.832669 3.107114 1.457780
v 0.912617 2.380701 1.784825
v 0.410922 2.033480 1.290435
v 0.485985 2.072142 1.196512
v 0.843759 1.928511 1.611250
v 0.714176 1.903851 1.707641
v 0.854525 1.938989 1.481980
v 0.451723 1.944510 1.495631
v 0.808930 1.974219 1.363415
v 0.620499 2.086666 1.143850
v 0.497163 1.904726 1.628608
v 0.568401 1.914923 1.716178
v 0.815870 1.720159 1.518871
v 0.687292 1.712512 1.604293
v 0.441739 1.371008 1.091581
v 0.836997 1.730285 1.417004
v 0.448647 1.751581 1.451267
v 0.348618 1.359325 1.180117
v 0.796609 1.751142 1.325409
v 0.637041 1.803266 1.200444
v 0.483717 1.728968 1.559501
v 0.546609 1.720883 1.615135
v 0.394830 1.613333 1.237532
v 0.478267 1.623971 1.155631
v 0.800693 1.544258 1.398966
v 0.658277 1.540499 1.485779
v 0.794727 1.553905 1.313592
v 0.412185 1.581233 1.356016
v 0.758112 1.572060 1.230113
v 0.624933 1.618054 1.112723
v 0.445828 1.560878 1.454319
v 0.507448 1.552325 1.503674
v 0.817824 1.264963 1.334783
v 0.632941 1.260124 1.435544
v 0.634031 1.291172 1.310143
v 0.789318 1.286949 1.254497
v 0.366233 1.323054 1.306171
v 0.593052 1.318132 1.214149
v 0.751960 1.310682 1.166856
v 0.604197 1.363466 1.043824
v 0.403428 1.295927 1.407866
v 0.440624 1.277652 1.466046
v 0.370318 1.491533 1.211844
v 0.424322 1.434684 1.434575
v 0.387658 1.457967 1.334487
v 0.759207 1.446700 1.200151
v 0.796013 1.426526 1.286656
v 0.811876 1.465320 1.384912
v 0.657209 1.458172 1.478116
v 0.617087 1.495293 1.079937
v 0.460139 1.502168 1.126017
v 0.492410 1.474856 1.497293
v 0.681843 1.334021 1.582576
v 0.670540 1.219147 1.559667
v 0.826562 1.225250 1.467762
v 0.507101 1.235183 1.580521
v 0.832422 1.340697 1.493323
v 0.523786 1.350101 1.602007
v 0.785129 2.307613 -0.185970
v 0.815715 1.826752 0.099904
v 0.785513 1.260168 0.056938
v 0.770260 2.186693 -0.395822
v 0.872453 1.747639 -0.384773
v 0.825963 1.257929 -0.202214
v 0.752813 2.031096 -0.580502
v 0.845439 1.707791 -0.605329
v 0.750325 1.280582 -0.477529
v 0.609912 0.060138 -0.211435
v 0.527338 0.938101 -0.504264
v 0.655841 1.041393 0.101784
v 0.457114 1.014723 0.039839
v 0.390111 0.974986 -0.217433
v 0.416620 0.942906 -0.454922
v 0.813201 0.986132 -0.217702
v 0.751200 0.942747 -0.469796
v 0.782075 1.030882 0.024781
v 0.543988 0.746837 -0.441557
v 0.658800 0.589126 0.092805
v 0.477898 0.600837 0.031875
v 0.417922 0.686039 -0.194631
v 0.442965 0.738066 -0.399232
v 0.803479 0.688032 -0.187417
v 0.747880 0.741060 -0.408682
v 0.774108 0.613634 0.025583
v 0.546608 0.093857 -0.444934
v 0.678642 0.045144 0.007435
v 0.422223 0.035535 -0.039840
v 0.404721 0.056210 -0.233502
v 0.433865 0.086519 -0.409348
v 0.833674 0.061803 -0.232154
v 0.773225 0.089109 -0.419878
v 0.843448 0.046442 -0.052913
v 0.836572 0.268911 -0.036824
v 0.399908 0.282241 -0.213892
v 0.429063 0.310898 -0.388911
v 0.415335 0.259311 -0.024502
v 0.671670 0.263038 0.021268
v 0.541816 0.318709 -0.424273
v 0.768440 0.314070 -0.398995
v 0.797439 0.152347 0.081901
v 0.803760 0.040072 0.087113
v 0.675141 0.037770 0.145785
v 0.474204 0.028366 0.097782
v 0.467892 0.139237 0.093248
v 0.668814 0.152781 0.139673
v 0.792960 0.506341 -0.197019
v 0.433490 0.502708 -0.199214
v 0.657401 0.464085 0.029895
v 0.765058 0.473717 -0.025462
v 0.457522 0.539592 -0.362866
v 0.488877 0.464765 -0.017600
v 0.551919 0.547631 -0.395867
v 0.741899 0.542114 -0.371567
v 0.002344 1.840205 -0.858016
v 0.013810 1.569487 -0.797689
v 0.109051 1.595201 -0.760520
v 0.078835 1.839728 -0.829835
v 0.149443 1.594672 -0.696909
v 0.090809 1.939911 -0.822326
v 0.016362 1.558489 -0.738841
v 0.002049 1.940506 -0.856692
v 0.319816 4.172359 2.224617
v 0.430953 3.747437 2.383410
v 0.319493 4.048381 2.586220
v 0.441077 3.758219 2.581052
v 0.401344 4.106395 2.384669
v 0.479695 4.091845 2.406861
v 0.442505 4.115658 2.399006
v 0.507398 4.053314 2.409504
v 0.506314 3.961124 2.408748
v 0.520107 4.008317 2.410412
v 0.485067 4.065964 2.452716
v 0.426065 4.079517 2.451911
v 0.456728 4.083494 2.452569
v 0.497551 3.986983 2.457109
v 0.497848 4.049853 2.452545
v 0.507893 4.018958 2.453733
v 0.343592 4.053123 2.452237
v 0.430631 3.854581 2.472410
v 0.461395 4.107595 2.450374
v 0.500659 4.083580 2.451074
v 0.417818 4.101566 2.450021
v 0.518816 4.060979 2.451400
v 0.532624 4.018780 2.453496
v 0.518611 3.975778 2.457768
v 0.354357 4.032982 2.453438
v 0.420682 3.877094 2.470535
v 0.383454 4.028021 2.442697
v 0.428663 3.923344 2.456213
v 0.443578 4.054178 2.443646
v 0.464035 4.041239 2.443828
v 0.421462 4.051312 2.443211
v 0.473265 4.029399 2.443765
v 0.480526 4.006786 2.444705
v 0.473088 3.983145 2.447279
v 0.369768 4.016953 2.444554
v 0.417637 3.905000 2.457123
v 0.035751 3.562665 3.130132
v 0.032018 3.479371 3.158877
v 0.076201 3.558819 3.101577
v 0.071228 3.475467 3.131248
v -0.023682 3.480861 3.162621
v -0.023102 3.561761 3.134874
v 0.007490 3.508482 3.180133
v -0.022738 3.556477 3.164508
v -0.023096 3.508503 3.180024
v -0.453456 1.701057 0.938680
v -0.593335 2.771341 0.235802
v -0.516041 1.176141 0.065564
v -0.612572 2.374541 -0.323607
v -0.697521 1.782726 0.148142
v -0.530846 1.311979 0.495166
v -0.639376 2.591621 -0.067377
v -0.621558 2.181203 0.694705
v -0.716302 1.836845 0.272560
v -0.556110 0.205284 -0.301309
v -0.503618 2.231501 -0.489877
v -0.289791 1.227772 -0.540065
v -0.400244 2.037822 -0.679077
v -0.119516 3.334018 2.908033
v -0.427629 1.606603 -0.709338
v -0.109025 3.734437 2.904607
v -0.197440 4.102881 2.630850
v -0.346094 2.241781 1.264829
v -0.541834 3.088736 0.510812
v -0.208026 3.317775 2.707952
v -0.580531 2.507965 0.914844
v -0.084495 3.391502 3.131786
v -0.056548 3.558917 3.165664
v -0.075141 3.324224 3.031928
v -0.635476 3.401128 0.730746
v -0.312190 1.755982 1.285141
v -0.140852 3.939038 2.857706
v -0.166788 3.316753 2.824286
v -0.208697 4.249644 2.334483
v -0.648275 3.519471 0.889571
v -0.228767 1.749172 1.359371
v -0.224732 3.325687 2.587849
v -0.221580 4.294112 2.019615
v -0.212974 3.332499 2.441103
v -0.592494 3.653264 1.116108
v -0.673953 3.043693 1.577609
v -0.512131 2.325902 1.964702
v -0.232658 4.205043 1.680171
v -0.201050 3.347795 2.133525
v -0.498530 3.849197 1.338444
v -0.544424 3.126910 1.799044
v -0.433258 2.906709 1.924121
v -0.273699 3.959344 1.254295
v -0.194156 2.925139 1.931085
v -0.314649 3.765029 1.000862
v -0.293958 2.448525 1.894023
v -0.412088 4.131354 1.702266
v -0.464453 3.640877 2.095481
v -0.380835 3.372318 2.100026
v -0.360956 3.629057 0.840292
v -0.228975 2.392164 1.806478
v -0.358437 3.509963 0.689636
v -0.397954 4.228063 2.026446
v -0.463620 3.772811 2.292207
v -0.389866 3.377230 2.398508
v -0.223130 2.338983 1.683574
v -0.296893 3.189714 0.446581
v -0.228512 2.275995 1.434228
v -0.403228 4.063372 2.370190
v -0.486185 3.842718 2.412428
v -0.416748 3.368449 2.536932
v -0.165191 1.479382 -0.607914
v -0.191981 2.007797 -0.787363
v -0.170291 1.205372 -0.432065
v -0.264883 3.906490 2.813429
v -0.367271 3.647209 2.768461
v -0.306946 3.346452 2.781273
v -0.235785 2.197088 -0.648696
v -0.157655 1.161754 -0.174960
v -0.335393 2.691784 -0.156883
v -0.092178 3.555418 3.144327
v -0.151691 3.399719 3.092687
v -0.130631 3.349715 3.024448
v -0.087628 3.505720 3.160347
v -0.494801 3.907733 2.483121
v -0.385817 3.353526 2.659247
v -0.236384 1.232599 0.533948
v -0.432041 4.049155 2.463352
v -0.347215 2.849739 0.143432
v -0.170016 1.708655 1.035748
v -0.281256 2.394852 -0.502431
v -0.260251 1.128066 0.070427
v -0.216117 3.357264 2.867393
v -0.236974 3.523188 2.930262
v -0.200559 3.697994 2.890533
v -0.098645 3.327691 2.964931
v -0.091258 3.614021 3.055430
v -0.168344 3.345301 2.954718
v -0.187433 3.462079 3.010613
v -0.159127 3.597858 3.028429
v -0.644034 3.054558 0.683149
v -0.672067 2.552206 0.949985
v -0.529457 2.380519 1.208783
v -0.724867 3.303752 0.811429
v -0.764052 2.752028 1.281867
v -0.723440 2.294769 1.539504
v -0.693051 3.425527 0.945920
v -0.794662 2.866189 1.407782
v -0.761156 2.252354 1.710645
v -0.684532 3.433550 1.178371
v -0.766089 3.010881 1.550782
v -0.720301 2.282412 1.879814
v -0.241197 1.994228 1.328369
v -0.330688 2.022985 1.244020
v -0.618396 1.840501 1.696306
v -0.476533 1.832180 1.776907
v -0.645200 1.848718 1.569222
v -0.247087 1.902447 1.536282
v -0.618149 1.888320 1.446431
v -0.471151 2.020957 1.207353
v -0.271775 1.858442 1.673338
v -0.333124 1.860658 1.768621
v -0.576661 1.636340 1.599876
v -0.439089 1.644713 1.669816
v -0.215363 1.331455 1.129806
v -0.610474 1.643158 1.501205
v -0.226115 1.710966 1.490520
v -0.111913 1.331605 1.206907
v -0.583723 1.668057 1.405705
v -0.447044 1.738012 1.263507
v -0.245489 1.685075 1.601921
v -0.300112 1.669917 1.664391
v -0.181213 1.578660 1.271041
v -0.274223 1.578676 1.199404
v -0.554519 1.462685 1.477801
v -0.403607 1.476582 1.547550
v -0.559653 1.472382 1.392379
v -0.180801 1.545540 1.390511
v -0.535363 1.494202 1.305357
v -0.423098 1.554971 1.173689
v -0.200185 1.521993 1.491899
v -0.254223 1.506478 1.547982
v -0.545440 1.182906 1.414086
v -0.350909 1.200904 1.492776
v -0.370184 1.230726 1.368560
v -0.529234 1.207582 1.331199
v -0.110383 1.294365 1.333896
v -0.344089 1.261723 1.268664
v -0.505359 1.235001 1.239996
v -0.380176 1.304214 1.101087
v -0.132068 1.263694 1.439017
v -0.159840 1.241508 1.500976
v -0.145450 1.460488 1.241848
v -0.166173 1.399141 1.468925
v -0.144367 1.425943 1.365435
v -0.524918 1.369406 1.274851
v -0.548806 1.345578 1.364887
v -0.557734 1.382881 1.464585
v -0.393597 1.394922 1.539243
v -0.404474 1.433803 1.139363
v -0.245208 1.459712 1.167048
v -0.230870 1.431320 1.539367
v -0.390978 1.269446 1.644984
v -0.368746 1.156590 1.620124
v -0.533944 1.143358 1.546905
v -0.207089 1.192194 1.622067
v -0.550571 1.257452 1.573775
v -0.234798 1.304440 1.646136
v -0.755100 2.215865 -0.285789
v -0.763467 1.731651 0.002473
v -0.662893 1.173892 -0.036917
v -0.699174 2.099160 -0.491052
v -0.749312 1.651031 -0.489869
v -0.669124 1.168869 -0.299095
v -0.648126 1.953449 -0.665018
v -0.692032 1.617773 -0.703265
v -0.561916 1.202410 -0.562560
v -0.313608 0.005125 -0.271258
v -0.298432 0.888907 -0.557764
v -0.515120 0.971645 0.025911
v -0.308328 0.969130 -0.009752
v -0.204568 0.939561 -0.255958
v -0.196331 0.906390 -0.494630
v -0.622434 0.900613 -0.310726
v -0.523834 0.866792 -0.552412
v -0.628265 0.946874 -0.066605
v -0.300280 0.696542 -0.496253
v -0.463412 0.522281 0.020097
v -0.278839 0.555762 -0.017147
v -0.200725 0.649187 -0.234705
v -0.205217 0.699452 -0.441220
v -0.581516 0.605530 -0.277155
v -0.504583 0.666450 -0.489832
v -0.571198 0.533499 -0.061583
v -0.225231 0.047877 -0.494928
v -0.407659 -0.019562 -0.062938
v -0.147966 0.001572 -0.076765
v -0.108270 0.025651 -0.266721
v -0.117931 0.053647 -0.445081
v -0.531460 -0.019516 -0.320597
v -0.451024 0.016180 -0.499192
v -0.562322 -0.037295 -0.143990
v -0.583921 0.184297 -0.128858
v -0.132774 0.250510 -0.248390
v -0.142358 0.276857 -0.425920
v -0.169611 0.224469 -0.062387
v -0.428332 0.197515 -0.049996
v -0.249751 0.271554 -0.475549
v -0.475594 0.239962 -0.479593
v -0.546881 0.072272 -0.005194
v -0.540501 -0.040000 0.000023
v -0.421135 -0.027529 0.074766
v -0.216001 -0.012744 0.053079
v -0.222311 0.098127 0.048544
v -0.427715 0.087467 0.068636
v -0.548444 0.426436 -0.283930
v -0.193790 0.465342 -0.239845
v -0.439160 0.398767 -0.041148
v -0.539180 0.396028 -0.109964
v -0.200765 0.500377 -0.405507
v -0.267199 0.419729 -0.066577
v -0.290416 0.497452 -0.450435
v -0.479948 0.469328 -0.450730
v -0.072123 1.593007 -0.762977
v -0.074345 1.839285 -0.830387
v -0.093016 1.590242 -0.701810
v -0.086952 1.939397 -0.822968
v -0.387725 4.167668 2.235213
v -0.493706 3.753311 2.396896
v -0.372503 4.053627 2.596327
v -0.498688 3.766688 2.594697
v -0.461609 4.107783 2.397581
v -0.538967 4.094450 2.422155
v -0.502045 4.117646 2.413235
v -0.566693 4.056459 2.425579
v -0.566186 3.965175 2.424569
v -0.579617 4.012028 2.426730
v -0.543378 4.068985 2.468054
v -0.484555 4.081758 2.465524
v -0.515049 4.086091 2.467097
v -0.556169 3.990770 2.472689
v -0.556215 4.053107 2.468237
v -0.566389 4.022536 2.469674
v -0.401837 4.055897 2.463217
v -0.489821 3.860187 2.485855
v -0.519598 4.110159 2.465093
v -0.558849 4.086678 2.466919
v -0.476211 4.103754 2.463407
v -0.577098 4.064354 2.467748
v -0.591098 4.022565 2.470172
v -0.577289 3.979777 2.473958
v -0.413126 4.035028 2.464826
v -0.479654 3.882418 2.483696
v -0.442446 4.030284 2.454949
v -0.487666 3.927726 2.469649
v -0.502318 4.056736 2.457736
v -0.522748 4.044225 2.458472
v -0.480310 4.053566 2.456668
v -0.531997 4.032570 2.458683
v -0.539321 4.010213 2.459825
v -0.531929 3.986889 2.462125
v -0.428748 4.019276 2.456380
v -0.476723 3.909669 2.470221
v -0.082028 3.564093 3.131832
v -0.079487 3.480723 3.160487
v -0.123367 3.561237 3.104458
v -0.119561 3.477780 3.134002
v -0.053657 3.509223 3.181016
v 0.264835 3.676616 2.783839
v 0.280732 3.746233 2.781281
v 0.243702 3.685462 2.825189
v 0.205806 3.646539 2.833751
v 0.219415 3.683254 2.795135
v 0.265722 3.744868 2.762707
v 0.231526 3.759182 2.829614
v 0.185220 3.697568 2.862041
v 0.170210 3.696204 2.843467
v 0.207240 3.756975 2.799560
v 0.245136 3.795898 2.790998
v 0.186107 3.765821 2.840909
v 0.259325 3.673985 2.803134
v 0.281090 3.709705 2.777326
v 0.268669 3.714905 2.801630
v 0.281611 3.749823 2.764905
v 0.272268 3.708903 2.766408
v 0.237050 3.651106 2.808167
v 0.224628 3.656306 2.832471
v 0.245049 3.672687 2.785469
v 0.210353 3.655008 2.814807
v 0.245570 3.712805 2.773048
v 0.269511 3.779818 2.781533
v 0.260689 3.779016 2.770616
v 0.239746 3.722516 2.830039
v 0.261512 3.758236 2.804231
v 0.190253 3.663421 2.854133
v 0.212528 3.686300 2.849100
v 0.189430 3.684200 2.820518
v 0.181431 3.662619 2.843215
v 0.238414 3.756137 2.775649
v 0.211195 3.719921 2.794709
v 0.240589 3.787429 2.809942
v 0.205371 3.729631 2.851701
v 0.169331 3.692614 2.859844
v 0.182273 3.727532 2.823119
v 0.226314 3.786131 2.792278
v 0.205892 3.769750 2.839280
v 0.213892 3.791331 2.816582
v 0.178674 3.733534 2.858340
v 0.169852 3.732732 2.847423
v 0.191617 3.768452 2.821615
v -0.318183 3.683682 2.792257
v -0.332456 3.753665 2.790134
v -0.295658 3.691999 2.832976
v -0.258484 3.652166 2.840454
v -0.272309 3.689214 2.802234
v -0.318026 3.751944 2.771135
v -0.281576 3.765401 2.837021
v -0.235860 3.702672 2.868120
v -0.221430 3.700951 2.849122
v -0.258228 3.762616 2.806280
v -0.295401 3.802449 2.798801
v -0.235702 3.770933 2.846999
v -0.312184 3.680911 2.811385
v -0.333813 3.717157 2.786203
v -0.320573 3.722046 2.810138
v -0.333720 3.757280 2.773789
v -0.325331 3.716146 2.775036
v -0.290334 3.657498 2.815781
v -0.277093 3.662387 2.839715
v -0.298460 3.679275 2.793316
v -0.263369 3.660749 2.821646
v -0.298367 3.719398 2.780901
v -0.320422 3.786968 2.790051
v -0.311940 3.785956 2.778883
v -0.290667 3.728945 2.837697
v -0.312296 3.765191 2.812515
v -0.241945 3.668660 2.860373
v -0.263795 3.692073 2.855977
v -0.241589 3.689425 2.826741
v -0.233463 3.667648 2.849206
v -0.290090 3.762543 2.783279
v -0.263219 3.725671 2.801559
v -0.290516 3.793866 2.817610
v -0.255518 3.735218 2.858355
v -0.220165 3.697335 2.865467
v -0.233313 3.732569 2.829118
v -0.276792 3.792229 2.799541
v -0.255425 3.775341 2.845940
v -0.263551 3.797117 2.823475
v -0.228554 3.738470 2.864220
v -0.220072 3.737458 2.853053
v -0.241702 3.773704 2.827871
vn -0.8490 -0.4672 0.2470
vn 0.4331 0.5268 -0.7313
vn 0.9826 -0.1836 0.0298
vn 0.9821 0.1836 -0.0422
vn 0.9536 0.2997 0.0283
vn 0.9600 -0.0723 0.2705
vn 0.9471 -0.0465 0.3175
vn 0.5821 -0.4124 0.7008
vn 0.3261 -0.9039 0.2767
vn 0.3320 -0.6492 0.6844
vn 0.1169 0.7509 -0.6500
vn 0.0639 0.8085 -0.5851
vn 0.3349 0.5544 -0.7619
vn 0.1348 -0.3588 -0.9236
vn 0.1674 -0.9854 -0.0296
vn 0.5711 0.5200 0.6352
vn 0.2020 -0.1549 -0.9670
vn -0.1106 -0.4598 -0.8811
vn 0.1863 0.0962 -0.9778
vn 0.3066 -0.9479 -0.0868
vn 0.7754 0.5084 -0.3745
vn 0.9267 -0.0708 -0.3692
vn 0.0064 0.7231 -0.6907
vn 0.9668 0.2065 -0.1505
vn 0.5669 -0.7501 -0.3406
vn 0.0695 0.7346 -0.6749
vn -0.0225 0.5977 -0.8014
vn -0.8410 0.0728 -0.5362
vn 0.6233 -0.2855 -0.7280
vn 0.1362 0.7956 -0.5903
vn -0.9477 -0.2190 0.2322
vn 0.7726 -0.0145 -0.6348
vn 0.0875 0.5833 -0.8075
vn 0.8267 0.2024 0.5249
vn -0.0307 -0.0468 0.9984
vn 0.3521 -0.5605 0.7495
vn 0.1172 -0.9648 0.2355
vn 0.2781 -0.6606 0.6973
vn 0.5008 -0.3374 0.7971
vn 0.7177 0.2115 -0.6635
vn 0.3707 0.6967 -0.6142
vn 0.7719 -0.0608 0.6328
vn 0.1910 -0.3944 0.8989
vn 0.2781 0.7501 -0.6000
vn 0.1650 0.8158 -0.5544
vn 0.1014 0.5970 -0.7958
vn 0.8879 0.4071 0.2141
vn 0.4884 -0.1121 0.8654
vn 0.8381 -0.0530 -0.5429
vn 0.1308 -0.6251 -0.7695
vn 0.9796 0.2005 -0.0112
vn 0.9676 -0.0157 -0.2519
vn 0.1430 0.8852 -0.4427
vn 0.4444 -0.8528 0.2742
vn 0.9507 0.2975 0.0873
vn 0.2293 0.7067 -0.6693
vn 0.2147 0.7628 -0.6100
vn 0.9791 0.1984 -0.0447
vn 0.1948 0.5465 -0.8145
vn 0.0523 0.9885 0.1418
vn 0.1852 -0.9822 -0.0308
vn 0.9668 -0.2084 0.1477
vn 0.2863 0.8351 -0.4698
vn 0.0786 0.9673 -0.2411
vn 0.0023 0.8030 0.5960
vn 0.3396 -0.7238 0.6007
vn 0.8471 -0.1646 0.5053
vn 0.2015 -0.9768 0.0732
vn 0.1437 -0.0581 0.9879
vn 0.1863 -0.9783 -0.0911
vn 0.9294 -0.2730 -0.2485
vn 0.1358 -0.3694 0.9193
vn 0.8702 -0.4296 0.2413
vn 0.3233 -0.9344 0.1497
vn 0.1445 -0.4387 0.8869
vn 0.3658 0.8109 -0.4567
vn 0.3571 0.8286 -0.4311
vn 0.7607 0.2406 0.6029
vn 0.3989 0.8941 0.2037
vn 0.1503 -0.9871 -0.0553
vn 0.1842 -0.8097 0.5572
vn 0.8915 0.0986 0.4422
vn 0.3032 0.9237 -0.2342
vn 0.3856 0.6912 0.6112
vn 0.1103 -0.9931 0.0404
vn 0.4309 0.7325 0.5270
vn 0.1465 -0.9875 -0.0587
vn 0.5489 0.2085 0.8095
vn 0.1357 -0.9907 -0.0128
vn 0.3908 -0.7946 0.4646
vn -0.2918 -0.0564 0.9548
vn 0.0088 0.8459 0.5333
vn 0.1681 -0.9839 -0.0600
vn 0.9712 -0.2327 0.0510
vn 0.0409 -0.3140 0.9485
vn 0.0510 0.8956 0.4420
vn 0.6431 0.1731 0.7460
vn 0.1317 -0.9908 -0.0315
vn -0.1173 0.2960 0.9480
vn 0.4498 0.8248 0.3428
vn 0.3479 0.1965 0.9167
vn 0.0382 -0.9660 0.2556
vn 0.3263 -0.8551 0.4030
vn 0.7867 -0.2181 0.5775
vn 0.4198 0.6836 0.5971
vn 0.1359 -0.9897 -0.0454
vn 0.8566 0.1896 0.4799
vn 0.0016 0.7757 0.6311
vn 0.2113 -0.9773 -0.0177
vn 0.8812 -0.3070 0.3595
vn 0.8498 -0.3726 -0.3729
vn 0.9654 0.1919 -0.1764
vn 0.9354 0.0083 -0.3536
vn 0.9449 0.3132 -0.0951
vn 0.9542 -0.0474 -0.2955
vn 0.9846 0.1536 0.0838
vn 0.6408 0.6103 0.4657
vn 0.8583 0.5033 -0.1005
vn -0.1671 -0.2947 0.9409
vn 0.4529 0.4102 0.7916
vn -0.3054 -0.1852 -0.9340
vn 0.9807 -0.1527 0.1217
vn -0.9871 -0.0444 0.1536
vn -0.9512 -0.0510 0.3043
vn 0.9276 0.0248 -0.3729
vn 0.5560 -0.4258 0.7138
vn 0.9694 -0.2122 0.1236
vn -0.6771 -0.2829 0.6794
vn -0.4197 0.0325 -0.9071
vn -0.9797 -0.1672 0.1110
vn 0.9787 -0.1967 0.0585
vn -0.9783 0.1197 0.1689
vn -0.9475 0.0191 0.3192
vn 0.9165 0.0152 -0.3997
vn 0.4678 -0.5393 0.7003
vn 0.6660 0.2590 -0.6996
vn -0.7070 -0.2389 0.6657
vn 0.0277 -0.4711 0.8817
vn -0.7361 -0.1487 -0.6604
vn 0.6985 -0.0204 -0.7153
vn -0.2591 0.2789 -0.9247
vn 0.9676 0.0574 -0.2459
vn -0.9780 0.1195 0.1710
vn -0.9307 0.0718 0.3586
vn 0.9231 0.0440 -0.3820
vn 0.9943 0.0251 -0.1035
vn -0.2380 0.4286 -0.8716
vn -0.6369 -0.3088 0.7064
vn 0.0421 -0.5649 0.8241
vn -0.6976 0.3989 -0.5951
vn -0.1255 -0.9579 -0.2582
vn -0.1063 -0.9662 -0.2349
vn -0.1121 -0.9689 -0.2208
vn -0.1224 -0.9571 -0.2627
vn -0.1221 -0.9643 -0.2351
vn -0.1085 -0.9692 -0.2213
vn -0.7577 0.0517 0.6505
vn -0.8731 0.1113 0.4747
vn -0.6808 0.2743 -0.6792
vn 0.6648 0.1402 -0.7338
vn 0.6762 0.1633 -0.7184
vn -0.6862 0.2732 -0.6742
vn 0.1074 -0.0978 0.9894
vn -0.6566 0.0211 0.7540
vn 0.5187 -0.0821 0.8510
vn 0.9215 0.0935 -0.3769
vn -0.9285 0.1128 0.3538
vn -0.9702 0.1589 0.1829
vn 0.9877 0.0857 -0.1310
vn -0.2610 0.2646 -0.9284
vn 0.5035 -0.2137 0.8371
vn 0.1020 -0.2007 0.9743
vn 0.3719 0.6416 0.6708
vn -0.1256 -0.9528 -0.2764
vn 0.1549 0.6558 0.7389
vn -0.1297 -0.9522 -0.2764
vn 0.9888 0.1482 0.0169
vn 0.9583 -0.2126 -0.1910
vn 0.9894 -0.0540 0.1352
vn 0.9438 0.2452 -0.2218
vn 0.6174 -0.1468 0.7729
vn 0.5450 0.6196 -0.5650
vn 0.9883 -0.0458 0.1453
vn 0.3187 0.6518 -0.6882
vn -0.9668 -0.0616 0.2480
vn -0.3739 -0.3026 -0.8767
vn -0.3069 -0.0270 0.9514
vn 0.9913 -0.0188 0.1304
vn 0.0943 0.0163 -0.9954
vn -0.5006 -0.0024 -0.8657
vn -0.9569 -0.2588 -0.1318
vn -0.1127 -0.3248 0.9391
vn -0.3041 0.0803 -0.9493
vn -0.9326 -0.0483 0.3577
vn 0.9985 0.0298 -0.0464
vn -0.9863 -0.0064 -0.1650
vn 0.5131 -0.0110 0.8583
vn 0.1480 -0.2927 -0.9447
vn 0.9678 -0.0695 -0.2419
vn -0.9845 -0.1271 -0.1205
vn -0.0079 -0.9972 -0.0745
vn 0.0434 -0.9945 -0.0951
vn 0.0283 -0.9872 -0.1568
vn -0.0054 -0.9899 -0.1418
vn -0.9961 -0.0323 0.0820
vn 0.9525 0.0277 0.3033
vn 0.1118 0.0938 -0.9893
vn 0.9527 0.0478 -0.3002
vn 0.9510 0.1580 -0.2659
vn 0.1202 0.1247 -0.9849
vn 0.3823 0.0353 0.9234
vn -0.9489 0.2276 0.2185
vn -0.9811 0.1469 -0.1257
vn 0.9665 0.2396 0.0921
vn -0.2144 -0.0061 0.9767
vn -0.3199 0.1385 -0.9373
vn -0.2304 0.0329 0.9725
vn 0.4110 0.0682 0.9091
vn -0.1684 0.6877 0.7062
vn 0.0544 -0.9966 -0.0621
vn 0.2603 0.6743 0.6911
vn -0.0083 -0.9987 -0.0506
vn -0.3361 -0.2085 -0.9185
vn -0.2857 -0.3877 0.8764
vn 0.9888 -0.0836 0.1240
vn -0.9841 -0.0904 -0.1530
vn -0.9642 -0.1201 0.2363
vn 0.4912 -0.3604 0.7930
vn 0.1351 -0.2011 -0.9702
vn 0.9602 -0.0613 -0.2725
vn 0.3739 -0.1978 -0.9062
vn 0.3202 -0.9261 -0.1995
vn 0.3540 0.0206 -0.9350
vn 0.2412 0.2661 -0.9333
vn 0.2904 -0.5899 -0.7534
vn 0.4672 -0.2413 -0.8506
vn 0.9613 0.2671 -0.0676
vn 0.9096 0.3995 0.1142
vn 0.9964 0.0559 -0.0637
vn 0.8952 0.3892 0.2171
vn -0.5763 0.8048 0.1420
vn 0.7730 0.5659 -0.2867
vn 0.8219 -0.5691 0.0248
vn 0.5351 0.8411 -0.0794
vn -0.2032 0.9646 0.1681
vn 0.9115 0.2664 -0.3135
vn 0.9398 -0.2947 -0.1728
vn 0.2634 -0.0089 -0.9646
vn -0.0411 0.0649 0.9970
vn 0.0338 0.0753 0.9966
vn -0.0252 0.0862 0.9960
vn 0.0180 0.0507 0.9985
vn 0.0149 0.0967 0.9952
vn 0.0448 0.0398 0.9982
vn -0.0056 0.0299 0.9995
vn 0.0716 0.0787 0.9943
vn 0.0048 0.0903 0.9959
vn 0.0453 0.0836 0.9955
vn 0.1881 -0.3217 0.9280
vn -0.0206 0.1108 0.9936
vn 0.2981 -0.2476 0.9219
vn -0.3876 0.4079 0.8267
vn -0.3931 0.2212 0.8925
vn -0.1468 -0.2247 0.9633
vn 0.7145 0.3704 0.5936
vn -0.2053 -0.1697 0.9639
vn -0.5000 0.3337 0.7991
vn 0.0189 -0.2982 0.9543
vn 0.3351 0.8726 0.3554
vn 0.5394 -0.1774 0.8231
vn 0.5336 -0.2435 0.8099
vn -0.0118 0.3028 0.9530
vn 0.0253 -0.5555 0.8311
vn -0.0198 0.9893 0.1444
vn 0.7636 0.1570 0.6263
vn 0.8594 -0.3654 0.3577
vn -0.4144 0.5060 -0.7565
vn -0.9519 -0.3030 0.0462
vn -0.9893 0.0332 -0.1422
vn -0.9865 0.1335 0.0950
vn -0.9277 -0.1728 0.3309
vn -0.8878 -0.1267 0.4424
vn -0.4525 -0.4740 0.7554
vn -0.2373 -0.9374 0.2547
vn -0.2451 -0.6964 0.6746
vn -0.1539 0.7410 -0.6536
vn -0.2631 0.8126 -0.5200
vn -0.3626 0.5217 -0.7722
vn 0.0379 -0.3522 -0.9352
vn -0.0445 -0.9981 -0.0433
vn -0.7204 0.4407 0.5355
vn -0.0656 -0.1532 -0.9860
vn 0.3199 -0.3911 -0.8629
vn -0.0525 0.0937 -0.9942
vn -0.1867 -0.9760 -0.1124
vn -0.8687 0.4094 -0.2789
vn -0.9480 -0.1836 -0.2601
vn -0.2680 0.6891 -0.6733
vn -0.9935 0.0988 0.0571
vn -0.5209 -0.8125 -0.2618
vn -0.2326 0.7165 -0.6577
vn -0.1520 0.5822 -0.7987
vn 0.7627 0.1625 -0.6259
vn -0.6936 -0.3480 -0.6308
vn -0.2867 0.7678 -0.5729
vn 0.9875 -0.1025 0.1196
vn -0.8334 -0.1112 -0.5414
vn -0.0725 0.5788 -0.8122
vn -0.8009 0.0901 0.5920
vn 0.1444 -0.0211 0.9893
vn -0.1887 -0.5905 0.7847
vn -0.0215 -0.9733 0.2285
vn -0.1973 -0.6738 0.7121
vn -0.3614 -0.3893 0.8472
vn -0.8173 0.0982 -0.5678
vn -0.3925 0.6726 -0.6273
vn -0.8023 -0.1678 0.5729
vn -0.0943 -0.3860 0.9177
vn -0.4041 0.8078 -0.4291
vn -0.2966 0.7773 -0.5548
vn -0.1012 0.5957 -0.7968
vn -0.9162 0.2836 0.2830
vn -0.5789 -0.1756 0.7962
vn -0.9414 -0.0963 -0.3232
vn 0.0135 -0.6283 -0.7778
vn -0.9937 0.1102 -0.0198
vn -0.9185 -0.1280 -0.3741
vn -0.2533 0.8603 -0.4424
vn -0.2923 -0.9062 0.3055
vn -0.9870 0.1380 0.0824
vn -0.4353 0.6316 -0.6415
vn -0.3736 0.7269 -0.5762
vn -0.9823 0.1867 -0.0146
vn -0.3581 0.4926 -0.7932
vn -0.0800 0.9879 0.1328
vn -0.1858 -0.9823 -0.0233
vn -0.9737 -0.2231 0.0455
vn -0.4353 0.7884 -0.4346
vn -0.1552 0.9579 -0.2416
vn 0.0303 0.8037 0.5943
vn -0.1792 -0.7556 0.6300
vn -0.8346 -0.1449 0.5314
vn -0.2229 -0.9716 0.0793
vn -0.0315 -0.0661 0.9973
vn -0.2103 -0.9742 -0.0818
vn -0.9333 -0.2588 -0.2488
vn 0.0153 -0.3782 0.9256
vn -0.8730 -0.4085 0.2665
vn -0.3414 -0.9263 0.1593
vn -0.0543 -0.4514 0.8906
vn -0.5047 0.7322 -0.4574
vn -0.4650 0.7689 -0.4389
vn -0.7375 0.2553 0.6252
vn -0.4200 0.8861 0.1960
vn -0.1625 -0.9846 -0.0636
vn -0.1876 -0.8052 0.5626
vn -0.8757 0.1200 0.4678
vn -0.3718 0.8975 -0.2371
vn -0.3548 0.6990 0.6209
vn -0.1331 -0.9901 0.0439
vn -0.3977 0.7425 0.5390
vn -0.1720 -0.9836 -0.0541
vn -0.5201 0.2214 0.8249
vn -0.1600 -0.9871 -0.0085
vn -0.3964 -0.7850 0.4760
vn 0.3196 -0.0596 0.9457
vn 0.0271 0.8457 0.5330
vn -0.1934 -0.9796 -0.0543
vn -0.9742 -0.2118 0.0780
vn -0.0211 -0.3133 0.9494
vn -0.0332 0.8975 0.4397
vn -0.6169 0.1880 0.7643
vn -0.1565 -0.9873 -0.0273
vn 0.1518 0.2927 0.9441
vn -0.4383 0.8293 0.3466
vn -0.3162 0.2045 0.9264
vn -0.0542 -0.9649 0.2569
vn -0.3352 -0.8471 0.4125
vn -0.7748 -0.1991 0.6001
vn -0.3857 0.6933 0.6087
vn -0.1611 -0.9861 -0.0411
vn -0.8375 0.2101 0.5044
vn 0.0354 0.7753 0.6307
vn -0.2353 -0.9719 -0.0112
vn -0.8776 -0.2857 0.3849
vn -0.8357 -0.4728 -0.2793
vn -0.9953 0.0739 -0.0623
vn -0.9615 -0.1137 -0.2502
vn -0.9803 0.1970 0.0167
vn -0.9694 -0.1631 -0.1836
vn -0.9796 0.0354 0.1981
vn -0.6383 0.5422 0.5464
vn -0.9160 0.4012 0.0044
vn 0.3103 -0.2654 0.9129
vn -0.4041 0.3586 0.8415
vn 0.2154 -0.1539 -0.9643
vn -0.9348 -0.2680 0.2331
vn 0.9965 0.0750 0.0383
vn 0.9792 0.0652 0.1920
vn -0.9607 -0.0888 -0.2630
vn -0.4149 -0.4842 0.7703
vn -0.9162 -0.3257 0.2333
vn 0.7766 -0.1948 0.5991
vn 0.3037 0.0752 -0.9498
vn 0.9987 -0.0502 -0.0021
vn -0.9348 -0.3119 0.1698
vn 0.9699 0.2370 0.0556
vn 0.9689 0.1345 0.2077
vn -0.9518 -0.0973 -0.2910
vn -0.3159 -0.5865 0.7458
vn -0.7685 0.1726 -0.6162
vn 0.8026 -0.1481 0.5779
vn 0.1309 -0.4649 0.8756
vn 0.6673 -0.0642 -0.7420
vn -0.7690 -0.1088 -0.6299
vn 0.1153 0.3014 -0.9465
vn -0.9894 -0.0604 -0.1320
vn 0.9699 0.2367 0.0577
vn 0.9506 0.1851 0.2492
vn -0.9597 -0.0693 -0.2725
vn -0.9954 -0.0947 0.0122
vn 0.0828 0.4479 -0.8902
vn 0.7466 -0.2255 0.6259
vn 0.1212 -0.5601 0.8195
vn 0.5715 0.4753 -0.6690
vn 0.2084 -0.9378 -0.2776
vn 0.1932 -0.9482 -0.2524
vn 0.2008 -0.9500 -0.2390
vn 0.2047 -0.9374 -0.2818
vn 0.2085 -0.9444 -0.2543
vn 0.1973 -0.9508 -0.2390
vn 0.8162 0.1464 0.5590
vn 0.9025 0.2182 0.3714
vn 0.5601 0.3490 -0.7514
vn -0.7570 0.0546 -0.6511
vn -0.7693 0.0763 -0.6343
vn 0.5661 0.3485 -0.7470
vn 0.0201 -0.1030 0.9945
vn 0.7320 0.1047 0.6732
vn -0.4033 -0.1376 0.9047
vn -0.9634 -0.0199 -0.2673
vn 0.9430 0.2254 0.2450
vn 0.9588 0.2750 0.0707
vn -0.9993 -0.0339 -0.0154
vn 0.1184 0.2874 -0.9505
vn -0.3743 -0.2665 0.8882
vn 0.0359 -0.2047 0.9782
vn -0.3660 0.5972 0.7138
vn 0.2058 -0.9328 -0.2957
vn -0.1458 0.6377 0.7564
vn 0.2098 -0.9318 -0.2962
vn -0.9937 0.0288 -0.1080
vn -0.8944 -0.3236 -0.3087
vn -0.9854 -0.1700 0.0089
vn -0.9383 0.1278 -0.3214
vn -0.7104 -0.2413 0.6611
vn -0.5451 0.5540 -0.6292
vn -0.9864 -0.1634 0.0173
vn -0.3233 0.6189 -0.7159
vn 0.9273 0.0512 0.3707
vn 0.5167 -0.2496 -0.8190
vn 0.1830 0.0022 0.9831
vn -0.9906 -0.1369 0.0020
vn 0.0332 0.0126 -0.9994
vn 0.6108 0.0661 -0.7890
vn 0.9907 -0.1355 -0.0116
vn 0.0285 -0.3164 0.9482
vn 0.4120 0.1230 -0.9029
vn 0.8780 0.0595 0.4750
vn -0.9807 -0.0881 -0.1746
vn 0.9931 0.1115 -0.0367
vn -0.6143 -0.0782 0.7852
vn 0.0104 -0.3009 -0.9536
vn -0.9136 -0.1816 -0.3638
vn 0.9999 -0.0089 0.0081
vn 0.1353 -0.9887 -0.0652
vn 0.0870 -0.9919 -0.0922
vn 0.1090 -0.9824 -0.1515
vn 0.1406 -0.9812 -0.1323
vn 0.9741 0.0851 0.2096
vn -0.9801 -0.0874 0.1781
vn 0.0061 0.0874 -0.9962
vn -0.9051 -0.0628 -0.4206
vn -0.9208 0.0465 -0.3872
vn -0.0065 0.1171 -0.9931
vn -0.4994 -0.0172 0.8662
vn 0.8793 0.3365 0.3369
vn 0.9648 0.2628 0.0005
vn -0.9918 0.1230 -0.0349
vn 0.0862 0.0119 0.9962
vn 0.4192 0.1825 -0.8894
vn 0.0979 0.0525 0.9938
vn -0.5297 0.0121 0.8481
vn -0.0064 0.6974 0.7167
vn 0.0723 -0.9955 -0.0609
vn -0.4249 0.6335 0.6467
vn 0.1327 -0.9903 -0.0414
vn 0.4737 -0.1603 -0.8660
vn 0.2144 -0.3579 0.9088
vn -0.9796 -0.2008 -0.0036
vn 0.9993 0.0278 -0.0244
vn 0.9332 -0.0071 0.3593
vn -0.5430 -0.4220 0.7260
vn 0.0156 -0.2082 -0.9780
vn -0.9031 -0.1723 -0.3933
vn -0.3761 -0.2316 -0.8972
vn -0.3217 -0.9339 -0.1563
vn -0.3474 0.0185 -0.9375
vn -0.2394 0.2704 -0.9325
vn -0.2507 -0.6346 -0.7311
vn -0.5191 -0.2879 -0.8047
vn -0.9602 0.2782 -0.0234
vn -0.9055 0.4005 0.1403
vn -0.9968 0.0691 -0.0395
vn -0.8837 0.4028 0.2383
vn 0.5823 0.8059 0.1068
vn -0.7747 0.5714 -0.2707
vn -0.8213 -0.5683 0.0498
vn -0.5284 0.8460 -0.0711
vn 0.2189 0.9635 0.1541
vn -0.9160 0.2739 -0.2931
vn -0.9450 -0.2899 -0.1514
vn -0.2938 -0.0059 -0.9558
vn 0.0702 0.0646 0.9954
vn -0.0031 0.0735 0.9973
vn 0.0562 0.0844 0.9948
vn 0.0124 0.0492 0.9987
vn 0.0155 0.0958 0.9953
vn -0.0143 0.0381 0.9992
vn 0.0369 0.0288 0.9989
vn -0.0412 0.0795 0.9960
vn 0.0256 0.0899 0.9956
vn -0.0144 0.0846 0.9963
vn -0.1586 -0.3215 0.9335
vn 0.0506 0.1113 0.9925
vn -0.2732 -0.2470 0.9297
vn 0.4129 0.4095 0.8135
vn 0.4196 0.2191 0.8808
vn 0.1724 -0.2291 0.9580
vn -0.6994 0.3809 0.6048
vn 0.2332 -0.1734 0.9569
vn 0.5231 0.3354 0.7835
vn 0.0051 -0.3004 0.9538
vn -0.3035 0.8803 0.3647
vn -0.5196 -0.1645 0.8384
vn -0.5158 -0.2308 0.8250
vn 0.0466 0.3021 0.9521
vn -0.0147 -0.5550 0.8317
vn 0.0480 0.9885 0.1434
vn -0.7412 0.1752 0.6480
vn 0.8943 -0.3998 0.2009
vn 0.9985 0.0039 0.0545
vn 0.7242 -0.6800 0.1141
vn 0.0914 -0.7376 -0.6691
vn 0.0228 -0.4790 -0.8775
vn 0.9420 0.3138 0.1194
vn 0.6980 -0.0192 0.7158
vn 0.3482 -0.5740 0.7411
vn -0.6211 -0.3038 -0.7224
vn -0.4341 -0.0176 -0.9007
vn 0.8030 0.2643 0.5342
vn 0.6075 -0.0390 0.7934
vn -0.3998 -0.8322 0.3842
vn -0.6413 -0.1525 -0.7520
vn -0.3690 0.1577 -0.9160
vn 0.4634 0.4015 0.7900
vn 0.2587 0.1454 0.9549
vn -0.9985 -0.0039 -0.0545
vn -0.7674 0.1523 -0.6228
vn -0.4437 0.8027 -0.3985
vn -0.7242 0.6800 -0.1141
vn -0.6822 0.5611 -0.4687
vn -0.7002 0.2957 -0.6499
vn -0.8943 0.3998 -0.2009
vn -0.8601 0.1788 -0.4778
vn -0.8861 0.0413 -0.4617
vn -0.7089 0.4544 0.5395
vn -0.7694 0.1980 0.6073
vn -0.1588 0.0724 0.9847
vn -0.0228 0.4790 0.8775
vn 0.2701 0.2815 0.9207
vn 0.4331 0.2615 0.8626
vn -0.0913 0.7376 0.6691
vn 0.2717 0.6478 0.7117
vn 0.2366 0.8646 0.4433
vn -0.3482 0.5740 -0.7412
vn -0.4713 0.2745 -0.8381
vn -0.5938 0.1934 -0.7810
vn -0.6981 0.0192 -0.7158
vn -0.7088 -0.0750 -0.7015
vn -0.7868 -0.0933 -0.6101
vn -0.9420 -0.3138 -0.1194
vn -0.6262 -0.5558 0.5469
vn -0.0613 -0.2338 0.9704
vn 0.4341 0.0176 0.9007
vn 0.5384 0.0384 0.8418
vn 0.5479 0.1324 0.8260
vn 0.6211 0.3038 0.7224
vn 0.6970 0.3807 0.6076
vn 0.6072 0.6608 0.4412
vn -0.6075 0.0390 -0.7934
vn -0.5384 -0.0384 -0.8418
vn -0.5479 -0.1324 -0.8260
vn -0.8030 -0.2643 -0.5342
vn -0.6970 -0.3807 -0.6076
vn -0.6072 -0.6608 -0.4412
vn 0.3690 -0.1578 0.9160
vn 0.4713 -0.2745 0.8381
vn 0.5938 -0.1934 0.7810
vn 0.6413 0.1525 0.7519
vn 0.7087 0.0750 0.7015
vn 0.7868 0.0933 0.6101
vn 0.3998 0.8322 -0.3842
vn 0.6262 0.5558 -0.5469
vn 0.0613 0.2338 -0.9704
vn -0.2587 -0.1454 -0.9549
vn -0.2701 -0.2816 -0.9207
vn -0.4331 -0.2614 -0.8626
vn -0.4634 -0.4015 -0.7900
vn -0.2717 -0.6478 -0.7117
vn -0.2366 -0.8646 -0.4433
vn 0.4436 -0.8027 0.3985
vn 0.6822 -0.5611 0.4687
vn 0.7002 -0.2957 0.6499
vn 0.1588 -0.0724 -0.9847
vn 0.7694 -0.1980 -0.6073
vn 0.7089 -0.4544 -0.5395
vn 0.7674 -0.1523 0.6228
vn 0.8601 -0.1788 0.4778
vn 0.8861 -0.0413 0.4617
vn -0.8976 -0.3781 0.2268
vn -0.9961 0.0281 0.0833
vn -0.7369 -0.6623 0.1352
vn -0.1284 -0.7349 -0.6659
vn -0.0597 -0.4780 -0.8763
vn -0.9302 0.3365 0.1464
vn -0.6774 -0.0025 0.7357
vn -0.3405 -0.5656 0.7511
vn 0.5925 -0.3185 -0.7399
vn 0.4074 -0.0278 -0.9128
vn -0.7806 0.2835 0.5571
vn -0.5851 -0.0245 0.8106
vn 0.3904 -0.8418 0.3728
vn 0.6155 -0.1677 -0.7701
vn 0.3461 0.1491 -0.9263
vn -0.4305 0.4123 0.8029
vn -0.2275 0.1512 0.9620
vn 0.9961 -0.0281 -0.0833
vn 0.7525 0.1339 -0.6448
vn 0.4513 0.7919 -0.4114
vn 0.7369 0.6623 -0.1352
vn 0.6818 0.5446 -0.4884
vn 0.6881 0.2789 -0.6699
vn 0.8976 0.3781 -0.2268
vn 0.8500 0.1581 -0.5025
vn 0.8731 0.0200 -0.4871
vn 0.7349 0.4369 0.5186
vn 0.7912 0.1791 0.5847
vn 0.1888 0.0682 0.9796
vn 0.0597 0.4780 0.8763
vn -0.2366 0.2877 0.9280
vn -0.4015 0.2716 0.8747
vn 0.1285 0.7349 0.6659
vn -0.2352 0.6540 0.7190
vn -0.2027 0.8699 0.4496
vn 0.3405 0.5656 -0.7511
vn 0.4535 0.2633 -0.8515
vn 0.5756 0.1792 -0.7979
vn 0.6774 0.0025 -0.7356
vn 0.6862 -0.0919 -0.7216
vn 0.7664 -0.1122 -0.6325
vn 0.9302 -0.3365 -0.1464
vn 0.6280 -0.5710 0.5287
vn 0.0836 -0.2355 0.9683
vn -0.4074 0.0278 0.9128
vn -0.5128 0.0511 0.8570
vn -0.5205 0.1454 0.8414
vn -0.5925 0.3185 0.7400
vn -0.6698 0.3973 0.6274
vn -0.5780 0.6752 0.4583
vn 0.5851 0.0245 -0.8106
vn 0.5128 -0.0511 -0.8570
vn 0.5205 -0.1454 -0.8414
vn 0.7806 -0.2834 -0.5571
vn 0.6698 -0.3973 -0.6274
vn 0.5780 -0.6752 -0.4583
vn -0.3461 -0.1491 0.9263
vn -0.4534 -0.2633 0.8515
vn -0.5756 -0.1792 0.7979
vn -0.6155 0.1677 0.7701
vn -0.6862 0.0919 0.7216
vn -0.7664 0.1122 0.6325
vn -0.3904 0.8418 -0.3728
vn -0.6280 0.5710 -0.5288
vn -0.0836 0.2355 -0.9683
vn 0.2275 -0.1513 -0.9620
vn 0.2366 -0.2877 -0.9280
vn 0.4015 -0.2716 -0.8747
vn 0.4305 -0.4123 -0.8029
vn 0.2352 -0.6540 -0.7190
vn 0.2027 -0.8699 -0.4496
vn -0.4513 -0.7919 0.4114
vn -0.6818 -0.5446 0.4884
vn -0.6881 -0.2789 0.6699
vn -0.1888 -0.0682 -0.9796
vn -0.7912 -0.1791 -0.5847
vn -0.7349 -0.4369 -0.5186
vn -0.7525 -0.1339 0.6448
vn -0.8500 -0.1581 0.5025
vn -0.8731 -0.0200 0.4871
vt 0.833374 0.494548
vt 0.893919 0.512741
vt 0.908415 0.468160
vt 0.848637 0.467455
vt 0.567859 0.867914
vt 0.639317 0.828812
vt 0.620915 0.894044
vt 0.556155 0.927906
vt 0.812683 0.509803
vt 0.774909 0.642712
vt 0.751394 0.643294
vt 0.751725 0.493743
vt 0.828812 0.793372
vt 0.751727 0.811870
vt 0.672932 0.807420
vt 0.672336 0.642732
vt 0.672998 0.503429
vt 0.598676 0.643182
vt 0.594201 0.530171
vt 0.560191 0.672195
vt 0.619753 0.672998
vt 0.599703 0.594201
vt 0.569702 0.558226
vt 0.580250 0.833374
vt 0.635423 0.812683
vt 0.637090 0.751725
vt 0.569078 0.759035
vt 0.500000 0.859251
vt 0.500000 0.750726
vt 0.569078 0.758996
vt 0.500000 0.657595
vt 0.560191 0.671923
vt 0.604420 0.951058
vt 0.545714 0.976119
vt 0.604420 0.548422
vt 0.626365 0.643481
vt 0.688416 0.643970
vt 0.666902 0.547256
vt 0.500000 0.917421
vt 0.563590 0.893919
vt 0.639317 0.793372
vt 0.659328 0.642712
vt 0.676970 0.643370
vt 0.671449 0.761101
vt 0.555994 0.632181
vt 0.545714 0.747180
vt 0.604420 0.735145
vt 0.572975 0.538591
vt 0.666902 0.715601
vt 0.500000 0.969030
vt 0.572975 0.947229
vt 0.501290 0.830086
vt 0.457158 0.830118
vt 0.460328 0.806630
vt 0.500288 0.803578
vt 0.499838 0.512886
vt 0.460007 0.507514
vt 0.481582 0.413128
vt 0.510774 0.417065
vt 0.500000 0.559830
vt 0.556447 0.575135
vt 0.579931 0.796381
vt 0.599703 0.530171
vt 0.637090 0.643182
vt 0.659115 0.643738
vt 0.643940 0.535244
vt 0.564556 0.492909
vt 0.500000 0.477524
vt 0.500000 0.432743
vt 0.566016 0.447361
vt 0.569702 0.518348
vt 0.616981 0.429733
vt 0.594994 0.421068
vt 0.612448 0.796381
vt 0.637526 0.771615
vt 0.500000 0.371229
vt 0.561082 0.382998
vt 0.450625 0.491920
vt 0.495971 0.498202
vt 0.507939 0.406303
vt 0.474705 0.401699
vt 0.591615 0.535244
vt 0.575831 0.433451
vt 0.407144 0.499901
vt 0.406490 0.640437
vt 0.358675 0.605643
vt 0.363238 0.556600
vt 0.578790 0.420824
vt 0.621227 0.407144
vt 0.601979 0.363238
vt 0.551080 0.357545
vt 0.500000 0.657756
vt 0.500000 0.571782
vt 0.667216 0.508652
vt 0.621227 0.499901
vt 0.632756 0.407548
vt 0.666461 0.413961
vt 0.556577 0.771615
vt 0.637090 0.751727
vt 0.260484 0.580516
vt 0.278839 0.520364
vt 0.582070 0.278839
vt 0.540875 0.268345
vt 0.619753 0.672932
vt 0.500000 0.307117
vt 0.551080 0.314473
vt 0.500000 0.983839
vt 0.393435 0.816867
vt 0.325561 0.763148
vt 0.671449 0.517077
vt 0.635423 0.509803
vt 0.642381 0.470278
vt 0.671266 0.470798
vt 0.988807 0.740196
vt 1.002924 0.661469
vt 1.015365 0.669173
vt 1.001496 0.721513
vt 0.500000 0.531683
vt 0.500000 0.631036
vt 0.249130 0.712570
vt 0.191059 0.679456
vt 0.198981 0.567653
vt 0.945839 0.547256
vt 0.886123 0.529161
vt 0.904522 0.470747
vt 0.963512 0.471464
vt 0.500000 0.238897
vt 0.540875 0.239236
vt 0.564556 0.495971
vt 0.612448 0.579931
vt 0.628268 0.501290
vt 0.631115 0.457158
vt 0.168698 0.648799
vt 0.177283 0.553376
vt 0.539817 0.181283
vt 0.500000 0.184290
vt 0.500000 0.144817
vt 0.539817 0.140934
vt 0.580006 0.205473
vt 0.539817 0.196322
vt 0.205473 0.476864
vt 0.621491 0.393435
vt 0.538703 0.608225
vt 0.500000 0.615960
vt 0.500000 0.567098
vt 0.526605 0.560962
vt 0.566016 0.450625
vt 0.149293 0.452102
vt 0.133162 0.541160
vt 0.103583 0.505809
vt 0.123733 0.441345
vt 0.539531 0.141037
vt 0.579447 0.149293
vt 0.562090 0.123733
vt 0.530633 0.116366
vt 0.500000 0.385014
vt 0.500000 0.353218
vt 0.586057 0.174337
vt 0.542919 0.165879
vt 0.174337 0.464471
vt 0.086614 0.427976
vt 0.065909 0.448336
vt 0.053210 0.428901
vt 0.071388 0.423606
vt 0.515797 0.085531
vt 0.531484 0.086614
vt 0.523242 0.071388
vt 0.510720 0.071544
vt 0.500000 0.266808
vt 0.601979 0.325561
vt 0.582070 0.249130
vt 0.108290 0.599988
vt 0.073849 0.556649
vt 0.580006 0.679456
vt 0.539817 0.690304
vt 0.539817 0.657159
vt 0.579599 0.648799
vt 0.500000 0.199929
vt 0.513331 0.045311
vt 0.500000 0.046647
vt 0.500000 0.069896
vt 0.051602 0.475706
vt 0.038205 0.462176
vt 0.038356 0.442272
vt 0.580006 0.191059
vt 0.577833 0.599988
vt 0.554232 0.556649
vt 0.500000 0.147087
vt 0.500000 0.124516
vt 0.530339 0.475706
vt 0.515210 0.477146
vt 0.513246 0.460736
vt 0.522445 0.462176
vt 0.500000 0.170521
vt 0.515546 0.457928
vt 0.507613 0.457080
vt 0.506877 0.445401
vt 0.514439 0.446199
vt 0.500000 0.089031
vt 0.528336 0.053210
vt 0.620841 0.601238
vt 0.618568 0.607555
vt 0.613078 0.604170
vt 0.614718 0.599612
vt 0.500000 0.479371
vt 0.500000 0.460095
vt 0.513331 0.424258
vt 0.512541 0.440917
vt 0.500000 0.440864
vt 0.500000 0.422187
vt 0.500000 0.664242
vt 0.576432 0.505809
vt 0.539481 0.507406
vt 0.547321 0.467354
vt 0.500000 0.513551
vt 0.519044 0.508271
vt 0.579599 0.168698
vt 0.538703 0.096221
vt 0.577833 0.108290
vt 0.520322 0.097153
vt 0.500000 0.106427
vt 0.541975 0.104341
vt 0.078394 0.467354
vt 0.104341 0.437145
vt 0.073220 0.507406
vt 0.590300 0.643738
vt 0.499630 0.641384
vt 0.459655 0.640419
vt 0.417546 0.774144
vt 0.414448 0.641253
vt 0.423095 0.508652
vt 0.621491 0.816867
vt 0.648114 0.640437
vt 0.669097 0.641253
vt 0.644267 0.774144
vt 0.578790 0.496630
vt 0.601625 0.405151
vt 0.649402 0.433451
vt 0.651726 0.367843
vt 0.620780 0.366797
vt 0.454529 0.413961
vt 0.467814 0.368189
vt 0.488225 0.366596
vt 0.561691 0.421068
vt 0.537425 0.365401
vt 0.507200 0.363509
vt 0.481273 0.364028
vt 0.510983 0.366114
vt 0.635806 0.367147
vt 0.669092 0.368189
vt 0.420824 0.496630
vt 0.452865 0.405151
vt 0.558226 0.518348
vt 0.484328 0.324872
vt 0.502799 0.322553
vt 0.547406 0.321655
vt 0.519920 0.320969
vt 0.496410 0.322232
vt 0.523434 0.321439
vt 0.639292 0.324944
vt 0.675657 0.324872
vt 0.550036 0.367843
vt 0.558926 0.322330
vt 0.465216 0.366023
vt 0.604868 0.366023
vt 0.599660 0.365401
vt 0.621651 0.293283
vt 0.658462 0.293469
vt 0.659368 0.261742
vt 0.621257 0.261665
vt 0.501495 0.293600
vt 0.482345 0.307625
vt 0.480362 0.262732
vt 0.500191 0.261781
vt 0.519246 0.292376
vt 0.547742 0.292993
vt 0.548078 0.261464
vt 0.518571 0.260916
vt 0.494871 0.293528
vt 0.493332 0.261956
vt 0.522889 0.292587
vt 0.522344 0.260869
vt 0.451756 0.288897
vt 0.449773 0.262732
vt 0.656778 0.322330
vt 0.622394 0.322035
vt 0.481902 0.324350
vt 0.605664 0.324350
vt 0.599057 0.321655
vt 0.595403 0.548078
vt 0.621257 0.561263
vt 0.645824 0.523009
vt 0.590945 0.518571
vt 0.639859 0.470735
vt 0.648324 0.498544
vt 0.685407 0.500191
vt 0.686261 0.480362
vt 0.592251 0.493332
vt 0.659368 0.560446
vt 0.683143 0.522344
vt 0.596433 0.477757
vt 0.479829 0.307317
vt 0.477757 0.262636
vt 0.447168 0.262636
vt 0.449241 0.288588
vt 0.596679 0.292993
vt 0.595403 0.261464
vt 0.559686 0.293469
vt 0.560446 0.261742
vt 0.603589 0.307317
vt 0.640355 0.307779
vt 0.679739 0.307625
vt 0.677932 0.288897
vt 0.639680 0.289050
vt 0.639859 0.262967
vt 0.679465 0.262732
vt 0.604354 0.288588
vt 0.603287 0.262636
vt 0.679739 0.482345
vt 0.640355 0.473048
vt 0.639680 0.442459
vt 0.677932 0.451756
vt 0.679465 0.449773
vt 0.639859 0.440146
vt 0.603589 0.479829
vt 0.604354 0.449241
vt 0.603287 0.447168
vt 0.841501 0.761101
vt 0.796910 0.643370
vt 0.906455 0.644155
vt 0.894416 0.742499
vt 0.957194 0.643970
vt 0.829265 0.517077
vt 0.940741 0.715601
vt 0.671449 0.841501
vt 0.669190 0.894416
vt 0.849398 0.470798
vt 0.666902 0.940741
vt 0.909364 0.402088
vt 0.855378 0.389954
vt 0.592313 0.470184
vt 0.617524 0.471308
vt 0.621192 0.417417
vt 0.598226 0.414426
vt 0.598146 0.467455
vt 0.603540 0.389954
vt 0.643835 0.389418
vt 0.855424 0.393127
vt 0.905341 0.403681
vt 0.667620 0.471464
vt 0.947229 0.538591
vt 0.963044 0.470184
vt 0.580250 0.494548
vt 0.595712 0.312254
vt 0.621272 0.312916
vt 0.622837 0.264476
vt 0.597277 0.263453
vt 0.852894 0.313492
vt 0.849695 0.260671
vt 0.818572 0.260902
vt 0.821566 0.286829
vt 0.893654 0.314609
vt 0.853541 0.316407
vt 0.850246 0.263617
vt 0.890422 0.263754
vt 0.896415 0.312211
vt 0.936226 0.312254
vt 0.933075 0.263453
vt 0.893263 0.261490
vt 0.670148 0.393127
vt 0.666826 0.415674
vt 0.958612 0.415674
vt 0.958434 0.414426
vt 0.649700 0.837975
vt 0.635627 0.887710
vt 0.686058 0.890422
vt 0.687133 0.850246
vt 0.592375 0.849695
vt 0.589648 0.893263
vt 0.597277 0.933075
vt 0.622837 0.940554
vt 0.673628 0.933416
vt 0.822213 0.289744
vt 0.819123 0.263848
vt 0.672063 0.313364
vt 0.673628 0.264581
vt 0.936602 0.313364
vt 0.933416 0.264581
vt 0.941647 0.364922
vt 0.899640 0.363406
vt 0.623001 0.364960
vt 0.665562 0.364922
vt 0.668659 0.362549
vt 0.644119 0.361871
vt 0.647700 0.316485
vt 0.685132 0.316407
vt 0.859879 0.359936
vt 0.902447 0.361457
vt 0.941330 0.363919
vt 0.860378 0.362549
vt 0.606538 0.359936
vt 0.590374 0.313492
vt 0.601582 0.363919
vt 0.646474 0.289822
vt 0.601626 0.286829
vt 0.603191 0.260902
vt 0.648039 0.263334
vt 0.675760 0.289744
vt 0.677325 0.263848
vt 0.647700 0.841274
vt 0.590374 0.852894
vt 0.601626 0.821566
vt 0.646474 0.809945
vt 0.648039 0.806852
vt 0.603191 0.818572
vt 0.685132 0.853541
vt 0.675760 0.822213
vt 0.677325 0.819123
vt 0.500000 0.668378
vt 0.500000 0.724779
vt 0.517225 0.721513
vt 0.520785 0.669173
vt 0.528698 1.002924
vt 0.500000 1.014901
vt 0.500000 1.025182
vt 0.520785 1.015365
vt 0.500000 0.744181
vt 0.519989 0.740196
vt 0.519989 0.988807
vt 0.500000 0.995348
vt 0.500000 0.660499
vt 0.528698 0.661469
vt 0.154177 0.616909
vt 0.166410 0.570048
vt 0.135838 0.608740
vt 0.149154 0.567675
vt 0.147623 0.572395
vt 0.137518 0.603560
vt 0.583783 0.154177
vt 0.583848 0.135838
vt 0.600568 0.131366
vt 0.597073 0.144428
vt 0.144166 0.612314
vt 0.141084 0.620214
vt 0.132632 0.614576
vt 0.134671 0.609983
vt 0.153028 0.593819
vt 0.141399 0.592146
vt 0.619182 0.132632
vt 0.614588 0.141084
vt 0.606252 0.140479
vt 0.610351 0.130579
vt 0.138199 0.601250
vt 0.148213 0.603179
vt 0.602487 0.570048
vt 0.583783 0.616909
vt 0.597073 0.624463
vt 0.606252 0.625520
vt 0.614588 0.620214
vt 0.620822 0.612314
vt 0.623703 0.603179
vt 0.620639 0.593819
vt 0.604695 0.577238
vt 0.601269 0.572395
vt 0.603531 0.567675
vt 0.609313 0.614171
vt 0.615687 0.610750
vt 0.619182 0.614576
vt 0.610351 0.619358
vt 0.602434 0.613212
vt 0.600568 0.617961
vt 0.626402 0.601250
vt 0.623276 0.609983
vt 0.618527 0.594500
vt 0.623272 0.592146
vt 0.590602 0.606787
vt 0.583848 0.608740
vt 0.592903 0.603615
vt 0.603070 0.582298
vt 0.613048 0.594751
vt 0.610999 0.606475
vt 0.606401 0.608943
vt 0.601438 0.608251
vt 0.586331 0.603560
vt 0.600598 0.578805
vt 0.589822 0.601288
vt 0.148133 0.578805
vt 0.140843 0.601288
vt 0.522445 0.038205
vt 0.513246 0.032036
vt 0.507613 0.025182
vt 0.515546 0.030102
vt 0.521458 0.442272
vt 0.528336 0.428901
vt 0.500000 0.456702
vt 0.500000 0.445370
vt 0.500000 0.031689
vt 0.512541 0.032373
vt 0.506877 0.025742
vt 0.500000 0.025886
vt 0.500000 0.031337
vt 0.500000 0.025479
vt 0.030102 0.457928
vt 0.030515 0.446199
vt 0.432141 0.867914
vt 0.443845 0.927906
vt 0.379085 0.894044
vt 0.360683 0.828812
vt 0.439809 0.672195
vt 0.430298 0.558226
vt 0.400297 0.594201
vt 0.380247 0.672998
vt 0.419750 0.833374
vt 0.430922 0.759035
vt 0.362910 0.751725
vt 0.364577 0.812683
vt 0.430922 0.758996
vt 0.439809 0.671923
vt 0.454286 0.976119
vt 0.395580 0.951058
vt 0.395580 0.548422
vt 0.333098 0.547256
vt 0.311584 0.643970
vt 0.373635 0.643481
vt 0.436410 0.893919
vt 0.360683 0.793372
vt 0.328551 0.761101
vt 0.323030 0.643370
vt 0.340672 0.642712
vt 0.444006 0.632181
vt 0.395580 0.735145
vt 0.454286 0.747180
vt 0.427025 0.538591
vt 0.333098 0.715601
vt 0.427025 0.947229
vt 0.443553 0.575135
vt 0.400297 0.530171
vt 0.356060 0.535244
vt 0.340885 0.643738
vt 0.362910 0.643182
vt 0.435444 0.492909
vt 0.433984 0.447361
vt 0.430298 0.518348
vt 0.405006 0.421068
vt 0.383019 0.429733
vt 0.362474 0.771615
vt 0.387552 0.796381
vt 0.438918 0.382998
vt 0.421210 0.420824
vt 0.448920 0.357545
vt 0.398021 0.363238
vt 0.378773 0.407144
vt 0.332784 0.508652
vt 0.333539 0.413961
vt 0.367244 0.407548
vt 0.378773 0.499901
vt 0.362910 0.751727
vt 0.459125 0.268345
vt 0.417930 0.278839
vt 0.380247 0.672932
vt 0.448920 0.314473
vt 0.328551 0.517077
vt 0.328734 0.470798
vt 0.357619 0.470278
vt 0.364577 0.509803
vt 0.459125 0.239236
vt 0.435444 0.495971
vt 0.387552 0.579931
vt 0.371732 0.501290
vt 0.368885 0.457158
vt 0.460183 0.181283
vt 0.460183 0.140934
vt 0.460183 0.196322
vt 0.419994 0.205473
vt 0.378509 0.393435
vt 0.461297 0.608225
vt 0.473395 0.560962
vt 0.433984 0.450625
vt 0.460469 0.141037
vt 0.469367 0.116366
vt 0.437911 0.123733
vt 0.420553 0.149293
vt 0.457081 0.165879
vt 0.413943 0.174337
vt 0.484203 0.085531
vt 0.489280 0.071544
vt 0.476758 0.071388
vt 0.468516 0.086614
vt 0.398021 0.325561
vt 0.417930 0.249130
vt 0.419994 0.679456
vt 0.420401 0.648799
vt 0.460183 0.657159
vt 0.460183 0.690304
vt 0.486669 0.045311
vt 0.419994 0.191059
vt 0.422167 0.599988
vt 0.445768 0.556649
vt 0.469661 0.475706
vt 0.477555 0.462176
vt 0.486754 0.460736
vt 0.484790 0.477146
vt 0.484454 0.457928
vt 0.485561 0.446199
vt 0.493123 0.445401
vt 0.492387 0.457080
vt 0.471665 0.053210
vt 0.379159 0.601238
vt 0.385282 0.599612
vt 0.386922 0.604170
vt 0.381432 0.607555
vt 0.486669 0.424258
vt 0.487459 0.440917
vt 0.423568 0.505809
vt 0.452679 0.467354
vt 0.460520 0.507406
vt 0.480956 0.508271
vt 0.420401 0.168698
vt 0.422167 0.108290
vt 0.461297 0.096221
vt 0.479678 0.097153
vt 0.458025 0.104341
vt 0.378509 0.816867
vt 0.355733 0.774144
vt 0.330903 0.641253
vt 0.351886 0.640437
vt 0.398375 0.405151
vt 0.421210 0.496630
vt 0.379220 0.366797
vt 0.348274 0.367843
vt 0.350598 0.433451
vt 0.330908 0.368189
vt 0.364194 0.367147
vt 0.324343 0.324872
vt 0.360708 0.324944
vt 0.395132 0.366023
vt 0.400340 0.365401
vt 0.378349 0.293283
vt 0.378743 0.261665
vt 0.340632 0.261742
vt 0.341538 0.293469
vt 0.377606 0.322035
vt 0.343222 0.322330
vt 0.394336 0.324350
vt 0.400943 0.321655
vt 0.404597 0.548078
vt 0.409055 0.518571
vt 0.354176 0.523009
vt 0.378743 0.561263
vt 0.360141 0.470735
vt 0.313739 0.480362
vt 0.314593 0.500191
vt 0.351676 0.498544
vt 0.407749 0.493332
vt 0.316857 0.522344
vt 0.340632 0.560446
vt 0.403567 0.477757
vt 0.403321 0.292993
vt 0.404597 0.261464
vt 0.359645 0.307779
vt 0.396411 0.307317
vt 0.320262 0.307625
vt 0.322068 0.288897
vt 0.320535 0.262732
vt 0.360141 0.262967
vt 0.360320 0.289050
vt 0.396713 0.262636
vt 0.395646 0.288588
vt 0.320262 0.482345
vt 0.322068 0.451756
vt 0.360320 0.442459
vt 0.359645 0.473048
vt 0.360141 0.440146
vt 0.320535 0.449773
vt 0.395646 0.449241
vt 0.396411 0.479829
vt 0.396713 0.447168
vt 0.330810 0.894416
vt 0.328551 0.841501
vt 0.333098 0.940741
vt 0.407688 0.470184
vt 0.401774 0.414426
vt 0.378808 0.417417
vt 0.382476 0.471308
vt 0.356165 0.389418
vt 0.396460 0.389954
vt 0.401854 0.467455
vt 0.332380 0.471464
vt 0.419750 0.494548
vt 0.404289 0.312254
vt 0.402723 0.263453
vt 0.377163 0.264476
vt 0.378728 0.312916
vt 0.329852 0.393127
vt 0.333174 0.415674
vt 0.350300 0.837975
vt 0.312867 0.850246
vt 0.313942 0.890422
vt 0.364373 0.887710
vt 0.410353 0.893263
vt 0.407625 0.849695
vt 0.377163 0.940554
vt 0.402723 0.933075
vt 0.326372 0.933416
vt 0.326372 0.264581
vt 0.327937 0.313364
vt 0.376999 0.364960
vt 0.334438 0.364922
vt 0.331341 0.362549
vt 0.314868 0.316407
vt 0.352300 0.316485
vt 0.355881 0.361871
vt 0.409626 0.313492
vt 0.393462 0.359936
vt 0.398418 0.363919
vt 0.353526 0.289822
vt 0.351961 0.263334
vt 0.396809 0.260902
vt 0.398374 0.286829
vt 0.324240 0.289744
vt 0.322675 0.263848
vt 0.352300 0.841274
vt 0.353526 0.809945
vt 0.398374 0.821566
vt 0.409626 0.852894
vt 0.396809 0.818572
vt 0.351961 0.806852
vt 0.314868 0.853541
vt 0.324240 0.822213
vt 0.322675 0.819123
vt 0.479215 0.669173
vt 0.482775 0.721513
vt 0.471302 1.002924
vt 0.479215 1.015365
vt 0.480011 0.740196
vt 0.480011 0.988807
vt 0.471302 0.661469
vt 0.416217 0.154177
vt 0.402927 0.144428
vt 0.399432 0.131366
vt 0.416152 0.135838
vt 0.380819 0.132632
vt 0.389649 0.130579
vt 0.393748 0.140479
vt 0.385412 0.141084
vt 0.397513 0.570048
vt 0.379361 0.593819
vt 0.376297 0.603179
vt 0.379178 0.612314
vt 0.385412 0.620214
vt 0.393748 0.625520
vt 0.402927 0.624463
vt 0.416217 0.616909
vt 0.395305 0.577238
vt 0.396469 0.567675
vt 0.398731 0.572395
vt 0.390687 0.614171
vt 0.389649 0.619358
vt 0.380819 0.614576
vt 0.384313 0.610750
vt 0.397566 0.613212
vt 0.399432 0.617961
vt 0.376724 0.609983
vt 0.373598 0.601250
vt 0.376728 0.592146
vt 0.381473 0.594500
vt 0.409398 0.606787
vt 0.416152 0.608740
vt 0.407098 0.603615
vt 0.398562 0.608251
vt 0.393599 0.608943
vt 0.389001 0.606475
vt 0.386952 0.594751
vt 0.396930 0.582298
vt 0.413669 0.603560
vt 0.399402 0.578805
vt 0.410178 0.601288
vt 0.477555 0.038205
vt 0.484454 0.030102
vt 0.492387 0.025182
vt 0.486754 0.032036
vt 0.478542 0.442272
vt 0.471665 0.428901
vt 0.493123 0.025742
vt 0.487459 0.032373
vt 0.181819 0.000000
vt 0.227273 0.078731
vt 0.136365 0.078731
vt 0.272728 0.157461
vt 0.318182 0.078731
vt 0.363637 0.157461
vt 0.909091 0.000000
vt 0.954545 0.078731
vt 0.863636 0.078731
vt 0.727273 0.000000
vt 0.772727 0.078731
vt 0.681818 0.078731
vt 0.545455 0.000000
vt 0.590909 0.078731
vt 0.500000 0.078731
vt 0.318182 0.236191
vt 0.090910 0.157461
vt 0.181819 0.157461
vt 0.136365 0.236191
vt 0.818182 0.157461
vt 0.909091 0.157461
vt 0.863636 0.236191
vt 0.636364 0.157461
vt 0.727273 0.157461
vt 0.681818 0.236191
vt 0.454546 0.157461
vt 0.545455 0.157461
vt 0.500000 0.236191
vt 0.227273 0.236191
vt 0.045455 0.236191
vt 0.772727 0.236191
vt 0.590909 0.236191
vt 0.409092 0.236191
vt 0.181819 0.314921
vt 0.272728 0.314921
vt 0.227273 0.393651
vt 0.000000 0.314921
vt 0.090910 0.314921
vt 0.045455 0.393651
vt 0.727273 0.314921
vt 0.818182 0.314921
vt 0.772727 0.393651
vt 0.545455 0.314921
vt 0.636364 0.314921
vt 0.590909 0.393651
vt 0.363637 0.314921
vt 0.454546 0.314921
vt 0.409092 0.393651
vt 0.500000 0.393651
vt 0.454546 0.472382
vt 0.681818 0.393651
vt 0.636364 0.472382
vt 0.863636 0.393651
vt 0.818182 0.472382
vt 0.909091 0.314921
vt 0.136365 0.393651
vt 0.090910 0.472382
vt 0.318182 0.393651
vt 0.272728 0.472382
vt 0.954545 0.236191
vt 1.000000 0.157461
vt 0.409092 0.078731
vt 0.363637 0.000000
s 1
f 116/1/1 98/2/1 209/3/1 208/4/1
f 115/5/2 4/6/2 17/7/2 97/8/2
f 3/9/3 7/10/3 13/11/3 8/12/3
f 7/10/4 4/13/4 9/14/4 13/11/4
f 13/11/5 9/14/5 2/15/5 10/16/5
f 8/12/6 13/11/6 10/16/6 1/17/6
f 1/17/7 10/16/7 32/18/7 29/19/7
f 114/20/8 1/21/8 29/22/8 83/23/8
f 116/24/9 3/25/9 8/26/9 109/27/9
f 109/27/10 8/26/10 1/21/10 114/20/10
f 115/5/11 6/28/11 15/29/11 99/30/11
f 99/30/12 15/29/12 12/31/12 112/32/12
f 97/8/13 17/7/13 21/33/13 90/34/13
f 20/35/14 25/36/14 203/37/14 204/38/14
f 116/24/15 5/28/15 18/39/15 98/40/15
f 4/41/16 7/42/16 197/43/16 196/44/16
f 89/45/17 90/46/17 21/47/17 25/36/17
f 91/48/18 89/45/18 25/36/18 20/35/18
f 25/36/19 21/47/19 202/49/19 203/37/19
f 98/40/20 18/39/20 23/50/20 91/51/20
f 38/52/21 45/53/21 134/54/21 131/55/21
f 133/56/22 136/57/22 144/58/22 146/59/22
f 112/32/23 12/31/23 34/60/23 82/61/23
f 10/16/24 2/15/24 30/62/24 32/18/24
f 29/63/25 32/64/25 129/65/25 130/66/25
f 75/67/26 41/68/26 48/69/26 73/70/26
f 82/61/27 34/60/27 41/68/27 75/67/27
f 83/71/28 29/63/28 141/72/28 140/73/28
f 32/64/29 30/74/29 128/75/29 129/65/29
f 73/70/30 48/69/30 56/76/30 66/77/30
f 74/78/31 81/79/31 145/80/31 148/81/31
f 130/82/32 133/56/32 146/59/32 147/83/32
f 6/28/33 115/5/33 97/8/33 19/39/33
f 54/84/34 53/85/34 60/86/34 61/87/34
f 67/88/35 54/89/35 61/90/35 65/91/35
f 11/92/36 114/20/36 83/23/36 33/93/36
f 5/28/37 116/24/37 109/27/37 14/29/37
f 14/29/38 109/27/38 114/20/38 11/92/38
f 139/94/39 54/95/39 143/96/39 142/97/39
f 30/62/40 38/52/40 131/55/40 128/98/40
f 4/6/41 115/5/41 99/30/41 9/99/41
f 61/87/42 60/86/42 69/100/42 70/101/42
f 65/91/43 61/90/43 70/102/43 58/103/43
f 9/99/44 99/30/44 112/32/44 2/104/44
f 66/77/45 56/76/45 63/105/45 64/106/45
f 19/39/46 97/8/46 90/34/46 24/107/46
f 53/85/47 52/108/47 59/109/47 60/86/47
f 198/110/48 3/111/48 207/112/48 213/113/48
f 256/114/49 255/115/49 253/116/49 254/117/49
f 23/118/50 26/119/50 89/45/50 91/48/50
f 69/100/51 68/120/51 76/121/51 77/122/51
f 204/123/52 201/124/52 211/125/52 212/126/52
f 64/106/53 63/105/53 72/127/53 57/128/53
f 33/93/54 83/23/54 81/129/54 40/68/54
f 60/86/55 59/109/55 68/120/55 69/100/55
f 2/104/56 112/32/56 82/61/56 30/130/56
f 38/131/57 75/67/57 73/70/57 45/132/57
f 77/122/58 76/121/58 259/133/58 260/134/58
f 30/130/59 82/61/59 75/67/59 38/131/59
f 50/135/60 80/136/60 88/137/60 44/138/60
f 58/103/61 70/102/61 78/139/61 51/140/61
f 70/101/62 69/100/62 77/122/62 78/141/62
f 45/132/63 73/70/63 66/77/63 52/142/63
f 57/128/64 72/127/64 80/136/64 50/135/64
f 28/143/65 110/144/65 96/145/65 42/146/65
f 40/68/66 81/129/66 74/147/66 47/69/66
f 108/148/67 262/149/67 93/150/67 94/151/67
f 31/152/68 108/153/68 94/154/68 43/155/68
f 55/156/69 67/88/69 65/91/69 62/157/69
f 51/140/70 78/139/70 86/158/70 49/159/70
f 78/141/71 77/122/71 260/134/71 86/160/71
f 47/69/72 74/147/72 67/88/72 55/156/72
f 123/161/73 124/162/73 101/163/73 102/164/73
f 121/165/74 123/166/74 102/167/74 37/168/74
f 62/157/75 65/91/75 58/103/75 71/169/75
f 52/142/76 66/77/76 64/106/76 59/170/76
f 59/170/77 64/106/77 57/128/77 68/171/77
f 262/149/78 261/172/78 92/173/78 93/150/78
f 76/174/79 50/175/79 44/176/79 259/177/79
f 71/169/80 58/103/80 51/140/80 79/178/80
f 37/168/81 35/179/81 105/180/81 103/181/81
f 124/162/82 127/182/82 297/183/82 298/184/82 101/163/82
f 68/171/83 57/128/83 50/135/83 76/185/83
f 261/186/84 28/143/84 42/146/84 92/187/84
f 107/188/85 31/152/85 43/155/85 95/189/85
f 127/190/86 122/191/86 295/192/86 297/193/86
f 79/178/87 51/140/87 49/159/87 87/194/87
f 100/195/88 36/196/88 301/197/88 104/198/88
f 126/199/89 121/165/89 37/168/89 103/181/89
f 102/167/90 101/200/90 35/179/90 37/168/90
f 274/201/91 273/202/91 290/203/91 291/204/91
f 122/191/92 125/205/92 300/206/92 295/192/92
f 49/159/93 86/158/93 108/153/93 31/152/93
f 86/160/94 260/134/94 262/149/94 108/148/94
f 35/207/95 296/208/95 299/209/95 105/210/95
f 44/176/96 88/211/96 110/144/96 28/143/96
f 93/212/97 92/187/97 120/213/97 119/214/97
f 87/194/98 49/159/98 31/152/98 107/188/98
f 42/146/99 96/145/99 113/215/99 27/216/99
f 259/217/100 44/138/100 28/218/100 261/219/100
f 92/187/101 42/146/101 27/216/101 120/213/101
f 95/189/102 43/155/102 22/220/102 118/221/102
f 43/155/103 94/154/103 117/222/103 22/220/103
f 94/151/104 93/150/104 119/223/104 117/224/104
f 120/213/105 27/216/105 122/191/105 127/190/105
f 118/221/106 22/220/106 121/165/106 126/199/106
f 119/223/107 120/225/107 127/182/107 124/162/107
f 27/216/108 113/215/108 125/205/108 122/191/108
f 22/220/109 117/222/109 123/166/109 121/165/109
f 117/224/110 119/223/110 124/162/110 123/161/110
f 130/82/111 129/226/111 132/227/111 133/56/111
f 132/227/112 131/55/112 134/54/112 135/228/112
f 129/226/113 128/98/113 131/55/113 132/227/113
f 135/228/114 134/54/114 137/229/114 138/230/114
f 133/56/115 132/227/115 135/228/115 136/57/115
f 136/57/116 135/228/116 138/230/116 139/231/116
f 52/232/117 53/233/117 138/234/117 137/235/117
f 45/53/118 52/108/118 137/229/118 134/54/118
f 54/95/119 67/236/119 149/237/119 143/96/119
f 53/233/120 54/95/120 139/94/120 138/234/120
f 141/72/121 147/238/121 157/239/121 39/240/121
f 144/58/122 142/241/122 150/242/122 153/243/122
f 145/80/123 140/244/123 46/245/123 154/246/123
f 148/81/124 145/80/124 154/246/124 158/247/124
f 146/59/125 144/58/125 153/243/125 156/248/125
f 142/97/126 143/96/126 151/249/126 150/250/126
f 136/57/127 139/231/127 142/241/127 144/58/127
f 67/251/128 74/78/128 148/81/128 149/252/128
f 29/63/129 130/66/129 147/238/129 141/72/129
f 81/79/130 83/253/130 140/244/130 145/80/130
f 153/243/131 150/242/131 162/254/131 164/255/131
f 154/246/132 46/245/132 160/256/132 165/257/132
f 158/247/133 154/246/133 165/257/133 168/258/133
f 156/248/134 153/243/134 164/255/134 166/259/134
f 150/250/135 151/249/135 163/260/135 162/261/135
f 157/262/136 156/248/136 166/259/136 167/263/136
f 149/252/137 148/81/137 158/247/137 159/264/137
f 143/96/138 149/237/138 159/265/138 151/249/138
f 140/73/139 141/72/139 39/240/139 46/266/139
f 147/83/140 146/59/140 156/248/140 157/262/140
f 188/267/141 187/268/141 177/269/141 152/270/141
f 184/271/142 185/272/142 170/273/142 173/274/142
f 182/275/143 180/276/143 155/277/143 174/278/143
f 181/279/144 182/275/144 174/278/144 178/280/144
f 183/281/145 184/271/145 173/274/145 176/282/145
f 170/273/146 185/272/146 194/283/146 192/284/146
f 39/240/147 157/239/147 167/285/147 161/286/147
f 159/264/148 158/247/148 168/258/148 169/287/148
f 151/249/149 159/265/149 169/288/149 163/260/149
f 46/266/150 39/240/150 161/286/150 160/289/150
f 155/290/151 152/291/151 175/292/151 174/293/151
f 171/294/152 172/295/152 173/296/152 170/297/152
f 174/293/153 175/292/153 172/295/153 178/298/153
f 175/292/154 152/291/154 177/299/154 176/300/154
f 178/298/155 172/295/155 171/294/155 179/301/155
f 172/295/156 175/292/156 176/300/156 173/296/156
f 189/302/157 181/279/157 178/280/157 179/303/157
f 189/302/158 179/303/158 193/304/158 195/305/158
f 180/306/159 188/267/159 152/270/159 155/307/159
f 187/308/160 183/281/160 176/282/160 177/309/160
f 167/263/161 166/259/161 183/281/161 187/308/161
f 160/289/162 161/286/162 188/267/162 180/306/162
f 163/260/163 169/288/163 189/310/163 186/311/163
f 169/287/164 168/258/164 181/279/164 189/302/164
f 162/261/165 163/260/165 186/311/165 185/312/165
f 166/259/166 164/255/166 184/271/166 183/281/166
f 168/258/167 165/257/167 182/275/167 181/279/167
f 165/257/168 160/256/168 180/276/168 182/275/168
f 164/255/169 162/254/169 185/272/169 184/271/169
f 161/286/170 167/285/170 187/268/170 188/267/170
f 194/313/171 190/314/171 191/315/171 192/316/171
f 190/314/172 195/317/172 193/318/172 191/315/172
f 185/319/173 186/320/173 190/321/173 194/322/173
f 171/294/174 170/297/174 192/323/174 191/324/174
f 186/320/175 189/325/175 195/326/175 190/321/175
f 179/301/176 171/294/176 191/324/176 193/327/176
f 196/328/177 197/329/177 200/330/177 199/331/177
f 200/330/178 201/124/178 204/123/178 203/332/178
f 197/329/179 198/333/179 201/124/179 200/330/179
f 199/331/180 200/330/180 203/332/180 202/334/180
f 7/42/181 3/111/181 198/110/181 197/43/181
f 17/7/182 4/6/182 196/335/182 199/336/182
f 201/124/183 198/333/183 213/337/183 211/125/183
f 21/33/184 17/7/184 199/336/184 202/338/184
f 208/4/185 209/3/185 217/339/185 216/340/185
f 210/341/186 206/342/186 214/343/186 218/344/186
f 207/112/187 208/345/187 216/346/187 215/347/187
f 211/125/188 213/337/188 221/348/188 219/349/188
f 20/35/189 204/38/189 212/350/189 206/342/189
f 91/48/190 20/35/190 206/342/190 210/341/190
f 98/2/191 91/351/191 210/352/191 209/3/191
f 3/111/192 116/353/192 208/345/192 207/112/192
f 232/354/193 235/355/193 222/356/193 226/357/193
f 233/358/194 224/359/194 240/360/194 241/361/194
f 16/362/195 230/363/195 229/364/195 227/365/195
f 231/366/196 232/367/196 226/368/196 225/369/196
f 213/113/197 207/112/197 215/347/197 221/370/197
f 206/342/198 212/350/198 220/371/198 214/343/198
f 212/126/199 211/125/199 219/349/199 220/372/199
f 209/3/200 210/352/200 218/373/200 217/339/200
f 223/374/201 205/375/201 227/376/201 229/377/201
f 223/374/202 224/378/202 225/379/202 205/375/202
f 205/375/203 225/379/203 226/380/203 222/381/203
f 205/375/204 222/381/204 228/382/204 227/376/204
f 233/358/205 231/366/205 225/369/205 224/359/205
f 229/364/206 230/363/206 237/383/206 238/384/206
f 235/355/207 236/385/207 228/386/207 222/356/207
f 236/387/208 16/362/208 227/365/208 228/388/208
f 250/389/209 243/390/209 16/362/209 236/387/209
f 249/391/210 250/392/210 236/385/210 235/355/210
f 246/393/211 245/394/211 234/395/211 230/396/211
f 248/397/212 244/398/212 231/366/212 233/358/212
f 244/398/213 247/399/213 232/367/213 231/366/213
f 243/390/214 246/400/214 230/363/214 16/362/214
f 245/394/215 248/401/215 233/402/215 234/395/215
f 247/403/216 249/391/216 235/355/216 232/354/216
f 242/404/217 241/405/217 240/406/217 239/407/217
f 237/408/218 242/404/218 239/407/218 238/409/218
f 234/410/219 233/411/219 241/412/219 242/413/219
f 224/378/220 223/374/220 239/414/220 240/415/220
f 230/416/221 234/410/221 242/413/221 237/417/221
f 223/374/222 229/377/222 238/418/222 239/414/222
f 218/344/223 214/343/223 249/391/223 247/403/223
f 215/347/224 216/346/224 248/401/224 245/394/224
f 219/349/225 221/348/225 246/400/225 243/390/225
f 217/339/226 218/373/226 247/399/226 244/398/226
f 216/340/227 217/339/227 244/398/227 248/397/227
f 221/370/228 215/347/228 245/394/228 246/393/228
f 214/343/229 220/371/229 250/392/229 249/391/229
f 220/372/230 219/349/230 243/390/230 250/389/230
f 252/419/231 251/420/231 254/421/231 253/422/231
f 255/423/232 257/424/232 252/425/232 253/426/232
f 258/427/233 256/428/233 254/421/233 251/420/233
f 24/107/234 90/34/234 256/429/234 258/430/234
f 89/45/235 26/119/235 257/431/235 255/432/235
f 90/46/236 89/45/236 255/432/236 256/428/236
f 84/433/237 85/434/237 260/134/237 259/133/237
f 275/435/238 84/433/238 259/133/238 261/172/238
f 85/434/239 276/436/239 262/149/239 260/134/239
f 276/436/240 284/437/240 283/438/240 275/435/240 261/172/240 262/149/240
f 84/439/241 275/440/241 279/441/241 263/442/241
f 266/443/242 264/444/242 278/445/242 280/446/242
f 276/436/243 85/434/243 267/447/243 282/448/243
f 278/449/244 264/450/244 265/451/244 277/452/244
f 277/452/245 265/451/245 263/442/245 279/441/245
f 266/443/246 280/446/246 281/453/246 268/454/246
f 268/454/247 281/453/247 282/448/247 267/447/247
f 85/455/248 84/456/248 263/457/248 265/458/248 264/459/248 266/460/248 268/461/248 267/462/248
f 106/463/249 284/464/249 276/465/249
f 271/466/250 269/467/250 278/468/250 277/469/250
f 270/470/251 271/466/251 277/469/251 279/471/251
f 273/202/252 274/201/252 281/472/252 280/473/252
f 274/201/253 272/474/253 282/475/253 281/472/253
f 269/467/254 273/202/254 280/473/254 278/468/254
f 111/476/255 270/470/255 279/471/255 275/477/255
f 272/474/256 106/463/256 276/465/256 282/475/256
f 285/478/257 286/479/257 292/480/257 291/204/257 290/203/257 288/481/257 287/482/257 289/483/257
f 283/484/258 111/476/258 275/477/258
f 270/470/259 111/476/259 285/478/259 289/483/259
f 294/485/260 286/479/260 285/478/260 293/486/260
f 111/476/261 283/484/261 293/486/261 285/478/261
f 106/463/262 272/474/262 292/480/262 286/479/262
f 272/474/263 274/201/263 291/204/263 292/480/263
f 269/467/264 271/466/264 287/482/264 288/481/264
f 283/438/265 284/437/265 294/487/265 293/488/265
f 273/202/266 269/467/266 288/481/266 290/203/266
f 284/464/267 106/463/267 286/479/267 294/485/267
f 271/466/268 270/470/268 289/483/268 287/482/268
f 297/489/269 295/490/269 36/491/269 100/492/269
f 296/208/270 298/493/270 104/198/270 301/197/270
f 101/494/271 298/493/271 296/208/271 35/207/271
f 36/196/272 302/495/272 303/496/272 301/197/272
f 299/497/273 296/498/273 301/499/273 303/500/273
f 295/490/274 300/501/274 302/502/274 36/491/274
f 298/184/275 297/183/275 100/503/275 104/504/275
f 385/1/276 474/4/276 475/3/276 372/2/276
f 384/505/277 371/506/277 314/507/277 307/508/277
f 306/9/278 309/12/278 312/11/278 308/10/278
f 308/10/279 312/11/279 310/14/279 307/13/279
f 312/11/280 311/16/280 305/15/280 310/14/280
f 309/12/281 304/17/281 311/16/281 312/11/281
f 304/17/282 321/19/282 324/18/282 311/16/282
f 383/509/283 361/510/283 321/511/283 304/512/283
f 385/513/284 380/514/284 309/515/284 306/516/284
f 380/514/285 383/509/285 304/512/285 309/515/285
f 384/505/286 373/517/286 15/29/286 6/28/286
f 373/517/287 382/518/287 12/31/287 15/29/287
f 371/506/288 366/519/288 316/520/288 314/507/288
f 315/521/289 470/522/289 469/523/289 318/524/289
f 385/513/290 372/525/290 18/39/290 5/28/290
f 307/526/291 462/527/291 463/528/291 308/529/291
f 365/530/292 318/524/292 316/531/292 366/532/292
f 367/533/293 315/521/293 318/524/293 365/530/293
f 318/524/294 469/523/294 468/534/294 316/531/294
f 372/525/295 367/535/295 23/50/295 18/39/295
f 328/52/296 397/55/296 400/54/296 333/53/296
f 399/56/297 412/59/297 410/58/297 402/57/297
f 382/518/298 360/536/298 34/60/298 12/31/298
f 311/16/299 324/18/299 322/62/299 305/15/299
f 321/537/300 396/538/300 395/539/300 324/540/300
f 355/541/301 353/542/301 48/69/301 41/68/301
f 360/536/302 355/541/302 41/68/302 34/60/302
f 361/543/303 406/544/303 407/545/303 321/537/303
f 324/540/304 395/539/304 394/546/304 322/547/304
f 353/542/305 348/548/305 56/76/305 48/69/305
f 354/78/306 414/81/306 411/80/306 359/79/306
f 396/82/307 413/83/307 412/59/307 399/56/307
f 6/28/308 19/39/308 371/506/308 384/505/308
f 340/84/309 345/87/309 344/86/309 339/85/309
f 349/549/310 347/550/310 345/551/310 340/552/310
f 11/92/311 33/93/311 361/510/311 383/509/311
f 5/28/312 14/29/312 380/514/312 385/513/312
f 14/29/313 11/92/313 383/509/313 380/514/313
f 405/553/314 408/554/314 409/555/314 340/556/314
f 322/62/315 394/98/315 397/55/315 328/52/315
f 307/508/316 310/557/316 373/517/316 384/505/316
f 345/87/317 352/101/317 351/100/317 344/86/317
f 347/550/318 342/558/318 352/559/318 345/551/318
f 310/557/319 305/560/319 382/518/319 373/517/319
f 348/548/320 346/561/320 63/105/320 56/76/320
f 19/39/321 24/107/321 366/519/321 371/506/321
f 339/85/322 344/86/322 343/109/322 338/108/322
f 464/562/323 479/563/323 473/564/323 306/565/323
f 520/114/324 518/117/324 517/116/324 519/115/324
f 23/118/325 367/533/325 365/530/325 26/119/325
f 351/100/326 357/122/326 356/121/326 350/120/326
f 470/123/327 478/126/327 477/125/327 467/124/327
f 346/561/328 341/566/328 72/127/328 63/105/328
f 33/93/329 40/68/329 359/567/329 361/510/329
f 344/86/330 351/100/330 350/120/330 343/109/330
f 305/560/331 322/568/331 360/536/331 382/518/331
f 328/569/332 333/570/332 353/542/332 355/541/332
f 357/122/333 522/134/333 521/133/333 356/121/333
f 322/568/334 328/569/334 355/541/334 360/536/334
f 336/571/335 332/572/335 88/137/335 80/136/335
f 342/558/336 337/573/336 358/574/336 352/559/336
f 352/101/337 358/141/337 357/122/337 351/100/337
f 333/570/338 338/575/338 348/548/338 353/542/338
f 341/566/339 336/571/339 80/136/339 72/127/339
f 320/576/340 330/577/340 96/145/340 110/144/340
f 40/68/341 47/69/341 354/578/341 359/567/341
f 379/148/342 370/151/342 369/150/342 524/149/342
f 323/579/343 331/580/343 370/581/343 379/582/343
f 55/156/344 62/157/344 347/550/344 349/549/344
f 337/573/345 335/583/345 364/584/345 358/574/345
f 358/141/346 364/160/346 522/134/346 357/122/346
f 47/69/347 55/156/347 349/549/347 354/578/347
f 391/161/348 376/164/348 375/163/348 392/162/348
f 389/585/349 327/586/349 376/587/349 391/588/349
f 62/157/350 71/169/350 342/558/350 347/550/350
f 338/575/351 343/589/351 346/561/351 348/548/351
f 343/589/352 350/590/352 341/566/352 346/561/352
f 524/149/353 369/150/353 368/173/353 523/172/353
f 356/591/354 521/592/354 332/593/354 336/594/354
f 71/169/355 79/178/355 337/573/355 342/558/355
f 327/586/356 103/181/356 105/180/356 325/595/356
f 392/162/357 375/163/357 560/184/357 559/183/357 393/182/357
f 350/590/358 356/596/358 336/571/358 341/566/358
f 523/597/359 368/598/359 330/577/359 320/576/359
f 107/188/360 95/189/360 331/580/360 323/579/360
f 393/599/361 559/600/361 557/601/361 390/602/361
f 79/178/362 87/194/362 335/583/362 337/573/362
f 374/603/363 377/604/363 561/605/363 326/606/363
f 126/199/364 103/181/364 327/586/364 389/585/364
f 376/587/365 327/586/365 325/595/365 375/607/365
f 536/608/366 553/609/366 552/610/366 535/611/366
f 390/602/367 557/601/367 300/206/367 125/205/367
f 335/583/368 323/579/368 379/582/368 364/584/368
f 364/160/369 379/148/369 524/149/369 522/134/369
f 325/612/370 105/210/370 299/209/370 558/613/370
f 332/593/371 320/576/371 110/144/371 88/211/371
f 369/614/372 387/615/372 388/616/372 368/598/372
f 87/194/373 107/188/373 323/579/373 335/583/373
f 330/577/374 319/617/374 113/215/374 96/145/374
f 521/618/375 523/619/375 320/620/375 332/572/375
f 368/598/376 388/616/376 319/617/376 330/577/376
f 95/189/377 118/221/377 317/621/377 331/580/377
f 331/580/378 317/621/378 386/622/378 370/581/378
f 370/151/379 386/224/379 387/223/379 369/150/379
f 388/616/380 393/599/380 390/602/380 319/617/380
f 118/221/381 126/199/381 389/585/381 317/621/381
f 387/223/382 392/162/382 393/182/382 388/225/382
f 319/617/383 390/602/383 125/205/383 113/215/383
f 317/621/384 389/585/384 391/588/384 386/622/384
f 386/224/385 391/161/385 392/162/385 387/223/385
f 396/82/386 399/56/386 398/227/386 395/226/386
f 398/227/387 401/228/387 400/54/387 397/55/387
f 395/226/388 398/227/388 397/55/388 394/98/388
f 401/228/389 404/230/389 403/229/389 400/54/389
f 399/56/390 402/57/390 401/228/390 398/227/390
f 402/57/391 405/231/391 404/230/391 401/228/391
f 338/623/392 403/624/392 404/625/392 339/626/392
f 333/53/393 400/54/393 403/229/393 338/108/393
f 340/556/394 409/555/394 415/627/394 349/628/394
f 339/626/395 404/625/395 405/553/395 340/556/395
f 407/545/396 329/629/396 423/630/396 413/631/396
f 410/58/397 419/243/397 416/242/397 408/241/397
f 411/80/398 420/246/398 334/245/398 406/244/398
f 414/81/399 424/247/399 420/246/399 411/80/399
f 412/59/400 422/248/400 419/243/400 410/58/400
f 408/554/401 416/632/401 417/633/401 409/555/401
f 402/57/402 410/58/402 408/241/402 405/231/402
f 349/251/403 415/252/403 414/81/403 354/78/403
f 321/537/404 407/545/404 413/631/404 396/538/404
f 359/79/405 411/80/405 406/244/405 361/253/405
f 419/243/406 430/255/406 428/254/406 416/242/406
f 420/246/407 431/257/407 426/256/407 334/245/407
f 424/247/408 434/258/408 431/257/408 420/246/408
f 422/248/409 432/259/409 430/255/409 419/243/409
f 416/632/410 428/634/410 429/635/410 417/633/410
f 423/262/411 433/263/411 432/259/411 422/248/411
f 415/252/412 425/264/412 424/247/412 414/81/412
f 409/555/413 417/633/413 425/636/413 415/627/413
f 406/544/414 334/637/414 329/629/414 407/545/414
f 413/83/415 423/262/415 422/248/415 412/59/415
f 454/638/416 418/639/416 443/640/416 453/641/416
f 450/271/417 439/274/417 436/273/417 451/272/417
f 448/275/418 440/278/418 421/277/418 446/276/418
f 447/279/419 444/280/419 440/278/419 448/275/419
f 449/281/420 442/282/420 439/274/420 450/271/420
f 436/273/421 458/284/421 460/283/421 451/272/421
f 329/629/422 427/642/422 433/643/422 423/630/422
f 425/264/423 435/287/423 434/258/423 424/247/423
f 417/633/424 429/635/424 435/644/424 425/636/424
f 334/637/425 426/645/425 427/642/425 329/629/425
f 421/646/426 440/647/426 441/648/426 418/649/426
f 437/650/427 436/651/427 439/652/427 438/653/427
f 440/647/428 444/654/428 438/653/428 441/648/428
f 441/648/429 442/655/429 443/656/429 418/649/429
f 444/654/430 445/657/430 437/650/430 438/653/430
f 438/653/431 439/652/431 442/655/431 441/648/431
f 455/302/432 445/303/432 444/280/432 447/279/432
f 455/302/433 461/305/433 459/304/433 445/303/433
f 446/658/434 421/659/434 418/639/434 454/638/434
f 453/308/435 443/309/435 442/282/435 449/281/435
f 433/263/436 453/308/436 449/281/436 432/259/436
f 426/645/437 446/658/437 454/638/437 427/642/437
f 429/635/438 452/660/438 455/661/438 435/644/438
f 435/287/439 455/302/439 447/279/439 434/258/439
f 428/634/440 451/662/440 452/660/440 429/635/440
f 432/259/441 449/281/441 450/271/441 430/255/441
f 434/258/442 447/279/442 448/275/442 431/257/442
f 431/257/443 448/275/443 446/276/443 426/256/443
f 430/255/444 450/271/444 451/272/444 428/254/444
f 427/642/445 454/638/445 453/641/445 433/643/445
f 460/663/446 458/664/446 457/665/446 456/666/446
f 456/666/447 457/665/447 459/667/447 461/668/447
f 451/669/448 460/670/448 456/671/448 452/672/448
f 437/650/449 457/673/449 458/674/449 436/651/449
f 452/672/450 456/671/450 461/675/450 455/676/450
f 445/657/451 459/677/451 457/673/451 437/650/451
f 462/328/452 465/331/452 466/330/452 463/329/452
f 466/330/453 469/332/453 470/123/453 467/124/453
f 463/329/454 466/330/454 467/124/454 464/333/454
f 465/331/455 468/334/455 469/332/455 466/330/455
f 308/529/456 463/528/456 464/562/456 306/565/456
f 314/507/457 465/678/457 462/679/457 307/508/457
f 467/124/458 477/125/458 479/337/458 464/333/458
f 316/520/459 468/680/459 465/678/459 314/507/459
f 474/4/460 482/340/460 483/339/460 475/3/460
f 476/681/461 484/682/461 480/683/461 472/684/461
f 473/564/462 481/685/462 482/686/462 474/687/462
f 477/125/463 485/349/463 487/348/463 479/337/463
f 315/521/464 472/684/464 478/688/464 470/522/464
f 367/533/465 476/681/465 472/684/465 315/521/465
f 372/2/466 475/3/466 476/352/466 367/351/466
f 306/565/467 473/564/467 474/687/467 385/689/467
f 498/690/468 492/691/468 488/692/468 501/693/468
f 499/358/469 507/361/469 506/360/469 490/359/469
f 313/362/470 493/365/470 495/364/470 496/363/470
f 497/366/471 491/369/471 492/368/471 498/367/471
f 479/563/472 487/694/472 481/685/472 473/564/472
f 472/684/473 480/683/473 486/695/473 478/688/473
f 478/126/474 486/372/474 485/349/474 477/125/474
f 475/3/475 483/339/475 484/373/475 476/352/475
f 489/696/476 495/697/476 493/698/476 471/699/476
f 489/696/477 471/699/477 491/700/477 490/701/477
f 471/699/478 488/702/478 492/703/478 491/700/478
f 471/699/479 493/698/479 494/704/479 488/702/479
f 499/358/480 490/359/480 491/369/480 497/366/480
f 495/364/481 504/384/481 503/383/481 496/363/481
f 501/693/482 488/692/482 494/705/482 502/706/482
f 502/387/483 494/388/483 493/365/483 313/362/483
f 516/389/484 502/387/484 313/362/484 509/390/484
f 515/707/485 501/693/485 502/706/485 516/708/485
f 512/709/486 496/710/486 500/711/486 511/712/486
f 514/397/487 499/358/487 497/366/487 510/398/487
f 510/398/488 497/366/488 498/367/488 513/399/488
f 509/390/489 313/362/489 496/363/489 512/400/489
f 511/712/490 500/711/490 499/713/490 514/714/490
f 513/715/491 498/690/491 501/693/491 515/707/491
f 508/716/492 505/717/492 506/718/492 507/719/492
f 503/720/493 504/721/493 505/717/493 508/716/493
f 500/722/494 508/723/494 507/724/494 499/725/494
f 490/701/495 506/726/495 505/727/495 489/696/495
f 496/728/496 503/729/496 508/723/496 500/722/496
f 489/696/497 505/727/497 504/730/497 495/697/497
f 484/682/498 513/715/498 515/707/498 480/683/498
f 481/685/499 511/712/499 514/714/499 482/686/499
f 485/349/500 509/390/500 512/400/500 487/348/500
f 483/339/501 510/398/501 513/399/501 484/373/501
f 482/340/502 514/397/502 510/398/502 483/339/502
f 487/694/503 512/709/503 511/712/503 481/685/503
f 480/683/504 515/707/504 516/708/504 486/695/504
f 486/372/505 516/389/505 509/390/505 485/349/505
f 252/419/506 517/731/506 518/732/506 251/420/506
f 519/733/507 517/734/507 252/425/507 257/424/507
f 258/427/508 251/420/508 518/732/508 520/735/508
f 24/107/509 258/430/509 520/736/509 366/519/509
f 365/530/510 519/737/510 257/431/510 26/119/510
f 366/532/511 520/735/511 519/737/511 365/530/511
f 362/433/512 521/133/512 522/134/512 363/434/512
f 537/435/513 523/172/513 521/133/513 362/433/513
f 363/434/514 522/134/514 524/149/514 538/436/514
f 538/436/515 524/149/515 523/172/515 537/435/515 545/438/515 546/437/515
f 362/738/516 525/739/516 541/740/516 537/741/516
f 528/443/517 542/446/517 540/445/517 526/444/517
f 538/436/518 544/448/518 529/447/518 363/434/518
f 540/742/519 539/743/519 527/744/519 526/745/519
f 539/743/520 541/740/520 525/739/520 527/744/520
f 528/443/521 530/454/521 543/453/521 542/446/521
f 530/454/522 529/447/522 544/448/522 543/453/522
f 363/746/523 529/747/523 530/748/523 528/749/523 526/750/523 527/751/523 525/752/523 362/753/523
f 378/754/524 538/755/524 546/756/524
f 533/757/525 539/758/525 540/759/525 531/760/525
f 532/761/526 541/762/526 539/758/526 533/757/526
f 535/611/527 542/763/527 543/764/527 536/608/527
f 536/608/528 543/764/528 544/765/528 534/766/528
f 531/760/529 540/759/529 542/763/529 535/611/529
f 381/767/530 537/768/530 541/762/530 532/761/530
f 534/766/531 544/765/531 538/755/531 378/754/531
f 547/769/532 551/770/532 549/771/532 550/772/532 552/610/532 553/609/532 554/773/532 548/774/532
f 545/775/533 537/768/533 381/767/533
f 532/761/534 551/770/534 547/769/534 381/767/534
f 556/776/535 555/777/535 547/769/535 548/774/535
f 381/767/536 547/769/536 555/777/536 545/775/536
f 378/754/537 548/774/537 554/773/537 534/766/537
f 534/766/538 554/773/538 553/609/538 536/608/538
f 531/760/539 550/772/539 549/771/539 533/757/539
f 545/438/540 555/488/540 556/487/540 546/437/540
f 535/611/541 552/610/541 550/772/541 531/760/541
f 546/756/542 556/776/542 548/774/542 378/754/542
f 533/757/543 549/771/543 551/770/543 532/761/543
f 559/778/544 374/779/544 326/780/544 557/781/544
f 558/613/545 561/605/545 377/604/545 560/782/545
f 375/783/546 325/612/546 558/613/546 560/782/546
f 326/606/547 561/605/547 303/496/547 302/495/547
f 299/497/548 303/500/548 561/784/548 558/785/548
f 557/781/549 326/780/549 302/502/549 300/501/549
f 560/184/550 377/504/550 374/503/550 559/183/550
f 562/786/551 575/787/551 574/788/551
f 563/789/552 575/790/552 577/791/552
f 562/792/553 574/793/553 579/794/553
f 562/795/554 579/796/554 581/797/554
f 562/798/555 581/799/555 578/800/555
f 563/789/556 577/791/556 584/801/556
f 564/802/557 576/803/557 586/804/557
f 565/805/558 580/806/558 588/807/558
f 566/808/559 582/809/559 590/810/559
f 567/811/560 583/812/560 592/813/560
f 563/789/561 584/801/561 587/814/561
f 564/802/562 586/804/562 589/815/562
f 565/805/563 588/807/563 591/816/563
f 566/808/564 590/810/564 593/817/564
f 567/811/565 592/813/565 585/818/565
f 568/819/566 594/820/566 599/821/566
f 569/822/567 595/823/567 601/824/567
f 570/825/568 596/826/568 602/827/568
f 571/828/569 597/829/569 603/830/569
f 572/831/570 598/832/570 600/833/570
f 600/833/571 603/834/571 573/835/571
f 600/833/572 598/832/572 603/834/572
f 598/832/573 571/828/573 603/834/573
f 603/830/574 602/836/574 573/837/574
f 603/830/575 597/829/575 602/836/575
f 597/829/576 570/825/576 602/836/576
f 602/827/577 601/838/577 573/839/577
f 602/827/578 596/826/578 601/838/578
f 596/826/579 569/840/579 601/838/579
f 601/824/580 599/841/580 573/842/580
f 601/824/581 595/823/581 599/841/581
f 595/823/582 568/819/582 599/841/582
f 599/821/583 600/843/583 573/844/583
f 599/821/584 594/820/584 600/843/584
f 594/820/585 572/831/585 600/843/585
f 585/818/586 598/832/586 572/831/586
f 585/818/587 592/813/587 598/832/587
f 592/813/588 571/828/588 598/832/588
f 593/817/589 597/829/589 571/828/589
f 593/817/590 590/810/590 597/829/590
f 590/810/591 570/825/591 597/829/591
f 591/816/592 596/826/592 570/825/592
f 591/816/593 588/807/593 596/826/593
f 588/807/594 569/840/594 596/826/594
f 589/815/595 595/823/595 569/822/595
f 589/815/596 586/804/596 595/823/596
f 586/804/597 568/819/597 595/823/597
f 587/814/598 594/820/598 568/819/598
f 587/814/599 584/801/599 594/820/599
f 584/801/600 572/831/600 594/820/600
f 592/813/601 593/817/601 571/828/601
f 592/813/602 583/812/602 593/817/602
f 583/812/603 566/808/603 593/817/603
f 590/810/604 591/816/604 570/825/604
f 590/810/605 582/809/605 591/816/605
f 582/809/606 565/805/606 591/816/606
f 588/807/607 589/845/607 569/840/607
f 588/807/608 580/806/608 589/845/608
f 580/806/609 564/846/609 589/845/609
f 586/804/610 587/814/610 568/819/610
f 586/804/611 576/803/611 587/814/611
f 576/803/612 563/789/612 587/814/612
f 584/801/613 585/818/613 572/831/613
f 584/801/614 577/791/614 585/818/614
f 577/791/615 567/811/615 585/818/615
f 578/800/616 583/812/616 567/811/616
f 578/800/617 581/799/617 583/812/617
f 581/799/618 566/808/618 583/812/618
f 581/797/619 582/809/619 566/808/619
f 581/797/620 579/796/620 582/809/620
f 579/796/621 565/805/621 582/809/621
f 579/794/622 580/806/622 565/805/622
f 579/794/623 574/793/623 580/806/623
f 574/793/624 564/846/624 580/806/624
f 577/791/625 578/847/625 567/811/625
f 577/791/626 575/790/626 578/847/626
f 575/790/627 562/848/627 578/847/627
f 574/788/628 576/803/628 564/802/628
f 574/788/629 575/787/629 576/803/629
f 575/787/630 563/789/630 576/803/630
f 604/786/631 616/788/631 617/787/631
f 605/789/632 619/791/632 617/790/632
f 604/792/633 621/794/633 616/793/633
f 604/795/634 623/797/634 621/796/634
f 604/798/635 620/800/635 623/799/635
f 605/789/636 626/801/636 619/791/636
f 606/802/637 628/804/637 618/803/637
f 607/805/638 630/807/638 622/806/638
f 608/808/639 632/810/639 624/809/639
f 609/811/640 634/813/640 625/812/640
f 605/789/641 629/814/641 626/801/641
f 606/802/642 631/815/642 628/804/642
f 607/805/643 633/816/643 630/807/643
f 608/808/644 635/817/644 632/810/644
f 609/811/645 627/818/645 634/813/645
f 610/819/646 641/821/646 636/820/646
f 611/822/647 643/824/647 637/823/647
f 612/825/648 644/827/648 638/826/648
f 613/828/649 645/830/649 639/829/649
f 614/831/650 642/833/650 640/832/650
f 642/833/651 615/835/651 645/834/651
f 642/833/652 645/834/652 640/832/652
f 640/832/653 645/834/653 613/828/653
f 645/830/654 615/837/654 644/836/654
f 645/830/655 644/836/655 639/829/655
f 639/829/656 644/836/656 612/825/656
f 644/827/657 615/839/657 643/838/657
f 644/827/658 643/838/658 638/826/658
f 638/826/659 643/838/659 611/840/659
f 643/824/660 615/842/660 641/841/660
f 643/824/661 641/841/661 637/823/661
f 637/823/662 641/841/662 610/819/662
f 641/821/663 615/844/663 642/843/663
f 641/821/664 642/843/664 636/820/664
f 636/820/665 642/843/665 614/831/665
f 627/818/666 614/831/666 640/832/666
f 627/818/667 640/832/667 634/813/667
f 634/813/668 640/832/668 613/828/668
f 635/817/669 613/828/669 639/829/669
f 635/817/670 639/829/670 632/810/670
f 632/810/671 639/829/671 612/825/671
f 633/816/672 612/825/672 638/826/672
f 633/816/673 638/826/673 630/807/673
f 630/807/674 638/826/674 611/840/674
f 631/815/675 611/822/675 637/823/675
f 631/815/676 637/823/676 628/804/676
f 628/804/677 637/823/677 610/819/677
f 629/814/678 610/819/678 636/820/678
f 629/814/679 636/820/679 626/801/679
f 626/801/680 636/820/680 614/831/680
f 634/813/681 613/828/681 635/817/681
f 634/813/682 635/817/682 625/812/682
f 625/812/683 635/817/683 608/808/683
f 632/810/684 612/825/684 633/816/684
f 632/810/685 633/816/685 624/809/685
f 624/809/686 633/816/686 607/805/686
f 630/807/687 611/840/687 631/845/687
f 630/807/688 631/845/688 622/806/688
f 622/806/689 631/845/689 606/846/689
f 628/804/690 610/819/690 629/814/690
f 628/804/691 629/814/691 618/803/691
f 618/803/692 629/814/692 605/789/692
f 626/801/693 614/831/693 627/818/693
f 626/801/694 627/818/694 619/791/694
f 619/791/695 627/818/695 609/811/695
f 620/800/696 609/811/696 625/812/696
f 620/800/697 625/812/697 623/799/697
f 623/799/698 625/812/698 608/808/698
f 623/797/699 608/808/699 624/809/699
f 623/797/700 624/809/700 621/796/700
f 621/796/701 624/809/701 607/805/701
f 621/794/702 607/805/702 622/806/702
f 621/794/703 622/806/703 616/793/703
f 616/793/704 622/806/704 606/846/704
f 619/791/705 609/811/705 620/847/705
f 619/791/706 620/847/706 617/790/706
f 617/790/707 620/847/707 604/848/707
f 616/788/708 606/802/708 618/803/708
f 616/788/709 618/803/709 617/787/709
f 617/787/710 618/803/710 605/789/710
