# Blender 5.1.1
# www.blender.org
mtllib low_poly_wolf_animated0020.mtl
o Wolf
v -0.164597 3.433900 -2.132193
v -0.513392 1.370600 -1.515869
v 0.014469 3.663440 -0.843229
v -0.492070 1.381427 -1.959122
v -0.707723 1.608536 -1.367398
v 0.139223 2.790719 3.131495
v 0.572529 3.271073 0.384538
v -0.551072 2.957543 -2.038810
v 0.235080 1.966170 -0.439184
v -0.774403 2.395712 -1.282450
v 0.313160 2.843908 2.860978
v -0.571847 1.791404 -1.247899
v -0.614802 3.161460 -1.062450
v -0.853172 0.121449 -1.352161
v 0.682406 3.082591 -1.798438
v -0.297390 2.225937 -1.406373
v -0.849381 2.219049 -1.651017
v -0.104380 2.216127 1.599662
v -0.561049 1.388674 -2.010472
v 0.324861 2.332693 -0.893303
v -0.145261 1.730448 0.115880
v -0.417395 0.060589 1.626754
v 0.454699 1.622255 -1.715652
v -0.587972 1.456977 0.323732
v -0.266633 0.059502 1.392215
v -0.115230 2.988246 -2.237386
v -0.482469 3.275773 -1.179242
v 0.333858 1.741573 0.100093
v -0.539620 2.591661 -0.293052
v -0.396414 1.424803 0.655517
v 0.520570 1.132813 -2.154604
v -0.420360 2.521564 -1.075998
v -0.475473 2.742984 1.415144
v -0.158826 2.205558 -3.182518
v 0.137649 2.303052 -1.551435
v -0.570743 2.421944 0.110996
v -0.226992 3.518153 1.122802
v -0.265045 0.324717 1.368389
v -0.435218 3.247595 0.417620
v -0.492261 1.465757 0.713665
v -0.448507 2.886564 1.247951
v 0.615460 3.256472 1.242589
v 0.454034 3.473167 2.832949
v -0.383319 3.986343 2.419435
v 0.433218 3.498188 2.852322
v 0.417281 3.503746 2.861415
v -0.790658 2.856372 -1.603874
v 0.381994 3.498303 2.874054
v -0.120344 3.301244 2.794401
v 0.353502 3.473397 2.875601
v 0.345435 3.456415 2.871849
v 0.655235 3.204890 2.273668
v 0.345528 3.421534 2.857085
v 0.353680 3.407053 2.847519
v -0.055676 3.011587 -2.303505
v 0.382282 3.390955 2.828618
v 0.399933 3.390915 2.821131
v 0.417569 3.396399 2.815979
v 0.652799 3.036511 1.058676
v 0.446060 3.421304 2.814432
v 0.454127 3.438291 2.818184
v -0.591882 0.210216 1.595755
v 0.454034 3.485035 2.828862
v -0.093653 3.456415 2.868696
v 0.433218 3.510278 2.847842
v 0.417281 3.515964 2.856843
v -0.484251 0.272025 1.661898
v 0.381994 3.510753 2.869550
v 0.940095 0.128350 1.607708
v 0.353502 3.486049 2.871444
v 0.345435 3.469150 2.867932
v 0.489178 3.249301 -1.544810
v 0.345528 3.434294 2.853690
v 0.353680 3.419705 2.844364
v 0.645063 0.489945 1.103526
v 0.382282 3.403242 2.825764
v 0.399933 3.403016 2.818299
v 0.417569 3.408338 2.813077
v -0.413773 3.744037 2.252116
v 0.446060 3.433073 2.811154
v 0.454127 3.450045 2.814644
v -0.153232 3.754233 2.754136
v -0.452637 2.760824 -2.170128
v -0.115845 3.623873 1.001724
v -0.260431 2.332451 -0.865270
v -0.120529 1.970103 -3.188482
v 0.666298 0.250970 -1.814333
v 0.830145 2.626829 -1.597399
v 0.393858 3.458387 2.845978
v -0.062863 3.431463 2.834067
v 0.715767 3.115088 0.302296
v 0.510482 2.705552 1.846833
v -0.475186 3.188978 -2.014367
v 0.696580 2.801289 -1.987924
v -0.534933 2.254451 1.358567
v 0.139273 2.246754 1.813176
v 0.035033 3.389753 2.920601
v 0.446216 2.743914 -2.183861
v -0.765824 2.832207 -1.230845
v -0.461280 0.119286 1.774397
v 0.571863 1.791360 -1.248000
v 0.471159 3.484149 2.780729
v 0.466973 3.509334 2.792686
v 0.454962 3.530803 2.806451
v 0.436303 3.546504 2.820664
v 0.412821 3.554894 2.833922
v 0.386815 3.555152 2.844939
v 0.360832 3.547232 2.852636
v 0.337413 3.531952 2.856248
v 0.318852 3.510803 2.855425
v 0.306966 3.485862 2.850255
v 0.302917 3.459560 2.841248
v 0.307104 3.434422 2.829295
v 0.319114 3.412914 2.815565
v 0.337774 3.397155 2.801391
v 0.361256 3.388707 2.788148
v 0.387261 3.388384 2.777141
v 0.413245 3.396213 2.769451
v 0.436664 3.411497 2.765822
v 0.455224 3.432693 2.766612
v 0.467110 3.457740 2.771744
v -0.137663 3.475359 2.850187
v -0.637647 0.872406 -1.986082
v 0.558560 0.924088 -1.750101
v -0.116415 3.501358 2.867610
v -0.100073 3.507619 2.875429
v 0.441143 3.459707 2.823790
v -0.063795 3.503673 2.885532
v -0.359956 2.145214 -1.812003
v -0.034390 3.479983 2.885341
v -0.026011 3.463371 2.881245
v -0.558560 0.924087 -1.750101
v -0.025917 3.428396 2.867063
v -0.034213 3.413521 2.858346
v -0.392714 0.464655 1.085744
v -0.063507 3.396052 2.841861
v -0.081639 3.395207 2.835696
v -0.099785 3.399911 2.831770
v -0.639422 2.476011 1.273384
v -0.129189 3.423652 2.831930
v -0.137569 3.440348 2.836002
v 0.470331 3.191510 -2.021676
v 0.650182 4.003959 2.382032
v -0.686755 1.420602 -1.905782
v 0.185598 2.793008 3.267128
v -0.336774 3.457076 0.918656
v -0.079460 3.429110 2.829348
v -0.177543 1.725536 0.463806
v -0.199273 3.822529 2.626833
v 0.261340 2.952766 3.335897
v -0.582722 0.183619 1.433143
v 0.472959 2.054116 -2.030722
v -0.587111 0.079991 -1.336014
v 0.705660 2.763196 1.372394
v 0.027344 2.838774 2.871297
v 0.791993 2.116850 1.177349
v -0.751112 2.328953 -1.902679
v -0.018386 2.531866 2.116396
v -0.062916 3.440946 2.854960
v -0.467968 1.526874 0.133551
v 0.301945 2.226876 -1.410005
v -0.158200 3.473777 2.803429
v -0.154036 3.499120 2.815057
v -0.141814 3.521027 2.827919
v -0.122730 3.537400 2.840743
v -0.098652 3.546631 2.852261
v -0.071937 3.547818 2.861358
v -0.045201 3.540824 2.867142
v -0.021060 3.526372 2.869038
v -0.001878 3.505873 2.866863
v 0.010469 3.481336 2.860838
v 0.014771 3.455142 2.851559
v 0.010607 3.429827 2.839937
v -0.001615 3.407881 2.827107
v -0.020699 3.391457 2.814318
v -0.044777 3.382179 2.802812
v -0.071492 3.380939 2.793721
v -0.098228 3.387854 2.787941
v -0.122369 3.402316 2.786029
v -0.141551 3.422864 2.788172
v -0.153898 3.447500 2.794163
v 0.544291 3.538621 1.315854
v 0.791741 2.858944 -1.607321
v 0.376027 2.972476 3.071937
v -0.454699 1.622255 -1.715652
v -0.203807 3.479399 0.444694
v 0.141275 3.531966 0.748138
v -0.738349 2.011055 -1.216075
v -0.682912 3.078218 -1.791078
v -0.634169 1.729579 0.784275
v -0.821739 1.978102 -1.380524
v 0.686493 3.308660 1.860470
v 0.476659 2.267261 -1.127346
v -0.480460 3.233173 -1.521219
v 0.521337 3.216259 2.650158
v -0.463423 2.261366 -1.124284
v 0.707723 1.608536 -1.367398
v 0.176526 3.357302 3.035932
v -0.352213 3.092965 -2.155283
v 0.115830 1.680190 0.721562
v -0.655798 2.150214 1.079517
v -0.172983 3.699712 1.356557
v -0.500709 0.941935 -1.965259
v -0.491289 3.293527 -0.096138
v 0.153174 3.597734 -1.879970
v -0.466242 2.265940 -0.405133
v -0.310943 3.902320 2.295083
v 0.596118 1.508284 0.148631
v 0.804318 1.843171 0.516544
v -0.576271 3.085679 0.345190
v -0.460263 1.189462 0.321990
v -0.392520 3.012050 1.392736
v -0.359363 3.202959 2.172422
v -0.523548 3.129280 -0.128465
v -0.591279 1.123182 -2.142990
v 0.372715 2.889444 2.498911
v -0.518322 2.782560 0.619556
v 0.660124 2.619470 -0.332636
v -0.465623 2.899903 -0.700019
v 0.182168 2.790174 3.170706
v -0.409293 3.669276 2.384776
v 0.591279 1.123182 -2.142989
v -0.137663 3.462538 2.854312
v -0.019353 1.906477 -3.576348
v -0.188776 3.639835 -1.313098
v -0.116415 3.488315 2.872167
v -0.100073 3.494453 2.880095
v -0.544137 0.353019 -1.602016
v -0.063795 3.490295 2.890149
v 0.845019 0.123239 -1.338158
v -0.034390 3.466429 2.889606
v -0.026011 3.449743 2.885260
v -0.522879 0.021310 1.399689
v -0.025917 3.414862 2.870496
v -0.034213 3.400085 2.861524
v -0.163635 1.907802 -3.570196
v -0.063507 3.382947 2.844713
v -0.081639 3.382265 2.838519
v -0.099785 3.387105 2.834659
v 0.849384 2.219052 -1.651020
v -0.129189 3.410971 2.835202
v -0.137569 3.427662 2.839548
v -0.750286 0.313432 -1.338193
v -0.071029 1.948404 -3.126278
v -0.503121 0.416058 1.381914
v 0.500151 3.472167 0.882017
v 0.195889 3.641942 -1.326045
v 0.057794 2.843881 2.953685
v 0.388320 3.517457 2.914542
v 0.745573 3.042679 -1.029737
v -0.217327 3.618800 2.759191
v 0.452451 3.764718 2.732329
v -0.110027 3.174170 -2.424229
v -0.103819 3.430384 2.832744
v 0.257564 2.809355 3.063246
v 0.222274 2.797711 3.135325
v -0.452721 3.190417 -0.686494
v -0.209382 3.519429 -0.136284
v -0.093212 1.752162 -3.580274
v 0.544156 2.922853 -0.732882
v 0.389170 1.738673 0.445110
v 0.453693 2.537916 -0.844704
v 0.567741 3.707059 1.835350
v -0.458315 3.013494 1.097296
v -0.026969 2.703124 -2.502505
v 0.666087 1.553162 0.096130
v -0.854394 0.122067 -1.358766
v 0.002934 3.265357 3.001231
v -0.076096 3.450573 2.862792
v -0.327923 2.668914 -2.194582
v 0.886053 2.184524 1.028085
v 0.550647 1.563767 0.300144
v -0.692047 3.071284 -1.478656
v -0.329713 3.447703 -0.673976
v 0.738347 2.011007 -1.216138
v 0.699318 4.161316 2.432593
v 0.459165 1.944636 -1.339216
v -0.502280 0.257356 -1.791836
v 0.699529 3.082587 -1.494957
v -0.024721 2.965277 3.086406
v 0.821752 1.978084 -1.380580
v 0.702984 0.490055 1.049589
v 0.781934 0.088391 1.587179
v 0.104020 3.768135 1.501595
v 0.442258 0.122992 -1.502418
v 0.112840 2.880424 -2.512769
v 0.380482 3.448327 2.839092
v 0.007461 2.353917 -1.853828
v 0.182020 2.784671 3.163883
v 0.288566 2.848027 2.945352
v -0.163775 2.881677 -2.503969
v 0.257712 2.814858 3.070068
v 0.795521 0.281573 1.254611
v 0.761698 4.073072 2.424175
v 0.519089 3.211798 -0.717910
v -0.294353 3.281963 1.158070
v -0.588089 2.174977 -2.057046
v 0.320034 3.343980 2.930797
v 0.561049 1.388674 -2.010472
v 0.873933 0.053691 1.353598
v 0.222126 2.792208 3.128502
v 0.676764 3.762675 2.212022
v 0.592423 3.318650 -0.131898
v 0.510936 3.295532 -1.208188
v 0.513392 1.370600 -1.515869
v 0.478402 3.927541 2.393678
v 0.110238 2.949635 3.338648
v 0.009310 2.356545 -1.378723
v -0.244068 2.433677 -1.166110
v 0.411596 3.464817 2.850617
v -0.729230 0.071698 -1.386406
v -0.394048 0.904616 1.015188
v 0.598830 1.905753 0.264668
v 0.238991 2.306477 -1.769176
v 0.689927 2.809403 0.579214
v 0.660785 2.906370 1.207989
v 0.865030 0.233909 -1.440041
v 0.948286 0.128237 1.595640
v -0.349173 1.776941 0.210226
v -0.666298 0.250970 -1.814333
v -0.058250 3.435132 2.841523
v -0.331422 0.467308 1.135747
v 0.834796 0.447073 1.337766
v 0.793357 2.720469 0.758794
v 0.321626 3.358630 2.859416
v 0.486553 3.295701 1.128826
v -0.605499 2.689629 0.805681
v 0.702320 0.305144 -1.644957
v 0.478428 1.720609 0.228843
v -0.375647 2.519224 -0.821219
v -0.068504 2.357493 -3.205813
v -0.696571 2.800582 -1.987861
v 0.928274 0.218646 1.383284
v 0.729230 0.071698 -1.386406
v -0.113879 3.433533 2.840747
v 0.151795 3.812737 2.831105
v -0.009274 3.465561 -2.253020
v 0.731353 1.494124 0.673289
v -0.180003 3.538065 0.871316
v 0.348823 3.022290 -2.171333
v 0.877996 1.381190 0.658696
v -0.503819 3.292424 0.931570
v -0.865030 0.233909 -1.440041
v -0.242179 2.693604 1.874502
v -0.342634 3.524330 1.350277
v -0.319100 3.716080 1.855523
v -0.279920 1.703028 0.253859
v 0.024553 2.185595 -0.891792
v -0.338044 2.066244 -0.428614
v 0.532414 1.882152 1.115596
v -0.584493 0.092704 1.646218
v 0.386428 3.462029 -0.696486
v -0.159687 2.658207 2.055231
v 0.481088 3.033388 2.452939
v 0.367575 2.224634 1.583103
v 0.161553 3.590450 2.995536
v -0.298119 2.458497 1.686340
v -0.464124 3.253724 1.539670
v -0.711723 0.182920 -1.198822
v 0.090586 1.758374 0.010484
v -0.577205 2.604527 -1.073151
v -0.368858 3.187470 2.311002
v -0.472805 2.053992 -2.030551
v -0.530844 3.030769 1.584302
v 0.309184 3.526160 -0.160147
v 0.651898 0.652157 1.187245
v 0.679300 0.929499 0.979771
v 0.749592 0.791544 1.187365
v -0.009793 2.222120 1.731958
v -0.520570 1.132813 -2.154604
v -0.060687 2.886124 2.465681
v 0.725664 2.451977 0.068253
v 0.511971 2.727559 -0.752753
v -0.458531 0.034121 1.704663
v 0.888177 0.696655 1.181076
v 0.652651 3.186036 -1.097928
v 0.521387 3.631618 2.732575
v 0.558866 2.472895 1.655357
v 0.612887 3.028766 1.355342
v 0.379554 3.506015 -1.240499
v -0.411302 3.239170 1.281237
v 0.686594 2.458091 0.449960
v 0.853172 0.121449 -1.352161
v -0.702380 3.016518 -0.992991
v 0.150886 3.435956 -2.136447
v 0.544137 0.353019 -1.602016
v -0.781186 0.089807 -1.248251
v 0.098729 2.812003 3.075808
v 0.205350 2.716010 3.135801
v 0.801467 1.489186 0.277884
v 0.423613 3.465217 2.845013
v 0.731760 0.352723 1.440300
v 0.323834 2.668155 -2.196443
v 0.310959 2.537243 2.104877
v -0.614751 2.265168 0.657009
v 0.018542 2.203922 -3.189915
v 0.324284 3.590943 0.962504
v 0.551961 3.887476 2.131618
v 0.041709 2.773417 3.158827
v -0.591474 1.810814 0.562603
v 0.411717 3.798209 1.830407
v -0.506979 2.430565 0.489269
v -0.493645 4.051768 2.469640
v 0.779521 2.399728 -1.286241
v 0.754811 1.887460 1.001977
v 0.251054 2.978256 3.439121
v -0.106040 3.456386 2.863975
v -0.392689 1.485362 0.181260
v -0.634162 1.346134 0.708592
v 0.779116 2.281725 1.313779
v 0.630057 3.156021 -0.166529
v -0.200796 1.782904 0.955631
v 0.584111 1.663715 0.788106
v 0.946886 0.245887 1.544979
v 0.949801 0.129424 1.589964
v 0.854394 0.122067 -1.358766
v 0.812591 2.297982 0.609981
v -0.163693 3.594331 -1.875913
v 0.459958 2.542748 -1.085188
v 0.765852 3.051572 1.535454
v 0.321916 2.778450 3.148710
v -0.283399 1.863627 1.142666
v -0.027843 1.969287 -3.192467
v 0.125616 1.789071 1.101227
v 0.333494 3.507464 -1.734264
v 0.829295 0.063975 1.662167
v -0.345783 1.642158 0.818790
v 0.779910 2.844134 -1.245759
v 0.191853 2.544099 -2.100692
v -0.642905 0.990046 -1.762875
v 0.420050 3.439201 2.813956
v -0.830148 2.626828 -1.597406
v 0.074649 3.174341 -2.429068
v -0.152277 2.306940 -1.532312
v 0.500709 0.941935 -1.965259
v 0.492070 1.381427 -1.959122
v 0.616259 0.079969 1.363082
v -0.477340 0.239825 -1.346620
v -0.124841 3.450203 2.844078
v -0.340228 0.629158 1.219982
v -0.578205 0.662662 1.229463
v -0.067710 3.510163 2.930734
v 0.546012 2.956888 -2.046907
v 0.409108 3.529212 1.099865
v 0.116806 3.002310 3.416195
v -0.442258 0.122992 -1.502418
v 0.251566 3.951463 2.504744
v -0.263815 0.180104 1.650044
v 0.686441 1.216045 0.284153
v 0.047732 2.787278 2.811052
v 0.395546 3.437122 2.812314
v 0.600830 0.344789 1.339817
v 0.635147 3.219707 2.135999
v -0.121592 3.440596 2.845123
v -0.433843 3.291276 1.902091
v -0.190738 2.542480 -2.095185
v 0.477340 0.239825 -1.346620
v 0.594715 2.290521 -0.440122
v -0.702320 0.305144 -1.644957
v -0.575539 0.093215 1.657720
v 0.604361 2.620065 -1.086094
v -0.389297 0.326735 1.477293
v -0.006003 3.655270 -1.927255
v 0.442097 1.797807 0.934418
v -0.341008 3.497158 -1.719626
v 0.624855 0.200705 1.620720
v -0.632030 2.690243 1.034205
v 0.841102 0.302749 1.618164
v 0.750286 0.313432 -1.338193
v -0.845019 0.123239 -1.338158
v 0.781186 0.089807 -1.248251
v 0.333206 3.493964 0.429336
v -0.032029 3.020858 -2.713946
v 0.038555 3.827678 1.860256
v -0.132533 3.912642 2.135942
v 0.057646 2.838378 2.946862
v -0.429707 2.706672 -0.723292
v 0.369963 3.708497 1.333665
v -0.236096 2.305316 -1.768535
v 0.865240 1.764338 0.734797
v 0.835193 2.721517 0.984392
v -0.458965 1.944853 -1.337793
v 0.689145 3.273054 1.494816
v 0.375062 3.442373 2.826008
v 0.541158 1.797582 0.180856
v 0.686755 1.420602 -1.905782
v 0.060931 3.508015 0.339606
v -0.782513 0.050406 -1.592798
v -0.444048 0.763873 1.226752
v 0.711723 0.182920 -1.198822
v 0.642905 0.990046 -1.762875
v 0.639828 2.564203 1.476004
v 0.139371 2.796222 3.138318
v -0.433946 4.142157 2.473304
v 0.633881 1.448687 0.621519
v 0.413380 2.868903 2.710255
v 0.105742 1.673504 0.411071
v -0.361472 3.493037 -1.220919
v -0.114368 1.892053 -4.048897
v -0.586432 0.093812 1.640656
v 0.486965 3.834368 2.602075
v 0.502280 0.257356 -1.791836
v -0.518866 0.017790 -1.584711
v 0.063029 2.990709 -2.243501
v 0.430554 3.442679 2.821224
v 0.658757 0.939480 -1.850301
v 0.379254 3.438859 2.818232
v 0.751113 2.328954 -1.902680
v 0.438315 3.449998 2.825048
v -0.658757 0.939480 -1.850301
v -0.406143 1.882456 0.297823
v 0.894509 1.873421 0.637985
v 0.637647 0.872407 -1.986082
v 0.782513 0.050406 -1.592798
v 0.098581 2.806499 3.068986
v 0.282703 2.227146 1.721601
v 0.438274 3.310480 2.774320
v 0.673925 3.317334 0.889886
v 0.086924 3.132483 -2.282786
v 0.155966 2.780384 2.444632
v -0.395410 2.546594 1.513175
v 0.518866 0.017790 -1.584711
v -0.512834 1.858661 1.044005
v -0.461792 0.252427 1.296099
v -0.084314 2.860711 2.728636
v 0.684254 3.688128 2.345075
v 0.158293 2.607167 2.211171
v 0.360976 2.145483 -1.810820
v -0.549297 2.087420 1.222283
v -0.208670 3.204152 2.676581
v 0.588048 2.174934 -2.057014
v 0.286043 2.450097 -1.168044
v 0.129112 2.023659 1.384719
v -0.176261 3.022060 2.476916
v 0.474470 2.085052 -0.455453
v -0.092824 1.958624 -0.428369
v 0.868145 2.507255 1.221814
v -0.674771 1.837041 0.689770
v 0.354437 3.928164 2.132589
v 0.443346 2.668121 2.033204
v 0.832688 0.149282 1.731699
v 0.288419 2.842523 2.938529
v 0.290333 2.791680 2.802322
v -0.339951 1.543121 0.329531
v 0.587111 0.079991 -1.336014
v -0.182122 3.910512 2.465933
vn 0.3633 -0.3623 0.8583
vn 0.7311 0.2138 -0.6479
vn 0.3633 -0.3621 0.8584
vn -0.9928 -0.0402 -0.1126
vn -0.8344 -0.4694 0.2889
vn 0.3634 -0.3624 0.8583
vn -0.3177 -0.7630 0.5629
vn 0.7810 0.0648 -0.6211
vn -0.0800 0.9944 0.0693
vn 0.3633 -0.3622 0.8584
vn 0.9409 -0.2366 -0.2425
vn -0.9198 -0.3513 -0.1751
vn -0.9724 0.2107 -0.1003
vn -0.2067 -0.7641 0.6111
vn -0.8283 0.1675 0.5347
vn -0.9866 -0.1277 -0.1014
vn -0.7270 -0.6080 0.3192
vn 0.9966 0.0825 0.0012
vn 0.1613 -0.1720 0.9718
vn -0.6797 0.0156 -0.7333
vn 0.5896 0.8075 0.0201
vn -0.1257 -0.9830 0.1339
vn -0.1670 -0.9815 -0.0932
vn 0.8129 0.5482 -0.1967
vn 0.8456 0.5328 0.0324
vn -0.9927 0.0340 -0.1153
vn -0.0269 -0.9715 0.2356
vn 0.8614 -0.4965 0.1069
vn 0.4301 -0.8868 -0.1690
vn -0.8956 0.1643 -0.4134
vn 0.3635 -0.3623 0.8582
vn 0.1867 0.9148 -0.3581
vn -0.5847 0.8090 -0.0610
vn -0.4350 -0.8088 -0.3957
vn 0.9882 -0.0374 -0.1482
vn -0.5509 0.8161 0.1746
vn 0.5069 0.8495 -0.1460
vn 0.6783 0.3402 -0.6513
vn 0.4480 0.5648 0.6930
vn -0.0933 0.9956 -0.0076
vn 0.9856 0.1647 0.0390
vn -0.0116 0.9995 0.0305
vn -0.9024 -0.3878 -0.1881
vn 0.9743 0.1280 -0.1853
vn -0.1433 -0.7352 0.6625
vn 0.1978 -0.6178 0.7611
vn -0.6090 -0.7139 0.3457
vn -0.1194 0.9263 0.3572
vn -0.1349 -0.9300 0.3418
vn 0.8814 -0.2659 -0.3903
vn -0.9697 0.2311 0.0795
vn -0.9451 -0.2461 -0.2149
vn -0.4216 -0.8981 -0.1247
vn 0.2004 0.9753 -0.0928
vn 0.6725 -0.7001 0.2399
vn 0.9763 -0.1477 -0.1583
vn 0.4212 0.7654 -0.4866
vn 0.3635 -0.3623 0.8583
vn 0.2800 0.8806 0.3822
vn -0.2860 -0.8471 0.4479
vn 0.6191 0.6594 0.4266
vn -0.4060 -0.9130 -0.0402
vn -0.0385 -0.2990 0.9535
vn -0.7923 0.4004 -0.4605
vn -0.2196 0.7417 0.6338
vn -0.6900 0.5106 0.5130
vn 0.3632 -0.3624 0.8583
vn -0.1477 -0.1935 0.9699
vn -0.1940 -0.0023 -0.9810
vn 0.9836 -0.1315 0.1234
vn -0.2638 0.8635 -0.4298
vn -0.8342 0.0061 -0.5515
vn -0.8188 -0.4063 0.4057
vn -0.9892 0.1341 -0.0596
vn -0.8972 0.4228 0.1274
vn 0.2934 -0.3481 0.8904
vn 0.8840 0.4631 0.0644
vn -0.7852 -0.4432 -0.4324
vn -0.0182 -0.5400 0.8415
vn -0.5986 0.2155 -0.7715
vn -0.7096 0.6874 -0.1547
vn 0.9465 -0.2197 0.2363
vn 0.2433 -0.9674 0.0697
vn -0.2747 0.1257 -0.9533
vn 0.9943 0.0895 -0.0572
vn -0.3836 -0.9234 -0.0154
vn 0.0417 0.9207 -0.3881
vn 0.6835 0.0077 -0.7299
vn -0.6394 -0.5874 0.4961
vn -0.9385 0.2762 -0.2074
vn 0.3771 -0.9259 -0.0205
vn -0.6989 -0.3678 0.6134
vn -0.9594 0.2436 -0.1420
vn -0.4468 -0.5422 0.7116
vn -0.9413 0.3353 -0.0395
vn -0.3396 -0.7751 -0.5329
vn -0.0463 -0.8774 0.4776
vn -0.2797 -0.8037 0.5253
vn -0.2066 -0.8683 0.4510
vn 0.9984 0.0564 -0.0040
vn 0.1153 -0.9465 0.3012
vn -0.9891 -0.0383 -0.1424
vn -0.5790 0.5525 -0.5996
vn -0.4121 -0.6430 0.6456
vn 0.3324 -0.9255 0.1813
vn -0.4120 -0.6425 0.6461
vn 0.8730 -0.4519 0.1835
vn -0.1403 -0.3765 -0.9157
vn 0.8728 -0.4525 0.1830
vn 0.7726 0.6057 0.1905
vn 0.8908 -0.0124 0.4543
vn 0.3410 -0.9139 0.2202
vn -0.1155 -0.2277 0.9669
vn 0.6544 -0.7428 0.1416
vn 0.7400 -0.6539 0.1578
vn 0.5557 -0.7895 0.2606
vn 0.5553 0.4683 0.6872
vn 0.8156 0.3011 0.4940
vn 0.5552 0.4683 0.6873
vn 0.9320 0.2373 -0.2741
vn -0.3151 0.1423 0.9383
vn 0.9568 -0.1072 0.2702
vn 0.7492 -0.6297 -0.2054
vn -0.9049 -0.1376 0.4028
vn 0.7228 0.2920 0.6263
vn 0.8717 0.2011 0.4469
vn -0.4144 0.0089 0.9101
vn -0.2820 0.2110 0.9359
vn -0.4144 0.0086 0.9101
vn 0.6471 0.3364 0.6842
vn -0.5081 -0.3269 0.7968
vn 0.2226 0.5134 0.8288
vn -0.6989 0.2776 0.6592
vn -0.2071 0.3101 0.9279
vn -0.8915 0.4327 -0.1338
vn -0.0479 0.2987 0.9531
vn -0.8737 0.3057 0.3784
vn 0.9936 -0.0471 0.1025
vn 0.4711 0.6844 0.5564
vn 0.1156 -0.9466 0.3010
vn -0.8624 0.4978 0.0913
vn -0.5642 0.6156 0.5502
vn -0.4822 -0.4404 0.7573
vn -0.7419 0.1402 -0.6557
vn 0.9913 0.0299 0.1280
vn -0.7953 0.5539 -0.2464
vn -0.7716 0.5887 0.2409
vn -0.7164 0.6255 0.3091
vn -0.7991 0.1213 -0.5889
vn 0.9426 -0.2277 0.2444
vn -0.8199 0.4104 0.3991
vn 0.3406 -0.9141 0.2201
vn -0.9417 -0.0353 -0.3347
vn 0.0506 0.2519 0.9664
vn -0.9108 -0.3250 0.2547
vn -0.7595 -0.6428 0.0997
vn -0.9745 0.0597 0.2163
vn 0.9888 0.0626 -0.1355
vn -0.6985 0.3480 0.6253
vn 0.3407 0.5057 0.7926
vn 0.8342 0.0061 -0.5515
vn -0.4447 -0.8883 -0.1146
vn 0.9100 -0.0445 0.4123
vn 0.5917 0.8061 -0.0112
vn -0.6190 -0.6881 0.3787
vn -0.2028 -0.8287 0.5217
vn 0.9084 0.3840 -0.1655
vn -0.6401 -0.7326 0.2312
vn -0.6950 -0.5576 0.4538
vn -0.4010 -0.2410 0.8838
vn 0.8911 -0.4223 -0.1663
vn 0.5053 -0.6240 -0.5960
vn 0.1495 0.3919 0.9078
vn 0.2460 -0.7772 0.5791
vn -0.9853 -0.0678 0.1565
vn -0.8678 0.4863 -0.1021
vn -0.8790 0.4225 0.2210
vn -0.8449 0.3807 0.3758
vn 0.8378 -0.3291 0.4356
vn -0.0966 0.3884 0.9164
vn 0.8908 0.4533 -0.0320
vn 0.9795 -0.1942 0.0534
vn 0.4723 -0.2244 0.8524
vn -0.9974 -0.0511 -0.0507
vn -0.5039 0.8577 -0.1020
vn -0.4652 -0.3200 0.8254
vn -0.9520 0.0558 -0.3009
vn 0.0269 -0.9715 0.2356
vn -0.6893 -0.0717 0.7209
vn -0.8755 -0.0752 0.4774
vn -0.0104 -0.9910 0.1338
vn -0.2944 0.9485 -0.1173
vn -0.2997 0.4952 0.8155
vn -0.6987 0.5073 0.5045
vn -0.7505 0.3646 -0.5511
vn 0.7576 -0.4052 -0.5118
vn -0.5426 -0.8231 0.1677
vn -0.8779 0.0228 -0.4783
vn 0.6952 0.6246 -0.3557
vn 0.9971 -0.0116 0.0750
vn -0.2919 -0.9249 0.2438
vn -0.8472 0.5121 -0.1411
vn -0.9138 -0.2597 0.3122
vn -0.9670 -0.1722 -0.1879
vn 0.0140 0.7298 0.6835
vn 0.5132 0.8515 -0.1075
vn 0.6674 -0.6660 0.3333
vn -0.2912 -0.9542 -0.0681
vn -0.7777 -0.4473 -0.4416
vn 0.5513 -0.4213 0.7201
vn -0.3368 0.4442 -0.8302
vn 0.8835 -0.1805 0.4323
vn -0.0607 -0.9494 0.3080
vn 0.9872 -0.1334 -0.0876
vn 0.1325 0.9814 -0.1387
vn 0.0754 0.9945 -0.0731
vn 0.1066 0.3023 0.9472
vn -0.8523 0.0256 -0.5223
vn 0.2630 0.3191 0.9105
vn -0.8430 0.4133 0.3442
vn -0.1796 0.5072 0.8429
vn 0.5751 -0.3061 0.7587
vn -0.7863 0.1936 -0.5867
vn 0.4786 0.0250 0.8777
vn 0.3416 0.2227 0.9131
vn 0.4786 0.0253 0.8777
vn -0.8434 0.1716 0.5092
vn -0.6851 0.2680 0.6774
vn 0.8582 0.2049 -0.4707
vn 0.9838 0.0268 -0.1775
vn -0.9303 -0.1398 0.3390
vn -0.3591 -0.9229 0.1392
vn 0.6949 0.3981 -0.5988
vn -0.5198 0.4501 0.7261
vn -0.7876 0.2736 0.5522
vn -0.5199 0.4501 0.7260
vn -0.5076 -0.8077 0.3000
vn -0.7034 -0.6787 0.2110
vn -0.6163 -0.7646 0.1885
vn 0.9115 -0.2175 0.3489
vn -0.2925 -0.9246 0.2440
vn -0.9802 0.0466 0.1927
vn -0.8535 0.4744 -0.2155
vn -0.8410 -0.4820 0.2458
vn -0.9601 -0.1943 0.2010
vn -0.8412 -0.4814 0.2463
vn 0.4801 -0.6264 0.6141
vn -0.0506 0.2519 0.9664
vn 0.4801 -0.6272 0.6133
vn -0.4570 -0.5419 0.7053
vn -0.9595 0.0931 0.2657
vn -0.0606 -0.9494 0.3082
vn 0.0356 -0.4166 -0.9084
vn 0.2684 -0.8599 0.4342
vn 0.3449 -0.7925 0.5030
vn 0.1112 -0.8744 0.4723
vn 0.9885 -0.0145 0.1502
vn -0.6330 -0.5805 0.5121
vn -0.9823 0.1541 -0.1062
vn -0.9770 -0.1980 -0.0786
vn 0.7101 -0.0479 -0.7025
vn -0.7287 -0.1484 0.6686
vn 0.6006 -0.5194 0.6079
vn 0.9787 0.0536 0.1984
vn -0.6348 0.3941 0.6647
vn 0.9879 0.0027 -0.1549
vn 0.9831 -0.1179 0.1402
vn -0.6259 -0.0130 0.7798
vn 0.3248 -0.0393 0.9449
vn 0.1522 -0.7624 0.6290
vn -0.9377 -0.3186 0.1383
vn 0.0614 0.0663 -0.9959
vn 0.5882 0.6546 -0.4749
vn -0.3605 0.9327 -0.0002
vn 0.9152 -0.1009 0.3901
vn -0.4474 0.7588 -0.4734
vn -0.2359 0.8630 0.4468
vn -0.7340 -0.5475 0.4018
vn 0.9783 -0.1608 0.1304
vn 0.9793 -0.1942 0.0577
vn -0.9617 0.0249 0.2731
vn 0.5391 0.8317 0.1331
vn 0.9893 -0.1433 -0.0266
vn 0.9781 -0.0002 -0.2080
vn 0.7641 0.6036 0.2276
vn -0.2872 -0.3741 0.8818
vn 0.7997 0.4150 0.4338
vn 0.0629 0.9812 -0.1825
vn 0.6800 0.1588 -0.7158
vn 0.3185 -0.5545 0.7688
vn -0.5824 -0.4364 0.6859
vn -0.7331 0.6750 -0.0835
vn -0.2873 -0.3740 0.8818
vn -0.6997 0.6289 -0.3390
vn 0.8227 -0.3900 0.4137
vn -0.2876 -0.3740 0.8817
vn -0.3979 0.5342 0.7458
vn -0.1278 -0.6537 -0.7459
vn 0.3536 0.2135 0.9107
vn 0.9215 -0.3085 -0.2359
vn -0.8334 -0.1973 0.5162
vn -0.6892 0.7067 -0.1601
vn 0.0614 -0.9396 0.3366
vn 0.2727 -0.8201 0.5031
vn -0.7482 0.6055 -0.2713
vn -0.5399 -0.7101 0.4519
vn 0.7408 0.6115 -0.2779
vn -0.6077 0.7942 -0.0001
vn -0.8770 0.4761 -0.0645
vn 0.8682 -0.4430 0.2238
vn 0.0450 -0.9016 -0.4302
vn 0.9521 0.0556 -0.3008
vn 0.7470 0.3722 0.5510
vn 0.7510 0.0920 0.6539
vn 0.8598 0.4724 -0.1937
vn -0.5141 -0.6476 -0.5624
vn -0.7561 0.5913 0.2804
vn 0.9595 -0.2737 0.0668
vn 0.9273 -0.3702 -0.0553
vn -0.2526 -0.8229 0.5090
vn -0.8224 0.0276 -0.5682
vn 0.7353 -0.4838 0.4747
vn -0.2874 -0.3740 0.8818
vn -0.2044 0.4557 -0.8664
vn -0.7470 0.3722 0.5510
vn 0.2881 -0.2280 0.9301
vn -0.7103 -0.0479 -0.7023
vn 0.9613 0.1595 0.2244
vn 0.8471 -0.4901 0.2054
vn -0.3000 -0.6157 0.7287
vn 0.7878 0.3189 0.5270
vn 0.5761 0.8153 0.0586
vn -0.7667 -0.5314 0.3602
vn 0.7834 0.1114 -0.6115
vn -0.1559 0.9797 -0.1260
vn 0.2046 -0.9788 0.0052
vn -0.8323 -0.2129 0.5118
vn 0.7876 -0.2494 0.5634
vn 0.2166 -0.3322 0.9180
vn -0.8388 -0.4055 0.3633
vn -0.9541 0.2954 0.0491
vn 0.9908 0.1303 0.0378
vn 0.9874 0.1059 0.1178
vn -0.2872 -0.3738 0.8819
vn 0.2611 -0.9283 -0.2649
vn 0.3513 -0.2267 0.9084
vn -0.6841 0.4790 0.5500
vn -0.2873 -0.3741 0.8818
vn -0.0681 -0.7216 -0.6890
vn -0.0780 -0.7047 0.7052
vn -0.2873 -0.3739 0.8818
vn -0.6729 -0.5652 0.4772
vn -0.2177 -0.3599 0.9072
vn -0.9782 0.1682 0.1218
vn 0.8308 0.4409 0.3398
vn -0.9893 -0.1433 -0.0265
vn 0.6584 -0.6280 0.4148
vn -0.3098 0.1874 0.9322
vn 0.9802 0.0780 -0.1821
vn 0.1711 -0.0524 -0.9839
vn 0.5630 0.6573 0.5010
vn -0.2549 0.9070 0.3353
vn -0.5347 -0.6189 -0.5754
vn 0.6743 0.5145 -0.5297
vn -0.9027 -0.2281 -0.3649
vn -0.6996 0.6977 -0.1542
vn -0.9403 0.0876 -0.3289
vn -0.6138 0.7874 -0.0567
vn 0.9430 0.3314 0.0312
vn -0.9353 0.0996 0.3395
vn 0.6090 -0.7139 0.3457
vn 0.8670 0.2374 -0.4381
vn -0.8908 0.4533 -0.0320
vn 0.9429 -0.0716 0.3253
vn 0.9139 0.4027 -0.0516
vn 0.1403 -0.3765 -0.9157
vn -0.8905 -0.1067 0.4422
vn -0.0159 -0.5386 0.8424
vn -0.8047 0.3719 0.4627
vn 0.8101 0.5228 -0.2653
vn -0.9969 -0.0643 -0.0456
vn -0.7768 0.0052 0.6298
vn -0.3719 -0.8432 -0.3883
vn -0.1204 0.9667 -0.2260
vn -0.8938 -0.3056 -0.3282
vn 0.8190 0.0414 0.5724
vn -0.9050 0.4252 -0.0170
vn 0.4897 0.8226 -0.2888
vn 0.5039 0.8577 -0.1020
vn 0.8444 -0.2436 0.4771
vn 0.9186 -0.2733 0.2855
vn -0.9393 -0.3177 0.1295
vn -0.9814 -0.0936 0.1676
vn 0.6713 -0.0887 -0.7359
vn 0.9347 -0.0721 -0.3482
vn -0.1603 -0.9813 0.1069
vn -0.0261 -0.9042 -0.4262
vn 0.8316 -0.0982 0.5466
vn -0.9617 -0.1888 0.1985
vn -0.6926 -0.0500 0.7195
vn -0.8920 -0.3070 -0.3318
vn -0.9435 -0.2408 0.2275
vn -0.9705 -0.0766 -0.2287
vn 0.5693 -0.4076 0.7139
vn 0.6313 -0.7663 0.1192
vn 0.6342 0.7632 -0.1240
vn -0.4918 -0.2121 0.8445
vn -0.5662 0.3618 -0.7406
vn -0.7806 0.3877 0.4903
vn -0.9788 -0.1499 0.1400
vn -0.9974 0.0164 -0.0700
vn 0.0438 0.9508 -0.3065
vn -0.8087 0.4859 -0.3317
vn -0.7607 -0.6360 -0.1298
vn 0.6880 -0.5078 0.5184
vn -0.6088 0.4071 0.6809
vn 0.3051 -0.7693 0.5613
vn -0.6738 0.6425 -0.3650
vn 0.8086 -0.5045 0.3028
vn 0.5758 0.2638 -0.7738
vn 0.5559 -0.1905 0.8091
vn 0.3667 0.8236 0.4327
vn 0.8456 0.4493 0.2881
vn 0.5661 0.8241 0.0208
vn 0.0445 0.9528 -0.3002
vn -0.8914 -0.0054 0.4531
vn 0.9820 -0.1806 -0.0546
vn -0.7135 -0.1208 -0.6902
vn -0.9980 0.0101 0.0619
vn -0.5903 -0.0220 -0.8069
vn -0.2028 -0.9755 0.0858
vn -0.7679 0.3109 -0.5601
vn 0.7797 -0.1220 0.6142
vn -0.0661 -0.9179 -0.3912
vn 0.0340 0.9980 0.0531
vn -0.8045 -0.5881 -0.0830
vn 0.5412 -0.7639 0.3514
vn 0.8572 -0.2091 0.4707
vn -0.2999 -0.3556 0.8852
vn 0.0488 -0.8085 -0.5865
vn 0.8331 -0.4267 0.3519
vn -0.7981 0.1308 -0.5882
vn -0.8745 0.1823 -0.4495
vn -0.6049 -0.6487 0.4619
vn 0.2014 -0.1650 -0.9655
vn -0.9428 -0.2802 -0.1803
vn 0.3286 -0.3371 -0.8823
vn -0.5907 -0.0227 -0.8066
vn -0.1053 -0.9552 0.2766
vn 0.2391 0.0519 -0.9696
vn 0.6052 -0.6637 0.4396
vn 0.8227 0.3998 0.4041
vn -0.0969 -0.9893 0.1088
vn 0.8249 0.2084 -0.5254
vn 0.5924 0.1743 0.7865
vn -0.7858 -0.1262 0.6054
vn 0.7857 -0.2816 0.5508
vn 0.7160 0.6945 -0.0703
vn -0.7196 0.2438 0.6502
vn -0.2725 -0.1408 0.9518
vn 0.2999 -0.6121 0.7317
vn -0.5962 -0.6316 0.4956
vn 0.3836 -0.9234 -0.0154
vn -0.4845 -0.8300 -0.2762
vn 0.3841 -0.8256 -0.4133
vn -0.6127 0.7839 0.1006
vn 0.5871 -0.1021 -0.8031
vn -0.5871 -0.1022 -0.8031
vn 0.7357 -0.4137 0.5363
vn -0.0272 -0.7499 0.6610
vn 0.5109 0.4298 -0.7445
vn -0.9626 0.2658 0.0529
vn 0.3340 -0.6643 0.6687
vn -0.8581 0.5134 -0.0106
vn -0.1394 -0.3383 0.9306
vn 0.6570 0.7273 -0.1984
vn -0.9831 -0.1179 0.1402
vn -0.8927 -0.1522 0.4241
vn 0.4877 0.8530 0.1859
vn -0.8254 -0.2575 0.5025
vn -0.0452 -0.7394 0.6717
vn -0.3569 0.4305 0.8291
vn -0.7902 -0.2472 0.5608
vn 0.8740 0.0121 -0.4859
vn 0.5367 0.0034 -0.8438
vn 0.6810 -0.7089 0.1835
vn -0.1678 -0.9554 0.2432
vn -0.8738 0.2707 -0.4040
vn 0.9524 -0.1439 -0.2688
vn 0.2651 -0.9471 -0.1809
vn 0.5655 0.2335 -0.7910
vn -0.6293 -0.5376 0.5612
vn 0.3458 -0.1299 0.9293
vn 0.6671 0.7178 -0.1996
vn 0.9482 -0.2764 -0.1565
vn -0.7520 -0.0104 0.6591
vn -0.7487 0.0440 0.6615
vn 0.7940 -0.3322 0.5091
vn 0.7059 -0.6621 0.2517
vn 0.0638 0.9949 -0.0776
vn -0.6046 -0.0733 -0.7932
vn -0.9308 0.3541 -0.0910
vn -0.8663 -0.3597 -0.3466
vn -0.9496 0.0714 0.3053
vn 0.7603 0.3068 -0.5726
vn -0.2719 0.9599 -0.0685
vn 0.6259 0.7791 -0.0353
vn -0.9823 0.1711 0.0765
vn 0.3910 -0.9140 0.1084
vn -0.6485 -0.0672 -0.7582
vn 0.0391 -0.5910 -0.8057
vn -0.3022 -0.9405 -0.1555
vn -0.7400 0.3213 -0.5910
vn -0.8273 0.0734 -0.5570
vn 0.8672 -0.2200 0.4467
vn 0.2439 -0.6116 0.7526
vn 0.8763 -0.3795 0.2970
vn -0.2122 -0.9576 -0.1949
vn -0.9990 0.0447 0.0092
vn 0.7973 0.0154 0.6033
vn 0.9928 -0.0404 -0.1125
vn -0.0601 0.9982 -0.0026
vn -0.1149 -0.7220 -0.6823
vn -0.9872 -0.1334 -0.0876
vn -0.0032 0.9983 -0.0579
vn 0.2463 0.8626 0.4419
vn -0.1420 0.9720 -0.1873
vn 0.7991 -0.5952 -0.0846
vn -0.9919 -0.0211 -0.1253
vn 0.7858 -0.6172 0.0405
vn 0.9414 0.2677 -0.2052
vn -0.6190 0.7831 0.0599
vn 0.3336 -0.9427 0.0095
vn -0.2870 0.7970 0.5314
vn 0.3821 -0.8262 -0.4141
vn 0.9198 -0.0639 -0.3871
vn -0.2101 -0.2390 0.9480
vn -0.0915 -0.9565 -0.2770
vn -0.9915 0.0496 -0.1204
vn -0.8777 -0.4768 0.0482
vn 0.3414 0.4986 0.7968
vn -0.0241 -0.5946 -0.8036
vn 0.7150 -0.0640 0.6962
vn 0.2044 0.4557 -0.8664
vn 0.4742 -0.8674 -0.1507
vn -0.8378 -0.2161 0.5014
vn -0.0690 -0.5199 -0.8514
vn 0.4761 0.5273 0.7038
vn 0.4735 -0.6930 -0.5436
vn -0.9772 -0.1624 0.1369
vn -0.3324 -0.9255 0.1813
vn -0.9186 -0.2733 0.2855
vn 0.3925 -0.9101 -0.1330
vn -0.0055 -0.7902 -0.6128
vn 0.1097 -0.2236 0.9685
vn -0.9848 -0.0012 0.1735
vn 0.6790 0.7299 0.0790
vn 0.6521 -0.6122 0.4472
vn -0.6961 0.6814 -0.2262
vn 0.8929 -0.3000 -0.3358
vn -0.4918 0.7546 -0.4345
vn -0.6653 0.6563 -0.3560
vn 0.1233 -0.7385 0.6629
vn -0.8200 -0.4122 -0.3971
vn -0.0323 0.9969 -0.0713
vn 0.7944 0.3179 0.5175
vn 0.6760 0.7132 -0.1856
vn -0.9872 0.1040 -0.1209
vn 0.2275 -0.9462 0.2302
vn -0.2860 0.6958 0.6589
vn -0.6076 0.3148 0.7292
vn -0.8957 0.2025 0.3959
vn -0.5251 -0.8201 -0.2275
vn -0.9478 0.3010 0.1056
vn 0.9138 0.2166 -0.3436
vn -0.8341 -0.5111 -0.2075
vn -0.9808 -0.1749 -0.0867
vn -0.5395 0.8370 -0.0917
vn 0.9259 -0.3049 -0.2230
vn 0.3098 0.1874 0.9322
vn -0.6337 -0.7481 0.1967
vn -0.9242 0.3709 0.0912
vn 0.2211 0.1865 -0.9572
vn 0.1007 -0.7497 0.6540
vn -0.2622 -0.6724 0.6922
vn -0.1584 -0.9872 0.0171
vn -0.2321 -0.7815 0.5791
vn 0.8137 -0.4727 0.3382
vn 0.2996 -0.3555 0.8853
vn 0.0827 -0.9145 -0.3960
vn 0.9374 -0.2978 0.1807
vn 0.9532 0.1335 0.2713
vn 0.6668 -0.1698 -0.7256
vn -0.8858 -0.4533 -0.0999
vn 0.8323 -0.2129 0.5118
vn 0.4699 0.4069 -0.7834
vn 0.1166 -0.2964 0.9479
vn -0.7944 0.3179 0.5175
vn 0.0104 -0.9910 0.1338
vn 0.9712 0.1494 -0.1855
vn 0.1673 -0.9488 0.2678
vn -0.6219 0.7823 0.0348
vn 0.2776 -0.4636 -0.8414
vn -0.9939 0.0201 -0.1088
vn 0.9403 0.0876 -0.3289
vn -0.5576 0.4726 -0.6824
vn 0.2196 0.7417 0.6338
vn -0.7086 0.0620 0.7029
vn 0.8239 -0.5602 -0.0864
vn -0.7997 -0.5360 -0.2705
vn 0.1278 -0.6537 -0.7459
vn -0.3004 0.4878 0.8196
vn -0.2883 -0.9571 0.0300
vn -0.0124 -0.3020 -0.9532
vn 0.2966 0.8073 0.5103
vn 0.7881 -0.3801 -0.4842
vn -0.8023 -0.2105 0.5586
vn 0.8202 -0.4617 0.3378
vn 0.1055 -0.9530 -0.2841
vn 0.5580 0.5411 -0.6292
vn -0.0699 -0.9975 0.0028
vn 0.9143 -0.3560 0.1930
vn 0.9542 0.1467 -0.2608
vn 0.5651 -0.5117 0.6472
vn 0.6103 0.7903 -0.0546
vn 0.3739 -0.7739 0.5112
vn 0.6424 0.6456 -0.4130
vn 0.2215 -0.8774 -0.4256
vn 0.5870 0.4672 0.6611
vn 0.8127 -0.4688 -0.3460
vn 0.6725 0.7261 -0.1432
vn -0.0463 -0.8053 -0.5911
vn 0.0182 -0.5400 0.8415
vn 0.6485 -0.0672 -0.7582
vn 0.0933 0.9956 -0.0093
vn -0.8118 -0.2348 0.5347
vn 0.9595 0.0931 0.2657
vn 0.8957 0.2025 0.3959
vn 0.9932 -0.0050 -0.1164
vn -0.9465 -0.2197 0.2363
vn 0.9760 0.1802 -0.1226
vn 0.6484 0.6465 -0.4020
vn -0.2002 -0.9741 -0.1050
vn 0.9655 -0.2064 0.1588
vn -0.8765 -0.2568 0.4071
vn -0.7748 0.1289 -0.6190
vn 0.1995 -0.9226 0.3301
vn 0.9269 -0.1164 -0.3568
vn -0.2418 -0.5673 0.7872
vn 0.6135 0.6729 -0.4133
vn -0.6319 0.5033 0.5893
vn 0.9231 -0.0749 0.3771
vn 0.8531 0.2064 0.4792
vn -0.6563 -0.5756 0.4879
vn -0.7089 0.6914 0.1392
vn 0.9460 0.3231 -0.0246
vn 0.3648 0.9255 -0.1020
vn 0.8502 0.5114 -0.1252
vn -0.2419 0.1974 -0.9500
vn 0.6793 -0.7177 0.1534
vn 0.8411 -0.4726 -0.2629
vn -0.1687 0.8595 -0.4825
vn 0.8552 0.5097 -0.0938
vn -0.4791 0.8728 -0.0933
vn 0.2747 -0.7573 0.5925
vn -0.6668 -0.1698 -0.7256
vn 0.7747 -0.4071 -0.4839
vn 0.3822 0.8228 0.4208
vn -0.4512 -0.8067 -0.3815
vn 0.9005 -0.2310 -0.3685
vn 0.5269 0.3186 -0.7880
vn 0.9999 -0.0067 -0.0078
vn -0.9836 -0.1310 0.1239
vn 0.8977 0.3334 0.2879
vn 0.9524 0.2557 -0.1658
vn -0.9371 -0.3140 -0.1527
vn 0.9785 -0.1514 0.1403
vn -0.7862 -0.3658 0.4981
vn -0.9896 0.0804 -0.1191
vn -0.6202 0.2807 -0.7325
vn -0.3771 -0.9259 -0.0205
vn 0.0690 -0.5199 -0.8514
vn -0.9876 -0.0604 0.1447
vn -0.9629 -0.2662 0.0437
vn 0.6696 -0.1345 0.7304
vn 0.3860 -0.3062 -0.8702
vn 0.8105 0.3810 0.4450
vn 0.3218 -0.8093 0.4914
vn -0.9953 0.0507 -0.0829
vn 0.4259 -0.3861 0.8182
vn 0.7255 0.1637 -0.6685
vn 0.0157 -0.5385 0.8425
vn 0.0861 0.9955 -0.0385
vn -0.6563 0.6405 -0.3987
vn -0.4376 0.3339 0.8349
vn 0.3769 -0.9194 -0.1126
vn 0.9891 -0.0383 -0.1424
vn 0.4166 -0.8536 -0.3127
vn 0.1271 -0.1921 0.9731
vn -0.8873 -0.3108 0.3407
vn 0.5747 -0.0511 0.8167
vn 0.6720 0.7405 0.0082
vn 0.0423 -0.2507 -0.9671
vn -0.2757 -0.1203 -0.9537
vn -0.8402 0.3521 -0.4125
vn -0.7962 0.3437 0.4980
vn -0.7242 -0.4635 0.5106
vn -0.8445 -0.2436 0.4770
vn -0.2999 -0.6121 0.7317
vn 0.2887 0.5956 0.7497
vn 0.9451 -0.2461 -0.2149
vn -0.4199 -0.7198 -0.5528
vn -0.4363 -0.7595 -0.4825
vn 0.0681 -0.7216 -0.6890
vn 0.1257 -0.9830 0.1339
vn -0.7397 0.3715 -0.5611
vn 0.0315 0.9565 -0.2899
vn 0.9764 -0.1897 0.1030
vn 0.9804 -0.1430 0.1353
vn 0.8603 -0.3198 0.3971
vn -0.9971 0.0363 0.0670
vn -0.4628 0.8863 -0.0163
vn -0.2378 -0.7940 0.5595
vn -0.0283 -0.3118 -0.9497
vn 0.9896 -0.0737 0.1233
vn -0.6160 -0.4667 0.6346
vn 0.3417 -0.7632 -0.5484
vn -0.8111 -0.5065 -0.2925
vn -0.9874 0.1059 0.1178
vn 0.2549 0.9070 0.3353
vn 0.3751 -0.6006 0.7061
vn -0.6965 0.7115 -0.0927
vn -0.5693 -0.4890 0.6609
vn -0.5345 -0.5457 0.6454
vn -0.1048 0.9781 -0.1797
vn -0.0389 -0.2490 -0.9677
vn 0.4443 -0.8933 -0.0683
vn 0.9560 -0.2851 0.0693
vn 0.8587 -0.3790 0.3449
vn 0.8704 -0.4907 0.0398
vn 0.8444 0.4482 -0.2934
vn -0.9880 -0.0586 0.1427
vn -0.9393 0.2395 -0.2455
vn -0.2433 -0.9562 -0.1626
vn 0.5576 0.4726 -0.6824
vn -0.2949 -0.3672 -0.8822
vn -0.5594 -0.3339 0.7586
vn -0.9913 0.0299 0.1280
vn -0.5520 0.2539 -0.7942
vn 0.8143 0.0642 -0.5769
vn -0.5974 -0.5582 0.5758
vn 0.5413 0.8351 -0.0981
vn 0.9936 -0.0181 -0.1113
vn 0.9585 0.2844 -0.0207
vn 0.8750 -0.1674 0.4542
vn -0.4259 -0.3861 0.8182
vn 0.6831 0.4045 -0.6081
vn 0.6084 -0.7919 0.0522
vn 0.8974 -0.4318 0.0905
vn -0.1184 -0.6251 0.7715
vn 0.6583 0.4241 0.6220
vn 0.4322 0.5485 0.7158
vn 0.7488 0.2779 0.6017
vn 0.7461 0.1389 -0.6512
vn 0.9166 0.2551 0.3079
vn -0.7895 -0.3064 0.5318
vn 0.8469 -0.1819 0.4997
vn 0.9844 0.0965 -0.1468
vn -0.6542 -0.4230 0.6269
vn 0.9679 0.1026 0.2294
vn -0.9781 -0.0002 -0.2080
vn 0.9264 0.3763 0.0113
vn 0.3563 0.9138 -0.1950
vn -0.9537 -0.1200 -0.2757
vn 0.7700 0.0333 0.6372
vn 0.7583 0.3745 -0.5336
vn 0.6245 -0.0683 -0.7780
vn -0.6539 0.7563 -0.0206
vn -0.2082 -0.8873 -0.4114
vn 0.6328 0.4359 0.6399
vn 0.7349 0.3079 0.6042
vn -0.9100 0.1887 0.3693
vn -0.4270 0.5445 0.7219
vn -0.7154 -0.6694 0.2003
vn 0.8808 -0.1893 0.4339
vn -0.0760 -0.4192 -0.9047
vn 0.6008 -0.6837 0.4142
vn -0.7706 -0.4972 0.3988
vn -0.9537 0.1568 -0.2565
vn 0.7242 -0.4635 0.5106
vn 0.9802 0.0466 0.1927
vn 0.3684 -0.7577 -0.5387
vn -0.7865 -0.4778 0.3912
vn 0.0842 -0.1457 0.9857
vn 0.2166 -0.7309 0.6472
vn -0.4526 0.5058 0.7344
vn -0.4156 -0.5356 0.7351
vn -0.7488 0.6624 -0.0224
vn 0.9787 0.0508 0.1988
vn -0.3913 0.8048 0.4463
vn -0.3525 -0.1624 0.9216
vn -0.3107 -0.4772 -0.8220
vn 0.9963 -0.0196 0.0834
vn 0.8872 0.1519 -0.4357
vn 0.9959 -0.0222 0.0877
vn -0.1698 -0.0524 -0.9841
vn -0.6855 -0.6555 0.3168
vn 0.5336 -0.3027 0.7897
vn -0.7535 0.0708 -0.6536
vn 0.6467 0.7352 -0.2031
vn -0.3681 0.8586 -0.3569
vn -0.9747 -0.1693 -0.1462
vn 0.1495 -0.9836 0.1007
vn -0.7133 0.5217 -0.4681
vn 0.6960 0.5110 0.5044
vn 0.4154 -0.7004 -0.5805
vn 0.1030 -0.7169 -0.6895
vn -0.4970 -0.5363 0.6822
vn 0.4672 0.7620 -0.4484
vn 0.9919 -0.0211 -0.1253
vn 0.9385 -0.2706 -0.2145
vn 0.2719 0.9599 -0.0685
vn -0.5718 0.4315 0.6978
vn -0.0235 -0.9875 -0.1560
vn 0.2229 -0.9680 -0.1155
vn 0.6454 0.5329 0.5472
vn -0.9945 -0.0718 -0.0762
vn 0.1162 -0.9932 -0.0032
vn 0.7645 0.5679 -0.3051
vn 0.5707 -0.7229 -0.3895
vn -0.3528 0.4682 -0.8101
vn 0.5167 -0.5215 0.6790
vn 0.9750 -0.2212 -0.0202
vn -0.9492 -0.1426 -0.2806
vn 0.4627 0.7679 -0.4430
vn 0.8786 0.4707 -0.0806
vn 0.9706 0.1352 -0.1993
vn -0.8192 0.2252 0.5274
vn -0.1273 -0.5425 -0.8304
vn -0.9969 -0.0530 0.0581
vn -0.5632 0.4406 0.6991
vn 0.4025 -0.5941 0.6965
vn 0.9264 -0.1207 0.3567
vn -0.5109 0.4298 -0.7445
vn 0.5486 -0.7380 -0.3929
vn -0.8938 0.4473 -0.0330
vn -0.9198 -0.0638 -0.3871
vn 0.9633 -0.0211 0.2675
vn 0.5959 0.4585 0.6593
vn 0.9091 0.3034 -0.2855
vn -0.2508 -0.9364 -0.2455
vn 0.3904 0.4478 0.8044
vn -0.6975 0.7140 0.0608
vn -0.5663 -0.8192 0.0909
vn -0.7223 -0.1595 0.6729
vn -0.7898 -0.3646 0.4932
vn -0.5978 0.4184 0.6838
vn 0.8510 0.4176 0.3185
vn -0.9506 -0.1260 -0.2837
vn 0.9826 -0.0821 -0.1663
vn -0.6361 -0.4824 0.6022
vn 0.9750 -0.1658 -0.1478
vn 0.1765 -0.9827 -0.0559
vn 0.7844 0.1111 -0.6102
vn -0.6812 -0.5056 0.5294
vn -0.0036 0.9801 0.1985
vn -0.4757 -0.7150 -0.5123
vn -0.8169 -0.3589 0.4515
vn 0.5237 -0.5943 -0.6103
vn 0.7448 -0.5351 0.3987
vn -0.3751 0.8064 0.4572
vn -0.1147 -0.9698 0.2152
vn -0.3365 0.7141 0.6138
vn -0.2659 0.5827 0.7680
vn 0.6818 -0.6214 0.3860
vn 0.7417 -0.0194 0.6705
vn -0.9124 -0.1005 0.3968
vn -0.0723 -0.1704 0.9827
vn 0.5594 -0.3339 0.7586
vn -0.9879 0.0027 -0.1549
vn 0.6985 0.3480 0.6253
vn 0.5362 0.0041 -0.8441
vn -0.9838 0.0268 -0.1775
vn 0.2430 -0.9471 -0.2098
vn -0.9320 0.2373 -0.2741
vn 0.7981 0.1308 -0.5882
vn -0.0755 -0.7678 0.6363
vn -0.9508 0.1152 0.2875
vn 0.9417 -0.0353 -0.3347
vn 0.6878 0.7199 0.0928
vn -0.7933 -0.2843 0.5384
vn 0.8734 0.4594 0.1617
vn 0.2903 0.9546 0.0666
vn 0.8973 -0.4119 -0.1587
vn 0.7763 -0.5572 0.2949
vn 0.5762 0.2689 -0.7718
vn 0.8663 -0.3597 -0.3466
vn -0.9749 -0.1087 0.1942
vn 0.6216 0.4467 0.6435
vn -0.9200 0.1096 -0.3762
vn 0.3955 -0.7450 -0.5371
vn -0.8263 0.0737 -0.5584
vn 0.9828 0.0613 -0.1743
vn 0.5214 -0.5338 0.6658
vn 0.6445 -0.4173 0.6407
vn -0.0324 0.9493 -0.3127
vn 0.9558 -0.0320 -0.2923
vn -0.3032 -0.7893 0.5339
vn -0.9416 -0.0652 0.3304
vn -0.3698 -0.8436 -0.3893
vn 0.7617 0.5223 -0.3835
vn 0.6782 -0.5038 0.5350
vn 0.2123 -0.9726 0.0946
vn -0.7870 0.5732 -0.2283
vn -0.0537 -0.1963 0.9791
vn -0.4103 0.8960 -0.1697
vn -0.8025 -0.5597 0.2068
vn 0.8256 0.3061 -0.4741
vn 0.9413 0.3353 -0.0395
vn -0.9577 -0.2344 0.1668
vn 0.9778 0.0945 -0.1872
vn 0.7739 -0.1334 0.6190
vn 0.9359 -0.1059 0.3360
vn -0.5860 -0.7945 0.1594
vn -0.9101 -0.4066 -0.0803
vn 0.7983 -0.6023 -0.0040
vn 0.0973 -0.5372 -0.8378
vn -0.8092 -0.2913 0.5103
vn 0.7945 -0.5385 -0.2806
vn 0.4757 0.3550 0.8048
vn -0.9745 -0.1624 0.1547
vn 0.9753 0.2135 0.0572
vn 0.0090 -0.9443 0.3291
vn 0.8155 -0.3157 0.4851
vn 0.9697 -0.1241 -0.2104
vn -0.4809 -0.7876 0.3852
vn 0.8873 -0.3108 0.3407
vn 0.0017 -0.9434 -0.3315
vn -0.3197 0.9432 0.0909
vn 0.9196 -0.0981 -0.3805
vn 0.8384 -0.3749 0.3957
vn 0.3488 -0.8346 0.4263
vn -0.5408 0.3874 -0.7466
vn 0.8380 0.5224 -0.1578
vn -0.8939 -0.4154 0.1687
vn -0.9427 -0.3202 -0.0941
vn -0.7932 -0.4456 0.4151
vn -0.8776 -0.1297 0.4615
vt 0.793893 0.811035
vt 0.733986 0.647144
vt 0.654509 0.794346
vt 0.904509 0.802353
vt 0.637534 0.635601
vt 0.530617 0.607635
vt 0.500000 0.753937
vt 0.876608 0.580494
vt 0.859674 0.618176
vt 0.975529 0.769161
vt 0.000000 0.714703
vt 0.810530 0.641144
vt 0.494886 0.330135
vt 0.549539 0.344433
vt 0.530617 0.328053
vt 0.604192 0.365723
vt 0.423700 0.300087
vt 0.327249 0.288544
vt 0.445583 0.324238
vt 0.637534 0.369709
vt 0.653495 0.391926
vt 0.692622 0.420471
vt 0.810530 0.476807
vt 0.717743 0.448570
vt 0.733986 0.420963
vt 0.201560 0.403915
vt 0.381335 0.383205
vt 0.184626 0.355206
vt 0.372679 0.358311
vt 0.250704 0.458881
vt 0.406456 0.411304
vt 0.327249 0.514725
vt 0.381335 0.339043
vt 0.250704 0.294548
vt 0.406456 0.327301
vt 0.201560 0.317513
vt 0.859674 0.531780
vt 0.555940 0.398312
vt 0.726400 0.473465
vt 0.692622 0.504471
vt 0.717743 0.492729
vt 0.653495 0.507542
vt 0.604192 0.501640
vt 0.445583 0.439854
vt 0.494886 0.466053
vt 0.549539 0.487347
vt 0.095491 0.301487
vt 0.206107 0.292805
vt 0.024472 0.334679
vt 0.345492 0.309490
vt 0.500000 0.349903
vt 0.654509 0.410099
vt 0.206107 0.619667
vt 0.345492 0.693741
vt 0.095491 0.538963
vt 0.423700 0.565987
vt 0.024472 0.459526
vt 0.000000 0.389137
vt 0.904509 0.564873
vt 0.975529 0.644310
vt 0.793893 0.484169
vt 0.000000 1.000000
vt 0.273600 0.473465
vt 0.123392 0.580494
vt 0.282257 0.492729
vt 0.024471 0.644310
vt 0.140326 0.618176
vt 0.307378 0.504471
vt 0.189470 0.641144
vt 0.140326 0.531780
vt 0.266014 0.420963
vt 0.206107 0.484169
vt 0.189470 0.476807
vt 0.345491 0.410099
vt 0.095491 0.564873
vt 0.576300 0.565987
vt 0.505114 0.466053
vt 0.469383 0.607635
vt 0.450461 0.487347
vt 0.672751 0.514725
vt 0.554417 0.439854
vt 0.593544 0.411304
vt 0.362466 0.635601
vt 0.395808 0.501640
vt 0.346505 0.507542
vt 0.266014 0.647144
vt 0.362466 0.369709
vt 0.798440 0.403915
vt 0.749296 0.458881
vt 0.975528 0.459526
vt 0.904509 0.538963
vt 0.815374 0.355206
vt 0.975528 0.334679
vt 0.654508 0.693741
vt 0.793893 0.619667
vt 0.576300 0.300087
vt 0.654508 0.309490
vt 0.469383 0.328053
vt 0.672751 0.288544
vt 0.793893 0.292805
vt 0.798440 0.317513
vt 0.749296 0.294548
vt 0.904509 0.301487
vt 0.444060 0.398312
vt 0.618665 0.383205
vt 0.282257 0.448570
vt 0.395808 0.365723
vt 0.346505 0.391926
vt 0.450461 0.344433
vt 0.307378 0.420471
vt 0.505114 0.330135
vt 0.627321 0.358311
vt 0.618665 0.339043
vt 0.593544 0.327301
vt 0.554417 0.324238
vt 0.095491 0.802353
vt 0.024471 0.769161
vt 0.345491 0.794346
vt 0.206107 0.811035
vt 0.531129 0.863455
vt 0.528598 0.862678
vt 0.529701 0.861377
vt 0.530028 0.864496
vt 0.532449 0.864504
vt 0.554833 0.852302
vt 0.535964 0.857423
vt 0.554115 0.862847
vt 0.527653 0.863068
vt 0.533337 0.860528
vt 0.534939 0.862031
vt 0.531751 0.858482
vt 0.533744 0.855085
vt 0.535657 0.858520
vt 0.537437 0.859975
vt 0.530356 0.847231
vt 0.465756 0.730456
vt 0.464280 0.731015
vt 0.466272 0.734068
vt 0.468310 0.733388
vt 0.464779 0.728223
vt 0.462719 0.728340
vt 0.462606 0.727787
vt 0.464037 0.730013
vt 0.465977 0.733427
vt 0.464885 0.735427
vt 0.463767 0.732595
vt 0.465331 0.736822
vt 0.463567 0.731622
vt 0.533015 0.861030
vt 0.528781 0.860447
vt 0.530131 0.864549
vt 0.530881 0.856491
vt 0.531355 0.865489
vt 0.534491 0.861890
vt 0.526887 0.856207
vt 0.527647 0.863272
vt 0.528726 0.864638
vt 0.526403 0.862717
vt 0.525618 0.860881
vt 0.526164 0.858016
vt 0.536721 0.859365
vt 0.468862 0.749484
vt 0.466293 0.747780
vt 0.466377 0.748286
vt 0.467102 0.749259
vt 0.467253 0.750763
vt 0.470042 0.751312
vt 0.469399 0.753101
vt 0.469928 0.750509
vt 0.463993 0.748347
vt 0.465755 0.751317
vt 0.467367 0.753944
vt 0.471307 0.756222
vt 0.464995 0.721450
vt 0.464829 0.720767
vt 0.463109 0.721688
vt 0.462921 0.720778
vt 0.464423 0.724210
vt 0.465870 0.723530
vt 0.464627 0.728363
vt 0.464023 0.722561
vt 0.465068 0.754195
vt 0.464674 0.751874
vt 0.466630 0.753166
vt 0.463722 0.724297
vt 0.465564 0.722267
vt 0.463941 0.725445
vt 0.463960 0.747882
vt 0.467324 0.729442
vt 0.468962 0.731820
vt 0.464679 0.727808
vt 0.468861 0.731404
vt 0.465570 0.729689
vt 0.468613 0.734441
vt 0.465745 0.749335
vt 0.459061 0.781790
vt 0.459779 0.802539
vt 0.459863 0.804904
vt 0.459175 0.785141
vt 0.459751 0.801754
vt 0.459456 0.793305
vt 0.459271 0.787929
vt 0.459472 0.793767
vt 0.459704 0.800426
vt 0.459315 0.789211
vt 0.458776 0.773334
vt 0.458807 0.774253
vt 0.459830 0.803985
vt 0.489859 0.811437
vt 0.490517 0.812575
vt 0.493013 0.812944
vt 0.492379 0.807917
vt 0.492492 0.807826
vt 0.490244 0.811723
vt 0.495164 0.807698
vt 0.493132 0.810665
vt 0.494834 0.807444
vt 0.490710 0.812847
vt 0.492924 0.813826
vt 0.497867 0.810534
vt 0.497474 0.813438
vt 0.460224 0.765039
vt 0.460206 0.763084
vt 0.462560 0.806586
vt 0.461784 0.810371
vt 0.461888 0.813254
vt 0.462269 0.795070
vt 0.460502 0.773340
vt 0.461874 0.784919
vt 0.461843 0.811999
vt 0.460939 0.786261
vt 0.460749 0.780687
vt 0.461206 0.794016
vt 0.461693 0.807861
vt 0.529650 0.858487
vt 0.526305 0.855364
vt 0.526229 0.858659
vt 0.525366 0.858400
vt 0.526985 0.861113
vt 0.527069 0.853356
vt 0.527847 0.860249
vt 0.525730 0.856066
vt 0.499012 0.806119
vt 0.499163 0.808047
vt 0.496863 0.805659
vt 0.504007 0.807601
vt 0.498517 0.806656
vt 0.503584 0.806797
vt 0.496949 0.812909
vt 0.499654 0.812986
vt 0.502654 0.810875
vt 0.503507 0.809186
vt 0.592808 0.531743
vt 0.588217 0.538940
vt 0.588077 0.539594
vt 0.592974 0.532605
vt 0.590410 0.541266
vt 0.605476 0.579748
vt 0.598681 0.549994
vt 0.597732 0.577716
vt 0.594369 0.536410
vt 0.588024 0.579111
vt 0.613173 0.625620
vt 0.612434 0.624340
vt 0.615779 0.621909
vt 0.615986 0.622776
vt 0.613896 0.614147
vt 0.608878 0.593579
vt 0.610395 0.618277
vt 0.610344 0.599562
vt 0.598719 0.597518
vt 0.603627 0.617616
vt 0.594111 0.535248
vt 0.585780 0.562762
vt 0.596633 0.544739
vt 0.581263 0.552818
vt 0.580933 0.565246
vt 0.599718 0.607532
vt 0.614994 0.618664
vt 0.603411 0.571398
vt 0.597228 0.579381
vt 0.580859 0.579665
vt 0.580881 0.588312
vt 0.586239 0.595329
vt 0.580956 0.598184
vt 0.581140 0.610011
vt 0.587471 0.612386
vt 0.580948 0.566627
vt 0.581636 0.543142
vt 0.601569 0.621008
vt 0.581399 0.548416
vt 0.581728 0.542511
vt 0.581694 0.543940
vt 0.584418 0.618966
vt 0.581248 0.618567
vt 0.581152 0.616172
vt 0.580876 0.599332
vt 0.585356 0.616338
vt 0.553521 0.602831
vt 0.553331 0.610777
vt 0.554511 0.593339
vt 0.555736 0.583825
vt 0.553636 0.612485
vt 0.553687 0.602899
vt 0.553489 0.615268
vt 0.459452 0.491871
vt 0.461213 0.485382
vt 0.459485 0.489932
vt 0.461044 0.486468
vt 0.459778 0.492442
vt 0.459359 0.494423
vt 0.461493 0.488154
vt 0.464758 0.479439
vt 0.558504 0.553826
vt 0.556735 0.572716
vt 0.557625 0.559726
vt 0.580730 0.586609
vt 0.597048 0.573565
vt 0.589612 0.566365
vt 0.599269 0.554858
vt 0.558814 0.552734
vt 0.580750 0.575909
vt 0.555956 0.581021
vt 0.557629 0.569465
vt 0.554660 0.591882
vt 0.558917 0.553838
vt 0.558344 0.559956
vt 0.466992 0.735881
vt 0.471686 0.736523
vt 0.471154 0.735844
vt 0.467543 0.732415
vt 0.469038 0.734202
vt 0.465755 0.732520
vt 0.464910 0.730942
vt 0.468204 0.735019
vt 0.462924 0.731477
vt 0.463785 0.734862
vt 0.464875 0.736583
vt 0.472383 0.739772
vt 0.467083 0.750025
vt 0.472789 0.754060
vt 0.465694 0.724813
vt 0.464362 0.726914
vt 0.467043 0.757209
vt 0.465055 0.731428
vt 0.469008 0.724611
vt 0.468395 0.726339
vt 0.467362 0.722205
vt 0.466053 0.734327
vt 0.468842 0.723927
vt 0.468423 0.726290
vt 0.462756 0.730786
vt 0.464215 0.732819
vt 0.466077 0.735332
vt 0.468792 0.735891
vt 0.600823 0.620456
vt 0.472127 0.728869
vt 0.609379 0.623288
vt 0.609476 0.623840
vt 0.471595 0.729530
vt 0.471495 0.728278
vt 0.469804 0.729461
vt 0.467500 0.728924
vt 0.472618 0.739591
vt 0.466378 0.738958
vt 0.464850 0.738342
vt 0.471066 0.739817
vt 0.469530 0.739997
vt 0.492385 0.780119
vt 0.495290 0.787243
vt 0.496036 0.784173
vt 0.491154 0.779002
vt 0.491169 0.779490
vt 0.484620 0.782489
vt 0.478875 0.782885
vt 0.483299 0.800267
vt 0.473516 0.783857
vt 0.474509 0.805198
vt 0.491185 0.779437
vt 0.490127 0.754648
vt 0.488711 0.757775
vt 0.487882 0.782818
vt 0.490626 0.800192
vt 0.492957 0.791536
vt 0.487404 0.808726
vt 0.486815 0.799901
vt 0.510317 0.819697
vt 0.506778 0.810402
vt 0.499845 0.801958
vt 0.483049 0.769613
vt 0.478757 0.763906
vt 0.477157 0.773097
vt 0.506264 0.803765
vt 0.485902 0.782701
vt 0.475770 0.815443
vt 0.487478 0.764879
vt 0.468327 0.763951
vt 0.468299 0.777805
vt 0.485796 0.766729
vt 0.479135 0.759770
vt 0.477878 0.735780
vt 0.477869 0.740706
vt 0.464715 0.728123
vt 0.467168 0.742654
vt 0.478074 0.743827
vt 0.478420 0.746287
vt 0.483856 0.741013
vt 0.481465 0.745903
vt 0.466678 0.742061
vt 0.480832 0.753289
vt 0.482355 0.739235
vt 0.477035 0.736540
vt 0.464418 0.730839
vt 0.479296 0.732786
vt 0.491357 0.782225
vt 0.484142 0.752815
vt 0.489788 0.774510
vt 0.492829 0.789133
vt 0.485110 0.768799
vt 0.494941 0.783847
vt 0.482346 0.751802
vt 0.480720 0.763783
vt 0.474831 0.767088
vt 0.470071 0.782960
vt 0.468285 0.775035
vt 0.473047 0.792616
vt 0.477104 0.752145
vt 0.477999 0.732596
vt 0.499948 0.786343
vt 0.517379 0.794530
vt 0.512134 0.797455
vt 0.519892 0.848057
vt 0.532451 0.843359
vt 0.517744 0.815619
vt 0.537586 0.821761
vt 0.515349 0.835842
vt 0.532581 0.835305
vt 0.502797 0.825711
vt 0.494477 0.829329
vt 0.524531 0.827249
vt 0.502495 0.837962
vt 0.485221 0.804628
vt 0.480786 0.783342
vt 0.475997 0.815446
vt 0.525700 0.806306
vt 0.508952 0.802099
vt 0.509892 0.844218
vt 0.519580 0.802811
vt 0.538081 0.809172
vt 0.541405 0.799494
vt 0.518720 0.795088
vt 0.515910 0.791821
vt 0.499703 0.786625
vt 0.533903 0.796593
vt 0.502945 0.831977
vt 0.499967 0.834792
vt 0.501863 0.837698
vt 0.463758 0.765903
vt 0.461146 0.748328
vt 0.464004 0.756081
vt 0.459637 0.752229
vt 0.459467 0.741348
vt 0.506850 0.797565
vt 0.504079 0.839782
vt 0.492286 0.773966
vt 0.486594 0.753472
vt 0.488556 0.749590
vt 0.489924 0.749166
vt 0.495942 0.780935
vt 0.496808 0.781473
vt 0.468158 0.760414
vt 0.466905 0.746627
vt 0.498506 0.789177
vt 0.488541 0.754072
vt 0.488271 0.754618
vt 0.489151 0.749958
vt 0.496350 0.781759
vt 0.492187 0.775399
vt 0.554776 0.861800
vt 0.556046 0.865722
vt 0.555695 0.855838
vt 0.555129 0.847689
vt 0.555051 0.828840
vt 0.465133 0.783452
vt 0.466504 0.813755
vt 0.478230 0.825060
vt 0.475600 0.826146
vt 0.477985 0.824249
vt 0.473849 0.825912
vt 0.470472 0.823171
vt 0.463533 0.816453
vt 0.463302 0.814164
vt 0.477415 0.822225
vt 0.467802 0.795013
vt 0.468360 0.808736
vt 0.494655 0.804683
vt 0.489056 0.816451
vt 0.497993 0.794438
vt 0.496214 0.799692
s 0
usemtl Material.001
f 60/1/1 54/2/1 58/3/1
f 154/2/2 379/1/2 420/4/2
f 54/2/3 57/5/3 58/3/3
f 152/6/4 436/7/4 23/3/4
f 344/3/5 353/5/5 362/6/5
f 43/8/6 54/9/6 61/10/6
f 527/11/7 520/8/7 371/10/7
f 485/10/8 313/9/8 209/12/8
f 258/4/9 186/12/9 487/2/9
f 54/12/10 60/4/10 61/10/10
f 408/13/11 544/14/11 440/15/11
f 319/15/12 511/14/12 349/16/12
f 257/17/13 214/13/13 204/15/13
f 369/18/14 96/19/14 158/13/14
f 62/13/15 500/17/15 460/18/15
f 538/16/16 24/20/16 441/15/16
f 493/21/17 388/22/17 389/23/17
f 409/23/18 538/22/18 441/24/18
f 461/25/19 193/21/19 275/23/19
f 297/20/20 157/16/20 83/25/20
f 472/16/21 303/21/21 365/25/21
f 503/26/22 311/27/22 488/28/22
f 314/27/23 35/29/23 288/28/23
f 59/27/24 324/26/24 315/30/24
f 304/31/25 380/30/25 352/32/25
f 201/30/26 467/31/26 327/27/26
f 311/28/27 503/29/27 153/33/27
f 11/34/28 389/35/28 543/19/28
f 216/19/29 496/18/29 543/34/29
f 395/33/30 327/35/30 402/34/30
f 54/33/31 50/36/31 53/28/31
f 539/36/32 398/33/32 401/34/32
f 54/24/1 43/37/1 45/23/1
f 151/19/33 67/35/33 462/38/33
f 32/13/34 85/19/34 361/38/34
f 52/35/35 453/33/35 526/38/35
f 257/29/36 27/27/36 13/38/36
f 472/33/37 397/29/37 246/38/37
f 42/14/38 326/13/38 182/38/38
f 245/24/39 409/22/39 441/38/39
f 475/39/40 546/24/40 447/38/40
f 183/22/41 428/21/41 88/38/41
f 487/16/42 365/14/42 258/38/42
f 79/21/43 346/16/43 221/38/43
f 218/40/44 260/41/44 91/38/44
f 269/42/45 159/40/45 442/38/45
f 40/41/46 30/39/46 427/38/46
f 522/37/47 545/24/47 285/8/47
f 447/24/48 546/39/48 336/8/48
f 422/43/49 412/42/49 424/38/49
f 375/31/50 293/44/50 266/38/50
f 47/27/51 99/31/51 384/38/51
f 267/44/52 343/45/52 488/38/52
f 525/46/53 371/43/53 450/38/53
f 398/45/54 539/46/54 306/38/54
f 150/47/55 184/34/55 406/48/55
f 92/34/56 453/18/56 52/48/56
f 463/34/57 205/47/57 385/49/57
f 53/28/58 50/36/58 51/49/58
f 306/49/59 447/36/59 501/34/59
f 50/48/1 54/18/1 48/50/1
f 96/51/60 18/15/60 533/52/60
f 54/15/1 45/20/1 46/52/1
f 54/15/1 46/51/1 48/50/1
f 149/18/61 546/17/61 494/50/61
f 374/50/62 351/17/62 500/15/62
f 517/32/63 431/53/63 451/54/63
f 34/53/64 253/32/64 331/55/64
f 469/54/65 457/56/65 490/32/65
f 268/7/66 445/6/66 97/54/66
f 57/6/67 54/56/67 56/54/67
f 196/32/68 361/30/68 188/55/68
f 83/57/69 26/26/69 270/28/69
f 482/58/70 2/28/70 185/49/70
f 346/57/71 475/28/71 474/58/71
f 123/55/72 17/30/72 144/57/72
f 494/30/73 44/26/73 149/57/73
f 395/52/74 538/20/74 201/25/74
f 257/43/75 274/5/75 27/2/75
f 480/43/76 413/46/76 338/6/76
f 352/2/77 295/42/77 304/43/77
f 208/12/78 449/40/78 75/2/78
f 2/40/79 5/42/79 430/2/79
f 83/6/80 8/5/80 199/43/80
f 210/45/81 342/44/81 39/32/81
f 132/32/82 203/44/82 2/31/82
f 289/56/83 301/45/83 145/32/83
f 199/6/84 26/46/84 83/45/84
f 481/45/85 537/56/85 271/6/85
f 387/59/86 14/23/86 267/60/86
f 539/23/87 401/37/87 474/60/87
f 508/23/88 531/59/88 98/61/88
f 97/25/89 442/61/89 159/52/89
f 358/61/90 345/25/90 381/23/90
f 416/60/91 471/37/91 334/8/91
f 321/9/92 90/41/92 97/12/92
f 455/41/93 221/40/93 346/12/93
f 18/41/94 95/9/94 529/8/94
f 285/8/95 457/11/95 502/60/95
f 349/8/96 85/39/96 536/41/96
f 74/62/97 115/62/97 116/62/97
f 115/62/98 74/62/98 114/62/98
f 116/62/99 76/62/99 74/62/99
f 322/62/100 408/62/100 440/62/100
f 76/62/101 116/62/101 77/62/101
f 435/62/102 31/62/102 502/62/102
f 337/62/103 253/62/103 1/62/103
f 74/62/104 73/62/104 113/62/104
f 514/62/105 416/62/105 334/62/105
f 114/62/106 74/62/106 113/62/106
f 80/62/107 120/62/107 121/62/107
f 502/62/108 31/62/108 87/62/108
f 121/62/109 81/62/109 80/62/109
f 425/62/110 72/62/110 15/62/110
f 275/62/111 281/62/111 404/62/111
f 118/62/112 78/62/112 77/62/112
f 12/62/113 196/62/113 188/62/113
f 80/62/114 78/62/114 118/62/114
f 80/62/115 119/62/115 120/62/115
f 119/62/116 80/62/116 118/62/116
f 65/62/117 105/62/117 106/62/117
f 105/62/118 65/62/118 63/62/118
f 106/62/119 66/62/119 65/62/119
f 328/62/120 514/62/120 87/62/120
f 442/62/121 198/62/121 356/62/121
f 103/62/122 63/62/122 81/62/122
f 216/62/123 354/62/123 496/62/123
f 530/62/124 221/62/124 362/62/124
f 63/62/125 104/62/125 105/62/125
f 104/62/126 63/62/126 103/62/126
f 70/62/127 110/62/127 111/62/127
f 110/62/128 70/62/128 109/62/128
f 111/62/129 71/62/129 70/62/129
f 252/62/130 249/62/130 377/62/130
f 71/62/131 111/62/131 73/62/131
f 108/62/132 68/62/132 66/62/132
f 264/62/133 296/62/133 342/62/133
f 70/62/134 68/62/134 108/62/134
f 274/62/135 257/62/135 204/62/135
f 109/62/136 70/62/136 108/62/136
f 296/62/137 37/62/137 146/62/137
f 315/62/138 382/62/138 372/62/138
f 406/62/139 298/62/139 198/62/139
f 117/62/140 77/62/140 116/62/140
f 498/62/141 27/62/141 274/62/141
f 342/62/142 296/62/142 146/62/142
f 113/62/143 73/62/143 112/62/143
f 381/62/144 296/62/144 41/62/144
f 281/62/145 240/62/145 88/62/145
f 84/62/146 37/62/146 202/62/146
f 194/62/147 465/62/147 189/62/147
f 306/62/148 501/62/148 276/62/148
f 358/62/149 212/62/149 364/62/149
f 102/62/150 81/62/150 121/62/150
f 296/62/151 264/62/151 41/62/151
f 118/62/152 77/62/152 117/62/152
f 144/62/153 215/62/153 123/62/153
f 132/62/154 430/62/154 228/62/154
f 357/62/155 364/62/155 33/62/155
f 18/62/156 357/62/156 521/62/156
f 191/62/157 10/62/157 432/62/157
f 91/62/158 372/62/158 218/62/158
f 470/62/159 387/62/159 243/62/159
f 107/62/160 66/62/160 106/62/160
f 240/62/161 513/62/161 486/62/161
f 371/62/162 520/62/162 450/62/162
f 103/62/163 81/62/163 102/62/163
f 303/62/164 352/62/164 365/62/164
f 450/62/165 155/62/165 525/62/165
f 18/62/166 529/62/166 533/62/166
f 182/62/167 263/62/167 483/62/167
f 6/62/168 145/62/168 515/62/168
f 353/62/169 158/62/169 534/62/169
f 112/62/170 73/62/170 111/62/170
f 259/62/171 499/62/171 224/62/171
f 266/62/172 390/62/172 375/62/172
f 108/62/173 66/62/173 107/62/173
f 520/62/174 527/62/174 216/62/174
f 342/62/175 217/62/175 264/62/175
f 327/62/176 467/62/176 264/62/176
f 139/62/177 33/62/177 41/62/177
f 41/62/178 264/62/178 467/62/178
f 250/62/179 260/62/179 428/62/179
f 126/62/180 168/62/180 167/62/180
f 278/62/181 228/62/181 438/62/181
f 423/62/182 224/62/182 396/62/182
f 133/62/183 172/62/183 171/62/183
f 524/62/184 160/62/184 211/62/184
f 459/62/185 343/62/185 243/62/185
f 505/62/186 431/62/186 517/62/186
f 332/62/187 157/62/187 432/62/187
f 522/62/188 334/62/188 545/62/188
f 99/62/189 10/62/189 361/62/189
f 141/62/190 163/62/190 162/62/190
f 334/62/191 471/62/191 545/62/191
f 474/62/192 202/62/192 346/62/192
f 126/62/193 167/62/193 166/62/193
f 97/62/194 49/62/194 268/62/194
f 400/62/195 319/62/195 24/62/195
f 262/62/196 458/62/196 535/62/196
f 159/62/197 321/62/197 97/62/197
f 189/62/198 8/62/198 47/62/198
f 142/62/199 425/62/199 15/62/199
f 372/62/200 91/62/200 518/62/200
f 137/62/201 178/62/201 177/62/201
f 327/62/202 264/62/202 217/62/202
f 141/62/203 162/62/203 181/62/203
f 212/62/204 358/62/204 381/62/204
f 445/62/205 406/62/205 198/62/205
f 425/62/206 205/62/206 247/62/206
f 11/62/207 543/62/207 496/62/207
f 520/62/208 389/62/208 450/62/208
f 206/62/209 330/62/209 349/62/209
f 133/62/210 173/62/210 172/62/210
f 494/62/211 207/62/211 79/62/211
f 389/62/212 292/62/212 256/62/212
f 137/62/213 177/62/213 176/62/213
f 506/62/214 513/62/214 240/62/214
f 284/62/215 474/62/215 478/62/215
f 472/62/216 487/62/216 187/62/216
f 130/62/217 169/62/217 168/62/217
f 511/62/218 395/62/218 402/62/218
f 128/62/219 130/62/219 168/62/219
f 467/62/220 139/62/220 41/62/220
f 128/62/221 168/62/221 126/62/221
f 171/62/222 131/62/222 133/62/222
f 212/62/223 33/62/223 364/62/223
f 131/62/224 171/62/224 130/62/224
f 130/62/225 170/62/225 169/62/225
f 170/62/226 130/62/226 171/62/226
f 122/62/227 164/62/227 163/62/227
f 164/62/228 122/62/228 165/62/228
f 324/62/229 417/62/229 382/62/229
f 185/62/230 370/62/230 4/62/230
f 122/62/231 163/62/231 141/62/231
f 525/62/232 155/62/232 476/62/232
f 485/62/233 209/62/233 390/62/233
f 126/62/234 166/62/234 125/62/234
f 125/62/235 165/62/235 122/62/235
f 165/62/236 125/62/236 166/62/236
f 140/62/237 179/62/237 178/62/237
f 179/62/238 140/62/238 180/62/238
f 138/62/239 140/62/239 178/62/239
f 537/62/240 410/62/240 156/62/240
f 138/62/241 178/62/241 137/62/241
f 386/62/242 435/62/242 502/62/242
f 331/62/243 499/62/243 34/62/243
f 141/62/244 181/62/244 140/62/244
f 213/62/245 221/62/245 455/62/245
f 180/62/246 140/62/246 181/62/246
f 134/62/247 174/62/247 173/62/247
f 491/62/248 124/62/248 386/62/248
f 133/62/249 134/62/249 173/62/249
f 399/62/250 145/62/250 307/62/250
f 124/62/251 435/62/251 386/62/251
f 176/62/252 136/62/252 137/62/252
f 233/62/253 524/62/253 25/62/253
f 136/62/254 176/62/254 134/62/254
f 134/62/255 175/62/255 174/62/255
f 175/62/256 134/62/256 176/62/256
f 428/63/257 404/64/257 88/65/257
f 158/11/258 371/64/258 534/66/258
f 499/67/259 236/65/259 34/64/259
f 221/68/260 403/65/260 79/69/260
f 508/65/261 486/67/261 531/69/261
f 530/70/262 49/66/262 251/64/262
f 426/71/263 69/72/263 541/73/263
f 404/72/264 281/71/264 88/74/264
f 100/75/265 67/73/265 62/72/265
f 513/70/266 506/73/266 87/66/266
f 203/73/267 185/75/267 2/66/267
f 49/76/268 97/77/268 147/78/268
f 298/79/269 249/78/269 356/77/269
f 424/77/270 350/76/270 533/80/270
f 525/81/271 530/80/271 534/82/271
f 98/81/272 393/77/272 340/80/272
f 207/83/273 494/78/273 546/84/273
f 463/85/274 418/68/274 3/86/274
f 421/68/275 184/69/275 150/86/275
f 418/85/276 463/86/276 1/84/276
f 546/79/277 149/84/277 336/78/277
f 330/83/278 361/84/278 85/86/278
f 526/87/279 453/74/279 192/71/279
f 423/88/280 396/89/280 286/90/280
f 455/89/281 364/91/281 213/90/281
f 304/92/282 295/90/282 376/58/282
f 281/92/283 506/58/283 240/93/283
f 87/88/284 506/90/284 328/92/284
f 250/89/285 376/80/285 295/91/285
f 235/76/286 238/78/286 237/94/286
f 377/78/287 501/7/287 252/94/287
f 478/76/288 474/94/288 401/80/288
f 326/80/289 42/95/289 316/91/289
f 350/95/290 156/80/290 533/94/290
f 407/96/291 442/97/291 439/98/291
f 84/96/292 339/99/292 37/97/292
f 227/51/293 235/98/293 229/97/293
f 226/87/293 235/98/293 227/74/293
f 465/98/294 93/51/294 189/74/294
f 235/99/293 231/100/293 229/97/293
f 423/101/295 265/93/295 244/102/295
f 231/101/296 234/92/296 232/93/296
f 442/103/297 356/102/297 336/93/297
f 502/99/298 87/102/298 522/100/298
f 325/102/299 451/103/299 507/100/299
f 313/79/300 485/77/300 535/104/300
f 439/84/301 251/79/301 49/104/301
f 186/77/302 39/81/302 146/104/302
f 532/82/303 308/105/303 35/104/303
f 156/81/304 355/82/304 533/104/304
f 332/85/305 47/84/305 8/104/305
f 351/63/306 374/106/306 460/64/306
f 183/106/307 94/70/307 443/64/307
f 194/63/308 189/65/308 273/104/308
f 498/68/309 194/85/309 27/104/309
f 540/65/310 92/68/310 52/104/310
f 360/107/311 536/108/311 348/104/311
f 508/109/312 94/107/312 88/104/312
f 317/108/313 469/110/313 230/104/313
f 154/106/314 492/63/314 537/104/314
f 295/110/315 352/106/315 303/104/315
f 24/111/316 160/109/316 441/104/316
f 13/112/317 384/113/317 257/104/317
f 544/105/318 427/112/318 30/104/318
f 249/113/319 298/114/319 325/104/319
f 350/115/320 464/111/320 413/104/320
f 511/114/321 319/115/321 400/104/321
f 223/70/293 235/106/293 226/73/293
f 378/113/322 540/101/322 394/102/322
f 231/101/323 235/113/323 234/92/323
f 215/114/324 19/113/324 370/102/324
f 243/99/325 343/115/325 470/102/325
f 494/114/326 403/102/326 44/115/326
f 144/112/327 157/92/327 297/113/327
f 544/82/328 30/89/328 312/105/328
f 150/89/329 406/82/329 145/80/329
f 529/88/330 523/105/330 422/89/330
f 184/112/331 517/105/331 298/92/331
f 247/105/332 352/88/332 380/92/332
f 362/108/333 534/107/333 530/71/333
f 313/107/334 417/87/334 209/71/334
f 487/108/335 186/71/335 339/73/335
f 347/110/336 21/73/336 148/106/336
f 14/110/337 387/108/337 470/73/337
f 2/87/338 482/107/338 12/98/338
f 335/96/339 454/111/339 49/99/339
f 344/115/340 213/99/340 364/111/340
f 364/111/341 455/96/341 358/98/341
f 428/109/342 183/98/342 250/107/342
f 506/109/343 491/111/343 328/98/343
f 241/116/344 235/69/344 242/117/344
f 399/69/345 525/116/345 476/86/345
f 32/67/346 196/117/346 309/69/346
f 367/64/347 366/11/347 368/117/347
f 235/67/348 223/64/348 242/117/348
f 320/83/349 503/118/349 488/78/349
f 158/7/350 527/78/350 371/118/350
f 238/83/351 235/86/351 239/118/351
f 161/119/352 532/86/352 35/116/352
f 235/86/293 241/119/293 239/118/293
f 427/120/353 190/121/353 40/122/353
f 204/121/354 214/120/354 39/123/354
f 59/123/355 326/120/355 316/124/355
f 510/125/356 191/126/356 17/127/356
f 516/121/357 355/123/357 378/128/357
f 430/129/358 459/130/358 228/124/358
f 481/129/359 271/131/359 324/132/359
f 19/131/360 297/120/360 363/122/360
f 326/129/361 518/133/361 246/130/361
f 469/130/362 386/133/362 457/134/362
f 282/133/363 75/129/363 449/132/363
f 337/135/364 433/126/364 473/125/364
f 23/136/365 528/137/365 152/138/365
f 146/138/366 39/139/366 342/136/366
f 17/137/367 432/136/367 157/140/367
f 194/141/368 273/140/368 13/142/368
f 379/140/369 154/141/369 316/137/369
f 248/143/370 155/144/370 388/145/370
f 153/137/371 503/146/371 446/147/371
f 433/147/372 385/138/372 286/137/372
f 386/146/373 502/137/373 457/141/373
f 540/148/374 378/143/374 92/145/374
f 183/142/375 15/143/375 279/148/375
f 370/120/376 278/129/376 320/124/376
f 530/149/377 251/150/377 221/151/377
f 2/150/378 12/149/378 5/152/378
f 251/152/379 149/149/379 221/126/379
f 444/149/380 397/153/380 478/154/380
f 62/150/381 151/152/381 500/155/381
f 219/150/382 257/156/382 384/151/382
f 21/157/383 319/158/383 349/128/383
f 284/158/384 84/156/384 202/159/384
f 393/150/385 152/160/385 528/156/385
f 295/156/386 260/160/386 250/159/386
f 189/160/387 47/150/387 273/155/387
f 263/153/388 182/149/388 401/151/388
f 317/153/389 328/123/389 469/124/389
f 275/123/390 197/153/390 281/157/390
f 197/157/391 506/153/391 281/151/391
f 413/129/392 272/120/392 495/131/392
f 402/123/393 217/157/393 36/128/393
f 300/154/394 293/161/394 333/126/394
f 373/149/395 218/154/395 458/126/395
f 412/154/396 148/153/396 497/124/396
f 9/154/397 360/130/397 348/161/397
f 377/161/398 249/130/398 127/134/398
f 538/130/399 190/154/399 201/124/399
f 139/162/400 95/163/400 521/164/400
f 524/163/401 441/162/401 160/165/401
f 525/162/402 399/164/402 280/166/402
f 452/167/403 75/166/403 437/168/403
f 286/167/404 55/162/404 265/166/404
f 148/169/405 412/165/405 427/162/405
f 279/164/406 72/170/406 376/171/406
f 18/164/407 521/163/407 95/170/407
f 1/166/408 199/164/408 93/171/408
f 149/168/409 251/166/409 82/172/409
f 528/166/410 23/171/410 277/172/410
f 36/173/411 210/167/411 29/168/411
f 397/174/412 84/175/412 478/176/412
f 319/176/413 160/175/413 24/177/413
f 534/174/414 371/176/414 525/178/414
f 405/179/415 480/178/415 156/180/415
f 245/179/416 489/174/416 409/178/416
f 405/177/417 350/175/417 413/181/417
f 465/182/418 418/183/418 93/184/418
f 354/183/419 52/170/419 195/184/419
f 443/181/420 94/185/420 340/177/420
f 492/186/421 355/181/421 410/175/421
f 462/178/422 67/176/422 448/187/422
f 537/170/423 481/163/423 316/188/423
f 444/189/424 246/140/424 397/136/424
f 187/136/425 84/190/425 397/189/425
f 191/140/426 188/189/426 10/191/426
f 519/189/427 385/192/427 504/193/427
f 524/191/428 233/189/428 151/193/428
f 208/190/429 75/136/429 366/139/429
f 329/142/430 485/191/430 266/143/430
f 6/140/431 289/191/431 145/142/431
f 93/191/432 8/193/432 189/143/432
f 517/193/433 195/194/433 377/144/433
f 21/143/434 536/193/434 360/144/434
f 472/193/435 365/192/435 487/194/435
f 314/171/436 528/183/436 277/182/436
f 448/171/437 22/170/437 25/183/437
f 92/172/438 378/171/438 420/182/438
f 12/188/439 188/163/439 5/195/439
f 429/165/440 314/195/440 288/163/440
f 373/170/441 262/188/441 428/184/441
f 488/142/442 343/148/442 459/146/442
f 37/146/443 296/141/443 345/142/443
f 18/148/444 369/147/444 357/146/444
f 98/195/445 531/184/445 393/188/445
f 272/148/446 208/145/446 366/147/446
f 456/196/447 270/197/447 26/198/447
f 329/199/448 266/200/448 208/201/448
f 424/196/449 412/202/449 200/197/449
f 504/202/450 340/203/450 393/204/450
f 196/202/451 16/204/451 309/197/451
f 501/201/452 377/205/452 526/199/452
f 283/206/453 437/196/453 300/199/453
f 326/199/454 444/196/454 182/198/454
f 298/207/455 356/206/455 198/199/455
f 442/200/456 251/199/456 439/208/456
f 507/199/457 484/198/457 325/208/457
f 7/209/458 91/210/458 411/211/458
f 460/209/459 100/212/459 62/213/459
f 143/212/460 526/209/460 294/211/460
f 153/213/461 359/214/461 387/209/461
f 369/213/462 158/215/462 357/216/462
f 383/214/463 471/213/463 416/216/463
f 348/211/464 309/217/464 308/212/464
f 485/218/465 28/214/465 535/219/465
f 274/210/466 225/209/466 498/214/466
f 4/214/467 19/216/467 363/219/467
f 299/216/468 436/220/468 152/221/468
f 385/219/469 519/216/469 286/221/469
f 64/207/470 269/222/470 442/223/470
f 222/204/471 299/224/471 486/225/471
f 346/197/472 358/204/472 455/225/472
f 310/198/473 391/197/473 249/226/473
f 47/208/474 384/198/474 13/226/474
f 509/197/475 505/225/475 517/226/475
f 7/227/476 246/224/476 518/204/476
f 23/228/477 435/229/477 305/202/477
f 357/202/478 33/196/478 521/228/478
f 517/203/479 325/202/479 298/229/479
f 139/204/480 201/203/480 529/227/480
f 96/229/481 527/227/481 158/203/481
f 489/226/482 245/230/482 462/208/482
f 277/205/483 305/231/483 101/232/483
f 443/199/484 15/205/484 183/232/484
f 160/207/485 347/199/485 408/232/485
f 145/206/486 301/207/486 255/223/486
f 500/232/487 233/222/487 22/207/487
f 1/201/488 253/233/488 291/231/488
f 483/230/489 379/234/489 42/200/489
f 399/200/490 515/208/490 145/230/490
f 94/201/491 98/200/491 340/233/491
f 190/205/492 523/201/492 529/231/492
f 221/200/493 44/234/493 403/233/493
f 518/235/494 91/236/494 7/132/494
f 372/131/495 313/235/495 458/132/495
f 149/236/496 44/235/496 221/237/496
f 361/158/497 10/238/497 188/239/497
f 196/132/498 482/236/498 16/240/498
f 423/235/499 244/241/499 259/237/499
f 3/121/500 418/241/500 225/122/500
f 157/241/501 332/239/501 83/237/501
f 346/239/502 345/121/502 358/128/502
f 285/241/503 502/131/503 522/122/503
f 212/131/504 381/241/504 41/235/504
f 443/238/505 142/158/505 15/159/505
f 228/160/506 459/242/506 243/159/506
f 15/242/507 72/160/507 279/240/507
f 99/240/508 47/160/508 432/155/508
f 11/156/509 496/157/509 542/151/509
f 19/157/510 144/156/510 297/158/510
f 270/236/511 456/242/511 129/240/511
f 314/158/512 161/239/512 35/128/512
f 296/239/513 381/238/513 345/237/513
f 395/236/514 400/238/514 538/242/514
f 271/242/515 537/238/515 156/159/515
f 527/238/516 394/236/516 354/237/516
f 453/239/517 92/241/517 420/121/517
f 497/215/518 148/243/518 360/244/518
f 139/245/519 467/243/519 201/215/519
f 143/243/520 501/246/520 526/244/520
f 4/210/521 363/214/521 185/218/521
f 546/211/522 475/210/522 207/218/522
f 293/213/523 282/245/523 449/215/523
f 123/215/524 510/244/524 17/220/524
f 487/216/525 339/215/525 187/220/525
f 501/217/526 447/247/526 336/245/526
f 474/245/527 284/213/527 202/212/527
f 129/245/528 479/212/528 482/217/528
f 31/218/529 435/219/529 23/211/529
f 378/246/530 355/243/530 492/248/530
f 526/243/531 192/245/531 263/248/531
f 204/249/532 186/211/532 258/219/532
f 464/250/533 200/249/533 497/221/533
f 149/219/534 82/221/534 336/249/534
f 28/248/535 9/245/535 535/247/535
f 240/251/536 486/250/536 508/220/536
f 294/250/537 276/221/537 143/220/537
f 421/251/538 255/220/538 542/244/538
f 219/246/539 214/252/539 257/244/539
f 161/252/540 314/251/540 277/244/540
f 336/253/541 249/254/541 252/255/541
f 429/256/542 393/253/542 528/255/542
f 404/257/543 428/256/543 461/255/543
f 299/258/544 222/259/544 31/260/544
f 520/261/545 216/256/545 543/257/545
f 477/260/546 219/259/546 99/262/546
f 215/263/547 370/264/547 123/265/547
f 341/265/548 338/266/548 368/263/548
f 135/267/549 322/265/549 524/264/549
f 236/268/550 86/267/550 34/269/550
f 267/267/551 488/264/551 311/269/551
f 510/270/552 5/271/552 191/272/552
f 16/259/553 479/261/553 434/257/553
f 456/253/554 429/273/554 288/254/554
f 193/259/555 101/257/555 275/274/555
f 10/273/556 99/275/556 432/276/556
f 306/276/557 302/275/557 398/277/557
f 394/278/558 516/268/558 378/269/558
f 202/270/559 345/260/559 346/271/559
f 363/279/560 270/270/560 129/272/560
f 1/270/561 463/258/561 337/260/561
f 345/280/562 202/268/562 37/281/562
f 527/268/563 96/278/563 394/281/563
f 330/266/564 85/279/564 349/263/564
f 539/282/565 475/283/565 447/262/565
f 469/282/566 490/262/566 471/274/566
f 182/284/567 478/285/567 401/286/567
f 75/283/568 452/285/568 366/284/568
f 300/286/569 415/287/569 283/284/569
f 147/274/570 97/288/570 90/282/570
f 442/255/571 82/289/571 251/257/571
f 267/278/572 470/269/572 343/290/572
f 309/289/573 348/291/573 32/257/573
f 33/274/574 212/257/574 41/291/574
f 433/291/575 286/288/575 396/274/575
f 511/284/576 206/262/576 349/283/576
f 213/292/577 344/289/577 362/255/577
f 418/293/578 465/292/578 225/255/578
f 263/276/579 302/254/579 526/273/579
f 328/259/580 491/274/580 386/262/580
f 261/276/581 272/293/581 413/254/581
f 273/293/582 47/255/582 13/254/582
f 504/294/583 385/287/583 340/286/583
f 89/286/584 310/295/584 249/294/584
f 407/294/585 64/295/585 442/296/585
f 28/296/586 329/297/586 261/298/586
f 422/296/587 523/298/587 427/294/587
f 354/286/588 540/285/588 52/299/588
f 275/300/589 101/286/589 197/299/589
f 9/299/590 28/285/590 360/301/590
f 420/301/591 378/283/591 154/302/591
f 11/285/592 290/283/592 292/301/592
f 31/295/593 513/286/593 87/300/593
f 329/297/594 208/296/594 272/303/594
f 471/304/595 383/297/595 230/303/595
f 276/303/596 294/296/596 302/305/596
f 254/305/597 49/295/597 147/300/597
f 359/296/598 243/295/598 387/305/598
f 387/283/599 311/282/599 153/302/599
f 38/306/600 322/307/600 440/308/600
f 464/307/601 424/306/601 200/309/601
f 274/309/602 204/306/602 258/310/602
f 408/309/603 211/311/603 160/312/603
f 210/307/604 214/309/604 219/313/604
f 88/291/605 240/289/605 508/314/605
f 436/282/606 299/288/606 31/315/606
f 438/302/607 243/282/607 359/315/607
f 521/315/608 33/288/608 139/316/608
f 484/316/609 287/291/609 325/314/609
f 528/288/610 314/291/610 429/316/610
f 320/317/611 278/297/611 503/304/611
f 442/318/612 336/280/612 82/281/612
f 200/319/613 412/320/613 497/318/613
f 456/318/614 26/320/614 429/280/614
f 252/314/615 501/289/615 336/321/615
f 20/317/616 262/322/616 535/319/616
f 439/317/617 49/319/617 454/318/617
f 249/275/618 325/319/618 287/277/618
f 515/320/619 399/319/619 476/275/619
f 433/319/620 337/322/620 385/277/620
f 360/281/621 28/297/621 261/317/621
f 292/317/622 389/318/622 11/281/622
f 183/289/623 88/292/623 94/321/623
f 448/277/624 100/322/624 374/323/624
f 380/324/625 425/277/625 247/323/625
f 480/323/626 405/322/626 413/325/626
f 142/325/627 385/317/627 205/304/627
f 415/322/628 426/317/628 283/325/628
f 38/276/629 440/277/629 462/324/629
f 148/292/630 544/293/630 347/326/630
f 72/321/631 304/292/631 376/326/631
f 479/326/632 456/293/632 288/327/632
f 197/327/633 305/276/633 491/324/633
f 486/293/634 299/276/634 531/327/634
f 463/328/635 3/329/635 247/139/635
f 357/328/636 344/139/636 364/138/636
f 203/139/637 132/329/637 228/190/637
f 230/329/638 416/330/638 317/192/638
f 266/330/639 293/194/639 449/192/639
f 435/328/640 124/138/640 305/147/640
f 512/331/641 417/332/641 271/333/641
f 205/334/642 425/331/642 142/333/642
f 96/333/643 355/332/643 516/335/643
f 421/336/644 496/337/644 184/338/644
f 95/332/645 139/339/645 529/335/645
f 245/340/646 524/184/646 151/195/646
f 464/341/647 350/162/647 424/167/647
f 373/169/648 260/162/648 218/341/648
f 529/173/649 422/341/649 533/167/649
f 478/342/650 182/343/650 444/181/650
f 272/184/651 366/344/651 367/182/651
f 377/340/652 195/165/652 526/169/652
f 415/344/653 414/173/653 69/172/653
f 161/172/654 193/182/654 532/344/654
f 39/340/655 186/195/655 204/165/655
f 192/341/656 420/340/656 483/169/656
f 205/168/657 463/172/657 247/173/657
f 72/345/658 380/331/658 304/334/658
f 1/346/659 26/179/659 199/347/659
f 544/346/660 148/348/660 427/179/660
f 458/177/661 313/185/661 535/176/661
f 339/338/662 84/349/662 187/336/662
f 250/187/663 183/176/663 376/185/663
f 339/348/664 186/174/664 146/179/664
f 96/186/665 516/350/665 394/351/665
f 123/347/666 370/179/666 320/180/666
f 211/350/667 408/186/667 322/348/667
f 448/348/668 38/175/668 462/174/668
f 348/175/669 85/348/669 32/186/669
f 129/336/670 185/352/670 363/337/670
f 340/353/671 385/333/671 142/354/671
f 25/334/672 38/333/672 448/353/672
f 305/333/673 277/335/673 23/354/673
f 444/331/674 326/345/674 246/349/674
f 411/349/675 295/355/675 303/331/675
f 151/352/676 233/334/676 500/353/676
f 185/353/677 129/354/677 482/337/677
f 265/352/678 86/353/678 244/337/678
f 219/345/679 29/336/679 210/349/679
f 93/345/680 199/334/680 8/352/680
f 387/336/681 267/345/681 311/352/681
f 31/356/682 222/272/682 513/287/682
f 36/272/683 217/271/683 342/287/683
f 441/294/684 524/356/684 245/287/684
f 220/290/685 389/298/685 256/278/685
f 519/290/686 504/356/686 55/294/686
f 489/271/687 312/284/687 40/287/687
f 412/350/688 422/346/688 427/357/688
f 201/192/689 327/190/689 395/329/689
f 305/350/690 124/348/690 491/346/690
f 293/284/691 323/260/691 333/262/691
f 101/271/692 305/260/692 197/284/692
f 306/298/693 539/290/693 447/294/693
f 1/358/694 93/359/694 418/356/694
f 245/358/695 151/356/695 462/290/695
f 389/264/696 520/359/696 543/358/696
f 370/269/697 203/358/697 278/290/697
f 20/358/698 348/269/698 308/264/698
f 409/359/699 40/264/699 190/263/699
f 430/281/700 5/278/700 510/297/700
f 325/278/701 517/298/701 451/297/701
f 352/359/702 247/272/702 365/356/702
f 531/359/703 152/263/703 393/279/703
f 297/272/704 83/359/704 270/279/704
f 331/189/705 253/190/705 473/192/705
f 367/347/706 368/360/706 338/346/706
f 545/361/707 457/351/707 285/350/707
f 5/362/708 188/360/708 191/347/708
f 490/360/709 545/357/709 471/346/709
f 448/357/710 67/361/710 100/350/710
f 317/363/711 416/362/711 514/347/711
f 21/180/712 347/178/712 319/187/712
f 348/181/713 536/343/713 85/185/713
f 522/342/714 87/186/714 514/351/714
f 334/180/715 522/363/715 514/347/715
f 400/342/716 24/181/716 538/186/716
f 84/343/717 284/187/717 478/185/717
f 313/332/718 372/331/718 382/364/718
f 480/364/719 512/331/719 271/355/719
f 271/339/720 156/332/720 480/364/720
f 512/365/721 341/366/721 375/337/721
f 146/366/722 37/338/722 339/337/722
f 307/339/723 406/367/723 445/335/723
f 504/365/724 429/337/724 26/354/724
f 184/343/725 496/180/725 517/187/725
f 55/368/726 291/365/726 265/354/726
f 20/367/727 535/368/727 9/335/727
f 272/368/728 261/354/728 329/335/728
f 430/369/729 510/370/729 459/371/729
f 228/372/730 243/369/730 438/371/730
f 405/373/731 156/372/731 350/371/731
f 27/374/732 194/375/732 13/376/732
f 389/375/733 220/377/733 493/378/733
f 460/370/734 374/369/734 100/379/734
f 472/379/735 187/369/735 397/380/735
f 363/380/736 297/381/736 270/379/736
f 318/382/737 426/383/737 415/384/737
f 195/379/738 496/384/738 354/370/738
f 143/384/739 276/379/739 501/382/739
f 479/375/740 16/378/740 482/376/740
f 499/385/741 331/386/741 396/376/741
f 210/374/742 36/376/742 342/386/742
f 291/387/743 253/388/743 34/389/743
f 255/390/744 421/391/744 145/392/744
f 19/393/745 4/389/745 370/388/745
f 393/386/746 429/394/746 504/374/746
f 457/378/747 545/395/747 490/385/747
f 17/376/748 191/378/748 432/385/748
f 332/383/749 8/382/749 83/394/749
f 417/385/750 313/383/750 382/386/750
f 198/394/751 442/386/751 97/383/751
f 468/396/752 333/382/752 392/379/752
f 333/392/753 414/391/753 415/397/753
f 483/398/754 263/392/754 192/397/754
f 377/344/755 127/397/755 517/391/755
f 132/390/756 2/374/756 430/399/756
f 390/391/757 209/400/757 512/344/757
f 22/377/758 448/392/758 374/398/758
f 423/401/759 259/402/759 224/403/759
f 495/404/760 338/405/760 413/406/760
f 468/407/761 541/328/761 414/408/761
f 356/408/762 249/409/762 336/410/762
f 541/328/763 69/409/763 414/408/763
f 379/374/764 483/394/764 420/399/764
f 298/410/765 406/396/765 184/381/765
f 277/408/766 193/410/766 161/381/766
f 517/407/767 127/408/767 509/380/767
f 324/381/768 271/396/768 417/379/768
f 55/408/769 1/381/769 291/380/769
f 42/399/770 379/396/770 316/410/770
f 510/399/771 320/400/771 459/391/771
f 183/391/772 279/390/772 376/399/772
f 414/399/773 333/394/773 468/396/773
f 29/400/774 477/399/774 206/410/774
f 404/394/775 461/382/775 275/396/775
f 433/366/776 396/365/776 331/404/776
f 94/411/777 508/412/777 98/330/777
f 465/368/778 498/367/778 225/405/778
f 374/404/779 500/365/779 22/368/779
f 368/405/780 323/404/780 341/368/780
f 326/329/781 59/328/781 518/411/781
f 445/413/782 268/194/782 280/330/782
f 341/145/783 323/144/783 375/413/783
f 388/413/784 450/144/784 389/194/784
f 260/330/785 373/329/785 428/411/785
f 293/330/786 300/412/786 437/413/786
f 426/405/787 318/339/787 69/364/787
f 353/342/788 534/401/788 362/403/788
f 432/351/789 47/414/789 332/401/789
f 438/343/790 153/342/790 446/403/790
f 203/341/791 228/410/791 278/409/791
f 348/340/792 20/341/792 9/409/792
f 280/342/793 307/351/793 445/401/793
f 419/364/794 193/402/794 461/405/794
f 287/405/795 89/367/795 249/339/795
f 40/364/796 409/355/796 489/403/796
f 307/403/797 145/402/797 406/364/797
f 210/355/798 39/349/798 214/403/798
f 420/413/799 192/412/799 453/362/799
f 452/415/800 466/416/800 392/417/800
f 193/418/801 419/419/801 532/415/801
f 449/417/802 208/420/802 266/415/802
f 315/421/803 372/419/803 518/422/803
f 315/418/804 324/415/804 382/420/804
f 315/416/805 518/415/805 59/419/805
f 531/392/806 299/375/806 152/374/806
f 244/374/807 86/390/807 259/392/807
f 254/392/808 335/377/808 49/375/808
f 1/423/809 55/424/809 26/425/809
f 7/423/810 472/426/810 246/424/810
f 207/422/811 475/427/811 346/421/811
f 29/360/812 206/362/812 36/428/812
f 25/357/813 22/360/813 233/428/813
f 253/362/814 337/412/814 473/428/814
f 440/363/815 312/180/815 489/413/815
f 329/362/816 28/363/816 485/413/816
f 135/357/817 524/428/817 211/414/817
f 541/427/818 466/422/818 426/423/818
f 463/406/819 385/421/819 337/427/819
f 203/429/820 370/430/820 185/431/820
f 300/361/821 333/357/821 415/414/821
f 328/351/822 386/361/822 469/414/822
f 338/240/823 495/432/823 367/132/823
f 35/433/824 434/132/824 288/432/824
f 18/388/825 96/387/825 369/434/825
f 440/393/826 544/388/826 312/434/826
f 213/387/827 362/435/827 221/434/827
f 21/436/828 360/433/828 148/432/828
f 398/135/829 302/437/829 263/438/829
f 20/438/830 532/439/830 419/135/830
f 306/387/831 276/438/831 302/437/831
f 410/433/832 355/436/832 156/440/832
f 293/437/833 375/435/833 323/387/833
f 219/135/834 477/439/834 29/441/834
f 263/418/835 401/442/835 398/443/835
f 72/443/836 425/419/836 380/418/836
f 224/426/837 499/443/837 396/442/837
f 49/328/838 280/407/838 268/411/838
f 25/442/839 524/444/839 322/426/839
f 452/443/840 437/426/840 466/423/840
f 366/445/841 452/446/841 392/431/841
f 519/135/842 55/441/842 286/447/842
f 154/445/843 378/431/843 492/430/843
f 19/423/844 215/422/844 144/443/844
f 532/422/845 20/419/845 308/443/845
f 465/448/846 194/449/846 498/450/846
f 144/451/847 17/452/847 157/453/847
f 512/454/848 480/452/848 341/451/848
f 30/455/849 40/436/849 312/432/849
f 182/456/850 483/432/850 42/457/850
f 496/432/851 421/456/851 542/455/851
f 323/450/852 368/454/852 392/451/852
f 225/458/853 274/459/853 258/460/853
f 466/459/854 283/458/854 426/461/854
f 525/459/855 49/461/855 530/462/855
f 219/430/856 384/452/856 99/454/856
f 368/454/857 366/445/857 392/430/857
f 59/432/858 316/240/858 481/457/858
f 330/463/859 206/448/859 477/451/859
f 390/453/860 512/463/860 375/451/860
f 265/448/861 291/434/861 86/449/861
f 294/451/862 526/448/862 302/450/862
f 434/434/863 479/435/863 288/449/863
f 209/393/864 417/434/864 512/448/864
f 353/447/865 357/464/865 158/155/865
f 3/155/866 258/135/866 365/447/866
f 75/240/867 282/155/867 293/464/867
f 529/463/868 201/393/868 190/448/868
f 322/464/869 135/457/869 211/240/869
f 394/465/870 540/417/870 354/466/870
f 468/467/871 392/465/871 466/466/871
f 308/401/872 309/467/872 35/402/872
f 97/419/873 445/421/873 198/416/873
f 468/467/874 466/466/874 541/402/874
f 309/468/875 16/467/875 434/401/875
f 410/417/876 537/465/876 492/469/876
f 357/469/877 353/420/877 344/417/877
f 196/470/878 32/469/878 361/465/878
f 153/414/879 438/468/879 359/401/879
f 510/468/880 123/465/880 320/467/880
f 471/417/881 230/416/881 469/466/881
f 319/427/882 347/471/882 160/472/882
f 31/460/883 23/472/883 436/471/883
f 261/472/884 497/406/884 360/427/884
f 488/406/885 459/472/885 320/404/885
f 317/460/886 514/404/886 328/472/886
f 422/471/887 424/427/887 533/423/887
f 495/406/888 272/405/888 367/416/888
f 222/416/889 486/421/889 513/406/889
f 472/466/890 7/416/890 303/402/890
f 361/423/891 330/425/891 99/471/891
f 154/416/892 537/405/892 316/402/892
f 247/420/893 3/469/893 365/473/893
f 408/474/894 347/475/894 544/412/894
f 461/411/895 262/474/895 20/412/895
f 340/428/896 142/412/896 443/476/896
f 278/414/897 446/428/897 503/468/897
f 525/412/898 280/475/898 49/476/898
f 440/372/899 489/373/899 462/475/899
f 327/369/900 217/372/900 402/474/900
f 20/380/901 419/369/901 461/474/901
f 395/407/902 511/380/902 400/411/902
f 411/474/903 91/372/903 260/475/903
f 145/380/904 421/474/904 150/411/904
f 249/428/905 391/476/905 127/468/905
f 539/371/906 474/477/906 475/478/906
f 322/373/907 38/371/907 25/478/907
f 523/478/908 190/477/908 427/465/908
f 190/473/909 538/418/909 409/420/909
f 536/477/910 21/470/910 349/465/910
f 266/429/911 485/453/911 390/452/911
f 286/475/912 265/373/912 423/478/912
f 261/476/913 464/475/913 497/478/913
f 79/468/914 207/476/914 346/478/914
f 338/452/915 341/430/915 480/429/915
f 151/478/916 62/465/916 67/468/916
f 388/479/917 155/480/917 450/134/917
f 433/481/918 331/479/918 473/132/918
f 438/134/919 446/133/919 278/479/919
f 36/127/920 511/134/920 402/480/920
f 411/133/921 260/132/921 295/479/921
f 517/132/922 496/433/922 195/482/922
f 526/161/923 195/134/923 52/127/923
f 464/440/924 261/483/924 413/433/924
f 499/127/925 259/126/925 236/161/925
f 527/482/926 354/481/926 216/132/926
f 293/482/927 437/433/927 75/483/927
f 101/425/928 193/484/928 277/458/928
f 479/485/929 129/486/929 456/487/929
f 333/485/930 323/488/930 392/486/930
f 34/489/931 86/490/931 291/491/931
f 411/487/932 303/489/932 7/485/932
f 434/490/933 35/492/933 309/491/933
f 196/493/934 12/488/934 482/485/934
f 458/471/935 218/458/935 372/460/935
f 283/458/936 466/471/936 437/425/936
f 197/494/937 491/444/937 506/495/937
f 504/485/938 26/495/938 55/493/938
f 3/444/939 225/493/939 258/495/939
f 458/483/940 262/440/940 373/445/940
f 262/418/941 461/496/941 428/442/941
f 355/217/942 96/211/942 533/442/942
f 403/496/943 494/217/943 79/442/943
f 481/135/944 324/125/944 59/437/944
f 259/211/945 86/497/945 236/442/945
f 511/498/946 36/446/946 206/248/946
f 330/217/947 477/496/947 99/247/947
f 280/499/948 399/496/948 307/418/948
