# Blender 5.1.1
# www.blender.org
mtllib low_poly_wolf_animated0021.mtl
o Wolf
v -0.164647 3.293057 -2.176130
v -0.515686 1.349072 -1.421755
v 0.014375 3.628265 -0.863785
v -0.490914 1.374146 -1.864001
v -0.710901 1.581520 -1.266453
v 0.139906 2.899541 3.139819
v 0.572720 3.279442 0.376292
v -0.550756 2.845237 -1.990136
v 0.236195 1.929837 -0.390335
v -0.776598 2.383500 -1.153845
v 0.313792 2.943000 2.867536
v -0.575565 1.764888 -1.123356
v -0.614764 3.141730 -1.077675
v -0.858268 0.107143 -1.281817
v 0.682279 3.018154 -1.784933
v -0.298125 2.244339 -1.236170
v -0.849698 2.200232 -1.524704
v -0.103512 2.278946 1.638875
v -0.559489 1.383267 -1.915012
v 0.325469 2.319576 -0.854704
v -0.141775 1.700573 0.196247
v -0.397031 0.075586 1.787684
v 0.455180 1.605686 -1.610499
v -0.581739 1.429368 0.444015
v -0.247978 0.068386 1.552163
v -0.115186 2.828339 -2.196400
v -0.482470 3.241859 -1.196968
v 0.335337 1.711266 0.180058
v -0.538982 2.571015 -0.274947
v -0.389927 1.421888 0.780355
v 0.518171 1.130173 -2.068588
v -0.420815 2.534081 -1.018403
v -0.475177 2.792508 1.425177
v -0.158697 1.901035 -2.960132
v 0.137857 2.299404 -1.392055
v -0.569404 2.406955 0.137784
v -0.226806 3.553908 1.106239
v -0.247576 0.332821 1.520814
v -0.435027 3.256804 0.410327
v -0.484861 1.460098 0.837917
v -0.448276 2.928027 1.251746
v 0.615754 3.297532 1.233656
v 0.454432 3.570889 2.816808
v -0.383156 4.068512 2.385159
v 0.433609 3.596585 2.835269
v 0.417671 3.602462 2.844157
v -0.790610 2.838704 -1.539417
v 0.382388 3.597466 2.856989
v -0.119887 3.397480 2.784561
v 0.353905 3.572622 2.859437
v 0.345844 3.555512 2.856301
v 0.655667 3.282684 2.267544
v 0.345948 3.520122 2.842805
v 0.354104 3.505307 2.833766
v -0.055656 2.846082 -2.266198
v 0.382710 3.488549 2.815454
v 0.400360 3.488245 2.807972
v 0.417993 3.493545 2.802624
v 0.653153 3.070121 1.056582
v 0.446475 3.518390 2.800175
v 0.454537 3.535503 2.803311
v -0.572309 0.223642 1.753743
v 0.454428 3.582602 2.812295
v -0.093244 3.555240 2.853206
v 0.433604 3.608505 2.830356
v 0.417666 3.614507 2.839148
v -0.464437 0.287693 1.817310
v 0.382383 3.609746 2.852038
v 0.928226 0.141641 1.768535
v 0.353900 3.585115 2.854827
v 0.345839 3.568097 2.851927
v 0.489185 3.201729 -1.563483
v 0.345943 3.532750 2.838952
v 0.354099 3.517838 2.830157
v 0.637877 0.489822 1.252336
v 0.382705 3.500725 2.812159
v 0.400355 3.500236 2.804705
v 0.417988 3.505373 2.799293
v -0.413541 3.820317 2.226693
v 0.446471 3.530032 2.796474
v 0.454532 3.547122 2.799348
v -0.152945 3.848710 2.727985
v -0.452077 2.628175 -2.072141
v -0.115712 3.655231 0.981412
v -0.260299 2.321229 -0.827480
v -0.120375 1.671251 -2.919645
v 0.667658 0.242117 -1.740892
v 0.830228 2.614077 -1.473081
v 0.394263 3.556567 2.830370
v -0.062449 3.529066 2.819496
v 0.716006 3.118675 0.298980
v 0.511047 2.770294 1.859174
v -0.475164 3.070493 -2.023222
v 0.696001 2.711747 -1.899948
v -0.533698 2.306898 1.400636
v 0.140021 2.315684 1.847332
v 0.035472 3.490541 2.907465
v 0.445612 2.610004 -2.081433
v -0.766176 2.859938 -1.185983
v -0.440064 0.138292 1.933923
v 0.575578 1.764915 -1.123310
v 0.471547 3.579986 2.764224
v 0.467353 3.605584 2.775265
v 0.455336 3.627532 2.788248
v 0.436673 3.643730 2.801888
v 0.413189 3.652583 2.814838
v 0.387185 3.653229 2.825842
v 0.361205 3.645583 2.833823
v 0.337792 3.630434 2.837987
v 0.319239 3.609263 2.837929
v 0.307362 3.584148 2.833664
v 0.303322 3.557536 2.825612
v 0.307516 3.531985 2.814573
v 0.319533 3.510000 2.801626
v 0.338196 3.493746 2.788027
v 0.361680 3.484835 2.775095
v 0.387684 3.484124 2.764103
v 0.413664 3.491681 2.756133
v 0.437077 3.506832 2.751952
v 0.455630 3.528049 2.751974
v 0.467507 3.553269 2.756198
v -0.137263 3.573488 2.834031
v -0.636877 0.865658 -1.905301
v 0.559557 0.914110 -1.667585
v -0.116023 3.600107 2.850502
v -0.099683 3.606651 2.858088
v 0.441545 3.557103 2.808142
v -0.063402 3.603085 2.868323
v -0.359315 2.124022 -1.672646
v -0.033989 3.579414 2.868983
v -0.025603 3.562669 2.865487
v -0.559557 0.914110 -1.667585
v -0.025499 3.527204 2.852576
v -0.033790 3.512022 2.844403
v -0.377790 0.464005 1.236167
v -0.063080 3.493959 2.828563
v -0.081212 3.492886 2.822435
v -0.099360 3.497439 2.818344
v -0.638721 2.521158 1.298347
v -0.128773 3.521159 2.817651
v -0.137159 3.537988 2.821118
v 0.470282 3.072519 -2.030221
v 0.650334 4.085141 2.347011
v -0.685968 1.411634 -1.810219
v 0.186295 2.906739 3.275274
v -0.336627 3.485282 0.903769
v -0.079046 3.526538 2.814866
v -0.172672 1.708086 0.560568
v -0.199026 3.912353 2.598307
v 0.261987 3.068900 3.338226
v -0.564233 0.192473 1.591888
v 0.470646 2.044128 -1.904467
v -0.592393 0.065122 -1.264131
v 0.706149 2.811553 1.381585
v 0.027979 2.938138 2.878071
v 0.792698 2.159663 1.234342
v -0.749495 2.314154 -1.770114
v -0.017753 2.605266 2.135050
v -0.062503 3.539296 2.840034
v -0.462198 1.486567 0.247058
v 0.302745 2.244719 -1.240945
v -0.157805 3.570212 2.787363
v -0.153649 3.595961 2.798070
v -0.141433 3.618321 2.810132
v -0.122354 3.635153 2.822354
v -0.098278 3.644802 2.833528
v -0.071563 3.646326 2.842573
v -0.044824 3.639555 2.848603
v -0.020677 3.625190 2.851015
v -0.001487 3.604633 2.849578
v 0.010867 3.579900 2.844441
v 0.015178 3.553388 2.836112
v 0.011022 3.527669 2.825411
v -0.001194 3.505270 2.813384
v -0.020273 3.488389 2.801198
v -0.044349 3.478694 2.790037
v -0.071064 3.477116 2.781000
v -0.097803 3.483809 2.774978
v -0.121950 3.498183 2.772548
v -0.141140 3.518788 2.773951
v -0.153495 3.543620 2.779052
v 0.544491 3.581605 1.298328
v 0.791709 2.841223 -1.542984
v 0.376636 3.079117 3.073713
v -0.455180 1.605686 -1.610499
v -0.203685 3.490725 0.429967
v 0.141413 3.554329 0.731273
v -0.741875 1.990047 -1.081332
v -0.682788 3.013965 -1.777692
v -0.629276 1.736966 0.885728
v -0.824409 1.949893 -1.264226
v 0.686839 3.371492 1.850867
v 0.478372 2.307359 -0.987550
v -0.480480 3.186320 -1.539328
v 0.521808 3.307580 2.643395
v -0.464968 2.300493 -0.985307
v 0.710902 1.581520 -1.266453
v 0.176990 3.462322 3.023874
v -0.352144 2.945192 -2.138967
v 0.118731 1.686175 0.822138
v -0.653588 2.182422 1.135856
v -0.172837 3.743800 1.333285
v -0.500019 0.934678 -1.882186
v -0.491162 3.285361 -0.103772
v 0.153092 3.498898 -1.947578
v -0.465274 2.239270 -0.373384
v -0.310764 3.980083 2.263909
v 0.597262 1.467538 0.265359
v 0.805410 1.831662 0.607166
v -0.575992 3.090360 0.343069
v -0.452348 1.158680 0.458084
v -0.392293 3.059114 1.392554
v -0.358942 3.276735 2.166563
v -0.523352 3.119402 -0.130376
v -0.588980 1.120512 -2.057710
v 0.373289 2.975466 2.504055
v -0.517768 2.793790 0.627801
v 0.660472 2.597815 -0.315653
v -0.465427 2.874271 -0.694309
v 0.182855 2.900427 3.179018
v -0.409018 3.750391 2.361963
v 0.588980 1.120512 -2.057710
v -0.137258 3.560825 2.838616
v -0.019179 1.535734 -3.281843
v -0.188883 3.595323 -1.357377
v -0.116018 3.587236 2.855527
v -0.099677 3.593662 2.863226
v -0.547013 0.341361 -1.526391
v -0.063396 3.589883 2.873420
v 0.850222 0.108748 -1.267730
v -0.033983 3.566023 2.873734
v -0.025598 3.549194 2.869991
v -0.504016 0.029497 1.562610
v -0.025493 3.513803 2.856495
v -0.033784 3.498708 2.848063
v -0.163464 1.538250 -3.276333
v -0.063075 3.480966 2.831885
v -0.081207 3.480054 2.825722
v -0.099355 3.484745 2.821692
v 0.849701 2.200234 -1.524698
v -0.128768 3.508605 2.821378
v -0.137154 3.525438 2.825119
v -0.755248 0.298796 -1.264678
v -0.070877 1.662579 -2.855635
v -0.485894 0.423649 1.533501
v 0.500325 3.499358 0.866549
v 0.195781 3.595872 -1.366932
v 0.058436 2.946226 2.960217
v 0.388711 3.618070 2.896759
v 0.745838 3.036769 -1.032381
v -0.216990 3.713524 2.737931
v 0.452731 3.858620 2.705736
v -0.110062 2.992909 -2.412623
v -0.103405 3.527926 2.818218
v 0.258232 2.915746 3.070926
v 0.222954 2.906697 3.143383
v -0.452629 3.165624 -0.692867
v -0.209342 3.509769 -0.152076
v -0.093026 1.386064 -3.256004
v 0.544349 2.896308 -0.728083
v 0.390471 1.720668 0.541454
v 0.454209 2.529028 -0.817379
v 0.567939 3.768682 1.811406
v -0.458121 3.048103 1.096132
v -0.026927 2.518044 -2.402855
v 0.667675 1.511805 0.208709
v -0.859438 0.107844 -1.288423
v 0.003428 3.369123 2.992535
v -0.075686 3.549195 2.847515
v -0.327335 2.533723 -2.076003
v 0.886902 2.215384 1.083047
v 0.551622 1.533810 0.413470
v -0.692064 3.055972 -1.471928
v -0.329710 3.421960 -0.690032
v 0.741870 1.990088 -1.081285
v 0.699418 4.244237 2.391857
v 0.461878 1.925238 -1.197029
v -0.503811 0.247998 -1.717053
v 0.699594 3.066798 -1.488671
v -0.024108 3.072300 3.088483
v 0.824420 1.949926 -1.264171
v 0.696185 0.487996 1.199717
v 0.770064 0.101657 1.748072
v 0.104157 3.817512 1.475725
v 0.446203 0.109980 -1.428865
v 0.112868 2.687942 -2.445120
v 0.380890 3.546261 2.823853
v 0.007452 2.297870 -1.681247
v 0.182708 2.894681 3.172399
v 0.289206 2.950151 2.951711
v -0.163761 2.690982 -2.437258
v 0.258378 2.921492 3.077546
v 0.786570 0.285300 1.410273
v 0.761830 4.155769 2.386620
v 0.519181 3.185799 -0.724907
v -0.294186 3.319274 1.148518
v -0.585525 2.162746 -1.926193
v 0.320491 3.445268 2.919270
v 0.559489 1.383267 -1.915012
v 0.863498 0.060044 1.516195
v 0.222808 2.900952 3.136763
v 0.676985 3.837891 2.185812
v 0.592537 3.309568 -0.140553
v 0.510960 3.260550 -1.226438
v 0.515686 1.349072 -1.421755
v 0.478583 4.009130 2.361429
v 0.110886 3.065816 3.341108
v 0.009547 2.359292 -1.274751
v -0.244396 2.434623 -1.103150
v 0.411999 3.563167 2.834771
v -0.734129 0.057649 -1.315717
v -0.381354 0.902071 1.154236
v 0.599804 1.877094 0.343143
v 0.238917 2.268255 -1.596555
v 0.690311 2.819600 0.586370
v 0.661204 2.946770 1.210982
v 0.869301 0.220698 -1.368385
v 0.936497 0.141159 1.756531
v -0.344477 1.744049 0.297470
v -0.667658 0.242117 -1.740892
v -0.057837 3.533003 2.826814
v -0.316189 0.468510 1.284718
v 0.825883 0.452952 1.488978
v 0.793796 2.733495 0.768531
v 0.322069 3.457333 2.847407
v 0.486820 3.332226 1.118759
v -0.604758 2.703855 0.816666
v 0.704920 0.294240 -1.571141
v 0.479637 1.688992 0.322888
v -0.375562 2.510755 -0.793563
v -0.068390 2.044543 -3.012285
v -0.695972 2.711685 -1.899436
v 0.918231 0.225588 1.541572
v 0.734129 0.057649 -1.315717
v -0.113465 3.531358 2.826104
v 0.152069 3.910062 2.802754
v -0.009340 3.303957 -2.297221
v 0.731485 1.487269 0.796632
v -0.179854 3.564752 0.854192
v 0.348696 2.873743 -2.137650
v 0.877660 1.371218 0.787993
v -0.503702 3.320415 0.920819
v -0.869301 0.220698 -1.368386
v -0.241691 2.759191 1.887364
v -0.342425 3.568245 1.333357
v -0.318903 3.778105 1.831354
v -0.274940 1.672131 0.348498
v 0.024960 2.171831 -0.850747
v -0.336753 2.033703 -0.386360
v 0.533428 1.921671 1.195482
v -0.564105 0.107638 1.807463
v 0.386429 3.434705 -0.712148
v -0.159113 2.729131 2.069215
v 0.481603 3.117697 2.452906
v 0.368353 2.286978 1.621921
v 0.161927 3.693855 2.975096
v -0.297538 2.520326 1.709973
v -0.463863 3.305143 1.531737
v -0.717932 0.166516 -1.126641
v 0.092618 1.730092 0.080685
v -0.577839 2.638632 -1.008016
v -0.368415 3.266252 2.305612
v -0.470488 2.044218 -1.904532
v -0.530581 3.084988 1.583842
v 0.309219 3.515822 -0.176233
v 0.644735 0.654316 1.331478
v 0.674646 0.925660 1.118395
v 0.742927 0.793315 1.328319
v -0.009000 2.288749 1.768450
v -0.518171 1.130173 -2.068588
v -0.060116 2.970793 2.471022
v 0.726123 2.435920 0.093840
v 0.512238 2.711558 -0.741374
v -0.437497 0.051192 1.866614
v 0.881208 0.697816 1.325657
v 0.652735 3.165218 -1.114053
v 0.521716 3.725640 2.710775
v 0.559483 2.533781 1.678322
v 0.613277 3.074789 1.354509
v 0.379497 3.464668 -1.268644
v -0.411135 3.281284 1.272969
v 0.687099 2.448359 0.478803
v 0.858268 0.107143 -1.281817
v -0.702424 3.011510 -0.994703
v 0.150828 3.294925 -2.180256
v 0.547013 0.341361 -1.526391
v -0.787129 0.074118 -1.177754
v 0.099397 2.918788 3.083405
v 0.206060 2.825061 3.146809
v 0.802720 1.460294 0.397025
v 0.424015 3.563369 2.829154
v 0.721825 0.361894 1.593438
v 0.323259 2.532258 -2.077516
v 0.311616 2.610271 2.123281
v -0.612172 2.263333 0.703490
v 0.018673 1.897929 -2.966718
v 0.324425 3.621067 0.943348
v 0.552127 3.959664 2.100975
v 0.042400 2.883202 3.167769
v -0.586742 1.800564 0.654418
v 0.411881 3.859538 1.803199
v -0.505021 2.421856 0.519189
v -0.493500 4.135665 2.432984
v 0.781786 2.387767 -1.157367
v 0.755760 1.916682 1.085109
v 0.251703 3.098094 3.440464
v -0.105632 3.555036 2.848491
v -0.386204 1.445570 0.298739
v -0.625963 1.337629 0.839027
v 0.779774 2.332976 1.354699
v 0.630226 3.145174 -0.169526
v -0.197028 1.807920 1.046417
v 0.585000 1.675380 0.892058
v 0.935860 0.257332 1.702555
v 0.938055 0.142180 1.750835
v 0.859438 0.107844 -1.288423
v 0.813324 2.294917 0.655177
v -0.163776 3.495388 -1.943833
v 0.460820 2.559824 -1.025680
v 0.766254 3.104404 1.534167
v 0.322604 2.887968 3.157441
v -0.280413 1.903884 1.223251
v -0.027690 1.669687 -2.923242
v 0.127838 1.827707 1.190044
v 0.333408 3.434774 -1.775530
v 0.816834 0.079211 1.824040
v -0.340782 1.654701 0.923480
v 0.780386 2.871970 -1.201151
v 0.191448 2.433035 -1.957083
v -0.643716 0.980164 -1.680230
v 0.420458 3.536248 2.799057
v -0.830230 2.614074 -1.473082
v 0.074633 2.992303 -2.417144
v -0.152443 2.306733 -1.370294
v 0.500019 0.934678 -1.882186
v 0.490914 1.374146 -1.864000
v 0.605862 0.087459 1.523183
v -0.482339 0.224923 -1.271908
v -0.124433 3.548132 2.828832
v -0.324998 0.632654 1.364392
v -0.563027 0.665554 1.374676
v -0.067314 3.611200 2.913262
v 0.545678 2.844232 -1.997065
v 0.409287 3.564362 1.082836
v 0.117443 3.121257 3.416703
v -0.446202 0.109980 -1.428866
v 0.251752 4.036962 2.471588
v -0.243743 0.196268 1.806440
v 0.686783 1.184125 0.419422
v 0.048378 2.884510 2.819720
v 0.395956 3.534103 2.797493
v 0.591542 0.351565 1.492334
v 0.635558 3.292517 2.129432
v -0.121180 3.538571 2.830223
v -0.433485 3.355216 1.893231
v -0.190337 2.432655 -1.951364
v 0.482339 0.224923 -1.271908
v 0.595173 2.262987 -0.409368
v -0.704920 0.294240 -1.571141
v -0.555069 0.108508 1.818879
v 0.605261 2.655872 -1.020429
v -0.371038 0.337482 1.630531
v -0.006092 3.545836 -2.005564
v 0.443218 1.822222 1.024687
v -0.341096 3.424815 -1.760874
v 0.613169 0.215410 1.777356
v -0.631571 2.719041 1.044623
v 0.829794 0.316603 1.773383
v 0.755248 0.298797 -1.264678
v -0.850222 0.108748 -1.267730
v 0.787129 0.074118 -1.177753
v 0.333321 3.504921 0.414025
v -0.032024 2.789476 -2.665006
v 0.038712 3.889930 1.832013
v -0.132376 3.984722 2.104476
v 0.058290 2.940480 2.953597
v -0.429463 2.691329 -0.711053
v 0.370103 3.751950 1.310021
v -0.236022 2.266966 -1.594453
v 0.866315 1.770375 0.834965
v 0.835655 2.749037 0.993532
v -0.461685 1.925422 -1.195702
v 0.689462 3.323144 1.486208
v 0.375471 3.539836 2.810993
v 0.542278 1.763867 0.267373
v 0.685968 1.411634 -1.810219
v 0.061030 3.515627 0.323881
v -0.785841 0.038986 -1.522763
v -0.429281 0.767131 1.368105
v 0.717932 0.166516 -1.126640
v 0.643716 0.980164 -1.680231
v 0.640401 2.618280 1.494952
v 0.140052 2.905287 3.146438
v -0.433833 4.226149 2.433378
v 0.634668 1.444775 0.745579
v 0.413985 2.962578 2.715997
v 0.108811 1.654794 0.509143
v -0.361538 3.453137 -1.250246
v -0.114173 1.430056 -3.734637
v -0.566089 0.108580 1.801887
v 0.487204 3.923538 2.573049
v 0.503811 0.247998 -1.717052
v -0.522306 0.005910 -1.513045
v 0.063043 2.829715 -2.202749
v 0.430962 3.539990 2.806194
v 0.658956 0.931009 -1.768269
v 0.379664 3.536046 2.803348
v 0.749496 2.314153 -1.770113
v 0.438721 3.547445 2.809750
v -0.658956 0.931009 -1.768269
v -0.401730 1.854717 0.377133
v 0.895892 1.872243 0.731254
v 0.636877 0.865658 -1.905301
v 0.785841 0.038987 -1.522762
v 0.099251 2.913042 3.076786
v 0.283466 2.293475 1.757857
v 0.438725 3.406188 2.764088
v 0.674157 3.344238 0.878123
v 0.086914 2.969802 -2.269181
v 0.156573 2.864442 2.453773
v -0.394934 2.601705 1.532888
v 0.522306 0.005910 -1.513045
v -0.509298 1.889017 1.128242
v -0.444566 0.257798 1.452058
v -0.083704 2.954874 2.734725
v 0.684518 3.768194 2.321468
v 0.158936 2.682916 2.226713
v 0.360332 2.124686 -1.671987
v -0.547176 2.131426 1.280466
v -0.208191 3.296169 2.670331
v 0.585482 2.162768 -1.926213
v 0.286802 2.456673 -1.102025
v 0.130457 2.082010 1.446952
v -0.175739 3.107004 2.477360
v 0.475193 2.052038 -0.414043
v -0.091447 1.922242 -0.379054
v 0.868711 2.551054 1.245484
v -0.670327 1.837257 0.784415
v 0.354588 4.000289 2.100503
v 0.443947 2.738307 2.046743
v 0.820069 0.166441 1.891153
v 0.289060 2.944405 2.945091
v 0.290977 2.888681 2.810806
v -0.333633 1.514035 0.443516
v 0.592394 0.065122 -1.264131
v -0.181926 3.994480 2.434336
vn 0.3635 -0.3310 0.8708
vn 0.7316 0.1908 -0.6544
vn 0.3636 -0.3308 0.8709
vn -0.9936 -0.0365 -0.1067
vn -0.8351 -0.4589 0.3034
vn 0.3636 -0.3310 0.8708
vn -0.3174 -0.7423 0.5901
vn 0.7897 0.0092 -0.6134
vn -0.0803 0.9962 0.0334
vn 0.3635 -0.3308 0.8709
vn 0.9442 -0.2336 -0.2324
vn -0.9192 -0.3587 -0.1623
vn -0.9729 0.2056 -0.1054
vn -0.2029 -0.7436 0.6371
vn -0.8250 0.1796 0.5358
vn -0.9862 -0.1369 -0.0926
vn -0.7267 -0.5963 0.3410
vn 0.9961 0.0877 -0.0070
vn 0.3101 -0.0232 0.9504
vn -0.7003 -0.0229 -0.7135
vn 0.5893 0.8079 -0.0091
vn -0.1280 -0.9844 0.1207
vn -0.1533 -0.9854 0.0743
vn 0.8209 0.5283 -0.2166
vn 0.8388 0.5441 0.0188
vn -0.9928 0.0206 -0.1182
vn -0.0299 -0.9743 0.2233
vn 0.8616 -0.4920 0.1246
vn 0.4305 -0.8922 -0.1369
vn -0.9002 0.1225 -0.4180
vn 0.3637 -0.3310 0.8707
vn 0.1863 0.9014 -0.3908
vn -0.5882 0.8048 -0.0796
vn -0.5270 -0.7522 -0.3955
vn 0.9882 -0.0424 -0.1469
vn -0.5011 0.8508 0.1583
vn 0.5067 0.8438 -0.1766
vn 0.6768 0.3206 -0.6627
vn 0.4283 0.5874 0.6867
vn -0.0937 0.9947 -0.0435
vn 0.9849 0.1723 0.0171
vn -0.0119 0.9999 -0.0055
vn -0.9022 -0.3947 -0.1738
vn 0.9749 0.1186 -0.1886
vn -0.1430 -0.7109 0.6886
vn 0.2633 -0.5450 0.7960
vn -0.6054 -0.7189 0.3415
vn -0.1197 0.9386 0.3236
vn -0.1327 -0.8960 0.4237
vn 0.8848 -0.2795 -0.3728
vn -0.9397 0.3390 0.0446
vn -0.9437 -0.2421 -0.2253
vn -0.4213 -0.9022 -0.0922
vn 0.2001 0.9714 -0.1280
vn 0.6728 -0.6908 0.2649
vn 0.9762 -0.1535 -0.1531
vn 0.4195 0.6806 -0.6007
vn 0.3638 -0.3310 0.8707
vn 0.2797 0.8939 0.3502
vn -0.2929 -0.8227 0.4872
vn 0.6189 0.6746 0.4024
vn -0.4027 -0.9152 -0.0113
vn -0.0383 -0.2645 0.9636
vn -0.7895 0.3028 -0.5338
vn -0.2156 0.7335 0.6446
vn -0.6902 0.5285 0.4943
vn 0.3634 -0.3311 0.8708
vn -0.2934 -0.0338 0.9554
vn -0.2090 -0.2372 -0.9487
vn 0.9823 -0.1406 0.1238
vn -0.2641 0.8474 -0.4607
vn -0.8473 0.0162 -0.5308
vn -0.8186 -0.3917 0.4202
vn -0.9900 0.1214 -0.0721
vn -0.8959 0.4283 0.1178
vn 0.2746 -0.2563 0.9268
vn 0.8822 0.4677 0.0552
vn -0.7557 -0.4806 -0.4450
vn -0.0225 -0.5684 0.8224
vn -0.6072 0.0240 -0.7942
vn -0.7134 0.6771 -0.1803
vn 0.9431 -0.2305 0.2396
vn 0.2437 -0.9642 0.1045
vn -0.2853 -0.1107 -0.9520
vn 0.9944 0.0848 -0.0638
vn -0.3847 -0.9226 -0.0298
vn 0.0413 0.9061 -0.4210
vn 0.7023 -0.0273 -0.7114
vn -0.6392 -0.5693 0.5170
vn -0.9383 0.2701 -0.2161
vn 0.3781 -0.9251 -0.0348
vn -0.6987 -0.3457 0.6263
vn -0.9595 0.2380 -0.1505
vn -0.4484 -0.4814 0.7532
vn -0.9420 0.3345 -0.0281
vn -0.3304 -0.7635 -0.5549
vn -0.0459 -0.8596 0.5089
vn -0.2794 -0.7843 0.5539
vn -0.2062 -0.8516 0.4820
vn 0.9982 0.0594 -0.0120
vn 0.1157 -0.9350 0.3352
vn -0.9899 -0.0383 -0.1366
vn -0.5707 0.4416 -0.6923
vn -0.4117 -0.6194 0.6685
vn 0.3350 -0.9273 0.1673
vn -0.4117 -0.6189 0.6689
vn 0.8732 -0.4447 0.1995
vn -0.1469 -0.3641 -0.9197
vn 0.8730 -0.4453 0.1991
vn 0.7609 0.6341 0.1379
vn 0.9104 -0.0122 0.4136
vn 0.3413 -0.9053 0.2530
vn -0.0729 -0.2348 0.9693
vn 0.6547 -0.7370 0.1682
vn 0.7402 -0.6475 0.1812
vn 0.5560 -0.7794 0.2888
vn 0.5552 0.4930 0.6698
vn 0.8156 0.3191 0.4827
vn 0.5552 0.4930 0.6699
vn 0.9295 0.2419 -0.2783
vn -0.3150 0.1760 0.9326
vn 0.9569 -0.0971 0.2738
vn 0.7494 -0.6364 -0.1826
vn -0.9048 -0.1233 0.4076
vn 0.7228 0.3147 0.6153
vn 0.8717 0.2174 0.4392
vn -0.4143 0.0415 0.9092
vn -0.2819 0.2445 0.9278
vn -0.4143 0.0413 0.9092
vn 0.6470 0.3611 0.6716
vn -0.5080 -0.2982 0.8081
vn 0.2225 0.5431 0.8097
vn -0.7014 0.2991 0.6469
vn -0.2071 0.3433 0.9161
vn -0.8915 0.4291 -0.1455
vn -0.0479 0.3329 0.9417
vn -0.8745 0.3172 0.3668
vn 0.9941 -0.0382 0.1020
vn 0.4710 0.7042 0.5313
vn 0.1160 -0.9351 0.3349
vn -0.8568 0.5099 0.0771
vn -0.5692 0.6313 0.5269
vn -0.4820 -0.4130 0.7727
vn -0.7413 0.1176 -0.6607
vn 0.9916 0.0309 0.1260
vn -0.7955 0.5443 -0.2662
vn -0.7582 0.6227 0.1933
vn -0.7166 0.6360 0.2864
vn -0.7995 0.1022 -0.5918
vn 0.9427 -0.2183 0.2524
vn -0.8225 0.4240 0.3792
vn 0.3409 -0.9054 0.2529
vn -0.9406 -0.0256 -0.3385
vn 0.0427 0.2400 0.9698
vn -0.9107 -0.3165 0.2655
vn -0.7562 -0.6432 0.1203
vn -0.9773 0.0557 0.2044
vn 0.9891 0.0557 -0.1366
vn -0.7028 0.3412 0.6242
vn 0.3407 0.5341 0.7738
vn 0.8473 0.0162 -0.5308
vn -0.4444 -0.8920 -0.0825
vn 0.9100 -0.0292 0.4135
vn 0.5912 0.8057 -0.0368
vn -0.6187 -0.6742 0.4033
vn -0.1988 -0.7949 0.5733
vn 0.9079 0.3787 -0.1796
vn -0.6398 -0.7241 0.2576
vn -0.6949 -0.5416 0.4731
vn -0.4008 -0.2091 0.8920
vn 0.8882 -0.4522 -0.0808
vn 0.5421 -0.6264 -0.5601
vn 0.1494 0.4245 0.8930
vn 0.2464 -0.7557 0.6067
vn -0.9853 -0.0623 0.1593
vn -0.8679 0.4784 -0.1340
vn -0.8777 0.4341 0.2031
vn -0.8486 0.3916 0.3558
vn 0.8554 -0.2721 0.4408
vn -0.0967 0.4212 0.9018
vn 0.8916 0.4525 -0.0196
vn 0.9792 -0.1816 0.0911
vn 0.4725 -0.1933 0.8599
vn -0.9971 -0.0598 -0.0464
vn -0.5020 0.8596 -0.0952
vn -0.4649 -0.2902 0.8364
vn -0.9555 0.0332 -0.2933
vn 0.0299 -0.9743 0.2233
vn -0.6436 0.0655 0.7626
vn -0.8754 -0.0582 0.4799
vn -0.0081 -0.9925 0.1216
vn -0.2948 0.9435 -0.1514
vn -0.2998 0.5242 0.7971
vn -0.6988 0.5249 0.4859
vn -0.7628 0.3111 -0.5669
vn 0.7444 -0.4117 -0.5257
vn -0.5422 -0.8167 0.1974
vn -0.8780 -0.0970 -0.4687
vn 0.6768 0.5771 -0.4571
vn 0.9971 -0.0078 0.0751
vn -0.2916 -0.9156 0.2770
vn -0.8552 0.4933 -0.1590
vn -0.9137 -0.2486 0.3215
vn -0.9671 -0.1792 -0.1805
vn 0.0139 0.7540 0.6567
vn 0.4767 0.8607 -0.1788
vn 0.6676 -0.6533 0.3570
vn -0.2909 -0.9562 -0.0336
vn -0.7675 -0.4511 -0.4554
vn 0.5516 -0.3948 0.7348
vn -0.3371 0.4138 -0.8457
vn 0.8836 -0.1644 0.4385
vn -0.0604 -0.9377 0.3421
vn 0.9868 -0.1297 -0.0972
vn 0.1321 0.9758 -0.1741
vn 0.0750 0.9912 -0.1090
vn 0.1066 0.3363 0.9357
vn -0.8545 -0.0257 -0.5189
vn 0.2630 0.3518 0.8984
vn -0.8459 0.4318 0.3129
vn -0.1797 0.5372 0.8241
vn 0.5753 -0.2783 0.7691
vn -0.7871 0.1722 -0.5923
vn 0.4787 0.0568 0.8761
vn 0.3416 0.2557 0.9044
vn 0.4787 0.0572 0.8761
vn -0.8434 0.1896 0.5027
vn -0.6851 0.2920 0.6673
vn 0.8637 0.1618 -0.4773
vn 0.9861 0.0273 -0.1639
vn -0.9302 -0.1279 0.3440
vn -0.3588 -0.9174 0.1724
vn 0.7080 0.3439 -0.6169
vn -0.5199 0.4758 0.7094
vn -0.7876 0.2931 0.5420
vn -0.5200 0.4758 0.7094
vn -0.5073 -0.7965 0.3290
vn -0.7032 -0.6709 0.2354
vn -0.6160 -0.7575 0.2160
vn 0.9109 -0.1874 0.3676
vn -0.2921 -0.9153 0.2772
vn -0.9787 0.0429 0.2008
vn -0.8518 0.4244 -0.3071
vn -0.8408 -0.4732 0.2631
vn -0.9600 -0.1873 0.2080
vn -0.8410 -0.4726 0.2636
vn 0.4804 -0.6036 0.6362
vn -0.0427 0.2400 0.9698
vn 0.4804 -0.6045 0.6355
vn -0.4568 -0.5163 0.7244
vn -0.9576 0.0886 0.2742
vn -0.0602 -0.9377 0.3423
vn 0.0306 -0.4421 -0.8965
vn 0.2688 -0.8436 0.4649
vn 0.3453 -0.7737 0.5312
vn 0.1116 -0.8567 0.5035
vn 0.9863 0.0177 0.1640
vn -0.6332 -0.5623 0.5319
vn -0.9818 0.1321 -0.1368
vn -0.9770 -0.2011 -0.0713
vn 0.6976 -0.0173 -0.7162
vn -0.7286 -0.1245 0.6736
vn 0.5946 -0.5040 0.6264
vn 0.9812 0.0501 0.1864
vn -0.6314 0.4105 0.6579
vn 0.9868 0.0060 -0.1619
vn 0.9815 -0.1245 0.1454
vn -0.6258 0.0149 0.7798
vn 0.3250 -0.0051 0.9457
vn 0.1536 -0.7031 0.6944
vn -0.9376 -0.3137 0.1499
vn 0.0822 -0.1788 -0.9804
vn 0.5879 0.6372 -0.4983
vn -0.3261 0.9433 -0.0623
vn 0.9153 -0.0864 0.3934
vn -0.4460 0.6758 -0.5869
vn -0.2361 0.8785 0.4154
vn -0.7521 -0.5280 0.3945
vn 0.9784 -0.1556 0.1360
vn 0.9788 -0.1804 0.0965
vn -0.9617 0.0341 0.2720
vn 0.4860 0.8655 0.1210
vn 0.9892 -0.1411 -0.0395
vn 0.9765 0.0038 -0.2155
vn 0.7218 0.6585 0.2129
vn -0.2869 -0.3422 0.8948
vn 0.7996 0.4307 0.4185
vn 0.0625 0.9740 -0.2178
vn 0.6792 0.1346 -0.7215
vn 0.3187 -0.4805 0.8170
vn -0.5821 -0.4116 0.7013
vn -0.7333 0.6713 -0.1077
vn -0.2870 -0.3421 0.8948
vn -0.6810 0.5844 -0.4413
vn 0.8176 -0.3016 0.4905
vn -0.2872 -0.3421 0.8947
vn -0.3980 0.5607 0.7261
vn -0.1327 -0.6446 -0.7529
vn 0.3536 0.2463 0.9024
vn 0.9212 -0.3175 -0.2250
vn -0.8333 -0.1789 0.5231
vn -0.6908 0.6988 -0.1858
vn 0.0174 -0.8827 0.4697
vn 0.2703 -0.7871 0.5545
vn -0.7434 0.5450 -0.3877
vn -0.5339 -0.6990 0.4758
vn 0.7377 0.5467 -0.3961
vn -0.5498 0.8251 -0.1300
vn -0.8738 0.4792 -0.0828
vn 0.8692 -0.4341 0.2369
vn 0.1527 -0.8886 -0.4325
vn 0.9556 0.0329 -0.2929
vn 0.7507 0.3663 0.5497
vn 0.7485 0.1271 0.6508
vn 0.8588 0.4686 -0.2071
vn -0.5504 -0.6508 -0.5230
vn -0.7154 0.6480 0.2612
vn 0.9618 -0.2584 0.0901
vn 0.9274 -0.3716 -0.0420
vn -0.2536 -0.7717 0.5833
vn -0.8291 -0.0269 -0.5585
vn 0.7357 -0.4674 0.4902
vn -0.1971 0.4849 -0.8521
vn -0.7507 0.3663 0.5497
vn 0.2882 -0.1942 0.9377
vn -0.6977 -0.0173 -0.7162
vn 0.9647 0.1642 0.2061
vn 0.8473 -0.4820 0.2229
vn -0.2922 -0.5409 0.7887
vn 0.7877 0.3380 0.5150
vn 0.5675 0.8225 0.0372
vn -0.7665 -0.5184 0.3792
vn 0.7921 0.0495 -0.6083
vn -0.1563 0.9745 -0.1613
vn 0.2538 -0.9664 0.0415
vn -0.8365 -0.2180 0.5027
vn 0.7719 -0.2935 0.5639
vn 0.2168 -0.2988 0.9294
vn -0.8389 -0.3931 0.3765
vn -0.9537 0.2982 0.0388
vn 0.9817 0.1900 0.0154
vn 0.9881 0.1060 0.1119
vn -0.2870 -0.3419 0.8948
vn 0.2614 -0.9371 -0.2312
vn 0.4513 0.0410 0.8914
vn -0.6843 0.4955 0.5350
vn -0.2871 -0.3421 0.8947
vn -0.0637 -0.7129 -0.6984
vn -0.0797 -0.6796 0.7293
vn -0.2871 -0.3419 0.8948
vn -0.6824 -0.4359 0.5868
vn -0.2870 -0.3420 0.8948
vn -0.1995 -0.2669 0.9429
vn -0.9784 0.1711 0.1163
vn 0.8327 0.4529 0.3184
vn -0.9892 -0.1411 -0.0395
vn 0.6584 -0.6105 0.4403
vn -0.3168 0.1765 0.9319
vn 0.9804 0.0628 -0.1867
vn 0.1769 -0.0082 -0.9842
vn 0.5678 0.6718 0.4756
vn -0.2535 0.9024 0.3485
vn -0.5272 -0.6372 -0.5621
vn 0.6586 0.4182 -0.6256
vn -0.9096 -0.2088 -0.3593
vn -0.7001 0.6909 -0.1803
vn -0.9358 0.0867 -0.3418
vn -0.5405 0.8379 -0.0763
vn 0.9424 0.3342 0.0166
vn -0.9353 0.1114 0.3358
vn 0.6054 -0.7189 0.3415
vn 0.8673 0.1525 -0.4738
vn -0.8916 0.4525 -0.0196
vn 0.9431 -0.0574 0.3276
vn 0.9089 0.3998 -0.1188
vn 0.1469 -0.3641 -0.9197
vn -0.8905 -0.0910 0.4459
vn -0.0574 -0.5875 0.8072
vn -0.8048 0.3881 0.4491
vn 0.8099 0.5132 -0.2841
vn -0.9969 -0.0691 -0.0364
vn -0.7778 0.0311 0.6278
vn -0.3664 -0.8553 -0.3664
vn -0.1208 0.9578 -0.2607
vn -0.8826 -0.3695 -0.2907
vn 0.8180 0.0648 0.5716
vn -0.8968 0.4337 -0.0868
vn 0.4894 0.8119 -0.3184
vn 0.5020 0.8596 -0.0952
vn 0.8553 -0.2663 0.4445
vn 0.9186 -0.2847 0.2740
vn -0.9410 -0.3009 0.1546
vn -0.9821 -0.0830 0.1690
vn 0.6758 -0.1118 -0.7285
vn 0.9337 -0.0848 -0.3478
vn -0.1486 -0.9701 0.1919
vn -0.1197 -0.9004 -0.4183
vn 0.8317 -0.0781 0.5496
vn -0.9606 -0.1742 0.2168
vn -0.6939 0.0036 0.7200
vn -0.8947 -0.3192 -0.3124
vn -0.9434 -0.2328 0.2362
vn -0.9692 -0.0798 -0.2331
vn 0.5675 -0.2738 0.7765
vn 0.6379 -0.7474 0.1856
vn 0.5695 0.8097 -0.1415
vn -0.4863 -0.1568 0.8596
vn -0.5486 0.2092 -0.8095
vn -0.7806 0.4049 0.4761
vn -0.9767 -0.1618 0.1409
vn -0.9975 0.0111 -0.0691
vn 0.0434 0.9392 -0.3407
vn -0.8169 0.4453 -0.3665
vn -0.7605 -0.6406 -0.1067
vn 0.6863 -0.4535 0.5686
vn -0.5957 0.4260 0.6809
vn 0.2975 -0.7159 0.6317
vn -0.6841 0.5832 -0.4381
vn 0.8088 -0.4930 0.3207
vn 0.5867 0.0746 -0.8064
vn 0.5503 -0.1362 0.8238
vn 0.3667 0.8369 0.4064
vn 0.8469 0.4664 0.2554
vn 0.5662 0.8242 -0.0094
vn 0.0442 0.9414 -0.3344
vn -0.9111 -0.0045 0.4121
vn 0.9824 -0.1837 -0.0344
vn -0.7180 -0.1429 -0.6812
vn -0.9983 0.0148 0.0557
vn -0.5865 -0.1048 -0.8032
vn -0.2024 -0.9718 0.1210
vn -0.7715 0.1688 -0.6135
vn 0.7798 -0.0994 0.6181
vn -0.0622 -0.9295 -0.3636
vn 0.0336 0.9993 0.0171
vn -0.7834 -0.6149 -0.0907
vn 0.5467 -0.7517 0.3689
vn 0.8575 -0.1900 0.4781
vn -0.3404 -0.4094 0.8465
vn 0.0374 -0.9070 -0.4195
vn 0.8422 -0.4124 0.3473
vn -0.7933 0.1392 -0.5927
vn -0.8740 0.1689 -0.4556
vn -0.6043 -0.6296 0.4884
vn 0.1490 -0.2823 -0.9477
vn -0.9464 -0.2758 -0.1682
vn 0.3102 -0.5424 -0.7808
vn -0.5843 -0.1011 -0.8052
vn -0.1024 -0.9276 0.3594
vn 0.2455 -0.1858 -0.9514
vn 0.6287 -0.5569 0.5428
vn 0.8226 0.4144 0.3893
vn -0.1012 -0.9855 0.1361
vn 0.8242 0.1929 -0.5325
vn 0.5924 0.2028 0.7797
vn -0.7857 -0.1046 0.6097
vn 0.7858 -0.2613 0.5605
vn 0.7206 0.6870 -0.0931
vn -0.7158 0.2596 0.6483
vn -0.2723 -0.1064 0.9563
vn 0.2935 -0.6216 0.7263
vn -0.5974 -0.6140 0.5159
vn 0.3847 -0.9226 -0.0298
vn -0.4721 -0.8125 -0.3420
vn 0.3785 -0.8386 -0.3919
vn -0.6043 0.7929 0.0785
vn 0.5898 -0.0667 -0.8048
vn -0.5898 -0.0665 -0.8048
vn 0.7342 -0.3096 0.6043
vn -0.0269 -0.7255 0.6877
vn 0.5054 0.4549 -0.7332
vn -0.9626 0.2672 0.0439
vn 0.3343 -0.6397 0.6921
vn -0.8395 0.5421 -0.0361
vn -0.1392 -0.3046 0.9423
vn 0.6570 0.7194 -0.2257
vn -0.9815 -0.1245 0.1454
vn -0.8930 -0.1327 0.4301
vn 0.4874 0.8593 0.1550
vn -0.8212 -0.2171 0.5277
vn -0.0461 -0.7166 0.6960
vn -0.3525 0.4525 0.8191
vn -0.7747 -0.2913 0.5613
vn 0.8738 -0.1080 -0.4742
vn 0.5323 -0.0762 -0.8431
vn 0.6813 -0.7016 0.2089
vn -0.1623 -0.9487 0.2714
vn -0.8745 0.1919 -0.4454
vn 0.9527 -0.1530 -0.2625
vn 0.2654 -0.9529 -0.1467
vn 0.5763 0.0378 -0.8163
vn -0.6264 -0.4824 0.6123
vn 0.3460 -0.0962 0.9333
vn 0.6704 0.7065 -0.2267
vn 0.9479 -0.2812 -0.1500
vn -0.7519 0.0131 0.6591
vn -0.6549 0.0807 0.7514
vn 0.7562 -0.3151 0.5735
vn 0.6967 -0.6077 0.3812
vn 0.2196 0.9632 -0.1547
vn -0.6077 -0.1705 -0.7757
vn -0.9305 0.3511 -0.1040
vn -0.8685 -0.3566 -0.3444
vn -0.9499 0.0818 0.3016
vn 0.7641 0.1616 -0.6245
vn -0.2702 0.9610 -0.0587
vn 0.5734 0.8025 -0.1653
vn -0.9803 0.1895 0.0564
vn 0.3914 -0.9093 0.1413
vn -0.6420 -0.0324 -0.7660
vn 0.1219 -0.7012 -0.7025
vn -0.3085 -0.9512 -0.0076
vn -0.7388 0.3035 -0.6017
vn -0.8396 0.0114 -0.5431
vn 0.8634 -0.1811 0.4709
vn 0.2457 -0.5846 0.7732
vn 0.8766 -0.3689 0.3090
vn -0.2120 -0.9639 -0.1614
vn -0.9991 0.0417 0.0044
vn 0.7974 0.0375 0.6023
vn 0.9936 -0.0367 -0.1065
vn -0.0604 0.9974 -0.0386
vn -0.1253 -0.7411 -0.6596
vn -0.9868 -0.1297 -0.0972
vn -0.0036 0.9956 -0.0939
vn 0.2461 0.8780 0.4105
vn -0.1424 0.9645 -0.2222
vn 0.7783 -0.6212 -0.0916
vn -0.9930 -0.0191 -0.1167
vn 0.7826 -0.6197 0.0598
vn 0.9413 0.2604 -0.2149
vn -0.6193 0.7845 0.0317
vn 0.3408 -0.9365 0.0831
vn -0.2872 0.8156 0.5023
vn 0.3888 -0.8357 -0.3878
vn 0.9170 -0.0469 -0.3962
vn -0.2100 -0.2047 0.9560
vn -0.0911 -0.9659 -0.2423
vn -0.9917 0.0442 -0.1211
vn -0.8944 -0.4273 0.1323
vn 0.3413 0.5272 0.7782
vn -0.1079 -0.7061 -0.6998
vn 0.6743 0.0684 0.7353
vn 0.1971 0.4849 -0.8521
vn 0.4745 -0.8721 -0.1194
vn -0.8312 -0.2105 0.5146
vn -0.0637 -0.5034 -0.8617
vn 0.4710 0.5414 0.6965
vn 0.4692 -0.7066 -0.5297
vn -0.9768 -0.1333 0.1677
vn -0.3350 -0.9273 0.1673
vn -0.9186 -0.2847 0.2740
vn 0.4030 -0.9151 0.0121
vn -0.0057 -0.8964 -0.4431
vn 0.0673 -0.2309 0.9707
vn -0.9813 0.0343 0.1896
vn 0.6787 0.7325 0.0525
vn 0.6534 -0.5962 0.4665
vn -0.6963 0.6726 -0.2505
vn 0.8828 -0.3627 -0.2984
vn -0.4813 0.6773 -0.5564
vn -0.6655 0.6428 -0.3794
vn 0.1246 -0.7160 0.6869
vn -0.8091 -0.4182 -0.4128
vn -0.0326 0.9937 -0.1072
vn 0.7980 0.3126 0.5153
vn 0.6757 0.7062 -0.2113
vn -0.9860 0.1039 -0.1305
vn 0.2225 -0.9401 0.2584
vn -0.2861 0.7190 0.6334
vn -0.6076 0.3406 0.7175
vn -0.8984 0.1989 0.3915
vn -0.5597 -0.7958 -0.2312
vn -0.9476 0.3059 0.0920
vn 0.9080 0.1500 -0.3912
vn -0.8377 -0.5116 -0.1912
vn -0.9806 -0.1788 -0.0803
vn -0.5076 0.8455 -0.1658
vn 0.9260 -0.3124 -0.2119
vn 0.3168 0.1765 0.9319
vn -0.6364 -0.7265 0.2593
vn -0.9174 0.3863 0.0958
vn 0.2214 0.0054 -0.9752
vn 0.1011 -0.7256 0.6806
vn -0.2619 -0.6471 0.7160
vn -0.2072 -0.9766 0.0570
vn -0.2223 -0.7273 0.6493
vn 0.8139 -0.4603 0.3545
vn 0.3405 -0.4094 0.8464
vn 0.0791 -0.9262 -0.3687
vn 0.9374 -0.2916 0.1904
vn 0.9532 0.1435 0.2662
vn 0.6541 -0.1625 -0.7387
vn -0.8884 -0.4535 -0.0709
vn 0.8365 -0.2181 0.5027
vn 0.4696 0.3785 -0.7976
vn 0.1169 -0.2619 0.9580
vn -0.7980 0.3126 0.5153
vn 0.0081 -0.9925 0.1216
vn 0.9693 0.1476 -0.1969
vn 0.1677 -0.9215 0.3503
vn -0.6217 0.7832 0.0113
vn 0.2748 -0.5145 -0.8123
vn -0.9938 0.0170 -0.1095
vn 0.9358 0.0867 -0.3418
vn -0.5601 0.4947 -0.6645
vn 0.2156 0.7335 0.6446
vn -0.7066 0.0984 0.7007
vn 0.8241 -0.5626 -0.0662
vn -0.7939 -0.5857 -0.1632
vn 0.1327 -0.6446 -0.7529
vn -0.3005 0.5169 0.8016
vn -0.2922 -0.9506 0.1046
vn -0.0122 -0.5248 -0.8512
vn 0.2963 0.8253 0.4808
vn 0.7752 -0.3876 -0.4987
vn -0.8021 -0.1905 0.5660
vn 0.8204 -0.4489 0.3541
vn 0.1058 -0.9626 -0.2496
vn 0.5494 0.4249 -0.7195
vn -0.0936 -0.9948 0.0402
vn 0.9145 -0.3485 0.2056
vn 0.9560 0.0749 -0.2835
vn 0.5718 -0.4910 0.6572
vn 0.6137 0.7829 -0.1020
vn 0.3636 -0.7251 0.5848
vn 0.6398 0.5748 -0.5101
vn 0.2212 -0.8898 -0.3991
vn 0.5900 0.4879 0.6432
vn 0.8152 -0.4891 -0.3102
vn 0.6400 0.7489 -0.1720
vn -0.0365 -0.9046 -0.4246
vn 0.0225 -0.5684 0.8224
vn 0.6420 -0.0324 -0.7660
vn -0.0206 0.9972 -0.0716
vn -0.8119 -0.2137 0.5433
vn 0.9576 0.0886 0.2742
vn 0.8984 0.1989 0.3915
vn 0.9934 -0.0154 -0.1140
vn -0.9431 -0.2305 0.2396
vn 0.9765 0.1661 -0.1371
vn 0.6598 0.5828 -0.4743
vn -0.2000 -0.9767 -0.0782
vn 0.9656 -0.2002 0.1660
vn -0.8757 -0.2253 0.4272
vn -0.7797 0.1085 -0.6166
vn 0.2004 -0.8890 0.4118
vn 0.9240 -0.1349 -0.3578
vn -0.2413 -0.4931 0.8358
vn 0.6132 0.6578 -0.4374
vn -0.6613 0.5070 0.5528
vn 0.9232 -0.0609 0.3794
vn 0.8506 0.2170 0.4789
vn -0.6867 -0.4339 0.5832
vn -0.7111 0.6935 0.1162
vn 0.9454 0.3240 -0.0362
vn 0.3377 0.9240 -0.1792
vn 0.8452 0.5145 -0.1444
vn -0.2270 0.0183 -0.9737
vn 0.6843 -0.6970 0.2145
vn 0.8443 -0.4747 -0.2486
vn -0.1691 0.8415 -0.5132
vn 0.8397 0.5280 -0.1268
vn -0.4797 0.8685 -0.1246
vn 0.2716 -0.7375 0.6184
vn -0.6541 -0.1625 -0.7387
vn 0.7445 -0.4471 -0.4959
vn 0.3821 0.8357 0.3944
vn -0.4374 -0.7604 -0.4800
vn 0.9077 -0.2113 -0.3625
vn 0.5044 0.1510 -0.8502
vn 0.9999 -0.0033 -0.0150
vn -0.9823 -0.1402 0.1243
vn 0.8983 0.3426 0.2751
vn 0.9531 0.2489 -0.1724
vn -0.9369 -0.3216 -0.1368
vn 0.9763 -0.1636 0.1414
vn -0.7805 -0.2607 0.5682
vn -0.9900 0.0731 -0.1207
vn -0.6277 0.0972 -0.7724
vn -0.3782 -0.9251 -0.0348
vn 0.0637 -0.5034 -0.8617
vn -0.9873 -0.0562 0.1484
vn -0.9616 -0.2683 0.0584
vn 0.6698 -0.1078 0.7347
vn 0.3724 -0.4487 -0.8124
vn 0.8114 0.3948 0.4309
vn 0.3252 -0.7584 0.5649
vn -0.9953 0.0394 -0.0880
vn 0.4402 -0.4077 0.8000
vn 0.7306 0.1422 -0.6679
vn 0.0575 -0.5876 0.8071
vn 0.0858 0.9935 -0.0744
vn -0.6538 0.5718 -0.4956
vn -0.4328 0.3559 0.8283
vn 0.3773 -0.9227 -0.0794
vn 0.9899 -0.0383 -0.1366
vn 0.4037 -0.8313 -0.3822
vn 0.1072 -0.1146 0.9876
vn -0.8816 -0.3305 0.3371
vn 0.5748 -0.0214 0.8180
vn 0.6743 0.7383 -0.0146
vn 0.1276 -0.2970 -0.9463
vn -0.2092 -0.2375 -0.9486
vn -0.8429 0.2606 -0.4707
vn -0.7972 0.3589 0.4855
vn -0.7196 -0.4708 0.5104
vn -0.8553 -0.2662 0.4444
vn -0.2935 -0.6216 0.7263
vn 0.2918 0.6176 0.7303
vn 0.9437 -0.2421 -0.2253
vn -0.4142 -0.7580 -0.5039
vn -0.4329 -0.7482 -0.5027
vn 0.0637 -0.7129 -0.6984
vn 0.1280 -0.9844 0.1207
vn -0.7552 0.3155 -0.5746
vn 0.0311 0.9455 -0.3242
vn 0.9791 -0.1745 0.1049
vn 0.9798 -0.1299 0.1518
vn 0.8578 -0.2800 0.4310
vn -0.9972 0.0432 0.0606
vn -0.4637 0.8847 -0.0483
vn -0.2374 -0.7734 0.5878
vn -0.0260 -0.5324 -0.8461
vn 0.9897 -0.0688 0.1258
vn -0.6172 -0.3480 0.7056
vn 0.3288 -0.7536 -0.5692
vn -0.8117 -0.5254 -0.2550
vn -0.9881 0.1060 0.1119
vn 0.2535 0.9024 0.3485
vn 0.3685 -0.5266 0.7661
vn -0.6671 0.7347 -0.1231
vn -0.5690 -0.4650 0.6782
vn -0.5277 -0.5291 0.6645
vn -0.1051 0.9710 -0.2148
vn -0.1257 -0.2950 -0.9472
vn 0.4415 -0.8964 -0.0400
vn 0.9561 -0.2821 0.0794
vn 0.8589 -0.3660 0.3582
vn 0.8891 -0.4400 0.1263
vn 0.8426 0.3826 -0.3789
vn -0.9881 -0.0530 0.1447
vn -0.9356 0.1906 -0.2971
vn -0.2430 -0.9616 -0.1279
vn 0.5601 0.4947 -0.6645
vn -0.2784 -0.5692 -0.7736
vn -0.5531 -0.3440 0.7587
vn -0.9915 0.0309 0.1260
vn -0.5645 0.0545 -0.8236
vn 0.8179 0.0116 -0.5752
vn -0.5971 -0.5373 0.5957
vn 0.5449 0.8301 -0.1180
vn 0.9943 -0.0247 -0.1040
vn 0.9584 0.2838 -0.0307
vn 0.8751 -0.1506 0.4599
vn -0.4402 -0.4077 0.8000
vn 0.6997 0.3480 -0.6240
vn 0.6118 -0.7879 0.0701
vn 0.8946 -0.4112 0.1748
vn -0.1842 -0.5550 0.8112
vn 0.6556 0.4392 0.6142
vn 0.4321 0.5741 0.6955
vn 0.7458 0.2922 0.5987
vn 0.7463 0.1184 -0.6550
vn 0.9165 0.2664 0.2984
vn -0.7506 -0.2924 0.5925
vn 0.8470 -0.1635 0.5058
vn 0.9846 0.0836 -0.1538
vn -0.6600 -0.2997 0.6889
vn 0.9682 0.1109 0.2243
vn -0.9765 0.0038 -0.2155
vn 0.9271 0.3744 0.0176
vn 0.3609 0.9067 -0.2183
vn -0.9526 -0.1300 -0.2751
vn 0.6774 0.0721 0.7321
vn 0.7559 0.2625 -0.5997
vn 0.6221 -0.1662 -0.7651
vn -0.6590 0.7491 -0.0679
vn -0.2078 -0.8994 -0.3845
vn 0.6209 0.4532 0.6396
vn 0.7374 0.3279 0.5905
vn -0.9100 0.2016 0.3624
vn -0.4065 0.5688 0.7150
vn -0.7151 -0.6620 0.2244
vn 0.8757 -0.1843 0.4464
vn -0.0715 -0.4443 -0.8930
vn 0.5956 -0.6737 0.4374
vn -0.7703 -0.4833 0.4161
vn -0.9558 0.0855 -0.2814
vn 0.7196 -0.4708 0.5104
vn 0.9787 0.0429 0.2008
vn 0.3602 -0.7475 -0.5581
vn -0.7863 -0.4637 0.4083
vn -0.1284 0.1394 0.9819
vn 0.2169 -0.7070 0.6731
vn -0.4464 0.5209 0.7276
vn -0.4153 -0.5089 0.7540
vn -0.7536 0.6559 -0.0436
vn 0.9788 0.0579 0.1966
vn -0.3913 0.8185 0.4207
vn -0.4500 0.1027 0.8871
vn -0.3060 -0.5275 -0.7925
vn 0.9962 -0.0170 0.0856
vn 0.8866 0.1216 -0.4462
vn 0.9959 -0.0186 0.0886
vn -0.1778 -0.0082 -0.9840
vn -0.6765 -0.5879 0.4435
vn 0.5338 -0.2739 0.8001
vn -0.7533 -0.0516 -0.6556
vn 0.6478 0.7263 -0.2301
vn -0.3684 0.8450 -0.3876
vn -0.9745 -0.1746 -0.1412
vn 0.1540 -0.9798 0.1274
vn -0.6979 0.4366 -0.5677
vn 0.6962 0.5264 0.4881
vn 0.4124 -0.7395 -0.5320
vn 0.1132 -0.7357 -0.6677
vn -0.5035 -0.5151 0.6937
vn 0.4557 0.6827 -0.5712
vn 0.9930 -0.0191 -0.1167
vn 0.9389 -0.2797 -0.2004
vn 0.2702 0.9610 -0.0587
vn -0.5632 0.4530 0.6911
vn -0.0240 -0.9996 0.0161
vn 0.2225 -0.9709 -0.0889
vn 0.6740 0.5369 0.5075
vn -0.9945 -0.0749 -0.0734
vn 0.1406 -0.9895 0.0323
vn 0.7642 0.5568 -0.3255
vn 0.5933 -0.6611 -0.4592
vn -0.3530 0.4386 -0.8265
vn 0.5190 -0.4611 0.7197
vn 0.9743 -0.2250 -0.0073
vn -0.9460 -0.1602 -0.2818
vn 0.4623 0.7516 -0.4705
vn 0.8690 0.4830 -0.1075
vn 0.9696 0.0949 -0.2256
vn -0.8193 0.2438 0.5190
vn -0.1312 -0.5663 -0.8137
vn -0.9975 -0.0479 0.0528
vn -0.5663 0.4621 0.6825
vn 0.4114 -0.4551 0.7897
vn 0.9267 -0.1033 0.3613
vn -0.5054 0.4549 -0.7332
vn 0.5389 -0.6982 -0.4713
vn -0.8854 0.4608 -0.0610
vn -0.9170 -0.0469 -0.3962
vn 0.9628 -0.0044 0.2702
vn 0.5880 0.4787 0.6520
vn 0.9087 0.2952 -0.2951
vn -0.2505 -0.9447 -0.2115
vn 0.3867 0.4690 0.7940
vn -0.6968 0.7162 0.0390
vn -0.5698 -0.8143 0.1102
vn -0.7221 -0.1354 0.6784
vn -0.8110 -0.2958 0.5047
vn -0.6009 0.4396 0.6676
vn 0.8541 0.4272 0.2967
vn -0.9439 -0.1464 -0.2961
vn 0.9828 -0.0930 -0.1594
vn -0.6243 -0.3556 0.6956
vn 0.9751 -0.1707 -0.1418
vn 0.1645 -0.9799 0.1125
vn 0.7995 0.0484 -0.5988
vn -0.6814 -0.4875 0.5459
vn -0.0039 0.9866 0.1630
vn -0.4720 -0.7276 -0.4978
vn -0.8137 -0.3177 0.4867
vn 0.5158 -0.6139 -0.5975
vn 0.7450 -0.5206 0.4172
vn -0.3753 0.8203 0.4316
vn 0.1492 -0.8050 0.5742
vn -0.3367 0.7357 0.5877
vn -0.2689 0.6051 0.7493
vn 0.6841 -0.5377 0.4929
vn 0.7417 0.0330 0.6699
vn -0.9125 -0.0841 0.4005
vn 0.1402 0.1129 0.9837
vn 0.5531 -0.3440 0.7587
vn -0.9868 0.0060 -0.1619
vn 0.7028 0.3412 0.6242
vn 0.5348 -0.0798 -0.8412
vn -0.9861 0.0273 -0.1639
vn 0.2433 -0.9537 -0.1768
vn -0.9295 0.2419 -0.2783
vn 0.7933 0.1392 -0.5927
vn -0.0751 -0.7083 0.7019
vn -0.9548 0.1213 0.2713
vn 0.9406 -0.0256 -0.3385
vn 0.6897 0.7208 0.0685
vn -0.7597 -0.1350 0.6361
vn 0.8714 0.4694 0.1424
vn 0.2772 0.9601 0.0381
vn 0.9009 -0.4135 -0.1316
vn 0.8014 -0.5389 0.2596
vn 0.5868 0.0767 -0.8061
vn 0.8685 -0.3566 -0.3444
vn -0.9749 -0.1020 0.1981
vn 0.6245 0.4670 0.6260
vn -0.9194 0.0809 -0.3849
vn 0.4678 -0.6721 -0.5740
vn -0.8329 0.0129 -0.5532
vn 0.9826 0.0574 -0.1767
vn 0.5216 -0.5092 0.6845
vn 0.6446 -0.3938 0.6553
vn -0.0328 0.9374 -0.3467
vn 0.9538 -0.0368 -0.2983
vn -0.2903 -0.7395 0.6073
vn -0.9411 -0.0470 0.3348
vn -0.3767 -0.8528 -0.3616
vn 0.7696 0.4807 -0.4204
vn 0.6664 -0.3903 0.6353
vn 0.2044 -0.9622 0.1799
vn -0.7872 0.5643 -0.2487
vn -0.0349 -0.1178 0.9924
vn -0.4149 0.8894 -0.1920
vn -0.8022 -0.5521 0.2270
vn 0.8280 0.2032 -0.5226
vn 0.9420 0.3345 -0.0281
vn -0.9610 -0.2178 0.1707
vn 0.9781 0.0871 -0.1892
vn 0.7741 -0.1107 0.6233
vn 0.9360 -0.0933 0.3395
vn -0.5899 -0.7748 0.2272
vn -0.9076 -0.4199 0.0015
vn 0.7985 -0.6017 0.0176
vn 0.1009 -0.5611 -0.8216
vn -0.7690 -0.2815 0.5740
vn 0.7905 -0.5879 -0.1717
vn 0.4716 0.3761 0.7976
vn -0.9739 -0.1296 0.1863
vn 0.9754 0.2148 0.0499
vn 0.0098 -0.9006 0.4345
vn 0.7772 -0.3027 0.5517
vn 0.9695 -0.1311 -0.2072
vn -0.4863 -0.7748 0.4040
vn 0.8816 -0.3305 0.3371
vn -0.0013 -0.9689 -0.2474
vn -0.3052 0.9502 0.0623
vn 0.9099 -0.1246 -0.3956
vn 0.8442 -0.3328 0.4201
vn 0.3567 -0.8105 0.4645
vn -0.5410 0.3600 -0.7601
vn 0.8368 0.5131 -0.1911
vn -0.8912 -0.3792 0.2490
vn -0.9424 -0.3234 -0.0859
vn -0.8017 -0.4293 0.4159
vn -0.8775 -0.1132 0.4660
vt 0.793893 0.811035
vt 0.733986 0.647144
vt 0.654509 0.794346
vt 0.904509 0.802353
vt 0.637534 0.635601
vt 0.530617 0.607635
vt 0.500000 0.753937
vt 0.876608 0.580494
vt 0.859674 0.618176
vt 0.975529 0.769161
vt 0.000000 0.714703
vt 0.810530 0.641144
vt 0.494886 0.330135
vt 0.549539 0.344433
vt 0.530617 0.328053
vt 0.604192 0.365723
vt 0.423700 0.300087
vt 0.327249 0.288544
vt 0.445583 0.324238
vt 0.637534 0.369709
vt 0.653495 0.391926
vt 0.692622 0.420471
vt 0.810530 0.476807
vt 0.717743 0.448570
vt 0.733986 0.420963
vt 0.201560 0.403915
vt 0.381335 0.383205
vt 0.184626 0.355206
vt 0.372679 0.358311
vt 0.250704 0.458881
vt 0.406456 0.411304
vt 0.327249 0.514725
vt 0.381335 0.339043
vt 0.250704 0.294548
vt 0.406456 0.327301
vt 0.201560 0.317513
vt 0.859674 0.531780
vt 0.555940 0.398312
vt 0.726400 0.473465
vt 0.692622 0.504471
vt 0.717743 0.492729
vt 0.653495 0.507542
vt 0.604192 0.501640
vt 0.445583 0.439854
vt 0.494886 0.466053
vt 0.549539 0.487347
vt 0.095491 0.301487
vt 0.206107 0.292805
vt 0.024472 0.334679
vt 0.345492 0.309490
vt 0.500000 0.349903
vt 0.654509 0.410099
vt 0.206107 0.619667
vt 0.345492 0.693741
vt 0.095491 0.538963
vt 0.423700 0.565987
vt 0.024472 0.459526
vt 0.000000 0.389137
vt 0.904509 0.564873
vt 0.975529 0.644310
vt 0.793893 0.484169
vt 0.000000 1.000000
vt 0.273600 0.473465
vt 0.123392 0.580494
vt 0.282257 0.492729
vt 0.024471 0.644310
vt 0.140326 0.618176
vt 0.307378 0.504471
vt 0.189470 0.641144
vt 0.140326 0.531780
vt 0.266014 0.420963
vt 0.206107 0.484169
vt 0.189470 0.476807
vt 0.345491 0.410099
vt 0.095491 0.564873
vt 0.576300 0.565987
vt 0.505114 0.466053
vt 0.469383 0.607635
vt 0.450461 0.487347
vt 0.672751 0.514725
vt 0.554417 0.439854
vt 0.593544 0.411304
vt 0.362466 0.635601
vt 0.395808 0.501640
vt 0.346505 0.507542
vt 0.266014 0.647144
vt 0.362466 0.369709
vt 0.798440 0.403915
vt 0.749296 0.458881
vt 0.975528 0.459526
vt 0.904509 0.538963
vt 0.815374 0.355206
vt 0.975528 0.334679
vt 0.654508 0.693741
vt 0.793893 0.619667
vt 0.576300 0.300087
vt 0.654508 0.309490
vt 0.469383 0.328053
vt 0.672751 0.288544
vt 0.793893 0.292805
vt 0.798440 0.317513
vt 0.749296 0.294548
vt 0.904509 0.301487
vt 0.444060 0.398312
vt 0.618665 0.383205
vt 0.282257 0.448570
vt 0.395808 0.365723
vt 0.346505 0.391926
vt 0.450461 0.344433
vt 0.307378 0.420471
vt 0.505114 0.330135
vt 0.627321 0.358311
vt 0.618665 0.339043
vt 0.593544 0.327301
vt 0.554417 0.324238
vt 0.095491 0.802353
vt 0.024471 0.769161
vt 0.345491 0.794346
vt 0.206107 0.811035
vt 0.531129 0.863455
vt 0.528598 0.862678
vt 0.529701 0.861377
vt 0.530028 0.864496
vt 0.532449 0.864504
vt 0.554833 0.852302
vt 0.535964 0.857423
vt 0.554115 0.862847
vt 0.527653 0.863068
vt 0.533337 0.860528
vt 0.534939 0.862031
vt 0.531751 0.858482
vt 0.533744 0.855085
vt 0.535657 0.858520
vt 0.537437 0.859975
vt 0.530356 0.847231
vt 0.465756 0.730456
vt 0.464280 0.731015
vt 0.466272 0.734068
vt 0.468310 0.733388
vt 0.464779 0.728223
vt 0.462719 0.728340
vt 0.462606 0.727787
vt 0.464037 0.730013
vt 0.465977 0.733427
vt 0.464885 0.735427
vt 0.463767 0.732595
vt 0.465331 0.736822
vt 0.463567 0.731622
vt 0.533015 0.861030
vt 0.528781 0.860447
vt 0.530131 0.864549
vt 0.530881 0.856491
vt 0.531355 0.865489
vt 0.534491 0.861890
vt 0.526887 0.856207
vt 0.527647 0.863272
vt 0.528726 0.864638
vt 0.526403 0.862717
vt 0.525618 0.860881
vt 0.526164 0.858016
vt 0.536721 0.859365
vt 0.468862 0.749484
vt 0.466293 0.747780
vt 0.466377 0.748286
vt 0.467102 0.749259
vt 0.467253 0.750763
vt 0.470042 0.751312
vt 0.469399 0.753101
vt 0.469928 0.750509
vt 0.463993 0.748347
vt 0.465755 0.751317
vt 0.467367 0.753944
vt 0.471307 0.756222
vt 0.464995 0.721450
vt 0.464829 0.720767
vt 0.463109 0.721688
vt 0.462921 0.720778
vt 0.464423 0.724210
vt 0.465870 0.723530
vt 0.464627 0.728363
vt 0.464023 0.722561
vt 0.465068 0.754195
vt 0.464674 0.751874
vt 0.466630 0.753166
vt 0.463722 0.724297
vt 0.465564 0.722267
vt 0.463941 0.725445
vt 0.463960 0.747882
vt 0.467324 0.729442
vt 0.468962 0.731820
vt 0.464679 0.727808
vt 0.468861 0.731404
vt 0.465570 0.729689
vt 0.468613 0.734441
vt 0.465745 0.749335
vt 0.459061 0.781790
vt 0.459779 0.802539
vt 0.459863 0.804904
vt 0.459175 0.785141
vt 0.459751 0.801754
vt 0.459456 0.793305
vt 0.459271 0.787929
vt 0.459472 0.793767
vt 0.459704 0.800426
vt 0.459315 0.789211
vt 0.458776 0.773334
vt 0.458807 0.774253
vt 0.459830 0.803985
vt 0.489859 0.811437
vt 0.490517 0.812575
vt 0.493013 0.812944
vt 0.492379 0.807917
vt 0.492492 0.807826
vt 0.490244 0.811723
vt 0.495164 0.807698
vt 0.493132 0.810665
vt 0.494834 0.807444
vt 0.490710 0.812847
vt 0.492924 0.813826
vt 0.497867 0.810534
vt 0.497474 0.813438
vt 0.460224 0.765039
vt 0.460206 0.763084
vt 0.462560 0.806586
vt 0.461784 0.810371
vt 0.461888 0.813254
vt 0.462269 0.795070
vt 0.460502 0.773340
vt 0.461874 0.784919
vt 0.461843 0.811999
vt 0.460939 0.786261
vt 0.460749 0.780687
vt 0.461206 0.794016
vt 0.461693 0.807861
vt 0.529650 0.858487
vt 0.526305 0.855364
vt 0.526229 0.858659
vt 0.525366 0.858400
vt 0.526985 0.861113
vt 0.527069 0.853356
vt 0.527847 0.860249
vt 0.525730 0.856066
vt 0.499012 0.806119
vt 0.499163 0.808047
vt 0.496863 0.805659
vt 0.504007 0.807601
vt 0.498517 0.806656
vt 0.503584 0.806797
vt 0.496949 0.812909
vt 0.499654 0.812986
vt 0.502654 0.810875
vt 0.503507 0.809186
vt 0.592808 0.531743
vt 0.588217 0.538940
vt 0.588077 0.539594
vt 0.592974 0.532605
vt 0.590410 0.541266
vt 0.605476 0.579748
vt 0.598681 0.549994
vt 0.597732 0.577716
vt 0.594369 0.536410
vt 0.588024 0.579111
vt 0.613173 0.625620
vt 0.612434 0.624340
vt 0.615779 0.621909
vt 0.615986 0.622776
vt 0.613896 0.614147
vt 0.608878 0.593579
vt 0.610395 0.618277
vt 0.610344 0.599562
vt 0.598719 0.597518
vt 0.603627 0.617616
vt 0.594111 0.535248
vt 0.585780 0.562762
vt 0.596633 0.544739
vt 0.581263 0.552818
vt 0.580933 0.565246
vt 0.599718 0.607532
vt 0.614994 0.618664
vt 0.603411 0.571398
vt 0.597228 0.579381
vt 0.580859 0.579665
vt 0.580881 0.588312
vt 0.586239 0.595329
vt 0.580956 0.598184
vt 0.581140 0.610011
vt 0.587471 0.612386
vt 0.580948 0.566627
vt 0.581636 0.543142
vt 0.601569 0.621008
vt 0.581399 0.548416
vt 0.581728 0.542511
vt 0.581694 0.543940
vt 0.584418 0.618966
vt 0.581248 0.618567
vt 0.581152 0.616172
vt 0.580876 0.599332
vt 0.585356 0.616338
vt 0.553521 0.602831
vt 0.553331 0.610777
vt 0.554511 0.593339
vt 0.555736 0.583825
vt 0.553636 0.612485
vt 0.553687 0.602899
vt 0.553489 0.615268
vt 0.459452 0.491871
vt 0.461213 0.485382
vt 0.459485 0.489932
vt 0.461044 0.486468
vt 0.459778 0.492442
vt 0.459359 0.494423
vt 0.461493 0.488154
vt 0.464758 0.479439
vt 0.558504 0.553826
vt 0.556735 0.572716
vt 0.557625 0.559726
vt 0.580730 0.586609
vt 0.597048 0.573565
vt 0.589612 0.566365
vt 0.599269 0.554858
vt 0.558814 0.552734
vt 0.580750 0.575909
vt 0.555956 0.581021
vt 0.557629 0.569465
vt 0.554660 0.591882
vt 0.558917 0.553838
vt 0.558344 0.559956
vt 0.466992 0.735881
vt 0.471686 0.736523
vt 0.471154 0.735844
vt 0.467543 0.732415
vt 0.469038 0.734202
vt 0.465755 0.732520
vt 0.464910 0.730942
vt 0.468204 0.735019
vt 0.462924 0.731477
vt 0.463785 0.734862
vt 0.464875 0.736583
vt 0.472383 0.739772
vt 0.467083 0.750025
vt 0.472789 0.754060
vt 0.465694 0.724813
vt 0.464362 0.726914
vt 0.467043 0.757209
vt 0.465055 0.731428
vt 0.469008 0.724611
vt 0.468395 0.726339
vt 0.467362 0.722205
vt 0.466053 0.734327
vt 0.468842 0.723927
vt 0.468423 0.726290
vt 0.462756 0.730786
vt 0.464215 0.732819
vt 0.466077 0.735332
vt 0.468792 0.735891
vt 0.600823 0.620456
vt 0.472127 0.728869
vt 0.609379 0.623288
vt 0.609476 0.623840
vt 0.471595 0.729530
vt 0.471495 0.728278
vt 0.469804 0.729461
vt 0.467500 0.728924
vt 0.472618 0.739591
vt 0.466378 0.738958
vt 0.464850 0.738342
vt 0.471066 0.739817
vt 0.469530 0.739997
vt 0.492385 0.780119
vt 0.495290 0.787243
vt 0.496036 0.784173
vt 0.491154 0.779002
vt 0.491169 0.779490
vt 0.484620 0.782489
vt 0.478875 0.782885
vt 0.483299 0.800267
vt 0.473516 0.783857
vt 0.474509 0.805198
vt 0.491185 0.779437
vt 0.490127 0.754648
vt 0.488711 0.757775
vt 0.487882 0.782818
vt 0.490626 0.800192
vt 0.492957 0.791536
vt 0.487404 0.808726
vt 0.486815 0.799901
vt 0.510317 0.819697
vt 0.506778 0.810402
vt 0.499845 0.801958
vt 0.483049 0.769613
vt 0.478757 0.763906
vt 0.477157 0.773097
vt 0.506264 0.803765
vt 0.485902 0.782701
vt 0.475770 0.815443
vt 0.487478 0.764879
vt 0.468327 0.763951
vt 0.468299 0.777805
vt 0.485796 0.766729
vt 0.479135 0.759770
vt 0.477878 0.735780
vt 0.477869 0.740706
vt 0.464715 0.728123
vt 0.467168 0.742654
vt 0.478074 0.743827
vt 0.478420 0.746287
vt 0.483856 0.741013
vt 0.481465 0.745903
vt 0.466678 0.742061
vt 0.480832 0.753289
vt 0.482355 0.739235
vt 0.477035 0.736540
vt 0.464418 0.730839
vt 0.479296 0.732786
vt 0.491357 0.782225
vt 0.484142 0.752815
vt 0.489788 0.774510
vt 0.492829 0.789133
vt 0.485110 0.768799
vt 0.494941 0.783847
vt 0.482346 0.751802
vt 0.480720 0.763783
vt 0.474831 0.767088
vt 0.470071 0.782960
vt 0.468285 0.775035
vt 0.473047 0.792616
vt 0.477104 0.752145
vt 0.477999 0.732596
vt 0.499948 0.786343
vt 0.517379 0.794530
vt 0.512134 0.797455
vt 0.519892 0.848057
vt 0.532451 0.843359
vt 0.517744 0.815619
vt 0.537586 0.821761
vt 0.515349 0.835842
vt 0.532581 0.835305
vt 0.502797 0.825711
vt 0.494477 0.829329
vt 0.524531 0.827249
vt 0.502495 0.837962
vt 0.485221 0.804628
vt 0.480786 0.783342
vt 0.475997 0.815446
vt 0.525700 0.806306
vt 0.508952 0.802099
vt 0.509892 0.844218
vt 0.519580 0.802811
vt 0.538081 0.809172
vt 0.541405 0.799494
vt 0.518720 0.795088
vt 0.515910 0.791821
vt 0.499703 0.786625
vt 0.533903 0.796593
vt 0.502945 0.831977
vt 0.499967 0.834792
vt 0.501863 0.837698
vt 0.463758 0.765903
vt 0.461146 0.748328
vt 0.464004 0.756081
vt 0.459637 0.752229
vt 0.459467 0.741348
vt 0.506850 0.797565
vt 0.504079 0.839782
vt 0.492286 0.773966
vt 0.486594 0.753472
vt 0.488556 0.749590
vt 0.489924 0.749166
vt 0.495942 0.780935
vt 0.496808 0.781473
vt 0.468158 0.760414
vt 0.466905 0.746627
vt 0.498506 0.789177
vt 0.488541 0.754072
vt 0.488271 0.754618
vt 0.489151 0.749958
vt 0.496350 0.781759
vt 0.492187 0.775399
vt 0.554776 0.861800
vt 0.556046 0.865722
vt 0.555695 0.855838
vt 0.555129 0.847689
vt 0.555051 0.828840
vt 0.465133 0.783452
vt 0.466504 0.813755
vt 0.478230 0.825060
vt 0.475600 0.826146
vt 0.477985 0.824249
vt 0.473849 0.825912
vt 0.470472 0.823171
vt 0.463533 0.816453
vt 0.463302 0.814164
vt 0.477415 0.822225
vt 0.467802 0.795013
vt 0.468360 0.808736
vt 0.494655 0.804683
vt 0.489056 0.816451
vt 0.497993 0.794438
vt 0.496214 0.799692
s 0
usemtl Material.001
f 60/1/1 54/2/1 58/3/1
f 154/2/2 379/1/2 420/4/2
f 54/2/3 57/5/3 58/3/3
f 152/6/4 436/7/4 23/3/4
f 344/3/5 353/5/5 362/6/5
f 43/8/6 54/9/6 61/10/6
f 527/11/7 520/8/7 371/10/7
f 485/10/8 313/9/8 209/12/8
f 258/4/9 186/12/9 487/2/9
f 54/12/10 60/4/10 61/10/10
f 408/13/11 544/14/11 440/15/11
f 319/15/12 511/14/12 349/16/12
f 257/17/13 214/13/13 204/15/13
f 369/18/14 96/19/14 158/13/14
f 62/13/15 500/17/15 460/18/15
f 538/16/16 24/20/16 441/15/16
f 493/21/17 388/22/17 389/23/17
f 409/23/18 538/22/18 441/24/18
f 461/25/19 193/21/19 275/23/19
f 297/20/20 157/16/20 83/25/20
f 472/16/21 303/21/21 365/25/21
f 503/26/22 311/27/22 488/28/22
f 314/27/23 35/29/23 288/28/23
f 59/27/24 324/26/24 315/30/24
f 304/31/25 380/30/25 352/32/25
f 201/30/26 467/31/26 327/27/26
f 311/28/27 503/29/27 153/33/27
f 11/34/28 389/35/28 543/19/28
f 216/19/29 496/18/29 543/34/29
f 395/33/30 327/35/30 402/34/30
f 54/33/31 50/36/31 53/28/31
f 539/36/32 398/33/32 401/34/32
f 54/24/6 43/37/6 45/23/6
f 151/19/33 67/35/33 462/38/33
f 32/13/34 85/19/34 361/38/34
f 52/35/35 453/33/35 526/38/35
f 257/29/36 27/27/36 13/38/36
f 472/33/37 397/29/37 246/38/37
f 42/14/38 326/13/38 182/38/38
f 245/24/39 409/22/39 441/38/39
f 475/39/40 546/24/40 447/38/40
f 183/22/41 428/21/41 88/38/41
f 487/16/42 365/14/42 258/38/42
f 79/21/43 346/16/43 221/38/43
f 218/40/44 260/41/44 91/38/44
f 269/42/45 159/40/45 442/38/45
f 40/41/46 30/39/46 427/38/46
f 522/37/47 545/24/47 285/8/47
f 447/24/48 546/39/48 336/8/48
f 422/43/49 412/42/49 424/38/49
f 375/31/50 293/44/50 266/38/50
f 47/27/51 99/31/51 384/38/51
f 267/44/52 343/45/52 488/38/52
f 525/46/53 371/43/53 450/38/53
f 398/45/54 539/46/54 306/38/54
f 150/47/55 184/34/55 406/48/55
f 92/34/56 453/18/56 52/48/56
f 463/34/57 205/47/57 385/49/57
f 53/28/58 50/36/58 51/49/58
f 306/49/59 447/36/59 501/34/59
f 50/48/6 54/18/6 48/50/6
f 96/51/60 18/15/60 533/52/60
f 54/15/6 45/20/6 46/52/6
f 54/15/1 46/51/1 48/50/1
f 149/18/61 546/17/61 494/50/61
f 374/50/62 351/17/62 500/15/62
f 517/32/63 431/53/63 451/54/63
f 34/53/64 253/32/64 331/55/64
f 469/54/65 457/56/65 490/32/65
f 268/7/66 445/6/66 97/54/66
f 57/6/67 54/56/67 56/54/67
f 196/32/68 361/30/68 188/55/68
f 83/57/69 26/26/69 270/28/69
f 482/58/70 2/28/70 185/49/70
f 346/57/71 475/28/71 474/58/71
f 123/55/72 17/30/72 144/57/72
f 494/30/73 44/26/73 149/57/73
f 395/52/74 538/20/74 201/25/74
f 257/43/75 274/5/75 27/2/75
f 480/43/76 413/46/76 338/6/76
f 352/2/77 295/42/77 304/43/77
f 208/12/78 449/40/78 75/2/78
f 2/40/79 5/42/79 430/2/79
f 83/6/80 8/5/80 199/43/80
f 210/45/81 342/44/81 39/32/81
f 132/32/82 203/44/82 2/31/82
f 289/56/83 301/45/83 145/32/83
f 199/6/84 26/46/84 83/45/84
f 481/45/85 537/56/85 271/6/85
f 387/59/86 14/23/86 267/60/86
f 539/23/87 401/37/87 474/60/87
f 508/23/88 531/59/88 98/61/88
f 97/25/89 442/61/89 159/52/89
f 358/61/90 345/25/90 381/23/90
f 416/60/91 471/37/91 334/8/91
f 321/9/92 90/41/92 97/12/92
f 455/41/93 221/40/93 346/12/93
f 18/41/94 95/9/94 529/8/94
f 285/8/95 457/11/95 502/60/95
f 349/8/96 85/39/96 536/41/96
f 74/62/97 115/62/97 116/62/97
f 115/62/98 74/62/98 114/62/98
f 116/62/99 76/62/99 74/62/99
f 322/62/100 408/62/100 440/62/100
f 76/62/101 116/62/101 77/62/101
f 435/62/102 31/62/102 502/62/102
f 337/62/103 253/62/103 1/62/103
f 74/62/104 73/62/104 113/62/104
f 514/62/105 416/62/105 334/62/105
f 114/62/106 74/62/106 113/62/106
f 80/62/107 120/62/107 121/62/107
f 502/62/108 31/62/108 87/62/108
f 121/62/109 81/62/109 80/62/109
f 425/62/110 72/62/110 15/62/110
f 275/62/111 281/62/111 404/62/111
f 118/62/112 78/62/112 77/62/112
f 12/62/113 196/62/113 188/62/113
f 80/62/114 78/62/114 118/62/114
f 80/62/115 119/62/115 120/62/115
f 119/62/116 80/62/116 118/62/116
f 65/62/117 105/62/117 106/62/117
f 105/62/118 65/62/118 63/62/118
f 106/62/119 66/62/119 65/62/119
f 328/62/120 514/62/120 87/62/120
f 442/62/121 198/62/121 356/62/121
f 103/62/122 63/62/122 81/62/122
f 216/62/123 354/62/123 496/62/123
f 530/62/124 221/62/124 362/62/124
f 63/62/125 104/62/125 105/62/125
f 104/62/126 63/62/126 103/62/126
f 70/62/127 110/62/127 111/62/127
f 110/62/128 70/62/128 109/62/128
f 111/62/129 71/62/129 70/62/129
f 252/62/130 249/62/130 377/62/130
f 71/62/131 111/62/131 73/62/131
f 108/62/132 68/62/132 66/62/132
f 264/62/133 296/62/133 342/62/133
f 70/62/134 68/62/134 108/62/134
f 274/62/135 257/62/135 204/62/135
f 109/62/136 70/62/136 108/62/136
f 296/62/137 37/62/137 146/62/137
f 315/62/138 382/62/138 372/62/138
f 406/62/139 298/62/139 198/62/139
f 117/62/140 77/62/140 116/62/140
f 498/62/141 27/62/141 274/62/141
f 342/62/142 296/62/142 146/62/142
f 113/62/143 73/62/143 112/62/143
f 381/62/144 296/62/144 41/62/144
f 281/62/145 240/62/145 88/62/145
f 84/62/146 37/62/146 202/62/146
f 194/62/147 465/62/147 189/62/147
f 306/62/148 501/62/148 276/62/148
f 358/62/149 212/62/149 364/62/149
f 102/62/150 81/62/150 121/62/150
f 296/62/151 264/62/151 41/62/151
f 118/62/152 77/62/152 117/62/152
f 144/62/153 215/62/153 123/62/153
f 132/62/154 430/62/154 228/62/154
f 357/62/155 364/62/155 33/62/155
f 18/62/156 357/62/156 521/62/156
f 191/62/157 10/62/157 432/62/157
f 91/62/158 372/62/158 218/62/158
f 470/62/159 387/62/159 243/62/159
f 107/62/160 66/62/160 106/62/160
f 240/62/161 513/62/161 486/62/161
f 371/62/162 520/62/162 450/62/162
f 103/62/163 81/62/163 102/62/163
f 303/62/164 352/62/164 365/62/164
f 450/62/165 155/62/165 525/62/165
f 18/62/166 529/62/166 533/62/166
f 182/62/167 263/62/167 483/62/167
f 6/62/168 145/62/168 515/62/168
f 353/62/169 158/62/169 534/62/169
f 112/62/170 73/62/170 111/62/170
f 259/62/171 499/62/171 224/62/171
f 266/62/172 390/62/172 375/62/172
f 108/62/173 66/62/173 107/62/173
f 520/62/174 527/62/174 216/62/174
f 342/62/175 217/62/175 264/62/175
f 327/62/176 467/62/176 264/62/176
f 139/62/177 33/62/177 41/62/177
f 41/62/178 264/62/178 467/62/178
f 250/62/179 260/62/179 428/62/179
f 126/62/180 168/62/180 167/62/180
f 278/62/181 228/62/181 438/62/181
f 423/62/182 224/62/182 396/62/182
f 133/62/183 172/62/183 171/62/183
f 524/62/184 160/62/184 211/62/184
f 459/62/185 343/62/185 243/62/185
f 505/62/186 431/62/186 517/62/186
f 332/62/187 157/62/187 432/62/187
f 522/62/188 334/62/188 545/62/188
f 99/62/189 10/62/189 361/62/189
f 141/62/190 163/62/190 162/62/190
f 334/62/191 471/62/191 545/62/191
f 474/62/192 202/62/192 346/62/192
f 126/62/193 167/62/193 166/62/193
f 97/62/194 49/62/194 268/62/194
f 400/62/195 319/62/195 24/62/195
f 262/62/196 458/62/196 535/62/196
f 159/62/197 321/62/197 97/62/197
f 189/62/198 8/62/198 47/62/198
f 142/62/199 425/62/199 15/62/199
f 372/62/200 91/62/200 518/62/200
f 137/62/201 178/62/201 177/62/201
f 327/62/202 264/62/202 217/62/202
f 141/62/203 162/62/203 181/62/203
f 212/62/204 358/62/204 381/62/204
f 445/62/205 406/62/205 198/62/205
f 425/62/206 205/62/206 247/62/206
f 11/62/207 543/62/207 496/62/207
f 520/62/208 389/62/208 450/62/208
f 206/62/209 330/62/209 349/62/209
f 133/62/210 173/62/210 172/62/210
f 494/62/211 207/62/211 79/62/211
f 389/62/212 292/62/212 256/62/212
f 137/62/213 177/62/213 176/62/213
f 506/62/214 513/62/214 240/62/214
f 284/62/215 474/62/215 478/62/215
f 472/62/216 487/62/216 187/62/216
f 130/62/217 169/62/217 168/62/217
f 511/62/218 395/62/218 402/62/218
f 128/62/219 130/62/219 168/62/219
f 467/62/220 139/62/220 41/62/220
f 128/62/221 168/62/221 126/62/221
f 171/62/222 131/62/222 133/62/222
f 212/62/223 33/62/223 364/62/223
f 131/62/224 171/62/224 130/62/224
f 130/62/225 170/62/225 169/62/225
f 170/62/226 130/62/226 171/62/226
f 122/62/227 164/62/227 163/62/227
f 164/62/228 122/62/228 165/62/228
f 324/62/229 417/62/229 382/62/229
f 185/62/230 370/62/230 4/62/230
f 122/62/231 163/62/231 141/62/231
f 525/62/232 155/62/232 476/62/232
f 485/62/233 209/62/233 390/62/233
f 126/62/234 166/62/234 125/62/234
f 125/62/235 165/62/235 122/62/235
f 165/62/236 125/62/236 166/62/236
f 140/62/237 179/62/237 178/62/237
f 179/62/238 140/62/238 180/62/238
f 138/62/239 140/62/239 178/62/239
f 537/62/240 410/62/240 156/62/240
f 138/62/241 178/62/241 137/62/241
f 386/62/242 435/62/242 502/62/242
f 331/62/243 499/62/243 34/62/243
f 141/62/244 181/62/244 140/62/244
f 213/62/245 221/62/245 455/62/245
f 180/62/246 140/62/246 181/62/246
f 134/62/247 174/62/247 173/62/247
f 491/62/248 124/62/248 386/62/248
f 133/62/249 134/62/249 173/62/249
f 399/62/250 145/62/250 307/62/250
f 124/62/251 435/62/251 386/62/251
f 176/62/252 136/62/252 137/62/252
f 233/62/253 524/62/253 25/62/253
f 136/62/254 176/62/254 134/62/254
f 134/62/255 175/62/255 174/62/255
f 175/62/256 134/62/256 176/62/256
f 428/63/257 404/64/257 88/65/257
f 158/11/258 371/64/258 534/66/258
f 499/67/259 236/65/259 34/64/259
f 221/68/260 403/65/260 79/69/260
f 508/65/261 486/67/261 531/69/261
f 530/70/262 49/66/262 251/64/262
f 426/71/263 69/72/263 541/73/263
f 404/72/264 281/71/264 88/74/264
f 100/75/265 67/73/265 62/72/265
f 513/70/266 506/73/266 87/66/266
f 203/73/267 185/75/267 2/66/267
f 49/76/268 97/77/268 147/78/268
f 298/79/269 249/78/269 356/77/269
f 424/77/270 350/76/270 533/80/270
f 525/81/271 530/80/271 534/82/271
f 98/81/272 393/77/272 340/80/272
f 207/83/273 494/78/273 546/84/273
f 463/85/274 418/68/274 3/86/274
f 421/68/275 184/69/275 150/86/275
f 418/85/276 463/86/276 1/84/276
f 546/79/277 149/84/277 336/78/277
f 330/83/278 361/84/278 85/86/278
f 526/87/279 453/74/279 192/71/279
f 423/88/280 396/89/280 286/90/280
f 455/89/281 364/91/281 213/90/281
f 304/92/282 295/90/282 376/58/282
f 281/92/283 506/58/283 240/93/283
f 87/88/284 506/90/284 328/92/284
f 250/89/285 376/80/285 295/91/285
f 235/76/286 238/78/286 237/94/286
f 377/78/287 501/7/287 252/94/287
f 478/76/288 474/94/288 401/80/288
f 326/80/289 42/95/289 316/91/289
f 350/95/290 156/80/290 533/94/290
f 407/96/291 442/97/291 439/98/291
f 84/96/292 339/99/292 37/97/292
f 227/51/293 235/98/293 229/97/293
f 226/87/293 235/98/293 227/74/293
f 465/98/294 93/51/294 189/74/294
f 235/99/293 231/100/293 229/97/293
f 423/101/295 265/93/295 244/102/295
f 231/101/296 234/92/296 232/93/296
f 442/103/297 356/102/297 336/93/297
f 502/99/298 87/102/298 522/100/298
f 325/102/299 451/103/299 507/100/299
f 313/79/300 485/77/300 535/104/300
f 439/84/301 251/79/301 49/104/301
f 186/77/302 39/81/302 146/104/302
f 532/82/303 308/105/303 35/104/303
f 156/81/304 355/82/304 533/104/304
f 332/85/305 47/84/305 8/104/305
f 351/63/306 374/106/306 460/64/306
f 183/106/307 94/70/307 443/64/307
f 194/63/308 189/65/308 273/104/308
f 498/68/309 194/85/309 27/104/309
f 540/65/310 92/68/310 52/104/310
f 360/107/311 536/108/311 348/104/311
f 508/109/312 94/107/312 88/104/312
f 317/108/313 469/110/313 230/104/313
f 154/106/314 492/63/314 537/104/314
f 295/110/315 352/106/315 303/104/315
f 24/111/316 160/109/316 441/104/316
f 13/112/317 384/113/317 257/104/317
f 544/105/318 427/112/318 30/104/318
f 249/113/319 298/114/319 325/104/319
f 350/115/320 464/111/320 413/104/320
f 511/114/321 319/115/321 400/104/321
f 223/70/293 235/106/293 226/73/293
f 378/113/322 540/101/322 394/102/322
f 231/101/296 235/113/296 234/92/296
f 215/114/323 19/113/323 370/102/323
f 243/99/324 343/115/324 470/102/324
f 494/114/325 403/102/325 44/115/325
f 144/112/326 157/92/326 297/113/326
f 544/82/327 30/89/327 312/105/327
f 150/89/328 406/82/328 145/80/328
f 529/88/329 523/105/329 422/89/329
f 184/112/330 517/105/330 298/92/330
f 247/105/331 352/88/331 380/92/331
f 362/108/332 534/107/332 530/71/332
f 313/107/333 417/87/333 209/71/333
f 487/108/334 186/71/334 339/73/334
f 347/110/335 21/73/335 148/106/335
f 14/110/336 387/108/336 470/73/336
f 2/87/337 482/107/337 12/98/337
f 335/96/338 454/111/338 49/99/338
f 344/115/339 213/99/339 364/111/339
f 364/111/340 455/96/340 358/98/340
f 428/109/341 183/98/341 250/107/341
f 506/109/342 491/111/342 328/98/342
f 241/116/343 235/69/343 242/117/343
f 399/69/344 525/116/344 476/86/344
f 32/67/345 196/117/345 309/69/345
f 367/64/346 366/11/346 368/117/346
f 235/67/347 223/64/347 242/117/347
f 320/83/348 503/118/348 488/78/348
f 158/7/349 527/78/349 371/118/349
f 238/83/350 235/86/350 239/118/350
f 161/119/351 532/86/351 35/116/351
f 235/86/352 241/119/352 239/118/352
f 427/120/353 190/121/353 40/122/353
f 204/121/354 214/120/354 39/123/354
f 59/123/355 326/120/355 316/124/355
f 510/125/356 191/126/356 17/127/356
f 516/121/357 355/123/357 378/128/357
f 430/129/358 459/130/358 228/124/358
f 481/129/359 271/131/359 324/132/359
f 19/131/360 297/120/360 363/122/360
f 326/129/361 518/133/361 246/130/361
f 469/130/362 386/133/362 457/134/362
f 282/133/363 75/129/363 449/132/363
f 337/135/364 433/126/364 473/125/364
f 23/136/365 528/137/365 152/138/365
f 146/138/366 39/139/366 342/136/366
f 17/137/367 432/136/367 157/140/367
f 194/141/368 273/140/368 13/142/368
f 379/140/369 154/141/369 316/137/369
f 248/143/370 155/144/370 388/145/370
f 153/137/371 503/146/371 446/147/371
f 433/147/372 385/138/372 286/137/372
f 386/146/373 502/137/373 457/141/373
f 540/148/374 378/143/374 92/145/374
f 183/142/375 15/143/375 279/148/375
f 370/120/376 278/129/376 320/124/376
f 530/149/377 251/150/377 221/151/377
f 2/150/378 12/149/378 5/152/378
f 251/152/379 149/149/379 221/126/379
f 444/149/380 397/153/380 478/154/380
f 62/150/381 151/152/381 500/155/381
f 219/150/382 257/156/382 384/151/382
f 21/157/383 319/158/383 349/128/383
f 284/158/384 84/156/384 202/159/384
f 393/150/385 152/160/385 528/156/385
f 295/156/386 260/160/386 250/159/386
f 189/160/387 47/150/387 273/155/387
f 263/153/388 182/149/388 401/151/388
f 317/153/389 328/123/389 469/124/389
f 275/123/390 197/153/390 281/157/390
f 197/157/391 506/153/391 281/151/391
f 413/129/392 272/120/392 495/131/392
f 402/123/393 217/157/393 36/128/393
f 300/154/394 293/161/394 333/126/394
f 373/149/395 218/154/395 458/126/395
f 412/154/396 148/153/396 497/124/396
f 9/154/397 360/130/397 348/161/397
f 377/161/398 249/130/398 127/134/398
f 538/130/399 190/154/399 201/124/399
f 139/162/400 95/163/400 521/164/400
f 524/163/401 441/162/401 160/165/401
f 525/162/402 399/164/402 280/166/402
f 452/167/403 75/166/403 437/168/403
f 286/167/404 55/162/404 265/166/404
f 148/169/405 412/165/405 427/162/405
f 279/164/406 72/170/406 376/171/406
f 18/164/407 521/163/407 95/170/407
f 1/166/408 199/164/408 93/171/408
f 149/168/409 251/166/409 82/172/409
f 528/166/410 23/171/410 277/172/410
f 36/173/411 210/167/411 29/168/411
f 397/174/412 84/175/412 478/176/412
f 319/176/413 160/175/413 24/177/413
f 534/174/414 371/176/414 525/178/414
f 405/179/415 480/178/415 156/180/415
f 245/179/416 489/174/416 409/178/416
f 405/177/417 350/175/417 413/181/417
f 465/182/418 418/183/418 93/184/418
f 354/183/419 52/170/419 195/184/419
f 443/181/420 94/185/420 340/177/420
f 492/186/421 355/181/421 410/175/421
f 462/178/422 67/176/422 448/187/422
f 537/170/423 481/163/423 316/188/423
f 444/189/424 246/140/424 397/136/424
f 187/136/425 84/190/425 397/189/425
f 191/140/426 188/189/426 10/191/426
f 519/189/427 385/192/427 504/193/427
f 524/191/428 233/189/428 151/193/428
f 208/190/429 75/136/429 366/139/429
f 329/142/430 485/191/430 266/143/430
f 6/140/431 289/191/431 145/142/431
f 93/191/432 8/193/432 189/143/432
f 517/193/433 195/194/433 377/144/433
f 21/143/434 536/193/434 360/144/434
f 472/193/435 365/192/435 487/194/435
f 314/171/436 528/183/436 277/182/436
f 448/171/437 22/170/437 25/183/437
f 92/172/438 378/171/438 420/182/438
f 12/188/439 188/163/439 5/195/439
f 429/165/440 314/195/440 288/163/440
f 373/170/441 262/188/441 428/184/441
f 488/142/442 343/148/442 459/146/442
f 37/146/443 296/141/443 345/142/443
f 18/148/444 369/147/444 357/146/444
f 98/195/445 531/184/445 393/188/445
f 272/148/446 208/145/446 366/147/446
f 456/196/447 270/197/447 26/198/447
f 329/199/448 266/200/448 208/201/448
f 424/196/449 412/202/449 200/197/449
f 504/202/450 340/203/450 393/204/450
f 196/202/451 16/204/451 309/197/451
f 501/201/452 377/205/452 526/199/452
f 283/206/453 437/196/453 300/199/453
f 326/199/454 444/196/454 182/198/454
f 298/207/455 356/206/455 198/199/455
f 442/200/456 251/199/456 439/208/456
f 507/199/457 484/198/457 325/208/457
f 7/209/458 91/210/458 411/211/458
f 460/209/459 100/212/459 62/213/459
f 143/212/460 526/209/460 294/211/460
f 153/213/461 359/214/461 387/209/461
f 369/213/462 158/215/462 357/216/462
f 383/214/463 471/213/463 416/216/463
f 348/211/464 309/217/464 308/212/464
f 485/218/465 28/214/465 535/219/465
f 274/210/466 225/209/466 498/214/466
f 4/214/467 19/216/467 363/219/467
f 299/216/468 436/220/468 152/221/468
f 385/219/469 519/216/469 286/221/469
f 64/207/470 269/222/470 442/223/470
f 222/204/471 299/224/471 486/225/471
f 346/197/472 358/204/472 455/225/472
f 310/198/473 391/197/473 249/226/473
f 47/208/474 384/198/474 13/226/474
f 509/197/475 505/225/475 517/226/475
f 7/227/476 246/224/476 518/204/476
f 23/228/477 435/229/477 305/202/477
f 357/202/478 33/196/478 521/228/478
f 517/203/479 325/202/479 298/229/479
f 139/204/480 201/203/480 529/227/480
f 96/229/481 527/227/481 158/203/481
f 489/226/482 245/230/482 462/208/482
f 277/205/483 305/231/483 101/232/483
f 443/199/484 15/205/484 183/232/484
f 160/207/485 347/199/485 408/232/485
f 145/206/486 301/207/486 255/223/486
f 500/232/487 233/222/487 22/207/487
f 1/201/488 253/233/488 291/231/488
f 483/230/489 379/234/489 42/200/489
f 399/200/490 515/208/490 145/230/490
f 94/201/491 98/200/491 340/233/491
f 190/205/492 523/201/492 529/231/492
f 221/200/493 44/234/493 403/233/493
f 518/235/494 91/236/494 7/132/494
f 372/131/495 313/235/495 458/132/495
f 149/236/496 44/235/496 221/237/496
f 361/158/497 10/238/497 188/239/497
f 196/132/498 482/236/498 16/240/498
f 423/235/499 244/241/499 259/237/499
f 3/121/500 418/241/500 225/122/500
f 157/241/501 332/239/501 83/237/501
f 346/239/502 345/121/502 358/128/502
f 285/241/503 502/131/503 522/122/503
f 212/131/504 381/241/504 41/235/504
f 443/238/505 142/158/505 15/159/505
f 228/160/506 459/242/506 243/159/506
f 15/242/507 72/160/507 279/240/507
f 99/240/508 47/160/508 432/155/508
f 11/156/509 496/157/509 542/151/509
f 19/157/510 144/156/510 297/158/510
f 270/236/511 456/242/511 129/240/511
f 314/158/512 161/239/512 35/128/512
f 296/239/513 381/238/513 345/237/513
f 395/236/514 400/238/514 538/242/514
f 271/242/515 537/238/515 156/159/515
f 527/238/516 394/236/516 354/237/516
f 453/239/517 92/241/517 420/121/517
f 497/215/518 148/243/518 360/244/518
f 139/245/519 467/243/519 201/215/519
f 143/243/520 501/246/520 526/244/520
f 4/210/521 363/214/521 185/218/521
f 546/211/522 475/210/522 207/218/522
f 293/213/523 282/245/523 449/215/523
f 123/215/524 510/244/524 17/220/524
f 487/216/525 339/215/525 187/220/525
f 501/217/526 447/247/526 336/245/526
f 474/245/527 284/213/527 202/212/527
f 129/245/528 479/212/528 482/217/528
f 31/218/529 435/219/529 23/211/529
f 378/246/530 355/243/530 492/248/530
f 526/243/531 192/245/531 263/248/531
f 204/249/532 186/211/532 258/219/532
f 464/250/533 200/249/533 497/221/533
f 149/219/534 82/221/534 336/249/534
f 28/248/535 9/245/535 535/247/535
f 240/251/536 486/250/536 508/220/536
f 294/250/537 276/221/537 143/220/537
f 421/251/538 255/220/538 542/244/538
f 219/246/539 214/252/539 257/244/539
f 161/252/540 314/251/540 277/244/540
f 336/253/541 249/254/541 252/255/541
f 429/256/542 393/253/542 528/255/542
f 404/257/543 428/256/543 461/255/543
f 299/258/544 222/259/544 31/260/544
f 520/261/545 216/256/545 543/257/545
f 477/260/546 219/259/546 99/262/546
f 215/263/547 370/264/547 123/265/547
f 341/265/548 338/266/548 368/263/548
f 135/267/549 322/265/549 524/264/549
f 236/268/550 86/267/550 34/269/550
f 267/267/551 488/264/551 311/269/551
f 510/270/552 5/271/552 191/272/552
f 16/259/553 479/261/553 434/257/553
f 456/253/554 429/273/554 288/254/554
f 193/259/555 101/257/555 275/274/555
f 10/273/556 99/275/556 432/276/556
f 306/276/557 302/275/557 398/277/557
f 394/278/558 516/268/558 378/269/558
f 202/270/559 345/260/559 346/271/559
f 363/279/560 270/270/560 129/272/560
f 1/270/561 463/258/561 337/260/561
f 345/280/562 202/268/562 37/281/562
f 527/268/563 96/278/563 394/281/563
f 330/266/564 85/279/564 349/263/564
f 539/282/565 475/283/565 447/262/565
f 469/282/566 490/262/566 471/274/566
f 182/284/567 478/285/567 401/286/567
f 75/283/568 452/285/568 366/284/568
f 300/286/569 415/287/569 283/284/569
f 147/274/570 97/288/570 90/282/570
f 442/255/571 82/289/571 251/257/571
f 267/278/572 470/269/572 343/290/572
f 309/289/573 348/291/573 32/257/573
f 33/274/574 212/257/574 41/291/574
f 433/291/575 286/288/575 396/274/575
f 511/284/576 206/262/576 349/283/576
f 213/292/577 344/289/577 362/255/577
f 418/293/578 465/292/578 225/255/578
f 263/276/579 302/254/579 526/273/579
f 328/259/580 491/274/580 386/262/580
f 261/276/581 272/293/581 413/254/581
f 273/293/582 47/255/582 13/254/582
f 504/294/583 385/287/583 340/286/583
f 89/286/584 310/295/584 249/294/584
f 407/294/585 64/295/585 442/296/585
f 28/296/586 329/297/586 261/298/586
f 422/296/587 523/298/587 427/294/587
f 354/286/588 540/285/588 52/299/588
f 275/300/589 101/286/589 197/299/589
f 9/299/590 28/285/590 360/301/590
f 420/301/591 378/283/591 154/302/591
f 11/285/592 290/283/592 292/301/592
f 31/295/593 513/286/593 87/300/593
f 329/297/594 208/296/594 272/303/594
f 471/304/595 383/297/595 230/303/595
f 276/303/596 294/296/596 302/305/596
f 254/305/597 49/295/597 147/300/597
f 359/296/598 243/295/598 387/305/598
f 387/283/599 311/282/599 153/302/599
f 38/306/600 322/307/600 440/308/600
f 464/307/601 424/306/601 200/309/601
f 274/309/602 204/306/602 258/310/602
f 408/309/603 211/311/603 160/312/603
f 210/307/604 214/309/604 219/313/604
f 88/291/605 240/289/605 508/314/605
f 436/282/606 299/288/606 31/315/606
f 438/302/607 243/282/607 359/315/607
f 521/315/608 33/288/608 139/316/608
f 484/316/609 287/291/609 325/314/609
f 528/288/610 314/291/610 429/316/610
f 320/317/611 278/297/611 503/304/611
f 442/318/612 336/280/612 82/281/612
f 200/319/613 412/320/613 497/318/613
f 456/318/614 26/320/614 429/280/614
f 252/314/615 501/289/615 336/321/615
f 20/317/616 262/322/616 535/319/616
f 439/317/617 49/319/617 454/318/617
f 249/275/618 325/319/618 287/277/618
f 515/320/619 399/319/619 476/275/619
f 433/319/620 337/322/620 385/277/620
f 360/281/621 28/297/621 261/317/621
f 292/317/622 389/318/622 11/281/622
f 183/289/623 88/292/623 94/321/623
f 448/277/624 100/322/624 374/323/624
f 380/324/625 425/277/625 247/323/625
f 480/323/626 405/322/626 413/325/626
f 142/325/627 385/317/627 205/304/627
f 415/322/628 426/317/628 283/325/628
f 38/276/629 440/277/629 462/324/629
f 148/292/630 544/293/630 347/326/630
f 72/321/631 304/292/631 376/326/631
f 479/326/632 456/293/632 288/327/632
f 197/327/633 305/276/633 491/324/633
f 486/293/634 299/276/634 531/327/634
f 463/328/635 3/329/635 247/139/635
f 357/328/636 344/139/636 364/138/636
f 203/139/637 132/329/637 228/190/637
f 230/329/638 416/330/638 317/192/638
f 266/330/639 293/194/639 449/192/639
f 435/328/640 124/138/640 305/147/640
f 512/331/641 417/332/641 271/333/641
f 205/334/642 425/331/642 142/333/642
f 96/333/643 355/332/643 516/335/643
f 421/336/644 496/337/644 184/338/644
f 95/332/645 139/339/645 529/335/645
f 245/340/646 524/184/646 151/195/646
f 464/341/647 350/162/647 424/167/647
f 373/169/648 260/162/648 218/341/648
f 529/173/649 422/341/649 533/167/649
f 478/342/650 182/343/650 444/181/650
f 272/184/651 366/344/651 367/182/651
f 377/340/652 195/165/652 526/169/652
f 415/344/653 414/173/653 69/172/653
f 161/172/654 193/182/654 532/344/654
f 39/340/655 186/195/655 204/165/655
f 192/341/656 420/340/656 483/169/656
f 205/168/657 463/172/657 247/173/657
f 72/345/658 380/331/658 304/334/658
f 1/346/659 26/179/659 199/347/659
f 544/346/660 148/348/660 427/179/660
f 458/177/661 313/185/661 535/176/661
f 339/338/662 84/349/662 187/336/662
f 250/187/663 183/176/663 376/185/663
f 339/348/664 186/174/664 146/179/664
f 96/186/665 516/350/665 394/351/665
f 123/347/666 370/179/666 320/180/666
f 211/350/667 408/186/667 322/348/667
f 448/348/668 38/175/668 462/174/668
f 348/175/669 85/348/669 32/186/669
f 129/336/670 185/352/670 363/337/670
f 340/353/671 385/333/671 142/354/671
f 25/334/672 38/333/672 448/353/672
f 305/333/673 277/335/673 23/354/673
f 444/331/674 326/345/674 246/349/674
f 411/349/675 295/355/675 303/331/675
f 151/352/676 233/334/676 500/353/676
f 185/353/677 129/354/677 482/337/677
f 265/352/678 86/353/678 244/337/678
f 219/345/679 29/336/679 210/349/679
f 93/345/680 199/334/680 8/352/680
f 387/336/681 267/345/681 311/352/681
f 31/356/682 222/272/682 513/287/682
f 36/272/683 217/271/683 342/287/683
f 441/294/684 524/356/684 245/287/684
f 220/290/685 389/298/685 256/278/685
f 519/290/686 504/356/686 55/294/686
f 489/271/687 312/284/687 40/287/687
f 412/350/688 422/346/688 427/357/688
f 201/192/689 327/190/689 395/329/689
f 305/350/690 124/348/690 491/346/690
f 293/284/691 323/260/691 333/262/691
f 101/271/692 305/260/692 197/284/692
f 306/298/693 539/290/693 447/294/693
f 1/358/694 93/359/694 418/356/694
f 245/358/695 151/356/695 462/290/695
f 389/264/696 520/359/696 543/358/696
f 370/269/697 203/358/697 278/290/697
f 20/358/698 348/269/698 308/264/698
f 409/359/699 40/264/699 190/263/699
f 430/281/700 5/278/700 510/297/700
f 325/278/701 517/298/701 451/297/701
f 352/359/702 247/272/702 365/356/702
f 531/359/703 152/263/703 393/279/703
f 297/272/704 83/359/704 270/279/704
f 331/189/705 253/190/705 473/192/705
f 367/347/706 368/360/706 338/346/706
f 545/361/707 457/351/707 285/350/707
f 5/362/708 188/360/708 191/347/708
f 490/360/709 545/357/709 471/346/709
f 448/357/710 67/361/710 100/350/710
f 317/363/711 416/362/711 514/347/711
f 21/180/712 347/178/712 319/187/712
f 348/181/713 536/343/713 85/185/713
f 522/342/714 87/186/714 514/351/714
f 334/180/715 522/363/715 514/347/715
f 400/342/716 24/181/716 538/186/716
f 84/343/717 284/187/717 478/185/717
f 313/332/718 372/331/718 382/364/718
f 480/364/719 512/331/719 271/355/719
f 271/339/720 156/332/720 480/364/720
f 512/365/721 341/366/721 375/337/721
f 146/366/722 37/338/722 339/337/722
f 307/339/723 406/367/723 445/335/723
f 504/365/724 429/337/724 26/354/724
f 184/343/725 496/180/725 517/187/725
f 55/368/726 291/365/726 265/354/726
f 20/367/727 535/368/727 9/335/727
f 272/368/728 261/354/728 329/335/728
f 430/369/729 510/370/729 459/371/729
f 228/372/730 243/369/730 438/371/730
f 405/373/731 156/372/731 350/371/731
f 27/374/732 194/375/732 13/376/732
f 389/375/733 220/377/733 493/378/733
f 460/370/734 374/369/734 100/379/734
f 472/379/735 187/369/735 397/380/735
f 363/380/736 297/381/736 270/379/736
f 318/382/737 426/383/737 415/384/737
f 195/379/738 496/384/738 354/370/738
f 143/384/739 276/379/739 501/382/739
f 479/375/740 16/378/740 482/376/740
f 499/385/741 331/386/741 396/376/741
f 210/374/742 36/376/742 342/386/742
f 291/387/743 253/388/743 34/389/743
f 255/390/744 421/391/744 145/392/744
f 19/393/745 4/389/745 370/388/745
f 393/386/746 429/394/746 504/374/746
f 457/378/747 545/395/747 490/385/747
f 17/376/748 191/378/748 432/385/748
f 332/383/749 8/382/749 83/394/749
f 417/385/750 313/383/750 382/386/750
f 198/394/751 442/386/751 97/383/751
f 468/396/752 333/382/752 392/379/752
f 333/392/753 414/391/753 415/397/753
f 483/398/754 263/392/754 192/397/754
f 377/344/755 127/397/755 517/391/755
f 132/390/756 2/374/756 430/399/756
f 390/391/757 209/400/757 512/344/757
f 22/377/758 448/392/758 374/398/758
f 423/401/759 259/402/759 224/403/759
f 495/404/760 338/405/760 413/406/760
f 468/407/761 541/328/761 414/408/761
f 356/408/762 249/409/762 336/410/762
f 541/328/763 69/409/763 414/408/763
f 379/374/764 483/394/764 420/399/764
f 298/410/765 406/396/765 184/381/765
f 277/408/766 193/410/766 161/381/766
f 517/407/767 127/408/767 509/380/767
f 324/381/768 271/396/768 417/379/768
f 55/408/769 1/381/769 291/380/769
f 42/399/770 379/396/770 316/410/770
f 510/399/771 320/400/771 459/391/771
f 183/391/772 279/390/772 376/399/772
f 414/399/773 333/394/773 468/396/773
f 29/400/774 477/399/774 206/410/774
f 404/394/775 461/382/775 275/396/775
f 433/366/776 396/365/776 331/404/776
f 94/411/777 508/412/777 98/330/777
f 465/368/778 498/367/778 225/405/778
f 374/404/779 500/365/779 22/368/779
f 368/405/780 323/404/780 341/368/780
f 326/329/781 59/328/781 518/411/781
f 445/413/782 268/194/782 280/330/782
f 341/145/783 323/144/783 375/413/783
f 388/413/784 450/144/784 389/194/784
f 260/330/785 373/329/785 428/411/785
f 293/330/786 300/412/786 437/413/786
f 426/405/787 318/339/787 69/364/787
f 353/342/788 534/401/788 362/403/788
f 432/351/789 47/414/789 332/401/789
f 438/343/790 153/342/790 446/403/790
f 203/341/791 228/410/791 278/409/791
f 348/340/792 20/341/792 9/409/792
f 280/342/793 307/351/793 445/401/793
f 419/364/794 193/402/794 461/405/794
f 287/405/795 89/367/795 249/339/795
f 40/364/796 409/355/796 489/403/796
f 307/403/797 145/402/797 406/364/797
f 210/355/798 39/349/798 214/403/798
f 420/413/799 192/412/799 453/362/799
f 452/415/800 466/416/800 392/417/800
f 193/418/801 419/419/801 532/415/801
f 449/417/802 208/420/802 266/415/802
f 315/421/803 372/419/803 518/422/803
f 315/418/804 324/415/804 382/420/804
f 315/416/805 518/415/805 59/419/805
f 531/392/806 299/375/806 152/374/806
f 244/374/807 86/390/807 259/392/807
f 254/392/808 335/377/808 49/375/808
f 1/423/809 55/424/809 26/425/809
f 7/423/810 472/426/810 246/424/810
f 207/422/811 475/427/811 346/421/811
f 29/360/812 206/362/812 36/428/812
f 25/357/813 22/360/813 233/428/813
f 253/362/814 337/412/814 473/428/814
f 440/363/815 312/180/815 489/413/815
f 329/362/816 28/363/816 485/413/816
f 135/357/817 524/428/817 211/414/817
f 541/427/818 466/422/818 426/423/818
f 463/406/819 385/421/819 337/427/819
f 203/429/820 370/430/820 185/431/820
f 300/361/821 333/357/821 415/414/821
f 328/351/822 386/361/822 469/414/822
f 338/240/823 495/432/823 367/132/823
f 35/433/824 434/132/824 288/432/824
f 18/388/825 96/387/825 369/434/825
f 440/393/826 544/388/826 312/434/826
f 213/387/827 362/435/827 221/434/827
f 21/436/828 360/433/828 148/432/828
f 398/135/829 302/437/829 263/438/829
f 20/438/830 532/439/830 419/135/830
f 306/387/831 276/438/831 302/437/831
f 410/433/832 355/436/832 156/440/832
f 293/437/833 375/435/833 323/387/833
f 219/135/834 477/439/834 29/441/834
f 263/418/835 401/442/835 398/443/835
f 72/443/836 425/419/836 380/418/836
f 224/426/837 499/443/837 396/442/837
f 49/328/838 280/407/838 268/411/838
f 25/442/839 524/444/839 322/426/839
f 452/443/840 437/426/840 466/423/840
f 366/445/841 452/446/841 392/431/841
f 519/135/842 55/441/842 286/447/842
f 154/445/843 378/431/843 492/430/843
f 19/423/844 215/422/844 144/443/844
f 532/422/845 20/419/845 308/443/845
f 465/448/846 194/449/846 498/450/846
f 144/451/847 17/452/847 157/453/847
f 512/454/848 480/452/848 341/451/848
f 30/455/849 40/436/849 312/432/849
f 182/456/850 483/432/850 42/457/850
f 496/432/851 421/456/851 542/455/851
f 323/450/852 368/454/852 392/451/852
f 225/458/853 274/459/853 258/460/853
f 466/459/854 283/458/854 426/461/854
f 525/459/855 49/461/855 530/462/855
f 219/430/856 384/452/856 99/454/856
f 368/454/857 366/445/857 392/430/857
f 59/432/858 316/240/858 481/457/858
f 330/463/859 206/448/859 477/451/859
f 390/453/860 512/463/860 375/451/860
f 265/448/861 291/434/861 86/449/861
f 294/451/862 526/448/862 302/450/862
f 434/434/863 479/435/863 288/449/863
f 209/393/864 417/434/864 512/448/864
f 353/447/865 357/464/865 158/155/865
f 3/155/866 258/135/866 365/447/866
f 75/240/867 282/155/867 293/464/867
f 529/463/868 201/393/868 190/448/868
f 322/464/869 135/457/869 211/240/869
f 394/465/870 540/417/870 354/466/870
f 468/467/871 392/465/871 466/466/871
f 308/401/872 309/467/872 35/402/872
f 97/419/873 445/421/873 198/416/873
f 468/467/874 466/466/874 541/402/874
f 309/468/875 16/467/875 434/401/875
f 410/417/876 537/465/876 492/469/876
f 357/469/877 353/420/877 344/417/877
f 196/470/878 32/469/878 361/465/878
f 153/414/879 438/468/879 359/401/879
f 510/468/880 123/465/880 320/467/880
f 471/417/881 230/416/881 469/466/881
f 319/427/882 347/471/882 160/472/882
f 31/460/883 23/472/883 436/471/883
f 261/472/884 497/406/884 360/427/884
f 488/406/885 459/472/885 320/404/885
f 317/460/886 514/404/886 328/472/886
f 422/471/887 424/427/887 533/423/887
f 495/406/888 272/405/888 367/416/888
f 222/416/889 486/421/889 513/406/889
f 472/466/890 7/416/890 303/402/890
f 361/423/891 330/425/891 99/471/891
f 154/416/892 537/405/892 316/402/892
f 247/420/893 3/469/893 365/473/893
f 408/474/894 347/475/894 544/412/894
f 461/411/895 262/474/895 20/412/895
f 340/428/896 142/412/896 443/476/896
f 278/414/897 446/428/897 503/468/897
f 525/412/898 280/475/898 49/476/898
f 440/372/899 489/373/899 462/475/899
f 327/369/900 217/372/900 402/474/900
f 20/380/901 419/369/901 461/474/901
f 395/407/902 511/380/902 400/411/902
f 411/474/903 91/372/903 260/475/903
f 145/380/904 421/474/904 150/411/904
f 249/428/905 391/476/905 127/468/905
f 539/371/906 474/477/906 475/478/906
f 322/373/907 38/371/907 25/478/907
f 523/478/908 190/477/908 427/465/908
f 190/473/909 538/418/909 409/420/909
f 536/477/910 21/470/910 349/465/910
f 266/429/911 485/453/911 390/452/911
f 286/475/912 265/373/912 423/478/912
f 261/476/913 464/475/913 497/478/913
f 79/468/914 207/476/914 346/478/914
f 338/452/915 341/430/915 480/429/915
f 151/478/916 62/465/916 67/468/916
f 388/479/917 155/480/917 450/134/917
f 433/481/918 331/479/918 473/132/918
f 438/134/919 446/133/919 278/479/919
f 36/127/920 511/134/920 402/480/920
f 411/133/921 260/132/921 295/479/921
f 517/132/922 496/433/922 195/482/922
f 526/161/923 195/134/923 52/127/923
f 464/440/924 261/483/924 413/433/924
f 499/127/925 259/126/925 236/161/925
f 527/482/926 354/481/926 216/132/926
f 293/482/927 437/433/927 75/483/927
f 101/425/928 193/484/928 277/458/928
f 479/485/929 129/486/929 456/487/929
f 333/485/930 323/488/930 392/486/930
f 34/489/931 86/490/931 291/491/931
f 411/487/932 303/489/932 7/485/932
f 434/490/933 35/492/933 309/491/933
f 196/493/934 12/488/934 482/485/934
f 458/471/935 218/458/935 372/460/935
f 283/458/936 466/471/936 437/425/936
f 197/494/937 491/444/937 506/495/937
f 504/485/938 26/495/938 55/493/938
f 3/444/939 225/493/939 258/495/939
f 458/483/940 262/440/940 373/445/940
f 262/418/941 461/496/941 428/442/941
f 355/217/942 96/211/942 533/442/942
f 403/496/943 494/217/943 79/442/943
f 481/135/944 324/125/944 59/437/944
f 259/211/945 86/497/945 236/442/945
f 511/498/946 36/446/946 206/248/946
f 330/217/947 477/496/947 99/247/947
f 280/499/948 399/496/948 307/418/948
