# Blender 5.1.1
# www.blender.org
mtllib low_poly_wolf_animated0013.mtl
o Wolf
v -0.164595 3.299280 -2.168617
v -0.513392 1.283339 -1.973929
v 0.014465 3.813344 -1.044938
v -0.492070 1.491437 -2.365044
v -0.707722 1.442227 -1.739098
v 0.139178 4.135749 3.011678
v 0.572511 3.798394 0.245502
v -0.551072 2.858376 -2.021165
v 0.233966 2.340128 -0.188622
v -0.774404 2.205136 -1.295744
v 0.313118 4.107867 2.737396
v -0.571847 1.589904 -1.534752
v -0.614807 3.238186 -1.090467
v -0.853172 0.102157 -2.660086
v 0.682406 2.981454 -1.784259
v -0.297391 2.106261 -1.398413
v -0.849381 2.145618 -1.758473
v -0.104867 3.117481 1.697434
v -0.561049 1.523156 -2.414681
v 0.324849 2.469295 -0.713363
v -0.151536 2.297575 0.355522
v -0.433512 1.024423 2.137607
v 0.454699 1.623774 -2.056610
v -0.600632 2.097812 0.567558
v -0.284475 0.994268 1.903903
v -0.115229 2.861820 -2.232794
v -0.482473 3.326928 -1.237797
v 0.332586 2.303654 0.337037
v -0.540161 2.960490 -0.209335
v -0.408355 2.131766 0.893301
v 0.520570 1.370993 -2.626961
v -0.420366 2.512650 -0.960971
v -0.475085 3.584809 1.387220
v -0.158823 1.984475 -3.117694
v 0.137648 2.195044 -1.525887
v -0.572468 2.933934 0.217217
v -0.227014 4.246799 0.878209
v -0.279713 1.258664 1.850989
v -0.435185 3.785580 0.283981
v -0.504330 2.192830 0.936966
v -0.448098 3.678069 1.187213
v 0.615435 4.030856 1.072657
v 0.453996 4.701700 2.527363
v -0.383350 5.072243 1.982337
v 0.433180 4.731278 2.538612
v 0.417243 4.739243 2.545692
v -0.790658 2.758051 -1.573634
v 0.381956 4.737716 2.559367
v -0.120383 4.526005 2.540539
v 0.353464 4.714340 2.568099
v 0.345397 4.697001 2.569454
v 0.655200 4.282201 2.070431
v 0.345490 4.659333 2.565486
v 0.353642 4.642693 2.560551
v -0.055675 2.869286 -2.299016
v 0.382244 4.621790 2.547156
v 0.399895 4.619571 2.540006
v 0.417530 4.623317 2.533481
v 0.652773 3.769405 0.962974
v 0.446022 4.646693 2.524749
v 0.454090 4.664036 2.523393
v -0.606323 1.171783 2.090534
v 0.453996 4.711863 2.519998
v -0.093691 4.696085 2.566433
v 0.433180 4.741539 2.530805
v 0.417243 4.749600 2.537761
v -0.497450 1.239374 2.148479
v 0.381956 4.748316 2.551433
v 0.940046 1.081747 2.106853
v 0.353464 4.725233 2.560439
v 0.345397 4.708044 2.561999
v 0.489177 3.196234 -1.577088
v 0.345490 4.670550 2.558523
v 0.353642 4.653879 2.553849
v 0.645022 1.364907 1.571796
v 0.382244 4.632713 2.540849
v 0.399895 4.630323 2.533773
v 0.417530 4.633894 2.527228
v -0.413804 4.791718 1.892819
v 0.446022 4.656997 2.518186
v 0.454090 4.674250 2.516583
v -0.153267 4.947643 2.370121
v -0.452637 2.675523 -2.150530
v -0.115866 4.312684 0.731596
v -0.260443 2.479864 -0.686028
v -0.120526 1.748904 -3.105999
v 0.666298 0.502043 -2.925547
v 0.830145 2.519150 -1.570096
v 0.393820 4.691354 2.544131
v -0.062901 4.662130 2.540570
v 0.715749 3.629691 0.213065
v 0.510448 3.675744 1.807927
v -0.475186 3.074391 -2.019840
v 0.696580 2.720360 -1.962091
v -0.536377 3.085615 1.446483
v 0.139125 3.213906 1.900213
v 0.034994 4.647424 2.635500
v 0.446216 2.661412 -2.163895
v -0.765826 2.758209 -1.176741
v -0.475588 1.100346 2.277732
v 0.571863 1.589940 -1.534620
v 0.471122 4.697001 2.474209
v 0.466935 4.724576 2.478314
v 0.454925 4.749124 2.485231
v 0.436266 4.768284 2.494257
v 0.412784 4.780170 2.504498
v 0.386778 4.783624 2.514962
v 0.360794 4.778289 2.524630
v 0.337375 4.764722 2.532536
v 0.318814 4.744250 2.537905
v 0.306928 4.718885 2.540222
v 0.302879 4.691101 2.539263
v 0.307066 4.663571 2.535148
v 0.319076 4.638997 2.528275
v 0.337736 4.619793 2.519304
v 0.361218 4.607856 2.509095
v 0.387223 4.604341 2.498659
v 0.413207 4.609592 2.489022
v 0.436626 4.623158 2.481102
v 0.455187 4.643664 2.475685
v 0.467073 4.669120 2.473302
v -0.137701 4.708818 2.543209
v -0.637647 1.080380 -2.643883
v 0.558560 0.970712 -2.435598
v -0.116453 4.738765 2.552307
v -0.100111 4.747031 2.557965
v 0.441105 4.686156 2.522520
v -0.063833 4.746197 2.568780
v -0.359955 2.124847 -1.921478
v -0.034429 4.723478 2.575495
v -0.026049 4.706393 2.576413
v -0.558560 0.970712 -2.435597
v -0.025956 4.668804 2.573030
v -0.034251 4.652035 2.569022
v -0.406488 1.341012 1.561532
v -0.063546 4.630524 2.558338
v -0.081677 4.627921 2.552685
v -0.099824 4.631278 2.547559
v -0.639783 3.284849 1.318519
v -0.129228 4.654036 2.540800
v -0.137607 4.671194 2.539834
v 0.470331 3.075381 -2.027689
v 0.650152 5.078201 1.941435
v -0.686754 1.509276 -2.306536
v 0.185552 4.177432 3.140767
v -0.336707 4.129575 0.702056
v -0.079498 4.658506 2.536740
v -0.186483 2.387341 0.655417
v -0.199306 4.975913 2.228448
v 0.261294 4.350291 3.160042
v -0.598673 1.126882 1.932185
v 0.472958 2.135822 -2.170354
v -0.587111 0.060214 -2.674928
v 0.705630 3.591770 1.340411
v 0.027302 4.105961 2.748760
v 0.791960 2.905247 1.290470
v -0.751112 2.338155 -1.946770
v -0.018383 3.590121 2.115674
v -0.062954 4.677286 2.557797
v -0.480679 2.126287 0.370147
v 0.301944 2.107088 -1.400423
v -0.158237 4.693690 2.498938
v -0.154073 4.721322 2.502683
v -0.141851 4.746024 2.508610
v -0.122767 4.765421 2.516111
v -0.098689 4.777606 2.524442
v -0.071975 4.781391 2.532799
v -0.045239 4.776383 2.540370
v -0.021098 4.763110 2.546392
v -0.001915 4.742866 2.550279
v 0.010431 4.717638 2.551661
v 0.014733 4.689876 2.550411
v 0.010568 4.662275 2.546663
v -0.001654 4.637544 2.540779
v -0.020737 4.618107 2.533326
v -0.044815 4.605882 2.525019
v -0.071530 4.602049 2.516684
v -0.098266 4.606982 2.509140
v -0.122407 4.620260 2.503099
v -0.141589 4.640541 2.499167
v -0.153935 4.665854 2.497725
v 0.544267 4.322587 1.056944
v 0.791741 2.759463 -1.577782
v 0.375983 4.292289 2.901781
v -0.454699 1.623775 -2.056610
v -0.203824 4.012281 0.240766
v 0.141256 4.150921 0.515759
v -0.738349 1.795908 -1.412572
v -0.682912 2.979155 -1.776268
v -0.643448 2.454019 0.960170
v -0.821738 1.818594 -1.606470
v 0.686462 4.261164 1.644922
v 0.476657 2.125877 -1.097351
v -0.480462 3.187527 -1.549704
v 0.521299 4.402700 2.427296
v -0.463426 2.123298 -1.091100
v 0.707722 1.442225 -1.739098
v 0.176486 4.649959 2.755285
v -0.352212 2.975528 -2.154811
v 0.111221 2.388014 0.915390
v -0.659550 2.923097 1.185823
v -0.173006 4.488553 1.048972
v -0.500709 1.122414 -2.586358
v -0.491303 3.676990 -0.222517
v 0.153176 3.485297 -1.950528
v -0.467249 2.620289 -0.226453
v -0.310974 4.955652 1.887838
v 0.596092 2.111856 0.384276
v 0.804290 2.509116 0.678692
v -0.576289 3.614067 0.262655
v -0.474121 1.845991 0.629721
v -0.392176 3.839096 1.287964
v -0.359397 4.250878 1.974124
v -0.523580 3.511897 -0.205374
v -0.591279 1.355514 -2.623801
v 0.372676 4.046008 2.377760
v -0.518580 3.411713 0.612862
v 0.660108 2.975549 -0.255304
v -0.465634 3.119141 -0.683850
v 0.182122 4.146645 3.049349
v -0.409326 4.758822 2.041499
v 0.591279 1.355514 -2.623801
v -0.137701 4.697755 2.550889
v -0.019350 1.652893 -3.491060
v -0.188777 3.644153 -1.453757
v -0.116453 4.727613 2.560465
v -0.100111 4.735793 2.566262
v -0.544137 0.440693 -2.698107
v -0.063833 4.734744 2.577092
v 0.845019 0.094368 -2.648312
v -0.034429 4.711754 2.583522
v -0.026049 4.694524 2.584223
v -0.541120 0.960610 1.917206
v -0.025956 4.656856 2.580255
v -0.034251 4.640107 2.575974
v -0.163632 1.654629 -3.484751
v -0.063546 4.618818 2.564882
v -0.081677 4.616360 2.559154
v -0.099824 4.619867 2.554051
v 0.849384 2.145617 -1.758462
v -0.129228 4.642857 2.547622
v -0.137607 4.660090 2.546919
v -0.750286 0.238439 -2.524145
v -0.071027 1.731691 -3.041364
v -0.516635 1.353783 1.853607
v 0.500130 4.133293 0.662524
v 0.195888 3.643951 -1.471512
v 0.057750 4.134836 2.826092
v 0.388282 4.767829 2.592525
v 0.745568 3.100843 -1.013247
v -0.217363 4.819551 2.414390
v 0.452416 4.951322 2.346212
v -0.110025 3.005366 -2.435184
v -0.103857 4.660714 2.539618
v 0.257520 4.133706 2.940961
v 0.222229 4.143553 3.013306
v -0.452730 3.400321 -0.753336
v -0.209393 3.881414 -0.326695
v -0.093209 1.497240 -3.482480
v 0.544145 3.131623 -0.721993
v 0.388092 2.394557 0.633421
v 0.453682 2.678944 -0.717188
v 0.567713 4.634988 1.504887
v -0.457941 3.758657 1.006643
v -0.026968 2.532135 -2.468889
v 0.666061 2.140695 0.326219
v -0.854394 0.106937 -2.664685
v 0.002893 4.551895 2.748857
v -0.076134 4.688776 2.562487
v -0.327923 2.586710 -2.176880
v 0.886022 2.940988 1.126544
v 0.550619 2.196555 0.519838
v -0.692048 2.997761 -1.452054
v -0.329720 3.651837 -0.815789
v 0.738347 1.795965 -1.412452
v 0.699288 5.243463 1.943989
v 0.459165 1.775780 -1.538446
v -0.502281 0.492190 -2.904338
v 0.699528 3.003898 -1.470934
v -0.024764 4.289617 2.917715
v 0.821752 1.818622 -1.606349
v 0.702943 1.354953 1.519033
v 0.781886 1.039695 2.091048
v 0.103996 4.596241 1.167806
v 0.442258 0.201441 -2.772879
v 0.112842 2.708702 -2.495874
v 0.380444 4.679726 2.540472
v 0.007460 2.267497 -1.852610
v 0.181975 4.139394 3.044424
v 0.288523 4.136375 2.816916
v -0.163773 2.710450 -2.486594
v 0.257667 4.140957 2.945885
v 0.795477 1.198488 1.744800
v 0.761668 5.156590 1.961630
v 0.519081 3.412163 -0.789952
v -0.294135 4.031345 0.983963
v -0.588089 2.252110 -2.146874
v 0.319995 4.606602 2.658585
v 0.561049 1.523156 -2.414682
v 0.873887 0.978390 1.863001
v 0.222081 4.136302 3.008382
v 0.676734 4.797870 1.849046
v 0.592410 3.690608 -0.264031
v 0.510932 3.337838 -1.271623
v 0.513392 1.283338 -1.973929
v 0.478371 5.008485 1.974826
v 0.110193 4.348097 3.163584
v 0.009307 2.276566 -1.282269
v -0.244074 2.424089 -1.034364
v 0.411558 4.698856 2.546696
v -0.729230 0.086838 -2.718508
v -0.407087 1.739450 1.374833
v 0.598805 2.516498 0.436186
v 0.238990 2.219539 -1.780398
v 0.689904 3.425627 0.566454
v 0.660758 3.685385 1.143162
v 0.865030 0.244714 -2.653209
v 0.948238 1.080248 2.094877
v -0.358417 2.380723 0.411852
v -0.666298 0.502044 -2.925546
v -0.058288 4.667811 2.546635
v -0.344969 1.352468 1.609720
v 0.834752 1.370764 1.801839
v 0.793332 3.401004 0.763797
v 0.321587 4.599833 2.586032
v 0.486528 4.035956 0.951861
v -0.605991 3.385178 0.817637
v 0.702320 0.432473 -2.761891
v 0.477923 2.329201 0.435636
v -0.375658 2.670099 -0.689648
v -0.068501 2.133696 -3.152769
v -0.696571 2.720658 -1.961206
v 0.928228 1.146068 1.873694
v 0.729230 0.086838 -2.718509
v -0.113917 4.666057 2.546358
v 0.151760 5.026021 2.426723
v -0.009272 3.316530 -2.294877
v 0.731321 2.208358 0.889631
v -0.180023 4.192623 0.631821
v 0.348823 2.908022 -2.165854
v 0.877964 2.098516 0.901803
v -0.503533 3.978054 0.765945
v -0.865030 0.244715 -2.653209
v -0.242059 3.672130 1.837888
v -0.342659 4.318943 1.094027
v -0.319128 4.649496 1.521550
v -0.289509 2.319563 0.465012
v 0.024540 2.355215 -0.671759
v -0.339579 2.432249 -0.199766
v 0.531851 2.659737 1.268718
v -0.600048 1.060793 2.154188
v 0.386421 3.660335 -0.842844
v -0.159667 3.693532 2.020683
v 0.481050 4.170329 2.291868
v 0.367325 3.120899 1.679185
v 0.161515 4.861243 2.648753
v -0.298103 3.385436 1.722820
v -0.464004 4.114307 1.355631
v -0.711723 0.048585 -2.503812
v 0.087782 2.284544 0.268846
v -0.577210 2.552198 -0.988148
v -0.368893 4.276411 2.111208
v -0.472805 2.136061 -2.170484
v -0.530554 3.911938 1.464818
v 0.309173 3.880903 -0.351479
v 0.651857 1.540884 1.609249
v 0.679262 1.753101 1.333218
v 0.749552 1.674741 1.577799
v -0.010065 3.164753 1.827008
v -0.520570 1.370994 -2.626961
v -0.060725 4.033158 2.346931
v 0.725643 2.950146 0.167566
v 0.511960 2.923944 -0.683245
v -0.474413 1.007673 2.218285
v 0.888135 1.582387 1.596873
v 0.652646 3.251606 -1.131693
v 0.521351 4.824060 2.385203
v 0.558841 3.390477 1.689073
v 0.612859 3.844266 1.247199
v 0.379552 3.536636 -1.360764
v -0.411024 4.025544 1.114806
v 0.686570 3.081560 0.520227
v 0.853172 0.102156 -2.660087
v -0.702386 3.086946 -0.970816
v 0.150887 3.300097 -2.173568
v 0.544137 0.440692 -2.698108
v -0.781186 0.010340 -2.602049
v 0.098684 4.139897 2.952206
v 0.205304 4.065531 3.037551
v 0.801439 2.115430 0.513849
v 0.423575 4.697608 2.541219
v 0.731715 1.285403 1.914775
v 0.323834 2.585801 -2.178988
v 0.310921 3.592070 2.103110
v -0.619209 2.952352 0.752769
v 0.018545 1.982396 -3.125319
v 0.324264 4.269759 0.703667
v 0.551932 4.893852 1.735787
v 0.041663 4.127156 3.042862
v -0.600743 2.491461 0.732516
v 0.411690 4.720750 1.473617
v -0.509886 3.066669 0.565932
v -0.493676 5.149452 2.011315
v 0.779520 2.207143 -1.301191
v 0.754763 2.644133 1.151354
v 0.251007 4.404732 3.251371
v -0.106078 4.694682 2.561925
v -0.405772 2.099267 0.422654
v -0.646810 2.079355 0.960212
v 0.779083 3.098750 1.395741
v 0.630043 3.526381 -0.249566
v -0.207463 2.533734 1.126199
v 0.584080 2.384016 0.979657
v 0.946839 1.191300 2.031037
v 0.949753 1.080776 2.089104
v 0.854394 0.106937 -2.664685
v 0.812565 2.970075 0.698099
v -0.163691 3.483508 -1.945053
v 0.459952 2.519983 -0.978186
v 0.765822 3.917761 1.411890
v 0.321870 4.129024 3.031721
v -0.288449 2.649838 1.300151
v -0.027841 1.747787 -3.110061
v 0.122371 2.565031 1.270226
v 0.333496 3.412772 -1.815748
v 0.829246 1.024054 2.168346
v -0.355087 2.372215 1.015634
v 0.779908 2.764338 -1.194489
v 0.191852 2.465039 -2.087216
v -0.642905 1.030620 -2.400697
v 0.420012 4.663676 2.519083
v -0.830147 2.519146 -1.570096
v 0.074651 3.004960 -2.440312
v -0.152278 2.197884 -1.512669
v 0.500709 1.122414 -2.586358
v 0.492070 1.491437 -2.365044
v 0.616213 1.005585 1.869400
v -0.477340 0.188193 -2.578591
v -0.124879 4.682973 2.544690
v -0.353332 1.528253 1.647755
v -0.590832 1.563803 1.653528
v -0.067748 4.765567 2.610134
v 0.546012 2.857595 -2.028325
v 0.409086 4.250698 0.853052
v 0.116759 4.421069 3.222434
v -0.442258 0.201441 -2.772878
v 0.251535 5.063711 2.074111
v -0.278277 1.143771 2.146058
v 0.686411 1.860573 0.585265
v 0.047689 4.039155 2.706120
v 0.395509 4.661209 2.518116
v 0.600786 1.269727 1.817259
v 0.635113 4.256291 1.934413
v -0.121630 4.674088 2.548488
v -0.433874 4.256657 1.689790
v -0.190738 2.463331 -2.081772
v 0.477340 0.188192 -2.578591
v 0.594698 2.633538 -0.267070
v -0.702320 0.432473 -2.761891
v -0.591005 1.062508 2.165503
v 0.604357 2.558896 -1.005880
v -0.403151 1.271143 1.958249
v -0.006001 3.538694 -2.001006
v 0.441339 2.541887 1.101346
v -0.341007 3.407218 -1.798206
v 0.624807 1.155119 2.111463
v -0.631939 3.438944 1.039322
v 0.841055 1.256193 2.097204
v 0.750286 0.238438 -2.524145
v -0.845019 0.094369 -2.648311
v 0.781186 0.010340 -2.602049
v 0.333190 4.021741 0.221838
v -0.032026 2.827386 -2.711319
v 0.038529 4.757635 1.493589
v -0.132562 4.919189 1.732589
v 0.057603 4.127585 2.821167
v -0.429718 2.912673 -0.649004
v 0.369940 4.490290 1.024519
v -0.236096 2.218849 -1.781549
v 0.865210 2.472976 0.902376
v 0.835166 3.454329 0.982570
v -0.458965 1.775717 -1.538547
v 0.689117 4.119925 1.306762
v 0.375024 4.670219 2.529689
v 0.541006 2.392015 0.377426
v 0.686754 1.509276 -2.306536
v 0.060915 4.009057 0.131902
v -0.782513 0.205483 -2.888727
v -0.456474 1.659586 1.623998
v 0.711723 0.048585 -2.503812
v 0.642905 1.030619 -2.400697
v 0.639795 3.426575 1.492558
v 0.139326 4.143001 3.016603
v -0.433976 5.236991 1.988503
v 0.633850 2.144862 0.853377
v 0.413339 4.087893 2.585927
v 0.100806 2.321082 0.621501
v -0.361474 3.528649 -1.335910
v -0.114364 1.601346 -3.966172
v -0.602013 1.061277 2.148547
v 0.486931 4.980028 2.201321
v 0.502280 0.492189 -2.904338
v -0.518866 0.175500 -2.903900
v 0.063030 2.863584 -2.239167
v 0.430516 4.669120 2.525023
v 0.658757 1.046987 -2.503201
v 0.379216 4.664594 2.523273
v 0.751113 2.338154 -1.946769
v 0.438277 4.677235 2.526551
v -0.658757 1.046987 -2.503201
v -0.414657 2.503768 0.474991
v 0.894481 2.559718 0.784804
v 0.637647 1.080379 -2.643883
v 0.782513 0.205482 -2.888728
v 0.098537 4.132646 2.947282
v 0.282524 3.166619 1.815678
v 0.438236 4.528991 2.518644
v 0.673903 3.989722 0.718810
v 0.086925 2.988513 -2.288229
v 0.155927 3.925870 2.357585
v -0.395280 3.420431 1.533212
v 0.518866 0.175500 -2.903901
v -0.519252 2.628739 1.200139
v -0.477527 1.182492 1.793565
v -0.084355 4.085410 2.605892
v 0.684222 4.765294 1.998041
v 0.158254 3.692182 2.184675
v 0.360976 2.125499 -1.920867
v -0.552580 2.890116 1.342068
v -0.208708 4.398814 2.456093
v 0.588048 2.252176 -2.146904
v 0.286037 2.429269 -1.045302
v 0.127643 2.858200 1.514980
v -0.176299 4.166476 2.318098
v 0.474065 2.441993 -0.230659
v -0.094466 2.336696 -0.176543
v 0.868115 3.299745 1.260108
v -0.683794 2.539886 0.845267
v 0.354408 4.933061 1.724866
v 0.443310 3.696939 1.996723
v 0.832639 1.116785 2.227617
v 0.288375 4.129124 2.811991
v 0.290291 4.040823 2.696489
v -0.352204 2.185210 0.554423
v 0.587111 0.060214 -2.674928
v -0.182154 5.013235 2.048901
vn 0.3633 -0.0967 0.9266
vn 0.7292 0.0154 -0.6841
vn 0.3633 -0.0965 0.9266
vn -0.9923 0.0079 -0.1236
vn -0.8325 -0.3637 0.4178
vn 0.3633 -0.0968 0.9266
vn -0.3177 -0.5660 0.7607
vn 0.7613 -0.0483 -0.6466
vn -0.0800 0.9715 -0.2233
vn 0.3633 -0.0965 0.9267
vn 0.9351 -0.3041 -0.1818
vn -0.9193 -0.3888 -0.0611
vn -0.9716 0.1733 -0.1609
vn -0.2140 -0.5514 0.8063
vn -0.8222 0.2391 0.5165
vn -0.9873 -0.1462 -0.0630
vn -0.7270 -0.4887 0.4824
vn 0.9970 0.0736 -0.0257
vn 0.5342 -0.3226 0.7814
vn -0.7076 0.2206 -0.6713
vn 0.5896 0.7783 -0.2159
vn -0.1257 -0.8319 -0.5405
vn -0.1537 -0.9759 -0.1551
vn 0.7937 0.4944 -0.3543
vn 0.8532 0.5047 -0.1319
vn -0.9925 0.0188 -0.1207
vn -0.0269 -0.8896 -0.4559
vn 0.8614 -0.4439 0.2468
vn 0.4301 -0.8976 0.0966
vn -0.8836 0.0957 -0.4584
vn 0.3635 -0.0967 0.9266
vn 0.1867 0.7710 -0.6089
vn -0.5740 0.8050 -0.1501
vn -0.2492 -0.9680 0.0295
vn 0.9882 -0.0790 -0.1309
vn -0.6157 0.7838 -0.0809
vn 0.5071 0.7701 -0.3870
vn 0.6809 0.1273 -0.7212
vn 0.6611 0.6266 0.4126
vn -0.0933 0.9503 -0.2972
vn 0.9869 0.1586 0.0284
vn -0.0116 0.9651 -0.2618
vn -0.9024 -0.4258 -0.0670
vn 0.9733 0.0729 -0.2175
vn -0.1433 -0.5104 0.8479
vn 0.1009 -0.4688 0.8775
vn -0.6090 -0.7664 -0.2044
vn -0.1194 0.9902 0.0720
vn -0.1392 -0.8524 0.5041
vn 0.8936 -0.3321 -0.3021
vn -0.9865 0.1517 0.0617
vn -0.9451 -0.0460 -0.3235
vn -0.4217 -0.8955 0.1422
vn 0.2005 0.9060 -0.3728
vn 0.6725 -0.5999 0.4334
vn 0.9765 -0.1860 -0.1088
vn 0.4185 0.6966 -0.5827
vn 0.2800 0.9538 0.1092
vn -0.2686 -0.7037 0.6578
vn 0.6191 0.7550 0.2161
vn -0.4177 -0.9061 0.0678
vn -0.0386 -0.0085 0.9992
vn -0.7924 0.3647 -0.4889
vn -0.2196 0.1479 0.9643
vn -0.6900 0.6378 0.3421
vn -0.5266 -0.3280 0.7843
vn -0.2237 -0.0251 -0.9743
vn 0.9861 -0.1569 0.0541
vn -0.2637 0.7010 -0.6626
vn -0.3940 0.5399 -0.7438
vn -0.8188 -0.2706 0.5064
vn -0.9872 0.1360 -0.0828
vn -0.8993 0.4371 -0.0110
vn 0.3195 -0.2062 0.9249
vn 0.8861 0.4555 -0.0853
vn -0.7981 -0.5244 -0.2969
vn -0.0635 -0.8502 0.5227
vn -0.6245 0.1983 -0.7554
vn -0.7024 0.6211 -0.3476
vn 0.9574 -0.2739 0.0918
vn 0.2433 -0.9052 0.3484
vn -0.2771 0.0791 -0.9576
vn 0.9942 0.0775 -0.0749
vn -0.3838 -0.6892 -0.6146
vn 0.0417 0.7678 -0.6393
vn 0.7087 0.2178 -0.6710
vn -0.6395 -0.4175 0.6456
vn -0.9392 0.1990 -0.2800
vn 0.3771 -0.6879 -0.6201
vn -0.6989 -0.1733 0.6939
vn -0.9594 0.1917 -0.2067
vn -0.4400 -0.3944 0.8067
vn -0.9413 0.2798 0.1890
vn -0.3471 -0.9262 -0.1472
vn -0.0463 -0.7003 0.7123
vn -0.2798 -0.6159 0.7365
vn -0.2066 -0.6994 0.6842
vn 0.9985 0.0516 -0.0187
vn 0.1153 -0.8178 0.5638
vn -0.9907 0.0592 -0.1222
vn -0.5839 0.4832 -0.6523
vn -0.4121 -0.4271 0.8048
vn 0.3324 -0.8194 -0.4671
vn -0.4120 -0.4265 0.8052
vn 0.8730 -0.3789 0.3071
vn -0.1401 0.3007 -0.9434
vn 0.8728 -0.3796 0.3068
vn 0.7733 0.6305 0.0676
vn 0.9096 -0.1909 0.3690
vn 0.3410 -0.8102 0.4768
vn -0.1826 -0.6065 0.7738
vn 0.6544 -0.6694 0.3517
vn 0.7400 -0.5796 0.3414
vn 0.5556 -0.6794 0.4792
vn 0.5553 0.6481 0.5211
vn 0.8156 0.4319 0.3849
vn 0.5553 0.6481 0.5212
vn 0.9320 0.3587 -0.0527
vn -0.3151 0.4094 0.8562
vn 0.9568 -0.0239 0.2897
vn 0.7492 -0.6622 -0.0131
vn -0.9049 -0.0144 0.4254
vn 0.7228 0.4617 0.5142
vn 0.8717 0.3225 0.3689
vn -0.4144 0.2735 0.8680
vn -0.2820 0.4744 0.8339
vn -0.4144 0.2732 0.8681
vn 0.6471 0.5210 0.5566
vn -0.5082 -0.0808 0.8575
vn 0.2226 0.7325 0.6434
vn -0.6932 0.4624 0.5528
vn -0.2071 0.5668 0.7974
vn -0.8916 0.3718 -0.2586
vn -0.0479 0.5633 0.8248
vn -0.8722 0.4058 0.2731
vn 0.9925 -0.0257 0.1195
vn 0.4711 0.8168 0.3330
vn 0.1156 -0.8180 0.5635
vn -0.8691 0.4906 -0.0631
vn -0.5541 0.7565 0.3473
vn -0.4823 -0.2008 0.8527
vn -0.7431 -0.0596 -0.6665
vn 0.9901 -0.0191 0.1389
vn -0.7953 0.4581 -0.3970
vn -0.7730 0.6234 0.1174
vn -0.7164 0.6884 0.1136
vn -0.7981 -0.0609 -0.5994
vn 0.9426 -0.1466 0.3001
vn -0.8145 0.5120 0.2729
vn 0.3406 -0.8104 0.4767
vn -0.9143 0.1805 -0.3626
vn 0.0566 -0.4419 0.8953
vn -0.9104 -0.2351 0.3404
vn -0.7644 -0.5783 0.2851
vn -0.9842 -0.0210 0.1760
vn 0.9881 0.0245 -0.1517
vn -0.6985 -0.1447 0.7008
vn 0.3408 0.7145 0.6110
vn 0.3941 0.5399 -0.7438
vn -0.4447 -0.8832 0.1490
vn 0.9100 0.0775 0.4074
vn 0.5920 0.7659 -0.2507
vn -0.6190 -0.5480 0.5626
vn -0.2101 -0.6816 0.7009
vn 0.9091 0.3179 -0.2693
vn -0.6401 -0.6336 0.4345
vn -0.6947 -0.4002 0.5976
vn -0.4010 0.0268 0.9157
vn 0.8927 -0.4309 -0.1318
vn 0.4408 -0.7909 -0.4245
vn 0.1494 0.6393 0.7543
vn 0.2460 -0.5749 0.7803
vn -0.9854 -0.0195 0.1689
vn -0.8675 0.4506 -0.2108
vn -0.8816 0.4620 0.0965
vn -0.8365 0.4819 0.2607
vn 0.7897 -0.2265 0.5701
vn -0.0966 0.6384 0.7636
vn 0.8908 0.3643 0.2717
vn 0.9795 -0.1892 0.0689
vn 0.4723 0.0335 0.8808
vn -0.9979 -0.0552 -0.0344
vn -0.5039 0.7162 0.4828
vn -0.4651 -0.0658 0.8828
vn -0.9568 0.1266 -0.2616
vn 0.0269 -0.8896 -0.4559
vn -0.7660 -0.1238 0.6308
vn -0.8755 0.0671 0.4785
vn -0.0104 -0.8379 -0.5457
vn -0.2944 0.8732 -0.3884
vn -0.2997 0.7112 0.6359
vn -0.6987 0.6322 0.3349
vn -0.7222 0.2672 -0.6380
vn 0.7805 -0.5485 -0.2999
vn -0.5426 -0.7386 0.4001
vn -0.8813 -0.0037 -0.4726
vn 0.7218 0.5536 -0.4153
vn 0.9971 0.0094 0.0758
vn -0.2919 -0.8138 0.5025
vn -0.8292 0.4766 -0.2922
vn -0.9138 -0.1575 0.3743
vn -0.9666 -0.2199 -0.1316
vn 0.0140 0.8972 0.4414
vn 0.5437 0.7810 -0.3072
vn 0.6673 -0.5401 0.5128
vn -0.2912 -0.9327 0.2127
vn -0.7928 -0.5692 -0.2180
vn 0.5513 -0.1934 0.8116
vn -0.3368 0.1832 -0.9236
vn 0.8835 -0.0468 0.4662
vn -0.0607 -0.8186 0.5711
vn 0.9849 -0.0609 -0.1622
vn 0.1325 0.8985 -0.4185
vn 0.0754 0.9301 -0.3595
vn 0.1066 0.5650 0.8182
vn -0.8460 -0.0575 -0.5301
vn 0.2630 0.5704 0.7781
vn -0.8360 0.4900 0.2470
vn -0.1796 0.7306 0.6587
vn 0.5751 -0.0719 0.8149
vn -0.7847 0.0140 -0.6197
vn 0.4786 0.2795 0.8324
vn 0.3416 0.4790 0.8087
vn 0.4786 0.2798 0.8323
vn -0.8434 0.3124 0.4371
vn -0.6851 0.4536 0.5700
vn 0.8436 0.1175 -0.5239
vn 0.8956 0.3592 -0.2626
vn -0.9303 -0.0351 0.3650
vn -0.3591 -0.8424 0.4018
vn 0.6643 0.2846 -0.6912
vn -0.5198 0.6420 0.5635
vn -0.7876 0.4225 0.4486
vn -0.5199 0.6420 0.5635
vn -0.5076 -0.6853 0.5222
vn -0.7035 -0.5879 0.3994
vn -0.6163 -0.6766 0.4029
vn 0.9126 -0.1468 0.3815
vn -0.2925 -0.8135 0.5026
vn -0.9801 -0.0913 0.1761
vn -0.8531 0.4573 -0.2512
vn -0.8410 -0.3896 0.3755
vn -0.9601 -0.1274 0.2489
vn -0.8412 -0.3889 0.3758
vn 0.4801 -0.4204 0.7699
vn -0.0566 -0.4419 0.8953
vn 0.4801 -0.4214 0.7694
vn -0.4571 -0.3131 0.8325
vn -0.9591 -0.1042 0.2632
vn -0.0606 -0.8185 0.5713
vn 0.0192 -0.4909 -0.8710
vn 0.2684 -0.6962 0.6658
vn 0.3449 -0.6117 0.7120
vn 0.1112 -0.6990 0.7064
vn 0.9880 -0.0297 0.1515
vn -0.6321 -0.4052 0.6605
vn -0.9827 0.1440 -0.1165
vn -0.9770 -0.2123 -0.0175
vn 0.7005 0.2377 -0.6729
vn -0.7287 0.0527 0.6828
vn 0.6006 -0.4461 0.6636
vn 0.9865 -0.0202 0.1623
vn -0.6249 0.4766 0.6183
vn 0.9866 0.1084 -0.1223
vn 0.9860 -0.1551 0.0612
vn -0.6260 0.2146 0.7497
vn 0.3248 0.2375 0.9155
vn 0.1497 -0.6352 0.7577
vn -0.9378 -0.2645 0.2251
vn 0.1025 0.0326 -0.9942
vn 0.5882 0.4879 -0.6449
vn -0.3967 0.8845 -0.2456
vn 0.9152 0.0171 0.4026
vn -0.4441 0.6923 -0.5687
vn -0.2359 0.9557 0.1761
vn -0.6789 -0.3994 0.6161
vn 0.9783 -0.1158 0.1716
vn 0.9794 -0.1890 0.0714
vn -0.9616 0.1039 0.2540
vn 0.6067 0.7840 -0.1312
vn 0.9898 -0.1195 -0.0771
vn 0.9781 0.1357 -0.1576
vn 0.8275 0.5581 0.0612
vn -0.2872 -0.1011 0.9525
vn 0.7997 0.5233 0.2942
vn 0.0629 0.8855 -0.4603
vn 0.6813 -0.0595 -0.7296
vn 0.3178 -0.4123 0.8538
vn -0.5824 -0.2178 0.7832
vn -0.7330 0.6215 -0.2765
vn -0.2873 -0.1011 0.9525
vn -0.7259 0.5593 -0.4004
vn 0.8262 -0.3571 0.4357
vn -0.2875 -0.1010 0.9524
vn -0.3979 0.7283 0.5580
vn -0.1278 -0.0081 -0.9918
vn 0.3536 0.4694 0.8091
vn 0.9214 -0.3657 -0.1315
vn -0.8334 -0.0385 0.5513
vn -0.6866 0.6324 -0.3586
vn 0.1656 -0.9057 0.3903
vn 0.2779 -0.6785 0.6800
vn -0.7176 0.6548 -0.2374
vn -0.5455 -0.6460 0.5339
vn 0.7097 0.6613 -0.2430
vn -0.6819 0.7289 -0.0610
vn -0.8801 0.4314 -0.1985
vn 0.8665 -0.3576 0.3483
vn -0.1215 -0.9904 -0.0662
vn 0.9570 0.1261 -0.2614
vn 0.7470 -0.0779 0.6603
vn 0.7557 0.2546 0.6034
vn 0.8607 0.3905 -0.3267
vn -0.4520 -0.8021 -0.3903
vn -0.8153 0.5666 0.1195
vn 0.9557 -0.2706 0.1157
vn 0.9273 -0.3703 0.0549
vn -0.2502 -0.7228 0.6442
vn -0.8071 -0.0680 -0.5865
vn 0.7348 -0.3222 0.5969
vn -0.2874 -0.1011 0.9525
vn -0.1971 0.7786 -0.5957
vn -0.7470 -0.0779 0.6603
vn 0.2880 0.0527 0.9562
vn -0.7005 0.2377 -0.6729
vn 0.9500 0.2434 0.1958
vn 0.8471 -0.4090 0.3392
vn -0.3103 -0.4839 0.8183
vn 0.7878 0.4586 0.4113
vn 0.5803 0.7904 -0.1965
vn -0.7667 -0.4035 0.4993
vn 0.7631 0.0135 -0.6462
vn -0.1559 0.9006 -0.4058
vn 0.0820 -0.9521 0.2945
vn -0.8323 -0.4954 0.2486
vn 0.7768 -0.4632 0.4267
vn 0.2166 -0.0505 0.9750
vn -0.8381 -0.2801 0.4681
vn -0.9553 0.2932 -0.0388
vn 0.9959 0.0857 0.0297
vn 0.9881 0.0054 0.1537
vn -0.2873 -0.1009 0.9525
vn 0.2611 -0.9652 0.0169
vn 0.2162 -0.3309 0.9186
vn -0.6965 0.6006 0.3926
vn -0.0681 -0.0966 -0.9930
vn -0.0743 -0.4670 0.8811
vn -0.6702 -0.5644 0.4820
vn -0.2873 -0.1010 0.9525
vn -0.2425 -0.2133 0.9464
vn -0.9780 0.1980 0.0659
vn 0.8261 0.5239 0.2077
vn -0.9898 -0.1195 -0.0771
vn 0.6583 -0.4886 0.5726
vn -0.3092 -0.4689 0.8274
vn 0.9794 0.0417 -0.1974
vn 0.1586 0.3457 -0.9249
vn 0.5524 0.7819 0.2890
vn -0.2549 0.4680 0.8462
vn -0.5007 -0.7649 -0.4053
vn 0.6900 0.4504 -0.5667
vn -0.9098 -0.0588 -0.4108
vn -0.6998 0.6237 -0.3483
vn -0.9370 0.1945 -0.2901
vn -0.7093 0.6474 -0.2789
vn 0.9440 0.3244 -0.0608
vn -0.9353 0.1941 0.2958
vn 0.6090 -0.7664 -0.2044
vn 0.8622 0.1986 -0.4661
vn -0.8908 0.3643 0.2718
vn 0.9427 0.0212 0.3329
vn 0.9211 0.3814 -0.0777
vn 0.1400 0.3007 -0.9434
vn -0.8905 0.0267 0.4541
vn 0.0253 -0.8181 0.5745
vn -0.8047 0.4906 0.3344
vn 0.8101 0.4229 -0.4060
vn -0.9979 -0.0559 -0.0324
vn -0.7680 0.1866 0.6127
vn -0.3922 -0.9155 -0.0892
vn -0.1204 0.8590 -0.4977
vn -0.8671 -0.2951 -0.4014
vn 0.8151 0.2042 0.5421
vn -0.9148 0.4011 -0.0488
vn 0.4897 0.7029 -0.5158
vn 0.5039 0.7162 0.4828
vn 0.8657 -0.3780 0.3282
vn 0.9405 -0.3225 0.1066
vn -0.9370 -0.2944 0.1882
vn -0.9794 -0.0512 0.1953
vn 0.6529 -0.1645 -0.7393
vn 0.9375 -0.1688 -0.3042
vn -0.1834 -0.9410 0.2844
vn 0.1186 -0.9895 -0.0823
vn 0.8316 0.0652 0.5515
vn -0.9624 -0.1439 0.2304
vn -0.6882 0.1040 0.7180
vn -0.9054 -0.3547 -0.2332
vn -0.9435 -0.1641 0.2878
vn -0.9719 -0.0989 -0.2135
vn 0.5653 -0.3323 0.7550
vn 0.6185 -0.7421 0.2583
vn 0.7223 0.6023 -0.3400
vn -0.5020 -0.0125 0.8648
vn -0.5820 0.3051 -0.7538
vn -0.7806 0.5137 0.3562
vn -0.9773 -0.2008 0.0673
vn -0.9971 -0.0006 -0.0756
vn 0.0438 0.8204 -0.5701
vn -0.7911 0.4483 -0.4160
vn -0.7607 -0.6463 0.0610
vn 0.6921 -0.4137 0.5914
vn -0.6699 0.5256 0.5244
vn 0.3143 -0.6579 0.6844
vn -0.6517 0.5846 -0.4833
vn 0.8086 -0.3945 0.4366
vn 0.5962 0.2935 -0.7472
vn 0.5669 -0.0024 0.8238
vn 0.3801 0.8631 0.3326
vn 0.8416 0.5081 0.1831
vn 0.5655 0.7950 -0.2196
vn 0.0445 0.8242 -0.5646
vn -0.9104 -0.1858 0.3698
vn 0.9807 -0.1947 -0.0181
vn -0.7032 -0.1815 -0.6874
vn -0.9980 0.0265 0.0578
vn -0.5959 -0.1352 -0.7916
vn -0.2028 -0.9082 0.3661
vn -0.7818 0.2781 -0.5580
vn 0.7797 0.0621 0.6231
vn -0.0838 -0.9931 -0.0820
vn 0.0340 0.9702 -0.2398
vn -0.7764 -0.5515 -0.3050
vn 0.5341 -0.7254 0.4342
vn 0.8568 -0.0676 0.5112
vn -0.3130 -0.6587 0.6842
vn 0.0347 -0.7777 -0.6276
vn 0.8175 -0.2653 0.5113
vn -0.7981 0.4832 -0.3601
vn -0.8757 0.0365 -0.4814
vn -0.6050 -0.4954 0.6234
vn 0.1218 0.0010 -0.9926
vn -0.9384 -0.3277 -0.1100
vn 0.2661 -0.3853 -0.8836
vn -0.5980 -0.1385 -0.7895
vn -0.1107 -0.8879 0.4464
vn 0.2454 0.0205 -0.9692
vn 0.6984 -0.5867 0.4099
vn 0.8227 0.5001 0.2702
vn -0.0969 -0.9703 0.2217
vn 0.8263 0.0395 -0.5618
vn 0.5924 0.3958 0.7017
vn -0.7858 0.0555 0.6159
vn 0.7857 -0.1090 0.6089
vn 0.7057 0.6523 -0.2764
vn -0.7117 0.3268 0.6218
vn -0.2725 0.1425 0.9516
vn 0.2999 -0.9414 0.1544
vn -0.5920 -0.4604 0.6614
vn 0.3836 -0.6892 -0.6146
vn -0.4035 -0.9061 0.1268
vn 0.4070 -0.9056 -0.1192
vn -0.6167 0.7736 -0.1456
vn 0.6323 0.2065 -0.7467
vn -0.6323 0.2068 -0.7466
vn 0.7288 -0.3632 0.5804
vn -0.0273 -0.5249 0.8507
vn 0.5038 0.7081 -0.4948
vn -0.9627 0.2692 -0.0279
vn 0.3339 -0.4409 0.8331
vn -0.8946 0.4342 -0.1059
vn -0.1395 -0.0527 0.9888
vn 0.6574 0.6392 -0.3992
vn -0.9860 -0.1551 0.0612
vn -0.8919 -0.0323 0.4511
vn 0.4877 0.8701 -0.0705
vn -0.8302 -0.1514 0.5364
vn -0.0413 -0.5095 0.8595
vn -0.2466 0.6124 0.7511
vn -0.7773 -0.4626 0.4263
vn 0.8763 -0.0162 -0.4815
vn 0.5391 -0.1243 -0.8330
vn 0.6810 -0.6248 0.3820
vn -0.1780 -0.9186 0.3529
vn -0.8688 0.2344 -0.4363
vn 0.9518 -0.2164 -0.2173
vn 0.2651 -0.9587 0.1027
vn 0.5795 0.2226 -0.7840
vn -0.6356 -0.4294 0.6416
vn 0.3458 0.1463 0.9268
vn 0.6598 0.6369 -0.3988
vn 0.9480 -0.3130 -0.0576
vn -0.7520 0.1819 0.6336
vn -0.6519 -0.2607 0.7121
vn 0.7297 -0.5364 0.4240
vn 0.7137 -0.6328 0.3004
vn -0.1486 0.9377 -0.3142
vn -0.6056 0.0564 -0.7938
vn -0.9315 0.3108 -0.1890
vn -0.8663 -0.0461 -0.4974
vn -0.9487 0.1583 0.2737
vn 0.7751 0.2710 -0.5707
vn -0.2719 0.7717 0.5749
vn 0.6962 0.7123 -0.0891
vn -0.9846 0.1637 0.0615
vn 0.3910 -0.8428 0.3699
vn -0.6481 0.2413 -0.7223
vn 0.1585 -0.4862 -0.8594
vn -0.3258 -0.9199 -0.2183
vn -0.7425 0.1264 -0.6578
vn -0.8064 -0.0063 -0.5913
vn 0.8719 -0.1320 0.4715
vn 0.2414 -0.3646 0.8993
vn 0.8758 -0.2746 0.3970
vn -0.2112 -0.9714 0.1084
vn -0.9985 0.0539 0.0017
vn 0.7973 0.1904 0.5727
vn 0.9923 0.0076 -0.1235
vn -0.0600 0.9542 -0.2931
vn -0.3226 -0.8347 -0.4463
vn -0.9849 -0.0609 -0.1622
vn -0.0032 0.9382 -0.3461
vn 0.2463 0.9539 0.1717
vn -0.1420 0.8753 -0.4622
vn 0.7711 -0.5570 -0.3084
vn -0.9887 0.0563 -0.1391
vn 0.7912 -0.5702 0.2212
vn 0.9414 0.1963 -0.2743
vn -0.6190 0.7666 -0.1707
vn 0.3193 -0.9264 0.1997
vn -0.2870 0.9172 0.2763
vn 0.3673 -0.9206 -0.1328
vn 0.9190 0.0948 -0.3827
vn -0.2102 0.0474 0.9765
vn -0.0915 -0.9957 0.0135
vn -0.9913 0.0132 -0.1309
vn -0.9000 -0.4355 0.0202
vn 0.3414 0.7090 0.6171
vn -0.1456 -0.4928 -0.8579
vn 0.7871 -0.1165 0.6057
vn 0.1971 0.7786 -0.5957
vn 0.4742 -0.8737 0.1084
vn -0.8352 -0.0529 0.5474
vn -0.0626 0.0832 -0.9946
vn 0.4799 0.6994 0.5296
vn 0.4609 -0.7922 -0.4001
vn -0.9772 -0.1515 0.1489
vn -0.3324 -0.8194 -0.4671
vn -0.9406 -0.3225 0.1065
vn 0.4080 -0.8915 -0.1967
vn -0.0058 -0.7627 -0.6467
vn 0.1759 -0.6034 0.7778
vn -0.9844 -0.0223 0.1745
vn 0.6790 0.7213 -0.1369
vn 0.6484 -0.4554 0.6100
vn -0.6961 0.5860 -0.4148
vn 0.8682 -0.2849 -0.4063
vn -0.4990 0.6939 -0.5191
vn -0.6652 0.5242 -0.5317
vn 0.1196 -0.5110 0.8512
vn -0.8388 -0.5115 -0.1866
vn -0.0323 0.9330 -0.3585
vn 0.7944 -0.0972 0.5995
vn 0.6760 0.6282 -0.3852
vn -0.9861 0.0703 -0.1504
vn 0.2275 -0.9135 0.3373
vn -0.2859 0.8575 0.4277
vn -0.6076 0.5135 0.6060
vn -0.8957 -0.1051 0.4321
vn -0.4028 -0.9065 0.1262
vn -0.9482 0.3169 0.0198
vn 0.9185 0.1840 -0.3500
vn -0.8248 -0.5645 -0.0319
vn -0.9810 -0.1913 -0.0323
vn -0.5667 0.7742 -0.2821
vn 0.9259 -0.3566 -0.1245
vn 0.3092 -0.4689 0.8274
vn -0.6262 -0.7050 0.3330
vn -0.9064 0.4144 -0.0819
vn 0.2329 0.0985 -0.9675
vn 0.1008 -0.5268 0.8440
vn -0.2622 -0.4417 0.8580
vn -0.0353 -0.9536 0.2991
vn -0.2451 -0.6646 0.7059
vn 0.8138 -0.3528 0.4618
vn 0.3133 -0.6588 0.6840
vn 0.1018 -0.9909 -0.0879
vn 0.9373 -0.2304 0.2616
vn 0.9532 0.2067 0.2207
vn 0.7289 0.3286 -0.6006
vn -0.8781 -0.4785 0.0044
vn 0.8323 -0.4954 0.2486
vn 0.4699 0.1611 -0.8679
vn 0.1166 -0.0075 0.9931
vn -0.7944 -0.0972 0.5996
vn 0.0104 -0.8379 -0.5457
vn 0.9696 0.0949 -0.2254
vn 0.1667 -0.8844 0.4360
vn -0.6227 0.7560 -0.2017
vn 0.2631 -0.6522 -0.7109
vn -0.9940 -0.0140 -0.1089
vn 0.9370 0.1945 -0.2901
vn -0.6004 0.6998 -0.3871
vn 0.2196 0.1479 0.9643
vn -0.7123 0.2400 0.6596
vn 0.8239 -0.5610 0.0805
vn -0.7795 -0.5421 -0.3140
vn 0.1278 -0.0081 -0.9918
vn -0.3004 0.7053 0.6421
vn -0.2798 -0.9339 0.2226
vn -0.0117 -0.3524 -0.9358
vn 0.2966 0.9209 0.2531
vn 0.8154 -0.5062 -0.2807
vn -0.8023 -0.0387 0.5957
vn 0.8202 -0.3433 0.4576
vn 0.1055 -0.9944 0.0057
vn 0.5633 0.4692 -0.6801
vn -0.0074 -0.9556 0.2945
vn 0.9143 -0.2844 0.2883
vn 0.9569 0.1449 -0.2517
vn 0.5633 -0.4410 0.6987
vn 0.6009 0.7538 -0.2660
vn 0.3863 -0.6711 0.6327
vn 0.6397 0.5881 -0.4949
vn 0.2215 -0.9205 -0.3220
vn 0.5627 0.5901 0.5789
vn 0.8062 -0.5388 -0.2444
vn 0.7095 0.6187 -0.3373
vn -0.0306 -0.7728 -0.6339
vn 0.0635 -0.8502 0.5227
vn 0.6481 0.2413 -0.7223
vn 0.2297 0.9341 -0.2733
vn -0.8114 -0.0741 0.5798
vn 0.9591 -0.1042 0.2631
vn 0.8957 -0.1051 0.4321
vn 0.9934 -0.0302 -0.1107
vn -0.9574 -0.2739 0.0918
vn 0.9744 0.1615 -0.1561
vn 0.6241 0.5812 -0.5222
vn -0.2003 -0.9597 0.1970
vn 0.9655 -0.1512 0.2121
vn -0.8777 -0.1671 0.4491
vn -0.7622 0.0521 -0.6452
vn 0.1981 -0.8487 0.4904
vn 0.9330 -0.2004 -0.2988
vn -0.2421 -0.4188 0.8752
vn 0.6135 0.5234 -0.5913
vn -0.5829 0.6711 0.4581
vn 0.9231 0.0381 0.3826
vn 0.8531 0.2601 0.4523
vn -0.7203 -0.5295 0.4481
vn -0.7049 0.7055 -0.0731
vn 0.9472 0.2984 -0.1172
vn 0.3911 0.8627 -0.3206
vn 0.8547 0.4451 -0.2672
vn -0.2622 0.1110 -0.9586
vn 0.6673 -0.6887 0.2834
vn 0.8341 -0.5434 -0.0953
vn -0.1687 0.6817 -0.7119
vn 0.8938 0.4124 -0.1763
vn -0.4790 0.8079 -0.3434
vn 0.2821 -0.5499 0.7861
vn -0.7289 0.3286 -0.6006
vn 0.7859 -0.5044 -0.3576
vn 0.3778 0.8634 0.3343
vn 0.9082 -0.0600 -0.4143
vn 0.5466 0.2603 -0.7959
vn 0.9997 -0.0206 -0.0129
vn -0.9861 -0.1568 0.0545
vn 0.8965 0.4055 0.1785
vn 0.9513 0.1971 -0.2370
vn -0.9422 -0.3162 -0.1104
vn 0.9769 -0.2029 0.0676
vn -0.7903 -0.3271 0.5181
vn -0.9891 0.0463 -0.1399
vn -0.6317 0.2265 -0.7414
vn -0.3771 -0.6879 -0.6201
vn 0.0626 0.0831 -0.9946
vn -0.9882 -0.0150 0.1527
vn -0.9632 -0.2523 0.0924
vn 0.6696 0.0840 0.7379
vn 0.3972 -0.4003 -0.8259
vn 0.8178 0.4808 0.3162
vn 0.3151 -0.7151 0.6240
vn -0.9950 0.0438 -0.0897
vn 0.3183 -0.7702 0.5527
vn 0.7091 0.0706 -0.7016
vn -0.0251 -0.8182 0.5744
vn 0.0861 0.9412 -0.3267
vn -0.6536 0.5854 -0.4797
vn -0.4231 0.4293 0.7979
vn 0.3769 -0.9123 0.1600
vn 0.9907 0.0592 -0.1222
vn 0.3662 -0.9240 0.1099
vn 0.1621 -0.0013 0.9868
vn -0.9470 -0.3060 0.0976
vn 0.5747 0.1889 0.7963
vn 0.6601 0.7186 -0.2188
vn 0.1648 0.0357 -0.9857
vn -0.1742 0.0472 -0.9836
vn -0.8325 0.3279 -0.4465
vn -0.8030 0.4604 0.3783
vn -0.7242 -0.6845 0.0841
vn -0.8658 -0.3779 0.3281
vn -0.2999 -0.9414 0.1544
vn 0.3015 0.6742 0.6742
vn 0.9451 -0.0460 -0.3235
vn -0.4322 -0.8176 -0.3804
vn -0.3920 -0.9110 -0.1283
vn 0.0681 -0.0966 -0.9930
vn 0.1257 -0.8319 -0.5405
vn -0.7165 0.2694 -0.6435
vn 0.0315 0.8307 -0.5558
vn 0.9690 -0.1762 0.1730
vn 0.9805 -0.1186 0.1566
vn 0.8624 -0.2493 0.4405
vn -0.9975 0.0486 0.0507
vn -0.4621 0.8436 -0.2736
vn -0.2378 -0.5967 0.7664
vn -0.0297 -0.3645 -0.9307
vn 0.9896 -0.0346 0.1394
vn -0.6077 -0.3980 0.6872
vn 0.3609 -0.9182 -0.1635
vn -0.8087 -0.5591 -0.1826
vn -0.9881 0.0054 0.1537
vn 0.2549 0.4680 0.8462
vn 0.3833 -0.4762 0.7914
vn -0.7310 0.6213 -0.2824
vn -0.5693 -0.2754 0.7746
vn -0.5367 -0.4604 0.7071
vn -0.1048 0.8834 -0.4567
vn -0.1632 0.0385 -0.9858
vn 0.4443 -0.8952 0.0348
vn 0.9560 -0.2526 0.1493
vn 0.8587 -0.2621 0.4403
vn 0.8961 -0.4436 0.0130
vn 0.8437 0.4262 -0.3265
vn -0.9879 -0.0159 0.1543
vn -0.9421 0.2164 -0.2563
vn -0.2433 -0.9621 0.1229
vn 0.6004 0.6998 -0.3871
vn -0.2354 -0.4117 -0.8804
vn -0.5594 -0.7483 0.3566
vn -0.9901 -0.0191 0.1390
vn -0.5635 0.2530 -0.7864
vn 0.8045 -0.0368 -0.5929
vn -0.5974 -0.3663 0.7134
vn 0.5404 0.8190 -0.1928
vn 0.9936 -0.0309 -0.1086
vn 0.9585 0.2657 -0.1035
vn 0.8750 -0.0279 0.4833
vn -0.3183 -0.7702 0.5527
vn 0.6582 0.2867 -0.6961
vn 0.5987 -0.7887 0.1398
vn 0.8991 -0.4197 0.1246
vn -0.0217 -0.4704 0.8822
vn 0.6583 0.4927 0.5692
vn 0.4322 0.7331 0.5251
vn 0.7488 0.3452 0.5658
vn 0.7451 -0.0626 -0.6641
vn 0.9166 0.3337 0.2203
vn -0.7207 -0.5288 0.4483
vn 0.8469 -0.0286 0.5310
vn 0.9840 0.0689 -0.1640
vn -0.6371 -0.3669 0.6779
vn 0.9673 0.1660 0.1918
vn -0.9781 0.1357 -0.1576
vn 0.8919 0.4150 -0.1798
vn 0.3575 0.8855 -0.2968
vn -0.9562 -0.1939 -0.2191
vn 0.6662 -0.2562 0.7004
vn 0.7576 0.3341 -0.5608
vn 0.6184 0.0568 -0.7838
vn -0.6420 0.7341 -0.2213
vn -0.2223 -0.9260 -0.3050
vn 0.6946 0.5427 0.4722
vn 0.7293 0.4754 0.4921
vn -0.9100 0.2880 0.2984
vn -0.6432 0.6102 0.4626
vn -0.7154 -0.5821 0.3865
vn 0.8786 -0.0475 0.4753
vn -0.0735 -0.4920 -0.8675
vn 0.6008 -0.6316 0.4900
vn -0.7706 -0.3585 0.5269
vn -0.9566 0.1545 -0.2471
vn 0.7242 -0.6845 0.0841
vn 0.9801 -0.0913 0.1761
vn 0.3290 -0.9286 -0.1716
vn -0.7865 -0.3432 0.5134
vn 0.2511 -0.2704 0.9294
vn 0.2165 -0.5108 0.8320
vn -0.4554 0.6877 0.5654
vn -0.4156 -0.2984 0.8592
vn -0.7392 0.6358 -0.2220
vn 0.9787 0.1071 0.1754
vn -0.3727 0.8540 0.3631
vn -0.2085 -0.2912 0.9337
vn -0.3002 -0.6593 -0.6893
vn 0.9966 0.0061 0.0820
vn 0.8872 0.0530 -0.4584
vn 0.9960 0.0040 0.0898
vn -0.1610 0.3455 -0.9245
vn -0.6930 -0.6216 0.3652
vn 0.5336 -0.0597 0.8437
vn -0.7443 0.0140 -0.6677
vn 0.6442 0.6471 -0.4078
vn -0.3681 0.7174 -0.5915
vn -0.9750 -0.2046 -0.0866
vn 0.1379 -0.9673 0.2128
vn -0.7286 0.4634 -0.5045
vn 0.7092 0.6183 0.3387
vn 0.4222 -0.8069 -0.4132
vn 0.3083 -0.8268 -0.4705
vn -0.4970 -0.4544 0.7393
vn 0.4760 0.6990 -0.5337
vn 0.9887 0.0563 -0.1391
vn 0.9387 -0.2926 -0.1825
vn 0.2719 0.7717 0.5749
vn -0.5907 0.5967 0.5431
vn -0.0191 -0.9777 -0.2092
vn 0.2246 -0.9568 0.1848
vn 0.5992 0.6860 0.4128
vn -0.9945 -0.0909 -0.0520
vn 0.0538 -0.9549 0.2921
vn 0.7645 0.4545 -0.4572
vn 0.4447 -0.8939 0.0558
vn -0.3528 0.2120 -0.9114
vn 0.5092 -0.3849 0.7698
vn 0.9735 -0.2280 0.0182
vn -0.9547 -0.2028 -0.2178
vn 0.4627 0.6057 -0.6474
vn 0.8872 0.4145 -0.2027
vn 0.9712 0.1181 -0.2070
vn -0.8193 0.3690 0.4389
vn -0.2029 -0.6417 -0.7396
vn -0.9969 -0.0457 0.0636
vn -0.5314 0.5763 0.6208
vn 0.3834 -0.5272 0.7583
vn 0.9258 -0.0213 0.3775
vn -0.5038 0.7081 -0.4948
vn 0.4454 -0.8936 0.0557
vn -0.9018 0.4065 -0.1467
vn -0.9190 0.0948 -0.3827
vn 0.9640 0.0324 0.2639
vn 0.6154 0.6119 0.4969
vn 0.9095 0.2023 -0.3632
vn -0.2508 -0.9673 0.0378
vn 0.2879 0.6192 0.7306
vn -0.6906 0.7051 -0.1611
vn -0.5663 -0.8033 0.1844
vn -0.7223 0.0433 0.6902
vn -0.7317 -0.2548 0.6322
vn -0.5638 0.5551 0.6116
vn 0.8433 0.5004 0.1960
vn -0.9613 -0.1792 -0.2093
vn 0.9829 -0.1214 -0.1384
vn -0.6464 -0.4335 0.6279
vn 0.9750 -0.2016 -0.0931
vn 0.1589 -0.9792 -0.1259
vn 0.7586 0.0138 -0.6514
vn -0.6805 -0.3278 0.6553
vn -0.0036 0.9954 -0.0955
vn -0.4701 -0.8039 -0.3644
vn -0.8200 -0.2707 0.5043
vn 0.4872 -0.7525 -0.4432
vn 0.7449 -0.3947 0.5379
vn -0.3751 0.8536 0.3615
vn -0.4648 -0.8839 0.0509
vn -0.3365 0.8619 0.3793
vn -0.2659 0.6671 0.6959
vn 0.6958 -0.5884 0.4118
vn 0.7400 0.1189 0.6620
vn -0.9122 0.0139 0.4095
vn -0.2330 -0.2850 0.9298
vn 0.5594 -0.7483 0.3566
vn -0.9866 0.1084 -0.1223
vn 0.6985 -0.1447 0.7008
vn 0.5367 -0.1210 -0.8350
vn -0.8955 0.3592 -0.2626
vn 0.2432 -0.9657 0.0911
vn -0.9320 0.3587 -0.0527
vn 0.7981 0.4832 -0.3601
vn -0.0759 -0.6382 0.7661
vn -0.9380 0.2197 0.2681
vn 0.9143 0.1805 -0.3626
vn 0.6835 0.7191 -0.1254
vn -0.7838 -0.1712 0.5969
vn 0.8768 0.4800 0.0284
vn 0.3237 0.9185 -0.2271
vn 0.8876 -0.4563 -0.0632
vn 0.7150 -0.4293 0.5517
vn 0.5948 0.2090 -0.7762
vn 0.8663 -0.0461 -0.4974
vn -0.9749 -0.0475 0.2174
vn 0.5948 0.5697 0.5672
vn -0.9207 0.0297 -0.3892
vn 0.2494 -0.9667 -0.0578
vn -0.8104 -0.0067 -0.5859
vn 0.9830 0.0055 -0.1833
vn 0.5213 -0.3168 0.7924
vn 0.6444 -0.2127 0.7345
vn -0.0324 0.8171 -0.5755
vn 0.9549 -0.0747 -0.2873
vn -0.3198 -0.6795 0.6603
vn -0.9415 0.0085 0.3369
vn -0.3524 -0.9298 -0.1062
vn 0.7455 0.4677 -0.4749
vn 0.6885 -0.4594 0.5611
vn 0.2282 -0.9358 0.2687
vn -0.7870 0.4819 -0.3853
vn -0.0860 -0.0045 0.9963
vn -0.4013 0.8759 -0.2678
vn -0.8025 -0.4752 0.3608
vn 0.8179 0.2777 -0.5039
vn 0.9413 0.2798 0.1890
vn -0.9483 -0.2002 0.2464
vn 0.9773 0.0368 -0.2085
vn 0.7739 0.0526 0.6311
vn 0.9359 -0.0034 0.3523
vn -0.5781 -0.7572 0.3042
vn -0.9115 -0.4085 -0.0481
vn 0.7983 -0.5774 0.1715
vn 0.1618 -0.6371 -0.7536
vn -0.7862 -0.4685 0.4030
vn 0.7762 -0.5412 -0.3235
vn 0.4720 0.4406 0.7636
vn -0.9747 -0.1503 0.1652
vn 0.9749 0.2226 -0.0090
vn 0.0107 -0.9032 0.4292
vn 0.7950 -0.4752 0.3771
vn 0.9704 -0.1800 -0.1612
vn -0.4809 -0.7382 0.4731
vn 0.9470 -0.3060 0.0976
vn 0.0060 -0.9943 -0.1067
vn -0.3597 0.9117 -0.1985
vn 0.9335 -0.1790 -0.3105
vn 0.8229 -0.2235 0.5224
vn 0.3304 -0.6983 0.6350
vn -0.5408 0.1532 -0.8271
vn 0.8394 0.4688 -0.2748
vn -0.8953 -0.3977 0.2009
vn -0.9415 -0.3366 0.0147
vn -0.7749 -0.2686 0.5721
vn -0.8776 0.0103 0.4793
vt 0.793893 0.811035
vt 0.733986 0.647144
vt 0.654509 0.794346
vt 0.904509 0.802353
vt 0.637534 0.635601
vt 0.530617 0.607635
vt 0.500000 0.753937
vt 0.876608 0.580494
vt 0.859674 0.618176
vt 0.975529 0.769161
vt 0.000000 0.714703
vt 0.810530 0.641144
vt 0.494886 0.330135
vt 0.549539 0.344433
vt 0.530617 0.328053
vt 0.604192 0.365723
vt 0.423700 0.300087
vt 0.327249 0.288544
vt 0.445583 0.324238
vt 0.637534 0.369709
vt 0.653495 0.391926
vt 0.692622 0.420471
vt 0.810530 0.476807
vt 0.717743 0.448570
vt 0.733986 0.420963
vt 0.201560 0.403915
vt 0.381335 0.383205
vt 0.184626 0.355206
vt 0.372679 0.358311
vt 0.250704 0.458881
vt 0.406456 0.411304
vt 0.327249 0.514725
vt 0.381335 0.339043
vt 0.250704 0.294548
vt 0.406456 0.327301
vt 0.201560 0.317513
vt 0.859674 0.531780
vt 0.555940 0.398312
vt 0.726400 0.473465
vt 0.692622 0.504471
vt 0.717743 0.492729
vt 0.653495 0.507542
vt 0.604192 0.501640
vt 0.445583 0.439854
vt 0.494886 0.466053
vt 0.549539 0.487347
vt 0.095491 0.301487
vt 0.206107 0.292805
vt 0.024472 0.334679
vt 0.345492 0.309490
vt 0.500000 0.349903
vt 0.654509 0.410099
vt 0.206107 0.619667
vt 0.345492 0.693741
vt 0.095491 0.538963
vt 0.423700 0.565987
vt 0.024472 0.459526
vt 0.000000 0.389137
vt 0.904509 0.564873
vt 0.975529 0.644310
vt 0.793893 0.484169
vt 0.000000 1.000000
vt 0.273600 0.473465
vt 0.123392 0.580494
vt 0.282257 0.492729
vt 0.024471 0.644310
vt 0.140326 0.618176
vt 0.307378 0.504471
vt 0.189470 0.641144
vt 0.140326 0.531780
vt 0.266014 0.420963
vt 0.206107 0.484169
vt 0.189470 0.476807
vt 0.345491 0.410099
vt 0.095491 0.564873
vt 0.576300 0.565987
vt 0.505114 0.466053
vt 0.469383 0.607635
vt 0.450461 0.487347
vt 0.672751 0.514725
vt 0.554417 0.439854
vt 0.593544 0.411304
vt 0.362466 0.635601
vt 0.395808 0.501640
vt 0.346505 0.507542
vt 0.266014 0.647144
vt 0.362466 0.369709
vt 0.798440 0.403915
vt 0.749296 0.458881
vt 0.975528 0.459526
vt 0.904509 0.538963
vt 0.815374 0.355206
vt 0.975528 0.334679
vt 0.654508 0.693741
vt 0.793893 0.619667
vt 0.576300 0.300087
vt 0.654508 0.309490
vt 0.469383 0.328053
vt 0.672751 0.288544
vt 0.793893 0.292805
vt 0.798440 0.317513
vt 0.749296 0.294548
vt 0.904509 0.301487
vt 0.444060 0.398312
vt 0.618665 0.383205
vt 0.282257 0.448570
vt 0.395808 0.365723
vt 0.346505 0.391926
vt 0.450461 0.344433
vt 0.307378 0.420471
vt 0.505114 0.330135
vt 0.627321 0.358311
vt 0.618665 0.339043
vt 0.593544 0.327301
vt 0.554417 0.324238
vt 0.095491 0.802353
vt 0.024471 0.769161
vt 0.345491 0.794346
vt 0.206107 0.811035
vt 0.531129 0.863455
vt 0.528598 0.862678
vt 0.529701 0.861377
vt 0.530028 0.864496
vt 0.532449 0.864504
vt 0.554833 0.852302
vt 0.535964 0.857423
vt 0.554115 0.862847
vt 0.527653 0.863068
vt 0.533337 0.860528
vt 0.534939 0.862031
vt 0.531751 0.858482
vt 0.533744 0.855085
vt 0.535657 0.858520
vt 0.537437 0.859975
vt 0.530356 0.847231
vt 0.465756 0.730456
vt 0.464280 0.731015
vt 0.466272 0.734068
vt 0.468310 0.733388
vt 0.464779 0.728223
vt 0.462719 0.728340
vt 0.462606 0.727787
vt 0.464037 0.730013
vt 0.465977 0.733427
vt 0.464885 0.735427
vt 0.463767 0.732595
vt 0.465331 0.736822
vt 0.463567 0.731622
vt 0.533015 0.861030
vt 0.528781 0.860447
vt 0.530131 0.864549
vt 0.530881 0.856491
vt 0.531355 0.865489
vt 0.534491 0.861890
vt 0.526887 0.856207
vt 0.527647 0.863272
vt 0.528726 0.864638
vt 0.526403 0.862717
vt 0.525618 0.860881
vt 0.526164 0.858016
vt 0.536721 0.859365
vt 0.468862 0.749484
vt 0.466293 0.747780
vt 0.466377 0.748286
vt 0.467102 0.749259
vt 0.467253 0.750763
vt 0.470042 0.751312
vt 0.469399 0.753101
vt 0.469928 0.750509
vt 0.463993 0.748347
vt 0.465755 0.751317
vt 0.467367 0.753944
vt 0.471307 0.756222
vt 0.464995 0.721450
vt 0.464829 0.720767
vt 0.463109 0.721688
vt 0.462921 0.720778
vt 0.464423 0.724210
vt 0.465870 0.723530
vt 0.464627 0.728363
vt 0.464023 0.722561
vt 0.465068 0.754195
vt 0.464674 0.751874
vt 0.466630 0.753166
vt 0.463722 0.724297
vt 0.465564 0.722267
vt 0.463941 0.725445
vt 0.463960 0.747882
vt 0.467324 0.729442
vt 0.468962 0.731820
vt 0.464679 0.727808
vt 0.468861 0.731404
vt 0.465570 0.729689
vt 0.468613 0.734441
vt 0.465745 0.749335
vt 0.459061 0.781790
vt 0.459779 0.802539
vt 0.459863 0.804904
vt 0.459175 0.785141
vt 0.459751 0.801754
vt 0.459456 0.793305
vt 0.459271 0.787929
vt 0.459472 0.793767
vt 0.459704 0.800426
vt 0.459315 0.789211
vt 0.458776 0.773334
vt 0.458807 0.774253
vt 0.459830 0.803985
vt 0.489859 0.811437
vt 0.490517 0.812575
vt 0.493013 0.812944
vt 0.492379 0.807917
vt 0.492492 0.807826
vt 0.490244 0.811723
vt 0.495164 0.807698
vt 0.493132 0.810665
vt 0.494834 0.807444
vt 0.490710 0.812847
vt 0.492924 0.813826
vt 0.497867 0.810534
vt 0.497474 0.813438
vt 0.460224 0.765039
vt 0.460206 0.763084
vt 0.462560 0.806586
vt 0.461784 0.810371
vt 0.461888 0.813254
vt 0.462269 0.795070
vt 0.460502 0.773340
vt 0.461874 0.784919
vt 0.461843 0.811999
vt 0.460939 0.786261
vt 0.460749 0.780687
vt 0.461206 0.794016
vt 0.461693 0.807861
vt 0.529650 0.858487
vt 0.526305 0.855364
vt 0.526229 0.858659
vt 0.525366 0.858400
vt 0.526985 0.861113
vt 0.527069 0.853356
vt 0.527847 0.860249
vt 0.525730 0.856066
vt 0.499012 0.806119
vt 0.499163 0.808047
vt 0.496863 0.805659
vt 0.504007 0.807601
vt 0.498517 0.806656
vt 0.503584 0.806797
vt 0.496949 0.812909
vt 0.499654 0.812986
vt 0.502654 0.810875
vt 0.503507 0.809186
vt 0.592808 0.531743
vt 0.588217 0.538940
vt 0.588077 0.539594
vt 0.592974 0.532605
vt 0.590410 0.541266
vt 0.605476 0.579748
vt 0.598681 0.549994
vt 0.597732 0.577716
vt 0.594369 0.536410
vt 0.588024 0.579111
vt 0.613173 0.625620
vt 0.612434 0.624340
vt 0.615779 0.621909
vt 0.615986 0.622776
vt 0.613896 0.614147
vt 0.608878 0.593579
vt 0.610395 0.618277
vt 0.610344 0.599562
vt 0.598719 0.597518
vt 0.603627 0.617616
vt 0.594111 0.535248
vt 0.585780 0.562762
vt 0.596633 0.544739
vt 0.581263 0.552818
vt 0.580933 0.565246
vt 0.599718 0.607532
vt 0.614994 0.618664
vt 0.603411 0.571398
vt 0.597228 0.579381
vt 0.580859 0.579665
vt 0.580881 0.588312
vt 0.586239 0.595329
vt 0.580956 0.598184
vt 0.581140 0.610011
vt 0.587471 0.612386
vt 0.580948 0.566627
vt 0.581636 0.543142
vt 0.601569 0.621008
vt 0.581399 0.548416
vt 0.581728 0.542511
vt 0.581694 0.543940
vt 0.584418 0.618966
vt 0.581248 0.618567
vt 0.581152 0.616172
vt 0.580876 0.599332
vt 0.585356 0.616338
vt 0.553521 0.602831
vt 0.553331 0.610777
vt 0.554511 0.593339
vt 0.555736 0.583825
vt 0.553636 0.612485
vt 0.553687 0.602899
vt 0.553489 0.615268
vt 0.459452 0.491871
vt 0.461213 0.485382
vt 0.459485 0.489932
vt 0.461044 0.486468
vt 0.459778 0.492442
vt 0.459359 0.494423
vt 0.461493 0.488154
vt 0.464758 0.479439
vt 0.558504 0.553826
vt 0.556735 0.572716
vt 0.557625 0.559726
vt 0.580730 0.586609
vt 0.597048 0.573565
vt 0.589612 0.566365
vt 0.599269 0.554858
vt 0.558814 0.552734
vt 0.580750 0.575909
vt 0.555956 0.581021
vt 0.557629 0.569465
vt 0.554660 0.591882
vt 0.558917 0.553838
vt 0.558344 0.559956
vt 0.466992 0.735881
vt 0.471686 0.736523
vt 0.471154 0.735844
vt 0.467543 0.732415
vt 0.469038 0.734202
vt 0.465755 0.732520
vt 0.464910 0.730942
vt 0.468204 0.735019
vt 0.462924 0.731477
vt 0.463785 0.734862
vt 0.464875 0.736583
vt 0.472383 0.739772
vt 0.467083 0.750025
vt 0.472789 0.754060
vt 0.465694 0.724813
vt 0.464362 0.726914
vt 0.467043 0.757209
vt 0.465055 0.731428
vt 0.469008 0.724611
vt 0.468395 0.726339
vt 0.467362 0.722205
vt 0.466053 0.734327
vt 0.468842 0.723927
vt 0.468423 0.726290
vt 0.462756 0.730786
vt 0.464215 0.732819
vt 0.466077 0.735332
vt 0.468792 0.735891
vt 0.600823 0.620456
vt 0.472127 0.728869
vt 0.609379 0.623288
vt 0.609476 0.623840
vt 0.471595 0.729530
vt 0.471495 0.728278
vt 0.469804 0.729461
vt 0.467500 0.728924
vt 0.472618 0.739591
vt 0.466378 0.738958
vt 0.464850 0.738342
vt 0.471066 0.739817
vt 0.469530 0.739997
vt 0.492385 0.780119
vt 0.495290 0.787243
vt 0.496036 0.784173
vt 0.491154 0.779002
vt 0.491169 0.779490
vt 0.484620 0.782489
vt 0.478875 0.782885
vt 0.483299 0.800267
vt 0.473516 0.783857
vt 0.474509 0.805198
vt 0.491185 0.779437
vt 0.490127 0.754648
vt 0.488711 0.757775
vt 0.487882 0.782818
vt 0.490626 0.800192
vt 0.492957 0.791536
vt 0.487404 0.808726
vt 0.486815 0.799901
vt 0.510317 0.819697
vt 0.506778 0.810402
vt 0.499845 0.801958
vt 0.483049 0.769613
vt 0.478757 0.763906
vt 0.477157 0.773097
vt 0.506264 0.803765
vt 0.485902 0.782701
vt 0.475770 0.815443
vt 0.487478 0.764879
vt 0.468327 0.763951
vt 0.468299 0.777805
vt 0.485796 0.766729
vt 0.479135 0.759770
vt 0.477878 0.735780
vt 0.477869 0.740706
vt 0.464715 0.728123
vt 0.467168 0.742654
vt 0.478074 0.743827
vt 0.478420 0.746287
vt 0.483856 0.741013
vt 0.481465 0.745903
vt 0.466678 0.742061
vt 0.480832 0.753289
vt 0.482355 0.739235
vt 0.477035 0.736540
vt 0.464418 0.730839
vt 0.479296 0.732786
vt 0.491357 0.782225
vt 0.484142 0.752815
vt 0.489788 0.774510
vt 0.492829 0.789133
vt 0.485110 0.768799
vt 0.494941 0.783847
vt 0.482346 0.751802
vt 0.480720 0.763783
vt 0.474831 0.767088
vt 0.470071 0.782960
vt 0.468285 0.775035
vt 0.473047 0.792616
vt 0.477104 0.752145
vt 0.477999 0.732596
vt 0.499948 0.786343
vt 0.517379 0.794530
vt 0.512134 0.797455
vt 0.519892 0.848057
vt 0.532451 0.843359
vt 0.517744 0.815619
vt 0.537586 0.821761
vt 0.515349 0.835842
vt 0.532581 0.835305
vt 0.502797 0.825711
vt 0.494477 0.829329
vt 0.524531 0.827249
vt 0.502495 0.837962
vt 0.485221 0.804628
vt 0.480786 0.783342
vt 0.475997 0.815446
vt 0.525700 0.806306
vt 0.508952 0.802099
vt 0.509892 0.844218
vt 0.519580 0.802811
vt 0.538081 0.809172
vt 0.541405 0.799494
vt 0.518720 0.795088
vt 0.515910 0.791821
vt 0.499703 0.786625
vt 0.533903 0.796593
vt 0.502945 0.831977
vt 0.499967 0.834792
vt 0.501863 0.837698
vt 0.463758 0.765903
vt 0.461146 0.748328
vt 0.464004 0.756081
vt 0.459637 0.752229
vt 0.459467 0.741348
vt 0.506850 0.797565
vt 0.504079 0.839782
vt 0.492286 0.773966
vt 0.486594 0.753472
vt 0.488556 0.749590
vt 0.489924 0.749166
vt 0.495942 0.780935
vt 0.496808 0.781473
vt 0.468158 0.760414
vt 0.466905 0.746627
vt 0.498506 0.789177
vt 0.488541 0.754072
vt 0.488271 0.754618
vt 0.489151 0.749958
vt 0.496350 0.781759
vt 0.492187 0.775399
vt 0.554776 0.861800
vt 0.556046 0.865722
vt 0.555695 0.855838
vt 0.555129 0.847689
vt 0.555051 0.828840
vt 0.465133 0.783452
vt 0.466504 0.813755
vt 0.478230 0.825060
vt 0.475600 0.826146
vt 0.477985 0.824249
vt 0.473849 0.825912
vt 0.470472 0.823171
vt 0.463533 0.816453
vt 0.463302 0.814164
vt 0.477415 0.822225
vt 0.467802 0.795013
vt 0.468360 0.808736
vt 0.494655 0.804683
vt 0.489056 0.816451
vt 0.497993 0.794438
vt 0.496214 0.799692
s 0
usemtl Material.001
f 60/1/1 54/2/1 58/3/1
f 154/2/2 379/1/2 420/4/2
f 54/2/3 57/5/3 58/3/3
f 152/6/4 436/7/4 23/3/4
f 344/3/5 353/5/5 362/6/5
f 43/8/6 54/9/6 61/10/6
f 527/11/7 520/8/7 371/10/7
f 485/10/8 313/9/8 209/12/8
f 258/4/9 186/12/9 487/2/9
f 54/12/10 60/4/10 61/10/10
f 408/13/11 544/14/11 440/15/11
f 319/15/12 511/14/12 349/16/12
f 257/17/13 214/13/13 204/15/13
f 369/18/14 96/19/14 158/13/14
f 62/13/15 500/17/15 460/18/15
f 538/16/16 24/20/16 441/15/16
f 493/21/17 388/22/17 389/23/17
f 409/23/18 538/22/18 441/24/18
f 461/25/19 193/21/19 275/23/19
f 297/20/20 157/16/20 83/25/20
f 472/16/21 303/21/21 365/25/21
f 503/26/22 311/27/22 488/28/22
f 314/27/23 35/29/23 288/28/23
f 59/27/24 324/26/24 315/30/24
f 304/31/25 380/30/25 352/32/25
f 201/30/26 467/31/26 327/27/26
f 311/28/27 503/29/27 153/33/27
f 11/34/28 389/35/28 543/19/28
f 216/19/29 496/18/29 543/34/29
f 395/33/30 327/35/30 402/34/30
f 54/33/31 50/36/31 53/28/31
f 539/36/32 398/33/32 401/34/32
f 54/24/1 43/37/1 45/23/1
f 151/19/33 67/35/33 462/38/33
f 32/13/34 85/19/34 361/38/34
f 52/35/35 453/33/35 526/38/35
f 257/29/36 27/27/36 13/38/36
f 472/33/37 397/29/37 246/38/37
f 42/14/38 326/13/38 182/38/38
f 245/24/39 409/22/39 441/38/39
f 475/39/40 546/24/40 447/38/40
f 183/22/41 428/21/41 88/38/41
f 487/16/42 365/14/42 258/38/42
f 79/21/43 346/16/43 221/38/43
f 218/40/44 260/41/44 91/38/44
f 269/42/45 159/40/45 442/38/45
f 40/41/46 30/39/46 427/38/46
f 522/37/47 545/24/47 285/8/47
f 447/24/48 546/39/48 336/8/48
f 422/43/49 412/42/49 424/38/49
f 375/31/50 293/44/50 266/38/50
f 47/27/51 99/31/51 384/38/51
f 267/44/52 343/45/52 488/38/52
f 525/46/53 371/43/53 450/38/53
f 398/45/54 539/46/54 306/38/54
f 150/47/55 184/34/55 406/48/55
f 92/34/56 453/18/56 52/48/56
f 463/34/57 205/47/57 385/49/57
f 53/28/31 50/36/31 51/49/31
f 306/49/58 447/36/58 501/34/58
f 50/48/1 54/18/1 48/50/1
f 96/51/59 18/15/59 533/52/59
f 54/15/1 45/20/1 46/52/1
f 54/15/1 46/51/1 48/50/1
f 149/18/60 546/17/60 494/50/60
f 374/50/61 351/17/61 500/15/61
f 517/32/62 431/53/62 451/54/62
f 34/53/63 253/32/63 331/55/63
f 469/54/64 457/56/64 490/32/64
f 268/7/65 445/6/65 97/54/65
f 57/6/6 54/56/6 56/54/6
f 196/32/66 361/30/66 188/55/66
f 83/57/67 26/26/67 270/28/67
f 482/58/68 2/28/68 185/49/68
f 346/57/69 475/28/69 474/58/69
f 123/55/70 17/30/70 144/57/70
f 494/30/71 44/26/71 149/57/71
f 395/52/72 538/20/72 201/25/72
f 257/43/73 274/5/73 27/2/73
f 480/43/74 413/46/74 338/6/74
f 352/2/75 295/42/75 304/43/75
f 208/12/76 449/40/76 75/2/76
f 2/40/77 5/42/77 430/2/77
f 83/6/78 8/5/78 199/43/78
f 210/45/79 342/44/79 39/32/79
f 132/32/80 203/44/80 2/31/80
f 289/56/81 301/45/81 145/32/81
f 199/6/82 26/46/82 83/45/82
f 481/45/83 537/56/83 271/6/83
f 387/59/84 14/23/84 267/60/84
f 539/23/85 401/37/85 474/60/85
f 508/23/86 531/59/86 98/61/86
f 97/25/87 442/61/87 159/52/87
f 358/61/88 345/25/88 381/23/88
f 416/60/89 471/37/89 334/8/89
f 321/9/90 90/41/90 97/12/90
f 455/41/91 221/40/91 346/12/91
f 18/41/92 95/9/92 529/8/92
f 285/8/93 457/11/93 502/60/93
f 349/8/94 85/39/94 536/41/94
f 74/62/95 115/62/95 116/62/95
f 115/62/96 74/62/96 114/62/96
f 116/62/97 76/62/97 74/62/97
f 322/62/98 408/62/98 440/62/98
f 76/62/99 116/62/99 77/62/99
f 435/62/100 31/62/100 502/62/100
f 337/62/101 253/62/101 1/62/101
f 74/62/102 73/62/102 113/62/102
f 514/62/103 416/62/103 334/62/103
f 114/62/104 74/62/104 113/62/104
f 80/62/105 120/62/105 121/62/105
f 502/62/106 31/62/106 87/62/106
f 121/62/107 81/62/107 80/62/107
f 425/62/108 72/62/108 15/62/108
f 275/62/109 281/62/109 404/62/109
f 118/62/110 78/62/110 77/62/110
f 12/62/111 196/62/111 188/62/111
f 80/62/112 78/62/112 118/62/112
f 80/62/113 119/62/113 120/62/113
f 119/62/114 80/62/114 118/62/114
f 65/62/115 105/62/115 106/62/115
f 105/62/116 65/62/116 63/62/116
f 106/62/117 66/62/117 65/62/117
f 328/62/118 514/62/118 87/62/118
f 442/62/119 198/62/119 356/62/119
f 103/62/120 63/62/120 81/62/120
f 216/62/121 354/62/121 496/62/121
f 530/62/122 221/62/122 362/62/122
f 63/62/123 104/62/123 105/62/123
f 104/62/124 63/62/124 103/62/124
f 70/62/125 110/62/125 111/62/125
f 110/62/126 70/62/126 109/62/126
f 111/62/127 71/62/127 70/62/127
f 252/62/128 249/62/128 377/62/128
f 71/62/129 111/62/129 73/62/129
f 108/62/130 68/62/130 66/62/130
f 264/62/131 296/62/131 342/62/131
f 70/62/132 68/62/132 108/62/132
f 274/62/133 257/62/133 204/62/133
f 109/62/134 70/62/134 108/62/134
f 296/62/135 37/62/135 146/62/135
f 315/62/136 382/62/136 372/62/136
f 406/62/137 298/62/137 198/62/137
f 117/62/138 77/62/138 116/62/138
f 498/62/139 27/62/139 274/62/139
f 342/62/140 296/62/140 146/62/140
f 113/62/141 73/62/141 112/62/141
f 381/62/142 296/62/142 41/62/142
f 281/62/143 240/62/143 88/62/143
f 84/62/144 37/62/144 202/62/144
f 194/62/145 465/62/145 189/62/145
f 306/62/146 501/62/146 276/62/146
f 358/62/147 212/62/147 364/62/147
f 102/62/148 81/62/148 121/62/148
f 296/62/149 264/62/149 41/62/149
f 118/62/150 77/62/150 117/62/150
f 144/62/151 215/62/151 123/62/151
f 132/62/152 430/62/152 228/62/152
f 357/62/153 364/62/153 33/62/153
f 18/62/154 357/62/154 521/62/154
f 191/62/155 10/62/155 432/62/155
f 91/62/156 372/62/156 218/62/156
f 470/62/157 387/62/157 243/62/157
f 107/62/158 66/62/158 106/62/158
f 240/62/159 513/62/159 486/62/159
f 371/62/160 520/62/160 450/62/160
f 103/62/161 81/62/161 102/62/161
f 303/62/162 352/62/162 365/62/162
f 450/62/163 155/62/163 525/62/163
f 18/62/164 529/62/164 533/62/164
f 182/62/165 263/62/165 483/62/165
f 6/62/166 145/62/166 515/62/166
f 353/62/167 158/62/167 534/62/167
f 112/62/168 73/62/168 111/62/168
f 259/62/169 499/62/169 224/62/169
f 266/62/170 390/62/170 375/62/170
f 108/62/171 66/62/171 107/62/171
f 520/62/172 527/62/172 216/62/172
f 342/62/173 217/62/173 264/62/173
f 327/62/174 467/62/174 264/62/174
f 139/62/175 33/62/175 41/62/175
f 41/62/176 264/62/176 467/62/176
f 250/62/177 260/62/177 428/62/177
f 126/62/178 168/62/178 167/62/178
f 278/62/179 228/62/179 438/62/179
f 423/62/180 224/62/180 396/62/180
f 133/62/181 172/62/181 171/62/181
f 524/62/182 160/62/182 211/62/182
f 459/62/183 343/62/183 243/62/183
f 505/62/184 431/62/184 517/62/184
f 332/62/185 157/62/185 432/62/185
f 522/62/186 334/62/186 545/62/186
f 99/62/187 10/62/187 361/62/187
f 141/62/188 163/62/188 162/62/188
f 334/62/189 471/62/189 545/62/189
f 474/62/190 202/62/190 346/62/190
f 126/62/191 167/62/191 166/62/191
f 97/62/192 49/62/192 268/62/192
f 400/62/193 319/62/193 24/62/193
f 262/62/194 458/62/194 535/62/194
f 159/62/195 321/62/195 97/62/195
f 189/62/196 8/62/196 47/62/196
f 142/62/197 425/62/197 15/62/197
f 372/62/198 91/62/198 518/62/198
f 137/62/199 178/62/199 177/62/199
f 327/62/200 264/62/200 217/62/200
f 141/62/201 162/62/201 181/62/201
f 212/62/202 358/62/202 381/62/202
f 445/62/203 406/62/203 198/62/203
f 425/62/204 205/62/204 247/62/204
f 11/62/205 543/62/205 496/62/205
f 520/62/206 389/62/206 450/62/206
f 206/62/207 330/62/207 349/62/207
f 133/62/208 173/62/208 172/62/208
f 494/62/209 207/62/209 79/62/209
f 389/62/210 292/62/210 256/62/210
f 137/62/211 177/62/211 176/62/211
f 506/62/212 513/62/212 240/62/212
f 284/62/213 474/62/213 478/62/213
f 472/62/214 487/62/214 187/62/214
f 130/62/215 169/62/215 168/62/215
f 511/62/216 395/62/216 402/62/216
f 128/62/217 130/62/217 168/62/217
f 467/62/218 139/62/218 41/62/218
f 128/62/219 168/62/219 126/62/219
f 171/62/220 131/62/220 133/62/220
f 212/62/221 33/62/221 364/62/221
f 131/62/222 171/62/222 130/62/222
f 130/62/223 170/62/223 169/62/223
f 170/62/224 130/62/224 171/62/224
f 122/62/225 164/62/225 163/62/225
f 164/62/226 122/62/226 165/62/226
f 324/62/227 417/62/227 382/62/227
f 185/62/228 370/62/228 4/62/228
f 122/62/229 163/62/229 141/62/229
f 525/62/230 155/62/230 476/62/230
f 485/62/231 209/62/231 390/62/231
f 126/62/232 166/62/232 125/62/232
f 125/62/233 165/62/233 122/62/233
f 165/62/234 125/62/234 166/62/234
f 140/62/235 179/62/235 178/62/235
f 179/62/236 140/62/236 180/62/236
f 138/62/237 140/62/237 178/62/237
f 537/62/238 410/62/238 156/62/238
f 138/62/239 178/62/239 137/62/239
f 386/62/240 435/62/240 502/62/240
f 331/62/241 499/62/241 34/62/241
f 141/62/242 181/62/242 140/62/242
f 213/62/243 221/62/243 455/62/243
f 180/62/244 140/62/244 181/62/244
f 134/62/245 174/62/245 173/62/245
f 491/62/246 124/62/246 386/62/246
f 133/62/247 134/62/247 173/62/247
f 399/62/248 145/62/248 307/62/248
f 124/62/249 435/62/249 386/62/249
f 176/62/250 136/62/250 137/62/250
f 233/62/251 524/62/251 25/62/251
f 136/62/252 176/62/252 134/62/252
f 134/62/253 175/62/253 174/62/253
f 175/62/254 134/62/254 176/62/254
f 428/63/255 404/64/255 88/65/255
f 158/11/256 371/64/256 534/66/256
f 499/67/257 236/65/257 34/64/257
f 221/68/258 403/65/258 79/69/258
f 508/65/259 486/67/259 531/69/259
f 530/70/260 49/66/260 251/64/260
f 426/71/261 69/72/261 541/73/261
f 404/72/262 281/71/262 88/74/262
f 100/75/263 67/73/263 62/72/263
f 513/70/264 506/73/264 87/66/264
f 203/73/265 185/75/265 2/66/265
f 49/76/266 97/77/266 147/78/266
f 298/79/267 249/78/267 356/77/267
f 424/77/268 350/76/268 533/80/268
f 525/81/269 530/80/269 534/82/269
f 98/81/270 393/77/270 340/80/270
f 207/83/271 494/78/271 546/84/271
f 463/85/272 418/68/272 3/86/272
f 421/68/273 184/69/273 150/86/273
f 418/85/274 463/86/274 1/84/274
f 546/79/275 149/84/275 336/78/275
f 330/83/276 361/84/276 85/86/276
f 526/87/277 453/74/277 192/71/277
f 423/88/278 396/89/278 286/90/278
f 455/89/279 364/91/279 213/90/279
f 304/92/280 295/90/280 376/58/280
f 281/92/281 506/58/281 240/93/281
f 87/88/282 506/90/282 328/92/282
f 250/89/283 376/80/283 295/91/283
f 235/76/284 238/78/284 237/94/284
f 377/78/285 501/7/285 252/94/285
f 478/76/286 474/94/286 401/80/286
f 326/80/287 42/95/287 316/91/287
f 350/95/288 156/80/288 533/94/288
f 407/96/289 442/97/289 439/98/289
f 84/96/290 339/99/290 37/97/290
f 227/51/291 235/98/291 229/97/291
f 226/87/291 235/98/291 227/74/291
f 465/98/292 93/51/292 189/74/292
f 235/99/291 231/100/291 229/97/291
f 423/101/293 265/93/293 244/102/293
f 231/101/294 234/92/294 232/93/294
f 442/103/295 356/102/295 336/93/295
f 502/99/296 87/102/296 522/100/296
f 325/102/297 451/103/297 507/100/297
f 313/79/298 485/77/298 535/104/298
f 439/84/299 251/79/299 49/104/299
f 186/77/300 39/81/300 146/104/300
f 532/82/301 308/105/301 35/104/301
f 156/81/302 355/82/302 533/104/302
f 332/85/303 47/84/303 8/104/303
f 351/63/304 374/106/304 460/64/304
f 183/106/305 94/70/305 443/64/305
f 194/63/306 189/65/306 273/104/306
f 498/68/307 194/85/307 27/104/307
f 540/65/308 92/68/308 52/104/308
f 360/107/309 536/108/309 348/104/309
f 508/109/310 94/107/310 88/104/310
f 317/108/311 469/110/311 230/104/311
f 154/106/312 492/63/312 537/104/312
f 295/110/313 352/106/313 303/104/313
f 24/111/314 160/109/314 441/104/314
f 13/112/315 384/113/315 257/104/315
f 544/105/316 427/112/316 30/104/316
f 249/113/317 298/114/317 325/104/317
f 350/115/318 464/111/318 413/104/318
f 511/114/319 319/115/319 400/104/319
f 223/70/291 235/106/291 226/73/291
f 378/113/320 540/101/320 394/102/320
f 231/101/321 235/113/321 234/92/321
f 215/114/322 19/113/322 370/102/322
f 243/99/323 343/115/323 470/102/323
f 494/114/324 403/102/324 44/115/324
f 144/112/325 157/92/325 297/113/325
f 544/82/326 30/89/326 312/105/326
f 150/89/327 406/82/327 145/80/327
f 529/88/328 523/105/328 422/89/328
f 184/112/329 517/105/329 298/92/329
f 247/105/330 352/88/330 380/92/330
f 362/108/331 534/107/331 530/71/331
f 313/107/332 417/87/332 209/71/332
f 487/108/333 186/71/333 339/73/333
f 347/110/334 21/73/334 148/106/334
f 14/110/335 387/108/335 470/73/335
f 2/87/336 482/107/336 12/98/336
f 335/96/337 454/111/337 49/99/337
f 344/115/338 213/99/338 364/111/338
f 364/111/339 455/96/339 358/98/339
f 428/109/340 183/98/340 250/107/340
f 506/109/341 491/111/341 328/98/341
f 241/116/342 235/69/342 242/117/342
f 399/69/343 525/116/343 476/86/343
f 32/67/344 196/117/344 309/69/344
f 367/64/345 366/11/345 368/117/345
f 235/67/291 223/64/291 242/117/291
f 320/83/346 503/118/346 488/78/346
f 158/7/347 527/78/347 371/118/347
f 238/83/342 235/86/342 239/118/342
f 161/119/348 532/86/348 35/116/348
f 235/86/349 241/119/349 239/118/349
f 427/120/350 190/121/350 40/122/350
f 204/121/351 214/120/351 39/123/351
f 59/123/352 326/120/352 316/124/352
f 510/125/353 191/126/353 17/127/353
f 516/121/354 355/123/354 378/128/354
f 430/129/355 459/130/355 228/124/355
f 481/129/356 271/131/356 324/132/356
f 19/131/357 297/120/357 363/122/357
f 326/129/358 518/133/358 246/130/358
f 469/130/359 386/133/359 457/134/359
f 282/133/360 75/129/360 449/132/360
f 337/135/361 433/126/361 473/125/361
f 23/136/362 528/137/362 152/138/362
f 146/138/363 39/139/363 342/136/363
f 17/137/364 432/136/364 157/140/364
f 194/141/365 273/140/365 13/142/365
f 379/140/366 154/141/366 316/137/366
f 248/143/367 155/144/367 388/145/367
f 153/137/368 503/146/368 446/147/368
f 433/147/369 385/138/369 286/137/369
f 386/146/370 502/137/370 457/141/370
f 540/148/371 378/143/371 92/145/371
f 183/142/372 15/143/372 279/148/372
f 370/120/373 278/129/373 320/124/373
f 530/149/374 251/150/374 221/151/374
f 2/150/375 12/149/375 5/152/375
f 251/152/376 149/149/376 221/126/376
f 444/149/377 397/153/377 478/154/377
f 62/150/378 151/152/378 500/155/378
f 219/150/379 257/156/379 384/151/379
f 21/157/380 319/158/380 349/128/380
f 284/158/381 84/156/381 202/159/381
f 393/150/382 152/160/382 528/156/382
f 295/156/383 260/160/383 250/159/383
f 189/160/384 47/150/384 273/155/384
f 263/153/385 182/149/385 401/151/385
f 317/153/386 328/123/386 469/124/386
f 275/123/387 197/153/387 281/157/387
f 197/157/388 506/153/388 281/151/388
f 413/129/389 272/120/389 495/131/389
f 402/123/390 217/157/390 36/128/390
f 300/154/391 293/161/391 333/126/391
f 373/149/392 218/154/392 458/126/392
f 412/154/393 148/153/393 497/124/393
f 9/154/394 360/130/394 348/161/394
f 377/161/395 249/130/395 127/134/395
f 538/130/396 190/154/396 201/124/396
f 139/162/397 95/163/397 521/164/397
f 524/163/398 441/162/398 160/165/398
f 525/162/399 399/164/399 280/166/399
f 452/167/400 75/166/400 437/168/400
f 286/167/401 55/162/401 265/166/401
f 148/169/402 412/165/402 427/162/402
f 279/164/403 72/170/403 376/171/403
f 18/164/404 521/163/404 95/170/404
f 1/166/405 199/164/405 93/171/405
f 149/168/406 251/166/406 82/172/406
f 528/166/407 23/171/407 277/172/407
f 36/173/408 210/167/408 29/168/408
f 397/174/409 84/175/409 478/176/409
f 319/176/410 160/175/410 24/177/410
f 534/174/411 371/176/411 525/178/411
f 405/179/412 480/178/412 156/180/412
f 245/179/413 489/174/413 409/178/413
f 405/177/414 350/175/414 413/181/414
f 465/182/415 418/183/415 93/184/415
f 354/183/416 52/170/416 195/184/416
f 443/181/417 94/185/417 340/177/417
f 492/186/418 355/181/418 410/175/418
f 462/178/419 67/176/419 448/187/419
f 537/170/420 481/163/420 316/188/420
f 444/189/421 246/140/421 397/136/421
f 187/136/422 84/190/422 397/189/422
f 191/140/423 188/189/423 10/191/423
f 519/189/424 385/192/424 504/193/424
f 524/191/425 233/189/425 151/193/425
f 208/190/426 75/136/426 366/139/426
f 329/142/427 485/191/427 266/143/427
f 6/140/428 289/191/428 145/142/428
f 93/191/429 8/193/429 189/143/429
f 517/193/430 195/194/430 377/144/430
f 21/143/431 536/193/431 360/144/431
f 472/193/432 365/192/432 487/194/432
f 314/171/433 528/183/433 277/182/433
f 448/171/434 22/170/434 25/183/434
f 92/172/435 378/171/435 420/182/435
f 12/188/436 188/163/436 5/195/436
f 429/165/437 314/195/437 288/163/437
f 373/170/438 262/188/438 428/184/438
f 488/142/439 343/148/439 459/146/439
f 37/146/440 296/141/440 345/142/440
f 18/148/441 369/147/441 357/146/441
f 98/195/442 531/184/442 393/188/442
f 272/148/443 208/145/443 366/147/443
f 456/196/444 270/197/444 26/198/444
f 329/199/445 266/200/445 208/201/445
f 424/196/446 412/202/446 200/197/446
f 504/202/447 340/203/447 393/204/447
f 196/202/448 16/204/448 309/197/448
f 501/201/449 377/205/449 526/199/449
f 283/206/450 437/196/450 300/199/450
f 326/199/451 444/196/451 182/198/451
f 298/207/452 356/206/452 198/199/452
f 442/200/453 251/199/453 439/208/453
f 507/199/454 484/198/454 325/208/454
f 7/209/455 91/210/455 411/211/455
f 460/209/456 100/212/456 62/213/456
f 143/212/457 526/209/457 294/211/457
f 153/213/458 359/214/458 387/209/458
f 369/213/459 158/215/459 357/216/459
f 383/214/460 471/213/460 416/216/460
f 348/211/461 309/217/461 308/212/461
f 485/218/462 28/214/462 535/219/462
f 274/210/463 225/209/463 498/214/463
f 4/214/464 19/216/464 363/219/464
f 299/216/465 436/220/465 152/221/465
f 385/219/466 519/216/466 286/221/466
f 64/207/467 269/222/467 442/223/467
f 222/204/468 299/224/468 486/225/468
f 346/197/469 358/204/469 455/225/469
f 310/198/470 391/197/470 249/226/470
f 47/208/471 384/198/471 13/226/471
f 509/197/472 505/225/472 517/226/472
f 7/227/473 246/224/473 518/204/473
f 23/228/474 435/229/474 305/202/474
f 357/202/475 33/196/475 521/228/475
f 517/203/476 325/202/476 298/229/476
f 139/204/477 201/203/477 529/227/477
f 96/229/478 527/227/478 158/203/478
f 489/226/479 245/230/479 462/208/479
f 277/205/480 305/231/480 101/232/480
f 443/199/481 15/205/481 183/232/481
f 160/207/482 347/199/482 408/232/482
f 145/206/483 301/207/483 255/223/483
f 500/232/484 233/222/484 22/207/484
f 1/201/485 253/233/485 291/231/485
f 483/230/486 379/234/486 42/200/486
f 399/200/487 515/208/487 145/230/487
f 94/201/488 98/200/488 340/233/488
f 190/205/489 523/201/489 529/231/489
f 221/200/490 44/234/490 403/233/490
f 518/235/491 91/236/491 7/132/491
f 372/131/492 313/235/492 458/132/492
f 149/236/493 44/235/493 221/237/493
f 361/158/494 10/238/494 188/239/494
f 196/132/495 482/236/495 16/240/495
f 423/235/496 244/241/496 259/237/496
f 3/121/497 418/241/497 225/122/497
f 157/241/498 332/239/498 83/237/498
f 346/239/499 345/121/499 358/128/499
f 285/241/500 502/131/500 522/122/500
f 212/131/501 381/241/501 41/235/501
f 443/238/502 142/158/502 15/159/502
f 228/160/503 459/242/503 243/159/503
f 15/242/504 72/160/504 279/240/504
f 99/240/505 47/160/505 432/155/505
f 11/156/506 496/157/506 542/151/506
f 19/157/507 144/156/507 297/158/507
f 270/236/508 456/242/508 129/240/508
f 314/158/509 161/239/509 35/128/509
f 296/239/510 381/238/510 345/237/510
f 395/236/511 400/238/511 538/242/511
f 271/242/512 537/238/512 156/159/512
f 527/238/513 394/236/513 354/237/513
f 453/239/514 92/241/514 420/121/514
f 497/215/515 148/243/515 360/244/515
f 139/245/516 467/243/516 201/215/516
f 143/243/517 501/246/517 526/244/517
f 4/210/518 363/214/518 185/218/518
f 546/211/519 475/210/519 207/218/519
f 293/213/520 282/245/520 449/215/520
f 123/215/521 510/244/521 17/220/521
f 487/216/522 339/215/522 187/220/522
f 501/217/523 447/247/523 336/245/523
f 474/245/524 284/213/524 202/212/524
f 129/245/525 479/212/525 482/217/525
f 31/218/526 435/219/526 23/211/526
f 378/246/527 355/243/527 492/248/527
f 526/243/528 192/245/528 263/248/528
f 204/249/529 186/211/529 258/219/529
f 464/250/530 200/249/530 497/221/530
f 149/219/531 82/221/531 336/249/531
f 28/248/532 9/245/532 535/247/532
f 240/251/533 486/250/533 508/220/533
f 294/250/534 276/221/534 143/220/534
f 421/251/535 255/220/535 542/244/535
f 219/246/536 214/252/536 257/244/536
f 161/252/537 314/251/537 277/244/537
f 336/253/538 249/254/538 252/255/538
f 429/256/539 393/253/539 528/255/539
f 404/257/540 428/256/540 461/255/540
f 299/258/541 222/259/541 31/260/541
f 520/261/542 216/256/542 543/257/542
f 477/260/543 219/259/543 99/262/543
f 215/263/544 370/264/544 123/265/544
f 341/265/545 338/266/545 368/263/545
f 135/267/546 322/265/546 524/264/546
f 236/268/547 86/267/547 34/269/547
f 267/267/548 488/264/548 311/269/548
f 510/270/549 5/271/549 191/272/549
f 16/259/550 479/261/550 434/257/550
f 456/253/551 429/273/551 288/254/551
f 193/259/552 101/257/552 275/274/552
f 10/273/553 99/275/553 432/276/553
f 306/276/554 302/275/554 398/277/554
f 394/278/555 516/268/555 378/269/555
f 202/270/556 345/260/556 346/271/556
f 363/279/557 270/270/557 129/272/557
f 1/270/558 463/258/558 337/260/558
f 345/280/559 202/268/559 37/281/559
f 527/268/560 96/278/560 394/281/560
f 330/266/561 85/279/561 349/263/561
f 539/282/562 475/283/562 447/262/562
f 469/282/563 490/262/563 471/274/563
f 182/284/564 478/285/564 401/286/564
f 75/283/565 452/285/565 366/284/565
f 300/286/566 415/287/566 283/284/566
f 147/274/567 97/288/567 90/282/567
f 442/255/568 82/289/568 251/257/568
f 267/278/569 470/269/569 343/290/569
f 309/289/570 348/291/570 32/257/570
f 33/274/571 212/257/571 41/291/571
f 433/291/572 286/288/572 396/274/572
f 511/284/573 206/262/573 349/283/573
f 213/292/574 344/289/574 362/255/574
f 418/293/575 465/292/575 225/255/575
f 263/276/576 302/254/576 526/273/576
f 328/259/577 491/274/577 386/262/577
f 261/276/578 272/293/578 413/254/578
f 273/293/579 47/255/579 13/254/579
f 504/294/580 385/287/580 340/286/580
f 89/286/581 310/295/581 249/294/581
f 407/294/582 64/295/582 442/296/582
f 28/296/583 329/297/583 261/298/583
f 422/296/584 523/298/584 427/294/584
f 354/286/585 540/285/585 52/299/585
f 275/300/586 101/286/586 197/299/586
f 9/299/587 28/285/587 360/301/587
f 420/301/588 378/283/588 154/302/588
f 11/285/589 290/283/589 292/301/589
f 31/295/590 513/286/590 87/300/590
f 329/297/591 208/296/591 272/303/591
f 471/304/592 383/297/592 230/303/592
f 276/303/593 294/296/593 302/305/593
f 254/305/594 49/295/594 147/300/594
f 359/296/595 243/295/595 387/305/595
f 387/283/596 311/282/596 153/302/596
f 38/306/597 322/307/597 440/308/597
f 464/307/598 424/306/598 200/309/598
f 274/309/599 204/306/599 258/310/599
f 408/309/600 211/311/600 160/312/600
f 210/307/601 214/309/601 219/313/601
f 88/291/602 240/289/602 508/314/602
f 436/282/603 299/288/603 31/315/603
f 438/302/604 243/282/604 359/315/604
f 521/315/605 33/288/605 139/316/605
f 484/316/606 287/291/606 325/314/606
f 528/288/607 314/291/607 429/316/607
f 320/317/608 278/297/608 503/304/608
f 442/318/609 336/280/609 82/281/609
f 200/319/610 412/320/610 497/318/610
f 456/318/611 26/320/611 429/280/611
f 252/314/612 501/289/612 336/321/612
f 20/317/613 262/322/613 535/319/613
f 439/317/614 49/319/614 454/318/614
f 249/275/615 325/319/615 287/277/615
f 515/320/616 399/319/616 476/275/616
f 433/319/617 337/322/617 385/277/617
f 360/281/618 28/297/618 261/317/618
f 292/317/619 389/318/619 11/281/619
f 183/289/620 88/292/620 94/321/620
f 448/277/621 100/322/621 374/323/621
f 380/324/622 425/277/622 247/323/622
f 480/323/623 405/322/623 413/325/623
f 142/325/624 385/317/624 205/304/624
f 415/322/625 426/317/625 283/325/625
f 38/276/626 440/277/626 462/324/626
f 148/292/627 544/293/627 347/326/627
f 72/321/628 304/292/628 376/326/628
f 479/326/629 456/293/629 288/327/629
f 197/327/630 305/276/630 491/324/630
f 486/293/631 299/276/631 531/327/631
f 463/328/632 3/329/632 247/139/632
f 357/328/633 344/139/633 364/138/633
f 203/139/634 132/329/634 228/190/634
f 230/329/635 416/330/635 317/192/635
f 266/330/636 293/194/636 449/192/636
f 435/328/637 124/138/637 305/147/637
f 512/331/638 417/332/638 271/333/638
f 205/334/639 425/331/639 142/333/639
f 96/333/640 355/332/640 516/335/640
f 421/336/641 496/337/641 184/338/641
f 95/332/642 139/339/642 529/335/642
f 245/340/643 524/184/643 151/195/643
f 464/341/644 350/162/644 424/167/644
f 373/169/645 260/162/645 218/341/645
f 529/173/646 422/341/646 533/167/646
f 478/342/647 182/343/647 444/181/647
f 272/184/648 366/344/648 367/182/648
f 377/340/649 195/165/649 526/169/649
f 415/344/650 414/173/650 69/172/650
f 161/172/651 193/182/651 532/344/651
f 39/340/652 186/195/652 204/165/652
f 192/341/653 420/340/653 483/169/653
f 205/168/654 463/172/654 247/173/654
f 72/345/655 380/331/655 304/334/655
f 1/346/656 26/179/656 199/347/656
f 544/346/657 148/348/657 427/179/657
f 458/177/658 313/185/658 535/176/658
f 339/338/659 84/349/659 187/336/659
f 250/187/660 183/176/660 376/185/660
f 339/348/661 186/174/661 146/179/661
f 96/186/662 516/350/662 394/351/662
f 123/347/663 370/179/663 320/180/663
f 211/350/664 408/186/664 322/348/664
f 448/348/665 38/175/665 462/174/665
f 348/175/570 85/348/570 32/186/570
f 129/336/666 185/352/666 363/337/666
f 340/353/667 385/333/667 142/354/667
f 25/334/668 38/333/668 448/353/668
f 305/333/669 277/335/669 23/354/669
f 444/331/670 326/345/670 246/349/670
f 411/349/671 295/355/671 303/331/671
f 151/352/672 233/334/672 500/353/672
f 185/353/673 129/354/673 482/337/673
f 265/352/674 86/353/674 244/337/674
f 219/345/675 29/336/675 210/349/675
f 93/345/676 199/334/676 8/352/676
f 387/336/677 267/345/677 311/352/677
f 31/356/678 222/272/678 513/287/678
f 36/272/679 217/271/679 342/287/679
f 441/294/680 524/356/680 245/287/680
f 220/290/681 389/298/681 256/278/681
f 519/290/682 504/356/682 55/294/682
f 489/271/683 312/284/683 40/287/683
f 412/350/684 422/346/684 427/357/684
f 201/192/685 327/190/685 395/329/685
f 305/350/686 124/348/686 491/346/686
f 293/284/687 323/260/687 333/262/687
f 101/271/688 305/260/688 197/284/688
f 306/298/689 539/290/689 447/294/689
f 1/358/690 93/359/690 418/356/690
f 245/358/691 151/356/691 462/290/691
f 389/264/692 520/359/692 543/358/692
f 370/269/693 203/358/693 278/290/693
f 20/358/694 348/269/694 308/264/694
f 409/359/695 40/264/695 190/263/695
f 430/281/696 5/278/696 510/297/696
f 325/278/697 517/298/697 451/297/697
f 352/359/698 247/272/698 365/356/698
f 531/359/699 152/263/699 393/279/699
f 297/272/700 83/359/700 270/279/700
f 331/189/701 253/190/701 473/192/701
f 367/347/702 368/360/702 338/346/702
f 545/361/703 457/351/703 285/350/703
f 5/362/704 188/360/704 191/347/704
f 490/360/705 545/357/705 471/346/705
f 448/357/706 67/361/706 100/350/706
f 317/363/707 416/362/707 514/347/707
f 21/180/708 347/178/708 319/187/708
f 348/181/709 536/343/709 85/185/709
f 522/342/710 87/186/710 514/351/710
f 334/180/711 522/363/711 514/347/711
f 400/342/712 24/181/712 538/186/712
f 84/343/713 284/187/713 478/185/713
f 313/332/714 372/331/714 382/364/714
f 480/364/715 512/331/715 271/355/715
f 271/339/716 156/332/716 480/364/716
f 512/365/717 341/366/717 375/337/717
f 146/366/718 37/338/718 339/337/718
f 307/339/719 406/367/719 445/335/719
f 504/365/720 429/337/720 26/354/720
f 184/343/721 496/180/721 517/187/721
f 55/368/722 291/365/722 265/354/722
f 20/367/723 535/368/723 9/335/723
f 272/368/724 261/354/724 329/335/724
f 430/369/725 510/370/725 459/371/725
f 228/372/726 243/369/726 438/371/726
f 405/373/727 156/372/727 350/371/727
f 27/374/728 194/375/728 13/376/728
f 389/375/729 220/377/729 493/378/729
f 460/370/730 374/369/730 100/379/730
f 472/379/731 187/369/731 397/380/731
f 363/380/732 297/381/732 270/379/732
f 318/382/733 426/383/733 415/384/733
f 195/379/734 496/384/734 354/370/734
f 143/384/735 276/379/735 501/382/735
f 479/375/736 16/378/736 482/376/736
f 499/385/737 331/386/737 396/376/737
f 210/374/738 36/376/738 342/386/738
f 291/387/739 253/388/739 34/389/739
f 255/390/740 421/391/740 145/392/740
f 19/393/741 4/389/741 370/388/741
f 393/386/742 429/394/742 504/374/742
f 457/378/743 545/395/743 490/385/743
f 17/376/744 191/378/744 432/385/744
f 332/383/745 8/382/745 83/394/745
f 417/385/746 313/383/746 382/386/746
f 198/394/747 442/386/747 97/383/747
f 468/396/748 333/382/748 392/379/748
f 333/392/749 414/391/749 415/397/749
f 483/398/750 263/392/750 192/397/750
f 377/344/751 127/397/751 517/391/751
f 132/390/752 2/374/752 430/399/752
f 390/391/753 209/400/753 512/344/753
f 22/377/754 448/392/754 374/398/754
f 423/401/755 259/402/755 224/403/755
f 495/404/756 338/405/756 413/406/756
f 468/407/757 541/328/757 414/408/757
f 356/408/758 249/409/758 336/410/758
f 541/328/759 69/409/759 414/408/759
f 379/374/760 483/394/760 420/399/760
f 298/410/761 406/396/761 184/381/761
f 277/408/762 193/410/762 161/381/762
f 517/407/763 127/408/763 509/380/763
f 324/381/764 271/396/764 417/379/764
f 55/408/765 1/381/765 291/380/765
f 42/399/766 379/396/766 316/410/766
f 510/399/767 320/400/767 459/391/767
f 183/391/768 279/390/768 376/399/768
f 414/399/769 333/394/769 468/396/769
f 29/400/770 477/399/770 206/410/770
f 404/394/771 461/382/771 275/396/771
f 433/366/772 396/365/772 331/404/772
f 94/411/773 508/412/773 98/330/773
f 465/368/774 498/367/774 225/405/774
f 374/404/775 500/365/775 22/368/775
f 368/405/776 323/404/776 341/368/776
f 326/329/777 59/328/777 518/411/777
f 445/413/778 268/194/778 280/330/778
f 341/145/779 323/144/779 375/413/779
f 388/413/780 450/144/780 389/194/780
f 260/330/781 373/329/781 428/411/781
f 293/330/782 300/412/782 437/413/782
f 426/405/783 318/339/783 69/364/783
f 353/342/784 534/401/784 362/403/784
f 432/351/785 47/414/785 332/401/785
f 438/343/786 153/342/786 446/403/786
f 203/341/787 228/410/787 278/409/787
f 348/340/788 20/341/788 9/409/788
f 280/342/789 307/351/789 445/401/789
f 419/364/790 193/402/790 461/405/790
f 287/405/791 89/367/791 249/339/791
f 40/364/792 409/355/792 489/403/792
f 307/403/793 145/402/793 406/364/793
f 210/355/794 39/349/794 214/403/794
f 420/413/795 192/412/795 453/362/795
f 452/415/796 466/416/796 392/417/796
f 193/418/797 419/419/797 532/415/797
f 449/417/798 208/420/798 266/415/798
f 315/421/799 372/419/799 518/422/799
f 315/418/800 324/415/800 382/420/800
f 315/416/801 518/415/801 59/419/801
f 531/392/802 299/375/802 152/374/802
f 244/374/803 86/390/803 259/392/803
f 254/392/804 335/377/804 49/375/804
f 1/423/805 55/424/805 26/425/805
f 7/423/806 472/426/806 246/424/806
f 207/422/807 475/427/807 346/421/807
f 29/360/808 206/362/808 36/428/808
f 25/357/809 22/360/809 233/428/809
f 253/362/810 337/412/810 473/428/810
f 440/363/811 312/180/811 489/413/811
f 329/362/812 28/363/812 485/413/812
f 135/357/813 524/428/813 211/414/813
f 541/427/814 466/422/814 426/423/814
f 463/406/815 385/421/815 337/427/815
f 203/429/816 370/430/816 185/431/816
f 300/361/817 333/357/817 415/414/817
f 328/351/818 386/361/818 469/414/818
f 338/240/819 495/432/819 367/132/819
f 35/433/820 434/132/820 288/432/820
f 18/388/821 96/387/821 369/434/821
f 440/393/822 544/388/822 312/434/822
f 213/387/823 362/435/823 221/434/823
f 21/436/824 360/433/824 148/432/824
f 398/135/825 302/437/825 263/438/825
f 20/438/826 532/439/826 419/135/826
f 306/387/827 276/438/827 302/437/827
f 410/433/828 355/436/828 156/440/828
f 293/437/829 375/435/829 323/387/829
f 219/135/830 477/439/830 29/441/830
f 263/418/831 401/442/831 398/443/831
f 72/443/832 425/419/832 380/418/832
f 224/426/833 499/443/833 396/442/833
f 49/328/834 280/407/834 268/411/834
f 25/442/835 524/444/835 322/426/835
f 452/443/836 437/426/836 466/423/836
f 366/445/837 452/446/837 392/431/837
f 519/135/838 55/441/838 286/447/838
f 154/445/839 378/431/839 492/430/839
f 19/423/840 215/422/840 144/443/840
f 532/422/841 20/419/841 308/443/841
f 465/448/842 194/449/842 498/450/842
f 144/451/843 17/452/843 157/453/843
f 512/454/844 480/452/844 341/451/844
f 30/455/845 40/436/845 312/432/845
f 182/456/846 483/432/846 42/457/846
f 496/432/847 421/456/847 542/455/847
f 323/450/848 368/454/848 392/451/848
f 225/458/849 274/459/849 258/460/849
f 466/459/850 283/458/850 426/461/850
f 525/459/851 49/461/851 530/462/851
f 219/430/852 384/452/852 99/454/852
f 368/454/853 366/445/853 392/430/853
f 59/432/854 316/240/854 481/457/854
f 330/463/855 206/448/855 477/451/855
f 390/453/856 512/463/856 375/451/856
f 265/448/857 291/434/857 86/449/857
f 294/451/858 526/448/858 302/450/858
f 434/434/859 479/435/859 288/449/859
f 209/393/860 417/434/860 512/448/860
f 353/447/861 357/464/861 158/155/861
f 3/155/862 258/135/862 365/447/862
f 75/240/863 282/155/863 293/464/863
f 529/463/864 201/393/864 190/448/864
f 322/464/865 135/457/865 211/240/865
f 394/465/866 540/417/866 354/466/866
f 468/467/867 392/465/867 466/466/867
f 308/401/868 309/467/868 35/402/868
f 97/419/869 445/421/869 198/416/869
f 468/467/870 466/466/870 541/402/870
f 309/468/871 16/467/871 434/401/871
f 410/417/872 537/465/872 492/469/872
f 357/469/873 353/420/873 344/417/873
f 196/470/874 32/469/874 361/465/874
f 153/414/875 438/468/875 359/401/875
f 510/468/876 123/465/876 320/467/876
f 471/417/877 230/416/877 469/466/877
f 319/427/878 347/471/878 160/472/878
f 31/460/879 23/472/879 436/471/879
f 261/472/880 497/406/880 360/427/880
f 488/406/881 459/472/881 320/404/881
f 317/460/882 514/404/882 328/472/882
f 422/471/883 424/427/883 533/423/883
f 495/406/884 272/405/884 367/416/884
f 222/416/885 486/421/885 513/406/885
f 472/466/886 7/416/886 303/402/886
f 361/423/887 330/425/887 99/471/887
f 154/416/888 537/405/888 316/402/888
f 247/420/889 3/469/889 365/473/889
f 408/474/890 347/475/890 544/412/890
f 461/411/891 262/474/891 20/412/891
f 340/428/892 142/412/892 443/476/892
f 278/414/893 446/428/893 503/468/893
f 525/412/894 280/475/894 49/476/894
f 440/372/895 489/373/895 462/475/895
f 327/369/896 217/372/896 402/474/896
f 20/380/897 419/369/897 461/474/897
f 395/407/898 511/380/898 400/411/898
f 411/474/899 91/372/899 260/475/899
f 145/380/900 421/474/900 150/411/900
f 249/428/901 391/476/901 127/468/901
f 539/371/902 474/477/902 475/478/902
f 322/373/903 38/371/903 25/478/903
f 523/478/904 190/477/904 427/465/904
f 190/473/905 538/418/905 409/420/905
f 536/477/906 21/470/906 349/465/906
f 266/429/907 485/453/907 390/452/907
f 286/475/908 265/373/908 423/478/908
f 261/476/909 464/475/909 497/478/909
f 79/468/910 207/476/910 346/478/910
f 338/452/911 341/430/911 480/429/911
f 151/478/912 62/465/912 67/468/912
f 388/479/913 155/480/913 450/134/913
f 433/481/914 331/479/914 473/132/914
f 438/134/915 446/133/915 278/479/915
f 36/127/916 511/134/916 402/480/916
f 411/133/917 260/132/917 295/479/917
f 517/132/918 496/433/918 195/482/918
f 526/161/919 195/134/919 52/127/919
f 464/440/920 261/483/920 413/433/920
f 499/127/921 259/126/921 236/161/921
f 527/482/922 354/481/922 216/132/922
f 293/482/923 437/433/923 75/483/923
f 101/425/924 193/484/924 277/458/924
f 479/485/925 129/486/925 456/487/925
f 333/485/926 323/488/926 392/486/926
f 34/489/927 86/490/927 291/491/927
f 411/487/928 303/489/928 7/485/928
f 434/490/929 35/492/929 309/491/929
f 196/493/930 12/488/930 482/485/930
f 458/471/931 218/458/931 372/460/931
f 283/458/932 466/471/932 437/425/932
f 197/494/933 491/444/933 506/495/933
f 504/485/934 26/495/934 55/493/934
f 3/444/935 225/493/935 258/495/935
f 458/483/936 262/440/936 373/445/936
f 262/418/937 461/496/937 428/442/937
f 355/217/938 96/211/938 533/442/938
f 403/496/939 494/217/939 79/442/939
f 481/135/940 324/125/940 59/437/940
f 259/211/941 86/497/941 236/442/941
f 511/498/942 36/446/942 206/248/942
f 330/217/943 477/496/943 99/247/943
f 280/499/944 399/496/944 307/418/944
