# Blender 5.1.1
# www.blender.org
o Куб.001
v 0.551713 1.027385 0.612967
v 0.532479 2.427118 0.476605
v 0.602316 1.051441 -0.209194
v 0.619472 2.364607 -0.215834
v -0.004323 1.013685 -0.325065
v -0.000000 2.480862 -0.357245
v 0.708413 1.680694 0.025484
v 0.618746 0.956141 0.149019
v 0.609568 2.446708 0.126508
v 0.654378 1.667054 0.513047
v 0.003328 0.961240 0.668039
v -0.000000 2.544096 0.544675
v 0.718951 1.679586 0.131363
v -0.003181 0.908323 0.183389
v -0.000000 2.614716 0.130571
v 0.821619 0.334172 -0.943172
v 0.537649 2.260879 -0.505630
v -0.003901 1.099924 -0.584445
v 0.000000 2.280686 -0.622767
v 0.464374 1.345629 -0.794955
v 0.464300 2.095057 -0.750522
v 0.090363 0.767973 3.068987
v -0.002612 1.216318 -0.805359
v -0.000000 2.103516 -0.887623
v 0.561840 1.710139 -0.859662
v -0.000448 1.595685 -0.916891
v 0.084677 1.150746 3.186927
v 0.172094 1.561218 3.039921
v 0.486336 1.238937 1.183960
v 0.499974 2.377767 0.889568
v 0.175772 0.812359 2.871843
v 0.619733 1.692391 0.872377
v 0.008212 1.000057 1.111762
v -0.000022 2.487596 0.979386
v 0.059274 0.755355 3.300223
v 0.033850 0.904883 3.383599
v 0.047665 0.721492 3.184880
v 0.570340 2.528199 1.239684
v 0.547401 0.650742 1.361637
v 0.004397 0.945904 1.468585
v 0.002099 2.650883 1.345335
v 0.118300 1.359717 3.203510
v 0.136209 0.776502 2.983127
v 0.177045 1.767568 2.834380
v 0.583003 2.528340 1.435916
v 0.450888 0.648705 1.417670
v 0.001859 0.982797 1.616714
v 0.000979 2.655061 1.544468
v 0.190837 0.856099 2.759477
v 0.177045 1.904730 2.657923
v 0.177045 0.907052 2.621881
v 0.540207 2.469419 1.719261
v 0.667379 1.980417 1.760958
v 0.556524 1.187543 1.938665
v 0.000145 1.078429 1.779560
v 0.000022 2.587758 1.817999
v 0.181751 2.060046 2.404090
v 0.181751 1.088802 2.289351
v 0.451775 2.257040 2.007700
v 0.557703 1.653447 1.929962
v 0.460520 1.377929 1.938409
v 0.000094 1.164668 1.909779
v -0.000000 2.337327 2.103331
v 0.227127 2.303800 2.070632
v 0.230419 1.261972 1.923643
v 0.271600 2.554620 1.765669
v 0.361252 1.128319 1.747971
v 0.364925 2.003284 2.359445
v 0.445173 1.436629 2.314745
v 0.364925 1.142854 2.238755
v 0.000000 1.053979 2.298050
v 0.000000 2.089163 2.406182
v 0.293568 2.618924 1.479477
v 0.308368 1.122391 1.639786
v 0.287169 2.616663 1.276950
v 0.355746 1.856578 2.614331
v 0.433703 1.362834 2.588803
v 0.355746 0.959309 2.577570
v 0.000000 0.881345 2.606893
v 0.000000 1.932324 2.645114
v 0.320601 1.191620 1.595148
v 0.250990 2.456718 0.911335
v 0.350207 1.210133 1.354942
v 0.372539 1.587626 2.780775
v 0.455708 1.378957 2.733875
v 0.382651 0.910184 2.719478
v 0.000000 0.831473 2.739841
v 0.000000 1.798087 2.816438
v 0.248955 1.640846 -0.897954
v 0.203268 2.097198 -0.851733
v 0.324504 1.286883 -0.757067
v 0.241143 1.337992 3.148920
v 0.339854 1.106918 3.026306
v 0.276080 0.816809 2.948668
v 0.000000 0.769610 2.947143
v 0.000000 1.385906 3.176707
v 0.249692 2.251966 -0.661172
v 0.282484 1.127206 -0.528799
v 0.307155 2.556982 0.093850
v 0.069124 0.907744 3.361584
v 0.125993 0.774527 3.264272
v 0.103346 0.747652 3.184489
v 0.000000 0.710455 3.192674
v 0.064203 0.855562 3.361911
v 0.000000 0.745911 3.294670
v 0.465527 1.414176 2.824906
v 0.000000 0.796484 2.845581
v 0.353261 0.859886 2.833132
v 0.311513 0.914702 0.120163
v 0.000000 1.594546 3.018877
v 0.402860 1.546063 2.860759
v 0.267639 2.510685 0.480969
v 0.000000 1.153431 3.186318
v 0.281549 0.973290 0.613855
v 0.301735 2.446674 -0.393975
v 0.356957 1.011038 -0.280668
v 0.186642 0.801726 3.035597
v 0.000000 0.768056 3.027712
v 0.210413 0.940716 3.145300
v 0.175549 1.119608 3.160904
v 0.070240 0.744887 3.121666
v 0.067630 0.990491 3.294587
v 0.139993 0.764260 3.116040
v 0.161300 0.858528 3.204274
v 0.000000 0.999960 3.284146
v 0.000000 0.739859 3.106298
v 0.134901 0.982762 3.262786
v 0.611201 2.261948 0.987864
v 0.720961 1.695904 0.933077
v 0.685741 1.352692 1.204651
v 0.670863 2.411113 1.231688
v 0.804427 1.807765 1.411466
v 0.833701 1.284576 1.630146
v 0.636332 2.425455 1.418175
v 0.814112 1.898277 1.566710
v 0.840345 1.255197 1.807588
v 0.639127 2.305081 1.590067
v 0.761465 1.982502 1.731599
v 0.768408 1.253210 1.941816
v 0.445475 0.905994 1.339674
v 0.546558 0.941952 1.272263
v 0.745426 0.839690 1.799782
v 0.592714 0.814426 1.840686
v 0.797832 0.839593 1.680726
v 0.414524 0.836192 1.559866
v 0.793720 0.864131 1.552251
v 0.689001 0.956562 1.271437
v 0.413021 0.803522 1.691330
v 0.454937 0.806156 1.778876
v 0.747512 0.653132 1.738064
v 0.597769 0.651594 1.778237
v 0.539411 0.213722 1.323015
v 0.801294 0.644507 1.649955
v 0.423656 0.642504 1.550976
v 0.421958 0.209257 1.375152
v 0.793710 0.642065 1.548983
v 0.684869 0.651011 1.371086
v 0.420715 0.645204 1.666298
v 0.461534 0.651995 1.739735
v 0.444835 0.454020 1.382838
v 0.550871 0.451801 1.331809
v 0.773216 0.455610 1.680241
v 0.609678 0.454726 1.717860
v 0.796340 0.447577 1.597076
v 0.421571 0.451761 1.504626
v 0.789823 0.443189 1.502594
v 0.703470 0.448267 1.340931
v 0.420269 0.455787 1.610430
v 0.461701 0.461144 1.678064
v 0.811897 0.146116 1.675925
v 0.603702 0.131082 1.703489
v 0.647322 0.166622 1.587840
v 0.812237 0.167425 1.592768
v 0.396288 0.191949 1.500409
v 0.640910 0.188028 1.491188
v 0.806473 0.182676 1.501499
v 0.708497 0.208887 1.333792
v 0.397117 0.173481 1.605267
v 0.412446 0.155612 1.670770
v 0.430731 0.332442 1.384822
v 0.406893 0.322915 1.620505
v 0.406022 0.326245 1.510452
v 0.801180 0.316178 1.509890
v 0.806795 0.315555 1.606982
v 0.788396 0.370365 1.695669
v 0.610465 0.350044 1.742786
v 0.707429 0.326667 1.342884
v 0.544093 0.331083 1.332723
v 0.449676 0.377144 1.692673
v 0.598397 0.206461 1.859873
v 0.596976 0.086505 1.831813
v 0.775058 0.102368 1.801365
v 0.436211 0.108519 1.797969
v 0.770618 0.224396 1.826940
v 0.443443 0.233343 1.823095
v 0.762347 2.220806 -0.271591
v 0.786859 1.686116 -0.072517
v 0.762499 1.095463 -0.277802
v 0.752301 2.140739 -0.507628
v 0.858080 1.705913 -0.558449
v 0.810257 1.204338 -0.513668
v 0.742108 2.022270 -0.706768
v 0.837748 1.714809 -0.777413
v 0.742208 1.338204 -0.752391
v 0.604655 0.127914 -1.043883
v 0.522956 1.055312 -0.938246
v 0.633451 0.878965 -0.340330
v 0.436747 0.884439 -0.404129
v 0.377369 0.957273 -0.660262
v 0.410854 1.037699 -0.894792
v 0.800221 0.969257 -0.651293
v 0.745711 1.043082 -0.898568
v 0.761902 0.901632 -0.415119
v 0.539456 0.852780 -0.968297
v 0.640448 0.480842 -0.546711
v 0.461249 0.517925 -0.602372
v 0.406989 0.690857 -0.774101
v 0.437357 0.826726 -0.936846
v 0.792157 0.687985 -0.755405
v 0.742381 0.832143 -0.935191
v 0.757401 0.530874 -0.594104
v 0.547723 0.255524 -1.244387
v 0.667251 0.024145 -0.848516
v 0.412377 0.035658 -0.903293
v 0.400215 0.134355 -1.071742
v 0.434081 0.234606 -1.218344
v 0.828893 0.137149 -1.055628
v 0.773569 0.239926 -1.216908
v 0.833696 0.049299 -0.898310
v 0.824508 0.244447 -0.792061
v 0.392940 0.331873 -0.960180
v 0.426799 0.430617 -1.106441
v 0.403186 0.232378 -0.797199
v 0.658080 0.215711 -0.746532
v 0.540437 0.451979 -1.132006
v 0.766286 0.436315 -1.104317
v 0.782985 0.090528 -0.733302
v 0.790092 -0.013792 -0.774400
v 0.659876 -0.039339 -0.725542
v 0.460477 -0.027554 -0.779207
v 0.453373 0.075113 -0.738093
v 0.652765 0.067879 -0.684194
v 0.783448 0.526879 -0.839814
v 0.424228 0.525987 -0.853960
v 0.641881 0.394445 -0.655500
v 0.750977 0.425861 -0.698498
v 0.452570 0.628062 -0.986954
v 0.474770 0.415597 -0.703268
v 0.547791 0.648880 -1.010865
v 0.737048 0.632817 -0.985489
v -0.000000 1.964712 -0.963352
v -0.000000 1.715167 -1.003691
v 0.092420 1.732640 -0.967433
v 0.076591 1.955334 -0.937061
v 0.127599 1.721564 -0.918682
v 0.088882 2.048142 -0.898695
v -0.000000 1.692332 -0.956154
v -0.000000 2.059583 -0.930772
v 0.353936 1.725601 2.712620
v 0.462452 1.303423 2.688492
v 0.346085 1.522268 2.987635
v 0.469988 1.257309 2.887369
v 0.431634 1.623012 2.823045
v 0.509515 1.604994 2.838522
v 0.472450 1.628499 2.840437
v 0.537234 1.569583 2.826007
v 0.536419 1.486300 2.789471
v 0.550043 1.528504 2.809417
v 0.514399 1.564118 2.871255
v 0.455471 1.575018 2.875080
v 0.486059 1.579452 2.877696
v 0.527030 1.491161 2.844756
v 0.527210 1.549748 2.864922
v 0.537319 1.521367 2.854100
v 0.372831 1.555112 2.863571
v 0.460350 1.371412 2.811119
v 0.490673 1.602764 2.885328
v 0.529939 1.581328 2.876919
v 0.447174 1.596361 2.882031
v 0.548145 1.560674 2.868551
v 0.562047 1.521440 2.854201
v 0.548125 1.480597 2.841382
v 0.383871 1.531521 2.856822
v 0.450291 1.392572 2.817128
v 0.413090 1.531409 2.845221
v 0.458299 1.436343 2.819357
v 0.473111 1.555521 2.857445
v 0.493557 1.544484 2.852806
v 0.451044 1.552325 2.855554
v 0.502798 1.534135 2.848243
v 0.510091 1.513687 2.840444
v 0.502668 1.491943 2.833719
v 0.399391 1.521013 2.842402
v 0.447307 1.420747 2.813721
v 0.058900 0.919864 3.352474
v 0.055763 0.831752 3.354631
v 0.099802 0.925123 3.324802
v 0.095412 0.836668 3.327801
v 0.000000 0.831640 3.357679
v 0.000000 0.917145 3.355695
v 0.030579 0.852896 3.383261
v 0.000000 0.903150 3.382348
v 0.000000 0.852729 3.382630
v -0.545555 1.140956 0.602876
v -0.532365 2.434943 0.474480
v -0.619186 1.253202 0.010155
v -0.618218 2.393131 -0.227825
v -0.713679 1.839067 0.071341
v -0.625216 1.154454 0.272093
v -0.608911 2.462521 0.120362
v -0.653157 1.748378 0.513865
v -0.723289 1.834447 0.169324
v -0.854792 0.321013 -0.389219
v -0.535471 2.314680 -0.527458
v -0.478410 1.313493 -0.657314
v -0.464511 2.113108 -0.749995
v -0.090362 0.767973 3.068987
v -0.567970 1.709432 -0.815978
v -0.084677 1.150746 3.186927
v -0.172094 1.561220 3.039922
v -0.461834 1.172837 1.018125
v -0.501014 2.380479 0.889703
v -0.175772 0.812359 2.871843
v -0.615279 1.695851 0.853600
v -0.059274 0.755355 3.300223
v -0.033850 0.904883 3.383599
v -0.047665 0.721492 3.184880
v -0.569280 2.539502 1.239715
v -0.570675 0.546840 0.973189
v -0.118300 1.359717 3.203510
v -0.136209 0.776502 2.983127
v -0.177045 1.767568 2.834380
v -0.581835 2.540885 1.435950
v -0.475599 0.527661 1.027882
v -0.190837 0.856099 2.759477
v -0.177045 1.904730 2.657923
v -0.177045 0.907052 2.621881
v -0.540677 2.478425 1.719297
v -0.672663 1.748606 1.722445
v -0.554140 0.952529 1.750094
v -0.181751 2.060046 2.404090
v -0.181751 1.088802 2.289351
v -0.455449 2.241396 2.014807
v -0.556848 1.556064 1.909741
v -0.457101 1.287795 1.898344
v -0.227358 2.303885 2.070635
v -0.229017 1.215917 1.900829
v -0.271203 2.555317 1.765668
v -0.358121 1.009124 1.653247
v -0.364925 2.003284 2.359445
v -0.445217 1.423192 2.313393
v -0.364925 1.142854 2.238756
v -0.290342 2.622267 1.479461
v -0.302082 1.008514 1.538596
v -0.283663 2.620414 1.276934
v -0.355746 1.856578 2.614331
v -0.433703 1.362835 2.588805
v -0.355746 0.959309 2.577573
v -0.301064 1.038665 1.429406
v -0.251181 2.457107 0.911338
v -0.325636 1.099256 1.181546
v -0.372539 1.587626 2.780775
v -0.455708 1.378962 2.733879
v -0.382651 0.910185 2.719481
v -0.251000 1.632047 -0.886423
v -0.203233 2.097553 -0.852370
v -0.337229 1.268081 -0.625387
v -0.241143 1.337996 3.148921
v -0.339854 1.106918 3.026306
v -0.276080 0.816809 2.948668
v -0.249303 2.257529 -0.665211
v -0.296821 1.184330 -0.375752
v -0.307072 2.558462 0.093071
v -0.069124 0.907744 3.361584
v -0.125993 0.774527 3.264272
v -0.103346 0.747652 3.184489
v -0.064203 0.855562 3.361911
v -0.465527 1.414187 2.824912
v -0.353261 0.859886 2.833132
v -0.320434 1.038717 0.213572
v -0.402860 1.546088 2.860763
v -0.267634 2.510717 0.480969
v -0.274993 1.033852 0.601042
v -0.301219 2.453529 -0.399011
v -0.373186 1.145352 -0.084288
v -0.186642 0.801726 3.035597
v -0.210413 0.940716 3.145300
v -0.175549 1.119608 3.160904
v -0.070240 0.744887 3.121666
v -0.067630 0.990491 3.294587
v -0.139993 0.764260 3.116040
v -0.161300 0.858528 3.204274
v -0.134901 0.982762 3.262786
v -0.616457 2.266303 0.989384
v -0.714526 1.676541 0.903407
v -0.659315 1.268553 1.041322
v -0.675232 2.418934 1.236722
v -0.803175 1.643454 1.334355
v -0.820210 1.099427 1.410131
v -0.638894 2.437511 1.419815
v -0.816471 1.688306 1.503104
v -0.831281 1.020803 1.571924
v -0.648738 2.295634 1.600395
v -0.767448 1.745753 1.690421
v -0.761892 0.988961 1.719894
v -0.452461 0.793562 1.022355
v -0.549865 0.852822 0.968222
v -0.768133 0.620201 1.444553
v -0.617785 0.577026 1.482787
v -0.818440 0.657071 1.330552
v -0.432924 0.662749 1.212840
v -0.810358 0.716657 1.214530
v -0.693908 0.876535 0.971205
v -0.436613 0.597240 1.338639
v -0.478668 0.582779 1.436490
v -0.778795 0.458864 1.334645
v -0.630158 0.445104 1.371673
v -0.568716 0.082157 0.823212
v -0.830785 0.474846 1.246828
v -0.451414 0.486445 1.155195
v -0.452589 0.073884 0.878691
v -0.820988 0.497837 1.148795
v -0.708198 0.548548 0.980608
v -0.451037 0.459128 1.266256
v -0.493258 0.448796 1.337344
v -0.471759 0.345805 0.938019
v -0.576676 0.358334 0.887796
v -0.806603 0.294824 1.217861
v -0.644241 0.291716 1.250840
v -0.827743 0.301046 1.138132
v -0.451228 0.316246 1.055299
v -0.819251 0.316315 1.048961
v -0.729462 0.356905 0.894646
v -0.452476 0.299365 1.156548
v -0.495512 0.294801 1.220658
v -0.850616 0.040014 1.188877
v -0.643637 0.046613 1.230333
v -0.683458 0.045081 1.106684
v -0.848420 0.041032 1.099650
v -0.430073 0.051679 1.007958
v -0.674415 0.050324 0.993104
v -0.840256 0.048043 0.998872
v -0.738061 0.079525 0.829952
v -0.433727 0.044257 1.122133
v -0.451061 0.043115 1.192722
v -0.459866 0.219136 0.906378
v -0.441466 0.176968 1.134341
v -0.438006 0.191238 1.028661
v -0.833150 0.189877 1.021086
v -0.840963 0.176013 1.113768
v -0.823716 0.222657 1.207466
v -0.648092 0.231024 1.236907
v -0.735666 0.228876 0.860614
v -0.572095 0.230889 0.853817
v -0.484973 0.224517 1.211653
v -0.641881 0.154060 1.360442
v -0.641157 0.041680 1.366232
v -0.817918 0.035540 1.325109
v -0.479053 0.038682 1.330510
v -0.812566 0.147185 1.322798
v -0.485213 0.147166 1.328131
v -0.760037 2.320288 -0.293612
v -0.793119 1.851783 -0.017681
v -0.778921 1.275995 -0.067995
v -0.751549 2.214833 -0.515744
v -0.865267 1.779588 -0.498304
v -0.826230 1.288785 -0.326218
v -0.743752 2.060162 -0.697869
v -0.845277 1.740514 -0.720030
v -0.757348 1.323840 -0.601235
v -0.642202 0.088719 -0.395125
v -0.543660 0.980142 -0.655423
v -0.653647 1.051829 -0.039882
v -0.457339 1.024827 -0.106898
v -0.398120 0.996762 -0.368726
v -0.431600 0.979341 -0.608857
v -0.820665 1.018292 -0.358484
v -0.766370 0.988167 -0.614492
v -0.782081 1.048173 -0.114750
v -0.563410 0.784558 -0.603409
v -0.668777 0.603144 -0.073623
v -0.489237 0.613087 -0.138790
v -0.432759 0.707439 -0.362725
v -0.461595 0.770942 -0.564298
v -0.817813 0.719042 -0.345059
v -0.766469 0.782038 -0.565292
v -0.785052 0.633800 -0.136540
v -0.584314 0.114146 -0.633262
v -0.705029 0.099214 -0.174136
v -0.450526 0.071799 -0.229280
v -0.437867 0.078099 -0.425513
v -0.470885 0.105129 -0.600774
v -0.866306 0.095965 -0.413408
v -0.810212 0.116750 -0.602418
v -0.871476 0.094932 -0.231922
v -0.858415 0.299848 -0.218719
v -0.426329 0.304023 -0.403991
v -0.459199 0.338664 -0.576220
v -0.437402 0.279576 -0.218516
v -0.692250 0.289764 -0.166162
v -0.572562 0.350940 -0.607904
v -0.798497 0.351764 -0.576635
v -0.818809 0.209328 -0.107959
v -0.827971 0.103284 -0.092185
v -0.697775 0.106510 -0.035928
v -0.498713 0.081680 -0.089240
v -0.489622 0.184360 -0.103919
v -0.688551 0.215357 -0.054286
v -0.812539 0.537878 -0.363106
v -0.453468 0.524938 -0.375112
v -0.672403 0.482983 -0.144923
v -0.781156 0.497273 -0.195899
v -0.480614 0.570084 -0.536420
v -0.505197 0.481176 -0.196967
v -0.575561 0.582140 -0.566517
v -0.764945 0.580404 -0.537381
v -0.092554 1.732124 -0.966231
v -0.076591 1.955334 -0.937061
v -0.128132 1.718611 -0.915868
v -0.088882 2.048142 -0.898695
v -0.353936 1.725601 2.712620
v -0.462452 1.303426 2.688496
v -0.346085 1.522274 2.987637
v -0.469988 1.257313 2.887372
v -0.431634 1.623045 2.823045
v -0.509515 1.605050 2.838524
v -0.472450 1.628552 2.840435
v -0.537234 1.569644 2.826015
v -0.536419 1.486334 2.789484
v -0.550043 1.528550 2.809428
v -0.514399 1.564165 2.871261
v -0.455471 1.575062 2.875085
v -0.486059 1.579499 2.877700
v -0.527030 1.491198 2.844768
v -0.527210 1.549795 2.864930
v -0.537319 1.521411 2.854111
v -0.372831 1.555120 2.863572
v -0.460350 1.371419 2.811124
v -0.490673 1.602817 2.885329
v -0.529939 1.581382 2.876924
v -0.447174 1.596404 2.882033
v -0.548145 1.560727 2.868558
v -0.562047 1.521487 2.854212
v -0.548125 1.480636 2.841396
v -0.383871 1.531547 2.856827
v -0.450291 1.392580 2.817133
v -0.413090 1.531437 2.845227
v -0.458299 1.436353 2.819362
v -0.473111 1.555562 2.857450
v -0.493557 1.544517 2.852812
v -0.451044 1.552368 2.855561
v -0.502798 1.534172 2.848250
v -0.510091 1.513728 2.840455
v -0.502668 1.491976 2.833730
v -0.399391 1.521038 2.842407
v -0.447307 1.420756 2.813726
v -0.058900 0.919864 3.352474
v -0.055763 0.831752 3.354631
v -0.099802 0.925123 3.324802
v -0.095412 0.836668 3.327801
v -0.030579 0.852896 3.383261
v 0.291561 1.134840 3.060864
v 0.306648 1.202084 3.079744
v 0.269728 1.130616 3.102578
v 0.232186 1.090655 3.098315
v 0.245906 1.137426 3.072845
v 0.291926 1.206292 3.061368
v 0.256597 1.199458 3.128865
v 0.210577 1.130591 3.140341
v 0.195855 1.134799 3.121965
v 0.232775 1.206267 3.099131
v 0.270316 1.246228 3.103395
v 0.210942 1.202043 3.140845
v 0.285805 1.126458 3.078362
v 0.307506 1.168465 3.064940
v 0.294673 1.165983 3.089459
v 0.307720 1.210464 3.065237
v 0.298852 1.170939 3.054139
v 0.263739 1.102969 3.075856
v 0.250905 1.100486 3.100375
v 0.271803 1.130461 3.060885
v 0.236903 1.104489 3.082898
v 0.272017 1.172459 3.061181
v 0.295019 1.233938 3.089939
v 0.286365 1.236412 3.079138
v 0.265254 1.164439 3.118331
v 0.286955 1.206447 3.104909
v 0.216138 1.100471 3.122571
v 0.238204 1.123960 3.125078
v 0.215548 1.130436 3.096800
v 0.207484 1.102945 3.111770
v 0.264299 1.212923 3.076632
v 0.237249 1.172444 3.083378
v 0.265600 1.232394 3.118811
v 0.230486 1.164424 3.140528
v 0.194783 1.126419 3.136473
v 0.207830 1.170900 3.112250
v 0.251598 1.236397 3.101335
v 0.230700 1.206423 3.140824
v 0.238764 1.233914 3.125854
v 0.203650 1.165944 3.147570
v 0.194997 1.168418 3.136769
v 0.216698 1.210425 3.123348
v -0.291561 1.134840 3.060864
v -0.306648 1.202084 3.079744
v -0.269728 1.130616 3.102579
v -0.232186 1.090655 3.098315
v -0.245906 1.137426 3.072845
v -0.291925 1.206292 3.061368
v -0.256597 1.199457 3.128865
v -0.210577 1.130591 3.140342
v -0.195854 1.134799 3.121966
v -0.232775 1.206267 3.099131
v -0.270316 1.246228 3.103395
v -0.210942 1.202043 3.140846
v -0.285805 1.126458 3.078362
v -0.307506 1.168465 3.064940
v -0.294673 1.165982 3.089459
v -0.307720 1.210464 3.065237
v -0.298852 1.170939 3.054139
v -0.263739 1.102969 3.075856
v -0.250905 1.100486 3.100375
v -0.271803 1.130460 3.060885
v -0.236903 1.104489 3.082898
v -0.272017 1.172459 3.061182
v -0.295019 1.233938 3.089939
v -0.286365 1.236412 3.079138
v -0.265254 1.164439 3.118332
v -0.286955 1.206447 3.104910
v -0.216137 1.100471 3.122571
v -0.238204 1.123960 3.125078
v -0.215548 1.130436 3.096800
v -0.207484 1.102945 3.111770
v -0.264299 1.212923 3.076632
v -0.237249 1.172444 3.083378
v -0.265599 1.232394 3.118812
v -0.230486 1.164424 3.140528
v -0.194782 1.126419 3.136473
v -0.207830 1.170900 3.112250
v -0.251597 1.236397 3.101335
v -0.230700 1.206423 3.140825
v -0.238764 1.233914 3.125854
v -0.203650 1.165944 3.147571
v -0.194997 1.168418 3.136770
v -0.216698 1.210425 3.123348
vn -0.8503 -0.5256 0.0287
vn 0.3728 0.7776 -0.5063
vn 0.9869 -0.1368 -0.0858
vn 0.9910 0.1312 -0.0251
vn 0.9691 0.1520 0.1943
vn 0.9781 -0.1316 0.1614
vn 0.9770 -0.1564 0.1449
vn 0.3130 -0.8989 0.3064
vn 0.1839 -0.9547 -0.2340
vn 0.1545 -0.9768 0.1481
vn 0.1163 0.9634 -0.2417
vn 0.1805 0.9720 0.1507
vn 0.2799 0.7347 -0.6179
vn 0.2158 -0.1726 -0.9611
vn 0.0938 -0.9200 -0.3806
vn 0.6651 0.3078 0.6804
vn 0.2074 0.2117 -0.9551
vn 0.0790 -0.2765 -0.9578
vn 0.2469 0.3075 -0.9189
vn 0.2181 -0.8407 -0.4957
vn 0.8206 0.5710 0.0253
vn 0.9950 -0.0859 -0.0501
vn 0.1540 0.9797 0.1281
vn 0.9821 0.1654 0.0905
vn 0.4176 -0.5926 -0.6888
vn 0.1169 0.9930 -0.0175
vn 0.0081 0.9145 -0.4045
vn -0.6499 -0.2551 -0.7160
vn 0.6445 0.1612 -0.7474
vn 0.1660 0.9584 0.2321
vn -0.9310 -0.2798 -0.2345
vn 0.9382 -0.0375 -0.3441
vn 0.0104 0.8028 -0.5961
vn 0.6291 0.0129 0.7772
vn -0.1645 -0.5561 0.8147
vn 0.2752 -0.9400 0.2016
vn -0.0006 -0.9763 -0.2166
vn 0.0535 -0.9920 0.1143
vn 0.1688 -0.2850 0.9435
vn 0.7461 0.5144 -0.4228
vn 0.3539 0.9116 -0.2094
vn 0.9482 -0.3058 0.0864
vn 0.3066 -0.8397 -0.4483
vn 0.3145 0.9398 0.1337
vn 0.2081 0.7378 0.6422
vn 0.0589 0.8039 -0.5919
vn 0.8245 0.1580 0.5433
vn 0.4757 -0.4938 0.7279
vn 0.8127 0.1327 -0.5674
vn 0.1705 -0.3054 -0.9368
vn 0.9853 0.1406 0.0971
vn 0.9741 0.0972 -0.2041
vn 0.1705 0.7737 0.6103
vn 0.5924 -0.8031 -0.0646
vn 0.9379 0.1150 0.3273
vn 0.3050 0.9430 0.1333
vn 0.2958 0.9550 -0.0199
vn 0.9790 0.1963 0.0556
vn 0.2306 0.8797 -0.4158
vn 0.0757 0.7861 0.6134
vn 0.1324 -0.8718 -0.4716
vn 0.9751 -0.2141 -0.0570
vn 0.3263 0.9155 0.2352
vn 0.1166 0.8385 0.5323
vn -0.0032 0.6171 0.7869
vn 0.5407 -0.8354 -0.0987
vn 0.8387 -0.3065 0.4502
vn 0.2122 -0.9517 -0.2220
vn 0.2057 -0.7508 0.6277
vn 0.1824 -0.9169 -0.3549
vn 0.9338 -0.1924 -0.3015
vn 0.2644 -0.9184 0.2942
vn 0.8717 -0.4762 0.1153
vn 0.3324 -0.9335 -0.1341
vn 0.2929 -0.9009 -0.3202
vn 0.3280 0.7076 0.6258
vn 0.3416 0.7280 0.5945
vn 0.7591 0.0490 0.6491
vn 0.4519 0.6369 0.6246
vn 0.1543 -0.8653 -0.4770
vn 0.1859 -0.9389 0.2895
vn 0.8837 -0.0333 0.4668
vn 0.3505 0.8011 0.4852
vn 0.3821 0.4982 0.7783
vn 0.1217 -0.9580 -0.2597
vn 0.4144 0.5419 0.7312
vn 0.1593 -0.9224 -0.3519
vn 0.5346 -0.0421 0.8440
vn 0.1479 -0.9394 -0.3093
vn 0.3937 -0.8951 0.2095
vn -0.3039 -0.4321 0.8491
vn -0.0092 0.6451 0.7641
vn 0.1791 -0.9203 -0.3477
vn 0.9705 -0.2410 -0.0065
vn 0.0310 -0.5858 0.8098
vn 0.0497 0.7043 0.7082
vn 0.6301 -0.0558 0.7745
vn 0.1441 -0.9339 -0.3272
vn -0.1346 -0.0054 0.9909
vn 0.4469 0.6749 0.5872
vn 0.3326 -0.0873 0.9390
vn 0.0463 -0.9978 -0.0477
vn 0.3308 -0.9345 0.1313
vn 0.7809 -0.3768 0.4982
vn 0.4028 0.4740 0.7830
vn 0.1485 -0.9286 -0.3400
vn 0.8472 0.0417 0.5296
vn -0.0169 0.5485 0.8360
vn 0.2233 -0.9246 -0.3085
vn 0.8796 -0.3950 0.2652
vn 0.9606 -0.1419 -0.2391
vn 0.9648 0.2627 -0.0104
vn 0.9527 0.1714 -0.2508
vn 0.9080 0.3805 0.1753
vn 0.9982 0.0263 -0.0538
vn 0.9272 0.1370 0.3485
vn 0.7535 0.3564 0.5525
vn 0.8946 0.3834 0.2296
vn -0.5700 -0.1837 0.8009
vn 0.0288 0.2450 0.9691
vn 0.0454 -0.3019 -0.9523
vn 0.8839 -0.0980 0.4572
vn -0.9830 -0.0584 -0.1743
vn -0.9987 -0.0455 -0.0235
vn 0.9987 0.0123 -0.0497
vn 0.2717 -0.3173 0.9086
vn 0.8785 -0.2088 0.4297
vn -0.8752 -0.2151 0.4333
vn 0.1332 -0.2048 -0.9697
vn -0.9499 -0.2591 -0.1746
vn 0.9076 -0.0685 0.4142
vn -0.9795 0.0611 -0.1919
vn -0.9997 0.0119 -0.0195
vn 0.9974 -0.0043 -0.0718
vn 0.2347 -0.2585 0.9371
vn 0.8624 0.1251 -0.4906
vn -0.8781 -0.1345 0.4592
vn -0.3204 -0.2998 0.8986
vn -0.4746 -0.2618 -0.8403
vn 0.8957 -0.0867 -0.4362
vn 0.0648 0.0785 -0.9948
vn 0.9931 0.0685 0.0949
vn -0.9784 0.0848 -0.1885
vn -0.9976 0.0673 0.0147
vn 0.9975 0.0426 -0.0567
vn 0.9695 0.0467 0.2408
vn 0.0649 0.1509 -0.9864
vn -0.8474 -0.1562 0.5075
vn -0.2602 -0.2973 0.9186
vn -0.4622 0.1467 -0.8746
vn -0.0221 -0.9900 -0.1394
vn 0.0245 -0.9626 -0.2698
vn -0.0318 -0.9807 -0.1929
vn -0.0213 -0.9899 -0.1403
vn -0.0578 -0.9551 -0.2906
vn -0.0047 -0.9815 -0.1912
vn -0.9257 0.0803 0.3695
vn -0.9836 0.1065 0.1458
vn -0.4107 0.0960 -0.9067
vn 0.8690 0.0562 -0.4916
vn 0.8771 0.0362 -0.4789
vn -0.4249 0.0258 -0.9049
vn -0.2518 0.2128 0.9441
vn -0.8740 0.1548 0.4605
vn 0.2220 0.2205 0.9498
vn 0.9947 0.0795 -0.0646
vn -0.9938 0.1111 -0.0023
vn -0.9763 0.1113 -0.1855
vn 0.9732 0.1364 0.1852
vn 0.0606 -0.0125 -0.9981
vn 0.1937 -0.2100 0.9583
vn -0.2430 -0.1977 0.9496
vn 0.1037 0.6414 0.7602
vn 0.0269 -0.9455 -0.3245
vn -0.0951 0.6531 0.7513
vn -0.0613 -0.9408 -0.3334
vn 0.9870 0.1436 0.0716
vn 0.9551 -0.1749 -0.2390
vn 0.9853 -0.0867 0.1470
vn 0.9490 0.2809 -0.1429
vn 0.5854 -0.3297 0.7406
vn 0.5152 0.7770 -0.3616
vn 0.9841 -0.1125 0.1374
vn 0.3444 0.7599 -0.5513
vn -0.9727 -0.1641 0.1641
vn -0.3502 0.1254 -0.9282
vn -0.3161 -0.4539 0.8331
vn 0.9874 -0.0786 0.1371
vn 0.1619 0.4511 -0.8777
vn -0.3813 0.3444 -0.8579
vn -0.9346 -0.2297 -0.2716
vn -0.1669 -0.6743 0.7194
vn -0.2776 0.4689 -0.8385
vn -0.9417 -0.1883 0.2787
vn 0.9991 0.0423 -0.0006
vn -0.9811 0.0668 -0.1815
vn 0.5003 -0.3867 0.7747
vn 0.1785 0.1622 -0.9705
vn 0.9752 0.0397 -0.2179
vn -0.9808 -0.0542 -0.1872
vn 0.0021 -0.8785 -0.4777
vn 0.0550 -0.8676 -0.4941
vn 0.0411 -0.8340 -0.5502
vn 0.0069 -0.8425 -0.5387
vn -0.9977 -0.0593 0.0320
vn 0.9431 -0.1041 0.3158
vn 0.1390 0.4960 -0.8571
vn 0.9604 0.1643 -0.2252
vn 0.9569 0.2500 -0.1477
vn 0.1473 0.5210 -0.8407
vn 0.3553 -0.3547 0.8648
vn -0.9566 0.1199 0.2656
vn -0.9785 0.1896 -0.0816
vn 0.9614 0.1756 0.2118
vn -0.2418 -0.4119 0.8785
vn -0.2947 0.5157 -0.8045
vn -0.2584 -0.3684 0.8930
vn 0.3846 -0.3127 0.8685
vn -0.1942 0.3380 0.9209
vn 0.0654 -0.8835 -0.4639
vn 0.2344 0.3305 0.9142
vn 0.0004 -0.8899 -0.4562
vn -0.3078 0.1963 -0.9310
vn -0.3072 -0.7181 0.6244
vn 0.9855 -0.1317 0.1066
vn -0.9786 -0.0139 -0.2055
vn -0.9695 -0.2037 0.1361
vn 0.4715 -0.6616 0.5830
vn 0.1641 0.2226 -0.9610
vn 0.9681 0.0538 -0.2448
vn 0.3368 0.1505 -0.9295
vn 0.3202 -0.8508 -0.4166
vn 0.3507 0.3110 -0.8834
vn 0.2232 0.5228 -0.8227
vn 0.1835 -0.2004 -0.9624
vn 0.2881 0.1115 -0.9511
vn 0.9570 0.2844 0.0565
vn 0.9333 0.2903 0.2111
vn 0.9963 0.0815 -0.0281
vn 0.8966 0.3174 0.3088
vn -0.5833 0.7244 0.3674
vn 0.7660 0.6417 -0.0383
vn 0.8088 -0.5658 -0.1604
vn 0.5162 0.8201 0.2469
vn -0.2397 0.8333 0.4982
vn 0.9130 0.3699 -0.1719
vn 0.9427 -0.2105 -0.2589
vn 0.2565 0.3728 -0.8917
vn -0.0613 -0.2995 0.9521
vn 0.0307 -0.3254 0.9451
vn -0.0301 -0.3125 0.9494
vn 0.0069 -0.3467 0.9379
vn -0.0000 -0.2978 0.9546
vn 0.0382 -0.3578 0.9330
vn -0.0443 -0.3558 0.9335
vn 0.0456 -0.2936 0.9548
vn -0.0023 -0.3100 0.9507
vn 0.0083 -0.2714 0.9624
vn 0.1650 -0.6613 0.7317
vn -0.0310 -0.2825 0.9588
vn 0.2957 -0.5910 0.7505
vn -0.4093 0.0926 0.9077
vn -0.4126 -0.1379 0.9004
vn -0.1412 -0.5940 0.7920
vn 0.7279 0.1571 0.6675
vn -0.2077 -0.5437 0.8131
vn -0.5095 0.0495 0.8590
vn 0.0303 -0.6553 0.7548
vn 0.3193 0.7266 0.6083
vn 0.5296 -0.4141 0.7403
vn 0.5248 -0.4732 0.7076
vn -0.0292 0.0004 0.9996
vn 0.0200 -0.7806 0.6247
vn -0.0339 0.8992 0.4363
vn 0.7525 -0.0343 0.6577
vn 0.8360 -0.5131 0.1947
vn -0.2451 0.8481 -0.4697
vn -0.9845 -0.1526 -0.0866
vn -0.9855 0.1676 -0.0250
vn -0.9550 0.1863 0.2308
vn -0.9723 -0.1260 0.1971
vn -0.9701 -0.1901 0.1510
vn -0.4373 -0.8935 0.1018
vn -0.4268 -0.8599 -0.2799
vn -0.3574 -0.9332 0.0384
vn -0.1020 0.9664 -0.2361
vn -0.1784 0.9721 0.1522
vn -0.2047 0.7042 -0.6799
vn -0.2707 -0.3635 -0.8914
vn -0.4533 -0.8534 -0.2572
vn -0.5907 0.4507 0.6693
vn -0.2600 0.1549 -0.9531
vn -0.1993 -0.4744 -0.8574
vn -0.2594 0.1889 -0.9471
vn -0.3920 -0.8579 -0.3323
vn -0.8091 0.5873 0.0198
vn -0.9979 0.0077 -0.0650
vn -0.1531 0.9799 0.1276
vn -0.9792 0.1681 0.1136
vn -0.3086 -0.3557 -0.8822
vn -0.1051 0.9943 -0.0170
vn -0.0001 0.9131 -0.4077
vn 0.6842 0.0088 -0.7293
vn -0.6344 0.1778 -0.7523
vn -0.1602 0.9587 0.2351
vn 0.9570 -0.2748 -0.0927
vn -0.9283 0.1468 -0.3417
vn 0.0176 0.8026 -0.5963
vn -0.8028 -0.1558 0.5755
vn 0.1485 -0.6229 0.7681
vn -0.2689 -0.9594 0.0856
vn -0.4187 -0.8848 -0.2046
vn -0.3258 -0.9428 0.0713
vn -0.2731 -0.5499 0.7893
vn -0.7387 0.5202 -0.4285
vn -0.2980 0.9349 -0.1927
vn -0.9352 -0.3279 0.1337
vn -0.2442 -0.9229 -0.2977
vn -0.2824 0.9489 0.1405
vn -0.2071 0.7377 0.6426
vn -0.0419 0.7988 -0.6001
vn -0.8784 0.1114 0.4649
vn -0.4713 -0.1545 0.8683
vn -0.8202 0.1287 -0.5575
vn -0.3631 -0.3826 -0.8495
vn -0.9859 0.1391 0.0928
vn -0.9739 0.0225 -0.2257
vn -0.1702 0.7736 0.6104
vn -0.2909 -0.9418 -0.1687
vn -0.9471 0.0995 0.3052
vn -0.2882 0.9477 0.1374
vn -0.2680 0.9632 -0.0207
vn -0.9790 0.1963 0.0556
vn -0.2120 0.8795 -0.4260
vn -0.0757 0.7861 0.6134
vn -0.1324 -0.8718 -0.4716
vn -0.9743 -0.2187 -0.0540
vn -0.2991 0.9232 0.2414
vn -0.1166 0.8385 0.5323
vn 0.0032 0.6171 0.7869
vn -0.1951 -0.9805 0.0230
vn -0.8387 -0.3065 0.4502
vn -0.2122 -0.9517 -0.2220
vn -0.1225 -0.7635 0.6341
vn -0.1824 -0.9169 -0.3549
vn -0.9338 -0.1924 -0.3015
vn -0.0367 -0.9465 0.3206
vn -0.8717 -0.4762 0.1153
vn -0.3324 -0.9335 -0.1341
vn -0.1856 -0.9427 -0.2773
vn -0.3264 0.6977 0.6377
vn -0.3545 0.7271 0.5879
vn -0.7591 0.0490 0.6491
vn -0.4519 0.6369 0.6246
vn -0.1543 -0.8653 -0.4770
vn -0.1859 -0.9389 0.2895
vn -0.8837 -0.0333 0.4668
vn -0.3505 0.8011 0.4852
vn -0.3821 0.4982 0.7783
vn -0.1217 -0.9580 -0.2597
vn -0.4144 0.5419 0.7312
vn -0.1593 -0.9224 -0.3519
vn -0.5346 -0.0421 0.8440
vn -0.1479 -0.9394 -0.3093
vn -0.3937 -0.8951 0.2095
vn 0.3039 -0.4320 0.8491
vn 0.0092 0.6451 0.7641
vn -0.1791 -0.9203 -0.3477
vn -0.9705 -0.2410 -0.0065
vn -0.0310 -0.5858 0.8098
vn -0.0497 0.7043 0.7082
vn -0.6301 -0.0558 0.7745
vn -0.1441 -0.9339 -0.3272
vn 0.1346 -0.0054 0.9909
vn -0.4469 0.6749 0.5872
vn -0.3326 -0.0873 0.9390
vn -0.0463 -0.9978 -0.0477
vn -0.3308 -0.9345 0.1313
vn -0.7809 -0.3768 0.4982
vn -0.4028 0.4740 0.7830
vn -0.1485 -0.9286 -0.3400
vn -0.8472 0.0417 0.5296
vn 0.0169 0.5485 0.8360
vn -0.2233 -0.9246 -0.3085
vn -0.8796 -0.3950 0.2652
vn -0.9406 -0.1098 -0.3213
vn -0.9795 0.1996 0.0282
vn -0.9590 0.1567 -0.2361
vn -0.9581 0.2395 0.1570
vn -0.9973 0.0177 -0.0717
vn -0.9432 0.0290 0.3309
vn -0.6905 0.1862 0.6990
vn -0.8857 0.3998 0.2359
vn 0.4137 -0.5383 0.7342
vn -0.1993 0.0201 0.9797
vn -0.0388 -0.0205 -0.9990
vn -0.8962 -0.1708 0.4095
vn 0.9821 -0.0719 -0.1741
vn 0.9952 -0.0946 -0.0232
vn -0.9956 0.0770 -0.0535
vn -0.3009 -0.5588 0.7728
vn -0.9034 -0.2526 0.3465
vn 0.8302 -0.4296 0.3552
vn -0.0165 0.1689 -0.9855
vn 0.9473 -0.2474 -0.2034
vn -0.9098 -0.1822 0.3729
vn 0.9838 0.0936 -0.1528
vn 1.0000 -0.0057 0.0029
vn -0.9952 0.0390 -0.0893
vn -0.2099 -0.5680 0.7958
vn -0.8478 0.2713 -0.4557
vn 0.8625 -0.3325 0.3815
vn 0.2400 -0.6170 0.7495
vn 0.4751 -0.0526 -0.8783
vn -0.8885 0.0869 -0.4505
vn -0.0426 0.2010 -0.9787
vn -0.9932 0.1016 0.0564
vn 0.9843 0.0794 -0.1578
vn 0.9979 0.0529 0.0375
vn -0.9952 0.0623 -0.0755
vn -0.9750 0.0958 0.2004
vn -0.0443 0.4132 -0.9096
vn 0.8093 -0.3499 0.4718
vn 0.1888 -0.6067 0.7722
vn 0.4767 0.3737 -0.7957
vn 0.0150 -0.9847 -0.1737
vn 0.0290 -0.9996 -0.0027
vn 0.0045 -0.9985 -0.0553
vn 0.0077 -0.9838 -0.1791
vn -0.0096 -0.9999 0.0031
vn 0.0193 -0.9983 -0.0555
vn 0.9306 0.0882 0.3552
vn 0.9805 0.1270 0.1497
vn 0.4334 0.1904 -0.8808
vn -0.8602 0.1182 -0.4962
vn -0.8646 0.1822 -0.4683
vn 0.4369 0.2513 -0.8637
vn 0.1710 -0.1615 0.9719
vn 0.8544 0.0114 0.5194
vn -0.1773 -0.1501 0.9726
vn -0.9902 0.1212 -0.0694
vn 0.9953 0.0903 0.0362
vn 0.9811 0.1308 -0.1422
vn -0.9751 0.1167 0.1886
vn -0.0444 0.2573 -0.9653
vn -0.2223 0.0398 0.9742
vn 0.2098 0.0427 0.9768
vn -0.1411 0.8299 0.5398
vn 0.0417 -0.9983 -0.0399
vn 0.1311 0.8354 0.5338
vn -0.0259 -0.9990 -0.0366
vn -0.9836 0.1744 0.0450
vn -0.9667 -0.1902 -0.1714
vn -0.9863 -0.0307 0.1619
vn -0.9430 0.2701 -0.1945
vn -0.5810 -0.1315 0.8033
vn -0.3591 0.8587 -0.3655
vn -0.9850 -0.0317 0.1696
vn -0.2974 0.6872 -0.6628
vn 0.9709 -0.1002 0.2176
vn 0.3442 -0.2582 -0.9027
vn 0.3268 -0.0896 0.9408
vn -0.9878 -0.0017 0.1556
vn -0.1884 0.0376 -0.9814
vn 0.2780 -0.0996 -0.9554
vn 0.9052 -0.3811 -0.1882
vn 0.2456 -0.2986 0.9222
vn 0.2788 0.0876 -0.9563
vn 0.9354 -0.0626 0.3479
vn -0.9980 0.0589 -0.0212
vn 0.9810 -0.0304 -0.1914
vn -0.4939 -0.0455 0.8683
vn -0.1805 -0.2319 -0.9559
vn -0.9753 -0.0324 -0.2186
vn 0.9779 -0.1425 -0.1528
vn -0.0118 -0.9997 0.0215
vn -0.0836 -0.9965 -0.0051
vn -0.0603 -0.9898 -0.1292
vn -0.0249 -0.9932 -0.1141
vn 0.9965 -0.0609 0.0571
vn -0.9397 0.0699 0.3347
vn -0.1345 0.1134 -0.9844
vn -0.9581 0.0783 -0.2754
vn -0.9523 0.1963 -0.2337
vn -0.1420 0.1801 -0.9733
vn -0.3537 -0.0175 0.9352
vn 0.9605 0.1917 0.2018
vn 0.9810 0.1275 -0.1460
vn -0.9570 0.2611 0.1264
vn 0.2374 -0.0761 0.9684
vn 0.2990 0.1802 -0.9371
vn 0.2650 0.1264 0.9559
vn -0.3881 0.1769 0.9045
vn 0.2072 0.7612 0.6145
vn -0.1034 -0.9936 0.0461
vn -0.2074 0.7663 0.6080
vn 0.0039 -0.9985 0.0555
vn 0.3065 -0.1740 -0.9358
vn 0.2948 -0.4546 0.8405
vn -0.9870 -0.0643 0.1470
vn 0.9770 -0.1087 -0.1833
vn 0.9657 -0.1587 0.2054
vn -0.4763 -0.3993 0.7834
vn -0.1653 -0.1519 -0.9745
vn -0.9682 -0.0236 -0.2491
vn -0.3430 0.1480 -0.9276
vn -0.3169 -0.8458 -0.4292
vn -0.3507 0.3110 -0.8834
vn -0.2211 0.5200 -0.8251
vn -0.2135 -0.2138 -0.9533
vn -0.3164 0.0954 -0.9438
vn -0.9570 0.2844 0.0565
vn -0.9333 0.2903 0.2111
vn -0.9963 0.0815 -0.0281
vn -0.8966 0.3174 0.3088
vn 0.5835 0.7243 0.3673
vn -0.7660 0.6417 -0.0382
vn -0.8089 -0.5657 -0.1604
vn -0.5162 0.8201 0.2469
vn 0.2400 0.8332 0.4981
vn -0.9131 0.3698 -0.1719
vn -0.9427 -0.2105 -0.2589
vn -0.2565 0.3727 -0.8918
vn 0.0613 -0.2995 0.9521
vn -0.0307 -0.3252 0.9451
vn 0.0300 -0.3124 0.9495
vn -0.0069 -0.3466 0.9380
vn -0.0000 -0.2977 0.9547
vn -0.0383 -0.3576 0.9331
vn 0.0442 -0.3557 0.9336
vn -0.0457 -0.2936 0.9548
vn 0.0023 -0.3099 0.9508
vn -0.0084 -0.2714 0.9624
vn -0.1652 -0.6613 0.7317
vn 0.0310 -0.2825 0.9588
vn -0.2958 -0.5909 0.7505
vn 0.4094 0.0926 0.9077
vn 0.4126 -0.1378 0.9004
vn 0.1412 -0.5938 0.7921
vn -0.7279 0.1571 0.6675
vn 0.2076 -0.5436 0.8133
vn 0.5096 0.0495 0.8590
vn -0.0303 -0.6552 0.7549
vn -0.3193 0.7266 0.6083
vn -0.5296 -0.4141 0.7403
vn -0.5248 -0.4732 0.7076
vn 0.0292 0.0004 0.9996
vn -0.0200 -0.7806 0.6247
vn 0.0339 0.8992 0.4363
vn -0.7525 -0.0343 0.6577
vn 0.8961 -0.4354 0.0862
vn 0.9975 -0.0056 0.0705
vn 0.7307 -0.6775 -0.0842
vn 0.1099 -0.5000 -0.8590
vn 0.0413 -0.1910 -0.9807
vn 0.9363 0.2698 0.2250
vn 0.6878 -0.2297 0.6886
vn 0.3444 -0.7687 0.5390
vn -0.6069 -0.0756 -0.7912
vn -0.4208 0.2524 -0.8713
vn 0.7919 0.0961 0.6030
vn 0.5964 -0.2727 0.7549
vn -0.3952 -0.9123 0.1077
vn -0.6285 0.0774 -0.7739
vn -0.3576 0.4247 -0.8317
vn 0.4470 0.1471 0.8823
vn 0.2431 -0.1484 0.9586
vn -0.9975 0.0056 -0.0705
vn -0.7601 0.3280 -0.5610
vn -0.4475 0.8825 -0.1449
vn -0.7307 0.6775 0.0842
vn -0.6822 0.6717 -0.2890
vn -0.6942 0.4734 -0.5422
vn -0.8961 0.4354 -0.0862
vn -0.8552 0.3088 -0.4163
vn -0.8798 0.1726 -0.4430
vn -0.7220 0.2649 0.6391
vn -0.7805 -0.0004 0.6252
vn -0.1738 -0.2299 0.9576
vn -0.0413 0.1910 0.9807
vn 0.2534 -0.0081 0.9673
vn 0.4174 -0.0085 0.9087
vn -0.1099 0.5000 0.8590
vn 0.2535 0.4042 0.8788
vn 0.2197 0.6917 0.6879
vn -0.3444 0.7687 -0.5390
vn -0.4625 0.5117 -0.7241
vn -0.5848 0.4162 -0.6962
vn -0.6878 0.2297 -0.6886
vn -0.6976 0.1356 -0.7035
vn -0.7767 0.0899 -0.6234
vn -0.9363 -0.2698 -0.2250
vn -0.6272 -0.6996 0.3423
vn -0.0725 -0.5167 0.8531
vn 0.4208 -0.2524 0.8713
vn 0.5257 -0.2141 0.8233
vn 0.5343 -0.1196 0.8368
vn 0.6069 0.0756 0.7912
vn 0.6835 0.1841 0.7063
vn 0.5927 0.5008 0.6307
vn -0.5964 0.2727 -0.7549
vn -0.5257 0.2141 -0.8233
vn -0.5343 0.1196 -0.8368
vn -0.7919 -0.0961 -0.6030
vn -0.6835 -0.1842 -0.7063
vn -0.5928 -0.5008 -0.6308
vn 0.3576 -0.4247 0.8317
vn 0.4625 -0.5117 0.7241
vn 0.5848 -0.4163 0.6962
vn 0.6285 -0.0774 0.7739
vn 0.6976 -0.1356 0.7036
vn 0.7767 -0.0899 0.6234
vn 0.3952 0.9123 -0.1077
vn 0.6272 0.6996 -0.3423
vn 0.0725 0.5167 -0.8531
vn -0.2431 0.1484 -0.9586
vn -0.2534 0.0081 -0.9673
vn -0.4174 0.0085 -0.9087
vn -0.4471 -0.1471 -0.8823
vn -0.2535 -0.4042 -0.8788
vn -0.2197 -0.6917 -0.6879
vn 0.4475 -0.8825 0.1449
vn 0.6822 -0.6717 0.2890
vn 0.6942 -0.4734 0.5422
vn 0.1738 0.2299 -0.9576
vn 0.7805 0.0004 -0.6252
vn 0.7220 -0.2649 -0.6391
vn 0.7601 -0.3280 0.5609
vn 0.8552 -0.3088 0.4163
vn 0.8798 -0.1726 0.4430
vn -0.8961 -0.4354 0.0862
vn -0.9975 -0.0056 0.0705
vn -0.7307 -0.6775 -0.0842
vn -0.1099 -0.5000 -0.8590
vn -0.0413 -0.1910 -0.9807
vn -0.9363 0.2698 0.2250
vn -0.6878 -0.2297 0.6886
vn -0.3444 -0.7687 0.5390
vn 0.6069 -0.0756 -0.7912
vn 0.4208 0.2524 -0.8713
vn -0.7919 0.0961 0.6030
vn -0.5964 -0.2727 0.7549
vn 0.3952 -0.9123 0.1077
vn 0.6285 0.0774 -0.7739
vn 0.3576 0.4247 -0.8317
vn -0.4471 0.1471 0.8823
vn -0.2432 -0.1484 0.9586
vn 0.9975 0.0056 -0.0705
vn 0.7601 0.3280 -0.5609
vn 0.4475 0.8825 -0.1449
vn 0.7307 0.6775 0.0842
vn 0.6822 0.6717 -0.2890
vn 0.6942 0.4734 -0.5422
vn 0.8961 0.4354 -0.0862
vn 0.8552 0.3088 -0.4163
vn 0.8798 0.1726 -0.4430
vn 0.7220 0.2649 0.6391
vn 0.7805 -0.0004 0.6252
vn 0.1738 -0.2299 0.9576
vn 0.0413 0.1910 0.9807
vn -0.2534 -0.0081 0.9673
vn -0.4174 -0.0085 0.9087
vn 0.1099 0.5000 0.8590
vn -0.2535 0.4042 0.8788
vn -0.2197 0.6917 0.6879
vn 0.3444 0.7687 -0.5390
vn 0.4625 0.5117 -0.7241
vn 0.5848 0.4163 -0.6962
vn 0.6878 0.2297 -0.6886
vn 0.6976 0.1356 -0.7036
vn 0.7767 0.0899 -0.6234
vn 0.9363 -0.2698 -0.2250
vn 0.6272 -0.6996 0.3423
vn 0.0725 -0.5167 0.8531
vn -0.4208 -0.2524 0.8713
vn -0.5257 -0.2141 0.8233
vn -0.5343 -0.1196 0.8368
vn -0.6069 0.0756 0.7912
vn -0.6835 0.1842 0.7063
vn -0.5927 0.5008 0.6307
vn 0.5964 0.2727 -0.7549
vn 0.5257 0.2141 -0.8233
vn 0.5343 0.1196 -0.8368
vn 0.7919 -0.0961 -0.6030
vn 0.6835 -0.1841 -0.7063
vn 0.5927 -0.5008 -0.6307
vn -0.3576 -0.4247 0.8317
vn -0.4625 -0.5117 0.7241
vn -0.5848 -0.4162 0.6962
vn -0.6285 -0.0774 0.7739
vn -0.6976 -0.1356 0.7036
vn -0.7767 -0.0899 0.6234
vn -0.3952 0.9123 -0.1077
vn -0.6272 0.6996 -0.3423
vn -0.0725 0.5167 -0.8531
vn 0.2432 0.1484 -0.9586
vn 0.2534 0.0081 -0.9673
vn 0.4174 0.0085 -0.9087
vn 0.4471 -0.1471 -0.8823
vn 0.2535 -0.4042 -0.8788
vn 0.2197 -0.6917 -0.6879
vn -0.4475 -0.8825 0.1449
vn -0.6821 -0.6717 0.2890
vn -0.6942 -0.4734 0.5422
vn -0.1738 0.2299 -0.9576
vn -0.7805 0.0004 -0.6252
vn -0.7220 -0.2649 -0.6391
vn -0.7601 -0.3280 0.5609
vn -0.8552 -0.3088 0.4163
vn -0.8798 -0.1726 0.4430
vt 0.833374 0.494548
vt 0.893919 0.512741
vt 0.908415 0.468160
vt 0.848637 0.467455
vt 0.567859 0.867914
vt 0.639317 0.828812
vt 0.620915 0.894044
vt 0.556155 0.927906
vt 0.812683 0.509803
vt 0.774909 0.642712
vt 0.751394 0.643294
vt 0.751725 0.493743
vt 0.828812 0.793372
vt 0.751727 0.811870
vt 0.672932 0.807420
vt 0.672336 0.642732
vt 0.672998 0.503429
vt 0.598676 0.643182
vt 0.594201 0.530171
vt 0.560191 0.672195
vt 0.619753 0.672998
vt 0.599703 0.594201
vt 0.569702 0.558226
vt 0.580250 0.833374
vt 0.635423 0.812683
vt 0.637090 0.751725
vt 0.569078 0.759035
vt 0.500000 0.859251
vt 0.500000 0.750726
vt 0.569078 0.758996
vt 0.500000 0.657595
vt 0.560191 0.671923
vt 0.604420 0.951058
vt 0.545714 0.976119
vt 0.604420 0.548422
vt 0.626365 0.643481
vt 0.688416 0.643970
vt 0.666902 0.547256
vt 0.500000 0.917421
vt 0.563590 0.893919
vt 0.639317 0.793372
vt 0.659328 0.642712
vt 0.676970 0.643370
vt 0.671449 0.761101
vt 0.555994 0.632181
vt 0.545714 0.747180
vt 0.604420 0.735145
vt 0.572975 0.538591
vt 0.666902 0.715601
vt 0.500000 0.969030
vt 0.572975 0.947229
vt 0.501290 0.830086
vt 0.457158 0.830118
vt 0.460328 0.806630
vt 0.500288 0.803578
vt 0.499838 0.512886
vt 0.460007 0.507514
vt 0.481582 0.413128
vt 0.510774 0.417065
vt 0.500000 0.559830
vt 0.556447 0.575135
vt 0.579931 0.796381
vt 0.599703 0.530171
vt 0.637090 0.643182
vt 0.659115 0.643738
vt 0.643940 0.535244
vt 0.564556 0.492909
vt 0.500000 0.477524
vt 0.500000 0.432743
vt 0.566016 0.447361
vt 0.569702 0.518348
vt 0.616981 0.429733
vt 0.594994 0.421068
vt 0.612448 0.796381
vt 0.637526 0.771615
vt 0.500000 0.371229
vt 0.561082 0.382998
vt 0.450625 0.491920
vt 0.495971 0.498202
vt 0.507939 0.406303
vt 0.474705 0.401699
vt 0.591615 0.535244
vt 0.575831 0.433451
vt 0.407144 0.499901
vt 0.406490 0.640437
vt 0.358675 0.605643
vt 0.363238 0.556600
vt 0.578790 0.420824
vt 0.621227 0.407144
vt 0.601979 0.363238
vt 0.551080 0.357545
vt 0.500000 0.657756
vt 0.500000 0.571782
vt 0.667216 0.508652
vt 0.621227 0.499901
vt 0.632756 0.407548
vt 0.666461 0.413961
vt 0.556577 0.771615
vt 0.637090 0.751727
vt 0.260484 0.580516
vt 0.278839 0.520364
vt 0.582070 0.278839
vt 0.540875 0.268345
vt 0.619753 0.672932
vt 0.500000 0.307117
vt 0.551080 0.314473
vt 0.500000 0.983839
vt 0.393435 0.816867
vt 0.325561 0.763148
vt 0.671449 0.517077
vt 0.635423 0.509803
vt 0.642381 0.470278
vt 0.671266 0.470798
vt 0.988807 0.740196
vt 1.002924 0.661469
vt 1.015365 0.669173
vt 1.001496 0.721513
vt 0.500000 0.531683
vt 0.500000 0.631036
vt 0.249130 0.712570
vt 0.191059 0.679456
vt 0.198981 0.567653
vt 0.945839 0.547256
vt 0.886123 0.529161
vt 0.904522 0.470747
vt 0.963512 0.471464
vt 0.500000 0.238897
vt 0.540875 0.239236
vt 0.564556 0.495971
vt 0.612448 0.579931
vt 0.628268 0.501290
vt 0.631115 0.457158
vt 0.168698 0.648799
vt 0.177283 0.553376
vt 0.539817 0.181283
vt 0.500000 0.184290
vt 0.500000 0.144817
vt 0.539817 0.140934
vt 0.580006 0.205473
vt 0.539817 0.196322
vt 0.205473 0.476864
vt 0.621491 0.393435
vt 0.538703 0.608225
vt 0.500000 0.615960
vt 0.500000 0.567098
vt 0.526605 0.560962
vt 0.566016 0.450625
vt 0.149293 0.452102
vt 0.133162 0.541160
vt 0.103583 0.505809
vt 0.123733 0.441345
vt 0.539531 0.141037
vt 0.579447 0.149293
vt 0.562090 0.123733
vt 0.530633 0.116366
vt 0.500000 0.385014
vt 0.500000 0.353218
vt 0.586057 0.174337
vt 0.542919 0.165879
vt 0.174337 0.464471
vt 0.086614 0.427976
vt 0.065909 0.448336
vt 0.053210 0.428901
vt 0.071388 0.423606
vt 0.515797 0.085531
vt 0.531484 0.086614
vt 0.523242 0.071388
vt 0.510720 0.071544
vt 0.500000 0.266808
vt 0.601979 0.325561
vt 0.582070 0.249130
vt 0.108290 0.599988
vt 0.073849 0.556649
vt 0.580006 0.679456
vt 0.539817 0.690304
vt 0.539817 0.657159
vt 0.579599 0.648799
vt 0.500000 0.199929
vt 0.513331 0.045311
vt 0.500000 0.046647
vt 0.500000 0.069896
vt 0.051602 0.475706
vt 0.038205 0.462176
vt 0.038356 0.442272
vt 0.580006 0.191059
vt 0.577833 0.599988
vt 0.554232 0.556649
vt 0.500000 0.147087
vt 0.500000 0.124516
vt 0.530339 0.475706
vt 0.515210 0.477146
vt 0.513246 0.460736
vt 0.522445 0.462176
vt 0.500000 0.170521
vt 0.515546 0.457928
vt 0.507613 0.457080
vt 0.506877 0.445401
vt 0.514439 0.446199
vt 0.500000 0.089031
vt 0.528336 0.053210
vt 0.620841 0.601238
vt 0.618568 0.607555
vt 0.613078 0.604170
vt 0.614718 0.599612
vt 0.500000 0.479371
vt 0.500000 0.460095
vt 0.513331 0.424258
vt 0.512541 0.440917
vt 0.500000 0.440864
vt 0.500000 0.422187
vt 0.500000 0.664242
vt 0.576432 0.505809
vt 0.539481 0.507406
vt 0.547321 0.467354
vt 0.500000 0.513551
vt 0.519044 0.508271
vt 0.579599 0.168698
vt 0.538703 0.096221
vt 0.577833 0.108290
vt 0.520322 0.097153
vt 0.500000 0.106427
vt 0.541975 0.104341
vt 0.078394 0.467354
vt 0.104341 0.437145
vt 0.073220 0.507406
vt 0.590300 0.643738
vt 0.499630 0.641384
vt 0.459655 0.640419
vt 0.417546 0.774144
vt 0.414448 0.641253
vt 0.423095 0.508652
vt 0.621491 0.816867
vt 0.648114 0.640437
vt 0.669097 0.641253
vt 0.644267 0.774144
vt 0.578790 0.496630
vt 0.601625 0.405151
vt 0.649402 0.433451
vt 0.651726 0.367843
vt 0.620780 0.366797
vt 0.454529 0.413961
vt 0.467814 0.368189
vt 0.488225 0.366596
vt 0.561691 0.421068
vt 0.537425 0.365401
vt 0.507200 0.363509
vt 0.481273 0.364028
vt 0.510983 0.366114
vt 0.635806 0.367147
vt 0.669092 0.368189
vt 0.420824 0.496630
vt 0.452865 0.405151
vt 0.558226 0.518348
vt 0.484328 0.324872
vt 0.502799 0.322553
vt 0.547406 0.321655
vt 0.519920 0.320969
vt 0.496410 0.322232
vt 0.523434 0.321439
vt 0.639292 0.324944
vt 0.675657 0.324872
vt 0.550036 0.367843
vt 0.558926 0.322330
vt 0.465216 0.366023
vt 0.604868 0.366023
vt 0.599660 0.365401
vt 0.621651 0.293283
vt 0.658462 0.293469
vt 0.659368 0.261742
vt 0.621257 0.261665
vt 0.501495 0.293600
vt 0.482345 0.307625
vt 0.480362 0.262732
vt 0.500191 0.261781
vt 0.519246 0.292376
vt 0.547742 0.292993
vt 0.548078 0.261464
vt 0.518571 0.260916
vt 0.494871 0.293528
vt 0.493332 0.261956
vt 0.522889 0.292587
vt 0.522344 0.260869
vt 0.451756 0.288897
vt 0.449773 0.262732
vt 0.656778 0.322330
vt 0.622394 0.322035
vt 0.481902 0.324350
vt 0.605664 0.324350
vt 0.599057 0.321655
vt 0.595403 0.548078
vt 0.621257 0.561263
vt 0.645824 0.523009
vt 0.590945 0.518571
vt 0.639859 0.470735
vt 0.648324 0.498544
vt 0.685407 0.500191
vt 0.686261 0.480362
vt 0.592251 0.493332
vt 0.659368 0.560446
vt 0.683143 0.522344
vt 0.596433 0.477757
vt 0.479829 0.307317
vt 0.477757 0.262636
vt 0.447168 0.262636
vt 0.449241 0.288588
vt 0.596679 0.292993
vt 0.595403 0.261464
vt 0.559686 0.293469
vt 0.560446 0.261742
vt 0.603589 0.307317
vt 0.640355 0.307779
vt 0.679739 0.307625
vt 0.677932 0.288897
vt 0.639680 0.289050
vt 0.639859 0.262967
vt 0.679465 0.262732
vt 0.604354 0.288588
vt 0.603287 0.262636
vt 0.679739 0.482345
vt 0.640355 0.473048
vt 0.639680 0.442459
vt 0.677932 0.451756
vt 0.679465 0.449773
vt 0.639859 0.440146
vt 0.603589 0.479829
vt 0.604354 0.449241
vt 0.603287 0.447168
vt 0.841501 0.761101
vt 0.796910 0.643370
vt 0.906455 0.644155
vt 0.894416 0.742499
vt 0.957194 0.643970
vt 0.829265 0.517077
vt 0.940741 0.715601
vt 0.671449 0.841501
vt 0.669190 0.894416
vt 0.849398 0.470798
vt 0.666902 0.940741
vt 0.909364 0.402088
vt 0.855378 0.389954
vt 0.592313 0.470184
vt 0.617524 0.471308
vt 0.621192 0.417417
vt 0.598226 0.414426
vt 0.598146 0.467455
vt 0.603540 0.389954
vt 0.643835 0.389418
vt 0.855424 0.393127
vt 0.905341 0.403681
vt 0.667620 0.471464
vt 0.947229 0.538591
vt 0.963044 0.470184
vt 0.580250 0.494548
vt 0.595712 0.312254
vt 0.621272 0.312916
vt 0.622837 0.264476
vt 0.597277 0.263453
vt 0.852894 0.313492
vt 0.849695 0.260671
vt 0.818572 0.260902
vt 0.821566 0.286829
vt 0.893654 0.314609
vt 0.853541 0.316407
vt 0.850246 0.263617
vt 0.890422 0.263754
vt 0.896415 0.312211
vt 0.936226 0.312254
vt 0.933075 0.263453
vt 0.893263 0.261490
vt 0.670148 0.393127
vt 0.666826 0.415674
vt 0.958612 0.415674
vt 0.958434 0.414426
vt 0.649700 0.837975
vt 0.635627 0.887710
vt 0.686058 0.890422
vt 0.687133 0.850246
vt 0.592375 0.849695
vt 0.589648 0.893263
vt 0.597277 0.933075
vt 0.622837 0.940554
vt 0.673628 0.933416
vt 0.822213 0.289744
vt 0.819123 0.263848
vt 0.672063 0.313364
vt 0.673628 0.264581
vt 0.936602 0.313364
vt 0.933416 0.264581
vt 0.941647 0.364922
vt 0.899640 0.363406
vt 0.623001 0.364960
vt 0.665562 0.364922
vt 0.668659 0.362549
vt 0.644119 0.361871
vt 0.647700 0.316485
vt 0.685132 0.316407
vt 0.859879 0.359936
vt 0.902447 0.361457
vt 0.941330 0.363919
vt 0.860378 0.362549
vt 0.606538 0.359936
vt 0.590374 0.313492
vt 0.601582 0.363919
vt 0.646474 0.289822
vt 0.601626 0.286829
vt 0.603191 0.260902
vt 0.648039 0.263334
vt 0.675760 0.289744
vt 0.677325 0.263848
vt 0.647700 0.841274
vt 0.590374 0.852894
vt 0.601626 0.821566
vt 0.646474 0.809945
vt 0.648039 0.806852
vt 0.603191 0.818572
vt 0.685132 0.853541
vt 0.675760 0.822213
vt 0.677325 0.819123
vt 0.500000 0.668378
vt 0.500000 0.724779
vt 0.517225 0.721513
vt 0.520785 0.669173
vt 0.528698 1.002924
vt 0.500000 1.014901
vt 0.500000 1.025182
vt 0.520785 1.015365
vt 0.500000 0.744181
vt 0.519989 0.740196
vt 0.519989 0.988807
vt 0.500000 0.995348
vt 0.500000 0.660499
vt 0.528698 0.661469
vt 0.154177 0.616909
vt 0.166410 0.570048
vt 0.135838 0.608740
vt 0.149154 0.567675
vt 0.147623 0.572395
vt 0.137518 0.603560
vt 0.583783 0.154177
vt 0.583848 0.135838
vt 0.600568 0.131366
vt 0.597073 0.144428
vt 0.144166 0.612314
vt 0.141084 0.620214
vt 0.132632 0.614576
vt 0.134671 0.609983
vt 0.153028 0.593819
vt 0.141399 0.592146
vt 0.619182 0.132632
vt 0.614588 0.141084
vt 0.606252 0.140479
vt 0.610351 0.130579
vt 0.138199 0.601250
vt 0.148213 0.603179
vt 0.602487 0.570048
vt 0.583783 0.616909
vt 0.597073 0.624463
vt 0.606252 0.625520
vt 0.614588 0.620214
vt 0.620822 0.612314
vt 0.623703 0.603179
vt 0.620639 0.593819
vt 0.604695 0.577238
vt 0.601269 0.572395
vt 0.603531 0.567675
vt 0.609313 0.614171
vt 0.615687 0.610750
vt 0.619182 0.614576
vt 0.610351 0.619358
vt 0.602434 0.613212
vt 0.600568 0.617961
vt 0.626402 0.601250
vt 0.623276 0.609983
vt 0.618527 0.594500
vt 0.623272 0.592146
vt 0.590602 0.606787
vt 0.583848 0.608740
vt 0.592903 0.603615
vt 0.603070 0.582298
vt 0.613048 0.594751
vt 0.610999 0.606475
vt 0.606401 0.608943
vt 0.601438 0.608251
vt 0.586331 0.603560
vt 0.600598 0.578805
vt 0.589822 0.601288
vt 0.148133 0.578805
vt 0.140843 0.601288
vt 0.522445 0.038205
vt 0.513246 0.032036
vt 0.507613 0.025182
vt 0.515546 0.030102
vt 0.521458 0.442272
vt 0.528336 0.428901
vt 0.500000 0.456702
vt 0.500000 0.445370
vt 0.500000 0.031689
vt 0.512541 0.032373
vt 0.506877 0.025742
vt 0.500000 0.025886
vt 0.500000 0.031337
vt 0.500000 0.025479
vt 0.030102 0.457928
vt 0.030515 0.446199
vt 0.432141 0.867914
vt 0.443845 0.927906
vt 0.379085 0.894044
vt 0.360683 0.828812
vt 0.439809 0.672195
vt 0.430298 0.558226
vt 0.400297 0.594201
vt 0.380247 0.672998
vt 0.419750 0.833374
vt 0.430922 0.759035
vt 0.362910 0.751725
vt 0.364577 0.812683
vt 0.430922 0.758996
vt 0.439809 0.671923
vt 0.454286 0.976119
vt 0.395580 0.951058
vt 0.395580 0.548422
vt 0.333098 0.547256
vt 0.311584 0.643970
vt 0.373635 0.643481
vt 0.436410 0.893919
vt 0.360683 0.793372
vt 0.328551 0.761101
vt 0.323030 0.643370
vt 0.340672 0.642712
vt 0.444006 0.632181
vt 0.395580 0.735145
vt 0.454286 0.747180
vt 0.427025 0.538591
vt 0.333098 0.715601
vt 0.427025 0.947229
vt 0.443553 0.575135
vt 0.400297 0.530171
vt 0.356060 0.535244
vt 0.340885 0.643738
vt 0.362910 0.643182
vt 0.435444 0.492909
vt 0.433984 0.447361
vt 0.430298 0.518348
vt 0.405006 0.421068
vt 0.383019 0.429733
vt 0.362474 0.771615
vt 0.387552 0.796381
vt 0.438918 0.382998
vt 0.421210 0.420824
vt 0.448920 0.357545
vt 0.398021 0.363238
vt 0.378773 0.407144
vt 0.332784 0.508652
vt 0.333539 0.413961
vt 0.367244 0.407548
vt 0.378773 0.499901
vt 0.362910 0.751727
vt 0.459125 0.268345
vt 0.417930 0.278839
vt 0.380247 0.672932
vt 0.448920 0.314473
vt 0.328551 0.517077
vt 0.328734 0.470798
vt 0.357619 0.470278
vt 0.364577 0.509803
vt 0.459125 0.239236
vt 0.435444 0.495971
vt 0.387552 0.579931
vt 0.371732 0.501290
vt 0.368885 0.457158
vt 0.460183 0.181283
vt 0.460183 0.140934
vt 0.460183 0.196322
vt 0.419994 0.205473
vt 0.378509 0.393435
vt 0.461297 0.608225
vt 0.473395 0.560962
vt 0.433984 0.450625
vt 0.460469 0.141037
vt 0.469367 0.116366
vt 0.437911 0.123733
vt 0.420553 0.149293
vt 0.457081 0.165879
vt 0.413943 0.174337
vt 0.484203 0.085531
vt 0.489280 0.071544
vt 0.476758 0.071388
vt 0.468516 0.086614
vt 0.398021 0.325561
vt 0.417930 0.249130
vt 0.419994 0.679456
vt 0.420401 0.648799
vt 0.460183 0.657159
vt 0.460183 0.690304
vt 0.486669 0.045311
vt 0.419994 0.191059
vt 0.422167 0.599988
vt 0.445768 0.556649
vt 0.469661 0.475706
vt 0.477555 0.462176
vt 0.486754 0.460736
vt 0.484790 0.477146
vt 0.484454 0.457928
vt 0.485561 0.446199
vt 0.493123 0.445401
vt 0.492387 0.457080
vt 0.471665 0.053210
vt 0.379159 0.601238
vt 0.385282 0.599612
vt 0.386922 0.604170
vt 0.381432 0.607555
vt 0.486669 0.424258
vt 0.487459 0.440917
vt 0.423568 0.505809
vt 0.452679 0.467354
vt 0.460520 0.507406
vt 0.480956 0.508271
vt 0.420401 0.168698
vt 0.422167 0.108290
vt 0.461297 0.096221
vt 0.479678 0.097153
vt 0.458025 0.104341
vt 0.378509 0.816867
vt 0.355733 0.774144
vt 0.330903 0.641253
vt 0.351886 0.640437
vt 0.398375 0.405151
vt 0.421210 0.496630
vt 0.379220 0.366797
vt 0.348274 0.367843
vt 0.350598 0.433451
vt 0.330908 0.368189
vt 0.364194 0.367147
vt 0.324343 0.324872
vt 0.360708 0.324944
vt 0.395132 0.366023
vt 0.400340 0.365401
vt 0.378349 0.293283
vt 0.378743 0.261665
vt 0.340632 0.261742
vt 0.341538 0.293469
vt 0.377606 0.322035
vt 0.343222 0.322330
vt 0.394336 0.324350
vt 0.400943 0.321655
vt 0.404597 0.548078
vt 0.409055 0.518571
vt 0.354176 0.523009
vt 0.378743 0.561263
vt 0.360141 0.470735
vt 0.313739 0.480362
vt 0.314593 0.500191
vt 0.351676 0.498544
vt 0.407749 0.493332
vt 0.316857 0.522344
vt 0.340632 0.560446
vt 0.403567 0.477757
vt 0.403321 0.292993
vt 0.404597 0.261464
vt 0.359645 0.307779
vt 0.396411 0.307317
vt 0.320262 0.307625
vt 0.322068 0.288897
vt 0.320535 0.262732
vt 0.360141 0.262967
vt 0.360320 0.289050
vt 0.396713 0.262636
vt 0.395646 0.288588
vt 0.320262 0.482345
vt 0.322068 0.451756
vt 0.360320 0.442459
vt 0.359645 0.473048
vt 0.360141 0.440146
vt 0.320535 0.449773
vt 0.395646 0.449241
vt 0.396411 0.479829
vt 0.396713 0.447168
vt 0.330810 0.894416
vt 0.328551 0.841501
vt 0.333098 0.940741
vt 0.407688 0.470184
vt 0.401774 0.414426
vt 0.378808 0.417417
vt 0.382476 0.471308
vt 0.356165 0.389418
vt 0.396460 0.389954
vt 0.401854 0.467455
vt 0.332380 0.471464
vt 0.419750 0.494548
vt 0.404289 0.312254
vt 0.402723 0.263453
vt 0.377163 0.264476
vt 0.378728 0.312916
vt 0.329852 0.393127
vt 0.333174 0.415674
vt 0.350300 0.837975
vt 0.312867 0.850246
vt 0.313942 0.890422
vt 0.364373 0.887710
vt 0.410353 0.893263
vt 0.407625 0.849695
vt 0.377163 0.940554
vt 0.402723 0.933075
vt 0.326372 0.933416
vt 0.326372 0.264581
vt 0.327937 0.313364
vt 0.376999 0.364960
vt 0.334438 0.364922
vt 0.331341 0.362549
vt 0.314868 0.316407
vt 0.352300 0.316485
vt 0.355881 0.361871
vt 0.409626 0.313492
vt 0.393462 0.359936
vt 0.398418 0.363919
vt 0.353526 0.289822
vt 0.351961 0.263334
vt 0.396809 0.260902
vt 0.398374 0.286829
vt 0.324240 0.289744
vt 0.322675 0.263848
vt 0.352300 0.841274
vt 0.353526 0.809945
vt 0.398374 0.821566
vt 0.409626 0.852894
vt 0.396809 0.818572
vt 0.351961 0.806852
vt 0.314868 0.853541
vt 0.324240 0.822213
vt 0.322675 0.819123
vt 0.479215 0.669173
vt 0.482775 0.721513
vt 0.471302 1.002924
vt 0.479215 1.015365
vt 0.480011 0.740196
vt 0.480011 0.988807
vt 0.471302 0.661469
vt 0.416217 0.154177
vt 0.402927 0.144428
vt 0.399432 0.131366
vt 0.416152 0.135838
vt 0.380819 0.132632
vt 0.389649 0.130579
vt 0.393748 0.140479
vt 0.385412 0.141084
vt 0.397513 0.570048
vt 0.379361 0.593819
vt 0.376297 0.603179
vt 0.379178 0.612314
vt 0.385412 0.620214
vt 0.393748 0.625520
vt 0.402927 0.624463
vt 0.416217 0.616909
vt 0.395305 0.577238
vt 0.396469 0.567675
vt 0.398731 0.572395
vt 0.390687 0.614171
vt 0.389649 0.619358
vt 0.380819 0.614576
vt 0.384313 0.610750
vt 0.397566 0.613212
vt 0.399432 0.617961
vt 0.376724 0.609983
vt 0.373598 0.601250
vt 0.376728 0.592146
vt 0.381473 0.594500
vt 0.409398 0.606787
vt 0.416152 0.608740
vt 0.407098 0.603615
vt 0.398562 0.608251
vt 0.393599 0.608943
vt 0.389001 0.606475
vt 0.386952 0.594751
vt 0.396930 0.582298
vt 0.413669 0.603560
vt 0.399402 0.578805
vt 0.410178 0.601288
vt 0.477555 0.038205
vt 0.484454 0.030102
vt 0.492387 0.025182
vt 0.486754 0.032036
vt 0.478542 0.442272
vt 0.471665 0.428901
vt 0.493123 0.025742
vt 0.487459 0.032373
vt 0.181819 0.000000
vt 0.227273 0.078731
vt 0.136365 0.078731
vt 0.272728 0.157461
vt 0.318182 0.078731
vt 0.363637 0.157461
vt 0.909091 0.000000
vt 0.954545 0.078731
vt 0.863636 0.078731
vt 0.727273 0.000000
vt 0.772727 0.078731
vt 0.681818 0.078731
vt 0.545455 0.000000
vt 0.590909 0.078731
vt 0.500000 0.078731
vt 0.318182 0.236191
vt 0.090910 0.157461
vt 0.181819 0.157461
vt 0.136365 0.236191
vt 0.818182 0.157461
vt 0.909091 0.157461
vt 0.863636 0.236191
vt 0.636364 0.157461
vt 0.727273 0.157461
vt 0.681818 0.236191
vt 0.454546 0.157461
vt 0.545455 0.157461
vt 0.500000 0.236191
vt 0.227273 0.236191
vt 0.045455 0.236191
vt 0.772727 0.236191
vt 0.590909 0.236191
vt 0.409092 0.236191
vt 0.181819 0.314921
vt 0.272728 0.314921
vt 0.227273 0.393651
vt 0.000000 0.314921
vt 0.090910 0.314921
vt 0.045455 0.393651
vt 0.727273 0.314921
vt 0.818182 0.314921
vt 0.772727 0.393651
vt 0.545455 0.314921
vt 0.636364 0.314921
vt 0.590909 0.393651
vt 0.363637 0.314921
vt 0.454546 0.314921
vt 0.409092 0.393651
vt 0.500000 0.393651
vt 0.454546 0.472382
vt 0.681818 0.393651
vt 0.636364 0.472382
vt 0.863636 0.393651
vt 0.818182 0.472382
vt 0.909091 0.314921
vt 0.136365 0.393651
vt 0.090910 0.472382
vt 0.318182 0.393651
vt 0.272728 0.472382
vt 0.954545 0.236191
vt 1.000000 0.157461
vt 0.409092 0.078731
vt 0.363637 0.000000
s 1
f 116/1/1 98/2/1 209/3/1 208/4/1
f 115/5/2 4/6/2 17/7/2 97/8/2
f 3/9/3 7/10/3 13/11/3 8/12/3
f 7/10/4 4/13/4 9/14/4 13/11/4
f 13/11/5 9/14/5 2/15/5 10/16/5
f 8/12/6 13/11/6 10/16/6 1/17/6
f 1/17/7 10/16/7 32/18/7 29/19/7
f 114/20/8 1/21/8 29/22/8 83/23/8
f 116/24/9 3/25/9 8/26/9 109/27/9
f 109/27/10 8/26/10 1/21/10 114/20/10
f 115/5/11 6/28/11 15/29/11 99/30/11
f 99/30/12 15/29/12 12/31/12 112/32/12
f 97/8/13 17/7/13 21/33/13 90/34/13
f 20/35/14 25/36/14 203/37/14 204/38/14
f 116/24/15 5/28/15 18/39/15 98/40/15
f 4/41/16 7/42/16 197/43/16 196/44/16
f 89/45/17 90/46/17 21/47/17 25/36/17
f 91/48/18 89/45/18 25/36/18 20/35/18
f 25/36/19 21/47/19 202/49/19 203/37/19
f 98/40/20 18/39/20 23/50/20 91/51/20
f 38/52/21 45/53/21 134/54/21 131/55/21
f 133/56/22 136/57/22 144/58/22 146/59/22
f 112/32/23 12/31/23 34/60/23 82/61/23
f 10/16/24 2/15/24 30/62/24 32/18/24
f 29/63/25 32/64/25 129/65/25 130/66/25
f 75/67/26 41/68/26 48/69/26 73/70/26
f 82/61/27 34/60/27 41/68/27 75/67/27
f 83/71/28 29/63/28 141/72/28 140/73/28
f 32/64/29 30/74/29 128/75/29 129/65/29
f 73/70/30 48/69/30 56/76/30 66/77/30
f 74/78/31 81/79/31 145/80/31 148/81/31
f 130/82/32 133/56/32 146/59/32 147/83/32
f 6/28/33 115/5/33 97/8/33 19/39/33
f 54/84/34 53/85/34 60/86/34 61/87/34
f 67/88/35 54/89/35 61/90/35 65/91/35
f 11/92/36 114/20/36 83/23/36 33/93/36
f 5/28/37 116/24/37 109/27/37 14/29/37
f 14/29/38 109/27/38 114/20/38 11/92/38
f 139/94/39 54/95/39 143/96/39 142/97/39
f 30/62/40 38/52/40 131/55/40 128/98/40
f 4/6/41 115/5/41 99/30/41 9/99/41
f 61/87/42 60/86/42 69/100/42 70/101/42
f 65/91/43 61/90/43 70/102/43 58/103/43
f 9/99/44 99/30/44 112/32/44 2/104/44
f 66/77/45 56/76/45 63/105/45 64/106/45
f 19/39/46 97/8/46 90/34/46 24/107/46
f 53/85/47 52/108/47 59/109/47 60/86/47
f 198/110/48 3/111/48 207/112/48 213/113/48
f 256/114/49 255/115/49 253/116/49 254/117/49
f 23/118/50 26/119/50 89/45/50 91/48/50
f 69/100/51 68/120/51 76/121/51 77/122/51
f 204/123/52 201/124/52 211/125/52 212/126/52
f 64/106/53 63/105/53 72/127/53 57/128/53
f 33/93/54 83/23/54 81/129/54 40/68/54
f 60/86/55 59/109/55 68/120/55 69/100/55
f 2/104/56 112/32/56 82/61/56 30/130/56
f 38/131/57 75/67/57 73/70/57 45/132/57
f 77/122/58 76/121/58 259/133/58 260/134/58
f 30/130/59 82/61/59 75/67/59 38/131/59
f 50/135/60 80/136/60 88/137/60 44/138/60
f 58/103/61 70/102/61 78/139/61 51/140/61
f 70/101/62 69/100/62 77/122/62 78/141/62
f 45/132/63 73/70/63 66/77/63 52/142/63
f 57/128/64 72/127/64 80/136/64 50/135/64
f 28/143/65 110/144/65 96/145/65 42/146/65
f 40/68/66 81/129/66 74/147/66 47/69/66
f 108/148/67 262/149/67 93/150/67 94/151/67
f 31/152/68 108/153/68 94/154/68 43/155/68
f 55/156/69 67/88/69 65/91/69 62/157/69
f 51/140/70 78/139/70 86/158/70 49/159/70
f 78/141/71 77/122/71 260/134/71 86/160/71
f 47/69/72 74/147/72 67/88/72 55/156/72
f 123/161/73 124/162/73 101/163/73 102/164/73
f 121/165/74 123/166/74 102/167/74 37/168/74
f 62/157/75 65/91/75 58/103/75 71/169/75
f 52/142/76 66/77/76 64/106/76 59/170/76
f 59/170/77 64/106/77 57/128/77 68/171/77
f 262/149/78 261/172/78 92/173/78 93/150/78
f 76/174/79 50/175/79 44/176/79 259/177/79
f 71/169/80 58/103/80 51/140/80 79/178/80
f 37/168/81 35/179/81 105/180/81 103/181/81
f 124/162/82 127/182/82 297/183/82 298/184/82 101/163/82
f 68/171/83 57/128/83 50/135/83 76/185/83
f 261/186/84 28/143/84 42/146/84 92/187/84
f 107/188/85 31/152/85 43/155/85 95/189/85
f 127/190/86 122/191/86 295/192/86 297/193/86
f 79/178/87 51/140/87 49/159/87 87/194/87
f 100/195/88 36/196/88 301/197/88 104/198/88
f 126/199/89 121/165/89 37/168/89 103/181/89
f 102/167/90 101/200/90 35/179/90 37/168/90
f 274/201/91 273/202/91 290/203/91 291/204/91
f 122/191/92 125/205/92 300/206/92 295/192/92
f 49/159/93 86/158/93 108/153/93 31/152/93
f 86/160/94 260/134/94 262/149/94 108/148/94
f 35/207/95 296/208/95 299/209/95 105/210/95
f 44/176/96 88/211/96 110/144/96 28/143/96
f 93/212/97 92/187/97 120/213/97 119/214/97
f 87/194/98 49/159/98 31/152/98 107/188/98
f 42/146/99 96/145/99 113/215/99 27/216/99
f 259/217/100 44/138/100 28/218/100 261/219/100
f 92/187/101 42/146/101 27/216/101 120/213/101
f 95/189/102 43/155/102 22/220/102 118/221/102
f 43/155/103 94/154/103 117/222/103 22/220/103
f 94/151/104 93/150/104 119/223/104 117/224/104
f 120/213/105 27/216/105 122/191/105 127/190/105
f 118/221/106 22/220/106 121/165/106 126/199/106
f 119/223/107 120/225/107 127/182/107 124/162/107
f 27/216/108 113/215/108 125/205/108 122/191/108
f 22/220/109 117/222/109 123/166/109 121/165/109
f 117/224/110 119/223/110 124/162/110 123/161/110
f 130/82/111 129/226/111 132/227/111 133/56/111
f 132/227/112 131/55/112 134/54/112 135/228/112
f 129/226/113 128/98/113 131/55/113 132/227/113
f 135/228/114 134/54/114 137/229/114 138/230/114
f 133/56/115 132/227/115 135/228/115 136/57/115
f 136/57/116 135/228/116 138/230/116 139/231/116
f 52/232/117 53/233/117 138/234/117 137/235/117
f 45/53/118 52/108/118 137/229/118 134/54/118
f 54/95/119 67/236/119 149/237/119 143/96/119
f 53/233/120 54/95/120 139/94/120 138/234/120
f 141/72/121 147/238/121 157/239/121 39/240/121
f 144/58/122 142/241/122 150/242/122 153/243/122
f 145/80/123 140/244/123 46/245/123 154/246/123
f 148/81/124 145/80/124 154/246/124 158/247/124
f 146/59/125 144/58/125 153/243/125 156/248/125
f 142/97/126 143/96/126 151/249/126 150/250/126
f 136/57/127 139/231/127 142/241/127 144/58/127
f 67/251/128 74/78/128 148/81/128 149/252/128
f 29/63/129 130/66/129 147/238/129 141/72/129
f 81/79/130 83/253/130 140/244/130 145/80/130
f 153/243/131 150/242/131 162/254/131 164/255/131
f 154/246/132 46/245/132 160/256/132 165/257/132
f 158/247/133 154/246/133 165/257/133 168/258/133
f 156/248/134 153/243/134 164/255/134 166/259/134
f 150/250/135 151/249/135 163/260/135 162/261/135
f 157/262/136 156/248/136 166/259/136 167/263/136
f 149/252/137 148/81/137 158/247/137 159/264/137
f 143/96/138 149/237/138 159/265/138 151/249/138
f 140/73/139 141/72/139 39/240/139 46/266/139
f 147/83/140 146/59/140 156/248/140 157/262/140
f 188/267/141 187/268/141 177/269/141 152/270/141
f 184/271/142 185/272/142 170/273/142 173/274/142
f 182/275/143 180/276/143 155/277/143 174/278/143
f 181/279/144 182/275/144 174/278/144 178/280/144
f 183/281/145 184/271/145 173/274/145 176/282/145
f 170/273/146 185/272/146 194/283/146 192/284/146
f 39/240/147 157/239/147 167/285/147 161/286/147
f 159/264/148 158/247/148 168/258/148 169/287/148
f 151/249/149 159/265/149 169/288/149 163/260/149
f 46/266/150 39/240/150 161/286/150 160/289/150
f 155/290/151 152/291/151 175/292/151 174/293/151
f 171/294/152 172/295/152 173/296/152 170/297/152
f 174/293/153 175/292/153 172/295/153 178/298/153
f 175/292/154 152/291/154 177/299/154 176/300/154
f 178/298/155 172/295/155 171/294/155 179/301/155
f 172/295/156 175/292/156 176/300/156 173/296/156
f 189/302/157 181/279/157 178/280/157 179/303/157
f 189/302/158 179/303/158 193/304/158 195/305/158
f 180/306/159 188/267/159 152/270/159 155/307/159
f 187/308/160 183/281/160 176/282/160 177/309/160
f 167/263/161 166/259/161 183/281/161 187/308/161
f 160/289/162 161/286/162 188/267/162 180/306/162
f 163/260/163 169/288/163 189/310/163 186/311/163
f 169/287/164 168/258/164 181/279/164 189/302/164
f 162/261/165 163/260/165 186/311/165 185/312/165
f 166/259/166 164/255/166 184/271/166 183/281/166
f 168/258/167 165/257/167 182/275/167 181/279/167
f 165/257/168 160/256/168 180/276/168 182/275/168
f 164/255/169 162/254/169 185/272/169 184/271/169
f 161/286/170 167/285/170 187/268/170 188/267/170
f 194/313/171 190/314/171 191/315/171 192/316/171
f 190/314/172 195/317/172 193/318/172 191/315/172
f 185/319/173 186/320/173 190/321/173 194/322/173
f 171/294/174 170/297/174 192/323/174 191/324/174
f 186/320/175 189/325/175 195/326/175 190/321/175
f 179/301/176 171/294/176 191/324/176 193/327/176
f 196/328/177 197/329/177 200/330/177 199/331/177
f 200/330/178 201/124/178 204/123/178 203/332/178
f 197/329/179 198/333/179 201/124/179 200/330/179
f 199/331/180 200/330/180 203/332/180 202/334/180
f 7/42/181 3/111/181 198/110/181 197/43/181
f 17/7/182 4/6/182 196/335/182 199/336/182
f 201/124/183 198/333/183 213/337/183 211/125/183
f 21/33/184 17/7/184 199/336/184 202/338/184
f 208/4/185 209/3/185 217/339/185 216/340/185
f 210/341/186 206/342/186 214/343/186 218/344/186
f 207/112/187 208/345/187 216/346/187 215/347/187
f 211/125/188 213/337/188 221/348/188 219/349/188
f 20/35/189 204/38/189 212/350/189 206/342/189
f 91/48/190 20/35/190 206/342/190 210/341/190
f 98/2/191 91/351/191 210/352/191 209/3/191
f 3/111/192 116/353/192 208/345/192 207/112/192
f 232/354/193 235/355/193 222/356/193 226/357/193
f 233/358/194 224/359/194 240/360/194 241/361/194
f 16/362/195 230/363/195 229/364/195 227/365/195
f 231/366/196 232/367/196 226/368/196 225/369/196
f 213/113/197 207/112/197 215/347/197 221/370/197
f 206/342/198 212/350/198 220/371/198 214/343/198
f 212/126/199 211/125/199 219/349/199 220/372/199
f 209/3/200 210/352/200 218/373/200 217/339/200
f 223/374/201 205/375/201 227/376/201 229/377/201
f 223/374/202 224/378/202 225/379/202 205/375/202
f 205/375/203 225/379/203 226/380/203 222/381/203
f 205/375/204 222/381/204 228/382/204 227/376/204
f 233/358/205 231/366/205 225/369/205 224/359/205
f 229/364/206 230/363/206 237/383/206 238/384/206
f 235/355/207 236/385/207 228/386/207 222/356/207
f 236/387/208 16/362/208 227/365/208 228/388/208
f 250/389/209 243/390/209 16/362/209 236/387/209
f 249/391/210 250/392/210 236/385/210 235/355/210
f 246/393/211 245/394/211 234/395/211 230/396/211
f 248/397/212 244/398/212 231/366/212 233/358/212
f 244/398/213 247/399/213 232/367/213 231/366/213
f 243/390/214 246/400/214 230/363/214 16/362/214
f 245/394/215 248/401/215 233/402/215 234/395/215
f 247/403/216 249/391/216 235/355/216 232/354/216
f 242/404/217 241/405/217 240/406/217 239/407/217
f 237/408/218 242/404/218 239/407/218 238/409/218
f 234/410/219 233/411/219 241/412/219 242/413/219
f 224/378/220 223/374/220 239/414/220 240/415/220
f 230/416/221 234/410/221 242/413/221 237/417/221
f 223/374/222 229/377/222 238/418/222 239/414/222
f 218/344/223 214/343/223 249/391/223 247/403/223
f 215/347/224 216/346/224 248/401/224 245/394/224
f 219/349/225 221/348/225 246/400/225 243/390/225
f 217/339/226 218/373/226 247/399/226 244/398/226
f 216/340/227 217/339/227 244/398/227 248/397/227
f 221/370/228 215/347/228 245/394/228 246/393/228
f 214/343/229 220/371/229 250/392/229 249/391/229
f 220/372/230 219/349/230 243/390/230 250/389/230
f 252/419/231 251/420/231 254/421/231 253/422/231
f 255/423/232 257/424/232 252/425/232 253/426/232
f 258/427/233 256/428/233 254/421/233 251/420/233
f 24/107/234 90/34/234 256/429/234 258/430/234
f 89/45/235 26/119/235 257/431/235 255/432/235
f 90/46/236 89/45/236 255/432/236 256/428/236
f 84/433/237 85/434/237 260/134/237 259/133/237
f 275/435/238 84/433/238 259/133/238 261/172/238
f 85/434/239 276/436/239 262/149/239 260/134/239
f 276/436/240 284/437/240 283/438/240 275/435/240 261/172/240 262/149/240
f 84/439/241 275/440/241 279/441/241 263/442/241
f 266/443/242 264/444/242 278/445/242 280/446/242
f 276/436/243 85/434/243 267/447/243 282/448/243
f 278/449/244 264/450/244 265/451/244 277/452/244
f 277/452/245 265/451/245 263/442/245 279/441/245
f 266/443/246 280/446/246 281/453/246 268/454/246
f 268/454/247 281/453/247 282/448/247 267/447/247
f 85/455/248 84/456/248 263/457/248 265/458/248 264/459/248 266/460/248 268/461/248 267/462/248
f 106/463/249 284/464/249 276/465/249
f 271/466/250 269/467/250 278/468/250 277/469/250
f 270/470/251 271/466/251 277/469/251 279/471/251
f 273/202/252 274/201/252 281/472/252 280/473/252
f 274/201/253 272/474/253 282/475/253 281/472/253
f 269/467/254 273/202/254 280/473/254 278/468/254
f 111/476/255 270/470/255 279/471/255 275/477/255
f 272/474/256 106/463/256 276/465/256 282/475/256
f 285/478/257 286/479/257 292/480/257 291/204/257 290/203/257 288/481/257 287/482/257 289/483/257
f 283/484/258 111/476/258 275/477/258
f 270/470/259 111/476/259 285/478/259 289/483/259
f 294/485/260 286/479/260 285/478/260 293/486/260
f 111/476/261 283/484/261 293/486/261 285/478/261
f 106/463/262 272/474/262 292/480/262 286/479/262
f 272/474/263 274/201/263 291/204/263 292/480/263
f 269/467/264 271/466/264 287/482/264 288/481/264
f 283/438/265 284/437/265 294/487/265 293/488/265
f 273/202/266 269/467/266 288/481/266 290/203/266
f 284/464/267 106/463/267 286/479/267 294/485/267
f 271/466/268 270/470/268 289/483/268 287/482/268
f 297/489/269 295/490/269 36/491/269 100/492/269
f 296/208/270 298/493/270 104/198/270 301/197/270
f 101/494/271 298/493/271 296/208/271 35/207/271
f 36/196/272 302/495/272 303/496/272 301/197/272
f 299/497/273 296/498/273 301/499/273 303/500/273
f 295/490/274 300/501/274 302/502/274 36/491/274
f 298/184/275 297/183/275 100/503/275 104/504/275
f 385/1/276 474/4/276 475/3/276 372/2/276
f 384/505/277 371/506/277 314/507/277 307/508/277
f 306/9/278 309/12/278 312/11/278 308/10/278
f 308/10/279 312/11/279 310/14/279 307/13/279
f 312/11/280 311/16/280 305/15/280 310/14/280
f 309/12/281 304/17/281 311/16/281 312/11/281
f 304/17/282 321/19/282 324/18/282 311/16/282
f 383/509/283 361/510/283 321/511/283 304/512/283
f 385/513/284 380/514/284 309/515/284 306/516/284
f 380/514/285 383/509/285 304/512/285 309/515/285
f 384/505/286 373/517/286 15/29/286 6/28/286
f 373/517/287 382/518/287 12/31/287 15/29/287
f 371/506/288 366/519/288 316/520/288 314/507/288
f 315/521/289 470/522/289 469/523/289 318/524/289
f 385/513/290 372/525/290 18/39/290 5/28/290
f 307/526/291 462/527/291 463/528/291 308/529/291
f 365/530/292 318/524/292 316/531/292 366/532/292
f 367/533/293 315/521/293 318/524/293 365/530/293
f 318/524/294 469/523/294 468/534/294 316/531/294
f 372/525/295 367/535/295 23/50/295 18/39/295
f 328/52/296 397/55/296 400/54/296 333/53/296
f 399/56/297 412/59/297 410/58/297 402/57/297
f 382/518/298 360/536/298 34/60/298 12/31/298
f 311/16/299 324/18/299 322/62/299 305/15/299
f 321/537/300 396/538/300 395/539/300 324/540/300
f 355/541/301 353/542/301 48/69/301 41/68/301
f 360/536/302 355/541/302 41/68/302 34/60/302
f 361/543/303 406/544/303 407/545/303 321/537/303
f 324/540/304 395/539/304 394/546/304 322/547/304
f 353/542/305 348/548/305 56/76/305 48/69/305
f 354/78/306 414/81/306 411/80/306 359/79/306
f 396/82/307 413/83/307 412/59/307 399/56/307
f 6/28/308 19/39/308 371/506/308 384/505/308
f 340/84/309 345/87/309 344/86/309 339/85/309
f 349/549/310 347/550/310 345/551/310 340/552/310
f 11/92/311 33/93/311 361/510/311 383/509/311
f 5/28/312 14/29/312 380/514/312 385/513/312
f 14/29/313 11/92/313 383/509/313 380/514/313
f 405/553/314 408/554/314 409/555/314 340/556/314
f 322/62/315 394/98/315 397/55/315 328/52/315
f 307/508/316 310/557/316 373/517/316 384/505/316
f 345/87/317 352/101/317 351/100/317 344/86/317
f 347/550/318 342/558/318 352/559/318 345/551/318
f 310/557/319 305/560/319 382/518/319 373/517/319
f 348/548/320 346/561/320 63/105/320 56/76/320
f 19/39/321 24/107/321 366/519/321 371/506/321
f 339/85/322 344/86/322 343/109/322 338/108/322
f 464/562/323 479/563/323 473/564/323 306/565/323
f 520/114/324 518/117/324 517/116/324 519/115/324
f 23/118/325 367/533/325 365/530/325 26/119/325
f 351/100/326 357/122/326 356/121/326 350/120/326
f 470/123/327 478/126/327 477/125/327 467/124/327
f 346/561/328 341/566/328 72/127/328 63/105/328
f 33/93/329 40/68/329 359/567/329 361/510/329
f 344/86/330 351/100/330 350/120/330 343/109/330
f 305/560/331 322/568/331 360/536/331 382/518/331
f 328/569/332 333/570/332 353/542/332 355/541/332
f 357/122/333 522/134/333 521/133/333 356/121/333
f 322/568/334 328/569/334 355/541/334 360/536/334
f 336/571/335 332/572/335 88/137/335 80/136/335
f 342/558/336 337/573/336 358/574/336 352/559/336
f 352/101/337 358/141/337 357/122/337 351/100/337
f 333/570/338 338/575/338 348/548/338 353/542/338
f 341/566/339 336/571/339 80/136/339 72/127/339
f 320/576/340 330/577/340 96/145/340 110/144/340
f 40/68/341 47/69/341 354/578/341 359/567/341
f 379/148/342 370/151/342 369/150/342 524/149/342
f 323/579/343 331/580/343 370/581/343 379/582/343
f 55/156/344 62/157/344 347/550/344 349/549/344
f 337/573/345 335/583/345 364/584/345 358/574/345
f 358/141/346 364/160/346 522/134/346 357/122/346
f 47/69/347 55/156/347 349/549/347 354/578/347
f 391/161/348 376/164/348 375/163/348 392/162/348
f 389/585/349 327/586/349 376/587/349 391/588/349
f 62/157/350 71/169/350 342/558/350 347/550/350
f 338/575/351 343/589/351 346/561/351 348/548/351
f 343/589/352 350/590/352 341/566/352 346/561/352
f 524/149/353 369/150/353 368/173/353 523/172/353
f 356/591/354 521/592/354 332/593/354 336/594/354
f 71/169/355 79/178/355 337/573/355 342/558/355
f 327/586/356 103/181/356 105/180/356 325/595/356
f 392/162/357 375/163/357 560/184/357 559/183/357 393/182/357
f 350/590/358 356/596/358 336/571/358 341/566/358
f 523/597/359 368/598/359 330/577/359 320/576/359
f 107/188/360 95/189/360 331/580/360 323/579/360
f 393/599/361 559/600/361 557/601/361 390/602/361
f 79/178/362 87/194/362 335/583/362 337/573/362
f 374/603/363 377/604/363 561/605/363 326/606/363
f 126/199/364 103/181/364 327/586/364 389/585/364
f 376/587/365 327/586/365 325/595/365 375/607/365
f 536/608/366 553/609/366 552/610/366 535/611/366
f 390/602/367 557/601/367 300/206/367 125/205/367
f 335/583/368 323/579/368 379/582/368 364/584/368
f 364/160/369 379/148/369 524/149/369 522/134/369
f 325/612/370 105/210/370 299/209/370 558/613/370
f 332/593/371 320/576/371 110/144/371 88/211/371
f 369/614/372 387/615/372 388/616/372 368/598/372
f 87/194/373 107/188/373 323/579/373 335/583/373
f 330/577/374 319/617/374 113/215/374 96/145/374
f 521/618/375 523/619/375 320/620/375 332/572/375
f 368/598/376 388/616/376 319/617/376 330/577/376
f 95/189/377 118/221/377 317/621/377 331/580/377
f 331/580/378 317/621/378 386/622/378 370/581/378
f 370/151/379 386/224/379 387/223/379 369/150/379
f 388/616/380 393/599/380 390/602/380 319/617/380
f 118/221/381 126/199/381 389/585/381 317/621/381
f 387/223/382 392/162/382 393/182/382 388/225/382
f 319/617/383 390/602/383 125/205/383 113/215/383
f 317/621/384 389/585/384 391/588/384 386/622/384
f 386/224/385 391/161/385 392/162/385 387/223/385
f 396/82/386 399/56/386 398/227/386 395/226/386
f 398/227/387 401/228/387 400/54/387 397/55/387
f 395/226/388 398/227/388 397/55/388 394/98/388
f 401/228/389 404/230/389 403/229/389 400/54/389
f 399/56/390 402/57/390 401/228/390 398/227/390
f 402/57/391 405/231/391 404/230/391 401/228/391
f 338/623/392 403/624/392 404/625/392 339/626/392
f 333/53/393 400/54/393 403/229/393 338/108/393
f 340/556/394 409/555/394 415/627/394 349/628/394
f 339/626/395 404/625/395 405/553/395 340/556/395
f 407/545/396 329/629/396 423/630/396 413/631/396
f 410/58/397 419/243/397 416/242/397 408/241/397
f 411/80/398 420/246/398 334/245/398 406/244/398
f 414/81/399 424/247/399 420/246/399 411/80/399
f 412/59/400 422/248/400 419/243/400 410/58/400
f 408/554/401 416/632/401 417/633/401 409/555/401
f 402/57/402 410/58/402 408/241/402 405/231/402
f 349/251/403 415/252/403 414/81/403 354/78/403
f 321/537/404 407/545/404 413/631/404 396/538/404
f 359/79/405 411/80/405 406/244/405 361/253/405
f 419/243/406 430/255/406 428/254/406 416/242/406
f 420/246/407 431/257/407 426/256/407 334/245/407
f 424/247/408 434/258/408 431/257/408 420/246/408
f 422/248/409 432/259/409 430/255/409 419/243/409
f 416/632/410 428/634/410 429/635/410 417/633/410
f 423/262/411 433/263/411 432/259/411 422/248/411
f 415/252/412 425/264/412 424/247/412 414/81/412
f 409/555/413 417/633/413 425/636/413 415/627/413
f 406/544/414 334/637/414 329/629/414 407/545/414
f 413/83/415 423/262/415 422/248/415 412/59/415
f 454/638/416 418/639/416 443/640/416 453/641/416
f 450/271/417 439/274/417 436/273/417 451/272/417
f 448/275/418 440/278/418 421/277/418 446/276/418
f 447/279/419 444/280/419 440/278/419 448/275/419
f 449/281/420 442/282/420 439/274/420 450/271/420
f 436/273/421 458/284/421 460/283/421 451/272/421
f 329/629/422 427/642/422 433/643/422 423/630/422
f 425/264/423 435/287/423 434/258/423 424/247/423
f 417/633/424 429/635/424 435/644/424 425/636/424
f 334/637/425 426/645/425 427/642/425 329/629/425
f 421/646/426 440/647/426 441/648/426 418/649/426
f 437/650/427 436/651/427 439/652/427 438/653/427
f 440/647/428 444/654/428 438/653/428 441/648/428
f 441/648/429 442/655/429 443/656/429 418/649/429
f 444/654/430 445/657/430 437/650/430 438/653/430
f 438/653/431 439/652/431 442/655/431 441/648/431
f 455/302/432 445/303/432 444/280/432 447/279/432
f 455/302/433 461/305/433 459/304/433 445/303/433
f 446/658/434 421/659/434 418/639/434 454/638/434
f 453/308/435 443/309/435 442/282/435 449/281/435
f 433/263/436 453/308/436 449/281/436 432/259/436
f 426/645/437 446/658/437 454/638/437 427/642/437
f 429/635/438 452/660/438 455/661/438 435/644/438
f 435/287/439 455/302/439 447/279/439 434/258/439
f 428/634/440 451/662/440 452/660/440 429/635/440
f 432/259/441 449/281/441 450/271/441 430/255/441
f 434/258/442 447/279/442 448/275/442 431/257/442
f 431/257/443 448/275/443 446/276/443 426/256/443
f 430/255/444 450/271/444 451/272/444 428/254/444
f 427/642/445 454/638/445 453/641/445 433/643/445
f 460/663/446 458/664/446 457/665/446 456/666/446
f 456/666/447 457/665/447 459/667/447 461/668/447
f 451/669/448 460/670/448 456/671/448 452/672/448
f 437/650/449 457/673/449 458/674/449 436/651/449
f 452/672/450 456/671/450 461/675/450 455/676/450
f 445/657/451 459/677/451 457/673/451 437/650/451
f 462/328/452 465/331/452 466/330/452 463/329/452
f 466/330/453 469/332/453 470/123/453 467/124/453
f 463/329/454 466/330/454 467/124/454 464/333/454
f 465/331/455 468/334/455 469/332/455 466/330/455
f 308/529/456 463/528/456 464/562/456 306/565/456
f 314/507/457 465/678/457 462/679/457 307/508/457
f 467/124/458 477/125/458 479/337/458 464/333/458
f 316/520/459 468/680/459 465/678/459 314/507/459
f 474/4/460 482/340/460 483/339/460 475/3/460
f 476/681/461 484/682/461 480/683/461 472/684/461
f 473/564/462 481/685/462 482/686/462 474/687/462
f 477/125/463 485/349/463 487/348/463 479/337/463
f 315/521/464 472/684/464 478/688/464 470/522/464
f 367/533/465 476/681/465 472/684/465 315/521/465
f 372/2/466 475/3/466 476/352/466 367/351/466
f 306/565/467 473/564/467 474/687/467 385/689/467
f 498/690/468 492/691/468 488/692/468 501/693/468
f 499/358/469 507/361/469 506/360/469 490/359/469
f 313/362/470 493/365/470 495/364/470 496/363/470
f 497/366/471 491/369/471 492/368/471 498/367/471
f 479/563/472 487/694/472 481/685/472 473/564/472
f 472/684/473 480/683/473 486/695/473 478/688/473
f 478/126/474 486/372/474 485/349/474 477/125/474
f 475/3/475 483/339/475 484/373/475 476/352/475
f 489/696/476 495/697/476 493/698/476 471/699/476
f 489/696/477 471/699/477 491/700/477 490/701/477
f 471/699/478 488/702/478 492/703/478 491/700/478
f 471/699/479 493/698/479 494/704/479 488/702/479
f 499/358/480 490/359/480 491/369/480 497/366/480
f 495/364/481 504/384/481 503/383/481 496/363/481
f 501/693/482 488/692/482 494/705/482 502/706/482
f 502/387/483 494/388/483 493/365/483 313/362/483
f 516/389/484 502/387/484 313/362/484 509/390/484
f 515/707/485 501/693/485 502/706/485 516/708/485
f 512/709/486 496/710/486 500/711/486 511/712/486
f 514/397/487 499/358/487 497/366/487 510/398/487
f 510/398/488 497/366/488 498/367/488 513/399/488
f 509/390/489 313/362/489 496/363/489 512/400/489
f 511/712/490 500/711/490 499/713/490 514/714/490
f 513/715/491 498/690/491 501/693/491 515/707/491
f 508/716/492 505/717/492 506/718/492 507/719/492
f 503/720/493 504/721/493 505/717/493 508/716/493
f 500/722/494 508/723/494 507/724/494 499/725/494
f 490/701/495 506/726/495 505/727/495 489/696/495
f 496/728/496 503/729/496 508/723/496 500/722/496
f 489/696/497 505/727/497 504/730/497 495/697/497
f 484/682/498 513/715/498 515/707/498 480/683/498
f 481/685/499 511/712/499 514/714/499 482/686/499
f 485/349/500 509/390/500 512/400/500 487/348/500
f 483/339/501 510/398/501 513/399/501 484/373/501
f 482/340/502 514/397/502 510/398/502 483/339/502
f 487/694/503 512/709/503 511/712/503 481/685/503
f 480/683/504 515/707/504 516/708/504 486/695/504
f 486/372/505 516/389/505 509/390/505 485/349/505
f 252/419/506 517/731/506 518/732/506 251/420/506
f 519/733/507 517/734/507 252/425/507 257/424/507
f 258/427/508 251/420/508 518/732/508 520/735/508
f 24/107/509 258/430/509 520/736/509 366/519/509
f 365/530/510 519/737/510 257/431/510 26/119/510
f 366/532/511 520/735/511 519/737/511 365/530/511
f 362/433/512 521/133/512 522/134/512 363/434/512
f 537/435/513 523/172/513 521/133/513 362/433/513
f 363/434/514 522/134/514 524/149/514 538/436/514
f 538/436/515 524/149/515 523/172/515 537/435/515 545/438/515 546/437/515
f 362/738/516 525/739/516 541/740/516 537/741/516
f 528/443/517 542/446/517 540/445/517 526/444/517
f 538/436/518 544/448/518 529/447/518 363/434/518
f 540/742/519 539/743/519 527/744/519 526/745/519
f 539/743/520 541/740/520 525/739/520 527/744/520
f 528/443/521 530/454/521 543/453/521 542/446/521
f 530/454/522 529/447/522 544/448/522 543/453/522
f 363/746/523 529/747/523 530/748/523 528/749/523 526/750/523 527/751/523 525/752/523 362/753/523
f 378/754/524 538/755/524 546/756/524
f 533/757/525 539/758/525 540/759/525 531/760/525
f 532/761/526 541/762/526 539/758/526 533/757/526
f 535/611/527 542/763/527 543/764/527 536/608/527
f 536/608/528 543/764/528 544/765/528 534/766/528
f 531/760/529 540/759/529 542/763/529 535/611/529
f 381/767/530 537/768/530 541/762/530 532/761/530
f 534/766/531 544/765/531 538/755/531 378/754/531
f 547/769/532 551/770/532 549/771/532 550/772/532 552/610/532 553/609/532 554/773/532 548/774/532
f 545/775/533 537/768/533 381/767/533
f 532/761/534 551/770/534 547/769/534 381/767/534
f 556/776/535 555/777/535 547/769/535 548/774/535
f 381/767/536 547/769/536 555/777/536 545/775/536
f 378/754/537 548/774/537 554/773/537 534/766/537
f 534/766/538 554/773/538 553/609/538 536/608/538
f 531/760/539 550/772/539 549/771/539 533/757/539
f 545/438/540 555/488/540 556/487/540 546/437/540
f 535/611/541 552/610/541 550/772/541 531/760/541
f 546/756/542 556/776/542 548/774/542 378/754/542
f 533/757/543 549/771/543 551/770/543 532/761/543
f 559/778/544 374/779/544 326/780/544 557/781/544
f 558/613/545 561/605/545 377/604/545 560/782/545
f 375/783/546 325/612/546 558/613/546 560/782/546
f 326/606/547 561/605/547 303/496/547 302/495/547
f 299/497/548 303/500/548 561/784/548 558/785/548
f 557/781/549 326/780/549 302/502/549 300/501/549
f 560/184/550 377/504/550 374/503/550 559/183/550
f 562/786/551 575/787/551 574/788/551
f 563/789/552 575/790/552 577/791/552
f 562/792/553 574/793/553 579/794/553
f 562/795/554 579/796/554 581/797/554
f 562/798/555 581/799/555 578/800/555
f 563/789/556 577/791/556 584/801/556
f 564/802/557 576/803/557 586/804/557
f 565/805/558 580/806/558 588/807/558
f 566/808/559 582/809/559 590/810/559
f 567/811/560 583/812/560 592/813/560
f 563/789/561 584/801/561 587/814/561
f 564/802/562 586/804/562 589/815/562
f 565/805/563 588/807/563 591/816/563
f 566/808/564 590/810/564 593/817/564
f 567/811/565 592/813/565 585/818/565
f 568/819/566 594/820/566 599/821/566
f 569/822/567 595/823/567 601/824/567
f 570/825/568 596/826/568 602/827/568
f 571/828/569 597/829/569 603/830/569
f 572/831/570 598/832/570 600/833/570
f 600/833/571 603/834/571 573/835/571
f 600/833/572 598/832/572 603/834/572
f 598/832/573 571/828/573 603/834/573
f 603/830/574 602/836/574 573/837/574
f 603/830/575 597/829/575 602/836/575
f 597/829/576 570/825/576 602/836/576
f 602/827/577 601/838/577 573/839/577
f 602/827/578 596/826/578 601/838/578
f 596/826/579 569/840/579 601/838/579
f 601/824/580 599/841/580 573/842/580
f 601/824/581 595/823/581 599/841/581
f 595/823/582 568/819/582 599/841/582
f 599/821/583 600/843/583 573/844/583
f 599/821/584 594/820/584 600/843/584
f 594/820/585 572/831/585 600/843/585
f 585/818/586 598/832/586 572/831/586
f 585/818/587 592/813/587 598/832/587
f 592/813/588 571/828/588 598/832/588
f 593/817/589 597/829/589 571/828/589
f 593/817/590 590/810/590 597/829/590
f 590/810/591 570/825/591 597/829/591
f 591/816/592 596/826/592 570/825/592
f 591/816/593 588/807/593 596/826/593
f 588/807/594 569/840/594 596/826/594
f 589/815/595 595/823/595 569/822/595
f 589/815/596 586/804/596 595/823/596
f 586/804/597 568/819/597 595/823/597
f 587/814/598 594/820/598 568/819/598
f 587/814/599 584/801/599 594/820/599
f 584/801/600 572/831/600 594/820/600
f 592/813/601 593/817/601 571/828/601
f 592/813/602 583/812/602 593/817/602
f 583/812/603 566/808/603 593/817/603
f 590/810/604 591/816/604 570/825/604
f 590/810/605 582/809/605 591/816/605
f 582/809/606 565/805/606 591/816/606
f 588/807/607 589/845/607 569/840/607
f 588/807/608 580/806/608 589/845/608
f 580/806/609 564/846/609 589/845/609
f 586/804/610 587/814/610 568/819/610
f 586/804/611 576/803/611 587/814/611
f 576/803/612 563/789/612 587/814/612
f 584/801/613 585/818/613 572/831/613
f 584/801/614 577/791/614 585/818/614
f 577/791/615 567/811/615 585/818/615
f 578/800/616 583/812/616 567/811/616
f 578/800/617 581/799/617 583/812/617
f 581/799/618 566/808/618 583/812/618
f 581/797/619 582/809/619 566/808/619
f 581/797/620 579/796/620 582/809/620
f 579/796/621 565/805/621 582/809/621
f 579/794/622 580/806/622 565/805/622
f 579/794/623 574/793/623 580/806/623
f 574/793/624 564/846/624 580/806/624
f 577/791/625 578/847/625 567/811/625
f 577/791/626 575/790/626 578/847/626
f 575/790/627 562/848/627 578/847/627
f 574/788/628 576/803/628 564/802/628
f 574/788/629 575/787/629 576/803/629
f 575/787/630 563/789/630 576/803/630
f 604/786/631 616/788/631 617/787/631
f 605/789/632 619/791/632 617/790/632
f 604/792/633 621/794/633 616/793/633
f 604/795/634 623/797/634 621/796/634
f 604/798/635 620/800/635 623/799/635
f 605/789/636 626/801/636 619/791/636
f 606/802/637 628/804/637 618/803/637
f 607/805/638 630/807/638 622/806/638
f 608/808/639 632/810/639 624/809/639
f 609/811/640 634/813/640 625/812/640
f 605/789/641 629/814/641 626/801/641
f 606/802/642 631/815/642 628/804/642
f 607/805/643 633/816/643 630/807/643
f 608/808/644 635/817/644 632/810/644
f 609/811/645 627/818/645 634/813/645
f 610/819/646 641/821/646 636/820/646
f 611/822/647 643/824/647 637/823/647
f 612/825/648 644/827/648 638/826/648
f 613/828/649 645/830/649 639/829/649
f 614/831/650 642/833/650 640/832/650
f 642/833/651 615/835/651 645/834/651
f 642/833/652 645/834/652 640/832/652
f 640/832/653 645/834/653 613/828/653
f 645/830/654 615/837/654 644/836/654
f 645/830/655 644/836/655 639/829/655
f 639/829/656 644/836/656 612/825/656
f 644/827/657 615/839/657 643/838/657
f 644/827/658 643/838/658 638/826/658
f 638/826/659 643/838/659 611/840/659
f 643/824/660 615/842/660 641/841/660
f 643/824/661 641/841/661 637/823/661
f 637/823/662 641/841/662 610/819/662
f 641/821/663 615/844/663 642/843/663
f 641/821/664 642/843/664 636/820/664
f 636/820/665 642/843/665 614/831/665
f 627/818/666 614/831/666 640/832/666
f 627/818/667 640/832/667 634/813/667
f 634/813/668 640/832/668 613/828/668
f 635/817/669 613/828/669 639/829/669
f 635/817/670 639/829/670 632/810/670
f 632/810/671 639/829/671 612/825/671
f 633/816/672 612/825/672 638/826/672
f 633/816/673 638/826/673 630/807/673
f 630/807/674 638/826/674 611/840/674
f 631/815/675 611/822/675 637/823/675
f 631/815/676 637/823/676 628/804/676
f 628/804/677 637/823/677 610/819/677
f 629/814/678 610/819/678 636/820/678
f 629/814/679 636/820/679 626/801/679
f 626/801/680 636/820/680 614/831/680
f 634/813/681 613/828/681 635/817/681
f 634/813/682 635/817/682 625/812/682
f 625/812/683 635/817/683 608/808/683
f 632/810/684 612/825/684 633/816/684
f 632/810/685 633/816/685 624/809/685
f 624/809/686 633/816/686 607/805/686
f 630/807/687 611/840/687 631/845/687
f 630/807/688 631/845/688 622/806/688
f 622/806/689 631/845/689 606/846/689
f 628/804/690 610/819/690 629/814/690
f 628/804/691 629/814/691 618/803/691
f 618/803/692 629/814/692 605/789/692
f 626/801/693 614/831/693 627/818/693
f 626/801/694 627/818/694 619/791/694
f 619/791/695 627/818/695 609/811/695
f 620/800/696 609/811/696 625/812/696
f 620/800/697 625/812/697 623/799/697
f 623/799/698 625/812/698 608/808/698
f 623/797/699 608/808/699 624/809/699
f 623/797/700 624/809/700 621/796/700
f 621/796/701 624/809/701 607/805/701
f 621/794/702 607/805/702 622/806/702
f 621/794/703 622/806/703 616/793/703
f 616/793/704 622/806/704 606/846/704
f 619/791/705 609/811/705 620/847/705
f 619/791/706 620/847/706 617/790/706
f 617/790/707 620/847/707 604/848/707
f 616/788/708 606/802/708 618/803/708
f 616/788/709 618/803/709 617/787/709
f 617/787/710 618/803/710 605/789/710
