# Blender 5.1.1
# www.blender.org
o Куб.001
v 0.568619 1.406483 0.905876
v 0.462976 2.645439 0.287563
v 0.629600 1.161098 0.120495
v 0.630675 2.359672 -0.189500
v 0.045203 0.981177 -0.064493
v 0.003411 2.467949 -0.369553
v 0.739964 1.767094 0.171393
v 0.641137 1.190899 0.490241
v 0.579479 2.503776 0.097313
v 0.683527 1.994763 0.627973
v 0.083387 1.330288 1.067389
v -0.094138 2.717423 0.298347
v 0.751501 1.804200 0.273531
v 0.033763 1.003797 0.507550
v -0.037206 2.629235 0.033544
v 0.833385 0.198550 -0.212279
v 0.555850 2.216781 -0.454834
v 0.065576 1.013491 -0.335013
v 0.000362 2.279578 -0.623302
v 0.478540 1.181116 -0.534648
v 0.474362 2.030882 -0.686035
v 0.060456 2.703811 3.378016
v 0.077295 1.083557 -0.587780
v 0.001756 2.099515 -0.886196
v 0.577347 1.592918 -0.719091
v 0.037881 1.522335 -0.852256
v 0.059125 3.101590 3.330828
v 0.145382 3.431953 3.020911
v 0.484452 1.750809 1.357157
v 0.469474 2.821434 0.673560
v 0.142974 2.663490 3.178779
v 0.635427 2.163606 0.920596
v 0.099365 1.579538 1.460970
v -0.042596 2.932336 0.730184
v 0.033002 2.786310 3.594895
v 0.009881 2.957095 3.610842
v 0.019326 2.708781 3.503309
v 0.562675 3.058115 0.980732
v 0.510895 1.235242 1.405919
v 0.095481 1.636248 1.775881
v -0.045993 3.169253 1.055985
v 0.094353 3.298939 3.260921
v 0.104972 2.676268 3.295517
v 0.144171 3.548329 2.721664
v 0.579515 3.125215 1.166765
v 0.437970 1.216062 1.488561
v 0.091835 1.732286 1.890566
v -0.044979 3.254163 1.205642
v 0.156515 2.657784 3.058154
v 0.131565 3.584433 2.430483
v 0.140844 2.648811 2.911890
v 0.536608 3.175828 1.435194
v 0.741030 2.545575 1.702658
v 0.714248 1.772982 2.033069
v 0.072053 1.942887 2.000274
v -0.040706 3.318881 1.385277
v 0.130334 3.512516 2.107282
v 0.162229 2.600906 2.534991
v 0.426421 3.272671 1.725019
v 0.616535 2.508630 1.955529
v 0.543018 2.248199 2.052356
v 0.049658 2.155134 2.096525
v -0.049757 3.408022 1.671257
v 0.182455 3.367319 1.689369
v 0.297304 2.202754 2.077652
v 0.241251 3.273817 1.383622
v 0.473812 1.823521 1.921318
v 0.316844 3.450287 2.119292
v 0.432359 2.926410 2.457752
v 0.348406 2.625921 2.480164
v -0.020445 2.574131 2.555698
v -0.052717 3.523289 2.085850
v 0.279411 3.200359 1.176466
v 0.407765 1.783791 1.828512
v 0.271744 3.131770 0.995580
v 0.312349 3.525812 2.430983
v 0.402894 3.059628 2.701204
v 0.321241 2.679381 2.854410
v -0.036581 2.621430 2.910740
v -0.047017 3.591111 2.397885
v 0.395204 1.778761 1.768258
v 0.212736 2.895699 0.665558
v 0.381230 1.741546 1.538557
v 0.340643 3.362943 2.764365
v 0.424216 3.144356 2.821495
v 0.348074 2.689501 2.997920
v -0.034768 2.629680 3.052483
v -0.033651 3.567381 2.689738
v 0.294484 1.520116 -0.774374
v 0.205394 2.083814 -0.840849
v 0.346606 1.146916 -0.484142
v 0.216052 3.257926 3.217837
v 0.311404 2.993311 3.198669
v 0.244528 2.697430 3.245997
v -0.031838 2.657080 3.267057
v -0.024195 3.313559 3.227216
v 0.257041 2.229162 -0.648585
v 0.308450 1.087766 -0.224200
v 0.272373 2.583839 0.023679
v 0.044815 2.950358 3.589131
v 0.099258 2.788451 3.553456
v 0.075161 2.731850 3.491682
v -0.028278 2.702437 3.515481
v 0.039564 2.902845 3.610631
v -0.026413 2.776160 3.594359
v 0.435086 3.216034 2.886245
v -0.033296 2.640517 3.163324
v 0.320121 2.689065 3.121994
v 0.343297 1.070906 0.474091
v -0.027070 3.456384 2.988494
v 0.372381 3.356572 2.856705
v 0.177635 2.688149 0.249880
v -0.025532 3.104847 3.330206
v 0.330008 1.347004 0.978052
v 0.318976 2.401699 -0.401305
v 0.383036 1.061476 0.054383
v 0.156402 2.719954 3.332655
v -0.030555 2.688289 3.341341
v 0.182824 2.891159 3.376347
v 0.149366 3.061459 3.318556
v 0.041033 2.704288 3.435770
v 0.042778 2.998893 3.494379
v 0.110810 2.718858 3.421937
v 0.134136 2.840512 3.464150
v -0.024949 3.004159 3.481814
v -0.029475 2.694337 3.424606
v 0.109479 2.978115 3.467627
v 0.605120 2.743219 0.819546
v 0.728706 2.184730 0.964818
v 0.638417 1.891119 1.306387
v 0.671769 2.947664 1.016838
v 0.832273 2.281960 1.388193
v 0.878401 1.815832 1.633893
v 0.641379 3.025181 1.186653
v 0.862688 2.394666 1.517072
v 0.940346 1.774478 1.798100
v 0.658723 2.961176 1.403395
v 0.832854 2.527573 1.665195
v 0.915480 1.786101 1.958104
v 0.416281 1.461374 1.465769
v 0.491311 1.503332 1.373246
v 0.849098 1.348239 1.783824
v 0.719422 1.317323 1.874112
v 0.860015 1.362859 1.654970
v 0.457172 1.366126 1.668111
v 0.814442 1.401624 1.537504
v 0.625839 1.520125 1.321297
v 0.502489 1.319382 1.792190
v 0.573431 1.321718 1.870225
v 0.822303 1.142797 1.684840
v 0.693630 1.131865 1.769760
v 0.450427 0.805684 1.246068
v 0.843540 1.156242 1.583380
v 0.455044 1.174690 1.617649
v 0.357223 0.790781 1.334033
v 0.803198 1.179811 1.492425
v 0.643586 1.235150 1.368907
v 0.490050 1.148815 1.725170
v 0.552893 1.139254 1.780626
v 0.402187 1.043046 1.399548
v 0.485701 1.056651 1.318166
v 0.808112 0.970719 1.559394
v 0.665582 0.963567 1.645804
v 0.802234 0.983041 1.474359
v 0.419506 1.007285 1.516984
v 0.765665 1.003668 1.391435
v 0.632458 1.052760 1.275339
v 0.453091 0.983975 1.614649
v 0.514673 0.974139 1.663811
v 0.826617 0.693680 1.486419
v 0.641602 0.684814 1.586665
v 0.642744 0.719827 1.462313
v 0.798134 0.718071 1.406822
v 0.374810 0.750610 1.458902
v 0.601791 0.749632 1.367153
v 0.760803 0.744402 1.319915
v 0.612991 0.800393 1.198370
v 0.411972 0.720441 1.559749
v 0.449161 0.700498 1.617383
v 0.378271 0.922013 1.369971
v 0.432191 0.858375 1.590878
v 0.395575 0.884654 1.491517
v 0.767378 0.879327 1.357517
v 0.804143 0.856587 1.443401
v 0.819677 0.892318 1.542864
v 0.664901 0.881521 1.635534
v 0.625224 0.931066 1.238664
v 0.468175 0.935768 1.284675
v 0.499998 0.896845 1.654952
v 0.689941 0.754233 1.736048
v 0.679198 0.640093 1.709489
v 0.835331 0.649810 1.618087
v 0.515655 0.654722 1.730566
v 0.840625 0.764414 1.647305
v 0.531783 0.768975 1.755713
v 0.784785 2.217922 -0.214838
v 0.816438 1.741431 0.068814
v 0.787615 1.175803 0.037502
v 0.770190 2.095857 -0.432591
v 0.873451 1.654908 -0.413481
v 0.828114 1.168684 -0.221556
v 0.753111 1.944298 -0.618614
v 0.846547 1.612598 -0.635771
v 0.752468 1.185861 -0.497264
v 0.614961 -0.029583 -0.207793
v 0.530314 0.842391 -0.517442
v 0.658465 0.957616 0.086525
v 0.459813 0.929280 0.025080
v 0.392950 0.884446 -0.231390
v 0.419576 0.847875 -0.468216
v 0.816012 0.896610 -0.231821
v 0.754158 0.848240 -0.483043
v 0.784737 0.945934 0.009753
v 0.547416 0.652408 -0.451071
v 0.662519 0.505268 0.086236
v 0.481599 0.515369 0.025070
v 0.421456 0.596059 -0.203038
v 0.446407 0.644207 -0.408597
v 0.807005 0.599123 -0.195816
v 0.751316 0.647757 -0.418066
v 0.777779 0.528759 0.018569
v 0.551614 -0.000508 -0.441904
v 0.683690 -0.040203 0.011333
v 0.427302 -0.051339 -0.035780
v 0.409784 -0.034431 -0.229806
v 0.438884 -0.007434 -0.406197
v 0.838721 -0.027774 -0.228513
v 0.778238 -0.004225 -0.416734
v 0.848502 -0.039666 -0.049009
v 0.841086 0.183054 -0.037197
v 0.404420 0.191923 -0.214541
v 0.433536 0.217283 -0.390075
v 0.419871 0.172673 -0.024744
v 0.676189 0.177898 0.020977
v 0.546275 0.224687 -0.425567
v 0.772906 0.221083 -0.400176
v 0.802215 0.068698 0.083741
v 0.808806 -0.043441 0.091109
v 0.680183 -0.044927 0.149798
v 0.479277 -0.055737 0.101960
v 0.472699 0.055010 0.095297
v 0.673579 0.069930 0.141478
v 0.796927 0.417257 -0.201928
v 0.437467 0.412712 -0.204097
v 0.661432 0.379039 0.025740
v 0.769075 0.387867 -0.029780
v 0.461438 0.446504 -0.368424
v 0.492915 0.378399 -0.021780
v 0.555820 0.454136 -0.401561
v 0.745809 0.449546 -0.377137
v 0.002281 1.959889 -0.960398
v 0.013596 1.686844 -0.984853
v 0.108833 1.696102 -0.939747
v 0.078772 1.950915 -0.933678
v 0.149268 1.666135 -0.873490
v 0.090764 2.044155 -0.896280
v 0.016139 1.659225 -0.932292
v 0.002005 2.055112 -0.928860
v 0.318934 3.460588 2.626287
v 0.430311 3.053379 2.814060
v 0.318311 3.375731 2.987444
v 0.440216 3.087391 3.010398
v 0.400330 3.409921 2.785671
v 0.478671 3.398093 2.808448
v 0.441466 3.420990 2.798880
v 0.506410 3.359928 2.814093
v 0.505420 3.267784 2.820831
v 0.519162 3.315075 2.818642
v 0.484019 3.376256 2.856506
v 0.425004 3.389293 2.854821
v 0.455663 3.393601 2.855030
v 0.496578 3.297837 2.867280
v 0.496816 3.360193 2.857615
v 0.506892 3.329464 2.861306
v 0.342556 3.363638 2.856346
v 0.429779 3.168880 2.893274
v 0.460308 3.417655 2.850826
v 0.499595 3.393877 2.853378
v 0.416738 3.411303 2.851071
v 0.517774 3.371332 2.855546
v 0.531623 3.329339 2.861110
v 0.517649 3.286716 2.868930
v 0.353341 3.342588 2.860003
v 0.419808 3.191053 2.889341
v 0.382455 3.336800 2.849623
v 0.427756 3.234824 2.871271
v 0.442552 3.363315 2.848495
v 0.463022 3.350590 2.849616
v 0.420439 3.360210 2.848372
v 0.472263 3.338844 2.850461
v 0.479546 3.316441 2.853186
v 0.472129 3.293210 2.857600
v 0.368778 3.325951 2.852288
v 0.416748 3.216991 2.873607
v 0.034525 2.957876 3.576017
v 0.030855 2.878233 3.613724
v 0.075010 2.950970 3.548095
v 0.070099 2.871370 3.586727
v -0.024851 2.880056 3.617229
v -0.024333 2.957423 3.580774
v 0.006271 2.909470 3.631634
v -0.023995 2.955423 3.610810
v -0.024315 2.909441 3.631494
v -0.466155 1.335699 0.897660
v -0.594053 2.518568 0.368312
v -0.572730 1.116556 0.024628
v -0.612857 2.313604 -0.288652
v -0.721783 1.698377 0.082711
v -0.569847 1.128446 0.431374
v -0.641912 2.437190 0.037663
v -0.628956 1.872190 0.674751
v -0.738856 1.723238 0.205592
v -0.649958 0.143598 -0.330553
v -0.494007 2.181644 -0.530574
v -0.321813 1.151472 -0.598452
v -0.393464 2.008987 -0.733473
v -0.120242 2.706048 3.380197
v -0.434356 1.559080 -0.792033
v -0.110203 3.103687 3.332872
v -0.198732 3.434854 3.025077
v -0.333358 1.687468 1.387623
v -0.541705 2.734895 0.722765
v -0.208518 2.667842 3.183022
v -0.578900 2.065284 0.968666
v -0.085529 2.787777 3.596325
v -0.057809 2.957933 3.611659
v -0.075990 2.709961 3.504460
v -0.635296 2.968554 1.025439
v -0.282051 1.175961 1.435510
v -0.142212 3.301867 3.263776
v -0.167405 2.679640 3.298805
v -0.209789 3.547740 2.725951
v -0.648078 3.033439 1.212577
v -0.201163 1.168280 1.512413
v -0.225103 2.662509 3.062761
v -0.222243 3.574253 2.434704
v -0.213194 2.653195 2.916163
v -0.592278 3.092602 1.468932
v -0.681565 2.439220 1.755748
v -0.515945 1.681012 2.078979
v -0.232759 3.496879 2.110661
v -0.201015 2.599248 2.540756
v -0.499475 3.211223 1.726905
v -0.550141 2.430507 1.994703
v -0.437836 2.184392 2.085321
v -0.273410 3.337326 1.686920
v -0.196483 2.173042 2.093767
v -0.314410 3.233890 1.392789
v -0.296392 1.766461 1.949911
v -0.412182 3.419470 2.125970
v -0.465973 2.899344 2.472262
v -0.380836 2.618114 2.492021
v -0.360738 3.152736 1.198666
v -0.230479 1.736076 1.852331
v -0.358236 3.084672 1.019090
v -0.398587 3.506485 2.439311
v -0.464194 3.060406 2.712148
v -0.390104 2.686168 2.863144
v -0.221812 1.732632 1.791284
v -0.296744 2.852715 0.690703
v -0.218527 1.696524 1.561169
v -0.404185 3.363266 2.773376
v -0.486963 3.149188 2.832506
v -0.417114 2.698828 3.007145
v -0.167757 1.507385 -0.801908
v -0.190465 2.082237 -0.844640
v -0.200362 1.127124 -0.526756
v -0.266158 3.263652 3.223666
v -0.368202 3.001727 3.206872
v -0.307549 2.704266 3.252661
v -0.233803 2.224391 -0.659263
v -0.196569 1.069057 -0.264468
v -0.338916 2.551074 -0.007121
v -0.093412 2.952070 3.590800
v -0.152692 2.791571 3.556497
v -0.131501 2.734409 3.494176
v -0.088822 2.904435 3.612180
v -0.495723 3.220997 2.897510
v -0.386296 2.697812 3.130520
v -0.272900 1.040576 0.439489
v -0.433088 3.358965 2.866526
v -0.347733 2.615867 0.304939
v -0.178663 1.307147 0.982385
v -0.283303 2.383318 -0.440988
v -0.312163 1.035722 -0.001048
v -0.216826 2.724575 3.337161
v -0.237940 2.896369 3.381426
v -0.201681 3.065805 3.322794
v -0.099426 2.706028 3.437466
v -0.092462 3.000567 3.496011
v -0.169134 2.722324 3.425316
v -0.188416 2.844506 3.468044
v -0.160283 2.981455 3.470883
v -0.642428 2.642192 0.875827
v -0.666705 2.073783 1.022382
v -0.512569 1.805071 1.349340
v -0.723801 2.843331 1.068919
v -0.755708 2.163241 1.447454
v -0.713772 1.696800 1.693312
v -0.692756 2.925440 1.236441
v -0.792883 2.270895 1.578856
v -0.756546 1.647617 1.861425
v -0.684540 2.861104 1.451010
v -0.772219 2.407576 1.725094
v -0.721891 1.663690 2.019209
v -0.217890 1.413962 1.489435
v -0.304968 1.443802 1.402962
v -0.604332 1.239580 1.838064
v -0.465171 1.228762 1.918320
v -0.626819 1.251702 1.710457
v -0.229073 1.314822 1.693721
v -0.596341 1.296153 1.590153
v -0.443973 1.440145 1.361221
v -0.257625 1.262556 1.820556
v -0.322145 1.254764 1.903647
v -0.554740 1.039849 1.736229
v -0.419934 1.048615 1.811317
v -0.170486 0.759265 1.269240
v -0.585199 1.049429 1.636699
v -0.202290 1.125547 1.642180
v -0.069842 0.758853 1.349971
v -0.555658 1.078223 1.543136
v -0.415632 1.155963 1.408436
v -0.224999 1.095357 1.751855
v -0.281441 1.076879 1.811762
v -0.146784 1.002005 1.420035
v -0.237192 1.002608 1.345143
v -0.524493 0.871093 1.609126
v -0.376473 0.885663 1.684693
v -0.526829 0.883680 1.523958
v -0.149849 0.964719 1.538232
v -0.499976 0.909048 1.438668
v -0.384511 0.976731 1.313291
v -0.172267 0.937223 1.637987
v -0.227891 0.918625 1.691523
v -0.507014 0.593977 1.536189
v -0.315818 0.613237 1.622395
v -0.331360 0.647002 1.498665
v -0.488447 0.621885 1.454836
v -0.071965 0.717210 1.475576
v -0.302453 0.682030 1.400899
v -0.461986 0.652986 1.365548
v -0.333546 0.729630 1.233694
v -0.096657 0.682416 1.578731
v -0.126097 0.657492 1.638852
v -0.107420 0.885702 1.388097
v -0.134770 0.815989 1.612037
v -0.109929 0.846862 1.510382
v -0.485717 0.785646 1.404281
v -0.512229 0.758174 1.492527
v -0.525481 0.791754 1.593064
v -0.364380 0.804571 1.673945
v -0.362025 0.857259 1.275507
v -0.204442 0.885484 1.309777
v -0.202600 0.844318 1.681173
v -0.362722 0.675535 1.775332
v -0.337148 0.564110 1.747418
v -0.499334 0.550030 1.667896
v -0.176483 0.602977 1.756397
v -0.519406 0.662737 1.698060
v -0.207488 0.713706 1.783302
v -0.750172 2.161058 -0.337227
v -0.789521 1.679468 -0.054870
v -0.716269 1.120090 -0.082409
v -0.692367 2.041674 -0.549207
v -0.764648 1.594223 -0.544094
v -0.714629 1.111532 -0.344565
v -0.643247 1.896213 -0.722217
v -0.702267 1.556207 -0.757172
v -0.597776 1.135840 -0.604925
v -0.418822 -0.067880 -0.290220
v -0.350584 0.809757 -0.587680
v -0.580816 0.911706 -0.012288
v -0.373405 0.898413 -0.041356
v -0.263686 0.860121 -0.283746
v -0.249738 0.823080 -0.521583
v -0.681083 0.841148 -0.351191
v -0.576868 0.798931 -0.589172
v -0.692143 0.891221 -0.108004
v -0.363958 0.618645 -0.523739
v -0.551504 0.460293 -0.010564
v -0.364422 0.484027 -0.042387
v -0.275038 0.570257 -0.258572
v -0.270617 0.617644 -0.465769
v -0.656041 0.544923 -0.312471
v -0.569611 0.598822 -0.523389
v -0.656014 0.475643 -0.095753
v -0.321538 -0.032855 -0.511525
v -0.520392 -0.084809 -0.084673
v -0.259663 -0.076788 -0.090555
v -0.212953 -0.057500 -0.279459
v -0.215678 -0.031683 -0.458388
v -0.636004 -0.082407 -0.346099
v -0.548395 -0.053372 -0.522512
v -0.673166 -0.096038 -0.170338
v -0.684108 0.126552 -0.158807
v -0.226730 0.168542 -0.264866
v -0.229486 0.192721 -0.442941
v -0.270562 0.147095 -0.079795
v -0.530567 0.133193 -0.075243
v -0.335423 0.192023 -0.495869
v -0.562330 0.171617 -0.506640
v -0.656564 0.014656 -0.032574
v -0.655975 -0.097705 -0.025684
v -0.538503 -0.090074 0.052627
v -0.332314 -0.085804 0.037249
v -0.332925 0.025165 0.031061
v -0.539129 0.025004 0.044784
v -0.631778 0.364329 -0.315845
v -0.277155 0.386238 -0.261077
v -0.531580 0.334843 -0.069384
v -0.629434 0.336058 -0.141289
v -0.277239 0.419139 -0.427322
v -0.358081 0.346873 -0.089634
v -0.365490 0.420006 -0.475022
v -0.556092 0.401316 -0.480943
v -0.072332 1.694785 -0.942746
v -0.074408 1.950687 -0.934334
v -0.093431 1.663426 -0.879512
v -0.086998 2.043891 -0.897041
v -0.388621 3.455719 2.634862
v -0.494372 3.059364 2.825225
v -0.373703 3.381095 2.995826
v -0.499574 3.096044 3.021746
v -0.462643 3.411386 2.796254
v -0.540015 3.400874 2.821000
v -0.503106 3.423128 2.810544
v -0.567707 3.363286 2.827301
v -0.567106 3.272000 2.833869
v -0.580588 3.318972 2.832072
v -0.544450 3.379443 2.869111
v -0.485636 3.391674 2.865998
v -0.516137 3.396354 2.866961
v -0.557167 3.301791 2.880112
v -0.557272 3.363620 2.870518
v -0.567416 3.333219 2.874424
v -0.402890 3.366465 2.865390
v -0.490695 3.174603 2.904400
v -0.520709 3.420385 2.862908
v -0.559939 3.397158 2.866395
v -0.477313 3.413625 2.862057
v -0.578166 3.374898 2.868985
v -0.592126 3.333313 2.874834
v -0.578277 3.290892 2.882268
v -0.414160 3.344725 2.869363
v -0.480550 3.196491 2.900227
v -0.443465 3.339163 2.859695
v -0.488595 3.239301 2.882363
v -0.503366 3.366012 2.860072
v -0.523784 3.353703 2.861659
v -0.481354 3.362608 2.859425
v -0.533023 3.342161 2.862733
v -0.540325 3.320038 2.865631
v -0.532912 3.297107 2.869831
v -0.429757 3.328366 2.862015
v -0.477633 3.221763 2.884428
v -0.083258 2.959333 3.577439
v -0.080653 2.879614 3.615070
v -0.124564 2.953441 3.550504
v -0.120695 2.873734 3.589030
v -0.054878 2.910227 3.632373
v 0.263853 3.033432 3.219532
v 0.279673 3.102368 3.209366
v 0.242665 3.046735 3.259640
v 0.204804 3.008939 3.272386
v 0.218413 3.041214 3.229988
v 0.264685 3.098956 3.191040
v 0.230401 3.120481 3.255939
v 0.184129 3.062738 3.294887
v 0.169141 3.059326 3.276561
v 0.206149 3.114959 3.226286
v 0.244010 3.152755 3.213541
v 0.184961 3.128262 3.266396
v 0.258324 3.032927 3.238993
v 0.280077 3.065627 3.209442
v 0.267623 3.073446 3.233018
v 0.280566 3.104141 3.192696
v 0.271267 3.063622 3.198671
v 0.236070 3.010711 3.246484
v 0.223616 3.018530 3.270060
v 0.244070 3.029681 3.221564
v 0.209361 3.015285 3.252630
v 0.244559 3.068195 3.204817
v 0.268414 3.135764 3.205921
v 0.259604 3.133758 3.195150
v 0.238662 3.084093 3.260393
v 0.260415 3.116793 3.230842
v 0.189210 3.027936 3.290777
v 0.211464 3.050152 3.283286
v 0.188399 3.044901 3.255084
v 0.180400 3.025931 3.280005
v 0.237350 3.111542 3.202641
v 0.210152 3.077602 3.225533
v 0.239452 3.146410 3.233296
v 0.204255 3.093499 3.281110
v 0.168248 3.057553 3.293231
v 0.181191 3.088247 3.252909
v 0.225198 3.143164 3.215867
v 0.204744 3.132013 3.264363
v 0.212744 3.150983 3.239442
v 0.177547 3.098073 3.287256
v 0.168737 3.096067 3.276484
v 0.190489 3.128767 3.246934
v -0.319182 3.040651 3.226569
v -0.333532 3.109961 3.216769
v -0.296710 3.053413 3.266151
v -0.259500 3.014688 3.277991
v -0.273325 3.047302 3.235924
v -0.319079 3.106184 3.198087
v -0.282717 3.126834 3.262133
v -0.236962 3.067952 3.299970
v -0.222510 3.064176 3.281289
v -0.259332 3.120722 3.231905
v -0.296542 3.159448 3.220066
v -0.236859 3.133485 3.271487
v -0.313200 3.040003 3.245892
v -0.334843 3.073241 3.216865
v -0.321635 3.080742 3.240131
v -0.334783 3.111760 3.200124
v -0.326348 3.071021 3.205884
v -0.291328 3.017241 3.252851
v -0.278119 3.024743 3.276117
v -0.299455 3.036411 3.228124
v -0.264374 3.021150 3.258349
v -0.299394 3.074930 3.211383
v -0.321536 3.143068 3.213043
v -0.313041 3.140848 3.202062
v -0.291766 3.090660 3.266796
v -0.313410 3.123898 3.237769
v -0.243001 3.033288 3.295994
v -0.264872 3.056050 3.289036
v -0.242632 3.050239 3.260288
v -0.234506 3.031068 3.285014
v -0.291169 3.118086 3.209021
v -0.264275 3.083476 3.231261
v -0.291667 3.152986 3.239707
v -0.256647 3.099206 3.286674
v -0.221259 3.062376 3.297933
v -0.234407 3.093394 3.257926
v -0.277922 3.149394 3.221940
v -0.256587 3.137725 3.269932
v -0.264713 3.156895 3.245206
v -0.229693 3.103116 3.292172
v -0.221198 3.100895 3.281192
v -0.242841 3.134133 3.252165
vn -0.8635 -0.4416 0.2436
vn 0.4312 0.7126 -0.5535
vn 0.9832 -0.1810 -0.0224
vn 0.9771 0.2129 0.0004
vn 0.9394 0.3201 0.1229
vn 0.9704 -0.0896 0.2243
vn 0.9680 -0.0900 0.2342
vn 0.5192 -0.6821 0.5150
vn 0.3657 -0.9288 0.0592
vn 0.3238 -0.8214 0.4694
vn 0.1398 0.9198 -0.3667
vn 0.0861 0.9363 -0.3405
vn 0.4599 0.6235 -0.6323
vn 0.2163 -0.3938 -0.8934
vn 0.3030 -0.9440 -0.1307
vn 0.6602 0.4497 0.6015
vn 0.3544 0.0368 -0.9344
vn 0.1434 -0.5183 -0.8431
vn 0.2780 0.1330 -0.9513
vn 0.3315 -0.9220 -0.2001
vn 0.7856 0.5830 -0.2070
vn 0.9275 -0.0548 -0.3697
vn 0.0158 0.8942 -0.4474
vn 0.9648 0.2537 -0.0698
vn 0.4591 -0.7240 -0.5149
vn 0.0697 0.9041 -0.4217
vn -0.0223 0.8118 -0.5836
vn -0.8375 -0.0078 -0.5464
vn 0.6203 -0.1031 -0.7775
vn 0.1363 0.9366 -0.3227
vn -0.9457 -0.2078 0.2499
vn 0.7832 -0.0118 -0.6216
vn 0.1044 0.8005 -0.5902
vn 0.7902 0.1671 0.5896
vn -0.1715 -0.2648 0.9489
vn 0.2835 -0.8041 0.5226
vn 0.2165 -0.9754 0.0427
vn 0.2326 -0.8496 0.4733
vn 0.4561 -0.3382 0.8232
vn 0.7239 0.3892 -0.5697
vn 0.3355 0.8730 -0.3540
vn 0.8681 -0.1426 0.4755
vn 0.2394 -0.6842 0.6889
vn 0.2567 0.8836 -0.3917
vn 0.1668 0.9474 -0.2733
vn 0.1402 0.7981 -0.5860
vn 0.8684 0.3654 0.3352
vn 0.4885 -0.0942 0.8675
vn 0.8594 0.1071 -0.5000
vn 0.3334 -0.5059 -0.7956
vn 0.9806 0.1957 -0.0136
vn 0.9677 -0.0182 -0.2514
vn 0.1447 0.9470 -0.2867
vn 0.4454 -0.8837 0.1441
vn 0.9515 0.2811 0.1251
vn 0.2249 0.8744 -0.4300
vn 0.2148 0.9113 -0.3513
vn 0.9791 0.1932 -0.0632
vn 0.1986 0.7638 -0.6141
vn 0.0537 0.9936 0.0996
vn 0.1912 -0.9710 0.1434
vn 0.9690 -0.1974 0.1485
vn 0.2865 0.9379 -0.1958
vn 0.0791 0.9734 -0.2150
vn 0.0028 0.8663 0.4995
vn 0.3137 -0.8290 0.4630
vn 0.8451 -0.1077 0.5236
vn 0.2025 -0.9626 0.1801
vn 0.0996 -0.3623 0.9267
vn 0.1770 -0.9834 0.0388
vn 0.9360 -0.2939 -0.1936
vn 0.0903 -0.6364 0.7660
vn 0.8704 -0.3995 0.2878
vn 0.3242 -0.9119 0.2516
vn 0.1854 -0.7125 0.6767
vn 0.3574 0.9143 -0.1908
vn 0.3559 0.8906 -0.2831
vn 0.7612 0.3030 0.5734
vn 0.4136 0.8945 0.1700
vn 0.1545 -0.9787 0.1352
vn 0.1845 -0.7435 0.6428
vn 0.8909 0.1476 0.4296
vn 0.3119 0.9258 -0.2134
vn 0.3867 0.7555 0.5288
vn 0.1114 -0.9825 0.1492
vn 0.4295 0.7864 0.4439
vn 0.1477 -0.9878 0.0501
vn 0.5478 0.2967 0.7822
vn 0.1368 -0.9859 0.0961
vn 0.3912 -0.7383 0.5494
vn -0.2940 0.0193 0.9556
vn 0.0072 0.8993 0.4373
vn 0.1688 -0.9844 0.0498
vn 0.9707 -0.2272 0.0785
vn 0.0403 -0.2080 0.9773
vn 0.0508 0.9337 0.3544
vn 0.6421 0.2544 0.7232
vn 0.1329 -0.9881 0.0775
vn -0.1187 0.3980 0.9097
vn 0.4501 0.8543 0.2599
vn 0.3459 0.2962 0.8903
vn 0.0391 -0.9321 0.3601
vn 0.3268 -0.8053 0.4946
vn 0.7863 -0.1524 0.5987
vn 0.4183 0.7455 0.5189
vn 0.1371 -0.9885 0.0636
vn 0.8559 0.2422 0.4570
vn 0.0001 0.8402 0.5422
vn 0.2124 -0.9730 0.0898
vn 0.8812 -0.2646 0.3918
vn 0.8572 -0.3452 -0.3821
vn 0.9679 0.2120 -0.1351
vn 0.9481 0.0915 -0.3045
vn 0.9424 0.3331 -0.0307
vn 0.9555 -0.0332 -0.2930
vn 0.9823 0.1579 0.1003
vn 0.7063 0.5004 0.5007
vn 0.8627 0.5022 0.0593
vn -0.3092 -0.2360 0.9213
vn 0.3383 0.3689 0.8657
vn -0.3031 -0.1569 -0.9399
vn 0.9812 -0.1521 0.1185
vn -0.9871 -0.0537 0.1505
vn -0.9488 -0.0623 0.3095
vn 0.9280 0.0408 -0.3703
vn 0.5514 -0.4422 0.7074
vn 0.9702 -0.2116 0.1180
vn -0.7379 -0.2066 0.6425
vn -0.3134 -0.0446 -0.9486
vn -0.9813 -0.1631 0.1027
vn 0.9795 -0.1940 0.0539
vn -0.9791 0.1099 0.1710
vn -0.9481 0.0047 0.3181
vn 0.9170 0.0320 -0.3975
vn 0.4691 -0.5591 0.6836
vn 0.6658 0.2840 -0.6899
vn -0.6925 -0.2375 0.6812
vn 0.0024 -0.4666 0.8845
vn -0.7344 -0.1310 -0.6660
vn 0.6997 0.0054 -0.7144
vn -0.2589 0.3069 -0.9158
vn 0.9677 0.0695 -0.2423
vn -0.9788 0.1096 0.1731
vn -0.9316 0.0562 0.3591
vn 0.9235 0.0603 -0.3789
vn 0.9943 0.0329 -0.1010
vn -0.2386 0.4550 -0.8579
vn -0.6366 -0.3339 0.6952
vn 0.0434 -0.5906 0.8058
vn -0.6985 0.4144 -0.5834
vn -0.1207 -0.9498 -0.2887
vn -0.1015 -0.9587 -0.2656
vn -0.1073 -0.9619 -0.2515
vn -0.1176 -0.9488 -0.2932
vn -0.1173 -0.9569 -0.2657
vn -0.1037 -0.9621 -0.2521
vn -0.7590 0.0276 0.6505
vn -0.8743 0.0923 0.4765
vn -0.6810 0.2926 -0.6713
vn 0.6652 0.1664 -0.7279
vn 0.6765 0.1890 -0.7118
vn -0.6864 0.2913 -0.6663
vn 0.1063 -0.1286 0.9860
vn -0.6578 -0.0058 0.7531
vn 0.5177 -0.1067 0.8489
vn 0.9216 0.1096 -0.3722
vn -0.9295 0.0973 0.3557
vn -0.9712 0.1486 0.1862
vn 0.9875 0.0943 -0.1266
vn -0.2607 0.2927 -0.9200
vn 0.5032 -0.2379 0.8308
vn 0.1015 -0.2310 0.9676
vn 0.3680 0.6217 0.6915
vn -0.1208 -0.9441 -0.3067
vn 0.1508 0.6327 0.7596
vn -0.1250 -0.9436 -0.3067
vn 0.9885 0.1503 0.0151
vn 0.9588 -0.2140 -0.1866
vn 0.9895 -0.0489 0.1363
vn 0.9463 0.2404 -0.2161
vn 0.6118 -0.1275 0.7806
vn 0.5049 0.7140 -0.4851
vn 0.9884 -0.0406 0.1463
vn 0.3954 0.6663 -0.6323
vn -0.9667 -0.0592 0.2490
vn -0.3730 -0.3203 -0.8708
vn -0.3070 -0.0095 0.9517
vn 0.9913 -0.0139 0.1309
vn 0.1434 -0.0346 -0.9891
vn -0.3653 -0.1194 -0.9232
vn -0.9446 -0.2985 -0.1367
vn -0.2022 -0.2425 0.9489
vn -0.3041 0.0614 -0.9507
vn -0.9325 -0.0437 0.3584
vn 0.9984 0.0313 -0.0468
vn -0.9862 -0.0119 -0.1649
vn 0.5130 0.0067 0.8584
vn 0.1488 -0.3104 -0.9389
vn 0.9680 -0.0718 -0.2404
vn -0.9842 -0.1318 -0.1182
vn -0.0055 -0.9985 -0.0553
vn 0.0459 -0.9961 -0.0759
vn 0.0307 -0.9900 -0.1378
vn -0.0030 -0.9924 -0.1228
vn -0.9960 -0.0331 0.0824
vn 0.9524 0.0358 0.3028
vn 0.1117 0.0750 -0.9909
vn 0.9526 0.0444 -0.3009
vn 0.9506 0.1552 -0.2687
vn 0.1201 0.1060 -0.9871
vn 0.3821 0.0540 0.9226
vn -0.9495 0.2295 0.2139
vn -0.9815 0.1421 -0.1286
vn 0.9659 0.2437 0.0876
vn -0.2145 0.0122 0.9766
vn -0.3201 0.1197 -0.9398
vn -0.2306 0.0511 0.9717
vn 0.4107 0.0866 0.9077
vn -0.1701 0.7007 0.6928
vn 0.0568 -0.9975 -0.0429
vn 0.2585 0.6881 0.6780
vn -0.0058 -0.9995 -0.0314
vn -0.3354 -0.2269 -0.9143
vn -0.2849 -0.3715 0.8837
vn 0.9889 -0.0788 0.1257
vn -0.9838 -0.0957 -0.1513
vn -0.9640 -0.1179 0.2385
vn 0.4919 -0.3439 0.7998
vn 0.1357 -0.2194 -0.9662
vn 0.9604 -0.0642 -0.2712
vn 0.3844 0.0833 -0.9194
vn 0.2852 -0.8180 -0.4996
vn 0.3541 0.3018 -0.8852
vn 0.2605 0.5618 -0.7852
vn 0.3114 -0.3704 -0.8751
vn 0.5107 -0.0014 -0.8597
vn 0.9603 0.2636 -0.0910
vn 0.9186 0.3891 0.0697
vn 0.9963 0.0518 -0.0688
vn 0.8969 0.4093 0.1676
vn -0.5809 0.8120 0.0569
vn 0.7720 0.5410 -0.3336
vn 0.8201 -0.5661 0.0835
vn 0.5323 0.8325 -0.1536
vn -0.2125 0.9739 0.0801
vn 0.9119 0.2406 -0.3325
vn 0.9410 -0.3061 -0.1443
vn 0.2586 -0.0868 -0.9621
vn -0.0497 0.1527 0.9870
vn 0.0361 0.1561 0.9871
vn -0.0237 0.1683 0.9855
vn 0.0173 0.1318 0.9911
vn 0.0126 0.1786 0.9838
vn 0.0458 0.1209 0.9916
vn -0.0180 0.1168 0.9930
vn 0.0657 0.1643 0.9842
vn 0.0054 0.1689 0.9856
vn 0.0325 0.1872 0.9818
vn 0.1836 -0.2431 0.9525
vn -0.0221 0.1902 0.9815
vn 0.3006 -0.1707 0.9383
vn -0.3941 0.4801 0.7837
vn -0.3986 0.2934 0.8689
vn -0.1430 -0.1476 0.9787
vn 0.7210 0.4234 0.5485
vn -0.2041 -0.0933 0.9745
vn -0.5041 0.4062 0.7622
vn 0.0249 -0.2207 0.9750
vn 0.3337 0.9067 0.2579
vn 0.5388 -0.0853 0.8381
vn 0.5330 -0.1526 0.8322
vn -0.0131 0.4055 0.9140
vn 0.0250 -0.4609 0.8871
vn -0.0211 0.9992 0.0349
vn 0.7627 0.2257 0.6060
vn 0.8442 -0.3783 0.3798
vn -0.4133 0.6938 -0.5897
vn -0.9650 -0.2620 -0.0077
vn -0.9861 0.0984 -0.1338
vn -0.9776 0.1472 0.1504
vn -0.9456 -0.1666 0.2793
vn -0.9246 -0.1758 0.3379
vn -0.3876 -0.7414 0.5478
vn -0.2885 -0.9569 0.0333
vn -0.2427 -0.8589 0.4509
vn -0.1793 0.9084 -0.3777
vn -0.2806 0.9193 -0.2758
vn -0.4839 0.5834 -0.6523
vn -0.0346 -0.3929 -0.9189
vn -0.2082 -0.9629 -0.1714
vn -0.7764 0.3968 0.4897
vn -0.2504 0.0194 -0.9680
vn 0.0375 -0.5081 -0.8605
vn -0.1170 0.1313 -0.9844
vn -0.2313 -0.9433 -0.2382
vn -0.8767 0.4588 -0.1450
vn -0.9339 -0.1940 -0.3002
vn -0.2768 0.8553 -0.4379
vn -0.9908 0.0948 0.0966
vn -0.3992 -0.7878 -0.4690
vn -0.2324 0.8816 -0.4107
vn -0.1518 0.7962 -0.5857
vn 0.7894 0.1083 -0.6043
vn -0.6862 -0.1886 -0.7025
vn -0.2865 0.9050 -0.3144
vn 0.9820 -0.0637 0.1780
vn -0.8167 -0.1315 -0.5619
vn -0.0913 0.7978 -0.5960
vn -0.7914 0.0325 0.6104
vn 0.2789 -0.2093 0.9372
vn -0.1203 -0.8311 0.5429
vn -0.1364 -0.9902 0.0306
vn -0.1508 -0.8623 0.4834
vn -0.3385 -0.3976 0.8528
vn -0.8216 0.2523 -0.5112
vn -0.3632 0.8558 -0.3684
vn -0.8845 -0.2485 0.3949
vn -0.1456 -0.6925 0.7065
vn -0.3839 0.9051 -0.1825
vn -0.2984 0.9106 -0.2859
vn -0.1431 0.7968 -0.5870
vn -0.9056 0.2270 0.3584
vn -0.6113 -0.1350 0.7798
vn -0.9478 0.0019 -0.3188
vn -0.2194 -0.5380 -0.8139
vn -0.9938 0.1091 -0.0213
vn -0.9117 -0.0878 -0.4013
vn -0.2512 0.9231 -0.2913
vn -0.2887 -0.9445 0.1570
vn -0.9874 0.1249 0.0967
vn -0.4310 0.7951 -0.4266
vn -0.3735 0.8670 -0.3299
vn -0.9828 0.1813 -0.0339
vn -0.3611 0.7058 -0.6095
vn -0.0845 0.9924 0.0893
vn -0.1848 -0.9707 0.1533
vn -0.9734 -0.2182 0.0699
vn -0.4352 0.8829 -0.1764
vn -0.1549 0.9640 -0.2161
vn 0.0262 0.8670 0.4976
vn -0.1525 -0.8646 0.4788
vn -0.8338 -0.0873 0.5452
vn -0.2219 -0.9573 0.1852
vn 0.0131 -0.3631 0.9316
vn -0.1979 -0.9791 0.0475
vn -0.9391 -0.2823 -0.1961
vn 0.0611 -0.6383 0.7673
vn -0.8728 -0.3779 0.3089
vn -0.3405 -0.9037 0.2596
vn -0.1017 -0.7316 0.6740
vn -0.4962 0.8405 -0.2178
vn -0.4602 0.8350 -0.3017
vn -0.7406 0.3185 0.5917
vn -0.4372 0.8849 0.1606
vn -0.1593 -0.9787 0.1295
vn -0.1873 -0.7389 0.6473
vn -0.8763 0.1695 0.4509
vn -0.3792 0.8994 -0.2176
vn -0.3594 0.7637 0.5363
vn -0.1320 -0.9795 0.1522
vn -0.3991 0.7967 0.4539
vn -0.1709 -0.9838 0.0539
vn -0.5213 0.3099 0.7951
vn -0.1589 -0.9823 0.0997
vn -0.3960 -0.7286 0.5589
vn 0.3178 0.0173 0.9480
vn 0.0256 0.8991 0.4371
vn -0.1916 -0.9799 0.0546
vn -0.9734 -0.2058 0.1009
vn -0.0218 -0.2072 0.9781
vn -0.0372 0.9355 0.3514
vn -0.6179 0.2697 0.7385
vn -0.1554 -0.9845 0.0810
vn 0.1504 0.3947 0.9064
vn -0.4423 0.8580 0.2611
vn -0.3168 0.3044 0.8983
vn -0.0534 -0.9310 0.3612
vn -0.3347 -0.7971 0.5026
vn -0.7752 -0.1331 0.6176
vn -0.3871 0.7555 0.5286
vn -0.1599 -0.9848 0.0672
vn -0.8383 0.2631 0.4775
vn 0.0338 0.8398 0.5418
vn -0.2342 -0.9675 0.0952
vn -0.8777 -0.2428 0.4130
vn -0.8220 -0.4699 -0.3217
vn -0.9960 0.0652 -0.0618
vn -0.9690 -0.0574 -0.2401
vn -0.9812 0.1889 0.0407
vn -0.9591 -0.1763 -0.2216
vn -0.9847 0.0109 0.1737
vn -0.7246 0.4001 0.5610
vn -0.9189 0.3729 0.1290
vn 0.4101 -0.1812 0.8939
vn -0.3242 0.3194 0.8905
vn 0.2525 -0.1154 -0.9607
vn -0.9363 -0.2954 0.1900
vn 0.9926 0.0943 0.0766
vn 0.9679 0.0810 0.2380
vn -0.9486 -0.0995 -0.3003
vn -0.4257 -0.5152 0.7439
vn -0.9166 -0.3527 0.1884
vn 0.8021 -0.0898 0.5903
vn 0.2423 -0.0048 -0.9702
vn 0.9994 -0.0169 0.0308
vn -0.9331 -0.3370 0.1252
vn 0.9619 0.2550 0.0985
vn 0.9578 0.1472 0.2469
vn -0.9385 -0.1067 -0.3282
vn -0.3289 -0.6188 0.7134
vn -0.7499 0.1782 -0.6371
vn 0.7687 -0.1283 0.6267
vn 0.1325 -0.4568 0.8796
vn 0.6943 -0.0242 -0.7193
vn -0.7438 -0.1025 -0.6605
vn 0.1419 0.3369 -0.9308
vn -0.9826 -0.0763 -0.1695
vn 0.9618 0.2546 0.1006
vn 0.9369 0.1959 0.2894
vn -0.9477 -0.0796 -0.3090
vn -0.9929 -0.1157 -0.0269
vn 0.1042 0.4806 -0.8707
vn 0.7289 -0.2318 0.6442
vn 0.1046 -0.5860 0.8035
vn 0.5841 0.5103 -0.6312
vn 0.2387 -0.9229 -0.3021
vn 0.2228 -0.9345 -0.2777
vn 0.2300 -0.9367 -0.2641
vn 0.2351 -0.9224 -0.3063
vn 0.2381 -0.9303 -0.2790
vn 0.2265 -0.9375 -0.2644
vn 0.7926 0.1436 0.5926
vn 0.8838 0.2237 0.4109
vn 0.5783 0.3867 -0.7183
vn -0.7347 0.0617 -0.6756
vn -0.7480 0.0825 -0.6586
vn 0.5842 0.3863 -0.7138
vn -0.0126 -0.1375 0.9904
vn 0.7054 0.0961 0.7023
vn -0.4318 -0.1777 0.8843
vn -0.9527 -0.0305 -0.3023
vn 0.9285 0.2362 0.2863
vn 0.9495 0.2922 0.1145
vn -0.9972 -0.0541 -0.0525
vn 0.1455 0.3231 -0.9351
vn -0.3993 -0.3053 0.8645
vn 0.0060 -0.2381 0.9712
vn -0.4039 0.5640 0.7203
vn 0.2366 -0.9174 -0.3200
vn -0.1863 0.6075 0.7721
vn 0.2406 -0.9162 -0.3203
vn -0.9875 0.0758 -0.1385
vn -0.8996 -0.2834 -0.3324
vn -0.9925 -0.1207 -0.0200
vn -0.9232 0.1671 -0.3460
vn -0.7367 -0.1922 0.6484
vn -0.4774 0.6767 -0.5605
vn -0.9934 -0.1140 -0.0117
vn -0.3505 0.6415 -0.6824
vn 0.9168 0.0106 0.3992
vn 0.5286 -0.2869 -0.7989
vn 0.1523 0.0075 0.9883
vn -0.9958 -0.0875 -0.0275
vn 0.0179 -0.0393 -0.9991
vn 0.5220 -0.0841 -0.8488
vn 0.9751 -0.2217 0.0105
vn 0.0667 -0.2325 0.9703
vn 0.4454 0.0891 -0.8909
vn 0.8647 0.0229 0.5017
vn -0.9780 -0.0419 -0.2044
vn 0.9981 0.0616 -0.0067
vn -0.6414 -0.0361 0.7663
vn 0.0249 -0.3150 -0.9488
vn -0.9099 -0.1413 -0.3901
vn 0.9975 -0.0584 0.0398
vn 0.0876 -0.9950 -0.0479
vn 0.0401 -0.9963 -0.0764
vn 0.0643 -0.9887 -0.1351
vn 0.0953 -0.9888 -0.1149
vn 0.9702 0.0397 0.2392
vn -0.9883 -0.0361 0.1481
vn 0.0413 0.0724 -0.9965
vn -0.8936 -0.0240 -0.4481
vn -0.9049 0.0864 -0.4167
vn 0.0301 0.1027 -0.9943
vn -0.5262 0.0203 0.8501
vn 0.8842 0.2974 0.3602
vn 0.9763 0.2146 0.0275
vn -0.9828 0.1715 -0.0678
vn 0.0558 0.0222 0.9982
vn 0.4551 0.1484 -0.8780
vn 0.0696 0.0622 0.9956
vn -0.5544 0.0509 0.8307
vn 0.0064 0.7073 0.7069
vn 0.0242 -0.9987 -0.0455
vn -0.4125 0.6632 0.6245
vn 0.0842 -0.9962 -0.0242
vn 0.4917 -0.1963 -0.8484
vn 0.1680 -0.3547 0.9198
vn -0.9879 -0.1520 -0.0319
vn 0.9997 -0.0222 0.0068
vn 0.9201 -0.0481 0.3887
vn -0.5856 -0.3839 0.7139
vn 0.0354 -0.2231 -0.9742
vn -0.8980 -0.1331 -0.4193
vn -0.3865 0.0474 -0.9211
vn -0.2805 -0.8364 -0.4709
vn -0.3474 0.3007 -0.8882
vn -0.2611 0.5687 -0.7800
vn -0.2695 -0.4184 -0.8674
vn -0.5622 -0.0616 -0.8247
vn -0.9598 0.2765 -0.0487
vn -0.9160 0.3899 0.0943
vn -0.9967 0.0649 -0.0482
vn -0.8872 0.4229 0.1847
vn 0.5847 0.8110 0.0216
vn -0.7741 0.5464 -0.3196
vn -0.8183 -0.5648 0.1066
vn -0.5269 0.8371 -0.1470
vn 0.2263 0.9718 0.0660
vn -0.9164 0.2474 -0.3148
vn -0.9451 -0.3019 -0.1254
vn -0.2853 -0.0851 -0.9546
vn 0.0726 0.1542 0.9854
vn -0.0099 0.1554 0.9878
vn 0.0500 0.1671 0.9847
vn 0.0084 0.1315 0.9913
vn 0.0129 0.1790 0.9838
vn -0.0200 0.1204 0.9925
vn 0.0425 0.1155 0.9924
vn -0.0406 0.1669 0.9851
vn 0.0204 0.1704 0.9852
vn -0.0088 0.1842 0.9829
vn -0.1591 -0.2426 0.9570
vn 0.0472 0.1928 0.9801
vn -0.2795 -0.1697 0.9450
vn 0.4150 0.4831 0.7710
vn 0.4208 0.2929 0.8585
vn 0.1651 -0.1508 0.9747
vn -0.7091 0.4341 0.5556
vn 0.2279 -0.0959 0.9689
vn 0.5230 0.4101 0.7472
vn -0.0043 -0.2222 0.9750
vn -0.3049 0.9146 0.2656
vn -0.5203 -0.0722 0.8509
vn -0.5164 -0.1396 0.8449
vn 0.0452 0.4048 0.9133
vn -0.0150 -0.4604 0.8876
vn 0.0467 0.9983 0.0341
vn -0.7421 0.2443 0.6242
vn 0.8946 -0.3742 0.2444
vn 0.9984 0.0111 0.0547
vn 0.7249 -0.6625 0.1887
vn 0.0929 -0.8064 -0.5840
vn 0.0243 -0.5724 -0.8196
vn 0.9415 0.3262 0.0851
vn 0.6973 0.0603 0.7142
vn 0.3481 -0.4888 0.8000
vn -0.6200 -0.3820 -0.6853
vn -0.4331 -0.1169 -0.8937
vn 0.8021 0.3223 0.5028
vn 0.6067 0.0490 0.7934
vn -0.3993 -0.7855 0.4728
vn -0.6403 -0.2349 -0.7313
vn -0.3682 0.0559 -0.9281
vn 0.4621 0.4863 0.7416
vn 0.2575 0.2496 0.9335
vn -0.9984 -0.0111 -0.0547
vn -0.7669 0.0821 -0.6365
vn -0.4441 0.7536 -0.4846
vn -0.7249 0.6625 -0.1887
vn -0.6824 0.5054 -0.5281
vn -0.6998 0.2218 -0.6790
vn -0.8946 0.3742 -0.2444
vn -0.8597 0.1243 -0.4954
vn -0.8856 -0.0107 -0.4643
vn -0.7100 0.5100 0.4857
vn -0.7703 0.2625 0.5811
vn -0.1599 0.1798 0.9706
vn -0.0243 0.5723 0.8197
vn 0.2688 0.3812 0.8845
vn 0.4318 0.3550 0.8291
vn -0.0929 0.8064 0.5840
vn 0.2702 0.7223 0.6366
vn 0.2351 0.9083 0.3460
vn -0.3481 0.4887 -0.8000
vn -0.4707 0.1803 -0.8637
vn -0.5932 0.1058 -0.7981
vn -0.6973 -0.0603 -0.7142
vn -0.7079 -0.1523 -0.6897
vn -0.7860 -0.1607 -0.5969
vn -0.9415 -0.3262 -0.0851
vn -0.6261 -0.4932 0.6039
vn -0.0621 -0.1260 0.9901
vn 0.4331 0.1169 0.8937
vn 0.5375 0.1312 0.8330
vn 0.5469 0.2229 0.8070
vn 0.6200 0.3820 0.6853
vn 0.6959 0.4459 0.5629
vn 0.6060 0.7060 0.3666
vn -0.6067 -0.0490 -0.7934
vn -0.5374 -0.1312 -0.8330
vn -0.5469 -0.2229 -0.8070
vn -0.8021 -0.3223 -0.5028
vn -0.6959 -0.4459 -0.5628
vn -0.6060 -0.7060 -0.3666
vn 0.3682 -0.0558 0.9281
vn 0.4707 -0.1803 0.8636
vn 0.5932 -0.1058 0.7981
vn 0.6403 0.2349 0.7313
vn 0.7079 0.1523 0.6897
vn 0.7860 0.1607 0.5969
vn 0.3993 0.7855 -0.4728
vn 0.6261 0.4932 -0.6039
vn 0.0621 0.1260 -0.9901
vn -0.2576 -0.2496 -0.9335
vn -0.2688 -0.3812 -0.8845
vn -0.4318 -0.3550 -0.8291
vn -0.4621 -0.4863 -0.7416
vn -0.2702 -0.7223 -0.6366
vn -0.2352 -0.9083 -0.3460
vn 0.4441 -0.7536 0.4846
vn 0.6824 -0.5055 0.5281
vn 0.6998 -0.2218 0.6790
vn 0.1599 -0.1798 -0.9706
vn 0.7703 -0.2625 -0.5811
vn 0.7099 -0.5100 -0.4857
vn 0.7669 -0.0821 0.6365
vn 0.8598 -0.1243 0.4954
vn 0.8856 0.0107 0.4643
vn -0.8974 -0.3520 0.2660
vn -0.9963 0.0358 0.0787
vn -0.7363 -0.6444 0.2063
vn -0.1269 -0.8037 -0.5814
vn -0.0583 -0.5713 -0.8187
vn -0.9308 0.3494 0.1077
vn -0.6781 0.0774 0.7308
vn -0.3407 -0.4802 0.8083
vn 0.5936 -0.3970 -0.7000
vn 0.4084 -0.1273 -0.9039
vn -0.7815 0.3419 0.5219
vn -0.5860 0.0638 0.8078
vn 0.3910 -0.7953 0.4633
vn 0.6165 -0.2505 -0.7465
vn 0.3469 0.0470 -0.9367
vn -0.4319 0.4974 0.7524
vn -0.2287 0.2556 0.9393
vn 0.9963 -0.0358 -0.0787
vn 0.7531 0.0633 -0.6549
vn 0.4508 0.7426 -0.4953
vn 0.7363 0.6444 -0.2063
vn 0.6817 0.4886 -0.5446
vn 0.6885 0.2046 -0.6958
vn 0.8974 0.3520 -0.2660
vn 0.8504 0.1031 -0.5160
vn 0.8736 -0.0325 -0.4855
vn 0.7339 0.4921 0.4682
vn 0.7904 0.2431 0.5623
vn 0.1877 0.1755 0.9664
vn 0.0583 0.5713 0.8186
vn -0.2379 0.3875 0.8907
vn -0.4028 0.3654 0.8392
vn 0.1269 0.8037 0.5814
vn -0.2368 0.7286 0.6427
vn -0.2042 0.9137 0.3513
vn 0.3407 0.4802 -0.8083
vn 0.4541 0.1689 -0.8748
vn 0.5762 0.0913 -0.8122
vn 0.6781 -0.0774 -0.7308
vn 0.6871 -0.1696 -0.7065
vn 0.7672 -0.1799 -0.6157
vn 0.9308 -0.3494 -0.1077
vn 0.6281 -0.5087 0.5888
vn 0.0828 -0.1278 0.9883
vn -0.4084 0.1273 0.9039
vn -0.5138 0.1442 0.8457
vn -0.5215 0.2362 0.8199
vn -0.5936 0.3971 0.7000
vn -0.6709 0.4629 0.5794
vn -0.5793 0.7207 0.3809
vn 0.5859 -0.0638 -0.8078
vn 0.5138 -0.1442 -0.8457
vn 0.5215 -0.2362 -0.8199
vn 0.7815 -0.3419 -0.5219
vn 0.6709 -0.4629 -0.5794
vn 0.5793 -0.7207 -0.3809
vn -0.3469 -0.0470 0.9367
vn -0.4541 -0.1689 0.8748
vn -0.5762 -0.0913 0.8122
vn -0.6165 0.2505 0.7465
vn -0.6871 0.1696 0.7065
vn -0.7672 0.1799 0.6157
vn -0.3910 0.7953 -0.4633
vn -0.6281 0.5087 -0.5888
vn -0.0828 0.1278 -0.9883
vn 0.2287 -0.2556 -0.9393
vn 0.2379 -0.3875 -0.8907
vn 0.4028 -0.3654 -0.8392
vn 0.4319 -0.4974 -0.7524
vn 0.2368 -0.7286 -0.6427
vn 0.2042 -0.9137 -0.3513
vn -0.4508 -0.7425 0.4954
vn -0.6817 -0.4886 0.5446
vn -0.6885 -0.2046 0.6958
vn -0.1877 -0.1755 -0.9664
vn -0.7904 -0.2431 -0.5623
vn -0.7339 -0.4921 -0.4683
vn -0.7531 -0.0633 0.6549
vn -0.8504 -0.1031 0.5160
vn -0.8736 0.0325 0.4855
vt 0.833374 0.494548
vt 0.893919 0.512741
vt 0.908415 0.468160
vt 0.848637 0.467455
vt 0.567859 0.867914
vt 0.639317 0.828812
vt 0.620915 0.894044
vt 0.556155 0.927906
vt 0.812683 0.509803
vt 0.774909 0.642712
vt 0.751394 0.643294
vt 0.751725 0.493743
vt 0.828812 0.793372
vt 0.751727 0.811870
vt 0.672932 0.807420
vt 0.672336 0.642732
vt 0.672998 0.503429
vt 0.598676 0.643182
vt 0.594201 0.530171
vt 0.560191 0.672195
vt 0.619753 0.672998
vt 0.599703 0.594201
vt 0.569702 0.558226
vt 0.580250 0.833374
vt 0.635423 0.812683
vt 0.637090 0.751725
vt 0.569078 0.759035
vt 0.500000 0.859251
vt 0.500000 0.750726
vt 0.569078 0.758996
vt 0.500000 0.657595
vt 0.560191 0.671923
vt 0.604420 0.951058
vt 0.545714 0.976119
vt 0.604420 0.548422
vt 0.626365 0.643481
vt 0.688416 0.643970
vt 0.666902 0.547256
vt 0.500000 0.917421
vt 0.563590 0.893919
vt 0.639317 0.793372
vt 0.659328 0.642712
vt 0.676970 0.643370
vt 0.671449 0.761101
vt 0.555994 0.632181
vt 0.545714 0.747180
vt 0.604420 0.735145
vt 0.572975 0.538591
vt 0.666902 0.715601
vt 0.500000 0.969030
vt 0.572975 0.947229
vt 0.501290 0.830086
vt 0.457158 0.830118
vt 0.460328 0.806630
vt 0.500288 0.803578
vt 0.499838 0.512886
vt 0.460007 0.507514
vt 0.481582 0.413128
vt 0.510774 0.417065
vt 0.500000 0.559830
vt 0.556447 0.575135
vt 0.579931 0.796381
vt 0.599703 0.530171
vt 0.637090 0.643182
vt 0.659115 0.643738
vt 0.643940 0.535244
vt 0.564556 0.492909
vt 0.500000 0.477524
vt 0.500000 0.432743
vt 0.566016 0.447361
vt 0.569702 0.518348
vt 0.616981 0.429733
vt 0.594994 0.421068
vt 0.612448 0.796381
vt 0.637526 0.771615
vt 0.500000 0.371229
vt 0.561082 0.382998
vt 0.450625 0.491920
vt 0.495971 0.498202
vt 0.507939 0.406303
vt 0.474705 0.401699
vt 0.591615 0.535244
vt 0.575831 0.433451
vt 0.407144 0.499901
vt 0.406490 0.640437
vt 0.358675 0.605643
vt 0.363238 0.556600
vt 0.578790 0.420824
vt 0.621227 0.407144
vt 0.601979 0.363238
vt 0.551080 0.357545
vt 0.500000 0.657756
vt 0.500000 0.571782
vt 0.667216 0.508652
vt 0.621227 0.499901
vt 0.632756 0.407548
vt 0.666461 0.413961
vt 0.556577 0.771615
vt 0.637090 0.751727
vt 0.260484 0.580516
vt 0.278839 0.520364
vt 0.582070 0.278839
vt 0.540875 0.268345
vt 0.619753 0.672932
vt 0.500000 0.307117
vt 0.551080 0.314473
vt 0.500000 0.983839
vt 0.393435 0.816867
vt 0.325561 0.763148
vt 0.671449 0.517077
vt 0.635423 0.509803
vt 0.642381 0.470278
vt 0.671266 0.470798
vt 0.988807 0.740196
vt 1.002924 0.661469
vt 1.015365 0.669173
vt 1.001496 0.721513
vt 0.500000 0.531683
vt 0.500000 0.631036
vt 0.249130 0.712570
vt 0.191059 0.679456
vt 0.198981 0.567653
vt 0.945839 0.547256
vt 0.886123 0.529161
vt 0.904522 0.470747
vt 0.963512 0.471464
vt 0.500000 0.238897
vt 0.540875 0.239236
vt 0.564556 0.495971
vt 0.612448 0.579931
vt 0.628268 0.501290
vt 0.631115 0.457158
vt 0.168698 0.648799
vt 0.177283 0.553376
vt 0.539817 0.181283
vt 0.500000 0.184290
vt 0.500000 0.144817
vt 0.539817 0.140934
vt 0.580006 0.205473
vt 0.539817 0.196322
vt 0.205473 0.476864
vt 0.621491 0.393435
vt 0.538703 0.608225
vt 0.500000 0.615960
vt 0.500000 0.567098
vt 0.526605 0.560962
vt 0.566016 0.450625
vt 0.149293 0.452102
vt 0.133162 0.541160
vt 0.103583 0.505809
vt 0.123733 0.441345
vt 0.539531 0.141037
vt 0.579447 0.149293
vt 0.562090 0.123733
vt 0.530633 0.116366
vt 0.500000 0.385014
vt 0.500000 0.353218
vt 0.586057 0.174337
vt 0.542919 0.165879
vt 0.174337 0.464471
vt 0.086614 0.427976
vt 0.065909 0.448336
vt 0.053210 0.428901
vt 0.071388 0.423606
vt 0.515797 0.085531
vt 0.531484 0.086614
vt 0.523242 0.071388
vt 0.510720 0.071544
vt 0.500000 0.266808
vt 0.601979 0.325561
vt 0.582070 0.249130
vt 0.108290 0.599988
vt 0.073849 0.556649
vt 0.580006 0.679456
vt 0.539817 0.690304
vt 0.539817 0.657159
vt 0.579599 0.648799
vt 0.500000 0.199929
vt 0.513331 0.045311
vt 0.500000 0.046647
vt 0.500000 0.069896
vt 0.051602 0.475706
vt 0.038205 0.462176
vt 0.038356 0.442272
vt 0.580006 0.191059
vt 0.577833 0.599988
vt 0.554232 0.556649
vt 0.500000 0.147087
vt 0.500000 0.124516
vt 0.530339 0.475706
vt 0.515210 0.477146
vt 0.513246 0.460736
vt 0.522445 0.462176
vt 0.500000 0.170521
vt 0.515546 0.457928
vt 0.507613 0.457080
vt 0.506877 0.445401
vt 0.514439 0.446199
vt 0.500000 0.089031
vt 0.528336 0.053210
vt 0.620841 0.601238
vt 0.618568 0.607555
vt 0.613078 0.604170
vt 0.614718 0.599612
vt 0.500000 0.479371
vt 0.500000 0.460095
vt 0.513331 0.424258
vt 0.512541 0.440917
vt 0.500000 0.440864
vt 0.500000 0.422187
vt 0.500000 0.664242
vt 0.576432 0.505809
vt 0.539481 0.507406
vt 0.547321 0.467354
vt 0.500000 0.513551
vt 0.519044 0.508271
vt 0.579599 0.168698
vt 0.538703 0.096221
vt 0.577833 0.108290
vt 0.520322 0.097153
vt 0.500000 0.106427
vt 0.541975 0.104341
vt 0.078394 0.467354
vt 0.104341 0.437145
vt 0.073220 0.507406
vt 0.590300 0.643738
vt 0.499630 0.641384
vt 0.459655 0.640419
vt 0.417546 0.774144
vt 0.414448 0.641253
vt 0.423095 0.508652
vt 0.621491 0.816867
vt 0.648114 0.640437
vt 0.669097 0.641253
vt 0.644267 0.774144
vt 0.578790 0.496630
vt 0.601625 0.405151
vt 0.649402 0.433451
vt 0.651726 0.367843
vt 0.620780 0.366797
vt 0.454529 0.413961
vt 0.467814 0.368189
vt 0.488225 0.366596
vt 0.561691 0.421068
vt 0.537425 0.365401
vt 0.507200 0.363509
vt 0.481273 0.364028
vt 0.510983 0.366114
vt 0.635806 0.367147
vt 0.669092 0.368189
vt 0.420824 0.496630
vt 0.452865 0.405151
vt 0.558226 0.518348
vt 0.484328 0.324872
vt 0.502799 0.322553
vt 0.547406 0.321655
vt 0.519920 0.320969
vt 0.496410 0.322232
vt 0.523434 0.321439
vt 0.639292 0.324944
vt 0.675657 0.324872
vt 0.550036 0.367843
vt 0.558926 0.322330
vt 0.465216 0.366023
vt 0.604868 0.366023
vt 0.599660 0.365401
vt 0.621651 0.293283
vt 0.658462 0.293469
vt 0.659368 0.261742
vt 0.621257 0.261665
vt 0.501495 0.293600
vt 0.482345 0.307625
vt 0.480362 0.262732
vt 0.500191 0.261781
vt 0.519246 0.292376
vt 0.547742 0.292993
vt 0.548078 0.261464
vt 0.518571 0.260916
vt 0.494871 0.293528
vt 0.493332 0.261956
vt 0.522889 0.292587
vt 0.522344 0.260869
vt 0.451756 0.288897
vt 0.449773 0.262732
vt 0.656778 0.322330
vt 0.622394 0.322035
vt 0.481902 0.324350
vt 0.605664 0.324350
vt 0.599057 0.321655
vt 0.595403 0.548078
vt 0.621257 0.561263
vt 0.645824 0.523009
vt 0.590945 0.518571
vt 0.639859 0.470735
vt 0.648324 0.498544
vt 0.685407 0.500191
vt 0.686261 0.480362
vt 0.592251 0.493332
vt 0.659368 0.560446
vt 0.683143 0.522344
vt 0.596433 0.477757
vt 0.479829 0.307317
vt 0.477757 0.262636
vt 0.447168 0.262636
vt 0.449241 0.288588
vt 0.596679 0.292993
vt 0.595403 0.261464
vt 0.559686 0.293469
vt 0.560446 0.261742
vt 0.603589 0.307317
vt 0.640355 0.307779
vt 0.679739 0.307625
vt 0.677932 0.288897
vt 0.639680 0.289050
vt 0.639859 0.262967
vt 0.679465 0.262732
vt 0.604354 0.288588
vt 0.603287 0.262636
vt 0.679739 0.482345
vt 0.640355 0.473048
vt 0.639680 0.442459
vt 0.677932 0.451756
vt 0.679465 0.449773
vt 0.639859 0.440146
vt 0.603589 0.479829
vt 0.604354 0.449241
vt 0.603287 0.447168
vt 0.841501 0.761101
vt 0.796910 0.643370
vt 0.906455 0.644155
vt 0.894416 0.742499
vt 0.957194 0.643970
vt 0.829265 0.517077
vt 0.940741 0.715601
vt 0.671449 0.841501
vt 0.669190 0.894416
vt 0.849398 0.470798
vt 0.666902 0.940741
vt 0.909364 0.402088
vt 0.855378 0.389954
vt 0.592313 0.470184
vt 0.617524 0.471308
vt 0.621192 0.417417
vt 0.598226 0.414426
vt 0.598146 0.467455
vt 0.603540 0.389954
vt 0.643835 0.389418
vt 0.855424 0.393127
vt 0.905341 0.403681
vt 0.667620 0.471464
vt 0.947229 0.538591
vt 0.963044 0.470184
vt 0.580250 0.494548
vt 0.595712 0.312254
vt 0.621272 0.312916
vt 0.622837 0.264476
vt 0.597277 0.263453
vt 0.852894 0.313492
vt 0.849695 0.260671
vt 0.818572 0.260902
vt 0.821566 0.286829
vt 0.893654 0.314609
vt 0.853541 0.316407
vt 0.850246 0.263617
vt 0.890422 0.263754
vt 0.896415 0.312211
vt 0.936226 0.312254
vt 0.933075 0.263453
vt 0.893263 0.261490
vt 0.670148 0.393127
vt 0.666826 0.415674
vt 0.958612 0.415674
vt 0.958434 0.414426
vt 0.649700 0.837975
vt 0.635627 0.887710
vt 0.686058 0.890422
vt 0.687133 0.850246
vt 0.592375 0.849695
vt 0.589648 0.893263
vt 0.597277 0.933075
vt 0.622837 0.940554
vt 0.673628 0.933416
vt 0.822213 0.289744
vt 0.819123 0.263848
vt 0.672063 0.313364
vt 0.673628 0.264581
vt 0.936602 0.313364
vt 0.933416 0.264581
vt 0.941647 0.364922
vt 0.899640 0.363406
vt 0.623001 0.364960
vt 0.665562 0.364922
vt 0.668659 0.362549
vt 0.644119 0.361871
vt 0.647700 0.316485
vt 0.685132 0.316407
vt 0.859879 0.359936
vt 0.902447 0.361457
vt 0.941330 0.363919
vt 0.860378 0.362549
vt 0.606538 0.359936
vt 0.590374 0.313492
vt 0.601582 0.363919
vt 0.646474 0.289822
vt 0.601626 0.286829
vt 0.603191 0.260902
vt 0.648039 0.263334
vt 0.675760 0.289744
vt 0.677325 0.263848
vt 0.647700 0.841274
vt 0.590374 0.852894
vt 0.601626 0.821566
vt 0.646474 0.809945
vt 0.648039 0.806852
vt 0.603191 0.818572
vt 0.685132 0.853541
vt 0.675760 0.822213
vt 0.677325 0.819123
vt 0.500000 0.668378
vt 0.500000 0.724779
vt 0.517225 0.721513
vt 0.520785 0.669173
vt 0.528698 1.002924
vt 0.500000 1.014901
vt 0.500000 1.025182
vt 0.520785 1.015365
vt 0.500000 0.744181
vt 0.519989 0.740196
vt 0.519989 0.988807
vt 0.500000 0.995348
vt 0.500000 0.660499
vt 0.528698 0.661469
vt 0.154177 0.616909
vt 0.166410 0.570048
vt 0.135838 0.608740
vt 0.149154 0.567675
vt 0.147623 0.572395
vt 0.137518 0.603560
vt 0.583783 0.154177
vt 0.583848 0.135838
vt 0.600568 0.131366
vt 0.597073 0.144428
vt 0.144166 0.612314
vt 0.141084 0.620214
vt 0.132632 0.614576
vt 0.134671 0.609983
vt 0.153028 0.593819
vt 0.141399 0.592146
vt 0.619182 0.132632
vt 0.614588 0.141084
vt 0.606252 0.140479
vt 0.610351 0.130579
vt 0.138199 0.601250
vt 0.148213 0.603179
vt 0.602487 0.570048
vt 0.583783 0.616909
vt 0.597073 0.624463
vt 0.606252 0.625520
vt 0.614588 0.620214
vt 0.620822 0.612314
vt 0.623703 0.603179
vt 0.620639 0.593819
vt 0.604695 0.577238
vt 0.601269 0.572395
vt 0.603531 0.567675
vt 0.609313 0.614171
vt 0.615687 0.610750
vt 0.619182 0.614576
vt 0.610351 0.619358
vt 0.602434 0.613212
vt 0.600568 0.617961
vt 0.626402 0.601250
vt 0.623276 0.609983
vt 0.618527 0.594500
vt 0.623272 0.592146
vt 0.590602 0.606787
vt 0.583848 0.608740
vt 0.592903 0.603615
vt 0.603070 0.582298
vt 0.613048 0.594751
vt 0.610999 0.606475
vt 0.606401 0.608943
vt 0.601438 0.608251
vt 0.586331 0.603560
vt 0.600598 0.578805
vt 0.589822 0.601288
vt 0.148133 0.578805
vt 0.140843 0.601288
vt 0.522445 0.038205
vt 0.513246 0.032036
vt 0.507613 0.025182
vt 0.515546 0.030102
vt 0.521458 0.442272
vt 0.528336 0.428901
vt 0.500000 0.456702
vt 0.500000 0.445370
vt 0.500000 0.031689
vt 0.512541 0.032373
vt 0.506877 0.025742
vt 0.500000 0.025886
vt 0.500000 0.031337
vt 0.500000 0.025479
vt 0.030102 0.457928
vt 0.030515 0.446199
vt 0.432141 0.867914
vt 0.443845 0.927906
vt 0.379085 0.894044
vt 0.360683 0.828812
vt 0.439809 0.672195
vt 0.430298 0.558226
vt 0.400297 0.594201
vt 0.380247 0.672998
vt 0.419750 0.833374
vt 0.430922 0.759035
vt 0.362910 0.751725
vt 0.364577 0.812683
vt 0.430922 0.758996
vt 0.439809 0.671923
vt 0.454286 0.976119
vt 0.395580 0.951058
vt 0.395580 0.548422
vt 0.333098 0.547256
vt 0.311584 0.643970
vt 0.373635 0.643481
vt 0.436410 0.893919
vt 0.360683 0.793372
vt 0.328551 0.761101
vt 0.323030 0.643370
vt 0.340672 0.642712
vt 0.444006 0.632181
vt 0.395580 0.735145
vt 0.454286 0.747180
vt 0.427025 0.538591
vt 0.333098 0.715601
vt 0.427025 0.947229
vt 0.443553 0.575135
vt 0.400297 0.530171
vt 0.356060 0.535244
vt 0.340885 0.643738
vt 0.362910 0.643182
vt 0.435444 0.492909
vt 0.433984 0.447361
vt 0.430298 0.518348
vt 0.405006 0.421068
vt 0.383019 0.429733
vt 0.362474 0.771615
vt 0.387552 0.796381
vt 0.438918 0.382998
vt 0.421210 0.420824
vt 0.448920 0.357545
vt 0.398021 0.363238
vt 0.378773 0.407144
vt 0.332784 0.508652
vt 0.333539 0.413961
vt 0.367244 0.407548
vt 0.378773 0.499901
vt 0.362910 0.751727
vt 0.459125 0.268345
vt 0.417930 0.278839
vt 0.380247 0.672932
vt 0.448920 0.314473
vt 0.328551 0.517077
vt 0.328734 0.470798
vt 0.357619 0.470278
vt 0.364577 0.509803
vt 0.459125 0.239236
vt 0.435444 0.495971
vt 0.387552 0.579931
vt 0.371732 0.501290
vt 0.368885 0.457158
vt 0.460183 0.181283
vt 0.460183 0.140934
vt 0.460183 0.196322
vt 0.419994 0.205473
vt 0.378509 0.393435
vt 0.461297 0.608225
vt 0.473395 0.560962
vt 0.433984 0.450625
vt 0.460469 0.141037
vt 0.469367 0.116366
vt 0.437911 0.123733
vt 0.420553 0.149293
vt 0.457081 0.165879
vt 0.413943 0.174337
vt 0.484203 0.085531
vt 0.489280 0.071544
vt 0.476758 0.071388
vt 0.468516 0.086614
vt 0.398021 0.325561
vt 0.417930 0.249130
vt 0.419994 0.679456
vt 0.420401 0.648799
vt 0.460183 0.657159
vt 0.460183 0.690304
vt 0.486669 0.045311
vt 0.419994 0.191059
vt 0.422167 0.599988
vt 0.445768 0.556649
vt 0.469661 0.475706
vt 0.477555 0.462176
vt 0.486754 0.460736
vt 0.484790 0.477146
vt 0.484454 0.457928
vt 0.485561 0.446199
vt 0.493123 0.445401
vt 0.492387 0.457080
vt 0.471665 0.053210
vt 0.379159 0.601238
vt 0.385282 0.599612
vt 0.386922 0.604170
vt 0.381432 0.607555
vt 0.486669 0.424258
vt 0.487459 0.440917
vt 0.423568 0.505809
vt 0.452679 0.467354
vt 0.460520 0.507406
vt 0.480956 0.508271
vt 0.420401 0.168698
vt 0.422167 0.108290
vt 0.461297 0.096221
vt 0.479678 0.097153
vt 0.458025 0.104341
vt 0.378509 0.816867
vt 0.355733 0.774144
vt 0.330903 0.641253
vt 0.351886 0.640437
vt 0.398375 0.405151
vt 0.421210 0.496630
vt 0.379220 0.366797
vt 0.348274 0.367843
vt 0.350598 0.433451
vt 0.330908 0.368189
vt 0.364194 0.367147
vt 0.324343 0.324872
vt 0.360708 0.324944
vt 0.395132 0.366023
vt 0.400340 0.365401
vt 0.378349 0.293283
vt 0.378743 0.261665
vt 0.340632 0.261742
vt 0.341538 0.293469
vt 0.377606 0.322035
vt 0.343222 0.322330
vt 0.394336 0.324350
vt 0.400943 0.321655
vt 0.404597 0.548078
vt 0.409055 0.518571
vt 0.354176 0.523009
vt 0.378743 0.561263
vt 0.360141 0.470735
vt 0.313739 0.480362
vt 0.314593 0.500191
vt 0.351676 0.498544
vt 0.407749 0.493332
vt 0.316857 0.522344
vt 0.340632 0.560446
vt 0.403567 0.477757
vt 0.403321 0.292993
vt 0.404597 0.261464
vt 0.359645 0.307779
vt 0.396411 0.307317
vt 0.320262 0.307625
vt 0.322068 0.288897
vt 0.320535 0.262732
vt 0.360141 0.262967
vt 0.360320 0.289050
vt 0.396713 0.262636
vt 0.395646 0.288588
vt 0.320262 0.482345
vt 0.322068 0.451756
vt 0.360320 0.442459
vt 0.359645 0.473048
vt 0.360141 0.440146
vt 0.320535 0.449773
vt 0.395646 0.449241
vt 0.396411 0.479829
vt 0.396713 0.447168
vt 0.330810 0.894416
vt 0.328551 0.841501
vt 0.333098 0.940741
vt 0.407688 0.470184
vt 0.401774 0.414426
vt 0.378808 0.417417
vt 0.382476 0.471308
vt 0.356165 0.389418
vt 0.396460 0.389954
vt 0.401854 0.467455
vt 0.332380 0.471464
vt 0.419750 0.494548
vt 0.404289 0.312254
vt 0.402723 0.263453
vt 0.377163 0.264476
vt 0.378728 0.312916
vt 0.329852 0.393127
vt 0.333174 0.415674
vt 0.350300 0.837975
vt 0.312867 0.850246
vt 0.313942 0.890422
vt 0.364373 0.887710
vt 0.410353 0.893263
vt 0.407625 0.849695
vt 0.377163 0.940554
vt 0.402723 0.933075
vt 0.326372 0.933416
vt 0.326372 0.264581
vt 0.327937 0.313364
vt 0.376999 0.364960
vt 0.334438 0.364922
vt 0.331341 0.362549
vt 0.314868 0.316407
vt 0.352300 0.316485
vt 0.355881 0.361871
vt 0.409626 0.313492
vt 0.393462 0.359936
vt 0.398418 0.363919
vt 0.353526 0.289822
vt 0.351961 0.263334
vt 0.396809 0.260902
vt 0.398374 0.286829
vt 0.324240 0.289744
vt 0.322675 0.263848
vt 0.352300 0.841274
vt 0.353526 0.809945
vt 0.398374 0.821566
vt 0.409626 0.852894
vt 0.396809 0.818572
vt 0.351961 0.806852
vt 0.314868 0.853541
vt 0.324240 0.822213
vt 0.322675 0.819123
vt 0.479215 0.669173
vt 0.482775 0.721513
vt 0.471302 1.002924
vt 0.479215 1.015365
vt 0.480011 0.740196
vt 0.480011 0.988807
vt 0.471302 0.661469
vt 0.416217 0.154177
vt 0.402927 0.144428
vt 0.399432 0.131366
vt 0.416152 0.135838
vt 0.380819 0.132632
vt 0.389649 0.130579
vt 0.393748 0.140479
vt 0.385412 0.141084
vt 0.397513 0.570048
vt 0.379361 0.593819
vt 0.376297 0.603179
vt 0.379178 0.612314
vt 0.385412 0.620214
vt 0.393748 0.625520
vt 0.402927 0.624463
vt 0.416217 0.616909
vt 0.395305 0.577238
vt 0.396469 0.567675
vt 0.398731 0.572395
vt 0.390687 0.614171
vt 0.389649 0.619358
vt 0.380819 0.614576
vt 0.384313 0.610750
vt 0.397566 0.613212
vt 0.399432 0.617961
vt 0.376724 0.609983
vt 0.373598 0.601250
vt 0.376728 0.592146
vt 0.381473 0.594500
vt 0.409398 0.606787
vt 0.416152 0.608740
vt 0.407098 0.603615
vt 0.398562 0.608251
vt 0.393599 0.608943
vt 0.389001 0.606475
vt 0.386952 0.594751
vt 0.396930 0.582298
vt 0.413669 0.603560
vt 0.399402 0.578805
vt 0.410178 0.601288
vt 0.477555 0.038205
vt 0.484454 0.030102
vt 0.492387 0.025182
vt 0.486754 0.032036
vt 0.478542 0.442272
vt 0.471665 0.428901
vt 0.493123 0.025742
vt 0.487459 0.032373
vt 0.181819 0.000000
vt 0.227273 0.078731
vt 0.136365 0.078731
vt 0.272728 0.157461
vt 0.318182 0.078731
vt 0.363637 0.157461
vt 0.909091 0.000000
vt 0.954545 0.078731
vt 0.863636 0.078731
vt 0.727273 0.000000
vt 0.772727 0.078731
vt 0.681818 0.078731
vt 0.545455 0.000000
vt 0.590909 0.078731
vt 0.500000 0.078731
vt 0.318182 0.236191
vt 0.090910 0.157461
vt 0.181819 0.157461
vt 0.136365 0.236191
vt 0.818182 0.157461
vt 0.909091 0.157461
vt 0.863636 0.236191
vt 0.636364 0.157461
vt 0.727273 0.157461
vt 0.681818 0.236191
vt 0.454546 0.157461
vt 0.545455 0.157461
vt 0.500000 0.236191
vt 0.227273 0.236191
vt 0.045455 0.236191
vt 0.772727 0.236191
vt 0.590909 0.236191
vt 0.409092 0.236191
vt 0.181819 0.314921
vt 0.272728 0.314921
vt 0.227273 0.393651
vt 0.000000 0.314921
vt 0.090910 0.314921
vt 0.045455 0.393651
vt 0.727273 0.314921
vt 0.818182 0.314921
vt 0.772727 0.393651
vt 0.545455 0.314921
vt 0.636364 0.314921
vt 0.590909 0.393651
vt 0.363637 0.314921
vt 0.454546 0.314921
vt 0.409092 0.393651
vt 0.500000 0.393651
vt 0.454546 0.472382
vt 0.681818 0.393651
vt 0.636364 0.472382
vt 0.863636 0.393651
vt 0.818182 0.472382
vt 0.909091 0.314921
vt 0.136365 0.393651
vt 0.090910 0.472382
vt 0.318182 0.393651
vt 0.272728 0.472382
vt 0.954545 0.236191
vt 1.000000 0.157461
vt 0.409092 0.078731
vt 0.363637 0.000000
s 1
f 116/1/1 98/2/1 209/3/1 208/4/1
f 115/5/2 4/6/2 17/7/2 97/8/2
f 3/9/3 7/10/3 13/11/3 8/12/3
f 7/10/4 4/13/4 9/14/4 13/11/4
f 13/11/5 9/14/5 2/15/5 10/16/5
f 8/12/6 13/11/6 10/16/6 1/17/6
f 1/17/7 10/16/7 32/18/7 29/19/7
f 114/20/8 1/21/8 29/22/8 83/23/8
f 116/24/9 3/25/9 8/26/9 109/27/9
f 109/27/10 8/26/10 1/21/10 114/20/10
f 115/5/11 6/28/11 15/29/11 99/30/11
f 99/30/12 15/29/12 12/31/12 112/32/12
f 97/8/13 17/7/13 21/33/13 90/34/13
f 20/35/14 25/36/14 203/37/14 204/38/14
f 116/24/15 5/28/15 18/39/15 98/40/15
f 4/41/16 7/42/16 197/43/16 196/44/16
f 89/45/17 90/46/17 21/47/17 25/36/17
f 91/48/18 89/45/18 25/36/18 20/35/18
f 25/36/19 21/47/19 202/49/19 203/37/19
f 98/40/20 18/39/20 23/50/20 91/51/20
f 38/52/21 45/53/21 134/54/21 131/55/21
f 133/56/22 136/57/22 144/58/22 146/59/22
f 112/32/23 12/31/23 34/60/23 82/61/23
f 10/16/24 2/15/24 30/62/24 32/18/24
f 29/63/25 32/64/25 129/65/25 130/66/25
f 75/67/26 41/68/26 48/69/26 73/70/26
f 82/61/27 34/60/27 41/68/27 75/67/27
f 83/71/28 29/63/28 141/72/28 140/73/28
f 32/64/29 30/74/29 128/75/29 129/65/29
f 73/70/30 48/69/30 56/76/30 66/77/30
f 74/78/31 81/79/31 145/80/31 148/81/31
f 130/82/32 133/56/32 146/59/32 147/83/32
f 6/28/33 115/5/33 97/8/33 19/39/33
f 54/84/34 53/85/34 60/86/34 61/87/34
f 67/88/35 54/89/35 61/90/35 65/91/35
f 11/92/36 114/20/36 83/23/36 33/93/36
f 5/28/37 116/24/37 109/27/37 14/29/37
f 14/29/38 109/27/38 114/20/38 11/92/38
f 139/94/39 54/95/39 143/96/39 142/97/39
f 30/62/40 38/52/40 131/55/40 128/98/40
f 4/6/41 115/5/41 99/30/41 9/99/41
f 61/87/42 60/86/42 69/100/42 70/101/42
f 65/91/43 61/90/43 70/102/43 58/103/43
f 9/99/44 99/30/44 112/32/44 2/104/44
f 66/77/45 56/76/45 63/105/45 64/106/45
f 19/39/46 97/8/46 90/34/46 24/107/46
f 53/85/47 52/108/47 59/109/47 60/86/47
f 198/110/48 3/111/48 207/112/48 213/113/48
f 256/114/49 255/115/49 253/116/49 254/117/49
f 23/118/50 26/119/50 89/45/50 91/48/50
f 69/100/51 68/120/51 76/121/51 77/122/51
f 204/123/52 201/124/52 211/125/52 212/126/52
f 64/106/53 63/105/53 72/127/53 57/128/53
f 33/93/54 83/23/54 81/129/54 40/68/54
f 60/86/55 59/109/55 68/120/55 69/100/55
f 2/104/56 112/32/56 82/61/56 30/130/56
f 38/131/57 75/67/57 73/70/57 45/132/57
f 77/122/58 76/121/58 259/133/58 260/134/58
f 30/130/59 82/61/59 75/67/59 38/131/59
f 50/135/60 80/136/60 88/137/60 44/138/60
f 58/103/61 70/102/61 78/139/61 51/140/61
f 70/101/62 69/100/62 77/122/62 78/141/62
f 45/132/63 73/70/63 66/77/63 52/142/63
f 57/128/64 72/127/64 80/136/64 50/135/64
f 28/143/65 110/144/65 96/145/65 42/146/65
f 40/68/66 81/129/66 74/147/66 47/69/66
f 108/148/67 262/149/67 93/150/67 94/151/67
f 31/152/68 108/153/68 94/154/68 43/155/68
f 55/156/69 67/88/69 65/91/69 62/157/69
f 51/140/70 78/139/70 86/158/70 49/159/70
f 78/141/71 77/122/71 260/134/71 86/160/71
f 47/69/72 74/147/72 67/88/72 55/156/72
f 123/161/73 124/162/73 101/163/73 102/164/73
f 121/165/74 123/166/74 102/167/74 37/168/74
f 62/157/75 65/91/75 58/103/75 71/169/75
f 52/142/76 66/77/76 64/106/76 59/170/76
f 59/170/77 64/106/77 57/128/77 68/171/77
f 262/149/78 261/172/78 92/173/78 93/150/78
f 76/174/79 50/175/79 44/176/79 259/177/79
f 71/169/80 58/103/80 51/140/80 79/178/80
f 37/168/81 35/179/81 105/180/81 103/181/81
f 124/162/82 127/182/82 297/183/82 298/184/82 101/163/82
f 68/171/83 57/128/83 50/135/83 76/185/83
f 261/186/84 28/143/84 42/146/84 92/187/84
f 107/188/85 31/152/85 43/155/85 95/189/85
f 127/190/86 122/191/86 295/192/86 297/193/86
f 79/178/87 51/140/87 49/159/87 87/194/87
f 100/195/88 36/196/88 301/197/88 104/198/88
f 126/199/89 121/165/89 37/168/89 103/181/89
f 102/167/90 101/200/90 35/179/90 37/168/90
f 274/201/91 273/202/91 290/203/91 291/204/91
f 122/191/92 125/205/92 300/206/92 295/192/92
f 49/159/93 86/158/93 108/153/93 31/152/93
f 86/160/94 260/134/94 262/149/94 108/148/94
f 35/207/95 296/208/95 299/209/95 105/210/95
f 44/176/96 88/211/96 110/144/96 28/143/96
f 93/212/97 92/187/97 120/213/97 119/214/97
f 87/194/98 49/159/98 31/152/98 107/188/98
f 42/146/99 96/145/99 113/215/99 27/216/99
f 259/217/100 44/138/100 28/218/100 261/219/100
f 92/187/101 42/146/101 27/216/101 120/213/101
f 95/189/102 43/155/102 22/220/102 118/221/102
f 43/155/103 94/154/103 117/222/103 22/220/103
f 94/151/104 93/150/104 119/223/104 117/224/104
f 120/213/105 27/216/105 122/191/105 127/190/105
f 118/221/106 22/220/106 121/165/106 126/199/106
f 119/223/107 120/225/107 127/182/107 124/162/107
f 27/216/108 113/215/108 125/205/108 122/191/108
f 22/220/109 117/222/109 123/166/109 121/165/109
f 117/224/110 119/223/110 124/162/110 123/161/110
f 130/82/111 129/226/111 132/227/111 133/56/111
f 132/227/112 131/55/112 134/54/112 135/228/112
f 129/226/113 128/98/113 131/55/113 132/227/113
f 135/228/114 134/54/114 137/229/114 138/230/114
f 133/56/115 132/227/115 135/228/115 136/57/115
f 136/57/116 135/228/116 138/230/116 139/231/116
f 52/232/117 53/233/117 138/234/117 137/235/117
f 45/53/118 52/108/118 137/229/118 134/54/118
f 54/95/119 67/236/119 149/237/119 143/96/119
f 53/233/120 54/95/120 139/94/120 138/234/120
f 141/72/121 147/238/121 157/239/121 39/240/121
f 144/58/122 142/241/122 150/242/122 153/243/122
f 145/80/123 140/244/123 46/245/123 154/246/123
f 148/81/124 145/80/124 154/246/124 158/247/124
f 146/59/125 144/58/125 153/243/125 156/248/125
f 142/97/126 143/96/126 151/249/126 150/250/126
f 136/57/127 139/231/127 142/241/127 144/58/127
f 67/251/128 74/78/128 148/81/128 149/252/128
f 29/63/129 130/66/129 147/238/129 141/72/129
f 81/79/130 83/253/130 140/244/130 145/80/130
f 153/243/131 150/242/131 162/254/131 164/255/131
f 154/246/132 46/245/132 160/256/132 165/257/132
f 158/247/133 154/246/133 165/257/133 168/258/133
f 156/248/134 153/243/134 164/255/134 166/259/134
f 150/250/135 151/249/135 163/260/135 162/261/135
f 157/262/136 156/248/136 166/259/136 167/263/136
f 149/252/137 148/81/137 158/247/137 159/264/137
f 143/96/138 149/237/138 159/265/138 151/249/138
f 140/73/139 141/72/139 39/240/139 46/266/139
f 147/83/140 146/59/140 156/248/140 157/262/140
f 188/267/141 187/268/141 177/269/141 152/270/141
f 184/271/142 185/272/142 170/273/142 173/274/142
f 182/275/143 180/276/143 155/277/143 174/278/143
f 181/279/144 182/275/144 174/278/144 178/280/144
f 183/281/145 184/271/145 173/274/145 176/282/145
f 170/273/146 185/272/146 194/283/146 192/284/146
f 39/240/147 157/239/147 167/285/147 161/286/147
f 159/264/148 158/247/148 168/258/148 169/287/148
f 151/249/149 159/265/149 169/288/149 163/260/149
f 46/266/150 39/240/150 161/286/150 160/289/150
f 155/290/151 152/291/151 175/292/151 174/293/151
f 171/294/152 172/295/152 173/296/152 170/297/152
f 174/293/153 175/292/153 172/295/153 178/298/153
f 175/292/154 152/291/154 177/299/154 176/300/154
f 178/298/155 172/295/155 171/294/155 179/301/155
f 172/295/156 175/292/156 176/300/156 173/296/156
f 189/302/157 181/279/157 178/280/157 179/303/157
f 189/302/158 179/303/158 193/304/158 195/305/158
f 180/306/159 188/267/159 152/270/159 155/307/159
f 187/308/160 183/281/160 176/282/160 177/309/160
f 167/263/161 166/259/161 183/281/161 187/308/161
f 160/289/162 161/286/162 188/267/162 180/306/162
f 163/260/163 169/288/163 189/310/163 186/311/163
f 169/287/164 168/258/164 181/279/164 189/302/164
f 162/261/165 163/260/165 186/311/165 185/312/165
f 166/259/166 164/255/166 184/271/166 183/281/166
f 168/258/167 165/257/167 182/275/167 181/279/167
f 165/257/168 160/256/168 180/276/168 182/275/168
f 164/255/169 162/254/169 185/272/169 184/271/169
f 161/286/170 167/285/170 187/268/170 188/267/170
f 194/313/171 190/314/171 191/315/171 192/316/171
f 190/314/172 195/317/172 193/318/172 191/315/172
f 185/319/173 186/320/173 190/321/173 194/322/173
f 171/294/174 170/297/174 192/323/174 191/324/174
f 186/320/175 189/325/175 195/326/175 190/321/175
f 179/301/176 171/294/176 191/324/176 193/327/176
f 196/328/177 197/329/177 200/330/177 199/331/177
f 200/330/178 201/124/178 204/123/178 203/332/178
f 197/329/179 198/333/179 201/124/179 200/330/179
f 199/331/180 200/330/180 203/332/180 202/334/180
f 7/42/181 3/111/181 198/110/181 197/43/181
f 17/7/182 4/6/182 196/335/182 199/336/182
f 201/124/183 198/333/183 213/337/183 211/125/183
f 21/33/184 17/7/184 199/336/184 202/338/184
f 208/4/185 209/3/185 217/339/185 216/340/185
f 210/341/186 206/342/186 214/343/186 218/344/186
f 207/112/187 208/345/187 216/346/187 215/347/187
f 211/125/188 213/337/188 221/348/188 219/349/188
f 20/35/189 204/38/189 212/350/189 206/342/189
f 91/48/190 20/35/190 206/342/190 210/341/190
f 98/2/191 91/351/191 210/352/191 209/3/191
f 3/111/192 116/353/192 208/345/192 207/112/192
f 232/354/193 235/355/193 222/356/193 226/357/193
f 233/358/194 224/359/194 240/360/194 241/361/194
f 16/362/195 230/363/195 229/364/195 227/365/195
f 231/366/196 232/367/196 226/368/196 225/369/196
f 213/113/197 207/112/197 215/347/197 221/370/197
f 206/342/198 212/350/198 220/371/198 214/343/198
f 212/126/199 211/125/199 219/349/199 220/372/199
f 209/3/200 210/352/200 218/373/200 217/339/200
f 223/374/201 205/375/201 227/376/201 229/377/201
f 223/374/202 224/378/202 225/379/202 205/375/202
f 205/375/203 225/379/203 226/380/203 222/381/203
f 205/375/204 222/381/204 228/382/204 227/376/204
f 233/358/205 231/366/205 225/369/205 224/359/205
f 229/364/206 230/363/206 237/383/206 238/384/206
f 235/355/207 236/385/207 228/386/207 222/356/207
f 236/387/208 16/362/208 227/365/208 228/388/208
f 250/389/209 243/390/209 16/362/209 236/387/209
f 249/391/210 250/392/210 236/385/210 235/355/210
f 246/393/211 245/394/211 234/395/211 230/396/211
f 248/397/212 244/398/212 231/366/212 233/358/212
f 244/398/213 247/399/213 232/367/213 231/366/213
f 243/390/214 246/400/214 230/363/214 16/362/214
f 245/394/215 248/401/215 233/402/215 234/395/215
f 247/403/216 249/391/216 235/355/216 232/354/216
f 242/404/217 241/405/217 240/406/217 239/407/217
f 237/408/218 242/404/218 239/407/218 238/409/218
f 234/410/219 233/411/219 241/412/219 242/413/219
f 224/378/220 223/374/220 239/414/220 240/415/220
f 230/416/221 234/410/221 242/413/221 237/417/221
f 223/374/222 229/377/222 238/418/222 239/414/222
f 218/344/223 214/343/223 249/391/223 247/403/223
f 215/347/224 216/346/224 248/401/224 245/394/224
f 219/349/225 221/348/225 246/400/225 243/390/225
f 217/339/226 218/373/226 247/399/226 244/398/226
f 216/340/227 217/339/227 244/398/227 248/397/227
f 221/370/228 215/347/228 245/394/228 246/393/228
f 214/343/229 220/371/229 250/392/229 249/391/229
f 220/372/230 219/349/230 243/390/230 250/389/230
f 252/419/231 251/420/231 254/421/231 253/422/231
f 255/423/232 257/424/232 252/425/232 253/426/232
f 258/427/233 256/428/233 254/421/233 251/420/233
f 24/107/234 90/34/234 256/429/234 258/430/234
f 89/45/235 26/119/235 257/431/235 255/432/235
f 90/46/236 89/45/236 255/432/236 256/428/236
f 84/433/237 85/434/237 260/134/237 259/133/237
f 275/435/238 84/433/238 259/133/238 261/172/238
f 85/434/239 276/436/239 262/149/239 260/134/239
f 276/436/240 284/437/240 283/438/240 275/435/240 261/172/240 262/149/240
f 84/439/241 275/440/241 279/441/241 263/442/241
f 266/443/242 264/444/242 278/445/242 280/446/242
f 276/436/243 85/434/243 267/447/243 282/448/243
f 278/449/244 264/450/244 265/451/244 277/452/244
f 277/452/245 265/451/245 263/442/245 279/441/245
f 266/443/246 280/446/246 281/453/246 268/454/246
f 268/454/247 281/453/247 282/448/247 267/447/247
f 85/455/248 84/456/248 263/457/248 265/458/248 264/459/248 266/460/248 268/461/248 267/462/248
f 106/463/249 284/464/249 276/465/249
f 271/466/250 269/467/250 278/468/250 277/469/250
f 270/470/251 271/466/251 277/469/251 279/471/251
f 273/202/252 274/201/252 281/472/252 280/473/252
f 274/201/253 272/474/253 282/475/253 281/472/253
f 269/467/254 273/202/254 280/473/254 278/468/254
f 111/476/255 270/470/255 279/471/255 275/477/255
f 272/474/256 106/463/256 276/465/256 282/475/256
f 285/478/257 286/479/257 292/480/257 291/204/257 290/203/257 288/481/257 287/482/257 289/483/257
f 283/484/258 111/476/258 275/477/258
f 270/470/259 111/476/259 285/478/259 289/483/259
f 294/485/260 286/479/260 285/478/260 293/486/260
f 111/476/261 283/484/261 293/486/261 285/478/261
f 106/463/262 272/474/262 292/480/262 286/479/262
f 272/474/263 274/201/263 291/204/263 292/480/263
f 269/467/264 271/466/264 287/482/264 288/481/264
f 283/438/265 284/437/265 294/487/265 293/488/265
f 273/202/266 269/467/266 288/481/266 290/203/266
f 284/464/267 106/463/267 286/479/267 294/485/267
f 271/466/268 270/470/268 289/483/268 287/482/268
f 297/489/269 295/490/269 36/491/269 100/492/269
f 296/208/270 298/493/270 104/198/270 301/197/270
f 101/494/271 298/493/271 296/208/271 35/207/271
f 36/196/272 302/495/272 303/496/272 301/197/272
f 299/497/273 296/498/273 301/499/273 303/500/273
f 295/490/274 300/501/274 302/502/274 36/491/274
f 298/184/275 297/183/275 100/503/275 104/504/275
f 385/1/276 474/4/276 475/3/276 372/2/276
f 384/505/277 371/506/277 314/507/277 307/508/277
f 306/9/278 309/12/278 312/11/278 308/10/278
f 308/10/279 312/11/279 310/14/279 307/13/279
f 312/11/280 311/16/280 305/15/280 310/14/280
f 309/12/281 304/17/281 311/16/281 312/11/281
f 304/17/282 321/19/282 324/18/282 311/16/282
f 383/509/283 361/510/283 321/511/283 304/512/283
f 385/513/284 380/514/284 309/515/284 306/516/284
f 380/514/285 383/509/285 304/512/285 309/515/285
f 384/505/286 373/517/286 15/29/286 6/28/286
f 373/517/287 382/518/287 12/31/287 15/29/287
f 371/506/288 366/519/288 316/520/288 314/507/288
f 315/521/289 470/522/289 469/523/289 318/524/289
f 385/513/290 372/525/290 18/39/290 5/28/290
f 307/526/291 462/527/291 463/528/291 308/529/291
f 365/530/292 318/524/292 316/531/292 366/532/292
f 367/533/293 315/521/293 318/524/293 365/530/293
f 318/524/294 469/523/294 468/534/294 316/531/294
f 372/525/295 367/535/295 23/50/295 18/39/295
f 328/52/296 397/55/296 400/54/296 333/53/296
f 399/56/297 412/59/297 410/58/297 402/57/297
f 382/518/298 360/536/298 34/60/298 12/31/298
f 311/16/299 324/18/299 322/62/299 305/15/299
f 321/537/300 396/538/300 395/539/300 324/540/300
f 355/541/301 353/542/301 48/69/301 41/68/301
f 360/536/302 355/541/302 41/68/302 34/60/302
f 361/543/303 406/544/303 407/545/303 321/537/303
f 324/540/304 395/539/304 394/546/304 322/547/304
f 353/542/305 348/548/305 56/76/305 48/69/305
f 354/78/306 414/81/306 411/80/306 359/79/306
f 396/82/307 413/83/307 412/59/307 399/56/307
f 6/28/308 19/39/308 371/506/308 384/505/308
f 340/84/309 345/87/309 344/86/309 339/85/309
f 349/549/310 347/550/310 345/551/310 340/552/310
f 11/92/311 33/93/311 361/510/311 383/509/311
f 5/28/312 14/29/312 380/514/312 385/513/312
f 14/29/313 11/92/313 383/509/313 380/514/313
f 405/553/314 408/554/314 409/555/314 340/556/314
f 322/62/315 394/98/315 397/55/315 328/52/315
f 307/508/316 310/557/316 373/517/316 384/505/316
f 345/87/317 352/101/317 351/100/317 344/86/317
f 347/550/318 342/558/318 352/559/318 345/551/318
f 310/557/319 305/560/319 382/518/319 373/517/319
f 348/548/320 346/561/320 63/105/320 56/76/320
f 19/39/321 24/107/321 366/519/321 371/506/321
f 339/85/322 344/86/322 343/109/322 338/108/322
f 464/562/323 479/563/323 473/564/323 306/565/323
f 520/114/324 518/117/324 517/116/324 519/115/324
f 23/118/325 367/533/325 365/530/325 26/119/325
f 351/100/326 357/122/326 356/121/326 350/120/326
f 470/123/327 478/126/327 477/125/327 467/124/327
f 346/561/328 341/566/328 72/127/328 63/105/328
f 33/93/329 40/68/329 359/567/329 361/510/329
f 344/86/330 351/100/330 350/120/330 343/109/330
f 305/560/331 322/568/331 360/536/331 382/518/331
f 328/569/332 333/570/332 353/542/332 355/541/332
f 357/122/333 522/134/333 521/133/333 356/121/333
f 322/568/334 328/569/334 355/541/334 360/536/334
f 336/571/335 332/572/335 88/137/335 80/136/335
f 342/558/336 337/573/336 358/574/336 352/559/336
f 352/101/337 358/141/337 357/122/337 351/100/337
f 333/570/338 338/575/338 348/548/338 353/542/338
f 341/566/339 336/571/339 80/136/339 72/127/339
f 320/576/340 330/577/340 96/145/340 110/144/340
f 40/68/341 47/69/341 354/578/341 359/567/341
f 379/148/342 370/151/342 369/150/342 524/149/342
f 323/579/343 331/580/343 370/581/343 379/582/343
f 55/156/344 62/157/344 347/550/344 349/549/344
f 337/573/345 335/583/345 364/584/345 358/574/345
f 358/141/346 364/160/346 522/134/346 357/122/346
f 47/69/347 55/156/347 349/549/347 354/578/347
f 391/161/348 376/164/348 375/163/348 392/162/348
f 389/585/349 327/586/349 376/587/349 391/588/349
f 62/157/350 71/169/350 342/558/350 347/550/350
f 338/575/351 343/589/351 346/561/351 348/548/351
f 343/589/352 350/590/352 341/566/352 346/561/352
f 524/149/353 369/150/353 368/173/353 523/172/353
f 356/591/354 521/592/354 332/593/354 336/594/354
f 71/169/355 79/178/355 337/573/355 342/558/355
f 327/586/356 103/181/356 105/180/356 325/595/356
f 392/162/357 375/163/357 560/184/357 559/183/357 393/182/357
f 350/590/358 356/596/358 336/571/358 341/566/358
f 523/597/359 368/598/359 330/577/359 320/576/359
f 107/188/360 95/189/360 331/580/360 323/579/360
f 393/599/361 559/600/361 557/601/361 390/602/361
f 79/178/362 87/194/362 335/583/362 337/573/362
f 374/603/363 377/604/363 561/605/363 326/606/363
f 126/199/364 103/181/364 327/586/364 389/585/364
f 376/587/365 327/586/365 325/595/365 375/607/365
f 536/608/366 553/609/366 552/610/366 535/611/366
f 390/602/367 557/601/367 300/206/367 125/205/367
f 335/583/368 323/579/368 379/582/368 364/584/368
f 364/160/369 379/148/369 524/149/369 522/134/369
f 325/612/370 105/210/370 299/209/370 558/613/370
f 332/593/371 320/576/371 110/144/371 88/211/371
f 369/614/372 387/615/372 388/616/372 368/598/372
f 87/194/373 107/188/373 323/579/373 335/583/373
f 330/577/374 319/617/374 113/215/374 96/145/374
f 521/618/375 523/619/375 320/620/375 332/572/375
f 368/598/376 388/616/376 319/617/376 330/577/376
f 95/189/377 118/221/377 317/621/377 331/580/377
f 331/580/378 317/621/378 386/622/378 370/581/378
f 370/151/379 386/224/379 387/223/379 369/150/379
f 388/616/380 393/599/380 390/602/380 319/617/380
f 118/221/381 126/199/381 389/585/381 317/621/381
f 387/223/382 392/162/382 393/182/382 388/225/382
f 319/617/383 390/602/383 125/205/383 113/215/383
f 317/621/384 389/585/384 391/588/384 386/622/384
f 386/224/385 391/161/385 392/162/385 387/223/385
f 396/82/386 399/56/386 398/227/386 395/226/386
f 398/227/387 401/228/387 400/54/387 397/55/387
f 395/226/388 398/227/388 397/55/388 394/98/388
f 401/228/389 404/230/389 403/229/389 400/54/389
f 399/56/390 402/57/390 401/228/390 398/227/390
f 402/57/391 405/231/391 404/230/391 401/228/391
f 338/623/392 403/624/392 404/625/392 339/626/392
f 333/53/393 400/54/393 403/229/393 338/108/393
f 340/556/394 409/555/394 415/627/394 349/628/394
f 339/626/395 404/625/395 405/553/395 340/556/395
f 407/545/396 329/629/396 423/630/396 413/631/396
f 410/58/397 419/243/397 416/242/397 408/241/397
f 411/80/398 420/246/398 334/245/398 406/244/398
f 414/81/399 424/247/399 420/246/399 411/80/399
f 412/59/400 422/248/400 419/243/400 410/58/400
f 408/554/401 416/632/401 417/633/401 409/555/401
f 402/57/402 410/58/402 408/241/402 405/231/402
f 349/251/403 415/252/403 414/81/403 354/78/403
f 321/537/404 407/545/404 413/631/404 396/538/404
f 359/79/405 411/80/405 406/244/405 361/253/405
f 419/243/406 430/255/406 428/254/406 416/242/406
f 420/246/407 431/257/407 426/256/407 334/245/407
f 424/247/408 434/258/408 431/257/408 420/246/408
f 422/248/409 432/259/409 430/255/409 419/243/409
f 416/632/410 428/634/410 429/635/410 417/633/410
f 423/262/411 433/263/411 432/259/411 422/248/411
f 415/252/412 425/264/412 424/247/412 414/81/412
f 409/555/413 417/633/413 425/636/413 415/627/413
f 406/544/414 334/637/414 329/629/414 407/545/414
f 413/83/415 423/262/415 422/248/415 412/59/415
f 454/638/416 418/639/416 443/640/416 453/641/416
f 450/271/417 439/274/417 436/273/417 451/272/417
f 448/275/418 440/278/418 421/277/418 446/276/418
f 447/279/419 444/280/419 440/278/419 448/275/419
f 449/281/420 442/282/420 439/274/420 450/271/420
f 436/273/421 458/284/421 460/283/421 451/272/421
f 329/629/422 427/642/422 433/643/422 423/630/422
f 425/264/423 435/287/423 434/258/423 424/247/423
f 417/633/424 429/635/424 435/644/424 425/636/424
f 334/637/425 426/645/425 427/642/425 329/629/425
f 421/646/426 440/647/426 441/648/426 418/649/426
f 437/650/427 436/651/427 439/652/427 438/653/427
f 440/647/428 444/654/428 438/653/428 441/648/428
f 441/648/429 442/655/429 443/656/429 418/649/429
f 444/654/430 445/657/430 437/650/430 438/653/430
f 438/653/431 439/652/431 442/655/431 441/648/431
f 455/302/432 445/303/432 444/280/432 447/279/432
f 455/302/433 461/305/433 459/304/433 445/303/433
f 446/658/434 421/659/434 418/639/434 454/638/434
f 453/308/435 443/309/435 442/282/435 449/281/435
f 433/263/436 453/308/436 449/281/436 432/259/436
f 426/645/437 446/658/437 454/638/437 427/642/437
f 429/635/438 452/660/438 455/661/438 435/644/438
f 435/287/439 455/302/439 447/279/439 434/258/439
f 428/634/440 451/662/440 452/660/440 429/635/440
f 432/259/441 449/281/441 450/271/441 430/255/441
f 434/258/442 447/279/442 448/275/442 431/257/442
f 431/257/443 448/275/443 446/276/443 426/256/443
f 430/255/444 450/271/444 451/272/444 428/254/444
f 427/642/445 454/638/445 453/641/445 433/643/445
f 460/663/446 458/664/446 457/665/446 456/666/446
f 456/666/447 457/665/447 459/667/447 461/668/447
f 451/669/448 460/670/448 456/671/448 452/672/448
f 437/650/449 457/673/449 458/674/449 436/651/449
f 452/672/450 456/671/450 461/675/450 455/676/450
f 445/657/451 459/677/451 457/673/451 437/650/451
f 462/328/452 465/331/452 466/330/452 463/329/452
f 466/330/453 469/332/453 470/123/453 467/124/453
f 463/329/454 466/330/454 467/124/454 464/333/454
f 465/331/455 468/334/455 469/332/455 466/330/455
f 308/529/456 463/528/456 464/562/456 306/565/456
f 314/507/457 465/678/457 462/679/457 307/508/457
f 467/124/458 477/125/458 479/337/458 464/333/458
f 316/520/459 468/680/459 465/678/459 314/507/459
f 474/4/460 482/340/460 483/339/460 475/3/460
f 476/681/461 484/682/461 480/683/461 472/684/461
f 473/564/462 481/685/462 482/686/462 474/687/462
f 477/125/463 485/349/463 487/348/463 479/337/463
f 315/521/464 472/684/464 478/688/464 470/522/464
f 367/533/465 476/681/465 472/684/465 315/521/465
f 372/2/466 475/3/466 476/352/466 367/351/466
f 306/565/467 473/564/467 474/687/467 385/689/467
f 498/690/468 492/691/468 488/692/468 501/693/468
f 499/358/469 507/361/469 506/360/469 490/359/469
f 313/362/470 493/365/470 495/364/470 496/363/470
f 497/366/471 491/369/471 492/368/471 498/367/471
f 479/563/472 487/694/472 481/685/472 473/564/472
f 472/684/473 480/683/473 486/695/473 478/688/473
f 478/126/474 486/372/474 485/349/474 477/125/474
f 475/3/475 483/339/475 484/373/475 476/352/475
f 489/696/476 495/697/476 493/698/476 471/699/476
f 489/696/477 471/699/477 491/700/477 490/701/477
f 471/699/478 488/702/478 492/703/478 491/700/478
f 471/699/479 493/698/479 494/704/479 488/702/479
f 499/358/480 490/359/480 491/369/480 497/366/480
f 495/364/481 504/384/481 503/383/481 496/363/481
f 501/693/482 488/692/482 494/705/482 502/706/482
f 502/387/483 494/388/483 493/365/483 313/362/483
f 516/389/484 502/387/484 313/362/484 509/390/484
f 515/707/485 501/693/485 502/706/485 516/708/485
f 512/709/486 496/710/486 500/711/486 511/712/486
f 514/397/487 499/358/487 497/366/487 510/398/487
f 510/398/488 497/366/488 498/367/488 513/399/488
f 509/390/489 313/362/489 496/363/489 512/400/489
f 511/712/490 500/711/490 499/713/490 514/714/490
f 513/715/491 498/690/491 501/693/491 515/707/491
f 508/716/492 505/717/492 506/718/492 507/719/492
f 503/720/493 504/721/493 505/717/493 508/716/493
f 500/722/494 508/723/494 507/724/494 499/725/494
f 490/701/495 506/726/495 505/727/495 489/696/495
f 496/728/496 503/729/496 508/723/496 500/722/496
f 489/696/497 505/727/497 504/730/497 495/697/497
f 484/682/498 513/715/498 515/707/498 480/683/498
f 481/685/499 511/712/499 514/714/499 482/686/499
f 485/349/500 509/390/500 512/400/500 487/348/500
f 483/339/501 510/398/501 513/399/501 484/373/501
f 482/340/502 514/397/502 510/398/502 483/339/502
f 487/694/503 512/709/503 511/712/503 481/685/503
f 480/683/504 515/707/504 516/708/504 486/695/504
f 486/372/505 516/389/505 509/390/505 485/349/505
f 252/419/506 517/731/506 518/732/506 251/420/506
f 519/733/507 517/734/507 252/425/507 257/424/507
f 258/427/508 251/420/508 518/732/508 520/735/508
f 24/107/509 258/430/509 520/736/509 366/519/509
f 365/530/510 519/737/510 257/431/510 26/119/510
f 366/532/511 520/735/511 519/737/511 365/530/511
f 362/433/512 521/133/512 522/134/512 363/434/512
f 537/435/513 523/172/513 521/133/513 362/433/513
f 363/434/514 522/134/514 524/149/514 538/436/514
f 538/436/515 524/149/515 523/172/515 537/435/515 545/438/515 546/437/515
f 362/738/516 525/739/516 541/740/516 537/741/516
f 528/443/517 542/446/517 540/445/517 526/444/517
f 538/436/518 544/448/518 529/447/518 363/434/518
f 540/742/519 539/743/519 527/744/519 526/745/519
f 539/743/520 541/740/520 525/739/520 527/744/520
f 528/443/521 530/454/521 543/453/521 542/446/521
f 530/454/522 529/447/522 544/448/522 543/453/522
f 363/746/523 529/747/523 530/748/523 528/749/523 526/750/523 527/751/523 525/752/523 362/753/523
f 378/754/524 538/755/524 546/756/524
f 533/757/525 539/758/525 540/759/525 531/760/525
f 532/761/526 541/762/526 539/758/526 533/757/526
f 535/611/527 542/763/527 543/764/527 536/608/527
f 536/608/528 543/764/528 544/765/528 534/766/528
f 531/760/529 540/759/529 542/763/529 535/611/529
f 381/767/530 537/768/530 541/762/530 532/761/530
f 534/766/531 544/765/531 538/755/531 378/754/531
f 547/769/532 551/770/532 549/771/532 550/772/532 552/610/532 553/609/532 554/773/532 548/774/532
f 545/775/533 537/768/533 381/767/533
f 532/761/534 551/770/534 547/769/534 381/767/534
f 556/776/535 555/777/535 547/769/535 548/774/535
f 381/767/536 547/769/536 555/777/536 545/775/536
f 378/754/537 548/774/537 554/773/537 534/766/537
f 534/766/538 554/773/538 553/609/538 536/608/538
f 531/760/539 550/772/539 549/771/539 533/757/539
f 545/438/540 555/488/540 556/487/540 546/437/540
f 535/611/541 552/610/541 550/772/541 531/760/541
f 546/756/542 556/776/542 548/774/542 378/754/542
f 533/757/543 549/771/543 551/770/543 532/761/543
f 559/778/544 374/779/544 326/780/544 557/781/544
f 558/613/545 561/605/545 377/604/545 560/782/545
f 375/783/546 325/612/546 558/613/546 560/782/546
f 326/606/547 561/605/547 303/496/547 302/495/547
f 299/497/548 303/500/548 561/784/548 558/785/548
f 557/781/549 326/780/549 302/502/549 300/501/549
f 560/184/550 377/504/550 374/503/550 559/183/550
f 562/786/551 575/787/551 574/788/551
f 563/789/552 575/790/552 577/791/552
f 562/792/553 574/793/553 579/794/553
f 562/795/554 579/796/554 581/797/554
f 562/798/555 581/799/555 578/800/555
f 563/789/556 577/791/556 584/801/556
f 564/802/557 576/803/557 586/804/557
f 565/805/558 580/806/558 588/807/558
f 566/808/559 582/809/559 590/810/559
f 567/811/560 583/812/560 592/813/560
f 563/789/561 584/801/561 587/814/561
f 564/802/562 586/804/562 589/815/562
f 565/805/563 588/807/563 591/816/563
f 566/808/564 590/810/564 593/817/564
f 567/811/565 592/813/565 585/818/565
f 568/819/566 594/820/566 599/821/566
f 569/822/567 595/823/567 601/824/567
f 570/825/568 596/826/568 602/827/568
f 571/828/569 597/829/569 603/830/569
f 572/831/570 598/832/570 600/833/570
f 600/833/571 603/834/571 573/835/571
f 600/833/572 598/832/572 603/834/572
f 598/832/573 571/828/573 603/834/573
f 603/830/574 602/836/574 573/837/574
f 603/830/575 597/829/575 602/836/575
f 597/829/576 570/825/576 602/836/576
f 602/827/577 601/838/577 573/839/577
f 602/827/578 596/826/578 601/838/578
f 596/826/579 569/840/579 601/838/579
f 601/824/580 599/841/580 573/842/580
f 601/824/581 595/823/581 599/841/581
f 595/823/582 568/819/582 599/841/582
f 599/821/583 600/843/583 573/844/583
f 599/821/584 594/820/584 600/843/584
f 594/820/585 572/831/585 600/843/585
f 585/818/586 598/832/586 572/831/586
f 585/818/587 592/813/587 598/832/587
f 592/813/588 571/828/588 598/832/588
f 593/817/589 597/829/589 571/828/589
f 593/817/590 590/810/590 597/829/590
f 590/810/591 570/825/591 597/829/591
f 591/816/592 596/826/592 570/825/592
f 591/816/593 588/807/593 596/826/593
f 588/807/594 569/840/594 596/826/594
f 589/815/595 595/823/595 569/822/595
f 589/815/596 586/804/596 595/823/596
f 586/804/597 568/819/597 595/823/597
f 587/814/598 594/820/598 568/819/598
f 587/814/599 584/801/599 594/820/599
f 584/801/600 572/831/600 594/820/600
f 592/813/601 593/817/601 571/828/601
f 592/813/602 583/812/602 593/817/602
f 583/812/603 566/808/603 593/817/603
f 590/810/604 591/816/604 570/825/604
f 590/810/605 582/809/605 591/816/605
f 582/809/606 565/805/606 591/816/606
f 588/807/607 589/845/607 569/840/607
f 588/807/608 580/806/608 589/845/608
f 580/806/609 564/846/609 589/845/609
f 586/804/610 587/814/610 568/819/610
f 586/804/611 576/803/611 587/814/611
f 576/803/612 563/789/612 587/814/612
f 584/801/613 585/818/613 572/831/613
f 584/801/614 577/791/614 585/818/614
f 577/791/615 567/811/615 585/818/615
f 578/800/616 583/812/616 567/811/616
f 578/800/617 581/799/617 583/812/617
f 581/799/618 566/808/618 583/812/618
f 581/797/619 582/809/619 566/808/619
f 581/797/620 579/796/620 582/809/620
f 579/796/621 565/805/621 582/809/621
f 579/794/622 580/806/622 565/805/622
f 579/794/623 574/793/623 580/806/623
f 574/793/624 564/846/624 580/806/624
f 577/791/625 578/847/625 567/811/625
f 577/791/626 575/790/626 578/847/626
f 575/790/627 562/848/627 578/847/627
f 574/788/628 576/803/628 564/802/628
f 574/788/629 575/787/629 576/803/629
f 575/787/630 563/789/630 576/803/630
f 604/786/631 616/788/631 617/787/631
f 605/789/632 619/791/632 617/790/632
f 604/792/633 621/794/633 616/793/633
f 604/795/634 623/797/634 621/796/634
f 604/798/635 620/800/635 623/799/635
f 605/789/636 626/801/636 619/791/636
f 606/802/637 628/804/637 618/803/637
f 607/805/638 630/807/638 622/806/638
f 608/808/639 632/810/639 624/809/639
f 609/811/640 634/813/640 625/812/640
f 605/789/641 629/814/641 626/801/641
f 606/802/642 631/815/642 628/804/642
f 607/805/643 633/816/643 630/807/643
f 608/808/644 635/817/644 632/810/644
f 609/811/645 627/818/645 634/813/645
f 610/819/646 641/821/646 636/820/646
f 611/822/647 643/824/647 637/823/647
f 612/825/648 644/827/648 638/826/648
f 613/828/649 645/830/649 639/829/649
f 614/831/650 642/833/650 640/832/650
f 642/833/651 615/835/651 645/834/651
f 642/833/652 645/834/652 640/832/652
f 640/832/653 645/834/653 613/828/653
f 645/830/654 615/837/654 644/836/654
f 645/830/655 644/836/655 639/829/655
f 639/829/656 644/836/656 612/825/656
f 644/827/657 615/839/657 643/838/657
f 644/827/658 643/838/658 638/826/658
f 638/826/659 643/838/659 611/840/659
f 643/824/660 615/842/660 641/841/660
f 643/824/661 641/841/661 637/823/661
f 637/823/662 641/841/662 610/819/662
f 641/821/663 615/844/663 642/843/663
f 641/821/664 642/843/664 636/820/664
f 636/820/665 642/843/665 614/831/665
f 627/818/666 614/831/666 640/832/666
f 627/818/667 640/832/667 634/813/667
f 634/813/668 640/832/668 613/828/668
f 635/817/669 613/828/669 639/829/669
f 635/817/670 639/829/670 632/810/670
f 632/810/671 639/829/671 612/825/671
f 633/816/672 612/825/672 638/826/672
f 633/816/673 638/826/673 630/807/673
f 630/807/674 638/826/674 611/840/674
f 631/815/675 611/822/675 637/823/675
f 631/815/676 637/823/676 628/804/676
f 628/804/677 637/823/677 610/819/677
f 629/814/678 610/819/678 636/820/678
f 629/814/679 636/820/679 626/801/679
f 626/801/680 636/820/680 614/831/680
f 634/813/681 613/828/681 635/817/681
f 634/813/682 635/817/682 625/812/682
f 625/812/683 635/817/683 608/808/683
f 632/810/684 612/825/684 633/816/684
f 632/810/685 633/816/685 624/809/685
f 624/809/686 633/816/686 607/805/686
f 630/807/687 611/840/687 631/845/687
f 630/807/688 631/845/688 622/806/688
f 622/806/689 631/845/689 606/846/689
f 628/804/690 610/819/690 629/814/690
f 628/804/691 629/814/691 618/803/691
f 618/803/692 629/814/692 605/789/692
f 626/801/693 614/831/693 627/818/693
f 626/801/694 627/818/694 619/791/694
f 619/791/695 627/818/695 609/811/695
f 620/800/696 609/811/696 625/812/696
f 620/800/697 625/812/697 623/799/697
f 623/799/698 625/812/698 608/808/698
f 623/797/699 608/808/699 624/809/699
f 623/797/700 624/809/700 621/796/700
f 621/796/701 624/809/701 607/805/701
f 621/794/702 607/805/702 622/806/702
f 621/794/703 622/806/703 616/793/703
f 616/793/704 622/806/704 606/846/704
f 619/791/705 609/811/705 620/847/705
f 619/791/706 620/847/706 617/790/706
f 617/790/707 620/847/707 604/848/707
f 616/788/708 606/802/708 618/803/708
f 616/788/709 618/803/709 617/787/709
f 617/787/710 618/803/710 605/789/710
