# Blender 5.1.1
# www.blender.org
mtllib low_poly_wolf_animated0012.mtl
o Wolf
v -0.164597 3.264857 -2.191139
v -0.513392 1.272908 -1.779438
v 0.014469 3.834160 -1.068215
v -0.492070 1.435931 -2.191385
v -0.707722 1.457077 -1.563863
v 0.139224 4.272534 2.977511
v 0.572529 3.856151 0.222120
v -0.551072 2.834249 -2.003658
v 0.233985 2.386056 -0.170088
v -0.774403 2.260566 -1.215060
v 0.313160 4.236814 2.704138
v -0.571847 1.626694 -1.377327
v -0.614802 3.267608 -1.102007
v -0.853172 0.022360 -2.329103
v 0.682406 2.982603 -1.781591
v -0.297390 2.152013 -1.306521
v -0.849381 2.153882 -1.661830
v -0.104832 3.217067 1.692952
v -0.561049 1.461896 -2.244259
v 0.324861 2.512895 -0.693469
v -0.151803 2.365384 0.373143
v -0.446181 0.844623 1.941765
v 0.454699 1.601953 -1.899697
v -0.601654 2.182780 0.584297
v -0.297964 0.832880 1.705900
v -0.115230 2.817967 -2.215272
v -0.482469 3.348045 -1.251403
v 0.332611 2.370928 0.354477
v -0.540145 3.005568 -0.208539
v -0.407600 2.201959 0.924693
v 0.520570 1.286934 -2.438177
v -0.420360 2.567781 -0.932184
v -0.475055 3.675325 1.369493
v -0.158826 1.867476 -3.015359
v 0.137649 2.226408 -1.444468
v -0.572446 2.991231 0.218598
v -0.226992 4.322477 0.841742
v -0.291054 1.097254 1.673681
v -0.435167 3.844440 0.260960
v -0.501534 2.235016 0.984270
v -0.448070 3.762823 1.166899
v 0.615460 4.112190 1.042283
v 0.454034 4.824393 2.477194
v -0.383319 5.179182 1.921795
v 0.433218 4.854280 2.487592
v 0.417281 4.862445 2.494441
v -0.790658 2.782192 -1.548321
v 0.381994 4.861310 2.508155
v -0.120344 4.649144 2.495398
v 0.353502 4.838193 2.517553
v 0.345435 4.820900 2.519403
v 0.655235 4.391990 2.032454
v 0.345528 4.783134 2.516515
v 0.353680 4.766360 2.512058
v -0.055676 2.822302 -2.282917
v 0.382282 4.745082 2.499267
v 0.399933 4.742660 2.492183
v 0.417569 4.746217 2.485553
v 0.652799 3.847708 0.940127
v 0.446060 4.769334 2.476156
v 0.454128 4.786631 2.474303
v -0.617804 0.996880 1.907732
v 0.454034 4.834341 2.469541
v -0.093652 4.819896 2.516414
v 0.433218 4.864314 2.479495
v 0.417281 4.872571 2.486217
v -0.508206 1.058446 1.970798
v 0.381994 4.871678 2.499921
v 0.940095 0.899281 1.913569
v 0.353502 4.848862 2.509584
v 0.345435 4.831725 2.511635
v 0.489178 3.207431 -1.587659
v 0.345528 4.794147 2.509234
v 0.353680 4.777349 2.505039
v 0.645063 1.244341 1.398635
v 0.382282 4.755820 2.492649
v 0.399933 4.753229 2.485645
v 0.417569 4.756611 2.479000
v -0.413773 4.896210 1.840343
v 0.446060 4.779446 2.469301
v 0.454128 4.796646 2.467204
v -0.153232 5.065733 2.312984
v -0.452637 2.637141 -2.111251
v -0.115845 4.384139 0.693302
v -0.260431 2.524102 -0.666787
v -0.120529 1.633839 -2.981451
v 0.666298 0.390028 -2.637646
v 0.830145 2.546149 -1.516437
v 0.393858 4.814532 2.494252
v -0.062863 4.785216 2.491534
v 0.715767 3.686589 0.194522
v 0.510482 3.778267 1.787416
v -0.475186 3.051029 -2.024926
v 0.696580 2.702424 -1.928717
v -0.536343 3.178032 1.443020
v 0.139162 3.319257 1.892885
v 0.035033 4.773232 2.586845
v 0.446216 2.621546 -2.122843
v -0.765824 2.813169 -1.158494
v -0.487260 0.908898 2.087886
v 0.571863 1.626746 -1.377199
v 0.471159 4.818175 2.424196
v 0.466973 4.845856 2.427510
v 0.454962 4.870591 2.433723
v 0.436303 4.890001 2.442196
v 0.412821 4.902176 2.452093
v 0.386815 4.905928 2.462454
v 0.360832 4.900872 2.472272
v 0.337413 4.887537 2.480562
v 0.318852 4.867227 2.486516
v 0.306966 4.841938 2.489557
v 0.302917 4.814137 2.489394
v 0.307104 4.786501 2.486068
v 0.319114 4.761741 2.479901
v 0.337774 4.742288 2.471483
v 0.361256 4.730064 2.461620
v 0.387261 4.726253 2.451289
v 0.413245 4.731226 2.441506
v 0.436664 4.744559 2.433200
v 0.455224 4.764902 2.427198
v 0.467110 4.790279 2.424087
v -0.137663 4.831960 2.492836
v -0.637647 0.996252 -2.422471
v 0.558560 0.910581 -2.203221
v -0.116415 4.862154 2.501074
v -0.100073 4.870579 2.506492
v 0.441143 4.808718 2.472798
v -0.063795 4.870055 2.517326
v -0.359956 2.115000 -1.821487
v -0.034390 4.847537 2.524688
v -0.026011 4.830486 2.526095
v -0.558560 0.910581 -2.203222
v -0.025917 4.792815 2.523789
v -0.034213 4.775939 2.520262
v -0.418490 1.229314 1.390708
v -0.063507 4.754130 2.510199
v -0.081639 4.751366 2.504623
v -0.099785 4.754575 2.499403
v -0.639752 3.373521 1.309407
v -0.129189 4.777131 2.491995
v -0.137569 4.794255 2.490539
v 0.470331 3.051636 -2.032713
v 0.650182 5.183971 1.880729
v -0.686754 1.460205 -2.135241
v 0.185598 4.317894 3.105355
v -0.336685 4.200259 0.669017
v -0.079460 4.781483 2.487809
v -0.186435 2.458591 0.672863
v -0.199273 5.089936 2.170561
v 0.261340 4.491234 3.119673
v -0.610925 0.964963 1.745979
v 0.472958 2.098056 -2.070028
v -0.587111 -0.020980 -2.339159
v 0.705660 3.680948 1.322492
v 0.027344 4.235233 2.715555
v 0.791993 2.993277 1.292219
v -0.751112 2.324138 -1.870491
v -0.018345 3.701485 2.097492
v -0.062916 4.800858 2.508320
v -0.482597 2.221323 0.379274
v 0.301945 2.152584 -1.309056
v -0.158200 4.815570 2.449016
v -0.154035 4.843298 2.451970
v -0.141813 4.868160 2.457186
v -0.122730 4.887764 2.464129
v -0.098652 4.900183 2.472108
v -0.071937 4.904204 2.480353
v -0.045201 4.899416 2.488063
v -0.021060 4.886321 2.494462
v -0.001878 4.866196 2.498928
v 0.010469 4.841018 2.501030
v 0.014771 4.813232 2.500575
v 0.010607 4.785534 2.497619
v -0.001615 4.760645 2.492445
v -0.020699 4.741004 2.485552
v -0.044777 4.728545 2.477599
v -0.071492 4.724475 2.469376
v -0.098228 4.729189 2.461695
v -0.122369 4.742290 2.455277
v -0.141551 4.762450 2.450766
v -0.153898 4.787712 2.448600
v 0.544291 4.403352 1.018227
v 0.791741 2.783496 -1.552497
v 0.376027 4.425865 2.863177
v -0.454699 1.601953 -1.899697
v -0.203807 4.069811 0.211272
v 0.141275 4.216267 0.482181
v -0.738349 1.845078 -1.278967
v -0.682912 2.980551 -1.773546
v -0.641447 2.532978 1.000478
v -0.821738 1.845922 -1.474186
v 0.686493 4.358783 1.607720
v 0.476659 2.197778 -1.015795
v -0.480461 3.199557 -1.560064
v 0.521337 4.522654 2.385725
v -0.463424 2.194888 -1.009972
v 0.707722 1.457076 -1.563862
v 0.176527 4.779195 2.706506
v -0.352213 2.937870 -2.149071
v 0.111252 2.465519 0.932103
v -0.658840 3.010928 1.196713
v -0.172983 4.569019 1.005516
v -0.500709 1.044459 -2.370011
v -0.491289 3.721398 -0.242222
v 0.153174 3.470754 -1.984873
v -0.467231 2.665017 -0.215914
v -0.310943 5.059935 1.830671
v 0.596118 2.189555 0.397515
v 0.804318 2.587924 0.702802
v -0.576270 3.672386 0.244552
v -0.477343 1.904758 0.616880
v -0.392147 3.926668 1.262999
v -0.359363 4.357920 1.937093
v -0.523566 3.556864 -0.220361
v -0.591279 1.271905 -2.433305
v 0.372715 4.164688 2.346419
v -0.518557 3.480138 0.600407
v 0.660124 3.019310 -0.254933
v -0.465623 3.152241 -0.687818
v 0.182168 4.284503 3.014855
v -0.409293 4.867583 1.989903
v 0.591279 1.271905 -2.433305
v -0.137663 4.821121 2.500829
v -0.019353 1.502908 -3.355495
v -0.188776 3.656970 -1.481933
v -0.116415 4.851241 2.509547
v -0.100073 4.859583 2.515107
v -0.544137 0.354515 -2.404770
v -0.063795 4.858844 2.525963
v 0.845019 0.015938 -2.316531
v -0.034390 4.836047 2.533047
v -0.026011 4.818845 2.534241
v -0.554863 0.800420 1.717127
v -0.025917 4.781079 2.531353
v -0.034213 4.764214 2.527553
v -0.163635 1.505236 -3.349452
v -0.063507 4.742616 2.517075
v -0.081639 4.739996 2.511420
v -0.099785 4.743355 2.506219
v 0.849384 2.153883 -1.661819
v -0.129189 4.766152 2.499134
v -0.137569 4.783358 2.497940
v -0.750286 0.172999 -2.209267
v -0.071029 1.622815 -2.915691
v -0.527007 1.194034 1.686569
v 0.500151 4.202848 0.629387
v 0.195889 3.655699 -1.498287
v 0.057794 4.266310 2.792028
v 0.388320 4.892359 2.540437
v 0.745573 3.140281 -1.019834
v -0.217327 4.938960 2.360901
v 0.452451 5.068727 2.288973
v -0.110027 2.950290 -2.431224
v -0.103819 4.783772 2.490623
v 0.257564 4.268468 2.906880
v 0.222274 4.280382 2.978915
v -0.452721 3.431566 -0.765955
v -0.209382 3.922757 -0.352211
v -0.093212 1.348945 -3.332573
v 0.544156 3.163599 -0.726305
v 0.388120 2.465176 0.650664
v 0.453693 2.723242 -0.705443
v 0.567741 4.728446 1.457046
v -0.457915 3.838209 0.984097
v -0.026969 2.474236 -2.422674
v 0.666087 2.234495 0.334864
v -0.854394 0.026596 -2.334208
v 0.002934 4.680987 2.702889
v -0.076096 4.812478 2.512679
v -0.327924 2.545751 -2.127382
v 0.886053 3.027111 1.136949
v 0.550647 2.268581 0.540679
v -0.692047 3.026317 -1.453318
v -0.329713 3.680684 -0.835763
v 0.738347 1.845148 -1.278854
v 0.699318 5.349238 1.878551
v 0.459165 1.810873 -1.402255
v -0.502280 0.382610 -2.615469
v 0.699529 3.031891 -1.472368
v -0.024721 4.423648 2.879185
v 0.821752 1.845964 -1.474069
v 0.702984 1.242175 1.347351
v 0.781935 0.858707 1.894284
v 0.104020 4.680065 1.121216
v 0.442258 0.108398 -2.452297
v 0.112840 2.647702 -2.465214
v 0.380482 4.802804 2.490928
v 0.007460 2.264514 -1.769564
v 0.182020 4.277114 3.010140
v 0.288566 4.267586 2.782810
v -0.163775 2.650342 -2.456311
v 0.257712 4.275857 2.911595
v 0.795521 1.041687 1.556195
v 0.761698 5.262907 1.898671
v 0.519089 3.442191 -0.802813
v -0.294110 4.110138 0.953620
v -0.588089 2.216240 -2.059710
v 0.320034 4.733089 2.611086
v 0.561049 1.461896 -2.244259
v 0.873934 0.816805 1.661887
v 0.222127 4.272993 2.974200
v 0.676764 4.901110 1.796400
v 0.592423 3.733826 -0.284120
v 0.510936 3.357847 -1.285429
v 0.513392 1.272908 -1.779438
v 0.478402 5.115239 1.916103
v 0.110239 4.489142 3.123278
v 0.009310 2.319667 -1.227249
v -0.244068 2.471956 -1.001325
v 0.411596 4.822104 2.496601
v -0.729230 0.000600 -2.385445
v -0.411325 1.666959 1.306245
v 0.598830 2.589243 0.451533
v 0.238990 2.224899 -1.692604
v 0.689927 3.492723 0.553607
v 0.660785 3.768880 1.122645
v 0.865029 0.164792 -2.338222
v 0.948286 0.898795 1.901510
v -0.358689 2.455653 0.428659
v -0.666298 0.390028 -2.637646
v -0.058250 4.791068 2.497433
v -0.356848 1.232851 1.437371
v 0.834796 1.209651 1.633919
v 0.793357 3.473758 0.751573
v 0.321626 4.724246 2.538756
v 0.486553 4.113831 0.921391
v -0.605966 3.459474 0.805859
v 0.702320 0.339209 -2.467233
v 0.477949 2.401149 0.453611
v -0.375647 2.714823 -0.677757
v -0.068504 2.013099 -3.064317
v -0.696571 2.702778 -1.927876
v 0.928274 0.982615 1.686470
v 0.729230 0.000600 -2.385444
v -0.113879 4.789305 2.497207
v 0.151795 5.145700 2.367317
v -0.009274 3.271836 -2.317867
v 0.731353 2.249155 0.936604
v -0.180003 4.261272 0.597005
v 0.348823 2.869103 -2.152868
v 0.877996 2.129313 0.932555
v -0.503511 4.050628 0.737219
v -0.865029 0.164792 -2.338223
v -0.242024 3.775509 1.817475
v -0.342634 4.400766 1.055409
v -0.319100 4.743421 1.473296
v -0.289717 2.392352 0.483267
v 0.024553 2.396112 -0.649641
v -0.339560 2.477818 -0.183858
v 0.531885 2.747245 1.277505
v -0.612353 0.880898 1.961847
v 0.386428 3.687975 -0.862680
v -0.159631 3.802134 1.999582
v 0.481088 4.286500 2.257004
v 0.367361 3.219964 1.674607
v 0.161553 4.987344 2.593971
v -0.298068 3.485639 1.710660
v -0.463976 4.203702 1.322763
v -0.711723 -0.013387 -2.167816
v 0.087806 2.343587 0.288784
v -0.577205 2.616846 -0.956492
v -0.368858 4.387364 2.073390
v -0.472805 2.098278 -2.070184
v -0.530524 4.004541 1.437698
v 0.309184 3.921540 -0.376976
v 0.651898 1.409449 1.476236
v 0.679300 1.679467 1.264080
v 0.749592 1.548685 1.471387
v -0.010028 3.268029 1.821118
v -0.520570 1.286934 -2.438178
v -0.060686 4.150959 2.315975
v 0.725664 3.006020 0.168490
v 0.511971 2.961637 -0.681584
v -0.487038 0.821524 2.020884
v 0.888177 1.453662 1.468636
v 0.652651 3.279771 -1.143574
v 0.521387 4.942635 2.331590
v 0.558875 3.489716 1.676774
v 0.612887 3.930673 1.222093
v 0.379554 3.552029 -1.381278
v -0.410998 4.108083 1.084577
v 0.686594 3.147474 0.517247
v 0.853172 0.022360 -2.329103
v -0.702380 3.127519 -0.977006
v 0.150886 3.265500 -2.196029
v 0.544137 0.354514 -2.404770
v -0.781185 -0.062385 -2.261156
v 0.098729 4.274978 2.917945
v 0.205350 4.203085 3.005383
v 0.801467 2.198871 0.530050
v 0.423613 4.820699 2.491162
v 0.731760 1.118374 1.739308
v 0.323834 2.544583 -2.129318
v 0.310959 3.703075 2.084874
v -0.618969 3.028780 0.757289
v 0.018542 1.864667 -3.022649
v 0.324284 4.340434 0.666609
v 0.551961 4.993812 1.680442
v 0.041709 4.264836 3.008929
v -0.600069 2.571819 0.757099
v 0.411717 4.813277 1.423336
v -0.509862 3.133893 0.563371
v -0.493645 5.257188 1.948553
v 0.779521 2.262578 -1.220363
v 0.754795 2.728771 1.174851
v 0.251054 4.548267 3.209406
v -0.106040 4.818365 2.511949
v -0.406990 2.178052 0.436297
v -0.645269 2.111843 0.991447
v 0.779116 3.189715 1.391908
v 0.630057 3.570081 -0.264961
v -0.207430 2.617212 1.138659
v 0.584111 2.463196 1.001738
v 0.946886 1.014824 1.847238
v 0.949801 0.899806 1.895801
v 0.854394 0.026596 -2.334208
v 0.812591 3.044931 0.702124
v -0.163693 3.469050 -1.979534
v 0.459958 2.577045 -0.948468
v 0.765852 4.008852 1.384611
v 0.321916 4.266386 2.997737
v -0.288416 2.738247 1.309217
v -0.027843 1.632350 -2.985350
v 0.122405 2.652619 1.281727
v 0.333494 3.410026 -1.838241
v 0.829295 0.836619 1.969991
v -0.354644 2.452431 1.038032
v 0.779910 2.819026 -1.176343
v 0.191852 2.434509 -2.024254
v -0.642905 0.974018 -2.175245
v 0.420050 4.786147 2.470005
v -0.830147 2.546144 -1.516437
v 0.074649 2.949477 -2.436222
v -0.152278 2.231046 -1.430036
v 0.500709 1.044459 -2.370011
v 0.492070 1.435931 -2.191384
v 0.616259 0.843364 1.670554
v -0.477340 0.116975 -2.257749
v -0.124841 4.806168 2.495056
v -0.361451 1.397828 1.515414
v -0.598561 1.436612 1.526116
v -0.067710 4.890601 2.558109
v 0.546011 2.832968 -2.010670
v 0.409108 4.325656 0.816477
v 0.116806 4.563769 3.180015
v -0.442258 0.108399 -2.452298
v 0.251566 5.173283 2.013769
v -0.289886 0.961514 1.959705
v 0.686441 1.918104 0.571888
v 0.047732 4.167234 2.674845
v 0.395546 4.783654 2.469110
v 0.600830 1.107482 1.639199
v 0.635147 4.362197 1.897232
v -0.121592 4.797394 2.499106
v -0.433843 4.355558 1.652711
v -0.190738 2.433420 -2.018653
v 0.477340 0.116975 -2.257748
v 0.594715 2.677102 -0.256905
v -0.702320 0.339209 -2.467233
v -0.603269 0.881582 1.973238
v 0.604361 2.624074 -0.973950
v -0.414080 1.105234 1.783608
v -0.006003 3.519299 -2.040552
v 0.441371 2.624652 1.113575
v -0.341008 3.404973 -1.820705
v 0.624855 0.972003 1.924339
v -0.631911 3.519562 1.025914
v 0.841102 1.073920 1.918631
v 0.750286 0.172998 -2.209266
v -0.845019 0.015938 -2.316531
v 0.781186 -0.062385 -2.261156
v 0.333206 4.078728 0.192075
v -0.032029 2.747711 -2.690212
v 0.038555 4.850717 1.442247
v -0.132533 5.019044 1.676528
v 0.057646 4.258920 2.787313
v -0.429707 2.951308 -0.647022
v 0.369963 4.570058 0.981017
v -0.236096 2.224071 -1.693143
v 0.865240 2.550257 0.942226
v 0.835193 3.533322 0.968729
v -0.458965 1.810841 -1.402156
v 0.689145 4.207924 1.273741
v 0.375062 4.792991 2.480420
v 0.541031 2.465960 0.393903
v 0.686754 1.460205 -2.135240
v 0.060931 4.063474 0.102542
v -0.782513 0.099451 -2.567871
v -0.462390 1.534786 1.518245
v 0.711723 -0.013387 -2.167815
v 0.642905 0.974018 -2.175244
v 0.639828 3.520175 1.479305
v 0.139371 4.279923 2.982226
v -0.433946 5.344039 1.923244
v 0.633881 2.213902 0.884428
v 0.413380 4.212514 2.553302
v 0.100834 2.390203 0.640250
v -0.361472 3.545185 -1.356876
v -0.114368 1.407360 -3.822865
v -0.614327 0.881869 1.956273
v 0.486965 5.093276 2.143320
v 0.502280 0.382610 -2.615469
v -0.518866 0.067958 -2.579594
v 0.063029 2.819197 -2.221777
v 0.430554 4.791759 2.475788
v 0.658757 0.978812 -2.278936
v 0.379254 4.787185 2.474168
v 0.751113 2.324137 -1.870490
v 0.438315 4.799915 2.477082
v -0.658757 0.978812 -2.278936
v -0.414674 2.577626 0.490700
v 0.894509 2.642784 0.831082
v 0.637647 0.996252 -2.422471
v 0.782513 0.099450 -2.567871
v 0.098581 4.267589 2.913231
v 0.282561 3.269571 1.809736
v 0.438274 4.651505 2.473422
v 0.673925 4.060947 0.689757
v 0.086924 2.943070 -2.283321
v 0.155966 4.044021 2.329693
v -0.395247 3.515192 1.520130
v 0.518866 0.067958 -2.579594
v -0.518133 2.714788 1.224031
v -0.490014 1.026944 1.605896
v -0.084314 4.210601 2.573335
v 0.684254 4.872812 1.946266
v 0.158293 3.805479 2.163542
v 0.360976 2.115716 -1.820953
v -0.552547 2.979624 1.344243
v -0.208670 4.519589 2.414628
v 0.588048 2.216303 -2.059747
v 0.286043 2.479347 -1.010805
v 0.127678 2.952672 1.517991
v -0.176261 4.283397 2.283340
v 0.474083 2.486677 -0.215026
v -0.094446 2.382970 -0.157912
v 0.868145 3.386744 1.250578
v -0.681320 2.624712 0.892009
v 0.354437 5.032691 1.668406
v 0.443346 3.804856 1.975528
v 0.832688 0.924034 2.036854
v 0.288419 4.260196 2.778095
v 0.290333 4.168627 2.665167
v -0.352424 2.258225 0.575593
v 0.587111 -0.020980 -2.339158
v -0.182122 5.122105 1.990019
vn 0.3633 -0.0701 0.9290
vn 0.7292 -0.0042 -0.6843
vn 0.3634 -0.0699 0.9290
vn -0.9923 -0.0060 -0.1237
vn -0.8325 -0.3516 0.4281
vn 0.3634 -0.0702 0.9290
vn -0.3177 -0.5440 0.7766
vn 0.7722 -0.0667 -0.6319
vn -0.0800 0.9647 -0.2510
vn 0.3633 -0.0700 0.9290
vn 0.9413 -0.2534 -0.2229
vn -0.9161 -0.3986 -0.0430
vn -0.9718 0.1687 -0.1649
vn -0.2140 -0.5281 0.8218
vn -0.8189 0.2020 0.5372
vn -0.9892 -0.1164 -0.0890
vn -0.7270 -0.4747 0.4962
vn 0.9975 0.0705 0.0019
vn 0.5133 -0.2348 0.8254
vn -0.7080 0.1431 -0.6916
vn 0.5896 0.7718 -0.2381
vn -0.1257 -0.8872 -0.4440
vn -0.1505 -0.9871 -0.0554
vn 0.7937 0.4841 -0.3683
vn 0.8511 0.5050 -0.1437
vn -0.9927 0.0121 -0.1204
vn -0.0268 -0.9350 -0.3535
vn 0.8614 -0.4366 0.2594
vn 0.4301 -0.8944 0.1222
vn -0.8864 0.0782 -0.4563
vn 0.3635 -0.0702 0.9290
vn 0.1867 0.7532 -0.6307
vn 0.3633 -0.0702 0.9290
vn -0.5681 0.8190 -0.0810
vn -0.3020 -0.9530 0.0252
vn 0.9882 -0.0827 -0.1286
vn -0.5971 0.7959 -0.1003
vn 0.5070 0.7587 -0.4089
vn 0.6809 0.1066 -0.7246
vn 0.4057 0.5845 0.7027
vn -0.0933 0.9414 -0.3242
vn 0.9867 0.1620 0.0157
vn -0.0116 0.9572 -0.2893
vn -0.9024 -0.4275 -0.0548
vn 0.9734 0.0664 -0.2191
vn -0.1433 -0.4860 0.8621
vn 0.3618 -0.4467 0.8183
vn -0.6090 -0.7844 -0.1173
vn -0.1194 0.9919 0.0437
vn -0.1392 -0.8376 0.5283
vn 0.8886 -0.2775 -0.3652
vn -0.9842 0.1702 0.0492
vn -0.9451 -0.0819 -0.3163
vn -0.4216 -0.8911 0.1678
vn 0.2004 0.8950 -0.3986
vn 0.6725 -0.5873 0.4504
vn 0.9765 -0.1890 -0.1034
vn 0.4199 0.6485 -0.6349
vn 0.2800 0.9565 0.0819
vn -0.2686 -0.6846 0.6776
vn 0.6191 0.7609 0.1944
vn -0.4254 -0.9050 -0.0070
vn -0.0385 0.0201 0.9991
vn -0.7928 0.3167 -0.5208
vn -0.2196 0.2549 0.9417
vn -0.6900 0.6474 0.3237
vn 0.3632 -0.0703 0.9291
vn -0.5044 -0.2411 0.8291
vn -0.2245 -0.1361 -0.9649
vn 0.9861 -0.1498 0.0714
vn -0.2638 0.6817 -0.6824
vn -0.3940 0.4533 -0.7995
vn -0.8188 -0.2560 0.5139
vn -0.9886 0.1243 -0.0847
vn -0.8987 0.4381 -0.0203
vn 0.2426 -0.1258 0.9619
vn 0.8855 0.4549 -0.0945
vn -0.7000 -0.5360 -0.4719
vn -0.0635 -0.7863 0.6146
vn -0.6236 0.1109 -0.7738
vn -0.7024 0.6109 -0.3653
vn 0.9574 -0.2619 0.1219
vn 0.2433 -0.8949 0.3741
vn -0.2814 -0.0266 -0.9592
vn 0.9942 0.0741 -0.0777
vn -0.3836 -0.7537 -0.5336
vn 0.0417 0.7492 -0.6610
vn 0.7090 0.1406 -0.6910
vn -0.6394 -0.3988 0.6573
vn -0.9392 0.1909 -0.2855
vn 0.3771 -0.7530 -0.5392
vn -0.6989 -0.1534 0.6986
vn -0.9594 0.1857 -0.2121
vn -0.4400 -0.3711 0.8177
vn -0.9413 0.2992 0.1565
vn -0.3436 -0.9278 -0.1452
vn -0.0463 -0.6796 0.7321
vn -0.2797 -0.5946 0.7538
vn -0.2065 -0.6795 0.7040
vn 0.9992 0.0356 -0.0164
vn 0.1153 -0.8013 0.5870
vn -0.9907 0.0451 -0.1281
vn -0.5832 0.4265 -0.6913
vn -0.4120 -0.4039 0.8167
vn 0.3324 -0.8665 -0.3724
vn -0.4120 -0.4034 0.8170
vn 0.8730 -0.3699 0.3178
vn -0.1400 0.1932 -0.9711
vn 0.8728 -0.3707 0.3175
vn 0.7721 0.6347 0.0335
vn 0.9102 -0.1442 0.3883
vn 0.3410 -0.7962 0.4997
vn -0.1732 -0.5112 0.8418
vn 0.6544 -0.6590 0.3707
vn 0.7400 -0.5696 0.3578
vn 0.5556 -0.6654 0.4985
vn 0.5553 0.6627 0.5024
vn 0.8156 0.4428 0.3724
vn 0.5553 0.6628 0.5024
vn 0.9320 0.3505 -0.0925
vn -0.3151 0.4337 0.8442
vn 0.9568 -0.0156 0.2903
vn 0.7492 -0.6623 0.0058
vn -0.9049 -0.0022 0.4256
vn 0.7228 0.4763 0.5007
vn 0.8717 0.3330 0.3596
vn -0.4144 0.2982 0.8598
vn -0.2819 0.4980 0.8200
vn -0.4144 0.2980 0.8599
vn 0.6471 0.5368 0.5415
vn -0.5082 -0.0562 0.8594
vn 0.2226 0.7506 0.6221
vn -0.6932 0.4780 0.5394
vn -0.2071 0.5894 0.7809
vn -0.8916 0.3652 -0.2678
vn -0.0479 0.5867 0.8084
vn -0.8722 0.4134 0.2614
vn 0.9925 -0.0222 0.1202
vn 0.4711 0.8260 0.3095
vn 0.1156 -0.8015 0.5867
vn -0.8673 0.4921 -0.0751
vn -0.5541 0.7662 0.3255
vn -0.4823 -0.1763 0.8581
vn -0.7431 -0.0787 -0.6645
vn 0.9901 -0.0034 0.1402
vn -0.7953 0.4466 -0.4100
vn -0.7714 0.6308 0.0844
vn -0.7164 0.6914 0.0938
vn -0.7981 -0.0781 -0.5974
vn 0.9426 -0.1380 0.3042
vn -0.8145 0.5196 0.2581
vn 0.3406 -0.7964 0.4997
vn -0.9143 0.1388 -0.3806
vn 0.0566 -0.3389 0.9391
vn -0.9104 -0.2253 0.3470
vn -0.7644 -0.5699 0.3015
vn -0.9835 -0.0009 0.1811
vn 0.9881 0.0202 -0.1523
vn -0.6985 -0.0654 0.7126
vn 0.3408 0.7317 0.5903
vn 0.3941 0.4533 -0.7995
vn -0.4447 -0.8786 0.1742
vn 0.9100 0.0891 0.4050
vn 0.5919 0.7591 -0.2709
vn -0.6190 -0.5317 0.5781
vn -0.2101 -0.6613 0.7201
vn 0.9091 0.3100 -0.2783
vn -0.6401 -0.6209 0.4525
vn -0.6947 -0.3830 0.6088
vn -0.4009 0.0530 0.9146
vn 0.8925 -0.4417 -0.0911
vn 0.6053 -0.5952 -0.5285
vn 0.1494 0.6606 0.7357
vn 0.2460 -0.5524 0.7965
vn -0.9854 -0.0146 0.1694
vn -0.8675 0.4443 -0.2236
vn -0.8816 0.4645 0.0832
vn -0.8365 0.4892 0.2468
vn 0.8024 -0.1898 0.5657
vn -0.0967 0.6600 0.7450
vn 0.8908 0.3924 0.2293
vn 0.9796 -0.1818 0.0860
vn 0.4723 0.0587 0.8795
vn -0.9936 -0.0780 -0.0820
vn -0.5039 0.7657 0.3997
vn -0.4652 -0.0405 0.8843
vn -0.9569 0.0963 -0.2740
vn 0.0269 -0.9350 -0.3535
vn -0.7559 -0.0550 0.6523
vn -0.8755 0.0807 0.4764
vn -0.0104 -0.8937 -0.4486
vn -0.2944 0.8617 -0.4132
vn -0.2997 0.7291 0.6153
vn -0.6987 0.6415 0.3167
vn -0.7223 0.2832 -0.6310
vn 0.7744 -0.5567 -0.3007
vn -0.5426 -0.7268 0.4211
vn -0.8810 -0.0549 -0.4699
vn 0.7164 0.5237 -0.4610
vn 0.9971 0.0116 0.0755
vn -0.2919 -0.7991 0.5256
vn -0.8292 0.4680 -0.3057
vn -0.9138 -0.1468 0.3787
vn -0.9666 -0.2236 -0.1252
vn 0.0140 0.9095 0.4155
vn 0.5369 0.7719 -0.3405
vn 0.6674 -0.5252 0.5280
vn -0.2912 -0.9262 0.2393
vn -0.7884 -0.5751 -0.2184
vn 0.5513 -0.1701 0.8168
vn -0.3368 0.1567 -0.9284
vn 0.8835 -0.0334 0.4673
vn -0.0608 -0.8019 0.5943
vn 0.9849 -0.0787 -0.1544
vn 0.1325 0.8862 -0.4440
vn 0.0754 0.9194 -0.3860
vn 0.1066 0.5882 0.8017
vn -0.8504 -0.0775 -0.5205
vn 0.2630 0.5924 0.7615
vn -0.8360 0.4969 0.2328
vn -0.1796 0.7491 0.6376
vn 0.5751 -0.0486 0.8166
vn -0.7847 -0.0038 -0.6199
vn 0.4786 0.3032 0.8240
vn 0.3416 0.5019 0.7946
vn 0.4786 0.3035 0.8239
vn -0.8434 0.3248 0.4280
vn -0.6851 0.4698 0.5568
vn 0.8469 0.0983 -0.5227
vn 0.8956 0.3275 -0.3012
vn -0.9303 -0.0246 0.3659
vn -0.3592 -0.8305 0.4258
vn 0.6647 0.2991 -0.6846
vn -0.5198 0.6579 0.5449
vn -0.7876 0.4352 0.4363
vn -0.5199 0.6579 0.5449
vn -0.5076 -0.6701 0.5416
vn -0.7034 -0.5762 0.4161
vn -0.6163 -0.6648 0.4221
vn 0.9126 -0.1358 0.3855
vn -0.2924 -0.7988 0.5257
vn -0.9801 -0.0710 0.1852
vn -0.8536 0.4310 -0.2926
vn -0.8410 -0.3787 0.3865
vn -0.9601 -0.1202 0.2525
vn -0.8412 -0.3779 0.3868
vn 0.4801 -0.3982 0.7816
vn -0.0566 -0.3389 0.9391
vn 0.4801 -0.3992 0.7811
vn -0.4570 -0.2892 0.8411
vn -0.9591 -0.0741 0.2732
vn -0.0606 -0.8018 0.5945
vn 0.0170 -0.4446 -0.8956
vn 0.2684 -0.6769 0.6854
vn 0.3449 -0.5910 0.7292
vn 0.1112 -0.6785 0.7262
vn 0.9876 -0.0131 0.1564
vn -0.6321 -0.3861 0.6718
vn -0.9826 0.1327 -0.1297
vn -0.9770 -0.2128 -0.0115
vn 0.7005 0.1609 -0.6952
vn -0.7287 0.0722 0.6810
vn 0.6006 -0.5004 0.6237
vn 0.9860 -0.0017 0.1669
vn -0.6193 0.4284 0.6580
vn 0.9866 0.0941 -0.1337
vn 0.9860 -0.1473 0.0782
vn -0.6259 0.2360 0.7433
vn 0.3248 0.2636 0.9083
vn 0.1497 -0.6133 0.7755
vn -0.9377 -0.2579 0.2326
vn 0.1027 -0.0799 -0.9915
vn 0.5882 0.4693 -0.6586
vn -0.3873 0.8795 -0.2766
vn 0.9152 0.0286 0.4019
vn -0.4457 0.6451 -0.6206
vn -0.2359 0.9603 0.1487
vn -0.6828 -0.3765 0.6261
vn 0.9783 -0.1109 0.1748
vn 0.9794 -0.1813 0.0890
vn -0.9616 0.1112 0.2509
vn 0.5874 0.7955 -0.1489
vn 0.9898 -0.1274 -0.0632
vn 0.9781 0.1172 -0.1718
vn 0.8137 0.5798 0.0426
vn -0.2872 -0.0738 0.9550
vn 0.7997 0.5315 0.2791
vn 0.0629 0.8720 -0.4854
vn 0.6813 -0.0804 -0.7276
vn 0.3178 -0.3877 0.8653
vn -0.5824 -0.1953 0.7891
vn -0.7330 0.6133 -0.2941
vn -0.2873 -0.0738 0.9550
vn -0.7204 0.5307 -0.4465
vn 0.8255 -0.3142 0.4688
vn -0.2875 -0.0738 0.9549
vn -0.3979 0.7439 0.5369
vn -0.1278 -0.1190 -0.9846
vn 0.3536 0.4924 0.7953
vn 0.9189 -0.3776 -0.1139
vn -0.8334 -0.0227 0.5521
vn -0.6866 0.6219 -0.3765
vn 0.1444 -0.8755 0.4612
vn 0.2779 -0.6588 0.6991
vn -0.7212 0.6203 -0.3085
vn -0.5499 -0.6838 0.4796
vn 0.7138 0.6254 -0.3153
vn -0.6654 0.7361 -0.1242
vn -0.8794 0.4268 -0.2110
vn 0.8665 -0.3475 0.3584
vn -0.0940 -0.9944 -0.0493
vn 0.9570 0.0958 -0.2737
vn 0.7470 -0.0035 0.6649
vn 0.7557 0.2717 0.5959
vn 0.8605 0.3824 -0.3367
vn -0.6305 -0.6094 -0.4807
vn -0.8017 0.5895 0.0990
vn 0.9610 -0.2534 0.1110
vn 0.9273 -0.3685 0.0655
vn -0.2650 -0.6963 0.6670
vn -0.8170 -0.0849 -0.5704
vn 0.7348 -0.3049 0.6058
vn -0.1971 0.7071 -0.6791
vn -0.7470 -0.0035 0.6649
vn 0.2881 0.0801 0.9543
vn -0.7005 0.1609 -0.6953
vn 0.9779 0.1168 0.1734
vn 0.8471 -0.3991 0.3508
vn -0.2758 -0.4268 0.8613
vn 0.7878 0.4701 0.3980
vn 0.5799 0.7861 -0.2138
vn -0.7667 -0.3891 0.5107
vn 0.7740 -0.0150 -0.6330
vn -0.1559 0.8886 -0.4314
vn 0.0553 -0.9516 0.3023
vn -0.8323 -0.4645 0.3025
vn 0.7771 -0.4122 0.4756
vn 0.2166 -0.0226 0.9760
vn -0.8381 -0.2666 0.4759
vn -0.9553 0.2920 -0.0471
vn 0.9952 0.0955 0.0223
vn 0.9881 0.0225 0.1521
vn -0.2872 -0.0736 0.9550
vn 0.2611 -0.9643 0.0445
vn 0.2472 -0.2252 0.9424
vn -0.6787 0.4951 0.5425
vn -0.0681 -0.2071 -0.9759
vn -0.0743 -0.4416 0.8941
vn -0.2873 -0.0736 0.9550
vn -0.6706 -0.5177 0.5314
vn -0.2872 -0.0737 0.9550
vn -0.1647 -0.1305 0.9777
vn -0.9780 0.1998 0.0602
vn 0.8261 0.5296 0.1926
vn -0.9898 -0.1274 -0.0632
vn 0.6583 -0.4721 0.5864
vn -0.3092 -0.3734 0.8746
vn 0.9797 0.0327 -0.1977
vn 0.1586 0.2400 -0.9577
vn 0.5524 0.7898 0.2665
vn -0.2549 0.5597 0.7885
vn -0.5168 -0.6508 -0.5562
vn 0.6859 0.4014 -0.6070
vn -0.9098 -0.1044 -0.4016
vn -0.6998 0.6134 -0.3660
vn -0.9370 0.1609 -0.3100
vn -0.6904 0.6582 -0.3003
vn 0.9440 0.3225 -0.0701
vn -0.9353 0.2025 0.2901
vn 0.6090 -0.7844 -0.1173
vn 0.8641 0.1553 -0.4787
vn -0.8908 0.3924 0.2293
vn 0.9427 0.0308 0.3321
vn 0.9195 0.3772 -0.1110
vn 0.1400 0.1932 -0.9711
vn -0.8905 0.0397 0.4532
vn 0.0253 -0.7487 0.6624
vn -0.8047 0.4999 0.3202
vn 0.8101 0.4111 -0.4180
vn -0.9984 -0.0444 -0.0337
vn -0.7657 0.2058 0.6093
vn -0.4098 -0.9110 -0.0458
vn -0.1204 0.8444 -0.5220
vn -0.8671 -0.3381 -0.3659
vn 0.8122 0.2213 0.5398
vn -0.9123 0.4009 -0.0833
vn 0.4897 0.6878 -0.5358
vn 0.5039 0.7657 0.3997
vn 0.8657 -0.3389 0.3684
vn 0.9405 -0.3086 0.1420
vn -0.9435 -0.2753 0.1847
vn -0.9794 -0.0456 0.1967
vn 0.6705 -0.1110 -0.7336
vn 0.9369 -0.1773 -0.3014
vn -0.1869 -0.9325 0.3091
vn 0.0942 -0.9936 -0.0620
vn 0.8316 0.0810 0.5494
vn -0.9614 -0.1337 0.2404
vn -0.6882 0.1245 0.7148
vn -0.9076 -0.2981 -0.2957
vn -0.9435 -0.1558 0.2924
vn -0.9705 -0.0835 -0.2260
vn 0.5673 -0.2661 0.7793
vn 0.6267 -0.7286 0.2764
vn 0.7061 0.6102 -0.3593
vn -0.5020 0.0123 0.8648
vn -0.5779 0.2308 -0.7828
vn -0.7806 0.5237 0.3413
vn -0.9773 -0.1920 0.0894
vn -0.9971 -0.0027 -0.0755
vn 0.0438 0.8037 -0.5934
vn -0.7889 0.4941 -0.3652
vn -0.7607 -0.6442 0.0795
vn 0.6960 -0.3707 0.6149
vn -0.5697 0.4483 0.6888
vn 0.2758 -0.6430 0.7145
vn -0.6594 0.5473 -0.5154
vn 0.8086 -0.3818 0.4477
vn 0.5969 0.2009 -0.7767
vn 0.5669 0.0212 0.8235
vn 0.3885 0.8289 0.4025
vn 0.8416 0.5131 0.1684
vn 0.5655 0.7884 -0.2423
vn 0.0445 0.8077 -0.5880
vn -0.9109 -0.1388 0.3885
vn 0.9812 -0.1928 -0.0070
vn -0.7224 -0.1270 -0.6797
vn -0.9981 0.0127 0.0608
vn -0.6085 -0.1290 -0.7830
vn -0.2028 -0.8974 0.3920
vn -0.7815 0.2162 -0.5852
vn 0.7797 0.0800 0.6210
vn -0.1060 -0.9934 -0.0443
vn 0.0340 0.9630 -0.2674
vn -0.7760 -0.5824 -0.2421
vn 0.5287 -0.7638 0.3703
vn 0.8568 -0.0530 0.5129
vn -0.3130 -0.5780 0.7536
vn 0.0345 -0.8426 -0.5374
vn 0.8188 -0.2518 0.5160
vn -0.7981 0.4398 -0.4119
vn -0.8757 0.0227 -0.4823
vn -0.6050 -0.4773 0.6373
vn 0.1219 -0.1109 -0.9863
vn -0.9497 -0.2751 -0.1498
vn 0.2690 -0.4798 -0.8351
vn -0.6115 -0.1348 -0.7797
vn -0.1107 -0.8748 0.4717
vn 0.2481 -0.0891 -0.9646
vn 0.6869 -0.5583 0.4653
vn 0.8227 0.5076 0.2558
vn -0.0969 -0.9855 0.1393
vn 0.8263 0.0234 -0.5627
vn 0.5924 0.4157 0.6901
vn -0.7858 0.0731 0.6141
vn 0.7857 -0.0916 0.6118
vn 0.7057 0.6442 -0.2950
vn -0.7074 0.2796 0.6492
vn -0.2725 0.1696 0.9471
vn 0.2999 -0.9182 0.2588
vn -0.5920 -0.4413 0.6743
vn 0.3837 -0.7537 -0.5336
vn -0.4232 -0.8967 0.1298
vn 0.4257 -0.9015 -0.0775
vn -0.6165 0.7704 -0.1627
vn 0.6323 0.1216 -0.7651
vn -0.6323 0.1220 -0.7650
vn 0.7320 -0.3095 0.6069
vn -0.0273 -0.5003 0.8654
vn 0.5038 0.6482 -0.5709
vn -0.9627 0.2683 -0.0356
vn 0.3340 -0.4169 0.8454
vn -0.8885 0.4404 -0.1289
vn -0.1395 -0.0244 0.9899
vn 0.6574 0.6275 -0.4173
vn -0.9860 -0.1473 0.0782
vn -0.8919 -0.0194 0.4519
vn 0.4877 0.8678 -0.0954
vn -0.8173 -0.1313 0.5610
vn -0.0413 -0.4847 0.8737
vn -0.3352 0.4676 0.8179
vn -0.7779 -0.4115 0.4750
vn 0.8761 -0.0680 -0.4772
vn 0.5524 -0.1215 -0.8247
vn 0.6810 -0.6136 0.3997
vn -0.1852 -0.9434 0.2752
vn -0.8708 0.1938 -0.4519
vn 0.9518 -0.2225 -0.2110
vn 0.2651 -0.9554 0.1301
vn 0.5807 0.1310 -0.8035
vn -0.6390 -0.3852 0.6658
vn 0.3458 0.1728 0.9223
vn 0.6598 0.6252 -0.4169
vn 0.9468 -0.3187 -0.0450
vn -0.7520 0.2000 0.6281
vn -0.6565 -0.1700 0.7349
vn 0.7331 -0.4818 0.4801
vn 0.7119 -0.6037 0.3587
vn -0.0870 0.9305 -0.3558
vn -0.6062 -0.0331 -0.7946
vn -0.9315 0.3052 -0.1978
vn -0.8663 -0.1014 -0.4891
vn -0.9487 0.1660 0.2690
vn 0.7747 0.2079 -0.5971
vn -0.2719 0.8312 0.4850
vn 0.6810 0.7163 -0.1519
vn -0.9840 0.1712 0.0491
vn 0.3910 -0.8319 0.3938
vn -0.6481 0.1590 -0.7448
vn 0.1590 -0.5795 -0.7993
vn -0.3193 -0.9394 -0.1247
vn -0.7426 0.1076 -0.6611
vn -0.8622 -0.0355 -0.5054
vn 0.8605 -0.1140 0.4965
vn 0.2414 -0.3387 0.9094
vn 0.8758 -0.2631 0.4046
vn -0.2148 -0.9671 0.1362
vn -0.9986 0.0527 -0.0005
vn 0.7973 0.2067 0.5670
vn 0.9923 -0.0062 -0.1236
vn -0.0601 0.9454 -0.3203
vn -0.1563 -0.7462 -0.6471
vn -0.9849 -0.0787 -0.1544
vn -0.0032 0.9279 -0.3728
vn 0.2463 0.9584 0.1443
vn -0.1420 0.8617 -0.4870
vn 0.7711 -0.5880 -0.2444
vn -0.9887 0.0403 -0.1445
vn 0.7912 -0.5636 0.2374
vn 0.9414 0.1884 -0.2798
vn -0.6190 0.7614 -0.1926
vn 0.3193 -0.9203 0.2261
vn -0.2870 0.9248 0.2499
vn 0.3694 -0.9243 -0.0961
vn 0.9190 0.0513 -0.3909
vn -0.2101 0.0753 0.9748
vn -0.0915 -0.9949 0.0420
vn -0.9914 0.0092 -0.1308
vn -0.8995 -0.4319 0.0662
vn 0.3414 0.7264 0.5965
vn -0.1460 -0.5858 -0.7972
vn 0.7779 -0.0501 0.6264
vn 0.1971 0.7071 -0.6791
vn 0.4742 -0.8703 0.1333
vn -0.8307 -0.0357 0.5556
vn -0.0627 -0.0287 -0.9976
vn 0.4646 0.5450 0.6980
vn 0.4436 -0.7217 -0.5313
vn -0.9772 -0.1366 0.1622
vn -0.3324 -0.8665 -0.3724
vn -0.9406 -0.3085 0.1419
vn 0.4052 -0.9082 -0.1050
vn -0.0058 -0.8298 -0.5581
vn 0.1662 -0.5074 0.8455
vn -0.9838 -0.0031 0.1791
vn 0.6790 0.7171 -0.1575
vn 0.6485 -0.4378 0.6228
vn -0.6961 0.5739 -0.4314
vn 0.8682 -0.3286 -0.3719
vn -0.4977 0.6501 -0.5742
vn -0.6653 0.5087 -0.5465
vn 0.1197 -0.4865 0.8655
vn -0.8361 -0.5158 -0.1864
vn -0.0323 0.9223 -0.3851
vn 0.7944 -0.0294 0.6067
vn 0.6760 0.6169 -0.4030
vn -0.9872 0.0996 -0.1249
vn 0.2275 -0.9386 0.2593
vn -0.2860 0.8694 0.4030
vn -0.6076 0.5306 0.5911
vn -0.8957 -0.0561 0.4412
vn -0.4311 -0.8919 0.1369
vn -0.9482 0.3173 0.0108
vn 0.9174 0.1515 -0.3679
vn -0.8255 -0.5644 -0.0084
vn -0.9810 -0.1921 -0.0268
vn -0.5605 0.7650 -0.3172
vn 0.9259 -0.3601 -0.1143
vn 0.3092 -0.3734 0.8746
vn -0.6209 -0.7050 0.3427
vn -0.9148 0.3975 -0.0719
vn 0.2327 0.0103 -0.9725
vn 0.1007 -0.5024 0.8587
vn -0.2622 -0.4170 0.8703
vn -0.0099 -0.9523 0.3049
vn -0.2057 -0.6481 0.7333
vn 0.8138 -0.3394 0.4717
vn 0.3133 -0.5781 0.7535
vn 0.1246 -0.9908 -0.0520
vn 0.9373 -0.2228 0.2681
vn 0.9532 0.2129 0.2147
vn 0.7289 0.2593 -0.6336
vn -0.8741 -0.4856 -0.0096
vn 0.8323 -0.4645 0.3025
vn 0.4699 0.1362 -0.8722
vn 0.1166 0.0209 0.9930
vn -0.7944 -0.0294 0.6067
vn 0.0104 -0.8937 -0.4486
vn 0.9720 0.1220 -0.2006
vn 0.1667 -0.8716 0.4611
vn -0.6225 0.7508 -0.2210
vn 0.2542 -0.5779 -0.7755
vn -0.9940 -0.0171 -0.1084
vn 0.9370 0.1609 -0.3100
vn -0.6004 0.6521 -0.4630
vn 0.2196 0.2549 0.9417
vn -0.7123 0.2588 0.6525
vn 0.8239 -0.5585 0.0965
vn -0.7790 -0.5741 -0.2521
vn 0.1278 -0.1190 -0.9846
vn -0.3004 0.7234 0.6217
vn -0.2798 -0.9271 0.2492
vn -0.0118 -0.4534 -0.8912
vn 0.2966 0.9277 0.2266
vn 0.8112 -0.5128 -0.2811
vn -0.8023 -0.0217 0.5966
vn 0.8202 -0.3301 0.4672
vn 0.1055 -0.9938 0.0341
vn 0.5624 0.4100 -0.7180
vn 0.0264 -0.9540 0.2986
vn 0.9143 -0.2760 0.2963
vn 0.9570 0.1143 -0.2667
vn 0.5611 -0.5028 0.6576
vn 0.6042 0.7416 -0.2914
vn 0.3454 -0.6581 0.6690
vn 0.6413 0.5467 -0.5384
vn 0.2215 -0.8901 -0.3983
vn 0.6024 0.4778 0.6394
vn 0.8017 -0.5445 -0.2465
vn 0.6993 0.6186 -0.3582
vn -0.0314 -0.8387 -0.5437
vn 0.0635 -0.7863 0.6145
vn 0.6481 0.1590 -0.7448
vn 0.1919 0.9325 -0.3060
vn -0.8114 -0.0575 0.5817
vn 0.9591 -0.0741 0.2732
vn 0.8957 -0.0561 0.4412
vn 0.9858 -0.0553 -0.1585
vn -0.9574 -0.2619 0.1219
vn 0.9762 0.1479 -0.1589
vn 0.6325 0.5418 -0.5535
vn -0.2003 -0.9537 0.2244
vn 0.9655 -0.1451 0.2163
vn -0.8777 -0.1542 0.4537
vn -0.7778 0.1252 -0.6159
vn 0.1981 -0.8343 0.5145
vn 0.9314 -0.2137 -0.2946
vn -0.2421 -0.3936 0.8868
vn 0.6135 0.5063 -0.6061
vn -0.7122 0.4770 0.5151
vn 0.9231 0.0490 0.3813
vn 0.8531 0.2211 0.4726
vn -0.7128 -0.4914 0.5004
vn -0.7049 0.7031 -0.0933
vn 0.9472 0.2950 -0.1257
vn 0.3846 0.8512 -0.3573
vn 0.8536 0.4393 -0.2801
vn -0.2578 0.0237 -0.9659
vn 0.6615 -0.6903 0.2931
vn 0.8353 -0.5451 -0.0724
vn -0.1687 0.6611 -0.7311
vn 0.8880 0.4139 -0.2003
vn -0.4790 0.7977 -0.3664
vn 0.2821 -0.5272 0.8015
vn -0.7289 0.2593 -0.6336
vn 0.6736 -0.5203 -0.5250
vn 0.4031 0.8274 0.3910
vn -0.4126 -0.9054 0.0996
vn 0.9082 -0.1060 -0.4050
vn 0.5409 0.1807 -0.8214
vn 0.9994 -0.0283 -0.0175
vn -0.9861 -0.1497 0.0717
vn 0.8965 0.4104 0.1669
vn 0.9515 0.1904 -0.2416
vn -0.9450 -0.2986 -0.1333
vn 0.9769 -0.1941 0.0899
vn -0.7895 -0.2764 0.5480
vn -0.9891 0.0422 -0.1409
vn -0.6326 0.1468 -0.7604
vn -0.3771 -0.7530 -0.5392
vn 0.0627 -0.0287 -0.9976
vn -0.9882 -0.0107 0.1531
vn -0.9677 -0.2443 0.0622
vn 0.6696 0.1051 0.7352
vn 0.3948 -0.4688 -0.7902
vn 0.8206 0.3748 0.4314
vn 0.3299 -0.6889 0.6455
vn -0.9953 0.0400 -0.0887
vn 0.3183 -0.7035 0.6354
vn 0.7248 0.1424 -0.6740
vn -0.0251 -0.7488 0.6623
vn 0.0861 0.9315 -0.3535
vn -0.6552 0.5450 -0.5231
vn -0.4214 0.3692 0.8283
vn 0.3769 -0.9074 0.1861
vn 0.9907 0.0451 -0.1281
vn 0.3743 -0.9205 0.1120
vn 0.0687 -0.0220 0.9974
vn -0.9470 -0.2932 0.1312
vn 0.5747 0.2116 0.7905
vn 0.6647 0.7091 -0.2353
vn 0.1653 -0.0754 -0.9834
vn -0.1742 -0.0643 -0.9826
vn -0.8353 0.2819 -0.4720
vn -0.7933 0.3563 0.4938
vn -0.7242 -0.6707 0.1602
vn -0.8658 -0.3388 0.3683
vn -0.2999 -0.9182 0.2588
vn 0.3090 0.6128 0.7274
vn 0.9451 -0.0819 -0.3163
vn -0.4531 -0.8117 -0.3686
vn -0.4006 -0.9082 -0.1212
vn 0.0681 -0.2071 -0.9759
vn 0.1257 -0.8872 -0.4440
vn -0.7802 0.2566 -0.5705
vn 0.0315 0.8144 -0.5794
vn 0.9685 -0.1733 0.1788
vn 0.9799 -0.1106 0.1660
vn 0.8540 -0.2282 0.4676
vn -0.9957 0.0476 0.0789
vn -0.4621 0.8354 -0.2976
vn -0.2378 -0.5745 0.7832
vn -0.0291 -0.4643 -0.8852
vn 0.9896 -0.0306 0.1403
vn -0.6110 -0.3379 0.7160
vn 0.3556 -0.9206 -0.1614
vn -0.8057 -0.5629 -0.1844
vn -0.9881 0.0225 0.1521
vn 0.2549 0.5597 0.7885
vn 0.3505 -0.4206 0.8368
vn -0.7214 0.6222 -0.3040
vn -0.5693 -0.2531 0.7822
vn -0.5390 -0.5134 0.6677
vn -0.1048 0.8700 -0.4818
vn -0.1638 -0.0727 -0.9838
vn 0.4442 -0.8950 -0.0407
vn 0.9560 -0.2482 0.1565
vn 0.8587 -0.2494 0.4476
vn 0.8956 -0.4409 0.0598
vn 0.8443 0.3927 -0.3647
vn -0.9879 -0.0114 0.1547
vn -0.9415 0.1919 -0.2770
vn -0.2433 -0.9582 0.1504
vn 0.6004 0.6521 -0.4630
vn -0.2384 -0.5056 -0.8292
vn -0.5594 -0.7037 0.4381
vn -0.9901 -0.0034 0.1402
vn -0.5655 0.1593 -0.8092
vn 0.8095 -0.0585 -0.5842
vn -0.5974 -0.3458 0.7236
vn 0.5413 0.8317 -0.1239
vn 0.9936 -0.0216 -0.1107
vn 0.9585 0.2627 -0.1110
vn 0.8750 -0.0140 0.4839
vn -0.3183 -0.7035 0.6354
vn 0.7277 0.2739 -0.6288
vn 0.5921 -0.8027 0.0714
vn 0.8988 -0.4069 0.1629
vn -0.2872 -0.4542 0.8433
vn 0.6583 0.4431 0.6086
vn 0.4322 0.7479 0.5039
vn 0.7488 0.2963 0.5929
vn 0.7450 -0.0816 -0.6620
vn 0.9166 0.3399 0.2107
vn -0.7242 -0.4707 0.5040
vn 0.8469 -0.0133 0.5316
vn 0.9845 0.0630 -0.1637
vn -0.6433 -0.3040 0.7026
vn 0.9673 0.1715 0.1869
vn -0.9781 0.1172 -0.1718
vn 0.9062 0.3895 -0.1644
vn 0.3564 0.9073 -0.2230
vn -0.9557 -0.1999 -0.2160
vn 0.6709 -0.1674 0.7225
vn 0.7582 0.2793 -0.5891
vn 0.6188 -0.0316 -0.7849
vn -0.6462 0.7222 -0.2468
vn -0.2312 -0.8953 -0.3808
vn 0.6107 0.4618 0.6432
vn 0.7293 0.4893 0.4782
vn -0.9100 0.2965 0.2900
vn -0.3635 0.5757 0.7324
vn -0.7154 -0.5708 0.4030
vn 0.8749 -0.0324 0.4832
vn -0.0759 -0.4457 -0.8920
vn 0.6008 -0.6706 0.4351
vn -0.7706 -0.3432 0.5370
vn -0.9567 0.1245 -0.2632
vn 0.7242 -0.6707 0.1602
vn 0.9801 -0.0710 0.1852
vn 0.3362 -0.9270 -0.1663
vn -0.7865 -0.3284 0.5230
vn 0.2221 -0.1609 0.9616
vn 0.2165 -0.4868 0.8463
vn -0.4217 0.5348 0.7322
vn -0.4156 -0.2737 0.8674
vn -0.7392 0.6292 -0.2401
vn 0.9787 0.1121 0.1722
vn -0.3905 0.8183 0.4217
vn -0.2408 -0.1799 0.9538
vn -0.3000 -0.5842 -0.7541
vn 0.9966 0.0085 0.0818
vn 0.8872 0.0399 -0.4597
vn 0.9960 0.0066 0.0896
vn -0.1610 0.2399 -0.9574
vn -0.6913 -0.5865 0.4221
vn 0.5336 -0.0355 0.8450
vn -0.7483 -0.0469 -0.6618
vn 0.6442 0.6351 -0.4262
vn -0.3681 0.7002 -0.6117
vn -0.9750 -0.2070 -0.0807
vn 0.1299 -0.9829 0.1306
vn -0.7246 0.4197 -0.5466
vn 0.7070 0.5110 0.4889
vn 0.4417 -0.8014 -0.4033
vn 0.1229 -0.7430 -0.6579
vn -0.4970 -0.5149 0.6985
vn 0.4742 0.6541 -0.5893
vn 0.9887 0.0403 -0.1445
vn 0.9385 -0.2770 -0.2061
vn 0.2719 0.8312 0.4850
vn -0.5426 0.4553 0.7059
vn -0.0213 -0.9939 -0.1080
vn 0.2246 -0.9511 0.2121
vn 0.7387 0.4936 0.4590
vn -0.9945 -0.0923 -0.0493
vn 0.0184 -0.9541 0.2988
vn 0.7645 0.4412 -0.4701
vn 0.4802 -0.8765 0.0339
vn -0.3528 0.1859 -0.9171
vn 0.5092 -0.3627 0.7805
vn 0.9750 -0.2220 -0.0129
vn -0.9532 -0.2138 -0.2136
vn 0.4627 0.5869 -0.6645
vn 0.8851 0.4116 -0.2171
vn 0.9711 0.0984 -0.2175
vn -0.8192 0.3814 0.4282
vn -0.1501 -0.5662 -0.8105
vn -0.9969 -0.0512 0.0597
vn -0.5620 0.4644 0.6845
vn 0.3900 -0.4578 0.7990
vn 0.9258 -0.0105 0.3779
vn -0.5038 0.6482 -0.5709
vn 0.4794 -0.8770 0.0341
vn -0.8998 0.4051 -0.1622
vn -0.9190 0.0513 -0.3909
vn 0.9619 0.0229 0.2724
vn 0.5849 0.4683 0.6623
vn 0.9095 0.1918 -0.3689
vn -0.2508 -0.9658 0.0655
vn 0.3865 0.4759 0.7900
vn -0.6937 0.6982 -0.1769
vn -0.5663 -0.8160 0.1162
vn -0.7223 0.0631 0.6887
vn -0.7470 -0.2128 0.6298
vn -0.5965 0.4419 0.6700
vn 0.8433 0.5058 0.1815
vn -0.9586 -0.1917 -0.2108
vn 0.9818 -0.0938 -0.1652
vn -0.6439 -0.3726 0.6682
vn 0.9750 -0.2042 -0.0873
vn 0.1565 -0.9874 -0.0237
vn 0.8211 -0.0157 -0.5706
vn -0.6805 -0.3089 0.6644
vn -0.0036 0.9923 -0.1239
vn -0.4667 -0.7322 -0.4961
vn -0.8102 -0.2476 0.5312
vn 0.4871 -0.6393 -0.5950
vn 0.7449 -0.3792 0.5489
vn -0.3751 0.8201 0.4320
vn -0.4146 -0.8990 0.1410
vn -0.3365 0.8724 0.3545
vn -0.2659 0.6062 0.7496
vn 0.6935 -0.5544 0.4600
vn 0.7400 0.1378 0.6583
vn -0.9122 0.0257 0.4090
vn -0.2046 -0.1772 0.9627
vn 0.5594 -0.7037 0.4381
vn -0.9866 0.0941 -0.1337
vn 0.6985 -0.0654 0.7126
vn 0.5490 -0.1159 -0.8277
vn -0.8955 0.3276 -0.3012
vn 0.2467 -0.9618 0.1184
vn -0.9320 0.3505 -0.0925
vn 0.7981 0.4398 -0.4119
vn -0.0759 -0.6160 0.7841
vn -0.9640 0.0946 0.2485
vn 0.9143 0.1388 -0.3806
vn 0.6835 0.7152 -0.1460
vn -0.7827 -0.1246 0.6098
vn 0.8768 0.4807 0.0146
vn 0.3119 0.9169 -0.2489
vn 0.8817 -0.4655 -0.0774
vn 0.7221 -0.4106 0.5568
vn 0.5953 0.1261 -0.7935
vn 0.8663 -0.1014 -0.4891
vn -0.9749 -0.0412 0.2187
vn 0.6362 0.4560 0.6223
vn -0.9207 0.0186 -0.3898
vn 0.2953 -0.9518 -0.0830
vn -0.8200 -0.0337 -0.5714
vn 0.9830 0.0005 -0.1835
vn 0.5214 -0.2940 0.8011
vn 0.6445 -0.1916 0.7402
vn -0.0324 0.8003 -0.5987
vn 0.9519 -0.0615 -0.3003
vn -0.2775 -0.6647 0.6937
vn -0.9383 0.0011 0.3458
vn -0.3536 -0.9328 -0.0691
vn 0.7468 0.5118 -0.4246
vn 0.6861 -0.4047 0.6045
vn 0.2315 -0.9277 0.2930
vn -0.7870 0.4707 -0.3989
vn 0.0091 -0.0227 0.9997
vn -0.3932 0.8987 -0.1941
vn -0.8025 -0.4647 0.3743
vn 0.8207 0.2264 -0.5245
vn 0.9413 0.2992 0.1565
vn -0.9476 -0.1952 0.2528
vn 0.9775 0.0306 -0.2089
vn 0.7739 0.0706 0.6293
vn 0.9359 0.0067 0.3523
vn -0.5866 -0.7425 0.3233
vn -0.9113 -0.4117 -0.0097
vn 0.7983 -0.5722 0.1880
vn 0.1001 -0.5634 -0.8201
vn -0.7857 -0.4190 0.4550
vn 0.7761 -0.5741 -0.2611
vn 0.4756 0.3795 0.7936
vn -0.9747 -0.1338 0.1788
vn 0.9749 0.2223 -0.0154
vn 0.0105 -0.8708 0.4916
vn 0.7946 -0.4292 0.4293
vn 0.9704 -0.1846 -0.1560
vn -0.4809 -0.7754 0.4093
vn 0.9470 -0.2932 0.1312
vn 0.0047 -0.9982 -0.0598
vn -0.3455 0.9120 -0.2209
vn 0.9295 -0.1960 -0.3124
vn 0.8247 -0.1895 0.5328
vn 0.3304 -0.6799 0.6547
vn -0.5408 0.1295 -0.8311
vn 0.8394 0.4608 -0.2881
vn -0.8951 -0.3777 0.2369
vn -0.9399 -0.3402 0.0278
vn -0.7759 -0.2525 0.5781
vn -0.8776 0.0241 0.4788
vt 0.793893 0.811035
vt 0.733986 0.647144
vt 0.654509 0.794346
vt 0.904509 0.802353
vt 0.637534 0.635601
vt 0.530617 0.607635
vt 0.500000 0.753937
vt 0.876608 0.580494
vt 0.859674 0.618176
vt 0.975529 0.769161
vt 0.000000 0.714703
vt 0.810530 0.641144
vt 0.494886 0.330135
vt 0.549539 0.344433
vt 0.530617 0.328053
vt 0.604192 0.365723
vt 0.423700 0.300087
vt 0.327249 0.288544
vt 0.445583 0.324238
vt 0.637534 0.369709
vt 0.653495 0.391926
vt 0.692622 0.420471
vt 0.810530 0.476807
vt 0.717743 0.448570
vt 0.733986 0.420963
vt 0.201560 0.403915
vt 0.381335 0.383205
vt 0.184626 0.355206
vt 0.372679 0.358311
vt 0.250704 0.458881
vt 0.406456 0.411304
vt 0.327249 0.514725
vt 0.381335 0.339043
vt 0.250704 0.294548
vt 0.406456 0.327301
vt 0.201560 0.317513
vt 0.859674 0.531780
vt 0.555940 0.398312
vt 0.726400 0.473465
vt 0.692622 0.504471
vt 0.717743 0.492729
vt 0.653495 0.507542
vt 0.604192 0.501640
vt 0.445583 0.439854
vt 0.494886 0.466053
vt 0.549539 0.487347
vt 0.095491 0.301487
vt 0.206107 0.292805
vt 0.024472 0.334679
vt 0.345492 0.309490
vt 0.500000 0.349903
vt 0.654509 0.410099
vt 0.206107 0.619667
vt 0.345492 0.693741
vt 0.095491 0.538963
vt 0.423700 0.565987
vt 0.024472 0.459526
vt 0.000000 0.389137
vt 0.904509 0.564873
vt 0.975529 0.644310
vt 0.793893 0.484169
vt 0.000000 1.000000
vt 0.273600 0.473465
vt 0.123392 0.580494
vt 0.282257 0.492729
vt 0.024471 0.644310
vt 0.140326 0.618176
vt 0.307378 0.504471
vt 0.189470 0.641144
vt 0.140326 0.531780
vt 0.266014 0.420963
vt 0.206107 0.484169
vt 0.189470 0.476807
vt 0.345491 0.410099
vt 0.095491 0.564873
vt 0.576300 0.565987
vt 0.505114 0.466053
vt 0.469383 0.607635
vt 0.450461 0.487347
vt 0.672751 0.514725
vt 0.554417 0.439854
vt 0.593544 0.411304
vt 0.362466 0.635601
vt 0.395808 0.501640
vt 0.346505 0.507542
vt 0.266014 0.647144
vt 0.362466 0.369709
vt 0.798440 0.403915
vt 0.749296 0.458881
vt 0.975528 0.459526
vt 0.904509 0.538963
vt 0.815374 0.355206
vt 0.975528 0.334679
vt 0.654508 0.693741
vt 0.793893 0.619667
vt 0.576300 0.300087
vt 0.654508 0.309490
vt 0.469383 0.328053
vt 0.672751 0.288544
vt 0.793893 0.292805
vt 0.798440 0.317513
vt 0.749296 0.294548
vt 0.904509 0.301487
vt 0.444060 0.398312
vt 0.618665 0.383205
vt 0.282257 0.448570
vt 0.395808 0.365723
vt 0.346505 0.391926
vt 0.450461 0.344433
vt 0.307378 0.420471
vt 0.505114 0.330135
vt 0.627321 0.358311
vt 0.618665 0.339043
vt 0.593544 0.327301
vt 0.554417 0.324238
vt 0.095491 0.802353
vt 0.024471 0.769161
vt 0.345491 0.794346
vt 0.206107 0.811035
vt 0.531129 0.863455
vt 0.528598 0.862678
vt 0.529701 0.861377
vt 0.530028 0.864496
vt 0.532449 0.864504
vt 0.554833 0.852302
vt 0.535964 0.857423
vt 0.554115 0.862847
vt 0.527653 0.863068
vt 0.533337 0.860528
vt 0.534939 0.862031
vt 0.531751 0.858482
vt 0.533744 0.855085
vt 0.535657 0.858520
vt 0.537437 0.859975
vt 0.530356 0.847231
vt 0.465756 0.730456
vt 0.464280 0.731015
vt 0.466272 0.734068
vt 0.468310 0.733388
vt 0.464779 0.728223
vt 0.462719 0.728340
vt 0.462606 0.727787
vt 0.464037 0.730013
vt 0.465977 0.733427
vt 0.464885 0.735427
vt 0.463767 0.732595
vt 0.465331 0.736822
vt 0.463567 0.731622
vt 0.533015 0.861030
vt 0.528781 0.860447
vt 0.530131 0.864549
vt 0.530881 0.856491
vt 0.531355 0.865489
vt 0.534491 0.861890
vt 0.526887 0.856207
vt 0.527647 0.863272
vt 0.528726 0.864638
vt 0.526403 0.862717
vt 0.525618 0.860881
vt 0.526164 0.858016
vt 0.536721 0.859365
vt 0.468862 0.749484
vt 0.466293 0.747780
vt 0.466377 0.748286
vt 0.467102 0.749259
vt 0.467253 0.750763
vt 0.470042 0.751312
vt 0.469399 0.753101
vt 0.469928 0.750509
vt 0.463993 0.748347
vt 0.465755 0.751317
vt 0.467367 0.753944
vt 0.471307 0.756222
vt 0.464995 0.721450
vt 0.464829 0.720767
vt 0.463109 0.721688
vt 0.462921 0.720778
vt 0.464423 0.724210
vt 0.465870 0.723530
vt 0.464627 0.728363
vt 0.464023 0.722561
vt 0.465068 0.754195
vt 0.464674 0.751874
vt 0.466630 0.753166
vt 0.463722 0.724297
vt 0.465564 0.722267
vt 0.463941 0.725445
vt 0.463960 0.747882
vt 0.467324 0.729442
vt 0.468962 0.731820
vt 0.464679 0.727808
vt 0.468861 0.731404
vt 0.465570 0.729689
vt 0.468613 0.734441
vt 0.465745 0.749335
vt 0.459061 0.781790
vt 0.459779 0.802539
vt 0.459863 0.804904
vt 0.459175 0.785141
vt 0.459751 0.801754
vt 0.459456 0.793305
vt 0.459271 0.787929
vt 0.459472 0.793767
vt 0.459704 0.800426
vt 0.459315 0.789211
vt 0.458776 0.773334
vt 0.458807 0.774253
vt 0.459830 0.803985
vt 0.489859 0.811437
vt 0.490517 0.812575
vt 0.493013 0.812944
vt 0.492379 0.807917
vt 0.492492 0.807826
vt 0.490244 0.811723
vt 0.495164 0.807698
vt 0.493132 0.810665
vt 0.494834 0.807444
vt 0.490710 0.812847
vt 0.492924 0.813826
vt 0.497867 0.810534
vt 0.497474 0.813438
vt 0.460224 0.765039
vt 0.460206 0.763084
vt 0.462560 0.806586
vt 0.461784 0.810371
vt 0.461888 0.813254
vt 0.462269 0.795070
vt 0.460502 0.773340
vt 0.461874 0.784919
vt 0.461843 0.811999
vt 0.460939 0.786261
vt 0.460749 0.780687
vt 0.461206 0.794016
vt 0.461693 0.807861
vt 0.529650 0.858487
vt 0.526305 0.855364
vt 0.526229 0.858659
vt 0.525366 0.858400
vt 0.526985 0.861113
vt 0.527069 0.853356
vt 0.527847 0.860249
vt 0.525730 0.856066
vt 0.499012 0.806119
vt 0.499163 0.808047
vt 0.496863 0.805659
vt 0.504007 0.807601
vt 0.498517 0.806656
vt 0.503584 0.806797
vt 0.496949 0.812909
vt 0.499654 0.812986
vt 0.502654 0.810875
vt 0.503507 0.809186
vt 0.592808 0.531743
vt 0.588217 0.538940
vt 0.588077 0.539594
vt 0.592974 0.532605
vt 0.590410 0.541266
vt 0.605476 0.579748
vt 0.598681 0.549994
vt 0.597732 0.577716
vt 0.594369 0.536410
vt 0.588024 0.579111
vt 0.613173 0.625620
vt 0.612434 0.624340
vt 0.615779 0.621909
vt 0.615986 0.622776
vt 0.613896 0.614147
vt 0.608878 0.593579
vt 0.610395 0.618277
vt 0.610344 0.599562
vt 0.598719 0.597518
vt 0.603627 0.617616
vt 0.594111 0.535248
vt 0.585780 0.562762
vt 0.596633 0.544739
vt 0.581263 0.552818
vt 0.580933 0.565246
vt 0.599718 0.607532
vt 0.614994 0.618664
vt 0.603411 0.571398
vt 0.597228 0.579381
vt 0.580859 0.579665
vt 0.580881 0.588312
vt 0.586239 0.595329
vt 0.580956 0.598184
vt 0.581140 0.610011
vt 0.587471 0.612386
vt 0.580948 0.566627
vt 0.581636 0.543142
vt 0.601569 0.621008
vt 0.581399 0.548416
vt 0.581728 0.542511
vt 0.581694 0.543940
vt 0.584418 0.618966
vt 0.581248 0.618567
vt 0.581152 0.616172
vt 0.580876 0.599332
vt 0.585356 0.616338
vt 0.553521 0.602831
vt 0.553331 0.610777
vt 0.554511 0.593339
vt 0.555736 0.583825
vt 0.553636 0.612485
vt 0.553687 0.602899
vt 0.553489 0.615268
vt 0.459452 0.491871
vt 0.461213 0.485382
vt 0.459485 0.489932
vt 0.461044 0.486468
vt 0.459778 0.492442
vt 0.459359 0.494423
vt 0.461493 0.488154
vt 0.464758 0.479439
vt 0.558504 0.553826
vt 0.556735 0.572716
vt 0.557625 0.559726
vt 0.580730 0.586609
vt 0.597048 0.573565
vt 0.589612 0.566365
vt 0.599269 0.554858
vt 0.558814 0.552734
vt 0.580750 0.575909
vt 0.555956 0.581021
vt 0.557629 0.569465
vt 0.554660 0.591882
vt 0.558917 0.553838
vt 0.558344 0.559956
vt 0.466992 0.735881
vt 0.471686 0.736523
vt 0.471154 0.735844
vt 0.467543 0.732415
vt 0.469038 0.734202
vt 0.465755 0.732520
vt 0.464910 0.730942
vt 0.468204 0.735019
vt 0.462924 0.731477
vt 0.463785 0.734862
vt 0.464875 0.736583
vt 0.472383 0.739772
vt 0.467083 0.750025
vt 0.472789 0.754060
vt 0.465694 0.724813
vt 0.464362 0.726914
vt 0.467043 0.757209
vt 0.465055 0.731428
vt 0.469008 0.724611
vt 0.468395 0.726339
vt 0.467362 0.722205
vt 0.466053 0.734327
vt 0.468842 0.723927
vt 0.468423 0.726290
vt 0.462756 0.730786
vt 0.464215 0.732819
vt 0.466077 0.735332
vt 0.468792 0.735891
vt 0.600823 0.620456
vt 0.472127 0.728869
vt 0.609379 0.623288
vt 0.609476 0.623840
vt 0.471595 0.729530
vt 0.471495 0.728278
vt 0.469804 0.729461
vt 0.467500 0.728924
vt 0.472618 0.739591
vt 0.466378 0.738958
vt 0.464850 0.738342
vt 0.471066 0.739817
vt 0.469530 0.739997
vt 0.492385 0.780119
vt 0.495290 0.787243
vt 0.496036 0.784173
vt 0.491154 0.779002
vt 0.491169 0.779490
vt 0.484620 0.782489
vt 0.478875 0.782885
vt 0.483299 0.800267
vt 0.473516 0.783857
vt 0.474509 0.805198
vt 0.491185 0.779437
vt 0.490127 0.754648
vt 0.488711 0.757775
vt 0.487882 0.782818
vt 0.490626 0.800192
vt 0.492957 0.791536
vt 0.487404 0.808726
vt 0.486815 0.799901
vt 0.510317 0.819697
vt 0.506778 0.810402
vt 0.499845 0.801958
vt 0.483049 0.769613
vt 0.478757 0.763906
vt 0.477157 0.773097
vt 0.506264 0.803765
vt 0.485902 0.782701
vt 0.475770 0.815443
vt 0.487478 0.764879
vt 0.468327 0.763951
vt 0.468299 0.777805
vt 0.485796 0.766729
vt 0.479135 0.759770
vt 0.477878 0.735780
vt 0.477869 0.740706
vt 0.464715 0.728123
vt 0.467168 0.742654
vt 0.478074 0.743827
vt 0.478420 0.746287
vt 0.483856 0.741013
vt 0.481465 0.745903
vt 0.466678 0.742061
vt 0.480832 0.753289
vt 0.482355 0.739235
vt 0.477035 0.736540
vt 0.464418 0.730839
vt 0.479296 0.732786
vt 0.491357 0.782225
vt 0.484142 0.752815
vt 0.489788 0.774510
vt 0.492829 0.789133
vt 0.485110 0.768799
vt 0.494941 0.783847
vt 0.482346 0.751802
vt 0.480720 0.763783
vt 0.474831 0.767088
vt 0.470071 0.782960
vt 0.468285 0.775035
vt 0.473047 0.792616
vt 0.477104 0.752145
vt 0.477999 0.732596
vt 0.499948 0.786343
vt 0.517379 0.794530
vt 0.512134 0.797455
vt 0.519892 0.848057
vt 0.532451 0.843359
vt 0.517744 0.815619
vt 0.537586 0.821761
vt 0.515349 0.835842
vt 0.532581 0.835305
vt 0.502797 0.825711
vt 0.494477 0.829329
vt 0.524531 0.827249
vt 0.502495 0.837962
vt 0.485221 0.804628
vt 0.480786 0.783342
vt 0.475997 0.815446
vt 0.525700 0.806306
vt 0.508952 0.802099
vt 0.509892 0.844218
vt 0.519580 0.802811
vt 0.538081 0.809172
vt 0.541405 0.799494
vt 0.518720 0.795088
vt 0.515910 0.791821
vt 0.499703 0.786625
vt 0.533903 0.796593
vt 0.502945 0.831977
vt 0.499967 0.834792
vt 0.501863 0.837698
vt 0.463758 0.765903
vt 0.461146 0.748328
vt 0.464004 0.756081
vt 0.459637 0.752229
vt 0.459467 0.741348
vt 0.506850 0.797565
vt 0.504079 0.839782
vt 0.492286 0.773966
vt 0.486594 0.753472
vt 0.488556 0.749590
vt 0.489924 0.749166
vt 0.495942 0.780935
vt 0.496808 0.781473
vt 0.468158 0.760414
vt 0.466905 0.746627
vt 0.498506 0.789177
vt 0.488541 0.754072
vt 0.488271 0.754618
vt 0.489151 0.749958
vt 0.496350 0.781759
vt 0.492187 0.775399
vt 0.554776 0.861800
vt 0.556046 0.865722
vt 0.555695 0.855838
vt 0.555129 0.847689
vt 0.555051 0.828840
vt 0.465133 0.783452
vt 0.466504 0.813755
vt 0.478230 0.825060
vt 0.475600 0.826146
vt 0.477985 0.824249
vt 0.473849 0.825912
vt 0.470472 0.823171
vt 0.463533 0.816453
vt 0.463302 0.814164
vt 0.477415 0.822225
vt 0.467802 0.795013
vt 0.468360 0.808736
vt 0.494655 0.804683
vt 0.489056 0.816451
vt 0.497993 0.794438
vt 0.496214 0.799692
s 0
usemtl Material.001
f 60/1/1 54/2/1 58/3/1
f 154/2/2 379/1/2 420/4/2
f 54/2/3 57/5/3 58/3/3
f 152/6/4 436/7/4 23/3/4
f 344/3/5 353/5/5 362/6/5
f 43/8/6 54/9/6 61/10/6
f 527/11/7 520/8/7 371/10/7
f 485/10/8 313/9/8 209/12/8
f 258/4/9 186/12/9 487/2/9
f 54/12/10 60/4/10 61/10/10
f 408/13/11 544/14/11 440/15/11
f 319/15/12 511/14/12 349/16/12
f 257/17/13 214/13/13 204/15/13
f 369/18/14 96/19/14 158/13/14
f 62/13/15 500/17/15 460/18/15
f 538/16/16 24/20/16 441/15/16
f 493/21/17 388/22/17 389/23/17
f 409/23/18 538/22/18 441/24/18
f 461/25/19 193/21/19 275/23/19
f 297/20/20 157/16/20 83/25/20
f 472/16/21 303/21/21 365/25/21
f 503/26/22 311/27/22 488/28/22
f 314/27/23 35/29/23 288/28/23
f 59/27/24 324/26/24 315/30/24
f 304/31/25 380/30/25 352/32/25
f 201/30/26 467/31/26 327/27/26
f 311/28/27 503/29/27 153/33/27
f 11/34/28 389/35/28 543/19/28
f 216/19/29 496/18/29 543/34/29
f 395/33/30 327/35/30 402/34/30
f 54/33/31 50/36/31 53/28/31
f 539/36/32 398/33/32 401/34/32
f 54/24/33 43/37/33 45/23/33
f 151/19/34 67/35/34 462/38/34
f 32/13/35 85/19/35 361/38/35
f 52/35/36 453/33/36 526/38/36
f 257/29/37 27/27/37 13/38/37
f 472/33/38 397/29/38 246/38/38
f 42/14/39 326/13/39 182/38/39
f 245/24/40 409/22/40 441/38/40
f 475/39/41 546/24/41 447/38/41
f 183/22/42 428/21/42 88/38/42
f 487/16/43 365/14/43 258/38/43
f 79/21/44 346/16/44 221/38/44
f 218/40/45 260/41/45 91/38/45
f 269/42/46 159/40/46 442/38/46
f 40/41/47 30/39/47 427/38/47
f 522/37/48 545/24/48 285/8/48
f 447/24/49 546/39/49 336/8/49
f 422/43/50 412/42/50 424/38/50
f 375/31/51 293/44/51 266/38/51
f 47/27/52 99/31/52 384/38/52
f 267/44/53 343/45/53 488/38/53
f 525/46/54 371/43/54 450/38/54
f 398/45/55 539/46/55 306/38/55
f 150/47/56 184/34/56 406/48/56
f 92/34/57 453/18/57 52/48/57
f 463/34/58 205/47/58 385/49/58
f 53/28/31 50/36/31 51/49/31
f 306/49/59 447/36/59 501/34/59
f 50/48/33 54/18/33 48/50/33
f 96/51/60 18/15/60 533/52/60
f 54/15/33 45/20/33 46/52/33
f 54/15/33 46/51/33 48/50/33
f 149/18/61 546/17/61 494/50/61
f 374/50/62 351/17/62 500/15/62
f 517/32/63 431/53/63 451/54/63
f 34/53/64 253/32/64 331/55/64
f 469/54/65 457/56/65 490/32/65
f 268/7/66 445/6/66 97/54/66
f 57/6/67 54/56/67 56/54/67
f 196/32/68 361/30/68 188/55/68
f 83/57/69 26/26/69 270/28/69
f 482/58/70 2/28/70 185/49/70
f 346/57/71 475/28/71 474/58/71
f 123/55/72 17/30/72 144/57/72
f 494/30/73 44/26/73 149/57/73
f 395/52/74 538/20/74 201/25/74
f 257/43/75 274/5/75 27/2/75
f 480/43/76 413/46/76 338/6/76
f 352/2/77 295/42/77 304/43/77
f 208/12/78 449/40/78 75/2/78
f 2/40/79 5/42/79 430/2/79
f 83/6/80 8/5/80 199/43/80
f 210/45/81 342/44/81 39/32/81
f 132/32/82 203/44/82 2/31/82
f 289/56/83 301/45/83 145/32/83
f 199/6/84 26/46/84 83/45/84
f 481/45/85 537/56/85 271/6/85
f 387/59/86 14/23/86 267/60/86
f 539/23/87 401/37/87 474/60/87
f 508/23/88 531/59/88 98/61/88
f 97/25/89 442/61/89 159/52/89
f 358/61/90 345/25/90 381/23/90
f 416/60/91 471/37/91 334/8/91
f 321/9/92 90/41/92 97/12/92
f 455/41/93 221/40/93 346/12/93
f 18/41/94 95/9/94 529/8/94
f 285/8/95 457/11/95 502/60/95
f 349/8/96 85/39/96 536/41/96
f 74/62/97 115/62/97 116/62/97
f 115/62/98 74/62/98 114/62/98
f 116/62/99 76/62/99 74/62/99
f 322/62/100 408/62/100 440/62/100
f 76/62/101 116/62/101 77/62/101
f 435/62/102 31/62/102 502/62/102
f 337/62/103 253/62/103 1/62/103
f 74/62/104 73/62/104 113/62/104
f 514/62/105 416/62/105 334/62/105
f 114/62/106 74/62/106 113/62/106
f 80/62/107 120/62/107 121/62/107
f 502/62/108 31/62/108 87/62/108
f 121/62/109 81/62/109 80/62/109
f 425/62/110 72/62/110 15/62/110
f 275/62/111 281/62/111 404/62/111
f 118/62/112 78/62/112 77/62/112
f 12/62/113 196/62/113 188/62/113
f 80/62/114 78/62/114 118/62/114
f 80/62/115 119/62/115 120/62/115
f 119/62/116 80/62/116 118/62/116
f 65/62/117 105/62/117 106/62/117
f 105/62/118 65/62/118 63/62/118
f 106/62/119 66/62/119 65/62/119
f 328/62/120 514/62/120 87/62/120
f 442/62/121 198/62/121 356/62/121
f 103/62/122 63/62/122 81/62/122
f 216/62/123 354/62/123 496/62/123
f 530/62/124 221/62/124 362/62/124
f 63/62/125 104/62/125 105/62/125
f 104/62/126 63/62/126 103/62/126
f 70/62/127 110/62/127 111/62/127
f 110/62/128 70/62/128 109/62/128
f 111/62/129 71/62/129 70/62/129
f 252/62/130 249/62/130 377/62/130
f 71/62/131 111/62/131 73/62/131
f 108/62/132 68/62/132 66/62/132
f 264/62/133 296/62/133 342/62/133
f 70/62/134 68/62/134 108/62/134
f 274/62/135 257/62/135 204/62/135
f 109/62/136 70/62/136 108/62/136
f 296/62/137 37/62/137 146/62/137
f 315/62/138 382/62/138 372/62/138
f 406/62/139 298/62/139 198/62/139
f 117/62/140 77/62/140 116/62/140
f 498/62/141 27/62/141 274/62/141
f 342/62/142 296/62/142 146/62/142
f 113/62/143 73/62/143 112/62/143
f 381/62/144 296/62/144 41/62/144
f 281/62/145 240/62/145 88/62/145
f 84/62/146 37/62/146 202/62/146
f 194/62/147 465/62/147 189/62/147
f 306/62/148 501/62/148 276/62/148
f 358/62/149 212/62/149 364/62/149
f 102/62/150 81/62/150 121/62/150
f 296/62/151 264/62/151 41/62/151
f 118/62/152 77/62/152 117/62/152
f 144/62/153 215/62/153 123/62/153
f 132/62/154 430/62/154 228/62/154
f 357/62/155 364/62/155 33/62/155
f 18/62/156 357/62/156 521/62/156
f 191/62/157 10/62/157 432/62/157
f 91/62/158 372/62/158 218/62/158
f 470/62/159 387/62/159 243/62/159
f 107/62/160 66/62/160 106/62/160
f 240/62/161 513/62/161 486/62/161
f 371/62/162 520/62/162 450/62/162
f 103/62/163 81/62/163 102/62/163
f 303/62/164 352/62/164 365/62/164
f 450/62/165 155/62/165 525/62/165
f 18/62/166 529/62/166 533/62/166
f 182/62/167 263/62/167 483/62/167
f 6/62/168 145/62/168 515/62/168
f 353/62/169 158/62/169 534/62/169
f 112/62/170 73/62/170 111/62/170
f 259/62/171 499/62/171 224/62/171
f 266/62/172 390/62/172 375/62/172
f 108/62/173 66/62/173 107/62/173
f 520/62/174 527/62/174 216/62/174
f 342/62/175 217/62/175 264/62/175
f 327/62/176 467/62/176 264/62/176
f 139/62/177 33/62/177 41/62/177
f 41/62/178 264/62/178 467/62/178
f 250/62/179 260/62/179 428/62/179
f 126/62/180 168/62/180 167/62/180
f 278/62/181 228/62/181 438/62/181
f 423/62/182 224/62/182 396/62/182
f 133/62/183 172/62/183 171/62/183
f 524/62/184 160/62/184 211/62/184
f 459/62/185 343/62/185 243/62/185
f 505/62/186 431/62/186 517/62/186
f 332/62/187 157/62/187 432/62/187
f 522/62/188 334/62/188 545/62/188
f 99/62/189 10/62/189 361/62/189
f 141/62/190 163/62/190 162/62/190
f 334/62/191 471/62/191 545/62/191
f 474/62/192 202/62/192 346/62/192
f 126/62/193 167/62/193 166/62/193
f 97/62/194 49/62/194 268/62/194
f 400/62/195 319/62/195 24/62/195
f 262/62/196 458/62/196 535/62/196
f 159/62/197 321/62/197 97/62/197
f 189/62/198 8/62/198 47/62/198
f 142/62/199 425/62/199 15/62/199
f 372/62/200 91/62/200 518/62/200
f 137/62/201 178/62/201 177/62/201
f 327/62/202 264/62/202 217/62/202
f 141/62/203 162/62/203 181/62/203
f 212/62/204 358/62/204 381/62/204
f 445/62/205 406/62/205 198/62/205
f 425/62/206 205/62/206 247/62/206
f 11/62/207 543/62/207 496/62/207
f 520/62/208 389/62/208 450/62/208
f 206/62/209 330/62/209 349/62/209
f 133/62/210 173/62/210 172/62/210
f 494/62/211 207/62/211 79/62/211
f 389/62/212 292/62/212 256/62/212
f 137/62/213 177/62/213 176/62/213
f 506/62/214 513/62/214 240/62/214
f 284/62/215 474/62/215 478/62/215
f 472/62/216 487/62/216 187/62/216
f 130/62/217 169/62/217 168/62/217
f 511/62/218 395/62/218 402/62/218
f 128/62/219 130/62/219 168/62/219
f 467/62/220 139/62/220 41/62/220
f 128/62/221 168/62/221 126/62/221
f 171/62/222 131/62/222 133/62/222
f 212/62/223 33/62/223 364/62/223
f 131/62/224 171/62/224 130/62/224
f 130/62/225 170/62/225 169/62/225
f 170/62/226 130/62/226 171/62/226
f 122/62/227 164/62/227 163/62/227
f 164/62/228 122/62/228 165/62/228
f 324/62/229 417/62/229 382/62/229
f 185/62/230 370/62/230 4/62/230
f 122/62/231 163/62/231 141/62/231
f 525/62/232 155/62/232 476/62/232
f 485/62/233 209/62/233 390/62/233
f 126/62/234 166/62/234 125/62/234
f 125/62/235 165/62/235 122/62/235
f 165/62/236 125/62/236 166/62/236
f 140/62/237 179/62/237 178/62/237
f 179/62/238 140/62/238 180/62/238
f 138/62/239 140/62/239 178/62/239
f 537/62/240 410/62/240 156/62/240
f 138/62/241 178/62/241 137/62/241
f 386/62/242 435/62/242 502/62/242
f 331/62/243 499/62/243 34/62/243
f 141/62/244 181/62/244 140/62/244
f 213/62/245 221/62/245 455/62/245
f 180/62/246 140/62/246 181/62/246
f 134/62/247 174/62/247 173/62/247
f 491/62/248 124/62/248 386/62/248
f 133/62/249 134/62/249 173/62/249
f 399/62/250 145/62/250 307/62/250
f 124/62/251 435/62/251 386/62/251
f 176/62/252 136/62/252 137/62/252
f 233/62/253 524/62/253 25/62/253
f 136/62/254 176/62/254 134/62/254
f 134/62/255 175/62/255 174/62/255
f 175/62/256 134/62/256 176/62/256
f 428/63/257 404/64/257 88/65/257
f 158/11/258 371/64/258 534/66/258
f 499/67/259 236/65/259 34/64/259
f 221/68/260 403/65/260 79/69/260
f 508/65/261 486/67/261 531/69/261
f 530/70/262 49/66/262 251/64/262
f 426/71/263 69/72/263 541/73/263
f 404/72/264 281/71/264 88/74/264
f 100/75/265 67/73/265 62/72/265
f 513/70/266 506/73/266 87/66/266
f 203/73/267 185/75/267 2/66/267
f 49/76/268 97/77/268 147/78/268
f 298/79/269 249/78/269 356/77/269
f 424/77/270 350/76/270 533/80/270
f 525/81/271 530/80/271 534/82/271
f 98/81/272 393/77/272 340/80/272
f 207/83/273 494/78/273 546/84/273
f 463/85/274 418/68/274 3/86/274
f 421/68/275 184/69/275 150/86/275
f 418/85/276 463/86/276 1/84/276
f 546/79/277 149/84/277 336/78/277
f 330/83/278 361/84/278 85/86/278
f 526/87/279 453/74/279 192/71/279
f 423/88/280 396/89/280 286/90/280
f 455/89/281 364/91/281 213/90/281
f 304/92/282 295/90/282 376/58/282
f 281/92/283 506/58/283 240/93/283
f 87/88/284 506/90/284 328/92/284
f 250/89/285 376/80/285 295/91/285
f 235/76/286 238/78/286 237/94/286
f 377/78/287 501/7/287 252/94/287
f 478/76/288 474/94/288 401/80/288
f 326/80/289 42/95/289 316/91/289
f 350/95/290 156/80/290 533/94/290
f 407/96/291 442/97/291 439/98/291
f 84/96/292 339/99/292 37/97/292
f 227/51/293 235/98/293 229/97/293
f 226/87/293 235/98/293 227/74/293
f 465/98/294 93/51/294 189/74/294
f 235/99/293 231/100/293 229/97/293
f 423/101/295 265/93/295 244/102/295
f 231/101/296 234/92/296 232/93/296
f 442/103/297 356/102/297 336/93/297
f 502/99/298 87/102/298 522/100/298
f 325/102/299 451/103/299 507/100/299
f 313/79/300 485/77/300 535/104/300
f 439/84/301 251/79/301 49/104/301
f 186/77/302 39/81/302 146/104/302
f 532/82/303 308/105/303 35/104/303
f 156/81/304 355/82/304 533/104/304
f 332/85/305 47/84/305 8/104/305
f 351/63/306 374/106/306 460/64/306
f 183/106/307 94/70/307 443/64/307
f 194/63/308 189/65/308 273/104/308
f 498/68/309 194/85/309 27/104/309
f 540/65/310 92/68/310 52/104/310
f 360/107/311 536/108/311 348/104/311
f 508/109/312 94/107/312 88/104/312
f 317/108/313 469/110/313 230/104/313
f 154/106/314 492/63/314 537/104/314
f 295/110/315 352/106/315 303/104/315
f 24/111/316 160/109/316 441/104/316
f 13/112/317 384/113/317 257/104/317
f 544/105/318 427/112/318 30/104/318
f 249/113/319 298/114/319 325/104/319
f 350/115/320 464/111/320 413/104/320
f 511/114/321 319/115/321 400/104/321
f 223/70/293 235/106/293 226/73/293
f 378/113/322 540/101/322 394/102/322
f 231/101/296 235/113/296 234/92/296
f 215/114/323 19/113/323 370/102/323
f 243/99/324 343/115/324 470/102/324
f 494/114/325 403/102/325 44/115/325
f 144/112/326 157/92/326 297/113/326
f 544/82/327 30/89/327 312/105/327
f 150/89/328 406/82/328 145/80/328
f 529/88/329 523/105/329 422/89/329
f 184/112/330 517/105/330 298/92/330
f 247/105/331 352/88/331 380/92/331
f 362/108/332 534/107/332 530/71/332
f 313/107/333 417/87/333 209/71/333
f 487/108/334 186/71/334 339/73/334
f 347/110/335 21/73/335 148/106/335
f 14/110/336 387/108/336 470/73/336
f 2/87/337 482/107/337 12/98/337
f 335/96/338 454/111/338 49/99/338
f 344/115/339 213/99/339 364/111/339
f 364/111/340 455/96/340 358/98/340
f 428/109/341 183/98/341 250/107/341
f 506/109/342 491/111/342 328/98/342
f 241/116/343 235/69/343 242/117/343
f 399/69/344 525/116/344 476/86/344
f 32/67/345 196/117/345 309/69/345
f 367/64/346 366/11/346 368/117/346
f 235/67/293 223/64/293 242/117/293
f 320/83/347 503/118/347 488/78/347
f 158/7/348 527/78/348 371/118/348
f 238/83/349 235/86/349 239/118/349
f 161/119/350 532/86/350 35/116/350
f 235/86/351 241/119/351 239/118/351
f 427/120/352 190/121/352 40/122/352
f 204/121/353 214/120/353 39/123/353
f 59/123/354 326/120/354 316/124/354
f 510/125/355 191/126/355 17/127/355
f 516/121/356 355/123/356 378/128/356
f 430/129/357 459/130/357 228/124/357
f 481/129/358 271/131/358 324/132/358
f 19/131/359 297/120/359 363/122/359
f 326/129/360 518/133/360 246/130/360
f 469/130/361 386/133/361 457/134/361
f 282/133/362 75/129/362 449/132/362
f 337/135/363 433/126/363 473/125/363
f 23/136/364 528/137/364 152/138/364
f 146/138/365 39/139/365 342/136/365
f 17/137/366 432/136/366 157/140/366
f 194/141/367 273/140/367 13/142/367
f 379/140/368 154/141/368 316/137/368
f 248/143/369 155/144/369 388/145/369
f 153/137/370 503/146/370 446/147/370
f 433/147/371 385/138/371 286/137/371
f 386/146/372 502/137/372 457/141/372
f 540/148/373 378/143/373 92/145/373
f 183/142/374 15/143/374 279/148/374
f 370/120/375 278/129/375 320/124/375
f 530/149/376 251/150/376 221/151/376
f 2/150/377 12/149/377 5/152/377
f 251/152/378 149/149/378 221/126/378
f 444/149/379 397/153/379 478/154/379
f 62/150/380 151/152/380 500/155/380
f 219/150/381 257/156/381 384/151/381
f 21/157/382 319/158/382 349/128/382
f 284/158/383 84/156/383 202/159/383
f 393/150/384 152/160/384 528/156/384
f 295/156/385 260/160/385 250/159/385
f 189/160/386 47/150/386 273/155/386
f 263/153/387 182/149/387 401/151/387
f 317/153/388 328/123/388 469/124/388
f 275/123/389 197/153/389 281/157/389
f 197/157/390 506/153/390 281/151/390
f 413/129/391 272/120/391 495/131/391
f 402/123/392 217/157/392 36/128/392
f 300/154/393 293/161/393 333/126/393
f 373/149/394 218/154/394 458/126/394
f 412/154/395 148/153/395 497/124/395
f 9/154/396 360/130/396 348/161/396
f 377/161/397 249/130/397 127/134/397
f 538/130/398 190/154/398 201/124/398
f 139/162/399 95/163/399 521/164/399
f 524/163/400 441/162/400 160/165/400
f 525/162/401 399/164/401 280/166/401
f 452/167/402 75/166/402 437/168/402
f 286/167/403 55/162/403 265/166/403
f 148/169/404 412/165/404 427/162/404
f 279/164/405 72/170/405 376/171/405
f 18/164/406 521/163/406 95/170/406
f 1/166/407 199/164/407 93/171/407
f 149/168/408 251/166/408 82/172/408
f 528/166/409 23/171/409 277/172/409
f 36/173/410 210/167/410 29/168/410
f 397/174/411 84/175/411 478/176/411
f 319/176/412 160/175/412 24/177/412
f 534/174/413 371/176/413 525/178/413
f 405/179/414 480/178/414 156/180/414
f 245/179/415 489/174/415 409/178/415
f 405/177/416 350/175/416 413/181/416
f 465/182/417 418/183/417 93/184/417
f 354/183/418 52/170/418 195/184/418
f 443/181/419 94/185/419 340/177/419
f 492/186/420 355/181/420 410/175/420
f 462/178/421 67/176/421 448/187/421
f 537/170/422 481/163/422 316/188/422
f 444/189/423 246/140/423 397/136/423
f 187/136/424 84/190/424 397/189/424
f 191/140/425 188/189/425 10/191/425
f 519/189/426 385/192/426 504/193/426
f 524/191/427 233/189/427 151/193/427
f 208/190/428 75/136/428 366/139/428
f 329/142/429 485/191/429 266/143/429
f 6/140/430 289/191/430 145/142/430
f 93/191/431 8/193/431 189/143/431
f 517/193/432 195/194/432 377/144/432
f 21/143/433 536/193/433 360/144/433
f 472/193/434 365/192/434 487/194/434
f 314/171/435 528/183/435 277/182/435
f 448/171/436 22/170/436 25/183/436
f 92/172/437 378/171/437 420/182/437
f 12/188/438 188/163/438 5/195/438
f 429/165/439 314/195/439 288/163/439
f 373/170/440 262/188/440 428/184/440
f 488/142/441 343/148/441 459/146/441
f 37/146/442 296/141/442 345/142/442
f 18/148/443 369/147/443 357/146/443
f 98/195/444 531/184/444 393/188/444
f 272/148/445 208/145/445 366/147/445
f 456/196/446 270/197/446 26/198/446
f 329/199/447 266/200/447 208/201/447
f 424/196/448 412/202/448 200/197/448
f 504/202/449 340/203/449 393/204/449
f 196/202/450 16/204/450 309/197/450
f 501/201/451 377/205/451 526/199/451
f 283/206/452 437/196/452 300/199/452
f 326/199/453 444/196/453 182/198/453
f 298/207/454 356/206/454 198/199/454
f 442/200/455 251/199/455 439/208/455
f 507/199/456 484/198/456 325/208/456
f 7/209/457 91/210/457 411/211/457
f 460/209/458 100/212/458 62/213/458
f 143/212/459 526/209/459 294/211/459
f 153/213/460 359/214/460 387/209/460
f 369/213/461 158/215/461 357/216/461
f 383/214/462 471/213/462 416/216/462
f 348/211/463 309/217/463 308/212/463
f 485/218/464 28/214/464 535/219/464
f 274/210/465 225/209/465 498/214/465
f 4/214/466 19/216/466 363/219/466
f 299/216/467 436/220/467 152/221/467
f 385/219/468 519/216/468 286/221/468
f 64/207/469 269/222/469 442/223/469
f 222/204/470 299/224/470 486/225/470
f 346/197/471 358/204/471 455/225/471
f 310/198/472 391/197/472 249/226/472
f 47/208/473 384/198/473 13/226/473
f 509/197/474 505/225/474 517/226/474
f 7/227/475 246/224/475 518/204/475
f 23/228/476 435/229/476 305/202/476
f 357/202/477 33/196/477 521/228/477
f 517/203/478 325/202/478 298/229/478
f 139/204/479 201/203/479 529/227/479
f 96/229/480 527/227/480 158/203/480
f 489/226/481 245/230/481 462/208/481
f 277/205/482 305/231/482 101/232/482
f 443/199/483 15/205/483 183/232/483
f 160/207/484 347/199/484 408/232/484
f 145/206/485 301/207/485 255/223/485
f 500/232/486 233/222/486 22/207/486
f 1/201/487 253/233/487 291/231/487
f 483/230/488 379/234/488 42/200/488
f 399/200/489 515/208/489 145/230/489
f 94/201/490 98/200/490 340/233/490
f 190/205/491 523/201/491 529/231/491
f 221/200/492 44/234/492 403/233/492
f 518/235/493 91/236/493 7/132/493
f 372/131/494 313/235/494 458/132/494
f 149/236/495 44/235/495 221/237/495
f 361/158/496 10/238/496 188/239/496
f 196/132/497 482/236/497 16/240/497
f 423/235/498 244/241/498 259/237/498
f 3/121/499 418/241/499 225/122/499
f 157/241/500 332/239/500 83/237/500
f 346/239/501 345/121/501 358/128/501
f 285/241/502 502/131/502 522/122/502
f 212/131/503 381/241/503 41/235/503
f 443/238/504 142/158/504 15/159/504
f 228/160/505 459/242/505 243/159/505
f 15/242/506 72/160/506 279/240/506
f 99/240/507 47/160/507 432/155/507
f 11/156/508 496/157/508 542/151/508
f 19/157/509 144/156/509 297/158/509
f 270/236/510 456/242/510 129/240/510
f 314/158/511 161/239/511 35/128/511
f 296/239/512 381/238/512 345/237/512
f 395/236/513 400/238/513 538/242/513
f 271/242/514 537/238/514 156/159/514
f 527/238/515 394/236/515 354/237/515
f 453/239/516 92/241/516 420/121/516
f 497/215/517 148/243/517 360/244/517
f 139/245/518 467/243/518 201/215/518
f 143/243/519 501/246/519 526/244/519
f 4/210/520 363/214/520 185/218/520
f 546/211/521 475/210/521 207/218/521
f 293/213/522 282/245/522 449/215/522
f 123/215/523 510/244/523 17/220/523
f 487/216/524 339/215/524 187/220/524
f 501/217/525 447/247/525 336/245/525
f 474/245/526 284/213/526 202/212/526
f 129/245/527 479/212/527 482/217/527
f 31/218/528 435/219/528 23/211/528
f 378/246/529 355/243/529 492/248/529
f 526/243/530 192/245/530 263/248/530
f 204/249/531 186/211/531 258/219/531
f 464/250/532 200/249/532 497/221/532
f 149/219/533 82/221/533 336/249/533
f 28/248/534 9/245/534 535/247/534
f 240/251/535 486/250/535 508/220/535
f 294/250/536 276/221/536 143/220/536
f 421/251/537 255/220/537 542/244/537
f 219/246/538 214/252/538 257/244/538
f 161/252/539 314/251/539 277/244/539
f 336/253/540 249/254/540 252/255/540
f 429/256/541 393/253/541 528/255/541
f 404/257/542 428/256/542 461/255/542
f 299/258/543 222/259/543 31/260/543
f 520/261/544 216/256/544 543/257/544
f 477/260/545 219/259/545 99/262/545
f 215/263/546 370/264/546 123/265/546
f 341/265/547 338/266/547 368/263/547
f 135/267/548 322/265/548 524/264/548
f 236/268/549 86/267/549 34/269/549
f 267/267/550 488/264/550 311/269/550
f 510/270/551 5/271/551 191/272/551
f 16/259/552 479/261/552 434/257/552
f 456/253/553 429/273/553 288/254/553
f 193/259/554 101/257/554 275/274/554
f 10/273/555 99/275/555 432/276/555
f 306/276/556 302/275/556 398/277/556
f 394/278/557 516/268/557 378/269/557
f 202/270/558 345/260/558 346/271/558
f 363/279/559 270/270/559 129/272/559
f 1/270/560 463/258/560 337/260/560
f 345/280/561 202/268/561 37/281/561
f 527/268/562 96/278/562 394/281/562
f 330/266/563 85/279/563 349/263/563
f 539/282/564 475/283/564 447/262/564
f 469/282/565 490/262/565 471/274/565
f 182/284/566 478/285/566 401/286/566
f 75/283/567 452/285/567 366/284/567
f 300/286/568 415/287/568 283/284/568
f 147/274/569 97/288/569 90/282/569
f 442/255/570 82/289/570 251/257/570
f 267/278/571 470/269/571 343/290/571
f 309/289/572 348/291/572 32/257/572
f 33/274/573 212/257/573 41/291/573
f 433/291/574 286/288/574 396/274/574
f 511/284/575 206/262/575 349/283/575
f 213/292/576 344/289/576 362/255/576
f 418/293/577 465/292/577 225/255/577
f 263/276/578 302/254/578 526/273/578
f 328/259/579 491/274/579 386/262/579
f 261/276/580 272/293/580 413/254/580
f 273/293/581 47/255/581 13/254/581
f 504/294/582 385/287/582 340/286/582
f 89/286/583 310/295/583 249/294/583
f 407/294/584 64/295/584 442/296/584
f 28/296/585 329/297/585 261/298/585
f 422/296/586 523/298/586 427/294/586
f 354/286/587 540/285/587 52/299/587
f 275/300/588 101/286/588 197/299/588
f 9/299/589 28/285/589 360/301/589
f 420/301/590 378/283/590 154/302/590
f 11/285/591 290/283/591 292/301/591
f 31/295/592 513/286/592 87/300/592
f 329/297/593 208/296/593 272/303/593
f 471/304/594 383/297/594 230/303/594
f 276/303/595 294/296/595 302/305/595
f 254/305/596 49/295/596 147/300/596
f 359/296/597 243/295/597 387/305/597
f 387/283/598 311/282/598 153/302/598
f 38/306/599 322/307/599 440/308/599
f 464/307/600 424/306/600 200/309/600
f 274/309/601 204/306/601 258/310/601
f 408/309/602 211/311/602 160/312/602
f 210/307/603 214/309/603 219/313/603
f 88/291/604 240/289/604 508/314/604
f 436/282/605 299/288/605 31/315/605
f 438/302/606 243/282/606 359/315/606
f 521/315/607 33/288/607 139/316/607
f 484/316/608 287/291/608 325/314/608
f 528/288/609 314/291/609 429/316/609
f 320/317/610 278/297/610 503/304/610
f 442/318/611 336/280/611 82/281/611
f 200/319/612 412/320/612 497/318/612
f 456/318/613 26/320/613 429/280/613
f 252/314/614 501/289/614 336/321/614
f 20/317/615 262/322/615 535/319/615
f 439/317/616 49/319/616 454/318/616
f 249/275/617 325/319/617 287/277/617
f 515/320/618 399/319/618 476/275/618
f 433/319/619 337/322/619 385/277/619
f 360/281/620 28/297/620 261/317/620
f 292/317/621 389/318/621 11/281/621
f 183/289/622 88/292/622 94/321/622
f 448/277/623 100/322/623 374/323/623
f 380/324/624 425/277/624 247/323/624
f 480/323/625 405/322/625 413/325/625
f 142/325/626 385/317/626 205/304/626
f 415/322/627 426/317/627 283/325/627
f 38/276/628 440/277/628 462/324/628
f 148/292/629 544/293/629 347/326/629
f 72/321/630 304/292/630 376/326/630
f 479/326/631 456/293/631 288/327/631
f 197/327/632 305/276/632 491/324/632
f 486/293/633 299/276/633 531/327/633
f 463/328/634 3/329/634 247/139/634
f 357/328/635 344/139/635 364/138/635
f 203/139/636 132/329/636 228/190/636
f 230/329/637 416/330/637 317/192/637
f 266/330/638 293/194/638 449/192/638
f 435/328/639 124/138/639 305/147/639
f 512/331/640 417/332/640 271/333/640
f 205/334/641 425/331/641 142/333/641
f 96/333/642 355/332/642 516/335/642
f 421/336/643 496/337/643 184/338/643
f 95/332/644 139/339/644 529/335/644
f 245/340/645 524/184/645 151/195/645
f 464/341/646 350/162/646 424/167/646
f 373/169/647 260/162/647 218/341/647
f 529/173/648 422/341/648 533/167/648
f 478/342/649 182/343/649 444/181/649
f 272/184/650 366/344/650 367/182/650
f 377/340/651 195/165/651 526/169/651
f 415/344/652 414/173/652 69/172/652
f 161/172/653 193/182/653 532/344/653
f 39/340/654 186/195/654 204/165/654
f 192/341/655 420/340/655 483/169/655
f 205/168/656 463/172/656 247/173/656
f 72/345/657 380/331/657 304/334/657
f 1/346/658 26/179/658 199/347/658
f 544/346/659 148/348/659 427/179/659
f 458/177/660 313/185/660 535/176/660
f 339/338/661 84/349/661 187/336/661
f 250/187/662 183/176/662 376/185/662
f 339/348/663 186/174/663 146/179/663
f 96/186/664 516/350/664 394/351/664
f 123/347/665 370/179/665 320/180/665
f 211/350/666 408/186/666 322/348/666
f 448/348/667 38/175/667 462/174/667
f 348/175/668 85/348/668 32/186/668
f 129/336/669 185/352/669 363/337/669
f 340/353/670 385/333/670 142/354/670
f 25/334/671 38/333/671 448/353/671
f 305/333/672 277/335/672 23/354/672
f 444/331/673 326/345/673 246/349/673
f 411/349/674 295/355/674 303/331/674
f 151/352/675 233/334/675 500/353/675
f 185/353/676 129/354/676 482/337/676
f 265/352/677 86/353/677 244/337/677
f 219/345/678 29/336/678 210/349/678
f 93/345/679 199/334/679 8/352/679
f 387/336/680 267/345/680 311/352/680
f 31/356/681 222/272/681 513/287/681
f 36/272/682 217/271/682 342/287/682
f 441/294/683 524/356/683 245/287/683
f 220/290/684 389/298/684 256/278/684
f 519/290/685 504/356/685 55/294/685
f 489/271/686 312/284/686 40/287/686
f 412/350/687 422/346/687 427/357/687
f 201/192/688 327/190/688 395/329/688
f 305/350/689 124/348/689 491/346/689
f 293/284/690 323/260/690 333/262/690
f 101/271/691 305/260/691 197/284/691
f 306/298/692 539/290/692 447/294/692
f 1/358/693 93/359/693 418/356/693
f 245/358/694 151/356/694 462/290/694
f 389/264/695 520/359/695 543/358/695
f 370/269/696 203/358/696 278/290/696
f 20/358/697 348/269/697 308/264/697
f 409/359/698 40/264/698 190/263/698
f 430/281/699 5/278/699 510/297/699
f 325/278/700 517/298/700 451/297/700
f 352/359/701 247/272/701 365/356/701
f 531/359/702 152/263/702 393/279/702
f 297/272/703 83/359/703 270/279/703
f 331/189/704 253/190/704 473/192/704
f 367/347/705 368/360/705 338/346/705
f 545/361/706 457/351/706 285/350/706
f 5/362/707 188/360/707 191/347/707
f 490/360/708 545/357/708 471/346/708
f 448/357/709 67/361/709 100/350/709
f 317/363/710 416/362/710 514/347/710
f 21/180/711 347/178/711 319/187/711
f 348/181/712 536/343/712 85/185/712
f 522/342/713 87/186/713 514/351/713
f 334/180/714 522/363/714 514/347/714
f 400/342/715 24/181/715 538/186/715
f 84/343/716 284/187/716 478/185/716
f 313/332/717 372/331/717 382/364/717
f 480/364/718 512/331/718 271/355/718
f 271/339/719 156/332/719 480/364/719
f 512/365/720 341/366/720 375/337/720
f 146/366/721 37/338/721 339/337/721
f 307/339/722 406/367/722 445/335/722
f 504/365/723 429/337/723 26/354/723
f 184/343/724 496/180/724 517/187/724
f 55/368/725 291/365/725 265/354/725
f 20/367/726 535/368/726 9/335/726
f 272/368/727 261/354/727 329/335/727
f 430/369/728 510/370/728 459/371/728
f 228/372/729 243/369/729 438/371/729
f 405/373/730 156/372/730 350/371/730
f 27/374/731 194/375/731 13/376/731
f 389/375/732 220/377/732 493/378/732
f 460/370/733 374/369/733 100/379/733
f 472/379/734 187/369/734 397/380/734
f 363/380/735 297/381/735 270/379/735
f 318/382/736 426/383/736 415/384/736
f 195/379/737 496/384/737 354/370/737
f 143/384/738 276/379/738 501/382/738
f 479/375/739 16/378/739 482/376/739
f 499/385/740 331/386/740 396/376/740
f 210/374/741 36/376/741 342/386/741
f 291/387/742 253/388/742 34/389/742
f 255/390/743 421/391/743 145/392/743
f 19/393/744 4/389/744 370/388/744
f 393/386/745 429/394/745 504/374/745
f 457/378/746 545/395/746 490/385/746
f 17/376/747 191/378/747 432/385/747
f 332/383/748 8/382/748 83/394/748
f 417/385/749 313/383/749 382/386/749
f 198/394/750 442/386/750 97/383/750
f 468/396/751 333/382/751 392/379/751
f 333/392/752 414/391/752 415/397/752
f 483/398/753 263/392/753 192/397/753
f 377/344/754 127/397/754 517/391/754
f 132/390/755 2/374/755 430/399/755
f 390/391/756 209/400/756 512/344/756
f 22/377/757 448/392/757 374/398/757
f 423/401/758 259/402/758 224/403/758
f 495/404/759 338/405/759 413/406/759
f 468/407/760 541/328/760 414/408/760
f 356/408/761 249/409/761 336/410/761
f 541/328/762 69/409/762 414/408/762
f 379/374/763 483/394/763 420/399/763
f 298/410/764 406/396/764 184/381/764
f 277/408/765 193/410/765 161/381/765
f 517/407/766 127/408/766 509/380/766
f 324/381/767 271/396/767 417/379/767
f 55/408/768 1/381/768 291/380/768
f 42/399/769 379/396/769 316/410/769
f 510/399/770 320/400/770 459/391/770
f 183/391/771 279/390/771 376/399/771
f 414/399/772 333/394/772 468/396/772
f 29/400/773 477/399/773 206/410/773
f 404/394/774 461/382/774 275/396/774
f 433/366/775 396/365/775 331/404/775
f 94/411/776 508/412/776 98/330/776
f 465/368/777 498/367/777 225/405/777
f 374/404/778 500/365/778 22/368/778
f 368/405/779 323/404/779 341/368/779
f 326/329/780 59/328/780 518/411/780
f 445/413/781 268/194/781 280/330/781
f 341/145/782 323/144/782 375/413/782
f 388/413/783 450/144/783 389/194/783
f 260/330/784 373/329/784 428/411/784
f 293/330/785 300/412/785 437/413/785
f 426/405/786 318/339/786 69/364/786
f 353/342/787 534/401/787 362/403/787
f 432/351/788 47/414/788 332/401/788
f 438/343/789 153/342/789 446/403/789
f 203/341/790 228/410/790 278/409/790
f 348/340/791 20/341/791 9/409/791
f 280/342/792 307/351/792 445/401/792
f 419/364/793 193/402/793 461/405/793
f 287/405/794 89/367/794 249/339/794
f 40/364/795 409/355/795 489/403/795
f 307/403/796 145/402/796 406/364/796
f 210/355/797 39/349/797 214/403/797
f 420/413/798 192/412/798 453/362/798
f 452/415/799 466/416/799 392/417/799
f 193/418/800 419/419/800 532/415/800
f 449/417/801 208/420/801 266/415/801
f 315/421/802 372/419/802 518/422/802
f 315/418/803 324/415/803 382/420/803
f 315/416/804 518/415/804 59/419/804
f 531/392/805 299/375/805 152/374/805
f 244/374/806 86/390/806 259/392/806
f 254/392/807 335/377/807 49/375/807
f 1/423/808 55/424/808 26/425/808
f 7/423/809 472/426/809 246/424/809
f 207/422/810 475/427/810 346/421/810
f 29/360/811 206/362/811 36/428/811
f 25/357/812 22/360/812 233/428/812
f 253/362/813 337/412/813 473/428/813
f 440/363/814 312/180/814 489/413/814
f 329/362/815 28/363/815 485/413/815
f 135/357/816 524/428/816 211/414/816
f 541/427/817 466/422/817 426/423/817
f 463/406/818 385/421/818 337/427/818
f 203/429/819 370/430/819 185/431/819
f 300/361/820 333/357/820 415/414/820
f 328/351/821 386/361/821 469/414/821
f 338/240/822 495/432/822 367/132/822
f 35/433/823 434/132/823 288/432/823
f 18/388/824 96/387/824 369/434/824
f 440/393/825 544/388/825 312/434/825
f 213/387/826 362/435/826 221/434/826
f 21/436/827 360/433/827 148/432/827
f 398/135/828 302/437/828 263/438/828
f 20/438/829 532/439/829 419/135/829
f 306/387/830 276/438/830 302/437/830
f 410/433/831 355/436/831 156/440/831
f 293/437/832 375/435/832 323/387/832
f 219/135/833 477/439/833 29/441/833
f 263/418/834 401/442/834 398/443/834
f 72/443/835 425/419/835 380/418/835
f 224/426/836 499/443/836 396/442/836
f 49/328/837 280/407/837 268/411/837
f 25/442/838 524/444/838 322/426/838
f 452/443/839 437/426/839 466/423/839
f 366/445/840 452/446/840 392/431/840
f 519/135/841 55/441/841 286/447/841
f 154/445/842 378/431/842 492/430/842
f 19/423/843 215/422/843 144/443/843
f 532/422/844 20/419/844 308/443/844
f 465/448/845 194/449/845 498/450/845
f 144/451/846 17/452/846 157/453/846
f 512/454/847 480/452/847 341/451/847
f 30/455/848 40/436/848 312/432/848
f 182/456/849 483/432/849 42/457/849
f 496/432/850 421/456/850 542/455/850
f 323/450/851 368/454/851 392/451/851
f 225/458/852 274/459/852 258/460/852
f 466/459/853 283/458/853 426/461/853
f 525/459/854 49/461/854 530/462/854
f 219/430/855 384/452/855 99/454/855
f 368/454/856 366/445/856 392/430/856
f 59/432/857 316/240/857 481/457/857
f 330/463/858 206/448/858 477/451/858
f 390/453/859 512/463/859 375/451/859
f 265/448/860 291/434/860 86/449/860
f 294/451/861 526/448/861 302/450/861
f 434/434/862 479/435/862 288/449/862
f 209/393/863 417/434/863 512/448/863
f 353/447/864 357/464/864 158/155/864
f 3/155/865 258/135/865 365/447/865
f 75/240/866 282/155/866 293/464/866
f 529/463/867 201/393/867 190/448/867
f 322/464/868 135/457/868 211/240/868
f 394/465/869 540/417/869 354/466/869
f 468/467/870 392/465/870 466/466/870
f 308/401/871 309/467/871 35/402/871
f 97/419/872 445/421/872 198/416/872
f 468/467/873 466/466/873 541/402/873
f 309/468/874 16/467/874 434/401/874
f 410/417/875 537/465/875 492/469/875
f 357/469/876 353/420/876 344/417/876
f 196/470/877 32/469/877 361/465/877
f 153/414/878 438/468/878 359/401/878
f 510/468/879 123/465/879 320/467/879
f 471/417/880 230/416/880 469/466/880
f 319/427/881 347/471/881 160/472/881
f 31/460/882 23/472/882 436/471/882
f 261/472/883 497/406/883 360/427/883
f 488/406/884 459/472/884 320/404/884
f 317/460/885 514/404/885 328/472/885
f 422/471/886 424/427/886 533/423/886
f 495/406/887 272/405/887 367/416/887
f 222/416/888 486/421/888 513/406/888
f 472/466/889 7/416/889 303/402/889
f 361/423/890 330/425/890 99/471/890
f 154/416/891 537/405/891 316/402/891
f 247/420/892 3/469/892 365/473/892
f 408/474/893 347/475/893 544/412/893
f 461/411/894 262/474/894 20/412/894
f 340/428/895 142/412/895 443/476/895
f 278/414/896 446/428/896 503/468/896
f 525/412/897 280/475/897 49/476/897
f 440/372/898 489/373/898 462/475/898
f 327/369/899 217/372/899 402/474/899
f 20/380/900 419/369/900 461/474/900
f 395/407/901 511/380/901 400/411/901
f 411/474/902 91/372/902 260/475/902
f 145/380/903 421/474/903 150/411/903
f 249/428/904 391/476/904 127/468/904
f 539/371/905 474/477/905 475/478/905
f 322/373/906 38/371/906 25/478/906
f 523/478/907 190/477/907 427/465/907
f 190/473/908 538/418/908 409/420/908
f 536/477/909 21/470/909 349/465/909
f 266/429/910 485/453/910 390/452/910
f 286/475/911 265/373/911 423/478/911
f 261/476/912 464/475/912 497/478/912
f 79/468/913 207/476/913 346/478/913
f 338/452/914 341/430/914 480/429/914
f 151/478/915 62/465/915 67/468/915
f 388/479/916 155/480/916 450/134/916
f 433/481/917 331/479/917 473/132/917
f 438/134/918 446/133/918 278/479/918
f 36/127/919 511/134/919 402/480/919
f 411/133/920 260/132/920 295/479/920
f 517/132/921 496/433/921 195/482/921
f 526/161/922 195/134/922 52/127/922
f 464/440/923 261/483/923 413/433/923
f 499/127/924 259/126/924 236/161/924
f 527/482/925 354/481/925 216/132/925
f 293/482/926 437/433/926 75/483/926
f 101/425/927 193/484/927 277/458/927
f 479/485/928 129/486/928 456/487/928
f 333/485/929 323/488/929 392/486/929
f 34/489/930 86/490/930 291/491/930
f 411/487/931 303/489/931 7/485/931
f 434/490/932 35/492/932 309/491/932
f 196/493/933 12/488/933 482/485/933
f 458/471/934 218/458/934 372/460/934
f 283/458/935 466/471/935 437/425/935
f 197/494/936 491/444/936 506/495/936
f 504/485/937 26/495/937 55/493/937
f 3/444/938 225/493/938 258/495/938
f 458/483/939 262/440/939 373/445/939
f 262/418/940 461/496/940 428/442/940
f 355/217/941 96/211/941 533/442/941
f 403/496/942 494/217/942 79/442/942
f 481/135/943 324/125/943 59/437/943
f 259/211/944 86/497/944 236/442/944
f 511/498/945 36/446/945 206/248/945
f 330/217/946 477/496/946 99/247/946
f 280/499/947 399/496/947 307/418/947
