# Blender 5.1.1
# www.blender.org
o Куб.001
v 0.568619 1.012766 0.839208
v 0.462976 2.458920 0.352116
v 0.629600 1.009665 -0.414546
v 0.630675 2.283460 -0.183255
v 0.053983 0.932593 -0.462496
v 0.004173 2.428650 -0.329517
v 0.739964 1.558752 -0.037894
v 0.641063 0.881162 0.145906
v 0.579479 2.373195 0.115296
v 0.683527 1.654108 0.571229
v 0.093470 0.975171 0.994309
v -0.094109 2.522127 0.385846
v 0.751501 1.558208 0.082841
v 0.047307 0.773397 0.129448
v -0.036114 2.503602 0.093921
v 0.833385 0.527183 -1.359142
v 0.555850 2.226645 -0.426388
v 0.072081 1.048665 -0.697600
v 0.000362 2.301027 -0.609939
v 0.478412 1.379538 -0.929560
v 0.474362 2.135430 -0.712493
v 0.060456 2.086248 3.512425
v 0.080238 1.178550 -0.887947
v 0.001756 2.184332 -0.906449
v 0.577397 1.770731 -0.901908
v 0.038057 1.623659 -1.006536
v 0.059125 2.480863 3.443619
v 0.145382 2.778857 3.125511
v 0.484452 1.401266 1.706213
v 0.469474 2.539861 0.774468
v 0.142974 2.035124 3.315684
v 0.635427 1.794553 0.951145
v 0.094615 1.296820 1.619689
v -0.042596 2.634491 0.855264
v 0.033002 2.180449 3.724483
v 0.009881 2.351849 3.731095
v 0.019326 2.098042 3.637262
v 0.562675 2.701040 1.127598
v 0.510895 0.962182 2.140605
v 0.084284 1.326755 1.797570
v -0.045993 2.792528 1.225804
v 0.094353 2.674106 3.363056
v 0.104972 2.054248 3.431551
v 0.144171 2.870715 2.849792
v 0.579515 2.724826 1.323926
v 0.437970 0.986272 2.221952
v 0.082257 1.353437 1.848182
v -0.044979 2.835326 1.388555
v 0.156515 2.022849 3.195549
v 0.131565 2.920320 2.632032
v 0.140844 2.005916 3.049992
v 0.536608 2.712443 1.592185
v 0.741030 2.233453 1.744032
v 0.714248 1.641556 2.295717
v 0.067665 1.442042 1.934111
v -0.040706 2.855355 1.553618
v 0.130334 2.958709 2.322866
v 0.162229 1.934115 2.621382
v 0.426421 2.806076 1.846552
v 0.616535 2.082179 1.953504
v 0.543018 1.826529 2.063248
v 0.047672 1.584592 2.057009
v -0.049757 2.945446 1.826370
v 0.182455 2.902263 1.843190
v 0.297304 1.697876 2.063312
v 0.241251 2.813112 1.549692
v 0.473812 1.509921 1.980938
v 0.316844 2.894795 2.311875
v 0.432359 2.282209 2.504061
v 0.348406 1.957412 2.546823
v -0.020445 1.908800 2.647676
v -0.052717 2.977305 2.308639
v 0.279411 2.792227 1.349628
v 0.407765 1.486762 1.897805
v 0.271744 2.769506 1.158545
v 0.312349 2.864702 2.613594
v 0.402894 2.384802 2.806812
v 0.321241 2.025084 2.981720
v -0.036581 1.978512 3.050336
v -0.047017 2.935212 2.607342
v 0.394859 1.575364 2.014464
v 0.212736 2.613238 0.784079
v 0.380621 1.479214 1.889116
v 0.340643 2.685673 2.881588
v 0.424216 2.476385 2.932936
v 0.348074 2.050414 3.133165
v -0.034768 1.994478 3.191419
v -0.033651 2.889474 2.821400
v 0.294591 1.621201 -0.938330
v 0.205394 2.170572 -0.861803
v 0.346371 1.300746 -0.878810
v 0.216052 2.628403 3.322938
v 0.311404 2.365540 3.317560
v 0.244528 2.072679 3.380951
v -0.031838 2.033536 3.404179
v -0.024195 2.686798 3.328628
v 0.257041 2.265524 -0.640940
v 0.308760 1.115360 -0.679744
v 0.272507 2.473807 0.053767
v 0.044815 2.343939 3.709784
v 0.099258 2.180327 3.682990
v 0.075161 2.120443 3.624393
v -0.028278 2.092372 3.649761
v 0.039564 2.297668 3.733842
v -0.026413 2.170285 3.724502
v 0.435086 2.548920 2.998009
v -0.033295 2.011342 3.301504
v 0.320121 2.057565 3.257588
v 0.347232 0.814854 0.068579
v -0.027070 2.800492 3.093433
v 0.372381 2.683839 2.971097
v 0.177635 2.511220 0.325958
v -0.025532 2.484081 3.442820
v 0.332950 0.984832 0.908570
v 0.318976 2.372251 -0.389840
v 0.382631 0.961648 -0.470706
v 0.156402 2.099893 3.466252
v -0.030555 2.068749 3.476651
v 0.182824 2.273226 3.500544
v 0.149366 2.440122 3.433554
v 0.041033 2.089874 3.570068
v 0.042778 2.387235 3.612527
v 0.110810 2.103667 3.555460
v 0.134136 2.227442 3.590978
v -0.024949 2.391808 3.599693
v -0.029475 2.079328 3.559463
v 0.109479 2.365030 3.586947
v 0.605120 2.404089 0.908868
v 0.728706 1.803725 1.040313
v 0.638417 1.501817 1.667755
v 0.671769 2.561761 1.133887
v 0.832273 1.867515 1.601290
v 0.878401 1.579668 2.052459
v 0.641379 2.618113 1.318205
v 0.862687 2.025515 1.665269
v 0.940346 1.624710 2.215692
v 0.658723 2.495887 1.492747
v 0.832854 2.205035 1.721823
v 0.915480 1.690074 2.313252
v 0.416281 1.188405 2.081098
v 0.491311 1.179254 1.979919
v 0.849098 1.246916 2.413566
v 0.719422 1.257522 2.494045
v 0.860015 1.196060 2.294273
v 0.457172 1.205385 2.304091
v 0.814442 1.171825 2.172973
v 0.625839 1.168231 1.926447
v 0.502489 1.217891 2.414909
v 0.573431 1.243905 2.455466
v 0.822303 1.019382 2.428825
v 0.693630 1.051770 2.508084
v 0.450427 0.509679 2.213492
v 0.843540 0.981021 2.333940
v 0.455044 1.013974 2.354646
v 0.357224 0.540114 2.297358
v 0.803198 0.956647 2.243197
v 0.643586 0.943843 2.108456
v 0.490050 1.044514 2.460937
v 0.552893 1.063558 2.513890
v 0.402187 0.791864 2.229886
v 0.485701 0.763546 2.152385
v 0.808113 0.807814 2.404608
v 0.665582 0.844225 2.483297
v 0.802234 0.776579 2.324562
v 0.419506 0.818696 2.349678
v 0.765665 0.753609 2.242257
v 0.632458 0.739033 2.117053
v 0.453091 0.846605 2.446129
v 0.514673 0.862305 2.493744
v 0.826617 0.530836 2.477813
v 0.641602 0.572582 2.569383
v 0.642744 0.541686 2.443945
v 0.798134 0.512782 2.396544
v 0.374810 0.566780 2.425791
v 0.601791 0.520663 2.346468
v 0.760803 0.492808 2.307959
v 0.612991 0.481544 2.174613
v 0.411972 0.590292 2.528394
v 0.449161 0.601380 2.588365
v 0.378271 0.671994 2.263873
v 0.432191 0.725628 2.487419
v 0.395576 0.699464 2.388027
v 0.767378 0.628721 2.274100
v 0.804143 0.651313 2.360022
v 0.819677 0.731464 2.428909
v 0.664901 0.767792 2.514842
v 0.625224 0.615086 2.145193
v 0.468175 0.641877 2.182894
v 0.499998 0.790702 2.524173
v 0.689941 0.706664 2.665071
v 0.679198 0.594280 2.698282
v 0.835331 0.557638 2.613985
v 0.515655 0.617403 2.709399
v 0.840625 0.671738 2.582857
v 0.531783 0.729189 2.674903
v 0.784786 2.134032 -0.202590
v 0.816438 1.570241 -0.153637
v 0.787615 1.067215 -0.477442
v 0.770190 2.117865 -0.444796
v 0.873451 1.718265 -0.621737
v 0.828114 1.209591 -0.695355
v 0.753111 2.061158 -0.675805
v 0.846547 1.783964 -0.834134
v 0.752468 1.378509 -0.911454
v 0.614961 0.390548 -1.541887
v 0.530314 1.114832 -1.111243
v 0.658465 0.846305 -0.569779
v 0.459813 0.857415 -0.630707
v 0.392950 0.973290 -0.859829
v 0.419576 1.089293 -1.068428
v 0.816011 0.989648 -0.859112
v 0.754158 1.099034 -1.083129
v 0.784737 0.883558 -0.639112
v 0.547416 0.948995 -1.149154
v 0.662519 0.470577 -0.925627
v 0.481599 0.523940 -0.954836
v 0.421456 0.749790 -1.027518
v 0.446407 0.916626 -1.124660
v 0.807005 0.746225 -1.021166
v 0.751316 0.925434 -1.128906
v 0.777779 0.537504 -0.947572
v 0.551614 0.597716 -1.654738
v 0.683690 0.206315 -1.422777
v 0.427302 0.238104 -1.459289
v 0.409784 0.405608 -1.558658
v 0.438884 0.564666 -1.639550
v 0.838721 0.408437 -1.552496
v 0.778238 0.575097 -1.643085
v 0.848502 0.255657 -1.457517
v 0.841086 0.375893 -1.269669
v 0.404420 0.525158 -1.365845
v 0.433536 0.682564 -1.447567
v 0.419871 0.359724 -1.270844
v 0.676189 0.325621 -1.239946
v 0.546275 0.715718 -1.462241
v 0.772906 0.692986 -1.450368
v 0.802215 0.210966 -1.292084
v 0.808806 0.139609 -1.378903
v 0.680183 0.091057 -1.345897
v 0.479277 0.123624 -1.382568
v 0.472699 0.193598 -1.296469
v 0.673579 0.164772 -1.257426
v 0.796927 0.646267 -1.175406
v 0.437467 0.644925 -1.179294
v 0.661432 0.439574 -1.071634
v 0.769075 0.489394 -1.098074
v 0.461438 0.793089 -1.245464
v 0.492915 0.477484 -1.100402
v 0.555820 0.822991 -1.258693
v 0.745809 0.801713 -1.248218
v 0.002281 2.064842 -1.010003
v 0.013729 1.799825 -1.095534
v 0.109007 1.801535 -1.050502
v 0.078772 2.050117 -0.985967
v 0.149469 1.766091 -0.994120
v 0.090764 2.132630 -0.928661
v 0.016279 1.760255 -1.050374
v 0.002005 2.150597 -0.957965
v 0.318934 2.780277 2.759591
v 0.430311 2.387989 2.926541
v 0.318311 2.719049 3.094889
v 0.440216 2.435912 3.124322
v 0.400330 2.735746 2.902579
v 0.478671 2.726011 2.923682
v 0.441466 2.748147 2.915150
v 0.506410 2.688488 2.928242
v 0.505420 2.597373 2.933280
v 0.519163 2.644135 2.931879
v 0.484019 2.704212 2.971267
v 0.425005 2.716058 2.970335
v 0.455663 2.721006 2.970358
v 0.496578 2.626849 2.980468
v 0.496816 2.688420 2.971990
v 0.506892 2.658074 2.975065
v 0.342556 2.693058 2.969677
v 0.429779 2.504256 3.005050
v 0.460308 2.745239 2.966572
v 0.499595 2.722054 2.968384
v 0.416738 2.738264 2.966946
v 0.517775 2.699716 2.970088
v 0.531623 2.658064 2.974893
v 0.517649 2.615788 2.982046
v 0.353341 2.669211 2.974360
v 0.419808 2.525970 3.000931
v 0.382455 2.663741 2.963803
v 0.427756 2.566388 2.983146
v 0.442552 2.690555 2.963253
v 0.463022 2.678434 2.963894
v 0.420439 2.686986 2.963232
v 0.472263 2.667038 2.964404
v 0.479546 2.645141 2.966607
v 0.472129 2.622604 2.970479
v 0.368778 2.653193 2.966096
v 0.416748 2.549820 2.985236
v 0.034525 2.350730 3.696280
v 0.030855 2.273262 3.738273
v 0.075010 2.342312 3.668776
v 0.070100 2.264938 3.711690
v -0.024851 2.275273 3.741673
v -0.024333 2.350538 3.701055
v 0.006271 2.305429 3.754454
v -0.023995 2.350178 3.731154
v -0.024315 2.305392 3.754315
v -0.432686 0.947092 0.816788
v -0.592945 2.317221 0.402535
v -0.523783 0.988591 -0.513738
v -0.610512 2.260781 -0.289997
v -0.704427 1.511930 -0.138207
v -0.520806 0.834992 0.077718
v -0.637796 2.321714 0.042617
v -0.612943 1.524968 0.589946
v -0.721782 1.494849 -0.000088
v -0.545720 0.501984 -1.477746
v -0.500597 2.209219 -0.508635
v -0.300451 1.365310 -0.996530
v -0.398167 2.124614 -0.764032
v -0.120242 2.088601 3.514481
v -0.430986 1.754126 -0.980286
v -0.110203 2.483068 3.445546
v -0.198731 2.781946 3.129048
v -0.322437 1.333460 1.721761
v -0.541293 2.444533 0.803075
v -0.208518 2.039701 3.319683
v -0.568145 1.688704 0.976026
v -0.085529 2.181992 3.725832
v -0.057809 2.352731 3.731866
v -0.075990 2.099283 3.638346
v -0.635296 2.603747 1.151138
v -0.264218 0.899232 2.155836
v -0.142212 2.677186 3.365748
v -0.167405 2.057794 3.434649
v -0.209789 2.870165 2.852423
v -0.648078 2.625128 1.348049
v -0.193015 0.935027 2.234351
v -0.225103 2.027818 3.199891
v -0.222243 2.909823 2.631954
v -0.213194 2.010526 3.054020
v -0.592278 2.623083 1.608580
v -0.711697 2.115471 1.772579
v -0.568281 1.537397 2.320919
v -0.232759 2.942659 2.321181
v -0.201015 1.932249 2.625574
v -0.501474 2.743149 1.841486
v -0.571465 1.995795 1.973778
v -0.460888 1.755427 2.080920
v -0.273410 2.872072 1.838397
v -0.209090 1.664573 2.072286
v -0.314410 2.771185 1.552630
v -0.324249 1.445670 1.996571
v -0.412182 2.863179 2.308737
v -0.469771 2.253418 2.508307
v -0.380836 1.948978 2.554338
v -0.360738 2.740705 1.361042
v -0.256610 1.432806 1.910861
v -0.358236 2.718343 1.170924
v -0.398587 2.844799 2.613731
v -0.464194 2.385702 2.814483
v -0.390104 2.032242 2.989456
v -0.253621 1.522698 2.027207
v -0.296744 2.565719 0.798973
v -0.227960 1.429558 1.901258
v -0.404185 2.686131 2.887562
v -0.486963 2.481611 2.941506
v -0.417114 2.060244 3.141837
v -0.166905 1.614965 -0.967950
v -0.191564 2.169863 -0.865945
v -0.179222 1.291378 -0.922932
v -0.266158 2.634471 3.328365
v -0.368202 2.374389 3.325293
v -0.307549 2.079868 3.387232
v -0.234932 2.263241 -0.652512
v -0.166434 1.106677 -0.720611
v -0.333844 2.448851 0.016842
v -0.093412 2.345739 3.711357
v -0.152692 2.183609 3.685856
v -0.131501 2.123133 3.626745
v -0.088822 2.299340 3.735303
v -0.495723 2.554348 3.006785
v -0.386296 2.066764 3.265625
v -0.235130 0.793955 0.030468
v -0.433087 2.686657 2.978169
v -0.346879 2.428468 0.363527
v -0.156021 0.945878 0.904728
v -0.279344 2.363284 -0.432288
v -0.269276 0.949736 -0.526770
v -0.216826 2.104753 3.470499
v -0.237940 2.278705 3.505332
v -0.201680 2.444693 3.437548
v -0.099426 2.091703 3.571666
v -0.092462 2.388996 3.614065
v -0.169134 2.107313 3.558646
v -0.188416 2.231642 3.594648
v -0.160283 2.368542 3.590016
v -0.637876 2.293402 0.941035
v -0.653977 1.683694 1.071438
v -0.495470 1.409729 1.690036
v -0.720167 2.448716 1.161239
v -0.748220 1.739157 1.632347
v -0.729669 1.449069 2.084059
v -0.692094 2.509816 1.344408
v -0.801201 1.890384 1.697965
v -0.791650 1.484048 2.249726
v -0.682900 2.387624 1.517376
v -0.798532 2.072544 1.753880
v -0.773864 1.552876 2.346448
v -0.209729 1.137564 2.093400
v -0.286191 1.116110 1.995197
v -0.633006 1.126548 2.442690
v -0.503698 1.158188 2.518079
v -0.640224 1.074219 2.323753
v -0.244088 1.148433 2.317871
v -0.596108 1.057269 2.200691
v -0.419162 1.083362 1.946982
v -0.286469 1.153817 2.430412
v -0.359040 1.168175 2.473790
v -0.569285 0.906366 2.456170
v -0.444527 0.959335 2.530449
v -0.128754 0.462642 2.224873
v -0.587743 0.864780 2.362066
v -0.209142 0.960032 2.367698
v -0.038479 0.507978 2.305134
v -0.547571 0.846946 2.269740
v -0.393365 0.859627 2.128833
v -0.244440 0.984863 2.475370
v -0.307417 0.993688 2.530796
v -0.126060 0.748963 2.240266
v -0.206873 0.707300 2.165995
v -0.522110 0.699781 2.430747
v -0.384358 0.758955 2.503929
v -0.514399 0.669650 2.350435
v -0.142792 0.773030 2.360727
v -0.477844 0.652619 2.266693
v -0.349020 0.659323 2.136339
v -0.176648 0.795462 2.458504
v -0.238050 0.801173 2.508536
v -0.492824 0.423679 2.503741
v -0.313535 0.495012 2.588152
v -0.314573 0.463938 2.462756
v -0.464996 0.410198 2.421365
v -0.055110 0.531864 2.434239
v -0.274601 0.449487 2.363690
v -0.428418 0.396226 2.331328
v -0.286043 0.408530 2.192279
v -0.091545 0.549399 2.538289
v -0.127666 0.554533 2.599700
v -0.081814 0.634628 2.272914
v -0.134913 0.679571 2.498563
v -0.098464 0.659341 2.397736
v -0.458146 0.529191 2.298182
v -0.494692 0.545829 2.385545
v -0.520251 0.622643 2.455239
v -0.370127 0.683733 2.535181
v -0.320795 0.538256 2.163782
v -0.168773 0.590147 2.195410
v -0.210842 0.732972 2.538141
v -0.379096 0.619843 2.686078
v -0.349078 0.510769 2.718488
v -0.500426 0.449155 2.640233
v -0.191099 0.560004 2.723286
v -0.525266 0.560808 2.609698
v -0.226381 0.667615 2.689801
v -0.753539 2.105923 -0.334886
v -0.770945 1.537854 -0.286449
v -0.670726 1.040569 -0.602860
v -0.697241 2.091052 -0.570996
v -0.754226 1.688524 -0.761718
v -0.678573 1.182061 -0.824931
v -0.647216 2.037394 -0.787880
v -0.696262 1.756267 -0.964556
v -0.573328 1.354284 -1.025473
v -0.294501 0.373931 -1.620101
v -0.310921 1.099461 -1.183589
v -0.519786 0.824776 -0.671109
v -0.314185 0.843273 -0.697272
v -0.213443 0.962210 -0.911979
v -0.208263 1.077821 -1.122422
v -0.630730 0.963213 -0.983532
v -0.535556 1.075469 -1.194045
v -0.633637 0.857642 -0.761093
v -0.315275 0.933233 -1.223346
v -0.449416 0.450260 -1.021254
v -0.268221 0.510239 -1.019320
v -0.204785 0.738348 -1.081375
v -0.218823 0.904471 -1.181870
v -0.585375 0.720784 -1.140912
v -0.518649 0.902229 -1.238124
v -0.561589 0.513032 -1.062758
v -0.220377 0.583610 -1.721129
v -0.375824 0.186956 -1.513896
v -0.118291 0.228135 -1.506210
v -0.090155 0.396474 -1.601653
v -0.110770 0.554623 -1.686820
v -0.513666 0.383727 -1.668802
v -0.444693 0.552753 -1.748258
v -0.533968 0.230397 -1.576410
v -0.563088 0.350237 -1.390428
v -0.122119 0.515537 -1.411127
v -0.142548 0.672039 -1.497110
v -0.147548 0.349356 -1.319643
v -0.403971 0.305884 -1.332840
v -0.252255 0.701127 -1.530915
v -0.476611 0.670156 -1.557827
v -0.515007 0.186898 -1.405366
v -0.504091 0.115620 -1.491812
v -0.381314 0.071662 -1.437186
v -0.178412 0.111607 -1.439129
v -0.189167 0.181505 -1.353390
v -0.392585 0.145292 -1.349116
v -0.545500 0.621738 -1.290855
v -0.190843 0.633445 -1.233329
v -0.422301 0.419772 -1.164835
v -0.525586 0.465739 -1.209415
v -0.208525 0.780848 -1.303082
v -0.252833 0.463858 -1.164537
v -0.300285 0.807348 -1.332318
v -0.488376 0.779162 -1.354359
v -0.072169 1.800922 -1.053720
v -0.074408 2.050042 -0.986658
v -0.093352 1.764796 -1.000605
v -0.086998 2.132543 -0.929462
v -0.388621 2.775344 2.763813
v -0.494372 2.394398 2.935539
v -0.373703 2.724786 3.101873
v -0.499574 2.445096 3.134188
v -0.462643 2.737646 2.909842
v -0.540015 2.729485 2.932577
v -0.503106 2.750904 2.923268
v -0.567707 2.692636 2.937756
v -0.567106 2.602242 2.943004
v -0.580588 2.648756 2.941739
v -0.544450 2.708067 2.980353
v -0.485636 2.719024 2.978257
v -0.516137 2.724393 2.978871
v -0.557167 2.631464 2.989972
v -0.557272 2.692534 2.981349
v -0.567416 2.662524 2.984679
v -0.402890 2.696189 2.976373
v -0.490695 2.510423 3.013947
v -0.520709 2.748634 2.975152
v -0.559938 2.726052 2.977746
v -0.477313 2.741149 2.974713
v -0.578166 2.704023 2.979823
v -0.592126 2.662773 2.984964
v -0.578277 2.620656 2.991950
v -0.414160 2.671772 2.981064
v -0.480550 2.531841 3.009589
v -0.443465 2.666563 2.971035
v -0.488595 2.571287 2.991665
v -0.503366 2.693838 2.971542
v -0.523784 2.682108 2.972616
v -0.481354 2.689979 2.971094
v -0.533023 2.670961 2.973337
v -0.540325 2.649401 2.975745
v -0.532911 2.627113 2.979574
v -0.429757 2.656040 2.973123
v -0.477633 2.555018 2.993664
v -0.083258 2.352264 3.697620
v -0.080653 2.274714 3.739541
v -0.124564 2.344911 3.671047
v -0.120695 2.267422 3.713861
v -0.054878 2.306226 3.755149
v 0.263853 2.406738 3.336205
v 0.279673 2.475017 3.322296
v 0.242665 2.422208 3.375529
v 0.204804 2.385163 3.390316
v 0.218413 2.415078 3.346221
v 0.264685 2.470611 3.304183
v 0.230401 2.495642 3.367812
v 0.184129 2.440109 3.409850
v 0.169141 2.435702 3.391737
v 0.206149 2.488512 3.338504
v 0.244010 2.525557 3.323718
v 0.184961 2.503982 3.377829
v 0.258324 2.407294 3.355664
v 0.280077 2.438335 3.324375
v 0.267623 2.447428 3.347490
v 0.280566 2.475878 3.305554
v 0.271267 2.435744 3.313729
v 0.236070 2.385520 3.364356
v 0.223616 2.394613 3.387470
v 0.244070 2.403103 3.338438
v 0.209362 2.390422 3.370244
v 0.244559 2.440647 3.319616
v 0.268414 2.508175 3.317035
v 0.259604 2.505585 3.306389
v 0.238662 2.459551 3.374243
v 0.260415 2.490592 3.342953
v 0.189210 2.405135 3.407644
v 0.211464 2.426909 3.398953
v 0.188399 2.420128 3.371079
v 0.180400 2.402544 3.396998
v 0.237350 2.483810 3.315080
v 0.210152 2.451169 3.339790
v 0.239452 2.520298 3.343789
v 0.204255 2.470073 3.394417
v 0.168248 2.434841 3.408479
v 0.181191 2.463292 3.366544
v 0.225198 2.516107 3.326563
v 0.204744 2.507616 3.375595
v 0.212744 2.525200 3.349677
v 0.177547 2.474975 3.400304
v 0.168737 2.472385 3.389658
v 0.190489 2.503426 3.358368
v -0.319182 2.414330 3.342838
v -0.333532 2.483002 3.329273
v -0.296710 2.429231 3.381666
v -0.259499 2.391209 3.395599
v -0.273325 2.421481 3.351816
v -0.319079 2.478212 3.310825
v -0.282717 2.502323 3.373650
v -0.236962 2.445592 3.414641
v -0.222510 2.440802 3.396194
v -0.259332 2.494573 3.343801
v -0.296542 2.532595 3.329868
v -0.236859 2.509474 3.382628
v -0.313200 2.414737 3.362167
v -0.334843 2.446342 3.331372
v -0.321634 2.455101 3.354194
v -0.334783 2.483891 3.312555
v -0.326348 2.443526 3.320529
v -0.291328 2.392387 3.370357
v -0.278119 2.401146 3.393179
v -0.299455 2.410181 3.344623
v -0.264374 2.396590 3.375634
v -0.299394 2.447730 3.325805
v -0.321536 2.515857 3.323748
v -0.313041 2.513041 3.312905
v -0.291766 2.466458 3.380278
v -0.313410 2.498064 3.349483
v -0.243001 2.410763 3.412562
v -0.264872 2.433112 3.404372
v -0.242632 2.425741 3.375984
v -0.234506 2.407947 3.401718
v -0.291169 2.490693 3.321094
v -0.264275 2.457346 3.345188
v -0.291667 2.527214 3.349832
v -0.256647 2.476074 3.399661
v -0.221259 2.439913 3.412911
v -0.234407 2.468704 3.371272
v -0.277922 2.522658 3.332287
v -0.256587 2.513623 3.380844
v -0.264713 2.531417 3.355110
v -0.229693 2.480278 3.404938
v -0.221198 2.477463 3.394095
v -0.242841 2.509068 3.363299
vn -0.8591 -0.5103 -0.0381
vn 0.4380 0.8103 -0.3893
vn 0.9849 -0.1610 -0.0638
vn 0.9816 0.1833 0.0539
vn 0.9512 0.2512 0.1791
vn 0.9810 -0.1320 0.1420
vn 0.9832 -0.1054 0.1490
vn 0.1866 -0.8850 0.4266
vn 0.2552 -0.9392 -0.2296
vn 0.1688 -0.9653 0.1994
vn 0.1047 0.9765 -0.1883
vn 0.0554 0.9950 -0.0837
vn 0.3682 0.8373 -0.4042
vn 0.1535 0.0924 -0.9838
vn 0.1507 -0.8364 -0.5270
vn 0.5762 0.1831 0.7965
vn 0.2427 0.3177 -0.9166
vn -0.0103 -0.0441 -0.9990
vn 0.2156 0.5153 -0.8294
vn 0.3147 -0.7555 -0.5747
vn 0.8179 0.5682 -0.0905
vn 0.9275 -0.2301 -0.2945
vn 0.0034 0.9742 -0.2255
vn 0.9711 0.2382 -0.0154
vn 0.4389 -0.8312 -0.3414
vn 0.0707 0.9805 -0.1833
vn -0.0223 0.9217 -0.3872
vn -0.8204 -0.4201 -0.3877
vn 0.6942 -0.0154 -0.7196
vn 0.1319 0.9864 -0.0983
vn 0.7690 0.5655 0.2981
vn 0.7985 -0.3374 -0.4986
vn 0.0805 0.9083 -0.4104
vn 0.0087 0.6146 0.7888
vn -0.4955 -0.1155 0.8609
vn 0.1673 -0.8810 0.4426
vn 0.0797 -0.9630 -0.2575
vn 0.1482 -0.9668 0.2081
vn 0.1403 0.3270 0.9345
vn 0.7672 0.4478 -0.4591
vn 0.3611 0.9134 -0.1879
vn 0.9126 -0.1474 0.3814
vn 0.3649 -0.8359 0.4101
vn 0.2649 0.9566 -0.1214
vn 0.1642 0.9459 -0.2798
vn 0.1095 0.9162 -0.3854
vn 0.8119 0.3644 0.4561
vn 0.4953 -0.5653 0.6596
vn 0.8462 0.2245 -0.4834
vn 0.1882 -0.2006 -0.9614
vn 0.9801 0.1960 0.0316
vn 0.9668 0.1282 -0.2210
vn 0.1526 0.9849 -0.0817
vn 0.3375 -0.8707 0.3577
vn 0.9447 0.2606 0.1991
vn 0.2269 0.9514 -0.2084
vn 0.2103 0.9690 -0.1296
vn 0.9777 0.1999 -0.0640
vn 0.1971 0.8828 -0.4264
vn 0.0606 0.9754 0.2117
vn 0.1773 -0.9699 0.1666
vn 0.9730 -0.1972 0.1202
vn 0.2708 0.9622 0.0294
vn 0.0775 0.9885 0.1300
vn 0.0110 0.9073 0.4204
vn -0.1381 0.7111 -0.6894
vn 0.8437 -0.0795 0.5309
vn 0.2025 -0.9513 0.2323
vn 0.0673 -0.4972 0.8650
vn 0.1638 -0.9797 0.1160
vn 0.9392 -0.3060 -0.1557
vn 0.1654 -0.8451 0.5084
vn 0.8704 -0.3832 0.3092
vn 0.3242 -0.8968 0.3010
vn 0.2902 -0.8388 0.4606
vn 0.3509 0.9154 -0.1972
vn 0.3460 0.9344 -0.0843
vn 0.7688 0.3300 0.5478
vn 0.4382 0.8507 0.2903
vn 0.1552 -0.9727 0.1726
vn 0.1845 -0.7073 0.6824
vn 0.8909 0.1708 0.4209
vn 0.3154 0.9428 0.1074
vn 0.3953 0.7933 0.4631
vn 0.1114 -0.9729 0.2026
vn 0.4295 0.8095 0.4003
vn 0.1477 -0.9836 0.1039
vn 0.5478 0.3389 0.7649
vn 0.1368 -0.9792 0.1497
vn 0.3912 -0.7073 0.5888
vn -0.2945 -0.0013 0.9556
vn 0.0072 0.9218 0.3876
vn 0.1677 -0.9801 0.1063
vn 0.9688 -0.2294 0.0935
vn 0.0403 -0.1544 0.9872
vn 0.0554 0.9484 0.3123
vn 0.6421 0.2940 0.7080
vn 0.1329 -0.9824 0.1313
vn -0.1187 0.4470 0.8866
vn 0.4497 0.8665 0.2167
vn 0.3470 0.3444 0.8723
vn 0.0391 -0.9111 0.4104
vn 0.3268 -0.7771 0.5378
vn 0.7863 -0.1195 0.6061
vn 0.4183 0.7727 0.4775
vn 0.1371 -0.9836 0.1174
vn 0.8559 0.2667 0.4431
vn 0.0001 0.8685 0.4956
vn 0.2124 -0.9667 0.1428
vn 0.8812 -0.2429 0.4057
vn 0.8412 -0.4882 -0.2325
vn 0.9693 0.1859 -0.1606
vn 0.9659 0.1019 -0.2379
vn 0.9225 0.3834 -0.0452
vn 0.9566 -0.1711 -0.2359
vn 0.9789 0.2028 0.0252
vn 0.7872 0.5370 0.3030
vn 0.8788 0.4401 0.1845
vn -0.6859 0.4671 0.5581
vn -0.0381 0.7170 0.6961
vn -0.3031 -0.6002 -0.7402
vn 0.9812 -0.0738 0.1781
vn -0.9871 0.0275 0.1574
vn -0.9384 0.1229 0.3228
vn 0.9280 -0.1472 -0.3423
vn 0.5251 -0.0062 0.8510
vn 0.9679 -0.1172 0.2225
vn -0.6368 0.6195 0.4590
vn -0.0154 -0.6917 -0.7220
vn -0.9860 -0.0262 0.1646
vn 0.9795 -0.1422 0.1426
vn -0.9791 0.1799 0.0945
vn -0.9481 0.1610 0.2743
vn 0.9170 -0.1683 -0.3615
vn 0.4691 -0.1491 0.8705
vn 0.6658 -0.0933 -0.7402
vn -0.6114 0.2760 0.7417
vn -0.1126 0.1963 0.9741
vn -0.7344 -0.4425 -0.5147
vn 0.6997 -0.3478 -0.6241
vn -0.2589 -0.1849 -0.9480
vn 0.9677 -0.0591 -0.2451
vn -0.9788 0.1807 0.0965
vn -0.9316 0.2261 0.2847
vn 0.9235 -0.1345 -0.3593
vn 0.9943 -0.0213 -0.1041
vn -0.2386 -0.0275 -0.9707
vn -0.6366 0.0525 0.7694
vn 0.0434 -0.1161 0.9923
vn -0.6985 0.0727 -0.7119
vn -0.1207 -0.9686 0.2175
vn -0.1015 -0.9650 0.2419
vn -0.1073 -0.9608 0.2558
vn -0.1176 -0.9699 0.2131
vn -0.1173 -0.9634 0.2410
vn -0.1037 -0.9612 0.2554
vn -0.7590 0.3450 0.5522
vn -0.8743 0.3154 0.3690
vn -0.6810 -0.0767 -0.7283
vn 0.6652 -0.2144 -0.7152
vn 0.6765 -0.1867 -0.7124
vn -0.6864 -0.0754 -0.7233
vn 0.1063 0.3746 0.9211
vn -0.6578 0.3665 0.6579
vn 0.5177 0.3260 0.7910
vn 0.9216 -0.0883 -0.3778
vn -0.9295 0.2601 0.2614
vn -0.9712 0.2212 0.0886
vn 0.9875 0.0196 -0.1566
vn -0.2607 -0.1993 -0.9446
vn 0.5032 0.2030 0.8400
vn 0.1015 0.2765 0.9556
vn 0.3680 0.8819 0.2948
vn -0.1208 -0.9725 0.1990
vn 0.1508 0.9251 0.3485
vn -0.1250 -0.9720 0.1988
vn 0.9884 0.1274 0.0827
vn 0.9542 -0.0989 -0.2825
vn 0.9895 -0.1096 0.0943
vn 0.9442 0.3176 -0.0872
vn 0.6146 -0.4919 0.6167
vn 0.5442 0.8090 -0.2219
vn 0.9886 -0.1148 0.0969
vn 0.3403 0.8849 -0.3180
vn -0.9628 -0.2224 0.1534
vn -0.3477 0.2091 -0.9140
vn -0.2773 -0.6702 0.6884
vn 0.9903 -0.1022 0.0945
vn 0.0956 0.5487 -0.8305
vn -0.4838 0.4556 -0.7473
vn -0.9533 -0.1508 -0.2617
vn -0.0998 -0.7749 0.6242
vn -0.3041 0.8082 -0.5043
vn -0.9325 -0.3167 0.1734
vn 0.9984 0.0563 -0.0019
vn -0.9862 0.1270 -0.1058
vn 0.4954 -0.5893 0.6382
vn 0.1310 0.2425 -0.9613
vn 0.9620 0.0994 -0.2543
vn -0.9810 -0.0286 -0.1919
vn -0.0055 -0.5371 -0.8435
vn 0.0459 -0.5189 -0.8536
vn 0.0307 -0.4652 -0.8847
vn -0.0030 -0.4788 -0.8779
vn -0.9960 -0.0863 0.0212
vn 0.9524 -0.2252 0.2056
vn 0.1117 0.8488 -0.5167
vn 0.9526 0.2704 -0.1394
vn 0.9488 0.3146 -0.0294
vn 0.1176 0.8787 -0.4627
vn 0.3835 -0.7193 0.5792
vn -0.9501 -0.0407 0.3094
vn -0.9809 0.1903 0.0411
vn 0.9661 0.0712 0.2483
vn -0.2146 -0.7886 0.5763
vn -0.3155 0.8479 -0.4261
vn -0.2306 -0.7597 0.6079
vn 0.4107 -0.6870 0.5995
vn -0.1701 -0.1544 0.9732
vn 0.0568 -0.5466 -0.8355
vn 0.2585 -0.1498 0.9543
vn -0.0058 -0.5571 -0.8304
vn -0.3349 0.6219 -0.7078
vn -0.2822 -0.9296 0.2371
vn 0.9887 -0.1495 0.0117
vn -0.9837 0.0660 -0.1673
vn -0.9631 -0.2652 0.0464
vn 0.4890 -0.8467 0.2098
vn 0.1333 0.6704 -0.7299
vn 0.9584 0.1918 -0.2114
vn 0.3760 0.2879 -0.8808
vn 0.3096 -0.6974 -0.6463
vn 0.3541 0.4921 -0.7953
vn 0.2446 0.7065 -0.6641
vn 0.3018 -0.1541 -0.9408
vn 0.4868 0.2101 -0.8479
vn 0.9566 0.2726 -0.1032
vn 0.9340 0.3548 0.0423
vn 0.9960 0.0532 -0.0720
vn 0.9010 0.4161 0.1226
vn -0.5813 0.8135 0.0170
vn 0.7650 0.5521 -0.3318
vn 0.8093 -0.5785 0.1024
vn 0.5190 0.8407 -0.1547
vn -0.2325 0.9698 0.0740
vn 0.9106 0.2493 -0.3296
vn 0.9407 -0.3067 -0.1450
vn 0.2447 -0.0705 -0.9670
vn -0.0547 0.1618 0.9853
vn 0.0412 0.1371 0.9897
vn -0.0196 0.1512 0.9883
vn 0.0168 0.1143 0.9933
vn 0.0097 0.1653 0.9862
vn 0.0483 0.1025 0.9936
vn -0.0376 0.1065 0.9936
vn 0.0545 0.1677 0.9843
vn 0.0080 0.1512 0.9885
vn 0.0149 0.1991 0.9799
vn 0.1725 -0.2589 0.9504
vn -0.0215 0.1786 0.9837
vn 0.3034 -0.1881 0.9341
vn -0.4009 0.4906 0.7737
vn -0.4038 0.2832 0.8699
vn -0.1323 -0.1711 0.9763
vn 0.7330 0.4368 0.5215
vn -0.1986 -0.1168 0.9731
vn -0.5020 0.4291 0.7509
vn 0.0384 -0.2428 0.9693
vn 0.3337 0.9194 0.2081
vn 0.5388 -0.0395 0.8415
vn 0.5330 -0.1070 0.8393
vn -0.0132 0.4548 0.8905
vn 0.0250 -0.4119 0.9109
vn -0.0211 0.9996 -0.0196
vn 0.7627 0.2584 0.5928
vn 0.8710 -0.4787 0.1107
vn -0.4145 0.8053 -0.4239
vn -0.9543 -0.2862 -0.0858
vn -0.9891 0.1045 -0.1035
vn -0.9845 0.0773 0.1572
vn -0.9530 -0.2521 0.1682
vn -0.9534 -0.2187 0.2077
vn -0.0681 -0.9067 0.4162
vn -0.1690 -0.9531 -0.2512
vn -0.0860 -0.9818 0.1696
vn -0.1406 0.9709 -0.1939
vn -0.2559 0.9664 -0.0257
vn -0.3948 0.8115 -0.4308
vn 0.0227 0.1043 -0.9943
vn -0.0281 -0.8397 -0.5424
vn -0.7211 0.1633 0.6733
vn -0.1141 0.3240 -0.9392
vn 0.2158 -0.0036 -0.9764
vn -0.0729 0.5217 -0.8500
vn -0.1918 -0.7670 -0.6123
vn -0.9017 0.4285 -0.0567
vn -0.8891 -0.3776 -0.2588
vn -0.2647 0.9368 -0.2287
vn -0.9933 0.0538 0.1019
vn -0.3232 -0.8921 -0.3157
vn -0.2337 0.9560 -0.1775
vn -0.1518 0.9070 -0.3928
vn 0.8655 -0.2844 -0.4124
vn -0.7400 -0.1236 -0.6611
vn -0.2848 0.9539 -0.0947
vn -0.8379 0.4350 0.3297
vn -0.7524 -0.4634 -0.4681
vn -0.0633 0.9065 -0.4174
vn -0.1139 0.5993 0.7924
vn 0.5633 0.0236 0.8259
vn -0.0129 -0.8958 0.4442
vn 0.0113 -0.9643 -0.2646
vn -0.0559 -0.9776 0.2028
vn -0.1546 0.3031 0.9403
vn -0.8527 0.2977 -0.4293
vn -0.3809 0.9008 -0.2087
vn -0.9237 -0.2589 0.2824
vn -0.2762 -0.8676 0.4135
vn -0.3922 0.9185 0.0500
vn -0.2945 0.9093 -0.2941
vn -0.1098 0.9156 -0.3868
vn -0.8577 0.2372 0.4562
vn -0.5798 -0.5849 0.5672
vn -0.9435 0.0784 -0.3218
vn -0.0546 -0.2099 -0.9762
vn -0.9930 0.1179 0.0092
vn -0.9189 0.0938 -0.3831
vn -0.2626 0.9605 -0.0917
vn -0.1861 -0.9181 0.3499
vn -0.9821 0.1265 0.1396
vn -0.4333 0.8731 -0.2236
vn -0.3690 0.9218 -0.1188
vn -0.9820 0.1864 -0.0314
vn -0.3600 0.8253 -0.4352
vn -0.0929 0.9759 0.1973
vn -0.1718 -0.9691 0.1770
vn -0.9734 -0.2212 0.0595
vn -0.4201 0.9067 0.0379
vn -0.1526 0.9804 0.1246
vn 0.0168 0.9082 0.4183
vn -0.0060 0.7210 -0.6929
vn -0.8335 -0.0575 0.5495
vn -0.2219 -0.9458 0.2371
vn 0.0413 -0.4895 0.8710
vn -0.1843 -0.9750 0.1240
vn -0.9425 -0.2948 -0.1576
vn -0.0116 -0.8632 0.5047
vn -0.8728 -0.3605 0.3290
vn -0.3405 -0.8882 0.3085
vn -0.2132 -0.8723 0.4401
vn -0.4878 0.8409 -0.2343
vn -0.4501 0.8854 -0.1161
vn -0.7500 0.3472 0.5630
vn -0.4623 0.8427 0.2761
vn -0.1597 -0.9728 0.1678
vn -0.1873 -0.7025 0.6867
vn -0.8763 0.1939 0.4410
vn -0.3815 0.9198 0.0914
vn -0.3693 0.8024 0.4688
vn -0.1320 -0.9697 0.2053
vn -0.3991 0.8203 0.4098
vn -0.1709 -0.9794 0.1075
vn -0.5213 0.3528 0.7770
vn -0.1588 -0.9754 0.1531
vn -0.3960 -0.6970 0.5978
vn 0.3133 -0.0003 0.9497
vn 0.0256 0.9216 0.3874
vn -0.1905 -0.9754 0.1108
vn -0.9719 -0.2060 0.1138
vn -0.0218 -0.1536 0.9879
vn -0.0444 0.9502 0.3083
vn -0.6180 0.3103 0.7224
vn -0.1554 -0.9786 0.1346
vn 0.1504 0.4435 0.8835
vn -0.4440 0.8698 0.2151
vn -0.3183 0.3531 0.8798
vn -0.0534 -0.9099 0.4114
vn -0.3347 -0.7685 0.5453
vn -0.7752 -0.0992 0.6239
vn -0.3871 0.7832 0.4866
vn -0.1599 -0.9797 0.1208
vn -0.8383 0.2888 0.4624
vn 0.0338 0.8681 0.4952
vn -0.2342 -0.9609 0.1478
vn -0.8777 -0.2200 0.4257
vn -0.7601 -0.6182 -0.2001
vn -0.9922 0.0266 -0.1221
vn -0.9770 -0.0605 -0.2045
vn -0.9736 0.2282 -0.0093
vn -0.9249 -0.3240 -0.1989
vn -0.9970 0.0423 0.0641
vn -0.8483 0.4071 0.3385
vn -0.9286 0.2959 0.2240
vn 0.6240 0.5734 0.5308
vn -0.0509 0.7159 0.6963
vn 0.3668 -0.5458 -0.7533
vn -0.9488 -0.2306 0.2160
vn 0.9752 0.1869 0.1189
vn 0.9182 0.2737 0.2863
vn -0.9047 -0.2961 -0.3062
vn -0.4836 -0.0881 0.8708
vn -0.9268 -0.2711 0.2598
vn 0.5413 0.7187 0.4364
vn 0.0912 -0.6856 -0.7222
vn 0.9826 0.1341 0.1285
vn -0.9374 -0.2979 0.1802
vn 0.9402 0.3358 0.0568
vn 0.9197 0.3127 0.2376
vn -0.8913 -0.3151 -0.3260
vn -0.4046 -0.2200 0.8876
vn -0.6705 -0.2019 -0.7140
vn 0.5873 0.3733 0.7181
vn 0.1174 0.2150 0.9695
vn 0.7755 -0.3199 -0.5443
vn -0.6583 -0.4580 -0.5974
vn 0.2482 -0.1437 -0.9580
vn -0.9543 -0.2152 -0.2073
vn 0.9398 0.3365 0.0588
vn 0.8933 0.3743 0.2488
vn -0.9030 -0.2828 -0.3234
vn -0.9812 -0.1817 -0.0653
vn 0.2019 0.0082 -0.9794
vn 0.6493 0.1569 0.7442
vn 0.0146 -0.1184 0.9929
vn 0.6493 0.1821 -0.7384
vn 0.2838 -0.9357 0.2096
vn 0.2652 -0.9352 0.2347
vn 0.2708 -0.9301 0.2483
vn 0.2807 -0.9376 0.2053
vn 0.2805 -0.9311 0.2331
vn 0.2673 -0.9311 0.2482
vn 0.7143 0.4646 0.5233
vn 0.8257 0.4534 0.3356
vn 0.6555 0.0319 -0.7545
vn -0.6493 -0.3212 -0.6894
vn -0.6648 -0.2957 -0.6860
vn 0.6608 0.0340 -0.7498
vn -0.1293 0.3554 0.9257
vn 0.6153 0.4699 0.6329
vn -0.5323 0.2407 0.8116
vn -0.9094 -0.2370 -0.3419
vn 0.8849 0.4075 0.2257
vn 0.9255 0.3752 0.0513
vn -0.9830 -0.1405 -0.1179
vn 0.2524 -0.1576 -0.9547
vn -0.4962 0.1218 0.8596
vn -0.1074 0.2595 0.9598
vn -0.4936 0.8119 0.3117
vn 0.2838 -0.9396 0.1911
vn -0.2843 0.8898 0.3571
vn 0.2878 -0.9385 0.1906
vn -0.9924 0.0885 -0.0850
vn -0.8883 -0.1342 -0.4392
vn -0.9867 -0.1451 -0.0734
vn -0.9348 0.2694 -0.2315
vn -0.7140 -0.5168 0.4725
vn -0.5342 0.7864 -0.3101
vn -0.9859 -0.1509 -0.0729
vn -0.3315 0.8712 -0.3621
vn 0.9299 -0.1878 0.3162
vn 0.4908 0.2244 -0.8419
vn 0.1799 -0.6618 0.7278
vn -0.9875 -0.1384 -0.0756
vn 0.0277 0.5475 -0.8364
vn 0.5937 0.4749 -0.6496
vn 0.9898 -0.1061 -0.0954
vn 0.0199 -0.7727 0.6345
vn 0.3562 0.8203 -0.4475
vn 0.9001 -0.2832 0.3310
vn -0.9848 0.0200 -0.1724
vn 0.9846 0.1630 0.0636
vn -0.5753 -0.6089 0.5461
vn 0.0263 0.2406 -0.9703
vn -0.9074 0.0653 -0.4151
vn 0.9997 0.0076 -0.0216
vn 0.1689 -0.5339 -0.8285
vn 0.1193 -0.5176 -0.8473
vn 0.1376 -0.4632 -0.8755
vn 0.1702 -0.4756 -0.8630
vn 0.9803 -0.0502 0.1911
vn -0.9647 -0.2602 0.0408
vn -0.0526 0.8458 -0.5308
vn -0.9240 0.2361 -0.3008
vn -0.9406 0.2800 -0.1919
vn -0.0687 0.8753 -0.4787
vn -0.4504 -0.7345 0.5075
vn 0.8841 -0.0072 0.4672
vn 0.9519 0.2256 0.2073
vn -0.9962 0.0354 0.0795
vn 0.1415 -0.7820 0.6069
vn 0.3527 0.8601 -0.3686
vn 0.1509 -0.7528 0.6407
vn -0.4818 -0.7033 0.5227
vn 0.0070 -0.1512 0.9885
vn 0.1065 -0.5457 -0.8312
vn -0.4120 -0.1620 0.8966
vn 0.1677 -0.5540 -0.8155
vn 0.4280 0.6359 -0.6422
vn 0.2711 -0.9195 0.2846
vn -0.9701 -0.1853 -0.1567
vn 0.9948 0.1022 0.0028
vn 0.9500 -0.2302 0.2110
vn -0.4866 -0.8645 0.1259
vn -0.0309 0.6674 -0.7440
vn -0.9146 0.1576 -0.3725
vn -0.3782 0.2541 -0.8902
vn -0.3096 -0.7240 -0.6164
vn -0.3474 0.4918 -0.7984
vn -0.2433 0.7104 -0.6604
vn -0.2622 -0.2045 -0.9431
vn -0.5394 0.1450 -0.8295
vn -0.9565 0.2865 -0.0557
vn -0.9329 0.3534 0.0690
vn -0.9964 0.0671 -0.0525
vn -0.8923 0.4302 0.1372
vn 0.5853 0.8106 -0.0206
vn -0.7662 0.5585 -0.3178
vn -0.8079 -0.5759 0.1249
vn -0.5121 0.8460 -0.1483
vn 0.2488 0.9668 0.0586
vn -0.9152 0.2551 -0.3120
vn -0.9446 -0.3030 -0.1261
vn -0.2679 -0.0725 -0.9607
vn 0.0676 0.1681 0.9835
vn -0.0202 0.1388 0.9901
vn 0.0404 0.1514 0.9876
vn 0.0031 0.1170 0.9931
vn 0.0098 0.1686 0.9856
vn -0.0282 0.1046 0.9941
vn 0.0515 0.1048 0.9932
vn -0.0363 0.1750 0.9839
vn 0.0125 0.1574 0.9875
vn -0.0013 0.1892 0.9819
vn -0.1575 -0.2578 0.9533
vn 0.0403 0.1868 0.9816
vn -0.2883 -0.1862 0.9393
vn 0.4181 0.4978 0.7598
vn 0.4215 0.2866 0.8604
vn 0.1496 -0.1711 0.9738
vn -0.7230 0.4497 0.5244
vn 0.2165 -0.1166 0.9693
vn 0.5167 0.4393 0.7348
vn -0.0230 -0.2424 0.9699
vn -0.3049 0.9277 0.2153
vn -0.5203 -0.0257 0.8536
vn -0.5164 -0.0933 0.8513
vn 0.0452 0.4540 0.8898
vn -0.0150 -0.4113 0.9114
vn 0.0467 0.9987 -0.0204
vn -0.7421 0.2780 0.6099
vn 0.8946 -0.3603 0.2644
vn 0.9984 0.0141 0.0540
vn 0.7249 -0.6512 0.2246
vn 0.0929 -0.8371 -0.5392
vn 0.0243 -0.6162 -0.7872
vn 0.9415 0.3303 0.0672
vn 0.6973 0.0992 0.7099
vn 0.3481 -0.4444 0.8254
vn -0.6200 -0.4188 -0.6635
vn -0.4331 -0.1655 -0.8860
vn 0.8021 0.3492 0.4845
vn 0.6067 0.0922 0.7896
vn -0.3993 -0.7585 0.5150
vn -0.6403 -0.2744 -0.7174
vn -0.3682 0.0052 -0.9297
vn 0.4621 0.5260 0.7140
vn 0.2575 0.3001 0.9185
vn -0.9984 -0.0141 -0.0540
vn -0.7669 0.0473 -0.6401
vn -0.4441 0.7261 -0.5249
vn -0.7249 0.6512 -0.2245
vn -0.6824 0.4759 -0.5549
vn -0.6998 0.1844 -0.6901
vn -0.8946 0.3603 -0.2644
vn -0.8597 0.0971 -0.5014
vn -0.8856 -0.0360 -0.4630
vn -0.7100 0.5357 0.4572
vn -0.7703 0.2938 0.5660
vn -0.1599 0.2325 0.9594
vn -0.0243 0.6162 0.7872
vn 0.2688 0.4289 0.8624
vn 0.4318 0.3997 0.8085
vn -0.0929 0.8370 0.5392
vn 0.2702 0.7560 0.5963
vn 0.2352 0.9258 0.2960
vn -0.3481 0.4444 -0.8254
vn -0.4707 0.1330 -0.8722
vn -0.5932 0.0622 -0.8026
vn -0.6973 -0.0992 -0.7099
vn -0.7079 -0.1897 -0.6804
vn -0.7860 -0.1930 -0.5873
vn -0.9415 -0.3304 -0.0672
vn -0.6261 -0.4595 0.6299
vn -0.0621 -0.0718 0.9955
vn 0.4331 0.1654 0.8860
vn 0.5375 0.1764 0.8246
vn 0.5469 0.2666 0.7936
vn 0.6200 0.4188 0.6635
vn 0.6959 0.4760 0.5377
vn 0.6060 0.7249 0.3275
vn -0.6067 -0.0922 -0.7896
vn -0.5375 -0.1764 -0.8246
vn -0.5469 -0.2666 -0.7936
vn -0.8021 -0.3492 -0.4845
vn -0.6959 -0.4760 -0.5377
vn -0.6060 -0.7249 -0.3275
vn 0.3682 -0.0051 0.9298
vn 0.4707 -0.1330 0.8722
vn 0.5932 -0.0622 0.8026
vn 0.6404 0.2744 0.7174
vn 0.7079 0.1897 0.6804
vn 0.7860 0.1930 0.5873
vn 0.3993 0.7585 -0.5149
vn 0.6261 0.4595 -0.6299
vn 0.0621 0.0718 -0.9955
vn -0.2575 -0.3001 -0.9185
vn -0.2688 -0.4289 -0.8624
vn -0.4318 -0.3997 -0.8085
vn -0.4621 -0.5260 -0.7140
vn -0.2702 -0.7560 -0.5963
vn -0.2352 -0.9258 -0.2960
vn 0.4441 -0.7261 0.5249
vn 0.6824 -0.4759 0.5549
vn 0.6998 -0.1844 0.6901
vn 0.1599 -0.2325 -0.9594
vn 0.7703 -0.2938 -0.5660
vn 0.7100 -0.5357 -0.4571
vn 0.7669 -0.0473 0.6401
vn 0.8597 -0.0971 0.5014
vn 0.8856 0.0360 0.4630
vn -0.8974 -0.3370 0.2848
vn -0.9963 0.0400 0.0767
vn -0.7363 -0.6322 0.2412
vn -0.1269 -0.8342 -0.5367
vn -0.0582 -0.6151 -0.7863
vn -0.9308 0.3547 0.0885
vn -0.6781 0.1171 0.7255
vn -0.3407 -0.4354 0.8333
vn 0.5936 -0.4346 -0.6773
vn 0.4084 -0.1764 -0.8956
vn -0.7815 0.3698 0.5025
vn -0.5859 0.1078 0.8032
vn 0.3910 -0.7688 0.5060
vn 0.6165 -0.2908 -0.7317
vn 0.3469 -0.0042 -0.9379
vn -0.4319 0.5376 0.7242
vn -0.2287 0.3064 0.9240
vn 0.9963 -0.0400 -0.0767
vn 0.7531 0.0275 -0.6573
vn 0.4508 0.7144 -0.5351
vn 0.7363 0.6322 -0.2412
vn 0.6817 0.4582 -0.5704
vn 0.6885 0.1663 -0.7059
vn 0.8974 0.3370 -0.2848
vn 0.8504 0.0748 -0.5209
vn 0.8736 -0.0589 -0.4830
vn 0.7339 0.5169 0.4407
vn 0.7904 0.2734 0.5482
vn 0.1877 0.2279 0.9554
vn 0.0583 0.6151 0.7863
vn -0.2379 0.4355 0.8682
vn -0.4028 0.4106 0.8180
vn 0.1269 0.8342 0.5367
vn -0.2368 0.7626 0.6020
vn -0.2042 0.9315 0.3009
vn 0.3407 0.4354 -0.8333
vn 0.4541 0.1209 -0.8827
vn 0.5762 0.0469 -0.8159
vn 0.6781 -0.1171 -0.7255
vn 0.6871 -0.2079 -0.6962
vn 0.7672 -0.2132 -0.6050
vn 0.9308 -0.3547 -0.0885
vn 0.6281 -0.4759 0.6157
vn 0.0828 -0.0737 0.9938
vn -0.4084 0.1764 0.8956
vn -0.5138 0.1901 0.8366
vn -0.5215 0.2805 0.8058
vn -0.5936 0.4346 0.6773
vn -0.6709 0.4938 0.5532
vn -0.5793 0.7404 0.3410
vn 0.5859 -0.1077 -0.8032
vn 0.5138 -0.1901 -0.8366
vn 0.5215 -0.2805 -0.8058
vn 0.7815 -0.3698 -0.5025
vn 0.6709 -0.4938 -0.5533
vn 0.5793 -0.7403 -0.3410
vn -0.3469 0.0042 0.9379
vn -0.4541 -0.1209 0.8827
vn -0.5762 -0.0469 0.8160
vn -0.6165 0.2908 0.7317
vn -0.6871 0.2079 0.6962
vn -0.7672 0.2132 0.6050
vn -0.3910 0.7688 -0.5060
vn -0.6281 0.4759 -0.6156
vn -0.0828 0.0737 -0.9938
vn 0.2287 -0.3064 -0.9240
vn 0.2379 -0.4355 -0.8682
vn 0.4028 -0.4106 -0.8180
vn 0.4319 -0.5376 -0.7242
vn 0.2368 -0.7626 -0.6020
vn 0.2042 -0.9315 -0.3010
vn -0.4508 -0.7144 0.5351
vn -0.6817 -0.4581 0.5704
vn -0.6885 -0.1663 0.7059
vn -0.1877 -0.2279 -0.9554
vn -0.7904 -0.2734 -0.5482
vn -0.7339 -0.5169 -0.4407
vn -0.7531 -0.0275 0.6573
vn -0.8504 -0.0748 0.5209
vn -0.8736 0.0589 0.4830
vt 0.833374 0.494548
vt 0.893919 0.512741
vt 0.908415 0.468160
vt 0.848637 0.467455
vt 0.567859 0.867914
vt 0.639317 0.828812
vt 0.620915 0.894044
vt 0.556155 0.927906
vt 0.812683 0.509803
vt 0.774909 0.642712
vt 0.751394 0.643294
vt 0.751725 0.493743
vt 0.828812 0.793372
vt 0.751727 0.811870
vt 0.672932 0.807420
vt 0.672336 0.642732
vt 0.672998 0.503429
vt 0.598676 0.643182
vt 0.594201 0.530171
vt 0.560191 0.672195
vt 0.619753 0.672998
vt 0.599703 0.594201
vt 0.569702 0.558226
vt 0.580250 0.833374
vt 0.635423 0.812683
vt 0.637090 0.751725
vt 0.569078 0.759035
vt 0.500000 0.859251
vt 0.500000 0.750726
vt 0.569078 0.758996
vt 0.500000 0.657595
vt 0.560191 0.671923
vt 0.604420 0.951058
vt 0.545714 0.976119
vt 0.604420 0.548422
vt 0.626365 0.643481
vt 0.688416 0.643970
vt 0.666902 0.547256
vt 0.500000 0.917421
vt 0.563590 0.893919
vt 0.639317 0.793372
vt 0.659328 0.642712
vt 0.676970 0.643370
vt 0.671449 0.761101
vt 0.555994 0.632181
vt 0.545714 0.747180
vt 0.604420 0.735145
vt 0.572975 0.538591
vt 0.666902 0.715601
vt 0.500000 0.969030
vt 0.572975 0.947229
vt 0.501290 0.830086
vt 0.457158 0.830118
vt 0.460328 0.806630
vt 0.500288 0.803578
vt 0.499838 0.512886
vt 0.460007 0.507514
vt 0.481582 0.413128
vt 0.510774 0.417065
vt 0.500000 0.559830
vt 0.556447 0.575135
vt 0.579931 0.796381
vt 0.599703 0.530171
vt 0.637090 0.643182
vt 0.659115 0.643738
vt 0.643940 0.535244
vt 0.564556 0.492909
vt 0.500000 0.477524
vt 0.500000 0.432743
vt 0.566016 0.447361
vt 0.569702 0.518348
vt 0.616981 0.429733
vt 0.594994 0.421068
vt 0.612448 0.796381
vt 0.637526 0.771615
vt 0.500000 0.371229
vt 0.561082 0.382998
vt 0.450625 0.491920
vt 0.495971 0.498202
vt 0.507939 0.406303
vt 0.474705 0.401699
vt 0.591615 0.535244
vt 0.575831 0.433451
vt 0.407144 0.499901
vt 0.406490 0.640437
vt 0.358675 0.605643
vt 0.363238 0.556600
vt 0.578790 0.420824
vt 0.621227 0.407144
vt 0.601979 0.363238
vt 0.551080 0.357545
vt 0.500000 0.657756
vt 0.500000 0.571782
vt 0.667216 0.508652
vt 0.621227 0.499901
vt 0.632756 0.407548
vt 0.666461 0.413961
vt 0.556577 0.771615
vt 0.637090 0.751727
vt 0.260484 0.580516
vt 0.278839 0.520364
vt 0.582070 0.278839
vt 0.540875 0.268345
vt 0.619753 0.672932
vt 0.500000 0.307117
vt 0.551080 0.314473
vt 0.500000 0.983839
vt 0.393435 0.816867
vt 0.325561 0.763148
vt 0.671449 0.517077
vt 0.635423 0.509803
vt 0.642381 0.470278
vt 0.671266 0.470798
vt 0.988807 0.740196
vt 1.002924 0.661469
vt 1.015365 0.669173
vt 1.001496 0.721513
vt 0.500000 0.531683
vt 0.500000 0.631036
vt 0.249130 0.712570
vt 0.191059 0.679456
vt 0.198981 0.567653
vt 0.945839 0.547256
vt 0.886123 0.529161
vt 0.904522 0.470747
vt 0.963512 0.471464
vt 0.500000 0.238897
vt 0.540875 0.239236
vt 0.564556 0.495971
vt 0.612448 0.579931
vt 0.628268 0.501290
vt 0.631115 0.457158
vt 0.168698 0.648799
vt 0.177283 0.553376
vt 0.539817 0.181283
vt 0.500000 0.184290
vt 0.500000 0.144817
vt 0.539817 0.140934
vt 0.580006 0.205473
vt 0.539817 0.196322
vt 0.205473 0.476864
vt 0.621491 0.393435
vt 0.538703 0.608225
vt 0.500000 0.615960
vt 0.500000 0.567098
vt 0.526605 0.560962
vt 0.566016 0.450625
vt 0.149293 0.452102
vt 0.133162 0.541160
vt 0.103583 0.505809
vt 0.123733 0.441345
vt 0.539531 0.141037
vt 0.579447 0.149293
vt 0.562090 0.123733
vt 0.530633 0.116366
vt 0.500000 0.385014
vt 0.500000 0.353218
vt 0.586057 0.174337
vt 0.542919 0.165879
vt 0.174337 0.464471
vt 0.086614 0.427976
vt 0.065909 0.448336
vt 0.053210 0.428901
vt 0.071388 0.423606
vt 0.515797 0.085531
vt 0.531484 0.086614
vt 0.523242 0.071388
vt 0.510720 0.071544
vt 0.500000 0.266808
vt 0.601979 0.325561
vt 0.582070 0.249130
vt 0.108290 0.599988
vt 0.073849 0.556649
vt 0.580006 0.679456
vt 0.539817 0.690304
vt 0.539817 0.657159
vt 0.579599 0.648799
vt 0.500000 0.199929
vt 0.513331 0.045311
vt 0.500000 0.046647
vt 0.500000 0.069896
vt 0.051602 0.475706
vt 0.038205 0.462176
vt 0.038356 0.442272
vt 0.580006 0.191059
vt 0.577833 0.599988
vt 0.554232 0.556649
vt 0.500000 0.147087
vt 0.500000 0.124516
vt 0.530339 0.475706
vt 0.515210 0.477146
vt 0.513246 0.460736
vt 0.522445 0.462176
vt 0.500000 0.170521
vt 0.515546 0.457928
vt 0.507613 0.457080
vt 0.506877 0.445401
vt 0.514439 0.446199
vt 0.500000 0.089031
vt 0.528336 0.053210
vt 0.620841 0.601238
vt 0.618568 0.607555
vt 0.613078 0.604170
vt 0.614718 0.599612
vt 0.500000 0.479371
vt 0.500000 0.460095
vt 0.513331 0.424258
vt 0.512541 0.440917
vt 0.500000 0.440864
vt 0.500000 0.422187
vt 0.500000 0.664242
vt 0.576432 0.505809
vt 0.539481 0.507406
vt 0.547321 0.467354
vt 0.500000 0.513551
vt 0.519044 0.508271
vt 0.579599 0.168698
vt 0.538703 0.096221
vt 0.577833 0.108290
vt 0.520322 0.097153
vt 0.500000 0.106427
vt 0.541975 0.104341
vt 0.078394 0.467354
vt 0.104341 0.437145
vt 0.073220 0.507406
vt 0.590300 0.643738
vt 0.499630 0.641384
vt 0.459655 0.640419
vt 0.417546 0.774144
vt 0.414448 0.641253
vt 0.423095 0.508652
vt 0.621491 0.816867
vt 0.648114 0.640437
vt 0.669097 0.641253
vt 0.644267 0.774144
vt 0.578790 0.496630
vt 0.601625 0.405151
vt 0.649402 0.433451
vt 0.651726 0.367843
vt 0.620780 0.366797
vt 0.454529 0.413961
vt 0.467814 0.368189
vt 0.488225 0.366596
vt 0.561691 0.421068
vt 0.537425 0.365401
vt 0.507200 0.363509
vt 0.481273 0.364028
vt 0.510983 0.366114
vt 0.635806 0.367147
vt 0.669092 0.368189
vt 0.420824 0.496630
vt 0.452865 0.405151
vt 0.558226 0.518348
vt 0.484328 0.324872
vt 0.502799 0.322553
vt 0.547406 0.321655
vt 0.519920 0.320969
vt 0.496410 0.322232
vt 0.523434 0.321439
vt 0.639292 0.324944
vt 0.675657 0.324872
vt 0.550036 0.367843
vt 0.558926 0.322330
vt 0.465216 0.366023
vt 0.604868 0.366023
vt 0.599660 0.365401
vt 0.621651 0.293283
vt 0.658462 0.293469
vt 0.659368 0.261742
vt 0.621257 0.261665
vt 0.501495 0.293600
vt 0.482345 0.307625
vt 0.480362 0.262732
vt 0.500191 0.261781
vt 0.519246 0.292376
vt 0.547742 0.292993
vt 0.548078 0.261464
vt 0.518571 0.260916
vt 0.494871 0.293528
vt 0.493332 0.261956
vt 0.522889 0.292587
vt 0.522344 0.260869
vt 0.451756 0.288897
vt 0.449773 0.262732
vt 0.656778 0.322330
vt 0.622394 0.322035
vt 0.481902 0.324350
vt 0.605664 0.324350
vt 0.599057 0.321655
vt 0.595403 0.548078
vt 0.621257 0.561263
vt 0.645824 0.523009
vt 0.590945 0.518571
vt 0.639859 0.470735
vt 0.648324 0.498544
vt 0.685407 0.500191
vt 0.686261 0.480362
vt 0.592251 0.493332
vt 0.659368 0.560446
vt 0.683143 0.522344
vt 0.596433 0.477757
vt 0.479829 0.307317
vt 0.477757 0.262636
vt 0.447168 0.262636
vt 0.449241 0.288588
vt 0.596679 0.292993
vt 0.595403 0.261464
vt 0.559686 0.293469
vt 0.560446 0.261742
vt 0.603589 0.307317
vt 0.640355 0.307779
vt 0.679739 0.307625
vt 0.677932 0.288897
vt 0.639680 0.289050
vt 0.639859 0.262967
vt 0.679465 0.262732
vt 0.604354 0.288588
vt 0.603287 0.262636
vt 0.679739 0.482345
vt 0.640355 0.473048
vt 0.639680 0.442459
vt 0.677932 0.451756
vt 0.679465 0.449773
vt 0.639859 0.440146
vt 0.603589 0.479829
vt 0.604354 0.449241
vt 0.603287 0.447168
vt 0.841501 0.761101
vt 0.796910 0.643370
vt 0.906455 0.644155
vt 0.894416 0.742499
vt 0.957194 0.643970
vt 0.829265 0.517077
vt 0.940741 0.715601
vt 0.671449 0.841501
vt 0.669190 0.894416
vt 0.849398 0.470798
vt 0.666902 0.940741
vt 0.909364 0.402088
vt 0.855378 0.389954
vt 0.592313 0.470184
vt 0.617524 0.471308
vt 0.621192 0.417417
vt 0.598226 0.414426
vt 0.598146 0.467455
vt 0.603540 0.389954
vt 0.643835 0.389418
vt 0.855424 0.393127
vt 0.905341 0.403681
vt 0.667620 0.471464
vt 0.947229 0.538591
vt 0.963044 0.470184
vt 0.580250 0.494548
vt 0.595712 0.312254
vt 0.621272 0.312916
vt 0.622837 0.264476
vt 0.597277 0.263453
vt 0.852894 0.313492
vt 0.849695 0.260671
vt 0.818572 0.260902
vt 0.821566 0.286829
vt 0.893654 0.314609
vt 0.853541 0.316407
vt 0.850246 0.263617
vt 0.890422 0.263754
vt 0.896415 0.312211
vt 0.936226 0.312254
vt 0.933075 0.263453
vt 0.893263 0.261490
vt 0.670148 0.393127
vt 0.666826 0.415674
vt 0.958612 0.415674
vt 0.958434 0.414426
vt 0.649700 0.837975
vt 0.635627 0.887710
vt 0.686058 0.890422
vt 0.687133 0.850246
vt 0.592375 0.849695
vt 0.589648 0.893263
vt 0.597277 0.933075
vt 0.622837 0.940554
vt 0.673628 0.933416
vt 0.822213 0.289744
vt 0.819123 0.263848
vt 0.672063 0.313364
vt 0.673628 0.264581
vt 0.936602 0.313364
vt 0.933416 0.264581
vt 0.941647 0.364922
vt 0.899640 0.363406
vt 0.623001 0.364960
vt 0.665562 0.364922
vt 0.668659 0.362549
vt 0.644119 0.361871
vt 0.647700 0.316485
vt 0.685132 0.316407
vt 0.859879 0.359936
vt 0.902447 0.361457
vt 0.941330 0.363919
vt 0.860378 0.362549
vt 0.606538 0.359936
vt 0.590374 0.313492
vt 0.601582 0.363919
vt 0.646474 0.289822
vt 0.601626 0.286829
vt 0.603191 0.260902
vt 0.648039 0.263334
vt 0.675760 0.289744
vt 0.677325 0.263848
vt 0.647700 0.841274
vt 0.590374 0.852894
vt 0.601626 0.821566
vt 0.646474 0.809945
vt 0.648039 0.806852
vt 0.603191 0.818572
vt 0.685132 0.853541
vt 0.675760 0.822213
vt 0.677325 0.819123
vt 0.500000 0.668378
vt 0.500000 0.724779
vt 0.517225 0.721513
vt 0.520785 0.669173
vt 0.528698 1.002924
vt 0.500000 1.014901
vt 0.500000 1.025182
vt 0.520785 1.015365
vt 0.500000 0.744181
vt 0.519989 0.740196
vt 0.519989 0.988807
vt 0.500000 0.995348
vt 0.500000 0.660499
vt 0.528698 0.661469
vt 0.154177 0.616909
vt 0.166410 0.570048
vt 0.135838 0.608740
vt 0.149154 0.567675
vt 0.147623 0.572395
vt 0.137518 0.603560
vt 0.583783 0.154177
vt 0.583848 0.135838
vt 0.600568 0.131366
vt 0.597073 0.144428
vt 0.144166 0.612314
vt 0.141084 0.620214
vt 0.132632 0.614576
vt 0.134671 0.609983
vt 0.153028 0.593819
vt 0.141399 0.592146
vt 0.619182 0.132632
vt 0.614588 0.141084
vt 0.606252 0.140479
vt 0.610351 0.130579
vt 0.138199 0.601250
vt 0.148213 0.603179
vt 0.602487 0.570048
vt 0.583783 0.616909
vt 0.597073 0.624463
vt 0.606252 0.625520
vt 0.614588 0.620214
vt 0.620822 0.612314
vt 0.623703 0.603179
vt 0.620639 0.593819
vt 0.604695 0.577238
vt 0.601269 0.572395
vt 0.603531 0.567675
vt 0.609313 0.614171
vt 0.615687 0.610750
vt 0.619182 0.614576
vt 0.610351 0.619358
vt 0.602434 0.613212
vt 0.600568 0.617961
vt 0.626402 0.601250
vt 0.623276 0.609983
vt 0.618527 0.594500
vt 0.623272 0.592146
vt 0.590602 0.606787
vt 0.583848 0.608740
vt 0.592903 0.603615
vt 0.603070 0.582298
vt 0.613048 0.594751
vt 0.610999 0.606475
vt 0.606401 0.608943
vt 0.601438 0.608251
vt 0.586331 0.603560
vt 0.600598 0.578805
vt 0.589822 0.601288
vt 0.148133 0.578805
vt 0.140843 0.601288
vt 0.522445 0.038205
vt 0.513246 0.032036
vt 0.507613 0.025182
vt 0.515546 0.030102
vt 0.521458 0.442272
vt 0.528336 0.428901
vt 0.500000 0.456702
vt 0.500000 0.445370
vt 0.500000 0.031689
vt 0.512541 0.032373
vt 0.506877 0.025742
vt 0.500000 0.025886
vt 0.500000 0.031337
vt 0.500000 0.025479
vt 0.030102 0.457928
vt 0.030515 0.446199
vt 0.432141 0.867914
vt 0.443845 0.927906
vt 0.379085 0.894044
vt 0.360683 0.828812
vt 0.439809 0.672195
vt 0.430298 0.558226
vt 0.400297 0.594201
vt 0.380247 0.672998
vt 0.419750 0.833374
vt 0.430922 0.759035
vt 0.362910 0.751725
vt 0.364577 0.812683
vt 0.430922 0.758996
vt 0.439809 0.671923
vt 0.454286 0.976119
vt 0.395580 0.951058
vt 0.395580 0.548422
vt 0.333098 0.547256
vt 0.311584 0.643970
vt 0.373635 0.643481
vt 0.436410 0.893919
vt 0.360683 0.793372
vt 0.328551 0.761101
vt 0.323030 0.643370
vt 0.340672 0.642712
vt 0.444006 0.632181
vt 0.395580 0.735145
vt 0.454286 0.747180
vt 0.427025 0.538591
vt 0.333098 0.715601
vt 0.427025 0.947229
vt 0.443553 0.575135
vt 0.400297 0.530171
vt 0.356060 0.535244
vt 0.340885 0.643738
vt 0.362910 0.643182
vt 0.435444 0.492909
vt 0.433984 0.447361
vt 0.430298 0.518348
vt 0.405006 0.421068
vt 0.383019 0.429733
vt 0.362474 0.771615
vt 0.387552 0.796381
vt 0.438918 0.382998
vt 0.421210 0.420824
vt 0.448920 0.357545
vt 0.398021 0.363238
vt 0.378773 0.407144
vt 0.332784 0.508652
vt 0.333539 0.413961
vt 0.367244 0.407548
vt 0.378773 0.499901
vt 0.362910 0.751727
vt 0.459125 0.268345
vt 0.417930 0.278839
vt 0.380247 0.672932
vt 0.448920 0.314473
vt 0.328551 0.517077
vt 0.328734 0.470798
vt 0.357619 0.470278
vt 0.364577 0.509803
vt 0.459125 0.239236
vt 0.435444 0.495971
vt 0.387552 0.579931
vt 0.371732 0.501290
vt 0.368885 0.457158
vt 0.460183 0.181283
vt 0.460183 0.140934
vt 0.460183 0.196322
vt 0.419994 0.205473
vt 0.378509 0.393435
vt 0.461297 0.608225
vt 0.473395 0.560962
vt 0.433984 0.450625
vt 0.460469 0.141037
vt 0.469367 0.116366
vt 0.437911 0.123733
vt 0.420553 0.149293
vt 0.457081 0.165879
vt 0.413943 0.174337
vt 0.484203 0.085531
vt 0.489280 0.071544
vt 0.476758 0.071388
vt 0.468516 0.086614
vt 0.398021 0.325561
vt 0.417930 0.249130
vt 0.419994 0.679456
vt 0.420401 0.648799
vt 0.460183 0.657159
vt 0.460183 0.690304
vt 0.486669 0.045311
vt 0.419994 0.191059
vt 0.422167 0.599988
vt 0.445768 0.556649
vt 0.469661 0.475706
vt 0.477555 0.462176
vt 0.486754 0.460736
vt 0.484790 0.477146
vt 0.484454 0.457928
vt 0.485561 0.446199
vt 0.493123 0.445401
vt 0.492387 0.457080
vt 0.471665 0.053210
vt 0.379159 0.601238
vt 0.385282 0.599612
vt 0.386922 0.604170
vt 0.381432 0.607555
vt 0.486669 0.424258
vt 0.487459 0.440917
vt 0.423568 0.505809
vt 0.452679 0.467354
vt 0.460520 0.507406
vt 0.480956 0.508271
vt 0.420401 0.168698
vt 0.422167 0.108290
vt 0.461297 0.096221
vt 0.479678 0.097153
vt 0.458025 0.104341
vt 0.378509 0.816867
vt 0.355733 0.774144
vt 0.330903 0.641253
vt 0.351886 0.640437
vt 0.398375 0.405151
vt 0.421210 0.496630
vt 0.379220 0.366797
vt 0.348274 0.367843
vt 0.350598 0.433451
vt 0.330908 0.368189
vt 0.364194 0.367147
vt 0.324343 0.324872
vt 0.360708 0.324944
vt 0.395132 0.366023
vt 0.400340 0.365401
vt 0.378349 0.293283
vt 0.378743 0.261665
vt 0.340632 0.261742
vt 0.341538 0.293469
vt 0.377606 0.322035
vt 0.343222 0.322330
vt 0.394336 0.324350
vt 0.400943 0.321655
vt 0.404597 0.548078
vt 0.409055 0.518571
vt 0.354176 0.523009
vt 0.378743 0.561263
vt 0.360141 0.470735
vt 0.313739 0.480362
vt 0.314593 0.500191
vt 0.351676 0.498544
vt 0.407749 0.493332
vt 0.316857 0.522344
vt 0.340632 0.560446
vt 0.403567 0.477757
vt 0.403321 0.292993
vt 0.404597 0.261464
vt 0.359645 0.307779
vt 0.396411 0.307317
vt 0.320262 0.307625
vt 0.322068 0.288897
vt 0.320535 0.262732
vt 0.360141 0.262967
vt 0.360320 0.289050
vt 0.396713 0.262636
vt 0.395646 0.288588
vt 0.320262 0.482345
vt 0.322068 0.451756
vt 0.360320 0.442459
vt 0.359645 0.473048
vt 0.360141 0.440146
vt 0.320535 0.449773
vt 0.395646 0.449241
vt 0.396411 0.479829
vt 0.396713 0.447168
vt 0.330810 0.894416
vt 0.328551 0.841501
vt 0.333098 0.940741
vt 0.407688 0.470184
vt 0.401774 0.414426
vt 0.378808 0.417417
vt 0.382476 0.471308
vt 0.356165 0.389418
vt 0.396460 0.389954
vt 0.401854 0.467455
vt 0.332380 0.471464
vt 0.419750 0.494548
vt 0.404289 0.312254
vt 0.402723 0.263453
vt 0.377163 0.264476
vt 0.378728 0.312916
vt 0.329852 0.393127
vt 0.333174 0.415674
vt 0.350300 0.837975
vt 0.312867 0.850246
vt 0.313942 0.890422
vt 0.364373 0.887710
vt 0.410353 0.893263
vt 0.407625 0.849695
vt 0.377163 0.940554
vt 0.402723 0.933075
vt 0.326372 0.933416
vt 0.326372 0.264581
vt 0.327937 0.313364
vt 0.376999 0.364960
vt 0.334438 0.364922
vt 0.331341 0.362549
vt 0.314868 0.316407
vt 0.352300 0.316485
vt 0.355881 0.361871
vt 0.409626 0.313492
vt 0.393462 0.359936
vt 0.398418 0.363919
vt 0.353526 0.289822
vt 0.351961 0.263334
vt 0.396809 0.260902
vt 0.398374 0.286829
vt 0.324240 0.289744
vt 0.322675 0.263848
vt 0.352300 0.841274
vt 0.353526 0.809945
vt 0.398374 0.821566
vt 0.409626 0.852894
vt 0.396809 0.818572
vt 0.351961 0.806852
vt 0.314868 0.853541
vt 0.324240 0.822213
vt 0.322675 0.819123
vt 0.479215 0.669173
vt 0.482775 0.721513
vt 0.471302 1.002924
vt 0.479215 1.015365
vt 0.480011 0.740196
vt 0.480011 0.988807
vt 0.471302 0.661469
vt 0.416217 0.154177
vt 0.402927 0.144428
vt 0.399432 0.131366
vt 0.416152 0.135838
vt 0.380819 0.132632
vt 0.389649 0.130579
vt 0.393748 0.140479
vt 0.385412 0.141084
vt 0.397513 0.570048
vt 0.379361 0.593819
vt 0.376297 0.603179
vt 0.379178 0.612314
vt 0.385412 0.620214
vt 0.393748 0.625520
vt 0.402927 0.624463
vt 0.416217 0.616909
vt 0.395305 0.577238
vt 0.396469 0.567675
vt 0.398731 0.572395
vt 0.390687 0.614171
vt 0.389649 0.619358
vt 0.380819 0.614576
vt 0.384313 0.610750
vt 0.397566 0.613212
vt 0.399432 0.617961
vt 0.376724 0.609983
vt 0.373598 0.601250
vt 0.376728 0.592146
vt 0.381473 0.594500
vt 0.409398 0.606787
vt 0.416152 0.608740
vt 0.407098 0.603615
vt 0.398562 0.608251
vt 0.393599 0.608943
vt 0.389001 0.606475
vt 0.386952 0.594751
vt 0.396930 0.582298
vt 0.413669 0.603560
vt 0.399402 0.578805
vt 0.410178 0.601288
vt 0.477555 0.038205
vt 0.484454 0.030102
vt 0.492387 0.025182
vt 0.486754 0.032036
vt 0.478542 0.442272
vt 0.471665 0.428901
vt 0.493123 0.025742
vt 0.487459 0.032373
vt 0.181819 0.000000
vt 0.227273 0.078731
vt 0.136365 0.078731
vt 0.272728 0.157461
vt 0.318182 0.078731
vt 0.363637 0.157461
vt 0.909091 0.000000
vt 0.954545 0.078731
vt 0.863636 0.078731
vt 0.727273 0.000000
vt 0.772727 0.078731
vt 0.681818 0.078731
vt 0.545455 0.000000
vt 0.590909 0.078731
vt 0.500000 0.078731
vt 0.318182 0.236191
vt 0.090910 0.157461
vt 0.181819 0.157461
vt 0.136365 0.236191
vt 0.818182 0.157461
vt 0.909091 0.157461
vt 0.863636 0.236191
vt 0.636364 0.157461
vt 0.727273 0.157461
vt 0.681818 0.236191
vt 0.454546 0.157461
vt 0.545455 0.157461
vt 0.500000 0.236191
vt 0.227273 0.236191
vt 0.045455 0.236191
vt 0.772727 0.236191
vt 0.590909 0.236191
vt 0.409092 0.236191
vt 0.181819 0.314921
vt 0.272728 0.314921
vt 0.227273 0.393651
vt 0.000000 0.314921
vt 0.090910 0.314921
vt 0.045455 0.393651
vt 0.727273 0.314921
vt 0.818182 0.314921
vt 0.772727 0.393651
vt 0.545455 0.314921
vt 0.636364 0.314921
vt 0.590909 0.393651
vt 0.363637 0.314921
vt 0.454546 0.314921
vt 0.409092 0.393651
vt 0.500000 0.393651
vt 0.454546 0.472382
vt 0.681818 0.393651
vt 0.636364 0.472382
vt 0.863636 0.393651
vt 0.818182 0.472382
vt 0.909091 0.314921
vt 0.136365 0.393651
vt 0.090910 0.472382
vt 0.318182 0.393651
vt 0.272728 0.472382
vt 0.954545 0.236191
vt 1.000000 0.157461
vt 0.409092 0.078731
vt 0.363637 0.000000
s 1
f 116/1/1 98/2/1 209/3/1 208/4/1
f 115/5/2 4/6/2 17/7/2 97/8/2
f 3/9/3 7/10/3 13/11/3 8/12/3
f 7/10/4 4/13/4 9/14/4 13/11/4
f 13/11/5 9/14/5 2/15/5 10/16/5
f 8/12/6 13/11/6 10/16/6 1/17/6
f 1/17/7 10/16/7 32/18/7 29/19/7
f 114/20/8 1/21/8 29/22/8 83/23/8
f 116/24/9 3/25/9 8/26/9 109/27/9
f 109/27/10 8/26/10 1/21/10 114/20/10
f 115/5/11 6/28/11 15/29/11 99/30/11
f 99/30/12 15/29/12 12/31/12 112/32/12
f 97/8/13 17/7/13 21/33/13 90/34/13
f 20/35/14 25/36/14 203/37/14 204/38/14
f 116/24/15 5/28/15 18/39/15 98/40/15
f 4/41/16 7/42/16 197/43/16 196/44/16
f 89/45/17 90/46/17 21/47/17 25/36/17
f 91/48/18 89/45/18 25/36/18 20/35/18
f 25/36/19 21/47/19 202/49/19 203/37/19
f 98/40/20 18/39/20 23/50/20 91/51/20
f 38/52/21 45/53/21 134/54/21 131/55/21
f 133/56/22 136/57/22 144/58/22 146/59/22
f 112/32/23 12/31/23 34/60/23 82/61/23
f 10/16/24 2/15/24 30/62/24 32/18/24
f 29/63/25 32/64/25 129/65/25 130/66/25
f 75/67/26 41/68/26 48/69/26 73/70/26
f 82/61/27 34/60/27 41/68/27 75/67/27
f 83/71/28 29/63/28 141/72/28 140/73/28
f 32/64/29 30/74/29 128/75/29 129/65/29
f 73/70/30 48/69/30 56/76/30 66/77/30
f 74/78/31 81/79/31 145/80/31 148/81/31
f 130/82/32 133/56/32 146/59/32 147/83/32
f 6/28/33 115/5/33 97/8/33 19/39/33
f 54/84/34 53/85/34 60/86/34 61/87/34
f 67/88/35 54/89/35 61/90/35 65/91/35
f 11/92/36 114/20/36 83/23/36 33/93/36
f 5/28/37 116/24/37 109/27/37 14/29/37
f 14/29/38 109/27/38 114/20/38 11/92/38
f 139/94/39 54/95/39 143/96/39 142/97/39
f 30/62/40 38/52/40 131/55/40 128/98/40
f 4/6/41 115/5/41 99/30/41 9/99/41
f 61/87/42 60/86/42 69/100/42 70/101/42
f 65/91/43 61/90/43 70/102/43 58/103/43
f 9/99/44 99/30/44 112/32/44 2/104/44
f 66/77/45 56/76/45 63/105/45 64/106/45
f 19/39/46 97/8/46 90/34/46 24/107/46
f 53/85/47 52/108/47 59/109/47 60/86/47
f 198/110/48 3/111/48 207/112/48 213/113/48
f 256/114/49 255/115/49 253/116/49 254/117/49
f 23/118/50 26/119/50 89/45/50 91/48/50
f 69/100/51 68/120/51 76/121/51 77/122/51
f 204/123/52 201/124/52 211/125/52 212/126/52
f 64/106/53 63/105/53 72/127/53 57/128/53
f 33/93/54 83/23/54 81/129/54 40/68/54
f 60/86/55 59/109/55 68/120/55 69/100/55
f 2/104/56 112/32/56 82/61/56 30/130/56
f 38/131/57 75/67/57 73/70/57 45/132/57
f 77/122/58 76/121/58 259/133/58 260/134/58
f 30/130/59 82/61/59 75/67/59 38/131/59
f 50/135/60 80/136/60 88/137/60 44/138/60
f 58/103/61 70/102/61 78/139/61 51/140/61
f 70/101/62 69/100/62 77/122/62 78/141/62
f 45/132/63 73/70/63 66/77/63 52/142/63
f 57/128/64 72/127/64 80/136/64 50/135/64
f 28/143/65 110/144/65 96/145/65 42/146/65
f 40/68/66 81/129/66 74/147/66 47/69/66
f 108/148/67 262/149/67 93/150/67 94/151/67
f 31/152/68 108/153/68 94/154/68 43/155/68
f 55/156/69 67/88/69 65/91/69 62/157/69
f 51/140/70 78/139/70 86/158/70 49/159/70
f 78/141/71 77/122/71 260/134/71 86/160/71
f 47/69/72 74/147/72 67/88/72 55/156/72
f 123/161/73 124/162/73 101/163/73 102/164/73
f 121/165/74 123/166/74 102/167/74 37/168/74
f 62/157/75 65/91/75 58/103/75 71/169/75
f 52/142/76 66/77/76 64/106/76 59/170/76
f 59/170/77 64/106/77 57/128/77 68/171/77
f 262/149/78 261/172/78 92/173/78 93/150/78
f 76/174/79 50/175/79 44/176/79 259/177/79
f 71/169/80 58/103/80 51/140/80 79/178/80
f 37/168/81 35/179/81 105/180/81 103/181/81
f 124/162/82 127/182/82 297/183/82 298/184/82 101/163/82
f 68/171/83 57/128/83 50/135/83 76/185/83
f 261/186/84 28/143/84 42/146/84 92/187/84
f 107/188/85 31/152/85 43/155/85 95/189/85
f 127/190/86 122/191/86 295/192/86 297/193/86
f 79/178/87 51/140/87 49/159/87 87/194/87
f 100/195/88 36/196/88 301/197/88 104/198/88
f 126/199/89 121/165/89 37/168/89 103/181/89
f 102/167/90 101/200/90 35/179/90 37/168/90
f 274/201/91 273/202/91 290/203/91 291/204/91
f 122/191/92 125/205/92 300/206/92 295/192/92
f 49/159/93 86/158/93 108/153/93 31/152/93
f 86/160/94 260/134/94 262/149/94 108/148/94
f 35/207/95 296/208/95 299/209/95 105/210/95
f 44/176/96 88/211/96 110/144/96 28/143/96
f 93/212/97 92/187/97 120/213/97 119/214/97
f 87/194/98 49/159/98 31/152/98 107/188/98
f 42/146/99 96/145/99 113/215/99 27/216/99
f 259/217/100 44/138/100 28/218/100 261/219/100
f 92/187/101 42/146/101 27/216/101 120/213/101
f 95/189/102 43/155/102 22/220/102 118/221/102
f 43/155/103 94/154/103 117/222/103 22/220/103
f 94/151/104 93/150/104 119/223/104 117/224/104
f 120/213/105 27/216/105 122/191/105 127/190/105
f 118/221/106 22/220/106 121/165/106 126/199/106
f 119/223/107 120/225/107 127/182/107 124/162/107
f 27/216/108 113/215/108 125/205/108 122/191/108
f 22/220/109 117/222/109 123/166/109 121/165/109
f 117/224/110 119/223/110 124/162/110 123/161/110
f 130/82/111 129/226/111 132/227/111 133/56/111
f 132/227/112 131/55/112 134/54/112 135/228/112
f 129/226/113 128/98/113 131/55/113 132/227/113
f 135/228/114 134/54/114 137/229/114 138/230/114
f 133/56/115 132/227/115 135/228/115 136/57/115
f 136/57/116 135/228/116 138/230/116 139/231/116
f 52/232/117 53/233/117 138/234/117 137/235/117
f 45/53/118 52/108/118 137/229/118 134/54/118
f 54/95/119 67/236/119 149/237/119 143/96/119
f 53/233/120 54/95/120 139/94/120 138/234/120
f 141/72/121 147/238/121 157/239/121 39/240/121
f 144/58/122 142/241/122 150/242/122 153/243/122
f 145/80/123 140/244/123 46/245/123 154/246/123
f 148/81/124 145/80/124 154/246/124 158/247/124
f 146/59/125 144/58/125 153/243/125 156/248/125
f 142/97/126 143/96/126 151/249/126 150/250/126
f 136/57/127 139/231/127 142/241/127 144/58/127
f 67/251/128 74/78/128 148/81/128 149/252/128
f 29/63/129 130/66/129 147/238/129 141/72/129
f 81/79/130 83/253/130 140/244/130 145/80/130
f 153/243/131 150/242/131 162/254/131 164/255/131
f 154/246/132 46/245/132 160/256/132 165/257/132
f 158/247/133 154/246/133 165/257/133 168/258/133
f 156/248/134 153/243/134 164/255/134 166/259/134
f 150/250/135 151/249/135 163/260/135 162/261/135
f 157/262/136 156/248/136 166/259/136 167/263/136
f 149/252/137 148/81/137 158/247/137 159/264/137
f 143/96/138 149/237/138 159/265/138 151/249/138
f 140/73/139 141/72/139 39/240/139 46/266/139
f 147/83/140 146/59/140 156/248/140 157/262/140
f 188/267/141 187/268/141 177/269/141 152/270/141
f 184/271/142 185/272/142 170/273/142 173/274/142
f 182/275/143 180/276/143 155/277/143 174/278/143
f 181/279/144 182/275/144 174/278/144 178/280/144
f 183/281/145 184/271/145 173/274/145 176/282/145
f 170/273/146 185/272/146 194/283/146 192/284/146
f 39/240/147 157/239/147 167/285/147 161/286/147
f 159/264/148 158/247/148 168/258/148 169/287/148
f 151/249/149 159/265/149 169/288/149 163/260/149
f 46/266/150 39/240/150 161/286/150 160/289/150
f 155/290/151 152/291/151 175/292/151 174/293/151
f 171/294/152 172/295/152 173/296/152 170/297/152
f 174/293/153 175/292/153 172/295/153 178/298/153
f 175/292/154 152/291/154 177/299/154 176/300/154
f 178/298/155 172/295/155 171/294/155 179/301/155
f 172/295/156 175/292/156 176/300/156 173/296/156
f 189/302/157 181/279/157 178/280/157 179/303/157
f 189/302/158 179/303/158 193/304/158 195/305/158
f 180/306/159 188/267/159 152/270/159 155/307/159
f 187/308/160 183/281/160 176/282/160 177/309/160
f 167/263/161 166/259/161 183/281/161 187/308/161
f 160/289/162 161/286/162 188/267/162 180/306/162
f 163/260/163 169/288/163 189/310/163 186/311/163
f 169/287/164 168/258/164 181/279/164 189/302/164
f 162/261/165 163/260/165 186/311/165 185/312/165
f 166/259/166 164/255/166 184/271/166 183/281/166
f 168/258/167 165/257/167 182/275/167 181/279/167
f 165/257/168 160/256/168 180/276/168 182/275/168
f 164/255/169 162/254/169 185/272/169 184/271/169
f 161/286/170 167/285/170 187/268/170 188/267/170
f 194/313/171 190/314/171 191/315/171 192/316/171
f 190/314/172 195/317/172 193/318/172 191/315/172
f 185/319/173 186/320/173 190/321/173 194/322/173
f 171/294/174 170/297/174 192/323/174 191/324/174
f 186/320/175 189/325/175 195/326/175 190/321/175
f 179/301/176 171/294/176 191/324/176 193/327/176
f 196/328/177 197/329/177 200/330/177 199/331/177
f 200/330/178 201/124/178 204/123/178 203/332/178
f 197/329/179 198/333/179 201/124/179 200/330/179
f 199/331/180 200/330/180 203/332/180 202/334/180
f 7/42/181 3/111/181 198/110/181 197/43/181
f 17/7/182 4/6/182 196/335/182 199/336/182
f 201/124/183 198/333/183 213/337/183 211/125/183
f 21/33/184 17/7/184 199/336/184 202/338/184
f 208/4/185 209/3/185 217/339/185 216/340/185
f 210/341/186 206/342/186 214/343/186 218/344/186
f 207/112/187 208/345/187 216/346/187 215/347/187
f 211/125/188 213/337/188 221/348/188 219/349/188
f 20/35/189 204/38/189 212/350/189 206/342/189
f 91/48/190 20/35/190 206/342/190 210/341/190
f 98/2/191 91/351/191 210/352/191 209/3/191
f 3/111/192 116/353/192 208/345/192 207/112/192
f 232/354/193 235/355/193 222/356/193 226/357/193
f 233/358/194 224/359/194 240/360/194 241/361/194
f 16/362/195 230/363/195 229/364/195 227/365/195
f 231/366/196 232/367/196 226/368/196 225/369/196
f 213/113/197 207/112/197 215/347/197 221/370/197
f 206/342/198 212/350/198 220/371/198 214/343/198
f 212/126/199 211/125/199 219/349/199 220/372/199
f 209/3/200 210/352/200 218/373/200 217/339/200
f 223/374/201 205/375/201 227/376/201 229/377/201
f 223/374/202 224/378/202 225/379/202 205/375/202
f 205/375/203 225/379/203 226/380/203 222/381/203
f 205/375/204 222/381/204 228/382/204 227/376/204
f 233/358/205 231/366/205 225/369/205 224/359/205
f 229/364/206 230/363/206 237/383/206 238/384/206
f 235/355/207 236/385/207 228/386/207 222/356/207
f 236/387/208 16/362/208 227/365/208 228/388/208
f 250/389/209 243/390/209 16/362/209 236/387/209
f 249/391/210 250/392/210 236/385/210 235/355/210
f 246/393/211 245/394/211 234/395/211 230/396/211
f 248/397/212 244/398/212 231/366/212 233/358/212
f 244/398/213 247/399/213 232/367/213 231/366/213
f 243/390/214 246/400/214 230/363/214 16/362/214
f 245/394/215 248/401/215 233/402/215 234/395/215
f 247/403/216 249/391/216 235/355/216 232/354/216
f 242/404/217 241/405/217 240/406/217 239/407/217
f 237/408/218 242/404/218 239/407/218 238/409/218
f 234/410/219 233/411/219 241/412/219 242/413/219
f 224/378/220 223/374/220 239/414/220 240/415/220
f 230/416/221 234/410/221 242/413/221 237/417/221
f 223/374/222 229/377/222 238/418/222 239/414/222
f 218/344/223 214/343/223 249/391/223 247/403/223
f 215/347/224 216/346/224 248/401/224 245/394/224
f 219/349/225 221/348/225 246/400/225 243/390/225
f 217/339/226 218/373/226 247/399/226 244/398/226
f 216/340/227 217/339/227 244/398/227 248/397/227
f 221/370/228 215/347/228 245/394/228 246/393/228
f 214/343/229 220/371/229 250/392/229 249/391/229
f 220/372/230 219/349/230 243/390/230 250/389/230
f 252/419/231 251/420/231 254/421/231 253/422/231
f 255/423/232 257/424/232 252/425/232 253/426/232
f 258/427/233 256/428/233 254/421/233 251/420/233
f 24/107/234 90/34/234 256/429/234 258/430/234
f 89/45/235 26/119/235 257/431/235 255/432/235
f 90/46/236 89/45/236 255/432/236 256/428/236
f 84/433/237 85/434/237 260/134/237 259/133/237
f 275/435/238 84/433/238 259/133/238 261/172/238
f 85/434/239 276/436/239 262/149/239 260/134/239
f 276/436/240 284/437/240 283/438/240 275/435/240 261/172/240 262/149/240
f 84/439/241 275/440/241 279/441/241 263/442/241
f 266/443/242 264/444/242 278/445/242 280/446/242
f 276/436/243 85/434/243 267/447/243 282/448/243
f 278/449/244 264/450/244 265/451/244 277/452/244
f 277/452/245 265/451/245 263/442/245 279/441/245
f 266/443/246 280/446/246 281/453/246 268/454/246
f 268/454/247 281/453/247 282/448/247 267/447/247
f 85/455/248 84/456/248 263/457/248 265/458/248 264/459/248 266/460/248 268/461/248 267/462/248
f 106/463/249 284/464/249 276/465/249
f 271/466/250 269/467/250 278/468/250 277/469/250
f 270/470/251 271/466/251 277/469/251 279/471/251
f 273/202/252 274/201/252 281/472/252 280/473/252
f 274/201/253 272/474/253 282/475/253 281/472/253
f 269/467/254 273/202/254 280/473/254 278/468/254
f 111/476/255 270/470/255 279/471/255 275/477/255
f 272/474/256 106/463/256 276/465/256 282/475/256
f 285/478/257 286/479/257 292/480/257 291/204/257 290/203/257 288/481/257 287/482/257 289/483/257
f 283/484/258 111/476/258 275/477/258
f 270/470/259 111/476/259 285/478/259 289/483/259
f 294/485/260 286/479/260 285/478/260 293/486/260
f 111/476/261 283/484/261 293/486/261 285/478/261
f 106/463/262 272/474/262 292/480/262 286/479/262
f 272/474/263 274/201/263 291/204/263 292/480/263
f 269/467/264 271/466/264 287/482/264 288/481/264
f 283/438/265 284/437/265 294/487/265 293/488/265
f 273/202/266 269/467/266 288/481/266 290/203/266
f 284/464/267 106/463/267 286/479/267 294/485/267
f 271/466/268 270/470/268 289/483/268 287/482/268
f 297/489/269 295/490/269 36/491/269 100/492/269
f 296/208/270 298/493/270 104/198/270 301/197/270
f 101/494/271 298/493/271 296/208/271 35/207/271
f 36/196/272 302/495/272 303/496/272 301/197/272
f 299/497/273 296/498/273 301/499/273 303/500/273
f 295/490/274 300/501/274 302/502/274 36/491/274
f 298/184/275 297/183/275 100/503/275 104/504/275
f 385/1/276 474/4/276 475/3/276 372/2/276
f 384/505/277 371/506/277 314/507/277 307/508/277
f 306/9/278 309/12/278 312/11/278 308/10/278
f 308/10/279 312/11/279 310/14/279 307/13/279
f 312/11/280 311/16/280 305/15/280 310/14/280
f 309/12/281 304/17/281 311/16/281 312/11/281
f 304/17/282 321/19/282 324/18/282 311/16/282
f 383/509/283 361/510/283 321/511/283 304/512/283
f 385/513/284 380/514/284 309/515/284 306/516/284
f 380/514/285 383/509/285 304/512/285 309/515/285
f 384/505/286 373/517/286 15/29/286 6/28/286
f 373/517/287 382/518/287 12/31/287 15/29/287
f 371/506/288 366/519/288 316/520/288 314/507/288
f 315/521/289 470/522/289 469/523/289 318/524/289
f 385/513/290 372/525/290 18/39/290 5/28/290
f 307/526/291 462/527/291 463/528/291 308/529/291
f 365/530/292 318/524/292 316/531/292 366/532/292
f 367/533/293 315/521/293 318/524/293 365/530/293
f 318/524/294 469/523/294 468/534/294 316/531/294
f 372/525/295 367/535/295 23/50/295 18/39/295
f 328/52/296 397/55/296 400/54/296 333/53/296
f 399/56/297 412/59/297 410/58/297 402/57/297
f 382/518/298 360/536/298 34/60/298 12/31/298
f 311/16/299 324/18/299 322/62/299 305/15/299
f 321/537/300 396/538/300 395/539/300 324/540/300
f 355/541/301 353/542/301 48/69/301 41/68/301
f 360/536/302 355/541/302 41/68/302 34/60/302
f 361/543/303 406/544/303 407/545/303 321/537/303
f 324/540/304 395/539/304 394/546/304 322/547/304
f 353/542/305 348/548/305 56/76/305 48/69/305
f 354/78/306 414/81/306 411/80/306 359/79/306
f 396/82/307 413/83/307 412/59/307 399/56/307
f 6/28/308 19/39/308 371/506/308 384/505/308
f 340/84/309 345/87/309 344/86/309 339/85/309
f 349/549/310 347/550/310 345/551/310 340/552/310
f 11/92/311 33/93/311 361/510/311 383/509/311
f 5/28/312 14/29/312 380/514/312 385/513/312
f 14/29/313 11/92/313 383/509/313 380/514/313
f 405/553/314 408/554/314 409/555/314 340/556/314
f 322/62/315 394/98/315 397/55/315 328/52/315
f 307/508/316 310/557/316 373/517/316 384/505/316
f 345/87/317 352/101/317 351/100/317 344/86/317
f 347/550/318 342/558/318 352/559/318 345/551/318
f 310/557/319 305/560/319 382/518/319 373/517/319
f 348/548/320 346/561/320 63/105/320 56/76/320
f 19/39/321 24/107/321 366/519/321 371/506/321
f 339/85/322 344/86/322 343/109/322 338/108/322
f 464/562/323 479/563/323 473/564/323 306/565/323
f 520/114/324 518/117/324 517/116/324 519/115/324
f 23/118/325 367/533/325 365/530/325 26/119/325
f 351/100/326 357/122/326 356/121/326 350/120/326
f 470/123/327 478/126/327 477/125/327 467/124/327
f 346/561/328 341/566/328 72/127/328 63/105/328
f 33/93/329 40/68/329 359/567/329 361/510/329
f 344/86/330 351/100/330 350/120/330 343/109/330
f 305/560/331 322/568/331 360/536/331 382/518/331
f 328/569/332 333/570/332 353/542/332 355/541/332
f 357/122/333 522/134/333 521/133/333 356/121/333
f 322/568/334 328/569/334 355/541/334 360/536/334
f 336/571/335 332/572/335 88/137/335 80/136/335
f 342/558/336 337/573/336 358/574/336 352/559/336
f 352/101/337 358/141/337 357/122/337 351/100/337
f 333/570/338 338/575/338 348/548/338 353/542/338
f 341/566/339 336/571/339 80/136/339 72/127/339
f 320/576/340 330/577/340 96/145/340 110/144/340
f 40/68/341 47/69/341 354/578/341 359/567/341
f 379/148/342 370/151/342 369/150/342 524/149/342
f 323/579/343 331/580/343 370/581/343 379/582/343
f 55/156/344 62/157/344 347/550/344 349/549/344
f 337/573/345 335/583/345 364/584/345 358/574/345
f 358/141/346 364/160/346 522/134/346 357/122/346
f 47/69/347 55/156/347 349/549/347 354/578/347
f 391/161/348 376/164/348 375/163/348 392/162/348
f 389/585/349 327/586/349 376/587/349 391/588/349
f 62/157/350 71/169/350 342/558/350 347/550/350
f 338/575/351 343/589/351 346/561/351 348/548/351
f 343/589/352 350/590/352 341/566/352 346/561/352
f 524/149/353 369/150/353 368/173/353 523/172/353
f 356/591/354 521/592/354 332/593/354 336/594/354
f 71/169/355 79/178/355 337/573/355 342/558/355
f 327/586/356 103/181/356 105/180/356 325/595/356
f 392/162/357 375/163/357 560/184/357 559/183/357 393/182/357
f 350/590/358 356/596/358 336/571/358 341/566/358
f 523/597/359 368/598/359 330/577/359 320/576/359
f 107/188/360 95/189/360 331/580/360 323/579/360
f 393/599/361 559/600/361 557/601/361 390/602/361
f 79/178/362 87/194/362 335/583/362 337/573/362
f 374/603/363 377/604/363 561/605/363 326/606/363
f 126/199/364 103/181/364 327/586/364 389/585/364
f 376/587/365 327/586/365 325/595/365 375/607/365
f 536/608/366 553/609/366 552/610/366 535/611/366
f 390/602/367 557/601/367 300/206/367 125/205/367
f 335/583/368 323/579/368 379/582/368 364/584/368
f 364/160/369 379/148/369 524/149/369 522/134/369
f 325/612/370 105/210/370 299/209/370 558/613/370
f 332/593/371 320/576/371 110/144/371 88/211/371
f 369/614/372 387/615/372 388/616/372 368/598/372
f 87/194/373 107/188/373 323/579/373 335/583/373
f 330/577/374 319/617/374 113/215/374 96/145/374
f 521/618/375 523/619/375 320/620/375 332/572/375
f 368/598/376 388/616/376 319/617/376 330/577/376
f 95/189/377 118/221/377 317/621/377 331/580/377
f 331/580/378 317/621/378 386/622/378 370/581/378
f 370/151/379 386/224/379 387/223/379 369/150/379
f 388/616/380 393/599/380 390/602/380 319/617/380
f 118/221/381 126/199/381 389/585/381 317/621/381
f 387/223/382 392/162/382 393/182/382 388/225/382
f 319/617/383 390/602/383 125/205/383 113/215/383
f 317/621/384 389/585/384 391/588/384 386/622/384
f 386/224/385 391/161/385 392/162/385 387/223/385
f 396/82/386 399/56/386 398/227/386 395/226/386
f 398/227/387 401/228/387 400/54/387 397/55/387
f 395/226/388 398/227/388 397/55/388 394/98/388
f 401/228/389 404/230/389 403/229/389 400/54/389
f 399/56/390 402/57/390 401/228/390 398/227/390
f 402/57/391 405/231/391 404/230/391 401/228/391
f 338/623/392 403/624/392 404/625/392 339/626/392
f 333/53/393 400/54/393 403/229/393 338/108/393
f 340/556/394 409/555/394 415/627/394 349/628/394
f 339/626/395 404/625/395 405/553/395 340/556/395
f 407/545/396 329/629/396 423/630/396 413/631/396
f 410/58/397 419/243/397 416/242/397 408/241/397
f 411/80/398 420/246/398 334/245/398 406/244/398
f 414/81/399 424/247/399 420/246/399 411/80/399
f 412/59/400 422/248/400 419/243/400 410/58/400
f 408/554/401 416/632/401 417/633/401 409/555/401
f 402/57/402 410/58/402 408/241/402 405/231/402
f 349/251/403 415/252/403 414/81/403 354/78/403
f 321/537/404 407/545/404 413/631/404 396/538/404
f 359/79/405 411/80/405 406/244/405 361/253/405
f 419/243/406 430/255/406 428/254/406 416/242/406
f 420/246/407 431/257/407 426/256/407 334/245/407
f 424/247/408 434/258/408 431/257/408 420/246/408
f 422/248/409 432/259/409 430/255/409 419/243/409
f 416/632/410 428/634/410 429/635/410 417/633/410
f 423/262/411 433/263/411 432/259/411 422/248/411
f 415/252/412 425/264/412 424/247/412 414/81/412
f 409/555/413 417/633/413 425/636/413 415/627/413
f 406/544/414 334/637/414 329/629/414 407/545/414
f 413/83/415 423/262/415 422/248/415 412/59/415
f 454/638/416 418/639/416 443/640/416 453/641/416
f 450/271/417 439/274/417 436/273/417 451/272/417
f 448/275/418 440/278/418 421/277/418 446/276/418
f 447/279/419 444/280/419 440/278/419 448/275/419
f 449/281/420 442/282/420 439/274/420 450/271/420
f 436/273/421 458/284/421 460/283/421 451/272/421
f 329/629/422 427/642/422 433/643/422 423/630/422
f 425/264/423 435/287/423 434/258/423 424/247/423
f 417/633/424 429/635/424 435/644/424 425/636/424
f 334/637/425 426/645/425 427/642/425 329/629/425
f 421/646/426 440/647/426 441/648/426 418/649/426
f 437/650/427 436/651/427 439/652/427 438/653/427
f 440/647/428 444/654/428 438/653/428 441/648/428
f 441/648/429 442/655/429 443/656/429 418/649/429
f 444/654/430 445/657/430 437/650/430 438/653/430
f 438/653/431 439/652/431 442/655/431 441/648/431
f 455/302/432 445/303/432 444/280/432 447/279/432
f 455/302/433 461/305/433 459/304/433 445/303/433
f 446/658/434 421/659/434 418/639/434 454/638/434
f 453/308/435 443/309/435 442/282/435 449/281/435
f 433/263/436 453/308/436 449/281/436 432/259/436
f 426/645/437 446/658/437 454/638/437 427/642/437
f 429/635/438 452/660/438 455/661/438 435/644/438
f 435/287/439 455/302/439 447/279/439 434/258/439
f 428/634/440 451/662/440 452/660/440 429/635/440
f 432/259/441 449/281/441 450/271/441 430/255/441
f 434/258/442 447/279/442 448/275/442 431/257/442
f 431/257/443 448/275/443 446/276/443 426/256/443
f 430/255/444 450/271/444 451/272/444 428/254/444
f 427/642/445 454/638/445 453/641/445 433/643/445
f 460/663/446 458/664/446 457/665/446 456/666/446
f 456/666/447 457/665/447 459/667/447 461/668/447
f 451/669/448 460/670/448 456/671/448 452/672/448
f 437/650/449 457/673/449 458/674/449 436/651/449
f 452/672/450 456/671/450 461/675/450 455/676/450
f 445/657/451 459/677/451 457/673/451 437/650/451
f 462/328/452 465/331/452 466/330/452 463/329/452
f 466/330/453 469/332/453 470/123/453 467/124/453
f 463/329/454 466/330/454 467/124/454 464/333/454
f 465/331/455 468/334/455 469/332/455 466/330/455
f 308/529/456 463/528/456 464/562/456 306/565/456
f 314/507/457 465/678/457 462/679/457 307/508/457
f 467/124/458 477/125/458 479/337/458 464/333/458
f 316/520/459 468/680/459 465/678/459 314/507/459
f 474/4/460 482/340/460 483/339/460 475/3/460
f 476/681/461 484/682/461 480/683/461 472/684/461
f 473/564/462 481/685/462 482/686/462 474/687/462
f 477/125/463 485/349/463 487/348/463 479/337/463
f 315/521/464 472/684/464 478/688/464 470/522/464
f 367/533/465 476/681/465 472/684/465 315/521/465
f 372/2/466 475/3/466 476/352/466 367/351/466
f 306/565/467 473/564/467 474/687/467 385/689/467
f 498/690/468 492/691/468 488/692/468 501/693/468
f 499/358/469 507/361/469 506/360/469 490/359/469
f 313/362/470 493/365/470 495/364/470 496/363/470
f 497/366/471 491/369/471 492/368/471 498/367/471
f 479/563/472 487/694/472 481/685/472 473/564/472
f 472/684/473 480/683/473 486/695/473 478/688/473
f 478/126/474 486/372/474 485/349/474 477/125/474
f 475/3/475 483/339/475 484/373/475 476/352/475
f 489/696/476 495/697/476 493/698/476 471/699/476
f 489/696/477 471/699/477 491/700/477 490/701/477
f 471/699/478 488/702/478 492/703/478 491/700/478
f 471/699/479 493/698/479 494/704/479 488/702/479
f 499/358/480 490/359/480 491/369/480 497/366/480
f 495/364/481 504/384/481 503/383/481 496/363/481
f 501/693/482 488/692/482 494/705/482 502/706/482
f 502/387/483 494/388/483 493/365/483 313/362/483
f 516/389/484 502/387/484 313/362/484 509/390/484
f 515/707/485 501/693/485 502/706/485 516/708/485
f 512/709/486 496/710/486 500/711/486 511/712/486
f 514/397/487 499/358/487 497/366/487 510/398/487
f 510/398/488 497/366/488 498/367/488 513/399/488
f 509/390/489 313/362/489 496/363/489 512/400/489
f 511/712/490 500/711/490 499/713/490 514/714/490
f 513/715/491 498/690/491 501/693/491 515/707/491
f 508/716/492 505/717/492 506/718/492 507/719/492
f 503/720/493 504/721/493 505/717/493 508/716/493
f 500/722/494 508/723/494 507/724/494 499/725/494
f 490/701/495 506/726/495 505/727/495 489/696/495
f 496/728/496 503/729/496 508/723/496 500/722/496
f 489/696/497 505/727/497 504/730/497 495/697/497
f 484/682/498 513/715/498 515/707/498 480/683/498
f 481/685/499 511/712/499 514/714/499 482/686/499
f 485/349/500 509/390/500 512/400/500 487/348/500
f 483/339/501 510/398/501 513/399/501 484/373/501
f 482/340/502 514/397/502 510/398/502 483/339/502
f 487/694/503 512/709/503 511/712/503 481/685/503
f 480/683/504 515/707/504 516/708/504 486/695/504
f 486/372/505 516/389/505 509/390/505 485/349/505
f 252/419/506 517/731/506 518/732/506 251/420/506
f 519/733/507 517/734/507 252/425/507 257/424/507
f 258/427/508 251/420/508 518/732/508 520/735/508
f 24/107/509 258/430/509 520/736/509 366/519/509
f 365/530/510 519/737/510 257/431/510 26/119/510
f 366/532/511 520/735/511 519/737/511 365/530/511
f 362/433/512 521/133/512 522/134/512 363/434/512
f 537/435/513 523/172/513 521/133/513 362/433/513
f 363/434/514 522/134/514 524/149/514 538/436/514
f 538/436/515 524/149/515 523/172/515 537/435/515 545/438/515 546/437/515
f 362/738/516 525/739/516 541/740/516 537/741/516
f 528/443/517 542/446/517 540/445/517 526/444/517
f 538/436/518 544/448/518 529/447/518 363/434/518
f 540/742/519 539/743/519 527/744/519 526/745/519
f 539/743/520 541/740/520 525/739/520 527/744/520
f 528/443/521 530/454/521 543/453/521 542/446/521
f 530/454/522 529/447/522 544/448/522 543/453/522
f 363/746/523 529/747/523 530/748/523 528/749/523 526/750/523 527/751/523 525/752/523 362/753/523
f 378/754/524 538/755/524 546/756/524
f 533/757/525 539/758/525 540/759/525 531/760/525
f 532/761/526 541/762/526 539/758/526 533/757/526
f 535/611/527 542/763/527 543/764/527 536/608/527
f 536/608/528 543/764/528 544/765/528 534/766/528
f 531/760/529 540/759/529 542/763/529 535/611/529
f 381/767/530 537/768/530 541/762/530 532/761/530
f 534/766/531 544/765/531 538/755/531 378/754/531
f 547/769/532 551/770/532 549/771/532 550/772/532 552/610/532 553/609/532 554/773/532 548/774/532
f 545/775/533 537/768/533 381/767/533
f 532/761/534 551/770/534 547/769/534 381/767/534
f 556/776/535 555/777/535 547/769/535 548/774/535
f 381/767/536 547/769/536 555/777/536 545/775/536
f 378/754/537 548/774/537 554/773/537 534/766/537
f 534/766/538 554/773/538 553/609/538 536/608/538
f 531/760/539 550/772/539 549/771/539 533/757/539
f 545/438/540 555/488/540 556/487/540 546/437/540
f 535/611/541 552/610/541 550/772/541 531/760/541
f 546/756/542 556/776/542 548/774/542 378/754/542
f 533/757/543 549/771/543 551/770/543 532/761/543
f 559/778/544 374/779/544 326/780/544 557/781/544
f 558/613/545 561/605/545 377/604/545 560/782/545
f 375/783/546 325/612/546 558/613/546 560/782/546
f 326/606/547 561/605/547 303/496/547 302/495/547
f 299/497/548 303/500/548 561/784/548 558/785/548
f 557/781/549 326/780/549 302/502/549 300/501/549
f 560/184/550 377/504/550 374/503/550 559/183/550
f 562/786/551 575/787/551 574/788/551
f 563/789/552 575/790/552 577/791/552
f 562/792/553 574/793/553 579/794/553
f 562/795/554 579/796/554 581/797/554
f 562/798/555 581/799/555 578/800/555
f 563/789/556 577/791/556 584/801/556
f 564/802/557 576/803/557 586/804/557
f 565/805/558 580/806/558 588/807/558
f 566/808/559 582/809/559 590/810/559
f 567/811/560 583/812/560 592/813/560
f 563/789/561 584/801/561 587/814/561
f 564/802/562 586/804/562 589/815/562
f 565/805/563 588/807/563 591/816/563
f 566/808/564 590/810/564 593/817/564
f 567/811/565 592/813/565 585/818/565
f 568/819/566 594/820/566 599/821/566
f 569/822/567 595/823/567 601/824/567
f 570/825/568 596/826/568 602/827/568
f 571/828/569 597/829/569 603/830/569
f 572/831/570 598/832/570 600/833/570
f 600/833/571 603/834/571 573/835/571
f 600/833/572 598/832/572 603/834/572
f 598/832/573 571/828/573 603/834/573
f 603/830/574 602/836/574 573/837/574
f 603/830/575 597/829/575 602/836/575
f 597/829/576 570/825/576 602/836/576
f 602/827/577 601/838/577 573/839/577
f 602/827/578 596/826/578 601/838/578
f 596/826/579 569/840/579 601/838/579
f 601/824/580 599/841/580 573/842/580
f 601/824/581 595/823/581 599/841/581
f 595/823/582 568/819/582 599/841/582
f 599/821/583 600/843/583 573/844/583
f 599/821/584 594/820/584 600/843/584
f 594/820/585 572/831/585 600/843/585
f 585/818/586 598/832/586 572/831/586
f 585/818/587 592/813/587 598/832/587
f 592/813/588 571/828/588 598/832/588
f 593/817/589 597/829/589 571/828/589
f 593/817/590 590/810/590 597/829/590
f 590/810/591 570/825/591 597/829/591
f 591/816/592 596/826/592 570/825/592
f 591/816/593 588/807/593 596/826/593
f 588/807/594 569/840/594 596/826/594
f 589/815/595 595/823/595 569/822/595
f 589/815/596 586/804/596 595/823/596
f 586/804/597 568/819/597 595/823/597
f 587/814/598 594/820/598 568/819/598
f 587/814/599 584/801/599 594/820/599
f 584/801/600 572/831/600 594/820/600
f 592/813/601 593/817/601 571/828/601
f 592/813/602 583/812/602 593/817/602
f 583/812/603 566/808/603 593/817/603
f 590/810/604 591/816/604 570/825/604
f 590/810/605 582/809/605 591/816/605
f 582/809/606 565/805/606 591/816/606
f 588/807/607 589/845/607 569/840/607
f 588/807/608 580/806/608 589/845/608
f 580/806/609 564/846/609 589/845/609
f 586/804/610 587/814/610 568/819/610
f 586/804/611 576/803/611 587/814/611
f 576/803/612 563/789/612 587/814/612
f 584/801/613 585/818/613 572/831/613
f 584/801/614 577/791/614 585/818/614
f 577/791/615 567/811/615 585/818/615
f 578/800/616 583/812/616 567/811/616
f 578/800/617 581/799/617 583/812/617
f 581/799/618 566/808/618 583/812/618
f 581/797/619 582/809/619 566/808/619
f 581/797/620 579/796/620 582/809/620
f 579/796/621 565/805/621 582/809/621
f 579/794/622 580/806/622 565/805/622
f 579/794/623 574/793/623 580/806/623
f 574/793/624 564/846/624 580/806/624
f 577/791/625 578/847/625 567/811/625
f 577/791/626 575/790/626 578/847/626
f 575/790/627 562/848/627 578/847/627
f 574/788/628 576/803/628 564/802/628
f 574/788/629 575/787/629 576/803/629
f 575/787/630 563/789/630 576/803/630
f 604/786/631 616/788/631 617/787/631
f 605/789/632 619/791/632 617/790/632
f 604/792/633 621/794/633 616/793/633
f 604/795/634 623/797/634 621/796/634
f 604/798/635 620/800/635 623/799/635
f 605/789/636 626/801/636 619/791/636
f 606/802/637 628/804/637 618/803/637
f 607/805/638 630/807/638 622/806/638
f 608/808/639 632/810/639 624/809/639
f 609/811/640 634/813/640 625/812/640
f 605/789/641 629/814/641 626/801/641
f 606/802/642 631/815/642 628/804/642
f 607/805/643 633/816/643 630/807/643
f 608/808/644 635/817/644 632/810/644
f 609/811/645 627/818/645 634/813/645
f 610/819/646 641/821/646 636/820/646
f 611/822/647 643/824/647 637/823/647
f 612/825/648 644/827/648 638/826/648
f 613/828/649 645/830/649 639/829/649
f 614/831/650 642/833/650 640/832/650
f 642/833/651 615/835/651 645/834/651
f 642/833/652 645/834/652 640/832/652
f 640/832/653 645/834/653 613/828/653
f 645/830/654 615/837/654 644/836/654
f 645/830/655 644/836/655 639/829/655
f 639/829/656 644/836/656 612/825/656
f 644/827/657 615/839/657 643/838/657
f 644/827/658 643/838/658 638/826/658
f 638/826/659 643/838/659 611/840/659
f 643/824/660 615/842/660 641/841/660
f 643/824/661 641/841/661 637/823/661
f 637/823/662 641/841/662 610/819/662
f 641/821/663 615/844/663 642/843/663
f 641/821/664 642/843/664 636/820/664
f 636/820/665 642/843/665 614/831/665
f 627/818/666 614/831/666 640/832/666
f 627/818/667 640/832/667 634/813/667
f 634/813/668 640/832/668 613/828/668
f 635/817/669 613/828/669 639/829/669
f 635/817/670 639/829/670 632/810/670
f 632/810/671 639/829/671 612/825/671
f 633/816/672 612/825/672 638/826/672
f 633/816/673 638/826/673 630/807/673
f 630/807/674 638/826/674 611/840/674
f 631/815/675 611/822/675 637/823/675
f 631/815/676 637/823/676 628/804/676
f 628/804/677 637/823/677 610/819/677
f 629/814/678 610/819/678 636/820/678
f 629/814/679 636/820/679 626/801/679
f 626/801/680 636/820/680 614/831/680
f 634/813/681 613/828/681 635/817/681
f 634/813/682 635/817/682 625/812/682
f 625/812/683 635/817/683 608/808/683
f 632/810/684 612/825/684 633/816/684
f 632/810/685 633/816/685 624/809/685
f 624/809/686 633/816/686 607/805/686
f 630/807/687 611/840/687 631/845/687
f 630/807/688 631/845/688 622/806/688
f 622/806/689 631/845/689 606/846/689
f 628/804/690 610/819/690 629/814/690
f 628/804/691 629/814/691 618/803/691
f 618/803/692 629/814/692 605/789/692
f 626/801/693 614/831/693 627/818/693
f 626/801/694 627/818/694 619/791/694
f 619/791/695 627/818/695 609/811/695
f 620/800/696 609/811/696 625/812/696
f 620/800/697 625/812/697 623/799/697
f 623/799/698 625/812/698 608/808/698
f 623/797/699 608/808/699 624/809/699
f 623/797/700 624/809/700 621/796/700
f 621/796/701 624/809/701 607/805/701
f 621/794/702 607/805/702 622/806/702
f 621/794/703 622/806/703 616/793/703
f 616/793/704 622/806/704 606/846/704
f 619/791/705 609/811/705 620/847/705
f 619/791/706 620/847/706 617/790/706
f 617/790/707 620/847/707 604/848/707
f 616/788/708 606/802/708 618/803/708
f 616/788/709 618/803/709 617/787/709
f 617/787/710 618/803/710 605/789/710
