# Blender 5.1.1
# www.blender.org
mtllib low_poly_wolf_animated0001.mtl
o Wolf
v -0.156833 3.356695 -2.122820
v -0.537352 1.281088 -2.091609
v -0.004803 3.708458 -0.945055
v -0.523621 1.441445 -2.504065
v -0.721639 1.454623 -1.864182
v -0.037360 3.086020 3.231498
v 0.506664 3.522087 0.354881
v -0.524492 2.888277 -2.099655
v 0.171408 2.094669 -0.263617
v -0.772068 2.174244 -1.453482
v 0.146801 3.133283 2.966708
v -0.576768 1.573676 -1.676214
v -0.645879 3.145898 -1.093804
v -0.909668 0.079507 -2.271801
v 0.678849 2.970355 -1.846139
v -0.300438 2.058747 -1.566629
v -0.848713 2.119364 -1.903522
v -0.227204 2.591774 1.644857
v -0.593193 1.467107 -2.545639
v 0.292873 2.329119 -0.791315
v -0.252304 1.975287 0.323032
v -0.743854 0.013210 1.081508
v 0.474511 1.577073 -2.188257
v -0.707783 1.783036 0.589061
v -0.568609 0.020876 0.864785
v -0.090350 2.936331 -2.257917
v -0.504761 3.254466 -1.220533
v 0.261198 1.976592 0.322592
v -0.605707 2.747592 -0.245752
v -0.517521 1.712024 0.939722
v 0.563508 1.269620 -2.776964
v -0.455134 2.414106 -1.070670
v -0.584598 3.116436 1.450012
v -0.092219 2.210023 -3.275728
v 0.134148 2.162659 -1.672505
v -0.663682 2.644042 0.188461
v -0.318035 3.895580 1.153248
v -0.545753 0.277168 0.854809
v -0.505579 3.519510 0.355753
v -0.627999 1.656073 1.005099
v -0.552307 3.269868 1.273960
v 0.514664 3.615488 1.321945
v 0.298245 3.759973 2.936322
v -0.516698 4.273808 2.503862
v 0.277147 3.785538 2.954652
v 0.260986 3.791445 2.963109
v -0.793669 2.719728 -1.696615
v 0.225197 3.786686 2.974553
v -0.277012 3.595381 2.879567
v 0.196288 3.762230 2.975380
v 0.188097 3.745326 2.971544
v 0.514862 3.479112 2.387058
v 0.188174 3.710270 2.957202
v 0.196434 3.695551 2.948101
v -0.035668 2.953430 -2.318601
v 0.225433 3.678798 2.930415
v 0.243334 3.678402 2.923560
v 0.261223 3.683557 2.918972
v 0.558689 3.396771 1.086023
v 0.290131 3.708012 2.918144
v 0.298322 3.724921 2.921980
v -0.903064 0.178345 1.047193
v 0.298245 3.759973 2.936322
v -0.250632 3.748888 2.953780
v 0.277147 3.785538 2.954652
v 0.260986 3.791445 2.963109
v -0.799351 0.225352 1.129737
v 0.225197 3.786686 2.974553
v 0.921798 0.060050 1.097399
v 0.196288 3.762230 2.975380
v 0.188097 3.745326 2.971544
v 0.492184 3.156915 -1.551940
v 0.188174 3.710269 2.957202
v 0.196434 3.695551 2.948101
v 0.591768 0.528903 0.656305
v 0.225433 3.678797 2.930415
v 0.243334 3.678401 2.923560
v 0.261223 3.683557 2.918972
v -0.544772 4.032979 2.334346
v 0.290131 3.708012 2.918144
v 0.298322 3.724921 2.921980
v -0.301739 4.042990 2.837835
v -0.415747 2.725020 -2.250786
v -0.200313 4.000035 1.014249
v -0.308096 2.342817 -0.781336
v -0.050122 1.975868 -3.300720
v 0.728422 0.324615 -2.686978
v 0.823350 2.487692 -1.730021
v 0.237374 3.744272 2.948037
v -0.219006 3.723868 2.920254
v 0.652010 3.347250 0.302515
v 0.376840 3.011561 1.916447
v -0.458976 3.107115 -2.041174
v 0.669946 2.734555 -2.084585
v -0.637129 2.652985 1.446496
v 0.004201 2.589691 1.852253
v -0.124820 3.683920 3.010045
v 0.411952 2.712331 -2.264389
v -0.794417 2.675216 -1.286839
v -0.799563 0.061944 1.228788
v 0.576772 1.573679 -1.676196
v 0.317053 3.758997 2.888798
v 0.312820 3.784266 2.900698
v 0.300650 3.805949 2.914102
v 0.281734 3.821926 2.927704
v 0.257924 3.830633 2.940162
v 0.231549 3.831220 2.950268
v 0.205193 3.823621 2.957025
v 0.181434 3.808586 2.959775
v 0.162600 3.787587 2.958244
v 0.150532 3.762679 2.952590
v 0.146412 3.736304 2.943360
v 0.150645 3.711030 2.931460
v 0.162815 3.689347 2.918056
v 0.181731 3.673370 2.904458
v 0.205542 3.664663 2.891996
v 0.231916 3.664081 2.881890
v 0.258272 3.671675 2.875133
v 0.282031 3.686711 2.872388
v 0.300866 3.707709 2.873914
v 0.312934 3.732617 2.879568
v -0.293931 3.758465 2.936832
v -0.685074 0.969412 -2.687920
v 0.599756 0.952444 -2.447373
v -0.272931 3.784137 2.955126
v -0.256786 3.790127 2.963555
v 0.285411 3.744072 2.927725
v -0.220953 3.785550 2.974937
v -0.359941 2.089679 -2.081599
v -0.191919 3.761242 2.975715
v -0.183649 3.744379 2.971864
v -0.599756 0.952444 -2.447373
v -0.183572 3.709323 2.957522
v -0.191773 3.694562 2.948435
v -0.629993 0.543062 0.613188
v -0.220717 3.677661 2.930799
v -0.238627 3.677174 2.923975
v -0.256550 3.682238 2.919418
v -0.742918 2.868454 1.337657
v -0.285584 3.706547 2.918639
v -0.293854 3.723413 2.922490
v 0.458809 3.107361 -2.041361
v 0.517640 4.276441 2.502972
v -0.715997 1.462972 -2.433004
v 0.004235 3.089276 3.368652
v -0.419002 3.816654 0.857085
v -0.235463 3.721620 2.914999
v -0.296938 2.009037 0.675197
v -0.342328 4.109518 2.711196
v 0.079956 3.248712 3.438186
v -0.877881 0.164588 0.883284
v 0.481748 2.088676 -2.325141
v -0.644665 0.029178 -2.274673
v 0.589619 3.119425 1.449001
v -0.139246 3.132555 2.966954
v 0.659344 2.484349 1.350596
v -0.749278 2.305562 -2.103044
v -0.159428 2.821068 2.157981
v -0.219653 3.733470 2.941075
v -0.585497 1.871031 0.393510
v 0.301020 2.058895 -1.566796
v -0.312815 3.757394 2.889340
v -0.308691 3.782683 2.901233
v -0.296608 3.804428 2.914616
v -0.277751 3.820502 2.928185
v -0.253963 3.829330 2.940603
v -0.227575 3.830051 2.950663
v -0.201168 3.822586 2.957375
v -0.177329 3.807673 2.960084
v -0.158390 3.786770 2.958520
v -0.146205 3.761924 2.952845
v -0.141967 3.735569 2.943609
v -0.146092 3.710275 2.931715
v -0.158174 3.688529 2.918332
v -0.177032 3.672457 2.904767
v -0.200820 3.663628 2.892345
v -0.227208 3.662912 2.882285
v -0.253614 3.670372 2.875573
v -0.277454 3.685286 2.872869
v -0.296393 3.706188 2.874428
v -0.308577 3.731035 2.880103
v 0.444348 3.887372 1.416923
v 0.793782 2.720013 -1.696707
v 0.204165 3.263469 3.178243
v -0.474511 1.577073 -2.188257
v -0.268775 3.754499 0.358699
v 0.066395 3.863961 0.691720
v -0.737593 1.772605 -1.560743
v -0.678829 2.969878 -1.845976
v -0.745742 2.034613 1.078311
v -0.824353 1.797937 -1.737663
v 0.562376 3.594563 1.977963
v 0.483644 2.048672 -1.261644
v -0.492407 3.155145 -1.551324
v 0.367969 3.498682 2.759036
v -0.482497 2.048112 -1.261654
v 0.721639 1.454623 -1.864182
v 0.012005 3.650769 3.130689
v -0.325797 3.033077 -2.180961
v 0.004899 2.003047 0.927316
v -0.758763 2.521518 1.241299
v -0.271586 4.056305 1.435503
v -0.545745 1.026993 -2.651609
v -0.542082 3.472294 -0.166384
v 0.158361 3.504240 -1.874017
v -0.537696 2.406678 -0.300383
v -0.441254 4.189278 2.383123
v 0.529044 1.783265 0.434473
v 0.716360 2.122282 0.812899
v -0.650123 3.343936 0.303636
v -0.594856 1.485728 0.488347
v -0.499923 3.379783 1.435496
v -0.495414 3.491482 2.249168
v -0.577528 3.305365 -0.172527
v -0.634224 1.258957 -2.766680
v 0.219827 3.169662 2.603406
v -0.611601 3.090727 0.630915
v 0.609686 2.750685 -0.246798
v -0.506191 2.978900 -0.696853
v 0.004162 3.085313 3.272209
v -0.545977 3.958406 2.463287
v 0.634224 1.258957 -2.766680
v -0.293931 3.758465 2.936832
v 0.067826 1.942933 -3.692602
v -0.195191 3.594748 -1.374522
v -0.272931 3.784137 2.955126
v -0.256786 3.790127 2.963555
v -0.599073 0.362791 -2.458445
v -0.220953 3.785550 2.974937
v 0.901186 0.077267 -2.258060
v -0.191919 3.761242 2.975715
v -0.183649 3.744379 2.971864
v -0.826146 0.002602 0.842043
v -0.183572 3.709323 2.957522
v -0.191773 3.694563 2.948435
v -0.076834 1.943174 -3.692398
v -0.220717 3.677662 2.930799
v -0.238627 3.677175 2.923975
v -0.256550 3.682239 2.919418
v 0.848714 2.119363 -1.903520
v -0.285584 3.706547 2.918639
v -0.293854 3.723414 2.922490
v -0.800941 0.258207 -2.209489
v -0.003854 1.948626 -3.237368
v -0.777268 0.383257 0.858247
v 0.419441 3.818785 0.856359
v 0.192423 3.592437 -1.381208
v -0.111644 3.138215 3.050303
v 0.230314 3.803709 3.015974
v 0.739739 2.985373 -1.007833
v -0.367967 3.909551 2.840277
v 0.304434 4.044533 2.837313
v -0.096588 3.107730 -2.432294
v -0.259915 3.722871 2.917641
v 0.083585 3.102046 3.167270
v 0.045601 3.091815 3.238184
v -0.488368 3.266343 -0.727835
v -0.254443 3.684441 -0.232509
v -0.004795 1.787610 -3.712504
v 0.508184 2.981427 -0.697711
v 0.306267 2.010572 0.674679
v 0.425782 2.534860 -0.765349
v 0.450000 3.993344 1.964146
v -0.555705 3.393936 1.086983
v -0.001113 2.646301 -2.539476
v 0.595039 1.874037 0.392494
v -0.911004 0.081911 -2.277959
v -0.161652 3.561016 3.090939
v -0.232960 3.743074 2.948442
v -0.291851 2.641704 -2.280653
v 0.766448 2.525400 1.239988
v 0.476244 1.824215 0.585593
v -0.709643 2.946975 -1.516857
v -0.360393 3.522375 -0.751631
v 0.737595 1.772612 -1.560728
v 0.567212 4.432425 2.557603
v 0.459725 1.745237 -1.694620
v -0.563868 0.320955 -2.668076
v 0.709923 2.948219 -1.517283
v -0.196907 3.262448 3.178588
v 0.824356 1.797940 -1.737649
v 0.646675 0.546312 0.612089
v 0.764038 0.017049 1.080210
v 0.000144 4.101014 1.608902
v 0.501993 0.112164 -2.427250
v 0.140192 2.824947 -2.532865
v 0.224104 3.734600 2.940692
v 0.001014 2.274550 -1.992254
v 0.004170 3.079729 3.265451
v 0.119315 3.138803 3.050105
v -0.142008 2.825182 -2.532587
v 0.083577 3.107630 3.174029
v 0.755415 0.236942 0.736368
v 0.628524 4.342955 2.551233
v 0.488880 3.268721 -0.728648
v -0.390080 3.661941 1.180457
v -0.592041 2.210774 -2.304225
v 0.158907 3.634015 3.030868
v 0.593193 1.467107 -2.545638
v 0.845971 0.006859 0.840603
v 0.045610 3.086231 3.231426
v 0.546648 4.035758 2.333407
v 0.542507 3.475055 -0.167318
v 0.504539 3.256659 -1.221278
v 0.537352 1.281088 -2.091609
v 0.344475 4.202649 2.507257
v -0.071179 3.247877 3.435619
v 0.001479 2.216365 -1.405469
v -0.271765 2.334595 -1.142476
v 0.255025 3.750175 2.953344
v -0.787951 0.038028 -2.321540
v -0.603921 0.947820 0.865151
v 0.535519 2.160708 0.506649
v 0.225928 2.211412 -1.937177
v 0.615341 3.093850 0.629859
v 0.556245 3.272687 1.273004
v 0.919992 0.211745 -2.325811
v 0.929417 0.061306 1.085025
v -0.469639 2.050201 0.433536
v -0.728422 0.324615 -2.686978
v -0.214603 3.727565 2.927830
v -0.574922 0.525932 0.657309
v 0.795184 0.387261 0.856893
v 0.714864 3.030615 0.841643
v 0.163239 3.647763 2.959422
v 0.391864 3.663929 1.179779
v -0.710436 3.026989 0.842869
v 0.759423 0.331893 -2.508353
v 0.409827 1.975693 0.480914
v -0.422154 2.532987 -0.764779
v -0.003070 2.363029 -3.282336
v -0.669947 2.734578 -2.084510
v 0.896951 0.169107 0.881757
v 0.787951 0.038028 -2.321540
v -0.270206 3.726039 2.925318
v 0.001283 4.098613 2.924275
v -0.000425 3.392878 -2.242008
v 0.639688 1.659300 1.004008
v -0.258943 3.892619 0.811615
v 0.328648 2.967305 -2.199054
v 0.790075 1.542133 0.940601
v -0.590517 3.650087 0.872449
v -0.919992 0.211745 -2.325811
v -0.370471 3.009651 1.917089
v -0.443296 3.885112 1.417687
v -0.436785 4.014770 1.953125
v -0.400653 1.973630 0.481611
v -0.019734 2.210404 -0.770296
v -0.412254 2.203638 -0.287559
v 0.398816 2.255010 1.308794
v -0.909447 0.056625 1.086608
v 0.359613 3.524028 -0.752176
v -0.297047 2.952754 2.100737
v 0.331914 3.312561 2.561253
v 0.235234 2.592955 1.644463
v 0.001978 3.881050 3.088171
v -0.419659 2.808097 1.717913
v -0.575179 3.598153 1.603744
v -0.763420 0.094092 -2.111494
v 0.004378 1.964226 0.209092
v -0.611558 2.454278 -1.108904
v -0.510060 3.476503 2.387940
v -0.481737 2.088708 -2.325157
v -0.644960 3.374675 1.635677
v 0.264654 3.679448 -0.238759
v 0.603559 0.611087 0.829305
v 0.618976 0.950934 0.864098
v 0.700327 0.735821 0.896738
v -0.139312 2.578179 1.770192
v -0.563508 1.269620 -2.776964
v -0.212104 3.171245 2.553508
v 0.668934 2.647429 0.187315
v 0.479204 2.768903 -0.690805
v -0.795059 -0.016685 1.151842
v 0.838155 0.667551 0.824602
v 0.646307 3.148610 -1.094729
v 0.371345 3.911433 2.839641
v 0.426710 2.810261 1.717189
v 0.503581 3.382337 1.434627
v 0.374054 3.468554 -1.283092
v -0.512386 3.612875 1.322834
v 0.624983 2.713249 0.577296
v 0.909668 0.079507 -2.271801
v -0.738609 2.982537 -1.006892
v 0.156148 3.356891 -2.122932
v 0.599073 0.362791 -2.458445
v -0.836562 0.019374 -2.182245
v -0.075535 3.107224 3.174166
v 0.027416 3.010389 3.239018
v 0.718109 1.786666 0.587834
v 0.267233 3.750181 2.948221
v 0.699648 0.291953 0.960863
v 0.291601 2.641564 -2.280722
v 0.167174 2.821905 2.157701
v -0.728766 2.580301 0.799456
v 0.085451 2.209733 -3.275971
v 0.240810 3.959391 0.978264
v 0.426361 4.163114 2.257211
v -0.136033 3.070516 3.255558
v -0.707356 2.118658 0.814124
v 0.295509 4.086996 1.957240
v -0.619395 2.710084 0.578366
v -0.627836 4.339756 2.552315
v 0.772555 2.174659 -1.453545
v 0.626504 2.218908 1.265847
v 0.066431 3.275616 3.540675
v -0.262848 3.748832 2.948677
v -0.518968 1.780597 0.435375
v -0.777896 1.538141 0.941950
v 0.644499 2.656245 1.445398
v 0.578793 3.308308 -0.173523
v -0.310381 2.145449 1.148138
v 0.467693 1.978401 1.061907
v 0.922346 0.182992 1.045622
v 0.930632 0.063057 1.079424
v 0.911004 0.081911 -2.277959
v 0.735393 2.584026 0.798197
v -0.159537 3.503875 -1.873944
v 0.457603 2.415886 -1.070600
v 0.648986 3.377970 1.634559
v 0.144401 3.071230 3.255317
v -0.389640 2.253003 1.309472
v 0.042261 1.975715 -3.300853
v 0.004771 2.171426 1.277385
v 0.338544 3.409077 -1.753031
v 0.815516 -0.012585 1.150455
v -0.457531 1.976046 1.062703
v 0.795199 2.676482 -1.287194
v 0.168871 2.506940 -2.201923
v -0.682395 1.020726 -2.439944
v 0.264378 3.724206 2.917190
v -0.823350 2.487691 -1.730021
v 0.095570 3.107703 -2.432445
v -0.152709 2.164155 -1.661253
v 0.545745 1.026993 -2.651609
v 0.523621 1.441445 -2.504065
v 0.588383 0.023821 0.863789
v -0.530493 0.183402 -2.244859
v -0.281031 3.742630 2.928212
v -0.586834 0.608056 0.830330
v -0.821722 0.663325 0.826031
v -0.226086 3.802547 3.016366
v 0.524318 2.888202 -2.099806
v 0.318580 3.897201 1.152700
v -0.066539 3.301394 3.512728
v -0.501993 0.112164 -2.427250
v 0.114347 4.230842 2.607302
v -0.585859 0.117655 1.131926
v 0.606523 1.488786 0.487313
v -0.117534 3.078394 2.907152
v 0.239928 3.722830 2.914590
v 0.564206 0.279994 0.853854
v 0.499901 3.494015 2.248311
v -0.277965 3.733104 2.929408
v -0.558866 3.591709 1.978928
v -0.167660 2.504379 -2.196878
v 0.530493 0.183402 -2.244859
v 0.543317 2.409425 -0.301312
v -0.759423 0.331893 -2.508353
v -0.901801 0.055407 1.098969
v 0.613222 2.455756 -1.109107
v -0.681070 0.288438 0.962051
v -0.000623 3.566077 -1.917398
v 0.319830 2.147054 1.147595
v -0.339829 3.407948 -1.752673
v 0.605600 0.120689 1.130901
v -0.736131 3.060461 1.072210
v 0.818537 0.229471 1.128345
v 0.800941 0.258207 -2.209489
v -0.901186 0.077267 -2.258060
v 0.836562 0.019374 -2.182245
v 0.268672 3.755867 0.358237
v -0.001002 2.975756 -2.732358
v -0.078054 4.120874 1.975069
v -0.257497 4.198270 2.239839
v -0.111636 3.132631 3.043545
v -0.476276 2.766613 -0.690037
v 0.271799 4.057688 1.435035
v -0.225467 2.211277 -1.937090
v 0.755628 2.038435 1.077019
v 0.740784 3.064217 1.070939
v -0.459699 1.745231 -1.694622
v 0.578018 3.601090 1.602740
v 0.219060 3.728669 2.927457
v 0.478339 2.052614 0.432721
v 0.715997 1.462972 -2.433004
v -0.000148 3.758289 0.256119
v -0.845980 0.074425 -2.524513
v -0.684119 0.732297 0.897930
v 0.763420 0.094092 -2.111494
v 0.682395 1.020726 -2.439944
v 0.513769 2.915765 1.548559
v -0.037369 3.091604 3.238256
v -0.566969 4.429538 2.558579
v 0.528814 1.714688 0.938821
v 0.252646 3.154455 2.819093
v 0.004783 1.945020 0.620988
v -0.375343 3.467030 -1.282676
v -0.005227 1.967951 -4.175044
v -0.910681 0.058369 1.081009
v 0.344465 4.111267 2.710605
v 0.563868 0.320955 -2.668076
v -0.583292 0.034837 -2.532700
v 0.074510 2.939733 -2.257509
v 0.274667 3.727426 2.924848
v 0.701436 0.996943 -2.536500
v 0.223469 3.724994 2.919873
v 0.749278 2.305562 -2.103044
v 0.282396 3.734530 2.928926
v -0.701436 0.996943 -2.536499
v -0.527241 2.158003 0.507564
v 0.793067 2.145299 1.001451
v 0.685074 0.969412 -2.687920
v 0.845980 0.074425 -2.524513
v -0.075526 3.101641 3.167407
v 0.147628 2.578912 1.769947
v 0.282058 3.596804 2.879086
v 0.591826 3.653096 0.871430
v 0.099067 3.068879 -2.284976
v 0.003592 3.060903 2.538403
v -0.507543 2.913163 1.549436
v 0.583292 0.034837 -2.532701
v -0.617215 2.215743 1.266916
v -0.736943 0.233142 0.737653
v -0.245451 3.153188 2.819521
v 0.548455 3.961192 2.462344
v 0.012778 2.882655 2.269658
v 0.360082 2.089774 -2.081603
v -0.651261 2.481014 1.351721
v -0.362629 3.496822 2.759665
v 0.592039 2.210783 -2.304228
v 0.274518 2.335924 -1.142155
v 0.004305 2.428206 1.495874
v -0.325967 3.310886 2.561819
v 0.418935 2.205736 -0.288264
v -0.164123 2.093843 -0.263347
v 0.749004 2.872250 1.336374
v -0.783854 2.141285 1.002808
v 0.229438 4.206578 2.254492
v 0.304022 2.954296 2.100221
v 0.819752 0.066067 1.227394
v 0.119323 3.133219 3.043346
v 0.125263 3.079012 2.906943
v -0.466117 1.821816 0.586404
v 0.644665 0.029178 -2.274673
v -0.318318 4.195667 2.554500
vn 0.3272 -0.3572 0.8749
vn 0.7899 0.2274 -0.5695
vn 0.3273 -0.3570 0.8749
vn -0.9894 -0.0244 -0.1434
vn -0.8635 -0.4620 0.2021
vn 0.3272 -0.3572 0.8748
vn -0.3645 -0.7817 0.5060
vn 0.8515 -0.0981 -0.5151
vn -0.0594 0.9911 -0.1189
vn 0.3272 -0.3570 0.8749
vn 0.9451 -0.1521 -0.2892
vn -0.9115 -0.3815 -0.1537
vn -0.9628 0.2107 -0.1694
vn -0.2243 -0.8311 0.5089
vn -0.8686 0.1848 0.4599
vn -0.9733 0.0517 -0.2237
vn -0.7470 -0.5931 0.3003
vn -0.4642 -0.0935 0.8808
vn 0.4472 -0.4352 0.7814
vn -0.6769 0.3018 -0.6713
vn 0.6067 0.7880 -0.1050
vn -0.1517 -0.9795 -0.1323
vn -0.2057 -0.9472 -0.2458
vn 0.8269 0.5103 -0.2362
vn 0.8551 0.5176 -0.0308
vn -0.9937 0.0065 -0.1123
vn -0.0506 -0.9981 -0.0339
vn 0.8527 -0.5011 0.1477
vn 0.4378 -0.8897 -0.1293
vn -0.9109 0.0768 -0.4055
vn 0.3274 -0.3572 0.8748
vn 0.2081 0.9226 -0.3249
vn -0.5191 0.8535 -0.0450
vn -0.2172 -0.9677 -0.1280
vn 0.9923 -0.0516 -0.1125
vn -0.6091 0.7931 0.0011
vn 0.4860 0.8366 -0.2528
vn 0.7600 0.3806 -0.5268
vn -0.7635 -0.0471 0.6441
vn -0.0801 0.9968 -0.0072
vn 0.9921 0.1249 0.0098
vn 0.0077 0.9881 -0.1533
vn -0.8908 -0.3897 -0.2337
vn 0.9805 0.0909 -0.1742
vn -0.1647 -0.7338 0.6591
vn 0.6121 -0.4439 0.6544
vn -0.5947 -0.7943 0.1240
vn -0.1179 0.9307 0.3462
vn -0.1357 -0.8538 0.5025
vn 0.8189 -0.0400 -0.5725
vn -0.9863 0.1645 0.0161
vn -0.9561 -0.1574 -0.2474
vn -0.4411 -0.8900 -0.1157
vn 0.2159 0.9729 -0.0831
vn 0.6528 -0.7071 0.2718
vn 0.9786 -0.1648 -0.1232
vn 0.4282 0.7760 -0.4632
vn 0.3275 -0.3572 0.8748
vn 0.2785 0.8760 0.3937
vn -0.3536 -0.8520 0.3860
vn 0.6158 0.6468 0.4500
vn -0.4614 -0.8708 -0.1696
vn -0.0845 -0.2963 0.9514
vn -0.7744 0.4312 -0.4630
vn -0.2539 0.5380 0.8038
vn -0.6997 0.5271 0.4822
vn 0.3271 -0.3573 0.8748
vn -0.4460 -0.4357 0.7818
vn -0.1268 0.1622 -0.9786
vn 0.9799 -0.1959 0.0373
vn -0.2345 0.8787 -0.4158
vn -0.8889 0.1651 -0.4274
vn -0.8323 -0.4026 0.3810
vn -0.9936 0.0996 -0.0542
vn -0.8936 0.4484 0.0189
vn -0.0129 -0.1853 0.9826
vn 0.8914 0.4529 0.0172
vn 0.0120 -0.1736 -0.9848
vn -0.0101 -0.7989 0.6014
vn -0.5554 0.3347 -0.7612
vn -0.6983 0.6583 -0.2812
vn 0.9382 -0.3202 0.1312
vn 0.2258 -0.9701 0.0896
vn -0.1966 0.2710 -0.9423
vn 0.9988 0.0490 0.0045
vn -0.4107 -0.8760 -0.2529
vn 0.0673 0.9307 -0.3595
vn 0.6793 0.2972 -0.6710
vn -0.6544 -0.5842 0.4801
vn -0.9330 0.3039 -0.1926
vn 0.4044 -0.8772 -0.2586
vn -0.7192 -0.3605 0.5940
vn -0.9489 0.2632 -0.1740
vn -0.4467 -0.4034 0.7986
vn -0.9497 0.3120 0.0265
vn -0.3566 -0.8769 -0.3224
vn -0.0744 -0.8786 0.4716
vn -0.3093 -0.8016 0.5116
vn -0.2329 -0.8674 0.4397
vn 0.9961 -0.0298 0.0827
vn 0.0941 -0.9491 0.3005
vn -0.9834 -0.0210 -0.1801
vn -0.5745 0.5795 -0.5780
vn -0.4443 -0.6381 0.6288
vn 0.3557 -0.9323 -0.0655
vn -0.4443 -0.6381 0.6289
vn 0.8598 -0.4646 0.2118
vn -0.1109 -0.1134 -0.9873
vn 0.8598 -0.4646 0.2119
vn 0.7966 0.5901 0.1313
vn 0.8923 -0.1871 0.4108
vn 0.3231 -0.9187 0.2272
vn -0.2201 -0.6167 0.7558
vn 0.6402 -0.7513 0.1605
vn 0.7256 -0.6640 0.1807
vn 0.5365 -0.7974 0.2762
vn 0.5378 0.4569 0.7085
vn 0.8023 0.2867 0.5236
vn 0.9300 0.3236 -0.1746
vn -0.3451 0.1559 0.9255
vn 0.9450 -0.1221 0.3034
vn 0.7533 -0.6380 -0.1596
vn -0.9197 -0.1267 0.3717
vn 0.7046 0.2786 0.6527
vn 0.8583 0.1862 0.4781
vn -0.4457 0.0128 0.8951
vn -0.3116 0.2120 0.9263
vn 0.6294 0.3287 0.7042
vn -0.5404 -0.3196 0.7783
vn 0.2007 0.5066 0.8385
vn -0.8004 0.3172 0.5087
vn -0.2355 0.3096 0.9212
vn -0.8777 0.4167 -0.2368
vn -0.0770 0.2959 0.9521
vn -0.9218 0.3112 0.2313
vn 0.9938 0.0099 0.1103
vn 0.4617 0.6841 0.5647
vn 0.0942 -0.9492 0.3004
vn -0.8576 0.5135 -0.0294
vn -0.6262 0.6800 0.3814
vn -0.5155 -0.4342 0.7387
vn -0.7759 0.1766 -0.6056
vn 0.9894 -0.0002 0.1450
vn -0.7761 0.5943 -0.2107
vn -0.7973 0.5884 0.1345
vn -0.7187 0.6342 0.2850
vn -0.8004 0.1677 -0.5756
vn 0.9300 -0.2420 0.2765
vn -0.8551 0.4247 0.2974
vn 0.3230 -0.9187 0.2272
vn -0.9534 0.0891 -0.2881
vn 0.0742 -0.0186 0.9971
vn -0.9233 -0.3417 0.1751
vn -0.7504 -0.6607 -0.0206
vn -0.9834 -0.0006 0.1817
vn 0.9912 0.0445 -0.1247
vn -0.6752 0.1822 0.7147
vn 0.3200 0.4972 0.8064
vn 0.8889 0.1651 -0.4274
vn -0.4588 -0.8819 -0.1089
vn 0.8941 -0.0593 0.4439
vn 0.6085 0.7837 -0.1247
vn -0.6449 -0.6682 0.3710
vn -0.1907 -0.7948 0.5762
vn 0.9225 0.3771 -0.0826
vn -0.6591 -0.7201 0.2170
vn -0.7150 -0.5732 0.4003
vn -0.4352 -0.2361 0.8689
vn 0.9022 -0.4016 -0.1574
vn 0.8409 -0.0242 -0.5406
vn 0.1230 0.3862 0.9142
vn 0.2418 -0.8048 0.5421
vn -0.9906 -0.0212 0.1355
vn -0.8642 0.4749 -0.1661
vn -0.8642 0.4470 0.2311
vn -0.8422 0.4420 0.3086
vn 0.7478 -0.3665 0.5537
vn -0.1234 0.3856 0.9144
vn 0.9028 0.4248 0.0669
vn 0.9787 -0.1891 0.0797
vn 0.4378 -0.2339 0.8681
vn 0.4554 -0.2232 -0.8619
vn -0.4805 0.8647 0.1464
vn -0.5029 -0.3110 0.8064
vn -0.9423 0.1863 -0.2781
vn 0.0506 -0.9981 -0.0339
vn -0.8037 -0.2198 0.5530
vn -0.8931 -0.0638 0.4454
vn 0.0160 -0.9903 -0.1382
vn -0.2829 0.9591 -0.0133
vn -0.3212 0.4956 0.8070
vn -0.7093 0.5234 0.4722
vn -0.7596 0.3629 -0.5397
vn 0.7935 -0.5062 -0.3378
vn -0.5455 -0.8229 0.1589
vn -0.8425 0.0677 -0.5344
vn 0.7006 0.6188 -0.3553
vn 0.9948 0.0074 0.1013
vn -0.3179 -0.9204 0.2278
vn -0.8299 0.5061 -0.2348
vn -0.9283 -0.2467 0.2781
vn -0.9616 -0.1593 -0.2233
vn 0.0012 0.7378 0.6750
vn 0.5527 0.8129 -0.1837
vn 0.6489 -0.6649 0.3699
vn -0.3127 -0.9481 -0.0577
vn -0.7917 -0.5103 -0.3358
vn 0.5190 -0.4316 0.7378
vn -0.2958 0.4576 -0.8385
vn 0.8648 -0.1884 0.4655
vn -0.0888 -0.9496 0.3005
vn 0.9926 -0.0777 -0.0931
vn 0.1430 0.9895 -0.0231
vn 0.1034 0.9629 -0.2494
vn 0.0772 0.2962 0.9520
vn -0.8727 -0.0840 -0.4810
vn 0.2355 0.3108 0.9208
vn -0.8416 0.4476 0.3022
vn -0.2019 0.5056 0.8388
vn 0.5434 -0.3169 0.7774
vn -0.7920 0.2233 -0.5682
vn 0.4472 0.0151 0.8943
vn 0.3121 0.2136 0.9257
vn 0.4472 0.0150 0.8943
vn -0.8584 0.1818 0.4796
vn -0.7049 0.2750 0.6539
vn 0.9098 0.0814 -0.4071
vn 0.9839 0.0459 -0.1727
vn -0.9439 -0.1269 0.3050
vn -0.3615 -0.9231 0.1312
vn 0.7568 0.3668 -0.5410
vn -0.5389 0.4542 0.7094
vn -0.8028 0.2826 0.5250
vn -0.5389 0.4542 0.7095
vn -0.5320 -0.8001 0.2772
vn -0.7219 -0.6677 0.1819
vn -0.6361 -0.7545 0.1616
vn 0.8651 -0.1828 0.4670
vn -0.3180 -0.9203 0.2278
vn -0.9848 -0.0293 0.1712
vn -0.8482 0.4851 -0.2126
vn -0.8571 -0.4689 0.2134
vn -0.9705 -0.1791 0.1614
vn -0.8570 -0.4690 0.2133
vn 0.4486 -0.6358 0.6281
vn -0.0742 -0.0186 0.9971
vn -0.4899 -0.5264 0.6949
vn -0.9671 -0.0037 0.2544
vn -0.0887 -0.9496 0.3007
vn 0.1101 -0.4450 -0.8887
vn 0.2381 -0.8662 0.4393
vn 0.3143 -0.8000 0.5111
vn 0.0797 -0.8783 0.4715
vn 0.9925 -0.0765 0.0957
vn -0.6880 -0.5864 0.4276
vn -0.9780 0.1575 -0.1370
vn -0.9764 -0.1828 -0.1148
vn 0.7103 0.2322 -0.6645
vn -0.7499 -0.1361 0.6474
vn 0.6427 -0.5532 0.5301
vn 0.9836 -0.0006 0.1801
vn -0.6753 0.3830 0.6304
vn 0.9907 0.0664 -0.1191
vn 0.9802 -0.1854 0.0694
vn -0.6513 0.0014 0.7588
vn 0.2896 -0.0379 0.9564
vn 0.0765 -0.6461 0.7594
vn -0.9464 -0.3036 0.1099
vn -0.0122 0.2445 -0.9696
vn 0.6050 0.6512 -0.4582
vn -0.3929 0.9096 -0.1349
vn 0.8992 -0.1098 0.4235
vn -0.4300 0.7751 -0.4630
vn -0.2443 0.8651 0.4382
vn -0.7200 -0.4758 0.5051
vn 0.9717 -0.1742 0.1598
vn 0.9782 -0.1896 0.0849
vn -0.9721 0.0155 0.2340
vn 0.6063 0.7952 -0.0002
vn 0.9935 -0.1016 -0.0510
vn 0.9817 0.0783 -0.1736
vn 0.8144 0.5555 0.1679
vn -0.3238 -0.3590 0.8754
vn 0.7889 0.4047 0.4624
vn 0.0873 0.9944 -0.0598
vn 0.7739 0.1805 -0.6070
vn 0.2306 -0.4218 0.8769
vn -0.6075 -0.4277 0.6693
vn -0.7415 0.6574 -0.1340
vn -0.3239 -0.3589 0.8754
vn -0.7012 0.6182 -0.3551
vn -0.3239 -0.3588 0.8754
vn 0.8111 -0.4153 0.4120
vn -0.3242 -0.3588 0.8753
vn -0.4168 0.5461 0.7267
vn -0.0935 -0.4310 -0.8975
vn 0.3242 0.2185 0.9204
vn 0.9132 -0.3768 -0.1553
vn -0.8516 -0.1852 0.4903
vn -0.6728 0.6816 -0.2878
vn 0.1567 -0.9503 0.2690
vn 0.1958 -0.7938 0.5759
vn -0.7209 0.6621 -0.2046
vn -0.6344 -0.7022 0.3232
vn 0.7204 0.6625 -0.2052
vn -0.6930 0.7208 -0.0147
vn -0.8629 0.4743 -0.1746
vn 0.8662 -0.4576 0.2006
vn -0.0670 -0.9680 -0.2417
vn 0.9423 0.1862 -0.2780
vn 0.7245 0.2266 0.6510
vn 0.6767 0.1043 0.7288
vn 0.8751 0.4211 -0.2384
vn -0.8417 -0.0285 -0.5392
vn -0.8158 0.5530 0.1691
vn 0.9664 -0.2490 0.0632
vn 0.9210 -0.3892 -0.0191
vn -0.3899 -0.6653 0.6366
vn -0.8519 -0.1025 -0.5136
vn 0.7138 -0.5489 0.4350
vn -0.3241 -0.3588 0.8753
vn -0.2049 0.7313 -0.6506
vn -0.7245 0.2266 0.6510
vn 0.2627 -0.2433 0.9337
vn -0.7103 0.2322 -0.6645
vn 0.9869 -0.1219 0.1057
vn 0.8317 -0.5001 0.2410
vn -0.1240 -0.3166 0.9404
vn 0.7735 0.3135 0.5508
vn 0.5871 0.8066 -0.0683
vn -0.7858 -0.5166 0.3399
vn 0.8571 -0.0517 -0.5126
vn -0.1230 0.9500 -0.2870
vn 0.1295 -0.9854 0.1108
vn -0.8277 -0.3240 0.4581
vn 0.7722 -0.4826 0.4132
vn 0.1839 -0.3334 0.9247
vn -0.8588 -0.4224 0.2898
vn -0.9516 0.3038 0.0466
vn 0.9863 0.1644 0.0141
vn 0.9810 0.0928 0.1706
vn -0.3239 -0.3587 0.8755
vn 0.2637 -0.9335 -0.2431
vn 0.1399 -0.4663 0.8735
vn -0.5134 -0.0643 0.8557
vn -0.1031 -0.5072 -0.8556
vn -0.1495 -0.7501 0.6442
vn -0.3240 -0.3587 0.8755
vn -0.6509 -0.6537 0.3859
vn 0.0156 -0.1852 0.9826
vn -0.9774 0.2057 0.0497
vn 0.8534 0.4291 0.2959
vn -0.9935 -0.1016 -0.0510
vn 0.6339 -0.6812 0.3663
vn -0.2855 -0.0630 0.9563
vn 0.9934 0.0116 -0.1140
vn 0.1589 0.3046 -0.9391
vn 0.6234 0.6832 0.3803
vn -0.2881 0.7768 0.5599
vn -0.5965 -0.1303 -0.7920
vn 0.6979 0.5451 -0.4645
vn -0.8897 -0.1062 -0.4440
vn -0.6812 0.6753 -0.2826
vn -0.9385 0.1979 -0.2830
vn -0.6930 0.6870 -0.2186
vn 0.9446 0.3143 0.0946
vn -0.9451 0.1177 0.3050
vn 0.5947 -0.7943 0.1240
vn 0.8752 0.2786 -0.3956
vn -0.9028 0.4248 0.0669
vn 0.9353 -0.1033 0.3384
vn 0.9204 0.3862 -0.0610
vn 0.1109 -0.1134 -0.9873
vn -0.9049 -0.0928 0.4153
vn -0.0671 -0.8187 0.5703
vn -0.8144 0.3848 0.4344
vn 0.8216 0.5432 -0.1726
vn -0.9880 0.0195 -0.1534
vn -0.7943 0.1136 0.5968
vn -0.4163 -0.8820 -0.2208
vn -0.0706 0.9871 -0.1438
vn -0.8637 -0.2625 -0.4303
vn 0.7950 0.1175 0.5951
vn -0.9201 0.3871 -0.0592
vn 0.5165 0.8397 -0.1679
vn 0.4805 0.8647 0.1464
vn 0.8486 -0.3869 0.3608
vn 0.9122 -0.3509 0.2114
vn -0.9650 -0.2540 0.0649
vn -0.9937 0.0049 0.1120
vn 0.7059 -0.0425 -0.7070
vn 0.9486 -0.1390 -0.2845
vn -0.1532 -0.9506 0.2698
vn 0.0629 -0.9675 -0.2448
vn 0.8079 -0.1102 0.5789
vn -0.9457 -0.1257 0.2998
vn -0.6727 0.0428 0.7386
vn -0.8197 -0.0442 -0.5711
vn -0.9545 -0.2237 0.1971
vn -0.9601 -0.1007 -0.2609
vn 0.5376 -0.4516 0.7121
vn 0.6782 -0.7007 0.2214
vn 0.6929 0.6862 -0.2211
vn -0.4474 -0.1274 0.8852
vn -0.5397 0.4135 -0.7333
vn -0.7902 0.4007 0.4637
vn -0.9727 -0.2271 0.0482
vn -0.9916 0.0395 -0.1230
vn 0.0722 0.9740 -0.2145
vn -0.7899 0.5644 -0.2400
vn -0.7715 -0.6208 -0.1389
vn 0.6232 -0.3068 0.7194
vn -0.1519 -0.0715 0.9858
vn 0.0368 -0.6603 0.7501
vn -0.6301 0.6528 -0.4205
vn 0.7890 -0.5126 0.3386
vn 0.5415 0.4424 -0.7149
vn 0.4495 -0.1251 0.8844
vn 0.3730 0.7505 0.5455
vn 0.8398 0.4519 0.3008
vn 0.6199 0.7847 0.0034
vn 0.0579 0.9361 -0.3470
vn -0.8924 -0.1863 0.4110
vn 0.9819 -0.1889 -0.0102
vn -0.7069 -0.0461 -0.7058
vn -0.9958 -0.0349 0.0844
vn -0.4796 -0.1176 -0.8695
vn -0.2207 -0.9712 0.0900
vn -0.7352 0.3716 -0.5669
vn 0.7517 -0.1323 0.6461
vn -0.1376 -0.9666 -0.2161
vn 0.0572 0.9902 -0.1271
vn -0.7923 -0.5426 -0.2790
vn 0.4449 -0.8324 0.3303
vn 0.8413 -0.2605 0.4737
vn -0.3322 -0.6598 0.6740
vn -0.0052 -0.6678 -0.7443
vn 0.8090 -0.3379 0.4810
vn -0.8056 0.3028 -0.5093
vn -0.8840 0.2249 -0.4098
vn -0.6298 -0.6844 0.3674
vn 0.0729 0.1050 -0.9918
vn -0.9448 -0.1569 -0.2876
vn 0.3893 -0.1968 -0.8998
vn -0.4620 -0.0729 -0.8839
vn -0.1029 -0.8964 0.4311
vn 0.1963 0.2174 -0.9561
vn 0.6655 -0.6455 0.3748
vn 0.8131 0.3890 0.4330
vn -0.0638 -0.9977 0.0206
vn 0.8821 0.2294 -0.4114
vn 0.5670 0.1734 0.8053
vn -0.8064 -0.1143 0.5803
vn 0.7581 -0.2929 0.5826
vn 0.7331 0.6594 -0.1667
vn -0.7682 0.2418 0.5928
vn -0.3166 -0.1516 0.9364
vn 0.2965 -0.7935 0.5315
vn -0.6263 -0.6749 0.3902
vn 0.4107 -0.8760 -0.2529
vn -0.4151 -0.9095 -0.0224
vn 0.4204 -0.8799 -0.2215
vn -0.5993 0.7977 -0.0663
vn 0.5540 0.1883 -0.8109
vn -0.5540 0.1883 -0.8109
vn 0.6933 -0.4528 0.5606
vn -0.0469 -0.7492 0.6607
vn 0.5139 0.6701 -0.5356
vn -0.9590 0.2796 0.0465
vn 0.2880 -0.6689 0.6854
vn -0.8873 0.4501 -0.1007
vn -0.1807 -0.3343 0.9250
vn 0.6773 0.6788 -0.2838
vn -0.9802 -0.1854 0.0694
vn -0.9128 -0.1628 0.3746
vn 0.4941 0.8477 0.1931
vn -0.7353 -0.1500 0.6609
vn -0.0806 -0.8151 0.5737
vn -0.6827 0.0999 0.7239
vn -0.7723 -0.4825 0.4132
vn 0.8422 0.0674 -0.5349
vn 0.4608 -0.0705 -0.8847
vn 0.6631 -0.7167 0.2158
vn -0.2594 -0.9568 0.1315
vn -0.8740 0.2812 -0.3963
vn 0.9620 -0.1545 -0.2250
vn 0.2567 -0.9531 -0.1603
vn 0.5106 0.3662 -0.7779
vn -0.6204 -0.3099 0.7204
vn 0.3190 -0.1500 0.9358
vn 0.6944 0.6619 -0.2824
vn 0.9443 -0.3169 -0.0884
vn -0.7694 -0.0107 0.6386
vn -0.8058 -0.2164 0.5512
vn 0.7302 -0.5412 0.4170
vn 0.7057 -0.6714 0.2261
vn -0.1560 0.9698 -0.1876
vn -0.5388 0.1355 -0.8315
vn -0.9243 0.3734 -0.0792
vn -0.8482 -0.2725 -0.4542
vn -0.9624 0.0748 0.2612
vn 0.7348 0.3711 -0.5678
vn -0.2450 0.9487 0.1999
vn 0.6933 0.7205 -0.0170
vn -0.9921 0.1252 0.0118
vn 0.3664 -0.9212 0.1306
vn -0.6617 0.2324 -0.7129
vn 0.2205 -0.3548 -0.9086
vn -0.3662 -0.8842 -0.2899
vn -0.7629 0.3767 -0.5255
vn -0.9276 -0.0548 -0.3695
vn 0.7372 -0.1462 0.6596
vn 0.2500 -0.6637 0.7049
vn 0.8615 -0.4180 0.2883
vn -0.2151 -0.9755 -0.0453
vn -0.9990 0.0439 0.0062
vn 0.7706 -0.0068 0.6373
vn 0.9894 -0.0244 -0.1434
vn -0.0500 0.9987 -0.0014
vn 0.6555 -0.0716 -0.7518
vn -0.9926 -0.0777 -0.0931
vn -0.0012 0.9719 -0.2356
vn 0.2464 0.8601 0.4467
vn -0.1133 0.9905 -0.0779
vn 0.7916 -0.5433 -0.2795
vn -0.9891 -0.0038 -0.1475
vn 0.7537 -0.6568 -0.0218
vn 0.9499 0.2618 -0.1708
vn -0.6061 0.7880 -0.1081
vn 0.3041 -0.9360 0.1772
vn -0.2949 0.8037 0.5168
vn 0.3778 -0.8948 -0.2381
vn 0.9258 0.1055 -0.3629
vn -0.2599 -0.2446 0.9342
vn -0.0964 -0.9583 -0.2689
vn -0.9859 0.0437 -0.1614
vn -0.8930 -0.4501 -0.0043
vn 0.3200 0.4990 0.8054
vn -0.1981 -0.3544 -0.9139
vn 0.8051 -0.2190 0.5512
vn 0.2049 0.7313 -0.6506
vn 0.4734 -0.8735 -0.1134
vn -0.8704 -0.1072 0.4804
vn -0.1034 -0.2441 -0.9642
vn 0.3282 -0.0877 0.9405
vn 0.4619 -0.4632 -0.7564
vn -0.9793 -0.1848 0.0822
vn -0.3557 -0.9323 -0.0655
vn -0.9123 -0.3508 0.2114
vn 0.4429 -0.8570 -0.2632
vn -0.0061 -0.6674 -0.7446
vn 0.2200 -0.6166 0.7559
vn -0.9923 -0.0766 0.0972
vn 0.6881 0.7169 0.1120
vn 0.6304 -0.6717 0.3892
vn -0.6881 0.7071 -0.1629
vn 0.8636 -0.2619 -0.4308
vn -0.4906 0.7687 -0.4104
vn -0.6615 0.6933 -0.2859
vn 0.0928 -0.8159 0.5707
vn -0.8277 -0.4697 -0.3070
vn -0.0148 0.9972 -0.0734
vn 0.7742 0.1845 0.6055
vn 0.6969 0.7136 -0.0717
vn -0.9929 0.1188 0.0112
vn 0.2645 -0.9554 0.1311
vn -0.2995 0.7147 0.6321
vn -0.6298 0.3255 0.7053
vn -0.8812 0.1086 0.4601
vn -0.4072 -0.9129 -0.0289
vn -0.9460 0.3095 0.0962
vn 0.9318 0.2428 -0.2697
vn -0.8367 -0.5265 -0.1512
vn -0.9780 -0.1698 -0.1215
vn -0.5565 0.8095 -0.1870
vn 0.9220 -0.3295 -0.2035
vn 0.2855 -0.0630 0.9563
vn -0.6666 -0.7126 0.2187
vn -0.9283 0.3703 -0.0342
vn 0.1883 0.2680 -0.9449
vn 0.0519 -0.7489 0.6606
vn -0.2834 -0.6703 0.6858
vn -0.1243 -0.9860 0.1111
vn -0.0321 -0.6605 0.7501
vn 0.7900 -0.5063 0.3457
vn 0.3323 -0.6598 0.6740
vn 0.1421 -0.9659 -0.2163
vn 0.9254 -0.3370 0.1736
vn 0.9450 0.1225 0.3033
vn 0.6575 0.0431 -0.7523
vn -0.8557 -0.4900 -0.1662
vn 0.8277 -0.3240 0.4581
vn 0.5094 0.4032 -0.7602
vn 0.0877 -0.2958 0.9512
vn -0.7742 0.1845 0.6055
vn -0.0160 -0.9903 -0.1382
vn 0.9922 0.1239 0.0095
vn 0.1082 -0.8959 0.4309
vn -0.6071 0.7853 -0.1213
vn 0.2666 -0.2365 -0.9344
vn -0.9878 0.0299 -0.1530
vn 0.9385 0.1979 -0.2830
vn -0.5470 0.6700 -0.5018
vn 0.2539 0.5380 0.8038
vn -0.6760 0.1008 0.7300
vn 0.8128 -0.5804 -0.0496
vn -0.8079 -0.4721 -0.3528
vn 0.0935 -0.4310 -0.8975
vn -0.3212 0.4973 0.8059
vn -0.2990 -0.9376 0.1777
vn -0.0138 -0.1375 -0.9904
vn 0.2917 0.8052 0.5163
vn 0.8131 -0.4845 -0.3226
vn -0.8233 -0.1982 0.5319
vn 0.7958 -0.4774 0.3726
vn 0.1008 -0.9578 -0.2690
vn 0.5735 0.5796 -0.5789
vn 0.0058 -0.9954 0.0953
vn 0.9014 -0.3672 0.2294
vn 0.9418 0.1621 -0.2946
vn 0.4535 -0.6099 0.6498
vn 0.6097 0.7793 -0.1447
vn 0.1043 -0.6824 0.7235
vn 0.6457 0.6546 -0.3932
vn 0.2260 -0.8271 -0.5146
vn 0.6223 0.1343 0.7711
vn 0.7737 -0.5503 -0.3139
vn 0.7105 0.6659 -0.2274
vn 0.0032 -0.6636 -0.7480
vn 0.0101 -0.7989 0.6014
vn 0.6617 0.2324 -0.7129
vn 0.2554 0.9568 -0.1390
vn -0.8392 -0.2647 0.4751
vn 0.9671 -0.0037 0.2544
vn 0.8812 0.1086 0.4601
vn -0.4557 -0.2255 -0.8611
vn -0.9382 -0.3202 0.1312
vn 0.9929 0.1046 -0.0559
vn 0.6284 0.6536 -0.4218
vn -0.2188 -0.9410 -0.2581
vn 0.9560 -0.2188 0.1955
vn -0.8634 -0.1872 0.4685
vn -0.7523 0.2778 -0.5973
vn 0.1409 -0.8531 0.5023
vn 0.9486 -0.1386 -0.2845
vn -0.2270 -0.4230 0.8773
vn 0.6575 0.6966 -0.2870
vn -0.8960 -0.0048 0.4441
vn 0.9061 -0.0882 0.4137
vn 0.8684 0.1892 0.4584
vn -0.6668 -0.6425 0.3775
vn -0.7042 0.7098 -0.0150
vn 0.9501 0.3086 0.0450
vn 0.4002 0.8969 -0.1882
vn 0.8603 0.4783 -0.1764
vn -0.1963 0.2717 -0.9421
vn 0.6706 -0.7092 0.2175
vn 0.8391 -0.5222 -0.1526
vn -0.0863 0.8904 -0.4470
vn 0.8861 0.4516 -0.1044
vn -0.4719 0.8461 -0.2478
vn 0.2294 -0.8299 0.5085
vn -0.6575 0.0431 -0.7523
vn -0.0128 -0.1736 -0.9847
vn 0.4527 0.7429 0.4931
vn -0.4169 -0.9089 -0.0121
vn 0.8895 -0.1063 -0.4444
vn 0.5193 0.3795 -0.7657
vn 0.9919 -0.0848 0.0948
vn -0.9799 -0.1958 0.0374
vn 0.9206 0.3159 0.2297
vn 0.9614 0.2156 -0.1711
vn -0.9335 -0.2276 -0.2771
vn 0.9726 -0.2274 0.0483
vn -0.8111 -0.4121 0.4151
vn -0.9813 0.0858 -0.1725
vn -0.5687 0.3670 -0.7362
vn -0.4044 -0.8772 -0.2586
vn 0.1034 -0.2441 -0.9642
vn -0.9899 -0.0231 0.1398
vn -0.9787 -0.1688 -0.1171
vn 0.6413 -0.1355 0.7552
vn 0.4419 -0.2662 -0.8566
vn 0.6473 -0.1265 0.7517
vn 0.3944 -0.6633 0.6360
vn -0.9970 0.0469 -0.0614
vn 0.4501 -0.6152 0.6472
vn 0.7499 0.2816 -0.5986
vn 0.0672 -0.8187 0.5703
vn 0.1072 0.9937 -0.0334
vn -0.6463 0.6537 -0.3936
vn -0.5225 0.3304 0.7860
vn 0.3777 -0.9225 -0.0794
vn 0.9834 -0.0210 -0.1801
vn 0.3552 -0.9348 0.0031
vn -0.2048 -0.2469 0.9472
vn -0.8513 -0.4453 0.2776
vn 0.5431 -0.0545 0.8379
vn 0.6709 0.7350 -0.0984
vn 0.0723 0.1046 -0.9919
vn -0.1363 0.1485 -0.9795
vn -0.8143 0.3892 -0.4306
vn -0.6453 -0.1298 0.7528
vn -0.7204 -0.6004 0.3471
vn -0.8486 -0.3869 0.3608
vn -0.2965 -0.7935 0.5315
vn 0.2449 0.5023 0.8293
vn 0.9561 -0.1574 -0.2474
vn -0.4909 -0.7355 -0.4670
vn -0.3869 -0.8685 -0.3099
vn 0.1031 -0.5072 -0.8556
vn 0.1517 -0.9795 -0.1323
vn -0.8829 0.2623 -0.3894
vn 0.0411 0.9827 -0.1807
vn 0.9745 -0.1756 0.1395
vn 0.9468 -0.1208 0.2982
vn 0.7404 -0.2281 0.6323
vn 0.4662 -0.0911 0.8800
vn -0.4468 0.8906 -0.0850
vn -0.2696 -0.7834 0.5600
vn 0.0051 -0.1263 -0.9920
vn 0.9834 -0.0870 0.1591
vn -0.6125 -0.5058 0.6075
vn 0.3640 -0.8794 -0.3069
vn -0.7715 -0.5542 -0.3125
vn -0.9810 0.0928 0.1706
vn 0.2881 0.7768 0.5599
vn 0.1273 -0.3159 0.9402
vn -0.7133 0.6635 -0.2259
vn -0.5997 -0.4723 0.6460
vn -0.6389 -0.5564 0.5312
vn -0.0070 0.9500 -0.3122
vn -0.0724 0.1047 -0.9919
vn 0.4655 -0.8685 -0.1704
vn 0.9482 -0.2988 0.1083
vn 0.8350 -0.3983 0.3796
vn 0.8924 -0.4512 -0.0052
vn 0.8495 0.4816 -0.2152
vn -0.9947 0.0023 0.1030
vn -0.9331 0.2438 -0.2644
vn -0.2521 -0.9544 -0.1599
vn 0.5470 0.6700 -0.5018
vn -0.3676 -0.1969 -0.9089
vn -0.5646 -0.5388 0.6252
vn -0.9894 -0.0002 0.1450
vn -0.4936 0.3906 -0.7771
vn 0.8723 -0.0795 -0.4825
vn -0.6205 -0.5590 0.5501
vn 0.5147 0.8562 -0.0459
vn 0.9876 0.0245 -0.1551
vn 0.9611 0.2724 0.0448
vn 0.8534 -0.1809 0.4889
vn -0.4501 -0.6152 0.6472
vn 0.8809 0.2668 -0.3909
vn 0.5425 -0.8392 0.0383
vn 0.8971 -0.4316 0.0947
vn -0.6087 -0.4470 0.6555
vn 0.6744 0.3864 0.6292
vn 0.4152 0.5482 0.7260
vn 0.7680 0.2457 0.5915
vn 0.7985 0.1717 -0.5770
vn 0.9090 0.2451 0.3372
vn -0.7300 -0.5401 0.4188
vn 0.8252 -0.1940 0.5305
vn 0.9966 0.0520 -0.0632
vn -0.6330 -0.4837 0.6045
vn 0.9624 0.0797 0.2595
vn -0.9817 0.0783 -0.1736
vn 0.9288 0.3689 -0.0351
vn 0.3179 0.9393 -0.1289
vn -0.9484 -0.1439 -0.2825
vn 0.8066 -0.2168 0.5500
vn 0.7749 0.4281 -0.4651
vn 0.5582 0.1384 -0.8181
vn -0.6201 0.7712 -0.1438
vn -0.2227 -0.8283 -0.5142
vn 0.1540 -0.0708 0.9855
vn 0.7996 0.3213 0.5073
vn -0.9194 0.2068 0.3346
vn 0.7648 -0.0432 0.6428
vn -0.7328 -0.6545 0.1859
vn 0.8722 -0.1034 0.4781
vn -0.1093 -0.4456 -0.8885
vn 0.6385 -0.6990 0.3221
vn -0.7869 -0.5103 0.3470
vn -0.9418 0.1628 -0.2942
vn 0.7204 -0.6004 0.3471
vn 0.9848 -0.0293 0.1712
vn 0.3169 -0.8917 -0.3232
vn -0.8071 -0.4612 0.3687
vn 0.3179 -0.4197 0.8501
vn 0.1695 -0.7329 0.6588
vn -0.3262 -0.0894 0.9411
vn -0.4495 -0.5203 0.7261
vn -0.7367 0.6556 -0.1654
vn 0.9724 0.0205 0.2323
vn -0.4556 0.7406 0.4939
vn -0.1388 -0.4648 0.8745
vn -0.2670 -0.2378 -0.9339
vn 0.9903 -0.0180 0.1381
vn 0.9111 0.0790 -0.4046
vn 0.9909 -0.0161 0.1338
vn -0.1592 0.3046 -0.9391
vn -0.7068 -0.6695 0.2283
vn 0.5059 -0.3084 0.8056
vn -0.7524 0.0907 -0.6524
vn 0.6688 0.6850 -0.2890
vn -0.3226 0.8759 -0.3588
vn -0.9714 -0.1666 -0.1694
vn 0.0690 -0.9974 0.0205
vn -0.6997 0.5446 -0.4624
vn 0.5152 -0.0617 0.8548
vn 0.4939 -0.7330 -0.4678
vn -0.6564 -0.0749 -0.7507
vn -0.4493 -0.6122 0.6506
vn 0.4890 0.7697 -0.4104
vn 0.9891 -0.0038 -0.1475
vn 0.9342 -0.2228 -0.2787
vn 0.2450 0.9487 0.1999
vn -0.5545 -0.1456 0.8194
vn -0.0176 -0.9460 -0.3237
vn 0.2232 -0.9399 -0.2585
vn 0.8968 -0.0003 0.4425
vn -0.9922 -0.0566 -0.1108
vn -0.0006 -0.9954 0.0953
vn 0.7753 0.5716 -0.2686
vn 0.4128 -0.9100 -0.0392
vn -0.3096 0.4800 -0.8208
vn 0.4501 -0.4011 0.7978
vn 0.9793 -0.1638 -0.1188
vn -0.9486 -0.1427 -0.2825
vn 0.4865 0.7724 -0.4082
vn 0.8881 0.4429 -0.1232
vn 0.9781 0.1542 -0.1401
vn -0.8341 0.2438 0.4949
vn 0.2178 -0.3685 -0.9037
vn -0.9913 -0.0898 0.0965
vn -0.6217 0.1311 0.7722
vn 0.3702 -0.6307 0.6820
vn 0.9142 -0.1581 0.3731
vn -0.5139 0.6701 -0.5356
vn 0.4330 -0.9005 -0.0401
vn -0.8898 0.4395 -0.1225
vn -0.9258 0.1055 -0.3629
vn 0.9186 -0.0442 0.3927
vn 0.5566 -0.1428 0.8184
vn 0.9311 0.3087 -0.1943
vn -0.2593 -0.9348 -0.2427
vn 0.6834 0.1034 0.7227
vn -0.6713 0.7354 -0.0926
vn -0.5382 -0.8419 0.0392
vn -0.7469 -0.1415 0.6497
vn -0.7455 -0.3698 0.5545
vn -0.6587 0.1086 0.7445
vn 0.8405 0.4463 0.3072
vn -0.9527 -0.1333 -0.2733
vn 0.9726 0.0566 -0.2254
vn -0.6616 -0.5411 0.5191
vn 0.9771 -0.1778 -0.1165
vn 0.2128 -0.9523 -0.2188
vn 0.9272 -0.0500 -0.3711
vn -0.7102 -0.5526 0.4363
vn 0.0101 0.9993 0.0372
vn -0.4609 -0.4655 -0.7556
vn -0.7381 -0.2318 0.6336
vn 0.5958 -0.1272 -0.7930
vn 0.7186 -0.5695 0.3991
vn -0.3759 0.7486 0.5461
vn -0.4165 -0.9088 -0.0241
vn -0.3469 0.7265 0.5931
vn -0.2460 0.5011 0.8297
vn 0.6842 -0.6317 0.3645
vn 0.6738 0.0462 0.7375
vn -0.9342 -0.1080 0.3400
vn -0.3159 -0.4203 0.8506
vn 0.5646 -0.5388 0.6252
vn -0.9907 0.0664 -0.1191
vn 0.6752 0.1822 0.7147
vn 0.4787 -0.1151 -0.8704
vn -0.9839 0.0459 -0.1727
vn 0.2200 -0.9744 -0.0457
vn -0.9300 0.3236 -0.1746
vn 0.8056 0.3028 -0.5093
vn -0.0719 -0.6464 0.7596
vn -0.9861 -0.1269 0.1074
vn 0.9534 0.0891 -0.2881
vn 0.7006 0.7134 -0.0162
vn -0.8177 -0.2654 0.5108
vn 0.8623 0.4514 0.2296
vn 0.3441 0.9343 -0.0929
vn 0.8579 -0.4857 -0.1677
vn 0.6980 -0.5138 0.4988
vn 0.5341 0.3632 -0.7634
vn 0.8482 -0.2725 -0.4542
vn -0.9827 -0.0920 0.1608
vn 0.6595 0.1119 0.7434
vn -0.9122 0.0743 -0.4030
vn 0.2021 -0.9627 -0.1799
vn -0.8577 -0.0560 -0.5111
vn 0.9873 0.0348 -0.1547
vn 0.4893 -0.5333 0.6900
vn 0.6108 -0.4246 0.6683
vn -0.0078 0.9584 -0.2854
vn 0.9602 -0.0958 -0.2625
vn -0.0996 -0.6829 0.7237
vn -0.9177 -0.0488 0.3942
vn -0.3736 -0.8967 -0.2375
vn 0.7866 0.5684 -0.2413
vn 0.6624 -0.5431 0.5160
vn 0.1585 -0.9498 0.2696
vn -0.7708 0.5874 -0.2464
vn 0.2077 -0.2458 0.9468
vn -0.3229 0.9377 -0.1283
vn -0.8227 -0.5367 0.1874
vn 0.8156 0.3850 -0.4320
vn 0.9497 0.3120 0.0265
vn -0.9734 -0.1806 0.1411
vn 0.9854 0.0487 -0.1631
vn 0.7487 -0.1377 0.6484
vn 0.9210 -0.1220 0.3701
vn -0.6742 -0.7042 0.2226
vn -0.9040 -0.3986 -0.1546
vn 0.7912 -0.6105 0.0342
vn -0.2175 -0.3696 -0.9034
vn -0.7805 -0.4909 0.3871
vn 0.8073 -0.4726 -0.3536
vn 0.5222 0.3331 0.7851
vn -0.9787 -0.1853 0.0878
vn 0.9764 0.2107 0.0480
vn 0.0074 -0.9495 0.3136
vn 0.7810 -0.4917 0.3851
vn 0.9719 -0.1617 -0.1711
vn -0.4401 -0.8347 0.3311
vn 0.8513 -0.4453 0.2776
vn 0.0206 -0.9670 -0.2539
vn -0.3505 0.9321 -0.0914
vn 0.9523 -0.1294 -0.2762
vn 0.8194 -0.2657 0.5079
vn 0.3586 -0.8502 0.3854
vn -0.5128 0.4006 -0.7593
vn 0.8615 0.4793 -0.1676
vn -0.8983 -0.4285 0.0970
vn -0.9429 -0.3217 -0.0868
vn -0.8068 -0.3412 0.4823
vn -0.8952 -0.1108 0.4316
vt 0.793893 0.811035
vt 0.733986 0.647144
vt 0.654509 0.794346
vt 0.904509 0.802353
vt 0.637534 0.635601
vt 0.530617 0.607635
vt 0.500000 0.753937
vt 0.876608 0.580494
vt 0.859674 0.618176
vt 0.975529 0.769161
vt 0.000000 0.714703
vt 0.810530 0.641144
vt 0.494886 0.330135
vt 0.549539 0.344433
vt 0.530617 0.328053
vt 0.604192 0.365723
vt 0.423700 0.300087
vt 0.327249 0.288544
vt 0.445583 0.324238
vt 0.637534 0.369709
vt 0.653495 0.391926
vt 0.692622 0.420471
vt 0.810530 0.476807
vt 0.717743 0.448570
vt 0.733986 0.420963
vt 0.201560 0.403915
vt 0.381335 0.383205
vt 0.184626 0.355206
vt 0.372679 0.358311
vt 0.250704 0.458881
vt 0.406456 0.411304
vt 0.327249 0.514725
vt 0.381335 0.339043
vt 0.250704 0.294548
vt 0.406456 0.327301
vt 0.201560 0.317513
vt 0.859674 0.531780
vt 0.555940 0.398312
vt 0.726400 0.473465
vt 0.692622 0.504471
vt 0.717743 0.492729
vt 0.653495 0.507542
vt 0.604192 0.501640
vt 0.445583 0.439854
vt 0.494886 0.466053
vt 0.549539 0.487347
vt 0.095491 0.301487
vt 0.206107 0.292805
vt 0.024472 0.334679
vt 0.345492 0.309490
vt 0.500000 0.349903
vt 0.654509 0.410099
vt 0.206107 0.619667
vt 0.345492 0.693741
vt 0.095491 0.538963
vt 0.423700 0.565987
vt 0.024472 0.459526
vt 0.000000 0.389137
vt 0.904509 0.564873
vt 0.975529 0.644310
vt 0.793893 0.484169
vt 0.000000 1.000000
vt 0.273600 0.473465
vt 0.123392 0.580494
vt 0.282257 0.492729
vt 0.024471 0.644310
vt 0.140326 0.618176
vt 0.307378 0.504471
vt 0.189470 0.641144
vt 0.140326 0.531780
vt 0.266014 0.420963
vt 0.206107 0.484169
vt 0.189470 0.476807
vt 0.345491 0.410099
vt 0.095491 0.564873
vt 0.576300 0.565987
vt 0.505114 0.466053
vt 0.469383 0.607635
vt 0.450461 0.487347
vt 0.672751 0.514725
vt 0.554417 0.439854
vt 0.593544 0.411304
vt 0.362466 0.635601
vt 0.395808 0.501640
vt 0.346505 0.507542
vt 0.266014 0.647144
vt 0.362466 0.369709
vt 0.798440 0.403915
vt 0.749296 0.458881
vt 0.975528 0.459526
vt 0.904509 0.538963
vt 0.815374 0.355206
vt 0.975528 0.334679
vt 0.654508 0.693741
vt 0.793893 0.619667
vt 0.576300 0.300087
vt 0.654508 0.309490
vt 0.469383 0.328053
vt 0.672751 0.288544
vt 0.793893 0.292805
vt 0.798440 0.317513
vt 0.749296 0.294548
vt 0.904509 0.301487
vt 0.444060 0.398312
vt 0.618665 0.383205
vt 0.282257 0.448570
vt 0.395808 0.365723
vt 0.346505 0.391926
vt 0.450461 0.344433
vt 0.307378 0.420471
vt 0.505114 0.330135
vt 0.627321 0.358311
vt 0.618665 0.339043
vt 0.593544 0.327301
vt 0.554417 0.324238
vt 0.095491 0.802353
vt 0.024471 0.769161
vt 0.345491 0.794346
vt 0.206107 0.811035
vt 0.531129 0.863455
vt 0.528598 0.862678
vt 0.529701 0.861377
vt 0.530028 0.864496
vt 0.532449 0.864504
vt 0.554833 0.852302
vt 0.535964 0.857423
vt 0.554115 0.862847
vt 0.527653 0.863068
vt 0.533337 0.860528
vt 0.534939 0.862031
vt 0.531751 0.858482
vt 0.533744 0.855085
vt 0.535657 0.858520
vt 0.537437 0.859975
vt 0.530356 0.847231
vt 0.465756 0.730456
vt 0.464280 0.731015
vt 0.466272 0.734068
vt 0.468310 0.733388
vt 0.464779 0.728223
vt 0.462719 0.728340
vt 0.462606 0.727787
vt 0.464037 0.730013
vt 0.465977 0.733427
vt 0.464885 0.735427
vt 0.463767 0.732595
vt 0.465331 0.736822
vt 0.463567 0.731622
vt 0.533015 0.861030
vt 0.528781 0.860447
vt 0.530131 0.864549
vt 0.530881 0.856491
vt 0.531355 0.865489
vt 0.534491 0.861890
vt 0.526887 0.856207
vt 0.527647 0.863272
vt 0.528726 0.864638
vt 0.526403 0.862717
vt 0.525618 0.860881
vt 0.526164 0.858016
vt 0.536721 0.859365
vt 0.468862 0.749484
vt 0.466293 0.747780
vt 0.466377 0.748286
vt 0.467102 0.749259
vt 0.467253 0.750763
vt 0.470042 0.751312
vt 0.469399 0.753101
vt 0.469928 0.750509
vt 0.463993 0.748347
vt 0.465755 0.751317
vt 0.467367 0.753944
vt 0.471307 0.756222
vt 0.464995 0.721450
vt 0.464829 0.720767
vt 0.463109 0.721688
vt 0.462921 0.720778
vt 0.464423 0.724210
vt 0.465870 0.723530
vt 0.464627 0.728363
vt 0.464023 0.722561
vt 0.465068 0.754195
vt 0.464674 0.751874
vt 0.466630 0.753166
vt 0.463722 0.724297
vt 0.465564 0.722267
vt 0.463941 0.725445
vt 0.463960 0.747882
vt 0.467324 0.729442
vt 0.468962 0.731820
vt 0.464679 0.727808
vt 0.468861 0.731404
vt 0.465570 0.729689
vt 0.468613 0.734441
vt 0.465745 0.749335
vt 0.459061 0.781790
vt 0.459779 0.802539
vt 0.459863 0.804904
vt 0.459175 0.785141
vt 0.459751 0.801754
vt 0.459456 0.793305
vt 0.459271 0.787929
vt 0.459472 0.793767
vt 0.459704 0.800426
vt 0.459315 0.789211
vt 0.458776 0.773334
vt 0.458807 0.774253
vt 0.459830 0.803985
vt 0.489859 0.811437
vt 0.490517 0.812575
vt 0.493013 0.812944
vt 0.492379 0.807917
vt 0.492492 0.807826
vt 0.490244 0.811723
vt 0.495164 0.807698
vt 0.493132 0.810665
vt 0.494834 0.807444
vt 0.490710 0.812847
vt 0.492924 0.813826
vt 0.497867 0.810534
vt 0.497474 0.813438
vt 0.460224 0.765039
vt 0.460206 0.763084
vt 0.462560 0.806586
vt 0.461784 0.810371
vt 0.461888 0.813254
vt 0.462269 0.795070
vt 0.460502 0.773340
vt 0.461874 0.784919
vt 0.461843 0.811999
vt 0.460939 0.786261
vt 0.460749 0.780687
vt 0.461206 0.794016
vt 0.461693 0.807861
vt 0.529650 0.858487
vt 0.526305 0.855364
vt 0.526229 0.858659
vt 0.525366 0.858400
vt 0.526985 0.861113
vt 0.527069 0.853356
vt 0.527847 0.860249
vt 0.525730 0.856066
vt 0.499012 0.806119
vt 0.499163 0.808047
vt 0.496863 0.805659
vt 0.504007 0.807601
vt 0.498517 0.806656
vt 0.503584 0.806797
vt 0.496949 0.812909
vt 0.499654 0.812986
vt 0.502654 0.810875
vt 0.503507 0.809186
vt 0.592808 0.531743
vt 0.588217 0.538940
vt 0.588077 0.539594
vt 0.592974 0.532605
vt 0.590410 0.541266
vt 0.605476 0.579748
vt 0.598681 0.549994
vt 0.597732 0.577716
vt 0.594369 0.536410
vt 0.588024 0.579111
vt 0.613173 0.625620
vt 0.612434 0.624340
vt 0.615779 0.621909
vt 0.615986 0.622776
vt 0.613896 0.614147
vt 0.608878 0.593579
vt 0.610395 0.618277
vt 0.610344 0.599562
vt 0.598719 0.597518
vt 0.603627 0.617616
vt 0.594111 0.535248
vt 0.585780 0.562762
vt 0.596633 0.544739
vt 0.581263 0.552818
vt 0.580933 0.565246
vt 0.599718 0.607532
vt 0.614994 0.618664
vt 0.603411 0.571398
vt 0.597228 0.579381
vt 0.580859 0.579665
vt 0.580881 0.588312
vt 0.586239 0.595329
vt 0.580956 0.598184
vt 0.581140 0.610011
vt 0.587471 0.612386
vt 0.580948 0.566627
vt 0.581636 0.543142
vt 0.601569 0.621008
vt 0.581399 0.548416
vt 0.581728 0.542511
vt 0.581694 0.543940
vt 0.584418 0.618966
vt 0.581248 0.618567
vt 0.581152 0.616172
vt 0.580876 0.599332
vt 0.585356 0.616338
vt 0.553521 0.602831
vt 0.553331 0.610777
vt 0.554511 0.593339
vt 0.555736 0.583825
vt 0.553636 0.612485
vt 0.553687 0.602899
vt 0.553489 0.615268
vt 0.459452 0.491871
vt 0.461213 0.485382
vt 0.459485 0.489932
vt 0.461044 0.486468
vt 0.459778 0.492442
vt 0.459359 0.494423
vt 0.461493 0.488154
vt 0.464758 0.479439
vt 0.558504 0.553826
vt 0.556735 0.572716
vt 0.557625 0.559726
vt 0.580730 0.586609
vt 0.597048 0.573565
vt 0.589612 0.566365
vt 0.599269 0.554858
vt 0.558814 0.552734
vt 0.580750 0.575909
vt 0.555956 0.581021
vt 0.557629 0.569465
vt 0.554660 0.591882
vt 0.558917 0.553838
vt 0.558344 0.559956
vt 0.466992 0.735881
vt 0.471686 0.736523
vt 0.471154 0.735844
vt 0.467543 0.732415
vt 0.469038 0.734202
vt 0.465755 0.732520
vt 0.464910 0.730942
vt 0.468204 0.735019
vt 0.462924 0.731477
vt 0.463785 0.734862
vt 0.464875 0.736583
vt 0.472383 0.739772
vt 0.467083 0.750025
vt 0.472789 0.754060
vt 0.465694 0.724813
vt 0.464362 0.726914
vt 0.467043 0.757209
vt 0.465055 0.731428
vt 0.469008 0.724611
vt 0.468395 0.726339
vt 0.467362 0.722205
vt 0.466053 0.734327
vt 0.468842 0.723927
vt 0.468423 0.726290
vt 0.462756 0.730786
vt 0.464215 0.732819
vt 0.466077 0.735332
vt 0.468792 0.735891
vt 0.600823 0.620456
vt 0.472127 0.728869
vt 0.609379 0.623288
vt 0.609476 0.623840
vt 0.471595 0.729530
vt 0.471495 0.728278
vt 0.469804 0.729461
vt 0.467500 0.728924
vt 0.472618 0.739591
vt 0.466378 0.738958
vt 0.464850 0.738342
vt 0.471066 0.739817
vt 0.469530 0.739997
vt 0.492385 0.780119
vt 0.495290 0.787243
vt 0.496036 0.784173
vt 0.491154 0.779002
vt 0.491169 0.779490
vt 0.484620 0.782489
vt 0.478875 0.782885
vt 0.483299 0.800267
vt 0.473516 0.783857
vt 0.474509 0.805198
vt 0.491185 0.779437
vt 0.490127 0.754648
vt 0.488711 0.757775
vt 0.487882 0.782818
vt 0.490626 0.800192
vt 0.492957 0.791536
vt 0.487404 0.808726
vt 0.486815 0.799901
vt 0.510317 0.819697
vt 0.506778 0.810402
vt 0.499845 0.801958
vt 0.483049 0.769613
vt 0.478757 0.763906
vt 0.477157 0.773097
vt 0.506264 0.803765
vt 0.485902 0.782701
vt 0.475770 0.815443
vt 0.487478 0.764879
vt 0.468327 0.763951
vt 0.468299 0.777805
vt 0.485796 0.766729
vt 0.479135 0.759770
vt 0.477878 0.735780
vt 0.477869 0.740706
vt 0.464715 0.728123
vt 0.467168 0.742654
vt 0.478074 0.743827
vt 0.478420 0.746287
vt 0.483856 0.741013
vt 0.481465 0.745903
vt 0.466678 0.742061
vt 0.480832 0.753289
vt 0.482355 0.739235
vt 0.477035 0.736540
vt 0.464418 0.730839
vt 0.479296 0.732786
vt 0.491357 0.782225
vt 0.484142 0.752815
vt 0.489788 0.774510
vt 0.492829 0.789133
vt 0.485110 0.768799
vt 0.494941 0.783847
vt 0.482346 0.751802
vt 0.480720 0.763783
vt 0.474831 0.767088
vt 0.470071 0.782960
vt 0.468285 0.775035
vt 0.473047 0.792616
vt 0.477104 0.752145
vt 0.477999 0.732596
vt 0.499948 0.786343
vt 0.517379 0.794530
vt 0.512134 0.797455
vt 0.519892 0.848057
vt 0.532451 0.843359
vt 0.517744 0.815619
vt 0.537586 0.821761
vt 0.515349 0.835842
vt 0.532581 0.835305
vt 0.502797 0.825711
vt 0.494477 0.829329
vt 0.524531 0.827249
vt 0.502495 0.837962
vt 0.485221 0.804628
vt 0.480786 0.783342
vt 0.475997 0.815446
vt 0.525700 0.806306
vt 0.508952 0.802099
vt 0.509892 0.844218
vt 0.519580 0.802811
vt 0.538081 0.809172
vt 0.541405 0.799494
vt 0.518720 0.795088
vt 0.515910 0.791821
vt 0.499703 0.786625
vt 0.533903 0.796593
vt 0.502945 0.831977
vt 0.499967 0.834792
vt 0.501863 0.837698
vt 0.463758 0.765903
vt 0.461146 0.748328
vt 0.464004 0.756081
vt 0.459637 0.752229
vt 0.459467 0.741348
vt 0.506850 0.797565
vt 0.504079 0.839782
vt 0.492286 0.773966
vt 0.486594 0.753472
vt 0.488556 0.749590
vt 0.489924 0.749166
vt 0.495942 0.780935
vt 0.496808 0.781473
vt 0.468158 0.760414
vt 0.466905 0.746627
vt 0.498506 0.789177
vt 0.488541 0.754072
vt 0.488271 0.754618
vt 0.489151 0.749958
vt 0.496350 0.781759
vt 0.492187 0.775399
vt 0.554776 0.861800
vt 0.556046 0.865722
vt 0.555695 0.855838
vt 0.555129 0.847689
vt 0.555051 0.828840
vt 0.465133 0.783452
vt 0.466504 0.813755
vt 0.478230 0.825060
vt 0.475600 0.826146
vt 0.477985 0.824249
vt 0.473849 0.825912
vt 0.470472 0.823171
vt 0.463533 0.816453
vt 0.463302 0.814164
vt 0.477415 0.822225
vt 0.467802 0.795013
vt 0.468360 0.808736
vt 0.494655 0.804683
vt 0.489056 0.816451
vt 0.497993 0.794438
vt 0.496214 0.799692
s 0
usemtl Material.001
f 60/1/1 54/2/1 58/3/1
f 154/2/2 379/1/2 420/4/2
f 54/2/3 57/5/3 58/3/3
f 152/6/4 436/7/4 23/3/4
f 344/3/5 353/5/5 362/6/5
f 43/8/6 54/9/6 61/10/6
f 527/11/7 520/8/7 371/10/7
f 485/10/8 313/9/8 209/12/8
f 258/4/9 186/12/9 487/2/9
f 54/12/10 60/4/10 61/10/10
f 408/13/11 544/14/11 440/15/11
f 319/15/12 511/14/12 349/16/12
f 257/17/13 214/13/13 204/15/13
f 369/18/14 96/19/14 158/13/14
f 62/13/15 500/17/15 460/18/15
f 538/16/16 24/20/16 441/15/16
f 493/21/17 388/22/17 389/23/17
f 409/23/18 538/22/18 441/24/18
f 461/25/19 193/21/19 275/23/19
f 297/20/20 157/16/20 83/25/20
f 472/16/21 303/21/21 365/25/21
f 503/26/22 311/27/22 488/28/22
f 314/27/23 35/29/23 288/28/23
f 59/27/24 324/26/24 315/30/24
f 304/31/25 380/30/25 352/32/25
f 201/30/26 467/31/26 327/27/26
f 311/28/27 503/29/27 153/33/27
f 11/34/28 389/35/28 543/19/28
f 216/19/29 496/18/29 543/34/29
f 395/33/30 327/35/30 402/34/30
f 54/33/31 50/36/31 53/28/31
f 539/36/32 398/33/32 401/34/32
f 54/24/6 43/37/6 45/23/6
f 151/19/33 67/35/33 462/38/33
f 32/13/34 85/19/34 361/38/34
f 52/35/35 453/33/35 526/38/35
f 257/29/36 27/27/36 13/38/36
f 472/33/37 397/29/37 246/38/37
f 42/14/38 326/13/38 182/38/38
f 245/24/39 409/22/39 441/38/39
f 475/39/40 546/24/40 447/38/40
f 183/22/41 428/21/41 88/38/41
f 487/16/42 365/14/42 258/38/42
f 79/21/43 346/16/43 221/38/43
f 218/40/44 260/41/44 91/38/44
f 269/42/45 159/40/45 442/38/45
f 40/41/46 30/39/46 427/38/46
f 522/37/47 545/24/47 285/8/47
f 447/24/48 546/39/48 336/8/48
f 422/43/49 412/42/49 424/38/49
f 375/31/50 293/44/50 266/38/50
f 47/27/51 99/31/51 384/38/51
f 267/44/52 343/45/52 488/38/52
f 525/46/53 371/43/53 450/38/53
f 398/45/54 539/46/54 306/38/54
f 150/47/55 184/34/55 406/48/55
f 92/34/56 453/18/56 52/48/56
f 463/34/57 205/47/57 385/49/57
f 53/28/58 50/36/58 51/49/58
f 306/49/59 447/36/59 501/34/59
f 50/48/6 54/18/6 48/50/6
f 96/51/60 18/15/60 533/52/60
f 54/15/6 45/20/6 46/52/6
f 54/15/6 46/51/6 48/50/6
f 149/18/61 546/17/61 494/50/61
f 374/50/62 351/17/62 500/15/62
f 517/32/63 431/53/63 451/54/63
f 34/53/64 253/32/64 331/55/64
f 469/54/65 457/56/65 490/32/65
f 268/7/66 445/6/66 97/54/66
f 57/6/67 54/56/67 56/54/67
f 196/32/68 361/30/68 188/55/68
f 83/57/69 26/26/69 270/28/69
f 482/58/70 2/28/70 185/49/70
f 346/57/71 475/28/71 474/58/71
f 123/55/72 17/30/72 144/57/72
f 494/30/73 44/26/73 149/57/73
f 395/52/74 538/20/74 201/25/74
f 257/43/75 274/5/75 27/2/75
f 480/43/76 413/46/76 338/6/76
f 352/2/77 295/42/77 304/43/77
f 208/12/78 449/40/78 75/2/78
f 2/40/79 5/42/79 430/2/79
f 83/6/80 8/5/80 199/43/80
f 210/45/81 342/44/81 39/32/81
f 132/32/82 203/44/82 2/31/82
f 289/56/83 301/45/83 145/32/83
f 199/6/84 26/46/84 83/45/84
f 481/45/85 537/56/85 271/6/85
f 387/59/86 14/23/86 267/60/86
f 539/23/87 401/37/87 474/60/87
f 508/23/88 531/59/88 98/61/88
f 97/25/89 442/61/89 159/52/89
f 358/61/90 345/25/90 381/23/90
f 416/60/91 471/37/91 334/8/91
f 321/9/92 90/41/92 97/12/92
f 455/41/93 221/40/93 346/12/93
f 18/41/94 95/9/94 529/8/94
f 285/8/95 457/11/95 502/60/95
f 349/8/96 85/39/96 536/41/96
f 74/62/97 115/62/97 116/62/97
f 115/62/98 74/62/98 114/62/98
f 116/62/99 76/62/99 74/62/99
f 322/62/100 408/62/100 440/62/100
f 76/62/101 116/62/101 77/62/101
f 435/62/102 31/62/102 502/62/102
f 337/62/103 253/62/103 1/62/103
f 74/62/104 73/62/104 113/62/104
f 514/62/105 416/62/105 334/62/105
f 114/62/106 74/62/106 113/62/106
f 80/62/107 120/62/107 121/62/107
f 502/62/108 31/62/108 87/62/108
f 121/62/109 81/62/109 80/62/109
f 425/62/110 72/62/110 15/62/110
f 275/62/111 281/62/111 404/62/111
f 118/62/112 78/62/112 77/62/112
f 12/62/113 196/62/113 188/62/113
f 80/62/114 78/62/114 118/62/114
f 80/62/115 119/62/115 120/62/115
f 119/62/116 80/62/116 118/62/116
f 65/62/117 105/62/117 106/62/117
f 105/62/118 65/62/118 63/62/118
f 106/62/117 66/62/117 65/62/117
f 328/62/119 514/62/119 87/62/119
f 442/62/120 198/62/120 356/62/120
f 103/62/121 63/62/121 81/62/121
f 216/62/122 354/62/122 496/62/122
f 530/62/123 221/62/123 362/62/123
f 63/62/124 104/62/124 105/62/124
f 104/62/125 63/62/125 103/62/125
f 70/62/126 110/62/126 111/62/126
f 110/62/127 70/62/127 109/62/127
f 111/62/126 71/62/126 70/62/126
f 252/62/128 249/62/128 377/62/128
f 71/62/129 111/62/129 73/62/129
f 108/62/130 68/62/130 66/62/130
f 264/62/131 296/62/131 342/62/131
f 70/62/132 68/62/132 108/62/132
f 274/62/133 257/62/133 204/62/133
f 109/62/134 70/62/134 108/62/134
f 296/62/135 37/62/135 146/62/135
f 315/62/136 382/62/136 372/62/136
f 406/62/137 298/62/137 198/62/137
f 117/62/138 77/62/138 116/62/138
f 498/62/139 27/62/139 274/62/139
f 342/62/140 296/62/140 146/62/140
f 113/62/141 73/62/141 112/62/141
f 381/62/142 296/62/142 41/62/142
f 281/62/143 240/62/143 88/62/143
f 84/62/144 37/62/144 202/62/144
f 194/62/145 465/62/145 189/62/145
f 306/62/146 501/62/146 276/62/146
f 358/62/147 212/62/147 364/62/147
f 102/62/148 81/62/148 121/62/148
f 296/62/149 264/62/149 41/62/149
f 118/62/150 77/62/150 117/62/150
f 144/62/151 215/62/151 123/62/151
f 132/62/152 430/62/152 228/62/152
f 357/62/153 364/62/153 33/62/153
f 18/62/154 357/62/154 521/62/154
f 191/62/155 10/62/155 432/62/155
f 91/62/156 372/62/156 218/62/156
f 470/62/157 387/62/157 243/62/157
f 107/62/158 66/62/158 106/62/158
f 240/62/159 513/62/159 486/62/159
f 371/62/160 520/62/160 450/62/160
f 103/62/161 81/62/161 102/62/161
f 303/62/162 352/62/162 365/62/162
f 450/62/163 155/62/163 525/62/163
f 18/62/164 529/62/164 533/62/164
f 182/62/165 263/62/165 483/62/165
f 6/62/166 145/62/166 515/62/166
f 353/62/167 158/62/167 534/62/167
f 112/62/168 73/62/168 111/62/168
f 259/62/169 499/62/169 224/62/169
f 266/62/170 390/62/170 375/62/170
f 108/62/171 66/62/171 107/62/171
f 520/62/172 527/62/172 216/62/172
f 342/62/173 217/62/173 264/62/173
f 327/62/174 467/62/174 264/62/174
f 139/62/175 33/62/175 41/62/175
f 41/62/176 264/62/176 467/62/176
f 250/62/177 260/62/177 428/62/177
f 126/62/178 168/62/178 167/62/178
f 278/62/179 228/62/179 438/62/179
f 423/62/180 224/62/180 396/62/180
f 133/62/181 172/62/181 171/62/181
f 524/62/182 160/62/182 211/62/182
f 459/62/183 343/62/183 243/62/183
f 505/62/184 431/62/184 517/62/184
f 332/62/185 157/62/185 432/62/185
f 522/62/186 334/62/186 545/62/186
f 99/62/187 10/62/187 361/62/187
f 141/62/188 163/62/188 162/62/188
f 334/62/189 471/62/189 545/62/189
f 474/62/190 202/62/190 346/62/190
f 126/62/191 167/62/191 166/62/191
f 97/62/192 49/62/192 268/62/192
f 400/62/193 319/62/193 24/62/193
f 262/62/194 458/62/194 535/62/194
f 159/62/195 321/62/195 97/62/195
f 189/62/196 8/62/196 47/62/196
f 142/62/197 425/62/197 15/62/197
f 372/62/198 91/62/198 518/62/198
f 137/62/199 178/62/199 177/62/199
f 327/62/200 264/62/200 217/62/200
f 141/62/201 162/62/201 181/62/201
f 212/62/202 358/62/202 381/62/202
f 445/62/203 406/62/203 198/62/203
f 425/62/204 205/62/204 247/62/204
f 11/62/205 543/62/205 496/62/205
f 520/62/206 389/62/206 450/62/206
f 206/62/207 330/62/207 349/62/207
f 133/62/208 173/62/208 172/62/208
f 494/62/209 207/62/209 79/62/209
f 389/62/210 292/62/210 256/62/210
f 137/62/211 177/62/211 176/62/211
f 506/62/212 513/62/212 240/62/212
f 284/62/213 474/62/213 478/62/213
f 472/62/214 487/62/214 187/62/214
f 130/62/215 169/62/215 168/62/215
f 511/62/216 395/62/216 402/62/216
f 128/62/217 130/62/217 168/62/217
f 467/62/218 139/62/218 41/62/218
f 128/62/219 168/62/219 126/62/219
f 171/62/220 131/62/220 133/62/220
f 212/62/221 33/62/221 364/62/221
f 131/62/222 171/62/222 130/62/222
f 130/62/223 170/62/223 169/62/223
f 170/62/224 130/62/224 171/62/224
f 122/62/225 164/62/225 163/62/225
f 164/62/226 122/62/226 165/62/226
f 324/62/227 417/62/227 382/62/227
f 185/62/228 370/62/228 4/62/228
f 122/62/229 163/62/229 141/62/229
f 525/62/230 155/62/230 476/62/230
f 485/62/231 209/62/231 390/62/231
f 126/62/232 166/62/232 125/62/232
f 125/62/233 165/62/233 122/62/233
f 165/62/234 125/62/234 166/62/234
f 140/62/235 179/62/235 178/62/235
f 179/62/236 140/62/236 180/62/236
f 138/62/237 140/62/237 178/62/237
f 537/62/238 410/62/238 156/62/238
f 138/62/239 178/62/239 137/62/239
f 386/62/240 435/62/240 502/62/240
f 331/62/241 499/62/241 34/62/241
f 141/62/242 181/62/242 140/62/242
f 213/62/243 221/62/243 455/62/243
f 180/62/244 140/62/244 181/62/244
f 134/62/245 174/62/245 173/62/245
f 491/62/246 124/62/246 386/62/246
f 133/62/245 134/62/245 173/62/245
f 399/62/247 145/62/247 307/62/247
f 124/62/248 435/62/248 386/62/248
f 176/62/249 136/62/249 137/62/249
f 233/62/250 524/62/250 25/62/250
f 136/62/251 176/62/251 134/62/251
f 134/62/252 175/62/252 174/62/252
f 175/62/253 134/62/253 176/62/253
f 428/63/254 404/64/254 88/65/254
f 158/11/255 371/64/255 534/66/255
f 499/67/256 236/65/256 34/64/256
f 221/68/257 403/65/257 79/69/257
f 508/65/258 486/67/258 531/69/258
f 530/70/259 49/66/259 251/64/259
f 426/71/260 69/72/260 541/73/260
f 404/72/261 281/71/261 88/74/261
f 100/75/262 67/73/262 62/72/262
f 513/70/263 506/73/263 87/66/263
f 203/73/264 185/75/264 2/66/264
f 49/76/265 97/77/265 147/78/265
f 298/79/266 249/78/266 356/77/266
f 424/77/267 350/76/267 533/80/267
f 525/81/268 530/80/268 534/82/268
f 98/81/269 393/77/269 340/80/269
f 207/83/270 494/78/270 546/84/270
f 463/85/271 418/68/271 3/86/271
f 421/68/272 184/69/272 150/86/272
f 418/85/273 463/86/273 1/84/273
f 546/79/274 149/84/274 336/78/274
f 330/83/275 361/84/275 85/86/275
f 526/87/276 453/74/276 192/71/276
f 423/88/277 396/89/277 286/90/277
f 455/89/278 364/91/278 213/90/278
f 304/92/279 295/90/279 376/58/279
f 281/92/280 506/58/280 240/93/280
f 87/88/281 506/90/281 328/92/281
f 250/89/282 376/80/282 295/91/282
f 235/76/283 238/78/283 237/94/283
f 377/78/284 501/7/284 252/94/284
f 478/76/285 474/94/285 401/80/285
f 326/80/286 42/95/286 316/91/286
f 350/95/287 156/80/287 533/94/287
f 407/96/288 442/97/288 439/98/288
f 84/96/289 339/99/289 37/97/289
f 227/51/290 235/98/290 229/97/290
f 226/87/290 235/98/290 227/74/290
f 465/98/291 93/51/291 189/74/291
f 235/99/292 231/100/292 229/97/292
f 423/101/293 265/93/293 244/102/293
f 231/101/294 234/92/294 232/93/294
f 442/103/295 356/102/295 336/93/295
f 502/99/296 87/102/296 522/100/296
f 325/102/297 451/103/297 507/100/297
f 313/79/298 485/77/298 535/104/298
f 439/84/299 251/79/299 49/104/299
f 186/77/300 39/81/300 146/104/300
f 532/82/301 308/105/301 35/104/301
f 156/81/302 355/82/302 533/104/302
f 332/85/303 47/84/303 8/104/303
f 351/63/304 374/106/304 460/64/304
f 183/106/305 94/70/305 443/64/305
f 194/63/306 189/65/306 273/104/306
f 498/68/307 194/85/307 27/104/307
f 540/65/308 92/68/308 52/104/308
f 360/107/309 536/108/309 348/104/309
f 508/109/310 94/107/310 88/104/310
f 317/108/311 469/110/311 230/104/311
f 154/106/312 492/63/312 537/104/312
f 295/110/313 352/106/313 303/104/313
f 24/111/314 160/109/314 441/104/314
f 13/112/315 384/113/315 257/104/315
f 544/105/316 427/112/316 30/104/316
f 249/113/317 298/114/317 325/104/317
f 350/115/318 464/111/318 413/104/318
f 511/114/319 319/115/319 400/104/319
f 223/70/290 235/106/290 226/73/290
f 378/113/320 540/101/320 394/102/320
f 231/101/321 235/113/321 234/92/321
f 215/114/322 19/113/322 370/102/322
f 243/99/323 343/115/323 470/102/323
f 494/114/324 403/102/324 44/115/324
f 144/112/325 157/92/325 297/113/325
f 544/82/326 30/89/326 312/105/326
f 150/89/327 406/82/327 145/80/327
f 529/88/328 523/105/328 422/89/328
f 184/112/329 517/105/329 298/92/329
f 247/105/330 352/88/330 380/92/330
f 362/108/331 534/107/331 530/71/331
f 313/107/332 417/87/332 209/71/332
f 487/108/333 186/71/333 339/73/333
f 347/110/334 21/73/334 148/106/334
f 14/110/335 387/108/335 470/73/335
f 2/87/336 482/107/336 12/98/336
f 335/96/337 454/111/337 49/99/337
f 344/115/338 213/99/338 364/111/338
f 364/111/339 455/96/339 358/98/339
f 428/109/340 183/98/340 250/107/340
f 506/109/341 491/111/341 328/98/341
f 241/116/342 235/69/342 242/117/342
f 399/69/343 525/116/343 476/86/343
f 32/67/344 196/117/344 309/69/344
f 367/64/345 366/11/345 368/117/345
f 235/67/290 223/64/290 242/117/290
f 320/83/346 503/118/346 488/78/346
f 158/7/347 527/78/347 371/118/347
f 238/83/348 235/86/348 239/118/348
f 161/119/349 532/86/349 35/116/349
f 235/86/292 241/119/292 239/118/292
f 427/120/350 190/121/350 40/122/350
f 204/121/351 214/120/351 39/123/351
f 59/123/352 326/120/352 316/124/352
f 510/125/353 191/126/353 17/127/353
f 516/121/354 355/123/354 378/128/354
f 430/129/355 459/130/355 228/124/355
f 481/129/356 271/131/356 324/132/356
f 19/131/357 297/120/357 363/122/357
f 326/129/358 518/133/358 246/130/358
f 469/130/359 386/133/359 457/134/359
f 282/133/360 75/129/360 449/132/360
f 337/135/361 433/126/361 473/125/361
f 23/136/362 528/137/362 152/138/362
f 146/138/363 39/139/363 342/136/363
f 17/137/364 432/136/364 157/140/364
f 194/141/365 273/140/365 13/142/365
f 379/140/366 154/141/366 316/137/366
f 248/143/367 155/144/367 388/145/367
f 153/137/368 503/146/368 446/147/368
f 433/147/369 385/138/369 286/137/369
f 386/146/370 502/137/370 457/141/370
f 540/148/371 378/143/371 92/145/371
f 183/142/372 15/143/372 279/148/372
f 370/120/373 278/129/373 320/124/373
f 530/149/374 251/150/374 221/151/374
f 2/150/375 12/149/375 5/152/375
f 251/152/376 149/149/376 221/126/376
f 444/149/377 397/153/377 478/154/377
f 62/150/378 151/152/378 500/155/378
f 219/150/379 257/156/379 384/151/379
f 21/157/380 319/158/380 349/128/380
f 284/158/381 84/156/381 202/159/381
f 393/150/382 152/160/382 528/156/382
f 295/156/383 260/160/383 250/159/383
f 189/160/384 47/150/384 273/155/384
f 263/153/385 182/149/385 401/151/385
f 317/153/386 328/123/386 469/124/386
f 275/123/387 197/153/387 281/157/387
f 197/157/388 506/153/388 281/151/388
f 413/129/389 272/120/389 495/131/389
f 402/123/390 217/157/390 36/128/390
f 300/154/391 293/161/391 333/126/391
f 373/149/392 218/154/392 458/126/392
f 412/154/393 148/153/393 497/124/393
f 9/154/394 360/130/394 348/161/394
f 377/161/395 249/130/395 127/134/395
f 538/130/396 190/154/396 201/124/396
f 139/162/397 95/163/397 521/164/397
f 524/163/398 441/162/398 160/165/398
f 525/162/399 399/164/399 280/166/399
f 452/167/400 75/166/400 437/168/400
f 286/167/401 55/162/401 265/166/401
f 148/169/402 412/165/402 427/162/402
f 279/164/403 72/170/403 376/171/403
f 18/164/404 521/163/404 95/170/404
f 1/166/405 199/164/405 93/171/405
f 149/168/406 251/166/406 82/172/406
f 528/166/407 23/171/407 277/172/407
f 36/173/408 210/167/408 29/168/408
f 397/174/409 84/175/409 478/176/409
f 319/176/410 160/175/410 24/177/410
f 534/174/411 371/176/411 525/178/411
f 405/179/412 480/178/412 156/180/412
f 245/179/413 489/174/413 409/178/413
f 405/177/414 350/175/414 413/181/414
f 465/182/415 418/183/415 93/184/415
f 354/183/416 52/170/416 195/184/416
f 443/181/417 94/185/417 340/177/417
f 492/186/418 355/181/418 410/175/418
f 462/178/419 67/176/419 448/187/419
f 537/170/420 481/163/420 316/188/420
f 444/189/421 246/140/421 397/136/421
f 187/136/422 84/190/422 397/189/422
f 191/140/423 188/189/423 10/191/423
f 519/189/424 385/192/424 504/193/424
f 524/191/425 233/189/425 151/193/425
f 208/190/426 75/136/426 366/139/426
f 329/142/427 485/191/427 266/143/427
f 6/140/428 289/191/428 145/142/428
f 93/191/429 8/193/429 189/143/429
f 517/193/430 195/194/430 377/144/430
f 21/143/431 536/193/431 360/144/431
f 472/193/432 365/192/432 487/194/432
f 314/171/433 528/183/433 277/182/433
f 448/171/434 22/170/434 25/183/434
f 92/172/435 378/171/435 420/182/435
f 12/188/436 188/163/436 5/195/436
f 429/165/437 314/195/437 288/163/437
f 373/170/438 262/188/438 428/184/438
f 488/142/439 343/148/439 459/146/439
f 37/146/440 296/141/440 345/142/440
f 18/148/441 369/147/441 357/146/441
f 98/195/442 531/184/442 393/188/442
f 272/148/443 208/145/443 366/147/443
f 456/196/444 270/197/444 26/198/444
f 329/199/445 266/200/445 208/201/445
f 424/196/446 412/202/446 200/197/446
f 504/202/447 340/203/447 393/204/447
f 196/202/448 16/204/448 309/197/448
f 501/201/449 377/205/449 526/199/449
f 283/206/450 437/196/450 300/199/450
f 326/199/451 444/196/451 182/198/451
f 298/207/452 356/206/452 198/199/452
f 442/200/453 251/199/453 439/208/453
f 507/199/454 484/198/454 325/208/454
f 7/209/455 91/210/455 411/211/455
f 460/209/456 100/212/456 62/213/456
f 143/212/457 526/209/457 294/211/457
f 153/213/458 359/214/458 387/209/458
f 369/213/459 158/215/459 357/216/459
f 383/214/460 471/213/460 416/216/460
f 348/211/461 309/217/461 308/212/461
f 485/218/462 28/214/462 535/219/462
f 274/210/463 225/209/463 498/214/463
f 4/214/464 19/216/464 363/219/464
f 299/216/465 436/220/465 152/221/465
f 385/219/466 519/216/466 286/221/466
f 64/207/467 269/222/467 442/223/467
f 222/204/468 299/224/468 486/225/468
f 346/197/469 358/204/469 455/225/469
f 310/198/470 391/197/470 249/226/470
f 47/208/471 384/198/471 13/226/471
f 509/197/472 505/225/472 517/226/472
f 7/227/473 246/224/473 518/204/473
f 23/228/474 435/229/474 305/202/474
f 357/202/475 33/196/475 521/228/475
f 517/203/476 325/202/476 298/229/476
f 139/204/477 201/203/477 529/227/477
f 96/229/478 527/227/478 158/203/478
f 489/226/479 245/230/479 462/208/479
f 277/205/480 305/231/480 101/232/480
f 443/199/481 15/205/481 183/232/481
f 160/207/482 347/199/482 408/232/482
f 145/206/483 301/207/483 255/223/483
f 500/232/484 233/222/484 22/207/484
f 1/201/485 253/233/485 291/231/485
f 483/230/486 379/234/486 42/200/486
f 399/200/487 515/208/487 145/230/487
f 94/201/488 98/200/488 340/233/488
f 190/205/489 523/201/489 529/231/489
f 221/200/490 44/234/490 403/233/490
f 518/235/491 91/236/491 7/132/491
f 372/131/492 313/235/492 458/132/492
f 149/236/493 44/235/493 221/237/493
f 361/158/494 10/238/494 188/239/494
f 196/132/495 482/236/495 16/240/495
f 423/235/496 244/241/496 259/237/496
f 3/121/497 418/241/497 225/122/497
f 157/241/498 332/239/498 83/237/498
f 346/239/499 345/121/499 358/128/499
f 285/241/500 502/131/500 522/122/500
f 212/131/501 381/241/501 41/235/501
f 443/238/502 142/158/502 15/159/502
f 228/160/503 459/242/503 243/159/503
f 15/242/504 72/160/504 279/240/504
f 99/240/505 47/160/505 432/155/505
f 11/156/506 496/157/506 542/151/506
f 19/157/507 144/156/507 297/158/507
f 270/236/508 456/242/508 129/240/508
f 314/158/509 161/239/509 35/128/509
f 296/239/510 381/238/510 345/237/510
f 395/236/511 400/238/511 538/242/511
f 271/242/512 537/238/512 156/159/512
f 527/238/513 394/236/513 354/237/513
f 453/239/514 92/241/514 420/121/514
f 497/215/515 148/243/515 360/244/515
f 139/245/516 467/243/516 201/215/516
f 143/243/517 501/246/517 526/244/517
f 4/210/518 363/214/518 185/218/518
f 546/211/519 475/210/519 207/218/519
f 293/213/520 282/245/520 449/215/520
f 123/215/521 510/244/521 17/220/521
f 487/216/522 339/215/522 187/220/522
f 501/217/523 447/247/523 336/245/523
f 474/245/524 284/213/524 202/212/524
f 129/245/525 479/212/525 482/217/525
f 31/218/526 435/219/526 23/211/526
f 378/246/527 355/243/527 492/248/527
f 526/243/528 192/245/528 263/248/528
f 204/249/529 186/211/529 258/219/529
f 464/250/530 200/249/530 497/221/530
f 149/219/531 82/221/531 336/249/531
f 28/248/532 9/245/532 535/247/532
f 240/251/533 486/250/533 508/220/533
f 294/250/534 276/221/534 143/220/534
f 421/251/535 255/220/535 542/244/535
f 219/246/536 214/252/536 257/244/536
f 161/252/537 314/251/537 277/244/537
f 336/253/538 249/254/538 252/255/538
f 429/256/539 393/253/539 528/255/539
f 404/257/540 428/256/540 461/255/540
f 299/258/541 222/259/541 31/260/541
f 520/261/542 216/256/542 543/257/542
f 477/260/543 219/259/543 99/262/543
f 215/263/544 370/264/544 123/265/544
f 341/265/545 338/266/545 368/263/545
f 135/267/546 322/265/546 524/264/546
f 236/268/547 86/267/547 34/269/547
f 267/267/548 488/264/548 311/269/548
f 510/270/549 5/271/549 191/272/549
f 16/259/550 479/261/550 434/257/550
f 456/253/551 429/273/551 288/254/551
f 193/259/552 101/257/552 275/274/552
f 10/273/553 99/275/553 432/276/553
f 306/276/554 302/275/554 398/277/554
f 394/278/555 516/268/555 378/269/555
f 202/270/556 345/260/556 346/271/556
f 363/279/557 270/270/557 129/272/557
f 1/270/558 463/258/558 337/260/558
f 345/280/559 202/268/559 37/281/559
f 527/268/560 96/278/560 394/281/560
f 330/266/561 85/279/561 349/263/561
f 539/282/562 475/283/562 447/262/562
f 469/282/563 490/262/563 471/274/563
f 182/284/564 478/285/564 401/286/564
f 75/283/565 452/285/565 366/284/565
f 300/286/566 415/287/566 283/284/566
f 147/274/567 97/288/567 90/282/567
f 442/255/568 82/289/568 251/257/568
f 267/278/569 470/269/569 343/290/569
f 309/289/570 348/291/570 32/257/570
f 33/274/571 212/257/571 41/291/571
f 433/291/572 286/288/572 396/274/572
f 511/284/573 206/262/573 349/283/573
f 213/292/574 344/289/574 362/255/574
f 418/293/575 465/292/575 225/255/575
f 263/276/576 302/254/576 526/273/576
f 328/259/577 491/274/577 386/262/577
f 261/276/578 272/293/578 413/254/578
f 273/293/579 47/255/579 13/254/579
f 504/294/580 385/287/580 340/286/580
f 89/286/581 310/295/581 249/294/581
f 407/294/582 64/295/582 442/296/582
f 28/296/583 329/297/583 261/298/583
f 422/296/584 523/298/584 427/294/584
f 354/286/585 540/285/585 52/299/585
f 275/300/586 101/286/586 197/299/586
f 9/299/587 28/285/587 360/301/587
f 420/301/588 378/283/588 154/302/588
f 11/285/589 290/283/589 292/301/589
f 31/295/590 513/286/590 87/300/590
f 329/297/591 208/296/591 272/303/591
f 471/304/592 383/297/592 230/303/592
f 276/303/593 294/296/593 302/305/593
f 254/305/594 49/295/594 147/300/594
f 359/296/595 243/295/595 387/305/595
f 387/283/596 311/282/596 153/302/596
f 38/306/597 322/307/597 440/308/597
f 464/307/598 424/306/598 200/309/598
f 274/309/599 204/306/599 258/310/599
f 408/309/600 211/311/600 160/312/600
f 210/307/601 214/309/601 219/313/601
f 88/291/602 240/289/602 508/314/602
f 436/282/603 299/288/603 31/315/603
f 438/302/604 243/282/604 359/315/604
f 521/315/605 33/288/605 139/316/605
f 484/316/606 287/291/606 325/314/606
f 528/288/607 314/291/607 429/316/607
f 320/317/608 278/297/608 503/304/608
f 442/318/609 336/280/609 82/281/609
f 200/319/610 412/320/610 497/318/610
f 456/318/611 26/320/611 429/280/611
f 252/314/612 501/289/612 336/321/612
f 20/317/613 262/322/613 535/319/613
f 439/317/614 49/319/614 454/318/614
f 249/275/615 325/319/615 287/277/615
f 515/320/616 399/319/616 476/275/616
f 433/319/617 337/322/617 385/277/617
f 360/281/618 28/297/618 261/317/618
f 292/317/619 389/318/619 11/281/619
f 183/289/620 88/292/620 94/321/620
f 448/277/621 100/322/621 374/323/621
f 380/324/622 425/277/622 247/323/622
f 480/323/623 405/322/623 413/325/623
f 142/325/624 385/317/624 205/304/624
f 415/322/625 426/317/625 283/325/625
f 38/276/626 440/277/626 462/324/626
f 148/292/627 544/293/627 347/326/627
f 72/321/628 304/292/628 376/326/628
f 479/326/629 456/293/629 288/327/629
f 197/327/630 305/276/630 491/324/630
f 486/293/631 299/276/631 531/327/631
f 463/328/632 3/329/632 247/139/632
f 357/328/633 344/139/633 364/138/633
f 203/139/634 132/329/634 228/190/634
f 230/329/635 416/330/635 317/192/635
f 266/330/636 293/194/636 449/192/636
f 435/328/637 124/138/637 305/147/637
f 512/331/638 417/332/638 271/333/638
f 205/334/639 425/331/639 142/333/639
f 96/333/640 355/332/640 516/335/640
f 421/336/641 496/337/641 184/338/641
f 95/332/642 139/339/642 529/335/642
f 245/340/643 524/184/643 151/195/643
f 464/341/644 350/162/644 424/167/644
f 373/169/645 260/162/645 218/341/645
f 529/173/646 422/341/646 533/167/646
f 478/342/647 182/343/647 444/181/647
f 272/184/648 366/344/648 367/182/648
f 377/340/649 195/165/649 526/169/649
f 415/344/650 414/173/650 69/172/650
f 161/172/651 193/182/651 532/344/651
f 39/340/652 186/195/652 204/165/652
f 192/341/653 420/340/653 483/169/653
f 205/168/654 463/172/654 247/173/654
f 72/345/655 380/331/655 304/334/655
f 1/346/656 26/179/656 199/347/656
f 544/346/657 148/348/657 427/179/657
f 458/177/658 313/185/658 535/176/658
f 339/338/659 84/349/659 187/336/659
f 250/187/660 183/176/660 376/185/660
f 339/348/661 186/174/661 146/179/661
f 96/186/662 516/350/662 394/351/662
f 123/347/663 370/179/663 320/180/663
f 211/350/664 408/186/664 322/348/664
f 448/348/665 38/175/665 462/174/665
f 348/175/666 85/348/666 32/186/666
f 129/336/667 185/352/667 363/337/667
f 340/353/668 385/333/668 142/354/668
f 25/334/669 38/333/669 448/353/669
f 305/333/670 277/335/670 23/354/670
f 444/331/671 326/345/671 246/349/671
f 411/349/672 295/355/672 303/331/672
f 151/352/673 233/334/673 500/353/673
f 185/353/674 129/354/674 482/337/674
f 265/352/675 86/353/675 244/337/675
f 219/345/676 29/336/676 210/349/676
f 93/345/677 199/334/677 8/352/677
f 387/336/678 267/345/678 311/352/678
f 31/356/679 222/272/679 513/287/679
f 36/272/680 217/271/680 342/287/680
f 441/294/681 524/356/681 245/287/681
f 220/290/682 389/298/682 256/278/682
f 519/290/683 504/356/683 55/294/683
f 489/271/684 312/284/684 40/287/684
f 412/350/685 422/346/685 427/357/685
f 201/192/686 327/190/686 395/329/686
f 305/350/687 124/348/687 491/346/687
f 293/284/688 323/260/688 333/262/688
f 101/271/689 305/260/689 197/284/689
f 306/298/690 539/290/690 447/294/690
f 1/358/691 93/359/691 418/356/691
f 245/358/692 151/356/692 462/290/692
f 389/264/693 520/359/693 543/358/693
f 370/269/694 203/358/694 278/290/694
f 20/358/695 348/269/695 308/264/695
f 409/359/696 40/264/696 190/263/696
f 430/281/697 5/278/697 510/297/697
f 325/278/698 517/298/698 451/297/698
f 352/359/699 247/272/699 365/356/699
f 531/359/700 152/263/700 393/279/700
f 297/272/701 83/359/701 270/279/701
f 331/189/702 253/190/702 473/192/702
f 367/347/703 368/360/703 338/346/703
f 545/361/704 457/351/704 285/350/704
f 5/362/705 188/360/705 191/347/705
f 490/360/706 545/357/706 471/346/706
f 448/357/707 67/361/707 100/350/707
f 317/363/708 416/362/708 514/347/708
f 21/180/709 347/178/709 319/187/709
f 348/181/710 536/343/710 85/185/710
f 522/342/711 87/186/711 514/351/711
f 334/180/712 522/363/712 514/347/712
f 400/342/713 24/181/713 538/186/713
f 84/343/714 284/187/714 478/185/714
f 313/332/715 372/331/715 382/364/715
f 480/364/716 512/331/716 271/355/716
f 271/339/717 156/332/717 480/364/717
f 512/365/718 341/366/718 375/337/718
f 146/366/719 37/338/719 339/337/719
f 307/339/720 406/367/720 445/335/720
f 504/365/721 429/337/721 26/354/721
f 184/343/722 496/180/722 517/187/722
f 55/368/723 291/365/723 265/354/723
f 20/367/724 535/368/724 9/335/724
f 272/368/725 261/354/725 329/335/725
f 430/369/726 510/370/726 459/371/726
f 228/372/727 243/369/727 438/371/727
f 405/373/728 156/372/728 350/371/728
f 27/374/729 194/375/729 13/376/729
f 389/375/730 220/377/730 493/378/730
f 460/370/731 374/369/731 100/379/731
f 472/379/732 187/369/732 397/380/732
f 363/380/733 297/381/733 270/379/733
f 318/382/734 426/383/734 415/384/734
f 195/379/735 496/384/735 354/370/735
f 143/384/736 276/379/736 501/382/736
f 479/375/737 16/378/737 482/376/737
f 499/385/738 331/386/738 396/376/738
f 210/374/739 36/376/739 342/386/739
f 291/387/740 253/388/740 34/389/740
f 255/390/741 421/391/741 145/392/741
f 19/393/742 4/389/742 370/388/742
f 393/386/743 429/394/743 504/374/743
f 457/378/744 545/395/744 490/385/744
f 17/376/745 191/378/745 432/385/745
f 332/383/746 8/382/746 83/394/746
f 417/385/747 313/383/747 382/386/747
f 198/394/748 442/386/748 97/383/748
f 468/396/749 333/382/749 392/379/749
f 333/392/750 414/391/750 415/397/750
f 483/398/751 263/392/751 192/397/751
f 377/344/752 127/397/752 517/391/752
f 132/390/753 2/374/753 430/399/753
f 390/391/754 209/400/754 512/344/754
f 22/377/755 448/392/755 374/398/755
f 423/401/756 259/402/756 224/403/756
f 495/404/757 338/405/757 413/406/757
f 468/407/758 541/328/758 414/408/758
f 356/408/759 249/409/759 336/410/759
f 541/328/760 69/409/760 414/408/760
f 379/374/761 483/394/761 420/399/761
f 298/410/762 406/396/762 184/381/762
f 277/408/763 193/410/763 161/381/763
f 517/407/764 127/408/764 509/380/764
f 324/381/765 271/396/765 417/379/765
f 55/408/766 1/381/766 291/380/766
f 42/399/767 379/396/767 316/410/767
f 510/399/768 320/400/768 459/391/768
f 183/391/769 279/390/769 376/399/769
f 414/399/770 333/394/770 468/396/770
f 29/400/771 477/399/771 206/410/771
f 404/394/772 461/382/772 275/396/772
f 433/366/773 396/365/773 331/404/773
f 94/411/774 508/412/774 98/330/774
f 465/368/775 498/367/775 225/405/775
f 374/404/776 500/365/776 22/368/776
f 368/405/777 323/404/777 341/368/777
f 326/329/778 59/328/778 518/411/778
f 445/413/779 268/194/779 280/330/779
f 341/145/780 323/144/780 375/413/780
f 388/413/781 450/144/781 389/194/781
f 260/330/782 373/329/782 428/411/782
f 293/330/783 300/412/783 437/413/783
f 426/405/784 318/339/784 69/364/784
f 353/342/785 534/401/785 362/403/785
f 432/351/786 47/414/786 332/401/786
f 438/343/787 153/342/787 446/403/787
f 203/341/788 228/410/788 278/409/788
f 348/340/789 20/341/789 9/409/789
f 280/342/790 307/351/790 445/401/790
f 419/364/791 193/402/791 461/405/791
f 287/405/792 89/367/792 249/339/792
f 40/364/793 409/355/793 489/403/793
f 307/403/794 145/402/794 406/364/794
f 210/355/795 39/349/795 214/403/795
f 420/413/796 192/412/796 453/362/796
f 452/415/797 466/416/797 392/417/797
f 193/418/798 419/419/798 532/415/798
f 449/417/799 208/420/799 266/415/799
f 315/421/800 372/419/800 518/422/800
f 315/418/801 324/415/801 382/420/801
f 315/416/802 518/415/802 59/419/802
f 531/392/803 299/375/803 152/374/803
f 244/374/804 86/390/804 259/392/804
f 254/392/805 335/377/805 49/375/805
f 1/423/806 55/424/806 26/425/806
f 7/423/807 472/426/807 246/424/807
f 207/422/808 475/427/808 346/421/808
f 29/360/809 206/362/809 36/428/809
f 25/357/810 22/360/810 233/428/810
f 253/362/811 337/412/811 473/428/811
f 440/363/812 312/180/812 489/413/812
f 329/362/813 28/363/813 485/413/813
f 135/357/814 524/428/814 211/414/814
f 541/427/815 466/422/815 426/423/815
f 463/406/816 385/421/816 337/427/816
f 203/429/817 370/430/817 185/431/817
f 300/361/818 333/357/818 415/414/818
f 328/351/819 386/361/819 469/414/819
f 338/240/820 495/432/820 367/132/820
f 35/433/821 434/132/821 288/432/821
f 18/388/822 96/387/822 369/434/822
f 440/393/823 544/388/823 312/434/823
f 213/387/824 362/435/824 221/434/824
f 21/436/825 360/433/825 148/432/825
f 398/135/826 302/437/826 263/438/826
f 20/438/827 532/439/827 419/135/827
f 306/387/828 276/438/828 302/437/828
f 410/433/829 355/436/829 156/440/829
f 293/437/830 375/435/830 323/387/830
f 219/135/831 477/439/831 29/441/831
f 263/418/832 401/442/832 398/443/832
f 72/443/833 425/419/833 380/418/833
f 224/426/834 499/443/834 396/442/834
f 49/328/835 280/407/835 268/411/835
f 25/442/836 524/444/836 322/426/836
f 452/443/837 437/426/837 466/423/837
f 366/445/838 452/446/838 392/431/838
f 519/135/839 55/441/839 286/447/839
f 154/445/840 378/431/840 492/430/840
f 19/423/841 215/422/841 144/443/841
f 532/422/842 20/419/842 308/443/842
f 465/448/843 194/449/843 498/450/843
f 144/451/844 17/452/844 157/453/844
f 512/454/845 480/452/845 341/451/845
f 30/455/846 40/436/846 312/432/846
f 182/456/847 483/432/847 42/457/847
f 496/432/848 421/456/848 542/455/848
f 323/450/849 368/454/849 392/451/849
f 225/458/850 274/459/850 258/460/850
f 466/459/851 283/458/851 426/461/851
f 525/459/852 49/461/852 530/462/852
f 219/430/853 384/452/853 99/454/853
f 368/454/854 366/445/854 392/430/854
f 59/432/855 316/240/855 481/457/855
f 330/463/856 206/448/856 477/451/856
f 390/453/857 512/463/857 375/451/857
f 265/448/858 291/434/858 86/449/858
f 294/451/859 526/448/859 302/450/859
f 434/434/860 479/435/860 288/449/860
f 209/393/861 417/434/861 512/448/861
f 353/447/862 357/464/862 158/155/862
f 3/155/863 258/135/863 365/447/863
f 75/240/864 282/155/864 293/464/864
f 529/463/865 201/393/865 190/448/865
f 322/464/866 135/457/866 211/240/866
f 394/465/867 540/417/867 354/466/867
f 468/467/868 392/465/868 466/466/868
f 308/401/869 309/467/869 35/402/869
f 97/419/870 445/421/870 198/416/870
f 468/467/871 466/466/871 541/402/871
f 309/468/872 16/467/872 434/401/872
f 410/417/873 537/465/873 492/469/873
f 357/469/874 353/420/874 344/417/874
f 196/470/875 32/469/875 361/465/875
f 153/414/876 438/468/876 359/401/876
f 510/468/877 123/465/877 320/467/877
f 471/417/878 230/416/878 469/466/878
f 319/427/879 347/471/879 160/472/879
f 31/460/880 23/472/880 436/471/880
f 261/472/881 497/406/881 360/427/881
f 488/406/882 459/472/882 320/404/882
f 317/460/883 514/404/883 328/472/883
f 422/471/884 424/427/884 533/423/884
f 495/406/885 272/405/885 367/416/885
f 222/416/886 486/421/886 513/406/886
f 472/466/887 7/416/887 303/402/887
f 361/423/888 330/425/888 99/471/888
f 154/416/889 537/405/889 316/402/889
f 247/420/890 3/469/890 365/473/890
f 408/474/891 347/475/891 544/412/891
f 461/411/892 262/474/892 20/412/892
f 340/428/893 142/412/893 443/476/893
f 278/414/894 446/428/894 503/468/894
f 525/412/895 280/475/895 49/476/895
f 440/372/896 489/373/896 462/475/896
f 327/369/897 217/372/897 402/474/897
f 20/380/898 419/369/898 461/474/898
f 395/407/899 511/380/899 400/411/899
f 411/474/900 91/372/900 260/475/900
f 145/380/901 421/474/901 150/411/901
f 249/428/902 391/476/902 127/468/902
f 539/371/903 474/477/903 475/478/903
f 322/373/904 38/371/904 25/478/904
f 523/478/905 190/477/905 427/465/905
f 190/473/906 538/418/906 409/420/906
f 536/477/907 21/470/907 349/465/907
f 266/429/908 485/453/908 390/452/908
f 286/475/909 265/373/909 423/478/909
f 261/476/910 464/475/910 497/478/910
f 79/468/911 207/476/911 346/478/911
f 338/452/912 341/430/912 480/429/912
f 151/478/913 62/465/913 67/468/913
f 388/479/914 155/480/914 450/134/914
f 433/481/915 331/479/915 473/132/915
f 438/134/916 446/133/916 278/479/916
f 36/127/917 511/134/917 402/480/917
f 411/133/918 260/132/918 295/479/918
f 517/132/919 496/433/919 195/482/919
f 526/161/920 195/134/920 52/127/920
f 464/440/921 261/483/921 413/433/921
f 499/127/922 259/126/922 236/161/922
f 527/482/923 354/481/923 216/132/923
f 293/482/924 437/433/924 75/483/924
f 101/425/925 193/484/925 277/458/925
f 479/485/926 129/486/926 456/487/926
f 333/485/927 323/488/927 392/486/927
f 34/489/928 86/490/928 291/491/928
f 411/487/929 303/489/929 7/485/929
f 434/490/930 35/492/930 309/491/930
f 196/493/931 12/488/931 482/485/931
f 458/471/932 218/458/932 372/460/932
f 283/458/933 466/471/933 437/425/933
f 197/494/934 491/444/934 506/495/934
f 504/485/935 26/495/935 55/493/935
f 3/444/936 225/493/936 258/495/936
f 458/483/937 262/440/937 373/445/937
f 262/418/938 461/496/938 428/442/938
f 355/217/939 96/211/939 533/442/939
f 403/496/940 494/217/940 79/442/940
f 481/135/941 324/125/941 59/437/941
f 259/211/942 86/497/942 236/442/942
f 511/498/943 36/446/943 206/248/943
f 330/217/944 477/496/944 99/247/944
f 280/499/945 399/496/945 307/418/945
