# Blender 5.1.1
# www.blender.org
mtllib low_poly_wolf_animated0008.mtl
o Wolf
v -0.164597 3.271860 -2.172070
v -0.513392 1.392418 -1.955318
v 0.014469 3.601013 -0.866347
v -0.492070 1.602865 -2.344266
v -0.707722 1.532865 -1.713845
v 0.139224 2.889698 3.140411
v 0.572529 3.263257 0.381268
v -0.551072 2.829738 -1.983010
v 0.232946 2.000535 -0.420539
v -0.774403 2.229068 -1.229568
v 0.313160 2.931907 2.867964
v -0.571847 1.638508 -1.481841
v -0.614802 3.109581 -1.075327
v -0.853172 0.215470 -2.293299
v 0.682406 2.988168 -1.772944
v -0.297390 2.167023 -1.294183
v -0.849381 2.194459 -1.670243
v -0.105468 2.220125 1.587686
v -0.561049 1.632136 -2.384420
v 0.324861 2.272391 -0.852570
v -0.158174 1.876088 0.051193
v -0.469882 -0.022466 0.895104
v 0.454699 1.699248 -2.012823
v -0.615238 1.679710 0.139502
v -0.318764 -0.040156 0.661461
v -0.115230 2.808841 -2.203553
v -0.482469 3.211002 -1.195510
v 0.331365 1.886695 0.034681
v -0.540579 2.577922 -0.270950
v -0.419603 1.546436 0.458595
v 0.520570 1.465432 -2.637334
v -0.420360 2.454925 -1.017032
v -0.474663 2.759608 1.430938
v -0.158826 1.896657 -2.993892
v 0.137649 2.241956 -1.431869
v -0.573958 2.465791 0.132881
v -0.226992 3.535328 1.103951
v -0.317923 0.211762 0.608127
v -0.435082 3.241154 0.415285
v -0.512352 1.535548 0.525796
v -0.447611 2.904083 1.264354
v 0.615460 3.275479 1.240988
v 0.454034 3.559518 2.814518
v -0.383319 4.055557 2.380596
v 0.433218 3.585302 2.832865
v 0.417281 3.591223 2.841725
v -0.790658 2.794404 -1.525753
v 0.381994 3.586296 2.854573
v -0.120344 3.386177 2.782953
v 0.353502 3.561472 2.857126
v 0.345435 3.544352 2.854064
v 0.655235 3.268850 2.266541
v 0.345528 3.508903 2.840722
v 0.353680 3.494046 2.831749
v -0.055676 2.826929 -2.272942
v 0.382282 3.477199 2.813514
v 0.399933 3.476856 2.806036
v 0.417569 3.482126 2.800666
v 0.652799 3.051762 1.072004
v 0.446060 3.506949 2.798113
v 0.454128 3.524073 2.801176
v -0.644632 0.124150 0.853145
v 0.454034 3.571211 2.809955
v -0.093653 3.544225 2.850913
v 0.433218 3.597200 2.827899
v 0.417281 3.603246 2.836663
v -0.537231 0.190809 0.914799
v 0.381994 3.598554 2.849570
v 0.940095 0.046198 0.870244
v 0.353502 3.573946 2.852461
v 0.345435 3.556919 2.849635
v 0.489178 3.169178 -1.561361
v 0.345528 3.521515 2.836814
v 0.353680 3.506561 2.828085
v 0.645063 0.444066 0.343020
v 0.382282 3.489359 2.810166
v 0.399933 3.488833 2.802716
v 0.417569 3.493939 2.797283
v -0.413773 3.806685 2.223209
v 0.446060 3.518576 2.794362
v 0.454127 3.535675 2.797163
v -0.153232 3.837168 2.724407
v -0.452637 2.628569 -2.071897
v -0.115845 3.636066 0.978698
v -0.260431 2.276604 -0.825158
v -0.120528 1.665332 -2.959477
v 0.666298 0.513561 -2.669491
v 0.830145 2.559962 -1.468761
v 0.393858 3.545277 2.828135
v -0.062863 3.517893 2.817321
v 0.715767 3.112214 0.309812
v 0.510482 2.743715 1.858283
v -0.475186 3.046165 -2.022815
v 0.696580 2.705717 -1.889158
v -0.538073 2.257675 1.328601
v 0.138952 2.264268 1.817304
v 0.035033 3.479716 2.905471
v 0.446216 2.613397 -2.081251
v -0.765824 2.786221 -1.170422
v -0.514112 0.046642 1.038064
v 0.571863 1.638589 -1.481557
v 0.471159 3.568380 2.761897
v 0.466973 3.594027 2.772826
v 0.454962 3.616036 2.785712
v 0.436303 3.632299 2.799279
v 0.412821 3.641218 2.812187
v 0.386815 3.641920 2.823184
v 0.360832 3.634319 2.831195
v 0.337413 3.619197 2.835422
v 0.318852 3.598032 2.835455
v 0.306966 3.572903 2.831298
v 0.302917 3.546258 2.823361
v 0.307104 3.520658 2.812434
v 0.319114 3.498612 2.799585
v 0.337774 3.482293 2.786059
v 0.361256 3.473317 2.773169
v 0.387261 3.472548 2.762184
v 0.413245 3.480060 2.754184
v 0.436664 3.495185 2.749940
v 0.455224 3.516396 2.749872
v 0.467110 3.541629 2.753987
v -0.137663 3.562405 2.831653
v -0.637647 1.154223 -2.589647
v 0.558560 1.109234 -2.350585
v -0.116415 3.589088 2.848011
v -0.100073 3.595659 2.855571
v 0.441143 3.545699 2.805911
v -0.063795 3.592126 2.865825
v -0.359955 2.179291 -1.822702
v -0.034390 3.568447 2.866592
v -0.026011 3.551683 2.863170
v -0.558560 1.109234 -2.350585
v -0.025917 3.516162 2.850415
v -0.034213 3.500947 2.842306
v -0.448775 0.429217 0.330538
v -0.063507 3.482827 2.826541
v -0.081639 3.481733 2.820415
v -0.099785 3.486274 2.816302
v -0.640197 2.487602 1.277079
v -0.129189 3.510002 2.815502
v -0.137569 3.526849 2.818895
v 0.470330 3.048277 -2.029600
v 0.650182 4.071647 2.342510
v -0.686754 1.611717 -2.276876
v 0.185598 2.897469 3.275840
v -0.336584 3.466439 0.905493
v -0.079460 3.515352 2.812701
v -0.195508 1.883021 0.328512
v -0.199273 3.900261 2.594447
v 0.261340 3.059876 3.338094
v -0.635198 0.084731 0.691756
v 0.472958 2.214100 -2.078783
v -0.587111 0.170994 -2.294430
v 0.705660 2.778250 1.387380
v 0.027344 2.927194 2.878483
v 0.791993 2.135033 1.111630
v -0.751112 2.396960 -1.840859
v -0.018325 2.585477 2.134578
v -0.062916 3.528213 2.837814
v -0.496554 1.803946 -0.032815
v 0.301945 2.167640 -1.298553
v -0.158200 3.558934 2.784997
v -0.154035 3.584727 2.795592
v -0.141813 3.607135 2.807558
v -0.122730 3.624014 2.819709
v -0.098652 3.633703 2.830845
v -0.071937 3.635257 2.839886
v -0.045201 3.628502 2.845948
v -0.021060 3.614139 2.848427
v -0.001878 3.593569 2.847082
v 0.010469 3.568808 2.842054
v 0.014771 3.542259 2.833842
v 0.010607 3.516496 2.823252
v -0.001615 3.494050 2.811321
v -0.020699 3.477122 2.799206
v -0.044777 3.467387 2.788085
v -0.071492 3.465780 2.779051
v -0.098228 3.472456 2.772996
v -0.122369 3.486828 2.770501
v -0.141551 3.507446 2.771812
v -0.153898 3.532304 2.776802
v 0.544291 3.563584 1.296017
v 0.791741 2.796877 -1.529387
v 0.376027 3.068898 3.073553
v -0.454699 1.699248 -2.012822
v -0.203807 3.469192 0.427964
v 0.141275 3.533983 0.729034
v -0.738349 1.830392 -1.338887
v -0.682912 2.984014 -1.766109
v -0.649342 1.820425 0.669926
v -0.821738 1.856431 -1.546996
v 0.686493 3.355829 1.849485
v 0.476659 2.178411 -1.045903
v -0.480461 3.154109 -1.537211
v 0.521337 3.295431 2.642263
v -0.463424 2.172251 -1.043260
v 0.707723 1.532866 -1.713845
v 0.176527 3.451955 3.022020
v -0.352213 2.925352 -2.141387
v 0.106423 1.786416 0.566713
v -0.662159 2.190562 1.037678
v -0.172983 3.726189 1.330175
v -0.500709 1.209533 -2.542367
v -0.491289 3.261607 -0.104912
v 0.153174 3.472713 -1.940536
v -0.468124 2.258754 -0.376385
v -0.310943 3.966575 2.259742
v 0.596118 1.754217 -0.036094
v 0.804318 1.990383 0.409036
v -0.576192 3.084590 0.353877
v -0.496627 1.404513 0.009584
v -0.391769 3.033809 1.400833
v -0.359363 3.262827 2.165456
v -0.523570 3.098841 -0.129182
v -0.591279 1.452218 -2.630560
v 0.372715 2.962768 2.504353
v -0.518651 2.808146 0.644135
v 0.660124 2.604085 -0.311662
v -0.465623 2.847192 -0.693344
v 0.182168 2.890738 3.179612
v -0.409293 3.737348 2.358783
v 0.591279 1.452219 -2.630560
v -0.137663 3.549762 2.836293
v -0.019353 1.538788 -3.326415
v -0.188776 3.564950 -1.354982
v -0.116415 3.576239 2.853092
v -0.100073 3.582693 2.860765
v -0.544137 0.525616 -2.434231
v -0.063795 3.578945 2.870980
v 0.845019 0.211709 -2.279692
v -0.034390 3.555076 2.871401
v -0.026011 3.538228 2.867734
v -0.574941 -0.078268 0.671325
v -0.025917 3.502779 2.854392
v -0.034213 3.487651 2.846024
v -0.163635 1.541169 -3.320782
v -0.063507 3.469848 2.829921
v -0.081639 3.468915 2.823759
v -0.099785 3.473596 2.819706
v 0.849384 2.194458 -1.670224
v -0.129189 3.497464 2.819283
v -0.137569 3.514317 2.822951
v -0.750286 0.387135 -2.206212
v -0.071029 1.654882 -2.895455
v -0.555736 0.302037 0.620835
v 0.500151 3.480005 0.868062
v 0.195889 3.565511 -1.365179
v 0.057794 2.935628 2.960596
v 0.388320 3.607070 2.894255
v 0.745573 2.989631 -1.019680
v -0.217327 3.702051 2.734933
v 0.452451 3.846763 2.702193
v -0.110027 2.975590 -2.416435
v -0.103819 3.516763 2.816043
v 0.257564 2.905560 3.071464
v 0.222274 2.896839 3.143955
v -0.452721 3.138469 -0.692860
v -0.209382 3.485701 -0.154157
v -0.093212 1.387952 -3.304412
v 0.544156 2.868736 -0.727091
v 0.387037 1.895722 0.308780
v 0.453693 2.482504 -0.812566
v 0.567741 3.752887 1.808279
v -0.457464 3.030347 1.111596
v -0.026969 2.499825 -2.418026
v 0.666087 1.829325 -0.072238
v -0.854394 0.218593 -2.299151
v 0.002934 3.358682 2.991065
v -0.076096 3.538149 2.845251
v -0.327923 2.537440 -2.082061
v 0.886053 2.222884 0.984755
v 0.550647 1.763212 0.128190
v -0.692047 3.010093 -1.452666
v -0.329713 3.395019 -0.691077
v 0.738347 1.830521 -1.338652
v 0.699318 4.230920 2.386668
v 0.459165 1.817978 -1.459650
v -0.502280 0.510755 -2.646274
v 0.699529 3.020674 -1.469382
v -0.024721 3.062290 3.088302
v 0.821752 1.856495 -1.546765
v 0.702984 0.454358 0.291485
v 0.781934 0.004860 0.852658
v 0.104020 3.800420 1.472328
v 0.442258 0.274970 -2.431282
v 0.112840 2.671256 -2.456312
v 0.380482 3.534947 2.821661
v 0.007461 2.279668 -1.719192
v 0.182020 2.884964 3.173017
v 0.288566 2.939433 2.952103
v -0.163775 2.674096 -2.448267
v 0.257712 2.911334 3.078058
v 0.795521 0.165315 0.477526
v 0.761698 4.142407 2.381825
v 0.519089 3.158232 -0.724918
v -0.293847 3.299159 1.155168
v -0.588089 2.324773 -2.044878
v 0.320034 3.434393 2.917509
v 0.561049 1.632136 -2.384420
v 0.873933 -0.046640 0.622198
v 0.222126 2.891065 3.137360
v 0.676764 3.823687 2.182394
v 0.592423 3.285263 -0.141658
v 0.510936 3.229304 -1.225006
v 0.513392 1.392418 -1.955318
v 0.478402 3.995762 2.357237
v 0.110238 3.056859 3.340970
v 0.009310 2.288400 -1.294370
v -0.244068 2.363891 -1.106491
v 0.411596 3.551889 2.832509
v -0.729230 0.182822 -2.344111
v -0.432638 0.868614 0.501156
v 0.598831 2.080769 0.186152
v 0.238990 2.246423 -1.649146
v 0.689927 2.833312 0.602716
v 0.660785 2.922316 1.223505
v 0.865030 0.353157 -2.330882
v 0.948286 0.045213 0.858216
v -0.367929 1.969203 0.118177
v -0.666298 0.513561 -2.669491
v -0.058250 3.521860 2.824624
v -0.387104 0.421535 0.378019
v 0.834796 0.332391 0.573685
v 0.793357 2.767752 0.790221
v 0.321626 3.446145 2.845595
v 0.486553 3.311763 1.125126
v -0.606225 2.738867 0.838361
v 0.702320 0.498059 -2.492339
v 0.477463 1.908212 0.113572
v -0.375647 2.465879 -0.788988
v -0.068503 2.041732 -3.042380
v -0.696571 2.706456 -1.887809
v 0.928274 0.118860 0.638742
v 0.729230 0.182822 -2.344111
v -0.113879 3.520232 2.823913
v 0.151795 3.898735 2.798947
v -0.009274 3.285297 -2.293628
v 0.731353 1.562697 0.483625
v -0.180003 3.545057 0.851865
v 0.348823 2.856001 -2.139851
v 0.877996 1.455418 0.420880
v -0.503150 3.304503 0.933425
v -0.865030 0.353157 -2.330881
v -0.241908 2.732412 1.886297
v -0.342634 3.550697 1.330990
v -0.319100 3.762717 1.828071
v -0.299399 1.891282 0.139882
v 0.024553 2.140315 -0.848152
v -0.340970 2.083009 -0.402980
v 0.531288 1.911797 0.997479
v -0.637076 0.010606 0.911972
v 0.386427 3.407587 -0.713360
v -0.159591 2.709727 2.069184
v 0.481088 3.104735 2.452598
v 0.367050 2.228117 1.570983
v 0.161553 3.683278 2.972231
v -0.298116 2.478577 1.696581
v -0.463827 3.285199 1.533749
v -0.711723 0.212897 -2.128117
v 0.085058 1.855845 -0.019407
v -0.577205 2.547698 -1.005163
v -0.368858 3.252953 2.304548
v -0.472805 2.214572 -2.079115
v -0.530211 3.059229 1.589095
v 0.309184 3.491462 -0.178273
v 0.651898 0.553284 0.500650
v 0.679300 0.892886 0.463454
v 0.749592 0.684989 0.551440
v -0.010403 2.234308 1.730741
v -0.520570 1.465432 -2.637333
v -0.060687 2.958107 2.471284
v 0.725664 2.493945 0.088864
v 0.511971 2.681850 -0.739302
v -0.511080 -0.043330 0.974665
v 0.888177 0.602400 0.498200
v 0.652651 3.132555 -1.111689
v 0.521387 3.713782 2.707821
v 0.558868 2.492230 1.665373
v 0.612887 3.049224 1.362579
v 0.379554 3.434262 -1.267764
v -0.410677 3.259626 1.280579
v 0.686594 2.550187 0.458349
v 0.853172 0.215471 -2.293299
v -0.702380 2.965224 -0.982262
v 0.150886 3.273682 -2.176235
v 0.544137 0.525616 -2.434232
v -0.781186 0.146125 -2.209693
v 0.098729 2.908713 3.083909
v 0.205350 2.815224 3.147734
v 0.801467 1.710636 0.091465
v 0.423613 3.552063 2.826894
v 0.731760 0.257879 0.687050
v 0.323834 2.535803 -2.083758
v 0.310959 2.590684 2.122988
v -0.623026 2.373485 0.637500
v 0.018543 1.893720 -3.000633
v 0.324284 3.601578 0.940841
v 0.551961 3.945135 2.097011
v 0.041709 2.873515 3.168420
v -0.608772 1.959537 0.456951
v 0.411717 3.843763 1.799655
v -0.512490 2.524216 0.498916
v -0.493645 4.122958 2.428114
v 0.779521 2.233048 -1.233239
v 0.754776 1.930856 0.902504
v 0.251054 3.089519 3.440202
v -0.106040 3.544005 2.846197
v -0.421091 1.732012 -0.001603
v -0.658091 1.421886 0.472964
v 0.779116 2.283268 1.282854
v 0.630057 3.124002 -0.168307
v -0.214582 1.847833 0.815899
v 0.584111 1.756168 0.629850
v 0.946886 0.158892 0.799181
v 0.949801 0.045987 0.852469
v 0.854394 0.218593 -2.299151
v 0.812591 2.404481 0.588936
v -0.163693 3.469317 -1.936713
v 0.459958 2.477143 -1.024485
v 0.765852 3.078429 1.539244
v 0.321916 2.878135 3.158108
v -0.293977 1.894178 1.025551
v -0.027843 1.663852 -2.963149
v 0.118848 1.822836 0.963034
v 0.333494 3.404975 -1.772221
v 0.829295 -0.014071 0.929216
v -0.364121 1.735470 0.662003
v 0.779910 2.797723 -1.185483
v 0.191852 2.433526 -1.972177
v -0.642905 1.174466 -2.337269
v 0.420050 3.524812 2.796914
v -0.830148 2.559954 -1.468757
v 0.074649 2.975052 -2.421023
v -0.152278 2.247318 -1.411092
v 0.500709 1.209533 -2.542367
v 0.492070 1.602865 -2.344266
v 0.616259 -0.019745 0.629757
v -0.477340 0.322505 -2.242434
v -0.124841 3.537023 2.826566
v -0.388005 0.530584 0.535911
v -0.625823 0.569351 0.549536
v -0.067710 3.600437 2.910728
v 0.546011 2.829664 -1.988786
v 0.409108 3.545451 1.080585
v 0.116806 3.112626 3.416324
v -0.442258 0.274970 -2.431281
v 0.251566 4.024155 2.467244
v -0.316586 0.098754 0.909912
v 0.686441 1.430338 -0.030531
v 0.047732 2.873305 2.820369
v 0.395546 3.522669 2.795357
v 0.600830 0.231817 0.576975
v 0.635147 3.278088 2.128386
v -0.121592 3.527466 2.827999
v -0.433843 3.340142 1.891775
v -0.190738 2.432780 -1.966581
v 0.477340 0.322505 -2.242434
v 0.594715 2.281747 -0.412380
v -0.702320 0.498059 -2.492339
v -0.628140 0.011965 0.923419
v 0.604361 2.563259 -1.017576
v -0.442112 0.232254 0.726854
v -0.006003 3.521236 -1.997246
v 0.440580 1.862134 0.793684
v -0.341008 3.395255 -1.757503
v 0.624855 0.119305 0.877990
v -0.631681 2.720797 1.064515
v 0.841102 0.220897 0.868063
v 0.750287 0.387135 -2.206212
v -0.845019 0.211709 -2.279691
v 0.781186 0.146125 -2.209694
v 0.333206 3.483124 0.412030
v -0.032029 2.778037 -2.674558
v 0.038555 3.874415 1.828289
v -0.132533 3.970455 2.100314
v 0.057646 2.929853 2.954002
v -0.429707 2.662094 -0.709013
v 0.369963 3.734041 1.306946
v -0.236096 2.245207 -1.647423
v 0.865240 1.853487 0.618570
v 0.835193 2.749987 1.013455
v -0.458965 1.817907 -1.459291
v 0.689145 3.303287 1.487607
v 0.375062 3.528468 2.808828
v 0.540904 1.989000 0.087400
v 0.686754 1.611717 -2.276877
v 0.060931 3.493535 0.321805
v -0.782513 0.242958 -2.542693
v -0.487684 0.657981 0.593393
v 0.711723 0.212897 -2.128118
v 0.642905 1.174466 -2.337269
v 0.639828 2.577045 1.486284
v 0.139371 2.895472 3.147006
v -0.433946 4.213421 2.428121
v 0.633881 1.569433 0.422874
v 0.413380 2.950788 2.716354
v 0.095806 1.824265 0.277928
v -0.361472 3.422895 -1.249061
v -0.114368 1.444853 -3.783548
v -0.639009 0.011304 0.906342
v 0.486965 3.911090 2.569230
v 0.502281 0.510755 -2.646274
v -0.518866 0.209751 -2.547841
v 0.063029 2.810344 -2.209901
v 0.430554 3.528582 2.804036
v 0.658757 1.162465 -2.436545
v 0.379254 3.524644 2.801200
v 0.751113 2.396957 -1.840857
v 0.438315 3.536049 2.807560
v -0.658757 1.162465 -2.436545
v -0.422980 2.058487 0.220777
v 0.894510 1.983635 0.559568
v 0.637647 1.154223 -2.589648
v 0.782513 0.242958 -2.542693
v 0.098581 2.902938 3.077315
v 0.282328 2.239030 1.720309
v 0.438274 3.394593 2.762515
v 0.673925 3.327678 0.890726
v 0.086924 2.950538 -2.272779
v 0.155966 2.851602 2.454527
v -0.395182 2.560721 1.524017
v 0.518866 0.209751 -2.547842
v -0.524031 1.903548 0.945969
v -0.515817 0.136689 0.521990
v -0.084314 2.943345 2.735052
v 0.684254 3.754580 2.318353
v 0.158293 2.669088 2.228260
v 0.360976 2.180340 -1.822556
v -0.556210 2.107290 1.157801
v -0.208670 3.284401 2.669154
v 0.588048 2.324910 -2.044950
v 0.286043 2.383299 -1.105999
v 0.125956 2.015546 1.309130
v -0.176261 3.094386 2.477014
v 0.473720 2.099716 -0.430342
v -0.095980 1.994960 -0.409920
v 0.868146 2.516785 1.224312
v -0.688184 1.949086 0.613234
v 0.354437 3.985828 2.096336
v 0.443346 2.719404 2.046973
v 0.832688 0.076041 0.992397
v 0.288419 2.933659 2.945509
v 0.290333 2.877350 2.811468
v -0.365037 1.743224 0.159238
v 0.587111 0.170994 -2.294430
v -0.182122 3.981668 2.430121
vn 0.3633 -0.3273 0.8723
vn 0.7268 0.1884 -0.6605
vn 0.3634 -0.3271 0.8723
vn -0.9928 0.0201 -0.1178
vn -0.8307 -0.4574 0.3172
vn 0.3633 -0.3274 0.8722
vn -0.3177 -0.7396 0.5933
vn 0.7591 0.1907 -0.6225
vn -0.0800 0.9964 0.0290
vn 0.3633 -0.3272 0.8723
vn 0.9403 -0.1171 -0.3195
vn -0.9051 -0.4031 -0.1349
vn -0.9720 0.2088 -0.1075
vn -0.2214 -0.7380 0.6374
vn -0.8295 0.2038 0.5200
vn -0.9907 -0.0388 -0.1305
vn -0.7270 -0.5946 0.3435
vn 0.9976 0.0426 0.0539
vn 0.5605 -0.2442 0.7913
vn -0.7084 0.2574 -0.6572
vn 0.5896 0.8076 -0.0126
vn -0.1257 -0.9583 -0.2565
vn -0.1192 -0.9900 -0.0759
vn 0.7720 0.5974 -0.2170
vn 0.8403 0.5419 0.0157
vn -0.9923 0.0624 -0.1067
vn -0.0269 -0.9870 -0.1582
vn 0.8614 -0.4918 0.1268
vn 0.4301 -0.8929 -0.1330
vn -0.8734 0.2648 -0.4086
vn 0.3635 -0.3273 0.8722
vn 0.1867 0.8996 -0.3947
vn -0.5885 0.7993 -0.1216
vn -0.4991 -0.8017 -0.3291
vn 0.9882 -0.0434 -0.1466
vn -0.5103 0.8464 0.1523
vn 0.5078 0.8424 -0.1801
vn 0.6832 0.2963 -0.6674
vn -0.6185 0.0470 0.7844
vn -0.0933 0.9945 -0.0478
vn 0.9852 0.1683 0.0335
vn -0.0116 0.9999 -0.0099
vn -0.9024 -0.3951 -0.1722
vn 0.9734 0.1269 -0.1909
vn -0.1433 -0.7078 0.6917
vn 0.4672 -0.7076 0.5302
vn -0.6090 -0.7920 0.0429
vn -0.1194 0.9400 0.3195
vn -0.1443 -0.9763 0.1612
vn 0.7858 -0.1381 -0.6029
vn -0.9618 0.2638 0.0733
vn -0.9451 -0.1439 -0.2933
vn -0.4216 -0.9025 -0.0883
vn 0.2004 0.9707 -0.1322
vn 0.6725 -0.6899 0.2680
vn 0.9768 -0.1510 -0.1521
vn 0.4202 0.6913 -0.5878
vn 0.2800 0.8954 0.3463
vn -0.2482 -0.8676 0.4310
vn 0.6191 0.6761 0.3996
vn -0.4040 -0.9144 0.0252
vn -0.0385 -0.2603 0.9648
vn -0.7902 0.3166 -0.5247
vn -0.2196 0.4391 0.8712
vn -0.6900 0.5309 0.4919
vn 0.3632 -0.3274 0.8723
vn -0.5499 -0.2476 0.7977
vn -0.2447 -0.2299 -0.9419
vn 0.9827 -0.1794 0.0460
vn -0.2638 0.8454 -0.4644
vn -0.8839 0.1955 -0.4248
vn -0.8188 -0.3895 0.4218
vn -0.9878 0.1532 -0.0266
vn -0.8960 0.4288 0.1149
vn 0.2028 -0.4875 0.8492
vn 0.8826 0.4672 0.0520
vn -0.7305 -0.2149 -0.6482
vn -0.0083 -0.8673 0.4977
vn -0.6322 0.0327 -0.7741
vn -0.6957 0.6963 -0.1765
vn 0.9413 -0.3159 0.1187
vn 0.2433 -0.9638 0.1087
vn -0.3057 -0.1178 -0.9448
vn 0.9941 0.0984 -0.0465
vn -0.3836 -0.8457 -0.3711
vn 0.0417 0.9043 -0.4250
vn 0.7058 0.2643 -0.6572
vn -0.6394 -0.5668 0.5194
vn -0.9398 0.2584 -0.2234
vn 0.3771 -0.8461 -0.3768
vn -0.6989 -0.3427 0.6278
vn -0.9594 0.2376 -0.1517
vn -0.4294 -0.6547 0.6221
vn -0.9413 0.3246 0.0932
vn -0.3141 -0.8389 -0.4446
vn -0.0463 -0.8574 0.5126
vn -0.2797 -0.7818 0.5573
vn -0.2065 -0.8494 0.4857
vn 0.9997 0.0230 -0.0102
vn 0.1153 -0.9336 0.3393
vn -0.9882 0.0204 -0.1518
vn -0.5725 0.4563 -0.6811
vn -0.4120 -0.6163 0.6711
vn 0.3324 -0.9237 -0.1905
vn -0.4120 -0.6159 0.6715
vn 0.8730 -0.4441 0.2016
vn -0.1403 0.0120 -0.9900
vn 0.8728 -0.4447 0.2011
vn 0.7583 0.6345 0.1497
vn 0.9200 -0.1846 0.3457
vn 0.3410 -0.9043 0.2570
vn -0.0557 -0.6271 0.7769
vn 0.6544 -0.7364 0.1715
vn 0.7400 -0.6469 0.1841
vn 0.5556 -0.7783 0.2923
vn 0.5553 0.4957 0.6677
vn 0.8156 0.3209 0.4814
vn 0.5553 0.4957 0.6678
vn 0.9320 0.3248 -0.1611
vn -0.3151 0.1802 0.9318
vn 0.9568 -0.0962 0.2743
vn 0.7492 -0.6375 -0.1797
vn -0.9049 -0.1212 0.4080
vn 0.7228 0.3171 0.6140
vn 0.8717 0.2190 0.4384
vn -0.4144 0.0457 0.9090
vn -0.2820 0.2487 0.9266
vn -0.4144 0.0454 0.9090
vn 0.6471 0.3638 0.6701
vn -0.5082 -0.2944 0.8094
vn 0.2226 0.5465 0.8073
vn -0.6872 0.3119 0.6561
vn -0.2071 0.3473 0.9146
vn -0.8914 0.4284 -0.1482
vn -0.0479 0.3370 0.9403
vn -0.8709 0.3263 0.3677
vn 0.9908 -0.0706 0.1155
vn 0.4711 0.7064 0.5282
vn 0.1156 -0.9337 0.3389
vn -0.8578 0.5086 0.0742
vn -0.5441 0.6510 0.5293
vn -0.4823 -0.4094 0.7745
vn -0.7441 0.1074 -0.6594
vn 0.9890 -0.0279 0.1450
vn -0.7953 0.5435 -0.2686
vn -0.7548 0.6233 0.2044
vn -0.7164 0.6375 0.2836
vn -0.7968 0.0877 -0.5978
vn 0.9426 -0.2176 0.2534
vn -0.8088 0.4266 0.4048
vn 0.3406 -0.9044 0.2569
vn -0.9470 0.1057 -0.3033
vn 0.0474 -0.1406 0.9889
vn -0.9096 -0.3130 0.2734
vn -0.7671 -0.6277 0.1327
vn -0.9823 -0.0322 0.1843
vn 0.9874 0.0670 -0.1432
vn -0.6985 0.0793 0.7112
vn 0.3408 0.5373 0.7715
vn 0.8839 0.1955 -0.4248
vn -0.4447 -0.8922 -0.0786
vn 0.9100 -0.0278 0.4137
vn 0.5915 0.8053 -0.0408
vn -0.6190 -0.6722 0.4062
vn -0.2170 -0.8640 0.4543
vn 0.9098 0.3740 -0.1798
vn -0.6401 -0.7227 0.2607
vn -0.6943 -0.5375 0.4786
vn -0.4009 -0.2050 0.8929
vn 0.8889 -0.4487 -0.0925
vn 0.6749 -0.2071 -0.7083
vn 0.1494 0.4283 0.8912
vn 0.2460 -0.7532 0.6101
vn -0.9855 -0.0614 0.1582
vn -0.8662 0.4963 -0.0578
vn -0.8836 0.4152 0.2166
vn -0.8268 0.4062 0.3891
vn 0.8423 -0.2581 0.4732
vn -0.0966 0.4251 0.8999
vn 0.8908 0.4305 0.1457
vn 0.9792 -0.1836 0.0861
vn 0.4723 -0.1897 0.8608
vn -0.9987 -0.0051 -0.0501
vn -0.5039 0.8305 0.2375
vn -0.4652 -0.2864 0.8376
vn -0.9570 0.1292 -0.2599
vn 0.0269 -0.9870 -0.1582
vn -0.7025 -0.0644 0.7088
vn -0.8755 -0.0558 0.4800
vn -0.0104 -0.9657 -0.2596
vn -0.2944 0.9429 -0.1556
vn -0.2997 0.5277 0.7948
vn -0.6987 0.5273 0.4835
vn -0.6869 0.5520 -0.4726
vn 0.7480 -0.4490 -0.4888
vn -0.5426 -0.8156 0.2009
vn -0.8789 -0.0935 -0.4677
vn 0.6902 0.5785 -0.4348
vn 0.9970 -0.0112 0.0760
vn -0.2919 -0.9142 0.2810
vn -0.8086 0.5654 -0.1629
vn -0.9138 -0.2469 0.3225
vn -0.9663 -0.1793 -0.1848
vn 0.0140 0.7568 0.6534
vn 0.4846 0.8572 -0.1742
vn 0.6674 -0.6520 0.3600
vn -0.2912 -0.9562 -0.0294
vn -0.7650 -0.4903 -0.4176
vn 0.5513 -0.3919 0.7365
vn -0.3368 0.4103 -0.8475
vn 0.8835 -0.1629 0.4393
vn -0.0608 -0.9362 0.3461
vn 0.9877 -0.0847 -0.1316
vn 0.1325 0.9750 -0.1783
vn 0.0754 0.9907 -0.1133
vn 0.1065 0.3403 0.9343
vn -0.8445 0.1455 -0.5154
vn 0.2630 0.3556 0.8969
vn -0.8272 0.3947 0.3999
vn -0.1796 0.5408 0.8217
vn 0.5751 -0.2751 0.7704
vn -0.7826 0.1709 -0.5986
vn 0.4786 0.0605 0.8759
vn 0.3416 0.2595 0.9033
vn 0.4786 0.0608 0.8759
vn -0.8434 0.1920 0.5018
vn -0.6851 0.2952 0.6660
vn 0.8319 0.3020 -0.4656
vn 0.9869 0.0859 -0.1363
vn -0.9303 -0.1260 0.3444
vn -0.3591 -0.9165 0.1763
vn 0.6286 0.5808 -0.5173
vn -0.5198 0.4791 0.7073
vn -0.7876 0.2957 0.5406
vn -0.5199 0.4791 0.7072
vn -0.5076 -0.7949 0.3324
vn -0.7034 -0.6696 0.2382
vn -0.6163 -0.7564 0.2192
vn 0.9130 -0.2719 0.3040
vn -0.2925 -0.9140 0.2811
vn -0.9802 -0.0313 0.1957
vn -0.8522 0.4320 -0.2951
vn -0.8410 -0.4717 0.2651
vn -0.9601 -0.1861 0.2087
vn -0.8412 -0.4711 0.2656
vn 0.4801 -0.6010 0.6389
vn -0.0474 -0.1406 0.9889
vn 0.4801 -0.6019 0.6382
vn -0.4570 -0.5130 0.7266
vn -0.9596 -0.0165 0.2808
vn -0.0606 -0.9361 0.3464
vn 0.0550 -0.5798 -0.8129
vn 0.2684 -0.8416 0.4686
vn 0.3449 -0.7715 0.5346
vn 0.1112 -0.8546 0.5073
vn 0.9820 -0.0166 0.1881
vn -0.6315 -0.5582 0.5383
vn -0.9819 0.1353 -0.1327
vn -0.9770 -0.2010 -0.0705
vn 0.6868 0.3090 -0.6579
vn -0.7287 -0.1213 0.6740
vn 0.6006 -0.4741 0.6439
vn 0.9851 -0.0305 0.1694
vn -0.6366 0.4397 0.6336
vn 0.9883 0.0616 -0.1396
vn 0.9819 -0.1737 0.0753
vn -0.6259 0.0186 0.7796
vn 0.3248 -0.0011 0.9458
vn 0.1467 -0.8655 0.4789
vn -0.9377 -0.3127 0.1511
vn 0.1348 -0.1812 -0.9742
vn 0.5882 0.6348 -0.5010
vn -0.3330 0.9410 -0.0604
vn 0.9152 -0.0850 0.3939
vn -0.4464 0.6864 -0.5741
vn -0.2359 0.8804 0.4115
vn -0.7130 -0.5232 0.4668
vn 0.9783 -0.1554 0.1368
vn 0.9789 -0.1826 0.0913
vn -0.9616 0.0367 0.2721
vn 0.4962 0.8606 0.1142
vn 0.9892 -0.1145 -0.0919
vn 0.9781 0.0802 -0.1919
vn 0.7487 0.6264 0.2170
vn -0.2872 -0.3381 0.8962
vn 0.7997 0.4322 0.4167
vn 0.0629 0.9730 -0.2220
vn 0.6823 0.1232 -0.7206
vn 0.3158 -0.6977 0.6430
vn -0.5824 -0.4083 0.7030
vn -0.7330 0.6711 -0.1107
vn -0.2873 -0.3381 0.8962
vn -0.6937 0.5855 -0.4196
vn 0.8187 -0.3143 0.4806
vn -0.2875 -0.3380 0.8962
vn -0.3979 0.5640 0.7236
vn -0.1278 -0.3146 -0.9406
vn 0.3536 0.2502 0.9013
vn 0.9106 -0.3639 -0.1960
vn -0.8334 -0.1763 0.5237
vn -0.6846 0.7047 -0.1863
vn 0.0640 -0.9258 0.3724
vn 0.2823 -0.8553 0.4345
vn -0.7270 0.5996 -0.3346
vn -0.5391 -0.6768 0.5012
vn 0.7218 0.6010 -0.3432
vn -0.5835 0.8078 -0.0842
vn -0.8743 0.4779 -0.0847
vn 0.8649 -0.4342 0.2518
vn -0.0314 -0.9461 -0.3224
vn 0.9571 0.1284 -0.2596
vn 0.7470 0.1303 0.6520
vn 0.7599 0.0691 0.6464
vn 0.8591 0.4668 -0.2097
vn -0.7116 -0.2374 -0.6613
vn -0.7384 0.6196 0.2661
vn 0.9612 -0.2757 -0.0060
vn 0.9273 -0.3721 -0.0403
vn -0.2743 -0.8991 0.3412
vn -0.8071 0.1566 -0.5693
vn 0.7345 -0.4618 0.4973
vn -0.2037 0.8021 -0.5613
vn -0.7470 0.1303 0.6520
vn 0.2881 -0.1902 0.9385
vn -0.6866 0.3091 -0.6580
vn 0.9847 -0.0080 0.1742
vn 0.8471 -0.4814 0.2251
vn -0.2541 -0.7161 0.6501
vn 0.7878 0.3400 0.5137
vn 0.5697 0.8212 0.0324
vn -0.7667 -0.5164 0.3814
vn 0.7603 0.2460 -0.6012
vn -0.1559 0.9738 -0.1655
vn -0.0999 -0.9949 0.0114
vn -0.8323 -0.3941 0.3897
vn 0.7651 -0.5278 0.3688
vn 0.2166 -0.2948 0.9307
vn -0.8372 -0.3882 0.3853
vn -0.9565 0.2897 0.0356
vn 0.9884 0.1478 0.0336
vn 0.9871 0.0520 0.1513
vn -0.2873 -0.3379 0.8963
vn 0.2611 -0.9382 -0.2271
vn 0.3879 -0.1436 0.9105
vn -0.5940 0.1348 0.7931
vn -0.0681 -0.3992 -0.9143
vn -0.0717 -0.6732 0.7360
vn -0.2873 -0.3378 0.8963
vn -0.6671 -0.5229 0.5306
vn -0.2873 -0.3380 0.8962
vn -0.1234 -0.4946 0.8603
vn -0.9777 0.1771 0.1126
vn 0.8212 0.4545 0.3451
vn -0.9892 -0.1144 -0.0920
vn 0.6571 -0.6269 0.4186
vn -0.3100 -0.1865 0.9323
vn 0.9790 0.1040 -0.1752
vn 0.1576 0.4396 -0.8842
vn 0.5420 0.6897 0.4801
vn -0.2549 0.7069 0.6598
vn -0.6168 -0.2560 -0.7443
vn 0.6619 0.4309 -0.6134
vn -0.9152 -0.0191 -0.4025
vn -0.7012 0.6908 -0.1766
vn -0.9340 0.2090 -0.2899
vn -0.5853 0.8055 -0.0926
vn 0.9449 0.3261 0.0279
vn -0.9353 0.1132 0.3352
vn 0.6090 -0.7920 0.0429
vn 0.8675 0.1636 -0.4698
vn -0.8908 0.4305 0.1457
vn 0.9427 -0.0691 0.3265
vn 0.9113 0.4008 -0.0943
vn 0.1403 0.0120 -0.9900
vn -0.8905 -0.0887 0.4462
vn -0.0807 -0.8885 0.4518
vn -0.8047 0.3903 0.4473
vn 0.8101 0.5117 -0.2862
vn -0.9967 -0.0692 -0.0414
vn -0.7664 0.0329 0.6415
vn -0.4524 -0.8661 -0.2125
vn -0.1204 0.9567 -0.2649
vn -0.8244 -0.3885 -0.4115
vn 0.8090 0.0657 0.5841
vn -0.8996 0.4323 -0.0622
vn 0.4897 0.8103 -0.3219
vn 0.5039 0.8305 0.2375
vn 0.8487 -0.4459 0.2845
vn 0.9092 -0.3924 0.1395
vn -0.9465 -0.3173 0.0587
vn -0.9766 -0.1144 0.1823
vn 0.7345 -0.1756 -0.6555
vn 0.9368 -0.0839 -0.3398
vn -0.2102 -0.9745 -0.0786
vn 0.0373 -0.9443 -0.3269
vn 0.8316 -0.0760 0.5501
vn -0.9609 -0.2112 0.1791
vn -0.6814 -0.1417 0.7181
vn -0.8180 -0.1731 -0.5485
vn -0.9435 -0.2314 0.2371
vn -0.9505 -0.1186 -0.2873
vn 0.5681 -0.2915 0.7696
vn 0.6214 -0.7829 -0.0322
vn 0.6152 0.7718 -0.1608
vn -0.5108 -0.2827 0.8119
vn -0.5510 0.2272 -0.8030
vn -0.7806 0.4072 0.4742
vn -0.9760 -0.2112 0.0532
vn -0.9968 0.0235 -0.0759
vn 0.0438 0.9377 -0.3447
vn -0.7612 0.6459 -0.0585
vn -0.7607 -0.6407 -0.1040
vn 0.7037 -0.5669 0.4283
vn -0.1897 0.1115 0.9755
vn 0.2482 -0.8788 0.4077
vn -0.6824 0.5901 -0.4313
vn 0.8086 -0.4919 0.3229
vn 0.6138 0.1182 -0.7806
vn 0.5763 -0.2627 0.7739
vn 0.3643 0.8535 0.3726
vn 0.8361 0.4282 0.3429
vn 0.5653 0.8248 -0.0118
vn 0.0445 0.9399 -0.3384
vn -0.9209 -0.1783 0.3467
vn 0.9823 -0.1836 -0.0361
vn -0.7689 -0.2085 -0.6045
vn -0.9981 -0.0206 0.0576
vn -0.6242 0.2505 -0.7400
vn -0.2028 -0.9712 0.1252
vn -0.7859 0.1660 -0.5957
vn 0.7797 -0.0970 0.6186
vn -0.1565 -0.9511 -0.2663
vn 0.0340 0.9993 0.0127
vn -0.7699 -0.5436 -0.3344
vn 0.5423 -0.7354 0.4064
vn 0.8566 -0.2001 0.4757
vn -0.3753 -0.7408 0.5571
vn 0.0286 -0.8632 -0.5041
vn 0.8308 -0.3891 0.3979
vn -0.7981 0.3480 -0.4919
vn -0.8770 0.1492 -0.4568
vn -0.6042 -0.6466 0.4656
vn 0.0759 -0.0877 -0.9933
vn -0.9538 -0.1584 -0.2553
vn 0.2492 -0.5516 -0.7960
vn -0.6315 0.2323 -0.7397
vn -0.1158 -0.9888 0.0945
vn 0.2619 -0.1863 -0.9469
vn 0.6580 -0.6053 0.4480
vn 0.8227 0.4158 0.3876
vn -0.0969 -0.9789 0.1801
vn 0.8277 0.1725 -0.5339
vn 0.5924 0.2060 0.7789
vn -0.7858 -0.1017 0.6100
vn 0.7857 -0.2591 0.5617
vn 0.6956 0.7104 -0.1072
vn -0.7211 0.2886 0.6299
vn -0.2725 -0.1022 0.9567
vn 0.2999 -0.8474 0.4382
vn -0.5862 -0.6170 0.5250
vn 0.3835 -0.8457 -0.3711
vn -0.4517 -0.8513 -0.2671
vn 0.4742 -0.8463 -0.2425
vn -0.6060 0.7920 0.0741
vn 0.5732 0.3106 -0.7583
vn -0.5733 0.3113 -0.7579
vn 0.7348 -0.3235 0.5961
vn -0.0273 -0.7225 0.6908
vn 0.5142 0.7213 -0.4641
vn -0.9628 0.2674 0.0396
vn 0.3339 -0.6368 0.6950
vn -0.8605 0.5090 -0.0202
vn -0.1395 -0.3004 0.9436
vn 0.6589 0.7187 -0.2220
vn -0.9819 -0.1737 0.0753
vn -0.8908 -0.1563 0.4267
vn 0.4877 0.8598 0.1513
vn -0.8097 -0.3308 0.4848
vn -0.0358 -0.7111 0.7022
vn -0.6114 0.1764 0.7714
vn -0.7664 -0.5264 0.3681
vn 0.8737 -0.1052 -0.4749
vn 0.5692 0.2585 -0.7805
vn 0.6810 -0.7009 0.2120
vn -0.1661 -0.9357 0.3113
vn -0.8745 0.2024 -0.4407
vn 0.9513 -0.1542 -0.2668
vn 0.2651 -0.9536 -0.1425
vn 0.5973 0.0464 -0.8007
vn -0.6490 -0.5952 0.4739
vn 0.3458 -0.0922 0.9338
vn 0.6531 0.7241 -0.2216
vn 0.9422 -0.3157 -0.1125
vn -0.7520 0.0162 0.6590
vn -0.4991 -0.2708 0.8231
vn 0.6945 -0.5441 0.4709
vn 0.6987 -0.6159 0.3641
vn 0.1914 0.9698 -0.1512
vn -0.6052 -0.0141 -0.7960
vn -0.9323 0.3464 -0.1036
vn -0.8663 -0.1977 -0.4587
vn -0.9478 0.0844 0.3075
vn 0.7791 0.1564 -0.6071
vn -0.2719 0.9117 0.3079
vn 0.6067 0.7861 -0.1184
vn -0.9805 0.1828 0.0727
vn 0.3910 -0.9088 0.1453
vn -0.6459 0.3155 -0.6951
vn 0.2119 -0.5856 -0.7824
vn -0.2976 -0.9415 -0.1581
vn -0.7449 0.2791 -0.6060
vn -0.8842 0.1608 -0.4385
vn 0.8539 -0.2966 0.4277
vn 0.2399 -0.5790 0.7792
vn 0.8752 -0.3648 0.3178
vn -0.2127 -0.9724 -0.0956
vn -0.9982 0.0563 0.0217
vn 0.7973 0.0398 0.6022
vn 0.9929 0.0197 -0.1177
vn -0.0601 0.9973 -0.0429
vn 0.7027 -0.2122 -0.6791
vn -0.9877 -0.0847 -0.1316
vn -0.0032 0.9952 -0.0982
vn 0.2463 0.8797 0.4067
vn -0.1420 0.9636 -0.2264
vn 0.7665 -0.5476 -0.3357
vn -0.9925 0.0335 -0.1172
vn 0.7943 -0.6031 0.0734
vn 0.9414 0.2591 -0.2159
vn -0.6190 0.7849 0.0282
vn 0.3052 -0.9427 -0.1348
vn -0.2870 0.8179 0.4987
vn 0.3532 -0.8868 -0.2981
vn 0.9185 0.1317 -0.3727
vn -0.2101 -0.2005 0.9569
vn -0.0915 -0.9669 -0.2381
vn -0.9916 0.0441 -0.1215
vn -0.8988 -0.4336 0.0640
vn 0.3414 0.5304 0.7760
vn -0.1991 -0.5937 -0.7797
vn 0.7295 -0.0581 0.6815
vn 0.2037 0.8021 -0.5613
vn 0.4742 -0.8728 -0.1155
vn -0.8166 -0.2042 0.5399
vn -0.0715 -0.1247 -0.9896
vn 0.4400 0.0783 0.8946
vn 0.4618 -0.5574 -0.6900
vn -0.9769 -0.1374 0.1638
vn -0.3324 -0.9237 -0.1905
vn -0.9092 -0.3923 0.1395
vn 0.3961 -0.9086 -0.1324
vn -0.0060 -0.8524 -0.5228
vn 0.0468 -0.6223 0.7814
vn -0.9762 -0.0080 0.2165
vn 0.6790 0.7325 0.0494
vn 0.6431 -0.5989 0.4772
vn -0.6961 0.6717 -0.2536
vn 0.8282 -0.3754 -0.4161
vn -0.4836 0.6874 -0.5419
vn -0.6653 0.6413 -0.3823
vn 0.1140 -0.7104 0.6945
vn -0.8266 -0.4349 -0.3571
vn -0.0323 0.9932 -0.1116
vn 0.7944 0.0932 0.6002
vn 0.6760 0.7051 -0.2143
vn -0.9880 0.1435 -0.0566
vn 0.2275 -0.9271 0.2980
vn -0.2860 0.7219 0.6302
vn -0.6076 0.3440 0.7159
vn -0.8957 0.0338 0.4434
vn -0.5217 -0.8341 -0.1794
vn -0.9487 0.2983 0.1046
vn 0.9093 0.1590 -0.3846
vn -0.8126 -0.5684 -0.1292
vn -0.9813 -0.1755 -0.0794
vn -0.5143 0.8424 -0.1607
vn 0.9259 -0.3137 -0.2105
vn 0.3100 -0.1865 0.9323
vn -0.6092 -0.7924 0.0295
vn -0.9167 0.3904 0.0847
vn 0.2340 0.0262 -0.9719
vn 0.1007 -0.7227 0.6838
vn -0.2622 -0.6439 0.7188
vn 0.1439 -0.9896 0.0034
vn -0.1824 -0.8877 0.4227
vn 0.8139 -0.4572 0.3586
vn 0.3758 -0.7407 0.5569
vn 0.1787 -0.9447 -0.2749
vn 0.9368 -0.2881 0.1982
vn 0.9532 0.1444 0.2657
vn 0.6375 0.1233 -0.7605
vn -0.8632 -0.4573 -0.2139
vn 0.8323 -0.3941 0.3897
vn 0.4699 0.3749 -0.7992
vn 0.1166 -0.2578 0.9591
vn -0.7944 0.0932 0.6002
vn 0.0104 -0.9657 -0.2596
vn 0.9747 0.1864 -0.1232
vn 0.1648 -0.9826 0.0851
vn -0.6215 0.7834 0.0070
vn 0.2966 -0.1009 -0.9496
vn -0.9941 0.0130 -0.1079
vn 0.9340 0.2090 -0.2899
vn -0.5451 0.7374 -0.3988
vn 0.2196 0.4391 0.8712
vn -0.7153 0.0407 0.6977
vn 0.8239 -0.5632 -0.0636
vn -0.7223 -0.6389 -0.2647
vn 0.1278 -0.3146 -0.9406
vn -0.3004 0.5205 0.7993
vn -0.2722 -0.9553 -0.1152
vn -0.0114 -0.5315 -0.8470
vn 0.2966 0.8272 0.4772
vn 0.7981 -0.4043 -0.4467
vn -0.8023 -0.1877 0.5666
vn 0.8202 -0.4476 0.3562
vn 0.1055 -0.9637 -0.2454
vn 0.5514 0.4402 -0.7087
vn 0.1226 -0.9924 0.0078
vn 0.9143 -0.3479 0.2073
vn 0.9577 0.0849 -0.2748
vn 0.5652 -0.4624 0.6832
vn 0.6135 0.7832 -0.1015
vn 0.3178 -0.8762 0.3624
vn 0.6408 0.5835 -0.4989
vn 0.2215 -0.9059 -0.3610
vn 0.6845 0.3009 0.6640
vn 0.7912 -0.4101 -0.4537
vn 0.6466 0.7426 -0.1746
vn -0.0284 -0.8600 -0.5095
vn 0.0083 -0.8673 0.4977
vn 0.6460 0.3155 -0.6951
vn 0.0016 0.9975 -0.0704
vn -0.8111 -0.2242 0.5403
vn 0.9596 -0.0165 0.2808
vn 0.8957 0.0338 0.4435
vn 0.9923 0.0383 -0.1176
vn -0.9413 -0.3159 0.1187
vn 0.9763 0.1964 -0.0911
vn 0.6582 0.5900 -0.4677
vn -0.2011 -0.9787 -0.0426
vn 0.9655 -0.1998 0.1670
vn -0.8785 -0.3084 0.3649
vn -0.8292 0.1254 -0.5447
vn 0.1966 -0.9691 0.1487
vn 0.9280 -0.1372 -0.3464
vn -0.2423 -0.7091 0.6622
vn 0.6135 0.6557 -0.4402
vn -0.7633 0.1309 0.6327
vn 0.9231 -0.0596 0.3798
vn 0.8531 0.2405 0.4630
vn -0.7005 -0.5033 0.5059
vn -0.7012 0.7054 0.1035
vn 0.9484 0.3146 -0.0387
vn 0.3434 0.9229 -0.1743
vn 0.8464 0.5120 -0.1463
vn -0.2346 0.0410 -0.9712
vn 0.6438 -0.7651 -0.0130
vn 0.8268 -0.5314 -0.1841
vn -0.1687 0.8393 -0.5169
vn 0.8638 0.4922 -0.1079
vn -0.4798 0.8680 -0.1284
vn 0.2893 -0.7311 0.6179
vn -0.6375 0.1233 -0.7605
vn 0.6936 -0.1838 -0.6965
vn 0.4386 0.8422 0.3134
vn -0.4210 -0.8122 -0.4039
vn 0.9141 -0.0200 -0.4050
vn 0.5057 0.1659 -0.8466
vn 1.0000 -0.0046 -0.0062
vn -0.9827 -0.1793 0.0464
vn 0.8954 0.3493 0.2760
vn 0.9521 0.2510 -0.1744
vn -0.9352 -0.3295 -0.1294
vn 0.9755 -0.2136 0.0533
vn -0.7818 -0.2754 0.5595
vn -0.9890 0.0823 -0.1231
vn -0.6459 0.0870 -0.7585
vn -0.3771 -0.8461 -0.3768
vn 0.0715 -0.1247 -0.9896
vn -0.9886 -0.0516 0.1415
vn -0.9685 -0.2477 0.0233
vn 0.6696 -0.1048 0.7353
vn 0.3753 -0.4318 -0.8202
vn 0.7782 0.0700 0.6241
vn 0.3339 -0.8858 0.3223
vn -0.9950 0.0793 -0.0610
vn 0.4535 -0.6992 0.5527
vn 0.7842 0.1607 -0.5994
vn 0.0809 -0.8885 0.4517
vn 0.0861 0.9932 -0.0787
vn -0.6546 0.5804 -0.4844
vn -0.4650 0.4237 0.7773
vn 0.3769 -0.9232 -0.0753
vn 0.9882 0.0204 -0.1518
vn 0.3799 -0.8740 -0.3030
vn 0.0209 -0.4433 0.8961
vn -0.8482 -0.4925 0.1950
vn 0.5747 -0.0181 0.8181
vn 0.6745 0.7381 -0.0183
vn 0.2081 0.0814 -0.9747
vn -0.1097 -0.0394 -0.9932
vn -0.8426 0.2735 -0.4639
vn -0.7364 0.0369 0.6755
vn -0.7242 -0.6248 0.2918
vn -0.8488 -0.4457 0.2843
vn -0.2999 -0.8474 0.4382
vn 0.2863 0.6488 0.7051
vn 0.9451 -0.1439 -0.2933
vn -0.4720 -0.5961 -0.6495
vn -0.4229 -0.8189 -0.3879
vn 0.0681 -0.3992 -0.9143
vn 0.1257 -0.9583 -0.2565
vn -0.8079 0.4502 -0.3804
vn 0.0315 0.9440 -0.3283
vn 0.9553 -0.2601 0.1406
vn 0.9791 -0.1684 0.1142
vn 0.8471 -0.3975 0.3528
vn -0.9926 -0.0008 0.1214
vn -0.4623 0.8852 -0.0520
vn -0.2378 -0.7707 0.5911
vn -0.0254 -0.5396 -0.8415
vn 0.9896 -0.0686 0.1262
vn -0.6174 -0.3636 0.6976
vn 0.3236 -0.8304 -0.4537
vn -0.8015 -0.4448 -0.3997
vn -0.9871 0.0520 0.1513
vn 0.2549 0.7069 0.6598
vn 0.3276 -0.7045 0.6295
vn -0.6727 0.7292 -0.1254
vn -0.5693 -0.4619 0.6801
vn -0.5344 -0.4988 0.6824
vn -0.1048 0.9701 -0.2191
vn -0.2084 0.0846 -0.9744
vn 0.4443 -0.8959 -0.0035
vn 0.9560 -0.2821 0.0808
vn 0.8587 -0.3647 0.3599
vn 0.8953 -0.4416 0.0576
vn 0.8431 0.3921 -0.3679
vn -0.9878 -0.0556 0.1456
vn -0.9364 0.1976 -0.2900
vn -0.2433 -0.9620 -0.1238
vn 0.5451 0.7374 -0.3988
vn -0.2223 -0.5734 -0.7885
vn -0.5594 -0.6012 0.5706
vn -0.9890 -0.0280 0.1451
vn -0.5867 0.0694 -0.8068
vn 0.8010 0.1812 -0.5707
vn -0.5974 -0.5345 0.5979
vn 0.5436 0.8240 -0.1600
vn 0.9937 -0.0257 -0.1089
vn 0.9585 0.2831 -0.0341
vn 0.8750 -0.1489 0.4606
vn -0.4535 -0.6992 0.5527
vn 0.7598 0.4844 -0.4335
vn 0.6099 -0.7848 0.1100
vn 0.8952 -0.4145 0.1636
vn -0.3989 -0.7265 0.5595
vn 0.6583 0.4679 0.5897
vn 0.4322 0.5770 0.6930
vn 0.7488 0.3207 0.5801
vn 0.7437 0.1020 -0.6607
vn 0.9166 0.2674 0.2974
vn -0.6837 -0.5357 0.4956
vn 0.8469 -0.1616 0.5066
vn 0.9844 0.1223 -0.1266
vn -0.6594 -0.3161 0.6821
vn 0.9666 0.1127 0.2301
vn -0.9781 0.0802 -0.1919
vn 0.9248 0.3805 0.0022
vn 0.3534 0.8972 -0.2649
vn -0.9552 -0.1288 -0.2665
vn 0.5069 -0.2665 0.8198
vn 0.7566 0.2780 -0.5919
vn 0.6122 -0.0155 -0.7905
vn -0.6581 0.7499 -0.0673
vn -0.2058 -0.9152 -0.3465
vn 0.2502 0.1211 0.9606
vn 0.7233 0.3396 0.6012
vn -0.9100 0.2035 0.3614
vn 0.6676 0.0751 0.7408
vn -0.7154 -0.6608 0.2272
vn 0.8633 -0.1795 0.4718
vn -0.0845 -0.5829 -0.8081
vn 0.6008 -0.6520 0.4626
vn -0.7707 -0.4790 0.4203
vn -0.9576 0.0952 -0.2720
vn 0.7242 -0.6248 0.2918
vn 0.9802 -0.0313 0.1957
vn 0.3556 -0.8233 -0.4424
vn -0.7865 -0.4616 0.4102
vn -0.0049 -0.0718 0.9974
vn 0.2166 -0.7042 0.6762
vn -0.3814 0.0603 0.9224
vn -0.4156 -0.5055 0.7561
vn -0.7298 0.6811 -0.0594
vn 0.9786 0.0598 0.1968
vn -0.4527 0.8228 0.3437
vn -0.3837 -0.0874 0.9193
vn -0.3556 -0.1151 -0.9275
vn 0.9969 -0.0132 0.0780
vn 0.8857 0.2026 -0.4177
vn 0.9960 -0.0188 0.0875
vn -0.1632 0.4392 -0.8834
vn -0.6785 -0.5978 0.4270
vn 0.5336 -0.2706 0.8013
vn -0.7537 -0.0357 -0.6562
vn 0.6422 0.7312 -0.2301
vn -0.3681 0.8434 -0.3914
vn -0.9753 -0.1784 -0.1302
vn 0.1514 -0.9735 0.1716
vn -0.7011 0.4480 -0.5548
vn 0.6399 0.1617 0.7512
vn 0.4525 -0.5759 -0.6809
vn -0.7371 -0.2436 -0.6303
vn -0.4970 -0.4856 0.7192
vn 0.4583 0.6929 -0.5567
vn 0.9925 0.0335 -0.1172
vn 0.9378 -0.2886 -0.1929
vn 0.2719 0.9117 0.3079
vn -0.5281 0.0155 0.8490
vn -0.0268 -0.9926 -0.1181
vn 0.2264 -0.9725 -0.0540
vn 0.7979 0.1650 0.5797
vn -0.9945 -0.0748 -0.0732
vn -0.0788 -0.9968 0.0143
vn 0.7645 0.5551 -0.3278
vn 0.5734 -0.7147 -0.4006
vn -0.3528 0.4351 -0.8284
vn 0.4971 -0.6372 0.5890
vn 0.9778 -0.2053 -0.0427
vn -0.9489 -0.1612 -0.2711
vn 0.4627 0.7494 -0.4737
vn 0.8711 0.4792 -0.1074
vn 0.9698 0.1004 -0.2222
vn -0.8192 0.2463 0.5178
vn 0.1541 -0.5003 -0.8520
vn -0.9969 -0.0482 0.0615
vn -0.6504 0.2717 0.7093
vn 0.4100 -0.4740 0.7792
vn 0.9250 -0.1266 0.3582
vn -0.5142 0.7213 -0.4641
vn 0.5316 -0.7430 -0.4066
vn -0.8871 0.4576 -0.0606
vn -0.9185 0.1317 -0.3727
vn 0.9606 -0.0983 0.2598
vn 0.5832 0.0397 0.8114
vn 0.9098 0.2828 -0.3037
vn -0.2508 -0.9456 -0.2074
vn 0.6540 0.2040 0.7285
vn -0.6971 0.7161 0.0353
vn -0.5663 -0.8104 0.1499
vn -0.7223 -0.1322 0.6788
vn -0.7953 -0.2821 0.5365
vn -0.6869 0.2458 0.6839
vn 0.8344 0.4399 0.3319
vn -0.9475 -0.1449 -0.2851
vn 0.9803 0.0043 -0.1973
vn -0.6268 -0.3734 0.6838
vn 0.9750 -0.1716 -0.1410
vn 0.1293 -0.9909 -0.0370
vn 0.8446 0.1991 -0.4971
vn -0.6800 -0.4825 0.5521
vn -0.0036 0.9873 0.1587
vn -0.4827 -0.5780 -0.6579
vn -0.8035 -0.4334 0.4082
vn 0.5755 -0.2300 -0.7848
vn 0.7449 -0.5170 0.4218
vn -0.3751 0.8373 0.3977
vn -0.1497 -0.9707 0.1882
vn -0.3365 0.7384 0.5844
vn -0.2659 0.6367 0.7238
vn 0.6775 -0.5953 0.4320
vn 0.7360 -0.1133 0.6675
vn -0.9121 -0.0960 0.3986
vn 0.0190 -0.0952 0.9953
vn 0.5594 -0.6012 0.5706
vn -0.9883 0.0616 -0.1396
vn 0.6985 0.0793 0.7112
vn 0.5612 0.2762 -0.7803
vn -0.9869 0.0859 -0.1363
vn 0.2479 -0.9624 -0.1112
vn -0.9320 0.3248 -0.1611
vn 0.7981 0.3480 -0.4919
vn -0.0768 -0.8704 0.4862
vn -0.9693 -0.0507 0.2405
vn 0.9470 0.1057 -0.3033
vn 0.6794 0.7316 0.0566
vn -0.7506 -0.1473 0.6441
vn 0.8795 0.4500 0.1548
vn 0.2792 0.9597 0.0332
vn 0.8659 -0.4195 -0.2725
vn 0.7666 -0.5371 0.3519
vn 0.6123 0.0649 -0.7880
vn 0.8663 -0.1977 -0.4587
vn -0.9749 -0.1008 0.1984
vn 0.7203 0.2765 0.6362
vn -0.9199 0.1625 -0.3568
vn 0.4591 -0.7291 -0.5076
vn -0.8093 0.2112 -0.5481
vn 0.9832 0.0521 -0.1750
vn 0.5214 -0.5064 0.6868
vn 0.6445 -0.3911 0.6570
vn -0.0324 0.9359 -0.3508
vn 0.9331 -0.0775 -0.3511
vn -0.2539 -0.8883 0.3828
vn -0.9357 -0.1396 0.3241
vn -0.3319 -0.9017 -0.2772
vn 0.7265 0.6785 -0.1089
vn 0.6689 -0.4065 0.6223
vn 0.2466 -0.9645 -0.0940
vn -0.7870 0.5635 -0.2513
vn 0.0592 -0.4425 0.8948
vn -0.4093 0.8805 -0.2390
vn -0.8025 -0.5509 0.2293
vn 0.8278 0.2174 -0.5172
vn 0.9413 0.3246 0.0932
vn -0.9314 -0.3011 0.2045
vn 0.9781 0.0861 -0.1897
vn 0.7740 -0.1083 0.6239
vn 0.9359 -0.0922 0.3400
vn -0.5874 -0.8093 0.0088
vn -0.9082 -0.4185 -0.0096
vn 0.7983 -0.6020 0.0203
vn -0.1895 -0.5078 -0.8404
vn -0.7184 -0.5092 0.4740
vn 0.7223 -0.6361 -0.2712
vn 0.4977 0.4447 0.7447
vn -0.9741 -0.1341 0.1823
vn 0.9745 0.2198 0.0463
vn 0.0085 -0.9330 0.3597
vn 0.7306 -0.5159 0.4473
vn 0.9711 -0.1357 -0.1962
vn -0.4809 -0.7577 0.4411
vn 0.8482 -0.4925 0.1950
vn -0.0009 -0.9675 -0.2529
vn -0.3067 0.9501 0.0574
vn 0.9142 -0.1257 -0.3852
vn 0.8243 -0.2554 0.5052
vn 0.3088 -0.8574 0.4118
vn -0.5408 0.3569 -0.7617
vn 0.8401 0.5301 -0.1152
vn -0.8918 -0.3844 0.2385
vn -0.9330 -0.3564 -0.0490
vn -0.7872 -0.4061 0.4642
vn -0.8776 -0.1109 0.4664
vt 0.793893 0.811035
vt 0.733986 0.647144
vt 0.654509 0.794346
vt 0.904509 0.802353
vt 0.637534 0.635601
vt 0.530617 0.607635
vt 0.500000 0.753937
vt 0.876608 0.580494
vt 0.859674 0.618176
vt 0.975529 0.769161
vt 0.000000 0.714703
vt 0.810530 0.641144
vt 0.494886 0.330135
vt 0.549539 0.344433
vt 0.530617 0.328053
vt 0.604192 0.365723
vt 0.423700 0.300087
vt 0.327249 0.288544
vt 0.445583 0.324238
vt 0.637534 0.369709
vt 0.653495 0.391926
vt 0.692622 0.420471
vt 0.810530 0.476807
vt 0.717743 0.448570
vt 0.733986 0.420963
vt 0.201560 0.403915
vt 0.381335 0.383205
vt 0.184626 0.355206
vt 0.372679 0.358311
vt 0.250704 0.458881
vt 0.406456 0.411304
vt 0.327249 0.514725
vt 0.381335 0.339043
vt 0.250704 0.294548
vt 0.406456 0.327301
vt 0.201560 0.317513
vt 0.859674 0.531780
vt 0.555940 0.398312
vt 0.726400 0.473465
vt 0.692622 0.504471
vt 0.717743 0.492729
vt 0.653495 0.507542
vt 0.604192 0.501640
vt 0.445583 0.439854
vt 0.494886 0.466053
vt 0.549539 0.487347
vt 0.095491 0.301487
vt 0.206107 0.292805
vt 0.024472 0.334679
vt 0.345492 0.309490
vt 0.500000 0.349903
vt 0.654509 0.410099
vt 0.206107 0.619667
vt 0.345492 0.693741
vt 0.095491 0.538963
vt 0.423700 0.565987
vt 0.024472 0.459526
vt 0.000000 0.389137
vt 0.904509 0.564873
vt 0.975529 0.644310
vt 0.793893 0.484169
vt 0.000000 1.000000
vt 0.273600 0.473465
vt 0.123392 0.580494
vt 0.282257 0.492729
vt 0.024471 0.644310
vt 0.140326 0.618176
vt 0.307378 0.504471
vt 0.189470 0.641144
vt 0.140326 0.531780
vt 0.266014 0.420963
vt 0.206107 0.484169
vt 0.189470 0.476807
vt 0.345491 0.410099
vt 0.095491 0.564873
vt 0.576300 0.565987
vt 0.505114 0.466053
vt 0.469383 0.607635
vt 0.450461 0.487347
vt 0.672751 0.514725
vt 0.554417 0.439854
vt 0.593544 0.411304
vt 0.362466 0.635601
vt 0.395808 0.501640
vt 0.346505 0.507542
vt 0.266014 0.647144
vt 0.362466 0.369709
vt 0.798440 0.403915
vt 0.749296 0.458881
vt 0.975528 0.459526
vt 0.904509 0.538963
vt 0.815374 0.355206
vt 0.975528 0.334679
vt 0.654508 0.693741
vt 0.793893 0.619667
vt 0.576300 0.300087
vt 0.654508 0.309490
vt 0.469383 0.328053
vt 0.672751 0.288544
vt 0.793893 0.292805
vt 0.798440 0.317513
vt 0.749296 0.294548
vt 0.904509 0.301487
vt 0.444060 0.398312
vt 0.618665 0.383205
vt 0.282257 0.448570
vt 0.395808 0.365723
vt 0.346505 0.391926
vt 0.450461 0.344433
vt 0.307378 0.420471
vt 0.505114 0.330135
vt 0.627321 0.358311
vt 0.618665 0.339043
vt 0.593544 0.327301
vt 0.554417 0.324238
vt 0.095491 0.802353
vt 0.024471 0.769161
vt 0.345491 0.794346
vt 0.206107 0.811035
vt 0.531129 0.863455
vt 0.528598 0.862678
vt 0.529701 0.861377
vt 0.530028 0.864496
vt 0.532449 0.864504
vt 0.554833 0.852302
vt 0.535964 0.857423
vt 0.554115 0.862847
vt 0.527653 0.863068
vt 0.533337 0.860528
vt 0.534939 0.862031
vt 0.531751 0.858482
vt 0.533744 0.855085
vt 0.535657 0.858520
vt 0.537437 0.859975
vt 0.530356 0.847231
vt 0.465756 0.730456
vt 0.464280 0.731015
vt 0.466272 0.734068
vt 0.468310 0.733388
vt 0.464779 0.728223
vt 0.462719 0.728340
vt 0.462606 0.727787
vt 0.464037 0.730013
vt 0.465977 0.733427
vt 0.464885 0.735427
vt 0.463767 0.732595
vt 0.465331 0.736822
vt 0.463567 0.731622
vt 0.533015 0.861030
vt 0.528781 0.860447
vt 0.530131 0.864549
vt 0.530881 0.856491
vt 0.531355 0.865489
vt 0.534491 0.861890
vt 0.526887 0.856207
vt 0.527647 0.863272
vt 0.528726 0.864638
vt 0.526403 0.862717
vt 0.525618 0.860881
vt 0.526164 0.858016
vt 0.536721 0.859365
vt 0.468862 0.749484
vt 0.466293 0.747780
vt 0.466377 0.748286
vt 0.467102 0.749259
vt 0.467253 0.750763
vt 0.470042 0.751312
vt 0.469399 0.753101
vt 0.469928 0.750509
vt 0.463993 0.748347
vt 0.465755 0.751317
vt 0.467367 0.753944
vt 0.471307 0.756222
vt 0.464995 0.721450
vt 0.464829 0.720767
vt 0.463109 0.721688
vt 0.462921 0.720778
vt 0.464423 0.724210
vt 0.465870 0.723530
vt 0.464627 0.728363
vt 0.464023 0.722561
vt 0.465068 0.754195
vt 0.464674 0.751874
vt 0.466630 0.753166
vt 0.463722 0.724297
vt 0.465564 0.722267
vt 0.463941 0.725445
vt 0.463960 0.747882
vt 0.467324 0.729442
vt 0.468962 0.731820
vt 0.464679 0.727808
vt 0.468861 0.731404
vt 0.465570 0.729689
vt 0.468613 0.734441
vt 0.465745 0.749335
vt 0.459061 0.781790
vt 0.459779 0.802539
vt 0.459863 0.804904
vt 0.459175 0.785141
vt 0.459751 0.801754
vt 0.459456 0.793305
vt 0.459271 0.787929
vt 0.459472 0.793767
vt 0.459704 0.800426
vt 0.459315 0.789211
vt 0.458776 0.773334
vt 0.458807 0.774253
vt 0.459830 0.803985
vt 0.489859 0.811437
vt 0.490517 0.812575
vt 0.493013 0.812944
vt 0.492379 0.807917
vt 0.492492 0.807826
vt 0.490244 0.811723
vt 0.495164 0.807698
vt 0.493132 0.810665
vt 0.494834 0.807444
vt 0.490710 0.812847
vt 0.492924 0.813826
vt 0.497867 0.810534
vt 0.497474 0.813438
vt 0.460224 0.765039
vt 0.460206 0.763084
vt 0.462560 0.806586
vt 0.461784 0.810371
vt 0.461888 0.813254
vt 0.462269 0.795070
vt 0.460502 0.773340
vt 0.461874 0.784919
vt 0.461843 0.811999
vt 0.460939 0.786261
vt 0.460749 0.780687
vt 0.461206 0.794016
vt 0.461693 0.807861
vt 0.529650 0.858487
vt 0.526305 0.855364
vt 0.526229 0.858659
vt 0.525366 0.858400
vt 0.526985 0.861113
vt 0.527069 0.853356
vt 0.527847 0.860249
vt 0.525730 0.856066
vt 0.499012 0.806119
vt 0.499163 0.808047
vt 0.496863 0.805659
vt 0.504007 0.807601
vt 0.498517 0.806656
vt 0.503584 0.806797
vt 0.496949 0.812909
vt 0.499654 0.812986
vt 0.502654 0.810875
vt 0.503507 0.809186
vt 0.592808 0.531743
vt 0.588217 0.538940
vt 0.588077 0.539594
vt 0.592974 0.532605
vt 0.590410 0.541266
vt 0.605476 0.579748
vt 0.598681 0.549994
vt 0.597732 0.577716
vt 0.594369 0.536410
vt 0.588024 0.579111
vt 0.613173 0.625620
vt 0.612434 0.624340
vt 0.615779 0.621909
vt 0.615986 0.622776
vt 0.613896 0.614147
vt 0.608878 0.593579
vt 0.610395 0.618277
vt 0.610344 0.599562
vt 0.598719 0.597518
vt 0.603627 0.617616
vt 0.594111 0.535248
vt 0.585780 0.562762
vt 0.596633 0.544739
vt 0.581263 0.552818
vt 0.580933 0.565246
vt 0.599718 0.607532
vt 0.614994 0.618664
vt 0.603411 0.571398
vt 0.597228 0.579381
vt 0.580859 0.579665
vt 0.580881 0.588312
vt 0.586239 0.595329
vt 0.580956 0.598184
vt 0.581140 0.610011
vt 0.587471 0.612386
vt 0.580948 0.566627
vt 0.581636 0.543142
vt 0.601569 0.621008
vt 0.581399 0.548416
vt 0.581728 0.542511
vt 0.581694 0.543940
vt 0.584418 0.618966
vt 0.581248 0.618567
vt 0.581152 0.616172
vt 0.580876 0.599332
vt 0.585356 0.616338
vt 0.553521 0.602831
vt 0.553331 0.610777
vt 0.554511 0.593339
vt 0.555736 0.583825
vt 0.553636 0.612485
vt 0.553687 0.602899
vt 0.553489 0.615268
vt 0.459452 0.491871
vt 0.461213 0.485382
vt 0.459485 0.489932
vt 0.461044 0.486468
vt 0.459778 0.492442
vt 0.459359 0.494423
vt 0.461493 0.488154
vt 0.464758 0.479439
vt 0.558504 0.553826
vt 0.556735 0.572716
vt 0.557625 0.559726
vt 0.580730 0.586609
vt 0.597048 0.573565
vt 0.589612 0.566365
vt 0.599269 0.554858
vt 0.558814 0.552734
vt 0.580750 0.575909
vt 0.555956 0.581021
vt 0.557629 0.569465
vt 0.554660 0.591882
vt 0.558917 0.553838
vt 0.558344 0.559956
vt 0.466992 0.735881
vt 0.471686 0.736523
vt 0.471154 0.735844
vt 0.467543 0.732415
vt 0.469038 0.734202
vt 0.465755 0.732520
vt 0.464910 0.730942
vt 0.468204 0.735019
vt 0.462924 0.731477
vt 0.463785 0.734862
vt 0.464875 0.736583
vt 0.472383 0.739772
vt 0.467083 0.750025
vt 0.472789 0.754060
vt 0.465694 0.724813
vt 0.464362 0.726914
vt 0.467043 0.757209
vt 0.465055 0.731428
vt 0.469008 0.724611
vt 0.468395 0.726339
vt 0.467362 0.722205
vt 0.466053 0.734327
vt 0.468842 0.723927
vt 0.468423 0.726290
vt 0.462756 0.730786
vt 0.464215 0.732819
vt 0.466077 0.735332
vt 0.468792 0.735891
vt 0.600823 0.620456
vt 0.472127 0.728869
vt 0.609379 0.623288
vt 0.609476 0.623840
vt 0.471595 0.729530
vt 0.471495 0.728278
vt 0.469804 0.729461
vt 0.467500 0.728924
vt 0.472618 0.739591
vt 0.466378 0.738958
vt 0.464850 0.738342
vt 0.471066 0.739817
vt 0.469530 0.739997
vt 0.492385 0.780119
vt 0.495290 0.787243
vt 0.496036 0.784173
vt 0.491154 0.779002
vt 0.491169 0.779490
vt 0.484620 0.782489
vt 0.478875 0.782885
vt 0.483299 0.800267
vt 0.473516 0.783857
vt 0.474509 0.805198
vt 0.491185 0.779437
vt 0.490127 0.754648
vt 0.488711 0.757775
vt 0.487882 0.782818
vt 0.490626 0.800192
vt 0.492957 0.791536
vt 0.487404 0.808726
vt 0.486815 0.799901
vt 0.510317 0.819697
vt 0.506778 0.810402
vt 0.499845 0.801958
vt 0.483049 0.769613
vt 0.478757 0.763906
vt 0.477157 0.773097
vt 0.506264 0.803765
vt 0.485902 0.782701
vt 0.475770 0.815443
vt 0.487478 0.764879
vt 0.468327 0.763951
vt 0.468299 0.777805
vt 0.485796 0.766729
vt 0.479135 0.759770
vt 0.477878 0.735780
vt 0.477869 0.740706
vt 0.464715 0.728123
vt 0.467168 0.742654
vt 0.478074 0.743827
vt 0.478420 0.746287
vt 0.483856 0.741013
vt 0.481465 0.745903
vt 0.466678 0.742061
vt 0.480832 0.753289
vt 0.482355 0.739235
vt 0.477035 0.736540
vt 0.464418 0.730839
vt 0.479296 0.732786
vt 0.491357 0.782225
vt 0.484142 0.752815
vt 0.489788 0.774510
vt 0.492829 0.789133
vt 0.485110 0.768799
vt 0.494941 0.783847
vt 0.482346 0.751802
vt 0.480720 0.763783
vt 0.474831 0.767088
vt 0.470071 0.782960
vt 0.468285 0.775035
vt 0.473047 0.792616
vt 0.477104 0.752145
vt 0.477999 0.732596
vt 0.499948 0.786343
vt 0.517379 0.794530
vt 0.512134 0.797455
vt 0.519892 0.848057
vt 0.532451 0.843359
vt 0.517744 0.815619
vt 0.537586 0.821761
vt 0.515349 0.835842
vt 0.532581 0.835305
vt 0.502797 0.825711
vt 0.494477 0.829329
vt 0.524531 0.827249
vt 0.502495 0.837962
vt 0.485221 0.804628
vt 0.480786 0.783342
vt 0.475997 0.815446
vt 0.525700 0.806306
vt 0.508952 0.802099
vt 0.509892 0.844218
vt 0.519580 0.802811
vt 0.538081 0.809172
vt 0.541405 0.799494
vt 0.518720 0.795088
vt 0.515910 0.791821
vt 0.499703 0.786625
vt 0.533903 0.796593
vt 0.502945 0.831977
vt 0.499967 0.834792
vt 0.501863 0.837698
vt 0.463758 0.765903
vt 0.461146 0.748328
vt 0.464004 0.756081
vt 0.459637 0.752229
vt 0.459467 0.741348
vt 0.506850 0.797565
vt 0.504079 0.839782
vt 0.492286 0.773966
vt 0.486594 0.753472
vt 0.488556 0.749590
vt 0.489924 0.749166
vt 0.495942 0.780935
vt 0.496808 0.781473
vt 0.468158 0.760414
vt 0.466905 0.746627
vt 0.498506 0.789177
vt 0.488541 0.754072
vt 0.488271 0.754618
vt 0.489151 0.749958
vt 0.496350 0.781759
vt 0.492187 0.775399
vt 0.554776 0.861800
vt 0.556046 0.865722
vt 0.555695 0.855838
vt 0.555129 0.847689
vt 0.555051 0.828840
vt 0.465133 0.783452
vt 0.466504 0.813755
vt 0.478230 0.825060
vt 0.475600 0.826146
vt 0.477985 0.824249
vt 0.473849 0.825912
vt 0.470472 0.823171
vt 0.463533 0.816453
vt 0.463302 0.814164
vt 0.477415 0.822225
vt 0.467802 0.795013
vt 0.468360 0.808736
vt 0.494655 0.804683
vt 0.489056 0.816451
vt 0.497993 0.794438
vt 0.496214 0.799692
s 0
usemtl Material.001
f 60/1/1 54/2/1 58/3/1
f 154/2/2 379/1/2 420/4/2
f 54/2/3 57/5/3 58/3/3
f 152/6/4 436/7/4 23/3/4
f 344/3/5 353/5/5 362/6/5
f 43/8/6 54/9/6 61/10/6
f 527/11/7 520/8/7 371/10/7
f 485/10/8 313/9/8 209/12/8
f 258/4/9 186/12/9 487/2/9
f 54/12/10 60/4/10 61/10/10
f 408/13/11 544/14/11 440/15/11
f 319/15/12 511/14/12 349/16/12
f 257/17/13 214/13/13 204/15/13
f 369/18/14 96/19/14 158/13/14
f 62/13/15 500/17/15 460/18/15
f 538/16/16 24/20/16 441/15/16
f 493/21/17 388/22/17 389/23/17
f 409/23/18 538/22/18 441/24/18
f 461/25/19 193/21/19 275/23/19
f 297/20/20 157/16/20 83/25/20
f 472/16/21 303/21/21 365/25/21
f 503/26/22 311/27/22 488/28/22
f 314/27/23 35/29/23 288/28/23
f 59/27/24 324/26/24 315/30/24
f 304/31/25 380/30/25 352/32/25
f 201/30/26 467/31/26 327/27/26
f 311/28/27 503/29/27 153/33/27
f 11/34/28 389/35/28 543/19/28
f 216/19/29 496/18/29 543/34/29
f 395/33/30 327/35/30 402/34/30
f 54/33/31 50/36/31 53/28/31
f 539/36/32 398/33/32 401/34/32
f 54/24/1 43/37/1 45/23/1
f 151/19/33 67/35/33 462/38/33
f 32/13/34 85/19/34 361/38/34
f 52/35/35 453/33/35 526/38/35
f 257/29/36 27/27/36 13/38/36
f 472/33/37 397/29/37 246/38/37
f 42/14/38 326/13/38 182/38/38
f 245/24/39 409/22/39 441/38/39
f 475/39/40 546/24/40 447/38/40
f 183/22/41 428/21/41 88/38/41
f 487/16/42 365/14/42 258/38/42
f 79/21/43 346/16/43 221/38/43
f 218/40/44 260/41/44 91/38/44
f 269/42/45 159/40/45 442/38/45
f 40/41/46 30/39/46 427/38/46
f 522/37/47 545/24/47 285/8/47
f 447/24/48 546/39/48 336/8/48
f 422/43/49 412/42/49 424/38/49
f 375/31/50 293/44/50 266/38/50
f 47/27/51 99/31/51 384/38/51
f 267/44/52 343/45/52 488/38/52
f 525/46/53 371/43/53 450/38/53
f 398/45/54 539/46/54 306/38/54
f 150/47/55 184/34/55 406/48/55
f 92/34/56 453/18/56 52/48/56
f 463/34/57 205/47/57 385/49/57
f 53/28/31 50/36/31 51/49/31
f 306/49/58 447/36/58 501/34/58
f 50/48/1 54/18/1 48/50/1
f 96/51/59 18/15/59 533/52/59
f 54/15/1 45/20/1 46/52/1
f 54/15/1 46/51/1 48/50/1
f 149/18/60 546/17/60 494/50/60
f 374/50/61 351/17/61 500/15/61
f 517/32/62 431/53/62 451/54/62
f 34/53/63 253/32/63 331/55/63
f 469/54/64 457/56/64 490/32/64
f 268/7/65 445/6/65 97/54/65
f 57/6/66 54/56/66 56/54/66
f 196/32/67 361/30/67 188/55/67
f 83/57/68 26/26/68 270/28/68
f 482/58/69 2/28/69 185/49/69
f 346/57/70 475/28/70 474/58/70
f 123/55/71 17/30/71 144/57/71
f 494/30/72 44/26/72 149/57/72
f 395/52/73 538/20/73 201/25/73
f 257/43/74 274/5/74 27/2/74
f 480/43/75 413/46/75 338/6/75
f 352/2/76 295/42/76 304/43/76
f 208/12/77 449/40/77 75/2/77
f 2/40/78 5/42/78 430/2/78
f 83/6/79 8/5/79 199/43/79
f 210/45/80 342/44/80 39/32/80
f 132/32/81 203/44/81 2/31/81
f 289/56/82 301/45/82 145/32/82
f 199/6/83 26/46/83 83/45/83
f 481/45/84 537/56/84 271/6/84
f 387/59/85 14/23/85 267/60/85
f 539/23/86 401/37/86 474/60/86
f 508/23/87 531/59/87 98/61/87
f 97/25/88 442/61/88 159/52/88
f 358/61/89 345/25/89 381/23/89
f 416/60/90 471/37/90 334/8/90
f 321/9/91 90/41/91 97/12/91
f 455/41/92 221/40/92 346/12/92
f 18/41/93 95/9/93 529/8/93
f 285/8/94 457/11/94 502/60/94
f 349/8/95 85/39/95 536/41/95
f 74/62/96 115/62/96 116/62/96
f 115/62/97 74/62/97 114/62/97
f 116/62/98 76/62/98 74/62/98
f 322/62/99 408/62/99 440/62/99
f 76/62/100 116/62/100 77/62/100
f 435/62/101 31/62/101 502/62/101
f 337/62/102 253/62/102 1/62/102
f 74/62/103 73/62/103 113/62/103
f 514/62/104 416/62/104 334/62/104
f 114/62/105 74/62/105 113/62/105
f 80/62/106 120/62/106 121/62/106
f 502/62/107 31/62/107 87/62/107
f 121/62/108 81/62/108 80/62/108
f 425/62/109 72/62/109 15/62/109
f 275/62/110 281/62/110 404/62/110
f 118/62/111 78/62/111 77/62/111
f 12/62/112 196/62/112 188/62/112
f 80/62/113 78/62/113 118/62/113
f 80/62/114 119/62/114 120/62/114
f 119/62/115 80/62/115 118/62/115
f 65/62/116 105/62/116 106/62/116
f 105/62/117 65/62/117 63/62/117
f 106/62/118 66/62/118 65/62/118
f 328/62/119 514/62/119 87/62/119
f 442/62/120 198/62/120 356/62/120
f 103/62/121 63/62/121 81/62/121
f 216/62/122 354/62/122 496/62/122
f 530/62/123 221/62/123 362/62/123
f 63/62/124 104/62/124 105/62/124
f 104/62/125 63/62/125 103/62/125
f 70/62/126 110/62/126 111/62/126
f 110/62/127 70/62/127 109/62/127
f 111/62/128 71/62/128 70/62/128
f 252/62/129 249/62/129 377/62/129
f 71/62/130 111/62/130 73/62/130
f 108/62/131 68/62/131 66/62/131
f 264/62/132 296/62/132 342/62/132
f 70/62/133 68/62/133 108/62/133
f 274/62/134 257/62/134 204/62/134
f 109/62/135 70/62/135 108/62/135
f 296/62/136 37/62/136 146/62/136
f 315/62/137 382/62/137 372/62/137
f 406/62/138 298/62/138 198/62/138
f 117/62/139 77/62/139 116/62/139
f 498/62/140 27/62/140 274/62/140
f 342/62/141 296/62/141 146/62/141
f 113/62/142 73/62/142 112/62/142
f 381/62/143 296/62/143 41/62/143
f 281/62/144 240/62/144 88/62/144
f 84/62/145 37/62/145 202/62/145
f 194/62/146 465/62/146 189/62/146
f 306/62/147 501/62/147 276/62/147
f 358/62/148 212/62/148 364/62/148
f 102/62/149 81/62/149 121/62/149
f 296/62/150 264/62/150 41/62/150
f 118/62/151 77/62/151 117/62/151
f 144/62/152 215/62/152 123/62/152
f 132/62/153 430/62/153 228/62/153
f 357/62/154 364/62/154 33/62/154
f 18/62/155 357/62/155 521/62/155
f 191/62/156 10/62/156 432/62/156
f 91/62/157 372/62/157 218/62/157
f 470/62/158 387/62/158 243/62/158
f 107/62/159 66/62/159 106/62/159
f 240/62/160 513/62/160 486/62/160
f 371/62/161 520/62/161 450/62/161
f 103/62/162 81/62/162 102/62/162
f 303/62/163 352/62/163 365/62/163
f 450/62/164 155/62/164 525/62/164
f 18/62/165 529/62/165 533/62/165
f 182/62/166 263/62/166 483/62/166
f 6/62/167 145/62/167 515/62/167
f 353/62/168 158/62/168 534/62/168
f 112/62/169 73/62/169 111/62/169
f 259/62/170 499/62/170 224/62/170
f 266/62/171 390/62/171 375/62/171
f 108/62/172 66/62/172 107/62/172
f 520/62/173 527/62/173 216/62/173
f 342/62/174 217/62/174 264/62/174
f 327/62/175 467/62/175 264/62/175
f 139/62/176 33/62/176 41/62/176
f 41/62/177 264/62/177 467/62/177
f 250/62/178 260/62/178 428/62/178
f 126/62/179 168/62/179 167/62/179
f 278/62/180 228/62/180 438/62/180
f 423/62/181 224/62/181 396/62/181
f 133/62/182 172/62/182 171/62/182
f 524/62/183 160/62/183 211/62/183
f 459/62/184 343/62/184 243/62/184
f 505/62/185 431/62/185 517/62/185
f 332/62/186 157/62/186 432/62/186
f 522/62/187 334/62/187 545/62/187
f 99/62/188 10/62/188 361/62/188
f 141/62/189 163/62/189 162/62/189
f 334/62/190 471/62/190 545/62/190
f 474/62/191 202/62/191 346/62/191
f 126/62/192 167/62/192 166/62/192
f 97/62/193 49/62/193 268/62/193
f 400/62/194 319/62/194 24/62/194
f 262/62/195 458/62/195 535/62/195
f 159/62/196 321/62/196 97/62/196
f 189/62/197 8/62/197 47/62/197
f 142/62/198 425/62/198 15/62/198
f 372/62/199 91/62/199 518/62/199
f 137/62/200 178/62/200 177/62/200
f 327/62/201 264/62/201 217/62/201
f 141/62/202 162/62/202 181/62/202
f 212/62/203 358/62/203 381/62/203
f 445/62/204 406/62/204 198/62/204
f 425/62/205 205/62/205 247/62/205
f 11/62/206 543/62/206 496/62/206
f 520/62/207 389/62/207 450/62/207
f 206/62/208 330/62/208 349/62/208
f 133/62/209 173/62/209 172/62/209
f 494/62/210 207/62/210 79/62/210
f 389/62/211 292/62/211 256/62/211
f 137/62/212 177/62/212 176/62/212
f 506/62/213 513/62/213 240/62/213
f 284/62/214 474/62/214 478/62/214
f 472/62/215 487/62/215 187/62/215
f 130/62/216 169/62/216 168/62/216
f 511/62/217 395/62/217 402/62/217
f 128/62/218 130/62/218 168/62/218
f 467/62/219 139/62/219 41/62/219
f 128/62/220 168/62/220 126/62/220
f 171/62/221 131/62/221 133/62/221
f 212/62/222 33/62/222 364/62/222
f 131/62/223 171/62/223 130/62/223
f 130/62/224 170/62/224 169/62/224
f 170/62/225 130/62/225 171/62/225
f 122/62/226 164/62/226 163/62/226
f 164/62/227 122/62/227 165/62/227
f 324/62/228 417/62/228 382/62/228
f 185/62/229 370/62/229 4/62/229
f 122/62/230 163/62/230 141/62/230
f 525/62/231 155/62/231 476/62/231
f 485/62/232 209/62/232 390/62/232
f 126/62/233 166/62/233 125/62/233
f 125/62/234 165/62/234 122/62/234
f 165/62/235 125/62/235 166/62/235
f 140/62/236 179/62/236 178/62/236
f 179/62/237 140/62/237 180/62/237
f 138/62/238 140/62/238 178/62/238
f 537/62/239 410/62/239 156/62/239
f 138/62/240 178/62/240 137/62/240
f 386/62/241 435/62/241 502/62/241
f 331/62/242 499/62/242 34/62/242
f 141/62/243 181/62/243 140/62/243
f 213/62/244 221/62/244 455/62/244
f 180/62/245 140/62/245 181/62/245
f 134/62/246 174/62/246 173/62/246
f 491/62/247 124/62/247 386/62/247
f 133/62/248 134/62/248 173/62/248
f 399/62/249 145/62/249 307/62/249
f 124/62/250 435/62/250 386/62/250
f 176/62/251 136/62/251 137/62/251
f 233/62/252 524/62/252 25/62/252
f 136/62/253 176/62/253 134/62/253
f 134/62/254 175/62/254 174/62/254
f 175/62/255 134/62/255 176/62/255
f 428/63/256 404/64/256 88/65/256
f 158/11/257 371/64/257 534/66/257
f 499/67/258 236/65/258 34/64/258
f 221/68/259 403/65/259 79/69/259
f 508/65/260 486/67/260 531/69/260
f 530/70/261 49/66/261 251/64/261
f 426/71/262 69/72/262 541/73/262
f 404/72/263 281/71/263 88/74/263
f 100/75/264 67/73/264 62/72/264
f 513/70/265 506/73/265 87/66/265
f 203/73/266 185/75/266 2/66/266
f 49/76/267 97/77/267 147/78/267
f 298/79/268 249/78/268 356/77/268
f 424/77/269 350/76/269 533/80/269
f 525/81/270 530/80/270 534/82/270
f 98/81/271 393/77/271 340/80/271
f 207/83/272 494/78/272 546/84/272
f 463/85/273 418/68/273 3/86/273
f 421/68/274 184/69/274 150/86/274
f 418/85/275 463/86/275 1/84/275
f 546/79/276 149/84/276 336/78/276
f 330/83/277 361/84/277 85/86/277
f 526/87/278 453/74/278 192/71/278
f 423/88/279 396/89/279 286/90/279
f 455/89/280 364/91/280 213/90/280
f 304/92/281 295/90/281 376/58/281
f 281/92/282 506/58/282 240/93/282
f 87/88/283 506/90/283 328/92/283
f 250/89/284 376/80/284 295/91/284
f 235/76/285 238/78/285 237/94/285
f 377/78/286 501/7/286 252/94/286
f 478/76/287 474/94/287 401/80/287
f 326/80/288 42/95/288 316/91/288
f 350/95/289 156/80/289 533/94/289
f 407/96/290 442/97/290 439/98/290
f 84/96/291 339/99/291 37/97/291
f 227/51/292 235/98/292 229/97/292
f 226/87/292 235/98/292 227/74/292
f 465/98/293 93/51/293 189/74/293
f 235/99/292 231/100/292 229/97/292
f 423/101/294 265/93/294 244/102/294
f 231/101/295 234/92/295 232/93/295
f 442/103/296 356/102/296 336/93/296
f 502/99/297 87/102/297 522/100/297
f 325/102/298 451/103/298 507/100/298
f 313/79/299 485/77/299 535/104/299
f 439/84/300 251/79/300 49/104/300
f 186/77/301 39/81/301 146/104/301
f 532/82/302 308/105/302 35/104/302
f 156/81/303 355/82/303 533/104/303
f 332/85/304 47/84/304 8/104/304
f 351/63/305 374/106/305 460/64/305
f 183/106/306 94/70/306 443/64/306
f 194/63/307 189/65/307 273/104/307
f 498/68/308 194/85/308 27/104/308
f 540/65/309 92/68/309 52/104/309
f 360/107/310 536/108/310 348/104/310
f 508/109/311 94/107/311 88/104/311
f 317/108/312 469/110/312 230/104/312
f 154/106/313 492/63/313 537/104/313
f 295/110/314 352/106/314 303/104/314
f 24/111/315 160/109/315 441/104/315
f 13/112/316 384/113/316 257/104/316
f 544/105/317 427/112/317 30/104/317
f 249/113/318 298/114/318 325/104/318
f 350/115/319 464/111/319 413/104/319
f 511/114/320 319/115/320 400/104/320
f 223/70/292 235/106/292 226/73/292
f 378/113/321 540/101/321 394/102/321
f 231/101/295 235/113/295 234/92/295
f 215/114/322 19/113/322 370/102/322
f 243/99/323 343/115/323 470/102/323
f 494/114/324 403/102/324 44/115/324
f 144/112/325 157/92/325 297/113/325
f 544/82/326 30/89/326 312/105/326
f 150/89/327 406/82/327 145/80/327
f 529/88/328 523/105/328 422/89/328
f 184/112/329 517/105/329 298/92/329
f 247/105/330 352/88/330 380/92/330
f 362/108/331 534/107/331 530/71/331
f 313/107/332 417/87/332 209/71/332
f 487/108/333 186/71/333 339/73/333
f 347/110/334 21/73/334 148/106/334
f 14/110/335 387/108/335 470/73/335
f 2/87/336 482/107/336 12/98/336
f 335/96/337 454/111/337 49/99/337
f 344/115/338 213/99/338 364/111/338
f 364/111/339 455/96/339 358/98/339
f 428/109/340 183/98/340 250/107/340
f 506/109/341 491/111/341 328/98/341
f 241/116/342 235/69/342 242/117/342
f 399/69/343 525/116/343 476/86/343
f 32/67/344 196/117/344 309/69/344
f 367/64/345 366/11/345 368/117/345
f 235/67/292 223/64/292 242/117/292
f 320/83/346 503/118/346 488/78/346
f 158/7/347 527/78/347 371/118/347
f 238/83/348 235/86/348 239/118/348
f 161/119/349 532/86/349 35/116/349
f 235/86/350 241/119/350 239/118/350
f 427/120/351 190/121/351 40/122/351
f 204/121/352 214/120/352 39/123/352
f 59/123/353 326/120/353 316/124/353
f 510/125/354 191/126/354 17/127/354
f 516/121/355 355/123/355 378/128/355
f 430/129/356 459/130/356 228/124/356
f 481/129/357 271/131/357 324/132/357
f 19/131/358 297/120/358 363/122/358
f 326/129/359 518/133/359 246/130/359
f 469/130/360 386/133/360 457/134/360
f 282/133/361 75/129/361 449/132/361
f 337/135/362 433/126/362 473/125/362
f 23/136/363 528/137/363 152/138/363
f 146/138/364 39/139/364 342/136/364
f 17/137/365 432/136/365 157/140/365
f 194/141/366 273/140/366 13/142/366
f 379/140/367 154/141/367 316/137/367
f 248/143/368 155/144/368 388/145/368
f 153/137/369 503/146/369 446/147/369
f 433/147/370 385/138/370 286/137/370
f 386/146/371 502/137/371 457/141/371
f 540/148/372 378/143/372 92/145/372
f 183/142/373 15/143/373 279/148/373
f 370/120/374 278/129/374 320/124/374
f 530/149/375 251/150/375 221/151/375
f 2/150/376 12/149/376 5/152/376
f 251/152/377 149/149/377 221/126/377
f 444/149/378 397/153/378 478/154/378
f 62/150/379 151/152/379 500/155/379
f 219/150/380 257/156/380 384/151/380
f 21/157/381 319/158/381 349/128/381
f 284/158/382 84/156/382 202/159/382
f 393/150/383 152/160/383 528/156/383
f 295/156/384 260/160/384 250/159/384
f 189/160/385 47/150/385 273/155/385
f 263/153/386 182/149/386 401/151/386
f 317/153/387 328/123/387 469/124/387
f 275/123/388 197/153/388 281/157/388
f 197/157/389 506/153/389 281/151/389
f 413/129/390 272/120/390 495/131/390
f 402/123/391 217/157/391 36/128/391
f 300/154/392 293/161/392 333/126/392
f 373/149/393 218/154/393 458/126/393
f 412/154/394 148/153/394 497/124/394
f 9/154/395 360/130/395 348/161/395
f 377/161/396 249/130/396 127/134/396
f 538/130/397 190/154/397 201/124/397
f 139/162/398 95/163/398 521/164/398
f 524/163/399 441/162/399 160/165/399
f 525/162/400 399/164/400 280/166/400
f 452/167/401 75/166/401 437/168/401
f 286/167/402 55/162/402 265/166/402
f 148/169/403 412/165/403 427/162/403
f 279/164/404 72/170/404 376/171/404
f 18/164/405 521/163/405 95/170/405
f 1/166/406 199/164/406 93/171/406
f 149/168/407 251/166/407 82/172/407
f 528/166/408 23/171/408 277/172/408
f 36/173/409 210/167/409 29/168/409
f 397/174/410 84/175/410 478/176/410
f 319/176/411 160/175/411 24/177/411
f 534/174/412 371/176/412 525/178/412
f 405/179/413 480/178/413 156/180/413
f 245/179/414 489/174/414 409/178/414
f 405/177/415 350/175/415 413/181/415
f 465/182/416 418/183/416 93/184/416
f 354/183/417 52/170/417 195/184/417
f 443/181/418 94/185/418 340/177/418
f 492/186/419 355/181/419 410/175/419
f 462/178/420 67/176/420 448/187/420
f 537/170/421 481/163/421 316/188/421
f 444/189/422 246/140/422 397/136/422
f 187/136/423 84/190/423 397/189/423
f 191/140/424 188/189/424 10/191/424
f 519/189/425 385/192/425 504/193/425
f 524/191/426 233/189/426 151/193/426
f 208/190/427 75/136/427 366/139/427
f 329/142/428 485/191/428 266/143/428
f 6/140/429 289/191/429 145/142/429
f 93/191/430 8/193/430 189/143/430
f 517/193/431 195/194/431 377/144/431
f 21/143/432 536/193/432 360/144/432
f 472/193/433 365/192/433 487/194/433
f 314/171/434 528/183/434 277/182/434
f 448/171/435 22/170/435 25/183/435
f 92/172/436 378/171/436 420/182/436
f 12/188/437 188/163/437 5/195/437
f 429/165/438 314/195/438 288/163/438
f 373/170/439 262/188/439 428/184/439
f 488/142/440 343/148/440 459/146/440
f 37/146/441 296/141/441 345/142/441
f 18/148/442 369/147/442 357/146/442
f 98/195/443 531/184/443 393/188/443
f 272/148/444 208/145/444 366/147/444
f 456/196/445 270/197/445 26/198/445
f 329/199/446 266/200/446 208/201/446
f 424/196/447 412/202/447 200/197/447
f 504/202/448 340/203/448 393/204/448
f 196/202/449 16/204/449 309/197/449
f 501/201/450 377/205/450 526/199/450
f 283/206/451 437/196/451 300/199/451
f 326/199/452 444/196/452 182/198/452
f 298/207/453 356/206/453 198/199/453
f 442/200/454 251/199/454 439/208/454
f 507/199/455 484/198/455 325/208/455
f 7/209/456 91/210/456 411/211/456
f 460/209/457 100/212/457 62/213/457
f 143/212/458 526/209/458 294/211/458
f 153/213/459 359/214/459 387/209/459
f 369/213/460 158/215/460 357/216/460
f 383/214/461 471/213/461 416/216/461
f 348/211/462 309/217/462 308/212/462
f 485/218/463 28/214/463 535/219/463
f 274/210/464 225/209/464 498/214/464
f 4/214/465 19/216/465 363/219/465
f 299/216/466 436/220/466 152/221/466
f 385/219/467 519/216/467 286/221/467
f 64/207/468 269/222/468 442/223/468
f 222/204/469 299/224/469 486/225/469
f 346/197/470 358/204/470 455/225/470
f 310/198/471 391/197/471 249/226/471
f 47/208/472 384/198/472 13/226/472
f 509/197/473 505/225/473 517/226/473
f 7/227/474 246/224/474 518/204/474
f 23/228/475 435/229/475 305/202/475
f 357/202/476 33/196/476 521/228/476
f 517/203/477 325/202/477 298/229/477
f 139/204/478 201/203/478 529/227/478
f 96/229/479 527/227/479 158/203/479
f 489/226/480 245/230/480 462/208/480
f 277/205/481 305/231/481 101/232/481
f 443/199/482 15/205/482 183/232/482
f 160/207/483 347/199/483 408/232/483
f 145/206/484 301/207/484 255/223/484
f 500/232/485 233/222/485 22/207/485
f 1/201/486 253/233/486 291/231/486
f 483/230/487 379/234/487 42/200/487
f 399/200/488 515/208/488 145/230/488
f 94/201/489 98/200/489 340/233/489
f 190/205/490 523/201/490 529/231/490
f 221/200/491 44/234/491 403/233/491
f 518/235/492 91/236/492 7/132/492
f 372/131/493 313/235/493 458/132/493
f 149/236/494 44/235/494 221/237/494
f 361/158/495 10/238/495 188/239/495
f 196/132/496 482/236/496 16/240/496
f 423/235/497 244/241/497 259/237/497
f 3/121/498 418/241/498 225/122/498
f 157/241/499 332/239/499 83/237/499
f 346/239/500 345/121/500 358/128/500
f 285/241/501 502/131/501 522/122/501
f 212/131/502 381/241/502 41/235/502
f 443/238/503 142/158/503 15/159/503
f 228/160/504 459/242/504 243/159/504
f 15/242/505 72/160/505 279/240/505
f 99/240/506 47/160/506 432/155/506
f 11/156/507 496/157/507 542/151/507
f 19/157/508 144/156/508 297/158/508
f 270/236/509 456/242/509 129/240/509
f 314/158/510 161/239/510 35/128/510
f 296/239/511 381/238/511 345/237/511
f 395/236/512 400/238/512 538/242/512
f 271/242/513 537/238/513 156/159/513
f 527/238/514 394/236/514 354/237/514
f 453/239/515 92/241/515 420/121/515
f 497/215/516 148/243/516 360/244/516
f 139/245/517 467/243/517 201/215/517
f 143/243/518 501/246/518 526/244/518
f 4/210/519 363/214/519 185/218/519
f 546/211/520 475/210/520 207/218/520
f 293/213/521 282/245/521 449/215/521
f 123/215/522 510/244/522 17/220/522
f 487/216/523 339/215/523 187/220/523
f 501/217/524 447/247/524 336/245/524
f 474/245/525 284/213/525 202/212/525
f 129/245/526 479/212/526 482/217/526
f 31/218/527 435/219/527 23/211/527
f 378/246/528 355/243/528 492/248/528
f 526/243/529 192/245/529 263/248/529
f 204/249/530 186/211/530 258/219/530
f 464/250/531 200/249/531 497/221/531
f 149/219/532 82/221/532 336/249/532
f 28/248/533 9/245/533 535/247/533
f 240/251/534 486/250/534 508/220/534
f 294/250/535 276/221/535 143/220/535
f 421/251/536 255/220/536 542/244/536
f 219/246/537 214/252/537 257/244/537
f 161/252/538 314/251/538 277/244/538
f 336/253/539 249/254/539 252/255/539
f 429/256/540 393/253/540 528/255/540
f 404/257/541 428/256/541 461/255/541
f 299/258/542 222/259/542 31/260/542
f 520/261/543 216/256/543 543/257/543
f 477/260/544 219/259/544 99/262/544
f 215/263/545 370/264/545 123/265/545
f 341/265/546 338/266/546 368/263/546
f 135/267/547 322/265/547 524/264/547
f 236/268/548 86/267/548 34/269/548
f 267/267/549 488/264/549 311/269/549
f 510/270/550 5/271/550 191/272/550
f 16/259/551 479/261/551 434/257/551
f 456/253/552 429/273/552 288/254/552
f 193/259/553 101/257/553 275/274/553
f 10/273/554 99/275/554 432/276/554
f 306/276/555 302/275/555 398/277/555
f 394/278/556 516/268/556 378/269/556
f 202/270/557 345/260/557 346/271/557
f 363/279/558 270/270/558 129/272/558
f 1/270/559 463/258/559 337/260/559
f 345/280/560 202/268/560 37/281/560
f 527/268/561 96/278/561 394/281/561
f 330/266/562 85/279/562 349/263/562
f 539/282/563 475/283/563 447/262/563
f 469/282/564 490/262/564 471/274/564
f 182/284/565 478/285/565 401/286/565
f 75/283/566 452/285/566 366/284/566
f 300/286/567 415/287/567 283/284/567
f 147/274/568 97/288/568 90/282/568
f 442/255/569 82/289/569 251/257/569
f 267/278/570 470/269/570 343/290/570
f 309/289/571 348/291/571 32/257/571
f 33/274/572 212/257/572 41/291/572
f 433/291/573 286/288/573 396/274/573
f 511/284/574 206/262/574 349/283/574
f 213/292/575 344/289/575 362/255/575
f 418/293/576 465/292/576 225/255/576
f 263/276/577 302/254/577 526/273/577
f 328/259/578 491/274/578 386/262/578
f 261/276/579 272/293/579 413/254/579
f 273/293/580 47/255/580 13/254/580
f 504/294/581 385/287/581 340/286/581
f 89/286/582 310/295/582 249/294/582
f 407/294/583 64/295/583 442/296/583
f 28/296/584 329/297/584 261/298/584
f 422/296/585 523/298/585 427/294/585
f 354/286/586 540/285/586 52/299/586
f 275/300/587 101/286/587 197/299/587
f 9/299/588 28/285/588 360/301/588
f 420/301/589 378/283/589 154/302/589
f 11/285/590 290/283/590 292/301/590
f 31/295/591 513/286/591 87/300/591
f 329/297/592 208/296/592 272/303/592
f 471/304/593 383/297/593 230/303/593
f 276/303/594 294/296/594 302/305/594
f 254/305/595 49/295/595 147/300/595
f 359/296/596 243/295/596 387/305/596
f 387/283/597 311/282/597 153/302/597
f 38/306/598 322/307/598 440/308/598
f 464/307/599 424/306/599 200/309/599
f 274/309/600 204/306/600 258/310/600
f 408/309/601 211/311/601 160/312/601
f 210/307/602 214/309/602 219/313/602
f 88/291/603 240/289/603 508/314/603
f 436/282/604 299/288/604 31/315/604
f 438/302/605 243/282/605 359/315/605
f 521/315/606 33/288/606 139/316/606
f 484/316/607 287/291/607 325/314/607
f 528/288/608 314/291/608 429/316/608
f 320/317/609 278/297/609 503/304/609
f 442/318/610 336/280/610 82/281/610
f 200/319/611 412/320/611 497/318/611
f 456/318/612 26/320/612 429/280/612
f 252/314/613 501/289/613 336/321/613
f 20/317/614 262/322/614 535/319/614
f 439/317/615 49/319/615 454/318/615
f 249/275/616 325/319/616 287/277/616
f 515/320/617 399/319/617 476/275/617
f 433/319/618 337/322/618 385/277/618
f 360/281/619 28/297/619 261/317/619
f 292/317/620 389/318/620 11/281/620
f 183/289/621 88/292/621 94/321/621
f 448/277/622 100/322/622 374/323/622
f 380/324/623 425/277/623 247/323/623
f 480/323/624 405/322/624 413/325/624
f 142/325/625 385/317/625 205/304/625
f 415/322/626 426/317/626 283/325/626
f 38/276/627 440/277/627 462/324/627
f 148/292/628 544/293/628 347/326/628
f 72/321/629 304/292/629 376/326/629
f 479/326/630 456/293/630 288/327/630
f 197/327/631 305/276/631 491/324/631
f 486/293/632 299/276/632 531/327/632
f 463/328/633 3/329/633 247/139/633
f 357/328/634 344/139/634 364/138/634
f 203/139/635 132/329/635 228/190/635
f 230/329/636 416/330/636 317/192/636
f 266/330/637 293/194/637 449/192/637
f 435/328/638 124/138/638 305/147/638
f 512/331/639 417/332/639 271/333/639
f 205/334/640 425/331/640 142/333/640
f 96/333/641 355/332/641 516/335/641
f 421/336/642 496/337/642 184/338/642
f 95/332/643 139/339/643 529/335/643
f 245/340/644 524/184/644 151/195/644
f 464/341/645 350/162/645 424/167/645
f 373/169/646 260/162/646 218/341/646
f 529/173/647 422/341/647 533/167/647
f 478/342/648 182/343/648 444/181/648
f 272/184/649 366/344/649 367/182/649
f 377/340/650 195/165/650 526/169/650
f 415/344/651 414/173/651 69/172/651
f 161/172/652 193/182/652 532/344/652
f 39/340/653 186/195/653 204/165/653
f 192/341/654 420/340/654 483/169/654
f 205/168/655 463/172/655 247/173/655
f 72/345/656 380/331/656 304/334/656
f 1/346/657 26/179/657 199/347/657
f 544/346/658 148/348/658 427/179/658
f 458/177/659 313/185/659 535/176/659
f 339/338/660 84/349/660 187/336/660
f 250/187/661 183/176/661 376/185/661
f 339/348/662 186/174/662 146/179/662
f 96/186/663 516/350/663 394/351/663
f 123/347/664 370/179/664 320/180/664
f 211/350/665 408/186/665 322/348/665
f 448/348/666 38/175/666 462/174/666
f 348/175/667 85/348/667 32/186/667
f 129/336/668 185/352/668 363/337/668
f 340/353/669 385/333/669 142/354/669
f 25/334/670 38/333/670 448/353/670
f 305/333/671 277/335/671 23/354/671
f 444/331/672 326/345/672 246/349/672
f 411/349/673 295/355/673 303/331/673
f 151/352/674 233/334/674 500/353/674
f 185/353/675 129/354/675 482/337/675
f 265/352/676 86/353/676 244/337/676
f 219/345/677 29/336/677 210/349/677
f 93/345/678 199/334/678 8/352/678
f 387/336/679 267/345/679 311/352/679
f 31/356/680 222/272/680 513/287/680
f 36/272/681 217/271/681 342/287/681
f 441/294/682 524/356/682 245/287/682
f 220/290/683 389/298/683 256/278/683
f 519/290/684 504/356/684 55/294/684
f 489/271/685 312/284/685 40/287/685
f 412/350/686 422/346/686 427/357/686
f 201/192/687 327/190/687 395/329/687
f 305/350/688 124/348/688 491/346/688
f 293/284/689 323/260/689 333/262/689
f 101/271/690 305/260/690 197/284/690
f 306/298/691 539/290/691 447/294/691
f 1/358/692 93/359/692 418/356/692
f 245/358/693 151/356/693 462/290/693
f 389/264/694 520/359/694 543/358/694
f 370/269/695 203/358/695 278/290/695
f 20/358/696 348/269/696 308/264/696
f 409/359/697 40/264/697 190/263/697
f 430/281/698 5/278/698 510/297/698
f 325/278/699 517/298/699 451/297/699
f 352/359/700 247/272/700 365/356/700
f 531/359/701 152/263/701 393/279/701
f 297/272/702 83/359/702 270/279/702
f 331/189/703 253/190/703 473/192/703
f 367/347/704 368/360/704 338/346/704
f 545/361/705 457/351/705 285/350/705
f 5/362/706 188/360/706 191/347/706
f 490/360/707 545/357/707 471/346/707
f 448/357/708 67/361/708 100/350/708
f 317/363/709 416/362/709 514/347/709
f 21/180/710 347/178/710 319/187/710
f 348/181/711 536/343/711 85/185/711
f 522/342/712 87/186/712 514/351/712
f 334/180/713 522/363/713 514/347/713
f 400/342/714 24/181/714 538/186/714
f 84/343/715 284/187/715 478/185/715
f 313/332/716 372/331/716 382/364/716
f 480/364/717 512/331/717 271/355/717
f 271/339/718 156/332/718 480/364/718
f 512/365/719 341/366/719 375/337/719
f 146/366/720 37/338/720 339/337/720
f 307/339/721 406/367/721 445/335/721
f 504/365/722 429/337/722 26/354/722
f 184/343/723 496/180/723 517/187/723
f 55/368/724 291/365/724 265/354/724
f 20/367/725 535/368/725 9/335/725
f 272/368/726 261/354/726 329/335/726
f 430/369/727 510/370/727 459/371/727
f 228/372/728 243/369/728 438/371/728
f 405/373/729 156/372/729 350/371/729
f 27/374/730 194/375/730 13/376/730
f 389/375/731 220/377/731 493/378/731
f 460/370/732 374/369/732 100/379/732
f 472/379/733 187/369/733 397/380/733
f 363/380/734 297/381/734 270/379/734
f 318/382/735 426/383/735 415/384/735
f 195/379/736 496/384/736 354/370/736
f 143/384/737 276/379/737 501/382/737
f 479/375/738 16/378/738 482/376/738
f 499/385/739 331/386/739 396/376/739
f 210/374/740 36/376/740 342/386/740
f 291/387/741 253/388/741 34/389/741
f 255/390/742 421/391/742 145/392/742
f 19/393/743 4/389/743 370/388/743
f 393/386/744 429/394/744 504/374/744
f 457/378/745 545/395/745 490/385/745
f 17/376/746 191/378/746 432/385/746
f 332/383/747 8/382/747 83/394/747
f 417/385/748 313/383/748 382/386/748
f 198/394/749 442/386/749 97/383/749
f 468/396/750 333/382/750 392/379/750
f 333/392/751 414/391/751 415/397/751
f 483/398/752 263/392/752 192/397/752
f 377/344/753 127/397/753 517/391/753
f 132/390/754 2/374/754 430/399/754
f 390/391/755 209/400/755 512/344/755
f 22/377/756 448/392/756 374/398/756
f 423/401/757 259/402/757 224/403/757
f 495/404/758 338/405/758 413/406/758
f 468/407/759 541/328/759 414/408/759
f 356/408/760 249/409/760 336/410/760
f 541/328/761 69/409/761 414/408/761
f 379/374/762 483/394/762 420/399/762
f 298/410/763 406/396/763 184/381/763
f 277/408/764 193/410/764 161/381/764
f 517/407/765 127/408/765 509/380/765
f 324/381/766 271/396/766 417/379/766
f 55/408/767 1/381/767 291/380/767
f 42/399/768 379/396/768 316/410/768
f 510/399/769 320/400/769 459/391/769
f 183/391/770 279/390/770 376/399/770
f 414/399/771 333/394/771 468/396/771
f 29/400/772 477/399/772 206/410/772
f 404/394/773 461/382/773 275/396/773
f 433/366/774 396/365/774 331/404/774
f 94/411/775 508/412/775 98/330/775
f 465/368/776 498/367/776 225/405/776
f 374/404/777 500/365/777 22/368/777
f 368/405/778 323/404/778 341/368/778
f 326/329/779 59/328/779 518/411/779
f 445/413/780 268/194/780 280/330/780
f 341/145/781 323/144/781 375/413/781
f 388/413/782 450/144/782 389/194/782
f 260/330/783 373/329/783 428/411/783
f 293/330/784 300/412/784 437/413/784
f 426/405/785 318/339/785 69/364/785
f 353/342/786 534/401/786 362/403/786
f 432/351/787 47/414/787 332/401/787
f 438/343/788 153/342/788 446/403/788
f 203/341/789 228/410/789 278/409/789
f 348/340/790 20/341/790 9/409/790
f 280/342/791 307/351/791 445/401/791
f 419/364/792 193/402/792 461/405/792
f 287/405/793 89/367/793 249/339/793
f 40/364/794 409/355/794 489/403/794
f 307/403/795 145/402/795 406/364/795
f 210/355/796 39/349/796 214/403/796
f 420/413/797 192/412/797 453/362/797
f 452/415/798 466/416/798 392/417/798
f 193/418/799 419/419/799 532/415/799
f 449/417/800 208/420/800 266/415/800
f 315/421/801 372/419/801 518/422/801
f 315/418/802 324/415/802 382/420/802
f 315/416/803 518/415/803 59/419/803
f 531/392/804 299/375/804 152/374/804
f 244/374/805 86/390/805 259/392/805
f 254/392/806 335/377/806 49/375/806
f 1/423/807 55/424/807 26/425/807
f 7/423/808 472/426/808 246/424/808
f 207/422/809 475/427/809 346/421/809
f 29/360/810 206/362/810 36/428/810
f 25/357/811 22/360/811 233/428/811
f 253/362/812 337/412/812 473/428/812
f 440/363/813 312/180/813 489/413/813
f 329/362/814 28/363/814 485/413/814
f 135/357/815 524/428/815 211/414/815
f 541/427/816 466/422/816 426/423/816
f 463/406/817 385/421/817 337/427/817
f 203/429/818 370/430/818 185/431/818
f 300/361/819 333/357/819 415/414/819
f 328/351/820 386/361/820 469/414/820
f 338/240/821 495/432/821 367/132/821
f 35/433/822 434/132/822 288/432/822
f 18/388/823 96/387/823 369/434/823
f 440/393/824 544/388/824 312/434/824
f 213/387/825 362/435/825 221/434/825
f 21/436/826 360/433/826 148/432/826
f 398/135/827 302/437/827 263/438/827
f 20/438/828 532/439/828 419/135/828
f 306/387/829 276/438/829 302/437/829
f 410/433/830 355/436/830 156/440/830
f 293/437/831 375/435/831 323/387/831
f 219/135/832 477/439/832 29/441/832
f 263/418/833 401/442/833 398/443/833
f 72/443/834 425/419/834 380/418/834
f 224/426/835 499/443/835 396/442/835
f 49/328/836 280/407/836 268/411/836
f 25/442/837 524/444/837 322/426/837
f 452/443/838 437/426/838 466/423/838
f 366/445/839 452/446/839 392/431/839
f 519/135/840 55/441/840 286/447/840
f 154/445/841 378/431/841 492/430/841
f 19/423/842 215/422/842 144/443/842
f 532/422/843 20/419/843 308/443/843
f 465/448/844 194/449/844 498/450/844
f 144/451/845 17/452/845 157/453/845
f 512/454/846 480/452/846 341/451/846
f 30/455/847 40/436/847 312/432/847
f 182/456/848 483/432/848 42/457/848
f 496/432/849 421/456/849 542/455/849
f 323/450/850 368/454/850 392/451/850
f 225/458/851 274/459/851 258/460/851
f 466/459/852 283/458/852 426/461/852
f 525/459/853 49/461/853 530/462/853
f 219/430/854 384/452/854 99/454/854
f 368/454/855 366/445/855 392/430/855
f 59/432/856 316/240/856 481/457/856
f 330/463/857 206/448/857 477/451/857
f 390/453/858 512/463/858 375/451/858
f 265/448/859 291/434/859 86/449/859
f 294/451/860 526/448/860 302/450/860
f 434/434/861 479/435/861 288/449/861
f 209/393/862 417/434/862 512/448/862
f 353/447/863 357/464/863 158/155/863
f 3/155/864 258/135/864 365/447/864
f 75/240/865 282/155/865 293/464/865
f 529/463/866 201/393/866 190/448/866
f 322/464/867 135/457/867 211/240/867
f 394/465/868 540/417/868 354/466/868
f 468/467/869 392/465/869 466/466/869
f 308/401/870 309/467/870 35/402/870
f 97/419/871 445/421/871 198/416/871
f 468/467/872 466/466/872 541/402/872
f 309/468/873 16/467/873 434/401/873
f 410/417/874 537/465/874 492/469/874
f 357/469/875 353/420/875 344/417/875
f 196/470/876 32/469/876 361/465/876
f 153/414/877 438/468/877 359/401/877
f 510/468/878 123/465/878 320/467/878
f 471/417/879 230/416/879 469/466/879
f 319/427/880 347/471/880 160/472/880
f 31/460/881 23/472/881 436/471/881
f 261/472/882 497/406/882 360/427/882
f 488/406/883 459/472/883 320/404/883
f 317/460/884 514/404/884 328/472/884
f 422/471/885 424/427/885 533/423/885
f 495/406/886 272/405/886 367/416/886
f 222/416/887 486/421/887 513/406/887
f 472/466/888 7/416/888 303/402/888
f 361/423/889 330/425/889 99/471/889
f 154/416/890 537/405/890 316/402/890
f 247/420/891 3/469/891 365/473/891
f 408/474/892 347/475/892 544/412/892
f 461/411/893 262/474/893 20/412/893
f 340/428/894 142/412/894 443/476/894
f 278/414/895 446/428/895 503/468/895
f 525/412/896 280/475/896 49/476/896
f 440/372/897 489/373/897 462/475/897
f 327/369/898 217/372/898 402/474/898
f 20/380/899 419/369/899 461/474/899
f 395/407/900 511/380/900 400/411/900
f 411/474/901 91/372/901 260/475/901
f 145/380/902 421/474/902 150/411/902
f 249/428/903 391/476/903 127/468/903
f 539/371/904 474/477/904 475/478/904
f 322/373/905 38/371/905 25/478/905
f 523/478/906 190/477/906 427/465/906
f 190/473/907 538/418/907 409/420/907
f 536/477/908 21/470/908 349/465/908
f 266/429/909 485/453/909 390/452/909
f 286/475/910 265/373/910 423/478/910
f 261/476/911 464/475/911 497/478/911
f 79/468/912 207/476/912 346/478/912
f 338/452/913 341/430/913 480/429/913
f 151/478/914 62/465/914 67/468/914
f 388/479/915 155/480/915 450/134/915
f 433/481/916 331/479/916 473/132/916
f 438/134/917 446/133/917 278/479/917
f 36/127/918 511/134/918 402/480/918
f 411/133/919 260/132/919 295/479/919
f 517/132/920 496/433/920 195/482/920
f 526/161/921 195/134/921 52/127/921
f 464/440/922 261/483/922 413/433/922
f 499/127/923 259/126/923 236/161/923
f 527/482/924 354/481/924 216/132/924
f 293/482/925 437/433/925 75/483/925
f 101/425/926 193/484/926 277/458/926
f 479/485/927 129/486/927 456/487/927
f 333/485/928 323/488/928 392/486/928
f 34/489/929 86/490/929 291/491/929
f 411/487/930 303/489/930 7/485/930
f 434/490/931 35/492/931 309/491/931
f 196/493/932 12/488/932 482/485/932
f 458/471/933 218/458/933 372/460/933
f 283/458/934 466/471/934 437/425/934
f 197/494/935 491/444/935 506/495/935
f 504/485/936 26/495/936 55/493/936
f 3/444/937 225/493/937 258/495/937
f 458/483/938 262/440/938 373/445/938
f 262/418/939 461/496/939 428/442/939
f 355/217/940 96/211/940 533/442/940
f 403/496/941 494/217/941 79/442/941
f 481/135/942 324/125/942 59/437/942
f 259/211/943 86/497/943 236/442/943
f 511/498/944 36/446/944 206/248/944
f 330/217/945 477/496/945 99/247/945
f 280/499/946 399/496/946 307/418/946
