# Blender 5.1.1
# www.blender.org
o Куб.001
v 0.568619 0.253404 0.764471
v 0.462976 1.738500 0.489894
v 0.629600 0.528717 -0.806983
v 0.630675 1.675243 -0.101319
v 0.061571 0.459428 -0.704865
v 0.004173 1.813585 -0.284349
v 0.739964 0.918868 -0.170112
v 0.641063 0.253577 -0.135104
v 0.579479 1.717783 0.208956
v 0.683527 0.867937 0.527311
v 0.088709 0.232537 0.874089
v -0.094109 1.794479 0.546769
v 0.751501 0.888463 -0.048696
v 0.057060 0.175367 -0.173193
v -0.036114 1.862749 0.204228
v 0.833385 0.709035 -1.868810
v 0.555850 1.667215 -0.331183
v 0.076437 0.631756 -0.880258
v 0.000362 1.654091 -0.571496
v 0.478412 1.108621 -1.010458
v 0.474362 1.616886 -0.631065
v 0.060456 0.819894 3.655379
v 0.080564 0.779160 -0.984889
v 0.001756 1.521103 -0.861065
v 0.577397 1.369708 -0.878084
v 0.037416 1.060634 -0.968712
v 0.059125 1.215544 3.592798
v 0.145382 1.519963 3.278896
v 0.484453 0.605471 1.986708
v 0.469474 1.672902 0.928479
v 0.142974 0.771875 3.457857
v 0.635427 0.925030 0.981959
v 0.067737 0.541901 1.659016
v -0.042181 1.747509 1.030783
v 0.033002 0.910743 3.868895
v 0.009881 1.082018 3.878206
v 0.019326 0.829720 3.780386
v 0.562675 1.736056 1.299118
v 0.510896 0.459813 2.836375
v 0.059598 0.502023 1.669074
v -0.047804 1.811412 1.410059
v 0.094353 1.410032 3.515289
v 0.104972 0.789172 3.574010
v 0.144171 1.617373 3.002289
v 0.579515 1.733659 1.495097
v 0.437971 0.529110 2.885320
v 0.064143 0.438531 1.652178
v -0.047038 1.803640 1.591056
v 0.156515 0.761495 3.337543
v 0.131565 1.667841 2.779509
v 0.140844 0.746857 3.191738
v 0.536608 1.670309 1.760563
v 0.741030 1.330248 1.789319
v 0.714248 1.028895 2.340225
v 0.059911 0.378265 1.729497
v -0.040854 1.747921 1.763120
v 0.130334 1.695149 2.477273
v 0.162229 0.677097 2.704243
v 0.426421 1.624368 2.005565
v 0.616535 1.024653 1.903587
v 0.543018 0.808388 1.968425
v 0.044498 0.431013 1.908794
v -0.049757 1.745048 2.039940
v 0.182455 1.703925 2.043962
v 0.297304 0.605585 1.941358
v 0.241251 1.728780 1.745458
v 0.473813 0.670651 1.876392
v 0.316844 1.629666 2.465683
v 0.432359 1.042006 2.608592
v 0.348406 0.703218 2.629148
v -0.020445 0.651241 2.729987
v -0.052717 1.713874 2.463490
v 0.279341 1.791945 1.532136
v 0.407765 0.668841 1.818487
v 0.271672 1.799435 1.339158
v 0.312349 1.610584 2.762718
v 0.402894 1.128346 2.948935
v 0.321241 0.766628 3.120733
v -0.036581 0.719452 3.191651
v -0.047017 1.681749 2.754817
v 0.394127 0.863409 2.120956
v 0.212736 1.745537 0.956638
v 0.378044 0.746331 2.130041
v 0.340643 1.431666 3.032997
v 0.424216 1.220774 3.082441
v 0.348074 0.790100 3.275660
v -0.034767 0.733192 3.332967
v -0.033651 1.636534 2.973782
v 0.294591 1.140247 -0.929257
v 0.205394 1.531150 -0.807120
v 0.346394 0.994932 -0.989238
v 0.216052 1.365185 3.474443
v 0.311404 1.102221 3.464939
v 0.244529 0.808398 3.523707
v -0.031838 0.768894 3.546316
v -0.024195 1.423271 3.481064
v 0.257041 1.649788 -0.585325
v 0.309263 0.734187 -0.914303
v 0.272507 1.835382 0.165089
v 0.044815 1.074444 3.856773
v 0.099258 0.911275 3.827404
v 0.075161 0.852321 3.767872
v -0.028278 0.823854 3.792794
v 0.039564 1.027801 3.880099
v -0.026413 0.900580 3.868754
v 0.435086 1.292573 3.148326
v -0.033295 0.748320 3.443304
v 0.320121 0.795229 3.400121
v 0.351215 0.229910 -0.244409
v -0.027070 1.542214 3.247041
v 0.372381 1.428411 3.122736
v 0.177635 1.803712 0.482067
v -0.025532 1.218774 3.592050
v 0.331215 0.244710 0.811351
v 0.318976 1.794231 -0.305068
v 0.382631 0.517174 -0.813135
v 0.156402 0.834265 3.609427
v -0.030555 0.802961 3.619334
v 0.182824 1.007036 3.646445
v 0.149366 1.174967 3.582093
v 0.041034 0.822612 3.713072
v 0.042778 1.119267 3.760209
v 0.110810 0.836633 3.698684
v 0.134136 0.959833 3.736147
v -0.024948 1.124042 3.747449
v -0.029475 0.812234 3.702301
v 0.109479 1.097467 3.734283
v 0.605120 1.477202 1.051239
v 0.728706 0.916939 1.115038
v 0.638417 0.635580 2.027955
v 0.671769 1.581359 1.291617
v 0.832273 0.955539 1.813433
v 0.878402 0.889653 2.384745
v 0.641379 1.624984 1.475283
v 0.862688 1.124173 1.819904
v 0.940347 1.025274 2.487258
v 0.658723 1.464088 1.621400
v 0.832854 1.303826 1.790730
v 0.915480 1.125830 2.470883
v 0.416282 0.591173 2.647590
v 0.491312 0.521891 2.572482
v 0.849099 0.852421 2.874322
v 0.719423 0.907168 2.910953
v 0.860016 0.738607 2.812163
v 0.457173 0.748958 2.814700
v 0.814443 0.644452 2.731941
v 0.625839 0.486132 2.539450
v 0.502490 0.828341 2.863885
v 0.573432 0.866318 2.840149
v 0.822304 0.683235 3.027229
v 0.693631 0.757754 3.069395
v 0.450428 0.149697 3.173866
v 0.843541 0.594349 2.976495
v 0.455045 0.633045 2.972341
v 0.357225 0.225536 3.220859
v 0.803199 0.519010 2.920349
v 0.643587 0.425503 2.822494
v 0.490051 0.722855 3.036875
v 0.552895 0.770604 3.066653
v 0.402188 0.381394 3.011960
v 0.485702 0.311161 2.968653
v 0.808113 0.502134 3.139255
v 0.665583 0.579458 3.178482
v 0.802235 0.428033 3.095757
v 0.419507 0.476656 3.089390
v 0.765666 0.359023 3.045367
v 0.632459 0.270031 2.956097
v 0.453092 0.558306 3.147827
v 0.514674 0.600123 3.175486
v 0.826618 0.330020 3.368280
v 0.641604 0.419511 3.414315
v 0.642746 0.317561 3.334970
v 0.798135 0.265510 3.315659
v 0.374811 0.326018 3.305176
v 0.601792 0.240682 3.271463
v 0.760805 0.194962 3.258482
v 0.612992 0.103528 3.160768
v 0.411973 0.408028 3.371166
v 0.449162 0.453877 3.411382
v 0.378272 0.308335 3.112887
v 0.432192 0.488901 3.255174
v 0.395577 0.406799 3.193347
v 0.767379 0.280695 3.147718
v 0.804144 0.351650 3.201183
v 0.819678 0.457243 3.205623
v 0.664903 0.538988 3.250588
v 0.625224 0.190150 3.054958
v 0.468176 0.234534 3.067964
v 0.500000 0.562754 3.243724
v 0.689942 0.584044 3.406394
v 0.679199 0.516382 3.502076
v 0.835332 0.435402 3.458588
v 0.515656 0.541421 3.496481
v 0.840627 0.505703 3.363481
v 0.531784 0.607818 3.400162
v 0.784785 1.523523 -0.140353
v 0.816438 0.959826 -0.278941
v 0.787615 0.610891 -0.832077
v 0.770190 1.585597 -0.371746
v 0.873451 1.262966 -0.661163
v 0.828114 0.854195 -0.927436
v 0.753111 1.591064 -0.602088
v 0.846547 1.394508 -0.826197
v 0.752468 1.110925 -1.005370
v 0.614961 0.709671 -2.096986
v 0.530314 1.029700 -1.317484
v 0.658465 0.487966 -1.041217
v 0.459813 0.528302 -1.074872
v 0.392950 0.756838 -1.197060
v 0.419576 0.982895 -1.298585
v 0.816012 0.778110 -1.191217
v 0.754158 1.000177 -1.304511
v 0.784737 0.561093 -1.079152
v 0.547416 0.919946 -1.447458
v 0.662519 0.403236 -1.556358
v 0.481599 0.463440 -1.547629
v 0.421456 0.687629 -1.469973
v 0.446407 0.879354 -1.447337
v 0.807005 0.680962 -1.467040
v 0.751316 0.888946 -1.445437
v 0.777779 0.469916 -1.533671
v 0.551614 0.943071 -2.062663
v 0.683690 0.490838 -2.112522
v 0.427302 0.538190 -2.122597
v 0.409784 0.731787 -2.101338
v 0.438884 0.907528 -2.070389
v 0.838721 0.730345 -2.094712
v 0.778238 0.917990 -2.066945
v 0.848502 0.551153 -2.110630
v 0.841086 0.534345 -1.888232
v 0.404420 0.711446 -1.875384
v 0.433536 0.886366 -1.846090
v 0.419871 0.522128 -1.898890
v 0.676189 0.476301 -1.894692
v 0.546275 0.921683 -1.837892
v 0.772906 0.896379 -1.842065
v 0.802215 0.416004 -2.005274
v 0.808806 0.411155 -2.117549
v 0.680183 0.352514 -2.120352
v 0.479277 0.400582 -2.130086
v 0.472699 0.404759 -2.019217
v 0.673579 0.358254 -2.005338
v 0.796927 0.693778 -1.650390
v 0.437467 0.695042 -1.654304
v 0.661432 0.466213 -1.691684
v 0.769075 0.521922 -1.682871
v 0.461438 0.853229 -1.618137
v 0.492915 0.513803 -1.691891
v 0.555820 0.885077 -1.610737
v 0.745809 0.861776 -1.615154
v 0.002281 1.396044 -0.957820
v 0.013729 1.155383 -1.038800
v 0.109007 1.174812 -0.997347
v 0.078772 1.382677 -0.933003
v 0.149469 1.174295 -0.945244
v 0.090764 1.468247 -0.880370
v 0.016279 1.125290 -0.995804
v 0.002005 1.484558 -0.910627
v 0.318934 1.528169 2.910609
v 0.430311 1.132175 3.074939
v 0.318311 1.460797 3.247392
v 0.440217 1.176764 3.273084
v 0.400330 1.481273 3.054543
v 0.478671 1.471094 3.075671
v 0.441466 1.493420 3.067298
v 0.506410 1.433422 3.079904
v 0.505420 1.342072 3.084070
v 0.519163 1.388941 3.083125
v 0.484019 1.448742 3.123090
v 0.425005 1.460721 3.122240
v 0.455663 1.465615 3.122325
v 0.496579 1.371108 3.131563
v 0.496816 1.432903 3.123668
v 0.506892 1.402458 3.126458
v 0.342556 1.437452 3.121479
v 0.429779 1.247583 3.154843
v 0.460308 1.489897 3.118766
v 0.499595 1.466614 3.120378
v 0.416738 1.482968 3.119059
v 0.517775 1.444216 3.121873
v 0.531623 1.402440 3.126282
v 0.517650 1.360015 3.133026
v 0.353341 1.413792 3.125850
v 0.419808 1.269397 3.150984
v 0.382455 1.408403 3.115236
v 0.427756 1.310335 3.133653
v 0.442552 1.435225 3.114929
v 0.463022 1.423031 3.115470
v 0.420439 1.431695 3.114866
v 0.472263 1.411586 3.115878
v 0.479546 1.389597 3.117879
v 0.472129 1.366934 3.121541
v 0.368778 1.397792 3.117443
v 0.416748 1.293619 3.135566
v 0.034525 1.081447 3.843377
v 0.030856 1.003328 3.884145
v 0.075010 1.073463 3.815744
v 0.070100 0.995423 3.857434
v -0.024850 1.005285 3.887576
v -0.024333 1.081180 3.848148
v 0.006271 1.035235 3.900830
v -0.023995 1.080346 3.878239
v -0.024314 1.035201 3.900691
v -0.430073 0.189844 0.724273
v -0.591470 1.584957 0.493840
v -0.480372 0.525212 -0.904509
v -0.611668 1.671320 -0.210475
v -0.691083 0.889232 -0.279389
v -0.488686 0.218682 -0.211378
v -0.637926 1.678181 0.123433
v -0.605642 0.733620 0.505548
v -0.708584 0.838949 -0.146533
v -0.497000 0.704834 -1.985701
v -0.505838 1.664118 -0.415658
v -0.299677 1.106164 -1.078810
v -0.402810 1.614813 -0.684090
v -0.120242 0.822214 3.657472
v -0.434759 1.366760 -0.958477
v -0.110203 1.217718 3.594759
v -0.198731 1.522990 3.282521
v -0.375825 0.531058 1.980331
v -0.538430 1.573243 0.926150
v -0.208517 0.776389 3.461927
v -0.569114 0.815292 0.972923
v -0.085528 0.912265 3.870267
v -0.057808 1.082887 3.878990
v -0.075990 0.830944 3.781490
v -0.635923 1.636206 1.291355
v -0.393473 0.384473 2.830518
v -0.142212 1.413070 3.518029
v -0.167405 0.792669 3.577165
v -0.209789 1.616768 3.005058
v -0.654654 1.630845 1.487104
v -0.333654 0.464829 2.880323
v -0.225103 0.766395 3.341963
v -0.222243 1.657334 2.779624
v -0.213194 0.751403 3.195837
v -0.604254 1.579268 1.748390
v -0.750966 1.205955 1.779655
v -0.681781 0.912597 2.331184
v -0.232759 1.679404 2.475033
v -0.201014 0.675063 2.707091
v -0.504745 1.565415 1.982925
v -0.594058 0.934255 1.897230
v -0.493373 0.732761 1.963501
v -0.274455 1.676439 2.030768
v -0.227481 0.569867 1.939404
v -0.317970 1.687709 1.735240
v -0.381452 0.599975 1.870961
v -0.412181 1.598716 2.461168
v -0.472700 1.012575 2.609487
v -0.380836 0.694432 2.633723
v -0.367496 1.738865 1.526984
v -0.313264 0.608775 1.813818
v -0.359957 1.746817 1.335068
v -0.398587 1.590705 2.763099
v -0.464193 1.129071 2.956420
v -0.390103 0.773647 3.128472
v -0.335898 0.802593 2.116228
v -0.295290 1.695863 0.956087
v -0.299779 0.689588 2.125754
v -0.404185 1.432006 3.039241
v -0.486963 1.225843 3.091281
v -0.417114 0.799791 3.284488
v -0.169326 1.139081 -0.959715
v -0.192535 1.530783 -0.811388
v -0.174985 0.993317 -1.033945
v -0.266158 1.371162 3.479971
v -0.368202 1.110947 3.472809
v -0.307549 0.815487 3.530101
v -0.236256 1.649142 -0.597215
v -0.147522 0.732744 -0.954438
v -0.333883 1.816490 0.122016
v -0.093412 1.076220 3.858374
v -0.152691 0.914510 3.830322
v -0.131501 0.854975 3.770266
v -0.088822 1.029449 3.881586
v -0.495723 1.297835 3.157377
v -0.386296 0.804300 3.408303
v -0.211912 0.215073 -0.285196
v -0.433087 1.431079 3.130076
v -0.346624 1.712373 0.492116
v -0.159467 0.204900 0.796483
v -0.280106 1.792607 -0.348488
v -0.236046 0.515221 -0.867494
v -0.216826 0.839058 3.613749
v -0.237940 1.012439 3.651318
v -0.201680 1.179474 3.586158
v -0.099426 0.824415 3.714699
v -0.092462 1.121004 3.761776
v -0.169134 0.840228 3.701926
v -0.188415 0.963975 3.739882
v -0.160283 1.100931 3.737407
v -0.631847 1.362498 1.047572
v -0.657764 0.792311 1.107460
v -0.537908 0.537585 2.020336
v -0.717812 1.465599 1.282618
v -0.779256 0.821288 1.802996
v -0.821193 0.748066 2.373738
v -0.697424 1.513453 1.466612
v -0.837234 0.982559 1.808894
v -0.906037 0.871459 2.475300
v -0.690016 1.352928 1.611231
v -0.837164 1.164703 1.779913
v -0.897942 0.974761 2.459138
v -0.319477 0.529880 2.642825
v -0.381037 0.449219 2.566833
v -0.792434 0.715670 2.863690
v -0.674085 0.791080 2.901928
v -0.783568 0.601686 2.801518
v -0.388057 0.678545 2.809226
v -0.722016 0.516455 2.721990
v -0.507357 0.391730 2.532111
v -0.446513 0.749283 2.857739
v -0.522449 0.775024 2.833051
v -0.739984 0.553087 3.017111
v -0.625967 0.647823 3.060849
v -0.286873 0.088275 3.169091
v -0.745567 0.461966 2.966203
v -0.368807 0.564413 2.967005
v -0.208115 0.178439 3.217197
v -0.692597 0.394401 2.910661
v -0.518468 0.328696 2.814968
v -0.419018 0.647124 3.030987
v -0.489273 0.683785 3.059903
v -0.275556 0.324933 3.007571
v -0.345733 0.241897 2.963268
v -0.697467 0.376709 3.129503
v -0.570211 0.476508 3.170478
v -0.678850 0.304650 3.086165
v -0.309392 0.415934 3.084669
v -0.630721 0.242695 3.036323
v -0.483489 0.177065 2.948869
v -0.356772 0.490839 3.142582
v -0.424775 0.521861 3.169402
v -0.690183 0.203661 3.358456
v -0.523133 0.322481 3.406772
v -0.506370 0.221833 3.327528
v -0.650745 0.144809 3.306274
v -0.243167 0.274537 3.301173
v -0.452448 0.152857 3.264634
v -0.601524 0.081471 3.249658
v -0.439375 0.015859 3.153952
v -0.294232 0.349196 3.366592
v -0.339009 0.388217 3.406277
v -0.241181 0.256730 3.108875
v -0.326060 0.425733 3.250263
v -0.275572 0.350888 3.189000
v -0.620767 0.165054 3.138727
v -0.669450 0.228890 3.191639
v -0.702297 0.330453 3.195765
v -0.563772 0.436632 3.242630
v -0.464409 0.099376 3.047901
v -0.317049 0.169119 3.062879
v -0.404999 0.487362 3.237863
v -0.597923 0.476757 3.398052
v -0.577364 0.411702 3.493937
v -0.717374 0.306052 3.448532
v -0.420160 0.463461 3.490420
v -0.733003 0.374609 3.353288
v -0.445811 0.526378 3.393830
v -0.755657 1.518658 -0.275701
v -0.757556 0.950719 -0.414757
v -0.632101 0.606408 -0.956818
v -0.701324 1.580950 -0.501038
v -0.750511 1.257838 -0.803850
v -0.656875 0.849506 -1.057913
v -0.652519 1.586873 -0.717044
v -0.698227 1.389697 -0.959614
v -0.570408 1.106748 -1.121602
v -0.242142 0.706964 -2.172293
v -0.296728 1.027088 -1.390151
v -0.467693 0.484410 -1.140164
v -0.266473 0.526008 -1.138685
v -0.180761 0.755026 -1.247468
v -0.190691 0.980967 -1.352205
v -0.598484 0.773643 -1.315499
v -0.519215 0.996156 -1.416393
v -0.585871 0.556765 -1.199578
v -0.290215 0.917301 -1.521055
v -0.381324 0.399939 -1.648073
v -0.205079 0.461272 -1.607963
v -0.160805 0.685790 -1.521132
v -0.190522 0.877343 -1.503300
v -0.540909 0.676706 -1.585472
v -0.491145 0.885022 -1.554604
v -0.499190 0.465883 -1.645869
v -0.187215 0.940738 -2.127579
v -0.305736 0.487714 -2.199455
v -0.051821 0.536677 -2.164694
v -0.039492 0.730368 -2.140812
v -0.074644 0.905906 -2.115509
v -0.462995 0.726234 -2.209085
v -0.409458 0.914240 -2.171299
v -0.468727 0.546994 -2.226366
v -0.500101 0.530109 -2.006073
v -0.073485 0.709936 -1.917374
v -0.108359 0.884655 -1.893703
v -0.083413 0.520539 -1.943109
v -0.336243 0.473104 -1.983648
v -0.221019 0.919260 -1.905309
v -0.443287 0.892539 -1.948924
v -0.440675 0.412079 -2.114478
v -0.427557 0.407251 -2.226180
v -0.300051 0.349419 -2.206478
v -0.100831 0.398751 -2.181056
v -0.113713 0.402907 -2.070741
v -0.313640 0.355137 -2.092078
v -0.499093 0.689685 -1.764263
v -0.144474 0.693205 -1.705435
v -0.357051 0.462997 -1.781171
v -0.464928 0.518026 -1.791295
v -0.175375 0.851218 -1.674089
v -0.191381 0.511642 -1.752015
v -0.269799 0.882470 -1.683279
v -0.455957 0.857981 -1.720746
v -0.072270 1.174607 -1.000624
v -0.074408 1.382564 -0.933688
v -0.094220 1.173953 -0.951922
v -0.086998 1.468116 -0.881165
v -0.388620 1.523133 2.915157
v -0.494371 1.138424 3.084195
v -0.373703 1.466411 3.254560
v -0.499574 1.185779 3.283179
v -0.462643 1.483011 3.062114
v -0.540015 1.474362 3.084917
v -0.503106 1.495988 3.075750
v -0.567707 1.437350 3.089779
v -0.567106 1.346736 3.094133
v -0.580588 1.393346 3.093341
v -0.544450 1.452395 3.132520
v -0.485636 1.463506 3.130473
v -0.516137 1.468808 3.131168
v -0.557167 1.375519 3.141404
v -0.557272 1.436809 3.133376
v -0.567416 1.406698 3.136422
v -0.402890 1.440454 3.128413
v -0.490695 1.253588 3.164001
v -0.520709 1.493095 3.127683
v -0.559938 1.470400 3.130097
v -0.477313 1.485677 3.127135
v -0.578166 1.448305 3.131973
v -0.592126 1.406929 3.136718
v -0.578277 1.364671 3.143278
v -0.414159 1.416207 3.132811
v -0.480549 1.275109 3.159899
v -0.443465 1.411070 3.122744
v -0.488595 1.315072 3.142449
v -0.503366 1.438324 3.123536
v -0.523784 1.426517 3.124517
v -0.481354 1.434509 3.123034
v -0.533022 1.415315 3.125141
v -0.540324 1.393657 3.127347
v -0.532911 1.371250 3.130955
v -0.429757 1.400489 3.124734
v -0.477633 1.298659 3.144258
v -0.083258 1.082960 3.844741
v -0.080653 1.004759 3.885436
v -0.124564 1.076026 3.818055
v -0.120695 0.997873 3.859644
v -0.054878 1.036021 3.901539
v 0.263853 1.143121 3.484229
v 0.279673 1.211610 3.471398
v 0.242665 1.157969 3.523792
v 0.204804 1.120696 3.537993
v 0.218413 1.151301 3.494376
v 0.264685 1.207489 3.453218
v 0.230401 1.231515 3.517233
v 0.184129 1.175327 3.558391
v 0.169141 1.171206 3.540211
v 0.206149 1.224848 3.487817
v 0.244010 1.262121 3.473615
v 0.184961 1.239696 3.527380
v 0.258325 1.143370 3.503695
v 0.280077 1.174900 3.472899
v 0.267623 1.183628 3.496153
v 0.280566 1.212735 3.454671
v 0.271267 1.172477 3.462213
v 0.236070 1.121461 3.512043
v 0.223616 1.130189 3.535297
v 0.244070 1.139451 3.486405
v 0.209362 1.126270 3.518008
v 0.244559 1.177286 3.468177
v 0.268414 1.244847 3.466660
v 0.259604 1.242425 3.455974
v 0.238662 1.195327 3.523094
v 0.260415 1.226857 3.492298
v 0.189210 1.140392 3.555634
v 0.211464 1.162301 3.547287
v 0.188399 1.155959 3.519310
v 0.180400 1.137970 3.544949
v 0.237350 1.220516 3.464322
v 0.210152 1.187489 3.488513
v 0.239452 1.256547 3.493601
v 0.204255 1.205530 3.543432
v 0.168248 1.170082 3.556938
v 0.181191 1.199189 3.515455
v 0.225198 1.252627 3.476311
v 0.204744 1.243366 3.525203
v 0.212744 1.261355 3.499566
v 0.177547 1.210339 3.549395
v 0.168737 1.207917 3.538710
v 0.190490 1.239446 3.507913
v -0.319182 1.150607 3.490981
v -0.333532 1.219484 3.478500
v -0.296710 1.164895 3.530039
v -0.259499 1.126658 3.543371
v -0.273325 1.157616 3.500071
v -0.319079 1.214985 3.459978
v -0.282716 1.238104 3.523176
v -0.236962 1.180734 3.563268
v -0.222510 1.176235 3.544748
v -0.259331 1.230825 3.493208
v -0.296542 1.269062 3.479876
v -0.236859 1.245113 3.532265
v -0.313200 1.150709 3.510314
v -0.334843 1.182796 3.480021
v -0.321634 1.191194 3.502978
v -0.334782 1.220636 3.461798
v -0.326348 1.180151 3.469135
v -0.291328 1.128234 3.518152
v -0.278119 1.136632 3.541109
v -0.299455 1.146430 3.492700
v -0.264374 1.132353 3.523494
v -0.299394 1.184271 3.474477
v -0.321536 1.252422 3.473493
v -0.313041 1.249778 3.462606
v -0.291766 1.202138 3.529238
v -0.313409 1.234225 3.498944
v -0.243000 1.145942 3.560640
v -0.264872 1.168417 3.552804
v -0.242632 1.161494 3.524302
v -0.234506 1.143297 3.549754
v -0.291169 1.227303 3.470443
v -0.264275 1.193581 3.494009
v -0.291667 1.263366 3.499753
v -0.256647 1.211448 3.548770
v -0.221259 1.175083 3.561449
v -0.234407 1.204525 3.520268
v -0.277922 1.259088 3.482138
v -0.256586 1.249290 3.530547
v -0.264713 1.267486 3.505096
v -0.229693 1.215568 3.554112
v -0.221198 1.212924 3.543226
v -0.242841 1.245011 3.512932
vn -0.8658 -0.4136 -0.2815
vn 0.4097 0.8381 -0.3603
vn 0.9847 -0.1509 -0.0867
vn 0.9839 0.1568 0.0860
vn 0.9589 0.1947 0.2064
vn 0.9819 -0.1661 0.0911
vn 0.9849 -0.1337 0.1103
vn -0.1866 -0.9321 0.3104
vn 0.1466 -0.9018 -0.4065
vn 0.0600 -0.9981 0.0103
vn 0.0661 0.9940 -0.0877
vn 0.0600 0.9848 0.1631
vn 0.0745 0.9430 -0.3244
vn 0.0681 0.4771 -0.8762
vn -0.0401 -0.5826 -0.8117
vn 0.5106 -0.0800 0.8561
vn 0.0594 0.5132 -0.8562
vn -0.2997 0.4364 -0.8484
vn 0.0988 0.7446 -0.6601
vn 0.1940 -0.4114 -0.8906
vn 0.8370 0.5464 -0.0295
vn 0.9274 -0.3635 -0.0886
vn 0.0147 0.9941 0.1077
vn 0.9709 0.2345 0.0475
vn 0.2646 -0.9292 -0.2579
vn 0.0446 0.9982 0.0397
vn -0.0143 0.9883 -0.1518
vn -0.8003 -0.5919 -0.0954
vn 0.7852 0.1193 -0.6076
vn 0.0859 0.9500 0.3002
vn 0.7953 0.5999 -0.0877
vn 0.7971 -0.5725 -0.1921
vn 0.0079 0.8811 -0.4729
vn -0.8927 0.4059 0.1958
vn -0.4686 -0.3158 0.8250
vn 0.1004 -0.9288 0.3568
vn 0.0278 -0.8875 -0.4599
vn 0.1315 -0.9908 0.0332
vn -0.2169 0.9093 0.3552
vn 0.8197 0.4605 -0.3406
vn 0.3749 0.9256 -0.0523
vn 0.9417 -0.2292 0.2464
vn 0.4742 -0.8759 0.0891
vn 0.2835 0.9517 0.1176
vn 0.1178 0.9911 0.0616
vn 0.0275 0.8958 -0.4435
vn 0.6909 0.2368 0.6830
vn 0.5025 -0.8443 0.1860
vn 0.7424 0.2874 -0.6052
vn -0.0295 0.1692 -0.9851
vn 0.9796 0.1983 0.0313
vn 0.9662 0.2387 -0.0971
vn 0.1401 0.9886 0.0551
vn -0.8394 0.0796 0.5377
vn 0.9400 0.2500 0.2321
vn 0.2489 0.9612 0.1189
vn 0.2031 0.9791 0.0121
vn 0.9779 0.1992 -0.0642
vn 0.2139 0.9578 -0.1921
vn 0.0595 0.9763 0.2080
vn 0.1782 -0.9738 0.1413
vn 0.9740 -0.2021 0.1027
vn 0.1946 0.9397 0.2812
vn 0.0790 0.9920 0.0984
vn 0.0101 0.8988 0.4383
vn -0.0996 0.7712 -0.6288
vn 0.8437 -0.0879 0.5296
vn 0.2025 -0.9549 0.2173
vn 0.4784 -0.8118 0.3349
vn 0.1638 -0.9813 0.1012
vn 0.9416 -0.3001 -0.1527
vn 0.6187 -0.5776 -0.5325
vn 0.8704 -0.3880 0.3031
vn 0.3242 -0.9015 0.2868
vn 0.4055 -0.8885 0.2148
vn 0.2510 0.9468 0.2014
vn 0.3252 0.9436 0.0625
vn 0.7679 0.3214 0.5541
vn 0.4379 0.8533 0.2832
vn 0.1550 -0.9767 0.1481
vn 0.1845 -0.7180 0.6712
vn 0.8909 0.1642 0.4236
vn 0.3213 0.9440 0.0748
vn 0.3945 0.7845 0.4784
vn 0.1114 -0.9760 0.1872
vn 0.4295 0.8031 0.4130
vn 0.1477 -0.9851 0.0884
vn 0.5478 0.3268 0.7701
vn 0.1368 -0.9815 0.1343
vn 0.3912 -0.7165 0.5776
vn -0.2946 -0.0102 0.9556
vn 0.0072 0.9156 0.4021
vn 0.1677 -0.9817 0.0906
vn 0.9690 -0.2303 0.0897
vn 0.0403 -0.1699 0.9846
vn 0.0550 0.9431 0.3281
vn 0.6421 0.2827 0.7126
vn 0.1329 -0.9843 0.1158
vn -0.1187 0.4330 0.8935
vn 0.4500 0.8625 0.2313
vn 0.3468 0.3306 0.8778
vn 0.0391 -0.9174 0.3959
vn 0.3268 -0.7855 0.5255
vn 0.7863 -0.1291 0.6042
vn 0.4183 0.7650 0.4896
vn 0.1371 -0.9853 0.1019
vn 0.8559 0.2597 0.4473
vn 0.0001 0.8606 0.5092
vn 0.2124 -0.9688 0.1275
vn 0.8812 -0.2492 0.4018
vn 0.8163 -0.5673 -0.1084
vn 0.9646 0.1758 -0.1964
vn 0.9711 0.1355 -0.1967
vn 0.8553 0.5180 0.0083
vn 0.9608 -0.2456 -0.1287
vn 0.9807 0.1784 -0.0800
vn 0.7663 0.6299 0.1264
vn 0.8849 0.3837 0.2640
vn -0.7295 0.6838 0.0169
vn -0.3659 0.8615 0.3520
vn -0.2803 -0.9405 -0.1919
vn 0.9812 0.0523 0.1855
vn -0.9876 0.1192 0.1025
vn -0.9298 0.3234 0.1756
vn 0.9280 -0.3276 -0.1775
vn 0.4867 0.5682 0.6636
vn 0.9571 0.1019 0.2711
vn -0.2421 0.9592 -0.1461
vn -0.0132 -0.9781 -0.2078
vn -0.9838 0.1389 0.1132
vn 0.9795 -0.0233 0.2000
vn -0.9791 0.1998 -0.0372
vn -0.9481 0.2963 0.1156
vn 0.9170 -0.3560 -0.1796
vn 0.4691 0.4221 0.7757
vn 0.6658 -0.5318 -0.5233
vn -0.5164 0.7812 0.3508
vn -0.2116 0.8357 0.5067
vn -0.7264 -0.6787 -0.1082
vn 0.7018 -0.6593 -0.2699
vn -0.2589 -0.7324 -0.6298
vn 0.9677 -0.1981 -0.1558
vn -0.9788 0.2016 -0.0362
vn -0.9316 0.3538 0.0835
vn 0.9235 -0.3281 -0.1988
vn 0.9943 -0.0812 -0.0685
vn -0.2386 -0.6229 -0.7451
vn -0.6366 0.5178 0.5716
vn 0.0434 0.5234 0.8510
vn -0.6985 -0.3839 -0.6039
vn -0.1207 -0.6257 0.7707
vn -0.1015 -0.6077 0.7876
vn -0.1073 -0.5959 0.7959
vn -0.1176 -0.6295 0.7681
vn -0.1173 -0.6071 0.7859
vn -0.1037 -0.5965 0.7959
vn -0.7590 0.6129 0.2199
vn -0.8743 0.4761 0.0943
vn -0.6810 -0.5113 -0.5243
vn 0.6652 -0.6113 -0.4287
vn 0.6765 -0.5878 -0.4436
vn -0.6864 -0.5072 -0.5212
vn 0.1063 0.8646 0.4911
vn -0.6578 0.6953 0.2895
vn 0.5177 0.7459 0.4191
vn 0.9216 -0.3034 -0.2419
vn -0.9295 0.3661 0.0441
vn -0.9712 0.2285 -0.0674
vn 0.9875 -0.0816 -0.1351
vn -0.2607 -0.7415 -0.6182
vn 0.5032 0.6796 0.5337
vn 0.1015 0.8090 0.5790
vn 0.3680 0.8749 -0.3148
vn -0.1208 -0.6402 0.7586
vn 0.1508 0.9422 -0.2994
vn -0.1250 -0.6401 0.7581
vn 0.9883 0.0912 0.1226
vn 0.9383 0.0325 -0.3442
vn 0.9892 -0.1409 0.0408
vn 0.9396 0.3421 0.0140
vn 0.5898 -0.7151 0.3752
vn 0.5343 0.8453 -0.0045
vn 0.9886 -0.1505 0.0081
vn 0.2086 0.9705 -0.1209
vn -0.9623 -0.2715 -0.0161
vn -0.3499 0.7165 -0.6035
vn -0.2621 -0.9552 0.1378
vn 0.9903 -0.1385 0.0141
vn 0.0628 0.9541 -0.2930
vn -0.5629 0.7935 -0.2313
vn -0.9662 0.0340 -0.2554
vn -0.0684 -0.9966 0.0449
vn -0.3041 0.9490 0.0827
vn -0.9325 -0.3574 -0.0517
vn 0.9984 0.0461 0.0323
vn -0.9862 0.1651 -0.0082
vn 0.5023 -0.8511 0.1529
vn 0.1310 0.7716 -0.6225
vn 0.9620 0.2323 -0.1435
vn -0.9821 0.0899 -0.1657
vn -0.0055 0.0777 -0.9970
vn 0.0459 0.0983 -0.9941
vn 0.0307 0.1600 -0.9866
vn -0.0030 0.1450 -0.9894
vn -0.9960 -0.0817 -0.0350
vn 0.9524 -0.3036 0.0290
vn 0.1117 0.9890 0.0972
vn 0.9526 0.2999 0.0511
vn 0.9488 0.2691 0.1655
vn 0.1176 0.9804 0.1583
vn 0.3835 -0.9230 0.0306
vn -0.9501 -0.2185 0.2228
vn -0.9809 0.1274 0.1472
vn 0.9661 -0.0923 0.2412
vn -0.2146 -0.9766 -0.0133
vn -0.3155 0.9337 0.1691
vn -0.2306 -0.9726 0.0292
vn 0.4107 -0.9094 0.0662
vn -0.1701 -0.7084 0.6850
vn 0.0568 0.0653 -0.9962
vn 0.2585 -0.6933 0.6727
vn -0.0058 0.0538 -0.9985
vn -0.3349 0.9225 -0.1919
vn -0.2822 -0.8855 -0.3693
vn 0.9887 -0.1265 -0.0805
vn -0.9837 0.1533 -0.0941
vn -0.9631 -0.2398 -0.1223
vn 0.4890 -0.8028 -0.3412
vn 0.1333 0.9745 -0.1804
vn 0.9584 0.2804 -0.0537
vn 0.3314 0.3185 -0.8881
vn 0.4164 -0.7935 -0.4438
vn 0.3541 0.4472 -0.8214
vn 0.2243 0.6446 -0.7309
vn 0.2340 -0.0300 -0.9718
vn 0.2782 0.3085 -0.9096
vn 0.9570 0.2728 -0.0984
vn 0.9331 0.3563 0.0488
vn 0.9960 0.0539 -0.0712
vn 0.9008 0.4139 0.1314
vn -0.5818 0.8128 0.0299
vn 0.7659 0.5544 -0.3257
vn 0.8105 -0.5781 0.0944
vn 0.5206 0.8413 -0.1453
vn -0.2308 0.9692 0.0854
vn 0.9109 0.2520 -0.3268
vn 0.9408 -0.3048 -0.1481
vn 0.2458 -0.0610 -0.9674
vn -0.0551 0.1495 0.9872
vn 0.0410 0.1278 0.9910
vn -0.0198 0.1418 0.9897
vn 0.0170 0.1047 0.9944
vn 0.0099 0.1554 0.9878
vn 0.0483 0.0931 0.9945
vn -0.0365 0.0967 0.9946
vn 0.0554 0.1559 0.9862
vn 0.0079 0.1414 0.9899
vn 0.0158 0.1886 0.9819
vn 0.1735 -0.2680 0.9477
vn -0.0216 0.1681 0.9855
vn 0.3035 -0.1969 0.9323
vn -0.4007 0.4806 0.7801
vn -0.4037 0.2742 0.8729
vn -0.1332 -0.1799 0.9746
vn 0.7324 0.4292 0.5286
vn -0.1991 -0.1256 0.9719
vn -0.5027 0.4179 0.7567
vn 0.0374 -0.2515 0.9671
vn 0.3337 0.9160 0.2225
vn 0.5388 -0.0527 0.8408
vn 0.5330 -0.1202 0.8375
vn -0.0131 0.4407 0.8976
vn 0.0250 -0.4262 0.9043
vn -0.0211 0.9998 -0.0039
vn 0.7627 0.2491 0.5968
vn 0.9042 -0.4080 -0.1259
vn -0.3611 0.8429 -0.3989
vn -0.9406 -0.3000 -0.1590
vn -0.9906 0.1090 -0.0827
vn -0.9884 0.0267 0.1496
vn -0.9473 -0.3126 0.0700
vn -0.9592 -0.2586 0.1140
vn 0.2690 -0.9148 0.3012
vn -0.0538 -0.9020 -0.4284
vn 0.0208 -0.9996 -0.0205
vn -0.0933 0.9920 -0.0847
vn -0.2697 0.9417 0.2010
vn -0.0203 0.9425 -0.3336
vn 0.0928 0.4939 -0.8645
vn 0.1847 -0.5819 -0.7920
vn -0.6713 -0.0732 0.7376
vn 0.1335 0.5451 -0.8277
vn 0.5130 0.4981 -0.6991
vn 0.0362 0.7545 -0.6553
vn -0.0375 -0.4129 -0.9100
vn -0.9154 0.4004 -0.0408
vn -0.8532 -0.5118 -0.1001
vn -0.2770 0.9562 0.0942
vn -0.9948 0.0312 0.0966
vn -0.1120 -0.9613 -0.2515
vn -0.2081 0.9774 0.0374
vn -0.1574 0.9741 -0.1621
vn 0.8933 -0.4429 -0.0768
vn -0.8093 -0.0127 -0.5872
vn -0.2389 0.9252 0.2950
vn -0.8824 0.4601 -0.0985
vn -0.6888 -0.6963 -0.2017
vn 0.0411 0.8711 -0.4894
vn 0.8281 0.5260 0.1937
vn 0.6776 0.0603 0.7330
vn 0.0416 -0.9343 0.3541
vn 0.0762 -0.8825 -0.4641
vn -0.0319 -0.9992 0.0233
vn 0.0588 0.9323 0.3570
vn -0.8850 0.3022 -0.3541
vn -0.3909 0.9174 -0.0740
vn -0.9336 -0.3168 0.1671
vn -0.3848 -0.9195 0.0800
vn -0.4206 0.8717 0.2515
vn -0.2512 0.9672 0.0391
vn -0.0151 0.8942 -0.4475
vn -0.7434 0.1392 0.6542
vn -0.5219 -0.8476 0.0960
vn -0.9037 0.1217 -0.4104
vn 0.2218 0.2205 -0.9498
vn -0.9922 0.1237 0.0131
vn -0.9360 0.2327 -0.2642
vn -0.2463 0.9683 0.0425
vn 0.7778 0.4677 0.4200
vn -0.9781 0.1288 0.1637
vn -0.4582 0.8851 0.0812
vn -0.3629 0.9318 0.0074
vn -0.9822 0.1850 -0.0325
vn -0.3738 0.9012 -0.2194
vn -0.0919 0.9767 0.1939
vn -0.1728 -0.9734 0.1502
vn -0.9731 -0.2248 0.0514
vn -0.3510 0.8964 0.2708
vn -0.1535 0.9837 0.0936
vn 0.0177 0.8996 0.4363
vn -0.0213 0.7776 -0.6284
vn -0.8334 -0.0663 0.5487
vn -0.2219 -0.9494 0.2222
vn -0.3750 -0.8804 0.2902
vn -0.1843 -0.9768 0.1093
vn -0.9449 -0.2888 -0.1543
vn -0.5155 -0.6170 -0.5946
vn -0.8728 -0.3656 0.3233
vn -0.3406 -0.8929 0.2945
vn -0.3299 -0.9264 0.1817
vn -0.3951 0.9064 0.1496
vn -0.4270 0.9039 0.0266
vn -0.7490 0.3382 0.5698
vn -0.4620 0.8449 0.2695
vn -0.1600 -0.9766 0.1438
vn -0.1873 -0.7132 0.6755
vn -0.8763 0.1869 0.4440
vn -0.3863 0.9203 0.0610
vn -0.3684 0.7935 0.4844
vn -0.1320 -0.9729 0.1900
vn -0.3991 0.8137 0.4226
vn -0.1709 -0.9810 0.0921
vn -0.5213 0.3405 0.7825
vn -0.1588 -0.9777 0.1377
vn -0.3960 -0.7063 0.5867
vn 0.3138 -0.0094 0.9495
vn 0.0256 0.9153 0.4019
vn -0.1906 -0.9770 0.0952
vn -0.9720 -0.2073 0.1104
vn -0.0218 -0.1691 0.9854
vn -0.0437 0.9450 0.3242
vn -0.6180 0.2988 0.7272
vn -0.1554 -0.9806 0.1192
vn 0.1504 0.4296 0.8904
vn -0.4442 0.8659 0.2300
vn -0.3180 0.3392 0.8854
vn -0.0534 -0.9163 0.3970
vn -0.3347 -0.7770 0.5332
vn -0.7752 -0.1090 0.6223
vn -0.3871 0.7754 0.4989
vn -0.1599 -0.9815 0.1053
vn -0.8383 0.2815 0.4669
vn 0.0338 0.8602 0.5088
vn -0.2342 -0.9631 0.1327
vn -0.8777 -0.2266 0.4222
vn -0.7109 -0.6936 -0.1160
vn -0.9778 0.0140 -0.2090
vn -0.9765 -0.0316 -0.2132
vn -0.9307 0.3656 -0.0082
vn -0.9052 -0.4010 -0.1408
vn -0.9956 0.0138 -0.0928
vn -0.8618 0.4932 0.1185
vn -0.9381 0.2335 0.2556
vn 0.6070 0.7943 0.0250
vn 0.2138 0.9098 0.3558
vn 0.4345 -0.8810 -0.1873
vn -0.9787 -0.1110 0.1728
vn 0.9528 0.2808 0.1151
vn 0.8612 0.4726 0.1872
vn -0.8587 -0.4764 -0.1891
vn -0.5825 0.4791 0.6567
vn -0.9642 -0.0582 0.2587
vn 0.0836 0.9861 -0.1437
vn 0.1667 -0.9647 -0.2038
vn 0.9448 0.3020 0.1269
vn -0.9646 -0.1853 0.1874
vn 0.9330 0.3591 -0.0248
vn 0.8844 0.4490 0.1275
vn -0.8431 -0.5027 -0.1910
vn -0.5425 0.3378 0.7692
vn -0.5619 -0.6340 -0.5313
vn 0.3755 0.8555 0.3566
vn 0.0639 0.8587 0.5085
vn 0.8300 -0.5490 -0.0981
vn -0.5795 -0.7660 -0.2782
vn 0.3846 -0.6787 -0.6256
vn -0.9195 -0.3554 -0.1680
vn 0.9323 0.3608 -0.0238
vn 0.8591 0.5030 0.0951
vn -0.8538 -0.4762 -0.2103
vn -0.9662 -0.2445 -0.0812
vn 0.3480 -0.5740 -0.7413
vn 0.5347 0.6154 0.5791
vn -0.1404 0.5081 0.8498
vn 0.7601 -0.2624 -0.5945
vn 0.2127 -0.5979 0.7728
vn 0.1905 -0.5834 0.7895
vn 0.1942 -0.5708 0.7978
vn 0.2102 -0.6022 0.7702
vn 0.2060 -0.5802 0.7880
vn 0.1907 -0.5719 0.7978
vn 0.6442 0.7298 0.2290
vn 0.7822 0.6141 0.1051
vn 0.7629 -0.3910 -0.5149
vn -0.5494 -0.7125 -0.4366
vn -0.5642 -0.6912 -0.4517
vn 0.7675 -0.3860 -0.5118
vn -0.2542 0.8345 0.4888
vn 0.5299 0.7942 0.2972
vn -0.6394 0.6495 0.4116
vn -0.8556 -0.4514 -0.2535
vn 0.8555 0.5148 0.0556
vn 0.9208 0.3861 -0.0552
vn -0.9585 -0.2438 -0.1477
vn 0.3878 -0.6875 -0.6140
vn -0.6156 0.5864 0.5265
vn -0.2414 0.7804 0.5768
vn -0.5036 0.8023 -0.3204
vn 0.2153 -0.6122 0.7608
vn -0.3007 0.9045 -0.3023
vn 0.2194 -0.6114 0.7603
vn -0.9954 0.0819 -0.0502
vn -0.8645 0.0252 -0.5020
vn -0.9804 -0.1476 -0.1302
vn -0.9387 0.3160 -0.1381
vn -0.6663 -0.7070 0.2372
vn -0.5396 0.8367 -0.0937
vn -0.9739 -0.1567 -0.1643
vn -0.2017 0.9679 -0.1499
vn 0.9520 -0.2655 0.1521
vn 0.4453 0.7190 -0.5336
vn 0.2400 -0.9536 0.1819
vn -0.9767 -0.1447 -0.1588
vn -0.0167 0.9538 -0.3000
vn 0.5933 0.7948 -0.1274
vn 0.9958 0.0466 -0.0790
vn 0.0658 -0.9962 0.0567
vn 0.2791 0.9509 0.1339
vn 0.9295 -0.3515 0.1119
vn -0.9890 0.0398 -0.1423
vn 0.9715 0.1713 0.1638
vn -0.5159 -0.8543 0.0634
vn -0.0253 0.7711 -0.6362
vn -0.9237 0.2264 -0.3092
vn 0.9953 0.0962 0.0080
vn 0.1788 0.0783 -0.9808
vn 0.1276 0.0985 -0.9869
vn 0.1408 0.1603 -0.9770
vn 0.1746 0.1456 -0.9738
vn 0.9874 -0.0754 0.1393
vn -0.9409 -0.3095 -0.1373
vn -0.1332 0.9882 0.0757
vn -0.9488 0.2939 -0.1160
vn -0.9648 0.2631 -0.0026
vn -0.1496 0.9795 0.1348
vn -0.3772 -0.9254 -0.0362
vn 0.8980 -0.2127 0.3852
vn 0.9394 0.1335 0.3159
vn -0.9927 -0.0985 0.0691
vn 0.2198 -0.9752 0.0248
vn 0.2754 0.9356 0.2210
vn 0.2281 -0.9711 0.0695
vn -0.4102 -0.9120 -0.0059
vn 0.0525 -0.7077 0.7046
vn 0.1174 0.0655 -0.9909
vn -0.3675 -0.6953 0.6177
vn 0.1795 0.0544 -0.9822
vn 0.3574 0.9247 -0.1311
vn 0.3478 -0.8835 -0.3139
vn -0.9587 -0.1327 -0.2516
vn 0.9840 0.1596 0.0788
vn 0.9711 -0.2337 0.0477
vn -0.4170 -0.8056 -0.4208
vn -0.1059 0.9738 -0.2014
vn -0.9361 0.2744 -0.2202
vn -0.3339 0.2860 -0.8982
vn -0.4371 -0.8208 -0.3677
vn -0.3474 0.4467 -0.8245
vn -0.2197 0.6455 -0.7314
vn -0.1962 -0.0831 -0.9770
vn -0.2711 0.2872 -0.9187
vn -0.9568 0.2861 -0.0514
vn -0.9319 0.3549 0.0752
vn -0.9964 0.0674 -0.0514
vn -0.8920 0.4278 0.1463
vn 0.5857 0.8105 -0.0076
vn -0.7673 0.5605 -0.3117
vn -0.8091 -0.5760 0.1169
vn -0.5139 0.8466 -0.1388
vn 0.2469 0.9665 0.0700
vn -0.9154 0.2577 -0.3092
vn -0.9447 -0.3012 -0.1293
vn -0.2693 -0.0627 -0.9610
vn 0.0688 0.1554 0.9855
vn -0.0195 0.1292 0.9914
vn 0.0411 0.1419 0.9890
vn 0.0034 0.1072 0.9942
vn 0.0100 0.1585 0.9873
vn -0.0277 0.0950 0.9951
vn 0.0512 0.0950 0.9942
vn -0.0366 0.1628 0.9860
vn 0.0131 0.1472 0.9890
vn -0.0014 0.1791 0.9838
vn -0.1577 -0.2669 0.9507
vn 0.0409 0.1758 0.9836
vn -0.2879 -0.1951 0.9376
vn 0.4182 0.4877 0.7664
vn 0.4217 0.2774 0.8632
vn 0.1509 -0.1801 0.9720
vn -0.7223 0.4418 0.5321
vn 0.2175 -0.1256 0.9680
vn 0.5178 0.4278 0.7409
vn -0.0216 -0.2514 0.9677
vn -0.3048 0.9242 0.2299
vn -0.5203 -0.0391 0.8531
vn -0.5164 -0.1067 0.8497
vn 0.0452 0.4399 0.8969
vn -0.0150 -0.4257 0.9048
vn 0.0467 0.9989 -0.0046
vn -0.7421 0.2684 0.6142
vn 0.8946 -0.3645 0.2587
vn 0.9984 0.0132 0.0542
vn 0.7249 -0.6547 0.2143
vn 0.0929 -0.8284 -0.5523
vn 0.0243 -0.6037 -0.7968
vn 0.9415 0.3293 0.0724
vn 0.6973 0.0880 0.7114
vn 0.3481 -0.4574 0.8183
vn -0.6200 -0.4083 -0.6700
vn -0.4331 -0.1515 -0.8885
vn 0.8021 0.3415 0.4899
vn 0.6067 0.0798 0.7909
vn -0.3993 -0.7666 0.5029
vn -0.6403 -0.2631 -0.7216
vn -0.3682 0.0198 -0.9295
vn 0.4621 0.5147 0.7222
vn 0.2575 0.2856 0.9231
vn -0.9984 -0.0132 -0.0542
vn -0.7669 0.0574 -0.6392
vn -0.4441 0.7343 -0.5134
vn -0.7249 0.6547 -0.2143
vn -0.6824 0.4846 -0.5473
vn -0.6998 0.1953 -0.6871
vn -0.8946 0.3645 -0.2587
vn -0.8597 0.1049 -0.4998
vn -0.8856 -0.0287 -0.4635
vn -0.7100 0.5284 0.4655
vn -0.7703 0.2848 0.5705
vn -0.1599 0.2173 0.9629
vn -0.0243 0.6037 0.7968
vn 0.2688 0.4152 0.8691
vn 0.4318 0.3869 0.8147
vn -0.0929 0.8284 0.5523
vn 0.2702 0.7465 0.6081
vn 0.2351 0.9210 0.3105
vn -0.3481 0.4574 -0.8183
vn -0.4707 0.1467 -0.8700
vn -0.5932 0.0748 -0.8016
vn -0.6973 -0.0880 -0.7114
vn -0.7079 -0.1790 -0.6833
vn -0.7860 -0.1837 -0.5903
vn -0.9415 -0.3292 -0.0724
vn -0.6261 -0.4694 0.6226
vn -0.0621 -0.0875 0.9942
vn 0.4331 0.1515 0.8885
vn 0.5375 0.1634 0.8273
vn 0.5469 0.2540 0.7977
vn 0.6200 0.4083 0.6700
vn 0.6959 0.4674 0.5451
vn 0.6060 0.7197 0.3389
vn -0.6067 -0.0798 -0.7909
vn -0.5374 -0.1634 -0.8273
vn -0.5469 -0.2541 -0.7977
vn -0.8021 -0.3416 -0.4899
vn -0.6959 -0.4674 -0.5451
vn -0.6060 -0.7196 -0.3389
vn 0.3682 -0.0198 0.9295
vn 0.4707 -0.1467 0.8700
vn 0.5932 -0.0748 0.8016
vn 0.6404 0.2631 0.7216
vn 0.7079 0.1790 0.6833
vn 0.7860 0.1837 0.5903
vn 0.3993 0.7666 -0.5029
vn 0.6261 0.4694 -0.6226
vn 0.0621 0.0875 -0.9942
vn -0.2576 -0.2856 -0.9231
vn -0.2688 -0.4152 -0.8691
vn -0.4318 -0.3869 -0.8147
vn -0.4621 -0.5147 -0.7222
vn -0.2702 -0.7465 -0.6081
vn -0.2352 -0.9210 -0.3105
vn 0.4441 -0.7343 0.5134
vn 0.6824 -0.4846 0.5473
vn 0.6998 -0.1953 0.6871
vn 0.1599 -0.2173 -0.9629
vn 0.7703 -0.2848 -0.5705
vn 0.7100 -0.5284 -0.4655
vn 0.7669 -0.0574 0.6392
vn 0.8597 -0.1050 0.4998
vn 0.8856 0.0287 0.4635
vn -0.8974 -0.3414 0.2795
vn -0.9963 0.0388 0.0773
vn -0.7363 -0.6359 0.2312
vn -0.1269 -0.8256 -0.5498
vn -0.0582 -0.6026 -0.7959
vn -0.9308 0.3533 0.0941
vn -0.6781 0.1057 0.7273
vn -0.3407 -0.4485 0.8263
vn 0.5936 -0.4239 -0.6840
vn 0.4084 -0.1623 -0.8983
vn -0.7815 0.3619 0.5083
vn -0.5859 0.0951 0.8048
vn 0.3910 -0.7767 0.4938
vn 0.6165 -0.2792 -0.7362
vn 0.3469 0.0106 -0.9378
vn -0.4319 0.5262 0.7325
vn -0.2287 0.2918 0.9287
vn 0.9963 -0.0388 -0.0773
vn 0.7531 0.0379 -0.6568
vn 0.4508 0.7228 -0.5238
vn 0.7363 0.6359 -0.2312
vn 0.6817 0.4671 -0.5631
vn 0.6885 0.1774 -0.7032
vn 0.8974 0.3415 -0.2795
vn 0.8504 0.0830 -0.5196
vn 0.8736 -0.0513 -0.4839
vn 0.7339 0.5099 0.4488
vn 0.7904 0.2648 0.5524
vn 0.1877 0.2129 0.9589
vn 0.0583 0.6026 0.7959
vn -0.2379 0.4217 0.8750
vn -0.4028 0.3977 0.8244
vn 0.1269 0.8256 0.5498
vn -0.2368 0.7530 0.6140
vn -0.2042 0.9267 0.3156
vn 0.3407 0.4485 -0.8263
vn 0.4541 0.1348 -0.8807
vn 0.5762 0.0598 -0.8151
vn 0.6781 -0.1057 -0.7273
vn 0.6871 -0.1969 -0.6994
vn 0.7672 -0.2037 -0.6082
vn 0.9308 -0.3533 -0.0941
vn 0.6281 -0.4855 0.6081
vn 0.0828 -0.0894 0.9925
vn -0.4084 0.1623 0.8983
vn -0.5138 0.1769 0.8395
vn -0.5215 0.2678 0.8101
vn -0.5936 0.4239 0.6840
vn -0.6709 0.4850 0.5610
vn -0.5793 0.7349 0.3526
vn 0.5859 -0.0951 -0.8048
vn 0.5138 -0.1769 -0.8395
vn 0.5215 -0.2678 -0.8101
vn 0.7815 -0.3619 -0.5082
vn 0.6709 -0.4850 -0.5610
vn 0.5793 -0.7349 -0.3526
vn -0.3469 -0.0106 0.9378
vn -0.4541 -0.1348 0.8807
vn -0.5762 -0.0598 0.8151
vn -0.6165 0.2792 0.7362
vn -0.6871 0.1969 0.6994
vn -0.7672 0.2037 0.6082
vn -0.3910 0.7767 -0.4938
vn -0.6281 0.4855 -0.6081
vn -0.0829 0.0894 -0.9925
vn 0.2287 -0.2918 -0.9287
vn 0.2379 -0.4218 -0.8750
vn 0.4028 -0.3977 -0.8244
vn 0.4319 -0.5262 -0.7325
vn 0.2368 -0.7530 -0.6140
vn 0.2042 -0.9267 -0.3156
vn -0.4508 -0.7228 0.5238
vn -0.6817 -0.4670 0.5631
vn -0.6885 -0.1775 0.7032
vn -0.1877 -0.2129 -0.9589
vn -0.7904 -0.2648 -0.5525
vn -0.7339 -0.5099 -0.4488
vn -0.7531 -0.0379 0.6568
vn -0.8504 -0.0830 0.5196
vn -0.8736 0.0513 0.4839
vt 0.833374 0.494548
vt 0.893919 0.512741
vt 0.908415 0.468160
vt 0.848637 0.467455
vt 0.567859 0.867914
vt 0.639317 0.828812
vt 0.620915 0.894044
vt 0.556155 0.927906
vt 0.812683 0.509803
vt 0.774909 0.642712
vt 0.751394 0.643294
vt 0.751725 0.493743
vt 0.828812 0.793372
vt 0.751727 0.811870
vt 0.672932 0.807420
vt 0.672336 0.642732
vt 0.672998 0.503429
vt 0.598676 0.643182
vt 0.594201 0.530171
vt 0.560191 0.672195
vt 0.619753 0.672998
vt 0.599703 0.594201
vt 0.569702 0.558226
vt 0.580250 0.833374
vt 0.635423 0.812683
vt 0.637090 0.751725
vt 0.569078 0.759035
vt 0.500000 0.859251
vt 0.500000 0.750726
vt 0.569078 0.758996
vt 0.500000 0.657595
vt 0.560191 0.671923
vt 0.604420 0.951058
vt 0.545714 0.976119
vt 0.604420 0.548422
vt 0.626365 0.643481
vt 0.688416 0.643970
vt 0.666902 0.547256
vt 0.500000 0.917421
vt 0.563590 0.893919
vt 0.639317 0.793372
vt 0.659328 0.642712
vt 0.676970 0.643370
vt 0.671449 0.761101
vt 0.555994 0.632181
vt 0.545714 0.747180
vt 0.604420 0.735145
vt 0.572975 0.538591
vt 0.666902 0.715601
vt 0.500000 0.969030
vt 0.572975 0.947229
vt 0.501290 0.830086
vt 0.457158 0.830118
vt 0.460328 0.806630
vt 0.500288 0.803578
vt 0.499838 0.512886
vt 0.460007 0.507514
vt 0.481582 0.413128
vt 0.510774 0.417065
vt 0.500000 0.559830
vt 0.556447 0.575135
vt 0.579931 0.796381
vt 0.599703 0.530171
vt 0.637090 0.643182
vt 0.659115 0.643738
vt 0.643940 0.535244
vt 0.564556 0.492909
vt 0.500000 0.477524
vt 0.500000 0.432743
vt 0.566016 0.447361
vt 0.569702 0.518348
vt 0.616981 0.429733
vt 0.594994 0.421068
vt 0.612448 0.796381
vt 0.637526 0.771615
vt 0.500000 0.371229
vt 0.561082 0.382998
vt 0.450625 0.491920
vt 0.495971 0.498202
vt 0.507939 0.406303
vt 0.474705 0.401699
vt 0.591615 0.535244
vt 0.575831 0.433451
vt 0.407144 0.499901
vt 0.406490 0.640437
vt 0.358675 0.605643
vt 0.363238 0.556600
vt 0.578790 0.420824
vt 0.621227 0.407144
vt 0.601979 0.363238
vt 0.551080 0.357545
vt 0.500000 0.657756
vt 0.500000 0.571782
vt 0.667216 0.508652
vt 0.621227 0.499901
vt 0.632756 0.407548
vt 0.666461 0.413961
vt 0.556577 0.771615
vt 0.637090 0.751727
vt 0.260484 0.580516
vt 0.278839 0.520364
vt 0.582070 0.278839
vt 0.540875 0.268345
vt 0.619753 0.672932
vt 0.500000 0.307117
vt 0.551080 0.314473
vt 0.500000 0.983839
vt 0.393435 0.816867
vt 0.325561 0.763148
vt 0.671449 0.517077
vt 0.635423 0.509803
vt 0.642381 0.470278
vt 0.671266 0.470798
vt 0.988807 0.740196
vt 1.002924 0.661469
vt 1.015365 0.669173
vt 1.001496 0.721513
vt 0.500000 0.531683
vt 0.500000 0.631036
vt 0.249130 0.712570
vt 0.191059 0.679456
vt 0.198981 0.567653
vt 0.945839 0.547256
vt 0.886123 0.529161
vt 0.904522 0.470747
vt 0.963512 0.471464
vt 0.500000 0.238897
vt 0.540875 0.239236
vt 0.564556 0.495971
vt 0.612448 0.579931
vt 0.628268 0.501290
vt 0.631115 0.457158
vt 0.168698 0.648799
vt 0.177283 0.553376
vt 0.539817 0.181283
vt 0.500000 0.184290
vt 0.500000 0.144817
vt 0.539817 0.140934
vt 0.580006 0.205473
vt 0.539817 0.196322
vt 0.205473 0.476864
vt 0.621491 0.393435
vt 0.538703 0.608225
vt 0.500000 0.615960
vt 0.500000 0.567098
vt 0.526605 0.560962
vt 0.566016 0.450625
vt 0.149293 0.452102
vt 0.133162 0.541160
vt 0.103583 0.505809
vt 0.123733 0.441345
vt 0.539531 0.141037
vt 0.579447 0.149293
vt 0.562090 0.123733
vt 0.530633 0.116366
vt 0.500000 0.385014
vt 0.500000 0.353218
vt 0.586057 0.174337
vt 0.542919 0.165879
vt 0.174337 0.464471
vt 0.086614 0.427976
vt 0.065909 0.448336
vt 0.053210 0.428901
vt 0.071388 0.423606
vt 0.515797 0.085531
vt 0.531484 0.086614
vt 0.523242 0.071388
vt 0.510720 0.071544
vt 0.500000 0.266808
vt 0.601979 0.325561
vt 0.582070 0.249130
vt 0.108290 0.599988
vt 0.073849 0.556649
vt 0.580006 0.679456
vt 0.539817 0.690304
vt 0.539817 0.657159
vt 0.579599 0.648799
vt 0.500000 0.199929
vt 0.513331 0.045311
vt 0.500000 0.046647
vt 0.500000 0.069896
vt 0.051602 0.475706
vt 0.038205 0.462176
vt 0.038356 0.442272
vt 0.580006 0.191059
vt 0.577833 0.599988
vt 0.554232 0.556649
vt 0.500000 0.147087
vt 0.500000 0.124516
vt 0.530339 0.475706
vt 0.515210 0.477146
vt 0.513246 0.460736
vt 0.522445 0.462176
vt 0.500000 0.170521
vt 0.515546 0.457928
vt 0.507613 0.457080
vt 0.506877 0.445401
vt 0.514439 0.446199
vt 0.500000 0.089031
vt 0.528336 0.053210
vt 0.620841 0.601238
vt 0.618568 0.607555
vt 0.613078 0.604170
vt 0.614718 0.599612
vt 0.500000 0.479371
vt 0.500000 0.460095
vt 0.513331 0.424258
vt 0.512541 0.440917
vt 0.500000 0.440864
vt 0.500000 0.422187
vt 0.500000 0.664242
vt 0.576432 0.505809
vt 0.539481 0.507406
vt 0.547321 0.467354
vt 0.500000 0.513551
vt 0.519044 0.508271
vt 0.579599 0.168698
vt 0.538703 0.096221
vt 0.577833 0.108290
vt 0.520322 0.097153
vt 0.500000 0.106427
vt 0.541975 0.104341
vt 0.078394 0.467354
vt 0.104341 0.437145
vt 0.073220 0.507406
vt 0.590300 0.643738
vt 0.499630 0.641384
vt 0.459655 0.640419
vt 0.417546 0.774144
vt 0.414448 0.641253
vt 0.423095 0.508652
vt 0.621491 0.816867
vt 0.648114 0.640437
vt 0.669097 0.641253
vt 0.644267 0.774144
vt 0.578790 0.496630
vt 0.601625 0.405151
vt 0.649402 0.433451
vt 0.651726 0.367843
vt 0.620780 0.366797
vt 0.454529 0.413961
vt 0.467814 0.368189
vt 0.488225 0.366596
vt 0.561691 0.421068
vt 0.537425 0.365401
vt 0.507200 0.363509
vt 0.481273 0.364028
vt 0.510983 0.366114
vt 0.635806 0.367147
vt 0.669092 0.368189
vt 0.420824 0.496630
vt 0.452865 0.405151
vt 0.558226 0.518348
vt 0.484328 0.324872
vt 0.502799 0.322553
vt 0.547406 0.321655
vt 0.519920 0.320969
vt 0.496410 0.322232
vt 0.523434 0.321439
vt 0.639292 0.324944
vt 0.675657 0.324872
vt 0.550036 0.367843
vt 0.558926 0.322330
vt 0.465216 0.366023
vt 0.604868 0.366023
vt 0.599660 0.365401
vt 0.621651 0.293283
vt 0.658462 0.293469
vt 0.659368 0.261742
vt 0.621257 0.261665
vt 0.501495 0.293600
vt 0.482345 0.307625
vt 0.480362 0.262732
vt 0.500191 0.261781
vt 0.519246 0.292376
vt 0.547742 0.292993
vt 0.548078 0.261464
vt 0.518571 0.260916
vt 0.494871 0.293528
vt 0.493332 0.261956
vt 0.522889 0.292587
vt 0.522344 0.260869
vt 0.451756 0.288897
vt 0.449773 0.262732
vt 0.656778 0.322330
vt 0.622394 0.322035
vt 0.481902 0.324350
vt 0.605664 0.324350
vt 0.599057 0.321655
vt 0.595403 0.548078
vt 0.621257 0.561263
vt 0.645824 0.523009
vt 0.590945 0.518571
vt 0.639859 0.470735
vt 0.648324 0.498544
vt 0.685407 0.500191
vt 0.686261 0.480362
vt 0.592251 0.493332
vt 0.659368 0.560446
vt 0.683143 0.522344
vt 0.596433 0.477757
vt 0.479829 0.307317
vt 0.477757 0.262636
vt 0.447168 0.262636
vt 0.449241 0.288588
vt 0.596679 0.292993
vt 0.595403 0.261464
vt 0.559686 0.293469
vt 0.560446 0.261742
vt 0.603589 0.307317
vt 0.640355 0.307779
vt 0.679739 0.307625
vt 0.677932 0.288897
vt 0.639680 0.289050
vt 0.639859 0.262967
vt 0.679465 0.262732
vt 0.604354 0.288588
vt 0.603287 0.262636
vt 0.679739 0.482345
vt 0.640355 0.473048
vt 0.639680 0.442459
vt 0.677932 0.451756
vt 0.679465 0.449773
vt 0.639859 0.440146
vt 0.603589 0.479829
vt 0.604354 0.449241
vt 0.603287 0.447168
vt 0.841501 0.761101
vt 0.796910 0.643370
vt 0.906455 0.644155
vt 0.894416 0.742499
vt 0.957194 0.643970
vt 0.829265 0.517077
vt 0.940741 0.715601
vt 0.671449 0.841501
vt 0.669190 0.894416
vt 0.849398 0.470798
vt 0.666902 0.940741
vt 0.909364 0.402088
vt 0.855378 0.389954
vt 0.592313 0.470184
vt 0.617524 0.471308
vt 0.621192 0.417417
vt 0.598226 0.414426
vt 0.598146 0.467455
vt 0.603540 0.389954
vt 0.643835 0.389418
vt 0.855424 0.393127
vt 0.905341 0.403681
vt 0.667620 0.471464
vt 0.947229 0.538591
vt 0.963044 0.470184
vt 0.580250 0.494548
vt 0.595712 0.312254
vt 0.621272 0.312916
vt 0.622837 0.264476
vt 0.597277 0.263453
vt 0.852894 0.313492
vt 0.849695 0.260671
vt 0.818572 0.260902
vt 0.821566 0.286829
vt 0.893654 0.314609
vt 0.853541 0.316407
vt 0.850246 0.263617
vt 0.890422 0.263754
vt 0.896415 0.312211
vt 0.936226 0.312254
vt 0.933075 0.263453
vt 0.893263 0.261490
vt 0.670148 0.393127
vt 0.666826 0.415674
vt 0.958612 0.415674
vt 0.958434 0.414426
vt 0.649700 0.837975
vt 0.635627 0.887710
vt 0.686058 0.890422
vt 0.687133 0.850246
vt 0.592375 0.849695
vt 0.589648 0.893263
vt 0.597277 0.933075
vt 0.622837 0.940554
vt 0.673628 0.933416
vt 0.822213 0.289744
vt 0.819123 0.263848
vt 0.672063 0.313364
vt 0.673628 0.264581
vt 0.936602 0.313364
vt 0.933416 0.264581
vt 0.941647 0.364922
vt 0.899640 0.363406
vt 0.623001 0.364960
vt 0.665562 0.364922
vt 0.668659 0.362549
vt 0.644119 0.361871
vt 0.647700 0.316485
vt 0.685132 0.316407
vt 0.859879 0.359936
vt 0.902447 0.361457
vt 0.941330 0.363919
vt 0.860378 0.362549
vt 0.606538 0.359936
vt 0.590374 0.313492
vt 0.601582 0.363919
vt 0.646474 0.289822
vt 0.601626 0.286829
vt 0.603191 0.260902
vt 0.648039 0.263334
vt 0.675760 0.289744
vt 0.677325 0.263848
vt 0.647700 0.841274
vt 0.590374 0.852894
vt 0.601626 0.821566
vt 0.646474 0.809945
vt 0.648039 0.806852
vt 0.603191 0.818572
vt 0.685132 0.853541
vt 0.675760 0.822213
vt 0.677325 0.819123
vt 0.500000 0.668378
vt 0.500000 0.724779
vt 0.517225 0.721513
vt 0.520785 0.669173
vt 0.528698 1.002924
vt 0.500000 1.014901
vt 0.500000 1.025182
vt 0.520785 1.015365
vt 0.500000 0.744181
vt 0.519989 0.740196
vt 0.519989 0.988807
vt 0.500000 0.995348
vt 0.500000 0.660499
vt 0.528698 0.661469
vt 0.154177 0.616909
vt 0.166410 0.570048
vt 0.135838 0.608740
vt 0.149154 0.567675
vt 0.147623 0.572395
vt 0.137518 0.603560
vt 0.583783 0.154177
vt 0.583848 0.135838
vt 0.600568 0.131366
vt 0.597073 0.144428
vt 0.144166 0.612314
vt 0.141084 0.620214
vt 0.132632 0.614576
vt 0.134671 0.609983
vt 0.153028 0.593819
vt 0.141399 0.592146
vt 0.619182 0.132632
vt 0.614588 0.141084
vt 0.606252 0.140479
vt 0.610351 0.130579
vt 0.138199 0.601250
vt 0.148213 0.603179
vt 0.602487 0.570048
vt 0.583783 0.616909
vt 0.597073 0.624463
vt 0.606252 0.625520
vt 0.614588 0.620214
vt 0.620822 0.612314
vt 0.623703 0.603179
vt 0.620639 0.593819
vt 0.604695 0.577238
vt 0.601269 0.572395
vt 0.603531 0.567675
vt 0.609313 0.614171
vt 0.615687 0.610750
vt 0.619182 0.614576
vt 0.610351 0.619358
vt 0.602434 0.613212
vt 0.600568 0.617961
vt 0.626402 0.601250
vt 0.623276 0.609983
vt 0.618527 0.594500
vt 0.623272 0.592146
vt 0.590602 0.606787
vt 0.583848 0.608740
vt 0.592903 0.603615
vt 0.603070 0.582298
vt 0.613048 0.594751
vt 0.610999 0.606475
vt 0.606401 0.608943
vt 0.601438 0.608251
vt 0.586331 0.603560
vt 0.600598 0.578805
vt 0.589822 0.601288
vt 0.148133 0.578805
vt 0.140843 0.601288
vt 0.522445 0.038205
vt 0.513246 0.032036
vt 0.507613 0.025182
vt 0.515546 0.030102
vt 0.521458 0.442272
vt 0.528336 0.428901
vt 0.500000 0.456702
vt 0.500000 0.445370
vt 0.500000 0.031689
vt 0.512541 0.032373
vt 0.506877 0.025742
vt 0.500000 0.025886
vt 0.500000 0.031337
vt 0.500000 0.025479
vt 0.030102 0.457928
vt 0.030515 0.446199
vt 0.432141 0.867914
vt 0.443845 0.927906
vt 0.379085 0.894044
vt 0.360683 0.828812
vt 0.439809 0.672195
vt 0.430298 0.558226
vt 0.400297 0.594201
vt 0.380247 0.672998
vt 0.419750 0.833374
vt 0.430922 0.759035
vt 0.362910 0.751725
vt 0.364577 0.812683
vt 0.430922 0.758996
vt 0.439809 0.671923
vt 0.454286 0.976119
vt 0.395580 0.951058
vt 0.395580 0.548422
vt 0.333098 0.547256
vt 0.311584 0.643970
vt 0.373635 0.643481
vt 0.436410 0.893919
vt 0.360683 0.793372
vt 0.328551 0.761101
vt 0.323030 0.643370
vt 0.340672 0.642712
vt 0.444006 0.632181
vt 0.395580 0.735145
vt 0.454286 0.747180
vt 0.427025 0.538591
vt 0.333098 0.715601
vt 0.427025 0.947229
vt 0.443553 0.575135
vt 0.400297 0.530171
vt 0.356060 0.535244
vt 0.340885 0.643738
vt 0.362910 0.643182
vt 0.435444 0.492909
vt 0.433984 0.447361
vt 0.430298 0.518348
vt 0.405006 0.421068
vt 0.383019 0.429733
vt 0.362474 0.771615
vt 0.387552 0.796381
vt 0.438918 0.382998
vt 0.421210 0.420824
vt 0.448920 0.357545
vt 0.398021 0.363238
vt 0.378773 0.407144
vt 0.332784 0.508652
vt 0.333539 0.413961
vt 0.367244 0.407548
vt 0.378773 0.499901
vt 0.362910 0.751727
vt 0.459125 0.268345
vt 0.417930 0.278839
vt 0.380247 0.672932
vt 0.448920 0.314473
vt 0.328551 0.517077
vt 0.328734 0.470798
vt 0.357619 0.470278
vt 0.364577 0.509803
vt 0.459125 0.239236
vt 0.435444 0.495971
vt 0.387552 0.579931
vt 0.371732 0.501290
vt 0.368885 0.457158
vt 0.460183 0.181283
vt 0.460183 0.140934
vt 0.460183 0.196322
vt 0.419994 0.205473
vt 0.378509 0.393435
vt 0.461297 0.608225
vt 0.473395 0.560962
vt 0.433984 0.450625
vt 0.460469 0.141037
vt 0.469367 0.116366
vt 0.437911 0.123733
vt 0.420553 0.149293
vt 0.457081 0.165879
vt 0.413943 0.174337
vt 0.484203 0.085531
vt 0.489280 0.071544
vt 0.476758 0.071388
vt 0.468516 0.086614
vt 0.398021 0.325561
vt 0.417930 0.249130
vt 0.419994 0.679456
vt 0.420401 0.648799
vt 0.460183 0.657159
vt 0.460183 0.690304
vt 0.486669 0.045311
vt 0.419994 0.191059
vt 0.422167 0.599988
vt 0.445768 0.556649
vt 0.469661 0.475706
vt 0.477555 0.462176
vt 0.486754 0.460736
vt 0.484790 0.477146
vt 0.484454 0.457928
vt 0.485561 0.446199
vt 0.493123 0.445401
vt 0.492387 0.457080
vt 0.471665 0.053210
vt 0.379159 0.601238
vt 0.385282 0.599612
vt 0.386922 0.604170
vt 0.381432 0.607555
vt 0.486669 0.424258
vt 0.487459 0.440917
vt 0.423568 0.505809
vt 0.452679 0.467354
vt 0.460520 0.507406
vt 0.480956 0.508271
vt 0.420401 0.168698
vt 0.422167 0.108290
vt 0.461297 0.096221
vt 0.479678 0.097153
vt 0.458025 0.104341
vt 0.378509 0.816867
vt 0.355733 0.774144
vt 0.330903 0.641253
vt 0.351886 0.640437
vt 0.398375 0.405151
vt 0.421210 0.496630
vt 0.379220 0.366797
vt 0.348274 0.367843
vt 0.350598 0.433451
vt 0.330908 0.368189
vt 0.364194 0.367147
vt 0.324343 0.324872
vt 0.360708 0.324944
vt 0.395132 0.366023
vt 0.400340 0.365401
vt 0.378349 0.293283
vt 0.378743 0.261665
vt 0.340632 0.261742
vt 0.341538 0.293469
vt 0.377606 0.322035
vt 0.343222 0.322330
vt 0.394336 0.324350
vt 0.400943 0.321655
vt 0.404597 0.548078
vt 0.409055 0.518571
vt 0.354176 0.523009
vt 0.378743 0.561263
vt 0.360141 0.470735
vt 0.313739 0.480362
vt 0.314593 0.500191
vt 0.351676 0.498544
vt 0.407749 0.493332
vt 0.316857 0.522344
vt 0.340632 0.560446
vt 0.403567 0.477757
vt 0.403321 0.292993
vt 0.404597 0.261464
vt 0.359645 0.307779
vt 0.396411 0.307317
vt 0.320262 0.307625
vt 0.322068 0.288897
vt 0.320535 0.262732
vt 0.360141 0.262967
vt 0.360320 0.289050
vt 0.396713 0.262636
vt 0.395646 0.288588
vt 0.320262 0.482345
vt 0.322068 0.451756
vt 0.360320 0.442459
vt 0.359645 0.473048
vt 0.360141 0.440146
vt 0.320535 0.449773
vt 0.395646 0.449241
vt 0.396411 0.479829
vt 0.396713 0.447168
vt 0.330810 0.894416
vt 0.328551 0.841501
vt 0.333098 0.940741
vt 0.407688 0.470184
vt 0.401774 0.414426
vt 0.378808 0.417417
vt 0.382476 0.471308
vt 0.356165 0.389418
vt 0.396460 0.389954
vt 0.401854 0.467455
vt 0.332380 0.471464
vt 0.419750 0.494548
vt 0.404289 0.312254
vt 0.402723 0.263453
vt 0.377163 0.264476
vt 0.378728 0.312916
vt 0.329852 0.393127
vt 0.333174 0.415674
vt 0.350300 0.837975
vt 0.312867 0.850246
vt 0.313942 0.890422
vt 0.364373 0.887710
vt 0.410353 0.893263
vt 0.407625 0.849695
vt 0.377163 0.940554
vt 0.402723 0.933075
vt 0.326372 0.933416
vt 0.326372 0.264581
vt 0.327937 0.313364
vt 0.376999 0.364960
vt 0.334438 0.364922
vt 0.331341 0.362549
vt 0.314868 0.316407
vt 0.352300 0.316485
vt 0.355881 0.361871
vt 0.409626 0.313492
vt 0.393462 0.359936
vt 0.398418 0.363919
vt 0.353526 0.289822
vt 0.351961 0.263334
vt 0.396809 0.260902
vt 0.398374 0.286829
vt 0.324240 0.289744
vt 0.322675 0.263848
vt 0.352300 0.841274
vt 0.353526 0.809945
vt 0.398374 0.821566
vt 0.409626 0.852894
vt 0.396809 0.818572
vt 0.351961 0.806852
vt 0.314868 0.853541
vt 0.324240 0.822213
vt 0.322675 0.819123
vt 0.479215 0.669173
vt 0.482775 0.721513
vt 0.471302 1.002924
vt 0.479215 1.015365
vt 0.480011 0.740196
vt 0.480011 0.988807
vt 0.471302 0.661469
vt 0.416217 0.154177
vt 0.402927 0.144428
vt 0.399432 0.131366
vt 0.416152 0.135838
vt 0.380819 0.132632
vt 0.389649 0.130579
vt 0.393748 0.140479
vt 0.385412 0.141084
vt 0.397513 0.570048
vt 0.379361 0.593819
vt 0.376297 0.603179
vt 0.379178 0.612314
vt 0.385412 0.620214
vt 0.393748 0.625520
vt 0.402927 0.624463
vt 0.416217 0.616909
vt 0.395305 0.577238
vt 0.396469 0.567675
vt 0.398731 0.572395
vt 0.390687 0.614171
vt 0.389649 0.619358
vt 0.380819 0.614576
vt 0.384313 0.610750
vt 0.397566 0.613212
vt 0.399432 0.617961
vt 0.376724 0.609983
vt 0.373598 0.601250
vt 0.376728 0.592146
vt 0.381473 0.594500
vt 0.409398 0.606787
vt 0.416152 0.608740
vt 0.407098 0.603615
vt 0.398562 0.608251
vt 0.393599 0.608943
vt 0.389001 0.606475
vt 0.386952 0.594751
vt 0.396930 0.582298
vt 0.413669 0.603560
vt 0.399402 0.578805
vt 0.410178 0.601288
vt 0.477555 0.038205
vt 0.484454 0.030102
vt 0.492387 0.025182
vt 0.486754 0.032036
vt 0.478542 0.442272
vt 0.471665 0.428901
vt 0.493123 0.025742
vt 0.487459 0.032373
vt 0.181819 0.000000
vt 0.227273 0.078731
vt 0.136365 0.078731
vt 0.272728 0.157461
vt 0.318182 0.078731
vt 0.363637 0.157461
vt 0.909091 0.000000
vt 0.954545 0.078731
vt 0.863636 0.078731
vt 0.727273 0.000000
vt 0.772727 0.078731
vt 0.681818 0.078731
vt 0.545455 0.000000
vt 0.590909 0.078731
vt 0.500000 0.078731
vt 0.318182 0.236191
vt 0.090910 0.157461
vt 0.181819 0.157461
vt 0.136365 0.236191
vt 0.818182 0.157461
vt 0.909091 0.157461
vt 0.863636 0.236191
vt 0.636364 0.157461
vt 0.727273 0.157461
vt 0.681818 0.236191
vt 0.454546 0.157461
vt 0.545455 0.157461
vt 0.500000 0.236191
vt 0.227273 0.236191
vt 0.045455 0.236191
vt 0.772727 0.236191
vt 0.590909 0.236191
vt 0.409092 0.236191
vt 0.181819 0.314921
vt 0.272728 0.314921
vt 0.227273 0.393651
vt 0.000000 0.314921
vt 0.090910 0.314921
vt 0.045455 0.393651
vt 0.727273 0.314921
vt 0.818182 0.314921
vt 0.772727 0.393651
vt 0.545455 0.314921
vt 0.636364 0.314921
vt 0.590909 0.393651
vt 0.363637 0.314921
vt 0.454546 0.314921
vt 0.409092 0.393651
vt 0.500000 0.393651
vt 0.454546 0.472382
vt 0.681818 0.393651
vt 0.636364 0.472382
vt 0.863636 0.393651
vt 0.818182 0.472382
vt 0.909091 0.314921
vt 0.136365 0.393651
vt 0.090910 0.472382
vt 0.318182 0.393651
vt 0.272728 0.472382
vt 0.954545 0.236191
vt 1.000000 0.157461
vt 0.409092 0.078731
vt 0.363637 0.000000
s 1
f 116/1/1 98/2/1 209/3/1 208/4/1
f 115/5/2 4/6/2 17/7/2 97/8/2
f 3/9/3 7/10/3 13/11/3 8/12/3
f 7/10/4 4/13/4 9/14/4 13/11/4
f 13/11/5 9/14/5 2/15/5 10/16/5
f 8/12/6 13/11/6 10/16/6 1/17/6
f 1/17/7 10/16/7 32/18/7 29/19/7
f 114/20/8 1/21/8 29/22/8 83/23/8
f 116/24/9 3/25/9 8/26/9 109/27/9
f 109/27/10 8/26/10 1/21/10 114/20/10
f 115/5/11 6/28/11 15/29/11 99/30/11
f 99/30/12 15/29/12 12/31/12 112/32/12
f 97/8/13 17/7/13 21/33/13 90/34/13
f 20/35/14 25/36/14 203/37/14 204/38/14
f 116/24/15 5/28/15 18/39/15 98/40/15
f 4/41/16 7/42/16 197/43/16 196/44/16
f 89/45/17 90/46/17 21/47/17 25/36/17
f 91/48/18 89/45/18 25/36/18 20/35/18
f 25/36/19 21/47/19 202/49/19 203/37/19
f 98/40/20 18/39/20 23/50/20 91/51/20
f 38/52/21 45/53/21 134/54/21 131/55/21
f 133/56/22 136/57/22 144/58/22 146/59/22
f 112/32/23 12/31/23 34/60/23 82/61/23
f 10/16/24 2/15/24 30/62/24 32/18/24
f 29/63/25 32/64/25 129/65/25 130/66/25
f 75/67/26 41/68/26 48/69/26 73/70/26
f 82/61/27 34/60/27 41/68/27 75/67/27
f 83/71/28 29/63/28 141/72/28 140/73/28
f 32/64/29 30/74/29 128/75/29 129/65/29
f 73/70/30 48/69/30 56/76/30 66/77/30
f 74/78/31 81/79/31 145/80/31 148/81/31
f 130/82/32 133/56/32 146/59/32 147/83/32
f 6/28/33 115/5/33 97/8/33 19/39/33
f 54/84/34 53/85/34 60/86/34 61/87/34
f 67/88/35 54/89/35 61/90/35 65/91/35
f 11/92/36 114/20/36 83/23/36 33/93/36
f 5/28/37 116/24/37 109/27/37 14/29/37
f 14/29/38 109/27/38 114/20/38 11/92/38
f 139/94/39 54/95/39 143/96/39 142/97/39
f 30/62/40 38/52/40 131/55/40 128/98/40
f 4/6/41 115/5/41 99/30/41 9/99/41
f 61/87/42 60/86/42 69/100/42 70/101/42
f 65/91/43 61/90/43 70/102/43 58/103/43
f 9/99/44 99/30/44 112/32/44 2/104/44
f 66/77/45 56/76/45 63/105/45 64/106/45
f 19/39/46 97/8/46 90/34/46 24/107/46
f 53/85/47 52/108/47 59/109/47 60/86/47
f 198/110/48 3/111/48 207/112/48 213/113/48
f 256/114/49 255/115/49 253/116/49 254/117/49
f 23/118/50 26/119/50 89/45/50 91/48/50
f 69/100/51 68/120/51 76/121/51 77/122/51
f 204/123/52 201/124/52 211/125/52 212/126/52
f 64/106/53 63/105/53 72/127/53 57/128/53
f 33/93/54 83/23/54 81/129/54 40/68/54
f 60/86/55 59/109/55 68/120/55 69/100/55
f 2/104/56 112/32/56 82/61/56 30/130/56
f 38/131/57 75/67/57 73/70/57 45/132/57
f 77/122/58 76/121/58 259/133/58 260/134/58
f 30/130/59 82/61/59 75/67/59 38/131/59
f 50/135/60 80/136/60 88/137/60 44/138/60
f 58/103/61 70/102/61 78/139/61 51/140/61
f 70/101/62 69/100/62 77/122/62 78/141/62
f 45/132/63 73/70/63 66/77/63 52/142/63
f 57/128/64 72/127/64 80/136/64 50/135/64
f 28/143/65 110/144/65 96/145/65 42/146/65
f 40/68/66 81/129/66 74/147/66 47/69/66
f 108/148/67 262/149/67 93/150/67 94/151/67
f 31/152/68 108/153/68 94/154/68 43/155/68
f 55/156/69 67/88/69 65/91/69 62/157/69
f 51/140/70 78/139/70 86/158/70 49/159/70
f 78/141/71 77/122/71 260/134/71 86/160/71
f 47/69/72 74/147/72 67/88/72 55/156/72
f 123/161/73 124/162/73 101/163/73 102/164/73
f 121/165/74 123/166/74 102/167/74 37/168/74
f 62/157/75 65/91/75 58/103/75 71/169/75
f 52/142/76 66/77/76 64/106/76 59/170/76
f 59/170/77 64/106/77 57/128/77 68/171/77
f 262/149/78 261/172/78 92/173/78 93/150/78
f 76/174/79 50/175/79 44/176/79 259/177/79
f 71/169/80 58/103/80 51/140/80 79/178/80
f 37/168/81 35/179/81 105/180/81 103/181/81
f 124/162/82 127/182/82 297/183/82 298/184/82 101/163/82
f 68/171/83 57/128/83 50/135/83 76/185/83
f 261/186/84 28/143/84 42/146/84 92/187/84
f 107/188/85 31/152/85 43/155/85 95/189/85
f 127/190/86 122/191/86 295/192/86 297/193/86
f 79/178/87 51/140/87 49/159/87 87/194/87
f 100/195/88 36/196/88 301/197/88 104/198/88
f 126/199/89 121/165/89 37/168/89 103/181/89
f 102/167/90 101/200/90 35/179/90 37/168/90
f 274/201/91 273/202/91 290/203/91 291/204/91
f 122/191/92 125/205/92 300/206/92 295/192/92
f 49/159/93 86/158/93 108/153/93 31/152/93
f 86/160/94 260/134/94 262/149/94 108/148/94
f 35/207/95 296/208/95 299/209/95 105/210/95
f 44/176/96 88/211/96 110/144/96 28/143/96
f 93/212/97 92/187/97 120/213/97 119/214/97
f 87/194/98 49/159/98 31/152/98 107/188/98
f 42/146/99 96/145/99 113/215/99 27/216/99
f 259/217/100 44/138/100 28/218/100 261/219/100
f 92/187/101 42/146/101 27/216/101 120/213/101
f 95/189/102 43/155/102 22/220/102 118/221/102
f 43/155/103 94/154/103 117/222/103 22/220/103
f 94/151/104 93/150/104 119/223/104 117/224/104
f 120/213/105 27/216/105 122/191/105 127/190/105
f 118/221/106 22/220/106 121/165/106 126/199/106
f 119/223/107 120/225/107 127/182/107 124/162/107
f 27/216/108 113/215/108 125/205/108 122/191/108
f 22/220/109 117/222/109 123/166/109 121/165/109
f 117/224/110 119/223/110 124/162/110 123/161/110
f 130/82/111 129/226/111 132/227/111 133/56/111
f 132/227/112 131/55/112 134/54/112 135/228/112
f 129/226/113 128/98/113 131/55/113 132/227/113
f 135/228/114 134/54/114 137/229/114 138/230/114
f 133/56/115 132/227/115 135/228/115 136/57/115
f 136/57/116 135/228/116 138/230/116 139/231/116
f 52/232/117 53/233/117 138/234/117 137/235/117
f 45/53/118 52/108/118 137/229/118 134/54/118
f 54/95/119 67/236/119 149/237/119 143/96/119
f 53/233/120 54/95/120 139/94/120 138/234/120
f 141/72/121 147/238/121 157/239/121 39/240/121
f 144/58/122 142/241/122 150/242/122 153/243/122
f 145/80/123 140/244/123 46/245/123 154/246/123
f 148/81/124 145/80/124 154/246/124 158/247/124
f 146/59/125 144/58/125 153/243/125 156/248/125
f 142/97/126 143/96/126 151/249/126 150/250/126
f 136/57/127 139/231/127 142/241/127 144/58/127
f 67/251/128 74/78/128 148/81/128 149/252/128
f 29/63/129 130/66/129 147/238/129 141/72/129
f 81/79/130 83/253/130 140/244/130 145/80/130
f 153/243/131 150/242/131 162/254/131 164/255/131
f 154/246/132 46/245/132 160/256/132 165/257/132
f 158/247/133 154/246/133 165/257/133 168/258/133
f 156/248/134 153/243/134 164/255/134 166/259/134
f 150/250/135 151/249/135 163/260/135 162/261/135
f 157/262/136 156/248/136 166/259/136 167/263/136
f 149/252/137 148/81/137 158/247/137 159/264/137
f 143/96/138 149/237/138 159/265/138 151/249/138
f 140/73/139 141/72/139 39/240/139 46/266/139
f 147/83/140 146/59/140 156/248/140 157/262/140
f 188/267/141 187/268/141 177/269/141 152/270/141
f 184/271/142 185/272/142 170/273/142 173/274/142
f 182/275/143 180/276/143 155/277/143 174/278/143
f 181/279/144 182/275/144 174/278/144 178/280/144
f 183/281/145 184/271/145 173/274/145 176/282/145
f 170/273/146 185/272/146 194/283/146 192/284/146
f 39/240/147 157/239/147 167/285/147 161/286/147
f 159/264/148 158/247/148 168/258/148 169/287/148
f 151/249/149 159/265/149 169/288/149 163/260/149
f 46/266/150 39/240/150 161/286/150 160/289/150
f 155/290/151 152/291/151 175/292/151 174/293/151
f 171/294/152 172/295/152 173/296/152 170/297/152
f 174/293/153 175/292/153 172/295/153 178/298/153
f 175/292/154 152/291/154 177/299/154 176/300/154
f 178/298/155 172/295/155 171/294/155 179/301/155
f 172/295/156 175/292/156 176/300/156 173/296/156
f 189/302/157 181/279/157 178/280/157 179/303/157
f 189/302/158 179/303/158 193/304/158 195/305/158
f 180/306/159 188/267/159 152/270/159 155/307/159
f 187/308/160 183/281/160 176/282/160 177/309/160
f 167/263/161 166/259/161 183/281/161 187/308/161
f 160/289/162 161/286/162 188/267/162 180/306/162
f 163/260/163 169/288/163 189/310/163 186/311/163
f 169/287/164 168/258/164 181/279/164 189/302/164
f 162/261/165 163/260/165 186/311/165 185/312/165
f 166/259/166 164/255/166 184/271/166 183/281/166
f 168/258/167 165/257/167 182/275/167 181/279/167
f 165/257/168 160/256/168 180/276/168 182/275/168
f 164/255/169 162/254/169 185/272/169 184/271/169
f 161/286/170 167/285/170 187/268/170 188/267/170
f 194/313/171 190/314/171 191/315/171 192/316/171
f 190/314/172 195/317/172 193/318/172 191/315/172
f 185/319/173 186/320/173 190/321/173 194/322/173
f 171/294/174 170/297/174 192/323/174 191/324/174
f 186/320/175 189/325/175 195/326/175 190/321/175
f 179/301/176 171/294/176 191/324/176 193/327/176
f 196/328/177 197/329/177 200/330/177 199/331/177
f 200/330/178 201/124/178 204/123/178 203/332/178
f 197/329/179 198/333/179 201/124/179 200/330/179
f 199/331/180 200/330/180 203/332/180 202/334/180
f 7/42/181 3/111/181 198/110/181 197/43/181
f 17/7/182 4/6/182 196/335/182 199/336/182
f 201/124/183 198/333/183 213/337/183 211/125/183
f 21/33/184 17/7/184 199/336/184 202/338/184
f 208/4/185 209/3/185 217/339/185 216/340/185
f 210/341/186 206/342/186 214/343/186 218/344/186
f 207/112/187 208/345/187 216/346/187 215/347/187
f 211/125/188 213/337/188 221/348/188 219/349/188
f 20/35/189 204/38/189 212/350/189 206/342/189
f 91/48/190 20/35/190 206/342/190 210/341/190
f 98/2/191 91/351/191 210/352/191 209/3/191
f 3/111/192 116/353/192 208/345/192 207/112/192
f 232/354/193 235/355/193 222/356/193 226/357/193
f 233/358/194 224/359/194 240/360/194 241/361/194
f 16/362/195 230/363/195 229/364/195 227/365/195
f 231/366/196 232/367/196 226/368/196 225/369/196
f 213/113/197 207/112/197 215/347/197 221/370/197
f 206/342/198 212/350/198 220/371/198 214/343/198
f 212/126/199 211/125/199 219/349/199 220/372/199
f 209/3/200 210/352/200 218/373/200 217/339/200
f 223/374/201 205/375/201 227/376/201 229/377/201
f 223/374/202 224/378/202 225/379/202 205/375/202
f 205/375/203 225/379/203 226/380/203 222/381/203
f 205/375/204 222/381/204 228/382/204 227/376/204
f 233/358/205 231/366/205 225/369/205 224/359/205
f 229/364/206 230/363/206 237/383/206 238/384/206
f 235/355/207 236/385/207 228/386/207 222/356/207
f 236/387/208 16/362/208 227/365/208 228/388/208
f 250/389/209 243/390/209 16/362/209 236/387/209
f 249/391/210 250/392/210 236/385/210 235/355/210
f 246/393/211 245/394/211 234/395/211 230/396/211
f 248/397/212 244/398/212 231/366/212 233/358/212
f 244/398/213 247/399/213 232/367/213 231/366/213
f 243/390/214 246/400/214 230/363/214 16/362/214
f 245/394/215 248/401/215 233/402/215 234/395/215
f 247/403/216 249/391/216 235/355/216 232/354/216
f 242/404/217 241/405/217 240/406/217 239/407/217
f 237/408/218 242/404/218 239/407/218 238/409/218
f 234/410/219 233/411/219 241/412/219 242/413/219
f 224/378/220 223/374/220 239/414/220 240/415/220
f 230/416/221 234/410/221 242/413/221 237/417/221
f 223/374/222 229/377/222 238/418/222 239/414/222
f 218/344/223 214/343/223 249/391/223 247/403/223
f 215/347/224 216/346/224 248/401/224 245/394/224
f 219/349/225 221/348/225 246/400/225 243/390/225
f 217/339/226 218/373/226 247/399/226 244/398/226
f 216/340/227 217/339/227 244/398/227 248/397/227
f 221/370/228 215/347/228 245/394/228 246/393/228
f 214/343/229 220/371/229 250/392/229 249/391/229
f 220/372/230 219/349/230 243/390/230 250/389/230
f 252/419/231 251/420/231 254/421/231 253/422/231
f 255/423/232 257/424/232 252/425/232 253/426/232
f 258/427/233 256/428/233 254/421/233 251/420/233
f 24/107/234 90/34/234 256/429/234 258/430/234
f 89/45/235 26/119/235 257/431/235 255/432/235
f 90/46/236 89/45/236 255/432/236 256/428/236
f 84/433/237 85/434/237 260/134/237 259/133/237
f 275/435/238 84/433/238 259/133/238 261/172/238
f 85/434/239 276/436/239 262/149/239 260/134/239
f 276/436/240 284/437/240 283/438/240 275/435/240 261/172/240 262/149/240
f 84/439/241 275/440/241 279/441/241 263/442/241
f 266/443/242 264/444/242 278/445/242 280/446/242
f 276/436/243 85/434/243 267/447/243 282/448/243
f 278/449/244 264/450/244 265/451/244 277/452/244
f 277/452/245 265/451/245 263/442/245 279/441/245
f 266/443/246 280/446/246 281/453/246 268/454/246
f 268/454/247 281/453/247 282/448/247 267/447/247
f 85/455/248 84/456/248 263/457/248 265/458/248 264/459/248 266/460/248 268/461/248 267/462/248
f 106/463/249 284/464/249 276/465/249
f 271/466/250 269/467/250 278/468/250 277/469/250
f 270/470/251 271/466/251 277/469/251 279/471/251
f 273/202/252 274/201/252 281/472/252 280/473/252
f 274/201/253 272/474/253 282/475/253 281/472/253
f 269/467/254 273/202/254 280/473/254 278/468/254
f 111/476/255 270/470/255 279/471/255 275/477/255
f 272/474/256 106/463/256 276/465/256 282/475/256
f 285/478/257 286/479/257 292/480/257 291/204/257 290/203/257 288/481/257 287/482/257 289/483/257
f 283/484/258 111/476/258 275/477/258
f 270/470/259 111/476/259 285/478/259 289/483/259
f 294/485/260 286/479/260 285/478/260 293/486/260
f 111/476/261 283/484/261 293/486/261 285/478/261
f 106/463/262 272/474/262 292/480/262 286/479/262
f 272/474/263 274/201/263 291/204/263 292/480/263
f 269/467/264 271/466/264 287/482/264 288/481/264
f 283/438/265 284/437/265 294/487/265 293/488/265
f 273/202/266 269/467/266 288/481/266 290/203/266
f 284/464/267 106/463/267 286/479/267 294/485/267
f 271/466/268 270/470/268 289/483/268 287/482/268
f 297/489/269 295/490/269 36/491/269 100/492/269
f 296/208/270 298/493/270 104/198/270 301/197/270
f 101/494/271 298/493/271 296/208/271 35/207/271
f 36/196/272 302/495/272 303/496/272 301/197/272
f 299/497/273 296/498/273 301/499/273 303/500/273
f 295/490/274 300/501/274 302/502/274 36/491/274
f 298/184/275 297/183/275 100/503/275 104/504/275
f 385/1/276 474/4/276 475/3/276 372/2/276
f 384/505/277 371/506/277 314/507/277 307/508/277
f 306/9/278 309/12/278 312/11/278 308/10/278
f 308/10/279 312/11/279 310/14/279 307/13/279
f 312/11/280 311/16/280 305/15/280 310/14/280
f 309/12/281 304/17/281 311/16/281 312/11/281
f 304/17/282 321/19/282 324/18/282 311/16/282
f 383/509/283 361/510/283 321/511/283 304/512/283
f 385/513/284 380/514/284 309/515/284 306/516/284
f 380/514/285 383/509/285 304/512/285 309/515/285
f 384/505/286 373/517/286 15/29/286 6/28/286
f 373/517/287 382/518/287 12/31/287 15/29/287
f 371/506/288 366/519/288 316/520/288 314/507/288
f 315/521/289 470/522/289 469/523/289 318/524/289
f 385/513/290 372/525/290 18/39/290 5/28/290
f 307/526/291 462/527/291 463/528/291 308/529/291
f 365/530/292 318/524/292 316/531/292 366/532/292
f 367/533/293 315/521/293 318/524/293 365/530/293
f 318/524/294 469/523/294 468/534/294 316/531/294
f 372/525/295 367/535/295 23/50/295 18/39/295
f 328/52/296 397/55/296 400/54/296 333/53/296
f 399/56/297 412/59/297 410/58/297 402/57/297
f 382/518/298 360/536/298 34/60/298 12/31/298
f 311/16/299 324/18/299 322/62/299 305/15/299
f 321/537/300 396/538/300 395/539/300 324/540/300
f 355/541/301 353/542/301 48/69/301 41/68/301
f 360/536/302 355/541/302 41/68/302 34/60/302
f 361/543/303 406/544/303 407/545/303 321/537/303
f 324/540/304 395/539/304 394/546/304 322/547/304
f 353/542/305 348/548/305 56/76/305 48/69/305
f 354/78/306 414/81/306 411/80/306 359/79/306
f 396/82/307 413/83/307 412/59/307 399/56/307
f 6/28/308 19/39/308 371/506/308 384/505/308
f 340/84/309 345/87/309 344/86/309 339/85/309
f 349/549/310 347/550/310 345/551/310 340/552/310
f 11/92/311 33/93/311 361/510/311 383/509/311
f 5/28/312 14/29/312 380/514/312 385/513/312
f 14/29/313 11/92/313 383/509/313 380/514/313
f 405/553/314 408/554/314 409/555/314 340/556/314
f 322/62/315 394/98/315 397/55/315 328/52/315
f 307/508/316 310/557/316 373/517/316 384/505/316
f 345/87/317 352/101/317 351/100/317 344/86/317
f 347/550/318 342/558/318 352/559/318 345/551/318
f 310/557/319 305/560/319 382/518/319 373/517/319
f 348/548/320 346/561/320 63/105/320 56/76/320
f 19/39/321 24/107/321 366/519/321 371/506/321
f 339/85/322 344/86/322 343/109/322 338/108/322
f 464/562/323 479/563/323 473/564/323 306/565/323
f 520/114/324 518/117/324 517/116/324 519/115/324
f 23/118/325 367/533/325 365/530/325 26/119/325
f 351/100/326 357/122/326 356/121/326 350/120/326
f 470/123/327 478/126/327 477/125/327 467/124/327
f 346/561/328 341/566/328 72/127/328 63/105/328
f 33/93/329 40/68/329 359/567/329 361/510/329
f 344/86/330 351/100/330 350/120/330 343/109/330
f 305/560/331 322/568/331 360/536/331 382/518/331
f 328/569/332 333/570/332 353/542/332 355/541/332
f 357/122/333 522/134/333 521/133/333 356/121/333
f 322/568/334 328/569/334 355/541/334 360/536/334
f 336/571/335 332/572/335 88/137/335 80/136/335
f 342/558/336 337/573/336 358/574/336 352/559/336
f 352/101/337 358/141/337 357/122/337 351/100/337
f 333/570/338 338/575/338 348/548/338 353/542/338
f 341/566/339 336/571/339 80/136/339 72/127/339
f 320/576/340 330/577/340 96/145/340 110/144/340
f 40/68/341 47/69/341 354/578/341 359/567/341
f 379/148/342 370/151/342 369/150/342 524/149/342
f 323/579/343 331/580/343 370/581/343 379/582/343
f 55/156/344 62/157/344 347/550/344 349/549/344
f 337/573/345 335/583/345 364/584/345 358/574/345
f 358/141/346 364/160/346 522/134/346 357/122/346
f 47/69/347 55/156/347 349/549/347 354/578/347
f 391/161/348 376/164/348 375/163/348 392/162/348
f 389/585/349 327/586/349 376/587/349 391/588/349
f 62/157/350 71/169/350 342/558/350 347/550/350
f 338/575/351 343/589/351 346/561/351 348/548/351
f 343/589/352 350/590/352 341/566/352 346/561/352
f 524/149/353 369/150/353 368/173/353 523/172/353
f 356/591/354 521/592/354 332/593/354 336/594/354
f 71/169/355 79/178/355 337/573/355 342/558/355
f 327/586/356 103/181/356 105/180/356 325/595/356
f 392/162/357 375/163/357 560/184/357 559/183/357 393/182/357
f 350/590/358 356/596/358 336/571/358 341/566/358
f 523/597/359 368/598/359 330/577/359 320/576/359
f 107/188/360 95/189/360 331/580/360 323/579/360
f 393/599/361 559/600/361 557/601/361 390/602/361
f 79/178/362 87/194/362 335/583/362 337/573/362
f 374/603/363 377/604/363 561/605/363 326/606/363
f 126/199/364 103/181/364 327/586/364 389/585/364
f 376/587/365 327/586/365 325/595/365 375/607/365
f 536/608/366 553/609/366 552/610/366 535/611/366
f 390/602/367 557/601/367 300/206/367 125/205/367
f 335/583/368 323/579/368 379/582/368 364/584/368
f 364/160/369 379/148/369 524/149/369 522/134/369
f 325/612/370 105/210/370 299/209/370 558/613/370
f 332/593/371 320/576/371 110/144/371 88/211/371
f 369/614/372 387/615/372 388/616/372 368/598/372
f 87/194/373 107/188/373 323/579/373 335/583/373
f 330/577/374 319/617/374 113/215/374 96/145/374
f 521/618/375 523/619/375 320/620/375 332/572/375
f 368/598/376 388/616/376 319/617/376 330/577/376
f 95/189/377 118/221/377 317/621/377 331/580/377
f 331/580/378 317/621/378 386/622/378 370/581/378
f 370/151/379 386/224/379 387/223/379 369/150/379
f 388/616/380 393/599/380 390/602/380 319/617/380
f 118/221/381 126/199/381 389/585/381 317/621/381
f 387/223/382 392/162/382 393/182/382 388/225/382
f 319/617/383 390/602/383 125/205/383 113/215/383
f 317/621/384 389/585/384 391/588/384 386/622/384
f 386/224/385 391/161/385 392/162/385 387/223/385
f 396/82/386 399/56/386 398/227/386 395/226/386
f 398/227/387 401/228/387 400/54/387 397/55/387
f 395/226/388 398/227/388 397/55/388 394/98/388
f 401/228/389 404/230/389 403/229/389 400/54/389
f 399/56/390 402/57/390 401/228/390 398/227/390
f 402/57/391 405/231/391 404/230/391 401/228/391
f 338/623/392 403/624/392 404/625/392 339/626/392
f 333/53/393 400/54/393 403/229/393 338/108/393
f 340/556/394 409/555/394 415/627/394 349/628/394
f 339/626/395 404/625/395 405/553/395 340/556/395
f 407/545/396 329/629/396 423/630/396 413/631/396
f 410/58/397 419/243/397 416/242/397 408/241/397
f 411/80/398 420/246/398 334/245/398 406/244/398
f 414/81/399 424/247/399 420/246/399 411/80/399
f 412/59/400 422/248/400 419/243/400 410/58/400
f 408/554/401 416/632/401 417/633/401 409/555/401
f 402/57/402 410/58/402 408/241/402 405/231/402
f 349/251/403 415/252/403 414/81/403 354/78/403
f 321/537/404 407/545/404 413/631/404 396/538/404
f 359/79/405 411/80/405 406/244/405 361/253/405
f 419/243/406 430/255/406 428/254/406 416/242/406
f 420/246/407 431/257/407 426/256/407 334/245/407
f 424/247/408 434/258/408 431/257/408 420/246/408
f 422/248/409 432/259/409 430/255/409 419/243/409
f 416/632/410 428/634/410 429/635/410 417/633/410
f 423/262/411 433/263/411 432/259/411 422/248/411
f 415/252/412 425/264/412 424/247/412 414/81/412
f 409/555/413 417/633/413 425/636/413 415/627/413
f 406/544/414 334/637/414 329/629/414 407/545/414
f 413/83/415 423/262/415 422/248/415 412/59/415
f 454/638/416 418/639/416 443/640/416 453/641/416
f 450/271/417 439/274/417 436/273/417 451/272/417
f 448/275/418 440/278/418 421/277/418 446/276/418
f 447/279/419 444/280/419 440/278/419 448/275/419
f 449/281/420 442/282/420 439/274/420 450/271/420
f 436/273/421 458/284/421 460/283/421 451/272/421
f 329/629/422 427/642/422 433/643/422 423/630/422
f 425/264/423 435/287/423 434/258/423 424/247/423
f 417/633/424 429/635/424 435/644/424 425/636/424
f 334/637/425 426/645/425 427/642/425 329/629/425
f 421/646/426 440/647/426 441/648/426 418/649/426
f 437/650/427 436/651/427 439/652/427 438/653/427
f 440/647/428 444/654/428 438/653/428 441/648/428
f 441/648/429 442/655/429 443/656/429 418/649/429
f 444/654/430 445/657/430 437/650/430 438/653/430
f 438/653/431 439/652/431 442/655/431 441/648/431
f 455/302/432 445/303/432 444/280/432 447/279/432
f 455/302/433 461/305/433 459/304/433 445/303/433
f 446/658/434 421/659/434 418/639/434 454/638/434
f 453/308/435 443/309/435 442/282/435 449/281/435
f 433/263/436 453/308/436 449/281/436 432/259/436
f 426/645/437 446/658/437 454/638/437 427/642/437
f 429/635/438 452/660/438 455/661/438 435/644/438
f 435/287/439 455/302/439 447/279/439 434/258/439
f 428/634/440 451/662/440 452/660/440 429/635/440
f 432/259/441 449/281/441 450/271/441 430/255/441
f 434/258/442 447/279/442 448/275/442 431/257/442
f 431/257/443 448/275/443 446/276/443 426/256/443
f 430/255/444 450/271/444 451/272/444 428/254/444
f 427/642/445 454/638/445 453/641/445 433/643/445
f 460/663/446 458/664/446 457/665/446 456/666/446
f 456/666/447 457/665/447 459/667/447 461/668/447
f 451/669/448 460/670/448 456/671/448 452/672/448
f 437/650/449 457/673/449 458/674/449 436/651/449
f 452/672/450 456/671/450 461/675/450 455/676/450
f 445/657/451 459/677/451 457/673/451 437/650/451
f 462/328/452 465/331/452 466/330/452 463/329/452
f 466/330/453 469/332/453 470/123/453 467/124/453
f 463/329/454 466/330/454 467/124/454 464/333/454
f 465/331/455 468/334/455 469/332/455 466/330/455
f 308/529/456 463/528/456 464/562/456 306/565/456
f 314/507/457 465/678/457 462/679/457 307/508/457
f 467/124/458 477/125/458 479/337/458 464/333/458
f 316/520/459 468/680/459 465/678/459 314/507/459
f 474/4/460 482/340/460 483/339/460 475/3/460
f 476/681/461 484/682/461 480/683/461 472/684/461
f 473/564/462 481/685/462 482/686/462 474/687/462
f 477/125/463 485/349/463 487/348/463 479/337/463
f 315/521/464 472/684/464 478/688/464 470/522/464
f 367/533/465 476/681/465 472/684/465 315/521/465
f 372/2/466 475/3/466 476/352/466 367/351/466
f 306/565/467 473/564/467 474/687/467 385/689/467
f 498/690/468 492/691/468 488/692/468 501/693/468
f 499/358/469 507/361/469 506/360/469 490/359/469
f 313/362/470 493/365/470 495/364/470 496/363/470
f 497/366/471 491/369/471 492/368/471 498/367/471
f 479/563/472 487/694/472 481/685/472 473/564/472
f 472/684/473 480/683/473 486/695/473 478/688/473
f 478/126/474 486/372/474 485/349/474 477/125/474
f 475/3/475 483/339/475 484/373/475 476/352/475
f 489/696/476 495/697/476 493/698/476 471/699/476
f 489/696/477 471/699/477 491/700/477 490/701/477
f 471/699/478 488/702/478 492/703/478 491/700/478
f 471/699/479 493/698/479 494/704/479 488/702/479
f 499/358/480 490/359/480 491/369/480 497/366/480
f 495/364/481 504/384/481 503/383/481 496/363/481
f 501/693/482 488/692/482 494/705/482 502/706/482
f 502/387/483 494/388/483 493/365/483 313/362/483
f 516/389/484 502/387/484 313/362/484 509/390/484
f 515/707/485 501/693/485 502/706/485 516/708/485
f 512/709/486 496/710/486 500/711/486 511/712/486
f 514/397/487 499/358/487 497/366/487 510/398/487
f 510/398/488 497/366/488 498/367/488 513/399/488
f 509/390/489 313/362/489 496/363/489 512/400/489
f 511/712/490 500/711/490 499/713/490 514/714/490
f 513/715/491 498/690/491 501/693/491 515/707/491
f 508/716/492 505/717/492 506/718/492 507/719/492
f 503/720/493 504/721/493 505/717/493 508/716/493
f 500/722/494 508/723/494 507/724/494 499/725/494
f 490/701/495 506/726/495 505/727/495 489/696/495
f 496/728/496 503/729/496 508/723/496 500/722/496
f 489/696/497 505/727/497 504/730/497 495/697/497
f 484/682/498 513/715/498 515/707/498 480/683/498
f 481/685/499 511/712/499 514/714/499 482/686/499
f 485/349/500 509/390/500 512/400/500 487/348/500
f 483/339/501 510/398/501 513/399/501 484/373/501
f 482/340/502 514/397/502 510/398/502 483/339/502
f 487/694/503 512/709/503 511/712/503 481/685/503
f 480/683/504 515/707/504 516/708/504 486/695/504
f 486/372/505 516/389/505 509/390/505 485/349/505
f 252/419/506 517/731/506 518/732/506 251/420/506
f 519/733/507 517/734/507 252/425/507 257/424/507
f 258/427/508 251/420/508 518/732/508 520/735/508
f 24/107/509 258/430/509 520/736/509 366/519/509
f 365/530/510 519/737/510 257/431/510 26/119/510
f 366/532/511 520/735/511 519/737/511 365/530/511
f 362/433/512 521/133/512 522/134/512 363/434/512
f 537/435/513 523/172/513 521/133/513 362/433/513
f 363/434/514 522/134/514 524/149/514 538/436/514
f 538/436/515 524/149/515 523/172/515 537/435/515 545/438/515 546/437/515
f 362/738/516 525/739/516 541/740/516 537/741/516
f 528/443/517 542/446/517 540/445/517 526/444/517
f 538/436/518 544/448/518 529/447/518 363/434/518
f 540/742/519 539/743/519 527/744/519 526/745/519
f 539/743/520 541/740/520 525/739/520 527/744/520
f 528/443/521 530/454/521 543/453/521 542/446/521
f 530/454/522 529/447/522 544/448/522 543/453/522
f 363/746/523 529/747/523 530/748/523 528/749/523 526/750/523 527/751/523 525/752/523 362/753/523
f 378/754/524 538/755/524 546/756/524
f 533/757/525 539/758/525 540/759/525 531/760/525
f 532/761/526 541/762/526 539/758/526 533/757/526
f 535/611/527 542/763/527 543/764/527 536/608/527
f 536/608/528 543/764/528 544/765/528 534/766/528
f 531/760/529 540/759/529 542/763/529 535/611/529
f 381/767/530 537/768/530 541/762/530 532/761/530
f 534/766/531 544/765/531 538/755/531 378/754/531
f 547/769/532 551/770/532 549/771/532 550/772/532 552/610/532 553/609/532 554/773/532 548/774/532
f 545/775/533 537/768/533 381/767/533
f 532/761/534 551/770/534 547/769/534 381/767/534
f 556/776/535 555/777/535 547/769/535 548/774/535
f 381/767/536 547/769/536 555/777/536 545/775/536
f 378/754/537 548/774/537 554/773/537 534/766/537
f 534/766/538 554/773/538 553/609/538 536/608/538
f 531/760/539 550/772/539 549/771/539 533/757/539
f 545/438/540 555/488/540 556/487/540 546/437/540
f 535/611/541 552/610/541 550/772/541 531/760/541
f 546/756/542 556/776/542 548/774/542 378/754/542
f 533/757/543 549/771/543 551/770/543 532/761/543
f 559/778/544 374/779/544 326/780/544 557/781/544
f 558/613/545 561/605/545 377/604/545 560/782/545
f 375/783/546 325/612/546 558/613/546 560/782/546
f 326/606/547 561/605/547 303/496/547 302/495/547
f 299/497/548 303/500/548 561/784/548 558/785/548
f 557/781/549 326/780/549 302/502/549 300/501/549
f 560/184/550 377/504/550 374/503/550 559/183/550
f 562/786/551 575/787/551 574/788/551
f 563/789/552 575/790/552 577/791/552
f 562/792/553 574/793/553 579/794/553
f 562/795/554 579/796/554 581/797/554
f 562/798/555 581/799/555 578/800/555
f 563/789/556 577/791/556 584/801/556
f 564/802/557 576/803/557 586/804/557
f 565/805/558 580/806/558 588/807/558
f 566/808/559 582/809/559 590/810/559
f 567/811/560 583/812/560 592/813/560
f 563/789/561 584/801/561 587/814/561
f 564/802/562 586/804/562 589/815/562
f 565/805/563 588/807/563 591/816/563
f 566/808/564 590/810/564 593/817/564
f 567/811/565 592/813/565 585/818/565
f 568/819/566 594/820/566 599/821/566
f 569/822/567 595/823/567 601/824/567
f 570/825/568 596/826/568 602/827/568
f 571/828/569 597/829/569 603/830/569
f 572/831/570 598/832/570 600/833/570
f 600/833/571 603/834/571 573/835/571
f 600/833/572 598/832/572 603/834/572
f 598/832/573 571/828/573 603/834/573
f 603/830/574 602/836/574 573/837/574
f 603/830/575 597/829/575 602/836/575
f 597/829/576 570/825/576 602/836/576
f 602/827/577 601/838/577 573/839/577
f 602/827/578 596/826/578 601/838/578
f 596/826/579 569/840/579 601/838/579
f 601/824/580 599/841/580 573/842/580
f 601/824/581 595/823/581 599/841/581
f 595/823/582 568/819/582 599/841/582
f 599/821/583 600/843/583 573/844/583
f 599/821/584 594/820/584 600/843/584
f 594/820/585 572/831/585 600/843/585
f 585/818/586 598/832/586 572/831/586
f 585/818/587 592/813/587 598/832/587
f 592/813/588 571/828/588 598/832/588
f 593/817/589 597/829/589 571/828/589
f 593/817/590 590/810/590 597/829/590
f 590/810/591 570/825/591 597/829/591
f 591/816/592 596/826/592 570/825/592
f 591/816/593 588/807/593 596/826/593
f 588/807/594 569/840/594 596/826/594
f 589/815/595 595/823/595 569/822/595
f 589/815/596 586/804/596 595/823/596
f 586/804/597 568/819/597 595/823/597
f 587/814/598 594/820/598 568/819/598
f 587/814/599 584/801/599 594/820/599
f 584/801/600 572/831/600 594/820/600
f 592/813/601 593/817/601 571/828/601
f 592/813/602 583/812/602 593/817/602
f 583/812/603 566/808/603 593/817/603
f 590/810/604 591/816/604 570/825/604
f 590/810/605 582/809/605 591/816/605
f 582/809/606 565/805/606 591/816/606
f 588/807/607 589/845/607 569/840/607
f 588/807/608 580/806/608 589/845/608
f 580/806/609 564/846/609 589/845/609
f 586/804/610 587/814/610 568/819/610
f 586/804/611 576/803/611 587/814/611
f 576/803/612 563/789/612 587/814/612
f 584/801/613 585/818/613 572/831/613
f 584/801/614 577/791/614 585/818/614
f 577/791/615 567/811/615 585/818/615
f 578/800/616 583/812/616 567/811/616
f 578/800/617 581/799/617 583/812/617
f 581/799/618 566/808/618 583/812/618
f 581/797/619 582/809/619 566/808/619
f 581/797/620 579/796/620 582/809/620
f 579/796/621 565/805/621 582/809/621
f 579/794/622 580/806/622 565/805/622
f 579/794/623 574/793/623 580/806/623
f 574/793/624 564/846/624 580/806/624
f 577/791/625 578/847/625 567/811/625
f 577/791/626 575/790/626 578/847/626
f 575/790/627 562/848/627 578/847/627
f 574/788/628 576/803/628 564/802/628
f 574/788/629 575/787/629 576/803/629
f 575/787/630 563/789/630 576/803/630
f 604/786/631 616/788/631 617/787/631
f 605/789/632 619/791/632 617/790/632
f 604/792/633 621/794/633 616/793/633
f 604/795/634 623/797/634 621/796/634
f 604/798/635 620/800/635 623/799/635
f 605/789/636 626/801/636 619/791/636
f 606/802/637 628/804/637 618/803/637
f 607/805/638 630/807/638 622/806/638
f 608/808/639 632/810/639 624/809/639
f 609/811/640 634/813/640 625/812/640
f 605/789/641 629/814/641 626/801/641
f 606/802/642 631/815/642 628/804/642
f 607/805/643 633/816/643 630/807/643
f 608/808/644 635/817/644 632/810/644
f 609/811/645 627/818/645 634/813/645
f 610/819/646 641/821/646 636/820/646
f 611/822/647 643/824/647 637/823/647
f 612/825/648 644/827/648 638/826/648
f 613/828/649 645/830/649 639/829/649
f 614/831/650 642/833/650 640/832/650
f 642/833/651 615/835/651 645/834/651
f 642/833/652 645/834/652 640/832/652
f 640/832/653 645/834/653 613/828/653
f 645/830/654 615/837/654 644/836/654
f 645/830/655 644/836/655 639/829/655
f 639/829/656 644/836/656 612/825/656
f 644/827/657 615/839/657 643/838/657
f 644/827/658 643/838/658 638/826/658
f 638/826/659 643/838/659 611/840/659
f 643/824/660 615/842/660 641/841/660
f 643/824/661 641/841/661 637/823/661
f 637/823/662 641/841/662 610/819/662
f 641/821/663 615/844/663 642/843/663
f 641/821/664 642/843/664 636/820/664
f 636/820/665 642/843/665 614/831/665
f 627/818/666 614/831/666 640/832/666
f 627/818/667 640/832/667 634/813/667
f 634/813/668 640/832/668 613/828/668
f 635/817/669 613/828/669 639/829/669
f 635/817/670 639/829/670 632/810/670
f 632/810/671 639/829/671 612/825/671
f 633/816/672 612/825/672 638/826/672
f 633/816/673 638/826/673 630/807/673
f 630/807/674 638/826/674 611/840/674
f 631/815/675 611/822/675 637/823/675
f 631/815/676 637/823/676 628/804/676
f 628/804/677 637/823/677 610/819/677
f 629/814/678 610/819/678 636/820/678
f 629/814/679 636/820/679 626/801/679
f 626/801/680 636/820/680 614/831/680
f 634/813/681 613/828/681 635/817/681
f 634/813/682 635/817/682 625/812/682
f 625/812/683 635/817/683 608/808/683
f 632/810/684 612/825/684 633/816/684
f 632/810/685 633/816/685 624/809/685
f 624/809/686 633/816/686 607/805/686
f 630/807/687 611/840/687 631/845/687
f 630/807/688 631/845/688 622/806/688
f 622/806/689 631/845/689 606/846/689
f 628/804/690 610/819/690 629/814/690
f 628/804/691 629/814/691 618/803/691
f 618/803/692 629/814/692 605/789/692
f 626/801/693 614/831/693 627/818/693
f 626/801/694 627/818/694 619/791/694
f 619/791/695 627/818/695 609/811/695
f 620/800/696 609/811/696 625/812/696
f 620/800/697 625/812/697 623/799/697
f 623/799/698 625/812/698 608/808/698
f 623/797/699 608/808/699 624/809/699
f 623/797/700 624/809/700 621/796/700
f 621/796/701 624/809/701 607/805/701
f 621/794/702 607/805/702 622/806/702
f 621/794/703 622/806/703 616/793/703
f 616/793/704 622/806/704 606/846/704
f 619/791/705 609/811/705 620/847/705
f 619/791/706 620/847/706 617/790/706
f 617/790/707 620/847/707 604/848/707
f 616/788/708 606/802/708 618/803/708
f 616/788/709 618/803/709 617/787/709
f 617/787/710 618/803/710 605/789/710
