# Blender 5.1.1
# www.blender.org
mtllib low_poly_wolf_animated0014.mtl
o Wolf
v -0.164597 3.333964 -2.140177
v -0.513392 1.312493 -2.152586
v 0.014469 3.759876 -0.990770
v -0.492070 1.560149 -2.519931
v -0.707723 1.446089 -1.902500
v 0.139224 3.798658 3.078452
v 0.572529 3.654992 0.295483
v -0.551072 2.883228 -2.035396
v 0.233985 2.230542 -0.239256
v -0.774403 2.160052 -1.379308
v 0.313160 3.789968 2.802892
v -0.571847 1.571707 -1.683900
v -0.614802 3.185042 -1.074975
v -0.853172 0.209099 -2.957897
v 0.682406 2.981210 -1.787116
v -0.297390 2.071877 -1.491580
v -0.849381 2.147680 -1.848597
v -0.104832 2.874499 1.696413
v -0.561049 1.596859 -2.565999
v 0.324861 2.391104 -0.756512
v -0.151350 2.147510 0.301661
v -0.429461 0.904747 2.103709
v 0.454699 1.659682 -2.199404
v -0.600066 1.928944 0.502480
v -0.279648 0.871458 1.870928
v -0.115230 2.906988 -2.245396
v -0.482469 3.285519 -1.215667
v 0.332611 2.154866 0.283644
v -0.540145 2.850835 -0.216658
v -0.408660 1.949899 0.822096
v 0.520570 1.467606 -2.792956
v -0.420360 2.444672 -1.005778
v -0.475055 3.362318 1.419540
v -0.158826 2.116938 -3.210371
v 0.137649 2.173176 -1.608610
v -0.572446 2.794603 0.207004
v -0.226992 4.058188 0.957922
v -0.276510 1.135514 1.813512
v -0.435167 3.639522 0.332984
v -0.505651 2.019711 0.861192
v -0.448070 3.469296 1.226523
v 0.615460 3.829216 1.136832
v 0.454034 4.397000 2.634773
v -0.383319 4.804639 2.116917
v 0.433218 4.425722 2.648057
v 0.417281 4.433174 2.655675
v -0.790658 2.737846 -1.600323
v 0.381994 4.430696 2.669212
v -0.120344 4.220811 2.635672
v 0.353502 4.406768 2.676292
v 0.345435 4.389377 2.676435
v 0.655235 4.010383 2.149702
v 0.345528 4.352077 2.669850
v 0.353680 4.335822 2.663767
v -0.055676 2.919475 -2.310354
v 0.382282 4.315904 2.648947
v 0.399933 4.314190 2.641660
v 0.417569 4.318381 2.635411
v 0.652799 3.576050 1.009187
v 0.446060 4.342309 2.628330
v 0.454128 4.359705 2.628186
v -0.603126 1.050099 2.053628
v 0.454034 4.407652 2.628134
v -0.093652 4.388672 2.673362
v 0.433218 4.436502 2.640985
v 0.417281 4.444059 2.648485
v -0.494846 1.119426 2.110625
v 0.381994 4.441824 2.662036
v 0.940095 0.965503 2.073510
v 0.353502 4.418169 2.669410
v 0.345435 4.400913 2.669767
v 0.489178 3.178857 -1.562895
v 0.345528 4.363753 2.663686
v 0.353680 4.347448 2.657861
v 0.645064 1.236283 1.534907
v 0.382282 4.327240 2.643417
v 0.399933 4.325350 2.636191
v 0.417569 4.329369 2.629910
v -0.413773 4.531037 2.008058
v 0.446060 4.353046 2.622502
v 0.454128 4.370370 2.622105
v -0.153232 4.653305 2.495067
v -0.452637 2.715234 -2.183223
v -0.115845 4.134135 0.816258
v -0.260431 2.399773 -0.728352
v -0.120529 1.881512 -3.221532
v 0.666298 0.634431 -3.180317
v 0.830145 2.499589 -1.622384
v 0.393858 4.385510 2.650779
v -0.062863 4.356604 2.645194
v 0.715767 3.488962 0.251360
v 0.510482 3.423703 1.845554
v -0.475186 3.097231 -2.012380
v 0.696580 2.740391 -1.991239
v -0.536343 2.860206 1.443854
v 0.139162 2.956553 1.905419
v 0.035033 4.335315 2.738867
v 0.446216 2.702629 -2.198024
v -0.765823 2.701957 -1.202830
v -0.472386 0.982853 2.242369
v 0.571863 1.571730 -1.683765
v 0.471159 4.396019 2.581420
v 0.466973 4.423241 2.587438
v 0.454962 4.447246 2.596051
v 0.436303 4.465730 2.606390
v 0.412821 4.476873 2.617435
v 0.386815 4.479590 2.628115
v 0.360832 4.473593 2.637388
v 0.337413 4.459508 2.644328
v 0.318852 4.438712 2.648258
v 0.306966 4.413247 2.648800
v 0.302917 4.385596 2.645906
v 0.307104 4.358421 2.639881
v 0.319114 4.334386 2.631312
v 0.337774 4.315854 2.621023
v 0.361256 4.304658 2.610007
v 0.387261 4.301880 2.599351
v 0.413245 4.307790 2.590104
v 0.436664 4.321875 2.583147
v 0.455224 4.342710 2.579174
v 0.467110 4.368269 2.578572
v -0.137663 4.402994 2.651083
v -0.637647 1.180329 -2.840018
v 0.558560 1.049589 -2.644272
v -0.116415 4.432233 2.662247
v -0.100073 4.440084 2.668467
v 0.441143 4.381833 2.628858
v -0.063795 4.438499 2.679197
v -0.359956 2.143978 -2.012879
v -0.034390 4.415367 2.684311
v -0.026011 4.398260 2.684036
v -0.558560 1.049589 -2.644272
v -0.025917 4.360998 2.678040
v -0.034213 4.344549 2.672872
v -0.402994 1.208154 1.522353
v -0.063507 4.323835 2.660715
v -0.081639 4.321632 2.654895
v -0.099785 4.325338 2.650016
v -0.639752 3.067877 1.330094
v -0.129189 4.348512 2.644859
v -0.137569 4.365696 2.645092
v 0.470330 3.098836 -2.020168
v 0.650182 4.813439 2.076519
v -0.686754 1.571805 -2.459884
v 0.185598 3.831238 3.210133
v -0.336685 3.953531 0.774025
v -0.079460 4.353255 2.641121
v -0.186455 2.218255 0.605808
v -0.199273 4.691384 2.355711
v 0.261340 4.002333 3.241412
v -0.594787 1.002523 1.896134
v 0.472959 2.180785 -2.259262
v -0.587111 0.168928 -2.977021
v 0.705660 3.372531 1.373319
v 0.027344 3.787273 2.814099
v 0.791993 2.691161 1.275633
v -0.751112 2.358761 -2.015844
v -0.018345 3.316829 2.146587
v -0.062916 4.370521 2.663436
v -0.479650 1.964589 0.311088
v 0.301945 2.072892 -1.493310
v -0.158200 4.390989 2.605864
v -0.154035 4.418292 2.611528
v -0.141813 4.442522 2.619162
v -0.122730 4.461349 2.627997
v -0.098652 4.472923 2.637157
v -0.071937 4.476115 2.645758
v -0.045201 4.470593 2.652960
v -0.021060 4.456932 2.658042
v -0.001878 4.436466 2.660508
v 0.010469 4.411203 2.660127
v 0.014771 4.383596 2.656944
v 0.010607 4.356323 2.651281
v -0.001615 4.332063 2.643688
v -0.020699 4.313193 2.634898
v -0.044777 4.301577 2.625759
v -0.071492 4.298334 2.617177
v -0.098228 4.303780 2.609995
v -0.122369 4.317447 2.604896
v -0.141551 4.337954 2.602387
v -0.153898 4.363306 2.602714
v 0.544291 4.121333 1.141499
v 0.791741 2.739542 -1.604369
v 0.376027 3.962480 2.979735
v -0.454699 1.659682 -2.199404
v -0.203807 3.868685 0.305678
v 0.141275 3.987817 0.589666
v -0.738349 1.763884 -1.540952
v -0.682912 2.978350 -1.779299
v -0.644208 2.263006 0.903692
v -0.821739 1.806617 -1.731439
v 0.686493 4.019065 1.723761
v 0.476659 2.062686 -1.187086
v -0.480461 3.168237 -1.536166
v 0.521337 4.105706 2.514102
v -0.463424 2.059844 -1.180794
v 0.707723 1.446088 -1.902500
v 0.176527 4.329493 2.858535
v -0.352213 3.012800 -2.156473
v 0.111252 2.201336 0.865409
v -0.659773 2.714684 1.168462
v -0.172983 4.287447 1.145124
v -0.500709 1.216151 -2.778432
v -0.491289 3.566510 -0.179851
v 0.153174 3.498323 -1.907925
v -0.467231 2.512656 -0.257455
v -0.310943 4.694921 2.014518
v 0.596118 1.956724 0.321900
v 0.804318 2.334740 0.633380
v -0.576270 3.469912 0.299753
v -0.472972 1.686204 0.559896
v -0.392147 3.622907 1.338255
v -0.359363 3.985846 2.051455
v -0.523566 3.400624 -0.174261
v -0.591279 1.451882 -2.791424
v 0.372715 3.753335 2.439817
v -0.518557 3.243634 0.634999
v 0.660124 2.869068 -0.261477
v -0.465623 3.041480 -0.678896
v 0.182168 3.806901 3.116791
v -0.409293 4.487855 2.154083
v 0.591279 1.451882 -2.791424
v -0.137663 4.391421 2.657972
v -0.019353 1.822859 -3.614106
v -0.188776 3.617481 -1.406586
v -0.116415 4.420539 2.669607
v -0.100073 4.428296 2.675960
v -0.544137 0.549754 -2.960495
v -0.063795 4.426494 2.686690
v 0.845019 0.200128 -2.946996
v -0.034390 4.403111 2.691501
v -0.026011 4.385875 2.690999
v -0.536097 0.836333 1.884217
v -0.025917 4.348576 2.684414
v -0.034213 4.332165 2.678976
v -0.163635 1.823969 -3.607631
v -0.063507 4.311701 2.666426
v -0.081639 4.309650 2.660542
v -0.099785 4.313503 2.655696
v 0.849384 2.147678 -1.848586
v -0.129189 4.336885 2.650885
v -0.137569 4.354126 2.651386
v -0.750287 0.330500 -2.808516
v -0.071029 1.858114 -3.158803
v -0.514078 1.229006 1.813637
v 0.500151 3.960000 0.734841
v 0.195889 3.618839 -1.424845
v 0.057794 3.810686 2.893254
v 0.388320 4.458425 2.704387
v 0.745573 3.039569 -1.008464
v -0.217327 4.522438 2.530298
v 0.452451 4.658644 2.471467
v -0.110027 3.065867 -2.433054
v -0.103819 4.355258 2.644146
v 0.257564 3.801551 3.007763
v 0.222274 3.806330 3.080620
v -0.452721 3.326677 -0.728366
v -0.209382 3.777702 -0.269526
v -0.093212 1.667063 -3.620518
v 0.544156 3.056607 -0.716087
v 0.388120 2.226990 0.584363
v 0.453693 2.600007 -0.744893
v 0.567741 4.401742 1.610133
v -0.457915 3.562277 1.052011
v -0.026969 2.598829 -2.511230
v 0.666087 1.982015 0.268298
v -0.854394 0.214332 -2.961973
v 0.002934 4.232114 2.845287
v -0.076096 4.381657 2.668915
v -0.327923 2.629727 -2.218705
v 0.886053 2.736678 1.110554
v 0.550647 2.035494 0.458333
v -0.692047 2.966803 -1.454379
v -0.329713 3.582131 -0.773026
v 0.738347 1.763928 -1.540827
v 0.699318 4.978120 2.090589
v 0.459166 1.756977 -1.668044
v -0.502281 0.622425 -3.160250
v 0.699529 2.974253 -1.472789
v -0.024721 3.958701 2.995448
v 0.821752 1.806633 -1.731315
v 0.702984 1.224977 1.481048
v 0.781935 0.923173 2.058465
v 0.104020 4.386589 1.271175
v 0.442258 0.319578 -3.059748
v 0.112840 2.777088 -2.521411
v 0.380482 4.374165 2.646319
v 0.007461 2.278634 -1.929325
v 0.182020 3.800010 3.111373
v 0.288566 3.812862 2.884206
v -0.163775 2.777907 -2.511939
v 0.257712 3.808441 3.013181
v 0.795521 1.076623 1.710324
v 0.761698 4.890229 2.102130
v 0.519089 3.341122 -0.764104
v -0.294110 3.835885 1.048398
v -0.588089 2.293998 -2.223813
v 0.320034 4.292984 2.759047
v 0.561049 1.596859 -2.565999
v 0.873934 0.857781 1.831555
v 0.222127 3.799440 3.075202
v 0.676764 4.540232 1.964810
v 0.592423 3.582995 -0.220326
v 0.510936 3.298829 -1.248694
v 0.513392 1.312492 -2.152586
v 0.478402 4.741563 2.104970
v 0.110239 3.999897 3.244794
v 0.009310 2.234011 -1.350448
v -0.244068 2.363672 -1.085519
v 0.411596 4.392815 2.653861
v -0.729230 0.199941 -3.017596
v -0.406423 1.596700 1.317178
v 0.598830 2.358956 0.395747
v 0.238990 2.223429 -1.862423
v 0.689927 3.260756 0.589662
v 0.660785 3.479671 1.183078
v 0.865030 0.350168 -2.936227
v 0.948286 0.963789 2.061563
v -0.358193 2.224076 0.363174
v -0.666298 0.634431 -3.180317
v -0.058250 4.361848 2.651641
v -0.341588 1.221275 1.571757
v 0.834796 1.249524 1.763260
v 0.793357 3.222434 0.784807
v 0.321626 4.291290 2.686198
v 0.486553 3.842726 1.016687
v -0.605966 3.202885 0.837427
v 0.702320 0.548214 -3.024787
v 0.477949 2.172625 0.383288
v -0.375647 2.589401 -0.717964
v -0.068504 2.268651 -3.230873
v -0.696571 2.740610 -1.990324
v 0.928274 1.025690 1.839251
v 0.729230 0.199941 -3.017595
v -0.113879 4.360116 2.651242
v 0.151795 4.727547 2.556994
v -0.009274 3.362684 -2.264486
v 0.731353 2.038527 0.814992
v -0.180003 4.021323 0.708356
v 0.348823 2.946968 -2.174299
v 0.877996 1.933316 0.827438
v -0.503511 3.797923 0.827196
v -0.865030 0.350168 -2.936227
v -0.242024 3.418005 1.875198
v -0.342634 4.115108 1.178246
v -0.319100 4.415048 1.627776
v -0.289334 2.160961 0.411922
v 0.024553 2.275938 -0.722288
v -0.339560 2.323213 -0.243945
v 0.531885 2.447765 1.236818
v -0.596275 0.940295 2.119250
v 0.386428 3.592699 -0.799555
v -0.159631 3.426610 2.059040
v 0.481088 3.883343 2.362802
v 0.367361 2.879184 1.678441
v 0.161553 4.547690 2.766995
v -0.298068 3.140031 1.740421
v -0.463976 3.892730 1.424947
v -0.711723 0.139561 -2.808043
v 0.087806 2.143197 0.213223
v -0.577205 2.482076 -1.032423
v -0.368858 4.001758 2.189987
v -0.472805 2.181036 -2.259367
v -0.530524 3.683240 1.519759
v 0.309184 3.778923 -0.294290
v 0.651898 1.413271 1.564858
v 0.679300 1.613215 1.276629
v 0.749592 1.545558 1.528644
v -0.010028 2.912623 1.828966
v -0.520570 1.467606 -2.792957
v -0.060687 3.742664 2.408172
v 0.725664 2.814243 0.158592
v 0.511971 2.844894 -0.692223
v -0.470451 0.889154 2.184574
v 0.888177 1.454215 1.551591
v 0.652651 3.201343 -1.115186
v 0.521387 4.528975 2.501489
v 0.558875 3.147418 1.707099
v 0.612887 3.630911 1.297939
v 0.379554 3.504097 -1.323197
v -0.410998 3.820974 1.178519
v 0.686594 2.920749 0.519558
v 0.853172 0.209099 -2.957897
v -0.702380 3.022774 -0.967092
v 0.150886 3.335144 -2.145091
v 0.544137 0.549753 -2.960495
v -0.781186 0.111743 -2.909726
v 0.098729 3.806942 3.019415
v 0.205350 3.726807 3.099366
v 0.801467 1.950262 0.450136
v 0.423613 4.391953 2.648309
v 0.731760 1.165674 1.877806
v 0.323834 2.629059 -2.220918
v 0.310959 3.319651 2.134187
v -0.619242 2.773845 0.741004
v 0.018542 2.115622 -3.218200
v 0.324284 4.093264 0.785400
v 0.551961 4.643877 1.858519
v 0.041709 3.787911 3.108962
v -0.600920 2.313365 0.685863
v 0.411717 4.489475 1.584921
v -0.509862 2.902702 0.564125
v -0.493645 4.879638 2.151209
v 0.779521 2.162382 -1.384696
v 0.754795 2.439641 1.112533
v 0.251054 4.050274 3.336314
v -0.106040 4.387588 2.668767
v -0.405143 1.941495 0.359295
v -0.647694 1.910107 0.884418
v 0.779116 2.876854 1.394138
v 0.630057 3.418160 -0.217347
v -0.207430 2.332001 1.085868
v 0.584111 2.192743 0.926949
v 0.946886 1.073675 1.995738
v 0.949801 0.964213 2.055781
v 0.854394 0.214332 -2.961973
v 0.812591 2.795346 0.687687
v -0.163693 3.496174 -1.902506
v 0.459958 2.452275 -1.023065
v 0.765852 3.692746 1.467352
v 0.321916 3.790553 3.097975
v -0.288416 2.435694 1.267492
v -0.027843 1.880795 -3.225697
v 0.122405 2.353181 1.231724
v 0.333494 3.413993 -1.783049
v 0.829295 0.908924 2.136031
v -0.355222 2.178455 0.962031
v 0.779910 2.709219 -1.220157
v 0.191852 2.499567 -2.142329
v -0.642905 1.105541 -2.603328
v 0.420050 4.359646 2.623862
v -0.830148 2.499585 -1.622385
v 0.074649 3.065935 -2.438229
v -0.152278 2.174592 -1.595847
v 0.500709 1.216151 -2.778432
v 0.492070 1.560149 -2.519931
v 0.616259 0.885086 1.837468
v -0.477340 0.286191 -2.867894
v -0.124841 4.377109 2.650758
v -0.351543 1.398008 1.602334
v -0.589287 1.431742 1.606771
v -0.067710 4.454938 2.721801
v 0.546011 2.883076 -2.042625
v 0.409108 4.063834 0.933091
v 0.116806 4.068588 3.308589
v -0.442258 0.319578 -3.059749
v 0.251566 4.789732 2.207866
v -0.275040 1.025256 2.110414
v 0.686441 1.703839 0.516596
v 0.047732 3.723603 2.766904
v 0.395546 4.357253 2.622726
v 0.600830 1.148860 1.780745
v 0.635147 3.994019 2.012208
v -0.121592 4.367980 2.653927
v -0.433843 4.011435 1.768217
v -0.190738 2.497301 -2.137091
v 0.477340 0.286190 -2.867894
v 0.594715 2.528709 -0.297060
v -0.702320 0.548214 -3.024787
v -0.587272 0.942270 2.130554
v 0.604361 2.489604 -1.049906
v -0.400288 1.148455 1.920087
v -0.006003 3.556250 -1.952832
v 0.441371 2.341870 1.061637
v -0.341008 3.407216 -1.765866
v 0.624855 1.038944 2.076805
v -0.631911 3.241063 1.062320
v 0.841102 1.139747 2.060730
v 0.750287 0.330499 -2.808516
v -0.845019 0.200128 -2.946996
v 0.781186 0.111743 -2.909726
v 0.333206 3.879445 0.287451
v -0.032029 2.915176 -2.724706
v 0.038555 4.524875 1.607419
v -0.132533 4.669372 1.857103
v 0.057646 3.803796 2.887837
v -0.429707 2.831274 -0.658840
v 0.369963 4.290887 1.120847
v -0.236096 2.222903 -1.863853
v 0.865240 2.285966 0.847316
v 0.835193 3.260375 1.006764
v -0.458965 1.756920 -1.668232
v 0.689145 3.901747 1.376577
v 0.375062 4.365434 2.634898
v 0.541031 2.237743 0.329618
v 0.686755 1.571805 -2.459884
v 0.060931 3.873060 0.196852
v -0.782513 0.335650 -3.174549
v -0.455638 1.527225 1.573657
v 0.711723 0.139561 -2.808043
v 0.642905 1.105540 -2.603328
v 0.639828 3.197130 1.513578
v 0.139371 3.805548 3.083870
v -0.433946 4.968556 2.134555
v 0.633881 1.965757 0.783159
v 0.413380 3.780605 2.650398
v 0.100834 2.155057 0.567568
v -0.361472 3.494174 -1.298707
v -0.114368 1.817349 -4.092163
v -0.598229 0.940666 2.113597
v 0.486965 4.697383 2.328930
v 0.502281 0.622425 -3.160249
v -0.518866 0.307408 -3.192759
v 0.063029 2.909330 -2.251576
v 0.430554 4.364662 2.630167
v 0.658757 1.132483 -2.703573
v 0.379254 4.360271 2.628106
v 0.751113 2.358760 -2.015843
v 0.438315 4.372652 2.632257
v -0.658758 1.132483 -2.703573
v -0.414554 2.343548 0.433577
v 0.894509 2.376399 0.732598
v 0.637647 1.180329 -2.840018
v 0.782513 0.335650 -3.174549
v 0.098581 3.800052 3.013997
v 0.282561 2.915275 1.817790
v 0.438274 4.225320 2.614033
v 0.673925 3.812855 0.780978
v 0.086924 3.036637 -2.288196
v 0.155966 3.634895 2.411318
v -0.395247 3.188161 1.553716
v 0.518866 0.307408 -3.192758
v -0.519653 2.420870 1.160153
v -0.473627 1.057319 1.757725
v -0.084314 3.776733 2.670147
v 0.684254 4.497346 2.111170
v 0.158293 3.413832 2.222535
v 0.360976 2.144563 -2.012204
v -0.552547 2.672463 1.326063
v -0.208670 4.099818 2.542564
v 0.588048 2.294068 -2.223836
v 0.286043 2.368678 -1.096889
v 0.127678 2.628572 1.496322
v -0.176261 3.877667 2.388706
v 0.474083 2.335091 -0.274092
v -0.094446 2.226275 -0.227443
v 0.868145 3.086816 1.272849
v -0.684684 2.352378 0.791581
v 0.354437 4.683751 1.850361
v 0.443346 3.431682 2.035369
v 0.832688 1.002704 2.193627
v 0.288419 3.805972 2.878788
v 0.290333 3.725940 2.757411
v -0.352037 2.021764 0.492047
v 0.587111 0.168928 -2.977021
v -0.182122 4.741135 2.179203
vn 0.3633 -0.1611 0.9176
vn 0.7292 0.0630 -0.6814
vn 0.3634 -0.1608 0.9176
vn -0.9923 0.0207 -0.1221
vn -0.8325 -0.3920 0.3915
vn -0.3177 -0.6177 0.7194
vn 0.7562 -0.0036 -0.6543
vn -0.0800 0.9847 -0.1550
vn 0.3633 -0.1609 0.9177
vn 0.9307 -0.3188 -0.1795
vn -0.9202 -0.3808 -0.0904
vn -0.9716 0.1840 -0.1488
vn -0.2140 -0.6063 0.7659
vn -0.8251 0.2427 0.5102
vn -0.9859 -0.1557 -0.0605
vn -0.7270 -0.5212 0.4471
vn 0.9966 0.0772 -0.0295
vn 0.5425 -0.3997 0.7389
vn -0.7074 0.2896 -0.6447
vn 0.5896 0.7915 -0.1611
vn -0.1257 -0.7712 -0.6241
vn -0.1552 -0.9554 -0.2511
vn 0.7937 0.5179 -0.3190
vn 0.8539 0.5111 -0.0977
vn -0.9924 0.0285 -0.1193
vn -0.0269 -0.8374 -0.5460
vn 0.8614 -0.4600 0.2153
vn 0.4301 -0.9021 0.0338
vn -0.8827 0.1289 -0.4520
vn 0.3635 -0.1611 0.9176
vn 0.1867 0.8115 -0.5537
vn -0.5787 0.7985 -0.1656
vn -0.2277 -0.9734 -0.0263
vn 0.9882 -0.0697 -0.1361
vn -0.6232 0.7816 -0.0280
vn 0.5070 0.7952 -0.3324
vn 0.6809 0.1772 -0.7106
vn 0.6985 0.6214 0.3550
vn -0.0933 0.9687 -0.2302
vn 0.9870 0.1548 0.0426
vn -0.0116 0.9810 -0.1939
vn -0.9024 -0.4200 -0.0965
vn 0.9733 0.0880 -0.2120
vn -0.1434 -0.5683 0.8102
vn -0.0275 -0.5173 0.8554
vn -0.6090 -0.7410 -0.2830
vn -0.1194 0.9828 0.1409
vn -0.1392 -0.8854 0.4434
vn 0.8917 -0.3430 -0.2954
vn -0.9873 0.1406 0.0744
vn -0.9451 -0.0121 -0.3265
vn -0.4217 -0.9033 0.0794
vn 0.2004 0.9298 -0.3087
vn 0.6725 -0.6287 0.3905
vn 0.9765 -0.1780 -0.1215
vn 0.4178 0.7466 -0.5177
vn 0.2800 0.9438 0.1755
vn -0.2686 -0.7479 0.6071
vn 0.6191 0.7381 0.2682
vn -0.4118 -0.9075 0.0829
vn -0.0385 -0.0781 0.9962
vn -0.7922 0.4106 -0.4515
vn -0.2196 0.0468 0.9745
vn -0.6900 0.6124 0.3858
vn 0.3632 -0.1612 0.9177
vn -0.5354 -0.4048 0.7413
vn -0.2232 0.0777 -0.9717
vn 0.9861 -0.1616 0.0375
vn -0.2638 0.7455 -0.6121
vn -0.3940 0.6144 -0.6836
vn -0.8188 -0.3052 0.4863
vn -0.9868 0.1444 -0.0736
vn -0.8996 0.4363 0.0181
vn 0.3520 -0.3060 0.8845
vn 0.8864 0.4597 -0.0550
vn -0.8273 -0.4971 -0.2618
vn -0.0635 -0.8999 0.4314
vn -0.6248 0.2765 -0.7302
vn -0.7024 0.6438 -0.3035
vn 0.9574 -0.2819 0.0628
vn 0.2433 -0.9273 0.2844
vn -0.2751 0.1778 -0.9448
vn 0.9942 0.0829 -0.0691
vn -0.3836 -0.6215 -0.6830
vn 0.0417 0.8105 -0.5842
vn 0.7086 0.2867 -0.6447
vn -0.6394 -0.4615 0.6149
vn -0.9392 0.2180 -0.2654
vn 0.3771 -0.6197 -0.6883
vn -0.6989 -0.2213 0.6801
vn -0.9594 0.2056 -0.1929
vn -0.4400 -0.4497 0.7773
vn -0.9413 0.2586 0.2171
vn -0.3484 -0.9154 -0.2016
vn -0.0463 -0.7483 0.6618
vn -0.2797 -0.6657 0.6918
vn -0.2065 -0.7454 0.6338
vn 0.9981 0.0592 -0.0172
vn 0.1153 -0.8551 0.5055
vn -0.9907 0.0716 -0.1154
vn -0.5840 0.5416 -0.6046
vn -0.4121 -0.4822 0.7731
vn 0.3324 -0.7663 -0.5498
vn -0.4121 -0.4817 0.7734
vn 0.8730 -0.3994 0.2799
vn -0.1401 0.3972 -0.9070
vn 0.8728 -0.4001 0.2796
vn 0.7736 0.6226 0.1179
vn 0.9094 -0.2298 0.3467
vn 0.3410 -0.8415 0.4191
vn -0.1857 -0.6849 0.7046
vn 0.6544 -0.6923 0.3042
vn 0.7400 -0.6020 0.3001
vn 0.5556 -0.7112 0.4307
vn 0.5553 0.6102 0.5651
vn 0.8156 0.4041 0.4141
vn 0.9320 0.3622 -0.0151
vn -0.3151 0.3487 0.8827
vn 0.9568 -0.0441 0.2873
vn 0.7492 -0.6596 -0.0593
vn -0.9049 -0.0440 0.4234
vn 0.7228 0.4248 0.5451
vn 0.8717 0.2960 0.3905
vn -0.4144 0.2123 0.8850
vn -0.2819 0.4151 0.8650
vn -0.4144 0.2120 0.8850
vn 0.6471 0.4810 0.5916
vn -0.5081 -0.1403 0.8498
vn 0.2226 0.6858 0.6929
vn -0.6932 0.4227 0.5837
vn -0.2071 0.5098 0.8350
vn -0.8915 0.3886 -0.2326
vn -0.0479 0.5044 0.8621
vn -0.8722 0.3857 0.3007
vn 0.9925 -0.0339 0.1174
vn 0.4711 0.7916 0.3891
vn 0.1156 -0.8553 0.5051
vn -0.8698 0.4925 -0.0299
vn -0.5541 0.7305 0.3992
vn -0.4823 -0.2598 0.8366
vn -0.7431 -0.0130 -0.6690
vn 0.9901 -0.0334 0.1362
vn -0.7953 0.4847 -0.3641
vn -0.7735 0.6115 0.1666
vn -0.7164 0.6788 0.1613
vn -0.7981 -0.0190 -0.6022
vn 0.9426 -0.1672 0.2892
vn -0.8145 0.4917 0.3079
vn 0.3406 -0.8417 0.4191
vn -0.9143 0.2173 -0.3419
vn 0.0566 -0.5326 0.8445
vn -0.9104 -0.2583 0.3232
vn -0.7644 -0.5967 0.2441
vn -0.9844 -0.0389 0.1714
vn 0.9881 0.0351 -0.1496
vn -0.6985 -0.2169 0.6820
vn 0.3408 0.6702 0.6593
vn 0.3941 0.6143 -0.6836
vn -0.4447 -0.8914 0.0870
vn 0.9100 0.0489 0.4118
vn 0.5920 0.7813 -0.1975
vn -0.6190 -0.5859 0.5230
vn -0.2101 -0.7288 0.6516
vn 0.9091 0.3359 -0.2465
vn -0.6401 -0.6623 0.3893
vn -0.6947 -0.4409 0.5683
vn -0.4009 -0.0371 0.9153
vn 0.8928 -0.4161 -0.1726
vn 0.3494 -0.8437 -0.4075
vn 0.1494 0.5851 0.7971
vn 0.2460 -0.6279 0.7383
vn -0.9854 -0.0312 0.1671
vn -0.8675 0.4642 -0.1789
vn -0.8816 0.4541 0.1284
vn -0.8365 0.4626 0.2936
vn 0.7842 -0.2749 0.5563
vn -0.0967 0.5837 0.8062
vn 0.8908 0.3340 0.3082
vn 0.9795 -0.1951 0.0505
vn 0.4723 -0.0280 0.8810
vn -0.9986 -0.0461 -0.0247
vn -0.5039 0.6621 0.5547
vn -0.4652 -0.1272 0.8760
vn -0.9568 0.1532 -0.2470
vn 0.0269 -0.8374 -0.5460
vn -0.7695 -0.1867 0.6108
vn -0.8755 0.0335 0.4821
vn -0.0104 -0.7766 -0.6299
vn -0.2944 0.8982 -0.3266
vn -0.2997 0.6651 0.6840
vn -0.6987 0.6073 0.3782
vn -0.7220 0.2966 -0.6251
vn 0.7830 -0.5270 -0.3305
vn -0.5426 -0.7647 0.3477
vn -0.8813 0.0448 -0.4704
vn 0.7239 0.5870 -0.3625
vn 0.9971 0.0041 0.0762
vn -0.2919 -0.8468 0.4446
vn -0.8292 0.4958 -0.2582
vn -0.9138 -0.1833 0.3624
vn -0.9666 -0.2102 -0.1466
vn 0.0140 0.8642 0.5029
vn 0.5460 0.8003 -0.2479
vn 0.6674 -0.5745 0.4739
vn -0.2912 -0.9453 0.1472
vn -0.7945 -0.5533 -0.2502
vn 0.5513 -0.2495 0.7961
vn -0.3368 0.2472 -0.9086
vn 0.8835 -0.0792 0.4618
vn -0.0607 -0.8564 0.5127
vn 0.9849 -0.0437 -0.1677
vn 0.1325 0.9255 -0.3548
vn 0.0754 0.9529 -0.2938
vn 0.1066 0.5066 0.8556
vn -0.8442 -0.0188 -0.5357
vn 0.2630 0.5147 0.8160
vn -0.8360 0.4716 0.2805
vn -0.1796 0.6829 0.7081
vn 0.5751 -0.1285 0.8079
vn -0.7847 0.0571 -0.6172
vn 0.4787 0.2208 0.8498
vn 0.3416 0.4214 0.8401
vn 0.4786 0.2211 0.8497
vn -0.8434 0.2812 0.4578
vn -0.6851 0.4128 0.6002
vn 0.8426 0.1552 -0.5157
vn 0.8956 0.3846 -0.2238
vn -0.9303 -0.0604 0.3617
vn -0.3591 -0.8683 0.3422
vn 0.6639 0.3177 -0.6769
vn -0.5198 0.6012 0.6069
vn -0.7876 0.3902 0.4769
vn -0.5199 0.6012 0.6069
vn -0.5076 -0.7201 0.4731
vn -0.7035 -0.6143 0.3575
vn -0.6163 -0.7031 0.3547
vn 0.9126 -0.1731 0.3703
vn -0.2925 -0.8466 0.4447
vn -0.9801 -0.1091 0.1657
vn -0.8528 0.4799 -0.2060
vn -0.8410 -0.4148 0.3474
vn -0.9601 -0.1444 0.2394
vn -0.8412 -0.4141 0.3478
vn 0.4801 -0.4731 0.7387
vn -0.0566 -0.5326 0.8445
vn 0.4801 -0.4740 0.7381
vn -0.4570 -0.3704 0.8087
vn -0.9591 -0.1310 0.2509
vn -0.0606 -0.8563 0.5128
vn 0.0239 -0.5017 -0.8647
vn 0.2684 -0.7409 0.6156
vn 0.3449 -0.6598 0.6676
vn 0.1112 -0.7465 0.6560
vn 0.9881 -0.0449 0.1468
vn -0.6321 -0.4502 0.6306
vn -0.9827 0.1545 -0.1020
vn -0.9770 -0.2106 -0.0323
vn 0.7005 0.3064 -0.6445
vn -0.7287 0.0050 0.6848
vn 0.6006 -0.4341 0.6715
vn 0.9868 -0.0368 0.1580
vn -0.6296 0.4833 0.6083
vn 0.9866 0.1206 -0.1104
vn 0.9860 -0.1607 0.0447
vn -0.6259 0.1618 0.7629
vn 0.3248 0.1731 0.9298
vn 0.1497 -0.6865 0.7115
vn -0.9377 -0.2796 0.2061
vn 0.1023 0.1365 -0.9854
vn 0.5882 0.5317 -0.6093
vn -0.4002 0.8983 -0.1816
vn 0.9152 -0.0110 0.4028
vn -0.4433 0.7412 -0.5042
vn -0.2359 0.9411 0.2423
vn -0.6779 -0.4440 0.5860
vn 0.9783 -0.1275 0.1631
vn 0.9794 -0.1951 0.0527
vn -0.9616 0.0860 0.2606
vn 0.6143 0.7851 -0.0789
vn 0.9898 -0.1108 -0.0891
vn 0.9781 0.1513 -0.1426
vn 0.8328 0.5444 0.1001
vn -0.2872 -0.1673 0.9432
vn 0.7997 0.5016 0.3300
vn 0.0629 0.9155 -0.3974
vn 0.6813 -0.0085 -0.7319
vn 0.3178 -0.4708 0.8230
vn -0.5824 -0.2719 0.7661
vn -0.7330 0.6392 -0.2324
vn -0.2873 -0.1672 0.9431
vn -0.7279 0.5912 -0.3472
vn 0.8264 -0.3977 0.3987
vn -0.2874 -0.1672 0.9431
vn -0.3979 0.6876 0.6074
vn -0.1278 0.0952 -0.9872
vn 0.3536 0.4119 0.8398
vn 0.9220 -0.3528 -0.1591
vn -0.8334 -0.0768 0.5472
vn -0.6866 0.6559 -0.3136
vn 0.1740 -0.9357 0.3070
vn 0.2779 -0.7243 0.6310
vn -0.7161 0.6775 -0.1680
vn -0.5426 -0.6401 0.5440
vn 0.7079 0.6849 -0.1726
vn -0.6882 0.7255 0.0064
vn -0.8803 0.4437 -0.1679
vn 0.8665 -0.3810 0.3225
vn -0.1324 -0.9826 -0.1305
vn 0.9570 0.1527 -0.2469
vn 0.7470 -0.1462 0.6486
vn 0.7557 0.2119 0.6197
vn 0.8608 0.4117 -0.2992
vn -0.3530 -0.8544 -0.3812
vn -0.8206 0.5489 0.1594
vn 0.9531 -0.2850 0.1015
vn 0.9273 -0.3732 0.0289
vn -0.2450 -0.7684 0.5911
vn -0.8025 -0.0273 -0.5961
vn 0.7348 -0.3630 0.5729
vn -0.2875 -0.1672 0.9431
vn -0.1971 0.8364 -0.5115
vn -0.7470 -0.1462 0.6486
vn 0.2881 -0.0141 0.9575
vn -0.7005 0.3064 -0.6445
vn 0.9174 0.3259 0.2283
vn 0.8471 -0.4317 0.3099
vn -0.3223 -0.5501 0.7704
vn 0.7878 0.4288 0.4423
vn 0.5802 0.8018 -0.1433
vn -0.7667 -0.4374 0.4700
vn 0.7581 0.0629 -0.6491
vn -0.1559 0.9267 -0.3420
vn 0.0942 -0.9672 0.2358
vn -0.8323 -0.5186 0.1957
vn 0.7767 -0.5052 0.3763
vn 0.2166 -0.1184 0.9691
vn -0.8381 -0.3121 0.4474
vn -0.9553 0.2952 -0.0182
vn 0.9961 0.0798 0.0370
vn 0.9881 -0.0107 0.1534
vn -0.2873 -0.1670 0.9432
vn 0.2611 -0.9640 -0.0504
vn 0.2042 -0.4241 0.8823
vn -0.7003 0.6160 0.3607
vn -0.2873 -0.1673 0.9431
vn -0.0681 0.0072 -0.9977
vn -0.0743 -0.5273 0.8464
vn -0.6701 -0.6075 0.4264
vn -0.2756 -0.3156 0.9080
vn -0.9780 0.1930 0.0796
vn 0.8261 0.5081 0.2437
vn -0.9898 -0.1108 -0.0891
vn 0.6583 -0.5274 0.5372
vn -0.3092 -0.5524 0.7741
vn 0.9793 0.0566 -0.1943
vn 0.1585 0.4400 -0.8839
vn 0.5524 0.7598 0.3428
vn -0.2549 0.3774 0.8903
vn -0.5028 -0.7776 -0.3775
vn 0.6915 0.5005 -0.5209
vn -0.9098 -0.0158 -0.4147
vn -0.6998 0.6464 -0.3040
vn -0.9370 0.2237 -0.2683
vn -0.7163 0.6579 -0.2326
vn 0.9440 0.3278 -0.0380
vn -0.9353 0.1730 0.3086
vn 0.6090 -0.7410 -0.2830
vn 0.8612 0.2425 -0.4467
vn -0.8908 0.3340 0.3082
vn 0.9427 -0.0020 0.3335
vn 0.9218 0.3855 -0.0417
vn 0.1400 0.3972 -0.9070
vn -0.8905 -0.0050 0.4549
vn 0.0253 -0.8735 0.4862
vn -0.8047 0.4660 0.3678
vn 0.8101 0.4502 -0.3756
vn -0.9974 -0.0631 -0.0337
vn -0.7693 0.1428 0.6227
vn -0.3842 -0.9092 -0.1603
vn -0.1204 0.8916 -0.4366
vn -0.8671 -0.2517 -0.4299
vn 0.8167 0.1653 0.5530
vn -0.9157 0.4017 -0.0115
vn 0.4897 0.7372 -0.4656
vn 0.5039 0.6621 0.5547
vn 0.8657 -0.4101 0.2871
vn 0.9405 -0.3319 0.0724
vn -0.9338 -0.3137 0.1719
vn -0.9794 -0.0647 0.1912
vn 0.6501 -0.1765 -0.7391
vn 0.9378 -0.1474 -0.3143
vn -0.1817 -0.9586 0.2192
vn 0.1284 -0.9806 -0.1478
vn 0.8316 0.0266 0.5547
vn -0.9623 -0.1614 0.2188
vn -0.6882 0.0537 0.7236
vn -0.9004 -0.3702 -0.2285
vn -0.9435 -0.1838 0.2757
vn -0.9721 -0.1023 -0.2113
vn 0.5643 -0.4014 0.7214
vn 0.6161 -0.7600 0.2070
vn 0.7281 0.6178 -0.2969
vn -0.5020 -0.0727 0.8618
vn -0.5835 0.3774 -0.7191
vn -0.7806 0.4876 0.3911
vn -0.9773 -0.2067 0.0461
vn -0.9971 0.0047 -0.0754
vn 0.0438 0.8581 -0.5115
vn -0.7903 0.4528 -0.4129
vn -0.7607 -0.6489 0.0158
vn 0.6909 -0.4625 0.5557
vn -0.6953 0.5283 0.4872
vn 0.3272 -0.7018 0.6328
vn -0.6483 0.6257 -0.4339
vn 0.8086 -0.4240 0.4080
vn 0.5958 0.3725 -0.7115
vn 0.5669 -0.0598 0.8216
vn 0.3736 0.8713 0.3182
vn 0.8416 0.4941 0.2180
vn 0.5655 0.8084 -0.1637
vn 0.0445 0.8615 -0.5058
vn -0.9101 -0.2248 0.3480
vn 0.9805 -0.1938 -0.0340
vn -0.6977 -0.1970 -0.6888
vn -0.9979 0.0288 0.0574
vn -0.5869 -0.0942 -0.8041
vn -0.2028 -0.9315 0.3019
vn -0.7819 0.3339 -0.5265
vn 0.7797 0.0186 0.6259
vn -0.0750 -0.9851 -0.1547
vn 0.0340 0.9846 -0.1715
vn -0.7766 -0.5167 -0.3604
vn 0.5378 -0.7141 0.4482
vn 0.8568 -0.1031 0.5052
vn -0.3130 -0.7263 0.6119
vn 0.0347 -0.7085 -0.7048
vn 0.8172 -0.3003 0.4919
vn -0.7981 0.5180 -0.3079
vn -0.8757 0.0700 -0.4777
vn -0.6050 -0.5376 0.5873
vn 0.1217 0.1046 -0.9870
vn -0.9313 -0.3471 -0.1100
vn 0.2651 -0.2918 -0.9190
vn -0.5847 -0.0908 -0.8061
vn -0.1107 -0.9169 0.3834
vn 0.2441 0.1219 -0.9621
vn 0.7032 -0.6180 0.3517
vn 0.8227 0.4801 0.3044
vn -0.0969 -0.9661 0.2391
vn 0.8263 0.0786 -0.5577
vn 0.5924 0.3459 0.7276
vn -0.7858 0.0124 0.6183
vn 0.7857 -0.1512 0.5999
vn 0.7057 0.6700 -0.2303
vn -0.7154 0.3330 0.6142
vn -0.2725 0.0758 0.9592
vn 0.2999 -0.9523 0.0557
vn -0.5920 -0.5054 0.6277
vn 0.3836 -0.6216 -0.6830
vn -0.3948 -0.9160 0.0707
vn 0.3985 -0.8975 -0.1889
vn -0.6166 0.7817 -0.0935
vn 0.6323 0.2830 -0.7212
vn -0.6323 0.2834 -0.7210
vn 0.7273 -0.4171 0.5451
vn -0.0272 -0.5829 0.8121
vn 0.5038 0.7557 -0.4184
vn -0.9627 0.2705 -0.0090
vn 0.3340 -0.4979 0.8004
vn -0.8968 0.4366 -0.0714
vn -0.1394 -0.1215 0.9828
vn 0.6574 0.6654 -0.3537
vn -0.9860 -0.1607 0.0447
vn -0.8919 -0.0637 0.4478
vn 0.4877 0.8729 -0.0097
vn -0.8347 -0.1894 0.5172
vn -0.0413 -0.5682 0.8218
vn -0.2358 0.6369 0.7340
vn -0.7771 -0.5047 0.3760
vn 0.8764 0.0331 -0.4805
vn 0.5255 -0.0740 -0.8476
vn 0.6810 -0.6499 0.3375
vn -0.1728 -0.9134 0.3686
vn -0.8678 0.2753 -0.4137
vn 0.9518 -0.2007 -0.2318
vn 0.2651 -0.9636 0.0356
vn 0.5789 0.3042 -0.7565
vn -0.6344 -0.4816 0.6046
vn 0.3458 0.0813 0.9348
vn 0.6598 0.6631 -0.3534
vn 0.9485 -0.3063 -0.0807
vn -0.7520 0.1373 0.6447
vn -0.6489 -0.3373 0.6820
vn 0.7281 -0.5792 0.3666
vn 0.7143 -0.6581 0.2380
vn -0.1732 0.9546 -0.2423
vn -0.6053 0.1388 -0.7838
vn -0.9315 0.3232 -0.1669
vn -0.8663 0.0059 -0.4995
vn -0.9487 0.1388 0.2840
vn 0.7752 0.3281 -0.5398
vn -0.2719 0.7077 0.6521
vn 0.7020 0.7118 -0.0225
vn -0.9848 0.1562 0.0756
vn 0.3910 -0.8665 0.3102
vn -0.6481 0.3152 -0.6933
vn 0.1582 -0.3941 -0.9054
vn -0.3288 -0.8928 -0.3080
vn -0.7426 0.1720 -0.6473
vn -0.7749 0.0447 -0.6305
vn 0.8758 -0.1654 0.4534
vn 0.2414 -0.4264 0.8717
vn 0.8758 -0.3016 0.3768
vn -0.2095 -0.9770 0.0404
vn -0.9985 0.0540 0.0057
vn 0.7973 0.1500 0.5846
vn 0.9923 0.0204 -0.1220
vn -0.0601 0.9723 -0.2259
vn -0.3302 -0.8477 -0.4152
vn -0.9849 -0.0437 -0.1677
vn -0.0032 0.9601 -0.2798
vn 0.2463 0.9396 0.2377
vn -0.1420 0.9054 -0.4000
vn 0.7712 -0.5219 -0.3646
vn -0.9887 0.0704 -0.1325
vn 0.7912 -0.5842 0.1809
vn 0.9414 0.2150 -0.2599
vn -0.6190 0.7767 -0.1168
vn 0.3193 -0.9380 0.1346
vn -0.2870 0.8957 0.3396
vn 0.3665 -0.9085 -0.2006
vn 0.9190 0.1341 -0.3708
vn -0.2101 -0.0208 0.9774
vn -0.0915 -0.9942 -0.0560
vn -0.9913 0.0223 -0.1297
vn -0.9002 -0.4348 -0.0238
vn 0.3414 0.6643 0.6650
vn -0.1454 -0.4008 -0.9046
vn 0.7903 -0.1770 0.5865
vn 0.1971 0.8364 -0.5115
vn 0.4742 -0.8792 0.0472
vn -0.8372 -0.0916 0.5391
vn -0.0626 0.1862 -0.9805
vn 0.4803 0.7274 0.4902
vn 0.4702 -0.8004 -0.3718
vn -0.9771 -0.1653 0.1337
vn -0.3324 -0.7663 -0.5498
vn -0.9406 -0.3318 0.0724
vn 0.4094 -0.8669 -0.2843
vn -0.0058 -0.6915 -0.7223
vn 0.1792 -0.6823 0.7088
vn -0.9846 -0.0398 0.1702
vn 0.6790 0.7291 -0.0863
vn 0.6485 -0.4968 0.5768
vn -0.6961 0.6135 -0.3729
vn 0.8682 -0.2410 -0.4337
vn -0.4993 0.7383 -0.4533
vn -0.6653 0.5600 -0.4938
vn 0.1197 -0.5691 0.8135
vn -0.8397 -0.4983 -0.2159
vn -0.0323 0.9557 -0.2926
vn 0.7944 -0.1590 0.5862
vn 0.6760 0.6535 -0.3405
vn -0.9859 0.0642 -0.1546
vn 0.2275 -0.9073 0.3537
vn -0.2860 0.8256 0.4864
vn -0.6076 0.4700 0.6403
vn -0.8957 -0.1495 0.4188
vn -0.3912 -0.9178 0.0676
vn -0.9482 0.3148 0.0419
vn 0.9189 0.2165 -0.3299
vn -0.8245 -0.5610 -0.0744
vn -0.9810 -0.1886 -0.0456
vn -0.5687 0.7919 -0.2225
vn 0.9259 -0.3471 -0.1491
vn 0.3092 -0.5524 0.7741
vn -0.6286 -0.7227 0.2874
vn -0.9014 0.4283 -0.0628
vn 0.2328 0.1905 -0.9537
vn 0.1008 -0.5844 0.8052
vn -0.2622 -0.5004 0.8251
vn -0.0469 -0.9694 0.2411
vn -0.2584 -0.7103 0.6547
vn 0.8138 -0.3841 0.4361
vn 0.3133 -0.7263 0.6118
vn 0.0928 -0.9828 -0.1597
vn 0.9373 -0.2481 0.2449
vn 0.9532 0.1908 0.2346
vn 0.7289 0.3893 -0.5632
vn -0.8792 -0.4761 -0.0182
vn 0.8323 -0.5186 0.1957
vn 0.4699 0.2213 -0.8546
vn 0.1166 -0.0767 0.9902
vn -0.7944 -0.1590 0.5862
vn 0.0104 -0.7766 -0.6299
vn 0.9692 0.0940 -0.2276
vn 0.1667 -0.9126 0.3732
vn -0.6228 0.7679 -0.1494
vn 0.2689 -0.6383 -0.7213
vn -0.9940 -0.0064 -0.1096
vn 0.9370 0.2237 -0.2683
vn -0.6004 0.7363 -0.3122
vn 0.2196 0.0468 0.9745
vn -0.7123 0.1934 0.6747
vn 0.8239 -0.5653 0.0412
vn -0.7797 -0.5064 -0.3683
vn 0.1278 0.0952 -0.9872
vn -0.3004 0.6588 0.6897
vn -0.2798 -0.9472 0.1570
vn -0.0117 -0.2535 -0.9673
vn 0.2966 0.9010 0.3167
vn 0.8170 -0.4867 -0.3092
vn -0.8023 -0.0802 0.5915
vn 0.8202 -0.3744 0.4325
vn 0.1055 -0.9924 -0.0637
vn 0.5634 0.5303 -0.6335
vn -0.0219 -0.9713 0.2370
vn 0.9143 -0.3038 0.2678
vn 0.9569 0.1708 -0.2350
vn 0.5645 -0.4249 0.7077
vn 0.5993 0.7721 -0.2113
vn 0.3997 -0.7111 0.5785
vn 0.6389 0.6309 -0.4402
vn 0.2215 -0.9261 -0.3054
vn 0.5514 0.6129 0.5660
vn 0.8077 -0.5218 -0.2744
vn 0.7135 0.6367 -0.2925
vn -0.0303 -0.7028 -0.7108
vn 0.0635 -0.8999 0.4314
vn 0.6481 0.3152 -0.6933
vn 0.2444 0.9476 -0.2058
vn -0.8114 -0.1144 0.5732
vn 0.9591 -0.1310 0.2509
vn 0.8957 -0.1495 0.4189
vn 0.9949 -0.0157 -0.0992
vn -0.9574 -0.2819 0.0628
vn 0.9739 0.1749 -0.1449
vn 0.6203 0.6255 -0.4733
vn -0.2003 -0.9711 0.1296
vn 0.9655 -0.1656 0.2010
vn -0.8777 -0.1980 0.4364
vn -0.7585 0.0332 -0.6508
vn 0.1981 -0.8808 0.4301
vn 0.9337 -0.1770 -0.3112
vn -0.2421 -0.4788 0.8439
vn 0.6135 0.5634 -0.5534
vn -0.5124 0.7277 0.4561
vn 0.9231 0.0113 0.3843
vn 0.8531 0.2682 0.4475
vn -0.7235 -0.5668 0.3939
vn -0.7049 0.7089 -0.0238
vn 0.9472 0.3059 -0.0961
vn 0.3934 0.8833 -0.2551
vn 0.8551 0.4618 -0.2356
vn -0.2638 0.2019 -0.9432
vn 0.6700 -0.7029 0.2389
vn 0.8335 -0.5355 -0.1362
vn -0.1687 0.7297 -0.6626
vn 0.8960 0.4207 -0.1424
vn -0.4790 0.8298 -0.2862
vn 0.2821 -0.6034 0.7459
vn -0.7289 0.3893 -0.5632
vn 0.8202 -0.4720 -0.3234
vn 0.3685 0.8721 0.3220
vn -0.3987 -0.9134 0.0820
vn 0.9082 -0.0166 -0.4183
vn 0.5487 0.3373 -0.7649
vn 0.9998 -0.0141 -0.0102
vn -0.9861 -0.1616 0.0379
vn 0.8965 0.3920 0.2064
vn 0.9512 0.2131 -0.2231
vn -0.9399 -0.3242 -0.1071
vn 0.9769 -0.2089 0.0461
vn -0.7905 -0.3758 0.4836
vn -0.9891 0.0560 -0.1364
vn -0.6312 0.3007 -0.7149
vn -0.3771 -0.6197 -0.6883
vn 0.0627 0.1862 -0.9805
vn -0.9882 -0.0257 0.1513
vn -0.9613 -0.2580 0.0967
vn 0.6696 0.0324 0.7420
vn 0.3979 -0.3218 -0.8591
vn 0.8114 0.5059 0.2927
vn 0.3100 -0.7595 0.5719
vn -0.9949 0.0504 -0.0874
vn 0.3183 -0.8235 0.4696
vn 0.7065 0.0555 -0.7055
vn -0.0251 -0.8735 0.4861
vn 0.0861 0.9617 -0.2603
vn -0.6528 0.6268 -0.4253
vn -0.4274 0.4400 0.7898
vn 0.3769 -0.9213 0.0960
vn 0.9907 0.0716 -0.1154
vn 0.3628 -0.9303 0.0533
vn 0.2026 -0.0554 0.9777
vn -0.9470 -0.3145 0.0652
vn 0.5747 0.1329 0.8075
vn 0.6579 0.7337 -0.1698
vn 0.1645 0.1383 -0.9766
vn -0.1742 0.1498 -0.9733
vn -0.8312 0.3710 -0.4140
vn -0.8023 0.4813 0.3530
vn -0.7242 -0.6895 0.0124
vn -0.8658 -0.4100 0.2870
vn -0.2999 -0.9523 0.0557
vn 0.2954 0.6880 0.6629
vn 0.9451 -0.0121 -0.3265
vn -0.4233 -0.7960 -0.4326
vn -0.3884 -0.9029 -0.1840
vn 0.0681 0.0072 -0.9977
vn 0.1257 -0.7712 -0.6241
vn -0.6851 0.3124 -0.6581
vn 0.0315 0.8674 -0.4966
vn 0.9693 -0.1867 0.1600
vn 0.9804 -0.1310 0.1469
vn 0.8649 -0.2823 0.4150
vn -0.9979 0.0468 0.0450
vn -0.4621 0.8606 -0.2141
vn -0.2378 -0.6487 0.7230
vn -0.0299 -0.2663 -0.9634
vn 0.9896 -0.0442 0.1367
vn -0.6062 -0.4605 0.6485
vn 0.3630 -0.9061 -0.2175
vn -0.8097 -0.5464 -0.2140
vn -0.9881 -0.0107 0.1534
vn 0.2549 0.3774 0.8903
vn 0.3947 -0.5403 0.7432
vn -0.7347 0.6356 -0.2372
vn -0.5693 -0.3287 0.7536
vn -0.5354 -0.4514 0.7139
vn -0.1048 0.9131 -0.3940
vn -0.1629 0.1411 -0.9765
vn 0.4443 -0.8945 0.0508
vn 0.9560 -0.2624 0.1313
vn 0.8587 -0.2922 0.4209
vn 0.8964 -0.4421 -0.0317
vn 0.8434 0.4562 -0.2840
vn -0.9879 -0.0266 0.1528
vn -0.9423 0.2399 -0.2337
vn -0.2433 -0.9684 0.0555
vn 0.6004 0.7363 -0.3122
vn -0.2344 -0.3186 -0.9185
vn -0.5594 -0.7813 0.2768
vn -0.9901 -0.0335 0.1362
vn -0.5627 0.3352 -0.7556
vn 0.8024 0.0062 -0.5967
vn -0.5974 -0.4152 0.6861
vn 0.5403 0.8155 -0.2073
vn 0.9936 -0.0328 -0.1081
vn 0.9585 0.2723 -0.0847
vn 0.8750 -0.0615 0.4802
vn -0.3183 -0.8235 0.4696
vn 0.6243 0.3323 -0.7070
vn 0.6036 -0.7821 0.1551
vn 0.8991 -0.4297 0.0837
vn 0.1069 -0.5152 0.8504
vn 0.6583 0.5028 0.5602
vn 0.4322 0.6947 0.5749
vn 0.7488 0.3553 0.5595
vn 0.7451 -0.0162 -0.6668
vn 0.9166 0.3176 0.2430
vn -0.7192 -0.5743 0.3912
vn 0.8469 -0.0655 0.5277
vn 0.9839 0.0806 -0.1597
vn -0.6342 -0.4304 0.6423
vn 0.9673 0.1523 0.2029
vn -0.9781 0.1513 -0.1426
vn 0.8840 0.4384 -0.1625
vn 0.3577 0.8800 -0.3124
vn -0.9565 -0.1784 -0.2310
vn 0.6633 -0.3315 0.6710
vn 0.7572 0.3871 -0.5261
vn 0.6182 0.1382 -0.7738
vn -0.6401 0.7498 -0.1676
vn -0.2155 -0.9327 -0.2891
vn 0.7133 0.5498 0.4346
vn 0.7293 0.4399 0.5240
vn -0.9099 0.2665 0.3177
vn -0.6886 0.6003 0.4068
vn -0.7154 -0.6076 0.3450
vn 0.8802 -0.0811 0.4676
vn -0.0731 -0.5032 -0.8611
vn 0.6008 -0.6227 0.5013
vn -0.7706 -0.3943 0.5006
vn -0.9566 0.1798 -0.2295
vn 0.7242 -0.6895 0.0124
vn 0.9801 -0.1091 0.1657
vn 0.3260 -0.9176 -0.2276
vn -0.7865 -0.3782 0.4882
vn 0.2605 -0.3651 0.8938
vn 0.2165 -0.5676 0.7943
vn -0.4642 0.7130 0.5254
vn -0.4156 -0.3576 0.8363
vn -0.7392 0.6497 -0.1772
vn 0.9787 0.0947 0.1824
vn -0.3697 0.8609 0.3496
vn -0.1960 -0.3876 0.9007
vn -0.3024 -0.6469 -0.7000
vn 0.9966 0.0004 0.0822
vn 0.8872 0.0848 -0.4536
vn 0.9960 -0.0023 0.0898
vn -0.1610 0.4398 -0.8835
vn -0.6936 -0.6533 0.3036
vn 0.5336 -0.1184 0.8374
vn -0.7423 0.0782 -0.6655
vn 0.6442 0.6739 -0.3617
vn -0.3681 0.7569 -0.5400
vn -0.9750 -0.1981 -0.1006
vn 0.1438 -0.9625 0.2302
vn -0.7300 0.5076 -0.4575
vn 0.7063 0.6374 0.3082
vn 0.4138 -0.7833 -0.4640
vn 0.3239 -0.8377 -0.4397
vn -0.4970 -0.4410 0.7473
vn 0.4765 0.7446 -0.4675
vn 0.9887 0.0704 -0.1325
vn 0.9387 -0.2957 -0.1773
vn 0.2719 0.7077 0.6521
vn -0.6180 0.6117 0.4939
vn -0.0181 -0.9520 -0.3057
vn 0.2246 -0.9673 0.1176
vn 0.5226 0.7434 0.4174
vn -0.9945 -0.0870 -0.0582
vn 0.0689 -0.9699 0.2335
vn 0.7645 0.4852 -0.4245
vn 0.4296 -0.9030 0.0105
vn -0.3528 0.2751 -0.8944
vn 0.5092 -0.4376 0.7411
vn 0.9732 -0.2285 0.0244
vn -0.9553 -0.1852 -0.2304
vn 0.4627 0.6493 -0.6036
vn 0.8879 0.4264 -0.1725
vn 0.9712 0.1375 -0.1946
vn -0.8192 0.3375 0.4636
vn -0.2060 -0.6568 -0.7254
vn -0.9969 -0.0445 0.0644
vn -0.5260 0.5965 0.6062
vn 0.3805 -0.5968 0.7064
vn 0.9258 -0.0476 0.3750
vn -0.5038 0.7557 -0.4184
vn 0.4298 -0.9029 0.0105
vn -0.9025 0.4145 -0.1167
vn -0.9190 0.1341 -0.3708
vn 0.9648 0.0201 0.2620
vn 0.6342 0.6307 0.4471
vn 0.9095 0.2271 -0.3482
vn -0.2508 -0.9676 -0.0297
vn 0.2704 0.6446 0.7151
vn -0.6891 0.7158 -0.1133
vn -0.5663 -0.7999 0.1988
vn -0.7223 -0.0049 0.6916
vn -0.7249 -0.3090 0.6156
vn -0.5579 0.5757 0.5978
vn 0.8433 0.4855 0.2304
vn -0.9624 -0.1617 -0.2183
vn 0.9830 -0.1258 -0.1340
vn -0.6472 -0.4921 0.5822
vn 0.9750 -0.1947 -0.1069
vn 0.1600 -0.9615 -0.2234
vn 0.7239 0.0679 -0.6866
vn -0.6805 -0.3727 0.6309
vn -0.0036 0.9997 -0.0258
vn -0.4721 -0.8147 -0.3366
vn -0.8229 -0.3082 0.4773
vn 0.4966 -0.7624 -0.4148
vn 0.7449 -0.4313 0.5090
vn -0.3751 0.8599 0.3461
vn -0.4834 -0.8748 -0.0342
vn -0.3365 0.8334 0.4385
vn -0.2659 0.6795 0.6838
vn 0.6967 -0.6228 0.3561
vn 0.7400 0.0725 0.6687
vn -0.9122 -0.0146 0.4095
vn -0.2421 -0.3791 0.8931
vn 0.5594 -0.7813 0.2768
vn -0.9866 0.1206 -0.1104
vn 0.6985 -0.2169 0.6820
vn 0.5279 -0.0773 -0.8458
vn -0.8956 0.3846 -0.2238
vn 0.2415 -0.9701 0.0236
vn -0.9320 0.3622 -0.0151
vn 0.7981 0.5180 -0.3079
vn -0.0759 -0.6901 0.7197
vn -0.9073 0.2981 0.2965
vn 0.9143 0.2173 -0.3419
vn 0.6835 0.7261 -0.0750
vn -0.7840 -0.2239 0.5789
vn 0.8768 0.4769 0.0618
vn 0.3290 0.9299 -0.1646
vn 0.8895 -0.4492 -0.0842
vn 0.7128 -0.4686 0.5218
vn 0.5945 0.2867 -0.7512
vn 0.8663 0.0059 -0.4995
vn -0.9749 -0.0625 0.2136
vn 0.5832 0.5930 0.5552
vn -0.9207 0.0568 -0.3861
vn 0.2305 -0.9674 -0.1052
vn -0.8059 0.0387 -0.5907
vn 0.9830 0.0182 -0.1825
vn 0.5214 -0.3713 0.7683
vn 0.6444 -0.2634 0.7179
vn -0.0324 0.8553 -0.5172
vn 0.9563 -0.0730 -0.2833
vn -0.3336 -0.7218 0.6063
vn -0.9428 -0.0089 0.3333
vn -0.3519 -0.9196 -0.1747
vn 0.7431 0.4761 -0.4701
vn 0.6894 -0.5114 0.5131
vn 0.2265 -0.9524 0.2040
vn -0.7870 0.5076 -0.3507
vn -0.1274 -0.0604 0.9900
vn -0.4066 0.8684 -0.2839
vn -0.8025 -0.4992 0.3268
vn 0.8166 0.3265 -0.4759
vn 0.9413 0.2586 0.2171
vn -0.9486 -0.2157 0.2315
vn 0.9773 0.0514 -0.2056
vn 0.7740 0.0085 0.6332
vn 0.9359 -0.0280 0.3512
vn -0.5756 -0.7781 0.2515
vn -0.9115 -0.4019 -0.0872
vn 0.7983 -0.5879 0.1308
vn 0.1712 -0.6511 -0.7394
vn -0.7862 -0.5082 0.3516
vn 0.7762 -0.5046 -0.3779
vn 0.4715 0.4537 0.7562
vn -0.9747 -0.1657 0.1499
vn 0.9749 0.2227 0.0065
vn 0.0108 -0.9370 0.3491
vn 0.7949 -0.5120 0.3255
vn 0.9704 -0.1684 -0.1734
vn -0.4809 -0.7296 0.4863
vn 0.9470 -0.3145 0.0652
vn 0.0066 -0.9831 -0.1830
vn -0.3660 0.9206 -0.1363
vn 0.9352 -0.1539 -0.3190
vn 0.8220 -0.2673 0.5028
vn 0.3304 -0.7409 0.5847
vn -0.5408 0.2105 -0.8144
vn 0.8394 0.4869 -0.2414
vn -0.8953 -0.4151 0.1618
vn -0.9422 -0.3349 -0.0101
vn -0.7748 -0.3081 0.5520
vn -0.8776 -0.0231 0.4788
vt 0.793893 0.811035
vt 0.733986 0.647144
vt 0.654509 0.794346
vt 0.904509 0.802353
vt 0.637534 0.635601
vt 0.530617 0.607635
vt 0.500000 0.753937
vt 0.876608 0.580494
vt 0.859674 0.618176
vt 0.975529 0.769161
vt 0.000000 0.714703
vt 0.810530 0.641144
vt 0.494886 0.330135
vt 0.549539 0.344433
vt 0.530617 0.328053
vt 0.604192 0.365723
vt 0.423700 0.300087
vt 0.327249 0.288544
vt 0.445583 0.324238
vt 0.637534 0.369709
vt 0.653495 0.391926
vt 0.692622 0.420471
vt 0.810530 0.476807
vt 0.717743 0.448570
vt 0.733986 0.420963
vt 0.201560 0.403915
vt 0.381335 0.383205
vt 0.184626 0.355206
vt 0.372679 0.358311
vt 0.250704 0.458881
vt 0.406456 0.411304
vt 0.327249 0.514725
vt 0.381335 0.339043
vt 0.250704 0.294548
vt 0.406456 0.327301
vt 0.201560 0.317513
vt 0.859674 0.531780
vt 0.555940 0.398312
vt 0.726400 0.473465
vt 0.692622 0.504471
vt 0.717743 0.492729
vt 0.653495 0.507542
vt 0.604192 0.501640
vt 0.445583 0.439854
vt 0.494886 0.466053
vt 0.549539 0.487347
vt 0.095491 0.301487
vt 0.206107 0.292805
vt 0.024472 0.334679
vt 0.345492 0.309490
vt 0.500000 0.349903
vt 0.654509 0.410099
vt 0.206107 0.619667
vt 0.345492 0.693741
vt 0.095491 0.538963
vt 0.423700 0.565987
vt 0.024472 0.459526
vt 0.000000 0.389137
vt 0.904509 0.564873
vt 0.975529 0.644310
vt 0.793893 0.484169
vt 0.000000 1.000000
vt 0.273600 0.473465
vt 0.123392 0.580494
vt 0.282257 0.492729
vt 0.024471 0.644310
vt 0.140326 0.618176
vt 0.307378 0.504471
vt 0.189470 0.641144
vt 0.140326 0.531780
vt 0.266014 0.420963
vt 0.206107 0.484169
vt 0.189470 0.476807
vt 0.345491 0.410099
vt 0.095491 0.564873
vt 0.576300 0.565987
vt 0.505114 0.466053
vt 0.469383 0.607635
vt 0.450461 0.487347
vt 0.672751 0.514725
vt 0.554417 0.439854
vt 0.593544 0.411304
vt 0.362466 0.635601
vt 0.395808 0.501640
vt 0.346505 0.507542
vt 0.266014 0.647144
vt 0.362466 0.369709
vt 0.798440 0.403915
vt 0.749296 0.458881
vt 0.975528 0.459526
vt 0.904509 0.538963
vt 0.815374 0.355206
vt 0.975528 0.334679
vt 0.654508 0.693741
vt 0.793893 0.619667
vt 0.576300 0.300087
vt 0.654508 0.309490
vt 0.469383 0.328053
vt 0.672751 0.288544
vt 0.793893 0.292805
vt 0.798440 0.317513
vt 0.749296 0.294548
vt 0.904509 0.301487
vt 0.444060 0.398312
vt 0.618665 0.383205
vt 0.282257 0.448570
vt 0.395808 0.365723
vt 0.346505 0.391926
vt 0.450461 0.344433
vt 0.307378 0.420471
vt 0.505114 0.330135
vt 0.627321 0.358311
vt 0.618665 0.339043
vt 0.593544 0.327301
vt 0.554417 0.324238
vt 0.095491 0.802353
vt 0.024471 0.769161
vt 0.345491 0.794346
vt 0.206107 0.811035
vt 0.531129 0.863455
vt 0.528598 0.862678
vt 0.529701 0.861377
vt 0.530028 0.864496
vt 0.532449 0.864504
vt 0.554833 0.852302
vt 0.535964 0.857423
vt 0.554115 0.862847
vt 0.527653 0.863068
vt 0.533337 0.860528
vt 0.534939 0.862031
vt 0.531751 0.858482
vt 0.533744 0.855085
vt 0.535657 0.858520
vt 0.537437 0.859975
vt 0.530356 0.847231
vt 0.465756 0.730456
vt 0.464280 0.731015
vt 0.466272 0.734068
vt 0.468310 0.733388
vt 0.464779 0.728223
vt 0.462719 0.728340
vt 0.462606 0.727787
vt 0.464037 0.730013
vt 0.465977 0.733427
vt 0.464885 0.735427
vt 0.463767 0.732595
vt 0.465331 0.736822
vt 0.463567 0.731622
vt 0.533015 0.861030
vt 0.528781 0.860447
vt 0.530131 0.864549
vt 0.530881 0.856491
vt 0.531355 0.865489
vt 0.534491 0.861890
vt 0.526887 0.856207
vt 0.527647 0.863272
vt 0.528726 0.864638
vt 0.526403 0.862717
vt 0.525618 0.860881
vt 0.526164 0.858016
vt 0.536721 0.859365
vt 0.468862 0.749484
vt 0.466293 0.747780
vt 0.466377 0.748286
vt 0.467102 0.749259
vt 0.467253 0.750763
vt 0.470042 0.751312
vt 0.469399 0.753101
vt 0.469928 0.750509
vt 0.463993 0.748347
vt 0.465755 0.751317
vt 0.467367 0.753944
vt 0.471307 0.756222
vt 0.464995 0.721450
vt 0.464829 0.720767
vt 0.463109 0.721688
vt 0.462921 0.720778
vt 0.464423 0.724210
vt 0.465870 0.723530
vt 0.464627 0.728363
vt 0.464023 0.722561
vt 0.465068 0.754195
vt 0.464674 0.751874
vt 0.466630 0.753166
vt 0.463722 0.724297
vt 0.465564 0.722267
vt 0.463941 0.725445
vt 0.463960 0.747882
vt 0.467324 0.729442
vt 0.468962 0.731820
vt 0.464679 0.727808
vt 0.468861 0.731404
vt 0.465570 0.729689
vt 0.468613 0.734441
vt 0.465745 0.749335
vt 0.459061 0.781790
vt 0.459779 0.802539
vt 0.459863 0.804904
vt 0.459175 0.785141
vt 0.459751 0.801754
vt 0.459456 0.793305
vt 0.459271 0.787929
vt 0.459472 0.793767
vt 0.459704 0.800426
vt 0.459315 0.789211
vt 0.458776 0.773334
vt 0.458807 0.774253
vt 0.459830 0.803985
vt 0.489859 0.811437
vt 0.490517 0.812575
vt 0.493013 0.812944
vt 0.492379 0.807917
vt 0.492492 0.807826
vt 0.490244 0.811723
vt 0.495164 0.807698
vt 0.493132 0.810665
vt 0.494834 0.807444
vt 0.490710 0.812847
vt 0.492924 0.813826
vt 0.497867 0.810534
vt 0.497474 0.813438
vt 0.460224 0.765039
vt 0.460206 0.763084
vt 0.462560 0.806586
vt 0.461784 0.810371
vt 0.461888 0.813254
vt 0.462269 0.795070
vt 0.460502 0.773340
vt 0.461874 0.784919
vt 0.461843 0.811999
vt 0.460939 0.786261
vt 0.460749 0.780687
vt 0.461206 0.794016
vt 0.461693 0.807861
vt 0.529650 0.858487
vt 0.526305 0.855364
vt 0.526229 0.858659
vt 0.525366 0.858400
vt 0.526985 0.861113
vt 0.527069 0.853356
vt 0.527847 0.860249
vt 0.525730 0.856066
vt 0.499012 0.806119
vt 0.499163 0.808047
vt 0.496863 0.805659
vt 0.504007 0.807601
vt 0.498517 0.806656
vt 0.503584 0.806797
vt 0.496949 0.812909
vt 0.499654 0.812986
vt 0.502654 0.810875
vt 0.503507 0.809186
vt 0.592808 0.531743
vt 0.588217 0.538940
vt 0.588077 0.539594
vt 0.592974 0.532605
vt 0.590410 0.541266
vt 0.605476 0.579748
vt 0.598681 0.549994
vt 0.597732 0.577716
vt 0.594369 0.536410
vt 0.588024 0.579111
vt 0.613173 0.625620
vt 0.612434 0.624340
vt 0.615779 0.621909
vt 0.615986 0.622776
vt 0.613896 0.614147
vt 0.608878 0.593579
vt 0.610395 0.618277
vt 0.610344 0.599562
vt 0.598719 0.597518
vt 0.603627 0.617616
vt 0.594111 0.535248
vt 0.585780 0.562762
vt 0.596633 0.544739
vt 0.581263 0.552818
vt 0.580933 0.565246
vt 0.599718 0.607532
vt 0.614994 0.618664
vt 0.603411 0.571398
vt 0.597228 0.579381
vt 0.580859 0.579665
vt 0.580881 0.588312
vt 0.586239 0.595329
vt 0.580956 0.598184
vt 0.581140 0.610011
vt 0.587471 0.612386
vt 0.580948 0.566627
vt 0.581636 0.543142
vt 0.601569 0.621008
vt 0.581399 0.548416
vt 0.581728 0.542511
vt 0.581694 0.543940
vt 0.584418 0.618966
vt 0.581248 0.618567
vt 0.581152 0.616172
vt 0.580876 0.599332
vt 0.585356 0.616338
vt 0.553521 0.602831
vt 0.553331 0.610777
vt 0.554511 0.593339
vt 0.555736 0.583825
vt 0.553636 0.612485
vt 0.553687 0.602899
vt 0.553489 0.615268
vt 0.459452 0.491871
vt 0.461213 0.485382
vt 0.459485 0.489932
vt 0.461044 0.486468
vt 0.459778 0.492442
vt 0.459359 0.494423
vt 0.461493 0.488154
vt 0.464758 0.479439
vt 0.558504 0.553826
vt 0.556735 0.572716
vt 0.557625 0.559726
vt 0.580730 0.586609
vt 0.597048 0.573565
vt 0.589612 0.566365
vt 0.599269 0.554858
vt 0.558814 0.552734
vt 0.580750 0.575909
vt 0.555956 0.581021
vt 0.557629 0.569465
vt 0.554660 0.591882
vt 0.558917 0.553838
vt 0.558344 0.559956
vt 0.466992 0.735881
vt 0.471686 0.736523
vt 0.471154 0.735844
vt 0.467543 0.732415
vt 0.469038 0.734202
vt 0.465755 0.732520
vt 0.464910 0.730942
vt 0.468204 0.735019
vt 0.462924 0.731477
vt 0.463785 0.734862
vt 0.464875 0.736583
vt 0.472383 0.739772
vt 0.467083 0.750025
vt 0.472789 0.754060
vt 0.465694 0.724813
vt 0.464362 0.726914
vt 0.467043 0.757209
vt 0.465055 0.731428
vt 0.469008 0.724611
vt 0.468395 0.726339
vt 0.467362 0.722205
vt 0.466053 0.734327
vt 0.468842 0.723927
vt 0.468423 0.726290
vt 0.462756 0.730786
vt 0.464215 0.732819
vt 0.466077 0.735332
vt 0.468792 0.735891
vt 0.600823 0.620456
vt 0.472127 0.728869
vt 0.609379 0.623288
vt 0.609476 0.623840
vt 0.471595 0.729530
vt 0.471495 0.728278
vt 0.469804 0.729461
vt 0.467500 0.728924
vt 0.472618 0.739591
vt 0.466378 0.738958
vt 0.464850 0.738342
vt 0.471066 0.739817
vt 0.469530 0.739997
vt 0.492385 0.780119
vt 0.495290 0.787243
vt 0.496036 0.784173
vt 0.491154 0.779002
vt 0.491169 0.779490
vt 0.484620 0.782489
vt 0.478875 0.782885
vt 0.483299 0.800267
vt 0.473516 0.783857
vt 0.474509 0.805198
vt 0.491185 0.779437
vt 0.490127 0.754648
vt 0.488711 0.757775
vt 0.487882 0.782818
vt 0.490626 0.800192
vt 0.492957 0.791536
vt 0.487404 0.808726
vt 0.486815 0.799901
vt 0.510317 0.819697
vt 0.506778 0.810402
vt 0.499845 0.801958
vt 0.483049 0.769613
vt 0.478757 0.763906
vt 0.477157 0.773097
vt 0.506264 0.803765
vt 0.485902 0.782701
vt 0.475770 0.815443
vt 0.487478 0.764879
vt 0.468327 0.763951
vt 0.468299 0.777805
vt 0.485796 0.766729
vt 0.479135 0.759770
vt 0.477878 0.735780
vt 0.477869 0.740706
vt 0.464715 0.728123
vt 0.467168 0.742654
vt 0.478074 0.743827
vt 0.478420 0.746287
vt 0.483856 0.741013
vt 0.481465 0.745903
vt 0.466678 0.742061
vt 0.480832 0.753289
vt 0.482355 0.739235
vt 0.477035 0.736540
vt 0.464418 0.730839
vt 0.479296 0.732786
vt 0.491357 0.782225
vt 0.484142 0.752815
vt 0.489788 0.774510
vt 0.492829 0.789133
vt 0.485110 0.768799
vt 0.494941 0.783847
vt 0.482346 0.751802
vt 0.480720 0.763783
vt 0.474831 0.767088
vt 0.470071 0.782960
vt 0.468285 0.775035
vt 0.473047 0.792616
vt 0.477104 0.752145
vt 0.477999 0.732596
vt 0.499948 0.786343
vt 0.517379 0.794530
vt 0.512134 0.797455
vt 0.519892 0.848057
vt 0.532451 0.843359
vt 0.517744 0.815619
vt 0.537586 0.821761
vt 0.515349 0.835842
vt 0.532581 0.835305
vt 0.502797 0.825711
vt 0.494477 0.829329
vt 0.524531 0.827249
vt 0.502495 0.837962
vt 0.485221 0.804628
vt 0.480786 0.783342
vt 0.475997 0.815446
vt 0.525700 0.806306
vt 0.508952 0.802099
vt 0.509892 0.844218
vt 0.519580 0.802811
vt 0.538081 0.809172
vt 0.541405 0.799494
vt 0.518720 0.795088
vt 0.515910 0.791821
vt 0.499703 0.786625
vt 0.533903 0.796593
vt 0.502945 0.831977
vt 0.499967 0.834792
vt 0.501863 0.837698
vt 0.463758 0.765903
vt 0.461146 0.748328
vt 0.464004 0.756081
vt 0.459637 0.752229
vt 0.459467 0.741348
vt 0.506850 0.797565
vt 0.504079 0.839782
vt 0.492286 0.773966
vt 0.486594 0.753472
vt 0.488556 0.749590
vt 0.489924 0.749166
vt 0.495942 0.780935
vt 0.496808 0.781473
vt 0.468158 0.760414
vt 0.466905 0.746627
vt 0.498506 0.789177
vt 0.488541 0.754072
vt 0.488271 0.754618
vt 0.489151 0.749958
vt 0.496350 0.781759
vt 0.492187 0.775399
vt 0.554776 0.861800
vt 0.556046 0.865722
vt 0.555695 0.855838
vt 0.555129 0.847689
vt 0.555051 0.828840
vt 0.465133 0.783452
vt 0.466504 0.813755
vt 0.478230 0.825060
vt 0.475600 0.826146
vt 0.477985 0.824249
vt 0.473849 0.825912
vt 0.470472 0.823171
vt 0.463533 0.816453
vt 0.463302 0.814164
vt 0.477415 0.822225
vt 0.467802 0.795013
vt 0.468360 0.808736
vt 0.494655 0.804683
vt 0.489056 0.816451
vt 0.497993 0.794438
vt 0.496214 0.799692
s 0
usemtl Material.001
f 60/1/1 54/2/1 58/3/1
f 154/2/2 379/1/2 420/4/2
f 54/2/3 57/5/3 58/3/3
f 152/6/4 436/7/4 23/3/4
f 344/3/5 353/5/5 362/6/5
f 43/8/1 54/9/1 61/10/1
f 527/11/6 520/8/6 371/10/6
f 485/10/7 313/9/7 209/12/7
f 258/4/8 186/12/8 487/2/8
f 54/12/9 60/4/9 61/10/9
f 408/13/10 544/14/10 440/15/10
f 319/15/11 511/14/11 349/16/11
f 257/17/12 214/13/12 204/15/12
f 369/18/13 96/19/13 158/13/13
f 62/13/14 500/17/14 460/18/14
f 538/16/15 24/20/15 441/15/15
f 493/21/16 388/22/16 389/23/16
f 409/23/17 538/22/17 441/24/17
f 461/25/18 193/21/18 275/23/18
f 297/20/19 157/16/19 83/25/19
f 472/16/20 303/21/20 365/25/20
f 503/26/21 311/27/21 488/28/21
f 314/27/22 35/29/22 288/28/22
f 59/27/23 324/26/23 315/30/23
f 304/31/24 380/30/24 352/32/24
f 201/30/25 467/31/25 327/27/25
f 311/28/26 503/29/26 153/33/26
f 11/34/27 389/35/27 543/19/27
f 216/19/28 496/18/28 543/34/28
f 395/33/29 327/35/29 402/34/29
f 54/33/30 50/36/30 53/28/30
f 539/36/31 398/33/31 401/34/31
f 54/24/1 43/37/1 45/23/1
f 151/19/32 67/35/32 462/38/32
f 32/13/33 85/19/33 361/38/33
f 52/35/34 453/33/34 526/38/34
f 257/29/35 27/27/35 13/38/35
f 472/33/36 397/29/36 246/38/36
f 42/14/37 326/13/37 182/38/37
f 245/24/38 409/22/38 441/38/38
f 475/39/39 546/24/39 447/38/39
f 183/22/40 428/21/40 88/38/40
f 487/16/41 365/14/41 258/38/41
f 79/21/42 346/16/42 221/38/42
f 218/40/43 260/41/43 91/38/43
f 269/42/44 159/40/44 442/38/44
f 40/41/45 30/39/45 427/38/45
f 522/37/46 545/24/46 285/8/46
f 447/24/47 546/39/47 336/8/47
f 422/43/48 412/42/48 424/38/48
f 375/31/49 293/44/49 266/38/49
f 47/27/50 99/31/50 384/38/50
f 267/44/51 343/45/51 488/38/51
f 525/46/52 371/43/52 450/38/52
f 398/45/53 539/46/53 306/38/53
f 150/47/54 184/34/54 406/48/54
f 92/34/55 453/18/55 52/48/55
f 463/34/56 205/47/56 385/49/56
f 53/28/30 50/36/30 51/49/30
f 306/49/57 447/36/57 501/34/57
f 50/48/1 54/18/1 48/50/1
f 96/51/58 18/15/58 533/52/58
f 54/15/1 45/20/1 46/52/1
f 54/15/1 46/51/1 48/50/1
f 149/18/59 546/17/59 494/50/59
f 374/50/60 351/17/60 500/15/60
f 517/32/61 431/53/61 451/54/61
f 34/53/62 253/32/62 331/55/62
f 469/54/63 457/56/63 490/32/63
f 268/7/64 445/6/64 97/54/64
f 57/6/65 54/56/65 56/54/65
f 196/32/66 361/30/66 188/55/66
f 83/57/67 26/26/67 270/28/67
f 482/58/68 2/28/68 185/49/68
f 346/57/69 475/28/69 474/58/69
f 123/55/70 17/30/70 144/57/70
f 494/30/71 44/26/71 149/57/71
f 395/52/72 538/20/72 201/25/72
f 257/43/73 274/5/73 27/2/73
f 480/43/74 413/46/74 338/6/74
f 352/2/75 295/42/75 304/43/75
f 208/12/76 449/40/76 75/2/76
f 2/40/77 5/42/77 430/2/77
f 83/6/78 8/5/78 199/43/78
f 210/45/79 342/44/79 39/32/79
f 132/32/80 203/44/80 2/31/80
f 289/56/81 301/45/81 145/32/81
f 199/6/82 26/46/82 83/45/82
f 481/45/83 537/56/83 271/6/83
f 387/59/84 14/23/84 267/60/84
f 539/23/85 401/37/85 474/60/85
f 508/23/86 531/59/86 98/61/86
f 97/25/87 442/61/87 159/52/87
f 358/61/88 345/25/88 381/23/88
f 416/60/89 471/37/89 334/8/89
f 321/9/90 90/41/90 97/12/90
f 455/41/91 221/40/91 346/12/91
f 18/41/92 95/9/92 529/8/92
f 285/8/93 457/11/93 502/60/93
f 349/8/94 85/39/94 536/41/94
f 74/62/95 115/62/95 116/62/95
f 115/62/96 74/62/96 114/62/96
f 116/62/97 76/62/97 74/62/97
f 322/62/98 408/62/98 440/62/98
f 76/62/99 116/62/99 77/62/99
f 435/62/100 31/62/100 502/62/100
f 337/62/101 253/62/101 1/62/101
f 74/62/102 73/62/102 113/62/102
f 514/62/103 416/62/103 334/62/103
f 114/62/104 74/62/104 113/62/104
f 80/62/105 120/62/105 121/62/105
f 502/62/106 31/62/106 87/62/106
f 121/62/107 81/62/107 80/62/107
f 425/62/108 72/62/108 15/62/108
f 275/62/109 281/62/109 404/62/109
f 118/62/110 78/62/110 77/62/110
f 12/62/111 196/62/111 188/62/111
f 80/62/112 78/62/112 118/62/112
f 80/62/113 119/62/113 120/62/113
f 119/62/114 80/62/114 118/62/114
f 65/62/115 105/62/115 106/62/115
f 105/62/116 65/62/116 63/62/116
f 106/62/115 66/62/115 65/62/115
f 328/62/117 514/62/117 87/62/117
f 442/62/118 198/62/118 356/62/118
f 103/62/119 63/62/119 81/62/119
f 216/62/120 354/62/120 496/62/120
f 530/62/121 221/62/121 362/62/121
f 63/62/122 104/62/122 105/62/122
f 104/62/123 63/62/123 103/62/123
f 70/62/124 110/62/124 111/62/124
f 110/62/125 70/62/125 109/62/125
f 111/62/126 71/62/126 70/62/126
f 252/62/127 249/62/127 377/62/127
f 71/62/128 111/62/128 73/62/128
f 108/62/129 68/62/129 66/62/129
f 264/62/130 296/62/130 342/62/130
f 70/62/131 68/62/131 108/62/131
f 274/62/132 257/62/132 204/62/132
f 109/62/133 70/62/133 108/62/133
f 296/62/134 37/62/134 146/62/134
f 315/62/135 382/62/135 372/62/135
f 406/62/136 298/62/136 198/62/136
f 117/62/137 77/62/137 116/62/137
f 498/62/138 27/62/138 274/62/138
f 342/62/139 296/62/139 146/62/139
f 113/62/140 73/62/140 112/62/140
f 381/62/141 296/62/141 41/62/141
f 281/62/142 240/62/142 88/62/142
f 84/62/143 37/62/143 202/62/143
f 194/62/144 465/62/144 189/62/144
f 306/62/145 501/62/145 276/62/145
f 358/62/146 212/62/146 364/62/146
f 102/62/147 81/62/147 121/62/147
f 296/62/148 264/62/148 41/62/148
f 118/62/149 77/62/149 117/62/149
f 144/62/150 215/62/150 123/62/150
f 132/62/151 430/62/151 228/62/151
f 357/62/152 364/62/152 33/62/152
f 18/62/153 357/62/153 521/62/153
f 191/62/154 10/62/154 432/62/154
f 91/62/155 372/62/155 218/62/155
f 470/62/156 387/62/156 243/62/156
f 107/62/157 66/62/157 106/62/157
f 240/62/158 513/62/158 486/62/158
f 371/62/159 520/62/159 450/62/159
f 103/62/160 81/62/160 102/62/160
f 303/62/161 352/62/161 365/62/161
f 450/62/162 155/62/162 525/62/162
f 18/62/163 529/62/163 533/62/163
f 182/62/164 263/62/164 483/62/164
f 6/62/165 145/62/165 515/62/165
f 353/62/166 158/62/166 534/62/166
f 112/62/167 73/62/167 111/62/167
f 259/62/168 499/62/168 224/62/168
f 266/62/169 390/62/169 375/62/169
f 108/62/170 66/62/170 107/62/170
f 520/62/171 527/62/171 216/62/171
f 342/62/172 217/62/172 264/62/172
f 327/62/173 467/62/173 264/62/173
f 139/62/174 33/62/174 41/62/174
f 41/62/175 264/62/175 467/62/175
f 250/62/176 260/62/176 428/62/176
f 126/62/177 168/62/177 167/62/177
f 278/62/178 228/62/178 438/62/178
f 423/62/179 224/62/179 396/62/179
f 133/62/180 172/62/180 171/62/180
f 524/62/181 160/62/181 211/62/181
f 459/62/182 343/62/182 243/62/182
f 505/62/183 431/62/183 517/62/183
f 332/62/184 157/62/184 432/62/184
f 522/62/185 334/62/185 545/62/185
f 99/62/186 10/62/186 361/62/186
f 141/62/187 163/62/187 162/62/187
f 334/62/188 471/62/188 545/62/188
f 474/62/189 202/62/189 346/62/189
f 126/62/190 167/62/190 166/62/190
f 97/62/191 49/62/191 268/62/191
f 400/62/192 319/62/192 24/62/192
f 262/62/193 458/62/193 535/62/193
f 159/62/194 321/62/194 97/62/194
f 189/62/195 8/62/195 47/62/195
f 142/62/196 425/62/196 15/62/196
f 372/62/197 91/62/197 518/62/197
f 137/62/198 178/62/198 177/62/198
f 327/62/199 264/62/199 217/62/199
f 141/62/200 162/62/200 181/62/200
f 212/62/201 358/62/201 381/62/201
f 445/62/202 406/62/202 198/62/202
f 425/62/203 205/62/203 247/62/203
f 11/62/204 543/62/204 496/62/204
f 520/62/205 389/62/205 450/62/205
f 206/62/206 330/62/206 349/62/206
f 133/62/207 173/62/207 172/62/207
f 494/62/208 207/62/208 79/62/208
f 389/62/209 292/62/209 256/62/209
f 137/62/210 177/62/210 176/62/210
f 506/62/211 513/62/211 240/62/211
f 284/62/212 474/62/212 478/62/212
f 472/62/213 487/62/213 187/62/213
f 130/62/214 169/62/214 168/62/214
f 511/62/215 395/62/215 402/62/215
f 128/62/216 130/62/216 168/62/216
f 467/62/217 139/62/217 41/62/217
f 128/62/218 168/62/218 126/62/218
f 171/62/219 131/62/219 133/62/219
f 212/62/220 33/62/220 364/62/220
f 131/62/221 171/62/221 130/62/221
f 130/62/222 170/62/222 169/62/222
f 170/62/223 130/62/223 171/62/223
f 122/62/224 164/62/224 163/62/224
f 164/62/225 122/62/225 165/62/225
f 324/62/226 417/62/226 382/62/226
f 185/62/227 370/62/227 4/62/227
f 122/62/228 163/62/228 141/62/228
f 525/62/229 155/62/229 476/62/229
f 485/62/230 209/62/230 390/62/230
f 126/62/231 166/62/231 125/62/231
f 125/62/232 165/62/232 122/62/232
f 165/62/233 125/62/233 166/62/233
f 140/62/234 179/62/234 178/62/234
f 179/62/235 140/62/235 180/62/235
f 138/62/236 140/62/236 178/62/236
f 537/62/237 410/62/237 156/62/237
f 138/62/238 178/62/238 137/62/238
f 386/62/239 435/62/239 502/62/239
f 331/62/240 499/62/240 34/62/240
f 141/62/241 181/62/241 140/62/241
f 213/62/242 221/62/242 455/62/242
f 180/62/243 140/62/243 181/62/243
f 134/62/244 174/62/244 173/62/244
f 491/62/245 124/62/245 386/62/245
f 133/62/246 134/62/246 173/62/246
f 399/62/247 145/62/247 307/62/247
f 124/62/248 435/62/248 386/62/248
f 176/62/249 136/62/249 137/62/249
f 233/62/250 524/62/250 25/62/250
f 136/62/251 176/62/251 134/62/251
f 134/62/252 175/62/252 174/62/252
f 175/62/253 134/62/253 176/62/253
f 428/63/254 404/64/254 88/65/254
f 158/11/255 371/64/255 534/66/255
f 499/67/256 236/65/256 34/64/256
f 221/68/257 403/65/257 79/69/257
f 508/65/258 486/67/258 531/69/258
f 530/70/259 49/66/259 251/64/259
f 426/71/260 69/72/260 541/73/260
f 404/72/261 281/71/261 88/74/261
f 100/75/262 67/73/262 62/72/262
f 513/70/263 506/73/263 87/66/263
f 203/73/264 185/75/264 2/66/264
f 49/76/265 97/77/265 147/78/265
f 298/79/266 249/78/266 356/77/266
f 424/77/267 350/76/267 533/80/267
f 525/81/268 530/80/268 534/82/268
f 98/81/269 393/77/269 340/80/269
f 207/83/270 494/78/270 546/84/270
f 463/85/271 418/68/271 3/86/271
f 421/68/272 184/69/272 150/86/272
f 418/85/273 463/86/273 1/84/273
f 546/79/274 149/84/274 336/78/274
f 330/83/275 361/84/275 85/86/275
f 526/87/276 453/74/276 192/71/276
f 423/88/277 396/89/277 286/90/277
f 455/89/278 364/91/278 213/90/278
f 304/92/279 295/90/279 376/58/279
f 281/92/280 506/58/280 240/93/280
f 87/88/281 506/90/281 328/92/281
f 250/89/282 376/80/282 295/91/282
f 235/76/283 238/78/283 237/94/283
f 377/78/284 501/7/284 252/94/284
f 478/76/285 474/94/285 401/80/285
f 326/80/286 42/95/286 316/91/286
f 350/95/287 156/80/287 533/94/287
f 407/96/288 442/97/288 439/98/288
f 84/96/289 339/99/289 37/97/289
f 227/51/290 235/98/290 229/97/290
f 226/87/290 235/98/290 227/74/290
f 465/98/291 93/51/291 189/74/291
f 235/99/290 231/100/290 229/97/290
f 423/101/292 265/93/292 244/102/292
f 231/101/293 234/92/293 232/93/293
f 442/103/294 356/102/294 336/93/294
f 502/99/295 87/102/295 522/100/295
f 325/102/296 451/103/296 507/100/296
f 313/79/297 485/77/297 535/104/297
f 439/84/298 251/79/298 49/104/298
f 186/77/299 39/81/299 146/104/299
f 532/82/300 308/105/300 35/104/300
f 156/81/301 355/82/301 533/104/301
f 332/85/302 47/84/302 8/104/302
f 351/63/303 374/106/303 460/64/303
f 183/106/304 94/70/304 443/64/304
f 194/63/305 189/65/305 273/104/305
f 498/68/306 194/85/306 27/104/306
f 540/65/307 92/68/307 52/104/307
f 360/107/308 536/108/308 348/104/308
f 508/109/309 94/107/309 88/104/309
f 317/108/310 469/110/310 230/104/310
f 154/106/311 492/63/311 537/104/311
f 295/110/312 352/106/312 303/104/312
f 24/111/313 160/109/313 441/104/313
f 13/112/314 384/113/314 257/104/314
f 544/105/315 427/112/315 30/104/315
f 249/113/316 298/114/316 325/104/316
f 350/115/317 464/111/317 413/104/317
f 511/114/318 319/115/318 400/104/318
f 223/70/290 235/106/290 226/73/290
f 378/113/319 540/101/319 394/102/319
f 231/101/320 235/113/320 234/92/320
f 215/114/321 19/113/321 370/102/321
f 243/99/322 343/115/322 470/102/322
f 494/114/323 403/102/323 44/115/323
f 144/112/324 157/92/324 297/113/324
f 544/82/325 30/89/325 312/105/325
f 150/89/326 406/82/326 145/80/326
f 529/88/327 523/105/327 422/89/327
f 184/112/328 517/105/328 298/92/328
f 247/105/329 352/88/329 380/92/329
f 362/108/330 534/107/330 530/71/330
f 313/107/331 417/87/331 209/71/331
f 487/108/332 186/71/332 339/73/332
f 347/110/333 21/73/333 148/106/333
f 14/110/334 387/108/334 470/73/334
f 2/87/335 482/107/335 12/98/335
f 335/96/336 454/111/336 49/99/336
f 344/115/337 213/99/337 364/111/337
f 364/111/338 455/96/338 358/98/338
f 428/109/339 183/98/339 250/107/339
f 506/109/340 491/111/340 328/98/340
f 241/116/341 235/69/341 242/117/341
f 399/69/342 525/116/342 476/86/342
f 32/67/343 196/117/343 309/69/343
f 367/64/344 366/11/344 368/117/344
f 235/67/345 223/64/345 242/117/345
f 320/83/346 503/118/346 488/78/346
f 158/7/347 527/78/347 371/118/347
f 238/83/341 235/86/341 239/118/341
f 161/119/348 532/86/348 35/116/348
f 235/86/290 241/119/290 239/118/290
f 427/120/349 190/121/349 40/122/349
f 204/121/350 214/120/350 39/123/350
f 59/123/351 326/120/351 316/124/351
f 510/125/352 191/126/352 17/127/352
f 516/121/353 355/123/353 378/128/353
f 430/129/354 459/130/354 228/124/354
f 481/129/355 271/131/355 324/132/355
f 19/131/356 297/120/356 363/122/356
f 326/129/357 518/133/357 246/130/357
f 469/130/358 386/133/358 457/134/358
f 282/133/359 75/129/359 449/132/359
f 337/135/360 433/126/360 473/125/360
f 23/136/361 528/137/361 152/138/361
f 146/138/362 39/139/362 342/136/362
f 17/137/363 432/136/363 157/140/363
f 194/141/364 273/140/364 13/142/364
f 379/140/365 154/141/365 316/137/365
f 248/143/366 155/144/366 388/145/366
f 153/137/367 503/146/367 446/147/367
f 433/147/368 385/138/368 286/137/368
f 386/146/369 502/137/369 457/141/369
f 540/148/370 378/143/370 92/145/370
f 183/142/371 15/143/371 279/148/371
f 370/120/372 278/129/372 320/124/372
f 530/149/373 251/150/373 221/151/373
f 2/150/374 12/149/374 5/152/374
f 251/152/375 149/149/375 221/126/375
f 444/149/376 397/153/376 478/154/376
f 62/150/377 151/152/377 500/155/377
f 219/150/378 257/156/378 384/151/378
f 21/157/379 319/158/379 349/128/379
f 284/158/380 84/156/380 202/159/380
f 393/150/381 152/160/381 528/156/381
f 295/156/382 260/160/382 250/159/382
f 189/160/383 47/150/383 273/155/383
f 263/153/384 182/149/384 401/151/384
f 317/153/385 328/123/385 469/124/385
f 275/123/386 197/153/386 281/157/386
f 197/157/387 506/153/387 281/151/387
f 413/129/388 272/120/388 495/131/388
f 402/123/389 217/157/389 36/128/389
f 300/154/390 293/161/390 333/126/390
f 373/149/391 218/154/391 458/126/391
f 412/154/392 148/153/392 497/124/392
f 9/154/393 360/130/393 348/161/393
f 377/161/394 249/130/394 127/134/394
f 538/130/395 190/154/395 201/124/395
f 139/162/396 95/163/396 521/164/396
f 524/163/397 441/162/397 160/165/397
f 525/162/398 399/164/398 280/166/398
f 452/167/399 75/166/399 437/168/399
f 286/167/400 55/162/400 265/166/400
f 148/169/401 412/165/401 427/162/401
f 279/164/402 72/170/402 376/171/402
f 18/164/403 521/163/403 95/170/403
f 1/166/404 199/164/404 93/171/404
f 149/168/405 251/166/405 82/172/405
f 528/166/406 23/171/406 277/172/406
f 36/173/407 210/167/407 29/168/407
f 397/174/408 84/175/408 478/176/408
f 319/176/409 160/175/409 24/177/409
f 534/174/410 371/176/410 525/178/410
f 405/179/411 480/178/411 156/180/411
f 245/179/412 489/174/412 409/178/412
f 405/177/413 350/175/413 413/181/413
f 465/182/414 418/183/414 93/184/414
f 354/183/415 52/170/415 195/184/415
f 443/181/416 94/185/416 340/177/416
f 492/186/417 355/181/417 410/175/417
f 462/178/418 67/176/418 448/187/418
f 537/170/419 481/163/419 316/188/419
f 444/189/420 246/140/420 397/136/420
f 187/136/421 84/190/421 397/189/421
f 191/140/422 188/189/422 10/191/422
f 519/189/423 385/192/423 504/193/423
f 524/191/424 233/189/424 151/193/424
f 208/190/425 75/136/425 366/139/425
f 329/142/426 485/191/426 266/143/426
f 6/140/427 289/191/427 145/142/427
f 93/191/428 8/193/428 189/143/428
f 517/193/429 195/194/429 377/144/429
f 21/143/430 536/193/430 360/144/430
f 472/193/431 365/192/431 487/194/431
f 314/171/432 528/183/432 277/182/432
f 448/171/433 22/170/433 25/183/433
f 92/172/434 378/171/434 420/182/434
f 12/188/435 188/163/435 5/195/435
f 429/165/436 314/195/436 288/163/436
f 373/170/437 262/188/437 428/184/437
f 488/142/438 343/148/438 459/146/438
f 37/146/439 296/141/439 345/142/439
f 18/148/440 369/147/440 357/146/440
f 98/195/441 531/184/441 393/188/441
f 272/148/442 208/145/442 366/147/442
f 456/196/443 270/197/443 26/198/443
f 329/199/444 266/200/444 208/201/444
f 424/196/445 412/202/445 200/197/445
f 504/202/446 340/203/446 393/204/446
f 196/202/447 16/204/447 309/197/447
f 501/201/448 377/205/448 526/199/448
f 283/206/449 437/196/449 300/199/449
f 326/199/450 444/196/450 182/198/450
f 298/207/451 356/206/451 198/199/451
f 442/200/452 251/199/452 439/208/452
f 507/199/453 484/198/453 325/208/453
f 7/209/454 91/210/454 411/211/454
f 460/209/455 100/212/455 62/213/455
f 143/212/456 526/209/456 294/211/456
f 153/213/457 359/214/457 387/209/457
f 369/213/458 158/215/458 357/216/458
f 383/214/459 471/213/459 416/216/459
f 348/211/460 309/217/460 308/212/460
f 485/218/461 28/214/461 535/219/461
f 274/210/462 225/209/462 498/214/462
f 4/214/463 19/216/463 363/219/463
f 299/216/464 436/220/464 152/221/464
f 385/219/465 519/216/465 286/221/465
f 64/207/466 269/222/466 442/223/466
f 222/204/467 299/224/467 486/225/467
f 346/197/468 358/204/468 455/225/468
f 310/198/469 391/197/469 249/226/469
f 47/208/470 384/198/470 13/226/470
f 509/197/471 505/225/471 517/226/471
f 7/227/472 246/224/472 518/204/472
f 23/228/473 435/229/473 305/202/473
f 357/202/474 33/196/474 521/228/474
f 517/203/475 325/202/475 298/229/475
f 139/204/476 201/203/476 529/227/476
f 96/229/477 527/227/477 158/203/477
f 489/226/478 245/230/478 462/208/478
f 277/205/479 305/231/479 101/232/479
f 443/199/480 15/205/480 183/232/480
f 160/207/481 347/199/481 408/232/481
f 145/206/482 301/207/482 255/223/482
f 500/232/483 233/222/483 22/207/483
f 1/201/484 253/233/484 291/231/484
f 483/230/485 379/234/485 42/200/485
f 399/200/486 515/208/486 145/230/486
f 94/201/487 98/200/487 340/233/487
f 190/205/488 523/201/488 529/231/488
f 221/200/489 44/234/489 403/233/489
f 518/235/490 91/236/490 7/132/490
f 372/131/491 313/235/491 458/132/491
f 149/236/492 44/235/492 221/237/492
f 361/158/493 10/238/493 188/239/493
f 196/132/494 482/236/494 16/240/494
f 423/235/495 244/241/495 259/237/495
f 3/121/496 418/241/496 225/122/496
f 157/241/497 332/239/497 83/237/497
f 346/239/498 345/121/498 358/128/498
f 285/241/499 502/131/499 522/122/499
f 212/131/500 381/241/500 41/235/500
f 443/238/501 142/158/501 15/159/501
f 228/160/502 459/242/502 243/159/502
f 15/242/503 72/160/503 279/240/503
f 99/240/504 47/160/504 432/155/504
f 11/156/505 496/157/505 542/151/505
f 19/157/506 144/156/506 297/158/506
f 270/236/507 456/242/507 129/240/507
f 314/158/508 161/239/508 35/128/508
f 296/239/509 381/238/509 345/237/509
f 395/236/510 400/238/510 538/242/510
f 271/242/511 537/238/511 156/159/511
f 527/238/512 394/236/512 354/237/512
f 453/239/513 92/241/513 420/121/513
f 497/215/514 148/243/514 360/244/514
f 139/245/515 467/243/515 201/215/515
f 143/243/516 501/246/516 526/244/516
f 4/210/517 363/214/517 185/218/517
f 546/211/518 475/210/518 207/218/518
f 293/213/519 282/245/519 449/215/519
f 123/215/520 510/244/520 17/220/520
f 487/216/521 339/215/521 187/220/521
f 501/217/522 447/247/522 336/245/522
f 474/245/523 284/213/523 202/212/523
f 129/245/524 479/212/524 482/217/524
f 31/218/525 435/219/525 23/211/525
f 378/246/526 355/243/526 492/248/526
f 526/243/527 192/245/527 263/248/527
f 204/249/528 186/211/528 258/219/528
f 464/250/529 200/249/529 497/221/529
f 149/219/530 82/221/530 336/249/530
f 28/248/531 9/245/531 535/247/531
f 240/251/532 486/250/532 508/220/532
f 294/250/533 276/221/533 143/220/533
f 421/251/534 255/220/534 542/244/534
f 219/246/535 214/252/535 257/244/535
f 161/252/536 314/251/536 277/244/536
f 336/253/537 249/254/537 252/255/537
f 429/256/538 393/253/538 528/255/538
f 404/257/539 428/256/539 461/255/539
f 299/258/540 222/259/540 31/260/540
f 520/261/541 216/256/541 543/257/541
f 477/260/542 219/259/542 99/262/542
f 215/263/543 370/264/543 123/265/543
f 341/265/544 338/266/544 368/263/544
f 135/267/545 322/265/545 524/264/545
f 236/268/546 86/267/546 34/269/546
f 267/267/547 488/264/547 311/269/547
f 510/270/548 5/271/548 191/272/548
f 16/259/549 479/261/549 434/257/549
f 456/253/550 429/273/550 288/254/550
f 193/259/551 101/257/551 275/274/551
f 10/273/552 99/275/552 432/276/552
f 306/276/553 302/275/553 398/277/553
f 394/278/554 516/268/554 378/269/554
f 202/270/555 345/260/555 346/271/555
f 363/279/556 270/270/556 129/272/556
f 1/270/557 463/258/557 337/260/557
f 345/280/558 202/268/558 37/281/558
f 527/268/559 96/278/559 394/281/559
f 330/266/560 85/279/560 349/263/560
f 539/282/561 475/283/561 447/262/561
f 469/282/562 490/262/562 471/274/562
f 182/284/563 478/285/563 401/286/563
f 75/283/564 452/285/564 366/284/564
f 300/286/565 415/287/565 283/284/565
f 147/274/566 97/288/566 90/282/566
f 442/255/567 82/289/567 251/257/567
f 267/278/568 470/269/568 343/290/568
f 309/289/569 348/291/569 32/257/569
f 33/274/570 212/257/570 41/291/570
f 433/291/571 286/288/571 396/274/571
f 511/284/572 206/262/572 349/283/572
f 213/292/573 344/289/573 362/255/573
f 418/293/574 465/292/574 225/255/574
f 263/276/575 302/254/575 526/273/575
f 328/259/576 491/274/576 386/262/576
f 261/276/577 272/293/577 413/254/577
f 273/293/578 47/255/578 13/254/578
f 504/294/579 385/287/579 340/286/579
f 89/286/580 310/295/580 249/294/580
f 407/294/581 64/295/581 442/296/581
f 28/296/582 329/297/582 261/298/582
f 422/296/583 523/298/583 427/294/583
f 354/286/584 540/285/584 52/299/584
f 275/300/585 101/286/585 197/299/585
f 9/299/586 28/285/586 360/301/586
f 420/301/587 378/283/587 154/302/587
f 11/285/588 290/283/588 292/301/588
f 31/295/589 513/286/589 87/300/589
f 329/297/590 208/296/590 272/303/590
f 471/304/591 383/297/591 230/303/591
f 276/303/592 294/296/592 302/305/592
f 254/305/593 49/295/593 147/300/593
f 359/296/594 243/295/594 387/305/594
f 387/283/595 311/282/595 153/302/595
f 38/306/596 322/307/596 440/308/596
f 464/307/597 424/306/597 200/309/597
f 274/309/598 204/306/598 258/310/598
f 408/309/599 211/311/599 160/312/599
f 210/307/600 214/309/600 219/313/600
f 88/291/601 240/289/601 508/314/601
f 436/282/602 299/288/602 31/315/602
f 438/302/603 243/282/603 359/315/603
f 521/315/604 33/288/604 139/316/604
f 484/316/605 287/291/605 325/314/605
f 528/288/606 314/291/606 429/316/606
f 320/317/607 278/297/607 503/304/607
f 442/318/608 336/280/608 82/281/608
f 200/319/609 412/320/609 497/318/609
f 456/318/610 26/320/610 429/280/610
f 252/314/611 501/289/611 336/321/611
f 20/317/612 262/322/612 535/319/612
f 439/317/613 49/319/613 454/318/613
f 249/275/614 325/319/614 287/277/614
f 515/320/615 399/319/615 476/275/615
f 433/319/616 337/322/616 385/277/616
f 360/281/617 28/297/617 261/317/617
f 292/317/618 389/318/618 11/281/618
f 183/289/619 88/292/619 94/321/619
f 448/277/620 100/322/620 374/323/620
f 380/324/621 425/277/621 247/323/621
f 480/323/622 405/322/622 413/325/622
f 142/325/623 385/317/623 205/304/623
f 415/322/624 426/317/624 283/325/624
f 38/276/625 440/277/625 462/324/625
f 148/292/626 544/293/626 347/326/626
f 72/321/627 304/292/627 376/326/627
f 479/326/628 456/293/628 288/327/628
f 197/327/629 305/276/629 491/324/629
f 486/293/630 299/276/630 531/327/630
f 463/328/631 3/329/631 247/139/631
f 357/328/632 344/139/632 364/138/632
f 203/139/633 132/329/633 228/190/633
f 230/329/634 416/330/634 317/192/634
f 266/330/635 293/194/635 449/192/635
f 435/328/636 124/138/636 305/147/636
f 512/331/637 417/332/637 271/333/637
f 205/334/638 425/331/638 142/333/638
f 96/333/639 355/332/639 516/335/639
f 421/336/640 496/337/640 184/338/640
f 95/332/641 139/339/641 529/335/641
f 245/340/642 524/184/642 151/195/642
f 464/341/643 350/162/643 424/167/643
f 373/169/644 260/162/644 218/341/644
f 529/173/645 422/341/645 533/167/645
f 478/342/646 182/343/646 444/181/646
f 272/184/647 366/344/647 367/182/647
f 377/340/648 195/165/648 526/169/648
f 415/344/649 414/173/649 69/172/649
f 161/172/650 193/182/650 532/344/650
f 39/340/651 186/195/651 204/165/651
f 192/341/652 420/340/652 483/169/652
f 205/168/653 463/172/653 247/173/653
f 72/345/654 380/331/654 304/334/654
f 1/346/655 26/179/655 199/347/655
f 544/346/656 148/348/656 427/179/656
f 458/177/657 313/185/657 535/176/657
f 339/338/658 84/349/658 187/336/658
f 250/187/659 183/176/659 376/185/659
f 339/348/660 186/174/660 146/179/660
f 96/186/661 516/350/661 394/351/661
f 123/347/662 370/179/662 320/180/662
f 211/350/663 408/186/663 322/348/663
f 448/348/664 38/175/664 462/174/664
f 348/175/665 85/348/665 32/186/665
f 129/336/666 185/352/666 363/337/666
f 340/353/667 385/333/667 142/354/667
f 25/334/668 38/333/668 448/353/668
f 305/333/669 277/335/669 23/354/669
f 444/331/670 326/345/670 246/349/670
f 411/349/671 295/355/671 303/331/671
f 151/352/672 233/334/672 500/353/672
f 185/353/673 129/354/673 482/337/673
f 265/352/674 86/353/674 244/337/674
f 219/345/675 29/336/675 210/349/675
f 93/345/676 199/334/676 8/352/676
f 387/336/677 267/345/677 311/352/677
f 31/356/678 222/272/678 513/287/678
f 36/272/679 217/271/679 342/287/679
f 441/294/680 524/356/680 245/287/680
f 220/290/681 389/298/681 256/278/681
f 519/290/682 504/356/682 55/294/682
f 489/271/683 312/284/683 40/287/683
f 412/350/684 422/346/684 427/357/684
f 201/192/685 327/190/685 395/329/685
f 305/350/686 124/348/686 491/346/686
f 293/284/687 323/260/687 333/262/687
f 101/271/688 305/260/688 197/284/688
f 306/298/689 539/290/689 447/294/689
f 1/358/690 93/359/690 418/356/690
f 245/358/691 151/356/691 462/290/691
f 389/264/692 520/359/692 543/358/692
f 370/269/693 203/358/693 278/290/693
f 20/358/694 348/269/694 308/264/694
f 409/359/695 40/264/695 190/263/695
f 430/281/696 5/278/696 510/297/696
f 325/278/697 517/298/697 451/297/697
f 352/359/698 247/272/698 365/356/698
f 531/359/699 152/263/699 393/279/699
f 297/272/700 83/359/700 270/279/700
f 331/189/701 253/190/701 473/192/701
f 367/347/702 368/360/702 338/346/702
f 545/361/703 457/351/703 285/350/703
f 5/362/704 188/360/704 191/347/704
f 490/360/705 545/357/705 471/346/705
f 448/357/706 67/361/706 100/350/706
f 317/363/707 416/362/707 514/347/707
f 21/180/708 347/178/708 319/187/708
f 348/181/709 536/343/709 85/185/709
f 522/342/710 87/186/710 514/351/710
f 334/180/711 522/363/711 514/347/711
f 400/342/712 24/181/712 538/186/712
f 84/343/713 284/187/713 478/185/713
f 313/332/714 372/331/714 382/364/714
f 480/364/715 512/331/715 271/355/715
f 271/339/716 156/332/716 480/364/716
f 512/365/717 341/366/717 375/337/717
f 146/366/718 37/338/718 339/337/718
f 307/339/719 406/367/719 445/335/719
f 504/365/720 429/337/720 26/354/720
f 184/343/721 496/180/721 517/187/721
f 55/368/722 291/365/722 265/354/722
f 20/367/723 535/368/723 9/335/723
f 272/368/724 261/354/724 329/335/724
f 430/369/725 510/370/725 459/371/725
f 228/372/726 243/369/726 438/371/726
f 405/373/727 156/372/727 350/371/727
f 27/374/728 194/375/728 13/376/728
f 389/375/729 220/377/729 493/378/729
f 460/370/730 374/369/730 100/379/730
f 472/379/731 187/369/731 397/380/731
f 363/380/732 297/381/732 270/379/732
f 318/382/733 426/383/733 415/384/733
f 195/379/734 496/384/734 354/370/734
f 143/384/735 276/379/735 501/382/735
f 479/375/736 16/378/736 482/376/736
f 499/385/737 331/386/737 396/376/737
f 210/374/738 36/376/738 342/386/738
f 291/387/739 253/388/739 34/389/739
f 255/390/740 421/391/740 145/392/740
f 19/393/741 4/389/741 370/388/741
f 393/386/742 429/394/742 504/374/742
f 457/378/743 545/395/743 490/385/743
f 17/376/744 191/378/744 432/385/744
f 332/383/745 8/382/745 83/394/745
f 417/385/746 313/383/746 382/386/746
f 198/394/747 442/386/747 97/383/747
f 468/396/748 333/382/748 392/379/748
f 333/392/749 414/391/749 415/397/749
f 483/398/750 263/392/750 192/397/750
f 377/344/751 127/397/751 517/391/751
f 132/390/752 2/374/752 430/399/752
f 390/391/753 209/400/753 512/344/753
f 22/377/754 448/392/754 374/398/754
f 423/401/755 259/402/755 224/403/755
f 495/404/756 338/405/756 413/406/756
f 468/407/757 541/328/757 414/408/757
f 356/408/758 249/409/758 336/410/758
f 541/328/759 69/409/759 414/408/759
f 379/374/760 483/394/760 420/399/760
f 298/410/761 406/396/761 184/381/761
f 277/408/762 193/410/762 161/381/762
f 517/407/763 127/408/763 509/380/763
f 324/381/764 271/396/764 417/379/764
f 55/408/765 1/381/765 291/380/765
f 42/399/766 379/396/766 316/410/766
f 510/399/767 320/400/767 459/391/767
f 183/391/768 279/390/768 376/399/768
f 414/399/769 333/394/769 468/396/769
f 29/400/770 477/399/770 206/410/770
f 404/394/771 461/382/771 275/396/771
f 433/366/772 396/365/772 331/404/772
f 94/411/773 508/412/773 98/330/773
f 465/368/774 498/367/774 225/405/774
f 374/404/775 500/365/775 22/368/775
f 368/405/776 323/404/776 341/368/776
f 326/329/777 59/328/777 518/411/777
f 445/413/778 268/194/778 280/330/778
f 341/145/779 323/144/779 375/413/779
f 388/413/780 450/144/780 389/194/780
f 260/330/781 373/329/781 428/411/781
f 293/330/782 300/412/782 437/413/782
f 426/405/783 318/339/783 69/364/783
f 353/342/784 534/401/784 362/403/784
f 432/351/785 47/414/785 332/401/785
f 438/343/786 153/342/786 446/403/786
f 203/341/787 228/410/787 278/409/787
f 348/340/788 20/341/788 9/409/788
f 280/342/789 307/351/789 445/401/789
f 419/364/790 193/402/790 461/405/790
f 287/405/791 89/367/791 249/339/791
f 40/364/792 409/355/792 489/403/792
f 307/403/793 145/402/793 406/364/793
f 210/355/794 39/349/794 214/403/794
f 420/413/795 192/412/795 453/362/795
f 452/415/796 466/416/796 392/417/796
f 193/418/797 419/419/797 532/415/797
f 449/417/798 208/420/798 266/415/798
f 315/421/799 372/419/799 518/422/799
f 315/418/800 324/415/800 382/420/800
f 315/416/801 518/415/801 59/419/801
f 531/392/802 299/375/802 152/374/802
f 244/374/803 86/390/803 259/392/803
f 254/392/804 335/377/804 49/375/804
f 1/423/805 55/424/805 26/425/805
f 7/423/806 472/426/806 246/424/806
f 207/422/807 475/427/807 346/421/807
f 29/360/808 206/362/808 36/428/808
f 25/357/809 22/360/809 233/428/809
f 253/362/810 337/412/810 473/428/810
f 440/363/811 312/180/811 489/413/811
f 329/362/812 28/363/812 485/413/812
f 135/357/813 524/428/813 211/414/813
f 541/427/814 466/422/814 426/423/814
f 463/406/815 385/421/815 337/427/815
f 203/429/816 370/430/816 185/431/816
f 300/361/817 333/357/817 415/414/817
f 328/351/818 386/361/818 469/414/818
f 338/240/819 495/432/819 367/132/819
f 35/433/820 434/132/820 288/432/820
f 18/388/821 96/387/821 369/434/821
f 440/393/822 544/388/822 312/434/822
f 213/387/823 362/435/823 221/434/823
f 21/436/824 360/433/824 148/432/824
f 398/135/825 302/437/825 263/438/825
f 20/438/826 532/439/826 419/135/826
f 306/387/827 276/438/827 302/437/827
f 410/433/828 355/436/828 156/440/828
f 293/437/829 375/435/829 323/387/829
f 219/135/830 477/439/830 29/441/830
f 263/418/831 401/442/831 398/443/831
f 72/443/832 425/419/832 380/418/832
f 224/426/833 499/443/833 396/442/833
f 49/328/834 280/407/834 268/411/834
f 25/442/835 524/444/835 322/426/835
f 452/443/836 437/426/836 466/423/836
f 366/445/837 452/446/837 392/431/837
f 519/135/838 55/441/838 286/447/838
f 154/445/839 378/431/839 492/430/839
f 19/423/840 215/422/840 144/443/840
f 532/422/841 20/419/841 308/443/841
f 465/448/842 194/449/842 498/450/842
f 144/451/843 17/452/843 157/453/843
f 512/454/844 480/452/844 341/451/844
f 30/455/845 40/436/845 312/432/845
f 182/456/846 483/432/846 42/457/846
f 496/432/847 421/456/847 542/455/847
f 323/450/848 368/454/848 392/451/848
f 225/458/849 274/459/849 258/460/849
f 466/459/850 283/458/850 426/461/850
f 525/459/851 49/461/851 530/462/851
f 219/430/852 384/452/852 99/454/852
f 368/454/853 366/445/853 392/430/853
f 59/432/854 316/240/854 481/457/854
f 330/463/855 206/448/855 477/451/855
f 390/453/856 512/463/856 375/451/856
f 265/448/857 291/434/857 86/449/857
f 294/451/858 526/448/858 302/450/858
f 434/434/859 479/435/859 288/449/859
f 209/393/860 417/434/860 512/448/860
f 353/447/861 357/464/861 158/155/861
f 3/155/862 258/135/862 365/447/862
f 75/240/863 282/155/863 293/464/863
f 529/463/864 201/393/864 190/448/864
f 322/464/865 135/457/865 211/240/865
f 394/465/866 540/417/866 354/466/866
f 468/467/867 392/465/867 466/466/867
f 308/401/868 309/467/868 35/402/868
f 97/419/869 445/421/869 198/416/869
f 468/467/870 466/466/870 541/402/870
f 309/468/871 16/467/871 434/401/871
f 410/417/872 537/465/872 492/469/872
f 357/469/873 353/420/873 344/417/873
f 196/470/874 32/469/874 361/465/874
f 153/414/875 438/468/875 359/401/875
f 510/468/876 123/465/876 320/467/876
f 471/417/877 230/416/877 469/466/877
f 319/427/878 347/471/878 160/472/878
f 31/460/879 23/472/879 436/471/879
f 261/472/880 497/406/880 360/427/880
f 488/406/881 459/472/881 320/404/881
f 317/460/882 514/404/882 328/472/882
f 422/471/883 424/427/883 533/423/883
f 495/406/884 272/405/884 367/416/884
f 222/416/885 486/421/885 513/406/885
f 472/466/886 7/416/886 303/402/886
f 361/423/887 330/425/887 99/471/887
f 154/416/888 537/405/888 316/402/888
f 247/420/889 3/469/889 365/473/889
f 408/474/890 347/475/890 544/412/890
f 461/411/891 262/474/891 20/412/891
f 340/428/892 142/412/892 443/476/892
f 278/414/893 446/428/893 503/468/893
f 525/412/894 280/475/894 49/476/894
f 440/372/895 489/373/895 462/475/895
f 327/369/896 217/372/896 402/474/896
f 20/380/897 419/369/897 461/474/897
f 395/407/898 511/380/898 400/411/898
f 411/474/899 91/372/899 260/475/899
f 145/380/900 421/474/900 150/411/900
f 249/428/901 391/476/901 127/468/901
f 539/371/902 474/477/902 475/478/902
f 322/373/903 38/371/903 25/478/903
f 523/478/904 190/477/904 427/465/904
f 190/473/905 538/418/905 409/420/905
f 536/477/906 21/470/906 349/465/906
f 266/429/907 485/453/907 390/452/907
f 286/475/908 265/373/908 423/478/908
f 261/476/909 464/475/909 497/478/909
f 79/468/910 207/476/910 346/478/910
f 338/452/911 341/430/911 480/429/911
f 151/478/912 62/465/912 67/468/912
f 388/479/913 155/480/913 450/134/913
f 433/481/914 331/479/914 473/132/914
f 438/134/915 446/133/915 278/479/915
f 36/127/916 511/134/916 402/480/916
f 411/133/917 260/132/917 295/479/917
f 517/132/918 496/433/918 195/482/918
f 526/161/919 195/134/919 52/127/919
f 464/440/920 261/483/920 413/433/920
f 499/127/921 259/126/921 236/161/921
f 527/482/922 354/481/922 216/132/922
f 293/482/923 437/433/923 75/483/923
f 101/425/924 193/484/924 277/458/924
f 479/485/925 129/486/925 456/487/925
f 333/485/926 323/488/926 392/486/926
f 34/489/927 86/490/927 291/491/927
f 411/487/928 303/489/928 7/485/928
f 434/490/929 35/492/929 309/491/929
f 196/493/930 12/488/930 482/485/930
f 458/471/931 218/458/931 372/460/931
f 283/458/932 466/471/932 437/425/932
f 197/494/933 491/444/933 506/495/933
f 504/485/934 26/495/934 55/493/934
f 3/444/935 225/493/935 258/495/935
f 458/483/936 262/440/936 373/445/936
f 262/418/937 461/496/937 428/442/937
f 355/217/938 96/211/938 533/442/938
f 403/496/939 494/217/939 79/442/939
f 481/135/940 324/125/940 59/437/940
f 259/211/941 86/497/941 236/442/941
f 511/498/942 36/446/942 206/248/942
f 330/217/943 477/496/943 99/247/943
f 280/499/944 399/496/944 307/418/944
