# Blender 5.1.1
# www.blender.org
mtllib low_poly_wolf_animated0000.mtl
o Wolf
v -0.156560 3.360635 -2.118921
v -0.537291 1.274283 -2.092253
v -0.003748 3.712111 -0.948103
v -0.524340 1.429693 -2.506624
v -0.720483 1.450978 -1.866381
v -0.041485 3.107937 3.231088
v 0.506190 3.529940 0.353015
v -0.522708 2.890420 -2.104483
v 0.167694 2.099398 -0.258562
v -0.768637 2.173151 -1.464398
v 0.143024 3.153579 2.966256
v -0.574346 1.571594 -1.682016
v -0.646622 3.146897 -1.094649
v -0.913160 0.071603 -2.257088
v 0.678206 2.967659 -1.849516
v -0.297343 2.055052 -1.581309
v -0.845910 2.115553 -1.913532
v -0.231004 2.608100 1.647208
v -0.593967 1.455037 -2.548301
v 0.290343 2.330447 -0.790303
v -0.255446 1.982477 0.330812
v -0.760646 0.020071 1.078495
v 0.473979 1.568936 -2.192591
v -0.708944 1.791881 0.600544
v -0.584491 0.028116 0.862524
v -0.089328 2.943511 -2.259197
v -0.505078 3.255961 -1.221433
v 0.255446 1.982477 0.330812
v -0.607718 2.755183 -0.245026
v -0.519366 1.721732 0.951568
v 0.565446 1.254741 -2.777346
v -0.455334 2.412191 -1.074945
v -0.587142 3.131912 1.448982
v -0.088824 2.230078 -3.286634
v 0.131985 2.160404 -1.685675
v -0.666203 2.652534 0.190046
v -0.318309 3.909158 1.149093
v -0.559532 0.284289 0.854772
v -0.506190 3.529940 0.353015
v -0.630627 1.664313 1.016692
v -0.554400 3.284393 1.272178
v 0.513619 3.627648 1.319604
v 0.296089 3.779744 2.933277
v -0.517170 4.293763 2.497876
v 0.275040 3.805442 2.951477
v 0.258887 3.811426 2.959894
v -0.791862 2.714759 -1.705491
v 0.223076 3.806808 2.971327
v -0.279536 3.616369 2.876736
v 0.194104 3.782430 2.972236
v 0.185874 3.765530 2.968466
v 0.512463 3.495946 2.385428
v 0.185874 3.730412 2.954277
v 0.194104 3.715633 2.945247
v -0.034945 2.960707 -2.319405
v 0.223076 3.698729 2.927659
v 0.240982 3.698257 2.920821
v 0.258887 3.703347 2.916227
v 0.557364 3.407576 1.084615
v 0.287859 3.727726 2.915317
v 0.296089 3.744630 2.919087
v -0.918383 0.186767 1.044940
v 0.296089 3.779744 2.933277
v -0.252830 3.770130 2.950304
v 0.275040 3.805442 2.951477
v 0.258887 3.811426 2.959894
v -0.814621 0.232247 1.128274
v 0.223076 3.806808 2.971327
v 0.918315 0.063398 1.095694
v 0.194104 3.782430 2.972236
v 0.185874 3.765530 2.968466
v 0.492735 3.154729 -1.551717
v 0.185874 3.730412 2.954277
v 0.194104 3.715633 2.945247
v 0.585916 0.534911 0.659239
v 0.223076 3.698729 2.927659
v 0.240982 3.698257 2.920821
v 0.258887 3.703347 2.916227
v -0.545712 4.052270 2.329385
v 0.287859 3.727726 2.915317
v 0.296089 3.744630 2.919087
v -0.303087 4.063854 2.833037
v -0.412898 2.729908 -2.258591
v -0.200201 4.012708 1.009743
v -0.310103 2.345384 -0.780777
v -0.046169 1.996504 -3.314850
v 0.732489 0.311297 -2.675663
v 0.819788 2.483903 -1.743457
v 0.235168 3.764248 2.945007
v -0.221238 3.744884 2.916915
v 0.651190 3.354243 0.301518
v 0.373627 3.026840 1.916746
v -0.458705 3.109259 -2.040849
v 0.667121 2.734993 -2.093668
v -0.639875 2.668261 1.448986
v -0.000000 2.606223 1.854461
v -0.127231 3.705088 3.006961
v 0.409201 2.717428 -2.272433
v -0.793818 2.668946 -1.293865
v -0.816540 0.068031 1.225958
v 0.574346 1.571594 -1.682016
v 0.314935 3.778514 2.885774
v 0.310757 3.803844 2.897560
v 0.298630 3.825616 2.910859
v 0.279744 3.841701 2.924375
v 0.255944 3.850523 2.936774
v 0.229563 3.851220 2.946854
v 0.203181 3.843717 2.953621
v 0.179382 3.828755 2.956416
v 0.160495 3.807798 2.954960
v 0.148369 3.782897 2.949404
v 0.144190 3.756492 2.940285
v 0.148369 3.731156 2.928499
v 0.160495 3.709384 2.915199
v 0.179382 3.693299 2.901688
v 0.203181 3.684477 2.889285
v 0.229563 3.683785 2.879204
v 0.255944 3.691283 2.872437
v 0.279744 3.706245 2.869647
v 0.298630 3.727202 2.871099
v 0.310757 3.752104 2.876654
v -0.296089 3.779744 2.933277
v -0.687514 0.955924 -2.684394
v 0.601549 0.941597 -2.443906
v -0.275040 3.805442 2.951477
v -0.258887 3.811426 2.959894
v 0.283222 3.763839 2.924738
v -0.223076 3.806808 2.971327
v -0.357390 2.083935 -2.093414
v -0.194104 3.782430 2.972236
v -0.185874 3.765530 2.968466
v -0.601549 0.941597 -2.443906
v -0.185874 3.730412 2.954277
v -0.194104 3.715633 2.945247
v -0.640548 0.552817 0.615315
v -0.223076 3.698729 2.927659
v -0.240982 3.698257 2.920821
v -0.258887 3.703347 2.916227
v -0.745612 2.883015 1.338349
v -0.287859 3.727726 2.915317
v -0.296089 3.744630 2.919087
v 0.458705 3.109259 -2.040849
v 0.517170 4.293763 2.497876
v -0.716457 1.452554 -2.435276
v 0.000000 3.111684 3.368263
v -0.419263 3.829160 0.853134
v -0.237696 3.742655 2.911655
v -0.299399 2.017572 0.684219
v -0.343398 4.129932 2.706074
v 0.076067 3.271228 3.437169
v -0.892666 0.174168 0.881021
v 0.480077 2.079586 -2.335898
v -0.648294 0.020565 -2.260116
v 0.587142 3.131912 1.448982
v -0.143024 3.153579 2.966256
v 0.653760 2.495410 1.355981
v -0.746464 2.299676 -2.115544
v -0.163275 2.838719 2.158648
v -0.221879 3.754578 2.937693
v -0.586244 1.878697 0.404871
v 0.297343 2.055052 -1.581309
v -0.314935 3.778514 2.885774
v -0.310756 3.803844 2.897560
v -0.298630 3.825616 2.910859
v -0.279743 3.841701 2.924375
v -0.255944 3.850523 2.936774
v -0.229563 3.851220 2.946854
v -0.203181 3.843717 2.953621
v -0.179382 3.828755 2.956416
v -0.160495 3.807798 2.954960
v -0.148369 3.782897 2.949404
v -0.144190 3.756492 2.940285
v -0.148369 3.731156 2.928499
v -0.160495 3.709384 2.915199
v -0.179382 3.693299 2.901688
v -0.203181 3.684477 2.889285
v -0.229563 3.683785 2.879204
v -0.255944 3.691283 2.872437
v -0.279743 3.706245 2.869647
v -0.298630 3.727202 2.871099
v -0.310756 3.752104 2.876654
v 0.443823 3.900159 1.413466
v 0.791862 2.714759 -1.705491
v 0.200537 3.284538 3.177272
v -0.473979 1.568936 -2.192591
v -0.268725 3.764495 0.355209
v 0.066436 3.874553 0.688042
v -0.734318 1.771513 -1.569089
v -0.678206 2.967659 -1.849516
v -0.747339 2.045271 1.088189
v -0.821933 1.796003 -1.743797
v 0.560623 3.609495 1.975876
v 0.479751 2.043330 -1.273836
v -0.492735 3.154729 -1.551717
v 0.365300 3.517508 2.757189
v -0.479751 2.043330 -1.273836
v 0.720483 1.450978 -1.866381
v 0.009404 3.672115 3.127867
v -0.324918 3.038257 -2.181435
v 0.000000 2.013854 0.936402
v -0.760975 2.534582 1.245858
v -0.271694 4.070991 1.430687
v -0.547937 1.013575 -2.649167
v -0.542297 3.480703 -0.168881
v 0.159016 3.504822 -1.869799
v -0.540432 2.413661 -0.297920
v -0.441838 4.208516 2.377571
v 0.520245 1.787591 0.446882
v 0.708876 2.127877 0.823025
v -0.651190 3.354243 0.301518
v -0.596915 1.494180 0.500160
v -0.501840 3.395041 1.433294
v -0.497659 3.510283 2.246606
v -0.578180 3.313766 -0.174338
v -0.636159 1.244382 -2.766735
v 0.216454 3.188191 2.602863
v -0.613629 3.101787 0.630014
v 0.607718 2.755183 -0.245026
v -0.507252 2.984377 -0.697194
v 0.000000 3.107301 3.271838
v -0.547218 3.978262 2.458647
v 0.636159 1.244382 -2.766735
v -0.296089 3.779744 2.933277
v 0.072325 1.969046 -3.706961
v -0.194393 3.595237 -1.374782
v -0.275040 3.805442 2.951477
v -0.258887 3.811426 2.959894
v -0.602388 0.351853 -2.447969
v -0.223076 3.806808 2.971327
v 0.904644 0.069505 -2.243346
v -0.194104 3.782430 2.972236
v -0.185874 3.765530 2.968466
v -0.842076 0.012116 0.838632
v -0.185874 3.730412 2.954277
v -0.194104 3.715633 2.945247
v -0.072325 1.969046 -3.706961
v -0.223076 3.698729 2.927659
v -0.240982 3.698257 2.920821
v -0.258887 3.703347 2.916227
v 0.845910 2.115553 -1.913532
v -0.287859 3.727726 2.915317
v -0.296089 3.744630 2.919087
v -0.803803 0.250752 -2.197214
v 0.000000 1.968441 -3.251779
v -0.790196 0.392216 0.858195
v 0.419263 3.829161 0.853134
v 0.193485 3.592326 -1.381511
v -0.115480 3.159531 3.049604
v 0.228200 3.823998 3.012678
v 0.739428 2.982675 -1.008577
v -0.369657 3.930596 2.836001
v 0.303088 4.063854 2.833037
v -0.096168 3.115132 -2.431245
v -0.262147 3.743979 2.914271
v 0.079556 3.123376 3.166897
v 0.041485 3.113550 3.237822
v -0.488738 3.271511 -0.729262
v -0.254061 3.691829 -0.235676
v 0.000000 1.813887 -3.729085
v 0.507252 2.984377 -0.697194
v 0.299399 2.017572 0.684219
v 0.423839 2.535563 -0.764858
v 0.449275 4.008496 1.960227
v -0.557364 3.407576 1.084615
v 0.000000 2.655735 -2.544014
v 0.586244 1.878697 0.404871
v -0.914508 0.073938 -2.263271
v -0.164446 3.582631 3.088356
v -0.235168 3.764248 2.945007
v -0.288856 2.647583 -2.289526
v 0.760975 2.534582 1.245858
v 0.467655 1.829340 0.597490
v -0.709635 2.942665 -1.520488
v -0.360110 3.527265 -0.753963
v 0.734318 1.771513 -1.569089
v 0.567092 4.449856 2.551871
v 0.456609 1.742557 -1.703923
v -0.567891 0.307441 -2.657188
v 0.709635 2.942665 -1.520488
v -0.200537 3.284538 3.177272
v 0.821933 1.796003 -1.743797
v 0.640548 0.552817 0.615315
v 0.760646 0.020071 1.078495
v -0.000000 4.115763 1.604126
v 0.505853 0.101367 -2.414075
v 0.141212 2.834336 -2.534992
v 0.221879 3.754578 2.937693
v -0.000000 2.275986 -2.006145
v 0.000000 3.101688 3.265104
v 0.115480 3.159531 3.049604
v -0.141212 2.834336 -2.534992
v 0.079556 3.128989 3.173631
v 0.750607 0.242785 0.736512
v 0.628182 4.360203 2.545944
v 0.488738 3.271511 -0.729262
v -0.391059 3.675778 1.177134
v -0.589919 2.202567 -2.316157
v 0.156349 3.654552 3.028248
v 0.593967 1.455037 -2.548301
v 0.842076 0.012116 0.838632
v 0.041485 3.107937 3.231088
v 0.545712 4.052270 2.329385
v 0.542297 3.480703 -0.168881
v 0.505078 3.255961 -1.221433
v 0.537291 1.274283 -2.092253
v 0.343815 4.220430 2.502331
v -0.075068 3.270766 3.434474
v -0.000000 2.213798 -1.412766
v -0.272243 2.333414 -1.145965
v 0.252830 3.770130 2.950304
v -0.791692 0.029225 -2.306677
v -0.612038 0.955368 0.871029
v 0.529125 2.165457 0.515247
v 0.222608 2.210828 -1.951737
v 0.613629 3.101787 0.630014
v 0.554400 3.284393 1.272178
v 0.923305 0.203217 -2.312637
v 0.925903 0.064780 1.083314
v -0.471514 2.057322 0.442131
v -0.732489 0.311297 -2.675663
v -0.216832 3.748603 2.924479
v -0.585916 0.534911 0.659239
v 0.790196 0.392216 0.858195
v 0.712825 3.038231 0.842369
v 0.160778 3.667979 2.956746
v 0.391059 3.675778 1.177134
v -0.712825 3.038231 0.842369
v 0.762959 0.320776 -2.497051
v 0.402748 1.980916 0.490835
v -0.423839 2.535563 -0.764858
v -0.000000 2.383146 -3.290978
v -0.667121 2.734993 -2.093668
v 0.892666 0.174168 0.881021
v 0.791692 0.029225 -2.306677
v -0.272437 3.747207 2.921924
v 0.000000 4.119082 2.919498
v -0.000000 3.398046 -2.237695
v 0.630627 1.664313 1.016692
v -0.258930 3.904560 0.807528
v 0.327698 2.972888 -2.200653
v 0.780987 1.547123 0.952892
v -0.591326 3.662926 0.868947
v -0.923305 0.203217 -2.312637
v -0.373627 3.026840 1.916746
v -0.443823 3.900159 1.413466
v -0.437444 4.032128 1.948340
v -0.402748 1.980916 0.490835
v -0.022377 2.212732 -0.768480
v -0.415460 2.209962 -0.283767
v 0.392321 2.267290 1.316018
v -0.925903 0.064780 1.083315
v 0.360110 3.527265 -0.753963
v -0.300520 2.970484 2.100701
v 0.328942 3.330620 2.560186
v 0.231004 2.608100 1.647208
v 0.000000 3.902233 3.084340
v -0.423046 2.824733 1.718605
v -0.576632 3.614357 1.600600
v -0.766416 0.087717 -2.097383
v 0.000000 1.970852 0.215914
v -0.611055 2.449686 -1.115721
v -0.512463 3.495946 2.385428
v -0.480077 2.079586 -2.335898
v -0.647028 3.391210 1.633410
v 0.265026 3.685489 -0.241452
v 0.597847 0.615690 0.832890
v 0.612038 0.955368 0.871029
v 0.694395 0.740149 0.901145
v -0.143360 2.594770 1.772450
v -0.565446 1.254741 -2.777346
v -0.215427 3.190655 2.552582
v 0.666203 2.652534 0.190046
v 0.477886 2.770705 -0.689809
v -0.812367 -0.009992 1.148378
v 0.832264 0.672892 0.828141
v 0.646622 3.146897 -1.094649
v 0.369657 3.930596 2.836001
v 0.423046 2.824733 1.718605
v 0.501840 3.395041 1.433294
v 0.375008 3.468464 -1.283699
v -0.513619 3.627648 1.319604
v 0.621876 2.718941 0.580305
v 0.913160 0.071603 -2.257088
v -0.739428 2.982675 -1.008577
v 0.156560 3.360635 -2.118921
v 0.602388 0.351853 -2.447969
v -0.839949 0.012351 -2.167032
v -0.079556 3.128989 3.173631
v 0.023092 3.032174 3.238994
v 0.708944 1.791881 0.600544
v 0.265042 3.770083 2.945191
v 0.695175 0.295763 0.961579
v 0.288856 2.647583 -2.289526
v 0.163275 2.838719 2.158648
v -0.730963 2.589930 0.803280
v 0.088824 2.230078 -3.286634
v 0.240847 3.970786 0.974320
v 0.425816 4.179599 2.252531
v -0.140217 3.092789 3.255130
v -0.708876 2.127877 0.823025
v 0.295028 4.102510 1.952779
v -0.621876 2.718941 0.580305
v -0.628182 4.360203 2.545944
v 0.768637 2.173151 -1.464398
v 0.619237 2.228623 1.274497
v 0.062522 3.298612 3.539528
v -0.265041 3.770083 2.945191
v -0.520245 1.787591 0.446882
v -0.780987 1.547123 0.952892
v 0.639875 2.668261 1.448986
v 0.578180 3.313766 -0.174338
v -0.312918 2.158259 1.155913
v 0.459350 1.987433 1.072327
v 0.918383 0.186767 1.044940
v 0.927100 0.066580 1.077725
v 0.914508 0.073938 -2.263271
v 0.730963 2.589930 0.803280
v -0.159016 3.504822 -1.869799
v 0.455334 2.412191 -1.074945
v 0.647028 3.391210 1.633410
v 0.140217 3.092789 3.255130
v -0.392321 2.267290 1.316018
v 0.046169 1.996504 -3.314850
v 0.000000 2.185397 1.284861
v 0.339501 3.408175 -1.751620
v 0.812367 -0.009992 1.148378
v -0.459350 1.987433 1.072327
v 0.793818 2.668946 -1.293865
v 0.166421 2.511845 -2.212840
v -0.683993 1.010173 -2.437054
v 0.262148 3.743979 2.914271
v -0.819788 2.483903 -1.743457
v 0.096168 3.115132 -2.431245
v -0.151097 2.161784 -1.674883
v 0.547937 1.013575 -2.649167
v 0.524340 1.429693 -2.506624
v 0.584491 0.028116 0.862524
v -0.533648 0.174839 -2.232463
v -0.283222 3.763839 2.924738
v -0.597847 0.615690 0.832890
v -0.832264 0.672892 0.828141
v -0.228200 3.823998 3.012678
v 0.522708 2.890420 -2.104483
v 0.318309 3.909158 1.149093
v -0.070358 3.324606 3.511353
v -0.505853 0.101367 -2.414075
v 0.113673 4.249642 2.602052
v -0.602014 0.122812 1.130393
v 0.596915 1.494180 0.500160
v -0.121399 3.099104 2.906708
v 0.237696 3.742655 2.911655
v 0.559532 0.284289 0.854771
v 0.497659 3.510283 2.246606
v -0.280181 3.754310 2.925977
v -0.560623 3.609495 1.975876
v -0.165182 2.509191 -2.207841
v 0.533648 0.174839 -2.232463
v 0.540432 2.413661 -0.297920
v -0.762959 0.320776 -2.497051
v -0.918315 0.063398 1.095695
v 0.611055 2.449686 -1.115721
v -0.695175 0.295763 0.961579
v -0.000000 3.567331 -1.912265
v 0.312918 2.158259 1.155913
v -0.339501 3.408175 -1.751620
v 0.602014 0.122812 1.130393
v -0.738603 3.073256 1.071467
v 0.814621 0.232248 1.128274
v 0.803803 0.250752 -2.197214
v -0.904644 0.069505 -2.243346
v 0.839949 0.012351 -2.167032
v 0.268725 3.764495 0.355209
v -0.000000 2.987204 -2.732769
v -0.078462 4.137415 1.970135
v -0.257935 4.216417 2.234410
v -0.115480 3.153919 3.042869
v -0.477886 2.770705 -0.689809
v 0.271694 4.070991 1.430687
v -0.222608 2.210828 -1.951737
v 0.747339 2.045271 1.088189
v 0.738603 3.073256 1.071466
v -0.456609 1.742557 -1.703923
v 0.576632 3.614357 1.600600
v 0.216832 3.748603 2.924479
v 0.471514 2.057322 0.442131
v 0.716457 1.452554 -2.435276
v -0.000000 3.767156 0.252847
v -0.850212 0.063357 -2.509902
v -0.694395 0.740149 0.901145
v 0.766416 0.087717 -2.097383
v 0.683993 1.010173 -2.437054
v 0.510510 2.929046 1.549589
v -0.041485 3.113550 3.237822
v -0.567092 4.449856 2.551871
v 0.519366 1.721732 0.951568
v 0.249049 3.173840 2.818642
v 0.000000 1.953245 0.630198
v -0.375008 3.468464 -1.283699
v -0.000000 2.000622 -4.189193
v -0.927100 0.066580 1.077725
v 0.343398 4.129932 2.706074
v 0.567891 0.307441 -2.657188
v -0.587650 0.023002 -2.518366
v 0.074924 2.947158 -2.258517
v 0.272438 3.747207 2.921924
v 0.703371 0.985294 -2.533265
v 0.221238 3.744884 2.916915
v 0.746464 2.299676 -2.115544
v 0.280181 3.754310 2.925977
v -0.703371 0.985294 -2.533265
v -0.529125 2.165457 0.515248
v 0.785080 2.151369 1.012510
v 0.687514 0.955924 -2.684394
v 0.850212 0.063357 -2.509902
v -0.079556 3.123376 3.166897
v 0.143360 2.594770 1.772450
v 0.279536 3.616369 2.876736
v 0.591326 3.662926 0.868947
v 0.099417 3.075424 -2.284133
v 0.000000 3.079700 2.538145
v -0.510510 2.929046 1.549589
v 0.587650 0.023002 -2.518366
v -0.619237 2.228623 1.274497
v -0.750607 0.242785 0.736512
v -0.249049 3.173840 2.818642
v 0.547218 3.978262 2.458647
v 0.008963 2.900262 2.270186
v 0.357390 2.083935 -2.093414
v -0.653760 2.495410 1.355981
v -0.365300 3.517508 2.757189
v 0.589919 2.202567 -2.316157
v 0.272243 2.333414 -1.145965
v 0.000000 2.443817 1.500520
v -0.328941 3.330620 2.560186
v 0.415460 2.209962 -0.283767
v -0.167694 2.099398 -0.258562
v 0.745611 2.883015 1.338349
v -0.785080 2.151370 1.012510
v 0.229006 4.223551 2.249451
v 0.300520 2.970484 2.100701
v 0.816540 0.068031 1.225958
v 0.115480 3.153919 3.042869
v 0.121399 3.099104 2.906708
v -0.467655 1.829340 0.597490
v 0.648294 0.020565 -2.260116
v -0.319034 4.215339 2.549026
vn 0.3255 -0.3542 0.8767
vn 0.7911 0.2225 -0.5697
vn 0.3256 -0.3540 0.8767
vn -0.9889 -0.0291 -0.1457
vn -0.8649 -0.4589 0.2031
vn 0.3256 -0.3543 0.8766
vn -0.3669 -0.7786 0.5091
vn 0.8526 -0.1086 -0.5112
vn -0.0568 0.9908 -0.1232
vn 0.9451 -0.1570 -0.2865
vn -0.9112 -0.3834 -0.1510
vn -0.9621 0.2124 -0.1712
vn -0.2266 -0.8287 0.5118
vn -0.8688 0.1880 0.4580
vn -0.9709 0.0599 -0.2317
vn -0.7488 -0.5899 0.3022
vn -0.5563 -0.0853 0.8266
vn 0.4336 -0.4450 0.7835
vn -0.6760 0.3004 -0.6729
vn 0.6087 0.7860 -0.1078
vn -0.1546 -0.9806 -0.1202
vn -0.2146 -0.9436 -0.2519
vn 0.8302 0.5047 -0.2367
vn 0.8567 0.5147 -0.0330
vn -0.9936 0.0048 -0.1125
vn -0.0532 -0.9983 -0.0219
vn 0.8513 -0.5026 0.1506
vn 0.4356 -0.8914 -0.1251
vn -0.9118 0.0721 -0.4043
vn 0.3258 -0.3542 0.8766
vn 0.2107 0.9206 -0.3287
vn 0.3256 -0.3542 0.8767
vn -0.5120 0.8581 -0.0399
vn -0.2024 -0.9718 -0.1208
vn 0.9923 -0.0546 -0.1114
vn -0.6129 0.7901 -0.0046
vn 0.4883 0.8343 -0.2560
vn 0.7613 0.3767 -0.5277
vn -0.7668 -0.0464 0.6402
vn -0.0776 0.9969 -0.0117
vn 0.9929 0.1187 0.0085
vn 0.0103 0.9874 -0.1576
vn -0.8916 -0.3885 -0.2328
vn 0.9809 0.0873 -0.1737
vn -0.1671 -0.7305 0.6622
vn 0.6116 -0.4377 0.6590
vn -0.5930 -0.7943 0.1318
vn -0.1158 0.9325 0.3420
vn -0.1367 -0.8490 0.5104
vn 0.8194 -0.0337 -0.5722
vn -0.9871 0.1593 0.0130
vn -0.9572 -0.1578 -0.2428
vn -0.4433 -0.8893 -0.1122
vn 0.2184 0.9720 -0.0872
vn 0.6507 -0.7076 0.2754
vn 0.9783 -0.1680 -0.1217
vn 0.4284 0.7802 -0.4558
vn 0.3257 -0.3542 0.8766
vn 0.2804 0.8770 0.3901
vn -0.3565 -0.8492 0.3896
vn 0.6170 0.6472 0.4477
vn -0.4677 -0.8656 -0.1786
vn -0.0861 -0.2919 0.9526
vn -0.7744 0.4364 -0.4582
vn -0.2576 0.5469 0.7966
vn -0.6988 0.5310 0.4793
vn 0.3255 -0.3543 0.8767
vn -0.4336 -0.4450 0.7835
vn -0.1222 0.1824 -0.9756
vn 0.9795 -0.1983 0.0356
vn -0.2319 0.8775 -0.4198
vn -0.8895 0.1624 -0.4270
vn -0.8337 -0.3988 0.3820
vn -0.9938 0.0962 -0.0554
vn -0.8927 0.4504 0.0154
vn -0.0182 -0.1790 0.9837
vn 0.8927 0.4504 0.0154
vn 0.0569 -0.1640 -0.9848
vn -0.0104 -0.7917 0.6108
vn -0.5540 0.3474 -0.7566
vn -0.6967 0.6584 -0.2847
vn 0.9378 -0.3210 0.1324
vn 0.2232 -0.9702 0.0940
vn -0.1930 0.2896 -0.9375
vn 0.9991 0.0429 0.0043
vn -0.4136 -0.8779 -0.2413
vn 0.0699 0.9290 -0.3635
vn 0.6786 0.2953 -0.6725
vn -0.6563 -0.5804 0.4821
vn -0.9320 0.3057 -0.1945
vn 0.4074 -0.8792 -0.2470
vn -0.7206 -0.3562 0.5949
vn -0.9481 0.2649 -0.1760
vn -0.4471 -0.3957 0.8022
vn -0.9506 0.3099 0.0201
vn -0.3597 -0.8781 -0.3155
vn -0.0771 -0.8764 0.4754
vn -0.3118 -0.7986 0.5148
vn -0.2355 -0.8649 0.4433
vn 0.9956 -0.0376 0.0859
vn 0.0914 -0.9481 0.3047
vn -0.9828 -0.0257 -0.1826
vn -0.5739 0.5863 -0.5718
vn -0.4465 -0.6343 0.6312
vn 0.3582 -0.9321 -0.0534
vn -0.4464 -0.6342 0.6313
vn 0.8584 -0.4659 0.2146
vn -0.1078 -0.1254 -0.9862
vn 0.8584 -0.4658 0.2147
vn 0.7998 0.5861 0.1300
vn 0.8886 -0.1853 0.4196
vn 0.3205 -0.9185 0.2315
vn -0.2277 -0.6106 0.7585
vn 0.6381 -0.7522 0.1644
vn 0.7238 -0.6650 0.1842
vn 0.5343 -0.7975 0.2802
vn 0.5383 0.4586 0.7070
vn 0.8025 0.2869 0.5231
vn 0.9296 0.3239 -0.1758
vn -0.3455 0.1608 0.9246
vn 0.9444 -0.1232 0.3047
vn 0.7518 -0.6406 -0.1562
vn -0.9203 -0.1227 0.3714
vn 0.7047 0.2796 0.6521
vn 0.8584 0.1861 0.4781
vn -0.4465 0.0178 0.8946
vn -0.3119 0.2168 0.9251
vn -0.4464 0.0178 0.8946
vn 0.6296 0.3302 0.7033
vn -0.5419 -0.3149 0.7792
vn 0.2013 0.5097 0.8364
vn -0.8001 0.3214 0.5065
vn -0.2356 0.3142 0.9197
vn -0.8764 0.4176 -0.2397
vn -0.0771 0.3002 0.9508
vn -0.9211 0.3147 0.2291
vn 0.9937 0.0069 0.1117
vn 0.4630 0.6854 0.5621
vn 0.0915 -0.9481 0.3046
vn -0.8567 0.5147 -0.0330
vn -0.6252 0.6830 0.3778
vn -0.5173 -0.4296 0.7402
vn -0.7749 0.1759 -0.6071
vn 0.9894 0.0030 0.1454
vn -0.7744 0.5954 -0.2140
vn -0.7998 0.5861 0.1300
vn -0.7173 0.6373 0.2816
vn -0.7995 0.1674 -0.5769
vn 0.9292 -0.2431 0.2784
vn -0.8543 0.4281 0.2947
vn -0.9540 0.0881 -0.2864
vn 0.0771 -0.0070 0.9970
vn -0.9242 -0.3389 0.1764
vn -0.7512 -0.6598 -0.0185
vn -0.9830 0.0030 0.1835
vn 0.9915 0.0409 -0.1236
vn -0.6727 0.1924 0.7144
vn 0.3206 0.4999 0.8045
vn 0.8895 0.1624 -0.4270
vn -0.4609 -0.8812 -0.1054
vn 0.8936 -0.0596 0.4449
vn 0.6107 0.7815 -0.1280
vn -0.6469 -0.6649 0.3734
vn -0.1912 -0.7896 0.5831
vn 0.9235 0.3745 -0.0834
vn -0.6611 -0.7175 0.2195
vn -0.7167 -0.5697 0.4022
vn -0.4365 -0.2312 0.8695
vn 0.9031 -0.3979 -0.1615
vn 0.8439 -0.0161 -0.5363
vn 0.1232 0.3899 0.9126
vn 0.2393 -0.8030 0.5458
vn -0.9907 -0.0180 0.1347
vn -0.8636 0.4748 -0.1698
vn -0.8641 0.4491 0.2273
vn -0.8421 0.4445 0.3053
vn 0.7418 -0.3762 0.5552
vn -0.1232 0.3899 0.9126
vn 0.9041 0.4232 0.0592
vn 0.9790 -0.1883 0.0785
vn 0.4365 -0.2312 0.8695
vn 0.5141 -0.2197 -0.8291
vn -0.4779 0.8676 0.1375
vn -0.5044 -0.3062 0.8073
vn -0.9425 0.1857 -0.2777
vn 0.0532 -0.9983 -0.0219
vn -0.8062 -0.2286 0.5457
vn -0.8936 -0.0596 0.4449
vn 0.0189 -0.9918 -0.1264
vn -0.2804 0.9597 -0.0177
vn -0.3206 0.4999 0.8045
vn -0.7084 0.5272 0.4693
vn -0.7612 0.3582 -0.5407
vn 0.7938 -0.5100 -0.3314
vn -0.5477 -0.8208 0.1620
vn -0.8414 0.0733 -0.5354
vn 0.7037 0.6187 -0.3494
vn 0.9948 0.0050 0.1022
vn -0.3205 -0.9185 0.2315
vn -0.8302 0.5047 -0.2367
vn -0.9292 -0.2431 0.2784
vn -0.9619 -0.1578 -0.2232
vn 0.0025 0.7408 0.6718
vn 0.5551 0.8110 -0.1845
vn 0.6469 -0.6649 0.3734
vn -0.3150 -0.9476 -0.0539
vn -0.7938 -0.5100 -0.3314
vn 0.5173 -0.4296 0.7402
vn -0.2939 0.4547 -0.8408
vn 0.8639 -0.1885 0.4670
vn -0.0915 -0.9481 0.3046
vn 0.9931 -0.0762 -0.0894
vn 0.1455 0.9890 -0.0273
vn 0.1061 0.9615 -0.2535
vn 0.0771 0.3002 0.9508
vn -0.8731 -0.0900 -0.4792
vn 0.2356 0.3142 0.9197
vn -0.8415 0.4501 0.2988
vn -0.2013 0.5098 0.8364
vn 0.5419 -0.3149 0.7792
vn -0.7911 0.2225 -0.5697
vn 0.4464 0.0178 0.8946
vn 0.3119 0.2168 0.9251
vn 0.4465 0.0178 0.8946
vn -0.8584 0.1861 0.4781
vn -0.7047 0.2796 0.6521
vn 0.9118 0.0721 -0.4043
vn 0.9835 0.0414 -0.1761
vn -0.9444 -0.1232 0.3047
vn -0.3640 -0.9216 0.1349
vn 0.7612 0.3582 -0.5407
vn -0.5383 0.4586 0.7070
vn -0.8025 0.2869 0.5231
vn -0.5343 -0.7975 0.2802
vn -0.7238 -0.6650 0.1842
vn -0.6381 -0.7522 0.1644
vn 0.8636 -0.1833 0.4696
vn -0.9852 -0.0298 0.1688
vn -0.8487 0.4866 -0.2072
vn -0.8584 -0.4658 0.2147
vn -0.9711 -0.1760 0.1614
vn -0.8584 -0.4659 0.2146
vn 0.4464 -0.6342 0.6313
vn -0.0771 -0.0070 0.9970
vn 0.4465 -0.6343 0.6312
vn -0.4918 -0.5221 0.6968
vn -0.9678 -0.0031 0.2517
vn -0.0914 -0.9481 0.3047
vn 0.1100 -0.4385 -0.8920
vn 0.2355 -0.8649 0.4433
vn 0.3118 -0.7986 0.5148
vn 0.0771 -0.8764 0.4754
vn 0.9925 -0.0817 0.0910
vn -0.6899 -0.5828 0.4294
vn -0.9780 0.1577 -0.1364
vn -0.9768 -0.1808 -0.1149
vn 0.7120 0.2257 -0.6649
vn -0.7508 -0.1314 0.6473
vn 0.6455 -0.5556 0.5241
vn 0.9830 0.0030 0.1835
vn -0.6746 0.3832 0.6309
vn 0.9908 0.0675 -0.1171
vn 0.9799 -0.1871 0.0689
vn -0.6520 0.0064 0.7582
vn 0.2887 -0.0345 0.9568
vn 0.0726 -0.6390 0.7657
vn -0.9473 -0.3007 0.1104
vn -0.0171 0.2654 -0.9640
vn 0.6070 0.6476 -0.4605
vn -0.3940 0.9087 -0.1380
vn 0.8986 -0.1102 0.4247
vn -0.4284 0.7802 -0.4558
vn -0.2424 0.8676 0.4342
vn -0.7231 -0.4745 0.5020
vn 0.9711 -0.1760 0.1614
vn 0.9785 -0.1888 0.0836
vn -0.9723 0.0191 0.2331
vn 0.6129 0.7901 -0.0046
vn 0.9939 -0.0996 -0.0470
vn 0.9820 0.0787 -0.1717
vn 0.8186 0.5498 0.1662
vn -0.3255 -0.3543 0.8767
vn 0.7896 0.4047 0.4613
vn 0.0899 0.9939 -0.0640
vn 0.7749 0.1759 -0.6071
vn 0.2275 -0.4151 0.8809
vn -0.6091 -0.4233 0.6707
vn -0.7397 0.6587 -0.1375
vn -0.3256 -0.3542 0.8767
vn -0.7037 0.6187 -0.3494
vn 0.8113 -0.4194 0.4073
vn -0.3257 -0.3542 0.8766
vn -0.4160 0.5503 0.7239
vn -0.0898 -0.4419 -0.8926
vn 0.3239 0.2217 0.9197
vn 0.9112 -0.3834 -0.1510
vn -0.8525 -0.1809 0.4904
vn -0.6709 0.6819 -0.2914
vn 0.1598 -0.9513 0.2634
vn 0.1912 -0.7896 0.5831
vn -0.7249 0.6597 -0.1985
vn -0.6413 -0.6997 0.3149
vn 0.7249 0.6597 -0.1985
vn -0.7000 0.7141 -0.0126
vn -0.8617 0.4753 -0.1779
vn 0.8649 -0.4589 0.2031
vn -0.0739 -0.9688 -0.2364
vn 0.9425 0.1857 -0.2777
vn 0.7220 0.2362 0.6503
vn 0.6760 0.1063 0.7292
vn 0.8764 0.4176 -0.2397
vn -0.8439 -0.0161 -0.5363
vn -0.8186 0.5498 0.1662
vn 0.9665 -0.2482 0.0657
vn 0.9200 -0.3916 -0.0166
vn -0.3971 -0.6550 0.6429
vn -0.8526 -0.1086 -0.5112
vn 0.7120 -0.5491 0.4377
vn -0.3258 -0.3542 0.8766
vn -0.2049 0.7240 -0.6587
vn -0.7220 0.2362 0.6503
vn 0.2613 -0.2399 0.9350
vn -0.7120 0.2257 -0.6649
vn 0.9860 -0.1302 0.1044
vn 0.8302 -0.5012 0.2439
vn -0.1210 -0.3043 0.9449
vn 0.7739 0.3140 0.5501
vn 0.5886 0.8051 -0.0728
vn -0.7874 -0.5132 0.3415
vn 0.8585 -0.0628 -0.5090
vn -0.1203 0.9490 -0.2913
vn 0.1348 -0.9842 0.1145
vn -0.8272 -0.3164 0.4643
vn 0.7727 -0.4788 0.4168
vn 0.1822 -0.3298 0.9263
vn -0.8601 -0.4191 0.2909
vn -0.9508 0.3065 0.0445
vn 0.9871 0.1593 0.0130
vn 0.9802 0.0973 0.1723
vn -0.3256 -0.3540 0.8767
vn 0.2615 -0.9352 -0.2389
vn 0.1317 -0.4772 0.8689
vn -0.5094 -0.0750 0.8573
vn -0.3256 -0.3543 0.8766
vn -0.1068 -0.5170 -0.8493
vn -0.1522 -0.7470 0.6472
vn -0.6555 -0.6528 0.3796
vn -0.3255 -0.3542 0.8767
vn 0.0182 -0.1790 0.9837
vn -0.9769 0.2084 0.0479
vn 0.8543 0.4281 0.2947
vn -0.9939 -0.0996 -0.0470
vn 0.6316 -0.6816 0.3694
vn -0.2829 -0.0509 0.9578
vn 0.9936 0.0048 -0.1125
vn 0.1575 0.2921 -0.9433
vn 0.6252 0.6830 0.3778
vn -0.2917 0.7827 0.5498
vn -0.5966 -0.1246 -0.7928
vn 0.6994 0.5500 -0.4564
vn -0.8872 -0.1148 -0.4468
vn -0.6792 0.6758 -0.2863
vn -0.9388 0.1970 -0.2826
vn -0.6977 0.6807 -0.2232
vn 0.9454 0.3121 0.0941
vn -0.9450 0.1214 0.3036
vn 0.5930 -0.7943 0.1318
vn 0.8739 0.2855 -0.3934
vn -0.9041 0.4232 0.0592
vn 0.9348 -0.1043 0.3395
vn 0.9227 0.3810 -0.0592
vn 0.1078 -0.1254 -0.9862
vn -0.9055 -0.0887 0.4149
vn -0.0647 -0.8108 0.5818
vn -0.8138 0.3888 0.4320
vn 0.8232 0.5404 -0.1743
vn -0.9872 0.0287 -0.1571
vn -0.7964 0.1176 0.5932
vn -0.4177 -0.8821 -0.2177
vn -0.0680 0.9866 -0.1482
vn -0.8645 -0.2557 -0.4328
vn 0.7964 0.1176 0.5932
vn -0.9227 0.3810 -0.0592
vn 0.5188 0.8376 -0.1711
vn 0.4779 0.8676 0.1375
vn 0.8468 -0.3809 0.3713
vn 0.9126 -0.3458 0.2181
vn -0.9665 -0.2482 0.0657
vn -0.9937 0.0069 0.1117
vn 0.7045 -0.0345 -0.7089
vn 0.9487 -0.1432 -0.2819
vn -0.1535 -0.9481 0.2784
vn 0.0649 -0.9687 -0.2395
vn 0.8072 -0.1097 0.5801
vn -0.9461 -0.1229 0.2995
vn -0.6728 0.0490 0.7382
vn -0.8194 -0.0337 -0.5722
vn -0.9553 -0.2204 0.1973
vn -0.9604 -0.1014 -0.2596
vn 0.5363 -0.4598 0.7078
vn 0.6818 -0.6955 0.2270
vn 0.6977 0.6807 -0.2232
vn -0.4473 -0.1200 0.8863
vn -0.5400 0.4231 -0.7276
vn -0.7896 0.4047 0.4613
vn -0.9723 -0.2291 0.0468
vn -0.9915 0.0409 -0.1236
vn 0.0749 0.9729 -0.2187
vn -0.7909 0.5596 -0.2476
vn -0.7730 -0.6195 -0.1368
vn 0.6210 -0.3014 0.7236
vn -0.1527 -0.0796 0.9851
vn 0.0273 -0.6527 0.7571
vn -0.6266 0.6564 -0.4201
vn 0.7874 -0.5132 0.3415
vn 0.5410 0.4534 -0.7083
vn 0.4473 -0.1200 0.8863
vn 0.3769 0.7429 0.5532
vn 0.8415 0.4501 0.2988
vn 0.6219 0.7831 0.0005
vn 0.0606 0.9344 -0.3510
vn -0.8886 -0.1853 0.4196
vn 0.9817 -0.1898 -0.0119
vn -0.7045 -0.0345 -0.7089
vn -0.9956 -0.0376 0.0859
vn -0.4772 -0.1250 -0.8699
vn -0.2232 -0.9702 0.0940
vn -0.7348 0.3786 -0.5628
vn 0.7508 -0.1314 0.6473
vn -0.1397 -0.9671 -0.2126
vn 0.0598 0.9895 -0.1314
vn -0.7956 -0.5414 -0.2719
vn 0.4369 -0.8387 0.3251
vn 0.8402 -0.2607 0.4755
vn -0.3283 -0.6499 0.6854
vn -0.0076 -0.6560 -0.7547
vn 0.8089 -0.3392 0.4802
vn -0.8063 0.2988 -0.5106
vn -0.8830 0.2258 -0.4115
vn -0.6316 -0.6816 0.3694
vn 0.0763 0.1109 -0.9909
vn -0.9451 -0.1570 -0.2865
vn 0.3978 -0.1760 -0.9004
vn -0.4578 -0.0768 -0.8858
vn -0.1036 -0.8923 0.4393
vn 0.1938 0.2369 -0.9520
vn 0.6692 -0.6429 0.3725
vn 0.8138 0.3888 0.4320
vn -0.0608 -0.9981 0.0124
vn 0.8830 0.2258 -0.4115
vn 0.5667 0.1754 0.8050
vn -0.8072 -0.1097 0.5801
vn 0.7569 -0.2923 0.5846
vn 0.7354 0.6563 -0.1687
vn -0.7685 0.2431 0.5918
vn -0.3178 -0.1467 0.9367
vn 0.2960 -0.7879 0.5400
vn -0.6281 -0.6721 0.3922
vn 0.4136 -0.8779 -0.2413
vn -0.4152 -0.9096 -0.0159
vn 0.4177 -0.8821 -0.2177
vn -0.5971 0.7990 -0.0719
vn 0.5520 0.1765 -0.8149
vn -0.5520 0.1765 -0.8149
vn 0.6893 -0.4616 0.5584
vn -0.0494 -0.7462 0.6639
vn 0.5137 0.6650 -0.5421
vn -0.9583 0.2822 0.0445
vn 0.2857 -0.6666 0.6885
vn -0.8884 0.4470 -0.1050
vn -0.1822 -0.3298 0.9263
vn 0.6792 0.6758 -0.2863
vn -0.9799 -0.1871 0.0689
vn -0.9135 -0.1594 0.3743
vn 0.4961 0.8473 0.1898
vn -0.7341 -0.1438 0.6636
vn -0.0830 -0.8128 0.5767
vn -0.6847 0.0994 0.7220
vn -0.7727 -0.4788 0.4168
vn 0.8414 0.0733 -0.5354
vn 0.4578 -0.0768 -0.8858
vn 0.6611 -0.7175 0.2195
vn -0.2676 -0.9557 0.1225
vn -0.8739 0.2855 -0.3934
vn 0.9619 -0.1578 -0.2232
vn 0.2544 -0.9544 -0.1559
vn 0.5094 0.3795 -0.7723
vn -0.6210 -0.3014 0.7236
vn 0.3178 -0.1467 0.9367
vn 0.6967 0.6584 -0.2847
vn 0.9428 -0.3223 -0.0853
vn -0.7700 -0.0060 0.6380
vn -0.8179 -0.2096 0.5358
vn 0.7343 -0.5371 0.4151
vn 0.7068 -0.6730 0.2179
vn -0.1703 0.9671 -0.1888
vn -0.5369 0.1397 -0.8320
vn -0.9232 0.3755 -0.0816
vn -0.8462 -0.2800 -0.4533
vn -0.9624 0.0784 0.2601
vn 0.7348 0.3786 -0.5628
vn -0.2420 0.9516 0.1893
vn 0.7000 0.7141 -0.0126
vn -0.9929 0.1187 0.0085
vn 0.3640 -0.9216 0.1349
vn -0.6632 0.2252 -0.7138
vn 0.2180 -0.3442 -0.9132
vn -0.3745 -0.8793 -0.2942
vn -0.7613 0.3767 -0.5277
vn -0.9287 -0.0600 -0.3660
vn 0.7341 -0.1438 0.6636
vn 0.2479 -0.6614 0.7079
vn 0.8601 -0.4191 0.2909
vn -0.2170 -0.9753 -0.0414
vn -0.9991 0.0429 0.0043
vn 0.7700 -0.0060 0.6380
vn 0.9889 -0.0291 -0.1457
vn -0.0474 0.9989 -0.0058
vn 0.6552 -0.0617 -0.7529
vn -0.9931 -0.0762 -0.0894
vn 0.0015 0.9708 -0.2398
vn 0.2482 0.8614 0.4432
vn -0.1107 0.9904 -0.0823
vn 0.7956 -0.5414 -0.2719
vn -0.9886 -0.0081 -0.1503
vn 0.7512 -0.6598 -0.0185
vn 0.9507 0.2586 -0.1711
vn -0.6040 0.7891 -0.1120
vn 0.3017 -0.9352 0.1851
vn -0.2933 0.8067 0.5130
vn 0.3763 -0.8965 -0.2339
vn 0.9265 0.1037 -0.3616
vn -0.2613 -0.2399 0.9350
vn -0.0986 -0.9593 -0.2648
vn -0.9857 0.0454 -0.1623
vn -0.8924 -0.4511 -0.0096
vn 0.3206 0.5017 0.8035
vn -0.1948 -0.3434 -0.9188
vn 0.8062 -0.2286 0.5457
vn 0.2049 0.7240 -0.6587
vn 0.4713 -0.8752 -0.1092
vn -0.8741 -0.1037 0.4746
vn -0.1068 -0.2553 -0.9609
vn 0.3250 -0.0952 0.9409
vn 0.4598 -0.4601 -0.7595
vn -0.9790 -0.1883 0.0785
vn -0.3582 -0.9321 -0.0534
vn -0.9126 -0.3458 0.2181
vn 0.4506 -0.8518 -0.2673
vn -0.0061 -0.6566 -0.7542
vn 0.2277 -0.6106 0.7585
vn -0.9925 -0.0817 0.0910
vn 0.6898 0.7156 0.1095
vn 0.6281 -0.6721 0.3922
vn -0.6861 0.7081 -0.1665
vn 0.8645 -0.2557 -0.4328
vn -0.4900 0.7733 -0.4023
vn -0.6595 0.6937 -0.2895
vn 0.0901 -0.8140 0.5738
vn -0.8287 -0.4702 -0.3038
vn -0.0122 0.9969 -0.0778
vn 0.7720 0.1937 0.6054
vn 0.6987 0.7115 -0.0742
vn -0.9932 0.1158 0.0144
vn 0.2676 -0.9557 0.1225
vn -0.2982 0.7182 0.6287
vn -0.6296 0.3302 0.7033
vn -0.8796 0.1163 0.4613
vn -0.4034 -0.9147 -0.0254
vn -0.9454 0.3121 0.0941
vn 0.9325 0.2470 -0.2635
vn -0.8383 -0.5246 -0.1485
vn -0.9783 -0.1680 -0.1217
vn -0.5563 0.8095 -0.1876
vn 0.9213 -0.3327 -0.2012
vn 0.2829 -0.0509 0.9578
vn -0.6735 -0.7047 0.2229
vn -0.9297 0.3664 -0.0382
vn 0.1869 0.2809 -0.9414
vn 0.0494 -0.7462 0.6639
vn -0.2857 -0.6666 0.6885
vn -0.1348 -0.9842 0.1145
vn -0.0273 -0.6527 0.7571
vn 0.7885 -0.5069 0.3485
vn 0.3283 -0.6499 0.6854
vn 0.1397 -0.9671 -0.2126
vn 0.9242 -0.3389 0.1764
vn 0.9450 0.1214 0.3036
vn 0.6595 0.0358 -0.7508
vn -0.8590 -0.4844 -0.1657
vn 0.8272 -0.3164 0.4643
vn 0.5111 0.3986 -0.7615
vn 0.0861 -0.2919 0.9526
vn -0.7720 0.1937 0.6054
vn -0.0189 -0.9918 -0.1264
vn 0.9932 0.1158 0.0144
vn 0.1036 -0.8923 0.4393
vn -0.6050 0.7862 -0.1258
vn 0.2649 -0.2389 -0.9342
vn -0.9875 0.0322 -0.1543
vn 0.9388 0.1970 -0.2826
vn -0.5473 0.6626 -0.5113
vn 0.2576 0.5469 0.7966
vn -0.6760 0.1063 0.7292
vn 0.8114 -0.5827 -0.0464
vn -0.8114 -0.4620 -0.3581
vn 0.0898 -0.4419 -0.8926
vn -0.3206 0.5017 0.8035
vn -0.3017 -0.9352 0.1851
vn -0.0141 -0.1150 -0.9933
vn 0.2933 0.8067 0.5130
vn 0.8124 -0.4894 -0.3171
vn -0.8242 -0.1938 0.5321
vn 0.7942 -0.4778 0.3754
vn 0.0986 -0.9593 -0.2648
vn 0.5739 0.5863 -0.5718
vn 0.0009 -0.9951 0.0987
vn 0.9002 -0.3685 0.2318
vn 0.9419 0.1623 -0.2942
vn 0.4460 -0.6190 0.6465
vn 0.6102 0.7785 -0.1466
vn 0.0955 -0.6759 0.7308
vn 0.6468 0.6573 -0.3868
vn 0.2273 -0.8222 -0.5219
vn 0.6204 0.1229 0.7746
vn 0.7753 -0.5502 -0.3101
vn 0.7146 0.6609 -0.2293
vn 0.0055 -0.6519 -0.7583
vn 0.0104 -0.7917 0.6108
vn 0.6632 0.2252 -0.7138
vn 0.2667 0.9533 -0.1421
vn -0.8402 -0.2607 0.4755
vn 0.9678 -0.0031 0.2517
vn 0.8796 0.1163 0.4613
vn -0.5141 -0.2197 -0.8291
vn -0.9378 -0.3210 0.1324
vn 0.9938 0.0962 -0.0554
vn 0.6266 0.6564 -0.4201
vn -0.2210 -0.9414 -0.2548
vn 0.9553 -0.2204 0.1973
vn -0.8636 -0.1833 0.4696
vn -0.7477 0.2888 -0.5979
vn 0.1367 -0.8490 0.5104
vn 0.9491 -0.1402 -0.2819
vn -0.2275 -0.4151 0.8809
vn 0.6595 0.6937 -0.2895
vn -0.8991 -0.0116 0.4376
vn 0.9055 -0.0887 0.4149
vn 0.8688 0.1880 0.4580
vn -0.6692 -0.6429 0.3725
vn -0.7025 0.7114 -0.0185
vn 0.9508 0.3065 0.0445
vn 0.4025 0.8957 -0.1889
vn 0.8617 0.4753 -0.1779
vn -0.1955 0.2841 -0.9386
vn 0.6735 -0.7047 0.2229
vn 0.8383 -0.5246 -0.1485
vn -0.0837 0.8886 -0.4510
vn 0.8884 0.4470 -0.1050
vn -0.4696 0.8462 -0.2519
vn 0.2266 -0.8287 0.5118
vn -0.6595 0.0358 -0.7508
vn -0.0569 -0.1640 -0.9848
vn 0.4567 0.7351 0.5011
vn -0.4187 -0.9081 0.0005
vn 0.8872 -0.1148 -0.4468
vn 0.5206 0.3899 -0.7595
vn 0.9908 -0.0936 0.0979
vn -0.9795 -0.1983 0.0356
vn 0.9211 0.3147 0.2291
vn 0.9621 0.2124 -0.1712
vn -0.9342 -0.2177 -0.2826
vn 0.9723 -0.2291 0.0468
vn -0.8113 -0.4194 0.4073
vn -0.9809 0.0873 -0.1737
vn -0.5675 0.3786 -0.7312
vn -0.4074 -0.8792 -0.2470
vn 0.1068 -0.2553 -0.9609
vn -0.9902 -0.0195 0.1382
vn -0.9795 -0.1599 -0.1223
vn 0.6403 -0.1338 0.7564
vn 0.4442 -0.2563 -0.8585
vn 0.6391 -0.1387 0.7565
vn 0.3971 -0.6550 0.6429
vn -0.9970 0.0457 -0.0619
vn 0.4498 -0.6063 0.6558
vn 0.7477 0.2888 -0.5979
vn 0.0647 -0.8108 0.5818
vn 0.1098 0.9932 -0.0376
vn -0.6468 0.6573 -0.3868
vn -0.5229 0.3281 0.7867
vn 0.3754 -0.9238 -0.0750
vn 0.9828 -0.0257 -0.1826
vn 0.3529 -0.9356 0.0107
vn -0.2124 -0.2427 0.9465
vn -0.8516 -0.4398 0.2852
vn 0.5423 -0.0522 0.8386
vn 0.6713 0.7342 -0.1021
vn 0.0637 0.1025 -0.9927
vn -0.1415 0.1542 -0.9778
vn -0.8137 0.3945 -0.4269
vn -0.6391 -0.1387 0.7565
vn -0.7199 -0.5981 0.3521
vn -0.8468 -0.3809 0.3713
vn -0.2960 -0.7879 0.5400
vn 0.2457 0.4934 0.8344
vn 0.9572 -0.1578 -0.2428
vn -0.4931 -0.7377 -0.4611
vn -0.3881 -0.8700 -0.3040
vn 0.1068 -0.5170 -0.8493
vn 0.1546 -0.9806 -0.1202
vn -0.8852 0.2570 -0.3878
vn 0.0437 0.9818 -0.1849
vn 0.9735 -0.1797 0.1412
vn 0.9461 -0.1229 0.2995
vn 0.7369 -0.2258 0.6371
vn 0.5563 -0.0853 0.8266
vn -0.4445 0.8913 -0.0893
vn -0.2720 -0.7803 0.5631
vn 0.0064 -0.1030 -0.9947
vn 0.9831 -0.0888 0.1604
vn -0.6111 -0.5136 0.6023
vn 0.3632 -0.8822 -0.2996
vn -0.7753 -0.5502 -0.3101
vn -0.9802 0.0973 0.1723
vn 0.2917 0.7827 0.5498
vn 0.1210 -0.3043 0.9449
vn -0.7146 0.6609 -0.2293
vn -0.6014 -0.4680 0.6475
vn -0.6455 -0.5556 0.5241
vn -0.0043 0.9487 -0.3163
vn -0.0637 0.1025 -0.9927
vn 0.4677 -0.8656 -0.1786
vn 0.9473 -0.3007 0.1104
vn 0.8337 -0.3988 0.3820
vn 0.8924 -0.4511 -0.0096
vn 0.8487 0.4866 -0.2072
vn -0.9948 0.0050 0.1022
vn -0.9325 0.2470 -0.2635
vn -0.2544 -0.9544 -0.1559
vn 0.5473 0.6626 -0.5113
vn -0.3763 -0.1746 -0.9099
vn -0.5650 -0.5328 0.6300
vn -0.9894 0.0030 0.1454
vn -0.4922 0.4037 -0.7712
vn 0.8731 -0.0900 -0.4792
vn -0.6224 -0.5550 0.5520
vn 0.5120 0.8580 -0.0399
vn 0.9872 0.0287 -0.1571
vn 0.9618 0.2702 0.0445
vn 0.8525 -0.1809 0.4904
vn -0.4498 -0.6063 0.6558
vn 0.8852 0.2570 -0.3878
vn 0.5356 -0.8438 0.0334
vn 0.8977 -0.4313 0.0901
vn -0.6116 -0.4377 0.6590
vn 0.6746 0.3832 0.6309
vn 0.4160 0.5503 0.7239
vn 0.7685 0.2431 0.5918
vn 0.7995 0.1674 -0.5769
vn 0.9093 0.2443 0.3369
vn -0.7343 -0.5371 0.4151
vn 0.8242 -0.1938 0.5321
vn 0.9970 0.0457 -0.0619
vn -0.6309 -0.4924 0.5996
vn 0.9624 0.0784 0.2601
vn -0.9820 0.0787 -0.1717
vn 0.9297 0.3664 -0.0382
vn 0.3148 0.9413 -0.1217
vn -0.9487 -0.1432 -0.2819
vn 0.8179 -0.2096 0.5358
vn 0.7744 0.4364 -0.4582
vn 0.5572 0.1427 -0.8180
vn -0.6167 0.7734 -0.1465
vn -0.2273 -0.8222 -0.5219
vn 0.1527 -0.0796 0.9851
vn 0.8001 0.3214 0.5065
vn -0.9191 0.2106 0.3329
vn 0.7668 -0.0464 0.6402
vn -0.7346 -0.6519 0.1881
vn 0.8741 -0.1037 0.4746
vn -0.1100 -0.4385 -0.8920
vn 0.6413 -0.6997 0.3149
vn -0.7885 -0.5069 0.3485
vn -0.9419 0.1623 -0.2942
vn 0.7199 -0.5981 0.3521
vn 0.9852 -0.0298 0.1688
vn 0.3148 -0.8949 -0.3162
vn -0.8086 -0.4575 0.3700
vn 0.3244 -0.4322 0.8414
vn 0.1671 -0.7305 0.6622
vn -0.3250 -0.0952 0.9409
vn -0.4514 -0.5160 0.7280
vn -0.7354 0.6563 -0.1687
vn 0.9723 0.0191 0.2331
vn -0.4567 0.7351 0.5011
vn -0.1317 -0.4772 0.8689
vn -0.2649 -0.2389 -0.9342
vn 0.9902 -0.0195 0.1382
vn 0.9907 -0.0180 0.1347
vn -0.1575 0.2921 -0.9433
vn -0.7068 -0.6730 0.2179
vn 0.5044 -0.3062 0.8073
vn -0.7523 0.0979 -0.6515
vn 0.6709 0.6819 -0.2914
vn -0.3201 0.8751 -0.3629
vn -0.9716 -0.1652 -0.1696
vn 0.0608 -0.9981 0.0124
vn -0.6994 0.5500 -0.4564
vn 0.5094 -0.0750 0.8573
vn 0.4931 -0.7377 -0.4611
vn -0.6552 -0.0617 -0.7529
vn -0.4460 -0.6190 0.6465
vn 0.4900 0.7734 -0.4023
vn 0.9886 -0.0081 -0.1503
vn 0.9342 -0.2177 -0.2826
vn 0.2420 0.9516 0.1893
vn -0.5569 -0.1531 0.8164
vn -0.0173 -0.9428 -0.3329
vn 0.2210 -0.9414 -0.2549
vn 0.8991 -0.0116 0.4376
vn -0.9923 -0.0546 -0.1114
vn -0.0009 -0.9951 0.0987
vn 0.7770 0.5685 -0.2704
vn 0.4043 -0.9142 -0.0282
vn -0.3077 0.4772 -0.8232
vn 0.4471 -0.3957 0.8022
vn 0.9795 -0.1599 -0.1223
vn -0.9491 -0.1402 -0.2819
vn 0.4888 0.7694 -0.4112
vn 0.8895 0.4398 -0.1242
vn 0.9780 0.1577 -0.1364
vn -0.8339 0.2480 0.4931
vn 0.2184 -0.3628 -0.9059
vn -0.9908 -0.0936 0.0979
vn -0.6204 0.1229 0.7746
vn 0.3682 -0.6389 0.6754
vn 0.9135 -0.1594 0.3743
vn -0.5137 0.6650 -0.5421
vn 0.4259 -0.9043 -0.0292
vn -0.8895 0.4398 -0.1242
vn -0.9265 0.1037 -0.3616
vn 0.9178 -0.0451 0.3944
vn 0.5569 -0.1531 0.8164
vn 0.9320 0.3057 -0.1945
vn -0.2615 -0.9352 -0.2389
vn 0.6847 0.0994 0.7220
vn -0.6680 0.7377 -0.0975
vn -0.5356 -0.8438 0.0334
vn -0.7478 -0.1368 0.6496
vn -0.7418 -0.3762 0.5552
vn -0.6574 0.1004 0.7468
vn 0.8421 0.4445 0.3053
vn -0.9531 -0.1321 -0.2725
vn 0.9709 0.0599 -0.2317
vn -0.6623 -0.5494 0.5095
vn 0.9768 -0.1808 -0.1149
vn 0.2225 -0.9485 -0.2255
vn 0.9287 -0.0600 -0.3660
vn -0.7120 -0.5491 0.4377
vn 0.0126 0.9994 0.0329
vn -0.4598 -0.4601 -0.7595
vn -0.7369 -0.2258 0.6371
vn 0.5966 -0.1246 -0.7928
vn 0.7167 -0.5697 0.4022
vn -0.3769 0.7429 0.5532
vn -0.4257 -0.9044 -0.0290
vn -0.3456 0.7300 0.5896
vn -0.2457 0.4934 0.8344
vn 0.6894 -0.6277 0.3616
vn 0.6728 0.0490 0.7382
vn -0.9348 -0.1043 0.3395
vn -0.3244 -0.4322 0.8414
vn 0.5650 -0.5328 0.6300
vn -0.9908 0.0675 -0.1171
vn 0.6727 0.1924 0.7144
vn 0.4772 -0.1250 -0.8699
vn -0.9835 0.0414 -0.1761
vn 0.2170 -0.9753 -0.0414
vn -0.9296 0.3239 -0.1758
vn 0.8063 0.2988 -0.5106
vn -0.0726 -0.6390 0.7657
vn -0.9860 -0.1302 0.1044
vn 0.9540 0.0881 -0.2864
vn 0.7025 0.7114 -0.0185
vn -0.8193 -0.2734 0.5041
vn 0.8641 0.4491 0.2273
vn 0.3502 0.9315 -0.0981
vn 0.8590 -0.4844 -0.1657
vn 0.6972 -0.5155 0.4982
vn 0.5329 0.3762 -0.7579
vn 0.8462 -0.2800 -0.4533
vn -0.9831 -0.0888 0.1604
vn 0.6574 0.1004 0.7468
vn 0.1889 -0.9675 -0.1684
vn -0.8585 -0.0628 -0.5090
vn 0.9875 0.0322 -0.1543
vn 0.4873 -0.5316 0.6928
vn 0.6091 -0.4233 0.6707
vn -0.0051 0.9571 -0.2896
vn 0.9604 -0.1014 -0.2596
vn -0.0955 -0.6759 0.7308
vn -0.9178 -0.0451 0.3944
vn -0.3763 -0.8965 -0.2339
vn 0.7909 0.5596 -0.2476
vn 0.6623 -0.5494 0.5095
vn 0.1535 -0.9481 0.2784
vn -0.7691 0.5883 -0.2496
vn 0.2124 -0.2427 0.9465
vn -0.3148 0.9413 -0.1217
vn -0.8242 -0.5338 0.1890
vn 0.8137 0.3945 -0.4269
vn 0.9506 0.3099 0.0201
vn -0.9735 -0.1797 0.1412
vn 0.9857 0.0454 -0.1623
vn 0.7478 -0.1368 0.6496
vn 0.9203 -0.1227 0.3714
vn -0.6818 -0.6955 0.2270
vn -0.9031 -0.3979 -0.1615
vn 0.7897 -0.6124 0.0375
vn -0.2184 -0.3628 -0.9059
vn -0.7825 -0.4896 0.3845
vn 0.8113 -0.4628 -0.3573
vn 0.5229 0.3281 0.7867
vn -0.9785 -0.1888 0.0836
vn 0.9769 0.2084 0.0479
vn 0.0072 -0.9507 0.3101
vn 0.7825 -0.4896 0.3845
vn 0.9716 -0.1652 -0.1696
vn -0.4369 -0.8387 0.3251
vn 0.8516 -0.4398 0.2852
vn 0.0225 -0.9665 -0.2557
vn -0.3526 0.9307 -0.0974
vn 0.9531 -0.1321 -0.2725
vn 0.8193 -0.2734 0.5041
vn 0.3565 -0.8492 0.3896
vn -0.5111 0.3986 -0.7615
vn 0.8636 0.4748 -0.1698
vn -0.8977 -0.4313 0.0901
vn -0.9428 -0.3223 -0.0853
vn -0.8089 -0.3392 0.4802
vn -0.8959 -0.1067 0.4313
vt 0.793893 0.811035
vt 0.733986 0.647144
vt 0.654509 0.794346
vt 0.904509 0.802353
vt 0.637534 0.635601
vt 0.530617 0.607635
vt 0.500000 0.753937
vt 0.876608 0.580494
vt 0.859674 0.618176
vt 0.975529 0.769161
vt 0.000000 0.714703
vt 0.810530 0.641144
vt 0.494886 0.330135
vt 0.549539 0.344433
vt 0.530617 0.328053
vt 0.604192 0.365723
vt 0.423700 0.300087
vt 0.327249 0.288544
vt 0.445583 0.324238
vt 0.637534 0.369709
vt 0.653495 0.391926
vt 0.692622 0.420471
vt 0.810530 0.476807
vt 0.717743 0.448570
vt 0.733986 0.420963
vt 0.201560 0.403915
vt 0.381335 0.383205
vt 0.184626 0.355206
vt 0.372679 0.358311
vt 0.250704 0.458881
vt 0.406456 0.411304
vt 0.327249 0.514725
vt 0.381335 0.339043
vt 0.250704 0.294548
vt 0.406456 0.327301
vt 0.201560 0.317513
vt 0.859674 0.531780
vt 0.555940 0.398312
vt 0.726400 0.473465
vt 0.692622 0.504471
vt 0.717743 0.492729
vt 0.653495 0.507542
vt 0.604192 0.501640
vt 0.445583 0.439854
vt 0.494886 0.466053
vt 0.549539 0.487347
vt 0.095491 0.301487
vt 0.206107 0.292805
vt 0.024472 0.334679
vt 0.345492 0.309490
vt 0.500000 0.349903
vt 0.654509 0.410099
vt 0.206107 0.619667
vt 0.345492 0.693741
vt 0.095491 0.538963
vt 0.423700 0.565987
vt 0.024472 0.459526
vt 0.000000 0.389137
vt 0.904509 0.564873
vt 0.975529 0.644310
vt 0.793893 0.484169
vt 0.000000 1.000000
vt 0.273600 0.473465
vt 0.123392 0.580494
vt 0.282257 0.492729
vt 0.024471 0.644310
vt 0.140326 0.618176
vt 0.307378 0.504471
vt 0.189470 0.641144
vt 0.140326 0.531780
vt 0.266014 0.420963
vt 0.206107 0.484169
vt 0.189470 0.476807
vt 0.345491 0.410099
vt 0.095491 0.564873
vt 0.576300 0.565987
vt 0.505114 0.466053
vt 0.469383 0.607635
vt 0.450461 0.487347
vt 0.672751 0.514725
vt 0.554417 0.439854
vt 0.593544 0.411304
vt 0.362466 0.635601
vt 0.395808 0.501640
vt 0.346505 0.507542
vt 0.266014 0.647144
vt 0.362466 0.369709
vt 0.798440 0.403915
vt 0.749296 0.458881
vt 0.975528 0.459526
vt 0.904509 0.538963
vt 0.815374 0.355206
vt 0.975528 0.334679
vt 0.654508 0.693741
vt 0.793893 0.619667
vt 0.576300 0.300087
vt 0.654508 0.309490
vt 0.469383 0.328053
vt 0.672751 0.288544
vt 0.793893 0.292805
vt 0.798440 0.317513
vt 0.749296 0.294548
vt 0.904509 0.301487
vt 0.444060 0.398312
vt 0.618665 0.383205
vt 0.282257 0.448570
vt 0.395808 0.365723
vt 0.346505 0.391926
vt 0.450461 0.344433
vt 0.307378 0.420471
vt 0.505114 0.330135
vt 0.627321 0.358311
vt 0.618665 0.339043
vt 0.593544 0.327301
vt 0.554417 0.324238
vt 0.095491 0.802353
vt 0.024471 0.769161
vt 0.345491 0.794346
vt 0.206107 0.811035
vt 0.531129 0.863455
vt 0.528598 0.862678
vt 0.529701 0.861377
vt 0.530028 0.864496
vt 0.532449 0.864504
vt 0.554833 0.852302
vt 0.535964 0.857423
vt 0.554115 0.862847
vt 0.527653 0.863068
vt 0.533337 0.860528
vt 0.534939 0.862031
vt 0.531751 0.858482
vt 0.533744 0.855085
vt 0.535657 0.858520
vt 0.537437 0.859975
vt 0.530356 0.847231
vt 0.465756 0.730456
vt 0.464280 0.731015
vt 0.466272 0.734068
vt 0.468310 0.733388
vt 0.464779 0.728223
vt 0.462719 0.728340
vt 0.462606 0.727787
vt 0.464037 0.730013
vt 0.465977 0.733427
vt 0.464885 0.735427
vt 0.463767 0.732595
vt 0.465331 0.736822
vt 0.463567 0.731622
vt 0.533015 0.861030
vt 0.528781 0.860447
vt 0.530131 0.864549
vt 0.530881 0.856491
vt 0.531355 0.865489
vt 0.534491 0.861890
vt 0.526887 0.856207
vt 0.527647 0.863272
vt 0.528726 0.864638
vt 0.526403 0.862717
vt 0.525618 0.860881
vt 0.526164 0.858016
vt 0.536721 0.859365
vt 0.468862 0.749484
vt 0.466293 0.747780
vt 0.466377 0.748286
vt 0.467102 0.749259
vt 0.467253 0.750763
vt 0.470042 0.751312
vt 0.469399 0.753101
vt 0.469928 0.750509
vt 0.463993 0.748347
vt 0.465755 0.751317
vt 0.467367 0.753944
vt 0.471307 0.756222
vt 0.464995 0.721450
vt 0.464829 0.720767
vt 0.463109 0.721688
vt 0.462921 0.720778
vt 0.464423 0.724210
vt 0.465870 0.723530
vt 0.464627 0.728363
vt 0.464023 0.722561
vt 0.465068 0.754195
vt 0.464674 0.751874
vt 0.466630 0.753166
vt 0.463722 0.724297
vt 0.465564 0.722267
vt 0.463941 0.725445
vt 0.463960 0.747882
vt 0.467324 0.729442
vt 0.468962 0.731820
vt 0.464679 0.727808
vt 0.468861 0.731404
vt 0.465570 0.729689
vt 0.468613 0.734441
vt 0.465745 0.749335
vt 0.459061 0.781790
vt 0.459779 0.802539
vt 0.459863 0.804904
vt 0.459175 0.785141
vt 0.459751 0.801754
vt 0.459456 0.793305
vt 0.459271 0.787929
vt 0.459472 0.793767
vt 0.459704 0.800426
vt 0.459315 0.789211
vt 0.458776 0.773334
vt 0.458807 0.774253
vt 0.459830 0.803985
vt 0.489859 0.811437
vt 0.490517 0.812575
vt 0.493013 0.812944
vt 0.492379 0.807917
vt 0.492492 0.807826
vt 0.490244 0.811723
vt 0.495164 0.807698
vt 0.493132 0.810665
vt 0.494834 0.807444
vt 0.490710 0.812847
vt 0.492924 0.813826
vt 0.497867 0.810534
vt 0.497474 0.813438
vt 0.460224 0.765039
vt 0.460206 0.763084
vt 0.462560 0.806586
vt 0.461784 0.810371
vt 0.461888 0.813254
vt 0.462269 0.795070
vt 0.460502 0.773340
vt 0.461874 0.784919
vt 0.461843 0.811999
vt 0.460939 0.786261
vt 0.460749 0.780687
vt 0.461206 0.794016
vt 0.461693 0.807861
vt 0.529650 0.858487
vt 0.526305 0.855364
vt 0.526229 0.858659
vt 0.525366 0.858400
vt 0.526985 0.861113
vt 0.527069 0.853356
vt 0.527847 0.860249
vt 0.525730 0.856066
vt 0.499012 0.806119
vt 0.499163 0.808047
vt 0.496863 0.805659
vt 0.504007 0.807601
vt 0.498517 0.806656
vt 0.503584 0.806797
vt 0.496949 0.812909
vt 0.499654 0.812986
vt 0.502654 0.810875
vt 0.503507 0.809186
vt 0.592808 0.531743
vt 0.588217 0.538940
vt 0.588077 0.539594
vt 0.592974 0.532605
vt 0.590410 0.541266
vt 0.605476 0.579748
vt 0.598681 0.549994
vt 0.597732 0.577716
vt 0.594369 0.536410
vt 0.588024 0.579111
vt 0.613173 0.625620
vt 0.612434 0.624340
vt 0.615779 0.621909
vt 0.615986 0.622776
vt 0.613896 0.614147
vt 0.608878 0.593579
vt 0.610395 0.618277
vt 0.610344 0.599562
vt 0.598719 0.597518
vt 0.603627 0.617616
vt 0.594111 0.535248
vt 0.585780 0.562762
vt 0.596633 0.544739
vt 0.581263 0.552818
vt 0.580933 0.565246
vt 0.599718 0.607532
vt 0.614994 0.618664
vt 0.603411 0.571398
vt 0.597228 0.579381
vt 0.580859 0.579665
vt 0.580881 0.588312
vt 0.586239 0.595329
vt 0.580956 0.598184
vt 0.581140 0.610011
vt 0.587471 0.612386
vt 0.580948 0.566627
vt 0.581636 0.543142
vt 0.601569 0.621008
vt 0.581399 0.548416
vt 0.581728 0.542511
vt 0.581694 0.543940
vt 0.584418 0.618966
vt 0.581248 0.618567
vt 0.581152 0.616172
vt 0.580876 0.599332
vt 0.585356 0.616338
vt 0.553521 0.602831
vt 0.553331 0.610777
vt 0.554511 0.593339
vt 0.555736 0.583825
vt 0.553636 0.612485
vt 0.553687 0.602899
vt 0.553489 0.615268
vt 0.459452 0.491871
vt 0.461213 0.485382
vt 0.459485 0.489932
vt 0.461044 0.486468
vt 0.459778 0.492442
vt 0.459359 0.494423
vt 0.461493 0.488154
vt 0.464758 0.479439
vt 0.558504 0.553826
vt 0.556735 0.572716
vt 0.557625 0.559726
vt 0.580730 0.586609
vt 0.597048 0.573565
vt 0.589612 0.566365
vt 0.599269 0.554858
vt 0.558814 0.552734
vt 0.580750 0.575909
vt 0.555956 0.581021
vt 0.557629 0.569465
vt 0.554660 0.591882
vt 0.558917 0.553838
vt 0.558344 0.559956
vt 0.466992 0.735881
vt 0.471686 0.736523
vt 0.471154 0.735844
vt 0.467543 0.732415
vt 0.469038 0.734202
vt 0.465755 0.732520
vt 0.464910 0.730942
vt 0.468204 0.735019
vt 0.462924 0.731477
vt 0.463785 0.734862
vt 0.464875 0.736583
vt 0.472383 0.739772
vt 0.467083 0.750025
vt 0.472789 0.754060
vt 0.465694 0.724813
vt 0.464362 0.726914
vt 0.467043 0.757209
vt 0.465055 0.731428
vt 0.469008 0.724611
vt 0.468395 0.726339
vt 0.467362 0.722205
vt 0.466053 0.734327
vt 0.468842 0.723927
vt 0.468423 0.726290
vt 0.462756 0.730786
vt 0.464215 0.732819
vt 0.466077 0.735332
vt 0.468792 0.735891
vt 0.600823 0.620456
vt 0.472127 0.728869
vt 0.609379 0.623288
vt 0.609476 0.623840
vt 0.471595 0.729530
vt 0.471495 0.728278
vt 0.469804 0.729461
vt 0.467500 0.728924
vt 0.472618 0.739591
vt 0.466378 0.738958
vt 0.464850 0.738342
vt 0.471066 0.739817
vt 0.469530 0.739997
vt 0.492385 0.780119
vt 0.495290 0.787243
vt 0.496036 0.784173
vt 0.491154 0.779002
vt 0.491169 0.779490
vt 0.484620 0.782489
vt 0.478875 0.782885
vt 0.483299 0.800267
vt 0.473516 0.783857
vt 0.474509 0.805198
vt 0.491185 0.779437
vt 0.490127 0.754648
vt 0.488711 0.757775
vt 0.487882 0.782818
vt 0.490626 0.800192
vt 0.492957 0.791536
vt 0.487404 0.808726
vt 0.486815 0.799901
vt 0.510317 0.819697
vt 0.506778 0.810402
vt 0.499845 0.801958
vt 0.483049 0.769613
vt 0.478757 0.763906
vt 0.477157 0.773097
vt 0.506264 0.803765
vt 0.485902 0.782701
vt 0.475770 0.815443
vt 0.487478 0.764879
vt 0.468327 0.763951
vt 0.468299 0.777805
vt 0.485796 0.766729
vt 0.479135 0.759770
vt 0.477878 0.735780
vt 0.477869 0.740706
vt 0.464715 0.728123
vt 0.467168 0.742654
vt 0.478074 0.743827
vt 0.478420 0.746287
vt 0.483856 0.741013
vt 0.481465 0.745903
vt 0.466678 0.742061
vt 0.480832 0.753289
vt 0.482355 0.739235
vt 0.477035 0.736540
vt 0.464418 0.730839
vt 0.479296 0.732786
vt 0.491357 0.782225
vt 0.484142 0.752815
vt 0.489788 0.774510
vt 0.492829 0.789133
vt 0.485110 0.768799
vt 0.494941 0.783847
vt 0.482346 0.751802
vt 0.480720 0.763783
vt 0.474831 0.767088
vt 0.470071 0.782960
vt 0.468285 0.775035
vt 0.473047 0.792616
vt 0.477104 0.752145
vt 0.477999 0.732596
vt 0.499948 0.786343
vt 0.517379 0.794530
vt 0.512134 0.797455
vt 0.519892 0.848057
vt 0.532451 0.843359
vt 0.517744 0.815619
vt 0.537586 0.821761
vt 0.515349 0.835842
vt 0.532581 0.835305
vt 0.502797 0.825711
vt 0.494477 0.829329
vt 0.524531 0.827249
vt 0.502495 0.837962
vt 0.485221 0.804628
vt 0.480786 0.783342
vt 0.475997 0.815446
vt 0.525700 0.806306
vt 0.508952 0.802099
vt 0.509892 0.844218
vt 0.519580 0.802811
vt 0.538081 0.809172
vt 0.541405 0.799494
vt 0.518720 0.795088
vt 0.515910 0.791821
vt 0.499703 0.786625
vt 0.533903 0.796593
vt 0.502945 0.831977
vt 0.499967 0.834792
vt 0.501863 0.837698
vt 0.463758 0.765903
vt 0.461146 0.748328
vt 0.464004 0.756081
vt 0.459637 0.752229
vt 0.459467 0.741348
vt 0.506850 0.797565
vt 0.504079 0.839782
vt 0.492286 0.773966
vt 0.486594 0.753472
vt 0.488556 0.749590
vt 0.489924 0.749166
vt 0.495942 0.780935
vt 0.496808 0.781473
vt 0.468158 0.760414
vt 0.466905 0.746627
vt 0.498506 0.789177
vt 0.488541 0.754072
vt 0.488271 0.754618
vt 0.489151 0.749958
vt 0.496350 0.781759
vt 0.492187 0.775399
vt 0.554776 0.861800
vt 0.556046 0.865722
vt 0.555695 0.855838
vt 0.555129 0.847689
vt 0.555051 0.828840
vt 0.465133 0.783452
vt 0.466504 0.813755
vt 0.478230 0.825060
vt 0.475600 0.826146
vt 0.477985 0.824249
vt 0.473849 0.825912
vt 0.470472 0.823171
vt 0.463533 0.816453
vt 0.463302 0.814164
vt 0.477415 0.822225
vt 0.467802 0.795013
vt 0.468360 0.808736
vt 0.494655 0.804683
vt 0.489056 0.816451
vt 0.497993 0.794438
vt 0.496214 0.799692
s 0
usemtl Material.001
f 60/1/1 54/2/1 58/3/1
f 154/2/2 379/1/2 420/4/2
f 54/2/3 57/5/3 58/3/3
f 152/6/4 436/7/4 23/3/4
f 344/3/5 353/5/5 362/6/5
f 43/8/6 54/9/6 61/10/6
f 527/11/7 520/8/7 371/10/7
f 485/10/8 313/9/8 209/12/8
f 258/4/9 186/12/9 487/2/9
f 54/12/3 60/4/3 61/10/3
f 408/13/10 544/14/10 440/15/10
f 319/15/11 511/14/11 349/16/11
f 257/17/12 214/13/12 204/15/12
f 369/18/13 96/19/13 158/13/13
f 62/13/14 500/17/14 460/18/14
f 538/16/15 24/20/15 441/15/15
f 493/21/16 388/22/16 389/23/16
f 409/23/17 538/22/17 441/24/17
f 461/25/18 193/21/18 275/23/18
f 297/20/19 157/16/19 83/25/19
f 472/16/20 303/21/20 365/25/20
f 503/26/21 311/27/21 488/28/21
f 314/27/22 35/29/22 288/28/22
f 59/27/23 324/26/23 315/30/23
f 304/31/24 380/30/24 352/32/24
f 201/30/25 467/31/25 327/27/25
f 311/28/26 503/29/26 153/33/26
f 11/34/27 389/35/27 543/19/27
f 216/19/28 496/18/28 543/34/28
f 395/33/29 327/35/29 402/34/29
f 54/33/30 50/36/30 53/28/30
f 539/36/31 398/33/31 401/34/31
f 54/24/32 43/37/32 45/23/32
f 151/19/33 67/35/33 462/38/33
f 32/13/34 85/19/34 361/38/34
f 52/35/35 453/33/35 526/38/35
f 257/29/36 27/27/36 13/38/36
f 472/33/37 397/29/37 246/38/37
f 42/14/38 326/13/38 182/38/38
f 245/24/39 409/22/39 441/38/39
f 475/39/40 546/24/40 447/38/40
f 183/22/41 428/21/41 88/38/41
f 487/16/42 365/14/42 258/38/42
f 79/21/43 346/16/43 221/38/43
f 218/40/44 260/41/44 91/38/44
f 269/42/45 159/40/45 442/38/45
f 40/41/46 30/39/46 427/38/46
f 522/37/47 545/24/47 285/8/47
f 447/24/48 546/39/48 336/8/48
f 422/43/49 412/42/49 424/38/49
f 375/31/50 293/44/50 266/38/50
f 47/27/51 99/31/51 384/38/51
f 267/44/52 343/45/52 488/38/52
f 525/46/53 371/43/53 450/38/53
f 398/45/54 539/46/54 306/38/54
f 150/47/55 184/34/55 406/48/55
f 92/34/56 453/18/56 52/48/56
f 463/34/57 205/47/57 385/49/57
f 53/28/58 50/36/58 51/49/58
f 306/49/59 447/36/59 501/34/59
f 50/48/32 54/18/32 48/50/32
f 96/51/60 18/15/60 533/52/60
f 54/15/32 45/20/32 46/52/32
f 54/15/32 46/51/32 48/50/32
f 149/18/61 546/17/61 494/50/61
f 374/50/62 351/17/62 500/15/62
f 517/32/63 431/53/63 451/54/63
f 34/53/64 253/32/64 331/55/64
f 469/54/65 457/56/65 490/32/65
f 268/7/66 445/6/66 97/54/66
f 57/6/67 54/56/67 56/54/67
f 196/32/68 361/30/68 188/55/68
f 83/57/69 26/26/69 270/28/69
f 482/58/70 2/28/70 185/49/70
f 346/57/71 475/28/71 474/58/71
f 123/55/72 17/30/72 144/57/72
f 494/30/73 44/26/73 149/57/73
f 395/52/74 538/20/74 201/25/74
f 257/43/75 274/5/75 27/2/75
f 480/43/76 413/46/76 338/6/76
f 352/2/77 295/42/77 304/43/77
f 208/12/78 449/40/78 75/2/78
f 2/40/79 5/42/79 430/2/79
f 83/6/80 8/5/80 199/43/80
f 210/45/81 342/44/81 39/32/81
f 132/32/82 203/44/82 2/31/82
f 289/56/83 301/45/83 145/32/83
f 199/6/84 26/46/84 83/45/84
f 481/45/85 537/56/85 271/6/85
f 387/59/86 14/23/86 267/60/86
f 539/23/87 401/37/87 474/60/87
f 508/23/88 531/59/88 98/61/88
f 97/25/89 442/61/89 159/52/89
f 358/61/90 345/25/90 381/23/90
f 416/60/91 471/37/91 334/8/91
f 321/9/92 90/41/92 97/12/92
f 455/41/93 221/40/93 346/12/93
f 18/41/94 95/9/94 529/8/94
f 285/8/95 457/11/95 502/60/95
f 349/8/96 85/39/96 536/41/96
f 74/62/97 115/62/97 116/62/97
f 115/62/98 74/62/98 114/62/98
f 116/62/99 76/62/99 74/62/99
f 322/62/100 408/62/100 440/62/100
f 76/62/101 116/62/101 77/62/101
f 435/62/102 31/62/102 502/62/102
f 337/62/103 253/62/103 1/62/103
f 74/62/104 73/62/104 113/62/104
f 514/62/105 416/62/105 334/62/105
f 114/62/106 74/62/106 113/62/106
f 80/62/107 120/62/107 121/62/107
f 502/62/108 31/62/108 87/62/108
f 121/62/109 81/62/109 80/62/109
f 425/62/110 72/62/110 15/62/110
f 275/62/111 281/62/111 404/62/111
f 118/62/112 78/62/112 77/62/112
f 12/62/113 196/62/113 188/62/113
f 80/62/114 78/62/114 118/62/114
f 80/62/115 119/62/115 120/62/115
f 119/62/116 80/62/116 118/62/116
f 65/62/117 105/62/117 106/62/117
f 105/62/118 65/62/118 63/62/118
f 106/62/117 66/62/117 65/62/117
f 328/62/119 514/62/119 87/62/119
f 442/62/120 198/62/120 356/62/120
f 103/62/121 63/62/121 81/62/121
f 216/62/122 354/62/122 496/62/122
f 530/62/123 221/62/123 362/62/123
f 63/62/124 104/62/124 105/62/124
f 104/62/125 63/62/125 103/62/125
f 70/62/126 110/62/126 111/62/126
f 110/62/127 70/62/127 109/62/127
f 111/62/128 71/62/128 70/62/128
f 252/62/129 249/62/129 377/62/129
f 71/62/130 111/62/130 73/62/130
f 108/62/131 68/62/131 66/62/131
f 264/62/132 296/62/132 342/62/132
f 70/62/133 68/62/133 108/62/133
f 274/62/134 257/62/134 204/62/134
f 109/62/135 70/62/135 108/62/135
f 296/62/136 37/62/136 146/62/136
f 315/62/137 382/62/137 372/62/137
f 406/62/138 298/62/138 198/62/138
f 117/62/139 77/62/139 116/62/139
f 498/62/140 27/62/140 274/62/140
f 342/62/141 296/62/141 146/62/141
f 113/62/142 73/62/142 112/62/142
f 381/62/143 296/62/143 41/62/143
f 281/62/144 240/62/144 88/62/144
f 84/62/145 37/62/145 202/62/145
f 194/62/146 465/62/146 189/62/146
f 306/62/147 501/62/147 276/62/147
f 358/62/148 212/62/148 364/62/148
f 102/62/149 81/62/149 121/62/149
f 296/62/150 264/62/150 41/62/150
f 118/62/112 77/62/112 117/62/112
f 144/62/151 215/62/151 123/62/151
f 132/62/152 430/62/152 228/62/152
f 357/62/153 364/62/153 33/62/153
f 18/62/154 357/62/154 521/62/154
f 191/62/155 10/62/155 432/62/155
f 91/62/156 372/62/156 218/62/156
f 470/62/157 387/62/157 243/62/157
f 107/62/158 66/62/158 106/62/158
f 240/62/159 513/62/159 486/62/159
f 371/62/160 520/62/160 450/62/160
f 103/62/161 81/62/161 102/62/161
f 303/62/162 352/62/162 365/62/162
f 450/62/163 155/62/163 525/62/163
f 18/62/164 529/62/164 533/62/164
f 182/62/165 263/62/165 483/62/165
f 6/62/166 145/62/166 515/62/166
f 353/62/167 158/62/167 534/62/167
f 112/62/168 73/62/168 111/62/168
f 259/62/169 499/62/169 224/62/169
f 266/62/170 390/62/170 375/62/170
f 108/62/171 66/62/171 107/62/171
f 520/62/172 527/62/172 216/62/172
f 342/62/173 217/62/173 264/62/173
f 327/62/174 467/62/174 264/62/174
f 139/62/175 33/62/175 41/62/175
f 41/62/176 264/62/176 467/62/176
f 250/62/177 260/62/177 428/62/177
f 126/62/178 168/62/178 167/62/178
f 278/62/179 228/62/179 438/62/179
f 423/62/180 224/62/180 396/62/180
f 133/62/181 172/62/181 171/62/181
f 524/62/182 160/62/182 211/62/182
f 459/62/183 343/62/183 243/62/183
f 505/62/184 431/62/184 517/62/184
f 332/62/185 157/62/185 432/62/185
f 522/62/186 334/62/186 545/62/186
f 99/62/187 10/62/187 361/62/187
f 141/62/188 163/62/188 162/62/188
f 334/62/189 471/62/189 545/62/189
f 474/62/190 202/62/190 346/62/190
f 126/62/191 167/62/191 166/62/191
f 97/62/192 49/62/192 268/62/192
f 400/62/193 319/62/193 24/62/193
f 262/62/194 458/62/194 535/62/194
f 159/62/195 321/62/195 97/62/195
f 189/62/196 8/62/196 47/62/196
f 142/62/197 425/62/197 15/62/197
f 372/62/198 91/62/198 518/62/198
f 137/62/199 178/62/199 177/62/199
f 327/62/200 264/62/200 217/62/200
f 141/62/201 162/62/201 181/62/201
f 212/62/202 358/62/202 381/62/202
f 445/62/203 406/62/203 198/62/203
f 425/62/204 205/62/204 247/62/204
f 11/62/205 543/62/205 496/62/205
f 520/62/206 389/62/206 450/62/206
f 206/62/207 330/62/207 349/62/207
f 133/62/208 173/62/208 172/62/208
f 494/62/209 207/62/209 79/62/209
f 389/62/210 292/62/210 256/62/210
f 137/62/211 177/62/211 176/62/211
f 506/62/212 513/62/212 240/62/212
f 284/62/213 474/62/213 478/62/213
f 472/62/214 487/62/214 187/62/214
f 130/62/215 169/62/215 168/62/215
f 511/62/216 395/62/216 402/62/216
f 128/62/217 130/62/217 168/62/217
f 467/62/218 139/62/218 41/62/218
f 128/62/219 168/62/219 126/62/219
f 171/62/220 131/62/220 133/62/220
f 212/62/221 33/62/221 364/62/221
f 131/62/222 171/62/222 130/62/222
f 130/62/223 170/62/223 169/62/223
f 170/62/224 130/62/224 171/62/224
f 122/62/225 164/62/225 163/62/225
f 164/62/226 122/62/226 165/62/226
f 324/62/227 417/62/227 382/62/227
f 185/62/228 370/62/228 4/62/228
f 122/62/229 163/62/229 141/62/229
f 525/62/230 155/62/230 476/62/230
f 485/62/231 209/62/231 390/62/231
f 126/62/232 166/62/232 125/62/232
f 125/62/233 165/62/233 122/62/233
f 165/62/232 125/62/232 166/62/232
f 140/62/234 179/62/234 178/62/234
f 179/62/235 140/62/235 180/62/235
f 138/62/236 140/62/236 178/62/236
f 537/62/237 410/62/237 156/62/237
f 138/62/199 178/62/199 137/62/199
f 386/62/238 435/62/238 502/62/238
f 331/62/239 499/62/239 34/62/239
f 141/62/240 181/62/240 140/62/240
f 213/62/241 221/62/241 455/62/241
f 180/62/242 140/62/242 181/62/242
f 134/62/243 174/62/243 173/62/243
f 491/62/244 124/62/244 386/62/244
f 133/62/245 134/62/245 173/62/245
f 399/62/246 145/62/246 307/62/246
f 124/62/247 435/62/247 386/62/247
f 176/62/248 136/62/248 137/62/248
f 233/62/249 524/62/249 25/62/249
f 136/62/250 176/62/250 134/62/250
f 134/62/251 175/62/251 174/62/251
f 175/62/252 134/62/252 176/62/252
f 428/63/253 404/64/253 88/65/253
f 158/11/254 371/64/254 534/66/254
f 499/67/255 236/65/255 34/64/255
f 221/68/256 403/65/256 79/69/256
f 508/65/257 486/67/257 531/69/257
f 530/70/258 49/66/258 251/64/258
f 426/71/259 69/72/259 541/73/259
f 404/72/260 281/71/260 88/74/260
f 100/75/261 67/73/261 62/72/261
f 513/70/262 506/73/262 87/66/262
f 203/73/263 185/75/263 2/66/263
f 49/76/264 97/77/264 147/78/264
f 298/79/265 249/78/265 356/77/265
f 424/77/266 350/76/266 533/80/266
f 525/81/267 530/80/267 534/82/267
f 98/81/268 393/77/268 340/80/268
f 207/83/269 494/78/269 546/84/269
f 463/85/270 418/68/270 3/86/270
f 421/68/271 184/69/271 150/86/271
f 418/85/272 463/86/272 1/84/272
f 546/79/273 149/84/273 336/78/273
f 330/83/274 361/84/274 85/86/274
f 526/87/275 453/74/275 192/71/275
f 423/88/276 396/89/276 286/90/276
f 455/89/277 364/91/277 213/90/277
f 304/92/278 295/90/278 376/58/278
f 281/92/279 506/58/279 240/93/279
f 87/88/280 506/90/280 328/92/280
f 250/89/281 376/80/281 295/91/281
f 235/76/282 238/78/282 237/94/282
f 377/78/283 501/7/283 252/94/283
f 478/76/284 474/94/284 401/80/284
f 326/80/285 42/95/285 316/91/285
f 350/95/286 156/80/286 533/94/286
f 407/96/287 442/97/287 439/98/287
f 84/96/288 339/99/288 37/97/288
f 227/51/289 235/98/289 229/97/289
f 226/87/289 235/98/289 227/74/289
f 465/98/290 93/51/290 189/74/290
f 235/99/289 231/100/289 229/97/289
f 423/101/291 265/93/291 244/102/291
f 231/101/292 234/92/292 232/93/292
f 442/103/293 356/102/293 336/93/293
f 502/99/294 87/102/294 522/100/294
f 325/102/295 451/103/295 507/100/295
f 313/79/296 485/77/296 535/104/296
f 439/84/297 251/79/297 49/104/297
f 186/77/298 39/81/298 146/104/298
f 532/82/299 308/105/299 35/104/299
f 156/81/300 355/82/300 533/104/300
f 332/85/301 47/84/301 8/104/301
f 351/63/302 374/106/302 460/64/302
f 183/106/303 94/70/303 443/64/303
f 194/63/304 189/65/304 273/104/304
f 498/68/305 194/85/305 27/104/305
f 540/65/306 92/68/306 52/104/306
f 360/107/307 536/108/307 348/104/307
f 508/109/308 94/107/308 88/104/308
f 317/108/309 469/110/309 230/104/309
f 154/106/310 492/63/310 537/104/310
f 295/110/311 352/106/311 303/104/311
f 24/111/312 160/109/312 441/104/312
f 13/112/313 384/113/313 257/104/313
f 544/105/314 427/112/314 30/104/314
f 249/113/315 298/114/315 325/104/315
f 350/115/316 464/111/316 413/104/316
f 511/114/317 319/115/317 400/104/317
f 223/70/289 235/106/289 226/73/289
f 378/113/318 540/101/318 394/102/318
f 231/101/319 235/113/319 234/92/319
f 215/114/320 19/113/320 370/102/320
f 243/99/321 343/115/321 470/102/321
f 494/114/322 403/102/322 44/115/322
f 144/112/323 157/92/323 297/113/323
f 544/82/324 30/89/324 312/105/324
f 150/89/325 406/82/325 145/80/325
f 529/88/326 523/105/326 422/89/326
f 184/112/327 517/105/327 298/92/327
f 247/105/328 352/88/328 380/92/328
f 362/108/329 534/107/329 530/71/329
f 313/107/330 417/87/330 209/71/330
f 487/108/331 186/71/331 339/73/331
f 347/110/332 21/73/332 148/106/332
f 14/110/333 387/108/333 470/73/333
f 2/87/334 482/107/334 12/98/334
f 335/96/335 454/111/335 49/99/335
f 344/115/336 213/99/336 364/111/336
f 364/111/337 455/96/337 358/98/337
f 428/109/338 183/98/338 250/107/338
f 506/109/339 491/111/339 328/98/339
f 241/116/340 235/69/340 242/117/340
f 399/69/341 525/116/341 476/86/341
f 32/67/342 196/117/342 309/69/342
f 367/64/343 366/11/343 368/117/343
f 235/67/344 223/64/344 242/117/344
f 320/83/345 503/118/345 488/78/345
f 158/7/346 527/78/346 371/118/346
f 238/83/340 235/86/340 239/118/340
f 161/119/347 532/86/347 35/116/347
f 235/86/348 241/119/348 239/118/348
f 427/120/349 190/121/349 40/122/349
f 204/121/350 214/120/350 39/123/350
f 59/123/351 326/120/351 316/124/351
f 510/125/352 191/126/352 17/127/352
f 516/121/353 355/123/353 378/128/353
f 430/129/354 459/130/354 228/124/354
f 481/129/355 271/131/355 324/132/355
f 19/131/356 297/120/356 363/122/356
f 326/129/357 518/133/357 246/130/357
f 469/130/358 386/133/358 457/134/358
f 282/133/359 75/129/359 449/132/359
f 337/135/360 433/126/360 473/125/360
f 23/136/361 528/137/361 152/138/361
f 146/138/362 39/139/362 342/136/362
f 17/137/363 432/136/363 157/140/363
f 194/141/364 273/140/364 13/142/364
f 379/140/365 154/141/365 316/137/365
f 248/143/366 155/144/366 388/145/366
f 153/137/367 503/146/367 446/147/367
f 433/147/368 385/138/368 286/137/368
f 386/146/369 502/137/369 457/141/369
f 540/148/370 378/143/370 92/145/370
f 183/142/371 15/143/371 279/148/371
f 370/120/372 278/129/372 320/124/372
f 530/149/373 251/150/373 221/151/373
f 2/150/374 12/149/374 5/152/374
f 251/152/375 149/149/375 221/126/375
f 444/149/376 397/153/376 478/154/376
f 62/150/377 151/152/377 500/155/377
f 219/150/378 257/156/378 384/151/378
f 21/157/379 319/158/379 349/128/379
f 284/158/380 84/156/380 202/159/380
f 393/150/381 152/160/381 528/156/381
f 295/156/382 260/160/382 250/159/382
f 189/160/383 47/150/383 273/155/383
f 263/153/384 182/149/384 401/151/384
f 317/153/385 328/123/385 469/124/385
f 275/123/386 197/153/386 281/157/386
f 197/157/387 506/153/387 281/151/387
f 413/129/388 272/120/388 495/131/388
f 402/123/389 217/157/389 36/128/389
f 300/154/390 293/161/390 333/126/390
f 373/149/391 218/154/391 458/126/391
f 412/154/392 148/153/392 497/124/392
f 9/154/393 360/130/393 348/161/393
f 377/161/394 249/130/394 127/134/394
f 538/130/395 190/154/395 201/124/395
f 139/162/396 95/163/396 521/164/396
f 524/163/397 441/162/397 160/165/397
f 525/162/398 399/164/398 280/166/398
f 452/167/399 75/166/399 437/168/399
f 286/167/400 55/162/400 265/166/400
f 148/169/401 412/165/401 427/162/401
f 279/164/402 72/170/402 376/171/402
f 18/164/403 521/163/403 95/170/403
f 1/166/404 199/164/404 93/171/404
f 149/168/405 251/166/405 82/172/405
f 528/166/406 23/171/406 277/172/406
f 36/173/407 210/167/407 29/168/407
f 397/174/408 84/175/408 478/176/408
f 319/176/409 160/175/409 24/177/409
f 534/174/410 371/176/410 525/178/410
f 405/179/411 480/178/411 156/180/411
f 245/179/412 489/174/412 409/178/412
f 405/177/413 350/175/413 413/181/413
f 465/182/414 418/183/414 93/184/414
f 354/183/415 52/170/415 195/184/415
f 443/181/416 94/185/416 340/177/416
f 492/186/417 355/181/417 410/175/417
f 462/178/418 67/176/418 448/187/418
f 537/170/419 481/163/419 316/188/419
f 444/189/420 246/140/420 397/136/420
f 187/136/421 84/190/421 397/189/421
f 191/140/422 188/189/422 10/191/422
f 519/189/423 385/192/423 504/193/423
f 524/191/424 233/189/424 151/193/424
f 208/190/425 75/136/425 366/139/425
f 329/142/426 485/191/426 266/143/426
f 6/140/427 289/191/427 145/142/427
f 93/191/428 8/193/428 189/143/428
f 517/193/429 195/194/429 377/144/429
f 21/143/430 536/193/430 360/144/430
f 472/193/431 365/192/431 487/194/431
f 314/171/432 528/183/432 277/182/432
f 448/171/433 22/170/433 25/183/433
f 92/172/434 378/171/434 420/182/434
f 12/188/435 188/163/435 5/195/435
f 429/165/436 314/195/436 288/163/436
f 373/170/437 262/188/437 428/184/437
f 488/142/438 343/148/438 459/146/438
f 37/146/439 296/141/439 345/142/439
f 18/148/440 369/147/440 357/146/440
f 98/195/441 531/184/441 393/188/441
f 272/148/442 208/145/442 366/147/442
f 456/196/443 270/197/443 26/198/443
f 329/199/444 266/200/444 208/201/444
f 424/196/445 412/202/445 200/197/445
f 504/202/446 340/203/446 393/204/446
f 196/202/447 16/204/447 309/197/447
f 501/201/448 377/205/448 526/199/448
f 283/206/449 437/196/449 300/199/449
f 326/199/450 444/196/450 182/198/450
f 298/207/451 356/206/451 198/199/451
f 442/200/452 251/199/452 439/208/452
f 507/199/453 484/198/453 325/208/453
f 7/209/454 91/210/454 411/211/454
f 460/209/455 100/212/455 62/213/455
f 143/212/456 526/209/456 294/211/456
f 153/213/457 359/214/457 387/209/457
f 369/213/458 158/215/458 357/216/458
f 383/214/459 471/213/459 416/216/459
f 348/211/460 309/217/460 308/212/460
f 485/218/461 28/214/461 535/219/461
f 274/210/462 225/209/462 498/214/462
f 4/214/463 19/216/463 363/219/463
f 299/216/464 436/220/464 152/221/464
f 385/219/465 519/216/465 286/221/465
f 64/207/466 269/222/466 442/223/466
f 222/204/467 299/224/467 486/225/467
f 346/197/468 358/204/468 455/225/468
f 310/198/469 391/197/469 249/226/469
f 47/208/470 384/198/470 13/226/470
f 509/197/471 505/225/471 517/226/471
f 7/227/472 246/224/472 518/204/472
f 23/228/473 435/229/473 305/202/473
f 357/202/474 33/196/474 521/228/474
f 517/203/475 325/202/475 298/229/475
f 139/204/476 201/203/476 529/227/476
f 96/229/477 527/227/477 158/203/477
f 489/226/478 245/230/478 462/208/478
f 277/205/479 305/231/479 101/232/479
f 443/199/480 15/205/480 183/232/480
f 160/207/481 347/199/481 408/232/481
f 145/206/482 301/207/482 255/223/482
f 500/232/483 233/222/483 22/207/483
f 1/201/484 253/233/484 291/231/484
f 483/230/485 379/234/485 42/200/485
f 399/200/486 515/208/486 145/230/486
f 94/201/487 98/200/487 340/233/487
f 190/205/488 523/201/488 529/231/488
f 221/200/489 44/234/489 403/233/489
f 518/235/490 91/236/490 7/132/490
f 372/131/491 313/235/491 458/132/491
f 149/236/492 44/235/492 221/237/492
f 361/158/493 10/238/493 188/239/493
f 196/132/494 482/236/494 16/240/494
f 423/235/495 244/241/495 259/237/495
f 3/121/496 418/241/496 225/122/496
f 157/241/497 332/239/497 83/237/497
f 346/239/498 345/121/498 358/128/498
f 285/241/499 502/131/499 522/122/499
f 212/131/500 381/241/500 41/235/500
f 443/238/501 142/158/501 15/159/501
f 228/160/502 459/242/502 243/159/502
f 15/242/503 72/160/503 279/240/503
f 99/240/504 47/160/504 432/155/504
f 11/156/505 496/157/505 542/151/505
f 19/157/506 144/156/506 297/158/506
f 270/236/507 456/242/507 129/240/507
f 314/158/508 161/239/508 35/128/508
f 296/239/509 381/238/509 345/237/509
f 395/236/510 400/238/510 538/242/510
f 271/242/511 537/238/511 156/159/511
f 527/238/512 394/236/512 354/237/512
f 453/239/513 92/241/513 420/121/513
f 497/215/514 148/243/514 360/244/514
f 139/245/515 467/243/515 201/215/515
f 143/243/516 501/246/516 526/244/516
f 4/210/517 363/214/517 185/218/517
f 546/211/518 475/210/518 207/218/518
f 293/213/519 282/245/519 449/215/519
f 123/215/520 510/244/520 17/220/520
f 487/216/521 339/215/521 187/220/521
f 501/217/522 447/247/522 336/245/522
f 474/245/523 284/213/523 202/212/523
f 129/245/524 479/212/524 482/217/524
f 31/218/525 435/219/525 23/211/525
f 378/246/526 355/243/526 492/248/526
f 526/243/527 192/245/527 263/248/527
f 204/249/528 186/211/528 258/219/528
f 464/250/529 200/249/529 497/221/529
f 149/219/530 82/221/530 336/249/530
f 28/248/531 9/245/531 535/247/531
f 240/251/532 486/250/532 508/220/532
f 294/250/533 276/221/533 143/220/533
f 421/251/534 255/220/534 542/244/534
f 219/246/535 214/252/535 257/244/535
f 161/252/536 314/251/536 277/244/536
f 336/253/537 249/254/537 252/255/537
f 429/256/538 393/253/538 528/255/538
f 404/257/539 428/256/539 461/255/539
f 299/258/540 222/259/540 31/260/540
f 520/261/541 216/256/541 543/257/541
f 477/260/542 219/259/542 99/262/542
f 215/263/543 370/264/543 123/265/543
f 341/265/544 338/266/544 368/263/544
f 135/267/545 322/265/545 524/264/545
f 236/268/546 86/267/546 34/269/546
f 267/267/547 488/264/547 311/269/547
f 510/270/548 5/271/548 191/272/548
f 16/259/549 479/261/549 434/257/549
f 456/253/550 429/273/550 288/254/550
f 193/259/551 101/257/551 275/274/551
f 10/273/552 99/275/552 432/276/552
f 306/276/553 302/275/553 398/277/553
f 394/278/554 516/268/554 378/269/554
f 202/270/555 345/260/555 346/271/555
f 363/279/556 270/270/556 129/272/556
f 1/270/557 463/258/557 337/260/557
f 345/280/558 202/268/558 37/281/558
f 527/268/559 96/278/559 394/281/559
f 330/266/560 85/279/560 349/263/560
f 539/282/561 475/283/561 447/262/561
f 469/282/562 490/262/562 471/274/562
f 182/284/563 478/285/563 401/286/563
f 75/283/564 452/285/564 366/284/564
f 300/286/565 415/287/565 283/284/565
f 147/274/566 97/288/566 90/282/566
f 442/255/567 82/289/567 251/257/567
f 267/278/568 470/269/568 343/290/568
f 309/289/569 348/291/569 32/257/569
f 33/274/570 212/257/570 41/291/570
f 433/291/571 286/288/571 396/274/571
f 511/284/572 206/262/572 349/283/572
f 213/292/573 344/289/573 362/255/573
f 418/293/574 465/292/574 225/255/574
f 263/276/575 302/254/575 526/273/575
f 328/259/576 491/274/576 386/262/576
f 261/276/577 272/293/577 413/254/577
f 273/293/578 47/255/578 13/254/578
f 504/294/579 385/287/579 340/286/579
f 89/286/580 310/295/580 249/294/580
f 407/294/581 64/295/581 442/296/581
f 28/296/582 329/297/582 261/298/582
f 422/296/583 523/298/583 427/294/583
f 354/286/584 540/285/584 52/299/584
f 275/300/585 101/286/585 197/299/585
f 9/299/586 28/285/586 360/301/586
f 420/301/587 378/283/587 154/302/587
f 11/285/588 290/283/588 292/301/588
f 31/295/589 513/286/589 87/300/589
f 329/297/590 208/296/590 272/303/590
f 471/304/591 383/297/591 230/303/591
f 276/303/592 294/296/592 302/305/592
f 254/305/593 49/295/593 147/300/593
f 359/296/594 243/295/594 387/305/594
f 387/283/595 311/282/595 153/302/595
f 38/306/596 322/307/596 440/308/596
f 464/307/597 424/306/597 200/309/597
f 274/309/598 204/306/598 258/310/598
f 408/309/599 211/311/599 160/312/599
f 210/307/600 214/309/600 219/313/600
f 88/291/601 240/289/601 508/314/601
f 436/282/602 299/288/602 31/315/602
f 438/302/603 243/282/603 359/315/603
f 521/315/604 33/288/604 139/316/604
f 484/316/605 287/291/605 325/314/605
f 528/288/606 314/291/606 429/316/606
f 320/317/607 278/297/607 503/304/607
f 442/318/608 336/280/608 82/281/608
f 200/319/609 412/320/609 497/318/609
f 456/318/610 26/320/610 429/280/610
f 252/314/611 501/289/611 336/321/611
f 20/317/612 262/322/612 535/319/612
f 439/317/613 49/319/613 454/318/613
f 249/275/614 325/319/614 287/277/614
f 515/320/615 399/319/615 476/275/615
f 433/319/616 337/322/616 385/277/616
f 360/281/617 28/297/617 261/317/617
f 292/317/618 389/318/618 11/281/618
f 183/289/619 88/292/619 94/321/619
f 448/277/620 100/322/620 374/323/620
f 380/324/621 425/277/621 247/323/621
f 480/323/622 405/322/622 413/325/622
f 142/325/623 385/317/623 205/304/623
f 415/322/624 426/317/624 283/325/624
f 38/276/625 440/277/625 462/324/625
f 148/292/626 544/293/626 347/326/626
f 72/321/627 304/292/627 376/326/627
f 479/326/628 456/293/628 288/327/628
f 197/327/629 305/276/629 491/324/629
f 486/293/630 299/276/630 531/327/630
f 463/328/631 3/329/631 247/139/631
f 357/328/632 344/139/632 364/138/632
f 203/139/633 132/329/633 228/190/633
f 230/329/634 416/330/634 317/192/634
f 266/330/635 293/194/635 449/192/635
f 435/328/636 124/138/636 305/147/636
f 512/331/637 417/332/637 271/333/637
f 205/334/638 425/331/638 142/333/638
f 96/333/639 355/332/639 516/335/639
f 421/336/640 496/337/640 184/338/640
f 95/332/641 139/339/641 529/335/641
f 245/340/642 524/184/642 151/195/642
f 464/341/643 350/162/643 424/167/643
f 373/169/644 260/162/644 218/341/644
f 529/173/645 422/341/645 533/167/645
f 478/342/646 182/343/646 444/181/646
f 272/184/647 366/344/647 367/182/647
f 377/340/648 195/165/648 526/169/648
f 415/344/649 414/173/649 69/172/649
f 161/172/650 193/182/650 532/344/650
f 39/340/651 186/195/651 204/165/651
f 192/341/652 420/340/652 483/169/652
f 205/168/653 463/172/653 247/173/653
f 72/345/654 380/331/654 304/334/654
f 1/346/655 26/179/655 199/347/655
f 544/346/656 148/348/656 427/179/656
f 458/177/657 313/185/657 535/176/657
f 339/338/658 84/349/658 187/336/658
f 250/187/659 183/176/659 376/185/659
f 339/348/660 186/174/660 146/179/660
f 96/186/661 516/350/661 394/351/661
f 123/347/662 370/179/662 320/180/662
f 211/350/663 408/186/663 322/348/663
f 448/348/664 38/175/664 462/174/664
f 348/175/665 85/348/665 32/186/665
f 129/336/666 185/352/666 363/337/666
f 340/353/667 385/333/667 142/354/667
f 25/334/668 38/333/668 448/353/668
f 305/333/669 277/335/669 23/354/669
f 444/331/670 326/345/670 246/349/670
f 411/349/671 295/355/671 303/331/671
f 151/352/672 233/334/672 500/353/672
f 185/353/673 129/354/673 482/337/673
f 265/352/674 86/353/674 244/337/674
f 219/345/675 29/336/675 210/349/675
f 93/345/676 199/334/676 8/352/676
f 387/336/677 267/345/677 311/352/677
f 31/356/678 222/272/678 513/287/678
f 36/272/679 217/271/679 342/287/679
f 441/294/680 524/356/680 245/287/680
f 220/290/681 389/298/681 256/278/681
f 519/290/682 504/356/682 55/294/682
f 489/271/683 312/284/683 40/287/683
f 412/350/684 422/346/684 427/357/684
f 201/192/685 327/190/685 395/329/685
f 305/350/686 124/348/686 491/346/686
f 293/284/687 323/260/687 333/262/687
f 101/271/688 305/260/688 197/284/688
f 306/298/689 539/290/689 447/294/689
f 1/358/690 93/359/690 418/356/690
f 245/358/691 151/356/691 462/290/691
f 389/264/692 520/359/692 543/358/692
f 370/269/693 203/358/693 278/290/693
f 20/358/694 348/269/694 308/264/694
f 409/359/695 40/264/695 190/263/695
f 430/281/696 5/278/696 510/297/696
f 325/278/697 517/298/697 451/297/697
f 352/359/698 247/272/698 365/356/698
f 531/359/699 152/263/699 393/279/699
f 297/272/700 83/359/700 270/279/700
f 331/189/701 253/190/701 473/192/701
f 367/347/702 368/360/702 338/346/702
f 545/361/703 457/351/703 285/350/703
f 5/362/704 188/360/704 191/347/704
f 490/360/705 545/357/705 471/346/705
f 448/357/706 67/361/706 100/350/706
f 317/363/707 416/362/707 514/347/707
f 21/180/708 347/178/708 319/187/708
f 348/181/709 536/343/709 85/185/709
f 522/342/710 87/186/710 514/351/710
f 334/180/711 522/363/711 514/347/711
f 400/342/712 24/181/712 538/186/712
f 84/343/713 284/187/713 478/185/713
f 313/332/714 372/331/714 382/364/714
f 480/364/715 512/331/715 271/355/715
f 271/339/716 156/332/716 480/364/716
f 512/365/717 341/366/717 375/337/717
f 146/366/718 37/338/718 339/337/718
f 307/339/719 406/367/719 445/335/719
f 504/365/720 429/337/720 26/354/720
f 184/343/721 496/180/721 517/187/721
f 55/368/722 291/365/722 265/354/722
f 20/367/723 535/368/723 9/335/723
f 272/368/724 261/354/724 329/335/724
f 430/369/725 510/370/725 459/371/725
f 228/372/726 243/369/726 438/371/726
f 405/373/727 156/372/727 350/371/727
f 27/374/728 194/375/728 13/376/728
f 389/375/729 220/377/729 493/378/729
f 460/370/730 374/369/730 100/379/730
f 472/379/731 187/369/731 397/380/731
f 363/380/732 297/381/732 270/379/732
f 318/382/733 426/383/733 415/384/733
f 195/379/734 496/384/734 354/370/734
f 143/384/735 276/379/735 501/382/735
f 479/375/736 16/378/736 482/376/736
f 499/385/737 331/386/737 396/376/737
f 210/374/738 36/376/738 342/386/738
f 291/387/739 253/388/739 34/389/739
f 255/390/740 421/391/740 145/392/740
f 19/393/741 4/389/741 370/388/741
f 393/386/742 429/394/742 504/374/742
f 457/378/743 545/395/743 490/385/743
f 17/376/744 191/378/744 432/385/744
f 332/383/745 8/382/745 83/394/745
f 417/385/746 313/383/746 382/386/746
f 198/394/747 442/386/747 97/383/747
f 468/396/748 333/382/748 392/379/748
f 333/392/749 414/391/749 415/397/749
f 483/398/750 263/392/750 192/397/750
f 377/344/751 127/397/751 517/391/751
f 132/390/752 2/374/752 430/399/752
f 390/391/753 209/400/753 512/344/753
f 22/377/754 448/392/754 374/398/754
f 423/401/755 259/402/755 224/403/755
f 495/404/756 338/405/756 413/406/756
f 468/407/757 541/328/757 414/408/757
f 356/408/758 249/409/758 336/410/758
f 541/328/759 69/409/759 414/408/759
f 379/374/760 483/394/760 420/399/760
f 298/410/761 406/396/761 184/381/761
f 277/408/762 193/410/762 161/381/762
f 517/407/763 127/408/763 509/380/763
f 324/381/764 271/396/764 417/379/764
f 55/408/765 1/381/765 291/380/765
f 42/399/766 379/396/766 316/410/766
f 510/399/767 320/400/767 459/391/767
f 183/391/768 279/390/768 376/399/768
f 414/399/769 333/394/769 468/396/769
f 29/400/770 477/399/770 206/410/770
f 404/394/771 461/382/771 275/396/771
f 433/366/772 396/365/772 331/404/772
f 94/411/773 508/412/773 98/330/773
f 465/368/774 498/367/774 225/405/774
f 374/404/775 500/365/775 22/368/775
f 368/405/776 323/404/776 341/368/776
f 326/329/777 59/328/777 518/411/777
f 445/413/778 268/194/778 280/330/778
f 341/145/779 323/144/779 375/413/779
f 388/413/780 450/144/780 389/194/780
f 260/330/781 373/329/781 428/411/781
f 293/330/782 300/412/782 437/413/782
f 426/405/783 318/339/783 69/364/783
f 353/342/784 534/401/784 362/403/784
f 432/351/785 47/414/785 332/401/785
f 438/343/786 153/342/786 446/403/786
f 203/341/787 228/410/787 278/409/787
f 348/340/788 20/341/788 9/409/788
f 280/342/789 307/351/789 445/401/789
f 419/364/790 193/402/790 461/405/790
f 287/405/791 89/367/791 249/339/791
f 40/364/792 409/355/792 489/403/792
f 307/403/793 145/402/793 406/364/793
f 210/355/794 39/349/794 214/403/794
f 420/413/795 192/412/795 453/362/795
f 452/415/796 466/416/796 392/417/796
f 193/418/797 419/419/797 532/415/797
f 449/417/798 208/420/798 266/415/798
f 315/421/799 372/419/799 518/422/799
f 315/418/227 324/415/227 382/420/227
f 315/416/800 518/415/800 59/419/800
f 531/392/801 299/375/801 152/374/801
f 244/374/802 86/390/802 259/392/802
f 254/392/803 335/377/803 49/375/803
f 1/423/804 55/424/804 26/425/804
f 7/423/805 472/426/805 246/424/805
f 207/422/806 475/427/806 346/421/806
f 29/360/807 206/362/807 36/428/807
f 25/357/808 22/360/808 233/428/808
f 253/362/809 337/412/809 473/428/809
f 440/363/810 312/180/810 489/413/810
f 329/362/811 28/363/811 485/413/811
f 135/357/812 524/428/812 211/414/812
f 541/427/813 466/422/813 426/423/813
f 463/406/814 385/421/814 337/427/814
f 203/429/815 370/430/815 185/431/815
f 300/361/816 333/357/816 415/414/816
f 328/351/817 386/361/817 469/414/817
f 338/240/818 495/432/818 367/132/818
f 35/433/819 434/132/819 288/432/819
f 18/388/820 96/387/820 369/434/820
f 440/393/821 544/388/821 312/434/821
f 213/387/822 362/435/822 221/434/822
f 21/436/823 360/433/823 148/432/823
f 398/135/824 302/437/824 263/438/824
f 20/438/825 532/439/825 419/135/825
f 306/387/826 276/438/826 302/437/826
f 410/433/827 355/436/827 156/440/827
f 293/437/828 375/435/828 323/387/828
f 219/135/829 477/439/829 29/441/829
f 263/418/830 401/442/830 398/443/830
f 72/443/831 425/419/831 380/418/831
f 224/426/832 499/443/832 396/442/832
f 49/328/833 280/407/833 268/411/833
f 25/442/834 524/444/834 322/426/834
f 452/443/835 437/426/835 466/423/835
f 366/445/836 452/446/836 392/431/836
f 519/135/837 55/441/837 286/447/837
f 154/445/838 378/431/838 492/430/838
f 19/423/839 215/422/839 144/443/839
f 532/422/840 20/419/840 308/443/840
f 465/448/841 194/449/841 498/450/841
f 144/451/842 17/452/842 157/453/842
f 512/454/843 480/452/843 341/451/843
f 30/455/844 40/436/844 312/432/844
f 182/456/845 483/432/845 42/457/845
f 496/432/846 421/456/846 542/455/846
f 323/450/847 368/454/847 392/451/847
f 225/458/848 274/459/848 258/460/848
f 466/459/849 283/458/849 426/461/849
f 525/459/850 49/461/850 530/462/850
f 219/430/851 384/452/851 99/454/851
f 368/454/852 366/445/852 392/430/852
f 59/432/853 316/240/853 481/457/853
f 330/463/854 206/448/854 477/451/854
f 390/453/855 512/463/855 375/451/855
f 265/448/856 291/434/856 86/449/856
f 294/451/857 526/448/857 302/450/857
f 434/434/858 479/435/858 288/449/858
f 209/393/859 417/434/859 512/448/859
f 353/447/860 357/464/860 158/155/860
f 3/155/861 258/135/861 365/447/861
f 75/240/862 282/155/862 293/464/862
f 529/463/863 201/393/863 190/448/863
f 322/464/864 135/457/864 211/240/864
f 394/465/865 540/417/865 354/466/865
f 468/467/866 392/465/866 466/466/866
f 308/401/867 309/467/867 35/402/867
f 97/419/868 445/421/868 198/416/868
f 468/467/869 466/466/869 541/402/869
f 309/468/870 16/467/870 434/401/870
f 410/417/871 537/465/871 492/469/871
f 357/469/872 353/420/872 344/417/872
f 196/470/873 32/469/873 361/465/873
f 153/414/874 438/468/874 359/401/874
f 510/468/875 123/465/875 320/467/875
f 471/417/876 230/416/876 469/466/876
f 319/427/877 347/471/877 160/472/877
f 31/460/878 23/472/878 436/471/878
f 261/472/879 497/406/879 360/427/879
f 488/406/880 459/472/880 320/404/880
f 317/460/881 514/404/881 328/472/881
f 422/471/882 424/427/882 533/423/882
f 495/406/883 272/405/883 367/416/883
f 222/416/884 486/421/884 513/406/884
f 472/466/885 7/416/885 303/402/885
f 361/423/886 330/425/886 99/471/886
f 154/416/887 537/405/887 316/402/887
f 247/420/888 3/469/888 365/473/888
f 408/474/889 347/475/889 544/412/889
f 461/411/890 262/474/890 20/412/890
f 340/428/891 142/412/891 443/476/891
f 278/414/892 446/428/892 503/468/892
f 525/412/893 280/475/893 49/476/893
f 440/372/894 489/373/894 462/475/894
f 327/369/29 217/372/29 402/474/29
f 20/380/895 419/369/895 461/474/895
f 395/407/896 511/380/896 400/411/896
f 411/474/897 91/372/897 260/475/897
f 145/380/898 421/474/898 150/411/898
f 249/428/899 391/476/899 127/468/899
f 539/371/900 474/477/900 475/478/900
f 322/373/901 38/371/901 25/478/901
f 523/478/902 190/477/902 427/465/902
f 190/473/903 538/418/903 409/420/903
f 536/477/904 21/470/904 349/465/904
f 266/429/905 485/453/905 390/452/905
f 286/475/906 265/373/906 423/478/906
f 261/476/907 464/475/907 497/478/907
f 79/468/908 207/476/908 346/478/908
f 338/452/909 341/430/909 480/429/909
f 151/478/910 62/465/910 67/468/910
f 388/479/911 155/480/911 450/134/911
f 433/481/912 331/479/912 473/132/912
f 438/134/913 446/133/913 278/479/913
f 36/127/914 511/134/914 402/480/914
f 411/133/915 260/132/915 295/479/915
f 517/132/916 496/433/916 195/482/916
f 526/161/917 195/134/917 52/127/917
f 464/440/918 261/483/918 413/433/918
f 499/127/919 259/126/919 236/161/919
f 527/482/920 354/481/920 216/132/920
f 293/482/921 437/433/921 75/483/921
f 101/425/922 193/484/922 277/458/922
f 479/485/923 129/486/923 456/487/923
f 333/485/924 323/488/924 392/486/924
f 34/489/925 86/490/925 291/491/925
f 411/487/926 303/489/926 7/485/926
f 434/490/927 35/492/927 309/491/927
f 196/493/928 12/488/928 482/485/928
f 458/471/929 218/458/929 372/460/929
f 283/458/930 466/471/930 437/425/930
f 197/494/931 491/444/931 506/495/931
f 504/485/932 26/495/932 55/493/932
f 3/444/933 225/493/933 258/495/933
f 458/483/934 262/440/934 373/445/934
f 262/418/935 461/496/935 428/442/935
f 355/217/936 96/211/936 533/442/936
f 403/496/937 494/217/937 79/442/937
f 481/135/938 324/125/938 59/437/938
f 259/211/939 86/497/939 236/442/939
f 511/498/940 36/446/940 206/248/940
f 330/217/941 477/496/941 99/247/941
f 280/499/942 399/496/942 307/418/942
