# Blender 5.1.1
# www.blender.org
o Куб.001
v 0.568627 1.158230 0.858519
v 0.462968 2.552149 0.322366
v 0.629612 1.049913 -0.256394
v 0.630672 2.319803 -0.190879
v 0.053227 0.947236 -0.313328
v 0.004170 2.448310 -0.351994
v 0.739967 1.620320 0.029492
v 0.641076 0.981572 0.249912
v 0.579473 2.441309 0.096211
v 0.683528 1.785752 0.595432
v 0.093282 1.111784 1.026123
v -0.094118 2.618629 0.349057
v 0.751504 1.633608 0.147480
v 0.045939 0.854208 0.269972
v -0.036121 2.568631 0.060850
v 0.833409 0.311254 -0.977169
v 0.555850 2.237017 -0.426440
v 0.071771 1.031139 -0.562947
v 0.000362 2.291098 -0.616964
v 0.478425 1.310396 -0.836075
v 0.474365 2.115384 -0.700998
v 0.060431 2.329582 3.424112
v 0.080457 1.132932 -0.770342
v 0.001759 2.143010 -0.899109
v 0.577405 1.727184 -0.856310
v 0.038264 1.572853 -0.939662
v 0.059095 2.726748 3.372017
v 0.145350 3.039981 3.066052
v 0.484448 1.546767 1.570993
v 0.469461 2.678953 0.733046
v 0.142950 2.286805 3.225389
v 0.635424 1.957006 0.945835
v 0.099639 1.422025 1.574928
v -0.042610 2.781117 0.803563
v 0.032975 2.414752 3.639956
v 0.009852 2.585720 3.653794
v 0.019300 2.336098 3.549335
v 0.562658 2.876745 1.067103
v 0.510896 1.058969 1.845555
v 0.091199 1.471344 1.816254
v -0.046012 2.978314 1.154831
v 0.094322 2.923219 3.299679
v 0.104948 2.301023 3.341960
v 0.144141 3.145194 2.791109
v 0.579496 2.921632 1.259706
v 0.437966 1.064495 1.930210
v 0.087748 1.532630 1.893303
v -0.045000 3.038467 1.311997
v 0.156492 2.279610 3.104844
v 0.131535 3.203002 2.565074
v 0.140823 2.268833 2.958701
v 0.536587 2.938342 1.527730
v 0.741002 2.391050 1.745778
v 0.714214 1.704161 2.217119
v 0.070076 1.677355 1.981448
v -0.040728 3.076236 1.473924
v 0.130306 3.240566 2.248302
v 0.162211 2.218221 2.556452
v 0.426397 3.062048 1.785298
v 0.616511 2.293258 1.963408
v 0.542995 2.029207 2.070304
v 0.048718 1.849504 2.083346
v -0.049782 3.196583 1.738213
v 0.182431 3.155798 1.759680
v 0.297287 1.934959 2.079532
v 0.241230 3.033819 1.474593
v 0.473792 1.658635 1.983057
v 0.316816 3.177465 2.238569
v 0.432336 2.559949 2.451211
v 0.348388 2.243200 2.486244
v -0.020464 2.192037 2.581024
v -0.052746 3.258534 2.233290
v 0.279391 2.991415 1.277963
v 0.407746 1.626740 1.895602
v 0.271726 2.948154 1.090460
v 0.312320 3.147751 2.546480
v 0.402869 2.660934 2.735829
v 0.321220 2.292148 2.894001
v -0.036602 2.241438 2.957889
v -0.047047 3.218174 2.539399
v 0.395049 1.668058 1.936851
v 0.212722 2.752291 0.735098
v 0.381147 1.592068 1.760793
v 0.340615 2.958662 2.817676
v 0.424190 2.746187 2.862121
v 0.348052 2.309870 3.043764
v -0.034790 2.251436 3.099519
v -0.033682 3.165081 2.762941
v 0.294601 1.575996 -0.873571
v 0.205397 2.134163 -0.853235
v 0.346388 1.243685 -0.773012
v 0.216022 2.879561 3.257656
v 0.311377 2.616849 3.241207
v 0.244504 2.321574 3.292183
v -0.031862 2.281483 3.313738
v -0.024226 2.937360 3.265816
v 0.257041 2.252453 -0.643940
v 0.308718 1.103136 -0.549602
v 0.272500 2.534671 0.024156
v 0.044786 2.578716 3.632168
v 0.099230 2.416382 3.598494
v 0.075135 2.359022 3.537423
v -0.028304 2.329905 3.561583
v 0.039535 2.531472 3.654252
v -0.026440 2.404595 3.639546
v 0.435059 2.816346 2.929745
v -0.033318 2.263641 3.210217
v 0.320098 2.311680 3.168293
v 0.346842 0.893616 0.196373
v -0.027101 3.063115 3.034745
v 0.372352 2.953029 2.907412
v 0.177625 2.601309 0.290702
v -0.025561 2.729997 3.371354
v 0.333053 1.121673 0.934312
v 0.318973 2.385720 -0.405860
v 0.382644 0.986987 -0.314842
v 0.156377 2.345164 3.378556
v -0.030580 2.313607 3.387631
v 0.182797 2.516896 3.420131
v 0.149337 2.686470 3.360243
v 0.041008 2.330772 3.481857
v 0.042749 2.626078 3.536824
v 0.110784 2.345170 3.467844
v 0.134109 2.467337 3.508553
v -0.024978 2.631187 3.524194
v -0.029501 2.320683 3.470815
v 0.109451 2.604972 3.510330
v 0.605109 2.567925 0.874311
v 0.728703 1.976060 1.016412
v 0.638415 1.670336 1.526074
v 0.671755 2.749743 1.086935
v 0.832264 2.058159 1.521947
v 0.878384 1.680682 1.895988
v 0.641362 2.817371 1.266075
v 0.862671 2.201037 1.616832
v 0.940320 1.688561 2.065140
v 0.658706 2.722929 1.461018
v 0.832828 2.366156 1.716145
v 0.915446 1.733791 2.194045
v 0.416276 1.292745 1.837479
v 0.491311 1.306170 1.736780
v 0.849077 1.276391 2.174680
v 0.719396 1.269361 2.262345
v 0.860001 1.253139 2.047101
v 0.457157 1.260055 2.058717
v 0.814434 1.256293 1.923443
v 0.625841 1.307232 1.682202
v 0.502468 1.247302 2.179429
v 0.573406 1.264786 2.238302
v 0.822289 1.051105 2.139306
v 0.693611 1.065184 2.223755
v 0.450440 0.601541 1.816695
v 0.843532 1.034649 2.038293
v 0.455034 1.062205 2.065747
v 0.357233 0.612699 1.905208
v 0.803195 1.030919 1.944406
v 0.643589 1.048186 1.810156
v 0.490034 1.068516 2.176159
v 0.552874 1.075395 2.232014
v 0.402190 0.873135 1.895008
v 0.485708 0.862636 1.813171
v 0.808107 0.850111 2.068958
v 0.665572 0.868239 2.153739
v 0.802234 0.837326 1.983990
v 0.419503 0.872847 2.017769
v 0.765669 0.833101 1.898643
v 0.632468 0.846535 1.773304
v 0.453082 0.878764 2.118004
v 0.514662 0.883561 2.167914
v 0.826619 0.563805 2.079181
v 0.641599 0.584291 2.177701
v 0.642747 0.581863 2.048536
v 0.798140 0.564145 1.995930
v 0.374812 0.610339 2.036360
v 0.601798 0.582887 1.948822
v 0.760814 0.564230 1.905119
v 0.613007 0.582692 1.772571
v 0.411969 0.610611 2.141624
v 0.449155 0.608180 2.202564
v 0.378277 0.748718 1.901679
v 0.432185 0.751654 2.131553
v 0.395575 0.748088 2.028836
v 0.767385 0.704265 1.902115
v 0.804145 0.707322 1.990907
v 0.819674 0.770279 2.075797
v 0.664893 0.786726 2.167623
v 0.625237 0.719434 1.773373
v 0.468185 0.737232 1.816052
v 0.499989 0.807005 2.181775
v 0.689928 0.693928 2.300642
v 0.679187 0.576983 2.308211
v 0.835326 0.559869 2.217909
v 0.515644 0.597076 2.324151
v 0.840617 0.678026 2.212752
v 0.531769 0.713721 2.315198
v 0.784784 2.169162 -0.193934
v 0.816442 1.618313 -0.087104
v 0.787627 1.095104 -0.327884
v 0.770191 2.126886 -0.432970
v 0.873457 1.709965 -0.569431
v 0.828126 1.189271 -0.569687
v 0.753114 2.045094 -0.658847
v 0.846554 1.748831 -0.790203
v 0.752480 1.311621 -0.816855
v 0.614988 0.107580 -1.080042
v 0.530331 1.005897 -0.966074
v 0.658480 0.871038 -0.368341
v 0.459828 0.868915 -0.434467
v 0.392966 0.929531 -0.687074
v 0.419593 0.991274 -0.918626
v 0.816027 0.942094 -0.684624
v 0.754174 0.997387 -0.932884
v 0.784751 0.890983 -0.443798
v 0.547435 0.813383 -0.977236
v 0.662540 0.445100 -0.567869
v 0.481619 0.481970 -0.617423
v 0.421475 0.658033 -0.781912
v 0.446426 0.788495 -0.942579
v 0.807025 0.657460 -0.774224
v 0.751335 0.795696 -0.949593
v 0.777799 0.496981 -0.616893
v 0.551642 0.242905 -1.273280
v 0.683718 -0.004421 -0.891403
v 0.427330 0.007801 -0.938248
v 0.409812 0.113603 -1.101763
v 0.438911 0.220063 -1.244974
v 0.838749 0.118884 -1.097502
v 0.778265 0.227836 -1.252780
v 0.848530 0.024314 -0.944467
v 0.841111 0.215570 -0.829729
v 0.404445 0.306453 -0.982274
v 0.433561 0.411065 -1.125493
v 0.419896 0.200561 -0.823591
v 0.676214 0.183769 -0.780744
v 0.546300 0.434229 -1.153384
v 0.772931 0.419156 -1.132637
v 0.802242 0.057892 -0.776427
v 0.808834 -0.044640 -0.822432
v 0.680211 -0.073439 -0.771272
v 0.479305 -0.060590 -0.818604
v 0.472726 0.040383 -0.772628
v 0.673606 0.031940 -0.724836
v 0.796949 0.499648 -0.865601
v 0.437489 0.496625 -0.869347
v 0.661455 0.359581 -0.681873
v 0.769097 0.393168 -0.727061
v 0.461460 0.602386 -0.997748
v 0.492938 0.381140 -0.724266
v 0.555841 0.624279 -1.023352
v 0.745830 0.609089 -1.004036
v 0.002287 2.013019 -0.989128
v 0.013738 1.740304 -1.045486
v 0.109015 1.746878 -1.000903
v 0.078777 2.000982 -0.963640
v 0.149478 1.716953 -0.942004
v 0.090768 2.089211 -0.915596
v 0.016288 1.705853 -0.996311
v 0.002009 2.103900 -0.946673
v 0.318905 3.058363 2.697076
v 0.430286 2.657684 2.852399
v 0.318281 2.981737 3.033020
v 0.440189 2.696926 3.051499
v 0.400301 3.007627 2.840428
v 0.478642 2.996845 2.861357
v 0.441436 3.019410 2.853496
v 0.506381 2.959041 2.864705
v 0.505392 2.867541 2.866694
v 0.519134 2.914457 2.866869
v 0.483990 2.973330 2.908246
v 0.424975 2.985377 2.907668
v 0.455633 2.990244 2.907876
v 0.496550 2.895441 2.914873
v 0.496787 2.957465 2.908449
v 0.506863 2.926934 2.910516
v 0.342526 2.962016 2.906403
v 0.429752 2.771105 2.935146
v 0.460278 3.014610 2.904894
v 0.499565 2.991262 2.905961
v 0.416708 3.007697 2.905017
v 0.517745 2.968817 2.906925
v 0.531594 2.926917 2.910338
v 0.517621 2.884310 2.916066
v 0.353312 2.938357 2.910174
v 0.419781 2.793028 2.931829
v 0.382426 2.933216 2.899433
v 0.427728 2.834515 2.915510
v 0.442523 2.960039 2.899759
v 0.462993 2.947806 2.900016
v 0.420410 2.956528 2.899608
v 0.472234 2.936337 2.900155
v 0.479517 2.914277 2.901634
v 0.472101 2.891496 2.904758
v 0.368749 2.922537 2.901392
v 0.416720 2.817705 2.917015
v 0.034495 2.586071 3.618962
v 0.030827 2.506900 3.657649
v 0.074981 2.578821 3.591128
v 0.070071 2.499706 3.630739
v -0.024879 2.508766 3.661131
v -0.024362 2.585677 3.623724
v 0.006242 2.538355 3.675172
v -0.024024 2.584048 3.653782
v -0.024344 2.538324 3.675032
v -0.437461 1.090247 0.843201
v -0.592953 2.416724 0.387812
v -0.529351 1.018062 -0.353199
v -0.610514 2.285694 -0.294550
v -0.704286 1.562907 -0.065165
v -0.528253 0.927935 0.186794
v -0.637801 2.382253 0.029521
v -0.615781 1.659161 0.628071
v -0.721963 1.561614 0.071893
v -0.570253 0.272683 -1.094416
v -0.500596 2.210784 -0.506326
v -0.298624 1.289049 -0.900966
v -0.398164 2.099046 -0.751070
v -0.120267 2.331844 3.426265
v -0.429625 1.702224 -0.932323
v -0.110233 2.728868 3.374034
v -0.198763 3.042905 3.069771
v -0.318620 1.481346 1.593642
v -0.541430 2.587258 0.771796
v -0.208541 2.291205 3.229576
v -0.570704 1.854255 0.982086
v -0.085556 2.416235 3.641367
v -0.057838 2.586567 3.654600
v -0.076016 2.337291 3.550470
v -0.635313 2.782557 1.101024
v -0.256635 0.998623 1.867288
v -0.142243 2.926180 3.302497
v -0.167429 2.304433 3.345204
v -0.209820 3.144506 2.793922
v -0.648096 2.825115 1.294465
v -0.180819 1.015844 1.947731
v -0.225125 2.284388 3.109389
v -0.222273 3.192441 2.565188
v -0.213215 2.273265 2.962918
v -0.592298 2.851268 1.553689
v -0.697173 2.277977 1.786500
v -0.536988 1.605788 2.252547
v -0.232787 3.224439 2.247073
v -0.201033 2.216352 2.561278
v -0.500982 2.998991 1.786538
v -0.561437 2.210256 1.992301
v -0.449013 1.961219 2.095159
v -0.273434 3.125269 1.757960
v -0.202544 1.903207 2.091962
v -0.314431 2.992451 1.482047
v -0.307876 1.597723 2.005093
v -0.412209 3.145686 2.236427
v -0.468123 2.531498 2.457044
v -0.380854 2.234823 2.495117
v -0.360757 2.941423 1.294880
v -0.240762 1.575753 1.913964
v -0.358254 2.898623 1.108298
v -0.398616 3.127699 2.547045
v -0.464218 2.661519 2.744096
v -0.390125 2.298976 2.902161
v -0.232373 1.618728 1.954617
v -0.296757 2.706656 0.755042
v -0.215695 1.544933 1.777900
v -0.404214 2.958817 2.824035
v -0.486990 2.751000 2.871167
v -0.417137 2.319314 3.052842
v -0.166079 1.566610 -0.902277
v -0.191561 2.133006 -0.857279
v -0.178410 1.229617 -0.815800
v -0.266188 2.885383 3.263341
v -0.368230 2.625357 3.249301
v -0.307573 2.328485 3.298759
v -0.234932 2.248926 -0.655200
v -0.167679 1.090044 -0.589394
v -0.333850 2.505859 -0.009855
v -0.093441 2.580447 3.633814
v -0.152719 2.419536 3.601495
v -0.131527 2.361609 3.539885
v -0.088851 2.533079 3.655782
v -0.495751 2.821343 2.939007
v -0.386320 2.320523 3.176707
v -0.239015 0.868565 0.160555
v -0.433117 2.955477 2.914911
v -0.346888 2.523102 0.336999
v -0.158279 1.082409 0.934620
v -0.279346 2.372206 -0.447092
v -0.273052 0.968967 -0.369611
v -0.216851 2.349837 3.383002
v -0.237967 2.522163 3.425143
v -0.201709 2.690864 3.364424
v -0.099451 2.332530 3.483530
v -0.092491 2.627770 3.538435
v -0.169160 2.348675 3.471179
v -0.188443 2.471375 3.512394
v -0.160312 2.608349 3.513543
v -0.639879 2.461196 0.918313
v -0.657543 1.859805 1.060432
v -0.495820 1.581159 1.558190
v -0.721949 2.640165 1.126398
v -0.747774 1.933931 1.566686
v -0.713273 1.555541 1.941056
v -0.692464 2.712501 1.303843
v -0.794734 2.070726 1.663761
v -0.766068 1.554400 2.113457
v -0.684087 2.617858 1.497239
v -0.785505 2.238918 1.761969
v -0.741353 1.603529 2.240957
v -0.200287 1.244269 1.854937
v -0.282041 1.245366 1.758678
v -0.605568 1.162022 2.215869
v -0.471658 1.175716 2.296070
v -0.619884 1.136786 2.089005
v -0.223054 1.206575 2.077977
v -0.582396 1.146470 1.962994
v -0.417940 1.225167 1.711757
v -0.258957 1.187437 2.200989
v -0.328330 1.193889 2.263835
v -0.545961 0.943529 2.178049
v -0.416517 0.977903 2.255189
v -0.127211 0.556124 1.833052
v -0.570020 0.923511 2.078318
v -0.189669 1.011516 2.084002
v -0.032060 0.582091 1.916231
v -0.534940 0.925710 1.982295
v -0.387794 0.967096 1.839360
v -0.218961 1.012772 2.196234
v -0.278862 1.010001 2.255565
v -0.117636 0.832264 1.909727
v -0.202959 0.808491 1.832671
v -0.504546 0.746906 2.106126
v -0.362051 0.787444 2.182836
v -0.501535 0.734820 2.020907
v -0.127761 0.829819 2.033265
v -0.469618 0.735979 1.933620
v -0.347411 0.769494 1.801050
v -0.156161 0.830864 2.135255
v -0.214829 0.826206 2.188570
v -0.477517 0.461270 2.116108
v -0.292722 0.510831 2.204156
v -0.300739 0.507683 2.075252
v -0.454168 0.465685 2.031389
v -0.041652 0.577596 2.048152
v -0.266126 0.514648 1.973397
v -0.422480 0.471195 1.938625
v -0.287061 0.511926 1.798057
v -0.072416 0.572527 2.155340
v -0.105280 0.564588 2.218264
v -0.074251 0.713138 1.914492
v -0.114943 0.708637 2.147046
v -0.084060 0.710378 2.042417
v -0.450996 0.608472 1.936614
v -0.482730 0.606144 2.027346
v -0.503101 0.666279 2.113251
v -0.347871 0.707100 2.196300
v -0.320428 0.645083 1.800150
v -0.165934 0.687376 1.834008
v -0.187625 0.752943 2.201245
v -0.350587 0.612120 2.330104
v -0.321309 0.498321 2.336540
v -0.477687 0.456636 2.255088
v -0.162274 0.543776 2.343347
v -0.501646 0.572493 2.250759
v -0.196894 0.656431 2.335831
v -0.753539 2.126889 -0.322423
v -0.770707 1.571735 -0.215624
v -0.675555 1.054894 -0.450099
v -0.697239 2.086561 -0.555537
v -0.753561 1.665254 -0.705328
v -0.680485 1.147815 -0.695695
v -0.646798 2.009339 -0.767667
v -0.694991 1.707204 -0.916767
v -0.571700 1.275235 -0.927458
v -0.327022 0.081695 -1.158729
v -0.311550 0.982766 -1.036397
v -0.529462 0.838392 -0.467569
v -0.322782 0.847408 -0.499839
v -0.218377 0.912733 -0.738141
v -0.209579 0.973988 -0.971182
v -0.636038 0.902193 -0.805912
v -0.536996 0.961910 -1.040733
v -0.642376 0.851765 -0.563004
v -0.316041 0.789658 -1.049365
v -0.477154 0.413783 -0.663068
v -0.292806 0.460690 -0.682113
v -0.215921 0.640520 -0.835157
v -0.220970 0.770158 -0.998330
v -0.596797 0.618884 -0.891485
v -0.520430 0.760750 -1.055824
v -0.585348 0.459523 -0.730756
v -0.239995 0.221152 -1.339407
v -0.419859 -0.034746 -0.983584
v -0.160307 -0.008346 -0.987334
v -0.121722 0.098998 -1.146165
v -0.132441 0.204363 -1.292702
v -0.545071 0.080857 -1.213090
v -0.465718 0.193652 -1.356689
v -0.574913 -0.014801 -1.063365
v -0.597059 0.176051 -0.949857
v -0.146763 0.291308 -1.028319
v -0.157396 0.394826 -1.174858
v -0.182506 0.184009 -0.873911
v -0.441078 0.153068 -0.874071
v -0.265045 0.411934 -1.221158
v -0.490815 0.384429 -1.238197
v -0.559022 0.020487 -0.890131
v -0.552296 -0.082042 -0.936124
v -0.432557 -0.104016 -0.864221
v -0.227588 -0.080014 -0.877652
v -0.234237 0.020958 -0.831682
v -0.439497 0.001354 -0.817813
v -0.563121 0.462275 -0.979207
v -0.208391 0.478878 -0.923300
v -0.452524 0.328971 -0.774924
v -0.552855 0.356842 -0.837483
v -0.216477 0.583758 -1.054379
v -0.280741 0.359882 -0.788894
v -0.306360 0.600587 -1.095374
v -0.495808 0.574971 -1.107750
v -0.072160 1.745918 -1.004037
v -0.074403 2.000831 -0.964319
v -0.093137 1.714966 -0.948296
v -0.086994 2.089035 -0.916384
v -0.388650 3.053185 2.701656
v -0.494397 2.663667 2.861880
v -0.373733 2.987145 3.040370
v -0.499601 2.705655 3.061860
v -0.462672 3.009134 2.848155
v -0.540045 2.999828 2.870807
v -0.503136 3.021716 2.862132
v -0.567736 2.962664 2.874800
v -0.567134 2.871903 2.876982
v -0.580616 2.918552 2.877313
v -0.544480 2.976696 2.917885
v -0.485666 2.987910 2.916080
v -0.516167 2.993168 2.916913
v -0.557196 2.899556 2.924934
v -0.557301 2.961075 2.918373
v -0.567445 2.930872 2.920701
v -0.402920 2.964814 2.913490
v -0.490722 2.776846 2.944524
v -0.520738 3.017533 2.914008
v -0.559968 2.994750 2.915896
v -0.477342 3.010159 2.913269
v -0.578196 2.972598 2.917249
v -0.592155 2.931088 2.921007
v -0.578306 2.888657 2.926548
v -0.414189 2.940563 2.917284
v -0.480577 2.798483 2.940959
v -0.443494 2.935656 2.907103
v -0.488623 2.838996 2.924508
v -0.503396 2.962875 2.908554
v -0.523813 2.951020 2.909261
v -0.481383 2.959091 2.907954
v -0.533051 2.939786 2.909621
v -0.540353 2.918050 2.911313
v -0.532940 2.895529 2.914383
v -0.429786 2.925015 2.908840
v -0.477661 2.822492 2.925910
v -0.083288 2.587546 3.620365
v -0.080682 2.508296 3.658977
v -0.124593 2.581320 3.593505
v -0.120723 2.502094 3.633011
v -0.054907 2.539121 3.675901
v 0.263825 2.657224 3.261572
v 0.279644 2.726029 3.250556
v 0.242637 2.671021 3.301513
v 0.204776 2.633385 3.314724
v 0.218385 2.665133 3.271931
v 0.264656 2.722391 3.232274
v 0.230372 2.744715 3.296902
v 0.184100 2.687457 3.336559
v 0.169112 2.683819 3.318276
v 0.206120 2.738828 3.267319
v 0.243981 2.776464 3.254109
v 0.184932 2.752624 3.307261
v 0.258296 2.656959 3.281038
v 0.280049 2.689292 3.251086
v 0.267595 2.697402 3.274564
v 0.280537 2.727596 3.233866
v 0.271239 2.687153 3.240340
v 0.236042 2.634837 3.288803
v 0.223588 2.642946 3.312280
v 0.244042 2.653498 3.263650
v 0.209334 2.639486 3.294892
v 0.244530 2.691803 3.246429
v 0.268385 2.759380 3.246700
v 0.259575 2.757241 3.235953
v 0.238633 2.708385 3.301805
v 0.260386 2.740718 3.271852
v 0.189182 2.652607 3.332880
v 0.211436 2.674729 3.325115
v 0.188371 2.669130 3.296980
v 0.180372 2.650468 3.322134
v 0.237321 2.735119 3.243718
v 0.210124 2.701464 3.267028
v 0.239423 2.770362 3.273941
v 0.204226 2.718046 3.322404
v 0.168219 2.682252 3.334968
v 0.181162 2.712446 3.294270
v 0.225168 2.766902 3.256553
v 0.204715 2.756350 3.305183
v 0.212714 2.775011 3.280030
v 0.177518 2.722695 3.328493
v 0.168708 2.720556 3.317746
v 0.190460 2.752890 3.287795
v -0.319210 2.664523 3.268516
v -0.333560 2.733706 3.257860
v -0.296738 2.677773 3.307938
v -0.259527 2.639197 3.320255
v -0.273353 2.671289 3.277788
v -0.319108 2.729699 3.239227
v -0.282746 2.751138 3.303014
v -0.236991 2.692729 3.341575
v -0.222538 2.688722 3.322942
v -0.259360 2.744654 3.272864
v -0.296571 2.783230 3.260547
v -0.236888 2.757905 3.312286
v -0.313228 2.664114 3.287846
v -0.334872 2.696990 3.258411
v -0.321663 2.704778 3.281582
v -0.334811 2.735300 3.241195
v -0.326376 2.694634 3.247458
v -0.291356 2.641439 3.295085
v -0.278147 2.649227 3.318257
v -0.299483 2.660303 3.270124
v -0.264402 2.645416 3.300535
v -0.299422 2.698612 3.252908
v -0.321565 2.766765 3.253727
v -0.313070 2.764410 3.242774
v -0.291795 2.715025 3.308123
v -0.313439 2.747901 3.278688
v -0.243029 2.658018 3.338028
v -0.264901 2.680692 3.330789
v -0.242660 2.674526 3.302114
v -0.234534 2.655662 3.327075
v -0.291198 2.741735 3.250013
v -0.264304 2.707403 3.272679
v -0.291697 2.777011 3.280267
v -0.256676 2.723815 3.327894
v -0.221287 2.687128 3.339607
v -0.234436 2.717649 3.299220
v -0.277951 2.773200 3.262545
v -0.256616 2.762125 3.310678
v -0.264742 2.780988 3.285717
v -0.229722 2.727793 3.333344
v -0.221227 2.725438 3.322392
v -0.242870 2.758314 3.292957
vn -0.8514 -0.5214 0.0569
vn 0.4380 0.7634 -0.4747
vn 0.9841 -0.1700 -0.0513
vn 0.9814 0.1892 0.0331
vn 0.9505 0.2690 0.1552
vn 0.9779 -0.1240 0.1686
vn 0.9794 -0.1010 0.1751
vn 0.3426 -0.8169 0.4640
vn 0.2932 -0.9453 -0.1432
vn 0.2304 -0.9278 0.2936
vn 0.1047 0.9504 -0.2929
vn 0.0553 0.9801 -0.1908
vn 0.3682 0.7887 -0.4924
vn 0.1563 -0.0279 -0.9873
vn 0.1859 -0.9005 -0.3932
vn 0.5772 0.2670 0.7717
vn 0.2368 0.2236 -0.9455
vn -0.0262 -0.1575 -0.9872
vn 0.2116 0.4286 -0.8784
vn 0.3150 -0.8413 -0.4393
vn 0.8034 0.5774 -0.1455
vn 0.9276 -0.1593 -0.3380
vn 0.0034 0.9441 -0.3296
vn 0.9702 0.2388 -0.0405
vn 0.4904 -0.7803 -0.3881
vn 0.0706 0.9549 -0.2883
vn -0.0223 0.8744 -0.4846
vn -0.8315 -0.2801 -0.4797
vn 0.6664 -0.0540 -0.7436
vn 0.1319 0.9700 -0.2044
vn -0.7232 0.1970 0.6620
vn 0.7939 -0.2102 -0.5706
vn 0.0805 0.8586 -0.5063
vn 0.4988 0.4113 0.7629
vn -0.3810 -0.1439 0.9133
vn 0.2088 -0.8540 0.4765
vn 0.1038 -0.9812 -0.1630
vn 0.1774 -0.9371 0.3006
vn 0.3168 0.0058 0.9485
vn 0.7479 0.4225 -0.5120
vn 0.3611 0.8877 -0.2856
vn 0.8871 -0.1324 0.4422
vn 0.3147 -0.7751 0.5479
vn 0.2649 0.9379 -0.2242
vn 0.1636 0.9099 -0.3811
vn 0.1095 0.8691 -0.4823
vn 0.8406 0.3708 0.3949
vn 0.4908 -0.4206 0.7630
vn 0.8443 0.1715 -0.5076
vn 0.1801 -0.3049 -0.9352
vn 0.9803 0.1948 0.0328
vn 0.9675 0.0806 -0.2396
vn 0.1506 0.9790 -0.1376
vn 0.4129 -0.8738 0.2569
vn 0.9464 0.2619 0.1891
vn 0.2256 0.9233 -0.3109
vn 0.2103 0.9493 -0.2337
vn 0.9780 0.2013 -0.0547
vn 0.1959 0.8323 -0.5185
vn 0.0598 0.9700 0.2358
vn 0.1766 -0.9756 0.1305
vn 0.9720 -0.2002 0.1229
vn 0.2707 0.9597 -0.0749
vn 0.0768 0.9894 0.1229
vn 0.0097 0.8861 0.4634
vn 0.3227 -0.8596 0.3961
vn 0.8437 -0.1018 0.5271
vn 0.2025 -0.9603 0.1920
vn 0.0428 -0.3883 0.9205
vn 0.1657 -0.9836 0.0709
vn 0.9379 -0.2997 -0.1747
vn 0.0705 -0.7129 0.6977
vn 0.8704 -0.3959 0.2927
vn 0.3243 -0.9087 0.2628
vn 0.2420 -0.7926 0.5597
vn 0.3543 0.8884 -0.2919
vn 0.3436 0.9289 -0.1384
vn 0.7675 0.3066 0.5629
vn 0.4356 0.8457 0.3083
vn 0.1544 -0.9790 0.1331
vn 0.1845 -0.7355 0.6520
vn 0.8909 0.1529 0.4278
vn 0.3123 0.9444 0.1033
vn 0.3941 0.7710 0.5002
vn 0.1114 -0.9806 0.1613
vn 0.4295 0.7919 0.4341
vn 0.1477 -0.9871 0.0623
vn 0.5478 0.3063 0.7785
vn 0.1369 -0.9847 0.1083
vn 0.3912 -0.7315 0.5585
vn -0.2947 -0.0329 0.9550
vn 0.0072 0.9046 0.4261
vn 0.1678 -0.9837 0.0646
vn 0.9690 -0.2323 0.0835
vn 0.0403 -0.1959 0.9798
vn 0.0547 0.9340 0.3531
vn 0.6421 0.2637 0.7199
vn 0.1329 -0.9871 0.0897
vn -0.1187 0.4092 0.9047
vn 0.4501 0.8560 0.2544
vn 0.3466 0.3073 0.8862
vn 0.0391 -0.9276 0.3715
vn 0.3269 -0.7991 0.5045
vn 0.7863 -0.1450 0.6006
vn 0.4183 0.7518 0.5096
vn 0.1371 -0.9877 0.0758
vn 0.8559 0.2478 0.4540
vn 0.0001 0.8469 0.5318
vn 0.2124 -0.9719 0.1018
vn 0.8812 -0.2597 0.3951
vn 0.8548 -0.4304 -0.2900
vn 0.9697 0.1937 -0.1488
vn 0.9603 0.0946 -0.2624
vn 0.9349 0.3520 -0.0448
vn 0.9563 -0.1152 -0.2687
vn 0.9803 0.1875 0.0622
vn 0.7602 0.5213 0.3878
vn 0.8698 0.4765 0.1280
vn -0.5615 0.2184 0.7982
vn 0.1348 0.5825 0.8016
vn -0.3031 -0.4219 -0.8545
vn 0.9812 -0.1113 0.1574
vn -0.9872 -0.0080 0.1596
vn -0.9435 0.0398 0.3290
vn 0.9280 -0.0680 -0.3663
vn 0.5385 -0.2066 0.8169
vn 0.9694 -0.1668 0.1798
vn -0.7477 0.2429 0.6180
vn -0.1010 -0.4674 -0.8783
vn -0.9848 -0.0944 0.1461
vn 0.9795 -0.1701 0.1077
vn -0.9791 0.1546 0.1319
vn -0.9481 0.0964 0.3031
vn 0.9171 -0.0842 -0.3897
vn 0.4691 -0.3376 0.8161
vn 0.6659 0.0725 -0.7425
vn -0.6546 0.0390 0.7550
vn -0.0567 -0.1065 0.9927
vn -0.7343 -0.3179 -0.5997
vn 0.6997 -0.2013 -0.6854
vn -0.2589 0.0290 -0.9655
vn 0.9677 -0.0035 -0.2520
vn -0.9788 0.1549 0.1340
vn -0.9316 0.1576 0.3275
vn 0.9235 -0.0518 -0.3801
vn 0.9943 0.0023 -0.1062
vn -0.2386 0.1875 -0.9528
vn -0.6366 -0.1187 0.7620
vn 0.0434 -0.3324 0.9421
vn -0.6985 0.2281 -0.6783
vn -0.1207 -0.9927 -0.0018
vn -0.1015 -0.9946 0.0228
vn -0.1073 -0.9935 0.0372
vn -0.1176 -0.9930 -0.0064
vn -0.1173 -0.9928 0.0222
vn -0.1037 -0.9939 0.0368
vn -0.7590 0.2145 0.6147
vn -0.8743 0.2261 0.4295
vn -0.6810 0.0860 -0.7272
vn 0.6653 -0.0511 -0.7448
vn 0.6766 -0.0248 -0.7360
vn -0.6864 0.0862 -0.7221
vn 0.1062 0.1619 0.9811
vn -0.6579 0.2122 0.7226
vn 0.5177 0.1433 0.8435
vn 0.9217 -0.0027 -0.3880
vn -0.9295 0.1960 0.3123
vn -0.9712 0.1961 0.1352
vn 0.9875 0.0537 -0.1484
vn -0.2607 0.0143 -0.9653
vn 0.5032 0.0125 0.8641
vn 0.1014 0.0586 0.9931
vn 0.3679 0.7950 0.4823
vn -0.1208 -0.9925 -0.0207
vn 0.1507 0.8253 0.5442
vn -0.1249 -0.9919 -0.0209
vn 0.9884 0.1357 0.0674
vn 0.9577 -0.1322 -0.2554
vn 0.9895 -0.0954 0.1088
vn 0.9440 0.3063 -0.1224
vn 0.6165 -0.4039 0.6759
vn 0.5442 0.7803 -0.3082
vn 0.9885 -0.0936 0.1188
vn 0.3393 0.8462 -0.4108
vn -0.9660 -0.1597 0.2035
vn -0.3680 0.0416 -0.9289
vn -0.2998 -0.4140 0.8595
vn 0.9911 -0.0677 0.1146
vn 0.1025 0.3752 -0.9213
vn -0.4768 0.3015 -0.8257
vn -0.9530 -0.2028 -0.2249
vn -0.1200 -0.6368 0.7616
vn -0.3041 0.4994 -0.8112
vn -0.9325 -0.2065 0.2962
vn 0.9984 0.0496 -0.0267
vn -0.9862 0.0667 -0.1513
vn 0.5096 -0.3575 0.7826
vn 0.1449 0.0750 -0.9866
vn 0.9668 0.0319 -0.2537
vn -0.9835 -0.0734 -0.1653
vn -0.0055 -0.8563 -0.5164
vn 0.0459 -0.8445 -0.5336
vn 0.0307 -0.8102 -0.5854
vn -0.0030 -0.8194 -0.5732
vn -0.9960 -0.0679 0.0573
vn 0.9524 -0.1102 0.2843
vn 0.1117 0.5303 -0.8404
vn 0.9526 0.1801 -0.2451
vn 0.9501 0.2645 -0.1652
vn 0.1195 0.5624 -0.8182
vn 0.3826 -0.3850 0.8399
vn -0.9497 0.1022 0.2961
vn -0.9813 0.1866 -0.0473
vn 0.9659 0.1743 0.1913
vn -0.2146 -0.4477 0.8681
vn -0.3191 0.5520 -0.7704
vn -0.2307 -0.4099 0.8825
vn 0.4107 -0.3485 0.8425
vn -0.1702 0.2947 0.9403
vn 0.0568 -0.8612 -0.5050
vn 0.2585 0.2904 0.9213
vn -0.0058 -0.8684 -0.4958
vn -0.3361 0.2258 -0.9144
vn -0.2843 -0.7392 0.6106
vn 0.9889 -0.1286 0.0748
vn -0.9838 -0.0147 -0.1785
vn -0.9638 -0.2162 0.1562
vn 0.4913 -0.6759 0.5494
vn 0.1355 0.2571 -0.9568
vn 0.9601 0.0711 -0.2706
vn 0.3760 0.1909 -0.9068
vn 0.3073 -0.7588 -0.5743
vn 0.3541 0.4032 -0.8438
vn 0.2446 0.6305 -0.7367
vn 0.2946 -0.2424 -0.9244
vn 0.4816 0.1202 -0.8681
vn 0.9572 0.2747 -0.0911
vn 0.9327 0.3559 0.0586
vn 0.9960 0.0555 -0.0697
vn 0.9007 0.4102 0.1433
vn -0.5820 0.8116 0.0514
vn 0.7663 0.5617 -0.3121
vn 0.8110 -0.5796 0.0795
vn 0.5213 0.8442 -0.1246
vn -0.2302 0.9670 0.1094
vn 0.9110 0.2595 -0.3206
vn 0.9409 -0.3009 -0.1555
vn 0.2463 -0.0379 -0.9685
vn -0.0552 0.1248 0.9906
vn 0.0409 0.1042 0.9937
vn -0.0199 0.1182 0.9928
vn 0.0170 0.0810 0.9966
vn 0.0101 0.1316 0.9912
vn 0.0483 0.0694 0.9964
vn -0.0359 0.0728 0.9967
vn 0.0558 0.1314 0.9898
vn 0.0079 0.1177 0.9930
vn 0.0162 0.1646 0.9862
vn 0.1739 -0.2904 0.9410
vn -0.0217 0.1441 0.9893
vn 0.3035 -0.2189 0.9273
vn -0.4006 0.4608 0.7920
vn -0.4036 0.2530 0.8792
vn -0.1335 -0.2028 0.9701
vn 0.7321 0.4154 0.5399
vn -0.1993 -0.1485 0.9686
vn -0.5030 0.3981 0.7671
vn 0.0370 -0.2743 0.9609
vn 0.3337 0.9098 0.2467
vn 0.5388 -0.0749 0.8391
vn 0.5330 -0.1423 0.8341
vn -0.0132 0.4168 0.9089
vn 0.0250 -0.4499 0.8927
vn -0.0211 0.9995 0.0226
vn 0.7627 0.2332 0.6032
vn 0.8574 -0.4744 0.1996
vn -0.4145 0.7547 -0.5086
vn -0.9551 -0.2896 -0.0625
vn -0.9889 0.0936 -0.1158
vn -0.9844 0.0934 0.1491
vn -0.9495 -0.2374 0.2051
vn -0.9446 -0.2105 0.2519
vn -0.2123 -0.8580 0.4677
vn -0.2047 -0.9648 -0.1651
vn -0.1434 -0.9528 0.2677
vn -0.1407 0.9442 -0.2978
vn -0.2559 0.9579 -0.1300
vn -0.3948 0.7601 -0.5161
vn 0.0206 -0.0182 -0.9996
vn -0.0687 -0.9075 -0.4144
vn -0.7220 0.2340 0.6512
vn -0.1075 0.2280 -0.9677
vn 0.2315 -0.1151 -0.9660
vn -0.0695 0.4327 -0.8988
vn -0.1989 -0.8568 -0.4758
vn -0.8906 0.4442 -0.0975
vn -0.9088 -0.3037 -0.2860
vn -0.2647 0.9066 -0.3287
vn -0.9931 0.0644 0.0981
vn -0.3957 -0.8487 -0.3509
vn -0.2337 0.9312 -0.2799
vn -0.1518 0.8592 -0.4886
vn 0.8407 -0.1529 -0.5194
vn -0.7208 -0.1532 -0.6760
vn -0.2848 0.9381 -0.1973
vn 0.7196 0.3105 0.6211
vn -0.7821 -0.3341 -0.5260
vn -0.0633 0.8561 -0.5130
vn -0.5620 0.3078 0.7677
vn 0.4615 -0.0404 0.8862
vn -0.0492 -0.8740 0.4834
vn -0.0118 -0.9852 -0.1709
vn -0.0857 -0.9501 0.2999
vn -0.2599 -0.0396 0.9648
vn -0.8386 0.2782 -0.4684
vn -0.3809 0.8729 -0.3049
vn -0.9086 -0.2451 0.3383
vn -0.2257 -0.7990 0.5574
vn -0.3922 0.9185 -0.0497
vn -0.2939 0.8721 -0.3913
vn -0.1098 0.8684 -0.4836
vn -0.8794 0.2393 0.4116
vn -0.5868 -0.4503 0.6730
vn -0.9432 0.0434 -0.3293
vn -0.0448 -0.3140 -0.9484
vn -0.9934 0.1147 0.0076
vn -0.9173 0.0288 -0.3970
vn -0.2613 0.9541 -0.1462
vn -0.2557 -0.9314 0.2589
vn -0.9835 0.1221 0.1333
vn -0.4321 0.8440 -0.3178
vn -0.3690 0.9035 -0.2178
vn -0.9821 0.1870 -0.0232
vn -0.3589 0.7743 -0.5211
vn -0.0920 0.9707 0.2221
vn -0.1711 -0.9751 0.1414
vn -0.9735 -0.2221 0.0546
vn -0.4201 0.9055 -0.0604
vn -0.1521 0.9813 0.1177
vn 0.0181 0.8870 0.4614
vn -0.1659 -0.9016 0.3996
vn -0.8333 -0.0808 0.5469
vn -0.2219 -0.9550 0.1970
vn 0.0629 -0.3764 0.9243
vn -0.1862 -0.9793 0.0793
vn -0.9411 -0.2885 -0.1763
vn 0.0806 -0.7107 0.6989
vn -0.8728 -0.3741 0.3135
vn -0.3405 -0.9004 0.2708
vn -0.1626 -0.8219 0.5459
vn -0.4919 0.8102 -0.3188
vn -0.4494 0.8774 -0.1678
vn -0.7486 0.3230 0.5791
vn -0.4597 0.8378 0.2945
vn -0.1591 -0.9789 0.1279
vn -0.1873 -0.7308 0.6564
vn -0.8763 0.1751 0.4488
vn -0.3787 0.9213 0.0878
vn -0.3680 0.7798 0.5064
vn -0.1320 -0.9775 0.1642
vn -0.3991 0.8022 0.4440
vn -0.1709 -0.9831 0.0661
vn -0.5213 0.3197 0.7912
vn -0.1588 -0.9810 0.1118
vn -0.3960 -0.7216 0.5678
vn 0.3140 -0.0320 0.9489
vn 0.0256 0.9044 0.4259
vn -0.1906 -0.9792 0.0692
vn -0.9721 -0.2099 0.1049
vn -0.0218 -0.1951 0.9805
vn -0.0435 0.9360 0.3493
vn -0.6180 0.2794 0.7349
vn -0.1554 -0.9835 0.0932
vn 0.1504 0.4059 0.9015
vn -0.4443 0.8593 0.2532
vn -0.3178 0.3156 0.8941
vn -0.0534 -0.9264 0.3726
vn -0.3346 -0.7908 0.5124
vn -0.7752 -0.1254 0.6192
vn -0.3871 0.7619 0.5192
vn -0.1599 -0.9839 0.0793
vn -0.8383 0.2690 0.4742
vn 0.0338 0.8464 0.5314
vn -0.2342 -0.9663 0.1072
vn -0.8777 -0.2377 0.4160
vn -0.7920 -0.5598 -0.2435
vn -0.9949 0.0392 -0.0932
vn -0.9750 -0.0625 -0.2131
vn -0.9796 0.2007 0.0085
vn -0.9402 -0.2644 -0.2150
vn -0.9925 0.0324 0.1180
vn -0.8048 0.4023 0.4363
vn -0.9232 0.3385 0.1821
vn 0.5660 0.3077 0.7648
vn -0.1788 0.5578 0.8105
vn 0.3167 -0.3732 -0.8720
vn -0.9414 -0.2625 0.2119
vn 0.9837 0.1470 0.1037
vn 0.9427 0.1881 0.2756
vn -0.9251 -0.2137 -0.3138
vn -0.4529 -0.2846 0.8449
vn -0.9198 -0.3154 0.2333
vn 0.7294 0.3636 0.5794
vn 0.1173 -0.4530 -0.8838
vn 0.9939 0.0605 0.0926
vn -0.9333 -0.3205 0.1619
vn 0.9488 0.3062 0.0773
vn 0.9369 0.2446 0.2497
vn -0.9131 -0.2281 -0.3379
vn -0.3640 -0.4031 0.8396
vn -0.7097 -0.0357 -0.7036
vn 0.6819 0.1441 0.7171
vn 0.1284 -0.0920 0.9874
vn 0.7401 -0.2020 -0.6415
vn -0.6971 -0.3111 -0.6459
vn 0.1965 0.0648 -0.9784
vn -0.9679 -0.1556 -0.1972
vn 0.9486 0.3064 0.0794
vn 0.9125 0.3026 0.2753
vn -0.9240 -0.1970 -0.3278
vn -0.9869 -0.1535 -0.0501
vn 0.1524 0.2183 -0.9639
vn 0.6892 -0.0145 0.7245
vn 0.0621 -0.3309 0.9416
vn 0.6150 0.3314 -0.7155
vn 0.2739 -0.9617 -0.0130
vn 0.2567 -0.9664 0.0127
vn 0.2630 -0.9644 0.0267
vn 0.2706 -0.9625 -0.0174
vn 0.2720 -0.9622 0.0112
vn 0.2595 -0.9654 0.0265
vn 0.7496 0.3331 0.5720
vn 0.8511 0.3617 0.3806
vn 0.6172 0.1881 -0.7640
vn -0.6900 -0.1577 -0.7065
vn -0.7047 -0.1334 -0.6969
vn 0.6228 0.1892 -0.7592
vn -0.0749 0.1476 0.9862
vn 0.6563 0.3155 0.6854
vn -0.4855 0.0644 0.8719
vn -0.9303 -0.1483 -0.3355
vn 0.9036 0.3401 0.2604
vn 0.9347 0.3460 0.0813
vn -0.9905 -0.1018 -0.0924
vn 0.2006 0.0505 -0.9784
vn -0.4495 -0.0624 0.8911
vn -0.0533 0.0464 0.9975
vn -0.4598 0.7299 0.5057
vn 0.2730 -0.9615 -0.0318
vn -0.2469 0.7940 0.5555
vn 0.2769 -0.9603 -0.0322
vn -0.9923 0.0789 -0.0950
vn -0.8941 -0.1845 -0.4081
vn -0.9874 -0.1488 -0.0541
vn -0.9344 0.2427 -0.2607
vn -0.7178 -0.4458 0.5348
vn -0.5342 0.7482 -0.3934
vn -0.9879 -0.1479 -0.0462
vn -0.3308 0.8278 -0.4531
vn 0.9261 -0.1077 0.3616
vn 0.5140 0.0659 -0.8552
vn 0.1753 -0.4009 0.8992
vn -0.9912 -0.1222 -0.0509
vn 0.0314 0.3733 -0.9272
vn 0.5965 0.3315 -0.7310
vn 0.9879 -0.1407 -0.0657
vn 0.0266 -0.6328 0.7739
vn 0.4067 0.5189 -0.7519
vn 0.8804 -0.1567 0.4476
vn -0.9814 -0.0048 -0.1921
vn 0.9925 0.1210 0.0140
vn -0.6121 -0.3883 0.6889
vn 0.0168 0.0715 -0.9973
vn -0.9116 -0.0197 -0.4106
vn 0.9998 -0.0189 0.0004
vn 0.1377 -0.8524 -0.5045
vn 0.0893 -0.8433 -0.5299
vn 0.1110 -0.8080 -0.5787
vn 0.1426 -0.8154 -0.5611
vn 0.9750 -0.0137 0.2220
vn -0.9789 -0.1632 0.1230
vn 0.0004 0.5273 -0.8497
vn -0.9072 0.1290 -0.4005
vn -0.9226 0.2130 -0.3216
vn -0.0127 0.5588 -0.8292
vn -0.4949 -0.4091 0.7666
vn 0.8804 0.1525 0.4490
vn 0.9639 0.2400 0.1152
vn -0.9923 0.1205 0.0277
vn 0.0918 -0.4392 0.8937
vn 0.4118 0.5721 -0.7093
vn 0.1032 -0.4008 0.9104
vn -0.5250 -0.3742 0.7644
vn -0.0044 0.2993 0.9542
vn 0.0748 -0.8607 -0.5035
vn -0.4231 0.2717 0.8644
vn 0.1353 -0.8645 -0.4840
vn 0.4702 0.2480 -0.8470
vn 0.2190 -0.7254 0.6526
vn -0.9791 -0.1826 -0.0896
vn 0.9991 0.0398 -0.0129
vn 0.9349 -0.1640 0.3148
vn -0.5380 -0.7041 0.4634
vn 0.0111 0.2537 -0.9672
vn -0.9043 0.0199 -0.4263
vn -0.3782 0.1563 -0.9124
vn -0.3071 -0.7825 -0.5417
vn -0.3474 0.4025 -0.8469
vn -0.2433 0.6348 -0.7334
vn -0.2538 -0.2907 -0.9226
vn -0.5337 0.0580 -0.8437
vn -0.9570 0.2868 -0.0440
vn -0.9314 0.3539 0.0849
vn -0.9964 0.0686 -0.0496
vn -0.8918 0.4236 0.1586
vn 0.5858 0.8103 0.0139
vn -0.7677 0.5674 -0.2979
vn -0.8095 -0.5781 0.1022
vn -0.5146 0.8492 -0.1180
vn 0.2460 0.9647 0.0939
vn -0.9155 0.2648 -0.3029
vn -0.9448 -0.2979 -0.1365
vn -0.2699 -0.0397 -0.9621
vn 0.0693 0.1305 0.9890
vn -0.0193 0.1056 0.9942
vn 0.0413 0.1183 0.9921
vn 0.0036 0.0834 0.9965
vn 0.0101 0.1346 0.9908
vn -0.0274 0.0712 0.9971
vn 0.0511 0.0712 0.9962
vn -0.0368 0.1381 0.9897
vn 0.0133 0.1233 0.9923
vn -0.0015 0.1553 0.9879
vn -0.1578 -0.2895 0.9441
vn 0.0412 0.1517 0.9876
vn -0.2877 -0.2173 0.9327
vn 0.4182 0.4680 0.7785
vn 0.4218 0.2563 0.8697
vn 0.1514 -0.2031 0.9674
vn -0.7220 0.4278 0.5438
vn 0.2179 -0.1485 0.9646
vn 0.5182 0.4081 0.7516
vn -0.0210 -0.2742 0.9614
vn -0.3049 0.9178 0.2543
vn -0.5203 -0.0617 0.8517
vn -0.5164 -0.1291 0.8466
vn 0.0452 0.4161 0.9082
vn -0.0150 -0.4494 0.8932
vn 0.0467 0.9987 0.0218
vn -0.7421 0.2520 0.6211
vn 0.8946 -0.3712 0.2490
vn 0.9984 0.0118 0.0545
vn 0.7249 -0.6601 0.1969
vn 0.0929 -0.8135 -0.5740
vn 0.0243 -0.5824 -0.8125
vn 0.9415 0.3272 0.0811
vn 0.6973 0.0692 0.7134
vn 0.3481 -0.4788 0.8060
vn -0.6200 -0.3905 -0.6806
vn -0.4331 -0.1279 -0.8922
vn 0.8021 0.3285 0.4988
vn 0.6067 0.0588 0.7928
vn -0.3993 -0.7796 0.4825
vn -0.6403 -0.2439 -0.7283
vn -0.3682 0.0444 -0.9287
vn 0.4621 0.4954 0.7355
vn 0.2575 0.2611 0.9303
vn -0.9984 -0.0118 -0.0545
vn -0.7669 0.0743 -0.6375
vn -0.4441 0.7476 -0.4938
vn -0.7249 0.6601 -0.1969
vn -0.6824 0.4989 -0.5343
vn -0.6998 0.2134 -0.6817
vn -0.8946 0.3712 -0.2490
vn -0.8597 0.1181 -0.4969
vn -0.8856 -0.0164 -0.4641
vn -0.7100 0.5159 0.4793
vn -0.7703 0.2696 0.5778
vn -0.1599 0.1918 0.9683
vn -0.0243 0.5824 0.8125
vn 0.2688 0.3921 0.8798
vn 0.4318 0.3653 0.8247
vn -0.0929 0.8135 0.5740
vn 0.2702 0.7301 0.6276
vn 0.2351 0.9125 0.3348
vn -0.3481 0.4788 -0.8060
vn -0.4707 0.1697 -0.8658
vn -0.5932 0.0960 -0.7993
vn -0.6973 -0.0692 -0.7134
vn -0.7079 -0.1608 -0.6878
vn -0.7860 -0.1680 -0.5949
vn -0.9415 -0.3272 -0.0811
vn -0.6261 -0.4857 0.6100
vn -0.0621 -0.1137 0.9916
vn 0.4331 0.1279 0.8922
vn 0.5375 0.1415 0.8313
vn 0.5469 0.2329 0.8042
vn 0.6200 0.3905 0.6806
vn 0.6959 0.4529 0.5573
vn 0.6060 0.7104 0.3578
vn -0.6067 -0.0588 -0.7928
vn -0.5375 -0.1415 -0.8313
vn -0.5469 -0.2329 -0.8042
vn -0.8021 -0.3285 -0.4988
vn -0.6959 -0.4529 -0.5573
vn -0.6060 -0.7104 -0.3578
vn 0.3682 -0.0444 0.9287
vn 0.4707 -0.1697 0.8658
vn 0.5932 -0.0960 0.7993
vn 0.6403 0.2439 0.7283
vn 0.7079 0.1609 0.6878
vn 0.7860 0.1680 0.5949
vn 0.3993 0.7796 -0.4825
vn 0.6261 0.4857 -0.6100
vn 0.0621 0.1137 -0.9916
vn -0.2575 -0.2611 -0.9303
vn -0.2688 -0.3921 -0.8798
vn -0.4318 -0.3653 -0.8247
vn -0.4621 -0.4954 -0.7355
vn -0.2702 -0.7301 -0.6276
vn -0.2351 -0.9125 -0.3348
vn 0.4441 -0.7476 0.4938
vn 0.6824 -0.4989 0.5343
vn 0.6998 -0.2133 0.6817
vn 0.1599 -0.1918 -0.9683
vn 0.7703 -0.2696 -0.5778
vn 0.7100 -0.5159 -0.4794
vn 0.7669 -0.0743 0.6375
vn 0.8597 -0.1181 0.4969
vn 0.8856 0.0165 0.4641
vn -0.8974 -0.3487 0.2703
vn -0.9963 0.0367 0.0783
vn -0.7363 -0.6418 0.2143
vn -0.1269 -0.8108 -0.5714
vn -0.0582 -0.5814 -0.8115
vn -0.9308 0.3507 0.1034
vn -0.6782 0.0864 0.7298
vn -0.3406 -0.4702 0.8141
vn 0.5936 -0.4057 -0.6950
vn 0.4084 -0.1385 -0.9022
vn -0.7815 0.3483 0.5176
vn -0.5859 0.0738 0.8070
vn 0.3910 -0.7895 0.4731
vn 0.6165 -0.2596 -0.7433
vn 0.3469 0.0354 -0.9372
vn -0.4319 0.5066 0.7462
vn -0.2287 0.2672 0.9361
vn 0.9963 -0.0367 -0.0783
vn 0.7531 0.0552 -0.6556
vn 0.4508 0.7364 -0.5045
vn 0.7363 0.6418 -0.2143
vn 0.6817 0.4818 -0.5505
vn 0.6885 0.1960 -0.6983
vn 0.8974 0.3487 -0.2703
vn 0.8504 0.0967 -0.5172
vn 0.8736 -0.0385 -0.4851
vn 0.7339 0.4979 0.4622
vn 0.7904 0.2501 0.5593
vn 0.1877 0.1874 0.9642
vn 0.0583 0.5814 0.8115
vn -0.2379 0.3984 0.8858
vn -0.4028 0.3757 0.8346
vn 0.1269 0.8108 0.5714
vn -0.2368 0.7365 0.6337
vn -0.2042 0.9180 0.3400
vn 0.3407 0.4702 -0.8142
vn 0.4541 0.1581 -0.8768
vn 0.5762 0.0813 -0.8132
vn 0.6782 -0.0864 -0.7298
vn 0.6871 -0.1783 -0.7044
vn 0.7672 -0.1875 -0.6134
vn 0.9308 -0.3507 -0.1034
vn 0.6281 -0.5014 0.5950
vn 0.0828 -0.1155 0.9898
vn -0.4084 0.1385 0.9022
vn -0.5138 0.1546 0.8439
vn -0.5216 0.2463 0.8169
vn -0.5936 0.4057 0.6950
vn -0.6709 0.4700 0.5736
vn -0.5793 0.7253 0.3719
vn 0.5860 -0.0738 -0.8070
vn 0.5138 -0.1546 -0.8439
vn 0.5215 -0.2462 -0.8169
vn 0.7815 -0.3483 -0.5176
vn 0.6709 -0.4700 -0.5736
vn 0.5793 -0.7253 -0.3719
vn -0.3469 -0.0354 0.9372
vn -0.4541 -0.1581 0.8768
vn -0.5762 -0.0813 0.8132
vn -0.6165 0.2596 0.7433
vn -0.6871 0.1783 0.7044
vn -0.7672 0.1875 0.6134
vn -0.3910 0.7895 -0.4731
vn -0.6281 0.5014 -0.5950
vn -0.0829 0.1156 -0.9898
vn 0.2287 -0.2672 -0.9361
vn 0.2379 -0.3984 -0.8858
vn 0.4028 -0.3757 -0.8346
vn 0.4319 -0.5066 -0.7462
vn 0.2368 -0.7365 -0.6336
vn 0.2042 -0.9180 -0.3400
vn -0.4508 -0.7364 0.5045
vn -0.6817 -0.4818 0.5506
vn -0.6885 -0.1960 0.6983
vn -0.1877 -0.1874 -0.9642
vn -0.7904 -0.2501 -0.5593
vn -0.7339 -0.4978 -0.4621
vn -0.7531 -0.0552 0.6556
vn -0.8504 -0.0967 0.5172
vn -0.8736 0.0385 0.4851
vt 0.833374 0.494548
vt 0.893919 0.512741
vt 0.908415 0.468160
vt 0.848637 0.467455
vt 0.567859 0.867914
vt 0.639317 0.828812
vt 0.620915 0.894044
vt 0.556155 0.927906
vt 0.812683 0.509803
vt 0.774909 0.642712
vt 0.751394 0.643294
vt 0.751725 0.493743
vt 0.828812 0.793372
vt 0.751727 0.811870
vt 0.672932 0.807420
vt 0.672336 0.642732
vt 0.672998 0.503429
vt 0.598676 0.643182
vt 0.594201 0.530171
vt 0.560191 0.672195
vt 0.619753 0.672998
vt 0.599703 0.594201
vt 0.569702 0.558226
vt 0.580250 0.833374
vt 0.635423 0.812683
vt 0.637090 0.751725
vt 0.569078 0.759035
vt 0.500000 0.859251
vt 0.500000 0.750726
vt 0.569078 0.758996
vt 0.500000 0.657595
vt 0.560191 0.671923
vt 0.604420 0.951058
vt 0.545714 0.976119
vt 0.604420 0.548422
vt 0.626365 0.643481
vt 0.688416 0.643970
vt 0.666902 0.547256
vt 0.500000 0.917421
vt 0.563590 0.893919
vt 0.639317 0.793372
vt 0.659328 0.642712
vt 0.676970 0.643370
vt 0.671449 0.761101
vt 0.555994 0.632181
vt 0.545714 0.747180
vt 0.604420 0.735145
vt 0.572975 0.538591
vt 0.666902 0.715601
vt 0.500000 0.969030
vt 0.572975 0.947229
vt 0.501290 0.830086
vt 0.457158 0.830118
vt 0.460328 0.806630
vt 0.500288 0.803578
vt 0.499838 0.512886
vt 0.460007 0.507514
vt 0.481582 0.413128
vt 0.510774 0.417065
vt 0.500000 0.559830
vt 0.556447 0.575135
vt 0.579931 0.796381
vt 0.599703 0.530171
vt 0.637090 0.643182
vt 0.659115 0.643738
vt 0.643940 0.535244
vt 0.564556 0.492909
vt 0.500000 0.477524
vt 0.500000 0.432743
vt 0.566016 0.447361
vt 0.569702 0.518348
vt 0.616981 0.429733
vt 0.594994 0.421068
vt 0.612448 0.796381
vt 0.637526 0.771615
vt 0.500000 0.371229
vt 0.561082 0.382998
vt 0.450625 0.491920
vt 0.495971 0.498202
vt 0.507939 0.406303
vt 0.474705 0.401699
vt 0.591615 0.535244
vt 0.575831 0.433451
vt 0.407144 0.499901
vt 0.406490 0.640437
vt 0.358675 0.605643
vt 0.363238 0.556600
vt 0.578790 0.420824
vt 0.621227 0.407144
vt 0.601979 0.363238
vt 0.551080 0.357545
vt 0.500000 0.657756
vt 0.500000 0.571782
vt 0.667216 0.508652
vt 0.621227 0.499901
vt 0.632756 0.407548
vt 0.666461 0.413961
vt 0.556577 0.771615
vt 0.637090 0.751727
vt 0.260484 0.580516
vt 0.278839 0.520364
vt 0.582070 0.278839
vt 0.540875 0.268345
vt 0.619753 0.672932
vt 0.500000 0.307117
vt 0.551080 0.314473
vt 0.500000 0.983839
vt 0.393435 0.816867
vt 0.325561 0.763148
vt 0.671449 0.517077
vt 0.635423 0.509803
vt 0.642381 0.470278
vt 0.671266 0.470798
vt 0.988807 0.740196
vt 1.002924 0.661469
vt 1.015365 0.669173
vt 1.001496 0.721513
vt 0.500000 0.531683
vt 0.500000 0.631036
vt 0.249130 0.712570
vt 0.191059 0.679456
vt 0.198981 0.567653
vt 0.945839 0.547256
vt 0.886123 0.529161
vt 0.904522 0.470747
vt 0.963512 0.471464
vt 0.500000 0.238897
vt 0.540875 0.239236
vt 0.564556 0.495971
vt 0.612448 0.579931
vt 0.628268 0.501290
vt 0.631115 0.457158
vt 0.168698 0.648799
vt 0.177283 0.553376
vt 0.539817 0.181283
vt 0.500000 0.184290
vt 0.500000 0.144817
vt 0.539817 0.140934
vt 0.580006 0.205473
vt 0.539817 0.196322
vt 0.205473 0.476864
vt 0.621491 0.393435
vt 0.538703 0.608225
vt 0.500000 0.615960
vt 0.500000 0.567098
vt 0.526605 0.560962
vt 0.566016 0.450625
vt 0.149293 0.452102
vt 0.133162 0.541160
vt 0.103583 0.505809
vt 0.123733 0.441345
vt 0.539531 0.141037
vt 0.579447 0.149293
vt 0.562090 0.123733
vt 0.530633 0.116366
vt 0.500000 0.385014
vt 0.500000 0.353218
vt 0.586057 0.174337
vt 0.542919 0.165879
vt 0.174337 0.464471
vt 0.086614 0.427976
vt 0.065909 0.448336
vt 0.053210 0.428901
vt 0.071388 0.423606
vt 0.515797 0.085531
vt 0.531484 0.086614
vt 0.523242 0.071388
vt 0.510720 0.071544
vt 0.500000 0.266808
vt 0.601979 0.325561
vt 0.582070 0.249130
vt 0.108290 0.599988
vt 0.073849 0.556649
vt 0.580006 0.679456
vt 0.539817 0.690304
vt 0.539817 0.657159
vt 0.579599 0.648799
vt 0.500000 0.199929
vt 0.513331 0.045311
vt 0.500000 0.046647
vt 0.500000 0.069896
vt 0.051602 0.475706
vt 0.038205 0.462176
vt 0.038356 0.442272
vt 0.580006 0.191059
vt 0.577833 0.599988
vt 0.554232 0.556649
vt 0.500000 0.147087
vt 0.500000 0.124516
vt 0.530339 0.475706
vt 0.515210 0.477146
vt 0.513246 0.460736
vt 0.522445 0.462176
vt 0.500000 0.170521
vt 0.515546 0.457928
vt 0.507613 0.457080
vt 0.506877 0.445401
vt 0.514439 0.446199
vt 0.500000 0.089031
vt 0.528336 0.053210
vt 0.620841 0.601238
vt 0.618568 0.607555
vt 0.613078 0.604170
vt 0.614718 0.599612
vt 0.500000 0.479371
vt 0.500000 0.460095
vt 0.513331 0.424258
vt 0.512541 0.440917
vt 0.500000 0.440864
vt 0.500000 0.422187
vt 0.500000 0.664242
vt 0.576432 0.505809
vt 0.539481 0.507406
vt 0.547321 0.467354
vt 0.500000 0.513551
vt 0.519044 0.508271
vt 0.579599 0.168698
vt 0.538703 0.096221
vt 0.577833 0.108290
vt 0.520322 0.097153
vt 0.500000 0.106427
vt 0.541975 0.104341
vt 0.078394 0.467354
vt 0.104341 0.437145
vt 0.073220 0.507406
vt 0.590300 0.643738
vt 0.499630 0.641384
vt 0.459655 0.640419
vt 0.417546 0.774144
vt 0.414448 0.641253
vt 0.423095 0.508652
vt 0.621491 0.816867
vt 0.648114 0.640437
vt 0.669097 0.641253
vt 0.644267 0.774144
vt 0.578790 0.496630
vt 0.601625 0.405151
vt 0.649402 0.433451
vt 0.651726 0.367843
vt 0.620780 0.366797
vt 0.454529 0.413961
vt 0.467814 0.368189
vt 0.488225 0.366596
vt 0.561691 0.421068
vt 0.537425 0.365401
vt 0.507200 0.363509
vt 0.481273 0.364028
vt 0.510983 0.366114
vt 0.635806 0.367147
vt 0.669092 0.368189
vt 0.420824 0.496630
vt 0.452865 0.405151
vt 0.558226 0.518348
vt 0.484328 0.324872
vt 0.502799 0.322553
vt 0.547406 0.321655
vt 0.519920 0.320969
vt 0.496410 0.322232
vt 0.523434 0.321439
vt 0.639292 0.324944
vt 0.675657 0.324872
vt 0.550036 0.367843
vt 0.558926 0.322330
vt 0.465216 0.366023
vt 0.604868 0.366023
vt 0.599660 0.365401
vt 0.621651 0.293283
vt 0.658462 0.293469
vt 0.659368 0.261742
vt 0.621257 0.261665
vt 0.501495 0.293600
vt 0.482345 0.307625
vt 0.480362 0.262732
vt 0.500191 0.261781
vt 0.519246 0.292376
vt 0.547742 0.292993
vt 0.548078 0.261464
vt 0.518571 0.260916
vt 0.494871 0.293528
vt 0.493332 0.261956
vt 0.522889 0.292587
vt 0.522344 0.260869
vt 0.451756 0.288897
vt 0.449773 0.262732
vt 0.656778 0.322330
vt 0.622394 0.322035
vt 0.481902 0.324350
vt 0.605664 0.324350
vt 0.599057 0.321655
vt 0.595403 0.548078
vt 0.621257 0.561263
vt 0.645824 0.523009
vt 0.590945 0.518571
vt 0.639859 0.470735
vt 0.648324 0.498544
vt 0.685407 0.500191
vt 0.686261 0.480362
vt 0.592251 0.493332
vt 0.659368 0.560446
vt 0.683143 0.522344
vt 0.596433 0.477757
vt 0.479829 0.307317
vt 0.477757 0.262636
vt 0.447168 0.262636
vt 0.449241 0.288588
vt 0.596679 0.292993
vt 0.595403 0.261464
vt 0.559686 0.293469
vt 0.560446 0.261742
vt 0.603589 0.307317
vt 0.640355 0.307779
vt 0.679739 0.307625
vt 0.677932 0.288897
vt 0.639680 0.289050
vt 0.639859 0.262967
vt 0.679465 0.262732
vt 0.604354 0.288588
vt 0.603287 0.262636
vt 0.679739 0.482345
vt 0.640355 0.473048
vt 0.639680 0.442459
vt 0.677932 0.451756
vt 0.679465 0.449773
vt 0.639859 0.440146
vt 0.603589 0.479829
vt 0.604354 0.449241
vt 0.603287 0.447168
vt 0.841501 0.761101
vt 0.796910 0.643370
vt 0.906455 0.644155
vt 0.894416 0.742499
vt 0.957194 0.643970
vt 0.829265 0.517077
vt 0.940741 0.715601
vt 0.671449 0.841501
vt 0.669190 0.894416
vt 0.849398 0.470798
vt 0.666902 0.940741
vt 0.909364 0.402088
vt 0.855378 0.389954
vt 0.592313 0.470184
vt 0.617524 0.471308
vt 0.621192 0.417417
vt 0.598226 0.414426
vt 0.598146 0.467455
vt 0.603540 0.389954
vt 0.643835 0.389418
vt 0.855424 0.393127
vt 0.905341 0.403681
vt 0.667620 0.471464
vt 0.947229 0.538591
vt 0.963044 0.470184
vt 0.580250 0.494548
vt 0.595712 0.312254
vt 0.621272 0.312916
vt 0.622837 0.264476
vt 0.597277 0.263453
vt 0.852894 0.313492
vt 0.849695 0.260671
vt 0.818572 0.260902
vt 0.821566 0.286829
vt 0.893654 0.314609
vt 0.853541 0.316407
vt 0.850246 0.263617
vt 0.890422 0.263754
vt 0.896415 0.312211
vt 0.936226 0.312254
vt 0.933075 0.263453
vt 0.893263 0.261490
vt 0.670148 0.393127
vt 0.666826 0.415674
vt 0.958612 0.415674
vt 0.958434 0.414426
vt 0.649700 0.837975
vt 0.635627 0.887710
vt 0.686058 0.890422
vt 0.687133 0.850246
vt 0.592375 0.849695
vt 0.589648 0.893263
vt 0.597277 0.933075
vt 0.622837 0.940554
vt 0.673628 0.933416
vt 0.822213 0.289744
vt 0.819123 0.263848
vt 0.672063 0.313364
vt 0.673628 0.264581
vt 0.936602 0.313364
vt 0.933416 0.264581
vt 0.941647 0.364922
vt 0.899640 0.363406
vt 0.623001 0.364960
vt 0.665562 0.364922
vt 0.668659 0.362549
vt 0.644119 0.361871
vt 0.647700 0.316485
vt 0.685132 0.316407
vt 0.859879 0.359936
vt 0.902447 0.361457
vt 0.941330 0.363919
vt 0.860378 0.362549
vt 0.606538 0.359936
vt 0.590374 0.313492
vt 0.601582 0.363919
vt 0.646474 0.289822
vt 0.601626 0.286829
vt 0.603191 0.260902
vt 0.648039 0.263334
vt 0.675760 0.289744
vt 0.677325 0.263848
vt 0.647700 0.841274
vt 0.590374 0.852894
vt 0.601626 0.821566
vt 0.646474 0.809945
vt 0.648039 0.806852
vt 0.603191 0.818572
vt 0.685132 0.853541
vt 0.675760 0.822213
vt 0.677325 0.819123
vt 0.500000 0.668378
vt 0.500000 0.724779
vt 0.517225 0.721513
vt 0.520785 0.669173
vt 0.528698 1.002924
vt 0.500000 1.014901
vt 0.500000 1.025182
vt 0.520785 1.015365
vt 0.500000 0.744181
vt 0.519989 0.740196
vt 0.519989 0.988807
vt 0.500000 0.995348
vt 0.500000 0.660499
vt 0.528698 0.661469
vt 0.154177 0.616909
vt 0.166410 0.570048
vt 0.135838 0.608740
vt 0.149154 0.567675
vt 0.147623 0.572395
vt 0.137518 0.603560
vt 0.583783 0.154177
vt 0.583848 0.135838
vt 0.600568 0.131366
vt 0.597073 0.144428
vt 0.144166 0.612314
vt 0.141084 0.620214
vt 0.132632 0.614576
vt 0.134671 0.609983
vt 0.153028 0.593819
vt 0.141399 0.592146
vt 0.619182 0.132632
vt 0.614588 0.141084
vt 0.606252 0.140479
vt 0.610351 0.130579
vt 0.138199 0.601250
vt 0.148213 0.603179
vt 0.602487 0.570048
vt 0.583783 0.616909
vt 0.597073 0.624463
vt 0.606252 0.625520
vt 0.614588 0.620214
vt 0.620822 0.612314
vt 0.623703 0.603179
vt 0.620639 0.593819
vt 0.604695 0.577238
vt 0.601269 0.572395
vt 0.603531 0.567675
vt 0.609313 0.614171
vt 0.615687 0.610750
vt 0.619182 0.614576
vt 0.610351 0.619358
vt 0.602434 0.613212
vt 0.600568 0.617961
vt 0.626402 0.601250
vt 0.623276 0.609983
vt 0.618527 0.594500
vt 0.623272 0.592146
vt 0.590602 0.606787
vt 0.583848 0.608740
vt 0.592903 0.603615
vt 0.603070 0.582298
vt 0.613048 0.594751
vt 0.610999 0.606475
vt 0.606401 0.608943
vt 0.601438 0.608251
vt 0.586331 0.603560
vt 0.600598 0.578805
vt 0.589822 0.601288
vt 0.148133 0.578805
vt 0.140843 0.601288
vt 0.522445 0.038205
vt 0.513246 0.032036
vt 0.507613 0.025182
vt 0.515546 0.030102
vt 0.521458 0.442272
vt 0.528336 0.428901
vt 0.500000 0.456702
vt 0.500000 0.445370
vt 0.500000 0.031689
vt 0.512541 0.032373
vt 0.506877 0.025742
vt 0.500000 0.025886
vt 0.500000 0.031337
vt 0.500000 0.025479
vt 0.030102 0.457928
vt 0.030515 0.446199
vt 0.432141 0.867914
vt 0.443845 0.927906
vt 0.379085 0.894044
vt 0.360683 0.828812
vt 0.439809 0.672195
vt 0.430298 0.558226
vt 0.400297 0.594201
vt 0.380247 0.672998
vt 0.419750 0.833374
vt 0.430922 0.759035
vt 0.362910 0.751725
vt 0.364577 0.812683
vt 0.430922 0.758996
vt 0.439809 0.671923
vt 0.454286 0.976119
vt 0.395580 0.951058
vt 0.395580 0.548422
vt 0.333098 0.547256
vt 0.311584 0.643970
vt 0.373635 0.643481
vt 0.436410 0.893919
vt 0.360683 0.793372
vt 0.328551 0.761101
vt 0.323030 0.643370
vt 0.340672 0.642712
vt 0.444006 0.632181
vt 0.395580 0.735145
vt 0.454286 0.747180
vt 0.427025 0.538591
vt 0.333098 0.715601
vt 0.427025 0.947229
vt 0.443553 0.575135
vt 0.400297 0.530171
vt 0.356060 0.535244
vt 0.340885 0.643738
vt 0.362910 0.643182
vt 0.435444 0.492909
vt 0.433984 0.447361
vt 0.430298 0.518348
vt 0.405006 0.421068
vt 0.383019 0.429733
vt 0.362474 0.771615
vt 0.387552 0.796381
vt 0.438918 0.382998
vt 0.421210 0.420824
vt 0.448920 0.357545
vt 0.398021 0.363238
vt 0.378773 0.407144
vt 0.332784 0.508652
vt 0.333539 0.413961
vt 0.367244 0.407548
vt 0.378773 0.499901
vt 0.362910 0.751727
vt 0.459125 0.268345
vt 0.417930 0.278839
vt 0.380247 0.672932
vt 0.448920 0.314473
vt 0.328551 0.517077
vt 0.328734 0.470798
vt 0.357619 0.470278
vt 0.364577 0.509803
vt 0.459125 0.239236
vt 0.435444 0.495971
vt 0.387552 0.579931
vt 0.371732 0.501290
vt 0.368885 0.457158
vt 0.460183 0.181283
vt 0.460183 0.140934
vt 0.460183 0.196322
vt 0.419994 0.205473
vt 0.378509 0.393435
vt 0.461297 0.608225
vt 0.473395 0.560962
vt 0.433984 0.450625
vt 0.460469 0.141037
vt 0.469367 0.116366
vt 0.437911 0.123733
vt 0.420553 0.149293
vt 0.457081 0.165879
vt 0.413943 0.174337
vt 0.484203 0.085531
vt 0.489280 0.071544
vt 0.476758 0.071388
vt 0.468516 0.086614
vt 0.398021 0.325561
vt 0.417930 0.249130
vt 0.419994 0.679456
vt 0.420401 0.648799
vt 0.460183 0.657159
vt 0.460183 0.690304
vt 0.486669 0.045311
vt 0.419994 0.191059
vt 0.422167 0.599988
vt 0.445768 0.556649
vt 0.469661 0.475706
vt 0.477555 0.462176
vt 0.486754 0.460736
vt 0.484790 0.477146
vt 0.484454 0.457928
vt 0.485561 0.446199
vt 0.493123 0.445401
vt 0.492387 0.457080
vt 0.471665 0.053210
vt 0.379159 0.601238
vt 0.385282 0.599612
vt 0.386922 0.604170
vt 0.381432 0.607555
vt 0.486669 0.424258
vt 0.487459 0.440917
vt 0.423568 0.505809
vt 0.452679 0.467354
vt 0.460520 0.507406
vt 0.480956 0.508271
vt 0.420401 0.168698
vt 0.422167 0.108290
vt 0.461297 0.096221
vt 0.479678 0.097153
vt 0.458025 0.104341
vt 0.378509 0.816867
vt 0.355733 0.774144
vt 0.330903 0.641253
vt 0.351886 0.640437
vt 0.398375 0.405151
vt 0.421210 0.496630
vt 0.379220 0.366797
vt 0.348274 0.367843
vt 0.350598 0.433451
vt 0.330908 0.368189
vt 0.364194 0.367147
vt 0.324343 0.324872
vt 0.360708 0.324944
vt 0.395132 0.366023
vt 0.400340 0.365401
vt 0.378349 0.293283
vt 0.378743 0.261665
vt 0.340632 0.261742
vt 0.341538 0.293469
vt 0.377606 0.322035
vt 0.343222 0.322330
vt 0.394336 0.324350
vt 0.400943 0.321655
vt 0.404597 0.548078
vt 0.409055 0.518571
vt 0.354176 0.523009
vt 0.378743 0.561263
vt 0.360141 0.470735
vt 0.313739 0.480362
vt 0.314593 0.500191
vt 0.351676 0.498544
vt 0.407749 0.493332
vt 0.316857 0.522344
vt 0.340632 0.560446
vt 0.403567 0.477757
vt 0.403321 0.292993
vt 0.404597 0.261464
vt 0.359645 0.307779
vt 0.396411 0.307317
vt 0.320262 0.307625
vt 0.322068 0.288897
vt 0.320535 0.262732
vt 0.360141 0.262967
vt 0.360320 0.289050
vt 0.396713 0.262636
vt 0.395646 0.288588
vt 0.320262 0.482345
vt 0.322068 0.451756
vt 0.360320 0.442459
vt 0.359645 0.473048
vt 0.360141 0.440146
vt 0.320535 0.449773
vt 0.395646 0.449241
vt 0.396411 0.479829
vt 0.396713 0.447168
vt 0.330810 0.894416
vt 0.328551 0.841501
vt 0.333098 0.940741
vt 0.407688 0.470184
vt 0.401774 0.414426
vt 0.378808 0.417417
vt 0.382476 0.471308
vt 0.356165 0.389418
vt 0.396460 0.389954
vt 0.401854 0.467455
vt 0.332380 0.471464
vt 0.419750 0.494548
vt 0.404289 0.312254
vt 0.402723 0.263453
vt 0.377163 0.264476
vt 0.378728 0.312916
vt 0.329852 0.393127
vt 0.333174 0.415674
vt 0.350300 0.837975
vt 0.312867 0.850246
vt 0.313942 0.890422
vt 0.364373 0.887710
vt 0.410353 0.893263
vt 0.407625 0.849695
vt 0.377163 0.940554
vt 0.402723 0.933075
vt 0.326372 0.933416
vt 0.326372 0.264581
vt 0.327937 0.313364
vt 0.376999 0.364960
vt 0.334438 0.364922
vt 0.331341 0.362549
vt 0.314868 0.316407
vt 0.352300 0.316485
vt 0.355881 0.361871
vt 0.409626 0.313492
vt 0.393462 0.359936
vt 0.398418 0.363919
vt 0.353526 0.289822
vt 0.351961 0.263334
vt 0.396809 0.260902
vt 0.398374 0.286829
vt 0.324240 0.289744
vt 0.322675 0.263848
vt 0.352300 0.841274
vt 0.353526 0.809945
vt 0.398374 0.821566
vt 0.409626 0.852894
vt 0.396809 0.818572
vt 0.351961 0.806852
vt 0.314868 0.853541
vt 0.324240 0.822213
vt 0.322675 0.819123
vt 0.479215 0.669173
vt 0.482775 0.721513
vt 0.471302 1.002924
vt 0.479215 1.015365
vt 0.480011 0.740196
vt 0.480011 0.988807
vt 0.471302 0.661469
vt 0.416217 0.154177
vt 0.402927 0.144428
vt 0.399432 0.131366
vt 0.416152 0.135838
vt 0.380819 0.132632
vt 0.389649 0.130579
vt 0.393748 0.140479
vt 0.385412 0.141084
vt 0.397513 0.570048
vt 0.379361 0.593819
vt 0.376297 0.603179
vt 0.379178 0.612314
vt 0.385412 0.620214
vt 0.393748 0.625520
vt 0.402927 0.624463
vt 0.416217 0.616909
vt 0.395305 0.577238
vt 0.396469 0.567675
vt 0.398731 0.572395
vt 0.390687 0.614171
vt 0.389649 0.619358
vt 0.380819 0.614576
vt 0.384313 0.610750
vt 0.397566 0.613212
vt 0.399432 0.617961
vt 0.376724 0.609983
vt 0.373598 0.601250
vt 0.376728 0.592146
vt 0.381473 0.594500
vt 0.409398 0.606787
vt 0.416152 0.608740
vt 0.407098 0.603615
vt 0.398562 0.608251
vt 0.393599 0.608943
vt 0.389001 0.606475
vt 0.386952 0.594751
vt 0.396930 0.582298
vt 0.413669 0.603560
vt 0.399402 0.578805
vt 0.410178 0.601288
vt 0.477555 0.038205
vt 0.484454 0.030102
vt 0.492387 0.025182
vt 0.486754 0.032036
vt 0.478542 0.442272
vt 0.471665 0.428901
vt 0.493123 0.025742
vt 0.487459 0.032373
vt 0.181819 0.000000
vt 0.227273 0.078731
vt 0.136365 0.078731
vt 0.272728 0.157461
vt 0.318182 0.078731
vt 0.363637 0.157461
vt 0.909091 0.000000
vt 0.954545 0.078731
vt 0.863636 0.078731
vt 0.727273 0.000000
vt 0.772727 0.078731
vt 0.681818 0.078731
vt 0.545455 0.000000
vt 0.590909 0.078731
vt 0.500000 0.078731
vt 0.318182 0.236191
vt 0.090910 0.157461
vt 0.181819 0.157461
vt 0.136365 0.236191
vt 0.818182 0.157461
vt 0.909091 0.157461
vt 0.863636 0.236191
vt 0.636364 0.157461
vt 0.727273 0.157461
vt 0.681818 0.236191
vt 0.454546 0.157461
vt 0.545455 0.157461
vt 0.500000 0.236191
vt 0.227273 0.236191
vt 0.045455 0.236191
vt 0.772727 0.236191
vt 0.590909 0.236191
vt 0.409092 0.236191
vt 0.181819 0.314921
vt 0.272728 0.314921
vt 0.227273 0.393651
vt 0.000000 0.314921
vt 0.090910 0.314921
vt 0.045455 0.393651
vt 0.727273 0.314921
vt 0.818182 0.314921
vt 0.772727 0.393651
vt 0.545455 0.314921
vt 0.636364 0.314921
vt 0.590909 0.393651
vt 0.363637 0.314921
vt 0.454546 0.314921
vt 0.409092 0.393651
vt 0.500000 0.393651
vt 0.454546 0.472382
vt 0.681818 0.393651
vt 0.636364 0.472382
vt 0.863636 0.393651
vt 0.818182 0.472382
vt 0.909091 0.314921
vt 0.136365 0.393651
vt 0.090910 0.472382
vt 0.318182 0.393651
vt 0.272728 0.472382
vt 0.954545 0.236191
vt 1.000000 0.157461
vt 0.409092 0.078731
vt 0.363637 0.000000
s 1
f 116/1/1 98/2/1 209/3/1 208/4/1
f 115/5/2 4/6/2 17/7/2 97/8/2
f 3/9/3 7/10/3 13/11/3 8/12/3
f 7/10/4 4/13/4 9/14/4 13/11/4
f 13/11/5 9/14/5 2/15/5 10/16/5
f 8/12/6 13/11/6 10/16/6 1/17/6
f 1/17/7 10/16/7 32/18/7 29/19/7
f 114/20/8 1/21/8 29/22/8 83/23/8
f 116/24/9 3/25/9 8/26/9 109/27/9
f 109/27/10 8/26/10 1/21/10 114/20/10
f 115/5/11 6/28/11 15/29/11 99/30/11
f 99/30/12 15/29/12 12/31/12 112/32/12
f 97/8/13 17/7/13 21/33/13 90/34/13
f 20/35/14 25/36/14 203/37/14 204/38/14
f 116/24/15 5/28/15 18/39/15 98/40/15
f 4/41/16 7/42/16 197/43/16 196/44/16
f 89/45/17 90/46/17 21/47/17 25/36/17
f 91/48/18 89/45/18 25/36/18 20/35/18
f 25/36/19 21/47/19 202/49/19 203/37/19
f 98/40/20 18/39/20 23/50/20 91/51/20
f 38/52/21 45/53/21 134/54/21 131/55/21
f 133/56/22 136/57/22 144/58/22 146/59/22
f 112/32/23 12/31/23 34/60/23 82/61/23
f 10/16/24 2/15/24 30/62/24 32/18/24
f 29/63/25 32/64/25 129/65/25 130/66/25
f 75/67/26 41/68/26 48/69/26 73/70/26
f 82/61/27 34/60/27 41/68/27 75/67/27
f 83/71/28 29/63/28 141/72/28 140/73/28
f 32/64/29 30/74/29 128/75/29 129/65/29
f 73/70/30 48/69/30 56/76/30 66/77/30
f 74/78/31 81/79/31 145/80/31 148/81/31
f 130/82/32 133/56/32 146/59/32 147/83/32
f 6/28/33 115/5/33 97/8/33 19/39/33
f 54/84/34 53/85/34 60/86/34 61/87/34
f 67/88/35 54/89/35 61/90/35 65/91/35
f 11/92/36 114/20/36 83/23/36 33/93/36
f 5/28/37 116/24/37 109/27/37 14/29/37
f 14/29/38 109/27/38 114/20/38 11/92/38
f 139/94/39 54/95/39 143/96/39 142/97/39
f 30/62/40 38/52/40 131/55/40 128/98/40
f 4/6/41 115/5/41 99/30/41 9/99/41
f 61/87/42 60/86/42 69/100/42 70/101/42
f 65/91/43 61/90/43 70/102/43 58/103/43
f 9/99/44 99/30/44 112/32/44 2/104/44
f 66/77/45 56/76/45 63/105/45 64/106/45
f 19/39/46 97/8/46 90/34/46 24/107/46
f 53/85/47 52/108/47 59/109/47 60/86/47
f 198/110/48 3/111/48 207/112/48 213/113/48
f 256/114/49 255/115/49 253/116/49 254/117/49
f 23/118/50 26/119/50 89/45/50 91/48/50
f 69/100/51 68/120/51 76/121/51 77/122/51
f 204/123/52 201/124/52 211/125/52 212/126/52
f 64/106/53 63/105/53 72/127/53 57/128/53
f 33/93/54 83/23/54 81/129/54 40/68/54
f 60/86/55 59/109/55 68/120/55 69/100/55
f 2/104/56 112/32/56 82/61/56 30/130/56
f 38/131/57 75/67/57 73/70/57 45/132/57
f 77/122/58 76/121/58 259/133/58 260/134/58
f 30/130/59 82/61/59 75/67/59 38/131/59
f 50/135/60 80/136/60 88/137/60 44/138/60
f 58/103/61 70/102/61 78/139/61 51/140/61
f 70/101/62 69/100/62 77/122/62 78/141/62
f 45/132/63 73/70/63 66/77/63 52/142/63
f 57/128/64 72/127/64 80/136/64 50/135/64
f 28/143/65 110/144/65 96/145/65 42/146/65
f 40/68/66 81/129/66 74/147/66 47/69/66
f 108/148/67 262/149/67 93/150/67 94/151/67
f 31/152/68 108/153/68 94/154/68 43/155/68
f 55/156/69 67/88/69 65/91/69 62/157/69
f 51/140/70 78/139/70 86/158/70 49/159/70
f 78/141/71 77/122/71 260/134/71 86/160/71
f 47/69/72 74/147/72 67/88/72 55/156/72
f 123/161/73 124/162/73 101/163/73 102/164/73
f 121/165/74 123/166/74 102/167/74 37/168/74
f 62/157/75 65/91/75 58/103/75 71/169/75
f 52/142/76 66/77/76 64/106/76 59/170/76
f 59/170/77 64/106/77 57/128/77 68/171/77
f 262/149/78 261/172/78 92/173/78 93/150/78
f 76/174/79 50/175/79 44/176/79 259/177/79
f 71/169/80 58/103/80 51/140/80 79/178/80
f 37/168/81 35/179/81 105/180/81 103/181/81
f 124/162/82 127/182/82 297/183/82 298/184/82 101/163/82
f 68/171/83 57/128/83 50/135/83 76/185/83
f 261/186/84 28/143/84 42/146/84 92/187/84
f 107/188/85 31/152/85 43/155/85 95/189/85
f 127/190/86 122/191/86 295/192/86 297/193/86
f 79/178/87 51/140/87 49/159/87 87/194/87
f 100/195/88 36/196/88 301/197/88 104/198/88
f 126/199/89 121/165/89 37/168/89 103/181/89
f 102/167/90 101/200/90 35/179/90 37/168/90
f 274/201/91 273/202/91 290/203/91 291/204/91
f 122/191/92 125/205/92 300/206/92 295/192/92
f 49/159/93 86/158/93 108/153/93 31/152/93
f 86/160/94 260/134/94 262/149/94 108/148/94
f 35/207/95 296/208/95 299/209/95 105/210/95
f 44/176/96 88/211/96 110/144/96 28/143/96
f 93/212/97 92/187/97 120/213/97 119/214/97
f 87/194/98 49/159/98 31/152/98 107/188/98
f 42/146/99 96/145/99 113/215/99 27/216/99
f 259/217/100 44/138/100 28/218/100 261/219/100
f 92/187/101 42/146/101 27/216/101 120/213/101
f 95/189/102 43/155/102 22/220/102 118/221/102
f 43/155/103 94/154/103 117/222/103 22/220/103
f 94/151/104 93/150/104 119/223/104 117/224/104
f 120/213/105 27/216/105 122/191/105 127/190/105
f 118/221/106 22/220/106 121/165/106 126/199/106
f 119/223/107 120/225/107 127/182/107 124/162/107
f 27/216/108 113/215/108 125/205/108 122/191/108
f 22/220/109 117/222/109 123/166/109 121/165/109
f 117/224/110 119/223/110 124/162/110 123/161/110
f 130/82/111 129/226/111 132/227/111 133/56/111
f 132/227/112 131/55/112 134/54/112 135/228/112
f 129/226/113 128/98/113 131/55/113 132/227/113
f 135/228/114 134/54/114 137/229/114 138/230/114
f 133/56/115 132/227/115 135/228/115 136/57/115
f 136/57/116 135/228/116 138/230/116 139/231/116
f 52/232/117 53/233/117 138/234/117 137/235/117
f 45/53/118 52/108/118 137/229/118 134/54/118
f 54/95/119 67/236/119 149/237/119 143/96/119
f 53/233/120 54/95/120 139/94/120 138/234/120
f 141/72/121 147/238/121 157/239/121 39/240/121
f 144/58/122 142/241/122 150/242/122 153/243/122
f 145/80/123 140/244/123 46/245/123 154/246/123
f 148/81/124 145/80/124 154/246/124 158/247/124
f 146/59/125 144/58/125 153/243/125 156/248/125
f 142/97/126 143/96/126 151/249/126 150/250/126
f 136/57/127 139/231/127 142/241/127 144/58/127
f 67/251/128 74/78/128 148/81/128 149/252/128
f 29/63/129 130/66/129 147/238/129 141/72/129
f 81/79/130 83/253/130 140/244/130 145/80/130
f 153/243/131 150/242/131 162/254/131 164/255/131
f 154/246/132 46/245/132 160/256/132 165/257/132
f 158/247/133 154/246/133 165/257/133 168/258/133
f 156/248/134 153/243/134 164/255/134 166/259/134
f 150/250/135 151/249/135 163/260/135 162/261/135
f 157/262/136 156/248/136 166/259/136 167/263/136
f 149/252/137 148/81/137 158/247/137 159/264/137
f 143/96/138 149/237/138 159/265/138 151/249/138
f 140/73/139 141/72/139 39/240/139 46/266/139
f 147/83/140 146/59/140 156/248/140 157/262/140
f 188/267/141 187/268/141 177/269/141 152/270/141
f 184/271/142 185/272/142 170/273/142 173/274/142
f 182/275/143 180/276/143 155/277/143 174/278/143
f 181/279/144 182/275/144 174/278/144 178/280/144
f 183/281/145 184/271/145 173/274/145 176/282/145
f 170/273/146 185/272/146 194/283/146 192/284/146
f 39/240/147 157/239/147 167/285/147 161/286/147
f 159/264/148 158/247/148 168/258/148 169/287/148
f 151/249/149 159/265/149 169/288/149 163/260/149
f 46/266/150 39/240/150 161/286/150 160/289/150
f 155/290/151 152/291/151 175/292/151 174/293/151
f 171/294/152 172/295/152 173/296/152 170/297/152
f 174/293/153 175/292/153 172/295/153 178/298/153
f 175/292/154 152/291/154 177/299/154 176/300/154
f 178/298/155 172/295/155 171/294/155 179/301/155
f 172/295/156 175/292/156 176/300/156 173/296/156
f 189/302/157 181/279/157 178/280/157 179/303/157
f 189/302/158 179/303/158 193/304/158 195/305/158
f 180/306/159 188/267/159 152/270/159 155/307/159
f 187/308/160 183/281/160 176/282/160 177/309/160
f 167/263/161 166/259/161 183/281/161 187/308/161
f 160/289/162 161/286/162 188/267/162 180/306/162
f 163/260/163 169/288/163 189/310/163 186/311/163
f 169/287/164 168/258/164 181/279/164 189/302/164
f 162/261/165 163/260/165 186/311/165 185/312/165
f 166/259/166 164/255/166 184/271/166 183/281/166
f 168/258/167 165/257/167 182/275/167 181/279/167
f 165/257/168 160/256/168 180/276/168 182/275/168
f 164/255/169 162/254/169 185/272/169 184/271/169
f 161/286/170 167/285/170 187/268/170 188/267/170
f 194/313/171 190/314/171 191/315/171 192/316/171
f 190/314/172 195/317/172 193/318/172 191/315/172
f 185/319/173 186/320/173 190/321/173 194/322/173
f 171/294/174 170/297/174 192/323/174 191/324/174
f 186/320/175 189/325/175 195/326/175 190/321/175
f 179/301/176 171/294/176 191/324/176 193/327/176
f 196/328/177 197/329/177 200/330/177 199/331/177
f 200/330/178 201/124/178 204/123/178 203/332/178
f 197/329/179 198/333/179 201/124/179 200/330/179
f 199/331/180 200/330/180 203/332/180 202/334/180
f 7/42/181 3/111/181 198/110/181 197/43/181
f 17/7/182 4/6/182 196/335/182 199/336/182
f 201/124/183 198/333/183 213/337/183 211/125/183
f 21/33/184 17/7/184 199/336/184 202/338/184
f 208/4/185 209/3/185 217/339/185 216/340/185
f 210/341/186 206/342/186 214/343/186 218/344/186
f 207/112/187 208/345/187 216/346/187 215/347/187
f 211/125/188 213/337/188 221/348/188 219/349/188
f 20/35/189 204/38/189 212/350/189 206/342/189
f 91/48/190 20/35/190 206/342/190 210/341/190
f 98/2/191 91/351/191 210/352/191 209/3/191
f 3/111/192 116/353/192 208/345/192 207/112/192
f 232/354/193 235/355/193 222/356/193 226/357/193
f 233/358/194 224/359/194 240/360/194 241/361/194
f 16/362/195 230/363/195 229/364/195 227/365/195
f 231/366/196 232/367/196 226/368/196 225/369/196
f 213/113/197 207/112/197 215/347/197 221/370/197
f 206/342/198 212/350/198 220/371/198 214/343/198
f 212/126/199 211/125/199 219/349/199 220/372/199
f 209/3/200 210/352/200 218/373/200 217/339/200
f 223/374/201 205/375/201 227/376/201 229/377/201
f 223/374/202 224/378/202 225/379/202 205/375/202
f 205/375/203 225/379/203 226/380/203 222/381/203
f 205/375/204 222/381/204 228/382/204 227/376/204
f 233/358/205 231/366/205 225/369/205 224/359/205
f 229/364/206 230/363/206 237/383/206 238/384/206
f 235/355/207 236/385/207 228/386/207 222/356/207
f 236/387/208 16/362/208 227/365/208 228/388/208
f 250/389/209 243/390/209 16/362/209 236/387/209
f 249/391/210 250/392/210 236/385/210 235/355/210
f 246/393/211 245/394/211 234/395/211 230/396/211
f 248/397/212 244/398/212 231/366/212 233/358/212
f 244/398/213 247/399/213 232/367/213 231/366/213
f 243/390/214 246/400/214 230/363/214 16/362/214
f 245/394/215 248/401/215 233/402/215 234/395/215
f 247/403/216 249/391/216 235/355/216 232/354/216
f 242/404/217 241/405/217 240/406/217 239/407/217
f 237/408/218 242/404/218 239/407/218 238/409/218
f 234/410/219 233/411/219 241/412/219 242/413/219
f 224/378/220 223/374/220 239/414/220 240/415/220
f 230/416/221 234/410/221 242/413/221 237/417/221
f 223/374/222 229/377/222 238/418/222 239/414/222
f 218/344/223 214/343/223 249/391/223 247/403/223
f 215/347/224 216/346/224 248/401/224 245/394/224
f 219/349/225 221/348/225 246/400/225 243/390/225
f 217/339/226 218/373/226 247/399/226 244/398/226
f 216/340/227 217/339/227 244/398/227 248/397/227
f 221/370/228 215/347/228 245/394/228 246/393/228
f 214/343/229 220/371/229 250/392/229 249/391/229
f 220/372/230 219/349/230 243/390/230 250/389/230
f 252/419/231 251/420/231 254/421/231 253/422/231
f 255/423/232 257/424/232 252/425/232 253/426/232
f 258/427/233 256/428/233 254/421/233 251/420/233
f 24/107/234 90/34/234 256/429/234 258/430/234
f 89/45/235 26/119/235 257/431/235 255/432/235
f 90/46/236 89/45/236 255/432/236 256/428/236
f 84/433/237 85/434/237 260/134/237 259/133/237
f 275/435/238 84/433/238 259/133/238 261/172/238
f 85/434/239 276/436/239 262/149/239 260/134/239
f 276/436/240 284/437/240 283/438/240 275/435/240 261/172/240 262/149/240
f 84/439/241 275/440/241 279/441/241 263/442/241
f 266/443/242 264/444/242 278/445/242 280/446/242
f 276/436/243 85/434/243 267/447/243 282/448/243
f 278/449/244 264/450/244 265/451/244 277/452/244
f 277/452/245 265/451/245 263/442/245 279/441/245
f 266/443/246 280/446/246 281/453/246 268/454/246
f 268/454/247 281/453/247 282/448/247 267/447/247
f 85/455/248 84/456/248 263/457/248 265/458/248 264/459/248 266/460/248 268/461/248 267/462/248
f 106/463/249 284/464/249 276/465/249
f 271/466/250 269/467/250 278/468/250 277/469/250
f 270/470/251 271/466/251 277/469/251 279/471/251
f 273/202/252 274/201/252 281/472/252 280/473/252
f 274/201/253 272/474/253 282/475/253 281/472/253
f 269/467/254 273/202/254 280/473/254 278/468/254
f 111/476/255 270/470/255 279/471/255 275/477/255
f 272/474/256 106/463/256 276/465/256 282/475/256
f 285/478/257 286/479/257 292/480/257 291/204/257 290/203/257 288/481/257 287/482/257 289/483/257
f 283/484/258 111/476/258 275/477/258
f 270/470/259 111/476/259 285/478/259 289/483/259
f 294/485/260 286/479/260 285/478/260 293/486/260
f 111/476/261 283/484/261 293/486/261 285/478/261
f 106/463/262 272/474/262 292/480/262 286/479/262
f 272/474/263 274/201/263 291/204/263 292/480/263
f 269/467/264 271/466/264 287/482/264 288/481/264
f 283/438/265 284/437/265 294/487/265 293/488/265
f 273/202/266 269/467/266 288/481/266 290/203/266
f 284/464/267 106/463/267 286/479/267 294/485/267
f 271/466/268 270/470/268 289/483/268 287/482/268
f 297/489/269 295/490/269 36/491/269 100/492/269
f 296/208/270 298/493/270 104/198/270 301/197/270
f 101/494/271 298/493/271 296/208/271 35/207/271
f 36/196/272 302/495/272 303/496/272 301/197/272
f 299/497/273 296/498/273 301/499/273 303/500/273
f 295/490/274 300/501/274 302/502/274 36/491/274
f 298/184/275 297/183/275 100/503/275 104/504/275
f 385/1/276 474/4/276 475/3/276 372/2/276
f 384/505/277 371/506/277 314/507/277 307/508/277
f 306/9/278 309/12/278 312/11/278 308/10/278
f 308/10/279 312/11/279 310/14/279 307/13/279
f 312/11/280 311/16/280 305/15/280 310/14/280
f 309/12/281 304/17/281 311/16/281 312/11/281
f 304/17/282 321/19/282 324/18/282 311/16/282
f 383/509/283 361/510/283 321/511/283 304/512/283
f 385/513/284 380/514/284 309/515/284 306/516/284
f 380/514/285 383/509/285 304/512/285 309/515/285
f 384/505/286 373/517/286 15/29/286 6/28/286
f 373/517/287 382/518/287 12/31/287 15/29/287
f 371/506/288 366/519/288 316/520/288 314/507/288
f 315/521/289 470/522/289 469/523/289 318/524/289
f 385/513/290 372/525/290 18/39/290 5/28/290
f 307/526/291 462/527/291 463/528/291 308/529/291
f 365/530/292 318/524/292 316/531/292 366/532/292
f 367/533/293 315/521/293 318/524/293 365/530/293
f 318/524/294 469/523/294 468/534/294 316/531/294
f 372/525/295 367/535/295 23/50/295 18/39/295
f 328/52/296 397/55/296 400/54/296 333/53/296
f 399/56/297 412/59/297 410/58/297 402/57/297
f 382/518/298 360/536/298 34/60/298 12/31/298
f 311/16/299 324/18/299 322/62/299 305/15/299
f 321/537/300 396/538/300 395/539/300 324/540/300
f 355/541/301 353/542/301 48/69/301 41/68/301
f 360/536/302 355/541/302 41/68/302 34/60/302
f 361/543/303 406/544/303 407/545/303 321/537/303
f 324/540/304 395/539/304 394/546/304 322/547/304
f 353/542/305 348/548/305 56/76/305 48/69/305
f 354/78/306 414/81/306 411/80/306 359/79/306
f 396/82/307 413/83/307 412/59/307 399/56/307
f 6/28/308 19/39/308 371/506/308 384/505/308
f 340/84/309 345/87/309 344/86/309 339/85/309
f 349/549/310 347/550/310 345/551/310 340/552/310
f 11/92/311 33/93/311 361/510/311 383/509/311
f 5/28/312 14/29/312 380/514/312 385/513/312
f 14/29/313 11/92/313 383/509/313 380/514/313
f 405/553/314 408/554/314 409/555/314 340/556/314
f 322/62/315 394/98/315 397/55/315 328/52/315
f 307/508/316 310/557/316 373/517/316 384/505/316
f 345/87/317 352/101/317 351/100/317 344/86/317
f 347/550/318 342/558/318 352/559/318 345/551/318
f 310/557/319 305/560/319 382/518/319 373/517/319
f 348/548/320 346/561/320 63/105/320 56/76/320
f 19/39/321 24/107/321 366/519/321 371/506/321
f 339/85/322 344/86/322 343/109/322 338/108/322
f 464/562/323 479/563/323 473/564/323 306/565/323
f 520/114/324 518/117/324 517/116/324 519/115/324
f 23/118/325 367/533/325 365/530/325 26/119/325
f 351/100/326 357/122/326 356/121/326 350/120/326
f 470/123/327 478/126/327 477/125/327 467/124/327
f 346/561/328 341/566/328 72/127/328 63/105/328
f 33/93/329 40/68/329 359/567/329 361/510/329
f 344/86/330 351/100/330 350/120/330 343/109/330
f 305/560/331 322/568/331 360/536/331 382/518/331
f 328/569/332 333/570/332 353/542/332 355/541/332
f 357/122/333 522/134/333 521/133/333 356/121/333
f 322/568/334 328/569/334 355/541/334 360/536/334
f 336/571/335 332/572/335 88/137/335 80/136/335
f 342/558/336 337/573/336 358/574/336 352/559/336
f 352/101/337 358/141/337 357/122/337 351/100/337
f 333/570/338 338/575/338 348/548/338 353/542/338
f 341/566/339 336/571/339 80/136/339 72/127/339
f 320/576/340 330/577/340 96/145/340 110/144/340
f 40/68/341 47/69/341 354/578/341 359/567/341
f 379/148/342 370/151/342 369/150/342 524/149/342
f 323/579/343 331/580/343 370/581/343 379/582/343
f 55/156/344 62/157/344 347/550/344 349/549/344
f 337/573/345 335/583/345 364/584/345 358/574/345
f 358/141/346 364/160/346 522/134/346 357/122/346
f 47/69/347 55/156/347 349/549/347 354/578/347
f 391/161/348 376/164/348 375/163/348 392/162/348
f 389/585/349 327/586/349 376/587/349 391/588/349
f 62/157/350 71/169/350 342/558/350 347/550/350
f 338/575/351 343/589/351 346/561/351 348/548/351
f 343/589/352 350/590/352 341/566/352 346/561/352
f 524/149/353 369/150/353 368/173/353 523/172/353
f 356/591/354 521/592/354 332/593/354 336/594/354
f 71/169/355 79/178/355 337/573/355 342/558/355
f 327/586/356 103/181/356 105/180/356 325/595/356
f 392/162/357 375/163/357 560/184/357 559/183/357 393/182/357
f 350/590/358 356/596/358 336/571/358 341/566/358
f 523/597/359 368/598/359 330/577/359 320/576/359
f 107/188/360 95/189/360 331/580/360 323/579/360
f 393/599/361 559/600/361 557/601/361 390/602/361
f 79/178/362 87/194/362 335/583/362 337/573/362
f 374/603/363 377/604/363 561/605/363 326/606/363
f 126/199/364 103/181/364 327/586/364 389/585/364
f 376/587/365 327/586/365 325/595/365 375/607/365
f 536/608/366 553/609/366 552/610/366 535/611/366
f 390/602/367 557/601/367 300/206/367 125/205/367
f 335/583/368 323/579/368 379/582/368 364/584/368
f 364/160/369 379/148/369 524/149/369 522/134/369
f 325/612/370 105/210/370 299/209/370 558/613/370
f 332/593/371 320/576/371 110/144/371 88/211/371
f 369/614/372 387/615/372 388/616/372 368/598/372
f 87/194/373 107/188/373 323/579/373 335/583/373
f 330/577/374 319/617/374 113/215/374 96/145/374
f 521/618/375 523/619/375 320/620/375 332/572/375
f 368/598/376 388/616/376 319/617/376 330/577/376
f 95/189/377 118/221/377 317/621/377 331/580/377
f 331/580/378 317/621/378 386/622/378 370/581/378
f 370/151/379 386/224/379 387/223/379 369/150/379
f 388/616/380 393/599/380 390/602/380 319/617/380
f 118/221/381 126/199/381 389/585/381 317/621/381
f 387/223/382 392/162/382 393/182/382 388/225/382
f 319/617/383 390/602/383 125/205/383 113/215/383
f 317/621/384 389/585/384 391/588/384 386/622/384
f 386/224/385 391/161/385 392/162/385 387/223/385
f 396/82/386 399/56/386 398/227/386 395/226/386
f 398/227/387 401/228/387 400/54/387 397/55/387
f 395/226/388 398/227/388 397/55/388 394/98/388
f 401/228/389 404/230/389 403/229/389 400/54/389
f 399/56/390 402/57/390 401/228/390 398/227/390
f 402/57/391 405/231/391 404/230/391 401/228/391
f 338/623/392 403/624/392 404/625/392 339/626/392
f 333/53/393 400/54/393 403/229/393 338/108/393
f 340/556/394 409/555/394 415/627/394 349/628/394
f 339/626/395 404/625/395 405/553/395 340/556/395
f 407/545/396 329/629/396 423/630/396 413/631/396
f 410/58/397 419/243/397 416/242/397 408/241/397
f 411/80/398 420/246/398 334/245/398 406/244/398
f 414/81/399 424/247/399 420/246/399 411/80/399
f 412/59/400 422/248/400 419/243/400 410/58/400
f 408/554/401 416/632/401 417/633/401 409/555/401
f 402/57/402 410/58/402 408/241/402 405/231/402
f 349/251/403 415/252/403 414/81/403 354/78/403
f 321/537/404 407/545/404 413/631/404 396/538/404
f 359/79/405 411/80/405 406/244/405 361/253/405
f 419/243/406 430/255/406 428/254/406 416/242/406
f 420/246/407 431/257/407 426/256/407 334/245/407
f 424/247/408 434/258/408 431/257/408 420/246/408
f 422/248/409 432/259/409 430/255/409 419/243/409
f 416/632/410 428/634/410 429/635/410 417/633/410
f 423/262/411 433/263/411 432/259/411 422/248/411
f 415/252/412 425/264/412 424/247/412 414/81/412
f 409/555/413 417/633/413 425/636/413 415/627/413
f 406/544/414 334/637/414 329/629/414 407/545/414
f 413/83/415 423/262/415 422/248/415 412/59/415
f 454/638/416 418/639/416 443/640/416 453/641/416
f 450/271/417 439/274/417 436/273/417 451/272/417
f 448/275/418 440/278/418 421/277/418 446/276/418
f 447/279/419 444/280/419 440/278/419 448/275/419
f 449/281/420 442/282/420 439/274/420 450/271/420
f 436/273/421 458/284/421 460/283/421 451/272/421
f 329/629/422 427/642/422 433/643/422 423/630/422
f 425/264/423 435/287/423 434/258/423 424/247/423
f 417/633/424 429/635/424 435/644/424 425/636/424
f 334/637/425 426/645/425 427/642/425 329/629/425
f 421/646/426 440/647/426 441/648/426 418/649/426
f 437/650/427 436/651/427 439/652/427 438/653/427
f 440/647/428 444/654/428 438/653/428 441/648/428
f 441/648/429 442/655/429 443/656/429 418/649/429
f 444/654/430 445/657/430 437/650/430 438/653/430
f 438/653/431 439/652/431 442/655/431 441/648/431
f 455/302/432 445/303/432 444/280/432 447/279/432
f 455/302/433 461/305/433 459/304/433 445/303/433
f 446/658/434 421/659/434 418/639/434 454/638/434
f 453/308/435 443/309/435 442/282/435 449/281/435
f 433/263/436 453/308/436 449/281/436 432/259/436
f 426/645/437 446/658/437 454/638/437 427/642/437
f 429/635/438 452/660/438 455/661/438 435/644/438
f 435/287/439 455/302/439 447/279/439 434/258/439
f 428/634/440 451/662/440 452/660/440 429/635/440
f 432/259/441 449/281/441 450/271/441 430/255/441
f 434/258/442 447/279/442 448/275/442 431/257/442
f 431/257/443 448/275/443 446/276/443 426/256/443
f 430/255/444 450/271/444 451/272/444 428/254/444
f 427/642/445 454/638/445 453/641/445 433/643/445
f 460/663/446 458/664/446 457/665/446 456/666/446
f 456/666/447 457/665/447 459/667/447 461/668/447
f 451/669/448 460/670/448 456/671/448 452/672/448
f 437/650/449 457/673/449 458/674/449 436/651/449
f 452/672/450 456/671/450 461/675/450 455/676/450
f 445/657/451 459/677/451 457/673/451 437/650/451
f 462/328/452 465/331/452 466/330/452 463/329/452
f 466/330/453 469/332/453 470/123/453 467/124/453
f 463/329/454 466/330/454 467/124/454 464/333/454
f 465/331/455 468/334/455 469/332/455 466/330/455
f 308/529/456 463/528/456 464/562/456 306/565/456
f 314/507/457 465/678/457 462/679/457 307/508/457
f 467/124/458 477/125/458 479/337/458 464/333/458
f 316/520/459 468/680/459 465/678/459 314/507/459
f 474/4/460 482/340/460 483/339/460 475/3/460
f 476/681/461 484/682/461 480/683/461 472/684/461
f 473/564/462 481/685/462 482/686/462 474/687/462
f 477/125/463 485/349/463 487/348/463 479/337/463
f 315/521/464 472/684/464 478/688/464 470/522/464
f 367/533/465 476/681/465 472/684/465 315/521/465
f 372/2/466 475/3/466 476/352/466 367/351/466
f 306/565/467 473/564/467 474/687/467 385/689/467
f 498/690/468 492/691/468 488/692/468 501/693/468
f 499/358/469 507/361/469 506/360/469 490/359/469
f 313/362/470 493/365/470 495/364/470 496/363/470
f 497/366/471 491/369/471 492/368/471 498/367/471
f 479/563/472 487/694/472 481/685/472 473/564/472
f 472/684/473 480/683/473 486/695/473 478/688/473
f 478/126/474 486/372/474 485/349/474 477/125/474
f 475/3/475 483/339/475 484/373/475 476/352/475
f 489/696/476 495/697/476 493/698/476 471/699/476
f 489/696/477 471/699/477 491/700/477 490/701/477
f 471/699/478 488/702/478 492/703/478 491/700/478
f 471/699/479 493/698/479 494/704/479 488/702/479
f 499/358/480 490/359/480 491/369/480 497/366/480
f 495/364/481 504/384/481 503/383/481 496/363/481
f 501/693/482 488/692/482 494/705/482 502/706/482
f 502/387/483 494/388/483 493/365/483 313/362/483
f 516/389/484 502/387/484 313/362/484 509/390/484
f 515/707/485 501/693/485 502/706/485 516/708/485
f 512/709/486 496/710/486 500/711/486 511/712/486
f 514/397/487 499/358/487 497/366/487 510/398/487
f 510/398/488 497/366/488 498/367/488 513/399/488
f 509/390/489 313/362/489 496/363/489 512/400/489
f 511/712/490 500/711/490 499/713/490 514/714/490
f 513/715/491 498/690/491 501/693/491 515/707/491
f 508/716/492 505/717/492 506/718/492 507/719/492
f 503/720/493 504/721/493 505/717/493 508/716/493
f 500/722/494 508/723/494 507/724/494 499/725/494
f 490/701/495 506/726/495 505/727/495 489/696/495
f 496/728/496 503/729/496 508/723/496 500/722/496
f 489/696/497 505/727/497 504/730/497 495/697/497
f 484/682/498 513/715/498 515/707/498 480/683/498
f 481/685/499 511/712/499 514/714/499 482/686/499
f 485/349/500 509/390/500 512/400/500 487/348/500
f 483/339/501 510/398/501 513/399/501 484/373/501
f 482/340/502 514/397/502 510/398/502 483/339/502
f 487/694/503 512/709/503 511/712/503 481/685/503
f 480/683/504 515/707/504 516/708/504 486/695/504
f 486/372/505 516/389/505 509/390/505 485/349/505
f 252/419/506 517/731/506 518/732/506 251/420/506
f 519/733/507 517/734/507 252/425/507 257/424/507
f 258/427/508 251/420/508 518/732/508 520/735/508
f 24/107/509 258/430/509 520/736/509 366/519/509
f 365/530/510 519/737/510 257/431/510 26/119/510
f 366/532/511 520/735/511 519/737/511 365/530/511
f 362/433/512 521/133/512 522/134/512 363/434/512
f 537/435/513 523/172/513 521/133/513 362/433/513
f 363/434/514 522/134/514 524/149/514 538/436/514
f 538/436/515 524/149/515 523/172/515 537/435/515 545/438/515 546/437/515
f 362/738/516 525/739/516 541/740/516 537/741/516
f 528/443/517 542/446/517 540/445/517 526/444/517
f 538/436/518 544/448/518 529/447/518 363/434/518
f 540/742/519 539/743/519 527/744/519 526/745/519
f 539/743/520 541/740/520 525/739/520 527/744/520
f 528/443/521 530/454/521 543/453/521 542/446/521
f 530/454/522 529/447/522 544/448/522 543/453/522
f 363/746/523 529/747/523 530/748/523 528/749/523 526/750/523 527/751/523 525/752/523 362/753/523
f 378/754/524 538/755/524 546/756/524
f 533/757/525 539/758/525 540/759/525 531/760/525
f 532/761/526 541/762/526 539/758/526 533/757/526
f 535/611/527 542/763/527 543/764/527 536/608/527
f 536/608/528 543/764/528 544/765/528 534/766/528
f 531/760/529 540/759/529 542/763/529 535/611/529
f 381/767/530 537/768/530 541/762/530 532/761/530
f 534/766/531 544/765/531 538/755/531 378/754/531
f 547/769/532 551/770/532 549/771/532 550/772/532 552/610/532 553/609/532 554/773/532 548/774/532
f 545/775/533 537/768/533 381/767/533
f 532/761/534 551/770/534 547/769/534 381/767/534
f 556/776/535 555/777/535 547/769/535 548/774/535
f 381/767/536 547/769/536 555/777/536 545/775/536
f 378/754/537 548/774/537 554/773/537 534/766/537
f 534/766/538 554/773/538 553/609/538 536/608/538
f 531/760/539 550/772/539 549/771/539 533/757/539
f 545/438/540 555/488/540 556/487/540 546/437/540
f 535/611/541 552/610/541 550/772/541 531/760/541
f 546/756/542 556/776/542 548/774/542 378/754/542
f 533/757/543 549/771/543 551/770/543 532/761/543
f 559/778/544 374/779/544 326/780/544 557/781/544
f 558/613/545 561/605/545 377/604/545 560/782/545
f 375/783/546 325/612/546 558/613/546 560/782/546
f 326/606/547 561/605/547 303/496/547 302/495/547
f 299/497/548 303/500/548 561/784/548 558/785/548
f 557/781/549 326/780/549 302/502/549 300/501/549
f 560/184/550 377/504/550 374/503/550 559/183/550
f 562/786/551 575/787/551 574/788/551
f 563/789/552 575/790/552 577/791/552
f 562/792/553 574/793/553 579/794/553
f 562/795/554 579/796/554 581/797/554
f 562/798/555 581/799/555 578/800/555
f 563/789/556 577/791/556 584/801/556
f 564/802/557 576/803/557 586/804/557
f 565/805/558 580/806/558 588/807/558
f 566/808/559 582/809/559 590/810/559
f 567/811/560 583/812/560 592/813/560
f 563/789/561 584/801/561 587/814/561
f 564/802/562 586/804/562 589/815/562
f 565/805/563 588/807/563 591/816/563
f 566/808/564 590/810/564 593/817/564
f 567/811/565 592/813/565 585/818/565
f 568/819/566 594/820/566 599/821/566
f 569/822/567 595/823/567 601/824/567
f 570/825/568 596/826/568 602/827/568
f 571/828/569 597/829/569 603/830/569
f 572/831/570 598/832/570 600/833/570
f 600/833/571 603/834/571 573/835/571
f 600/833/572 598/832/572 603/834/572
f 598/832/573 571/828/573 603/834/573
f 603/830/574 602/836/574 573/837/574
f 603/830/575 597/829/575 602/836/575
f 597/829/576 570/825/576 602/836/576
f 602/827/577 601/838/577 573/839/577
f 602/827/578 596/826/578 601/838/578
f 596/826/579 569/840/579 601/838/579
f 601/824/580 599/841/580 573/842/580
f 601/824/581 595/823/581 599/841/581
f 595/823/582 568/819/582 599/841/582
f 599/821/583 600/843/583 573/844/583
f 599/821/584 594/820/584 600/843/584
f 594/820/585 572/831/585 600/843/585
f 585/818/586 598/832/586 572/831/586
f 585/818/587 592/813/587 598/832/587
f 592/813/588 571/828/588 598/832/588
f 593/817/589 597/829/589 571/828/589
f 593/817/590 590/810/590 597/829/590
f 590/810/591 570/825/591 597/829/591
f 591/816/592 596/826/592 570/825/592
f 591/816/593 588/807/593 596/826/593
f 588/807/594 569/840/594 596/826/594
f 589/815/595 595/823/595 569/822/595
f 589/815/596 586/804/596 595/823/596
f 586/804/597 568/819/597 595/823/597
f 587/814/598 594/820/598 568/819/598
f 587/814/599 584/801/599 594/820/599
f 584/801/600 572/831/600 594/820/600
f 592/813/601 593/817/601 571/828/601
f 592/813/602 583/812/602 593/817/602
f 583/812/603 566/808/603 593/817/603
f 590/810/604 591/816/604 570/825/604
f 590/810/605 582/809/605 591/816/605
f 582/809/606 565/805/606 591/816/606
f 588/807/607 589/845/607 569/840/607
f 588/807/608 580/806/608 589/845/608
f 580/806/609 564/846/609 589/845/609
f 586/804/610 587/814/610 568/819/610
f 586/804/611 576/803/611 587/814/611
f 576/803/612 563/789/612 587/814/612
f 584/801/613 585/818/613 572/831/613
f 584/801/614 577/791/614 585/818/614
f 577/791/615 567/811/615 585/818/615
f 578/800/616 583/812/616 567/811/616
f 578/800/617 581/799/617 583/812/617
f 581/799/618 566/808/618 583/812/618
f 581/797/619 582/809/619 566/808/619
f 581/797/620 579/796/620 582/809/620
f 579/796/621 565/805/621 582/809/621
f 579/794/622 580/806/622 565/805/622
f 579/794/623 574/793/623 580/806/623
f 574/793/624 564/846/624 580/806/624
f 577/791/625 578/847/625 567/811/625
f 577/791/626 575/790/626 578/847/626
f 575/790/627 562/848/627 578/847/627
f 574/788/628 576/803/628 564/802/628
f 574/788/629 575/787/629 576/803/629
f 575/787/630 563/789/630 576/803/630
f 604/786/631 616/788/631 617/787/631
f 605/789/632 619/791/632 617/790/632
f 604/792/633 621/794/633 616/793/633
f 604/795/634 623/797/634 621/796/634
f 604/798/635 620/800/635 623/799/635
f 605/789/636 626/801/636 619/791/636
f 606/802/637 628/804/637 618/803/637
f 607/805/638 630/807/638 622/806/638
f 608/808/639 632/810/639 624/809/639
f 609/811/640 634/813/640 625/812/640
f 605/789/641 629/814/641 626/801/641
f 606/802/642 631/815/642 628/804/642
f 607/805/643 633/816/643 630/807/643
f 608/808/644 635/817/644 632/810/644
f 609/811/645 627/818/645 634/813/645
f 610/819/646 641/821/646 636/820/646
f 611/822/647 643/824/647 637/823/647
f 612/825/648 644/827/648 638/826/648
f 613/828/649 645/830/649 639/829/649
f 614/831/650 642/833/650 640/832/650
f 642/833/651 615/835/651 645/834/651
f 642/833/652 645/834/652 640/832/652
f 640/832/653 645/834/653 613/828/653
f 645/830/654 615/837/654 644/836/654
f 645/830/655 644/836/655 639/829/655
f 639/829/656 644/836/656 612/825/656
f 644/827/657 615/839/657 643/838/657
f 644/827/658 643/838/658 638/826/658
f 638/826/659 643/838/659 611/840/659
f 643/824/660 615/842/660 641/841/660
f 643/824/661 641/841/661 637/823/661
f 637/823/662 641/841/662 610/819/662
f 641/821/663 615/844/663 642/843/663
f 641/821/664 642/843/664 636/820/664
f 636/820/665 642/843/665 614/831/665
f 627/818/666 614/831/666 640/832/666
f 627/818/667 640/832/667 634/813/667
f 634/813/668 640/832/668 613/828/668
f 635/817/669 613/828/669 639/829/669
f 635/817/670 639/829/670 632/810/670
f 632/810/671 639/829/671 612/825/671
f 633/816/672 612/825/672 638/826/672
f 633/816/673 638/826/673 630/807/673
f 630/807/674 638/826/674 611/840/674
f 631/815/675 611/822/675 637/823/675
f 631/815/676 637/823/676 628/804/676
f 628/804/677 637/823/677 610/819/677
f 629/814/678 610/819/678 636/820/678
f 629/814/679 636/820/679 626/801/679
f 626/801/680 636/820/680 614/831/680
f 634/813/681 613/828/681 635/817/681
f 634/813/682 635/817/682 625/812/682
f 625/812/683 635/817/683 608/808/683
f 632/810/684 612/825/684 633/816/684
f 632/810/685 633/816/685 624/809/685
f 624/809/686 633/816/686 607/805/686
f 630/807/687 611/840/687 631/845/687
f 630/807/688 631/845/688 622/806/688
f 622/806/689 631/845/689 606/846/689
f 628/804/690 610/819/690 629/814/690
f 628/804/691 629/814/691 618/803/691
f 618/803/692 629/814/692 605/789/692
f 626/801/693 614/831/693 627/818/693
f 626/801/694 627/818/694 619/791/694
f 619/791/695 627/818/695 609/811/695
f 620/800/696 609/811/696 625/812/696
f 620/800/697 625/812/697 623/799/697
f 623/799/698 625/812/698 608/808/698
f 623/797/699 608/808/699 624/809/699
f 623/797/700 624/809/700 621/796/700
f 621/796/701 624/809/701 607/805/701
f 621/794/702 607/805/702 622/806/702
f 621/794/703 622/806/703 616/793/703
f 616/793/704 622/806/704 606/846/704
f 619/791/705 609/811/705 620/847/705
f 619/791/706 620/847/706 617/790/706
f 617/790/707 620/847/707 604/848/707
f 616/788/708 606/802/708 618/803/708
f 616/788/709 618/803/709 617/787/709
f 617/787/710 618/803/710 605/789/710
