# Blender 5.1.1
# www.blender.org
mtllib low_poly_wolf_animated0016.mtl
o Wolf
v -0.164597 3.564439 -2.108165
v -0.513392 1.626082 -2.286805
v 0.014469 3.805563 -0.869291
v -0.492070 1.859430 -2.654216
v -0.707723 1.736436 -2.034275
v 0.139224 3.114160 3.140951
v 0.572529 3.466740 0.373085
v -0.551072 3.099360 -2.040608
v 0.236214 2.093745 -0.369583
v -0.774403 2.327070 -1.444498
v 0.313160 3.155015 2.868297
v -0.571848 1.788308 -1.798122
v -0.614802 3.271609 -1.057953
v -0.853172 0.527034 -2.451112
v 0.682406 3.182929 -1.787604
v -0.297390 2.254364 -1.555946
v -0.849381 2.360274 -1.904615
v -0.104099 2.490088 1.655127
v -0.561049 1.889923 -2.684949
v 0.324861 2.432162 -0.871860
v -0.138776 1.851165 0.247252
v -0.400767 0.564135 2.162085
v 0.454699 1.910078 -2.303032
v -0.574827 1.569312 0.535374
v -0.246927 0.498837 1.938907
v -0.115230 3.139516 -2.250852
v -0.482469 3.389482 -1.179532
v 0.335091 1.861488 0.231115
v -0.539022 2.747745 -0.269970
v -0.385778 1.600345 0.862098
v 0.520570 1.728288 -2.971022
v -0.420360 2.550102 -1.084752
v -0.475910 2.994331 1.425786
v -0.158826 2.437439 -3.275091
v 0.137649 2.363780 -1.667154
v -0.568887 2.577945 0.147976
v -0.226992 3.749666 1.101309
v -0.248879 0.745498 1.840156
v -0.435237 3.444779 0.407194
v -0.483264 1.660718 0.904993
v -0.448919 3.126020 1.249974
v 0.615460 3.494626 1.229421
v 0.454034 3.782353 2.811734
v -0.383319 4.276230 2.375353
v 0.433218 3.808228 2.829952
v 0.417281 3.814193 2.838784
v -0.790658 2.926814 -1.615164
v 0.381994 3.809329 2.851656
v -0.120344 3.608858 2.781030
v 0.353502 3.784519 2.854332
v 0.345435 3.767384 2.851355
v 0.655235 3.488966 2.265208
v 0.345528 3.731870 2.838190
v 0.353680 3.716969 2.829291
v -0.055676 3.162165 -2.314900
v 0.382282 3.700030 2.811140
v 0.399933 3.699650 2.803663
v 0.417569 3.704894 2.798268
v 0.652799 3.264416 1.053231
v 0.446060 3.729703 2.795591
v 0.454128 3.746843 2.798568
v -0.576996 0.695570 2.088173
v 0.454034 3.794023 2.807113
v -0.093652 3.767242 2.848205
v 0.433218 3.820101 2.824928
v 0.417281 3.826191 2.833662
v -0.471161 0.775586 2.134820
v 0.381994 3.821563 2.846592
v 0.940095 0.633915 2.130085
v 0.353502 3.796969 2.849606
v 0.345435 3.779928 2.846864
v 0.489178 3.346778 -1.541616
v 0.345528 3.744461 2.834219
v 0.353680 3.729465 2.825565
v 0.645063 0.839267 1.541863
v 0.382282 3.712174 2.807731
v 0.399933 3.711610 2.800284
v 0.417569 3.716689 2.794826
v -0.413773 4.026579 2.219206
v 0.446060 3.741311 2.791782
v 0.454128 3.758425 2.794498
v -0.153232 4.059552 2.720245
v -0.452637 2.938900 -2.195851
v -0.115845 3.849782 0.975557
v -0.260431 2.435834 -0.843082
v -0.120529 2.203202 -3.304635
v 0.666299 0.762365 -2.869440
v 0.830145 2.689987 -1.646878
v 0.393858 3.768180 2.825422
v -0.062863 3.740743 2.814744
v 0.715767 3.303014 0.296637
v 0.510482 2.975108 1.861637
v -0.475186 3.313689 -2.005487
v 0.696580 2.953282 -2.001693
v -0.533825 2.514634 1.421069
v 0.139293 2.526608 1.859269
v 0.035033 3.703004 2.903083
v 0.446216 2.927181 -2.210971
v -0.765823 2.849718 -1.233288
v -0.447447 0.661736 2.286442
v 0.571863 1.788309 -1.797955
v 0.471159 3.790954 2.759070
v 0.466973 3.816655 2.769871
v 0.454962 3.838727 2.782648
v 0.436303 3.855058 2.796134
v 0.412821 3.864040 2.808998
v 0.386815 3.864798 2.819992
v 0.360832 3.857236 2.828040
v 0.337413 3.842135 2.832342
v 0.318852 3.820971 2.832480
v 0.306966 3.795821 2.828447
v 0.302917 3.769137 2.820643
v 0.307104 3.743483 2.809844
v 0.319114 3.721374 2.797104
v 0.337774 3.704987 2.783659
v 0.361256 3.695947 2.770814
v 0.387261 3.695125 2.759833
v 0.413245 3.702597 2.751796
v 0.436664 3.717700 2.747477
v 0.455224 3.738910 2.747303
v 0.467110 3.764164 2.751293
v -0.137663 3.785326 2.828855
v -0.637647 1.411214 -2.896953
v 0.558560 1.399839 -2.649554
v -0.116415 3.812089 2.845080
v -0.100073 3.818698 2.852607
v 0.441143 3.768491 2.803196
v -0.063795 3.815215 2.862879
v -0.359956 2.371182 -2.066707
v -0.034390 3.791541 2.863763
v -0.026011 3.774760 2.860425
v -0.558560 1.399838 -2.649554
v -0.025917 3.739177 2.847846
v -0.034213 3.723922 2.839813
v -0.375283 0.801400 1.524775
v -0.063507 3.705722 2.824139
v -0.081639 3.704599 2.818018
v -0.099785 3.709120 2.813882
v -0.639200 2.722916 1.307069
v -0.129189 3.732843 2.812964
v -0.137569 3.749707 2.816274
v 0.470330 3.316394 -2.012766
v 0.650182 4.292131 2.337189
v -0.686755 1.858397 -2.580404
v 0.185598 3.122604 3.276339
v -0.336850 3.678947 0.898754
v -0.079460 3.738179 2.810137
v -0.168907 1.867849 0.627035
v -0.199273 4.121998 2.589973
v 0.261340 3.285318 3.337786
v -0.565305 0.623763 1.939989
v 0.472959 2.433491 -2.309599
v -0.587111 0.482931 -2.445247
v 0.705660 3.012505 1.382189
v 0.027344 3.150355 2.878839
v 0.791993 2.362100 1.267477
v -0.751112 2.586156 -2.049844
v -0.018447 2.811785 2.139212
v -0.062916 3.751164 2.835186
v -0.453780 1.603325 0.340225
v 0.301945 2.255610 -1.558274
v -0.158200 3.781622 2.782217
v -0.154035 3.807468 2.792684
v -0.141813 3.829935 2.804538
v -0.122730 3.846874 2.816605
v -0.098652 3.856618 2.827692
v -0.071937 3.858217 2.836726
v -0.045201 3.851492 2.842822
v -0.021060 3.837142 2.845372
v -0.001878 3.816565 2.844129
v 0.010469 3.791780 2.839225
v 0.014771 3.765191 2.831144
v 0.010607 3.739375 2.820683
v -0.001615 3.716869 2.808863
v -0.020699 3.699882 2.796832
v -0.044777 3.690092 2.785758
v -0.071492 3.688440 2.776734
v -0.098228 3.695086 2.770645
v -0.122369 3.709446 2.768079
v -0.141551 3.730069 2.769287
v -0.153898 3.754952 2.774154
v 0.544291 3.778876 1.293232
v 0.791741 2.929221 -1.618825
v 0.376027 3.293026 3.073203
v -0.454699 1.910078 -2.303033
v -0.203807 3.680173 0.425659
v 0.141275 3.746459 0.726403
v -0.738349 1.949185 -1.633742
v -0.682912 3.178755 -1.780484
v -0.626750 1.916432 0.933366
v -0.821739 2.009301 -1.822471
v 0.686493 3.573873 1.847725
v 0.476659 2.216118 -1.266982
v -0.480460 3.331624 -1.517255
v 0.521337 3.517414 2.640794
v -0.463424 2.211722 -1.262224
v 0.707723 1.736437 -2.034275
v 0.176527 3.675822 3.019768
v -0.352213 3.237429 -2.155094
v 0.120134 1.864763 0.890929
v -0.652780 2.375058 1.160557
v -0.172983 3.941649 1.326582
v -0.500709 1.470845 -2.855382
v -0.491289 3.469943 -0.106179
v 0.153174 3.707696 -1.853646
v -0.465177 2.412786 -0.363152
v -0.310943 4.186648 2.254943
v 0.596118 1.598652 0.359146
v 0.804318 1.989491 0.660893
v -0.576203 3.275570 0.340813
v -0.444887 1.315260 0.586965
v -0.392884 3.258917 1.390239
v -0.359363 3.482441 2.164154
v -0.523518 3.303043 -0.131443
v -0.591279 1.716797 -2.962900
v 0.372715 3.184069 2.504537
v -0.517965 2.977742 0.628143
v 0.660124 2.773736 -0.310757
v -0.465623 3.045550 -0.691148
v 0.182168 3.115395 3.180146
v -0.409293 3.957917 2.355122
v 0.591279 1.716797 -2.962900
v -0.137663 3.772705 2.833558
v -0.019353 2.176744 -3.699933
v -0.188776 3.749811 -1.317003
v -0.116415 3.799266 2.850224
v -0.100073 3.805757 2.857866
v -0.544137 0.811207 -2.638991
v -0.063795 3.802060 2.868099
v 0.845020 0.525456 -2.437083
v -0.034390 3.778195 2.868639
v -0.026011 3.761328 2.865055
v -0.502664 0.459823 1.954806
v -0.025917 3.725813 2.851890
v -0.034213 3.710643 2.843597
v -0.163635 2.177382 -3.693499
v -0.063507 3.692761 2.827582
v -0.081639 3.691797 2.821425
v -0.099785 3.696458 2.817349
v 0.849384 2.360271 -1.904603
v -0.129189 3.720324 2.816808
v -0.137569 3.737195 2.820392
v -0.750287 0.710242 -2.392057
v -0.071029 2.175074 -3.244219
v -0.488405 0.832745 1.825312
v 0.500151 3.692392 0.861564
v 0.195889 3.752967 -1.332908
v 0.057794 3.159197 2.960910
v 0.388320 3.830302 2.891234
v 0.745573 3.125957 -1.012900
v -0.217327 3.924489 2.731442
v 0.452451 4.069036 2.697984
v -0.110027 3.325717 -2.423523
v -0.103819 3.739606 2.813472
v 0.257564 3.129679 3.071926
v 0.222274 3.121319 3.144458
v -0.452721 3.335646 -0.689514
v -0.209382 3.693790 -0.156537
v -0.093212 2.022288 -3.718876
v 0.544156 3.067052 -0.725027
v 0.390181 1.879964 0.608012
v 0.453693 2.637875 -0.825457
v 0.567741 3.970721 1.804547
v -0.458666 3.243159 1.092820
v -0.026969 2.864495 -2.542469
v 0.666087 1.627580 0.302132
v -0.854394 0.529199 -2.457382
v 0.002934 3.582397 2.989276
v -0.076096 3.761137 2.842573
v -0.327923 2.855429 -2.235746
v 0.886053 2.406938 1.107687
v 0.550647 1.680856 0.495833
v -0.692047 3.135924 -1.459659
v -0.329713 3.594294 -0.688144
v 0.738347 1.949226 -1.633590
v 0.699318 4.451621 2.380555
v 0.459165 1.954288 -1.760160
v -0.502281 0.763239 -2.846071
v 0.699529 3.146519 -1.476440
v -0.024721 3.286492 3.087985
v 0.821752 2.009308 -1.822326
v 0.702984 0.824755 1.488098
v 0.781934 0.589752 2.121853
v 0.104020 4.016585 1.468364
v 0.442259 0.564132 -2.596725
v 0.112840 3.043000 -2.537133
v 0.380482 3.757818 2.819000
v 0.007461 2.489504 -1.967817
v 0.182020 3.109588 3.173580
v 0.288566 3.162959 2.952398
v -0.163775 3.043184 -2.527871
v 0.257712 3.135487 3.078491
v 0.795521 0.678617 1.746825
v 0.761698 4.363086 2.376151
v 0.519089 3.355975 -0.722020
v -0.294576 3.515524 1.144127
v -0.588089 2.541960 -2.262946
v 0.320034 3.657741 2.915346
v 0.561049 1.889923 -2.684949
v 0.873933 0.489640 1.907980
v 0.222127 3.115512 3.137893
v 0.676764 4.043378 2.178306
v 0.592423 3.493417 -0.143043
v 0.510936 3.408243 -1.209540
v 0.513392 1.626083 -2.286805
v 0.478402 4.216320 2.352292
v 0.110239 3.282315 3.340676
v 0.009310 2.393236 -1.435208
v -0.244068 2.477133 -1.177721
v 0.411596 3.774814 2.829763
v -0.729230 0.486813 -2.496169
v -0.381700 1.208538 1.341158
v 0.598830 2.022106 0.394085
v 0.238990 2.431395 -1.905667
v 0.689927 3.002733 0.586642
v 0.660785 3.143975 1.209215
v 0.865030 0.657113 -2.509846
v 0.948286 0.630352 2.118555
v -0.339675 1.884468 0.356214
v -0.666298 0.762365 -2.869440
v -0.058250 3.744746 2.822027
v -0.314526 0.818482 1.574505
v 0.834796 0.861406 1.780302
v 0.793357 2.914184 0.769337
v 0.321626 3.669136 2.843374
v 0.486553 3.527916 1.114420
v -0.604851 2.885491 0.817548
v 0.702320 0.774868 -2.692051
v 0.478895 1.833241 0.387986
v -0.375647 2.622257 -0.801167
v -0.068504 2.590876 -3.283474
v -0.696571 2.953459 -2.000667
v 0.928274 0.656114 1.889183
v 0.729230 0.486813 -2.496169
v -0.113879 3.743114 2.821324
v 0.151795 4.121488 2.794479
v -0.009274 3.605116 -2.228298
v 0.731353 1.687027 0.863677
v -0.180003 3.758143 0.849178
v 0.348823 3.172198 -2.176622
v 0.877996 1.577785 0.874643
v -0.504077 3.513385 0.915394
v -0.865030 0.657113 -2.509846
v -0.242366 2.964660 1.889836
v -0.342634 3.766162 1.328269
v -0.319100 3.980649 1.824290
v -0.270253 1.817002 0.413474
v 0.024553 2.308912 -0.861642
v -0.336451 2.201640 -0.370232
v 0.532877 2.123644 1.246497
v -0.568559 0.597497 2.170152
v 0.386428 3.608639 -0.711979
v -0.159759 2.934924 2.072029
v 0.481088 3.325778 2.452078
v 0.367699 2.497744 1.638121
v 0.161553 3.906896 2.968831
v -0.298258 2.727476 1.716819
v -0.464268 3.505505 1.528312
v -0.711724 0.550427 -2.287575
v 0.093362 1.890478 0.119219
v -0.577205 2.604333 -1.093685
v -0.368858 3.473258 2.303293
v -0.472805 2.433800 -2.309708
v -0.531167 3.286992 1.581787
v 0.309184 3.699431 -0.180681
v 0.651898 1.018123 1.580699
v 0.679300 1.231519 1.305068
v 0.749592 1.152804 1.543698
v -0.009686 2.499815 1.782070
v -0.520570 1.728288 -2.971022
v -0.060687 3.179244 2.471492
v 0.725664 2.606057 0.103954
v 0.511971 2.861185 -0.737436
v -0.442536 0.560275 2.243956
v 0.888177 1.059377 1.562228
v 0.652651 3.294726 -1.094569
v 0.521387 3.936085 2.704272
v 0.558842 2.740186 1.685100
v 0.612887 3.273832 1.352245
v 0.379554 3.621067 -1.248482
v -0.411588 3.479131 1.268674
v 0.686594 2.614287 0.493355
v 0.853172 0.527034 -2.451112
v -0.702380 3.101933 -0.975252
v 0.150886 3.566395 -2.112679
v 0.544137 0.811207 -2.638991
v -0.781186 0.471675 -2.357656
v 0.098729 3.132894 3.084355
v 0.205350 3.039724 3.148643
v 0.801467 1.599123 0.488558
v 0.423613 3.774960 2.824147
v 0.731760 0.800978 1.905456
v 0.323834 2.854784 -2.237938
v 0.310959 2.816483 2.127421
v -0.610365 2.430093 0.727467
v 0.018542 2.436667 -3.282851
v 0.324284 3.815105 0.937871
v 0.551961 4.164401 2.092320
v 0.041709 3.098117 3.169039
v -0.582847 1.959445 0.708079
v 0.411717 4.061553 1.795472
v -0.503901 2.588611 0.533779
v -0.493645 4.343867 2.422536
v 0.779521 2.330467 -1.449023
v 0.754826 2.110754 1.127506
v 0.251054 3.315468 3.439746
v -0.106040 3.766998 2.843490
v -0.378914 1.577533 0.392312
v -0.623961 1.545250 0.925732
v 0.779116 2.539766 1.375035
v 0.630057 3.328038 -0.170677
v -0.194700 2.000000 1.106762
v 0.584111 1.858205 0.959276
v 0.946886 0.728577 2.036336
v 0.949801 0.629865 2.112777
v 0.854394 0.529199 -2.457382
v 0.812591 2.460673 0.679126
v -0.163693 3.704585 -1.849009
v 0.459958 2.563526 -1.097683
v 0.765852 3.305395 1.532172
v 0.321916 3.102686 3.158705
v -0.278925 2.106455 1.274265
v -0.027843 2.202804 -3.308784
v 0.128482 2.029869 1.247901
v 0.333494 3.609726 -1.727806
v 0.829295 0.587822 2.200694
v -0.337411 1.838244 0.990622
v 0.779910 2.860264 -1.248814
v 0.191852 2.721089 -2.166164
v -0.642905 1.464764 -2.647887
v 0.420050 3.747561 2.794303
v -0.830148 2.689982 -1.646879
v 0.074649 3.326273 -2.428545
v -0.152278 2.364283 -1.651884
v 0.500710 1.470845 -2.855382
v 0.492070 1.859429 -2.654215
v 0.616259 0.517534 1.909545
v -0.477340 0.640727 -2.417683
v -0.124841 3.759918 2.823895
v -0.326436 0.996932 1.613978
v -0.564986 1.027901 1.611658
v -0.067710 3.823750 2.907740
v 0.546011 3.100067 -2.047522
v 0.409108 3.759673 1.077893
v 0.116806 3.338456 3.415753
v -0.442258 0.564133 -2.596725
v 0.251566 4.245258 2.462157
v -0.249268 0.688034 2.151576
v 0.686441 1.339764 0.548483
v 0.047732 3.096177 2.820994
v 0.395546 3.745409 2.792757
v 0.600830 0.763903 1.811252
v 0.635147 3.497518 2.127008
v -0.121592 3.750368 2.825375
v -0.433843 3.558397 1.890093
v -0.190738 2.718545 -2.161067
v 0.477340 0.640727 -2.417683
v 0.594715 2.435819 -0.399212
v -0.702320 0.774868 -2.692051
v -0.559765 0.601428 2.181105
v 0.604361 2.616096 -1.108404
v -0.374590 0.777014 1.943089
v -0.006003 3.769347 -1.894426
v 0.442756 2.013807 1.085079
v -0.341008 3.600050 -1.712359
v 0.624855 0.706967 2.121841
v -0.632046 2.909678 1.044465
v 0.841102 0.804010 2.090182
v 0.750287 0.710242 -2.392058
v -0.845019 0.525456 -2.437083
v 0.781186 0.471675 -2.357657
v 0.333206 3.694026 0.409656
v -0.032029 3.199568 -2.727172
v 0.038555 4.092347 1.823953
v -0.132533 4.189736 2.095498
v 0.057646 3.153389 2.954344
v -0.429707 2.841742 -0.707050
v 0.369963 3.949386 1.303314
v -0.236096 2.430724 -1.906345
v 0.865240 1.948750 0.882613
v 0.835193 2.938679 0.993296
v -0.458966 1.954234 -1.760155
v 0.689145 3.522552 1.482930
v 0.375062 3.751276 2.806199
v 0.541283 1.903568 0.326237
v 0.686755 1.858396 -2.580404
v 0.060931 3.703988 0.319380
v -0.782513 0.515025 -2.701729
v -0.432151 1.127207 1.583896
v 0.711724 0.550427 -2.287575
v 0.642905 1.464764 -2.647887
v 0.639828 2.822550 1.500080
v 0.139371 3.119967 3.147516
v -0.433946 4.434329 2.422094
v 0.633881 1.622431 0.827414
v 0.413380 3.173143 2.716596
v 0.110489 1.815583 0.575988
v -0.361472 3.607853 -1.226980
v -0.114368 2.209171 -4.175702
v -0.570440 0.596937 2.164490
v 0.486965 4.132701 2.564703
v 0.502281 0.763239 -2.846071
v -0.518866 0.481422 -2.701600
v 0.063029 3.142443 -2.256790
v 0.430554 3.751365 2.801406
v 0.658758 1.439794 -2.741262
v 0.379254 3.747413 2.798590
v 0.751113 2.586154 -2.049843
v 0.438315 3.758850 2.804894
v -0.658757 1.439794 -2.741262
v -0.397555 2.000515 0.427980
v 0.894509 2.037441 0.766476
v 0.637647 1.411214 -2.896953
v 0.782513 0.515025 -2.701729
v 0.098581 3.127087 3.077789
v 0.282763 2.504302 1.771447
v 0.438274 3.617173 2.760551
v 0.673925 3.536394 0.872643
v 0.086924 3.278802 -2.283070
v 0.155966 3.072658 2.455265
v -0.395659 2.806761 1.538053
v 0.518866 0.481422 -2.701600
v -0.507706 2.084002 1.170658
v -0.443626 0.651777 1.788976
v -0.084314 3.165793 2.735330
v 0.684254 3.974948 2.314607
v 0.158293 2.889022 2.229907
v 0.360976 2.371797 -2.066048
v -0.546452 2.334816 1.313674
v -0.208670 3.506518 2.667739
v 0.588048 2.542046 -2.262968
v 0.286043 2.486990 -1.184553
v 0.130274 2.295768 1.482231
v -0.176261 3.315550 2.476545
v 0.474874 2.219649 -0.398079
v -0.091140 2.086031 -0.358078
v 0.868145 2.751763 1.254120
v -0.667648 2.003603 0.819617
v 0.354437 4.205091 2.091443
v 0.443346 2.943503 2.049537
v 0.832688 0.689464 2.242896
v 0.288419 3.157152 2.945832
v 0.290333 3.100178 2.812073
v -0.327862 1.661827 0.525716
v 0.587111 0.482931 -2.445247
v -0.182122 4.202588 2.425245
vn 0.3633 -0.3230 0.8739
vn 0.7325 0.1850 -0.6552
vn 0.3634 -0.3228 0.8739
vn -0.9933 0.0333 -0.1105
vn -0.8363 -0.4558 0.3048
vn 0.3634 -0.3230 0.8739
vn -0.3177 -0.7367 0.5970
vn 0.7899 -0.0330 -0.6124
vn -0.0800 0.9965 0.0241
vn 0.3633 -0.3228 0.8740
vn 0.9408 -0.2887 -0.1776
vn -0.9193 -0.3591 -0.1609
vn -0.9725 0.2047 -0.1114
vn -0.1995 -0.7404 0.6419
vn -0.8376 0.2984 0.4575
vn -0.9840 -0.1626 -0.0728
vn -0.7270 -0.5929 0.3464
vn 0.9957 0.0910 -0.0170
vn 0.5356 -0.4534 0.7124
vn -0.7092 0.3459 -0.6143
vn 0.5896 0.8075 -0.0166
vn -0.1257 -0.9867 -0.1028
vn -0.1466 -0.9336 -0.3269
vn 0.8297 0.5124 -0.2214
vn 0.8508 0.5255 0.0013
vn -0.9927 0.0124 -0.1203
vn -0.0269 -0.9996 -0.0013
vn 0.8614 -0.4912 0.1293
vn 0.4301 -0.8936 -0.1285
vn -0.9029 0.0939 -0.4194
vn 0.3635 -0.3230 0.8738
vn 0.1867 0.8977 -0.3992
vn -0.5957 0.7473 -0.2945
vn -0.3058 -0.9229 -0.2340
vn 0.9882 -0.0441 -0.1464
vn -0.5944 0.7946 0.1234
vn 0.5074 0.8418 -0.1844
vn 0.6755 0.3184 -0.6650
vn 0.4311 0.7378 0.5194
vn -0.0933 0.9942 -0.0528
vn 0.9867 0.1514 0.0598
vn -0.0116 0.9998 -0.0149
vn -0.9024 -0.3959 -0.1703
vn 0.9748 0.1162 -0.1906
vn -0.1433 -0.7044 0.6952
vn 0.0815 -0.4865 0.8699
vn -0.6090 -0.7754 0.1667
vn -0.1194 0.9416 0.3148
vn -0.1313 -0.8652 0.4839
vn 0.8734 -0.3675 -0.3196
vn -0.9840 0.1509 0.0945
vn -0.9451 -0.1881 -0.2671
vn -0.4216 -0.9029 -0.0838
vn 0.2004 0.9701 -0.1370
vn 0.6725 -0.6885 0.2714
vn 0.9761 -0.1560 -0.1515
vn 0.4200 0.7951 -0.4374
vn 0.3636 -0.3230 0.8738
vn 0.2800 0.8971 0.3419
vn -0.3005 -0.8102 0.5032
vn 0.6191 0.6781 0.3962
vn -0.3920 -0.8936 0.2187
vn -0.0386 -0.2555 0.9660
vn -0.7928 0.4439 -0.4176
vn -0.2196 0.5704 0.7915
vn -0.6900 0.5333 0.4893
vn 0.3632 -0.3231 0.8739
vn -0.5271 -0.4596 0.7148
vn -0.2288 0.1199 -0.9661
vn 0.9793 -0.2010 0.0240
vn -0.2638 0.8431 -0.4686
vn -0.9412 0.1201 -0.3157
vn -0.8188 -0.3874 0.4237
vn -0.9899 0.1152 -0.0823
vn -0.8986 0.4268 0.1014
vn 0.3249 -0.2325 0.9167
vn 0.8854 0.4635 0.0349
vn -0.8222 -0.4939 -0.2831
vn 0.0079 -0.9140 0.4055
vn -0.6263 0.3084 -0.7159
vn -0.7172 0.6711 -0.1877
vn 0.9152 -0.3832 0.1250
vn 0.2433 -0.9633 0.1135
vn -0.2846 0.2230 -0.9323
vn 0.9944 0.0805 -0.0679
vn -0.3836 -0.8934 -0.2337
vn 0.0417 0.9021 -0.4294
vn 0.7099 0.3444 -0.6144
vn -0.6394 -0.5642 0.5222
vn -0.9378 0.2705 -0.2178
vn 0.3771 -0.8947 -0.2392
vn -0.6989 -0.3396 0.6294
vn -0.9594 0.2369 -0.1529
vn -0.4498 -0.4345 0.7803
vn -0.9413 0.3352 0.0411
vn -0.3598 -0.8118 -0.4599
vn -0.0463 -0.8548 0.5169
vn -0.2797 -0.7790 0.5612
vn -0.2065 -0.8470 0.4899
vn 0.9976 0.0688 -0.0101
vn 0.1153 -0.9319 0.3439
vn -0.9838 -0.0045 -0.1791
vn -0.5831 0.5960 -0.5521
vn -0.4120 -0.6130 0.6742
vn 0.3324 -0.9421 -0.0431
vn -0.4120 -0.6125 0.6746
vn 0.8730 -0.4431 0.2038
vn -0.1406 -0.1245 -0.9822
vn 0.8728 -0.4437 0.2033
vn 0.7716 0.6021 0.2051
vn 0.9119 -0.2544 0.3220
vn 0.3410 -0.9030 0.2615
vn -0.1191 -0.7672 0.6303
vn 0.6544 -0.7356 0.1752
vn 0.7400 -0.6460 0.1873
vn 0.5556 -0.7769 0.2962
vn 0.5553 0.4990 0.6653
vn 0.8156 0.3233 0.4798
vn 0.9320 0.2955 -0.2101
vn -0.3151 0.1848 0.9309
vn 0.9568 -0.0949 0.2748
vn 0.7492 -0.6383 -0.1766
vn -0.9049 -0.1192 0.4086
vn 0.7228 0.3201 0.6124
vn 0.8717 0.2212 0.4373
vn -0.4144 0.0502 0.9087
vn -0.2819 0.2533 0.9254
vn -0.4144 0.0499 0.9087
vn 0.6471 0.3671 0.6682
vn -0.5081 -0.2904 0.8108
vn 0.2226 0.5505 0.8046
vn -0.7041 0.3033 0.6421
vn -0.2071 0.3519 0.9128
vn -0.8916 0.4249 -0.1568
vn -0.0479 0.3417 0.9386
vn -0.8753 0.3191 0.3633
vn 0.9944 -0.0327 0.1005
vn 0.4711 0.7090 0.5247
vn 0.1156 -0.9320 0.3436
vn -0.8670 0.4942 0.0635
vn -0.5742 0.6323 0.5200
vn -0.4823 -0.4056 0.7765
vn -0.7404 0.1134 -0.6625
vn 0.9899 -0.0466 0.1336
vn -0.7953 0.5421 -0.2713
vn -0.7708 0.5846 0.2533
vn -0.7164 0.6389 0.2804
vn -0.7997 0.1000 -0.5920
vn 0.9426 -0.2163 0.2545
vn -0.8250 0.4274 0.3697
vn 0.3406 -0.9032 0.2614
vn -0.9585 0.0869 -0.2714
vn 0.0342 0.0188 0.9992
vn -0.9108 -0.3146 0.2675
vn -0.7523 -0.6472 0.1228
vn -0.9838 -0.0561 0.1704
vn 0.9894 0.0515 -0.1355
vn -0.6985 0.1900 0.6900
vn 0.3408 0.5411 0.7688
vn 0.9412 0.1201 -0.3157
vn -0.4447 -0.8926 -0.0742
vn 0.9100 -0.0257 0.4139
vn 0.5919 0.8044 -0.0514
vn -0.6190 -0.6702 0.4095
vn -0.1950 -0.7727 0.6041
vn 0.9077 0.3774 -0.1832
vn -0.6401 -0.7214 0.2642
vn -0.6952 -0.5374 0.4773
vn -0.4010 -0.2006 0.8939
vn 0.8925 -0.4016 -0.2056
vn 0.4297 -0.7923 -0.4330
vn 0.1494 0.4327 0.8891
vn 0.2460 -0.7501 0.6138
vn -0.9852 -0.0604 0.1602
vn -0.8673 0.4733 -0.1544
vn -0.8758 0.4412 0.1960
vn -0.8521 0.3929 0.3457
vn 0.8030 -0.3343 0.4934
vn -0.0966 0.4296 0.8978
vn 0.8908 0.4480 0.0763
vn 0.9796 -0.1981 0.0345
vn 0.4723 -0.1855 0.8617
vn -0.9979 -0.0567 -0.0303
vn -0.5039 0.8574 0.1041
vn -0.4651 -0.2822 0.8391
vn -0.9571 0.1732 -0.2323
vn 0.0269 -0.9996 -0.0013
vn -0.7566 -0.2343 0.6105
vn -0.8755 -0.0534 0.4803
vn -0.0104 -0.9944 -0.1048
vn -0.2944 0.9422 -0.1603
vn -0.2997 0.5317 0.7921
vn -0.6987 0.5297 0.4809
vn -0.7728 0.2435 -0.5860
vn 0.7750 -0.4321 -0.4612
vn -0.5426 -0.8146 0.2049
vn -0.8810 0.0698 -0.4679
vn 0.7167 0.6283 -0.3026
vn 0.9972 -0.0066 0.0751
vn -0.2919 -0.9128 0.2855
vn -0.8630 0.4782 -0.1630
vn -0.9138 -0.2453 0.3237
vn -0.9674 -0.1804 -0.1780
vn 0.0140 0.7601 0.6497
vn 0.5358 0.8363 -0.1166
vn 0.6674 -0.6502 0.3632
vn -0.2912 -0.9563 -0.0247
vn -0.7930 -0.4705 -0.3871
vn 0.5513 -0.3882 0.7385
vn -0.3368 0.4060 -0.8495
vn 0.8835 -0.1607 0.4401
vn -0.0607 -0.9345 0.3508
vn 0.9883 -0.0995 -0.1157
vn 0.1325 0.9741 -0.1832
vn 0.0754 0.9901 -0.1182
vn 0.1066 0.3450 0.9325
vn -0.8528 -0.0609 -0.5186
vn 0.2630 0.3601 0.8951
vn -0.8486 0.4418 0.2911
vn -0.1796 0.5449 0.8191
vn 0.5751 -0.2713 0.7718
vn -0.7875 0.1674 -0.5931
vn 0.4786 0.0648 0.8756
vn 0.3416 0.2639 0.9020
vn 0.4786 0.0652 0.8756
vn -0.8434 0.1945 0.5008
vn -0.6851 0.2985 0.6645
vn 0.8677 0.1321 -0.4792
vn 0.9916 0.0605 -0.1142
vn -0.9303 -0.1243 0.3450
vn -0.3591 -0.9156 0.1809
vn 0.7200 0.2758 -0.6368
vn -0.5199 0.4826 0.7049
vn -0.7876 0.2984 0.5392
vn -0.5199 0.4826 0.7048
vn -0.5076 -0.7932 0.3363
vn -0.7034 -0.6684 0.2416
vn -0.6163 -0.7553 0.2230
vn 0.9098 -0.1647 0.3810
vn -0.2925 -0.9126 0.2857
vn -0.9802 0.0004 0.1980
vn -0.8536 0.4934 -0.1672
vn -0.8410 -0.4704 0.2674
vn -0.9601 -0.1850 0.2096
vn -0.8412 -0.4698 0.2679
vn 0.4801 -0.5979 0.6419
vn -0.0342 0.0188 0.9992
vn 0.4801 -0.5987 0.6411
vn -0.4570 -0.5094 0.7291
vn -0.9597 0.0285 0.2796
vn -0.0606 -0.9344 0.3510
vn 0.0546 -0.6623 -0.7472
vn 0.2684 -0.8393 0.4728
vn 0.3449 -0.7688 0.5385
vn 0.1112 -0.8520 0.5115
vn 0.9872 -0.0570 0.1490
vn -0.6340 -0.5575 0.5359
vn -0.9826 0.1625 -0.0897
vn -0.9770 -0.2014 -0.0695
vn 0.6935 0.3834 -0.6100
vn -0.7287 -0.1179 0.6746
vn 0.6006 -0.3236 0.7312
vn 0.9862 -0.0526 0.1568
vn -0.6492 0.5560 0.5190
vn 0.9893 0.0377 -0.1411
vn 0.9773 -0.1977 0.0758
vn -0.6259 0.0224 0.7795
vn 0.3248 0.0036 0.9458
vn 0.1542 -0.6538 0.7408
vn -0.9377 -0.3120 0.1526
vn 0.1088 0.1803 -0.9776
vn 0.5882 0.6323 -0.5041
vn -0.3859 0.9222 -0.0249
vn 0.9152 -0.0831 0.3943
vn -0.4459 0.7880 -0.4246
vn -0.2359 0.8824 0.4071
vn -0.6808 -0.5336 0.5018
vn 0.9783 -0.1547 0.1376
vn 0.9794 -0.1984 0.0375
vn -0.9618 0.0365 0.2715
vn 0.5846 0.8077 0.0768
vn 0.9884 -0.1038 -0.1110
vn 0.9781 0.0491 -0.2021
vn 0.8134 0.5456 0.2019
vn -0.2872 -0.3337 0.8979
vn 0.7997 0.4343 0.4145
vn 0.0629 0.9719 -0.2268
vn 0.6785 0.1294 -0.7231
vn 0.3179 -0.4203 0.8499
vn -0.5823 -0.4048 0.7050
vn -0.7330 0.6705 -0.1141
vn -0.2873 -0.3336 0.8979
vn -0.7206 0.6312 -0.2868
vn 0.8254 -0.4277 0.3684
vn -0.2874 -0.3336 0.8979
vn -0.3979 0.5675 0.7208
vn -0.1278 -0.4584 -0.8795
vn 0.3536 0.2546 0.9001
vn 0.9210 -0.3191 -0.2237
vn -0.8334 -0.1737 0.5246
vn -0.6921 0.6956 -0.1928
vn 0.1444 -0.9685 0.2029
vn 0.2668 -0.7655 0.5855
vn -0.7196 0.6824 -0.1285
vn -0.5354 -0.5611 0.6312
vn 0.7124 0.6890 -0.1338
vn -0.6650 0.7426 0.0802
vn -0.8793 0.4686 -0.0855
vn 0.8698 -0.4320 0.2381
vn 0.0490 -0.9175 -0.3948
vn 0.9572 0.1726 -0.2322
vn 0.7470 0.2310 0.6234
vn 0.7456 0.1452 0.6504
vn 0.8604 0.4604 -0.2183
vn -0.4235 -0.8108 -0.4040
vn -0.8012 0.5396 0.2587
vn 0.9588 -0.2586 0.1178
vn 0.9273 -0.3723 -0.0384
vn -0.2427 -0.7336 0.6347
vn -0.8275 -0.0680 -0.5574
vn 0.7358 -0.4649 0.4925
vn -0.2874 -0.3336 0.8978
vn -0.1946 0.8419 -0.5032
vn -0.7470 0.2310 0.6234
vn 0.2881 -0.1855 0.9395
vn -0.6935 0.3834 -0.6100
vn 0.9402 0.2675 0.2108
vn 0.8471 -0.4802 0.2275
vn -0.3140 -0.5064 0.8031
vn 0.7878 0.3425 0.5120
vn 0.5798 0.8147 0.0114
vn -0.7667 -0.5145 0.3840
vn 0.7928 0.0097 -0.6094
vn -0.1559 0.9730 -0.1704
vn 0.3301 -0.9415 0.0675
vn -0.8323 -0.3280 0.4468
vn 0.7611 -0.5829 0.2845
vn 0.2166 -0.2902 0.9321
vn -0.8393 -0.3902 0.3786
vn -0.9531 0.3006 0.0362
vn 0.9951 0.0861 0.0479
vn 0.9862 0.0755 0.1472
vn -0.2872 -0.3334 0.8979
vn 0.2611 -0.9393 -0.2224
vn 0.2489 -0.4745 0.8443
vn -0.6851 0.6074 0.4022
vn -0.2873 -0.3337 0.8978
vn -0.0681 -0.5378 -0.8403
vn -0.0825 -0.6736 0.7345
vn -0.2873 -0.3334 0.8979
vn -0.6694 -0.6440 0.3703
vn -0.2515 -0.2450 0.9363
vn -0.9784 0.1715 0.1152
vn 0.8351 0.4552 0.3087
vn -0.9884 -0.1038 -0.1110
vn 0.6575 -0.6053 0.4486
vn -0.3108 -0.0340 0.9499
vn 0.9805 0.0531 -0.1890
vn 0.1728 0.5402 -0.8236
vn 0.5736 0.6722 0.4681
vn -0.2549 0.8017 0.5406
vn -0.5501 -0.7363 -0.3939
vn 0.6853 0.5495 -0.4779
vn -0.9108 0.0266 -0.4120
vn -0.7004 0.6886 -0.1878
vn -0.9365 0.2482 -0.2476
vn -0.6908 0.7149 -0.1086
vn 0.9419 0.3356 0.0107
vn -0.9353 0.1149 0.3346
vn 0.6090 -0.7754 0.1667
vn 0.8644 0.2773 -0.4194
vn -0.8908 0.4480 0.0763
vn 0.9432 -0.0525 0.3282
vn 0.9194 0.3932 -0.0046
vn 0.1406 -0.1245 -0.9822
vn -0.8905 -0.0865 0.4466
vn -0.1524 -0.9433 0.2949
vn -0.8047 0.3926 0.4454
vn 0.8101 0.5103 -0.2887
vn -0.9952 -0.0923 -0.0338
vn -0.7649 0.0304 0.6434
vn -0.3467 -0.8591 -0.3766
vn -0.1204 0.9554 -0.2696
vn -0.8615 -0.2278 -0.4538
vn 0.8114 0.0644 0.5809
vn -0.9121 0.4089 0.0286
vn 0.4897 0.8087 -0.3259
vn 0.5039 0.8574 0.1041
vn 0.8352 -0.5096 0.2068
vn 0.8715 -0.4707 0.1372
vn -0.9365 -0.2996 0.1823
vn -0.9829 -0.0762 0.1677
vn 0.6746 -0.2965 -0.6760
vn 0.9348 -0.0911 -0.3433
vn -0.1322 -0.9574 0.2566
vn -0.0273 -0.9201 -0.3906
vn 0.8316 -0.0733 0.5504
vn -0.9616 -0.1637 0.2203
vn -0.6950 0.0413 0.7178
vn -0.8764 -0.4054 -0.2601
vn -0.9435 -0.2302 0.2382
vn -0.9701 -0.1399 -0.1984
vn 0.5675 -0.4648 0.6796
vn 0.6383 -0.7327 0.2362
vn 0.7069 0.6843 -0.1788
vn -0.4801 -0.1208 0.8688
vn -0.5771 0.4307 -0.6939
vn -0.7806 0.4096 0.4722
vn -0.9771 -0.2113 0.0252
vn -0.9977 0.0083 -0.0679
vn 0.0438 0.9360 -0.3494
vn -0.8201 0.3582 -0.4462
vn -0.7607 -0.6412 -0.1008
vn 0.6814 -0.4304 0.5920
vn -0.6266 0.5622 0.5397
vn 0.3221 -0.6659 0.6729
vn -0.6604 0.6655 -0.3478
vn 0.8086 -0.4903 0.3254
vn 0.6000 0.3989 -0.6935
vn 0.5433 -0.1010 0.8335
vn 0.3489 0.9192 0.1826
vn 0.8483 0.4752 0.2334
vn 0.5670 0.8235 -0.0175
vn 0.0445 0.9382 -0.3431
vn -0.9127 -0.2493 0.3239
vn 0.9813 -0.1833 -0.0590
vn -0.7055 -0.3264 -0.6290
vn -0.9980 0.0256 0.0577
vn -0.5741 -0.1900 -0.7964
vn -0.2028 -0.9706 0.1300
vn -0.7831 0.3603 -0.5069
vn 0.7797 -0.0940 0.6191
vn -0.0434 -0.9302 -0.3644
vn 0.0340 0.9994 0.0078
vn -0.7743 -0.4823 -0.4097
vn 0.5476 -0.6221 0.5595
vn 0.8577 -0.1842 0.4801
vn -0.3938 -0.8239 0.4075
vn 0.0332 -0.6653 -0.7459
vn 0.8181 -0.3827 0.4293
vn -0.7981 0.2664 -0.5405
vn -0.8733 0.1685 -0.4572
vn -0.6040 -0.6231 0.4969
vn 0.1129 0.1736 -0.9783
vn -0.9373 -0.3294 -0.1137
vn 0.2624 -0.2461 -0.9331
vn -0.5725 -0.1880 -0.7980
vn -0.0999 -0.9022 0.4196
vn 0.2505 0.1646 -0.9540
vn 0.6890 -0.6628 0.2932
vn 0.8227 0.4177 0.3855
vn -0.0969 -0.9168 0.3875
vn 0.8236 0.1910 -0.5341
vn 0.5924 0.2098 0.7778
vn -0.7858 -0.0986 0.6105
vn 0.7857 -0.2563 0.5630
vn 0.7263 0.6806 -0.0968
vn -0.7316 0.4064 0.5474
vn -0.2725 -0.0974 0.9572
vn 0.2999 -0.7681 0.5658
vn -0.5988 -0.6104 0.5185
vn 0.3836 -0.8934 -0.2337
vn -0.4207 -0.8991 -0.1210
vn 0.3571 -0.8436 -0.4009
vn -0.6164 0.7854 0.0561
vn 0.5187 0.4269 -0.7407
vn -0.5188 0.4272 -0.7405
vn 0.7324 -0.4602 0.5018
vn -0.0273 -0.7191 0.6944
vn 0.5262 0.7463 -0.4076
vn -0.9625 0.2681 0.0418
vn 0.3339 -0.6333 0.6981
vn -0.8891 0.4577 -0.0026
vn -0.1395 -0.2957 0.9450
vn 0.6578 0.7162 -0.2334
vn -0.9773 -0.1977 0.0758
vn -0.8934 -0.1237 0.4319
vn 0.4877 0.8605 0.1470
vn -0.8291 -0.1892 0.5261
vn -0.0474 -0.7130 0.6996
vn -0.3904 0.6272 0.6740
vn -0.7619 -0.5820 0.2843
vn 0.8761 0.0592 -0.4786
vn 0.5246 -0.1642 -0.8354
vn 0.6810 -0.6999 0.2155
vn -0.1570 -0.8490 0.5045
vn -0.8710 0.3073 -0.3833
vn 0.9530 -0.1557 -0.2599
vn 0.2651 -0.9543 -0.1377
vn 0.5833 0.3356 -0.7397
vn -0.6214 -0.4583 0.6354
vn 0.3458 -0.0876 0.9342
vn 0.6747 0.6998 -0.2345
vn 0.9476 -0.2811 -0.1515
vn -0.7520 0.0195 0.6589
vn -0.6321 -0.3943 0.6670
vn 0.7251 -0.6091 0.3214
vn 0.7116 -0.6778 0.1849
vn -0.0783 0.9930 -0.0881
vn -0.6059 0.1933 -0.7717
vn -0.9300 0.3513 -0.1078
vn -0.8663 -0.2673 -0.4220
vn -0.9503 0.0846 0.2995
vn 0.7763 0.3553 -0.5207
vn -0.2719 0.9488 0.1609
vn 0.6809 0.7308 0.0480
vn -0.9839 0.1514 0.0946
vn 0.3910 -0.9081 0.1498
vn -0.6437 0.3968 -0.6544
vn 0.1704 -0.3348 -0.9268
vn -0.3186 -0.8678 -0.3814
vn -0.7372 0.3025 -0.6042
vn -0.8001 -0.0221 -0.5995
vn 0.8698 -0.1539 0.4688
vn 0.2472 -0.5782 0.7775
vn 0.8765 -0.3673 0.3112
vn -0.2083 -0.9664 -0.1506
vn -0.9992 0.0388 0.0004
vn 0.7973 0.0428 0.6020
vn 0.9933 0.0329 -0.1105
vn -0.0601 0.9970 -0.0479
vn -0.0431 -0.8764 -0.4796
vn -0.9883 -0.0995 -0.1157
vn -0.0032 0.9947 -0.1031
vn 0.2463 0.8817 0.4023
vn -0.1420 0.9625 -0.2312
vn 0.7694 -0.4868 -0.4136
vn -0.9939 0.0291 -0.1059
vn 0.7779 -0.6253 0.0621
vn 0.9414 0.2581 -0.2172
vn -0.6190 0.7850 0.0243
vn 0.3479 -0.9279 0.1342
vn -0.2870 0.8203 0.4947
vn 0.3936 -0.8338 -0.3872
vn 0.9200 0.1745 -0.3510
vn -0.2101 -0.1957 0.9579
vn -0.0915 -0.9681 -0.2333
vn -0.9914 0.0448 -0.1232
vn -0.9000 -0.4323 -0.0557
vn 0.3414 0.5343 0.7733
vn -0.1576 -0.3418 -0.9265
vn 0.7786 -0.2223 0.5868
vn 0.1946 0.8419 -0.5032
vn 0.4742 -0.8734 -0.1112
vn -0.8291 -0.1872 0.5268
vn -0.0799 -0.1987 -0.9768
vn 0.4789 0.6965 0.5343
vn 0.4947 -0.8049 -0.3279
vn -0.9773 -0.1749 0.1199
vn -0.3324 -0.9421 -0.0431
vn -0.8716 -0.4706 0.1371
vn 0.4050 -0.8432 -0.3536
vn -0.0058 -0.6478 -0.7618
vn 0.1111 -0.7641 0.6355
vn -0.9833 -0.0541 0.1738
vn 0.6790 0.7327 0.0458
vn 0.6539 -0.5937 0.4689
vn -0.6961 0.6705 -0.2569
vn 0.8630 -0.2165 -0.4565
vn -0.4975 0.7803 -0.3790
vn -0.6653 0.6394 -0.3854
vn 0.1249 -0.7126 0.6904
vn -0.8303 -0.4347 -0.3488
vn -0.0323 0.9927 -0.1165
vn 0.7944 0.1863 0.5781
vn 0.6760 0.7040 -0.2178
vn -0.9873 0.0688 -0.1429
vn 0.2275 -0.8407 0.4914
vn -0.2859 0.7250 0.6266
vn -0.6076 0.3475 0.7142
vn -0.8957 0.1030 0.4326
vn -0.4298 -0.8960 -0.1116
vn -0.9472 0.3088 0.0859
vn 0.9173 0.2443 -0.3146
vn -0.8408 -0.5062 -0.1919
vn -0.9805 -0.1798 -0.0788
vn -0.5596 0.8232 -0.0964
vn 0.9259 -0.3147 -0.2089
vn 0.3108 -0.0340 0.9499
vn -0.6454 -0.6966 0.3132
vn -0.9150 0.4015 0.0403
vn 0.2341 0.2691 -0.9342
vn 0.1008 -0.7192 0.6874
vn -0.2622 -0.6403 0.7220
vn -0.2839 -0.9548 0.0883
vn -0.2469 -0.6782 0.6922
vn 0.8136 -0.4578 0.3584
vn 0.3941 -0.8238 0.4074
vn 0.0593 -0.9277 -0.3685
vn 0.9371 -0.2911 0.1925
vn 0.9532 0.1457 0.2650
vn 0.5069 -0.0142 -0.8619
vn -0.8956 -0.4437 -0.0311
vn 0.8323 -0.3281 0.4468
vn 0.4699 0.3709 -0.8010
vn 0.1166 -0.2530 0.9604
vn -0.7944 0.1863 0.5781
vn 0.0104 -0.9944 -0.1048
vn 0.9715 0.1112 -0.2095
vn 0.1670 -0.8964 0.4107
vn -0.6224 0.7826 -0.0056
vn 0.2956 -0.6162 -0.7300
vn -0.9938 0.0156 -0.1100
vn 0.9365 0.2482 -0.2476
vn -0.5082 0.7786 -0.3680
vn 0.2196 0.5704 0.7915
vn -0.7044 0.1176 0.7000
vn 0.8239 -0.5635 -0.0608
vn -0.7719 -0.4899 -0.4051
vn 0.1278 -0.4584 -0.8795
vn -0.3004 0.5245 0.7967
vn -0.2975 -0.9419 0.1562
vn -0.0117 -0.2066 -0.9784
vn 0.2966 0.8296 0.4731
vn 0.8037 -0.4049 -0.4361
vn -0.8023 -0.1849 0.5676
vn 0.8202 -0.4459 0.3584
vn 0.1055 -0.9649 -0.2406
vn 0.5623 0.5873 -0.5822
vn -0.1508 -0.9860 0.0704
vn 0.9143 -0.3469 0.2090
vn 0.9572 0.1802 -0.2266
vn 0.5640 -0.2956 0.7711
vn 0.6047 0.7928 -0.0769
vn 0.3885 -0.6782 0.6238
vn 0.6415 0.6711 -0.3717
vn 0.2215 -0.9625 -0.1566
vn 0.5776 0.6372 0.5103
vn 0.8220 -0.5010 -0.2708
vn 0.6979 0.6947 -0.1743
vn -0.0303 -0.6597 -0.7509
vn -0.0079 -0.9140 0.4055
vn 0.6437 0.3968 -0.6544
vn 0.1865 0.9817 -0.0384
vn -0.8123 -0.2065 0.5455
vn 0.9597 0.0285 0.2796
vn 0.8957 0.1030 0.4326
vn 0.9951 -0.0136 -0.0981
vn -0.9152 -0.3832 0.1250
vn 0.9763 0.1585 -0.1475
vn 0.6336 0.6705 -0.3859
vn -0.2007 -0.9764 -0.0798
vn 0.9655 -0.1990 0.1680
vn -0.8749 -0.2016 0.4404
vn -0.7713 -0.0637 -0.6333
vn 0.2007 -0.8584 0.4721
vn 0.9292 -0.1243 -0.3481
vn -0.2413 -0.4326 0.8687
vn 0.6135 0.6535 -0.4434
vn -0.5721 0.6751 0.4658
vn 0.9231 -0.0577 0.3801
vn 0.8531 0.3350 0.4000
vn -0.7145 -0.6081 0.3461
vn -0.7130 0.6922 0.1118
vn 0.9449 0.3250 -0.0388
vn 0.3836 0.9168 -0.1112
vn 0.8534 0.4997 -0.1484
vn -0.2577 0.2805 -0.9246
vn 0.6947 -0.6676 0.2676
vn 0.8463 -0.4705 -0.2498
vn -0.1687 0.8367 -0.5210
vn 0.8889 0.4513 -0.0788
vn -0.4798 0.8673 -0.1327
vn 0.2673 -0.7349 0.6233
vn -0.5069 -0.0142 -0.8619
vn 0.8216 -0.4583 -0.3390
vn 0.3678 0.9144 0.1692
vn -0.4103 -0.8989 -0.1535
vn 0.9092 0.0261 -0.4155
vn 0.5397 0.3919 -0.7451
vn 1.0000 0.0091 0.0029
vn -0.9793 -0.2010 0.0244
vn 0.8991 0.3433 0.2716
vn 0.9524 0.2467 -0.1792
vn -0.9302 -0.3613 -0.0644
vn 0.9766 -0.2135 0.0250
vn -0.7894 -0.4124 0.4547
vn -0.9900 0.0714 -0.1220
vn -0.6349 0.3386 -0.6945
vn -0.3771 -0.8947 -0.2392
vn 0.0799 -0.1987 -0.9768
vn -0.9870 -0.0552 0.1506
vn -0.9599 -0.2591 0.1074
vn 0.6696 -0.1012 0.7358
vn 0.3944 -0.2401 -0.8870
vn 0.7982 0.5014 0.3339
vn 0.3153 -0.7211 0.6169
vn -0.9951 0.0306 -0.0936
vn 0.5231 -0.6924 0.4970
vn 0.7285 -0.0312 -0.6843
vn 0.1526 -0.9433 0.2948
vn 0.0861 0.9928 -0.0837
vn -0.6554 0.6653 -0.3575
vn -0.4543 0.5512 0.6998
vn 0.3769 -0.9235 -0.0707
vn 0.9838 -0.0045 -0.1791
vn 0.3715 -0.9171 -0.1447
vn 0.1611 -0.0191 0.9868
vn -0.5120 -0.8042 0.3020
vn 0.5747 -0.0140 0.8182
vn 0.6653 0.7460 -0.0308
vn 0.1758 0.2252 -0.9583
vn -0.1620 0.2180 -0.9624
vn -0.8357 0.3970 -0.3796
vn -0.7946 0.4668 0.3881
vn -0.7242 -0.5713 0.3863
vn -0.8353 -0.5095 0.2068
vn -0.2999 -0.7681 0.5658
vn 0.2700 0.7898 0.5508
vn 0.9451 -0.1881 -0.2671
vn -0.3859 -0.7947 -0.4685
vn -0.3882 -0.8064 -0.4461
vn 0.0681 -0.5378 -0.8403
vn 0.1257 -0.9867 -0.1028
vn -0.7109 0.2724 -0.6484
vn 0.0315 0.9424 -0.3330
vn 0.9814 -0.1625 0.1019
vn 0.9805 -0.1207 0.1550
vn 0.8630 -0.2538 0.4368
vn -0.9976 0.0478 0.0508
vn -0.4642 0.8839 -0.0568
vn -0.2378 -0.7678 0.5949
vn -0.0289 -0.2186 -0.9754
vn 0.9896 -0.0680 0.1265
vn -0.6113 -0.5170 0.5991
vn 0.3656 -0.8005 -0.4748
vn -0.8160 -0.5365 -0.2151
vn -0.9862 0.0755 0.1472
vn 0.2549 0.8017 0.5406
vn 0.3892 -0.4914 0.7791
vn -0.7200 0.6832 -0.1213
vn -0.5693 -0.4585 0.6824
vn -0.5350 -0.3482 0.7698
vn -0.1048 0.9690 -0.2239
vn -0.1746 0.2280 -0.9579
vn 0.4442 -0.8755 0.1903
vn 0.9560 -0.2817 0.0822
vn 0.8587 -0.3629 0.3617
vn 0.8963 -0.4389 -0.0641
vn 0.8443 0.4756 -0.2469
vn -0.9882 -0.0504 0.1449
vn -0.9414 0.2589 -0.2161
vn -0.2433 -0.9626 -0.1190
vn 0.5082 0.7786 -0.3680
vn -0.2324 -0.2719 -0.9338
vn -0.5594 -0.5041 0.6579
vn -0.9899 -0.0467 0.1336
vn -0.5683 0.3649 -0.7375
vn 0.8177 -0.0248 -0.5751
vn -0.5974 -0.5315 0.6006
vn 0.5414 0.7719 -0.3332
vn 0.9936 -0.0492 -0.1014
vn 0.9585 0.2832 -0.0329
vn 0.8750 -0.1466 0.4614
vn -0.5231 -0.6924 0.4970
vn 0.6528 0.3019 -0.6948
vn 0.6191 -0.7332 0.2813
vn 0.8988 -0.4357 0.0485
vn -0.0011 -0.4883 0.8727
vn 0.6583 0.5844 0.4746
vn 0.4322 0.5804 0.6902
vn 0.7488 0.4385 0.4970
vn 0.7467 0.1152 -0.6551
vn 0.9166 0.2688 0.2960
vn -0.7157 -0.6060 0.3471
vn 0.8469 -0.1591 0.5074
vn 0.9845 0.0735 -0.1595
vn -0.6441 -0.4803 0.5953
vn 0.9685 0.1124 0.2223
vn -0.9781 0.0491 -0.2021
vn 0.9069 0.4183 -0.0510
vn 0.3561 0.8197 -0.4487
vn -0.9539 -0.1358 -0.2678
vn 0.6458 -0.3881 0.6575
vn 0.7583 0.4260 -0.4934
vn 0.6176 0.1918 -0.7628
vn -0.6467 0.7617 -0.0395
vn -0.1898 -0.9714 -0.1426
vn 0.6369 0.5896 0.4967
vn 0.7402 0.3311 0.5852
vn -0.9100 0.2053 0.3604
vn -0.4263 0.7192 0.5486
vn -0.7154 -0.6596 0.2305
vn 0.8736 -0.1642 0.4580
vn -0.0765 -0.6652 -0.7428
vn 0.6008 -0.5365 0.5926
vn -0.7705 -0.4796 0.4199
vn -0.9569 0.1891 -0.2205
vn 0.7242 -0.5713 0.3863
vn 0.9802 0.0004 0.1980
vn 0.3164 -0.8117 -0.4910
vn -0.7865 -0.4596 0.4125
vn 0.2180 -0.4190 0.8814
vn 0.2165 -0.7008 0.6797
vn -0.4712 0.6759 0.5666
vn -0.4156 -0.5017 0.7586
vn -0.7584 0.6501 -0.0468
vn 0.9788 0.0589 0.1961
vn -0.3946 0.8979 0.1951
vn -0.2422 -0.4344 0.8675
vn -0.3176 -0.6295 -0.7092
vn 0.9960 -0.0173 0.0879
vn 0.8860 0.1011 -0.4526
vn 0.9958 -0.0180 0.0894
vn -0.1758 0.5399 -0.8232
vn -0.6910 -0.6780 0.2505
vn 0.5336 -0.2666 0.8026
vn -0.7487 0.1312 -0.6498
vn 0.6496 0.7222 -0.2374
vn -0.3681 0.8415 -0.3955
vn -0.9743 -0.1756 -0.1410
vn 0.1625 -0.9112 0.3786
vn -0.7241 0.5510 -0.4149
vn 0.6839 0.6371 0.3556
vn 0.3871 -0.7779 -0.4949
vn 0.0483 -0.8744 -0.4827
vn -0.4970 -0.3186 0.8072
vn 0.4739 0.7883 -0.3924
vn 0.9939 0.0291 -0.1059
vn 0.9385 -0.3208 -0.1280
vn 0.2719 0.9488 0.1609
vn -0.5949 0.5934 0.5422
vn -0.0215 -0.9257 -0.3778
vn 0.2214 -0.9710 -0.0903
vn 0.5726 0.6999 0.4269
vn -0.9945 -0.0752 -0.0728
vn 0.1981 -0.9784 0.0587
vn 0.7645 0.5535 -0.3306
vn 0.4795 -0.8523 -0.2090
vn -0.3528 0.4310 -0.8306
vn 0.5199 -0.4145 0.7469
vn 0.9752 -0.2172 0.0416
vn -0.9517 -0.1467 -0.2696
vn 0.4627 0.7470 -0.4774
vn 0.8848 0.4560 -0.0958
vn 0.9711 0.1529 -0.1835
vn -0.8192 0.2489 0.5166
vn -0.0960 -0.7571 -0.6463
vn -0.9969 -0.0342 0.0709
vn -0.5686 0.6124 0.5493
vn 0.3908 -0.6544 0.6473
vn 0.9268 -0.0959 0.3630
vn -0.5262 0.7463 -0.4076
vn 0.4782 -0.8530 -0.2089
vn -0.8995 0.4347 -0.0449
vn -0.9200 0.1745 -0.3510
vn 0.9641 0.0275 0.2640
vn 0.6042 0.6193 0.5014
vn 0.9086 0.2941 -0.2965
vn -0.2508 -0.9466 -0.2027
vn 0.4078 0.6444 0.6469
vn -0.6940 0.7196 0.0224
vn -0.5663 -0.7589 0.3216
vn -0.7223 -0.1288 0.6795
vn -0.7477 -0.3736 0.5490
vn -0.6035 0.5863 0.5404
vn 0.8575 0.4275 0.2862
vn -0.9583 -0.1262 -0.2562
vn 0.9829 -0.1200 -0.1397
vn -0.6436 -0.5373 0.5451
vn 0.9750 -0.1723 -0.1401
vn 0.1527 -0.9428 -0.2965
vn 0.7576 0.0120 -0.6526
vn -0.6822 -0.4836 0.5484
vn -0.0036 0.9881 0.1538
vn -0.4805 -0.8260 -0.2947
vn -0.8200 -0.2908 0.4930
vn 0.5534 -0.7124 -0.4314
vn 0.7446 -0.5175 0.4216
vn -0.3751 0.9035 0.2072
vn -0.4163 -0.9018 -0.1158
vn -0.3365 0.7413 0.5808
vn -0.2659 0.7782 0.5690
vn 0.6925 -0.6601 0.2912
vn 0.7410 0.0697 0.6678
vn -0.9127 -0.0776 0.4012
vn -0.2004 -0.4349 0.8779
vn 0.5594 -0.5041 0.6579
vn -0.9893 0.0377 -0.1411
vn 0.6985 0.1900 0.6900
vn 0.5263 -0.1662 -0.8339
vn -0.9916 0.0605 -0.1142
vn 0.2392 -0.9567 -0.1658
vn -0.9320 0.2955 -0.2101
vn 0.7981 0.2664 -0.5405
vn -0.0755 -0.6590 0.7484
vn -0.9344 0.2269 0.2745
vn 0.9585 0.0869 -0.2714
vn 0.6923 0.7187 0.0638
vn -0.7812 -0.2843 0.5557
vn 0.8694 0.4752 0.1356
vn 0.3104 0.9505 0.0136
vn 0.9098 -0.4046 -0.0925
vn 0.7205 -0.5473 0.4258
vn 0.5985 0.3269 -0.7314
vn 0.8663 -0.2673 -0.4220
vn -0.9749 -0.0998 0.1989
vn 0.6129 0.6126 0.4990
vn -0.9182 0.0617 -0.3912
vn 0.2994 -0.8917 -0.3396
vn -0.8320 -0.0258 -0.5542
vn 0.9827 0.0533 -0.1774
vn 0.5214 -0.5030 0.6893
vn 0.6444 -0.3879 0.6590
vn -0.0324 0.9341 -0.3554
vn 0.9595 -0.0981 -0.2641
vn -0.3156 -0.6933 0.6479
vn -0.9443 -0.0139 0.3289
vn -0.3830 -0.8506 -0.3602
vn 0.7716 0.3926 -0.5004
vn 0.6857 -0.5513 0.4752
vn 0.1907 -0.9504 0.2456
vn -0.7870 0.5623 -0.2541
vn -0.0927 -0.0246 0.9954
vn -0.4209 0.8028 -0.4222
vn -0.8025 -0.5497 0.2320
vn 0.8211 0.3575 -0.4450
vn 0.9413 0.3352 0.0411
vn -0.9643 -0.2046 0.1681
vn 0.9775 0.0868 -0.1923
vn 0.7740 -0.1052 0.6244
vn 0.9359 -0.0905 0.3405
vn -0.5885 -0.7593 0.2779
vn -0.9112 -0.3943 -0.1191
vn 0.7983 -0.6018 0.0233
vn 0.0846 -0.7531 -0.6524
vn -0.7425 -0.5803 0.3344
vn 0.7693 -0.4871 -0.4134
vn 0.4765 0.5714 0.6682
vn -0.9747 -0.1766 0.1367
vn 0.9756 0.2139 0.0487
vn 0.0106 -0.9723 0.2335
vn 0.7524 -0.5823 0.3079
vn 0.9692 -0.1334 -0.2071
vn -0.4809 -0.6444 0.5945
vn 0.5120 -0.8042 0.3020
vn 0.0045 -0.9441 -0.3296
vn -0.3437 0.9383 0.0392
vn 0.9290 -0.1022 -0.3558
vn 0.8239 -0.3257 0.4638
vn 0.3639 -0.7982 0.4800
vn -0.5408 0.3531 -0.7635
vn 0.8357 0.5069 -0.2115
vn -0.8951 -0.4273 0.1276
vn -0.9427 -0.3220 -0.0872
vn -0.7750 -0.4005 0.4889
vn -0.8776 -0.1086 0.4669
vt 0.793893 0.811035
vt 0.733986 0.647144
vt 0.654509 0.794346
vt 0.904509 0.802353
vt 0.637534 0.635601
vt 0.530617 0.607635
vt 0.500000 0.753937
vt 0.876608 0.580494
vt 0.859674 0.618176
vt 0.975529 0.769161
vt 0.000000 0.714703
vt 0.810530 0.641144
vt 0.494886 0.330135
vt 0.549539 0.344433
vt 0.530617 0.328053
vt 0.604192 0.365723
vt 0.423700 0.300087
vt 0.327249 0.288544
vt 0.445583 0.324238
vt 0.637534 0.369709
vt 0.653495 0.391926
vt 0.692622 0.420471
vt 0.810530 0.476807
vt 0.717743 0.448570
vt 0.733986 0.420963
vt 0.201560 0.403915
vt 0.381335 0.383205
vt 0.184626 0.355206
vt 0.372679 0.358311
vt 0.250704 0.458881
vt 0.406456 0.411304
vt 0.327249 0.514725
vt 0.381335 0.339043
vt 0.250704 0.294548
vt 0.406456 0.327301
vt 0.201560 0.317513
vt 0.859674 0.531780
vt 0.555940 0.398312
vt 0.726400 0.473465
vt 0.692622 0.504471
vt 0.717743 0.492729
vt 0.653495 0.507542
vt 0.604192 0.501640
vt 0.445583 0.439854
vt 0.494886 0.466053
vt 0.549539 0.487347
vt 0.095491 0.301487
vt 0.206107 0.292805
vt 0.024472 0.334679
vt 0.345492 0.309490
vt 0.500000 0.349903
vt 0.654509 0.410099
vt 0.206107 0.619667
vt 0.345492 0.693741
vt 0.095491 0.538963
vt 0.423700 0.565987
vt 0.024472 0.459526
vt 0.000000 0.389137
vt 0.904509 0.564873
vt 0.975529 0.644310
vt 0.793893 0.484169
vt 0.000000 1.000000
vt 0.273600 0.473465
vt 0.123392 0.580494
vt 0.282257 0.492729
vt 0.024471 0.644310
vt 0.140326 0.618176
vt 0.307378 0.504471
vt 0.189470 0.641144
vt 0.140326 0.531780
vt 0.266014 0.420963
vt 0.206107 0.484169
vt 0.189470 0.476807
vt 0.345491 0.410099
vt 0.095491 0.564873
vt 0.576300 0.565987
vt 0.505114 0.466053
vt 0.469383 0.607635
vt 0.450461 0.487347
vt 0.672751 0.514725
vt 0.554417 0.439854
vt 0.593544 0.411304
vt 0.362466 0.635601
vt 0.395808 0.501640
vt 0.346505 0.507542
vt 0.266014 0.647144
vt 0.362466 0.369709
vt 0.798440 0.403915
vt 0.749296 0.458881
vt 0.975528 0.459526
vt 0.904509 0.538963
vt 0.815374 0.355206
vt 0.975528 0.334679
vt 0.654508 0.693741
vt 0.793893 0.619667
vt 0.576300 0.300087
vt 0.654508 0.309490
vt 0.469383 0.328053
vt 0.672751 0.288544
vt 0.793893 0.292805
vt 0.798440 0.317513
vt 0.749296 0.294548
vt 0.904509 0.301487
vt 0.444060 0.398312
vt 0.618665 0.383205
vt 0.282257 0.448570
vt 0.395808 0.365723
vt 0.346505 0.391926
vt 0.450461 0.344433
vt 0.307378 0.420471
vt 0.505114 0.330135
vt 0.627321 0.358311
vt 0.618665 0.339043
vt 0.593544 0.327301
vt 0.554417 0.324238
vt 0.095491 0.802353
vt 0.024471 0.769161
vt 0.345491 0.794346
vt 0.206107 0.811035
vt 0.531129 0.863455
vt 0.528598 0.862678
vt 0.529701 0.861377
vt 0.530028 0.864496
vt 0.532449 0.864504
vt 0.554833 0.852302
vt 0.535964 0.857423
vt 0.554115 0.862847
vt 0.527653 0.863068
vt 0.533337 0.860528
vt 0.534939 0.862031
vt 0.531751 0.858482
vt 0.533744 0.855085
vt 0.535657 0.858520
vt 0.537437 0.859975
vt 0.530356 0.847231
vt 0.465756 0.730456
vt 0.464280 0.731015
vt 0.466272 0.734068
vt 0.468310 0.733388
vt 0.464779 0.728223
vt 0.462719 0.728340
vt 0.462606 0.727787
vt 0.464037 0.730013
vt 0.465977 0.733427
vt 0.464885 0.735427
vt 0.463767 0.732595
vt 0.465331 0.736822
vt 0.463567 0.731622
vt 0.533015 0.861030
vt 0.528781 0.860447
vt 0.530131 0.864549
vt 0.530881 0.856491
vt 0.531355 0.865489
vt 0.534491 0.861890
vt 0.526887 0.856207
vt 0.527647 0.863272
vt 0.528726 0.864638
vt 0.526403 0.862717
vt 0.525618 0.860881
vt 0.526164 0.858016
vt 0.536721 0.859365
vt 0.468862 0.749484
vt 0.466293 0.747780
vt 0.466377 0.748286
vt 0.467102 0.749259
vt 0.467253 0.750763
vt 0.470042 0.751312
vt 0.469399 0.753101
vt 0.469928 0.750509
vt 0.463993 0.748347
vt 0.465755 0.751317
vt 0.467367 0.753944
vt 0.471307 0.756222
vt 0.464995 0.721450
vt 0.464829 0.720767
vt 0.463109 0.721688
vt 0.462921 0.720778
vt 0.464423 0.724210
vt 0.465870 0.723530
vt 0.464627 0.728363
vt 0.464023 0.722561
vt 0.465068 0.754195
vt 0.464674 0.751874
vt 0.466630 0.753166
vt 0.463722 0.724297
vt 0.465564 0.722267
vt 0.463941 0.725445
vt 0.463960 0.747882
vt 0.467324 0.729442
vt 0.468962 0.731820
vt 0.464679 0.727808
vt 0.468861 0.731404
vt 0.465570 0.729689
vt 0.468613 0.734441
vt 0.465745 0.749335
vt 0.459061 0.781790
vt 0.459779 0.802539
vt 0.459863 0.804904
vt 0.459175 0.785141
vt 0.459751 0.801754
vt 0.459456 0.793305
vt 0.459271 0.787929
vt 0.459472 0.793767
vt 0.459704 0.800426
vt 0.459315 0.789211
vt 0.458776 0.773334
vt 0.458807 0.774253
vt 0.459830 0.803985
vt 0.489859 0.811437
vt 0.490517 0.812575
vt 0.493013 0.812944
vt 0.492379 0.807917
vt 0.492492 0.807826
vt 0.490244 0.811723
vt 0.495164 0.807698
vt 0.493132 0.810665
vt 0.494834 0.807444
vt 0.490710 0.812847
vt 0.492924 0.813826
vt 0.497867 0.810534
vt 0.497474 0.813438
vt 0.460224 0.765039
vt 0.460206 0.763084
vt 0.462560 0.806586
vt 0.461784 0.810371
vt 0.461888 0.813254
vt 0.462269 0.795070
vt 0.460502 0.773340
vt 0.461874 0.784919
vt 0.461843 0.811999
vt 0.460939 0.786261
vt 0.460749 0.780687
vt 0.461206 0.794016
vt 0.461693 0.807861
vt 0.529650 0.858487
vt 0.526305 0.855364
vt 0.526229 0.858659
vt 0.525366 0.858400
vt 0.526985 0.861113
vt 0.527069 0.853356
vt 0.527847 0.860249
vt 0.525730 0.856066
vt 0.499012 0.806119
vt 0.499163 0.808047
vt 0.496863 0.805659
vt 0.504007 0.807601
vt 0.498517 0.806656
vt 0.503584 0.806797
vt 0.496949 0.812909
vt 0.499654 0.812986
vt 0.502654 0.810875
vt 0.503507 0.809186
vt 0.592808 0.531743
vt 0.588217 0.538940
vt 0.588077 0.539594
vt 0.592974 0.532605
vt 0.590410 0.541266
vt 0.605476 0.579748
vt 0.598681 0.549994
vt 0.597732 0.577716
vt 0.594369 0.536410
vt 0.588024 0.579111
vt 0.613173 0.625620
vt 0.612434 0.624340
vt 0.615779 0.621909
vt 0.615986 0.622776
vt 0.613896 0.614147
vt 0.608878 0.593579
vt 0.610395 0.618277
vt 0.610344 0.599562
vt 0.598719 0.597518
vt 0.603627 0.617616
vt 0.594111 0.535248
vt 0.585780 0.562762
vt 0.596633 0.544739
vt 0.581263 0.552818
vt 0.580933 0.565246
vt 0.599718 0.607532
vt 0.614994 0.618664
vt 0.603411 0.571398
vt 0.597228 0.579381
vt 0.580859 0.579665
vt 0.580881 0.588312
vt 0.586239 0.595329
vt 0.580956 0.598184
vt 0.581140 0.610011
vt 0.587471 0.612386
vt 0.580948 0.566627
vt 0.581636 0.543142
vt 0.601569 0.621008
vt 0.581399 0.548416
vt 0.581728 0.542511
vt 0.581694 0.543940
vt 0.584418 0.618966
vt 0.581248 0.618567
vt 0.581152 0.616172
vt 0.580876 0.599332
vt 0.585356 0.616338
vt 0.553521 0.602831
vt 0.553331 0.610777
vt 0.554511 0.593339
vt 0.555736 0.583825
vt 0.553636 0.612485
vt 0.553687 0.602899
vt 0.553489 0.615268
vt 0.459452 0.491871
vt 0.461213 0.485382
vt 0.459485 0.489932
vt 0.461044 0.486468
vt 0.459778 0.492442
vt 0.459359 0.494423
vt 0.461493 0.488154
vt 0.464758 0.479439
vt 0.558504 0.553826
vt 0.556735 0.572716
vt 0.557625 0.559726
vt 0.580730 0.586609
vt 0.597048 0.573565
vt 0.589612 0.566365
vt 0.599269 0.554858
vt 0.558814 0.552734
vt 0.580750 0.575909
vt 0.555956 0.581021
vt 0.557629 0.569465
vt 0.554660 0.591882
vt 0.558917 0.553838
vt 0.558344 0.559956
vt 0.466992 0.735881
vt 0.471686 0.736523
vt 0.471154 0.735844
vt 0.467543 0.732415
vt 0.469038 0.734202
vt 0.465755 0.732520
vt 0.464910 0.730942
vt 0.468204 0.735019
vt 0.462924 0.731477
vt 0.463785 0.734862
vt 0.464875 0.736583
vt 0.472383 0.739772
vt 0.467083 0.750025
vt 0.472789 0.754060
vt 0.465694 0.724813
vt 0.464362 0.726914
vt 0.467043 0.757209
vt 0.465055 0.731428
vt 0.469008 0.724611
vt 0.468395 0.726339
vt 0.467362 0.722205
vt 0.466053 0.734327
vt 0.468842 0.723927
vt 0.468423 0.726290
vt 0.462756 0.730786
vt 0.464215 0.732819
vt 0.466077 0.735332
vt 0.468792 0.735891
vt 0.600823 0.620456
vt 0.472127 0.728869
vt 0.609379 0.623288
vt 0.609476 0.623840
vt 0.471595 0.729530
vt 0.471495 0.728278
vt 0.469804 0.729461
vt 0.467500 0.728924
vt 0.472618 0.739591
vt 0.466378 0.738958
vt 0.464850 0.738342
vt 0.471066 0.739817
vt 0.469530 0.739997
vt 0.492385 0.780119
vt 0.495290 0.787243
vt 0.496036 0.784173
vt 0.491154 0.779002
vt 0.491169 0.779490
vt 0.484620 0.782489
vt 0.478875 0.782885
vt 0.483299 0.800267
vt 0.473516 0.783857
vt 0.474509 0.805198
vt 0.491185 0.779437
vt 0.490127 0.754648
vt 0.488711 0.757775
vt 0.487882 0.782818
vt 0.490626 0.800192
vt 0.492957 0.791536
vt 0.487404 0.808726
vt 0.486815 0.799901
vt 0.510317 0.819697
vt 0.506778 0.810402
vt 0.499845 0.801958
vt 0.483049 0.769613
vt 0.478757 0.763906
vt 0.477157 0.773097
vt 0.506264 0.803765
vt 0.485902 0.782701
vt 0.475770 0.815443
vt 0.487478 0.764879
vt 0.468327 0.763951
vt 0.468299 0.777805
vt 0.485796 0.766729
vt 0.479135 0.759770
vt 0.477878 0.735780
vt 0.477869 0.740706
vt 0.464715 0.728123
vt 0.467168 0.742654
vt 0.478074 0.743827
vt 0.478420 0.746287
vt 0.483856 0.741013
vt 0.481465 0.745903
vt 0.466678 0.742061
vt 0.480832 0.753289
vt 0.482355 0.739235
vt 0.477035 0.736540
vt 0.464418 0.730839
vt 0.479296 0.732786
vt 0.491357 0.782225
vt 0.484142 0.752815
vt 0.489788 0.774510
vt 0.492829 0.789133
vt 0.485110 0.768799
vt 0.494941 0.783847
vt 0.482346 0.751802
vt 0.480720 0.763783
vt 0.474831 0.767088
vt 0.470071 0.782960
vt 0.468285 0.775035
vt 0.473047 0.792616
vt 0.477104 0.752145
vt 0.477999 0.732596
vt 0.499948 0.786343
vt 0.517379 0.794530
vt 0.512134 0.797455
vt 0.519892 0.848057
vt 0.532451 0.843359
vt 0.517744 0.815619
vt 0.537586 0.821761
vt 0.515349 0.835842
vt 0.532581 0.835305
vt 0.502797 0.825711
vt 0.494477 0.829329
vt 0.524531 0.827249
vt 0.502495 0.837962
vt 0.485221 0.804628
vt 0.480786 0.783342
vt 0.475997 0.815446
vt 0.525700 0.806306
vt 0.508952 0.802099
vt 0.509892 0.844218
vt 0.519580 0.802811
vt 0.538081 0.809172
vt 0.541405 0.799494
vt 0.518720 0.795088
vt 0.515910 0.791821
vt 0.499703 0.786625
vt 0.533903 0.796593
vt 0.502945 0.831977
vt 0.499967 0.834792
vt 0.501863 0.837698
vt 0.463758 0.765903
vt 0.461146 0.748328
vt 0.464004 0.756081
vt 0.459637 0.752229
vt 0.459467 0.741348
vt 0.506850 0.797565
vt 0.504079 0.839782
vt 0.492286 0.773966
vt 0.486594 0.753472
vt 0.488556 0.749590
vt 0.489924 0.749166
vt 0.495942 0.780935
vt 0.496808 0.781473
vt 0.468158 0.760414
vt 0.466905 0.746627
vt 0.498506 0.789177
vt 0.488541 0.754072
vt 0.488271 0.754618
vt 0.489151 0.749958
vt 0.496350 0.781759
vt 0.492187 0.775399
vt 0.554776 0.861800
vt 0.556046 0.865722
vt 0.555695 0.855838
vt 0.555129 0.847689
vt 0.555051 0.828840
vt 0.465133 0.783452
vt 0.466504 0.813755
vt 0.478230 0.825060
vt 0.475600 0.826146
vt 0.477985 0.824249
vt 0.473849 0.825912
vt 0.470472 0.823171
vt 0.463533 0.816453
vt 0.463302 0.814164
vt 0.477415 0.822225
vt 0.467802 0.795013
vt 0.468360 0.808736
vt 0.494655 0.804683
vt 0.489056 0.816451
vt 0.497993 0.794438
vt 0.496214 0.799692
s 0
usemtl Material.001
f 60/1/1 54/2/1 58/3/1
f 154/2/2 379/1/2 420/4/2
f 54/2/3 57/5/3 58/3/3
f 152/6/4 436/7/4 23/3/4
f 344/3/5 353/5/5 362/6/5
f 43/8/6 54/9/6 61/10/6
f 527/11/7 520/8/7 371/10/7
f 485/10/8 313/9/8 209/12/8
f 258/4/9 186/12/9 487/2/9
f 54/12/10 60/4/10 61/10/10
f 408/13/11 544/14/11 440/15/11
f 319/15/12 511/14/12 349/16/12
f 257/17/13 214/13/13 204/15/13
f 369/18/14 96/19/14 158/13/14
f 62/13/15 500/17/15 460/18/15
f 538/16/16 24/20/16 441/15/16
f 493/21/17 388/22/17 389/23/17
f 409/23/18 538/22/18 441/24/18
f 461/25/19 193/21/19 275/23/19
f 297/20/20 157/16/20 83/25/20
f 472/16/21 303/21/21 365/25/21
f 503/26/22 311/27/22 488/28/22
f 314/27/23 35/29/23 288/28/23
f 59/27/24 324/26/24 315/30/24
f 304/31/25 380/30/25 352/32/25
f 201/30/26 467/31/26 327/27/26
f 311/28/27 503/29/27 153/33/27
f 11/34/28 389/35/28 543/19/28
f 216/19/29 496/18/29 543/34/29
f 395/33/30 327/35/30 402/34/30
f 54/33/31 50/36/31 53/28/31
f 539/36/32 398/33/32 401/34/32
f 54/24/1 43/37/1 45/23/1
f 151/19/33 67/35/33 462/38/33
f 32/13/34 85/19/34 361/38/34
f 52/35/35 453/33/35 526/38/35
f 257/29/36 27/27/36 13/38/36
f 472/33/37 397/29/37 246/38/37
f 42/14/38 326/13/38 182/38/38
f 245/24/39 409/22/39 441/38/39
f 475/39/40 546/24/40 447/38/40
f 183/22/41 428/21/41 88/38/41
f 487/16/42 365/14/42 258/38/42
f 79/21/43 346/16/43 221/38/43
f 218/40/44 260/41/44 91/38/44
f 269/42/45 159/40/45 442/38/45
f 40/41/46 30/39/46 427/38/46
f 522/37/47 545/24/47 285/8/47
f 447/24/48 546/39/48 336/8/48
f 422/43/49 412/42/49 424/38/49
f 375/31/50 293/44/50 266/38/50
f 47/27/51 99/31/51 384/38/51
f 267/44/52 343/45/52 488/38/52
f 525/46/53 371/43/53 450/38/53
f 398/45/54 539/46/54 306/38/54
f 150/47/55 184/34/55 406/48/55
f 92/34/56 453/18/56 52/48/56
f 463/34/57 205/47/57 385/49/57
f 53/28/58 50/36/58 51/49/58
f 306/49/59 447/36/59 501/34/59
f 50/48/1 54/18/1 48/50/1
f 96/51/60 18/15/60 533/52/60
f 54/15/1 45/20/1 46/52/1
f 54/15/1 46/51/1 48/50/1
f 149/18/61 546/17/61 494/50/61
f 374/50/62 351/17/62 500/15/62
f 517/32/63 431/53/63 451/54/63
f 34/53/64 253/32/64 331/55/64
f 469/54/65 457/56/65 490/32/65
f 268/7/66 445/6/66 97/54/66
f 57/6/67 54/56/67 56/54/67
f 196/32/68 361/30/68 188/55/68
f 83/57/69 26/26/69 270/28/69
f 482/58/70 2/28/70 185/49/70
f 346/57/71 475/28/71 474/58/71
f 123/55/72 17/30/72 144/57/72
f 494/30/73 44/26/73 149/57/73
f 395/52/74 538/20/74 201/25/74
f 257/43/75 274/5/75 27/2/75
f 480/43/76 413/46/76 338/6/76
f 352/2/77 295/42/77 304/43/77
f 208/12/78 449/40/78 75/2/78
f 2/40/79 5/42/79 430/2/79
f 83/6/80 8/5/80 199/43/80
f 210/45/81 342/44/81 39/32/81
f 132/32/82 203/44/82 2/31/82
f 289/56/83 301/45/83 145/32/83
f 199/6/84 26/46/84 83/45/84
f 481/45/85 537/56/85 271/6/85
f 387/59/86 14/23/86 267/60/86
f 539/23/87 401/37/87 474/60/87
f 508/23/88 531/59/88 98/61/88
f 97/25/89 442/61/89 159/52/89
f 358/61/90 345/25/90 381/23/90
f 416/60/91 471/37/91 334/8/91
f 321/9/92 90/41/92 97/12/92
f 455/41/93 221/40/93 346/12/93
f 18/41/94 95/9/94 529/8/94
f 285/8/95 457/11/95 502/60/95
f 349/8/96 85/39/96 536/41/96
f 74/62/97 115/62/97 116/62/97
f 115/62/98 74/62/98 114/62/98
f 116/62/99 76/62/99 74/62/99
f 322/62/100 408/62/100 440/62/100
f 76/62/101 116/62/101 77/62/101
f 435/62/102 31/62/102 502/62/102
f 337/62/103 253/62/103 1/62/103
f 74/62/104 73/62/104 113/62/104
f 514/62/105 416/62/105 334/62/105
f 114/62/106 74/62/106 113/62/106
f 80/62/107 120/62/107 121/62/107
f 502/62/108 31/62/108 87/62/108
f 121/62/109 81/62/109 80/62/109
f 425/62/110 72/62/110 15/62/110
f 275/62/111 281/62/111 404/62/111
f 118/62/112 78/62/112 77/62/112
f 12/62/113 196/62/113 188/62/113
f 80/62/114 78/62/114 118/62/114
f 80/62/115 119/62/115 120/62/115
f 119/62/116 80/62/116 118/62/116
f 65/62/117 105/62/117 106/62/117
f 105/62/118 65/62/118 63/62/118
f 106/62/117 66/62/117 65/62/117
f 328/62/119 514/62/119 87/62/119
f 442/62/120 198/62/120 356/62/120
f 103/62/121 63/62/121 81/62/121
f 216/62/122 354/62/122 496/62/122
f 530/62/123 221/62/123 362/62/123
f 63/62/124 104/62/124 105/62/124
f 104/62/125 63/62/125 103/62/125
f 70/62/126 110/62/126 111/62/126
f 110/62/127 70/62/127 109/62/127
f 111/62/128 71/62/128 70/62/128
f 252/62/129 249/62/129 377/62/129
f 71/62/130 111/62/130 73/62/130
f 108/62/131 68/62/131 66/62/131
f 264/62/132 296/62/132 342/62/132
f 70/62/133 68/62/133 108/62/133
f 274/62/134 257/62/134 204/62/134
f 109/62/135 70/62/135 108/62/135
f 296/62/136 37/62/136 146/62/136
f 315/62/137 382/62/137 372/62/137
f 406/62/138 298/62/138 198/62/138
f 117/62/139 77/62/139 116/62/139
f 498/62/140 27/62/140 274/62/140
f 342/62/141 296/62/141 146/62/141
f 113/62/142 73/62/142 112/62/142
f 381/62/143 296/62/143 41/62/143
f 281/62/144 240/62/144 88/62/144
f 84/62/145 37/62/145 202/62/145
f 194/62/146 465/62/146 189/62/146
f 306/62/147 501/62/147 276/62/147
f 358/62/148 212/62/148 364/62/148
f 102/62/149 81/62/149 121/62/149
f 296/62/150 264/62/150 41/62/150
f 118/62/151 77/62/151 117/62/151
f 144/62/152 215/62/152 123/62/152
f 132/62/153 430/62/153 228/62/153
f 357/62/154 364/62/154 33/62/154
f 18/62/155 357/62/155 521/62/155
f 191/62/156 10/62/156 432/62/156
f 91/62/157 372/62/157 218/62/157
f 470/62/158 387/62/158 243/62/158
f 107/62/159 66/62/159 106/62/159
f 240/62/160 513/62/160 486/62/160
f 371/62/161 520/62/161 450/62/161
f 103/62/162 81/62/162 102/62/162
f 303/62/163 352/62/163 365/62/163
f 450/62/164 155/62/164 525/62/164
f 18/62/165 529/62/165 533/62/165
f 182/62/166 263/62/166 483/62/166
f 6/62/167 145/62/167 515/62/167
f 353/62/168 158/62/168 534/62/168
f 112/62/169 73/62/169 111/62/169
f 259/62/170 499/62/170 224/62/170
f 266/62/171 390/62/171 375/62/171
f 108/62/172 66/62/172 107/62/172
f 520/62/173 527/62/173 216/62/173
f 342/62/174 217/62/174 264/62/174
f 327/62/175 467/62/175 264/62/175
f 139/62/176 33/62/176 41/62/176
f 41/62/177 264/62/177 467/62/177
f 250/62/178 260/62/178 428/62/178
f 126/62/179 168/62/179 167/62/179
f 278/62/180 228/62/180 438/62/180
f 423/62/181 224/62/181 396/62/181
f 133/62/182 172/62/182 171/62/182
f 524/62/183 160/62/183 211/62/183
f 459/62/184 343/62/184 243/62/184
f 505/62/185 431/62/185 517/62/185
f 332/62/186 157/62/186 432/62/186
f 522/62/187 334/62/187 545/62/187
f 99/62/188 10/62/188 361/62/188
f 141/62/189 163/62/189 162/62/189
f 334/62/190 471/62/190 545/62/190
f 474/62/191 202/62/191 346/62/191
f 126/62/192 167/62/192 166/62/192
f 97/62/193 49/62/193 268/62/193
f 400/62/194 319/62/194 24/62/194
f 262/62/195 458/62/195 535/62/195
f 159/62/196 321/62/196 97/62/196
f 189/62/197 8/62/197 47/62/197
f 142/62/198 425/62/198 15/62/198
f 372/62/199 91/62/199 518/62/199
f 137/62/200 178/62/200 177/62/200
f 327/62/201 264/62/201 217/62/201
f 141/62/202 162/62/202 181/62/202
f 212/62/203 358/62/203 381/62/203
f 445/62/204 406/62/204 198/62/204
f 425/62/205 205/62/205 247/62/205
f 11/62/206 543/62/206 496/62/206
f 520/62/207 389/62/207 450/62/207
f 206/62/208 330/62/208 349/62/208
f 133/62/209 173/62/209 172/62/209
f 494/62/210 207/62/210 79/62/210
f 389/62/211 292/62/211 256/62/211
f 137/62/212 177/62/212 176/62/212
f 506/62/213 513/62/213 240/62/213
f 284/62/214 474/62/214 478/62/214
f 472/62/215 487/62/215 187/62/215
f 130/62/216 169/62/216 168/62/216
f 511/62/217 395/62/217 402/62/217
f 128/62/218 130/62/218 168/62/218
f 467/62/219 139/62/219 41/62/219
f 128/62/220 168/62/220 126/62/220
f 171/62/221 131/62/221 133/62/221
f 212/62/222 33/62/222 364/62/222
f 131/62/223 171/62/223 130/62/223
f 130/62/224 170/62/224 169/62/224
f 170/62/225 130/62/225 171/62/225
f 122/62/226 164/62/226 163/62/226
f 164/62/227 122/62/227 165/62/227
f 324/62/228 417/62/228 382/62/228
f 185/62/229 370/62/229 4/62/229
f 122/62/230 163/62/230 141/62/230
f 525/62/231 155/62/231 476/62/231
f 485/62/232 209/62/232 390/62/232
f 126/62/233 166/62/233 125/62/233
f 125/62/234 165/62/234 122/62/234
f 165/62/235 125/62/235 166/62/235
f 140/62/236 179/62/236 178/62/236
f 179/62/237 140/62/237 180/62/237
f 138/62/238 140/62/238 178/62/238
f 537/62/239 410/62/239 156/62/239
f 138/62/240 178/62/240 137/62/240
f 386/62/241 435/62/241 502/62/241
f 331/62/242 499/62/242 34/62/242
f 141/62/243 181/62/243 140/62/243
f 213/62/244 221/62/244 455/62/244
f 180/62/245 140/62/245 181/62/245
f 134/62/246 174/62/246 173/62/246
f 491/62/247 124/62/247 386/62/247
f 133/62/248 134/62/248 173/62/248
f 399/62/249 145/62/249 307/62/249
f 124/62/250 435/62/250 386/62/250
f 176/62/251 136/62/251 137/62/251
f 233/62/252 524/62/252 25/62/252
f 136/62/253 176/62/253 134/62/253
f 134/62/254 175/62/254 174/62/254
f 175/62/255 134/62/255 176/62/255
f 428/63/256 404/64/256 88/65/256
f 158/11/257 371/64/257 534/66/257
f 499/67/258 236/65/258 34/64/258
f 221/68/259 403/65/259 79/69/259
f 508/65/260 486/67/260 531/69/260
f 530/70/261 49/66/261 251/64/261
f 426/71/262 69/72/262 541/73/262
f 404/72/263 281/71/263 88/74/263
f 100/75/264 67/73/264 62/72/264
f 513/70/265 506/73/265 87/66/265
f 203/73/266 185/75/266 2/66/266
f 49/76/267 97/77/267 147/78/267
f 298/79/268 249/78/268 356/77/268
f 424/77/269 350/76/269 533/80/269
f 525/81/270 530/80/270 534/82/270
f 98/81/271 393/77/271 340/80/271
f 207/83/272 494/78/272 546/84/272
f 463/85/273 418/68/273 3/86/273
f 421/68/274 184/69/274 150/86/274
f 418/85/275 463/86/275 1/84/275
f 546/79/276 149/84/276 336/78/276
f 330/83/277 361/84/277 85/86/277
f 526/87/278 453/74/278 192/71/278
f 423/88/279 396/89/279 286/90/279
f 455/89/280 364/91/280 213/90/280
f 304/92/281 295/90/281 376/58/281
f 281/92/282 506/58/282 240/93/282
f 87/88/283 506/90/283 328/92/283
f 250/89/284 376/80/284 295/91/284
f 235/76/285 238/78/285 237/94/285
f 377/78/286 501/7/286 252/94/286
f 478/76/287 474/94/287 401/80/287
f 326/80/288 42/95/288 316/91/288
f 350/95/289 156/80/289 533/94/289
f 407/96/290 442/97/290 439/98/290
f 84/96/291 339/99/291 37/97/291
f 227/51/292 235/98/292 229/97/292
f 226/87/292 235/98/292 227/74/292
f 465/98/293 93/51/293 189/74/293
f 235/99/292 231/100/292 229/97/292
f 423/101/294 265/93/294 244/102/294
f 231/101/295 234/92/295 232/93/295
f 442/103/296 356/102/296 336/93/296
f 502/99/297 87/102/297 522/100/297
f 325/102/298 451/103/298 507/100/298
f 313/79/299 485/77/299 535/104/299
f 439/84/300 251/79/300 49/104/300
f 186/77/301 39/81/301 146/104/301
f 532/82/302 308/105/302 35/104/302
f 156/81/303 355/82/303 533/104/303
f 332/85/304 47/84/304 8/104/304
f 351/63/305 374/106/305 460/64/305
f 183/106/306 94/70/306 443/64/306
f 194/63/307 189/65/307 273/104/307
f 498/68/308 194/85/308 27/104/308
f 540/65/309 92/68/309 52/104/309
f 360/107/310 536/108/310 348/104/310
f 508/109/311 94/107/311 88/104/311
f 317/108/312 469/110/312 230/104/312
f 154/106/313 492/63/313 537/104/313
f 295/110/314 352/106/314 303/104/314
f 24/111/315 160/109/315 441/104/315
f 13/112/316 384/113/316 257/104/316
f 544/105/317 427/112/317 30/104/317
f 249/113/318 298/114/318 325/104/318
f 350/115/319 464/111/319 413/104/319
f 511/114/320 319/115/320 400/104/320
f 223/70/292 235/106/292 226/73/292
f 378/113/321 540/101/321 394/102/321
f 231/101/322 235/113/322 234/92/322
f 215/114/323 19/113/323 370/102/323
f 243/99/324 343/115/324 470/102/324
f 494/114/325 403/102/325 44/115/325
f 144/112/326 157/92/326 297/113/326
f 544/82/327 30/89/327 312/105/327
f 150/89/328 406/82/328 145/80/328
f 529/88/329 523/105/329 422/89/329
f 184/112/330 517/105/330 298/92/330
f 247/105/331 352/88/331 380/92/331
f 362/108/332 534/107/332 530/71/332
f 313/107/333 417/87/333 209/71/333
f 487/108/334 186/71/334 339/73/334
f 347/110/335 21/73/335 148/106/335
f 14/110/336 387/108/336 470/73/336
f 2/87/337 482/107/337 12/98/337
f 335/96/338 454/111/338 49/99/338
f 344/115/339 213/99/339 364/111/339
f 364/111/340 455/96/340 358/98/340
f 428/109/341 183/98/341 250/107/341
f 506/109/342 491/111/342 328/98/342
f 241/116/343 235/69/343 242/117/343
f 399/69/344 525/116/344 476/86/344
f 32/67/345 196/117/345 309/69/345
f 367/64/346 366/11/346 368/117/346
f 235/67/347 223/64/347 242/117/347
f 320/83/348 503/118/348 488/78/348
f 158/7/349 527/78/349 371/118/349
f 238/83/350 235/86/350 239/118/350
f 161/119/351 532/86/351 35/116/351
f 235/86/292 241/119/292 239/118/292
f 427/120/352 190/121/352 40/122/352
f 204/121/353 214/120/353 39/123/353
f 59/123/354 326/120/354 316/124/354
f 510/125/355 191/126/355 17/127/355
f 516/121/356 355/123/356 378/128/356
f 430/129/357 459/130/357 228/124/357
f 481/129/358 271/131/358 324/132/358
f 19/131/359 297/120/359 363/122/359
f 326/129/360 518/133/360 246/130/360
f 469/130/361 386/133/361 457/134/361
f 282/133/362 75/129/362 449/132/362
f 337/135/363 433/126/363 473/125/363
f 23/136/364 528/137/364 152/138/364
f 146/138/365 39/139/365 342/136/365
f 17/137/366 432/136/366 157/140/366
f 194/141/367 273/140/367 13/142/367
f 379/140/368 154/141/368 316/137/368
f 248/143/369 155/144/369 388/145/369
f 153/137/370 503/146/370 446/147/370
f 433/147/371 385/138/371 286/137/371
f 386/146/372 502/137/372 457/141/372
f 540/148/373 378/143/373 92/145/373
f 183/142/374 15/143/374 279/148/374
f 370/120/375 278/129/375 320/124/375
f 530/149/376 251/150/376 221/151/376
f 2/150/377 12/149/377 5/152/377
f 251/152/378 149/149/378 221/126/378
f 444/149/379 397/153/379 478/154/379
f 62/150/380 151/152/380 500/155/380
f 219/150/381 257/156/381 384/151/381
f 21/157/382 319/158/382 349/128/382
f 284/158/383 84/156/383 202/159/383
f 393/150/384 152/160/384 528/156/384
f 295/156/385 260/160/385 250/159/385
f 189/160/386 47/150/386 273/155/386
f 263/153/387 182/149/387 401/151/387
f 317/153/388 328/123/388 469/124/388
f 275/123/389 197/153/389 281/157/389
f 197/157/390 506/153/390 281/151/390
f 413/129/391 272/120/391 495/131/391
f 402/123/392 217/157/392 36/128/392
f 300/154/393 293/161/393 333/126/393
f 373/149/394 218/154/394 458/126/394
f 412/154/395 148/153/395 497/124/395
f 9/154/396 360/130/396 348/161/396
f 377/161/397 249/130/397 127/134/397
f 538/130/398 190/154/398 201/124/398
f 139/162/399 95/163/399 521/164/399
f 524/163/400 441/162/400 160/165/400
f 525/162/401 399/164/401 280/166/401
f 452/167/402 75/166/402 437/168/402
f 286/167/403 55/162/403 265/166/403
f 148/169/404 412/165/404 427/162/404
f 279/164/405 72/170/405 376/171/405
f 18/164/406 521/163/406 95/170/406
f 1/166/407 199/164/407 93/171/407
f 149/168/408 251/166/408 82/172/408
f 528/166/409 23/171/409 277/172/409
f 36/173/410 210/167/410 29/168/410
f 397/174/411 84/175/411 478/176/411
f 319/176/412 160/175/412 24/177/412
f 534/174/413 371/176/413 525/178/413
f 405/179/414 480/178/414 156/180/414
f 245/179/415 489/174/415 409/178/415
f 405/177/416 350/175/416 413/181/416
f 465/182/417 418/183/417 93/184/417
f 354/183/418 52/170/418 195/184/418
f 443/181/419 94/185/419 340/177/419
f 492/186/420 355/181/420 410/175/420
f 462/178/421 67/176/421 448/187/421
f 537/170/422 481/163/422 316/188/422
f 444/189/423 246/140/423 397/136/423
f 187/136/424 84/190/424 397/189/424
f 191/140/425 188/189/425 10/191/425
f 519/189/426 385/192/426 504/193/426
f 524/191/427 233/189/427 151/193/427
f 208/190/428 75/136/428 366/139/428
f 329/142/429 485/191/429 266/143/429
f 6/140/430 289/191/430 145/142/430
f 93/191/431 8/193/431 189/143/431
f 517/193/432 195/194/432 377/144/432
f 21/143/433 536/193/433 360/144/433
f 472/193/434 365/192/434 487/194/434
f 314/171/435 528/183/435 277/182/435
f 448/171/436 22/170/436 25/183/436
f 92/172/437 378/171/437 420/182/437
f 12/188/438 188/163/438 5/195/438
f 429/165/439 314/195/439 288/163/439
f 373/170/440 262/188/440 428/184/440
f 488/142/441 343/148/441 459/146/441
f 37/146/442 296/141/442 345/142/442
f 18/148/443 369/147/443 357/146/443
f 98/195/444 531/184/444 393/188/444
f 272/148/445 208/145/445 366/147/445
f 456/196/446 270/197/446 26/198/446
f 329/199/447 266/200/447 208/201/447
f 424/196/448 412/202/448 200/197/448
f 504/202/449 340/203/449 393/204/449
f 196/202/450 16/204/450 309/197/450
f 501/201/451 377/205/451 526/199/451
f 283/206/452 437/196/452 300/199/452
f 326/199/453 444/196/453 182/198/453
f 298/207/454 356/206/454 198/199/454
f 442/200/455 251/199/455 439/208/455
f 507/199/456 484/198/456 325/208/456
f 7/209/457 91/210/457 411/211/457
f 460/209/458 100/212/458 62/213/458
f 143/212/459 526/209/459 294/211/459
f 153/213/460 359/214/460 387/209/460
f 369/213/461 158/215/461 357/216/461
f 383/214/462 471/213/462 416/216/462
f 348/211/463 309/217/463 308/212/463
f 485/218/464 28/214/464 535/219/464
f 274/210/465 225/209/465 498/214/465
f 4/214/466 19/216/466 363/219/466
f 299/216/467 436/220/467 152/221/467
f 385/219/468 519/216/468 286/221/468
f 64/207/469 269/222/469 442/223/469
f 222/204/470 299/224/470 486/225/470
f 346/197/471 358/204/471 455/225/471
f 310/198/472 391/197/472 249/226/472
f 47/208/473 384/198/473 13/226/473
f 509/197/474 505/225/474 517/226/474
f 7/227/475 246/224/475 518/204/475
f 23/228/476 435/229/476 305/202/476
f 357/202/477 33/196/477 521/228/477
f 517/203/478 325/202/478 298/229/478
f 139/204/479 201/203/479 529/227/479
f 96/229/480 527/227/480 158/203/480
f 489/226/481 245/230/481 462/208/481
f 277/205/482 305/231/482 101/232/482
f 443/199/483 15/205/483 183/232/483
f 160/207/484 347/199/484 408/232/484
f 145/206/485 301/207/485 255/223/485
f 500/232/486 233/222/486 22/207/486
f 1/201/487 253/233/487 291/231/487
f 483/230/488 379/234/488 42/200/488
f 399/200/489 515/208/489 145/230/489
f 94/201/490 98/200/490 340/233/490
f 190/205/491 523/201/491 529/231/491
f 221/200/492 44/234/492 403/233/492
f 518/235/493 91/236/493 7/132/493
f 372/131/494 313/235/494 458/132/494
f 149/236/495 44/235/495 221/237/495
f 361/158/496 10/238/496 188/239/496
f 196/132/497 482/236/497 16/240/497
f 423/235/498 244/241/498 259/237/498
f 3/121/499 418/241/499 225/122/499
f 157/241/500 332/239/500 83/237/500
f 346/239/501 345/121/501 358/128/501
f 285/241/502 502/131/502 522/122/502
f 212/131/503 381/241/503 41/235/503
f 443/238/504 142/158/504 15/159/504
f 228/160/505 459/242/505 243/159/505
f 15/242/506 72/160/506 279/240/506
f 99/240/507 47/160/507 432/155/507
f 11/156/508 496/157/508 542/151/508
f 19/157/509 144/156/509 297/158/509
f 270/236/510 456/242/510 129/240/510
f 314/158/511 161/239/511 35/128/511
f 296/239/512 381/238/512 345/237/512
f 395/236/513 400/238/513 538/242/513
f 271/242/514 537/238/514 156/159/514
f 527/238/515 394/236/515 354/237/515
f 453/239/516 92/241/516 420/121/516
f 497/215/517 148/243/517 360/244/517
f 139/245/518 467/243/518 201/215/518
f 143/243/519 501/246/519 526/244/519
f 4/210/520 363/214/520 185/218/520
f 546/211/521 475/210/521 207/218/521
f 293/213/522 282/245/522 449/215/522
f 123/215/523 510/244/523 17/220/523
f 487/216/524 339/215/524 187/220/524
f 501/217/525 447/247/525 336/245/525
f 474/245/526 284/213/526 202/212/526
f 129/245/527 479/212/527 482/217/527
f 31/218/528 435/219/528 23/211/528
f 378/246/529 355/243/529 492/248/529
f 526/243/530 192/245/530 263/248/530
f 204/249/531 186/211/531 258/219/531
f 464/250/532 200/249/532 497/221/532
f 149/219/533 82/221/533 336/249/533
f 28/248/534 9/245/534 535/247/534
f 240/251/535 486/250/535 508/220/535
f 294/250/536 276/221/536 143/220/536
f 421/251/537 255/220/537 542/244/537
f 219/246/538 214/252/538 257/244/538
f 161/252/539 314/251/539 277/244/539
f 336/253/540 249/254/540 252/255/540
f 429/256/541 393/253/541 528/255/541
f 404/257/542 428/256/542 461/255/542
f 299/258/543 222/259/543 31/260/543
f 520/261/544 216/256/544 543/257/544
f 477/260/545 219/259/545 99/262/545
f 215/263/546 370/264/546 123/265/546
f 341/265/547 338/266/547 368/263/547
f 135/267/548 322/265/548 524/264/548
f 236/268/549 86/267/549 34/269/549
f 267/267/550 488/264/550 311/269/550
f 510/270/551 5/271/551 191/272/551
f 16/259/552 479/261/552 434/257/552
f 456/253/553 429/273/553 288/254/553
f 193/259/554 101/257/554 275/274/554
f 10/273/555 99/275/555 432/276/555
f 306/276/556 302/275/556 398/277/556
f 394/278/557 516/268/557 378/269/557
f 202/270/558 345/260/558 346/271/558
f 363/279/559 270/270/559 129/272/559
f 1/270/560 463/258/560 337/260/560
f 345/280/561 202/268/561 37/281/561
f 527/268/562 96/278/562 394/281/562
f 330/266/563 85/279/563 349/263/563
f 539/282/564 475/283/564 447/262/564
f 469/282/565 490/262/565 471/274/565
f 182/284/566 478/285/566 401/286/566
f 75/283/567 452/285/567 366/284/567
f 300/286/568 415/287/568 283/284/568
f 147/274/569 97/288/569 90/282/569
f 442/255/570 82/289/570 251/257/570
f 267/278/571 470/269/571 343/290/571
f 309/289/572 348/291/572 32/257/572
f 33/274/573 212/257/573 41/291/573
f 433/291/574 286/288/574 396/274/574
f 511/284/575 206/262/575 349/283/575
f 213/292/576 344/289/576 362/255/576
f 418/293/577 465/292/577 225/255/577
f 263/276/578 302/254/578 526/273/578
f 328/259/579 491/274/579 386/262/579
f 261/276/580 272/293/580 413/254/580
f 273/293/581 47/255/581 13/254/581
f 504/294/582 385/287/582 340/286/582
f 89/286/583 310/295/583 249/294/583
f 407/294/584 64/295/584 442/296/584
f 28/296/585 329/297/585 261/298/585
f 422/296/586 523/298/586 427/294/586
f 354/286/587 540/285/587 52/299/587
f 275/300/588 101/286/588 197/299/588
f 9/299/589 28/285/589 360/301/589
f 420/301/590 378/283/590 154/302/590
f 11/285/591 290/283/591 292/301/591
f 31/295/592 513/286/592 87/300/592
f 329/297/593 208/296/593 272/303/593
f 471/304/594 383/297/594 230/303/594
f 276/303/595 294/296/595 302/305/595
f 254/305/596 49/295/596 147/300/596
f 359/296/597 243/295/597 387/305/597
f 387/283/598 311/282/598 153/302/598
f 38/306/599 322/307/599 440/308/599
f 464/307/600 424/306/600 200/309/600
f 274/309/601 204/306/601 258/310/601
f 408/309/602 211/311/602 160/312/602
f 210/307/603 214/309/603 219/313/603
f 88/291/604 240/289/604 508/314/604
f 436/282/605 299/288/605 31/315/605
f 438/302/606 243/282/606 359/315/606
f 521/315/607 33/288/607 139/316/607
f 484/316/608 287/291/608 325/314/608
f 528/288/609 314/291/609 429/316/609
f 320/317/610 278/297/610 503/304/610
f 442/318/611 336/280/611 82/281/611
f 200/319/612 412/320/612 497/318/612
f 456/318/613 26/320/613 429/280/613
f 252/314/614 501/289/614 336/321/614
f 20/317/615 262/322/615 535/319/615
f 439/317/616 49/319/616 454/318/616
f 249/275/617 325/319/617 287/277/617
f 515/320/618 399/319/618 476/275/618
f 433/319/619 337/322/619 385/277/619
f 360/281/620 28/297/620 261/317/620
f 292/317/621 389/318/621 11/281/621
f 183/289/622 88/292/622 94/321/622
f 448/277/623 100/322/623 374/323/623
f 380/324/624 425/277/624 247/323/624
f 480/323/625 405/322/625 413/325/625
f 142/325/626 385/317/626 205/304/626
f 415/322/627 426/317/627 283/325/627
f 38/276/628 440/277/628 462/324/628
f 148/292/629 544/293/629 347/326/629
f 72/321/630 304/292/630 376/326/630
f 479/326/631 456/293/631 288/327/631
f 197/327/632 305/276/632 491/324/632
f 486/293/633 299/276/633 531/327/633
f 463/328/634 3/329/634 247/139/634
f 357/328/635 344/139/635 364/138/635
f 203/139/636 132/329/636 228/190/636
f 230/329/637 416/330/637 317/192/637
f 266/330/638 293/194/638 449/192/638
f 435/328/639 124/138/639 305/147/639
f 512/331/640 417/332/640 271/333/640
f 205/334/641 425/331/641 142/333/641
f 96/333/642 355/332/642 516/335/642
f 421/336/643 496/337/643 184/338/643
f 95/332/644 139/339/644 529/335/644
f 245/340/645 524/184/645 151/195/645
f 464/341/646 350/162/646 424/167/646
f 373/169/647 260/162/647 218/341/647
f 529/173/648 422/341/648 533/167/648
f 478/342/649 182/343/649 444/181/649
f 272/184/650 366/344/650 367/182/650
f 377/340/651 195/165/651 526/169/651
f 415/344/652 414/173/652 69/172/652
f 161/172/653 193/182/653 532/344/653
f 39/340/654 186/195/654 204/165/654
f 192/341/655 420/340/655 483/169/655
f 205/168/656 463/172/656 247/173/656
f 72/345/657 380/331/657 304/334/657
f 1/346/658 26/179/658 199/347/658
f 544/346/659 148/348/659 427/179/659
f 458/177/660 313/185/660 535/176/660
f 339/338/661 84/349/661 187/336/661
f 250/187/662 183/176/662 376/185/662
f 339/348/663 186/174/663 146/179/663
f 96/186/664 516/350/664 394/351/664
f 123/347/665 370/179/665 320/180/665
f 211/350/666 408/186/666 322/348/666
f 448/348/667 38/175/667 462/174/667
f 348/175/668 85/348/668 32/186/668
f 129/336/669 185/352/669 363/337/669
f 340/353/670 385/333/670 142/354/670
f 25/334/671 38/333/671 448/353/671
f 305/333/672 277/335/672 23/354/672
f 444/331/673 326/345/673 246/349/673
f 411/349/674 295/355/674 303/331/674
f 151/352/675 233/334/675 500/353/675
f 185/353/676 129/354/676 482/337/676
f 265/352/677 86/353/677 244/337/677
f 219/345/678 29/336/678 210/349/678
f 93/345/679 199/334/679 8/352/679
f 387/336/680 267/345/680 311/352/680
f 31/356/681 222/272/681 513/287/681
f 36/272/682 217/271/682 342/287/682
f 441/294/683 524/356/683 245/287/683
f 220/290/684 389/298/684 256/278/684
f 519/290/685 504/356/685 55/294/685
f 489/271/686 312/284/686 40/287/686
f 412/350/687 422/346/687 427/357/687
f 201/192/688 327/190/688 395/329/688
f 305/350/689 124/348/689 491/346/689
f 293/284/690 323/260/690 333/262/690
f 101/271/691 305/260/691 197/284/691
f 306/298/692 539/290/692 447/294/692
f 1/358/693 93/359/693 418/356/693
f 245/358/694 151/356/694 462/290/694
f 389/264/695 520/359/695 543/358/695
f 370/269/696 203/358/696 278/290/696
f 20/358/697 348/269/697 308/264/697
f 409/359/698 40/264/698 190/263/698
f 430/281/699 5/278/699 510/297/699
f 325/278/700 517/298/700 451/297/700
f 352/359/701 247/272/701 365/356/701
f 531/359/702 152/263/702 393/279/702
f 297/272/703 83/359/703 270/279/703
f 331/189/704 253/190/704 473/192/704
f 367/347/705 368/360/705 338/346/705
f 545/361/706 457/351/706 285/350/706
f 5/362/707 188/360/707 191/347/707
f 490/360/708 545/357/708 471/346/708
f 448/357/709 67/361/709 100/350/709
f 317/363/710 416/362/710 514/347/710
f 21/180/711 347/178/711 319/187/711
f 348/181/712 536/343/712 85/185/712
f 522/342/713 87/186/713 514/351/713
f 334/180/714 522/363/714 514/347/714
f 400/342/715 24/181/715 538/186/715
f 84/343/716 284/187/716 478/185/716
f 313/332/717 372/331/717 382/364/717
f 480/364/718 512/331/718 271/355/718
f 271/339/719 156/332/719 480/364/719
f 512/365/720 341/366/720 375/337/720
f 146/366/721 37/338/721 339/337/721
f 307/339/722 406/367/722 445/335/722
f 504/365/723 429/337/723 26/354/723
f 184/343/724 496/180/724 517/187/724
f 55/368/725 291/365/725 265/354/725
f 20/367/726 535/368/726 9/335/726
f 272/368/727 261/354/727 329/335/727
f 430/369/728 510/370/728 459/371/728
f 228/372/729 243/369/729 438/371/729
f 405/373/730 156/372/730 350/371/730
f 27/374/731 194/375/731 13/376/731
f 389/375/732 220/377/732 493/378/732
f 460/370/733 374/369/733 100/379/733
f 472/379/734 187/369/734 397/380/734
f 363/380/735 297/381/735 270/379/735
f 318/382/736 426/383/736 415/384/736
f 195/379/737 496/384/737 354/370/737
f 143/384/738 276/379/738 501/382/738
f 479/375/739 16/378/739 482/376/739
f 499/385/740 331/386/740 396/376/740
f 210/374/741 36/376/741 342/386/741
f 291/387/742 253/388/742 34/389/742
f 255/390/743 421/391/743 145/392/743
f 19/393/744 4/389/744 370/388/744
f 393/386/745 429/394/745 504/374/745
f 457/378/746 545/395/746 490/385/746
f 17/376/747 191/378/747 432/385/747
f 332/383/748 8/382/748 83/394/748
f 417/385/749 313/383/749 382/386/749
f 198/394/750 442/386/750 97/383/750
f 468/396/751 333/382/751 392/379/751
f 333/392/752 414/391/752 415/397/752
f 483/398/753 263/392/753 192/397/753
f 377/344/754 127/397/754 517/391/754
f 132/390/755 2/374/755 430/399/755
f 390/391/756 209/400/756 512/344/756
f 22/377/757 448/392/757 374/398/757
f 423/401/758 259/402/758 224/403/758
f 495/404/759 338/405/759 413/406/759
f 468/407/760 541/328/760 414/408/760
f 356/408/761 249/409/761 336/410/761
f 541/328/762 69/409/762 414/408/762
f 379/374/763 483/394/763 420/399/763
f 298/410/764 406/396/764 184/381/764
f 277/408/765 193/410/765 161/381/765
f 517/407/766 127/408/766 509/380/766
f 324/381/767 271/396/767 417/379/767
f 55/408/768 1/381/768 291/380/768
f 42/399/769 379/396/769 316/410/769
f 510/399/770 320/400/770 459/391/770
f 183/391/771 279/390/771 376/399/771
f 414/399/772 333/394/772 468/396/772
f 29/400/773 477/399/773 206/410/773
f 404/394/774 461/382/774 275/396/774
f 433/366/775 396/365/775 331/404/775
f 94/411/776 508/412/776 98/330/776
f 465/368/777 498/367/777 225/405/777
f 374/404/778 500/365/778 22/368/778
f 368/405/779 323/404/779 341/368/779
f 326/329/780 59/328/780 518/411/780
f 445/413/781 268/194/781 280/330/781
f 341/145/782 323/144/782 375/413/782
f 388/413/783 450/144/783 389/194/783
f 260/330/784 373/329/784 428/411/784
f 293/330/785 300/412/785 437/413/785
f 426/405/786 318/339/786 69/364/786
f 353/342/787 534/401/787 362/403/787
f 432/351/788 47/414/788 332/401/788
f 438/343/789 153/342/789 446/403/789
f 203/341/790 228/410/790 278/409/790
f 348/340/791 20/341/791 9/409/791
f 280/342/792 307/351/792 445/401/792
f 419/364/793 193/402/793 461/405/793
f 287/405/794 89/367/794 249/339/794
f 40/364/795 409/355/795 489/403/795
f 307/403/796 145/402/796 406/364/796
f 210/355/797 39/349/797 214/403/797
f 420/413/798 192/412/798 453/362/798
f 452/415/799 466/416/799 392/417/799
f 193/418/800 419/419/800 532/415/800
f 449/417/801 208/420/801 266/415/801
f 315/421/802 372/419/802 518/422/802
f 315/418/803 324/415/803 382/420/803
f 315/416/804 518/415/804 59/419/804
f 531/392/805 299/375/805 152/374/805
f 244/374/806 86/390/806 259/392/806
f 254/392/807 335/377/807 49/375/807
f 1/423/808 55/424/808 26/425/808
f 7/423/809 472/426/809 246/424/809
f 207/422/810 475/427/810 346/421/810
f 29/360/811 206/362/811 36/428/811
f 25/357/812 22/360/812 233/428/812
f 253/362/813 337/412/813 473/428/813
f 440/363/814 312/180/814 489/413/814
f 329/362/815 28/363/815 485/413/815
f 135/357/816 524/428/816 211/414/816
f 541/427/817 466/422/817 426/423/817
f 463/406/818 385/421/818 337/427/818
f 203/429/819 370/430/819 185/431/819
f 300/361/820 333/357/820 415/414/820
f 328/351/821 386/361/821 469/414/821
f 338/240/822 495/432/822 367/132/822
f 35/433/823 434/132/823 288/432/823
f 18/388/824 96/387/824 369/434/824
f 440/393/825 544/388/825 312/434/825
f 213/387/826 362/435/826 221/434/826
f 21/436/827 360/433/827 148/432/827
f 398/135/828 302/437/828 263/438/828
f 20/438/829 532/439/829 419/135/829
f 306/387/830 276/438/830 302/437/830
f 410/433/831 355/436/831 156/440/831
f 293/437/832 375/435/832 323/387/832
f 219/135/833 477/439/833 29/441/833
f 263/418/834 401/442/834 398/443/834
f 72/443/835 425/419/835 380/418/835
f 224/426/836 499/443/836 396/442/836
f 49/328/837 280/407/837 268/411/837
f 25/442/838 524/444/838 322/426/838
f 452/443/839 437/426/839 466/423/839
f 366/445/840 452/446/840 392/431/840
f 519/135/841 55/441/841 286/447/841
f 154/445/842 378/431/842 492/430/842
f 19/423/843 215/422/843 144/443/843
f 532/422/844 20/419/844 308/443/844
f 465/448/845 194/449/845 498/450/845
f 144/451/846 17/452/846 157/453/846
f 512/454/847 480/452/847 341/451/847
f 30/455/848 40/436/848 312/432/848
f 182/456/849 483/432/849 42/457/849
f 496/432/850 421/456/850 542/455/850
f 323/450/851 368/454/851 392/451/851
f 225/458/852 274/459/852 258/460/852
f 466/459/853 283/458/853 426/461/853
f 525/459/854 49/461/854 530/462/854
f 219/430/855 384/452/855 99/454/855
f 368/454/856 366/445/856 392/430/856
f 59/432/857 316/240/857 481/457/857
f 330/463/858 206/448/858 477/451/858
f 390/453/859 512/463/859 375/451/859
f 265/448/860 291/434/860 86/449/860
f 294/451/861 526/448/861 302/450/861
f 434/434/862 479/435/862 288/449/862
f 209/393/863 417/434/863 512/448/863
f 353/447/864 357/464/864 158/155/864
f 3/155/865 258/135/865 365/447/865
f 75/240/866 282/155/866 293/464/866
f 529/463/867 201/393/867 190/448/867
f 322/464/868 135/457/868 211/240/868
f 394/465/869 540/417/869 354/466/869
f 468/467/870 392/465/870 466/466/870
f 308/401/871 309/467/871 35/402/871
f 97/419/872 445/421/872 198/416/872
f 468/467/873 466/466/873 541/402/873
f 309/468/874 16/467/874 434/401/874
f 410/417/875 537/465/875 492/469/875
f 357/469/876 353/420/876 344/417/876
f 196/470/877 32/469/877 361/465/877
f 153/414/878 438/468/878 359/401/878
f 510/468/879 123/465/879 320/467/879
f 471/417/880 230/416/880 469/466/880
f 319/427/881 347/471/881 160/472/881
f 31/460/882 23/472/882 436/471/882
f 261/472/883 497/406/883 360/427/883
f 488/406/884 459/472/884 320/404/884
f 317/460/885 514/404/885 328/472/885
f 422/471/886 424/427/886 533/423/886
f 495/406/887 272/405/887 367/416/887
f 222/416/888 486/421/888 513/406/888
f 472/466/889 7/416/889 303/402/889
f 361/423/890 330/425/890 99/471/890
f 154/416/891 537/405/891 316/402/891
f 247/420/892 3/469/892 365/473/892
f 408/474/893 347/475/893 544/412/893
f 461/411/894 262/474/894 20/412/894
f 340/428/895 142/412/895 443/476/895
f 278/414/896 446/428/896 503/468/896
f 525/412/897 280/475/897 49/476/897
f 440/372/898 489/373/898 462/475/898
f 327/369/899 217/372/899 402/474/899
f 20/380/900 419/369/900 461/474/900
f 395/407/901 511/380/901 400/411/901
f 411/474/902 91/372/902 260/475/902
f 145/380/903 421/474/903 150/411/903
f 249/428/904 391/476/904 127/468/904
f 539/371/905 474/477/905 475/478/905
f 322/373/906 38/371/906 25/478/906
f 523/478/907 190/477/907 427/465/907
f 190/473/908 538/418/908 409/420/908
f 536/477/909 21/470/909 349/465/909
f 266/429/910 485/453/910 390/452/910
f 286/475/911 265/373/911 423/478/911
f 261/476/912 464/475/912 497/478/912
f 79/468/913 207/476/913 346/478/913
f 338/452/914 341/430/914 480/429/914
f 151/478/915 62/465/915 67/468/915
f 388/479/916 155/480/916 450/134/916
f 433/481/917 331/479/917 473/132/917
f 438/134/918 446/133/918 278/479/918
f 36/127/919 511/134/919 402/480/919
f 411/133/920 260/132/920 295/479/920
f 517/132/921 496/433/921 195/482/921
f 526/161/922 195/134/922 52/127/922
f 464/440/923 261/483/923 413/433/923
f 499/127/924 259/126/924 236/161/924
f 527/482/925 354/481/925 216/132/925
f 293/482/926 437/433/926 75/483/926
f 101/425/927 193/484/927 277/458/927
f 479/485/928 129/486/928 456/487/928
f 333/485/929 323/488/929 392/486/929
f 34/489/930 86/490/930 291/491/930
f 411/487/931 303/489/931 7/485/931
f 434/490/932 35/492/932 309/491/932
f 196/493/933 12/488/933 482/485/933
f 458/471/934 218/458/934 372/460/934
f 283/458/935 466/471/935 437/425/935
f 197/494/936 491/444/936 506/495/936
f 504/485/937 26/495/937 55/493/937
f 3/444/938 225/493/938 258/495/938
f 458/483/939 262/440/939 373/445/939
f 262/418/940 461/496/940 428/442/940
f 355/217/941 96/211/941 533/442/941
f 403/496/942 494/217/942 79/442/942
f 481/135/943 324/125/943 59/437/943
f 259/211/944 86/497/944 236/442/944
f 511/498/945 36/446/945 206/248/945
f 330/217/946 477/496/946 99/247/946
f 280/499/947 399/496/947 307/418/947
