# Blender 5.1.1
# www.blender.org
o Куб.001
v 0.533807 0.914337 0.643870
v 0.532439 2.426110 0.477215
v 0.605790 1.059328 -0.287350
v 0.619218 2.367431 -0.211536
v 0.000871 1.003949 -0.319337
v -0.000000 2.480862 -0.357245
v 0.709752 1.677161 0.003402
v 0.612311 0.898347 0.117664
v 0.609445 2.445779 0.128505
v 0.649632 1.619363 0.514421
v -0.006512 0.941539 0.681667
v -0.000000 2.544096 0.544675
v 0.719870 1.669061 0.112528
v -0.000282 0.900452 0.187817
v -0.000000 2.614716 0.130571
v 0.822791 0.610988 -1.266006
v 0.537138 2.284160 -0.496397
v 0.000744 1.088061 -0.577030
v 0.000000 2.280686 -0.622767
v 0.466804 1.405015 -0.836251
v 0.464238 2.125351 -0.748601
v 0.090363 0.841078 3.156997
v 0.000448 1.205393 -0.797806
v -0.000000 2.103516 -0.887623
v 0.563010 1.755166 -0.874255
v 0.000079 1.591307 -0.915417
v 0.084677 1.234166 3.233847
v 0.172094 1.622699 3.044022
v 0.443517 1.025290 1.300016
v 0.500000 2.376748 0.889562
v 0.175772 0.864392 2.956268
v 0.609674 1.621534 0.884030
v -0.012224 0.974865 1.129968
v -0.000068 2.487144 0.979387
v 0.059274 0.852954 3.388273
v 0.033850 1.010452 3.455388
v 0.047665 0.807098 3.277152
v 0.570340 2.528199 1.239684
v 0.537125 0.459929 1.683109
v -0.008697 0.933137 1.477815
v 0.005207 2.647201 1.345351
v 0.118300 1.443720 3.228266
v 0.136209 0.840490 3.070717
v 0.177045 1.800717 2.822261
v 0.583003 2.528340 1.435916
v 0.443213 0.455893 1.743987
v -0.005810 0.974641 1.622264
v 0.002419 2.653376 1.544475
v 0.190837 0.896019 2.839911
v 0.177045 1.913608 2.650259
v 0.177045 0.932154 2.697702
v 0.540207 2.469419 1.719261
v 0.658576 1.828452 1.777834
v 0.539040 1.142494 2.051759
v -0.002088 1.070366 1.786691
v 0.000053 2.587693 1.817999
v 0.181751 2.061598 2.401204
v 0.181751 1.080669 2.335563
v 0.453443 2.247097 2.002408
v 0.552804 1.617103 1.936579
v 0.453441 1.360615 1.958536
v -0.000802 1.153053 1.921621
v 0.000000 2.337349 2.103108
v 0.227127 2.303801 2.070401
v 0.227124 1.248770 1.942480
v 0.271600 2.554620 1.765669
v 0.350344 1.092703 1.807403
v 0.364925 2.004050 2.356443
v 0.444891 1.432455 2.324729
v 0.364925 1.132161 2.275909
v -0.000000 1.046368 2.348773
v -0.000000 2.090877 2.403872
v 0.293607 2.618735 1.479477
v 0.293545 1.069712 1.704993
v 0.287329 2.615897 1.276951
v 0.355746 1.864569 2.607538
v 0.433703 1.378992 2.611907
v 0.355746 0.978778 2.645119
v -0.000000 0.905007 2.685513
v -0.000000 1.939943 2.638031
v 0.286773 1.079071 1.697225
v 0.250990 2.456718 0.911335
v 0.308779 1.042969 1.468963
v 0.372539 1.618610 2.783499
v 0.455708 1.409622 2.756407
v 0.382651 0.945491 2.794209
v -0.000000 0.869456 2.822985
v -0.000000 1.828743 2.802438
v 0.249343 1.655208 -0.901820
v 0.203240 2.102305 -0.851092
v 0.326755 1.335415 -0.796445
v 0.241143 1.415804 3.176069
v 0.339854 1.173619 3.078755
v 0.276080 0.876932 3.032193
v -0.000000 0.829836 3.035662
v -0.000000 1.466915 3.198841
v 0.249592 2.257460 -0.659298
v 0.285588 1.149415 -0.576635
v 0.307139 2.556894 0.094114
v 0.069124 1.010972 3.433194
v 0.125993 0.868221 3.350497
v 0.103346 0.833070 3.273999
v -0.000000 0.796946 3.286067
v 0.064203 0.959117 3.439031
v -0.000000 0.842976 3.383748
v 0.465527 1.453180 2.843688
v -0.000000 0.845832 2.931830
v 0.353261 0.907564 2.912753
v 0.309608 0.883998 0.094956
v -0.000000 1.653181 3.019799
v 0.402860 1.586016 2.866825
v 0.267639 2.510685 0.480969
v -0.000000 1.236773 3.232959
v 0.266572 0.894250 0.642652
v 0.301623 2.448446 -0.392041
v 0.360237 1.015287 -0.351568
v 0.186642 0.871115 3.120229
v -0.000000 0.836800 3.115944
v 0.210413 1.020915 3.214638
v 0.175549 1.200454 3.211258
v 0.070240 0.823685 3.211820
v 0.067630 1.086179 3.357832
v 0.139993 0.842355 3.204179
v 0.161300 0.945415 3.281963
v -0.000000 1.094493 3.346449
v -0.000000 0.817061 3.197069
v 0.134901 1.075135 3.327025
v 0.611510 2.242988 0.988100
v 0.707554 1.601818 0.951331
v 0.640081 1.093115 1.324743
v 0.671984 2.393709 1.229524
v 0.785174 1.590045 1.462321
v 0.799105 1.115936 1.774333
v 0.636691 2.421402 1.417358
v 0.799139 1.693691 1.606483
v 0.810559 1.139322 1.952717
v 0.641479 2.278678 1.584071
v 0.751879 1.815577 1.752084
v 0.743531 1.185178 2.069922
v 0.422460 0.660405 1.622729
v 0.520230 0.678899 1.543966
v 0.740204 0.729270 2.077909
v 0.590335 0.709014 2.124882
v 0.789738 0.700695 1.961175
v 0.403179 0.648201 1.858468
v 0.781268 0.690285 1.829809
v 0.664387 0.697764 1.537793
v 0.408092 0.654308 1.987973
v 0.451913 0.686984 2.058682
v 0.751923 0.487576 2.052608
v 0.603911 0.486392 2.097283
v 0.539277 0.003170 1.643132
v 0.802539 0.473329 1.962031
v 0.421560 0.454806 1.878857
v 0.424315 0.001535 1.701643
v 0.790981 0.465165 1.860546
v 0.674728 0.465087 1.686510
v 0.423052 0.465310 1.994565
v 0.466348 0.480038 2.065535
v 0.440545 0.263822 1.701760
v 0.544315 0.264342 1.646735
v 0.781130 0.283175 1.983830
v 0.619431 0.283239 2.025324
v 0.800834 0.271394 1.900191
v 0.422594 0.263093 1.824661
v 0.790443 0.264798 1.807868
v 0.697201 0.265573 1.649935
v 0.425784 0.270963 1.930854
v 0.469906 0.281885 1.996443
v 0.828293 -0.002472 2.000464
v 0.621965 -0.006425 2.042389
v 0.659615 -0.002967 1.918921
v 0.824502 -0.001694 1.912732
v 0.404482 -0.002635 1.832234
v 0.648505 -0.002515 1.812429
v 0.814442 -0.002452 1.815502
v 0.708737 0.003494 1.646773
v 0.410281 -0.002046 1.943332
v 0.428875 -0.003070 2.012140
v 0.429978 0.137869 1.703188
v 0.416438 0.141366 1.939133
v 0.410807 0.136357 1.830114
v 0.805711 0.137049 1.813615
v 0.815454 0.142077 1.909294
v 0.799280 0.204114 1.994723
v 0.624157 0.199429 2.040291
v 0.704700 0.139023 1.649894
v 0.541022 0.138283 1.646442
v 0.460682 0.202556 2.006021
v 0.621151 0.102674 2.175246
v 0.621955 -0.015494 2.178098
v 0.798064 -0.011605 2.135769
v 0.459339 -0.012634 2.147298
v 0.791243 0.107212 2.133393
v 0.464076 0.106236 2.144267
v 0.761883 2.235059 -0.263723
v 0.788386 1.689278 -0.097529
v 0.765837 1.109712 -0.351806
v 0.752081 2.171872 -0.503275
v 0.859572 1.742903 -0.580851
v 0.813261 1.242178 -0.575480
v 0.742357 2.064459 -0.708292
v 0.839224 1.766450 -0.797262
v 0.744876 1.398958 -0.798748
v 0.604659 0.515331 -1.473734
v 0.526266 1.136183 -0.988899
v 0.637129 0.878710 -0.446243
v 0.440466 0.889749 -0.505993
v 0.380937 0.997895 -0.737850
v 0.414221 1.112196 -0.948355
v 0.803628 1.014963 -0.733132
v 0.749001 1.118972 -0.956617
v 0.765500 0.912817 -0.514831
v 0.543240 0.982266 -1.007998
v 0.642902 0.499190 -0.844326
v 0.463835 0.559367 -0.868719
v 0.410289 0.791039 -0.909456
v 0.441108 0.952549 -0.987625
v 0.795444 0.777760 -0.897727
v 0.746141 0.955904 -0.985178
v 0.760060 0.564882 -0.854677
v 0.548257 0.740468 -1.543009
v 0.666817 0.305537 -1.403383
v 0.411981 0.352109 -1.430386
v 0.400232 0.537075 -1.488937
v 0.434523 0.707835 -1.536492
v 0.828930 0.527045 -1.476564
v 0.774036 0.709847 -1.533157
v 0.833368 0.357400 -1.419815
v 0.825318 0.444277 -1.203094
v 0.394091 0.620702 -1.278819
v 0.428355 0.788939 -1.333464
v 0.403932 0.438856 -1.213312
v 0.658773 0.393151 -1.185273
v 0.542084 0.821215 -1.341236
v 0.767869 0.791039 -1.330134
v 0.782972 0.276733 -1.269685
v 0.789501 0.226866 -1.373835
v 0.659176 0.174936 -1.357640
v 0.459817 0.221272 -1.384664
v 0.453286 0.270653 -1.280430
v 0.652656 0.225814 -1.251056
v 0.785738 0.702922 -1.067525
v 0.426531 0.711210 -1.076236
v 0.643658 0.484780 -0.997642
v 0.752864 0.535722 -1.015017
v 0.455382 0.864262 -1.117166
v 0.476613 0.530706 -1.022811
v 0.550700 0.892676 -1.124183
v 0.739881 0.866086 -1.114249
v -0.000000 1.964712 -0.963352
v -0.000000 1.715167 -1.003691
v 0.092442 1.734059 -0.967765
v 0.076591 1.955334 -0.937061
v 0.127696 1.726605 -0.919549
v 0.088882 2.048142 -0.898695
v -0.000000 1.692332 -0.956154
v -0.000000 2.059583 -0.930772
v 0.353936 1.746711 2.705682
v 0.462452 1.330779 2.718924
v 0.346085 1.578162 2.995776
v 0.469988 1.306018 2.922777
v 0.431634 1.658340 2.822498
v 0.509515 1.642537 2.839450
v 0.472450 1.665759 2.839287
v 0.537234 1.606485 2.830174
v 0.536419 1.520807 2.801450
v 0.550043 1.564372 2.817404
v 0.514399 1.605057 2.875666
v 0.455471 1.615883 2.878474
v 0.486059 1.620690 2.880690
v 0.527030 1.530561 2.855965
v 0.527210 1.590307 2.870667
v 0.537319 1.561277 2.862486
v 0.372831 1.595799 2.868870
v 0.460350 1.409920 2.834313
v 0.490673 1.644531 2.886203
v 0.529939 1.622691 2.879758
v 0.447174 1.637709 2.883493
v 0.548145 1.601512 2.873296
v 0.562047 1.561389 2.862585
v 0.548125 1.519788 2.853580
v 0.383871 1.571080 2.864188
v 0.450291 1.431418 2.838219
v 0.413090 1.569990 2.852667
v 0.458299 1.474402 2.835966
v 0.473111 1.595080 2.862679
v 0.493557 1.583877 2.859074
v 0.451044 1.591618 2.861071
v 0.502798 1.573292 2.855482
v 0.510091 1.552430 2.849602
v 0.502668 1.530414 2.844938
v 0.399391 1.559504 2.850810
v 0.447307 1.458665 2.831946
v 0.058900 1.022062 3.422855
v 0.055763 0.934671 3.434306
v 0.099802 1.024368 3.394782
v 0.095412 0.936725 3.407108
v -0.000000 0.934882 3.437350
v -0.000000 1.019698 3.426345
v 0.030579 0.958720 3.460543
v -0.000000 1.008597 3.454328
v -0.000000 0.958488 3.459933
v -0.547617 1.196940 0.598409
v -0.532732 2.434818 0.473113
v -0.602163 1.199643 0.099073
v -0.619472 2.369763 -0.234210
v -0.708447 1.782892 0.091656
v -0.615896 1.165992 0.320212
v -0.609568 2.456262 0.116780
v -0.654006 1.759165 0.514671
v -0.718984 1.793428 0.185044
v -0.820385 0.218853 -0.143037
v -0.537649 2.223154 -0.537071
v -0.464301 1.181166 -0.577555
v -0.464300 2.024266 -0.746717
v -0.090363 0.841078 3.156997
v -0.561877 1.593143 -0.784314
v -0.084677 1.234166 3.233847
v -0.172094 1.622706 3.044022
v -0.482298 1.272404 0.955699
v -0.502323 2.385252 0.889793
v -0.175772 0.864392 2.956268
v -0.621984 1.724182 0.848697
v -0.059274 0.852954 3.388273
v -0.033850 1.010452 3.455388
v -0.047665 0.807098 3.277152
v -0.566932 2.556976 1.239696
v -0.585503 0.742277 0.790672
v -0.118300 1.443720 3.228266
v -0.136209 0.840490 3.070717
v -0.177045 1.800718 2.822261
v -0.579293 2.560168 1.435929
v -0.489263 0.709152 0.836966
v -0.190837 0.896019 2.839911
v -0.177045 1.913608 2.650259
v -0.177045 0.932154 2.697702
v -0.540936 2.492218 1.719275
v -0.696326 1.780560 1.701205
v -0.574685 0.967966 1.652747
v -0.181751 2.061598 2.401204
v -0.181751 1.080669 2.335564
v -0.458688 2.244132 2.017346
v -0.565749 1.553167 1.899424
v -0.464958 1.278979 1.881002
v -0.227717 2.304016 2.070402
v -0.232790 1.205002 1.897030
v -0.270568 2.556321 1.765668
v -0.368988 1.020508 1.606860
v -0.364925 2.004050 2.356443
v -0.446262 1.419397 2.322480
v -0.364925 1.132161 2.275911
v -0.285233 2.626994 1.479470
v -0.314105 1.027960 1.491834
v -0.278218 2.625286 1.276945
v -0.355746 1.864569 2.607538
v -0.433703 1.378995 2.611912
v -0.355746 0.978780 2.645127
v -0.322235 1.084861 1.358672
v -0.251435 2.457758 0.911336
v -0.348510 1.173458 1.114102
v -0.372539 1.618608 2.783499
v -0.455708 1.409638 2.756418
v -0.382651 0.945494 2.794217
v -0.248974 1.596838 -0.876274
v -0.203268 2.083711 -0.852155
v -0.324472 1.161414 -0.553053
v -0.241143 1.415818 3.176074
v -0.339854 1.173619 3.078755
v -0.276080 0.876932 3.032193
v -0.249692 2.239526 -0.666806
v -0.282688 1.108284 -0.301877
v -0.307155 2.557837 0.092628
v -0.069124 1.010972 3.433194
v -0.125993 0.868221 3.350497
v -0.103346 0.833070 3.273999
v -0.064203 0.959117 3.439031
v -0.465527 1.453217 2.843705
v -0.353261 0.907564 2.912753
v -0.310635 1.037599 0.253557
v -0.402860 1.586089 2.866833
v -0.267623 2.510773 0.480969
v -0.279643 1.068727 0.599224
v -0.301735 2.444597 -0.401542
v -0.356838 1.089878 0.001115
v -0.186642 0.871115 3.120229
v -0.210413 1.020915 3.214638
v -0.175549 1.200454 3.211258
v -0.070240 0.823685 3.211820
v -0.067630 1.086179 3.357832
v -0.139993 0.842355 3.204179
v -0.161300 0.945415 3.281963
v -0.134901 1.075135 3.327025
v -0.622588 2.285397 0.990698
v -0.723198 1.714527 0.894921
v -0.682297 1.381992 0.983426
v -0.678612 2.445849 1.239262
v -0.826102 1.719211 1.301729
v -0.846153 1.173650 1.310265
v -0.641317 2.460546 1.420524
v -0.840998 1.749150 1.472807
v -0.858009 1.070358 1.457313
v -0.658686 2.321530 1.604772
v -0.792795 1.784028 1.667281
v -0.787675 1.013270 1.606741
v -0.472600 0.942671 0.891139
v -0.570115 1.008054 0.845915
v -0.787639 0.687282 1.266147
v -0.636325 0.637013 1.299790
v -0.837604 0.744601 1.160431
v -0.451633 0.778796 1.052091
v -0.829413 0.826011 1.056838
v -0.713840 1.028781 0.849290
v -0.454295 0.686767 1.165755
v -0.496177 0.650872 1.263923
v -0.787543 0.527806 1.101204
v -0.638400 0.508257 1.135745
v -0.560634 0.395228 0.489860
v -0.840215 0.568295 1.021197
v -0.462470 0.628210 0.943875
v -0.443318 0.368410 0.536338
v -0.831870 0.623171 0.935723
v -0.722866 0.734680 0.796391
v -0.460596 0.565319 1.041601
v -0.502218 0.530375 1.106395
v -0.475919 0.578702 0.690679
v -0.581816 0.603409 0.646460
v -0.804593 0.402961 0.929249
v -0.641663 0.390783 0.962759
v -0.826793 0.440784 0.855331
v -0.452674 0.507391 0.789416
v -0.820111 0.490410 0.776810
v -0.734190 0.590819 0.649638
v -0.452145 0.450946 0.879077
v -0.494308 0.417610 0.937842
v -0.832635 0.159136 0.775440
v -0.624814 0.147215 0.807275
v -0.668028 0.219412 0.709321
v -0.832784 0.211437 0.704885
v -0.417500 0.290009 0.639558
v -0.661692 0.283029 0.623383
v -0.827009 0.268577 0.625755
v -0.729456 0.380381 0.492841
v -0.418403 0.224936 0.729816
v -0.433835 0.182388 0.784898
v -0.457416 0.477067 0.617787
v -0.433684 0.342568 0.810681
v -0.432583 0.402876 0.719566
v -0.827103 0.382875 0.706276
v -0.832893 0.330081 0.786602
v -0.816859 0.331263 0.892196
v -0.639948 0.314282 0.926456
v -0.733765 0.488225 0.575122
v -0.570673 0.502183 0.572041
v -0.478657 0.349308 0.900725
v -0.624947 0.157515 0.978867
v -0.618239 0.060441 0.911804
v -0.795943 0.074858 0.879637
v -0.457638 0.093205 0.888674
v -0.796669 0.172622 0.947483
v -0.469920 0.190497 0.956003
v -0.762347 2.230908 -0.305189
v -0.786893 1.775494 0.008157
v -0.762354 1.209595 0.019585
v -0.752301 2.095506 -0.517704
v -0.858108 1.655776 -0.462591
v -0.810126 1.184668 -0.237164
v -0.742126 1.930795 -0.687624
v -0.837787 1.597375 -0.681099
v -0.742128 1.181889 -0.515322
v -0.603109 -0.009552 -0.122115
v -0.522581 0.835156 -0.518740
v -0.633111 0.995669 0.079409
v -0.436417 0.961655 0.014653
v -0.377021 0.897251 -0.239979
v -0.410479 0.843337 -0.473128
v -0.799851 0.912546 -0.229332
v -0.745333 0.845405 -0.478511
v -0.761548 0.979208 0.007119
v -0.538898 0.647011 -0.437828
v -0.639592 0.552304 0.116423
v -0.460417 0.554795 0.049524
v -0.406306 0.611594 -0.187516
v -0.436781 0.641504 -0.397399
v -0.791477 0.618489 -0.169992
v -0.741812 0.646636 -0.398765
v -0.756589 0.569770 0.049830
v -0.546237 -0.003120 -0.359162
v -0.665688 -0.001422 0.098938
v -0.410792 -0.017623 0.046156
v -0.398662 -0.017977 -0.148780
v -0.432582 -0.007603 -0.326047
v -0.827352 -0.007889 -0.136252
v -0.772077 -0.002710 -0.327489
v -0.832130 -0.004051 0.043557
v -0.823228 0.221062 0.033387
v -0.391695 0.208601 -0.156283
v -0.425615 0.216103 -0.332739
v -0.401889 0.208499 0.035343
v -0.656785 0.220295 0.087368
v -0.539270 0.220683 -0.365736
v -0.765111 0.221491 -0.333905
v -0.781558 0.115119 0.165101
v -0.788521 0.003376 0.182237
v -0.658304 0.005343 0.237166
v -0.458885 -0.010298 0.185015
v -0.451922 0.100401 0.168634
v -0.651341 0.119705 0.219053
v -0.782514 0.437078 -0.157012
v -0.423289 0.429360 -0.168685
v -0.640859 0.421392 0.069910
v -0.749975 0.425466 0.016658
v -0.451712 0.446159 -0.335486
v -0.473753 0.414533 0.018132
v -0.546950 0.451159 -0.366746
v -0.736196 0.450598 -0.336657
v -0.092420 1.728827 -0.965461
v -0.076591 1.955334 -0.937061
v -0.127604 1.706354 -0.913173
v -0.088882 2.048142 -0.898695
v -0.353936 1.746711 2.705682
v -0.462452 1.330788 2.718934
v -0.346085 1.578182 2.995779
v -0.469988 1.306030 2.922786
v -0.431634 1.658437 2.822491
v -0.509515 1.642705 2.839444
v -0.472450 1.665919 2.839272
v -0.537234 1.606670 2.830186
v -0.536419 1.520912 2.801483
v -0.550043 1.564512 2.817429
v -0.514399 1.605200 2.875675
v -0.455471 1.616015 2.878479
v -0.486059 1.620832 2.880694
v -0.527030 1.530675 2.855994
v -0.527210 1.590449 2.870682
v -0.537319 1.561411 2.862509
v -0.372831 1.595826 2.868873
v -0.460350 1.409941 2.834325
v -0.490673 1.644690 2.886199
v -0.529939 1.622853 2.879762
v -0.447174 1.637838 2.883492
v -0.548145 1.601672 2.873308
v -0.562047 1.561531 2.862610
v -0.548125 1.519907 2.853613
v -0.383871 1.571158 2.864199
v -0.450291 1.431441 2.838231
v -0.413090 1.570074 2.852680
v -0.458299 1.474432 2.835979
v -0.473111 1.595203 2.862690
v -0.493557 1.583979 2.859086
v -0.451044 1.591750 2.861084
v -0.502798 1.573405 2.855498
v -0.510091 1.552556 2.849627
v -0.502668 1.530515 2.844964
v -0.399391 1.559578 2.850823
v -0.447307 1.458693 2.831960
v -0.058900 1.022062 3.422855
v -0.055763 0.934671 3.434306
v -0.099802 1.024368 3.394782
v -0.095412 0.936725 3.407108
v -0.030579 0.958720 3.460543
v 0.291561 1.205034 3.110170
v 0.306648 1.273896 3.121841
v 0.269728 1.205240 3.152097
v 0.232186 1.165052 3.152078
v 0.245906 1.208871 3.121811
v 0.291926 1.276140 3.103123
v 0.256597 1.276473 3.170965
v 0.210577 1.209203 3.189651
v 0.195855 1.211447 3.170933
v 0.232775 1.280104 3.140678
v 0.270316 1.320292 3.140697
v 0.210942 1.280309 3.182606
v 0.285805 1.198547 3.128454
v 0.307506 1.238902 3.110671
v 0.294673 1.239023 3.135315
v 0.307720 1.280697 3.106530
v 0.298852 1.240221 3.099669
v 0.263739 1.174925 3.128444
v 0.250905 1.175046 3.153088
v 0.271803 1.200682 3.110653
v 0.236903 1.177180 3.135286
v 0.272017 1.242476 3.106512
v 0.295019 1.306649 3.128615
v 0.286365 1.307968 3.117613
v 0.265254 1.240538 3.164189
v 0.286955 1.280893 3.146406
v 0.216138 1.177376 3.175162
v 0.238204 1.200998 3.175174
v 0.215548 1.204451 3.146369
v 0.207484 1.178695 3.164160
v 0.264299 1.284346 3.117602
v 0.237249 1.244806 3.128586
v 0.265600 1.308164 3.157489
v 0.230486 1.242867 3.186264
v 0.194783 1.204647 3.186245
v 0.207830 1.246321 3.157460
v 0.251598 1.310298 3.139687
v 0.230700 1.284662 3.182122
v 0.238764 1.310418 3.164331
v 0.203650 1.245123 3.193105
v 0.194997 1.246442 3.182104
v 0.216698 1.286797 3.164320
v -0.291561 1.205034 3.110170
v -0.306648 1.273896 3.121842
v -0.269728 1.205240 3.152097
v -0.232186 1.165052 3.152078
v -0.245906 1.208871 3.121811
v -0.291925 1.276140 3.103124
v -0.256597 1.276473 3.170965
v -0.210577 1.209203 3.189652
v -0.195854 1.211447 3.170934
v -0.232775 1.280103 3.140678
v -0.270316 1.320292 3.140697
v -0.210942 1.280309 3.182606
v -0.285805 1.198547 3.128455
v -0.307506 1.238902 3.110672
v -0.294673 1.239023 3.135316
v -0.307720 1.280697 3.106530
v -0.298852 1.240221 3.099670
v -0.263739 1.174925 3.128444
v -0.250905 1.175046 3.153089
v -0.271803 1.200681 3.110653
v -0.236903 1.177180 3.135287
v -0.272017 1.242476 3.106512
v -0.295019 1.306649 3.128615
v -0.286365 1.307968 3.117613
v -0.265254 1.240538 3.164190
v -0.286955 1.280893 3.146406
v -0.216137 1.177376 3.175162
v -0.238204 1.200997 3.175174
v -0.215548 1.204451 3.146370
v -0.207484 1.178694 3.164160
v -0.264299 1.284346 3.117602
v -0.237249 1.244806 3.128586
v -0.265599 1.308164 3.157489
v -0.230486 1.242867 3.186264
v -0.194782 1.204647 3.186245
v -0.207830 1.246320 3.157460
v -0.251597 1.310298 3.139687
v -0.230700 1.284662 3.182122
v -0.238764 1.310418 3.164332
v -0.203650 1.245123 3.193106
v -0.194997 1.246442 3.182104
v -0.216698 1.286797 3.164321
vn -0.8559 -0.5167 -0.0226
vn 0.3465 0.8039 -0.4835
vn 0.9879 -0.1348 -0.0763
vn 0.9909 0.1328 -0.0215
vn 0.9688 0.1420 0.2032
vn 0.9792 -0.1344 0.1521
vn 0.9781 -0.1528 0.1411
vn 0.0787 -0.9815 0.1745
vn 0.1496 -0.9375 -0.3140
vn 0.0590 -0.9978 0.0311
vn 0.1147 0.9639 -0.2404
vn 0.1805 0.9720 0.1507
vn 0.2217 0.7671 -0.6020
vn 0.2021 -0.1032 -0.9739
vn 0.0811 -0.9034 -0.4210
vn 0.6445 0.2804 0.7113
vn 0.1661 0.2361 -0.9574
vn 0.0523 -0.2104 -0.9762
vn 0.2239 0.3569 -0.9069
vn 0.2544 -0.8074 -0.5323
vn 0.8415 0.5402 0.0104
vn 0.9971 -0.0489 -0.0588
vn 0.1532 0.9798 0.1286
vn 0.9844 0.1450 0.0999
vn 0.3268 -0.5942 -0.7350
vn 0.1089 0.9938 -0.0232
vn 0.0037 0.9165 -0.4001
vn -0.6342 -0.4913 -0.5969
vn 0.6692 0.1208 -0.7332
vn 0.1633 0.9595 0.2296
vn -0.9714 -0.2245 0.0774
vn 0.9327 -0.1054 -0.3448
vn 0.0047 0.8058 -0.5921
vn 0.3232 0.2143 0.9217
vn -0.4092 -0.3238 0.8531
vn -0.0372 -0.9891 0.1423
vn -0.0525 -0.9690 -0.2414
vn -0.0987 -0.9941 0.0443
vn 0.0641 0.0941 0.9935
vn 0.7739 0.4781 -0.4154
vn 0.3538 0.9127 -0.2045
vn 0.9474 -0.3091 0.0828
vn 0.2967 -0.8566 -0.4222
vn 0.3167 0.9390 0.1343
vn 0.2081 0.7376 0.6424
vn 0.0435 0.8057 -0.5907
vn 0.8486 0.1425 0.5095
vn 0.4774 -0.5471 0.6876
vn 0.8058 0.1359 -0.5764
vn 0.1214 -0.2869 -0.9502
vn 0.9854 0.1449 0.0892
vn 0.9729 0.1145 -0.2010
vn 0.1716 0.7732 0.6106
vn 0.3270 -0.9450 0.0013
vn 0.9419 0.1150 0.3155
vn 0.3083 0.9419 0.1334
vn 0.2943 0.9555 -0.0211
vn 0.9785 0.2031 0.0359
vn 0.2310 0.8795 -0.4161
vn 0.0774 0.8298 0.5527
vn 0.1320 -0.9171 -0.3761
vn 0.9750 -0.2189 -0.0387
vn 0.3260 0.9157 0.2349
vn 0.1169 0.8441 0.5233
vn -0.0006 0.7052 0.7090
vn 0.2894 -0.9401 0.1802
vn 0.8391 -0.2569 0.4795
vn 0.2122 -0.9698 -0.1202
vn 0.0981 -0.7231 0.6837
vn 0.1799 -0.9509 -0.2518
vn 0.9346 -0.2257 -0.2749
vn 0.1042 -0.9172 0.3844
vn 0.8717 -0.4614 0.1650
vn 0.3324 -0.9425 -0.0347
vn 0.2945 -0.9109 -0.2891
vn 0.3450 0.6921 0.6340
vn 0.3634 0.7252 0.5849
vn 0.7618 0.1189 0.6368
vn 0.4555 0.6754 0.5799
vn 0.1553 -0.9129 -0.3776
vn 0.1859 -0.9031 0.3871
vn 0.8837 0.0162 0.4677
vn 0.3523 0.8072 0.4737
vn 0.3844 0.5844 0.7146
vn 0.1217 -0.9801 -0.1571
vn 0.4144 0.6161 0.6699
vn 0.1593 -0.9544 -0.2525
vn 0.5346 0.0473 0.8438
vn 0.1479 -0.9668 -0.2083
vn 0.3937 -0.8679 0.3029
vn -0.3030 -0.3549 0.8844
vn -0.0092 0.7222 0.6917
vn 0.1789 -0.9521 -0.2480
vn 0.9702 -0.2417 0.0188
vn 0.0310 -0.4970 0.8672
vn 0.0512 0.7776 0.6267
vn 0.6302 0.0267 0.7760
vn 0.1441 -0.9632 -0.2267
vn -0.1346 0.0993 0.9859
vn 0.4460 0.7359 0.5094
vn 0.3335 0.0126 0.9427
vn 0.0463 -0.9972 0.0579
vn 0.3308 -0.9154 0.2293
vn 0.7809 -0.3221 0.5353
vn 0.4028 0.5541 0.7285
vn 0.1485 -0.9593 -0.2400
vn 0.8472 0.0974 0.5222
vn -0.0169 0.6337 0.7734
vn 0.2233 -0.9520 -0.2092
vn 0.8796 -0.3648 0.3054
vn 0.9492 -0.2131 -0.2314
vn 0.9845 0.1755 -0.0062
vn 0.9732 0.1139 -0.1996
vn 0.9536 0.2626 0.1472
vn 0.9973 -0.0205 -0.0705
vn 0.9388 0.1703 0.2995
vn 0.7679 0.2776 0.5772
vn 0.9066 0.3512 0.2339
vn -0.6978 0.1441 0.7017
vn -0.0180 0.4114 0.9113
vn 0.0374 -0.5355 -0.8437
vn 0.9021 0.0247 0.4307
vn -0.9840 -0.1372 -0.1136
vn -0.9959 -0.0846 0.0317
vn 0.9951 0.0433 -0.0890
vn 0.2989 -0.0919 0.9499
vn 0.8929 -0.0158 0.4499
vn -0.8730 0.0830 0.4807
vn 0.1733 -0.4994 -0.8489
vn -0.9525 -0.2963 -0.0695
vn 0.9225 -0.0601 0.3813
vn -0.9876 0.0423 -0.1514
vn -0.9996 -0.0166 0.0225
vn 0.9931 0.0271 -0.1145
vn 0.2575 -0.2900 0.9217
vn 0.8345 0.1632 -0.5263
vn -0.8443 -0.0445 0.5340
vn -0.3276 -0.0669 0.9424
vn -0.4744 -0.4913 -0.7304
vn 0.8852 -0.1356 -0.4450
vn 0.0212 0.0239 -0.9995
vn 0.9935 0.1088 0.0326
vn -0.9880 0.0427 -0.1487
vn -0.9977 0.0452 0.0507
vn 0.9928 0.0604 -0.1037
vn 0.9773 0.1121 0.1799
vn 0.0183 0.1829 -0.9830
vn -0.8076 -0.2006 0.5546
vn -0.1862 -0.3337 0.9241
vn -0.5016 0.1663 -0.8490
vn -0.0021 -0.9995 -0.0322
vn 0.0117 -0.9998 -0.0182
vn -0.0016 -1.0000 0.0007
vn 0.0019 -0.9994 -0.0356
vn -0.0093 -0.9997 -0.0242
vn 0.0041 -1.0000 0.0011
vn -0.9197 0.1112 0.3766
vn -0.9794 0.1150 0.1658
vn -0.4543 0.0283 -0.8904
vn 0.8489 0.0418 -0.5269
vn 0.8544 0.0649 -0.5155
vn -0.4615 0.0214 -0.8869
vn -0.1947 0.1512 0.9691
vn -0.8547 0.1192 0.5053
vn 0.2435 0.1854 0.9520
vn 0.9877 0.1083 -0.1125
vn -0.9958 0.0840 0.0358
vn -0.9858 0.0832 -0.1457
vn 0.9768 0.1665 0.1346
vn 0.0210 0.0017 -0.9998
vn 0.2355 0.0290 0.9714
vn -0.1891 0.0275 0.9816
vn 0.1244 0.8075 0.5766
vn 0.0058 -0.9978 -0.0664
vn -0.1000 0.8125 0.5743
vn -0.0058 -0.9977 -0.0680
vn 0.9863 0.1430 0.0819
vn 0.9540 -0.1557 -0.2564
vn 0.9855 -0.0951 0.1403
vn 0.9471 0.2952 -0.1263
vn 0.5916 -0.3849 0.7084
vn 0.5005 0.8071 -0.3131
vn 0.9847 -0.1194 0.1272
vn 0.3143 0.7946 -0.5195
vn -0.9672 -0.2205 0.1263
vn -0.3019 0.1335 -0.9439
vn -0.2795 -0.7073 0.6493
vn 0.9842 -0.1283 0.1222
vn 0.1423 0.4999 -0.8543
vn -0.4078 0.3894 -0.8259
vn -0.9316 -0.2020 -0.3022
vn -0.1327 -0.7321 0.6681
vn -0.2767 0.8894 -0.3640
vn -0.9453 -0.3137 0.0900
vn 0.9994 0.0285 0.0218
vn -0.9808 0.1692 -0.0967
vn 0.4580 -0.6330 0.6242
vn 0.1423 0.1534 -0.9779
vn 0.9662 0.0898 -0.2414
vn -0.9727 -0.0161 -0.2314
vn 0.0048 -0.3169 -0.9485
vn 0.0424 -0.3029 -0.9521
vn 0.0358 -0.2810 -0.9590
vn 0.0026 -0.2942 -0.9557
vn -0.9981 -0.0616 -0.0086
vn 0.9445 -0.2845 0.1642
vn 0.1408 0.9207 -0.3640
vn 0.9611 0.2652 -0.0773
vn 0.9561 0.2913 0.0327
vn 0.1443 0.9393 -0.3114
vn 0.3581 -0.8037 0.4751
vn -0.9562 -0.0644 0.2856
vn -0.9764 0.2085 0.0561
vn 0.9628 0.0058 0.2700
vn -0.2434 -0.8576 0.4532
vn -0.2858 0.9145 -0.2863
vn -0.2578 -0.8787 0.4019
vn 0.3812 -0.8247 0.4178
vn -0.1905 -0.3826 0.9040
vn 0.0462 -0.3235 -0.9451
vn 0.2422 -0.3868 0.8898
vn 0.0131 -0.3337 -0.9426
vn -0.3034 0.7589 -0.5762
vn -0.3065 -0.9444 0.1188
vn 0.9845 -0.1756 0.0049
vn -0.9780 0.1213 -0.1696
vn -0.9695 -0.2449 -0.0049
vn 0.4660 -0.8776 0.1123
vn 0.1564 0.7975 -0.5826
vn 0.9650 0.2045 -0.1642
vn 0.3339 0.1516 -0.9303
vn 0.3365 -0.8551 -0.3944
vn 0.3507 0.3110 -0.8834
vn 0.2171 0.5144 -0.8296
vn 0.1802 -0.1994 -0.9632
vn 0.2730 0.1191 -0.9546
vn 0.9559 0.2926 0.0267
vn 0.9357 0.3064 0.1750
vn 0.9962 0.0792 -0.0362
vn 0.8972 0.3512 0.2677
vn -0.5814 0.7607 0.2887
vn 0.7632 0.6390 -0.0966
vn 0.8054 -0.5835 -0.1045
vn 0.5113 0.8424 0.1701
vn -0.2442 0.8759 0.4162
vn 0.9123 0.3548 -0.2048
vn 0.9422 -0.2346 -0.2392
vn 0.2533 0.2911 -0.9225
vn -0.0582 -0.2048 0.9771
vn 0.0316 -0.2400 0.9702
vn -0.0291 -0.2269 0.9735
vn 0.0071 -0.2612 0.9653
vn -0.0001 -0.2099 0.9777
vn 0.0388 -0.2731 0.9612
vn -0.0460 -0.2706 0.9616
vn 0.0441 -0.2000 0.9788
vn -0.0015 -0.2221 0.9750
vn 0.0073 -0.1829 0.9831
vn 0.1631 -0.5937 0.7880
vn -0.0298 -0.1918 0.9810
vn 0.2959 -0.5220 0.8000
vn -0.4091 0.1822 0.8941
vn -0.4121 -0.0545 0.9095
vn -0.1385 -0.5223 0.8415
vn 0.7293 0.2263 0.6457
vn -0.2058 -0.4702 0.8582
vn -0.5065 0.1390 0.8509
vn 0.0333 -0.5863 0.8094
vn 0.3193 0.7868 0.5282
vn 0.5296 -0.3336 0.7799
vn 0.5248 -0.3958 0.7536
vn -0.0292 0.1060 0.9939
vn 0.0200 -0.7103 0.7036
vn -0.0339 0.9402 0.3388
vn 0.7525 0.0354 0.6576
vn 0.8839 -0.3987 0.2446
vn -0.3816 0.7430 -0.5498
vn -0.9797 -0.1799 -0.0888
vn -0.9887 0.1464 -0.0334
vn -0.9597 0.1829 0.2133
vn -0.9685 -0.1316 0.2116
vn -0.9671 -0.2068 0.1483
vn -0.5350 -0.8278 0.1689
vn -0.4267 -0.8945 -0.1331
vn -0.3892 -0.9085 0.1523
vn -0.1145 0.9632 -0.2430
vn -0.1793 0.9721 0.1514
vn -0.3779 0.6290 -0.6794
vn -0.2599 -0.4462 -0.8564
vn -0.3489 -0.9126 -0.2129
vn -0.6904 0.4314 0.5808
vn -0.3344 0.1151 -0.9354
vn -0.1435 -0.5275 -0.8374
vn -0.2963 0.1134 -0.9484
vn -0.2309 -0.9215 -0.3123
vn -0.7723 0.6349 0.0209
vn -0.9972 0.0063 -0.0751
vn -0.1508 0.9803 0.1274
vn -0.9791 0.1765 0.1013
vn -0.3196 -0.2978 -0.8995
vn -0.0793 0.9966 -0.0215
vn 0.0166 0.9127 -0.4082
vn 0.7125 0.1549 -0.6843
vn -0.6076 0.1942 -0.7701
vn -0.1491 0.9600 0.2371
vn 0.9573 -0.2378 -0.1647
vn -0.9230 0.2009 -0.3281
vn -0.0142 0.7941 -0.6077
vn -0.8357 -0.2025 0.5106
vn 0.0114 -0.7256 0.6881
vn -0.4806 -0.8725 0.0878
vn -0.3955 -0.9041 -0.1619
vn -0.4131 -0.9062 0.0901
vn -0.3221 -0.6729 0.6660
vn -0.6998 0.5554 -0.4493
vn -0.3282 0.9197 -0.2156
vn -0.9367 -0.3203 0.1415
vn -0.2350 -0.9360 -0.2619
vn -0.2924 0.9470 0.1328
vn -0.2055 0.7375 0.6434
vn -0.0958 0.7955 -0.5983
vn -0.8680 0.1156 0.4830
vn -0.4646 -0.0332 0.8849
vn -0.8379 0.1206 -0.5324
vn -0.3823 -0.4096 -0.8283
vn -0.9856 0.1443 0.0877
vn -0.9745 -0.0277 -0.2227
vn -0.1710 0.7731 0.6109
vn -0.4396 -0.8816 -0.1718
vn -0.9439 0.1020 0.3141
vn -0.2810 0.9508 0.1306
vn -0.2228 0.9746 -0.0228
vn -0.9785 0.2031 0.0359
vn -0.1815 0.8794 -0.4401
vn -0.0774 0.8298 0.5527
vn -0.1320 -0.9171 -0.3761
vn -0.9738 -0.2250 -0.0341
vn -0.2565 0.9334 0.2511
vn -0.1169 0.8441 0.5233
vn 0.0006 0.7052 0.7090
vn -0.2980 -0.9537 -0.0411
vn -0.8391 -0.2569 0.4795
vn -0.2122 -0.9698 -0.1202
vn -0.1962 -0.8004 0.5665
vn -0.1799 -0.9509 -0.2518
vn -0.9346 -0.2257 -0.2749
vn -0.1319 -0.9519 0.2765
vn -0.8717 -0.4614 0.1650
vn -0.3324 -0.9425 -0.0347
vn -0.1765 -0.9536 -0.2439
vn -0.3016 0.7019 0.6453
vn -0.3462 0.7255 0.5948
vn -0.7618 0.1189 0.6368
vn -0.4555 0.6754 0.5799
vn -0.1553 -0.9129 -0.3776
vn -0.1859 -0.9031 0.3871
vn -0.8837 0.0162 0.4677
vn -0.3523 0.8072 0.4737
vn -0.3844 0.5844 0.7146
vn -0.1217 -0.9801 -0.1571
vn -0.4144 0.6161 0.6699
vn -0.1593 -0.9544 -0.2525
vn -0.5346 0.0473 0.8438
vn -0.1479 -0.9668 -0.2083
vn -0.3937 -0.8679 0.3029
vn 0.3029 -0.3547 0.8846
vn 0.0092 0.7222 0.6917
vn -0.1789 -0.9521 -0.2481
vn -0.9702 -0.2417 0.0188
vn -0.0310 -0.4970 0.8672
vn -0.0512 0.7776 0.6267
vn -0.6302 0.0267 0.7760
vn -0.1441 -0.9632 -0.2267
vn 0.1346 0.0993 0.9859
vn -0.4460 0.7360 0.5094
vn -0.3335 0.0126 0.9427
vn -0.0463 -0.9972 0.0579
vn -0.3308 -0.9154 0.2293
vn -0.7809 -0.3221 0.5353
vn -0.4028 0.5541 0.7285
vn -0.1485 -0.9593 -0.2400
vn -0.8472 0.0974 0.5222
vn 0.0169 0.6337 0.7734
vn -0.2233 -0.9520 -0.2092
vn -0.8796 -0.3648 0.3054
vn -0.9324 -0.0615 -0.3561
vn -0.9710 0.2370 0.0317
vn -0.9428 0.1874 -0.2758
vn -0.9514 0.2682 0.1512
vn -0.9966 0.0306 -0.0767
vn -0.9456 -0.0093 0.3253
vn -0.6501 0.1770 0.7389
vn -0.8576 0.4550 0.2399
vn 0.2880 -0.7128 0.6395
vn -0.2620 -0.0871 0.9611
vn -0.0229 0.1906 -0.9814
vn -0.8932 -0.2982 0.3366
vn 0.9849 0.0027 -0.1731
vn 0.9988 -0.0407 -0.0261
vn -0.9974 0.0490 -0.0519
vn -0.3085 -0.7145 0.6279
vn -0.9060 -0.3102 0.2881
vn 0.8019 -0.5407 0.2540
vn 0.0515 0.3582 -0.9322
vn 0.9476 -0.2097 -0.2410
vn -0.9018 -0.3416 0.2649
vn 0.9759 0.1983 -0.0906
vn 0.9985 0.0510 0.0197
vn -0.9963 0.0098 -0.0851
vn -0.2053 -0.7951 0.5707
vn -0.8650 0.3714 -0.3373
vn 0.8802 -0.3785 0.2865
vn 0.2398 -0.7702 0.5910
vn 0.4860 0.1572 -0.8597
vn -0.8901 0.1688 -0.4233
vn -0.0669 0.6037 -0.7944
vn -0.9960 -0.0073 0.0894
vn 0.9758 0.1973 -0.0943
vn 0.9942 0.0832 0.0685
vn -0.9982 0.0335 -0.0493
vn -0.9735 -0.0897 0.2105
vn -0.0712 0.7163 -0.6942
vn 0.8405 -0.4266 0.3342
vn 0.2428 -0.8028 0.5445
vn 0.4552 0.6661 -0.5909
vn 0.0632 -0.7871 -0.6136
vn 0.0501 -0.7971 -0.6018
vn 0.0640 -0.8071 -0.5869
vn 0.0590 -0.7853 -0.6163
vn 0.0706 -0.7919 -0.6066
vn 0.0586 -0.8077 -0.5866
vn 0.9267 -0.0606 0.3708
vn 0.9767 0.0706 0.2026
vn 0.4118 0.5797 -0.7031
vn -0.8724 0.2776 -0.4024
vn -0.8788 0.2893 -0.3794
vn 0.4194 0.5728 -0.7043
vn 0.2281 -0.4184 0.8791
vn 0.8658 -0.1225 0.4851
vn -0.2120 -0.4214 0.8818
vn -0.9966 0.0777 -0.0281
vn 0.9887 0.1247 0.0837
vn 0.9713 0.2284 -0.0672
vn -0.9787 -0.0200 0.2044
vn -0.0654 0.5863 -0.8074
vn -0.1937 -0.5635 0.8031
vn 0.2302 -0.5381 0.8108
vn -0.1491 0.3046 0.9407
vn 0.0538 -0.7668 -0.6396
vn 0.0744 0.3271 0.9421
vn 0.0649 -0.7650 -0.6408
vn -0.9873 0.1562 0.0301
vn -0.9647 -0.2200 -0.1444
vn -0.9854 -0.0307 0.1673
vn -0.9506 0.2312 -0.2074
vn -0.5636 -0.0506 0.8245
vn -0.4762 0.7329 -0.4859
vn -0.9841 -0.0233 0.1761
vn -0.3876 0.6216 -0.6807
vn 0.9732 -0.0465 0.2254
vn 0.3486 -0.3819 -0.8560
vn 0.3349 0.0675 0.9399
vn -0.9874 0.0042 0.1582
vn -0.2016 -0.1181 -0.9723
vn 0.2490 -0.2496 -0.9358
vn 0.9245 -0.3534 -0.1430
vn 0.3084 -0.1200 0.9437
vn 0.2777 -0.0371 -0.9599
vn 0.9426 -0.0175 0.3334
vn -0.9992 0.0343 -0.0220
vn 0.9811 -0.0363 -0.1900
vn -0.4906 0.0820 0.8675
vn -0.1783 -0.3723 -0.9108
vn -0.9752 -0.0816 -0.2059
vn 0.9801 -0.1469 -0.1335
vn -0.0028 -0.9996 0.0294
vn -0.0516 -0.9986 0.0111
vn -0.0396 -0.9983 -0.0427
vn -0.0057 -0.9996 -0.0286
vn 0.9978 -0.0326 0.0576
vn -0.9436 0.0707 0.3234
vn -0.1393 -0.0244 -0.9900
vn -0.9605 0.0216 -0.2774
vn -0.9573 0.1333 -0.2567
vn -0.1475 -0.0013 -0.9891
vn -0.3558 0.1559 0.9214
vn 0.9562 0.2431 0.1629
vn 0.9783 0.1195 -0.1692
vn -0.9617 0.2593 0.0885
vn 0.2421 0.1153 0.9634
vn 0.2946 0.0138 -0.9555
vn 0.2577 0.1308 0.9573
vn -0.3840 0.1653 0.9084
vn 0.1930 0.7548 0.6269
vn -0.0602 -0.9973 0.0419
vn -0.2371 0.7435 0.6254
vn -0.0038 -0.9986 0.0519
vn 0.3080 -0.3224 -0.8951
vn 0.3083 -0.2780 0.9098
vn -0.9854 -0.0571 0.1601
vn 0.9787 -0.1186 -0.1677
vn 0.9698 -0.0998 0.2224
vn -0.4717 -0.2537 0.8445
vn -0.1640 -0.3165 -0.9343
vn -0.9681 -0.0844 -0.2361
vn -0.3497 0.1453 -0.9255
vn -0.2808 -0.8328 -0.4770
vn -0.3507 0.3110 -0.8834
vn -0.2435 0.5505 -0.7985
vn -0.2187 -0.2242 -0.9497
vn -0.3547 0.0795 -0.9316
vn -0.9559 0.2926 0.0267
vn -0.9357 0.3064 0.1750
vn -0.9962 0.0792 -0.0362
vn -0.8972 0.3512 0.2678
vn 0.5821 0.7603 0.2883
vn -0.7632 0.6390 -0.0963
vn -0.8056 -0.5832 -0.1044
vn -0.5112 0.8424 0.1702
vn 0.2450 0.8757 0.4160
vn -0.9124 0.3545 -0.2047
vn -0.9422 -0.2345 -0.2392
vn -0.2532 0.2908 -0.9227
vn 0.0584 -0.2048 0.9771
vn -0.0316 -0.2396 0.9704
vn 0.0290 -0.2265 0.9736
vn -0.0071 -0.2608 0.9654
vn -0.0000 -0.2096 0.9778
vn -0.0389 -0.2727 0.9613
vn 0.0457 -0.2704 0.9617
vn -0.0441 -0.2000 0.9788
vn 0.0016 -0.2219 0.9751
vn -0.0075 -0.1829 0.9831
vn -0.1638 -0.5936 0.7880
vn 0.0298 -0.1917 0.9810
vn -0.2960 -0.5219 0.8000
vn 0.4094 0.1822 0.8940
vn 0.4121 -0.0543 0.9095
vn 0.1384 -0.5217 0.8418
vn -0.7293 0.2262 0.6458
vn 0.2055 -0.4698 0.8585
vn 0.5067 0.1390 0.8508
vn -0.0333 -0.5860 0.8096
vn -0.3193 0.7868 0.5282
vn -0.5296 -0.3336 0.7799
vn -0.5248 -0.3958 0.7536
vn 0.0292 0.1060 0.9939
vn -0.0200 -0.7103 0.7036
vn 0.0339 0.9402 0.3388
vn -0.7525 0.0354 0.6576
vn 0.8961 -0.4238 0.1317
vn 0.9975 0.0019 0.0707
vn 0.7307 -0.6826 -0.0121
vn 0.1099 -0.5880 -0.8014
vn 0.0413 -0.2936 -0.9550
vn 0.9363 0.2921 0.1953
vn 0.6878 -0.1557 0.7090
vn 0.3444 -0.7075 0.6171
vn -0.6069 -0.1588 -0.7788
vn -0.4208 0.1590 -0.8931
vn 0.7919 0.1593 0.5895
vn 0.5964 -0.1914 0.7795
vn -0.3952 -0.8958 0.2035
vn -0.6285 -0.0048 -0.7778
vn -0.3576 0.3345 -0.8719
vn 0.4470 0.2395 0.8619
vn 0.2431 -0.0463 0.9689
vn -0.9975 -0.0019 -0.0707
vn -0.7601 0.2670 -0.5925
vn -0.4475 0.8622 -0.2373
vn -0.7307 0.6826 0.0121
vn -0.6822 0.6374 -0.3583
vn -0.6942 0.4134 -0.5891
vn -0.8961 0.4238 -0.1317
vn -0.8552 0.2631 -0.4466
vn -0.8798 0.1249 -0.4587
vn -0.7220 0.3309 0.6076
vn -0.7805 0.0656 0.6218
vn -0.1738 -0.1274 0.9765
vn -0.0413 0.2935 0.9551
vn 0.2534 0.0941 0.9628
vn 0.4174 0.0875 0.9045
vn -0.1099 0.5880 0.8014
vn 0.2535 0.4948 0.8312
vn 0.2197 0.7605 0.6110
vn -0.3444 0.7075 -0.6171
vn -0.4625 0.4324 -0.7741
vn -0.5848 0.3404 -0.7363
vn -0.6878 0.1557 -0.7090
vn -0.6976 0.0605 -0.7139
vn -0.7767 0.0235 -0.6294
vn -0.9363 -0.2920 -0.1953
vn -0.6272 -0.6595 0.4143
vn -0.0725 -0.4237 0.9029
vn 0.4208 -0.1590 0.8931
vn 0.5257 -0.1259 0.8413
vn 0.5343 -0.0306 0.8448
vn 0.6069 0.1587 0.7788
vn 0.6835 0.2577 0.6829
vn 0.5927 0.5646 0.5743
vn -0.5964 0.1915 -0.7795
vn -0.5257 0.1259 -0.8413
vn -0.5343 0.0306 -0.8448
vn -0.7919 -0.1593 -0.5895
vn -0.6835 -0.2577 -0.6829
vn -0.5927 -0.5646 -0.5743
vn 0.3576 -0.3345 0.8719
vn 0.4625 -0.4324 0.7740
vn 0.5848 -0.3404 0.7363
vn 0.6285 0.0048 0.7778
vn 0.6976 -0.0605 0.7139
vn 0.7767 -0.0235 0.6294
vn 0.3952 0.8958 -0.2035
vn 0.6272 0.6595 -0.4143
vn 0.0725 0.4237 -0.9029
vn -0.2431 0.0463 -0.9689
vn -0.2534 -0.0941 -0.9628
vn -0.4174 -0.0875 -0.9045
vn -0.4471 -0.2395 -0.8619
vn -0.2535 -0.4948 -0.8312
vn -0.2197 -0.7605 -0.6110
vn 0.4475 -0.8622 0.2373
vn 0.6821 -0.6374 0.3584
vn 0.6943 -0.4134 0.5891
vn 0.1739 0.1274 -0.9765
vn 0.7805 -0.0656 -0.6218
vn 0.7220 -0.3309 -0.6076
vn 0.7601 -0.2670 0.5924
vn 0.8552 -0.2631 0.4466
vn 0.8798 -0.1249 0.4587
vn -0.8961 -0.4238 0.1317
vn -0.9975 0.0019 0.0707
vn -0.7307 -0.6826 -0.0121
vn -0.1099 -0.5880 -0.8014
vn -0.0413 -0.2935 -0.9551
vn -0.9363 0.2921 0.1953
vn -0.6878 -0.1557 0.7090
vn -0.3444 -0.7075 0.6171
vn 0.6069 -0.1587 -0.7788
vn 0.4208 0.1590 -0.8931
vn -0.7919 0.1593 0.5895
vn -0.5964 -0.1915 0.7795
vn 0.3952 -0.8958 0.2035
vn 0.6285 -0.0048 -0.7778
vn 0.3576 0.3345 -0.8719
vn -0.4471 0.2395 0.8619
vn -0.2432 -0.0463 0.9689
vn 0.9975 -0.0019 -0.0707
vn 0.7601 0.2670 -0.5925
vn 0.4475 0.8622 -0.2373
vn 0.7307 0.6826 0.0121
vn 0.6821 0.6374 -0.3583
vn 0.6942 0.4134 -0.5891
vn 0.8961 0.4238 -0.1317
vn 0.8552 0.2631 -0.4466
vn 0.8798 0.1249 -0.4587
vn 0.7220 0.3309 0.6076
vn 0.7805 0.0656 0.6217
vn 0.1738 -0.1274 0.9765
vn 0.0413 0.2936 0.9550
vn -0.2534 0.0941 0.9628
vn -0.4174 0.0875 0.9045
vn 0.1099 0.5880 0.8014
vn -0.2535 0.4948 0.8312
vn -0.2197 0.7605 0.6110
vn 0.3444 0.7075 -0.6171
vn 0.4625 0.4324 -0.7741
vn 0.5848 0.3404 -0.7363
vn 0.6878 0.1557 -0.7090
vn 0.6976 0.0605 -0.7139
vn 0.7767 0.0235 -0.6294
vn 0.9363 -0.2920 -0.1953
vn 0.6272 -0.6595 0.4143
vn 0.0725 -0.4237 0.9029
vn -0.4208 -0.1590 0.8931
vn -0.5257 -0.1259 0.8413
vn -0.5343 -0.0306 0.8448
vn -0.6069 0.1587 0.7788
vn -0.6835 0.2577 0.6829
vn -0.5927 0.5646 0.5743
vn 0.5964 0.1915 -0.7795
vn 0.5257 0.1259 -0.8413
vn 0.5343 0.0306 -0.8448
vn 0.7919 -0.1593 -0.5895
vn 0.6835 -0.2577 -0.6829
vn 0.5927 -0.5646 -0.5743
vn -0.3576 -0.3345 0.8719
vn -0.4625 -0.4324 0.7741
vn -0.5848 -0.3404 0.7363
vn -0.6285 0.0048 0.7778
vn -0.6976 -0.0605 0.7139
vn -0.7767 -0.0235 0.6294
vn -0.3952 0.8958 -0.2035
vn -0.6272 0.6595 -0.4143
vn -0.0725 0.4237 -0.9029
vn 0.2431 0.0463 -0.9689
vn 0.2534 -0.0941 -0.9628
vn 0.4174 -0.0875 -0.9045
vn 0.4471 -0.2395 -0.8619
vn 0.2535 -0.4948 -0.8312
vn 0.2197 -0.7605 -0.6110
vn -0.4475 -0.8622 0.2373
vn -0.6821 -0.6374 0.3583
vn -0.6943 -0.4134 0.5891
vn -0.1738 0.1274 -0.9765
vn -0.7805 -0.0656 -0.6217
vn -0.7220 -0.3309 -0.6076
vn -0.7601 -0.2670 0.5925
vn -0.8552 -0.2631 0.4466
vn -0.8798 -0.1248 0.4587
vt 0.833374 0.494548
vt 0.893919 0.512741
vt 0.908415 0.468160
vt 0.848637 0.467455
vt 0.567859 0.867914
vt 0.639317 0.828812
vt 0.620915 0.894044
vt 0.556155 0.927906
vt 0.812683 0.509803
vt 0.774909 0.642712
vt 0.751394 0.643294
vt 0.751725 0.493743
vt 0.828812 0.793372
vt 0.751727 0.811870
vt 0.672932 0.807420
vt 0.672336 0.642732
vt 0.672998 0.503429
vt 0.598676 0.643182
vt 0.594201 0.530171
vt 0.560191 0.672195
vt 0.619753 0.672998
vt 0.599703 0.594201
vt 0.569702 0.558226
vt 0.580250 0.833374
vt 0.635423 0.812683
vt 0.637090 0.751725
vt 0.569078 0.759035
vt 0.500000 0.859251
vt 0.500000 0.750726
vt 0.569078 0.758996
vt 0.500000 0.657595
vt 0.560191 0.671923
vt 0.604420 0.951058
vt 0.545714 0.976119
vt 0.604420 0.548422
vt 0.626365 0.643481
vt 0.688416 0.643970
vt 0.666902 0.547256
vt 0.500000 0.917421
vt 0.563590 0.893919
vt 0.639317 0.793372
vt 0.659328 0.642712
vt 0.676970 0.643370
vt 0.671449 0.761101
vt 0.555994 0.632181
vt 0.545714 0.747180
vt 0.604420 0.735145
vt 0.572975 0.538591
vt 0.666902 0.715601
vt 0.500000 0.969030
vt 0.572975 0.947229
vt 0.501290 0.830086
vt 0.457158 0.830118
vt 0.460328 0.806630
vt 0.500288 0.803578
vt 0.499838 0.512886
vt 0.460007 0.507514
vt 0.481582 0.413128
vt 0.510774 0.417065
vt 0.500000 0.559830
vt 0.556447 0.575135
vt 0.579931 0.796381
vt 0.599703 0.530171
vt 0.637090 0.643182
vt 0.659115 0.643738
vt 0.643940 0.535244
vt 0.564556 0.492909
vt 0.500000 0.477524
vt 0.500000 0.432743
vt 0.566016 0.447361
vt 0.569702 0.518348
vt 0.616981 0.429733
vt 0.594994 0.421068
vt 0.612448 0.796381
vt 0.637526 0.771615
vt 0.500000 0.371229
vt 0.561082 0.382998
vt 0.450625 0.491920
vt 0.495971 0.498202
vt 0.507939 0.406303
vt 0.474705 0.401699
vt 0.591615 0.535244
vt 0.575831 0.433451
vt 0.407144 0.499901
vt 0.406490 0.640437
vt 0.358675 0.605643
vt 0.363238 0.556600
vt 0.578790 0.420824
vt 0.621227 0.407144
vt 0.601979 0.363238
vt 0.551080 0.357545
vt 0.500000 0.657756
vt 0.500000 0.571782
vt 0.667216 0.508652
vt 0.621227 0.499901
vt 0.632756 0.407548
vt 0.666461 0.413961
vt 0.556577 0.771615
vt 0.637090 0.751727
vt 0.260484 0.580516
vt 0.278839 0.520364
vt 0.582070 0.278839
vt 0.540875 0.268345
vt 0.619753 0.672932
vt 0.500000 0.307117
vt 0.551080 0.314473
vt 0.500000 0.983839
vt 0.393435 0.816867
vt 0.325561 0.763148
vt 0.671449 0.517077
vt 0.635423 0.509803
vt 0.642381 0.470278
vt 0.671266 0.470798
vt 0.988807 0.740196
vt 1.002924 0.661469
vt 1.015365 0.669173
vt 1.001496 0.721513
vt 0.500000 0.531683
vt 0.500000 0.631036
vt 0.249130 0.712570
vt 0.191059 0.679456
vt 0.198981 0.567653
vt 0.945839 0.547256
vt 0.886123 0.529161
vt 0.904522 0.470747
vt 0.963512 0.471464
vt 0.500000 0.238897
vt 0.540875 0.239236
vt 0.564556 0.495971
vt 0.612448 0.579931
vt 0.628268 0.501290
vt 0.631115 0.457158
vt 0.168698 0.648799
vt 0.177283 0.553376
vt 0.539817 0.181283
vt 0.500000 0.184290
vt 0.500000 0.144817
vt 0.539817 0.140934
vt 0.580006 0.205473
vt 0.539817 0.196322
vt 0.205473 0.476864
vt 0.621491 0.393435
vt 0.538703 0.608225
vt 0.500000 0.615960
vt 0.500000 0.567098
vt 0.526605 0.560962
vt 0.566016 0.450625
vt 0.149293 0.452102
vt 0.133162 0.541160
vt 0.103583 0.505809
vt 0.123733 0.441345
vt 0.539531 0.141037
vt 0.579447 0.149293
vt 0.562090 0.123733
vt 0.530633 0.116366
vt 0.500000 0.385014
vt 0.500000 0.353218
vt 0.586057 0.174337
vt 0.542919 0.165879
vt 0.174337 0.464471
vt 0.086614 0.427976
vt 0.065909 0.448336
vt 0.053210 0.428901
vt 0.071388 0.423606
vt 0.515797 0.085531
vt 0.531484 0.086614
vt 0.523242 0.071388
vt 0.510720 0.071544
vt 0.500000 0.266808
vt 0.601979 0.325561
vt 0.582070 0.249130
vt 0.108290 0.599988
vt 0.073849 0.556649
vt 0.580006 0.679456
vt 0.539817 0.690304
vt 0.539817 0.657159
vt 0.579599 0.648799
vt 0.500000 0.199929
vt 0.513331 0.045311
vt 0.500000 0.046647
vt 0.500000 0.069896
vt 0.051602 0.475706
vt 0.038205 0.462176
vt 0.038356 0.442272
vt 0.580006 0.191059
vt 0.577833 0.599988
vt 0.554232 0.556649
vt 0.500000 0.147087
vt 0.500000 0.124516
vt 0.530339 0.475706
vt 0.515210 0.477146
vt 0.513246 0.460736
vt 0.522445 0.462176
vt 0.500000 0.170521
vt 0.515546 0.457928
vt 0.507613 0.457080
vt 0.506877 0.445401
vt 0.514439 0.446199
vt 0.500000 0.089031
vt 0.528336 0.053210
vt 0.620841 0.601238
vt 0.618568 0.607555
vt 0.613078 0.604170
vt 0.614718 0.599612
vt 0.500000 0.479371
vt 0.500000 0.460095
vt 0.513331 0.424258
vt 0.512541 0.440917
vt 0.500000 0.440864
vt 0.500000 0.422187
vt 0.500000 0.664242
vt 0.576432 0.505809
vt 0.539481 0.507406
vt 0.547321 0.467354
vt 0.500000 0.513551
vt 0.519044 0.508271
vt 0.579599 0.168698
vt 0.538703 0.096221
vt 0.577833 0.108290
vt 0.520322 0.097153
vt 0.500000 0.106427
vt 0.541975 0.104341
vt 0.078394 0.467354
vt 0.104341 0.437145
vt 0.073220 0.507406
vt 0.590300 0.643738
vt 0.499630 0.641384
vt 0.459655 0.640419
vt 0.417546 0.774144
vt 0.414448 0.641253
vt 0.423095 0.508652
vt 0.621491 0.816867
vt 0.648114 0.640437
vt 0.669097 0.641253
vt 0.644267 0.774144
vt 0.578790 0.496630
vt 0.601625 0.405151
vt 0.649402 0.433451
vt 0.651726 0.367843
vt 0.620780 0.366797
vt 0.454529 0.413961
vt 0.467814 0.368189
vt 0.488225 0.366596
vt 0.561691 0.421068
vt 0.537425 0.365401
vt 0.507200 0.363509
vt 0.481273 0.364028
vt 0.510983 0.366114
vt 0.635806 0.367147
vt 0.669092 0.368189
vt 0.420824 0.496630
vt 0.452865 0.405151
vt 0.558226 0.518348
vt 0.484328 0.324872
vt 0.502799 0.322553
vt 0.547406 0.321655
vt 0.519920 0.320969
vt 0.496410 0.322232
vt 0.523434 0.321439
vt 0.639292 0.324944
vt 0.675657 0.324872
vt 0.550036 0.367843
vt 0.558926 0.322330
vt 0.465216 0.366023
vt 0.604868 0.366023
vt 0.599660 0.365401
vt 0.621651 0.293283
vt 0.658462 0.293469
vt 0.659368 0.261742
vt 0.621257 0.261665
vt 0.501495 0.293600
vt 0.482345 0.307625
vt 0.480362 0.262732
vt 0.500191 0.261781
vt 0.519246 0.292376
vt 0.547742 0.292993
vt 0.548078 0.261464
vt 0.518571 0.260916
vt 0.494871 0.293528
vt 0.493332 0.261956
vt 0.522889 0.292587
vt 0.522344 0.260869
vt 0.451756 0.288897
vt 0.449773 0.262732
vt 0.656778 0.322330
vt 0.622394 0.322035
vt 0.481902 0.324350
vt 0.605664 0.324350
vt 0.599057 0.321655
vt 0.595403 0.548078
vt 0.621257 0.561263
vt 0.645824 0.523009
vt 0.590945 0.518571
vt 0.639859 0.470735
vt 0.648324 0.498544
vt 0.685407 0.500191
vt 0.686261 0.480362
vt 0.592251 0.493332
vt 0.659368 0.560446
vt 0.683143 0.522344
vt 0.596433 0.477757
vt 0.479829 0.307317
vt 0.477757 0.262636
vt 0.447168 0.262636
vt 0.449241 0.288588
vt 0.596679 0.292993
vt 0.595403 0.261464
vt 0.559686 0.293469
vt 0.560446 0.261742
vt 0.603589 0.307317
vt 0.640355 0.307779
vt 0.679739 0.307625
vt 0.677932 0.288897
vt 0.639680 0.289050
vt 0.639859 0.262967
vt 0.679465 0.262732
vt 0.604354 0.288588
vt 0.603287 0.262636
vt 0.679739 0.482345
vt 0.640355 0.473048
vt 0.639680 0.442459
vt 0.677932 0.451756
vt 0.679465 0.449773
vt 0.639859 0.440146
vt 0.603589 0.479829
vt 0.604354 0.449241
vt 0.603287 0.447168
vt 0.841501 0.761101
vt 0.796910 0.643370
vt 0.906455 0.644155
vt 0.894416 0.742499
vt 0.957194 0.643970
vt 0.829265 0.517077
vt 0.940741 0.715601
vt 0.671449 0.841501
vt 0.669190 0.894416
vt 0.849398 0.470798
vt 0.666902 0.940741
vt 0.909364 0.402088
vt 0.855378 0.389954
vt 0.592313 0.470184
vt 0.617524 0.471308
vt 0.621192 0.417417
vt 0.598226 0.414426
vt 0.598146 0.467455
vt 0.603540 0.389954
vt 0.643835 0.389418
vt 0.855424 0.393127
vt 0.905341 0.403681
vt 0.667620 0.471464
vt 0.947229 0.538591
vt 0.963044 0.470184
vt 0.580250 0.494548
vt 0.595712 0.312254
vt 0.621272 0.312916
vt 0.622837 0.264476
vt 0.597277 0.263453
vt 0.852894 0.313492
vt 0.849695 0.260671
vt 0.818572 0.260902
vt 0.821566 0.286829
vt 0.893654 0.314609
vt 0.853541 0.316407
vt 0.850246 0.263617
vt 0.890422 0.263754
vt 0.896415 0.312211
vt 0.936226 0.312254
vt 0.933075 0.263453
vt 0.893263 0.261490
vt 0.670148 0.393127
vt 0.666826 0.415674
vt 0.958612 0.415674
vt 0.958434 0.414426
vt 0.649700 0.837975
vt 0.635627 0.887710
vt 0.686058 0.890422
vt 0.687133 0.850246
vt 0.592375 0.849695
vt 0.589648 0.893263
vt 0.597277 0.933075
vt 0.622837 0.940554
vt 0.673628 0.933416
vt 0.822213 0.289744
vt 0.819123 0.263848
vt 0.672063 0.313364
vt 0.673628 0.264581
vt 0.936602 0.313364
vt 0.933416 0.264581
vt 0.941647 0.364922
vt 0.899640 0.363406
vt 0.623001 0.364960
vt 0.665562 0.364922
vt 0.668659 0.362549
vt 0.644119 0.361871
vt 0.647700 0.316485
vt 0.685132 0.316407
vt 0.859879 0.359936
vt 0.902447 0.361457
vt 0.941330 0.363919
vt 0.860378 0.362549
vt 0.606538 0.359936
vt 0.590374 0.313492
vt 0.601582 0.363919
vt 0.646474 0.289822
vt 0.601626 0.286829
vt 0.603191 0.260902
vt 0.648039 0.263334
vt 0.675760 0.289744
vt 0.677325 0.263848
vt 0.647700 0.841274
vt 0.590374 0.852894
vt 0.601626 0.821566
vt 0.646474 0.809945
vt 0.648039 0.806852
vt 0.603191 0.818572
vt 0.685132 0.853541
vt 0.675760 0.822213
vt 0.677325 0.819123
vt 0.500000 0.668378
vt 0.500000 0.724779
vt 0.517225 0.721513
vt 0.520785 0.669173
vt 0.528698 1.002924
vt 0.500000 1.014901
vt 0.500000 1.025182
vt 0.520785 1.015365
vt 0.500000 0.744181
vt 0.519989 0.740196
vt 0.519989 0.988807
vt 0.500000 0.995348
vt 0.500000 0.660499
vt 0.528698 0.661469
vt 0.154177 0.616909
vt 0.166410 0.570048
vt 0.135838 0.608740
vt 0.149154 0.567675
vt 0.147623 0.572395
vt 0.137518 0.603560
vt 0.583783 0.154177
vt 0.583848 0.135838
vt 0.600568 0.131366
vt 0.597073 0.144428
vt 0.144166 0.612314
vt 0.141084 0.620214
vt 0.132632 0.614576
vt 0.134671 0.609983
vt 0.153028 0.593819
vt 0.141399 0.592146
vt 0.619182 0.132632
vt 0.614588 0.141084
vt 0.606252 0.140479
vt 0.610351 0.130579
vt 0.138199 0.601250
vt 0.148213 0.603179
vt 0.602487 0.570048
vt 0.583783 0.616909
vt 0.597073 0.624463
vt 0.606252 0.625520
vt 0.614588 0.620214
vt 0.620822 0.612314
vt 0.623703 0.603179
vt 0.620639 0.593819
vt 0.604695 0.577238
vt 0.601269 0.572395
vt 0.603531 0.567675
vt 0.609313 0.614171
vt 0.615687 0.610750
vt 0.619182 0.614576
vt 0.610351 0.619358
vt 0.602434 0.613212
vt 0.600568 0.617961
vt 0.626402 0.601250
vt 0.623276 0.609983
vt 0.618527 0.594500
vt 0.623272 0.592146
vt 0.590602 0.606787
vt 0.583848 0.608740
vt 0.592903 0.603615
vt 0.603070 0.582298
vt 0.613048 0.594751
vt 0.610999 0.606475
vt 0.606401 0.608943
vt 0.601438 0.608251
vt 0.586331 0.603560
vt 0.600598 0.578805
vt 0.589822 0.601288
vt 0.148133 0.578805
vt 0.140843 0.601288
vt 0.522445 0.038205
vt 0.513246 0.032036
vt 0.507613 0.025182
vt 0.515546 0.030102
vt 0.521458 0.442272
vt 0.528336 0.428901
vt 0.500000 0.456702
vt 0.500000 0.445370
vt 0.500000 0.031689
vt 0.512541 0.032373
vt 0.506877 0.025742
vt 0.500000 0.025886
vt 0.500000 0.031337
vt 0.500000 0.025479
vt 0.030102 0.457928
vt 0.030515 0.446199
vt 0.432141 0.867914
vt 0.443845 0.927906
vt 0.379085 0.894044
vt 0.360683 0.828812
vt 0.439809 0.672195
vt 0.430298 0.558226
vt 0.400297 0.594201
vt 0.380247 0.672998
vt 0.419750 0.833374
vt 0.430922 0.759035
vt 0.362910 0.751725
vt 0.364577 0.812683
vt 0.430922 0.758996
vt 0.439809 0.671923
vt 0.454286 0.976119
vt 0.395580 0.951058
vt 0.395580 0.548422
vt 0.333098 0.547256
vt 0.311584 0.643970
vt 0.373635 0.643481
vt 0.436410 0.893919
vt 0.360683 0.793372
vt 0.328551 0.761101
vt 0.323030 0.643370
vt 0.340672 0.642712
vt 0.444006 0.632181
vt 0.395580 0.735145
vt 0.454286 0.747180
vt 0.427025 0.538591
vt 0.333098 0.715601
vt 0.427025 0.947229
vt 0.443553 0.575135
vt 0.400297 0.530171
vt 0.356060 0.535244
vt 0.340885 0.643738
vt 0.362910 0.643182
vt 0.435444 0.492909
vt 0.433984 0.447361
vt 0.430298 0.518348
vt 0.405006 0.421068
vt 0.383019 0.429733
vt 0.362474 0.771615
vt 0.387552 0.796381
vt 0.438918 0.382998
vt 0.421210 0.420824
vt 0.448920 0.357545
vt 0.398021 0.363238
vt 0.378773 0.407144
vt 0.332784 0.508652
vt 0.333539 0.413961
vt 0.367244 0.407548
vt 0.378773 0.499901
vt 0.362910 0.751727
vt 0.459125 0.268345
vt 0.417930 0.278839
vt 0.380247 0.672932
vt 0.448920 0.314473
vt 0.328551 0.517077
vt 0.328734 0.470798
vt 0.357619 0.470278
vt 0.364577 0.509803
vt 0.459125 0.239236
vt 0.435444 0.495971
vt 0.387552 0.579931
vt 0.371732 0.501290
vt 0.368885 0.457158
vt 0.460183 0.181283
vt 0.460183 0.140934
vt 0.460183 0.196322
vt 0.419994 0.205473
vt 0.378509 0.393435
vt 0.461297 0.608225
vt 0.473395 0.560962
vt 0.433984 0.450625
vt 0.460469 0.141037
vt 0.469367 0.116366
vt 0.437911 0.123733
vt 0.420553 0.149293
vt 0.457081 0.165879
vt 0.413943 0.174337
vt 0.484203 0.085531
vt 0.489280 0.071544
vt 0.476758 0.071388
vt 0.468516 0.086614
vt 0.398021 0.325561
vt 0.417930 0.249130
vt 0.419994 0.679456
vt 0.420401 0.648799
vt 0.460183 0.657159
vt 0.460183 0.690304
vt 0.486669 0.045311
vt 0.419994 0.191059
vt 0.422167 0.599988
vt 0.445768 0.556649
vt 0.469661 0.475706
vt 0.477555 0.462176
vt 0.486754 0.460736
vt 0.484790 0.477146
vt 0.484454 0.457928
vt 0.485561 0.446199
vt 0.493123 0.445401
vt 0.492387 0.457080
vt 0.471665 0.053210
vt 0.379159 0.601238
vt 0.385282 0.599612
vt 0.386922 0.604170
vt 0.381432 0.607555
vt 0.486669 0.424258
vt 0.487459 0.440917
vt 0.423568 0.505809
vt 0.452679 0.467354
vt 0.460520 0.507406
vt 0.480956 0.508271
vt 0.420401 0.168698
vt 0.422167 0.108290
vt 0.461297 0.096221
vt 0.479678 0.097153
vt 0.458025 0.104341
vt 0.378509 0.816867
vt 0.355733 0.774144
vt 0.330903 0.641253
vt 0.351886 0.640437
vt 0.398375 0.405151
vt 0.421210 0.496630
vt 0.379220 0.366797
vt 0.348274 0.367843
vt 0.350598 0.433451
vt 0.330908 0.368189
vt 0.364194 0.367147
vt 0.324343 0.324872
vt 0.360708 0.324944
vt 0.395132 0.366023
vt 0.400340 0.365401
vt 0.378349 0.293283
vt 0.378743 0.261665
vt 0.340632 0.261742
vt 0.341538 0.293469
vt 0.377606 0.322035
vt 0.343222 0.322330
vt 0.394336 0.324350
vt 0.400943 0.321655
vt 0.404597 0.548078
vt 0.409055 0.518571
vt 0.354176 0.523009
vt 0.378743 0.561263
vt 0.360141 0.470735
vt 0.313739 0.480362
vt 0.314593 0.500191
vt 0.351676 0.498544
vt 0.407749 0.493332
vt 0.316857 0.522344
vt 0.340632 0.560446
vt 0.403567 0.477757
vt 0.403321 0.292993
vt 0.404597 0.261464
vt 0.359645 0.307779
vt 0.396411 0.307317
vt 0.320262 0.307625
vt 0.322068 0.288897
vt 0.320535 0.262732
vt 0.360141 0.262967
vt 0.360320 0.289050
vt 0.396713 0.262636
vt 0.395646 0.288588
vt 0.320262 0.482345
vt 0.322068 0.451756
vt 0.360320 0.442459
vt 0.359645 0.473048
vt 0.360141 0.440146
vt 0.320535 0.449773
vt 0.395646 0.449241
vt 0.396411 0.479829
vt 0.396713 0.447168
vt 0.330810 0.894416
vt 0.328551 0.841501
vt 0.333098 0.940741
vt 0.407688 0.470184
vt 0.401774 0.414426
vt 0.378808 0.417417
vt 0.382476 0.471308
vt 0.356165 0.389418
vt 0.396460 0.389954
vt 0.401854 0.467455
vt 0.332380 0.471464
vt 0.419750 0.494548
vt 0.404289 0.312254
vt 0.402723 0.263453
vt 0.377163 0.264476
vt 0.378728 0.312916
vt 0.329852 0.393127
vt 0.333174 0.415674
vt 0.350300 0.837975
vt 0.312867 0.850246
vt 0.313942 0.890422
vt 0.364373 0.887710
vt 0.410353 0.893263
vt 0.407625 0.849695
vt 0.377163 0.940554
vt 0.402723 0.933075
vt 0.326372 0.933416
vt 0.326372 0.264581
vt 0.327937 0.313364
vt 0.376999 0.364960
vt 0.334438 0.364922
vt 0.331341 0.362549
vt 0.314868 0.316407
vt 0.352300 0.316485
vt 0.355881 0.361871
vt 0.409626 0.313492
vt 0.393462 0.359936
vt 0.398418 0.363919
vt 0.353526 0.289822
vt 0.351961 0.263334
vt 0.396809 0.260902
vt 0.398374 0.286829
vt 0.324240 0.289744
vt 0.322675 0.263848
vt 0.352300 0.841274
vt 0.353526 0.809945
vt 0.398374 0.821566
vt 0.409626 0.852894
vt 0.396809 0.818572
vt 0.351961 0.806852
vt 0.314868 0.853541
vt 0.324240 0.822213
vt 0.322675 0.819123
vt 0.479215 0.669173
vt 0.482775 0.721513
vt 0.471302 1.002924
vt 0.479215 1.015365
vt 0.480011 0.740196
vt 0.480011 0.988807
vt 0.471302 0.661469
vt 0.416217 0.154177
vt 0.402927 0.144428
vt 0.399432 0.131366
vt 0.416152 0.135838
vt 0.380819 0.132632
vt 0.389649 0.130579
vt 0.393748 0.140479
vt 0.385412 0.141084
vt 0.397513 0.570048
vt 0.379361 0.593819
vt 0.376297 0.603179
vt 0.379178 0.612314
vt 0.385412 0.620214
vt 0.393748 0.625520
vt 0.402927 0.624463
vt 0.416217 0.616909
vt 0.395305 0.577238
vt 0.396469 0.567675
vt 0.398731 0.572395
vt 0.390687 0.614171
vt 0.389649 0.619358
vt 0.380819 0.614576
vt 0.384313 0.610750
vt 0.397566 0.613212
vt 0.399432 0.617961
vt 0.376724 0.609983
vt 0.373598 0.601250
vt 0.376728 0.592146
vt 0.381473 0.594500
vt 0.409398 0.606787
vt 0.416152 0.608740
vt 0.407098 0.603615
vt 0.398562 0.608251
vt 0.393599 0.608943
vt 0.389001 0.606475
vt 0.386952 0.594751
vt 0.396930 0.582298
vt 0.413669 0.603560
vt 0.399402 0.578805
vt 0.410178 0.601288
vt 0.477555 0.038205
vt 0.484454 0.030102
vt 0.492387 0.025182
vt 0.486754 0.032036
vt 0.478542 0.442272
vt 0.471665 0.428901
vt 0.493123 0.025742
vt 0.487459 0.032373
vt 0.181819 0.000000
vt 0.227273 0.078731
vt 0.136365 0.078731
vt 0.272728 0.157461
vt 0.318182 0.078731
vt 0.363637 0.157461
vt 0.909091 0.000000
vt 0.954545 0.078731
vt 0.863636 0.078731
vt 0.727273 0.000000
vt 0.772727 0.078731
vt 0.681818 0.078731
vt 0.545455 0.000000
vt 0.590909 0.078731
vt 0.500000 0.078731
vt 0.318182 0.236191
vt 0.090910 0.157461
vt 0.181819 0.157461
vt 0.136365 0.236191
vt 0.818182 0.157461
vt 0.909091 0.157461
vt 0.863636 0.236191
vt 0.636364 0.157461
vt 0.727273 0.157461
vt 0.681818 0.236191
vt 0.454546 0.157461
vt 0.545455 0.157461
vt 0.500000 0.236191
vt 0.227273 0.236191
vt 0.045455 0.236191
vt 0.772727 0.236191
vt 0.590909 0.236191
vt 0.409092 0.236191
vt 0.181819 0.314921
vt 0.272728 0.314921
vt 0.227273 0.393651
vt 0.000000 0.314921
vt 0.090910 0.314921
vt 0.045455 0.393651
vt 0.727273 0.314921
vt 0.818182 0.314921
vt 0.772727 0.393651
vt 0.545455 0.314921
vt 0.636364 0.314921
vt 0.590909 0.393651
vt 0.363637 0.314921
vt 0.454546 0.314921
vt 0.409092 0.393651
vt 0.500000 0.393651
vt 0.454546 0.472382
vt 0.681818 0.393651
vt 0.636364 0.472382
vt 0.863636 0.393651
vt 0.818182 0.472382
vt 0.909091 0.314921
vt 0.136365 0.393651
vt 0.090910 0.472382
vt 0.318182 0.393651
vt 0.272728 0.472382
vt 0.954545 0.236191
vt 1.000000 0.157461
vt 0.409092 0.078731
vt 0.363637 0.000000
s 1
f 116/1/1 98/2/1 209/3/1 208/4/1
f 115/5/2 4/6/2 17/7/2 97/8/2
f 3/9/3 7/10/3 13/11/3 8/12/3
f 7/10/4 4/13/4 9/14/4 13/11/4
f 13/11/5 9/14/5 2/15/5 10/16/5
f 8/12/6 13/11/6 10/16/6 1/17/6
f 1/17/7 10/16/7 32/18/7 29/19/7
f 114/20/8 1/21/8 29/22/8 83/23/8
f 116/24/9 3/25/9 8/26/9 109/27/9
f 109/27/10 8/26/10 1/21/10 114/20/10
f 115/5/11 6/28/11 15/29/11 99/30/11
f 99/30/12 15/29/12 12/31/12 112/32/12
f 97/8/13 17/7/13 21/33/13 90/34/13
f 20/35/14 25/36/14 203/37/14 204/38/14
f 116/24/15 5/28/15 18/39/15 98/40/15
f 4/41/16 7/42/16 197/43/16 196/44/16
f 89/45/17 90/46/17 21/47/17 25/36/17
f 91/48/18 89/45/18 25/36/18 20/35/18
f 25/36/19 21/47/19 202/49/19 203/37/19
f 98/40/20 18/39/20 23/50/20 91/51/20
f 38/52/21 45/53/21 134/54/21 131/55/21
f 133/56/22 136/57/22 144/58/22 146/59/22
f 112/32/23 12/31/23 34/60/23 82/61/23
f 10/16/24 2/15/24 30/62/24 32/18/24
f 29/63/25 32/64/25 129/65/25 130/66/25
f 75/67/26 41/68/26 48/69/26 73/70/26
f 82/61/27 34/60/27 41/68/27 75/67/27
f 83/71/28 29/63/28 141/72/28 140/73/28
f 32/64/29 30/74/29 128/75/29 129/65/29
f 73/70/30 48/69/30 56/76/30 66/77/30
f 74/78/31 81/79/31 145/80/31 148/81/31
f 130/82/32 133/56/32 146/59/32 147/83/32
f 6/28/33 115/5/33 97/8/33 19/39/33
f 54/84/34 53/85/34 60/86/34 61/87/34
f 67/88/35 54/89/35 61/90/35 65/91/35
f 11/92/36 114/20/36 83/23/36 33/93/36
f 5/28/37 116/24/37 109/27/37 14/29/37
f 14/29/38 109/27/38 114/20/38 11/92/38
f 139/94/39 54/95/39 143/96/39 142/97/39
f 30/62/40 38/52/40 131/55/40 128/98/40
f 4/6/41 115/5/41 99/30/41 9/99/41
f 61/87/42 60/86/42 69/100/42 70/101/42
f 65/91/43 61/90/43 70/102/43 58/103/43
f 9/99/44 99/30/44 112/32/44 2/104/44
f 66/77/45 56/76/45 63/105/45 64/106/45
f 19/39/46 97/8/46 90/34/46 24/107/46
f 53/85/47 52/108/47 59/109/47 60/86/47
f 198/110/48 3/111/48 207/112/48 213/113/48
f 256/114/49 255/115/49 253/116/49 254/117/49
f 23/118/50 26/119/50 89/45/50 91/48/50
f 69/100/51 68/120/51 76/121/51 77/122/51
f 204/123/52 201/124/52 211/125/52 212/126/52
f 64/106/53 63/105/53 72/127/53 57/128/53
f 33/93/54 83/23/54 81/129/54 40/68/54
f 60/86/55 59/109/55 68/120/55 69/100/55
f 2/104/56 112/32/56 82/61/56 30/130/56
f 38/131/57 75/67/57 73/70/57 45/132/57
f 77/122/58 76/121/58 259/133/58 260/134/58
f 30/130/59 82/61/59 75/67/59 38/131/59
f 50/135/60 80/136/60 88/137/60 44/138/60
f 58/103/61 70/102/61 78/139/61 51/140/61
f 70/101/62 69/100/62 77/122/62 78/141/62
f 45/132/63 73/70/63 66/77/63 52/142/63
f 57/128/64 72/127/64 80/136/64 50/135/64
f 28/143/65 110/144/65 96/145/65 42/146/65
f 40/68/66 81/129/66 74/147/66 47/69/66
f 108/148/67 262/149/67 93/150/67 94/151/67
f 31/152/68 108/153/68 94/154/68 43/155/68
f 55/156/69 67/88/69 65/91/69 62/157/69
f 51/140/70 78/139/70 86/158/70 49/159/70
f 78/141/71 77/122/71 260/134/71 86/160/71
f 47/69/72 74/147/72 67/88/72 55/156/72
f 123/161/73 124/162/73 101/163/73 102/164/73
f 121/165/74 123/166/74 102/167/74 37/168/74
f 62/157/75 65/91/75 58/103/75 71/169/75
f 52/142/76 66/77/76 64/106/76 59/170/76
f 59/170/77 64/106/77 57/128/77 68/171/77
f 262/149/78 261/172/78 92/173/78 93/150/78
f 76/174/79 50/175/79 44/176/79 259/177/79
f 71/169/80 58/103/80 51/140/80 79/178/80
f 37/168/81 35/179/81 105/180/81 103/181/81
f 124/162/82 127/182/82 297/183/82 298/184/82 101/163/82
f 68/171/83 57/128/83 50/135/83 76/185/83
f 261/186/84 28/143/84 42/146/84 92/187/84
f 107/188/85 31/152/85 43/155/85 95/189/85
f 127/190/86 122/191/86 295/192/86 297/193/86
f 79/178/87 51/140/87 49/159/87 87/194/87
f 100/195/88 36/196/88 301/197/88 104/198/88
f 126/199/89 121/165/89 37/168/89 103/181/89
f 102/167/90 101/200/90 35/179/90 37/168/90
f 274/201/91 273/202/91 290/203/91 291/204/91
f 122/191/92 125/205/92 300/206/92 295/192/92
f 49/159/93 86/158/93 108/153/93 31/152/93
f 86/160/94 260/134/94 262/149/94 108/148/94
f 35/207/95 296/208/95 299/209/95 105/210/95
f 44/176/96 88/211/96 110/144/96 28/143/96
f 93/212/97 92/187/97 120/213/97 119/214/97
f 87/194/98 49/159/98 31/152/98 107/188/98
f 42/146/99 96/145/99 113/215/99 27/216/99
f 259/217/100 44/138/100 28/218/100 261/219/100
f 92/187/101 42/146/101 27/216/101 120/213/101
f 95/189/102 43/155/102 22/220/102 118/221/102
f 43/155/103 94/154/103 117/222/103 22/220/103
f 94/151/104 93/150/104 119/223/104 117/224/104
f 120/213/105 27/216/105 122/191/105 127/190/105
f 118/221/106 22/220/106 121/165/106 126/199/106
f 119/223/107 120/225/107 127/182/107 124/162/107
f 27/216/108 113/215/108 125/205/108 122/191/108
f 22/220/109 117/222/109 123/166/109 121/165/109
f 117/224/110 119/223/110 124/162/110 123/161/110
f 130/82/111 129/226/111 132/227/111 133/56/111
f 132/227/112 131/55/112 134/54/112 135/228/112
f 129/226/113 128/98/113 131/55/113 132/227/113
f 135/228/114 134/54/114 137/229/114 138/230/114
f 133/56/115 132/227/115 135/228/115 136/57/115
f 136/57/116 135/228/116 138/230/116 139/231/116
f 52/232/117 53/233/117 138/234/117 137/235/117
f 45/53/118 52/108/118 137/229/118 134/54/118
f 54/95/119 67/236/119 149/237/119 143/96/119
f 53/233/120 54/95/120 139/94/120 138/234/120
f 141/72/121 147/238/121 157/239/121 39/240/121
f 144/58/122 142/241/122 150/242/122 153/243/122
f 145/80/123 140/244/123 46/245/123 154/246/123
f 148/81/124 145/80/124 154/246/124 158/247/124
f 146/59/125 144/58/125 153/243/125 156/248/125
f 142/97/126 143/96/126 151/249/126 150/250/126
f 136/57/127 139/231/127 142/241/127 144/58/127
f 67/251/128 74/78/128 148/81/128 149/252/128
f 29/63/129 130/66/129 147/238/129 141/72/129
f 81/79/130 83/253/130 140/244/130 145/80/130
f 153/243/131 150/242/131 162/254/131 164/255/131
f 154/246/132 46/245/132 160/256/132 165/257/132
f 158/247/133 154/246/133 165/257/133 168/258/133
f 156/248/134 153/243/134 164/255/134 166/259/134
f 150/250/135 151/249/135 163/260/135 162/261/135
f 157/262/136 156/248/136 166/259/136 167/263/136
f 149/252/137 148/81/137 158/247/137 159/264/137
f 143/96/138 149/237/138 159/265/138 151/249/138
f 140/73/139 141/72/139 39/240/139 46/266/139
f 147/83/140 146/59/140 156/248/140 157/262/140
f 188/267/141 187/268/141 177/269/141 152/270/141
f 184/271/142 185/272/142 170/273/142 173/274/142
f 182/275/143 180/276/143 155/277/143 174/278/143
f 181/279/144 182/275/144 174/278/144 178/280/144
f 183/281/145 184/271/145 173/274/145 176/282/145
f 170/273/146 185/272/146 194/283/146 192/284/146
f 39/240/147 157/239/147 167/285/147 161/286/147
f 159/264/148 158/247/148 168/258/148 169/287/148
f 151/249/149 159/265/149 169/288/149 163/260/149
f 46/266/150 39/240/150 161/286/150 160/289/150
f 155/290/151 152/291/151 175/292/151 174/293/151
f 171/294/152 172/295/152 173/296/152 170/297/152
f 174/293/153 175/292/153 172/295/153 178/298/153
f 175/292/154 152/291/154 177/299/154 176/300/154
f 178/298/155 172/295/155 171/294/155 179/301/155
f 172/295/156 175/292/156 176/300/156 173/296/156
f 189/302/157 181/279/157 178/280/157 179/303/157
f 189/302/158 179/303/158 193/304/158 195/305/158
f 180/306/159 188/267/159 152/270/159 155/307/159
f 187/308/160 183/281/160 176/282/160 177/309/160
f 167/263/161 166/259/161 183/281/161 187/308/161
f 160/289/162 161/286/162 188/267/162 180/306/162
f 163/260/163 169/288/163 189/310/163 186/311/163
f 169/287/164 168/258/164 181/279/164 189/302/164
f 162/261/165 163/260/165 186/311/165 185/312/165
f 166/259/166 164/255/166 184/271/166 183/281/166
f 168/258/167 165/257/167 182/275/167 181/279/167
f 165/257/168 160/256/168 180/276/168 182/275/168
f 164/255/169 162/254/169 185/272/169 184/271/169
f 161/286/170 167/285/170 187/268/170 188/267/170
f 194/313/171 190/314/171 191/315/171 192/316/171
f 190/314/172 195/317/172 193/318/172 191/315/172
f 185/319/173 186/320/173 190/321/173 194/322/173
f 171/294/174 170/297/174 192/323/174 191/324/174
f 186/320/175 189/325/175 195/326/175 190/321/175
f 179/301/176 171/294/176 191/324/176 193/327/176
f 196/328/177 197/329/177 200/330/177 199/331/177
f 200/330/178 201/124/178 204/123/178 203/332/178
f 197/329/179 198/333/179 201/124/179 200/330/179
f 199/331/180 200/330/180 203/332/180 202/334/180
f 7/42/181 3/111/181 198/110/181 197/43/181
f 17/7/182 4/6/182 196/335/182 199/336/182
f 201/124/183 198/333/183 213/337/183 211/125/183
f 21/33/184 17/7/184 199/336/184 202/338/184
f 208/4/185 209/3/185 217/339/185 216/340/185
f 210/341/186 206/342/186 214/343/186 218/344/186
f 207/112/187 208/345/187 216/346/187 215/347/187
f 211/125/188 213/337/188 221/348/188 219/349/188
f 20/35/189 204/38/189 212/350/189 206/342/189
f 91/48/190 20/35/190 206/342/190 210/341/190
f 98/2/191 91/351/191 210/352/191 209/3/191
f 3/111/192 116/353/192 208/345/192 207/112/192
f 232/354/193 235/355/193 222/356/193 226/357/193
f 233/358/194 224/359/194 240/360/194 241/361/194
f 16/362/195 230/363/195 229/364/195 227/365/195
f 231/366/196 232/367/196 226/368/196 225/369/196
f 213/113/197 207/112/197 215/347/197 221/370/197
f 206/342/198 212/350/198 220/371/198 214/343/198
f 212/126/199 211/125/199 219/349/199 220/372/199
f 209/3/200 210/352/200 218/373/200 217/339/200
f 223/374/201 205/375/201 227/376/201 229/377/201
f 223/374/202 224/378/202 225/379/202 205/375/202
f 205/375/203 225/379/203 226/380/203 222/381/203
f 205/375/204 222/381/204 228/382/204 227/376/204
f 233/358/205 231/366/205 225/369/205 224/359/205
f 229/364/206 230/363/206 237/383/206 238/384/206
f 235/355/207 236/385/207 228/386/207 222/356/207
f 236/387/208 16/362/208 227/365/208 228/388/208
f 250/389/209 243/390/209 16/362/209 236/387/209
f 249/391/210 250/392/210 236/385/210 235/355/210
f 246/393/211 245/394/211 234/395/211 230/396/211
f 248/397/212 244/398/212 231/366/212 233/358/212
f 244/398/213 247/399/213 232/367/213 231/366/213
f 243/390/214 246/400/214 230/363/214 16/362/214
f 245/394/215 248/401/215 233/402/215 234/395/215
f 247/403/216 249/391/216 235/355/216 232/354/216
f 242/404/217 241/405/217 240/406/217 239/407/217
f 237/408/218 242/404/218 239/407/218 238/409/218
f 234/410/219 233/411/219 241/412/219 242/413/219
f 224/378/220 223/374/220 239/414/220 240/415/220
f 230/416/221 234/410/221 242/413/221 237/417/221
f 223/374/222 229/377/222 238/418/222 239/414/222
f 218/344/223 214/343/223 249/391/223 247/403/223
f 215/347/224 216/346/224 248/401/224 245/394/224
f 219/349/225 221/348/225 246/400/225 243/390/225
f 217/339/226 218/373/226 247/399/226 244/398/226
f 216/340/227 217/339/227 244/398/227 248/397/227
f 221/370/228 215/347/228 245/394/228 246/393/228
f 214/343/229 220/371/229 250/392/229 249/391/229
f 220/372/230 219/349/230 243/390/230 250/389/230
f 252/419/231 251/420/231 254/421/231 253/422/231
f 255/423/232 257/424/232 252/425/232 253/426/232
f 258/427/233 256/428/233 254/421/233 251/420/233
f 24/107/234 90/34/234 256/429/234 258/430/234
f 89/45/235 26/119/235 257/431/235 255/432/235
f 90/46/236 89/45/236 255/432/236 256/428/236
f 84/433/237 85/434/237 260/134/237 259/133/237
f 275/435/238 84/433/238 259/133/238 261/172/238
f 85/434/239 276/436/239 262/149/239 260/134/239
f 276/436/240 284/437/240 283/438/240 275/435/240 261/172/240 262/149/240
f 84/439/241 275/440/241 279/441/241 263/442/241
f 266/443/242 264/444/242 278/445/242 280/446/242
f 276/436/243 85/434/243 267/447/243 282/448/243
f 278/449/244 264/450/244 265/451/244 277/452/244
f 277/452/245 265/451/245 263/442/245 279/441/245
f 266/443/246 280/446/246 281/453/246 268/454/246
f 268/454/247 281/453/247 282/448/247 267/447/247
f 85/455/248 84/456/248 263/457/248 265/458/248 264/459/248 266/460/248 268/461/248 267/462/248
f 106/463/249 284/464/249 276/465/249
f 271/466/250 269/467/250 278/468/250 277/469/250
f 270/470/251 271/466/251 277/469/251 279/471/251
f 273/202/252 274/201/252 281/472/252 280/473/252
f 274/201/253 272/474/253 282/475/253 281/472/253
f 269/467/254 273/202/254 280/473/254 278/468/254
f 111/476/255 270/470/255 279/471/255 275/477/255
f 272/474/256 106/463/256 276/465/256 282/475/256
f 285/478/257 286/479/257 292/480/257 291/204/257 290/203/257 288/481/257 287/482/257 289/483/257
f 283/484/258 111/476/258 275/477/258
f 270/470/259 111/476/259 285/478/259 289/483/259
f 294/485/260 286/479/260 285/478/260 293/486/260
f 111/476/261 283/484/261 293/486/261 285/478/261
f 106/463/262 272/474/262 292/480/262 286/479/262
f 272/474/263 274/201/263 291/204/263 292/480/263
f 269/467/264 271/466/264 287/482/264 288/481/264
f 283/438/265 284/437/265 294/487/265 293/488/265
f 273/202/266 269/467/266 288/481/266 290/203/266
f 284/464/267 106/463/267 286/479/267 294/485/267
f 271/466/268 270/470/268 289/483/268 287/482/268
f 297/489/269 295/490/269 36/491/269 100/492/269
f 296/208/270 298/493/270 104/198/270 301/197/270
f 101/494/271 298/493/271 296/208/271 35/207/271
f 36/196/272 302/495/272 303/496/272 301/197/272
f 299/497/273 296/498/273 301/499/273 303/500/273
f 295/490/274 300/501/274 302/502/274 36/491/274
f 298/184/275 297/183/275 100/503/275 104/504/275
f 385/1/276 474/4/276 475/3/276 372/2/276
f 384/505/277 371/506/277 314/507/277 307/508/277
f 306/9/278 309/12/278 312/11/278 308/10/278
f 308/10/279 312/11/279 310/14/279 307/13/279
f 312/11/280 311/16/280 305/15/280 310/14/280
f 309/12/281 304/17/281 311/16/281 312/11/281
f 304/17/282 321/19/282 324/18/282 311/16/282
f 383/509/283 361/510/283 321/511/283 304/512/283
f 385/513/284 380/514/284 309/515/284 306/516/284
f 380/514/285 383/509/285 304/512/285 309/515/285
f 384/505/286 373/517/286 15/29/286 6/28/286
f 373/517/287 382/518/287 12/31/287 15/29/287
f 371/506/288 366/519/288 316/520/288 314/507/288
f 315/521/289 470/522/289 469/523/289 318/524/289
f 385/513/290 372/525/290 18/39/290 5/28/290
f 307/526/291 462/527/291 463/528/291 308/529/291
f 365/530/292 318/524/292 316/531/292 366/532/292
f 367/533/293 315/521/293 318/524/293 365/530/293
f 318/524/294 469/523/294 468/534/294 316/531/294
f 372/525/295 367/535/295 23/50/295 18/39/295
f 328/52/296 397/55/296 400/54/296 333/53/296
f 399/56/297 412/59/297 410/58/297 402/57/297
f 382/518/298 360/536/298 34/60/298 12/31/298
f 311/16/299 324/18/299 322/62/299 305/15/299
f 321/537/300 396/538/300 395/539/300 324/540/300
f 355/541/301 353/542/301 48/69/301 41/68/301
f 360/536/302 355/541/302 41/68/302 34/60/302
f 361/543/303 406/544/303 407/545/303 321/537/303
f 324/540/304 395/539/304 394/546/304 322/547/304
f 353/542/305 348/548/305 56/76/305 48/69/305
f 354/78/306 414/81/306 411/80/306 359/79/306
f 396/82/307 413/83/307 412/59/307 399/56/307
f 6/28/308 19/39/308 371/506/308 384/505/308
f 340/84/309 345/87/309 344/86/309 339/85/309
f 349/549/310 347/550/310 345/551/310 340/552/310
f 11/92/311 33/93/311 361/510/311 383/509/311
f 5/28/312 14/29/312 380/514/312 385/513/312
f 14/29/313 11/92/313 383/509/313 380/514/313
f 405/553/314 408/554/314 409/555/314 340/556/314
f 322/62/315 394/98/315 397/55/315 328/52/315
f 307/508/316 310/557/316 373/517/316 384/505/316
f 345/87/317 352/101/317 351/100/317 344/86/317
f 347/550/318 342/558/318 352/559/318 345/551/318
f 310/557/319 305/560/319 382/518/319 373/517/319
f 348/548/320 346/561/320 63/105/320 56/76/320
f 19/39/321 24/107/321 366/519/321 371/506/321
f 339/85/322 344/86/322 343/109/322 338/108/322
f 464/562/323 479/563/323 473/564/323 306/565/323
f 520/114/324 518/117/324 517/116/324 519/115/324
f 23/118/325 367/533/325 365/530/325 26/119/325
f 351/100/326 357/122/326 356/121/326 350/120/326
f 470/123/327 478/126/327 477/125/327 467/124/327
f 346/561/328 341/566/328 72/127/328 63/105/328
f 33/93/329 40/68/329 359/567/329 361/510/329
f 344/86/330 351/100/330 350/120/330 343/109/330
f 305/560/331 322/568/331 360/536/331 382/518/331
f 328/569/332 333/570/332 353/542/332 355/541/332
f 357/122/333 522/134/333 521/133/333 356/121/333
f 322/568/334 328/569/334 355/541/334 360/536/334
f 336/571/335 332/572/335 88/137/335 80/136/335
f 342/558/336 337/573/336 358/574/336 352/559/336
f 352/101/337 358/141/337 357/122/337 351/100/337
f 333/570/338 338/575/338 348/548/338 353/542/338
f 341/566/339 336/571/339 80/136/339 72/127/339
f 320/576/340 330/577/340 96/145/340 110/144/340
f 40/68/341 47/69/341 354/578/341 359/567/341
f 379/148/342 370/151/342 369/150/342 524/149/342
f 323/579/343 331/580/343 370/581/343 379/582/343
f 55/156/344 62/157/344 347/550/344 349/549/344
f 337/573/345 335/583/345 364/584/345 358/574/345
f 358/141/346 364/160/346 522/134/346 357/122/346
f 47/69/347 55/156/347 349/549/347 354/578/347
f 391/161/348 376/164/348 375/163/348 392/162/348
f 389/585/349 327/586/349 376/587/349 391/588/349
f 62/157/350 71/169/350 342/558/350 347/550/350
f 338/575/351 343/589/351 346/561/351 348/548/351
f 343/589/352 350/590/352 341/566/352 346/561/352
f 524/149/353 369/150/353 368/173/353 523/172/353
f 356/591/354 521/592/354 332/593/354 336/594/354
f 71/169/355 79/178/355 337/573/355 342/558/355
f 327/586/356 103/181/356 105/180/356 325/595/356
f 392/162/357 375/163/357 560/184/357 559/183/357 393/182/357
f 350/590/358 356/596/358 336/571/358 341/566/358
f 523/597/359 368/598/359 330/577/359 320/576/359
f 107/188/360 95/189/360 331/580/360 323/579/360
f 393/599/361 559/600/361 557/601/361 390/602/361
f 79/178/362 87/194/362 335/583/362 337/573/362
f 374/603/363 377/604/363 561/605/363 326/606/363
f 126/199/364 103/181/364 327/586/364 389/585/364
f 376/587/365 327/586/365 325/595/365 375/607/365
f 536/608/366 553/609/366 552/610/366 535/611/366
f 390/602/367 557/601/367 300/206/367 125/205/367
f 335/583/368 323/579/368 379/582/368 364/584/368
f 364/160/369 379/148/369 524/149/369 522/134/369
f 325/612/370 105/210/370 299/209/370 558/613/370
f 332/593/371 320/576/371 110/144/371 88/211/371
f 369/614/372 387/615/372 388/616/372 368/598/372
f 87/194/373 107/188/373 323/579/373 335/583/373
f 330/577/374 319/617/374 113/215/374 96/145/374
f 521/618/375 523/619/375 320/620/375 332/572/375
f 368/598/376 388/616/376 319/617/376 330/577/376
f 95/189/377 118/221/377 317/621/377 331/580/377
f 331/580/378 317/621/378 386/622/378 370/581/378
f 370/151/379 386/224/379 387/223/379 369/150/379
f 388/616/380 393/599/380 390/602/380 319/617/380
f 118/221/381 126/199/381 389/585/381 317/621/381
f 387/223/382 392/162/382 393/182/382 388/225/382
f 319/617/383 390/602/383 125/205/383 113/215/383
f 317/621/384 389/585/384 391/588/384 386/622/384
f 386/224/385 391/161/385 392/162/385 387/223/385
f 396/82/386 399/56/386 398/227/386 395/226/386
f 398/227/387 401/228/387 400/54/387 397/55/387
f 395/226/388 398/227/388 397/55/388 394/98/388
f 401/228/389 404/230/389 403/229/389 400/54/389
f 399/56/390 402/57/390 401/228/390 398/227/390
f 402/57/391 405/231/391 404/230/391 401/228/391
f 338/623/392 403/624/392 404/625/392 339/626/392
f 333/53/393 400/54/393 403/229/393 338/108/393
f 340/556/394 409/555/394 415/627/394 349/628/394
f 339/626/395 404/625/395 405/553/395 340/556/395
f 407/545/396 329/629/396 423/630/396 413/631/396
f 410/58/397 419/243/397 416/242/397 408/241/397
f 411/80/398 420/246/398 334/245/398 406/244/398
f 414/81/399 424/247/399 420/246/399 411/80/399
f 412/59/400 422/248/400 419/243/400 410/58/400
f 408/554/401 416/632/401 417/633/401 409/555/401
f 402/57/402 410/58/402 408/241/402 405/231/402
f 349/251/403 415/252/403 414/81/403 354/78/403
f 321/537/404 407/545/404 413/631/404 396/538/404
f 359/79/405 411/80/405 406/244/405 361/253/405
f 419/243/406 430/255/406 428/254/406 416/242/406
f 420/246/407 431/257/407 426/256/407 334/245/407
f 424/247/408 434/258/408 431/257/408 420/246/408
f 422/248/409 432/259/409 430/255/409 419/243/409
f 416/632/410 428/634/410 429/635/410 417/633/410
f 423/262/411 433/263/411 432/259/411 422/248/411
f 415/252/412 425/264/412 424/247/412 414/81/412
f 409/555/413 417/633/413 425/636/413 415/627/413
f 406/544/414 334/637/414 329/629/414 407/545/414
f 413/83/415 423/262/415 422/248/415 412/59/415
f 454/638/416 418/639/416 443/640/416 453/641/416
f 450/271/417 439/274/417 436/273/417 451/272/417
f 448/275/418 440/278/418 421/277/418 446/276/418
f 447/279/419 444/280/419 440/278/419 448/275/419
f 449/281/420 442/282/420 439/274/420 450/271/420
f 436/273/421 458/284/421 460/283/421 451/272/421
f 329/629/422 427/642/422 433/643/422 423/630/422
f 425/264/423 435/287/423 434/258/423 424/247/423
f 417/633/424 429/635/424 435/644/424 425/636/424
f 334/637/425 426/645/425 427/642/425 329/629/425
f 421/646/426 440/647/426 441/648/426 418/649/426
f 437/650/427 436/651/427 439/652/427 438/653/427
f 440/647/428 444/654/428 438/653/428 441/648/428
f 441/648/429 442/655/429 443/656/429 418/649/429
f 444/654/430 445/657/430 437/650/430 438/653/430
f 438/653/431 439/652/431 442/655/431 441/648/431
f 455/302/432 445/303/432 444/280/432 447/279/432
f 455/302/433 461/305/433 459/304/433 445/303/433
f 446/658/434 421/659/434 418/639/434 454/638/434
f 453/308/435 443/309/435 442/282/435 449/281/435
f 433/263/436 453/308/436 449/281/436 432/259/436
f 426/645/437 446/658/437 454/638/437 427/642/437
f 429/635/438 452/660/438 455/661/438 435/644/438
f 435/287/439 455/302/439 447/279/439 434/258/439
f 428/634/440 451/662/440 452/660/440 429/635/440
f 432/259/441 449/281/441 450/271/441 430/255/441
f 434/258/442 447/279/442 448/275/442 431/257/442
f 431/257/443 448/275/443 446/276/443 426/256/443
f 430/255/444 450/271/444 451/272/444 428/254/444
f 427/642/445 454/638/445 453/641/445 433/643/445
f 460/663/446 458/664/446 457/665/446 456/666/446
f 456/666/447 457/665/447 459/667/447 461/668/447
f 451/669/448 460/670/448 456/671/448 452/672/448
f 437/650/449 457/673/449 458/674/449 436/651/449
f 452/672/450 456/671/450 461/675/450 455/676/450
f 445/657/451 459/677/451 457/673/451 437/650/451
f 462/328/452 465/331/452 466/330/452 463/329/452
f 466/330/453 469/332/453 470/123/453 467/124/453
f 463/329/454 466/330/454 467/124/454 464/333/454
f 465/331/455 468/334/455 469/332/455 466/330/455
f 308/529/456 463/528/456 464/562/456 306/565/456
f 314/507/457 465/678/457 462/679/457 307/508/457
f 467/124/458 477/125/458 479/337/458 464/333/458
f 316/520/459 468/680/459 465/678/459 314/507/459
f 474/4/460 482/340/460 483/339/460 475/3/460
f 476/681/461 484/682/461 480/683/461 472/684/461
f 473/564/462 481/685/462 482/686/462 474/687/462
f 477/125/463 485/349/463 487/348/463 479/337/463
f 315/521/464 472/684/464 478/688/464 470/522/464
f 367/533/465 476/681/465 472/684/465 315/521/465
f 372/2/466 475/3/466 476/352/466 367/351/466
f 306/565/467 473/564/467 474/687/467 385/689/467
f 498/690/468 492/691/468 488/692/468 501/693/468
f 499/358/469 507/361/469 506/360/469 490/359/469
f 313/362/470 493/365/470 495/364/470 496/363/470
f 497/366/471 491/369/471 492/368/471 498/367/471
f 479/563/472 487/694/472 481/685/472 473/564/472
f 472/684/473 480/683/473 486/695/473 478/688/473
f 478/126/474 486/372/474 485/349/474 477/125/474
f 475/3/475 483/339/475 484/373/475 476/352/475
f 489/696/476 495/697/476 493/698/476 471/699/476
f 489/696/477 471/699/477 491/700/477 490/701/477
f 471/699/478 488/702/478 492/703/478 491/700/478
f 471/699/479 493/698/479 494/704/479 488/702/479
f 499/358/480 490/359/480 491/369/480 497/366/480
f 495/364/481 504/384/481 503/383/481 496/363/481
f 501/693/482 488/692/482 494/705/482 502/706/482
f 502/387/483 494/388/483 493/365/483 313/362/483
f 516/389/484 502/387/484 313/362/484 509/390/484
f 515/707/485 501/693/485 502/706/485 516/708/485
f 512/709/486 496/710/486 500/711/486 511/712/486
f 514/397/487 499/358/487 497/366/487 510/398/487
f 510/398/488 497/366/488 498/367/488 513/399/488
f 509/390/489 313/362/489 496/363/489 512/400/489
f 511/712/490 500/711/490 499/713/490 514/714/490
f 513/715/491 498/690/491 501/693/491 515/707/491
f 508/716/492 505/717/492 506/718/492 507/719/492
f 503/720/493 504/721/493 505/717/493 508/716/493
f 500/722/494 508/723/494 507/724/494 499/725/494
f 490/701/495 506/726/495 505/727/495 489/696/495
f 496/728/496 503/729/496 508/723/496 500/722/496
f 489/696/497 505/727/497 504/730/497 495/697/497
f 484/682/498 513/715/498 515/707/498 480/683/498
f 481/685/499 511/712/499 514/714/499 482/686/499
f 485/349/500 509/390/500 512/400/500 487/348/500
f 483/339/501 510/398/501 513/399/501 484/373/501
f 482/340/502 514/397/502 510/398/502 483/339/502
f 487/694/503 512/709/503 511/712/503 481/685/503
f 480/683/504 515/707/504 516/708/504 486/695/504
f 486/372/505 516/389/505 509/390/505 485/349/505
f 252/419/506 517/731/506 518/732/506 251/420/506
f 519/733/507 517/734/507 252/425/507 257/424/507
f 258/427/508 251/420/508 518/732/508 520/735/508
f 24/107/509 258/430/509 520/736/509 366/519/509
f 365/530/510 519/737/510 257/431/510 26/119/510
f 366/532/511 520/735/511 519/737/511 365/530/511
f 362/433/512 521/133/512 522/134/512 363/434/512
f 537/435/513 523/172/513 521/133/513 362/433/513
f 363/434/514 522/134/514 524/149/514 538/436/514
f 538/436/515 524/149/515 523/172/515 537/435/515 545/438/515 546/437/515
f 362/738/516 525/739/516 541/740/516 537/741/516
f 528/443/517 542/446/517 540/445/517 526/444/517
f 538/436/518 544/448/518 529/447/518 363/434/518
f 540/742/519 539/743/519 527/744/519 526/745/519
f 539/743/520 541/740/520 525/739/520 527/744/520
f 528/443/521 530/454/521 543/453/521 542/446/521
f 530/454/522 529/447/522 544/448/522 543/453/522
f 363/746/523 529/747/523 530/748/523 528/749/523 526/750/523 527/751/523 525/752/523 362/753/523
f 378/754/524 538/755/524 546/756/524
f 533/757/525 539/758/525 540/759/525 531/760/525
f 532/761/526 541/762/526 539/758/526 533/757/526
f 535/611/527 542/763/527 543/764/527 536/608/527
f 536/608/528 543/764/528 544/765/528 534/766/528
f 531/760/529 540/759/529 542/763/529 535/611/529
f 381/767/530 537/768/530 541/762/530 532/761/530
f 534/766/531 544/765/531 538/755/531 378/754/531
f 547/769/532 551/770/532 549/771/532 550/772/532 552/610/532 553/609/532 554/773/532 548/774/532
f 545/775/533 537/768/533 381/767/533
f 532/761/534 551/770/534 547/769/534 381/767/534
f 556/776/535 555/777/535 547/769/535 548/774/535
f 381/767/536 547/769/536 555/777/536 545/775/536
f 378/754/537 548/774/537 554/773/537 534/766/537
f 534/766/538 554/773/538 553/609/538 536/608/538
f 531/760/539 550/772/539 549/771/539 533/757/539
f 545/438/540 555/488/540 556/487/540 546/437/540
f 535/611/541 552/610/541 550/772/541 531/760/541
f 546/756/542 556/776/542 548/774/542 378/754/542
f 533/757/543 549/771/543 551/770/543 532/761/543
f 559/778/544 374/779/544 326/780/544 557/781/544
f 558/613/545 561/605/545 377/604/545 560/782/545
f 375/783/546 325/612/546 558/613/546 560/782/546
f 326/606/547 561/605/547 303/496/547 302/495/547
f 299/497/548 303/500/548 561/784/548 558/785/548
f 557/781/549 326/780/549 302/502/549 300/501/549
f 560/184/550 377/504/550 374/503/550 559/183/550
f 562/786/551 575/787/551 574/788/551
f 563/789/552 575/790/552 577/791/552
f 562/792/553 574/793/553 579/794/553
f 562/795/554 579/796/554 581/797/554
f 562/798/555 581/799/555 578/800/555
f 563/789/556 577/791/556 584/801/556
f 564/802/557 576/803/557 586/804/557
f 565/805/558 580/806/558 588/807/558
f 566/808/559 582/809/559 590/810/559
f 567/811/560 583/812/560 592/813/560
f 563/789/561 584/801/561 587/814/561
f 564/802/562 586/804/562 589/815/562
f 565/805/563 588/807/563 591/816/563
f 566/808/564 590/810/564 593/817/564
f 567/811/565 592/813/565 585/818/565
f 568/819/566 594/820/566 599/821/566
f 569/822/567 595/823/567 601/824/567
f 570/825/568 596/826/568 602/827/568
f 571/828/569 597/829/569 603/830/569
f 572/831/570 598/832/570 600/833/570
f 600/833/571 603/834/571 573/835/571
f 600/833/572 598/832/572 603/834/572
f 598/832/573 571/828/573 603/834/573
f 603/830/574 602/836/574 573/837/574
f 603/830/575 597/829/575 602/836/575
f 597/829/576 570/825/576 602/836/576
f 602/827/577 601/838/577 573/839/577
f 602/827/578 596/826/578 601/838/578
f 596/826/579 569/840/579 601/838/579
f 601/824/580 599/841/580 573/842/580
f 601/824/581 595/823/581 599/841/581
f 595/823/582 568/819/582 599/841/582
f 599/821/583 600/843/583 573/844/583
f 599/821/584 594/820/584 600/843/584
f 594/820/585 572/831/585 600/843/585
f 585/818/586 598/832/586 572/831/586
f 585/818/587 592/813/587 598/832/587
f 592/813/588 571/828/588 598/832/588
f 593/817/589 597/829/589 571/828/589
f 593/817/590 590/810/590 597/829/590
f 590/810/591 570/825/591 597/829/591
f 591/816/592 596/826/592 570/825/592
f 591/816/593 588/807/593 596/826/593
f 588/807/594 569/840/594 596/826/594
f 589/815/595 595/823/595 569/822/595
f 589/815/596 586/804/596 595/823/596
f 586/804/597 568/819/597 595/823/597
f 587/814/598 594/820/598 568/819/598
f 587/814/599 584/801/599 594/820/599
f 584/801/600 572/831/600 594/820/600
f 592/813/601 593/817/601 571/828/601
f 592/813/602 583/812/602 593/817/602
f 583/812/603 566/808/603 593/817/603
f 590/810/604 591/816/604 570/825/604
f 590/810/605 582/809/605 591/816/605
f 582/809/606 565/805/606 591/816/606
f 588/807/607 589/845/607 569/840/607
f 588/807/608 580/806/608 589/845/608
f 580/806/609 564/846/609 589/845/609
f 586/804/610 587/814/610 568/819/610
f 586/804/611 576/803/611 587/814/611
f 576/803/612 563/789/612 587/814/612
f 584/801/613 585/818/613 572/831/613
f 584/801/614 577/791/614 585/818/614
f 577/791/615 567/811/615 585/818/615
f 578/800/616 583/812/616 567/811/616
f 578/800/617 581/799/617 583/812/617
f 581/799/618 566/808/618 583/812/618
f 581/797/619 582/809/619 566/808/619
f 581/797/620 579/796/620 582/809/620
f 579/796/621 565/805/621 582/809/621
f 579/794/622 580/806/622 565/805/622
f 579/794/623 574/793/623 580/806/623
f 574/793/624 564/846/624 580/806/624
f 577/791/625 578/847/625 567/811/625
f 577/791/626 575/790/626 578/847/626
f 575/790/627 562/848/627 578/847/627
f 574/788/628 576/803/628 564/802/628
f 574/788/629 575/787/629 576/803/629
f 575/787/630 563/789/630 576/803/630
f 604/786/631 616/788/631 617/787/631
f 605/789/632 619/791/632 617/790/632
f 604/792/633 621/794/633 616/793/633
f 604/795/634 623/797/634 621/796/634
f 604/798/635 620/800/635 623/799/635
f 605/789/636 626/801/636 619/791/636
f 606/802/637 628/804/637 618/803/637
f 607/805/638 630/807/638 622/806/638
f 608/808/639 632/810/639 624/809/639
f 609/811/640 634/813/640 625/812/640
f 605/789/641 629/814/641 626/801/641
f 606/802/642 631/815/642 628/804/642
f 607/805/643 633/816/643 630/807/643
f 608/808/644 635/817/644 632/810/644
f 609/811/645 627/818/645 634/813/645
f 610/819/646 641/821/646 636/820/646
f 611/822/647 643/824/647 637/823/647
f 612/825/648 644/827/648 638/826/648
f 613/828/649 645/830/649 639/829/649
f 614/831/650 642/833/650 640/832/650
f 642/833/651 615/835/651 645/834/651
f 642/833/652 645/834/652 640/832/652
f 640/832/653 645/834/653 613/828/653
f 645/830/654 615/837/654 644/836/654
f 645/830/655 644/836/655 639/829/655
f 639/829/656 644/836/656 612/825/656
f 644/827/657 615/839/657 643/838/657
f 644/827/658 643/838/658 638/826/658
f 638/826/659 643/838/659 611/840/659
f 643/824/660 615/842/660 641/841/660
f 643/824/661 641/841/661 637/823/661
f 637/823/662 641/841/662 610/819/662
f 641/821/663 615/844/663 642/843/663
f 641/821/664 642/843/664 636/820/664
f 636/820/665 642/843/665 614/831/665
f 627/818/666 614/831/666 640/832/666
f 627/818/667 640/832/667 634/813/667
f 634/813/668 640/832/668 613/828/668
f 635/817/669 613/828/669 639/829/669
f 635/817/670 639/829/670 632/810/670
f 632/810/671 639/829/671 612/825/671
f 633/816/672 612/825/672 638/826/672
f 633/816/673 638/826/673 630/807/673
f 630/807/674 638/826/674 611/840/674
f 631/815/675 611/822/675 637/823/675
f 631/815/676 637/823/676 628/804/676
f 628/804/677 637/823/677 610/819/677
f 629/814/678 610/819/678 636/820/678
f 629/814/679 636/820/679 626/801/679
f 626/801/680 636/820/680 614/831/680
f 634/813/681 613/828/681 635/817/681
f 634/813/682 635/817/682 625/812/682
f 625/812/683 635/817/683 608/808/683
f 632/810/684 612/825/684 633/816/684
f 632/810/685 633/816/685 624/809/685
f 624/809/686 633/816/686 607/805/686
f 630/807/687 611/840/687 631/845/687
f 630/807/688 631/845/688 622/806/688
f 622/806/689 631/845/689 606/846/689
f 628/804/690 610/819/690 629/814/690
f 628/804/691 629/814/691 618/803/691
f 618/803/692 629/814/692 605/789/692
f 626/801/693 614/831/693 627/818/693
f 626/801/694 627/818/694 619/791/694
f 619/791/695 627/818/695 609/811/695
f 620/800/696 609/811/696 625/812/696
f 620/800/697 625/812/697 623/799/697
f 623/799/698 625/812/698 608/808/698
f 623/797/699 608/808/699 624/809/699
f 623/797/700 624/809/700 621/796/700
f 621/796/701 624/809/701 607/805/701
f 621/794/702 607/805/702 622/806/702
f 621/794/703 622/806/703 616/793/703
f 616/793/704 622/806/704 606/846/704
f 619/791/705 609/811/705 620/847/705
f 619/791/706 620/847/706 617/790/706
f 617/790/707 620/847/707 604/848/707
f 616/788/708 606/802/708 618/803/708
f 616/788/709 618/803/709 617/787/709
f 617/787/710 618/803/710 605/789/710
