# Blender 5.1.1
# www.blender.org
o Куб.001
v 0.568619 0.143849 0.756387
v 0.462976 1.587935 0.489863
v 0.629600 0.400576 -0.865694
v 0.630675 1.519470 -0.100070
v 0.063089 0.322537 -0.722784
v 0.004173 1.660023 -0.284384
v 0.739964 0.759613 -0.188388
v 0.641063 0.129681 -0.176411
v 0.579479 1.562396 0.208965
v 0.683527 0.720542 0.524621
v 0.086908 0.123047 0.869453
v -0.094109 1.640917 0.546735
v 0.751501 0.728129 -0.066486
v 0.059225 0.040004 -0.202159
v -0.036114 1.709187 0.204194
v 0.833385 0.708423 -1.902299
v 0.555850 1.514285 -0.324724
v 0.077084 0.496867 -0.888332
v 0.000362 1.500530 -0.571530
v 0.478412 0.994718 -1.000200
v 0.474362 1.470389 -0.624930
v 0.060456 1.180956 3.781977
v 0.080185 0.642236 -0.981206
v 0.001756 1.367541 -0.861099
v 0.577397 1.231684 -0.870828
v 0.037206 0.909301 -0.966436
v 0.059125 1.540119 3.604616
v 0.145382 1.740778 3.211498
v 0.484452 0.566738 2.024469
v 0.469474 1.537400 0.929679
v 0.142974 1.076393 3.607656
v 0.635427 0.798763 0.991966
v 0.061149 0.465804 1.679883
v -0.042819 1.601572 1.031196
v 0.033002 1.331167 3.958836
v 0.009881 1.497468 3.916814
v 0.019326 1.227497 3.898412
v 0.562675 1.643249 1.302658
v 0.510896 0.479796 2.897177
v 0.054787 0.405682 1.675891
v -0.052693 1.716270 1.413454
v 0.094353 1.702776 3.472798
v 0.104972 1.127435 3.713419
v 0.144171 1.752346 2.910863
v 0.579515 1.645200 1.498893
v 0.437970 0.551865 2.941941
v 0.060907 0.324456 1.656655
v -0.049264 1.676682 1.592583
v 0.156515 1.030718 3.495867
v 0.131565 1.722570 2.667087
v 0.140844 0.973400 3.361004
v 0.536608 1.568365 1.763565
v 0.741030 1.278065 1.797159
v 0.714248 0.994924 2.349422
v 0.058728 0.252577 1.755062
v -0.040942 1.595407 1.763148
v 0.130334 1.621722 2.383247
v 0.162229 0.753049 2.861318
v 0.426421 1.476281 1.996697
v 0.616535 0.918597 1.928258
v 0.543018 0.709664 2.003345
v 0.044046 0.319888 1.960932
v -0.049757 1.584340 2.029056
v 0.182455 1.544504 2.033158
v 0.297304 0.499737 1.986630
v 0.241251 1.589196 1.746247
v 0.473812 0.580029 1.883522
v 0.316844 1.555713 2.396128
v 0.432359 1.079087 2.698958
v 0.348406 0.758064 2.783656
v -0.020445 0.735660 2.892757
v -0.052717 1.633557 2.363985
v 0.279247 1.694133 1.535382
v 0.407765 0.581994 1.825523
v 0.271286 1.707906 1.342773
v 0.312349 1.661764 2.674395
v 0.402894 1.266891 3.010286
v 0.321241 0.971978 3.284977
v -0.036581 0.947208 3.369067
v -0.047017 1.725031 2.638452
v 0.393968 0.821855 2.139876
v 0.212736 1.602321 0.957212
v 0.377409 0.714710 2.164148
v 0.340643 1.585569 3.000455
v 0.424216 1.398180 3.114930
v 0.348074 1.039858 3.428370
v -0.034767 1.002334 3.499911
v -0.033651 1.761619 2.876894
v 0.294591 0.991433 -0.924832
v 0.205394 1.378811 -0.805880
v 0.346388 0.877477 -0.985372
v 0.216052 1.648378 3.446867
v 0.311404 1.393912 3.516222
v 0.244529 1.130839 3.659674
v -0.031838 1.099842 3.693004
v -0.024195 1.705259 3.436176
v 0.257041 1.496853 -0.583690
v 0.309348 0.610475 -0.935324
v 0.272507 1.681622 0.165091
v 0.044815 1.483865 3.898601
v 0.099258 1.319342 3.919063
v 0.075161 1.245356 3.879746
v -0.028278 1.225584 3.912004
v 0.039564 1.446264 3.934738
v -0.026413 1.321422 3.961722
v 0.435086 1.486774 3.155324
v -0.033295 1.049577 3.600764
v 0.320121 1.081529 3.545589
v 0.352139 0.101089 -0.281553
v -0.027070 1.752734 3.174030
v 0.372381 1.609384 3.087833
v 0.177635 1.650902 0.482077
v -0.025532 1.542981 3.602942
v 0.330748 0.135148 0.806558
v 0.318976 1.640142 -0.304197
v 0.382631 0.391198 -0.854874
v 0.156402 1.181018 3.733830
v -0.030555 1.154074 3.752594
v 0.182824 1.356983 3.717818
v 0.149366 1.498194 3.606456
v 0.041034 1.200700 3.836254
v 0.042778 1.497958 3.793079
v 0.110810 1.209811 3.818348
v 0.134136 1.338578 3.817496
v -0.024948 1.498724 3.779476
v -0.029475 1.187590 3.829055
v 0.109479 1.469437 3.774804
v 0.605120 1.364056 1.056553
v 0.728706 0.801381 1.131166
v 0.638417 0.603243 2.074501
v 0.671769 1.489644 1.297318
v 0.832273 0.911757 1.845661
v 0.878401 0.882199 2.420938
v 0.641379 1.536919 1.479470
v 0.862688 1.082933 1.843225
v 0.940346 1.023641 2.515257
v 0.658723 1.375553 1.626494
v 0.832854 1.256791 1.801503
v 0.915480 1.116419 2.487747
v 0.416281 0.599772 2.700960
v 0.491311 0.526173 2.630077
v 0.849098 0.873960 2.911858
v 0.719422 0.929457 2.943597
v 0.860015 0.756673 2.856534
v 0.457172 0.767156 2.858454
v 0.814442 0.657942 2.782015
v 0.625839 0.488525 2.599215
v 0.502489 0.847674 2.900629
v 0.573431 0.881532 2.871522
v 0.822303 0.714106 3.074495
v 0.693630 0.790986 3.112185
v 0.450427 0.190164 3.252402
v 0.843540 0.622377 3.029102
v 0.455044 0.660760 3.022669
v 0.357224 0.268648 3.294831
v 0.803198 0.543852 2.977505
v 0.643586 0.444726 2.885347
v 0.490051 0.754226 3.081782
v 0.552894 0.803651 3.108687
v 0.402188 0.411889 3.077088
v 0.485701 0.339220 3.038007
v 0.808113 0.539940 3.197026
v 0.665582 0.619447 3.231616
v 0.802234 0.463399 3.157984
v 0.419507 0.511560 3.148754
v 0.765665 0.391531 3.111759
v 0.632459 0.297420 3.027904
v 0.453091 0.596521 3.202265
v 0.514673 0.639899 3.227404
v 0.826617 0.381660 3.435822
v 0.641603 0.473714 3.476489
v 0.642745 0.367255 3.403306
v 0.798135 0.314153 3.387104
v 0.374810 0.373937 3.373064
v 0.601791 0.286757 3.344452
v 0.760804 0.240350 3.334195
v 0.612991 0.143302 3.242055
v 0.411972 0.459702 3.434093
v 0.449161 0.507847 3.471529
v 0.378271 0.344921 3.182156
v 0.432191 0.533579 3.313525
v 0.395576 0.447968 3.256657
v 0.767378 0.319389 3.218560
v 0.804143 0.393379 3.267738
v 0.819677 0.499050 3.265931
v 0.664902 0.583309 3.305988
v 0.625224 0.223520 3.131312
v 0.468175 0.268595 3.141673
v 0.499999 0.606628 3.297731
v 0.689941 0.637493 3.458858
v 0.679198 0.575602 3.558371
v 0.835331 0.492195 3.519745
v 0.515655 0.600266 3.551307
v 0.840626 0.556752 3.420650
v 0.531783 0.660857 3.451232
v 0.784785 1.365947 -0.138036
v 0.816438 0.803209 -0.296835
v 0.787615 0.484537 -0.883204
v 0.770190 1.435531 -0.366529
v 0.873451 1.121421 -0.664754
v 0.828114 0.737112 -0.950014
v 0.753111 1.446967 -0.594805
v 0.846547 1.258628 -0.821368
v 0.752468 0.998976 -0.997739
v 0.614961 0.736936 -2.128688
v 0.530314 0.959312 -1.315921
v 0.658465 0.387505 -1.106489
v 0.459813 0.430358 -1.132473
v 0.392950 0.671420 -1.228261
v 0.419576 0.910361 -1.302861
v 0.816011 0.694178 -1.221344
v 0.754158 0.928425 -1.306652
v 0.784737 0.465094 -1.136638
v 0.547416 0.866264 -1.458332
v 0.662519 0.366733 -1.629558
v 0.481599 0.425420 -1.613537
v 0.421456 0.638440 -1.509068
v 0.446407 0.825961 -1.463173
v 0.807005 0.631464 -1.506971
v 0.751316 0.835249 -1.460115
v 0.777779 0.430141 -1.598892
v 0.551614 0.964393 -2.066102
v 0.683690 0.521642 -2.170849
v 0.427302 0.569870 -2.175062
v 0.409784 0.759418 -2.130305
v 0.438884 0.930060 -2.078112
v 0.838721 0.757177 -2.123905
v 0.778238 0.940023 -2.073416
v 0.848502 0.581274 -2.161601
v 0.841086 0.537414 -1.942923
v 0.404420 0.711618 -1.908530
v 0.433536 0.881648 -1.858081
v 0.419871 0.526592 -1.954994
v 0.676189 0.480595 -1.956428
v 0.546275 0.915698 -1.845628
v 0.772906 0.891094 -1.852862
v 0.802215 0.434263 -2.073549
v 0.808806 0.443170 -2.185576
v 0.680183 0.385311 -2.195524
v 0.479277 0.434209 -2.199311
v 0.472699 0.424806 -2.088762
v 0.673579 0.376954 -2.080670
v 0.796927 0.666589 -1.687382
v 0.437467 0.668322 -1.691111
v 0.661432 0.445775 -1.756173
v 0.769075 0.499990 -1.740619
v 0.461438 0.820903 -1.635885
v 0.492915 0.493034 -1.750563
v 0.555820 0.851609 -1.624649
v 0.745809 0.829022 -1.631881
v 0.002281 1.242482 -0.957854
v 0.013729 1.001821 -1.038834
v 0.109007 1.021791 -0.997222
v 0.078772 1.229116 -0.933037
v 0.149469 1.022263 -0.943858
v 0.090764 1.314686 -0.880404
v 0.016279 0.971728 -0.995838
v 0.002005 1.330996 -0.910661
v 0.318934 1.639328 2.849879
v 0.430311 1.310812 3.135188
v 0.318311 1.675388 3.198998
v 0.440217 1.411337 3.310370
v 0.400330 1.638752 3.005801
v 0.478671 1.635201 3.029597
v 0.441466 1.653988 3.014398
v 0.506410 1.600550 3.045625
v 0.505420 1.514711 3.078433
v 0.519163 1.559128 3.062756
v 0.484019 1.628664 3.081802
v 0.425005 1.640055 3.077026
v 0.455663 1.644594 3.075666
v 0.496579 1.557208 3.114421
v 0.496816 1.613717 3.087381
v 0.506892 1.585538 3.099663
v 0.342556 1.617133 3.084201
v 0.429779 1.445357 3.175630
v 0.460308 1.666542 3.064643
v 0.499595 1.644770 3.073621
v 0.416738 1.660182 3.067011
v 0.517775 1.623884 3.082126
v 0.531623 1.585437 3.099501
v 0.517650 1.547090 3.119279
v 0.353341 1.596592 3.095314
v 0.419808 1.465048 3.165202
v 0.382455 1.588097 3.086942
v 0.427756 1.499444 3.135741
v 0.442552 1.613435 3.078193
v 0.463022 1.601871 3.082645
v 0.420439 1.610162 3.079180
v 0.472264 1.591034 3.086689
v 0.479546 1.570624 3.095577
v 0.472129 1.550044 3.106271
v 0.368778 1.578626 3.092445
v 0.416748 1.483827 3.142880
v 0.034525 1.486570 3.883729
v 0.030856 1.424099 3.945875
v 0.075010 1.470733 3.859718
v 0.070100 1.408612 3.922722
v -0.024850 1.426988 3.948570
v -0.024333 1.487733 3.888364
v 0.006271 1.459525 3.952322
v -0.023995 1.495881 3.917342
v -0.024314 1.459450 3.952200
v -0.432530 0.079659 0.716605
v -0.592074 1.434338 0.493809
v -0.470299 0.397103 -0.962335
v -0.611878 1.515547 -0.209245
v -0.687867 0.729987 -0.297382
v -0.482750 0.094545 -0.251900
v -0.637922 1.522794 0.123442
v -0.605925 0.586051 0.503010
v -0.705465 0.678615 -0.164040
v -0.492124 0.704237 -2.018763
v -0.506974 1.511185 -0.409299
v -0.301720 0.992255 -1.068732
v -0.403930 1.468312 -0.678054
v -0.120242 1.183793 3.783286
v -0.436128 1.228732 -0.951341
v -0.110203 1.542778 3.605842
v -0.198731 1.744774 3.214173
v -0.394829 0.490687 2.018025
v -0.541434 1.437490 0.927332
v -0.208517 1.081913 3.610201
v -0.573637 0.688614 0.982935
v -0.085528 1.333028 3.959694
v -0.057808 1.498530 3.917305
v -0.075990 1.228993 3.899102
v -0.646021 1.542557 1.294830
v -0.422969 0.402000 2.891129
v -0.142212 1.706491 3.474511
v -0.167405 1.131712 3.715391
v -0.209789 1.752708 2.914093
v -0.665475 1.541484 1.490829
v -0.363555 0.485092 2.936751
v -0.225103 1.036711 3.498631
v -0.222243 1.712934 2.671421
v -0.213194 0.978960 3.363567
v -0.612834 1.476609 1.751337
v -0.767841 1.152366 1.787387
v -0.701687 0.876967 2.340252
v -0.232759 1.606741 2.386351
v -0.201014 0.751886 2.863387
v -0.507249 1.417391 1.976131
v -0.600120 0.828126 1.923415
v -0.499306 0.633928 1.998987
v -0.274895 1.517098 2.020853
v -0.230508 0.464022 1.984571
v -0.320293 1.547932 1.736013
v -0.391762 0.508512 1.877998
v -0.412181 1.526280 2.401797
v -0.473345 1.051527 2.706913
v -0.380836 0.750963 2.788135
v -0.376670 1.640296 1.530171
v -0.324393 0.521001 1.820781
v -0.369887 1.654493 1.338620
v -0.398586 1.643632 2.682634
v -0.464193 1.269972 3.017449
v -0.390103 0.981000 3.290245
v -0.354517 0.759502 2.135028
v -0.297009 1.552504 0.956650
v -0.319769 0.656354 2.159735
v -0.404185 1.587959 3.007042
v -0.486963 1.405783 3.122388
v -0.417114 1.051733 3.433927
v -0.170134 0.990265 -0.955361
v -0.192765 1.378443 -0.810169
v -0.175886 0.875860 -1.030157
v -0.266158 1.655725 3.450391
v -0.368202 1.404583 3.521143
v -0.307549 1.139508 3.663671
v -0.236551 1.496205 -0.595605
v -0.144134 0.609043 -0.975168
v -0.333889 1.662730 0.122018
v -0.093412 1.486036 3.899602
v -0.152691 1.323298 3.920887
v -0.131501 1.248601 3.881243
v -0.088822 1.448280 3.935668
v -0.495723 1.494613 3.162938
v -0.386296 1.092622 3.550704
v -0.207288 0.086100 -0.321848
v -0.433087 1.614246 3.094686
v -0.346749 1.559553 0.492125
v -0.162235 0.094907 0.791919
v -0.280261 1.638517 -0.347631
v -0.228947 0.389267 -0.908609
v -0.216826 1.186878 3.736532
v -0.237939 1.363590 3.720865
v -0.201680 1.503706 3.608998
v -0.099426 1.202906 3.837271
v -0.092462 1.500082 3.794058
v -0.169134 1.214207 3.820375
v -0.188415 1.343643 3.819831
v -0.160283 1.473673 3.776757
v -0.638603 1.248788 1.052842
v -0.664217 0.676203 1.123559
v -0.558565 0.503527 2.066749
v -0.728119 1.373025 1.288252
v -0.797835 0.775959 1.835103
v -0.845833 0.738560 2.409770
v -0.708315 1.424480 1.470729
v -0.856119 0.939746 1.832093
v -0.931534 0.867702 2.503134
v -0.700841 1.263492 1.616255
v -0.854928 1.116188 1.790572
v -0.922010 0.963345 2.475847
v -0.346994 0.536187 2.696016
v -0.407894 0.451264 2.624254
v -0.821888 0.734757 2.901036
v -0.703600 0.810910 2.934381
v -0.812536 0.617339 2.845701
v -0.417038 0.694328 2.852793
v -0.750300 0.527589 2.771881
v -0.533930 0.391909 2.591704
v -0.475592 0.766194 2.894294
v -0.550777 0.787879 2.864241
v -0.771107 0.581365 3.064176
v -0.657423 0.678434 3.103435
v -0.319986 0.125984 3.247413
v -0.776289 0.487435 3.018612
v -0.399448 0.589575 3.017135
v -0.241607 0.218761 3.290953
v -0.722850 0.416723 2.967622
v -0.547865 0.345471 2.877631
v -0.450194 0.675898 3.075693
v -0.520689 0.714215 3.101734
v -0.306847 0.352823 3.072496
v -0.376676 0.267379 3.032422
v -0.729873 0.411817 3.187065
v -0.602919 0.513773 3.223400
v -0.710909 0.337345 3.148184
v -0.341339 0.448177 3.143826
v -0.662362 0.272568 3.102510
v -0.514352 0.201884 3.020476
v -0.389203 0.526352 3.196810
v -0.457432 0.558917 3.221108
v -0.725004 0.252400 3.425772
v -0.558309 0.373754 3.468718
v -0.540879 0.268652 3.395641
v -0.685120 0.190589 3.377497
v -0.277376 0.319605 3.368840
v -0.486417 0.196103 3.337404
v -0.635415 0.124036 3.325153
v -0.472409 0.052882 3.235025
v -0.328999 0.397974 3.429295
v -0.374120 0.439262 3.466197
v -0.273534 0.290622 3.177935
v -0.359610 0.467618 3.308397
v -0.308606 0.389306 3.252096
v -0.653488 0.201022 3.209357
v -0.702618 0.267856 3.257980
v -0.735398 0.369503 3.255859
v -0.597225 0.478166 3.297814
v -0.496321 0.130088 3.124048
v -0.349041 0.200516 3.136380
v -0.438361 0.528456 3.291654
v -0.632849 0.527296 3.450291
v -0.613294 0.467929 3.550000
v -0.752965 0.359880 3.509458
v -0.456009 0.519321 3.545014
v -0.767593 0.422778 3.410234
v -0.480651 0.576515 3.444676
v -0.756042 1.361082 -0.273418
v -0.754423 0.794112 -0.432375
v -0.623362 0.480082 -1.007177
v -0.702262 1.430882 -0.495903
v -0.749966 1.116295 -0.807393
v -0.653173 0.732435 -1.080165
v -0.653854 1.442772 -0.709878
v -0.699186 1.253814 -0.954869
v -0.572006 0.994794 -1.114111
v -0.237753 0.734243 -2.203610
v -0.297528 0.956699 -1.388658
v -0.456650 0.383984 -1.204467
v -0.256783 0.428096 -1.195435
v -0.175753 0.669624 -1.278229
v -0.190459 0.908435 -1.356460
v -0.593673 0.689727 -1.345204
v -0.519360 0.924404 -1.418548
v -0.576213 0.460796 -1.256216
v -0.288950 0.863623 -1.531818
v -0.369299 0.363475 -1.720217
v -0.194316 0.423286 -1.672925
v -0.154648 0.636620 -1.559686
v -0.188394 0.823957 -1.518949
v -0.534604 0.627228 -1.624850
v -0.489217 0.831332 -1.569112
v -0.488535 0.426143 -1.710155
v -0.187717 0.962058 -2.131061
v -0.296726 0.518546 -2.256991
v -0.043839 0.568382 -2.216458
v -0.035582 0.758012 -2.169436
v -0.074406 0.928439 -2.123212
v -0.459041 0.753079 -2.237931
v -0.409436 0.936273 -2.177768
v -0.460996 0.577139 -2.276657
v -0.491551 0.533207 -2.060013
v -0.068675 0.710124 -1.950098
v -0.107206 0.879940 -1.905592
v -0.074626 0.525031 -1.998442
v -0.326473 0.477430 -2.044525
v -0.220601 0.913277 -1.913008
v -0.442339 0.887257 -1.959637
v -0.429852 0.430373 -2.181803
v -0.416863 0.439300 -2.293267
v -0.288116 0.382254 -2.280602
v -0.089938 0.432412 -2.249324
v -0.102679 0.422989 -2.139316
v -0.301589 0.373875 -2.166351
v -0.493440 0.662514 -1.800757
v -0.138856 0.666502 -1.741749
v -0.346645 0.442592 -1.844746
v -0.455688 0.496123 -1.848231
v -0.173046 0.818900 -1.691633
v -0.181988 0.490903 -1.809862
v -0.268131 0.849007 -1.697044
v -0.453803 0.825234 -1.737282
v -0.072301 1.021585 -1.000502
v -0.074408 1.229002 -0.933722
v -0.094477 1.021920 -0.950560
v -0.086998 1.314554 -0.881199
v -0.388620 1.636191 2.856830
v -0.494371 1.319648 3.142611
v -0.373703 1.682942 3.204439
v -0.499574 1.423005 3.317571
v -0.462643 1.642828 3.013301
v -0.540015 1.641208 3.038313
v -0.503106 1.659093 3.022545
v -0.567707 1.607359 3.054749
v -0.567106 1.522293 3.087407
v -0.580588 1.566506 3.072024
v -0.544450 1.635094 3.090539
v -0.485636 1.645294 3.084824
v -0.516137 1.650408 3.083961
v -0.557167 1.564479 3.123266
v -0.557272 1.620471 3.096311
v -0.567416 1.592684 3.108724
v -0.402890 1.622195 3.090459
v -0.490695 1.453928 3.183051
v -0.520709 1.672379 3.073029
v -0.559938 1.651411 3.082628
v -0.477313 1.665302 3.074673
v -0.578166 1.630928 3.091414
v -0.592126 1.592965 3.108973
v -0.578277 1.554719 3.128468
v -0.414159 1.601091 3.101861
v -0.480549 1.473267 3.172483
v -0.443465 1.593006 3.093978
v -0.488595 1.506719 3.143294
v -0.503366 1.619089 3.086259
v -0.523784 1.608039 3.091015
v -0.481354 1.615402 3.086893
v -0.533022 1.597490 3.095195
v -0.540324 1.577443 3.104172
v -0.532911 1.557094 3.114691
v -0.429757 1.583496 3.099230
v -0.477633 1.491348 3.150197
v -0.083258 1.488419 3.884582
v -0.080653 1.425850 3.946682
v -0.124564 1.473867 3.861164
v -0.120695 1.411608 3.924103
v -0.054878 1.460485 3.952765
v 0.263853 1.438696 3.522483
v 0.279673 1.500276 3.489872
v 0.242665 1.464634 3.555843
v 0.204804 1.433267 3.580482
v 0.218413 1.449524 3.529739
v 0.264685 1.490938 3.473738
v 0.230401 1.532906 3.527719
v 0.184129 1.491493 3.583719
v 0.169141 1.482154 3.567585
v 0.206149 1.517796 3.501614
v 0.244010 1.549163 3.476975
v 0.184961 1.543734 3.534975
v 0.258325 1.444721 3.540995
v 0.280077 1.465671 3.502218
v 0.267623 1.480917 3.521827
v 0.280566 1.496378 3.473567
v 0.271267 1.460182 3.492735
v 0.236070 1.426285 3.555478
v 0.223616 1.441530 3.575087
v 0.244070 1.435840 3.525651
v 0.209362 1.432649 3.559743
v 0.244559 1.466547 3.497000
v 0.268414 1.530602 3.475469
v 0.259604 1.525113 3.465986
v 0.238662 1.500097 3.544073
v 0.260415 1.521047 3.505296
v 0.189210 1.457317 3.591471
v 0.211464 1.475754 3.576989
v 0.188399 1.461383 3.552162
v 0.180400 1.451828 3.581989
v 0.237350 1.506676 3.480469
v 0.210152 1.482334 3.513384
v 0.239452 1.549782 3.497715
v 0.204255 1.515884 3.560457
v 0.168248 1.486052 3.583890
v 0.181191 1.501513 3.535630
v 0.225198 1.540900 3.482371
v 0.204744 1.546590 3.531806
v 0.212744 1.556146 3.501981
v 0.177547 1.522248 3.564723
v 0.168737 1.516759 3.555239
v 0.190490 1.537709 3.516463
v -0.319182 1.447852 3.526705
v -0.333532 1.509905 3.494313
v -0.296710 1.473104 3.559750
v -0.259499 1.440558 3.583845
v -0.273325 1.457246 3.533300
v -0.319079 1.500104 3.477966
v -0.282716 1.540964 3.531435
v -0.236962 1.498105 3.586768
v -0.222510 1.488304 3.570422
v -0.259331 1.525105 3.504985
v -0.296542 1.557651 3.480889
v -0.236859 1.550358 3.538030
v -0.313200 1.453696 3.545133
v -0.334843 1.475327 3.506671
v -0.321634 1.490170 3.526094
v -0.334782 1.506041 3.478024
v -0.326348 1.469567 3.497063
v -0.291328 1.434566 3.559297
v -0.278119 1.449409 3.578720
v -0.299455 1.444375 3.529587
v -0.264374 1.440088 3.563174
v -0.299394 1.475088 3.500939
v -0.321536 1.539866 3.479741
v -0.313041 1.534105 3.470133
v -0.291766 1.508426 3.547914
v -0.313409 1.530058 3.509451
v -0.243000 1.464104 3.594601
v -0.264872 1.483234 3.580438
v -0.242632 1.468152 3.555283
v -0.234505 1.458343 3.584993
v -0.291169 1.514975 3.484296
v -0.264275 1.489784 3.516820
v -0.291667 1.558122 3.501561
v -0.256647 1.523121 3.563795
v -0.221259 1.492169 3.586711
v -0.234407 1.508039 3.538640
v -0.277922 1.548800 3.486014
v -0.256586 1.553835 3.535147
v -0.264713 1.563643 3.505437
v -0.229693 1.528643 3.567672
v -0.221198 1.522882 3.558063
v -0.242841 1.544513 3.519601
vn -0.8689 -0.3841 -0.3123
vn 0.4136 0.8369 -0.3586
vn 0.9840 -0.1561 -0.0861
vn 0.9843 0.1540 0.0865
vn 0.9607 0.1934 0.1992
vn 0.9797 -0.1784 0.0910
vn 0.9831 -0.1420 0.1159
vn -0.1795 -0.9199 0.3486
vn 0.1347 -0.9063 -0.4006
vn 0.0678 -0.9973 0.0269
vn 0.0673 0.9938 -0.0880
vn 0.0587 0.9851 0.1615
vn 0.0570 0.9494 -0.3088
vn 0.0529 0.5085 -0.8594
vn -0.0943 -0.5378 -0.8378
vn 0.4956 -0.1082 0.8618
vn 0.0544 0.5152 -0.8554
vn -0.3396 0.4826 -0.8073
vn 0.0891 0.7571 -0.6472
vn 0.1398 -0.3364 -0.9313
vn 0.8348 0.5489 -0.0415
vn 0.9274 -0.3681 -0.0669
vn 0.0036 0.9959 0.0909
vn 0.9710 0.2359 0.0373
vn 0.2806 -0.9444 -0.1713
vn 0.0140 0.9898 0.1417
vn -0.0553 0.9607 -0.2721
vn -0.7946 -0.6050 -0.0505
vn 0.7876 0.1115 -0.6061
vn 0.0370 0.8969 0.4407
vn 0.8296 0.5413 -0.1367
vn 0.7986 -0.5819 -0.1537
vn 0.0099 0.8815 -0.4722
vn -0.9168 0.3721 0.1453
vn 0.3612 -0.7296 0.5807
vn 0.1341 -0.9123 0.3868
vn 0.0278 -0.8860 -0.4629
vn 0.1487 -0.9875 0.0531
vn -0.2697 0.9261 0.2638
vn 0.8024 0.4586 -0.3819
vn 0.3793 0.9238 -0.0526
vn 0.9446 -0.2029 0.2580
vn 0.4595 -0.8531 0.2471
vn 0.2836 0.9528 0.1085
vn 0.0913 0.9896 0.1110
vn 0.0266 0.8965 -0.4423
vn 0.6294 0.2628 0.7313
vn 0.5028 -0.8604 0.0830
vn 0.7458 0.2864 -0.6015
vn -0.0412 0.1839 -0.9821
vn 0.9789 0.1998 -0.0432
vn 0.9660 0.2500 -0.0662
vn 0.1311 0.9767 -0.1697
vn -0.8633 0.3840 0.3274
vn 0.9339 0.3145 0.1700
vn 0.2318 0.9682 0.0943
vn 0.1907 0.9815 0.0177
vn 0.9782 0.1677 -0.1227
vn 0.1846 0.9365 -0.2980
vn 0.0570 0.9886 -0.1391
vn 0.1761 -0.8999 0.3989
vn 0.9731 -0.1724 0.1530
vn 0.1198 0.9204 0.3722
vn 0.0804 0.9421 -0.3255
vn 0.0078 0.9868 0.1619
vn -0.0640 0.7171 -0.6940
vn 0.8437 0.0735 0.5317
vn 0.2025 -0.8471 0.4913
vn 0.5331 -0.7924 0.2966
vn 0.1667 -0.9085 0.3833
vn 0.9433 -0.3276 -0.0542
vn 0.6375 -0.5629 -0.5261
vn 0.8704 -0.2804 0.4047
vn 0.3242 -0.7755 0.5418
vn 0.3889 -0.8491 0.3574
vn 0.1658 0.9392 0.3009
vn 0.2881 0.9479 -0.1360
vn 0.7656 0.4728 0.4362
vn 0.4346 0.8999 -0.0356
vn 0.1535 -0.9014 0.4048
vn 0.1845 -0.4860 0.8543
vn 0.8909 0.2827 0.3556
vn 0.3246 0.8883 -0.3251
vn 0.3922 0.8902 0.2317
vn 0.1114 -0.8762 0.4689
vn 0.4295 0.8895 0.1557
vn 0.1477 -0.9143 0.3772
vn 0.5478 0.5410 0.6382
vn 0.1368 -0.8972 0.4199
vn 0.3912 -0.5124 0.7645
vn -0.2948 0.2912 0.9101
vn 0.0072 0.9937 0.1117
vn 0.1680 -0.9105 0.3777
vn 0.9694 -0.1918 0.1531
vn 0.0403 0.1304 0.9906
vn 0.0537 0.9980 0.0334
vn 0.6421 0.4815 0.5966
vn 0.1329 -0.9054 0.4032
vn -0.1187 0.6790 0.7244
vn 0.4506 0.8921 -0.0340
vn 0.3462 0.5766 0.7401
vn 0.0391 -0.7583 0.6508
vn 0.3268 -0.5938 0.7352
vn 0.7863 0.0564 0.6152
vn 0.4183 0.8760 0.2400
vn 0.1371 -0.9105 0.3902
vn 0.8559 0.3809 0.3499
vn 0.0001 0.9731 0.2304
vn 0.2124 -0.8871 0.4097
vn 0.8812 -0.1185 0.4577
vn 0.8244 -0.5628 -0.0604
vn 0.9628 0.1717 -0.2088
vn 0.9701 0.1297 -0.2049
vn 0.8107 0.5849 0.0268
vn 0.9614 -0.2507 -0.1133
vn 0.9800 0.1778 -0.0895
vn 0.7210 0.6913 0.0472
vn 0.8770 0.3902 0.2802
vn -0.7361 0.6749 -0.0519
vn -0.4388 0.8440 0.3084
vn -0.2803 -0.9502 -0.1360
vn 0.9812 0.0632 0.1821
vn -0.9876 0.1250 0.0953
vn -0.9282 0.3376 0.1562
vn 0.9280 -0.3375 -0.1579
vn 0.4820 0.6116 0.6274
vn 0.9551 0.1272 0.2678
vn -0.1702 0.9541 -0.2463
vn 0.0051 -0.9907 -0.1361
vn -0.9825 0.1566 0.1010
vn 0.9795 -0.0115 0.2010
vn -0.9791 0.1972 -0.0490
vn -0.9481 0.3026 0.0979
vn 0.9170 -0.3660 -0.1583
vn 0.4691 0.4672 0.7494
vn 0.6658 -0.5617 -0.4910
vn -0.5017 0.8137 0.2937
vn -0.2227 0.8706 0.4388
vn -0.7264 -0.6839 -0.0679
vn 0.7018 -0.6741 -0.2305
vn -0.2589 -0.7683 -0.5854
vn 0.9677 -0.2070 -0.1438
vn -0.9788 0.1991 -0.0480
vn -0.9316 0.3581 0.0624
vn 0.9235 -0.3393 -0.1791
vn 0.9943 -0.0851 -0.0636
vn -0.2386 -0.6658 -0.7069
vn -0.6366 0.5507 0.5400
vn 0.0434 0.5728 0.8185
vn -0.6985 -0.4189 -0.5802
vn -0.1207 -0.5791 0.8063
vn -0.1015 -0.5601 0.8222
vn -0.1073 -0.5478 0.8297
vn -0.1176 -0.5830 0.8039
vn -0.1173 -0.5596 0.8204
vn -0.1037 -0.5484 0.8298
vn -0.7590 0.6248 0.1833
vn -0.8743 0.4809 0.0660
vn -0.6810 -0.5414 -0.4931
vn 0.6652 -0.6355 -0.3918
vn 0.6765 -0.6130 -0.4081
vn -0.6864 -0.5371 -0.4903
vn 0.1063 0.8921 0.4392
vn -0.6578 0.7112 0.2479
vn 0.5177 0.7693 0.3743
vn 0.9216 -0.3171 -0.2236
vn -0.9295 0.3681 0.0224
vn -0.9712 0.2241 -0.0808
vn 0.9875 -0.0895 -0.1300
vn -0.2607 -0.7768 -0.5733
vn 0.5032 0.7100 0.4927
vn 0.1015 0.8418 0.5302
vn 0.3680 0.8548 -0.3659
vn -0.1208 -0.5943 0.7951
vn 0.1508 0.9228 -0.3545
vn -0.1250 -0.5941 0.7946
vn 0.9882 0.0862 0.1263
vn 0.9317 0.0556 -0.3590
vn 0.9890 -0.1444 0.0323
vn 0.9394 0.3419 0.0247
vn 0.5824 -0.7414 0.3334
vn 0.5355 0.8444 0.0143
vn 0.9885 -0.1506 -0.0103
vn 0.1997 0.9750 -0.0971
vn -0.9621 -0.2681 -0.0502
vn -0.3507 0.7848 -0.5109
vn -0.2588 -0.9658 0.0181
vn 0.9903 -0.1391 -0.0030
vn 0.0565 0.9851 -0.1623
vn -0.5701 0.8134 -0.1159
vn -0.9689 0.0630 -0.2392
vn -0.0726 -0.9952 -0.0649
vn -0.3041 0.9318 0.1980
vn -0.9325 -0.3484 -0.0950
vn 0.9984 0.0418 0.0377
vn -0.9862 0.1649 0.0120
vn 0.5035 -0.8627 0.0473
vn 0.1310 0.8419 -0.5236
vn 0.9620 0.2481 -0.1141
vn -0.9824 0.1086 -0.1521
vn -0.0055 0.1989 -0.9800
vn 0.0459 0.2190 -0.9746
vn 0.0307 0.2793 -0.9597
vn -0.0030 0.2648 -0.9643
vn -0.9960 -0.0768 -0.0447
vn 0.9524 -0.3048 -0.0083
vn 0.1117 0.9697 0.2173
vn 0.9526 0.2914 0.0874
vn 0.9488 0.2468 0.1972
vn 0.1176 0.9537 0.2769
vn 0.3835 -0.9198 -0.0824
vn -0.9501 -0.2441 0.1945
vn -0.9809 0.1085 0.1617
vn 0.9661 -0.1211 0.2282
vn -0.2146 -0.9677 -0.1326
vn -0.3155 0.9061 0.2819
vn -0.2307 -0.9689 -0.0898
vn 0.4107 -0.9106 -0.0454
vn -0.1701 -0.7868 0.5933
vn 0.0568 0.1865 -0.9808
vn 0.2585 -0.7703 0.5829
vn -0.0058 0.1754 -0.9845
vn -0.3349 0.9391 -0.0777
vn -0.2822 -0.8337 -0.4747
vn 0.9887 -0.1158 -0.0954
vn -0.9837 0.1637 -0.0746
vn -0.9631 -0.2231 -0.1507
vn 0.4890 -0.7550 -0.4368
vn 0.1333 0.9893 -0.0600
vn 0.9584 0.2848 -0.0190
vn 0.3312 0.3186 -0.8881
vn 0.4231 -0.7957 -0.4335
vn 0.3541 0.4472 -0.8214
vn 0.2246 0.6450 -0.7304
vn 0.2505 -0.0558 -0.9665
vn 0.2876 0.3061 -0.9075
vn 0.9582 0.2276 -0.1735
vn 0.9301 0.3626 -0.0594
vn 0.9961 0.0290 -0.0835
vn 0.9000 0.4358 0.0084
vn -0.5826 0.7843 -0.2131
vn 0.7682 0.4228 -0.4808
vn 0.8137 -0.5182 0.2634
vn 0.5248 0.7525 -0.3980
vn -0.2260 0.9494 -0.2180
vn 0.9114 0.1357 -0.3885
vn 0.9411 -0.3349 -0.0461
vn 0.2491 -0.3612 -0.8986
vn -0.0554 0.4452 0.8937
vn 0.0402 0.4331 0.9005
vn -0.0205 0.4457 0.8949
vn 0.0173 0.4118 0.9111
vn 0.0107 0.4568 0.8895
vn 0.0480 0.4011 0.9148
vn -0.0325 0.4033 0.9145
vn 0.0581 0.4523 0.8900
vn 0.0075 0.4447 0.8956
vn 0.0190 0.4834 0.8752
vn 0.1764 0.0432 0.9834
vn -0.0219 0.4670 0.8840
vn 0.3034 0.1064 0.9469
vn -0.3997 0.6963 0.5962
vn -0.4030 0.5332 0.7438
vn -0.1357 0.1369 0.9812
vn 0.7302 0.5697 0.3772
vn -0.2005 0.1875 0.9616
vn -0.5043 0.6260 0.5948
vn 0.0345 0.0665 0.9972
vn 0.3337 0.9408 -0.0598
vn 0.5388 0.1996 0.8185
vn 0.5330 0.1342 0.8354
vn -0.0131 0.6876 0.7260
vn 0.0250 -0.1381 0.9901
vn -0.0211 0.9534 -0.3009
vn 0.7627 0.4152 0.4958
vn 0.9124 -0.3784 -0.1557
vn -0.3651 0.8422 -0.3968
vn -0.9351 -0.3137 -0.1649
vn -0.9909 0.1063 -0.0827
vn -0.9894 0.0241 0.1429
vn -0.9403 -0.3342 0.0641
vn -0.9553 -0.2721 0.1160
vn 0.2592 -0.9037 0.3409
vn -0.0418 -0.9054 -0.4225
vn 0.0125 -0.9999 -0.0035
vn -0.0945 0.9919 -0.0852
vn -0.2685 0.9423 0.2000
vn -0.0024 0.9487 -0.3161
vn 0.1046 0.5263 -0.8438
vn 0.2423 -0.5367 -0.8082
vn -0.6606 -0.0996 0.7441
vn 0.1415 0.5476 -0.8247
vn 0.5511 0.5471 -0.6300
vn 0.0435 0.7667 -0.6405
vn 0.0244 -0.3361 -0.9415
vn -0.9136 0.4033 -0.0528
vn -0.8527 -0.5164 -0.0785
vn -0.2665 0.9609 0.0753
vn -0.9957 0.0322 0.0867
vn -0.1247 -0.9783 -0.1653
vn -0.1781 0.9740 0.1397
vn -0.1111 0.9529 -0.2822
vn 0.8898 -0.4553 -0.0322
vn -0.8095 -0.0207 -0.5867
vn -0.1862 0.8796 0.4378
vn -0.9059 0.3967 -0.1480
vn -0.6892 -0.7059 -0.1633
vn 0.0387 0.8716 -0.4887
vn 0.8520 0.5020 0.1488
vn -0.2193 -0.7682 0.6014
vn 0.0071 -0.9234 0.3839
vn 0.0776 -0.8808 -0.4671
vn -0.0514 -0.9977 0.0436
vn 0.1093 0.9577 0.2663
vn -0.8674 0.3031 -0.3945
vn -0.3952 0.9155 -0.0751
vn -0.9314 -0.2975 0.2097
vn -0.3708 -0.8944 0.2500
vn -0.4203 0.8737 0.2448
vn -0.2268 0.9699 0.0889
vn -0.0141 0.8948 -0.4463
vn -0.6874 0.1737 0.7052
vn -0.5042 -0.8636 -0.0054
vn -0.9048 0.1209 -0.4083
vn 0.2425 0.2441 -0.9389
vn -0.9918 0.1239 -0.0322
vn -0.9412 0.2439 -0.2338
vn -0.2284 0.9573 -0.1770
vn 0.6682 0.7309 0.1386
vn -0.9762 0.1726 0.1317
vn -0.4422 0.8953 0.0533
vn -0.3512 0.9362 0.0131
vn -0.9825 0.1635 -0.0894
vn -0.3394 0.8830 -0.3243
vn -0.0891 0.9844 -0.1515
vn -0.1718 -0.8977 0.4057
vn -0.9718 -0.2063 0.1137
vn -0.2754 0.8896 0.3643
vn -0.1529 0.9332 -0.3252
vn 0.0203 0.9870 0.1597
vn -0.0466 0.7185 -0.6939
vn -0.8331 0.0999 0.5440
vn -0.2219 -0.8405 0.4944
vn -0.4249 -0.8663 0.2626
vn -0.1874 -0.9018 0.3895
vn -0.9465 -0.3172 -0.0592
vn -0.5334 -0.6206 -0.5748
vn -0.8728 -0.2530 0.4174
vn -0.3405 -0.7650 0.5466
vn -0.3165 -0.8862 0.3383
vn -0.3125 0.9153 0.2543
vn -0.3860 0.9083 -0.1610
vn -0.7462 0.4935 0.4467
vn -0.4586 0.8875 -0.0442
vn -0.1603 -0.9021 0.4006
vn -0.1873 -0.4802 0.8570
vn -0.8763 0.3104 0.3684
vn -0.3876 0.8629 -0.3244
vn -0.3658 0.9005 0.2351
vn -0.1320 -0.8724 0.4706
vn -0.3991 0.9025 0.1617
vn -0.1709 -0.9093 0.3795
vn -0.5213 0.5577 0.6459
vn -0.1588 -0.8925 0.4221
vn -0.3960 -0.5000 0.7702
vn 0.3151 0.2893 0.9039
vn 0.0256 0.9934 0.1116
vn -0.1908 -0.9048 0.3807
vn -0.9724 -0.1638 0.1664
vn -0.0218 0.1314 0.9911
vn -0.0419 0.9987 0.0294
vn -0.6179 0.5012 0.6058
vn -0.1554 -0.9009 0.4053
vn 0.1504 0.6748 0.7225
vn -0.4444 0.8951 -0.0358
vn -0.3173 0.5870 0.7448
vn -0.0534 -0.7568 0.6514
vn -0.3347 -0.5834 0.7400
vn -0.7752 0.0809 0.6265
vn -0.3871 0.8886 0.2459
vn -0.1599 -0.9058 0.3923
vn -0.8383 0.4075 0.3621
vn 0.0338 0.9726 0.2302
vn -0.2342 -0.8801 0.4130
vn -0.8777 -0.0909 0.4704
vn -0.7201 -0.6905 -0.0682
vn -0.9751 0.0102 -0.2214
vn -0.9746 -0.0372 -0.2209
vn -0.8990 0.4378 0.0099
vn -0.9051 -0.4062 -0.1254
vn -0.9947 0.0133 -0.1023
vn -0.8275 0.5601 0.0398
vn -0.9315 0.2413 0.2721
vn 0.6156 0.7868 -0.0435
vn 0.2891 0.9047 0.3131
vn 0.4354 -0.8906 -0.1313
vn -0.9804 -0.1002 0.1694
vn 0.9520 0.2866 0.1079
vn 0.8575 0.4864 0.1678
vn -0.8573 -0.4862 -0.1694
vn -0.5846 0.5228 0.6205
vn -0.9663 -0.0328 0.2553
vn 0.0159 0.9695 -0.2445
vn 0.1499 -0.9798 -0.1324
vn 0.9407 0.3194 0.1145
vn -0.9666 -0.1736 0.1884
vn 0.9335 0.3566 -0.0366
vn 0.8836 0.4552 0.1098
vn -0.8417 -0.5125 -0.1697
vn -0.5496 0.3823 0.7428
vn -0.5574 -0.6636 -0.4989
vn 0.3563 0.8851 0.2993
vn 0.0699 0.8949 0.4407
vn 0.8304 -0.5542 -0.0578
vn -0.5776 -0.7806 -0.2387
vn 0.3900 -0.7142 -0.5812
vn -0.9182 -0.3641 -0.1560
vn 0.9329 0.3584 -0.0356
vn 0.8586 0.5073 0.0740
vn -0.8522 -0.4872 -0.1906
vn -0.9657 -0.2483 -0.0763
vn 0.3546 -0.6164 -0.7031
vn 0.5297 0.6478 0.5475
vn -0.1481 0.5569 0.8173
vn 0.7656 -0.2969 -0.5707
vn 0.2045 -0.5520 0.8084
vn 0.1822 -0.5365 0.8240
vn 0.1858 -0.5234 0.8316
vn 0.2021 -0.5564 0.8060
vn 0.1977 -0.5334 0.8224
vn 0.1824 -0.5246 0.8316
vn 0.6427 0.7416 0.1923
vn 0.7818 0.6188 0.0768
vn 0.7675 -0.4207 -0.4838
vn -0.5458 -0.7364 -0.3997
vn -0.5605 -0.7160 -0.4161
vn 0.7721 -0.4156 -0.4809
vn -0.2581 0.8617 0.4368
vn 0.5279 0.8100 0.2556
vn -0.6427 0.6727 0.3668
vn -0.8535 -0.4650 -0.2351
vn 0.8554 0.5168 0.0339
vn 0.9217 0.3818 -0.0685
vn -0.9573 -0.2515 -0.1426
vn 0.3930 -0.7223 -0.5691
vn -0.6200 0.6164 0.4854
vn -0.2461 0.8128 0.5280
vn -0.4996 0.7825 -0.3716
vn 0.2073 -0.5670 0.7972
vn -0.2968 0.8855 -0.3574
vn 0.2113 -0.5661 0.7968
vn -0.9959 0.0769 -0.0466
vn -0.8555 0.0484 -0.5155
vn -0.9787 -0.1512 -0.1386
vn -0.9404 0.3150 -0.1278
vn -0.6523 -0.7315 0.1983
vn -0.5444 0.8354 -0.0751
vn -0.9706 -0.1567 -0.1825
vn -0.1980 0.9723 -0.1245
vn 0.9577 -0.2621 0.1185
vn 0.4295 0.7873 -0.4424
vn 0.2578 -0.9641 0.0635
vn -0.9737 -0.1454 -0.1755
vn -0.0335 0.9848 -0.1702
vn 0.5799 0.8146 -0.0131
vn 0.9952 0.0751 -0.0619
vn 0.0890 -0.9947 -0.0507
vn 0.2591 0.9336 0.2475
vn 0.9370 -0.3425 0.0692
vn -0.9899 0.0355 -0.1370
vn 0.9680 0.1711 0.1837
vn -0.4986 -0.8659 -0.0407
vn -0.0430 0.8413 -0.5388
vn -0.9289 0.2422 -0.2802
vn 0.9932 0.1148 0.0215
vn 0.1751 0.1995 -0.9641
vn 0.1234 0.2193 -0.9678
vn 0.1353 0.2797 -0.9505
vn 0.1694 0.2654 -0.9491
vn 0.9890 -0.0705 0.1297
vn -0.9344 -0.3108 -0.1741
vn -0.1540 0.9688 0.1940
vn -0.9551 0.2853 -0.0803
vn -0.9702 0.2408 0.0286
vn -0.1701 0.9528 0.2516
vn -0.3575 -0.9222 -0.1475
vn 0.9031 -0.2383 0.3573
vn 0.9370 0.1145 0.3302
vn -0.9903 -0.1273 0.0563
vn 0.2405 -0.9662 -0.0926
vn 0.2558 0.9079 0.3321
vn 0.2488 -0.9674 -0.0477
vn -0.3908 -0.9132 -0.1158
vn 0.0690 -0.7860 0.6143
vn 0.1140 0.1867 -0.9758
vn -0.3514 -0.7722 0.5293
vn 0.1763 0.1760 -0.9685
vn 0.3374 0.9412 -0.0187
vn 0.3658 -0.8316 -0.4178
vn -0.9562 -0.1219 -0.2662
vn 0.9806 0.1699 0.0980
vn 0.9760 -0.2170 0.0197
vn -0.4006 -0.7579 -0.5149
vn -0.1270 0.9884 -0.0828
vn -0.9421 0.2788 -0.1860
vn -0.3337 0.2861 -0.8982
vn -0.4438 -0.8220 -0.3569
vn -0.3474 0.4467 -0.8245
vn -0.2199 0.6458 -0.7312
vn -0.2223 -0.1236 -0.9671
vn -0.2843 0.2824 -0.9162
vn -0.9578 0.2541 -0.1342
vn -0.9285 0.3698 -0.0346
vn -0.9965 0.0479 -0.0686
vn -0.8910 0.4537 0.0189
vn 0.5864 0.7712 -0.2479
vn -0.7698 0.4327 -0.4693
vn -0.8121 -0.5095 0.2846
vn -0.5185 0.7592 -0.3934
vn 0.2413 0.9424 -0.2317
vn -0.9159 0.1468 -0.3735
vn -0.9450 -0.3256 -0.0293
vn -0.2734 -0.3600 -0.8920
vn 0.0716 0.4491 0.8906
vn -0.0175 0.4341 0.9007
vn 0.0431 0.4453 0.8943
vn 0.0045 0.4134 0.9105
vn 0.0107 0.4590 0.8884
vn -0.0260 0.4025 0.9151
vn 0.0498 0.4016 0.9144
vn -0.0376 0.4578 0.8883
vn 0.0147 0.4489 0.8935
vn -0.0023 0.4763 0.8793
vn -0.1582 0.0451 0.9864
vn 0.0428 0.4724 0.8803
vn -0.2863 0.1096 0.9519
vn 0.4180 0.6979 0.5816
vn 0.4222 0.5323 0.7338
vn 0.1546 0.1351 0.9787
vn -0.7197 0.5826 0.3776
vn 0.2203 0.1855 0.9576
vn 0.5203 0.6291 0.5775
vn -0.0173 0.0663 0.9976
vn -0.3048 0.9508 -0.0552
vn -0.5203 0.2162 0.8261
vn -0.5164 0.1507 0.8430
vn 0.0452 0.6866 0.7256
vn -0.0150 -0.1375 0.9904
vn 0.0467 0.9524 -0.3013
vn -0.7421 0.4388 0.5067
vn 0.8946 -0.2710 0.3554
vn 0.9984 0.0287 0.0478
vn 0.7249 -0.5614 0.3992
vn 0.0929 -0.9552 -0.2811
vn 0.0243 -0.8133 -0.5813
vn 0.9415 0.3359 -0.0287
vn 0.6973 0.2955 0.6531
vn 0.3481 -0.1935 0.9173
vn -0.6200 -0.5890 -0.5183
vn -0.4331 -0.4087 -0.8033
vn 0.8021 0.4717 0.3662
vn 0.6067 0.3113 0.7315
vn -0.3993 -0.5824 0.7081
vn -0.6403 -0.4657 -0.6108
vn -0.3682 -0.2574 -0.8934
vn 0.4621 0.7061 0.5365
vn 0.2575 0.5471 0.7965
vn -0.9984 -0.0287 -0.0478
vn -0.7669 -0.1352 -0.6274
vn -0.4441 0.5485 -0.7085
vn -0.7249 0.5614 -0.3992
vn -0.6824 0.3000 -0.6666
vn -0.6998 -0.0178 -0.7141
vn -0.8946 0.2711 -0.3554
vn -0.8597 -0.0484 -0.5084
vn -0.8856 -0.1652 -0.4340
vn -0.7100 0.6429 0.2874
vn -0.7703 0.4415 0.4601
vn -0.1599 0.4937 0.8548
vn -0.0243 0.8133 0.5814
vn 0.2688 0.6548 0.7064
vn 0.4318 0.6116 0.6629
vn -0.0929 0.9552 0.2811
vn 0.2702 0.8935 0.3587
vn 0.2352 0.9717 0.0227
vn -0.3481 0.1934 -0.9173
vn -0.4707 -0.1185 -0.8743
vn -0.5932 -0.1669 -0.7876
vn -0.6973 -0.2955 -0.6531
vn -0.7079 -0.3740 -0.5992
vn -0.7860 -0.3509 -0.5090
vn -0.9415 -0.3359 0.0287
vn -0.6261 -0.2631 0.7340
vn -0.0621 0.2120 0.9753
vn 0.4331 0.4087 0.8033
vn 0.5375 0.4019 0.7413
vn 0.5469 0.4797 0.6862
vn 0.6200 0.5890 0.5183
vn 0.6960 0.6083 0.3815
vn 0.6060 0.7879 0.1097
vn -0.6067 -0.3113 -0.7315
vn -0.5374 -0.4020 -0.7413
vn -0.5469 -0.4797 -0.6862
vn -0.8021 -0.4717 -0.3662
vn -0.6959 -0.6084 -0.3815
vn -0.6060 -0.7879 -0.1097
vn 0.3682 0.2574 0.8934
vn 0.4707 0.1185 0.8743
vn 0.5932 0.1669 0.7876
vn 0.6404 0.4657 0.6108
vn 0.7079 0.3740 0.5992
vn 0.7860 0.3509 0.5090
vn 0.3993 0.5824 -0.7081
vn 0.6261 0.2631 -0.7340
vn 0.0621 -0.2120 -0.9753
vn -0.2575 -0.5471 -0.7965
vn -0.2688 -0.6548 -0.7064
vn -0.4318 -0.6116 -0.6629
vn -0.4621 -0.7061 -0.5365
vn -0.2702 -0.8935 -0.3587
vn -0.2352 -0.9717 -0.0227
vn 0.4441 -0.5485 0.7085
vn 0.6824 -0.3000 0.6666
vn 0.6998 0.0178 0.7141
vn 0.1599 -0.4938 -0.8548
vn 0.7703 -0.4415 -0.4601
vn 0.7099 -0.6429 -0.2874
vn 0.7669 0.1352 0.6274
vn 0.8597 0.0484 0.5084
vn 0.8856 0.1652 0.4340
vn -0.8974 -0.2429 0.3683
vn -0.9963 0.0600 0.0623
vn -0.7363 -0.5385 0.4098
vn -0.1269 -0.9517 -0.2795
vn -0.0583 -0.8120 -0.5808
vn -0.9308 0.3653 -0.0152
vn -0.6781 0.3171 0.6630
vn -0.3406 -0.1827 0.9223
vn 0.5936 -0.6081 -0.5271
vn 0.4084 -0.4220 -0.8094
vn -0.7815 0.4966 0.3777
vn -0.5859 0.3300 0.7401
vn 0.3910 -0.5948 0.7024
vn 0.6165 -0.4854 -0.6199
vn 0.3469 -0.2687 -0.8986
vn -0.4319 0.7201 0.5430
vn -0.2287 0.5547 0.8000
vn 0.9963 -0.0600 -0.0623
vn 0.7531 -0.1591 -0.6384
vn 0.4508 0.5344 -0.7150
vn 0.7363 0.5385 -0.4098
vn 0.6817 0.2786 -0.6765
vn 0.6885 -0.0396 -0.7242
vn 0.8974 0.2429 -0.3683
vn 0.8504 -0.0752 -0.5208
vn 0.8736 -0.1928 -0.4468
vn 0.7339 0.6203 0.2770
vn 0.7904 0.4170 0.4488
vn 0.1877 0.4883 0.8523
vn 0.0583 0.8120 0.5808
vn -0.2379 0.6627 0.7100
vn -0.4028 0.6247 0.6689
vn 0.1269 0.9517 0.2795
vn -0.2368 0.9015 0.3624
vn -0.2042 0.9786 0.0259
vn 0.3407 0.1826 -0.9223
vn 0.4541 -0.1331 -0.8810
vn 0.5762 -0.1852 -0.7960
vn 0.6781 -0.3171 -0.6630
vn 0.6871 -0.3959 -0.6093
vn 0.7672 -0.3752 -0.5202
vn 0.9308 -0.3653 0.0152
vn 0.6281 -0.2828 0.7249
vn 0.0828 0.2097 0.9742
vn -0.4084 0.4220 0.8094
vn -0.5138 0.4185 0.7489
vn -0.5215 0.4965 0.6939
vn -0.5936 0.6081 0.5271
vn -0.6709 0.6298 0.3914
vn -0.5793 0.8065 0.1182
vn 0.5859 -0.3300 -0.7401
vn 0.5138 -0.4185 -0.7489
vn 0.5215 -0.4965 -0.6939
vn 0.7815 -0.4966 -0.3777
vn 0.6709 -0.6298 -0.3914
vn 0.5793 -0.8065 -0.1182
vn -0.3469 0.2686 0.8986
vn -0.4541 0.1331 0.8810
vn -0.5762 0.1852 0.7960
vn -0.6165 0.4854 0.6199
vn -0.6871 0.3959 0.6093
vn -0.7672 0.3753 0.5202
vn -0.3910 0.5948 -0.7023
vn -0.6281 0.2828 -0.7249
vn -0.0829 -0.2097 -0.9742
vn 0.2287 -0.5547 -0.8000
vn 0.2379 -0.6628 -0.7100
vn 0.4028 -0.6247 -0.6689
vn 0.4319 -0.7201 -0.5430
vn 0.2368 -0.9015 -0.3624
vn 0.2042 -0.9786 -0.0259
vn -0.4508 -0.5344 0.7150
vn -0.6817 -0.2786 0.6765
vn -0.6885 0.0396 0.7242
vn -0.1877 -0.4883 -0.8523
vn -0.7904 -0.4170 -0.4488
vn -0.7339 -0.6202 -0.2770
vn -0.7531 0.1591 0.6384
vn -0.8504 0.0752 0.5208
vn -0.8736 0.1928 0.4468
vt 0.833374 0.494548
vt 0.893919 0.512741
vt 0.908415 0.468160
vt 0.848637 0.467455
vt 0.567859 0.867914
vt 0.639317 0.828812
vt 0.620915 0.894044
vt 0.556155 0.927906
vt 0.812683 0.509803
vt 0.774909 0.642712
vt 0.751394 0.643294
vt 0.751725 0.493743
vt 0.828812 0.793372
vt 0.751727 0.811870
vt 0.672932 0.807420
vt 0.672336 0.642732
vt 0.672998 0.503429
vt 0.598676 0.643182
vt 0.594201 0.530171
vt 0.560191 0.672195
vt 0.619753 0.672998
vt 0.599703 0.594201
vt 0.569702 0.558226
vt 0.580250 0.833374
vt 0.635423 0.812683
vt 0.637090 0.751725
vt 0.569078 0.759035
vt 0.500000 0.859251
vt 0.500000 0.750726
vt 0.569078 0.758996
vt 0.500000 0.657595
vt 0.560191 0.671923
vt 0.604420 0.951058
vt 0.545714 0.976119
vt 0.604420 0.548422
vt 0.626365 0.643481
vt 0.688416 0.643970
vt 0.666902 0.547256
vt 0.500000 0.917421
vt 0.563590 0.893919
vt 0.639317 0.793372
vt 0.659328 0.642712
vt 0.676970 0.643370
vt 0.671449 0.761101
vt 0.555994 0.632181
vt 0.545714 0.747180
vt 0.604420 0.735145
vt 0.572975 0.538591
vt 0.666902 0.715601
vt 0.500000 0.969030
vt 0.572975 0.947229
vt 0.501290 0.830086
vt 0.457158 0.830118
vt 0.460328 0.806630
vt 0.500288 0.803578
vt 0.499838 0.512886
vt 0.460007 0.507514
vt 0.481582 0.413128
vt 0.510774 0.417065
vt 0.500000 0.559830
vt 0.556447 0.575135
vt 0.579931 0.796381
vt 0.599703 0.530171
vt 0.637090 0.643182
vt 0.659115 0.643738
vt 0.643940 0.535244
vt 0.564556 0.492909
vt 0.500000 0.477524
vt 0.500000 0.432743
vt 0.566016 0.447361
vt 0.569702 0.518348
vt 0.616981 0.429733
vt 0.594994 0.421068
vt 0.612448 0.796381
vt 0.637526 0.771615
vt 0.500000 0.371229
vt 0.561082 0.382998
vt 0.450625 0.491920
vt 0.495971 0.498202
vt 0.507939 0.406303
vt 0.474705 0.401699
vt 0.591615 0.535244
vt 0.575831 0.433451
vt 0.407144 0.499901
vt 0.406490 0.640437
vt 0.358675 0.605643
vt 0.363238 0.556600
vt 0.578790 0.420824
vt 0.621227 0.407144
vt 0.601979 0.363238
vt 0.551080 0.357545
vt 0.500000 0.657756
vt 0.500000 0.571782
vt 0.667216 0.508652
vt 0.621227 0.499901
vt 0.632756 0.407548
vt 0.666461 0.413961
vt 0.556577 0.771615
vt 0.637090 0.751727
vt 0.260484 0.580516
vt 0.278839 0.520364
vt 0.582070 0.278839
vt 0.540875 0.268345
vt 0.619753 0.672932
vt 0.500000 0.307117
vt 0.551080 0.314473
vt 0.500000 0.983839
vt 0.393435 0.816867
vt 0.325561 0.763148
vt 0.671449 0.517077
vt 0.635423 0.509803
vt 0.642381 0.470278
vt 0.671266 0.470798
vt 0.988807 0.740196
vt 1.002924 0.661469
vt 1.015365 0.669173
vt 1.001496 0.721513
vt 0.500000 0.531683
vt 0.500000 0.631036
vt 0.249130 0.712570
vt 0.191059 0.679456
vt 0.198981 0.567653
vt 0.945839 0.547256
vt 0.886123 0.529161
vt 0.904522 0.470747
vt 0.963512 0.471464
vt 0.500000 0.238897
vt 0.540875 0.239236
vt 0.564556 0.495971
vt 0.612448 0.579931
vt 0.628268 0.501290
vt 0.631115 0.457158
vt 0.168698 0.648799
vt 0.177283 0.553376
vt 0.539817 0.181283
vt 0.500000 0.184290
vt 0.500000 0.144817
vt 0.539817 0.140934
vt 0.580006 0.205473
vt 0.539817 0.196322
vt 0.205473 0.476864
vt 0.621491 0.393435
vt 0.538703 0.608225
vt 0.500000 0.615960
vt 0.500000 0.567098
vt 0.526605 0.560962
vt 0.566016 0.450625
vt 0.149293 0.452102
vt 0.133162 0.541160
vt 0.103583 0.505809
vt 0.123733 0.441345
vt 0.539531 0.141037
vt 0.579447 0.149293
vt 0.562090 0.123733
vt 0.530633 0.116366
vt 0.500000 0.385014
vt 0.500000 0.353218
vt 0.586057 0.174337
vt 0.542919 0.165879
vt 0.174337 0.464471
vt 0.086614 0.427976
vt 0.065909 0.448336
vt 0.053210 0.428901
vt 0.071388 0.423606
vt 0.515797 0.085531
vt 0.531484 0.086614
vt 0.523242 0.071388
vt 0.510720 0.071544
vt 0.500000 0.266808
vt 0.601979 0.325561
vt 0.582070 0.249130
vt 0.108290 0.599988
vt 0.073849 0.556649
vt 0.580006 0.679456
vt 0.539817 0.690304
vt 0.539817 0.657159
vt 0.579599 0.648799
vt 0.500000 0.199929
vt 0.513331 0.045311
vt 0.500000 0.046647
vt 0.500000 0.069896
vt 0.051602 0.475706
vt 0.038205 0.462176
vt 0.038356 0.442272
vt 0.580006 0.191059
vt 0.577833 0.599988
vt 0.554232 0.556649
vt 0.500000 0.147087
vt 0.500000 0.124516
vt 0.530339 0.475706
vt 0.515210 0.477146
vt 0.513246 0.460736
vt 0.522445 0.462176
vt 0.500000 0.170521
vt 0.515546 0.457928
vt 0.507613 0.457080
vt 0.506877 0.445401
vt 0.514439 0.446199
vt 0.500000 0.089031
vt 0.528336 0.053210
vt 0.620841 0.601238
vt 0.618568 0.607555
vt 0.613078 0.604170
vt 0.614718 0.599612
vt 0.500000 0.479371
vt 0.500000 0.460095
vt 0.513331 0.424258
vt 0.512541 0.440917
vt 0.500000 0.440864
vt 0.500000 0.422187
vt 0.500000 0.664242
vt 0.576432 0.505809
vt 0.539481 0.507406
vt 0.547321 0.467354
vt 0.500000 0.513551
vt 0.519044 0.508271
vt 0.579599 0.168698
vt 0.538703 0.096221
vt 0.577833 0.108290
vt 0.520322 0.097153
vt 0.500000 0.106427
vt 0.541975 0.104341
vt 0.078394 0.467354
vt 0.104341 0.437145
vt 0.073220 0.507406
vt 0.590300 0.643738
vt 0.499630 0.641384
vt 0.459655 0.640419
vt 0.417546 0.774144
vt 0.414448 0.641253
vt 0.423095 0.508652
vt 0.621491 0.816867
vt 0.648114 0.640437
vt 0.669097 0.641253
vt 0.644267 0.774144
vt 0.578790 0.496630
vt 0.601625 0.405151
vt 0.649402 0.433451
vt 0.651726 0.367843
vt 0.620780 0.366797
vt 0.454529 0.413961
vt 0.467814 0.368189
vt 0.488225 0.366596
vt 0.561691 0.421068
vt 0.537425 0.365401
vt 0.507200 0.363509
vt 0.481273 0.364028
vt 0.510983 0.366114
vt 0.635806 0.367147
vt 0.669092 0.368189
vt 0.420824 0.496630
vt 0.452865 0.405151
vt 0.558226 0.518348
vt 0.484328 0.324872
vt 0.502799 0.322553
vt 0.547406 0.321655
vt 0.519920 0.320969
vt 0.496410 0.322232
vt 0.523434 0.321439
vt 0.639292 0.324944
vt 0.675657 0.324872
vt 0.550036 0.367843
vt 0.558926 0.322330
vt 0.465216 0.366023
vt 0.604868 0.366023
vt 0.599660 0.365401
vt 0.621651 0.293283
vt 0.658462 0.293469
vt 0.659368 0.261742
vt 0.621257 0.261665
vt 0.501495 0.293600
vt 0.482345 0.307625
vt 0.480362 0.262732
vt 0.500191 0.261781
vt 0.519246 0.292376
vt 0.547742 0.292993
vt 0.548078 0.261464
vt 0.518571 0.260916
vt 0.494871 0.293528
vt 0.493332 0.261956
vt 0.522889 0.292587
vt 0.522344 0.260869
vt 0.451756 0.288897
vt 0.449773 0.262732
vt 0.656778 0.322330
vt 0.622394 0.322035
vt 0.481902 0.324350
vt 0.605664 0.324350
vt 0.599057 0.321655
vt 0.595403 0.548078
vt 0.621257 0.561263
vt 0.645824 0.523009
vt 0.590945 0.518571
vt 0.639859 0.470735
vt 0.648324 0.498544
vt 0.685407 0.500191
vt 0.686261 0.480362
vt 0.592251 0.493332
vt 0.659368 0.560446
vt 0.683143 0.522344
vt 0.596433 0.477757
vt 0.479829 0.307317
vt 0.477757 0.262636
vt 0.447168 0.262636
vt 0.449241 0.288588
vt 0.596679 0.292993
vt 0.595403 0.261464
vt 0.559686 0.293469
vt 0.560446 0.261742
vt 0.603589 0.307317
vt 0.640355 0.307779
vt 0.679739 0.307625
vt 0.677932 0.288897
vt 0.639680 0.289050
vt 0.639859 0.262967
vt 0.679465 0.262732
vt 0.604354 0.288588
vt 0.603287 0.262636
vt 0.679739 0.482345
vt 0.640355 0.473048
vt 0.639680 0.442459
vt 0.677932 0.451756
vt 0.679465 0.449773
vt 0.639859 0.440146
vt 0.603589 0.479829
vt 0.604354 0.449241
vt 0.603287 0.447168
vt 0.841501 0.761101
vt 0.796910 0.643370
vt 0.906455 0.644155
vt 0.894416 0.742499
vt 0.957194 0.643970
vt 0.829265 0.517077
vt 0.940741 0.715601
vt 0.671449 0.841501
vt 0.669190 0.894416
vt 0.849398 0.470798
vt 0.666902 0.940741
vt 0.909364 0.402088
vt 0.855378 0.389954
vt 0.592313 0.470184
vt 0.617524 0.471308
vt 0.621192 0.417417
vt 0.598226 0.414426
vt 0.598146 0.467455
vt 0.603540 0.389954
vt 0.643835 0.389418
vt 0.855424 0.393127
vt 0.905341 0.403681
vt 0.667620 0.471464
vt 0.947229 0.538591
vt 0.963044 0.470184
vt 0.580250 0.494548
vt 0.595712 0.312254
vt 0.621272 0.312916
vt 0.622837 0.264476
vt 0.597277 0.263453
vt 0.852894 0.313492
vt 0.849695 0.260671
vt 0.818572 0.260902
vt 0.821566 0.286829
vt 0.893654 0.314609
vt 0.853541 0.316407
vt 0.850246 0.263617
vt 0.890422 0.263754
vt 0.896415 0.312211
vt 0.936226 0.312254
vt 0.933075 0.263453
vt 0.893263 0.261490
vt 0.670148 0.393127
vt 0.666826 0.415674
vt 0.958612 0.415674
vt 0.958434 0.414426
vt 0.649700 0.837975
vt 0.635627 0.887710
vt 0.686058 0.890422
vt 0.687133 0.850246
vt 0.592375 0.849695
vt 0.589648 0.893263
vt 0.597277 0.933075
vt 0.622837 0.940554
vt 0.673628 0.933416
vt 0.822213 0.289744
vt 0.819123 0.263848
vt 0.672063 0.313364
vt 0.673628 0.264581
vt 0.936602 0.313364
vt 0.933416 0.264581
vt 0.941647 0.364922
vt 0.899640 0.363406
vt 0.623001 0.364960
vt 0.665562 0.364922
vt 0.668659 0.362549
vt 0.644119 0.361871
vt 0.647700 0.316485
vt 0.685132 0.316407
vt 0.859879 0.359936
vt 0.902447 0.361457
vt 0.941330 0.363919
vt 0.860378 0.362549
vt 0.606538 0.359936
vt 0.590374 0.313492
vt 0.601582 0.363919
vt 0.646474 0.289822
vt 0.601626 0.286829
vt 0.603191 0.260902
vt 0.648039 0.263334
vt 0.675760 0.289744
vt 0.677325 0.263848
vt 0.647700 0.841274
vt 0.590374 0.852894
vt 0.601626 0.821566
vt 0.646474 0.809945
vt 0.648039 0.806852
vt 0.603191 0.818572
vt 0.685132 0.853541
vt 0.675760 0.822213
vt 0.677325 0.819123
vt 0.500000 0.668378
vt 0.500000 0.724779
vt 0.517225 0.721513
vt 0.520785 0.669173
vt 0.528698 1.002924
vt 0.500000 1.014901
vt 0.500000 1.025182
vt 0.520785 1.015365
vt 0.500000 0.744181
vt 0.519989 0.740196
vt 0.519989 0.988807
vt 0.500000 0.995348
vt 0.500000 0.660499
vt 0.528698 0.661469
vt 0.154177 0.616909
vt 0.166410 0.570048
vt 0.135838 0.608740
vt 0.149154 0.567675
vt 0.147623 0.572395
vt 0.137518 0.603560
vt 0.583783 0.154177
vt 0.583848 0.135838
vt 0.600568 0.131366
vt 0.597073 0.144428
vt 0.144166 0.612314
vt 0.141084 0.620214
vt 0.132632 0.614576
vt 0.134671 0.609983
vt 0.153028 0.593819
vt 0.141399 0.592146
vt 0.619182 0.132632
vt 0.614588 0.141084
vt 0.606252 0.140479
vt 0.610351 0.130579
vt 0.138199 0.601250
vt 0.148213 0.603179
vt 0.602487 0.570048
vt 0.583783 0.616909
vt 0.597073 0.624463
vt 0.606252 0.625520
vt 0.614588 0.620214
vt 0.620822 0.612314
vt 0.623703 0.603179
vt 0.620639 0.593819
vt 0.604695 0.577238
vt 0.601269 0.572395
vt 0.603531 0.567675
vt 0.609313 0.614171
vt 0.615687 0.610750
vt 0.619182 0.614576
vt 0.610351 0.619358
vt 0.602434 0.613212
vt 0.600568 0.617961
vt 0.626402 0.601250
vt 0.623276 0.609983
vt 0.618527 0.594500
vt 0.623272 0.592146
vt 0.590602 0.606787
vt 0.583848 0.608740
vt 0.592903 0.603615
vt 0.603070 0.582298
vt 0.613048 0.594751
vt 0.610999 0.606475
vt 0.606401 0.608943
vt 0.601438 0.608251
vt 0.586331 0.603560
vt 0.600598 0.578805
vt 0.589822 0.601288
vt 0.148133 0.578805
vt 0.140843 0.601288
vt 0.522445 0.038205
vt 0.513246 0.032036
vt 0.507613 0.025182
vt 0.515546 0.030102
vt 0.521458 0.442272
vt 0.528336 0.428901
vt 0.500000 0.456702
vt 0.500000 0.445370
vt 0.500000 0.031689
vt 0.512541 0.032373
vt 0.506877 0.025742
vt 0.500000 0.025886
vt 0.500000 0.031337
vt 0.500000 0.025479
vt 0.030102 0.457928
vt 0.030515 0.446199
vt 0.432141 0.867914
vt 0.443845 0.927906
vt 0.379085 0.894044
vt 0.360683 0.828812
vt 0.439809 0.672195
vt 0.430298 0.558226
vt 0.400297 0.594201
vt 0.380247 0.672998
vt 0.419750 0.833374
vt 0.430922 0.759035
vt 0.362910 0.751725
vt 0.364577 0.812683
vt 0.430922 0.758996
vt 0.439809 0.671923
vt 0.454286 0.976119
vt 0.395580 0.951058
vt 0.395580 0.548422
vt 0.333098 0.547256
vt 0.311584 0.643970
vt 0.373635 0.643481
vt 0.436410 0.893919
vt 0.360683 0.793372
vt 0.328551 0.761101
vt 0.323030 0.643370
vt 0.340672 0.642712
vt 0.444006 0.632181
vt 0.395580 0.735145
vt 0.454286 0.747180
vt 0.427025 0.538591
vt 0.333098 0.715601
vt 0.427025 0.947229
vt 0.443553 0.575135
vt 0.400297 0.530171
vt 0.356060 0.535244
vt 0.340885 0.643738
vt 0.362910 0.643182
vt 0.435444 0.492909
vt 0.433984 0.447361
vt 0.430298 0.518348
vt 0.405006 0.421068
vt 0.383019 0.429733
vt 0.362474 0.771615
vt 0.387552 0.796381
vt 0.438918 0.382998
vt 0.421210 0.420824
vt 0.448920 0.357545
vt 0.398021 0.363238
vt 0.378773 0.407144
vt 0.332784 0.508652
vt 0.333539 0.413961
vt 0.367244 0.407548
vt 0.378773 0.499901
vt 0.362910 0.751727
vt 0.459125 0.268345
vt 0.417930 0.278839
vt 0.380247 0.672932
vt 0.448920 0.314473
vt 0.328551 0.517077
vt 0.328734 0.470798
vt 0.357619 0.470278
vt 0.364577 0.509803
vt 0.459125 0.239236
vt 0.435444 0.495971
vt 0.387552 0.579931
vt 0.371732 0.501290
vt 0.368885 0.457158
vt 0.460183 0.181283
vt 0.460183 0.140934
vt 0.460183 0.196322
vt 0.419994 0.205473
vt 0.378509 0.393435
vt 0.461297 0.608225
vt 0.473395 0.560962
vt 0.433984 0.450625
vt 0.460469 0.141037
vt 0.469367 0.116366
vt 0.437911 0.123733
vt 0.420553 0.149293
vt 0.457081 0.165879
vt 0.413943 0.174337
vt 0.484203 0.085531
vt 0.489280 0.071544
vt 0.476758 0.071388
vt 0.468516 0.086614
vt 0.398021 0.325561
vt 0.417930 0.249130
vt 0.419994 0.679456
vt 0.420401 0.648799
vt 0.460183 0.657159
vt 0.460183 0.690304
vt 0.486669 0.045311
vt 0.419994 0.191059
vt 0.422167 0.599988
vt 0.445768 0.556649
vt 0.469661 0.475706
vt 0.477555 0.462176
vt 0.486754 0.460736
vt 0.484790 0.477146
vt 0.484454 0.457928
vt 0.485561 0.446199
vt 0.493123 0.445401
vt 0.492387 0.457080
vt 0.471665 0.053210
vt 0.379159 0.601238
vt 0.385282 0.599612
vt 0.386922 0.604170
vt 0.381432 0.607555
vt 0.486669 0.424258
vt 0.487459 0.440917
vt 0.423568 0.505809
vt 0.452679 0.467354
vt 0.460520 0.507406
vt 0.480956 0.508271
vt 0.420401 0.168698
vt 0.422167 0.108290
vt 0.461297 0.096221
vt 0.479678 0.097153
vt 0.458025 0.104341
vt 0.378509 0.816867
vt 0.355733 0.774144
vt 0.330903 0.641253
vt 0.351886 0.640437
vt 0.398375 0.405151
vt 0.421210 0.496630
vt 0.379220 0.366797
vt 0.348274 0.367843
vt 0.350598 0.433451
vt 0.330908 0.368189
vt 0.364194 0.367147
vt 0.324343 0.324872
vt 0.360708 0.324944
vt 0.395132 0.366023
vt 0.400340 0.365401
vt 0.378349 0.293283
vt 0.378743 0.261665
vt 0.340632 0.261742
vt 0.341538 0.293469
vt 0.377606 0.322035
vt 0.343222 0.322330
vt 0.394336 0.324350
vt 0.400943 0.321655
vt 0.404597 0.548078
vt 0.409055 0.518571
vt 0.354176 0.523009
vt 0.378743 0.561263
vt 0.360141 0.470735
vt 0.313739 0.480362
vt 0.314593 0.500191
vt 0.351676 0.498544
vt 0.407749 0.493332
vt 0.316857 0.522344
vt 0.340632 0.560446
vt 0.403567 0.477757
vt 0.403321 0.292993
vt 0.404597 0.261464
vt 0.359645 0.307779
vt 0.396411 0.307317
vt 0.320262 0.307625
vt 0.322068 0.288897
vt 0.320535 0.262732
vt 0.360141 0.262967
vt 0.360320 0.289050
vt 0.396713 0.262636
vt 0.395646 0.288588
vt 0.320262 0.482345
vt 0.322068 0.451756
vt 0.360320 0.442459
vt 0.359645 0.473048
vt 0.360141 0.440146
vt 0.320535 0.449773
vt 0.395646 0.449241
vt 0.396411 0.479829
vt 0.396713 0.447168
vt 0.330810 0.894416
vt 0.328551 0.841501
vt 0.333098 0.940741
vt 0.407688 0.470184
vt 0.401774 0.414426
vt 0.378808 0.417417
vt 0.382476 0.471308
vt 0.356165 0.389418
vt 0.396460 0.389954
vt 0.401854 0.467455
vt 0.332380 0.471464
vt 0.419750 0.494548
vt 0.404289 0.312254
vt 0.402723 0.263453
vt 0.377163 0.264476
vt 0.378728 0.312916
vt 0.329852 0.393127
vt 0.333174 0.415674
vt 0.350300 0.837975
vt 0.312867 0.850246
vt 0.313942 0.890422
vt 0.364373 0.887710
vt 0.410353 0.893263
vt 0.407625 0.849695
vt 0.377163 0.940554
vt 0.402723 0.933075
vt 0.326372 0.933416
vt 0.326372 0.264581
vt 0.327937 0.313364
vt 0.376999 0.364960
vt 0.334438 0.364922
vt 0.331341 0.362549
vt 0.314868 0.316407
vt 0.352300 0.316485
vt 0.355881 0.361871
vt 0.409626 0.313492
vt 0.393462 0.359936
vt 0.398418 0.363919
vt 0.353526 0.289822
vt 0.351961 0.263334
vt 0.396809 0.260902
vt 0.398374 0.286829
vt 0.324240 0.289744
vt 0.322675 0.263848
vt 0.352300 0.841274
vt 0.353526 0.809945
vt 0.398374 0.821566
vt 0.409626 0.852894
vt 0.396809 0.818572
vt 0.351961 0.806852
vt 0.314868 0.853541
vt 0.324240 0.822213
vt 0.322675 0.819123
vt 0.479215 0.669173
vt 0.482775 0.721513
vt 0.471302 1.002924
vt 0.479215 1.015365
vt 0.480011 0.740196
vt 0.480011 0.988807
vt 0.471302 0.661469
vt 0.416217 0.154177
vt 0.402927 0.144428
vt 0.399432 0.131366
vt 0.416152 0.135838
vt 0.380819 0.132632
vt 0.389649 0.130579
vt 0.393748 0.140479
vt 0.385412 0.141084
vt 0.397513 0.570048
vt 0.379361 0.593819
vt 0.376297 0.603179
vt 0.379178 0.612314
vt 0.385412 0.620214
vt 0.393748 0.625520
vt 0.402927 0.624463
vt 0.416217 0.616909
vt 0.395305 0.577238
vt 0.396469 0.567675
vt 0.398731 0.572395
vt 0.390687 0.614171
vt 0.389649 0.619358
vt 0.380819 0.614576
vt 0.384313 0.610750
vt 0.397566 0.613212
vt 0.399432 0.617961
vt 0.376724 0.609983
vt 0.373598 0.601250
vt 0.376728 0.592146
vt 0.381473 0.594500
vt 0.409398 0.606787
vt 0.416152 0.608740
vt 0.407098 0.603615
vt 0.398562 0.608251
vt 0.393599 0.608943
vt 0.389001 0.606475
vt 0.386952 0.594751
vt 0.396930 0.582298
vt 0.413669 0.603560
vt 0.399402 0.578805
vt 0.410178 0.601288
vt 0.477555 0.038205
vt 0.484454 0.030102
vt 0.492387 0.025182
vt 0.486754 0.032036
vt 0.478542 0.442272
vt 0.471665 0.428901
vt 0.493123 0.025742
vt 0.487459 0.032373
vt 0.181819 0.000000
vt 0.227273 0.078731
vt 0.136365 0.078731
vt 0.272728 0.157461
vt 0.318182 0.078731
vt 0.363637 0.157461
vt 0.909091 0.000000
vt 0.954545 0.078731
vt 0.863636 0.078731
vt 0.727273 0.000000
vt 0.772727 0.078731
vt 0.681818 0.078731
vt 0.545455 0.000000
vt 0.590909 0.078731
vt 0.500000 0.078731
vt 0.318182 0.236191
vt 0.090910 0.157461
vt 0.181819 0.157461
vt 0.136365 0.236191
vt 0.818182 0.157461
vt 0.909091 0.157461
vt 0.863636 0.236191
vt 0.636364 0.157461
vt 0.727273 0.157461
vt 0.681818 0.236191
vt 0.454546 0.157461
vt 0.545455 0.157461
vt 0.500000 0.236191
vt 0.227273 0.236191
vt 0.045455 0.236191
vt 0.772727 0.236191
vt 0.590909 0.236191
vt 0.409092 0.236191
vt 0.181819 0.314921
vt 0.272728 0.314921
vt 0.227273 0.393651
vt 0.000000 0.314921
vt 0.090910 0.314921
vt 0.045455 0.393651
vt 0.727273 0.314921
vt 0.818182 0.314921
vt 0.772727 0.393651
vt 0.545455 0.314921
vt 0.636364 0.314921
vt 0.590909 0.393651
vt 0.363637 0.314921
vt 0.454546 0.314921
vt 0.409092 0.393651
vt 0.500000 0.393651
vt 0.454546 0.472382
vt 0.681818 0.393651
vt 0.636364 0.472382
vt 0.863636 0.393651
vt 0.818182 0.472382
vt 0.909091 0.314921
vt 0.136365 0.393651
vt 0.090910 0.472382
vt 0.318182 0.393651
vt 0.272728 0.472382
vt 0.954545 0.236191
vt 1.000000 0.157461
vt 0.409092 0.078731
vt 0.363637 0.000000
s 1
f 116/1/1 98/2/1 209/3/1 208/4/1
f 115/5/2 4/6/2 17/7/2 97/8/2
f 3/9/3 7/10/3 13/11/3 8/12/3
f 7/10/4 4/13/4 9/14/4 13/11/4
f 13/11/5 9/14/5 2/15/5 10/16/5
f 8/12/6 13/11/6 10/16/6 1/17/6
f 1/17/7 10/16/7 32/18/7 29/19/7
f 114/20/8 1/21/8 29/22/8 83/23/8
f 116/24/9 3/25/9 8/26/9 109/27/9
f 109/27/10 8/26/10 1/21/10 114/20/10
f 115/5/11 6/28/11 15/29/11 99/30/11
f 99/30/12 15/29/12 12/31/12 112/32/12
f 97/8/13 17/7/13 21/33/13 90/34/13
f 20/35/14 25/36/14 203/37/14 204/38/14
f 116/24/15 5/28/15 18/39/15 98/40/15
f 4/41/16 7/42/16 197/43/16 196/44/16
f 89/45/17 90/46/17 21/47/17 25/36/17
f 91/48/18 89/45/18 25/36/18 20/35/18
f 25/36/19 21/47/19 202/49/19 203/37/19
f 98/40/20 18/39/20 23/50/20 91/51/20
f 38/52/21 45/53/21 134/54/21 131/55/21
f 133/56/22 136/57/22 144/58/22 146/59/22
f 112/32/23 12/31/23 34/60/23 82/61/23
f 10/16/24 2/15/24 30/62/24 32/18/24
f 29/63/25 32/64/25 129/65/25 130/66/25
f 75/67/26 41/68/26 48/69/26 73/70/26
f 82/61/27 34/60/27 41/68/27 75/67/27
f 83/71/28 29/63/28 141/72/28 140/73/28
f 32/64/29 30/74/29 128/75/29 129/65/29
f 73/70/30 48/69/30 56/76/30 66/77/30
f 74/78/31 81/79/31 145/80/31 148/81/31
f 130/82/32 133/56/32 146/59/32 147/83/32
f 6/28/33 115/5/33 97/8/33 19/39/33
f 54/84/34 53/85/34 60/86/34 61/87/34
f 67/88/35 54/89/35 61/90/35 65/91/35
f 11/92/36 114/20/36 83/23/36 33/93/36
f 5/28/37 116/24/37 109/27/37 14/29/37
f 14/29/38 109/27/38 114/20/38 11/92/38
f 139/94/39 54/95/39 143/96/39 142/97/39
f 30/62/40 38/52/40 131/55/40 128/98/40
f 4/6/41 115/5/41 99/30/41 9/99/41
f 61/87/42 60/86/42 69/100/42 70/101/42
f 65/91/43 61/90/43 70/102/43 58/103/43
f 9/99/44 99/30/44 112/32/44 2/104/44
f 66/77/45 56/76/45 63/105/45 64/106/45
f 19/39/46 97/8/46 90/34/46 24/107/46
f 53/85/47 52/108/47 59/109/47 60/86/47
f 198/110/48 3/111/48 207/112/48 213/113/48
f 256/114/49 255/115/49 253/116/49 254/117/49
f 23/118/50 26/119/50 89/45/50 91/48/50
f 69/100/51 68/120/51 76/121/51 77/122/51
f 204/123/52 201/124/52 211/125/52 212/126/52
f 64/106/53 63/105/53 72/127/53 57/128/53
f 33/93/54 83/23/54 81/129/54 40/68/54
f 60/86/55 59/109/55 68/120/55 69/100/55
f 2/104/56 112/32/56 82/61/56 30/130/56
f 38/131/57 75/67/57 73/70/57 45/132/57
f 77/122/58 76/121/58 259/133/58 260/134/58
f 30/130/59 82/61/59 75/67/59 38/131/59
f 50/135/60 80/136/60 88/137/60 44/138/60
f 58/103/61 70/102/61 78/139/61 51/140/61
f 70/101/62 69/100/62 77/122/62 78/141/62
f 45/132/63 73/70/63 66/77/63 52/142/63
f 57/128/64 72/127/64 80/136/64 50/135/64
f 28/143/65 110/144/65 96/145/65 42/146/65
f 40/68/66 81/129/66 74/147/66 47/69/66
f 108/148/67 262/149/67 93/150/67 94/151/67
f 31/152/68 108/153/68 94/154/68 43/155/68
f 55/156/69 67/88/69 65/91/69 62/157/69
f 51/140/70 78/139/70 86/158/70 49/159/70
f 78/141/71 77/122/71 260/134/71 86/160/71
f 47/69/72 74/147/72 67/88/72 55/156/72
f 123/161/73 124/162/73 101/163/73 102/164/73
f 121/165/74 123/166/74 102/167/74 37/168/74
f 62/157/75 65/91/75 58/103/75 71/169/75
f 52/142/76 66/77/76 64/106/76 59/170/76
f 59/170/77 64/106/77 57/128/77 68/171/77
f 262/149/78 261/172/78 92/173/78 93/150/78
f 76/174/79 50/175/79 44/176/79 259/177/79
f 71/169/80 58/103/80 51/140/80 79/178/80
f 37/168/81 35/179/81 105/180/81 103/181/81
f 124/162/82 127/182/82 297/183/82 298/184/82 101/163/82
f 68/171/83 57/128/83 50/135/83 76/185/83
f 261/186/84 28/143/84 42/146/84 92/187/84
f 107/188/85 31/152/85 43/155/85 95/189/85
f 127/190/86 122/191/86 295/192/86 297/193/86
f 79/178/87 51/140/87 49/159/87 87/194/87
f 100/195/88 36/196/88 301/197/88 104/198/88
f 126/199/89 121/165/89 37/168/89 103/181/89
f 102/167/90 101/200/90 35/179/90 37/168/90
f 274/201/91 273/202/91 290/203/91 291/204/91
f 122/191/92 125/205/92 300/206/92 295/192/92
f 49/159/93 86/158/93 108/153/93 31/152/93
f 86/160/94 260/134/94 262/149/94 108/148/94
f 35/207/95 296/208/95 299/209/95 105/210/95
f 44/176/96 88/211/96 110/144/96 28/143/96
f 93/212/97 92/187/97 120/213/97 119/214/97
f 87/194/98 49/159/98 31/152/98 107/188/98
f 42/146/99 96/145/99 113/215/99 27/216/99
f 259/217/100 44/138/100 28/218/100 261/219/100
f 92/187/101 42/146/101 27/216/101 120/213/101
f 95/189/102 43/155/102 22/220/102 118/221/102
f 43/155/103 94/154/103 117/222/103 22/220/103
f 94/151/104 93/150/104 119/223/104 117/224/104
f 120/213/105 27/216/105 122/191/105 127/190/105
f 118/221/106 22/220/106 121/165/106 126/199/106
f 119/223/107 120/225/107 127/182/107 124/162/107
f 27/216/108 113/215/108 125/205/108 122/191/108
f 22/220/109 117/222/109 123/166/109 121/165/109
f 117/224/110 119/223/110 124/162/110 123/161/110
f 130/82/111 129/226/111 132/227/111 133/56/111
f 132/227/112 131/55/112 134/54/112 135/228/112
f 129/226/113 128/98/113 131/55/113 132/227/113
f 135/228/114 134/54/114 137/229/114 138/230/114
f 133/56/115 132/227/115 135/228/115 136/57/115
f 136/57/116 135/228/116 138/230/116 139/231/116
f 52/232/117 53/233/117 138/234/117 137/235/117
f 45/53/118 52/108/118 137/229/118 134/54/118
f 54/95/119 67/236/119 149/237/119 143/96/119
f 53/233/120 54/95/120 139/94/120 138/234/120
f 141/72/121 147/238/121 157/239/121 39/240/121
f 144/58/122 142/241/122 150/242/122 153/243/122
f 145/80/123 140/244/123 46/245/123 154/246/123
f 148/81/124 145/80/124 154/246/124 158/247/124
f 146/59/125 144/58/125 153/243/125 156/248/125
f 142/97/126 143/96/126 151/249/126 150/250/126
f 136/57/127 139/231/127 142/241/127 144/58/127
f 67/251/128 74/78/128 148/81/128 149/252/128
f 29/63/129 130/66/129 147/238/129 141/72/129
f 81/79/130 83/253/130 140/244/130 145/80/130
f 153/243/131 150/242/131 162/254/131 164/255/131
f 154/246/132 46/245/132 160/256/132 165/257/132
f 158/247/133 154/246/133 165/257/133 168/258/133
f 156/248/134 153/243/134 164/255/134 166/259/134
f 150/250/135 151/249/135 163/260/135 162/261/135
f 157/262/136 156/248/136 166/259/136 167/263/136
f 149/252/137 148/81/137 158/247/137 159/264/137
f 143/96/138 149/237/138 159/265/138 151/249/138
f 140/73/139 141/72/139 39/240/139 46/266/139
f 147/83/140 146/59/140 156/248/140 157/262/140
f 188/267/141 187/268/141 177/269/141 152/270/141
f 184/271/142 185/272/142 170/273/142 173/274/142
f 182/275/143 180/276/143 155/277/143 174/278/143
f 181/279/144 182/275/144 174/278/144 178/280/144
f 183/281/145 184/271/145 173/274/145 176/282/145
f 170/273/146 185/272/146 194/283/146 192/284/146
f 39/240/147 157/239/147 167/285/147 161/286/147
f 159/264/148 158/247/148 168/258/148 169/287/148
f 151/249/149 159/265/149 169/288/149 163/260/149
f 46/266/150 39/240/150 161/286/150 160/289/150
f 155/290/151 152/291/151 175/292/151 174/293/151
f 171/294/152 172/295/152 173/296/152 170/297/152
f 174/293/153 175/292/153 172/295/153 178/298/153
f 175/292/154 152/291/154 177/299/154 176/300/154
f 178/298/155 172/295/155 171/294/155 179/301/155
f 172/295/156 175/292/156 176/300/156 173/296/156
f 189/302/157 181/279/157 178/280/157 179/303/157
f 189/302/158 179/303/158 193/304/158 195/305/158
f 180/306/159 188/267/159 152/270/159 155/307/159
f 187/308/160 183/281/160 176/282/160 177/309/160
f 167/263/161 166/259/161 183/281/161 187/308/161
f 160/289/162 161/286/162 188/267/162 180/306/162
f 163/260/163 169/288/163 189/310/163 186/311/163
f 169/287/164 168/258/164 181/279/164 189/302/164
f 162/261/165 163/260/165 186/311/165 185/312/165
f 166/259/166 164/255/166 184/271/166 183/281/166
f 168/258/167 165/257/167 182/275/167 181/279/167
f 165/257/168 160/256/168 180/276/168 182/275/168
f 164/255/169 162/254/169 185/272/169 184/271/169
f 161/286/170 167/285/170 187/268/170 188/267/170
f 194/313/171 190/314/171 191/315/171 192/316/171
f 190/314/172 195/317/172 193/318/172 191/315/172
f 185/319/173 186/320/173 190/321/173 194/322/173
f 171/294/174 170/297/174 192/323/174 191/324/174
f 186/320/175 189/325/175 195/326/175 190/321/175
f 179/301/176 171/294/176 191/324/176 193/327/176
f 196/328/177 197/329/177 200/330/177 199/331/177
f 200/330/178 201/124/178 204/123/178 203/332/178
f 197/329/179 198/333/179 201/124/179 200/330/179
f 199/331/180 200/330/180 203/332/180 202/334/180
f 7/42/181 3/111/181 198/110/181 197/43/181
f 17/7/182 4/6/182 196/335/182 199/336/182
f 201/124/183 198/333/183 213/337/183 211/125/183
f 21/33/184 17/7/184 199/336/184 202/338/184
f 208/4/185 209/3/185 217/339/185 216/340/185
f 210/341/186 206/342/186 214/343/186 218/344/186
f 207/112/187 208/345/187 216/346/187 215/347/187
f 211/125/188 213/337/188 221/348/188 219/349/188
f 20/35/189 204/38/189 212/350/189 206/342/189
f 91/48/190 20/35/190 206/342/190 210/341/190
f 98/2/191 91/351/191 210/352/191 209/3/191
f 3/111/192 116/353/192 208/345/192 207/112/192
f 232/354/193 235/355/193 222/356/193 226/357/193
f 233/358/194 224/359/194 240/360/194 241/361/194
f 16/362/195 230/363/195 229/364/195 227/365/195
f 231/366/196 232/367/196 226/368/196 225/369/196
f 213/113/197 207/112/197 215/347/197 221/370/197
f 206/342/198 212/350/198 220/371/198 214/343/198
f 212/126/199 211/125/199 219/349/199 220/372/199
f 209/3/200 210/352/200 218/373/200 217/339/200
f 223/374/201 205/375/201 227/376/201 229/377/201
f 223/374/202 224/378/202 225/379/202 205/375/202
f 205/375/203 225/379/203 226/380/203 222/381/203
f 205/375/204 222/381/204 228/382/204 227/376/204
f 233/358/205 231/366/205 225/369/205 224/359/205
f 229/364/206 230/363/206 237/383/206 238/384/206
f 235/355/207 236/385/207 228/386/207 222/356/207
f 236/387/208 16/362/208 227/365/208 228/388/208
f 250/389/209 243/390/209 16/362/209 236/387/209
f 249/391/210 250/392/210 236/385/210 235/355/210
f 246/393/211 245/394/211 234/395/211 230/396/211
f 248/397/212 244/398/212 231/366/212 233/358/212
f 244/398/213 247/399/213 232/367/213 231/366/213
f 243/390/214 246/400/214 230/363/214 16/362/214
f 245/394/215 248/401/215 233/402/215 234/395/215
f 247/403/216 249/391/216 235/355/216 232/354/216
f 242/404/217 241/405/217 240/406/217 239/407/217
f 237/408/218 242/404/218 239/407/218 238/409/218
f 234/410/219 233/411/219 241/412/219 242/413/219
f 224/378/220 223/374/220 239/414/220 240/415/220
f 230/416/221 234/410/221 242/413/221 237/417/221
f 223/374/222 229/377/222 238/418/222 239/414/222
f 218/344/223 214/343/223 249/391/223 247/403/223
f 215/347/224 216/346/224 248/401/224 245/394/224
f 219/349/225 221/348/225 246/400/225 243/390/225
f 217/339/226 218/373/226 247/399/226 244/398/226
f 216/340/227 217/339/227 244/398/227 248/397/227
f 221/370/228 215/347/228 245/394/228 246/393/228
f 214/343/229 220/371/229 250/392/229 249/391/229
f 220/372/230 219/349/230 243/390/230 250/389/230
f 252/419/231 251/420/231 254/421/231 253/422/231
f 255/423/232 257/424/232 252/425/232 253/426/232
f 258/427/233 256/428/233 254/421/233 251/420/233
f 24/107/234 90/34/234 256/429/234 258/430/234
f 89/45/235 26/119/235 257/431/235 255/432/235
f 90/46/236 89/45/236 255/432/236 256/428/236
f 84/433/237 85/434/237 260/134/237 259/133/237
f 275/435/238 84/433/238 259/133/238 261/172/238
f 85/434/239 276/436/239 262/149/239 260/134/239
f 276/436/240 284/437/240 283/438/240 275/435/240 261/172/240 262/149/240
f 84/439/241 275/440/241 279/441/241 263/442/241
f 266/443/242 264/444/242 278/445/242 280/446/242
f 276/436/243 85/434/243 267/447/243 282/448/243
f 278/449/244 264/450/244 265/451/244 277/452/244
f 277/452/245 265/451/245 263/442/245 279/441/245
f 266/443/246 280/446/246 281/453/246 268/454/246
f 268/454/247 281/453/247 282/448/247 267/447/247
f 85/455/248 84/456/248 263/457/248 265/458/248 264/459/248 266/460/248 268/461/248 267/462/248
f 106/463/249 284/464/249 276/465/249
f 271/466/250 269/467/250 278/468/250 277/469/250
f 270/470/251 271/466/251 277/469/251 279/471/251
f 273/202/252 274/201/252 281/472/252 280/473/252
f 274/201/253 272/474/253 282/475/253 281/472/253
f 269/467/254 273/202/254 280/473/254 278/468/254
f 111/476/255 270/470/255 279/471/255 275/477/255
f 272/474/256 106/463/256 276/465/256 282/475/256
f 285/478/257 286/479/257 292/480/257 291/204/257 290/203/257 288/481/257 287/482/257 289/483/257
f 283/484/258 111/476/258 275/477/258
f 270/470/259 111/476/259 285/478/259 289/483/259
f 294/485/260 286/479/260 285/478/260 293/486/260
f 111/476/261 283/484/261 293/486/261 285/478/261
f 106/463/262 272/474/262 292/480/262 286/479/262
f 272/474/263 274/201/263 291/204/263 292/480/263
f 269/467/264 271/466/264 287/482/264 288/481/264
f 283/438/265 284/437/265 294/487/265 293/488/265
f 273/202/266 269/467/266 288/481/266 290/203/266
f 284/464/267 106/463/267 286/479/267 294/485/267
f 271/466/268 270/470/268 289/483/268 287/482/268
f 297/489/269 295/490/269 36/491/269 100/492/269
f 296/208/270 298/493/270 104/198/270 301/197/270
f 101/494/271 298/493/271 296/208/271 35/207/271
f 36/196/272 302/495/272 303/496/272 301/197/272
f 299/497/273 296/498/273 301/499/273 303/500/273
f 295/490/274 300/501/274 302/502/274 36/491/274
f 298/184/275 297/183/275 100/503/275 104/504/275
f 385/1/276 474/4/276 475/3/276 372/2/276
f 384/505/277 371/506/277 314/507/277 307/508/277
f 306/9/278 309/12/278 312/11/278 308/10/278
f 308/10/279 312/11/279 310/14/279 307/13/279
f 312/11/280 311/16/280 305/15/280 310/14/280
f 309/12/281 304/17/281 311/16/281 312/11/281
f 304/17/282 321/19/282 324/18/282 311/16/282
f 383/509/283 361/510/283 321/511/283 304/512/283
f 385/513/284 380/514/284 309/515/284 306/516/284
f 380/514/285 383/509/285 304/512/285 309/515/285
f 384/505/286 373/517/286 15/29/286 6/28/286
f 373/517/287 382/518/287 12/31/287 15/29/287
f 371/506/288 366/519/288 316/520/288 314/507/288
f 315/521/289 470/522/289 469/523/289 318/524/289
f 385/513/290 372/525/290 18/39/290 5/28/290
f 307/526/291 462/527/291 463/528/291 308/529/291
f 365/530/292 318/524/292 316/531/292 366/532/292
f 367/533/293 315/521/293 318/524/293 365/530/293
f 318/524/294 469/523/294 468/534/294 316/531/294
f 372/525/295 367/535/295 23/50/295 18/39/295
f 328/52/296 397/55/296 400/54/296 333/53/296
f 399/56/297 412/59/297 410/58/297 402/57/297
f 382/518/298 360/536/298 34/60/298 12/31/298
f 311/16/299 324/18/299 322/62/299 305/15/299
f 321/537/300 396/538/300 395/539/300 324/540/300
f 355/541/301 353/542/301 48/69/301 41/68/301
f 360/536/302 355/541/302 41/68/302 34/60/302
f 361/543/303 406/544/303 407/545/303 321/537/303
f 324/540/304 395/539/304 394/546/304 322/547/304
f 353/542/305 348/548/305 56/76/305 48/69/305
f 354/78/306 414/81/306 411/80/306 359/79/306
f 396/82/307 413/83/307 412/59/307 399/56/307
f 6/28/308 19/39/308 371/506/308 384/505/308
f 340/84/309 345/87/309 344/86/309 339/85/309
f 349/549/310 347/550/310 345/551/310 340/552/310
f 11/92/311 33/93/311 361/510/311 383/509/311
f 5/28/312 14/29/312 380/514/312 385/513/312
f 14/29/313 11/92/313 383/509/313 380/514/313
f 405/553/314 408/554/314 409/555/314 340/556/314
f 322/62/315 394/98/315 397/55/315 328/52/315
f 307/508/316 310/557/316 373/517/316 384/505/316
f 345/87/317 352/101/317 351/100/317 344/86/317
f 347/550/318 342/558/318 352/559/318 345/551/318
f 310/557/319 305/560/319 382/518/319 373/517/319
f 348/548/320 346/561/320 63/105/320 56/76/320
f 19/39/321 24/107/321 366/519/321 371/506/321
f 339/85/322 344/86/322 343/109/322 338/108/322
f 464/562/323 479/563/323 473/564/323 306/565/323
f 520/114/324 518/117/324 517/116/324 519/115/324
f 23/118/325 367/533/325 365/530/325 26/119/325
f 351/100/326 357/122/326 356/121/326 350/120/326
f 470/123/327 478/126/327 477/125/327 467/124/327
f 346/561/328 341/566/328 72/127/328 63/105/328
f 33/93/329 40/68/329 359/567/329 361/510/329
f 344/86/330 351/100/330 350/120/330 343/109/330
f 305/560/331 322/568/331 360/536/331 382/518/331
f 328/569/332 333/570/332 353/542/332 355/541/332
f 357/122/333 522/134/333 521/133/333 356/121/333
f 322/568/334 328/569/334 355/541/334 360/536/334
f 336/571/335 332/572/335 88/137/335 80/136/335
f 342/558/336 337/573/336 358/574/336 352/559/336
f 352/101/337 358/141/337 357/122/337 351/100/337
f 333/570/338 338/575/338 348/548/338 353/542/338
f 341/566/339 336/571/339 80/136/339 72/127/339
f 320/576/340 330/577/340 96/145/340 110/144/340
f 40/68/341 47/69/341 354/578/341 359/567/341
f 379/148/342 370/151/342 369/150/342 524/149/342
f 323/579/343 331/580/343 370/581/343 379/582/343
f 55/156/344 62/157/344 347/550/344 349/549/344
f 337/573/345 335/583/345 364/584/345 358/574/345
f 358/141/346 364/160/346 522/134/346 357/122/346
f 47/69/347 55/156/347 349/549/347 354/578/347
f 391/161/348 376/164/348 375/163/348 392/162/348
f 389/585/349 327/586/349 376/587/349 391/588/349
f 62/157/350 71/169/350 342/558/350 347/550/350
f 338/575/351 343/589/351 346/561/351 348/548/351
f 343/589/352 350/590/352 341/566/352 346/561/352
f 524/149/353 369/150/353 368/173/353 523/172/353
f 356/591/354 521/592/354 332/593/354 336/594/354
f 71/169/355 79/178/355 337/573/355 342/558/355
f 327/586/356 103/181/356 105/180/356 325/595/356
f 392/162/357 375/163/357 560/184/357 559/183/357 393/182/357
f 350/590/358 356/596/358 336/571/358 341/566/358
f 523/597/359 368/598/359 330/577/359 320/576/359
f 107/188/360 95/189/360 331/580/360 323/579/360
f 393/599/361 559/600/361 557/601/361 390/602/361
f 79/178/362 87/194/362 335/583/362 337/573/362
f 374/603/363 377/604/363 561/605/363 326/606/363
f 126/199/364 103/181/364 327/586/364 389/585/364
f 376/587/365 327/586/365 325/595/365 375/607/365
f 536/608/366 553/609/366 552/610/366 535/611/366
f 390/602/367 557/601/367 300/206/367 125/205/367
f 335/583/368 323/579/368 379/582/368 364/584/368
f 364/160/369 379/148/369 524/149/369 522/134/369
f 325/612/370 105/210/370 299/209/370 558/613/370
f 332/593/371 320/576/371 110/144/371 88/211/371
f 369/614/372 387/615/372 388/616/372 368/598/372
f 87/194/373 107/188/373 323/579/373 335/583/373
f 330/577/374 319/617/374 113/215/374 96/145/374
f 521/618/375 523/619/375 320/620/375 332/572/375
f 368/598/376 388/616/376 319/617/376 330/577/376
f 95/189/377 118/221/377 317/621/377 331/580/377
f 331/580/378 317/621/378 386/622/378 370/581/378
f 370/151/379 386/224/379 387/223/379 369/150/379
f 388/616/380 393/599/380 390/602/380 319/617/380
f 118/221/381 126/199/381 389/585/381 317/621/381
f 387/223/382 392/162/382 393/182/382 388/225/382
f 319/617/383 390/602/383 125/205/383 113/215/383
f 317/621/384 389/585/384 391/588/384 386/622/384
f 386/224/385 391/161/385 392/162/385 387/223/385
f 396/82/386 399/56/386 398/227/386 395/226/386
f 398/227/387 401/228/387 400/54/387 397/55/387
f 395/226/388 398/227/388 397/55/388 394/98/388
f 401/228/389 404/230/389 403/229/389 400/54/389
f 399/56/390 402/57/390 401/228/390 398/227/390
f 402/57/391 405/231/391 404/230/391 401/228/391
f 338/623/392 403/624/392 404/625/392 339/626/392
f 333/53/393 400/54/393 403/229/393 338/108/393
f 340/556/394 409/555/394 415/627/394 349/628/394
f 339/626/395 404/625/395 405/553/395 340/556/395
f 407/545/396 329/629/396 423/630/396 413/631/396
f 410/58/397 419/243/397 416/242/397 408/241/397
f 411/80/398 420/246/398 334/245/398 406/244/398
f 414/81/399 424/247/399 420/246/399 411/80/399
f 412/59/400 422/248/400 419/243/400 410/58/400
f 408/554/401 416/632/401 417/633/401 409/555/401
f 402/57/402 410/58/402 408/241/402 405/231/402
f 349/251/403 415/252/403 414/81/403 354/78/403
f 321/537/404 407/545/404 413/631/404 396/538/404
f 359/79/405 411/80/405 406/244/405 361/253/405
f 419/243/406 430/255/406 428/254/406 416/242/406
f 420/246/407 431/257/407 426/256/407 334/245/407
f 424/247/408 434/258/408 431/257/408 420/246/408
f 422/248/409 432/259/409 430/255/409 419/243/409
f 416/632/410 428/634/410 429/635/410 417/633/410
f 423/262/411 433/263/411 432/259/411 422/248/411
f 415/252/412 425/264/412 424/247/412 414/81/412
f 409/555/413 417/633/413 425/636/413 415/627/413
f 406/544/414 334/637/414 329/629/414 407/545/414
f 413/83/415 423/262/415 422/248/415 412/59/415
f 454/638/416 418/639/416 443/640/416 453/641/416
f 450/271/417 439/274/417 436/273/417 451/272/417
f 448/275/418 440/278/418 421/277/418 446/276/418
f 447/279/419 444/280/419 440/278/419 448/275/419
f 449/281/420 442/282/420 439/274/420 450/271/420
f 436/273/421 458/284/421 460/283/421 451/272/421
f 329/629/422 427/642/422 433/643/422 423/630/422
f 425/264/423 435/287/423 434/258/423 424/247/423
f 417/633/424 429/635/424 435/644/424 425/636/424
f 334/637/425 426/645/425 427/642/425 329/629/425
f 421/646/426 440/647/426 441/648/426 418/649/426
f 437/650/427 436/651/427 439/652/427 438/653/427
f 440/647/428 444/654/428 438/653/428 441/648/428
f 441/648/429 442/655/429 443/656/429 418/649/429
f 444/654/430 445/657/430 437/650/430 438/653/430
f 438/653/431 439/652/431 442/655/431 441/648/431
f 455/302/432 445/303/432 444/280/432 447/279/432
f 455/302/433 461/305/433 459/304/433 445/303/433
f 446/658/434 421/659/434 418/639/434 454/638/434
f 453/308/435 443/309/435 442/282/435 449/281/435
f 433/263/436 453/308/436 449/281/436 432/259/436
f 426/645/437 446/658/437 454/638/437 427/642/437
f 429/635/438 452/660/438 455/661/438 435/644/438
f 435/287/439 455/302/439 447/279/439 434/258/439
f 428/634/440 451/662/440 452/660/440 429/635/440
f 432/259/441 449/281/441 450/271/441 430/255/441
f 434/258/442 447/279/442 448/275/442 431/257/442
f 431/257/443 448/275/443 446/276/443 426/256/443
f 430/255/444 450/271/444 451/272/444 428/254/444
f 427/642/445 454/638/445 453/641/445 433/643/445
f 460/663/446 458/664/446 457/665/446 456/666/446
f 456/666/447 457/665/447 459/667/447 461/668/447
f 451/669/448 460/670/448 456/671/448 452/672/448
f 437/650/449 457/673/449 458/674/449 436/651/449
f 452/672/450 456/671/450 461/675/450 455/676/450
f 445/657/451 459/677/451 457/673/451 437/650/451
f 462/328/452 465/331/452 466/330/452 463/329/452
f 466/330/453 469/332/453 470/123/453 467/124/453
f 463/329/454 466/330/454 467/124/454 464/333/454
f 465/331/455 468/334/455 469/332/455 466/330/455
f 308/529/456 463/528/456 464/562/456 306/565/456
f 314/507/457 465/678/457 462/679/457 307/508/457
f 467/124/458 477/125/458 479/337/458 464/333/458
f 316/520/459 468/680/459 465/678/459 314/507/459
f 474/4/460 482/340/460 483/339/460 475/3/460
f 476/681/461 484/682/461 480/683/461 472/684/461
f 473/564/462 481/685/462 482/686/462 474/687/462
f 477/125/463 485/349/463 487/348/463 479/337/463
f 315/521/464 472/684/464 478/688/464 470/522/464
f 367/533/465 476/681/465 472/684/465 315/521/465
f 372/2/466 475/3/466 476/352/466 367/351/466
f 306/565/467 473/564/467 474/687/467 385/689/467
f 498/690/468 492/691/468 488/692/468 501/693/468
f 499/358/469 507/361/469 506/360/469 490/359/469
f 313/362/470 493/365/470 495/364/470 496/363/470
f 497/366/471 491/369/471 492/368/471 498/367/471
f 479/563/472 487/694/472 481/685/472 473/564/472
f 472/684/473 480/683/473 486/695/473 478/688/473
f 478/126/474 486/372/474 485/349/474 477/125/474
f 475/3/475 483/339/475 484/373/475 476/352/475
f 489/696/476 495/697/476 493/698/476 471/699/476
f 489/696/477 471/699/477 491/700/477 490/701/477
f 471/699/478 488/702/478 492/703/478 491/700/478
f 471/699/479 493/698/479 494/704/479 488/702/479
f 499/358/480 490/359/480 491/369/480 497/366/480
f 495/364/481 504/384/481 503/383/481 496/363/481
f 501/693/482 488/692/482 494/705/482 502/706/482
f 502/387/483 494/388/483 493/365/483 313/362/483
f 516/389/484 502/387/484 313/362/484 509/390/484
f 515/707/485 501/693/485 502/706/485 516/708/485
f 512/709/486 496/710/486 500/711/486 511/712/486
f 514/397/487 499/358/487 497/366/487 510/398/487
f 510/398/488 497/366/488 498/367/488 513/399/488
f 509/390/489 313/362/489 496/363/489 512/400/489
f 511/712/490 500/711/490 499/713/490 514/714/490
f 513/715/491 498/690/491 501/693/491 515/707/491
f 508/716/492 505/717/492 506/718/492 507/719/492
f 503/720/493 504/721/493 505/717/493 508/716/493
f 500/722/494 508/723/494 507/724/494 499/725/494
f 490/701/495 506/726/495 505/727/495 489/696/495
f 496/728/496 503/729/496 508/723/496 500/722/496
f 489/696/497 505/727/497 504/730/497 495/697/497
f 484/682/498 513/715/498 515/707/498 480/683/498
f 481/685/499 511/712/499 514/714/499 482/686/499
f 485/349/500 509/390/500 512/400/500 487/348/500
f 483/339/501 510/398/501 513/399/501 484/373/501
f 482/340/502 514/397/502 510/398/502 483/339/502
f 487/694/503 512/709/503 511/712/503 481/685/503
f 480/683/504 515/707/504 516/708/504 486/695/504
f 486/372/505 516/389/505 509/390/505 485/349/505
f 252/419/506 517/731/506 518/732/506 251/420/506
f 519/733/507 517/734/507 252/425/507 257/424/507
f 258/427/508 251/420/508 518/732/508 520/735/508
f 24/107/509 258/430/509 520/736/509 366/519/509
f 365/530/510 519/737/510 257/431/510 26/119/510
f 366/532/511 520/735/511 519/737/511 365/530/511
f 362/433/512 521/133/512 522/134/512 363/434/512
f 537/435/513 523/172/513 521/133/513 362/433/513
f 363/434/514 522/134/514 524/149/514 538/436/514
f 538/436/515 524/149/515 523/172/515 537/435/515 545/438/515 546/437/515
f 362/738/516 525/739/516 541/740/516 537/741/516
f 528/443/517 542/446/517 540/445/517 526/444/517
f 538/436/518 544/448/518 529/447/518 363/434/518
f 540/742/519 539/743/519 527/744/519 526/745/519
f 539/743/520 541/740/520 525/739/520 527/744/520
f 528/443/521 530/454/521 543/453/521 542/446/521
f 530/454/522 529/447/522 544/448/522 543/453/522
f 363/746/523 529/747/523 530/748/523 528/749/523 526/750/523 527/751/523 525/752/523 362/753/523
f 378/754/524 538/755/524 546/756/524
f 533/757/525 539/758/525 540/759/525 531/760/525
f 532/761/526 541/762/526 539/758/526 533/757/526
f 535/611/527 542/763/527 543/764/527 536/608/527
f 536/608/528 543/764/528 544/765/528 534/766/528
f 531/760/529 540/759/529 542/763/529 535/611/529
f 381/767/530 537/768/530 541/762/530 532/761/530
f 534/766/531 544/765/531 538/755/531 378/754/531
f 547/769/532 551/770/532 549/771/532 550/772/532 552/610/532 553/609/532 554/773/532 548/774/532
f 545/775/533 537/768/533 381/767/533
f 532/761/534 551/770/534 547/769/534 381/767/534
f 556/776/535 555/777/535 547/769/535 548/774/535
f 381/767/536 547/769/536 555/777/536 545/775/536
f 378/754/537 548/774/537 554/773/537 534/766/537
f 534/766/538 554/773/538 553/609/538 536/608/538
f 531/760/539 550/772/539 549/771/539 533/757/539
f 545/438/540 555/488/540 556/487/540 546/437/540
f 535/611/541 552/610/541 550/772/541 531/760/541
f 546/756/542 556/776/542 548/774/542 378/754/542
f 533/757/543 549/771/543 551/770/543 532/761/543
f 559/778/544 374/779/544 326/780/544 557/781/544
f 558/613/545 561/605/545 377/604/545 560/782/545
f 375/783/546 325/612/546 558/613/546 560/782/546
f 326/606/547 561/605/547 303/496/547 302/495/547
f 299/497/548 303/500/548 561/784/548 558/785/548
f 557/781/549 326/780/549 302/502/549 300/501/549
f 560/184/550 377/504/550 374/503/550 559/183/550
f 562/786/551 575/787/551 574/788/551
f 563/789/552 575/790/552 577/791/552
f 562/792/553 574/793/553 579/794/553
f 562/795/554 579/796/554 581/797/554
f 562/798/555 581/799/555 578/800/555
f 563/789/556 577/791/556 584/801/556
f 564/802/557 576/803/557 586/804/557
f 565/805/558 580/806/558 588/807/558
f 566/808/559 582/809/559 590/810/559
f 567/811/560 583/812/560 592/813/560
f 563/789/561 584/801/561 587/814/561
f 564/802/562 586/804/562 589/815/562
f 565/805/563 588/807/563 591/816/563
f 566/808/564 590/810/564 593/817/564
f 567/811/565 592/813/565 585/818/565
f 568/819/566 594/820/566 599/821/566
f 569/822/567 595/823/567 601/824/567
f 570/825/568 596/826/568 602/827/568
f 571/828/569 597/829/569 603/830/569
f 572/831/570 598/832/570 600/833/570
f 600/833/571 603/834/571 573/835/571
f 600/833/572 598/832/572 603/834/572
f 598/832/573 571/828/573 603/834/573
f 603/830/574 602/836/574 573/837/574
f 603/830/575 597/829/575 602/836/575
f 597/829/576 570/825/576 602/836/576
f 602/827/577 601/838/577 573/839/577
f 602/827/578 596/826/578 601/838/578
f 596/826/579 569/840/579 601/838/579
f 601/824/580 599/841/580 573/842/580
f 601/824/581 595/823/581 599/841/581
f 595/823/582 568/819/582 599/841/582
f 599/821/583 600/843/583 573/844/583
f 599/821/584 594/820/584 600/843/584
f 594/820/585 572/831/585 600/843/585
f 585/818/586 598/832/586 572/831/586
f 585/818/587 592/813/587 598/832/587
f 592/813/588 571/828/588 598/832/588
f 593/817/589 597/829/589 571/828/589
f 593/817/590 590/810/590 597/829/590
f 590/810/591 570/825/591 597/829/591
f 591/816/592 596/826/592 570/825/592
f 591/816/593 588/807/593 596/826/593
f 588/807/594 569/840/594 596/826/594
f 589/815/595 595/823/595 569/822/595
f 589/815/596 586/804/596 595/823/596
f 586/804/597 568/819/597 595/823/597
f 587/814/598 594/820/598 568/819/598
f 587/814/599 584/801/599 594/820/599
f 584/801/600 572/831/600 594/820/600
f 592/813/601 593/817/601 571/828/601
f 592/813/602 583/812/602 593/817/602
f 583/812/603 566/808/603 593/817/603
f 590/810/604 591/816/604 570/825/604
f 590/810/605 582/809/605 591/816/605
f 582/809/606 565/805/606 591/816/606
f 588/807/607 589/845/607 569/840/607
f 588/807/608 580/806/608 589/845/608
f 580/806/609 564/846/609 589/845/609
f 586/804/610 587/814/610 568/819/610
f 586/804/611 576/803/611 587/814/611
f 576/803/612 563/789/612 587/814/612
f 584/801/613 585/818/613 572/831/613
f 584/801/614 577/791/614 585/818/614
f 577/791/615 567/811/615 585/818/615
f 578/800/616 583/812/616 567/811/616
f 578/800/617 581/799/617 583/812/617
f 581/799/618 566/808/618 583/812/618
f 581/797/619 582/809/619 566/808/619
f 581/797/620 579/796/620 582/809/620
f 579/796/621 565/805/621 582/809/621
f 579/794/622 580/806/622 565/805/622
f 579/794/623 574/793/623 580/806/623
f 574/793/624 564/846/624 580/806/624
f 577/791/625 578/847/625 567/811/625
f 577/791/626 575/790/626 578/847/626
f 575/790/627 562/848/627 578/847/627
f 574/788/628 576/803/628 564/802/628
f 574/788/629 575/787/629 576/803/629
f 575/787/630 563/789/630 576/803/630
f 604/786/631 616/788/631 617/787/631
f 605/789/632 619/791/632 617/790/632
f 604/792/633 621/794/633 616/793/633
f 604/795/634 623/797/634 621/796/634
f 604/798/635 620/800/635 623/799/635
f 605/789/636 626/801/636 619/791/636
f 606/802/637 628/804/637 618/803/637
f 607/805/638 630/807/638 622/806/638
f 608/808/639 632/810/639 624/809/639
f 609/811/640 634/813/640 625/812/640
f 605/789/641 629/814/641 626/801/641
f 606/802/642 631/815/642 628/804/642
f 607/805/643 633/816/643 630/807/643
f 608/808/644 635/817/644 632/810/644
f 609/811/645 627/818/645 634/813/645
f 610/819/646 641/821/646 636/820/646
f 611/822/647 643/824/647 637/823/647
f 612/825/648 644/827/648 638/826/648
f 613/828/649 645/830/649 639/829/649
f 614/831/650 642/833/650 640/832/650
f 642/833/651 615/835/651 645/834/651
f 642/833/652 645/834/652 640/832/652
f 640/832/653 645/834/653 613/828/653
f 645/830/654 615/837/654 644/836/654
f 645/830/655 644/836/655 639/829/655
f 639/829/656 644/836/656 612/825/656
f 644/827/657 615/839/657 643/838/657
f 644/827/658 643/838/658 638/826/658
f 638/826/659 643/838/659 611/840/659
f 643/824/660 615/842/660 641/841/660
f 643/824/661 641/841/661 637/823/661
f 637/823/662 641/841/662 610/819/662
f 641/821/663 615/844/663 642/843/663
f 641/821/664 642/843/664 636/820/664
f 636/820/665 642/843/665 614/831/665
f 627/818/666 614/831/666 640/832/666
f 627/818/667 640/832/667 634/813/667
f 634/813/668 640/832/668 613/828/668
f 635/817/669 613/828/669 639/829/669
f 635/817/670 639/829/670 632/810/670
f 632/810/671 639/829/671 612/825/671
f 633/816/672 612/825/672 638/826/672
f 633/816/673 638/826/673 630/807/673
f 630/807/674 638/826/674 611/840/674
f 631/815/675 611/822/675 637/823/675
f 631/815/676 637/823/676 628/804/676
f 628/804/677 637/823/677 610/819/677
f 629/814/678 610/819/678 636/820/678
f 629/814/679 636/820/679 626/801/679
f 626/801/680 636/820/680 614/831/680
f 634/813/681 613/828/681 635/817/681
f 634/813/682 635/817/682 625/812/682
f 625/812/683 635/817/683 608/808/683
f 632/810/684 612/825/684 633/816/684
f 632/810/685 633/816/685 624/809/685
f 624/809/686 633/816/686 607/805/686
f 630/807/687 611/840/687 631/845/687
f 630/807/688 631/845/688 622/806/688
f 622/806/689 631/845/689 606/846/689
f 628/804/690 610/819/690 629/814/690
f 628/804/691 629/814/691 618/803/691
f 618/803/692 629/814/692 605/789/692
f 626/801/693 614/831/693 627/818/693
f 626/801/694 627/818/694 619/791/694
f 619/791/695 627/818/695 609/811/695
f 620/800/696 609/811/696 625/812/696
f 620/800/697 625/812/697 623/799/697
f 623/799/698 625/812/698 608/808/698
f 623/797/699 608/808/699 624/809/699
f 623/797/700 624/809/700 621/796/700
f 621/796/701 624/809/701 607/805/701
f 621/794/702 607/805/702 622/806/702
f 621/794/703 622/806/703 616/793/703
f 616/793/704 622/806/704 606/846/704
f 619/791/705 609/811/705 620/847/705
f 619/791/706 620/847/706 617/790/706
f 617/790/707 620/847/707 604/848/707
f 616/788/708 606/802/708 618/803/708
f 616/788/709 618/803/709 617/787/709
f 617/787/710 618/803/710 605/789/710
