# Blender 5.1.1
# www.blender.org
o Куб.001
v 0.569443 2.222759 0.843364
v 0.463006 3.053403 -0.155385
v 0.630354 1.395579 0.221667
v 0.630629 2.531037 -0.327734
v 0.064930 1.412577 0.385770
v 0.004190 2.504473 -0.558776
v 0.740199 2.051744 0.236922
v 0.641890 1.674191 0.567736
v 0.579476 2.812003 -0.224050
v 0.683759 2.630621 0.486708
v 0.089484 2.285797 1.047885
v -0.094064 3.125477 -0.191569
v 0.751713 2.138977 0.322629
v 0.059339 1.651239 0.807364
v -0.036079 2.884149 -0.356871
v 0.834886 0.413345 -0.046935
v 0.555746 2.366177 -0.433236
v 0.079985 1.335297 0.153922
v 0.000363 2.204977 -0.631069
v 0.479041 1.376071 -0.388112
v 0.474357 2.113248 -0.598203
v 0.060769 4.296261 2.131107
v 0.084362 1.291817 -0.021710
v 0.001741 1.899545 -0.721882
v 0.577652 1.732354 -0.557298
v 0.038071 1.485997 -0.365596
v 0.059372 4.693699 2.081137
v 0.145539 5.033123 1.752955
v 0.485669 2.859409 0.884582
v 0.469534 3.444158 0.031712
v 0.143266 4.254558 1.932146
v 0.635688 3.044621 0.580951
v 0.088289 2.801035 1.204727
v -0.042530 3.564414 0.009208
v 0.033332 4.380270 2.347407
v 0.010187 4.551159 2.362162
v 0.019655 4.302101 2.256368
v 0.562753 3.819869 0.124629
v 0.513192 2.381791 0.910838
v 0.092890 3.038814 1.522989
v -0.045907 3.953625 0.113082
v 0.094561 4.890559 2.009846
v 0.105278 4.268147 2.048796
v 0.144286 5.142941 1.419518
v 0.579601 3.989148 0.226880
v 0.440264 2.374134 0.995329
v 0.091643 3.231156 1.598915
v -0.044885 4.112296 0.176740
v 0.156792 4.248011 1.811562
v 0.131682 5.116093 1.061060
v 0.141103 4.238013 1.665367
v 0.536702 4.196320 0.403020
v 0.741111 3.733187 1.026070
v 0.715173 3.095590 1.527718
v 0.072475 3.538831 1.549126
v -0.040605 4.270485 0.271804
v 0.130456 4.906506 0.761791
v 0.162403 4.243548 1.400074
v 0.426465 4.466019 0.572075
v 0.616579 3.914151 1.227015
v 0.543201 3.737077 1.405287
v 0.050078 3.789362 1.461351
v -0.049644 4.531760 0.421735
v 0.182567 4.513659 0.462426
v 0.297445 3.772555 1.430779
v 0.241350 4.236144 0.300004
v 0.474279 3.253071 1.520175
v 0.316961 4.861601 0.801572
v 0.432449 4.543642 1.329209
v 0.348559 4.272844 1.368929
v -0.020262 4.215661 1.416174
v -0.052593 4.902687 0.735157
v 0.279502 4.052896 0.187694
v 0.408270 3.164380 1.464459
v 0.271827 3.886450 0.089772
v 0.312464 5.065503 1.083189
v 0.403052 4.676355 1.458733
v 0.321481 4.283092 1.616494
v -0.036318 4.210599 1.664433
v -0.046898 5.109285 1.022534
v 0.396006 3.031085 1.310418
v 0.212799 3.495240 -0.017914
v 0.381409 2.916048 1.057744
v 0.340779 4.969168 1.483842
v 0.424384 4.752598 1.562924
v 0.348338 4.280390 1.751249
v -0.034487 4.219839 1.806114
v -0.033541 5.158308 1.383506
v 0.294643 1.549917 -0.351431
v 0.205377 1.943849 -0.688461
v 0.347049 1.357089 -0.260864
v 0.216260 4.851421 1.965327
v 0.311650 4.584537 1.949705
v 0.244825 4.288983 1.999111
v -0.031533 4.248740 2.020490
v -0.023994 4.904985 1.976003
v 0.257019 2.176987 -0.619730
v 0.310128 1.345327 -0.012862
v 0.272535 2.833497 -0.356149
v 0.045119 4.544276 2.340494
v 0.099581 4.382132 2.305945
v 0.075485 4.325096 2.244572
v -0.027946 4.295835 2.268590
v 0.039878 4.496914 2.362326
v -0.026082 4.370109 2.346951
v 0.435254 4.825484 1.621664
v -0.033002 4.231451 1.916876
v 0.320402 4.279762 1.875159
v 0.353163 1.573391 0.639456
v -0.026919 5.057618 1.718314
v 0.372529 4.965270 1.579095
v 0.177677 3.071575 -0.219878
v -0.025285 4.696939 2.080504
v 0.332911 2.239118 0.948399
v 0.318962 2.427860 -0.542243
v 0.383352 1.343524 0.225533
v 0.156706 4.312099 2.085621
v -0.030245 4.280468 2.094553
v 0.183109 4.483610 2.128111
v 0.149617 4.653497 2.069134
v 0.041354 4.297139 2.188859
v 0.043063 4.592147 2.245405
v 0.111127 4.311622 2.174915
v 0.134440 4.433571 2.216272
v -0.024667 4.597314 2.232812
v -0.029154 4.287098 2.177774
v 0.109763 4.571192 2.218789
v 0.605204 3.490641 0.186402
v 0.729046 3.119865 0.567704
v 0.639560 3.016862 0.769605
v 0.671838 3.774409 0.220672
v 0.832895 3.415326 0.754265
v 0.879684 2.988977 1.056186
v 0.641455 3.927889 0.306352
v 0.863098 3.546001 0.860244
v 0.941630 2.970888 1.224550
v 0.658750 4.027391 0.528997
v 0.832981 3.705933 0.991520
v 0.916603 3.028361 1.402400
v 0.418195 2.613882 0.938744
v 0.493195 2.642731 0.841311
v 0.851065 2.546638 1.269487
v 0.721372 2.535927 1.371296
v 0.862010 2.543271 1.139852
v 0.459157 2.547673 1.152344
v 0.816422 2.565303 1.018139
v 0.627716 2.652379 0.787559
v 0.504454 2.528308 1.294541
v 0.575303 2.556979 1.387366
v 0.824635 2.329414 1.199935
v 0.695946 2.330150 1.285529
v 0.453469 1.934123 0.812072
v 0.845891 2.328698 1.097595
v 0.457353 2.351086 1.128908
v 0.360255 1.931406 0.901236
v 0.805548 2.339365 1.004244
v 0.645898 2.376785 0.874219
v 0.492357 2.340423 1.238984
v 0.555194 2.338745 1.295241
v 0.404792 2.190392 0.931154
v 0.488316 2.192719 0.848686
v 0.810768 2.141584 1.099555
v 0.668215 2.146248 1.186097
v 0.804904 2.141989 1.013631
v 0.422121 2.171284 1.052417
v 0.768335 2.150861 0.928643
v 0.635097 2.183167 0.806838
v 0.455704 2.161794 1.152376
v 0.517282 2.158969 1.202438
v 0.829742 1.857134 1.065694
v 0.644701 1.861950 1.166169
v 0.645837 1.879387 1.038164
v 0.801252 1.870208 0.983480
v 0.377855 1.908964 1.030472
v 0.604874 1.895645 0.939784
v 0.763914 1.884176 0.893754
v 0.616061 1.922535 0.765595
v 0.415025 1.893127 1.134534
v 0.452223 1.881427 1.194383
v 0.381080 2.066387 0.918638
v 0.435013 2.034077 1.146244
v 0.398395 2.046268 1.044192
v 0.770259 2.023022 0.912290
v 0.807026 2.012467 1.000503
v 0.822464 2.061667 1.094055
v 0.667669 2.063569 1.187299
v 0.628070 2.057552 0.787387
v 0.470995 2.068332 0.832274
v 0.502734 2.081168 1.204378
v 0.692870 1.951486 1.304494
v 0.682319 1.834749 1.294014
v 0.838473 1.831955 1.202174
v 0.518745 1.851892 1.312831
v 0.843573 1.949512 1.215223
v 0.534681 1.968554 1.321898
v 0.784681 2.424738 -0.200219
v 0.816718 1.974867 0.132521
v 0.788351 1.404905 0.137864
v 0.770150 2.287491 -0.391261
v 0.873766 1.853295 -0.343743
v 0.828835 1.380751 -0.120165
v 0.753173 2.111709 -0.556252
v 0.846873 1.794025 -0.557407
v 0.753153 1.379649 -0.396396
v 0.616646 0.185830 -0.027385
v 0.531274 1.035418 -0.393851
v 0.659380 1.190323 0.201186
v 0.460746 1.157839 0.141769
v 0.393899 1.096137 -0.111177
v 0.420536 1.044049 -0.345079
v 0.816950 1.108582 -0.112465
v 0.755116 1.043702 -0.359942
v 0.785655 1.173704 0.125335
v 0.548534 0.850239 -0.315098
v 0.663797 0.738944 0.230726
v 0.482864 0.744845 0.169051
v 0.422639 0.810270 -0.063873
v 0.447535 0.844777 -0.272163
v 0.808186 0.814110 -0.056920
v 0.752440 0.847937 -0.281886
v 0.779033 0.758014 0.161643
v 0.553257 0.199353 -0.262896
v 0.685401 0.189738 0.191955
v 0.429019 0.175316 0.145713
v 0.411471 0.179378 -0.049003
v 0.440535 0.194707 -0.226795
v 0.840403 0.186447 -0.048209
v 0.779886 0.197484 -0.237565
v 0.850208 0.186426 0.131687
v 0.842613 0.409434 0.128788
v 0.405927 0.406241 -0.048698
v 0.435009 0.419994 -0.225527
v 0.421408 0.399561 0.141953
v 0.677725 0.407995 0.187196
v 0.547739 0.425130 -0.261444
v 0.774374 0.423389 -0.235901
v 0.803844 0.303271 0.257008
v 0.810526 0.191868 0.271755
v 0.681909 0.194153 0.330431
v 0.481008 0.180051 0.283437
v 0.474340 0.290113 0.269485
v 0.675212 0.308205 0.314555
v 0.798253 0.632229 -0.051024
v 0.438797 0.627264 -0.052841
v 0.662808 0.609000 0.178686
v 0.770439 0.614233 0.122692
v 0.462728 0.650165 -0.219042
v 0.494287 0.605093 0.131334
v 0.557101 0.655671 -0.252623
v 0.747096 0.652853 -0.227974
v 0.002257 1.744356 -0.691590
v 0.013688 1.513682 -0.535578
v 0.108973 1.554299 -0.513339
v 0.078748 1.754207 -0.665180
v 0.149455 1.584212 -0.462318
v 0.090746 1.850187 -0.694850
v 0.016237 1.524864 -0.476585
v 0.001986 1.838184 -0.727060
v 0.319049 5.052022 1.325509
v 0.430491 4.660357 1.561347
v 0.318472 4.978684 1.719346
v 0.440420 4.690894 1.755180
v 0.400464 5.013286 1.503354
v 0.478808 5.001760 1.528885
v 0.441599 5.023820 1.516763
v 0.506552 4.964714 1.538125
v 0.505573 4.874967 1.552563
v 0.519310 4.921144 1.546474
v 0.484165 4.983603 1.577591
v 0.425148 4.997094 1.573873
v 0.455806 5.000740 1.574268
v 0.496734 4.907411 1.594997
v 0.496963 4.967901 1.580173
v 0.507043 4.938044 1.586462
v 0.342702 4.970399 1.580314
v 0.429954 4.777401 1.632489
v 0.460448 5.023572 1.568334
v 0.499738 5.000265 1.573295
v 0.416879 5.017969 1.568572
v 0.517920 4.978406 1.577362
v 0.531774 4.937786 1.586300
v 0.517807 4.896642 1.597391
v 0.353491 4.952505 1.582937
v 0.419980 4.799323 1.627276
v 0.382604 4.945977 1.573487
v 0.427920 4.844174 1.605223
v 0.442698 4.971217 1.570279
v 0.463169 4.958471 1.572906
v 0.420586 4.968606 1.570053
v 0.472412 4.946858 1.574946
v 0.479698 4.924892 1.579734
v 0.472284 4.902040 1.586327
v 0.368928 4.935415 1.577265
v 0.416914 4.825747 1.609397
v 0.034826 4.551701 2.327329
v 0.031174 4.472323 2.365593
v 0.075308 4.544605 2.299451
v 0.070415 4.465278 2.338639
v -0.024532 4.474162 2.369092
v -0.024031 4.551272 2.332097
v 0.006587 4.503680 2.383288
v -0.023689 4.549482 2.362146
v -0.023999 4.503646 2.383152
v -0.450171 2.165058 0.885228
v -0.592427 3.005892 -0.012720
v -0.476585 1.308203 0.178907
v -0.612616 2.432904 -0.375755
v -0.676482 1.946157 0.213022
v -0.505064 1.594392 0.565502
v -0.637695 2.723118 -0.228312
v -0.614816 2.566429 0.601751
v -0.695731 2.036805 0.322552
v -0.503518 0.307699 -0.098639
v -0.512288 2.289811 -0.470664
v -0.277818 1.316343 -0.417343
v -0.409825 2.065125 -0.621912
v -0.119929 4.298486 2.133297
v -0.431923 1.660360 -0.592587
v -0.109956 4.695785 2.083189
v -0.198574 5.036242 1.757601
v -0.372489 2.828273 0.951773
v -0.541696 3.407987 0.124432
v -0.208225 4.258887 1.936406
v -0.583670 2.998703 0.681312
v -0.085199 4.381730 2.348843
v -0.057502 4.551992 2.362983
v -0.075661 4.303275 2.257523
v -0.635222 3.778523 0.215736
v -0.369015 2.351342 0.977930
v -0.142004 4.893472 2.012713
v -0.167099 4.271502 2.052097
v -0.209675 5.143268 1.425470
v -0.647996 3.946779 0.320239
v -0.283811 2.349144 1.050395
v -0.224826 4.252710 1.816187
v -0.222127 5.108620 1.070195
v -0.212935 4.242373 1.669657
v -0.592187 4.153272 0.482123
v -0.669007 3.684520 1.133310
v -0.523949 3.052823 1.621954
v -0.232638 4.894387 0.772774
v -0.200841 4.244328 1.408428
v -0.496332 4.419853 0.613071
v -0.540023 3.877510 1.305952
v -0.431969 3.707700 1.471236
v -0.273300 4.489128 0.480200
v -0.193520 3.759268 1.462518
v -0.314313 4.211331 0.332955
v -0.299249 3.226654 1.578619
v -0.412066 4.837771 0.823524
v -0.463483 4.527221 1.357623
v -0.380684 4.271042 1.387574
v -0.360649 4.029981 0.235019
v -0.235568 3.142159 1.513423
v -0.358155 3.864707 0.137683
v -0.398473 5.051365 1.101147
v -0.464036 4.679373 1.473188
v -0.389864 4.290334 1.625977
v -0.237605 3.009217 1.358604
v -0.296683 3.477716 0.028678
v -0.252487 2.894173 1.106247
v -0.404050 4.971126 1.495833
v -0.486795 4.758523 1.576120
v -0.416850 4.289664 1.760549
v -0.166479 1.522803 -0.364768
v -0.193961 1.939986 -0.690556
v -0.157610 1.318250 -0.279880
v -0.265950 4.857120 1.971277
v -0.367957 4.592907 1.957941
v -0.307253 4.295784 2.005801
v -0.237975 2.166257 -0.625189
v -0.135416 1.310158 -0.030074
v -0.333862 2.789069 -0.359262
v -0.093108 4.545979 2.342170
v -0.152368 4.385235 2.308998
v -0.131177 4.327641 2.247076
v -0.088508 4.498494 2.363882
v -0.495556 4.831499 1.635181
v -0.386015 4.288463 1.883719
v -0.211123 1.532574 0.634708
v -0.432940 4.968865 1.591591
v -0.346840 3.050199 -0.131565
v -0.168265 2.212291 0.979168
v -0.280909 2.388816 -0.561410
v -0.225510 1.295463 0.202012
v -0.216521 4.316696 2.090144
v -0.237655 4.488792 2.133210
v -0.201429 4.657820 2.073389
v -0.099105 4.298869 2.190562
v -0.092178 4.593812 2.247044
v -0.168817 4.315070 2.178307
v -0.188112 4.437544 2.220181
v -0.159999 4.574514 2.222058
v -0.645272 3.447579 0.293942
v -0.679915 3.069656 0.683571
v -0.558499 2.975513 0.860718
v -0.725173 3.726194 0.326915
v -0.778786 3.359702 0.876834
v -0.750097 2.932728 1.180131
v -0.692789 3.881840 0.407823
v -0.801520 3.488550 0.986839
v -0.784513 2.911313 1.355824
v -0.683280 3.979849 0.629036
v -0.762955 3.650852 1.112891
v -0.736910 2.971293 1.528150
v -0.287028 2.589542 0.992377
v -0.377684 2.612674 0.907542
v -0.659334 2.494510 1.384354
v -0.515326 2.493245 1.465347
v -0.689478 2.489724 1.257844
v -0.290620 2.521795 1.209364
v -0.664416 2.514194 1.130758
v -0.519122 2.612798 0.874777
v -0.312484 2.500113 1.356670
v -0.370296 2.524343 1.459279
v -0.628886 2.279248 1.310476
v -0.489101 2.289251 1.375652
v -0.294351 1.908313 0.868944
v -0.665257 2.276544 1.212519
v -0.278906 2.325675 1.184901
v -0.188774 1.912457 0.942990
v -0.640304 2.289464 1.114202
v -0.505070 2.337062 0.961751
v -0.296068 2.313212 1.298944
v -0.349421 2.307524 1.364037
v -0.245928 2.167933 0.980642
v -0.340911 2.164100 0.911750
v -0.617497 2.092290 1.208175
v -0.464167 2.107166 1.272215
v -0.624721 2.092648 1.122355
v -0.243391 2.148315 1.103030
v -0.602104 2.103562 1.032865
v -0.491324 2.144291 0.892503
v -0.260759 2.137066 1.206863
v -0.313729 2.130288 1.265637
v -0.621824 1.807036 1.176086
v -0.424501 1.825048 1.247482
v -0.446151 1.841699 1.121210
v -0.607044 1.821603 1.090581
v -0.185071 1.889535 1.073283
v -0.421730 1.860214 1.017858
v -0.584733 1.837630 0.996320
v -0.460916 1.885365 0.847500
v -0.204922 1.871731 1.181682
v -0.231763 1.857821 1.246400
v -0.215935 2.045783 0.964042
v -0.232526 2.011038 1.197010
v -0.212666 2.025178 1.090664
v -0.597709 1.975809 1.016324
v -0.619918 1.963218 1.109023
v -0.624384 2.011732 1.204089
v -0.457779 2.024726 1.272890
v -0.478722 2.019353 0.871559
v -0.317783 2.041109 0.892261
v -0.293756 2.053679 1.264951
v -0.457247 1.911792 1.391961
v -0.440422 1.795999 1.379398
v -0.608094 1.782030 1.312186
v -0.277447 1.824413 1.373381
v -0.619211 1.899026 1.326468
v -0.299790 1.939754 1.385360
v -0.757431 2.303014 -0.259783
v -0.742338 1.852636 0.077247
v -0.627197 1.293170 0.083184
v -0.706976 2.170898 -0.448316
v -0.744627 1.725551 -0.406255
v -0.643497 1.264534 -0.177038
v -0.658352 2.007997 -0.607061
v -0.694880 1.674415 -0.615955
v -0.547627 1.276975 -0.446643
v -0.254480 0.117069 -0.061041
v -0.275418 0.971744 -0.425015
v -0.471442 1.101062 0.157503
v -0.266208 1.100457 0.113686
v -0.171329 1.051521 -0.133014
v -0.171467 0.997321 -0.367950
v -0.589747 0.997546 -0.166804
v -0.499726 0.944654 -0.408416
v -0.587363 1.065326 0.072297
v -0.269440 0.785675 -0.346699
v -0.407344 0.654394 0.189347
v -0.225381 0.688940 0.141689
v -0.158472 0.764400 -0.086325
v -0.172424 0.795842 -0.296115
v -0.539245 0.707753 -0.108971
v -0.472407 0.751257 -0.329202
v -0.518505 0.655594 0.111519
v -0.176128 0.141780 -0.291078
v -0.339608 0.108829 0.152355
v -0.081350 0.135029 0.125991
v -0.049782 0.142969 -0.066828
v -0.067173 0.154632 -0.246414
v -0.473308 0.082751 -0.098960
v -0.400932 0.104278 -0.283184
v -0.496750 0.080105 0.079652
v -0.523985 0.301563 0.075994
v -0.079886 0.367894 -0.067471
v -0.097121 0.377991 -0.246088
v -0.108698 0.357717 0.121470
v -0.365876 0.325618 0.146879
v -0.206174 0.365622 -0.290572
v -0.431022 0.328243 -0.282467
v -0.479008 0.202010 0.207449
v -0.469266 0.090848 0.222313
v -0.347476 0.112898 0.290662
v -0.143843 0.130727 0.259293
v -0.153449 0.240558 0.245228
v -0.357532 0.226685 0.274657
v -0.501423 0.529641 -0.101231
v -0.146559 0.581060 -0.075458
v -0.382023 0.526526 0.138322
v -0.484532 0.515172 0.074211
v -0.160970 0.600935 -0.243139
v -0.211844 0.549354 0.104053
v -0.252185 0.591792 -0.283889
v -0.440716 0.559096 -0.273861
v -0.072538 1.551371 -0.514856
v -0.074433 1.753626 -0.665549
v -0.093999 1.578270 -0.465323
v -0.087016 1.849512 -0.695279
v -0.388506 5.049683 1.338631
v -0.494192 4.667266 1.574360
v -0.373542 4.984560 1.728855
v -0.499371 4.700000 1.767566
v -0.462510 5.016255 1.517237
v -0.539879 5.005994 1.545081
v -0.502973 5.027410 1.531980
v -0.567565 4.969459 1.555011
v -0.566953 4.880510 1.568787
v -0.580440 4.926439 1.563395
v -0.544305 4.988203 1.593665
v -0.485493 5.000804 1.588285
v -0.515994 5.004872 1.589589
v -0.557012 4.912691 1.611052
v -0.557125 4.972740 1.596560
v -0.567265 4.943186 1.603004
v -0.402744 4.974325 1.591560
v -0.490520 4.784058 1.645552
v -0.520569 5.027697 1.583901
v -0.559796 5.004985 1.589929
v -0.477172 5.021618 1.582755
v -0.578021 4.983422 1.594453
v -0.591975 4.943196 1.603594
v -0.578121 4.902177 1.614051
v -0.414010 4.955788 1.594900
v -0.480378 4.805700 1.640115
v -0.443316 4.949559 1.586339
v -0.488432 4.849788 1.618666
v -0.503221 4.975267 1.585104
v -0.523637 4.962991 1.588185
v -0.481208 4.972288 1.584282
v -0.532874 4.951550 1.590476
v -0.540173 4.929793 1.595411
v -0.532757 4.907200 1.601576
v -0.429607 4.938997 1.589620
v -0.477467 4.831553 1.622375
v -0.082957 4.553151 2.328756
v -0.080335 4.473697 2.366944
v -0.124266 4.547063 2.301869
v -0.120379 4.467628 2.340951
v -0.054562 4.504434 2.384029
v 0.264095 4.624795 1.970293
v 0.279904 4.693661 1.959643
v 0.242911 4.638375 2.010311
v 0.205057 4.600663 2.023325
v 0.218656 4.632643 1.980700
v 0.264913 4.690118 1.941343
v 0.230635 4.712092 2.006095
v 0.184377 4.654615 2.045452
v 0.169387 4.651073 2.027152
v 0.206380 4.706359 1.976485
v 0.244234 4.744070 1.963470
v 0.185195 4.719939 2.016503
v 0.258569 4.624425 1.989758
v 0.280313 4.656921 1.959976
v 0.267861 4.664904 1.983498
v 0.280794 4.695317 1.942961
v 0.271502 4.654839 1.949220
v 0.236320 4.602259 1.997408
v 0.223868 4.610241 2.020930
v 0.244313 4.621056 1.972354
v 0.209611 4.606872 2.003525
v 0.244794 4.659451 1.955338
v 0.268639 4.727030 1.955966
v 0.259828 4.724947 1.945210
v 0.238902 4.675736 2.010802
v 0.260646 4.708232 1.981020
v 0.189463 4.619786 2.041585
v 0.211712 4.641953 2.033936
v 0.188644 4.636500 2.005775
v 0.180652 4.617704 2.030829
v 0.237578 4.702781 1.952860
v 0.210389 4.668998 1.975993
v 0.239680 4.737863 1.983270
v 0.204497 4.685283 2.031458
v 0.168496 4.649417 2.043834
v 0.181429 4.679830 2.003297
v 0.225423 4.734493 1.965866
v 0.204978 4.723678 2.014441
v 0.212971 4.742475 1.989388
v 0.177788 4.689895 2.037575
v 0.168977 4.687813 2.026819
v 0.190721 4.720309 1.997037
v -0.318940 4.631976 1.977358
v -0.333301 4.701214 1.967075
v -0.296464 4.645019 2.016847
v -0.259246 4.606382 2.028952
v -0.273082 4.638700 1.986660
v -0.318851 4.697308 1.948418
v -0.282483 4.718411 2.012313
v -0.236714 4.659801 2.050555
v -0.222264 4.655896 2.031899
v -0.259101 4.712092 1.982126
v -0.296318 4.750728 1.970021
v -0.236625 4.725134 2.021615
v -0.312955 4.631464 1.996684
v -0.334607 4.664495 1.967429
v -0.321396 4.672161 1.990640
v -0.334555 4.702896 1.950418
v -0.326113 4.662199 1.956463
v -0.291079 4.608754 2.003799
v -0.277868 4.616421 2.027010
v -0.299212 4.627749 1.978940
v -0.264125 4.612706 2.009267
v -0.299159 4.666150 1.961930
v -0.321311 4.734295 1.963116
v -0.312817 4.732001 1.952150
v -0.291526 4.682269 2.017230
v -0.313178 4.715301 1.987974
v -0.242748 4.625111 2.046824
v -0.264624 4.647820 2.039708
v -0.242387 4.641810 2.010999
v -0.234254 4.622814 2.035857
v -0.290941 4.709291 1.959265
v -0.264039 4.674840 1.981743
v -0.291440 4.744404 1.989707
v -0.256406 4.690959 2.037043
v -0.221010 4.654215 2.048555
v -0.234168 4.684949 2.008333
v -0.277697 4.740690 1.971963
v -0.256353 4.729361 2.020033
v -0.264486 4.748355 1.995174
v -0.229451 4.694911 2.042511
v -0.220958 4.692616 2.031545
v -0.242610 4.725646 2.002289
vn -0.8489 -0.4383 0.2954
vn 0.4556 0.2287 -0.8603
vn 0.9804 -0.1728 0.0941
vn 0.9840 0.1528 -0.0911
vn 0.9614 0.2652 -0.0734
vn 0.9431 -0.0131 0.3322
vn 0.9069 0.0600 0.4170
vn 0.6213 -0.0727 0.7802
vn 0.3007 -0.7892 0.5354
vn 0.3494 -0.3846 0.8544
vn 0.1164 0.4502 -0.8853
vn 0.0584 0.5448 -0.8365
vn 0.2007 0.3793 -0.9032
vn 0.0340 -0.4008 -0.9156
vn -0.0110 -0.9871 0.1598
vn 0.4580 0.6527 0.6035
vn 0.0791 -0.4211 -0.9036
vn -0.4821 -0.3412 -0.8069
vn 0.0798 -0.0342 -0.9962
vn 0.2261 -0.9695 0.0946
vn 0.7686 0.3457 -0.5383
vn 0.9278 -0.1041 -0.3583
vn 0.0034 0.4228 -0.9062
vn 0.9659 0.1285 -0.2250
vn 0.6451 -0.7539 -0.1242
vn 0.0700 0.4425 -0.8941
vn -0.0223 0.2631 -0.9645
vn -0.8242 0.1037 -0.5567
vn 0.6315 -0.4891 -0.6017
vn 0.1353 0.5241 -0.8408
vn -0.9411 -0.2113 0.2641
vn 0.7624 -0.0562 -0.6447
vn 0.0930 0.2511 -0.9635
vn 0.8557 0.2661 0.4438
vn 0.1202 0.2130 0.9696
vn 0.4301 -0.2130 0.8773
vn 0.0540 -0.8700 0.4902
vn 0.3447 -0.3676 0.8637
vn 0.5166 -0.2564 0.8169
vn 0.7151 -0.0387 -0.6979
vn 0.4060 0.4037 -0.8198
vn 0.6185 0.1575 0.7699
vn 0.1308 0.1085 0.9855
vn 0.3046 0.4847 -0.8199
vn 0.1651 0.5101 -0.8441
vn 0.0833 0.2759 -0.9576
vn 0.9040 0.4237 0.0575
vn 0.4886 -0.0365 0.8717
vn 0.8244 -0.2582 -0.5037
vn -0.0941 -0.7539 -0.6502
vn 0.9790 0.1899 -0.0747
vn 0.9677 -0.0339 -0.2498
vn 0.1458 0.6255 -0.7665
vn 0.4213 -0.7778 0.4665
vn 0.9575 0.2862 -0.0369
vn 0.2377 0.4088 -0.8811
vn 0.2137 0.4887 -0.8459
vn 0.9784 0.1903 -0.0802
vn 0.1934 0.2122 -0.9579
vn 0.0461 0.9933 -0.1064
vn 0.2047 -0.9784 0.0283
vn 0.9614 -0.1768 0.2110
vn 0.2829 0.6073 -0.7424
vn 0.0802 0.8125 -0.5774
vn -0.0011 0.8674 0.4975
vn 0.3581 -0.5467 0.7569
vn 0.8511 -0.1016 0.5151
vn 0.2027 -0.9613 0.1868
vn 0.2124 0.2710 0.9389
vn 0.2024 -0.9793 -0.0052
vn 0.9241 -0.3014 -0.2351
vn 0.2035 -0.0387 0.9783
vn 0.8705 -0.3973 0.2905
vn 0.3244 -0.9101 0.2579
vn 0.1045 0.1075 0.9887
vn 0.3807 0.5623 -0.7341
vn 0.3763 0.5681 -0.7319
vn 0.7596 0.3183 0.5671
vn 0.3640 0.9309 -0.0323
vn 0.1514 -0.9884 -0.0094
vn 0.1847 -0.7389 0.6480
vn 0.8909 0.1508 0.4284
vn 0.2957 0.7790 -0.5529
vn 0.3809 0.7614 0.5246
vn 0.1115 -0.9814 0.1561
vn 0.4295 0.7896 0.4383
vn 0.1479 -0.9874 0.0570
vn 0.5479 0.3022 0.7800
vn 0.1370 -0.9852 0.1030
vn 0.3914 -0.7344 0.5545
vn -0.2893 0.1064 0.9513
vn 0.0071 0.9023 0.4310
vn 0.1705 -0.9840 0.0527
vn 0.9728 -0.2189 0.0757
vn 0.0404 -0.2011 0.9787
vn 0.0480 0.9529 0.2996
vn 0.6423 0.2611 0.7207
vn 0.1330 -0.9875 0.0844
vn -0.1187 0.4044 0.9068
vn 0.4436 0.8692 0.2185
vn 0.3498 0.3029 0.8865
vn 0.0393 -0.9296 0.3666
vn 0.3270 -0.8018 0.5002
vn 0.7864 -0.1481 0.5997
vn 0.4183 0.7492 0.5136
vn 0.1372 -0.9880 0.0705
vn 0.8559 0.2455 0.4552
vn -0.0000 0.8440 0.5363
vn 0.2126 -0.9724 0.0966
vn 0.8813 -0.2617 0.3935
vn 0.8309 -0.4173 -0.3681
vn 0.9602 0.1566 -0.2312
vn 0.9153 -0.1233 -0.3834
vn 0.9438 0.2819 -0.1725
vn 0.9541 -0.0737 -0.2902
vn 0.9846 0.1645 0.0599
vn 0.5426 0.7592 0.3594
vn 0.8562 0.4347 -0.2793
vn -0.0850 -0.2305 0.9693
vn 0.5332 0.4979 0.6839
vn -0.3025 -0.2862 -0.9092
vn 0.9814 -0.1326 0.1386
vn -0.9871 -0.0340 0.1563
vn -0.9535 -0.0272 0.3003
vn 0.9281 -0.0094 -0.3723
vn 0.5597 -0.3452 0.7533
vn 0.9699 -0.1910 0.1513
vn -0.5985 -0.2607 0.7575
vn -0.5221 0.0410 -0.8519
vn -0.9760 -0.1715 0.1343
vn 0.9798 -0.1831 0.0804
vn -0.9794 0.1309 0.1539
vn -0.9482 0.0472 0.3142
vn 0.9172 -0.0219 -0.3979
vn 0.4698 -0.4582 0.7546
vn 0.6657 0.1867 -0.7225
vn -0.7139 -0.1886 0.6743
vn 0.0423 -0.3904 0.9197
vn -0.7339 -0.2232 -0.6415
vn 0.7000 -0.0925 -0.7081
vn -0.2590 0.1765 -0.9496
vn 0.9677 0.0368 -0.2494
vn -0.9790 0.1309 0.1560
vn -0.9318 0.1039 0.3477
vn 0.9235 0.0087 -0.3834
vn 0.9943 0.0201 -0.1044
vn -0.2390 0.3312 -0.9128
vn -0.6363 -0.2354 0.7346
vn 0.0440 -0.4731 0.8799
vn -0.6989 0.3284 -0.6353
vn -0.1191 -0.9808 -0.1542
vn -0.0999 -0.9864 -0.1302
vn -0.1057 -0.9876 -0.1158
vn -0.1160 -0.9805 -0.1588
vn -0.1157 -0.9847 -0.1305
vn -0.1021 -0.9880 -0.1163
vn -0.7593 0.1163 0.6403
vn -0.8746 0.1560 0.4590
vn -0.6812 0.1956 -0.7055
vn 0.6653 0.0649 -0.7438
vn 0.6765 0.0896 -0.7310
vn -0.6866 0.1950 -0.7004
vn 0.1061 0.0095 0.9943
vn -0.6581 0.0976 0.7466
vn 0.5176 0.0129 0.8555
vn 0.9216 0.0584 -0.3837
vn -0.9298 0.1442 0.3386
vn -0.9715 0.1714 0.1636
vn 0.9874 0.0774 -0.1382
vn -0.2608 0.1619 -0.9517
vn 0.5033 -0.1196 0.8558
vn 0.1014 -0.0945 0.9903
vn 0.3667 0.7121 0.5987
vn -0.1192 -0.9777 -0.1728
vn 0.1495 0.7322 0.6645
vn -0.1233 -0.9772 -0.1729
vn 0.9882 0.1532 0.0036
vn 0.9589 -0.2249 -0.1731
vn 0.9895 -0.0390 0.1392
vn 0.9397 0.2310 -0.2523
vn 0.6109 -0.0752 0.7882
vn 0.5555 0.4929 -0.6697
vn 0.9885 -0.0301 0.1485
vn 0.2267 0.5608 -0.7963
vn -0.9666 -0.0434 0.2525
vn -0.3728 -0.3773 -0.8477
vn -0.3069 0.0530 0.9503
vn 0.9913 -0.0045 0.1314
vn 0.0523 -0.0411 -0.9978
vn -0.5870 -0.0015 -0.8096
vn -0.9660 -0.2352 -0.1077
vn -0.0676 -0.2742 0.9593
vn -0.3042 -0.0017 -0.9526
vn -0.9325 -0.0207 0.3607
vn 0.9984 0.0289 -0.0489
vn -0.9862 -0.0236 -0.1636
vn 0.5130 0.0637 0.8560
vn 0.1490 -0.3715 -0.9164
vn 0.9681 -0.0867 -0.2352
vn -0.9841 -0.1401 -0.1091
vn -0.0047 -0.9999 0.0107
vn 0.0467 -0.9989 -0.0101
vn 0.0315 -0.9969 -0.0722
vn -0.0022 -0.9984 -0.0571
vn -0.9960 -0.0284 0.0846
vn 0.9524 0.0565 0.2997
vn 0.1116 0.0096 -0.9937
vn 0.9526 0.0252 -0.3033
vn 0.9505 0.1379 -0.2785
vn 0.1199 0.0408 -0.9919
vn 0.3821 0.1150 0.9169
vn -0.9497 0.2423 0.1985
vn -0.9816 0.1325 -0.1375
vn 0.9657 0.2497 0.0712
vn -0.2145 0.0764 0.9737
vn -0.3203 0.0572 -0.9456
vn -0.2306 0.1148 0.9662
vn 0.4107 0.1466 0.8999
vn -0.1707 0.7448 0.6451
vn 0.0576 -0.9981 0.0230
vn 0.2580 0.7315 0.6311
vn -0.0050 -0.9994 0.0346
vn -0.3353 -0.2870 -0.8973
vn -0.2845 -0.3126 0.9063
vn 0.9890 -0.0695 0.1305
vn -0.9838 -0.1062 -0.1446
vn -0.9639 -0.1027 0.2458
vn 0.4922 -0.2901 0.8207
vn 0.1358 -0.2825 -0.9496
vn 0.9604 -0.0812 -0.2665
vn 0.3704 -0.5163 -0.7722
vn 0.3665 -0.9095 0.1964
vn 0.3541 -0.3231 -0.8776
vn 0.2366 -0.1025 -0.9662
vn 0.2949 -0.8191 -0.4921
vn 0.4469 -0.5250 -0.7243
vn 0.9616 0.2521 -0.1087
vn 0.8854 0.4603 0.0653
vn 0.9966 0.0461 -0.0683
vn 0.8897 0.4204 0.1779
vn -0.5661 0.8236 0.0341
vn 0.7707 0.5166 -0.3729
vn 0.8240 -0.5580 0.0985
vn 0.5328 0.8208 -0.2059
vn -0.1901 0.9816 0.0201
vn 0.9094 0.2143 -0.3564
vn 0.9379 -0.3227 -0.1276
vn 0.2753 -0.1700 -0.9462
vn -0.0218 0.2219 0.9748
vn 0.0241 0.2391 0.9707
vn -0.0327 0.2463 0.9686
vn 0.0151 0.2160 0.9763
vn 0.0153 0.2589 0.9658
vn 0.0381 0.2046 0.9781
vn 0.0182 0.1810 0.9833
vn 0.0790 0.2386 0.9679
vn -0.0007 0.2611 0.9653
vn 0.0722 0.1872 0.9797
vn 0.1935 -0.1684 0.9665
vn -0.0206 0.2807 0.9596
vn 0.2884 -0.0932 0.9530
vn -0.3763 0.5321 0.7585
vn -0.3832 0.3667 0.8478
vn -0.1562 -0.0590 0.9860
vn 0.6960 0.4628 0.5490
vn -0.2093 -0.0034 0.9778
vn -0.4912 0.4528 0.7441
vn 0.0043 -0.1347 0.9909
vn 0.3336 0.9085 0.2515
vn 0.5389 -0.0794 0.8386
vn 0.5332 -0.1466 0.8332
vn -0.0131 0.4119 0.9111
vn 0.0252 -0.4547 0.8903
vn -0.0213 0.9994 0.0279
vn 0.7628 0.2301 0.6043
vn 0.8819 -0.3017 0.3623
vn -0.4336 0.2104 -0.8762
vn -0.9390 -0.3112 0.1461
vn -0.9908 -0.0259 -0.1326
vn -0.9911 0.1231 0.0506
vn -0.9001 -0.1173 0.4196
vn -0.8244 0.0064 0.5660
vn -0.4956 -0.1261 0.8593
vn -0.2020 -0.8270 0.5247
vn -0.2553 -0.4379 0.8620
vn -0.1516 0.4403 -0.8849
vn -0.2585 0.5722 -0.7783
vn -0.2291 0.3600 -0.9044
vn 0.1089 -0.3822 -0.9177
vn 0.1532 -0.9741 0.1661
vn -0.6400 0.5566 0.5297
vn 0.0871 -0.3946 -0.9147
vn 0.6485 -0.1602 -0.7442
vn 0.0191 -0.0292 -0.9994
vn -0.0861 -0.9926 0.0862
vn -0.8629 0.2894 -0.4143
vn -0.9619 -0.1693 -0.2146
vn -0.2647 0.3972 -0.8787
vn -0.9955 0.0942 0.0135
vn -0.6081 -0.7937 -0.0173
vn -0.2328 0.4320 -0.8713
vn -0.1518 0.2496 -0.9564
vn 0.7292 0.1474 -0.6682
vn -0.7043 -0.5167 -0.4868
vn -0.2862 0.5054 -0.8140
vn 0.9824 -0.1449 0.1178
vn -0.8454 -0.1117 -0.5224
vn -0.0785 0.2459 -0.9661
vn -0.8090 0.1965 0.5540
vn 0.0032 0.2187 0.9758
vn -0.2685 -0.2404 0.9328
vn 0.0584 -0.8724 0.4853
vn -0.2668 -0.3795 0.8859
vn -0.3685 -0.2870 0.8842
vn -0.8160 -0.1093 -0.5676
vn -0.4244 0.3704 -0.8263
vn -0.6130 0.0853 0.7854
vn -0.0366 0.1317 0.9906
vn -0.4299 0.5856 -0.6872
vn -0.2964 0.4745 -0.8288
vn -0.0810 0.2745 -0.9582
vn -0.9250 0.3389 0.1720
vn -0.5423 -0.1178 0.8319
vn -0.9360 -0.2145 -0.2793
vn 0.2904 -0.6818 -0.6714
vn -0.9938 0.0958 -0.0561
vn -0.9284 -0.1836 -0.3231
vn -0.2559 0.6026 -0.7559
vn -0.2775 -0.8129 0.5121
vn -0.9894 0.1434 0.0230
vn -0.4425 0.3498 -0.8257
vn -0.3723 0.4680 -0.8015
vn -0.9820 0.1817 -0.0511
vn -0.3566 0.1700 -0.9187
vn -0.0731 0.9909 -0.1131
vn -0.2091 -0.9776 0.0250
vn -0.9736 -0.2149 0.0773
vn -0.4317 0.5777 -0.6927
vn -0.1580 0.8036 -0.5739
vn 0.0317 0.8677 0.4961
vn -0.2015 -0.5664 0.7991
vn -0.8388 -0.0815 0.5382
vn -0.2217 -0.9560 0.1919
vn -0.0970 0.2604 0.9606
vn -0.2249 -0.9744 0.0024
vn -0.9266 -0.2894 -0.2403
vn -0.0512 -0.0500 0.9974
vn -0.8727 -0.3758 0.3116
vn -0.3404 -0.9019 0.2660
vn -0.0158 0.1069 0.9941
vn -0.5191 0.4888 -0.7012
vn -0.4840 0.5086 -0.7121
vn -0.7372 0.3333 0.5877
vn -0.3857 0.9219 -0.0367
vn -0.1666 -0.9858 -0.0228
vn -0.1871 -0.7343 0.6525
vn -0.8763 0.1725 0.4499
vn -0.3665 0.7538 -0.5454
vn -0.3518 0.7690 0.5337
vn -0.1319 -0.9784 0.1590
vn -0.3992 0.7998 0.4484
vn -0.1707 -0.9834 0.0608
vn -0.5212 0.3154 0.7930
vn -0.1587 -0.9816 0.1066
vn -0.3958 -0.7247 0.5640
vn 0.3189 0.1006 0.9424
vn 0.0255 0.9021 0.4307
vn -0.1931 -0.9795 0.0577
vn -0.9752 -0.1978 0.0988
vn -0.0216 -0.2004 0.9795
vn -0.0303 0.9541 0.2980
vn -0.6180 0.2762 0.7361
vn -0.1552 -0.9840 0.0879
vn 0.1506 0.4011 0.9036
vn -0.4319 0.8737 0.2238
vn -0.3202 0.3111 0.8948
vn -0.0532 -0.9284 0.3677
vn -0.3345 -0.7936 0.5082
vn -0.7751 -0.1289 0.6186
vn -0.3872 0.7591 0.5234
vn -0.1598 -0.9844 0.0741
vn -0.8383 0.2663 0.4757
vn 0.0338 0.8436 0.5359
vn -0.2341 -0.9669 0.1020
vn -0.8776 -0.2401 0.4149
vn -0.8445 -0.4737 -0.2500
vn -0.9926 0.0892 -0.0827
vn -0.9481 -0.1997 -0.2473
vn -0.9761 0.2156 -0.0265
vn -0.9797 -0.1404 -0.1432
vn -0.9731 0.0970 0.2088
vn -0.5165 0.7324 0.4436
vn -0.9142 0.3785 -0.1450
vn 0.2473 -0.2187 0.9439
vn -0.4566 0.4638 0.7592
vn 0.1806 -0.2695 -0.9459
vn -0.9378 -0.1988 0.2845
vn 0.9994 0.0346 0.0052
vn 0.9875 0.0398 0.1526
vn -0.9708 -0.0750 -0.2278
vn -0.4145 -0.3789 0.8274
vn -0.9205 -0.2563 0.2950
vn 0.7197 -0.2148 0.6602
vn 0.3805 0.0706 -0.9221
vn 0.9943 -0.1055 -0.0133
vn -0.9415 -0.2494 0.2265
vn 0.9801 0.1985 0.0049
vn 0.9793 0.1137 0.1676
vn -0.9631 -0.0868 -0.2549
vn -0.3179 -0.4854 0.8145
vn -0.7784 0.1369 -0.6127
vn 0.8188 -0.1357 0.5578
vn 0.1239 -0.3876 0.9135
vn 0.6421 -0.1758 -0.7462
vn -0.7909 -0.1440 -0.5948
vn 0.0999 0.1889 -0.9769
vn -0.9945 -0.0309 -0.1002
vn 0.9801 0.1985 0.0070
vn 0.9643 0.1694 0.2035
vn -0.9692 -0.0566 -0.2395
vn -0.9977 -0.0486 0.0471
vn 0.0751 0.3421 -0.9367
vn 0.7546 -0.1874 0.6289
vn 0.1219 -0.4704 0.8740
vn 0.5708 0.3722 -0.7319
vn 0.1614 -0.9712 -0.1755
vn 0.1464 -0.9779 -0.1489
vn 0.1544 -0.9787 -0.1356
vn 0.1576 -0.9710 -0.1796
vn 0.1619 -0.9751 -0.1516
vn 0.1509 -0.9792 -0.1355
vn 0.8375 0.1714 0.5189
vn 0.9212 0.2180 0.3224
vn 0.5518 0.2382 -0.7993
vn -0.7728 0.0153 -0.6344
vn -0.7837 0.0392 -0.6199
vn 0.5579 0.2379 -0.7950
vn 0.0449 0.0074 0.9990
vn 0.7551 0.1464 0.6391
vn -0.3821 -0.0182 0.9240
vn -0.9708 -0.0069 -0.2397
vn 0.9582 0.2093 0.1950
vn 0.9710 0.2385 0.0159
vn -0.9999 0.0089 0.0129
vn 0.1024 0.1745 -0.9793
vn -0.3588 -0.1493 0.9214
vn 0.0560 -0.0960 0.9938
vn -0.3200 0.6884 0.6509
vn 0.1585 -0.9681 -0.1940
vn -0.0972 0.7236 0.6833
vn 0.1625 -0.9673 -0.1947
vn -0.9976 -0.0044 -0.0698
vn -0.8962 -0.3718 -0.2423
vn -0.9791 -0.1926 0.0648
vn -0.9510 0.0778 -0.2991
vn -0.6699 -0.1931 0.7169
vn -0.5836 0.4051 -0.7038
vn -0.9800 -0.1854 0.0725
vn -0.2782 0.5315 -0.8001
vn 0.9393 0.1070 0.3261
vn 0.4912 -0.3091 -0.8143
vn 0.2210 0.0947 0.9707
vn -0.9855 -0.1605 0.0550
vn 0.0314 -0.0427 -0.9986
vn 0.6454 0.0979 -0.7575
vn 0.9966 -0.0727 -0.0390
vn 0.0359 -0.2660 0.9633
vn 0.3729 0.0517 -0.9264
vn 0.8938 0.1234 0.4312
vn -0.9839 -0.1275 -0.1255
vn 0.9874 0.1322 -0.0874
vn -0.5808 -0.0226 0.8137
vn -0.0183 -0.3847 -0.9229
vn -0.9216 -0.2359 -0.3082
vn 0.9993 0.0165 -0.0325
vn 0.1605 -0.9869 0.0170
vn 0.1113 -0.9938 -0.0076
vn 0.1307 -0.9891 -0.0684
vn 0.1629 -0.9853 -0.0507
vn 0.9787 0.1275 0.1608
vn -0.9696 -0.0952 0.2254
vn -0.0352 -0.0020 -0.9994
vn -0.9186 -0.1225 -0.3756
vn -0.9362 -0.0110 -0.3514
vn -0.0485 0.0275 -0.9984
vn -0.4646 0.0482 0.8842
vn 0.8820 0.3869 0.2692
vn 0.9563 0.2855 -0.0627
vn -0.9955 0.0949 -0.0046
vn 0.1246 0.1031 0.9868
vn 0.3789 0.1124 -0.9186
vn 0.1350 0.1437 0.9804
vn -0.4963 0.0750 0.8649
vn 0.0019 0.7584 0.6518
vn 0.0979 -0.9949 0.0245
vn -0.4171 0.6782 0.6051
vn 0.1589 -0.9865 0.0409
vn 0.4439 -0.2255 -0.8672
vn 0.2597 -0.2697 0.9273
vn -0.9730 -0.2244 0.0547
vn 0.9964 0.0501 -0.0681
vn 0.9463 0.0481 0.3196
vn -0.5022 -0.3686 0.7823
vn -0.0167 -0.2945 -0.9555
vn -0.9126 -0.2290 -0.3388
vn -0.3726 -0.5441 -0.7518
vn -0.3739 -0.8936 0.2484
vn -0.3474 -0.3257 -0.8793
vn -0.2328 -0.1013 -0.9672
vn -0.2625 -0.8563 -0.4447
vn -0.4992 -0.5532 -0.6669
vn -0.9611 0.2669 -0.0706
vn -0.8814 0.4640 0.0886
vn -0.9971 0.0601 -0.0471
vn -0.8786 0.4345 0.1980
vn 0.5712 0.8208 0.0037
vn -0.7737 0.5221 -0.3590
vn -0.8228 -0.5552 0.1216
vn -0.5284 0.8255 -0.1987
vn 0.2029 0.9792 0.0086
vn -0.9141 0.2233 -0.3385
vn -0.9425 -0.3161 -0.1082
vn -0.3067 -0.1637 -0.9376
vn 0.0553 0.2188 0.9742
vn 0.0081 0.2354 0.9719
vn 0.0655 0.2432 0.9678
vn 0.0173 0.2123 0.9771
vn 0.0170 0.2559 0.9666
vn -0.0056 0.2010 0.9796
vn 0.0189 0.1805 0.9834
vn -0.0458 0.2366 0.9705
vn 0.0327 0.2575 0.9657
vn -0.0347 0.1976 0.9797
vn -0.1592 -0.1680 0.9728
vn 0.0524 0.2778 0.9592
vn -0.2610 -0.0925 0.9609
vn 0.4026 0.5294 0.7468
vn 0.4110 0.3609 0.8371
vn 0.1835 -0.0664 0.9808
vn -0.6806 0.4716 0.5607
vn 0.2400 -0.0096 0.9707
vn 0.5153 0.4492 0.7298
vn 0.0215 -0.1383 0.9902
vn -0.3050 0.9164 0.2592
vn -0.5202 -0.0663 0.8515
vn -0.5163 -0.1337 0.8459
vn 0.0453 0.4112 0.9104
vn -0.0148 -0.4542 0.8908
vn 0.0465 0.9985 0.0271
vn -0.7420 0.2486 0.6226
vn 0.8947 -0.3724 0.2469
vn 0.9984 0.0116 0.0544
vn 0.7250 -0.6611 0.1933
vn 0.0930 -0.8104 -0.5784
vn 0.0243 -0.5781 -0.8156
vn 0.9414 0.3269 0.0827
vn 0.6974 0.0654 0.7137
vn 0.3483 -0.4831 0.8033
vn -0.6200 -0.3869 -0.6826
vn -0.4332 -0.1232 -0.8928
vn 0.8021 0.3259 0.5004
vn 0.6068 0.0547 0.7930
vn -0.3991 -0.7822 0.4784
vn -0.6404 -0.2401 -0.7295
vn -0.3683 0.0493 -0.9284
vn 0.4621 0.4916 0.7381
vn 0.2576 0.2561 0.9317
vn -0.9984 -0.0116 -0.0544
vn -0.7670 0.0776 -0.6370
vn -0.4443 0.7502 -0.4897
vn -0.7250 0.6611 -0.1932
vn -0.6825 0.5017 -0.5315
vn -0.6999 0.2169 -0.6805
vn -0.8946 0.3724 -0.2469
vn -0.8598 0.1206 -0.4961
vn -0.8857 -0.0141 -0.4641
vn -0.7100 0.5133 0.4822
vn -0.7703 0.2664 0.5794
vn -0.1598 0.1866 0.9694
vn -0.0243 0.5781 0.8156
vn 0.2689 0.3874 0.8818
vn 0.4319 0.3609 0.8266
vn -0.0930 0.8104 0.5784
vn 0.2702 0.7268 0.6315
vn 0.2351 0.9107 0.3396
vn -0.3482 0.4831 -0.8033
vn -0.4709 0.1742 -0.8648
vn -0.5933 0.1001 -0.7987
vn -0.6974 -0.0654 -0.7137
vn -0.7080 -0.1573 -0.6885
vn -0.7861 -0.1650 -0.5957
vn -0.9414 -0.3269 -0.0827
vn -0.6260 -0.4890 0.6075
vn -0.0620 -0.1191 0.9910
vn 0.4332 0.1232 0.8928
vn 0.5376 0.1371 0.8320
vn 0.5469 0.2286 0.8053
vn 0.6200 0.3869 0.6825
vn 0.6960 0.4500 0.5596
vn 0.6059 0.7086 0.3615
vn -0.6068 -0.0547 -0.7930
vn -0.5375 -0.1371 -0.8320
vn -0.5469 -0.2287 -0.8053
vn -0.8021 -0.3259 -0.5004
vn -0.6959 -0.4500 -0.5596
vn -0.6059 -0.7086 -0.3615
vn 0.3683 -0.0493 0.9284
vn 0.4709 -0.1742 0.8648
vn 0.5933 -0.1001 0.7987
vn 0.6404 0.2401 0.7295
vn 0.7080 0.1573 0.6885
vn 0.7861 0.1650 0.5957
vn 0.3991 0.7822 -0.4784
vn 0.6260 0.4890 -0.6075
vn 0.0620 0.1191 -0.9910
vn -0.2576 -0.2561 -0.9317
vn -0.2689 -0.3874 -0.8818
vn -0.4319 -0.3609 -0.8266
vn -0.4621 -0.4916 -0.7381
vn -0.2702 -0.7268 -0.6315
vn -0.2351 -0.9107 -0.3396
vn 0.4443 -0.7502 0.4898
vn 0.6825 -0.5016 0.5315
vn 0.6999 -0.2169 0.6805
vn 0.1598 -0.1866 -0.9694
vn 0.7703 -0.2664 -0.5794
vn 0.7100 -0.5133 -0.4822
vn 0.7670 -0.0776 0.6370
vn 0.8598 -0.1207 0.4961
vn 0.8857 0.0141 0.4641
vn -0.8973 -0.3503 0.2686
vn -0.9962 0.0362 0.0786
vn -0.7362 -0.6431 0.2109
vn -0.1269 -0.8077 -0.5757
vn -0.0583 -0.5770 -0.8146
vn -0.9308 0.3500 0.1054
vn -0.6781 0.0824 0.7304
vn -0.3405 -0.4746 0.8117
vn 0.5936 -0.4019 -0.6973
vn 0.4083 -0.1336 -0.9030
vn -0.7815 0.3454 0.5196
vn -0.5858 0.0694 0.8074
vn 0.3912 -0.7920 0.4688
vn 0.6164 -0.2556 -0.7448
vn 0.3468 0.0405 -0.9371
vn -0.4319 0.5025 0.7490
vn -0.2286 0.2621 0.9376
vn 0.9962 -0.0362 -0.0786
vn 0.7530 0.0588 -0.6554
vn 0.4506 0.7392 -0.5006
vn 0.7362 0.6431 -0.2109
vn 0.6816 0.4849 -0.5481
vn 0.6884 0.1998 -0.6973
vn 0.8973 0.3503 -0.2686
vn 0.8503 0.0996 -0.5168
vn 0.8736 -0.0357 -0.4854
vn 0.7339 0.4955 0.4647
vn 0.7904 0.2472 0.5605
vn 0.1878 0.1823 0.9652
vn 0.0583 0.5771 0.8146
vn -0.2378 0.3937 0.8880
vn -0.4027 0.3712 0.8367
vn 0.1269 0.8078 0.5757
vn -0.2368 0.7331 0.6376
vn -0.2043 0.9161 0.3449
vn 0.3405 0.4746 -0.8117
vn 0.4539 0.1628 -0.8760
vn 0.5761 0.0857 -0.8129
vn 0.6781 -0.0824 -0.7304
vn 0.6870 -0.1745 -0.7054
vn 0.7671 -0.1841 -0.6145
vn 0.9308 -0.3500 -0.1054
vn 0.6283 -0.5045 0.5923
vn 0.0830 -0.1208 0.9892
vn -0.4083 0.1336 0.9030
vn -0.5137 0.1500 0.8447
vn -0.5215 0.2418 0.8183
vn -0.5936 0.4019 0.6973
vn -0.6709 0.4668 0.5762
vn -0.5794 0.7232 0.3759
vn 0.5858 -0.0694 -0.8075
vn 0.5137 -0.1501 -0.8448
vn 0.5215 -0.2418 -0.8183
vn 0.7815 -0.3454 -0.5196
vn 0.6709 -0.4668 -0.5762
vn 0.5794 -0.7232 -0.3759
vn -0.3468 -0.0405 0.9371
vn -0.4539 -0.1628 0.8760
vn -0.5761 -0.0857 0.8129
vn -0.6164 0.2556 0.7448
vn -0.6870 0.1745 0.7054
vn -0.7671 0.1841 0.6145
vn -0.3912 0.7920 -0.4687
vn -0.6283 0.5045 -0.5922
vn -0.0830 0.1208 -0.9892
vn 0.2286 -0.2621 -0.9376
vn 0.2378 -0.3937 -0.8880
vn 0.4027 -0.3712 -0.8367
vn 0.4319 -0.5025 -0.7490
vn 0.2368 -0.7331 -0.6376
vn 0.2042 -0.9161 -0.3449
vn -0.4506 -0.7391 0.5006
vn -0.6816 -0.4848 0.5481
vn -0.6884 -0.1998 0.6973
vn -0.1878 -0.1823 -0.9651
vn -0.7904 -0.2472 -0.5605
vn -0.7339 -0.4955 -0.4647
vn -0.7530 -0.0588 0.6554
vn -0.8503 -0.0996 0.5168
vn -0.8736 0.0357 0.4854
vt 0.833374 0.494548
vt 0.893919 0.512741
vt 0.908415 0.468160
vt 0.848637 0.467455
vt 0.567859 0.867914
vt 0.639317 0.828812
vt 0.620915 0.894044
vt 0.556155 0.927906
vt 0.812683 0.509803
vt 0.774909 0.642712
vt 0.751394 0.643294
vt 0.751725 0.493743
vt 0.828812 0.793372
vt 0.751727 0.811870
vt 0.672932 0.807420
vt 0.672336 0.642732
vt 0.672998 0.503429
vt 0.598676 0.643182
vt 0.594201 0.530171
vt 0.560191 0.672195
vt 0.619753 0.672998
vt 0.599703 0.594201
vt 0.569702 0.558226
vt 0.580250 0.833374
vt 0.635423 0.812683
vt 0.637090 0.751725
vt 0.569078 0.759035
vt 0.500000 0.859251
vt 0.500000 0.750726
vt 0.569078 0.758996
vt 0.500000 0.657595
vt 0.560191 0.671923
vt 0.604420 0.951058
vt 0.545714 0.976119
vt 0.604420 0.548422
vt 0.626365 0.643481
vt 0.688416 0.643970
vt 0.666902 0.547256
vt 0.500000 0.917421
vt 0.563590 0.893919
vt 0.639317 0.793372
vt 0.659328 0.642712
vt 0.676970 0.643370
vt 0.671449 0.761101
vt 0.555994 0.632181
vt 0.545714 0.747180
vt 0.604420 0.735145
vt 0.572975 0.538591
vt 0.666902 0.715601
vt 0.500000 0.969030
vt 0.572975 0.947229
vt 0.501290 0.830086
vt 0.457158 0.830118
vt 0.460328 0.806630
vt 0.500288 0.803578
vt 0.499838 0.512886
vt 0.460007 0.507514
vt 0.481582 0.413128
vt 0.510774 0.417065
vt 0.500000 0.559830
vt 0.556447 0.575135
vt 0.579931 0.796381
vt 0.599703 0.530171
vt 0.637090 0.643182
vt 0.659115 0.643738
vt 0.643940 0.535244
vt 0.564556 0.492909
vt 0.500000 0.477524
vt 0.500000 0.432743
vt 0.566016 0.447361
vt 0.569702 0.518348
vt 0.616981 0.429733
vt 0.594994 0.421068
vt 0.612448 0.796381
vt 0.637526 0.771615
vt 0.500000 0.371229
vt 0.561082 0.382998
vt 0.450625 0.491920
vt 0.495971 0.498202
vt 0.507939 0.406303
vt 0.474705 0.401699
vt 0.591615 0.535244
vt 0.575831 0.433451
vt 0.407144 0.499901
vt 0.406490 0.640437
vt 0.358675 0.605643
vt 0.363238 0.556600
vt 0.578790 0.420824
vt 0.621227 0.407144
vt 0.601979 0.363238
vt 0.551080 0.357545
vt 0.500000 0.657756
vt 0.500000 0.571782
vt 0.667216 0.508652
vt 0.621227 0.499901
vt 0.632756 0.407548
vt 0.666461 0.413961
vt 0.556577 0.771615
vt 0.637090 0.751727
vt 0.260484 0.580516
vt 0.278839 0.520364
vt 0.582070 0.278839
vt 0.540875 0.268345
vt 0.619753 0.672932
vt 0.500000 0.307117
vt 0.551080 0.314473
vt 0.500000 0.983839
vt 0.393435 0.816867
vt 0.325561 0.763148
vt 0.671449 0.517077
vt 0.635423 0.509803
vt 0.642381 0.470278
vt 0.671266 0.470798
vt 0.988807 0.740196
vt 1.002924 0.661469
vt 1.015365 0.669173
vt 1.001496 0.721513
vt 0.500000 0.531683
vt 0.500000 0.631036
vt 0.249130 0.712570
vt 0.191059 0.679456
vt 0.198981 0.567653
vt 0.945839 0.547256
vt 0.886123 0.529161
vt 0.904522 0.470747
vt 0.963512 0.471464
vt 0.500000 0.238897
vt 0.540875 0.239236
vt 0.564556 0.495971
vt 0.612448 0.579931
vt 0.628268 0.501290
vt 0.631115 0.457158
vt 0.168698 0.648799
vt 0.177283 0.553376
vt 0.539817 0.181283
vt 0.500000 0.184290
vt 0.500000 0.144817
vt 0.539817 0.140934
vt 0.580006 0.205473
vt 0.539817 0.196322
vt 0.205473 0.476864
vt 0.621491 0.393435
vt 0.538703 0.608225
vt 0.500000 0.615960
vt 0.500000 0.567098
vt 0.526605 0.560962
vt 0.566016 0.450625
vt 0.149293 0.452102
vt 0.133162 0.541160
vt 0.103583 0.505809
vt 0.123733 0.441345
vt 0.539531 0.141037
vt 0.579447 0.149293
vt 0.562090 0.123733
vt 0.530633 0.116366
vt 0.500000 0.385014
vt 0.500000 0.353218
vt 0.586057 0.174337
vt 0.542919 0.165879
vt 0.174337 0.464471
vt 0.086614 0.427976
vt 0.065909 0.448336
vt 0.053210 0.428901
vt 0.071388 0.423606
vt 0.515797 0.085531
vt 0.531484 0.086614
vt 0.523242 0.071388
vt 0.510720 0.071544
vt 0.500000 0.266808
vt 0.601979 0.325561
vt 0.582070 0.249130
vt 0.108290 0.599988
vt 0.073849 0.556649
vt 0.580006 0.679456
vt 0.539817 0.690304
vt 0.539817 0.657159
vt 0.579599 0.648799
vt 0.500000 0.199929
vt 0.513331 0.045311
vt 0.500000 0.046647
vt 0.500000 0.069896
vt 0.051602 0.475706
vt 0.038205 0.462176
vt 0.038356 0.442272
vt 0.580006 0.191059
vt 0.577833 0.599988
vt 0.554232 0.556649
vt 0.500000 0.147087
vt 0.500000 0.124516
vt 0.530339 0.475706
vt 0.515210 0.477146
vt 0.513246 0.460736
vt 0.522445 0.462176
vt 0.500000 0.170521
vt 0.515546 0.457928
vt 0.507613 0.457080
vt 0.506877 0.445401
vt 0.514439 0.446199
vt 0.500000 0.089031
vt 0.528336 0.053210
vt 0.620841 0.601238
vt 0.618568 0.607555
vt 0.613078 0.604170
vt 0.614718 0.599612
vt 0.500000 0.479371
vt 0.500000 0.460095
vt 0.513331 0.424258
vt 0.512541 0.440917
vt 0.500000 0.440864
vt 0.500000 0.422187
vt 0.500000 0.664242
vt 0.576432 0.505809
vt 0.539481 0.507406
vt 0.547321 0.467354
vt 0.500000 0.513551
vt 0.519044 0.508271
vt 0.579599 0.168698
vt 0.538703 0.096221
vt 0.577833 0.108290
vt 0.520322 0.097153
vt 0.500000 0.106427
vt 0.541975 0.104341
vt 0.078394 0.467354
vt 0.104341 0.437145
vt 0.073220 0.507406
vt 0.590300 0.643738
vt 0.499630 0.641384
vt 0.459655 0.640419
vt 0.417546 0.774144
vt 0.414448 0.641253
vt 0.423095 0.508652
vt 0.621491 0.816867
vt 0.648114 0.640437
vt 0.669097 0.641253
vt 0.644267 0.774144
vt 0.578790 0.496630
vt 0.601625 0.405151
vt 0.649402 0.433451
vt 0.651726 0.367843
vt 0.620780 0.366797
vt 0.454529 0.413961
vt 0.467814 0.368189
vt 0.488225 0.366596
vt 0.561691 0.421068
vt 0.537425 0.365401
vt 0.507200 0.363509
vt 0.481273 0.364028
vt 0.510983 0.366114
vt 0.635806 0.367147
vt 0.669092 0.368189
vt 0.420824 0.496630
vt 0.452865 0.405151
vt 0.558226 0.518348
vt 0.484328 0.324872
vt 0.502799 0.322553
vt 0.547406 0.321655
vt 0.519920 0.320969
vt 0.496410 0.322232
vt 0.523434 0.321439
vt 0.639292 0.324944
vt 0.675657 0.324872
vt 0.550036 0.367843
vt 0.558926 0.322330
vt 0.465216 0.366023
vt 0.604868 0.366023
vt 0.599660 0.365401
vt 0.621651 0.293283
vt 0.658462 0.293469
vt 0.659368 0.261742
vt 0.621257 0.261665
vt 0.501495 0.293600
vt 0.482345 0.307625
vt 0.480362 0.262732
vt 0.500191 0.261781
vt 0.519246 0.292376
vt 0.547742 0.292993
vt 0.548078 0.261464
vt 0.518571 0.260916
vt 0.494871 0.293528
vt 0.493332 0.261956
vt 0.522889 0.292587
vt 0.522344 0.260869
vt 0.451756 0.288897
vt 0.449773 0.262732
vt 0.656778 0.322330
vt 0.622394 0.322035
vt 0.481902 0.324350
vt 0.605664 0.324350
vt 0.599057 0.321655
vt 0.595403 0.548078
vt 0.621257 0.561263
vt 0.645824 0.523009
vt 0.590945 0.518571
vt 0.639859 0.470735
vt 0.648324 0.498544
vt 0.685407 0.500191
vt 0.686261 0.480362
vt 0.592251 0.493332
vt 0.659368 0.560446
vt 0.683143 0.522344
vt 0.596433 0.477757
vt 0.479829 0.307317
vt 0.477757 0.262636
vt 0.447168 0.262636
vt 0.449241 0.288588
vt 0.596679 0.292993
vt 0.595403 0.261464
vt 0.559686 0.293469
vt 0.560446 0.261742
vt 0.603589 0.307317
vt 0.640355 0.307779
vt 0.679739 0.307625
vt 0.677932 0.288897
vt 0.639680 0.289050
vt 0.639859 0.262967
vt 0.679465 0.262732
vt 0.604354 0.288588
vt 0.603287 0.262636
vt 0.679739 0.482345
vt 0.640355 0.473048
vt 0.639680 0.442459
vt 0.677932 0.451756
vt 0.679465 0.449773
vt 0.639859 0.440146
vt 0.603589 0.479829
vt 0.604354 0.449241
vt 0.603287 0.447168
vt 0.841501 0.761101
vt 0.796910 0.643370
vt 0.906455 0.644155
vt 0.894416 0.742499
vt 0.957194 0.643970
vt 0.829265 0.517077
vt 0.940741 0.715601
vt 0.671449 0.841501
vt 0.669190 0.894416
vt 0.849398 0.470798
vt 0.666902 0.940741
vt 0.909364 0.402088
vt 0.855378 0.389954
vt 0.592313 0.470184
vt 0.617524 0.471308
vt 0.621192 0.417417
vt 0.598226 0.414426
vt 0.598146 0.467455
vt 0.603540 0.389954
vt 0.643835 0.389418
vt 0.855424 0.393127
vt 0.905341 0.403681
vt 0.667620 0.471464
vt 0.947229 0.538591
vt 0.963044 0.470184
vt 0.580250 0.494548
vt 0.595712 0.312254
vt 0.621272 0.312916
vt 0.622837 0.264476
vt 0.597277 0.263453
vt 0.852894 0.313492
vt 0.849695 0.260671
vt 0.818572 0.260902
vt 0.821566 0.286829
vt 0.893654 0.314609
vt 0.853541 0.316407
vt 0.850246 0.263617
vt 0.890422 0.263754
vt 0.896415 0.312211
vt 0.936226 0.312254
vt 0.933075 0.263453
vt 0.893263 0.261490
vt 0.670148 0.393127
vt 0.666826 0.415674
vt 0.958612 0.415674
vt 0.958434 0.414426
vt 0.649700 0.837975
vt 0.635627 0.887710
vt 0.686058 0.890422
vt 0.687133 0.850246
vt 0.592375 0.849695
vt 0.589648 0.893263
vt 0.597277 0.933075
vt 0.622837 0.940554
vt 0.673628 0.933416
vt 0.822213 0.289744
vt 0.819123 0.263848
vt 0.672063 0.313364
vt 0.673628 0.264581
vt 0.936602 0.313364
vt 0.933416 0.264581
vt 0.941647 0.364922
vt 0.899640 0.363406
vt 0.623001 0.364960
vt 0.665562 0.364922
vt 0.668659 0.362549
vt 0.644119 0.361871
vt 0.647700 0.316485
vt 0.685132 0.316407
vt 0.859879 0.359936
vt 0.902447 0.361457
vt 0.941330 0.363919
vt 0.860378 0.362549
vt 0.606538 0.359936
vt 0.590374 0.313492
vt 0.601582 0.363919
vt 0.646474 0.289822
vt 0.601626 0.286829
vt 0.603191 0.260902
vt 0.648039 0.263334
vt 0.675760 0.289744
vt 0.677325 0.263848
vt 0.647700 0.841274
vt 0.590374 0.852894
vt 0.601626 0.821566
vt 0.646474 0.809945
vt 0.648039 0.806852
vt 0.603191 0.818572
vt 0.685132 0.853541
vt 0.675760 0.822213
vt 0.677325 0.819123
vt 0.500000 0.668378
vt 0.500000 0.724779
vt 0.517225 0.721513
vt 0.520785 0.669173
vt 0.528698 1.002924
vt 0.500000 1.014901
vt 0.500000 1.025182
vt 0.520785 1.015365
vt 0.500000 0.744181
vt 0.519989 0.740196
vt 0.519989 0.988807
vt 0.500000 0.995348
vt 0.500000 0.660499
vt 0.528698 0.661469
vt 0.154177 0.616909
vt 0.166410 0.570048
vt 0.135838 0.608740
vt 0.149154 0.567675
vt 0.147623 0.572395
vt 0.137518 0.603560
vt 0.583783 0.154177
vt 0.583848 0.135838
vt 0.600568 0.131366
vt 0.597073 0.144428
vt 0.144166 0.612314
vt 0.141084 0.620214
vt 0.132632 0.614576
vt 0.134671 0.609983
vt 0.153028 0.593819
vt 0.141399 0.592146
vt 0.619182 0.132632
vt 0.614588 0.141084
vt 0.606252 0.140479
vt 0.610351 0.130579
vt 0.138199 0.601250
vt 0.148213 0.603179
vt 0.602487 0.570048
vt 0.583783 0.616909
vt 0.597073 0.624463
vt 0.606252 0.625520
vt 0.614588 0.620214
vt 0.620822 0.612314
vt 0.623703 0.603179
vt 0.620639 0.593819
vt 0.604695 0.577238
vt 0.601269 0.572395
vt 0.603531 0.567675
vt 0.609313 0.614171
vt 0.615687 0.610750
vt 0.619182 0.614576
vt 0.610351 0.619358
vt 0.602434 0.613212
vt 0.600568 0.617961
vt 0.626402 0.601250
vt 0.623276 0.609983
vt 0.618527 0.594500
vt 0.623272 0.592146
vt 0.590602 0.606787
vt 0.583848 0.608740
vt 0.592903 0.603615
vt 0.603070 0.582298
vt 0.613048 0.594751
vt 0.610999 0.606475
vt 0.606401 0.608943
vt 0.601438 0.608251
vt 0.586331 0.603560
vt 0.600598 0.578805
vt 0.589822 0.601288
vt 0.148133 0.578805
vt 0.140843 0.601288
vt 0.522445 0.038205
vt 0.513246 0.032036
vt 0.507613 0.025182
vt 0.515546 0.030102
vt 0.521458 0.442272
vt 0.528336 0.428901
vt 0.500000 0.456702
vt 0.500000 0.445370
vt 0.500000 0.031689
vt 0.512541 0.032373
vt 0.506877 0.025742
vt 0.500000 0.025886
vt 0.500000 0.031337
vt 0.500000 0.025479
vt 0.030102 0.457928
vt 0.030515 0.446199
vt 0.432141 0.867914
vt 0.443845 0.927906
vt 0.379085 0.894044
vt 0.360683 0.828812
vt 0.439809 0.672195
vt 0.430298 0.558226
vt 0.400297 0.594201
vt 0.380247 0.672998
vt 0.419750 0.833374
vt 0.430922 0.759035
vt 0.362910 0.751725
vt 0.364577 0.812683
vt 0.430922 0.758996
vt 0.439809 0.671923
vt 0.454286 0.976119
vt 0.395580 0.951058
vt 0.395580 0.548422
vt 0.333098 0.547256
vt 0.311584 0.643970
vt 0.373635 0.643481
vt 0.436410 0.893919
vt 0.360683 0.793372
vt 0.328551 0.761101
vt 0.323030 0.643370
vt 0.340672 0.642712
vt 0.444006 0.632181
vt 0.395580 0.735145
vt 0.454286 0.747180
vt 0.427025 0.538591
vt 0.333098 0.715601
vt 0.427025 0.947229
vt 0.443553 0.575135
vt 0.400297 0.530171
vt 0.356060 0.535244
vt 0.340885 0.643738
vt 0.362910 0.643182
vt 0.435444 0.492909
vt 0.433984 0.447361
vt 0.430298 0.518348
vt 0.405006 0.421068
vt 0.383019 0.429733
vt 0.362474 0.771615
vt 0.387552 0.796381
vt 0.438918 0.382998
vt 0.421210 0.420824
vt 0.448920 0.357545
vt 0.398021 0.363238
vt 0.378773 0.407144
vt 0.332784 0.508652
vt 0.333539 0.413961
vt 0.367244 0.407548
vt 0.378773 0.499901
vt 0.362910 0.751727
vt 0.459125 0.268345
vt 0.417930 0.278839
vt 0.380247 0.672932
vt 0.448920 0.314473
vt 0.328551 0.517077
vt 0.328734 0.470798
vt 0.357619 0.470278
vt 0.364577 0.509803
vt 0.459125 0.239236
vt 0.435444 0.495971
vt 0.387552 0.579931
vt 0.371732 0.501290
vt 0.368885 0.457158
vt 0.460183 0.181283
vt 0.460183 0.140934
vt 0.460183 0.196322
vt 0.419994 0.205473
vt 0.378509 0.393435
vt 0.461297 0.608225
vt 0.473395 0.560962
vt 0.433984 0.450625
vt 0.460469 0.141037
vt 0.469367 0.116366
vt 0.437911 0.123733
vt 0.420553 0.149293
vt 0.457081 0.165879
vt 0.413943 0.174337
vt 0.484203 0.085531
vt 0.489280 0.071544
vt 0.476758 0.071388
vt 0.468516 0.086614
vt 0.398021 0.325561
vt 0.417930 0.249130
vt 0.419994 0.679456
vt 0.420401 0.648799
vt 0.460183 0.657159
vt 0.460183 0.690304
vt 0.486669 0.045311
vt 0.419994 0.191059
vt 0.422167 0.599988
vt 0.445768 0.556649
vt 0.469661 0.475706
vt 0.477555 0.462176
vt 0.486754 0.460736
vt 0.484790 0.477146
vt 0.484454 0.457928
vt 0.485561 0.446199
vt 0.493123 0.445401
vt 0.492387 0.457080
vt 0.471665 0.053210
vt 0.379159 0.601238
vt 0.385282 0.599612
vt 0.386922 0.604170
vt 0.381432 0.607555
vt 0.486669 0.424258
vt 0.487459 0.440917
vt 0.423568 0.505809
vt 0.452679 0.467354
vt 0.460520 0.507406
vt 0.480956 0.508271
vt 0.420401 0.168698
vt 0.422167 0.108290
vt 0.461297 0.096221
vt 0.479678 0.097153
vt 0.458025 0.104341
vt 0.378509 0.816867
vt 0.355733 0.774144
vt 0.330903 0.641253
vt 0.351886 0.640437
vt 0.398375 0.405151
vt 0.421210 0.496630
vt 0.379220 0.366797
vt 0.348274 0.367843
vt 0.350598 0.433451
vt 0.330908 0.368189
vt 0.364194 0.367147
vt 0.324343 0.324872
vt 0.360708 0.324944
vt 0.395132 0.366023
vt 0.400340 0.365401
vt 0.378349 0.293283
vt 0.378743 0.261665
vt 0.340632 0.261742
vt 0.341538 0.293469
vt 0.377606 0.322035
vt 0.343222 0.322330
vt 0.394336 0.324350
vt 0.400943 0.321655
vt 0.404597 0.548078
vt 0.409055 0.518571
vt 0.354176 0.523009
vt 0.378743 0.561263
vt 0.360141 0.470735
vt 0.313739 0.480362
vt 0.314593 0.500191
vt 0.351676 0.498544
vt 0.407749 0.493332
vt 0.316857 0.522344
vt 0.340632 0.560446
vt 0.403567 0.477757
vt 0.403321 0.292993
vt 0.404597 0.261464
vt 0.359645 0.307779
vt 0.396411 0.307317
vt 0.320262 0.307625
vt 0.322068 0.288897
vt 0.320535 0.262732
vt 0.360141 0.262967
vt 0.360320 0.289050
vt 0.396713 0.262636
vt 0.395646 0.288588
vt 0.320262 0.482345
vt 0.322068 0.451756
vt 0.360320 0.442459
vt 0.359645 0.473048
vt 0.360141 0.440146
vt 0.320535 0.449773
vt 0.395646 0.449241
vt 0.396411 0.479829
vt 0.396713 0.447168
vt 0.330810 0.894416
vt 0.328551 0.841501
vt 0.333098 0.940741
vt 0.407688 0.470184
vt 0.401774 0.414426
vt 0.378808 0.417417
vt 0.382476 0.471308
vt 0.356165 0.389418
vt 0.396460 0.389954
vt 0.401854 0.467455
vt 0.332380 0.471464
vt 0.419750 0.494548
vt 0.404289 0.312254
vt 0.402723 0.263453
vt 0.377163 0.264476
vt 0.378728 0.312916
vt 0.329852 0.393127
vt 0.333174 0.415674
vt 0.350300 0.837975
vt 0.312867 0.850246
vt 0.313942 0.890422
vt 0.364373 0.887710
vt 0.410353 0.893263
vt 0.407625 0.849695
vt 0.377163 0.940554
vt 0.402723 0.933075
vt 0.326372 0.933416
vt 0.326372 0.264581
vt 0.327937 0.313364
vt 0.376999 0.364960
vt 0.334438 0.364922
vt 0.331341 0.362549
vt 0.314868 0.316407
vt 0.352300 0.316485
vt 0.355881 0.361871
vt 0.409626 0.313492
vt 0.393462 0.359936
vt 0.398418 0.363919
vt 0.353526 0.289822
vt 0.351961 0.263334
vt 0.396809 0.260902
vt 0.398374 0.286829
vt 0.324240 0.289744
vt 0.322675 0.263848
vt 0.352300 0.841274
vt 0.353526 0.809945
vt 0.398374 0.821566
vt 0.409626 0.852894
vt 0.396809 0.818572
vt 0.351961 0.806852
vt 0.314868 0.853541
vt 0.324240 0.822213
vt 0.322675 0.819123
vt 0.479215 0.669173
vt 0.482775 0.721513
vt 0.471302 1.002924
vt 0.479215 1.015365
vt 0.480011 0.740196
vt 0.480011 0.988807
vt 0.471302 0.661469
vt 0.416217 0.154177
vt 0.402927 0.144428
vt 0.399432 0.131366
vt 0.416152 0.135838
vt 0.380819 0.132632
vt 0.389649 0.130579
vt 0.393748 0.140479
vt 0.385412 0.141084
vt 0.397513 0.570048
vt 0.379361 0.593819
vt 0.376297 0.603179
vt 0.379178 0.612314
vt 0.385412 0.620214
vt 0.393748 0.625520
vt 0.402927 0.624463
vt 0.416217 0.616909
vt 0.395305 0.577238
vt 0.396469 0.567675
vt 0.398731 0.572395
vt 0.390687 0.614171
vt 0.389649 0.619358
vt 0.380819 0.614576
vt 0.384313 0.610750
vt 0.397566 0.613212
vt 0.399432 0.617961
vt 0.376724 0.609983
vt 0.373598 0.601250
vt 0.376728 0.592146
vt 0.381473 0.594500
vt 0.409398 0.606787
vt 0.416152 0.608740
vt 0.407098 0.603615
vt 0.398562 0.608251
vt 0.393599 0.608943
vt 0.389001 0.606475
vt 0.386952 0.594751
vt 0.396930 0.582298
vt 0.413669 0.603560
vt 0.399402 0.578805
vt 0.410178 0.601288
vt 0.477555 0.038205
vt 0.484454 0.030102
vt 0.492387 0.025182
vt 0.486754 0.032036
vt 0.478542 0.442272
vt 0.471665 0.428901
vt 0.493123 0.025742
vt 0.487459 0.032373
vt 0.181819 0.000000
vt 0.227273 0.078731
vt 0.136365 0.078731
vt 0.272728 0.157461
vt 0.318182 0.078731
vt 0.363637 0.157461
vt 0.909091 0.000000
vt 0.954545 0.078731
vt 0.863636 0.078731
vt 0.727273 0.000000
vt 0.772727 0.078731
vt 0.681818 0.078731
vt 0.545455 0.000000
vt 0.590909 0.078731
vt 0.500000 0.078731
vt 0.318182 0.236191
vt 0.090910 0.157461
vt 0.181819 0.157461
vt 0.136365 0.236191
vt 0.818182 0.157461
vt 0.909091 0.157461
vt 0.863636 0.236191
vt 0.636364 0.157461
vt 0.727273 0.157461
vt 0.681818 0.236191
vt 0.454546 0.157461
vt 0.545455 0.157461
vt 0.500000 0.236191
vt 0.227273 0.236191
vt 0.045455 0.236191
vt 0.772727 0.236191
vt 0.590909 0.236191
vt 0.409092 0.236191
vt 0.181819 0.314921
vt 0.272728 0.314921
vt 0.227273 0.393651
vt 0.000000 0.314921
vt 0.090910 0.314921
vt 0.045455 0.393651
vt 0.727273 0.314921
vt 0.818182 0.314921
vt 0.772727 0.393651
vt 0.545455 0.314921
vt 0.636364 0.314921
vt 0.590909 0.393651
vt 0.363637 0.314921
vt 0.454546 0.314921
vt 0.409092 0.393651
vt 0.500000 0.393651
vt 0.454546 0.472382
vt 0.681818 0.393651
vt 0.636364 0.472382
vt 0.863636 0.393651
vt 0.818182 0.472382
vt 0.909091 0.314921
vt 0.136365 0.393651
vt 0.090910 0.472382
vt 0.318182 0.393651
vt 0.272728 0.472382
vt 0.954545 0.236191
vt 1.000000 0.157461
vt 0.409092 0.078731
vt 0.363637 0.000000
s 1
f 116/1/1 98/2/1 209/3/1 208/4/1
f 115/5/2 4/6/2 17/7/2 97/8/2
f 3/9/3 7/10/3 13/11/3 8/12/3
f 7/10/4 4/13/4 9/14/4 13/11/4
f 13/11/5 9/14/5 2/15/5 10/16/5
f 8/12/6 13/11/6 10/16/6 1/17/6
f 1/17/7 10/16/7 32/18/7 29/19/7
f 114/20/8 1/21/8 29/22/8 83/23/8
f 116/24/9 3/25/9 8/26/9 109/27/9
f 109/27/10 8/26/10 1/21/10 114/20/10
f 115/5/11 6/28/11 15/29/11 99/30/11
f 99/30/12 15/29/12 12/31/12 112/32/12
f 97/8/13 17/7/13 21/33/13 90/34/13
f 20/35/14 25/36/14 203/37/14 204/38/14
f 116/24/15 5/28/15 18/39/15 98/40/15
f 4/41/16 7/42/16 197/43/16 196/44/16
f 89/45/17 90/46/17 21/47/17 25/36/17
f 91/48/18 89/45/18 25/36/18 20/35/18
f 25/36/19 21/47/19 202/49/19 203/37/19
f 98/40/20 18/39/20 23/50/20 91/51/20
f 38/52/21 45/53/21 134/54/21 131/55/21
f 133/56/22 136/57/22 144/58/22 146/59/22
f 112/32/23 12/31/23 34/60/23 82/61/23
f 10/16/24 2/15/24 30/62/24 32/18/24
f 29/63/25 32/64/25 129/65/25 130/66/25
f 75/67/26 41/68/26 48/69/26 73/70/26
f 82/61/27 34/60/27 41/68/27 75/67/27
f 83/71/28 29/63/28 141/72/28 140/73/28
f 32/64/29 30/74/29 128/75/29 129/65/29
f 73/70/30 48/69/30 56/76/30 66/77/30
f 74/78/31 81/79/31 145/80/31 148/81/31
f 130/82/32 133/56/32 146/59/32 147/83/32
f 6/28/33 115/5/33 97/8/33 19/39/33
f 54/84/34 53/85/34 60/86/34 61/87/34
f 67/88/35 54/89/35 61/90/35 65/91/35
f 11/92/36 114/20/36 83/23/36 33/93/36
f 5/28/37 116/24/37 109/27/37 14/29/37
f 14/29/38 109/27/38 114/20/38 11/92/38
f 139/94/39 54/95/39 143/96/39 142/97/39
f 30/62/40 38/52/40 131/55/40 128/98/40
f 4/6/41 115/5/41 99/30/41 9/99/41
f 61/87/42 60/86/42 69/100/42 70/101/42
f 65/91/43 61/90/43 70/102/43 58/103/43
f 9/99/44 99/30/44 112/32/44 2/104/44
f 66/77/45 56/76/45 63/105/45 64/106/45
f 19/39/46 97/8/46 90/34/46 24/107/46
f 53/85/47 52/108/47 59/109/47 60/86/47
f 198/110/48 3/111/48 207/112/48 213/113/48
f 256/114/49 255/115/49 253/116/49 254/117/49
f 23/118/50 26/119/50 89/45/50 91/48/50
f 69/100/51 68/120/51 76/121/51 77/122/51
f 204/123/52 201/124/52 211/125/52 212/126/52
f 64/106/53 63/105/53 72/127/53 57/128/53
f 33/93/54 83/23/54 81/129/54 40/68/54
f 60/86/55 59/109/55 68/120/55 69/100/55
f 2/104/56 112/32/56 82/61/56 30/130/56
f 38/131/57 75/67/57 73/70/57 45/132/57
f 77/122/58 76/121/58 259/133/58 260/134/58
f 30/130/59 82/61/59 75/67/59 38/131/59
f 50/135/60 80/136/60 88/137/60 44/138/60
f 58/103/61 70/102/61 78/139/61 51/140/61
f 70/101/62 69/100/62 77/122/62 78/141/62
f 45/132/63 73/70/63 66/77/63 52/142/63
f 57/128/64 72/127/64 80/136/64 50/135/64
f 28/143/65 110/144/65 96/145/65 42/146/65
f 40/68/66 81/129/66 74/147/66 47/69/66
f 108/148/67 262/149/67 93/150/67 94/151/67
f 31/152/68 108/153/68 94/154/68 43/155/68
f 55/156/69 67/88/69 65/91/69 62/157/69
f 51/140/70 78/139/70 86/158/70 49/159/70
f 78/141/71 77/122/71 260/134/71 86/160/71
f 47/69/72 74/147/72 67/88/72 55/156/72
f 123/161/73 124/162/73 101/163/73 102/164/73
f 121/165/74 123/166/74 102/167/74 37/168/74
f 62/157/75 65/91/75 58/103/75 71/169/75
f 52/142/76 66/77/76 64/106/76 59/170/76
f 59/170/77 64/106/77 57/128/77 68/171/77
f 262/149/78 261/172/78 92/173/78 93/150/78
f 76/174/79 50/175/79 44/176/79 259/177/79
f 71/169/80 58/103/80 51/140/80 79/178/80
f 37/168/81 35/179/81 105/180/81 103/181/81
f 124/162/82 127/182/82 297/183/82 298/184/82 101/163/82
f 68/171/83 57/128/83 50/135/83 76/185/83
f 261/186/84 28/143/84 42/146/84 92/187/84
f 107/188/85 31/152/85 43/155/85 95/189/85
f 127/190/86 122/191/86 295/192/86 297/193/86
f 79/178/87 51/140/87 49/159/87 87/194/87
f 100/195/88 36/196/88 301/197/88 104/198/88
f 126/199/89 121/165/89 37/168/89 103/181/89
f 102/167/90 101/200/90 35/179/90 37/168/90
f 274/201/91 273/202/91 290/203/91 291/204/91
f 122/191/92 125/205/92 300/206/92 295/192/92
f 49/159/93 86/158/93 108/153/93 31/152/93
f 86/160/94 260/134/94 262/149/94 108/148/94
f 35/207/95 296/208/95 299/209/95 105/210/95
f 44/176/96 88/211/96 110/144/96 28/143/96
f 93/212/97 92/187/97 120/213/97 119/214/97
f 87/194/98 49/159/98 31/152/98 107/188/98
f 42/146/99 96/145/99 113/215/99 27/216/99
f 259/217/100 44/138/100 28/218/100 261/219/100
f 92/187/101 42/146/101 27/216/101 120/213/101
f 95/189/102 43/155/102 22/220/102 118/221/102
f 43/155/103 94/154/103 117/222/103 22/220/103
f 94/151/104 93/150/104 119/223/104 117/224/104
f 120/213/105 27/216/105 122/191/105 127/190/105
f 118/221/106 22/220/106 121/165/106 126/199/106
f 119/223/107 120/225/107 127/182/107 124/162/107
f 27/216/108 113/215/108 125/205/108 122/191/108
f 22/220/109 117/222/109 123/166/109 121/165/109
f 117/224/110 119/223/110 124/162/110 123/161/110
f 130/82/111 129/226/111 132/227/111 133/56/111
f 132/227/112 131/55/112 134/54/112 135/228/112
f 129/226/113 128/98/113 131/55/113 132/227/113
f 135/228/114 134/54/114 137/229/114 138/230/114
f 133/56/115 132/227/115 135/228/115 136/57/115
f 136/57/116 135/228/116 138/230/116 139/231/116
f 52/232/117 53/233/117 138/234/117 137/235/117
f 45/53/118 52/108/118 137/229/118 134/54/118
f 54/95/119 67/236/119 149/237/119 143/96/119
f 53/233/120 54/95/120 139/94/120 138/234/120
f 141/72/121 147/238/121 157/239/121 39/240/121
f 144/58/122 142/241/122 150/242/122 153/243/122
f 145/80/123 140/244/123 46/245/123 154/246/123
f 148/81/124 145/80/124 154/246/124 158/247/124
f 146/59/125 144/58/125 153/243/125 156/248/125
f 142/97/126 143/96/126 151/249/126 150/250/126
f 136/57/127 139/231/127 142/241/127 144/58/127
f 67/251/128 74/78/128 148/81/128 149/252/128
f 29/63/129 130/66/129 147/238/129 141/72/129
f 81/79/130 83/253/130 140/244/130 145/80/130
f 153/243/131 150/242/131 162/254/131 164/255/131
f 154/246/132 46/245/132 160/256/132 165/257/132
f 158/247/133 154/246/133 165/257/133 168/258/133
f 156/248/134 153/243/134 164/255/134 166/259/134
f 150/250/135 151/249/135 163/260/135 162/261/135
f 157/262/136 156/248/136 166/259/136 167/263/136
f 149/252/137 148/81/137 158/247/137 159/264/137
f 143/96/138 149/237/138 159/265/138 151/249/138
f 140/73/139 141/72/139 39/240/139 46/266/139
f 147/83/140 146/59/140 156/248/140 157/262/140
f 188/267/141 187/268/141 177/269/141 152/270/141
f 184/271/142 185/272/142 170/273/142 173/274/142
f 182/275/143 180/276/143 155/277/143 174/278/143
f 181/279/144 182/275/144 174/278/144 178/280/144
f 183/281/145 184/271/145 173/274/145 176/282/145
f 170/273/146 185/272/146 194/283/146 192/284/146
f 39/240/147 157/239/147 167/285/147 161/286/147
f 159/264/148 158/247/148 168/258/148 169/287/148
f 151/249/149 159/265/149 169/288/149 163/260/149
f 46/266/150 39/240/150 161/286/150 160/289/150
f 155/290/151 152/291/151 175/292/151 174/293/151
f 171/294/152 172/295/152 173/296/152 170/297/152
f 174/293/153 175/292/153 172/295/153 178/298/153
f 175/292/154 152/291/154 177/299/154 176/300/154
f 178/298/155 172/295/155 171/294/155 179/301/155
f 172/295/156 175/292/156 176/300/156 173/296/156
f 189/302/157 181/279/157 178/280/157 179/303/157
f 189/302/158 179/303/158 193/304/158 195/305/158
f 180/306/159 188/267/159 152/270/159 155/307/159
f 187/308/160 183/281/160 176/282/160 177/309/160
f 167/263/161 166/259/161 183/281/161 187/308/161
f 160/289/162 161/286/162 188/267/162 180/306/162
f 163/260/163 169/288/163 189/310/163 186/311/163
f 169/287/164 168/258/164 181/279/164 189/302/164
f 162/261/165 163/260/165 186/311/165 185/312/165
f 166/259/166 164/255/166 184/271/166 183/281/166
f 168/258/167 165/257/167 182/275/167 181/279/167
f 165/257/168 160/256/168 180/276/168 182/275/168
f 164/255/169 162/254/169 185/272/169 184/271/169
f 161/286/170 167/285/170 187/268/170 188/267/170
f 194/313/171 190/314/171 191/315/171 192/316/171
f 190/314/172 195/317/172 193/318/172 191/315/172
f 185/319/173 186/320/173 190/321/173 194/322/173
f 171/294/174 170/297/174 192/323/174 191/324/174
f 186/320/175 189/325/175 195/326/175 190/321/175
f 179/301/176 171/294/176 191/324/176 193/327/176
f 196/328/177 197/329/177 200/330/177 199/331/177
f 200/330/178 201/124/178 204/123/178 203/332/178
f 197/329/179 198/333/179 201/124/179 200/330/179
f 199/331/180 200/330/180 203/332/180 202/334/180
f 7/42/181 3/111/181 198/110/181 197/43/181
f 17/7/182 4/6/182 196/335/182 199/336/182
f 201/124/183 198/333/183 213/337/183 211/125/183
f 21/33/184 17/7/184 199/336/184 202/338/184
f 208/4/185 209/3/185 217/339/185 216/340/185
f 210/341/186 206/342/186 214/343/186 218/344/186
f 207/112/187 208/345/187 216/346/187 215/347/187
f 211/125/188 213/337/188 221/348/188 219/349/188
f 20/35/189 204/38/189 212/350/189 206/342/189
f 91/48/190 20/35/190 206/342/190 210/341/190
f 98/2/191 91/351/191 210/352/191 209/3/191
f 3/111/192 116/353/192 208/345/192 207/112/192
f 232/354/193 235/355/193 222/356/193 226/357/193
f 233/358/194 224/359/194 240/360/194 241/361/194
f 16/362/195 230/363/195 229/364/195 227/365/195
f 231/366/196 232/367/196 226/368/196 225/369/196
f 213/113/197 207/112/197 215/347/197 221/370/197
f 206/342/198 212/350/198 220/371/198 214/343/198
f 212/126/199 211/125/199 219/349/199 220/372/199
f 209/3/200 210/352/200 218/373/200 217/339/200
f 223/374/201 205/375/201 227/376/201 229/377/201
f 223/374/202 224/378/202 225/379/202 205/375/202
f 205/375/203 225/379/203 226/380/203 222/381/203
f 205/375/204 222/381/204 228/382/204 227/376/204
f 233/358/205 231/366/205 225/369/205 224/359/205
f 229/364/206 230/363/206 237/383/206 238/384/206
f 235/355/207 236/385/207 228/386/207 222/356/207
f 236/387/208 16/362/208 227/365/208 228/388/208
f 250/389/209 243/390/209 16/362/209 236/387/209
f 249/391/210 250/392/210 236/385/210 235/355/210
f 246/393/211 245/394/211 234/395/211 230/396/211
f 248/397/212 244/398/212 231/366/212 233/358/212
f 244/398/213 247/399/213 232/367/213 231/366/213
f 243/390/214 246/400/214 230/363/214 16/362/214
f 245/394/215 248/401/215 233/402/215 234/395/215
f 247/403/216 249/391/216 235/355/216 232/354/216
f 242/404/217 241/405/217 240/406/217 239/407/217
f 237/408/218 242/404/218 239/407/218 238/409/218
f 234/410/219 233/411/219 241/412/219 242/413/219
f 224/378/220 223/374/220 239/414/220 240/415/220
f 230/416/221 234/410/221 242/413/221 237/417/221
f 223/374/222 229/377/222 238/418/222 239/414/222
f 218/344/223 214/343/223 249/391/223 247/403/223
f 215/347/224 216/346/224 248/401/224 245/394/224
f 219/349/225 221/348/225 246/400/225 243/390/225
f 217/339/226 218/373/226 247/399/226 244/398/226
f 216/340/227 217/339/227 244/398/227 248/397/227
f 221/370/228 215/347/228 245/394/228 246/393/228
f 214/343/229 220/371/229 250/392/229 249/391/229
f 220/372/230 219/349/230 243/390/230 250/389/230
f 252/419/231 251/420/231 254/421/231 253/422/231
f 255/423/232 257/424/232 252/425/232 253/426/232
f 258/427/233 256/428/233 254/421/233 251/420/233
f 24/107/234 90/34/234 256/429/234 258/430/234
f 89/45/235 26/119/235 257/431/235 255/432/235
f 90/46/236 89/45/236 255/432/236 256/428/236
f 84/433/237 85/434/237 260/134/237 259/133/237
f 275/435/238 84/433/238 259/133/238 261/172/238
f 85/434/239 276/436/239 262/149/239 260/134/239
f 276/436/240 284/437/240 283/438/240 275/435/240 261/172/240 262/149/240
f 84/439/241 275/440/241 279/441/241 263/442/241
f 266/443/242 264/444/242 278/445/242 280/446/242
f 276/436/243 85/434/243 267/447/243 282/448/243
f 278/449/244 264/450/244 265/451/244 277/452/244
f 277/452/245 265/451/245 263/442/245 279/441/245
f 266/443/246 280/446/246 281/453/246 268/454/246
f 268/454/247 281/453/247 282/448/247 267/447/247
f 85/455/248 84/456/248 263/457/248 265/458/248 264/459/248 266/460/248 268/461/248 267/462/248
f 106/463/249 284/464/249 276/465/249
f 271/466/250 269/467/250 278/468/250 277/469/250
f 270/470/251 271/466/251 277/469/251 279/471/251
f 273/202/252 274/201/252 281/472/252 280/473/252
f 274/201/253 272/474/253 282/475/253 281/472/253
f 269/467/254 273/202/254 280/473/254 278/468/254
f 111/476/255 270/470/255 279/471/255 275/477/255
f 272/474/256 106/463/256 276/465/256 282/475/256
f 285/478/257 286/479/257 292/480/257 291/204/257 290/203/257 288/481/257 287/482/257 289/483/257
f 283/484/258 111/476/258 275/477/258
f 270/470/259 111/476/259 285/478/259 289/483/259
f 294/485/260 286/479/260 285/478/260 293/486/260
f 111/476/261 283/484/261 293/486/261 285/478/261
f 106/463/262 272/474/262 292/480/262 286/479/262
f 272/474/263 274/201/263 291/204/263 292/480/263
f 269/467/264 271/466/264 287/482/264 288/481/264
f 283/438/265 284/437/265 294/487/265 293/488/265
f 273/202/266 269/467/266 288/481/266 290/203/266
f 284/464/267 106/463/267 286/479/267 294/485/267
f 271/466/268 270/470/268 289/483/268 287/482/268
f 297/489/269 295/490/269 36/491/269 100/492/269
f 296/208/270 298/493/270 104/198/270 301/197/270
f 101/494/271 298/493/271 296/208/271 35/207/271
f 36/196/272 302/495/272 303/496/272 301/197/272
f 299/497/273 296/498/273 301/499/273 303/500/273
f 295/490/274 300/501/274 302/502/274 36/491/274
f 298/184/275 297/183/275 100/503/275 104/504/275
f 385/1/276 474/4/276 475/3/276 372/2/276
f 384/505/277 371/506/277 314/507/277 307/508/277
f 306/9/278 309/12/278 312/11/278 308/10/278
f 308/10/279 312/11/279 310/14/279 307/13/279
f 312/11/280 311/16/280 305/15/280 310/14/280
f 309/12/281 304/17/281 311/16/281 312/11/281
f 304/17/282 321/19/282 324/18/282 311/16/282
f 383/509/283 361/510/283 321/511/283 304/512/283
f 385/513/284 380/514/284 309/515/284 306/516/284
f 380/514/285 383/509/285 304/512/285 309/515/285
f 384/505/286 373/517/286 15/29/286 6/28/286
f 373/517/287 382/518/287 12/31/287 15/29/287
f 371/506/288 366/519/288 316/520/288 314/507/288
f 315/521/289 470/522/289 469/523/289 318/524/289
f 385/513/290 372/525/290 18/39/290 5/28/290
f 307/526/291 462/527/291 463/528/291 308/529/291
f 365/530/292 318/524/292 316/531/292 366/532/292
f 367/533/293 315/521/293 318/524/293 365/530/293
f 318/524/294 469/523/294 468/534/294 316/531/294
f 372/525/295 367/535/295 23/50/295 18/39/295
f 328/52/296 397/55/296 400/54/296 333/53/296
f 399/56/297 412/59/297 410/58/297 402/57/297
f 382/518/298 360/536/298 34/60/298 12/31/298
f 311/16/299 324/18/299 322/62/299 305/15/299
f 321/537/300 396/538/300 395/539/300 324/540/300
f 355/541/301 353/542/301 48/69/301 41/68/301
f 360/536/302 355/541/302 41/68/302 34/60/302
f 361/543/303 406/544/303 407/545/303 321/537/303
f 324/540/304 395/539/304 394/546/304 322/547/304
f 353/542/305 348/548/305 56/76/305 48/69/305
f 354/78/306 414/81/306 411/80/306 359/79/306
f 396/82/307 413/83/307 412/59/307 399/56/307
f 6/28/308 19/39/308 371/506/308 384/505/308
f 340/84/309 345/87/309 344/86/309 339/85/309
f 349/549/310 347/550/310 345/551/310 340/552/310
f 11/92/311 33/93/311 361/510/311 383/509/311
f 5/28/312 14/29/312 380/514/312 385/513/312
f 14/29/313 11/92/313 383/509/313 380/514/313
f 405/553/314 408/554/314 409/555/314 340/556/314
f 322/62/315 394/98/315 397/55/315 328/52/315
f 307/508/316 310/557/316 373/517/316 384/505/316
f 345/87/317 352/101/317 351/100/317 344/86/317
f 347/550/318 342/558/318 352/559/318 345/551/318
f 310/557/319 305/560/319 382/518/319 373/517/319
f 348/548/320 346/561/320 63/105/320 56/76/320
f 19/39/321 24/107/321 366/519/321 371/506/321
f 339/85/322 344/86/322 343/109/322 338/108/322
f 464/562/323 479/563/323 473/564/323 306/565/323
f 520/114/324 518/117/324 517/116/324 519/115/324
f 23/118/325 367/533/325 365/530/325 26/119/325
f 351/100/326 357/122/326 356/121/326 350/120/326
f 470/123/327 478/126/327 477/125/327 467/124/327
f 346/561/328 341/566/328 72/127/328 63/105/328
f 33/93/329 40/68/329 359/567/329 361/510/329
f 344/86/330 351/100/330 350/120/330 343/109/330
f 305/560/331 322/568/331 360/536/331 382/518/331
f 328/569/332 333/570/332 353/542/332 355/541/332
f 357/122/333 522/134/333 521/133/333 356/121/333
f 322/568/334 328/569/334 355/541/334 360/536/334
f 336/571/335 332/572/335 88/137/335 80/136/335
f 342/558/336 337/573/336 358/574/336 352/559/336
f 352/101/337 358/141/337 357/122/337 351/100/337
f 333/570/338 338/575/338 348/548/338 353/542/338
f 341/566/339 336/571/339 80/136/339 72/127/339
f 320/576/340 330/577/340 96/145/340 110/144/340
f 40/68/341 47/69/341 354/578/341 359/567/341
f 379/148/342 370/151/342 369/150/342 524/149/342
f 323/579/343 331/580/343 370/581/343 379/582/343
f 55/156/344 62/157/344 347/550/344 349/549/344
f 337/573/345 335/583/345 364/584/345 358/574/345
f 358/141/346 364/160/346 522/134/346 357/122/346
f 47/69/347 55/156/347 349/549/347 354/578/347
f 391/161/348 376/164/348 375/163/348 392/162/348
f 389/585/349 327/586/349 376/587/349 391/588/349
f 62/157/350 71/169/350 342/558/350 347/550/350
f 338/575/351 343/589/351 346/561/351 348/548/351
f 343/589/352 350/590/352 341/566/352 346/561/352
f 524/149/353 369/150/353 368/173/353 523/172/353
f 356/591/354 521/592/354 332/593/354 336/594/354
f 71/169/355 79/178/355 337/573/355 342/558/355
f 327/586/356 103/181/356 105/180/356 325/595/356
f 392/162/357 375/163/357 560/184/357 559/183/357 393/182/357
f 350/590/358 356/596/358 336/571/358 341/566/358
f 523/597/359 368/598/359 330/577/359 320/576/359
f 107/188/360 95/189/360 331/580/360 323/579/360
f 393/599/361 559/600/361 557/601/361 390/602/361
f 79/178/362 87/194/362 335/583/362 337/573/362
f 374/603/363 377/604/363 561/605/363 326/606/363
f 126/199/364 103/181/364 327/586/364 389/585/364
f 376/587/365 327/586/365 325/595/365 375/607/365
f 536/608/366 553/609/366 552/610/366 535/611/366
f 390/602/367 557/601/367 300/206/367 125/205/367
f 335/583/368 323/579/368 379/582/368 364/584/368
f 364/160/369 379/148/369 524/149/369 522/134/369
f 325/612/370 105/210/370 299/209/370 558/613/370
f 332/593/371 320/576/371 110/144/371 88/211/371
f 369/614/372 387/615/372 388/616/372 368/598/372
f 87/194/373 107/188/373 323/579/373 335/583/373
f 330/577/374 319/617/374 113/215/374 96/145/374
f 521/618/375 523/619/375 320/620/375 332/572/375
f 368/598/376 388/616/376 319/617/376 330/577/376
f 95/189/377 118/221/377 317/621/377 331/580/377
f 331/580/378 317/621/378 386/622/378 370/581/378
f 370/151/379 386/224/379 387/223/379 369/150/379
f 388/616/380 393/599/380 390/602/380 319/617/380
f 118/221/381 126/199/381 389/585/381 317/621/381
f 387/223/382 392/162/382 393/182/382 388/225/382
f 319/617/383 390/602/383 125/205/383 113/215/383
f 317/621/384 389/585/384 391/588/384 386/622/384
f 386/224/385 391/161/385 392/162/385 387/223/385
f 396/82/386 399/56/386 398/227/386 395/226/386
f 398/227/387 401/228/387 400/54/387 397/55/387
f 395/226/388 398/227/388 397/55/388 394/98/388
f 401/228/389 404/230/389 403/229/389 400/54/389
f 399/56/390 402/57/390 401/228/390 398/227/390
f 402/57/391 405/231/391 404/230/391 401/228/391
f 338/623/392 403/624/392 404/625/392 339/626/392
f 333/53/393 400/54/393 403/229/393 338/108/393
f 340/556/394 409/555/394 415/627/394 349/628/394
f 339/626/395 404/625/395 405/553/395 340/556/395
f 407/545/396 329/629/396 423/630/396 413/631/396
f 410/58/397 419/243/397 416/242/397 408/241/397
f 411/80/398 420/246/398 334/245/398 406/244/398
f 414/81/399 424/247/399 420/246/399 411/80/399
f 412/59/400 422/248/400 419/243/400 410/58/400
f 408/554/401 416/632/401 417/633/401 409/555/401
f 402/57/402 410/58/402 408/241/402 405/231/402
f 349/251/403 415/252/403 414/81/403 354/78/403
f 321/537/404 407/545/404 413/631/404 396/538/404
f 359/79/405 411/80/405 406/244/405 361/253/405
f 419/243/406 430/255/406 428/254/406 416/242/406
f 420/246/407 431/257/407 426/256/407 334/245/407
f 424/247/408 434/258/408 431/257/408 420/246/408
f 422/248/409 432/259/409 430/255/409 419/243/409
f 416/632/410 428/634/410 429/635/410 417/633/410
f 423/262/411 433/263/411 432/259/411 422/248/411
f 415/252/412 425/264/412 424/247/412 414/81/412
f 409/555/413 417/633/413 425/636/413 415/627/413
f 406/544/414 334/637/414 329/629/414 407/545/414
f 413/83/415 423/262/415 422/248/415 412/59/415
f 454/638/416 418/639/416 443/640/416 453/641/416
f 450/271/417 439/274/417 436/273/417 451/272/417
f 448/275/418 440/278/418 421/277/418 446/276/418
f 447/279/419 444/280/419 440/278/419 448/275/419
f 449/281/420 442/282/420 439/274/420 450/271/420
f 436/273/421 458/284/421 460/283/421 451/272/421
f 329/629/422 427/642/422 433/643/422 423/630/422
f 425/264/423 435/287/423 434/258/423 424/247/423
f 417/633/424 429/635/424 435/644/424 425/636/424
f 334/637/425 426/645/425 427/642/425 329/629/425
f 421/646/426 440/647/426 441/648/426 418/649/426
f 437/650/427 436/651/427 439/652/427 438/653/427
f 440/647/428 444/654/428 438/653/428 441/648/428
f 441/648/429 442/655/429 443/656/429 418/649/429
f 444/654/430 445/657/430 437/650/430 438/653/430
f 438/653/431 439/652/431 442/655/431 441/648/431
f 455/302/432 445/303/432 444/280/432 447/279/432
f 455/302/433 461/305/433 459/304/433 445/303/433
f 446/658/434 421/659/434 418/639/434 454/638/434
f 453/308/435 443/309/435 442/282/435 449/281/435
f 433/263/436 453/308/436 449/281/436 432/259/436
f 426/645/437 446/658/437 454/638/437 427/642/437
f 429/635/438 452/660/438 455/661/438 435/644/438
f 435/287/439 455/302/439 447/279/439 434/258/439
f 428/634/440 451/662/440 452/660/440 429/635/440
f 432/259/441 449/281/441 450/271/441 430/255/441
f 434/258/442 447/279/442 448/275/442 431/257/442
f 431/257/443 448/275/443 446/276/443 426/256/443
f 430/255/444 450/271/444 451/272/444 428/254/444
f 427/642/445 454/638/445 453/641/445 433/643/445
f 460/663/446 458/664/446 457/665/446 456/666/446
f 456/666/447 457/665/447 459/667/447 461/668/447
f 451/669/448 460/670/448 456/671/448 452/672/448
f 437/650/449 457/673/449 458/674/449 436/651/449
f 452/672/450 456/671/450 461/675/450 455/676/450
f 445/657/451 459/677/451 457/673/451 437/650/451
f 462/328/452 465/331/452 466/330/452 463/329/452
f 466/330/453 469/332/453 470/123/453 467/124/453
f 463/329/454 466/330/454 467/124/454 464/333/454
f 465/331/455 468/334/455 469/332/455 466/330/455
f 308/529/456 463/528/456 464/562/456 306/565/456
f 314/507/457 465/678/457 462/679/457 307/508/457
f 467/124/458 477/125/458 479/337/458 464/333/458
f 316/520/459 468/680/459 465/678/459 314/507/459
f 474/4/460 482/340/460 483/339/460 475/3/460
f 476/681/461 484/682/461 480/683/461 472/684/461
f 473/564/462 481/685/462 482/686/462 474/687/462
f 477/125/463 485/349/463 487/348/463 479/337/463
f 315/521/464 472/684/464 478/688/464 470/522/464
f 367/533/465 476/681/465 472/684/465 315/521/465
f 372/2/466 475/3/466 476/352/466 367/351/466
f 306/565/467 473/564/467 474/687/467 385/689/467
f 498/690/468 492/691/468 488/692/468 501/693/468
f 499/358/469 507/361/469 506/360/469 490/359/469
f 313/362/470 493/365/470 495/364/470 496/363/470
f 497/366/471 491/369/471 492/368/471 498/367/471
f 479/563/472 487/694/472 481/685/472 473/564/472
f 472/684/473 480/683/473 486/695/473 478/688/473
f 478/126/474 486/372/474 485/349/474 477/125/474
f 475/3/475 483/339/475 484/373/475 476/352/475
f 489/696/476 495/697/476 493/698/476 471/699/476
f 489/696/477 471/699/477 491/700/477 490/701/477
f 471/699/478 488/702/478 492/703/478 491/700/478
f 471/699/479 493/698/479 494/704/479 488/702/479
f 499/358/480 490/359/480 491/369/480 497/366/480
f 495/364/481 504/384/481 503/383/481 496/363/481
f 501/693/482 488/692/482 494/705/482 502/706/482
f 502/387/483 494/388/483 493/365/483 313/362/483
f 516/389/484 502/387/484 313/362/484 509/390/484
f 515/707/485 501/693/485 502/706/485 516/708/485
f 512/709/486 496/710/486 500/711/486 511/712/486
f 514/397/487 499/358/487 497/366/487 510/398/487
f 510/398/488 497/366/488 498/367/488 513/399/488
f 509/390/489 313/362/489 496/363/489 512/400/489
f 511/712/490 500/711/490 499/713/490 514/714/490
f 513/715/491 498/690/491 501/693/491 515/707/491
f 508/716/492 505/717/492 506/718/492 507/719/492
f 503/720/493 504/721/493 505/717/493 508/716/493
f 500/722/494 508/723/494 507/724/494 499/725/494
f 490/701/495 506/726/495 505/727/495 489/696/495
f 496/728/496 503/729/496 508/723/496 500/722/496
f 489/696/497 505/727/497 504/730/497 495/697/497
f 484/682/498 513/715/498 515/707/498 480/683/498
f 481/685/499 511/712/499 514/714/499 482/686/499
f 485/349/500 509/390/500 512/400/500 487/348/500
f 483/339/501 510/398/501 513/399/501 484/373/501
f 482/340/502 514/397/502 510/398/502 483/339/502
f 487/694/503 512/709/503 511/712/503 481/685/503
f 480/683/504 515/707/504 516/708/504 486/695/504
f 486/372/505 516/389/505 509/390/505 485/349/505
f 252/419/506 517/731/506 518/732/506 251/420/506
f 519/733/507 517/734/507 252/425/507 257/424/507
f 258/427/508 251/420/508 518/732/508 520/735/508
f 24/107/509 258/430/509 520/736/509 366/519/509
f 365/530/510 519/737/510 257/431/510 26/119/510
f 366/532/511 520/735/511 519/737/511 365/530/511
f 362/433/512 521/133/512 522/134/512 363/434/512
f 537/435/513 523/172/513 521/133/513 362/433/513
f 363/434/514 522/134/514 524/149/514 538/436/514
f 538/436/515 524/149/515 523/172/515 537/435/515 545/438/515 546/437/515
f 362/738/516 525/739/516 541/740/516 537/741/516
f 528/443/517 542/446/517 540/445/517 526/444/517
f 538/436/518 544/448/518 529/447/518 363/434/518
f 540/742/519 539/743/519 527/744/519 526/745/519
f 539/743/520 541/740/520 525/739/520 527/744/520
f 528/443/521 530/454/521 543/453/521 542/446/521
f 530/454/522 529/447/522 544/448/522 543/453/522
f 363/746/523 529/747/523 530/748/523 528/749/523 526/750/523 527/751/523 525/752/523 362/753/523
f 378/754/524 538/755/524 546/756/524
f 533/757/525 539/758/525 540/759/525 531/760/525
f 532/761/526 541/762/526 539/758/526 533/757/526
f 535/611/527 542/763/527 543/764/527 536/608/527
f 536/608/528 543/764/528 544/765/528 534/766/528
f 531/760/529 540/759/529 542/763/529 535/611/529
f 381/767/530 537/768/530 541/762/530 532/761/530
f 534/766/531 544/765/531 538/755/531 378/754/531
f 547/769/532 551/770/532 549/771/532 550/772/532 552/610/532 553/609/532 554/773/532 548/774/532
f 545/775/533 537/768/533 381/767/533
f 532/761/534 551/770/534 547/769/534 381/767/534
f 556/776/535 555/777/535 547/769/535 548/774/535
f 381/767/536 547/769/536 555/777/536 545/775/536
f 378/754/537 548/774/537 554/773/537 534/766/537
f 534/766/538 554/773/538 553/609/538 536/608/538
f 531/760/539 550/772/539 549/771/539 533/757/539
f 545/438/540 555/488/540 556/487/540 546/437/540
f 535/611/541 552/610/541 550/772/541 531/760/541
f 546/756/542 556/776/542 548/774/542 378/754/542
f 533/757/543 549/771/543 551/770/543 532/761/543
f 559/778/544 374/779/544 326/780/544 557/781/544
f 558/613/545 561/605/545 377/604/545 560/782/545
f 375/783/546 325/612/546 558/613/546 560/782/546
f 326/606/547 561/605/547 303/496/547 302/495/547
f 299/497/548 303/500/548 561/784/548 558/785/548
f 557/781/549 326/780/549 302/502/549 300/501/549
f 560/184/550 377/504/550 374/503/550 559/183/550
f 562/786/551 575/787/551 574/788/551
f 563/789/552 575/790/552 577/791/552
f 562/792/553 574/793/553 579/794/553
f 562/795/554 579/796/554 581/797/554
f 562/798/555 581/799/555 578/800/555
f 563/789/556 577/791/556 584/801/556
f 564/802/557 576/803/557 586/804/557
f 565/805/558 580/806/558 588/807/558
f 566/808/559 582/809/559 590/810/559
f 567/811/560 583/812/560 592/813/560
f 563/789/561 584/801/561 587/814/561
f 564/802/562 586/804/562 589/815/562
f 565/805/563 588/807/563 591/816/563
f 566/808/564 590/810/564 593/817/564
f 567/811/565 592/813/565 585/818/565
f 568/819/566 594/820/566 599/821/566
f 569/822/567 595/823/567 601/824/567
f 570/825/568 596/826/568 602/827/568
f 571/828/569 597/829/569 603/830/569
f 572/831/570 598/832/570 600/833/570
f 600/833/571 603/834/571 573/835/571
f 600/833/572 598/832/572 603/834/572
f 598/832/573 571/828/573 603/834/573
f 603/830/574 602/836/574 573/837/574
f 603/830/575 597/829/575 602/836/575
f 597/829/576 570/825/576 602/836/576
f 602/827/577 601/838/577 573/839/577
f 602/827/578 596/826/578 601/838/578
f 596/826/579 569/840/579 601/838/579
f 601/824/580 599/841/580 573/842/580
f 601/824/581 595/823/581 599/841/581
f 595/823/582 568/819/582 599/841/582
f 599/821/583 600/843/583 573/844/583
f 599/821/584 594/820/584 600/843/584
f 594/820/585 572/831/585 600/843/585
f 585/818/586 598/832/586 572/831/586
f 585/818/587 592/813/587 598/832/587
f 592/813/588 571/828/588 598/832/588
f 593/817/589 597/829/589 571/828/589
f 593/817/590 590/810/590 597/829/590
f 590/810/591 570/825/591 597/829/591
f 591/816/592 596/826/592 570/825/592
f 591/816/593 588/807/593 596/826/593
f 588/807/594 569/840/594 596/826/594
f 589/815/595 595/823/595 569/822/595
f 589/815/596 586/804/596 595/823/596
f 586/804/597 568/819/597 595/823/597
f 587/814/598 594/820/598 568/819/598
f 587/814/599 584/801/599 594/820/599
f 584/801/600 572/831/600 594/820/600
f 592/813/601 593/817/601 571/828/601
f 592/813/602 583/812/602 593/817/602
f 583/812/603 566/808/603 593/817/603
f 590/810/604 591/816/604 570/825/604
f 590/810/605 582/809/605 591/816/605
f 582/809/606 565/805/606 591/816/606
f 588/807/607 589/845/607 569/840/607
f 588/807/608 580/806/608 589/845/608
f 580/806/609 564/846/609 589/845/609
f 586/804/610 587/814/610 568/819/610
f 586/804/611 576/803/611 587/814/611
f 576/803/612 563/789/612 587/814/612
f 584/801/613 585/818/613 572/831/613
f 584/801/614 577/791/614 585/818/614
f 577/791/615 567/811/615 585/818/615
f 578/800/616 583/812/616 567/811/616
f 578/800/617 581/799/617 583/812/617
f 581/799/618 566/808/618 583/812/618
f 581/797/619 582/809/619 566/808/619
f 581/797/620 579/796/620 582/809/620
f 579/796/621 565/805/621 582/809/621
f 579/794/622 580/806/622 565/805/622
f 579/794/623 574/793/623 580/806/623
f 574/793/624 564/846/624 580/806/624
f 577/791/625 578/847/625 567/811/625
f 577/791/626 575/790/626 578/847/626
f 575/790/627 562/848/627 578/847/627
f 574/788/628 576/803/628 564/802/628
f 574/788/629 575/787/629 576/803/629
f 575/787/630 563/789/630 576/803/630
f 604/786/631 616/788/631 617/787/631
f 605/789/632 619/791/632 617/790/632
f 604/792/633 621/794/633 616/793/633
f 604/795/634 623/797/634 621/796/634
f 604/798/635 620/800/635 623/799/635
f 605/789/636 626/801/636 619/791/636
f 606/802/637 628/804/637 618/803/637
f 607/805/638 630/807/638 622/806/638
f 608/808/639 632/810/639 624/809/639
f 609/811/640 634/813/640 625/812/640
f 605/789/641 629/814/641 626/801/641
f 606/802/642 631/815/642 628/804/642
f 607/805/643 633/816/643 630/807/643
f 608/808/644 635/817/644 632/810/644
f 609/811/645 627/818/645 634/813/645
f 610/819/646 641/821/646 636/820/646
f 611/822/647 643/824/647 637/823/647
f 612/825/648 644/827/648 638/826/648
f 613/828/649 645/830/649 639/829/649
f 614/831/650 642/833/650 640/832/650
f 642/833/651 615/835/651 645/834/651
f 642/833/652 645/834/652 640/832/652
f 640/832/653 645/834/653 613/828/653
f 645/830/654 615/837/654 644/836/654
f 645/830/655 644/836/655 639/829/655
f 639/829/656 644/836/656 612/825/656
f 644/827/657 615/839/657 643/838/657
f 644/827/658 643/838/658 638/826/658
f 638/826/659 643/838/659 611/840/659
f 643/824/660 615/842/660 641/841/660
f 643/824/661 641/841/661 637/823/661
f 637/823/662 641/841/662 610/819/662
f 641/821/663 615/844/663 642/843/663
f 641/821/664 642/843/664 636/820/664
f 636/820/665 642/843/665 614/831/665
f 627/818/666 614/831/666 640/832/666
f 627/818/667 640/832/667 634/813/667
f 634/813/668 640/832/668 613/828/668
f 635/817/669 613/828/669 639/829/669
f 635/817/670 639/829/670 632/810/670
f 632/810/671 639/829/671 612/825/671
f 633/816/672 612/825/672 638/826/672
f 633/816/673 638/826/673 630/807/673
f 630/807/674 638/826/674 611/840/674
f 631/815/675 611/822/675 637/823/675
f 631/815/676 637/823/676 628/804/676
f 628/804/677 637/823/677 610/819/677
f 629/814/678 610/819/678 636/820/678
f 629/814/679 636/820/679 626/801/679
f 626/801/680 636/820/680 614/831/680
f 634/813/681 613/828/681 635/817/681
f 634/813/682 635/817/682 625/812/682
f 625/812/683 635/817/683 608/808/683
f 632/810/684 612/825/684 633/816/684
f 632/810/685 633/816/685 624/809/685
f 624/809/686 633/816/686 607/805/686
f 630/807/687 611/840/687 631/845/687
f 630/807/688 631/845/688 622/806/688
f 622/806/689 631/845/689 606/846/689
f 628/804/690 610/819/690 629/814/690
f 628/804/691 629/814/691 618/803/691
f 618/803/692 629/814/692 605/789/692
f 626/801/693 614/831/693 627/818/693
f 626/801/694 627/818/694 619/791/694
f 619/791/695 627/818/695 609/811/695
f 620/800/696 609/811/696 625/812/696
f 620/800/697 625/812/697 623/799/697
f 623/799/698 625/812/698 608/808/698
f 623/797/699 608/808/699 624/809/699
f 623/797/700 624/809/700 621/796/700
f 621/796/701 624/809/701 607/805/701
f 621/794/702 607/805/702 622/806/702
f 621/794/703 622/806/703 616/793/703
f 616/793/704 622/806/704 606/846/704
f 619/791/705 609/811/705 620/847/705
f 619/791/706 620/847/706 617/790/706
f 617/790/707 620/847/707 604/848/707
f 616/788/708 606/802/708 618/803/708
f 616/788/709 618/803/709 617/787/709
f 617/787/710 618/803/710 605/789/710
