# Blender 5.1.1
# www.blender.org
mtllib low_poly_wolf_animated0015.mtl
o Wolf
v -0.164599 3.454113 -2.120492
v -0.513392 1.476240 -2.247535
v 0.014477 3.786623 -0.927469
v -0.492070 1.725531 -2.613784
v -0.707723 1.594144 -1.993492
v 0.139292 3.464496 3.129167
v 0.572557 3.565531 0.342382
v -0.551072 2.995718 -2.040241
v 0.235089 2.160982 -0.295945
v -0.774402 2.236472 -1.426311
v 0.313225 3.480271 2.853919
v -0.571847 1.678414 -1.767292
v -0.614794 3.227102 -1.063518
v -0.853172 0.337859 -2.757415
v 0.682406 3.081871 -1.787869
v -0.297389 2.157934 -1.539874
v -0.849381 2.255391 -1.893098
v -0.104333 2.685870 1.689766
v -0.561049 1.759194 -2.652206
v 0.324877 2.407633 -0.811594
v -0.145085 1.999771 0.286595
v -0.414100 0.756366 2.162230
v 0.454699 1.792924 -2.277066
v -0.587329 1.750632 0.533154
v -0.262302 0.703885 1.934323
v -0.115231 3.030654 -2.249965
v -0.482463 3.337515 -1.195049
v 0.333872 2.008642 0.269435
v -0.539606 2.800167 -0.236193
v -0.397068 1.778163 0.855421
v 0.520570 1.621229 -2.915228
v -0.420351 2.490078 -1.047774
v -0.475419 3.182873 1.435449
v -0.158830 2.296910 -3.256708
v 0.137650 2.265292 -1.651765
v -0.570743 2.687507 0.187107
v -0.226957 3.910996 1.040000
v -0.262123 0.958949 1.852400
v -0.435189 3.546781 0.378374
v -0.494452 1.844614 0.895335
v -0.448457 3.302368 1.250264
v 0.615499 3.668102 1.194427
v 0.454092 4.099818 2.740276
v -0.383271 4.551756 2.260610
v 0.433276 4.127249 2.756054
v 0.417339 4.133996 2.764303
v -0.790657 2.829027 -1.612530
v 0.382053 4.130329 2.777567
v -0.120285 3.924239 2.725559
v 0.353561 4.105866 2.782499
v 0.345494 4.088531 2.781099
v 0.655288 3.757729 2.222836
v 0.345587 4.051961 2.771234
v 0.353739 4.036310 2.763733
v -0.055678 3.048372 -2.314354
v 0.382341 4.017784 2.747206
v 0.399992 4.016723 2.739795
v 0.417627 4.021452 2.733942
v 0.652837 3.425141 1.042294
v 0.446119 4.045914 2.729010
v 0.454186 4.063253 2.730409
v -0.589283 0.894160 2.098055
v 0.454092 4.111017 2.734608
v -0.093594 4.088098 2.777982
v 0.433276 4.138614 2.749965
v 0.417339 4.145475 2.758107
v -0.482293 0.969875 2.149046
v 0.382053 4.142048 2.771406
v 0.940336 0.822007 2.130380
v 0.353561 4.117832 2.776655
v 0.345494 4.100612 2.775481
v 0.489180 3.262032 -1.550842
v 0.345587 4.064138 2.766129
v 0.353739 4.048413 2.758882
v 0.645238 1.053099 1.562311
v 0.382341 4.029567 2.742702
v 0.399992 4.028324 2.735337
v 0.417627 4.032884 2.729438
v -0.413725 4.288883 2.127924
v 0.446119 4.057125 2.724156
v 0.454186 4.074415 2.725297
v -0.153177 4.367495 2.623852
v -0.452637 2.834626 -2.194972
v -0.115812 3.999204 0.905625
v -0.260414 2.413863 -0.782919
v -0.120532 2.062213 -3.280529
v 0.666298 0.688711 -3.084954
v 0.830145 2.591905 -1.644402
v 0.393917 4.086954 2.755201
v -0.062804 4.058653 2.747082
v 0.715795 3.399858 0.282217
v 0.510534 3.204734 1.868140
v -0.475187 3.209038 -2.007635
v 0.696580 2.850847 -2.001523
v -0.534906 2.690974 1.445548
v 0.139328 2.745421 1.897236
v 0.035093 4.029144 2.838497
v 0.446216 2.822779 -2.210190
v -0.765821 2.767695 -1.221409
v -0.458964 0.846277 2.292894
v 0.571863 1.678424 -1.767141
v 0.471216 4.103571 2.687046
v 0.467030 4.130152 2.695453
v 0.455020 4.153299 2.706161
v 0.436360 4.170794 2.718097
v 0.412878 4.180913 2.730088
v 0.386873 4.182672 2.740967
v 0.360889 4.175877 2.749672
v 0.337471 4.161232 2.755337
v 0.318910 4.140169 2.757408
v 0.307024 4.114756 2.755690
v 0.302976 4.087471 2.750356
v 0.307162 4.060936 2.741946
v 0.319173 4.037756 2.731279
v 0.337832 4.020210 2.719388
v 0.361314 4.010035 2.707422
v 0.387319 4.008212 2.696561
v 0.413303 4.014920 2.687875
v 0.436722 4.029565 2.682194
v 0.455282 4.050670 2.680083
v 0.467168 4.076183 2.681748
v -0.137604 4.104338 2.757062
v -0.637647 1.309377 -2.909359
v 0.558560 1.230313 -2.680439
v -0.116356 4.132472 2.770773
v -0.100015 4.139742 2.777665
v 0.441201 4.085234 2.733040
v -0.063736 4.137211 2.788212
v -0.359956 2.262145 -2.056358
v -0.034332 4.113717 2.791254
v -0.025952 4.096702 2.789463
v -0.558560 1.230313 -2.680440
v -0.025858 4.060118 2.780188
v -0.034153 4.044193 2.773582
v -0.388712 1.019315 1.547559
v -0.063448 4.024637 2.759637
v -0.081580 4.022959 2.753645
v -0.099727 4.027083 2.749114
v -0.639381 2.899013 1.331259
v -0.129131 4.050623 2.746032
v -0.137511 4.067719 2.747787
v 0.470330 3.211237 -2.015210
v 0.650229 4.564110 2.221137
v -0.686755 1.728782 -2.547055
v 0.185668 3.485274 3.263217
v -0.336740 3.822639 0.846125
v -0.079402 4.055679 2.742728
v -0.177651 2.045467 0.629576
v -0.199221 4.417778 2.488420
v 0.261410 3.652922 3.309540
v -0.579261 0.832171 1.945585
v 0.472959 2.316395 -2.300333
v -0.587111 0.294048 -2.765166
v 0.705705 3.197071 1.390323
v 0.027409 3.476591 2.864846
v 0.792041 2.530049 1.284400
v -0.751112 2.477090 -2.045320
v -0.018328 3.069492 2.158883
v -0.062857 4.070899 2.766486
v -0.466620 1.784506 0.340181
v 0.301946 2.159065 -1.541779
v -0.158142 4.096389 2.710957
v -0.153978 4.123083 2.719019
v -0.141756 4.146540 2.728771
v -0.122672 4.164509 2.739239
v -0.098594 4.175226 2.749390
v -0.071880 4.177644 2.758239
v -0.045143 4.171504 2.764923
v -0.021002 4.157447 2.768774
v -0.001819 4.136843 2.769415
v 0.010527 4.111715 2.766796
v 0.014829 4.084498 2.761178
v 0.010665 4.057834 2.753119
v -0.001557 4.034342 2.743405
v -0.020640 4.016327 2.732977
v -0.044718 4.005566 2.722845
v -0.071433 4.003097 2.714009
v -0.098169 4.009159 2.707340
v -0.122311 4.023223 2.703472
v -0.141493 4.043870 2.702791
v -0.153840 4.069094 2.705365
v 0.544329 3.957623 1.228441
v 0.791741 2.831081 -1.616408
v 0.376093 3.636425 3.045358
v -0.454699 1.792925 -2.277066
v -0.203780 3.780064 0.373524
v 0.141305 3.873553 0.666950
v -0.738349 1.852063 -1.611140
v -0.682912 3.078342 -1.780362
v -0.635395 2.092479 0.930682
v -0.821739 1.907094 -1.799941
v 0.686539 3.804138 1.799342
v 0.476661 2.129561 -1.241296
v -0.480459 3.249108 -1.525162
v 0.521395 3.820370 2.594254
v -0.463421 2.125999 -1.235580
v 0.707723 1.594144 -1.993492
v 0.176589 4.012736 2.957176
v -0.352213 3.131330 -2.155812
v 0.115798 2.035957 0.891396
v -0.656163 2.547902 1.176985
v -0.172947 4.122757 1.246789
v -0.500709 1.357632 -2.855040
v -0.491269 3.522122 -0.136879
v 0.153172 3.605116 -1.876150
v -0.466234 2.462276 -0.302849
v -0.310896 4.451549 2.148887
v 0.596157 1.779215 0.354623
v 0.804355 2.164376 0.659671
v -0.576243 3.376570 0.328742
v -0.458783 1.503750 0.589206
v -0.392470 3.446422 1.376545
v -0.359312 3.741992 2.122816
v -0.523527 3.355024 -0.146481
v -0.591279 1.607030 -2.910380
v 0.372775 3.475970 2.489024
v -0.518292 3.113864 0.641911
v 0.660148 2.822322 -0.279219
v -0.465607 3.044314 -0.680509
v 0.182237 3.469307 3.168084
v -0.409243 4.232925 2.269545
v 0.591279 1.607030 -2.910380
v -0.137604 4.092200 2.762898
v -0.019358 2.025228 -3.675613
v -0.188774 3.684779 -1.358917
v -0.116356 4.120172 2.777068
v -0.100015 4.127335 2.784084
v -0.544137 0.665551 -2.850526
v -0.063736 4.124588 2.794611
v 0.845019 0.332110 -2.744521
v -0.034331 4.100872 2.797329
v -0.025952 4.083748 2.795301
v -0.518360 0.666678 1.949360
v -0.025858 4.047180 2.785435
v -0.034153 4.031316 2.778564
v -0.163640 2.025999 -3.669122
v -0.063448 4.012044 2.764250
v -0.081580 4.010523 2.758207
v -0.099726 4.014791 2.753722
v 0.849384 2.255389 -1.893086
v -0.129131 4.038507 2.751003
v -0.137510 4.055635 2.753031
v -0.750286 0.494619 -2.645705
v -0.071032 2.035495 -3.219233
v -0.500811 1.049248 1.843670
v 0.500183 3.832594 0.807755
v 0.195890 3.687287 -1.376343
v 0.057859 3.492894 2.945765
v 0.388379 4.154829 2.815063
v 0.745582 3.079357 -1.008292
v -0.217271 4.234019 2.647343
v 0.452505 4.374910 2.600809
v -0.110030 3.203985 -2.428394
v -0.103761 4.057404 2.745919
v 0.257632 3.473644 3.059011
v 0.222342 3.471945 3.132005
v -0.452707 3.332982 -0.704795
v -0.209363 3.740434 -0.207481
v -0.093216 1.870072 -3.690538
v 0.544171 3.062670 -0.716227
v 0.389194 2.055936 0.609250
v 0.453708 2.615420 -0.782339
v 0.567784 4.195382 1.720089
v -0.458269 3.407602 1.083711
v -0.026972 2.741020 -2.533138
v 0.666121 1.805426 0.299553
v -0.854394 0.341819 -2.762737
v 0.002996 3.916916 2.935350
v -0.076037 4.081504 2.772931
v -0.327924 2.750893 -2.234292
v 0.886095 2.574892 1.121319
v 0.550687 1.860307 0.490567
v -0.692045 3.047053 -1.457054
v -0.329701 3.591152 -0.726790
v 0.738347 1.852103 -1.611001
v 0.699364 4.726896 2.249750
v 0.459165 1.853585 -1.737920
v -0.502281 0.682475 -3.062415
v 0.699530 3.056097 -1.474739
v -0.024654 3.631266 3.060680
v 0.821752 1.907103 -1.799807
v 0.703154 1.039481 1.508398
v 0.782177 0.778460 2.119324
v 0.104058 4.210336 1.381129
v 0.442258 0.417268 -2.884983
v 0.112837 2.919650 -2.533180
v 0.380541 4.076048 2.749753
v 0.007461 2.387026 -1.962364
v 0.182089 3.462924 3.162077
v 0.288632 3.495866 2.936943
v -0.163778 2.919991 -2.523759
v 0.257779 3.480027 3.065018
v 0.795723 0.895055 1.754858
v 0.761745 4.638329 2.253453
v 0.519102 3.350448 -0.739099
v -0.294311 3.681828 1.107228
v -0.588089 2.426575 -2.257111
v 0.320095 3.985193 2.854841
v 0.561049 1.759194 -2.652207
v 0.874161 0.692397 1.899414
v 0.222195 3.465563 3.125997
v 0.676812 4.301883 2.085645
v 0.592443 3.542138 -0.175748
v 0.510941 3.353622 -1.226741
v 0.513392 1.476240 -2.247535
v 0.478450 4.489995 2.243106
v 0.110308 3.650195 3.312695
v 0.009314 2.307589 -1.400693
v -0.244059 2.414016 -1.134280
v 0.411655 4.093957 2.758918
v -0.729230 0.313152 -2.812528
v -0.393899 1.414443 1.347533
v 0.598866 2.192053 0.407430
v 0.238990 2.329093 -1.898875
v 0.689961 3.134958 0.598266
v 0.660827 3.316543 1.207956
v 0.865030 0.479610 -2.774047
v 0.948526 0.819198 2.118642
v -0.348975 2.055382 0.372561
v -0.666298 0.688711 -3.084954
v -0.058191 4.063305 2.753968
v -0.327626 1.035131 1.597205
v 0.834991 1.073919 1.795759
v 0.793395 3.071506 0.788309
v 0.321686 3.989964 2.782128
v 0.486590 3.691451 1.076369
v -0.605471 3.047343 0.838986
v 0.702320 0.646967 -2.912093
v 0.478457 2.004421 0.398560
v -0.375631 2.602357 -0.756540
v -0.068508 2.449758 -3.268960
v -0.696571 2.851037 -2.000543
v 0.928490 0.860018 1.891506
v 0.729230 0.313152 -2.812528
v -0.113820 4.061616 2.753418
v 0.151850 4.435956 2.692112
v -0.009277 3.490316 -2.242623
v 0.731403 1.867255 0.851367
v -0.179971 3.896402 0.788148
v 0.348823 3.066235 -2.176613
v 0.878055 1.760641 0.864081
v -0.503780 3.661321 0.881455
v -0.865030 0.479610 -2.774047
v -0.242124 3.196664 1.897193
v -0.342597 3.948158 1.264504
v -0.319057 4.207065 1.738855
v -0.279810 1.990415 0.425749
v 0.024571 2.288778 -0.788520
v -0.338044 2.261430 -0.298998
v 0.532455 2.289120 1.254719
v -0.581460 0.790941 2.173518
v 0.386439 3.603765 -0.752149
v -0.159631 3.186309 2.081057
v 0.481145 3.612294 2.423836
v 0.367625 2.692042 1.672195
v 0.161613 4.238190 2.885340
v -0.298065 2.937963 1.742803
v -0.464078 3.705910 1.489083
v -0.711723 0.310684 -2.594464
v 0.090573 2.016766 0.177325
v -0.577200 2.534064 -1.067585
v -0.368804 3.745559 2.262212
v -0.472805 2.316677 -2.300435
v -0.530793 3.491094 1.563749
v 0.309202 3.743850 -0.232047
v 0.652065 1.231522 1.594287
v 0.679427 1.434266 1.309037
v 0.749748 1.364623 1.555820
v -0.009741 2.709905 1.820092
v -0.520570 1.621229 -2.915228
v -0.060628 3.468143 2.456564
v 0.725694 2.711433 0.140646
v 0.511988 2.851999 -0.710629
v -0.455430 0.747706 2.243958
v 0.888340 1.272520 1.577815
v 0.652658 3.246867 -1.102131
v 0.521443 4.243089 2.619216
v 0.558918 2.948010 1.710135
v 0.612930 3.457886 1.337204
v 0.379557 3.563798 -1.283547
v -0.411257 3.656229 1.235092
v 0.686630 2.769848 0.517788
v 0.853172 0.337859 -2.757415
v -0.702371 3.058929 -0.968570
v 0.150883 3.455697 -2.125245
v 0.544137 0.665551 -2.850526
v -0.781186 0.256822 -2.685085
v 0.098796 3.477980 3.071097
v 0.205419 3.391073 3.143627
v 0.801507 1.776282 0.483341
v 0.423671 4.093590 2.753312
v 0.731971 1.003237 1.917046
v 0.323834 2.750290 -2.236517
v 0.311016 3.073252 2.146734
v -0.614861 2.604398 0.746534
v 0.018539 2.295995 -3.264548
v 0.324317 3.961234 0.871259
v 0.552006 4.414542 1.988964
v 0.041778 3.451085 3.158605
v -0.591853 2.138590 0.709749
v 0.411758 4.285003 1.702756
v -0.506995 2.747935 0.560505
v -0.493597 4.623419 2.301418
v 0.779522 2.239323 -1.431356
v 0.754856 2.278332 1.132375
v 0.251125 3.692260 3.408319
v -0.105981 4.087424 2.773309
v -0.391973 1.760966 0.390064
v -0.635785 1.732680 0.918377
v 0.779165 2.711892 1.397439
v 0.630078 3.376328 -0.187855
v -0.200860 2.169265 1.109516
v 0.584157 2.028530 0.956133
v 0.947113 0.922536 2.042949
v 0.950041 0.819086 2.112845
v 0.854394 0.341819 -2.762736
v 0.812628 2.630501 0.695445
v -0.163695 3.602480 -1.871046
v 0.459966 2.500167 -1.063455
v 0.765897 3.505049 1.512498
v 0.321984 3.454693 3.147892
v -0.283432 2.274456 1.284078
v -0.027847 2.061719 -3.284708
v 0.125613 2.194941 1.252986
v 0.333493 3.512877 -1.753173
v 0.829545 0.771438 2.197869
v -0.346129 2.011348 0.989499
v 0.779913 2.776569 -1.237960
v 0.191852 2.617348 -2.163883
v -0.642905 1.293129 -2.657237
v 0.420108 4.063578 2.726096
v -0.830148 2.591900 -1.644403
v 0.074646 3.204362 -2.433517
v -0.152277 2.266070 -1.638124
v 0.500709 1.357632 -2.855040
v 0.492070 1.725531 -2.613784
v 0.616485 0.720116 1.902804
v -0.477340 0.436112 -2.691159
v -0.124782 4.078584 2.754443
v -0.338721 1.213224 1.629824
v -0.576919 1.245458 1.630370
v -0.067651 4.149809 2.832105
v 0.546011 2.996068 -2.047343
v 0.409143 3.918826 1.015758
v 0.116876 3.712960 3.382328
v -0.442258 0.417268 -2.884983
v 0.251616 4.528849 2.349871
v -0.261295 0.879050 2.158700
v 0.686497 1.524902 0.548129
v 0.047796 3.417356 2.812193
v 0.395605 4.061295 2.724753
v 0.601033 0.974891 1.821441
v 0.635198 3.753619 2.084434
v -0.121533 4.069210 2.756790
v -0.433795 3.792589 1.842963
v -0.190738 2.614844 -2.158761
v 0.477340 0.436112 -2.691159
v 0.594741 2.481858 -0.340881
v -0.702320 0.646967 -2.912093
v -0.572559 0.794066 2.184643
v 0.604366 2.543535 -1.083977
v -0.386833 0.982574 1.957174
v -0.006005 3.665519 -1.918077
v 0.442133 2.181140 1.086454
v -0.341010 3.504620 -1.736736
v 0.625092 0.895421 2.126907
v -0.631987 3.078902 1.065322
v 0.841331 0.994321 2.101572
v 0.750287 0.494618 -2.645705
v -0.845019 0.332111 -2.744521
v 0.781186 0.256822 -2.685085
v 0.333232 3.792401 0.356314
v -0.032033 3.069587 -2.728230
v 0.038597 4.318267 1.728309
v -0.132488 4.440058 1.989823
v 0.057712 3.486511 2.939757
v -0.429690 2.835446 -0.678576
v 0.369999 4.128340 1.222904
v -0.236096 2.328570 -1.900059
v 0.865279 2.120195 0.876856
v 0.835233 3.103095 1.011685
v -0.458965 1.853539 -1.738060
v 0.689187 3.718951 1.441989
v 0.375121 4.068364 2.737604
v 0.541191 2.071825 0.340642
v 0.686755 1.728782 -2.547055
v 0.060956 3.794073 0.265510
v -0.782513 0.402226 -2.999923
v -0.443749 1.342581 1.598627
v 0.711723 0.310684 -2.594464
v 0.642905 1.293129 -2.657237
v 0.639876 3.014001 1.520028
v 0.139439 3.470878 3.135175
v -0.433899 4.713463 2.292712
v 0.633928 1.797204 0.818442
v 0.413442 3.484464 2.701194
v 0.105699 1.987473 0.584796
v -0.361468 3.552046 -1.260317
v -0.114375 2.045672 -4.153003
v -0.583380 0.790766 2.167844
v 0.487017 4.426133 2.462268
v 0.502281 0.682475 -3.062415
v -0.518866 0.370159 -3.009965
v 0.063028 3.033364 -2.256000
v 0.430612 4.068016 2.732822
v 0.658757 1.295626 -2.757853
v 0.379313 4.063823 2.730380
v 0.751113 2.477088 -2.045319
v 0.438374 4.075788 2.735611
v -0.658757 1.295626 -2.757853
v -0.406113 2.173491 0.443468
v 0.894542 2.209128 0.760902
v 0.637647 1.309377 -2.909359
v 0.782513 0.402226 -2.999922
v 0.098649 3.471597 3.065089
v 0.282756 2.713474 1.809142
v 0.438333 3.930653 2.704398
v 0.673959 3.680317 0.836745
v 0.086922 3.164753 -2.285741
v 0.156026 3.360522 2.450140
v -0.395358 3.001621 1.559269
v 0.518866 0.370158 -3.009965
v -0.513503 2.255515 1.177981
v -0.458004 0.871900 1.799826
v -0.084252 3.478853 2.720528
v 0.684304 4.246191 2.227628
v 0.158350 3.157065 2.242502
v 0.360976 2.262732 -2.055681
v -0.549301 2.507016 1.332950
v -0.208612 3.811976 2.622093
v 0.588048 2.426652 -2.257133
v 0.286050 2.421038 -1.144041
v 0.129141 2.465711 1.502508
v -0.176204 3.604340 2.449145
v 0.474490 2.276397 -0.328161
v -0.092824 2.154993 -0.284203
v 0.868191 2.922937 1.275887
v -0.676146 2.180119 0.817241
v 0.354481 4.454980 1.984376
v 0.443401 3.193134 2.057875
v 0.832937 0.870137 2.246557
v 0.288484 3.489483 2.930934
v 0.290397 3.420527 2.802939
v -0.339906 1.843859 0.522510
v 0.587111 0.294048 -2.765166
v -0.182073 4.482981 2.317019
vn 0.3633 -0.2418 0.8997
vn 0.7310 0.1234 -0.6711
vn 0.3634 -0.2416 0.8998
vn -0.9928 0.0295 -0.1161
vn -0.8343 -0.4256 0.3504
vn 0.3634 -0.2419 0.8997
vn -0.3177 -0.6790 0.6618
vn 0.7741 -0.0198 -0.6328
vn -0.0800 0.9945 -0.0671
vn 0.3633 -0.2416 0.8998
vn 0.9354 -0.3068 -0.1757
vn -0.9207 -0.3686 -0.1281
vn -0.9720 0.1952 -0.1310
vn -0.2068 -0.6735 0.7096
vn -0.8316 0.2773 0.4812
vn -0.9849 -0.1609 -0.0647
vn -0.7270 -0.5588 0.3992
vn 0.9961 0.0843 -0.0247
vn 0.5440 -0.4395 0.7148
vn -0.7083 0.3301 -0.6239
vn 0.5896 0.8027 -0.0903
vn -0.1257 -0.9094 -0.3965
vn -0.1516 -0.9402 -0.3049
vn 0.8126 0.5167 -0.2697
vn 0.8529 0.5196 -0.0501
vn -0.9927 0.0201 -0.1191
vn -0.0269 -0.9524 -0.3036
vn 0.8614 -0.4773 0.1736
vn 0.4302 -0.9016 -0.0464
vn -0.8942 0.1095 -0.4340
vn 0.3636 -0.2418 0.8996
vn 0.1867 0.8574 -0.4796
vn -0.5885 0.7715 -0.2417
vn -0.2535 -0.9595 -0.1230
vn 0.9882 -0.0573 -0.1417
vn -0.6136 0.7884 0.0445
vn 0.5069 0.8217 -0.2606
vn 0.6783 0.2480 -0.6916
vn 0.5910 0.6877 0.4217
vn -0.0933 0.9853 -0.1434
vn 0.9869 0.1523 0.0528
vn -0.0116 0.9943 -0.1061
vn -0.9024 -0.4098 -0.1334
vn 0.9740 0.1026 -0.2021
vn -0.1433 -0.6379 0.7567
vn 0.0132 -0.5006 0.8656
vn -0.6090 -0.7895 -0.0757
vn -0.1194 0.9664 0.2275
vn -0.1350 -0.8756 0.4638
vn 0.8829 -0.3588 -0.3030
vn -0.9863 0.1413 0.0848
vn -0.9451 -0.0985 -0.3115
vn -0.4216 -0.9068 -0.0009
vn 0.2004 0.9535 -0.2251
vn 0.6725 -0.6608 0.3332
vn 0.9763 -0.1679 -0.1367
vn 0.4187 0.7771 -0.4700
vn 0.3635 -0.2418 0.8997
vn 0.2800 0.9245 0.2585
vn -0.2857 -0.7784 0.5590
vn 0.3634 -0.2418 0.8997
vn 0.6191 0.7115 0.3326
vn -0.4007 -0.9015 0.1635
vn -0.0385 -0.1661 0.9854
vn -0.7925 0.4340 -0.4285
vn -0.2196 0.3043 0.9269
vn -0.6900 0.5758 0.4385
vn 0.3633 -0.2419 0.8997
vn -0.5365 -0.4448 0.7172
vn -0.2259 0.1176 -0.9670
vn 0.9833 -0.1796 0.0280
vn -0.2638 0.7968 -0.5436
vn -0.8574 0.2753 -0.4349
vn -0.8188 -0.3471 0.4573
vn -0.9885 0.1298 -0.0778
vn -0.8993 0.4335 0.0586
vn 0.3423 -0.2718 0.8994
vn 0.8861 0.4634 -0.0118
vn -0.8279 -0.4949 -0.2639
vn -0.0145 -0.9112 0.4118
vn -0.6258 0.3065 -0.7172
vn -0.7095 0.6600 -0.2470
vn 0.9448 -0.3173 0.0817
vn 0.2433 -0.9489 0.2011
vn -0.2790 0.2179 -0.9352
vn 0.9943 0.0815 -0.0684
vn -0.3836 -0.7809 -0.4931
vn 0.0417 0.8591 -0.5101
vn 0.7092 0.3279 -0.6241
vn -0.6394 -0.5142 0.5716
vn -0.9385 0.2452 -0.2431
vn 0.3771 -0.7804 -0.4987
vn -0.6989 -0.2807 0.6579
vn -0.9594 0.2219 -0.1739
vn -0.4466 -0.4414 0.7782
vn -0.9413 0.3070 0.1405
vn -0.3586 -0.8723 -0.3323
vn -0.0463 -0.8040 0.5928
vn -0.2797 -0.7244 0.6300
vn -0.2065 -0.7987 0.5652
vn 0.9978 0.0648 -0.0142
vn 0.1153 -0.8966 0.4276
vn -0.9888 0.0418 -0.1434
vn -0.5839 0.5764 -0.5717
vn -0.4120 -0.5488 0.7273
vn 0.3324 -0.8850 -0.3261
vn -0.4120 -0.5484 0.7277
vn 0.8730 -0.4226 0.2434
vn -0.1403 0.1560 -0.9777
vn 0.8728 -0.4233 0.2430
vn 0.7731 0.6126 0.1646
vn 0.9105 -0.2497 0.3295
vn 0.3410 -0.8753 0.3429
vn -0.1573 -0.7395 0.6546
vn 0.6544 -0.7165 0.2416
vn 0.7400 -0.6262 0.2456
vn 0.5556 -0.7466 0.3659
vn 0.5553 0.5577 0.6169
vn 0.8156 0.3658 0.4483
vn 0.5553 0.5577 0.6170
vn 0.9320 0.3452 -0.1109
vn -0.3151 0.2691 0.9101
vn 0.9568 -0.0694 0.2823
vn 0.7492 -0.6518 -0.1175
vn -0.9049 -0.0814 0.4178
vn 0.7228 0.3748 0.5806
vn 0.8717 0.2602 0.4152
vn -0.4144 0.1330 0.9003
vn -0.2819 0.3368 0.8984
vn -0.4144 0.1328 0.9004
vn 0.6471 0.4266 0.6319
vn -0.5081 -0.2151 0.8340
vn 0.2226 0.6217 0.7510
vn -0.6988 0.3650 0.6152
vn -0.2071 0.4338 0.8769
vn -0.8916 0.4081 -0.1964
vn -0.0479 0.4260 0.9034
vn -0.8737 0.3545 0.3332
vn 0.9936 -0.0329 0.1080
vn 0.4711 0.7540 0.4578
vn 0.1156 -0.8967 0.4273
vn -0.8689 0.4948 0.0155
vn -0.5640 0.6850 0.4611
vn -0.4822 -0.3329 0.8103
vn -0.7419 0.0493 -0.6687
vn 0.9900 -0.0426 0.1342
vn -0.7953 0.5151 -0.3197
vn -0.7727 0.5980 0.2129
vn -0.7164 0.6618 0.2209
vn -0.7991 0.0397 -0.5999
vn 0.9426 -0.1922 0.2732
vn -0.8198 0.4610 0.3396
vn 0.3406 -0.8755 0.3428
vn -0.9437 0.1460 -0.2969
vn 0.0495 -0.2869 0.9567
vn -0.9108 -0.2871 0.2967
vn -0.7596 -0.6230 0.1866
vn -0.9843 -0.0505 0.1692
vn 0.9888 0.0436 -0.1428
vn -0.6985 -0.0277 0.7151
vn 0.3408 0.6091 0.7161
vn 0.8574 0.2753 -0.4349
vn -0.4447 -0.8957 0.0077
vn 0.9100 0.0122 0.4145
vn 0.5920 0.7960 -0.1265
vn -0.6190 -0.6300 0.4690
vn -0.2029 -0.7503 0.6292
vn 0.9084 0.3578 -0.2163
vn -0.6401 -0.6942 0.3291
vn -0.6950 -0.4905 0.5257
vn -0.4009 -0.1181 0.9085
vn 0.8927 -0.4062 -0.1951
vn 0.3802 -0.8283 -0.4114
vn 0.1495 0.5122 0.8458
vn 0.2461 -0.6909 0.6798
vn -0.9853 -0.0458 0.1643
vn -0.8678 0.4680 -0.1669
vn -0.8791 0.4485 0.1614
vn -0.8448 0.4285 0.3205
vn 0.7907 -0.3105 0.5276
vn -0.0966 0.5099 0.8548
vn 0.8908 0.4040 0.2082
vn 0.9795 -0.1974 0.0397
vn 0.4723 -0.1059 0.8750
vn -0.9984 -0.0508 -0.0259
vn -0.5039 0.7858 0.3586
vn -0.4651 -0.2044 0.8614
vn -0.9570 0.1679 -0.2367
vn 0.0269 -0.9524 -0.3036
vn -0.7658 -0.2206 0.6040
vn -0.8755 -0.0093 0.4832
vn -0.0104 -0.9161 -0.4007
vn -0.2944 0.9236 -0.2457
vn -0.2997 0.6019 0.7402
vn -0.6987 0.5714 0.4305
vn -0.7495 0.2670 -0.6058
vn 0.7818 -0.4820 -0.3956
vn -0.5426 -0.7925 0.2785
vn -0.8813 0.0658 -0.4680
vn 0.7218 0.6106 -0.3259
vn 0.9971 -0.0013 0.0759
vn -0.2919 -0.8829 0.3677
vn -0.8470 0.4885 -0.2098
vn -0.9138 -0.2147 0.3448
vn -0.9670 -0.1963 -0.1627
vn 0.0140 0.8163 0.5775
vn 0.5430 0.8199 -0.1812
vn 0.6674 -0.6143 0.4211
vn -0.2912 -0.9546 0.0628
vn -0.7964 -0.5144 -0.3179
vn 0.5514 -0.3191 0.7708
vn -0.3368 0.3267 -0.8831
vn 0.8835 -0.1198 0.4529
vn -0.0607 -0.8985 0.4347
vn 0.9874 -0.0667 -0.1436
vn 0.1325 0.9533 -0.2714
vn 0.0754 0.9752 -0.2082
vn 0.1065 0.4287 0.8971
vn -0.8498 -0.0422 -0.5253
vn 0.2630 0.4404 0.8584
vn -0.8429 0.4562 0.2852
vn -0.1796 0.6174 0.7658
vn 0.5751 -0.1997 0.7933
vn -0.7863 0.1117 -0.6076
vn 0.4786 0.1446 0.8660
vn 0.3416 0.3452 0.8741
vn 0.4786 0.1449 0.8660
vn -0.8434 0.2395 0.4810
vn -0.6851 0.3579 0.6345
vn 0.8565 0.1418 -0.4962
vn 0.9851 0.1110 -0.1316
vn -0.9303 -0.0923 0.3549
vn -0.3591 -0.8952 0.2638
vn 0.6938 0.2937 -0.6575
vn -0.5199 0.5450 0.6578
vn -0.7876 0.3464 0.5097
vn -0.5076 -0.7592 0.4074
vn -0.7034 -0.6436 0.3016
vn -0.6163 -0.7318 0.2910
vn 0.9116 -0.1686 0.3750
vn -0.2924 -0.8827 0.3679
vn -0.9802 -0.0603 0.1888
vn -0.8532 0.4898 -0.1796
vn -0.8410 -0.4440 0.3093
vn -0.9601 -0.1651 0.2257
vn -0.8412 -0.4433 0.3097
vn 0.4801 -0.5367 0.6938
vn -0.0495 -0.2869 0.9567
vn 0.4801 -0.5376 0.6931
vn -0.4570 -0.4406 0.7726
vn -0.9596 -0.0584 0.2753
vn -0.0606 -0.8985 0.4349
vn 0.0395 -0.5960 -0.8020
vn 0.2685 -0.7926 0.5475
vn 0.3449 -0.7164 0.6065
vn 0.1112 -0.8017 0.5872
vn 0.9878 -0.0534 0.1463
vn -0.6330 -0.5052 0.5866
vn -0.9827 0.1599 -0.0936
vn -0.9770 -0.2069 -0.0508
vn 0.6972 0.3569 -0.6217
vn -0.7287 -0.0558 0.6826
vn 0.6007 -0.3702 0.7086
vn 0.9866 -0.0475 0.1559
vn -0.6399 0.5285 0.5579
vn 0.9881 0.0824 -0.1302
vn 0.9827 -0.1770 0.0551
vn -0.6259 0.0936 0.7742
vn 0.3249 0.0900 0.9415
vn 0.1522 -0.6708 0.7258
vn -0.9377 -0.2967 0.1805
vn 0.1055 0.1772 -0.9785
vn 0.5882 0.5836 -0.5598
vn -0.3956 0.9126 -0.1034
vn 0.9152 -0.0467 0.4002
vn -0.4443 0.7707 -0.4568
vn -0.2359 0.9159 0.3248
vn -0.6779 -0.4910 0.5471
vn 0.9783 -0.1415 0.1511
vn 0.9794 -0.1975 0.0422
vn -0.9617 0.0620 0.2672
vn 0.6044 0.7966 -0.0049
vn 0.9893 -0.1055 -0.1010
vn 0.9781 0.1080 -0.1778
vn 0.8268 0.5423 0.1494
vn -0.2871 -0.2502 0.9246
vn 0.7997 0.4703 0.3731
vn 0.0629 0.9471 -0.3147
vn 0.6800 0.0596 -0.7308
vn 0.3185 -0.4462 0.8364
vn -0.5823 -0.3387 0.7391
vn -0.7331 0.6573 -0.1748
vn -0.2872 -0.2502 0.9246
vn -0.2873 -0.2502 0.9246
vn -0.7258 0.6139 -0.3103
vn 0.8261 -0.4185 0.3773
vn -0.2875 -0.2502 0.9245
vn -0.3979 0.6310 0.6660
vn -0.1278 -0.1709 -0.9770
vn 0.3536 0.3358 0.8731
vn 0.9222 -0.3345 -0.1943
vn -0.8334 -0.1250 0.5383
vn -0.6891 0.6783 -0.2550
vn 0.1645 -0.9555 0.2450
vn 0.2728 -0.7444 0.6095
vn -0.7169 0.6839 -0.1350
vn -0.5379 -0.5947 0.5974
vn 0.7091 0.6911 -0.1397
vn -0.6810 0.7305 0.0515
vn -0.8800 0.4574 -0.1278
vn 0.8681 -0.4083 0.2822
vn -0.0522 -0.9622 -0.2674
vn 0.9571 0.1674 -0.2366
vn 0.7470 0.0316 0.6641
vn 0.7511 0.1800 0.6352
vn 0.8607 0.4373 -0.2608
vn -0.3779 -0.8424 -0.3842
vn -0.8144 0.5416 0.2081
vn 0.9559 -0.2723 0.1104
vn 0.9273 -0.3743 -0.0043
vn -0.2444 -0.7511 0.6132
vn -0.8162 -0.0492 -0.5757
vn 0.7353 -0.4144 0.5364
vn -0.2043 0.8536 -0.4792
vn -0.7470 0.0316 0.6641
vn 0.2881 -0.0989 0.9525
vn -0.6972 0.3569 -0.6218
vn 0.9268 0.3048 0.2193
vn 0.8471 -0.4574 0.2704
vn -0.3188 -0.5297 0.7860
vn 0.7878 0.3879 0.4785
vn 0.5803 0.8115 -0.0686
vn -0.7667 -0.4773 0.4294
vn 0.7767 0.0345 -0.6289
vn -0.1559 0.9533 -0.2585
vn 0.2212 -0.9637 0.1494
vn -0.8323 -0.4479 0.3266
vn 0.7692 -0.5501 0.3252
vn 0.2167 -0.2038 0.9547
vn -0.8388 -0.3521 0.4153
vn -0.9541 0.2992 0.0084
vn 0.9958 0.0805 0.0427
vn 0.9873 0.0291 0.1563
vn -0.2872 -0.2500 0.9247
vn 0.2611 -0.9557 -0.1357
vn 0.2185 -0.4677 0.8565
vn -0.6939 0.6167 0.3718
vn -0.0681 -0.2584 -0.9636
vn -0.0779 -0.6018 0.7948
vn -0.2873 -0.2499 0.9247
vn -0.6696 -0.6322 0.3897
vn -0.2872 -0.2501 0.9246
vn -0.2667 -0.2830 0.9213
vn -0.9782 0.1832 0.0977
vn 0.8307 0.4832 0.2767
vn -0.9893 -0.1055 -0.1010
vn 0.6584 -0.5656 0.4965
vn -0.3098 -0.3241 0.8939
vn 0.9800 0.0547 -0.1913
vn 0.1658 0.5073 -0.8456
vn 0.5628 0.7197 0.4066
vn -0.2549 0.6006 0.7578
vn -0.5286 -0.7612 -0.3756
vn 0.6895 0.5311 -0.4925
vn -0.9103 0.0134 -0.4137
vn -0.6996 0.6701 -0.2480
vn -0.9368 0.2410 -0.2537
vn -0.7088 0.6837 -0.1737
vn 0.9430 0.3325 -0.0142
vn -0.9353 0.1450 0.3228
vn 0.6090 -0.7895 -0.0757
vn 0.8624 0.2664 -0.4304
vn -0.8908 0.4040 0.2082
vn 0.9429 -0.0266 0.3320
vn 0.9211 0.3890 -0.0184
vn 0.1403 0.1560 -0.9777
vn -0.8905 -0.0454 0.4526
vn -0.0619 -0.9226 0.3809
vn -0.8047 0.4316 0.4076
vn 0.8101 0.4817 -0.3342
vn -0.9963 -0.0793 -0.0332
vn -0.7674 0.0877 0.6352
vn -0.3604 -0.8901 -0.2790
vn -0.1205 0.9268 -0.3558
vn -0.8644 -0.2314 -0.4464
vn 0.8145 0.1161 0.5684
vn -0.9146 0.4042 0.0133
vn 0.4897 0.7755 -0.3984
vn 0.5039 0.7858 0.3586
vn 0.8535 -0.4612 0.2427
vn 0.9152 -0.3919 0.0944
vn -0.9348 -0.3072 0.1782
vn -0.9814 -0.0701 0.1789
vn 0.6623 -0.2480 -0.7070
vn 0.9364 -0.1201 -0.3298
vn -0.1582 -0.9579 0.2394
vn 0.0593 -0.9598 -0.2744
vn 0.8317 -0.0227 0.5548
vn -0.9619 -0.1627 0.2198
vn -0.6926 0.0476 0.7198
vn -0.8885 -0.3915 -0.2395
vn -0.9435 -0.2075 0.2583
vn -0.9713 -0.1238 -0.2030
vn 0.5656 -0.4425 0.6959
vn 0.6272 -0.7463 0.2228
vn 0.7221 0.6484 -0.2412
vn -0.4919 -0.0958 0.8653
vn -0.5815 0.4146 -0.7000
vn -0.7806 0.4510 0.4328
vn -0.9772 -0.2099 0.0317
vn -0.9974 0.0068 -0.0716
vn 0.0438 0.9001 -0.4334
vn -0.8063 0.4021 -0.4338
vn -0.7607 -0.6478 -0.0418
vn 0.6860 -0.4477 0.5735
vn -0.6661 0.5502 0.5036
vn 0.3261 -0.6835 0.6530
vn -0.6527 0.6512 -0.3872
vn 0.8086 -0.4585 0.3688
vn 0.5978 0.4007 -0.6943
vn 0.5561 -0.0793 0.8273
vn 0.3602 0.9018 0.2389
vn 0.8456 0.4843 0.2247
vn 0.5661 0.8192 -0.0919
vn 0.0445 0.9030 -0.4274
vn -0.9113 -0.2447 0.3312
vn 0.9808 -0.1892 -0.0479
vn -0.7016 -0.2732 -0.6581
vn -0.9980 0.0279 0.0573
vn -0.5800 -0.1484 -0.8010
vn -0.2028 -0.9546 0.2181
vn -0.7826 0.3564 -0.5104
vn 0.7797 -0.0370 0.6250
vn -0.0542 -0.9623 -0.2666
vn 0.0340 0.9959 -0.0836
vn -0.7755 -0.4927 -0.3948
vn 0.5439 -0.6626 0.5149
vn 0.8572 -0.1430 0.4948
vn -0.3502 -0.7893 0.5044
vn 0.0340 -0.6734 -0.7385
vn 0.8171 -0.3420 0.4641
vn -0.7981 0.4174 -0.4346
vn -0.8745 0.1191 -0.4702
vn -0.6049 -0.5797 0.5459
vn 0.1172 0.1582 -0.9804
vn -0.9336 -0.3413 -0.1087
vn 0.2629 -0.2520 -0.9313
vn -0.5778 -0.1453 -0.8032
vn -0.1054 -0.9093 0.4026
vn 0.2468 0.1616 -0.9555
vn 0.6989 -0.6427 0.3139
vn 0.8227 0.4512 0.3457
vn -0.0968 -0.9399 0.3274
vn 0.8250 0.1347 -0.5489
vn 0.5924 0.2800 0.7554
vn -0.7858 -0.0424 0.6170
vn 0.7857 -0.2038 0.5841
vn 0.7158 0.6786 -0.1645
vn -0.7238 0.3783 0.5771
vn -0.2725 -0.0096 0.9621
vn 0.2999 -0.9032 0.3070
vn -0.5961 -0.5581 0.5772
vn 0.3838 -0.7808 -0.4930
vn -0.4033 -0.9149 -0.0181
vn 0.3720 -0.8766 -0.3052
vn -0.6168 0.7869 -0.0210
vn 0.5827 0.3657 -0.7257
vn -0.5828 0.3660 -0.7255
vn 0.7293 -0.4464 0.5185
vn -0.0272 -0.6526 0.7572
vn 0.5120 0.7649 -0.3909
vn -0.9626 0.2705 0.0161
vn 0.3340 -0.5669 0.7531
vn -0.8946 0.4454 -0.0363
vn -0.1395 -0.2082 0.9681
vn 0.6570 0.6934 -0.2958
vn -0.9827 -0.1770 0.0551
vn -0.8927 -0.0931 0.4409
vn 0.4877 0.8704 0.0678
vn -0.8325 -0.1891 0.5208
vn -0.0451 -0.6408 0.7664
vn -0.3172 0.6436 0.6966
vn -0.7697 -0.5495 0.3249
vn 0.8763 0.0547 -0.4787
vn 0.5237 -0.1250 -0.8427
vn 0.6810 -0.6772 0.2786
vn -0.1635 -0.8779 0.4500
vn -0.8690 0.2973 -0.3955
vn 0.9524 -0.1792 -0.2467
vn 0.2651 -0.9629 -0.0500
vn 0.5809 0.3347 -0.7420
vn -0.6274 -0.4713 0.6199
vn 0.3458 -0.0019 0.9383
vn 0.6669 0.6840 -0.2956
vn 0.9489 -0.2926 -0.1185
vn -0.7520 0.0796 0.6544
vn -0.6396 -0.3810 0.6677
vn 0.7258 -0.6020 0.3329
vn 0.7135 -0.6709 0.2019
vn -0.1415 0.9763 -0.1638
vn -0.6055 0.1811 -0.7750
vn -0.9308 0.3384 -0.1385
vn -0.8663 -0.1271 -0.4831
vn -0.9495 0.1124 0.2928
vn 0.7759 0.3512 -0.5240
vn -0.2719 0.8556 0.4404
vn 0.6955 0.7182 0.0211
vn -0.9845 0.1523 0.0864
vn 0.3910 -0.8906 0.2322
vn -0.6473 0.3687 -0.6671
vn 0.1643 -0.3469 -0.9234
vn -0.3251 -0.8748 -0.3592
vn -0.7400 0.2375 -0.6293
vn -0.7850 0.0101 -0.6195
vn 0.8735 -0.1593 0.4600
vn 0.2438 -0.5032 0.8291
vn 0.8763 -0.3354 0.3460
vn -0.2096 -0.9758 -0.0624
vn -0.9989 0.0462 0.0035
vn 0.7974 0.0976 0.5956
vn 0.9928 0.0291 -0.1160
vn -0.0601 0.9885 -0.1388
vn -0.1969 -0.8764 -0.4396
vn -0.9874 -0.0667 -0.1436
vn -0.0033 0.9811 -0.1936
vn 0.2463 0.9148 0.3201
vn -0.1420 0.9373 -0.3182
vn 0.7703 -0.4975 -0.3990
vn -0.9921 0.0484 -0.1154
vn 0.7859 -0.6057 0.1244
vn 0.9414 0.2372 -0.2399
vn -0.6190 0.7839 -0.0475
vn 0.3334 -0.9328 0.1365
vn -0.2870 0.8621 0.4176
vn 0.3807 -0.8740 -0.3020
vn 0.9195 0.1613 -0.3586
vn -0.2101 -0.1074 0.9718
vn -0.0915 -0.9854 -0.1439
vn -0.9913 0.0336 -0.1271
vn -0.9002 -0.4329 -0.0474
vn 0.3414 0.6027 0.7213
vn -0.1515 -0.3539 -0.9229
vn 0.7870 -0.2095 0.5803
vn 0.2043 0.8536 -0.4792
vn 0.4742 -0.8799 -0.0310
vn -0.8342 -0.1385 0.5338
vn -0.0699 0.0075 -0.9975
vn 0.4800 0.7200 0.5012
vn 0.4841 -0.8069 -0.3386
vn -0.9772 -0.1721 0.1244
vn -0.3324 -0.8850 -0.3261
vn -0.9152 -0.3918 0.0944
vn 0.4078 -0.8501 -0.3333
vn -0.0058 -0.6558 -0.7549
vn 0.1503 -0.7367 0.6593
vn -0.9841 -0.0498 0.1704
vn 0.6790 0.7339 -0.0214
vn 0.6520 -0.5454 0.5267
vn -0.6961 0.6442 -0.3171
vn 0.8657 -0.2204 -0.4495
vn -0.4989 0.7647 -0.4078
vn -0.6653 0.6015 -0.4422
vn 0.1233 -0.6411 0.7575
vn -0.8356 -0.4712 -0.2825
vn -0.0323 0.9779 -0.2067
vn 0.7944 0.0026 0.6074
vn 0.6760 0.6812 -0.2812
vn -0.9868 0.0644 -0.1489
vn 0.2276 -0.8707 0.4359
vn -0.2859 0.7792 0.5577
vn -0.6076 0.4113 0.6795
vn -0.8957 -0.0327 0.4435
vn -0.4035 -0.9148 -0.0179
vn -0.9478 0.3125 0.0637
vn 0.9184 0.2347 -0.3185
vn -0.8335 -0.5346 -0.1397
vn -0.9808 -0.1851 -0.0620
vn -0.5661 0.8091 -0.1577
vn 0.9259 -0.3325 -0.1793
vn 0.3098 -0.3241 0.8939
vn -0.6371 -0.7092 0.3020
vn -0.9072 0.4205 -0.0143
vn 0.2336 0.2429 -0.9415
vn 0.1008 -0.6534 0.7502
vn -0.2622 -0.5717 0.7775
vn -0.1744 -0.9710 0.1635
vn -0.2536 -0.6940 0.6738
vn 0.8137 -0.4221 0.3996
vn 0.3505 -0.7893 0.5042
vn 0.0705 -0.9600 -0.2710
vn 0.9374 -0.2703 0.2197
vn 0.9532 0.1693 0.2506
vn 0.6570 0.2332 -0.7169
vn -0.8879 -0.4596 -0.0228
vn 0.8323 -0.4478 0.3266
vn 0.4698 0.2962 -0.8316
vn 0.1167 -0.1642 0.9795
vn -0.7944 0.0026 0.6074
vn 0.0104 -0.9161 -0.4007
vn 0.9705 0.1006 -0.2191
vn 0.1673 -0.9042 0.3930
vn -0.6227 0.7784 -0.0795
vn 0.2828 -0.6320 -0.7215
vn -0.9939 0.0046 -0.1105
vn 0.9368 0.2410 -0.2537
vn -0.5531 0.7697 -0.3186
vn 0.2196 0.3043 0.9269
vn -0.7087 0.1569 0.6879
vn 0.8239 -0.5667 -0.0091
vn -0.7760 -0.4909 -0.3959
vn 0.1278 -0.1709 -0.9770
vn -0.3004 0.5951 0.7454
vn -0.2881 -0.9443 0.1588
vn -0.0117 -0.2122 -0.9772
vn 0.2966 0.8694 0.3953
vn 0.8111 -0.4503 -0.3733
vn -0.8023 -0.1323 0.5821
vn 0.8202 -0.4112 0.3976
vn 0.1055 -0.9828 -0.1514
vn 0.5632 0.5667 -0.6013
vn -0.0903 -0.9843 0.1517
vn 0.9143 -0.3263 0.2398
vn 0.9570 0.1803 -0.2272
vn 0.5651 -0.3505 0.7468
vn 0.6013 0.7859 -0.1442
vn 0.3959 -0.6944 0.6009
vn 0.6399 0.6564 -0.3996
vn 0.2216 -0.9503 -0.2186
vn 0.5646 0.6333 0.5292
vn 0.8151 -0.5125 -0.2701
vn 0.7084 0.6654 -0.2356
vn -0.0301 -0.6675 -0.7440
vn 0.0145 -0.9112 0.4118
vn 0.6473 0.3687 -0.6672
vn 0.2253 0.9665 -0.1228
vn -0.8118 -0.1597 0.5617
vn 0.9596 -0.0584 0.2753
vn 0.8957 -0.0327 0.4435
vn 0.9951 -0.0140 -0.0974
vn -0.9448 -0.3173 0.0817
vn 0.9751 0.1668 -0.1464
vn 0.6251 0.6539 -0.4262
vn -0.2002 -0.9793 0.0292
vn 0.9655 -0.1828 0.1855
vn -0.8765 -0.1995 0.4381
vn -0.7651 -0.0256 -0.6434
vn 0.1994 -0.8699 0.4512
vn 0.9317 -0.1511 -0.3304
vn -0.2418 -0.4564 0.8563
vn 0.6135 0.6102 -0.5013
vn -0.5349 0.7121 0.4548
vn 0.9232 -0.0228 0.3838
vn 0.8531 0.3084 0.4208
vn -0.7208 -0.5918 0.3610
vn -0.7088 0.7040 0.0435
vn 0.9461 0.3167 -0.0685
vn 0.3904 0.9025 -0.1817
vn 0.8546 0.4819 -0.1936
vn -0.2619 0.2541 -0.9310
vn 0.6828 -0.6848 0.2547
vn 0.8402 -0.5041 -0.1999
vn -0.1687 0.7856 -0.5953
vn 0.8940 0.4345 -0.1096
vn -0.4791 0.8519 -0.2115
vn 0.2749 -0.6693 0.6903
vn -0.6570 0.2332 -0.7169
vn 0.8246 -0.4644 -0.3232
vn 0.3670 0.9003 0.2339
vn -0.4022 -0.9153 -0.0205
vn 0.9087 0.0128 -0.4173
vn 0.5458 0.3761 -0.7488
vn 1.0000 -0.0017 -0.0031
vn -0.9833 -0.1796 0.0284
vn 0.8977 0.3697 0.2397
vn 0.9517 0.2308 -0.2024
vn -0.9347 -0.3458 -0.0818
vn 0.9767 -0.2121 0.0316
vn -0.7902 -0.4012 0.4633
vn -0.9895 0.0641 -0.1296
vn -0.6329 0.3321 -0.6994
vn -0.3771 -0.7804 -0.4987
vn 0.0699 0.0075 -0.9975
vn -0.9876 -0.0401 0.1515
vn -0.9604 -0.2579 0.1055
vn 0.6696 -0.0335 0.7419
vn 0.3969 -0.2707 -0.8770
vn 0.8046 0.5092 0.3055
vn 0.3137 -0.7404 0.5945
vn -0.9951 0.0399 -0.0902
vn 0.4360 -0.7622 0.4785
vn 0.7174 0.0018 -0.6966
vn 0.0620 -0.9226 0.3807
vn 0.0861 0.9810 -0.1740
vn -0.6539 0.6513 -0.3850
vn -0.4409 0.5070 0.7406
vn 0.3769 -0.9261 0.0140
vn 0.9888 0.0418 -0.1434
vn 0.3652 -0.9302 -0.0377
vn 0.1868 -0.0338 0.9818
vn -0.8752 -0.4670 0.1263
vn 0.5747 0.0608 0.8161
vn 0.6607 0.7437 -0.1022
vn 0.1702 0.2004 -0.9648
vn -0.1681 0.2027 -0.9647
vn -0.8329 0.3909 -0.3919
vn -0.7989 0.4796 0.3630
vn -0.7242 -0.6613 0.1954
vn -0.8536 -0.4610 0.2426
vn -0.2999 -0.9032 0.3070
vn 0.2820 0.7498 0.5985
vn 0.9451 -0.0985 -0.3115
vn -0.4058 -0.7975 -0.4465
vn -0.3861 -0.8654 -0.3194
vn 0.0681 -0.2584 -0.9636
vn 0.1257 -0.9094 -0.3965
vn -0.6950 0.2912 -0.6575
vn 0.0314 0.9080 -0.4177
vn 0.9766 -0.1728 0.1279
vn 0.9805 -0.1260 0.1508
vn 0.8646 -0.2681 0.4249
vn -0.9978 0.0475 0.0468
vn -0.4628 0.8758 -0.1371
vn -0.2378 -0.7102 0.6626
vn -0.0296 -0.2248 -0.9740
vn 0.9896 -0.0562 0.1322
vn -0.6081 -0.4973 0.6188
vn 0.3687 -0.8619 -0.3481
vn -0.8129 -0.5426 -0.2117
vn -0.9873 0.0291 0.1563
vn 0.2549 0.6006 0.7578
vn 0.3931 -0.5172 0.7602
vn -0.7299 0.6592 -0.1810
vn -0.5693 -0.3942 0.7215
vn -0.5343 -0.3912 0.7493
vn -0.1048 0.9445 -0.3115
vn -0.1687 0.2032 -0.9645
vn 0.4443 -0.8859 0.1332
vn 0.9560 -0.2730 0.1075
vn 0.8587 -0.3283 0.3934
vn 0.8965 -0.4396 -0.0557
vn 0.8438 0.4702 -0.2587
vn -0.9880 -0.0386 0.1494
vn -0.9420 0.2525 -0.2210
vn -0.2433 -0.9695 -0.0305
vn 0.5531 0.7697 -0.3186
vn -0.2325 -0.2783 -0.9319
vn -0.5594 -0.6795 0.4746
vn -0.9900 -0.0427 0.1343
vn -0.5651 0.3653 -0.7398
vn 0.8113 -0.0116 -0.5845
vn -0.5974 -0.4744 0.6466
vn 0.5408 0.7924 -0.2822
vn 0.9936 -0.0426 -0.1046
vn 0.9585 0.2789 -0.0594
vn 0.8750 -0.1038 0.4728
vn -0.4360 -0.7622 0.4785
vn 0.6349 0.3157 -0.7052
vn 0.6126 -0.7563 0.2296
vn 0.8990 -0.4337 0.0600
vn 0.0673 -0.4996 0.8636
vn 0.6583 0.5525 0.5113
vn 0.4322 0.6410 0.6342
vn 0.7488 0.4055 0.5243
vn 0.7461 0.0486 -0.6641
vn 0.9166 0.2948 0.2702
vn -0.7166 -0.5986 0.3579
vn 0.8469 -0.1120 0.5198
vn 0.9842 0.0766 -0.1598
vn -0.6379 -0.4647 0.6142
vn 0.9679 0.1330 0.2132
vn -0.9781 0.1080 -0.1778
vn 0.8932 0.4358 -0.1107
vn 0.3568 0.8472 -0.3936
vn -0.9553 -0.1581 -0.2500
vn 0.6536 -0.3746 0.6576
vn 0.7577 0.4144 -0.5042
vn 0.6178 0.1798 -0.7655
vn -0.6425 0.7593 -0.1032
vn -0.2015 -0.9581 -0.2034
vn 0.6797 0.5751 0.4553
vn 0.7349 0.3875 0.5566
vn -0.9099 0.2373 0.3401
vn -0.5842 0.6660 0.4639
vn -0.7154 -0.6358 0.2898
vn 0.8778 -0.1218 0.4634
vn -0.0748 -0.5981 -0.7979
vn 0.6009 -0.5737 0.5566
vn -0.7705 -0.4382 0.4629
vn -0.9567 0.1891 -0.2213
vn 0.7242 -0.6613 0.1954
vn 0.9802 -0.0603 0.1888
vn 0.3186 -0.8755 -0.3633
vn -0.7865 -0.4200 0.4528
vn 0.2479 -0.4100 0.8777
vn 0.2166 -0.6357 0.7409
vn -0.4691 0.7025 0.5353
vn -0.4156 -0.4303 0.8013
vn -0.7487 0.6533 -0.1127
vn 0.9787 0.0775 0.1900
vn -0.3823 0.8865 0.2607
vn -0.2107 -0.4306 0.8776
vn -0.3103 -0.6430 -0.7002
vn 0.9963 -0.0080 0.0852
vn 0.8872 0.0916 -0.4523
vn 0.9959 -0.0101 0.0898
vn -0.1686 0.5071 -0.8452
vn -0.6928 -0.6696 0.2676
vn 0.5336 -0.1921 0.8236
vn -0.7448 0.1142 -0.6574
vn 0.6466 0.7007 -0.3015
vn -0.3681 0.8018 -0.4708
vn -0.9747 -0.1877 -0.1216
vn 0.1546 -0.9353 0.3183
vn -0.7281 0.5346 -0.4290
vn 0.6955 0.6424 0.3219
vn 0.4018 -0.7826 -0.4755
vn 0.1971 -0.8691 -0.4537
vn -0.4969 -0.3701 0.7849
vn 0.4758 0.7720 -0.4215
vn 0.9921 0.0484 -0.1154
vn 0.9386 -0.3112 -0.1489
vn 0.2719 0.8556 0.4404
vn -0.6093 0.6094 0.5073
vn -0.0193 -0.9336 -0.3578
vn 0.2229 -0.9747 0.0179
vn 0.5395 0.7319 0.4163
vn -0.9945 -0.0815 -0.0656
vn 0.1373 -0.9801 0.1436
vn 0.7644 0.5210 -0.3798
vn 0.4460 -0.8907 -0.0880
vn -0.3528 0.3533 -0.8665
vn 0.5166 -0.4253 0.7431
vn 0.9743 -0.2222 0.0361
vn -0.9538 -0.1663 -0.2502
vn 0.4626 0.7003 -0.5437
vn 0.8870 0.4417 -0.1349
vn 0.9712 0.1479 -0.1870
vn -0.8192 0.2950 0.4917
vn -0.1521 -0.7196 -0.6776
vn -0.9969 -0.0386 0.0685
vn -0.5482 0.6128 0.5691
vn 0.3843 -0.6355 0.6697
vn 0.9264 -0.0711 0.3698
vn -0.5120 0.7649 -0.3909
vn 0.4467 -0.8903 -0.0881
vn -0.9016 0.4250 -0.0810
vn -0.9195 0.1613 -0.3586
vn 0.9646 0.0249 0.2626
vn 0.6212 0.6321 0.4632
vn 0.9091 0.2616 -0.3243
vn -0.2508 -0.9611 -0.1154
vn 0.3423 0.6558 0.6729
vn -0.6910 0.7213 -0.0472
vn -0.5662 -0.7781 0.2719
vn -0.7223 -0.0662 0.6884
vn -0.7329 -0.3479 0.5847
vn -0.5819 0.5891 0.5607
vn 0.8508 0.4573 0.2587
vn -0.9610 -0.1438 -0.2363
vn 0.9830 -0.1245 -0.1353
vn -0.6461 -0.5230 0.5559
vn 0.9750 -0.1844 -0.1238
vn 0.1568 -0.9481 -0.2764
vn 0.7376 0.0387 -0.6742
vn -0.6812 -0.4286 0.5935
vn -0.0036 0.9980 0.0629
vn -0.4770 -0.8246 -0.3041
vn -0.8219 -0.2995 0.4846
vn 0.5281 -0.7417 -0.4135
vn 0.7448 -0.4756 0.4680
vn -0.3752 0.8882 0.2653
vn -0.4631 -0.8819 -0.0882
vn -0.3365 0.7912 0.5106
vn -0.2659 0.7397 0.6182
vn 0.6952 -0.6456 0.3162
vn 0.7417 0.0713 0.6670
vn -0.9124 -0.0455 0.4068
vn -0.2297 -0.4246 0.8758
vn 0.5594 -0.6795 0.4746
vn -0.9881 0.0824 -0.1302
vn 0.6985 -0.0277 0.7151
vn 0.5262 -0.1280 -0.8407
vn -0.9851 0.1110 -0.1316
vn 0.2404 -0.9675 -0.0785
vn -0.9320 0.3452 -0.1109
vn 0.7981 0.4174 -0.4346
vn -0.0755 -0.6752 0.7338
vn -0.9194 0.2707 0.2855
vn 0.9437 0.1460 -0.2969
vn 0.6878 0.7259 -0.0064
vn -0.7831 -0.2605 0.5647
vn 0.8735 0.4770 0.0975
vn 0.3222 0.9434 -0.0785
vn 0.9003 -0.4266 -0.0869
vn 0.7145 -0.5104 0.4785
vn 0.5964 0.3197 -0.7362
vn 0.8663 -0.1271 -0.4831
vn -0.9749 -0.0812 0.2072
vn 0.5984 0.6109 0.5184
vn -0.9201 0.0578 -0.3875
vn 0.2536 -0.9441 -0.2108
vn -0.8205 0.0046 -0.5717
vn 0.9828 0.0357 -0.1810
vn 0.5214 -0.4379 0.7324
vn 0.6444 -0.3260 0.6917
vn -0.0324 0.8978 -0.4393
vn 0.9582 -0.0881 -0.2722
vn -0.3259 -0.7075 0.6271
vn -0.9436 -0.0103 0.3310
vn -0.3688 -0.8878 -0.2752
vn 0.7578 0.4309 -0.4899
vn 0.6883 -0.5386 0.4860
vn 0.2102 -0.9511 0.2262
vn -0.7870 0.5367 -0.3043
vn -0.1147 -0.0393 0.9926
vn -0.4151 0.8330 -0.3659
vn -0.8025 -0.5262 0.2813
vn 0.8183 0.3498 -0.4562
vn 0.9413 0.3070 0.1405
vn -0.9579 -0.2084 0.1973
vn 0.9773 0.0692 -0.2000
vn 0.7740 -0.0477 0.6314
vn 0.9359 -0.0590 0.3473
vn -0.5817 -0.7686 0.2662
vn -0.9115 -0.3967 -0.1089
vn 0.7983 -0.5972 0.0782
vn 0.1296 -0.7144 -0.6877
vn -0.7671 -0.5489 0.3321
vn 0.7730 -0.4884 -0.4050
vn 0.4738 0.5239 0.7078
vn -0.9747 -0.1733 0.1408
vn 0.9753 0.2194 0.0275
vn 0.0108 -0.9589 0.2835
vn 0.7762 -0.5514 0.3058
vn 0.9697 -0.1516 -0.1914
vn -0.4808 -0.6816 0.5516
vn 0.8752 -0.4670 0.1263
vn 0.0059 -0.9655 -0.2603
vn -0.3579 0.9323 -0.0515
vn 0.9329 -0.1278 -0.3367
vn 0.8226 -0.3008 0.4825
vn 0.3485 -0.7690 0.5359
vn -0.5408 0.2819 -0.7925
vn 0.8380 0.4962 -0.2271
vn -0.8953 -0.4234 0.1388
vn -0.9435 -0.3275 -0.0507
vn -0.7744 -0.3548 0.5238
vn -0.8776 -0.0655 0.4749
vt 0.793893 0.811035
vt 0.733986 0.647144
vt 0.654509 0.794346
vt 0.904509 0.802353
vt 0.637534 0.635601
vt 0.530617 0.607635
vt 0.500000 0.753937
vt 0.876608 0.580494
vt 0.859674 0.618176
vt 0.975529 0.769161
vt 0.000000 0.714703
vt 0.810530 0.641144
vt 0.494886 0.330135
vt 0.549539 0.344433
vt 0.530617 0.328053
vt 0.604192 0.365723
vt 0.423700 0.300087
vt 0.327249 0.288544
vt 0.445583 0.324238
vt 0.637534 0.369709
vt 0.653495 0.391926
vt 0.692622 0.420471
vt 0.810530 0.476807
vt 0.717743 0.448570
vt 0.733986 0.420963
vt 0.201560 0.403915
vt 0.381335 0.383205
vt 0.184626 0.355206
vt 0.372679 0.358311
vt 0.250704 0.458881
vt 0.406456 0.411304
vt 0.327249 0.514725
vt 0.381335 0.339043
vt 0.250704 0.294548
vt 0.406456 0.327301
vt 0.201560 0.317513
vt 0.859674 0.531780
vt 0.555940 0.398312
vt 0.726400 0.473465
vt 0.692622 0.504471
vt 0.717743 0.492729
vt 0.653495 0.507542
vt 0.604192 0.501640
vt 0.445583 0.439854
vt 0.494886 0.466053
vt 0.549539 0.487347
vt 0.095491 0.301487
vt 0.206107 0.292805
vt 0.024472 0.334679
vt 0.345492 0.309490
vt 0.500000 0.349903
vt 0.654509 0.410099
vt 0.206107 0.619667
vt 0.345492 0.693741
vt 0.095491 0.538963
vt 0.423700 0.565987
vt 0.024472 0.459526
vt 0.000000 0.389137
vt 0.904509 0.564873
vt 0.975529 0.644310
vt 0.793893 0.484169
vt 0.000000 1.000000
vt 0.273600 0.473465
vt 0.123392 0.580494
vt 0.282257 0.492729
vt 0.024471 0.644310
vt 0.140326 0.618176
vt 0.307378 0.504471
vt 0.189470 0.641144
vt 0.140326 0.531780
vt 0.266014 0.420963
vt 0.206107 0.484169
vt 0.189470 0.476807
vt 0.345491 0.410099
vt 0.095491 0.564873
vt 0.576300 0.565987
vt 0.505114 0.466053
vt 0.469383 0.607635
vt 0.450461 0.487347
vt 0.672751 0.514725
vt 0.554417 0.439854
vt 0.593544 0.411304
vt 0.362466 0.635601
vt 0.395808 0.501640
vt 0.346505 0.507542
vt 0.266014 0.647144
vt 0.362466 0.369709
vt 0.798440 0.403915
vt 0.749296 0.458881
vt 0.975528 0.459526
vt 0.904509 0.538963
vt 0.815374 0.355206
vt 0.975528 0.334679
vt 0.654508 0.693741
vt 0.793893 0.619667
vt 0.576300 0.300087
vt 0.654508 0.309490
vt 0.469383 0.328053
vt 0.672751 0.288544
vt 0.793893 0.292805
vt 0.798440 0.317513
vt 0.749296 0.294548
vt 0.904509 0.301487
vt 0.444060 0.398312
vt 0.618665 0.383205
vt 0.282257 0.448570
vt 0.395808 0.365723
vt 0.346505 0.391926
vt 0.450461 0.344433
vt 0.307378 0.420471
vt 0.505114 0.330135
vt 0.627321 0.358311
vt 0.618665 0.339043
vt 0.593544 0.327301
vt 0.554417 0.324238
vt 0.095491 0.802353
vt 0.024471 0.769161
vt 0.345491 0.794346
vt 0.206107 0.811035
vt 0.531129 0.863455
vt 0.528598 0.862678
vt 0.529701 0.861377
vt 0.530028 0.864496
vt 0.532449 0.864504
vt 0.554833 0.852302
vt 0.535964 0.857423
vt 0.554115 0.862847
vt 0.527653 0.863068
vt 0.533337 0.860528
vt 0.534939 0.862031
vt 0.531751 0.858482
vt 0.533744 0.855085
vt 0.535657 0.858520
vt 0.537437 0.859975
vt 0.530356 0.847231
vt 0.465756 0.730456
vt 0.464280 0.731015
vt 0.466272 0.734068
vt 0.468310 0.733388
vt 0.464779 0.728223
vt 0.462719 0.728340
vt 0.462606 0.727787
vt 0.464037 0.730013
vt 0.465977 0.733427
vt 0.464885 0.735427
vt 0.463767 0.732595
vt 0.465331 0.736822
vt 0.463567 0.731622
vt 0.533015 0.861030
vt 0.528781 0.860447
vt 0.530131 0.864549
vt 0.530881 0.856491
vt 0.531355 0.865489
vt 0.534491 0.861890
vt 0.526887 0.856207
vt 0.527647 0.863272
vt 0.528726 0.864638
vt 0.526403 0.862717
vt 0.525618 0.860881
vt 0.526164 0.858016
vt 0.536721 0.859365
vt 0.468862 0.749484
vt 0.466293 0.747780
vt 0.466377 0.748286
vt 0.467102 0.749259
vt 0.467253 0.750763
vt 0.470042 0.751312
vt 0.469399 0.753101
vt 0.469928 0.750509
vt 0.463993 0.748347
vt 0.465755 0.751317
vt 0.467367 0.753944
vt 0.471307 0.756222
vt 0.464995 0.721450
vt 0.464829 0.720767
vt 0.463109 0.721688
vt 0.462921 0.720778
vt 0.464423 0.724210
vt 0.465870 0.723530
vt 0.464627 0.728363
vt 0.464023 0.722561
vt 0.465068 0.754195
vt 0.464674 0.751874
vt 0.466630 0.753166
vt 0.463722 0.724297
vt 0.465564 0.722267
vt 0.463941 0.725445
vt 0.463960 0.747882
vt 0.467324 0.729442
vt 0.468962 0.731820
vt 0.464679 0.727808
vt 0.468861 0.731404
vt 0.465570 0.729689
vt 0.468613 0.734441
vt 0.465745 0.749335
vt 0.459061 0.781790
vt 0.459779 0.802539
vt 0.459863 0.804904
vt 0.459175 0.785141
vt 0.459751 0.801754
vt 0.459456 0.793305
vt 0.459271 0.787929
vt 0.459472 0.793767
vt 0.459704 0.800426
vt 0.459315 0.789211
vt 0.458776 0.773334
vt 0.458807 0.774253
vt 0.459830 0.803985
vt 0.489859 0.811437
vt 0.490517 0.812575
vt 0.493013 0.812944
vt 0.492379 0.807917
vt 0.492492 0.807826
vt 0.490244 0.811723
vt 0.495164 0.807698
vt 0.493132 0.810665
vt 0.494834 0.807444
vt 0.490710 0.812847
vt 0.492924 0.813826
vt 0.497867 0.810534
vt 0.497474 0.813438
vt 0.460224 0.765039
vt 0.460206 0.763084
vt 0.462560 0.806586
vt 0.461784 0.810371
vt 0.461888 0.813254
vt 0.462269 0.795070
vt 0.460502 0.773340
vt 0.461874 0.784919
vt 0.461843 0.811999
vt 0.460939 0.786261
vt 0.460749 0.780687
vt 0.461206 0.794016
vt 0.461693 0.807861
vt 0.529650 0.858487
vt 0.526305 0.855364
vt 0.526229 0.858659
vt 0.525366 0.858400
vt 0.526985 0.861113
vt 0.527069 0.853356
vt 0.527847 0.860249
vt 0.525730 0.856066
vt 0.499012 0.806119
vt 0.499163 0.808047
vt 0.496863 0.805659
vt 0.504007 0.807601
vt 0.498517 0.806656
vt 0.503584 0.806797
vt 0.496949 0.812909
vt 0.499654 0.812986
vt 0.502654 0.810875
vt 0.503507 0.809186
vt 0.592808 0.531743
vt 0.588217 0.538940
vt 0.588077 0.539594
vt 0.592974 0.532605
vt 0.590410 0.541266
vt 0.605476 0.579748
vt 0.598681 0.549994
vt 0.597732 0.577716
vt 0.594369 0.536410
vt 0.588024 0.579111
vt 0.613173 0.625620
vt 0.612434 0.624340
vt 0.615779 0.621909
vt 0.615986 0.622776
vt 0.613896 0.614147
vt 0.608878 0.593579
vt 0.610395 0.618277
vt 0.610344 0.599562
vt 0.598719 0.597518
vt 0.603627 0.617616
vt 0.594111 0.535248
vt 0.585780 0.562762
vt 0.596633 0.544739
vt 0.581263 0.552818
vt 0.580933 0.565246
vt 0.599718 0.607532
vt 0.614994 0.618664
vt 0.603411 0.571398
vt 0.597228 0.579381
vt 0.580859 0.579665
vt 0.580881 0.588312
vt 0.586239 0.595329
vt 0.580956 0.598184
vt 0.581140 0.610011
vt 0.587471 0.612386
vt 0.580948 0.566627
vt 0.581636 0.543142
vt 0.601569 0.621008
vt 0.581399 0.548416
vt 0.581728 0.542511
vt 0.581694 0.543940
vt 0.584418 0.618966
vt 0.581248 0.618567
vt 0.581152 0.616172
vt 0.580876 0.599332
vt 0.585356 0.616338
vt 0.553521 0.602831
vt 0.553331 0.610777
vt 0.554511 0.593339
vt 0.555736 0.583825
vt 0.553636 0.612485
vt 0.553687 0.602899
vt 0.553489 0.615268
vt 0.459452 0.491871
vt 0.461213 0.485382
vt 0.459485 0.489932
vt 0.461044 0.486468
vt 0.459778 0.492442
vt 0.459359 0.494423
vt 0.461493 0.488154
vt 0.464758 0.479439
vt 0.558504 0.553826
vt 0.556735 0.572716
vt 0.557625 0.559726
vt 0.580730 0.586609
vt 0.597048 0.573565
vt 0.589612 0.566365
vt 0.599269 0.554858
vt 0.558814 0.552734
vt 0.580750 0.575909
vt 0.555956 0.581021
vt 0.557629 0.569465
vt 0.554660 0.591882
vt 0.558917 0.553838
vt 0.558344 0.559956
vt 0.466992 0.735881
vt 0.471686 0.736523
vt 0.471154 0.735844
vt 0.467543 0.732415
vt 0.469038 0.734202
vt 0.465755 0.732520
vt 0.464910 0.730942
vt 0.468204 0.735019
vt 0.462924 0.731477
vt 0.463785 0.734862
vt 0.464875 0.736583
vt 0.472383 0.739772
vt 0.467083 0.750025
vt 0.472789 0.754060
vt 0.465694 0.724813
vt 0.464362 0.726914
vt 0.467043 0.757209
vt 0.465055 0.731428
vt 0.469008 0.724611
vt 0.468395 0.726339
vt 0.467362 0.722205
vt 0.466053 0.734327
vt 0.468842 0.723927
vt 0.468423 0.726290
vt 0.462756 0.730786
vt 0.464215 0.732819
vt 0.466077 0.735332
vt 0.468792 0.735891
vt 0.600823 0.620456
vt 0.472127 0.728869
vt 0.609379 0.623288
vt 0.609476 0.623840
vt 0.471595 0.729530
vt 0.471495 0.728278
vt 0.469804 0.729461
vt 0.467500 0.728924
vt 0.472618 0.739591
vt 0.466378 0.738958
vt 0.464850 0.738342
vt 0.471066 0.739817
vt 0.469530 0.739997
vt 0.492385 0.780119
vt 0.495290 0.787243
vt 0.496036 0.784173
vt 0.491154 0.779002
vt 0.491169 0.779490
vt 0.484620 0.782489
vt 0.478875 0.782885
vt 0.483299 0.800267
vt 0.473516 0.783857
vt 0.474509 0.805198
vt 0.491185 0.779437
vt 0.490127 0.754648
vt 0.488711 0.757775
vt 0.487882 0.782818
vt 0.490626 0.800192
vt 0.492957 0.791536
vt 0.487404 0.808726
vt 0.486815 0.799901
vt 0.510317 0.819697
vt 0.506778 0.810402
vt 0.499845 0.801958
vt 0.483049 0.769613
vt 0.478757 0.763906
vt 0.477157 0.773097
vt 0.506264 0.803765
vt 0.485902 0.782701
vt 0.475770 0.815443
vt 0.487478 0.764879
vt 0.468327 0.763951
vt 0.468299 0.777805
vt 0.485796 0.766729
vt 0.479135 0.759770
vt 0.477878 0.735780
vt 0.477869 0.740706
vt 0.464715 0.728123
vt 0.467168 0.742654
vt 0.478074 0.743827
vt 0.478420 0.746287
vt 0.483856 0.741013
vt 0.481465 0.745903
vt 0.466678 0.742061
vt 0.480832 0.753289
vt 0.482355 0.739235
vt 0.477035 0.736540
vt 0.464418 0.730839
vt 0.479296 0.732786
vt 0.491357 0.782225
vt 0.484142 0.752815
vt 0.489788 0.774510
vt 0.492829 0.789133
vt 0.485110 0.768799
vt 0.494941 0.783847
vt 0.482346 0.751802
vt 0.480720 0.763783
vt 0.474831 0.767088
vt 0.470071 0.782960
vt 0.468285 0.775035
vt 0.473047 0.792616
vt 0.477104 0.752145
vt 0.477999 0.732596
vt 0.499948 0.786343
vt 0.517379 0.794530
vt 0.512134 0.797455
vt 0.519892 0.848057
vt 0.532451 0.843359
vt 0.517744 0.815619
vt 0.537586 0.821761
vt 0.515349 0.835842
vt 0.532581 0.835305
vt 0.502797 0.825711
vt 0.494477 0.829329
vt 0.524531 0.827249
vt 0.502495 0.837962
vt 0.485221 0.804628
vt 0.480786 0.783342
vt 0.475997 0.815446
vt 0.525700 0.806306
vt 0.508952 0.802099
vt 0.509892 0.844218
vt 0.519580 0.802811
vt 0.538081 0.809172
vt 0.541405 0.799494
vt 0.518720 0.795088
vt 0.515910 0.791821
vt 0.499703 0.786625
vt 0.533903 0.796593
vt 0.502945 0.831977
vt 0.499967 0.834792
vt 0.501863 0.837698
vt 0.463758 0.765903
vt 0.461146 0.748328
vt 0.464004 0.756081
vt 0.459637 0.752229
vt 0.459467 0.741348
vt 0.506850 0.797565
vt 0.504079 0.839782
vt 0.492286 0.773966
vt 0.486594 0.753472
vt 0.488556 0.749590
vt 0.489924 0.749166
vt 0.495942 0.780935
vt 0.496808 0.781473
vt 0.468158 0.760414
vt 0.466905 0.746627
vt 0.498506 0.789177
vt 0.488541 0.754072
vt 0.488271 0.754618
vt 0.489151 0.749958
vt 0.496350 0.781759
vt 0.492187 0.775399
vt 0.554776 0.861800
vt 0.556046 0.865722
vt 0.555695 0.855838
vt 0.555129 0.847689
vt 0.555051 0.828840
vt 0.465133 0.783452
vt 0.466504 0.813755
vt 0.478230 0.825060
vt 0.475600 0.826146
vt 0.477985 0.824249
vt 0.473849 0.825912
vt 0.470472 0.823171
vt 0.463533 0.816453
vt 0.463302 0.814164
vt 0.477415 0.822225
vt 0.467802 0.795013
vt 0.468360 0.808736
vt 0.494655 0.804683
vt 0.489056 0.816451
vt 0.497993 0.794438
vt 0.496214 0.799692
s 0
usemtl Material.001
f 60/1/1 54/2/1 58/3/1
f 154/2/2 379/1/2 420/4/2
f 54/2/3 57/5/3 58/3/3
f 152/6/4 436/7/4 23/3/4
f 344/3/5 353/5/5 362/6/5
f 43/8/6 54/9/6 61/10/6
f 527/11/7 520/8/7 371/10/7
f 485/10/8 313/9/8 209/12/8
f 258/4/9 186/12/9 487/2/9
f 54/12/10 60/4/10 61/10/10
f 408/13/11 544/14/11 440/15/11
f 319/15/12 511/14/12 349/16/12
f 257/17/13 214/13/13 204/15/13
f 369/18/14 96/19/14 158/13/14
f 62/13/15 500/17/15 460/18/15
f 538/16/16 24/20/16 441/15/16
f 493/21/17 388/22/17 389/23/17
f 409/23/18 538/22/18 441/24/18
f 461/25/19 193/21/19 275/23/19
f 297/20/20 157/16/20 83/25/20
f 472/16/21 303/21/21 365/25/21
f 503/26/22 311/27/22 488/28/22
f 314/27/23 35/29/23 288/28/23
f 59/27/24 324/26/24 315/30/24
f 304/31/25 380/30/25 352/32/25
f 201/30/26 467/31/26 327/27/26
f 311/28/27 503/29/27 153/33/27
f 11/34/28 389/35/28 543/19/28
f 216/19/29 496/18/29 543/34/29
f 395/33/30 327/35/30 402/34/30
f 54/33/31 50/36/31 53/28/31
f 539/36/32 398/33/32 401/34/32
f 54/24/1 43/37/1 45/23/1
f 151/19/33 67/35/33 462/38/33
f 32/13/34 85/19/34 361/38/34
f 52/35/35 453/33/35 526/38/35
f 257/29/36 27/27/36 13/38/36
f 472/33/37 397/29/37 246/38/37
f 42/14/38 326/13/38 182/38/38
f 245/24/39 409/22/39 441/38/39
f 475/39/40 546/24/40 447/38/40
f 183/22/41 428/21/41 88/38/41
f 487/16/42 365/14/42 258/38/42
f 79/21/43 346/16/43 221/38/43
f 218/40/44 260/41/44 91/38/44
f 269/42/45 159/40/45 442/38/45
f 40/41/46 30/39/46 427/38/46
f 522/37/47 545/24/47 285/8/47
f 447/24/48 546/39/48 336/8/48
f 422/43/49 412/42/49 424/38/49
f 375/31/50 293/44/50 266/38/50
f 47/27/51 99/31/51 384/38/51
f 267/44/52 343/45/52 488/38/52
f 525/46/53 371/43/53 450/38/53
f 398/45/54 539/46/54 306/38/54
f 150/47/55 184/34/55 406/48/55
f 92/34/56 453/18/56 52/48/56
f 463/34/57 205/47/57 385/49/57
f 53/28/58 50/36/58 51/49/58
f 306/49/59 447/36/59 501/34/59
f 50/48/1 54/18/1 48/50/1
f 96/51/60 18/15/60 533/52/60
f 54/15/61 45/20/61 46/52/61
f 54/15/1 46/51/1 48/50/1
f 149/18/62 546/17/62 494/50/62
f 374/50/63 351/17/63 500/15/63
f 517/32/64 431/53/64 451/54/64
f 34/53/65 253/32/65 331/55/65
f 469/54/66 457/56/66 490/32/66
f 268/7/67 445/6/67 97/54/67
f 57/6/68 54/56/68 56/54/68
f 196/32/69 361/30/69 188/55/69
f 83/57/70 26/26/70 270/28/70
f 482/58/71 2/28/71 185/49/71
f 346/57/72 475/28/72 474/58/72
f 123/55/73 17/30/73 144/57/73
f 494/30/74 44/26/74 149/57/74
f 395/52/75 538/20/75 201/25/75
f 257/43/76 274/5/76 27/2/76
f 480/43/77 413/46/77 338/6/77
f 352/2/78 295/42/78 304/43/78
f 208/12/79 449/40/79 75/2/79
f 2/40/80 5/42/80 430/2/80
f 83/6/81 8/5/81 199/43/81
f 210/45/82 342/44/82 39/32/82
f 132/32/83 203/44/83 2/31/83
f 289/56/84 301/45/84 145/32/84
f 199/6/85 26/46/85 83/45/85
f 481/45/86 537/56/86 271/6/86
f 387/59/87 14/23/87 267/60/87
f 539/23/88 401/37/88 474/60/88
f 508/23/89 531/59/89 98/61/89
f 97/25/90 442/61/90 159/52/90
f 358/61/91 345/25/91 381/23/91
f 416/60/92 471/37/92 334/8/92
f 321/9/93 90/41/93 97/12/93
f 455/41/94 221/40/94 346/12/94
f 18/41/95 95/9/95 529/8/95
f 285/8/96 457/11/96 502/60/96
f 349/8/97 85/39/97 536/41/97
f 74/62/98 115/62/98 116/62/98
f 115/62/99 74/62/99 114/62/99
f 116/62/100 76/62/100 74/62/100
f 322/62/101 408/62/101 440/62/101
f 76/62/102 116/62/102 77/62/102
f 435/62/103 31/62/103 502/62/103
f 337/62/104 253/62/104 1/62/104
f 74/62/105 73/62/105 113/62/105
f 514/62/106 416/62/106 334/62/106
f 114/62/107 74/62/107 113/62/107
f 80/62/108 120/62/108 121/62/108
f 502/62/109 31/62/109 87/62/109
f 121/62/110 81/62/110 80/62/110
f 425/62/111 72/62/111 15/62/111
f 275/62/112 281/62/112 404/62/112
f 118/62/113 78/62/113 77/62/113
f 12/62/114 196/62/114 188/62/114
f 80/62/115 78/62/115 118/62/115
f 80/62/116 119/62/116 120/62/116
f 119/62/117 80/62/117 118/62/117
f 65/62/118 105/62/118 106/62/118
f 105/62/119 65/62/119 63/62/119
f 106/62/120 66/62/120 65/62/120
f 328/62/121 514/62/121 87/62/121
f 442/62/122 198/62/122 356/62/122
f 103/62/123 63/62/123 81/62/123
f 216/62/124 354/62/124 496/62/124
f 530/62/125 221/62/125 362/62/125
f 63/62/126 104/62/126 105/62/126
f 104/62/127 63/62/127 103/62/127
f 70/62/128 110/62/128 111/62/128
f 110/62/129 70/62/129 109/62/129
f 111/62/130 71/62/130 70/62/130
f 252/62/131 249/62/131 377/62/131
f 71/62/132 111/62/132 73/62/132
f 108/62/133 68/62/133 66/62/133
f 264/62/134 296/62/134 342/62/134
f 70/62/135 68/62/135 108/62/135
f 274/62/136 257/62/136 204/62/136
f 109/62/137 70/62/137 108/62/137
f 296/62/138 37/62/138 146/62/138
f 315/62/139 382/62/139 372/62/139
f 406/62/140 298/62/140 198/62/140
f 117/62/141 77/62/141 116/62/141
f 498/62/142 27/62/142 274/62/142
f 342/62/143 296/62/143 146/62/143
f 113/62/144 73/62/144 112/62/144
f 381/62/145 296/62/145 41/62/145
f 281/62/146 240/62/146 88/62/146
f 84/62/147 37/62/147 202/62/147
f 194/62/148 465/62/148 189/62/148
f 306/62/149 501/62/149 276/62/149
f 358/62/150 212/62/150 364/62/150
f 102/62/151 81/62/151 121/62/151
f 296/62/152 264/62/152 41/62/152
f 118/62/153 77/62/153 117/62/153
f 144/62/154 215/62/154 123/62/154
f 132/62/155 430/62/155 228/62/155
f 357/62/156 364/62/156 33/62/156
f 18/62/157 357/62/157 521/62/157
f 191/62/158 10/62/158 432/62/158
f 91/62/159 372/62/159 218/62/159
f 470/62/160 387/62/160 243/62/160
f 107/62/161 66/62/161 106/62/161
f 240/62/162 513/62/162 486/62/162
f 371/62/163 520/62/163 450/62/163
f 103/62/164 81/62/164 102/62/164
f 303/62/165 352/62/165 365/62/165
f 450/62/166 155/62/166 525/62/166
f 18/62/167 529/62/167 533/62/167
f 182/62/168 263/62/168 483/62/168
f 6/62/169 145/62/169 515/62/169
f 353/62/170 158/62/170 534/62/170
f 112/62/171 73/62/171 111/62/171
f 259/62/172 499/62/172 224/62/172
f 266/62/173 390/62/173 375/62/173
f 108/62/174 66/62/174 107/62/174
f 520/62/175 527/62/175 216/62/175
f 342/62/176 217/62/176 264/62/176
f 327/62/177 467/62/177 264/62/177
f 139/62/178 33/62/178 41/62/178
f 41/62/179 264/62/179 467/62/179
f 250/62/180 260/62/180 428/62/180
f 126/62/181 168/62/181 167/62/181
f 278/62/182 228/62/182 438/62/182
f 423/62/183 224/62/183 396/62/183
f 133/62/184 172/62/184 171/62/184
f 524/62/185 160/62/185 211/62/185
f 459/62/186 343/62/186 243/62/186
f 505/62/187 431/62/187 517/62/187
f 332/62/188 157/62/188 432/62/188
f 522/62/189 334/62/189 545/62/189
f 99/62/190 10/62/190 361/62/190
f 141/62/191 163/62/191 162/62/191
f 334/62/192 471/62/192 545/62/192
f 474/62/193 202/62/193 346/62/193
f 126/62/194 167/62/194 166/62/194
f 97/62/195 49/62/195 268/62/195
f 400/62/196 319/62/196 24/62/196
f 262/62/197 458/62/197 535/62/197
f 159/62/198 321/62/198 97/62/198
f 189/62/199 8/62/199 47/62/199
f 142/62/200 425/62/200 15/62/200
f 372/62/201 91/62/201 518/62/201
f 137/62/202 178/62/202 177/62/202
f 327/62/203 264/62/203 217/62/203
f 141/62/204 162/62/204 181/62/204
f 212/62/205 358/62/205 381/62/205
f 445/62/206 406/62/206 198/62/206
f 425/62/207 205/62/207 247/62/207
f 11/62/208 543/62/208 496/62/208
f 520/62/209 389/62/209 450/62/209
f 206/62/210 330/62/210 349/62/210
f 133/62/211 173/62/211 172/62/211
f 494/62/212 207/62/212 79/62/212
f 389/62/213 292/62/213 256/62/213
f 137/62/214 177/62/214 176/62/214
f 506/62/215 513/62/215 240/62/215
f 284/62/216 474/62/216 478/62/216
f 472/62/217 487/62/217 187/62/217
f 130/62/218 169/62/218 168/62/218
f 511/62/219 395/62/219 402/62/219
f 128/62/220 130/62/220 168/62/220
f 467/62/221 139/62/221 41/62/221
f 128/62/222 168/62/222 126/62/222
f 171/62/223 131/62/223 133/62/223
f 212/62/224 33/62/224 364/62/224
f 131/62/225 171/62/225 130/62/225
f 130/62/226 170/62/226 169/62/226
f 170/62/227 130/62/227 171/62/227
f 122/62/228 164/62/228 163/62/228
f 164/62/229 122/62/229 165/62/229
f 324/62/230 417/62/230 382/62/230
f 185/62/231 370/62/231 4/62/231
f 122/62/232 163/62/232 141/62/232
f 525/62/233 155/62/233 476/62/233
f 485/62/234 209/62/234 390/62/234
f 126/62/235 166/62/235 125/62/235
f 125/62/236 165/62/236 122/62/236
f 165/62/235 125/62/235 166/62/235
f 140/62/237 179/62/237 178/62/237
f 179/62/238 140/62/238 180/62/238
f 138/62/239 140/62/239 178/62/239
f 537/62/240 410/62/240 156/62/240
f 138/62/241 178/62/241 137/62/241
f 386/62/242 435/62/242 502/62/242
f 331/62/243 499/62/243 34/62/243
f 141/62/244 181/62/244 140/62/244
f 213/62/245 221/62/245 455/62/245
f 180/62/246 140/62/246 181/62/246
f 134/62/247 174/62/247 173/62/247
f 491/62/248 124/62/248 386/62/248
f 133/62/249 134/62/249 173/62/249
f 399/62/250 145/62/250 307/62/250
f 124/62/251 435/62/251 386/62/251
f 176/62/252 136/62/252 137/62/252
f 233/62/253 524/62/253 25/62/253
f 136/62/254 176/62/254 134/62/254
f 134/62/255 175/62/255 174/62/255
f 175/62/256 134/62/256 176/62/256
f 428/63/257 404/64/257 88/65/257
f 158/11/258 371/64/258 534/66/258
f 499/67/259 236/65/259 34/64/259
f 221/68/260 403/65/260 79/69/260
f 508/65/261 486/67/261 531/69/261
f 530/70/262 49/66/262 251/64/262
f 426/71/263 69/72/263 541/73/263
f 404/72/264 281/71/264 88/74/264
f 100/75/265 67/73/265 62/72/265
f 513/70/266 506/73/266 87/66/266
f 203/73/267 185/75/267 2/66/267
f 49/76/268 97/77/268 147/78/268
f 298/79/269 249/78/269 356/77/269
f 424/77/270 350/76/270 533/80/270
f 525/81/271 530/80/271 534/82/271
f 98/81/272 393/77/272 340/80/272
f 207/83/273 494/78/273 546/84/273
f 463/85/274 418/68/274 3/86/274
f 421/68/275 184/69/275 150/86/275
f 418/85/276 463/86/276 1/84/276
f 546/79/277 149/84/277 336/78/277
f 330/83/278 361/84/278 85/86/278
f 526/87/279 453/74/279 192/71/279
f 423/88/280 396/89/280 286/90/280
f 455/89/281 364/91/281 213/90/281
f 304/92/282 295/90/282 376/58/282
f 281/92/283 506/58/283 240/93/283
f 87/88/284 506/90/284 328/92/284
f 250/89/285 376/80/285 295/91/285
f 235/76/286 238/78/286 237/94/286
f 377/78/287 501/7/287 252/94/287
f 478/76/288 474/94/288 401/80/288
f 326/80/289 42/95/289 316/91/289
f 350/95/290 156/80/290 533/94/290
f 407/96/291 442/97/291 439/98/291
f 84/96/292 339/99/292 37/97/292
f 227/51/293 235/98/293 229/97/293
f 226/87/294 235/98/294 227/74/294
f 465/98/295 93/51/295 189/74/295
f 235/99/293 231/100/293 229/97/293
f 423/101/296 265/93/296 244/102/296
f 231/101/297 234/92/297 232/93/297
f 442/103/298 356/102/298 336/93/298
f 502/99/299 87/102/299 522/100/299
f 325/102/300 451/103/300 507/100/300
f 313/79/301 485/77/301 535/104/301
f 439/84/302 251/79/302 49/104/302
f 186/77/303 39/81/303 146/104/303
f 532/82/304 308/105/304 35/104/304
f 156/81/305 355/82/305 533/104/305
f 332/85/306 47/84/306 8/104/306
f 351/63/307 374/106/307 460/64/307
f 183/106/308 94/70/308 443/64/308
f 194/63/309 189/65/309 273/104/309
f 498/68/310 194/85/310 27/104/310
f 540/65/311 92/68/311 52/104/311
f 360/107/312 536/108/312 348/104/312
f 508/109/313 94/107/313 88/104/313
f 317/108/314 469/110/314 230/104/314
f 154/106/315 492/63/315 537/104/315
f 295/110/316 352/106/316 303/104/316
f 24/111/317 160/109/317 441/104/317
f 13/112/318 384/113/318 257/104/318
f 544/105/319 427/112/319 30/104/319
f 249/113/320 298/114/320 325/104/320
f 350/115/321 464/111/321 413/104/321
f 511/114/322 319/115/322 400/104/322
f 223/70/293 235/106/293 226/73/293
f 378/113/323 540/101/323 394/102/323
f 231/101/297 235/113/297 234/92/297
f 215/114/324 19/113/324 370/102/324
f 243/99/325 343/115/325 470/102/325
f 494/114/326 403/102/326 44/115/326
f 144/112/327 157/92/327 297/113/327
f 544/82/328 30/89/328 312/105/328
f 150/89/329 406/82/329 145/80/329
f 529/88/330 523/105/330 422/89/330
f 184/112/331 517/105/331 298/92/331
f 247/105/332 352/88/332 380/92/332
f 362/108/333 534/107/333 530/71/333
f 313/107/334 417/87/334 209/71/334
f 487/108/335 186/71/335 339/73/335
f 347/110/336 21/73/336 148/106/336
f 14/110/337 387/108/337 470/73/337
f 2/87/338 482/107/338 12/98/338
f 335/96/339 454/111/339 49/99/339
f 344/115/340 213/99/340 364/111/340
f 364/111/341 455/96/341 358/98/341
f 428/109/342 183/98/342 250/107/342
f 506/109/343 491/111/343 328/98/343
f 241/116/344 235/69/344 242/117/344
f 399/69/345 525/116/345 476/86/345
f 32/67/346 196/117/346 309/69/346
f 367/64/347 366/11/347 368/117/347
f 235/67/294 223/64/294 242/117/294
f 320/83/348 503/118/348 488/78/348
f 158/7/349 527/78/349 371/118/349
f 238/83/350 235/86/350 239/118/350
f 161/119/351 532/86/351 35/116/351
f 235/86/352 241/119/352 239/118/352
f 427/120/353 190/121/353 40/122/353
f 204/121/354 214/120/354 39/123/354
f 59/123/355 326/120/355 316/124/355
f 510/125/356 191/126/356 17/127/356
f 516/121/357 355/123/357 378/128/357
f 430/129/358 459/130/358 228/124/358
f 481/129/359 271/131/359 324/132/359
f 19/131/360 297/120/360 363/122/360
f 326/129/361 518/133/361 246/130/361
f 469/130/362 386/133/362 457/134/362
f 282/133/363 75/129/363 449/132/363
f 337/135/364 433/126/364 473/125/364
f 23/136/365 528/137/365 152/138/365
f 146/138/366 39/139/366 342/136/366
f 17/137/367 432/136/367 157/140/367
f 194/141/368 273/140/368 13/142/368
f 379/140/369 154/141/369 316/137/369
f 248/143/370 155/144/370 388/145/370
f 153/137/371 503/146/371 446/147/371
f 433/147/372 385/138/372 286/137/372
f 386/146/373 502/137/373 457/141/373
f 540/148/374 378/143/374 92/145/374
f 183/142/375 15/143/375 279/148/375
f 370/120/376 278/129/376 320/124/376
f 530/149/377 251/150/377 221/151/377
f 2/150/378 12/149/378 5/152/378
f 251/152/379 149/149/379 221/126/379
f 444/149/380 397/153/380 478/154/380
f 62/150/381 151/152/381 500/155/381
f 219/150/382 257/156/382 384/151/382
f 21/157/383 319/158/383 349/128/383
f 284/158/384 84/156/384 202/159/384
f 393/150/385 152/160/385 528/156/385
f 295/156/386 260/160/386 250/159/386
f 189/160/387 47/150/387 273/155/387
f 263/153/388 182/149/388 401/151/388
f 317/153/389 328/123/389 469/124/389
f 275/123/390 197/153/390 281/157/390
f 197/157/391 506/153/391 281/151/391
f 413/129/392 272/120/392 495/131/392
f 402/123/393 217/157/393 36/128/393
f 300/154/394 293/161/394 333/126/394
f 373/149/395 218/154/395 458/126/395
f 412/154/396 148/153/396 497/124/396
f 9/154/397 360/130/397 348/161/397
f 377/161/398 249/130/398 127/134/398
f 538/130/399 190/154/399 201/124/399
f 139/162/400 95/163/400 521/164/400
f 524/163/401 441/162/401 160/165/401
f 525/162/402 399/164/402 280/166/402
f 452/167/403 75/166/403 437/168/403
f 286/167/404 55/162/404 265/166/404
f 148/169/405 412/165/405 427/162/405
f 279/164/406 72/170/406 376/171/406
f 18/164/407 521/163/407 95/170/407
f 1/166/408 199/164/408 93/171/408
f 149/168/409 251/166/409 82/172/409
f 528/166/410 23/171/410 277/172/410
f 36/173/411 210/167/411 29/168/411
f 397/174/412 84/175/412 478/176/412
f 319/176/413 160/175/413 24/177/413
f 534/174/414 371/176/414 525/178/414
f 405/179/415 480/178/415 156/180/415
f 245/179/416 489/174/416 409/178/416
f 405/177/417 350/175/417 413/181/417
f 465/182/418 418/183/418 93/184/418
f 354/183/419 52/170/419 195/184/419
f 443/181/420 94/185/420 340/177/420
f 492/186/421 355/181/421 410/175/421
f 462/178/422 67/176/422 448/187/422
f 537/170/423 481/163/423 316/188/423
f 444/189/424 246/140/424 397/136/424
f 187/136/425 84/190/425 397/189/425
f 191/140/426 188/189/426 10/191/426
f 519/189/427 385/192/427 504/193/427
f 524/191/428 233/189/428 151/193/428
f 208/190/429 75/136/429 366/139/429
f 329/142/430 485/191/430 266/143/430
f 6/140/431 289/191/431 145/142/431
f 93/191/432 8/193/432 189/143/432
f 517/193/433 195/194/433 377/144/433
f 21/143/434 536/193/434 360/144/434
f 472/193/435 365/192/435 487/194/435
f 314/171/436 528/183/436 277/182/436
f 448/171/437 22/170/437 25/183/437
f 92/172/438 378/171/438 420/182/438
f 12/188/439 188/163/439 5/195/439
f 429/165/440 314/195/440 288/163/440
f 373/170/441 262/188/441 428/184/441
f 488/142/442 343/148/442 459/146/442
f 37/146/443 296/141/443 345/142/443
f 18/148/444 369/147/444 357/146/444
f 98/195/445 531/184/445 393/188/445
f 272/148/446 208/145/446 366/147/446
f 456/196/447 270/197/447 26/198/447
f 329/199/448 266/200/448 208/201/448
f 424/196/449 412/202/449 200/197/449
f 504/202/450 340/203/450 393/204/450
f 196/202/451 16/204/451 309/197/451
f 501/201/452 377/205/452 526/199/452
f 283/206/453 437/196/453 300/199/453
f 326/199/454 444/196/454 182/198/454
f 298/207/455 356/206/455 198/199/455
f 442/200/456 251/199/456 439/208/456
f 507/199/457 484/198/457 325/208/457
f 7/209/458 91/210/458 411/211/458
f 460/209/459 100/212/459 62/213/459
f 143/212/460 526/209/460 294/211/460
f 153/213/461 359/214/461 387/209/461
f 369/213/462 158/215/462 357/216/462
f 383/214/463 471/213/463 416/216/463
f 348/211/464 309/217/464 308/212/464
f 485/218/465 28/214/465 535/219/465
f 274/210/466 225/209/466 498/214/466
f 4/214/467 19/216/467 363/219/467
f 299/216/468 436/220/468 152/221/468
f 385/219/469 519/216/469 286/221/469
f 64/207/470 269/222/470 442/223/470
f 222/204/471 299/224/471 486/225/471
f 346/197/472 358/204/472 455/225/472
f 310/198/473 391/197/473 249/226/473
f 47/208/474 384/198/474 13/226/474
f 509/197/475 505/225/475 517/226/475
f 7/227/476 246/224/476 518/204/476
f 23/228/477 435/229/477 305/202/477
f 357/202/478 33/196/478 521/228/478
f 517/203/479 325/202/479 298/229/479
f 139/204/480 201/203/480 529/227/480
f 96/229/481 527/227/481 158/203/481
f 489/226/482 245/230/482 462/208/482
f 277/205/483 305/231/483 101/232/483
f 443/199/484 15/205/484 183/232/484
f 160/207/485 347/199/485 408/232/485
f 145/206/486 301/207/486 255/223/486
f 500/232/487 233/222/487 22/207/487
f 1/201/488 253/233/488 291/231/488
f 483/230/489 379/234/489 42/200/489
f 399/200/490 515/208/490 145/230/490
f 94/201/491 98/200/491 340/233/491
f 190/205/492 523/201/492 529/231/492
f 221/200/493 44/234/493 403/233/493
f 518/235/494 91/236/494 7/132/494
f 372/131/495 313/235/495 458/132/495
f 149/236/496 44/235/496 221/237/496
f 361/158/497 10/238/497 188/239/497
f 196/132/498 482/236/498 16/240/498
f 423/235/499 244/241/499 259/237/499
f 3/121/500 418/241/500 225/122/500
f 157/241/501 332/239/501 83/237/501
f 346/239/502 345/121/502 358/128/502
f 285/241/503 502/131/503 522/122/503
f 212/131/504 381/241/504 41/235/504
f 443/238/505 142/158/505 15/159/505
f 228/160/506 459/242/506 243/159/506
f 15/242/507 72/160/507 279/240/507
f 99/240/508 47/160/508 432/155/508
f 11/156/509 496/157/509 542/151/509
f 19/157/510 144/156/510 297/158/510
f 270/236/511 456/242/511 129/240/511
f 314/158/512 161/239/512 35/128/512
f 296/239/513 381/238/513 345/237/513
f 395/236/514 400/238/514 538/242/514
f 271/242/515 537/238/515 156/159/515
f 527/238/516 394/236/516 354/237/516
f 453/239/517 92/241/517 420/121/517
f 497/215/518 148/243/518 360/244/518
f 139/245/519 467/243/519 201/215/519
f 143/243/520 501/246/520 526/244/520
f 4/210/521 363/214/521 185/218/521
f 546/211/522 475/210/522 207/218/522
f 293/213/523 282/245/523 449/215/523
f 123/215/524 510/244/524 17/220/524
f 487/216/525 339/215/525 187/220/525
f 501/217/526 447/247/526 336/245/526
f 474/245/527 284/213/527 202/212/527
f 129/245/528 479/212/528 482/217/528
f 31/218/529 435/219/529 23/211/529
f 378/246/530 355/243/530 492/248/530
f 526/243/531 192/245/531 263/248/531
f 204/249/532 186/211/532 258/219/532
f 464/250/533 200/249/533 497/221/533
f 149/219/534 82/221/534 336/249/534
f 28/248/535 9/245/535 535/247/535
f 240/251/536 486/250/536 508/220/536
f 294/250/537 276/221/537 143/220/537
f 421/251/538 255/220/538 542/244/538
f 219/246/539 214/252/539 257/244/539
f 161/252/540 314/251/540 277/244/540
f 336/253/541 249/254/541 252/255/541
f 429/256/542 393/253/542 528/255/542
f 404/257/543 428/256/543 461/255/543
f 299/258/544 222/259/544 31/260/544
f 520/261/545 216/256/545 543/257/545
f 477/260/546 219/259/546 99/262/546
f 215/263/547 370/264/547 123/265/547
f 341/265/548 338/266/548 368/263/548
f 135/267/549 322/265/549 524/264/549
f 236/268/550 86/267/550 34/269/550
f 267/267/551 488/264/551 311/269/551
f 510/270/552 5/271/552 191/272/552
f 16/259/553 479/261/553 434/257/553
f 456/253/554 429/273/554 288/254/554
f 193/259/555 101/257/555 275/274/555
f 10/273/556 99/275/556 432/276/556
f 306/276/557 302/275/557 398/277/557
f 394/278/558 516/268/558 378/269/558
f 202/270/559 345/260/559 346/271/559
f 363/279/560 270/270/560 129/272/560
f 1/270/561 463/258/561 337/260/561
f 345/280/562 202/268/562 37/281/562
f 527/268/563 96/278/563 394/281/563
f 330/266/564 85/279/564 349/263/564
f 539/282/565 475/283/565 447/262/565
f 469/282/566 490/262/566 471/274/566
f 182/284/567 478/285/567 401/286/567
f 75/283/568 452/285/568 366/284/568
f 300/286/569 415/287/569 283/284/569
f 147/274/570 97/288/570 90/282/570
f 442/255/571 82/289/571 251/257/571
f 267/278/572 470/269/572 343/290/572
f 309/289/573 348/291/573 32/257/573
f 33/274/574 212/257/574 41/291/574
f 433/291/575 286/288/575 396/274/575
f 511/284/576 206/262/576 349/283/576
f 213/292/577 344/289/577 362/255/577
f 418/293/578 465/292/578 225/255/578
f 263/276/579 302/254/579 526/273/579
f 328/259/580 491/274/580 386/262/580
f 261/276/581 272/293/581 413/254/581
f 273/293/582 47/255/582 13/254/582
f 504/294/583 385/287/583 340/286/583
f 89/286/584 310/295/584 249/294/584
f 407/294/585 64/295/585 442/296/585
f 28/296/586 329/297/586 261/298/586
f 422/296/587 523/298/587 427/294/587
f 354/286/588 540/285/588 52/299/588
f 275/300/589 101/286/589 197/299/589
f 9/299/590 28/285/590 360/301/590
f 420/301/591 378/283/591 154/302/591
f 11/285/592 290/283/592 292/301/592
f 31/295/593 513/286/593 87/300/593
f 329/297/594 208/296/594 272/303/594
f 471/304/595 383/297/595 230/303/595
f 276/303/596 294/296/596 302/305/596
f 254/305/597 49/295/597 147/300/597
f 359/296/598 243/295/598 387/305/598
f 387/283/599 311/282/599 153/302/599
f 38/306/600 322/307/600 440/308/600
f 464/307/601 424/306/601 200/309/601
f 274/309/602 204/306/602 258/310/602
f 408/309/603 211/311/603 160/312/603
f 210/307/604 214/309/604 219/313/604
f 88/291/605 240/289/605 508/314/605
f 436/282/606 299/288/606 31/315/606
f 438/302/607 243/282/607 359/315/607
f 521/315/608 33/288/608 139/316/608
f 484/316/609 287/291/609 325/314/609
f 528/288/610 314/291/610 429/316/610
f 320/317/611 278/297/611 503/304/611
f 442/318/612 336/280/612 82/281/612
f 200/319/613 412/320/613 497/318/613
f 456/318/614 26/320/614 429/280/614
f 252/314/615 501/289/615 336/321/615
f 20/317/616 262/322/616 535/319/616
f 439/317/617 49/319/617 454/318/617
f 249/275/618 325/319/618 287/277/618
f 515/320/619 399/319/619 476/275/619
f 433/319/620 337/322/620 385/277/620
f 360/281/621 28/297/621 261/317/621
f 292/317/622 389/318/622 11/281/622
f 183/289/623 88/292/623 94/321/623
f 448/277/624 100/322/624 374/323/624
f 380/324/625 425/277/625 247/323/625
f 480/323/626 405/322/626 413/325/626
f 142/325/627 385/317/627 205/304/627
f 415/322/628 426/317/628 283/325/628
f 38/276/629 440/277/629 462/324/629
f 148/292/630 544/293/630 347/326/630
f 72/321/631 304/292/631 376/326/631
f 479/326/632 456/293/632 288/327/632
f 197/327/633 305/276/633 491/324/633
f 486/293/634 299/276/634 531/327/634
f 463/328/635 3/329/635 247/139/635
f 357/328/636 344/139/636 364/138/636
f 203/139/637 132/329/637 228/190/637
f 230/329/638 416/330/638 317/192/638
f 266/330/639 293/194/639 449/192/639
f 435/328/640 124/138/640 305/147/640
f 512/331/641 417/332/641 271/333/641
f 205/334/642 425/331/642 142/333/642
f 96/333/643 355/332/643 516/335/643
f 421/336/644 496/337/644 184/338/644
f 95/332/645 139/339/645 529/335/645
f 245/340/646 524/184/646 151/195/646
f 464/341/647 350/162/647 424/167/647
f 373/169/648 260/162/648 218/341/648
f 529/173/649 422/341/649 533/167/649
f 478/342/650 182/343/650 444/181/650
f 272/184/651 366/344/651 367/182/651
f 377/340/652 195/165/652 526/169/652
f 415/344/653 414/173/653 69/172/653
f 161/172/654 193/182/654 532/344/654
f 39/340/655 186/195/655 204/165/655
f 192/341/656 420/340/656 483/169/656
f 205/168/657 463/172/657 247/173/657
f 72/345/658 380/331/658 304/334/658
f 1/346/659 26/179/659 199/347/659
f 544/346/660 148/348/660 427/179/660
f 458/177/661 313/185/661 535/176/661
f 339/338/662 84/349/662 187/336/662
f 250/187/663 183/176/663 376/185/663
f 339/348/664 186/174/664 146/179/664
f 96/186/665 516/350/665 394/351/665
f 123/347/666 370/179/666 320/180/666
f 211/350/667 408/186/667 322/348/667
f 448/348/668 38/175/668 462/174/668
f 348/175/669 85/348/669 32/186/669
f 129/336/670 185/352/670 363/337/670
f 340/353/671 385/333/671 142/354/671
f 25/334/672 38/333/672 448/353/672
f 305/333/673 277/335/673 23/354/673
f 444/331/674 326/345/674 246/349/674
f 411/349/675 295/355/675 303/331/675
f 151/352/676 233/334/676 500/353/676
f 185/353/677 129/354/677 482/337/677
f 265/352/678 86/353/678 244/337/678
f 219/345/679 29/336/679 210/349/679
f 93/345/680 199/334/680 8/352/680
f 387/336/681 267/345/681 311/352/681
f 31/356/682 222/272/682 513/287/682
f 36/272/683 217/271/683 342/287/683
f 441/294/684 524/356/684 245/287/684
f 220/290/685 389/298/685 256/278/685
f 519/290/686 504/356/686 55/294/686
f 489/271/687 312/284/687 40/287/687
f 412/350/688 422/346/688 427/357/688
f 201/192/689 327/190/689 395/329/689
f 305/350/690 124/348/690 491/346/690
f 293/284/691 323/260/691 333/262/691
f 101/271/692 305/260/692 197/284/692
f 306/298/693 539/290/693 447/294/693
f 1/358/694 93/359/694 418/356/694
f 245/358/695 151/356/695 462/290/695
f 389/264/696 520/359/696 543/358/696
f 370/269/697 203/358/697 278/290/697
f 20/358/698 348/269/698 308/264/698
f 409/359/699 40/264/699 190/263/699
f 430/281/700 5/278/700 510/297/700
f 325/278/701 517/298/701 451/297/701
f 352/359/702 247/272/702 365/356/702
f 531/359/703 152/263/703 393/279/703
f 297/272/704 83/359/704 270/279/704
f 331/189/705 253/190/705 473/192/705
f 367/347/706 368/360/706 338/346/706
f 545/361/707 457/351/707 285/350/707
f 5/362/708 188/360/708 191/347/708
f 490/360/709 545/357/709 471/346/709
f 448/357/710 67/361/710 100/350/710
f 317/363/711 416/362/711 514/347/711
f 21/180/712 347/178/712 319/187/712
f 348/181/713 536/343/713 85/185/713
f 522/342/714 87/186/714 514/351/714
f 334/180/715 522/363/715 514/347/715
f 400/342/716 24/181/716 538/186/716
f 84/343/717 284/187/717 478/185/717
f 313/332/718 372/331/718 382/364/718
f 480/364/719 512/331/719 271/355/719
f 271/339/720 156/332/720 480/364/720
f 512/365/721 341/366/721 375/337/721
f 146/366/722 37/338/722 339/337/722
f 307/339/723 406/367/723 445/335/723
f 504/365/724 429/337/724 26/354/724
f 184/343/725 496/180/725 517/187/725
f 55/368/726 291/365/726 265/354/726
f 20/367/727 535/368/727 9/335/727
f 272/368/728 261/354/728 329/335/728
f 430/369/729 510/370/729 459/371/729
f 228/372/730 243/369/730 438/371/730
f 405/373/731 156/372/731 350/371/731
f 27/374/732 194/375/732 13/376/732
f 389/375/733 220/377/733 493/378/733
f 460/370/734 374/369/734 100/379/734
f 472/379/735 187/369/735 397/380/735
f 363/380/736 297/381/736 270/379/736
f 318/382/737 426/383/737 415/384/737
f 195/379/738 496/384/738 354/370/738
f 143/384/739 276/379/739 501/382/739
f 479/375/740 16/378/740 482/376/740
f 499/385/741 331/386/741 396/376/741
f 210/374/742 36/376/742 342/386/742
f 291/387/743 253/388/743 34/389/743
f 255/390/744 421/391/744 145/392/744
f 19/393/745 4/389/745 370/388/745
f 393/386/746 429/394/746 504/374/746
f 457/378/747 545/395/747 490/385/747
f 17/376/748 191/378/748 432/385/748
f 332/383/749 8/382/749 83/394/749
f 417/385/750 313/383/750 382/386/750
f 198/394/751 442/386/751 97/383/751
f 468/396/752 333/382/752 392/379/752
f 333/392/753 414/391/753 415/397/753
f 483/398/754 263/392/754 192/397/754
f 377/344/755 127/397/755 517/391/755
f 132/390/756 2/374/756 430/399/756
f 390/391/757 209/400/757 512/344/757
f 22/377/758 448/392/758 374/398/758
f 423/401/759 259/402/759 224/403/759
f 495/404/760 338/405/760 413/406/760
f 468/407/761 541/328/761 414/408/761
f 356/408/762 249/409/762 336/410/762
f 541/328/763 69/409/763 414/408/763
f 379/374/764 483/394/764 420/399/764
f 298/410/765 406/396/765 184/381/765
f 277/408/766 193/410/766 161/381/766
f 517/407/767 127/408/767 509/380/767
f 324/381/768 271/396/768 417/379/768
f 55/408/769 1/381/769 291/380/769
f 42/399/770 379/396/770 316/410/770
f 510/399/771 320/400/771 459/391/771
f 183/391/772 279/390/772 376/399/772
f 414/399/773 333/394/773 468/396/773
f 29/400/774 477/399/774 206/410/774
f 404/394/775 461/382/775 275/396/775
f 433/366/776 396/365/776 331/404/776
f 94/411/777 508/412/777 98/330/777
f 465/368/778 498/367/778 225/405/778
f 374/404/779 500/365/779 22/368/779
f 368/405/780 323/404/780 341/368/780
f 326/329/781 59/328/781 518/411/781
f 445/413/782 268/194/782 280/330/782
f 341/145/783 323/144/783 375/413/783
f 388/413/784 450/144/784 389/194/784
f 260/330/785 373/329/785 428/411/785
f 293/330/786 300/412/786 437/413/786
f 426/405/787 318/339/787 69/364/787
f 353/342/788 534/401/788 362/403/788
f 432/351/789 47/414/789 332/401/789
f 438/343/790 153/342/790 446/403/790
f 203/341/791 228/410/791 278/409/791
f 348/340/792 20/341/792 9/409/792
f 280/342/793 307/351/793 445/401/793
f 419/364/794 193/402/794 461/405/794
f 287/405/795 89/367/795 249/339/795
f 40/364/796 409/355/796 489/403/796
f 307/403/797 145/402/797 406/364/797
f 210/355/798 39/349/798 214/403/798
f 420/413/799 192/412/799 453/362/799
f 452/415/800 466/416/800 392/417/800
f 193/418/801 419/419/801 532/415/801
f 449/417/802 208/420/802 266/415/802
f 315/421/803 372/419/803 518/422/803
f 315/418/804 324/415/804 382/420/804
f 315/416/805 518/415/805 59/419/805
f 531/392/806 299/375/806 152/374/806
f 244/374/807 86/390/807 259/392/807
f 254/392/808 335/377/808 49/375/808
f 1/423/809 55/424/809 26/425/809
f 7/423/810 472/426/810 246/424/810
f 207/422/811 475/427/811 346/421/811
f 29/360/812 206/362/812 36/428/812
f 25/357/813 22/360/813 233/428/813
f 253/362/814 337/412/814 473/428/814
f 440/363/815 312/180/815 489/413/815
f 329/362/816 28/363/816 485/413/816
f 135/357/817 524/428/817 211/414/817
f 541/427/818 466/422/818 426/423/818
f 463/406/819 385/421/819 337/427/819
f 203/429/820 370/430/820 185/431/820
f 300/361/821 333/357/821 415/414/821
f 328/351/822 386/361/822 469/414/822
f 338/240/823 495/432/823 367/132/823
f 35/433/824 434/132/824 288/432/824
f 18/388/825 96/387/825 369/434/825
f 440/393/826 544/388/826 312/434/826
f 213/387/827 362/435/827 221/434/827
f 21/436/828 360/433/828 148/432/828
f 398/135/829 302/437/829 263/438/829
f 20/438/830 532/439/830 419/135/830
f 306/387/831 276/438/831 302/437/831
f 410/433/832 355/436/832 156/440/832
f 293/437/833 375/435/833 323/387/833
f 219/135/834 477/439/834 29/441/834
f 263/418/835 401/442/835 398/443/835
f 72/443/836 425/419/836 380/418/836
f 224/426/837 499/443/837 396/442/837
f 49/328/838 280/407/838 268/411/838
f 25/442/839 524/444/839 322/426/839
f 452/443/840 437/426/840 466/423/840
f 366/445/841 452/446/841 392/431/841
f 519/135/842 55/441/842 286/447/842
f 154/445/843 378/431/843 492/430/843
f 19/423/844 215/422/844 144/443/844
f 532/422/845 20/419/845 308/443/845
f 465/448/846 194/449/846 498/450/846
f 144/451/847 17/452/847 157/453/847
f 512/454/848 480/452/848 341/451/848
f 30/455/849 40/436/849 312/432/849
f 182/456/850 483/432/850 42/457/850
f 496/432/851 421/456/851 542/455/851
f 323/450/852 368/454/852 392/451/852
f 225/458/853 274/459/853 258/460/853
f 466/459/854 283/458/854 426/461/854
f 525/459/855 49/461/855 530/462/855
f 219/430/856 384/452/856 99/454/856
f 368/454/857 366/445/857 392/430/857
f 59/432/858 316/240/858 481/457/858
f 330/463/859 206/448/859 477/451/859
f 390/453/860 512/463/860 375/451/860
f 265/448/861 291/434/861 86/449/861
f 294/451/862 526/448/862 302/450/862
f 434/434/863 479/435/863 288/449/863
f 209/393/864 417/434/864 512/448/864
f 353/447/865 357/464/865 158/155/865
f 3/155/866 258/135/866 365/447/866
f 75/240/867 282/155/867 293/464/867
f 529/463/868 201/393/868 190/448/868
f 322/464/869 135/457/869 211/240/869
f 394/465/870 540/417/870 354/466/870
f 468/467/871 392/465/871 466/466/871
f 308/401/872 309/467/872 35/402/872
f 97/419/873 445/421/873 198/416/873
f 468/467/874 466/466/874 541/402/874
f 309/468/875 16/467/875 434/401/875
f 410/417/876 537/465/876 492/469/876
f 357/469/877 353/420/877 344/417/877
f 196/470/878 32/469/878 361/465/878
f 153/414/879 438/468/879 359/401/879
f 510/468/880 123/465/880 320/467/880
f 471/417/881 230/416/881 469/466/881
f 319/427/882 347/471/882 160/472/882
f 31/460/883 23/472/883 436/471/883
f 261/472/884 497/406/884 360/427/884
f 488/406/885 459/472/885 320/404/885
f 317/460/886 514/404/886 328/472/886
f 422/471/887 424/427/887 533/423/887
f 495/406/888 272/405/888 367/416/888
f 222/416/889 486/421/889 513/406/889
f 472/466/890 7/416/890 303/402/890
f 361/423/891 330/425/891 99/471/891
f 154/416/892 537/405/892 316/402/892
f 247/420/893 3/469/893 365/473/893
f 408/474/894 347/475/894 544/412/894
f 461/411/895 262/474/895 20/412/895
f 340/428/896 142/412/896 443/476/896
f 278/414/897 446/428/897 503/468/897
f 525/412/898 280/475/898 49/476/898
f 440/372/899 489/373/899 462/475/899
f 327/369/900 217/372/900 402/474/900
f 20/380/901 419/369/901 461/474/901
f 395/407/902 511/380/902 400/411/902
f 411/474/903 91/372/903 260/475/903
f 145/380/904 421/474/904 150/411/904
f 249/428/905 391/476/905 127/468/905
f 539/371/906 474/477/906 475/478/906
f 322/373/907 38/371/907 25/478/907
f 523/478/908 190/477/908 427/465/908
f 190/473/909 538/418/909 409/420/909
f 536/477/910 21/470/910 349/465/910
f 266/429/911 485/453/911 390/452/911
f 286/475/912 265/373/912 423/478/912
f 261/476/913 464/475/913 497/478/913
f 79/468/914 207/476/914 346/478/914
f 338/452/915 341/430/915 480/429/915
f 151/478/916 62/465/916 67/468/916
f 388/479/917 155/480/917 450/134/917
f 433/481/918 331/479/918 473/132/918
f 438/134/919 446/133/919 278/479/919
f 36/127/920 511/134/920 402/480/920
f 411/133/921 260/132/921 295/479/921
f 517/132/922 496/433/922 195/482/922
f 526/161/923 195/134/923 52/127/923
f 464/440/924 261/483/924 413/433/924
f 499/127/925 259/126/925 236/161/925
f 527/482/926 354/481/926 216/132/926
f 293/482/927 437/433/927 75/483/927
f 101/425/928 193/484/928 277/458/928
f 479/485/929 129/486/929 456/487/929
f 333/485/930 323/488/930 392/486/930
f 34/489/931 86/490/931 291/491/931
f 411/487/932 303/489/932 7/485/932
f 434/490/933 35/492/933 309/491/933
f 196/493/934 12/488/934 482/485/934
f 458/471/935 218/458/935 372/460/935
f 283/458/936 466/471/936 437/425/936
f 197/494/937 491/444/937 506/495/937
f 504/485/938 26/495/938 55/493/938
f 3/444/939 225/493/939 258/495/939
f 458/483/940 262/440/940 373/445/940
f 262/418/941 461/496/941 428/442/941
f 355/217/942 96/211/942 533/442/942
f 403/496/943 494/217/943 79/442/943
f 481/135/944 324/125/944 59/437/944
f 259/211/945 86/497/945 236/442/945
f 511/498/946 36/446/946 206/248/946
f 330/217/947 477/496/947 99/247/947
f 280/499/948 399/496/948 307/418/948
