# Blender 5.1.1
# www.blender.org
o Куб.001
v 0.543069 0.966420 0.627660
v 0.532479 2.426158 0.476982
v 0.602238 1.043624 -0.254726
v 0.619472 2.363440 -0.213255
v -0.002330 1.007738 -0.322060
v -0.000000 2.480862 -0.357245
v 0.708430 1.667955 0.012438
v 0.614635 0.917949 0.129146
v 0.609568 2.445088 0.127720
v 0.652058 1.639006 0.513262
v -0.001673 0.949460 0.674617
v -0.000000 2.544096 0.544675
v 0.718853 1.664190 0.120234
v -0.002298 0.903284 0.185803
v -0.000000 2.614716 0.130571
v 0.821191 0.450142 -1.134035
v 0.537649 2.265707 -0.500174
v -0.002127 1.092759 -0.580609
v 0.000000 2.280686 -0.622767
v 0.464336 1.368573 -0.820161
v 0.464300 2.105524 -0.749494
v 0.090363 0.801797 3.111940
v -0.001449 1.209634 -0.801454
v -0.000000 2.103516 -0.887623
v 0.561859 1.727291 -0.868821
v -0.000253 1.593173 -0.916195
v 0.084677 1.189999 3.210551
v 0.172094 1.590677 3.042971
v 0.466906 1.135443 1.245563
v 0.499986 2.377267 0.889559
v 0.175772 0.836247 2.912820
v 0.615198 1.657196 0.878479
v -0.001730 0.984733 1.120951
v -0.000045 2.487348 0.979386
v 0.059274 0.800782 3.343518
v 0.033850 0.954300 3.419296
v 0.047665 0.761182 3.230017
v 0.570340 2.528199 1.239684
v 0.542811 0.532732 1.547967
v -0.002095 0.937582 1.473488
v 0.003811 2.648899 1.345335
v 0.118300 1.399538 3.216641
v 0.136209 0.806012 3.025762
v 0.177045 1.783865 2.829332
v 0.583003 2.528340 1.435916
v 0.447234 0.538319 1.605205
v -0.002056 0.977347 1.619666
v 0.001774 2.654156 1.544468
v 0.190837 0.874301 2.798403
v 0.177045 1.909499 2.654509
v 0.177045 0.918296 2.658427
v 0.540207 2.469419 1.719261
v 0.663352 1.914137 1.770869
v 0.548087 1.171401 2.003090
v -0.001065 1.073920 1.782992
v 0.000039 2.587723 1.817999
v 0.181751 2.061070 2.402692
v 0.181751 1.084631 2.311419
v 0.452525 2.252829 2.004862
v 0.555433 1.639179 1.934323
v 0.457188 1.372463 1.950429
v -0.000385 1.158852 1.915368
v -0.000000 2.337340 2.103198
v 0.227127 2.303801 2.070494
v 0.228841 1.257010 1.933850
v 0.271600 2.554620 1.765669
v 0.356062 1.113906 1.781040
v 0.364925 2.003908 2.358032
v 0.445038 1.435228 2.319875
v 0.364925 1.137569 2.256526
v 0.000000 1.050001 2.322254
v 0.000000 2.090251 2.405031
v 0.293591 2.618822 1.479477
v 0.301429 1.099735 1.675044
v 0.287261 2.616247 1.276950
v 0.355746 1.860884 2.611357
v 0.433703 1.370552 2.600286
v 0.355746 0.967996 2.610141
v 0.000000 0.891869 2.644746
v 0.000000 1.936483 2.641930
v 0.305052 1.140631 1.651278
v 0.250990 2.456718 0.911335
v 0.331272 1.130743 1.416766
v 0.372539 1.602682 2.782769
v 0.455708 1.393572 2.745271
v 0.382651 0.926277 2.755644
v 0.000000 0.848722 2.780026
v 0.000000 1.813231 2.810456
v 0.248965 1.646657 -0.900471
v 0.203268 2.099167 -0.851369
v 0.324489 1.305279 -0.780918
v 0.241143 1.374853 3.163105
v 0.339854 1.138177 3.052328
v 0.276080 0.844542 2.989325
v 0.000000 0.797326 2.990168
v 0.000000 1.424343 3.188557
v 0.249692 2.253665 -0.660067
v 0.282599 1.131445 -0.556907
v 0.307155 2.556828 0.094010
v 0.069124 0.956055 3.397165
v 0.125993 0.818128 3.306651
v 0.103346 0.787289 3.228316
v 0.000000 0.750549 3.238354
v 0.064203 0.903955 3.400107
v 0.000000 0.791071 3.338446
v 0.465527 1.432800 2.834631
v 0.000000 0.819077 2.887387
v 0.353261 0.881775 2.871776
v 0.309572 0.892520 0.104508
v 0.000000 1.622703 3.020382
v 0.402860 1.565321 2.864461
v 0.267639 2.510685 0.480969
v 0.000000 1.192650 3.209809
v 0.274280 0.930774 0.627877
v 0.301735 2.446809 -0.392819
v 0.356896 1.003400 -0.321112
v 0.186642 0.833833 3.076900
v 0.000000 0.799811 3.070713
v 0.210413 0.978147 3.179502
v 0.175550 1.157596 3.186121
v 0.070240 0.781379 3.165711
v 0.067630 1.035340 3.326106
v 0.139993 0.800446 3.159121
v 0.161300 0.899017 3.242520
v 0.000000 1.044274 3.315203
v 0.000000 0.775587 3.150613
v 0.134901 1.026028 3.294732
v 0.611346 2.252748 0.987890
v 0.714963 1.650446 0.942797
v 0.665287 1.227747 1.267184
v 0.671377 2.402797 1.230409
v 0.795763 1.706475 1.438942
v 0.817894 1.206650 1.709921
v 0.636496 2.423547 1.417711
v 0.807368 1.805132 1.588313
v 0.826523 1.204474 1.889854
v 0.640197 2.292980 1.586735
v 0.757121 1.909027 1.743176
v 0.756675 1.226962 2.015850
v 0.434696 0.778996 1.483977
v 0.534424 0.806139 1.410603
v 0.742118 0.792044 1.947871
v 0.590529 0.771935 1.991063
v 0.793416 0.774384 1.829673
v 0.408639 0.743703 1.714840
v 0.787536 0.778443 1.699067
v 0.677692 0.823308 1.407683
v 0.409805 0.735263 1.846221
v 0.452504 0.755532 1.925653
v 0.748370 0.597898 1.915763
v 0.599263 0.601156 1.957397
v 0.540455 0.084430 1.581404
v 0.801034 0.576074 1.829241
v 0.422076 0.553028 1.738197
v 0.423919 0.089573 1.636061
v 0.791997 0.557402 1.730065
v 0.680364 0.536347 1.554900
v 0.420762 0.573980 1.851435
v 0.462487 0.593091 1.921914
v 0.443388 0.339820 1.600695
v 0.548622 0.330701 1.549103
v 0.776371 0.395934 1.886899
v 0.613536 0.401116 1.925431
v 0.798249 0.373571 1.806609
v 0.422086 0.357565 1.721447
v 0.790302 0.353327 1.715012
v 0.701375 0.330763 1.556192
v 0.422434 0.379586 1.824574
v 0.464866 0.397440 1.889071
v 0.819443 0.101233 1.940787
v 0.611967 0.095745 1.975872
v 0.653156 0.098346 1.853857
v 0.818126 0.099997 1.854040
v 0.400476 0.098240 1.764297
v 0.644945 0.094674 1.751494
v 0.810716 0.093386 1.759474
v 0.709743 0.083625 1.589821
v 0.403227 0.105157 1.872797
v 0.419870 0.105367 1.941174
v 0.431137 0.218138 1.622012
v 0.411180 0.251816 1.855865
v 0.408500 0.234030 1.747407
v 0.803695 0.228737 1.741823
v 0.810865 0.245965 1.836993
v 0.793106 0.317159 1.914137
v 0.616465 0.311005 1.962373
v 0.707197 0.208815 1.576812
v 0.543676 0.209300 1.568894
v 0.454324 0.319723 1.916026
v 0.608404 0.208764 2.106885
v 0.607995 0.087766 2.111592
v 0.785293 0.093267 2.074583
v 0.446384 0.095671 2.076409
v 0.779734 0.215398 2.068415
v 0.452427 0.219316 2.069382
v 0.762347 2.218572 -0.266889
v 0.786877 1.675374 -0.087368
v 0.762425 1.091100 -0.321018
v 0.752301 2.147147 -0.505138
v 0.858094 1.714914 -0.572084
v 0.810190 1.213424 -0.550269
v 0.742117 2.035784 -0.707948
v 0.837768 1.732743 -0.789740
v 0.742166 1.360591 -0.780561
v 0.604163 0.291729 -1.300374
v 0.522740 1.091273 -0.970487
v 0.633282 0.866816 -0.399076
v 0.436582 0.875885 -0.460803
v 0.377180 0.969718 -0.705415
v 0.410639 1.070158 -0.928433
v 0.800026 0.983407 -0.698907
v 0.745499 1.075529 -0.934419
v 0.761723 0.895987 -0.471003
v 0.539125 0.915999 -1.000512
v 0.640158 0.465203 -0.704144
v 0.460949 0.516462 -0.745716
v 0.406667 0.730438 -0.854539
v 0.437024 0.887051 -0.974803
v 0.791840 0.722275 -0.838131
v 0.742051 0.891625 -0.972310
v 0.757105 0.526577 -0.733515
v 0.547170 0.481986 -1.440546
v 0.666837 0.119761 -1.161321
v 0.411934 0.152405 -1.204737
v 0.399713 0.306852 -1.322937
v 0.433536 0.452884 -1.423839
v 0.828398 0.303536 -1.307039
v 0.773026 0.457426 -1.420654
v 0.833258 0.163039 -1.195490
v 0.824119 0.312846 -1.021831
v 0.392506 0.453466 -1.150371
v 0.426330 0.595962 -1.255048
v 0.402795 0.302767 -1.030682
v 0.657705 0.269625 -0.988943
v 0.539963 0.624682 -1.272202
v 0.765818 0.600597 -1.251597
v 0.782621 0.138234 -1.027012
v 0.789705 0.056448 -1.106748
v 0.659511 0.013178 -1.073039
v 0.460085 0.045787 -1.115930
v 0.453003 0.126727 -1.036258
v 0.652424 0.097038 -0.991591
v 0.783082 0.598627 -0.973628
v 0.423857 0.602165 -0.986224
v 0.641554 0.412093 -0.841276
v 0.750641 0.456004 -0.872568
v 0.452171 0.738349 -1.075826
v 0.474431 0.447550 -0.879613
v 0.547387 0.764693 -1.091497
v 0.736649 0.742270 -1.073005
v -0.000000 1.964712 -0.963352
v -0.000000 1.715167 -1.003691
v 0.092420 1.733243 -0.967637
v 0.076591 1.955334 -0.937061
v 0.127602 1.723658 -0.919257
v 0.088882 2.048142 -0.898695
v -0.000000 1.692332 -0.956154
v -0.000000 2.059583 -0.930772
v 0.353936 1.736121 2.709867
v 0.462452 1.316357 2.703591
v 0.346085 1.549030 2.992529
v 0.469988 1.280292 2.905097
v 0.431634 1.640168 2.823541
v 0.509515 1.623176 2.839749
v 0.472450 1.646577 2.840672
v 0.537234 1.587415 2.828766
v 0.536419 1.502886 2.795909
v 0.550043 1.545792 2.813977
v 0.514399 1.583866 2.874183
v 0.455471 1.594748 2.877524
v 0.486059 1.599362 2.879955
v 0.527030 1.510082 2.850893
v 0.527210 1.569296 2.868479
v 0.537319 1.540570 2.858903
v 0.372831 1.574724 2.866917
v 0.460350 1.389737 2.822931
v 0.490673 1.622954 2.886586
v 0.529939 1.601298 2.879105
v 0.447174 1.616345 2.883562
v 0.548145 1.580368 2.871636
v 0.562047 1.540661 2.859004
v 0.548125 1.499406 2.847986
v 0.383871 1.550576 2.861136
v 0.450291 1.411086 2.827946
v 0.413090 1.549998 2.849560
v 0.458299 1.454550 2.828040
v 0.473111 1.574604 2.860746
v 0.493557 1.563472 2.856596
v 0.451044 1.571279 2.858986
v 0.502798 1.552997 2.852491
v 0.510091 1.532325 2.845598
v 0.502668 1.510422 2.839849
v 0.399391 1.539546 2.847197
v 0.447307 1.438862 2.823169
v 0.058900 0.967703 3.387460
v 0.055763 0.879810 3.394029
v 0.099802 0.971568 3.359559
v 0.095412 0.883375 3.366987
v 0.000000 0.879851 3.397080
v 0.000000 0.965148 3.390813
v 0.030579 0.902361 3.421564
v 0.000000 0.952506 3.418134
v 0.000000 0.902163 3.420942
v -0.547098 1.169283 0.600777
v -0.532547 2.435186 0.473738
v -0.611224 1.234294 0.061455
v -0.618787 2.382653 -0.231384
v -0.711191 1.816922 0.082898
v -0.621056 1.165945 0.300156
v -0.609202 2.460007 0.118390
v -0.653734 1.755346 0.514386
v -0.721235 1.819585 0.178356
v -0.839126 0.270800 -0.255430
v -0.536499 2.271572 -0.532965
v -0.472126 1.246921 -0.612737
v -0.464476 2.070032 -0.748386
v -0.090362 0.801797 3.111940
v -0.565298 1.651984 -0.798858
v -0.084677 1.189999 3.210551
v -0.172094 1.590682 3.042972
v -0.473043 1.211200 0.982955
v -0.501766 2.382999 0.889754
v -0.175772 0.836247 2.912820
v -0.618933 1.707573 0.850764
v -0.059274 0.800782 3.343518
v -0.033850 0.954300 3.419296
v -0.047665 0.761182 3.230017
v -0.568110 2.549011 1.239714
v -0.583588 0.621384 0.870542
v -0.118300 1.399538 3.216641
v -0.136209 0.806012 3.025762
v -0.177045 1.783865 2.829332
v -0.580563 2.551395 1.435949
v -0.487959 0.596218 0.922053
v -0.190837 0.874301 2.798403
v -0.177045 1.909499 2.654509
v -0.177045 0.918296 2.658427
v -0.540888 2.485950 1.719296
v -0.686203 1.748589 1.711195
v -0.566130 0.945212 1.697586
v -0.181751 2.061070 2.402692
v -0.181751 1.084631 2.311419
v -0.457344 2.241761 2.016220
v -0.561658 1.548957 1.904242
v -0.461262 1.278363 1.888811
v -0.227553 2.303957 2.070497
v -0.231050 1.208011 1.898167
v -0.270860 2.555874 1.765667
v -0.364347 1.006937 1.627896
v -0.364925 2.003908 2.358032
v -0.445769 1.420802 2.317965
v -0.364925 1.137569 2.256526
v -0.287587 2.624877 1.479461
v -0.308815 1.010289 1.512808
v -0.280733 2.623091 1.276934
v -0.355746 1.860884 2.611356
v -0.433703 1.370554 2.600289
v -0.355746 0.967997 2.610146
v -0.312417 1.049387 1.390263
v -0.251326 2.457454 0.911338
v -0.337940 1.123969 1.143834
v -0.372539 1.602681 2.782769
v -0.455708 1.393582 2.745279
v -0.382651 0.926279 2.755649
v -0.250116 1.614310 -0.880977
v -0.203260 2.090757 -0.852286
v -0.331522 1.214683 -0.584721
v -0.241143 1.374862 3.163108
v -0.339854 1.138177 3.052328
v -0.276080 0.844542 2.989325
v -0.249491 2.248874 -0.666134
v -0.290389 1.148722 -0.333591
v -0.307109 2.558208 0.092827
v -0.069124 0.956055 3.397165
v -0.125993 0.818128 3.306651
v -0.103346 0.787289 3.228316
v -0.064203 0.903955 3.400107
v -0.465527 1.432823 2.834643
v -0.353261 0.881775 2.871776
v -0.316131 1.041502 0.236725
v -0.402860 1.565369 2.864467
v -0.267629 2.510747 0.480969
v -0.277709 1.050331 0.600148
v -0.301456 2.449383 -0.400429
v -0.365607 1.122653 -0.035060
v -0.186642 0.833833 3.076900
v -0.210413 0.978147 3.179502
v -0.175549 1.157596 3.186121
v -0.070240 0.781379 3.165711
v -0.067630 1.035340 3.326106
v -0.139993 0.800446 3.159121
v -0.161300 0.899017 3.242520
v -0.134901 1.026028 3.294732
v -0.620052 2.275479 0.990071
v -0.719282 1.691289 0.898543
v -0.671820 1.312486 1.008504
v -0.677388 2.432427 1.238107
v -0.816595 1.665833 1.316506
v -0.835056 1.120577 1.355966
v -0.640384 2.449749 1.420220
v -0.830737 1.701840 1.486779
v -0.846691 1.028356 1.510318
v -0.654543 2.307529 1.602831
v -0.781970 1.748289 1.678205
v -0.776659 0.983792 1.659295
v -0.466614 0.851719 0.946924
v -0.563833 0.914966 0.897830
v -0.782656 0.637394 1.348479
v -0.631939 0.590362 1.384371
v -0.832754 0.685026 1.238277
v -0.447024 0.703394 1.123337
v -0.824433 0.755826 1.128116
v -0.707780 0.937996 0.901666
v -0.450375 0.624912 1.243983
v -0.492143 0.600358 1.342917
v -0.789003 0.478497 1.216666
v -0.640172 0.462997 1.251698
v -0.570732 0.185141 0.651905
v -0.841322 0.505102 1.131439
v -0.462589 0.537603 1.042473
v -0.454209 0.171830 0.705507
v -0.832182 0.541854 1.037348
v -0.721081 0.619005 0.878108
v -0.461558 0.494876 1.149182
v -0.503539 0.474118 1.218487
v -0.479927 0.431942 0.804969
v -0.585331 0.449311 0.757282
v -0.812322 0.331252 1.074200
v -0.649853 0.327535 1.106185
v -0.833818 0.348697 0.996129
v -0.458206 0.385522 0.916518
v -0.826089 0.377393 0.910391
v -0.738004 0.443032 0.763947
v -0.458762 0.353508 1.014413
v -0.501539 0.338460 1.077381
v -0.850024 0.083977 1.007944
v -0.643132 0.090368 1.050104
v -0.683364 0.104761 0.927373
v -0.848196 0.097431 0.919670
v -0.430617 0.131639 0.830135
v -0.674904 0.126230 0.815361
v -0.840614 0.118957 0.820789
v -0.739929 0.177268 0.658257
v -0.433630 0.107964 0.942200
v -0.450660 0.096603 1.012013
v -0.465011 0.311683 0.754433
v -0.444612 0.236704 0.973337
v -0.441946 0.266444 0.871088
v -0.836961 0.256256 0.863644
v -0.844038 0.228622 0.953100
v -0.827571 0.261380 1.052549
v -0.652140 0.270728 1.082315
v -0.741161 0.321231 0.710833
v -0.577720 0.328346 0.704321
v -0.488967 0.271197 1.056789
v -0.643582 0.178695 1.193667
v -0.640020 0.066919 1.184043
v -0.816713 0.061694 1.142331
v -0.478016 0.072659 1.148011
v -0.814163 0.172306 1.155430
v -0.486888 0.179702 1.160585
v -0.761089 2.279841 -0.300103
v -0.790193 1.819975 -0.003105
v -0.771211 1.249961 -0.017670
v -0.751940 2.158738 -0.517053
v -0.862051 1.721106 -0.478710
v -0.818883 1.240542 -0.275658
v -0.743099 1.997781 -0.692605
v -0.841976 1.670771 -0.698937
v -0.750557 1.253172 -0.553220
v -0.624392 0.039689 -0.248577
v -0.534228 0.906776 -0.576689
v -0.644102 1.030233 0.029826
v -0.447655 0.998557 -0.035986
v -0.388499 0.949438 -0.294044
v -0.422117 0.910977 -0.530498
v -0.811187 0.968272 -0.283850
v -0.756943 0.916484 -0.536254
v -0.772584 1.019484 -0.043715
v -0.552373 0.717078 -0.507907
v -0.655316 0.579059 0.034727
v -0.475969 0.585291 -0.031405
v -0.420690 0.661658 -0.262293
v -0.450393 0.707725 -0.468033
v -0.805808 0.671184 -0.244813
v -0.755353 0.716069 -0.469343
v -0.771960 0.603460 -0.030199
v -0.566987 0.056137 -0.486603
v -0.687195 0.048964 -0.027577
v -0.432449 0.026780 -0.081385
v -0.419997 0.029976 -0.277155
v -0.453450 0.049210 -0.453724
v -0.848574 0.044280 -0.264993
v -0.792869 0.057746 -0.455400
v -0.853603 0.045513 -0.084187
v -0.842336 0.260573 -0.081610
v -0.410543 0.256837 -0.269352
v -0.443969 0.278725 -0.444162
v -0.421158 0.243781 -0.080428
v -0.676025 0.254813 -0.028182
v -0.557488 0.287417 -0.476628
v -0.783379 0.288291 -0.445083
v -0.801922 0.162170 0.038792
v -0.810108 0.053357 0.055045
v -0.679936 0.055932 0.110647
v -0.480654 0.035412 0.058059
v -0.472495 0.141974 0.042786
v -0.671718 0.167429 0.092575
v -0.798859 0.489153 -0.248304
v -0.439705 0.478590 -0.259999
v -0.657914 0.452711 -0.025087
v -0.766861 0.462180 -0.077387
v -0.467523 0.510320 -0.424236
v -0.490771 0.448418 -0.077126
v -0.562624 0.519031 -0.454978
v -0.751939 0.517942 -0.425407
v -0.092496 1.730482 -0.965810
v -0.076591 1.955334 -0.937061
v -0.127904 1.712451 -0.914433
v -0.088882 2.048142 -0.898695
v -0.353936 1.736121 2.709867
v -0.462452 1.316363 2.703598
v -0.346085 1.549042 2.992531
v -0.469988 1.280299 2.905103
v -0.431634 1.640231 2.823539
v -0.509515 1.623284 2.839749
v -0.472450 1.646680 2.840666
v -0.537234 1.587533 2.828777
v -0.536419 1.502952 2.795933
v -0.550043 1.545881 2.813996
v -0.514399 1.583958 2.874192
v -0.455471 1.594833 2.877530
v -0.486059 1.599454 2.879960
v -0.527030 1.510156 2.850914
v -0.527210 1.569387 2.868491
v -0.537319 1.540656 2.858921
v -0.372831 1.574741 2.866919
v -0.460350 1.389750 2.822939
v -0.490673 1.623056 2.886586
v -0.529939 1.601402 2.879111
v -0.447174 1.616429 2.883564
v -0.548145 1.580471 2.871647
v -0.562047 1.540752 2.859022
v -0.548125 1.499482 2.848010
v -0.383871 1.550626 2.861145
v -0.450291 1.411100 2.827954
v -0.413090 1.550051 2.849570
v -0.458299 1.454569 2.828049
v -0.473111 1.574683 2.860755
v -0.493557 1.563537 2.856606
v -0.451044 1.571363 2.858997
v -0.502798 1.553069 2.852504
v -0.510091 1.532406 2.845617
v -0.502668 1.510487 2.839867
v -0.399391 1.539593 2.847207
v -0.447307 1.438880 2.823178
v -0.058900 0.967703 3.387460
v -0.055763 0.879810 3.394029
v -0.099802 0.971568 3.359559
v -0.095412 0.883375 3.366987
v -0.030579 0.902361 3.421564
v 0.291561 1.167796 3.085443
v 0.306648 1.235901 3.100930
v 0.269728 1.165667 3.127317
v 0.232186 1.125542 3.125061
v 0.245906 1.170978 3.097280
v 0.291926 1.239183 3.082366
v 0.256597 1.235739 3.150120
v 0.210577 1.167535 3.165034
v 0.195855 1.170817 3.146470
v 0.232775 1.241050 3.120083
v 0.270316 1.281175 3.122339
v 0.210942 1.238922 3.161957
v 0.285805 1.160301 3.103339
v 0.307506 1.201583 3.087829
v 0.294673 1.200332 3.112442
v 0.307720 1.243544 3.086021
v 0.298852 1.203512 3.076918
v 0.263739 1.136716 3.102013
v 0.250905 1.135465 3.126626
v 0.271803 1.163423 3.085684
v 0.236903 1.138587 3.108971
v 0.272017 1.205383 3.083875
v 0.295019 1.268226 3.109516
v 0.286365 1.270156 3.098604
v 0.265254 1.200237 3.141355
v 0.286955 1.241520 3.125845
v 0.216138 1.136562 3.148796
v 0.238204 1.160147 3.150122
v 0.215548 1.165198 3.121555
v 0.207484 1.138492 3.137884
v 0.264299 1.246571 3.097278
v 0.237249 1.206481 3.106045
v 0.265600 1.268131 3.138429
v 0.230486 1.201335 3.163525
v 0.194783 1.163174 3.161379
v 0.207830 1.206386 3.134958
v 0.251598 1.271253 3.120774
v 0.230700 1.243295 3.161716
v 0.238764 1.270002 3.145387
v 0.203650 1.203206 3.170482
v 0.194997 1.205135 3.159570
v 0.216698 1.246417 3.144061
v -0.291561 1.167795 3.085443
v -0.306648 1.235901 3.100930
v -0.269728 1.165667 3.127317
v -0.232186 1.125542 3.125062
v -0.245906 1.170978 3.097280
v -0.291925 1.239183 3.082366
v -0.256597 1.235739 3.150120
v -0.210577 1.167534 3.165034
v -0.195854 1.170817 3.146471
v -0.232775 1.241050 3.120083
v -0.270316 1.281175 3.122339
v -0.210942 1.238922 3.161957
v -0.285805 1.160301 3.103339
v -0.307506 1.201583 3.087830
v -0.294673 1.200332 3.112442
v -0.307720 1.243543 3.086021
v -0.298852 1.203512 3.076918
v -0.263739 1.136716 3.102014
v -0.250905 1.135465 3.126627
v -0.271803 1.163422 3.085684
v -0.236903 1.138587 3.108971
v -0.272017 1.205383 3.083875
v -0.295019 1.268226 3.109516
v -0.286365 1.270155 3.098605
v -0.265254 1.200237 3.141356
v -0.286955 1.241520 3.125846
v -0.216137 1.136562 3.148796
v -0.238204 1.160147 3.150122
v -0.215548 1.165198 3.121555
v -0.207484 1.138491 3.137884
v -0.264299 1.246571 3.097279
v -0.237249 1.206481 3.106045
v -0.265599 1.268131 3.138430
v -0.230486 1.201334 3.163525
v -0.194782 1.163174 3.161380
v -0.207830 1.206386 3.134958
v -0.251597 1.271253 3.120774
v -0.230700 1.243295 3.161717
v -0.238764 1.270001 3.145387
v -0.203650 1.203206 3.170483
v -0.194997 1.205135 3.159571
v -0.216698 1.246417 3.144061
vn -0.8565 -0.5161 -0.0000
vn 0.3724 0.7817 -0.5003
vn 0.9873 -0.1362 -0.0817
vn 0.9913 0.1296 -0.0236
vn 0.9697 0.1451 0.1966
vn 0.9788 -0.1336 0.1554
vn 0.9779 -0.1536 0.1417
vn 0.2009 -0.9469 0.2511
vn 0.1580 -0.9496 -0.2707
vn 0.1014 -0.9903 0.0946
vn 0.1168 0.9633 -0.2417
vn 0.1806 0.9720 0.1506
vn 0.2643 0.7494 -0.6071
vn 0.2072 -0.1315 -0.9694
vn 0.0641 -0.9129 -0.4031
vn 0.6599 0.2875 0.6942
vn 0.1881 0.2262 -0.9558
vn 0.0584 -0.2350 -0.9702
vn 0.2376 0.3364 -0.9113
vn 0.2193 -0.8262 -0.5189
vn 0.8311 0.5558 0.0179
vn 0.9964 -0.0697 -0.0480
vn 0.1536 0.9798 0.1284
vn 0.9835 0.1548 0.0938
vn 0.3757 -0.5974 -0.7085
vn 0.1126 0.9934 -0.0206
vn 0.0057 0.9156 -0.4021
vn -0.6387 -0.3871 -0.6650
vn 0.6575 0.1403 -0.7403
vn 0.1646 0.9590 0.2308
vn -0.9483 -0.2978 -0.1097
vn 0.9370 -0.0734 -0.3416
vn 0.0105 0.8040 -0.5946
vn 0.4477 0.1232 0.8856
vn -0.3011 -0.4374 0.8474
vn 0.1304 -0.9750 0.1797
vn -0.0491 -0.9727 -0.2269
vn -0.0320 -0.9961 0.0820
vn 0.1029 -0.0915 0.9905
vn 0.7600 0.4965 -0.4194
vn 0.3581 0.9100 -0.2088
vn 0.9482 -0.3066 0.0833
vn 0.3044 -0.8443 -0.4409
vn 0.3178 0.9387 0.1333
vn 0.2081 0.7377 0.6423
vn 0.0544 0.8050 -0.5908
vn 0.8339 0.1527 0.5304
vn 0.4772 -0.5211 0.7076
vn 0.8094 0.1343 -0.5717
vn 0.1354 -0.2921 -0.9467
vn 0.9853 0.1427 0.0934
vn 0.9737 0.1057 -0.2019
vn 0.1710 0.7737 0.6100
vn 0.4969 -0.8672 -0.0325
vn 0.9394 0.1157 0.3227
vn 0.3074 0.9423 0.1329
vn 0.2950 0.9553 -0.0206
vn 0.9788 0.1997 0.0464
vn 0.2308 0.8796 -0.4159
vn 0.0765 0.8073 0.5852
vn 0.1322 -0.8948 -0.4264
vn 0.9751 -0.2164 -0.0484
vn 0.3262 0.9156 0.2350
vn 0.1167 0.8418 0.5270
vn -0.0020 0.6598 0.7514
vn 0.4691 -0.8831 0.0040
vn 0.8388 -0.2834 0.4648
vn 0.2122 -0.9616 -0.1740
vn 0.1551 -0.7369 0.6580
vn 0.1812 -0.9345 -0.3064
vn 0.9342 -0.2085 -0.2894
vn 0.1989 -0.9202 0.3373
vn 0.8717 -0.4698 0.1390
vn 0.3324 -0.9391 -0.0872
vn 0.2978 -0.9041 -0.3064
vn 0.3359 0.7005 0.6297
vn 0.3516 0.7270 0.5898
vn 0.7604 0.0822 0.6443
vn 0.4537 0.6556 0.6036
vn 0.1548 -0.8895 -0.4300
vn 0.1859 -0.9233 0.3362
vn 0.8837 -0.0099 0.4679
vn 0.3514 0.8045 0.4788
vn 0.3832 0.5398 0.7495
vn 0.1217 -0.9698 -0.2114
vn 0.4144 0.5779 0.7031
vn 0.1593 -0.9389 -0.3052
vn 0.5346 0.0002 0.8451
vn 0.1479 -0.9537 -0.2618
vn 0.3937 -0.8834 0.2541
vn -0.3035 -0.3959 0.8667
vn -0.0092 0.6825 0.7308
vn 0.1790 -0.9367 -0.3009
vn 0.9703 -0.2417 0.0055
vn 0.0310 -0.5445 0.8382
vn 0.0504 0.7399 0.6709
vn 0.6302 -0.0167 0.7763
vn 0.1441 -0.9491 -0.2799
vn -0.1346 0.0443 0.9899
vn 0.4465 0.7046 0.5514
vn 0.3330 -0.0400 0.9421
vn 0.0463 -0.9989 0.0024
vn 0.3308 -0.9268 0.1780
vn 0.7809 -0.3514 0.5165
vn 0.4028 0.5127 0.7583
vn 0.1485 -0.9445 -0.2931
vn 0.8472 0.0682 0.5268
vn -0.0169 0.5897 0.8075
vn 0.2233 -0.9389 -0.2618
vn 0.8796 -0.3812 0.2846
vn 0.9565 -0.1778 -0.2312
vn 0.9762 0.2166 -0.0093
vn 0.9645 0.1412 -0.2233
vn 0.9336 0.3204 0.1605
vn 0.9980 0.0048 -0.0627
vn 0.9316 0.1597 0.3265
vn 0.7635 0.3195 0.5613
vn 0.9007 0.3674 0.2317
vn -0.6581 0.0111 0.7528
vn -0.0093 0.3347 0.9423
vn 0.0462 -0.4516 -0.8910
vn 0.8911 -0.0061 0.4537
vn -0.9836 -0.1077 -0.1445
vn -0.9976 -0.0689 0.0029
vn 0.9975 0.0239 -0.0663
vn 0.2763 -0.1595 0.9477
vn 0.8820 -0.1163 0.4567
vn -0.8812 -0.0440 0.4707
vn 0.1666 -0.3635 -0.9166
vn -0.9509 -0.2843 -0.1223
vn 0.9135 0.0052 0.4068
vn -0.9830 0.0194 -0.1825
vn -1.0000 -0.0039 -0.0037
vn 0.9961 -0.0028 -0.0881
vn 0.2441 -0.1200 0.9623
vn 0.8525 0.0576 -0.5195
vn -0.8640 -0.0536 0.5006
vn -0.3323 -0.1236 0.9350
vn -0.4751 -0.4108 -0.7782
vn 0.8919 -0.1385 -0.4305
vn 0.0484 -0.1015 -0.9937
vn 0.9935 0.0990 0.0559
vn -0.9827 0.0354 -0.1820
vn -0.9981 0.0587 0.0183
vn 0.9958 0.0405 -0.0816
vn 0.9728 0.1115 0.2029
vn 0.0483 -0.0028 -0.9988
vn -0.8335 -0.0921 0.5449
vn -0.2342 -0.1667 0.9578
vn -0.4762 0.0051 -0.8793
vn -0.0117 -0.9977 0.0664
vn 0.0189 -0.9998 -0.0029
vn -0.0177 -0.9985 0.0511
vn -0.0094 -0.9979 0.0644
vn -0.0365 -0.9992 -0.0173
vn -0.0002 -0.9986 0.0522
vn -0.9245 0.1495 0.3508
vn -0.9824 0.1304 0.1336
vn -0.4283 -0.0767 -0.9004
vn 0.8620 -0.0279 -0.5061
vn 0.8690 -0.0273 -0.4940
vn -0.4382 -0.1197 -0.8909
vn -0.2350 0.3551 0.9048
vn -0.8681 0.2184 0.4457
vn 0.2292 0.3690 0.9007
vn 0.9921 0.0804 -0.0964
vn -0.9952 0.0974 -0.0041
vn -0.9805 0.0678 -0.1843
vn 0.9741 0.1776 0.1397
vn 0.0465 -0.1635 -0.9854
vn 0.2098 0.0481 0.9766
vn -0.2199 0.0525 0.9741
vn 0.1110 0.8170 0.5658
vn 0.0179 -0.9982 -0.0565
vn -0.0970 0.8244 0.5576
vn -0.0372 -0.9974 -0.0620
vn 0.9870 0.1408 0.0773
vn 0.9542 -0.1656 -0.2492
vn 0.9853 -0.0936 0.1430
vn 0.9488 0.2868 -0.1326
vn 0.5871 -0.3632 0.7234
vn 0.5201 0.7822 -0.3429
vn 0.9843 -0.1175 0.1314
vn 0.3370 0.7784 -0.5297
vn -0.9706 -0.1923 0.1448
vn -0.3313 0.1587 -0.9301
vn -0.3005 -0.5920 0.7478
vn 0.9863 -0.1025 0.1294
vn 0.1532 0.4831 -0.8621
vn -0.3961 0.3753 -0.8380
vn -0.9343 -0.2113 -0.2871
vn -0.1517 -0.7034 0.6945
vn -0.2785 0.7267 -0.6279
vn -0.9434 -0.2728 0.1884
vn 0.9991 0.0391 0.0137
vn -0.9811 0.1250 -0.1475
vn 0.4827 -0.5183 0.7060
vn 0.1640 0.1890 -0.9682
vn 0.9715 0.0653 -0.2279
vn -0.9778 -0.0336 -0.2069
vn 0.0065 -0.6248 -0.7808
vn 0.0499 -0.6111 -0.7900
vn 0.0405 -0.5803 -0.8134
vn 0.0069 -0.5920 -0.8059
vn -0.9978 -0.0661 0.0096
vn 0.9443 -0.2105 0.2528
vn 0.1388 0.7585 -0.6367
vn 0.9604 0.2313 -0.1555
vn 0.9557 0.2886 -0.0573
vn 0.1447 0.7829 -0.6050
vn 0.3583 -0.6165 0.7011
vn -0.9567 0.0242 0.2900
vn -0.9779 0.2084 -0.0138
vn 0.9617 0.0947 0.2574
vn -0.2419 -0.6766 0.6955
vn -0.2919 0.7654 -0.5735
vn -0.2566 -0.6869 0.6800
vn 0.3834 -0.6270 0.6781
vn -0.1930 -0.0480 0.9800
vn 0.0562 -0.6316 -0.7733
vn 0.2387 -0.0540 0.9696
vn 0.0111 -0.6404 -0.7680
vn -0.3091 0.4954 -0.8118
vn -0.3059 -0.8743 0.3768
vn 0.9854 -0.1600 0.0586
vn -0.9785 0.0532 -0.1993
vn -0.9691 -0.2379 0.0647
vn 0.4712 -0.8082 0.3533
vn 0.1624 0.5315 -0.8313
vn 0.9669 0.1364 -0.2156
vn 0.3353 0.1511 -0.9299
vn 0.3267 -0.8525 -0.4080
vn 0.3507 0.3110 -0.8834
vn 0.2211 0.5199 -0.8251
vn 0.1792 -0.1982 -0.9637
vn 0.2800 0.1159 -0.9530
vn 0.9565 0.2886 0.0426
vn 0.9345 0.2983 0.1942
vn 0.9962 0.0805 -0.0320
vn 0.8969 0.3339 0.2899
vn -0.5825 0.7425 0.3307
vn 0.7647 0.6410 -0.0660
vn 0.8073 -0.5747 -0.1341
vn 0.5140 0.8315 0.2107
vn -0.2418 0.8545 0.4598
vn 0.9127 0.3630 -0.1876
vn 0.9425 -0.2221 -0.2498
vn 0.2550 0.3344 -0.9073
vn -0.0600 -0.2550 0.9651
vn 0.0311 -0.2851 0.9580
vn -0.0296 -0.2721 0.9618
vn 0.0070 -0.3064 0.9519
vn -0.0000 -0.2564 0.9666
vn 0.0385 -0.3179 0.9474
vn -0.0452 -0.3156 0.9478
vn 0.0449 -0.2496 0.9673
vn -0.0019 -0.2686 0.9632
vn 0.0078 -0.2295 0.9733
vn 0.1641 -0.6298 0.7592
vn -0.0305 -0.2398 0.9703
vn 0.2959 -0.5587 0.7748
vn -0.4093 0.1352 0.9024
vn -0.4124 -0.0984 0.9057
vn -0.1399 -0.5605 0.8163
vn 0.7286 0.1901 0.6580
vn -0.2068 -0.5093 0.8354
vn -0.5082 0.0918 0.8563
vn 0.0318 -0.6231 0.7815
vn 0.3193 0.7562 0.5711
vn 0.5296 -0.3765 0.7601
vn 0.5248 -0.4372 0.7304
vn -0.0292 0.0505 0.9983
vn 0.0200 -0.7483 0.6630
vn -0.0339 0.9199 0.3907
vn 0.7525 -0.0013 0.6586
vn 0.8621 -0.4532 0.2269
vn -0.3148 0.7985 -0.5131
vn -0.9818 -0.1664 -0.0911
vn -0.9870 0.1582 -0.0294
vn -0.9568 0.1860 0.2235
vn -0.9707 -0.1278 0.2035
vn -0.9696 -0.1969 0.1453
vn -0.4870 -0.8658 0.1153
vn -0.4379 -0.8714 -0.2212
vn -0.3812 -0.9209 0.0814
vn -0.1077 0.9650 -0.2393
vn -0.1788 0.9721 0.1519
vn -0.2935 0.6675 -0.6843
vn -0.2687 -0.4116 -0.8709
vn -0.4201 -0.8774 -0.2318
vn -0.6391 0.4483 0.6250
vn -0.3008 0.1332 -0.9443
vn -0.1779 -0.5079 -0.8429
vn -0.2802 0.1474 -0.9486
vn -0.3257 -0.8907 -0.3171
vn -0.7911 0.6114 0.0195
vn -0.9976 0.0129 -0.0673
vn -0.1518 0.9801 0.1275
vn -0.9791 0.1723 0.1082
vn -0.3097 -0.3165 -0.8966
vn -0.0910 0.9957 -0.0195
vn 0.0090 0.9129 -0.4080
vn 0.6975 0.0838 -0.7117
vn -0.6210 0.1856 -0.7616
vn -0.1542 0.9594 0.2363
vn 0.9553 -0.2658 -0.1295
vn -0.9253 0.1822 -0.3325
vn 0.0028 0.7985 -0.6020
vn -0.8151 -0.1822 0.5499
vn 0.0890 -0.6736 0.7338
vn -0.3697 -0.9257 0.0793
vn -0.4235 -0.8869 -0.1843
vn -0.3772 -0.9230 0.0768
vn -0.2960 -0.6179 0.7284
vn -0.7199 0.5375 -0.4392
vn -0.3111 0.9283 -0.2036
vn -0.9348 -0.3256 0.1418
vn -0.2361 -0.9330 -0.2716
vn -0.2862 0.9483 0.1369
vn -0.2062 0.7376 0.6430
vn -0.0679 0.7973 -0.5997
vn -0.8737 0.1128 0.4732
vn -0.4673 -0.0800 0.8805
vn -0.8294 0.1245 -0.5446
vn -0.3806 -0.3979 -0.8347
vn -0.9858 0.1415 0.0902
vn -0.9744 -0.0053 -0.2250
vn -0.1705 0.7737 0.6102
vn -0.3424 -0.9234 -0.1733
vn -0.9456 0.1004 0.3093
vn -0.2839 0.9494 0.1341
vn -0.2435 0.9697 -0.0219
vn -0.9788 0.1997 0.0464
vn -0.1955 0.8795 -0.4338
vn -0.0765 0.8073 0.5852
vn -0.1322 -0.8948 -0.4264
vn -0.9740 -0.2222 -0.0443
vn -0.2760 0.9290 0.2466
vn -0.1167 0.8418 0.5270
vn 0.0020 0.6598 0.7515
vn -0.2300 -0.9732 0.0055
vn -0.8388 -0.2834 0.4648
vn -0.2122 -0.9616 -0.1740
vn -0.1522 -0.7812 0.6055
vn -0.1812 -0.9345 -0.3064
vn -0.9342 -0.2085 -0.2894
vn -0.0707 -0.9500 0.3042
vn -0.8717 -0.4698 0.1390
vn -0.3324 -0.9391 -0.0872
vn -0.1754 -0.9500 -0.2584
vn -0.3141 0.6990 0.6425
vn -0.3514 0.7266 0.5903
vn -0.7604 0.0822 0.6443
vn -0.4537 0.6556 0.6036
vn -0.1548 -0.8895 -0.4300
vn -0.1859 -0.9233 0.3362
vn -0.8837 -0.0099 0.4679
vn -0.3514 0.8045 0.4788
vn -0.3831 0.5398 0.7495
vn -0.1217 -0.9698 -0.2114
vn -0.4144 0.5779 0.7031
vn -0.1593 -0.9389 -0.3052
vn -0.5346 0.0002 0.8451
vn -0.1479 -0.9537 -0.2618
vn -0.3937 -0.8834 0.2541
vn 0.3034 -0.3957 0.8668
vn 0.0092 0.6825 0.7308
vn -0.1790 -0.9367 -0.3009
vn -0.9703 -0.2417 0.0055
vn -0.0310 -0.5445 0.8382
vn -0.0504 0.7399 0.6708
vn -0.6302 -0.0167 0.7763
vn -0.1441 -0.9491 -0.2799
vn 0.1346 0.0443 0.9899
vn -0.4465 0.7047 0.5514
vn -0.3330 -0.0401 0.9421
vn -0.0463 -0.9989 0.0024
vn -0.3308 -0.9268 0.1780
vn -0.7809 -0.3514 0.5165
vn -0.4028 0.5127 0.7583
vn -0.1485 -0.9445 -0.2931
vn -0.8472 0.0682 0.5268
vn 0.0169 0.5897 0.8075
vn -0.2233 -0.9389 -0.2618
vn -0.8796 -0.3812 0.2846
vn -0.9357 -0.0848 -0.3426
vn -0.9761 0.2153 0.0307
vn -0.9519 0.1705 -0.2547
vn -0.9564 0.2491 0.1523
vn -0.9969 0.0243 -0.0750
vn -0.9441 0.0080 0.3295
vn -0.6677 0.1780 0.7228
vn -0.8720 0.4276 0.2383
vn 0.3566 -0.6315 0.6885
vn -0.2311 -0.0386 0.9722
vn -0.0341 0.0845 -0.9958
vn -0.8952 -0.2296 0.3819
vn 0.9832 -0.0415 -0.1779
vn 0.9969 -0.0731 -0.0288
vn -0.9965 0.0665 -0.0502
vn -0.3010 -0.6388 0.7080
vn -0.9050 -0.2806 0.3197
vn 0.8151 -0.4916 0.3065
vn 0.0163 0.2723 -0.9621
vn 0.9459 -0.2344 -0.2245
vn -0.9040 -0.2620 0.3379
vn 0.9806 0.1420 -0.1348
vn 0.9998 0.0200 0.0050
vn -0.9961 0.0263 -0.0839
vn -0.1929 -0.6891 0.6986
vn -0.8555 0.3171 -0.4093
vn 0.8694 -0.3632 0.3350
vn 0.2354 -0.7009 0.6733
vn 0.4790 0.0474 -0.8765
vn -0.8895 0.1292 -0.4384
vn -0.0517 0.3416 -0.9384
vn -0.9952 0.0680 0.0706
vn 0.9813 0.1265 -0.1450
vn 0.9964 0.0722 0.0444
vn -0.9967 0.0475 -0.0652
vn -0.9763 0.0423 0.2121
vn -0.0573 0.5483 -0.8343
vn 0.8172 -0.3996 0.4155
vn 0.2011 -0.7143 0.6703
vn 0.4654 0.5060 -0.7262
vn 0.0390 -0.9482 -0.3153
vn 0.0553 -0.9885 -0.1405
vn 0.0288 -0.9802 -0.1960
vn 0.0315 -0.9467 -0.3206
vn 0.0141 -0.9908 -0.1342
vn 0.0446 -0.9795 -0.1963
vn 0.9297 0.0602 0.3633
vn 0.9776 0.1300 0.1656
vn 0.4246 0.3287 -0.8436
vn -0.8648 0.1680 -0.4732
vn -0.8708 0.2291 -0.4351
vn 0.4267 0.3900 -0.8160
vn 0.1742 -0.3194 0.9315
vn 0.8555 -0.0485 0.5155
vn -0.1657 -0.3131 0.9352
vn -0.9932 0.1055 -0.0500
vn 0.9927 0.1097 0.0498
vn 0.9769 0.1758 -0.1211
vn -0.9771 0.0617 0.2036
vn -0.0551 0.3989 -0.9153
vn -0.2200 -0.1001 0.9703
vn 0.2129 -0.0866 0.9732
vn -0.1610 0.7455 0.6467
vn 0.0684 -0.9819 -0.1766
vn 0.1140 0.7586 0.6415
vn -0.0029 -0.9849 -0.1732
vn -0.9854 0.1664 0.0364
vn -0.9662 -0.2054 -0.1560
vn -0.9859 -0.0287 0.1649
vn -0.9467 0.2503 -0.2028
vn -0.5709 -0.0844 0.8167
vn -0.4181 0.7993 -0.4316
vn -0.9845 -0.0242 0.1735
vn -0.3425 0.6526 -0.6759
vn 0.9720 -0.0723 0.2235
vn 0.3447 -0.3338 -0.8774
vn 0.3310 -0.0048 0.9436
vn -0.9875 0.0033 0.1575
vn -0.1970 -0.0567 -0.9788
vn 0.2566 -0.1936 -0.9469
vn 0.9138 -0.3729 -0.1611
vn 0.2827 -0.1922 0.9397
vn 0.2783 0.0292 -0.9600
vn 0.9391 -0.0414 0.3412
vn -0.9986 0.0475 -0.0220
vn 0.9811 -0.0335 -0.1906
vn -0.4907 0.0245 0.8710
vn -0.1793 -0.3164 -0.9315
vn -0.9752 -0.0591 -0.2132
vn 0.9787 -0.1479 -0.1427
vn -0.0076 -0.9997 0.0249
vn -0.0689 -0.9976 0.0021
vn -0.0509 -0.9948 -0.0886
vn -0.0162 -0.9971 -0.0739
vn 0.9972 -0.0477 0.0578
vn -0.9417 0.0705 0.3289
vn -0.1371 0.0491 -0.9893
vn -0.9594 0.0518 -0.2771
vn -0.9547 0.1675 -0.2461
vn -0.1450 0.0965 -0.9847
vn -0.3546 0.0660 0.9327
vn 0.9587 0.2166 0.1842
vn 0.9797 0.1241 -0.1573
vn -0.9591 0.2614 0.1083
vn 0.2404 0.0153 0.9706
vn 0.2963 0.1036 -0.9495
vn 0.2605 0.1268 0.9571
vn -0.3860 0.1700 0.9067
vn 0.2009 0.7550 0.6242
vn -0.0834 -0.9956 0.0436
vn -0.2231 0.7518 0.6205
vn 0.0001 -0.9986 0.0533
vn 0.3069 -0.2461 -0.9194
vn 0.3015 -0.3719 0.8779
vn -0.9863 -0.0608 0.1535
vn 0.9777 -0.1142 -0.1760
vn 0.9678 -0.1315 0.2149
vn -0.4738 -0.3307 0.8162
vn -0.1653 -0.2315 -0.9587
vn -0.9683 -0.0524 -0.2444
vn -0.3465 0.1465 -0.9265
vn -0.2989 -0.8395 -0.4538
vn -0.3507 0.3110 -0.8834
vn -0.2318 0.5346 -0.8127
vn -0.2176 -0.2189 -0.9512
vn -0.3369 0.0869 -0.9375
vn -0.9565 0.2886 0.0426
vn -0.9345 0.2984 0.1941
vn -0.9962 0.0805 -0.0320
vn -0.8969 0.3339 0.2899
vn 0.5829 0.7423 0.3304
vn -0.7647 0.6410 -0.0658
vn -0.8074 -0.5745 -0.1341
vn -0.5139 0.8315 0.2108
vn 0.2424 0.8544 0.4597
vn -0.9128 0.3628 -0.1876
vn -0.9425 -0.2221 -0.2498
vn -0.2549 0.3342 -0.9074
vn 0.0601 -0.2550 0.9651
vn -0.0312 -0.2848 0.9581
vn 0.0295 -0.2718 0.9619
vn -0.0071 -0.3062 0.9519
vn -0.0000 -0.2562 0.9666
vn -0.0386 -0.3176 0.9474
vn 0.0450 -0.3154 0.9479
vn -0.0449 -0.2496 0.9673
vn 0.0019 -0.2685 0.9633
vn -0.0079 -0.2295 0.9733
vn -0.1645 -0.6297 0.7592
vn 0.0304 -0.2397 0.9704
vn -0.2960 -0.5587 0.7748
vn 0.4094 0.1351 0.9023
vn 0.4124 -0.0983 0.9057
vn 0.1399 -0.5601 0.8165
vn -0.7286 0.1900 0.6581
vn 0.2066 -0.5091 0.8356
vn 0.5083 0.0918 0.8563
vn -0.0318 -0.6229 0.7816
vn -0.3193 0.7562 0.5711
vn -0.5296 -0.3765 0.7601
vn -0.5248 -0.4372 0.7304
vn 0.0292 0.0505 0.9983
vn -0.0200 -0.7483 0.6630
vn 0.0339 0.9199 0.3906
vn -0.7525 -0.0013 0.6586
vn 0.8961 -0.4305 0.1079
vn 0.9975 -0.0020 0.0707
vn 0.7307 -0.6808 -0.0501
vn 0.1099 -0.5424 -0.8329
vn 0.0413 -0.2400 -0.9699
vn 0.9363 0.2807 0.2112
vn 0.6878 -0.1949 0.6992
vn 0.3444 -0.7407 0.5768
vn -0.6069 -0.1152 -0.7864
vn -0.4208 0.2084 -0.8829
vn 0.7919 0.1262 0.5975
vn 0.5964 -0.2346 0.7677
vn -0.3952 -0.9057 0.1533
vn -0.6285 0.0385 -0.7768
vn -0.3576 0.3825 -0.8520
vn 0.4470 0.1911 0.8739
vn 0.2431 -0.1001 0.9648
vn -0.9975 0.0020 -0.0707
vn -0.7601 0.2995 -0.5767
vn -0.4475 0.8741 -0.1889
vn -0.7307 0.6809 0.0501
vn -0.6821 0.6564 -0.3223
vn -0.6942 0.4456 -0.5652
vn -0.8961 0.4305 -0.1079
vn -0.8552 0.2875 -0.4313
vn -0.8798 0.1502 -0.4511
vn -0.7220 0.2966 0.6251
vn -0.7805 0.0309 0.6244
vn -0.1738 -0.1816 0.9679
vn -0.0413 0.2400 0.9699
vn 0.2534 0.0404 0.9665
vn 0.4174 0.0370 0.9080
vn -0.1099 0.5424 0.8329
vn 0.2535 0.4477 0.8575
vn 0.2197 0.7253 0.6524
vn -0.3444 0.7407 -0.5768
vn -0.4625 0.4748 -0.7488
vn -0.5848 0.3808 -0.7162
vn -0.6878 0.1949 -0.6992
vn -0.6976 0.1002 -0.7095
vn -0.7767 0.0585 -0.6271
vn -0.9363 -0.2807 -0.2112
vn -0.6272 -0.6816 0.3769
vn -0.0725 -0.4733 0.8779
vn 0.4208 -0.2085 0.8829
vn 0.5257 -0.1725 0.8330
vn 0.5343 -0.0775 0.8417
vn 0.6069 0.1152 0.7864
vn 0.6835 0.2193 0.6962
vn 0.5927 0.5318 0.6049
vn -0.5964 0.2346 -0.7677
vn -0.5257 0.1726 -0.8330
vn -0.5343 0.0775 -0.8417
vn -0.7919 -0.1262 -0.5975
vn -0.6835 -0.2193 -0.6962
vn -0.5927 -0.5318 -0.6049
vn 0.3576 -0.3825 0.8520
vn 0.4625 -0.4748 0.7488
vn 0.5848 -0.3808 0.7162
vn 0.6285 -0.0385 0.7768
vn 0.6976 -0.1002 0.7095
vn 0.7767 -0.0585 0.6271
vn 0.3952 0.9057 -0.1533
vn 0.6272 0.6815 -0.3769
vn 0.0725 0.4733 -0.8779
vn -0.2432 0.1001 -0.9648
vn -0.2534 -0.0404 -0.9665
vn -0.4174 -0.0370 -0.9080
vn -0.4471 -0.1911 -0.8738
vn -0.2535 -0.4477 -0.8575
vn -0.2197 -0.7253 -0.6524
vn 0.4475 -0.8741 0.1889
vn 0.6821 -0.6563 0.3223
vn 0.6942 -0.4456 0.5652
vn 0.1739 0.1816 -0.9679
vn 0.7805 -0.0309 -0.6244
vn 0.7220 -0.2966 -0.6251
vn 0.7601 -0.2995 0.5767
vn 0.8552 -0.2875 0.4313
vn 0.8798 -0.1502 0.4511
vn -0.8961 -0.4305 0.1079
vn -0.9975 -0.0020 0.0707
vn -0.7307 -0.6809 -0.0501
vn -0.1099 -0.5424 -0.8329
vn -0.0413 -0.2399 -0.9699
vn -0.9363 0.2807 0.2112
vn -0.6878 -0.1949 0.6992
vn -0.3444 -0.7407 0.5768
vn 0.6069 -0.1152 -0.7864
vn 0.4208 0.2084 -0.8829
vn -0.7919 0.1262 0.5975
vn -0.5964 -0.2346 0.7677
vn 0.3952 -0.9057 0.1533
vn 0.6285 0.0385 -0.7768
vn 0.3576 0.3825 -0.8520
vn -0.4471 0.1911 0.8738
vn -0.2432 -0.1001 0.9648
vn 0.9975 0.0020 -0.0707
vn 0.7601 0.2995 -0.5767
vn 0.4475 0.8741 -0.1889
vn 0.7307 0.6808 0.0501
vn 0.6821 0.6564 -0.3223
vn 0.6942 0.4456 -0.5652
vn 0.8961 0.4305 -0.1079
vn 0.8552 0.2875 -0.4313
vn 0.8798 0.1502 -0.4511
vn 0.7220 0.2966 0.6251
vn 0.7805 0.0309 0.6244
vn 0.1738 -0.1816 0.9679
vn 0.0413 0.2399 0.9699
vn -0.2534 0.0404 0.9665
vn -0.4174 0.0370 0.9080
vn 0.1099 0.5424 0.8329
vn -0.2535 0.4477 0.8575
vn -0.2197 0.7253 0.6524
vn 0.3444 0.7407 -0.5768
vn 0.4625 0.4748 -0.7488
vn 0.5848 0.3808 -0.7162
vn 0.6878 0.1949 -0.6992
vn 0.6976 0.1002 -0.7095
vn 0.7767 0.0585 -0.6271
vn 0.9363 -0.2807 -0.2112
vn 0.6272 -0.6816 0.3769
vn 0.0725 -0.4733 0.8779
vn -0.4208 -0.2084 0.8829
vn -0.5257 -0.1726 0.8330
vn -0.5343 -0.0775 0.8417
vn -0.6069 0.1151 0.7864
vn -0.6835 0.2193 0.6962
vn -0.5927 0.5318 0.6049
vn 0.5964 0.2346 -0.7677
vn 0.5257 0.1726 -0.8330
vn 0.5343 0.0775 -0.8417
vn 0.7919 -0.1262 -0.5975
vn 0.6835 -0.2193 -0.6962
vn 0.5927 -0.5318 -0.6049
vn -0.3576 -0.3825 0.8520
vn -0.4625 -0.4748 0.7488
vn -0.5848 -0.3808 0.7162
vn -0.6285 -0.0385 0.7768
vn -0.6976 -0.1002 0.7095
vn -0.7767 -0.0585 0.6271
vn -0.3952 0.9057 -0.1533
vn -0.6272 0.6816 -0.3769
vn -0.0725 0.4733 -0.8779
vn 0.2431 0.1001 -0.9648
vn 0.2534 -0.0404 -0.9665
vn 0.4174 -0.0370 -0.9080
vn 0.4471 -0.1912 -0.8738
vn 0.2535 -0.4477 -0.8575
vn 0.2197 -0.7253 -0.6524
vn -0.4475 -0.8741 0.1889
vn -0.6821 -0.6563 0.3223
vn -0.6943 -0.4456 0.5652
vn -0.1738 0.1816 -0.9679
vn -0.7805 -0.0309 -0.6244
vn -0.7220 -0.2966 -0.6251
vn -0.7601 -0.2995 0.5767
vn -0.8552 -0.2875 0.4313
vn -0.8798 -0.1502 0.4511
vt 0.833374 0.494548
vt 0.893919 0.512741
vt 0.908415 0.468160
vt 0.848637 0.467455
vt 0.567859 0.867914
vt 0.639317 0.828812
vt 0.620915 0.894044
vt 0.556155 0.927906
vt 0.812683 0.509803
vt 0.774909 0.642712
vt 0.751394 0.643294
vt 0.751725 0.493743
vt 0.828812 0.793372
vt 0.751727 0.811870
vt 0.672932 0.807420
vt 0.672336 0.642732
vt 0.672998 0.503429
vt 0.598676 0.643182
vt 0.594201 0.530171
vt 0.560191 0.672195
vt 0.619753 0.672998
vt 0.599703 0.594201
vt 0.569702 0.558226
vt 0.580250 0.833374
vt 0.635423 0.812683
vt 0.637090 0.751725
vt 0.569078 0.759035
vt 0.500000 0.859251
vt 0.500000 0.750726
vt 0.569078 0.758996
vt 0.500000 0.657595
vt 0.560191 0.671923
vt 0.604420 0.951058
vt 0.545714 0.976119
vt 0.604420 0.548422
vt 0.626365 0.643481
vt 0.688416 0.643970
vt 0.666902 0.547256
vt 0.500000 0.917421
vt 0.563590 0.893919
vt 0.639317 0.793372
vt 0.659328 0.642712
vt 0.676970 0.643370
vt 0.671449 0.761101
vt 0.555994 0.632181
vt 0.545714 0.747180
vt 0.604420 0.735145
vt 0.572975 0.538591
vt 0.666902 0.715601
vt 0.500000 0.969030
vt 0.572975 0.947229
vt 0.501290 0.830086
vt 0.457158 0.830118
vt 0.460328 0.806630
vt 0.500288 0.803578
vt 0.499838 0.512886
vt 0.460007 0.507514
vt 0.481582 0.413128
vt 0.510774 0.417065
vt 0.500000 0.559830
vt 0.556447 0.575135
vt 0.579931 0.796381
vt 0.599703 0.530171
vt 0.637090 0.643182
vt 0.659115 0.643738
vt 0.643940 0.535244
vt 0.564556 0.492909
vt 0.500000 0.477524
vt 0.500000 0.432743
vt 0.566016 0.447361
vt 0.569702 0.518348
vt 0.616981 0.429733
vt 0.594994 0.421068
vt 0.612448 0.796381
vt 0.637526 0.771615
vt 0.500000 0.371229
vt 0.561082 0.382998
vt 0.450625 0.491920
vt 0.495971 0.498202
vt 0.507939 0.406303
vt 0.474705 0.401699
vt 0.591615 0.535244
vt 0.575831 0.433451
vt 0.407144 0.499901
vt 0.406490 0.640437
vt 0.358675 0.605643
vt 0.363238 0.556600
vt 0.578790 0.420824
vt 0.621227 0.407144
vt 0.601979 0.363238
vt 0.551080 0.357545
vt 0.500000 0.657756
vt 0.500000 0.571782
vt 0.667216 0.508652
vt 0.621227 0.499901
vt 0.632756 0.407548
vt 0.666461 0.413961
vt 0.556577 0.771615
vt 0.637090 0.751727
vt 0.260484 0.580516
vt 0.278839 0.520364
vt 0.582070 0.278839
vt 0.540875 0.268345
vt 0.619753 0.672932
vt 0.500000 0.307117
vt 0.551080 0.314473
vt 0.500000 0.983839
vt 0.393435 0.816867
vt 0.325561 0.763148
vt 0.671449 0.517077
vt 0.635423 0.509803
vt 0.642381 0.470278
vt 0.671266 0.470798
vt 0.988807 0.740196
vt 1.002924 0.661469
vt 1.015365 0.669173
vt 1.001496 0.721513
vt 0.500000 0.531683
vt 0.500000 0.631036
vt 0.249130 0.712570
vt 0.191059 0.679456
vt 0.198981 0.567653
vt 0.945839 0.547256
vt 0.886123 0.529161
vt 0.904522 0.470747
vt 0.963512 0.471464
vt 0.500000 0.238897
vt 0.540875 0.239236
vt 0.564556 0.495971
vt 0.612448 0.579931
vt 0.628268 0.501290
vt 0.631115 0.457158
vt 0.168698 0.648799
vt 0.177283 0.553376
vt 0.539817 0.181283
vt 0.500000 0.184290
vt 0.500000 0.144817
vt 0.539817 0.140934
vt 0.580006 0.205473
vt 0.539817 0.196322
vt 0.205473 0.476864
vt 0.621491 0.393435
vt 0.538703 0.608225
vt 0.500000 0.615960
vt 0.500000 0.567098
vt 0.526605 0.560962
vt 0.566016 0.450625
vt 0.149293 0.452102
vt 0.133162 0.541160
vt 0.103583 0.505809
vt 0.123733 0.441345
vt 0.539531 0.141037
vt 0.579447 0.149293
vt 0.562090 0.123733
vt 0.530633 0.116366
vt 0.500000 0.385014
vt 0.500000 0.353218
vt 0.586057 0.174337
vt 0.542919 0.165879
vt 0.174337 0.464471
vt 0.086614 0.427976
vt 0.065909 0.448336
vt 0.053210 0.428901
vt 0.071388 0.423606
vt 0.515797 0.085531
vt 0.531484 0.086614
vt 0.523242 0.071388
vt 0.510720 0.071544
vt 0.500000 0.266808
vt 0.601979 0.325561
vt 0.582070 0.249130
vt 0.108290 0.599988
vt 0.073849 0.556649
vt 0.580006 0.679456
vt 0.539817 0.690304
vt 0.539817 0.657159
vt 0.579599 0.648799
vt 0.500000 0.199929
vt 0.513331 0.045311
vt 0.500000 0.046647
vt 0.500000 0.069896
vt 0.051602 0.475706
vt 0.038205 0.462176
vt 0.038356 0.442272
vt 0.580006 0.191059
vt 0.577833 0.599988
vt 0.554232 0.556649
vt 0.500000 0.147087
vt 0.500000 0.124516
vt 0.530339 0.475706
vt 0.515210 0.477146
vt 0.513246 0.460736
vt 0.522445 0.462176
vt 0.500000 0.170521
vt 0.515546 0.457928
vt 0.507613 0.457080
vt 0.506877 0.445401
vt 0.514439 0.446199
vt 0.500000 0.089031
vt 0.528336 0.053210
vt 0.620841 0.601238
vt 0.618568 0.607555
vt 0.613078 0.604170
vt 0.614718 0.599612
vt 0.500000 0.479371
vt 0.500000 0.460095
vt 0.513331 0.424258
vt 0.512541 0.440917
vt 0.500000 0.440864
vt 0.500000 0.422187
vt 0.500000 0.664242
vt 0.576432 0.505809
vt 0.539481 0.507406
vt 0.547321 0.467354
vt 0.500000 0.513551
vt 0.519044 0.508271
vt 0.579599 0.168698
vt 0.538703 0.096221
vt 0.577833 0.108290
vt 0.520322 0.097153
vt 0.500000 0.106427
vt 0.541975 0.104341
vt 0.078394 0.467354
vt 0.104341 0.437145
vt 0.073220 0.507406
vt 0.590300 0.643738
vt 0.499630 0.641384
vt 0.459655 0.640419
vt 0.417546 0.774144
vt 0.414448 0.641253
vt 0.423095 0.508652
vt 0.621491 0.816867
vt 0.648114 0.640437
vt 0.669097 0.641253
vt 0.644267 0.774144
vt 0.578790 0.496630
vt 0.601625 0.405151
vt 0.649402 0.433451
vt 0.651726 0.367843
vt 0.620780 0.366797
vt 0.454529 0.413961
vt 0.467814 0.368189
vt 0.488225 0.366596
vt 0.561691 0.421068
vt 0.537425 0.365401
vt 0.507200 0.363509
vt 0.481273 0.364028
vt 0.510983 0.366114
vt 0.635806 0.367147
vt 0.669092 0.368189
vt 0.420824 0.496630
vt 0.452865 0.405151
vt 0.558226 0.518348
vt 0.484328 0.324872
vt 0.502799 0.322553
vt 0.547406 0.321655
vt 0.519920 0.320969
vt 0.496410 0.322232
vt 0.523434 0.321439
vt 0.639292 0.324944
vt 0.675657 0.324872
vt 0.550036 0.367843
vt 0.558926 0.322330
vt 0.465216 0.366023
vt 0.604868 0.366023
vt 0.599660 0.365401
vt 0.621651 0.293283
vt 0.658462 0.293469
vt 0.659368 0.261742
vt 0.621257 0.261665
vt 0.501495 0.293600
vt 0.482345 0.307625
vt 0.480362 0.262732
vt 0.500191 0.261781
vt 0.519246 0.292376
vt 0.547742 0.292993
vt 0.548078 0.261464
vt 0.518571 0.260916
vt 0.494871 0.293528
vt 0.493332 0.261956
vt 0.522889 0.292587
vt 0.522344 0.260869
vt 0.451756 0.288897
vt 0.449773 0.262732
vt 0.656778 0.322330
vt 0.622394 0.322035
vt 0.481902 0.324350
vt 0.605664 0.324350
vt 0.599057 0.321655
vt 0.595403 0.548078
vt 0.621257 0.561263
vt 0.645824 0.523009
vt 0.590945 0.518571
vt 0.639859 0.470735
vt 0.648324 0.498544
vt 0.685407 0.500191
vt 0.686261 0.480362
vt 0.592251 0.493332
vt 0.659368 0.560446
vt 0.683143 0.522344
vt 0.596433 0.477757
vt 0.479829 0.307317
vt 0.477757 0.262636
vt 0.447168 0.262636
vt 0.449241 0.288588
vt 0.596679 0.292993
vt 0.595403 0.261464
vt 0.559686 0.293469
vt 0.560446 0.261742
vt 0.603589 0.307317
vt 0.640355 0.307779
vt 0.679739 0.307625
vt 0.677932 0.288897
vt 0.639680 0.289050
vt 0.639859 0.262967
vt 0.679465 0.262732
vt 0.604354 0.288588
vt 0.603287 0.262636
vt 0.679739 0.482345
vt 0.640355 0.473048
vt 0.639680 0.442459
vt 0.677932 0.451756
vt 0.679465 0.449773
vt 0.639859 0.440146
vt 0.603589 0.479829
vt 0.604354 0.449241
vt 0.603287 0.447168
vt 0.841501 0.761101
vt 0.796910 0.643370
vt 0.906455 0.644155
vt 0.894416 0.742499
vt 0.957194 0.643970
vt 0.829265 0.517077
vt 0.940741 0.715601
vt 0.671449 0.841501
vt 0.669190 0.894416
vt 0.849398 0.470798
vt 0.666902 0.940741
vt 0.909364 0.402088
vt 0.855378 0.389954
vt 0.592313 0.470184
vt 0.617524 0.471308
vt 0.621192 0.417417
vt 0.598226 0.414426
vt 0.598146 0.467455
vt 0.603540 0.389954
vt 0.643835 0.389418
vt 0.855424 0.393127
vt 0.905341 0.403681
vt 0.667620 0.471464
vt 0.947229 0.538591
vt 0.963044 0.470184
vt 0.580250 0.494548
vt 0.595712 0.312254
vt 0.621272 0.312916
vt 0.622837 0.264476
vt 0.597277 0.263453
vt 0.852894 0.313492
vt 0.849695 0.260671
vt 0.818572 0.260902
vt 0.821566 0.286829
vt 0.893654 0.314609
vt 0.853541 0.316407
vt 0.850246 0.263617
vt 0.890422 0.263754
vt 0.896415 0.312211
vt 0.936226 0.312254
vt 0.933075 0.263453
vt 0.893263 0.261490
vt 0.670148 0.393127
vt 0.666826 0.415674
vt 0.958612 0.415674
vt 0.958434 0.414426
vt 0.649700 0.837975
vt 0.635627 0.887710
vt 0.686058 0.890422
vt 0.687133 0.850246
vt 0.592375 0.849695
vt 0.589648 0.893263
vt 0.597277 0.933075
vt 0.622837 0.940554
vt 0.673628 0.933416
vt 0.822213 0.289744
vt 0.819123 0.263848
vt 0.672063 0.313364
vt 0.673628 0.264581
vt 0.936602 0.313364
vt 0.933416 0.264581
vt 0.941647 0.364922
vt 0.899640 0.363406
vt 0.623001 0.364960
vt 0.665562 0.364922
vt 0.668659 0.362549
vt 0.644119 0.361871
vt 0.647700 0.316485
vt 0.685132 0.316407
vt 0.859879 0.359936
vt 0.902447 0.361457
vt 0.941330 0.363919
vt 0.860378 0.362549
vt 0.606538 0.359936
vt 0.590374 0.313492
vt 0.601582 0.363919
vt 0.646474 0.289822
vt 0.601626 0.286829
vt 0.603191 0.260902
vt 0.648039 0.263334
vt 0.675760 0.289744
vt 0.677325 0.263848
vt 0.647700 0.841274
vt 0.590374 0.852894
vt 0.601626 0.821566
vt 0.646474 0.809945
vt 0.648039 0.806852
vt 0.603191 0.818572
vt 0.685132 0.853541
vt 0.675760 0.822213
vt 0.677325 0.819123
vt 0.500000 0.668378
vt 0.500000 0.724779
vt 0.517225 0.721513
vt 0.520785 0.669173
vt 0.528698 1.002924
vt 0.500000 1.014901
vt 0.500000 1.025182
vt 0.520785 1.015365
vt 0.500000 0.744181
vt 0.519989 0.740196
vt 0.519989 0.988807
vt 0.500000 0.995348
vt 0.500000 0.660499
vt 0.528698 0.661469
vt 0.154177 0.616909
vt 0.166410 0.570048
vt 0.135838 0.608740
vt 0.149154 0.567675
vt 0.147623 0.572395
vt 0.137518 0.603560
vt 0.583783 0.154177
vt 0.583848 0.135838
vt 0.600568 0.131366
vt 0.597073 0.144428
vt 0.144166 0.612314
vt 0.141084 0.620214
vt 0.132632 0.614576
vt 0.134671 0.609983
vt 0.153028 0.593819
vt 0.141399 0.592146
vt 0.619182 0.132632
vt 0.614588 0.141084
vt 0.606252 0.140479
vt 0.610351 0.130579
vt 0.138199 0.601250
vt 0.148213 0.603179
vt 0.602487 0.570048
vt 0.583783 0.616909
vt 0.597073 0.624463
vt 0.606252 0.625520
vt 0.614588 0.620214
vt 0.620822 0.612314
vt 0.623703 0.603179
vt 0.620639 0.593819
vt 0.604695 0.577238
vt 0.601269 0.572395
vt 0.603531 0.567675
vt 0.609313 0.614171
vt 0.615687 0.610750
vt 0.619182 0.614576
vt 0.610351 0.619358
vt 0.602434 0.613212
vt 0.600568 0.617961
vt 0.626402 0.601250
vt 0.623276 0.609983
vt 0.618527 0.594500
vt 0.623272 0.592146
vt 0.590602 0.606787
vt 0.583848 0.608740
vt 0.592903 0.603615
vt 0.603070 0.582298
vt 0.613048 0.594751
vt 0.610999 0.606475
vt 0.606401 0.608943
vt 0.601438 0.608251
vt 0.586331 0.603560
vt 0.600598 0.578805
vt 0.589822 0.601288
vt 0.148133 0.578805
vt 0.140843 0.601288
vt 0.522445 0.038205
vt 0.513246 0.032036
vt 0.507613 0.025182
vt 0.515546 0.030102
vt 0.521458 0.442272
vt 0.528336 0.428901
vt 0.500000 0.456702
vt 0.500000 0.445370
vt 0.500000 0.031689
vt 0.512541 0.032373
vt 0.506877 0.025742
vt 0.500000 0.025886
vt 0.500000 0.031337
vt 0.500000 0.025479
vt 0.030102 0.457928
vt 0.030515 0.446199
vt 0.432141 0.867914
vt 0.443845 0.927906
vt 0.379085 0.894044
vt 0.360683 0.828812
vt 0.439809 0.672195
vt 0.430298 0.558226
vt 0.400297 0.594201
vt 0.380247 0.672998
vt 0.419750 0.833374
vt 0.430922 0.759035
vt 0.362910 0.751725
vt 0.364577 0.812683
vt 0.430922 0.758996
vt 0.439809 0.671923
vt 0.454286 0.976119
vt 0.395580 0.951058
vt 0.395580 0.548422
vt 0.333098 0.547256
vt 0.311584 0.643970
vt 0.373635 0.643481
vt 0.436410 0.893919
vt 0.360683 0.793372
vt 0.328551 0.761101
vt 0.323030 0.643370
vt 0.340672 0.642712
vt 0.444006 0.632181
vt 0.395580 0.735145
vt 0.454286 0.747180
vt 0.427025 0.538591
vt 0.333098 0.715601
vt 0.427025 0.947229
vt 0.443553 0.575135
vt 0.400297 0.530171
vt 0.356060 0.535244
vt 0.340885 0.643738
vt 0.362910 0.643182
vt 0.435444 0.492909
vt 0.433984 0.447361
vt 0.430298 0.518348
vt 0.405006 0.421068
vt 0.383019 0.429733
vt 0.362474 0.771615
vt 0.387552 0.796381
vt 0.438918 0.382998
vt 0.421210 0.420824
vt 0.448920 0.357545
vt 0.398021 0.363238
vt 0.378773 0.407144
vt 0.332784 0.508652
vt 0.333539 0.413961
vt 0.367244 0.407548
vt 0.378773 0.499901
vt 0.362910 0.751727
vt 0.459125 0.268345
vt 0.417930 0.278839
vt 0.380247 0.672932
vt 0.448920 0.314473
vt 0.328551 0.517077
vt 0.328734 0.470798
vt 0.357619 0.470278
vt 0.364577 0.509803
vt 0.459125 0.239236
vt 0.435444 0.495971
vt 0.387552 0.579931
vt 0.371732 0.501290
vt 0.368885 0.457158
vt 0.460183 0.181283
vt 0.460183 0.140934
vt 0.460183 0.196322
vt 0.419994 0.205473
vt 0.378509 0.393435
vt 0.461297 0.608225
vt 0.473395 0.560962
vt 0.433984 0.450625
vt 0.460469 0.141037
vt 0.469367 0.116366
vt 0.437911 0.123733
vt 0.420553 0.149293
vt 0.457081 0.165879
vt 0.413943 0.174337
vt 0.484203 0.085531
vt 0.489280 0.071544
vt 0.476758 0.071388
vt 0.468516 0.086614
vt 0.398021 0.325561
vt 0.417930 0.249130
vt 0.419994 0.679456
vt 0.420401 0.648799
vt 0.460183 0.657159
vt 0.460183 0.690304
vt 0.486669 0.045311
vt 0.419994 0.191059
vt 0.422167 0.599988
vt 0.445768 0.556649
vt 0.469661 0.475706
vt 0.477555 0.462176
vt 0.486754 0.460736
vt 0.484790 0.477146
vt 0.484454 0.457928
vt 0.485561 0.446199
vt 0.493123 0.445401
vt 0.492387 0.457080
vt 0.471665 0.053210
vt 0.379159 0.601238
vt 0.385282 0.599612
vt 0.386922 0.604170
vt 0.381432 0.607555
vt 0.486669 0.424258
vt 0.487459 0.440917
vt 0.423568 0.505809
vt 0.452679 0.467354
vt 0.460520 0.507406
vt 0.480956 0.508271
vt 0.420401 0.168698
vt 0.422167 0.108290
vt 0.461297 0.096221
vt 0.479678 0.097153
vt 0.458025 0.104341
vt 0.378509 0.816867
vt 0.355733 0.774144
vt 0.330903 0.641253
vt 0.351886 0.640437
vt 0.398375 0.405151
vt 0.421210 0.496630
vt 0.379220 0.366797
vt 0.348274 0.367843
vt 0.350598 0.433451
vt 0.330908 0.368189
vt 0.364194 0.367147
vt 0.324343 0.324872
vt 0.360708 0.324944
vt 0.395132 0.366023
vt 0.400340 0.365401
vt 0.378349 0.293283
vt 0.378743 0.261665
vt 0.340632 0.261742
vt 0.341538 0.293469
vt 0.377606 0.322035
vt 0.343222 0.322330
vt 0.394336 0.324350
vt 0.400943 0.321655
vt 0.404597 0.548078
vt 0.409055 0.518571
vt 0.354176 0.523009
vt 0.378743 0.561263
vt 0.360141 0.470735
vt 0.313739 0.480362
vt 0.314593 0.500191
vt 0.351676 0.498544
vt 0.407749 0.493332
vt 0.316857 0.522344
vt 0.340632 0.560446
vt 0.403567 0.477757
vt 0.403321 0.292993
vt 0.404597 0.261464
vt 0.359645 0.307779
vt 0.396411 0.307317
vt 0.320262 0.307625
vt 0.322068 0.288897
vt 0.320535 0.262732
vt 0.360141 0.262967
vt 0.360320 0.289050
vt 0.396713 0.262636
vt 0.395646 0.288588
vt 0.320262 0.482345
vt 0.322068 0.451756
vt 0.360320 0.442459
vt 0.359645 0.473048
vt 0.360141 0.440146
vt 0.320535 0.449773
vt 0.395646 0.449241
vt 0.396411 0.479829
vt 0.396713 0.447168
vt 0.330810 0.894416
vt 0.328551 0.841501
vt 0.333098 0.940741
vt 0.407688 0.470184
vt 0.401774 0.414426
vt 0.378808 0.417417
vt 0.382476 0.471308
vt 0.356165 0.389418
vt 0.396460 0.389954
vt 0.401854 0.467455
vt 0.332380 0.471464
vt 0.419750 0.494548
vt 0.404289 0.312254
vt 0.402723 0.263453
vt 0.377163 0.264476
vt 0.378728 0.312916
vt 0.329852 0.393127
vt 0.333174 0.415674
vt 0.350300 0.837975
vt 0.312867 0.850246
vt 0.313942 0.890422
vt 0.364373 0.887710
vt 0.410353 0.893263
vt 0.407625 0.849695
vt 0.377163 0.940554
vt 0.402723 0.933075
vt 0.326372 0.933416
vt 0.326372 0.264581
vt 0.327937 0.313364
vt 0.376999 0.364960
vt 0.334438 0.364922
vt 0.331341 0.362549
vt 0.314868 0.316407
vt 0.352300 0.316485
vt 0.355881 0.361871
vt 0.409626 0.313492
vt 0.393462 0.359936
vt 0.398418 0.363919
vt 0.353526 0.289822
vt 0.351961 0.263334
vt 0.396809 0.260902
vt 0.398374 0.286829
vt 0.324240 0.289744
vt 0.322675 0.263848
vt 0.352300 0.841274
vt 0.353526 0.809945
vt 0.398374 0.821566
vt 0.409626 0.852894
vt 0.396809 0.818572
vt 0.351961 0.806852
vt 0.314868 0.853541
vt 0.324240 0.822213
vt 0.322675 0.819123
vt 0.479215 0.669173
vt 0.482775 0.721513
vt 0.471302 1.002924
vt 0.479215 1.015365
vt 0.480011 0.740196
vt 0.480011 0.988807
vt 0.471302 0.661469
vt 0.416217 0.154177
vt 0.402927 0.144428
vt 0.399432 0.131366
vt 0.416152 0.135838
vt 0.380819 0.132632
vt 0.389649 0.130579
vt 0.393748 0.140479
vt 0.385412 0.141084
vt 0.397513 0.570048
vt 0.379361 0.593819
vt 0.376297 0.603179
vt 0.379178 0.612314
vt 0.385412 0.620214
vt 0.393748 0.625520
vt 0.402927 0.624463
vt 0.416217 0.616909
vt 0.395305 0.577238
vt 0.396469 0.567675
vt 0.398731 0.572395
vt 0.390687 0.614171
vt 0.389649 0.619358
vt 0.380819 0.614576
vt 0.384313 0.610750
vt 0.397566 0.613212
vt 0.399432 0.617961
vt 0.376724 0.609983
vt 0.373598 0.601250
vt 0.376728 0.592146
vt 0.381473 0.594500
vt 0.409398 0.606787
vt 0.416152 0.608740
vt 0.407098 0.603615
vt 0.398562 0.608251
vt 0.393599 0.608943
vt 0.389001 0.606475
vt 0.386952 0.594751
vt 0.396930 0.582298
vt 0.413669 0.603560
vt 0.399402 0.578805
vt 0.410178 0.601288
vt 0.477555 0.038205
vt 0.484454 0.030102
vt 0.492387 0.025182
vt 0.486754 0.032036
vt 0.478542 0.442272
vt 0.471665 0.428901
vt 0.493123 0.025742
vt 0.487459 0.032373
vt 0.181819 0.000000
vt 0.227273 0.078731
vt 0.136365 0.078731
vt 0.272728 0.157461
vt 0.318182 0.078731
vt 0.363637 0.157461
vt 0.909091 0.000000
vt 0.954545 0.078731
vt 0.863636 0.078731
vt 0.727273 0.000000
vt 0.772727 0.078731
vt 0.681818 0.078731
vt 0.545455 0.000000
vt 0.590909 0.078731
vt 0.500000 0.078731
vt 0.318182 0.236191
vt 0.090910 0.157461
vt 0.181819 0.157461
vt 0.136365 0.236191
vt 0.818182 0.157461
vt 0.909091 0.157461
vt 0.863636 0.236191
vt 0.636364 0.157461
vt 0.727273 0.157461
vt 0.681818 0.236191
vt 0.454546 0.157461
vt 0.545455 0.157461
vt 0.500000 0.236191
vt 0.227273 0.236191
vt 0.045455 0.236191
vt 0.772727 0.236191
vt 0.590909 0.236191
vt 0.409092 0.236191
vt 0.181819 0.314921
vt 0.272728 0.314921
vt 0.227273 0.393651
vt 0.000000 0.314921
vt 0.090910 0.314921
vt 0.045455 0.393651
vt 0.727273 0.314921
vt 0.818182 0.314921
vt 0.772727 0.393651
vt 0.545455 0.314921
vt 0.636364 0.314921
vt 0.590909 0.393651
vt 0.363637 0.314921
vt 0.454546 0.314921
vt 0.409092 0.393651
vt 0.500000 0.393651
vt 0.454546 0.472382
vt 0.681818 0.393651
vt 0.636364 0.472382
vt 0.863636 0.393651
vt 0.818182 0.472382
vt 0.909091 0.314921
vt 0.136365 0.393651
vt 0.090910 0.472382
vt 0.318182 0.393651
vt 0.272728 0.472382
vt 0.954545 0.236191
vt 1.000000 0.157461
vt 0.409092 0.078731
vt 0.363637 0.000000
s 1
f 116/1/1 98/2/1 209/3/1 208/4/1
f 115/5/2 4/6/2 17/7/2 97/8/2
f 3/9/3 7/10/3 13/11/3 8/12/3
f 7/10/4 4/13/4 9/14/4 13/11/4
f 13/11/5 9/14/5 2/15/5 10/16/5
f 8/12/6 13/11/6 10/16/6 1/17/6
f 1/17/7 10/16/7 32/18/7 29/19/7
f 114/20/8 1/21/8 29/22/8 83/23/8
f 116/24/9 3/25/9 8/26/9 109/27/9
f 109/27/10 8/26/10 1/21/10 114/20/10
f 115/5/11 6/28/11 15/29/11 99/30/11
f 99/30/12 15/29/12 12/31/12 112/32/12
f 97/8/13 17/7/13 21/33/13 90/34/13
f 20/35/14 25/36/14 203/37/14 204/38/14
f 116/24/15 5/28/15 18/39/15 98/40/15
f 4/41/16 7/42/16 197/43/16 196/44/16
f 89/45/17 90/46/17 21/47/17 25/36/17
f 91/48/18 89/45/18 25/36/18 20/35/18
f 25/36/19 21/47/19 202/49/19 203/37/19
f 98/40/20 18/39/20 23/50/20 91/51/20
f 38/52/21 45/53/21 134/54/21 131/55/21
f 133/56/22 136/57/22 144/58/22 146/59/22
f 112/32/23 12/31/23 34/60/23 82/61/23
f 10/16/24 2/15/24 30/62/24 32/18/24
f 29/63/25 32/64/25 129/65/25 130/66/25
f 75/67/26 41/68/26 48/69/26 73/70/26
f 82/61/27 34/60/27 41/68/27 75/67/27
f 83/71/28 29/63/28 141/72/28 140/73/28
f 32/64/29 30/74/29 128/75/29 129/65/29
f 73/70/30 48/69/30 56/76/30 66/77/30
f 74/78/31 81/79/31 145/80/31 148/81/31
f 130/82/32 133/56/32 146/59/32 147/83/32
f 6/28/33 115/5/33 97/8/33 19/39/33
f 54/84/34 53/85/34 60/86/34 61/87/34
f 67/88/35 54/89/35 61/90/35 65/91/35
f 11/92/36 114/20/36 83/23/36 33/93/36
f 5/28/37 116/24/37 109/27/37 14/29/37
f 14/29/38 109/27/38 114/20/38 11/92/38
f 139/94/39 54/95/39 143/96/39 142/97/39
f 30/62/40 38/52/40 131/55/40 128/98/40
f 4/6/41 115/5/41 99/30/41 9/99/41
f 61/87/42 60/86/42 69/100/42 70/101/42
f 65/91/43 61/90/43 70/102/43 58/103/43
f 9/99/44 99/30/44 112/32/44 2/104/44
f 66/77/45 56/76/45 63/105/45 64/106/45
f 19/39/46 97/8/46 90/34/46 24/107/46
f 53/85/47 52/108/47 59/109/47 60/86/47
f 198/110/48 3/111/48 207/112/48 213/113/48
f 256/114/49 255/115/49 253/116/49 254/117/49
f 23/118/50 26/119/50 89/45/50 91/48/50
f 69/100/51 68/120/51 76/121/51 77/122/51
f 204/123/52 201/124/52 211/125/52 212/126/52
f 64/106/53 63/105/53 72/127/53 57/128/53
f 33/93/54 83/23/54 81/129/54 40/68/54
f 60/86/55 59/109/55 68/120/55 69/100/55
f 2/104/56 112/32/56 82/61/56 30/130/56
f 38/131/57 75/67/57 73/70/57 45/132/57
f 77/122/58 76/121/58 259/133/58 260/134/58
f 30/130/59 82/61/59 75/67/59 38/131/59
f 50/135/60 80/136/60 88/137/60 44/138/60
f 58/103/61 70/102/61 78/139/61 51/140/61
f 70/101/62 69/100/62 77/122/62 78/141/62
f 45/132/63 73/70/63 66/77/63 52/142/63
f 57/128/64 72/127/64 80/136/64 50/135/64
f 28/143/65 110/144/65 96/145/65 42/146/65
f 40/68/66 81/129/66 74/147/66 47/69/66
f 108/148/67 262/149/67 93/150/67 94/151/67
f 31/152/68 108/153/68 94/154/68 43/155/68
f 55/156/69 67/88/69 65/91/69 62/157/69
f 51/140/70 78/139/70 86/158/70 49/159/70
f 78/141/71 77/122/71 260/134/71 86/160/71
f 47/69/72 74/147/72 67/88/72 55/156/72
f 123/161/73 124/162/73 101/163/73 102/164/73
f 121/165/74 123/166/74 102/167/74 37/168/74
f 62/157/75 65/91/75 58/103/75 71/169/75
f 52/142/76 66/77/76 64/106/76 59/170/76
f 59/170/77 64/106/77 57/128/77 68/171/77
f 262/149/78 261/172/78 92/173/78 93/150/78
f 76/174/79 50/175/79 44/176/79 259/177/79
f 71/169/80 58/103/80 51/140/80 79/178/80
f 37/168/81 35/179/81 105/180/81 103/181/81
f 124/162/82 127/182/82 297/183/82 298/184/82 101/163/82
f 68/171/83 57/128/83 50/135/83 76/185/83
f 261/186/84 28/143/84 42/146/84 92/187/84
f 107/188/85 31/152/85 43/155/85 95/189/85
f 127/190/86 122/191/86 295/192/86 297/193/86
f 79/178/87 51/140/87 49/159/87 87/194/87
f 100/195/88 36/196/88 301/197/88 104/198/88
f 126/199/89 121/165/89 37/168/89 103/181/89
f 102/167/90 101/200/90 35/179/90 37/168/90
f 274/201/91 273/202/91 290/203/91 291/204/91
f 122/191/92 125/205/92 300/206/92 295/192/92
f 49/159/93 86/158/93 108/153/93 31/152/93
f 86/160/94 260/134/94 262/149/94 108/148/94
f 35/207/95 296/208/95 299/209/95 105/210/95
f 44/176/96 88/211/96 110/144/96 28/143/96
f 93/212/97 92/187/97 120/213/97 119/214/97
f 87/194/98 49/159/98 31/152/98 107/188/98
f 42/146/99 96/145/99 113/215/99 27/216/99
f 259/217/100 44/138/100 28/218/100 261/219/100
f 92/187/101 42/146/101 27/216/101 120/213/101
f 95/189/102 43/155/102 22/220/102 118/221/102
f 43/155/103 94/154/103 117/222/103 22/220/103
f 94/151/104 93/150/104 119/223/104 117/224/104
f 120/213/105 27/216/105 122/191/105 127/190/105
f 118/221/106 22/220/106 121/165/106 126/199/106
f 119/223/107 120/225/107 127/182/107 124/162/107
f 27/216/108 113/215/108 125/205/108 122/191/108
f 22/220/109 117/222/109 123/166/109 121/165/109
f 117/224/110 119/223/110 124/162/110 123/161/110
f 130/82/111 129/226/111 132/227/111 133/56/111
f 132/227/112 131/55/112 134/54/112 135/228/112
f 129/226/113 128/98/113 131/55/113 132/227/113
f 135/228/114 134/54/114 137/229/114 138/230/114
f 133/56/115 132/227/115 135/228/115 136/57/115
f 136/57/116 135/228/116 138/230/116 139/231/116
f 52/232/117 53/233/117 138/234/117 137/235/117
f 45/53/118 52/108/118 137/229/118 134/54/118
f 54/95/119 67/236/119 149/237/119 143/96/119
f 53/233/120 54/95/120 139/94/120 138/234/120
f 141/72/121 147/238/121 157/239/121 39/240/121
f 144/58/122 142/241/122 150/242/122 153/243/122
f 145/80/123 140/244/123 46/245/123 154/246/123
f 148/81/124 145/80/124 154/246/124 158/247/124
f 146/59/125 144/58/125 153/243/125 156/248/125
f 142/97/126 143/96/126 151/249/126 150/250/126
f 136/57/127 139/231/127 142/241/127 144/58/127
f 67/251/128 74/78/128 148/81/128 149/252/128
f 29/63/129 130/66/129 147/238/129 141/72/129
f 81/79/130 83/253/130 140/244/130 145/80/130
f 153/243/131 150/242/131 162/254/131 164/255/131
f 154/246/132 46/245/132 160/256/132 165/257/132
f 158/247/133 154/246/133 165/257/133 168/258/133
f 156/248/134 153/243/134 164/255/134 166/259/134
f 150/250/135 151/249/135 163/260/135 162/261/135
f 157/262/136 156/248/136 166/259/136 167/263/136
f 149/252/137 148/81/137 158/247/137 159/264/137
f 143/96/138 149/237/138 159/265/138 151/249/138
f 140/73/139 141/72/139 39/240/139 46/266/139
f 147/83/140 146/59/140 156/248/140 157/262/140
f 188/267/141 187/268/141 177/269/141 152/270/141
f 184/271/142 185/272/142 170/273/142 173/274/142
f 182/275/143 180/276/143 155/277/143 174/278/143
f 181/279/144 182/275/144 174/278/144 178/280/144
f 183/281/145 184/271/145 173/274/145 176/282/145
f 170/273/146 185/272/146 194/283/146 192/284/146
f 39/240/147 157/239/147 167/285/147 161/286/147
f 159/264/148 158/247/148 168/258/148 169/287/148
f 151/249/149 159/265/149 169/288/149 163/260/149
f 46/266/150 39/240/150 161/286/150 160/289/150
f 155/290/151 152/291/151 175/292/151 174/293/151
f 171/294/152 172/295/152 173/296/152 170/297/152
f 174/293/153 175/292/153 172/295/153 178/298/153
f 175/292/154 152/291/154 177/299/154 176/300/154
f 178/298/155 172/295/155 171/294/155 179/301/155
f 172/295/156 175/292/156 176/300/156 173/296/156
f 189/302/157 181/279/157 178/280/157 179/303/157
f 189/302/158 179/303/158 193/304/158 195/305/158
f 180/306/159 188/267/159 152/270/159 155/307/159
f 187/308/160 183/281/160 176/282/160 177/309/160
f 167/263/161 166/259/161 183/281/161 187/308/161
f 160/289/162 161/286/162 188/267/162 180/306/162
f 163/260/163 169/288/163 189/310/163 186/311/163
f 169/287/164 168/258/164 181/279/164 189/302/164
f 162/261/165 163/260/165 186/311/165 185/312/165
f 166/259/166 164/255/166 184/271/166 183/281/166
f 168/258/167 165/257/167 182/275/167 181/279/167
f 165/257/168 160/256/168 180/276/168 182/275/168
f 164/255/169 162/254/169 185/272/169 184/271/169
f 161/286/170 167/285/170 187/268/170 188/267/170
f 194/313/171 190/314/171 191/315/171 192/316/171
f 190/314/172 195/317/172 193/318/172 191/315/172
f 185/319/173 186/320/173 190/321/173 194/322/173
f 171/294/174 170/297/174 192/323/174 191/324/174
f 186/320/175 189/325/175 195/326/175 190/321/175
f 179/301/176 171/294/176 191/324/176 193/327/176
f 196/328/177 197/329/177 200/330/177 199/331/177
f 200/330/178 201/124/178 204/123/178 203/332/178
f 197/329/179 198/333/179 201/124/179 200/330/179
f 199/331/180 200/330/180 203/332/180 202/334/180
f 7/42/181 3/111/181 198/110/181 197/43/181
f 17/7/182 4/6/182 196/335/182 199/336/182
f 201/124/183 198/333/183 213/337/183 211/125/183
f 21/33/184 17/7/184 199/336/184 202/338/184
f 208/4/185 209/3/185 217/339/185 216/340/185
f 210/341/186 206/342/186 214/343/186 218/344/186
f 207/112/187 208/345/187 216/346/187 215/347/187
f 211/125/188 213/337/188 221/348/188 219/349/188
f 20/35/189 204/38/189 212/350/189 206/342/189
f 91/48/190 20/35/190 206/342/190 210/341/190
f 98/2/191 91/351/191 210/352/191 209/3/191
f 3/111/192 116/353/192 208/345/192 207/112/192
f 232/354/193 235/355/193 222/356/193 226/357/193
f 233/358/194 224/359/194 240/360/194 241/361/194
f 16/362/195 230/363/195 229/364/195 227/365/195
f 231/366/196 232/367/196 226/368/196 225/369/196
f 213/113/197 207/112/197 215/347/197 221/370/197
f 206/342/198 212/350/198 220/371/198 214/343/198
f 212/126/199 211/125/199 219/349/199 220/372/199
f 209/3/200 210/352/200 218/373/200 217/339/200
f 223/374/201 205/375/201 227/376/201 229/377/201
f 223/374/202 224/378/202 225/379/202 205/375/202
f 205/375/203 225/379/203 226/380/203 222/381/203
f 205/375/204 222/381/204 228/382/204 227/376/204
f 233/358/205 231/366/205 225/369/205 224/359/205
f 229/364/206 230/363/206 237/383/206 238/384/206
f 235/355/207 236/385/207 228/386/207 222/356/207
f 236/387/208 16/362/208 227/365/208 228/388/208
f 250/389/209 243/390/209 16/362/209 236/387/209
f 249/391/210 250/392/210 236/385/210 235/355/210
f 246/393/211 245/394/211 234/395/211 230/396/211
f 248/397/212 244/398/212 231/366/212 233/358/212
f 244/398/213 247/399/213 232/367/213 231/366/213
f 243/390/214 246/400/214 230/363/214 16/362/214
f 245/394/215 248/401/215 233/402/215 234/395/215
f 247/403/216 249/391/216 235/355/216 232/354/216
f 242/404/217 241/405/217 240/406/217 239/407/217
f 237/408/218 242/404/218 239/407/218 238/409/218
f 234/410/219 233/411/219 241/412/219 242/413/219
f 224/378/220 223/374/220 239/414/220 240/415/220
f 230/416/221 234/410/221 242/413/221 237/417/221
f 223/374/222 229/377/222 238/418/222 239/414/222
f 218/344/223 214/343/223 249/391/223 247/403/223
f 215/347/224 216/346/224 248/401/224 245/394/224
f 219/349/225 221/348/225 246/400/225 243/390/225
f 217/339/226 218/373/226 247/399/226 244/398/226
f 216/340/227 217/339/227 244/398/227 248/397/227
f 221/370/228 215/347/228 245/394/228 246/393/228
f 214/343/229 220/371/229 250/392/229 249/391/229
f 220/372/230 219/349/230 243/390/230 250/389/230
f 252/419/231 251/420/231 254/421/231 253/422/231
f 255/423/232 257/424/232 252/425/232 253/426/232
f 258/427/233 256/428/233 254/421/233 251/420/233
f 24/107/234 90/34/234 256/429/234 258/430/234
f 89/45/235 26/119/235 257/431/235 255/432/235
f 90/46/236 89/45/236 255/432/236 256/428/236
f 84/433/237 85/434/237 260/134/237 259/133/237
f 275/435/238 84/433/238 259/133/238 261/172/238
f 85/434/239 276/436/239 262/149/239 260/134/239
f 276/436/240 284/437/240 283/438/240 275/435/240 261/172/240 262/149/240
f 84/439/241 275/440/241 279/441/241 263/442/241
f 266/443/242 264/444/242 278/445/242 280/446/242
f 276/436/243 85/434/243 267/447/243 282/448/243
f 278/449/244 264/450/244 265/451/244 277/452/244
f 277/452/245 265/451/245 263/442/245 279/441/245
f 266/443/246 280/446/246 281/453/246 268/454/246
f 268/454/247 281/453/247 282/448/247 267/447/247
f 85/455/248 84/456/248 263/457/248 265/458/248 264/459/248 266/460/248 268/461/248 267/462/248
f 106/463/249 284/464/249 276/465/249
f 271/466/250 269/467/250 278/468/250 277/469/250
f 270/470/251 271/466/251 277/469/251 279/471/251
f 273/202/252 274/201/252 281/472/252 280/473/252
f 274/201/253 272/474/253 282/475/253 281/472/253
f 269/467/254 273/202/254 280/473/254 278/468/254
f 111/476/255 270/470/255 279/471/255 275/477/255
f 272/474/256 106/463/256 276/465/256 282/475/256
f 285/478/257 286/479/257 292/480/257 291/204/257 290/203/257 288/481/257 287/482/257 289/483/257
f 283/484/258 111/476/258 275/477/258
f 270/470/259 111/476/259 285/478/259 289/483/259
f 294/485/260 286/479/260 285/478/260 293/486/260
f 111/476/261 283/484/261 293/486/261 285/478/261
f 106/463/262 272/474/262 292/480/262 286/479/262
f 272/474/263 274/201/263 291/204/263 292/480/263
f 269/467/264 271/466/264 287/482/264 288/481/264
f 283/438/265 284/437/265 294/487/265 293/488/265
f 273/202/266 269/467/266 288/481/266 290/203/266
f 284/464/267 106/463/267 286/479/267 294/485/267
f 271/466/268 270/470/268 289/483/268 287/482/268
f 297/489/269 295/490/269 36/491/269 100/492/269
f 296/208/270 298/493/270 104/198/270 301/197/270
f 101/494/271 298/493/271 296/208/271 35/207/271
f 36/196/272 302/495/272 303/496/272 301/197/272
f 299/497/273 296/498/273 301/499/273 303/500/273
f 295/490/274 300/501/274 302/502/274 36/491/274
f 298/184/275 297/183/275 100/503/275 104/504/275
f 385/1/276 474/4/276 475/3/276 372/2/276
f 384/505/277 371/506/277 314/507/277 307/508/277
f 306/9/278 309/12/278 312/11/278 308/10/278
f 308/10/279 312/11/279 310/14/279 307/13/279
f 312/11/280 311/16/280 305/15/280 310/14/280
f 309/12/281 304/17/281 311/16/281 312/11/281
f 304/17/282 321/19/282 324/18/282 311/16/282
f 383/509/283 361/510/283 321/511/283 304/512/283
f 385/513/284 380/514/284 309/515/284 306/516/284
f 380/514/285 383/509/285 304/512/285 309/515/285
f 384/505/286 373/517/286 15/29/286 6/28/286
f 373/517/287 382/518/287 12/31/287 15/29/287
f 371/506/288 366/519/288 316/520/288 314/507/288
f 315/521/289 470/522/289 469/523/289 318/524/289
f 385/513/290 372/525/290 18/39/290 5/28/290
f 307/526/291 462/527/291 463/528/291 308/529/291
f 365/530/292 318/524/292 316/531/292 366/532/292
f 367/533/293 315/521/293 318/524/293 365/530/293
f 318/524/294 469/523/294 468/534/294 316/531/294
f 372/525/295 367/535/295 23/50/295 18/39/295
f 328/52/296 397/55/296 400/54/296 333/53/296
f 399/56/297 412/59/297 410/58/297 402/57/297
f 382/518/298 360/536/298 34/60/298 12/31/298
f 311/16/299 324/18/299 322/62/299 305/15/299
f 321/537/300 396/538/300 395/539/300 324/540/300
f 355/541/301 353/542/301 48/69/301 41/68/301
f 360/536/302 355/541/302 41/68/302 34/60/302
f 361/543/303 406/544/303 407/545/303 321/537/303
f 324/540/304 395/539/304 394/546/304 322/547/304
f 353/542/305 348/548/305 56/76/305 48/69/305
f 354/78/306 414/81/306 411/80/306 359/79/306
f 396/82/307 413/83/307 412/59/307 399/56/307
f 6/28/308 19/39/308 371/506/308 384/505/308
f 340/84/309 345/87/309 344/86/309 339/85/309
f 349/549/310 347/550/310 345/551/310 340/552/310
f 11/92/311 33/93/311 361/510/311 383/509/311
f 5/28/312 14/29/312 380/514/312 385/513/312
f 14/29/313 11/92/313 383/509/313 380/514/313
f 405/553/314 408/554/314 409/555/314 340/556/314
f 322/62/315 394/98/315 397/55/315 328/52/315
f 307/508/316 310/557/316 373/517/316 384/505/316
f 345/87/317 352/101/317 351/100/317 344/86/317
f 347/550/318 342/558/318 352/559/318 345/551/318
f 310/557/319 305/560/319 382/518/319 373/517/319
f 348/548/320 346/561/320 63/105/320 56/76/320
f 19/39/321 24/107/321 366/519/321 371/506/321
f 339/85/322 344/86/322 343/109/322 338/108/322
f 464/562/323 479/563/323 473/564/323 306/565/323
f 520/114/324 518/117/324 517/116/324 519/115/324
f 23/118/325 367/533/325 365/530/325 26/119/325
f 351/100/326 357/122/326 356/121/326 350/120/326
f 470/123/327 478/126/327 477/125/327 467/124/327
f 346/561/328 341/566/328 72/127/328 63/105/328
f 33/93/329 40/68/329 359/567/329 361/510/329
f 344/86/330 351/100/330 350/120/330 343/109/330
f 305/560/331 322/568/331 360/536/331 382/518/331
f 328/569/332 333/570/332 353/542/332 355/541/332
f 357/122/333 522/134/333 521/133/333 356/121/333
f 322/568/334 328/569/334 355/541/334 360/536/334
f 336/571/335 332/572/335 88/137/335 80/136/335
f 342/558/336 337/573/336 358/574/336 352/559/336
f 352/101/337 358/141/337 357/122/337 351/100/337
f 333/570/338 338/575/338 348/548/338 353/542/338
f 341/566/339 336/571/339 80/136/339 72/127/339
f 320/576/340 330/577/340 96/145/340 110/144/340
f 40/68/341 47/69/341 354/578/341 359/567/341
f 379/148/342 370/151/342 369/150/342 524/149/342
f 323/579/343 331/580/343 370/581/343 379/582/343
f 55/156/344 62/157/344 347/550/344 349/549/344
f 337/573/345 335/583/345 364/584/345 358/574/345
f 358/141/346 364/160/346 522/134/346 357/122/346
f 47/69/347 55/156/347 349/549/347 354/578/347
f 391/161/348 376/164/348 375/163/348 392/162/348
f 389/585/349 327/586/349 376/587/349 391/588/349
f 62/157/350 71/169/350 342/558/350 347/550/350
f 338/575/351 343/589/351 346/561/351 348/548/351
f 343/589/352 350/590/352 341/566/352 346/561/352
f 524/149/353 369/150/353 368/173/353 523/172/353
f 356/591/354 521/592/354 332/593/354 336/594/354
f 71/169/355 79/178/355 337/573/355 342/558/355
f 327/586/356 103/181/356 105/180/356 325/595/356
f 392/162/357 375/163/357 560/184/357 559/183/357 393/182/357
f 350/590/358 356/596/358 336/571/358 341/566/358
f 523/597/359 368/598/359 330/577/359 320/576/359
f 107/188/360 95/189/360 331/580/360 323/579/360
f 393/599/361 559/600/361 557/601/361 390/602/361
f 79/178/362 87/194/362 335/583/362 337/573/362
f 374/603/363 377/604/363 561/605/363 326/606/363
f 126/199/364 103/181/364 327/586/364 389/585/364
f 376/587/365 327/586/365 325/595/365 375/607/365
f 536/608/366 553/609/366 552/610/366 535/611/366
f 390/602/367 557/601/367 300/206/367 125/205/367
f 335/583/368 323/579/368 379/582/368 364/584/368
f 364/160/369 379/148/369 524/149/369 522/134/369
f 325/612/370 105/210/370 299/209/370 558/613/370
f 332/593/371 320/576/371 110/144/371 88/211/371
f 369/614/372 387/615/372 388/616/372 368/598/372
f 87/194/373 107/188/373 323/579/373 335/583/373
f 330/577/374 319/617/374 113/215/374 96/145/374
f 521/618/375 523/619/375 320/620/375 332/572/375
f 368/598/376 388/616/376 319/617/376 330/577/376
f 95/189/377 118/221/377 317/621/377 331/580/377
f 331/580/378 317/621/378 386/622/378 370/581/378
f 370/151/379 386/224/379 387/223/379 369/150/379
f 388/616/380 393/599/380 390/602/380 319/617/380
f 118/221/381 126/199/381 389/585/381 317/621/381
f 387/223/382 392/162/382 393/182/382 388/225/382
f 319/617/383 390/602/383 125/205/383 113/215/383
f 317/621/384 389/585/384 391/588/384 386/622/384
f 386/224/385 391/161/385 392/162/385 387/223/385
f 396/82/386 399/56/386 398/227/386 395/226/386
f 398/227/387 401/228/387 400/54/387 397/55/387
f 395/226/388 398/227/388 397/55/388 394/98/388
f 401/228/389 404/230/389 403/229/389 400/54/389
f 399/56/390 402/57/390 401/228/390 398/227/390
f 402/57/391 405/231/391 404/230/391 401/228/391
f 338/623/392 403/624/392 404/625/392 339/626/392
f 333/53/393 400/54/393 403/229/393 338/108/393
f 340/556/394 409/555/394 415/627/394 349/628/394
f 339/626/395 404/625/395 405/553/395 340/556/395
f 407/545/396 329/629/396 423/630/396 413/631/396
f 410/58/397 419/243/397 416/242/397 408/241/397
f 411/80/398 420/246/398 334/245/398 406/244/398
f 414/81/399 424/247/399 420/246/399 411/80/399
f 412/59/400 422/248/400 419/243/400 410/58/400
f 408/554/401 416/632/401 417/633/401 409/555/401
f 402/57/402 410/58/402 408/241/402 405/231/402
f 349/251/403 415/252/403 414/81/403 354/78/403
f 321/537/404 407/545/404 413/631/404 396/538/404
f 359/79/405 411/80/405 406/244/405 361/253/405
f 419/243/406 430/255/406 428/254/406 416/242/406
f 420/246/407 431/257/407 426/256/407 334/245/407
f 424/247/408 434/258/408 431/257/408 420/246/408
f 422/248/409 432/259/409 430/255/409 419/243/409
f 416/632/410 428/634/410 429/635/410 417/633/410
f 423/262/411 433/263/411 432/259/411 422/248/411
f 415/252/412 425/264/412 424/247/412 414/81/412
f 409/555/413 417/633/413 425/636/413 415/627/413
f 406/544/414 334/637/414 329/629/414 407/545/414
f 413/83/415 423/262/415 422/248/415 412/59/415
f 454/638/416 418/639/416 443/640/416 453/641/416
f 450/271/417 439/274/417 436/273/417 451/272/417
f 448/275/418 440/278/418 421/277/418 446/276/418
f 447/279/419 444/280/419 440/278/419 448/275/419
f 449/281/420 442/282/420 439/274/420 450/271/420
f 436/273/421 458/284/421 460/283/421 451/272/421
f 329/629/422 427/642/422 433/643/422 423/630/422
f 425/264/423 435/287/423 434/258/423 424/247/423
f 417/633/424 429/635/424 435/644/424 425/636/424
f 334/637/425 426/645/425 427/642/425 329/629/425
f 421/646/426 440/647/426 441/648/426 418/649/426
f 437/650/427 436/651/427 439/652/427 438/653/427
f 440/647/428 444/654/428 438/653/428 441/648/428
f 441/648/429 442/655/429 443/656/429 418/649/429
f 444/654/430 445/657/430 437/650/430 438/653/430
f 438/653/431 439/652/431 442/655/431 441/648/431
f 455/302/432 445/303/432 444/280/432 447/279/432
f 455/302/433 461/305/433 459/304/433 445/303/433
f 446/658/434 421/659/434 418/639/434 454/638/434
f 453/308/435 443/309/435 442/282/435 449/281/435
f 433/263/436 453/308/436 449/281/436 432/259/436
f 426/645/437 446/658/437 454/638/437 427/642/437
f 429/635/438 452/660/438 455/661/438 435/644/438
f 435/287/439 455/302/439 447/279/439 434/258/439
f 428/634/440 451/662/440 452/660/440 429/635/440
f 432/259/441 449/281/441 450/271/441 430/255/441
f 434/258/442 447/279/442 448/275/442 431/257/442
f 431/257/443 448/275/443 446/276/443 426/256/443
f 430/255/444 450/271/444 451/272/444 428/254/444
f 427/642/445 454/638/445 453/641/445 433/643/445
f 460/663/446 458/664/446 457/665/446 456/666/446
f 456/666/447 457/665/447 459/667/447 461/668/447
f 451/669/448 460/670/448 456/671/448 452/672/448
f 437/650/449 457/673/449 458/674/449 436/651/449
f 452/672/450 456/671/450 461/675/450 455/676/450
f 445/657/451 459/677/451 457/673/451 437/650/451
f 462/328/452 465/331/452 466/330/452 463/329/452
f 466/330/453 469/332/453 470/123/453 467/124/453
f 463/329/454 466/330/454 467/124/454 464/333/454
f 465/331/455 468/334/455 469/332/455 466/330/455
f 308/529/456 463/528/456 464/562/456 306/565/456
f 314/507/457 465/678/457 462/679/457 307/508/457
f 467/124/458 477/125/458 479/337/458 464/333/458
f 316/520/459 468/680/459 465/678/459 314/507/459
f 474/4/460 482/340/460 483/339/460 475/3/460
f 476/681/461 484/682/461 480/683/461 472/684/461
f 473/564/462 481/685/462 482/686/462 474/687/462
f 477/125/463 485/349/463 487/348/463 479/337/463
f 315/521/464 472/684/464 478/688/464 470/522/464
f 367/533/465 476/681/465 472/684/465 315/521/465
f 372/2/466 475/3/466 476/352/466 367/351/466
f 306/565/467 473/564/467 474/687/467 385/689/467
f 498/690/468 492/691/468 488/692/468 501/693/468
f 499/358/469 507/361/469 506/360/469 490/359/469
f 313/362/470 493/365/470 495/364/470 496/363/470
f 497/366/471 491/369/471 492/368/471 498/367/471
f 479/563/472 487/694/472 481/685/472 473/564/472
f 472/684/473 480/683/473 486/695/473 478/688/473
f 478/126/474 486/372/474 485/349/474 477/125/474
f 475/3/475 483/339/475 484/373/475 476/352/475
f 489/696/476 495/697/476 493/698/476 471/699/476
f 489/696/477 471/699/477 491/700/477 490/701/477
f 471/699/478 488/702/478 492/703/478 491/700/478
f 471/699/479 493/698/479 494/704/479 488/702/479
f 499/358/480 490/359/480 491/369/480 497/366/480
f 495/364/481 504/384/481 503/383/481 496/363/481
f 501/693/482 488/692/482 494/705/482 502/706/482
f 502/387/483 494/388/483 493/365/483 313/362/483
f 516/389/484 502/387/484 313/362/484 509/390/484
f 515/707/485 501/693/485 502/706/485 516/708/485
f 512/709/486 496/710/486 500/711/486 511/712/486
f 514/397/487 499/358/487 497/366/487 510/398/487
f 510/398/488 497/366/488 498/367/488 513/399/488
f 509/390/489 313/362/489 496/363/489 512/400/489
f 511/712/490 500/711/490 499/713/490 514/714/490
f 513/715/491 498/690/491 501/693/491 515/707/491
f 508/716/492 505/717/492 506/718/492 507/719/492
f 503/720/493 504/721/493 505/717/493 508/716/493
f 500/722/494 508/723/494 507/724/494 499/725/494
f 490/701/495 506/726/495 505/727/495 489/696/495
f 496/728/496 503/729/496 508/723/496 500/722/496
f 489/696/497 505/727/497 504/730/497 495/697/497
f 484/682/498 513/715/498 515/707/498 480/683/498
f 481/685/499 511/712/499 514/714/499 482/686/499
f 485/349/500 509/390/500 512/400/500 487/348/500
f 483/339/501 510/398/501 513/399/501 484/373/501
f 482/340/502 514/397/502 510/398/502 483/339/502
f 487/694/503 512/709/503 511/712/503 481/685/503
f 480/683/504 515/707/504 516/708/504 486/695/504
f 486/372/505 516/389/505 509/390/505 485/349/505
f 252/419/506 517/731/506 518/732/506 251/420/506
f 519/733/507 517/734/507 252/425/507 257/424/507
f 258/427/508 251/420/508 518/732/508 520/735/508
f 24/107/509 258/430/509 520/736/509 366/519/509
f 365/530/510 519/737/510 257/431/510 26/119/510
f 366/532/511 520/735/511 519/737/511 365/530/511
f 362/433/512 521/133/512 522/134/512 363/434/512
f 537/435/513 523/172/513 521/133/513 362/433/513
f 363/434/514 522/134/514 524/149/514 538/436/514
f 538/436/515 524/149/515 523/172/515 537/435/515 545/438/515 546/437/515
f 362/738/516 525/739/516 541/740/516 537/741/516
f 528/443/517 542/446/517 540/445/517 526/444/517
f 538/436/518 544/448/518 529/447/518 363/434/518
f 540/742/519 539/743/519 527/744/519 526/745/519
f 539/743/520 541/740/520 525/739/520 527/744/520
f 528/443/521 530/454/521 543/453/521 542/446/521
f 530/454/522 529/447/522 544/448/522 543/453/522
f 363/746/523 529/747/523 530/748/523 528/749/523 526/750/523 527/751/523 525/752/523 362/753/523
f 378/754/524 538/755/524 546/756/524
f 533/757/525 539/758/525 540/759/525 531/760/525
f 532/761/526 541/762/526 539/758/526 533/757/526
f 535/611/527 542/763/527 543/764/527 536/608/527
f 536/608/528 543/764/528 544/765/528 534/766/528
f 531/760/529 540/759/529 542/763/529 535/611/529
f 381/767/530 537/768/530 541/762/530 532/761/530
f 534/766/531 544/765/531 538/755/531 378/754/531
f 547/769/532 551/770/532 549/771/532 550/772/532 552/610/532 553/609/532 554/773/532 548/774/532
f 545/775/533 537/768/533 381/767/533
f 532/761/534 551/770/534 547/769/534 381/767/534
f 556/776/535 555/777/535 547/769/535 548/774/535
f 381/767/536 547/769/536 555/777/536 545/775/536
f 378/754/537 548/774/537 554/773/537 534/766/537
f 534/766/538 554/773/538 553/609/538 536/608/538
f 531/760/539 550/772/539 549/771/539 533/757/539
f 545/438/540 555/488/540 556/487/540 546/437/540
f 535/611/541 552/610/541 550/772/541 531/760/541
f 546/756/542 556/776/542 548/774/542 378/754/542
f 533/757/543 549/771/543 551/770/543 532/761/543
f 559/778/544 374/779/544 326/780/544 557/781/544
f 558/613/545 561/605/545 377/604/545 560/782/545
f 375/783/546 325/612/546 558/613/546 560/782/546
f 326/606/547 561/605/547 303/496/547 302/495/547
f 299/497/548 303/500/548 561/784/548 558/785/548
f 557/781/549 326/780/549 302/502/549 300/501/549
f 560/184/550 377/504/550 374/503/550 559/183/550
f 562/786/551 575/787/551 574/788/551
f 563/789/552 575/790/552 577/791/552
f 562/792/553 574/793/553 579/794/553
f 562/795/554 579/796/554 581/797/554
f 562/798/555 581/799/555 578/800/555
f 563/789/556 577/791/556 584/801/556
f 564/802/557 576/803/557 586/804/557
f 565/805/558 580/806/558 588/807/558
f 566/808/559 582/809/559 590/810/559
f 567/811/560 583/812/560 592/813/560
f 563/789/561 584/801/561 587/814/561
f 564/802/562 586/804/562 589/815/562
f 565/805/563 588/807/563 591/816/563
f 566/808/564 590/810/564 593/817/564
f 567/811/565 592/813/565 585/818/565
f 568/819/566 594/820/566 599/821/566
f 569/822/567 595/823/567 601/824/567
f 570/825/568 596/826/568 602/827/568
f 571/828/569 597/829/569 603/830/569
f 572/831/570 598/832/570 600/833/570
f 600/833/571 603/834/571 573/835/571
f 600/833/572 598/832/572 603/834/572
f 598/832/573 571/828/573 603/834/573
f 603/830/574 602/836/574 573/837/574
f 603/830/575 597/829/575 602/836/575
f 597/829/576 570/825/576 602/836/576
f 602/827/577 601/838/577 573/839/577
f 602/827/578 596/826/578 601/838/578
f 596/826/579 569/840/579 601/838/579
f 601/824/580 599/841/580 573/842/580
f 601/824/581 595/823/581 599/841/581
f 595/823/582 568/819/582 599/841/582
f 599/821/583 600/843/583 573/844/583
f 599/821/584 594/820/584 600/843/584
f 594/820/585 572/831/585 600/843/585
f 585/818/586 598/832/586 572/831/586
f 585/818/587 592/813/587 598/832/587
f 592/813/588 571/828/588 598/832/588
f 593/817/589 597/829/589 571/828/589
f 593/817/590 590/810/590 597/829/590
f 590/810/591 570/825/591 597/829/591
f 591/816/592 596/826/592 570/825/592
f 591/816/593 588/807/593 596/826/593
f 588/807/594 569/840/594 596/826/594
f 589/815/595 595/823/595 569/822/595
f 589/815/596 586/804/596 595/823/596
f 586/804/597 568/819/597 595/823/597
f 587/814/598 594/820/598 568/819/598
f 587/814/599 584/801/599 594/820/599
f 584/801/600 572/831/600 594/820/600
f 592/813/601 593/817/601 571/828/601
f 592/813/602 583/812/602 593/817/602
f 583/812/603 566/808/603 593/817/603
f 590/810/604 591/816/604 570/825/604
f 590/810/605 582/809/605 591/816/605
f 582/809/606 565/805/606 591/816/606
f 588/807/607 589/845/607 569/840/607
f 588/807/608 580/806/608 589/845/608
f 580/806/609 564/846/609 589/845/609
f 586/804/610 587/814/610 568/819/610
f 586/804/611 576/803/611 587/814/611
f 576/803/612 563/789/612 587/814/612
f 584/801/613 585/818/613 572/831/613
f 584/801/614 577/791/614 585/818/614
f 577/791/615 567/811/615 585/818/615
f 578/800/616 583/812/616 567/811/616
f 578/800/617 581/799/617 583/812/617
f 581/799/618 566/808/618 583/812/618
f 581/797/619 582/809/619 566/808/619
f 581/797/620 579/796/620 582/809/620
f 579/796/621 565/805/621 582/809/621
f 579/794/622 580/806/622 565/805/622
f 579/794/623 574/793/623 580/806/623
f 574/793/624 564/846/624 580/806/624
f 577/791/625 578/847/625 567/811/625
f 577/791/626 575/790/626 578/847/626
f 575/790/627 562/848/627 578/847/627
f 574/788/628 576/803/628 564/802/628
f 574/788/629 575/787/629 576/803/629
f 575/787/630 563/789/630 576/803/630
f 604/786/631 616/788/631 617/787/631
f 605/789/632 619/791/632 617/790/632
f 604/792/633 621/794/633 616/793/633
f 604/795/634 623/797/634 621/796/634
f 604/798/635 620/800/635 623/799/635
f 605/789/636 626/801/636 619/791/636
f 606/802/637 628/804/637 618/803/637
f 607/805/638 630/807/638 622/806/638
f 608/808/639 632/810/639 624/809/639
f 609/811/640 634/813/640 625/812/640
f 605/789/641 629/814/641 626/801/641
f 606/802/642 631/815/642 628/804/642
f 607/805/643 633/816/643 630/807/643
f 608/808/644 635/817/644 632/810/644
f 609/811/645 627/818/645 634/813/645
f 610/819/646 641/821/646 636/820/646
f 611/822/647 643/824/647 637/823/647
f 612/825/648 644/827/648 638/826/648
f 613/828/649 645/830/649 639/829/649
f 614/831/650 642/833/650 640/832/650
f 642/833/651 615/835/651 645/834/651
f 642/833/652 645/834/652 640/832/652
f 640/832/653 645/834/653 613/828/653
f 645/830/654 615/837/654 644/836/654
f 645/830/655 644/836/655 639/829/655
f 639/829/656 644/836/656 612/825/656
f 644/827/657 615/839/657 643/838/657
f 644/827/658 643/838/658 638/826/658
f 638/826/659 643/838/659 611/840/659
f 643/824/660 615/842/660 641/841/660
f 643/824/661 641/841/661 637/823/661
f 637/823/662 641/841/662 610/819/662
f 641/821/663 615/844/663 642/843/663
f 641/821/664 642/843/664 636/820/664
f 636/820/665 642/843/665 614/831/665
f 627/818/666 614/831/666 640/832/666
f 627/818/667 640/832/667 634/813/667
f 634/813/668 640/832/668 613/828/668
f 635/817/669 613/828/669 639/829/669
f 635/817/670 639/829/670 632/810/670
f 632/810/671 639/829/671 612/825/671
f 633/816/672 612/825/672 638/826/672
f 633/816/673 638/826/673 630/807/673
f 630/807/674 638/826/674 611/840/674
f 631/815/675 611/822/675 637/823/675
f 631/815/676 637/823/676 628/804/676
f 628/804/677 637/823/677 610/819/677
f 629/814/678 610/819/678 636/820/678
f 629/814/679 636/820/679 626/801/679
f 626/801/680 636/820/680 614/831/680
f 634/813/681 613/828/681 635/817/681
f 634/813/682 635/817/682 625/812/682
f 625/812/683 635/817/683 608/808/683
f 632/810/684 612/825/684 633/816/684
f 632/810/685 633/816/685 624/809/685
f 624/809/686 633/816/686 607/805/686
f 630/807/687 611/840/687 631/845/687
f 630/807/688 631/845/688 622/806/688
f 622/806/689 631/845/689 606/846/689
f 628/804/690 610/819/690 629/814/690
f 628/804/691 629/814/691 618/803/691
f 618/803/692 629/814/692 605/789/692
f 626/801/693 614/831/693 627/818/693
f 626/801/694 627/818/694 619/791/694
f 619/791/695 627/818/695 609/811/695
f 620/800/696 609/811/696 625/812/696
f 620/800/697 625/812/697 623/799/697
f 623/799/698 625/812/698 608/808/698
f 623/797/699 608/808/699 624/809/699
f 623/797/700 624/809/700 621/796/700
f 621/796/701 624/809/701 607/805/701
f 621/794/702 607/805/702 622/806/702
f 621/794/703 622/806/703 616/793/703
f 616/793/704 622/806/704 606/846/704
f 619/791/705 609/811/705 620/847/705
f 619/791/706 620/847/706 617/790/706
f 617/790/707 620/847/707 604/848/707
f 616/788/708 606/802/708 618/803/708
f 616/788/709 618/803/709 617/787/709
f 617/787/710 618/803/710 605/789/710
