# Blender 5.1.1
# www.blender.org
o Куб.001
v 0.568600 1.838183 0.958667
v 0.462987 2.904957 0.078663
v 0.629590 1.266092 0.152574
v 0.630679 2.461975 -0.260715
v 0.057517 1.178294 0.202176
v 0.004177 2.502430 -0.472268
v 0.739962 1.900659 0.217251
v 0.641044 1.425695 0.558335
v 0.579487 2.700360 -0.066892
v 0.683524 2.335559 0.609289
v 0.089916 1.844216 1.156819
v -0.094097 2.978970 0.069391
v 0.751499 1.964532 0.317327
v 0.049887 1.324316 0.713681
v -0.036105 2.800790 -0.162591
v 0.833361 0.306662 -0.189094
v 0.555852 2.300442 -0.426802
v 0.075009 1.149634 -0.054118
v 0.000362 2.240109 -0.633859
v 0.478400 1.288837 -0.473668
v 0.474360 2.079118 -0.632249
v 0.060486 3.793609 2.831688
v 0.082234 1.150430 -0.268445
v 0.001752 1.977887 -0.814899
v 0.577390 1.670624 -0.634308
v 0.038339 1.459819 -0.593303
v 0.059160 4.184276 2.743175
v 0.145419 4.482920 2.397487
v 0.484436 2.398977 1.255448
v 0.469489 3.211964 0.380575
v 0.143003 3.732679 2.637758
v 0.635427 2.660475 0.823239
v 0.096467 2.279203 1.467040
v -0.042579 3.334024 0.396369
v 0.033034 3.898328 3.038754
v 0.009916 4.069844 3.036761
v 0.019357 3.811651 2.955776
v 0.562695 3.541132 0.585305
v 0.510850 1.919748 1.352881
v 0.095611 2.436781 1.782482
v -0.045971 3.671848 0.615801
v 0.094390 4.373234 2.653020
v 0.105002 3.757592 2.752520
v 0.144209 4.567099 2.081077
v 0.579537 3.670366 0.735003
v 0.437932 1.913819 1.437519
v 0.092546 2.582244 1.875545
v -0.044956 3.798136 0.727026
v 0.156543 3.714395 2.518390
v 0.131602 4.562428 1.771730
v 0.140872 3.690181 2.373866
v 0.536632 3.809691 0.964578
v 0.741072 3.264950 1.441491
v 0.714286 2.581479 1.919874
v 0.072529 2.847918 1.900878
v -0.040681 3.906814 0.852867
v 0.130368 4.429552 1.448998
v 0.162255 3.615553 2.055619
v 0.426452 4.039083 1.156941
v 0.616572 3.346598 1.673592
v 0.543052 3.125652 1.832023
v 0.049938 3.093561 1.897020
v -0.049728 4.134368 1.029512
v 0.182484 4.107983 1.067529
v 0.297331 3.114432 1.865390
v 0.241276 3.869557 0.873166
v 0.473840 2.654773 1.850315
v 0.316877 4.373416 1.474038
v 0.432391 3.919917 1.939711
v 0.348432 3.633832 2.005426
v -0.020420 3.591442 2.077575
v -0.052683 4.434290 1.424730
v 0.279434 3.740649 0.718749
v 0.407790 2.585135 1.775130
v 0.271765 3.615226 0.572811
v 0.312385 4.506128 1.781383
v 0.402926 4.083037 2.126180
v 0.321269 3.717876 2.317113
v -0.036553 3.662832 2.375585
v -0.046980 4.563397 1.736301
v 0.395230 2.530211 1.673138
v 0.212752 3.276681 0.349134
v 0.381007 2.441322 1.437877
v 0.340679 4.389042 2.147122
v 0.424249 4.177571 2.230833
v 0.348103 3.739844 2.455221
v -0.034740 3.685854 2.515689
v -0.033614 4.582105 2.046492
v 0.294582 1.499692 -0.545678
v 0.205390 1.997765 -0.770664
v 0.346414 1.252317 -0.375683
v 0.216088 4.328395 2.614163
v 0.311437 4.062772 2.623059
v 0.244558 3.773459 2.701059
v -0.031809 3.735535 2.726223
v -0.024158 4.384265 2.617963
v 0.257040 2.199488 -0.637698
v 0.309004 1.211849 -0.121870
v 0.272515 2.753304 -0.178665
v 0.044849 4.060875 3.015873
v 0.099290 3.896125 2.997319
v 0.075192 3.833377 2.941800
v -0.028247 3.806614 2.968544
v 0.039598 4.015870 3.042222
v -0.026381 3.888179 3.039283
v 0.435121 4.255873 2.286668
v -0.033267 3.708219 2.624789
v 0.320150 3.752176 2.578609
v 0.348788 1.314719 0.586312
v -0.027032 4.503930 2.362293
v 0.372417 4.392665 2.240220
v 0.177645 2.936514 0.025763
v -0.025497 4.187451 2.742216
v 0.332264 1.823924 1.056283
v 0.318978 2.423296 -0.487314
v 0.382620 1.192074 0.131370
v 0.156432 3.804919 2.784888
v -0.030525 3.774339 2.796837
v 0.182857 3.979754 2.810443
v 0.149400 4.143081 2.735166
v 0.041064 3.800121 2.889076
v 0.042813 4.099238 2.916566
v 0.110841 3.813164 2.873795
v 0.134168 3.938564 2.903059
v -0.024914 4.103163 2.903519
v -0.029445 3.789058 2.879013
v 0.109513 4.075776 2.892132
v 0.605132 3.196534 0.544115
v 0.728702 2.716696 0.845946
v 0.638397 2.548680 1.169785
v 0.671786 3.457757 0.658956
v 0.832273 2.949830 1.172841
v 0.878405 2.528962 1.486594
v 0.641400 3.585520 0.789992
v 0.862705 3.082195 1.280121
v 0.940364 2.513966 1.655257
v 0.658745 3.607699 1.021510
v 0.832892 3.239592 1.407085
v 0.915515 2.558568 1.820857
v 0.416252 2.152487 1.376400
v 0.491274 2.179355 1.278419
v 0.849096 2.090799 1.708258
v 0.719428 2.076937 1.805850
v 0.860001 2.084954 1.578707
v 0.457159 2.090274 1.591208
v 0.814417 2.104750 1.456609
v 0.625797 2.187753 1.224462
v 0.502487 2.066604 1.726563
v 0.573437 2.086192 1.810210
v 0.822281 1.872339 1.642846
v 0.693617 1.874918 1.728441
v 0.450345 1.470388 1.262641
v 0.843509 1.869646 1.540534
v 0.455017 1.893281 1.571508
v 0.357151 1.469521 1.351864
v 0.803159 1.878607 1.447006
v 0.643537 1.913824 1.316332
v 0.490034 1.884650 1.681758
v 0.552882 1.883933 1.738022
v 0.402132 1.728952 1.376851
v 0.485638 1.729573 1.294334
v 0.808071 1.682662 1.546052
v 0.665549 1.689209 1.632523
v 0.802184 1.681446 1.460137
v 0.419462 1.712120 1.498451
v 0.765608 1.688766 1.375004
v 0.632391 1.718980 1.252640
v 0.453055 1.704471 1.598564
v 0.514642 1.702493 1.648656
v 0.826555 1.397589 1.517590
v 0.641551 1.404624 1.617999
v 0.642681 1.419626 1.489686
v 0.798065 1.409149 1.435149
v 0.374748 1.449506 1.481498
v 0.601719 1.434084 1.391025
v 0.760727 1.421475 1.345184
v 0.612904 1.457646 1.216355
v 0.411919 1.435584 1.585833
v 0.449113 1.424959 1.645885
v 0.378208 1.604773 1.366696
v 0.432147 1.576696 1.594861
v 0.395523 1.587010 1.492605
v 0.767312 1.560636 1.361079
v 0.804084 1.551695 1.449469
v 0.819630 1.602636 1.542067
v 0.664863 1.606568 1.635295
v 0.625147 1.593031 1.235578
v 0.468103 1.604926 1.280290
v 0.499963 1.624768 1.652075
v 0.689907 1.496687 1.754589
v 0.679156 1.379790 1.746328
v 0.835281 1.374990 1.654521
v 0.515617 1.397564 1.764856
v 0.840583 1.492764 1.665336
v 0.531752 1.514350 1.771703
v 0.784788 2.325995 -0.185895
v 0.816435 1.848892 0.107115
v 0.787605 1.281562 0.069721
v 0.770190 2.203003 -0.392337
v 0.873445 1.764819 -0.376809
v 0.828103 1.276841 -0.189392
v 0.753108 2.044572 -0.574508
v 0.846541 1.722497 -0.596533
v 0.752456 1.296569 -0.464929
v 0.614934 0.078500 -0.186718
v 0.530298 0.953303 -0.488284
v 0.658452 1.062933 0.116723
v 0.459800 1.035169 0.055019
v 0.392935 0.992712 -0.201855
v 0.419560 0.958334 -0.439009
v 0.815997 1.004873 -0.202174
v 0.754142 0.958831 -0.453833
v 0.784723 1.051960 0.039846
v 0.547397 0.762714 -0.423674
v 0.662500 0.610607 0.112247
v 0.481580 0.621276 0.051178
v 0.421438 0.704074 -0.176173
v 0.446388 0.754122 -0.381278
v 0.806987 0.707066 -0.168924
v 0.751298 0.757755 -0.390715
v 0.777760 0.634722 0.044801
v 0.551587 0.109742 -0.420551
v 0.683664 0.065852 0.032300
v 0.427276 0.055156 -0.014914
v 0.409757 0.073859 -0.208774
v 0.438857 0.102487 -0.384908
v 0.838694 0.080498 -0.207421
v 0.778211 0.105788 -0.395416
v 0.848476 0.066945 -0.028035
v 0.841063 0.289547 -0.014162
v 0.404397 0.300062 -0.191416
v 0.433512 0.327045 -0.366708
v 0.419848 0.279056 -0.001805
v 0.676166 0.283855 0.043962
v 0.546251 0.334776 -0.402130
v 0.772882 0.330934 -0.376774
v 0.802191 0.174077 0.105712
v 0.808781 0.061874 0.112042
v 0.680158 0.059847 0.170716
v 0.479252 0.049482 0.122780
v 0.472674 0.160287 0.117142
v 0.673555 0.174775 0.163459
v 0.796906 0.525264 -0.176719
v 0.437446 0.520744 -0.178929
v 0.661412 0.484943 0.050586
v 0.769055 0.494283 -0.004850
v 0.461417 0.556055 -0.342936
v 0.492895 0.484745 0.003062
v 0.555799 0.563993 -0.376002
v 0.745788 0.559175 -0.351621
v 0.002275 1.820953 -0.834217
v 0.013720 1.553276 -0.757416
v 0.108998 1.581504 -0.722144
v 0.078766 1.822135 -0.806054
v 0.149461 1.585851 -0.659568
v 0.090760 1.922584 -0.804503
v 0.016270 1.545616 -0.697864
v 0.002000 1.921156 -0.838847
v 0.318970 4.469356 1.995498
v 0.430343 4.085982 2.233954
v 0.318348 4.423906 2.370016
v 0.440250 4.139421 2.425130
v 0.400367 4.437424 2.163060
v 0.478707 4.428018 2.187478
v 0.441502 4.449683 2.175084
v 0.506445 4.390803 2.197755
v 0.505455 4.300203 2.215517
v 0.519198 4.346854 2.207676
v 0.484055 4.411971 2.237712
v 0.425041 4.424890 2.234300
v 0.455699 4.429061 2.234088
v 0.496614 4.335422 2.257859
v 0.496852 4.396157 2.240768
v 0.506927 4.366106 2.248135
v 0.342592 4.399246 2.239409
v 0.429813 4.209457 2.299250
v 0.460345 4.452337 2.227065
v 0.499631 4.429004 2.232537
v 0.416774 4.446196 2.227975
v 0.517811 4.406908 2.237405
v 0.531659 4.365933 2.247958
v 0.517685 4.324588 2.260800
v 0.353377 4.379330 2.245070
v 0.419842 4.231074 2.292796
v 0.382491 4.372340 2.235515
v 0.427791 4.273020 2.269548
v 0.442588 4.398376 2.231228
v 0.463058 4.385805 2.233951
v 0.420475 4.395374 2.231414
v 0.472299 4.374216 2.236241
v 0.479581 4.352268 2.241675
v 0.472164 4.329658 2.248896
v 0.368814 4.361864 2.239508
v 0.416783 4.255378 2.274061
v 0.034559 4.066980 3.002045
v 0.030889 3.991716 3.047871
v 0.075044 4.057193 2.974998
v 0.070133 3.982068 3.021739
v -0.024817 3.993896 3.051166
v -0.024298 4.067029 3.006824
v 0.006305 4.024655 3.062418
v -0.023961 4.068180 3.036904
v -0.024281 4.024611 3.062282
v -0.449249 1.770286 0.978438
v -0.592839 2.815478 0.199546
v -0.510757 1.194119 0.082794
v -0.611436 2.383578 -0.336722
v -0.694551 1.806494 0.160707
v -0.525249 1.349181 0.529074
v -0.637912 2.617104 -0.098513
v -0.619233 2.238497 0.697817
v -0.713252 1.866256 0.284465
v -0.549728 0.219368 -0.273728
v -0.504672 2.239866 -0.485599
v -0.288708 1.240431 -0.520599
v -0.401705 2.041186 -0.669210
v -0.120212 3.796064 2.833624
v -0.428656 1.613292 -0.689959
v -0.110168 4.186577 2.744989
v -0.198694 4.486283 2.401423
v -0.343782 2.350176 1.307575
v -0.541635 3.148783 0.457508
v -0.208489 3.737456 2.641524
v -0.579250 2.585888 0.903779
v -0.085496 3.899939 3.040024
v -0.057774 4.070765 3.037486
v -0.075959 3.812946 2.956797
v -0.635277 3.473518 0.659107
v -0.308477 1.873504 1.403356
v -0.142175 4.376449 2.655555
v -0.167375 3.761293 2.755438
v -0.209751 4.567117 2.085739
v -0.648056 3.601079 0.810630
v -0.225550 1.876372 1.478394
v -0.225074 3.719580 2.522479
v -0.222206 4.553202 1.778064
v -0.213166 3.694992 2.377659
v -0.592254 3.744675 1.028025
v -0.675460 3.184999 1.528757
v -0.513897 2.512159 1.995537
v -0.232725 4.415059 1.456420
v -0.200989 3.615317 2.062530
v -0.498410 3.984145 1.187528
v -0.545468 3.287385 1.737471
v -0.434239 3.077655 1.885414
v -0.273382 4.080230 1.080339
v -0.194588 3.092331 1.891168
v -0.314385 3.836402 0.898988
v -0.294898 2.611803 1.897369
v -0.412148 4.344918 1.488963
v -0.464947 3.897368 1.961030
v -0.380810 3.629196 2.020472
v -0.360715 3.704256 0.756958
v -0.229770 2.549151 1.814407
v -0.358215 3.579668 0.611621
v -0.398551 4.488672 1.793914
v -0.464162 4.085473 2.137850
v -0.390076 3.725673 2.325290
v -0.223707 2.495278 1.711268
v -0.296728 3.245551 0.387998
v -0.227499 2.406887 1.475646
v -0.404150 4.390587 2.156653
v -0.486930 4.183723 2.241717
v -0.417085 3.750092 2.463431
v -0.165563 1.478089 -0.566702
v -0.192310 1.994826 -0.773751
v -0.169052 1.220580 -0.406461
v -0.266121 4.334704 2.619382
v -0.368169 4.072006 2.630340
v -0.307519 3.780962 2.706974
v -0.235957 2.191081 -0.646091
v -0.154963 1.182566 -0.150261
v -0.333870 2.712002 -0.195397
v -0.093378 4.062754 3.017354
v -0.152659 3.899549 3.000018
v -0.131470 3.836185 2.944014
v -0.088788 4.017614 3.043597
v -0.495689 4.262173 2.297802
v -0.386267 3.761776 2.586177
v -0.231668 1.276298 0.567406
v -0.433051 4.396276 2.250273
v -0.346869 2.888784 0.103098
v -0.166674 1.788916 1.075878
v -0.279942 2.392149 -0.517582
v -0.255727 1.151785 0.092308
v -0.216796 3.809991 2.788887
v -0.237907 3.985472 2.814950
v -0.201646 4.147850 2.738927
v -0.099395 3.802031 2.890581
v -0.092428 4.101076 2.918015
v -0.169103 3.816968 2.876794
v -0.188383 3.942947 2.906515
v -0.160249 4.079442 2.895022
v -0.643622 3.122287 0.632902
v -0.670834 2.633492 0.939827
v -0.527161 2.482894 1.241590
v -0.724497 3.378949 0.744975
v -0.762944 2.859794 1.271116
v -0.722867 2.438584 1.585242
v -0.692822 3.510215 0.872187
v -0.794665 2.988651 1.382225
v -0.761650 2.417902 1.760110
v -0.684315 3.531506 1.102422
v -0.767375 3.149271 1.505671
v -0.721882 2.466151 1.921730
v -0.238403 2.115537 1.416731
v -0.327386 2.133149 1.328854
v -0.617726 2.008010 1.798622
v -0.476360 2.009445 1.879517
v -0.643675 2.000085 1.671343
v -0.245486 2.050615 1.634495
v -0.615883 2.024022 1.544724
v -0.467587 2.126041 1.291821
v -0.270970 2.022949 1.774212
v -0.332897 2.035038 1.866046
v -0.574797 1.793487 1.728914
v -0.437732 1.811063 1.798139
v -0.209481 1.433147 1.303291
v -0.607947 1.787724 1.629952
v -0.223701 1.854973 1.613321
v -0.106564 1.443349 1.380431
v -0.580605 1.800506 1.532254
v -0.443133 1.852491 1.383277
v -0.243775 1.843233 1.726965
v -0.298787 1.835864 1.790489
v -0.176946 1.696268 1.412526
v -0.269461 1.686954 1.340853
v -0.551364 1.605934 1.629801
v -0.400972 1.629013 1.698227
v -0.555935 1.604792 1.543805
v -0.177270 1.678439 1.535213
v -0.531103 1.615578 1.454889
v -0.418093 1.659690 1.317356
v -0.197291 1.667765 1.638629
v -0.251673 1.659241 1.695866
v -0.541119 1.320396 1.601847
v -0.347182 1.348818 1.678911
v -0.365679 1.362714 1.551807
v -0.524407 1.334507 1.516621
v -0.105811 1.422382 1.511104
v -0.338977 1.380990 1.448978
v -0.499976 1.350320 1.422850
v -0.374021 1.401942 1.277155
v -0.128140 1.405102 1.619104
v -0.156280 1.390789 1.683180
v -0.140676 1.575487 1.398663
v -0.162802 1.543116 1.631514
v -0.140354 1.556764 1.525619
v -0.520124 1.487972 1.440393
v -0.544569 1.475576 1.532554
v -0.554280 1.525091 1.626708
v -0.390693 1.546991 1.700323
v -0.398918 1.535231 1.298666
v -0.239914 1.564965 1.323908
v -0.228066 1.583677 1.696926
v -0.388476 1.435821 1.821024
v -0.365781 1.320812 1.810703
v -0.530436 1.297908 1.738657
v -0.204234 1.356934 1.809203
v -0.547543 1.414417 1.750853
v -0.232399 1.471220 1.818779
v -0.755234 2.228797 -0.280132
v -0.760547 1.748619 0.015577
v -0.658223 1.190309 -0.018752
v -0.700383 2.110188 -0.482323
v -0.749053 1.662416 -0.476092
v -0.666041 1.182538 -0.280821
v -0.649872 1.962194 -0.654441
v -0.692972 1.627001 -0.689137
v -0.560563 1.213698 -0.545275
v -0.306360 0.020353 -0.243094
v -0.295978 0.901153 -0.538845
v -0.509374 0.989226 0.045262
v -0.302797 0.987038 0.008355
v -0.200444 0.955261 -0.238165
v -0.193553 0.919637 -0.476526
v -0.618501 0.914334 -0.289954
v -0.521265 0.878334 -0.531877
v -0.622998 0.963111 -0.046295
v -0.296788 0.709433 -0.475331
v -0.456157 0.540002 0.043795
v -0.271932 0.573717 0.005070
v -0.195472 0.665138 -0.213922
v -0.201400 0.713237 -0.420917
v -0.576364 0.619756 -0.253574
v -0.500942 0.678720 -0.467341
v -0.564479 0.550006 -0.037333
v -0.219500 0.061074 -0.467735
v -0.399050 -0.002484 -0.033953
v -0.139521 0.019382 -0.049597
v -0.101070 0.041618 -0.240033
v -0.111919 0.067725 -0.418611
v -0.524424 -0.005536 -0.290833
v -0.445205 0.028572 -0.470279
v -0.554143 -0.021581 -0.113864
v -0.576412 0.200082 -0.100900
v -0.126235 0.266571 -0.223886
v -0.136995 0.291038 -0.401618
v -0.161844 0.242342 -0.037400
v -0.420390 0.214645 -0.023138
v -0.244671 0.284856 -0.450528
v -0.470424 0.252462 -0.452854
v -0.538231 0.089476 0.023689
v -0.531433 -0.022714 0.030032
v -0.411655 -0.009063 0.103906
v -0.206710 0.006187 0.080805
v -0.213429 0.116983 0.075158
v -0.418669 0.105839 0.096623
v -0.542718 0.440714 -0.258693
v -0.187937 0.481273 -0.217197
v -0.431856 0.415941 -0.016313
v -0.532285 0.412148 -0.084481
v -0.196045 0.514560 -0.383167
v -0.260127 0.437218 -0.043016
v -0.285958 0.510865 -0.427510
v -0.475390 0.482100 -0.426348
v -0.072250 1.579198 -0.724477
v -0.074415 1.821689 -0.806585
v -0.093240 1.581170 -0.664221
v -0.087003 1.922067 -0.805119
v -0.388584 4.465836 2.005458
v -0.494339 4.093272 2.244802
v -0.373666 4.430213 2.378015
v -0.499540 4.149306 2.435716
v -0.462606 4.440240 2.174094
v -0.539979 4.432336 2.200397
v -0.503070 4.453268 2.187171
v -0.567671 4.395752 2.211272
v -0.567071 4.305984 2.228679
v -0.580552 4.352369 2.221321
v -0.544414 4.416696 2.250608
v -0.485600 4.428648 2.245814
v -0.516101 4.433276 2.246344
v -0.557132 4.340920 2.270851
v -0.557236 4.401151 2.253938
v -0.567380 4.371445 2.261473
v -0.402854 4.403195 2.248550
v -0.490661 4.216482 2.310105
v -0.520672 4.456547 2.239491
v -0.559902 4.433867 2.245862
v -0.477276 4.449874 2.239298
v -0.578130 4.412102 2.251126
v -0.592090 4.371561 2.261904
v -0.578242 4.330365 2.274292
v -0.414124 4.382627 2.254677
v -0.480515 4.237790 2.303445
v -0.443429 4.375949 2.245842
v -0.488560 4.278831 2.280583
v -0.503330 4.402494 2.243109
v -0.523748 4.390398 2.246250
v -0.481318 4.399128 2.242790
v -0.532987 4.379029 2.248750
v -0.540289 4.357366 2.254321
v -0.532876 4.335028 2.261255
v -0.429721 4.365480 2.249456
v -0.477599 4.261439 2.284757
v -0.083224 4.068581 3.003307
v -0.080620 3.993232 3.049066
v -0.124530 4.059905 2.977136
v -0.120662 3.984661 3.023783
v -0.054844 4.025486 3.063073
v 0.263886 4.104854 2.639613
v 0.279707 4.172349 2.622297
v 0.242699 4.122277 2.678112
v 0.204837 4.086020 2.694738
v 0.218447 4.113687 2.649199
v 0.264719 4.167040 2.604428
v 0.230436 4.195231 2.666721
v 0.184163 4.141877 2.711492
v 0.169175 4.136568 2.693623
v 0.206184 4.186641 2.637808
v 0.244045 4.222897 2.621182
v 0.184996 4.204063 2.676307
v 0.258358 4.106385 2.659020
v 0.280111 4.135818 2.626213
v 0.267657 4.146058 2.648843
v 0.280600 4.172369 2.605533
v 0.271301 4.132696 2.615710
v 0.236104 4.085074 2.668794
v 0.223650 4.095316 2.691423
v 0.244103 4.101336 2.642026
v 0.209395 4.090266 2.674428
v 0.244593 4.137888 2.621345
v 0.268449 4.205202 2.615380
v 0.259639 4.202081 2.604877
v 0.238696 4.159509 2.674955
v 0.260449 4.188940 2.642147
v 0.189244 4.106837 2.711043
v 0.211498 4.128147 2.701271
v 0.188433 4.119977 2.673773
v 0.180434 4.103716 2.700540
v 0.237384 4.180770 2.614650
v 0.210186 4.149409 2.640965
v 0.239487 4.218651 2.641492
v 0.204290 4.171030 2.694575
v 0.168282 4.136548 2.710387
v 0.181225 4.162860 2.667078
v 0.225233 4.213601 2.624497
v 0.204779 4.207582 2.673894
v 0.212779 4.223843 2.647126
v 0.177581 4.176221 2.700209
v 0.168772 4.173100 2.689706
v 0.190524 4.202532 2.656899
v -0.319148 4.112776 2.645859
v -0.333497 4.180682 2.628866
v -0.296676 4.129606 2.683891
v -0.259466 4.092330 2.699713
v -0.273291 4.120368 2.654467
v -0.319045 4.174972 2.610682
v -0.282681 4.202205 2.672219
v -0.236928 4.147599 2.716003
v -0.222475 4.141891 2.697819
v -0.259297 4.192966 2.642795
v -0.296507 4.230242 2.626973
v -0.236824 4.209796 2.680827
v -0.313166 4.114151 2.665143
v -0.334809 4.144174 2.632802
v -0.321600 4.154066 2.655156
v -0.334748 4.180731 2.612125
v -0.326314 4.140817 2.622113
v -0.291295 4.092241 2.674444
v -0.278085 4.102134 2.696798
v -0.299421 4.108722 2.647849
v -0.264340 4.096704 2.679504
v -0.299360 4.145280 2.627173
v -0.321501 4.213218 2.621701
v -0.313006 4.209862 2.611012
v -0.291732 4.166717 2.680637
v -0.313375 4.196738 2.648295
v -0.242967 4.112710 2.715674
v -0.264838 4.134620 2.706374
v -0.242598 4.125834 2.678391
v -0.234472 4.109354 2.704985
v -0.291134 4.187952 2.620312
v -0.264241 4.155856 2.646048
v -0.291632 4.225869 2.647182
v -0.256613 4.177293 2.699513
v -0.221224 4.141841 2.714561
v -0.234372 4.168507 2.671530
v -0.277887 4.220439 2.629888
v -0.256551 4.213850 2.678837
v -0.264678 4.230330 2.652242
v -0.229658 4.181755 2.704573
v -0.221163 4.178399 2.693884
v -0.242806 4.208420 2.661542
vn -0.8464 -0.4682 0.2539
vn 0.4398 0.4716 -0.7643
vn 0.9831 -0.1798 0.0347
vn 0.9825 0.1789 -0.0514
vn 0.9550 0.2963 0.0129
vn 0.9630 -0.0597 0.2629
vn 0.9545 -0.0287 0.2969
vn 0.5632 -0.3995 0.7233
vn 0.3126 -0.9001 0.3033
vn 0.3177 -0.6346 0.7045
vn 0.1082 0.7048 -0.7011
vn 0.0564 0.7786 -0.6250
vn 0.3138 0.5309 -0.7872
vn 0.1190 -0.3628 -0.9242
vn 0.1353 -0.9908 0.0024
vn 0.5429 0.5469 0.6373
vn 0.1780 -0.1992 -0.9636
vn -0.1705 -0.4483 -0.8774
vn 0.1688 0.0778 -0.9826
vn 0.2946 -0.9540 -0.0560
vn 0.7778 0.4818 -0.4036
vn 0.9275 -0.1124 -0.3565
vn 0.0034 0.6829 -0.7305
vn 0.9677 0.1945 -0.1602
vn 0.5798 -0.7740 -0.2546
vn 0.0707 0.7117 -0.6990
vn -0.0223 0.5491 -0.8354
vn -0.8440 -0.0293 -0.5355
vn 0.6304 -0.3302 -0.7025
vn 0.1319 0.7639 -0.6317
vn -0.9478 -0.1898 0.2562
vn 0.7759 -0.0953 -0.6236
vn 0.0832 0.5302 -0.8438
vn 0.8171 0.2686 0.5101
vn -0.0680 0.0487 0.9965
vn 0.3345 -0.5299 0.7793
vn 0.0923 -0.9583 0.2704
vn 0.2668 -0.6430 0.7179
vn 0.4929 -0.2268 0.8400
vn 0.7203 0.1691 -0.6727
vn 0.3765 0.6491 -0.6610
vn 0.7887 0.0266 0.6143
vn 0.2007 -0.2734 0.9407
vn 0.2789 0.7227 -0.6324
vn 0.1640 0.6289 -0.7599
vn 0.0976 0.5506 -0.8291
vn 0.8870 0.4260 0.1782
vn 0.4885 -0.1023 0.8665
vn 0.8356 -0.0863 -0.5425
vn 0.0916 -0.6527 -0.7521
vn 0.9810 0.1885 -0.0455
vn 0.9677 -0.0158 -0.2516
vn 0.1499 0.7771 -0.6112
vn 0.4441 -0.8218 0.3570
vn 0.9574 0.2865 0.0364
vn 0.2288 0.6688 -0.7074
vn 0.2103 0.7320 -0.6480
vn 0.9793 0.1844 -0.0841
vn 0.1940 0.4980 -0.8452
vn 0.0526 0.9978 -0.0399
vn 0.1929 -0.9479 0.2536
vn 0.9663 -0.1693 0.1939
vn 0.2708 0.8151 -0.5122
vn 0.0775 0.9212 -0.3813
vn 0.0016 0.9123 0.4095
vn 0.3322 -0.6659 0.6680
vn 0.8460 -0.0522 0.5307
vn 0.2025 -0.9385 0.2797
vn 0.1312 0.0213 0.9911
vn 0.1817 -0.9745 0.1319
vn 0.9328 -0.3157 -0.1738
vn 0.1197 -0.3001 0.9464
vn 0.8704 -0.3672 0.3280
vn 0.3242 -0.8806 0.3456
vn 0.1498 -0.3168 0.9366
vn 0.3751 0.6674 -0.6434
vn 0.3659 0.7192 -0.5906
vn 0.7603 0.3629 0.5387
vn 0.4046 0.9136 0.0412
vn 0.1527 -0.9595 0.2366
vn 0.1845 -0.6722 0.7170
vn 0.8909 0.1917 0.4118
vn 0.3038 0.8785 -0.3687
vn 0.3853 0.8061 0.4492
vn 0.1114 -0.9615 0.2511
vn 0.4295 0.8285 0.3592
vn 0.1477 -0.9771 0.1531
vn 0.5478 0.3768 0.7469
vn 0.1368 -0.9705 0.1986
vn 0.3912 -0.6768 0.6236
vn -0.2934 0.1350 0.9464
vn 0.0072 0.9401 0.3409
vn 0.1690 -0.9739 0.1517
vn 0.9711 -0.2163 0.1009
vn 0.0403 -0.1047 0.9937
vn 0.0501 0.9675 0.2478
vn 0.6421 0.3287 0.6926
vn 0.1328 -0.9746 0.1804
vn -0.1186 0.4909 0.8631
vn 0.4493 0.8781 0.1644
vn 0.3463 0.3877 0.8543
vn 0.0391 -0.8894 0.4555
vn 0.3268 -0.7492 0.5761
vn 0.7863 -0.0890 0.6114
vn 0.4184 0.7956 0.4381
vn 0.1371 -0.9765 0.1666
vn 0.8559 0.2886 0.4292
vn 0.0001 0.8923 0.4514
vn 0.2124 -0.9583 0.1911
vn 0.8812 -0.2222 0.4173
vn 0.8540 -0.4103 -0.3198
vn 0.9659 0.1749 -0.1911
vn 0.9385 -0.0150 -0.3449
vn 0.9440 0.3069 -0.1209
vn 0.9550 -0.0796 -0.2859
vn 0.9834 0.1687 0.0673
vn 0.6465 0.6482 0.4023
vn 0.8567 0.4997 -0.1275
vn -0.1970 -0.1582 0.9675
vn 0.4249 0.5075 0.7496
vn -0.3032 -0.3029 -0.9035
vn 0.9812 -0.1316 0.1408
vn -0.9871 -0.0293 0.1572
vn -0.9509 -0.0160 0.3090
vn 0.9280 -0.0180 -0.3722
vn 0.5558 -0.3289 0.7635
vn 0.9702 -0.1904 0.1501
vn -0.6923 -0.1807 0.6986
vn -0.3790 -0.1190 -0.9177
vn -0.9793 -0.1560 0.1292
vn 0.9795 -0.1832 0.0836
vn -0.9791 0.1355 0.1516
vn -0.9480 0.0548 0.3134
vn 0.9170 -0.0310 -0.3977
vn 0.4692 -0.4446 0.7630
vn 0.6658 0.1718 -0.7261
vn -0.7042 -0.1508 0.6938
vn 0.0233 -0.3493 0.9367
vn -0.7344 -0.2341 -0.6370
vn 0.6996 -0.1071 -0.7064
vn -0.2590 0.1589 -0.9527
vn 0.9677 0.0305 -0.2503
vn -0.9788 0.1355 0.1538
vn -0.9315 0.1121 0.3459
vn 0.9234 -0.0002 -0.3837
vn 0.9943 0.0165 -0.1050
vn -0.2387 0.3143 -0.9188
vn -0.6365 -0.2203 0.7391
vn 0.0435 -0.4564 0.8887
vn -0.6986 0.3175 -0.6413
vn -0.1208 -0.9834 -0.1356
vn -0.1016 -0.9886 -0.1114
vn -0.1074 -0.9895 -0.0970
vn -0.1177 -0.9831 -0.1401
vn -0.1174 -0.9868 -0.1118
vn -0.1038 -0.9898 -0.0975
vn -0.7589 0.1297 0.6382
vn -0.8743 0.1662 0.4561
vn -0.6810 0.1833 -0.7089
vn 0.6652 0.0497 -0.7450
vn 0.6765 0.0746 -0.7327
vn -0.6865 0.1828 -0.7038
vn 0.1064 0.0282 0.9939
vn -0.6578 0.1129 0.7447
vn 0.5178 0.0282 0.8550
vn 0.9216 0.0496 -0.3849
vn -0.9295 0.1521 0.3360
vn -0.9712 0.1762 0.1606
vn 0.9875 0.0731 -0.1399
vn -0.2608 0.1443 -0.9545
vn 0.5033 -0.1042 0.8578
vn 0.1015 -0.0758 0.9919
vn 0.3681 0.7227 0.5850
vn -0.1209 -0.9806 -0.1542
vn 0.1509 0.7444 0.6505
vn -0.1250 -0.9801 -0.1543
vn 0.9884 0.1509 0.0155
vn 0.9588 -0.2122 -0.1889
vn 0.9895 -0.0502 0.1358
vn 0.9426 0.2458 -0.2259
vn 0.6167 -0.1373 0.7751
vn 0.5505 0.5945 -0.5862
vn 0.9884 -0.0419 0.1459
vn 0.3034 0.6409 -0.7051
vn -0.9667 -0.0615 0.2484
vn -0.3730 -0.3122 -0.8737
vn -0.3070 -0.0183 0.9515
vn 0.9913 -0.0152 0.1308
vn 0.0861 0.0121 -0.9962
vn -0.5190 0.0028 -0.8548
vn -0.9578 -0.2574 -0.1281
vn -0.1013 -0.3230 0.9409
vn -0.3041 0.0702 -0.9501
vn -0.9325 -0.0470 0.3580
vn 0.9984 0.0317 -0.0465
vn -0.9862 -0.0104 -0.1650
vn 0.5130 -0.0012 0.8584
vn 0.1488 -0.3017 -0.9417
vn 0.9680 -0.0696 -0.2410
vn -0.9842 -0.1307 -0.1194
vn -0.0055 -0.9979 -0.0645
vn 0.0459 -0.9953 -0.0852
vn 0.0307 -0.9887 -0.1469
vn -0.0030 -0.9913 -0.1320
vn -0.9960 -0.0339 0.0821
vn 0.9524 0.0330 0.3031
vn 0.1117 0.0842 -0.9902
vn 0.9526 0.0471 -0.3005
vn 0.9506 0.1576 -0.2673
vn 0.1201 0.1151 -0.9861
vn 0.3821 0.0454 0.9230
vn -0.9495 0.2275 0.2161
vn -0.9815 0.1433 -0.1273
vn 0.9659 0.2429 0.0898
vn -0.2145 0.0031 0.9767
vn -0.3201 0.1284 -0.9386
vn -0.2306 0.0421 0.9721
vn 0.4107 0.0782 0.9084
vn -0.1701 0.6943 0.6993
vn 0.0568 -0.9970 -0.0521
vn 0.2585 0.6818 0.6844
vn -0.0059 -0.9992 -0.0406
vn -0.3354 -0.2185 -0.9164
vn -0.2849 -0.3796 0.8802
vn 0.9889 -0.0799 0.1250
vn -0.9838 -0.0943 -0.1522
vn -0.9640 -0.1201 0.2374
vn 0.4919 -0.3513 0.7966
vn 0.1357 -0.2104 -0.9681
vn 0.9604 -0.0617 -0.2717
vn 0.3729 -0.2518 -0.8931
vn 0.3253 -0.9352 -0.1399
vn 0.3541 -0.0350 -0.9346
vn 0.2397 0.2076 -0.9484
vn 0.2887 -0.6325 -0.7188
vn 0.4640 -0.2889 -0.8374
vn 0.9608 0.2499 -0.1200
vn 0.9136 0.4056 0.0281
vn 0.9964 0.0432 -0.0736
vn 0.8956 0.4261 0.1274
vn -0.5791 0.8147 -0.0309
vn 0.7725 0.4973 -0.3948
vn 0.8215 -0.5516 0.1444
vn 0.5336 0.8082 -0.2490
vn -0.2081 0.9776 -0.0328
vn 0.9118 0.1990 -0.3593
vn 0.9407 -0.3217 -0.1080
vn 0.2618 -0.2018 -0.9438
vn -0.0460 0.2663 0.9628
vn 0.0343 0.2737 0.9612
vn -0.0251 0.2849 0.9582
vn 0.0171 0.2500 0.9681
vn 0.0132 0.2949 0.9554
vn 0.0447 0.2393 0.9699
vn -0.0120 0.2324 0.9725
vn 0.0683 0.2786 0.9580
vn 0.0045 0.2871 0.9579
vn 0.0385 0.2924 0.9555
vn 0.1857 -0.1278 0.9742
vn -0.0220 0.3071 0.9514
vn 0.2989 -0.0570 0.9526
vn -0.3914 0.5674 0.7245
vn -0.3964 0.3953 0.8286
vn -0.1455 -0.0279 0.9890
vn 0.7170 0.4841 0.5015
vn -0.2053 0.0258 0.9784
vn -0.5028 0.4900 0.7121
vn 0.0213 -0.1012 0.9946
vn 0.3337 0.9287 0.1617
vn 0.5388 0.0028 0.8424
vn 0.5330 -0.0647 0.8436
vn -0.0131 0.4989 0.8666
vn 0.0250 -0.3657 0.9304
vn -0.0211 0.9973 -0.0697
vn 0.7628 0.2878 0.5791
vn 0.8612 -0.3604 0.3584
vn -0.4181 0.4514 -0.7883
vn -0.9508 -0.3042 0.0593
vn -0.9895 0.0235 -0.1426
vn -0.9873 0.1330 0.0864
vn -0.9296 -0.1611 0.3314
vn -0.8990 -0.1044 0.4252
vn -0.4314 -0.4572 0.7778
vn -0.2208 -0.9327 0.2853
vn -0.2282 -0.6802 0.6966
vn -0.1439 0.6965 -0.7029
vn -0.2568 0.7870 -0.5610
vn -0.3415 0.5003 -0.7957
vn 0.0502 -0.3546 -0.9337
vn -0.0094 -0.9999 -0.0065
vn -0.7001 0.4651 0.5419
vn -0.0355 -0.1934 -0.9805
vn 0.3808 -0.3624 -0.8507
vn -0.0400 0.0761 -0.9963
vn -0.1721 -0.9819 -0.0785
vn -0.8704 0.3888 -0.3020
vn -0.9457 -0.2181 -0.2411
vn -0.2647 0.6501 -0.7123
vn -0.9938 0.0982 0.0512
vn -0.5270 -0.8322 -0.1725
vn -0.2337 0.6945 -0.6805
vn -0.1518 0.5338 -0.8318
vn 0.7748 0.0550 -0.6298
vn -0.6989 -0.3875 -0.6012
vn -0.2847 0.7390 -0.6106
vn 0.9873 -0.0805 0.1369
vn -0.8307 -0.1860 -0.5247
vn -0.0670 0.5253 -0.8483
vn -0.7939 0.1627 0.5859
vn 0.1781 0.0784 0.9809
vn -0.1707 -0.5569 0.8129
vn 0.0070 -0.9644 0.2643
vn -0.1831 -0.6561 0.7321
vn -0.3579 -0.2749 0.8924
vn -0.8189 0.0620 -0.5706
vn -0.3959 0.6244 -0.6734
vn -0.8142 -0.0835 0.5746
vn -0.1086 -0.2682 0.9572
vn -0.4052 0.7836 -0.4710
vn -0.2944 0.5906 -0.7514
vn -0.0967 0.5493 -0.8300
vn -0.9122 0.3143 0.2627
vn -0.5734 -0.1693 0.8016
vn -0.9404 -0.1157 -0.3198
vn 0.0606 -0.6465 -0.7605
vn -0.9942 0.1005 -0.0395
vn -0.9203 -0.1350 -0.3671
vn -0.2605 0.7517 -0.6059
vn -0.2908 -0.8731 0.3913
vn -0.9887 0.1383 0.0583
vn -0.4347 0.5954 -0.6757
vn -0.3690 0.6989 -0.6126
vn -0.9828 0.1765 -0.0540
vn -0.3572 0.4457 -0.8208
vn -0.0827 0.9954 -0.0491
vn -0.1877 -0.9465 0.2625
vn -0.9734 -0.2045 0.1037
vn -0.4201 0.7737 -0.4742
vn -0.1543 0.9117 -0.3808
vn 0.0277 0.9127 0.4077
vn -0.1715 -0.6951 0.6982
vn -0.8344 -0.0297 0.5504
vn -0.2219 -0.9327 0.2843
vn -0.0216 0.0162 0.9996
vn -0.2030 -0.9691 0.1399
vn -0.9357 -0.3044 -0.1783
vn 0.0303 -0.3060 0.9515
vn -0.8728 -0.3435 0.3467
vn -0.3406 -0.8716 0.3527
vn -0.0639 -0.3295 0.9420
vn -0.5134 0.5856 -0.6273
vn -0.4729 0.6576 -0.5865
vn -0.7393 0.3802 0.5558
vn -0.4278 0.9032 0.0340
vn -0.1590 -0.9603 0.2293
vn -0.1873 -0.6671 0.7210
vn -0.8763 0.2158 0.4307
vn -0.3725 0.8516 -0.3688
vn -0.3576 0.8149 0.4561
vn -0.1320 -0.9582 0.2537
vn -0.3991 0.8398 0.3681
vn -0.1709 -0.9728 0.1565
vn -0.5213 0.3914 0.7584
vn -0.1589 -0.9665 0.2018
vn -0.3960 -0.6661 0.6320
vn 0.3183 0.1314 0.9388
vn 0.0256 0.9398 0.3407
vn -0.1920 -0.9689 0.1561
vn -0.9737 -0.1927 0.1211
vn -0.0218 -0.1038 0.9944
vn -0.0357 0.9689 0.2450
vn -0.6179 0.3456 0.7062
vn -0.1554 -0.9707 0.1835
vn 0.1504 0.4873 0.8602
vn -0.4409 0.8821 0.1659
vn -0.3171 0.3967 0.8615
vn -0.0534 -0.8881 0.4565
vn -0.3347 -0.7402 0.5832
vn -0.7752 -0.0678 0.6281
vn -0.3871 0.8066 0.4467
vn -0.1599 -0.9724 0.1697
vn -0.8383 0.3116 0.4473
vn 0.0338 0.8918 0.4511
vn -0.2342 -0.9523 0.1958
vn -0.8777 -0.1983 0.4362
vn -0.8347 -0.5050 -0.2198
vn -0.9955 0.0642 -0.0703
vn -0.9635 -0.1305 -0.2338
vn -0.9802 0.1979 -0.0026
vn -0.9678 -0.1881 -0.1674
vn -0.9804 0.0578 0.1883
vn -0.6516 0.5820 0.4865
vn -0.9147 0.4039 -0.0174
vn 0.3320 -0.1277 0.9346
vn -0.3842 0.4618 0.7994
vn 0.2224 -0.2732 -0.9359
vn -0.9357 -0.2398 0.2589
vn 0.9960 0.0826 0.0350
vn 0.9773 0.0929 0.1902
vn -0.9586 -0.1245 -0.2560
vn -0.4178 -0.3838 0.8235
vn -0.9170 -0.2970 0.2663
vn 0.7852 -0.0960 0.6118
vn 0.2728 -0.0833 -0.9585
vn 0.9989 -0.0461 0.0096
vn -0.9352 -0.2912 0.2016
vn 0.9689 0.2454 0.0316
vn 0.9671 0.1629 0.1955
vn -0.9495 -0.1364 -0.2827
vn -0.3195 -0.4891 0.8116
vn -0.7647 0.0911 -0.6380
vn 0.7962 -0.0661 0.6014
vn 0.1308 -0.3432 0.9301
vn 0.6726 -0.1547 -0.7237
vn -0.7644 -0.1898 -0.6162
vn 0.1210 0.1804 -0.9761
vn -0.9883 -0.0799 -0.1298
vn 0.9688 0.2454 0.0338
vn 0.9484 0.2182 0.2301
vn -0.9576 -0.1063 -0.2679
vn -0.9952 -0.0958 0.0175
vn 0.0877 0.3327 -0.9389
vn 0.7428 -0.1425 0.6542
vn 0.1170 -0.4522 0.8842
vn 0.5748 0.3893 -0.7197
vn 0.2128 -0.9646 -0.1561
vn 0.1974 -0.9717 -0.1298
vn 0.2049 -0.9718 -0.1162
vn 0.2091 -0.9647 -0.1603
vn 0.2127 -0.9681 -0.1321
vn 0.2014 -0.9726 -0.1163
vn 0.8119 0.2184 0.5414
vn 0.8993 0.2663 0.3469
vn 0.5643 0.2536 -0.7856
vn -0.7527 -0.0303 -0.6577
vn -0.7651 -0.0068 -0.6439
vn 0.5703 0.2538 -0.7812
vn 0.0135 0.0229 0.9996
vn 0.7271 0.1910 0.6594
vn -0.4092 -0.0241 0.9121
vn -0.9615 -0.0567 -0.2689
vn 0.9407 0.2577 0.2208
vn 0.9576 0.2850 0.0417
vn -0.9991 -0.0390 -0.0175
vn 0.1242 0.1660 -0.9783
vn -0.3797 -0.1540 0.9122
vn 0.0297 -0.0799 0.9964
vn -0.3724 0.6809 0.6306
vn 0.2103 -0.9619 -0.1746
vn -0.1526 0.7273 0.6692
vn 0.2143 -0.9609 -0.1752
vn -0.9944 0.0246 -0.1023
vn -0.8951 -0.3298 -0.2999
vn -0.9847 -0.1732 0.0168
vn -0.9402 0.1218 -0.3182
vn -0.7047 -0.2364 0.6689
vn -0.5536 0.5246 -0.6468
vn -0.9857 -0.1665 0.0251
vn -0.3154 0.6080 -0.7286
vn 0.9294 0.0582 0.3645
vn 0.5125 -0.2564 -0.8195
vn 0.1890 0.0130 0.9819
vn -0.9901 -0.1402 0.0095
vn 0.0347 0.0088 -0.9994
vn 0.6205 0.0769 -0.7804
vn 0.9918 -0.1269 -0.0150
vn 0.0259 -0.3150 0.9487
vn 0.4060 0.1150 -0.9066
vn 0.8806 0.0674 0.4690
vn -0.9814 -0.0933 -0.1677
vn 0.9925 0.1145 -0.0439
vn -0.6092 -0.0721 0.7897
vn 0.0056 -0.3107 -0.9505
vn -0.9152 -0.1884 -0.3563
vn 1.0000 -0.0055 0.0020
vn 0.1383 -0.9888 -0.0557
vn 0.0899 -0.9925 -0.0825
vn 0.1114 -0.9836 -0.1420
vn 0.1432 -0.9820 -0.1230
vn 0.9750 0.0905 0.2027
vn -0.9787 -0.0889 0.1850
vn -0.0003 0.0771 -0.9970
vn -0.9074 -0.0703 -0.4143
vn -0.9233 0.0394 -0.3820
vn -0.0129 0.1067 -0.9942
vn -0.4940 -0.0099 0.8694
vn 0.8802 0.3430 0.3280
vn 0.9639 0.2661 -0.0082
vn -0.9924 0.1193 -0.0300
vn 0.0922 0.0225 0.9955
vn 0.4131 0.1747 -0.8938
vn 0.1038 0.0632 0.9926
vn -0.5245 0.0192 0.8512
vn -0.0044 0.7048 0.7094
vn 0.0753 -0.9959 -0.0510
vn -0.4231 0.6387 0.6426
vn 0.1359 -0.9902 -0.0320
vn 0.4689 -0.1677 -0.8672
vn 0.2212 -0.3477 0.9111
vn -0.9789 -0.2041 0.0046
vn 0.9990 0.0309 -0.0309
vn 0.9354 -0.0002 0.3536
vn -0.5371 -0.4163 0.7337
vn 0.0103 -0.2184 -0.9758
vn -0.9049 -0.1795 -0.3859
vn -0.3752 -0.2848 -0.8821
vn -0.3280 -0.9399 -0.0951
vn -0.3474 -0.0371 -0.9370
vn -0.2375 0.2114 -0.9481
vn -0.2494 -0.6758 -0.6936
vn -0.5160 -0.3326 -0.7894
vn -0.9602 0.2675 -0.0803
vn -0.9108 0.4096 0.0521
vn -0.9968 0.0586 -0.0544
vn -0.8857 0.4416 0.1435
vn 0.5831 0.8098 -0.0650
vn -0.7747 0.5042 -0.3816
vn -0.8198 -0.5476 0.1673
vn -0.5285 0.8135 -0.2428
vn 0.2215 0.9741 -0.0462
vn -0.9162 0.2080 -0.3425
vn -0.9448 -0.3150 -0.0897
vn -0.2894 -0.1985 -0.9364
vn 0.0710 0.2666 0.9612
vn -0.0069 0.2725 0.9621
vn 0.0527 0.2833 0.9576
vn 0.0099 0.2491 0.9684
vn 0.0136 0.2946 0.9555
vn -0.0176 0.2383 0.9710
vn 0.0390 0.2312 0.9721
vn -0.0416 0.2803 0.9590
vn 0.0225 0.2875 0.9575
vn -0.0123 0.2916 0.9565
vn -0.1593 -0.1269 0.9790
vn 0.0484 0.3084 0.9500
vn -0.2766 -0.0554 0.9594
vn 0.4133 0.5680 0.7117
vn 0.4197 0.3927 0.8183
vn 0.1687 -0.0322 0.9851
vn -0.7045 0.4952 0.5083
vn 0.2304 0.0219 0.9729
vn 0.5226 0.4908 0.6971
vn 0.0004 -0.1031 0.9947
vn -0.3048 0.9374 0.1685
vn -0.5203 0.0172 0.8538
vn -0.5164 -0.0505 0.8549
vn 0.0452 0.4981 0.8660
vn -0.0150 -0.3651 0.9308
vn 0.0467 0.9964 -0.0704
vn -0.7421 0.3083 0.5952
vn 0.8946 -0.3466 0.2822
vn 0.9984 0.0167 0.0532
vn 0.7249 -0.6392 0.2569
vn 0.0929 -0.8630 -0.4965
vn 0.0243 -0.6549 -0.7553
vn 0.9415 0.3333 0.0505
vn 0.6973 0.1347 0.7040
vn 0.3481 -0.4024 0.8467
vn -0.6200 -0.4516 -0.6416
vn -0.4331 -0.2097 -0.8766
vn 0.8021 0.3731 0.4663
vn 0.6067 0.1317 0.7840
vn -0.3993 -0.7317 0.5524
vn -0.6403 -0.3100 -0.7027
vn -0.3682 -0.0415 -0.9288
vn 0.4621 0.5612 0.6867
vn 0.2575 0.3458 0.9023
vn -0.9984 -0.0167 -0.0532
vn -0.7669 0.0151 -0.6416
vn -0.4441 0.6988 -0.5607
vn -0.7249 0.6391 -0.2569
vn -0.6824 0.4475 -0.5780
vn -0.6998 0.1496 -0.6985
vn -0.8946 0.3466 -0.2822
vn -0.8598 0.0718 -0.5056
vn -0.8856 -0.0592 -0.4606
vn -0.7099 0.5580 0.4297
vn -0.7703 0.3218 0.5505
vn -0.1599 0.2803 0.9465
vn -0.0243 0.6549 0.7553
vn 0.2688 0.4716 0.8398
vn 0.4318 0.4398 0.7875
vn -0.0929 0.8630 0.4965
vn 0.2702 0.7849 0.5576
vn 0.2352 0.9395 0.2492
vn -0.3481 0.4025 -0.8467
vn -0.4707 0.0890 -0.8778
vn -0.5932 0.0218 -0.8047
vn -0.6973 -0.1347 -0.7040
vn -0.7079 -0.2236 -0.6700
vn -0.7860 -0.2222 -0.5769
vn -0.9415 -0.3333 -0.0505
vn -0.6261 -0.4273 0.6522
vn -0.0621 -0.0218 0.9978
vn 0.4331 0.2097 0.8766
vn 0.5375 0.2175 0.8147
vn 0.5469 0.3061 0.7793
vn 0.6200 0.4516 0.6416
vn 0.6959 0.5023 0.5132
vn 0.6060 0.7404 0.2908
vn -0.6067 -0.1317 -0.7840
vn -0.5375 -0.2175 -0.8147
vn -0.5469 -0.3061 -0.7793
vn -0.8021 -0.3731 -0.4663
vn -0.6959 -0.5023 -0.5131
vn -0.6060 -0.7404 -0.2908
vn 0.3682 0.0415 0.9288
vn 0.4707 -0.0891 0.8778
vn 0.5932 -0.0218 0.8047
vn 0.6404 0.3100 0.7027
vn 0.7079 0.2236 0.6700
vn 0.7860 0.2222 0.5769
vn 0.3993 0.7318 -0.5524
vn 0.6261 0.4273 -0.6522
vn 0.0621 0.0218 -0.9978
vn -0.2576 -0.3458 -0.9023
vn -0.2688 -0.4716 -0.8398
vn -0.4319 -0.4398 -0.7875
vn -0.4621 -0.5612 -0.6867
vn -0.2702 -0.7849 -0.5576
vn -0.2352 -0.9395 -0.2492
vn 0.4441 -0.6988 0.5607
vn 0.6824 -0.4475 0.5781
vn 0.6998 -0.1496 0.6985
vn 0.1599 -0.2803 -0.9465
vn 0.7703 -0.3218 -0.5505
vn 0.7099 -0.5580 -0.4297
vn 0.7669 -0.0152 0.6416
vn 0.8598 -0.0718 0.5056
vn 0.8856 0.0592 0.4606
vn -0.8974 -0.3223 0.3014
vn -0.9963 0.0438 0.0746
vn -0.7363 -0.6193 0.2726
vn -0.1269 -0.8601 -0.4942
vn -0.0582 -0.6538 -0.7545
vn -0.9308 0.3587 0.0706
vn -0.6781 0.1533 0.7188
vn -0.3407 -0.3931 0.8541
vn 0.5936 -0.4681 -0.6546
vn 0.4084 -0.2211 -0.8856
vn -0.7815 0.3946 0.4833
vn -0.5859 0.1479 0.7967
vn 0.3910 -0.7425 0.5439
vn 0.6165 -0.3271 -0.7162
vn 0.3469 -0.0512 -0.9365
vn -0.4319 0.5733 0.6963
vn -0.2287 0.3524 0.9075
vn 0.9963 -0.0438 -0.0746
vn 0.7531 -0.0055 -0.6579
vn 0.4508 0.6867 -0.5702
vn 0.7363 0.6193 -0.2726
vn 0.6817 0.4290 -0.5926
vn 0.6885 0.1307 -0.7134
vn 0.8974 0.3223 -0.3014
vn 0.8504 0.0486 -0.5240
vn 0.8736 -0.0831 -0.4795
vn 0.7339 0.5383 0.4142
vn 0.7904 0.3006 0.5338
vn 0.1877 0.2756 0.9428
vn 0.0583 0.6538 0.7544
vn -0.2379 0.4785 0.8453
vn -0.4028 0.4511 0.7964
vn 0.1269 0.8601 0.4942
vn -0.2367 0.7918 0.5630
vn -0.2041 0.9455 0.2538
vn 0.3407 0.3931 -0.8541
vn 0.4541 0.0765 -0.8877
vn 0.5762 0.0059 -0.8173
vn 0.6781 -0.1534 -0.7188
vn 0.6871 -0.2426 -0.6849
vn 0.7672 -0.2433 -0.5935
vn 0.9308 -0.3587 -0.0706
vn 0.6281 -0.4444 0.6387
vn 0.0828 -0.0238 0.9963
vn -0.4084 0.2211 0.8856
vn -0.5138 0.2318 0.8260
vn -0.5215 0.3206 0.7907
vn -0.5936 0.4681 0.6546
vn -0.6709 0.5209 0.5278
vn -0.5793 0.7565 0.3034
vn 0.5859 -0.1479 -0.7967
vn 0.5138 -0.2318 -0.8260
vn 0.5215 -0.3206 -0.7907
vn 0.7815 -0.3946 -0.4833
vn 0.6709 -0.5209 -0.5278
vn 0.5793 -0.7565 -0.3034
vn -0.3469 0.0512 0.9365
vn -0.4541 -0.0765 0.8877
vn -0.5762 -0.0059 0.8173
vn -0.6165 0.3271 0.7162
vn -0.6871 0.2426 0.6849
vn -0.7672 0.2433 0.5935
vn -0.3910 0.7425 -0.5439
vn -0.6281 0.4444 -0.6387
vn -0.0829 0.0238 -0.9963
vn 0.2287 -0.3524 -0.9075
vn 0.2379 -0.4785 -0.8453
vn 0.4028 -0.4511 -0.7964
vn 0.4319 -0.5733 -0.6963
vn 0.2367 -0.7918 -0.5630
vn 0.2041 -0.9455 -0.2538
vn -0.4508 -0.6867 0.5703
vn -0.6817 -0.4290 0.5927
vn -0.6885 -0.1307 0.7134
vn -0.1877 -0.2756 -0.9428
vn -0.7904 -0.3006 -0.5338
vn -0.7339 -0.5383 -0.4142
vn -0.7531 0.0055 0.6579
vn -0.8504 -0.0486 0.5240
vn -0.8736 0.0831 0.4795
vt 0.833374 0.494548
vt 0.893919 0.512741
vt 0.908415 0.468160
vt 0.848637 0.467455
vt 0.567859 0.867914
vt 0.639317 0.828812
vt 0.620915 0.894044
vt 0.556155 0.927906
vt 0.812683 0.509803
vt 0.774909 0.642712
vt 0.751394 0.643294
vt 0.751725 0.493743
vt 0.828812 0.793372
vt 0.751727 0.811870
vt 0.672932 0.807420
vt 0.672336 0.642732
vt 0.672998 0.503429
vt 0.598676 0.643182
vt 0.594201 0.530171
vt 0.560191 0.672195
vt 0.619753 0.672998
vt 0.599703 0.594201
vt 0.569702 0.558226
vt 0.580250 0.833374
vt 0.635423 0.812683
vt 0.637090 0.751725
vt 0.569078 0.759035
vt 0.500000 0.859251
vt 0.500000 0.750726
vt 0.569078 0.758996
vt 0.500000 0.657595
vt 0.560191 0.671923
vt 0.604420 0.951058
vt 0.545714 0.976119
vt 0.604420 0.548422
vt 0.626365 0.643481
vt 0.688416 0.643970
vt 0.666902 0.547256
vt 0.500000 0.917421
vt 0.563590 0.893919
vt 0.639317 0.793372
vt 0.659328 0.642712
vt 0.676970 0.643370
vt 0.671449 0.761101
vt 0.555994 0.632181
vt 0.545714 0.747180
vt 0.604420 0.735145
vt 0.572975 0.538591
vt 0.666902 0.715601
vt 0.500000 0.969030
vt 0.572975 0.947229
vt 0.501290 0.830086
vt 0.457158 0.830118
vt 0.460328 0.806630
vt 0.500288 0.803578
vt 0.499838 0.512886
vt 0.460007 0.507514
vt 0.481582 0.413128
vt 0.510774 0.417065
vt 0.500000 0.559830
vt 0.556447 0.575135
vt 0.579931 0.796381
vt 0.599703 0.530171
vt 0.637090 0.643182
vt 0.659115 0.643738
vt 0.643940 0.535244
vt 0.564556 0.492909
vt 0.500000 0.477524
vt 0.500000 0.432743
vt 0.566016 0.447361
vt 0.569702 0.518348
vt 0.616981 0.429733
vt 0.594994 0.421068
vt 0.612448 0.796381
vt 0.637526 0.771615
vt 0.500000 0.371229
vt 0.561082 0.382998
vt 0.450625 0.491920
vt 0.495971 0.498202
vt 0.507939 0.406303
vt 0.474705 0.401699
vt 0.591615 0.535244
vt 0.575831 0.433451
vt 0.407144 0.499901
vt 0.406490 0.640437
vt 0.358675 0.605643
vt 0.363238 0.556600
vt 0.578790 0.420824
vt 0.621227 0.407144
vt 0.601979 0.363238
vt 0.551080 0.357545
vt 0.500000 0.657756
vt 0.500000 0.571782
vt 0.667216 0.508652
vt 0.621227 0.499901
vt 0.632756 0.407548
vt 0.666461 0.413961
vt 0.556577 0.771615
vt 0.637090 0.751727
vt 0.260484 0.580516
vt 0.278839 0.520364
vt 0.582070 0.278839
vt 0.540875 0.268345
vt 0.619753 0.672932
vt 0.500000 0.307117
vt 0.551080 0.314473
vt 0.500000 0.983839
vt 0.393435 0.816867
vt 0.325561 0.763148
vt 0.671449 0.517077
vt 0.635423 0.509803
vt 0.642381 0.470278
vt 0.671266 0.470798
vt 0.988807 0.740196
vt 1.002924 0.661469
vt 1.015365 0.669173
vt 1.001496 0.721513
vt 0.500000 0.531683
vt 0.500000 0.631036
vt 0.249130 0.712570
vt 0.191059 0.679456
vt 0.198981 0.567653
vt 0.945839 0.547256
vt 0.886123 0.529161
vt 0.904522 0.470747
vt 0.963512 0.471464
vt 0.500000 0.238897
vt 0.540875 0.239236
vt 0.564556 0.495971
vt 0.612448 0.579931
vt 0.628268 0.501290
vt 0.631115 0.457158
vt 0.168698 0.648799
vt 0.177283 0.553376
vt 0.539817 0.181283
vt 0.500000 0.184290
vt 0.500000 0.144817
vt 0.539817 0.140934
vt 0.580006 0.205473
vt 0.539817 0.196322
vt 0.205473 0.476864
vt 0.621491 0.393435
vt 0.538703 0.608225
vt 0.500000 0.615960
vt 0.500000 0.567098
vt 0.526605 0.560962
vt 0.566016 0.450625
vt 0.149293 0.452102
vt 0.133162 0.541160
vt 0.103583 0.505809
vt 0.123733 0.441345
vt 0.539531 0.141037
vt 0.579447 0.149293
vt 0.562090 0.123733
vt 0.530633 0.116366
vt 0.500000 0.385014
vt 0.500000 0.353218
vt 0.586057 0.174337
vt 0.542919 0.165879
vt 0.174337 0.464471
vt 0.086614 0.427976
vt 0.065909 0.448336
vt 0.053210 0.428901
vt 0.071388 0.423606
vt 0.515797 0.085531
vt 0.531484 0.086614
vt 0.523242 0.071388
vt 0.510720 0.071544
vt 0.500000 0.266808
vt 0.601979 0.325561
vt 0.582070 0.249130
vt 0.108290 0.599988
vt 0.073849 0.556649
vt 0.580006 0.679456
vt 0.539817 0.690304
vt 0.539817 0.657159
vt 0.579599 0.648799
vt 0.500000 0.199929
vt 0.513331 0.045311
vt 0.500000 0.046647
vt 0.500000 0.069896
vt 0.051602 0.475706
vt 0.038205 0.462176
vt 0.038356 0.442272
vt 0.580006 0.191059
vt 0.577833 0.599988
vt 0.554232 0.556649
vt 0.500000 0.147087
vt 0.500000 0.124516
vt 0.530339 0.475706
vt 0.515210 0.477146
vt 0.513246 0.460736
vt 0.522445 0.462176
vt 0.500000 0.170521
vt 0.515546 0.457928
vt 0.507613 0.457080
vt 0.506877 0.445401
vt 0.514439 0.446199
vt 0.500000 0.089031
vt 0.528336 0.053210
vt 0.620841 0.601238
vt 0.618568 0.607555
vt 0.613078 0.604170
vt 0.614718 0.599612
vt 0.500000 0.479371
vt 0.500000 0.460095
vt 0.513331 0.424258
vt 0.512541 0.440917
vt 0.500000 0.440864
vt 0.500000 0.422187
vt 0.500000 0.664242
vt 0.576432 0.505809
vt 0.539481 0.507406
vt 0.547321 0.467354
vt 0.500000 0.513551
vt 0.519044 0.508271
vt 0.579599 0.168698
vt 0.538703 0.096221
vt 0.577833 0.108290
vt 0.520322 0.097153
vt 0.500000 0.106427
vt 0.541975 0.104341
vt 0.078394 0.467354
vt 0.104341 0.437145
vt 0.073220 0.507406
vt 0.590300 0.643738
vt 0.499630 0.641384
vt 0.459655 0.640419
vt 0.417546 0.774144
vt 0.414448 0.641253
vt 0.423095 0.508652
vt 0.621491 0.816867
vt 0.648114 0.640437
vt 0.669097 0.641253
vt 0.644267 0.774144
vt 0.578790 0.496630
vt 0.601625 0.405151
vt 0.649402 0.433451
vt 0.651726 0.367843
vt 0.620780 0.366797
vt 0.454529 0.413961
vt 0.467814 0.368189
vt 0.488225 0.366596
vt 0.561691 0.421068
vt 0.537425 0.365401
vt 0.507200 0.363509
vt 0.481273 0.364028
vt 0.510983 0.366114
vt 0.635806 0.367147
vt 0.669092 0.368189
vt 0.420824 0.496630
vt 0.452865 0.405151
vt 0.558226 0.518348
vt 0.484328 0.324872
vt 0.502799 0.322553
vt 0.547406 0.321655
vt 0.519920 0.320969
vt 0.496410 0.322232
vt 0.523434 0.321439
vt 0.639292 0.324944
vt 0.675657 0.324872
vt 0.550036 0.367843
vt 0.558926 0.322330
vt 0.465216 0.366023
vt 0.604868 0.366023
vt 0.599660 0.365401
vt 0.621651 0.293283
vt 0.658462 0.293469
vt 0.659368 0.261742
vt 0.621257 0.261665
vt 0.501495 0.293600
vt 0.482345 0.307625
vt 0.480362 0.262732
vt 0.500191 0.261781
vt 0.519246 0.292376
vt 0.547742 0.292993
vt 0.548078 0.261464
vt 0.518571 0.260916
vt 0.494871 0.293528
vt 0.493332 0.261956
vt 0.522889 0.292587
vt 0.522344 0.260869
vt 0.451756 0.288897
vt 0.449773 0.262732
vt 0.656778 0.322330
vt 0.622394 0.322035
vt 0.481902 0.324350
vt 0.605664 0.324350
vt 0.599057 0.321655
vt 0.595403 0.548078
vt 0.621257 0.561263
vt 0.645824 0.523009
vt 0.590945 0.518571
vt 0.639859 0.470735
vt 0.648324 0.498544
vt 0.685407 0.500191
vt 0.686261 0.480362
vt 0.592251 0.493332
vt 0.659368 0.560446
vt 0.683143 0.522344
vt 0.596433 0.477757
vt 0.479829 0.307317
vt 0.477757 0.262636
vt 0.447168 0.262636
vt 0.449241 0.288588
vt 0.596679 0.292993
vt 0.595403 0.261464
vt 0.559686 0.293469
vt 0.560446 0.261742
vt 0.603589 0.307317
vt 0.640355 0.307779
vt 0.679739 0.307625
vt 0.677932 0.288897
vt 0.639680 0.289050
vt 0.639859 0.262967
vt 0.679465 0.262732
vt 0.604354 0.288588
vt 0.603287 0.262636
vt 0.679739 0.482345
vt 0.640355 0.473048
vt 0.639680 0.442459
vt 0.677932 0.451756
vt 0.679465 0.449773
vt 0.639859 0.440146
vt 0.603589 0.479829
vt 0.604354 0.449241
vt 0.603287 0.447168
vt 0.841501 0.761101
vt 0.796910 0.643370
vt 0.906455 0.644155
vt 0.894416 0.742499
vt 0.957194 0.643970
vt 0.829265 0.517077
vt 0.940741 0.715601
vt 0.671449 0.841501
vt 0.669190 0.894416
vt 0.849398 0.470798
vt 0.666902 0.940741
vt 0.909364 0.402088
vt 0.855378 0.389954
vt 0.592313 0.470184
vt 0.617524 0.471308
vt 0.621192 0.417417
vt 0.598226 0.414426
vt 0.598146 0.467455
vt 0.603540 0.389954
vt 0.643835 0.389418
vt 0.855424 0.393127
vt 0.905341 0.403681
vt 0.667620 0.471464
vt 0.947229 0.538591
vt 0.963044 0.470184
vt 0.580250 0.494548
vt 0.595712 0.312254
vt 0.621272 0.312916
vt 0.622837 0.264476
vt 0.597277 0.263453
vt 0.852894 0.313492
vt 0.849695 0.260671
vt 0.818572 0.260902
vt 0.821566 0.286829
vt 0.893654 0.314609
vt 0.853541 0.316407
vt 0.850246 0.263617
vt 0.890422 0.263754
vt 0.896415 0.312211
vt 0.936226 0.312254
vt 0.933075 0.263453
vt 0.893263 0.261490
vt 0.670148 0.393127
vt 0.666826 0.415674
vt 0.958612 0.415674
vt 0.958434 0.414426
vt 0.649700 0.837975
vt 0.635627 0.887710
vt 0.686058 0.890422
vt 0.687133 0.850246
vt 0.592375 0.849695
vt 0.589648 0.893263
vt 0.597277 0.933075
vt 0.622837 0.940554
vt 0.673628 0.933416
vt 0.822213 0.289744
vt 0.819123 0.263848
vt 0.672063 0.313364
vt 0.673628 0.264581
vt 0.936602 0.313364
vt 0.933416 0.264581
vt 0.941647 0.364922
vt 0.899640 0.363406
vt 0.623001 0.364960
vt 0.665562 0.364922
vt 0.668659 0.362549
vt 0.644119 0.361871
vt 0.647700 0.316485
vt 0.685132 0.316407
vt 0.859879 0.359936
vt 0.902447 0.361457
vt 0.941330 0.363919
vt 0.860378 0.362549
vt 0.606538 0.359936
vt 0.590374 0.313492
vt 0.601582 0.363919
vt 0.646474 0.289822
vt 0.601626 0.286829
vt 0.603191 0.260902
vt 0.648039 0.263334
vt 0.675760 0.289744
vt 0.677325 0.263848
vt 0.647700 0.841274
vt 0.590374 0.852894
vt 0.601626 0.821566
vt 0.646474 0.809945
vt 0.648039 0.806852
vt 0.603191 0.818572
vt 0.685132 0.853541
vt 0.675760 0.822213
vt 0.677325 0.819123
vt 0.500000 0.668378
vt 0.500000 0.724779
vt 0.517225 0.721513
vt 0.520785 0.669173
vt 0.528698 1.002924
vt 0.500000 1.014901
vt 0.500000 1.025182
vt 0.520785 1.015365
vt 0.500000 0.744181
vt 0.519989 0.740196
vt 0.519989 0.988807
vt 0.500000 0.995348
vt 0.500000 0.660499
vt 0.528698 0.661469
vt 0.154177 0.616909
vt 0.166410 0.570048
vt 0.135838 0.608740
vt 0.149154 0.567675
vt 0.147623 0.572395
vt 0.137518 0.603560
vt 0.583783 0.154177
vt 0.583848 0.135838
vt 0.600568 0.131366
vt 0.597073 0.144428
vt 0.144166 0.612314
vt 0.141084 0.620214
vt 0.132632 0.614576
vt 0.134671 0.609983
vt 0.153028 0.593819
vt 0.141399 0.592146
vt 0.619182 0.132632
vt 0.614588 0.141084
vt 0.606252 0.140479
vt 0.610351 0.130579
vt 0.138199 0.601250
vt 0.148213 0.603179
vt 0.602487 0.570048
vt 0.583783 0.616909
vt 0.597073 0.624463
vt 0.606252 0.625520
vt 0.614588 0.620214
vt 0.620822 0.612314
vt 0.623703 0.603179
vt 0.620639 0.593819
vt 0.604695 0.577238
vt 0.601269 0.572395
vt 0.603531 0.567675
vt 0.609313 0.614171
vt 0.615687 0.610750
vt 0.619182 0.614576
vt 0.610351 0.619358
vt 0.602434 0.613212
vt 0.600568 0.617961
vt 0.626402 0.601250
vt 0.623276 0.609983
vt 0.618527 0.594500
vt 0.623272 0.592146
vt 0.590602 0.606787
vt 0.583848 0.608740
vt 0.592903 0.603615
vt 0.603070 0.582298
vt 0.613048 0.594751
vt 0.610999 0.606475
vt 0.606401 0.608943
vt 0.601438 0.608251
vt 0.586331 0.603560
vt 0.600598 0.578805
vt 0.589822 0.601288
vt 0.148133 0.578805
vt 0.140843 0.601288
vt 0.522445 0.038205
vt 0.513246 0.032036
vt 0.507613 0.025182
vt 0.515546 0.030102
vt 0.521458 0.442272
vt 0.528336 0.428901
vt 0.500000 0.456702
vt 0.500000 0.445370
vt 0.500000 0.031689
vt 0.512541 0.032373
vt 0.506877 0.025742
vt 0.500000 0.025886
vt 0.500000 0.031337
vt 0.500000 0.025479
vt 0.030102 0.457928
vt 0.030515 0.446199
vt 0.432141 0.867914
vt 0.443845 0.927906
vt 0.379085 0.894044
vt 0.360683 0.828812
vt 0.439809 0.672195
vt 0.430298 0.558226
vt 0.400297 0.594201
vt 0.380247 0.672998
vt 0.419750 0.833374
vt 0.430922 0.759035
vt 0.362910 0.751725
vt 0.364577 0.812683
vt 0.430922 0.758996
vt 0.439809 0.671923
vt 0.454286 0.976119
vt 0.395580 0.951058
vt 0.395580 0.548422
vt 0.333098 0.547256
vt 0.311584 0.643970
vt 0.373635 0.643481
vt 0.436410 0.893919
vt 0.360683 0.793372
vt 0.328551 0.761101
vt 0.323030 0.643370
vt 0.340672 0.642712
vt 0.444006 0.632181
vt 0.395580 0.735145
vt 0.454286 0.747180
vt 0.427025 0.538591
vt 0.333098 0.715601
vt 0.427025 0.947229
vt 0.443553 0.575135
vt 0.400297 0.530171
vt 0.356060 0.535244
vt 0.340885 0.643738
vt 0.362910 0.643182
vt 0.435444 0.492909
vt 0.433984 0.447361
vt 0.430298 0.518348
vt 0.405006 0.421068
vt 0.383019 0.429733
vt 0.362474 0.771615
vt 0.387552 0.796381
vt 0.438918 0.382998
vt 0.421210 0.420824
vt 0.448920 0.357545
vt 0.398021 0.363238
vt 0.378773 0.407144
vt 0.332784 0.508652
vt 0.333539 0.413961
vt 0.367244 0.407548
vt 0.378773 0.499901
vt 0.362910 0.751727
vt 0.459125 0.268345
vt 0.417930 0.278839
vt 0.380247 0.672932
vt 0.448920 0.314473
vt 0.328551 0.517077
vt 0.328734 0.470798
vt 0.357619 0.470278
vt 0.364577 0.509803
vt 0.459125 0.239236
vt 0.435444 0.495971
vt 0.387552 0.579931
vt 0.371732 0.501290
vt 0.368885 0.457158
vt 0.460183 0.181283
vt 0.460183 0.140934
vt 0.460183 0.196322
vt 0.419994 0.205473
vt 0.378509 0.393435
vt 0.461297 0.608225
vt 0.473395 0.560962
vt 0.433984 0.450625
vt 0.460469 0.141037
vt 0.469367 0.116366
vt 0.437911 0.123733
vt 0.420553 0.149293
vt 0.457081 0.165879
vt 0.413943 0.174337
vt 0.484203 0.085531
vt 0.489280 0.071544
vt 0.476758 0.071388
vt 0.468516 0.086614
vt 0.398021 0.325561
vt 0.417930 0.249130
vt 0.419994 0.679456
vt 0.420401 0.648799
vt 0.460183 0.657159
vt 0.460183 0.690304
vt 0.486669 0.045311
vt 0.419994 0.191059
vt 0.422167 0.599988
vt 0.445768 0.556649
vt 0.469661 0.475706
vt 0.477555 0.462176
vt 0.486754 0.460736
vt 0.484790 0.477146
vt 0.484454 0.457928
vt 0.485561 0.446199
vt 0.493123 0.445401
vt 0.492387 0.457080
vt 0.471665 0.053210
vt 0.379159 0.601238
vt 0.385282 0.599612
vt 0.386922 0.604170
vt 0.381432 0.607555
vt 0.486669 0.424258
vt 0.487459 0.440917
vt 0.423568 0.505809
vt 0.452679 0.467354
vt 0.460520 0.507406
vt 0.480956 0.508271
vt 0.420401 0.168698
vt 0.422167 0.108290
vt 0.461297 0.096221
vt 0.479678 0.097153
vt 0.458025 0.104341
vt 0.378509 0.816867
vt 0.355733 0.774144
vt 0.330903 0.641253
vt 0.351886 0.640437
vt 0.398375 0.405151
vt 0.421210 0.496630
vt 0.379220 0.366797
vt 0.348274 0.367843
vt 0.350598 0.433451
vt 0.330908 0.368189
vt 0.364194 0.367147
vt 0.324343 0.324872
vt 0.360708 0.324944
vt 0.395132 0.366023
vt 0.400340 0.365401
vt 0.378349 0.293283
vt 0.378743 0.261665
vt 0.340632 0.261742
vt 0.341538 0.293469
vt 0.377606 0.322035
vt 0.343222 0.322330
vt 0.394336 0.324350
vt 0.400943 0.321655
vt 0.404597 0.548078
vt 0.409055 0.518571
vt 0.354176 0.523009
vt 0.378743 0.561263
vt 0.360141 0.470735
vt 0.313739 0.480362
vt 0.314593 0.500191
vt 0.351676 0.498544
vt 0.407749 0.493332
vt 0.316857 0.522344
vt 0.340632 0.560446
vt 0.403567 0.477757
vt 0.403321 0.292993
vt 0.404597 0.261464
vt 0.359645 0.307779
vt 0.396411 0.307317
vt 0.320262 0.307625
vt 0.322068 0.288897
vt 0.320535 0.262732
vt 0.360141 0.262967
vt 0.360320 0.289050
vt 0.396713 0.262636
vt 0.395646 0.288588
vt 0.320262 0.482345
vt 0.322068 0.451756
vt 0.360320 0.442459
vt 0.359645 0.473048
vt 0.360141 0.440146
vt 0.320535 0.449773
vt 0.395646 0.449241
vt 0.396411 0.479829
vt 0.396713 0.447168
vt 0.330810 0.894416
vt 0.328551 0.841501
vt 0.333098 0.940741
vt 0.407688 0.470184
vt 0.401774 0.414426
vt 0.378808 0.417417
vt 0.382476 0.471308
vt 0.356165 0.389418
vt 0.396460 0.389954
vt 0.401854 0.467455
vt 0.332380 0.471464
vt 0.419750 0.494548
vt 0.404289 0.312254
vt 0.402723 0.263453
vt 0.377163 0.264476
vt 0.378728 0.312916
vt 0.329852 0.393127
vt 0.333174 0.415674
vt 0.350300 0.837975
vt 0.312867 0.850246
vt 0.313942 0.890422
vt 0.364373 0.887710
vt 0.410353 0.893263
vt 0.407625 0.849695
vt 0.377163 0.940554
vt 0.402723 0.933075
vt 0.326372 0.933416
vt 0.326372 0.264581
vt 0.327937 0.313364
vt 0.376999 0.364960
vt 0.334438 0.364922
vt 0.331341 0.362549
vt 0.314868 0.316407
vt 0.352300 0.316485
vt 0.355881 0.361871
vt 0.409626 0.313492
vt 0.393462 0.359936
vt 0.398418 0.363919
vt 0.353526 0.289822
vt 0.351961 0.263334
vt 0.396809 0.260902
vt 0.398374 0.286829
vt 0.324240 0.289744
vt 0.322675 0.263848
vt 0.352300 0.841274
vt 0.353526 0.809945
vt 0.398374 0.821566
vt 0.409626 0.852894
vt 0.396809 0.818572
vt 0.351961 0.806852
vt 0.314868 0.853541
vt 0.324240 0.822213
vt 0.322675 0.819123
vt 0.479215 0.669173
vt 0.482775 0.721513
vt 0.471302 1.002924
vt 0.479215 1.015365
vt 0.480011 0.740196
vt 0.480011 0.988807
vt 0.471302 0.661469
vt 0.416217 0.154177
vt 0.402927 0.144428
vt 0.399432 0.131366
vt 0.416152 0.135838
vt 0.380819 0.132632
vt 0.389649 0.130579
vt 0.393748 0.140479
vt 0.385412 0.141084
vt 0.397513 0.570048
vt 0.379361 0.593819
vt 0.376297 0.603179
vt 0.379178 0.612314
vt 0.385412 0.620214
vt 0.393748 0.625520
vt 0.402927 0.624463
vt 0.416217 0.616909
vt 0.395305 0.577238
vt 0.396469 0.567675
vt 0.398731 0.572395
vt 0.390687 0.614171
vt 0.389649 0.619358
vt 0.380819 0.614576
vt 0.384313 0.610750
vt 0.397566 0.613212
vt 0.399432 0.617961
vt 0.376724 0.609983
vt 0.373598 0.601250
vt 0.376728 0.592146
vt 0.381473 0.594500
vt 0.409398 0.606787
vt 0.416152 0.608740
vt 0.407098 0.603615
vt 0.398562 0.608251
vt 0.393599 0.608943
vt 0.389001 0.606475
vt 0.386952 0.594751
vt 0.396930 0.582298
vt 0.413669 0.603560
vt 0.399402 0.578805
vt 0.410178 0.601288
vt 0.477555 0.038205
vt 0.484454 0.030102
vt 0.492387 0.025182
vt 0.486754 0.032036
vt 0.478542 0.442272
vt 0.471665 0.428901
vt 0.493123 0.025742
vt 0.487459 0.032373
vt 0.181819 0.000000
vt 0.227273 0.078731
vt 0.136365 0.078731
vt 0.272728 0.157461
vt 0.318182 0.078731
vt 0.363637 0.157461
vt 0.909091 0.000000
vt 0.954545 0.078731
vt 0.863636 0.078731
vt 0.727273 0.000000
vt 0.772727 0.078731
vt 0.681818 0.078731
vt 0.545455 0.000000
vt 0.590909 0.078731
vt 0.500000 0.078731
vt 0.318182 0.236191
vt 0.090910 0.157461
vt 0.181819 0.157461
vt 0.136365 0.236191
vt 0.818182 0.157461
vt 0.909091 0.157461
vt 0.863636 0.236191
vt 0.636364 0.157461
vt 0.727273 0.157461
vt 0.681818 0.236191
vt 0.454546 0.157461
vt 0.545455 0.157461
vt 0.500000 0.236191
vt 0.227273 0.236191
vt 0.045455 0.236191
vt 0.772727 0.236191
vt 0.590909 0.236191
vt 0.409092 0.236191
vt 0.181819 0.314921
vt 0.272728 0.314921
vt 0.227273 0.393651
vt 0.000000 0.314921
vt 0.090910 0.314921
vt 0.045455 0.393651
vt 0.727273 0.314921
vt 0.818182 0.314921
vt 0.772727 0.393651
vt 0.545455 0.314921
vt 0.636364 0.314921
vt 0.590909 0.393651
vt 0.363637 0.314921
vt 0.454546 0.314921
vt 0.409092 0.393651
vt 0.500000 0.393651
vt 0.454546 0.472382
vt 0.681818 0.393651
vt 0.636364 0.472382
vt 0.863636 0.393651
vt 0.818182 0.472382
vt 0.909091 0.314921
vt 0.136365 0.393651
vt 0.090910 0.472382
vt 0.318182 0.393651
vt 0.272728 0.472382
vt 0.954545 0.236191
vt 1.000000 0.157461
vt 0.409092 0.078731
vt 0.363637 0.000000
s 1
f 116/1/1 98/2/1 209/3/1 208/4/1
f 115/5/2 4/6/2 17/7/2 97/8/2
f 3/9/3 7/10/3 13/11/3 8/12/3
f 7/10/4 4/13/4 9/14/4 13/11/4
f 13/11/5 9/14/5 2/15/5 10/16/5
f 8/12/6 13/11/6 10/16/6 1/17/6
f 1/17/7 10/16/7 32/18/7 29/19/7
f 114/20/8 1/21/8 29/22/8 83/23/8
f 116/24/9 3/25/9 8/26/9 109/27/9
f 109/27/10 8/26/10 1/21/10 114/20/10
f 115/5/11 6/28/11 15/29/11 99/30/11
f 99/30/12 15/29/12 12/31/12 112/32/12
f 97/8/13 17/7/13 21/33/13 90/34/13
f 20/35/14 25/36/14 203/37/14 204/38/14
f 116/24/15 5/28/15 18/39/15 98/40/15
f 4/41/16 7/42/16 197/43/16 196/44/16
f 89/45/17 90/46/17 21/47/17 25/36/17
f 91/48/18 89/45/18 25/36/18 20/35/18
f 25/36/19 21/47/19 202/49/19 203/37/19
f 98/40/20 18/39/20 23/50/20 91/51/20
f 38/52/21 45/53/21 134/54/21 131/55/21
f 133/56/22 136/57/22 144/58/22 146/59/22
f 112/32/23 12/31/23 34/60/23 82/61/23
f 10/16/24 2/15/24 30/62/24 32/18/24
f 29/63/25 32/64/25 129/65/25 130/66/25
f 75/67/26 41/68/26 48/69/26 73/70/26
f 82/61/27 34/60/27 41/68/27 75/67/27
f 83/71/28 29/63/28 141/72/28 140/73/28
f 32/64/29 30/74/29 128/75/29 129/65/29
f 73/70/30 48/69/30 56/76/30 66/77/30
f 74/78/31 81/79/31 145/80/31 148/81/31
f 130/82/32 133/56/32 146/59/32 147/83/32
f 6/28/33 115/5/33 97/8/33 19/39/33
f 54/84/34 53/85/34 60/86/34 61/87/34
f 67/88/35 54/89/35 61/90/35 65/91/35
f 11/92/36 114/20/36 83/23/36 33/93/36
f 5/28/37 116/24/37 109/27/37 14/29/37
f 14/29/38 109/27/38 114/20/38 11/92/38
f 139/94/39 54/95/39 143/96/39 142/97/39
f 30/62/40 38/52/40 131/55/40 128/98/40
f 4/6/41 115/5/41 99/30/41 9/99/41
f 61/87/42 60/86/42 69/100/42 70/101/42
f 65/91/43 61/90/43 70/102/43 58/103/43
f 9/99/44 99/30/44 112/32/44 2/104/44
f 66/77/45 56/76/45 63/105/45 64/106/45
f 19/39/46 97/8/46 90/34/46 24/107/46
f 53/85/47 52/108/47 59/109/47 60/86/47
f 198/110/48 3/111/48 207/112/48 213/113/48
f 256/114/49 255/115/49 253/116/49 254/117/49
f 23/118/50 26/119/50 89/45/50 91/48/50
f 69/100/51 68/120/51 76/121/51 77/122/51
f 204/123/52 201/124/52 211/125/52 212/126/52
f 64/106/53 63/105/53 72/127/53 57/128/53
f 33/93/54 83/23/54 81/129/54 40/68/54
f 60/86/55 59/109/55 68/120/55 69/100/55
f 2/104/56 112/32/56 82/61/56 30/130/56
f 38/131/57 75/67/57 73/70/57 45/132/57
f 77/122/58 76/121/58 259/133/58 260/134/58
f 30/130/59 82/61/59 75/67/59 38/131/59
f 50/135/60 80/136/60 88/137/60 44/138/60
f 58/103/61 70/102/61 78/139/61 51/140/61
f 70/101/62 69/100/62 77/122/62 78/141/62
f 45/132/63 73/70/63 66/77/63 52/142/63
f 57/128/64 72/127/64 80/136/64 50/135/64
f 28/143/65 110/144/65 96/145/65 42/146/65
f 40/68/66 81/129/66 74/147/66 47/69/66
f 108/148/67 262/149/67 93/150/67 94/151/67
f 31/152/68 108/153/68 94/154/68 43/155/68
f 55/156/69 67/88/69 65/91/69 62/157/69
f 51/140/70 78/139/70 86/158/70 49/159/70
f 78/141/71 77/122/71 260/134/71 86/160/71
f 47/69/72 74/147/72 67/88/72 55/156/72
f 123/161/73 124/162/73 101/163/73 102/164/73
f 121/165/74 123/166/74 102/167/74 37/168/74
f 62/157/75 65/91/75 58/103/75 71/169/75
f 52/142/76 66/77/76 64/106/76 59/170/76
f 59/170/77 64/106/77 57/128/77 68/171/77
f 262/149/78 261/172/78 92/173/78 93/150/78
f 76/174/79 50/175/79 44/176/79 259/177/79
f 71/169/80 58/103/80 51/140/80 79/178/80
f 37/168/81 35/179/81 105/180/81 103/181/81
f 124/162/82 127/182/82 297/183/82 298/184/82 101/163/82
f 68/171/83 57/128/83 50/135/83 76/185/83
f 261/186/84 28/143/84 42/146/84 92/187/84
f 107/188/85 31/152/85 43/155/85 95/189/85
f 127/190/86 122/191/86 295/192/86 297/193/86
f 79/178/87 51/140/87 49/159/87 87/194/87
f 100/195/88 36/196/88 301/197/88 104/198/88
f 126/199/89 121/165/89 37/168/89 103/181/89
f 102/167/90 101/200/90 35/179/90 37/168/90
f 274/201/91 273/202/91 290/203/91 291/204/91
f 122/191/92 125/205/92 300/206/92 295/192/92
f 49/159/93 86/158/93 108/153/93 31/152/93
f 86/160/94 260/134/94 262/149/94 108/148/94
f 35/207/95 296/208/95 299/209/95 105/210/95
f 44/176/96 88/211/96 110/144/96 28/143/96
f 93/212/97 92/187/97 120/213/97 119/214/97
f 87/194/98 49/159/98 31/152/98 107/188/98
f 42/146/99 96/145/99 113/215/99 27/216/99
f 259/217/100 44/138/100 28/218/100 261/219/100
f 92/187/101 42/146/101 27/216/101 120/213/101
f 95/189/102 43/155/102 22/220/102 118/221/102
f 43/155/103 94/154/103 117/222/103 22/220/103
f 94/151/104 93/150/104 119/223/104 117/224/104
f 120/213/105 27/216/105 122/191/105 127/190/105
f 118/221/106 22/220/106 121/165/106 126/199/106
f 119/223/107 120/225/107 127/182/107 124/162/107
f 27/216/108 113/215/108 125/205/108 122/191/108
f 22/220/109 117/222/109 123/166/109 121/165/109
f 117/224/110 119/223/110 124/162/110 123/161/110
f 130/82/111 129/226/111 132/227/111 133/56/111
f 132/227/112 131/55/112 134/54/112 135/228/112
f 129/226/113 128/98/113 131/55/113 132/227/113
f 135/228/114 134/54/114 137/229/114 138/230/114
f 133/56/115 132/227/115 135/228/115 136/57/115
f 136/57/116 135/228/116 138/230/116 139/231/116
f 52/232/117 53/233/117 138/234/117 137/235/117
f 45/53/118 52/108/118 137/229/118 134/54/118
f 54/95/119 67/236/119 149/237/119 143/96/119
f 53/233/120 54/95/120 139/94/120 138/234/120
f 141/72/121 147/238/121 157/239/121 39/240/121
f 144/58/122 142/241/122 150/242/122 153/243/122
f 145/80/123 140/244/123 46/245/123 154/246/123
f 148/81/124 145/80/124 154/246/124 158/247/124
f 146/59/125 144/58/125 153/243/125 156/248/125
f 142/97/126 143/96/126 151/249/126 150/250/126
f 136/57/127 139/231/127 142/241/127 144/58/127
f 67/251/128 74/78/128 148/81/128 149/252/128
f 29/63/129 130/66/129 147/238/129 141/72/129
f 81/79/130 83/253/130 140/244/130 145/80/130
f 153/243/131 150/242/131 162/254/131 164/255/131
f 154/246/132 46/245/132 160/256/132 165/257/132
f 158/247/133 154/246/133 165/257/133 168/258/133
f 156/248/134 153/243/134 164/255/134 166/259/134
f 150/250/135 151/249/135 163/260/135 162/261/135
f 157/262/136 156/248/136 166/259/136 167/263/136
f 149/252/137 148/81/137 158/247/137 159/264/137
f 143/96/138 149/237/138 159/265/138 151/249/138
f 140/73/139 141/72/139 39/240/139 46/266/139
f 147/83/140 146/59/140 156/248/140 157/262/140
f 188/267/141 187/268/141 177/269/141 152/270/141
f 184/271/142 185/272/142 170/273/142 173/274/142
f 182/275/143 180/276/143 155/277/143 174/278/143
f 181/279/144 182/275/144 174/278/144 178/280/144
f 183/281/145 184/271/145 173/274/145 176/282/145
f 170/273/146 185/272/146 194/283/146 192/284/146
f 39/240/147 157/239/147 167/285/147 161/286/147
f 159/264/148 158/247/148 168/258/148 169/287/148
f 151/249/149 159/265/149 169/288/149 163/260/149
f 46/266/150 39/240/150 161/286/150 160/289/150
f 155/290/151 152/291/151 175/292/151 174/293/151
f 171/294/152 172/295/152 173/296/152 170/297/152
f 174/293/153 175/292/153 172/295/153 178/298/153
f 175/292/154 152/291/154 177/299/154 176/300/154
f 178/298/155 172/295/155 171/294/155 179/301/155
f 172/295/156 175/292/156 176/300/156 173/296/156
f 189/302/157 181/279/157 178/280/157 179/303/157
f 189/302/158 179/303/158 193/304/158 195/305/158
f 180/306/159 188/267/159 152/270/159 155/307/159
f 187/308/160 183/281/160 176/282/160 177/309/160
f 167/263/161 166/259/161 183/281/161 187/308/161
f 160/289/162 161/286/162 188/267/162 180/306/162
f 163/260/163 169/288/163 189/310/163 186/311/163
f 169/287/164 168/258/164 181/279/164 189/302/164
f 162/261/165 163/260/165 186/311/165 185/312/165
f 166/259/166 164/255/166 184/271/166 183/281/166
f 168/258/167 165/257/167 182/275/167 181/279/167
f 165/257/168 160/256/168 180/276/168 182/275/168
f 164/255/169 162/254/169 185/272/169 184/271/169
f 161/286/170 167/285/170 187/268/170 188/267/170
f 194/313/171 190/314/171 191/315/171 192/316/171
f 190/314/172 195/317/172 193/318/172 191/315/172
f 185/319/173 186/320/173 190/321/173 194/322/173
f 171/294/174 170/297/174 192/323/174 191/324/174
f 186/320/175 189/325/175 195/326/175 190/321/175
f 179/301/176 171/294/176 191/324/176 193/327/176
f 196/328/177 197/329/177 200/330/177 199/331/177
f 200/330/178 201/124/178 204/123/178 203/332/178
f 197/329/179 198/333/179 201/124/179 200/330/179
f 199/331/180 200/330/180 203/332/180 202/334/180
f 7/42/181 3/111/181 198/110/181 197/43/181
f 17/7/182 4/6/182 196/335/182 199/336/182
f 201/124/183 198/333/183 213/337/183 211/125/183
f 21/33/184 17/7/184 199/336/184 202/338/184
f 208/4/185 209/3/185 217/339/185 216/340/185
f 210/341/186 206/342/186 214/343/186 218/344/186
f 207/112/187 208/345/187 216/346/187 215/347/187
f 211/125/188 213/337/188 221/348/188 219/349/188
f 20/35/189 204/38/189 212/350/189 206/342/189
f 91/48/190 20/35/190 206/342/190 210/341/190
f 98/2/191 91/351/191 210/352/191 209/3/191
f 3/111/192 116/353/192 208/345/192 207/112/192
f 232/354/193 235/355/193 222/356/193 226/357/193
f 233/358/194 224/359/194 240/360/194 241/361/194
f 16/362/195 230/363/195 229/364/195 227/365/195
f 231/366/196 232/367/196 226/368/196 225/369/196
f 213/113/197 207/112/197 215/347/197 221/370/197
f 206/342/198 212/350/198 220/371/198 214/343/198
f 212/126/199 211/125/199 219/349/199 220/372/199
f 209/3/200 210/352/200 218/373/200 217/339/200
f 223/374/201 205/375/201 227/376/201 229/377/201
f 223/374/202 224/378/202 225/379/202 205/375/202
f 205/375/203 225/379/203 226/380/203 222/381/203
f 205/375/204 222/381/204 228/382/204 227/376/204
f 233/358/205 231/366/205 225/369/205 224/359/205
f 229/364/206 230/363/206 237/383/206 238/384/206
f 235/355/207 236/385/207 228/386/207 222/356/207
f 236/387/208 16/362/208 227/365/208 228/388/208
f 250/389/209 243/390/209 16/362/209 236/387/209
f 249/391/210 250/392/210 236/385/210 235/355/210
f 246/393/211 245/394/211 234/395/211 230/396/211
f 248/397/212 244/398/212 231/366/212 233/358/212
f 244/398/213 247/399/213 232/367/213 231/366/213
f 243/390/214 246/400/214 230/363/214 16/362/214
f 245/394/215 248/401/215 233/402/215 234/395/215
f 247/403/216 249/391/216 235/355/216 232/354/216
f 242/404/217 241/405/217 240/406/217 239/407/217
f 237/408/218 242/404/218 239/407/218 238/409/218
f 234/410/219 233/411/219 241/412/219 242/413/219
f 224/378/220 223/374/220 239/414/220 240/415/220
f 230/416/221 234/410/221 242/413/221 237/417/221
f 223/374/222 229/377/222 238/418/222 239/414/222
f 218/344/223 214/343/223 249/391/223 247/403/223
f 215/347/224 216/346/224 248/401/224 245/394/224
f 219/349/225 221/348/225 246/400/225 243/390/225
f 217/339/226 218/373/226 247/399/226 244/398/226
f 216/340/227 217/339/227 244/398/227 248/397/227
f 221/370/228 215/347/228 245/394/228 246/393/228
f 214/343/229 220/371/229 250/392/229 249/391/229
f 220/372/230 219/349/230 243/390/230 250/389/230
f 252/419/231 251/420/231 254/421/231 253/422/231
f 255/423/232 257/424/232 252/425/232 253/426/232
f 258/427/233 256/428/233 254/421/233 251/420/233
f 24/107/234 90/34/234 256/429/234 258/430/234
f 89/45/235 26/119/235 257/431/235 255/432/235
f 90/46/236 89/45/236 255/432/236 256/428/236
f 84/433/237 85/434/237 260/134/237 259/133/237
f 275/435/238 84/433/238 259/133/238 261/172/238
f 85/434/239 276/436/239 262/149/239 260/134/239
f 276/436/240 284/437/240 283/438/240 275/435/240 261/172/240 262/149/240
f 84/439/241 275/440/241 279/441/241 263/442/241
f 266/443/242 264/444/242 278/445/242 280/446/242
f 276/436/243 85/434/243 267/447/243 282/448/243
f 278/449/244 264/450/244 265/451/244 277/452/244
f 277/452/245 265/451/245 263/442/245 279/441/245
f 266/443/246 280/446/246 281/453/246 268/454/246
f 268/454/247 281/453/247 282/448/247 267/447/247
f 85/455/248 84/456/248 263/457/248 265/458/248 264/459/248 266/460/248 268/461/248 267/462/248
f 106/463/249 284/464/249 276/465/249
f 271/466/250 269/467/250 278/468/250 277/469/250
f 270/470/251 271/466/251 277/469/251 279/471/251
f 273/202/252 274/201/252 281/472/252 280/473/252
f 274/201/253 272/474/253 282/475/253 281/472/253
f 269/467/254 273/202/254 280/473/254 278/468/254
f 111/476/255 270/470/255 279/471/255 275/477/255
f 272/474/256 106/463/256 276/465/256 282/475/256
f 285/478/257 286/479/257 292/480/257 291/204/257 290/203/257 288/481/257 287/482/257 289/483/257
f 283/484/258 111/476/258 275/477/258
f 270/470/259 111/476/259 285/478/259 289/483/259
f 294/485/260 286/479/260 285/478/260 293/486/260
f 111/476/261 283/484/261 293/486/261 285/478/261
f 106/463/262 272/474/262 292/480/262 286/479/262
f 272/474/263 274/201/263 291/204/263 292/480/263
f 269/467/264 271/466/264 287/482/264 288/481/264
f 283/438/265 284/437/265 294/487/265 293/488/265
f 273/202/266 269/467/266 288/481/266 290/203/266
f 284/464/267 106/463/267 286/479/267 294/485/267
f 271/466/268 270/470/268 289/483/268 287/482/268
f 297/489/269 295/490/269 36/491/269 100/492/269
f 296/208/270 298/493/270 104/198/270 301/197/270
f 101/494/271 298/493/271 296/208/271 35/207/271
f 36/196/272 302/495/272 303/496/272 301/197/272
f 299/497/273 296/498/273 301/499/273 303/500/273
f 295/490/274 300/501/274 302/502/274 36/491/274
f 298/184/275 297/183/275 100/503/275 104/504/275
f 385/1/276 474/4/276 475/3/276 372/2/276
f 384/505/277 371/506/277 314/507/277 307/508/277
f 306/9/278 309/12/278 312/11/278 308/10/278
f 308/10/279 312/11/279 310/14/279 307/13/279
f 312/11/280 311/16/280 305/15/280 310/14/280
f 309/12/281 304/17/281 311/16/281 312/11/281
f 304/17/282 321/19/282 324/18/282 311/16/282
f 383/509/283 361/510/283 321/511/283 304/512/283
f 385/513/284 380/514/284 309/515/284 306/516/284
f 380/514/285 383/509/285 304/512/285 309/515/285
f 384/505/286 373/517/286 15/29/286 6/28/286
f 373/517/287 382/518/287 12/31/287 15/29/287
f 371/506/288 366/519/288 316/520/288 314/507/288
f 315/521/289 470/522/289 469/523/289 318/524/289
f 385/513/290 372/525/290 18/39/290 5/28/290
f 307/526/291 462/527/291 463/528/291 308/529/291
f 365/530/292 318/524/292 316/531/292 366/532/292
f 367/533/293 315/521/293 318/524/293 365/530/293
f 318/524/294 469/523/294 468/534/294 316/531/294
f 372/525/295 367/535/295 23/50/295 18/39/295
f 328/52/296 397/55/296 400/54/296 333/53/296
f 399/56/297 412/59/297 410/58/297 402/57/297
f 382/518/298 360/536/298 34/60/298 12/31/298
f 311/16/299 324/18/299 322/62/299 305/15/299
f 321/537/300 396/538/300 395/539/300 324/540/300
f 355/541/301 353/542/301 48/69/301 41/68/301
f 360/536/302 355/541/302 41/68/302 34/60/302
f 361/543/303 406/544/303 407/545/303 321/537/303
f 324/540/304 395/539/304 394/546/304 322/547/304
f 353/542/305 348/548/305 56/76/305 48/69/305
f 354/78/306 414/81/306 411/80/306 359/79/306
f 396/82/307 413/83/307 412/59/307 399/56/307
f 6/28/308 19/39/308 371/506/308 384/505/308
f 340/84/309 345/87/309 344/86/309 339/85/309
f 349/549/310 347/550/310 345/551/310 340/552/310
f 11/92/311 33/93/311 361/510/311 383/509/311
f 5/28/312 14/29/312 380/514/312 385/513/312
f 14/29/313 11/92/313 383/509/313 380/514/313
f 405/553/314 408/554/314 409/555/314 340/556/314
f 322/62/315 394/98/315 397/55/315 328/52/315
f 307/508/316 310/557/316 373/517/316 384/505/316
f 345/87/317 352/101/317 351/100/317 344/86/317
f 347/550/318 342/558/318 352/559/318 345/551/318
f 310/557/319 305/560/319 382/518/319 373/517/319
f 348/548/320 346/561/320 63/105/320 56/76/320
f 19/39/321 24/107/321 366/519/321 371/506/321
f 339/85/322 344/86/322 343/109/322 338/108/322
f 464/562/323 479/563/323 473/564/323 306/565/323
f 520/114/324 518/117/324 517/116/324 519/115/324
f 23/118/325 367/533/325 365/530/325 26/119/325
f 351/100/326 357/122/326 356/121/326 350/120/326
f 470/123/327 478/126/327 477/125/327 467/124/327
f 346/561/328 341/566/328 72/127/328 63/105/328
f 33/93/329 40/68/329 359/567/329 361/510/329
f 344/86/330 351/100/330 350/120/330 343/109/330
f 305/560/331 322/568/331 360/536/331 382/518/331
f 328/569/332 333/570/332 353/542/332 355/541/332
f 357/122/333 522/134/333 521/133/333 356/121/333
f 322/568/334 328/569/334 355/541/334 360/536/334
f 336/571/335 332/572/335 88/137/335 80/136/335
f 342/558/336 337/573/336 358/574/336 352/559/336
f 352/101/337 358/141/337 357/122/337 351/100/337
f 333/570/338 338/575/338 348/548/338 353/542/338
f 341/566/339 336/571/339 80/136/339 72/127/339
f 320/576/340 330/577/340 96/145/340 110/144/340
f 40/68/341 47/69/341 354/578/341 359/567/341
f 379/148/342 370/151/342 369/150/342 524/149/342
f 323/579/343 331/580/343 370/581/343 379/582/343
f 55/156/344 62/157/344 347/550/344 349/549/344
f 337/573/345 335/583/345 364/584/345 358/574/345
f 358/141/346 364/160/346 522/134/346 357/122/346
f 47/69/347 55/156/347 349/549/347 354/578/347
f 391/161/348 376/164/348 375/163/348 392/162/348
f 389/585/349 327/586/349 376/587/349 391/588/349
f 62/157/350 71/169/350 342/558/350 347/550/350
f 338/575/351 343/589/351 346/561/351 348/548/351
f 343/589/352 350/590/352 341/566/352 346/561/352
f 524/149/353 369/150/353 368/173/353 523/172/353
f 356/591/354 521/592/354 332/593/354 336/594/354
f 71/169/355 79/178/355 337/573/355 342/558/355
f 327/586/356 103/181/356 105/180/356 325/595/356
f 392/162/357 375/163/357 560/184/357 559/183/357 393/182/357
f 350/590/358 356/596/358 336/571/358 341/566/358
f 523/597/359 368/598/359 330/577/359 320/576/359
f 107/188/360 95/189/360 331/580/360 323/579/360
f 393/599/361 559/600/361 557/601/361 390/602/361
f 79/178/362 87/194/362 335/583/362 337/573/362
f 374/603/363 377/604/363 561/605/363 326/606/363
f 126/199/364 103/181/364 327/586/364 389/585/364
f 376/587/365 327/586/365 325/595/365 375/607/365
f 536/608/366 553/609/366 552/610/366 535/611/366
f 390/602/367 557/601/367 300/206/367 125/205/367
f 335/583/368 323/579/368 379/582/368 364/584/368
f 364/160/369 379/148/369 524/149/369 522/134/369
f 325/612/370 105/210/370 299/209/370 558/613/370
f 332/593/371 320/576/371 110/144/371 88/211/371
f 369/614/372 387/615/372 388/616/372 368/598/372
f 87/194/373 107/188/373 323/579/373 335/583/373
f 330/577/374 319/617/374 113/215/374 96/145/374
f 521/618/375 523/619/375 320/620/375 332/572/375
f 368/598/376 388/616/376 319/617/376 330/577/376
f 95/189/377 118/221/377 317/621/377 331/580/377
f 331/580/378 317/621/378 386/622/378 370/581/378
f 370/151/379 386/224/379 387/223/379 369/150/379
f 388/616/380 393/599/380 390/602/380 319/617/380
f 118/221/381 126/199/381 389/585/381 317/621/381
f 387/223/382 392/162/382 393/182/382 388/225/382
f 319/617/383 390/602/383 125/205/383 113/215/383
f 317/621/384 389/585/384 391/588/384 386/622/384
f 386/224/385 391/161/385 392/162/385 387/223/385
f 396/82/386 399/56/386 398/227/386 395/226/386
f 398/227/387 401/228/387 400/54/387 397/55/387
f 395/226/388 398/227/388 397/55/388 394/98/388
f 401/228/389 404/230/389 403/229/389 400/54/389
f 399/56/390 402/57/390 401/228/390 398/227/390
f 402/57/391 405/231/391 404/230/391 401/228/391
f 338/623/392 403/624/392 404/625/392 339/626/392
f 333/53/393 400/54/393 403/229/393 338/108/393
f 340/556/394 409/555/394 415/627/394 349/628/394
f 339/626/395 404/625/395 405/553/395 340/556/395
f 407/545/396 329/629/396 423/630/396 413/631/396
f 410/58/397 419/243/397 416/242/397 408/241/397
f 411/80/398 420/246/398 334/245/398 406/244/398
f 414/81/399 424/247/399 420/246/399 411/80/399
f 412/59/400 422/248/400 419/243/400 410/58/400
f 408/554/401 416/632/401 417/633/401 409/555/401
f 402/57/402 410/58/402 408/241/402 405/231/402
f 349/251/403 415/252/403 414/81/403 354/78/403
f 321/537/404 407/545/404 413/631/404 396/538/404
f 359/79/405 411/80/405 406/244/405 361/253/405
f 419/243/406 430/255/406 428/254/406 416/242/406
f 420/246/407 431/257/407 426/256/407 334/245/407
f 424/247/408 434/258/408 431/257/408 420/246/408
f 422/248/409 432/259/409 430/255/409 419/243/409
f 416/632/410 428/634/410 429/635/410 417/633/410
f 423/262/411 433/263/411 432/259/411 422/248/411
f 415/252/412 425/264/412 424/247/412 414/81/412
f 409/555/413 417/633/413 425/636/413 415/627/413
f 406/544/414 334/637/414 329/629/414 407/545/414
f 413/83/415 423/262/415 422/248/415 412/59/415
f 454/638/416 418/639/416 443/640/416 453/641/416
f 450/271/417 439/274/417 436/273/417 451/272/417
f 448/275/418 440/278/418 421/277/418 446/276/418
f 447/279/419 444/280/419 440/278/419 448/275/419
f 449/281/420 442/282/420 439/274/420 450/271/420
f 436/273/421 458/284/421 460/283/421 451/272/421
f 329/629/422 427/642/422 433/643/422 423/630/422
f 425/264/423 435/287/423 434/258/423 424/247/423
f 417/633/424 429/635/424 435/644/424 425/636/424
f 334/637/425 426/645/425 427/642/425 329/629/425
f 421/646/426 440/647/426 441/648/426 418/649/426
f 437/650/427 436/651/427 439/652/427 438/653/427
f 440/647/428 444/654/428 438/653/428 441/648/428
f 441/648/429 442/655/429 443/656/429 418/649/429
f 444/654/430 445/657/430 437/650/430 438/653/430
f 438/653/431 439/652/431 442/655/431 441/648/431
f 455/302/432 445/303/432 444/280/432 447/279/432
f 455/302/433 461/305/433 459/304/433 445/303/433
f 446/658/434 421/659/434 418/639/434 454/638/434
f 453/308/435 443/309/435 442/282/435 449/281/435
f 433/263/436 453/308/436 449/281/436 432/259/436
f 426/645/437 446/658/437 454/638/437 427/642/437
f 429/635/438 452/660/438 455/661/438 435/644/438
f 435/287/439 455/302/439 447/279/439 434/258/439
f 428/634/440 451/662/440 452/660/440 429/635/440
f 432/259/441 449/281/441 450/271/441 430/255/441
f 434/258/442 447/279/442 448/275/442 431/257/442
f 431/257/443 448/275/443 446/276/443 426/256/443
f 430/255/444 450/271/444 451/272/444 428/254/444
f 427/642/445 454/638/445 453/641/445 433/643/445
f 460/663/446 458/664/446 457/665/446 456/666/446
f 456/666/447 457/665/447 459/667/447 461/668/447
f 451/669/448 460/670/448 456/671/448 452/672/448
f 437/650/449 457/673/449 458/674/449 436/651/449
f 452/672/450 456/671/450 461/675/450 455/676/450
f 445/657/451 459/677/451 457/673/451 437/650/451
f 462/328/452 465/331/452 466/330/452 463/329/452
f 466/330/453 469/332/453 470/123/453 467/124/453
f 463/329/454 466/330/454 467/124/454 464/333/454
f 465/331/455 468/334/455 469/332/455 466/330/455
f 308/529/456 463/528/456 464/562/456 306/565/456
f 314/507/457 465/678/457 462/679/457 307/508/457
f 467/124/458 477/125/458 479/337/458 464/333/458
f 316/520/459 468/680/459 465/678/459 314/507/459
f 474/4/460 482/340/460 483/339/460 475/3/460
f 476/681/461 484/682/461 480/683/461 472/684/461
f 473/564/462 481/685/462 482/686/462 474/687/462
f 477/125/463 485/349/463 487/348/463 479/337/463
f 315/521/464 472/684/464 478/688/464 470/522/464
f 367/533/465 476/681/465 472/684/465 315/521/465
f 372/2/466 475/3/466 476/352/466 367/351/466
f 306/565/467 473/564/467 474/687/467 385/689/467
f 498/690/468 492/691/468 488/692/468 501/693/468
f 499/358/469 507/361/469 506/360/469 490/359/469
f 313/362/470 493/365/470 495/364/470 496/363/470
f 497/366/471 491/369/471 492/368/471 498/367/471
f 479/563/472 487/694/472 481/685/472 473/564/472
f 472/684/473 480/683/473 486/695/473 478/688/473
f 478/126/474 486/372/474 485/349/474 477/125/474
f 475/3/475 483/339/475 484/373/475 476/352/475
f 489/696/476 495/697/476 493/698/476 471/699/476
f 489/696/477 471/699/477 491/700/477 490/701/477
f 471/699/478 488/702/478 492/703/478 491/700/478
f 471/699/479 493/698/479 494/704/479 488/702/479
f 499/358/480 490/359/480 491/369/480 497/366/480
f 495/364/481 504/384/481 503/383/481 496/363/481
f 501/693/482 488/692/482 494/705/482 502/706/482
f 502/387/483 494/388/483 493/365/483 313/362/483
f 516/389/484 502/387/484 313/362/484 509/390/484
f 515/707/485 501/693/485 502/706/485 516/708/485
f 512/709/486 496/710/486 500/711/486 511/712/486
f 514/397/487 499/358/487 497/366/487 510/398/487
f 510/398/488 497/366/488 498/367/488 513/399/488
f 509/390/489 313/362/489 496/363/489 512/400/489
f 511/712/490 500/711/490 499/713/490 514/714/490
f 513/715/491 498/690/491 501/693/491 515/707/491
f 508/716/492 505/717/492 506/718/492 507/719/492
f 503/720/493 504/721/493 505/717/493 508/716/493
f 500/722/494 508/723/494 507/724/494 499/725/494
f 490/701/495 506/726/495 505/727/495 489/696/495
f 496/728/496 503/729/496 508/723/496 500/722/496
f 489/696/497 505/727/497 504/730/497 495/697/497
f 484/682/498 513/715/498 515/707/498 480/683/498
f 481/685/499 511/712/499 514/714/499 482/686/499
f 485/349/500 509/390/500 512/400/500 487/348/500
f 483/339/501 510/398/501 513/399/501 484/373/501
f 482/340/502 514/397/502 510/398/502 483/339/502
f 487/694/503 512/709/503 511/712/503 481/685/503
f 480/683/504 515/707/504 516/708/504 486/695/504
f 486/372/505 516/389/505 509/390/505 485/349/505
f 252/419/506 517/731/506 518/732/506 251/420/506
f 519/733/507 517/734/507 252/425/507 257/424/507
f 258/427/508 251/420/508 518/732/508 520/735/508
f 24/107/509 258/430/509 520/736/509 366/519/509
f 365/530/510 519/737/510 257/431/510 26/119/510
f 366/532/511 520/735/511 519/737/511 365/530/511
f 362/433/512 521/133/512 522/134/512 363/434/512
f 537/435/513 523/172/513 521/133/513 362/433/513
f 363/434/514 522/134/514 524/149/514 538/436/514
f 538/436/515 524/149/515 523/172/515 537/435/515 545/438/515 546/437/515
f 362/738/516 525/739/516 541/740/516 537/741/516
f 528/443/517 542/446/517 540/445/517 526/444/517
f 538/436/518 544/448/518 529/447/518 363/434/518
f 540/742/519 539/743/519 527/744/519 526/745/519
f 539/743/520 541/740/520 525/739/520 527/744/520
f 528/443/521 530/454/521 543/453/521 542/446/521
f 530/454/522 529/447/522 544/448/522 543/453/522
f 363/746/523 529/747/523 530/748/523 528/749/523 526/750/523 527/751/523 525/752/523 362/753/523
f 378/754/524 538/755/524 546/756/524
f 533/757/525 539/758/525 540/759/525 531/760/525
f 532/761/526 541/762/526 539/758/526 533/757/526
f 535/611/527 542/763/527 543/764/527 536/608/527
f 536/608/528 543/764/528 544/765/528 534/766/528
f 531/760/529 540/759/529 542/763/529 535/611/529
f 381/767/530 537/768/530 541/762/530 532/761/530
f 534/766/531 544/765/531 538/755/531 378/754/531
f 547/769/532 551/770/532 549/771/532 550/772/532 552/610/532 553/609/532 554/773/532 548/774/532
f 545/775/533 537/768/533 381/767/533
f 532/761/534 551/770/534 547/769/534 381/767/534
f 556/776/535 555/777/535 547/769/535 548/774/535
f 381/767/536 547/769/536 555/777/536 545/775/536
f 378/754/537 548/774/537 554/773/537 534/766/537
f 534/766/538 554/773/538 553/609/538 536/608/538
f 531/760/539 550/772/539 549/771/539 533/757/539
f 545/438/540 555/488/540 556/487/540 546/437/540
f 535/611/541 552/610/541 550/772/541 531/760/541
f 546/756/542 556/776/542 548/774/542 378/754/542
f 533/757/543 549/771/543 551/770/543 532/761/543
f 559/778/544 374/779/544 326/780/544 557/781/544
f 558/613/545 561/605/545 377/604/545 560/782/545
f 375/783/546 325/612/546 558/613/546 560/782/546
f 326/606/547 561/605/547 303/496/547 302/495/547
f 299/497/548 303/500/548 561/784/548 558/785/548
f 557/781/549 326/780/549 302/502/549 300/501/549
f 560/184/550 377/504/550 374/503/550 559/183/550
f 562/786/551 575/787/551 574/788/551
f 563/789/552 575/790/552 577/791/552
f 562/792/553 574/793/553 579/794/553
f 562/795/554 579/796/554 581/797/554
f 562/798/555 581/799/555 578/800/555
f 563/789/556 577/791/556 584/801/556
f 564/802/557 576/803/557 586/804/557
f 565/805/558 580/806/558 588/807/558
f 566/808/559 582/809/559 590/810/559
f 567/811/560 583/812/560 592/813/560
f 563/789/561 584/801/561 587/814/561
f 564/802/562 586/804/562 589/815/562
f 565/805/563 588/807/563 591/816/563
f 566/808/564 590/810/564 593/817/564
f 567/811/565 592/813/565 585/818/565
f 568/819/566 594/820/566 599/821/566
f 569/822/567 595/823/567 601/824/567
f 570/825/568 596/826/568 602/827/568
f 571/828/569 597/829/569 603/830/569
f 572/831/570 598/832/570 600/833/570
f 600/833/571 603/834/571 573/835/571
f 600/833/572 598/832/572 603/834/572
f 598/832/573 571/828/573 603/834/573
f 603/830/574 602/836/574 573/837/574
f 603/830/575 597/829/575 602/836/575
f 597/829/576 570/825/576 602/836/576
f 602/827/577 601/838/577 573/839/577
f 602/827/578 596/826/578 601/838/578
f 596/826/579 569/840/579 601/838/579
f 601/824/580 599/841/580 573/842/580
f 601/824/581 595/823/581 599/841/581
f 595/823/582 568/819/582 599/841/582
f 599/821/583 600/843/583 573/844/583
f 599/821/584 594/820/584 600/843/584
f 594/820/585 572/831/585 600/843/585
f 585/818/586 598/832/586 572/831/586
f 585/818/587 592/813/587 598/832/587
f 592/813/588 571/828/588 598/832/588
f 593/817/589 597/829/589 571/828/589
f 593/817/590 590/810/590 597/829/590
f 590/810/591 570/825/591 597/829/591
f 591/816/592 596/826/592 570/825/592
f 591/816/593 588/807/593 596/826/593
f 588/807/594 569/840/594 596/826/594
f 589/815/595 595/823/595 569/822/595
f 589/815/596 586/804/596 595/823/596
f 586/804/597 568/819/597 595/823/597
f 587/814/598 594/820/598 568/819/598
f 587/814/599 584/801/599 594/820/599
f 584/801/600 572/831/600 594/820/600
f 592/813/601 593/817/601 571/828/601
f 592/813/602 583/812/602 593/817/602
f 583/812/603 566/808/603 593/817/603
f 590/810/604 591/816/604 570/825/604
f 590/810/605 582/809/605 591/816/605
f 582/809/606 565/805/606 591/816/606
f 588/807/607 589/845/607 569/840/607
f 588/807/608 580/806/608 589/845/608
f 580/806/609 564/846/609 589/845/609
f 586/804/610 587/814/610 568/819/610
f 586/804/611 576/803/611 587/814/611
f 576/803/612 563/789/612 587/814/612
f 584/801/613 585/818/613 572/831/613
f 584/801/614 577/791/614 585/818/614
f 577/791/615 567/811/615 585/818/615
f 578/800/616 583/812/616 567/811/616
f 578/800/617 581/799/617 583/812/617
f 581/799/618 566/808/618 583/812/618
f 581/797/619 582/809/619 566/808/619
f 581/797/620 579/796/620 582/809/620
f 579/796/621 565/805/621 582/809/621
f 579/794/622 580/806/622 565/805/622
f 579/794/623 574/793/623 580/806/623
f 574/793/624 564/846/624 580/806/624
f 577/791/625 578/847/625 567/811/625
f 577/791/626 575/790/626 578/847/626
f 575/790/627 562/848/627 578/847/627
f 574/788/628 576/803/628 564/802/628
f 574/788/629 575/787/629 576/803/629
f 575/787/630 563/789/630 576/803/630
f 604/786/631 616/788/631 617/787/631
f 605/789/632 619/791/632 617/790/632
f 604/792/633 621/794/633 616/793/633
f 604/795/634 623/797/634 621/796/634
f 604/798/635 620/800/635 623/799/635
f 605/789/636 626/801/636 619/791/636
f 606/802/637 628/804/637 618/803/637
f 607/805/638 630/807/638 622/806/638
f 608/808/639 632/810/639 624/809/639
f 609/811/640 634/813/640 625/812/640
f 605/789/641 629/814/641 626/801/641
f 606/802/642 631/815/642 628/804/642
f 607/805/643 633/816/643 630/807/643
f 608/808/644 635/817/644 632/810/644
f 609/811/645 627/818/645 634/813/645
f 610/819/646 641/821/646 636/820/646
f 611/822/647 643/824/647 637/823/647
f 612/825/648 644/827/648 638/826/648
f 613/828/649 645/830/649 639/829/649
f 614/831/650 642/833/650 640/832/650
f 642/833/651 615/835/651 645/834/651
f 642/833/652 645/834/652 640/832/652
f 640/832/653 645/834/653 613/828/653
f 645/830/654 615/837/654 644/836/654
f 645/830/655 644/836/655 639/829/655
f 639/829/656 644/836/656 612/825/656
f 644/827/657 615/839/657 643/838/657
f 644/827/658 643/838/658 638/826/658
f 638/826/659 643/838/659 611/840/659
f 643/824/660 615/842/660 641/841/660
f 643/824/661 641/841/661 637/823/661
f 637/823/662 641/841/662 610/819/662
f 641/821/663 615/844/663 642/843/663
f 641/821/664 642/843/664 636/820/664
f 636/820/665 642/843/665 614/831/665
f 627/818/666 614/831/666 640/832/666
f 627/818/667 640/832/667 634/813/667
f 634/813/668 640/832/668 613/828/668
f 635/817/669 613/828/669 639/829/669
f 635/817/670 639/829/670 632/810/670
f 632/810/671 639/829/671 612/825/671
f 633/816/672 612/825/672 638/826/672
f 633/816/673 638/826/673 630/807/673
f 630/807/674 638/826/674 611/840/674
f 631/815/675 611/822/675 637/823/675
f 631/815/676 637/823/676 628/804/676
f 628/804/677 637/823/677 610/819/677
f 629/814/678 610/819/678 636/820/678
f 629/814/679 636/820/679 626/801/679
f 626/801/680 636/820/680 614/831/680
f 634/813/681 613/828/681 635/817/681
f 634/813/682 635/817/682 625/812/682
f 625/812/683 635/817/683 608/808/683
f 632/810/684 612/825/684 633/816/684
f 632/810/685 633/816/685 624/809/685
f 624/809/686 633/816/686 607/805/686
f 630/807/687 611/840/687 631/845/687
f 630/807/688 631/845/688 622/806/688
f 622/806/689 631/845/689 606/846/689
f 628/804/690 610/819/690 629/814/690
f 628/804/691 629/814/691 618/803/691
f 618/803/692 629/814/692 605/789/692
f 626/801/693 614/831/693 627/818/693
f 626/801/694 627/818/694 619/791/694
f 619/791/695 627/818/695 609/811/695
f 620/800/696 609/811/696 625/812/696
f 620/800/697 625/812/697 623/799/697
f 623/799/698 625/812/698 608/808/698
f 623/797/699 608/808/699 624/809/699
f 623/797/700 624/809/700 621/796/700
f 621/796/701 624/809/701 607/805/701
f 621/794/702 607/805/702 622/806/702
f 621/794/703 622/806/703 616/793/703
f 616/793/704 622/806/704 606/846/704
f 619/791/705 609/811/705 620/847/705
f 619/791/706 620/847/706 617/790/706
f 617/790/707 620/847/707 604/848/707
f 616/788/708 606/802/708 618/803/708
f 616/788/709 618/803/709 617/787/709
f 617/787/710 618/803/710 605/789/710
