# Blender 5.1.1
# www.blender.org
mtllib low_poly_wolf_animated0011.mtl
o Wolf
v -0.164585 3.253522 -2.195031
v -0.513392 1.276605 -1.670398
v 0.014389 3.791037 -1.021413
v -0.492070 1.413455 -2.091762
v -0.707723 1.473939 -1.466805
v 0.138728 3.992767 3.043004
v 0.572317 3.739171 0.269082
v -0.551070 2.823005 -1.993556
v 0.233295 2.311508 -0.219838
v -0.774407 2.291952 -1.178624
v 0.312693 3.973048 2.768031
v -0.571847 1.654927 -1.291280
v -0.614862 3.241129 -1.095732
v -0.853172 -0.005972 -2.140504
v 0.682407 2.984308 -1.780636
v -0.297393 2.179628 -1.263745
v -0.849381 2.163223 -1.608306
v -0.105484 3.003322 1.689377
v -0.561049 1.436051 -2.146162
v 0.324770 2.468937 -0.718114
v -0.155349 2.282002 0.294519
v -0.475394 0.451707 1.363911
v 0.454699 1.597455 -1.811068
v -0.609221 2.108313 0.457789
v -0.327089 0.451494 1.127809
v -0.115223 2.799293 -2.204850
v -0.482519 3.324298 -1.239316
v 0.331773 2.288635 0.276175
v -0.540537 2.920250 -0.212267
v -0.413383 2.055149 0.803721
v 0.520570 1.249265 -2.328719
v -0.420405 2.565283 -0.939940
v -0.475180 3.487252 1.404377
v -0.158791 1.831061 -2.969968
v 0.137647 2.245925 -1.407996
v -0.573440 2.890994 0.209553
v -0.227271 4.167156 0.913742
v -0.320656 0.710216 1.102181
v -0.435345 3.725217 0.307072
v -0.505635 2.044160 0.872718
v -0.448148 3.588675 1.208415
v 0.615162 3.945069 1.103624
v 0.453584 4.572860 2.575748
v -0.383716 4.959428 2.041895
v 0.432767 4.602090 2.587868
v 0.416829 4.609841 2.595181
v -0.790659 2.796121 -1.536876
v 0.381541 4.607908 2.608802
v -0.120794 4.396847 2.583644
v 0.353048 4.584283 2.616832
v 0.344981 4.566912 2.617671
v 0.654835 4.167125 2.106571
v 0.345075 4.529378 2.612585
v 0.353227 4.512892 2.607159
v -0.055664 2.805700 -2.273839
v 0.381831 4.492396 2.593151
v 0.399482 4.490392 2.585940
v 0.417119 4.494329 2.579531
v 0.652514 3.688164 0.987523
v 0.445611 4.517955 2.571500
v 0.453678 4.535331 2.570661
v -0.647123 0.605301 1.337215
v 0.453585 4.583238 2.568688
v -0.094106 4.566082 2.614583
v 0.432768 4.612579 2.580370
v 0.416829 4.620430 2.587561
v -0.537594 0.663829 1.403225
v 0.381542 4.618740 2.601186
v 0.939785 0.508531 1.337603
v 0.353049 4.595399 2.609499
v 0.344981 4.578171 2.610546
v 0.489163 3.203094 -1.584313
v 0.345076 4.540797 2.605958
v 0.353228 4.524273 2.600792
v 0.644803 0.923563 0.839696
v 0.381831 4.503502 2.587171
v 0.399483 4.501324 2.580029
v 0.417119 4.505088 2.573595
v -0.414159 4.681685 1.944079
v 0.445612 4.528450 2.565246
v 0.453679 4.545743 2.564157
v -0.153667 4.823362 2.425827
v -0.452636 2.618162 -2.087900
v -0.116109 4.237369 0.769162
v -0.260525 2.478345 -0.691368
v -0.120494 1.599011 -2.927416
v 0.666298 0.341609 -2.471511
v 0.830145 2.563840 -1.487816
v 0.393407 4.562020 2.592195
v -0.063314 4.532911 2.587725
v 0.715560 3.573767 0.232356
v 0.510112 3.566394 1.826108
v -0.475182 3.040791 -2.025977
v 0.696581 2.694232 -1.909413
v -0.537504 2.980346 1.432931
v 0.138693 3.095790 1.899095
v 0.034572 4.515391 2.682186
v 0.446217 2.601752 -2.098333
v -0.765840 2.832062 -1.157161
v -0.516571 0.508811 1.512953
v 0.571863 1.654987 -1.291156
v 0.470715 4.569743 2.522479
v 0.466528 4.597184 2.527401
v 0.454516 4.621515 2.535044
v 0.435856 4.640398 2.544633
v 0.412373 4.651974 2.555220
v 0.386366 4.655116 2.565780
v 0.360382 4.649496 2.575284
v 0.336962 4.635700 2.582780
v 0.318401 4.615077 2.587538
v 0.306515 4.589654 2.589098
v 0.302466 4.561910 2.587314
v 0.306653 4.534515 2.582382
v 0.318665 4.510157 2.574784
v 0.337325 4.491228 2.565247
v 0.360808 4.479599 2.554691
v 0.386815 4.476397 2.544157
v 0.412800 4.481932 2.534683
v 0.436219 4.495727 2.527171
v 0.454780 4.516386 2.522368
v 0.466666 4.541901 2.520744
v -0.138114 4.579501 2.591744
v -0.637647 0.960141 -2.294803
v 0.558560 0.888398 -2.070609
v -0.116868 4.609163 2.601730
v -0.100526 4.617258 2.607633
v 0.440694 4.557467 2.570444
v -0.064249 4.616103 2.618421
v -0.359955 2.114398 -1.765208
v -0.034845 4.593194 2.624461
v -0.026466 4.576090 2.624871
v -0.558560 0.888398 -2.070609
v -0.026372 4.538617 2.620373
v -0.034666 4.521976 2.615868
v -0.449114 0.916200 0.834417
v -0.063960 4.500791 2.604546
v -0.082091 4.498356 2.598818
v -0.100237 4.501864 2.593792
v -0.640279 3.188431 1.320991
v -0.129640 4.524813 2.587709
v -0.138020 4.541993 2.587252
v 0.470335 3.041629 -2.033561
v 0.649789 4.966606 2.001283
v -0.686754 1.441205 -2.037252
v 0.185089 4.030595 3.173279
v -0.336896 4.055468 0.734919
v -0.079911 4.529402 2.583788
v -0.191195 2.348888 0.581578
v -0.199694 4.855829 2.285052
v 0.260828 4.202806 3.197688
v -0.640197 0.580504 1.173431
v 0.472959 2.081891 -2.012195
v -0.587111 -0.049858 -2.147819
v 0.705338 3.495652 1.357888
v 0.026876 3.970803 2.779307
v 0.791683 2.808179 1.260249
v -0.751112 2.320050 -1.827240
v -0.018733 3.472761 2.130888
v -0.063369 4.547549 2.605396
v -0.490770 2.189165 0.258123
v 0.301943 2.180024 -1.266951
v -0.158647 4.565693 2.547041
v -0.154483 4.593202 2.551606
v -0.142262 4.617717 2.558266
v -0.123179 4.636883 2.566341
v -0.099102 4.648816 2.575033
v -0.072388 4.652350 2.583502
v -0.045653 4.647120 2.590922
v -0.021512 4.633674 2.596550
v -0.002330 4.613323 2.599835
v 0.010016 4.588066 2.600467
v 0.014319 4.560353 2.598394
v 0.010155 4.532875 2.593827
v -0.002066 4.508330 2.587210
v -0.021149 4.489124 2.579180
v -0.045226 4.477150 2.570512
v -0.071940 4.473567 2.562064
v -0.098675 4.478720 2.554667
v -0.122816 4.492172 2.549022
v -0.141998 4.512562 2.545692
v -0.154344 4.537906 2.545002
v 0.543994 4.237606 1.094722
v 0.791741 2.797681 -1.540942
v 0.375541 4.152504 2.937829
v -0.454699 1.597455 -1.811068
v -0.204019 3.951682 0.269615
v 0.141034 4.082094 0.548638
v -0.738349 1.879053 -1.206819
v -0.682911 2.981817 -1.772763
v -0.643960 2.375454 0.939841
v -0.821739 1.867645 -1.401706
v 0.686135 4.158741 1.680628
v 0.476648 2.233157 -0.985931
v -0.480478 3.193689 -1.557350
v 0.520900 4.276967 2.466847
v -0.463435 2.229189 -0.980997
v 0.707723 1.473938 -1.466804
v 0.176054 4.514368 2.802006
v -0.352208 2.920398 -2.144335
v 0.108576 2.323528 0.837739
v -0.660138 2.837729 1.178697
v -0.173281 4.403729 1.091618
v -0.500709 1.011546 -2.245471
v -0.491453 3.630303 -0.203452
v 0.153180 3.466499 -1.987256
v -0.467852 2.583088 -0.241678
v -0.311330 4.845696 1.943980
v 0.595912 2.133298 0.267683
v 0.804073 2.476131 0.637726
v -0.576453 3.556674 0.281344
v -0.490223 1.813072 0.398378
v -0.392275 3.746104 1.313206
v -0.359754 4.138670 2.009283
v -0.523734 3.465508 -0.191010
v -0.591279 1.234572 -2.322913
v 0.372285 3.921902 2.406721
v -0.518870 3.348040 0.625588
v 0.659968 2.936670 -0.257665
v -0.465733 3.090483 -0.682182
v 0.181668 4.002539 3.080986
v -0.409694 4.644387 2.091716
v 0.591279 1.234572 -2.322913
v -0.138115 4.568213 2.599092
v -0.019309 1.455951 -3.295179
v -0.188808 3.642900 -1.459363
v -0.116868 4.597774 2.609553
v -0.100527 4.605778 2.615592
v -0.544137 0.320780 -2.236866
v -0.064250 4.604407 2.626389
v 0.845019 -0.011592 -2.127553
v -0.034846 4.581236 2.632136
v -0.026466 4.563994 2.632325
v -0.583965 0.418333 1.137358
v -0.026372 4.526460 2.627240
v -0.034667 4.509846 2.622463
v -0.163591 1.458507 -3.289351
v -0.063960 4.488895 2.610739
v -0.082091 4.486609 2.604940
v -0.100237 4.490266 2.599942
v 0.849384 2.163224 -1.608295
v -0.129641 4.513437 2.594195
v -0.138021 4.530684 2.594005
v -0.750286 0.151890 -2.030356
v -0.070996 1.590487 -2.861731
v -0.556382 0.805395 1.123453
v 0.499895 4.060347 0.695541
v 0.195858 3.641858 -1.473681
v 0.057317 3.997368 2.857465
v 0.387863 4.637024 2.642839
v 0.745516 3.120519 -1.019961
v -0.217766 4.694010 2.466265
v 0.452018 4.827754 2.402093
v -0.110005 2.935593 -2.426192
v -0.104270 4.531524 2.586728
v 0.257076 3.992826 2.972268
v 0.221778 4.000519 3.044871
v -0.452826 3.374210 -0.744830
v -0.209536 3.837734 -0.301484
v -0.093168 1.303545 -3.267035
v 0.544049 3.104026 -0.719827
v 0.387339 2.356810 0.559713
v 0.453602 2.680782 -0.720962
v 0.567396 4.536560 1.551752
v -0.457982 3.676123 1.030769
v -0.026948 2.458707 -2.403710
v 0.665886 2.205018 0.214372
v -0.854394 -0.002065 -2.145864
v 0.002462 4.416537 2.792651
v -0.076549 4.558895 2.610423
v -0.327923 2.525664 -2.098106
v 0.885757 2.857387 1.120111
v 0.550424 2.180932 0.425461
v -0.692057 3.034533 -1.456378
v -0.329814 3.626227 -0.800211
v 0.738347 1.879130 -1.206710
v 0.698924 5.131719 2.008751
v 0.459165 1.837038 -1.328385
v -0.502280 0.335597 -2.448912
v 0.699521 3.041178 -1.475016
v -0.025208 4.149356 2.953639
v 0.821752 1.867694 -1.401592
v 0.702728 0.931987 0.790848
v 0.781627 0.468936 1.316364
v 0.103709 4.507842 1.213625
v 0.442258 0.072166 -2.268854
v 0.112861 2.630420 -2.451141
v 0.380031 4.550505 2.588192
v 0.007461 2.266983 -1.723562
v 0.181521 3.995437 3.075848
v 0.288090 3.999180 2.848360
v -0.163753 2.633425 -2.442619
v 0.257223 3.999928 2.977405
v 0.795248 0.662466 0.969474
v 0.761303 5.044361 2.023809
v 0.518988 3.386731 -0.780765
v -0.294268 3.948576 1.014733
v -0.588089 2.200490 -2.009314
v 0.319572 4.473904 2.704074
v 0.561049 1.436051 -2.146163
v 0.873650 0.438311 1.082223
v 0.221631 3.993418 3.039733
v 0.676383 4.689144 1.900608
v 0.592264 3.645156 -0.244444
v 0.510889 3.335875 -1.272458
v 0.513392 1.276605 -1.670398
v 0.478006 4.895927 2.032572
v 0.109726 4.200506 3.201149
v 0.009292 2.331781 -1.220735
v -0.244112 2.466226 -1.011766
v 0.411144 4.569442 2.594984
v -0.729230 -0.031225 -2.195368
v -0.429605 1.365853 0.941067
v 0.598611 2.506958 0.386961
v 0.238991 2.232229 -1.644511
v 0.689684 3.363330 0.579720
v 0.660483 3.597315 1.164670
v 0.865030 0.135607 -2.158543
v 0.947977 0.508629 1.325535
v -0.363570 2.381765 0.349811
v -0.666298 0.341609 -2.471510
v -0.058701 4.538410 2.593958
v -0.387456 0.909415 0.878742
v 0.834512 0.824459 1.070843
v 0.793095 3.337097 0.776571
v 0.321171 4.469294 2.631352
v 0.486267 3.954147 0.982784
v -0.606392 3.319679 0.829798
v 0.702320 0.301584 -2.298244
v 0.477487 2.320691 0.363988
v -0.375741 2.670229 -0.694016
v -0.068468 1.975010 -3.024132
v -0.696571 2.694581 -1.908606
v 0.927986 0.601997 1.114115
v 0.729230 -0.031225 -2.195368
v -0.114330 4.536664 2.593623
v 0.151354 4.900025 2.484761
v -0.009258 3.258241 -2.320746
v 0.731090 2.061111 0.825939
v -0.180256 4.120326 0.665858
v 0.348827 2.850899 -2.144372
v 0.877737 1.940108 0.783700
v -0.503601 3.903050 0.796257
v -0.865029 0.135607 -2.158543
v -0.242333 3.561759 1.855875
v -0.342936 4.232854 1.131599
v -0.319447 4.550559 1.568757
v -0.294844 2.310121 0.393172
v 0.024454 2.344023 -0.682434
v -0.340444 2.399973 -0.224627
v 0.531287 2.563766 1.214980
v -0.641600 0.486842 1.385661
v 0.386329 3.634476 -0.826010
v -0.160000 3.579110 2.039182
v 0.480665 4.048721 2.324571
v 0.366864 3.007335 1.671318
v 0.161090 4.728724 2.701798
v -0.298438 3.275213 1.730092
v -0.464228 4.019971 1.387781
v -0.711723 -0.031527 -1.977291
v 0.086210 2.250732 0.219347
v -0.577236 2.630873 -0.956224
v -0.369262 4.160118 2.147065
v -0.472805 2.082103 -2.012365
v -0.530701 3.813280 1.491587
v 0.309033 3.837964 -0.326225
v 0.651623 1.050087 0.979215
v 0.679032 1.381048 0.899133
v 0.749312 1.185961 1.018728
v -0.010567 3.047995 1.822946
v -0.520570 1.249265 -2.328719
v -0.061114 3.909971 2.375484
v 0.725466 2.908646 0.160508
v 0.511867 2.906354 -0.687186
v -0.516259 0.424778 1.441805
v 0.887901 1.097937 0.977962
v 0.652595 3.255592 -1.136351
v 0.520951 4.699390 2.437292
v 0.558518 3.281409 1.696646
v 0.612573 3.752537 1.272640
v 0.379512 3.532375 -1.358237
v -0.411140 3.938480 1.145577
v 0.686360 3.037632 0.512253
v 0.853172 -0.005972 -2.140504
v -0.702442 3.105162 -0.978051
v 0.150898 3.254407 -2.199743
v 0.544137 0.320779 -2.236865
v -0.781186 -0.086286 -2.067372
v 0.098239 3.998679 2.983678
v 0.204852 3.921811 3.066785
v 0.801247 2.127645 0.404438
v 0.423162 4.568358 2.589473
v 0.731466 0.735787 1.174110
v 0.323834 2.524330 -2.099884
v 0.310560 3.475168 2.118437
v -0.621023 2.906631 0.739715
v 0.018577 1.827959 -2.976977
v 0.324023 4.195296 0.740011
v 0.551590 4.788448 1.790239
v 0.041210 3.983250 3.073910
v -0.603956 2.456832 0.690985
v 0.411374 4.623212 1.523030
v -0.511464 3.021377 0.557431
v -0.494045 5.035740 2.073145
v 0.779518 2.294518 -1.183504
v 0.754490 2.552060 1.125649
v 0.250532 4.254509 3.290592
v -0.106493 4.564814 2.610035
v -0.415033 2.119443 0.305923
v -0.651687 1.919145 0.841550
v 0.778793 2.995038 1.382739
v 0.629897 3.481302 -0.234648
v -0.211269 2.451198 1.060173
v 0.583839 2.310788 0.910735
v 0.946582 0.627144 1.276933
v 0.949493 0.509915 1.319882
v 0.854394 -0.002065 -2.145864
v 0.812339 2.925983 0.685673
v -0.163688 3.464369 -1.982305
v 0.459917 2.579067 -0.954111
v 0.765521 3.820771 1.438903
v 0.321418 3.985451 3.062855
v -0.291465 2.552896 1.246112
v -0.027809 1.597388 -2.931190
v 0.120347 2.469017 1.207431
v 0.333495 3.409407 -1.830657
v 0.828980 0.443216 1.390921
v -0.359288 2.297862 0.946409
v 0.779896 2.839301 -1.174502
v 0.191852 2.420553 -1.987626
v -0.642905 0.953466 -2.046668
v 0.419601 4.535099 2.566338
v -0.830147 2.563836 -1.487815
v 0.074671 2.934703 -2.431037
v -0.152279 2.251856 -1.391530
v 0.500709 1.011546 -2.245471
v 0.492070 1.413455 -2.091763
v 0.615974 0.464420 1.092137
v -0.477340 0.092935 -2.075227
v -0.125292 4.553623 2.592458
v -0.387179 1.035850 1.018508
v -0.624098 1.077214 1.035154
v -0.068169 4.634236 2.660332
v 0.546014 2.821716 -2.000429
v 0.408832 4.171805 0.888770
v 0.116287 4.271698 3.262142
v -0.442258 0.072166 -2.268854
v 0.251160 4.948177 2.133434
v -0.319196 0.567713 1.387539
v 0.686227 1.829196 0.353879
v 0.047268 3.905293 2.734703
v 0.395098 4.532661 2.565296
v 0.600547 0.722842 1.067336
v 0.634760 4.145267 1.969841
v -0.122044 4.544628 2.595990
v -0.434205 4.152894 1.725239
v -0.190738 2.419818 -1.981967
v 0.477340 0.092934 -2.075227
v 0.594563 2.597504 -0.281788
v -0.702320 0.301584 -2.298244
v -0.632520 0.486981 1.397075
v 0.604333 2.640641 -0.972575
v -0.443442 0.719684 1.218551
v -0.005996 3.513067 -2.045153
v 0.440694 2.460134 1.035512
v -0.341010 3.403327 -1.813728
v 0.624543 0.580647 1.351842
v -0.632100 3.359730 1.053839
v 0.840790 0.682722 1.351087
v 0.750287 0.151889 -2.030356
v -0.845019 -0.011592 -2.127553
v 0.781186 -0.086286 -2.067372
v 0.332996 3.961705 0.251026
v -0.032000 2.724929 -2.678183
v 0.038210 4.659484 1.544054
v -0.132903 4.813864 1.787733
v 0.057170 3.990266 2.852327
v -0.429814 2.893968 -0.653372
v 0.369667 4.406197 1.067278
v -0.236096 2.231318 -1.644232
v 0.864970 2.396136 0.882765
v 0.834908 3.376794 0.997701
v -0.458965 1.837060 -1.328004
v 0.688823 4.027168 1.339041
v 0.374612 4.541324 2.577130
v 0.540755 2.394137 0.315642
v 0.686754 1.441205 -2.037252
v 0.060730 3.951696 0.160727
v -0.782513 0.055983 -2.383638
v -0.485287 1.169040 1.065427
v 0.711723 -0.031527 -1.977291
v 0.642905 0.953466 -2.046668
v 0.639491 3.323730 1.502209
v 0.138875 3.999868 3.048142
v -0.434344 5.123919 2.052949
v 0.633624 2.069499 0.764117
v 0.412928 3.957585 2.616044
v 0.098070 2.280720 0.544433
v -0.361515 3.524697 -1.335350
v -0.114313 1.344134 -3.756592
v -0.643573 0.488080 1.380140
v 0.486546 4.860753 2.258123
v 0.502281 0.335597 -2.448911
v -0.518866 0.023817 -2.393362
v 0.063036 2.800385 -2.211366
v 0.430104 4.540363 2.572439
v 0.658757 0.951743 -2.150456
v 0.378805 4.535892 2.570550
v 0.751113 2.320048 -1.827239
v 0.437866 4.548430 2.574207
v -0.658757 0.951744 -2.150456
v -0.418939 2.493024 0.425428
v 0.894248 2.506797 0.796214
v 0.637647 0.960141 -2.294802
v 0.782513 0.055983 -2.383638
v 0.098092 3.991578 2.978540
v 0.282088 3.050234 1.811728
v 0.437826 4.400487 2.561899
v 0.673664 3.916113 0.749589
v 0.086937 2.927644 -2.278540
v 0.155539 3.802416 2.382965
v -0.395541 3.316308 1.542550
v 0.518866 0.023817 -2.393362
v -0.520403 2.535199 1.173859
v -0.520467 0.644433 1.019242
v -0.084768 3.954505 2.635881
v 0.683858 4.652155 2.048570
v 0.157884 3.573968 2.203188
v 0.360976 2.115147 -1.764720
v -0.554661 2.791478 1.311281
v -0.209111 4.272221 2.495448
v 0.588048 2.200550 -2.009355
v 0.286003 2.477919 -1.018602
v 0.126512 2.745095 1.481571
v -0.176686 4.044086 2.350614
v 0.473743 2.410397 -0.255037
v -0.095393 2.308075 -0.208096
v 0.867834 3.205081 1.263189
v -0.682708 2.485183 0.855864
v 0.354067 4.827963 1.780471
v 0.442957 3.583409 2.015406
v 0.832365 0.527299 1.461929
v 0.287943 3.992078 2.843222
v 0.289870 3.907249 2.725147
v -0.359080 2.168466 0.459864
v 0.587111 -0.049858 -2.147819
v -0.182525 4.898469 2.106695
vn 0.3632 -0.1242 0.9234
vn 0.7281 0.0358 -0.6845
vn 0.3633 -0.1240 0.9234
vn -0.9923 -0.0137 -0.1231
vn -0.8317 -0.3755 0.4091
vn 0.3633 -0.1243 0.9234
vn -0.3178 -0.5884 0.7435
vn 0.7737 0.0037 -0.6335
vn -0.0800 0.9777 -0.1943
vn 0.3632 -0.1240 0.9234
vn 0.9426 -0.1663 -0.2897
vn -0.9072 -0.4177 -0.0498
vn -0.9718 0.1787 -0.1539
vn -0.2178 -0.5756 0.7882
vn -0.8192 0.1751 0.5460
vn -0.9901 -0.0576 -0.1283
vn -0.7270 -0.5028 0.4676
vn 0.9949 0.0524 0.0859
vn 0.4816 -0.1790 0.8579
vn -0.7085 0.0983 -0.6989
vn 0.5896 0.7844 -0.1926
vn -0.1257 -0.9133 -0.3875
vn -0.1466 -0.9892 -0.0055
vn 0.7831 0.5192 -0.3422
vn 0.8478 0.5187 -0.1104
vn -0.9927 0.0250 -0.1184
vn -0.0269 -0.9554 -0.2941
vn 0.8614 -0.4510 0.2336
vn 0.4301 -0.9001 0.0699
vn -0.8838 0.1294 -0.4497
vn 0.3634 -0.1242 0.9233
vn 0.1867 0.7887 -0.5857
vn -0.5704 0.8202 -0.0427
vn -0.3775 -0.9225 -0.0798
vn 0.9883 -0.0751 -0.1331
vn -0.5688 0.8210 -0.0487
vn 0.5074 0.7811 -0.3638
vn 0.6822 0.1441 -0.7168
vn -0.3941 0.1937 0.8984
vn -0.0933 0.9587 -0.2688
vn 0.9862 0.1650 0.0131
vn -0.0115 0.9724 -0.2330
vn -0.9023 -0.4236 -0.0797
vn 0.9733 0.0804 -0.2150
vn -0.1434 -0.5354 0.8323
vn 0.5532 -0.5104 0.6584
vn -0.6090 -0.7903 -0.0678
vn -0.1195 0.9876 0.1014
vn -0.1417 -0.8930 0.4273
vn 0.8512 -0.1714 -0.4960
vn -0.9792 0.1976 0.0453
vn -0.9451 -0.1016 -0.3105
vn -0.4217 -0.8994 0.1155
vn 0.2005 0.9167 -0.3457
vn 0.6725 -0.6126 0.4154
vn 0.9766 -0.1819 -0.1143
vn 0.4210 0.6397 -0.6430
vn 0.2800 0.9501 0.1376
vn -0.2587 -0.7359 0.6257
vn 0.6190 0.7483 0.2385
vn -0.4247 -0.9039 -0.0509
vn -0.0387 -0.0382 0.9985
vn -0.7927 0.2971 -0.5323
vn -0.2196 0.3135 0.9239
vn -0.6901 0.6274 0.3608
vn 0.3631 -0.1243 0.9234
vn -0.4707 -0.1865 0.8623
vn -0.2247 -0.1976 -0.9542
vn 0.9861 -0.1450 0.0806
vn -0.2637 0.7203 -0.6415
vn -0.3940 0.4022 -0.8264
vn -0.8188 -0.2855 0.4980
vn -0.9897 0.1260 -0.0684
vn -0.8978 0.4403 0.0095
vn 0.1649 -0.2286 0.9595
vn 0.8846 0.4623 -0.0624
vn -0.5506 -0.3749 -0.7459
vn -0.0635 -0.7462 0.6627
vn -0.6218 0.0608 -0.7808
vn -0.6989 0.6353 -0.3285
vn 0.9574 -0.2537 0.1381
vn 0.2433 -0.9152 0.3213
vn -0.2862 -0.0831 -0.9545
vn 0.9942 0.0806 -0.0712
vn -0.3836 -0.7857 -0.4853
vn 0.0417 0.7865 -0.6162
vn 0.7094 0.0960 -0.6982
vn -0.6395 -0.4365 0.6329
vn -0.9395 0.2046 -0.2748
vn 0.3771 -0.7853 -0.4909
vn -0.6990 -0.1939 0.6884
vn -0.9594 0.1978 -0.2010
vn -0.4352 -0.4592 0.7744
vn -0.9413 0.3084 0.1375
vn -0.3307 -0.9198 -0.2111
vn -0.0464 -0.7212 0.6912
vn -0.2798 -0.6375 0.7179
vn -0.2066 -0.7194 0.6631
vn 0.9998 0.0153 -0.0158
vn 0.1153 -0.8342 0.5393
vn -0.9907 0.0370 -0.1307
vn -0.5810 0.4110 -0.7025
vn -0.4121 -0.4509 0.7918
vn 0.3324 -0.8881 -0.3173
vn -0.4121 -0.4503 0.7921
vn 0.8730 -0.3878 0.2958
vn -0.1400 0.1319 -0.9813
vn 0.8728 -0.3885 0.2955
vn 0.7694 0.6371 0.0474
vn 0.9111 -0.1125 0.3965
vn 0.3409 -0.8240 0.4525
vn -0.1546 -0.4469 0.8811
vn 0.6544 -0.6795 0.3317
vn 0.7399 -0.5895 0.3241
vn 0.5556 -0.6934 0.4589
vn 0.5553 0.6323 0.5402
vn 0.8156 0.4203 0.3977
vn 0.5552 0.6323 0.5403
vn 0.9320 0.3440 -0.1143
vn -0.3152 0.3838 0.8680
vn 0.9568 -0.0325 0.2889
vn 0.7492 -0.6615 -0.0327
vn -0.9049 -0.0270 0.4247
vn 0.7227 0.4463 0.5277
vn 0.8717 0.3114 0.3784
vn -0.4145 0.2476 0.8757
vn -0.2820 0.4494 0.8476
vn -0.4145 0.2473 0.8758
vn 0.6470 0.5043 0.5719
vn -0.5082 -0.1062 0.8546
vn 0.2225 0.7130 0.6649
vn -0.6903 0.4482 0.5680
vn -0.2072 0.5428 0.8139
vn -0.8915 0.3815 -0.2441
vn -0.0480 0.5386 0.8412
vn -0.8715 0.3989 0.2852
vn 0.9917 -0.0357 0.1233
vn 0.4711 0.8065 0.3572
vn 0.1155 -0.8344 0.5390
vn -0.8644 0.5009 -0.0438
vn -0.5491 0.7494 0.3699
vn -0.4823 -0.2261 0.8463
vn -0.7436 -0.0412 -0.6674
vn 0.9901 0.0054 0.1401
vn -0.7953 0.4697 -0.3833
vn -0.7680 0.6326 0.0995
vn -0.7164 0.6847 0.1339
vn -0.7975 -0.0457 -0.6016
vn 0.9425 -0.1555 0.2957
vn -0.8117 0.5050 0.2935
vn 0.3406 -0.8242 0.4525
vn -0.9143 0.1147 -0.3885
vn 0.0566 -0.2793 0.9585
vn -0.9101 -0.2445 0.3347
vn -0.7661 -0.5839 0.2687
vn -0.9823 0.0113 0.1870
vn 0.9878 0.0312 -0.1526
vn -0.6985 -0.0206 0.7153
vn 0.3407 0.6961 0.6320
vn 0.3941 0.4022 -0.8264
vn -0.4447 -0.8872 0.1226
vn 0.9099 0.0654 0.4096
vn 0.5918 0.7744 -0.2238
vn -0.6191 -0.5645 0.5460
vn -0.2137 -0.7218 0.6583
vn 0.9095 0.3250 -0.2592
vn -0.6402 -0.6462 0.4155
vn -0.6946 -0.4174 0.5859
vn -0.4010 -0.0004 0.9161
vn 0.8918 -0.4461 -0.0755
vn 0.7195 -0.2908 -0.6307
vn 0.1494 0.6166 0.7730
vn 0.2460 -0.5979 0.7629
vn -0.9855 -0.0245 0.1680
vn -0.8670 0.4638 -0.1824
vn -0.8827 0.4558 0.1142
vn -0.8319 0.4783 0.2815
vn 0.8191 -0.1961 0.5391
vn -0.0967 0.6154 0.7822
vn 0.8908 0.4060 0.2042
vn 0.9796 -0.1787 0.0923
vn 0.4722 0.0074 0.8814
vn -0.9834 -0.0647 -0.1697
vn -0.5039 0.7893 0.3508
vn -0.4652 -0.0920 0.8804
vn -0.9570 0.0787 -0.2793
vn 0.0269 -0.9554 -0.2941
vn -0.7366 -0.0152 0.6762
vn -0.8755 0.0528 0.4802
vn -0.0104 -0.9201 -0.3916
vn -0.2944 0.8844 -0.3623
vn -0.2997 0.6920 0.6568
vn -0.6987 0.6219 0.3535
vn -0.7045 0.4020 -0.5848
vn 0.7640 -0.5431 -0.3482
vn -0.5426 -0.7502 0.3779
vn -0.8806 -0.0820 -0.4668
vn 0.7071 0.5246 -0.4740
vn 0.9971 0.0066 0.0764
vn -0.2919 -0.8284 0.4781
vn -0.8191 0.4998 -0.2816
vn -0.9138 -0.1686 0.3694
vn -0.9664 -0.2160 -0.1391
vn 0.0140 0.8837 0.4679
vn 0.5235 0.7921 -0.3140
vn 0.6673 -0.5551 0.4966
vn -0.2912 -0.9386 0.1849
vn -0.7790 -0.5669 -0.2678
vn 0.5513 -0.2174 0.8055
vn -0.3367 0.2106 -0.9178
vn 0.8834 -0.0606 0.4647
vn -0.0608 -0.8352 0.5465
vn 0.9849 -0.0882 -0.1492
vn 0.1325 0.9105 -0.3916
vn 0.0755 0.9404 -0.3317
vn 0.1064 0.5404 0.8346
vn -0.8518 -0.0184 -0.5235
vn 0.2629 0.5470 0.7948
vn -0.8318 0.4784 0.2813
vn -0.1797 0.7107 0.6801
vn 0.5750 -0.0961 0.8125
vn -0.7836 0.0325 -0.6204
vn 0.4786 0.2546 0.8403
vn 0.3415 0.4547 0.8226
vn 0.4785 0.2549 0.8402
vn -0.8435 0.2993 0.4461
vn -0.6851 0.4365 0.5831
vn 0.8438 0.1532 -0.5143
vn 0.8955 0.3080 -0.3211
vn -0.9304 -0.0459 0.3637
vn -0.3592 -0.8539 0.3766
vn 0.6470 0.4205 -0.6360
vn -0.5199 0.6250 0.5823
vn -0.7876 0.4090 0.4608
vn -0.5200 0.6250 0.5823
vn -0.5076 -0.7005 0.5015
vn -0.7035 -0.5995 0.3817
vn -0.6164 -0.6883 0.3826
vn 0.9129 -0.1779 0.3674
vn -0.2925 -0.8281 0.4782
vn -0.9801 -0.0593 0.1893
vn -0.8537 0.4198 -0.3081
vn -0.8410 -0.4006 0.3637
vn -0.9601 -0.1347 0.2449
vn -0.8412 -0.3999 0.3640
vn 0.4801 -0.4431 0.7571
vn -0.0566 -0.2793 0.9585
vn 0.4800 -0.4441 0.7565
vn -0.4571 -0.3377 0.8228
vn -0.9591 -0.0568 0.2773
vn -0.0606 -0.8351 0.5467
vn 0.0277 -0.4690 -0.8828
vn 0.2684 -0.7157 0.6448
vn 0.3449 -0.6326 0.6935
vn 0.1111 -0.7197 0.6854
vn 0.9869 -0.0033 0.1612
vn -0.6318 -0.4242 0.6487
vn -0.9825 0.1284 -0.1351
vn -0.9770 -0.2117 -0.0239
vn 0.7005 0.1169 -0.7040
vn -0.7288 0.0324 0.6840
vn 0.6005 -0.5299 0.5988
vn 0.9850 0.0095 0.1722
vn -0.6198 0.3956 0.6777
vn 0.9866 0.0855 -0.1393
vn 0.9860 -0.1421 0.0872
vn -0.6260 0.1923 0.7557
vn 0.3248 0.2102 0.9221
vn 0.1482 -0.6985 0.7001
vn -0.9378 -0.2711 0.2170
vn 0.1023 -0.1420 -0.9846
vn 0.5883 0.5069 -0.6301
vn -0.3715 0.8978 -0.2364
vn 0.9152 0.0051 0.4030
vn -0.4471 0.6362 -0.6287
vn -0.2359 0.9500 0.2044
vn -0.6933 -0.4081 0.5940
vn 0.9783 -0.1209 0.1682
vn 0.9793 -0.1780 0.0960
vn -0.9616 0.0965 0.2569
vn 0.5579 0.8245 -0.0945
vn 0.9898 -0.1311 -0.0551
vn 0.9781 0.1062 -0.1788
vn 0.7911 0.6073 0.0733
vn -0.2872 -0.1295 0.9491
vn 0.7997 0.5144 0.3097
vn 0.0629 0.8988 -0.4338
vn 0.6819 -0.0393 -0.7304
vn 0.3169 -0.4882 0.8132
vn -0.5824 -0.2409 0.7763
vn -0.7330 0.6294 -0.2579
vn -0.2874 -0.1293 0.9491
vn -0.2874 -0.1293 0.9490
vn -0.7111 0.5322 -0.4594
vn 0.8240 -0.2965 0.4828
vn -0.2875 -0.1293 0.9490
vn -0.3980 0.7114 0.5793
vn -0.1278 -0.1806 -0.9752
vn 0.3535 0.4451 0.8227
vn 0.9119 -0.3929 -0.1183
vn -0.8335 -0.0548 0.5498
vn -0.6855 0.6441 -0.3394
vn 0.1123 -0.8719 0.4767
vn 0.2801 -0.7179 0.6373
vn -0.7263 0.5939 -0.3461
vn -0.5495 -0.7066 0.4458
vn 0.7197 0.5975 -0.3536
vn -0.6379 0.7564 -0.1445
vn -0.8780 0.4407 -0.1866
vn 0.8657 -0.3673 0.3401
vn -0.0854 -0.9916 -0.0967
vn 0.9571 0.0782 -0.2790
vn 0.7470 0.0382 0.6638
vn 0.7578 0.2241 0.6127
vn 0.8601 0.4036 -0.3120
vn -0.7568 -0.3110 -0.5749
vn -0.7798 0.6128 0.1277
vn 0.9645 -0.2551 0.0683
vn 0.9273 -0.3717 0.0440
vn -0.2852 -0.7606 0.5832
vn -0.8192 -0.0181 -0.5732
vn 0.7346 -0.3392 0.5877
vn -0.2876 -0.1293 0.9490
vn -0.1971 0.6631 -0.7221
vn -0.7470 0.0382 0.6638
vn 0.2880 0.0243 0.9573
vn -0.7005 0.1169 -0.7040
vn 0.9873 0.0084 0.1587
vn 0.8471 -0.4189 0.3270
vn -0.2292 -0.4836 0.8447
vn 0.7877 0.4461 0.4248
vn 0.5780 0.8000 -0.1609
vn -0.7668 -0.4182 0.4870
vn 0.7756 0.0528 -0.6290
vn -0.1559 0.9122 -0.3789
vn -0.0393 -0.9742 0.2221
vn -0.8323 -0.4446 0.3310
vn 0.7776 -0.3811 0.5002
vn 0.2166 -0.0795 0.9730
vn -0.8377 -0.2930 0.4608
vn -0.9559 0.2923 -0.0301
vn 0.9937 0.1107 0.0195
vn 0.9881 0.0320 0.1504
vn -0.2874 -0.1291 0.9491
vn 0.2611 -0.9652 -0.0118
vn 0.2978 -0.1532 0.9423
vn -0.6245 0.2322 0.7457
vn -0.2874 -0.1294 0.9490
vn -0.0681 -0.2679 -0.9610
vn -0.0730 -0.4923 0.8674
vn -0.6717 -0.4953 0.5510
vn -0.0856 -0.2321 0.9689
vn -0.9779 0.1969 0.0709
vn 0.8236 0.5189 0.2290
vn -0.9898 -0.1311 -0.0551
vn 0.6578 -0.5111 0.5533
vn -0.3092 -0.3177 0.8963
vn 0.9797 0.0501 -0.1942
vn 0.1585 0.1794 -0.9709
vn 0.5471 0.7764 0.3130
vn -0.2549 0.6081 0.7518
vn -0.5672 -0.3690 -0.7363
vn 0.6791 0.3885 -0.6228
vn -0.9098 -0.1294 -0.3943
vn -0.7003 0.6339 -0.3282
vn -0.9370 0.1411 -0.3195
vn -0.6571 0.7061 -0.2639
vn 0.9445 0.3251 -0.0482
vn -0.9354 0.1852 0.3013
vn 0.6090 -0.7903 -0.0678
vn 0.8662 0.1404 -0.4795
vn -0.8908 0.4060 0.2042
vn 0.9427 0.0085 0.3337
vn 0.9168 0.3803 -0.1221
vn 0.1400 0.1319 -0.9813
vn -0.8906 0.0132 0.4546
vn 0.0253 -0.7057 0.7081
vn -0.8047 0.4804 0.3487
vn 0.8101 0.4348 -0.3932
vn -0.9984 -0.0433 -0.0357
vn -0.7651 0.1718 0.6206
vn -0.4416 -0.8960 -0.0462
vn -0.1204 0.8734 -0.4719
vn -0.8671 -0.3604 -0.3439
vn 0.8101 0.1913 0.5543
vn -0.9084 0.4075 -0.0942
vn 0.4898 0.7179 -0.4947
vn 0.5039 0.7893 0.3508
vn 0.8657 -0.3151 0.3890
vn 0.9405 -0.2991 0.1611
vn -0.9493 -0.2813 0.1406
vn -0.9781 -0.0635 0.1981
vn 0.7117 -0.1008 -0.6952
vn 0.9368 -0.1585 -0.3118
vn -0.2009 -0.9597 0.1967
vn 0.0858 -0.9904 -0.1083
vn 0.8316 0.0488 0.5532
vn -0.9586 -0.1565 0.2379
vn -0.6851 0.0525 0.7265
vn -0.8812 -0.1952 -0.4305
vn -0.9436 -0.1726 0.2827
vn -0.9622 -0.0824 -0.2597
vn 0.5690 -0.2465 0.7845
vn 0.6338 -0.7506 0.1870
vn 0.6770 0.6606 -0.3244
vn -0.5067 -0.0664 0.8596
vn -0.5706 0.2002 -0.7965
vn -0.7806 0.5029 0.3712
vn -0.9773 -0.1860 0.1014
vn -0.9970 0.0038 -0.0775
vn 0.0439 0.8370 -0.5455
vn -0.7671 0.6064 -0.2095
vn -0.7607 -0.6478 0.0417
vn 0.7035 -0.4080 0.5819
vn -0.3088 0.2085 0.9280
vn 0.2202 -0.7310 0.6459
vn -0.6689 0.5441 -0.5065
vn 0.8085 -0.4073 0.4247
vn 0.5973 0.1418 -0.7894
vn 0.5718 -0.0552 0.8185
vn 0.3877 0.8088 0.4423
vn 0.8390 0.4984 0.2183
vn 0.5653 0.8013 -0.1958
vn 0.0446 0.8406 -0.5399
vn -0.9119 -0.1067 0.3964
vn 0.9818 -0.1897 -0.0101
vn -0.7591 -0.1209 -0.6396
vn -0.9981 -0.0121 0.0598
vn -0.6168 0.0133 -0.7870
vn -0.2028 -0.9187 0.3389
vn -0.7805 0.1830 -0.5977
vn 0.7796 0.0436 0.6247
vn -0.1492 -0.9864 -0.0690
vn 0.0340 0.9769 -0.2108
vn -0.7756 -0.5967 -0.2058
vn 0.5292 -0.7804 0.3331
vn 0.8566 -0.0856 0.5088
vn -0.3130 -0.5296 0.7884
vn 0.0342 -0.8741 -0.4845
vn 0.8224 -0.2861 0.4917
vn -0.7981 0.4131 -0.4387
vn -0.8763 0.0471 -0.4794
vn -0.6048 -0.5196 0.6035
vn 0.1222 -0.1735 -0.9772
vn -0.9569 -0.1923 -0.2178
vn 0.2743 -0.5270 -0.8044
vn -0.6160 0.0155 -0.7876
vn -0.1133 -0.9233 0.3670
vn 0.2506 -0.1495 -0.9565
vn 0.6702 -0.5564 0.4911
vn 0.8227 0.4919 0.2850
vn -0.0969 -0.9911 0.0915
vn 0.8271 0.0525 -0.5596
vn 0.5923 0.3748 0.7132
vn -0.7859 0.0372 0.6173
vn 0.7856 -0.1271 0.6055
vn 0.7006 0.6645 -0.2601
vn -0.7078 0.2474 0.6617
vn -0.2726 0.1141 0.9553
vn 0.2999 -0.9001 0.3159
vn -0.5893 -0.4816 0.6487
vn 0.3836 -0.7857 -0.4853
vn -0.4471 -0.8939 0.0329
vn 0.4611 -0.8838 -0.0793
vn -0.6147 0.7808 -0.1117
vn 0.6323 0.0734 -0.7713
vn -0.6323 0.0737 -0.7712
vn 0.7349 -0.2915 0.6124
vn -0.0274 -0.5499 0.8348
vn 0.5038 0.6111 -0.6105
vn -0.9627 0.2697 -0.0206
vn 0.3339 -0.4654 0.8197
vn -0.8781 0.4637 -0.1178
vn -0.1396 -0.0821 0.9868
vn 0.6580 0.6509 -0.3785
vn -0.9860 -0.1421 0.0872
vn -0.8914 -0.0513 0.4503
vn 0.4877 0.8719 -0.0445
vn -0.7995 -0.1864 0.5710
vn -0.0388 -0.5351 0.8439
vn -0.5171 0.2325 0.8237
vn -0.7787 -0.3800 0.4992
vn 0.8758 -0.0948 -0.4733
vn 0.5540 0.0315 -0.8319
vn 0.6810 -0.6358 0.3633
vn -0.1846 -0.9557 0.2292
vn -0.8729 0.1799 -0.4536
vn 0.9516 -0.2099 -0.2245
vn 0.2651 -0.9614 0.0742
vn 0.5820 0.0779 -0.8094
vn -0.6474 -0.4256 0.6323
vn 0.3457 0.1187 0.9308
vn 0.6564 0.6525 -0.3787
vn 0.9440 -0.3262 -0.0499
vn -0.7521 0.1630 0.6386
vn -0.6562 -0.1083 0.7468
vn 0.7369 -0.4433 0.5104
vn 0.7085 -0.5937 0.3815
vn 0.0058 0.9464 -0.3228
vn -0.6070 -0.0833 -0.7903
vn -0.9319 0.3154 -0.1791
vn -0.8663 -0.1319 -0.4818
vn -0.9483 0.1505 0.2795
vn 0.7736 0.1745 -0.6091
vn -0.2719 0.8600 0.4319
vn 0.6557 0.7348 -0.1734
vn -0.9830 0.1771 0.0475
vn 0.3910 -0.8534 0.3447
vn -0.6481 0.1119 -0.7533
vn 0.1594 -0.6286 -0.7612
vn -0.3120 -0.9468 -0.0789
vn -0.7437 0.1413 -0.6534
vn -0.9014 0.0127 -0.4327
vn 0.8447 -0.1658 0.5088
vn 0.2404 -0.3907 0.8886
vn 0.8755 -0.2854 0.3900
vn -0.2164 -0.9714 0.0975
vn -0.9985 0.0547 0.0045
vn 0.7973 0.1733 0.5782
vn 0.9923 -0.0140 -0.1229
vn -0.0600 0.9625 -0.2646
vn 0.4387 -0.3869 -0.8111
vn -0.9849 -0.0882 -0.1492
vn -0.0032 0.9481 -0.3180
vn 0.2463 0.9483 0.1999
vn -0.1420 0.8887 -0.4360
vn 0.7710 -0.6022 -0.2074
vn -0.9887 0.0312 -0.1468
vn 0.7930 -0.5735 0.2054
vn 0.9414 0.2044 -0.2682
vn -0.6190 0.7713 -0.1479
vn 0.3121 -0.9416 0.1262
vn -0.2870 0.9086 0.3034
vn 0.3634 -0.9245 -0.1148
vn 0.9190 0.0267 -0.3934
vn -0.2103 0.0184 0.9775
vn -0.0915 -0.9957 -0.0161
vn -0.9914 0.0165 -0.1297
vn -0.8990 -0.4284 0.0907
vn 0.3413 0.6904 0.6379
vn -0.1462 -0.6348 -0.7587
vn 0.7601 -0.0113 0.6497
vn 0.1971 0.6631 -0.7221
vn 0.4742 -0.8766 0.0824
vn -0.8260 -0.0690 0.5594
vn -0.0626 -0.0912 -0.9939
vn 0.4223 0.2034 0.8834
vn 0.4315 -0.5820 -0.6893
vn -0.9772 -0.1306 0.1671
vn -0.3324 -0.8881 -0.3173
vn -0.9406 -0.2990 0.1610
vn 0.4025 -0.9135 -0.0593
vn -0.0058 -0.8627 -0.5058
vn 0.1473 -0.4427 0.8845
vn -0.9828 0.0083 0.1844
vn 0.6790 0.7250 -0.1154
vn 0.6459 -0.4748 0.5978
vn -0.6960 0.5981 -0.3973
vn 0.8682 -0.3513 -0.3505
vn -0.4945 0.6411 -0.5869
vn -0.6652 0.5397 -0.5159
vn 0.1170 -0.5363 0.8359
vn -0.8335 -0.5036 -0.2273
vn -0.0322 0.9432 -0.3306
vn 0.7944 0.0087 0.6073
vn 0.6760 0.6394 -0.3663
vn -0.9882 0.1344 -0.0736
vn 0.2274 -0.9501 0.2137
vn -0.2860 0.8444 0.4530
vn -0.6076 0.4952 0.6209
vn -0.8957 -0.0283 0.4438
vn -0.4711 -0.8802 0.0576
vn -0.9485 0.3151 0.0323
vn 0.9154 0.1398 -0.3775
vn -0.8200 -0.5721 -0.0171
vn -0.9811 -0.1895 -0.0382
vn -0.5486 0.7828 -0.2936
vn 0.9259 -0.3528 -0.1350
vn 0.3092 -0.3177 0.8963
vn -0.6114 -0.7529 0.2436
vn -0.9206 0.3896 -0.0261
vn 0.2315 -0.0199 -0.9726
vn 0.1007 -0.5516 0.8280
vn -0.2623 -0.4670 0.8445
vn 0.0828 -0.9725 0.2176
vn -0.1515 -0.7356 0.6603
vn 0.8138 -0.3659 0.4515
vn 0.3133 -0.5297 0.7882
vn 0.1699 -0.9823 -0.0790
vn 0.9371 -0.2373 0.2561
vn 0.9532 0.2001 0.2268
vn 0.7289 0.2191 -0.6486
vn -0.8635 -0.4945 -0.0997
vn 0.8323 -0.4446 0.3310
vn 0.4699 0.1869 -0.8627
vn 0.1165 -0.0370 0.9925
vn -0.7944 0.0087 0.6073
vn 0.0104 -0.9201 -0.3916
vn 0.9758 0.1613 -0.1479
vn 0.1659 -0.9194 0.3566
vn -0.6221 0.7634 -0.1737
vn 0.2607 -0.3370 -0.9047
vn -0.9940 -0.0113 -0.1088
vn 0.9370 0.1411 -0.3195
vn -0.6004 0.6217 -0.5030
vn 0.2196 0.3135 0.9239
vn -0.7139 0.2079 0.6686
vn 0.8239 -0.5632 0.0638
vn -0.7786 -0.5891 -0.2164
vn 0.1278 -0.1806 -0.9752
vn -0.3005 0.6859 0.6627
vn -0.2758 -0.9497 0.1485
vn -0.0118 -0.5047 -0.8632
vn 0.2965 0.9129 0.2804
vn 0.8069 -0.4951 -0.3222
vn -0.8024 -0.0564 0.5941
vn 0.8202 -0.3567 0.4473
vn 0.1055 -0.9941 -0.0239
vn 0.5601 0.3938 -0.7289
vn 0.1005 -0.9717 0.2139
vn 0.9143 -0.2928 0.2798
vn 0.9571 0.0950 -0.2738
vn 0.5612 -0.5336 0.6327
vn 0.6083 0.7516 -0.2549
vn 0.2856 -0.7421 0.6063
vn 0.6424 0.5389 -0.5448
vn 0.2216 -0.8698 -0.4408
vn 0.6664 0.3103 0.6779
vn 0.7917 -0.5143 -0.3297
vn 0.6832 0.6535 -0.3258
vn -0.0322 -0.8709 -0.4904
vn 0.0635 -0.7462 0.6627
vn 0.6481 0.1119 -0.7533
vn 0.1324 0.9559 -0.2622
vn -0.8113 -0.0944 0.5770
vn 0.9591 -0.0568 0.2773
vn 0.8957 -0.0283 0.4438
vn 0.9691 -0.0380 -0.2436
vn -0.9574 -0.2537 0.1381
vn 0.9780 0.1539 -0.1410
vn 0.6430 0.5393 -0.5438
vn -0.2006 -0.9642 0.1735
vn 0.9655 -0.1575 0.2076
vn -0.8782 -0.2000 0.4344
vn -0.8116 0.1789 -0.5561
vn 0.1973 -0.8888 0.4136
vn 0.9302 -0.2020 -0.3065
vn -0.2423 -0.4952 0.8343
vn 0.6136 0.5408 -0.5754
vn -0.8040 0.2019 0.5593
vn 0.9231 0.0267 0.3836
vn 0.8530 0.1981 0.4828
vn -0.7030 -0.4772 0.5273
vn -0.7030 0.7091 -0.0546
vn 0.9478 0.2999 -0.1081
vn 0.3731 0.8681 -0.3274
vn 0.8516 0.4583 -0.2545
vn -0.2504 -0.0063 -0.9681
vn 0.6485 -0.7356 0.1959
vn 0.8322 -0.5487 -0.0793
vn -0.1686 0.7026 -0.6913
vn 0.8782 0.4376 -0.1932
vn -0.4793 0.8176 -0.3192
vn 0.2857 -0.5734 0.7679
vn -0.7289 0.2191 -0.6486
vn 0.5027 -0.3605 -0.7857
vn 0.4404 0.8041 0.3993
vn -0.4249 -0.9042 -0.0430
vn 0.9082 -0.1312 -0.3975
vn 0.5314 0.1462 -0.8344
vn 0.9995 -0.0267 -0.0184
vn -0.9861 -0.1449 0.0810
vn 0.8959 0.4012 0.1908
vn 0.9517 0.2049 -0.2288
vn -0.9442 -0.2947 -0.1472
vn 0.9769 -0.1881 0.1019
vn -0.7877 -0.2557 0.5604
vn -0.9890 0.0517 -0.1387
vn -0.6334 0.1066 -0.7665
vn -0.3771 -0.7853 -0.4909
vn 0.0626 -0.0912 -0.9939
vn -0.9884 -0.0191 0.1507
vn -0.9720 -0.2337 0.0260
vn 0.6696 0.0621 0.7402
vn 0.3899 -0.4861 -0.7821
vn 0.7935 0.1484 0.5902
vn 0.3474 -0.7515 0.5609
vn -0.9954 0.0528 -0.0804
vn 0.3183 -0.6622 0.6783
vn 0.7621 0.2005 -0.6156
vn -0.0251 -0.7057 0.7080
vn 0.0862 0.9505 -0.2986
vn -0.6563 0.5373 -0.5297
vn -0.4359 0.3470 0.8304
vn 0.3769 -0.9167 0.1329
vn 0.9907 0.0370 -0.1307
vn 0.3851 -0.9228 0.0101
vn -0.0288 -0.2100 0.9773
vn -0.9470 -0.2843 0.1494
vn 0.5746 0.1652 0.8016
vn 0.6698 0.7181 -0.1888
vn 0.1660 -0.1376 -0.9765
vn -0.1743 -0.1272 -0.9764
vn -0.8386 0.2613 -0.4780
vn -0.7504 0.1273 0.6486
vn -0.7242 -0.6594 0.2019
vn -0.8658 -0.3150 0.3889
vn -0.2999 -0.9001 0.3159
vn 0.3083 0.5771 0.7562
vn 0.9451 -0.1016 -0.3105
vn -0.4799 -0.7428 -0.4668
vn -0.4155 -0.8930 -0.1727
vn 0.0681 -0.2679 -0.9610
vn 0.1257 -0.9133 -0.3875
vn -0.8340 0.3154 -0.4526
vn 0.0315 0.8468 -0.5309
vn 0.9625 -0.2019 0.1810
vn 0.9777 -0.1292 0.1655
vn 0.8399 -0.2778 0.4663
vn -0.9867 0.0252 0.1608
vn -0.4620 0.8513 -0.2485
vn -0.2379 -0.6192 0.7483
vn -0.0282 -0.5144 -0.8571
vn 0.9896 -0.0387 0.1384
vn -0.6145 -0.3206 0.7208
vn 0.3422 -0.9122 -0.2254
vn -0.8000 -0.5361 -0.2695
vn -0.9881 0.0320 0.1504
vn 0.2549 0.6081 0.7518
vn 0.3048 -0.4774 0.8241
vn -0.7064 0.6531 -0.2728
vn -0.5694 -0.2983 0.7661
vn -0.5388 -0.5455 0.6419
vn -0.1047 0.8966 -0.4302
vn -0.1646 -0.1351 -0.9771
vn 0.4443 -0.8920 -0.0838
vn 0.9560 -0.2569 0.1418
vn 0.8587 -0.2751 0.4324
vn 0.8950 -0.4380 0.0847
vn 0.8446 0.3784 -0.3788
vn -0.9879 -0.0211 0.1539
vn -0.9403 0.1829 -0.2871
vn -0.2433 -0.9654 0.0942
vn 0.6004 0.6217 -0.5030
vn -0.2438 -0.5523 -0.7972
vn -0.5594 -0.6748 0.4813
vn -0.9901 0.0054 0.1402
vn -0.5679 0.1032 -0.8166
vn 0.8104 0.0043 -0.5859
vn -0.5974 -0.3874 0.7021
vn 0.5429 0.8355 -0.0848
vn 0.9937 -0.0160 -0.1110
vn 0.9585 0.2685 -0.0959
vn 0.8750 -0.0422 0.4824
vn -0.3183 -0.6622 0.6783
vn 0.7885 0.3377 -0.5140
vn 0.5927 -0.8047 0.0327
vn 0.8981 -0.4025 0.1774
vn -0.4877 -0.5246 0.6978
vn 0.6582 0.4132 0.6294
vn 0.4321 0.7172 0.5467
vn 0.7487 0.2673 0.6066
vn 0.7445 -0.0456 -0.6661
vn 0.9165 0.3271 0.2302
vn -0.7283 -0.4295 0.5340
vn 0.8469 -0.0443 0.5300
vn 0.9849 0.0801 -0.1538
vn -0.6507 -0.2823 0.7049
vn 0.9669 0.1608 0.1979
vn -0.9781 0.1062 -0.1788
vn 0.9188 0.3784 -0.1122
vn 0.3542 0.9173 -0.1821
vn -0.9555 -0.1860 -0.2288
vn 0.6710 -0.1075 0.7336
vn 0.7585 0.2570 -0.5989
vn 0.6193 -0.0812 -0.7809
vn -0.6513 0.7284 -0.2127
vn -0.2303 -0.8760 -0.4237
vn 0.3722 0.2178 0.9022
vn 0.7263 0.4630 0.5081
vn -0.9100 0.2790 0.3067
vn 0.4554 0.2053 0.8663
vn -0.7154 -0.5933 0.3690
vn 0.8710 -0.0613 0.4875
vn -0.0815 -0.4705 -0.8787
vn 0.6008 -0.6908 0.4023
vn -0.7707 -0.3735 0.5163
vn -0.9568 0.1054 -0.2710
vn 0.7242 -0.6594 0.2019
vn 0.9801 -0.0593 0.1893
vn 0.3517 -0.9092 -0.2227
vn -0.7866 -0.3583 0.5029
vn 0.1610 -0.0827 0.9835
vn 0.2164 -0.5353 0.8165
vn -0.3597 0.1927 0.9129
vn -0.4157 -0.3238 0.8499
vn -0.7344 0.6464 -0.2067
vn 0.9786 0.1021 0.1786
vn -0.4309 0.7922 0.4323
vn -0.2934 -0.1016 0.9506
vn -0.3190 -0.3449 -0.8828
vn 0.9967 0.0041 0.0806
vn 0.8867 0.0851 -0.4545
vn 0.9960 0.0013 0.0898
vn -0.1610 0.1794 -0.9705
vn -0.6880 -0.5740 0.4440
vn 0.5335 -0.0847 0.8416
vn -0.7521 -0.0676 -0.6556
vn 0.6431 0.6602 -0.3880
vn -0.3680 0.7347 -0.5699
vn -0.9752 -0.2024 -0.0901
vn 0.1306 -0.9880 0.0829
vn -0.7180 0.4084 -0.5637
vn 0.6725 0.2499 0.6966
vn 0.4634 -0.7299 -0.5025
vn -0.4879 -0.3996 -0.7760
vn -0.4970 -0.5481 0.6727
vn 0.4704 0.6452 -0.6021
vn 0.9887 0.0312 -0.1468
vn 0.9381 -0.2689 -0.2184
vn 0.2719 0.8600 0.4319
vn -0.5230 0.1307 0.8423
vn -0.0236 -0.9981 -0.0569
vn 0.2255 -0.9608 0.1611
vn 0.8381 0.2244 0.4972
vn -0.9945 -0.0893 -0.0547
vn -0.0577 -0.9739 0.2197
vn 0.7645 0.4678 -0.4435
vn 0.5261 -0.8453 -0.0931
vn -0.3527 0.2390 -0.9047
vn 0.5036 -0.4491 0.7380
vn 0.9772 -0.2070 -0.0477
vn -0.9517 -0.2072 -0.2265
vn 0.4627 0.6246 -0.6291
vn 0.8814 0.4291 -0.1976
vn 0.9708 0.0910 -0.2219
vn -0.8193 0.3558 0.4496
vn 0.0190 -0.4758 -0.8794
vn -0.9969 -0.0540 0.0571
vn -0.6216 0.2927 0.7266
vn 0.3981 -0.4344 0.8079
vn 0.9254 -0.0378 0.3771
vn -0.5038 0.6111 -0.6105
vn 0.5168 -0.8511 -0.0921
vn -0.8963 0.4192 -0.1448
vn -0.9190 0.0267 -0.3934
vn 0.9592 -0.0341 0.2808
vn 0.5813 0.1458 0.8005
vn 0.9097 0.2104 -0.3580
vn -0.2508 -0.9680 0.0090
vn 0.5713 0.2475 0.7826
vn -0.6966 0.7054 -0.1312
vn -0.5663 -0.8206 0.0766
vn -0.7224 0.0228 0.6911
vn -0.7674 -0.2174 0.6032
vn -0.6583 0.2688 0.7032
vn 0.8390 0.4986 0.2180
vn -0.9545 -0.1888 -0.2307
vn 0.9788 -0.0306 -0.2028
vn -0.6395 -0.3480 0.6855
vn 0.9750 -0.1988 -0.0989
vn 0.1541 -0.9876 0.0292
vn 0.8654 0.0373 -0.4996
vn -0.6803 -0.3468 0.6457
vn -0.0036 0.9978 -0.0658
vn -0.4662 -0.5943 -0.6553
vn -0.7947 -0.3004 0.5275
vn 0.5199 -0.3541 -0.7774
vn 0.7449 -0.4101 0.5263
vn -0.3752 0.7983 0.4711
vn -0.3242 -0.9243 0.2016
vn -0.3366 0.8503 0.4047
vn -0.2660 0.5692 0.7780
vn 0.6901 -0.5460 0.4751
vn 0.7382 0.0690 0.6710
vn -0.9122 -0.0013 0.4098
vn -0.1447 -0.1017 0.9842
vn 0.5594 -0.6748 0.4813
vn -0.9866 0.0855 -0.1393
vn 0.6985 -0.0206 0.7153
vn 0.5550 0.0292 -0.8313
vn -0.8956 0.3080 -0.3211
vn 0.2496 -0.9650 0.0799
vn -0.9320 0.3440 -0.1143
vn 0.7981 0.4131 -0.4387
vn -0.0764 -0.7017 0.7084
vn -0.9723 -0.0185 0.2328
vn 0.9143 0.1147 -0.3885
vn 0.6814 0.7242 -0.1061
vn -0.7792 -0.1152 0.6161
vn 0.8782 0.4760 0.0465
vn 0.2975 0.9358 -0.1893
vn 0.8667 -0.4707 -0.1651
vn 0.7370 -0.4413 0.5119
vn 0.5956 0.0846 -0.7988
vn 0.8663 -0.1319 -0.4818
vn -0.9749 -0.0539 0.2158
vn 0.7019 0.2874 0.6517
vn -0.9205 0.0597 -0.3862
vn 0.3591 -0.9075 -0.2179
vn -0.8221 0.0304 -0.5686
vn 0.9831 0.0110 -0.1825
vn 0.5213 -0.3402 0.7826
vn 0.6444 -0.2345 0.7279
vn -0.0324 0.8339 -0.5510
vn 0.9417 -0.0563 -0.3317
vn -0.2184 -0.7484 0.6262
vn -0.9339 -0.0601 0.3524
vn -0.3444 -0.9345 -0.0896
vn 0.7322 0.6270 -0.2662
vn 0.6816 -0.3827 0.6237
vn 0.2413 -0.9536 0.1800
vn -0.7869 0.4932 -0.3709
vn 0.1082 -0.2081 0.9721
vn -0.3919 0.9070 -0.1539
vn -0.8025 -0.4857 0.3465
vn 0.8240 0.2038 -0.5286
vn 0.9413 0.3084 0.1375
vn -0.9403 -0.2278 0.2529
vn 0.9777 0.0423 -0.2059
vn 0.7739 0.0338 0.6324
vn 0.9358 -0.0139 0.3521
vn -0.5970 -0.7674 0.2336
vn -0.9107 -0.4131 0.0051
vn 0.7983 -0.5822 0.1544
vn -0.0723 -0.4770 -0.8759
vn -0.7840 -0.3859 0.4863
vn 0.7759 -0.5894 -0.2248
vn 0.4877 0.3597 0.7955
vn -0.9746 -0.1271 0.1842
vn 0.9747 0.2237 -0.0031
vn 0.0102 -0.8697 0.4934
vn 0.7930 -0.3986 0.4607
vn 0.9707 -0.1755 -0.1638
vn -0.4810 -0.7942 0.3713
vn 0.9470 -0.2843 0.1494
vn 0.0028 -0.9959 -0.0901
vn -0.3282 0.9305 -0.1625
vn 0.9240 -0.1889 -0.3324
vn 0.8272 -0.1956 0.5268
vn 0.3198 -0.7301 0.6039
vn -0.5407 0.1777 -0.8222
vn 0.8399 0.4840 -0.2457
vn -0.8945 -0.3705 0.2503
vn -0.9358 -0.3519 0.0211
vn -0.7796 -0.2893 0.5555
vn -0.8777 -0.0039 0.4793
vt 0.793893 0.811035
vt 0.733986 0.647144
vt 0.654509 0.794346
vt 0.904509 0.802353
vt 0.637534 0.635601
vt 0.530617 0.607635
vt 0.500000 0.753937
vt 0.876608 0.580494
vt 0.859674 0.618176
vt 0.975529 0.769161
vt 0.000000 0.714703
vt 0.810530 0.641144
vt 0.494886 0.330135
vt 0.549539 0.344433
vt 0.530617 0.328053
vt 0.604192 0.365723
vt 0.423700 0.300087
vt 0.327249 0.288544
vt 0.445583 0.324238
vt 0.637534 0.369709
vt 0.653495 0.391926
vt 0.692622 0.420471
vt 0.810530 0.476807
vt 0.717743 0.448570
vt 0.733986 0.420963
vt 0.201560 0.403915
vt 0.381335 0.383205
vt 0.184626 0.355206
vt 0.372679 0.358311
vt 0.250704 0.458881
vt 0.406456 0.411304
vt 0.327249 0.514725
vt 0.381335 0.339043
vt 0.250704 0.294548
vt 0.406456 0.327301
vt 0.201560 0.317513
vt 0.859674 0.531780
vt 0.555940 0.398312
vt 0.726400 0.473465
vt 0.692622 0.504471
vt 0.717743 0.492729
vt 0.653495 0.507542
vt 0.604192 0.501640
vt 0.445583 0.439854
vt 0.494886 0.466053
vt 0.549539 0.487347
vt 0.095491 0.301487
vt 0.206107 0.292805
vt 0.024472 0.334679
vt 0.345492 0.309490
vt 0.500000 0.349903
vt 0.654509 0.410099
vt 0.206107 0.619667
vt 0.345492 0.693741
vt 0.095491 0.538963
vt 0.423700 0.565987
vt 0.024472 0.459526
vt 0.000000 0.389137
vt 0.904509 0.564873
vt 0.975529 0.644310
vt 0.793893 0.484169
vt 0.000000 1.000000
vt 0.273600 0.473465
vt 0.123392 0.580494
vt 0.282257 0.492729
vt 0.024471 0.644310
vt 0.140326 0.618176
vt 0.307378 0.504471
vt 0.189470 0.641144
vt 0.140326 0.531780
vt 0.266014 0.420963
vt 0.206107 0.484169
vt 0.189470 0.476807
vt 0.345491 0.410099
vt 0.095491 0.564873
vt 0.576300 0.565987
vt 0.505114 0.466053
vt 0.469383 0.607635
vt 0.450461 0.487347
vt 0.672751 0.514725
vt 0.554417 0.439854
vt 0.593544 0.411304
vt 0.362466 0.635601
vt 0.395808 0.501640
vt 0.346505 0.507542
vt 0.266014 0.647144
vt 0.362466 0.369709
vt 0.798440 0.403915
vt 0.749296 0.458881
vt 0.975528 0.459526
vt 0.904509 0.538963
vt 0.815374 0.355206
vt 0.975528 0.334679
vt 0.654508 0.693741
vt 0.793893 0.619667
vt 0.576300 0.300087
vt 0.654508 0.309490
vt 0.469383 0.328053
vt 0.672751 0.288544
vt 0.793893 0.292805
vt 0.798440 0.317513
vt 0.749296 0.294548
vt 0.904509 0.301487
vt 0.444060 0.398312
vt 0.618665 0.383205
vt 0.282257 0.448570
vt 0.395808 0.365723
vt 0.346505 0.391926
vt 0.450461 0.344433
vt 0.307378 0.420471
vt 0.505114 0.330135
vt 0.627321 0.358311
vt 0.618665 0.339043
vt 0.593544 0.327301
vt 0.554417 0.324238
vt 0.095491 0.802353
vt 0.024471 0.769161
vt 0.345491 0.794346
vt 0.206107 0.811035
vt 0.531129 0.863455
vt 0.528598 0.862678
vt 0.529701 0.861377
vt 0.530028 0.864496
vt 0.532449 0.864504
vt 0.554833 0.852302
vt 0.535964 0.857423
vt 0.554115 0.862847
vt 0.527653 0.863068
vt 0.533337 0.860528
vt 0.534939 0.862031
vt 0.531751 0.858482
vt 0.533744 0.855085
vt 0.535657 0.858520
vt 0.537437 0.859975
vt 0.530356 0.847231
vt 0.465756 0.730456
vt 0.464280 0.731015
vt 0.466272 0.734068
vt 0.468310 0.733388
vt 0.464779 0.728223
vt 0.462719 0.728340
vt 0.462606 0.727787
vt 0.464037 0.730013
vt 0.465977 0.733427
vt 0.464885 0.735427
vt 0.463767 0.732595
vt 0.465331 0.736822
vt 0.463567 0.731622
vt 0.533015 0.861030
vt 0.528781 0.860447
vt 0.530131 0.864549
vt 0.530881 0.856491
vt 0.531355 0.865489
vt 0.534491 0.861890
vt 0.526887 0.856207
vt 0.527647 0.863272
vt 0.528726 0.864638
vt 0.526403 0.862717
vt 0.525618 0.860881
vt 0.526164 0.858016
vt 0.536721 0.859365
vt 0.468862 0.749484
vt 0.466293 0.747780
vt 0.466377 0.748286
vt 0.467102 0.749259
vt 0.467253 0.750763
vt 0.470042 0.751312
vt 0.469399 0.753101
vt 0.469928 0.750509
vt 0.463993 0.748347
vt 0.465755 0.751317
vt 0.467367 0.753944
vt 0.471307 0.756222
vt 0.464995 0.721450
vt 0.464829 0.720767
vt 0.463109 0.721688
vt 0.462921 0.720778
vt 0.464423 0.724210
vt 0.465870 0.723530
vt 0.464627 0.728363
vt 0.464023 0.722561
vt 0.465068 0.754195
vt 0.464674 0.751874
vt 0.466630 0.753166
vt 0.463722 0.724297
vt 0.465564 0.722267
vt 0.463941 0.725445
vt 0.463960 0.747882
vt 0.467324 0.729442
vt 0.468962 0.731820
vt 0.464679 0.727808
vt 0.468861 0.731404
vt 0.465570 0.729689
vt 0.468613 0.734441
vt 0.465745 0.749335
vt 0.459061 0.781790
vt 0.459779 0.802539
vt 0.459863 0.804904
vt 0.459175 0.785141
vt 0.459751 0.801754
vt 0.459456 0.793305
vt 0.459271 0.787929
vt 0.459472 0.793767
vt 0.459704 0.800426
vt 0.459315 0.789211
vt 0.458776 0.773334
vt 0.458807 0.774253
vt 0.459830 0.803985
vt 0.489859 0.811437
vt 0.490517 0.812575
vt 0.493013 0.812944
vt 0.492379 0.807917
vt 0.492492 0.807826
vt 0.490244 0.811723
vt 0.495164 0.807698
vt 0.493132 0.810665
vt 0.494834 0.807444
vt 0.490710 0.812847
vt 0.492924 0.813826
vt 0.497867 0.810534
vt 0.497474 0.813438
vt 0.460224 0.765039
vt 0.460206 0.763084
vt 0.462560 0.806586
vt 0.461784 0.810371
vt 0.461888 0.813254
vt 0.462269 0.795070
vt 0.460502 0.773340
vt 0.461874 0.784919
vt 0.461843 0.811999
vt 0.460939 0.786261
vt 0.460749 0.780687
vt 0.461206 0.794016
vt 0.461693 0.807861
vt 0.529650 0.858487
vt 0.526305 0.855364
vt 0.526229 0.858659
vt 0.525366 0.858400
vt 0.526985 0.861113
vt 0.527069 0.853356
vt 0.527847 0.860249
vt 0.525730 0.856066
vt 0.499012 0.806119
vt 0.499163 0.808047
vt 0.496863 0.805659
vt 0.504007 0.807601
vt 0.498517 0.806656
vt 0.503584 0.806797
vt 0.496949 0.812909
vt 0.499654 0.812986
vt 0.502654 0.810875
vt 0.503507 0.809186
vt 0.592808 0.531743
vt 0.588217 0.538940
vt 0.588077 0.539594
vt 0.592974 0.532605
vt 0.590410 0.541266
vt 0.605476 0.579748
vt 0.598681 0.549994
vt 0.597732 0.577716
vt 0.594369 0.536410
vt 0.588024 0.579111
vt 0.613173 0.625620
vt 0.612434 0.624340
vt 0.615779 0.621909
vt 0.615986 0.622776
vt 0.613896 0.614147
vt 0.608878 0.593579
vt 0.610395 0.618277
vt 0.610344 0.599562
vt 0.598719 0.597518
vt 0.603627 0.617616
vt 0.594111 0.535248
vt 0.585780 0.562762
vt 0.596633 0.544739
vt 0.581263 0.552818
vt 0.580933 0.565246
vt 0.599718 0.607532
vt 0.614994 0.618664
vt 0.603411 0.571398
vt 0.597228 0.579381
vt 0.580859 0.579665
vt 0.580881 0.588312
vt 0.586239 0.595329
vt 0.580956 0.598184
vt 0.581140 0.610011
vt 0.587471 0.612386
vt 0.580948 0.566627
vt 0.581636 0.543142
vt 0.601569 0.621008
vt 0.581399 0.548416
vt 0.581728 0.542511
vt 0.581694 0.543940
vt 0.584418 0.618966
vt 0.581248 0.618567
vt 0.581152 0.616172
vt 0.580876 0.599332
vt 0.585356 0.616338
vt 0.553521 0.602831
vt 0.553331 0.610777
vt 0.554511 0.593339
vt 0.555736 0.583825
vt 0.553636 0.612485
vt 0.553687 0.602899
vt 0.553489 0.615268
vt 0.459452 0.491871
vt 0.461213 0.485382
vt 0.459485 0.489932
vt 0.461044 0.486468
vt 0.459778 0.492442
vt 0.459359 0.494423
vt 0.461493 0.488154
vt 0.464758 0.479439
vt 0.558504 0.553826
vt 0.556735 0.572716
vt 0.557625 0.559726
vt 0.580730 0.586609
vt 0.597048 0.573565
vt 0.589612 0.566365
vt 0.599269 0.554858
vt 0.558814 0.552734
vt 0.580750 0.575909
vt 0.555956 0.581021
vt 0.557629 0.569465
vt 0.554660 0.591882
vt 0.558917 0.553838
vt 0.558344 0.559956
vt 0.466992 0.735881
vt 0.471686 0.736523
vt 0.471154 0.735844
vt 0.467543 0.732415
vt 0.469038 0.734202
vt 0.465755 0.732520
vt 0.464910 0.730942
vt 0.468204 0.735019
vt 0.462924 0.731477
vt 0.463785 0.734862
vt 0.464875 0.736583
vt 0.472383 0.739772
vt 0.467083 0.750025
vt 0.472789 0.754060
vt 0.465694 0.724813
vt 0.464362 0.726914
vt 0.467043 0.757209
vt 0.465055 0.731428
vt 0.469008 0.724611
vt 0.468395 0.726339
vt 0.467362 0.722205
vt 0.466053 0.734327
vt 0.468842 0.723927
vt 0.468423 0.726290
vt 0.462756 0.730786
vt 0.464215 0.732819
vt 0.466077 0.735332
vt 0.468792 0.735891
vt 0.600823 0.620456
vt 0.472127 0.728869
vt 0.609379 0.623288
vt 0.609476 0.623840
vt 0.471595 0.729530
vt 0.471495 0.728278
vt 0.469804 0.729461
vt 0.467500 0.728924
vt 0.472618 0.739591
vt 0.466378 0.738958
vt 0.464850 0.738342
vt 0.471066 0.739817
vt 0.469530 0.739997
vt 0.492385 0.780119
vt 0.495290 0.787243
vt 0.496036 0.784173
vt 0.491154 0.779002
vt 0.491169 0.779490
vt 0.484620 0.782489
vt 0.478875 0.782885
vt 0.483299 0.800267
vt 0.473516 0.783857
vt 0.474509 0.805198
vt 0.491185 0.779437
vt 0.490127 0.754648
vt 0.488711 0.757775
vt 0.487882 0.782818
vt 0.490626 0.800192
vt 0.492957 0.791536
vt 0.487404 0.808726
vt 0.486815 0.799901
vt 0.510317 0.819697
vt 0.506778 0.810402
vt 0.499845 0.801958
vt 0.483049 0.769613
vt 0.478757 0.763906
vt 0.477157 0.773097
vt 0.506264 0.803765
vt 0.485902 0.782701
vt 0.475770 0.815443
vt 0.487478 0.764879
vt 0.468327 0.763951
vt 0.468299 0.777805
vt 0.485796 0.766729
vt 0.479135 0.759770
vt 0.477878 0.735780
vt 0.477869 0.740706
vt 0.464715 0.728123
vt 0.467168 0.742654
vt 0.478074 0.743827
vt 0.478420 0.746287
vt 0.483856 0.741013
vt 0.481465 0.745903
vt 0.466678 0.742061
vt 0.480832 0.753289
vt 0.482355 0.739235
vt 0.477035 0.736540
vt 0.464418 0.730839
vt 0.479296 0.732786
vt 0.491357 0.782225
vt 0.484142 0.752815
vt 0.489788 0.774510
vt 0.492829 0.789133
vt 0.485110 0.768799
vt 0.494941 0.783847
vt 0.482346 0.751802
vt 0.480720 0.763783
vt 0.474831 0.767088
vt 0.470071 0.782960
vt 0.468285 0.775035
vt 0.473047 0.792616
vt 0.477104 0.752145
vt 0.477999 0.732596
vt 0.499948 0.786343
vt 0.517379 0.794530
vt 0.512134 0.797455
vt 0.519892 0.848057
vt 0.532451 0.843359
vt 0.517744 0.815619
vt 0.537586 0.821761
vt 0.515349 0.835842
vt 0.532581 0.835305
vt 0.502797 0.825711
vt 0.494477 0.829329
vt 0.524531 0.827249
vt 0.502495 0.837962
vt 0.485221 0.804628
vt 0.480786 0.783342
vt 0.475997 0.815446
vt 0.525700 0.806306
vt 0.508952 0.802099
vt 0.509892 0.844218
vt 0.519580 0.802811
vt 0.538081 0.809172
vt 0.541405 0.799494
vt 0.518720 0.795088
vt 0.515910 0.791821
vt 0.499703 0.786625
vt 0.533903 0.796593
vt 0.502945 0.831977
vt 0.499967 0.834792
vt 0.501863 0.837698
vt 0.463758 0.765903
vt 0.461146 0.748328
vt 0.464004 0.756081
vt 0.459637 0.752229
vt 0.459467 0.741348
vt 0.506850 0.797565
vt 0.504079 0.839782
vt 0.492286 0.773966
vt 0.486594 0.753472
vt 0.488556 0.749590
vt 0.489924 0.749166
vt 0.495942 0.780935
vt 0.496808 0.781473
vt 0.468158 0.760414
vt 0.466905 0.746627
vt 0.498506 0.789177
vt 0.488541 0.754072
vt 0.488271 0.754618
vt 0.489151 0.749958
vt 0.496350 0.781759
vt 0.492187 0.775399
vt 0.554776 0.861800
vt 0.556046 0.865722
vt 0.555695 0.855838
vt 0.555129 0.847689
vt 0.555051 0.828840
vt 0.465133 0.783452
vt 0.466504 0.813755
vt 0.478230 0.825060
vt 0.475600 0.826146
vt 0.477985 0.824249
vt 0.473849 0.825912
vt 0.470472 0.823171
vt 0.463533 0.816453
vt 0.463302 0.814164
vt 0.477415 0.822225
vt 0.467802 0.795013
vt 0.468360 0.808736
vt 0.494655 0.804683
vt 0.489056 0.816451
vt 0.497993 0.794438
vt 0.496214 0.799692
s 0
usemtl Material.001
f 60/1/1 54/2/1 58/3/1
f 154/2/2 379/1/2 420/4/2
f 54/2/3 57/5/3 58/3/3
f 152/6/4 436/7/4 23/3/4
f 344/3/5 353/5/5 362/6/5
f 43/8/6 54/9/6 61/10/6
f 527/11/7 520/8/7 371/10/7
f 485/10/8 313/9/8 209/12/8
f 258/4/9 186/12/9 487/2/9
f 54/12/10 60/4/10 61/10/10
f 408/13/11 544/14/11 440/15/11
f 319/15/12 511/14/12 349/16/12
f 257/17/13 214/13/13 204/15/13
f 369/18/14 96/19/14 158/13/14
f 62/13/15 500/17/15 460/18/15
f 538/16/16 24/20/16 441/15/16
f 493/21/17 388/22/17 389/23/17
f 409/23/18 538/22/18 441/24/18
f 461/25/19 193/21/19 275/23/19
f 297/20/20 157/16/20 83/25/20
f 472/16/21 303/21/21 365/25/21
f 503/26/22 311/27/22 488/28/22
f 314/27/23 35/29/23 288/28/23
f 59/27/24 324/26/24 315/30/24
f 304/31/25 380/30/25 352/32/25
f 201/30/26 467/31/26 327/27/26
f 311/28/27 503/29/27 153/33/27
f 11/34/28 389/35/28 543/19/28
f 216/19/29 496/18/29 543/34/29
f 395/33/30 327/35/30 402/34/30
f 54/33/31 50/36/31 53/28/31
f 539/36/32 398/33/32 401/34/32
f 54/24/1 43/37/1 45/23/1
f 151/19/33 67/35/33 462/38/33
f 32/13/34 85/19/34 361/38/34
f 52/35/35 453/33/35 526/38/35
f 257/29/36 27/27/36 13/38/36
f 472/33/37 397/29/37 246/38/37
f 42/14/38 326/13/38 182/38/38
f 245/24/39 409/22/39 441/38/39
f 475/39/40 546/24/40 447/38/40
f 183/22/41 428/21/41 88/38/41
f 487/16/42 365/14/42 258/38/42
f 79/21/43 346/16/43 221/38/43
f 218/40/44 260/41/44 91/38/44
f 269/42/45 159/40/45 442/38/45
f 40/41/46 30/39/46 427/38/46
f 522/37/47 545/24/47 285/8/47
f 447/24/48 546/39/48 336/8/48
f 422/43/49 412/42/49 424/38/49
f 375/31/50 293/44/50 266/38/50
f 47/27/51 99/31/51 384/38/51
f 267/44/52 343/45/52 488/38/52
f 525/46/53 371/43/53 450/38/53
f 398/45/54 539/46/54 306/38/54
f 150/47/55 184/34/55 406/48/55
f 92/34/56 453/18/56 52/48/56
f 463/34/57 205/47/57 385/49/57
f 53/28/31 50/36/31 51/49/31
f 306/49/58 447/36/58 501/34/58
f 50/48/1 54/18/1 48/50/1
f 96/51/59 18/15/59 533/52/59
f 54/15/1 45/20/1 46/52/1
f 54/15/1 46/51/1 48/50/1
f 149/18/60 546/17/60 494/50/60
f 374/50/61 351/17/61 500/15/61
f 517/32/62 431/53/62 451/54/62
f 34/53/63 253/32/63 331/55/63
f 469/54/64 457/56/64 490/32/64
f 268/7/65 445/6/65 97/54/65
f 57/6/66 54/56/66 56/54/66
f 196/32/67 361/30/67 188/55/67
f 83/57/68 26/26/68 270/28/68
f 482/58/69 2/28/69 185/49/69
f 346/57/70 475/28/70 474/58/70
f 123/55/71 17/30/71 144/57/71
f 494/30/72 44/26/72 149/57/72
f 395/52/73 538/20/73 201/25/73
f 257/43/74 274/5/74 27/2/74
f 480/43/75 413/46/75 338/6/75
f 352/2/76 295/42/76 304/43/76
f 208/12/77 449/40/77 75/2/77
f 2/40/78 5/42/78 430/2/78
f 83/6/79 8/5/79 199/43/79
f 210/45/80 342/44/80 39/32/80
f 132/32/81 203/44/81 2/31/81
f 289/56/82 301/45/82 145/32/82
f 199/6/83 26/46/83 83/45/83
f 481/45/84 537/56/84 271/6/84
f 387/59/85 14/23/85 267/60/85
f 539/23/86 401/37/86 474/60/86
f 508/23/87 531/59/87 98/61/87
f 97/25/88 442/61/88 159/52/88
f 358/61/89 345/25/89 381/23/89
f 416/60/90 471/37/90 334/8/90
f 321/9/91 90/41/91 97/12/91
f 455/41/92 221/40/92 346/12/92
f 18/41/93 95/9/93 529/8/93
f 285/8/94 457/11/94 502/60/94
f 349/8/95 85/39/95 536/41/95
f 74/62/96 115/62/96 116/62/96
f 115/62/97 74/62/97 114/62/97
f 116/62/98 76/62/98 74/62/98
f 322/62/99 408/62/99 440/62/99
f 76/62/100 116/62/100 77/62/100
f 435/62/101 31/62/101 502/62/101
f 337/62/102 253/62/102 1/62/102
f 74/62/103 73/62/103 113/62/103
f 514/62/104 416/62/104 334/62/104
f 114/62/105 74/62/105 113/62/105
f 80/62/106 120/62/106 121/62/106
f 502/62/107 31/62/107 87/62/107
f 121/62/108 81/62/108 80/62/108
f 425/62/109 72/62/109 15/62/109
f 275/62/110 281/62/110 404/62/110
f 118/62/111 78/62/111 77/62/111
f 12/62/112 196/62/112 188/62/112
f 80/62/113 78/62/113 118/62/113
f 80/62/114 119/62/114 120/62/114
f 119/62/115 80/62/115 118/62/115
f 65/62/116 105/62/116 106/62/116
f 105/62/117 65/62/117 63/62/117
f 106/62/118 66/62/118 65/62/118
f 328/62/119 514/62/119 87/62/119
f 442/62/120 198/62/120 356/62/120
f 103/62/121 63/62/121 81/62/121
f 216/62/122 354/62/122 496/62/122
f 530/62/123 221/62/123 362/62/123
f 63/62/124 104/62/124 105/62/124
f 104/62/125 63/62/125 103/62/125
f 70/62/126 110/62/126 111/62/126
f 110/62/127 70/62/127 109/62/127
f 111/62/128 71/62/128 70/62/128
f 252/62/129 249/62/129 377/62/129
f 71/62/130 111/62/130 73/62/130
f 108/62/131 68/62/131 66/62/131
f 264/62/132 296/62/132 342/62/132
f 70/62/133 68/62/133 108/62/133
f 274/62/134 257/62/134 204/62/134
f 109/62/135 70/62/135 108/62/135
f 296/62/136 37/62/136 146/62/136
f 315/62/137 382/62/137 372/62/137
f 406/62/138 298/62/138 198/62/138
f 117/62/139 77/62/139 116/62/139
f 498/62/140 27/62/140 274/62/140
f 342/62/141 296/62/141 146/62/141
f 113/62/142 73/62/142 112/62/142
f 381/62/143 296/62/143 41/62/143
f 281/62/144 240/62/144 88/62/144
f 84/62/145 37/62/145 202/62/145
f 194/62/146 465/62/146 189/62/146
f 306/62/147 501/62/147 276/62/147
f 358/62/148 212/62/148 364/62/148
f 102/62/149 81/62/149 121/62/149
f 296/62/150 264/62/150 41/62/150
f 118/62/151 77/62/151 117/62/151
f 144/62/152 215/62/152 123/62/152
f 132/62/153 430/62/153 228/62/153
f 357/62/154 364/62/154 33/62/154
f 18/62/155 357/62/155 521/62/155
f 191/62/156 10/62/156 432/62/156
f 91/62/157 372/62/157 218/62/157
f 470/62/158 387/62/158 243/62/158
f 107/62/159 66/62/159 106/62/159
f 240/62/160 513/62/160 486/62/160
f 371/62/161 520/62/161 450/62/161
f 103/62/162 81/62/162 102/62/162
f 303/62/163 352/62/163 365/62/163
f 450/62/164 155/62/164 525/62/164
f 18/62/165 529/62/165 533/62/165
f 182/62/166 263/62/166 483/62/166
f 6/62/167 145/62/167 515/62/167
f 353/62/168 158/62/168 534/62/168
f 112/62/169 73/62/169 111/62/169
f 259/62/170 499/62/170 224/62/170
f 266/62/171 390/62/171 375/62/171
f 108/62/172 66/62/172 107/62/172
f 520/62/173 527/62/173 216/62/173
f 342/62/174 217/62/174 264/62/174
f 327/62/175 467/62/175 264/62/175
f 139/62/176 33/62/176 41/62/176
f 41/62/177 264/62/177 467/62/177
f 250/62/178 260/62/178 428/62/178
f 126/62/179 168/62/179 167/62/179
f 278/62/180 228/62/180 438/62/180
f 423/62/181 224/62/181 396/62/181
f 133/62/182 172/62/182 171/62/182
f 524/62/183 160/62/183 211/62/183
f 459/62/184 343/62/184 243/62/184
f 505/62/185 431/62/185 517/62/185
f 332/62/186 157/62/186 432/62/186
f 522/62/187 334/62/187 545/62/187
f 99/62/188 10/62/188 361/62/188
f 141/62/189 163/62/189 162/62/189
f 334/62/190 471/62/190 545/62/190
f 474/62/191 202/62/191 346/62/191
f 126/62/192 167/62/192 166/62/192
f 97/62/193 49/62/193 268/62/193
f 400/62/194 319/62/194 24/62/194
f 262/62/195 458/62/195 535/62/195
f 159/62/196 321/62/196 97/62/196
f 189/62/197 8/62/197 47/62/197
f 142/62/198 425/62/198 15/62/198
f 372/62/199 91/62/199 518/62/199
f 137/62/200 178/62/200 177/62/200
f 327/62/201 264/62/201 217/62/201
f 141/62/202 162/62/202 181/62/202
f 212/62/203 358/62/203 381/62/203
f 445/62/204 406/62/204 198/62/204
f 425/62/205 205/62/205 247/62/205
f 11/62/206 543/62/206 496/62/206
f 520/62/207 389/62/207 450/62/207
f 206/62/208 330/62/208 349/62/208
f 133/62/209 173/62/209 172/62/209
f 494/62/210 207/62/210 79/62/210
f 389/62/211 292/62/211 256/62/211
f 137/62/212 177/62/212 176/62/212
f 506/62/213 513/62/213 240/62/213
f 284/62/214 474/62/214 478/62/214
f 472/62/215 487/62/215 187/62/215
f 130/62/216 169/62/216 168/62/216
f 511/62/217 395/62/217 402/62/217
f 128/62/218 130/62/218 168/62/218
f 467/62/219 139/62/219 41/62/219
f 128/62/220 168/62/220 126/62/220
f 171/62/221 131/62/221 133/62/221
f 212/62/222 33/62/222 364/62/222
f 131/62/223 171/62/223 130/62/223
f 130/62/224 170/62/224 169/62/224
f 170/62/225 130/62/225 171/62/225
f 122/62/226 164/62/226 163/62/226
f 164/62/227 122/62/227 165/62/227
f 324/62/228 417/62/228 382/62/228
f 185/62/229 370/62/229 4/62/229
f 122/62/230 163/62/230 141/62/230
f 525/62/231 155/62/231 476/62/231
f 485/62/232 209/62/232 390/62/232
f 126/62/233 166/62/233 125/62/233
f 125/62/234 165/62/234 122/62/234
f 165/62/235 125/62/235 166/62/235
f 140/62/236 179/62/236 178/62/236
f 179/62/237 140/62/237 180/62/237
f 138/62/238 140/62/238 178/62/238
f 537/62/239 410/62/239 156/62/239
f 138/62/240 178/62/240 137/62/240
f 386/62/241 435/62/241 502/62/241
f 331/62/242 499/62/242 34/62/242
f 141/62/243 181/62/243 140/62/243
f 213/62/244 221/62/244 455/62/244
f 180/62/245 140/62/245 181/62/245
f 134/62/246 174/62/246 173/62/246
f 491/62/247 124/62/247 386/62/247
f 133/62/248 134/62/248 173/62/248
f 399/62/249 145/62/249 307/62/249
f 124/62/250 435/62/250 386/62/250
f 176/62/251 136/62/251 137/62/251
f 233/62/252 524/62/252 25/62/252
f 136/62/253 176/62/253 134/62/253
f 134/62/254 175/62/254 174/62/254
f 175/62/255 134/62/255 176/62/255
f 428/63/256 404/64/256 88/65/256
f 158/11/257 371/64/257 534/66/257
f 499/67/258 236/65/258 34/64/258
f 221/68/259 403/65/259 79/69/259
f 508/65/260 486/67/260 531/69/260
f 530/70/261 49/66/261 251/64/261
f 426/71/262 69/72/262 541/73/262
f 404/72/263 281/71/263 88/74/263
f 100/75/264 67/73/264 62/72/264
f 513/70/265 506/73/265 87/66/265
f 203/73/266 185/75/266 2/66/266
f 49/76/267 97/77/267 147/78/267
f 298/79/268 249/78/268 356/77/268
f 424/77/269 350/76/269 533/80/269
f 525/81/270 530/80/270 534/82/270
f 98/81/271 393/77/271 340/80/271
f 207/83/272 494/78/272 546/84/272
f 463/85/273 418/68/273 3/86/273
f 421/68/274 184/69/274 150/86/274
f 418/85/275 463/86/275 1/84/275
f 546/79/276 149/84/276 336/78/276
f 330/83/277 361/84/277 85/86/277
f 526/87/278 453/74/278 192/71/278
f 423/88/279 396/89/279 286/90/279
f 455/89/280 364/91/280 213/90/280
f 304/92/281 295/90/281 376/58/281
f 281/92/282 506/58/282 240/93/282
f 87/88/283 506/90/283 328/92/283
f 250/89/284 376/80/284 295/91/284
f 235/76/285 238/78/285 237/94/285
f 377/78/286 501/7/286 252/94/286
f 478/76/287 474/94/287 401/80/287
f 326/80/288 42/95/288 316/91/288
f 350/95/289 156/80/289 533/94/289
f 407/96/290 442/97/290 439/98/290
f 84/96/291 339/99/291 37/97/291
f 227/51/292 235/98/292 229/97/292
f 226/87/293 235/98/293 227/74/293
f 465/98/294 93/51/294 189/74/294
f 235/99/293 231/100/293 229/97/293
f 423/101/295 265/93/295 244/102/295
f 231/101/296 234/92/296 232/93/296
f 442/103/297 356/102/297 336/93/297
f 502/99/298 87/102/298 522/100/298
f 325/102/299 451/103/299 507/100/299
f 313/79/300 485/77/300 535/104/300
f 439/84/301 251/79/301 49/104/301
f 186/77/302 39/81/302 146/104/302
f 532/82/303 308/105/303 35/104/303
f 156/81/304 355/82/304 533/104/304
f 332/85/305 47/84/305 8/104/305
f 351/63/306 374/106/306 460/64/306
f 183/106/307 94/70/307 443/64/307
f 194/63/308 189/65/308 273/104/308
f 498/68/309 194/85/309 27/104/309
f 540/65/310 92/68/310 52/104/310
f 360/107/311 536/108/311 348/104/311
f 508/109/312 94/107/312 88/104/312
f 317/108/313 469/110/313 230/104/313
f 154/106/314 492/63/314 537/104/314
f 295/110/315 352/106/315 303/104/315
f 24/111/316 160/109/316 441/104/316
f 13/112/317 384/113/317 257/104/317
f 544/105/318 427/112/318 30/104/318
f 249/113/319 298/114/319 325/104/319
f 350/115/320 464/111/320 413/104/320
f 511/114/321 319/115/321 400/104/321
f 223/70/292 235/106/292 226/73/292
f 378/113/322 540/101/322 394/102/322
f 231/101/323 235/113/323 234/92/323
f 215/114/324 19/113/324 370/102/324
f 243/99/325 343/115/325 470/102/325
f 494/114/326 403/102/326 44/115/326
f 144/112/327 157/92/327 297/113/327
f 544/82/328 30/89/328 312/105/328
f 150/89/329 406/82/329 145/80/329
f 529/88/330 523/105/330 422/89/330
f 184/112/331 517/105/331 298/92/331
f 247/105/332 352/88/332 380/92/332
f 362/108/333 534/107/333 530/71/333
f 313/107/334 417/87/334 209/71/334
f 487/108/335 186/71/335 339/73/335
f 347/110/336 21/73/336 148/106/336
f 14/110/337 387/108/337 470/73/337
f 2/87/338 482/107/338 12/98/338
f 335/96/339 454/111/339 49/99/339
f 344/115/340 213/99/340 364/111/340
f 364/111/341 455/96/341 358/98/341
f 428/109/342 183/98/342 250/107/342
f 506/109/343 491/111/343 328/98/343
f 241/116/344 235/69/344 242/117/344
f 399/69/345 525/116/345 476/86/345
f 32/67/346 196/117/346 309/69/346
f 367/64/347 366/11/347 368/117/347
f 235/67/348 223/64/348 242/117/348
f 320/83/349 503/118/349 488/78/349
f 158/7/350 527/78/350 371/118/350
f 238/83/344 235/86/344 239/118/344
f 161/119/351 532/86/351 35/116/351
f 235/86/292 241/119/292 239/118/292
f 427/120/352 190/121/352 40/122/352
f 204/121/353 214/120/353 39/123/353
f 59/123/354 326/120/354 316/124/354
f 510/125/355 191/126/355 17/127/355
f 516/121/356 355/123/356 378/128/356
f 430/129/357 459/130/357 228/124/357
f 481/129/358 271/131/358 324/132/358
f 19/131/359 297/120/359 363/122/359
f 326/129/360 518/133/360 246/130/360
f 469/130/361 386/133/361 457/134/361
f 282/133/362 75/129/362 449/132/362
f 337/135/363 433/126/363 473/125/363
f 23/136/364 528/137/364 152/138/364
f 146/138/365 39/139/365 342/136/365
f 17/137/366 432/136/366 157/140/366
f 194/141/367 273/140/367 13/142/367
f 379/140/368 154/141/368 316/137/368
f 248/143/369 155/144/369 388/145/369
f 153/137/370 503/146/370 446/147/370
f 433/147/371 385/138/371 286/137/371
f 386/146/372 502/137/372 457/141/372
f 540/148/373 378/143/373 92/145/373
f 183/142/374 15/143/374 279/148/374
f 370/120/375 278/129/375 320/124/375
f 530/149/376 251/150/376 221/151/376
f 2/150/377 12/149/377 5/152/377
f 251/152/378 149/149/378 221/126/378
f 444/149/379 397/153/379 478/154/379
f 62/150/380 151/152/380 500/155/380
f 219/150/381 257/156/381 384/151/381
f 21/157/382 319/158/382 349/128/382
f 284/158/383 84/156/383 202/159/383
f 393/150/384 152/160/384 528/156/384
f 295/156/385 260/160/385 250/159/385
f 189/160/386 47/150/386 273/155/386
f 263/153/387 182/149/387 401/151/387
f 317/153/388 328/123/388 469/124/388
f 275/123/389 197/153/389 281/157/389
f 197/157/390 506/153/390 281/151/390
f 413/129/391 272/120/391 495/131/391
f 402/123/392 217/157/392 36/128/392
f 300/154/393 293/161/393 333/126/393
f 373/149/394 218/154/394 458/126/394
f 412/154/395 148/153/395 497/124/395
f 9/154/396 360/130/396 348/161/396
f 377/161/397 249/130/397 127/134/397
f 538/130/398 190/154/398 201/124/398
f 139/162/399 95/163/399 521/164/399
f 524/163/400 441/162/400 160/165/400
f 525/162/401 399/164/401 280/166/401
f 452/167/402 75/166/402 437/168/402
f 286/167/403 55/162/403 265/166/403
f 148/169/404 412/165/404 427/162/404
f 279/164/405 72/170/405 376/171/405
f 18/164/406 521/163/406 95/170/406
f 1/166/407 199/164/407 93/171/407
f 149/168/408 251/166/408 82/172/408
f 528/166/409 23/171/409 277/172/409
f 36/173/410 210/167/410 29/168/410
f 397/174/411 84/175/411 478/176/411
f 319/176/412 160/175/412 24/177/412
f 534/174/413 371/176/413 525/178/413
f 405/179/414 480/178/414 156/180/414
f 245/179/415 489/174/415 409/178/415
f 405/177/416 350/175/416 413/181/416
f 465/182/417 418/183/417 93/184/417
f 354/183/418 52/170/418 195/184/418
f 443/181/419 94/185/419 340/177/419
f 492/186/420 355/181/420 410/175/420
f 462/178/421 67/176/421 448/187/421
f 537/170/422 481/163/422 316/188/422
f 444/189/423 246/140/423 397/136/423
f 187/136/424 84/190/424 397/189/424
f 191/140/425 188/189/425 10/191/425
f 519/189/426 385/192/426 504/193/426
f 524/191/427 233/189/427 151/193/427
f 208/190/428 75/136/428 366/139/428
f 329/142/429 485/191/429 266/143/429
f 6/140/430 289/191/430 145/142/430
f 93/191/431 8/193/431 189/143/431
f 517/193/432 195/194/432 377/144/432
f 21/143/433 536/193/433 360/144/433
f 472/193/434 365/192/434 487/194/434
f 314/171/435 528/183/435 277/182/435
f 448/171/436 22/170/436 25/183/436
f 92/172/437 378/171/437 420/182/437
f 12/188/438 188/163/438 5/195/438
f 429/165/439 314/195/439 288/163/439
f 373/170/440 262/188/440 428/184/440
f 488/142/441 343/148/441 459/146/441
f 37/146/442 296/141/442 345/142/442
f 18/148/443 369/147/443 357/146/443
f 98/195/444 531/184/444 393/188/444
f 272/148/445 208/145/445 366/147/445
f 456/196/446 270/197/446 26/198/446
f 329/199/447 266/200/447 208/201/447
f 424/196/448 412/202/448 200/197/448
f 504/202/449 340/203/449 393/204/449
f 196/202/450 16/204/450 309/197/450
f 501/201/451 377/205/451 526/199/451
f 283/206/452 437/196/452 300/199/452
f 326/199/453 444/196/453 182/198/453
f 298/207/454 356/206/454 198/199/454
f 442/200/455 251/199/455 439/208/455
f 507/199/456 484/198/456 325/208/456
f 7/209/457 91/210/457 411/211/457
f 460/209/458 100/212/458 62/213/458
f 143/212/459 526/209/459 294/211/459
f 153/213/460 359/214/460 387/209/460
f 369/213/461 158/215/461 357/216/461
f 383/214/462 471/213/462 416/216/462
f 348/211/463 309/217/463 308/212/463
f 485/218/464 28/214/464 535/219/464
f 274/210/465 225/209/465 498/214/465
f 4/214/466 19/216/466 363/219/466
f 299/216/467 436/220/467 152/221/467
f 385/219/468 519/216/468 286/221/468
f 64/207/469 269/222/469 442/223/469
f 222/204/470 299/224/470 486/225/470
f 346/197/471 358/204/471 455/225/471
f 310/198/472 391/197/472 249/226/472
f 47/208/473 384/198/473 13/226/473
f 509/197/474 505/225/474 517/226/474
f 7/227/475 246/224/475 518/204/475
f 23/228/476 435/229/476 305/202/476
f 357/202/477 33/196/477 521/228/477
f 517/203/478 325/202/478 298/229/478
f 139/204/479 201/203/479 529/227/479
f 96/229/480 527/227/480 158/203/480
f 489/226/481 245/230/481 462/208/481
f 277/205/482 305/231/482 101/232/482
f 443/199/483 15/205/483 183/232/483
f 160/207/484 347/199/484 408/232/484
f 145/206/485 301/207/485 255/223/485
f 500/232/486 233/222/486 22/207/486
f 1/201/487 253/233/487 291/231/487
f 483/230/488 379/234/488 42/200/488
f 399/200/489 515/208/489 145/230/489
f 94/201/490 98/200/490 340/233/490
f 190/205/491 523/201/491 529/231/491
f 221/200/492 44/234/492 403/233/492
f 518/235/493 91/236/493 7/132/493
f 372/131/494 313/235/494 458/132/494
f 149/236/495 44/235/495 221/237/495
f 361/158/496 10/238/496 188/239/496
f 196/132/497 482/236/497 16/240/497
f 423/235/498 244/241/498 259/237/498
f 3/121/499 418/241/499 225/122/499
f 157/241/500 332/239/500 83/237/500
f 346/239/501 345/121/501 358/128/501
f 285/241/502 502/131/502 522/122/502
f 212/131/503 381/241/503 41/235/503
f 443/238/504 142/158/504 15/159/504
f 228/160/505 459/242/505 243/159/505
f 15/242/506 72/160/506 279/240/506
f 99/240/507 47/160/507 432/155/507
f 11/156/508 496/157/508 542/151/508
f 19/157/509 144/156/509 297/158/509
f 270/236/510 456/242/510 129/240/510
f 314/158/511 161/239/511 35/128/511
f 296/239/512 381/238/512 345/237/512
f 395/236/513 400/238/513 538/242/513
f 271/242/514 537/238/514 156/159/514
f 527/238/515 394/236/515 354/237/515
f 453/239/516 92/241/516 420/121/516
f 497/215/517 148/243/517 360/244/517
f 139/245/518 467/243/518 201/215/518
f 143/243/519 501/246/519 526/244/519
f 4/210/520 363/214/520 185/218/520
f 546/211/521 475/210/521 207/218/521
f 293/213/522 282/245/522 449/215/522
f 123/215/523 510/244/523 17/220/523
f 487/216/524 339/215/524 187/220/524
f 501/217/525 447/247/525 336/245/525
f 474/245/526 284/213/526 202/212/526
f 129/245/527 479/212/527 482/217/527
f 31/218/528 435/219/528 23/211/528
f 378/246/529 355/243/529 492/248/529
f 526/243/530 192/245/530 263/248/530
f 204/249/531 186/211/531 258/219/531
f 464/250/532 200/249/532 497/221/532
f 149/219/533 82/221/533 336/249/533
f 28/248/534 9/245/534 535/247/534
f 240/251/535 486/250/535 508/220/535
f 294/250/536 276/221/536 143/220/536
f 421/251/537 255/220/537 542/244/537
f 219/246/538 214/252/538 257/244/538
f 161/252/539 314/251/539 277/244/539
f 336/253/540 249/254/540 252/255/540
f 429/256/541 393/253/541 528/255/541
f 404/257/542 428/256/542 461/255/542
f 299/258/543 222/259/543 31/260/543
f 520/261/544 216/256/544 543/257/544
f 477/260/545 219/259/545 99/262/545
f 215/263/546 370/264/546 123/265/546
f 341/265/547 338/266/547 368/263/547
f 135/267/548 322/265/548 524/264/548
f 236/268/549 86/267/549 34/269/549
f 267/267/550 488/264/550 311/269/550
f 510/270/551 5/271/551 191/272/551
f 16/259/552 479/261/552 434/257/552
f 456/253/553 429/273/553 288/254/553
f 193/259/554 101/257/554 275/274/554
f 10/273/555 99/275/555 432/276/555
f 306/276/556 302/275/556 398/277/556
f 394/278/557 516/268/557 378/269/557
f 202/270/558 345/260/558 346/271/558
f 363/279/559 270/270/559 129/272/559
f 1/270/560 463/258/560 337/260/560
f 345/280/561 202/268/561 37/281/561
f 527/268/562 96/278/562 394/281/562
f 330/266/563 85/279/563 349/263/563
f 539/282/564 475/283/564 447/262/564
f 469/282/565 490/262/565 471/274/565
f 182/284/566 478/285/566 401/286/566
f 75/283/567 452/285/567 366/284/567
f 300/286/568 415/287/568 283/284/568
f 147/274/569 97/288/569 90/282/569
f 442/255/570 82/289/570 251/257/570
f 267/278/571 470/269/571 343/290/571
f 309/289/572 348/291/572 32/257/572
f 33/274/573 212/257/573 41/291/573
f 433/291/574 286/288/574 396/274/574
f 511/284/575 206/262/575 349/283/575
f 213/292/576 344/289/576 362/255/576
f 418/293/577 465/292/577 225/255/577
f 263/276/578 302/254/578 526/273/578
f 328/259/579 491/274/579 386/262/579
f 261/276/580 272/293/580 413/254/580
f 273/293/581 47/255/581 13/254/581
f 504/294/582 385/287/582 340/286/582
f 89/286/583 310/295/583 249/294/583
f 407/294/584 64/295/584 442/296/584
f 28/296/585 329/297/585 261/298/585
f 422/296/586 523/298/586 427/294/586
f 354/286/587 540/285/587 52/299/587
f 275/300/588 101/286/588 197/299/588
f 9/299/589 28/285/589 360/301/589
f 420/301/590 378/283/590 154/302/590
f 11/285/591 290/283/591 292/301/591
f 31/295/592 513/286/592 87/300/592
f 329/297/593 208/296/593 272/303/593
f 471/304/594 383/297/594 230/303/594
f 276/303/595 294/296/595 302/305/595
f 254/305/596 49/295/596 147/300/596
f 359/296/597 243/295/597 387/305/597
f 387/283/598 311/282/598 153/302/598
f 38/306/599 322/307/599 440/308/599
f 464/307/600 424/306/600 200/309/600
f 274/309/601 204/306/601 258/310/601
f 408/309/602 211/311/602 160/312/602
f 210/307/603 214/309/603 219/313/603
f 88/291/604 240/289/604 508/314/604
f 436/282/605 299/288/605 31/315/605
f 438/302/606 243/282/606 359/315/606
f 521/315/607 33/288/607 139/316/607
f 484/316/608 287/291/608 325/314/608
f 528/288/609 314/291/609 429/316/609
f 320/317/610 278/297/610 503/304/610
f 442/318/611 336/280/611 82/281/611
f 200/319/612 412/320/612 497/318/612
f 456/318/613 26/320/613 429/280/613
f 252/314/614 501/289/614 336/321/614
f 20/317/615 262/322/615 535/319/615
f 439/317/616 49/319/616 454/318/616
f 249/275/617 325/319/617 287/277/617
f 515/320/618 399/319/618 476/275/618
f 433/319/619 337/322/619 385/277/619
f 360/281/620 28/297/620 261/317/620
f 292/317/621 389/318/621 11/281/621
f 183/289/622 88/292/622 94/321/622
f 448/277/623 100/322/623 374/323/623
f 380/324/624 425/277/624 247/323/624
f 480/323/625 405/322/625 413/325/625
f 142/325/626 385/317/626 205/304/626
f 415/322/627 426/317/627 283/325/627
f 38/276/628 440/277/628 462/324/628
f 148/292/629 544/293/629 347/326/629
f 72/321/630 304/292/630 376/326/630
f 479/326/631 456/293/631 288/327/631
f 197/327/632 305/276/632 491/324/632
f 486/293/633 299/276/633 531/327/633
f 463/328/634 3/329/634 247/139/634
f 357/328/635 344/139/635 364/138/635
f 203/139/636 132/329/636 228/190/636
f 230/329/637 416/330/637 317/192/637
f 266/330/638 293/194/638 449/192/638
f 435/328/639 124/138/639 305/147/639
f 512/331/640 417/332/640 271/333/640
f 205/334/641 425/331/641 142/333/641
f 96/333/642 355/332/642 516/335/642
f 421/336/643 496/337/643 184/338/643
f 95/332/644 139/339/644 529/335/644
f 245/340/645 524/184/645 151/195/645
f 464/341/646 350/162/646 424/167/646
f 373/169/647 260/162/647 218/341/647
f 529/173/648 422/341/648 533/167/648
f 478/342/649 182/343/649 444/181/649
f 272/184/650 366/344/650 367/182/650
f 377/340/651 195/165/651 526/169/651
f 415/344/652 414/173/652 69/172/652
f 161/172/653 193/182/653 532/344/653
f 39/340/654 186/195/654 204/165/654
f 192/341/655 420/340/655 483/169/655
f 205/168/656 463/172/656 247/173/656
f 72/345/657 380/331/657 304/334/657
f 1/346/658 26/179/658 199/347/658
f 544/346/659 148/348/659 427/179/659
f 458/177/660 313/185/660 535/176/660
f 339/338/661 84/349/661 187/336/661
f 250/187/662 183/176/662 376/185/662
f 339/348/663 186/174/663 146/179/663
f 96/186/664 516/350/664 394/351/664
f 123/347/665 370/179/665 320/180/665
f 211/350/666 408/186/666 322/348/666
f 448/348/667 38/175/667 462/174/667
f 348/175/668 85/348/668 32/186/668
f 129/336/669 185/352/669 363/337/669
f 340/353/670 385/333/670 142/354/670
f 25/334/671 38/333/671 448/353/671
f 305/333/672 277/335/672 23/354/672
f 444/331/673 326/345/673 246/349/673
f 411/349/674 295/355/674 303/331/674
f 151/352/675 233/334/675 500/353/675
f 185/353/676 129/354/676 482/337/676
f 265/352/677 86/353/677 244/337/677
f 219/345/678 29/336/678 210/349/678
f 93/345/679 199/334/679 8/352/679
f 387/336/680 267/345/680 311/352/680
f 31/356/681 222/272/681 513/287/681
f 36/272/682 217/271/682 342/287/682
f 441/294/683 524/356/683 245/287/683
f 220/290/684 389/298/684 256/278/684
f 519/290/685 504/356/685 55/294/685
f 489/271/686 312/284/686 40/287/686
f 412/350/687 422/346/687 427/357/687
f 201/192/688 327/190/688 395/329/688
f 305/350/689 124/348/689 491/346/689
f 293/284/690 323/260/690 333/262/690
f 101/271/691 305/260/691 197/284/691
f 306/298/692 539/290/692 447/294/692
f 1/358/693 93/359/693 418/356/693
f 245/358/694 151/356/694 462/290/694
f 389/264/695 520/359/695 543/358/695
f 370/269/696 203/358/696 278/290/696
f 20/358/697 348/269/697 308/264/697
f 409/359/698 40/264/698 190/263/698
f 430/281/699 5/278/699 510/297/699
f 325/278/700 517/298/700 451/297/700
f 352/359/701 247/272/701 365/356/701
f 531/359/702 152/263/702 393/279/702
f 297/272/703 83/359/703 270/279/703
f 331/189/704 253/190/704 473/192/704
f 367/347/705 368/360/705 338/346/705
f 545/361/706 457/351/706 285/350/706
f 5/362/707 188/360/707 191/347/707
f 490/360/708 545/357/708 471/346/708
f 448/357/709 67/361/709 100/350/709
f 317/363/710 416/362/710 514/347/710
f 21/180/711 347/178/711 319/187/711
f 348/181/712 536/343/712 85/185/712
f 522/342/713 87/186/713 514/351/713
f 334/180/714 522/363/714 514/347/714
f 400/342/715 24/181/715 538/186/715
f 84/343/716 284/187/716 478/185/716
f 313/332/717 372/331/717 382/364/717
f 480/364/718 512/331/718 271/355/718
f 271/339/719 156/332/719 480/364/719
f 512/365/720 341/366/720 375/337/720
f 146/366/721 37/338/721 339/337/721
f 307/339/722 406/367/722 445/335/722
f 504/365/723 429/337/723 26/354/723
f 184/343/724 496/180/724 517/187/724
f 55/368/725 291/365/725 265/354/725
f 20/367/726 535/368/726 9/335/726
f 272/368/727 261/354/727 329/335/727
f 430/369/728 510/370/728 459/371/728
f 228/372/729 243/369/729 438/371/729
f 405/373/730 156/372/730 350/371/730
f 27/374/731 194/375/731 13/376/731
f 389/375/732 220/377/732 493/378/732
f 460/370/733 374/369/733 100/379/733
f 472/379/734 187/369/734 397/380/734
f 363/380/735 297/381/735 270/379/735
f 318/382/736 426/383/736 415/384/736
f 195/379/737 496/384/737 354/370/737
f 143/384/738 276/379/738 501/382/738
f 479/375/739 16/378/739 482/376/739
f 499/385/740 331/386/740 396/376/740
f 210/374/741 36/376/741 342/386/741
f 291/387/742 253/388/742 34/389/742
f 255/390/743 421/391/743 145/392/743
f 19/393/744 4/389/744 370/388/744
f 393/386/745 429/394/745 504/374/745
f 457/378/746 545/395/746 490/385/746
f 17/376/747 191/378/747 432/385/747
f 332/383/748 8/382/748 83/394/748
f 417/385/749 313/383/749 382/386/749
f 198/394/750 442/386/750 97/383/750
f 468/396/751 333/382/751 392/379/751
f 333/392/752 414/391/752 415/397/752
f 483/398/753 263/392/753 192/397/753
f 377/344/754 127/397/754 517/391/754
f 132/390/755 2/374/755 430/399/755
f 390/391/756 209/400/756 512/344/756
f 22/377/757 448/392/757 374/398/757
f 423/401/758 259/402/758 224/403/758
f 495/404/759 338/405/759 413/406/759
f 468/407/760 541/328/760 414/408/760
f 356/408/761 249/409/761 336/410/761
f 541/328/762 69/409/762 414/408/762
f 379/374/763 483/394/763 420/399/763
f 298/410/764 406/396/764 184/381/764
f 277/408/765 193/410/765 161/381/765
f 517/407/766 127/408/766 509/380/766
f 324/381/767 271/396/767 417/379/767
f 55/408/768 1/381/768 291/380/768
f 42/399/769 379/396/769 316/410/769
f 510/399/770 320/400/770 459/391/770
f 183/391/771 279/390/771 376/399/771
f 414/399/772 333/394/772 468/396/772
f 29/400/773 477/399/773 206/410/773
f 404/394/774 461/382/774 275/396/774
f 433/366/775 396/365/775 331/404/775
f 94/411/776 508/412/776 98/330/776
f 465/368/777 498/367/777 225/405/777
f 374/404/778 500/365/778 22/368/778
f 368/405/779 323/404/779 341/368/779
f 326/329/780 59/328/780 518/411/780
f 445/413/781 268/194/781 280/330/781
f 341/145/782 323/144/782 375/413/782
f 388/413/783 450/144/783 389/194/783
f 260/330/784 373/329/784 428/411/784
f 293/330/785 300/412/785 437/413/785
f 426/405/786 318/339/786 69/364/786
f 353/342/787 534/401/787 362/403/787
f 432/351/788 47/414/788 332/401/788
f 438/343/789 153/342/789 446/403/789
f 203/341/790 228/410/790 278/409/790
f 348/340/791 20/341/791 9/409/791
f 280/342/792 307/351/792 445/401/792
f 419/364/793 193/402/793 461/405/793
f 287/405/794 89/367/794 249/339/794
f 40/364/795 409/355/795 489/403/795
f 307/403/796 145/402/796 406/364/796
f 210/355/797 39/349/797 214/403/797
f 420/413/798 192/412/798 453/362/798
f 452/415/799 466/416/799 392/417/799
f 193/418/800 419/419/800 532/415/800
f 449/417/801 208/420/801 266/415/801
f 315/421/802 372/419/802 518/422/802
f 315/418/803 324/415/803 382/420/803
f 315/416/804 518/415/804 59/419/804
f 531/392/805 299/375/805 152/374/805
f 244/374/806 86/390/806 259/392/806
f 254/392/807 335/377/807 49/375/807
f 1/423/808 55/424/808 26/425/808
f 7/423/809 472/426/809 246/424/809
f 207/422/810 475/427/810 346/421/810
f 29/360/811 206/362/811 36/428/811
f 25/357/812 22/360/812 233/428/812
f 253/362/813 337/412/813 473/428/813
f 440/363/814 312/180/814 489/413/814
f 329/362/815 28/363/815 485/413/815
f 135/357/816 524/428/816 211/414/816
f 541/427/817 466/422/817 426/423/817
f 463/406/818 385/421/818 337/427/818
f 203/429/819 370/430/819 185/431/819
f 300/361/820 333/357/820 415/414/820
f 328/351/821 386/361/821 469/414/821
f 338/240/822 495/432/822 367/132/822
f 35/433/823 434/132/823 288/432/823
f 18/388/824 96/387/824 369/434/824
f 440/393/825 544/388/825 312/434/825
f 213/387/826 362/435/826 221/434/826
f 21/436/827 360/433/827 148/432/827
f 398/135/828 302/437/828 263/438/828
f 20/438/829 532/439/829 419/135/829
f 306/387/830 276/438/830 302/437/830
f 410/433/831 355/436/831 156/440/831
f 293/437/832 375/435/832 323/387/832
f 219/135/833 477/439/833 29/441/833
f 263/418/834 401/442/834 398/443/834
f 72/443/835 425/419/835 380/418/835
f 224/426/836 499/443/836 396/442/836
f 49/328/837 280/407/837 268/411/837
f 25/442/838 524/444/838 322/426/838
f 452/443/839 437/426/839 466/423/839
f 366/445/840 452/446/840 392/431/840
f 519/135/841 55/441/841 286/447/841
f 154/445/842 378/431/842 492/430/842
f 19/423/843 215/422/843 144/443/843
f 532/422/844 20/419/844 308/443/844
f 465/448/845 194/449/845 498/450/845
f 144/451/846 17/452/846 157/453/846
f 512/454/847 480/452/847 341/451/847
f 30/455/848 40/436/848 312/432/848
f 182/456/849 483/432/849 42/457/849
f 496/432/850 421/456/850 542/455/850
f 323/450/851 368/454/851 392/451/851
f 225/458/852 274/459/852 258/460/852
f 466/459/853 283/458/853 426/461/853
f 525/459/854 49/461/854 530/462/854
f 219/430/855 384/452/855 99/454/855
f 368/454/856 366/445/856 392/430/856
f 59/432/857 316/240/857 481/457/857
f 330/463/858 206/448/858 477/451/858
f 390/453/859 512/463/859 375/451/859
f 265/448/860 291/434/860 86/449/860
f 294/451/861 526/448/861 302/450/861
f 434/434/862 479/435/862 288/449/862
f 209/393/863 417/434/863 512/448/863
f 353/447/864 357/464/864 158/155/864
f 3/155/865 258/135/865 365/447/865
f 75/240/866 282/155/866 293/464/866
f 529/463/867 201/393/867 190/448/867
f 322/464/868 135/457/868 211/240/868
f 394/465/869 540/417/869 354/466/869
f 468/467/870 392/465/870 466/466/870
f 308/401/871 309/467/871 35/402/871
f 97/419/872 445/421/872 198/416/872
f 468/467/873 466/466/873 541/402/873
f 309/468/874 16/467/874 434/401/874
f 410/417/875 537/465/875 492/469/875
f 357/469/876 353/420/876 344/417/876
f 196/470/877 32/469/877 361/465/877
f 153/414/878 438/468/878 359/401/878
f 510/468/879 123/465/879 320/467/879
f 471/417/880 230/416/880 469/466/880
f 319/427/881 347/471/881 160/472/881
f 31/460/882 23/472/882 436/471/882
f 261/472/883 497/406/883 360/427/883
f 488/406/884 459/472/884 320/404/884
f 317/460/885 514/404/885 328/472/885
f 422/471/886 424/427/886 533/423/886
f 495/406/887 272/405/887 367/416/887
f 222/416/888 486/421/888 513/406/888
f 472/466/889 7/416/889 303/402/889
f 361/423/890 330/425/890 99/471/890
f 154/416/891 537/405/891 316/402/891
f 247/420/892 3/469/892 365/473/892
f 408/474/893 347/475/893 544/412/893
f 461/411/894 262/474/894 20/412/894
f 340/428/895 142/412/895 443/476/895
f 278/414/896 446/428/896 503/468/896
f 525/412/897 280/475/897 49/476/897
f 440/372/898 489/373/898 462/475/898
f 327/369/899 217/372/899 402/474/899
f 20/380/900 419/369/900 461/474/900
f 395/407/901 511/380/901 400/411/901
f 411/474/902 91/372/902 260/475/902
f 145/380/903 421/474/903 150/411/903
f 249/428/904 391/476/904 127/468/904
f 539/371/905 474/477/905 475/478/905
f 322/373/906 38/371/906 25/478/906
f 523/478/907 190/477/907 427/465/907
f 190/473/908 538/418/908 409/420/908
f 536/477/909 21/470/909 349/465/909
f 266/429/910 485/453/910 390/452/910
f 286/475/911 265/373/911 423/478/911
f 261/476/912 464/475/912 497/478/912
f 79/468/913 207/476/913 346/478/913
f 338/452/914 341/430/914 480/429/914
f 151/478/915 62/465/915 67/468/915
f 388/479/916 155/480/916 450/134/916
f 433/481/917 331/479/917 473/132/917
f 438/134/918 446/133/918 278/479/918
f 36/127/919 511/134/919 402/480/919
f 411/133/920 260/132/920 295/479/920
f 517/132/921 496/433/921 195/482/921
f 526/161/922 195/134/922 52/127/922
f 464/440/923 261/483/923 413/433/923
f 499/127/924 259/126/924 236/161/924
f 527/482/925 354/481/925 216/132/925
f 293/482/926 437/433/926 75/483/926
f 101/425/927 193/484/927 277/458/927
f 479/485/928 129/486/928 456/487/928
f 333/485/929 323/488/929 392/486/929
f 34/489/930 86/490/930 291/491/930
f 411/487/931 303/489/931 7/485/931
f 434/490/932 35/492/932 309/491/932
f 196/493/933 12/488/933 482/485/933
f 458/471/934 218/458/934 372/460/934
f 283/458/935 466/471/935 437/425/935
f 197/494/936 491/444/936 506/495/936
f 504/485/937 26/495/937 55/493/937
f 3/444/938 225/493/938 258/495/938
f 458/483/939 262/440/939 373/445/939
f 262/418/940 461/496/940 428/442/940
f 355/217/941 96/211/941 533/442/941
f 403/496/942 494/217/942 79/442/942
f 481/135/943 324/125/943 59/437/943
f 259/211/944 86/497/944 236/442/944
f 511/498/945 36/446/945 206/248/945
f 330/217/946 477/496/946 99/247/946
f 280/499/947 399/496/947 307/418/947
