# Blender 5.1.1
# www.blender.org
o Куб.001
v 0.535234 0.926485 0.641452
v 0.532395 2.427050 0.477116
v 0.609700 1.082291 -0.275493
v 0.618942 2.373011 -0.212275
v 0.001812 1.007102 -0.319868
v -0.000000 2.480862 -0.357245
v 0.711141 1.699645 0.007496
v 0.615260 0.917730 0.123426
v 0.609310 2.448218 0.128170
v 0.650131 1.629807 0.514650
v -0.005576 0.946703 0.679884
v -0.000000 2.544096 0.544675
v 0.721084 1.689766 0.116084
v 0.000833 0.903474 0.187533
v -0.000000 2.614716 0.130571
v 0.825480 0.599566 -1.237132
v 0.536594 2.299298 -0.498064
v 0.001551 1.091671 -0.577873
v 0.000000 2.280686 -0.622767
v 0.469526 1.419972 -0.829048
v 0.464185 2.136060 -0.749054
v 0.090363 0.838273 3.153967
v 0.000936 1.208825 -0.798827
v -0.000000 2.103516 -0.887623
v 0.564249 1.767443 -0.871436
v 0.000165 1.592413 -0.915531
v 0.084677 1.231103 3.232123
v 0.172094 1.620352 3.043600
v 0.443725 1.029029 1.286879
v 0.500001 2.376789 0.889560
v 0.175772 0.862253 2.953317
v 0.609792 1.625592 0.882398
v -0.011410 0.981494 1.126950
v -0.000058 2.487235 0.979386
v 0.059274 0.849380 3.385281
v 0.033850 1.006654 3.452919
v 0.047665 0.803893 3.274008
v 0.570340 2.528199 1.239684
v 0.537199 0.450567 1.655966
v -0.008006 0.937052 1.476191
v 0.004581 2.647972 1.345342
v 0.118300 1.440674 3.227237
v 0.136209 0.837971 3.067686
v 0.177045 1.799227 2.822343
v 0.583003 2.528340 1.435916
v 0.443279 0.447753 1.716750
v -0.005256 0.977157 1.621382
v 0.002130 2.653731 1.544471
v 0.190837 0.894266 2.837065
v 0.177045 1.912818 2.650341
v 0.177045 0.930874 2.694977
v 0.540207 2.469419 1.719261
v 0.658546 1.824044 1.776232
v 0.539009 1.131328 2.041325
v -0.001847 1.071353 1.786280
v 0.000047 2.587707 1.817999
v 0.181751 2.061258 2.401325
v 0.181751 1.080548 2.333737
v 0.453439 2.246863 2.003028
v 0.552783 1.614106 1.935996
v 0.453423 1.356890 1.956825
v -0.000712 1.153597 1.921122
v 0.000000 2.337345 2.103147
v 0.227127 2.303801 2.070441
v 0.227115 1.246894 1.941190
v 0.271600 2.554620 1.765669
v 0.350330 1.087595 1.801884
v 0.364925 2.003774 2.356513
v 0.444887 1.431746 2.324030
v 0.364925 1.132163 2.274333
v -0.000000 1.046216 2.346814
v -0.000000 2.090532 2.404009
v 0.293600 2.618774 1.479477
v 0.293538 1.065495 1.698525
v 0.287299 2.616055 1.276950
v 0.355746 1.863848 2.607550
v 0.433703 1.378063 2.610786
v 0.355746 0.977688 2.642624
v -0.000000 0.903767 2.682698
v -0.000000 1.939196 2.638127
v 0.286799 1.074813 1.686257
v 0.250990 2.456718 0.911335
v 0.308898 1.043036 1.456116
v 0.372539 1.617192 2.783069
v 0.455708 1.408219 2.755332
v 0.382651 0.943892 2.791533
v -0.000000 0.867760 2.820051
v -0.000000 1.827330 2.802588
v 0.249748 1.658444 -0.900959
v 0.203213 2.103688 -0.851232
v 0.329224 1.348244 -0.789814
v 0.241143 1.412943 3.174954
v 0.339854 1.171072 3.076830
v 0.276080 0.874541 3.029283
v -0.000000 0.827434 3.032596
v -0.000000 1.463968 3.197890
v 0.249486 2.259852 -0.659655
v 0.288656 1.164812 -0.568476
v 0.307121 2.557126 0.094069
v 0.069124 1.007249 3.430727
v 0.125993 0.864773 3.347556
v 0.103346 0.829876 3.270942
v -0.000000 0.793712 3.282890
v 0.064203 0.955373 3.436392
v -0.000000 0.839417 3.380723
v 0.465527 1.451510 2.842748
v -0.000000 0.843775 2.928817
v 0.353261 0.905570 2.909946
v 0.312247 0.898029 0.099804
v -0.000000 1.650924 3.019474
v 0.402860 1.584314 2.866299
v 0.267639 2.510685 0.480969
v -0.000000 1.233713 3.231243
v 0.267694 0.902608 0.640008
v 0.301504 2.450110 -0.392388
v 0.363909 1.035036 -0.340188
v 0.186642 0.868431 3.117299
v -0.000000 0.834131 3.112900
v 0.210413 1.017917 3.212205
v 0.175549 1.197467 3.209422
v 0.070240 0.820697 3.208733
v 0.067630 1.082705 3.355615
v 0.139993 0.839393 3.201154
v 0.161300 0.942194 3.279279
v -0.000000 1.091057 3.344260
v -0.000000 0.814123 3.193959
v 0.134901 1.071764 3.324772
v 0.611516 2.243640 0.988028
v 0.707615 1.604930 0.948747
v 0.640148 1.097540 1.310710
v 0.671987 2.394229 1.229737
v 0.785201 1.590671 1.456537
v 0.799123 1.111224 1.759142
v 0.636692 2.421499 1.417444
v 0.799141 1.691981 1.602223
v 0.810551 1.130150 1.938060
v 0.641479 2.278929 1.584735
v 0.751854 1.811491 1.750126
v 0.743501 1.173143 2.057489
v 0.422529 0.658255 1.595346
v 0.520308 0.678685 1.517114
v 0.740207 0.718613 2.052054
v 0.590331 0.697957 2.098968
v 0.789759 0.692190 1.934722
v 0.403217 0.641692 1.830835
v 0.781307 0.684325 1.803300
v 0.664465 0.697859 1.511230
v 0.408109 0.645728 1.961040
v 0.451916 0.677181 2.033356
v 0.751943 0.483953 2.025005
v 0.603926 0.483168 2.069697
v 0.539384 -0.007746 1.627385
v 0.802574 0.468734 1.934673
v 0.421606 0.448863 1.851636
v 0.424414 -0.008014 1.685902
v 0.791030 0.459034 1.833399
v 0.674801 0.455730 1.659362
v 0.423082 0.460807 1.967113
v 0.466367 0.476232 2.037918
v 0.440627 0.254241 1.679858
v 0.544405 0.253476 1.624888
v 0.781172 0.280032 1.961280
v 0.619466 0.280980 2.002687
v 0.800888 0.266454 1.878144
v 0.422659 0.256351 1.802645
v 0.790511 0.257705 1.786002
v 0.697291 0.254791 1.628081
v 0.425833 0.266513 1.908365
v 0.469945 0.278742 1.973546
v 0.828347 -0.004948 1.984808
v 0.622012 -0.007905 2.026788
v 0.659681 -0.007380 1.903276
v 0.824569 -0.006250 1.897079
v 0.404562 -0.009116 1.816556
v 0.648588 -0.009448 1.796789
v 0.814524 -0.009302 1.799884
v 0.708844 -0.007327 1.631042
v 0.410344 -0.005905 1.927616
v 0.428927 -0.005295 1.996434
v 0.430069 0.128339 1.684255
v 0.416494 0.137356 1.920048
v 0.410879 0.129793 1.811178
v 0.805786 0.130124 1.794725
v 0.815514 0.137390 1.890260
v 0.799324 0.201412 1.974209
v 0.624194 0.197812 2.019828
v 0.704798 0.128267 1.630988
v 0.541120 0.127435 1.627531
v 0.460725 0.200099 1.985491
v 0.621172 0.104311 2.157017
v 0.621982 -0.013748 2.162674
v 0.798097 -0.010865 2.120290
v 0.459371 -0.011641 2.131788
v 0.791270 0.107851 2.115098
v 0.464102 0.107109 2.125943
v 0.761378 2.255261 -0.265035
v 0.789979 1.714726 -0.092893
v 0.769592 1.132401 -0.340510
v 0.751850 2.192051 -0.504042
v 0.861154 1.763432 -0.576718
v 0.816653 1.262414 -0.565688
v 0.742619 2.081543 -0.707949
v 0.840788 1.784097 -0.793479
v 0.747859 1.416440 -0.790745
v 0.606446 0.488486 -1.435994
v 0.530278 1.151739 -0.980245
v 0.641479 0.901881 -0.430846
v 0.444854 0.911954 -0.490819
v 0.385191 1.016733 -0.725696
v 0.418293 1.128155 -0.939254
v 0.807730 1.034175 -0.720985
v 0.752992 1.135339 -0.947224
v 0.769782 0.935201 -0.500348
v 0.547957 0.994192 -1.001752
v 0.646557 0.514649 -0.809466
v 0.467603 0.573980 -0.837190
v 0.414638 0.803800 -0.892618
v 0.445810 0.964644 -0.980043
v 0.799770 0.790255 -0.880875
v 0.750841 0.968038 -0.978092
v 0.763879 0.579535 -0.824285
v 0.550491 0.707782 -1.524924
v 0.668243 0.287385 -1.343380
v 0.413444 0.331440 -1.376129
v 0.402040 0.510209 -1.452968
v 0.436684 0.676297 -1.515170
v 0.830743 0.500023 -1.440950
v 0.776210 0.677475 -1.513018
v 0.834876 0.336478 -1.367085
v 0.827701 0.438930 -1.162225
v 0.396776 0.609924 -1.249575
v 0.431382 0.773563 -1.316102
v 0.406275 0.434401 -1.170738
v 0.661062 0.390173 -1.139971
v 0.545185 0.804802 -1.326321
v 0.770909 0.774750 -1.313643
v 0.784723 0.271661 -1.209462
v 0.790795 0.211794 -1.306681
v 0.660384 0.162566 -1.283666
v 0.461061 0.206047 -1.316221
v 0.454983 0.265085 -1.219307
v 0.654333 0.224058 -1.184295
v 0.789284 0.704086 -1.044785
v 0.430102 0.712947 -1.053257
v 0.646781 0.492264 -0.960377
v 0.756072 0.541373 -0.981302
v 0.459392 0.863529 -1.104993
v 0.479797 0.537004 -0.988133
v 0.554791 0.891375 -1.114181
v 0.743903 0.864761 -1.102917
v -0.000000 1.964712 -0.963352
v -0.000000 1.715167 -1.003691
v 0.092467 1.734315 -0.967716
v 0.076591 1.955334 -0.937061
v 0.127798 1.727633 -0.919358
v 0.088882 2.048142 -0.898695
v -0.000000 1.692332 -0.956154
v -0.000000 2.059583 -0.930772
v 0.353936 1.745596 2.705583
v 0.462452 1.329478 2.717593
v 0.346085 1.575981 2.995215
v 0.469988 1.304039 2.921337
v 0.431634 1.656791 2.822185
v 0.509515 1.640921 2.839091
v 0.472450 1.664153 2.838996
v 0.537234 1.604890 2.829707
v 0.536419 1.519285 2.800723
v 0.550043 1.562808 2.816809
v 0.514399 1.603327 2.875196
v 0.455471 1.614153 2.878037
v 0.486059 1.618950 2.880267
v 0.527030 1.528877 2.855269
v 0.527210 1.588589 2.870153
v 0.537319 1.559579 2.861884
v 0.372831 1.594081 2.868372
v 0.460350 1.408266 2.833233
v 0.490673 1.642776 2.885852
v 0.529939 1.620950 2.879341
v 0.447174 1.635965 2.883122
v 0.548145 1.599787 2.872815
v 0.562047 1.559690 2.861984
v 0.548125 1.518111 2.852851
v 0.383871 1.569389 2.863617
v 0.450291 1.429755 2.837207
v 0.413090 1.568331 2.852093
v 0.458299 1.472762 2.835094
v 0.473111 1.593393 2.862180
v 0.493557 1.582196 2.858541
v 0.451044 1.589938 2.860562
v 0.502798 1.571618 2.854916
v 0.510091 1.550770 2.848973
v 0.502668 1.528762 2.844241
v 0.399391 1.557849 2.850204
v 0.447307 1.457031 2.831023
v 0.058900 1.018372 3.420425
v 0.055763 0.930944 3.431586
v 0.099802 1.020772 3.392360
v 0.095412 0.933088 3.404395
v -0.000000 0.931144 3.434630
v -0.000000 1.015997 3.423908
v 0.030579 0.954905 3.457902
v -0.000000 1.004802 3.451853
v -0.000000 0.954675 3.457292
v -0.546747 1.198256 0.597597
v -0.532710 2.434359 0.473298
v -0.602170 1.190053 0.087056
v -0.619472 2.369640 -0.233386
v -0.708446 1.778131 0.089619
v -0.615622 1.158828 0.313220
v -0.609568 2.455902 0.117253
v -0.653589 1.758596 0.514716
v -0.718959 1.788399 0.183566
v -0.820421 0.217142 -0.162954
v -0.537649 2.224961 -0.535916
v -0.464302 1.187612 -0.589169
v -0.464300 2.027310 -0.747271
v -0.090363 0.838273 3.153967
v -0.561875 1.598154 -0.788344
v -0.084677 1.231103 3.232123
v -0.172094 1.620359 3.043601
v -0.479500 1.294292 0.960059
v -0.502056 2.384430 0.889791
v -0.175772 0.862253 2.953317
v -0.620777 1.729627 0.849122
v -0.059274 0.849380 3.385281
v -0.033850 1.006654 3.452919
v -0.047665 0.803893 3.274008
v -0.567486 2.553380 1.239706
v -0.578280 0.770734 0.800815
v -0.118300 1.440674 3.227237
v -0.136209 0.837971 3.067686
v -0.177045 1.799228 2.822343
v -0.579889 2.556211 1.435940
v -0.482149 0.737104 0.847036
v -0.190837 0.894266 2.837065
v -0.177045 1.912819 2.650341
v -0.177045 0.930874 2.694977
v -0.540929 2.489392 1.719287
v -0.690443 1.810961 1.702793
v -0.570579 0.992990 1.658980
v -0.181751 2.061258 2.401325
v -0.181751 1.080547 2.333738
v -0.457740 2.245858 2.017209
v -0.563979 1.563843 1.900190
v -0.463728 1.287946 1.882300
v -0.227643 2.303990 2.070443
v -0.232177 1.209572 1.897523
v -0.270700 2.556121 1.765668
v -0.366968 1.033654 1.609967
v -0.364925 2.003774 2.356512
v -0.446058 1.420433 2.321816
v -0.364925 1.132162 2.274334
v -0.286301 2.626046 1.479465
v -0.312110 1.041720 1.495062
v -0.279360 2.624300 1.276939
v -0.355746 1.863848 2.607550
v -0.433703 1.378066 2.610791
v -0.355746 0.977690 2.642632
v -0.319477 1.106946 1.363538
v -0.251387 2.457619 0.911338
v -0.345683 1.196371 1.118624
v -0.372539 1.617190 2.783069
v -0.455708 1.408234 2.755343
v -0.382651 0.943895 2.791540
v -0.248973 1.598844 -0.877563
v -0.203268 2.084297 -0.852211
v -0.324461 1.166054 -0.563680
v -0.241143 1.412957 3.174959
v -0.339854 1.171072 3.076830
v -0.276080 0.874541 3.029283
v -0.249692 2.240095 -0.666630
v -0.282619 1.107931 -0.312716
v -0.307155 2.557807 0.092685
v -0.069124 1.007249 3.430727
v -0.125993 0.864773 3.347556
v -0.103346 0.829876 3.270942
v -0.064203 0.955373 3.436392
v -0.465527 1.451547 2.842765
v -0.353261 0.905570 2.909946
v -0.310154 1.033850 0.247880
v -0.402860 1.584387 2.866307
v -0.267626 2.510761 0.480969
v -0.278775 1.071736 0.598335
v -0.301735 2.444728 -0.401226
v -0.356843 1.084674 -0.011179
v -0.186642 0.868431 3.117299
v -0.210413 1.017917 3.212205
v -0.175549 1.197467 3.209422
v -0.070240 0.820697 3.208733
v -0.067630 1.082705 3.355615
v -0.139993 0.839393 3.201154
v -0.161300 0.942194 3.279279
v -0.134901 1.071764 3.324772
v -0.621088 2.284763 0.990613
v -0.721654 1.723327 0.895613
v -0.679090 1.407382 0.987550
v -0.677663 2.443351 1.239100
v -0.820521 1.749237 1.304006
v -0.841464 1.203369 1.316527
v -0.640813 2.456530 1.420494
v -0.834896 1.781545 1.474965
v -0.852975 1.101276 1.464411
v -0.656144 2.321340 1.604503
v -0.786514 1.815491 1.669006
v -0.782838 1.043298 1.613835
v -0.466468 0.970613 0.900008
v -0.564257 1.035373 0.854175
v -0.780644 0.716576 1.276305
v -0.629312 0.666393 1.310167
v -0.830726 0.773042 1.170198
v -0.444843 0.807842 1.061996
v -0.822777 0.853780 1.066047
v -0.707892 1.055591 0.857260
v -0.447369 0.715640 1.175931
v -0.489450 0.679198 1.273911
v -0.781015 0.555769 1.110614
v -0.631868 0.535451 1.145345
v -0.555088 0.429382 0.500149
v -0.833608 0.596635 1.030616
v -0.455623 0.655746 0.953698
v -0.437840 0.401012 0.545751
v -0.825102 0.651840 0.945288
v -0.715679 0.763594 0.806441
v -0.453899 0.592612 1.051354
v -0.495594 0.557565 1.116123
v -0.469366 0.607370 0.700698
v -0.575155 0.632863 0.656493
v -0.798717 0.430443 0.938037
v -0.635755 0.416337 0.971611
v -0.820831 0.469478 0.864266
v -0.446412 0.535115 0.798967
v -0.813947 0.519937 0.785896
v -0.727580 0.620885 0.659434
v -0.446050 0.477658 0.888349
v -0.488283 0.443632 0.946918
v -0.827663 0.186076 0.777052
v -0.619746 0.170977 0.806501
v -0.662964 0.248469 0.712833
v -0.827772 0.241499 0.709325
v -0.412258 0.320232 0.646662
v -0.656503 0.314796 0.630670
v -0.821871 0.300903 0.632886
v -0.723968 0.415183 0.502964
v -0.413289 0.252333 0.733892
v -0.428757 0.207390 0.786657
v -0.451311 0.506598 0.627800
v -0.428053 0.368878 0.818880
v -0.426768 0.431001 0.728674
v -0.821374 0.412879 0.715073
v -0.827345 0.358764 0.794810
v -0.811229 0.357788 0.900340
v -0.634110 0.335870 0.934126
v -0.727609 0.519309 0.585135
v -0.564463 0.532652 0.582257
v -0.472942 0.374155 0.908963
v -0.619360 0.173039 0.978794
v -0.613210 0.078765 0.906268
v -0.791008 0.096346 0.876326
v -0.452607 0.112888 0.885254
v -0.791205 0.191719 0.949329
v -0.464398 0.208344 0.957968
v -0.762347 2.230656 -0.303678
v -0.786892 1.771235 0.005388
v -0.762361 1.201727 0.007682
v -0.752301 2.097519 -0.517516
v -0.858107 1.657590 -0.466980
v -0.810131 1.183491 -0.249772
v -0.742125 1.934759 -0.688938
v -0.837785 1.602262 -0.685989
v -0.742129 1.187801 -0.527725
v -0.603153 -0.010878 -0.138416
v -0.522593 0.840420 -0.542116
v -0.633125 0.987619 0.060769
v -0.436431 0.955546 -0.004573
v -0.377033 0.896299 -0.261164
v -0.410492 0.847466 -0.496326
v -0.799864 0.911363 -0.250128
v -0.745346 0.849967 -0.501431
v -0.761562 0.972554 -0.012113
v -0.538917 0.646198 -0.465170
v -0.639621 0.552532 0.091945
v -0.460445 0.554483 0.024953
v -0.406329 0.609121 -0.213007
v -0.436801 0.640118 -0.424566
v -0.791500 0.616197 -0.195490
v -0.741832 0.645310 -0.425918
v -0.756617 0.569378 0.025094
v -0.546278 -0.008590 -0.375701
v -0.665734 0.002034 0.082414
v -0.410838 -0.015594 0.029887
v -0.398706 -0.019806 -0.165095
v -0.432624 -0.012474 -0.342524
v -0.827396 -0.009481 -0.152765
v -0.772119 -0.007609 -0.344051
v -0.832176 -0.002018 0.027026
v -0.823266 0.222009 0.013220
v -0.391732 0.206678 -0.176094
v -0.425650 0.211653 -0.352597
v -0.401928 0.209506 0.015323
v -0.656824 0.222108 0.067153
v -0.539304 0.215787 -0.385640
v -0.765145 0.217070 -0.353818
v -0.781601 0.119564 0.146119
v -0.788568 0.008463 0.165555
v -0.658352 0.011788 0.220463
v -0.458933 -0.005218 0.168611
v -0.451966 0.104749 0.149980
v -0.651385 0.125488 0.199919
v -0.782544 0.435182 -0.179732
v -0.423318 0.427237 -0.191427
v -0.640891 0.422370 0.047105
v -0.750007 0.425846 -0.006081
v -0.451739 0.442012 -0.359090
v -0.473786 0.414873 -0.004566
v -0.546977 0.446718 -0.390541
v -0.736223 0.446454 -0.360327
v -0.092420 1.728981 -0.965568
v -0.076591 1.955334 -0.937061
v -0.127604 1.707038 -0.913515
v -0.088882 2.048142 -0.898695
v -0.353936 1.745596 2.705583
v -0.462452 1.329487 2.717604
v -0.346085 1.576001 2.995217
v -0.469988 1.304050 2.921346
v -0.431634 1.656887 2.822178
v -0.509515 1.641087 2.839086
v -0.472450 1.664310 2.838983
v -0.537234 1.605072 2.829719
v -0.536419 1.519388 2.800755
v -0.550043 1.562946 2.816835
v -0.514399 1.603468 2.875206
v -0.455471 1.614283 2.878043
v -0.486059 1.619090 2.880272
v -0.527030 1.528990 2.855298
v -0.527210 1.588729 2.870167
v -0.537319 1.559710 2.861907
v -0.372831 1.594107 2.868374
v -0.460350 1.408286 2.833245
v -0.490673 1.642933 2.885848
v -0.529939 1.621109 2.879345
v -0.447174 1.636093 2.883121
v -0.548145 1.599944 2.872828
v -0.562047 1.559830 2.862008
v -0.548125 1.518228 2.852885
v -0.383871 1.569465 2.863629
v -0.450291 1.429777 2.837219
v -0.413090 1.568414 2.852106
v -0.458299 1.472793 2.835107
v -0.473111 1.593513 2.862191
v -0.493557 1.582296 2.858553
v -0.451044 1.590068 2.860575
v -0.502798 1.571730 2.854933
v -0.510091 1.550894 2.848998
v -0.502668 1.528862 2.844267
v -0.399391 1.557921 2.850217
v -0.447307 1.457059 2.831037
v -0.058900 1.018372 3.420425
v -0.055763 0.930944 3.431586
v -0.099802 1.020772 3.392360
v -0.095412 0.933088 3.404395
v -0.030579 0.954905 3.457902
v 0.291561 1.202383 3.108349
v 0.306648 1.271205 3.120250
v 0.269728 1.202449 3.150277
v 0.232186 1.162261 3.150124
v 0.245906 1.206180 3.120003
v 0.291926 1.273511 3.101539
v 0.256597 1.273619 3.169381
v 0.210577 1.206288 3.187844
v 0.195855 1.208594 3.169134
v 0.232775 1.277350 3.139107
v 0.270316 1.317538 3.139260
v 0.210942 1.277416 3.181035
v 0.285805 1.195835 3.126612
v 0.307506 1.236248 3.108963
v 0.294673 1.236288 3.133608
v 0.307720 1.278057 3.104961
v 0.298852 1.237604 3.097966
v 0.263739 1.172213 3.126523
v 0.250905 1.172252 3.151168
v 0.271803 1.198028 3.108818
v 0.236903 1.174445 3.133373
v 0.272017 1.239836 3.104815
v 0.295019 1.303936 3.127132
v 0.286365 1.305291 3.116135
v 0.265254 1.237706 3.162486
v 0.286955 1.278120 3.144837
v 0.216138 1.174508 3.173250
v 0.238204 1.198130 3.173339
v 0.215548 1.201679 3.144547
v 0.207484 1.175864 3.162252
v 0.264299 1.281669 3.116045
v 0.237249 1.242093 3.126897
v 0.265600 1.305354 3.156011
v 0.230486 1.239963 3.184568
v 0.194783 1.201742 3.184423
v 0.207830 1.243511 3.155776
v 0.251598 1.307547 3.138216
v 0.230700 1.281771 3.180566
v 0.238764 1.307586 3.162861
v 0.203650 1.242195 3.191418
v 0.194997 1.243551 3.180421
v 0.216698 1.283964 3.162771
v -0.291561 1.202383 3.108349
v -0.306648 1.271205 3.120250
v -0.269728 1.202449 3.150277
v -0.232186 1.162261 3.150125
v -0.245906 1.206180 3.120003
v -0.291925 1.273511 3.101540
v -0.256597 1.273618 3.169381
v -0.210577 1.206288 3.187845
v -0.195854 1.208594 3.169135
v -0.232775 1.277350 3.139107
v -0.270316 1.317538 3.139260
v -0.210942 1.277416 3.181035
v -0.285805 1.195835 3.126613
v -0.307506 1.236248 3.108964
v -0.294673 1.236288 3.133608
v -0.307720 1.278057 3.104961
v -0.298852 1.237604 3.097966
v -0.263739 1.172213 3.126524
v -0.250905 1.172252 3.151168
v -0.271803 1.198028 3.108819
v -0.236903 1.174445 3.133373
v -0.272017 1.239836 3.104816
v -0.295019 1.303936 3.127132
v -0.286365 1.305291 3.116135
v -0.265254 1.237706 3.162487
v -0.286955 1.278120 3.144837
v -0.216137 1.174508 3.173250
v -0.238204 1.198130 3.173339
v -0.215548 1.201679 3.144547
v -0.207484 1.175864 3.162252
v -0.264299 1.281669 3.116045
v -0.237249 1.242093 3.126898
v -0.265599 1.305354 3.156011
v -0.230486 1.239963 3.184568
v -0.194782 1.201742 3.184423
v -0.207830 1.243511 3.155776
v -0.251597 1.307547 3.138216
v -0.230700 1.281771 3.180566
v -0.238764 1.307586 3.162861
v -0.203650 1.242195 3.191419
v -0.194997 1.243551 3.180421
v -0.216698 1.283964 3.162771
vn -0.8476 -0.5302 -0.0216
vn 0.3170 0.8237 -0.4702
vn 0.9883 -0.1324 -0.0757
vn 0.9902 0.1380 -0.0208
vn 0.9673 0.1461 0.2072
vn 0.9792 -0.1325 0.1539
vn 0.9779 -0.1533 0.1421
vn 0.0935 -0.9816 0.1664
vn 0.1659 -0.9309 -0.3255
vn 0.0752 -0.9969 0.0214
vn 0.1119 0.9645 -0.2391
vn 0.1802 0.9720 0.1509
vn 0.1914 0.7708 -0.6076
vn 0.2063 -0.1154 -0.9717
vn 0.1330 -0.8991 -0.4170
vn 0.6325 0.2943 0.7165
vn 0.1625 0.2321 -0.9590
vn 0.0700 -0.2283 -0.9711
vn 0.2193 0.3496 -0.9109
vn 0.2929 -0.8029 -0.5192
vn 0.8409 0.5411 0.0109
vn 0.9971 -0.0473 -0.0598
vn 0.1534 0.9798 0.1285
vn 0.9839 0.1466 0.1020
vn 0.3231 -0.5849 -0.7440
vn 0.1106 0.9936 -0.0220
vn 0.0046 0.9160 -0.4010
vn -0.6364 -0.4715 -0.6105
vn 0.6683 0.1235 -0.7336
vn 0.1639 0.9593 0.2302
vn -0.9708 -0.2292 0.0708
vn 0.9328 -0.0955 -0.3474
vn -0.0017 0.8067 -0.5910
vn 0.3728 0.1876 0.9088
vn -0.3989 -0.3378 0.8525
vn -0.0383 -0.9896 0.1384
vn -0.0072 -0.9691 -0.2465
vn -0.0752 -0.9963 0.0424
vn 0.0753 0.0626 0.9952
vn 0.7731 0.4793 -0.4154
vn 0.3446 0.9171 -0.2004
vn 0.9471 -0.3094 0.0851
vn 0.2945 -0.8595 -0.4178
vn 0.3121 0.9403 0.1358
vn 0.2081 0.7376 0.6424
vn 0.0361 0.8053 -0.5918
vn 0.8506 0.1409 0.5066
vn 0.4794 -0.5381 0.6933
vn 0.8051 0.1362 -0.5773
vn 0.1430 -0.2938 -0.9451
vn 0.9854 0.1446 0.0894
vn 0.9728 0.1157 -0.2008
vn 0.1716 0.7728 0.6110
vn 0.3166 -0.9485 -0.0105
vn 0.9422 0.1142 0.3151
vn 0.3067 0.9423 0.1344
vn 0.2946 0.9554 -0.0209
vn 0.9785 0.2029 0.0366
vn 0.2311 0.8794 -0.4162
vn 0.0773 0.8283 0.5550
vn 0.1320 -0.9158 -0.3793
vn 0.9749 -0.2190 -0.0393
vn 0.3261 0.9157 0.2350
vn 0.1169 0.8434 0.5244
vn -0.0007 0.7027 0.7115
vn 0.2788 -0.9455 0.1681
vn 0.8391 -0.2585 0.4787
vn 0.2122 -0.9694 -0.1234
vn 0.0951 -0.7255 0.6816
vn 0.1799 -0.9501 -0.2550
vn 0.9346 -0.2247 -0.2758
vn 0.0941 -0.9210 0.3781
vn 0.8717 -0.4619 0.1634
vn 0.3324 -0.9424 -0.0379
vn 0.2893 -0.9124 -0.2895
vn 0.3446 0.6925 0.6338
vn 0.3630 0.7249 0.5854
vn 0.7618 0.1167 0.6372
vn 0.4555 0.6739 0.5817
vn 0.1552 -0.9115 -0.3809
vn 0.1859 -0.9044 0.3841
vn 0.8837 0.0146 0.4678
vn 0.3522 0.8065 0.4749
vn 0.3844 0.5819 0.7167
vn 0.1217 -0.9795 -0.1603
vn 0.4144 0.6139 0.6719
vn 0.1593 -0.9536 -0.2556
vn 0.5346 0.0445 0.8439
vn 0.1479 -0.9661 -0.2115
vn 0.3937 -0.8689 0.3000
vn -0.3030 -0.3576 0.8834
vn -0.0092 0.7199 0.6941
vn 0.1789 -0.9513 -0.2512
vn 0.9702 -0.2417 0.0180
vn 0.0310 -0.4999 0.8655
vn 0.0512 0.7754 0.6294
vn 0.6302 0.0242 0.7761
vn 0.1441 -0.9625 -0.2299
vn -0.1346 0.0960 0.9862
vn 0.4460 0.7342 0.5120
vn 0.3335 0.0094 0.9427
vn 0.0463 -0.9974 0.0546
vn 0.3308 -0.9162 0.2262
vn 0.7809 -0.3239 0.5342
vn 0.4028 0.5516 0.7304
vn 0.1485 -0.9585 -0.2432
vn 0.8472 0.0957 0.5226
vn -0.0169 0.6311 0.7755
vn 0.2233 -0.9513 -0.2123
vn 0.8796 -0.3658 0.3042
vn 0.9491 -0.2097 -0.2349
vn 0.9844 0.1757 -0.0047
vn 0.9730 0.1152 -0.2002
vn 0.9541 0.2607 0.1477
vn 0.9973 -0.0192 -0.0708
vn 0.9391 0.1642 0.3019
vn 0.7659 0.2737 0.5818
vn 0.9063 0.3520 0.2338
vn -0.6897 0.1197 0.7142
vn -0.0082 0.3957 0.9183
vn 0.0373 -0.5190 -0.8540
vn 0.9022 0.0229 0.4307
vn -0.9841 -0.1359 -0.1146
vn -0.9958 -0.0857 0.0314
vn 0.9951 0.0440 -0.0888
vn 0.2991 -0.1020 0.9488
vn 0.8934 -0.0285 0.4484
vn -0.8740 0.0595 0.4823
vn 0.1676 -0.4739 -0.8645
vn -0.9528 -0.2941 -0.0751
vn 0.9225 -0.0507 0.3825
vn -0.9876 0.0380 -0.1524
vn -0.9996 -0.0161 0.0226
vn 0.9931 0.0242 -0.1149
vn 0.2577 -0.2702 0.9277
vn 0.8350 0.1492 -0.5296
vn -0.8459 -0.0499 0.5311
vn -0.3248 -0.0779 0.9426
vn -0.4767 -0.4785 -0.7374
vn 0.8854 -0.1319 -0.4456
vn 0.0213 0.0005 -0.9998
vn 0.9935 0.1096 0.0301
vn -0.9879 0.0391 -0.1498
vn -0.9977 0.0463 0.0494
vn 0.9928 0.0580 -0.1050
vn 0.9772 0.1164 0.1773
vn 0.0189 0.1561 -0.9876
vn -0.8083 -0.1884 0.5578
vn -0.1874 -0.3148 0.9305
vn -0.5012 0.1427 -0.8535
vn -0.0021 -1.0000 -0.0087
vn 0.0117 -0.9999 0.0056
vn -0.0015 -0.9997 0.0244
vn 0.0019 -0.9999 -0.0121
vn -0.0092 -1.0000 -0.0005
vn 0.0041 -0.9997 0.0247
vn -0.9198 0.1199 0.3737
vn -0.9795 0.1188 0.1629
vn -0.4542 0.0074 -0.8909
vn 0.8490 0.0295 -0.5276
vn 0.8545 0.0530 -0.5167
vn -0.4613 0.0006 -0.8872
vn -0.1955 0.1788 0.9643
vn -0.8548 0.1334 0.5015
vn 0.2430 0.2104 0.9469
vn 0.9877 0.1058 -0.1148
vn -0.9958 0.0849 0.0338
vn -0.9858 0.0797 -0.1478
vn 0.9767 0.1699 0.1310
vn 0.0211 -0.0216 -0.9995
vn 0.2354 0.0521 0.9705
vn -0.1893 0.0508 0.9806
vn 0.1243 0.8210 0.5572
vn 0.0059 -0.9991 -0.0426
vn -0.1001 0.8259 0.5549
vn -0.0056 -0.9990 -0.0443
vn 0.9856 0.1486 0.0811
vn 0.9547 -0.1551 -0.2540
vn 0.9858 -0.0900 0.1417
vn 0.9455 0.2986 -0.1303
vn 0.5950 -0.3749 0.7110
vn 0.4724 0.8291 -0.2990
vn 0.9850 -0.1154 0.1285
vn 0.2977 0.7934 -0.5309
vn -0.9683 -0.2130 0.1302
vn -0.3099 0.1389 -0.9406
vn -0.2834 -0.6834 0.6728
vn 0.9845 -0.1233 0.1245
vn 0.1417 0.4966 -0.8563
vn -0.4085 0.3844 -0.8279
vn -0.9283 -0.2154 -0.3033
vn -0.1288 -0.7274 0.6740
vn -0.2748 0.8610 -0.4280
vn -0.9448 -0.3041 0.1216
vn 0.9995 0.0273 0.0169
vn -0.9806 0.1645 -0.1062
vn 0.4643 -0.6088 0.6433
vn 0.1463 0.1643 -0.9755
vn 0.9679 0.0858 -0.2362
vn -0.9735 -0.0217 -0.2276
vn -0.0022 -0.4156 -0.9095
vn 0.0418 -0.4003 -0.9154
vn 0.0323 -0.3634 -0.9311
vn -0.0014 -0.3763 -0.9265
vn -0.9982 -0.0593 -0.0010
vn 0.9435 -0.2729 0.1880
vn 0.1426 0.8909 -0.4312
vn 0.9616 0.2556 -0.0996
vn 0.9572 0.2891 0.0106
vn 0.1467 0.9149 -0.3760
vn 0.3564 -0.7737 0.5239
vn -0.9556 -0.0414 0.2919
vn -0.9755 0.2153 0.0449
vn 0.9636 0.0216 0.2664
vn -0.2447 -0.8264 0.5071
vn -0.2846 0.8935 -0.3474
vn -0.2596 -0.8300 0.4936
vn 0.3810 -0.7761 0.5026
vn -0.1895 -0.2840 0.9399
vn 0.0482 -0.4246 -0.9041
vn 0.2420 -0.2903 0.9258
vn 0.0020 -0.4341 -0.9009
vn -0.3054 0.7091 -0.6355
vn -0.3089 -0.9355 0.1713
vn 0.9840 -0.1779 0.0128
vn -0.9782 0.1119 -0.1747
vn -0.9703 -0.2416 0.0130
vn 0.4636 -0.8715 0.1599
vn 0.1580 0.7454 -0.6476
vn 0.9658 0.1863 -0.1805
vn 0.3339 0.1516 -0.9303
vn 0.3401 -0.8562 -0.3889
vn 0.3507 0.3110 -0.8834
vn 0.2148 0.5112 -0.8322
vn 0.1851 -0.2020 -0.9617
vn 0.2730 0.1182 -0.9547
vn 0.9559 0.2924 0.0277
vn 0.9356 0.3059 0.1761
vn 0.9962 0.0793 -0.0359
vn 0.8972 0.3502 0.2690
vn -0.5814 0.7597 0.2912
vn 0.7632 0.6392 -0.0946
vn 0.8055 -0.5830 -0.1063
vn 0.5114 0.8418 0.1727
vn -0.2441 0.8746 0.4189
vn 0.9123 0.3553 -0.2037
vn 0.9422 -0.2339 -0.2399
vn 0.2534 0.2938 -0.9217
vn -0.0583 -0.2079 0.9764
vn 0.0315 -0.2429 0.9695
vn -0.0291 -0.2298 0.9728
vn 0.0071 -0.2641 0.9645
vn -0.0000 -0.2129 0.9771
vn 0.0388 -0.2760 0.9604
vn -0.0459 -0.2735 0.9608
vn 0.0441 -0.2031 0.9782
vn -0.0015 -0.2251 0.9743
vn 0.0073 -0.1859 0.9825
vn 0.1632 -0.5961 0.7862
vn -0.0299 -0.1948 0.9804
vn 0.2959 -0.5244 0.7984
vn -0.4091 0.1794 0.8947
vn -0.4121 -0.0573 0.9093
vn -0.1385 -0.5248 0.8399
vn 0.7292 0.2242 0.6465
vn -0.2059 -0.4727 0.8568
vn -0.5066 0.1361 0.8514
vn 0.0332 -0.5887 0.8077
vn 0.3193 0.7850 0.5308
vn 0.5296 -0.3362 0.7788
vn 0.5248 -0.3983 0.7523
vn -0.0292 0.1027 0.9943
vn 0.0200 -0.7126 0.7013
vn -0.0339 0.9391 0.3420
vn 0.7525 0.0332 0.6577
vn 0.8810 -0.4094 0.2373
vn -0.3810 0.7448 -0.5479
vn -0.9804 -0.1776 -0.0850
vn -0.9888 0.1456 -0.0330
vn -0.9602 0.1816 0.2123
vn -0.9679 -0.1329 0.2132
vn -0.9648 -0.2095 0.1587
vn -0.5379 -0.8178 0.2046
vn -0.4140 -0.9018 -0.1241
vn -0.3796 -0.9093 0.1707
vn -0.1145 0.9633 -0.2429
vn -0.1794 0.9721 0.1514
vn -0.3739 0.6338 -0.6772
vn -0.2586 -0.4344 -0.8628
vn -0.3308 -0.9176 -0.2205
vn -0.6897 0.4265 0.5852
vn -0.3289 0.1196 -0.9368
vn -0.1426 -0.5172 -0.8439
vn -0.2946 0.1222 -0.9478
vn -0.2239 -0.9200 -0.3216
vn -0.7755 0.6309 0.0235
vn -0.9971 0.0010 -0.0762
vn -0.1513 0.9802 0.1275
vn -0.9791 0.1764 0.1013
vn -0.3324 -0.3208 -0.8869
vn -0.0846 0.9962 -0.0206
vn 0.0132 0.9128 -0.4081
vn 0.7128 0.1556 -0.6839
vn -0.6091 0.1956 -0.7686
vn -0.1514 0.9597 0.2368
vn 0.9580 -0.2325 -0.1680
vn -0.9238 0.1929 -0.3307
vn -0.0138 0.7945 -0.6071
vn -0.8474 -0.1983 0.4925
vn -0.0107 -0.7327 0.6804
vn -0.4974 -0.8612 0.1045
vn -0.3729 -0.9136 -0.1619
vn -0.4016 -0.9104 0.0995
vn -0.3297 -0.6701 0.6650
vn -0.7024 0.5543 -0.4466
vn -0.3292 0.9194 -0.2153
vn -0.9389 -0.3173 0.1334
vn -0.2418 -0.9302 -0.2763
vn -0.2935 0.9467 0.1331
vn -0.2058 0.7375 0.6432
vn -0.0939 0.7959 -0.5980
vn -0.8683 0.1159 0.4823
vn -0.4651 -0.0618 0.8831
vn -0.8366 0.1212 -0.5343
vn -0.3712 -0.4064 -0.8349
vn -0.9857 0.1441 0.0879
vn -0.9745 -0.0208 -0.2234
vn -0.1711 0.7727 0.6112
vn -0.4808 -0.8602 -0.1699
vn -0.9441 0.1022 0.3133
vn -0.2830 0.9501 0.1313
vn -0.2322 0.9724 -0.0224
vn -0.9785 0.2029 0.0366
vn -0.1876 0.8796 -0.4371
vn -0.0773 0.8283 0.5550
vn -0.1320 -0.9158 -0.3793
vn -0.9739 -0.2242 -0.0352
vn -0.2653 0.9314 0.2490
vn -0.1169 0.8434 0.5244
vn 0.0007 0.7027 0.7115
vn -0.3286 -0.9416 -0.0735
vn -0.8391 -0.2585 0.4787
vn -0.2122 -0.9694 -0.1234
vn -0.2117 -0.8021 0.5584
vn -0.1799 -0.9500 -0.2550
vn -0.9346 -0.2247 -0.2758
vn -0.1570 -0.9516 0.2641
vn -0.8717 -0.4619 0.1634
vn -0.3324 -0.9424 -0.0379
vn -0.1855 -0.9504 -0.2497
vn -0.3035 0.7037 0.6423
vn -0.3443 0.7254 0.5960
vn -0.7618 0.1167 0.6373
vn -0.4555 0.6740 0.5817
vn -0.1552 -0.9115 -0.3809
vn -0.1859 -0.9044 0.3841
vn -0.8837 0.0146 0.4678
vn -0.3522 0.8065 0.4749
vn -0.3843 0.5819 0.7167
vn -0.1217 -0.9795 -0.1603
vn -0.4144 0.6139 0.6719
vn -0.1593 -0.9536 -0.2556
vn -0.5346 0.0445 0.8439
vn -0.1479 -0.9661 -0.2115
vn -0.3937 -0.8689 0.3000
vn 0.3029 -0.3573 0.8835
vn 0.0092 0.7199 0.6941
vn -0.1789 -0.9512 -0.2512
vn -0.9702 -0.2417 0.0180
vn -0.0310 -0.4999 0.8655
vn -0.0512 0.7754 0.6293
vn -0.6302 0.0242 0.7761
vn -0.1441 -0.9625 -0.2299
vn 0.1346 0.0960 0.9862
vn -0.4460 0.7342 0.5119
vn -0.3335 0.0094 0.9427
vn -0.0463 -0.9974 0.0546
vn -0.3308 -0.9162 0.2262
vn -0.7809 -0.3239 0.5342
vn -0.4028 0.5516 0.7304
vn -0.1485 -0.9585 -0.2432
vn -0.8472 0.0957 0.5226
vn 0.0169 0.6311 0.7755
vn -0.2233 -0.9513 -0.2123
vn -0.8796 -0.3658 0.3042
vn -0.9355 -0.0656 -0.3473
vn -0.9699 0.2414 0.0307
vn -0.9423 0.1893 -0.2762
vn -0.9482 0.2763 0.1569
vn -0.9968 0.0316 -0.0740
vn -0.9454 -0.0054 0.3259
vn -0.6570 0.1849 0.7308
vn -0.8605 0.4503 0.2381
vn 0.2710 -0.7174 0.6417
vn -0.2606 -0.0801 0.9621
vn -0.0219 0.1847 -0.9825
vn -0.8933 -0.2969 0.3375
vn 0.9850 0.0045 -0.1724
vn 0.9988 -0.0407 -0.0261
vn -0.9975 0.0491 -0.0514
vn -0.3108 -0.7112 0.6305
vn -0.9061 -0.3108 0.2871
vn 0.8004 -0.5445 0.2507
vn 0.0533 0.3515 -0.9347
vn 0.9485 -0.2071 -0.2399
vn -0.9038 -0.3368 0.2641
vn 0.9768 0.1943 -0.0902
vn 0.9987 0.0467 0.0190
vn -0.9963 0.0142 -0.0845
vn -0.2126 -0.7920 0.5723
vn -0.8636 0.3766 -0.3354
vn 0.8804 -0.3773 0.2874
vn 0.2381 -0.7678 0.5947
vn 0.4866 0.1545 -0.8599
vn -0.8900 0.1658 -0.4247
vn -0.0646 0.6171 -0.7842
vn -0.9958 -0.0075 0.0908
vn 0.9765 0.1954 -0.0911
vn 0.9946 0.0771 0.0695
vn -0.9981 0.0389 -0.0476
vn -0.9733 -0.0945 0.2091
vn -0.0679 0.7196 -0.6910
vn 0.8407 -0.4273 0.3327
vn 0.2434 -0.8011 0.5468
vn 0.4585 0.6662 -0.5882
vn 0.0588 -0.7722 -0.6326
vn 0.0400 -0.7660 -0.6416
vn 0.0611 -0.7836 -0.6182
vn 0.0552 -0.7706 -0.6349
vn 0.0711 -0.7586 -0.6477
vn 0.0520 -0.7845 -0.6179
vn 0.9259 -0.0778 0.3696
vn 0.9775 0.0577 0.2030
vn 0.4137 0.5901 -0.6933
vn -0.8711 0.2892 -0.3969
vn -0.8776 0.2945 -0.3783
vn 0.4226 0.5739 -0.7014
vn 0.2305 -0.4164 0.8795
vn 0.8662 -0.1289 0.4827
vn -0.2189 -0.4175 0.8819
vn -0.9963 0.0813 -0.0272
vn 0.9892 0.1194 0.0846
vn 0.9723 0.2245 -0.0652
vn -0.9787 -0.0180 0.2046
vn -0.0622 0.5895 -0.8053
vn -0.1941 -0.6013 0.7751
vn 0.2309 -0.5776 0.7830
vn -0.1433 0.2570 0.9557
vn 0.0425 -0.7328 -0.6791
vn 0.0745 0.2782 0.9576
vn 0.0672 -0.7294 -0.6807
vn -0.9873 0.1559 0.0319
vn -0.9643 -0.2188 -0.1489
vn -0.9854 -0.0334 0.1667
vn -0.9505 0.2337 -0.2048
vn -0.5652 -0.0641 0.8225
vn -0.4781 0.7352 -0.4806
vn -0.9840 -0.0288 0.1756
vn -0.3859 0.6282 -0.6757
vn 0.9733 -0.0501 0.2239
vn 0.3507 -0.3577 -0.8655
vn 0.3356 0.0560 0.9404
vn -0.9875 0.0019 0.1575
vn -0.2008 -0.0865 -0.9758
vn 0.2541 -0.2170 -0.9425
vn 0.9252 -0.3485 -0.1500
vn 0.2998 -0.1558 0.9412
vn 0.2776 -0.0514 -0.9593
vn 0.9424 -0.0115 0.3343
vn -0.9992 0.0340 -0.0226
vn 0.9811 -0.0392 -0.1894
vn -0.4931 0.0716 0.8670
vn -0.1800 -0.3462 -0.9208
vn -0.9756 -0.0768 -0.2058
vn 0.9805 -0.1429 -0.1346
vn -0.0022 -0.9987 0.0504
vn -0.0522 -0.9981 0.0317
vn -0.0397 -0.9989 -0.0254
vn -0.0057 -0.9999 -0.0112
vn 0.9978 -0.0318 0.0582
vn -0.9435 0.0767 0.3224
vn -0.1392 -0.0391 -0.9895
vn -0.9605 0.0174 -0.2778
vn -0.9574 0.1295 -0.2580
vn -0.1478 -0.0177 -0.9889
vn -0.3554 0.1680 0.9195
vn 0.9562 0.2454 0.1595
vn 0.9784 0.1169 -0.1705
vn -0.9617 0.2606 0.0850
vn 0.2420 0.1281 0.9618
vn 0.2949 -0.0020 -0.9555
vn 0.2579 0.1511 0.9543
vn -0.3842 0.1847 0.9046
vn 0.1931 0.7680 0.6106
vn -0.0614 -0.9961 0.0634
vn -0.2366 0.7570 0.6091
vn -0.0025 -0.9973 0.0734
vn 0.3074 -0.3320 -0.8918
vn 0.3084 -0.2683 0.9126
vn -0.9855 -0.0549 0.1607
vn 0.9787 -0.1204 -0.1665
vn 0.9699 -0.0970 0.2235
vn -0.4717 -0.2445 0.8472
vn -0.1639 -0.3267 -0.9308
vn -0.9681 -0.0874 -0.2347
vn -0.3490 0.1455 -0.9258
vn -0.2823 -0.8337 -0.4746
vn -0.3507 0.3110 -0.8834
vn -0.2424 0.5490 -0.7999
vn -0.2159 -0.2240 -0.9504
vn -0.3510 0.0812 -0.9328
vn -0.9559 0.2924 0.0277
vn -0.9356 0.3059 0.1761
vn -0.9962 0.0793 -0.0359
vn -0.8972 0.3502 0.2691
vn 0.5822 0.7593 0.2908
vn -0.7632 0.6392 -0.0944
vn -0.8057 -0.5827 -0.1063
vn -0.5113 0.8419 0.1728
vn 0.2449 0.8744 0.4188
vn -0.9124 0.3550 -0.2037
vn -0.9422 -0.2338 -0.2399
vn -0.2533 0.2936 -0.9218
vn 0.0584 -0.2079 0.9764
vn -0.0316 -0.2425 0.9696
vn 0.0290 -0.2294 0.9729
vn -0.0071 -0.2637 0.9646
vn -0.0000 -0.2126 0.9771
vn -0.0389 -0.2755 0.9605
vn 0.0457 -0.2733 0.9609
vn -0.0441 -0.2031 0.9782
vn 0.0016 -0.2249 0.9744
vn -0.0075 -0.1859 0.9825
vn -0.1638 -0.5959 0.7862
vn 0.0298 -0.1947 0.9804
vn -0.2960 -0.5242 0.7985
vn 0.4094 0.1793 0.8946
vn 0.4121 -0.0571 0.9094
vn 0.1385 -0.5242 0.8403
vn -0.7292 0.2241 0.6465
vn 0.2055 -0.4724 0.8571
vn 0.5068 0.1361 0.8513
vn -0.0332 -0.5884 0.8079
vn -0.3193 0.7850 0.5308
vn -0.5296 -0.3362 0.7788
vn -0.5248 -0.3983 0.7523
vn 0.0292 0.1027 0.9943
vn -0.0200 -0.7126 0.7013
vn 0.0339 0.9391 0.3420
vn -0.7525 0.0332 0.6577
vn 0.8961 -0.4243 0.1303
vn 0.9975 0.0017 0.0707
vn 0.7307 -0.6825 -0.0144
vn 0.1099 -0.5853 -0.8033
vn 0.0413 -0.2904 -0.9560
vn 0.9363 0.2914 0.1962
vn 0.6878 -0.1581 0.7085
vn 0.3444 -0.7095 0.6148
vn -0.6069 -0.1562 -0.7793
vn -0.4208 0.1619 -0.8926
vn 0.7919 0.1573 0.5900
vn 0.5964 -0.1940 0.7789
vn -0.3952 -0.8964 0.2005
vn -0.6285 -0.0022 -0.7778
vn -0.3576 0.3374 -0.8708
vn 0.4470 0.2366 0.8626
vn 0.2431 -0.0495 0.9687
vn -0.9975 -0.0017 -0.0707
vn -0.7601 0.2689 -0.5916
vn -0.4475 0.8630 -0.2344
vn -0.7307 0.6825 0.0144
vn -0.6821 0.6386 -0.3562
vn -0.6942 0.4154 -0.5878
vn -0.8961 0.4243 -0.1303
vn -0.8552 0.2646 -0.4457
vn -0.8798 0.1264 -0.4583
vn -0.7220 0.3289 0.6087
vn -0.7805 0.0635 0.6220
vn -0.1738 -0.1307 0.9761
vn -0.0413 0.2904 0.9560
vn 0.2534 0.0909 0.9631
vn 0.4174 0.0845 0.9048
vn -0.1099 0.5853 0.8033
vn 0.2535 0.4920 0.8329
vn 0.2197 0.7585 0.6135
vn -0.3444 0.7095 -0.6148
vn -0.4625 0.4349 -0.7726
vn -0.5848 0.3428 -0.7352
vn -0.6878 0.1581 -0.7085
vn -0.6976 0.0629 -0.7137
vn -0.7767 0.0256 -0.6293
vn -0.9363 -0.2914 -0.1962
vn -0.6272 -0.6609 0.4121
vn -0.0725 -0.4267 0.9015
vn 0.4208 -0.1620 0.8926
vn 0.5257 -0.1287 0.8409
vn 0.5343 -0.0334 0.8446
vn 0.6069 0.1562 0.7793
vn 0.6835 0.2554 0.6838
vn 0.5927 0.5627 0.5762
vn -0.5964 0.1941 -0.7789
vn -0.5257 0.1287 -0.8409
vn -0.5343 0.0334 -0.8446
vn -0.7919 -0.1573 -0.5900
vn -0.6835 -0.2554 -0.6838
vn -0.5928 -0.5627 -0.5762
vn 0.3576 -0.3373 0.8708
vn 0.4625 -0.4350 0.7726
vn 0.5848 -0.3428 0.7352
vn 0.6285 0.0022 0.7778
vn 0.6976 -0.0629 0.7137
vn 0.7767 -0.0256 0.6293
vn 0.3952 0.8964 -0.2005
vn 0.6272 0.6609 -0.4121
vn 0.0725 0.4267 -0.9015
vn -0.2431 0.0495 -0.9687
vn -0.2534 -0.0909 -0.9631
vn -0.4174 -0.0845 -0.9048
vn -0.4470 -0.2366 -0.8626
vn -0.2535 -0.4920 -0.8329
vn -0.2197 -0.7585 -0.6135
vn 0.4475 -0.8630 0.2344
vn 0.6822 -0.6386 0.3562
vn 0.6942 -0.4154 0.5878
vn 0.1738 0.1307 -0.9761
vn 0.7805 -0.0635 -0.6220
vn 0.7220 -0.3289 -0.6087
vn 0.7601 -0.2689 0.5916
vn 0.8552 -0.2645 0.4457
vn 0.8798 -0.1264 0.4583
vn -0.8961 -0.4243 0.1303
vn -0.9975 0.0017 0.0707
vn -0.7307 -0.6825 -0.0144
vn -0.1099 -0.5853 -0.8033
vn -0.0413 -0.2904 -0.9560
vn -0.9363 0.2914 0.1962
vn -0.6878 -0.1581 0.7085
vn -0.3444 -0.7095 0.6148
vn 0.6069 -0.1562 -0.7793
vn 0.4208 0.1619 -0.8926
vn -0.7919 0.1573 0.5900
vn -0.5964 -0.1941 0.7789
vn 0.3952 -0.8964 0.2005
vn 0.6285 -0.0022 -0.7778
vn 0.3576 0.3374 -0.8708
vn -0.4471 0.2366 0.8626
vn -0.2432 -0.0495 0.9687
vn 0.9975 -0.0017 -0.0707
vn 0.7601 0.2689 -0.5916
vn 0.4475 0.8630 -0.2344
vn 0.7307 0.6825 0.0144
vn 0.6822 0.6386 -0.3562
vn 0.6942 0.4154 -0.5878
vn 0.8961 0.4243 -0.1303
vn 0.8552 0.2646 -0.4457
vn 0.8798 0.1264 -0.4583
vn 0.7220 0.3289 0.6087
vn 0.7805 0.0635 0.6220
vn 0.1738 -0.1307 0.9761
vn 0.0413 0.2904 0.9560
vn -0.2534 0.0909 0.9631
vn -0.4174 0.0845 0.9048
vn 0.1099 0.5853 0.8033
vn -0.2535 0.4920 0.8329
vn -0.2197 0.7585 0.6135
vn 0.3444 0.7095 -0.6148
vn 0.4625 0.4350 -0.7726
vn 0.5848 0.3428 -0.7352
vn 0.6878 0.1581 -0.7085
vn 0.6976 0.0629 -0.7137
vn 0.7767 0.0256 -0.6293
vn 0.9363 -0.2914 -0.1962
vn 0.6272 -0.6609 0.4121
vn 0.0725 -0.4267 0.9015
vn -0.4208 -0.1619 0.8926
vn -0.5257 -0.1287 0.8409
vn -0.5343 -0.0334 0.8446
vn -0.6069 0.1561 0.7793
vn -0.6835 0.2555 0.6838
vn -0.5927 0.5627 0.5762
vn 0.5964 0.1940 -0.7789
vn 0.5257 0.1287 -0.8409
vn 0.5343 0.0334 -0.8446
vn 0.7919 -0.1573 -0.5900
vn 0.6835 -0.2554 -0.6838
vn 0.5927 -0.5627 -0.5762
vn -0.3576 -0.3374 0.8708
vn -0.4625 -0.4349 0.7726
vn -0.5848 -0.3428 0.7352
vn -0.6285 0.0022 0.7778
vn -0.6976 -0.0629 0.7137
vn -0.7767 -0.0256 0.6293
vn -0.3952 0.8964 -0.2005
vn -0.6272 0.6609 -0.4121
vn -0.0725 0.4267 -0.9015
vn 0.2431 0.0495 -0.9687
vn 0.2534 -0.0909 -0.9631
vn 0.4174 -0.0845 -0.9048
vn 0.4470 -0.2366 -0.8626
vn 0.2535 -0.4920 -0.8329
vn 0.2197 -0.7585 -0.6135
vn -0.4475 -0.8630 0.2344
vn -0.6821 -0.6386 0.3562
vn -0.6942 -0.4154 0.5878
vn -0.1738 0.1307 -0.9761
vn -0.7805 -0.0635 -0.6220
vn -0.7220 -0.3289 -0.6087
vn -0.7601 -0.2689 0.5916
vn -0.8552 -0.2645 0.4457
vn -0.8798 -0.1264 0.4583
vt 0.833374 0.494548
vt 0.893919 0.512741
vt 0.908415 0.468160
vt 0.848637 0.467455
vt 0.567859 0.867914
vt 0.639317 0.828812
vt 0.620915 0.894044
vt 0.556155 0.927906
vt 0.812683 0.509803
vt 0.774909 0.642712
vt 0.751394 0.643294
vt 0.751725 0.493743
vt 0.828812 0.793372
vt 0.751727 0.811870
vt 0.672932 0.807420
vt 0.672336 0.642732
vt 0.672998 0.503429
vt 0.598676 0.643182
vt 0.594201 0.530171
vt 0.560191 0.672195
vt 0.619753 0.672998
vt 0.599703 0.594201
vt 0.569702 0.558226
vt 0.580250 0.833374
vt 0.635423 0.812683
vt 0.637090 0.751725
vt 0.569078 0.759035
vt 0.500000 0.859251
vt 0.500000 0.750726
vt 0.569078 0.758996
vt 0.500000 0.657595
vt 0.560191 0.671923
vt 0.604420 0.951058
vt 0.545714 0.976119
vt 0.604420 0.548422
vt 0.626365 0.643481
vt 0.688416 0.643970
vt 0.666902 0.547256
vt 0.500000 0.917421
vt 0.563590 0.893919
vt 0.639317 0.793372
vt 0.659328 0.642712
vt 0.676970 0.643370
vt 0.671449 0.761101
vt 0.555994 0.632181
vt 0.545714 0.747180
vt 0.604420 0.735145
vt 0.572975 0.538591
vt 0.666902 0.715601
vt 0.500000 0.969030
vt 0.572975 0.947229
vt 0.501290 0.830086
vt 0.457158 0.830118
vt 0.460328 0.806630
vt 0.500288 0.803578
vt 0.499838 0.512886
vt 0.460007 0.507514
vt 0.481582 0.413128
vt 0.510774 0.417065
vt 0.500000 0.559830
vt 0.556447 0.575135
vt 0.579931 0.796381
vt 0.599703 0.530171
vt 0.637090 0.643182
vt 0.659115 0.643738
vt 0.643940 0.535244
vt 0.564556 0.492909
vt 0.500000 0.477524
vt 0.500000 0.432743
vt 0.566016 0.447361
vt 0.569702 0.518348
vt 0.616981 0.429733
vt 0.594994 0.421068
vt 0.612448 0.796381
vt 0.637526 0.771615
vt 0.500000 0.371229
vt 0.561082 0.382998
vt 0.450625 0.491920
vt 0.495971 0.498202
vt 0.507939 0.406303
vt 0.474705 0.401699
vt 0.591615 0.535244
vt 0.575831 0.433451
vt 0.407144 0.499901
vt 0.406490 0.640437
vt 0.358675 0.605643
vt 0.363238 0.556600
vt 0.578790 0.420824
vt 0.621227 0.407144
vt 0.601979 0.363238
vt 0.551080 0.357545
vt 0.500000 0.657756
vt 0.500000 0.571782
vt 0.667216 0.508652
vt 0.621227 0.499901
vt 0.632756 0.407548
vt 0.666461 0.413961
vt 0.556577 0.771615
vt 0.637090 0.751727
vt 0.260484 0.580516
vt 0.278839 0.520364
vt 0.582070 0.278839
vt 0.540875 0.268345
vt 0.619753 0.672932
vt 0.500000 0.307117
vt 0.551080 0.314473
vt 0.500000 0.983839
vt 0.393435 0.816867
vt 0.325561 0.763148
vt 0.671449 0.517077
vt 0.635423 0.509803
vt 0.642381 0.470278
vt 0.671266 0.470798
vt 0.988807 0.740196
vt 1.002924 0.661469
vt 1.015365 0.669173
vt 1.001496 0.721513
vt 0.500000 0.531683
vt 0.500000 0.631036
vt 0.249130 0.712570
vt 0.191059 0.679456
vt 0.198981 0.567653
vt 0.945839 0.547256
vt 0.886123 0.529161
vt 0.904522 0.470747
vt 0.963512 0.471464
vt 0.500000 0.238897
vt 0.540875 0.239236
vt 0.564556 0.495971
vt 0.612448 0.579931
vt 0.628268 0.501290
vt 0.631115 0.457158
vt 0.168698 0.648799
vt 0.177283 0.553376
vt 0.539817 0.181283
vt 0.500000 0.184290
vt 0.500000 0.144817
vt 0.539817 0.140934
vt 0.580006 0.205473
vt 0.539817 0.196322
vt 0.205473 0.476864
vt 0.621491 0.393435
vt 0.538703 0.608225
vt 0.500000 0.615960
vt 0.500000 0.567098
vt 0.526605 0.560962
vt 0.566016 0.450625
vt 0.149293 0.452102
vt 0.133162 0.541160
vt 0.103583 0.505809
vt 0.123733 0.441345
vt 0.539531 0.141037
vt 0.579447 0.149293
vt 0.562090 0.123733
vt 0.530633 0.116366
vt 0.500000 0.385014
vt 0.500000 0.353218
vt 0.586057 0.174337
vt 0.542919 0.165879
vt 0.174337 0.464471
vt 0.086614 0.427976
vt 0.065909 0.448336
vt 0.053210 0.428901
vt 0.071388 0.423606
vt 0.515797 0.085531
vt 0.531484 0.086614
vt 0.523242 0.071388
vt 0.510720 0.071544
vt 0.500000 0.266808
vt 0.601979 0.325561
vt 0.582070 0.249130
vt 0.108290 0.599988
vt 0.073849 0.556649
vt 0.580006 0.679456
vt 0.539817 0.690304
vt 0.539817 0.657159
vt 0.579599 0.648799
vt 0.500000 0.199929
vt 0.513331 0.045311
vt 0.500000 0.046647
vt 0.500000 0.069896
vt 0.051602 0.475706
vt 0.038205 0.462176
vt 0.038356 0.442272
vt 0.580006 0.191059
vt 0.577833 0.599988
vt 0.554232 0.556649
vt 0.500000 0.147087
vt 0.500000 0.124516
vt 0.530339 0.475706
vt 0.515210 0.477146
vt 0.513246 0.460736
vt 0.522445 0.462176
vt 0.500000 0.170521
vt 0.515546 0.457928
vt 0.507613 0.457080
vt 0.506877 0.445401
vt 0.514439 0.446199
vt 0.500000 0.089031
vt 0.528336 0.053210
vt 0.620841 0.601238
vt 0.618568 0.607555
vt 0.613078 0.604170
vt 0.614718 0.599612
vt 0.500000 0.479371
vt 0.500000 0.460095
vt 0.513331 0.424258
vt 0.512541 0.440917
vt 0.500000 0.440864
vt 0.500000 0.422187
vt 0.500000 0.664242
vt 0.576432 0.505809
vt 0.539481 0.507406
vt 0.547321 0.467354
vt 0.500000 0.513551
vt 0.519044 0.508271
vt 0.579599 0.168698
vt 0.538703 0.096221
vt 0.577833 0.108290
vt 0.520322 0.097153
vt 0.500000 0.106427
vt 0.541975 0.104341
vt 0.078394 0.467354
vt 0.104341 0.437145
vt 0.073220 0.507406
vt 0.590300 0.643738
vt 0.499630 0.641384
vt 0.459655 0.640419
vt 0.417546 0.774144
vt 0.414448 0.641253
vt 0.423095 0.508652
vt 0.621491 0.816867
vt 0.648114 0.640437
vt 0.669097 0.641253
vt 0.644267 0.774144
vt 0.578790 0.496630
vt 0.601625 0.405151
vt 0.649402 0.433451
vt 0.651726 0.367843
vt 0.620780 0.366797
vt 0.454529 0.413961
vt 0.467814 0.368189
vt 0.488225 0.366596
vt 0.561691 0.421068
vt 0.537425 0.365401
vt 0.507200 0.363509
vt 0.481273 0.364028
vt 0.510983 0.366114
vt 0.635806 0.367147
vt 0.669092 0.368189
vt 0.420824 0.496630
vt 0.452865 0.405151
vt 0.558226 0.518348
vt 0.484328 0.324872
vt 0.502799 0.322553
vt 0.547406 0.321655
vt 0.519920 0.320969
vt 0.496410 0.322232
vt 0.523434 0.321439
vt 0.639292 0.324944
vt 0.675657 0.324872
vt 0.550036 0.367843
vt 0.558926 0.322330
vt 0.465216 0.366023
vt 0.604868 0.366023
vt 0.599660 0.365401
vt 0.621651 0.293283
vt 0.658462 0.293469
vt 0.659368 0.261742
vt 0.621257 0.261665
vt 0.501495 0.293600
vt 0.482345 0.307625
vt 0.480362 0.262732
vt 0.500191 0.261781
vt 0.519246 0.292376
vt 0.547742 0.292993
vt 0.548078 0.261464
vt 0.518571 0.260916
vt 0.494871 0.293528
vt 0.493332 0.261956
vt 0.522889 0.292587
vt 0.522344 0.260869
vt 0.451756 0.288897
vt 0.449773 0.262732
vt 0.656778 0.322330
vt 0.622394 0.322035
vt 0.481902 0.324350
vt 0.605664 0.324350
vt 0.599057 0.321655
vt 0.595403 0.548078
vt 0.621257 0.561263
vt 0.645824 0.523009
vt 0.590945 0.518571
vt 0.639859 0.470735
vt 0.648324 0.498544
vt 0.685407 0.500191
vt 0.686261 0.480362
vt 0.592251 0.493332
vt 0.659368 0.560446
vt 0.683143 0.522344
vt 0.596433 0.477757
vt 0.479829 0.307317
vt 0.477757 0.262636
vt 0.447168 0.262636
vt 0.449241 0.288588
vt 0.596679 0.292993
vt 0.595403 0.261464
vt 0.559686 0.293469
vt 0.560446 0.261742
vt 0.603589 0.307317
vt 0.640355 0.307779
vt 0.679739 0.307625
vt 0.677932 0.288897
vt 0.639680 0.289050
vt 0.639859 0.262967
vt 0.679465 0.262732
vt 0.604354 0.288588
vt 0.603287 0.262636
vt 0.679739 0.482345
vt 0.640355 0.473048
vt 0.639680 0.442459
vt 0.677932 0.451756
vt 0.679465 0.449773
vt 0.639859 0.440146
vt 0.603589 0.479829
vt 0.604354 0.449241
vt 0.603287 0.447168
vt 0.841501 0.761101
vt 0.796910 0.643370
vt 0.906455 0.644155
vt 0.894416 0.742499
vt 0.957194 0.643970
vt 0.829265 0.517077
vt 0.940741 0.715601
vt 0.671449 0.841501
vt 0.669190 0.894416
vt 0.849398 0.470798
vt 0.666902 0.940741
vt 0.909364 0.402088
vt 0.855378 0.389954
vt 0.592313 0.470184
vt 0.617524 0.471308
vt 0.621192 0.417417
vt 0.598226 0.414426
vt 0.598146 0.467455
vt 0.603540 0.389954
vt 0.643835 0.389418
vt 0.855424 0.393127
vt 0.905341 0.403681
vt 0.667620 0.471464
vt 0.947229 0.538591
vt 0.963044 0.470184
vt 0.580250 0.494548
vt 0.595712 0.312254
vt 0.621272 0.312916
vt 0.622837 0.264476
vt 0.597277 0.263453
vt 0.852894 0.313492
vt 0.849695 0.260671
vt 0.818572 0.260902
vt 0.821566 0.286829
vt 0.893654 0.314609
vt 0.853541 0.316407
vt 0.850246 0.263617
vt 0.890422 0.263754
vt 0.896415 0.312211
vt 0.936226 0.312254
vt 0.933075 0.263453
vt 0.893263 0.261490
vt 0.670148 0.393127
vt 0.666826 0.415674
vt 0.958612 0.415674
vt 0.958434 0.414426
vt 0.649700 0.837975
vt 0.635627 0.887710
vt 0.686058 0.890422
vt 0.687133 0.850246
vt 0.592375 0.849695
vt 0.589648 0.893263
vt 0.597277 0.933075
vt 0.622837 0.940554
vt 0.673628 0.933416
vt 0.822213 0.289744
vt 0.819123 0.263848
vt 0.672063 0.313364
vt 0.673628 0.264581
vt 0.936602 0.313364
vt 0.933416 0.264581
vt 0.941647 0.364922
vt 0.899640 0.363406
vt 0.623001 0.364960
vt 0.665562 0.364922
vt 0.668659 0.362549
vt 0.644119 0.361871
vt 0.647700 0.316485
vt 0.685132 0.316407
vt 0.859879 0.359936
vt 0.902447 0.361457
vt 0.941330 0.363919
vt 0.860378 0.362549
vt 0.606538 0.359936
vt 0.590374 0.313492
vt 0.601582 0.363919
vt 0.646474 0.289822
vt 0.601626 0.286829
vt 0.603191 0.260902
vt 0.648039 0.263334
vt 0.675760 0.289744
vt 0.677325 0.263848
vt 0.647700 0.841274
vt 0.590374 0.852894
vt 0.601626 0.821566
vt 0.646474 0.809945
vt 0.648039 0.806852
vt 0.603191 0.818572
vt 0.685132 0.853541
vt 0.675760 0.822213
vt 0.677325 0.819123
vt 0.500000 0.668378
vt 0.500000 0.724779
vt 0.517225 0.721513
vt 0.520785 0.669173
vt 0.528698 1.002924
vt 0.500000 1.014901
vt 0.500000 1.025182
vt 0.520785 1.015365
vt 0.500000 0.744181
vt 0.519989 0.740196
vt 0.519989 0.988807
vt 0.500000 0.995348
vt 0.500000 0.660499
vt 0.528698 0.661469
vt 0.154177 0.616909
vt 0.166410 0.570048
vt 0.135838 0.608740
vt 0.149154 0.567675
vt 0.147623 0.572395
vt 0.137518 0.603560
vt 0.583783 0.154177
vt 0.583848 0.135838
vt 0.600568 0.131366
vt 0.597073 0.144428
vt 0.144166 0.612314
vt 0.141084 0.620214
vt 0.132632 0.614576
vt 0.134671 0.609983
vt 0.153028 0.593819
vt 0.141399 0.592146
vt 0.619182 0.132632
vt 0.614588 0.141084
vt 0.606252 0.140479
vt 0.610351 0.130579
vt 0.138199 0.601250
vt 0.148213 0.603179
vt 0.602487 0.570048
vt 0.583783 0.616909
vt 0.597073 0.624463
vt 0.606252 0.625520
vt 0.614588 0.620214
vt 0.620822 0.612314
vt 0.623703 0.603179
vt 0.620639 0.593819
vt 0.604695 0.577238
vt 0.601269 0.572395
vt 0.603531 0.567675
vt 0.609313 0.614171
vt 0.615687 0.610750
vt 0.619182 0.614576
vt 0.610351 0.619358
vt 0.602434 0.613212
vt 0.600568 0.617961
vt 0.626402 0.601250
vt 0.623276 0.609983
vt 0.618527 0.594500
vt 0.623272 0.592146
vt 0.590602 0.606787
vt 0.583848 0.608740
vt 0.592903 0.603615
vt 0.603070 0.582298
vt 0.613048 0.594751
vt 0.610999 0.606475
vt 0.606401 0.608943
vt 0.601438 0.608251
vt 0.586331 0.603560
vt 0.600598 0.578805
vt 0.589822 0.601288
vt 0.148133 0.578805
vt 0.140843 0.601288
vt 0.522445 0.038205
vt 0.513246 0.032036
vt 0.507613 0.025182
vt 0.515546 0.030102
vt 0.521458 0.442272
vt 0.528336 0.428901
vt 0.500000 0.456702
vt 0.500000 0.445370
vt 0.500000 0.031689
vt 0.512541 0.032373
vt 0.506877 0.025742
vt 0.500000 0.025886
vt 0.500000 0.031337
vt 0.500000 0.025479
vt 0.030102 0.457928
vt 0.030515 0.446199
vt 0.432141 0.867914
vt 0.443845 0.927906
vt 0.379085 0.894044
vt 0.360683 0.828812
vt 0.439809 0.672195
vt 0.430298 0.558226
vt 0.400297 0.594201
vt 0.380247 0.672998
vt 0.419750 0.833374
vt 0.430922 0.759035
vt 0.362910 0.751725
vt 0.364577 0.812683
vt 0.430922 0.758996
vt 0.439809 0.671923
vt 0.454286 0.976119
vt 0.395580 0.951058
vt 0.395580 0.548422
vt 0.333098 0.547256
vt 0.311584 0.643970
vt 0.373635 0.643481
vt 0.436410 0.893919
vt 0.360683 0.793372
vt 0.328551 0.761101
vt 0.323030 0.643370
vt 0.340672 0.642712
vt 0.444006 0.632181
vt 0.395580 0.735145
vt 0.454286 0.747180
vt 0.427025 0.538591
vt 0.333098 0.715601
vt 0.427025 0.947229
vt 0.443553 0.575135
vt 0.400297 0.530171
vt 0.356060 0.535244
vt 0.340885 0.643738
vt 0.362910 0.643182
vt 0.435444 0.492909
vt 0.433984 0.447361
vt 0.430298 0.518348
vt 0.405006 0.421068
vt 0.383019 0.429733
vt 0.362474 0.771615
vt 0.387552 0.796381
vt 0.438918 0.382998
vt 0.421210 0.420824
vt 0.448920 0.357545
vt 0.398021 0.363238
vt 0.378773 0.407144
vt 0.332784 0.508652
vt 0.333539 0.413961
vt 0.367244 0.407548
vt 0.378773 0.499901
vt 0.362910 0.751727
vt 0.459125 0.268345
vt 0.417930 0.278839
vt 0.380247 0.672932
vt 0.448920 0.314473
vt 0.328551 0.517077
vt 0.328734 0.470798
vt 0.357619 0.470278
vt 0.364577 0.509803
vt 0.459125 0.239236
vt 0.435444 0.495971
vt 0.387552 0.579931
vt 0.371732 0.501290
vt 0.368885 0.457158
vt 0.460183 0.181283
vt 0.460183 0.140934
vt 0.460183 0.196322
vt 0.419994 0.205473
vt 0.378509 0.393435
vt 0.461297 0.608225
vt 0.473395 0.560962
vt 0.433984 0.450625
vt 0.460469 0.141037
vt 0.469367 0.116366
vt 0.437911 0.123733
vt 0.420553 0.149293
vt 0.457081 0.165879
vt 0.413943 0.174337
vt 0.484203 0.085531
vt 0.489280 0.071544
vt 0.476758 0.071388
vt 0.468516 0.086614
vt 0.398021 0.325561
vt 0.417930 0.249130
vt 0.419994 0.679456
vt 0.420401 0.648799
vt 0.460183 0.657159
vt 0.460183 0.690304
vt 0.486669 0.045311
vt 0.419994 0.191059
vt 0.422167 0.599988
vt 0.445768 0.556649
vt 0.469661 0.475706
vt 0.477555 0.462176
vt 0.486754 0.460736
vt 0.484790 0.477146
vt 0.484454 0.457928
vt 0.485561 0.446199
vt 0.493123 0.445401
vt 0.492387 0.457080
vt 0.471665 0.053210
vt 0.379159 0.601238
vt 0.385282 0.599612
vt 0.386922 0.604170
vt 0.381432 0.607555
vt 0.486669 0.424258
vt 0.487459 0.440917
vt 0.423568 0.505809
vt 0.452679 0.467354
vt 0.460520 0.507406
vt 0.480956 0.508271
vt 0.420401 0.168698
vt 0.422167 0.108290
vt 0.461297 0.096221
vt 0.479678 0.097153
vt 0.458025 0.104341
vt 0.378509 0.816867
vt 0.355733 0.774144
vt 0.330903 0.641253
vt 0.351886 0.640437
vt 0.398375 0.405151
vt 0.421210 0.496630
vt 0.379220 0.366797
vt 0.348274 0.367843
vt 0.350598 0.433451
vt 0.330908 0.368189
vt 0.364194 0.367147
vt 0.324343 0.324872
vt 0.360708 0.324944
vt 0.395132 0.366023
vt 0.400340 0.365401
vt 0.378349 0.293283
vt 0.378743 0.261665
vt 0.340632 0.261742
vt 0.341538 0.293469
vt 0.377606 0.322035
vt 0.343222 0.322330
vt 0.394336 0.324350
vt 0.400943 0.321655
vt 0.404597 0.548078
vt 0.409055 0.518571
vt 0.354176 0.523009
vt 0.378743 0.561263
vt 0.360141 0.470735
vt 0.313739 0.480362
vt 0.314593 0.500191
vt 0.351676 0.498544
vt 0.407749 0.493332
vt 0.316857 0.522344
vt 0.340632 0.560446
vt 0.403567 0.477757
vt 0.403321 0.292993
vt 0.404597 0.261464
vt 0.359645 0.307779
vt 0.396411 0.307317
vt 0.320262 0.307625
vt 0.322068 0.288897
vt 0.320535 0.262732
vt 0.360141 0.262967
vt 0.360320 0.289050
vt 0.396713 0.262636
vt 0.395646 0.288588
vt 0.320262 0.482345
vt 0.322068 0.451756
vt 0.360320 0.442459
vt 0.359645 0.473048
vt 0.360141 0.440146
vt 0.320535 0.449773
vt 0.395646 0.449241
vt 0.396411 0.479829
vt 0.396713 0.447168
vt 0.330810 0.894416
vt 0.328551 0.841501
vt 0.333098 0.940741
vt 0.407688 0.470184
vt 0.401774 0.414426
vt 0.378808 0.417417
vt 0.382476 0.471308
vt 0.356165 0.389418
vt 0.396460 0.389954
vt 0.401854 0.467455
vt 0.332380 0.471464
vt 0.419750 0.494548
vt 0.404289 0.312254
vt 0.402723 0.263453
vt 0.377163 0.264476
vt 0.378728 0.312916
vt 0.329852 0.393127
vt 0.333174 0.415674
vt 0.350300 0.837975
vt 0.312867 0.850246
vt 0.313942 0.890422
vt 0.364373 0.887710
vt 0.410353 0.893263
vt 0.407625 0.849695
vt 0.377163 0.940554
vt 0.402723 0.933075
vt 0.326372 0.933416
vt 0.326372 0.264581
vt 0.327937 0.313364
vt 0.376999 0.364960
vt 0.334438 0.364922
vt 0.331341 0.362549
vt 0.314868 0.316407
vt 0.352300 0.316485
vt 0.355881 0.361871
vt 0.409626 0.313492
vt 0.393462 0.359936
vt 0.398418 0.363919
vt 0.353526 0.289822
vt 0.351961 0.263334
vt 0.396809 0.260902
vt 0.398374 0.286829
vt 0.324240 0.289744
vt 0.322675 0.263848
vt 0.352300 0.841274
vt 0.353526 0.809945
vt 0.398374 0.821566
vt 0.409626 0.852894
vt 0.396809 0.818572
vt 0.351961 0.806852
vt 0.314868 0.853541
vt 0.324240 0.822213
vt 0.322675 0.819123
vt 0.479215 0.669173
vt 0.482775 0.721513
vt 0.471302 1.002924
vt 0.479215 1.015365
vt 0.480011 0.740196
vt 0.480011 0.988807
vt 0.471302 0.661469
vt 0.416217 0.154177
vt 0.402927 0.144428
vt 0.399432 0.131366
vt 0.416152 0.135838
vt 0.380819 0.132632
vt 0.389649 0.130579
vt 0.393748 0.140479
vt 0.385412 0.141084
vt 0.397513 0.570048
vt 0.379361 0.593819
vt 0.376297 0.603179
vt 0.379178 0.612314
vt 0.385412 0.620214
vt 0.393748 0.625520
vt 0.402927 0.624463
vt 0.416217 0.616909
vt 0.395305 0.577238
vt 0.396469 0.567675
vt 0.398731 0.572395
vt 0.390687 0.614171
vt 0.389649 0.619358
vt 0.380819 0.614576
vt 0.384313 0.610750
vt 0.397566 0.613212
vt 0.399432 0.617961
vt 0.376724 0.609983
vt 0.373598 0.601250
vt 0.376728 0.592146
vt 0.381473 0.594500
vt 0.409398 0.606787
vt 0.416152 0.608740
vt 0.407098 0.603615
vt 0.398562 0.608251
vt 0.393599 0.608943
vt 0.389001 0.606475
vt 0.386952 0.594751
vt 0.396930 0.582298
vt 0.413669 0.603560
vt 0.399402 0.578805
vt 0.410178 0.601288
vt 0.477555 0.038205
vt 0.484454 0.030102
vt 0.492387 0.025182
vt 0.486754 0.032036
vt 0.478542 0.442272
vt 0.471665 0.428901
vt 0.493123 0.025742
vt 0.487459 0.032373
vt 0.181819 0.000000
vt 0.227273 0.078731
vt 0.136365 0.078731
vt 0.272728 0.157461
vt 0.318182 0.078731
vt 0.363637 0.157461
vt 0.909091 0.000000
vt 0.954545 0.078731
vt 0.863636 0.078731
vt 0.727273 0.000000
vt 0.772727 0.078731
vt 0.681818 0.078731
vt 0.545455 0.000000
vt 0.590909 0.078731
vt 0.500000 0.078731
vt 0.318182 0.236191
vt 0.090910 0.157461
vt 0.181819 0.157461
vt 0.136365 0.236191
vt 0.818182 0.157461
vt 0.909091 0.157461
vt 0.863636 0.236191
vt 0.636364 0.157461
vt 0.727273 0.157461
vt 0.681818 0.236191
vt 0.454546 0.157461
vt 0.545455 0.157461
vt 0.500000 0.236191
vt 0.227273 0.236191
vt 0.045455 0.236191
vt 0.772727 0.236191
vt 0.590909 0.236191
vt 0.409092 0.236191
vt 0.181819 0.314921
vt 0.272728 0.314921
vt 0.227273 0.393651
vt 0.000000 0.314921
vt 0.090910 0.314921
vt 0.045455 0.393651
vt 0.727273 0.314921
vt 0.818182 0.314921
vt 0.772727 0.393651
vt 0.545455 0.314921
vt 0.636364 0.314921
vt 0.590909 0.393651
vt 0.363637 0.314921
vt 0.454546 0.314921
vt 0.409092 0.393651
vt 0.500000 0.393651
vt 0.454546 0.472382
vt 0.681818 0.393651
vt 0.636364 0.472382
vt 0.863636 0.393651
vt 0.818182 0.472382
vt 0.909091 0.314921
vt 0.136365 0.393651
vt 0.090910 0.472382
vt 0.318182 0.393651
vt 0.272728 0.472382
vt 0.954545 0.236191
vt 1.000000 0.157461
vt 0.409092 0.078731
vt 0.363637 0.000000
s 1
f 116/1/1 98/2/1 209/3/1 208/4/1
f 115/5/2 4/6/2 17/7/2 97/8/2
f 3/9/3 7/10/3 13/11/3 8/12/3
f 7/10/4 4/13/4 9/14/4 13/11/4
f 13/11/5 9/14/5 2/15/5 10/16/5
f 8/12/6 13/11/6 10/16/6 1/17/6
f 1/17/7 10/16/7 32/18/7 29/19/7
f 114/20/8 1/21/8 29/22/8 83/23/8
f 116/24/9 3/25/9 8/26/9 109/27/9
f 109/27/10 8/26/10 1/21/10 114/20/10
f 115/5/11 6/28/11 15/29/11 99/30/11
f 99/30/12 15/29/12 12/31/12 112/32/12
f 97/8/13 17/7/13 21/33/13 90/34/13
f 20/35/14 25/36/14 203/37/14 204/38/14
f 116/24/15 5/28/15 18/39/15 98/40/15
f 4/41/16 7/42/16 197/43/16 196/44/16
f 89/45/17 90/46/17 21/47/17 25/36/17
f 91/48/18 89/45/18 25/36/18 20/35/18
f 25/36/19 21/47/19 202/49/19 203/37/19
f 98/40/20 18/39/20 23/50/20 91/51/20
f 38/52/21 45/53/21 134/54/21 131/55/21
f 133/56/22 136/57/22 144/58/22 146/59/22
f 112/32/23 12/31/23 34/60/23 82/61/23
f 10/16/24 2/15/24 30/62/24 32/18/24
f 29/63/25 32/64/25 129/65/25 130/66/25
f 75/67/26 41/68/26 48/69/26 73/70/26
f 82/61/27 34/60/27 41/68/27 75/67/27
f 83/71/28 29/63/28 141/72/28 140/73/28
f 32/64/29 30/74/29 128/75/29 129/65/29
f 73/70/30 48/69/30 56/76/30 66/77/30
f 74/78/31 81/79/31 145/80/31 148/81/31
f 130/82/32 133/56/32 146/59/32 147/83/32
f 6/28/33 115/5/33 97/8/33 19/39/33
f 54/84/34 53/85/34 60/86/34 61/87/34
f 67/88/35 54/89/35 61/90/35 65/91/35
f 11/92/36 114/20/36 83/23/36 33/93/36
f 5/28/37 116/24/37 109/27/37 14/29/37
f 14/29/38 109/27/38 114/20/38 11/92/38
f 139/94/39 54/95/39 143/96/39 142/97/39
f 30/62/40 38/52/40 131/55/40 128/98/40
f 4/6/41 115/5/41 99/30/41 9/99/41
f 61/87/42 60/86/42 69/100/42 70/101/42
f 65/91/43 61/90/43 70/102/43 58/103/43
f 9/99/44 99/30/44 112/32/44 2/104/44
f 66/77/45 56/76/45 63/105/45 64/106/45
f 19/39/46 97/8/46 90/34/46 24/107/46
f 53/85/47 52/108/47 59/109/47 60/86/47
f 198/110/48 3/111/48 207/112/48 213/113/48
f 256/114/49 255/115/49 253/116/49 254/117/49
f 23/118/50 26/119/50 89/45/50 91/48/50
f 69/100/51 68/120/51 76/121/51 77/122/51
f 204/123/52 201/124/52 211/125/52 212/126/52
f 64/106/53 63/105/53 72/127/53 57/128/53
f 33/93/54 83/23/54 81/129/54 40/68/54
f 60/86/55 59/109/55 68/120/55 69/100/55
f 2/104/56 112/32/56 82/61/56 30/130/56
f 38/131/57 75/67/57 73/70/57 45/132/57
f 77/122/58 76/121/58 259/133/58 260/134/58
f 30/130/59 82/61/59 75/67/59 38/131/59
f 50/135/60 80/136/60 88/137/60 44/138/60
f 58/103/61 70/102/61 78/139/61 51/140/61
f 70/101/62 69/100/62 77/122/62 78/141/62
f 45/132/63 73/70/63 66/77/63 52/142/63
f 57/128/64 72/127/64 80/136/64 50/135/64
f 28/143/65 110/144/65 96/145/65 42/146/65
f 40/68/66 81/129/66 74/147/66 47/69/66
f 108/148/67 262/149/67 93/150/67 94/151/67
f 31/152/68 108/153/68 94/154/68 43/155/68
f 55/156/69 67/88/69 65/91/69 62/157/69
f 51/140/70 78/139/70 86/158/70 49/159/70
f 78/141/71 77/122/71 260/134/71 86/160/71
f 47/69/72 74/147/72 67/88/72 55/156/72
f 123/161/73 124/162/73 101/163/73 102/164/73
f 121/165/74 123/166/74 102/167/74 37/168/74
f 62/157/75 65/91/75 58/103/75 71/169/75
f 52/142/76 66/77/76 64/106/76 59/170/76
f 59/170/77 64/106/77 57/128/77 68/171/77
f 262/149/78 261/172/78 92/173/78 93/150/78
f 76/174/79 50/175/79 44/176/79 259/177/79
f 71/169/80 58/103/80 51/140/80 79/178/80
f 37/168/81 35/179/81 105/180/81 103/181/81
f 124/162/82 127/182/82 297/183/82 298/184/82 101/163/82
f 68/171/83 57/128/83 50/135/83 76/185/83
f 261/186/84 28/143/84 42/146/84 92/187/84
f 107/188/85 31/152/85 43/155/85 95/189/85
f 127/190/86 122/191/86 295/192/86 297/193/86
f 79/178/87 51/140/87 49/159/87 87/194/87
f 100/195/88 36/196/88 301/197/88 104/198/88
f 126/199/89 121/165/89 37/168/89 103/181/89
f 102/167/90 101/200/90 35/179/90 37/168/90
f 274/201/91 273/202/91 290/203/91 291/204/91
f 122/191/92 125/205/92 300/206/92 295/192/92
f 49/159/93 86/158/93 108/153/93 31/152/93
f 86/160/94 260/134/94 262/149/94 108/148/94
f 35/207/95 296/208/95 299/209/95 105/210/95
f 44/176/96 88/211/96 110/144/96 28/143/96
f 93/212/97 92/187/97 120/213/97 119/214/97
f 87/194/98 49/159/98 31/152/98 107/188/98
f 42/146/99 96/145/99 113/215/99 27/216/99
f 259/217/100 44/138/100 28/218/100 261/219/100
f 92/187/101 42/146/101 27/216/101 120/213/101
f 95/189/102 43/155/102 22/220/102 118/221/102
f 43/155/103 94/154/103 117/222/103 22/220/103
f 94/151/104 93/150/104 119/223/104 117/224/104
f 120/213/105 27/216/105 122/191/105 127/190/105
f 118/221/106 22/220/106 121/165/106 126/199/106
f 119/223/107 120/225/107 127/182/107 124/162/107
f 27/216/108 113/215/108 125/205/108 122/191/108
f 22/220/109 117/222/109 123/166/109 121/165/109
f 117/224/110 119/223/110 124/162/110 123/161/110
f 130/82/111 129/226/111 132/227/111 133/56/111
f 132/227/112 131/55/112 134/54/112 135/228/112
f 129/226/113 128/98/113 131/55/113 132/227/113
f 135/228/114 134/54/114 137/229/114 138/230/114
f 133/56/115 132/227/115 135/228/115 136/57/115
f 136/57/116 135/228/116 138/230/116 139/231/116
f 52/232/117 53/233/117 138/234/117 137/235/117
f 45/53/118 52/108/118 137/229/118 134/54/118
f 54/95/119 67/236/119 149/237/119 143/96/119
f 53/233/120 54/95/120 139/94/120 138/234/120
f 141/72/121 147/238/121 157/239/121 39/240/121
f 144/58/122 142/241/122 150/242/122 153/243/122
f 145/80/123 140/244/123 46/245/123 154/246/123
f 148/81/124 145/80/124 154/246/124 158/247/124
f 146/59/125 144/58/125 153/243/125 156/248/125
f 142/97/126 143/96/126 151/249/126 150/250/126
f 136/57/127 139/231/127 142/241/127 144/58/127
f 67/251/128 74/78/128 148/81/128 149/252/128
f 29/63/129 130/66/129 147/238/129 141/72/129
f 81/79/130 83/253/130 140/244/130 145/80/130
f 153/243/131 150/242/131 162/254/131 164/255/131
f 154/246/132 46/245/132 160/256/132 165/257/132
f 158/247/133 154/246/133 165/257/133 168/258/133
f 156/248/134 153/243/134 164/255/134 166/259/134
f 150/250/135 151/249/135 163/260/135 162/261/135
f 157/262/136 156/248/136 166/259/136 167/263/136
f 149/252/137 148/81/137 158/247/137 159/264/137
f 143/96/138 149/237/138 159/265/138 151/249/138
f 140/73/139 141/72/139 39/240/139 46/266/139
f 147/83/140 146/59/140 156/248/140 157/262/140
f 188/267/141 187/268/141 177/269/141 152/270/141
f 184/271/142 185/272/142 170/273/142 173/274/142
f 182/275/143 180/276/143 155/277/143 174/278/143
f 181/279/144 182/275/144 174/278/144 178/280/144
f 183/281/145 184/271/145 173/274/145 176/282/145
f 170/273/146 185/272/146 194/283/146 192/284/146
f 39/240/147 157/239/147 167/285/147 161/286/147
f 159/264/148 158/247/148 168/258/148 169/287/148
f 151/249/149 159/265/149 169/288/149 163/260/149
f 46/266/150 39/240/150 161/286/150 160/289/150
f 155/290/151 152/291/151 175/292/151 174/293/151
f 171/294/152 172/295/152 173/296/152 170/297/152
f 174/293/153 175/292/153 172/295/153 178/298/153
f 175/292/154 152/291/154 177/299/154 176/300/154
f 178/298/155 172/295/155 171/294/155 179/301/155
f 172/295/156 175/292/156 176/300/156 173/296/156
f 189/302/157 181/279/157 178/280/157 179/303/157
f 189/302/158 179/303/158 193/304/158 195/305/158
f 180/306/159 188/267/159 152/270/159 155/307/159
f 187/308/160 183/281/160 176/282/160 177/309/160
f 167/263/161 166/259/161 183/281/161 187/308/161
f 160/289/162 161/286/162 188/267/162 180/306/162
f 163/260/163 169/288/163 189/310/163 186/311/163
f 169/287/164 168/258/164 181/279/164 189/302/164
f 162/261/165 163/260/165 186/311/165 185/312/165
f 166/259/166 164/255/166 184/271/166 183/281/166
f 168/258/167 165/257/167 182/275/167 181/279/167
f 165/257/168 160/256/168 180/276/168 182/275/168
f 164/255/169 162/254/169 185/272/169 184/271/169
f 161/286/170 167/285/170 187/268/170 188/267/170
f 194/313/171 190/314/171 191/315/171 192/316/171
f 190/314/172 195/317/172 193/318/172 191/315/172
f 185/319/173 186/320/173 190/321/173 194/322/173
f 171/294/174 170/297/174 192/323/174 191/324/174
f 186/320/175 189/325/175 195/326/175 190/321/175
f 179/301/176 171/294/176 191/324/176 193/327/176
f 196/328/177 197/329/177 200/330/177 199/331/177
f 200/330/178 201/124/178 204/123/178 203/332/178
f 197/329/179 198/333/179 201/124/179 200/330/179
f 199/331/180 200/330/180 203/332/180 202/334/180
f 7/42/181 3/111/181 198/110/181 197/43/181
f 17/7/182 4/6/182 196/335/182 199/336/182
f 201/124/183 198/333/183 213/337/183 211/125/183
f 21/33/184 17/7/184 199/336/184 202/338/184
f 208/4/185 209/3/185 217/339/185 216/340/185
f 210/341/186 206/342/186 214/343/186 218/344/186
f 207/112/187 208/345/187 216/346/187 215/347/187
f 211/125/188 213/337/188 221/348/188 219/349/188
f 20/35/189 204/38/189 212/350/189 206/342/189
f 91/48/190 20/35/190 206/342/190 210/341/190
f 98/2/191 91/351/191 210/352/191 209/3/191
f 3/111/192 116/353/192 208/345/192 207/112/192
f 232/354/193 235/355/193 222/356/193 226/357/193
f 233/358/194 224/359/194 240/360/194 241/361/194
f 16/362/195 230/363/195 229/364/195 227/365/195
f 231/366/196 232/367/196 226/368/196 225/369/196
f 213/113/197 207/112/197 215/347/197 221/370/197
f 206/342/198 212/350/198 220/371/198 214/343/198
f 212/126/199 211/125/199 219/349/199 220/372/199
f 209/3/200 210/352/200 218/373/200 217/339/200
f 223/374/201 205/375/201 227/376/201 229/377/201
f 223/374/202 224/378/202 225/379/202 205/375/202
f 205/375/203 225/379/203 226/380/203 222/381/203
f 205/375/204 222/381/204 228/382/204 227/376/204
f 233/358/205 231/366/205 225/369/205 224/359/205
f 229/364/206 230/363/206 237/383/206 238/384/206
f 235/355/207 236/385/207 228/386/207 222/356/207
f 236/387/208 16/362/208 227/365/208 228/388/208
f 250/389/209 243/390/209 16/362/209 236/387/209
f 249/391/210 250/392/210 236/385/210 235/355/210
f 246/393/211 245/394/211 234/395/211 230/396/211
f 248/397/212 244/398/212 231/366/212 233/358/212
f 244/398/213 247/399/213 232/367/213 231/366/213
f 243/390/214 246/400/214 230/363/214 16/362/214
f 245/394/215 248/401/215 233/402/215 234/395/215
f 247/403/216 249/391/216 235/355/216 232/354/216
f 242/404/217 241/405/217 240/406/217 239/407/217
f 237/408/218 242/404/218 239/407/218 238/409/218
f 234/410/219 233/411/219 241/412/219 242/413/219
f 224/378/220 223/374/220 239/414/220 240/415/220
f 230/416/221 234/410/221 242/413/221 237/417/221
f 223/374/222 229/377/222 238/418/222 239/414/222
f 218/344/223 214/343/223 249/391/223 247/403/223
f 215/347/224 216/346/224 248/401/224 245/394/224
f 219/349/225 221/348/225 246/400/225 243/390/225
f 217/339/226 218/373/226 247/399/226 244/398/226
f 216/340/227 217/339/227 244/398/227 248/397/227
f 221/370/228 215/347/228 245/394/228 246/393/228
f 214/343/229 220/371/229 250/392/229 249/391/229
f 220/372/230 219/349/230 243/390/230 250/389/230
f 252/419/231 251/420/231 254/421/231 253/422/231
f 255/423/232 257/424/232 252/425/232 253/426/232
f 258/427/233 256/428/233 254/421/233 251/420/233
f 24/107/234 90/34/234 256/429/234 258/430/234
f 89/45/235 26/119/235 257/431/235 255/432/235
f 90/46/236 89/45/236 255/432/236 256/428/236
f 84/433/237 85/434/237 260/134/237 259/133/237
f 275/435/238 84/433/238 259/133/238 261/172/238
f 85/434/239 276/436/239 262/149/239 260/134/239
f 276/436/240 284/437/240 283/438/240 275/435/240 261/172/240 262/149/240
f 84/439/241 275/440/241 279/441/241 263/442/241
f 266/443/242 264/444/242 278/445/242 280/446/242
f 276/436/243 85/434/243 267/447/243 282/448/243
f 278/449/244 264/450/244 265/451/244 277/452/244
f 277/452/245 265/451/245 263/442/245 279/441/245
f 266/443/246 280/446/246 281/453/246 268/454/246
f 268/454/247 281/453/247 282/448/247 267/447/247
f 85/455/248 84/456/248 263/457/248 265/458/248 264/459/248 266/460/248 268/461/248 267/462/248
f 106/463/249 284/464/249 276/465/249
f 271/466/250 269/467/250 278/468/250 277/469/250
f 270/470/251 271/466/251 277/469/251 279/471/251
f 273/202/252 274/201/252 281/472/252 280/473/252
f 274/201/253 272/474/253 282/475/253 281/472/253
f 269/467/254 273/202/254 280/473/254 278/468/254
f 111/476/255 270/470/255 279/471/255 275/477/255
f 272/474/256 106/463/256 276/465/256 282/475/256
f 285/478/257 286/479/257 292/480/257 291/204/257 290/203/257 288/481/257 287/482/257 289/483/257
f 283/484/258 111/476/258 275/477/258
f 270/470/259 111/476/259 285/478/259 289/483/259
f 294/485/260 286/479/260 285/478/260 293/486/260
f 111/476/261 283/484/261 293/486/261 285/478/261
f 106/463/262 272/474/262 292/480/262 286/479/262
f 272/474/263 274/201/263 291/204/263 292/480/263
f 269/467/264 271/466/264 287/482/264 288/481/264
f 283/438/265 284/437/265 294/487/265 293/488/265
f 273/202/266 269/467/266 288/481/266 290/203/266
f 284/464/267 106/463/267 286/479/267 294/485/267
f 271/466/268 270/470/268 289/483/268 287/482/268
f 297/489/269 295/490/269 36/491/269 100/492/269
f 296/208/270 298/493/270 104/198/270 301/197/270
f 101/494/271 298/493/271 296/208/271 35/207/271
f 36/196/272 302/495/272 303/496/272 301/197/272
f 299/497/273 296/498/273 301/499/273 303/500/273
f 295/490/274 300/501/274 302/502/274 36/491/274
f 298/184/275 297/183/275 100/503/275 104/504/275
f 385/1/276 474/4/276 475/3/276 372/2/276
f 384/505/277 371/506/277 314/507/277 307/508/277
f 306/9/278 309/12/278 312/11/278 308/10/278
f 308/10/279 312/11/279 310/14/279 307/13/279
f 312/11/280 311/16/280 305/15/280 310/14/280
f 309/12/281 304/17/281 311/16/281 312/11/281
f 304/17/282 321/19/282 324/18/282 311/16/282
f 383/509/283 361/510/283 321/511/283 304/512/283
f 385/513/284 380/514/284 309/515/284 306/516/284
f 380/514/285 383/509/285 304/512/285 309/515/285
f 384/505/286 373/517/286 15/29/286 6/28/286
f 373/517/287 382/518/287 12/31/287 15/29/287
f 371/506/288 366/519/288 316/520/288 314/507/288
f 315/521/289 470/522/289 469/523/289 318/524/289
f 385/513/290 372/525/290 18/39/290 5/28/290
f 307/526/291 462/527/291 463/528/291 308/529/291
f 365/530/292 318/524/292 316/531/292 366/532/292
f 367/533/293 315/521/293 318/524/293 365/530/293
f 318/524/294 469/523/294 468/534/294 316/531/294
f 372/525/295 367/535/295 23/50/295 18/39/295
f 328/52/296 397/55/296 400/54/296 333/53/296
f 399/56/297 412/59/297 410/58/297 402/57/297
f 382/518/298 360/536/298 34/60/298 12/31/298
f 311/16/299 324/18/299 322/62/299 305/15/299
f 321/537/300 396/538/300 395/539/300 324/540/300
f 355/541/301 353/542/301 48/69/301 41/68/301
f 360/536/302 355/541/302 41/68/302 34/60/302
f 361/543/303 406/544/303 407/545/303 321/537/303
f 324/540/304 395/539/304 394/546/304 322/547/304
f 353/542/305 348/548/305 56/76/305 48/69/305
f 354/78/306 414/81/306 411/80/306 359/79/306
f 396/82/307 413/83/307 412/59/307 399/56/307
f 6/28/308 19/39/308 371/506/308 384/505/308
f 340/84/309 345/87/309 344/86/309 339/85/309
f 349/549/310 347/550/310 345/551/310 340/552/310
f 11/92/311 33/93/311 361/510/311 383/509/311
f 5/28/312 14/29/312 380/514/312 385/513/312
f 14/29/313 11/92/313 383/509/313 380/514/313
f 405/553/314 408/554/314 409/555/314 340/556/314
f 322/62/315 394/98/315 397/55/315 328/52/315
f 307/508/316 310/557/316 373/517/316 384/505/316
f 345/87/317 352/101/317 351/100/317 344/86/317
f 347/550/318 342/558/318 352/559/318 345/551/318
f 310/557/319 305/560/319 382/518/319 373/517/319
f 348/548/320 346/561/320 63/105/320 56/76/320
f 19/39/321 24/107/321 366/519/321 371/506/321
f 339/85/322 344/86/322 343/109/322 338/108/322
f 464/562/323 479/563/323 473/564/323 306/565/323
f 520/114/324 518/117/324 517/116/324 519/115/324
f 23/118/325 367/533/325 365/530/325 26/119/325
f 351/100/326 357/122/326 356/121/326 350/120/326
f 470/123/327 478/126/327 477/125/327 467/124/327
f 346/561/328 341/566/328 72/127/328 63/105/328
f 33/93/329 40/68/329 359/567/329 361/510/329
f 344/86/330 351/100/330 350/120/330 343/109/330
f 305/560/331 322/568/331 360/536/331 382/518/331
f 328/569/332 333/570/332 353/542/332 355/541/332
f 357/122/333 522/134/333 521/133/333 356/121/333
f 322/568/334 328/569/334 355/541/334 360/536/334
f 336/571/335 332/572/335 88/137/335 80/136/335
f 342/558/336 337/573/336 358/574/336 352/559/336
f 352/101/337 358/141/337 357/122/337 351/100/337
f 333/570/338 338/575/338 348/548/338 353/542/338
f 341/566/339 336/571/339 80/136/339 72/127/339
f 320/576/340 330/577/340 96/145/340 110/144/340
f 40/68/341 47/69/341 354/578/341 359/567/341
f 379/148/342 370/151/342 369/150/342 524/149/342
f 323/579/343 331/580/343 370/581/343 379/582/343
f 55/156/344 62/157/344 347/550/344 349/549/344
f 337/573/345 335/583/345 364/584/345 358/574/345
f 358/141/346 364/160/346 522/134/346 357/122/346
f 47/69/347 55/156/347 349/549/347 354/578/347
f 391/161/348 376/164/348 375/163/348 392/162/348
f 389/585/349 327/586/349 376/587/349 391/588/349
f 62/157/350 71/169/350 342/558/350 347/550/350
f 338/575/351 343/589/351 346/561/351 348/548/351
f 343/589/352 350/590/352 341/566/352 346/561/352
f 524/149/353 369/150/353 368/173/353 523/172/353
f 356/591/354 521/592/354 332/593/354 336/594/354
f 71/169/355 79/178/355 337/573/355 342/558/355
f 327/586/356 103/181/356 105/180/356 325/595/356
f 392/162/357 375/163/357 560/184/357 559/183/357 393/182/357
f 350/590/358 356/596/358 336/571/358 341/566/358
f 523/597/359 368/598/359 330/577/359 320/576/359
f 107/188/360 95/189/360 331/580/360 323/579/360
f 393/599/361 559/600/361 557/601/361 390/602/361
f 79/178/362 87/194/362 335/583/362 337/573/362
f 374/603/363 377/604/363 561/605/363 326/606/363
f 126/199/364 103/181/364 327/586/364 389/585/364
f 376/587/365 327/586/365 325/595/365 375/607/365
f 536/608/366 553/609/366 552/610/366 535/611/366
f 390/602/367 557/601/367 300/206/367 125/205/367
f 335/583/368 323/579/368 379/582/368 364/584/368
f 364/160/369 379/148/369 524/149/369 522/134/369
f 325/612/370 105/210/370 299/209/370 558/613/370
f 332/593/371 320/576/371 110/144/371 88/211/371
f 369/614/372 387/615/372 388/616/372 368/598/372
f 87/194/373 107/188/373 323/579/373 335/583/373
f 330/577/374 319/617/374 113/215/374 96/145/374
f 521/618/375 523/619/375 320/620/375 332/572/375
f 368/598/376 388/616/376 319/617/376 330/577/376
f 95/189/377 118/221/377 317/621/377 331/580/377
f 331/580/378 317/621/378 386/622/378 370/581/378
f 370/151/379 386/224/379 387/223/379 369/150/379
f 388/616/380 393/599/380 390/602/380 319/617/380
f 118/221/381 126/199/381 389/585/381 317/621/381
f 387/223/382 392/162/382 393/182/382 388/225/382
f 319/617/383 390/602/383 125/205/383 113/215/383
f 317/621/384 389/585/384 391/588/384 386/622/384
f 386/224/385 391/161/385 392/162/385 387/223/385
f 396/82/386 399/56/386 398/227/386 395/226/386
f 398/227/387 401/228/387 400/54/387 397/55/387
f 395/226/388 398/227/388 397/55/388 394/98/388
f 401/228/389 404/230/389 403/229/389 400/54/389
f 399/56/390 402/57/390 401/228/390 398/227/390
f 402/57/391 405/231/391 404/230/391 401/228/391
f 338/623/392 403/624/392 404/625/392 339/626/392
f 333/53/393 400/54/393 403/229/393 338/108/393
f 340/556/394 409/555/394 415/627/394 349/628/394
f 339/626/395 404/625/395 405/553/395 340/556/395
f 407/545/396 329/629/396 423/630/396 413/631/396
f 410/58/397 419/243/397 416/242/397 408/241/397
f 411/80/398 420/246/398 334/245/398 406/244/398
f 414/81/399 424/247/399 420/246/399 411/80/399
f 412/59/400 422/248/400 419/243/400 410/58/400
f 408/554/401 416/632/401 417/633/401 409/555/401
f 402/57/402 410/58/402 408/241/402 405/231/402
f 349/251/403 415/252/403 414/81/403 354/78/403
f 321/537/404 407/545/404 413/631/404 396/538/404
f 359/79/405 411/80/405 406/244/405 361/253/405
f 419/243/406 430/255/406 428/254/406 416/242/406
f 420/246/407 431/257/407 426/256/407 334/245/407
f 424/247/408 434/258/408 431/257/408 420/246/408
f 422/248/409 432/259/409 430/255/409 419/243/409
f 416/632/410 428/634/410 429/635/410 417/633/410
f 423/262/411 433/263/411 432/259/411 422/248/411
f 415/252/412 425/264/412 424/247/412 414/81/412
f 409/555/413 417/633/413 425/636/413 415/627/413
f 406/544/414 334/637/414 329/629/414 407/545/414
f 413/83/415 423/262/415 422/248/415 412/59/415
f 454/638/416 418/639/416 443/640/416 453/641/416
f 450/271/417 439/274/417 436/273/417 451/272/417
f 448/275/418 440/278/418 421/277/418 446/276/418
f 447/279/419 444/280/419 440/278/419 448/275/419
f 449/281/420 442/282/420 439/274/420 450/271/420
f 436/273/421 458/284/421 460/283/421 451/272/421
f 329/629/422 427/642/422 433/643/422 423/630/422
f 425/264/423 435/287/423 434/258/423 424/247/423
f 417/633/424 429/635/424 435/644/424 425/636/424
f 334/637/425 426/645/425 427/642/425 329/629/425
f 421/646/426 440/647/426 441/648/426 418/649/426
f 437/650/427 436/651/427 439/652/427 438/653/427
f 440/647/428 444/654/428 438/653/428 441/648/428
f 441/648/429 442/655/429 443/656/429 418/649/429
f 444/654/430 445/657/430 437/650/430 438/653/430
f 438/653/431 439/652/431 442/655/431 441/648/431
f 455/302/432 445/303/432 444/280/432 447/279/432
f 455/302/433 461/305/433 459/304/433 445/303/433
f 446/658/434 421/659/434 418/639/434 454/638/434
f 453/308/435 443/309/435 442/282/435 449/281/435
f 433/263/436 453/308/436 449/281/436 432/259/436
f 426/645/437 446/658/437 454/638/437 427/642/437
f 429/635/438 452/660/438 455/661/438 435/644/438
f 435/287/439 455/302/439 447/279/439 434/258/439
f 428/634/440 451/662/440 452/660/440 429/635/440
f 432/259/441 449/281/441 450/271/441 430/255/441
f 434/258/442 447/279/442 448/275/442 431/257/442
f 431/257/443 448/275/443 446/276/443 426/256/443
f 430/255/444 450/271/444 451/272/444 428/254/444
f 427/642/445 454/638/445 453/641/445 433/643/445
f 460/663/446 458/664/446 457/665/446 456/666/446
f 456/666/447 457/665/447 459/667/447 461/668/447
f 451/669/448 460/670/448 456/671/448 452/672/448
f 437/650/449 457/673/449 458/674/449 436/651/449
f 452/672/450 456/671/450 461/675/450 455/676/450
f 445/657/451 459/677/451 457/673/451 437/650/451
f 462/328/452 465/331/452 466/330/452 463/329/452
f 466/330/453 469/332/453 470/123/453 467/124/453
f 463/329/454 466/330/454 467/124/454 464/333/454
f 465/331/455 468/334/455 469/332/455 466/330/455
f 308/529/456 463/528/456 464/562/456 306/565/456
f 314/507/457 465/678/457 462/679/457 307/508/457
f 467/124/458 477/125/458 479/337/458 464/333/458
f 316/520/459 468/680/459 465/678/459 314/507/459
f 474/4/460 482/340/460 483/339/460 475/3/460
f 476/681/461 484/682/461 480/683/461 472/684/461
f 473/564/462 481/685/462 482/686/462 474/687/462
f 477/125/463 485/349/463 487/348/463 479/337/463
f 315/521/464 472/684/464 478/688/464 470/522/464
f 367/533/465 476/681/465 472/684/465 315/521/465
f 372/2/466 475/3/466 476/352/466 367/351/466
f 306/565/467 473/564/467 474/687/467 385/689/467
f 498/690/468 492/691/468 488/692/468 501/693/468
f 499/358/469 507/361/469 506/360/469 490/359/469
f 313/362/470 493/365/470 495/364/470 496/363/470
f 497/366/471 491/369/471 492/368/471 498/367/471
f 479/563/472 487/694/472 481/685/472 473/564/472
f 472/684/473 480/683/473 486/695/473 478/688/473
f 478/126/474 486/372/474 485/349/474 477/125/474
f 475/3/475 483/339/475 484/373/475 476/352/475
f 489/696/476 495/697/476 493/698/476 471/699/476
f 489/696/477 471/699/477 491/700/477 490/701/477
f 471/699/478 488/702/478 492/703/478 491/700/478
f 471/699/479 493/698/479 494/704/479 488/702/479
f 499/358/480 490/359/480 491/369/480 497/366/480
f 495/364/481 504/384/481 503/383/481 496/363/481
f 501/693/482 488/692/482 494/705/482 502/706/482
f 502/387/483 494/388/483 493/365/483 313/362/483
f 516/389/484 502/387/484 313/362/484 509/390/484
f 515/707/485 501/693/485 502/706/485 516/708/485
f 512/709/486 496/710/486 500/711/486 511/712/486
f 514/397/487 499/358/487 497/366/487 510/398/487
f 510/398/488 497/366/488 498/367/488 513/399/488
f 509/390/489 313/362/489 496/363/489 512/400/489
f 511/712/490 500/711/490 499/713/490 514/714/490
f 513/715/491 498/690/491 501/693/491 515/707/491
f 508/716/492 505/717/492 506/718/492 507/719/492
f 503/720/493 504/721/493 505/717/493 508/716/493
f 500/722/494 508/723/494 507/724/494 499/725/494
f 490/701/495 506/726/495 505/727/495 489/696/495
f 496/728/496 503/729/496 508/723/496 500/722/496
f 489/696/497 505/727/497 504/730/497 495/697/497
f 484/682/498 513/715/498 515/707/498 480/683/498
f 481/685/499 511/712/499 514/714/499 482/686/499
f 485/349/500 509/390/500 512/400/500 487/348/500
f 483/339/501 510/398/501 513/399/501 484/373/501
f 482/340/502 514/397/502 510/398/502 483/339/502
f 487/694/503 512/709/503 511/712/503 481/685/503
f 480/683/504 515/707/504 516/708/504 486/695/504
f 486/372/505 516/389/505 509/390/505 485/349/505
f 252/419/506 517/731/506 518/732/506 251/420/506
f 519/733/507 517/734/507 252/425/507 257/424/507
f 258/427/508 251/420/508 518/732/508 520/735/508
f 24/107/509 258/430/509 520/736/509 366/519/509
f 365/530/510 519/737/510 257/431/510 26/119/510
f 366/532/511 520/735/511 519/737/511 365/530/511
f 362/433/512 521/133/512 522/134/512 363/434/512
f 537/435/513 523/172/513 521/133/513 362/433/513
f 363/434/514 522/134/514 524/149/514 538/436/514
f 538/436/515 524/149/515 523/172/515 537/435/515 545/438/515 546/437/515
f 362/738/516 525/739/516 541/740/516 537/741/516
f 528/443/517 542/446/517 540/445/517 526/444/517
f 538/436/518 544/448/518 529/447/518 363/434/518
f 540/742/519 539/743/519 527/744/519 526/745/519
f 539/743/520 541/740/520 525/739/520 527/744/520
f 528/443/521 530/454/521 543/453/521 542/446/521
f 530/454/522 529/447/522 544/448/522 543/453/522
f 363/746/523 529/747/523 530/748/523 528/749/523 526/750/523 527/751/523 525/752/523 362/753/523
f 378/754/524 538/755/524 546/756/524
f 533/757/525 539/758/525 540/759/525 531/760/525
f 532/761/526 541/762/526 539/758/526 533/757/526
f 535/611/527 542/763/527 543/764/527 536/608/527
f 536/608/528 543/764/528 544/765/528 534/766/528
f 531/760/529 540/759/529 542/763/529 535/611/529
f 381/767/530 537/768/530 541/762/530 532/761/530
f 534/766/531 544/765/531 538/755/531 378/754/531
f 547/769/532 551/770/532 549/771/532 550/772/532 552/610/532 553/609/532 554/773/532 548/774/532
f 545/775/533 537/768/533 381/767/533
f 532/761/534 551/770/534 547/769/534 381/767/534
f 556/776/535 555/777/535 547/769/535 548/774/535
f 381/767/536 547/769/536 555/777/536 545/775/536
f 378/754/537 548/774/537 554/773/537 534/766/537
f 534/766/538 554/773/538 553/609/538 536/608/538
f 531/760/539 550/772/539 549/771/539 533/757/539
f 545/438/540 555/488/540 556/487/540 546/437/540
f 535/611/541 552/610/541 550/772/541 531/760/541
f 546/756/542 556/776/542 548/774/542 378/754/542
f 533/757/543 549/771/543 551/770/543 532/761/543
f 559/778/544 374/779/544 326/780/544 557/781/544
f 558/613/545 561/605/545 377/604/545 560/782/545
f 375/783/546 325/612/546 558/613/546 560/782/546
f 326/606/547 561/605/547 303/496/547 302/495/547
f 299/497/548 303/500/548 561/784/548 558/785/548
f 557/781/549 326/780/549 302/502/549 300/501/549
f 560/184/550 377/504/550 374/503/550 559/183/550
f 562/786/551 575/787/551 574/788/551
f 563/789/552 575/790/552 577/791/552
f 562/792/553 574/793/553 579/794/553
f 562/795/554 579/796/554 581/797/554
f 562/798/555 581/799/555 578/800/555
f 563/789/556 577/791/556 584/801/556
f 564/802/557 576/803/557 586/804/557
f 565/805/558 580/806/558 588/807/558
f 566/808/559 582/809/559 590/810/559
f 567/811/560 583/812/560 592/813/560
f 563/789/561 584/801/561 587/814/561
f 564/802/562 586/804/562 589/815/562
f 565/805/563 588/807/563 591/816/563
f 566/808/564 590/810/564 593/817/564
f 567/811/565 592/813/565 585/818/565
f 568/819/566 594/820/566 599/821/566
f 569/822/567 595/823/567 601/824/567
f 570/825/568 596/826/568 602/827/568
f 571/828/569 597/829/569 603/830/569
f 572/831/570 598/832/570 600/833/570
f 600/833/571 603/834/571 573/835/571
f 600/833/572 598/832/572 603/834/572
f 598/832/573 571/828/573 603/834/573
f 603/830/574 602/836/574 573/837/574
f 603/830/575 597/829/575 602/836/575
f 597/829/576 570/825/576 602/836/576
f 602/827/577 601/838/577 573/839/577
f 602/827/578 596/826/578 601/838/578
f 596/826/579 569/840/579 601/838/579
f 601/824/580 599/841/580 573/842/580
f 601/824/581 595/823/581 599/841/581
f 595/823/582 568/819/582 599/841/582
f 599/821/583 600/843/583 573/844/583
f 599/821/584 594/820/584 600/843/584
f 594/820/585 572/831/585 600/843/585
f 585/818/586 598/832/586 572/831/586
f 585/818/587 592/813/587 598/832/587
f 592/813/588 571/828/588 598/832/588
f 593/817/589 597/829/589 571/828/589
f 593/817/590 590/810/590 597/829/590
f 590/810/591 570/825/591 597/829/591
f 591/816/592 596/826/592 570/825/592
f 591/816/593 588/807/593 596/826/593
f 588/807/594 569/840/594 596/826/594
f 589/815/595 595/823/595 569/822/595
f 589/815/596 586/804/596 595/823/596
f 586/804/597 568/819/597 595/823/597
f 587/814/598 594/820/598 568/819/598
f 587/814/599 584/801/599 594/820/599
f 584/801/600 572/831/600 594/820/600
f 592/813/601 593/817/601 571/828/601
f 592/813/602 583/812/602 593/817/602
f 583/812/603 566/808/603 593/817/603
f 590/810/604 591/816/604 570/825/604
f 590/810/605 582/809/605 591/816/605
f 582/809/606 565/805/606 591/816/606
f 588/807/607 589/845/607 569/840/607
f 588/807/608 580/806/608 589/845/608
f 580/806/609 564/846/609 589/845/609
f 586/804/610 587/814/610 568/819/610
f 586/804/611 576/803/611 587/814/611
f 576/803/612 563/789/612 587/814/612
f 584/801/613 585/818/613 572/831/613
f 584/801/614 577/791/614 585/818/614
f 577/791/615 567/811/615 585/818/615
f 578/800/616 583/812/616 567/811/616
f 578/800/617 581/799/617 583/812/617
f 581/799/618 566/808/618 583/812/618
f 581/797/619 582/809/619 566/808/619
f 581/797/620 579/796/620 582/809/620
f 579/796/621 565/805/621 582/809/621
f 579/794/622 580/806/622 565/805/622
f 579/794/623 574/793/623 580/806/623
f 574/793/624 564/846/624 580/806/624
f 577/791/625 578/847/625 567/811/625
f 577/791/626 575/790/626 578/847/626
f 575/790/627 562/848/627 578/847/627
f 574/788/628 576/803/628 564/802/628
f 574/788/629 575/787/629 576/803/629
f 575/787/630 563/789/630 576/803/630
f 604/786/631 616/788/631 617/787/631
f 605/789/632 619/791/632 617/790/632
f 604/792/633 621/794/633 616/793/633
f 604/795/634 623/797/634 621/796/634
f 604/798/635 620/800/635 623/799/635
f 605/789/636 626/801/636 619/791/636
f 606/802/637 628/804/637 618/803/637
f 607/805/638 630/807/638 622/806/638
f 608/808/639 632/810/639 624/809/639
f 609/811/640 634/813/640 625/812/640
f 605/789/641 629/814/641 626/801/641
f 606/802/642 631/815/642 628/804/642
f 607/805/643 633/816/643 630/807/643
f 608/808/644 635/817/644 632/810/644
f 609/811/645 627/818/645 634/813/645
f 610/819/646 641/821/646 636/820/646
f 611/822/647 643/824/647 637/823/647
f 612/825/648 644/827/648 638/826/648
f 613/828/649 645/830/649 639/829/649
f 614/831/650 642/833/650 640/832/650
f 642/833/651 615/835/651 645/834/651
f 642/833/652 645/834/652 640/832/652
f 640/832/653 645/834/653 613/828/653
f 645/830/654 615/837/654 644/836/654
f 645/830/655 644/836/655 639/829/655
f 639/829/656 644/836/656 612/825/656
f 644/827/657 615/839/657 643/838/657
f 644/827/658 643/838/658 638/826/658
f 638/826/659 643/838/659 611/840/659
f 643/824/660 615/842/660 641/841/660
f 643/824/661 641/841/661 637/823/661
f 637/823/662 641/841/662 610/819/662
f 641/821/663 615/844/663 642/843/663
f 641/821/664 642/843/664 636/820/664
f 636/820/665 642/843/665 614/831/665
f 627/818/666 614/831/666 640/832/666
f 627/818/667 640/832/667 634/813/667
f 634/813/668 640/832/668 613/828/668
f 635/817/669 613/828/669 639/829/669
f 635/817/670 639/829/670 632/810/670
f 632/810/671 639/829/671 612/825/671
f 633/816/672 612/825/672 638/826/672
f 633/816/673 638/826/673 630/807/673
f 630/807/674 638/826/674 611/840/674
f 631/815/675 611/822/675 637/823/675
f 631/815/676 637/823/676 628/804/676
f 628/804/677 637/823/677 610/819/677
f 629/814/678 610/819/678 636/820/678
f 629/814/679 636/820/679 626/801/679
f 626/801/680 636/820/680 614/831/680
f 634/813/681 613/828/681 635/817/681
f 634/813/682 635/817/682 625/812/682
f 625/812/683 635/817/683 608/808/683
f 632/810/684 612/825/684 633/816/684
f 632/810/685 633/816/685 624/809/685
f 624/809/686 633/816/686 607/805/686
f 630/807/687 611/840/687 631/845/687
f 630/807/688 631/845/688 622/806/688
f 622/806/689 631/845/689 606/846/689
f 628/804/690 610/819/690 629/814/690
f 628/804/691 629/814/691 618/803/691
f 618/803/692 629/814/692 605/789/692
f 626/801/693 614/831/693 627/818/693
f 626/801/694 627/818/694 619/791/694
f 619/791/695 627/818/695 609/811/695
f 620/800/696 609/811/696 625/812/696
f 620/800/697 625/812/697 623/799/697
f 623/799/698 625/812/698 608/808/698
f 623/797/699 608/808/699 624/809/699
f 623/797/700 624/809/700 621/796/700
f 621/796/701 624/809/701 607/805/701
f 621/794/702 607/805/702 622/806/702
f 621/794/703 622/806/703 616/793/703
f 616/793/704 622/806/704 606/846/704
f 619/791/705 609/811/705 620/847/705
f 619/791/706 620/847/706 617/790/706
f 617/790/707 620/847/707 604/848/707
f 616/788/708 606/802/708 618/803/708
f 616/788/709 618/803/709 617/787/709
f 617/787/710 618/803/710 605/789/710
