# Blender 5.1.1
# www.blender.org
mtllib low_poly_wolf_animated0023.mtl
o Wolf
v -0.160375 3.291728 -2.170569
v -0.531804 1.288900 -1.791509
v 0.005140 3.685681 -0.926619
v -0.516574 1.406637 -2.218109
v -0.719530 1.482849 -1.584213
v 0.050203 3.158956 3.192235
v 0.538951 3.461897 0.354756
v -0.538201 2.832126 -2.035450
v 0.201244 2.039482 -0.281799
v -0.775473 2.247021 -1.264989
v 0.229407 3.194052 2.922203
v -0.578055 1.625564 -1.400124
v -0.631118 3.158575 -1.088552
v -0.890772 0.069823 -1.854544
v 0.681440 2.973507 -1.810135
v -0.302041 2.135433 -1.351267
v -0.853270 2.139087 -1.691013
v -0.168687 2.549869 1.672825
v -0.586087 1.427187 -2.262639
v 0.308085 2.340832 -0.791612
v -0.198491 1.885630 0.325605
v -0.601919 -0.054665 1.365223
v 0.471210 1.574482 -1.917742
v -0.644207 1.669805 0.604145
v -0.437046 -0.027927 1.141972
v -0.102246 2.837039 -2.225257
v -0.493959 3.257234 -1.216277
v 0.293551 1.890196 0.316914
v -0.573943 2.696955 -0.244100
v -0.452778 1.633746 0.959007
v 0.552670 1.207811 -2.472152
v -0.439945 2.480273 -1.011117
v -0.531974 3.058710 1.444072
v -0.125019 1.948226 -3.079014
v 0.137368 2.213600 -1.485532
v -0.618322 2.573514 0.187218
v -0.272140 3.816970 1.108606
v -0.423554 0.232413 1.153207
v -0.471372 3.452491 0.372502
v -0.555093 1.605050 1.029493
v -0.502092 3.195845 1.263304
v 0.565164 3.551710 1.265950
v 0.377244 3.819129 2.858789
v -0.447545 4.311295 2.408348
v 0.356351 3.845469 2.876235
v 0.340314 3.851715 2.884685
v -0.794420 2.764902 -1.593499
v 0.304757 3.847373 2.896986
v -0.198118 3.650097 2.820347
v 0.275986 3.822872 2.899516
v 0.267811 3.805769 2.896650
v 0.585453 3.514216 2.320260
v 0.267804 3.770059 2.884024
v 0.275972 3.754949 2.875499
v -0.045180 2.852194 -2.291871
v 0.304734 3.737473 2.858128
v 0.322512 3.736817 2.850980
v 0.340292 3.741815 2.845827
v 0.604856 3.319995 1.066624
v 0.369062 3.766316 2.843296
v 0.377237 3.783424 2.846162
v -0.768139 0.106144 1.347720
v 0.377339 3.824988 2.856537
v -0.171154 3.808190 2.886106
v 0.356450 3.851432 2.873783
v 0.340415 3.857740 2.882184
v -0.662480 0.152111 1.428360
v 0.304859 3.853517 2.894515
v 0.927701 -0.003859 1.362186
v 0.276086 3.829122 2.897216
v 0.267909 3.812065 2.894468
v 0.490985 3.173161 -1.563416
v 0.267897 3.776376 2.882102
v 0.276063 3.761217 2.873700
v 0.613372 0.463339 0.932046
v 0.304820 3.743564 2.856485
v 0.322598 3.742815 2.849351
v 0.340377 3.747731 2.844166
v -0.477504 4.060951 2.253298
v 0.369149 3.772140 2.841451
v 0.377327 3.789236 2.844185
v -0.225683 4.097643 2.754886
v -0.434974 2.634726 -2.142190
v -0.157595 3.914899 0.972733
v -0.286208 2.351220 -0.773453
v -0.085147 1.713508 -3.057577
v 0.708833 0.274878 -2.290606
v 0.829711 2.530988 -1.561023
v 0.316683 3.804757 2.871991
v -0.140013 3.781297 2.853431
v 0.683133 3.289937 0.295727
v 0.442251 3.009066 1.898350
v -0.466664 3.057254 -2.039712
v 0.684802 2.691352 -1.970225
v -0.587864 2.586045 1.454781
v 0.068752 2.573128 1.878601
v -0.044072 3.745055 2.943691
v 0.429954 2.619109 -2.152718
v -0.782568 2.770185 -1.209665
v -0.652549 -0.016661 1.517414
v 0.578067 1.625601 -1.400021
v 0.395302 3.821406 2.808816
v 0.391162 3.847261 2.819353
v 0.379131 3.869582 2.831744
v 0.360385 3.886209 2.844769
v 0.336759 3.895511 2.857144
v 0.310567 3.896579 2.867669
v 0.284371 3.889295 2.875310
v 0.260737 3.874395 2.879314
v 0.241978 3.853336 2.879287
v 0.229931 3.828183 2.875243
v 0.225773 3.801394 2.867572
v 0.229912 3.775560 2.857036
v 0.241944 3.753220 2.844665
v 0.260689 3.736565 2.831661
v 0.284314 3.727234 2.819293
v 0.310506 3.726135 2.808774
v 0.336701 3.733372 2.801138
v 0.360335 3.748274 2.797128
v 0.379095 3.769356 2.797135
v 0.391143 3.794562 2.801159
v -0.214714 3.821621 2.867714
v -0.671902 0.916853 -2.354550
v 0.588247 0.924562 -2.113023
v -0.193514 3.848338 2.884143
v -0.177250 3.854853 2.891925
v 0.364357 3.804032 2.850747
v -0.141198 3.851083 2.902890
v -0.364852 2.090762 -1.857772
v -0.112039 3.827051 2.904496
v -0.103759 3.810097 2.901442
v -0.588247 0.924562 -2.113023
v -0.103772 3.774350 2.889109
v -0.112063 3.759089 2.881025
v -0.527866 0.465882 0.906664
v -0.141238 3.741077 2.864920
v -0.159265 3.740108 2.858467
v -0.177290 3.744803 2.853962
v -0.693337 2.794568 1.336567
v -0.206448 3.768860 2.852339
v -0.214728 3.785858 2.855379
v 0.464320 3.058009 -2.043236
v 0.586584 4.317533 2.388735
v -0.709688 1.433269 -2.150968
v 0.094208 3.169026 3.328301
v -0.378497 3.734163 0.861110
v -0.156548 3.778774 2.848575
v -0.235342 1.917159 0.693418
v -0.268803 4.158194 2.624408
v 0.170376 3.331949 3.388662
v -0.749950 0.103208 1.183097
v 0.483940 2.066207 -2.103996
v -0.625267 0.022282 -1.850714
v 0.646414 3.065838 1.421668
v -0.056583 3.192196 2.927619
v 0.722207 2.418183 1.335575
v -0.755187 2.302054 -1.907272
v -0.090921 2.841570 2.163862
v -0.140336 3.791962 2.873741
v -0.523100 1.741878 0.401299
v 0.304431 2.135514 -1.353885
v -0.234437 3.817784 2.820714
v -0.230221 3.843698 2.831080
v -0.218005 3.866176 2.842997
v -0.198985 3.883044 2.855294
v -0.175021 3.892649 2.866756
v -0.148461 3.894050 2.876274
v -0.121904 3.887098 2.882911
v -0.097949 3.872494 2.886015
v -0.078942 3.851666 2.885279
v -0.066743 3.826655 2.880786
v -0.062546 3.799899 2.872973
v -0.066762 3.773998 2.862610
v -0.078979 3.751500 2.850711
v -0.097999 3.734607 2.838434
v -0.121963 3.724980 2.826975
v -0.148524 3.723554 2.817461
v -0.175081 3.730465 2.810827
v -0.199035 3.745074 2.807718
v -0.218042 3.765925 2.808435
v -0.230240 3.790985 2.812910
v 0.495307 3.833015 1.336690
v 0.794960 2.765959 -1.595373
v 0.289881 3.334574 3.126121
v -0.471210 1.574482 -1.917742
v -0.236826 3.687859 0.375700
v 0.103512 3.785194 0.690251
v -0.741035 1.837903 -1.303966
v -0.681684 2.971769 -1.806510
v -0.685645 1.962218 1.073075
v -0.826698 1.836850 -1.493755
v 0.625094 3.601215 1.903507
v 0.483031 2.165384 -1.076037
v -0.486709 3.166828 -1.550858
v 0.445086 3.550420 2.693135
v -0.476392 2.162267 -1.075023
v 0.719530 1.482849 -1.584213
v 0.095030 3.718342 3.063323
v -0.338403 2.948468 -2.163464
v 0.058340 1.919595 0.950692
v -0.707040 2.445162 1.236537
v -0.220932 4.001558 1.357318
v -0.533434 0.979229 -2.323223
v -0.517325 3.425154 -0.145641
v 0.156160 3.483038 -1.936986
v -0.503369 2.356122 -0.307236
v -0.373856 4.220267 2.290544
v 0.555421 1.675368 0.435155
v 0.755235 2.040484 0.786706
v -0.614402 3.278221 0.318734
v -0.526512 1.370118 0.554999
v -0.447303 3.322307 1.410672
v -0.427167 3.515685 2.200492
v -0.551391 3.257589 -0.156019
v -0.623352 1.197451 -2.461323
v 0.295790 3.215003 2.557801
v -0.566628 3.011764 0.635394
v 0.633612 2.708122 -0.265410
v -0.486860 2.952316 -0.690183
v 0.092444 3.160389 3.232180
v -0.476095 3.993462 2.388014
v 0.623352 1.197451 -2.461323
v -0.214815 3.815286 2.870002
v 0.025005 1.606058 -3.434750
v -0.191657 3.599108 -1.388501
v -0.193619 3.841899 2.886651
v -0.177356 3.848354 2.894488
v -0.581608 0.336695 -2.066089
v -0.141305 3.844478 2.905433
v 0.882373 0.069034 -1.840594
v -0.112144 3.820352 2.906867
v -0.103862 3.803356 2.903689
v -0.694563 -0.054421 1.129330
v -0.103869 3.767646 2.891062
v -0.112158 3.752430 2.882850
v -0.119611 1.607417 -3.431952
v -0.141328 3.734578 2.866576
v -0.159354 3.733689 2.860105
v -0.177379 3.738454 2.855631
v 0.853272 2.139087 -1.691005
v -0.206540 3.762580 2.854197
v -0.214822 3.779580 2.857374
v -0.784306 0.254929 -1.809389
v -0.037355 1.699235 -2.991981
v -0.658227 0.331168 1.170296
v 0.459522 3.739441 0.842018
v 0.194591 3.596621 -1.396217
v -0.027536 3.202002 3.010087
v 0.310546 3.867660 2.936925
v 0.742986 3.023686 -1.012927
v -0.291231 3.963765 2.765950
v 0.380367 4.101381 2.743446
v -0.102969 2.998697 -2.431143
v -0.180952 3.780267 2.851524
v 0.169911 3.172329 3.125145
v 0.133241 3.165398 3.197142
v -0.471103 3.241731 -0.715714
v -0.232177 3.640912 -0.210871
v -0.048557 1.451659 -3.422813
v 0.525575 2.961406 -0.707757
v 0.342758 1.922503 0.683212
v 0.439210 2.550447 -0.767205
v 0.510743 3.998677 1.862317
v -0.508653 3.311140 1.087130
v -0.013776 2.521336 -2.454233
v 0.623219 1.752470 0.381069
v -0.892086 0.071596 -1.860918
v -0.078866 3.626074 3.031090
v -0.153554 3.802016 2.880809
v -0.310809 2.544523 -2.154751
v 0.823097 2.458566 1.209283
v 0.506745 1.730777 0.587037
v -0.702192 2.997988 -1.484575
v -0.345217 3.497477 -0.735730
v 0.741038 1.837958 -1.303881
v 0.636404 4.476744 2.432730
v 0.463190 1.797282 -1.431229
v -0.544399 0.274846 -2.270357
v 0.705885 3.002445 -1.493283
v -0.111112 3.331971 3.133715
v 0.826708 1.836882 -1.493669
v 0.669383 0.476945 0.885536
v 0.769174 -0.041995 1.341026
v 0.053886 4.065796 1.513408
v 0.482276 0.091394 -2.009770
v 0.127180 2.696862 -2.482223
v 0.303329 3.794553 2.865420
v 0.004673 2.257476 -1.795287
v 0.092359 3.154484 3.225701
v 0.203378 3.203501 3.005715
v -0.152599 2.698646 -2.478224
v 0.169995 3.178234 3.131624
v 0.769898 0.196256 1.025987
v 0.698017 4.387432 2.430199
v 0.503752 3.249893 -0.732372
v -0.342717 3.583912 1.151086
v -0.596272 2.186783 -2.095811
v 0.240218 3.697351 2.961809
v 0.586087 1.427187 -2.262639
v 0.853417 -0.040116 1.102011
v 0.133157 3.159494 3.190664
v 0.613703 4.067546 2.232288
v 0.567053 3.435175 -0.164778
v 0.507938 3.264811 -1.231589
v 0.531804 1.288901 -1.791509
v 0.413864 4.243421 2.400777
v 0.019225 3.330387 3.388852
v 0.005423 2.280769 -1.298899
v -0.259673 2.388092 -1.088015
v 0.334399 3.811138 2.876625
v -0.768275 0.024958 -1.899164
v -0.506046 0.904375 1.050248
v 0.562331 2.069522 0.489667
v 0.235116 2.213583 -1.725227
v 0.651403 3.022427 0.613707
v 0.607586 3.203014 1.242290
v 0.902003 0.195998 -1.921360
v 0.935479 -0.002064 1.349978
v -0.406829 1.949049 0.436116
v -0.708833 0.274878 -2.290606
v -0.135494 3.785371 2.860737
v -0.470006 0.453327 0.951165
v 0.811432 0.344749 1.144359
v 0.752976 2.951876 0.813762
v 0.243215 3.707635 2.889715
v 0.439142 3.588829 1.135773
v -0.659775 2.939628 0.838998
v 0.741260 0.299337 -2.113770
v 0.438739 1.882080 0.476851
v -0.400630 2.542933 -0.754959
v -0.034937 2.097012 -3.117411
v -0.684821 2.691626 -1.969686
v 0.907745 0.118526 1.153841
v 0.768275 0.024958 -1.899164
v -0.191120 3.783877 2.859184
v 0.078541 4.158231 2.833385
v -0.004453 3.308730 -2.293189
v 0.679878 1.616462 1.007698
v -0.219798 3.810019 0.811053
v 0.338547 2.878659 -2.167161
v 0.828264 1.492320 0.962731
v -0.548344 3.568605 0.882456
v -0.902003 0.195998 -1.921360
v -0.307989 3.005104 1.912799
v -0.392175 3.828135 1.354702
v -0.376184 4.016560 1.866007
v -0.337780 1.874900 0.490558
v 0.000790 2.211919 -0.775369
v -0.376624 2.148740 -0.297633
v 0.461262 2.184742 1.311481
v -0.768514 -0.017811 1.380051
v 0.373056 3.502239 -0.747158
v -0.230003 2.967499 2.097471
v 0.406427 3.355533 2.505968
v 0.298360 2.552886 1.664140
v 0.083155 3.947511 3.009304
v -0.361326 2.779471 1.733219
v -0.519653 3.560338 1.556800
v -0.745897 0.101643 -1.695490
v 0.045487 1.888553 0.205096
v -0.596985 2.551699 -1.023315
v -0.439265 3.508058 2.339828
v -0.483865 2.066377 -2.104128
v -0.588721 3.340433 1.606549
v 0.286759 3.639550 -0.226001
v 0.623775 0.578223 1.079906
v 0.644547 0.915008 1.029942
v 0.721649 0.710961 1.128166
v -0.077548 2.551761 1.799356
v -0.552670 1.207811 -2.472152
v -0.136966 3.213047 2.516321
v 0.695474 2.585689 0.164038
v 0.495005 2.763833 -0.702701
v -0.648819 -0.090473 1.435796
v 0.859538 0.628055 1.076519
v 0.649744 3.168215 -1.107474
v 0.447932 3.968338 2.751987
v 0.490525 2.784377 1.716988
v 0.557751 3.328105 1.391130
v 0.377113 3.471334 -1.292063
v -0.462287 3.545653 1.286155
v 0.653739 2.634874 0.553205
v 0.890772 0.069823 -1.854544
v -0.721689 3.013245 -0.993402
v 0.153802 3.292485 -2.172682
v 0.581608 0.336695 -2.066089
v -0.817753 0.019560 -1.759032
v 0.010915 3.177201 3.134637
v 0.115469 3.084036 3.202245
v 0.752718 1.682714 0.579491
v 0.346515 3.811017 2.871259
v 0.712503 0.240878 1.237424
v 0.308639 2.543653 -2.155531
v 0.237121 2.843362 2.157820
v -0.671364 2.489636 0.791295
v 0.052676 1.946540 -3.082355
v 0.282905 3.874979 0.937080
v 0.491549 4.189612 2.147186
v -0.047950 3.144243 3.218785
v -0.646021 2.027536 0.811436
v 0.355740 4.091092 1.851346
v -0.563821 2.623678 0.574655
v -0.558090 4.379903 2.454036
v 0.778037 2.248866 -1.266759
v 0.686045 2.155807 1.246518
v 0.158541 3.363738 3.489954
v -0.183457 3.807915 2.881204
v -0.452023 1.666058 0.452934
v -0.702655 1.478172 0.989749
v 0.709037 2.596356 1.431254
v 0.603826 3.268269 -0.176404
v -0.254912 2.065397 1.164631
v 0.519972 1.904358 1.058647
v 0.931673 0.121851 1.317722
v 0.936794 -0.000019 1.344501
v 0.892086 0.071596 -1.860917
v 0.771251 2.502844 0.765867
v -0.161371 3.481542 -1.935110
v 0.459678 2.492430 -1.014193
v 0.707192 3.347482 1.581062
v 0.232428 3.146063 3.213475
v -0.336755 2.177568 1.325636
v 0.007478 1.712667 -3.059407
v 0.062729 2.097415 1.299011
v 0.336349 3.408467 -1.782516
v 0.819188 -0.076908 1.409889
v -0.398835 1.895868 1.074862
v 0.789553 2.775321 -1.217470
v 0.181471 2.431487 -2.048382
v -0.671615 0.992386 -2.112872
v 0.343233 3.783376 2.841671
v -0.829713 2.530985 -1.561022
v 0.085902 2.998236 -2.433463
v -0.154197 2.218440 -1.468604
v 0.533434 0.979229 -2.323223
v 0.516574 1.406638 -2.218109
v 0.596061 -0.018381 1.123740
v -0.512867 0.179897 -1.835457
v -0.201968 3.800684 2.861387
v -0.477307 0.568048 1.099338
v -0.713923 0.613515 1.104287
v -0.145757 3.865141 2.945414
v 0.535674 2.831803 -2.038594
v 0.364349 3.820938 1.096535
v 0.024972 3.387599 3.463183
v -0.482276 0.091394 -2.009770
v 0.185391 4.275786 2.504763
v -0.445510 0.052486 1.414902
v 0.638919 1.380887 0.534432
v -0.035674 3.136112 2.870574
v 0.318745 3.781601 2.839641
v 0.578166 0.241670 1.135528
v 0.567952 3.521577 2.181407
v -0.198837 3.791183 2.863027
v -0.495924 3.595329 1.925275
v -0.180322 2.430282 -2.042840
v 0.512866 0.179897 -1.835457
v 0.567183 2.366050 -0.326134
v -0.741260 0.299337 -2.113770
v -0.760278 -0.019457 1.391975
v 0.610493 2.559461 -1.029459
v -0.554175 0.229173 1.259778
v -0.002966 3.535529 -1.991646
v 0.376199 2.071229 1.153493
v -0.340093 3.404365 -1.774948
v 0.612662 0.062265 1.396227
v -0.686224 2.975727 1.066337
v 0.828095 0.165885 1.402055
v 0.784306 0.254929 -1.809389
v -0.882373 0.069034 -1.840594
v 0.817753 0.019560 -1.759032
v 0.300507 3.693968 0.367320
v -0.015656 2.812613 -2.701547
v -0.017585 4.125055 1.873415
v -0.192645 4.221275 2.138980
v -0.027620 3.196097 3.003608
v -0.454397 2.755419 -0.686929
v 0.322371 4.004503 1.345374
v -0.233228 2.212899 -1.723969
v 0.805265 1.975995 1.046763
v 0.786931 2.987931 1.039746
v -0.463092 1.797297 -1.430764
v 0.633978 3.566948 1.533473
v 0.298080 3.787917 2.852600
v 0.504443 1.957476 0.420029
v 0.709688 1.433269 -2.150968
v 0.029965 3.697732 0.270744
v -0.825123 0.040619 -2.105109
v -0.575853 0.698971 1.151064
v 0.745897 0.101643 -1.695490
v 0.671615 0.992386 -2.112872
v 0.574883 2.872370 1.536858
v 0.050287 3.164860 3.198714
v -0.497546 4.469978 2.454082
v 0.574627 1.643239 0.940875
v 0.332513 3.208700 2.771982
v 0.053474 1.856045 0.641606
v -0.368312 3.467136 -1.282669
v -0.058383 1.537153 -3.906341
v -0.770060 -0.015792 1.374624
v 0.417852 4.162408 2.611422
v 0.544399 0.274846 -2.270357
v -0.561999 0.003220 -2.107639
v 0.069125 2.839587 -2.228386
v 0.353642 3.787099 2.848944
v 0.689686 0.958985 -2.206779
v 0.302372 3.783899 2.845126
v 0.755188 2.302053 -1.907272
v 0.361409 3.794494 2.852498
v -0.689686 0.958986 -2.206779
v -0.464285 2.060032 0.507786
v 0.838860 2.079590 0.957670
v 0.671902 0.916853 -2.354550
v 0.825122 0.040619 -2.105109
v 0.010831 3.171297 3.128158
v 0.212113 2.553501 1.793933
v 0.360837 3.653328 2.809819
v 0.632362 3.578224 0.860311
v 0.093477 2.974676 -2.283040
v 0.078940 3.103558 2.504188
v -0.453749 2.866230 1.556298
v 0.561999 0.003220 -2.107639
v -0.563129 2.144566 1.268662
v -0.618160 0.183429 1.050484
v -0.165486 3.205849 2.781606
v 0.618120 4.000165 2.367197
v 0.083896 2.914042 2.263032
v 0.365508 2.091230 -1.857634
v -0.601158 2.406818 1.359240
v -0.285364 3.546182 2.706984
v 0.596252 2.186832 -2.095841
v 0.280486 2.399080 -1.086614
v 0.063856 2.365618 1.517250
v -0.251324 3.351508 2.518538
v 0.444619 2.156528 -0.312256
v -0.130185 2.036135 -0.275759
v 0.806816 2.806504 1.309306
v -0.724270 2.065145 0.985258
v 0.294435 4.232155 2.144005
v 0.372200 2.970790 2.085927
v 0.824431 -0.003013 1.491348
v 0.203294 3.197596 2.999235
v 0.207076 3.137710 2.865990
v -0.399052 1.722407 0.603023
v 0.625267 0.022282 -1.850714
v -0.247957 4.236480 2.461064
vn 0.3444 -0.3130 0.8851
vn 0.7629 0.1858 -0.6192
vn 0.3445 -0.3128 0.8851
vn -0.9905 -0.0256 -0.1353
vn -0.8518 -0.4500 0.2681
vn 0.3444 -0.3131 0.8851
vn -0.3438 -0.7418 0.5759
vn 0.8314 -0.0886 -0.5486
vn -0.0683 0.9944 -0.0801
vn 0.3444 -0.3129 0.8852
vn 0.9469 -0.1790 -0.2670
vn -0.9135 -0.3816 -0.1414
vn -0.9679 0.2057 -0.1447
vn -0.2144 -0.7684 0.6030
vn -0.8527 0.1253 0.5072
vn -0.9828 -0.0221 -0.1836
vn -0.7387 -0.5808 0.3420
vn 0.9280 0.0370 0.3707
vn 0.4470 -0.2462 0.8600
vn -0.6958 0.1785 -0.6957
vn 0.5993 0.7958 -0.0869
vn -0.1410 -0.9893 -0.0363
vn -0.1667 -0.9837 -0.0679
vn 0.8298 0.5017 -0.2444
vn 0.8477 0.5300 -0.0237
vn -0.9933 0.0018 -0.1158
vn -0.0404 -0.9971 0.0640
vn 0.8560 -0.4934 0.1544
vn 0.4320 -0.8963 -0.1004
vn -0.9096 0.0669 -0.4101
vn 0.3446 -0.3130 0.8850
vn 0.2002 0.8983 -0.3911
vn -0.5489 0.8354 0.0292
vn -0.3875 -0.8918 -0.2336
vn 0.9903 -0.0542 -0.1277
vn -0.5515 0.8326 0.0510
vn 0.5024 0.8284 -0.2477
vn 0.7233 0.3319 -0.6056
vn -0.4307 0.1240 0.8939
vn -0.0840 0.9946 -0.0614
vn 0.9890 0.1478 0.0105
vn -0.0008 0.9932 -0.1167
vn -0.8981 -0.3969 -0.1895
vn 0.9782 0.0948 -0.1846
vn -0.1559 -0.6970 0.6999
vn 0.5914 -0.4247 0.6855
vn -0.6016 -0.7719 0.2054
vn -0.1162 0.9466 0.3008
vn -0.1347 -0.8438 0.5194
vn 0.8631 -0.1218 -0.4902
vn -0.9751 0.2201 0.0271
vn -0.9525 -0.1911 -0.2370
vn -0.4338 -0.8982 -0.0710
vn 0.2110 0.9673 -0.1406
vn 0.6609 -0.6905 0.2939
vn 0.9771 -0.1668 -0.1320
vn 0.4274 0.7010 -0.5710
vn 0.2818 0.8973 0.3398
vn -0.3303 -0.8166 0.4734
vn 0.6195 0.6742 0.4022
vn -0.4382 -0.8761 -0.2011
vn -0.0624 -0.2454 0.9674
vn -0.7823 0.3388 -0.5227
vn -0.2425 0.6170 0.7487
vn -0.6936 0.5471 0.4686
vn 0.3443 -0.3131 0.8851
vn -0.4392 -0.2506 0.8627
vn -0.1780 -0.1088 -0.9780
vn 0.9816 -0.1793 0.0657
vn -0.2467 0.8476 -0.4698
vn -0.8867 0.1120 -0.4486
vn -0.8268 -0.3800 0.4147
vn -0.9933 0.0916 -0.0704
vn -0.8942 0.4444 0.0546
vn 0.0747 -0.1334 0.9882
vn 0.8873 0.4608 0.0212
vn -0.2736 -0.3760 -0.8853
vn -0.0071 -0.7334 0.6798
vn -0.5862 0.1262 -0.8003
vn -0.7067 0.6593 -0.2568
vn 0.9406 -0.2946 0.1687
vn 0.2320 -0.9637 0.1324
vn -0.2484 0.0108 -0.9686
vn 0.9978 0.0568 -0.0353
vn -0.4000 -0.9009 -0.1682
vn 0.0572 0.9040 -0.4237
vn 0.6968 0.1766 -0.6952
vn -0.6485 -0.5566 0.5192
vn -0.9348 0.2838 -0.2135
vn 0.3937 -0.9027 -0.1738
vn -0.7100 -0.3290 0.6226
vn -0.9537 0.2470 -0.1716
vn -0.4507 -0.3937 0.8012
vn -0.9463 0.3232 0.0020
vn -0.3455 -0.8381 -0.4223
vn -0.0628 -0.8507 0.5219
vn -0.2968 -0.7724 0.5615
vn -0.2222 -0.8417 0.4921
vn 0.9989 0.0041 0.0460
vn 0.1021 -0.9303 0.3522
vn -0.9850 -0.0281 -0.1704
vn -0.5745 0.4782 -0.6643
vn -0.4300 -0.6037 0.6713
vn 0.3459 -0.9380 0.0241
vn -0.4300 -0.6035 0.6715
vn 0.8653 -0.4491 0.2224
vn -0.1195 -0.2089 -0.9706
vn 0.8652 -0.4494 0.2222
vn 0.7822 0.6138 0.1071
vn 0.9048 -0.1184 0.4091
vn 0.3296 -0.9037 0.2734
vn -0.1372 -0.4941 0.8585
vn 0.6454 -0.7394 0.1916
vn 0.7312 -0.6507 0.2050
vn 0.5441 -0.7791 0.3113
vn 0.5481 0.4984 0.6717
vn 0.8100 0.3189 0.4921
vn 0.5480 0.4984 0.6718
vn 0.9318 0.2949 -0.2117
vn -0.3296 0.2004 0.9226
vn 0.9508 -0.1015 0.2927
vn 0.7499 -0.6448 -0.1476
vn -0.9128 -0.1084 0.3939
vn 0.7147 0.3177 0.6231
vn 0.8658 0.2162 0.4513
vn -0.4301 0.0611 0.9007
vn -0.2962 0.2627 0.9183
vn 0.6393 0.3680 0.6752
vn -0.5252 -0.2785 0.8041
vn 0.2132 0.5541 0.8047
vn -0.7586 0.3297 0.5619
vn -0.2204 0.3603 0.9064
vn -0.8842 0.4191 -0.2065
vn -0.0615 0.3489 0.9351
vn -0.9036 0.3246 0.2797
vn 0.9941 -0.0109 0.1080
vn 0.4683 0.7125 0.5225
vn 0.1023 -0.9304 0.3519
vn -0.8569 0.5154 0.0076
vn -0.6042 0.6746 0.4241
vn -0.5002 -0.3945 0.7708
vn -0.7603 0.1281 -0.6368
vn 0.9888 0.0101 0.1486
vn -0.7855 0.5632 -0.2563
vn -0.7826 0.6083 0.1327
vn -0.7160 0.6470 0.2624
vn -0.7999 0.1181 -0.5884
vn 0.9359 -0.2228 0.2729
vn -0.8413 0.4374 0.3176
vn 0.3294 -0.9038 0.2734
vn -0.9519 0.0496 -0.3025
vn 0.0670 0.0802 0.9945
vn -0.9184 -0.3196 0.2334
vn -0.7543 -0.6524 0.0741
vn -0.9810 0.0145 0.1936
vn 0.9905 0.0418 -0.1308
vn -0.6824 0.2444 0.6889
vn 0.3320 0.5433 0.7711
vn 0.8867 0.1120 -0.4486
vn -0.4542 -0.8887 -0.0631
vn 0.9021 -0.0309 0.4303
vn 0.6011 0.7917 -0.1091
vn -0.6339 -0.6549 0.4115
vn -0.1936 -0.7640 0.6155
vn 0.9172 0.3715 -0.1440
vn -0.6516 -0.7114 0.2634
vn -0.7070 -0.5400 0.4567
vn -0.4188 -0.1893 0.8881
vn 0.8958 -0.4341 -0.0950
vn 0.7886 -0.1950 -0.5832
vn 0.1375 0.4377 0.8885
vn 0.2419 -0.7605 0.6026
vn -0.9882 -0.0337 0.1492
vn -0.8656 0.4691 -0.1752
vn -0.8703 0.4510 0.1982
vn -0.8474 0.4293 0.3125
vn 0.8085 -0.2763 0.5196
vn -0.1089 0.4366 0.8931
vn 0.8980 0.4389 0.0307
vn 0.9790 -0.1797 0.0968
vn 0.4547 -0.1832 0.8716
vn -0.0556 -0.3810 -0.9229
vn -0.4902 0.8697 0.0576
vn -0.4850 -0.2694 0.8320
vn -0.9496 0.1255 -0.2873
vn 0.0404 -0.9971 0.0640
vn -0.7514 -0.0795 0.6551
vn -0.8846 -0.0418 0.4644
vn 0.0051 -0.9992 -0.0403
vn -0.2855 0.9514 -0.1152
vn -0.3091 0.5397 0.7831
vn -0.7027 0.5431 0.4596
vn -0.7679 0.3182 -0.5559
vn 0.7696 -0.4782 -0.4232
vn -0.5463 -0.8114 0.2077
vn -0.8604 -0.0530 -0.5069
vn 0.6916 0.5764 -0.4353
vn 0.9960 0.0008 0.0892
vn -0.3076 -0.9076 0.2858
vn -0.8464 0.4875 -0.2145
vn -0.9219 -0.2342 0.3085
vn -0.9653 -0.1736 -0.1952
vn 0.0096 0.7697 0.6383
vn 0.5225 0.8262 -0.2107
vn 0.6566 -0.6470 0.3876
vn -0.3047 -0.9524 -0.0107
vn -0.7794 -0.4942 -0.3851
vn 0.5342 -0.3876 0.7513
vn -0.3153 0.4057 -0.8579
vn 0.8738 -0.1621 0.4584
vn -0.0774 -0.9314 0.3557
vn 0.9910 -0.0974 -0.0915
vn 0.1403 0.9810 -0.1336
vn 0.0916 0.9715 -0.2186
vn 0.0928 0.3503 0.9320
vn -0.8670 -0.0951 -0.4892
vn 0.2503 0.3637 0.8973
vn -0.8450 0.4542 0.2823
vn -0.1893 0.5519 0.8121
vn 0.5586 -0.2707 0.7840
vn -0.7897 0.1793 -0.5867
vn 0.4632 0.0670 0.8837
vn 0.3277 0.2670 0.9063
vn 0.4632 0.0671 0.8837
vn -0.8506 0.2057 0.4840
vn -0.6943 0.3092 0.6498
vn 0.8932 0.0835 -0.4418
vn 0.9845 0.0393 -0.1707
vn -0.9376 -0.1130 0.3287
vn -0.3627 -0.9133 0.1852
vn 0.7418 0.3322 -0.5826
vn -0.5282 0.4920 0.6921
vn -0.7946 0.3091 0.5226
vn -0.5282 0.4920 0.6920
vn -0.5222 -0.7856 0.3320
vn -0.7147 -0.6595 0.2328
vn -0.6285 -0.7472 0.2162
vn 0.8883 -0.1646 0.4287
vn -0.3079 -0.9075 0.2859
vn -0.9837 -0.0018 0.1797
vn -0.8504 0.4407 -0.2875
vn -0.8505 -0.4599 0.2552
vn -0.9661 -0.1739 0.1910
vn -0.8506 -0.4596 0.2553
vn 0.4628 -0.5976 0.6547
vn -0.0670 0.0802 0.9945
vn 0.4628 -0.5980 0.6543
vn -0.4749 -0.4940 0.7283
vn -0.9651 0.0316 0.2599
vn -0.0773 -0.9313 0.3558
vn 0.0807 -0.3369 -0.9381
vn 0.2510 -0.8387 0.4833
vn 0.3275 -0.7684 0.5498
vn 0.0931 -0.8496 0.5191
vn 0.9895 -0.0348 0.1404
vn -0.6639 -0.5564 0.4996
vn -0.9798 0.1363 -0.1466
vn -0.9775 -0.1927 -0.0863
vn 0.7059 0.1568 -0.6908
vn -0.7397 -0.1043 0.6648
vn 0.6238 -0.5984 0.5027
vn 0.9825 0.0138 0.1857
vn -0.6589 0.3204 0.6806
vn 0.9903 0.0439 -0.1317
vn 0.9815 -0.1667 0.0941
vn -0.6386 0.0377 0.7686
vn 0.3072 0.0122 0.9516
vn 0.1134 -0.6274 0.7704
vn -0.9431 -0.3013 0.1409
vn 0.0473 -0.0389 -0.9981
vn 0.5986 0.6248 -0.5013
vn -0.3604 0.9240 -0.1275
vn 0.9071 -0.0855 0.4121
vn -0.4396 0.6984 -0.5648
vn -0.2377 0.8874 0.3950
vn -0.7167 -0.4769 0.5088
vn 0.9747 -0.1620 0.1540
vn 0.9785 -0.1791 0.1024
vn -0.9670 0.0367 0.2522
vn 0.5449 0.8380 0.0296
vn 0.9920 -0.1173 -0.0462
vn 0.9811 0.0504 -0.1869
vn 0.7744 0.6099 0.1686
vn -0.3065 -0.3173 0.8974
vn 0.7956 0.4314 0.4253
vn 0.0791 0.9817 -0.1732
vn 0.7308 0.1343 -0.6692
vn 0.2735 -0.3962 0.8765
vn -0.5961 -0.3929 0.7002
vn -0.7367 0.6605 -0.1450
vn -0.3066 -0.3172 0.8974
vn -0.3066 -0.3173 0.8974
vn -0.6940 0.5792 -0.4276
vn 0.8142 -0.3340 0.4749
vn -0.3068 -0.3172 0.8974
vn -0.4059 0.5805 0.7059
vn -0.1046 -0.5161 -0.8501
vn 0.3395 0.2644 0.9027
vn 0.9148 -0.3646 -0.1738
vn -0.8431 -0.1613 0.5129
vn -0.6814 0.6826 -0.2640
vn 0.0902 -0.9151 0.3931
vn 0.2282 -0.7616 0.6066
vn -0.7261 0.6037 -0.3291
vn -0.5944 -0.7429 0.3079
vn 0.7229 0.6055 -0.3329
vn -0.6329 0.7674 -0.1028
vn -0.8685 0.4735 -0.1468
vn 0.8666 -0.4409 0.2337
vn 0.0678 -0.9466 -0.3153
vn 0.9496 0.1253 -0.2872
vn 0.7316 0.2818 0.6208
vn 0.7136 0.1443 0.6855
vn 0.8679 0.4355 -0.2390
vn -0.8049 -0.2097 -0.5551
vn -0.7700 0.6075 0.1950
vn 0.9675 -0.2375 0.0869
vn 0.9233 -0.3837 -0.0163
vn -0.3386 -0.6682 0.6624
vn -0.8484 -0.1041 -0.5189
vn 0.7232 -0.4947 0.4819
vn -0.3067 -0.3172 0.8974
vn -0.2074 0.6589 -0.7230
vn -0.7316 0.2818 0.6207
vn 0.2749 -0.1853 0.9434
vn -0.7058 0.1568 -0.6908
vn 0.9892 -0.0553 0.1355
vn 0.8383 -0.4845 0.2500
vn -0.1816 -0.3445 0.9211
vn 0.7816 0.3430 0.5210
vn 0.5815 0.8125 -0.0418
vn -0.7778 -0.5021 0.3782
vn 0.8351 -0.0536 -0.5475
vn -0.1386 0.9549 -0.2625
vn 0.1975 -0.9748 0.1033
vn -0.8279 -0.2863 0.4823
vn 0.7720 -0.4339 0.4645
vn 0.1995 -0.2828 0.9382
vn -0.8506 -0.3945 0.3478
vn -0.9514 0.3061 0.0322
vn 0.9842 0.1765 0.0097
vn 0.9831 0.0986 0.1541
vn -0.3066 -0.3171 0.8975
vn 0.2600 -0.9440 -0.2029
vn 0.2853 -0.2202 0.9328
vn -0.5967 0.1536 0.7876
vn -0.0916 -0.5899 -0.8023
vn -0.1180 -0.6911 0.7130
vn -0.6571 -0.5653 0.4986
vn -0.0373 -0.1345 0.9902
vn -0.9780 0.1941 0.0765
vn 0.8469 0.4486 0.2856
vn -0.9920 -0.1173 -0.0462
vn 0.6436 -0.6326 0.4307
vn -0.2921 0.0281 0.9560
vn 0.9883 0.0190 -0.1515
vn 0.1577 0.2138 -0.9640
vn 0.6034 0.6919 0.3966
vn -0.2761 0.8311 0.4827
vn -0.5593 -0.3164 -0.7662
vn 0.6796 0.4570 -0.5739
vn -0.8983 -0.1351 -0.4181
vn -0.6908 0.6754 -0.2581
vn -0.9386 0.1581 -0.3066
vn -0.6409 0.7445 -0.1869
vn 0.9449 0.3245 0.0436
vn -0.9401 0.1286 0.3158
vn 0.6016 -0.7719 0.2054
vn 0.8752 0.1917 -0.4442
vn -0.8980 0.4389 0.0307
vn 0.9391 -0.0698 0.3365
vn 0.9145 0.3903 -0.1062
vn 0.1195 -0.2089 -0.9706
vn -0.8981 -0.0738 0.4335
vn -0.0728 -0.7603 0.6454
vn -0.8086 0.4044 0.4273
vn 0.8202 0.5177 -0.2435
vn -0.9939 -0.0085 -0.1097
vn -0.7773 0.0971 0.6215
vn -0.4031 -0.8787 -0.2557
vn -0.0936 0.9678 -0.2335
vn -0.8562 -0.3549 -0.3755
vn 0.7986 0.1109 0.5916
vn -0.9108 0.4028 -0.0908
vn 0.5069 0.8178 -0.2726
vn 0.4902 0.8697 0.0576
vn 0.8509 -0.3563 0.3861
vn 0.9104 -0.3370 0.2399
vn -0.9593 -0.2553 0.1209
vn -0.9893 -0.0295 0.1430
vn 0.6817 0.0056 -0.7316
vn 0.9408 -0.1269 -0.3144
vn -0.1478 -0.9452 0.2912
vn -0.0515 -0.9491 -0.3107
vn 0.8197 -0.0757 0.5677
vn -0.9551 -0.1321 0.2653
vn -0.6850 0.0649 0.7257
vn -0.8774 -0.1379 -0.4595
vn -0.9498 -0.2178 0.2247
vn -0.9716 -0.0565 -0.2296
vn 0.5550 -0.3234 0.7664
vn 0.6698 -0.6999 0.2480
vn 0.6497 0.7282 -0.2183
vn -0.4658 -0.0957 0.8797
vn -0.5434 0.2653 -0.7964
vn -0.7844 0.4216 0.4549
vn -0.9748 -0.2086 0.0795
vn -0.9951 0.0234 -0.0957
vn 0.0612 0.9497 -0.3072
vn -0.8083 0.5046 -0.3033
vn -0.7680 -0.6327 -0.0997
vn 0.6568 -0.3220 0.6818
vn -0.3683 0.1306 0.9205
vn 0.1332 -0.6482 0.7497
vn -0.6647 0.5910 -0.4570
vn 0.7976 -0.4925 0.3481
vn 0.5690 0.2182 -0.7929
vn 0.4984 -0.0878 0.8625
vn 0.3712 0.7310 0.5726
vn 0.8468 0.4682 0.2526
vn 0.5971 0.8015 -0.0334
vn 0.0535 0.9253 -0.3754
vn -0.9052 -0.1152 0.4092
vn 0.9832 -0.1823 -0.0125
vn -0.7071 -0.0073 -0.7071
vn -0.9966 -0.0143 0.0813
vn -0.5387 -0.1547 -0.8282
vn -0.2143 -0.9666 0.1409
vn -0.7560 0.2286 -0.6133
vn 0.7655 -0.0948 0.6364
vn -0.1136 -0.9607 -0.2533
vn 0.0468 0.9946 -0.0923
vn -0.7785 -0.5857 -0.2254
vn 0.4879 -0.8331 0.2606
vn 0.8488 -0.2094 0.4854
vn -0.3456 -0.5942 0.7263
vn 0.0127 -0.8281 -0.5605
vn 0.8158 -0.3520 0.4589
vn -0.8047 0.2427 -0.5419
vn -0.8796 0.1866 -0.4375
vn -0.6193 -0.6394 0.4556
vn 0.0840 -0.0981 -0.9916
vn -0.9523 -0.1965 -0.2335
vn 0.3325 -0.4383 -0.8351
vn -0.5260 -0.1273 -0.8409
vn -0.1025 -0.8854 0.4533
vn 0.2287 -0.0542 -0.9720
vn 0.6507 -0.5975 0.4687
vn 0.8192 0.4142 0.3966
vn -0.0873 -0.9954 -0.0386
vn 0.8569 0.1955 -0.4771
vn 0.5803 0.2152 0.7855
vn -0.7965 -0.0857 0.5986
vn 0.7713 -0.2582 0.5817
vn 0.7307 0.6653 -0.1533
vn -0.7484 0.1782 0.6388
vn -0.2950 -0.0938 0.9509
vn 0.3004 -0.7342 0.6088
vn -0.6151 -0.6280 0.4768
vn 0.4000 -0.9009 -0.1683
vn -0.4532 -0.8833 -0.1202
vn 0.4101 -0.8711 -0.2703
vn -0.6055 0.7956 -0.0186
vn 0.5596 0.1141 -0.8209
vn -0.5596 0.1143 -0.8208
vn 0.7179 -0.3460 0.6041
vn -0.0390 -0.7123 0.7007
vn 0.5163 0.6066 -0.6045
vn -0.9600 0.2779 0.0354
vn 0.3093 -0.6297 0.7126
vn -0.8713 0.4817 -0.0937
vn -0.1610 -0.2850 0.9449
vn 0.6702 0.6866 -0.2818
vn -0.9815 -0.1667 0.0941
vn -0.9035 -0.1288 0.4088
vn 0.4932 0.8581 0.1429
vn -0.7711 -0.1471 0.6195
vn -0.0675 -0.7452 0.6635
vn -0.5451 0.1651 0.8220
vn -0.7730 -0.4329 0.4637
vn 0.8578 -0.0592 -0.5106
vn 0.4983 -0.1178 -0.8590
vn 0.6703 -0.7028 0.2384
vn -0.2199 -0.9718 0.0854
vn -0.8763 0.2128 -0.4323
vn 0.9575 -0.1644 -0.2369
vn 0.2585 -0.9587 -0.1185
vn 0.5480 0.1472 -0.8235
vn -0.6267 -0.3340 0.7040
vn 0.3322 -0.0899 0.9389
vn 0.6857 0.6714 -0.2812
vn 0.9442 -0.3114 -0.1076
vn -0.7608 0.0269 0.6484
vn -0.7157 -0.1257 0.6870
vn 0.7275 -0.4651 0.5044
vn 0.7011 -0.6260 0.3415
vn 0.0561 0.9767 -0.2070
vn -0.5722 -0.0279 -0.8196
vn -0.9263 0.3621 -0.1045
vn -0.8543 -0.3067 -0.4196
vn -0.9564 0.0907 0.2777
vn 0.7523 0.2246 -0.6193
vn -0.2560 0.9611 0.1040
vn 0.6411 0.7582 -0.1187
vn -0.9878 0.1530 0.0284
vn 0.3763 -0.9109 0.1695
vn -0.6583 0.1530 -0.7370
vn 0.2080 -0.5529 -0.8069
vn -0.3305 -0.9342 -0.1347
vn -0.7518 0.3257 -0.5733
vn -0.9152 -0.0675 -0.3974
vn 0.7947 -0.1331 0.5923
vn 0.2466 -0.5992 0.7617
vn 0.8678 -0.3858 0.3132
vn -0.2183 -0.9735 -0.0685
vn -0.9992 0.0392 -0.0000
vn 0.7843 0.0359 0.6193
vn 0.9905 -0.0257 -0.1352
vn -0.0524 0.9970 -0.0561
vn 0.3074 -0.3355 -0.8905
vn -0.9910 -0.0974 -0.0915
vn -0.0010 0.9790 -0.2039
vn 0.2488 0.8835 0.3969
vn -0.1229 0.9750 -0.1849
vn 0.7761 -0.5887 -0.2261
vn -0.9901 -0.0080 -0.1402
vn 0.7639 -0.6439 0.0432
vn 0.9466 0.2514 -0.2021
vn -0.6118 0.7881 -0.0679
vn 0.3241 -0.9276 0.1856
vn -0.2888 0.8284 0.4799
vn 0.3877 -0.8786 -0.2788
vn 0.9247 0.0571 -0.3763
vn -0.2357 -0.1896 0.9531
vn -0.0965 -0.9706 -0.2204
vn -0.9889 0.0412 -0.1430
vn -0.8960 -0.4377 0.0752
vn 0.3321 0.5406 0.7729
vn -0.1906 -0.5565 -0.8087
vn 0.7645 -0.0766 0.6401
vn 0.2074 0.6589 -0.7230
vn 0.4719 -0.8776 -0.0843
vn -0.8414 -0.1300 0.5245
vn -0.0936 -0.3399 -0.9358
vn 0.3919 0.1391 0.9094
vn 0.4495 -0.5152 -0.7297
vn -0.9790 -0.1541 0.1338
vn -0.3459 -0.9380 0.0241
vn -0.9105 -0.3369 0.2399
vn 0.4188 -0.9014 -0.1100
vn -0.0060 -0.8221 -0.5694
vn 0.1344 -0.4925 0.8599
vn -0.9878 -0.0295 0.1527
vn 0.6859 0.7255 0.0562
vn 0.6402 -0.6217 0.4512
vn -0.6906 0.6854 -0.2310
vn 0.8565 -0.3501 -0.3791
vn -0.4877 0.6989 -0.5232
vn -0.6630 0.6600 -0.3533
vn 0.1072 -0.7460 0.6573
vn -0.8190 -0.4551 -0.3493
vn -0.0209 0.9918 -0.1262
vn 0.7806 0.2349 0.5793
vn 0.6901 0.7044 -0.1661
vn -0.9911 0.1292 -0.0307
vn 0.2407 -0.9675 0.0772
vn -0.2910 0.7400 0.6064
vn -0.6179 0.3603 0.6989
vn -0.8857 0.1439 0.4414
vn -0.4831 -0.8711 -0.0884
vn -0.9458 0.3142 0.0820
vn 0.9222 0.1816 -0.3415
vn -0.8407 -0.5207 -0.1488
vn -0.9799 -0.1754 -0.0947
vn -0.5375 0.8178 -0.2057
vn 0.9233 -0.3307 -0.1954
vn 0.2921 0.0281 0.9560
vn -0.6574 -0.7010 0.2764
vn -0.9331 0.3590 0.0219
vn 0.2097 0.0806 -0.9744
vn 0.0743 -0.7127 0.6975
vn -0.2746 -0.6321 0.7246
vn -0.1757 -0.9783 0.1099
vn -0.0949 -0.6502 0.7538
vn 0.8007 -0.4728 0.3679
vn 0.3459 -0.5942 0.7262
vn 0.1226 -0.9584 -0.2579
vn 0.9303 -0.3109 0.1947
vn 0.9496 0.1409 0.2800
vn 0.6536 -0.0377 -0.7559
vn -0.8749 -0.4720 -0.1082
vn 0.8279 -0.2863 0.4823
vn 0.4909 0.3611 -0.7928
vn 0.1016 -0.2444 0.9643
vn -0.7806 0.2349 0.5793
vn -0.0051 -0.9992 -0.0403
vn 0.9869 0.1475 -0.0656
vn 0.1347 -0.8832 0.4492
vn -0.6133 0.7855 -0.0826
vn 0.2525 -0.3717 -0.8934
vn -0.9909 0.0224 -0.1325
vn 0.9386 0.1581 -0.3066
vn -0.5446 0.6212 -0.5635
vn 0.2425 0.6170 0.7487
vn -0.6912 0.1332 0.7103
vn 0.8171 -0.5754 -0.0367
vn -0.7856 -0.5656 -0.2510
vn 0.1046 -0.5161 -0.8501
vn -0.3094 0.5368 0.7849
vn -0.3002 -0.9334 0.1966
vn -0.0126 -0.4071 -0.9133
vn 0.2964 0.8321 0.4688
vn 0.7970 -0.4519 -0.4008
vn -0.8134 -0.1722 0.5556
vn 0.8070 -0.4518 0.3804
vn 0.1006 -0.9694 -0.2241
vn 0.5646 0.4706 -0.6780
vn -0.0351 -0.9951 0.0925
vn 0.9071 -0.3521 0.2307
vn 0.9495 0.0968 -0.2983
vn 0.5034 -0.6293 0.5921
vn 0.6164 0.7730 -0.1503
vn 0.1974 -0.6671 0.7183
vn 0.6469 0.5898 -0.4833
vn 0.2122 -0.8008 -0.5601
vn 0.6134 0.2200 0.7585
vn 0.7946 -0.5333 -0.2902
vn 0.6765 0.7002 -0.2280
vn -0.0148 -0.8250 -0.5649
vn 0.0071 -0.7334 0.6798
vn 0.6583 0.1530 -0.7370
vn 0.1164 0.9833 -0.1395
vn -0.8265 -0.2178 0.5191
vn 0.9651 0.0316 0.2599
vn 0.8857 0.1439 0.4414
vn 0.0300 -0.3803 -0.9244
vn -0.9406 -0.2946 0.1687
vn 0.9884 0.1105 -0.1045
vn 0.6518 0.5913 -0.4749
vn -0.2135 -0.9672 -0.1373
vn 0.9604 -0.2053 0.1886
vn -0.8701 -0.1800 0.4588
vn -0.7598 0.2726 -0.5902
vn 0.1683 -0.8412 0.5138
vn 0.9363 -0.1530 -0.3162
vn -0.2352 -0.4011 0.8853
vn 0.6407 0.6655 -0.3829
vn -0.8564 0.1271 0.5005
vn 0.9147 -0.0625 0.3994
vn 0.8676 0.1412 0.4768
vn -0.6695 -0.5580 0.4903
vn -0.7083 0.7055 0.0256
vn 0.9490 0.3152 -0.0064
vn 0.3720 0.9027 -0.2160
vn 0.8540 0.4887 -0.1786
vn -0.2122 0.0899 -0.9731
vn 0.6796 -0.6886 0.2528
vn 0.8441 -0.5056 -0.1788
vn -0.1236 0.8536 -0.5061
vn 0.8701 0.4747 -0.1324
vn -0.4763 0.8512 -0.2202
vn 0.2456 -0.7664 0.5936
vn -0.6536 -0.0377 -0.7559
vn 0.2491 -0.3712 -0.8945
vn 0.4206 0.7307 0.5377
vn -0.4288 -0.8808 -0.2009
vn 0.8973 -0.1361 -0.4200
vn 0.5106 0.2168 -0.8320
vn 0.9975 -0.0537 0.0468
vn -0.9816 -0.1792 0.0659
vn 0.9130 0.3338 0.2345
vn 0.9580 0.2236 -0.1798
vn -0.9370 -0.2440 -0.2500
vn 0.9744 -0.2100 0.0798
vn -0.7987 -0.3132 0.5138
vn -0.9859 0.0758 -0.1491
vn -0.6018 0.1765 -0.7789
vn -0.3937 -0.9027 -0.1738
vn 0.0936 -0.3399 -0.9358
vn -0.9889 -0.0320 0.1454
vn -0.9756 -0.2086 -0.0691
vn 0.6553 -0.0962 0.7493
vn 0.4095 -0.4046 -0.8177
vn 0.7456 0.0718 0.6626
vn 0.3733 -0.6614 0.6505
vn -0.9965 0.0338 -0.0765
vn 0.4476 -0.5517 0.7038
vn 0.7334 0.2864 -0.6166
vn 0.0730 -0.7604 0.6454
vn 0.0995 0.9910 -0.0898
vn -0.6536 0.5878 -0.4766
vn -0.4850 0.2423 0.8402
vn 0.3753 -0.9258 -0.0455
vn 0.9850 -0.0281 -0.1704
vn 0.3789 -0.9180 -0.1174
vn -0.1224 -0.1642 0.9788
vn -0.8511 -0.4211 0.3136
vn 0.5589 -0.0094 0.8292
vn 0.6781 0.7306 -0.0802
vn 0.1338 -0.0577 -0.9893
vn -0.1383 -0.0526 -0.9890
vn -0.8300 0.2968 -0.4723
vn -0.7229 0.0582 0.6885
vn -0.7237 -0.5557 0.4092
vn -0.8509 -0.3562 0.3860
vn -0.3004 -0.7342 0.6088
vn 0.2647 0.4622 0.8464
vn 0.9525 -0.1911 -0.2370
vn -0.4685 -0.7631 -0.4452
vn -0.4031 -0.8251 -0.3960
vn 0.0916 -0.5899 -0.8023
vn 0.1410 -0.9893 -0.0363
vn -0.8609 0.2518 -0.4420
vn 0.0413 0.9581 -0.2835
vn 0.9769 -0.1722 0.1265
vn 0.9661 -0.1138 0.2319
vn 0.7953 -0.2197 0.5651
vn -0.9149 0.0200 0.4032
vn -0.4547 0.8849 -0.1007
vn -0.2558 -0.7564 0.6020
vn -0.0106 -0.4060 -0.9138
vn 0.9865 -0.0752 0.1455
vn -0.6190 -0.3926 0.6803
vn 0.3497 -0.8368 -0.4213
vn -0.7944 -0.5479 -0.2621
vn -0.9831 0.0986 0.1541
vn 0.2761 0.8311 0.4827
vn 0.2203 -0.3406 0.9140
vn -0.6892 0.6956 -0.2029
vn -0.5858 -0.4428 0.6788
vn -0.5946 -0.6097 0.5242
vn -0.0578 0.9509 -0.3039
vn -0.1336 -0.0564 -0.9894
vn 0.4469 -0.8679 -0.2167
vn 0.9515 -0.2893 0.1047
vn 0.8462 -0.3706 0.3830
vn 0.8937 -0.4428 0.0730
vn 0.8487 0.4190 -0.3226
vn -0.9919 -0.0179 0.1255
vn -0.9347 0.2007 -0.2935
vn -0.2503 -0.9620 -0.1089
vn 0.5446 0.6212 -0.5635
vn -0.3055 -0.4534 -0.8373
vn -0.5652 -0.4688 0.6789
vn -0.9888 0.0101 0.1487
vn -0.5336 0.1690 -0.8287
vn 0.8509 -0.0792 -0.5193
vn -0.6105 -0.5255 0.5926
vn 0.5341 0.8454 0.0101
vn 0.9894 0.0098 -0.1447
vn 0.9611 0.2762 -0.0025
vn 0.8640 -0.1507 0.4805
vn -0.4476 -0.5517 0.7038
vn 0.8400 0.2675 -0.4721
vn 0.5724 -0.8192 -0.0353
vn 0.8959 -0.4145 0.1596
vn -0.5589 -0.4353 0.7058
vn 0.6764 0.3327 0.6571
vn 0.4253 0.5855 0.6902
vn 0.7671 0.1922 0.6121
vn 0.7737 0.1234 -0.6214
vn 0.9136 0.2648 0.3086
vn -0.7246 -0.4579 0.5150
vn 0.8358 -0.1620 0.5246
vn 0.9925 0.0522 -0.1108
vn -0.6525 -0.3557 0.6692
vn 0.9659 0.1013 0.2382
vn -0.9811 0.0504 -0.1869
vn 0.9330 0.3595 -0.0187
vn 0.3422 0.9371 -0.0690
vn -0.9501 -0.1457 -0.2757
vn 0.7248 -0.1264 0.6772
vn 0.7686 0.3182 -0.5550
vn 0.5867 -0.0248 -0.8094
vn -0.6431 0.7542 -0.1330
vn -0.2170 -0.8048 -0.5525
vn 0.3981 0.1377 0.9069
vn 0.7756 0.3415 0.5309
vn -0.9143 0.2191 0.3406
vn 0.4596 0.1323 0.8782
vn -0.7259 -0.6485 0.2290
vn 0.8627 -0.1209 0.4910
vn -0.1075 -0.3386 -0.9348
vn 0.6185 -0.7317 0.2865
vn -0.7804 -0.4811 0.3993
vn -0.9496 0.1021 -0.2965
vn 0.7237 -0.5557 0.4092
vn 0.9837 -0.0018 0.1797
vn 0.3303 -0.8412 -0.4280
vn -0.7982 -0.4460 0.4050
vn 0.1741 -0.1709 0.9698
vn 0.1911 -0.6959 0.6922
vn -0.3621 0.1321 0.9227
vn -0.4340 -0.4863 0.7584
vn -0.7470 0.6525 -0.1275
vn 0.9759 0.0445 0.2134
vn -0.4148 0.7230 0.5524
vn -0.2771 -0.1976 0.9403
vn -0.2770 -0.3766 -0.8840
vn 0.9935 -0.0161 0.1130
vn 0.8994 0.0727 -0.4310
vn 0.9935 -0.0159 0.1126
vn -0.1596 0.2138 -0.9638
vn -0.6945 -0.6159 0.3720
vn 0.5191 -0.2632 0.8132
vn -0.7573 -0.0183 -0.6529
vn 0.6602 0.6939 -0.2876
vn -0.3433 0.8475 -0.4048
vn -0.9733 -0.1738 -0.1499
vn 0.1043 -0.9937 -0.0420
vn -0.6981 0.4643 -0.5450
vn 0.6212 0.1649 0.7661
vn 0.4665 -0.7545 -0.4617
vn -0.3323 -0.3414 -0.8792
vn -0.4704 -0.6383 0.6093
vn 0.4758 0.7018 -0.5302
vn 0.9901 -0.0080 -0.1402
vn 0.9320 -0.2267 -0.2830
vn 0.2560 0.9611 0.1040
vn -0.5255 0.0534 0.8491
vn -0.0240 -0.9912 -0.1301
vn 0.2184 -0.9654 -0.1429
vn 0.8710 0.1430 0.4700
vn -0.9937 -0.0665 -0.0899
vn 0.0568 -0.9942 0.0909
vn 0.7718 0.5511 -0.3174
vn 0.5176 -0.8289 -0.2121
vn -0.3301 0.4299 -0.8403
vn 0.4857 -0.3854 0.7846
vn 0.9762 -0.1905 -0.1035
vn -0.9473 -0.1608 -0.2770
vn 0.4770 0.7446 -0.4669
vn 0.8802 0.4559 -0.1316
vn 0.9749 0.1169 -0.1895
vn -0.8262 0.2642 0.4976
vn 0.0429 -0.3657 -0.9297
vn -0.9940 -0.0721 0.0819
vn -0.5902 0.2089 0.7798
vn 0.3954 -0.5030 0.7685
vn 0.9202 -0.1179 0.3733
vn -0.5163 0.6066 -0.6045
vn 0.5196 -0.8277 -0.2120
vn -0.8883 0.4465 -0.1079
vn -0.9247 0.0571 -0.3763
vn 0.9409 -0.0141 0.3384
vn 0.5541 0.0634 0.8301
vn 0.9219 0.2928 -0.2538
vn -0.2576 -0.9468 -0.1927
vn 0.5706 0.1754 0.8023
vn -0.6887 0.7234 -0.0494
vn -0.5581 -0.8297 -0.0153
vn -0.7350 -0.1123 0.6687
vn -0.7837 -0.2916 0.5484
vn -0.6274 0.1879 0.7557
vn 0.8507 0.4436 0.2822
vn -0.9481 -0.1502 -0.2802
vn 0.9759 -0.0040 -0.2181
vn -0.6459 -0.4194 0.6379
vn 0.9758 -0.1814 -0.1225
vn 0.1746 -0.9841 -0.0327
vn 0.9017 -0.0506 -0.4295
vn -0.6981 -0.5018 0.5107
vn 0.0045 0.9979 0.0639
vn -0.4653 -0.5237 -0.7136
vn -0.7710 -0.2345 0.5920
vn 0.5377 -0.3063 -0.7855
vn 0.7302 -0.5324 0.4282
vn -0.3642 0.7242 0.5856
vn -0.2581 -0.9527 0.1604
vn -0.3399 0.7531 0.5634
vn -0.2432 0.4575 0.8553
vn 0.6807 -0.5802 0.4473
vn 0.7093 0.0766 0.7008
vn -0.9240 -0.0793 0.3741
vn -0.1561 -0.1774 0.9717
vn 0.5652 -0.4688 0.6789
vn -0.9903 0.0439 -0.1317
vn 0.6824 0.2444 0.6889
vn 0.5119 -0.1450 -0.8467
vn -0.9845 0.0393 -0.1707
vn 0.2337 -0.9693 -0.0765
vn -0.9318 0.2949 -0.2117
vn 0.8047 0.2427 -0.5419
vn -0.0747 -0.6292 0.7736
vn -0.9826 -0.0735 0.1703
vn 0.9519 0.0496 -0.3025
vn 0.6975 0.7166 0.0009
vn -0.7960 -0.1845 0.5764
vn 0.8693 0.4651 0.1675
vn 0.3019 0.9515 -0.0587
vn 0.8791 -0.4558 -0.1391
vn 0.7285 -0.5091 0.4583
vn 0.5658 0.1619 -0.8085
vn 0.8543 -0.3067 -0.4196
vn -0.9792 -0.0879 0.1827
vn 0.6501 0.1997 0.7332
vn -0.9153 0.0558 -0.3990
vn 0.3500 -0.8678 -0.3527
vn -0.8527 -0.0693 -0.5178
vn 0.9852 0.0384 -0.1672
vn 0.5040 -0.4973 0.7062
vn 0.6267 -0.3865 0.6767
vn -0.0173 0.9363 -0.3507
vn 0.9638 -0.0386 -0.2638
vn -0.1596 -0.6702 0.7248
vn -0.9279 -0.0313 0.3714
vn -0.3812 -0.8857 -0.2650
vn 0.7877 0.5193 -0.3315
vn 0.6642 -0.4366 0.6068
vn 0.1754 -0.9422 0.2855
vn -0.7775 0.5686 -0.2686
vn 0.1599 -0.1616 0.9738
vn -0.3617 0.9306 -0.0566
vn -0.8143 -0.5343 0.2268
vn 0.8254 0.2669 -0.4975
vn 0.9463 0.3232 0.0020
vn -0.9685 -0.1901 0.1609
vn 0.9821 0.0590 -0.1787
vn 0.7611 -0.1030 0.6404
vn 0.9283 -0.0971 0.3589
vn -0.6476 -0.7121 0.2712
vn -0.9072 -0.4171 -0.0553
vn 0.7935 -0.6066 0.0490
vn -0.0689 -0.3667 -0.9278
vn -0.7658 -0.4247 0.4829
vn 0.7843 -0.5654 -0.2554
vn 0.5098 0.2515 0.8227
vn -0.9774 -0.1527 0.1459
vn 0.9763 0.2122 0.0419
vn 0.0086 -0.9124 0.4091
vn 0.7696 -0.4311 0.4711
vn 0.9705 -0.1558 -0.1842
vn -0.4630 -0.8419 0.2774
vn 0.8511 -0.4211 0.3136
vn 0.0106 -0.9770 -0.2131
vn -0.3130 0.9487 -0.0444
vn 0.9327 -0.1439 -0.3308
vn 0.8201 -0.2204 0.5281
vn 0.3591 -0.8114 0.4611
vn -0.5259 0.3539 -0.7734
vn 0.8511 0.4833 -0.2050
vn -0.8966 -0.3976 0.1952
vn -0.9415 -0.3288 -0.0743
vn -0.7954 -0.3579 0.4892
vn -0.8869 -0.0933 0.4525
vt 0.793893 0.811035
vt 0.733986 0.647144
vt 0.654509 0.794346
vt 0.904509 0.802353
vt 0.637534 0.635601
vt 0.530617 0.607635
vt 0.500000 0.753937
vt 0.876608 0.580494
vt 0.859674 0.618176
vt 0.975529 0.769161
vt 0.000000 0.714703
vt 0.810530 0.641144
vt 0.494886 0.330135
vt 0.549539 0.344433
vt 0.530617 0.328053
vt 0.604192 0.365723
vt 0.423700 0.300087
vt 0.327249 0.288544
vt 0.445583 0.324238
vt 0.637534 0.369709
vt 0.653495 0.391926
vt 0.692622 0.420471
vt 0.810530 0.476807
vt 0.717743 0.448570
vt 0.733986 0.420963
vt 0.201560 0.403915
vt 0.381335 0.383205
vt 0.184626 0.355206
vt 0.372679 0.358311
vt 0.250704 0.458881
vt 0.406456 0.411304
vt 0.327249 0.514725
vt 0.381335 0.339043
vt 0.250704 0.294548
vt 0.406456 0.327301
vt 0.201560 0.317513
vt 0.859674 0.531780
vt 0.555940 0.398312
vt 0.726400 0.473465
vt 0.692622 0.504471
vt 0.717743 0.492729
vt 0.653495 0.507542
vt 0.604192 0.501640
vt 0.445583 0.439854
vt 0.494886 0.466053
vt 0.549539 0.487347
vt 0.095491 0.301487
vt 0.206107 0.292805
vt 0.024472 0.334679
vt 0.345492 0.309490
vt 0.500000 0.349903
vt 0.654509 0.410099
vt 0.206107 0.619667
vt 0.345492 0.693741
vt 0.095491 0.538963
vt 0.423700 0.565987
vt 0.024472 0.459526
vt 0.000000 0.389137
vt 0.904509 0.564873
vt 0.975529 0.644310
vt 0.793893 0.484169
vt 0.000000 1.000000
vt 0.273600 0.473465
vt 0.123392 0.580494
vt 0.282257 0.492729
vt 0.024471 0.644310
vt 0.140326 0.618176
vt 0.307378 0.504471
vt 0.189470 0.641144
vt 0.140326 0.531780
vt 0.266014 0.420963
vt 0.206107 0.484169
vt 0.189470 0.476807
vt 0.345491 0.410099
vt 0.095491 0.564873
vt 0.576300 0.565987
vt 0.505114 0.466053
vt 0.469383 0.607635
vt 0.450461 0.487347
vt 0.672751 0.514725
vt 0.554417 0.439854
vt 0.593544 0.411304
vt 0.362466 0.635601
vt 0.395808 0.501640
vt 0.346505 0.507542
vt 0.266014 0.647144
vt 0.362466 0.369709
vt 0.798440 0.403915
vt 0.749296 0.458881
vt 0.975528 0.459526
vt 0.904509 0.538963
vt 0.815374 0.355206
vt 0.975528 0.334679
vt 0.654508 0.693741
vt 0.793893 0.619667
vt 0.576300 0.300087
vt 0.654508 0.309490
vt 0.469383 0.328053
vt 0.672751 0.288544
vt 0.793893 0.292805
vt 0.798440 0.317513
vt 0.749296 0.294548
vt 0.904509 0.301487
vt 0.444060 0.398312
vt 0.618665 0.383205
vt 0.282257 0.448570
vt 0.395808 0.365723
vt 0.346505 0.391926
vt 0.450461 0.344433
vt 0.307378 0.420471
vt 0.505114 0.330135
vt 0.627321 0.358311
vt 0.618665 0.339043
vt 0.593544 0.327301
vt 0.554417 0.324238
vt 0.095491 0.802353
vt 0.024471 0.769161
vt 0.345491 0.794346
vt 0.206107 0.811035
vt 0.531129 0.863455
vt 0.528598 0.862678
vt 0.529701 0.861377
vt 0.530028 0.864496
vt 0.532449 0.864504
vt 0.554833 0.852302
vt 0.535964 0.857423
vt 0.554115 0.862847
vt 0.527653 0.863068
vt 0.533337 0.860528
vt 0.534939 0.862031
vt 0.531751 0.858482
vt 0.533744 0.855085
vt 0.535657 0.858520
vt 0.537437 0.859975
vt 0.530356 0.847231
vt 0.465756 0.730456
vt 0.464280 0.731015
vt 0.466272 0.734068
vt 0.468310 0.733388
vt 0.464779 0.728223
vt 0.462719 0.728340
vt 0.462606 0.727787
vt 0.464037 0.730013
vt 0.465977 0.733427
vt 0.464885 0.735427
vt 0.463767 0.732595
vt 0.465331 0.736822
vt 0.463567 0.731622
vt 0.533015 0.861030
vt 0.528781 0.860447
vt 0.530131 0.864549
vt 0.530881 0.856491
vt 0.531355 0.865489
vt 0.534491 0.861890
vt 0.526887 0.856207
vt 0.527647 0.863272
vt 0.528726 0.864638
vt 0.526403 0.862717
vt 0.525618 0.860881
vt 0.526164 0.858016
vt 0.536721 0.859365
vt 0.468862 0.749484
vt 0.466293 0.747780
vt 0.466377 0.748286
vt 0.467102 0.749259
vt 0.467253 0.750763
vt 0.470042 0.751312
vt 0.469399 0.753101
vt 0.469928 0.750509
vt 0.463993 0.748347
vt 0.465755 0.751317
vt 0.467367 0.753944
vt 0.471307 0.756222
vt 0.464995 0.721450
vt 0.464829 0.720767
vt 0.463109 0.721688
vt 0.462921 0.720778
vt 0.464423 0.724210
vt 0.465870 0.723530
vt 0.464627 0.728363
vt 0.464023 0.722561
vt 0.465068 0.754195
vt 0.464674 0.751874
vt 0.466630 0.753166
vt 0.463722 0.724297
vt 0.465564 0.722267
vt 0.463941 0.725445
vt 0.463960 0.747882
vt 0.467324 0.729442
vt 0.468962 0.731820
vt 0.464679 0.727808
vt 0.468861 0.731404
vt 0.465570 0.729689
vt 0.468613 0.734441
vt 0.465745 0.749335
vt 0.459061 0.781790
vt 0.459779 0.802539
vt 0.459863 0.804904
vt 0.459175 0.785141
vt 0.459751 0.801754
vt 0.459456 0.793305
vt 0.459271 0.787929
vt 0.459472 0.793767
vt 0.459704 0.800426
vt 0.459315 0.789211
vt 0.458776 0.773334
vt 0.458807 0.774253
vt 0.459830 0.803985
vt 0.489859 0.811437
vt 0.490517 0.812575
vt 0.493013 0.812944
vt 0.492379 0.807917
vt 0.492492 0.807826
vt 0.490244 0.811723
vt 0.495164 0.807698
vt 0.493132 0.810665
vt 0.494834 0.807444
vt 0.490710 0.812847
vt 0.492924 0.813826
vt 0.497867 0.810534
vt 0.497474 0.813438
vt 0.460224 0.765039
vt 0.460206 0.763084
vt 0.462560 0.806586
vt 0.461784 0.810371
vt 0.461888 0.813254
vt 0.462269 0.795070
vt 0.460502 0.773340
vt 0.461874 0.784919
vt 0.461843 0.811999
vt 0.460939 0.786261
vt 0.460749 0.780687
vt 0.461206 0.794016
vt 0.461693 0.807861
vt 0.529650 0.858487
vt 0.526305 0.855364
vt 0.526229 0.858659
vt 0.525366 0.858400
vt 0.526985 0.861113
vt 0.527069 0.853356
vt 0.527847 0.860249
vt 0.525730 0.856066
vt 0.499012 0.806119
vt 0.499163 0.808047
vt 0.496863 0.805659
vt 0.504007 0.807601
vt 0.498517 0.806656
vt 0.503584 0.806797
vt 0.496949 0.812909
vt 0.499654 0.812986
vt 0.502654 0.810875
vt 0.503507 0.809186
vt 0.592808 0.531743
vt 0.588217 0.538940
vt 0.588077 0.539594
vt 0.592974 0.532605
vt 0.590410 0.541266
vt 0.605476 0.579748
vt 0.598681 0.549994
vt 0.597732 0.577716
vt 0.594369 0.536410
vt 0.588024 0.579111
vt 0.613173 0.625620
vt 0.612434 0.624340
vt 0.615779 0.621909
vt 0.615986 0.622776
vt 0.613896 0.614147
vt 0.608878 0.593579
vt 0.610395 0.618277
vt 0.610344 0.599562
vt 0.598719 0.597518
vt 0.603627 0.617616
vt 0.594111 0.535248
vt 0.585780 0.562762
vt 0.596633 0.544739
vt 0.581263 0.552818
vt 0.580933 0.565246
vt 0.599718 0.607532
vt 0.614994 0.618664
vt 0.603411 0.571398
vt 0.597228 0.579381
vt 0.580859 0.579665
vt 0.580881 0.588312
vt 0.586239 0.595329
vt 0.580956 0.598184
vt 0.581140 0.610011
vt 0.587471 0.612386
vt 0.580948 0.566627
vt 0.581636 0.543142
vt 0.601569 0.621008
vt 0.581399 0.548416
vt 0.581728 0.542511
vt 0.581694 0.543940
vt 0.584418 0.618966
vt 0.581248 0.618567
vt 0.581152 0.616172
vt 0.580876 0.599332
vt 0.585356 0.616338
vt 0.553521 0.602831
vt 0.553331 0.610777
vt 0.554511 0.593339
vt 0.555736 0.583825
vt 0.553636 0.612485
vt 0.553687 0.602899
vt 0.553489 0.615268
vt 0.459452 0.491871
vt 0.461213 0.485382
vt 0.459485 0.489932
vt 0.461044 0.486468
vt 0.459778 0.492442
vt 0.459359 0.494423
vt 0.461493 0.488154
vt 0.464758 0.479439
vt 0.558504 0.553826
vt 0.556735 0.572716
vt 0.557625 0.559726
vt 0.580730 0.586609
vt 0.597048 0.573565
vt 0.589612 0.566365
vt 0.599269 0.554858
vt 0.558814 0.552734
vt 0.580750 0.575909
vt 0.555956 0.581021
vt 0.557629 0.569465
vt 0.554660 0.591882
vt 0.558917 0.553838
vt 0.558344 0.559956
vt 0.466992 0.735881
vt 0.471686 0.736523
vt 0.471154 0.735844
vt 0.467543 0.732415
vt 0.469038 0.734202
vt 0.465755 0.732520
vt 0.464910 0.730942
vt 0.468204 0.735019
vt 0.462924 0.731477
vt 0.463785 0.734862
vt 0.464875 0.736583
vt 0.472383 0.739772
vt 0.467083 0.750025
vt 0.472789 0.754060
vt 0.465694 0.724813
vt 0.464362 0.726914
vt 0.467043 0.757209
vt 0.465055 0.731428
vt 0.469008 0.724611
vt 0.468395 0.726339
vt 0.467362 0.722205
vt 0.466053 0.734327
vt 0.468842 0.723927
vt 0.468423 0.726290
vt 0.462756 0.730786
vt 0.464215 0.732819
vt 0.466077 0.735332
vt 0.468792 0.735891
vt 0.600823 0.620456
vt 0.472127 0.728869
vt 0.609379 0.623288
vt 0.609476 0.623840
vt 0.471595 0.729530
vt 0.471495 0.728278
vt 0.469804 0.729461
vt 0.467500 0.728924
vt 0.472618 0.739591
vt 0.466378 0.738958
vt 0.464850 0.738342
vt 0.471066 0.739817
vt 0.469530 0.739997
vt 0.492385 0.780119
vt 0.495290 0.787243
vt 0.496036 0.784173
vt 0.491154 0.779002
vt 0.491169 0.779490
vt 0.484620 0.782489
vt 0.478875 0.782885
vt 0.483299 0.800267
vt 0.473516 0.783857
vt 0.474509 0.805198
vt 0.491185 0.779437
vt 0.490127 0.754648
vt 0.488711 0.757775
vt 0.487882 0.782818
vt 0.490626 0.800192
vt 0.492957 0.791536
vt 0.487404 0.808726
vt 0.486815 0.799901
vt 0.510317 0.819697
vt 0.506778 0.810402
vt 0.499845 0.801958
vt 0.483049 0.769613
vt 0.478757 0.763906
vt 0.477157 0.773097
vt 0.506264 0.803765
vt 0.485902 0.782701
vt 0.475770 0.815443
vt 0.487478 0.764879
vt 0.468327 0.763951
vt 0.468299 0.777805
vt 0.485796 0.766729
vt 0.479135 0.759770
vt 0.477878 0.735780
vt 0.477869 0.740706
vt 0.464715 0.728123
vt 0.467168 0.742654
vt 0.478074 0.743827
vt 0.478420 0.746287
vt 0.483856 0.741013
vt 0.481465 0.745903
vt 0.466678 0.742061
vt 0.480832 0.753289
vt 0.482355 0.739235
vt 0.477035 0.736540
vt 0.464418 0.730839
vt 0.479296 0.732786
vt 0.491357 0.782225
vt 0.484142 0.752815
vt 0.489788 0.774510
vt 0.492829 0.789133
vt 0.485110 0.768799
vt 0.494941 0.783847
vt 0.482346 0.751802
vt 0.480720 0.763783
vt 0.474831 0.767088
vt 0.470071 0.782960
vt 0.468285 0.775035
vt 0.473047 0.792616
vt 0.477104 0.752145
vt 0.477999 0.732596
vt 0.499948 0.786343
vt 0.517379 0.794530
vt 0.512134 0.797455
vt 0.519892 0.848057
vt 0.532451 0.843359
vt 0.517744 0.815619
vt 0.537586 0.821761
vt 0.515349 0.835842
vt 0.532581 0.835305
vt 0.502797 0.825711
vt 0.494477 0.829329
vt 0.524531 0.827249
vt 0.502495 0.837962
vt 0.485221 0.804628
vt 0.480786 0.783342
vt 0.475997 0.815446
vt 0.525700 0.806306
vt 0.508952 0.802099
vt 0.509892 0.844218
vt 0.519580 0.802811
vt 0.538081 0.809172
vt 0.541405 0.799494
vt 0.518720 0.795088
vt 0.515910 0.791821
vt 0.499703 0.786625
vt 0.533903 0.796593
vt 0.502945 0.831977
vt 0.499967 0.834792
vt 0.501863 0.837698
vt 0.463758 0.765903
vt 0.461146 0.748328
vt 0.464004 0.756081
vt 0.459637 0.752229
vt 0.459467 0.741348
vt 0.506850 0.797565
vt 0.504079 0.839782
vt 0.492286 0.773966
vt 0.486594 0.753472
vt 0.488556 0.749590
vt 0.489924 0.749166
vt 0.495942 0.780935
vt 0.496808 0.781473
vt 0.468158 0.760414
vt 0.466905 0.746627
vt 0.498506 0.789177
vt 0.488541 0.754072
vt 0.488271 0.754618
vt 0.489151 0.749958
vt 0.496350 0.781759
vt 0.492187 0.775399
vt 0.554776 0.861800
vt 0.556046 0.865722
vt 0.555695 0.855838
vt 0.555129 0.847689
vt 0.555051 0.828840
vt 0.465133 0.783452
vt 0.466504 0.813755
vt 0.478230 0.825060
vt 0.475600 0.826146
vt 0.477985 0.824249
vt 0.473849 0.825912
vt 0.470472 0.823171
vt 0.463533 0.816453
vt 0.463302 0.814164
vt 0.477415 0.822225
vt 0.467802 0.795013
vt 0.468360 0.808736
vt 0.494655 0.804683
vt 0.489056 0.816451
vt 0.497993 0.794438
vt 0.496214 0.799692
s 0
usemtl Material.001
f 60/1/1 54/2/1 58/3/1
f 154/2/2 379/1/2 420/4/2
f 54/2/3 57/5/3 58/3/3
f 152/6/4 436/7/4 23/3/4
f 344/3/5 353/5/5 362/6/5
f 43/8/6 54/9/6 61/10/6
f 527/11/7 520/8/7 371/10/7
f 485/10/8 313/9/8 209/12/8
f 258/4/9 186/12/9 487/2/9
f 54/12/10 60/4/10 61/10/10
f 408/13/11 544/14/11 440/15/11
f 319/15/12 511/14/12 349/16/12
f 257/17/13 214/13/13 204/15/13
f 369/18/14 96/19/14 158/13/14
f 62/13/15 500/17/15 460/18/15
f 538/16/16 24/20/16 441/15/16
f 493/21/17 388/22/17 389/23/17
f 409/23/18 538/22/18 441/24/18
f 461/25/19 193/21/19 275/23/19
f 297/20/20 157/16/20 83/25/20
f 472/16/21 303/21/21 365/25/21
f 503/26/22 311/27/22 488/28/22
f 314/27/23 35/29/23 288/28/23
f 59/27/24 324/26/24 315/30/24
f 304/31/25 380/30/25 352/32/25
f 201/30/26 467/31/26 327/27/26
f 311/28/27 503/29/27 153/33/27
f 11/34/28 389/35/28 543/19/28
f 216/19/29 496/18/29 543/34/29
f 395/33/30 327/35/30 402/34/30
f 54/33/31 50/36/31 53/28/31
f 539/36/32 398/33/32 401/34/32
f 54/24/1 43/37/1 45/23/1
f 151/19/33 67/35/33 462/38/33
f 32/13/34 85/19/34 361/38/34
f 52/35/35 453/33/35 526/38/35
f 257/29/36 27/27/36 13/38/36
f 472/33/37 397/29/37 246/38/37
f 42/14/38 326/13/38 182/38/38
f 245/24/39 409/22/39 441/38/39
f 475/39/40 546/24/40 447/38/40
f 183/22/41 428/21/41 88/38/41
f 487/16/42 365/14/42 258/38/42
f 79/21/43 346/16/43 221/38/43
f 218/40/44 260/41/44 91/38/44
f 269/42/45 159/40/45 442/38/45
f 40/41/46 30/39/46 427/38/46
f 522/37/47 545/24/47 285/8/47
f 447/24/48 546/39/48 336/8/48
f 422/43/49 412/42/49 424/38/49
f 375/31/50 293/44/50 266/38/50
f 47/27/51 99/31/51 384/38/51
f 267/44/52 343/45/52 488/38/52
f 525/46/53 371/43/53 450/38/53
f 398/45/54 539/46/54 306/38/54
f 150/47/55 184/34/55 406/48/55
f 92/34/56 453/18/56 52/48/56
f 463/34/57 205/47/57 385/49/57
f 53/28/31 50/36/31 51/49/31
f 306/49/58 447/36/58 501/34/58
f 50/48/1 54/18/1 48/50/1
f 96/51/59 18/15/59 533/52/59
f 54/15/1 45/20/1 46/52/1
f 54/15/1 46/51/1 48/50/1
f 149/18/60 546/17/60 494/50/60
f 374/50/61 351/17/61 500/15/61
f 517/32/62 431/53/62 451/54/62
f 34/53/63 253/32/63 331/55/63
f 469/54/64 457/56/64 490/32/64
f 268/7/65 445/6/65 97/54/65
f 57/6/66 54/56/66 56/54/66
f 196/32/67 361/30/67 188/55/67
f 83/57/68 26/26/68 270/28/68
f 482/58/69 2/28/69 185/49/69
f 346/57/70 475/28/70 474/58/70
f 123/55/71 17/30/71 144/57/71
f 494/30/72 44/26/72 149/57/72
f 395/52/73 538/20/73 201/25/73
f 257/43/74 274/5/74 27/2/74
f 480/43/75 413/46/75 338/6/75
f 352/2/76 295/42/76 304/43/76
f 208/12/77 449/40/77 75/2/77
f 2/40/78 5/42/78 430/2/78
f 83/6/79 8/5/79 199/43/79
f 210/45/80 342/44/80 39/32/80
f 132/32/81 203/44/81 2/31/81
f 289/56/82 301/45/82 145/32/82
f 199/6/83 26/46/83 83/45/83
f 481/45/84 537/56/84 271/6/84
f 387/59/85 14/23/85 267/60/85
f 539/23/86 401/37/86 474/60/86
f 508/23/87 531/59/87 98/61/87
f 97/25/88 442/61/88 159/52/88
f 358/61/89 345/25/89 381/23/89
f 416/60/90 471/37/90 334/8/90
f 321/9/91 90/41/91 97/12/91
f 455/41/92 221/40/92 346/12/92
f 18/41/93 95/9/93 529/8/93
f 285/8/94 457/11/94 502/60/94
f 349/8/95 85/39/95 536/41/95
f 74/62/96 115/62/96 116/62/96
f 115/62/97 74/62/97 114/62/97
f 116/62/98 76/62/98 74/62/98
f 322/62/99 408/62/99 440/62/99
f 76/62/100 116/62/100 77/62/100
f 435/62/101 31/62/101 502/62/101
f 337/62/102 253/62/102 1/62/102
f 74/62/103 73/62/103 113/62/103
f 514/62/104 416/62/104 334/62/104
f 114/62/105 74/62/105 113/62/105
f 80/62/106 120/62/106 121/62/106
f 502/62/107 31/62/107 87/62/107
f 121/62/108 81/62/108 80/62/108
f 425/62/109 72/62/109 15/62/109
f 275/62/110 281/62/110 404/62/110
f 118/62/111 78/62/111 77/62/111
f 12/62/112 196/62/112 188/62/112
f 80/62/113 78/62/113 118/62/113
f 80/62/114 119/62/114 120/62/114
f 119/62/115 80/62/115 118/62/115
f 65/62/116 105/62/116 106/62/116
f 105/62/117 65/62/117 63/62/117
f 106/62/118 66/62/118 65/62/118
f 328/62/119 514/62/119 87/62/119
f 442/62/120 198/62/120 356/62/120
f 103/62/121 63/62/121 81/62/121
f 216/62/122 354/62/122 496/62/122
f 530/62/123 221/62/123 362/62/123
f 63/62/124 104/62/124 105/62/124
f 104/62/125 63/62/125 103/62/125
f 70/62/126 110/62/126 111/62/126
f 110/62/127 70/62/127 109/62/127
f 111/62/126 71/62/126 70/62/126
f 252/62/128 249/62/128 377/62/128
f 71/62/129 111/62/129 73/62/129
f 108/62/130 68/62/130 66/62/130
f 264/62/131 296/62/131 342/62/131
f 70/62/132 68/62/132 108/62/132
f 274/62/133 257/62/133 204/62/133
f 109/62/134 70/62/134 108/62/134
f 296/62/135 37/62/135 146/62/135
f 315/62/136 382/62/136 372/62/136
f 406/62/137 298/62/137 198/62/137
f 117/62/138 77/62/138 116/62/138
f 498/62/139 27/62/139 274/62/139
f 342/62/140 296/62/140 146/62/140
f 113/62/141 73/62/141 112/62/141
f 381/62/142 296/62/142 41/62/142
f 281/62/143 240/62/143 88/62/143
f 84/62/144 37/62/144 202/62/144
f 194/62/145 465/62/145 189/62/145
f 306/62/146 501/62/146 276/62/146
f 358/62/147 212/62/147 364/62/147
f 102/62/148 81/62/148 121/62/148
f 296/62/149 264/62/149 41/62/149
f 118/62/150 77/62/150 117/62/150
f 144/62/151 215/62/151 123/62/151
f 132/62/152 430/62/152 228/62/152
f 357/62/153 364/62/153 33/62/153
f 18/62/154 357/62/154 521/62/154
f 191/62/155 10/62/155 432/62/155
f 91/62/156 372/62/156 218/62/156
f 470/62/157 387/62/157 243/62/157
f 107/62/158 66/62/158 106/62/158
f 240/62/159 513/62/159 486/62/159
f 371/62/160 520/62/160 450/62/160
f 103/62/161 81/62/161 102/62/161
f 303/62/162 352/62/162 365/62/162
f 450/62/163 155/62/163 525/62/163
f 18/62/164 529/62/164 533/62/164
f 182/62/165 263/62/165 483/62/165
f 6/62/166 145/62/166 515/62/166
f 353/62/167 158/62/167 534/62/167
f 112/62/168 73/62/168 111/62/168
f 259/62/169 499/62/169 224/62/169
f 266/62/170 390/62/170 375/62/170
f 108/62/171 66/62/171 107/62/171
f 520/62/172 527/62/172 216/62/172
f 342/62/173 217/62/173 264/62/173
f 327/62/174 467/62/174 264/62/174
f 139/62/175 33/62/175 41/62/175
f 41/62/176 264/62/176 467/62/176
f 250/62/177 260/62/177 428/62/177
f 126/62/178 168/62/178 167/62/178
f 278/62/179 228/62/179 438/62/179
f 423/62/180 224/62/180 396/62/180
f 133/62/181 172/62/181 171/62/181
f 524/62/182 160/62/182 211/62/182
f 459/62/183 343/62/183 243/62/183
f 505/62/184 431/62/184 517/62/184
f 332/62/185 157/62/185 432/62/185
f 522/62/186 334/62/186 545/62/186
f 99/62/187 10/62/187 361/62/187
f 141/62/188 163/62/188 162/62/188
f 334/62/189 471/62/189 545/62/189
f 474/62/190 202/62/190 346/62/190
f 126/62/191 167/62/191 166/62/191
f 97/62/192 49/62/192 268/62/192
f 400/62/193 319/62/193 24/62/193
f 262/62/194 458/62/194 535/62/194
f 159/62/195 321/62/195 97/62/195
f 189/62/196 8/62/196 47/62/196
f 142/62/197 425/62/197 15/62/197
f 372/62/198 91/62/198 518/62/198
f 137/62/199 178/62/199 177/62/199
f 327/62/200 264/62/200 217/62/200
f 141/62/201 162/62/201 181/62/201
f 212/62/202 358/62/202 381/62/202
f 445/62/203 406/62/203 198/62/203
f 425/62/204 205/62/204 247/62/204
f 11/62/205 543/62/205 496/62/205
f 520/62/206 389/62/206 450/62/206
f 206/62/207 330/62/207 349/62/207
f 133/62/208 173/62/208 172/62/208
f 494/62/209 207/62/209 79/62/209
f 389/62/210 292/62/210 256/62/210
f 137/62/211 177/62/211 176/62/211
f 506/62/212 513/62/212 240/62/212
f 284/62/213 474/62/213 478/62/213
f 472/62/214 487/62/214 187/62/214
f 130/62/215 169/62/215 168/62/215
f 511/62/216 395/62/216 402/62/216
f 128/62/217 130/62/217 168/62/217
f 467/62/218 139/62/218 41/62/218
f 128/62/219 168/62/219 126/62/219
f 171/62/220 131/62/220 133/62/220
f 212/62/221 33/62/221 364/62/221
f 131/62/222 171/62/222 130/62/222
f 130/62/223 170/62/223 169/62/223
f 170/62/224 130/62/224 171/62/224
f 122/62/225 164/62/225 163/62/225
f 164/62/226 122/62/226 165/62/226
f 324/62/227 417/62/227 382/62/227
f 185/62/228 370/62/228 4/62/228
f 122/62/229 163/62/229 141/62/229
f 525/62/230 155/62/230 476/62/230
f 485/62/231 209/62/231 390/62/231
f 126/62/232 166/62/232 125/62/232
f 125/62/233 165/62/233 122/62/233
f 165/62/234 125/62/234 166/62/234
f 140/62/235 179/62/235 178/62/235
f 179/62/236 140/62/236 180/62/236
f 138/62/237 140/62/237 178/62/237
f 537/62/238 410/62/238 156/62/238
f 138/62/239 178/62/239 137/62/239
f 386/62/240 435/62/240 502/62/240
f 331/62/241 499/62/241 34/62/241
f 141/62/242 181/62/242 140/62/242
f 213/62/243 221/62/243 455/62/243
f 180/62/244 140/62/244 181/62/244
f 134/62/245 174/62/245 173/62/245
f 491/62/246 124/62/246 386/62/246
f 133/62/247 134/62/247 173/62/247
f 399/62/248 145/62/248 307/62/248
f 124/62/249 435/62/249 386/62/249
f 176/62/250 136/62/250 137/62/250
f 233/62/251 524/62/251 25/62/251
f 136/62/252 176/62/252 134/62/252
f 134/62/253 175/62/253 174/62/253
f 175/62/254 134/62/254 176/62/254
f 428/63/255 404/64/255 88/65/255
f 158/11/256 371/64/256 534/66/256
f 499/67/257 236/65/257 34/64/257
f 221/68/258 403/65/258 79/69/258
f 508/65/259 486/67/259 531/69/259
f 530/70/260 49/66/260 251/64/260
f 426/71/261 69/72/261 541/73/261
f 404/72/262 281/71/262 88/74/262
f 100/75/263 67/73/263 62/72/263
f 513/70/264 506/73/264 87/66/264
f 203/73/265 185/75/265 2/66/265
f 49/76/266 97/77/266 147/78/266
f 298/79/267 249/78/267 356/77/267
f 424/77/268 350/76/268 533/80/268
f 525/81/269 530/80/269 534/82/269
f 98/81/270 393/77/270 340/80/270
f 207/83/271 494/78/271 546/84/271
f 463/85/272 418/68/272 3/86/272
f 421/68/273 184/69/273 150/86/273
f 418/85/274 463/86/274 1/84/274
f 546/79/275 149/84/275 336/78/275
f 330/83/276 361/84/276 85/86/276
f 526/87/277 453/74/277 192/71/277
f 423/88/278 396/89/278 286/90/278
f 455/89/279 364/91/279 213/90/279
f 304/92/280 295/90/280 376/58/280
f 281/92/281 506/58/281 240/93/281
f 87/88/282 506/90/282 328/92/282
f 250/89/283 376/80/283 295/91/283
f 235/76/284 238/78/284 237/94/284
f 377/78/285 501/7/285 252/94/285
f 478/76/286 474/94/286 401/80/286
f 326/80/287 42/95/287 316/91/287
f 350/95/288 156/80/288 533/94/288
f 407/96/289 442/97/289 439/98/289
f 84/96/290 339/99/290 37/97/290
f 227/51/291 235/98/291 229/97/291
f 226/87/292 235/98/292 227/74/292
f 465/98/293 93/51/293 189/74/293
f 235/99/292 231/100/292 229/97/292
f 423/101/294 265/93/294 244/102/294
f 231/101/295 234/92/295 232/93/295
f 442/103/296 356/102/296 336/93/296
f 502/99/297 87/102/297 522/100/297
f 325/102/298 451/103/298 507/100/298
f 313/79/299 485/77/299 535/104/299
f 439/84/300 251/79/300 49/104/300
f 186/77/301 39/81/301 146/104/301
f 532/82/302 308/105/302 35/104/302
f 156/81/303 355/82/303 533/104/303
f 332/85/304 47/84/304 8/104/304
f 351/63/305 374/106/305 460/64/305
f 183/106/306 94/70/306 443/64/306
f 194/63/307 189/65/307 273/104/307
f 498/68/308 194/85/308 27/104/308
f 540/65/309 92/68/309 52/104/309
f 360/107/310 536/108/310 348/104/310
f 508/109/311 94/107/311 88/104/311
f 317/108/312 469/110/312 230/104/312
f 154/106/313 492/63/313 537/104/313
f 295/110/314 352/106/314 303/104/314
f 24/111/315 160/109/315 441/104/315
f 13/112/316 384/113/316 257/104/316
f 544/105/317 427/112/317 30/104/317
f 249/113/318 298/114/318 325/104/318
f 350/115/319 464/111/319 413/104/319
f 511/114/320 319/115/320 400/104/320
f 223/70/292 235/106/292 226/73/292
f 378/113/321 540/101/321 394/102/321
f 231/101/322 235/113/322 234/92/322
f 215/114/323 19/113/323 370/102/323
f 243/99/324 343/115/324 470/102/324
f 494/114/325 403/102/325 44/115/325
f 144/112/326 157/92/326 297/113/326
f 544/82/327 30/89/327 312/105/327
f 150/89/328 406/82/328 145/80/328
f 529/88/329 523/105/329 422/89/329
f 184/112/330 517/105/330 298/92/330
f 247/105/331 352/88/331 380/92/331
f 362/108/332 534/107/332 530/71/332
f 313/107/333 417/87/333 209/71/333
f 487/108/334 186/71/334 339/73/334
f 347/110/335 21/73/335 148/106/335
f 14/110/336 387/108/336 470/73/336
f 2/87/337 482/107/337 12/98/337
f 335/96/338 454/111/338 49/99/338
f 344/115/339 213/99/339 364/111/339
f 364/111/340 455/96/340 358/98/340
f 428/109/341 183/98/341 250/107/341
f 506/109/342 491/111/342 328/98/342
f 241/116/343 235/69/343 242/117/343
f 399/69/344 525/116/344 476/86/344
f 32/67/345 196/117/345 309/69/345
f 367/64/346 366/11/346 368/117/346
f 235/67/292 223/64/292 242/117/292
f 320/83/347 503/118/347 488/78/347
f 158/7/348 527/78/348 371/118/348
f 238/83/343 235/86/343 239/118/343
f 161/119/349 532/86/349 35/116/349
f 235/86/291 241/119/291 239/118/291
f 427/120/350 190/121/350 40/122/350
f 204/121/351 214/120/351 39/123/351
f 59/123/352 326/120/352 316/124/352
f 510/125/353 191/126/353 17/127/353
f 516/121/354 355/123/354 378/128/354
f 430/129/355 459/130/355 228/124/355
f 481/129/356 271/131/356 324/132/356
f 19/131/357 297/120/357 363/122/357
f 326/129/358 518/133/358 246/130/358
f 469/130/359 386/133/359 457/134/359
f 282/133/360 75/129/360 449/132/360
f 337/135/361 433/126/361 473/125/361
f 23/136/362 528/137/362 152/138/362
f 146/138/363 39/139/363 342/136/363
f 17/137/364 432/136/364 157/140/364
f 194/141/365 273/140/365 13/142/365
f 379/140/366 154/141/366 316/137/366
f 248/143/367 155/144/367 388/145/367
f 153/137/368 503/146/368 446/147/368
f 433/147/369 385/138/369 286/137/369
f 386/146/370 502/137/370 457/141/370
f 540/148/371 378/143/371 92/145/371
f 183/142/372 15/143/372 279/148/372
f 370/120/373 278/129/373 320/124/373
f 530/149/374 251/150/374 221/151/374
f 2/150/375 12/149/375 5/152/375
f 251/152/376 149/149/376 221/126/376
f 444/149/377 397/153/377 478/154/377
f 62/150/378 151/152/378 500/155/378
f 219/150/379 257/156/379 384/151/379
f 21/157/380 319/158/380 349/128/380
f 284/158/381 84/156/381 202/159/381
f 393/150/382 152/160/382 528/156/382
f 295/156/383 260/160/383 250/159/383
f 189/160/384 47/150/384 273/155/384
f 263/153/385 182/149/385 401/151/385
f 317/153/386 328/123/386 469/124/386
f 275/123/387 197/153/387 281/157/387
f 197/157/388 506/153/388 281/151/388
f 413/129/389 272/120/389 495/131/389
f 402/123/390 217/157/390 36/128/390
f 300/154/391 293/161/391 333/126/391
f 373/149/392 218/154/392 458/126/392
f 412/154/393 148/153/393 497/124/393
f 9/154/394 360/130/394 348/161/394
f 377/161/395 249/130/395 127/134/395
f 538/130/396 190/154/396 201/124/396
f 139/162/397 95/163/397 521/164/397
f 524/163/398 441/162/398 160/165/398
f 525/162/399 399/164/399 280/166/399
f 452/167/400 75/166/400 437/168/400
f 286/167/401 55/162/401 265/166/401
f 148/169/402 412/165/402 427/162/402
f 279/164/403 72/170/403 376/171/403
f 18/164/404 521/163/404 95/170/404
f 1/166/405 199/164/405 93/171/405
f 149/168/406 251/166/406 82/172/406
f 528/166/407 23/171/407 277/172/407
f 36/173/408 210/167/408 29/168/408
f 397/174/409 84/175/409 478/176/409
f 319/176/410 160/175/410 24/177/410
f 534/174/411 371/176/411 525/178/411
f 405/179/412 480/178/412 156/180/412
f 245/179/413 489/174/413 409/178/413
f 405/177/414 350/175/414 413/181/414
f 465/182/415 418/183/415 93/184/415
f 354/183/416 52/170/416 195/184/416
f 443/181/417 94/185/417 340/177/417
f 492/186/418 355/181/418 410/175/418
f 462/178/419 67/176/419 448/187/419
f 537/170/420 481/163/420 316/188/420
f 444/189/421 246/140/421 397/136/421
f 187/136/422 84/190/422 397/189/422
f 191/140/423 188/189/423 10/191/423
f 519/189/424 385/192/424 504/193/424
f 524/191/425 233/189/425 151/193/425
f 208/190/426 75/136/426 366/139/426
f 329/142/427 485/191/427 266/143/427
f 6/140/428 289/191/428 145/142/428
f 93/191/429 8/193/429 189/143/429
f 517/193/430 195/194/430 377/144/430
f 21/143/431 536/193/431 360/144/431
f 472/193/432 365/192/432 487/194/432
f 314/171/433 528/183/433 277/182/433
f 448/171/434 22/170/434 25/183/434
f 92/172/435 378/171/435 420/182/435
f 12/188/436 188/163/436 5/195/436
f 429/165/437 314/195/437 288/163/437
f 373/170/438 262/188/438 428/184/438
f 488/142/439 343/148/439 459/146/439
f 37/146/440 296/141/440 345/142/440
f 18/148/441 369/147/441 357/146/441
f 98/195/442 531/184/442 393/188/442
f 272/148/443 208/145/443 366/147/443
f 456/196/444 270/197/444 26/198/444
f 329/199/445 266/200/445 208/201/445
f 424/196/446 412/202/446 200/197/446
f 504/202/447 340/203/447 393/204/447
f 196/202/448 16/204/448 309/197/448
f 501/201/449 377/205/449 526/199/449
f 283/206/450 437/196/450 300/199/450
f 326/199/451 444/196/451 182/198/451
f 298/207/452 356/206/452 198/199/452
f 442/200/453 251/199/453 439/208/453
f 507/199/454 484/198/454 325/208/454
f 7/209/455 91/210/455 411/211/455
f 460/209/456 100/212/456 62/213/456
f 143/212/457 526/209/457 294/211/457
f 153/213/458 359/214/458 387/209/458
f 369/213/459 158/215/459 357/216/459
f 383/214/460 471/213/460 416/216/460
f 348/211/461 309/217/461 308/212/461
f 485/218/462 28/214/462 535/219/462
f 274/210/463 225/209/463 498/214/463
f 4/214/464 19/216/464 363/219/464
f 299/216/465 436/220/465 152/221/465
f 385/219/466 519/216/466 286/221/466
f 64/207/467 269/222/467 442/223/467
f 222/204/468 299/224/468 486/225/468
f 346/197/469 358/204/469 455/225/469
f 310/198/470 391/197/470 249/226/470
f 47/208/471 384/198/471 13/226/471
f 509/197/472 505/225/472 517/226/472
f 7/227/473 246/224/473 518/204/473
f 23/228/474 435/229/474 305/202/474
f 357/202/475 33/196/475 521/228/475
f 517/203/476 325/202/476 298/229/476
f 139/204/477 201/203/477 529/227/477
f 96/229/478 527/227/478 158/203/478
f 489/226/479 245/230/479 462/208/479
f 277/205/480 305/231/480 101/232/480
f 443/199/481 15/205/481 183/232/481
f 160/207/482 347/199/482 408/232/482
f 145/206/483 301/207/483 255/223/483
f 500/232/484 233/222/484 22/207/484
f 1/201/485 253/233/485 291/231/485
f 483/230/486 379/234/486 42/200/486
f 399/200/487 515/208/487 145/230/487
f 94/201/488 98/200/488 340/233/488
f 190/205/489 523/201/489 529/231/489
f 221/200/490 44/234/490 403/233/490
f 518/235/491 91/236/491 7/132/491
f 372/131/492 313/235/492 458/132/492
f 149/236/493 44/235/493 221/237/493
f 361/158/494 10/238/494 188/239/494
f 196/132/495 482/236/495 16/240/495
f 423/235/496 244/241/496 259/237/496
f 3/121/497 418/241/497 225/122/497
f 157/241/498 332/239/498 83/237/498
f 346/239/499 345/121/499 358/128/499
f 285/241/500 502/131/500 522/122/500
f 212/131/501 381/241/501 41/235/501
f 443/238/502 142/158/502 15/159/502
f 228/160/503 459/242/503 243/159/503
f 15/242/504 72/160/504 279/240/504
f 99/240/505 47/160/505 432/155/505
f 11/156/506 496/157/506 542/151/506
f 19/157/507 144/156/507 297/158/507
f 270/236/508 456/242/508 129/240/508
f 314/158/509 161/239/509 35/128/509
f 296/239/510 381/238/510 345/237/510
f 395/236/511 400/238/511 538/242/511
f 271/242/512 537/238/512 156/159/512
f 527/238/513 394/236/513 354/237/513
f 453/239/514 92/241/514 420/121/514
f 497/215/515 148/243/515 360/244/515
f 139/245/516 467/243/516 201/215/516
f 143/243/517 501/246/517 526/244/517
f 4/210/518 363/214/518 185/218/518
f 546/211/519 475/210/519 207/218/519
f 293/213/520 282/245/520 449/215/520
f 123/215/521 510/244/521 17/220/521
f 487/216/522 339/215/522 187/220/522
f 501/217/523 447/247/523 336/245/523
f 474/245/524 284/213/524 202/212/524
f 129/245/525 479/212/525 482/217/525
f 31/218/526 435/219/526 23/211/526
f 378/246/527 355/243/527 492/248/527
f 526/243/528 192/245/528 263/248/528
f 204/249/529 186/211/529 258/219/529
f 464/250/530 200/249/530 497/221/530
f 149/219/531 82/221/531 336/249/531
f 28/248/532 9/245/532 535/247/532
f 240/251/533 486/250/533 508/220/533
f 294/250/534 276/221/534 143/220/534
f 421/251/535 255/220/535 542/244/535
f 219/246/536 214/252/536 257/244/536
f 161/252/537 314/251/537 277/244/537
f 336/253/538 249/254/538 252/255/538
f 429/256/539 393/253/539 528/255/539
f 404/257/540 428/256/540 461/255/540
f 299/258/541 222/259/541 31/260/541
f 520/261/542 216/256/542 543/257/542
f 477/260/543 219/259/543 99/262/543
f 215/263/544 370/264/544 123/265/544
f 341/265/545 338/266/545 368/263/545
f 135/267/546 322/265/546 524/264/546
f 236/268/547 86/267/547 34/269/547
f 267/267/548 488/264/548 311/269/548
f 510/270/549 5/271/549 191/272/549
f 16/259/550 479/261/550 434/257/550
f 456/253/551 429/273/551 288/254/551
f 193/259/552 101/257/552 275/274/552
f 10/273/553 99/275/553 432/276/553
f 306/276/554 302/275/554 398/277/554
f 394/278/555 516/268/555 378/269/555
f 202/270/556 345/260/556 346/271/556
f 363/279/557 270/270/557 129/272/557
f 1/270/558 463/258/558 337/260/558
f 345/280/559 202/268/559 37/281/559
f 527/268/560 96/278/560 394/281/560
f 330/266/561 85/279/561 349/263/561
f 539/282/562 475/283/562 447/262/562
f 469/282/563 490/262/563 471/274/563
f 182/284/564 478/285/564 401/286/564
f 75/283/565 452/285/565 366/284/565
f 300/286/566 415/287/566 283/284/566
f 147/274/567 97/288/567 90/282/567
f 442/255/568 82/289/568 251/257/568
f 267/278/569 470/269/569 343/290/569
f 309/289/570 348/291/570 32/257/570
f 33/274/571 212/257/571 41/291/571
f 433/291/572 286/288/572 396/274/572
f 511/284/573 206/262/573 349/283/573
f 213/292/574 344/289/574 362/255/574
f 418/293/575 465/292/575 225/255/575
f 263/276/576 302/254/576 526/273/576
f 328/259/577 491/274/577 386/262/577
f 261/276/578 272/293/578 413/254/578
f 273/293/579 47/255/579 13/254/579
f 504/294/580 385/287/580 340/286/580
f 89/286/581 310/295/581 249/294/581
f 407/294/582 64/295/582 442/296/582
f 28/296/583 329/297/583 261/298/583
f 422/296/584 523/298/584 427/294/584
f 354/286/585 540/285/585 52/299/585
f 275/300/586 101/286/586 197/299/586
f 9/299/587 28/285/587 360/301/587
f 420/301/588 378/283/588 154/302/588
f 11/285/589 290/283/589 292/301/589
f 31/295/590 513/286/590 87/300/590
f 329/297/591 208/296/591 272/303/591
f 471/304/592 383/297/592 230/303/592
f 276/303/593 294/296/593 302/305/593
f 254/305/594 49/295/594 147/300/594
f 359/296/595 243/295/595 387/305/595
f 387/283/596 311/282/596 153/302/596
f 38/306/597 322/307/597 440/308/597
f 464/307/598 424/306/598 200/309/598
f 274/309/599 204/306/599 258/310/599
f 408/309/600 211/311/600 160/312/600
f 210/307/601 214/309/601 219/313/601
f 88/291/602 240/289/602 508/314/602
f 436/282/603 299/288/603 31/315/603
f 438/302/604 243/282/604 359/315/604
f 521/315/605 33/288/605 139/316/605
f 484/316/606 287/291/606 325/314/606
f 528/288/607 314/291/607 429/316/607
f 320/317/608 278/297/608 503/304/608
f 442/318/609 336/280/609 82/281/609
f 200/319/610 412/320/610 497/318/610
f 456/318/611 26/320/611 429/280/611
f 252/314/612 501/289/612 336/321/612
f 20/317/613 262/322/613 535/319/613
f 439/317/614 49/319/614 454/318/614
f 249/275/615 325/319/615 287/277/615
f 515/320/616 399/319/616 476/275/616
f 433/319/617 337/322/617 385/277/617
f 360/281/618 28/297/618 261/317/618
f 292/317/619 389/318/619 11/281/619
f 183/289/620 88/292/620 94/321/620
f 448/277/621 100/322/621 374/323/621
f 380/324/622 425/277/622 247/323/622
f 480/323/623 405/322/623 413/325/623
f 142/325/624 385/317/624 205/304/624
f 415/322/625 426/317/625 283/325/625
f 38/276/626 440/277/626 462/324/626
f 148/292/627 544/293/627 347/326/627
f 72/321/628 304/292/628 376/326/628
f 479/326/629 456/293/629 288/327/629
f 197/327/630 305/276/630 491/324/630
f 486/293/631 299/276/631 531/327/631
f 463/328/632 3/329/632 247/139/632
f 357/328/633 344/139/633 364/138/633
f 203/139/634 132/329/634 228/190/634
f 230/329/635 416/330/635 317/192/635
f 266/330/636 293/194/636 449/192/636
f 435/328/637 124/138/637 305/147/637
f 512/331/638 417/332/638 271/333/638
f 205/334/639 425/331/639 142/333/639
f 96/333/640 355/332/640 516/335/640
f 421/336/641 496/337/641 184/338/641
f 95/332/642 139/339/642 529/335/642
f 245/340/643 524/184/643 151/195/643
f 464/341/644 350/162/644 424/167/644
f 373/169/645 260/162/645 218/341/645
f 529/173/646 422/341/646 533/167/646
f 478/342/647 182/343/647 444/181/647
f 272/184/648 366/344/648 367/182/648
f 377/340/649 195/165/649 526/169/649
f 415/344/650 414/173/650 69/172/650
f 161/172/651 193/182/651 532/344/651
f 39/340/652 186/195/652 204/165/652
f 192/341/653 420/340/653 483/169/653
f 205/168/654 463/172/654 247/173/654
f 72/345/655 380/331/655 304/334/655
f 1/346/656 26/179/656 199/347/656
f 544/346/657 148/348/657 427/179/657
f 458/177/658 313/185/658 535/176/658
f 339/338/659 84/349/659 187/336/659
f 250/187/660 183/176/660 376/185/660
f 339/348/661 186/174/661 146/179/661
f 96/186/662 516/350/662 394/351/662
f 123/347/663 370/179/663 320/180/663
f 211/350/664 408/186/664 322/348/664
f 448/348/665 38/175/665 462/174/665
f 348/175/666 85/348/666 32/186/666
f 129/336/667 185/352/667 363/337/667
f 340/353/668 385/333/668 142/354/668
f 25/334/669 38/333/669 448/353/669
f 305/333/670 277/335/670 23/354/670
f 444/331/671 326/345/671 246/349/671
f 411/349/672 295/355/672 303/331/672
f 151/352/673 233/334/673 500/353/673
f 185/353/674 129/354/674 482/337/674
f 265/352/675 86/353/675 244/337/675
f 219/345/676 29/336/676 210/349/676
f 93/345/677 199/334/677 8/352/677
f 387/336/678 267/345/678 311/352/678
f 31/356/679 222/272/679 513/287/679
f 36/272/680 217/271/680 342/287/680
f 441/294/681 524/356/681 245/287/681
f 220/290/682 389/298/682 256/278/682
f 519/290/683 504/356/683 55/294/683
f 489/271/684 312/284/684 40/287/684
f 412/350/685 422/346/685 427/357/685
f 201/192/686 327/190/686 395/329/686
f 305/350/687 124/348/687 491/346/687
f 293/284/688 323/260/688 333/262/688
f 101/271/689 305/260/689 197/284/689
f 306/298/690 539/290/690 447/294/690
f 1/358/691 93/359/691 418/356/691
f 245/358/692 151/356/692 462/290/692
f 389/264/693 520/359/693 543/358/693
f 370/269/694 203/358/694 278/290/694
f 20/358/695 348/269/695 308/264/695
f 409/359/696 40/264/696 190/263/696
f 430/281/697 5/278/697 510/297/697
f 325/278/698 517/298/698 451/297/698
f 352/359/699 247/272/699 365/356/699
f 531/359/700 152/263/700 393/279/700
f 297/272/701 83/359/701 270/279/701
f 331/189/702 253/190/702 473/192/702
f 367/347/703 368/360/703 338/346/703
f 545/361/704 457/351/704 285/350/704
f 5/362/705 188/360/705 191/347/705
f 490/360/706 545/357/706 471/346/706
f 448/357/707 67/361/707 100/350/707
f 317/363/708 416/362/708 514/347/708
f 21/180/709 347/178/709 319/187/709
f 348/181/710 536/343/710 85/185/710
f 522/342/711 87/186/711 514/351/711
f 334/180/712 522/363/712 514/347/712
f 400/342/713 24/181/713 538/186/713
f 84/343/714 284/187/714 478/185/714
f 313/332/715 372/331/715 382/364/715
f 480/364/716 512/331/716 271/355/716
f 271/339/717 156/332/717 480/364/717
f 512/365/718 341/366/718 375/337/718
f 146/366/719 37/338/719 339/337/719
f 307/339/720 406/367/720 445/335/720
f 504/365/721 429/337/721 26/354/721
f 184/343/722 496/180/722 517/187/722
f 55/368/723 291/365/723 265/354/723
f 20/367/724 535/368/724 9/335/724
f 272/368/725 261/354/725 329/335/725
f 430/369/726 510/370/726 459/371/726
f 228/372/727 243/369/727 438/371/727
f 405/373/728 156/372/728 350/371/728
f 27/374/729 194/375/729 13/376/729
f 389/375/730 220/377/730 493/378/730
f 460/370/731 374/369/731 100/379/731
f 472/379/732 187/369/732 397/380/732
f 363/380/733 297/381/733 270/379/733
f 318/382/734 426/383/734 415/384/734
f 195/379/735 496/384/735 354/370/735
f 143/384/736 276/379/736 501/382/736
f 479/375/737 16/378/737 482/376/737
f 499/385/738 331/386/738 396/376/738
f 210/374/739 36/376/739 342/386/739
f 291/387/740 253/388/740 34/389/740
f 255/390/741 421/391/741 145/392/741
f 19/393/742 4/389/742 370/388/742
f 393/386/743 429/394/743 504/374/743
f 457/378/744 545/395/744 490/385/744
f 17/376/745 191/378/745 432/385/745
f 332/383/746 8/382/746 83/394/746
f 417/385/747 313/383/747 382/386/747
f 198/394/748 442/386/748 97/383/748
f 468/396/749 333/382/749 392/379/749
f 333/392/750 414/391/750 415/397/750
f 483/398/751 263/392/751 192/397/751
f 377/344/752 127/397/752 517/391/752
f 132/390/753 2/374/753 430/399/753
f 390/391/754 209/400/754 512/344/754
f 22/377/755 448/392/755 374/398/755
f 423/401/756 259/402/756 224/403/756
f 495/404/757 338/405/757 413/406/757
f 468/407/758 541/328/758 414/408/758
f 356/408/759 249/409/759 336/410/759
f 541/328/760 69/409/760 414/408/760
f 379/374/761 483/394/761 420/399/761
f 298/410/762 406/396/762 184/381/762
f 277/408/763 193/410/763 161/381/763
f 517/407/764 127/408/764 509/380/764
f 324/381/765 271/396/765 417/379/765
f 55/408/766 1/381/766 291/380/766
f 42/399/767 379/396/767 316/410/767
f 510/399/768 320/400/768 459/391/768
f 183/391/769 279/390/769 376/399/769
f 414/399/770 333/394/770 468/396/770
f 29/400/771 477/399/771 206/410/771
f 404/394/772 461/382/772 275/396/772
f 433/366/773 396/365/773 331/404/773
f 94/411/774 508/412/774 98/330/774
f 465/368/775 498/367/775 225/405/775
f 374/404/776 500/365/776 22/368/776
f 368/405/777 323/404/777 341/368/777
f 326/329/778 59/328/778 518/411/778
f 445/413/779 268/194/779 280/330/779
f 341/145/780 323/144/780 375/413/780
f 388/413/781 450/144/781 389/194/781
f 260/330/782 373/329/782 428/411/782
f 293/330/783 300/412/783 437/413/783
f 426/405/784 318/339/784 69/364/784
f 353/342/785 534/401/785 362/403/785
f 432/351/786 47/414/786 332/401/786
f 438/343/787 153/342/787 446/403/787
f 203/341/788 228/410/788 278/409/788
f 348/340/789 20/341/789 9/409/789
f 280/342/790 307/351/790 445/401/790
f 419/364/791 193/402/791 461/405/791
f 287/405/792 89/367/792 249/339/792
f 40/364/793 409/355/793 489/403/793
f 307/403/794 145/402/794 406/364/794
f 210/355/795 39/349/795 214/403/795
f 420/413/796 192/412/796 453/362/796
f 452/415/797 466/416/797 392/417/797
f 193/418/798 419/419/798 532/415/798
f 449/417/799 208/420/799 266/415/799
f 315/421/800 372/419/800 518/422/800
f 315/418/801 324/415/801 382/420/801
f 315/416/802 518/415/802 59/419/802
f 531/392/803 299/375/803 152/374/803
f 244/374/804 86/390/804 259/392/804
f 254/392/805 335/377/805 49/375/805
f 1/423/806 55/424/806 26/425/806
f 7/423/807 472/426/807 246/424/807
f 207/422/808 475/427/808 346/421/808
f 29/360/809 206/362/809 36/428/809
f 25/357/810 22/360/810 233/428/810
f 253/362/811 337/412/811 473/428/811
f 440/363/812 312/180/812 489/413/812
f 329/362/813 28/363/813 485/413/813
f 135/357/814 524/428/814 211/414/814
f 541/427/815 466/422/815 426/423/815
f 463/406/816 385/421/816 337/427/816
f 203/429/817 370/430/817 185/431/817
f 300/361/818 333/357/818 415/414/818
f 328/351/819 386/361/819 469/414/819
f 338/240/820 495/432/820 367/132/820
f 35/433/821 434/132/821 288/432/821
f 18/388/822 96/387/822 369/434/822
f 440/393/823 544/388/823 312/434/823
f 213/387/824 362/435/824 221/434/824
f 21/436/825 360/433/825 148/432/825
f 398/135/826 302/437/826 263/438/826
f 20/438/827 532/439/827 419/135/827
f 306/387/828 276/438/828 302/437/828
f 410/433/829 355/436/829 156/440/829
f 293/437/830 375/435/830 323/387/830
f 219/135/831 477/439/831 29/441/831
f 263/418/832 401/442/832 398/443/832
f 72/443/833 425/419/833 380/418/833
f 224/426/834 499/443/834 396/442/834
f 49/328/835 280/407/835 268/411/835
f 25/442/836 524/444/836 322/426/836
f 452/443/837 437/426/837 466/423/837
f 366/445/838 452/446/838 392/431/838
f 519/135/839 55/441/839 286/447/839
f 154/445/840 378/431/840 492/430/840
f 19/423/841 215/422/841 144/443/841
f 532/422/842 20/419/842 308/443/842
f 465/448/843 194/449/843 498/450/843
f 144/451/844 17/452/844 157/453/844
f 512/454/845 480/452/845 341/451/845
f 30/455/846 40/436/846 312/432/846
f 182/456/847 483/432/847 42/457/847
f 496/432/848 421/456/848 542/455/848
f 323/450/849 368/454/849 392/451/849
f 225/458/850 274/459/850 258/460/850
f 466/459/851 283/458/851 426/461/851
f 525/459/852 49/461/852 530/462/852
f 219/430/853 384/452/853 99/454/853
f 368/454/854 366/445/854 392/430/854
f 59/432/855 316/240/855 481/457/855
f 330/463/856 206/448/856 477/451/856
f 390/453/857 512/463/857 375/451/857
f 265/448/858 291/434/858 86/449/858
f 294/451/859 526/448/859 302/450/859
f 434/434/860 479/435/860 288/449/860
f 209/393/861 417/434/861 512/448/861
f 353/447/862 357/464/862 158/155/862
f 3/155/863 258/135/863 365/447/863
f 75/240/864 282/155/864 293/464/864
f 529/463/865 201/393/865 190/448/865
f 322/464/866 135/457/866 211/240/866
f 394/465/867 540/417/867 354/466/867
f 468/467/868 392/465/868 466/466/868
f 308/401/869 309/467/869 35/402/869
f 97/419/870 445/421/870 198/416/870
f 468/467/871 466/466/871 541/402/871
f 309/468/872 16/467/872 434/401/872
f 410/417/873 537/465/873 492/469/873
f 357/469/874 353/420/874 344/417/874
f 196/470/875 32/469/875 361/465/875
f 153/414/876 438/468/876 359/401/876
f 510/468/877 123/465/877 320/467/877
f 471/417/878 230/416/878 469/466/878
f 319/427/879 347/471/879 160/472/879
f 31/460/880 23/472/880 436/471/880
f 261/472/881 497/406/881 360/427/881
f 488/406/882 459/472/882 320/404/882
f 317/460/883 514/404/883 328/472/883
f 422/471/884 424/427/884 533/423/884
f 495/406/885 272/405/885 367/416/885
f 222/416/886 486/421/886 513/406/886
f 472/466/887 7/416/887 303/402/887
f 361/423/888 330/425/888 99/471/888
f 154/416/889 537/405/889 316/402/889
f 247/420/890 3/469/890 365/473/890
f 408/474/891 347/475/891 544/412/891
f 461/411/892 262/474/892 20/412/892
f 340/428/893 142/412/893 443/476/893
f 278/414/894 446/428/894 503/468/894
f 525/412/895 280/475/895 49/476/895
f 440/372/896 489/373/896 462/475/896
f 327/369/897 217/372/897 402/474/897
f 20/380/898 419/369/898 461/474/898
f 395/407/899 511/380/899 400/411/899
f 411/474/900 91/372/900 260/475/900
f 145/380/901 421/474/901 150/411/901
f 249/428/902 391/476/902 127/468/902
f 539/371/903 474/477/903 475/478/903
f 322/373/904 38/371/904 25/478/904
f 523/478/905 190/477/905 427/465/905
f 190/473/906 538/418/906 409/420/906
f 536/477/907 21/470/907 349/465/907
f 266/429/908 485/453/908 390/452/908
f 286/475/909 265/373/909 423/478/909
f 261/476/910 464/475/910 497/478/910
f 79/468/911 207/476/911 346/478/911
f 338/452/912 341/430/912 480/429/912
f 151/478/913 62/465/913 67/468/913
f 388/479/914 155/480/914 450/134/914
f 433/481/915 331/479/915 473/132/915
f 438/134/916 446/133/916 278/479/916
f 36/127/917 511/134/917 402/480/917
f 411/133/918 260/132/918 295/479/918
f 517/132/919 496/433/919 195/482/919
f 526/161/920 195/134/920 52/127/920
f 464/440/921 261/483/921 413/433/921
f 499/127/922 259/126/922 236/161/922
f 527/482/923 354/481/923 216/132/923
f 293/482/924 437/433/924 75/483/924
f 101/425/925 193/484/925 277/458/925
f 479/485/926 129/486/926 456/487/926
f 333/485/927 323/488/927 392/486/927
f 34/489/928 86/490/928 291/491/928
f 411/487/929 303/489/929 7/485/929
f 434/490/930 35/492/930 309/491/930
f 196/493/931 12/488/931 482/485/931
f 458/471/932 218/458/932 372/460/932
f 283/458/933 466/471/933 437/425/933
f 197/494/934 491/444/934 506/495/934
f 504/485/935 26/495/935 55/493/935
f 3/444/936 225/493/936 258/495/936
f 458/483/937 262/440/937 373/445/937
f 262/418/938 461/496/938 428/442/938
f 355/217/939 96/211/939 533/442/939
f 403/496/940 494/217/940 79/442/940
f 481/135/941 324/125/941 59/437/941
f 259/211/942 86/497/942 236/442/942
f 511/498/943 36/446/943 206/248/943
f 330/217/944 477/496/944 99/247/944
f 280/499/945 399/496/945 307/418/945
