# Blender 5.1.1
# www.blender.org
mtllib low_poly_wolf_animated0022.mtl
o Wolf
v -0.164597 3.212700 -2.196546
v -0.513392 1.365342 -1.504445
v 0.014469 3.635368 -0.889387
v -0.492070 1.445967 -1.939654
v -0.707723 1.574281 -1.318548
v 0.139223 3.076458 3.141456
v 0.572529 3.337777 0.363551
v -0.551072 2.796550 -1.952860
v 0.236164 1.942359 -0.334501
v -0.774403 2.371082 -1.093101
v 0.313160 3.108308 2.867605
v -0.571847 1.743168 -1.137878
v -0.614802 3.150568 -1.091232
v -0.853172 0.130943 -1.485117
v 0.682406 2.991646 -1.773842
v -0.297390 2.275640 -1.152878
v -0.849381 2.218287 -1.486215
v -0.104108 2.402870 1.676283
v -0.561049 1.461390 -1.987529
v 0.324861 2.335855 -0.821156
v -0.139569 1.730244 0.285521
v -0.413006 0.006222 1.781734
v 0.454699 1.641216 -1.655966
v -0.577111 1.474241 0.571682
v -0.263716 0.020339 1.546677
v -0.115230 2.746633 -2.161809
v -0.482469 3.240800 -1.212909
v 0.335037 1.740031 0.269031
v -0.539050 2.598385 -0.255633
v -0.385156 1.479557 0.917439
v 0.520570 1.226807 -2.175098
v -0.420360 2.554569 -0.982379
v -0.475891 2.899951 1.431310
v -0.158826 1.748316 -2.799791
v 0.137649 2.320741 -1.308907
v -0.568971 2.443221 0.167327
v -0.226992 3.644424 1.081985
v -0.259526 0.286548 1.541760
v -0.435237 3.316952 0.398365
v -0.479326 1.498976 0.980972
v -0.448902 3.025963 1.251336
v 0.615460 3.393715 1.218580
v 0.454034 3.733443 2.790405
v -0.383319 4.212676 2.337990
v 0.433218 3.759903 2.807761
v 0.417281 3.766157 2.816391
v -0.790658 2.844539 -1.500789
v 0.381994 3.761719 2.829416
v -0.120344 3.559030 2.765433
v 0.353502 3.737011 2.832908
v 0.345435 3.719787 2.830498
v 0.655235 3.422210 2.253841
v 0.345528 3.683858 2.818509
v 0.353680 3.668672 2.810106
v -0.055676 2.759549 -2.233405
v 0.382282 3.651145 2.792523
v 0.399933 3.650518 2.785063
v 0.417569 3.655582 2.779497
v 0.652799 3.157926 1.050168
v 0.446060 3.680290 2.776005
v 0.454127 3.697518 2.778416
v -0.586120 0.159396 1.762659
v 0.454034 3.744954 2.785402
v -0.093653 3.719541 2.827354
v 0.433218 3.771605 2.802348
v 0.417281 3.777979 2.810876
v -0.477448 0.215272 1.832285
v 0.381994 3.773779 2.823951
v 0.940095 0.069137 1.763595
v 0.353502 3.749299 2.827774
v 0.345435 3.732177 2.825595
v 0.489178 3.184371 -1.578196
v 0.345528 3.696312 2.814126
v 0.353680 3.681038 2.805970
v 0.645063 0.465917 1.286608
v 0.382282 3.663170 2.788716
v 0.399933 3.662361 2.781291
v 0.417569 3.667258 2.775669
v -0.413773 3.958015 2.190152
v 0.446060 3.691766 2.771816
v 0.454127 3.708960 2.773966
v -0.153232 4.007477 2.689832
v -0.452637 2.576857 -2.003847
v -0.115845 3.740341 0.953003
v -0.260431 2.340024 -0.794660
v -0.120529 1.526984 -2.731542
v 0.666298 0.308205 -1.931162
v 0.830145 2.627565 -1.399293
v 0.393858 3.719728 2.804552
v -0.062863 3.691954 2.794784
v 0.715767 3.171806 0.292581
v 0.510482 2.895148 1.867428
v -0.475186 3.008265 -2.023107
v 0.696580 2.684906 -1.840043
v -0.533867 2.419780 1.441166
v 0.139294 2.446286 1.879430
v 0.035033 3.657146 2.884318
v 0.446216 2.559210 -2.010344
v -0.765823 2.886721 -1.161709
v -0.455367 0.054693 1.933477
v 0.571863 1.743277 -1.137691
v 0.471159 3.740304 2.737486
v 0.466973 3.766347 2.747435
v 0.454962 3.788828 2.759477
v 0.436303 3.805594 2.772418
v 0.412821 3.814995 2.784978
v 0.386815 3.816115 2.795941
v 0.360832 3.808822 2.804234
v 0.337413 3.793872 2.809032
v 0.318852 3.772723 2.809866
v 0.306966 3.747454 2.806665
v 0.302917 3.720528 2.799744
v 0.307104 3.694531 2.789795
v 0.319114 3.672015 2.777792
v 0.337774 3.655194 2.764894
v 0.361256 3.645736 2.752353
v 0.387261 3.644552 2.741405
v 0.413245 3.651755 2.733126
v 0.436664 3.666708 2.728312
v 0.455224 3.687901 2.727440
v 0.467110 3.713272 2.730596
v -0.137663 3.736978 2.807418
v -0.637647 0.944583 -2.038397
v 0.558560 0.970560 -1.796993
v -0.116415 3.764261 2.822753
v -0.100073 3.771115 2.830058
v 0.441143 3.719307 2.782328
v -0.063795 3.767972 2.840439
v -0.359956 2.157759 -1.633249
v -0.034390 3.744339 2.842103
v -0.026011 3.727458 2.839320
v -0.558560 0.970560 -1.796994
v -0.025917 3.691479 2.827919
v -0.034213 3.675968 2.820393
v -0.387181 0.446608 1.274453
v -0.063507 3.657263 2.805327
v -0.081639 3.655938 2.799247
v -0.099785 3.660320 2.794964
v -0.639207 2.624658 1.321142
v -0.129189 3.684000 2.793265
v -0.137569 3.700963 2.796017
v 0.470330 3.009877 -2.029854
v 0.650182 4.227310 2.299322
v -0.686755 1.475420 -1.878966
v 0.185598 3.089358 3.276493
v -0.336847 3.567093 0.881928
v -0.079460 3.689240 2.790264
v -0.169279 1.751833 0.666252
v -0.199273 4.065598 2.557575
v 0.261340 3.254009 3.332546
v -0.578242 0.144351 1.598508
v 0.472959 2.111046 -1.882621
v -0.587111 0.088022 -1.473405
v 0.705660 2.916682 1.387136
v 0.027344 3.103998 2.878295
v 0.791992 2.262484 1.291747
v -0.751112 2.359489 -1.712975
v -0.018444 2.741145 2.150207
v -0.062916 3.703044 2.814872
v -0.457598 1.525190 0.367289
v 0.301945 2.275527 -1.158096
v -0.158200 3.731740 2.760928
v -0.154036 3.757916 2.770537
v -0.141814 3.780762 2.781645
v -0.122730 3.798089 2.793148
v -0.098652 3.808193 2.803907
v -0.071937 3.810089 2.812883
v -0.045201 3.803569 2.819197
v -0.021060 3.789310 2.822219
v -0.001878 3.768703 2.821655
v 0.010469 3.743770 2.817569
v 0.014771 3.716929 2.810369
v 0.010607 3.690783 2.800765
v -0.001615 3.667900 2.789692
v -0.020699 3.650525 2.778228
v -0.044777 3.640375 2.767483
v -0.071492 3.638428 2.758517
v -0.098228 3.644869 2.752213
v -0.122369 3.659137 2.749175
v -0.141551 3.679789 2.749704
v -0.153898 3.704818 2.753748
v 0.544291 3.679940 1.272842
v 0.791741 2.846884 -1.504479
v 0.376027 3.252995 3.067853
v -0.454699 1.641216 -1.655966
v -0.203807 3.552708 0.408990
v 0.141275 3.628866 0.707388
v -0.738349 1.966872 -1.062513
v -0.682912 2.987767 -1.766740
v -0.624549 1.805915 1.005746
v -0.821738 1.935644 -1.262958
v 0.686493 3.493316 1.833787
v 0.476659 2.336335 -0.922177
v -0.480460 3.170293 -1.553568
v 0.521337 3.463016 2.628285
v -0.463423 2.329165 -0.920037
v 0.707723 1.574281 -1.318548
v 0.176526 3.633823 3.001835
v -0.352213 2.868618 -2.120159
v 0.119952 1.754530 0.929104
v -0.652099 2.275733 1.198180
v -0.172983 3.843724 1.300810
v -0.500709 1.011279 -2.009408
v -0.491289 3.325071 -0.115633
v 0.153174 3.442443 -1.988766
v -0.465225 2.260716 -0.337917
v -0.310943 4.119175 2.220596
v 0.596118 1.495839 0.389968
v 0.804318 1.883249 0.711237
v -0.576208 3.145833 0.337638
v -0.449045 1.191647 0.586698
v -0.392868 3.163362 1.387094
v -0.359363 3.412359 2.153057
v -0.523520 3.157488 -0.135371
v -0.591279 1.216073 -2.164739
v 0.372715 3.125363 2.503085
v -0.517983 2.857956 0.634619
v 0.660124 2.623018 -0.297254
v -0.465623 2.891248 -0.689271
v 0.182168 3.078984 3.180589
v -0.409293 3.893868 2.328256
v 0.591279 1.216073 -2.164739
v -0.137663 3.724519 2.812535
v -0.019353 1.350063 -3.070639
v -0.188776 3.582974 -1.394160
v -0.116415 3.751614 2.828317
v -0.100073 3.758354 2.835740
v -0.544137 0.387432 -1.709317
v -0.063795 3.754996 2.846089
v 0.845019 0.131256 -1.471003
v -0.034390 3.731161 2.847416
v -0.026011 3.714185 2.844390
v -0.520293 -0.015749 1.553185
v -0.025917 3.678256 2.832401
v -0.034213 3.662822 2.824613
v -0.163635 1.353256 -3.065617
v -0.063507 3.644421 2.809196
v -0.081639 3.643255 2.803074
v -0.099785 3.647779 2.798846
v 0.849384 2.218290 -1.486199
v -0.129189 3.671614 2.797519
v -0.137569 3.688594 2.800545
v -0.750286 0.320404 -1.451098
v -0.071029 1.526411 -2.667761
v -0.496554 0.379047 1.563389
v 0.500151 3.579304 0.844311
v 0.195889 3.582754 -1.401845
v 0.057794 3.115539 2.960029
v 0.388320 3.783984 2.868281
v 0.745573 3.050624 -1.034611
v -0.217327 3.872855 2.705474
v 0.452451 4.016222 2.667272
v -0.110027 2.892565 -2.394588
v -0.103819 3.690776 2.793550
v 0.257564 3.089695 3.071957
v 0.222274 3.083729 3.144726
v -0.452721 3.182503 -0.700977
v -0.209382 3.547137 -0.173338
v -0.093212 1.206312 -3.027062
v 0.544156 2.911450 -0.723786
v 0.390137 1.763321 0.646829
v 0.453693 2.547918 -0.793960
v 0.567741 3.888527 1.777559
v -0.458651 3.137985 1.090437
v -0.026969 2.424852 -2.329733
v 0.666087 1.548256 0.328285
v -0.854394 0.132250 -1.491620
v 0.002934 3.539444 2.974438
v -0.076096 3.713254 2.821926
v -0.327923 2.484071 -1.996396
v 0.886052 2.305837 1.144303
v 0.550647 1.567772 0.537597
v -0.692047 3.057614 -1.467926
v -0.329713 3.438022 -0.709022
v 0.738347 1.967009 -1.062365
v 0.699318 4.388142 2.337410
v 0.459165 1.917116 -1.178844
v -0.502281 0.312197 -1.908120
v 0.699529 3.067520 -1.485022
v -0.024721 3.246951 3.082841
v 0.821752 1.935736 -1.262800
v 0.702984 0.468987 1.236613
v 0.781934 0.030752 1.740257
v 0.104020 3.923290 1.440047
v 0.442258 0.148231 -1.634383
v 0.112840 2.586872 -2.391051
v 0.380482 3.709160 2.798474
v 0.007461 2.298239 -1.586116
v 0.182020 3.072964 3.174218
v 0.288566 3.119020 2.951398
v -0.163775 2.590930 -2.383903
v 0.257712 3.095716 3.078328
v 0.795521 0.247259 1.422380
v 0.761698 4.299510 2.335926
v 0.519089 3.200793 -0.733542
v -0.294566 3.411822 1.132629
v -0.588089 2.228125 -1.885993
v 0.320034 3.612312 2.898066
v 0.561049 1.461389 -1.987529
v 0.873933 0.012871 1.504790
v 0.222126 3.077709 3.138355
v 0.676764 3.973458 2.148721
v 0.592423 3.347317 -0.153250
v 0.510936 3.257781 -1.242844
v 0.513392 1.365342 -1.504445
v 0.478402 4.152037 2.316915
v 0.110238 3.251103 3.335533
v 0.009310 2.376186 -1.216740
v -0.244068 2.449732 -1.062758
v 0.411596 3.726501 2.808672
v -0.729230 0.085057 -1.524389
v -0.384132 0.891690 1.239806
v 0.598830 1.909801 0.432109
v 0.238990 2.278507 -1.507000
v 0.689927 2.881566 0.592315
v 0.660785 3.042566 1.210006
v 0.865030 0.251997 -1.560722
v 0.948286 0.069889 1.751550
v -0.340725 1.775314 0.395172
v -0.666298 0.308205 -1.931162
v -0.058250 3.696195 2.801931
v -0.325858 0.445986 1.320310
v 0.834796 0.406377 1.517176
v 0.793357 2.799424 0.777831
v 0.321626 3.621329 2.825757
v 0.486553 3.423228 1.102524
v -0.604883 2.772336 0.826962
v 0.702320 0.344323 -1.757040
v 0.478875 1.719893 0.427477
v -0.375647 2.531165 -0.769810
v -0.068504 1.883500 -2.868728
v -0.696571 2.685536 -1.839135
v 0.928274 0.175277 1.546215
v 0.729230 0.085057 -1.524389
v -0.113879 3.694541 2.801282
v 0.151795 4.071826 2.761986
v -0.009274 3.210473 -2.315981
v 0.731352 1.523830 0.938948
v -0.180003 3.644588 0.829711
v 0.348823 2.799367 -2.107796
v 0.877996 1.401974 0.925143
v -0.504067 3.402254 0.904167
v -0.865030 0.251997 -1.560722
v -0.242357 2.885625 1.895955
v -0.342634 3.668388 1.308277
v -0.319100 3.899100 1.796963
v -0.271148 1.704486 0.453516
v 0.024553 2.192499 -0.812929
v -0.336522 2.049879 -0.338390
v 0.532858 2.023406 1.277338
v -0.579638 0.038524 1.804586
v 0.386427 3.449167 -0.730972
v -0.159755 2.862018 2.079018
v 0.481088 3.265266 2.445986
v 0.367695 2.409966 1.659037
v 0.161553 3.863093 2.943313
v -0.298250 2.642586 1.730685
v -0.464262 3.414422 1.516865
v -0.711723 0.176000 -1.326178
v 0.093241 1.755885 0.159376
v -0.577205 2.668897 -0.971834
v -0.368858 3.407765 2.292423
v -0.472805 2.111329 -1.882940
v -0.531153 3.197700 1.577571
v 0.309184 3.551980 -0.197655
v 0.651898 0.621716 1.381732
v 0.679300 0.913521 1.202893
v 0.749592 0.760736 1.391836
v -0.009688 2.416890 1.803040
v -0.520570 1.226807 -2.175098
v -0.060687 3.119452 2.470217
v 0.725664 2.469866 0.122402
v 0.511971 2.731757 -0.730591
v -0.453931 -0.025316 1.857846
v 0.888177 0.666542 1.378766
v 0.652651 3.172036 -1.128349
v 0.521387 3.883550 2.677936
v 0.558843 2.654256 1.698569
v 0.612887 3.177021 1.348624
v 0.379554 3.457269 -1.294323
v -0.411575 3.379520 1.258329
v 0.686594 2.491542 0.510904
v 0.853172 0.130943 -1.485117
v -0.702380 3.027420 -0.996204
v 0.150886 3.214341 -2.200627
v 0.544137 0.387432 -1.709317
v -0.781186 0.088582 -1.385096
v 0.098729 3.093318 3.084274
v 0.205350 3.002316 3.151597
v 0.801467 1.502540 0.523830
v 0.423613 3.726462 2.803054
v 0.731760 0.304925 1.612689
v 0.323834 2.482168 -1.997654
v 0.310959 2.745459 2.138269
v -0.610367 2.320069 0.755819
v 0.018542 1.744383 -2.805764
v 0.324284 3.704442 0.916480
v 0.551961 4.091581 2.058795
v 0.041709 3.061349 3.170058
v -0.582569 1.854779 0.759378
v 0.411717 3.979011 1.765496
v -0.504039 2.467210 0.552156
v -0.493645 4.281830 2.382919
v 0.779521 2.375303 -1.096614
v 0.754825 2.006712 1.178642
v 0.251054 3.287501 3.433457
v -0.106040 3.719142 2.822650
v -0.381432 1.475772 0.423900
v -0.621455 1.371192 0.977189
v 0.779116 2.443385 1.394331
v 0.630057 3.181177 -0.175408
v -0.194956 1.895908 1.141020
v 0.584111 1.749274 1.004877
v 0.946886 0.190866 1.709447
v 0.949801 0.071480 1.745975
v 0.854394 0.132250 -1.491620
v 0.812591 2.349036 0.706493
v -0.163693 3.439001 -1.985097
v 0.459958 2.581681 -0.989625
v 0.765852 3.214465 1.527371
v 0.321916 3.065575 3.159578
v -0.279110 2.007138 1.305663
v -0.027843 1.524990 -2.734841
v 0.128364 1.929692 1.281335
v 0.333494 3.398083 -1.804768
v 0.829295 0.001026 1.813304
v -0.337234 1.730361 1.036857
v 0.779910 2.898135 -1.177191
v 0.191852 2.400663 -1.867431
v -0.642905 1.037040 -1.802938
v 0.420050 3.698095 2.774129
v -0.830148 2.627560 -1.399290
v 0.074649 2.891467 -2.398857
v -0.152277 2.330159 -1.286487
v 0.500709 1.011279 -2.009408
v 0.492070 1.445967 -1.939654
v 0.616259 0.038403 1.516132
v -0.477340 0.248086 -1.467195
v -0.124841 3.711420 2.803298
v -0.332464 0.601509 1.415900
v -0.570018 0.636608 1.429381
v -0.067710 3.777980 2.884995
v 0.546011 2.795632 -1.958796
v 0.409108 3.653653 1.058252
v 0.116806 3.309686 3.408720
v -0.442258 0.148232 -1.634383
v 0.251566 4.184580 2.425767
v -0.258053 0.122250 1.812403
v 0.686441 1.214956 0.547285
v 0.047732 3.047945 2.822266
v 0.395546 3.695894 2.772654
v 0.600830 0.304209 1.511896
v 0.635147 3.426204 2.115434
v -0.121592 3.701925 2.805092
v -0.433843 3.479244 1.876642
v -0.190738 2.400990 -1.861761
v 0.477340 0.248086 -1.467195
v 0.594715 2.282546 -0.374717
v -0.702320 0.344323 -1.757040
v -0.570608 0.038126 1.816033
v 0.604360 2.686205 -0.984435
v -0.383074 0.282040 1.651386
v -0.006003 3.481725 -2.052085
v 0.442729 1.908998 1.118886
v -0.341008 3.388863 -1.789963
v 0.624855 0.140374 1.781757
v -0.632048 2.803423 1.053066
v 0.841102 0.242340 1.786517
v 0.750286 0.320404 -1.451098
v -0.845019 0.131256 -1.471003
v 0.781186 0.088582 -1.385096
v 0.333206 3.566026 0.392539
v -0.032029 2.662197 -2.618698
v 0.038555 4.010725 1.792947
v -0.132533 4.117009 2.061136
v 0.057646 3.109519 2.953658
v -0.429707 2.713099 -0.699555
v 0.369963 3.850690 1.277300
v -0.236096 2.277386 -1.504183
v 0.865240 1.836497 0.954033
v 0.835193 2.830722 1.000969
v -0.458965 1.917195 -1.177856
v 0.689145 3.429973 1.470933
v 0.375062 3.702200 2.785896
v 0.541277 1.793435 0.364547
v 0.686755 1.475420 -1.878966
v 0.060931 3.573009 0.301985
v -0.782513 0.085521 -1.731876
v -0.434838 0.736422 1.432948
v 0.711723 0.176000 -1.326178
v 0.642905 1.037040 -1.802938
v 0.639828 2.730516 1.511006
v 0.139371 3.082479 3.147827
v -0.433946 4.372228 2.379496
v 0.633881 1.500475 0.882067
v 0.413380 3.121429 2.715388
v 0.110285 1.696239 0.616067
v -0.361472 3.447071 -1.276491
v -0.114368 1.190756 -3.501962
v -0.581600 0.040043 1.799131
v 0.486965 4.075462 2.531965
v 0.502281 0.312197 -1.908120
v -0.518866 0.052237 -1.727253
v 0.063029 2.747277 -2.168210
v 0.430554 3.702131 2.781103
v 0.658757 0.996692 -1.894749
v 0.379254 3.698089 2.778419
v 0.751113 2.359488 -1.712973
v 0.438315 3.709727 2.784343
v -0.658757 0.996692 -1.894749
v -0.398179 1.889327 0.466719
v 0.894509 1.933999 0.848545
v 0.637647 0.944583 -2.038397
v 0.782513 0.085520 -1.731875
v 0.098581 3.087297 3.077903
v 0.282762 2.421027 1.792277
v 0.438274 3.566666 2.744691
v 0.673925 3.423842 0.860681
v 0.086924 2.882172 -2.251324
v 0.155966 3.012389 2.457510
v -0.395647 2.715982 1.549478
v 0.518866 0.052237 -1.727253
v -0.506540 1.981421 1.222615
v -0.457454 0.221538 1.465872
v -0.084314 3.114701 2.734354
v 0.684254 3.909555 2.287202
v 0.158293 2.821429 2.238324
v 0.360977 2.158690 -1.633113
v -0.546568 2.236734 1.338819
v -0.208670 3.453013 2.655575
v 0.588048 2.228210 -1.886069
v 0.286042 2.474380 -1.061218
v 0.130228 2.202505 1.508490
v -0.176261 3.255850 2.470777
v 0.474856 2.066942 -0.366806
v -0.091215 1.935056 -0.322767
v 0.868145 2.651746 1.267273
v -0.665031 1.901984 0.902680
v 0.354437 4.132221 2.056578
v 0.443346 2.869865 2.056256
v 0.832688 0.081134 1.888768
v 0.288419 3.112999 2.945028
v 0.290333 3.051649 2.813218
v -0.328825 1.549719 0.568125
v 0.587111 0.088021 -1.473405
v -0.182122 4.140717 2.390280
vn 0.3633 -0.2940 0.8841
vn 0.7324 0.1632 -0.6610
vn 0.3634 -0.2938 0.8841
vn -0.9928 -0.0184 -0.1181
vn -0.8362 -0.4455 0.3199
vn 0.3633 -0.2941 0.8840
vn -0.3177 -0.7166 0.6209
vn 0.8019 -0.0510 -0.5952
vn -0.0800 0.9968 -0.0088
vn 0.3633 -0.2939 0.8841
vn 0.9478 -0.2144 -0.2358
vn -0.9171 -0.3716 -0.1443
vn -0.9732 0.2005 -0.1129
vn -0.1998 -0.7186 0.6661
vn -0.8232 0.1372 0.5509
vn -0.9870 -0.1191 -0.1082
vn -0.7270 -0.5811 0.3658
vn 0.9960 0.0853 0.0253
vn 0.4609 -0.0103 0.8874
vn -0.7120 0.0397 -0.7010
vn 0.5896 0.8066 -0.0432
vn -0.1257 -0.9916 0.0301
vn -0.1320 -0.9811 0.1416
vn 0.8290 0.5060 -0.2382
vn 0.8354 0.5496 -0.0023
vn -0.9928 0.0047 -0.1199
vn -0.0269 -0.9908 0.1325
vn 0.8614 -0.4866 0.1454
vn 0.4301 -0.8973 -0.0990
vn -0.9055 0.0766 -0.4174
vn 0.3635 -0.2940 0.8840
vn 0.1867 0.8840 -0.4286
vn 0.3633 -0.2940 0.8840
vn -0.5766 0.8170 0.0007
vn -0.5642 -0.7403 -0.3655
vn 0.9882 -0.0489 -0.1448
vn -0.4766 0.8699 0.1268
vn 0.5073 0.8353 -0.2120
vn 0.6756 0.2960 -0.6752
vn 0.3485 0.5089 0.7871
vn -0.0933 0.9920 -0.0855
vn 0.9843 0.1762 0.0080
vn -0.0116 0.9988 -0.0478
vn -0.9024 -0.4013 -0.1571
vn 0.9754 0.1078 -0.1923
vn -0.1433 -0.6811 0.7180
vn 0.4322 -0.4537 0.7793
vn -0.6090 -0.7462 0.2689
vn -0.1194 0.9515 0.2836
vn -0.1315 -0.8513 0.5079
vn 0.8909 -0.2372 -0.3874
vn -0.9194 0.3929 0.0185
vn -0.9451 -0.2222 -0.2396
vn -0.4216 -0.9052 -0.0540
vn 0.2004 0.9650 -0.1689
vn 0.6725 -0.6792 0.2940
vn 0.9761 -0.1608 -0.1463
vn 0.4177 0.6161 -0.6678
vn 0.3636 -0.2940 0.8840
vn 0.2800 0.9078 0.3121
vn -0.2999 -0.7938 0.5290
vn 0.6191 0.6908 0.3736
vn -0.4157 -0.9038 -0.1023
vn -0.0386 -0.2235 0.9739
vn -0.7873 0.2354 -0.5699
vn -0.2196 0.6712 0.7081
vn -0.6900 0.5492 0.4715
vn 0.3632 -0.2941 0.8841
vn -0.4464 -0.0131 0.8947
vn -0.2288 -0.3795 -0.8965
vn 0.9830 -0.1551 0.0983
vn -0.2638 0.8272 -0.4961
vn -0.8731 0.0644 -0.4833
vn -0.8188 -0.3733 0.4362
vn -0.9914 0.1003 -0.0835
vn -0.8951 0.4341 0.1015
vn 0.2181 -0.1400 0.9658
vn 0.8816 0.4705 0.0385
vn -0.6396 -0.5218 -0.5645
vn -0.0109 -0.6703 0.7420
vn -0.6199 -0.0970 -0.7787
vn -0.7168 0.6650 -0.2097
vn 0.9429 -0.2611 0.2068
vn 0.2433 -0.9590 0.1452
vn -0.2970 -0.2636 -0.9178
vn 0.9945 0.0769 -0.0714
vn -0.3836 -0.9167 -0.1122
vn 0.0417 0.8875 -0.4589
vn 0.7114 0.0414 -0.7016
vn -0.6394 -0.5467 0.5405
vn -0.9378 0.2630 -0.2266
vn 0.3771 -0.9187 -0.1174
vn -0.6989 -0.3187 0.6403
vn -0.9594 0.2317 -0.1606
vn -0.4498 -0.4119 0.7925
vn -0.9413 0.3376 -0.0041
vn -0.3266 -0.7720 -0.5454
vn -0.0463 -0.8373 0.5448
vn -0.2797 -0.7601 0.5866
vn -0.2065 -0.8304 0.5175
vn 0.9989 0.0472 -0.0077
vn 0.1153 -0.9201 0.3744
vn -0.9885 -0.0239 -0.1496
vn -0.5649 0.3623 -0.7414
vn -0.4120 -0.5904 0.6940
vn 0.3324 -0.9394 0.0833
vn -0.4120 -0.5900 0.6944
vn 0.8730 -0.4361 0.2183
vn -0.1403 -0.2749 -0.9512
vn 0.8728 -0.4368 0.2178
vn 0.7513 0.6525 0.0992
vn 0.9183 -0.0598 0.3914
vn 0.3410 -0.8939 0.2911
vn -0.0352 -0.3425 0.9389
vn 0.6544 -0.7294 0.1993
vn 0.7400 -0.6395 0.2085
vn 0.5557 -0.7667 0.3216
vn 0.5553 0.5207 0.6485
vn 0.8156 0.3389 0.4689
vn 0.5553 0.5206 0.6485
vn 0.9320 0.2647 -0.2477
vn -0.3151 0.2154 0.9243
vn 0.9568 -0.0858 0.2778
vn 0.7492 -0.6438 -0.1554
vn -0.9049 -0.1057 0.4123
vn 0.7228 0.3402 0.6015
vn 0.8717 0.2355 0.4297
vn -0.4144 0.0801 0.9066
vn -0.2820 0.2836 0.9165
vn -0.4144 0.0799 0.9066
vn 0.6471 0.3889 0.6558
vn -0.5081 -0.2635 0.8200
vn 0.2226 0.5767 0.7860
vn -0.7039 0.3244 0.6319
vn -0.2071 0.3817 0.9008
vn -0.8911 0.4239 -0.1620
vn -0.0479 0.3724 0.9268
vn -0.8752 0.3311 0.3526
vn 0.9944 -0.0297 0.1017
vn 0.4711 0.7259 0.5011
vn 0.1156 -0.9201 0.3741
vn -0.8536 0.5180 0.0560
vn -0.5738 0.6494 0.4990
vn -0.4823 -0.3798 0.7894
vn -0.7405 0.0913 -0.6658
vn 0.9896 0.0162 0.1429
vn -0.7953 0.5329 -0.2890
vn -0.7472 0.6460 0.1565
vn -0.7164 0.6478 0.2592
vn -0.7997 0.0802 -0.5950
vn 0.9426 -0.2078 0.2615
vn -0.8248 0.4394 0.3559
vn 0.3406 -0.8941 0.2910
vn -0.9456 0.0102 -0.3252
vn 0.0484 0.1497 0.9876
vn -0.9108 -0.3055 0.2778
vn -0.7527 -0.6424 0.1444
vn -0.9791 0.0278 0.2015
vn 0.9894 0.0472 -0.1373
vn -0.6985 0.2805 0.6584
vn 0.3408 0.5662 0.7505
vn 0.8731 0.0644 -0.4833
vn -0.4447 -0.8946 -0.0448
vn 0.9100 -0.0121 0.4145
vn 0.5914 0.8034 -0.0692
vn -0.6190 -0.6563 0.4314
vn -0.1954 -0.7539 0.6273
vn 0.9078 0.3711 -0.1955
vn -0.6401 -0.7123 0.2879
vn -0.6952 -0.5214 0.4948
vn -0.4010 -0.1710 0.9000
vn 0.8862 -0.4627 -0.0243
vn 0.6453 -0.5125 -0.5666
vn 0.1494 0.4618 0.8743
vn 0.2460 -0.7295 0.6382
vn -0.9852 -0.0551 0.1621
vn -0.8673 0.4683 -0.1686
vn -0.8759 0.4470 0.1816
vn -0.8518 0.4043 0.3331
vn 0.8605 -0.2309 0.4542
vn -0.0966 0.4590 0.8832
vn 0.8908 0.4542 0.0157
vn 0.9788 -0.1703 0.1135
vn 0.4723 -0.1570 0.8674
vn -0.9841 -0.1146 -0.1359
vn -0.5039 0.8637 -0.0115
vn -0.4652 -0.2544 0.8479
vn -0.9575 0.0502 -0.2842
vn 0.0269 -0.9908 0.1325
vn -0.6378 0.1120 0.7620
vn -0.8755 -0.0376 0.4818
vn -0.0104 -0.9995 0.0292
vn -0.2944 0.9364 -0.1912
vn -0.2997 0.5575 0.7742
vn -0.6987 0.5452 0.4632
vn -0.7734 0.2714 -0.5728
vn 0.7382 -0.4295 -0.5202
vn -0.5426 -0.8074 0.2316
vn -0.8781 -0.1700 -0.4473
vn 0.6689 0.5350 -0.5160
vn 0.9972 -0.0042 0.0753
vn -0.2919 -0.9029 0.3155
vn -0.8624 0.4737 -0.1788
vn -0.9138 -0.2345 0.3316
vn -0.9673 -0.1862 -0.1720
vn 0.0140 0.7811 0.6243
vn 0.4543 0.8584 -0.2383
vn 0.6674 -0.6379 0.3844
vn -0.2912 -0.9566 0.0068
vn -0.7630 -0.4648 -0.4493
vn 0.5513 -0.3636 0.7509
vn -0.3368 0.3778 -0.8624
vn 0.8835 -0.1461 0.4451
vn -0.0607 -0.9224 0.3814
vn 0.9875 -0.1201 -0.1015
vn 0.1325 0.9676 -0.2152
vn 0.0754 0.9857 -0.1508
vn 0.1065 0.3755 0.9207
vn -0.8579 -0.0822 -0.5072
vn 0.2630 0.3894 0.8827
vn -0.8484 0.4506 0.2778
vn -0.1796 0.5716 0.8007
vn 0.5751 -0.2457 0.7803
vn -0.7875 0.1478 -0.5984
vn 0.4786 0.0937 0.8730
vn 0.3416 0.2935 0.8928
vn 0.4786 0.0940 0.8730
vn -0.8434 0.2109 0.4942
vn -0.6851 0.3202 0.6543
vn 0.8707 0.1130 -0.4786
vn 0.9862 0.0434 -0.1598
vn -0.9303 -0.1129 0.3489
vn -0.3591 -0.9091 0.2110
vn 0.7201 0.3021 -0.6246
vn -0.5198 0.5056 0.6886
vn -0.7876 0.3160 0.5290
vn -0.5199 0.5056 0.6886
vn -0.5076 -0.7817 0.3623
vn -0.7034 -0.6601 0.2634
vn -0.6163 -0.7475 0.2477
vn 0.9099 -0.1538 0.3854
vn -0.2925 -0.9027 0.3156
vn -0.9802 0.0263 0.1964
vn -0.8502 0.3848 -0.3594
vn -0.8410 -0.4613 0.2828
vn -0.9601 -0.1780 0.2156
vn -0.8412 -0.4607 0.2832
vn 0.4801 -0.5764 0.6613
vn -0.0484 0.1497 0.9876
vn 0.4801 -0.5773 0.6605
vn -0.4570 -0.4851 0.7455
vn -0.9596 0.0649 0.2738
vn -0.0606 -0.9223 0.3816
vn 0.0257 -0.3512 -0.9360
vn 0.2684 -0.8233 0.5002
vn 0.3449 -0.7506 0.5635
vn 0.1112 -0.8347 0.5393
vn 0.9818 0.0282 0.1877
vn -0.6340 -0.5395 0.5541
vn -0.9813 0.1154 -0.1538
vn -0.9770 -0.2036 -0.0629
vn 0.6927 0.0841 -0.7163
vn -0.7287 -0.0956 0.6781
vn 0.6006 -0.5616 0.5692
vn 0.9825 0.0245 0.1848
vn -0.6265 0.3520 0.6954
vn 0.9882 0.0189 -0.1521
vn 0.9823 -0.1411 0.1236
vn -0.6259 0.0481 0.7784
vn 0.3248 0.0348 0.9451
vn 0.1541 -0.6328 0.7588
vn -0.9377 -0.3068 0.1628
vn 0.1131 -0.3339 -0.9358
vn 0.5882 0.6154 -0.5247
vn -0.3066 0.9443 -0.1194
vn 0.9152 -0.0700 0.3968
vn -0.4438 0.6128 -0.6539
vn -0.2359 0.8953 0.3778
vn -0.7574 -0.5096 0.4082
vn 0.9783 -0.1501 0.1426
vn 0.9785 -0.1683 0.1194
vn -0.9617 0.0455 0.2701
vn 0.4604 0.8830 0.0914
vn 0.9892 -0.1372 -0.0512
vn 0.9781 0.0217 -0.2068
vn 0.7043 0.6845 0.1884
vn -0.2872 -0.3039 0.9084
vn 0.7997 0.4477 0.4000
vn 0.0629 0.9639 -0.2587
vn 0.6786 0.1053 -0.7269
vn 0.3180 -0.3966 0.8612
vn -0.5824 -0.3814 0.7179
vn -0.7330 0.6664 -0.1361
vn -0.2873 -0.3038 0.9084
vn -0.6726 0.5443 -0.5014
vn 0.8141 -0.2390 0.5292
vn -0.2875 -0.3038 0.9083
vn -0.3979 0.5910 0.7017
vn -0.1278 -0.5719 -0.8103
vn 0.3536 0.2841 0.8912
vn 0.9194 -0.3338 -0.2083
vn -0.8334 -0.1563 0.5300
vn -0.6920 0.6890 -0.2156
vn 0.0080 -0.8519 0.5236
vn 0.2670 -0.7472 0.6085
vn -0.7365 0.5100 -0.4445
vn -0.5445 -0.7351 0.4039
vn 0.7318 0.5090 -0.4532
vn -0.5242 0.8255 -0.2090
vn -0.8715 0.4791 -0.1043
vn 0.8698 -0.4240 0.2525
vn 0.2195 -0.8841 -0.4125
vn 0.9576 0.0497 -0.2837
vn 0.7470 0.3123 0.5869
vn 0.7459 0.1655 0.6452
vn 0.8585 0.4609 -0.2249
vn -0.6615 -0.5393 -0.5212
vn -0.6977 0.6770 0.2344
vn 0.9657 -0.2361 0.1083
vn 0.9273 -0.3734 -0.0261
vn -0.2643 -0.7043 0.6589
vn -0.8385 -0.0847 -0.5383
vn 0.7357 -0.4482 0.5077
vn -0.2874 -0.3038 0.9083
vn -0.2040 0.5897 -0.7815
vn -0.7470 0.3123 0.5869
vn 0.2881 -0.1545 0.9451
vn -0.6926 0.0841 -0.7164
vn 0.9791 0.0992 0.1778
vn 0.8471 -0.4725 0.2432
vn -0.2654 -0.4336 0.8611
vn 0.7878 0.3592 0.5004
vn 0.5621 0.8270 0.0050
vn -0.7667 -0.5016 0.4007
vn 0.8042 -0.0203 -0.5940
vn -0.1559 0.9668 -0.2023
vn 0.2846 -0.9556 0.0764
vn -0.8323 -0.2654 0.4866
vn 0.7685 -0.3803 0.5145
vn 0.2166 -0.2593 0.9412
vn -0.8393 -0.3774 0.3913
vn -0.9531 0.3015 0.0263
vn 0.9758 0.2188 0.0010
vn 0.9872 0.0933 0.1295
vn -0.2873 -0.3037 0.9084
vn 0.2611 -0.9461 -0.1914
vn 0.4814 0.1470 0.8641
vn -0.6748 0.4307 0.5993
vn -0.2873 -0.3039 0.9084
vn -0.0681 -0.6453 -0.7608
vn -0.0823 -0.6490 0.7563
vn -0.2873 -0.3036 0.9084
vn -0.6823 -0.3636 0.6343
vn -0.1447 -0.1474 0.9784
vn -0.9784 0.1753 0.1095
vn 0.8350 0.4652 0.2940
vn -0.9892 -0.1372 -0.0512
vn 0.6576 -0.5903 0.4682
vn -0.3099 0.0893 0.9466
vn 0.9808 0.0432 -0.1900
vn 0.1628 0.1352 -0.9774
vn 0.5731 0.6876 0.4458
vn -0.2549 0.8668 0.4285
vn -0.5094 -0.5901 -0.6264
vn 0.6495 0.3467 -0.6767
vn -0.9125 -0.1484 -0.3812
vn -0.7004 0.6821 -0.2103
vn -0.9356 0.1149 -0.3339
vn -0.5013 0.8584 -0.1090
vn 0.9420 0.3357 -0.0001
vn -0.9353 0.1259 0.3307
vn 0.6090 -0.7462 0.2689
vn 0.8665 0.0961 -0.4898
vn -0.8908 0.4542 0.0157
vn 0.9431 -0.0418 0.3297
vn 0.9062 0.3926 -0.1569
vn 0.1403 -0.2749 -0.9512
vn -0.8905 -0.0717 0.4492
vn -0.0737 -0.7003 0.7100
vn -0.8047 0.4070 0.4322
vn 0.8101 0.5005 -0.3054
vn -0.9978 -0.0510 -0.0432
vn -0.7774 0.0596 0.6261
vn -0.3729 -0.8683 -0.3271
vn -0.1204 0.9460 -0.3010
vn -0.8500 -0.4341 -0.2986
vn 0.8169 0.0900 0.5697
vn -0.8923 0.4328 -0.1284
vn 0.4897 0.7975 -0.3523
vn 0.5039 0.8637 -0.0115
vn 0.8517 -0.3313 0.4061
vn 0.9118 -0.3261 0.2494
vn -0.9454 -0.2753 0.1746
vn -0.9828 -0.0710 0.1703
vn 0.6713 -0.0357 -0.7404
vn 0.9334 -0.1009 -0.3444
vn -0.1385 -0.9497 0.2807
vn -0.1791 -0.9022 -0.3925
vn 0.8316 -0.0551 0.5526
vn -0.9600 -0.1525 0.2349
vn -0.6949 0.0623 0.7164
vn -0.9051 -0.2740 -0.3251
vn -0.9435 -0.2222 0.2457
vn -0.9705 -0.0601 -0.2336
vn 0.5650 -0.1831 0.8045
vn 0.6494 -0.7172 0.2528
vn 0.5355 0.8269 -0.1719
vn -0.4807 -0.0945 0.8718
vn -0.5378 0.1076 -0.8362
vn -0.7806 0.4249 0.4585
vn -0.9766 -0.1819 0.1143
vn -0.9976 0.0063 -0.0683
vn 0.0438 0.9239 -0.3800
vn -0.8231 0.4264 -0.3750
vn -0.7607 -0.6442 -0.0796
vn 0.6874 -0.3750 0.6220
vn -0.5610 0.3676 0.7417
vn 0.2657 -0.6542 0.7082
vn -0.6873 0.5399 -0.4858
vn 0.8086 -0.4793 0.3414
vn 0.6020 -0.0368 -0.7976
vn 0.5439 -0.0758 0.8357
vn 0.3779 0.7870 0.4876
vn 0.8482 0.4822 0.2191
vn 0.5670 0.8225 -0.0446
vn 0.0445 0.9264 -0.3738
vn -0.9191 -0.0524 0.3905
vn 0.9823 -0.1861 -0.0197
vn -0.7189 -0.0643 -0.6921
vn -0.9981 0.0062 0.0616
vn -0.5847 -0.1807 -0.7909
vn -0.2028 -0.9657 0.1619
vn -0.7778 0.0716 -0.6245
vn 0.7797 -0.0735 0.6218
vn -0.0713 -0.9436 -0.3234
vn 0.0340 0.9991 -0.0252
vn -0.7712 -0.6159 -0.1608
vn 0.5354 -0.7923 0.2925
vn 0.8576 -0.1684 0.4859
vn -0.3630 -0.5287 0.7673
vn 0.0303 -0.9454 -0.3244
vn 0.8458 -0.3926 0.3612
vn -0.7981 0.1917 -0.5713
vn -0.8733 0.1530 -0.4625
vn -0.6040 -0.6065 0.5170
vn 0.0987 -0.3124 -0.9448
vn -0.9523 -0.2535 -0.1698
vn 0.2793 -0.6635 -0.6941
vn -0.5777 -0.1686 -0.7986
vn -0.1001 -0.8899 0.4450
vn 0.2529 -0.3351 -0.9076
vn 0.6484 -0.4971 0.5766
vn 0.8227 0.4302 0.3716
vn -0.0969 -0.9946 0.0377
vn 0.8236 0.1731 -0.5401
vn 0.5924 0.2354 0.7705
vn -0.7858 -0.0785 0.6135
vn 0.7857 -0.2376 0.5712
vn 0.7258 0.6774 -0.1194
vn -0.7130 0.2041 0.6708
vn -0.2725 -0.0658 0.9599
vn 0.2999 -0.6855 0.6635
vn -0.5987 -0.5928 0.5386
vn 0.3836 -0.9167 -0.1121
vn -0.4531 -0.8178 -0.3549
vn 0.3846 -0.8526 -0.3538
vn -0.5981 0.8001 0.0462
vn 0.5773 0.0527 -0.8148
vn -0.5774 0.0533 -0.8147
vn 0.7311 -0.2383 0.6393
vn -0.0273 -0.6958 0.7177
vn 0.5132 0.5432 -0.6645
vn -0.9625 0.2693 0.0329
vn 0.3340 -0.6100 0.7186
vn -0.8329 0.5508 -0.0539
vn -0.1395 -0.2644 0.9543
vn 0.6577 0.7082 -0.2567
vn -0.9823 -0.1411 0.1236
vn -0.8934 -0.1098 0.4357
vn 0.4877 0.8649 0.1186
vn -0.8103 -0.1679 0.5615
vn -0.0474 -0.6893 0.7230
vn -0.3473 0.3739 0.8600
vn -0.7707 -0.3783 0.5127
vn 0.8734 -0.1813 -0.4520
vn 0.5274 -0.1459 -0.8370
vn 0.6810 -0.6924 0.2385
vn -0.1762 -0.9685 0.1758
vn -0.8739 0.1392 -0.4658
vn 0.9530 -0.1642 -0.2547
vn 0.2651 -0.9583 -0.1062
vn 0.5897 -0.0867 -0.8030
vn -0.6276 -0.4019 0.6668
vn 0.3458 -0.0568 0.9366
vn 0.6744 0.6921 -0.2574
vn 0.9464 -0.2914 -0.1395
vn -0.7520 0.0412 0.6579
vn -0.5406 0.0154 0.8412
vn 0.7166 -0.3644 0.5947
vn 0.6909 -0.5605 0.4567
vn 0.2927 0.9318 -0.2146
vn -0.6073 -0.1963 -0.7699
vn -0.9301 0.3475 -0.1193
vn -0.8663 -0.3214 -0.3824
vn -0.9503 0.0945 0.2966
vn 0.7708 0.0620 -0.6341
vn -0.2719 0.9618 0.0326
vn 0.5510 0.7985 -0.2424
vn -0.9787 0.2000 0.0468
vn 0.3910 -0.9027 0.1796
vn -0.6467 0.0777 -0.7588
vn 0.1878 -0.7388 -0.6473
vn -0.3048 -0.9513 0.0469
vn -0.7373 0.2821 -0.6138
vn -0.8732 -0.0559 -0.4841
vn 0.8529 -0.1351 0.5043
vn 0.2471 -0.5522 0.7963
vn 0.8765 -0.3567 0.3233
vn -0.2141 -0.9696 -0.1186
vn -0.9993 0.0375 -0.0017
vn 0.7973 0.0626 0.6003
vn 0.9928 -0.0187 -0.1179
vn -0.0601 0.9949 -0.0807
vn -0.1579 -0.6720 -0.7235
vn -0.9875 -0.1201 -0.1015
vn -0.0032 0.9907 -0.1359
vn 0.2463 0.8945 0.3731
vn -0.1420 0.9543 -0.2628
vn 0.7673 -0.6207 -0.1611
vn -0.9924 -0.0033 -0.1233
vn 0.7783 -0.6224 0.0830
vn 0.9414 0.2508 -0.2256
vn -0.6190 0.7854 -0.0016
vn 0.3473 -0.9238 0.1613
vn -0.2870 0.8362 0.4674
vn 0.3959 -0.8492 -0.3495
vn 0.9191 0.0070 -0.3939
vn -0.2102 -0.1640 0.9638
vn -0.0915 -0.9753 -0.2013
vn -0.9917 0.0390 -0.1224
vn -0.9007 -0.4043 0.1591
vn 0.3414 0.5595 0.7553
vn -0.1747 -0.7452 -0.6435
vn 0.6699 0.1126 0.7339
vn 0.2040 0.5897 -0.7815
vn 0.4742 -0.8766 -0.0824
vn -0.8266 -0.1971 0.5271
vn -0.0708 -0.4109 -0.9089
vn 0.4558 0.4623 0.7606
vn 0.4476 -0.6563 -0.6074
vn -0.9765 -0.1121 0.1843
vn -0.3324 -0.9394 0.0833
vn -0.9119 -0.3261 0.2494
vn 0.4035 -0.9126 0.0659
vn -0.0059 -0.9384 -0.3455
vn 0.0278 -0.3375 0.9409
vn -0.9755 0.0449 0.2152
vn 0.6790 0.7338 0.0216
vn 0.6539 -0.5778 0.4885
vn -0.6961 0.6616 -0.2788
vn 0.8521 -0.4244 -0.3062
vn -0.4742 0.6169 -0.6282
vn -0.6653 0.6264 -0.4063
vn 0.1248 -0.6892 0.7138
vn -0.8042 -0.4316 -0.4086
vn -0.0323 0.9883 -0.1492
vn 0.7944 0.2619 0.5480
vn 0.6760 0.6964 -0.2409
vn -0.9872 0.1124 -0.1132
vn 0.2275 -0.9603 0.1618
vn -0.2860 0.7452 0.6024
vn -0.6076 0.3709 0.7024
vn -0.8957 0.1599 0.4150
vn -0.5684 -0.7959 -0.2084
vn -0.9473 0.3113 0.0759
vn 0.9043 0.1028 -0.4144
vn -0.8417 -0.5135 -0.1669
vn -0.9805 -0.1823 -0.0728
vn -0.4874 0.8434 -0.2262
vn 0.9259 -0.3215 -0.1984
vn 0.3099 0.0893 0.9466
vn -0.6379 -0.7013 0.3181
vn -0.9092 0.4075 0.0859
vn 0.2246 -0.1095 -0.9683
vn 0.1007 -0.6962 0.7107
vn -0.2622 -0.6162 0.7427
vn -0.2394 -0.9663 0.0945
vn -0.1893 -0.6633 0.7240
vn 0.8136 -0.4457 0.3734
vn 0.3635 -0.5287 0.7671
vn 0.0878 -0.9401 -0.3295
vn 0.9371 -0.2846 0.2020
vn 0.9532 0.1543 0.2600
vn 0.6463 -0.0984 -0.7567
vn -0.8884 -0.4563 -0.0513
vn 0.8323 -0.2654 0.4866
vn 0.4699 0.3443 -0.8128
vn 0.1166 -0.2213 0.9682
vn -0.7944 0.2619 0.5480
vn 0.0104 -0.9995 0.0292
vn 0.9715 0.1526 -0.1811
vn 0.1670 -0.8844 0.4358
vn -0.6212 0.7834 -0.0200
vn 0.2605 -0.5259 -0.8096
vn -0.9938 0.0135 -0.1104
vn 0.9356 0.1149 -0.3339
vn -0.5486 0.5778 -0.6043
vn 0.2196 0.6712 0.7081
vn -0.7046 0.1396 0.6958
vn 0.8239 -0.5652 -0.0423
vn -0.7558 -0.6438 -0.1194
vn 0.1278 -0.5719 -0.8103
vn -0.3004 0.5505 0.7789
vn -0.2971 -0.9370 0.1837
vn -0.0118 -0.6540 -0.7564
vn 0.2966 0.8447 0.4455
vn 0.7699 -0.4045 -0.4936
vn -0.8022 -0.1661 0.5734
vn 0.8202 -0.4338 0.3729
vn 0.1055 -0.9723 -0.2087
vn 0.5437 0.3421 -0.7664
vn -0.0994 -0.9922 0.0757
vn 0.9143 -0.3398 0.2203
vn 0.9577 0.0304 -0.2863
vn 0.5638 -0.5620 0.6052
vn 0.6147 0.7752 -0.1454
vn 0.3281 -0.6682 0.6677
vn 0.6371 0.5211 -0.5679
vn 0.2215 -0.8446 -0.4873
vn 0.5959 0.4132 0.6886
vn 0.8150 -0.5089 -0.2770
vn 0.6229 0.7548 -0.2056
vn -0.0302 -0.9435 -0.3300
vn 0.0109 -0.6703 0.7420
vn 0.6467 0.0776 -0.7588
vn -0.0784 0.9885 -0.1292
vn -0.8123 -0.1885 0.5520
vn 0.9596 0.0649 0.2738
vn 0.8957 0.1599 0.4150
vn 0.9762 -0.0744 -0.2039
vn -0.9429 -0.2611 0.2068
vn 0.9784 0.1417 -0.1502
vn 0.6638 0.5362 -0.5213
vn -0.2006 -0.9786 -0.0466
vn 0.9655 -0.1934 0.1745
vn -0.8750 -0.1886 0.4459
vn -0.7772 0.1803 -0.6029
vn 0.2006 -0.8449 0.4959
vn 0.9230 -0.1519 -0.3537
vn -0.2414 -0.4083 0.8804
vn 0.6135 0.6385 -0.4647
vn -0.7447 0.3982 0.5356
vn 0.9231 -0.0452 0.3818
vn 0.8531 0.1716 0.4927
vn -0.7050 -0.3554 0.6137
vn -0.7128 0.6957 0.0887
vn 0.9450 0.3234 -0.0495
vn 0.3222 0.9152 -0.2422
vn 0.8427 0.5120 -0.1667
vn -0.2199 -0.0956 -0.9708
vn 0.6866 -0.6741 0.2721
vn 0.8479 -0.4796 -0.2259
vn -0.1687 0.8191 -0.5483
vn 0.8369 0.5274 -0.1465
vn -0.4798 0.8624 -0.1612
vn 0.2676 -0.7136 0.6474
vn -0.6463 -0.0984 -0.7567
vn 0.6198 -0.4960 -0.6082
vn 0.3933 0.7869 0.4756
vn -0.4227 -0.7544 -0.5021
vn 0.9111 -0.1502 -0.3838
vn 0.4905 0.0392 -0.8706
vn 0.9998 -0.0160 -0.0152
vn -0.9830 -0.1549 0.0988
vn 0.8990 0.3522 0.2602
vn 0.9537 0.2402 -0.1812
vn -0.9412 -0.2931 -0.1681
vn 0.9762 -0.1841 0.1150
vn -0.7767 -0.1881 0.6011
vn -0.9902 0.0661 -0.1230
vn -0.6378 -0.0268 -0.7697
vn -0.3771 -0.9187 -0.1174
vn 0.0708 -0.4109 -0.9089
vn -0.9871 -0.0501 0.1522
vn -0.9654 -0.2590 0.0313
vn 0.6696 -0.0769 0.7387
vn 0.3637 -0.5345 -0.7629
vn 0.8121 0.3319 0.4800
vn 0.3366 -0.6915 0.6392
vn -0.9955 0.0264 -0.0913
vn 0.4460 -0.4994 0.7428
vn 0.7255 0.2112 -0.6550
vn 0.0739 -0.7004 0.7099
vn 0.0861 0.9895 -0.1163
vn -0.6510 0.5196 -0.5533
vn -0.4289 0.2779 0.8595
vn 0.3769 -0.9254 -0.0402
vn 0.9885 -0.0239 -0.1496
vn 0.3872 -0.8337 -0.3938
vn 0.0322 -0.0653 0.9973
vn -0.8609 -0.3940 0.3218
vn 0.5747 0.0130 0.8182
vn 0.6739 0.7375 -0.0446
vn 0.1938 -0.2186 -0.9564
vn -0.1418 -0.2671 -0.9532
vn -0.8434 0.1997 -0.4988
vn -0.7898 0.2990 0.5356
vn -0.7242 -0.5145 0.4592
vn -0.8518 -0.3312 0.4060
vn -0.2999 -0.6855 0.6635
vn 0.2994 0.5378 0.7881
vn 0.9451 -0.2222 -0.2396
vn -0.4221 -0.7863 -0.4512
vn -0.4237 -0.7569 -0.4976
vn 0.0681 -0.6453 -0.7608
vn 0.1257 -0.9916 0.0301
vn -0.7986 0.2570 -0.5442
vn 0.0315 0.9309 -0.3639
vn 0.9808 -0.1626 0.1077
vn 0.9794 -0.1117 0.1685
vn 0.8497 -0.2300 0.4744
vn -0.9945 0.0445 0.0944
vn -0.4642 0.8816 -0.0859
vn -0.2378 -0.7478 0.6199
vn -0.0246 -0.6604 -0.7505
vn 0.9896 -0.0638 0.1287
vn -0.6165 -0.2661 0.7410
vn 0.3231 -0.7638 -0.5587
vn -0.8107 -0.5422 -0.2206
vn -0.9872 0.0933 0.1295
vn 0.2549 0.8668 0.4285
vn 0.3419 -0.4212 0.8401
vn -0.6511 0.7425 -0.1575
vn -0.5693 -0.4358 0.6972
vn -0.5361 -0.5849 0.6086
vn -0.1048 0.9611 -0.2557
vn -0.1935 -0.2161 -0.9570
vn 0.4443 -0.8861 -0.1321
vn 0.9560 -0.2788 0.0914
vn 0.8587 -0.3508 0.3735
vn 0.8967 -0.4149 0.1544
vn 0.8411 0.3336 -0.4258
vn -0.9882 -0.0457 0.1465
vn -0.9331 0.1548 -0.3247
vn -0.2433 -0.9660 -0.0872
vn 0.5486 0.5778 -0.6043
vn -0.2505 -0.6859 -0.6832
vn -0.5594 -0.4116 0.7195
vn -0.9896 0.0161 0.1430
vn -0.5798 -0.0714 -0.8116
vn 0.8235 -0.0477 -0.5653
vn -0.5974 -0.5114 0.6178
vn 0.5413 0.8400 -0.0381
vn 0.9936 -0.0101 -0.1123
vn 0.9585 0.2820 -0.0422
vn 0.8750 -0.1313 0.4660
vn -0.4460 -0.4994 0.7428
vn 0.7478 0.2887 -0.5979
vn 0.6004 -0.7996 -0.0085
vn 0.8926 -0.3902 0.2258
vn -0.3582 -0.4699 0.8068
vn 0.6583 0.3784 0.6508
vn 0.4322 0.6028 0.6707
vn 0.7488 0.2341 0.6201
vn 0.7467 0.0933 -0.6586
vn 0.9166 0.2785 0.2870
vn -0.7089 -0.3465 0.6143
vn 0.8469 -0.1422 0.5123
vn 0.9850 0.0672 -0.1587
vn -0.6610 -0.2173 0.7182
vn 0.9685 0.1197 0.2186
vn -0.9781 0.0217 -0.2068
vn 0.9229 0.3850 0.0085
vn 0.3563 0.9254 -0.1290
vn -0.9520 -0.1420 -0.2712
vn 0.5563 0.0136 0.8309
vn 0.7539 0.1866 -0.6300
vn 0.6166 -0.1946 -0.7629
vn -0.6601 0.7430 -0.1105
vn -0.2200 -0.8537 -0.4720
vn 0.5955 0.3913 0.7016
vn 0.7400 0.3504 0.5742
vn -0.9099 0.2170 0.3534
vn -0.3137 0.4953 0.8101
vn -0.7154 -0.6517 0.2521
vn 0.8717 -0.1735 0.4583
vn -0.0760 -0.3533 -0.9324
vn 0.6008 -0.7116 0.3642
vn -0.7705 -0.4655 0.4355
vn -0.9575 0.0408 -0.2854
vn 0.7242 -0.5145 0.4592
vn 0.9802 0.0263 0.1964
vn 0.3473 -0.7591 -0.5505
vn -0.7865 -0.4458 0.4274
vn -0.2118 0.2456 0.9459
vn 0.2165 -0.6780 0.7024
vn -0.4205 0.4443 0.7910
vn -0.4156 -0.4764 0.7748
vn -0.7580 0.6487 -0.0684
vn 0.9788 0.0654 0.1940
vn -0.3913 0.7708 0.5028
vn -0.4771 0.2026 0.8552
vn -0.2943 -0.5373 -0.7904
vn 0.9960 -0.0143 0.0883
vn 0.8860 0.0875 -0.4553
vn 0.9958 -0.0151 0.0899
vn -0.1668 0.1351 -0.9767
vn -0.6709 -0.5326 0.5159
vn 0.5336 -0.2400 0.8110
vn -0.7510 -0.1278 -0.6478
vn 0.6495 0.7142 -0.2610
vn -0.3681 0.8280 -0.4231
vn -0.9743 -0.1801 -0.1350
vn 0.1400 -0.9897 0.0294
vn -0.6887 0.3721 -0.6222
vn 0.6965 0.4588 0.5517
vn 0.4217 -0.7690 -0.4805
vn 0.1348 -0.6660 -0.7336
vn -0.4970 -0.5838 0.6420
vn 0.4484 0.6205 -0.6434
vn 0.9924 -0.0033 -0.1233
vn 0.9385 -0.2545 -0.2334
vn 0.2719 0.9618 0.0326
vn -0.5327 0.3738 0.7593
vn -0.0252 -0.9954 0.0926
vn 0.2215 -0.9735 -0.0573
vn 0.7631 0.4291 0.4832
vn -0.9945 -0.0775 -0.0703
vn 0.1452 -0.9871 0.0673
vn 0.7645 0.5423 -0.3486
vn 0.5954 -0.6504 -0.4716
vn -0.3528 0.4034 -0.8443
vn 0.5199 -0.3931 0.7584
vn 0.9750 -0.2192 -0.0360
vn -0.9447 -0.1744 -0.2778
vn 0.4627 0.7309 -0.5017
vn 0.8633 0.4865 -0.1343
vn 0.9689 0.0668 -0.2381
vn -0.8192 0.2658 0.5081
vn -0.1380 -0.4807 -0.8660
vn -0.9969 -0.0570 0.0541
vn -0.5632 0.3894 0.7288
vn 0.4141 -0.3594 0.8363
vn 0.9268 -0.0843 0.3659
vn -0.5132 0.5432 -0.6645
vn 0.5224 -0.6993 -0.4880
vn -0.8802 0.4664 -0.0880
vn -0.9191 0.0071 -0.3939
vn 0.9612 0.0099 0.2758
vn 0.5682 0.3964 0.7211
vn 0.9087 0.2840 -0.3061
vn -0.2508 -0.9527 -0.1714
vn 0.3904 0.3890 0.8344
vn -0.6944 0.7196 0.0094
vn -0.5663 -0.8236 0.0320
vn -0.7223 -0.1064 0.6834
vn -0.8172 -0.2451 0.5216
vn -0.5978 0.3684 0.7120
vn 0.8573 0.4369 0.2725
vn -0.9403 -0.1644 -0.2979
vn 0.9811 -0.0787 -0.1765
vn -0.6171 -0.2669 0.7402
vn 0.9750 -0.1769 -0.1343
vn 0.1440 -0.9730 0.1804
vn 0.8391 -0.0204 -0.5436
vn -0.6821 -0.4652 0.5642
vn -0.0036 0.9926 0.1212
vn -0.4613 -0.6750 -0.5759
vn -0.8051 -0.2646 0.5308
vn 0.4885 -0.5696 -0.6610
vn 0.7446 -0.5033 0.4385
vn -0.3751 0.7716 0.5138
vn 0.2883 -0.5885 0.7554
vn -0.3365 0.7600 0.5560
vn -0.2659 0.5262 0.8077
vn 0.6830 -0.4897 0.5419
vn 0.7411 0.0891 0.6654
vn -0.9127 -0.0645 0.4035
vn 0.2240 0.2198 0.9495
vn 0.5594 -0.4116 0.7195
vn -0.9882 0.0189 -0.1521
vn 0.6985 0.2805 0.6584
vn 0.5353 -0.1576 -0.8298
vn -0.9862 0.0434 -0.1598
vn 0.2449 -0.9602 -0.1345
vn -0.9320 0.2647 -0.2477
vn 0.7981 0.1917 -0.5713
vn -0.0754 -0.6377 0.7665
vn -0.9676 0.0592 0.2454
vn 0.9456 0.0102 -0.3252
vn 0.6921 0.7207 0.0399
vn -0.7057 0.0065 0.7085
vn 0.8696 0.4790 0.1201
vn 0.2751 0.9614 -0.0013
vn 0.9006 -0.4196 -0.1134
vn 0.8103 -0.5255 0.2594
vn 0.6014 -0.0520 -0.7972
vn 0.8663 -0.3214 -0.3824
vn -0.9749 -0.0932 0.2021
vn 0.6301 0.3936 0.6694
vn -0.9183 0.0501 -0.3926
vn 0.4977 -0.6595 -0.5633
vn -0.8419 -0.0544 -0.5369
vn 0.9825 0.0509 -0.1789
vn 0.5214 -0.4800 0.7055
vn 0.6444 -0.3659 0.6714
vn -0.0324 0.9219 -0.3860
vn 0.9536 -0.0206 -0.3004
vn -0.2533 -0.6800 0.6881
vn -0.9393 -0.0291 0.3418
vn -0.3845 -0.8652 -0.3219
vn 0.7770 0.4592 -0.4306
vn 0.6591 -0.3093 0.6856
vn 0.1964 -0.9429 0.2691
vn -0.7870 0.5536 -0.2724
vn 0.0397 -0.0651 0.9971
vn -0.4020 0.9099 -0.1027
vn -0.8025 -0.5418 0.2500
vn 0.8284 0.1357 -0.5435
vn 0.9413 0.3376 -0.0041
vn -0.9635 -0.2024 0.1752
vn 0.9783 0.0783 -0.1918
vn 0.7740 -0.0846 0.6276
vn 0.9359 -0.0792 0.3433
vn -0.6004 -0.7428 0.2961
vn -0.9059 -0.4200 0.0541
vn 0.7983 -0.6008 0.0431
vn 0.0973 -0.4759 -0.8741
vn -0.7316 -0.3335 0.5946
vn 0.7544 -0.6441 -0.1269
vn 0.4757 0.2965 0.8281
vn -0.9735 -0.1059 0.2029
vn 0.9756 0.2155 0.0415
vn 0.0080 -0.8805 0.4739
vn 0.7420 -0.3499 0.5719
vn 0.9692 -0.1401 -0.2025
vn -0.4809 -0.8132 0.3277
vn 0.8609 -0.3940 0.3218
vn -0.0029 -0.9837 -0.1799
vn -0.3024 0.9529 0.0229
vn 0.9048 -0.1493 -0.3989
vn 0.8408 -0.2696 0.4694
vn 0.3633 -0.7826 0.5055
vn -0.5408 0.3278 -0.7747
vn 0.8358 0.5000 -0.2268
vn -0.8893 -0.3485 0.2960
vn -0.9410 -0.3301 -0.0740
vn -0.8048 -0.4062 0.4327
vn -0.8776 -0.0931 0.4702
vt 0.793893 0.811035
vt 0.733986 0.647144
vt 0.654509 0.794346
vt 0.904509 0.802353
vt 0.637534 0.635601
vt 0.530617 0.607635
vt 0.500000 0.753937
vt 0.876608 0.580494
vt 0.859674 0.618176
vt 0.975529 0.769161
vt 0.000000 0.714703
vt 0.810530 0.641144
vt 0.494886 0.330135
vt 0.549539 0.344433
vt 0.530617 0.328053
vt 0.604192 0.365723
vt 0.423700 0.300087
vt 0.327249 0.288544
vt 0.445583 0.324238
vt 0.637534 0.369709
vt 0.653495 0.391926
vt 0.692622 0.420471
vt 0.810530 0.476807
vt 0.717743 0.448570
vt 0.733986 0.420963
vt 0.201560 0.403915
vt 0.381335 0.383205
vt 0.184626 0.355206
vt 0.372679 0.358311
vt 0.250704 0.458881
vt 0.406456 0.411304
vt 0.327249 0.514725
vt 0.381335 0.339043
vt 0.250704 0.294548
vt 0.406456 0.327301
vt 0.201560 0.317513
vt 0.859674 0.531780
vt 0.555940 0.398312
vt 0.726400 0.473465
vt 0.692622 0.504471
vt 0.717743 0.492729
vt 0.653495 0.507542
vt 0.604192 0.501640
vt 0.445583 0.439854
vt 0.494886 0.466053
vt 0.549539 0.487347
vt 0.095491 0.301487
vt 0.206107 0.292805
vt 0.024472 0.334679
vt 0.345492 0.309490
vt 0.500000 0.349903
vt 0.654509 0.410099
vt 0.206107 0.619667
vt 0.345492 0.693741
vt 0.095491 0.538963
vt 0.423700 0.565987
vt 0.024472 0.459526
vt 0.000000 0.389137
vt 0.904509 0.564873
vt 0.975529 0.644310
vt 0.793893 0.484169
vt 0.000000 1.000000
vt 0.273600 0.473465
vt 0.123392 0.580494
vt 0.282257 0.492729
vt 0.024471 0.644310
vt 0.140326 0.618176
vt 0.307378 0.504471
vt 0.189470 0.641144
vt 0.140326 0.531780
vt 0.266014 0.420963
vt 0.206107 0.484169
vt 0.189470 0.476807
vt 0.345491 0.410099
vt 0.095491 0.564873
vt 0.576300 0.565987
vt 0.505114 0.466053
vt 0.469383 0.607635
vt 0.450461 0.487347
vt 0.672751 0.514725
vt 0.554417 0.439854
vt 0.593544 0.411304
vt 0.362466 0.635601
vt 0.395808 0.501640
vt 0.346505 0.507542
vt 0.266014 0.647144
vt 0.362466 0.369709
vt 0.798440 0.403915
vt 0.749296 0.458881
vt 0.975528 0.459526
vt 0.904509 0.538963
vt 0.815374 0.355206
vt 0.975528 0.334679
vt 0.654508 0.693741
vt 0.793893 0.619667
vt 0.576300 0.300087
vt 0.654508 0.309490
vt 0.469383 0.328053
vt 0.672751 0.288544
vt 0.793893 0.292805
vt 0.798440 0.317513
vt 0.749296 0.294548
vt 0.904509 0.301487
vt 0.444060 0.398312
vt 0.618665 0.383205
vt 0.282257 0.448570
vt 0.395808 0.365723
vt 0.346505 0.391926
vt 0.450461 0.344433
vt 0.307378 0.420471
vt 0.505114 0.330135
vt 0.627321 0.358311
vt 0.618665 0.339043
vt 0.593544 0.327301
vt 0.554417 0.324238
vt 0.095491 0.802353
vt 0.024471 0.769161
vt 0.345491 0.794346
vt 0.206107 0.811035
vt 0.531129 0.863455
vt 0.528598 0.862678
vt 0.529701 0.861377
vt 0.530028 0.864496
vt 0.532449 0.864504
vt 0.554833 0.852302
vt 0.535964 0.857423
vt 0.554115 0.862847
vt 0.527653 0.863068
vt 0.533337 0.860528
vt 0.534939 0.862031
vt 0.531751 0.858482
vt 0.533744 0.855085
vt 0.535657 0.858520
vt 0.537437 0.859975
vt 0.530356 0.847231
vt 0.465756 0.730456
vt 0.464280 0.731015
vt 0.466272 0.734068
vt 0.468310 0.733388
vt 0.464779 0.728223
vt 0.462719 0.728340
vt 0.462606 0.727787
vt 0.464037 0.730013
vt 0.465977 0.733427
vt 0.464885 0.735427
vt 0.463767 0.732595
vt 0.465331 0.736822
vt 0.463567 0.731622
vt 0.533015 0.861030
vt 0.528781 0.860447
vt 0.530131 0.864549
vt 0.530881 0.856491
vt 0.531355 0.865489
vt 0.534491 0.861890
vt 0.526887 0.856207
vt 0.527647 0.863272
vt 0.528726 0.864638
vt 0.526403 0.862717
vt 0.525618 0.860881
vt 0.526164 0.858016
vt 0.536721 0.859365
vt 0.468862 0.749484
vt 0.466293 0.747780
vt 0.466377 0.748286
vt 0.467102 0.749259
vt 0.467253 0.750763
vt 0.470042 0.751312
vt 0.469399 0.753101
vt 0.469928 0.750509
vt 0.463993 0.748347
vt 0.465755 0.751317
vt 0.467367 0.753944
vt 0.471307 0.756222
vt 0.464995 0.721450
vt 0.464829 0.720767
vt 0.463109 0.721688
vt 0.462921 0.720778
vt 0.464423 0.724210
vt 0.465870 0.723530
vt 0.464627 0.728363
vt 0.464023 0.722561
vt 0.465068 0.754195
vt 0.464674 0.751874
vt 0.466630 0.753166
vt 0.463722 0.724297
vt 0.465564 0.722267
vt 0.463941 0.725445
vt 0.463960 0.747882
vt 0.467324 0.729442
vt 0.468962 0.731820
vt 0.464679 0.727808
vt 0.468861 0.731404
vt 0.465570 0.729689
vt 0.468613 0.734441
vt 0.465745 0.749335
vt 0.459061 0.781790
vt 0.459779 0.802539
vt 0.459863 0.804904
vt 0.459175 0.785141
vt 0.459751 0.801754
vt 0.459456 0.793305
vt 0.459271 0.787929
vt 0.459472 0.793767
vt 0.459704 0.800426
vt 0.459315 0.789211
vt 0.458776 0.773334
vt 0.458807 0.774253
vt 0.459830 0.803985
vt 0.489859 0.811437
vt 0.490517 0.812575
vt 0.493013 0.812944
vt 0.492379 0.807917
vt 0.492492 0.807826
vt 0.490244 0.811723
vt 0.495164 0.807698
vt 0.493132 0.810665
vt 0.494834 0.807444
vt 0.490710 0.812847
vt 0.492924 0.813826
vt 0.497867 0.810534
vt 0.497474 0.813438
vt 0.460224 0.765039
vt 0.460206 0.763084
vt 0.462560 0.806586
vt 0.461784 0.810371
vt 0.461888 0.813254
vt 0.462269 0.795070
vt 0.460502 0.773340
vt 0.461874 0.784919
vt 0.461843 0.811999
vt 0.460939 0.786261
vt 0.460749 0.780687
vt 0.461206 0.794016
vt 0.461693 0.807861
vt 0.529650 0.858487
vt 0.526305 0.855364
vt 0.526229 0.858659
vt 0.525366 0.858400
vt 0.526985 0.861113
vt 0.527069 0.853356
vt 0.527847 0.860249
vt 0.525730 0.856066
vt 0.499012 0.806119
vt 0.499163 0.808047
vt 0.496863 0.805659
vt 0.504007 0.807601
vt 0.498517 0.806656
vt 0.503584 0.806797
vt 0.496949 0.812909
vt 0.499654 0.812986
vt 0.502654 0.810875
vt 0.503507 0.809186
vt 0.592808 0.531743
vt 0.588217 0.538940
vt 0.588077 0.539594
vt 0.592974 0.532605
vt 0.590410 0.541266
vt 0.605476 0.579748
vt 0.598681 0.549994
vt 0.597732 0.577716
vt 0.594369 0.536410
vt 0.588024 0.579111
vt 0.613173 0.625620
vt 0.612434 0.624340
vt 0.615779 0.621909
vt 0.615986 0.622776
vt 0.613896 0.614147
vt 0.608878 0.593579
vt 0.610395 0.618277
vt 0.610344 0.599562
vt 0.598719 0.597518
vt 0.603627 0.617616
vt 0.594111 0.535248
vt 0.585780 0.562762
vt 0.596633 0.544739
vt 0.581263 0.552818
vt 0.580933 0.565246
vt 0.599718 0.607532
vt 0.614994 0.618664
vt 0.603411 0.571398
vt 0.597228 0.579381
vt 0.580859 0.579665
vt 0.580881 0.588312
vt 0.586239 0.595329
vt 0.580956 0.598184
vt 0.581140 0.610011
vt 0.587471 0.612386
vt 0.580948 0.566627
vt 0.581636 0.543142
vt 0.601569 0.621008
vt 0.581399 0.548416
vt 0.581728 0.542511
vt 0.581694 0.543940
vt 0.584418 0.618966
vt 0.581248 0.618567
vt 0.581152 0.616172
vt 0.580876 0.599332
vt 0.585356 0.616338
vt 0.553521 0.602831
vt 0.553331 0.610777
vt 0.554511 0.593339
vt 0.555736 0.583825
vt 0.553636 0.612485
vt 0.553687 0.602899
vt 0.553489 0.615268
vt 0.459452 0.491871
vt 0.461213 0.485382
vt 0.459485 0.489932
vt 0.461044 0.486468
vt 0.459778 0.492442
vt 0.459359 0.494423
vt 0.461493 0.488154
vt 0.464758 0.479439
vt 0.558504 0.553826
vt 0.556735 0.572716
vt 0.557625 0.559726
vt 0.580730 0.586609
vt 0.597048 0.573565
vt 0.589612 0.566365
vt 0.599269 0.554858
vt 0.558814 0.552734
vt 0.580750 0.575909
vt 0.555956 0.581021
vt 0.557629 0.569465
vt 0.554660 0.591882
vt 0.558917 0.553838
vt 0.558344 0.559956
vt 0.466992 0.735881
vt 0.471686 0.736523
vt 0.471154 0.735844
vt 0.467543 0.732415
vt 0.469038 0.734202
vt 0.465755 0.732520
vt 0.464910 0.730942
vt 0.468204 0.735019
vt 0.462924 0.731477
vt 0.463785 0.734862
vt 0.464875 0.736583
vt 0.472383 0.739772
vt 0.467083 0.750025
vt 0.472789 0.754060
vt 0.465694 0.724813
vt 0.464362 0.726914
vt 0.467043 0.757209
vt 0.465055 0.731428
vt 0.469008 0.724611
vt 0.468395 0.726339
vt 0.467362 0.722205
vt 0.466053 0.734327
vt 0.468842 0.723927
vt 0.468423 0.726290
vt 0.462756 0.730786
vt 0.464215 0.732819
vt 0.466077 0.735332
vt 0.468792 0.735891
vt 0.600823 0.620456
vt 0.472127 0.728869
vt 0.609379 0.623288
vt 0.609476 0.623840
vt 0.471595 0.729530
vt 0.471495 0.728278
vt 0.469804 0.729461
vt 0.467500 0.728924
vt 0.472618 0.739591
vt 0.466378 0.738958
vt 0.464850 0.738342
vt 0.471066 0.739817
vt 0.469530 0.739997
vt 0.492385 0.780119
vt 0.495290 0.787243
vt 0.496036 0.784173
vt 0.491154 0.779002
vt 0.491169 0.779490
vt 0.484620 0.782489
vt 0.478875 0.782885
vt 0.483299 0.800267
vt 0.473516 0.783857
vt 0.474509 0.805198
vt 0.491185 0.779437
vt 0.490127 0.754648
vt 0.488711 0.757775
vt 0.487882 0.782818
vt 0.490626 0.800192
vt 0.492957 0.791536
vt 0.487404 0.808726
vt 0.486815 0.799901
vt 0.510317 0.819697
vt 0.506778 0.810402
vt 0.499845 0.801958
vt 0.483049 0.769613
vt 0.478757 0.763906
vt 0.477157 0.773097
vt 0.506264 0.803765
vt 0.485902 0.782701
vt 0.475770 0.815443
vt 0.487478 0.764879
vt 0.468327 0.763951
vt 0.468299 0.777805
vt 0.485796 0.766729
vt 0.479135 0.759770
vt 0.477878 0.735780
vt 0.477869 0.740706
vt 0.464715 0.728123
vt 0.467168 0.742654
vt 0.478074 0.743827
vt 0.478420 0.746287
vt 0.483856 0.741013
vt 0.481465 0.745903
vt 0.466678 0.742061
vt 0.480832 0.753289
vt 0.482355 0.739235
vt 0.477035 0.736540
vt 0.464418 0.730839
vt 0.479296 0.732786
vt 0.491357 0.782225
vt 0.484142 0.752815
vt 0.489788 0.774510
vt 0.492829 0.789133
vt 0.485110 0.768799
vt 0.494941 0.783847
vt 0.482346 0.751802
vt 0.480720 0.763783
vt 0.474831 0.767088
vt 0.470071 0.782960
vt 0.468285 0.775035
vt 0.473047 0.792616
vt 0.477104 0.752145
vt 0.477999 0.732596
vt 0.499948 0.786343
vt 0.517379 0.794530
vt 0.512134 0.797455
vt 0.519892 0.848057
vt 0.532451 0.843359
vt 0.517744 0.815619
vt 0.537586 0.821761
vt 0.515349 0.835842
vt 0.532581 0.835305
vt 0.502797 0.825711
vt 0.494477 0.829329
vt 0.524531 0.827249
vt 0.502495 0.837962
vt 0.485221 0.804628
vt 0.480786 0.783342
vt 0.475997 0.815446
vt 0.525700 0.806306
vt 0.508952 0.802099
vt 0.509892 0.844218
vt 0.519580 0.802811
vt 0.538081 0.809172
vt 0.541405 0.799494
vt 0.518720 0.795088
vt 0.515910 0.791821
vt 0.499703 0.786625
vt 0.533903 0.796593
vt 0.502945 0.831977
vt 0.499967 0.834792
vt 0.501863 0.837698
vt 0.463758 0.765903
vt 0.461146 0.748328
vt 0.464004 0.756081
vt 0.459637 0.752229
vt 0.459467 0.741348
vt 0.506850 0.797565
vt 0.504079 0.839782
vt 0.492286 0.773966
vt 0.486594 0.753472
vt 0.488556 0.749590
vt 0.489924 0.749166
vt 0.495942 0.780935
vt 0.496808 0.781473
vt 0.468158 0.760414
vt 0.466905 0.746627
vt 0.498506 0.789177
vt 0.488541 0.754072
vt 0.488271 0.754618
vt 0.489151 0.749958
vt 0.496350 0.781759
vt 0.492187 0.775399
vt 0.554776 0.861800
vt 0.556046 0.865722
vt 0.555695 0.855838
vt 0.555129 0.847689
vt 0.555051 0.828840
vt 0.465133 0.783452
vt 0.466504 0.813755
vt 0.478230 0.825060
vt 0.475600 0.826146
vt 0.477985 0.824249
vt 0.473849 0.825912
vt 0.470472 0.823171
vt 0.463533 0.816453
vt 0.463302 0.814164
vt 0.477415 0.822225
vt 0.467802 0.795013
vt 0.468360 0.808736
vt 0.494655 0.804683
vt 0.489056 0.816451
vt 0.497993 0.794438
vt 0.496214 0.799692
s 0
usemtl Material.001
f 60/1/1 54/2/1 58/3/1
f 154/2/2 379/1/2 420/4/2
f 54/2/3 57/5/3 58/3/3
f 152/6/4 436/7/4 23/3/4
f 344/3/5 353/5/5 362/6/5
f 43/8/6 54/9/6 61/10/6
f 527/11/7 520/8/7 371/10/7
f 485/10/8 313/9/8 209/12/8
f 258/4/9 186/12/9 487/2/9
f 54/12/10 60/4/10 61/10/10
f 408/13/11 544/14/11 440/15/11
f 319/15/12 511/14/12 349/16/12
f 257/17/13 214/13/13 204/15/13
f 369/18/14 96/19/14 158/13/14
f 62/13/15 500/17/15 460/18/15
f 538/16/16 24/20/16 441/15/16
f 493/21/17 388/22/17 389/23/17
f 409/23/18 538/22/18 441/24/18
f 461/25/19 193/21/19 275/23/19
f 297/20/20 157/16/20 83/25/20
f 472/16/21 303/21/21 365/25/21
f 503/26/22 311/27/22 488/28/22
f 314/27/23 35/29/23 288/28/23
f 59/27/24 324/26/24 315/30/24
f 304/31/25 380/30/25 352/32/25
f 201/30/26 467/31/26 327/27/26
f 311/28/27 503/29/27 153/33/27
f 11/34/28 389/35/28 543/19/28
f 216/19/29 496/18/29 543/34/29
f 395/33/30 327/35/30 402/34/30
f 54/33/31 50/36/31 53/28/31
f 539/36/32 398/33/32 401/34/32
f 54/24/33 43/37/33 45/23/33
f 151/19/34 67/35/34 462/38/34
f 32/13/35 85/19/35 361/38/35
f 52/35/36 453/33/36 526/38/36
f 257/29/37 27/27/37 13/38/37
f 472/33/38 397/29/38 246/38/38
f 42/14/39 326/13/39 182/38/39
f 245/24/40 409/22/40 441/38/40
f 475/39/41 546/24/41 447/38/41
f 183/22/42 428/21/42 88/38/42
f 487/16/43 365/14/43 258/38/43
f 79/21/44 346/16/44 221/38/44
f 218/40/45 260/41/45 91/38/45
f 269/42/46 159/40/46 442/38/46
f 40/41/47 30/39/47 427/38/47
f 522/37/48 545/24/48 285/8/48
f 447/24/49 546/39/49 336/8/49
f 422/43/50 412/42/50 424/38/50
f 375/31/51 293/44/51 266/38/51
f 47/27/52 99/31/52 384/38/52
f 267/44/53 343/45/53 488/38/53
f 525/46/54 371/43/54 450/38/54
f 398/45/55 539/46/55 306/38/55
f 150/47/56 184/34/56 406/48/56
f 92/34/57 453/18/57 52/48/57
f 463/34/58 205/47/58 385/49/58
f 53/28/59 50/36/59 51/49/59
f 306/49/60 447/36/60 501/34/60
f 50/48/33 54/18/33 48/50/33
f 96/51/61 18/15/61 533/52/61
f 54/15/33 45/20/33 46/52/33
f 54/15/1 46/51/1 48/50/1
f 149/18/62 546/17/62 494/50/62
f 374/50/63 351/17/63 500/15/63
f 517/32/64 431/53/64 451/54/64
f 34/53/65 253/32/65 331/55/65
f 469/54/66 457/56/66 490/32/66
f 268/7/67 445/6/67 97/54/67
f 57/6/68 54/56/68 56/54/68
f 196/32/69 361/30/69 188/55/69
f 83/57/70 26/26/70 270/28/70
f 482/58/71 2/28/71 185/49/71
f 346/57/72 475/28/72 474/58/72
f 123/55/73 17/30/73 144/57/73
f 494/30/74 44/26/74 149/57/74
f 395/52/75 538/20/75 201/25/75
f 257/43/76 274/5/76 27/2/76
f 480/43/77 413/46/77 338/6/77
f 352/2/78 295/42/78 304/43/78
f 208/12/79 449/40/79 75/2/79
f 2/40/80 5/42/80 430/2/80
f 83/6/81 8/5/81 199/43/81
f 210/45/82 342/44/82 39/32/82
f 132/32/83 203/44/83 2/31/83
f 289/56/84 301/45/84 145/32/84
f 199/6/85 26/46/85 83/45/85
f 481/45/86 537/56/86 271/6/86
f 387/59/87 14/23/87 267/60/87
f 539/23/88 401/37/88 474/60/88
f 508/23/89 531/59/89 98/61/89
f 97/25/90 442/61/90 159/52/90
f 358/61/91 345/25/91 381/23/91
f 416/60/92 471/37/92 334/8/92
f 321/9/93 90/41/93 97/12/93
f 455/41/94 221/40/94 346/12/94
f 18/41/95 95/9/95 529/8/95
f 285/8/96 457/11/96 502/60/96
f 349/8/97 85/39/97 536/41/97
f 74/62/98 115/62/98 116/62/98
f 115/62/99 74/62/99 114/62/99
f 116/62/100 76/62/100 74/62/100
f 322/62/101 408/62/101 440/62/101
f 76/62/102 116/62/102 77/62/102
f 435/62/103 31/62/103 502/62/103
f 337/62/104 253/62/104 1/62/104
f 74/62/105 73/62/105 113/62/105
f 514/62/106 416/62/106 334/62/106
f 114/62/107 74/62/107 113/62/107
f 80/62/108 120/62/108 121/62/108
f 502/62/109 31/62/109 87/62/109
f 121/62/110 81/62/110 80/62/110
f 425/62/111 72/62/111 15/62/111
f 275/62/112 281/62/112 404/62/112
f 118/62/113 78/62/113 77/62/113
f 12/62/114 196/62/114 188/62/114
f 80/62/115 78/62/115 118/62/115
f 80/62/116 119/62/116 120/62/116
f 119/62/117 80/62/117 118/62/117
f 65/62/118 105/62/118 106/62/118
f 105/62/119 65/62/119 63/62/119
f 106/62/120 66/62/120 65/62/120
f 328/62/121 514/62/121 87/62/121
f 442/62/122 198/62/122 356/62/122
f 103/62/123 63/62/123 81/62/123
f 216/62/124 354/62/124 496/62/124
f 530/62/125 221/62/125 362/62/125
f 63/62/126 104/62/126 105/62/126
f 104/62/127 63/62/127 103/62/127
f 70/62/128 110/62/128 111/62/128
f 110/62/129 70/62/129 109/62/129
f 111/62/130 71/62/130 70/62/130
f 252/62/131 249/62/131 377/62/131
f 71/62/132 111/62/132 73/62/132
f 108/62/133 68/62/133 66/62/133
f 264/62/134 296/62/134 342/62/134
f 70/62/135 68/62/135 108/62/135
f 274/62/136 257/62/136 204/62/136
f 109/62/137 70/62/137 108/62/137
f 296/62/138 37/62/138 146/62/138
f 315/62/139 382/62/139 372/62/139
f 406/62/140 298/62/140 198/62/140
f 117/62/141 77/62/141 116/62/141
f 498/62/142 27/62/142 274/62/142
f 342/62/143 296/62/143 146/62/143
f 113/62/144 73/62/144 112/62/144
f 381/62/145 296/62/145 41/62/145
f 281/62/146 240/62/146 88/62/146
f 84/62/147 37/62/147 202/62/147
f 194/62/148 465/62/148 189/62/148
f 306/62/149 501/62/149 276/62/149
f 358/62/150 212/62/150 364/62/150
f 102/62/151 81/62/151 121/62/151
f 296/62/152 264/62/152 41/62/152
f 118/62/153 77/62/153 117/62/153
f 144/62/154 215/62/154 123/62/154
f 132/62/155 430/62/155 228/62/155
f 357/62/156 364/62/156 33/62/156
f 18/62/157 357/62/157 521/62/157
f 191/62/158 10/62/158 432/62/158
f 91/62/159 372/62/159 218/62/159
f 470/62/160 387/62/160 243/62/160
f 107/62/161 66/62/161 106/62/161
f 240/62/162 513/62/162 486/62/162
f 371/62/163 520/62/163 450/62/163
f 103/62/164 81/62/164 102/62/164
f 303/62/165 352/62/165 365/62/165
f 450/62/166 155/62/166 525/62/166
f 18/62/167 529/62/167 533/62/167
f 182/62/168 263/62/168 483/62/168
f 6/62/169 145/62/169 515/62/169
f 353/62/170 158/62/170 534/62/170
f 112/62/171 73/62/171 111/62/171
f 259/62/172 499/62/172 224/62/172
f 266/62/173 390/62/173 375/62/173
f 108/62/174 66/62/174 107/62/174
f 520/62/175 527/62/175 216/62/175
f 342/62/176 217/62/176 264/62/176
f 327/62/177 467/62/177 264/62/177
f 139/62/178 33/62/178 41/62/178
f 41/62/179 264/62/179 467/62/179
f 250/62/180 260/62/180 428/62/180
f 126/62/181 168/62/181 167/62/181
f 278/62/182 228/62/182 438/62/182
f 423/62/183 224/62/183 396/62/183
f 133/62/184 172/62/184 171/62/184
f 524/62/185 160/62/185 211/62/185
f 459/62/186 343/62/186 243/62/186
f 505/62/187 431/62/187 517/62/187
f 332/62/188 157/62/188 432/62/188
f 522/62/189 334/62/189 545/62/189
f 99/62/190 10/62/190 361/62/190
f 141/62/191 163/62/191 162/62/191
f 334/62/192 471/62/192 545/62/192
f 474/62/193 202/62/193 346/62/193
f 126/62/194 167/62/194 166/62/194
f 97/62/195 49/62/195 268/62/195
f 400/62/196 319/62/196 24/62/196
f 262/62/197 458/62/197 535/62/197
f 159/62/198 321/62/198 97/62/198
f 189/62/199 8/62/199 47/62/199
f 142/62/200 425/62/200 15/62/200
f 372/62/201 91/62/201 518/62/201
f 137/62/202 178/62/202 177/62/202
f 327/62/203 264/62/203 217/62/203
f 141/62/204 162/62/204 181/62/204
f 212/62/205 358/62/205 381/62/205
f 445/62/206 406/62/206 198/62/206
f 425/62/207 205/62/207 247/62/207
f 11/62/208 543/62/208 496/62/208
f 520/62/209 389/62/209 450/62/209
f 206/62/210 330/62/210 349/62/210
f 133/62/211 173/62/211 172/62/211
f 494/62/212 207/62/212 79/62/212
f 389/62/213 292/62/213 256/62/213
f 137/62/214 177/62/214 176/62/214
f 506/62/215 513/62/215 240/62/215
f 284/62/216 474/62/216 478/62/216
f 472/62/217 487/62/217 187/62/217
f 130/62/218 169/62/218 168/62/218
f 511/62/219 395/62/219 402/62/219
f 128/62/220 130/62/220 168/62/220
f 467/62/221 139/62/221 41/62/221
f 128/62/222 168/62/222 126/62/222
f 171/62/223 131/62/223 133/62/223
f 212/62/224 33/62/224 364/62/224
f 131/62/225 171/62/225 130/62/225
f 130/62/226 170/62/226 169/62/226
f 170/62/227 130/62/227 171/62/227
f 122/62/228 164/62/228 163/62/228
f 164/62/229 122/62/229 165/62/229
f 324/62/230 417/62/230 382/62/230
f 185/62/231 370/62/231 4/62/231
f 122/62/232 163/62/232 141/62/232
f 525/62/233 155/62/233 476/62/233
f 485/62/234 209/62/234 390/62/234
f 126/62/235 166/62/235 125/62/235
f 125/62/236 165/62/236 122/62/236
f 165/62/237 125/62/237 166/62/237
f 140/62/238 179/62/238 178/62/238
f 179/62/239 140/62/239 180/62/239
f 138/62/240 140/62/240 178/62/240
f 537/62/241 410/62/241 156/62/241
f 138/62/242 178/62/242 137/62/242
f 386/62/243 435/62/243 502/62/243
f 331/62/244 499/62/244 34/62/244
f 141/62/245 181/62/245 140/62/245
f 213/62/246 221/62/246 455/62/246
f 180/62/247 140/62/247 181/62/247
f 134/62/248 174/62/248 173/62/248
f 491/62/249 124/62/249 386/62/249
f 133/62/250 134/62/250 173/62/250
f 399/62/251 145/62/251 307/62/251
f 124/62/252 435/62/252 386/62/252
f 176/62/253 136/62/253 137/62/253
f 233/62/254 524/62/254 25/62/254
f 136/62/255 176/62/255 134/62/255
f 134/62/256 175/62/256 174/62/256
f 175/62/257 134/62/257 176/62/257
f 428/63/258 404/64/258 88/65/258
f 158/11/259 371/64/259 534/66/259
f 499/67/260 236/65/260 34/64/260
f 221/68/261 403/65/261 79/69/261
f 508/65/262 486/67/262 531/69/262
f 530/70/263 49/66/263 251/64/263
f 426/71/264 69/72/264 541/73/264
f 404/72/265 281/71/265 88/74/265
f 100/75/266 67/73/266 62/72/266
f 513/70/267 506/73/267 87/66/267
f 203/73/268 185/75/268 2/66/268
f 49/76/269 97/77/269 147/78/269
f 298/79/270 249/78/270 356/77/270
f 424/77/271 350/76/271 533/80/271
f 525/81/272 530/80/272 534/82/272
f 98/81/273 393/77/273 340/80/273
f 207/83/274 494/78/274 546/84/274
f 463/85/275 418/68/275 3/86/275
f 421/68/276 184/69/276 150/86/276
f 418/85/277 463/86/277 1/84/277
f 546/79/278 149/84/278 336/78/278
f 330/83/279 361/84/279 85/86/279
f 526/87/280 453/74/280 192/71/280
f 423/88/281 396/89/281 286/90/281
f 455/89/282 364/91/282 213/90/282
f 304/92/283 295/90/283 376/58/283
f 281/92/284 506/58/284 240/93/284
f 87/88/285 506/90/285 328/92/285
f 250/89/286 376/80/286 295/91/286
f 235/76/287 238/78/287 237/94/287
f 377/78/288 501/7/288 252/94/288
f 478/76/289 474/94/289 401/80/289
f 326/80/290 42/95/290 316/91/290
f 350/95/291 156/80/291 533/94/291
f 407/96/292 442/97/292 439/98/292
f 84/96/293 339/99/293 37/97/293
f 227/51/294 235/98/294 229/97/294
f 226/87/294 235/98/294 227/74/294
f 465/98/295 93/51/295 189/74/295
f 235/99/294 231/100/294 229/97/294
f 423/101/296 265/93/296 244/102/296
f 231/101/297 234/92/297 232/93/297
f 442/103/298 356/102/298 336/93/298
f 502/99/299 87/102/299 522/100/299
f 325/102/300 451/103/300 507/100/300
f 313/79/301 485/77/301 535/104/301
f 439/84/302 251/79/302 49/104/302
f 186/77/303 39/81/303 146/104/303
f 532/82/304 308/105/304 35/104/304
f 156/81/305 355/82/305 533/104/305
f 332/85/306 47/84/306 8/104/306
f 351/63/307 374/106/307 460/64/307
f 183/106/308 94/70/308 443/64/308
f 194/63/309 189/65/309 273/104/309
f 498/68/310 194/85/310 27/104/310
f 540/65/311 92/68/311 52/104/311
f 360/107/312 536/108/312 348/104/312
f 508/109/313 94/107/313 88/104/313
f 317/108/314 469/110/314 230/104/314
f 154/106/315 492/63/315 537/104/315
f 295/110/316 352/106/316 303/104/316
f 24/111/317 160/109/317 441/104/317
f 13/112/318 384/113/318 257/104/318
f 544/105/319 427/112/319 30/104/319
f 249/113/320 298/114/320 325/104/320
f 350/115/321 464/111/321 413/104/321
f 511/114/322 319/115/322 400/104/322
f 223/70/294 235/106/294 226/73/294
f 378/113/323 540/101/323 394/102/323
f 231/101/324 235/113/324 234/92/324
f 215/114/325 19/113/325 370/102/325
f 243/99/326 343/115/326 470/102/326
f 494/114/327 403/102/327 44/115/327
f 144/112/328 157/92/328 297/113/328
f 544/82/329 30/89/329 312/105/329
f 150/89/330 406/82/330 145/80/330
f 529/88/331 523/105/331 422/89/331
f 184/112/332 517/105/332 298/92/332
f 247/105/333 352/88/333 380/92/333
f 362/108/334 534/107/334 530/71/334
f 313/107/335 417/87/335 209/71/335
f 487/108/336 186/71/336 339/73/336
f 347/110/337 21/73/337 148/106/337
f 14/110/338 387/108/338 470/73/338
f 2/87/339 482/107/339 12/98/339
f 335/96/340 454/111/340 49/99/340
f 344/115/341 213/99/341 364/111/341
f 364/111/342 455/96/342 358/98/342
f 428/109/343 183/98/343 250/107/343
f 506/109/344 491/111/344 328/98/344
f 241/116/345 235/69/345 242/117/345
f 399/69/346 525/116/346 476/86/346
f 32/67/347 196/117/347 309/69/347
f 367/64/348 366/11/348 368/117/348
f 235/67/349 223/64/349 242/117/349
f 320/83/350 503/118/350 488/78/350
f 158/7/351 527/78/351 371/118/351
f 238/83/352 235/86/352 239/118/352
f 161/119/353 532/86/353 35/116/353
f 235/86/294 241/119/294 239/118/294
f 427/120/354 190/121/354 40/122/354
f 204/121/355 214/120/355 39/123/355
f 59/123/356 326/120/356 316/124/356
f 510/125/357 191/126/357 17/127/357
f 516/121/358 355/123/358 378/128/358
f 430/129/359 459/130/359 228/124/359
f 481/129/360 271/131/360 324/132/360
f 19/131/361 297/120/361 363/122/361
f 326/129/362 518/133/362 246/130/362
f 469/130/363 386/133/363 457/134/363
f 282/133/364 75/129/364 449/132/364
f 337/135/365 433/126/365 473/125/365
f 23/136/366 528/137/366 152/138/366
f 146/138/367 39/139/367 342/136/367
f 17/137/368 432/136/368 157/140/368
f 194/141/369 273/140/369 13/142/369
f 379/140/370 154/141/370 316/137/370
f 248/143/371 155/144/371 388/145/371
f 153/137/372 503/146/372 446/147/372
f 433/147/373 385/138/373 286/137/373
f 386/146/374 502/137/374 457/141/374
f 540/148/375 378/143/375 92/145/375
f 183/142/376 15/143/376 279/148/376
f 370/120/377 278/129/377 320/124/377
f 530/149/378 251/150/378 221/151/378
f 2/150/379 12/149/379 5/152/379
f 251/152/380 149/149/380 221/126/380
f 444/149/381 397/153/381 478/154/381
f 62/150/382 151/152/382 500/155/382
f 219/150/383 257/156/383 384/151/383
f 21/157/384 319/158/384 349/128/384
f 284/158/385 84/156/385 202/159/385
f 393/150/386 152/160/386 528/156/386
f 295/156/387 260/160/387 250/159/387
f 189/160/388 47/150/388 273/155/388
f 263/153/389 182/149/389 401/151/389
f 317/153/390 328/123/390 469/124/390
f 275/123/391 197/153/391 281/157/391
f 197/157/392 506/153/392 281/151/392
f 413/129/393 272/120/393 495/131/393
f 402/123/394 217/157/394 36/128/394
f 300/154/395 293/161/395 333/126/395
f 373/149/396 218/154/396 458/126/396
f 412/154/397 148/153/397 497/124/397
f 9/154/398 360/130/398 348/161/398
f 377/161/399 249/130/399 127/134/399
f 538/130/400 190/154/400 201/124/400
f 139/162/401 95/163/401 521/164/401
f 524/163/402 441/162/402 160/165/402
f 525/162/403 399/164/403 280/166/403
f 452/167/404 75/166/404 437/168/404
f 286/167/405 55/162/405 265/166/405
f 148/169/406 412/165/406 427/162/406
f 279/164/407 72/170/407 376/171/407
f 18/164/408 521/163/408 95/170/408
f 1/166/409 199/164/409 93/171/409
f 149/168/410 251/166/410 82/172/410
f 528/166/411 23/171/411 277/172/411
f 36/173/412 210/167/412 29/168/412
f 397/174/413 84/175/413 478/176/413
f 319/176/414 160/175/414 24/177/414
f 534/174/415 371/176/415 525/178/415
f 405/179/416 480/178/416 156/180/416
f 245/179/417 489/174/417 409/178/417
f 405/177/418 350/175/418 413/181/418
f 465/182/419 418/183/419 93/184/419
f 354/183/420 52/170/420 195/184/420
f 443/181/421 94/185/421 340/177/421
f 492/186/422 355/181/422 410/175/422
f 462/178/423 67/176/423 448/187/423
f 537/170/424 481/163/424 316/188/424
f 444/189/425 246/140/425 397/136/425
f 187/136/426 84/190/426 397/189/426
f 191/140/427 188/189/427 10/191/427
f 519/189/428 385/192/428 504/193/428
f 524/191/429 233/189/429 151/193/429
f 208/190/430 75/136/430 366/139/430
f 329/142/431 485/191/431 266/143/431
f 6/140/432 289/191/432 145/142/432
f 93/191/433 8/193/433 189/143/433
f 517/193/434 195/194/434 377/144/434
f 21/143/435 536/193/435 360/144/435
f 472/193/436 365/192/436 487/194/436
f 314/171/437 528/183/437 277/182/437
f 448/171/438 22/170/438 25/183/438
f 92/172/439 378/171/439 420/182/439
f 12/188/440 188/163/440 5/195/440
f 429/165/441 314/195/441 288/163/441
f 373/170/442 262/188/442 428/184/442
f 488/142/443 343/148/443 459/146/443
f 37/146/444 296/141/444 345/142/444
f 18/148/445 369/147/445 357/146/445
f 98/195/446 531/184/446 393/188/446
f 272/148/447 208/145/447 366/147/447
f 456/196/448 270/197/448 26/198/448
f 329/199/449 266/200/449 208/201/449
f 424/196/450 412/202/450 200/197/450
f 504/202/451 340/203/451 393/204/451
f 196/202/452 16/204/452 309/197/452
f 501/201/453 377/205/453 526/199/453
f 283/206/454 437/196/454 300/199/454
f 326/199/455 444/196/455 182/198/455
f 298/207/456 356/206/456 198/199/456
f 442/200/457 251/199/457 439/208/457
f 507/199/458 484/198/458 325/208/458
f 7/209/459 91/210/459 411/211/459
f 460/209/460 100/212/460 62/213/460
f 143/212/461 526/209/461 294/211/461
f 153/213/462 359/214/462 387/209/462
f 369/213/463 158/215/463 357/216/463
f 383/214/464 471/213/464 416/216/464
f 348/211/465 309/217/465 308/212/465
f 485/218/466 28/214/466 535/219/466
f 274/210/467 225/209/467 498/214/467
f 4/214/468 19/216/468 363/219/468
f 299/216/469 436/220/469 152/221/469
f 385/219/470 519/216/470 286/221/470
f 64/207/471 269/222/471 442/223/471
f 222/204/472 299/224/472 486/225/472
f 346/197/473 358/204/473 455/225/473
f 310/198/474 391/197/474 249/226/474
f 47/208/475 384/198/475 13/226/475
f 509/197/476 505/225/476 517/226/476
f 7/227/477 246/224/477 518/204/477
f 23/228/478 435/229/478 305/202/478
f 357/202/479 33/196/479 521/228/479
f 517/203/480 325/202/480 298/229/480
f 139/204/481 201/203/481 529/227/481
f 96/229/482 527/227/482 158/203/482
f 489/226/483 245/230/483 462/208/483
f 277/205/484 305/231/484 101/232/484
f 443/199/485 15/205/485 183/232/485
f 160/207/486 347/199/486 408/232/486
f 145/206/487 301/207/487 255/223/487
f 500/232/488 233/222/488 22/207/488
f 1/201/489 253/233/489 291/231/489
f 483/230/490 379/234/490 42/200/490
f 399/200/491 515/208/491 145/230/491
f 94/201/492 98/200/492 340/233/492
f 190/205/493 523/201/493 529/231/493
f 221/200/494 44/234/494 403/233/494
f 518/235/495 91/236/495 7/132/495
f 372/131/496 313/235/496 458/132/496
f 149/236/497 44/235/497 221/237/497
f 361/158/498 10/238/498 188/239/498
f 196/132/499 482/236/499 16/240/499
f 423/235/500 244/241/500 259/237/500
f 3/121/501 418/241/501 225/122/501
f 157/241/502 332/239/502 83/237/502
f 346/239/503 345/121/503 358/128/503
f 285/241/504 502/131/504 522/122/504
f 212/131/505 381/241/505 41/235/505
f 443/238/506 142/158/506 15/159/506
f 228/160/507 459/242/507 243/159/507
f 15/242/508 72/160/508 279/240/508
f 99/240/509 47/160/509 432/155/509
f 11/156/510 496/157/510 542/151/510
f 19/157/511 144/156/511 297/158/511
f 270/236/512 456/242/512 129/240/512
f 314/158/513 161/239/513 35/128/513
f 296/239/514 381/238/514 345/237/514
f 395/236/515 400/238/515 538/242/515
f 271/242/516 537/238/516 156/159/516
f 527/238/517 394/236/517 354/237/517
f 453/239/518 92/241/518 420/121/518
f 497/215/519 148/243/519 360/244/519
f 139/245/520 467/243/520 201/215/520
f 143/243/521 501/246/521 526/244/521
f 4/210/522 363/214/522 185/218/522
f 546/211/523 475/210/523 207/218/523
f 293/213/524 282/245/524 449/215/524
f 123/215/525 510/244/525 17/220/525
f 487/216/526 339/215/526 187/220/526
f 501/217/527 447/247/527 336/245/527
f 474/245/528 284/213/528 202/212/528
f 129/245/529 479/212/529 482/217/529
f 31/218/530 435/219/530 23/211/530
f 378/246/531 355/243/531 492/248/531
f 526/243/532 192/245/532 263/248/532
f 204/249/533 186/211/533 258/219/533
f 464/250/534 200/249/534 497/221/534
f 149/219/535 82/221/535 336/249/535
f 28/248/536 9/245/536 535/247/536
f 240/251/537 486/250/537 508/220/537
f 294/250/538 276/221/538 143/220/538
f 421/251/539 255/220/539 542/244/539
f 219/246/540 214/252/540 257/244/540
f 161/252/541 314/251/541 277/244/541
f 336/253/542 249/254/542 252/255/542
f 429/256/543 393/253/543 528/255/543
f 404/257/544 428/256/544 461/255/544
f 299/258/545 222/259/545 31/260/545
f 520/261/546 216/256/546 543/257/546
f 477/260/547 219/259/547 99/262/547
f 215/263/548 370/264/548 123/265/548
f 341/265/549 338/266/549 368/263/549
f 135/267/550 322/265/550 524/264/550
f 236/268/551 86/267/551 34/269/551
f 267/267/552 488/264/552 311/269/552
f 510/270/553 5/271/553 191/272/553
f 16/259/554 479/261/554 434/257/554
f 456/253/555 429/273/555 288/254/555
f 193/259/556 101/257/556 275/274/556
f 10/273/557 99/275/557 432/276/557
f 306/276/558 302/275/558 398/277/558
f 394/278/559 516/268/559 378/269/559
f 202/270/560 345/260/560 346/271/560
f 363/279/561 270/270/561 129/272/561
f 1/270/562 463/258/562 337/260/562
f 345/280/563 202/268/563 37/281/563
f 527/268/564 96/278/564 394/281/564
f 330/266/565 85/279/565 349/263/565
f 539/282/566 475/283/566 447/262/566
f 469/282/567 490/262/567 471/274/567
f 182/284/568 478/285/568 401/286/568
f 75/283/569 452/285/569 366/284/569
f 300/286/570 415/287/570 283/284/570
f 147/274/571 97/288/571 90/282/571
f 442/255/572 82/289/572 251/257/572
f 267/278/573 470/269/573 343/290/573
f 309/289/574 348/291/574 32/257/574
f 33/274/575 212/257/575 41/291/575
f 433/291/576 286/288/576 396/274/576
f 511/284/577 206/262/577 349/283/577
f 213/292/578 344/289/578 362/255/578
f 418/293/579 465/292/579 225/255/579
f 263/276/580 302/254/580 526/273/580
f 328/259/581 491/274/581 386/262/581
f 261/276/582 272/293/582 413/254/582
f 273/293/583 47/255/583 13/254/583
f 504/294/584 385/287/584 340/286/584
f 89/286/585 310/295/585 249/294/585
f 407/294/586 64/295/586 442/296/586
f 28/296/587 329/297/587 261/298/587
f 422/296/588 523/298/588 427/294/588
f 354/286/589 540/285/589 52/299/589
f 275/300/590 101/286/590 197/299/590
f 9/299/591 28/285/591 360/301/591
f 420/301/592 378/283/592 154/302/592
f 11/285/593 290/283/593 292/301/593
f 31/295/594 513/286/594 87/300/594
f 329/297/595 208/296/595 272/303/595
f 471/304/596 383/297/596 230/303/596
f 276/303/597 294/296/597 302/305/597
f 254/305/598 49/295/598 147/300/598
f 359/296/599 243/295/599 387/305/599
f 387/283/600 311/282/600 153/302/600
f 38/306/601 322/307/601 440/308/601
f 464/307/602 424/306/602 200/309/602
f 274/309/603 204/306/603 258/310/603
f 408/309/604 211/311/604 160/312/604
f 210/307/605 214/309/605 219/313/605
f 88/291/606 240/289/606 508/314/606
f 436/282/607 299/288/607 31/315/607
f 438/302/608 243/282/608 359/315/608
f 521/315/609 33/288/609 139/316/609
f 484/316/610 287/291/610 325/314/610
f 528/288/611 314/291/611 429/316/611
f 320/317/612 278/297/612 503/304/612
f 442/318/613 336/280/613 82/281/613
f 200/319/614 412/320/614 497/318/614
f 456/318/615 26/320/615 429/280/615
f 252/314/616 501/289/616 336/321/616
f 20/317/617 262/322/617 535/319/617
f 439/317/618 49/319/618 454/318/618
f 249/275/619 325/319/619 287/277/619
f 515/320/620 399/319/620 476/275/620
f 433/319/621 337/322/621 385/277/621
f 360/281/622 28/297/622 261/317/622
f 292/317/623 389/318/623 11/281/623
f 183/289/624 88/292/624 94/321/624
f 448/277/625 100/322/625 374/323/625
f 380/324/626 425/277/626 247/323/626
f 480/323/627 405/322/627 413/325/627
f 142/325/628 385/317/628 205/304/628
f 415/322/629 426/317/629 283/325/629
f 38/276/630 440/277/630 462/324/630
f 148/292/631 544/293/631 347/326/631
f 72/321/632 304/292/632 376/326/632
f 479/326/633 456/293/633 288/327/633
f 197/327/634 305/276/634 491/324/634
f 486/293/635 299/276/635 531/327/635
f 463/328/636 3/329/636 247/139/636
f 357/328/637 344/139/637 364/138/637
f 203/139/638 132/329/638 228/190/638
f 230/329/639 416/330/639 317/192/639
f 266/330/640 293/194/640 449/192/640
f 435/328/641 124/138/641 305/147/641
f 512/331/642 417/332/642 271/333/642
f 205/334/643 425/331/643 142/333/643
f 96/333/644 355/332/644 516/335/644
f 421/336/645 496/337/645 184/338/645
f 95/332/646 139/339/646 529/335/646
f 245/340/647 524/184/647 151/195/647
f 464/341/648 350/162/648 424/167/648
f 373/169/649 260/162/649 218/341/649
f 529/173/650 422/341/650 533/167/650
f 478/342/651 182/343/651 444/181/651
f 272/184/652 366/344/652 367/182/652
f 377/340/653 195/165/653 526/169/653
f 415/344/654 414/173/654 69/172/654
f 161/172/655 193/182/655 532/344/655
f 39/340/656 186/195/656 204/165/656
f 192/341/657 420/340/657 483/169/657
f 205/168/658 463/172/658 247/173/658
f 72/345/659 380/331/659 304/334/659
f 1/346/660 26/179/660 199/347/660
f 544/346/661 148/348/661 427/179/661
f 458/177/662 313/185/662 535/176/662
f 339/338/663 84/349/663 187/336/663
f 250/187/664 183/176/664 376/185/664
f 339/348/665 186/174/665 146/179/665
f 96/186/666 516/350/666 394/351/666
f 123/347/667 370/179/667 320/180/667
f 211/350/668 408/186/668 322/348/668
f 448/348/669 38/175/669 462/174/669
f 348/175/670 85/348/670 32/186/670
f 129/336/671 185/352/671 363/337/671
f 340/353/672 385/333/672 142/354/672
f 25/334/673 38/333/673 448/353/673
f 305/333/674 277/335/674 23/354/674
f 444/331/675 326/345/675 246/349/675
f 411/349/676 295/355/676 303/331/676
f 151/352/677 233/334/677 500/353/677
f 185/353/678 129/354/678 482/337/678
f 265/352/679 86/353/679 244/337/679
f 219/345/680 29/336/680 210/349/680
f 93/345/681 199/334/681 8/352/681
f 387/336/682 267/345/682 311/352/682
f 31/356/683 222/272/683 513/287/683
f 36/272/684 217/271/684 342/287/684
f 441/294/685 524/356/685 245/287/685
f 220/290/686 389/298/686 256/278/686
f 519/290/687 504/356/687 55/294/687
f 489/271/688 312/284/688 40/287/688
f 412/350/689 422/346/689 427/357/689
f 201/192/690 327/190/690 395/329/690
f 305/350/691 124/348/691 491/346/691
f 293/284/692 323/260/692 333/262/692
f 101/271/693 305/260/693 197/284/693
f 306/298/694 539/290/694 447/294/694
f 1/358/695 93/359/695 418/356/695
f 245/358/696 151/356/696 462/290/696
f 389/264/697 520/359/697 543/358/697
f 370/269/698 203/358/698 278/290/698
f 20/358/699 348/269/699 308/264/699
f 409/359/700 40/264/700 190/263/700
f 430/281/701 5/278/701 510/297/701
f 325/278/702 517/298/702 451/297/702
f 352/359/703 247/272/703 365/356/703
f 531/359/704 152/263/704 393/279/704
f 297/272/705 83/359/705 270/279/705
f 331/189/706 253/190/706 473/192/706
f 367/347/707 368/360/707 338/346/707
f 545/361/708 457/351/708 285/350/708
f 5/362/709 188/360/709 191/347/709
f 490/360/710 545/357/710 471/346/710
f 448/357/711 67/361/711 100/350/711
f 317/363/712 416/362/712 514/347/712
f 21/180/713 347/178/713 319/187/713
f 348/181/714 536/343/714 85/185/714
f 522/342/715 87/186/715 514/351/715
f 334/180/716 522/363/716 514/347/716
f 400/342/717 24/181/717 538/186/717
f 84/343/718 284/187/718 478/185/718
f 313/332/719 372/331/719 382/364/719
f 480/364/720 512/331/720 271/355/720
f 271/339/721 156/332/721 480/364/721
f 512/365/722 341/366/722 375/337/722
f 146/366/723 37/338/723 339/337/723
f 307/339/724 406/367/724 445/335/724
f 504/365/725 429/337/725 26/354/725
f 184/343/726 496/180/726 517/187/726
f 55/368/727 291/365/727 265/354/727
f 20/367/728 535/368/728 9/335/728
f 272/368/729 261/354/729 329/335/729
f 430/369/730 510/370/730 459/371/730
f 228/372/731 243/369/731 438/371/731
f 405/373/732 156/372/732 350/371/732
f 27/374/733 194/375/733 13/376/733
f 389/375/734 220/377/734 493/378/734
f 460/370/735 374/369/735 100/379/735
f 472/379/736 187/369/736 397/380/736
f 363/380/737 297/381/737 270/379/737
f 318/382/738 426/383/738 415/384/738
f 195/379/739 496/384/739 354/370/739
f 143/384/740 276/379/740 501/382/740
f 479/375/741 16/378/741 482/376/741
f 499/385/742 331/386/742 396/376/742
f 210/374/743 36/376/743 342/386/743
f 291/387/744 253/388/744 34/389/744
f 255/390/745 421/391/745 145/392/745
f 19/393/746 4/389/746 370/388/746
f 393/386/747 429/394/747 504/374/747
f 457/378/748 545/395/748 490/385/748
f 17/376/749 191/378/749 432/385/749
f 332/383/750 8/382/750 83/394/750
f 417/385/751 313/383/751 382/386/751
f 198/394/752 442/386/752 97/383/752
f 468/396/753 333/382/753 392/379/753
f 333/392/754 414/391/754 415/397/754
f 483/398/755 263/392/755 192/397/755
f 377/344/756 127/397/756 517/391/756
f 132/390/757 2/374/757 430/399/757
f 390/391/758 209/400/758 512/344/758
f 22/377/759 448/392/759 374/398/759
f 423/401/760 259/402/760 224/403/760
f 495/404/761 338/405/761 413/406/761
f 468/407/762 541/328/762 414/408/762
f 356/408/763 249/409/763 336/410/763
f 541/328/764 69/409/764 414/408/764
f 379/374/765 483/394/765 420/399/765
f 298/410/766 406/396/766 184/381/766
f 277/408/767 193/410/767 161/381/767
f 517/407/768 127/408/768 509/380/768
f 324/381/769 271/396/769 417/379/769
f 55/408/770 1/381/770 291/380/770
f 42/399/771 379/396/771 316/410/771
f 510/399/772 320/400/772 459/391/772
f 183/391/773 279/390/773 376/399/773
f 414/399/774 333/394/774 468/396/774
f 29/400/775 477/399/775 206/410/775
f 404/394/776 461/382/776 275/396/776
f 433/366/777 396/365/777 331/404/777
f 94/411/778 508/412/778 98/330/778
f 465/368/779 498/367/779 225/405/779
f 374/404/780 500/365/780 22/368/780
f 368/405/781 323/404/781 341/368/781
f 326/329/782 59/328/782 518/411/782
f 445/413/783 268/194/783 280/330/783
f 341/145/784 323/144/784 375/413/784
f 388/413/785 450/144/785 389/194/785
f 260/330/786 373/329/786 428/411/786
f 293/330/787 300/412/787 437/413/787
f 426/405/788 318/339/788 69/364/788
f 353/342/789 534/401/789 362/403/789
f 432/351/790 47/414/790 332/401/790
f 438/343/791 153/342/791 446/403/791
f 203/341/792 228/410/792 278/409/792
f 348/340/793 20/341/793 9/409/793
f 280/342/794 307/351/794 445/401/794
f 419/364/795 193/402/795 461/405/795
f 287/405/796 89/367/796 249/339/796
f 40/364/797 409/355/797 489/403/797
f 307/403/798 145/402/798 406/364/798
f 210/355/799 39/349/799 214/403/799
f 420/413/800 192/412/800 453/362/800
f 452/415/801 466/416/801 392/417/801
f 193/418/802 419/419/802 532/415/802
f 449/417/803 208/420/803 266/415/803
f 315/421/804 372/419/804 518/422/804
f 315/418/805 324/415/805 382/420/805
f 315/416/806 518/415/806 59/419/806
f 531/392/807 299/375/807 152/374/807
f 244/374/808 86/390/808 259/392/808
f 254/392/809 335/377/809 49/375/809
f 1/423/810 55/424/810 26/425/810
f 7/423/811 472/426/811 246/424/811
f 207/422/812 475/427/812 346/421/812
f 29/360/813 206/362/813 36/428/813
f 25/357/814 22/360/814 233/428/814
f 253/362/815 337/412/815 473/428/815
f 440/363/816 312/180/816 489/413/816
f 329/362/817 28/363/817 485/413/817
f 135/357/818 524/428/818 211/414/818
f 541/427/819 466/422/819 426/423/819
f 463/406/820 385/421/820 337/427/820
f 203/429/821 370/430/821 185/431/821
f 300/361/822 333/357/822 415/414/822
f 328/351/823 386/361/823 469/414/823
f 338/240/824 495/432/824 367/132/824
f 35/433/825 434/132/825 288/432/825
f 18/388/826 96/387/826 369/434/826
f 440/393/827 544/388/827 312/434/827
f 213/387/828 362/435/828 221/434/828
f 21/436/829 360/433/829 148/432/829
f 398/135/830 302/437/830 263/438/830
f 20/438/831 532/439/831 419/135/831
f 306/387/832 276/438/832 302/437/832
f 410/433/833 355/436/833 156/440/833
f 293/437/834 375/435/834 323/387/834
f 219/135/835 477/439/835 29/441/835
f 263/418/836 401/442/836 398/443/836
f 72/443/837 425/419/837 380/418/837
f 224/426/838 499/443/838 396/442/838
f 49/328/839 280/407/839 268/411/839
f 25/442/840 524/444/840 322/426/840
f 452/443/841 437/426/841 466/423/841
f 366/445/842 452/446/842 392/431/842
f 519/135/843 55/441/843 286/447/843
f 154/445/844 378/431/844 492/430/844
f 19/423/845 215/422/845 144/443/845
f 532/422/846 20/419/846 308/443/846
f 465/448/847 194/449/847 498/450/847
f 144/451/848 17/452/848 157/453/848
f 512/454/849 480/452/849 341/451/849
f 30/455/850 40/436/850 312/432/850
f 182/456/851 483/432/851 42/457/851
f 496/432/852 421/456/852 542/455/852
f 323/450/853 368/454/853 392/451/853
f 225/458/854 274/459/854 258/460/854
f 466/459/855 283/458/855 426/461/855
f 525/459/856 49/461/856 530/462/856
f 219/430/857 384/452/857 99/454/857
f 368/454/858 366/445/858 392/430/858
f 59/432/859 316/240/859 481/457/859
f 330/463/860 206/448/860 477/451/860
f 390/453/861 512/463/861 375/451/861
f 265/448/862 291/434/862 86/449/862
f 294/451/863 526/448/863 302/450/863
f 434/434/864 479/435/864 288/449/864
f 209/393/865 417/434/865 512/448/865
f 353/447/866 357/464/866 158/155/866
f 3/155/867 258/135/867 365/447/867
f 75/240/868 282/155/868 293/464/868
f 529/463/869 201/393/869 190/448/869
f 322/464/870 135/457/870 211/240/870
f 394/465/871 540/417/871 354/466/871
f 468/467/872 392/465/872 466/466/872
f 308/401/873 309/467/873 35/402/873
f 97/419/874 445/421/874 198/416/874
f 468/467/875 466/466/875 541/402/875
f 309/468/876 16/467/876 434/401/876
f 410/417/877 537/465/877 492/469/877
f 357/469/878 353/420/878 344/417/878
f 196/470/879 32/469/879 361/465/879
f 153/414/880 438/468/880 359/401/880
f 510/468/881 123/465/881 320/467/881
f 471/417/882 230/416/882 469/466/882
f 319/427/883 347/471/883 160/472/883
f 31/460/884 23/472/884 436/471/884
f 261/472/885 497/406/885 360/427/885
f 488/406/886 459/472/886 320/404/886
f 317/460/887 514/404/887 328/472/887
f 422/471/888 424/427/888 533/423/888
f 495/406/889 272/405/889 367/416/889
f 222/416/890 486/421/890 513/406/890
f 472/466/891 7/416/891 303/402/891
f 361/423/892 330/425/892 99/471/892
f 154/416/893 537/405/893 316/402/893
f 247/420/894 3/469/894 365/473/894
f 408/474/895 347/475/895 544/412/895
f 461/411/896 262/474/896 20/412/896
f 340/428/897 142/412/897 443/476/897
f 278/414/898 446/428/898 503/468/898
f 525/412/899 280/475/899 49/476/899
f 440/372/900 489/373/900 462/475/900
f 327/369/901 217/372/901 402/474/901
f 20/380/902 419/369/902 461/474/902
f 395/407/903 511/380/903 400/411/903
f 411/474/904 91/372/904 260/475/904
f 145/380/905 421/474/905 150/411/905
f 249/428/906 391/476/906 127/468/906
f 539/371/907 474/477/907 475/478/907
f 322/373/908 38/371/908 25/478/908
f 523/478/909 190/477/909 427/465/909
f 190/473/910 538/418/910 409/420/910
f 536/477/911 21/470/911 349/465/911
f 266/429/912 485/453/912 390/452/912
f 286/475/913 265/373/913 423/478/913
f 261/476/914 464/475/914 497/478/914
f 79/468/915 207/476/915 346/478/915
f 338/452/916 341/430/916 480/429/916
f 151/478/917 62/465/917 67/468/917
f 388/479/918 155/480/918 450/134/918
f 433/481/919 331/479/919 473/132/919
f 438/134/920 446/133/920 278/479/920
f 36/127/921 511/134/921 402/480/921
f 411/133/922 260/132/922 295/479/922
f 517/132/923 496/433/923 195/482/923
f 526/161/924 195/134/924 52/127/924
f 464/440/925 261/483/925 413/433/925
f 499/127/926 259/126/926 236/161/926
f 527/482/927 354/481/927 216/132/927
f 293/482/928 437/433/928 75/483/928
f 101/425/929 193/484/929 277/458/929
f 479/485/930 129/486/930 456/487/930
f 333/485/931 323/488/931 392/486/931
f 34/489/932 86/490/932 291/491/932
f 411/487/933 303/489/933 7/485/933
f 434/490/934 35/492/934 309/491/934
f 196/493/935 12/488/935 482/485/935
f 458/471/936 218/458/936 372/460/936
f 283/458/937 466/471/937 437/425/937
f 197/494/938 491/444/938 506/495/938
f 504/485/939 26/495/939 55/493/939
f 3/444/940 225/493/940 258/495/940
f 458/483/941 262/440/941 373/445/941
f 262/418/942 461/496/942 428/442/942
f 355/217/943 96/211/943 533/442/943
f 403/496/944 494/217/944 79/442/944
f 481/135/945 324/125/945 59/437/945
f 259/211/946 86/497/946 236/442/946
f 511/498/947 36/446/947 206/248/947
f 330/217/948 477/496/948 99/247/948
f 280/499/949 399/496/949 307/418/949
