# Blender 5.1.1
# www.blender.org
o Куб.001
v 0.538989 0.941117 0.634657
v 0.532479 2.425784 0.477118
v 0.602205 1.041163 -0.272426
v 0.619472 2.362963 -0.212273
v -0.001424 1.005114 -0.320783
v -0.000000 2.480862 -0.357245
v 0.708438 1.663173 0.007262
v 0.612677 0.902751 0.122062
v 0.609568 2.444452 0.128171
v 0.650938 1.627341 0.513549
v -0.003947 0.944367 0.677888
v -0.000000 2.544096 0.544675
v 0.718803 1.658331 0.115800
v -0.001921 0.901072 0.186745
v -0.000000 2.614716 0.130571
v 0.820973 0.513418 -1.203238
v 0.537649 2.267511 -0.498021
v -0.001306 1.089610 -0.578900
v 0.000000 2.280686 -0.622767
v 0.464321 1.377684 -0.829540
v 0.464300 2.109547 -0.748990
v 0.090363 0.817695 3.130751
v -0.000896 1.206722 -0.799668
v -0.000000 2.103516 -0.887623
v 0.561867 1.733978 -0.872154
v -0.000158 1.592047 -0.915856
v 0.084677 1.208036 3.220518
v 0.172094 1.603929 3.043785
v 0.457851 1.090638 1.271795
v 0.499991 2.377049 0.889560
v 0.175772 0.847613 2.930900
v 0.613039 1.641765 0.881192
v -0.006197 0.978252 1.125451
v -0.000058 2.487235 0.979386
v 0.059274 0.821940 3.362293
v 0.033850 0.977140 3.434564
v 0.047665 0.779772 3.249720
v 0.570340 2.528199 1.239684
v 0.540814 0.499476 1.615680
v -0.004990 0.934223 1.475761
v 0.004581 2.647972 1.345342
v 0.118300 1.417660 3.221848
v 0.136209 0.819952 3.044499
v 0.177045 1.791009 2.826710
v 0.583003 2.528340 1.435916
v 0.445719 0.503056 1.674165
v -0.003786 0.975204 1.620999
v 0.002130 2.653731 1.544471
v 0.190837 0.883059 2.815648
v 0.177045 1.911446 2.652870
v 0.177045 0.923862 2.674708
v 0.540207 2.469419 1.719261
v 0.661619 1.882829 1.774422
v 0.544528 1.164075 2.027402
v -0.001590 1.072071 1.784552
v 0.000047 2.587707 1.817999
v 0.181751 2.061430 2.402069
v 0.181751 1.082999 2.321400
v 0.452884 2.250745 2.003670
v 0.554482 1.631925 1.935635
v 0.455768 1.369387 1.954622
v -0.000594 1.156340 1.917935
v -0.000000 2.337345 2.103147
v 0.227127 2.303801 2.070441
v 0.228181 1.254546 1.937861
v 0.271600 2.554620 1.765669
v 0.353835 1.107435 1.793941
v 0.364925 2.004094 2.357391
v 0.444993 1.434440 2.322047
v 0.364925 1.135367 2.264569
v 0.000000 1.048490 2.333202
v 0.000000 2.090647 2.404529
v 0.293600 2.618774 1.479477
v 0.298377 1.089535 1.689467
v 0.287299 2.616055 1.276950
v 0.355746 1.862637 2.609910
v 0.433703 1.374102 2.605266
v 0.355746 0.972337 2.624659
v 0.000000 0.897132 2.661631
v 0.000000 1.938161 2.640414
v 0.298035 1.118033 1.673944
v 0.250990 2.456718 0.911335
v 0.322572 1.096155 1.442368
v 0.372539 1.609385 2.783344
v 0.455708 1.400239 2.750103
v 0.382651 0.934034 2.771673
v 0.000000 0.857069 2.797857
v 0.000000 1.819836 2.807433
v 0.248969 1.648913 -0.901367
v 0.203268 2.099922 -0.851208
v 0.324486 1.312627 -0.789832
v 0.241143 1.391650 3.168838
v 0.339854 1.152634 3.063514
v 0.276080 0.857644 3.007197
v 0.000000 0.810459 3.009112
v 0.000000 1.441818 3.193206
v 0.249692 2.254308 -0.659623
v 0.282655 1.132970 -0.567881
v 0.307155 2.556768 0.094071
v 0.069124 0.978392 3.412399
v 0.125993 0.838445 3.325041
v 0.103346 0.805834 3.247427
v 0.000000 0.769332 3.258297
v 0.064203 0.926372 3.416523
v 0.000000 0.812117 3.357442
v 0.465527 1.441251 2.838641
v 0.000000 0.829870 2.905863
v 0.353261 0.892197 2.888832
v 0.308637 0.883787 0.098714
v 0.000000 1.635338 3.020517
v 0.402860 1.573956 2.865737
v 0.267639 2.510685 0.480969
v 0.000000 1.210670 3.219716
v 0.270885 0.913087 0.634461
v 0.301735 2.446849 -0.392372
v 0.356870 1.000626 -0.337458
v 0.186642 0.848927 3.094993
v 0.000000 0.814773 3.089580
v 0.210413 0.995534 3.194289
v 0.175549 1.175087 3.196831
v 0.070240 0.798504 3.184972
v 0.067630 1.056042 3.339557
v 0.139993 0.817416 3.177950
v 0.161300 0.917856 3.259089
v 0.000000 1.064727 3.328454
v 0.000000 0.792370 3.170010
v 0.134901 1.046020 3.308403
v 0.611394 2.248695 0.987974
v 0.712103 1.630332 0.947025
v 0.655671 1.173167 1.294573
v 0.671599 2.399075 1.229950
v 0.791688 1.660939 1.450295
v 0.810679 1.172565 1.741750
v 0.636569 2.422681 1.417533
v 0.804254 1.762576 1.597075
v 0.820358 1.182102 1.921443
v 0.640686 2.287381 1.585409
v 0.755211 1.874558 1.747531
v 0.751578 1.214954 2.043386
v 0.429807 0.730297 1.547679
v 0.528827 0.753409 1.471927
v 0.740960 0.771111 2.009509
v 0.589955 0.751733 2.054067
v 0.791651 0.747618 1.891942
v 0.406194 0.706915 1.781414
v 0.784856 0.744387 1.760811
v 0.672444 0.771280 1.467802
v 0.408692 0.706138 1.912162
v 0.451795 0.732423 1.987780
v 0.749078 0.560741 1.983882
v 0.600304 0.563232 2.026483
v 0.541014 0.047021 1.635460
v 0.801160 0.539559 1.896257
v 0.421601 0.515468 1.807895
v 0.424935 0.051134 1.691358
v 0.791391 0.522121 1.796409
v 0.678388 0.503930 1.621436
v 0.421108 0.535477 1.921835
v 0.463288 0.554758 1.992269
v 0.442802 0.305670 1.661599
v 0.547623 0.298686 1.608936
v 0.777985 0.356700 1.946217
v 0.615488 0.360885 1.985554
v 0.799256 0.335966 1.865133
v 0.422468 0.320069 1.783072
v 0.790612 0.318108 1.773456
v 0.700428 0.299497 1.614822
v 0.423626 0.339819 1.887018
v 0.466536 0.356956 1.951644
v 0.823032 0.065911 1.994575
v 0.615904 0.061787 2.031892
v 0.655994 0.061410 1.909371
v 0.820958 0.063015 1.907483
v 0.402563 0.058702 1.820488
v 0.646924 0.056309 1.805537
v 0.812764 0.055852 1.812000
v 0.710371 0.046988 1.642405
v 0.406221 0.066369 1.929876
v 0.423464 0.068031 1.998434
v 0.431386 0.182502 1.679199
v 0.413303 0.211711 1.913636
v 0.409760 0.195553 1.805130
v 0.804911 0.192588 1.796200
v 0.812827 0.208040 1.891409
v 0.795382 0.278217 1.969797
v 0.619267 0.273536 2.016917
v 0.707086 0.175931 1.631480
v 0.543502 0.175624 1.624943
v 0.456622 0.279071 1.974599
v 0.613010 0.176944 2.160550
v 0.613176 0.057096 2.167795
v 0.790107 0.061148 2.129057
v 0.451220 0.062096 2.133887
v 0.783942 0.181961 2.121021
v 0.456636 0.183900 2.125083
v 0.762347 2.217662 -0.265101
v 0.786884 1.671379 -0.093216
v 0.762394 1.089938 -0.337777
v 0.752301 2.149590 -0.504111
v 0.858100 1.718513 -0.577242
v 0.810162 1.217352 -0.564263
v 0.742121 2.040996 -0.708260
v 0.837776 1.739764 -0.794290
v 0.742150 1.369520 -0.791093
v 0.603900 0.383057 -1.392359
v 0.522656 1.104225 -0.981522
v 0.633210 0.862521 -0.423383
v 0.436511 0.872820 -0.484234
v 0.377104 0.974177 -0.722977
v 0.410556 1.081763 -0.940187
v 0.799946 0.988956 -0.717300
v 0.745416 1.087416 -0.947184
v 0.761647 0.894103 -0.493761
v 0.539000 0.939609 -1.007696
v 0.640003 0.468332 -0.772669
v 0.460795 0.524202 -0.806718
v 0.406528 0.749138 -0.884240
v 0.436897 0.910026 -0.984603
v 0.791702 0.738926 -0.869371
v 0.741925 0.914148 -0.981845
v 0.756954 0.532661 -0.793114
v 0.546906 0.592978 -1.499365
v 0.666583 0.189108 -1.286136
v 0.411674 0.229109 -1.321894
v 0.399448 0.401168 -1.411726
v 0.433272 0.561483 -1.487654
v 0.828135 0.395215 -1.396657
v 0.772762 0.565451 -1.483801
v 0.833000 0.237930 -1.311212
v 0.823902 0.359873 -1.113211
v 0.392286 0.519081 -1.218697
v 0.426113 0.675884 -1.300675
v 0.402575 0.351099 -1.123497
v 0.657487 0.311856 -1.087451
v 0.539748 0.706872 -1.313411
v 0.765603 0.679934 -1.296777
v 0.782391 0.184388 -1.149490
v 0.789454 0.117291 -1.243096
v 0.659263 0.068521 -1.218219
v 0.459831 0.108491 -1.253734
v 0.452769 0.175042 -1.160043
v 0.652198 0.137110 -1.122432
v 0.782909 0.636900 -1.022892
v 0.423681 0.642189 -1.034340
v 0.641374 0.432547 -0.918811
v 0.750463 0.480601 -0.943685
v 0.452001 0.788338 -1.101670
v 0.474250 0.473156 -0.951566
v 0.547219 0.816158 -1.113227
v 0.736481 0.791732 -1.098358
v -0.000000 1.964712 -0.963352
v -0.000000 1.715167 -1.003691
v 0.092420 1.733477 -0.967709
v 0.076591 1.955334 -0.937061
v 0.127603 1.724468 -0.919455
v 0.088882 2.048142 -0.898695
v -0.000000 1.692332 -0.956154
v -0.000000 2.059583 -0.930772
v 0.353936 1.740688 2.708380
v 0.462452 1.322326 2.710125
v 0.346085 1.561090 2.994220
v 0.469988 1.290856 2.912658
v 0.431634 1.647798 2.823405
v 0.509515 1.631283 2.839925
v 0.472450 1.654620 2.840402
v 0.537234 1.595390 2.829639
v 0.536419 1.510360 2.798466
v 0.550043 1.553551 2.815673
v 0.514399 1.592709 2.875101
v 0.455471 1.603573 2.878224
v 0.486059 1.608267 2.880568
v 0.527030 1.518607 2.853276
v 0.527210 1.578060 2.869685
v 0.537319 1.549199 2.860678
v 0.372831 1.583515 2.868027
v 0.460350 1.398089 2.827889
v 0.490673 1.631969 2.886743
v 0.529939 1.610230 2.879685
v 0.447174 1.625272 2.883847
v 0.548145 1.589190 2.872627
v 0.562047 1.549299 2.860778
v 0.548125 1.507888 2.850581
v 0.383871 1.559129 2.862693
v 0.450291 1.419508 2.832452
v 0.413090 1.558340 2.851136
v 0.458299 1.462795 2.831585
v 0.473111 1.583153 2.861844
v 0.493557 1.571987 2.857917
v 0.451044 1.579771 2.860145
v 0.502798 1.561462 2.854020
v 0.510091 1.540705 2.847541
v 0.502668 1.518747 2.842235
v 0.399391 1.547870 2.848979
v 0.447307 1.447079 2.827061
v 0.058900 0.989816 3.402431
v 0.055763 0.902095 3.410996
v 0.099802 0.993047 3.374449
v 0.095412 0.905045 3.383879
v 0.000000 0.902206 3.414044
v 0.000000 0.987338 3.405842
v 0.030579 0.925266 3.438011
v 0.000000 0.975321 3.433443
v 0.000000 0.925054 3.437394
v -0.547718 1.180078 0.600062
v -0.532627 2.435227 0.473424
v -0.607673 1.224600 0.081284
v -0.619050 2.377745 -0.232824
v -0.710107 1.805738 0.087269
v -0.619173 1.169097 0.310954
v -0.609342 2.458724 0.117575
v -0.653990 1.757347 0.514514
v -0.720351 1.811585 0.181693
v -0.831877 0.250567 -0.202510
v -0.536952 2.252125 -0.535079
v -0.469139 1.218585 -0.594385
v -0.464423 2.051043 -0.747569
v -0.090362 0.817695 3.130751
v -0.564004 1.627047 -0.791626
v -0.084677 1.208036 3.220518
v -0.172094 1.603935 3.043785
v -0.477914 1.227307 0.969960
v -0.502087 2.384162 0.889772
v -0.175772 0.847613 2.930900
v -0.620555 1.712231 0.849743
v -0.059274 0.821940 3.362293
v -0.033850 0.977140 3.434564
v -0.047665 0.779772 3.249720
v -0.567486 2.553380 1.239706
v -0.588707 0.655237 0.832841
v -0.118300 1.417660 3.221848
v -0.136209 0.819952 3.044499
v -0.177045 1.791009 2.826710
v -0.579889 2.556211 1.435940
v -0.492835 0.627606 0.882785
v -0.190837 0.883059 2.815648
v -0.177045 1.911446 2.652870
v -0.177045 0.923862 2.674708
v -0.540929 2.489392 1.719287
v -0.692443 1.749729 1.706619
v -0.571520 0.944202 1.677002
v -0.181751 2.061430 2.402069
v -0.181751 1.082999 2.321400
v -0.458217 2.242031 2.016740
v -0.563921 1.546522 1.902022
v -0.463208 1.275039 1.885119
v -0.227643 2.303990 2.070443
v -0.231996 1.204970 1.897389
v -0.270700 2.556121 1.765668
v -0.367150 1.006996 1.618090
v -0.364925 2.004094 2.357391
v -0.446035 1.419841 2.319963
v -0.364925 1.135367 2.264570
v -0.286301 2.626046 1.479465
v -0.311840 1.011867 1.502929
v -0.279360 2.624300 1.276939
v -0.355746 1.862637 2.609910
v -0.433703 1.374104 2.605270
v -0.355746 0.972339 2.624665
v -0.317511 1.054893 1.375408
v -0.251387 2.457619 0.911338
v -0.343357 1.134861 1.129798
v -0.372539 1.609383 2.783344
v -0.455708 1.400251 2.750112
v -0.382651 0.934036 2.771679
v -0.249685 1.606692 -0.878648
v -0.203266 2.087784 -0.852223
v -0.328828 1.191945 -0.568101
v -0.241143 1.391661 3.168842
v -0.339854 1.152634 3.063514
v -0.276080 0.857644 3.007197
v -0.249571 2.245024 -0.666478
v -0.287434 1.133033 -0.316763
v -0.307127 2.558079 0.092726
v -0.069124 0.978392 3.412399
v -0.125993 0.838445 3.325041
v -0.103346 0.805834 3.247427
v -0.064203 0.926372 3.416523
v -0.465527 1.441280 2.838655
v -0.353261 0.892197 2.888832
v -0.314185 1.041630 0.245703
v -0.402860 1.574014 2.865744
v -0.267626 2.510761 0.480969
v -0.278876 1.056637 0.600025
v -0.301564 2.447485 -0.400995
v -0.362187 1.111925 -0.015780
v -0.186642 0.848927 3.094993
v -0.210413 0.995534 3.194289
v -0.175549 1.175087 3.196831
v -0.070240 0.798504 3.184972
v -0.067630 1.056042 3.339557
v -0.139993 0.817416 3.177950
v -0.161300 0.917856 3.259089
v -0.134901 1.046020 3.308403
v -0.621617 2.279570 0.990352
v -0.721377 1.697324 0.896780
v -0.677272 1.330796 0.996510
v -0.678260 2.438534 1.238640
v -0.822571 1.675775 1.309631
v -0.841617 1.130614 1.335068
v -0.640966 2.455364 1.420362
v -0.837183 1.708401 1.480334
v -0.853556 1.033336 1.486234
v -0.657117 2.313005 1.603737
v -0.788640 1.750522 1.673215
v -0.783309 0.983844 1.635412
v -0.472438 0.876825 0.919467
v -0.569576 0.941412 0.872285
v -0.788720 0.646513 1.311282
v -0.637832 0.598036 1.346238
v -0.838684 0.698304 1.202841
v -0.452817 0.721921 1.089799
v -0.830235 0.773455 1.095304
v -0.713474 0.964038 0.876255
v -0.456038 0.638345 1.207961
v -0.497732 0.609694 1.306949
v -0.792840 0.488519 1.169352
v -0.643932 0.472208 1.203949
v -0.570813 0.240106 0.584744
v -0.845290 0.519642 1.085629
v -0.466917 0.561606 0.999371
v -0.454079 0.223624 0.637093
v -0.836451 0.562329 0.993914
v -0.726160 0.650929 0.840079
v -0.465585 0.512221 1.103540
v -0.507451 0.486831 1.171644
v -0.482795 0.473058 0.755063
v -0.588403 0.492450 0.708478
v -0.813909 0.348990 1.016965
v -0.651379 0.344194 1.049294
v -0.835595 0.372047 0.939820
v -0.460503 0.419009 0.863279
v -0.828240 0.406968 0.855986
v -0.740985 0.483811 0.714486
v -0.460710 0.379803 0.959150
v -0.503331 0.359493 1.021260
v -0.848342 0.102748 0.929606
v -0.641393 0.106149 0.971169
v -0.682104 0.133724 0.851016
v -0.846868 0.125516 0.843427
v -0.429870 0.173119 0.757836
v -0.674097 0.166169 0.742617
v -0.839697 0.156370 0.747441
v -0.739896 0.229670 0.590408
v -0.432420 0.138814 0.866777
v -0.449158 0.119888 0.934811
v -0.466454 0.357438 0.696602
v -0.445008 0.265738 0.909808
v -0.442786 0.303764 0.809783
v -0.837651 0.289361 0.801235
v -0.844335 0.254692 0.888701
v -0.828188 0.279472 0.990732
v -0.652691 0.285477 1.022458
v -0.742710 0.366719 0.653507
v -0.579373 0.376338 0.647663
v -0.489720 0.292927 0.995884
v -0.642588 0.178709 1.123929
v -0.637667 0.067930 1.101648
v -0.814434 0.066053 1.060439
v -0.475883 0.080494 1.066972
v -0.813242 0.175748 1.085682
v -0.486095 0.187002 1.091427
v -0.761575 2.261078 -0.302712
v -0.788898 1.804525 0.002528
v -0.767750 1.237346 0.001921
v -0.752091 2.133454 -0.517437
v -0.860541 1.694993 -0.470660
v -0.815498 1.219153 -0.255454
v -0.742745 1.970187 -0.690212
v -0.840387 1.640236 -0.690077
v -0.747336 1.222902 -0.533488
v -0.616156 0.020285 -0.191129
v -0.529766 0.876346 -0.544759
v -0.639807 1.019886 0.056963
v -0.443274 0.986495 -0.008237
v -0.384060 0.929217 -0.264321
v -0.417651 0.882568 -0.498832
v -0.806806 0.946774 -0.254110
v -0.752492 0.886580 -0.504569
v -0.768283 1.006313 -0.015900
v -0.547192 0.689410 -0.469543
v -0.649194 0.568537 0.077092
v -0.469920 0.573418 0.010660
v -0.415122 0.642670 -0.222532
v -0.445152 0.681806 -0.429473
v -0.800263 0.651140 -0.205062
v -0.750144 0.688886 -0.430841
v -0.765985 0.590387 0.011529
v -0.558958 0.033963 -0.428774
v -0.678903 0.027749 0.029932
v -0.424079 0.008301 -0.023489
v -0.411738 0.011193 -0.218938
v -0.445374 0.027817 -0.395800
v -0.840365 0.023796 -0.206613
v -0.784828 0.034949 -0.397392
v -0.845313 0.025029 -0.026182
v -0.834933 0.244452 -0.027497
v -0.403248 0.238091 -0.216162
v -0.436883 0.255055 -0.391720
v -0.413688 0.229273 -0.026015
v -0.668567 0.240394 0.026203
v -0.550460 0.262269 -0.424415
v -0.776332 0.262995 -0.392758
v -0.794073 0.141991 0.096945
v -0.801792 0.031840 0.112864
v -0.671614 0.033785 0.168199
v -0.472262 0.015557 0.115743
v -0.464555 0.123959 0.100712
v -0.663875 0.146592 0.150829
v -0.792536 0.469092 -0.202887
v -0.433351 0.459693 -0.214531
v -0.651288 0.439973 0.021988
v -0.760308 0.447495 -0.030755
v -0.461424 0.486130 -0.379602
v -0.484164 0.434834 -0.029999
v -0.556584 0.493465 -0.410514
v -0.745871 0.492517 -0.380781
v -0.092467 1.729775 -0.965633
v -0.076591 1.955334 -0.937061
v -0.127792 1.709800 -0.913813
v -0.088882 2.048142 -0.898695
v -0.353936 1.740688 2.708380
v -0.462452 1.322333 2.710133
v -0.346085 1.561105 2.994222
v -0.469988 1.290865 2.912666
v -0.431634 1.647874 2.823400
v -0.509515 1.631415 2.839924
v -0.472450 1.654746 2.840393
v -0.537234 1.595535 2.829651
v -0.536419 1.510442 2.798493
v -0.550043 1.553661 2.815695
v -0.514399 1.592821 2.875110
v -0.455471 1.603677 2.878230
v -0.486059 1.608379 2.880573
v -0.527030 1.518696 2.853300
v -0.527210 1.578171 2.869698
v -0.537319 1.549304 2.860698
v -0.372831 1.583535 2.868029
v -0.460350 1.398105 2.827899
v -0.490673 1.632094 2.886742
v -0.529939 1.610357 2.879691
v -0.447174 1.625374 2.883847
v -0.548145 1.589316 2.872638
v -0.562047 1.549410 2.860799
v -0.548125 1.507980 2.850609
v -0.383871 1.559190 2.862703
v -0.450291 1.419525 2.832462
v -0.413090 1.558406 2.851147
v -0.458299 1.462819 2.831595
v -0.473111 1.583249 2.861854
v -0.493557 1.572067 2.857927
v -0.451044 1.579874 2.860157
v -0.502798 1.561551 2.854035
v -0.510091 1.540803 2.847563
v -0.502668 1.518826 2.842257
v -0.399391 1.547927 2.848990
v -0.447307 1.447102 2.827072
v -0.058900 0.989816 3.402431
v -0.055763 0.902095 3.410996
v -0.099802 0.993047 3.374449
v -0.095412 0.905045 3.383879
v -0.030579 0.925266 3.438011
v 0.291561 1.182997 3.095948
v 0.306648 1.251437 3.109883
v 0.269728 1.181821 3.137859
v 0.232186 1.141655 3.136515
v 0.245906 1.186448 3.107709
v 0.291926 1.254297 3.091250
v 0.256597 1.252393 3.159065
v 0.210577 1.184544 3.175524
v 0.195855 1.187404 3.156890
v 0.232775 1.257020 3.128915
v 0.270316 1.297186 3.130258
v 0.210942 1.255843 3.170826
v 0.285805 1.175911 3.114009
v 0.307506 1.216830 3.097566
v 0.294673 1.216139 3.122200
v 0.307720 1.258739 3.094805
v 0.298852 1.218511 3.086613
v 0.263739 1.152302 3.113219
v 0.250905 1.151610 3.137854
v 0.271803 1.178631 3.096287
v 0.236903 1.154330 3.120132
v 0.272017 1.220539 3.093526
v 0.295019 1.283949 3.117733
v 0.286365 1.285630 3.106780
v 0.265254 1.216700 3.151109
v 0.286955 1.257620 3.134665
v 0.216138 1.153211 3.159993
v 0.238204 1.176820 3.160783
v 0.215548 1.181221 3.132108
v 0.207484 1.154892 3.149041
v 0.264299 1.262021 3.105990
v 0.237249 1.222140 3.115665
v 0.265600 1.284511 3.146641
v 0.230486 1.218301 3.173248
v 0.194783 1.180102 3.171969
v 0.207830 1.222702 3.144573
v 0.251598 1.287230 3.128919
v 0.230700 1.260210 3.170486
v 0.238764 1.286539 3.153554
v 0.203650 1.220330 3.180160
v 0.194997 1.222010 3.169208
v 0.216698 1.262930 3.152765
v -0.291561 1.182997 3.095948
v -0.306648 1.251436 3.109884
v -0.269728 1.181820 3.137859
v -0.232186 1.141655 3.136515
v -0.245906 1.186448 3.107709
v -0.291925 1.254296 3.091250
v -0.256597 1.252393 3.159065
v -0.210577 1.184544 3.175524
v -0.195854 1.187404 3.156891
v -0.232775 1.257020 3.128915
v -0.270316 1.297185 3.130259
v -0.210942 1.255843 3.170826
v -0.285805 1.175911 3.114009
v -0.307506 1.216830 3.097566
v -0.294673 1.216139 3.122201
v -0.307720 1.258739 3.094805
v -0.298852 1.218511 3.086613
v -0.263739 1.152302 3.113220
v -0.250905 1.151610 3.137855
v -0.271803 1.178631 3.096288
v -0.236903 1.154330 3.120133
v -0.272017 1.220539 3.093526
v -0.295019 1.283949 3.117733
v -0.286365 1.285630 3.106781
v -0.265254 1.216700 3.151109
v -0.286955 1.257620 3.134665
v -0.216137 1.153211 3.159993
v -0.238204 1.176820 3.160783
v -0.215548 1.181221 3.132109
v -0.207484 1.154892 3.149041
v -0.264299 1.262021 3.105991
v -0.237249 1.222140 3.115665
v -0.265599 1.284510 3.146641
v -0.230486 1.218301 3.173248
v -0.194782 1.180102 3.171969
v -0.207830 1.222702 3.144573
v -0.251597 1.287230 3.128920
v -0.230700 1.260210 3.170487
v -0.238764 1.286538 3.153554
v -0.203650 1.220330 3.180161
v -0.194997 1.222010 3.169208
v -0.216698 1.262930 3.152765
vn -0.8593 -0.5114 -0.0100
vn 0.3723 0.7832 -0.4980
vn 0.9874 -0.1364 -0.0797
vn 0.9914 0.1290 -0.0230
vn 0.9699 0.1424 0.1977
vn 0.9790 -0.1345 0.1533
vn 0.9781 -0.1529 0.1408
vn 0.1486 -0.9630 0.2247
vn 0.1483 -0.9472 -0.2843
vn 0.0787 -0.9943 0.0725
vn 0.1171 0.9633 -0.2417
vn 0.1807 0.9719 0.1505
vn 0.2583 0.7550 -0.6028
vn 0.2037 -0.1155 -0.9722
vn 0.0514 -0.9099 -0.4117
vn 0.6577 0.2796 0.6995
vn 0.1807 0.2317 -0.9559
vn 0.0499 -0.2185 -0.9746
vn 0.2339 0.3474 -0.9081
vn 0.2190 -0.8200 -0.5288
vn 0.8355 0.5492 0.0147
vn 0.9968 -0.0624 -0.0503
vn 0.1534 0.9798 0.1285
vn 0.9840 0.1503 0.0954
vn 0.3573 -0.5994 -0.7163
vn 0.1106 0.9936 -0.0220
vn 0.0046 0.9160 -0.4010
vn -0.6358 -0.4374 -0.6360
vn 0.6627 0.1315 -0.7373
vn 0.1639 0.9593 0.2302
vn -0.9595 -0.2793 -0.0373
vn 0.9357 -0.0893 -0.3414
vn 0.0106 0.8044 -0.5940
vn 0.3720 0.1710 0.9123
vn -0.3518 -0.3862 0.8527
vn 0.0653 -0.9837 0.1674
vn -0.0677 -0.9707 -0.2307
vn -0.0674 -0.9954 0.0678
vn 0.0805 -0.0051 0.9967
vn 0.7659 0.4887 -0.4178
vn 0.3598 0.9094 -0.2086
vn 0.9480 -0.3074 0.0822
vn 0.3025 -0.8477 -0.4358
vn 0.3191 0.9383 0.1331
vn 0.2081 0.7376 0.6424
vn 0.0527 0.8054 -0.5904
vn 0.8387 0.1496 0.5236
vn 0.4770 -0.5338 0.6983
vn 0.8081 0.1348 -0.5734
vn 0.1216 -0.2872 -0.9501
vn 0.9854 0.1437 0.0918
vn 0.9734 0.1088 -0.2015
vn 0.1712 0.7737 0.6100
vn 0.4418 -0.8970 -0.0164
vn 0.9402 0.1159 0.3203
vn 0.3083 0.9420 0.1328
vn 0.2946 0.9554 -0.0209
vn 0.9787 0.2011 0.0421
vn 0.2308 0.8796 -0.4160
vn 0.0768 0.8166 0.5720
vn 0.1322 -0.9043 -0.4058
vn 0.9751 -0.2174 -0.0445
vn 0.3261 0.9157 0.2350
vn 0.1168 0.8430 0.5251
vn -0.0015 0.6786 0.7345
vn 0.4173 -0.9064 0.0664
vn 0.8389 -0.2727 0.4710
vn 0.2122 -0.9653 -0.1521
vn 0.1334 -0.7306 0.6696
vn 0.1806 -0.9416 -0.2842
vn 0.9344 -0.2156 -0.2836
vn 0.1668 -0.9189 0.3576
vn 0.8717 -0.4666 0.1497
vn 0.3324 -0.9408 -0.0658
vn 0.2988 -0.9060 -0.2997
vn 0.3395 0.6971 0.6315
vn 0.3563 0.7265 0.5877
vn 0.7609 0.0972 0.6415
vn 0.4545 0.6639 0.5939
vn 0.1550 -0.8995 -0.4086
vn 0.1859 -0.9154 0.3571
vn 0.8837 0.0007 0.4680
vn 0.3517 0.8059 0.4763
vn 0.3837 0.5582 0.7357
vn 0.1217 -0.9743 -0.1893
vn 0.4144 0.5937 0.6898
vn 0.1593 -0.9456 -0.2838
vn 0.5346 0.0194 0.8449
vn 0.1479 -0.9594 -0.2401
vn 0.3937 -0.8774 0.2741
vn -0.3033 -0.3792 0.8742
vn -0.0092 0.6990 0.7151
vn 0.1790 -0.9433 -0.2794
vn 0.9703 -0.2418 0.0109
vn 0.0310 -0.5253 0.8503
vn 0.0507 0.7555 0.6532
vn 0.6302 0.0010 0.7765
vn 0.1441 -0.9552 -0.2583
vn -0.1346 0.0667 0.9886
vn 0.4463 0.7176 0.5346
vn 0.3332 -0.0186 0.9427
vn 0.0463 -0.9986 0.0250
vn 0.3308 -0.9225 0.1990
vn 0.7809 -0.3396 0.5243
vn 0.4028 0.5297 0.7464
vn 0.1485 -0.9509 -0.2715
vn 0.8472 0.0802 0.5252
vn -0.0169 0.6079 0.7939
vn 0.2233 -0.9446 -0.2404
vn 0.8796 -0.3746 0.2932
vn 0.9540 -0.1928 -0.2294
vn 0.9799 0.1992 -0.0088
vn 0.9684 0.1294 -0.2131
vn 0.9422 0.2971 0.1547
vn 0.9978 -0.0054 -0.0662
vn 0.9342 0.1671 0.3152
vn 0.7666 0.3040 0.5657
vn 0.9033 0.3606 0.2326
vn -0.6815 0.0796 0.7275
vn -0.0189 0.3713 0.9283
vn 0.0442 -0.4939 -0.8684
vn 0.8953 0.0150 0.4452
vn -0.9838 -0.1216 -0.1314
vn -0.9971 -0.0752 0.0141
vn 0.9968 0.0303 -0.0742
vn 0.2833 -0.1139 0.9522
vn 0.8855 -0.0728 0.4588
vn -0.8791 0.0201 0.4762
vn 0.1742 -0.4274 -0.8871
vn -0.9515 -0.2910 -0.0994
vn 0.9164 -0.0068 0.4001
vn -0.9845 0.0217 -0.1738
vn -0.9999 -0.0094 0.0048
vn 0.9953 0.0063 -0.0968
vn 0.2482 -0.1579 0.9558
vn 0.8471 0.0821 -0.5250
vn -0.8577 -0.0380 0.5127
vn -0.3349 -0.0792 0.9389
vn -0.4764 -0.4514 -0.7545
vn 0.8905 -0.1441 -0.4316
vn 0.0404 -0.0828 -0.9957
vn 0.9934 0.1047 0.0460
vn -0.9845 0.0324 -0.1724
vn -0.9982 0.0535 0.0271
vn 0.9949 0.0463 -0.0895
vn 0.9741 0.1179 0.1929
vn 0.0394 0.0357 -0.9986
vn -0.8255 -0.1179 0.5519
vn -0.2184 -0.2045 0.9542
vn -0.4841 0.0377 -0.8742
vn -0.0066 -0.9983 0.0581
vn 0.0174 -0.9997 0.0188
vn -0.0105 -0.9981 0.0604
vn -0.0037 -0.9984 0.0556
vn -0.0255 -0.9996 0.0076
vn 0.0026 -0.9981 0.0612
vn -0.9237 0.1442 0.3550
vn -0.9818 0.1276 0.1405
vn -0.4363 -0.0633 -0.8976
vn 0.8583 -0.0156 -0.5129
vn 0.8648 -0.0067 -0.5021
vn -0.4449 -0.0935 -0.8907
vn -0.2243 0.3118 0.9233
vn -0.8650 0.1961 0.4619
vn 0.2329 0.3325 0.9139
vn 0.9906 0.0889 -0.1036
vn -0.9957 0.0920 0.0065
vn -0.9824 0.0678 -0.1741
vn 0.9746 0.1788 0.1347
vn 0.0394 -0.1308 -0.9906
vn 0.2173 0.0675 0.9738
vn -0.2099 0.0693 0.9753
vn 0.1138 0.8283 0.5486
vn 0.0147 -0.9993 -0.0330
vn -0.0995 0.8345 0.5420
vn -0.0247 -0.9990 -0.0368
vn 0.9870 0.1397 0.0795
vn 0.9538 -0.1618 -0.2531
vn 0.9853 -0.0962 0.1414
vn 0.9487 0.2889 -0.1286
vn 0.5876 -0.3759 0.7165
vn 0.5220 0.7841 -0.3357
vn 0.9844 -0.1196 0.1292
vn 0.3340 0.7853 -0.5213
vn -0.9691 -0.2056 0.1362
vn -0.3190 0.1557 -0.9349
vn -0.2917 -0.6483 0.7033
vn 0.9855 -0.1138 0.1259
vn 0.1493 0.4921 -0.8576
vn -0.4009 0.3839 -0.8318
vn -0.9343 -0.2031 -0.2930
vn -0.1455 -0.7159 0.6828
vn -0.2787 0.8143 -0.5092
vn -0.9442 -0.2981 0.1402
vn 0.9992 0.0360 0.0194
vn -0.9811 0.1463 -0.1264
vn 0.4720 -0.5735 0.6696
vn 0.1553 0.1808 -0.9712
vn 0.9692 0.0764 -0.2342
vn -0.9759 -0.0247 -0.2170
vn 0.0085 -0.4777 -0.8785
vn 0.0474 -0.4641 -0.8845
vn 0.0401 -0.4406 -0.8968
vn 0.0068 -0.4532 -0.8914
vn -0.9978 -0.0665 -0.0007
vn 0.9448 -0.2484 0.2134
vn 0.1387 0.8469 -0.5133
vn 0.9604 0.2524 -0.1182
vn 0.9553 0.2953 -0.0140
vn 0.1435 0.8687 -0.4740
vn 0.3592 -0.7120 0.6034
vn -0.9568 -0.0195 0.2902
vn -0.9777 0.2092 0.0175
vn 0.9618 0.0549 0.2682
vn -0.2419 -0.7710 0.5890
vn -0.2903 0.8466 -0.4460
vn -0.2560 -0.7959 0.5486
vn 0.3830 -0.7372 0.5567
vn -0.1924 -0.2196 0.9564
vn 0.0518 -0.4840 -0.8735
vn 0.2402 -0.2243 0.9445
vn 0.0160 -0.4937 -0.8695
vn -0.3076 0.6235 -0.7188
vn -0.3051 -0.9167 0.2580
vn 0.9852 -0.1674 0.0353
vn -0.9783 0.0835 -0.1896
vn -0.9690 -0.2453 0.0308
vn 0.4705 -0.8483 0.2430
vn 0.1602 0.6626 -0.7317
vn 0.9660 0.1714 -0.1934
vn 0.3347 0.1513 -0.9301
vn 0.3293 -0.8532 -0.4046
vn 0.3507 0.3110 -0.8834
vn 0.2203 0.5188 -0.8260
vn 0.1777 -0.1976 -0.9640
vn 0.2771 0.1175 -0.9536
vn 0.9563 0.2903 0.0362
vn 0.9350 0.3017 0.1864
vn 0.9962 0.0800 -0.0337
vn 0.8970 0.3411 0.2810
vn -0.5821 0.7502 0.3137
vn 0.7641 0.6403 -0.0785
vn 0.8065 -0.5785 -0.1221
vn 0.5130 0.8362 0.1942
vn -0.2428 0.8635 0.4421
vn 0.9125 0.3597 -0.1947
vn 0.9424 -0.2273 -0.2455
vn 0.2543 0.3168 -0.9138
vn -0.0594 -0.2346 0.9703
vn 0.0313 -0.2667 0.9633
vn -0.0294 -0.2536 0.9669
vn 0.0070 -0.2880 0.9576
vn -0.0000 -0.2374 0.9714
vn 0.0387 -0.2996 0.9533
vn -0.0455 -0.2973 0.9537
vn 0.0446 -0.2295 0.9723
vn -0.0017 -0.2497 0.9683
vn 0.0076 -0.2104 0.9776
vn 0.1637 -0.6152 0.7712
vn -0.0302 -0.2203 0.9750
vn 0.2959 -0.5438 0.7853
vn -0.4092 0.1544 0.8993
vn -0.4123 -0.0805 0.9075
vn -0.1393 -0.5450 0.8268
vn 0.7289 0.2049 0.6532
vn -0.2064 -0.4934 0.8449
vn -0.5076 0.1110 0.8544
vn 0.0324 -0.6082 0.7931
vn 0.3193 0.7690 0.5538
vn 0.5296 -0.3591 0.7685
vn 0.5248 -0.4205 0.7401
vn -0.0292 0.0731 0.9969
vn 0.0200 -0.7331 0.6798
vn -0.0339 0.9286 0.3697
vn 0.7525 0.0137 0.6584
vn 0.8722 -0.4275 0.2375
vn -0.3426 0.7761 -0.5294
vn -0.9807 -0.1725 -0.0922
vn -0.9876 0.1539 -0.0312
vn -0.9577 0.1854 0.2199
vn -0.9701 -0.1287 0.2060
vn -0.9695 -0.1996 0.1425
vn -0.5055 -0.8542 0.1221
vn -0.4394 -0.8775 -0.1921
vn -0.3888 -0.9157 0.1015
vn -0.1103 0.9643 -0.2408
vn -0.1790 0.9721 0.1517
vn -0.3295 0.6509 -0.6840
vn -0.2662 -0.4302 -0.8626
vn -0.4007 -0.8890 -0.2216
vn -0.6600 0.4443 0.6059
vn -0.3167 0.1243 -0.9403
vn -0.1657 -0.5200 -0.8379
vn -0.2877 0.1305 -0.9488
vn -0.2927 -0.9040 -0.3116
vn -0.7827 0.6221 0.0192
vn -0.9975 0.0144 -0.0690
vn -0.1513 0.9802 0.1275
vn -0.9791 0.1740 0.1056
vn -0.3099 -0.3009 -0.9019
vn -0.0846 0.9962 -0.0206
vn 0.0132 0.9128 -0.4081
vn 0.7033 0.1121 -0.7020
vn -0.6151 0.1886 -0.7655
vn -0.1514 0.9597 0.2368
vn 0.9549 -0.2599 -0.1434
vn -0.9239 0.1953 -0.3289
vn -0.0039 0.7966 -0.6044
vn -0.8187 -0.1919 0.5412
vn 0.0654 -0.6924 0.7185
vn -0.4087 -0.9095 0.0764
vn -0.4219 -0.8895 -0.1756
vn -0.3964 -0.9147 0.0787
vn -0.3045 -0.6421 0.7035
vn -0.7112 0.5450 -0.4441
vn -0.3173 0.9251 -0.2084
vn -0.9347 -0.3245 0.1450
vn -0.2330 -0.9365 -0.2619
vn -0.2882 0.9480 0.1352
vn -0.2058 0.7375 0.6432
vn -0.0794 0.7966 -0.5993
vn -0.8713 0.1138 0.4774
vn -0.4659 -0.0505 0.8834
vn -0.8333 0.1227 -0.5391
vn -0.3860 -0.4039 -0.8294
vn -0.9858 0.1427 0.0891
vn -0.9744 -0.0168 -0.2240
vn -0.1707 0.7736 0.6103
vn -0.3647 -0.9148 -0.1738
vn -0.9449 0.1009 0.3115
vn -0.2820 0.9502 0.1325
vn -0.2322 0.9724 -0.0224
vn -0.9787 0.2011 0.0421
vn -0.1879 0.8794 -0.4374
vn -0.0768 0.8166 0.5720
vn -0.1322 -0.9043 -0.4058
vn -0.9739 -0.2236 -0.0399
vn -0.2653 0.9314 0.2490
vn -0.1168 0.8430 0.5251
vn 0.0015 0.6786 0.7345
vn -0.2454 -0.9694 -0.0011
vn -0.8389 -0.2727 0.4710
vn -0.2122 -0.9653 -0.1521
vn -0.1641 -0.7882 0.5932
vn -0.1806 -0.9416 -0.2842
vn -0.9344 -0.2156 -0.2836
vn -0.0856 -0.9509 0.2975
vn -0.8717 -0.4666 0.1497
vn -0.3324 -0.9408 -0.0658
vn -0.1721 -0.9527 -0.2505
vn -0.3086 0.6995 0.6446
vn -0.3501 0.7263 0.5916
vn -0.7609 0.0972 0.6415
vn -0.4545 0.6639 0.5939
vn -0.1550 -0.8995 -0.4086
vn -0.1859 -0.9154 0.3571
vn -0.8837 0.0007 0.4680
vn -0.3517 0.8059 0.4763
vn -0.3836 0.5582 0.7357
vn -0.1217 -0.9743 -0.1893
vn -0.4144 0.5937 0.6898
vn -0.1593 -0.9456 -0.2838
vn -0.5346 0.0194 0.8449
vn -0.1479 -0.9594 -0.2401
vn -0.3937 -0.8774 0.2741
vn 0.3032 -0.3790 0.8743
vn 0.0092 0.6990 0.7151
vn -0.1790 -0.9433 -0.2795
vn -0.9703 -0.2418 0.0109
vn -0.0310 -0.5253 0.8503
vn -0.0507 0.7555 0.6532
vn -0.6302 0.0010 0.7765
vn -0.1441 -0.9552 -0.2583
vn 0.1346 0.0667 0.9886
vn -0.4463 0.7177 0.5346
vn -0.3332 -0.0186 0.9427
vn -0.0463 -0.9986 0.0250
vn -0.3308 -0.9225 0.1990
vn -0.7809 -0.3396 0.5243
vn -0.4028 0.5297 0.7464
vn -0.1485 -0.9509 -0.2715
vn -0.8472 0.0802 0.5252
vn 0.0169 0.6079 0.7939
vn -0.2233 -0.9446 -0.2404
vn -0.8796 -0.3746 0.2932
vn -0.9332 -0.0739 -0.3516
vn -0.9744 0.2225 0.0315
vn -0.9485 0.1765 -0.2631
vn -0.9555 0.2540 0.1499
vn -0.9967 0.0270 -0.0768
vn -0.9447 -0.0000 0.3281
vn -0.6582 0.1750 0.7322
vn -0.8654 0.4401 0.2395
vn 0.3341 -0.6651 0.6678
vn -0.2437 -0.0611 0.9679
vn -0.0312 0.1268 -0.9914
vn -0.8947 -0.2541 0.3672
vn 0.9837 -0.0278 -0.1775
vn 0.9976 -0.0626 -0.0290
vn -0.9969 0.0611 -0.0504
vn -0.3021 -0.6691 0.6790
vn -0.9057 -0.2912 0.3081
vn 0.8091 -0.5134 0.2861
vn 0.0299 0.3113 -0.9498
vn 0.9455 -0.2281 -0.2322
vn -0.9020 -0.2934 0.3169
vn 0.9789 0.1632 -0.1228
vn 0.9994 0.0322 0.0086
vn -0.9963 0.0192 -0.0834
vn -0.1903 -0.7313 0.6549
vn -0.8592 0.3342 -0.3875
vn 0.8728 -0.3719 0.3162
vn 0.2354 -0.7305 0.6410
vn 0.4812 0.0885 -0.8722
vn -0.8897 0.1456 -0.4327
vn -0.0565 0.4161 -0.9075
vn -0.9959 0.0470 0.0771
vn 0.9796 0.1500 -0.1337
vn 0.9955 0.0800 0.0504
vn -0.9973 0.0404 -0.0609
vn -0.9764 0.0076 0.2160
vn -0.0632 0.6045 -0.7941
vn 0.8233 -0.4131 0.3892
vn 0.2117 -0.7506 0.6260
vn 0.4605 0.5613 -0.6877
vn 0.0498 -0.9171 -0.3955
vn 0.0630 -0.9668 -0.2479
vn 0.0416 -0.9557 -0.2915
vn 0.0428 -0.9153 -0.4004
vn 0.0300 -0.9695 -0.2434
vn 0.0545 -0.9550 -0.2917
vn 0.9289 0.0367 0.3684
vn 0.9764 0.1230 0.1776
vn 0.4207 0.4014 -0.8136
vn -0.8674 0.1956 -0.4576
vn -0.8738 0.2478 -0.4184
vn 0.4227 0.4509 -0.7862
vn 0.1868 -0.3622 0.9132
vn 0.8579 -0.0713 0.5089
vn -0.1726 -0.3587 0.9174
vn -0.9945 0.0960 -0.0425
vn 0.9913 0.1181 0.0588
vn 0.9748 0.1957 -0.1071
vn -0.9779 0.0351 0.2061
vn -0.0598 0.4606 -0.8856
vn -0.2152 -0.2093 0.9539
vn 0.2147 -0.1911 0.9578
vn -0.1649 0.6623 0.7308
vn 0.0746 -0.9557 -0.2847
vn 0.1009 0.6796 0.7266
vn 0.0146 -0.9592 -0.2822
vn -0.9861 0.1626 0.0331
vn -0.9658 -0.2117 -0.1498
vn -0.9857 -0.0284 0.1661
vn -0.9483 0.2418 -0.2057
vn -0.5672 -0.0658 0.8210
vn -0.4415 0.7724 -0.4566
vn -0.9844 -0.0217 0.1748
vn -0.3613 0.6379 -0.6801
vn 0.9724 -0.0607 0.2251
vn 0.3452 -0.3628 -0.8656
vn 0.3324 0.0287 0.9427
vn -0.9874 0.0047 0.1581
vn -0.1996 -0.0936 -0.9754
vn 0.2505 -0.2291 -0.9406
vn 0.9177 -0.3674 -0.1509
vn 0.2968 -0.1497 0.9431
vn 0.2781 0.0074 -0.9605
vn 0.9406 -0.0337 0.3379
vn -0.9989 0.0424 -0.0219
vn 0.9811 -0.0338 -0.1905
vn -0.4895 0.0517 0.8705
vn -0.1785 -0.3492 -0.9199
vn -0.9751 -0.0700 -0.2105
vn 0.9790 -0.1493 -0.1386
vn -0.0058 -0.9998 0.0207
vn -0.0621 -0.9981 -0.0002
vn -0.0465 -0.9961 -0.0755
vn -0.0121 -0.9981 -0.0610
vn 0.9974 -0.0421 0.0576
vn -0.9426 0.0689 0.3268
vn -0.1381 0.0247 -0.9901
vn -0.9599 0.0412 -0.2773
vn -0.9556 0.1554 -0.2502
vn -0.1460 0.0632 -0.9873
vn -0.3552 0.0983 0.9296
vn 0.9578 0.2265 0.1769
vn 0.9791 0.1231 -0.1617
vn -0.9601 0.2604 0.1015
vn 0.2413 0.0513 0.9691
vn 0.2954 0.0732 -0.9526
vn 0.2590 0.1222 0.9581
vn -0.3852 0.1623 0.9085
vn 0.1979 0.7503 0.6307
vn -0.0741 -0.9966 0.0368
vn -0.2292 0.7437 0.6280
vn -0.0018 -0.9989 0.0466
vn 0.3073 -0.2736 -0.9114
vn 0.3042 -0.3379 0.8907
vn -0.9859 -0.0599 0.1560
vn 0.9781 -0.1156 -0.1731
vn 0.9686 -0.1199 0.2179
vn -0.4729 -0.3031 0.8274
vn -0.1649 -0.2622 -0.9508
vn -0.9682 -0.0641 -0.2418
vn -0.3480 0.1459 -0.9261
vn -0.2912 -0.8366 -0.4640
vn -0.3507 0.3110 -0.8834
vn -0.2367 0.5413 -0.8068
vn -0.2192 -0.2211 -0.9503
vn -0.3454 0.0834 -0.9348
vn -0.9563 0.2903 0.0362
vn -0.9350 0.3017 0.1864
vn -0.9962 0.0800 -0.0337
vn -0.8970 0.3411 0.2811
vn 0.5826 0.7499 0.3134
vn -0.7641 0.6403 -0.0783
vn -0.8067 -0.5782 -0.1220
vn -0.5129 0.8362 0.1943
vn 0.2434 0.8634 0.4420
vn -0.9126 0.3595 -0.1947
vn -0.9424 -0.2272 -0.2455
vn -0.2542 0.3166 -0.9139
vn 0.0594 -0.2346 0.9703
vn -0.0314 -0.2663 0.9634
vn 0.0293 -0.2533 0.9669
vn -0.0071 -0.2877 0.9577
vn -0.0000 -0.2372 0.9715
vn -0.0388 -0.2993 0.9534
vn 0.0453 -0.2971 0.9538
vn -0.0446 -0.2294 0.9723
vn 0.0018 -0.2495 0.9684
vn -0.0077 -0.2104 0.9776
vn -0.1642 -0.6151 0.7712
vn 0.0302 -0.2202 0.9750
vn -0.2960 -0.5437 0.7853
vn 0.4094 0.1543 0.8992
vn 0.4123 -0.0804 0.9075
vn 0.1393 -0.5446 0.8271
vn -0.7289 0.2048 0.6533
vn 0.2061 -0.4931 0.8452
vn 0.5077 0.1110 0.8543
vn -0.0324 -0.6080 0.7933
vn -0.3193 0.7690 0.5538
vn -0.5296 -0.3591 0.7685
vn -0.5248 -0.4205 0.7401
vn 0.0292 0.0731 0.9969
vn -0.0200 -0.7331 0.6798
vn 0.0339 0.9286 0.3697
vn -0.7525 0.0137 0.6584
vn 0.8961 -0.4280 0.1177
vn 0.9975 -0.0004 0.0707
vn 0.7307 -0.6818 -0.0346
vn 0.1099 -0.5612 -0.8203
vn 0.0413 -0.2619 -0.9642
vn 0.9363 0.2854 0.2048
vn 0.6878 -0.1790 0.7035
vn 0.3444 -0.7274 0.5935
vn -0.6069 -0.1330 -0.7836
vn -0.4208 0.1883 -0.8874
vn 0.7919 0.1397 0.5944
vn 0.5964 -0.2171 0.7728
vn -0.3952 -0.9020 0.1738
vn -0.6285 0.0209 -0.7775
vn -0.3576 0.3630 -0.8604
vn 0.4470 0.2109 0.8693
vn 0.2431 -0.0782 0.9668
vn -0.9975 0.0004 -0.0707
vn -0.7601 0.2863 -0.5833
vn -0.4475 0.8696 -0.2087
vn -0.7307 0.6818 0.0346
vn -0.6822 0.6488 -0.3371
vn -0.6942 0.4327 -0.5752
vn -0.8961 0.4279 -0.1177
vn -0.8552 0.2776 -0.4377
vn -0.8798 0.1399 -0.4544
vn -0.7220 0.3107 0.6182
vn -0.7805 0.0451 0.6236
vn -0.1738 -0.1596 0.9718
vn -0.0413 0.2619 0.9642
vn 0.2534 0.0623 0.9654
vn 0.4174 0.0576 0.9069
vn -0.1099 0.5612 0.8203
vn 0.2535 0.4671 0.8471
vn 0.2197 0.7400 0.6358
vn -0.3444 0.7274 -0.5935
vn -0.4625 0.4577 -0.7594
vn -0.5848 0.3645 -0.7247
vn -0.6878 0.1790 -0.7035
vn -0.6976 0.0840 -0.7116
vn -0.7767 0.0443 -0.6283
vn -0.9363 -0.2855 -0.2048
vn -0.6272 -0.6728 0.3923
vn -0.0725 -0.4532 0.8884
vn 0.4208 -0.1884 0.8874
vn 0.5257 -0.1536 0.8367
vn 0.5343 -0.0584 0.8433
vn 0.6069 0.1330 0.7836
vn 0.6835 0.2351 0.6910
vn 0.5927 0.5454 0.5926
vn -0.5964 0.2171 -0.7728
vn -0.5257 0.1536 -0.8367
vn -0.5343 0.0584 -0.8433
vn -0.7919 -0.1397 -0.5944
vn -0.6835 -0.2351 -0.6910
vn -0.5927 -0.5454 -0.5926
vn 0.3576 -0.3630 0.8604
vn 0.4625 -0.4577 0.7594
vn 0.5848 -0.3645 0.7247
vn 0.6285 -0.0209 0.7775
vn 0.6976 -0.0840 0.7116
vn 0.7767 -0.0443 0.6283
vn 0.3952 0.9020 -0.1738
vn 0.6272 0.6728 -0.3923
vn 0.0725 0.4532 -0.8884
vn -0.2432 0.0782 -0.9668
vn -0.2534 -0.0623 -0.9654
vn -0.4174 -0.0576 -0.9069
vn -0.4470 -0.2109 -0.8693
vn -0.2535 -0.4671 -0.8471
vn -0.2197 -0.7400 -0.6358
vn 0.4475 -0.8696 0.2087
vn 0.6822 -0.6488 0.3371
vn 0.6942 -0.4326 0.5752
vn 0.1738 0.1596 -0.9718
vn 0.7805 -0.0451 -0.6236
vn 0.7220 -0.3107 -0.6182
vn 0.7601 -0.2864 0.5833
vn 0.8552 -0.2776 0.4377
vn 0.8798 -0.1399 0.4544
vn -0.8961 -0.4280 0.1177
vn -0.9975 -0.0004 0.0707
vn -0.7307 -0.6818 -0.0346
vn -0.1099 -0.5612 -0.8203
vn -0.0413 -0.2619 -0.9642
vn -0.9363 0.2854 0.2048
vn -0.6878 -0.1790 0.7035
vn -0.3444 -0.7274 0.5935
vn 0.6069 -0.1330 -0.7836
vn 0.4208 0.1883 -0.8874
vn -0.7919 0.1397 0.5944
vn -0.5964 -0.2171 0.7728
vn 0.3952 -0.9020 0.1738
vn 0.6285 0.0209 -0.7775
vn 0.3576 0.3630 -0.8604
vn -0.4471 0.2109 0.8693
vn -0.2432 -0.0782 0.9668
vn 0.9975 0.0004 -0.0707
vn 0.7601 0.2863 -0.5833
vn 0.4475 0.8696 -0.2087
vn 0.7307 0.6818 0.0346
vn 0.6821 0.6489 -0.3371
vn 0.6942 0.4326 -0.5752
vn 0.8961 0.4280 -0.1177
vn 0.8552 0.2776 -0.4377
vn 0.8798 0.1399 -0.4544
vn 0.7220 0.3107 0.6182
vn 0.7805 0.0451 0.6236
vn 0.1738 -0.1596 0.9718
vn 0.0413 0.2619 0.9642
vn -0.2534 0.0623 0.9654
vn -0.4174 0.0576 0.9069
vn 0.1099 0.5612 0.8203
vn -0.2535 0.4671 0.8471
vn -0.2197 0.7400 0.6357
vn 0.3444 0.7274 -0.5935
vn 0.4625 0.4577 -0.7594
vn 0.5848 0.3645 -0.7247
vn 0.6878 0.1790 -0.7035
vn 0.6976 0.0840 -0.7116
vn 0.7767 0.0443 -0.6283
vn 0.9363 -0.2854 -0.2048
vn 0.6272 -0.6728 0.3923
vn 0.0725 -0.4532 0.8884
vn -0.4208 -0.1883 0.8874
vn -0.5257 -0.1536 0.8367
vn -0.5343 -0.0584 0.8433
vn -0.6069 0.1330 0.7836
vn -0.6835 0.2351 0.6910
vn -0.5927 0.5454 0.5926
vn 0.5964 0.2170 -0.7728
vn 0.5257 0.1536 -0.8367
vn 0.5343 0.0584 -0.8433
vn 0.7919 -0.1397 -0.5944
vn 0.6835 -0.2351 -0.6910
vn 0.5928 -0.5454 -0.5926
vn -0.3576 -0.3630 0.8604
vn -0.4625 -0.4577 0.7594
vn -0.5848 -0.3645 0.7247
vn -0.6285 -0.0209 0.7775
vn -0.6976 -0.0840 0.7116
vn -0.7767 -0.0443 0.6283
vn -0.3952 0.9020 -0.1738
vn -0.6272 0.6728 -0.3923
vn -0.0725 0.4532 -0.8884
vn 0.2431 0.0782 -0.9668
vn 0.2534 -0.0623 -0.9654
vn 0.4174 -0.0576 -0.9069
vn 0.4470 -0.2109 -0.8693
vn 0.2535 -0.4671 -0.8471
vn 0.2197 -0.7400 -0.6357
vn -0.4475 -0.8696 0.2087
vn -0.6822 -0.6488 0.3372
vn -0.6942 -0.4326 0.5752
vn -0.1738 0.1596 -0.9718
vn -0.7805 -0.0451 -0.6236
vn -0.7220 -0.3107 -0.6182
vn -0.7601 -0.2864 0.5833
vn -0.8552 -0.2776 0.4377
vn -0.8798 -0.1399 0.4544
vt 0.833374 0.494548
vt 0.893919 0.512741
vt 0.908415 0.468160
vt 0.848637 0.467455
vt 0.567859 0.867914
vt 0.639317 0.828812
vt 0.620915 0.894044
vt 0.556155 0.927906
vt 0.812683 0.509803
vt 0.774909 0.642712
vt 0.751394 0.643294
vt 0.751725 0.493743
vt 0.828812 0.793372
vt 0.751727 0.811870
vt 0.672932 0.807420
vt 0.672336 0.642732
vt 0.672998 0.503429
vt 0.598676 0.643182
vt 0.594201 0.530171
vt 0.560191 0.672195
vt 0.619753 0.672998
vt 0.599703 0.594201
vt 0.569702 0.558226
vt 0.580250 0.833374
vt 0.635423 0.812683
vt 0.637090 0.751725
vt 0.569078 0.759035
vt 0.500000 0.859251
vt 0.500000 0.750726
vt 0.569078 0.758996
vt 0.500000 0.657595
vt 0.560191 0.671923
vt 0.604420 0.951058
vt 0.545714 0.976119
vt 0.604420 0.548422
vt 0.626365 0.643481
vt 0.688416 0.643970
vt 0.666902 0.547256
vt 0.500000 0.917421
vt 0.563590 0.893919
vt 0.639317 0.793372
vt 0.659328 0.642712
vt 0.676970 0.643370
vt 0.671449 0.761101
vt 0.555994 0.632181
vt 0.545714 0.747180
vt 0.604420 0.735145
vt 0.572975 0.538591
vt 0.666902 0.715601
vt 0.500000 0.969030
vt 0.572975 0.947229
vt 0.501290 0.830086
vt 0.457158 0.830118
vt 0.460328 0.806630
vt 0.500288 0.803578
vt 0.499838 0.512886
vt 0.460007 0.507514
vt 0.481582 0.413128
vt 0.510774 0.417065
vt 0.500000 0.559830
vt 0.556447 0.575135
vt 0.579931 0.796381
vt 0.599703 0.530171
vt 0.637090 0.643182
vt 0.659115 0.643738
vt 0.643940 0.535244
vt 0.564556 0.492909
vt 0.500000 0.477524
vt 0.500000 0.432743
vt 0.566016 0.447361
vt 0.569702 0.518348
vt 0.616981 0.429733
vt 0.594994 0.421068
vt 0.612448 0.796381
vt 0.637526 0.771615
vt 0.500000 0.371229
vt 0.561082 0.382998
vt 0.450625 0.491920
vt 0.495971 0.498202
vt 0.507939 0.406303
vt 0.474705 0.401699
vt 0.591615 0.535244
vt 0.575831 0.433451
vt 0.407144 0.499901
vt 0.406490 0.640437
vt 0.358675 0.605643
vt 0.363238 0.556600
vt 0.578790 0.420824
vt 0.621227 0.407144
vt 0.601979 0.363238
vt 0.551080 0.357545
vt 0.500000 0.657756
vt 0.500000 0.571782
vt 0.667216 0.508652
vt 0.621227 0.499901
vt 0.632756 0.407548
vt 0.666461 0.413961
vt 0.556577 0.771615
vt 0.637090 0.751727
vt 0.260484 0.580516
vt 0.278839 0.520364
vt 0.582070 0.278839
vt 0.540875 0.268345
vt 0.619753 0.672932
vt 0.500000 0.307117
vt 0.551080 0.314473
vt 0.500000 0.983839
vt 0.393435 0.816867
vt 0.325561 0.763148
vt 0.671449 0.517077
vt 0.635423 0.509803
vt 0.642381 0.470278
vt 0.671266 0.470798
vt 0.988807 0.740196
vt 1.002924 0.661469
vt 1.015365 0.669173
vt 1.001496 0.721513
vt 0.500000 0.531683
vt 0.500000 0.631036
vt 0.249130 0.712570
vt 0.191059 0.679456
vt 0.198981 0.567653
vt 0.945839 0.547256
vt 0.886123 0.529161
vt 0.904522 0.470747
vt 0.963512 0.471464
vt 0.500000 0.238897
vt 0.540875 0.239236
vt 0.564556 0.495971
vt 0.612448 0.579931
vt 0.628268 0.501290
vt 0.631115 0.457158
vt 0.168698 0.648799
vt 0.177283 0.553376
vt 0.539817 0.181283
vt 0.500000 0.184290
vt 0.500000 0.144817
vt 0.539817 0.140934
vt 0.580006 0.205473
vt 0.539817 0.196322
vt 0.205473 0.476864
vt 0.621491 0.393435
vt 0.538703 0.608225
vt 0.500000 0.615960
vt 0.500000 0.567098
vt 0.526605 0.560962
vt 0.566016 0.450625
vt 0.149293 0.452102
vt 0.133162 0.541160
vt 0.103583 0.505809
vt 0.123733 0.441345
vt 0.539531 0.141037
vt 0.579447 0.149293
vt 0.562090 0.123733
vt 0.530633 0.116366
vt 0.500000 0.385014
vt 0.500000 0.353218
vt 0.586057 0.174337
vt 0.542919 0.165879
vt 0.174337 0.464471
vt 0.086614 0.427976
vt 0.065909 0.448336
vt 0.053210 0.428901
vt 0.071388 0.423606
vt 0.515797 0.085531
vt 0.531484 0.086614
vt 0.523242 0.071388
vt 0.510720 0.071544
vt 0.500000 0.266808
vt 0.601979 0.325561
vt 0.582070 0.249130
vt 0.108290 0.599988
vt 0.073849 0.556649
vt 0.580006 0.679456
vt 0.539817 0.690304
vt 0.539817 0.657159
vt 0.579599 0.648799
vt 0.500000 0.199929
vt 0.513331 0.045311
vt 0.500000 0.046647
vt 0.500000 0.069896
vt 0.051602 0.475706
vt 0.038205 0.462176
vt 0.038356 0.442272
vt 0.580006 0.191059
vt 0.577833 0.599988
vt 0.554232 0.556649
vt 0.500000 0.147087
vt 0.500000 0.124516
vt 0.530339 0.475706
vt 0.515210 0.477146
vt 0.513246 0.460736
vt 0.522445 0.462176
vt 0.500000 0.170521
vt 0.515546 0.457928
vt 0.507613 0.457080
vt 0.506877 0.445401
vt 0.514439 0.446199
vt 0.500000 0.089031
vt 0.528336 0.053210
vt 0.620841 0.601238
vt 0.618568 0.607555
vt 0.613078 0.604170
vt 0.614718 0.599612
vt 0.500000 0.479371
vt 0.500000 0.460095
vt 0.513331 0.424258
vt 0.512541 0.440917
vt 0.500000 0.440864
vt 0.500000 0.422187
vt 0.500000 0.664242
vt 0.576432 0.505809
vt 0.539481 0.507406
vt 0.547321 0.467354
vt 0.500000 0.513551
vt 0.519044 0.508271
vt 0.579599 0.168698
vt 0.538703 0.096221
vt 0.577833 0.108290
vt 0.520322 0.097153
vt 0.500000 0.106427
vt 0.541975 0.104341
vt 0.078394 0.467354
vt 0.104341 0.437145
vt 0.073220 0.507406
vt 0.590300 0.643738
vt 0.499630 0.641384
vt 0.459655 0.640419
vt 0.417546 0.774144
vt 0.414448 0.641253
vt 0.423095 0.508652
vt 0.621491 0.816867
vt 0.648114 0.640437
vt 0.669097 0.641253
vt 0.644267 0.774144
vt 0.578790 0.496630
vt 0.601625 0.405151
vt 0.649402 0.433451
vt 0.651726 0.367843
vt 0.620780 0.366797
vt 0.454529 0.413961
vt 0.467814 0.368189
vt 0.488225 0.366596
vt 0.561691 0.421068
vt 0.537425 0.365401
vt 0.507200 0.363509
vt 0.481273 0.364028
vt 0.510983 0.366114
vt 0.635806 0.367147
vt 0.669092 0.368189
vt 0.420824 0.496630
vt 0.452865 0.405151
vt 0.558226 0.518348
vt 0.484328 0.324872
vt 0.502799 0.322553
vt 0.547406 0.321655
vt 0.519920 0.320969
vt 0.496410 0.322232
vt 0.523434 0.321439
vt 0.639292 0.324944
vt 0.675657 0.324872
vt 0.550036 0.367843
vt 0.558926 0.322330
vt 0.465216 0.366023
vt 0.604868 0.366023
vt 0.599660 0.365401
vt 0.621651 0.293283
vt 0.658462 0.293469
vt 0.659368 0.261742
vt 0.621257 0.261665
vt 0.501495 0.293600
vt 0.482345 0.307625
vt 0.480362 0.262732
vt 0.500191 0.261781
vt 0.519246 0.292376
vt 0.547742 0.292993
vt 0.548078 0.261464
vt 0.518571 0.260916
vt 0.494871 0.293528
vt 0.493332 0.261956
vt 0.522889 0.292587
vt 0.522344 0.260869
vt 0.451756 0.288897
vt 0.449773 0.262732
vt 0.656778 0.322330
vt 0.622394 0.322035
vt 0.481902 0.324350
vt 0.605664 0.324350
vt 0.599057 0.321655
vt 0.595403 0.548078
vt 0.621257 0.561263
vt 0.645824 0.523009
vt 0.590945 0.518571
vt 0.639859 0.470735
vt 0.648324 0.498544
vt 0.685407 0.500191
vt 0.686261 0.480362
vt 0.592251 0.493332
vt 0.659368 0.560446
vt 0.683143 0.522344
vt 0.596433 0.477757
vt 0.479829 0.307317
vt 0.477757 0.262636
vt 0.447168 0.262636
vt 0.449241 0.288588
vt 0.596679 0.292993
vt 0.595403 0.261464
vt 0.559686 0.293469
vt 0.560446 0.261742
vt 0.603589 0.307317
vt 0.640355 0.307779
vt 0.679739 0.307625
vt 0.677932 0.288897
vt 0.639680 0.289050
vt 0.639859 0.262967
vt 0.679465 0.262732
vt 0.604354 0.288588
vt 0.603287 0.262636
vt 0.679739 0.482345
vt 0.640355 0.473048
vt 0.639680 0.442459
vt 0.677932 0.451756
vt 0.679465 0.449773
vt 0.639859 0.440146
vt 0.603589 0.479829
vt 0.604354 0.449241
vt 0.603287 0.447168
vt 0.841501 0.761101
vt 0.796910 0.643370
vt 0.906455 0.644155
vt 0.894416 0.742499
vt 0.957194 0.643970
vt 0.829265 0.517077
vt 0.940741 0.715601
vt 0.671449 0.841501
vt 0.669190 0.894416
vt 0.849398 0.470798
vt 0.666902 0.940741
vt 0.909364 0.402088
vt 0.855378 0.389954
vt 0.592313 0.470184
vt 0.617524 0.471308
vt 0.621192 0.417417
vt 0.598226 0.414426
vt 0.598146 0.467455
vt 0.603540 0.389954
vt 0.643835 0.389418
vt 0.855424 0.393127
vt 0.905341 0.403681
vt 0.667620 0.471464
vt 0.947229 0.538591
vt 0.963044 0.470184
vt 0.580250 0.494548
vt 0.595712 0.312254
vt 0.621272 0.312916
vt 0.622837 0.264476
vt 0.597277 0.263453
vt 0.852894 0.313492
vt 0.849695 0.260671
vt 0.818572 0.260902
vt 0.821566 0.286829
vt 0.893654 0.314609
vt 0.853541 0.316407
vt 0.850246 0.263617
vt 0.890422 0.263754
vt 0.896415 0.312211
vt 0.936226 0.312254
vt 0.933075 0.263453
vt 0.893263 0.261490
vt 0.670148 0.393127
vt 0.666826 0.415674
vt 0.958612 0.415674
vt 0.958434 0.414426
vt 0.649700 0.837975
vt 0.635627 0.887710
vt 0.686058 0.890422
vt 0.687133 0.850246
vt 0.592375 0.849695
vt 0.589648 0.893263
vt 0.597277 0.933075
vt 0.622837 0.940554
vt 0.673628 0.933416
vt 0.822213 0.289744
vt 0.819123 0.263848
vt 0.672063 0.313364
vt 0.673628 0.264581
vt 0.936602 0.313364
vt 0.933416 0.264581
vt 0.941647 0.364922
vt 0.899640 0.363406
vt 0.623001 0.364960
vt 0.665562 0.364922
vt 0.668659 0.362549
vt 0.644119 0.361871
vt 0.647700 0.316485
vt 0.685132 0.316407
vt 0.859879 0.359936
vt 0.902447 0.361457
vt 0.941330 0.363919
vt 0.860378 0.362549
vt 0.606538 0.359936
vt 0.590374 0.313492
vt 0.601582 0.363919
vt 0.646474 0.289822
vt 0.601626 0.286829
vt 0.603191 0.260902
vt 0.648039 0.263334
vt 0.675760 0.289744
vt 0.677325 0.263848
vt 0.647700 0.841274
vt 0.590374 0.852894
vt 0.601626 0.821566
vt 0.646474 0.809945
vt 0.648039 0.806852
vt 0.603191 0.818572
vt 0.685132 0.853541
vt 0.675760 0.822213
vt 0.677325 0.819123
vt 0.500000 0.668378
vt 0.500000 0.724779
vt 0.517225 0.721513
vt 0.520785 0.669173
vt 0.528698 1.002924
vt 0.500000 1.014901
vt 0.500000 1.025182
vt 0.520785 1.015365
vt 0.500000 0.744181
vt 0.519989 0.740196
vt 0.519989 0.988807
vt 0.500000 0.995348
vt 0.500000 0.660499
vt 0.528698 0.661469
vt 0.154177 0.616909
vt 0.166410 0.570048
vt 0.135838 0.608740
vt 0.149154 0.567675
vt 0.147623 0.572395
vt 0.137518 0.603560
vt 0.583783 0.154177
vt 0.583848 0.135838
vt 0.600568 0.131366
vt 0.597073 0.144428
vt 0.144166 0.612314
vt 0.141084 0.620214
vt 0.132632 0.614576
vt 0.134671 0.609983
vt 0.153028 0.593819
vt 0.141399 0.592146
vt 0.619182 0.132632
vt 0.614588 0.141084
vt 0.606252 0.140479
vt 0.610351 0.130579
vt 0.138199 0.601250
vt 0.148213 0.603179
vt 0.602487 0.570048
vt 0.583783 0.616909
vt 0.597073 0.624463
vt 0.606252 0.625520
vt 0.614588 0.620214
vt 0.620822 0.612314
vt 0.623703 0.603179
vt 0.620639 0.593819
vt 0.604695 0.577238
vt 0.601269 0.572395
vt 0.603531 0.567675
vt 0.609313 0.614171
vt 0.615687 0.610750
vt 0.619182 0.614576
vt 0.610351 0.619358
vt 0.602434 0.613212
vt 0.600568 0.617961
vt 0.626402 0.601250
vt 0.623276 0.609983
vt 0.618527 0.594500
vt 0.623272 0.592146
vt 0.590602 0.606787
vt 0.583848 0.608740
vt 0.592903 0.603615
vt 0.603070 0.582298
vt 0.613048 0.594751
vt 0.610999 0.606475
vt 0.606401 0.608943
vt 0.601438 0.608251
vt 0.586331 0.603560
vt 0.600598 0.578805
vt 0.589822 0.601288
vt 0.148133 0.578805
vt 0.140843 0.601288
vt 0.522445 0.038205
vt 0.513246 0.032036
vt 0.507613 0.025182
vt 0.515546 0.030102
vt 0.521458 0.442272
vt 0.528336 0.428901
vt 0.500000 0.456702
vt 0.500000 0.445370
vt 0.500000 0.031689
vt 0.512541 0.032373
vt 0.506877 0.025742
vt 0.500000 0.025886
vt 0.500000 0.031337
vt 0.500000 0.025479
vt 0.030102 0.457928
vt 0.030515 0.446199
vt 0.432141 0.867914
vt 0.443845 0.927906
vt 0.379085 0.894044
vt 0.360683 0.828812
vt 0.439809 0.672195
vt 0.430298 0.558226
vt 0.400297 0.594201
vt 0.380247 0.672998
vt 0.419750 0.833374
vt 0.430922 0.759035
vt 0.362910 0.751725
vt 0.364577 0.812683
vt 0.430922 0.758996
vt 0.439809 0.671923
vt 0.454286 0.976119
vt 0.395580 0.951058
vt 0.395580 0.548422
vt 0.333098 0.547256
vt 0.311584 0.643970
vt 0.373635 0.643481
vt 0.436410 0.893919
vt 0.360683 0.793372
vt 0.328551 0.761101
vt 0.323030 0.643370
vt 0.340672 0.642712
vt 0.444006 0.632181
vt 0.395580 0.735145
vt 0.454286 0.747180
vt 0.427025 0.538591
vt 0.333098 0.715601
vt 0.427025 0.947229
vt 0.443553 0.575135
vt 0.400297 0.530171
vt 0.356060 0.535244
vt 0.340885 0.643738
vt 0.362910 0.643182
vt 0.435444 0.492909
vt 0.433984 0.447361
vt 0.430298 0.518348
vt 0.405006 0.421068
vt 0.383019 0.429733
vt 0.362474 0.771615
vt 0.387552 0.796381
vt 0.438918 0.382998
vt 0.421210 0.420824
vt 0.448920 0.357545
vt 0.398021 0.363238
vt 0.378773 0.407144
vt 0.332784 0.508652
vt 0.333539 0.413961
vt 0.367244 0.407548
vt 0.378773 0.499901
vt 0.362910 0.751727
vt 0.459125 0.268345
vt 0.417930 0.278839
vt 0.380247 0.672932
vt 0.448920 0.314473
vt 0.328551 0.517077
vt 0.328734 0.470798
vt 0.357619 0.470278
vt 0.364577 0.509803
vt 0.459125 0.239236
vt 0.435444 0.495971
vt 0.387552 0.579931
vt 0.371732 0.501290
vt 0.368885 0.457158
vt 0.460183 0.181283
vt 0.460183 0.140934
vt 0.460183 0.196322
vt 0.419994 0.205473
vt 0.378509 0.393435
vt 0.461297 0.608225
vt 0.473395 0.560962
vt 0.433984 0.450625
vt 0.460469 0.141037
vt 0.469367 0.116366
vt 0.437911 0.123733
vt 0.420553 0.149293
vt 0.457081 0.165879
vt 0.413943 0.174337
vt 0.484203 0.085531
vt 0.489280 0.071544
vt 0.476758 0.071388
vt 0.468516 0.086614
vt 0.398021 0.325561
vt 0.417930 0.249130
vt 0.419994 0.679456
vt 0.420401 0.648799
vt 0.460183 0.657159
vt 0.460183 0.690304
vt 0.486669 0.045311
vt 0.419994 0.191059
vt 0.422167 0.599988
vt 0.445768 0.556649
vt 0.469661 0.475706
vt 0.477555 0.462176
vt 0.486754 0.460736
vt 0.484790 0.477146
vt 0.484454 0.457928
vt 0.485561 0.446199
vt 0.493123 0.445401
vt 0.492387 0.457080
vt 0.471665 0.053210
vt 0.379159 0.601238
vt 0.385282 0.599612
vt 0.386922 0.604170
vt 0.381432 0.607555
vt 0.486669 0.424258
vt 0.487459 0.440917
vt 0.423568 0.505809
vt 0.452679 0.467354
vt 0.460520 0.507406
vt 0.480956 0.508271
vt 0.420401 0.168698
vt 0.422167 0.108290
vt 0.461297 0.096221
vt 0.479678 0.097153
vt 0.458025 0.104341
vt 0.378509 0.816867
vt 0.355733 0.774144
vt 0.330903 0.641253
vt 0.351886 0.640437
vt 0.398375 0.405151
vt 0.421210 0.496630
vt 0.379220 0.366797
vt 0.348274 0.367843
vt 0.350598 0.433451
vt 0.330908 0.368189
vt 0.364194 0.367147
vt 0.324343 0.324872
vt 0.360708 0.324944
vt 0.395132 0.366023
vt 0.400340 0.365401
vt 0.378349 0.293283
vt 0.378743 0.261665
vt 0.340632 0.261742
vt 0.341538 0.293469
vt 0.377606 0.322035
vt 0.343222 0.322330
vt 0.394336 0.324350
vt 0.400943 0.321655
vt 0.404597 0.548078
vt 0.409055 0.518571
vt 0.354176 0.523009
vt 0.378743 0.561263
vt 0.360141 0.470735
vt 0.313739 0.480362
vt 0.314593 0.500191
vt 0.351676 0.498544
vt 0.407749 0.493332
vt 0.316857 0.522344
vt 0.340632 0.560446
vt 0.403567 0.477757
vt 0.403321 0.292993
vt 0.404597 0.261464
vt 0.359645 0.307779
vt 0.396411 0.307317
vt 0.320262 0.307625
vt 0.322068 0.288897
vt 0.320535 0.262732
vt 0.360141 0.262967
vt 0.360320 0.289050
vt 0.396713 0.262636
vt 0.395646 0.288588
vt 0.320262 0.482345
vt 0.322068 0.451756
vt 0.360320 0.442459
vt 0.359645 0.473048
vt 0.360141 0.440146
vt 0.320535 0.449773
vt 0.395646 0.449241
vt 0.396411 0.479829
vt 0.396713 0.447168
vt 0.330810 0.894416
vt 0.328551 0.841501
vt 0.333098 0.940741
vt 0.407688 0.470184
vt 0.401774 0.414426
vt 0.378808 0.417417
vt 0.382476 0.471308
vt 0.356165 0.389418
vt 0.396460 0.389954
vt 0.401854 0.467455
vt 0.332380 0.471464
vt 0.419750 0.494548
vt 0.404289 0.312254
vt 0.402723 0.263453
vt 0.377163 0.264476
vt 0.378728 0.312916
vt 0.329852 0.393127
vt 0.333174 0.415674
vt 0.350300 0.837975
vt 0.312867 0.850246
vt 0.313942 0.890422
vt 0.364373 0.887710
vt 0.410353 0.893263
vt 0.407625 0.849695
vt 0.377163 0.940554
vt 0.402723 0.933075
vt 0.326372 0.933416
vt 0.326372 0.264581
vt 0.327937 0.313364
vt 0.376999 0.364960
vt 0.334438 0.364922
vt 0.331341 0.362549
vt 0.314868 0.316407
vt 0.352300 0.316485
vt 0.355881 0.361871
vt 0.409626 0.313492
vt 0.393462 0.359936
vt 0.398418 0.363919
vt 0.353526 0.289822
vt 0.351961 0.263334
vt 0.396809 0.260902
vt 0.398374 0.286829
vt 0.324240 0.289744
vt 0.322675 0.263848
vt 0.352300 0.841274
vt 0.353526 0.809945
vt 0.398374 0.821566
vt 0.409626 0.852894
vt 0.396809 0.818572
vt 0.351961 0.806852
vt 0.314868 0.853541
vt 0.324240 0.822213
vt 0.322675 0.819123
vt 0.479215 0.669173
vt 0.482775 0.721513
vt 0.471302 1.002924
vt 0.479215 1.015365
vt 0.480011 0.740196
vt 0.480011 0.988807
vt 0.471302 0.661469
vt 0.416217 0.154177
vt 0.402927 0.144428
vt 0.399432 0.131366
vt 0.416152 0.135838
vt 0.380819 0.132632
vt 0.389649 0.130579
vt 0.393748 0.140479
vt 0.385412 0.141084
vt 0.397513 0.570048
vt 0.379361 0.593819
vt 0.376297 0.603179
vt 0.379178 0.612314
vt 0.385412 0.620214
vt 0.393748 0.625520
vt 0.402927 0.624463
vt 0.416217 0.616909
vt 0.395305 0.577238
vt 0.396469 0.567675
vt 0.398731 0.572395
vt 0.390687 0.614171
vt 0.389649 0.619358
vt 0.380819 0.614576
vt 0.384313 0.610750
vt 0.397566 0.613212
vt 0.399432 0.617961
vt 0.376724 0.609983
vt 0.373598 0.601250
vt 0.376728 0.592146
vt 0.381473 0.594500
vt 0.409398 0.606787
vt 0.416152 0.608740
vt 0.407098 0.603615
vt 0.398562 0.608251
vt 0.393599 0.608943
vt 0.389001 0.606475
vt 0.386952 0.594751
vt 0.396930 0.582298
vt 0.413669 0.603560
vt 0.399402 0.578805
vt 0.410178 0.601288
vt 0.477555 0.038205
vt 0.484454 0.030102
vt 0.492387 0.025182
vt 0.486754 0.032036
vt 0.478542 0.442272
vt 0.471665 0.428901
vt 0.493123 0.025742
vt 0.487459 0.032373
vt 0.181819 0.000000
vt 0.227273 0.078731
vt 0.136365 0.078731
vt 0.272728 0.157461
vt 0.318182 0.078731
vt 0.363637 0.157461
vt 0.909091 0.000000
vt 0.954545 0.078731
vt 0.863636 0.078731
vt 0.727273 0.000000
vt 0.772727 0.078731
vt 0.681818 0.078731
vt 0.545455 0.000000
vt 0.590909 0.078731
vt 0.500000 0.078731
vt 0.318182 0.236191
vt 0.090910 0.157461
vt 0.181819 0.157461
vt 0.136365 0.236191
vt 0.818182 0.157461
vt 0.909091 0.157461
vt 0.863636 0.236191
vt 0.636364 0.157461
vt 0.727273 0.157461
vt 0.681818 0.236191
vt 0.454546 0.157461
vt 0.545455 0.157461
vt 0.500000 0.236191
vt 0.227273 0.236191
vt 0.045455 0.236191
vt 0.772727 0.236191
vt 0.590909 0.236191
vt 0.409092 0.236191
vt 0.181819 0.314921
vt 0.272728 0.314921
vt 0.227273 0.393651
vt 0.000000 0.314921
vt 0.090910 0.314921
vt 0.045455 0.393651
vt 0.727273 0.314921
vt 0.818182 0.314921
vt 0.772727 0.393651
vt 0.545455 0.314921
vt 0.636364 0.314921
vt 0.590909 0.393651
vt 0.363637 0.314921
vt 0.454546 0.314921
vt 0.409092 0.393651
vt 0.500000 0.393651
vt 0.454546 0.472382
vt 0.681818 0.393651
vt 0.636364 0.472382
vt 0.863636 0.393651
vt 0.818182 0.472382
vt 0.909091 0.314921
vt 0.136365 0.393651
vt 0.090910 0.472382
vt 0.318182 0.393651
vt 0.272728 0.472382
vt 0.954545 0.236191
vt 1.000000 0.157461
vt 0.409092 0.078731
vt 0.363637 0.000000
s 1
f 116/1/1 98/2/1 209/3/1 208/4/1
f 115/5/2 4/6/2 17/7/2 97/8/2
f 3/9/3 7/10/3 13/11/3 8/12/3
f 7/10/4 4/13/4 9/14/4 13/11/4
f 13/11/5 9/14/5 2/15/5 10/16/5
f 8/12/6 13/11/6 10/16/6 1/17/6
f 1/17/7 10/16/7 32/18/7 29/19/7
f 114/20/8 1/21/8 29/22/8 83/23/8
f 116/24/9 3/25/9 8/26/9 109/27/9
f 109/27/10 8/26/10 1/21/10 114/20/10
f 115/5/11 6/28/11 15/29/11 99/30/11
f 99/30/12 15/29/12 12/31/12 112/32/12
f 97/8/13 17/7/13 21/33/13 90/34/13
f 20/35/14 25/36/14 203/37/14 204/38/14
f 116/24/15 5/28/15 18/39/15 98/40/15
f 4/41/16 7/42/16 197/43/16 196/44/16
f 89/45/17 90/46/17 21/47/17 25/36/17
f 91/48/18 89/45/18 25/36/18 20/35/18
f 25/36/19 21/47/19 202/49/19 203/37/19
f 98/40/20 18/39/20 23/50/20 91/51/20
f 38/52/21 45/53/21 134/54/21 131/55/21
f 133/56/22 136/57/22 144/58/22 146/59/22
f 112/32/23 12/31/23 34/60/23 82/61/23
f 10/16/24 2/15/24 30/62/24 32/18/24
f 29/63/25 32/64/25 129/65/25 130/66/25
f 75/67/26 41/68/26 48/69/26 73/70/26
f 82/61/27 34/60/27 41/68/27 75/67/27
f 83/71/28 29/63/28 141/72/28 140/73/28
f 32/64/29 30/74/29 128/75/29 129/65/29
f 73/70/30 48/69/30 56/76/30 66/77/30
f 74/78/31 81/79/31 145/80/31 148/81/31
f 130/82/32 133/56/32 146/59/32 147/83/32
f 6/28/33 115/5/33 97/8/33 19/39/33
f 54/84/34 53/85/34 60/86/34 61/87/34
f 67/88/35 54/89/35 61/90/35 65/91/35
f 11/92/36 114/20/36 83/23/36 33/93/36
f 5/28/37 116/24/37 109/27/37 14/29/37
f 14/29/38 109/27/38 114/20/38 11/92/38
f 139/94/39 54/95/39 143/96/39 142/97/39
f 30/62/40 38/52/40 131/55/40 128/98/40
f 4/6/41 115/5/41 99/30/41 9/99/41
f 61/87/42 60/86/42 69/100/42 70/101/42
f 65/91/43 61/90/43 70/102/43 58/103/43
f 9/99/44 99/30/44 112/32/44 2/104/44
f 66/77/45 56/76/45 63/105/45 64/106/45
f 19/39/46 97/8/46 90/34/46 24/107/46
f 53/85/47 52/108/47 59/109/47 60/86/47
f 198/110/48 3/111/48 207/112/48 213/113/48
f 256/114/49 255/115/49 253/116/49 254/117/49
f 23/118/50 26/119/50 89/45/50 91/48/50
f 69/100/51 68/120/51 76/121/51 77/122/51
f 204/123/52 201/124/52 211/125/52 212/126/52
f 64/106/53 63/105/53 72/127/53 57/128/53
f 33/93/54 83/23/54 81/129/54 40/68/54
f 60/86/55 59/109/55 68/120/55 69/100/55
f 2/104/56 112/32/56 82/61/56 30/130/56
f 38/131/57 75/67/57 73/70/57 45/132/57
f 77/122/58 76/121/58 259/133/58 260/134/58
f 30/130/59 82/61/59 75/67/59 38/131/59
f 50/135/60 80/136/60 88/137/60 44/138/60
f 58/103/61 70/102/61 78/139/61 51/140/61
f 70/101/62 69/100/62 77/122/62 78/141/62
f 45/132/63 73/70/63 66/77/63 52/142/63
f 57/128/64 72/127/64 80/136/64 50/135/64
f 28/143/65 110/144/65 96/145/65 42/146/65
f 40/68/66 81/129/66 74/147/66 47/69/66
f 108/148/67 262/149/67 93/150/67 94/151/67
f 31/152/68 108/153/68 94/154/68 43/155/68
f 55/156/69 67/88/69 65/91/69 62/157/69
f 51/140/70 78/139/70 86/158/70 49/159/70
f 78/141/71 77/122/71 260/134/71 86/160/71
f 47/69/72 74/147/72 67/88/72 55/156/72
f 123/161/73 124/162/73 101/163/73 102/164/73
f 121/165/74 123/166/74 102/167/74 37/168/74
f 62/157/75 65/91/75 58/103/75 71/169/75
f 52/142/76 66/77/76 64/106/76 59/170/76
f 59/170/77 64/106/77 57/128/77 68/171/77
f 262/149/78 261/172/78 92/173/78 93/150/78
f 76/174/79 50/175/79 44/176/79 259/177/79
f 71/169/80 58/103/80 51/140/80 79/178/80
f 37/168/81 35/179/81 105/180/81 103/181/81
f 124/162/82 127/182/82 297/183/82 298/184/82 101/163/82
f 68/171/83 57/128/83 50/135/83 76/185/83
f 261/186/84 28/143/84 42/146/84 92/187/84
f 107/188/85 31/152/85 43/155/85 95/189/85
f 127/190/86 122/191/86 295/192/86 297/193/86
f 79/178/87 51/140/87 49/159/87 87/194/87
f 100/195/88 36/196/88 301/197/88 104/198/88
f 126/199/89 121/165/89 37/168/89 103/181/89
f 102/167/90 101/200/90 35/179/90 37/168/90
f 274/201/91 273/202/91 290/203/91 291/204/91
f 122/191/92 125/205/92 300/206/92 295/192/92
f 49/159/93 86/158/93 108/153/93 31/152/93
f 86/160/94 260/134/94 262/149/94 108/148/94
f 35/207/95 296/208/95 299/209/95 105/210/95
f 44/176/96 88/211/96 110/144/96 28/143/96
f 93/212/97 92/187/97 120/213/97 119/214/97
f 87/194/98 49/159/98 31/152/98 107/188/98
f 42/146/99 96/145/99 113/215/99 27/216/99
f 259/217/100 44/138/100 28/218/100 261/219/100
f 92/187/101 42/146/101 27/216/101 120/213/101
f 95/189/102 43/155/102 22/220/102 118/221/102
f 43/155/103 94/154/103 117/222/103 22/220/103
f 94/151/104 93/150/104 119/223/104 117/224/104
f 120/213/105 27/216/105 122/191/105 127/190/105
f 118/221/106 22/220/106 121/165/106 126/199/106
f 119/223/107 120/225/107 127/182/107 124/162/107
f 27/216/108 113/215/108 125/205/108 122/191/108
f 22/220/109 117/222/109 123/166/109 121/165/109
f 117/224/110 119/223/110 124/162/110 123/161/110
f 130/82/111 129/226/111 132/227/111 133/56/111
f 132/227/112 131/55/112 134/54/112 135/228/112
f 129/226/113 128/98/113 131/55/113 132/227/113
f 135/228/114 134/54/114 137/229/114 138/230/114
f 133/56/115 132/227/115 135/228/115 136/57/115
f 136/57/116 135/228/116 138/230/116 139/231/116
f 52/232/117 53/233/117 138/234/117 137/235/117
f 45/53/118 52/108/118 137/229/118 134/54/118
f 54/95/119 67/236/119 149/237/119 143/96/119
f 53/233/120 54/95/120 139/94/120 138/234/120
f 141/72/121 147/238/121 157/239/121 39/240/121
f 144/58/122 142/241/122 150/242/122 153/243/122
f 145/80/123 140/244/123 46/245/123 154/246/123
f 148/81/124 145/80/124 154/246/124 158/247/124
f 146/59/125 144/58/125 153/243/125 156/248/125
f 142/97/126 143/96/126 151/249/126 150/250/126
f 136/57/127 139/231/127 142/241/127 144/58/127
f 67/251/128 74/78/128 148/81/128 149/252/128
f 29/63/129 130/66/129 147/238/129 141/72/129
f 81/79/130 83/253/130 140/244/130 145/80/130
f 153/243/131 150/242/131 162/254/131 164/255/131
f 154/246/132 46/245/132 160/256/132 165/257/132
f 158/247/133 154/246/133 165/257/133 168/258/133
f 156/248/134 153/243/134 164/255/134 166/259/134
f 150/250/135 151/249/135 163/260/135 162/261/135
f 157/262/136 156/248/136 166/259/136 167/263/136
f 149/252/137 148/81/137 158/247/137 159/264/137
f 143/96/138 149/237/138 159/265/138 151/249/138
f 140/73/139 141/72/139 39/240/139 46/266/139
f 147/83/140 146/59/140 156/248/140 157/262/140
f 188/267/141 187/268/141 177/269/141 152/270/141
f 184/271/142 185/272/142 170/273/142 173/274/142
f 182/275/143 180/276/143 155/277/143 174/278/143
f 181/279/144 182/275/144 174/278/144 178/280/144
f 183/281/145 184/271/145 173/274/145 176/282/145
f 170/273/146 185/272/146 194/283/146 192/284/146
f 39/240/147 157/239/147 167/285/147 161/286/147
f 159/264/148 158/247/148 168/258/148 169/287/148
f 151/249/149 159/265/149 169/288/149 163/260/149
f 46/266/150 39/240/150 161/286/150 160/289/150
f 155/290/151 152/291/151 175/292/151 174/293/151
f 171/294/152 172/295/152 173/296/152 170/297/152
f 174/293/153 175/292/153 172/295/153 178/298/153
f 175/292/154 152/291/154 177/299/154 176/300/154
f 178/298/155 172/295/155 171/294/155 179/301/155
f 172/295/156 175/292/156 176/300/156 173/296/156
f 189/302/157 181/279/157 178/280/157 179/303/157
f 189/302/158 179/303/158 193/304/158 195/305/158
f 180/306/159 188/267/159 152/270/159 155/307/159
f 187/308/160 183/281/160 176/282/160 177/309/160
f 167/263/161 166/259/161 183/281/161 187/308/161
f 160/289/162 161/286/162 188/267/162 180/306/162
f 163/260/163 169/288/163 189/310/163 186/311/163
f 169/287/164 168/258/164 181/279/164 189/302/164
f 162/261/165 163/260/165 186/311/165 185/312/165
f 166/259/166 164/255/166 184/271/166 183/281/166
f 168/258/167 165/257/167 182/275/167 181/279/167
f 165/257/168 160/256/168 180/276/168 182/275/168
f 164/255/169 162/254/169 185/272/169 184/271/169
f 161/286/170 167/285/170 187/268/170 188/267/170
f 194/313/171 190/314/171 191/315/171 192/316/171
f 190/314/172 195/317/172 193/318/172 191/315/172
f 185/319/173 186/320/173 190/321/173 194/322/173
f 171/294/174 170/297/174 192/323/174 191/324/174
f 186/320/175 189/325/175 195/326/175 190/321/175
f 179/301/176 171/294/176 191/324/176 193/327/176
f 196/328/177 197/329/177 200/330/177 199/331/177
f 200/330/178 201/124/178 204/123/178 203/332/178
f 197/329/179 198/333/179 201/124/179 200/330/179
f 199/331/180 200/330/180 203/332/180 202/334/180
f 7/42/181 3/111/181 198/110/181 197/43/181
f 17/7/182 4/6/182 196/335/182 199/336/182
f 201/124/183 198/333/183 213/337/183 211/125/183
f 21/33/184 17/7/184 199/336/184 202/338/184
f 208/4/185 209/3/185 217/339/185 216/340/185
f 210/341/186 206/342/186 214/343/186 218/344/186
f 207/112/187 208/345/187 216/346/187 215/347/187
f 211/125/188 213/337/188 221/348/188 219/349/188
f 20/35/189 204/38/189 212/350/189 206/342/189
f 91/48/190 20/35/190 206/342/190 210/341/190
f 98/2/191 91/351/191 210/352/191 209/3/191
f 3/111/192 116/353/192 208/345/192 207/112/192
f 232/354/193 235/355/193 222/356/193 226/357/193
f 233/358/194 224/359/194 240/360/194 241/361/194
f 16/362/195 230/363/195 229/364/195 227/365/195
f 231/366/196 232/367/196 226/368/196 225/369/196
f 213/113/197 207/112/197 215/347/197 221/370/197
f 206/342/198 212/350/198 220/371/198 214/343/198
f 212/126/199 211/125/199 219/349/199 220/372/199
f 209/3/200 210/352/200 218/373/200 217/339/200
f 223/374/201 205/375/201 227/376/201 229/377/201
f 223/374/202 224/378/202 225/379/202 205/375/202
f 205/375/203 225/379/203 226/380/203 222/381/203
f 205/375/204 222/381/204 228/382/204 227/376/204
f 233/358/205 231/366/205 225/369/205 224/359/205
f 229/364/206 230/363/206 237/383/206 238/384/206
f 235/355/207 236/385/207 228/386/207 222/356/207
f 236/387/208 16/362/208 227/365/208 228/388/208
f 250/389/209 243/390/209 16/362/209 236/387/209
f 249/391/210 250/392/210 236/385/210 235/355/210
f 246/393/211 245/394/211 234/395/211 230/396/211
f 248/397/212 244/398/212 231/366/212 233/358/212
f 244/398/213 247/399/213 232/367/213 231/366/213
f 243/390/214 246/400/214 230/363/214 16/362/214
f 245/394/215 248/401/215 233/402/215 234/395/215
f 247/403/216 249/391/216 235/355/216 232/354/216
f 242/404/217 241/405/217 240/406/217 239/407/217
f 237/408/218 242/404/218 239/407/218 238/409/218
f 234/410/219 233/411/219 241/412/219 242/413/219
f 224/378/220 223/374/220 239/414/220 240/415/220
f 230/416/221 234/410/221 242/413/221 237/417/221
f 223/374/222 229/377/222 238/418/222 239/414/222
f 218/344/223 214/343/223 249/391/223 247/403/223
f 215/347/224 216/346/224 248/401/224 245/394/224
f 219/349/225 221/348/225 246/400/225 243/390/225
f 217/339/226 218/373/226 247/399/226 244/398/226
f 216/340/227 217/339/227 244/398/227 248/397/227
f 221/370/228 215/347/228 245/394/228 246/393/228
f 214/343/229 220/371/229 250/392/229 249/391/229
f 220/372/230 219/349/230 243/390/230 250/389/230
f 252/419/231 251/420/231 254/421/231 253/422/231
f 255/423/232 257/424/232 252/425/232 253/426/232
f 258/427/233 256/428/233 254/421/233 251/420/233
f 24/107/234 90/34/234 256/429/234 258/430/234
f 89/45/235 26/119/235 257/431/235 255/432/235
f 90/46/236 89/45/236 255/432/236 256/428/236
f 84/433/237 85/434/237 260/134/237 259/133/237
f 275/435/238 84/433/238 259/133/238 261/172/238
f 85/434/239 276/436/239 262/149/239 260/134/239
f 276/436/240 284/437/240 283/438/240 275/435/240 261/172/240 262/149/240
f 84/439/241 275/440/241 279/441/241 263/442/241
f 266/443/242 264/444/242 278/445/242 280/446/242
f 276/436/243 85/434/243 267/447/243 282/448/243
f 278/449/244 264/450/244 265/451/244 277/452/244
f 277/452/245 265/451/245 263/442/245 279/441/245
f 266/443/246 280/446/246 281/453/246 268/454/246
f 268/454/247 281/453/247 282/448/247 267/447/247
f 85/455/248 84/456/248 263/457/248 265/458/248 264/459/248 266/460/248 268/461/248 267/462/248
f 106/463/249 284/464/249 276/465/249
f 271/466/250 269/467/250 278/468/250 277/469/250
f 270/470/251 271/466/251 277/469/251 279/471/251
f 273/202/252 274/201/252 281/472/252 280/473/252
f 274/201/253 272/474/253 282/475/253 281/472/253
f 269/467/254 273/202/254 280/473/254 278/468/254
f 111/476/255 270/470/255 279/471/255 275/477/255
f 272/474/256 106/463/256 276/465/256 282/475/256
f 285/478/257 286/479/257 292/480/257 291/204/257 290/203/257 288/481/257 287/482/257 289/483/257
f 283/484/258 111/476/258 275/477/258
f 270/470/259 111/476/259 285/478/259 289/483/259
f 294/485/260 286/479/260 285/478/260 293/486/260
f 111/476/261 283/484/261 293/486/261 285/478/261
f 106/463/262 272/474/262 292/480/262 286/479/262
f 272/474/263 274/201/263 291/204/263 292/480/263
f 269/467/264 271/466/264 287/482/264 288/481/264
f 283/438/265 284/437/265 294/487/265 293/488/265
f 273/202/266 269/467/266 288/481/266 290/203/266
f 284/464/267 106/463/267 286/479/267 294/485/267
f 271/466/268 270/470/268 289/483/268 287/482/268
f 297/489/269 295/490/269 36/491/269 100/492/269
f 296/208/270 298/493/270 104/198/270 301/197/270
f 101/494/271 298/493/271 296/208/271 35/207/271
f 36/196/272 302/495/272 303/496/272 301/197/272
f 299/497/273 296/498/273 301/499/273 303/500/273
f 295/490/274 300/501/274 302/502/274 36/491/274
f 298/184/275 297/183/275 100/503/275 104/504/275
f 385/1/276 474/4/276 475/3/276 372/2/276
f 384/505/277 371/506/277 314/507/277 307/508/277
f 306/9/278 309/12/278 312/11/278 308/10/278
f 308/10/279 312/11/279 310/14/279 307/13/279
f 312/11/280 311/16/280 305/15/280 310/14/280
f 309/12/281 304/17/281 311/16/281 312/11/281
f 304/17/282 321/19/282 324/18/282 311/16/282
f 383/509/283 361/510/283 321/511/283 304/512/283
f 385/513/284 380/514/284 309/515/284 306/516/284
f 380/514/285 383/509/285 304/512/285 309/515/285
f 384/505/286 373/517/286 15/29/286 6/28/286
f 373/517/287 382/518/287 12/31/287 15/29/287
f 371/506/288 366/519/288 316/520/288 314/507/288
f 315/521/289 470/522/289 469/523/289 318/524/289
f 385/513/290 372/525/290 18/39/290 5/28/290
f 307/526/291 462/527/291 463/528/291 308/529/291
f 365/530/292 318/524/292 316/531/292 366/532/292
f 367/533/293 315/521/293 318/524/293 365/530/293
f 318/524/294 469/523/294 468/534/294 316/531/294
f 372/525/295 367/535/295 23/50/295 18/39/295
f 328/52/296 397/55/296 400/54/296 333/53/296
f 399/56/297 412/59/297 410/58/297 402/57/297
f 382/518/298 360/536/298 34/60/298 12/31/298
f 311/16/299 324/18/299 322/62/299 305/15/299
f 321/537/300 396/538/300 395/539/300 324/540/300
f 355/541/301 353/542/301 48/69/301 41/68/301
f 360/536/302 355/541/302 41/68/302 34/60/302
f 361/543/303 406/544/303 407/545/303 321/537/303
f 324/540/304 395/539/304 394/546/304 322/547/304
f 353/542/305 348/548/305 56/76/305 48/69/305
f 354/78/306 414/81/306 411/80/306 359/79/306
f 396/82/307 413/83/307 412/59/307 399/56/307
f 6/28/308 19/39/308 371/506/308 384/505/308
f 340/84/309 345/87/309 344/86/309 339/85/309
f 349/549/310 347/550/310 345/551/310 340/552/310
f 11/92/311 33/93/311 361/510/311 383/509/311
f 5/28/312 14/29/312 380/514/312 385/513/312
f 14/29/313 11/92/313 383/509/313 380/514/313
f 405/553/314 408/554/314 409/555/314 340/556/314
f 322/62/315 394/98/315 397/55/315 328/52/315
f 307/508/316 310/557/316 373/517/316 384/505/316
f 345/87/317 352/101/317 351/100/317 344/86/317
f 347/550/318 342/558/318 352/559/318 345/551/318
f 310/557/319 305/560/319 382/518/319 373/517/319
f 348/548/320 346/561/320 63/105/320 56/76/320
f 19/39/321 24/107/321 366/519/321 371/506/321
f 339/85/322 344/86/322 343/109/322 338/108/322
f 464/562/323 479/563/323 473/564/323 306/565/323
f 520/114/324 518/117/324 517/116/324 519/115/324
f 23/118/325 367/533/325 365/530/325 26/119/325
f 351/100/326 357/122/326 356/121/326 350/120/326
f 470/123/327 478/126/327 477/125/327 467/124/327
f 346/561/328 341/566/328 72/127/328 63/105/328
f 33/93/329 40/68/329 359/567/329 361/510/329
f 344/86/330 351/100/330 350/120/330 343/109/330
f 305/560/331 322/568/331 360/536/331 382/518/331
f 328/569/332 333/570/332 353/542/332 355/541/332
f 357/122/333 522/134/333 521/133/333 356/121/333
f 322/568/334 328/569/334 355/541/334 360/536/334
f 336/571/335 332/572/335 88/137/335 80/136/335
f 342/558/336 337/573/336 358/574/336 352/559/336
f 352/101/337 358/141/337 357/122/337 351/100/337
f 333/570/338 338/575/338 348/548/338 353/542/338
f 341/566/339 336/571/339 80/136/339 72/127/339
f 320/576/340 330/577/340 96/145/340 110/144/340
f 40/68/341 47/69/341 354/578/341 359/567/341
f 379/148/342 370/151/342 369/150/342 524/149/342
f 323/579/343 331/580/343 370/581/343 379/582/343
f 55/156/344 62/157/344 347/550/344 349/549/344
f 337/573/345 335/583/345 364/584/345 358/574/345
f 358/141/346 364/160/346 522/134/346 357/122/346
f 47/69/347 55/156/347 349/549/347 354/578/347
f 391/161/348 376/164/348 375/163/348 392/162/348
f 389/585/349 327/586/349 376/587/349 391/588/349
f 62/157/350 71/169/350 342/558/350 347/550/350
f 338/575/351 343/589/351 346/561/351 348/548/351
f 343/589/352 350/590/352 341/566/352 346/561/352
f 524/149/353 369/150/353 368/173/353 523/172/353
f 356/591/354 521/592/354 332/593/354 336/594/354
f 71/169/355 79/178/355 337/573/355 342/558/355
f 327/586/356 103/181/356 105/180/356 325/595/356
f 392/162/357 375/163/357 560/184/357 559/183/357 393/182/357
f 350/590/358 356/596/358 336/571/358 341/566/358
f 523/597/359 368/598/359 330/577/359 320/576/359
f 107/188/360 95/189/360 331/580/360 323/579/360
f 393/599/361 559/600/361 557/601/361 390/602/361
f 79/178/362 87/194/362 335/583/362 337/573/362
f 374/603/363 377/604/363 561/605/363 326/606/363
f 126/199/364 103/181/364 327/586/364 389/585/364
f 376/587/365 327/586/365 325/595/365 375/607/365
f 536/608/366 553/609/366 552/610/366 535/611/366
f 390/602/367 557/601/367 300/206/367 125/205/367
f 335/583/368 323/579/368 379/582/368 364/584/368
f 364/160/369 379/148/369 524/149/369 522/134/369
f 325/612/370 105/210/370 299/209/370 558/613/370
f 332/593/371 320/576/371 110/144/371 88/211/371
f 369/614/372 387/615/372 388/616/372 368/598/372
f 87/194/373 107/188/373 323/579/373 335/583/373
f 330/577/374 319/617/374 113/215/374 96/145/374
f 521/618/375 523/619/375 320/620/375 332/572/375
f 368/598/376 388/616/376 319/617/376 330/577/376
f 95/189/377 118/221/377 317/621/377 331/580/377
f 331/580/378 317/621/378 386/622/378 370/581/378
f 370/151/379 386/224/379 387/223/379 369/150/379
f 388/616/380 393/599/380 390/602/380 319/617/380
f 118/221/381 126/199/381 389/585/381 317/621/381
f 387/223/382 392/162/382 393/182/382 388/225/382
f 319/617/383 390/602/383 125/205/383 113/215/383
f 317/621/384 389/585/384 391/588/384 386/622/384
f 386/224/385 391/161/385 392/162/385 387/223/385
f 396/82/386 399/56/386 398/227/386 395/226/386
f 398/227/387 401/228/387 400/54/387 397/55/387
f 395/226/388 398/227/388 397/55/388 394/98/388
f 401/228/389 404/230/389 403/229/389 400/54/389
f 399/56/390 402/57/390 401/228/390 398/227/390
f 402/57/391 405/231/391 404/230/391 401/228/391
f 338/623/392 403/624/392 404/625/392 339/626/392
f 333/53/393 400/54/393 403/229/393 338/108/393
f 340/556/394 409/555/394 415/627/394 349/628/394
f 339/626/395 404/625/395 405/553/395 340/556/395
f 407/545/396 329/629/396 423/630/396 413/631/396
f 410/58/397 419/243/397 416/242/397 408/241/397
f 411/80/398 420/246/398 334/245/398 406/244/398
f 414/81/399 424/247/399 420/246/399 411/80/399
f 412/59/400 422/248/400 419/243/400 410/58/400
f 408/554/401 416/632/401 417/633/401 409/555/401
f 402/57/402 410/58/402 408/241/402 405/231/402
f 349/251/403 415/252/403 414/81/403 354/78/403
f 321/537/404 407/545/404 413/631/404 396/538/404
f 359/79/405 411/80/405 406/244/405 361/253/405
f 419/243/406 430/255/406 428/254/406 416/242/406
f 420/246/407 431/257/407 426/256/407 334/245/407
f 424/247/408 434/258/408 431/257/408 420/246/408
f 422/248/409 432/259/409 430/255/409 419/243/409
f 416/632/410 428/634/410 429/635/410 417/633/410
f 423/262/411 433/263/411 432/259/411 422/248/411
f 415/252/412 425/264/412 424/247/412 414/81/412
f 409/555/413 417/633/413 425/636/413 415/627/413
f 406/544/414 334/637/414 329/629/414 407/545/414
f 413/83/415 423/262/415 422/248/415 412/59/415
f 454/638/416 418/639/416 443/640/416 453/641/416
f 450/271/417 439/274/417 436/273/417 451/272/417
f 448/275/418 440/278/418 421/277/418 446/276/418
f 447/279/419 444/280/419 440/278/419 448/275/419
f 449/281/420 442/282/420 439/274/420 450/271/420
f 436/273/421 458/284/421 460/283/421 451/272/421
f 329/629/422 427/642/422 433/643/422 423/630/422
f 425/264/423 435/287/423 434/258/423 424/247/423
f 417/633/424 429/635/424 435/644/424 425/636/424
f 334/637/425 426/645/425 427/642/425 329/629/425
f 421/646/426 440/647/426 441/648/426 418/649/426
f 437/650/427 436/651/427 439/652/427 438/653/427
f 440/647/428 444/654/428 438/653/428 441/648/428
f 441/648/429 442/655/429 443/656/429 418/649/429
f 444/654/430 445/657/430 437/650/430 438/653/430
f 438/653/431 439/652/431 442/655/431 441/648/431
f 455/302/432 445/303/432 444/280/432 447/279/432
f 455/302/433 461/305/433 459/304/433 445/303/433
f 446/658/434 421/659/434 418/639/434 454/638/434
f 453/308/435 443/309/435 442/282/435 449/281/435
f 433/263/436 453/308/436 449/281/436 432/259/436
f 426/645/437 446/658/437 454/638/437 427/642/437
f 429/635/438 452/660/438 455/661/438 435/644/438
f 435/287/439 455/302/439 447/279/439 434/258/439
f 428/634/440 451/662/440 452/660/440 429/635/440
f 432/259/441 449/281/441 450/271/441 430/255/441
f 434/258/442 447/279/442 448/275/442 431/257/442
f 431/257/443 448/275/443 446/276/443 426/256/443
f 430/255/444 450/271/444 451/272/444 428/254/444
f 427/642/445 454/638/445 453/641/445 433/643/445
f 460/663/446 458/664/446 457/665/446 456/666/446
f 456/666/447 457/665/447 459/667/447 461/668/447
f 451/669/448 460/670/448 456/671/448 452/672/448
f 437/650/449 457/673/449 458/674/449 436/651/449
f 452/672/450 456/671/450 461/675/450 455/676/450
f 445/657/451 459/677/451 457/673/451 437/650/451
f 462/328/452 465/331/452 466/330/452 463/329/452
f 466/330/453 469/332/453 470/123/453 467/124/453
f 463/329/454 466/330/454 467/124/454 464/333/454
f 465/331/455 468/334/455 469/332/455 466/330/455
f 308/529/456 463/528/456 464/562/456 306/565/456
f 314/507/457 465/678/457 462/679/457 307/508/457
f 467/124/458 477/125/458 479/337/458 464/333/458
f 316/520/459 468/680/459 465/678/459 314/507/459
f 474/4/460 482/340/460 483/339/460 475/3/460
f 476/681/461 484/682/461 480/683/461 472/684/461
f 473/564/462 481/685/462 482/686/462 474/687/462
f 477/125/463 485/349/463 487/348/463 479/337/463
f 315/521/464 472/684/464 478/688/464 470/522/464
f 367/533/465 476/681/465 472/684/465 315/521/465
f 372/2/466 475/3/466 476/352/466 367/351/466
f 306/565/467 473/564/467 474/687/467 385/689/467
f 498/690/468 492/691/468 488/692/468 501/693/468
f 499/358/469 507/361/469 506/360/469 490/359/469
f 313/362/470 493/365/470 495/364/470 496/363/470
f 497/366/471 491/369/471 492/368/471 498/367/471
f 479/563/472 487/694/472 481/685/472 473/564/472
f 472/684/473 480/683/473 486/695/473 478/688/473
f 478/126/474 486/372/474 485/349/474 477/125/474
f 475/3/475 483/339/475 484/373/475 476/352/475
f 489/696/476 495/697/476 493/698/476 471/699/476
f 489/696/477 471/699/477 491/700/477 490/701/477
f 471/699/478 488/702/478 492/703/478 491/700/478
f 471/699/479 493/698/479 494/704/479 488/702/479
f 499/358/480 490/359/480 491/369/480 497/366/480
f 495/364/481 504/384/481 503/383/481 496/363/481
f 501/693/482 488/692/482 494/705/482 502/706/482
f 502/387/483 494/388/483 493/365/483 313/362/483
f 516/389/484 502/387/484 313/362/484 509/390/484
f 515/707/485 501/693/485 502/706/485 516/708/485
f 512/709/486 496/710/486 500/711/486 511/712/486
f 514/397/487 499/358/487 497/366/487 510/398/487
f 510/398/488 497/366/488 498/367/488 513/399/488
f 509/390/489 313/362/489 496/363/489 512/400/489
f 511/712/490 500/711/490 499/713/490 514/714/490
f 513/715/491 498/690/491 501/693/491 515/707/491
f 508/716/492 505/717/492 506/718/492 507/719/492
f 503/720/493 504/721/493 505/717/493 508/716/493
f 500/722/494 508/723/494 507/724/494 499/725/494
f 490/701/495 506/726/495 505/727/495 489/696/495
f 496/728/496 503/729/496 508/723/496 500/722/496
f 489/696/497 505/727/497 504/730/497 495/697/497
f 484/682/498 513/715/498 515/707/498 480/683/498
f 481/685/499 511/712/499 514/714/499 482/686/499
f 485/349/500 509/390/500 512/400/500 487/348/500
f 483/339/501 510/398/501 513/399/501 484/373/501
f 482/340/502 514/397/502 510/398/502 483/339/502
f 487/694/503 512/709/503 511/712/503 481/685/503
f 480/683/504 515/707/504 516/708/504 486/695/504
f 486/372/505 516/389/505 509/390/505 485/349/505
f 252/419/506 517/731/506 518/732/506 251/420/506
f 519/733/507 517/734/507 252/425/507 257/424/507
f 258/427/508 251/420/508 518/732/508 520/735/508
f 24/107/509 258/430/509 520/736/509 366/519/509
f 365/530/510 519/737/510 257/431/510 26/119/510
f 366/532/511 520/735/511 519/737/511 365/530/511
f 362/433/512 521/133/512 522/134/512 363/434/512
f 537/435/513 523/172/513 521/133/513 362/433/513
f 363/434/514 522/134/514 524/149/514 538/436/514
f 538/436/515 524/149/515 523/172/515 537/435/515 545/438/515 546/437/515
f 362/738/516 525/739/516 541/740/516 537/741/516
f 528/443/517 542/446/517 540/445/517 526/444/517
f 538/436/518 544/448/518 529/447/518 363/434/518
f 540/742/519 539/743/519 527/744/519 526/745/519
f 539/743/520 541/740/520 525/739/520 527/744/520
f 528/443/521 530/454/521 543/453/521 542/446/521
f 530/454/522 529/447/522 544/448/522 543/453/522
f 363/746/523 529/747/523 530/748/523 528/749/523 526/750/523 527/751/523 525/752/523 362/753/523
f 378/754/524 538/755/524 546/756/524
f 533/757/525 539/758/525 540/759/525 531/760/525
f 532/761/526 541/762/526 539/758/526 533/757/526
f 535/611/527 542/763/527 543/764/527 536/608/527
f 536/608/528 543/764/528 544/765/528 534/766/528
f 531/760/529 540/759/529 542/763/529 535/611/529
f 381/767/530 537/768/530 541/762/530 532/761/530
f 534/766/531 544/765/531 538/755/531 378/754/531
f 547/769/532 551/770/532 549/771/532 550/772/532 552/610/532 553/609/532 554/773/532 548/774/532
f 545/775/533 537/768/533 381/767/533
f 532/761/534 551/770/534 547/769/534 381/767/534
f 556/776/535 555/777/535 547/769/535 548/774/535
f 381/767/536 547/769/536 555/777/536 545/775/536
f 378/754/537 548/774/537 554/773/537 534/766/537
f 534/766/538 554/773/538 553/609/538 536/608/538
f 531/760/539 550/772/539 549/771/539 533/757/539
f 545/438/540 555/488/540 556/487/540 546/437/540
f 535/611/541 552/610/541 550/772/541 531/760/541
f 546/756/542 556/776/542 548/774/542 378/754/542
f 533/757/543 549/771/543 551/770/543 532/761/543
f 559/778/544 374/779/544 326/780/544 557/781/544
f 558/613/545 561/605/545 377/604/545 560/782/545
f 375/783/546 325/612/546 558/613/546 560/782/546
f 326/606/547 561/605/547 303/496/547 302/495/547
f 299/497/548 303/500/548 561/784/548 558/785/548
f 557/781/549 326/780/549 302/502/549 300/501/549
f 560/184/550 377/504/550 374/503/550 559/183/550
f 562/786/551 575/787/551 574/788/551
f 563/789/552 575/790/552 577/791/552
f 562/792/553 574/793/553 579/794/553
f 562/795/554 579/796/554 581/797/554
f 562/798/555 581/799/555 578/800/555
f 563/789/556 577/791/556 584/801/556
f 564/802/557 576/803/557 586/804/557
f 565/805/558 580/806/558 588/807/558
f 566/808/559 582/809/559 590/810/559
f 567/811/560 583/812/560 592/813/560
f 563/789/561 584/801/561 587/814/561
f 564/802/562 586/804/562 589/815/562
f 565/805/563 588/807/563 591/816/563
f 566/808/564 590/810/564 593/817/564
f 567/811/565 592/813/565 585/818/565
f 568/819/566 594/820/566 599/821/566
f 569/822/567 595/823/567 601/824/567
f 570/825/568 596/826/568 602/827/568
f 571/828/569 597/829/569 603/830/569
f 572/831/570 598/832/570 600/833/570
f 600/833/571 603/834/571 573/835/571
f 600/833/572 598/832/572 603/834/572
f 598/832/573 571/828/573 603/834/573
f 603/830/574 602/836/574 573/837/574
f 603/830/575 597/829/575 602/836/575
f 597/829/576 570/825/576 602/836/576
f 602/827/577 601/838/577 573/839/577
f 602/827/578 596/826/578 601/838/578
f 596/826/579 569/840/579 601/838/579
f 601/824/580 599/841/580 573/842/580
f 601/824/581 595/823/581 599/841/581
f 595/823/582 568/819/582 599/841/582
f 599/821/583 600/843/583 573/844/583
f 599/821/584 594/820/584 600/843/584
f 594/820/585 572/831/585 600/843/585
f 585/818/586 598/832/586 572/831/586
f 585/818/587 592/813/587 598/832/587
f 592/813/588 571/828/588 598/832/588
f 593/817/589 597/829/589 571/828/589
f 593/817/590 590/810/590 597/829/590
f 590/810/591 570/825/591 597/829/591
f 591/816/592 596/826/592 570/825/592
f 591/816/593 588/807/593 596/826/593
f 588/807/594 569/840/594 596/826/594
f 589/815/595 595/823/595 569/822/595
f 589/815/596 586/804/596 595/823/596
f 586/804/597 568/819/597 595/823/597
f 587/814/598 594/820/598 568/819/598
f 587/814/599 584/801/599 594/820/599
f 584/801/600 572/831/600 594/820/600
f 592/813/601 593/817/601 571/828/601
f 592/813/602 583/812/602 593/817/602
f 583/812/603 566/808/603 593/817/603
f 590/810/604 591/816/604 570/825/604
f 590/810/605 582/809/605 591/816/605
f 582/809/606 565/805/606 591/816/606
f 588/807/607 589/845/607 569/840/607
f 588/807/608 580/806/608 589/845/608
f 580/806/609 564/846/609 589/845/609
f 586/804/610 587/814/610 568/819/610
f 586/804/611 576/803/611 587/814/611
f 576/803/612 563/789/612 587/814/612
f 584/801/613 585/818/613 572/831/613
f 584/801/614 577/791/614 585/818/614
f 577/791/615 567/811/615 585/818/615
f 578/800/616 583/812/616 567/811/616
f 578/800/617 581/799/617 583/812/617
f 581/799/618 566/808/618 583/812/618
f 581/797/619 582/809/619 566/808/619
f 581/797/620 579/796/620 582/809/620
f 579/796/621 565/805/621 582/809/621
f 579/794/622 580/806/622 565/805/622
f 579/794/623 574/793/623 580/806/623
f 574/793/624 564/846/624 580/806/624
f 577/791/625 578/847/625 567/811/625
f 577/791/626 575/790/626 578/847/626
f 575/790/627 562/848/627 578/847/627
f 574/788/628 576/803/628 564/802/628
f 574/788/629 575/787/629 576/803/629
f 575/787/630 563/789/630 576/803/630
f 604/786/631 616/788/631 617/787/631
f 605/789/632 619/791/632 617/790/632
f 604/792/633 621/794/633 616/793/633
f 604/795/634 623/797/634 621/796/634
f 604/798/635 620/800/635 623/799/635
f 605/789/636 626/801/636 619/791/636
f 606/802/637 628/804/637 618/803/637
f 607/805/638 630/807/638 622/806/638
f 608/808/639 632/810/639 624/809/639
f 609/811/640 634/813/640 625/812/640
f 605/789/641 629/814/641 626/801/641
f 606/802/642 631/815/642 628/804/642
f 607/805/643 633/816/643 630/807/643
f 608/808/644 635/817/644 632/810/644
f 609/811/645 627/818/645 634/813/645
f 610/819/646 641/821/646 636/820/646
f 611/822/647 643/824/647 637/823/647
f 612/825/648 644/827/648 638/826/648
f 613/828/649 645/830/649 639/829/649
f 614/831/650 642/833/650 640/832/650
f 642/833/651 615/835/651 645/834/651
f 642/833/652 645/834/652 640/832/652
f 640/832/653 645/834/653 613/828/653
f 645/830/654 615/837/654 644/836/654
f 645/830/655 644/836/655 639/829/655
f 639/829/656 644/836/656 612/825/656
f 644/827/657 615/839/657 643/838/657
f 644/827/658 643/838/658 638/826/658
f 638/826/659 643/838/659 611/840/659
f 643/824/660 615/842/660 641/841/660
f 643/824/661 641/841/661 637/823/661
f 637/823/662 641/841/662 610/819/662
f 641/821/663 615/844/663 642/843/663
f 641/821/664 642/843/664 636/820/664
f 636/820/665 642/843/665 614/831/665
f 627/818/666 614/831/666 640/832/666
f 627/818/667 640/832/667 634/813/667
f 634/813/668 640/832/668 613/828/668
f 635/817/669 613/828/669 639/829/669
f 635/817/670 639/829/670 632/810/670
f 632/810/671 639/829/671 612/825/671
f 633/816/672 612/825/672 638/826/672
f 633/816/673 638/826/673 630/807/673
f 630/807/674 638/826/674 611/840/674
f 631/815/675 611/822/675 637/823/675
f 631/815/676 637/823/676 628/804/676
f 628/804/677 637/823/677 610/819/677
f 629/814/678 610/819/678 636/820/678
f 629/814/679 636/820/679 626/801/679
f 626/801/680 636/820/680 614/831/680
f 634/813/681 613/828/681 635/817/681
f 634/813/682 635/817/682 625/812/682
f 625/812/683 635/817/683 608/808/683
f 632/810/684 612/825/684 633/816/684
f 632/810/685 633/816/685 624/809/685
f 624/809/686 633/816/686 607/805/686
f 630/807/687 611/840/687 631/845/687
f 630/807/688 631/845/688 622/806/688
f 622/806/689 631/845/689 606/846/689
f 628/804/690 610/819/690 629/814/690
f 628/804/691 629/814/691 618/803/691
f 618/803/692 629/814/692 605/789/692
f 626/801/693 614/831/693 627/818/693
f 626/801/694 627/818/694 619/791/694
f 619/791/695 627/818/695 609/811/695
f 620/800/696 609/811/696 625/812/696
f 620/800/697 625/812/697 623/799/697
f 623/799/698 625/812/698 608/808/698
f 623/797/699 608/808/699 624/809/699
f 623/797/700 624/809/700 621/796/700
f 621/796/701 624/809/701 607/805/701
f 621/794/702 607/805/702 622/806/702
f 621/794/703 622/806/703 616/793/703
f 616/793/704 622/806/704 606/846/704
f 619/791/705 609/811/705 620/847/705
f 619/791/706 620/847/706 617/790/706
f 617/790/707 620/847/707 604/848/707
f 616/788/708 606/802/708 618/803/708
f 616/788/709 618/803/709 617/787/709
f 617/787/710 618/803/710 605/789/710
