# Blender 5.1.1
# www.blender.org
mtllib low_poly_wolf_animated0003.mtl
o Wolf
v -0.158610 3.331315 -2.144192
v -0.534108 1.324724 -2.077167
v -0.007263 3.683068 -0.924582
v -0.517152 1.511279 -2.478331
v -0.724015 1.480794 -1.841845
v -0.004175 2.936199 3.231650
v 0.514683 3.465330 0.366470
v -0.535035 2.874095 -2.068155
v 0.192242 2.064966 -0.300187
v -0.786724 2.185569 -1.386546
v 0.177619 2.993511 2.967208
v -0.585573 1.591621 -1.634419
v -0.639605 3.138929 -1.088904
v -0.886113 0.132047 -2.338895
v 0.681914 2.983977 -1.825415
v -0.313592 2.086691 -1.478200
v -0.860789 2.144725 -1.839015
v -0.200402 2.480134 1.625123
v -0.586526 1.538575 -2.519190
v 0.306037 2.318285 -0.801104
v -0.231404 1.933346 0.263857
v -0.650145 -0.021663 1.076779
v 0.474349 1.627123 -2.153848
v -0.696046 1.731775 0.498056
v -0.480463 -0.018037 0.855569
v -0.097368 2.893511 -2.246819
v -0.501126 3.244537 -1.214668
v 0.292005 1.940900 0.260095
v -0.591540 2.699877 -0.251320
v -0.502672 1.651303 0.845140
v 0.550781 1.356702 -2.762169
v -0.451089 2.427082 -1.047724
v -0.563968 3.012503 1.455353
v -0.114021 2.095089 -3.200527
v 0.143857 2.181391 -1.593218
v -0.645314 2.591404 0.176138
v -0.308403 3.803890 1.180346
v -0.468557 0.238121 0.832140
v -0.496493 3.450713 0.373778
v -0.608583 1.605810 0.911548
v -0.533981 3.172654 1.284897
v 0.528224 3.528797 1.336297
v 0.321516 3.622583 2.954571
v -0.502296 4.139345 2.542902
v 0.300246 3.647338 2.973792
v 0.284075 3.652799 2.982525
v -0.801176 2.749127 -1.643315
v 0.248422 3.647276 2.994051
v -0.252149 3.452928 2.896633
v 0.219807 3.622464 2.994335
v 0.211789 3.605586 2.990049
v 0.537666 3.360798 2.395782
v 0.212178 3.570976 2.974666
v 0.220548 3.556634 2.965076
v -0.040846 2.910202 -2.310333
v 0.249620 3.540760 2.946712
v 0.267477 3.540781 2.939733
v 0.285273 3.546283 2.935186
v 0.572709 3.319108 1.094168
v 0.313888 3.571095 2.934901
v 0.321906 3.587978 2.939188
v -0.816860 0.134914 1.038251
v 0.321516 3.622583 2.954571
v -0.227062 3.604459 2.975224
v 0.300246 3.647338 2.973792
v 0.284075 3.652799 2.982525
v -0.713306 0.190253 1.115670
v 0.248422 3.647276 2.994051
v 0.937059 0.040197 1.083478
v 0.219807 3.622464 2.994335
v 0.211789 3.605586 2.990049
v 0.489392 3.167269 -1.553931
v 0.212178 3.570976 2.974666
v 0.220548 3.556634 2.965076
v 0.620480 0.491428 0.614995
v 0.249620 3.540760 2.946712
v 0.267477 3.540781 2.939733
v 0.285273 3.546283 2.935186
v -0.528704 3.903354 2.366456
v 0.313888 3.571095 2.934901
v 0.321906 3.587978 2.939188
v -0.282390 3.901256 2.868443
v -0.432149 2.695711 -2.200136
v -0.192856 3.913830 1.043772
v -0.295465 2.326210 -0.787763
v -0.074847 1.859009 -3.205868
v 0.702894 0.405676 -2.734948
v 0.839538 2.512106 -1.648367
v 0.260914 3.605818 2.966203
v -0.195374 3.580827 2.940763
v 0.661198 3.295823 0.308186
v 0.402315 2.904480 1.912091
v -0.461669 3.092242 -2.041173
v 0.685133 2.730904 -2.027451
v -0.616976 2.548658 1.424101
v 0.033868 2.475724 1.834051
v -0.100120 3.539346 3.028714
v 0.427666 2.681899 -2.212237
v -0.794069 2.713618 -1.246763
v -0.704396 0.032266 1.222786
v 0.585598 1.591643 -1.634300
v 0.340011 3.623247 2.906918
v 0.335564 3.648098 2.919595
v 0.323233 3.669226 2.933718
v 0.304225 3.684565 2.947913
v 0.280399 3.692614 2.960778
v 0.254089 3.692586 2.971066
v 0.227870 3.684476 2.977764
v 0.204307 3.669085 2.980216
v 0.185709 3.647918 2.978181
v 0.173896 3.623048 2.971863
v 0.170022 3.596912 2.961876
v 0.174469 3.572057 2.949200
v 0.186800 3.550928 2.935076
v 0.205809 3.535589 2.920887
v 0.229635 3.527540 2.908017
v 0.255945 3.527573 2.897728
v 0.282164 3.535678 2.891031
v 0.305726 3.551070 2.888582
v 0.324324 3.572236 2.890614
v 0.336138 3.597106 2.896931
v -0.270584 3.614022 2.958849
v -0.669088 1.049757 -2.694196
v 0.586803 1.018644 -2.454006
v -0.249762 3.639386 2.977766
v -0.233632 3.645313 2.986266
v 0.308811 3.606795 2.945586
v -0.197671 3.640826 2.997275
v -0.371208 2.125389 -2.006777
v -0.168350 3.616852 2.997140
v -0.159910 3.600211 2.992734
v -0.586803 1.018644 -2.454006
v -0.159521 3.565601 2.977352
v -0.167609 3.551022 2.967881
v -0.570079 0.487886 0.577819
v -0.196473 3.534310 2.949935
v -0.214423 3.533813 2.943215
v -0.232434 3.538798 2.938926
v -0.722477 2.769830 1.329291
v -0.261755 3.562771 2.939061
v -0.270195 3.579416 2.943466
v 0.460379 3.093582 -2.042679
v 0.531910 4.154299 2.535429
v -0.710773 1.525544 -2.408840
v 0.038310 2.935863 3.368569
v -0.410212 3.732876 0.883078
v -0.211839 3.578541 2.935550
v -0.278524 1.957927 0.604163
v -0.324613 3.971037 2.744111
v 0.112632 3.094047 3.442343
v -0.794947 0.113799 0.874656
v 0.488656 2.142368 -2.255680
v -0.620379 0.085695 -2.341125
v 0.610414 3.029492 1.446868
v -0.108392 2.989375 2.969275
v 0.695309 2.402370 1.305775
v -0.762125 2.341386 -2.024662
v -0.130674 2.701071 2.151279
v -0.195993 3.589796 2.961865
v -0.575696 1.828256 0.304784
v 0.316932 2.087464 -1.479461
v -0.289777 3.614141 2.911469
v -0.285867 3.639112 2.924085
v -0.273950 3.660591 2.938033
v -0.255189 3.676476 2.951955
v -0.231423 3.685213 2.964476
v -0.204977 3.685948 2.974383
v -0.178440 3.678601 2.980700
v -0.154410 3.663898 2.982809
v -0.135239 3.643278 2.980500
v -0.122804 3.618758 2.974007
v -0.118321 3.592743 2.963960
v -0.122230 3.567767 2.951344
v -0.134148 3.546288 2.937395
v -0.152908 3.530402 2.923479
v -0.176675 3.521665 2.910953
v -0.203121 3.520936 2.901045
v -0.229658 3.528278 2.894729
v -0.253688 3.542981 2.892625
v -0.272859 3.563601 2.894929
v -0.285294 3.588121 2.901422
v 0.455797 3.796897 1.438743
v 0.801833 2.750751 -1.644089
v 0.234892 3.118013 3.182162
v -0.474349 1.627123 -2.153848
v -0.262895 3.687125 0.381639
v 0.073227 3.790600 0.715613
v -0.750816 1.785044 -1.505341
v -0.681864 2.981279 -1.824020
v -0.731844 1.966197 0.999072
v -0.833665 1.814049 -1.694432
v 0.581048 3.488936 1.990019
v 0.499275 2.085424 -1.189750
v -0.489672 3.157239 -1.548771
v 0.393085 3.367535 2.769117
v -0.492352 2.082069 -1.189626
v 0.724015 1.480794 -1.841845
v 0.037899 3.504246 3.147431
v -0.332277 3.000734 -2.175135
v 0.034637 1.933955 0.855443
v -0.741419 2.433714 1.202971
v -0.261920 3.956680 1.466969
v -0.531133 1.106832 -2.652276
v -0.536444 3.417452 -0.149865
v 0.155178 3.498221 -1.898587
v -0.520250 2.363336 -0.318141
v -0.426691 4.059350 2.419209
v 0.573475 1.757895 0.337213
v 0.756962 2.082701 0.732629
v -0.638873 3.277032 0.317581
v -0.578829 1.437798 0.393207
v -0.481994 3.277393 1.449226
v -0.473598 3.365257 2.264833
v -0.569826 3.250952 -0.160658
v -0.621465 1.344421 -2.753611
v 0.247745 3.041557 2.604691
v -0.594726 3.018675 0.636165
v 0.622357 2.717419 -0.260089
v -0.498045 2.943793 -0.695038
v 0.037628 2.934773 3.272053
v -0.528161 3.824965 2.493117
v 0.621465 1.344421 -2.753611
v -0.270584 3.614022 2.958849
v 0.038986 1.793609 -3.593955
v -0.197738 3.590003 -1.371889
v -0.249762 3.639386 2.977766
v -0.233632 3.645313 2.986266
v -0.577240 0.430969 -2.502597
v -0.197671 3.640826 2.997275
v 0.877786 0.129052 -2.325203
v -0.168350 3.616852 2.997140
v -0.159910 3.600211 2.992734
v -0.737473 -0.047863 0.840314
v -0.159521 3.565601 2.977352
v -0.167609 3.551022 2.967881
v -0.105647 1.795151 -3.592463
v -0.196473 3.534310 2.949935
v -0.214423 3.533813 2.943215
v -0.232434 3.538798 2.938926
v 0.860792 2.144725 -1.839007
v -0.261755 3.562771 2.939061
v -0.270195 3.579416 2.943466
v -0.780900 0.307896 -2.263760
v -0.027837 1.836911 -3.141255
v -0.704154 0.334789 0.836109
v 0.427666 3.744970 0.876986
v 0.188389 3.590290 -1.378553
v -0.080293 2.992878 3.052576
v 0.253621 3.663118 3.035928
v 0.741201 2.997250 -1.005844
v -0.347036 3.767025 2.867327
v 0.323706 3.910020 2.864064
v -0.099626 3.063219 -2.434886
v -0.236286 3.579421 2.938386
v 0.116136 2.955566 3.167152
v 0.078757 2.942778 3.237972
v -0.483451 3.232925 -0.718504
v -0.251760 3.634878 -0.211477
v -0.035089 1.638247 -3.600297
v 0.515250 2.958130 -0.702238
v 0.343312 1.966915 0.599674
v 0.436126 2.527035 -0.771632
v 0.463927 3.886587 1.988839
v -0.539741 3.303035 1.102220
v -0.008662 2.592233 -2.507682
v 0.639754 1.845830 0.296001
v -0.887401 0.134821 -2.344907
v -0.134962 3.413657 3.106138
v -0.209361 3.599018 2.969601
v -0.308860 2.607503 -2.223305
v 0.800854 2.456003 1.191853
v 0.520491 1.792700 0.492008
v -0.707816 2.972079 -1.496121
v -0.358587 3.490115 -0.736028
v 0.750832 1.785091 -1.505240
v 0.580025 4.309165 2.594372
v 0.472396 1.766318 -1.633695
v -0.538575 0.403105 -2.713935
v 0.709901 2.979130 -1.499691
v -0.166129 3.112215 3.185059
v 0.833685 1.814071 -1.694336
v 0.676836 0.505916 0.568809
v 0.778800 -0.001001 1.066454
v 0.010440 3.999433 1.639871
v 0.476893 0.180235 -2.486023
v 0.132927 2.770106 -2.515697
v 0.247708 3.596212 2.958659
v 0.006151 2.270483 -1.906402
v 0.037656 2.929394 3.265131
v 0.150637 2.996217 3.050908
v -0.147649 2.771708 -2.513633
v 0.116108 2.960946 3.174074
v 0.778103 0.201242 0.711839
v 0.642334 4.220659 2.584939
v 0.492194 3.246351 -0.725324
v -0.377075 3.568853 1.202058
v -0.601515 2.259233 -2.228359
v 0.184306 3.492218 3.046209
v 0.586526 1.538575 -2.519190
v 0.863424 -0.024714 0.828747
v 0.078785 2.937398 3.231050
v 0.562578 3.919133 2.358571
v 0.548008 3.433132 -0.157701
v 0.502695 3.256930 -1.220927
v 0.534108 1.324724 -2.077167
v 0.359653 4.078359 2.538624
v -0.038497 3.091492 3.440726
v 0.008337 2.235191 -1.363729
v -0.267336 2.343208 -1.124310
v 0.278531 3.611770 2.971571
v -0.763131 0.095528 -2.389406
v -0.556006 0.904919 0.806338
v 0.568929 2.130209 0.439694
v 0.241864 2.219061 -1.847365
v 0.629146 3.036362 0.627322
v 0.573362 3.188655 1.276877
v 0.897659 0.267309 -2.384519
v 0.944846 0.040696 1.071155
v -0.453780 2.009640 0.366822
v -0.702893 0.405676 -2.734948
v -0.190963 3.584348 2.948418
v -0.512667 0.475043 0.623183
v 0.818998 0.356813 0.825103
v 0.730355 2.974059 0.834424
v 0.187991 3.508139 2.975179
v 0.403900 3.580137 1.196364
v -0.691088 2.953523 0.844693
v 0.736423 0.401096 -2.556691
v 0.446601 1.943977 0.403835
v -0.410877 2.516333 -0.766763
v -0.023294 2.246818 -3.220845
v -0.685142 2.731105 -2.026932
v 0.916690 0.138548 0.862288
v 0.763131 0.095528 -2.389406
v -0.246561 3.582237 2.946219
v 0.020541 3.957878 2.954552
v -0.002971 3.359956 -2.265263
v 0.687821 1.624555 0.902180
v -0.251602 3.811806 0.838403
v 0.334874 2.932923 -2.186375
v 0.837840 1.508077 0.840372
v -0.579015 3.564970 0.895648
v -0.897659 0.267309 -2.384519
v -0.345661 2.893582 1.917482
v -0.431734 3.784064 1.445156
v -0.423103 3.897789 1.984173
v -0.383927 1.931973 0.409830
v -0.004905 2.194207 -0.785025
v -0.392768 2.165288 -0.314868
v 0.438818 2.168354 1.249940
v -0.817242 0.015217 1.083887
v 0.360052 3.499304 -0.740636
v -0.270139 2.832903 2.098984
v 0.357865 3.186971 2.566102
v 0.264869 2.486894 1.621798
v 0.024892 3.735555 3.111872
v -0.394580 2.695569 1.710772
v -0.558856 3.489907 1.623836
v -0.742288 0.138393 -2.175881
v 0.029731 1.924378 0.158091
v -0.610373 2.483890 -1.070668
v -0.487125 3.345979 2.403188
v -0.488583 2.142581 -2.255799
v -0.625803 3.264319 1.649728
v 0.267305 3.636244 -0.221217
v 0.631600 0.582093 0.783751
v 0.654014 0.922415 0.797595
v 0.729681 0.708473 0.846026
v -0.110823 2.464477 1.751476
v -0.550781 1.356702 -2.762169
v -0.184503 3.039491 2.557646
v 0.685416 2.610599 0.166538
v 0.487453 2.753003 -0.699242
v -0.698408 -0.049960 1.149803
v 0.867173 0.634349 0.779222
v 0.645262 3.154297 -1.096656
v 0.392182 3.777714 2.861986
v 0.453949 2.707938 1.704695
v 0.520752 3.291906 1.441941
v 0.370533 3.465595 -1.279064
v -0.497829 3.513962 1.343763
v 0.643629 2.672729 0.553272
v 0.886113 0.132047 -2.338895
v -0.731569 2.981135 -0.997916
v 0.153945 3.332417 -2.145106
v 0.577240 0.430969 -2.502597
v -0.813348 0.067338 -2.252301
v -0.042983 2.958645 3.175223
v 0.061530 2.861152 3.236491
v 0.765622 1.752910 0.487495
v 0.290702 3.612074 2.966371
v 0.720592 0.268510 0.932523
v 0.307108 2.606604 -2.223788
v 0.196387 2.705861 2.148932
v -0.710653 2.519161 0.767932
v 0.063673 2.093220 -3.202307
v 0.248456 3.879522 1.003750
v 0.440296 4.047263 2.286987
v -0.102494 2.918813 3.255871
v -0.693383 2.061730 0.743108
v 0.308307 3.978561 1.985726
v -0.599759 2.654767 0.562250
v -0.613865 4.202495 2.594016
v 0.789614 2.187984 -1.387157
v 0.669726 2.147856 1.196053
v 0.099490 3.117724 3.545674
v -0.239312 3.604410 2.970200
v -0.506315 1.742282 0.345016
v -0.756050 1.485030 0.851889
v 0.676332 2.567359 1.414810
v 0.586032 3.267660 -0.169010
v -0.291910 2.060750 1.085252
v 0.514634 1.915886 0.978490
v 0.940345 0.160322 1.025554
v 0.946158 0.042139 1.065488
v 0.887401 0.134821 -2.344907
v 0.761353 2.540427 0.757312
v -0.161968 3.496113 -1.897913
v 0.467008 2.438045 -1.047892
v 0.667754 3.283059 1.640344
v 0.177904 2.922868 3.253845
v -0.370412 2.156654 1.255777
v 0.017745 1.858033 -3.206843
v 0.035180 2.077157 1.217116
v 0.334031 3.412210 -1.761054
v 0.828911 -0.027875 1.138767
v -0.442807 1.902042 0.985408
v 0.799256 2.720891 -1.249831
v 0.182113 2.480084 -2.132746
v -0.670537 1.085155 -2.443442
v 0.287941 3.587001 2.934598
v -0.839539 2.512102 -1.648365
v 0.090930 3.062955 -2.436030
v -0.159784 2.183818 -1.579130
v 0.531133 1.106832 -2.652276
v 0.517152 1.511279 -2.478331
v 0.605906 -0.002328 0.847719
v -0.508919 0.239272 -2.299898
v -0.257559 3.598605 2.949678
v -0.523964 0.565384 0.792101
v -0.760990 0.610807 0.790986
v -0.202720 3.656519 3.039226
v 0.533607 2.873602 -2.069366
v 0.328131 3.813094 1.175747
v -0.033959 3.142740 3.519367
v -0.476893 0.180235 -2.486023
v 0.129896 4.100822 2.640947
v -0.495514 0.091540 1.117857
v 0.655451 1.455644 0.384289
v -0.086456 2.937281 2.907743
v 0.263491 3.585414 2.932115
v 0.586262 0.253373 0.824518
v 0.521590 3.379647 2.257643
v -0.254374 3.589085 2.950569
v -0.540051 3.472726 1.998120
v -0.181034 2.478097 -2.127458
v 0.508919 0.239272 -2.299898
v 0.559869 2.378913 -0.325931
v -0.736423 0.401096 -2.556691
v -0.809266 0.014946 1.096096
v 0.621150 2.492643 -1.072699
v -0.601694 0.249390 0.942077
v -0.003640 3.555862 -1.947190
v 0.360669 2.070186 1.080537
v -0.341080 3.405803 -1.758009
v 0.621570 0.107693 1.109785
v -0.716351 2.975232 1.075394
v 0.836363 0.212660 1.104473
v 0.780900 0.307896 -2.263760
v -0.877786 0.129052 -2.325203
v 0.813348 0.067338 -2.252301
v 0.274484 3.694895 0.377756
v -0.008445 2.907730 -2.724349
v -0.065495 4.007450 2.006964
v -0.244029 4.074788 2.275077
v -0.080265 2.987500 3.045654
v -0.465274 2.739981 -0.692792
v 0.281396 3.964536 1.463043
v -0.239121 2.218253 -1.846725
v 0.801863 1.988374 0.987990
v 0.758310 2.996532 1.064743
v -0.472245 1.766288 -1.633678
v 0.593971 3.506630 1.615404
v 0.242644 3.590618 2.945285
v 0.513551 2.023620 0.359842
v 0.710774 1.525544 -2.408840
v 0.004967 3.697161 0.277489
v -0.818930 0.144007 -2.590468
v -0.624748 0.688888 0.855812
v 0.742288 0.138393 -2.175881
v 0.670537 1.085155 -2.443442
v 0.538773 2.820652 1.538672
v -0.004203 2.941578 3.238572
v -0.554011 4.292767 2.602566
v 0.579690 1.666953 0.837319
v 0.282204 3.020326 2.819612
v 0.032976 1.895810 0.549296
v -0.375223 3.457139 -1.275446
v -0.039445 1.779122 -4.074518
v -0.818677 0.016620 1.078240
v 0.362093 3.980966 2.739149
v 0.538575 0.403105 -2.713935
v -0.555598 0.108681 -2.597351
v 0.071517 2.895610 -2.248123
v 0.298243 3.590115 2.942283
v 0.687910 1.067327 -2.541582
v 0.247045 3.587224 2.937567
v 0.762125 2.341385 -2.024661
v 0.305916 3.597186 2.946520
v -0.687910 1.067327 -2.541582
v -0.511056 2.114597 0.447492
v 0.837288 2.100735 0.914135
v 0.669088 1.049757 -2.694195
v 0.818930 0.144007 -2.590468
v -0.042955 2.953266 3.168301
v 0.177615 2.468672 1.749414
v 0.306850 3.461011 2.892594
v 0.601403 3.582030 0.887109
v 0.096354 3.029366 -2.287007
v 0.032360 2.932219 2.537864
v -0.485016 2.805823 1.546041
v 0.555598 0.108681 -2.597351
v -0.601388 2.129481 1.205218
v -0.660419 0.180441 0.722233
v -0.215830 3.013125 2.823211
v 0.566132 3.840788 2.485210
v 0.041804 2.762175 2.263864
v 0.372062 2.125988 -2.006800
v -0.632740 2.383173 1.315334
v -0.337420 3.356972 2.774395
v 0.601497 2.259292 -2.228383
v 0.284887 2.351723 -1.122483
v 0.033398 2.320424 1.457675
v -0.299932 3.177459 2.570855
v 0.438230 2.177118 -0.320781
v -0.143370 2.060394 -0.297923
v 0.774030 2.791457 1.318499
v -0.771566 2.077471 0.925760
v 0.242864 4.088444 2.286835
v 0.331197 2.841721 2.094662
v 0.833573 0.054505 1.211674
v 0.150665 2.990839 3.043986
v 0.156311 2.940792 2.905989
v -0.452128 1.778637 0.499036
v 0.620379 0.085695 -2.341125
v -0.302677 4.062094 2.589905
vn 0.3373 -0.3791 0.8617
vn 0.7820 0.2565 -0.5680
vn 0.3374 -0.3789 0.8617
vn -0.9913 0.0016 -0.1313
vn -0.8560 -0.4783 0.1962
vn 0.3373 -0.3792 0.8616
vn -0.3519 -0.8007 0.4848
vn 0.8391 -0.0289 -0.5433
vn -0.0718 0.9935 -0.0889
vn 0.3373 -0.3790 0.8617
vn 0.9446 -0.1289 -0.3019
vn -0.9137 -0.3707 -0.1664
vn -0.9664 0.2039 -0.1562
vn -0.2137 -0.8453 0.4896
vn -0.8646 0.1728 0.4719
vn -0.9834 0.0096 -0.1814
vn -0.7380 -0.6106 0.2873
vn 0.8648 -0.0398 0.5005
vn 0.5164 -0.3757 0.7695
vn -0.6828 0.3078 -0.6625
vn 0.5967 0.7979 -0.0853
vn -0.1354 -0.9711 -0.1966
vn -0.1594 -0.9658 -0.2046
vn 0.8073 0.5429 -0.2312
vn 0.8468 0.5317 -0.0168
vn -0.9937 0.0199 -0.1107
vn -0.0353 -0.9945 -0.0981
vn 0.8595 -0.4951 0.1272
vn 0.4472 -0.8802 -0.1587
vn -0.9039 0.1136 -0.4124
vn 0.3375 -0.3791 0.8616
vn 0.1951 0.9342 -0.2985
vn 0.3373 -0.3792 0.8617
vn -0.5551 0.8284 -0.0747
vn -0.3076 -0.9346 -0.1785
vn 0.9921 -0.0364 -0.1204
vn -0.5828 0.8116 0.0398
vn 0.4745 0.8495 -0.2308
vn 0.7527 0.4024 -0.5211
vn -0.7399 -0.0426 0.6714
vn -0.0918 0.9955 0.0230
vn 0.9876 0.1557 0.0183
vn -0.0049 0.9923 -0.1238
vn -0.8877 -0.3931 -0.2395
vn 0.9781 0.1089 -0.1777
vn -0.1516 -0.7550 0.6380
vn 0.6042 -0.4940 0.6252
vn -0.6046 -0.7923 0.0818
vn -0.1264 0.9185 0.3746
vn -0.1324 -0.8887 0.4389
vn 0.8131 -0.0775 -0.5769
vn -0.9799 0.1963 0.0351
vn -0.9502 -0.1545 -0.2707
vn -0.4314 -0.8913 -0.1394
vn 0.2039 0.9774 -0.0554
vn 0.6628 -0.7071 0.2463
vn 0.9798 -0.1483 -0.1343
vn 0.4269 0.7494 -0.5062
vn 0.2709 0.8672 0.4179
vn -0.3370 -0.8702 0.3595
vn 0.6112 0.6404 0.4651
vn -0.4285 -0.8964 -0.1138
vn -0.0746 -0.3255 0.9426
vn -0.7759 0.3984 -0.4892
vn -0.2350 0.4890 0.8400
vn -0.7026 0.5041 0.5022
vn 0.3372 -0.3793 0.8616
vn -0.5093 -0.3784 0.7729
vn -0.1592 0.0366 -0.9866
vn 0.9821 -0.1827 0.0449
vn -0.2475 0.8879 -0.3878
vn -0.8861 0.1788 -0.4276
vn -0.8250 -0.4236 0.3742
vn -0.9917 0.1201 -0.0465
vn -0.8976 0.4387 0.0422
vn 0.0279 -0.2377 0.9709
vn 0.8853 0.4642 0.0287
vn -0.2559 -0.2162 -0.9422
vn -0.0065 -0.8358 0.5491
vn -0.5696 0.2507 -0.7828
vn -0.7052 0.6610 -0.2562
vn 0.9410 -0.3149 0.1242
vn 0.2377 -0.9695 0.0591
vn -0.2242 0.1523 -0.9626
vn 0.9969 0.0789 0.0020
vn -0.3942 -0.8637 -0.3141
vn 0.0539 0.9418 -0.3320
vn 0.6835 0.3065 -0.6625
vn -0.6442 -0.6060 0.4666
vn -0.9381 0.2967 -0.1789
vn 0.3879 -0.8645 -0.3198
vn -0.7108 -0.3866 0.5875
vn -0.9531 0.2570 -0.1600
vn -0.4460 -0.4615 0.7669
vn -0.9445 0.3229 0.0601
vn -0.3398 -0.8668 -0.3649
vn -0.0609 -0.8931 0.4457
vn -0.2964 -0.8201 0.4894
vn -0.2198 -0.8828 0.4151
vn 0.9980 0.0086 0.0621
vn 0.1072 -0.9565 0.2714
vn -0.9860 0.0042 -0.1668
vn -0.5768 0.5388 -0.6140
vn -0.4325 -0.6618 0.6123
vn 0.3409 -0.9311 -0.1299
vn -0.4325 -0.6618 0.6124
vn 0.8666 -0.4605 0.1924
vn -0.1260 -0.0485 -0.9908
vn 0.8666 -0.4604 0.1924
vn 0.7787 0.6117 0.1393
vn 0.9089 -0.1954 0.3683
vn 0.3353 -0.9212 0.1976
vn -0.1711 -0.6438 0.7458
vn 0.6500 -0.7481 0.1339
vn 0.7345 -0.6604 0.1561
vn 0.5477 -0.7988 0.2489
vn 0.5372 0.4420 0.7184
vn 0.8024 0.2804 0.5268
vn 0.9322 0.3211 -0.1671
vn -0.3406 0.1241 0.9320
vn 0.9484 -0.1198 0.2935
vn 0.7596 -0.6239 -0.1834
vn -0.9156 -0.1486 0.3736
vn 0.7057 0.2674 0.6561
vn 0.8593 0.1820 0.4779
vn -0.4397 -0.0192 0.8979
vn -0.3078 0.1806 0.9342
vn -0.4397 -0.0191 0.8979
vn 0.6302 0.3150 0.7096
vn -0.5313 -0.3491 0.7719
vn 0.2005 0.4838 0.8519
vn -0.8000 0.2929 0.5236
vn -0.2329 0.2792 0.9316
vn -0.8839 0.4144 -0.2168
vn -0.0740 0.2664 0.9610
vn -0.9239 0.2927 0.2465
vn 0.9944 0.0183 0.1045
vn 0.4575 0.6724 0.5819
vn 0.1073 -0.9565 0.2713
vn -0.8610 0.5086 -0.0045
vn -0.6290 0.6628 0.4062
vn -0.5054 -0.4621 0.7287
vn -0.7822 0.1854 -0.5948
vn 0.9893 -0.0178 0.1446
vn -0.7844 0.5911 -0.1879
vn -0.7817 0.6026 0.1606
vn -0.7241 0.6169 0.3084
vn -0.8055 0.1740 -0.5664
vn 0.9347 -0.2390 0.2632
vn -0.8574 0.4058 0.3166
vn 0.3352 -0.9212 0.1976
vn -0.9507 0.0940 -0.2957
vn 0.0610 -0.0813 0.9948
vn -0.9193 -0.3557 0.1683
vn -0.7487 -0.6621 -0.0321
vn -0.9846 -0.0198 0.1740
vn 0.9895 0.0620 -0.1307
vn -0.6875 0.1268 0.7150
vn 0.3197 0.4768 0.8188
vn 0.8861 0.1788 -0.4276
vn -0.4491 -0.8836 -0.1322
vn 0.8978 -0.0618 0.4361
vn 0.5983 0.7947 -0.1027
vn -0.6345 -0.6866 0.3551
vn -0.1904 -0.8294 0.5253
vn 0.9176 0.3899 -0.0771
vn -0.6491 -0.7340 0.1996
vn -0.7058 -0.5926 0.3882
vn -0.4265 -0.2670 0.8642
vn 0.8967 -0.4221 -0.1336
vn 0.8161 -0.0753 -0.5730
vn 0.1247 0.3603 0.9245
vn 0.2549 -0.8176 0.5162
vn -0.9894 -0.0380 0.1399
vn -0.8669 0.4785 -0.1400
vn -0.8649 0.4327 0.2544
vn -0.8418 0.4265 0.3309
vn 0.7807 -0.3133 0.5407
vn -0.1217 0.3567 0.9263
vn 0.8955 0.4321 0.1069
vn 0.9775 -0.1925 0.0857
vn 0.4464 -0.2544 0.8579
vn -0.5174 -0.1850 -0.8355
vn -0.4952 0.8468 0.1942
vn -0.4937 -0.3408 0.8000
vn -0.9428 0.1846 -0.2777
vn 0.0353 -0.9945 -0.0981
vn -0.7840 -0.1690 0.5973
vn -0.8892 -0.0877 0.4490
vn -0.0006 -0.9796 -0.2012
vn -0.2941 0.9556 0.0171
vn -0.3215 0.4675 0.8235
vn -0.7121 0.5006 0.4922
vn -0.7468 0.4004 -0.5310
vn 0.7879 -0.4847 -0.3798
vn -0.5348 -0.8337 0.1377
vn -0.8509 0.0290 -0.5245
vn 0.6857 0.6154 -0.3887
vn 0.9953 0.0155 0.0951
vn -0.3056 -0.9304 0.2023
vn -0.8259 0.5193 -0.2194
vn -0.9235 -0.2659 0.2766
vn -0.9608 -0.1639 -0.2234
vn -0.0029 0.7174 0.6967
vn 0.5354 0.8251 -0.1803
vn 0.6591 -0.6679 0.3457
vn -0.3019 -0.9496 -0.0840
vn -0.7805 -0.5084 -0.3637
vn 0.5290 -0.4471 0.7213
vn -0.3068 0.4788 -0.8226
vn 0.8701 -0.1919 0.4541
vn -0.0757 -0.9591 0.2726
vn 0.9900 -0.0857 -0.1122
vn 0.1313 0.9913 0.0055
vn 0.0904 0.9710 -0.2212
vn 0.0802 0.2687 0.9599
vn -0.8689 -0.0379 -0.4935
vn 0.2381 0.2860 0.9282
vn -0.8414 0.4298 0.3274
vn -0.2020 0.4779 0.8548
vn 0.5523 -0.3334 0.7641
vn -0.7972 0.2338 -0.5566
vn 0.4530 -0.0062 0.8915
vn 0.3159 0.1896 0.9297
vn 0.4530 -0.0063 0.8915
vn -0.8572 0.1572 0.4903
vn -0.7036 0.2470 0.6663
vn 0.8942 0.1396 -0.4254
vn 0.9854 0.0705 -0.1552
vn -0.9402 -0.1471 0.3072
vn -0.3498 -0.9308 0.1060
vn 0.7272 0.4217 -0.5416
vn -0.5393 0.4264 0.7262
vn -0.8025 0.2572 0.5384
vn -0.5207 -0.8143 0.2566
vn -0.7128 -0.6813 0.1665
vn -0.6261 -0.7665 0.1431
vn 0.8760 -0.1917 0.4426
vn -0.9827 -0.0265 0.1833
vn -0.8465 0.4735 -0.2434
vn -0.8501 -0.4852 0.2048
vn -0.9672 -0.1954 0.1623
vn -0.8500 -0.4853 0.2047
vn 0.4603 -0.6489 0.6059
vn -0.0610 -0.0813 0.9948
vn 0.4602 -0.6489 0.6059
vn -0.4790 -0.5526 0.6820
vn -0.9635 -0.0065 0.2677
vn -0.0756 -0.9591 0.2727
vn 0.1078 -0.4852 -0.8677
vn 0.2512 -0.8760 0.4117
vn 0.3271 -0.8111 0.4849
vn 0.0932 -0.8909 0.4446
vn 0.9907 -0.0506 0.1266
vn -0.6777 -0.6067 0.4155
vn -0.9780 0.1549 -0.1395
vn -0.9750 -0.1909 -0.1140
vn 0.7015 0.2670 -0.6607
vn -0.7438 -0.1643 0.6478
vn 0.6266 -0.5361 0.5657
vn 0.9861 -0.0191 0.1648
vn -0.6758 0.3871 0.6272
vn 0.9898 0.0601 -0.1290
vn 0.9818 -0.1758 0.0717
vn -0.6461 -0.0289 0.7627
vn 0.2965 -0.0629 0.9530
vn 0.1004 -0.6992 0.7078
vn -0.9421 -0.3180 0.1069
vn 0.0254 0.1117 -0.9934
vn 0.5942 0.6717 -0.4425
vn -0.3820 0.9169 -0.1154
vn 0.9033 -0.1116 0.4142
vn -0.4378 0.7444 -0.5041
vn -0.2514 0.8487 0.4654
vn -0.7061 -0.4856 0.5154
vn 0.9747 -0.1673 0.1482
vn 0.9770 -0.1926 0.0913
vn -0.9706 -0.0029 0.2407
vn 0.5669 0.8233 0.0296
vn 0.9911 -0.1125 -0.0714
vn 0.9803 0.0755 -0.1824
vn 0.7896 0.5865 0.1801
vn -0.3136 -0.3887 0.8663
vn 0.7873 0.4001 0.4692
vn 0.0753 0.9967 -0.0306
vn 0.7679 0.2078 -0.6060
vn 0.2523 -0.4773 0.8417
vn -0.5978 -0.4547 0.6602
vn -0.7500 0.6523 -0.1095
vn -0.3137 -0.3886 0.8664
vn -0.6893 0.6133 -0.3856
vn 0.8106 -0.3883 0.4383
vn -0.3138 -0.3886 0.8663
vn -0.4182 0.5192 0.7453
vn -0.1121 -0.3714 -0.9217
vn 0.3279 0.1948 0.9244
vn 0.9215 -0.3442 -0.1796
vn -0.8461 -0.2099 0.4901
vn -0.6820 0.6826 -0.2626
vn 0.1351 -0.9440 0.3011
vn 0.2218 -0.8234 0.5223
vn -0.7032 0.6678 -0.2441
vn -0.5968 -0.7098 0.3741
vn 0.6996 0.6702 -0.2477
vn -0.6511 0.7584 -0.0302
vn -0.8689 0.4709 -0.1528
vn 0.8721 -0.4535 0.1838
vn -0.0341 -0.9612 -0.2737
vn 0.9428 0.1844 -0.2776
vn 0.7365 0.1745 0.6535
vn 0.6864 0.0822 0.7226
vn 0.8682 0.4396 -0.2300
vn -0.8218 -0.0990 -0.5611
vn -0.7965 0.5739 0.1902
vn 0.9654 -0.2566 0.0466
vn 0.9253 -0.3775 -0.0366
vn -0.3470 -0.7331 0.5849
vn -0.8456 -0.0533 -0.5311
vn 0.7230 -0.5510 0.4166
vn -0.3139 -0.3886 0.8663
vn -0.2068 0.7684 -0.6056
vn -0.7365 0.1745 0.6535
vn 0.2719 -0.2678 0.9243
vn -0.7015 0.2670 -0.6608
vn 0.9902 -0.0768 0.1164
vn 0.8391 -0.4972 0.2206
vn -0.1489 -0.4092 0.9002
vn 0.7735 0.3062 0.5549
vn 0.5791 0.8143 -0.0397
vn -0.7774 -0.5358 0.3294
vn 0.8429 0.0209 -0.5377
vn -0.1361 0.9566 -0.2578
vn 0.0894 -0.9924 0.0841
vn -0.8290 -0.3641 0.4245
vn 0.7709 -0.5019 0.3921
vn 0.1941 -0.3585 0.9131
vn -0.8524 -0.4397 0.2831
vn -0.9549 0.2904 0.0613
vn 0.9819 0.1880 0.0207
vn 0.9845 0.0680 0.1619
vn -0.3137 -0.3884 0.8664
vn 0.2729 -0.9226 -0.2726
vn 0.1952 -0.3929 0.8986
vn -0.5370 0.0010 0.8436
vn -0.0840 -0.4529 -0.8876
vn -0.1342 -0.7701 0.6236
vn -0.3137 -0.3884 0.8665
vn -0.6312 -0.6494 0.4241
vn -0.3137 -0.3885 0.8664
vn -0.0070 -0.2382 0.9712
vn -0.9793 0.1923 0.0625
vn 0.8498 0.4304 0.3043
vn -0.9911 -0.1125 -0.0714
vn 0.6458 -0.6815 0.3442
vn -0.2975 -0.1280 0.9461
vn 0.9910 0.0486 -0.1250
vn 0.1624 0.3722 -0.9138
vn 0.6154 0.6808 0.3972
vn -0.2689 0.7434 0.6124
vn -0.5993 -0.1657 -0.7832
vn 0.6883 0.5127 -0.5133
vn -0.9025 -0.0593 -0.4267
vn -0.6911 0.6755 -0.2572
vn -0.9372 0.2018 -0.2844
vn -0.6615 0.7263 -0.1868
vn 0.9412 0.3234 0.0977
vn -0.9443 0.0973 0.3144
vn 0.6046 -0.7923 0.0818
vn 0.8800 0.2380 -0.4111
vn -0.8955 0.4321 0.1069
vn 0.9383 -0.1021 0.3304
vn 0.9087 0.4113 -0.0720
vn 0.1259 -0.0485 -0.9909
vn -0.9010 -0.1159 0.4181
vn -0.0750 -0.8578 0.5084
vn -0.8158 0.3620 0.4509
vn 0.8140 0.5579 -0.1616
vn -0.9912 -0.0284 -0.1291
vn -0.7834 0.0895 0.6150
vn -0.4119 -0.8797 -0.2377
vn -0.0832 0.9900 -0.1138
vn -0.8545 -0.3053 -0.4204
vn 0.7903 0.1115 0.6025
vn -0.9060 0.4190 -0.0600
vn 0.5055 0.8504 -0.1461
vn 0.4952 0.8468 0.1942
vn 0.8538 -0.4182 0.3100
vn 0.9093 -0.3771 0.1759
vn -0.9568 -0.2844 0.0605
vn -0.9929 -0.0104 0.1188
vn 0.7135 -0.0901 -0.6948
vn 0.9467 -0.1164 -0.3003
vn -0.1571 -0.9666 0.2022
vn 0.0507 -0.9597 -0.2764
vn 0.8131 -0.1177 0.5701
vn -0.9456 -0.1461 0.2906
vn -0.6738 -0.0046 0.7389
vn -0.8188 -0.1011 -0.5651
vn -0.9505 -0.2408 0.1965
vn -0.9585 -0.0979 -0.2678
vn 0.5458 -0.4013 0.7356
vn 0.6561 -0.7340 0.1751
vn 0.6640 0.7188 -0.2059
vn -0.4515 -0.1825 0.8734
vn -0.5395 0.3549 -0.7635
vn -0.7917 0.3773 0.4806
vn -0.9749 -0.2158 0.0541
vn -0.9926 0.0333 -0.1164
vn 0.0594 0.9808 -0.1858
vn -0.7828 0.5919 -0.1920
vn -0.7652 -0.6256 -0.1524
vn 0.6397 -0.3576 0.6804
vn -0.1538 -0.0205 0.9879
vn 0.0981 -0.7149 0.6923
vn -0.6492 0.6319 -0.4233
vn 0.7973 -0.5131 0.3180
vn 0.5509 0.3644 -0.7509
vn 0.4691 -0.1691 0.8668
vn 0.3540 0.7920 0.4974
vn 0.8333 0.4540 0.3153
vn 0.6106 0.7916 0.0229
vn 0.0446 0.9466 -0.3193
vn -0.9095 -0.1910 0.3692
vn 0.9829 -0.1841 -0.0056
vn -0.7206 -0.1108 -0.6844
vn -0.9969 -0.0202 0.0765
vn -0.5061 -0.0501 -0.8610
vn -0.2087 -0.9760 0.0624
vn -0.7421 0.3223 -0.5878
vn 0.7576 -0.1426 0.6370
vn -0.1294 -0.9626 -0.2380
vn 0.0448 0.9942 -0.0979
vn -0.7767 -0.5447 -0.3163
vn 0.4868 -0.7957 0.3604
vn 0.8475 -0.2635 0.4607
vn -0.3507 -0.7084 0.6125
vn 0.0085 -0.7370 -0.6759
vn 0.8105 -0.3375 0.4787
vn -0.8030 0.3235 -0.5006
vn -0.8899 0.2233 -0.3977
vn -0.6207 -0.6999 0.3533
vn 0.0570 0.0615 -0.9965
vn -0.9447 -0.1562 -0.2883
vn 0.3372 -0.3221 -0.8846
vn -0.4988 -0.0300 -0.8662
vn -0.1013 -0.9249 0.3664
vn 0.2147 0.0932 -0.9722
vn 0.6470 -0.6551 0.3903
vn 0.8115 0.3855 0.4392
vn -0.0813 -0.9942 0.0703
vn 0.8772 0.2490 -0.4105
vn 0.5704 0.1560 0.8064
vn -0.8010 -0.1411 0.5818
vn 0.7654 -0.3010 0.5687
vn 0.7209 0.6759 -0.1534
vn -0.7636 0.2406 0.5992
vn -0.3084 -0.1832 0.9334
vn 0.3010 -0.8216 0.4841
vn -0.6166 -0.6906 0.3780
vn 0.3943 -0.8636 -0.3141
vn -0.4187 -0.9052 -0.0737
vn 0.4336 -0.8675 -0.2436
vn -0.6093 0.7924 -0.0296
vn 0.5628 0.2520 -0.7872
vn -0.5628 0.2523 -0.7871
vn 0.7145 -0.4034 0.5716
vn -0.0336 -0.7690 0.6383
vn 0.5164 0.6957 -0.4993
vn -0.9619 0.2666 0.0606
vn 0.3005 -0.6855 0.6632
vn -0.8796 0.4699 -0.0741
vn -0.1705 -0.3638 0.9157
vn 0.6675 0.6951 -0.2670
vn -0.9818 -0.1758 0.0717
vn -0.9082 -0.1814 0.3772
vn 0.4855 0.8474 0.2151
vn -0.7475 -0.1964 0.6346
vn -0.0678 -0.8296 0.5542
vn -0.6692 0.1092 0.7350
vn -0.7715 -0.5013 0.3918
vn 0.8489 0.0261 -0.5279
vn 0.4869 -0.0157 -0.8733
vn 0.6729 -0.7149 0.1901
vn -0.2161 -0.9585 0.1860
vn -0.8741 0.2556 -0.4131
vn 0.9618 -0.1362 -0.2374
vn 0.2668 -0.9448 -0.1903
vn 0.5249 0.2770 -0.8048
vn -0.6192 -0.3758 0.6895
vn 0.3271 -0.1740 0.9288
vn 0.6821 0.6811 -0.2663
vn 0.9510 -0.2907 -0.1057
vn -0.7649 -0.0389 0.6430
vn -0.7211 -0.2556 0.6440
vn 0.7086 -0.5595 0.4300
vn 0.7001 -0.6593 0.2743
vn -0.0588 0.9820 -0.1793
vn -0.5519 0.1042 -0.8274
vn -0.9293 0.3640 -0.0619
vn -0.8583 -0.2311 -0.4582
vn -0.9616 0.0555 0.2688
vn 0.7394 0.3181 -0.5934
vn -0.2617 0.9305 0.2563
vn 0.6548 0.7545 -0.0450
vn -0.9868 0.1590 0.0319
vn 0.3781 -0.9203 0.1007
vn -0.6549 0.2711 -0.7054
vn 0.2288 -0.4233 -0.8766
vn -0.3233 -0.9100 -0.2595
vn -0.7715 0.3803 -0.5101
vn -0.9197 -0.0134 -0.3925
vn 0.7619 -0.1745 0.6237
vn 0.2608 -0.6809 0.6844
vn 0.8687 -0.4149 0.2706
vn -0.2069 -0.9759 -0.0695
vn -0.9986 0.0501 0.0164
vn 0.7749 -0.0166 0.6318
vn 0.9913 0.0014 -0.1313
vn -0.0616 0.9977 0.0287
vn 0.6584 -0.1292 -0.7415
vn -0.9900 -0.0857 -0.1122
vn -0.0142 0.9784 -0.2064
vn 0.2394 0.8493 0.4706
vn -0.1254 0.9910 -0.0476
vn 0.7726 -0.5489 -0.3191
vn -0.9909 0.0194 -0.1331
vn 0.7671 -0.6401 -0.0427
vn 0.9456 0.2780 -0.1690
vn -0.6160 0.7836 -0.0806
vn 0.3139 -0.9424 0.1157
vn -0.3008 0.7844 0.5424
vn 0.3817 -0.8857 -0.2641
vn 0.9226 0.1153 -0.3682
vn -0.2506 -0.2754 0.9281
vn -0.0870 -0.9510 -0.2967
vn -0.9874 0.0373 -0.1541
vn -0.8953 -0.4448 0.0236
vn 0.3196 0.4785 0.8178
vn -0.2101 -0.4257 -0.8801
vn 0.7938 -0.1652 0.5853
vn 0.2068 0.7684 -0.6056
vn 0.4828 -0.8641 -0.1425
vn -0.8498 -0.1310 0.5106
vn -0.0867 -0.1834 -0.9792
vn 0.3531 -0.0412 0.9347
vn 0.4730 -0.4846 -0.7358
vn -0.9806 -0.1651 0.1054
vn -0.3409 -0.9311 -0.1299
vn -0.9094 -0.3770 0.1758
vn 0.4048 -0.8840 -0.2338
vn -0.0059 -0.7314 -0.6819
vn 0.1693 -0.6429 0.7470
vn -0.9893 -0.0501 0.1371
vn 0.6804 0.7214 0.1289
vn 0.6418 -0.6723 0.3690
vn -0.6974 0.7034 -0.1372
vn 0.8545 -0.3007 -0.4235
vn -0.4921 0.7408 -0.4573
vn -0.6715 0.6936 -0.2608
vn 0.1072 -0.8282 0.5500
vn -0.8234 -0.4637 -0.3272
vn -0.0270 0.9987 -0.0435
vn 0.7850 0.1347 0.6047
vn 0.6880 0.7237 -0.0548
vn -0.9907 0.1357 -0.0076
vn 0.2464 -0.9518 0.1827
vn -0.3035 0.6919 0.6551
vn -0.6288 0.2968 0.7187
vn -0.8889 0.0667 0.4533
vn -0.4346 -0.8987 -0.0585
vn -0.9486 0.2961 0.1114
vn 0.9268 0.2164 -0.3068
vn -0.8282 -0.5358 -0.1641
vn -0.9769 -0.1765 -0.1201
vn -0.5527 0.8131 -0.1827
vn 0.9244 -0.3123 -0.2191
vn 0.2975 -0.1280 0.9461
vn -0.6303 -0.7544 0.1834
vn -0.9212 0.3891 -0.0051
vn 0.1986 0.1893 -0.9616
vn 0.0650 -0.7676 0.6376
vn -0.2710 -0.6937 0.6673
vn -0.0594 -0.9946 0.0852
vn -0.0674 -0.7173 0.6935
vn 0.7983 -0.5065 0.3258
vn 0.3510 -0.7084 0.6124
vn 0.1536 -0.9586 -0.2396
vn 0.9315 -0.3290 0.1550
vn 0.9455 0.1247 0.3008
vn 0.6477 0.0819 -0.7574
vn -0.8415 -0.5118 -0.1730
vn 0.8290 -0.3641 0.4245
vn 0.4995 0.4317 -0.7511
vn 0.0976 -0.3230 0.9414
vn -0.7850 0.1347 0.6047
vn 0.0006 -0.9796 -0.2012
vn 0.9862 0.1643 -0.0219
vn 0.1333 -0.9215 0.3647
vn -0.6168 0.7820 -0.0902
vn 0.2775 -0.2143 -0.9365
vn -0.9894 0.0191 -0.1439
vn 0.9372 0.2018 -0.2844
vn -0.5438 0.7083 -0.4502
vn 0.2350 0.4890 0.8400
vn -0.6780 0.0624 0.7324
vn 0.8192 -0.5690 -0.0722
vn -0.7802 -0.5342 -0.3253
vn 0.1121 -0.3714 -0.9217
vn -0.3215 0.4693 0.8225
vn -0.2848 -0.9510 0.1200
vn -0.0125 -0.2738 -0.9617
vn 0.2858 0.7929 0.5382
vn 0.8142 -0.4568 -0.3583
vn -0.8173 -0.2237 0.5311
vn 0.8038 -0.4788 0.3531
vn 0.1101 -0.9481 -0.2982
vn 0.5701 0.5375 -0.6213
vn 0.0352 -0.9969 0.0711
vn 0.9072 -0.3632 0.2126
vn 0.9430 0.1543 -0.2950
vn 0.4936 -0.5569 0.6680
vn 0.6082 0.7826 -0.1327
vn 0.1624 -0.7306 0.6632
vn 0.6399 0.6362 -0.4311
vn 0.2179 -0.8559 -0.4691
vn 0.6340 0.1988 0.7474
vn 0.7673 -0.5413 -0.3439
vn 0.6868 0.6945 -0.2144
vn -0.0095 -0.7329 -0.6803
vn 0.0065 -0.8358 0.5491
vn 0.6549 0.2710 -0.7054
vn 0.1826 0.9758 -0.1207
vn -0.8328 -0.2878 0.4728
vn 0.9635 -0.0065 0.2677
vn 0.8889 0.0667 0.4533
vn 0.5104 -0.1702 -0.8429
vn -0.9410 -0.3149 0.1242
vn 0.9870 0.1488 -0.0608
vn 0.6388 0.6360 -0.4330
vn -0.2090 -0.9379 -0.2768
vn 0.9598 -0.2132 0.1827
vn -0.8636 -0.2169 0.4551
vn -0.7770 0.2161 -0.5913
vn 0.1643 -0.8845 0.4367
vn 0.9444 -0.1324 -0.3008
vn -0.2262 -0.4842 0.8452
vn 0.6473 0.7126 -0.2703
vn -0.8720 0.0376 0.4880
vn 0.9099 -0.0897 0.4051
vn 0.8659 0.1978 0.4594
vn -0.6574 -0.6327 0.4093
vn -0.7115 0.7027 0.0096
vn 0.9469 0.3178 0.0477
vn 0.3847 0.9044 -0.1847
vn 0.8533 0.4939 -0.1671
vn -0.2031 0.1965 -0.9593
vn 0.6544 -0.7358 0.1741
vn 0.8411 -0.5115 -0.1761
vn -0.0997 0.9022 -0.4197
vn 0.8739 0.4756 -0.1007
vn -0.4835 0.8474 -0.2194
vn 0.2452 -0.8386 0.4864
vn -0.6477 0.0819 -0.7574
vn 0.2484 -0.2089 -0.9459
vn 0.4327 0.7849 0.4435
vn -0.4105 -0.9057 -0.1057
vn 0.9013 -0.0600 -0.4290
vn 0.5123 0.3146 -0.7991
vn 0.9965 -0.0396 0.0737
vn -0.9821 -0.1826 0.0452
vn 0.9185 0.3194 0.2332
vn 0.9577 0.2317 -0.1704
vn -0.9294 -0.2791 -0.2416
vn 0.9745 -0.2178 0.0543
vn -0.8074 -0.3670 0.4619
vn -0.9833 0.0802 -0.1631
vn -0.5819 0.2897 -0.7599
vn -0.3879 -0.8645 -0.3198
vn 0.0867 -0.1834 -0.9792
vn -0.9882 -0.0415 0.1472
vn -0.9732 -0.2141 -0.0836
vn 0.6480 -0.1503 0.7467
vn 0.4255 -0.3246 -0.8447
vn 0.6930 -0.0559 0.7188
vn 0.3765 -0.7226 0.5797
vn -0.9967 0.0554 -0.0596
vn 0.4497 -0.6615 0.6002
vn 0.7618 0.2383 -0.6024
vn 0.0752 -0.8579 0.5083
vn 0.0954 0.9954 -0.0044
vn -0.6446 0.6313 -0.4312
vn -0.5174 0.3489 0.7814
vn 0.3879 -0.9152 -0.1093
vn 0.9860 0.0042 -0.1668
vn 0.3675 -0.9283 -0.0573
vn -0.1522 -0.2821 0.9472
vn -0.8483 -0.4739 0.2363
vn 0.5494 -0.0729 0.8324
vn 0.6702 0.7384 -0.0750
vn 0.1198 0.1146 -0.9862
vn -0.1096 0.1064 -0.9883
vn -0.8194 0.3559 -0.4493
vn -0.6806 -0.0758 0.7287
vn -0.7245 -0.6113 0.3186
vn -0.8539 -0.4181 0.3100
vn -0.3010 -0.8216 0.4841
vn 0.2430 0.5537 0.7965
vn 0.9502 -0.1545 -0.2707
vn -0.4807 -0.7141 -0.5089
vn -0.3856 -0.8559 -0.3447
vn 0.0840 -0.4529 -0.8876
vn 0.1354 -0.9711 -0.1966
vn -0.8668 0.3019 -0.3970
vn 0.0283 0.9880 -0.1516
vn 0.9779 -0.1622 0.1317
vn 0.9536 -0.1186 0.2769
vn 0.7662 -0.2554 0.5896
vn -0.8560 -0.0646 0.5129
vn -0.4573 0.8876 -0.0554
vn -0.2566 -0.8029 0.5380
vn -0.0041 -0.2686 -0.9633
vn 0.9854 -0.0800 0.1501
vn -0.6192 -0.4584 0.6376
vn 0.3634 -0.8620 -0.3534
vn -0.7562 -0.5634 -0.3328
vn -0.9845 0.0680 0.1619
vn 0.2689 0.7434 0.6124
vn 0.1736 -0.4045 0.8979
vn -0.7033 0.6815 -0.2022
vn -0.5897 -0.4984 0.6355
vn -0.6026 -0.5538 0.5745
vn -0.0202 0.9587 -0.2836
vn -0.1203 0.1154 -0.9860
vn 0.4525 -0.8836 -0.1202
vn 0.9523 -0.2906 0.0932
vn 0.8422 -0.3995 0.3621
vn 0.8922 -0.4511 0.0192
vn 0.8528 0.4511 -0.2633
vn -0.9939 -0.0133 0.1095
vn -0.9359 0.2269 -0.2694
vn -0.2420 -0.9521 -0.1867
vn 0.5438 0.7083 -0.4502
vn -0.3137 -0.3306 -0.8901
vn -0.5640 -0.5698 0.5978
vn -0.9893 -0.0179 0.1447
vn -0.5093 0.3024 -0.8057
vn 0.8625 -0.0128 -0.5059
vn -0.6101 -0.5824 0.5371
vn 0.5298 0.8441 -0.0826
vn 0.9897 0.0002 -0.1434
vn 0.9582 0.2824 0.0464
vn 0.8588 -0.1852 0.4777
vn -0.4497 -0.6615 0.6002
vn 0.8518 0.3267 -0.4094
vn 0.5778 -0.8134 0.0667
vn 0.8941 -0.4312 0.1208
vn -0.5806 -0.5111 0.6338
vn 0.6733 0.4067 0.6175
vn 0.4137 0.5313 0.7393
vn 0.7649 0.2627 0.5882
vn 0.7919 0.1969 -0.5780
vn 0.9083 0.2458 0.3385
vn -0.7065 -0.5537 0.4408
vn 0.8310 -0.1999 0.5191
vn 0.9937 0.0842 -0.0740
vn -0.6453 -0.4297 0.6317
vn 0.9634 0.0833 0.2549
vn -0.9803 0.0755 -0.1824
vn 0.9234 0.3834 -0.0186
vn 0.3355 0.9262 -0.1721
vn -0.9478 -0.1444 -0.2842
vn 0.7261 -0.2568 0.6378
vn 0.7754 0.3780 -0.5059
vn 0.5664 0.1061 -0.8173
vn -0.6375 0.7601 -0.1260
vn -0.1998 -0.8619 -0.4661
vn 0.1685 -0.0158 0.9856
vn 0.7987 0.3161 0.5120
vn -0.9194 0.1858 0.3465
vn 0.7504 -0.0210 0.6606
vn -0.7238 -0.6685 0.1710
vn 0.8622 -0.1096 0.4946
vn -0.1063 -0.4883 -0.8662
vn 0.6224 -0.6922 0.3653
vn -0.7786 -0.5292 0.3373
vn -0.9429 0.1588 -0.2927
vn 0.7245 -0.6113 0.3186
vn 0.9827 -0.0265 0.1833
vn 0.3286 -0.8708 -0.3657
vn -0.7991 -0.4815 0.3599
vn 0.2653 -0.3389 0.9027
vn 0.1826 -0.7501 0.6356
vn -0.3383 -0.0512 0.9397
vn -0.4384 -0.5470 0.7131
vn -0.7423 0.6547 -0.1429
vn 0.9737 0.0252 0.2266
vn -0.4487 0.7722 0.4499
vn -0.1898 -0.3813 0.9047
vn -0.2847 -0.2224 -0.9325
vn 0.9910 -0.0129 0.1329
vn 0.9057 0.1189 -0.4068
vn 0.9920 -0.0094 0.1256
vn -0.1645 0.3720 -0.9135
vn -0.7045 -0.6472 0.2912
vn 0.5149 -0.3262 0.7927
vn -0.7525 0.0487 -0.6568
vn 0.6581 0.7020 -0.2723
vn -0.3353 0.8823 -0.3304
vn -0.9709 -0.1727 -0.1660
vn 0.1110 -0.9914 0.0689
vn -0.7014 0.5120 -0.4959
vn 0.5489 0.0168 0.8357
vn 0.4937 -0.7000 -0.5160
vn -0.6651 -0.1484 -0.7319
vn -0.4676 -0.5708 0.6749
vn 0.4822 0.7464 -0.4587
vn 0.9909 0.0194 -0.1331
vn 0.9335 -0.2522 -0.2550
vn 0.2617 0.9305 0.2563
vn -0.5400 -0.0985 0.8359
vn -0.0200 -0.9639 -0.2654
vn 0.2322 -0.9315 -0.2801
vn 0.8775 0.0629 0.4754
vn -0.9922 -0.0651 -0.1061
vn -0.0054 -0.9974 0.0713
vn 0.7668 0.5885 -0.2564
vn 0.4654 -0.8767 -0.1218
vn -0.3208 0.5005 -0.8041
vn 0.4701 -0.4483 0.7602
vn 0.9777 -0.1859 -0.0977
vn -0.9460 -0.1552 -0.2847
vn 0.4747 0.7900 -0.3881
vn 0.8806 0.4591 -0.1175
vn 0.9775 0.1332 -0.1635
vn -0.8335 0.2190 0.5073
vn 0.2119 -0.4053 -0.8893
vn -0.9938 -0.0684 0.0881
vn -0.6286 0.1805 0.7565
vn 0.3819 -0.5805 0.7192
vn 0.9184 -0.1551 0.3640
vn -0.5164 0.6957 -0.4993
vn 0.4739 -0.8721 -0.1219
vn -0.8911 0.4402 -0.1099
vn -0.9226 0.1153 -0.3682
vn 0.9261 -0.0458 0.3746
vn 0.5547 -0.0827 0.8280
vn 0.9263 0.3238 -0.1925
vn -0.2500 -0.9302 -0.2688
vn 0.6763 0.1286 0.7253
vn -0.6869 0.7243 -0.0600
vn -0.5530 -0.8298 0.0748
vn -0.7408 -0.1697 0.6500
vn -0.7663 -0.3324 0.5498
vn -0.6657 0.1572 0.7295
vn 0.8338 0.4507 0.3188
vn -0.9502 -0.1388 -0.2790
vn 0.9800 0.0380 -0.1956
vn -0.6558 -0.4887 0.5754
vn 0.9783 -0.1626 -0.1281
vn 0.1645 -0.9710 -0.1737
vn 0.9139 0.0131 -0.4057
vn -0.7006 -0.5718 0.4269
vn -0.0014 0.9978 0.0670
vn -0.4694 -0.4982 -0.7290
vn -0.7499 -0.2773 0.6006
vn 0.5924 -0.1484 -0.7918
vn 0.7283 -0.5718 0.3776
vn -0.3695 0.7816 0.5026
vn -0.3604 -0.9328 0.0058
vn -0.3514 0.7044 0.6167
vn -0.2473 0.5466 0.8000
vn 0.6596 -0.6469 0.3827
vn 0.6842 0.0151 0.7291
vn -0.9301 -0.1292 0.3438
vn -0.2524 -0.3421 0.9051
vn 0.5640 -0.5698 0.5978
vn -0.9898 0.0601 -0.1290
vn 0.6875 0.1268 0.7150
vn 0.4949 -0.0357 -0.8682
vn -0.9854 0.0705 -0.1552
vn 0.2340 -0.9695 -0.0727
vn -0.9322 0.3211 -0.1671
vn 0.8030 0.3235 -0.5006
vn -0.0699 -0.7017 0.7091
vn -0.9858 -0.1054 0.1306
vn 0.9507 0.0940 -0.2957
vn 0.6909 0.7229 -0.0005
vn -0.8044 -0.2204 0.5516
vn 0.8556 0.4576 0.2420
vn 0.3127 0.9480 -0.0590
vn 0.8534 -0.4873 -0.1852
vn 0.7060 -0.5094 0.4921
vn 0.5476 0.2780 -0.7892
vn 0.8583 -0.2311 -0.4582
vn -0.9804 -0.1084 0.1643
vn 0.6713 0.1765 0.7198
vn -0.9146 0.0926 -0.3937
vn 0.2845 -0.9222 -0.2620
vn -0.8508 -0.0036 -0.5254
vn 0.9863 0.0469 -0.1581
vn 0.5002 -0.5478 0.6706
vn 0.6202 -0.4371 0.6514
vn -0.0209 0.9663 -0.2566
vn 0.9569 -0.0702 -0.2816
vn -0.1316 -0.7348 0.6654
vn -0.9188 -0.0724 0.3879
vn -0.3594 -0.8965 -0.2591
vn 0.7625 0.6142 -0.2032
vn 0.6636 -0.5033 0.5535
vn 0.1879 -0.9617 0.1997
vn -0.7793 0.5853 -0.2238
vn 0.1739 -0.2774 0.9449
vn -0.3646 0.9160 -0.1671
vn -0.8151 -0.5518 0.1765
vn 0.8249 0.3275 -0.4607
vn 0.9445 0.3229 0.0601
vn -0.9708 -0.1904 0.1458
vn 0.9836 0.0652 -0.1684
vn 0.7547 -0.1481 0.6392
vn 0.9248 -0.1220 0.3604
vn -0.6320 -0.7527 0.1845
vn -0.9084 -0.4029 -0.1114
vn 0.7985 -0.6018 0.0108
vn -0.2129 -0.4114 -0.8862
vn -0.7668 -0.4983 0.4046
vn 0.7779 -0.5332 -0.3326
vn 0.5183 0.3638 0.7739
vn -0.9796 -0.1651 0.1147
vn 0.9742 0.2206 0.0484
vn 0.0079 -0.9431 0.3324
vn 0.7710 -0.5019 0.3919
vn 0.9730 -0.1446 -0.1800
vn -0.4583 -0.8094 0.3672
vn 0.8483 -0.4739 0.2363
vn 0.0101 -0.9693 -0.2457
vn -0.3371 0.9400 -0.0520
vn 0.9460 -0.1182 -0.3019
vn 0.8177 -0.2279 0.5286
vn 0.3672 -0.8600 0.3544
vn -0.5226 0.4169 -0.7437
vn 0.8506 0.5033 -0.1523
vn -0.9004 -0.4119 0.1398
vn -0.9436 -0.3181 -0.0920
vn -0.7962 -0.3556 0.4895
vn -0.8909 -0.1343 0.4339
vt 0.793893 0.811035
vt 0.733986 0.647144
vt 0.654509 0.794346
vt 0.904509 0.802353
vt 0.637534 0.635601
vt 0.530617 0.607635
vt 0.500000 0.753937
vt 0.876608 0.580494
vt 0.859674 0.618176
vt 0.975529 0.769161
vt 0.000000 0.714703
vt 0.810530 0.641144
vt 0.494886 0.330135
vt 0.549539 0.344433
vt 0.530617 0.328053
vt 0.604192 0.365723
vt 0.423700 0.300087
vt 0.327249 0.288544
vt 0.445583 0.324238
vt 0.637534 0.369709
vt 0.653495 0.391926
vt 0.692622 0.420471
vt 0.810530 0.476807
vt 0.717743 0.448570
vt 0.733986 0.420963
vt 0.201560 0.403915
vt 0.381335 0.383205
vt 0.184626 0.355206
vt 0.372679 0.358311
vt 0.250704 0.458881
vt 0.406456 0.411304
vt 0.327249 0.514725
vt 0.381335 0.339043
vt 0.250704 0.294548
vt 0.406456 0.327301
vt 0.201560 0.317513
vt 0.859674 0.531780
vt 0.555940 0.398312
vt 0.726400 0.473465
vt 0.692622 0.504471
vt 0.717743 0.492729
vt 0.653495 0.507542
vt 0.604192 0.501640
vt 0.445583 0.439854
vt 0.494886 0.466053
vt 0.549539 0.487347
vt 0.095491 0.301487
vt 0.206107 0.292805
vt 0.024472 0.334679
vt 0.345492 0.309490
vt 0.500000 0.349903
vt 0.654509 0.410099
vt 0.206107 0.619667
vt 0.345492 0.693741
vt 0.095491 0.538963
vt 0.423700 0.565987
vt 0.024472 0.459526
vt 0.000000 0.389137
vt 0.904509 0.564873
vt 0.975529 0.644310
vt 0.793893 0.484169
vt 0.000000 1.000000
vt 0.273600 0.473465
vt 0.123392 0.580494
vt 0.282257 0.492729
vt 0.024471 0.644310
vt 0.140326 0.618176
vt 0.307378 0.504471
vt 0.189470 0.641144
vt 0.140326 0.531780
vt 0.266014 0.420963
vt 0.206107 0.484169
vt 0.189470 0.476807
vt 0.345491 0.410099
vt 0.095491 0.564873
vt 0.576300 0.565987
vt 0.505114 0.466053
vt 0.469383 0.607635
vt 0.450461 0.487347
vt 0.672751 0.514725
vt 0.554417 0.439854
vt 0.593544 0.411304
vt 0.362466 0.635601
vt 0.395808 0.501640
vt 0.346505 0.507542
vt 0.266014 0.647144
vt 0.362466 0.369709
vt 0.798440 0.403915
vt 0.749296 0.458881
vt 0.975528 0.459526
vt 0.904509 0.538963
vt 0.815374 0.355206
vt 0.975528 0.334679
vt 0.654508 0.693741
vt 0.793893 0.619667
vt 0.576300 0.300087
vt 0.654508 0.309490
vt 0.469383 0.328053
vt 0.672751 0.288544
vt 0.793893 0.292805
vt 0.798440 0.317513
vt 0.749296 0.294548
vt 0.904509 0.301487
vt 0.444060 0.398312
vt 0.618665 0.383205
vt 0.282257 0.448570
vt 0.395808 0.365723
vt 0.346505 0.391926
vt 0.450461 0.344433
vt 0.307378 0.420471
vt 0.505114 0.330135
vt 0.627321 0.358311
vt 0.618665 0.339043
vt 0.593544 0.327301
vt 0.554417 0.324238
vt 0.095491 0.802353
vt 0.024471 0.769161
vt 0.345491 0.794346
vt 0.206107 0.811035
vt 0.531129 0.863455
vt 0.528598 0.862678
vt 0.529701 0.861377
vt 0.530028 0.864496
vt 0.532449 0.864504
vt 0.554833 0.852302
vt 0.535964 0.857423
vt 0.554115 0.862847
vt 0.527653 0.863068
vt 0.533337 0.860528
vt 0.534939 0.862031
vt 0.531751 0.858482
vt 0.533744 0.855085
vt 0.535657 0.858520
vt 0.537437 0.859975
vt 0.530356 0.847231
vt 0.465756 0.730456
vt 0.464280 0.731015
vt 0.466272 0.734068
vt 0.468310 0.733388
vt 0.464779 0.728223
vt 0.462719 0.728340
vt 0.462606 0.727787
vt 0.464037 0.730013
vt 0.465977 0.733427
vt 0.464885 0.735427
vt 0.463767 0.732595
vt 0.465331 0.736822
vt 0.463567 0.731622
vt 0.533015 0.861030
vt 0.528781 0.860447
vt 0.530131 0.864549
vt 0.530881 0.856491
vt 0.531355 0.865489
vt 0.534491 0.861890
vt 0.526887 0.856207
vt 0.527647 0.863272
vt 0.528726 0.864638
vt 0.526403 0.862717
vt 0.525618 0.860881
vt 0.526164 0.858016
vt 0.536721 0.859365
vt 0.468862 0.749484
vt 0.466293 0.747780
vt 0.466377 0.748286
vt 0.467102 0.749259
vt 0.467253 0.750763
vt 0.470042 0.751312
vt 0.469399 0.753101
vt 0.469928 0.750509
vt 0.463993 0.748347
vt 0.465755 0.751317
vt 0.467367 0.753944
vt 0.471307 0.756222
vt 0.464995 0.721450
vt 0.464829 0.720767
vt 0.463109 0.721688
vt 0.462921 0.720778
vt 0.464423 0.724210
vt 0.465870 0.723530
vt 0.464627 0.728363
vt 0.464023 0.722561
vt 0.465068 0.754195
vt 0.464674 0.751874
vt 0.466630 0.753166
vt 0.463722 0.724297
vt 0.465564 0.722267
vt 0.463941 0.725445
vt 0.463960 0.747882
vt 0.467324 0.729442
vt 0.468962 0.731820
vt 0.464679 0.727808
vt 0.468861 0.731404
vt 0.465570 0.729689
vt 0.468613 0.734441
vt 0.465745 0.749335
vt 0.459061 0.781790
vt 0.459779 0.802539
vt 0.459863 0.804904
vt 0.459175 0.785141
vt 0.459751 0.801754
vt 0.459456 0.793305
vt 0.459271 0.787929
vt 0.459472 0.793767
vt 0.459704 0.800426
vt 0.459315 0.789211
vt 0.458776 0.773334
vt 0.458807 0.774253
vt 0.459830 0.803985
vt 0.489859 0.811437
vt 0.490517 0.812575
vt 0.493013 0.812944
vt 0.492379 0.807917
vt 0.492492 0.807826
vt 0.490244 0.811723
vt 0.495164 0.807698
vt 0.493132 0.810665
vt 0.494834 0.807444
vt 0.490710 0.812847
vt 0.492924 0.813826
vt 0.497867 0.810534
vt 0.497474 0.813438
vt 0.460224 0.765039
vt 0.460206 0.763084
vt 0.462560 0.806586
vt 0.461784 0.810371
vt 0.461888 0.813254
vt 0.462269 0.795070
vt 0.460502 0.773340
vt 0.461874 0.784919
vt 0.461843 0.811999
vt 0.460939 0.786261
vt 0.460749 0.780687
vt 0.461206 0.794016
vt 0.461693 0.807861
vt 0.529650 0.858487
vt 0.526305 0.855364
vt 0.526229 0.858659
vt 0.525366 0.858400
vt 0.526985 0.861113
vt 0.527069 0.853356
vt 0.527847 0.860249
vt 0.525730 0.856066
vt 0.499012 0.806119
vt 0.499163 0.808047
vt 0.496863 0.805659
vt 0.504007 0.807601
vt 0.498517 0.806656
vt 0.503584 0.806797
vt 0.496949 0.812909
vt 0.499654 0.812986
vt 0.502654 0.810875
vt 0.503507 0.809186
vt 0.592808 0.531743
vt 0.588217 0.538940
vt 0.588077 0.539594
vt 0.592974 0.532605
vt 0.590410 0.541266
vt 0.605476 0.579748
vt 0.598681 0.549994
vt 0.597732 0.577716
vt 0.594369 0.536410
vt 0.588024 0.579111
vt 0.613173 0.625620
vt 0.612434 0.624340
vt 0.615779 0.621909
vt 0.615986 0.622776
vt 0.613896 0.614147
vt 0.608878 0.593579
vt 0.610395 0.618277
vt 0.610344 0.599562
vt 0.598719 0.597518
vt 0.603627 0.617616
vt 0.594111 0.535248
vt 0.585780 0.562762
vt 0.596633 0.544739
vt 0.581263 0.552818
vt 0.580933 0.565246
vt 0.599718 0.607532
vt 0.614994 0.618664
vt 0.603411 0.571398
vt 0.597228 0.579381
vt 0.580859 0.579665
vt 0.580881 0.588312
vt 0.586239 0.595329
vt 0.580956 0.598184
vt 0.581140 0.610011
vt 0.587471 0.612386
vt 0.580948 0.566627
vt 0.581636 0.543142
vt 0.601569 0.621008
vt 0.581399 0.548416
vt 0.581728 0.542511
vt 0.581694 0.543940
vt 0.584418 0.618966
vt 0.581248 0.618567
vt 0.581152 0.616172
vt 0.580876 0.599332
vt 0.585356 0.616338
vt 0.553521 0.602831
vt 0.553331 0.610777
vt 0.554511 0.593339
vt 0.555736 0.583825
vt 0.553636 0.612485
vt 0.553687 0.602899
vt 0.553489 0.615268
vt 0.459452 0.491871
vt 0.461213 0.485382
vt 0.459485 0.489932
vt 0.461044 0.486468
vt 0.459778 0.492442
vt 0.459359 0.494423
vt 0.461493 0.488154
vt 0.464758 0.479439
vt 0.558504 0.553826
vt 0.556735 0.572716
vt 0.557625 0.559726
vt 0.580730 0.586609
vt 0.597048 0.573565
vt 0.589612 0.566365
vt 0.599269 0.554858
vt 0.558814 0.552734
vt 0.580750 0.575909
vt 0.555956 0.581021
vt 0.557629 0.569465
vt 0.554660 0.591882
vt 0.558917 0.553838
vt 0.558344 0.559956
vt 0.466992 0.735881
vt 0.471686 0.736523
vt 0.471154 0.735844
vt 0.467543 0.732415
vt 0.469038 0.734202
vt 0.465755 0.732520
vt 0.464910 0.730942
vt 0.468204 0.735019
vt 0.462924 0.731477
vt 0.463785 0.734862
vt 0.464875 0.736583
vt 0.472383 0.739772
vt 0.467083 0.750025
vt 0.472789 0.754060
vt 0.465694 0.724813
vt 0.464362 0.726914
vt 0.467043 0.757209
vt 0.465055 0.731428
vt 0.469008 0.724611
vt 0.468395 0.726339
vt 0.467362 0.722205
vt 0.466053 0.734327
vt 0.468842 0.723927
vt 0.468423 0.726290
vt 0.462756 0.730786
vt 0.464215 0.732819
vt 0.466077 0.735332
vt 0.468792 0.735891
vt 0.600823 0.620456
vt 0.472127 0.728869
vt 0.609379 0.623288
vt 0.609476 0.623840
vt 0.471595 0.729530
vt 0.471495 0.728278
vt 0.469804 0.729461
vt 0.467500 0.728924
vt 0.472618 0.739591
vt 0.466378 0.738958
vt 0.464850 0.738342
vt 0.471066 0.739817
vt 0.469530 0.739997
vt 0.492385 0.780119
vt 0.495290 0.787243
vt 0.496036 0.784173
vt 0.491154 0.779002
vt 0.491169 0.779490
vt 0.484620 0.782489
vt 0.478875 0.782885
vt 0.483299 0.800267
vt 0.473516 0.783857
vt 0.474509 0.805198
vt 0.491185 0.779437
vt 0.490127 0.754648
vt 0.488711 0.757775
vt 0.487882 0.782818
vt 0.490626 0.800192
vt 0.492957 0.791536
vt 0.487404 0.808726
vt 0.486815 0.799901
vt 0.510317 0.819697
vt 0.506778 0.810402
vt 0.499845 0.801958
vt 0.483049 0.769613
vt 0.478757 0.763906
vt 0.477157 0.773097
vt 0.506264 0.803765
vt 0.485902 0.782701
vt 0.475770 0.815443
vt 0.487478 0.764879
vt 0.468327 0.763951
vt 0.468299 0.777805
vt 0.485796 0.766729
vt 0.479135 0.759770
vt 0.477878 0.735780
vt 0.477869 0.740706
vt 0.464715 0.728123
vt 0.467168 0.742654
vt 0.478074 0.743827
vt 0.478420 0.746287
vt 0.483856 0.741013
vt 0.481465 0.745903
vt 0.466678 0.742061
vt 0.480832 0.753289
vt 0.482355 0.739235
vt 0.477035 0.736540
vt 0.464418 0.730839
vt 0.479296 0.732786
vt 0.491357 0.782225
vt 0.484142 0.752815
vt 0.489788 0.774510
vt 0.492829 0.789133
vt 0.485110 0.768799
vt 0.494941 0.783847
vt 0.482346 0.751802
vt 0.480720 0.763783
vt 0.474831 0.767088
vt 0.470071 0.782960
vt 0.468285 0.775035
vt 0.473047 0.792616
vt 0.477104 0.752145
vt 0.477999 0.732596
vt 0.499948 0.786343
vt 0.517379 0.794530
vt 0.512134 0.797455
vt 0.519892 0.848057
vt 0.532451 0.843359
vt 0.517744 0.815619
vt 0.537586 0.821761
vt 0.515349 0.835842
vt 0.532581 0.835305
vt 0.502797 0.825711
vt 0.494477 0.829329
vt 0.524531 0.827249
vt 0.502495 0.837962
vt 0.485221 0.804628
vt 0.480786 0.783342
vt 0.475997 0.815446
vt 0.525700 0.806306
vt 0.508952 0.802099
vt 0.509892 0.844218
vt 0.519580 0.802811
vt 0.538081 0.809172
vt 0.541405 0.799494
vt 0.518720 0.795088
vt 0.515910 0.791821
vt 0.499703 0.786625
vt 0.533903 0.796593
vt 0.502945 0.831977
vt 0.499967 0.834792
vt 0.501863 0.837698
vt 0.463758 0.765903
vt 0.461146 0.748328
vt 0.464004 0.756081
vt 0.459637 0.752229
vt 0.459467 0.741348
vt 0.506850 0.797565
vt 0.504079 0.839782
vt 0.492286 0.773966
vt 0.486594 0.753472
vt 0.488556 0.749590
vt 0.489924 0.749166
vt 0.495942 0.780935
vt 0.496808 0.781473
vt 0.468158 0.760414
vt 0.466905 0.746627
vt 0.498506 0.789177
vt 0.488541 0.754072
vt 0.488271 0.754618
vt 0.489151 0.749958
vt 0.496350 0.781759
vt 0.492187 0.775399
vt 0.554776 0.861800
vt 0.556046 0.865722
vt 0.555695 0.855838
vt 0.555129 0.847689
vt 0.555051 0.828840
vt 0.465133 0.783452
vt 0.466504 0.813755
vt 0.478230 0.825060
vt 0.475600 0.826146
vt 0.477985 0.824249
vt 0.473849 0.825912
vt 0.470472 0.823171
vt 0.463533 0.816453
vt 0.463302 0.814164
vt 0.477415 0.822225
vt 0.467802 0.795013
vt 0.468360 0.808736
vt 0.494655 0.804683
vt 0.489056 0.816451
vt 0.497993 0.794438
vt 0.496214 0.799692
s 0
usemtl Material.001
f 60/1/1 54/2/1 58/3/1
f 154/2/2 379/1/2 420/4/2
f 54/2/3 57/5/3 58/3/3
f 152/6/4 436/7/4 23/3/4
f 344/3/5 353/5/5 362/6/5
f 43/8/6 54/9/6 61/10/6
f 527/11/7 520/8/7 371/10/7
f 485/10/8 313/9/8 209/12/8
f 258/4/9 186/12/9 487/2/9
f 54/12/10 60/4/10 61/10/10
f 408/13/11 544/14/11 440/15/11
f 319/15/12 511/14/12 349/16/12
f 257/17/13 214/13/13 204/15/13
f 369/18/14 96/19/14 158/13/14
f 62/13/15 500/17/15 460/18/15
f 538/16/16 24/20/16 441/15/16
f 493/21/17 388/22/17 389/23/17
f 409/23/18 538/22/18 441/24/18
f 461/25/19 193/21/19 275/23/19
f 297/20/20 157/16/20 83/25/20
f 472/16/21 303/21/21 365/25/21
f 503/26/22 311/27/22 488/28/22
f 314/27/23 35/29/23 288/28/23
f 59/27/24 324/26/24 315/30/24
f 304/31/25 380/30/25 352/32/25
f 201/30/26 467/31/26 327/27/26
f 311/28/27 503/29/27 153/33/27
f 11/34/28 389/35/28 543/19/28
f 216/19/29 496/18/29 543/34/29
f 395/33/30 327/35/30 402/34/30
f 54/33/31 50/36/31 53/28/31
f 539/36/32 398/33/32 401/34/32
f 54/24/33 43/37/33 45/23/33
f 151/19/34 67/35/34 462/38/34
f 32/13/35 85/19/35 361/38/35
f 52/35/36 453/33/36 526/38/36
f 257/29/37 27/27/37 13/38/37
f 472/33/38 397/29/38 246/38/38
f 42/14/39 326/13/39 182/38/39
f 245/24/40 409/22/40 441/38/40
f 475/39/41 546/24/41 447/38/41
f 183/22/42 428/21/42 88/38/42
f 487/16/43 365/14/43 258/38/43
f 79/21/44 346/16/44 221/38/44
f 218/40/45 260/41/45 91/38/45
f 269/42/46 159/40/46 442/38/46
f 40/41/47 30/39/47 427/38/47
f 522/37/48 545/24/48 285/8/48
f 447/24/49 546/39/49 336/8/49
f 422/43/50 412/42/50 424/38/50
f 375/31/51 293/44/51 266/38/51
f 47/27/52 99/31/52 384/38/52
f 267/44/53 343/45/53 488/38/53
f 525/46/54 371/43/54 450/38/54
f 398/45/55 539/46/55 306/38/55
f 150/47/56 184/34/56 406/48/56
f 92/34/57 453/18/57 52/48/57
f 463/34/58 205/47/58 385/49/58
f 53/28/31 50/36/31 51/49/31
f 306/49/59 447/36/59 501/34/59
f 50/48/33 54/18/33 48/50/33
f 96/51/60 18/15/60 533/52/60
f 54/15/33 45/20/33 46/52/33
f 54/15/33 46/51/33 48/50/33
f 149/18/61 546/17/61 494/50/61
f 374/50/62 351/17/62 500/15/62
f 517/32/63 431/53/63 451/54/63
f 34/53/64 253/32/64 331/55/64
f 469/54/65 457/56/65 490/32/65
f 268/7/66 445/6/66 97/54/66
f 57/6/67 54/56/67 56/54/67
f 196/32/68 361/30/68 188/55/68
f 83/57/69 26/26/69 270/28/69
f 482/58/70 2/28/70 185/49/70
f 346/57/71 475/28/71 474/58/71
f 123/55/72 17/30/72 144/57/72
f 494/30/73 44/26/73 149/57/73
f 395/52/74 538/20/74 201/25/74
f 257/43/75 274/5/75 27/2/75
f 480/43/76 413/46/76 338/6/76
f 352/2/77 295/42/77 304/43/77
f 208/12/78 449/40/78 75/2/78
f 2/40/79 5/42/79 430/2/79
f 83/6/80 8/5/80 199/43/80
f 210/45/81 342/44/81 39/32/81
f 132/32/82 203/44/82 2/31/82
f 289/56/83 301/45/83 145/32/83
f 199/6/84 26/46/84 83/45/84
f 481/45/85 537/56/85 271/6/85
f 387/59/86 14/23/86 267/60/86
f 539/23/87 401/37/87 474/60/87
f 508/23/88 531/59/88 98/61/88
f 97/25/89 442/61/89 159/52/89
f 358/61/90 345/25/90 381/23/90
f 416/60/91 471/37/91 334/8/91
f 321/9/92 90/41/92 97/12/92
f 455/41/93 221/40/93 346/12/93
f 18/41/94 95/9/94 529/8/94
f 285/8/95 457/11/95 502/60/95
f 349/8/96 85/39/96 536/41/96
f 74/62/97 115/62/97 116/62/97
f 115/62/98 74/62/98 114/62/98
f 116/62/99 76/62/99 74/62/99
f 322/62/100 408/62/100 440/62/100
f 76/62/101 116/62/101 77/62/101
f 435/62/102 31/62/102 502/62/102
f 337/62/103 253/62/103 1/62/103
f 74/62/104 73/62/104 113/62/104
f 514/62/105 416/62/105 334/62/105
f 114/62/106 74/62/106 113/62/106
f 80/62/107 120/62/107 121/62/107
f 502/62/108 31/62/108 87/62/108
f 121/62/109 81/62/109 80/62/109
f 425/62/110 72/62/110 15/62/110
f 275/62/111 281/62/111 404/62/111
f 118/62/112 78/62/112 77/62/112
f 12/62/113 196/62/113 188/62/113
f 80/62/114 78/62/114 118/62/114
f 80/62/115 119/62/115 120/62/115
f 119/62/116 80/62/116 118/62/116
f 65/62/117 105/62/117 106/62/117
f 105/62/118 65/62/118 63/62/118
f 106/62/117 66/62/117 65/62/117
f 328/62/119 514/62/119 87/62/119
f 442/62/120 198/62/120 356/62/120
f 103/62/121 63/62/121 81/62/121
f 216/62/122 354/62/122 496/62/122
f 530/62/123 221/62/123 362/62/123
f 63/62/124 104/62/124 105/62/124
f 104/62/125 63/62/125 103/62/125
f 70/62/126 110/62/126 111/62/126
f 110/62/127 70/62/127 109/62/127
f 111/62/128 71/62/128 70/62/128
f 252/62/129 249/62/129 377/62/129
f 71/62/130 111/62/130 73/62/130
f 108/62/131 68/62/131 66/62/131
f 264/62/132 296/62/132 342/62/132
f 70/62/133 68/62/133 108/62/133
f 274/62/134 257/62/134 204/62/134
f 109/62/135 70/62/135 108/62/135
f 296/62/136 37/62/136 146/62/136
f 315/62/137 382/62/137 372/62/137
f 406/62/138 298/62/138 198/62/138
f 117/62/139 77/62/139 116/62/139
f 498/62/140 27/62/140 274/62/140
f 342/62/141 296/62/141 146/62/141
f 113/62/142 73/62/142 112/62/142
f 381/62/143 296/62/143 41/62/143
f 281/62/144 240/62/144 88/62/144
f 84/62/145 37/62/145 202/62/145
f 194/62/146 465/62/146 189/62/146
f 306/62/147 501/62/147 276/62/147
f 358/62/148 212/62/148 364/62/148
f 102/62/149 81/62/149 121/62/149
f 296/62/150 264/62/150 41/62/150
f 118/62/151 77/62/151 117/62/151
f 144/62/152 215/62/152 123/62/152
f 132/62/153 430/62/153 228/62/153
f 357/62/154 364/62/154 33/62/154
f 18/62/155 357/62/155 521/62/155
f 191/62/156 10/62/156 432/62/156
f 91/62/157 372/62/157 218/62/157
f 470/62/158 387/62/158 243/62/158
f 107/62/159 66/62/159 106/62/159
f 240/62/160 513/62/160 486/62/160
f 371/62/161 520/62/161 450/62/161
f 103/62/162 81/62/162 102/62/162
f 303/62/163 352/62/163 365/62/163
f 450/62/164 155/62/164 525/62/164
f 18/62/165 529/62/165 533/62/165
f 182/62/166 263/62/166 483/62/166
f 6/62/167 145/62/167 515/62/167
f 353/62/168 158/62/168 534/62/168
f 112/62/169 73/62/169 111/62/169
f 259/62/170 499/62/170 224/62/170
f 266/62/171 390/62/171 375/62/171
f 108/62/172 66/62/172 107/62/172
f 520/62/173 527/62/173 216/62/173
f 342/62/174 217/62/174 264/62/174
f 327/62/175 467/62/175 264/62/175
f 139/62/176 33/62/176 41/62/176
f 41/62/177 264/62/177 467/62/177
f 250/62/178 260/62/178 428/62/178
f 126/62/179 168/62/179 167/62/179
f 278/62/180 228/62/180 438/62/180
f 423/62/181 224/62/181 396/62/181
f 133/62/182 172/62/182 171/62/182
f 524/62/183 160/62/183 211/62/183
f 459/62/184 343/62/184 243/62/184
f 505/62/185 431/62/185 517/62/185
f 332/62/186 157/62/186 432/62/186
f 522/62/187 334/62/187 545/62/187
f 99/62/188 10/62/188 361/62/188
f 141/62/189 163/62/189 162/62/189
f 334/62/190 471/62/190 545/62/190
f 474/62/191 202/62/191 346/62/191
f 126/62/192 167/62/192 166/62/192
f 97/62/193 49/62/193 268/62/193
f 400/62/194 319/62/194 24/62/194
f 262/62/195 458/62/195 535/62/195
f 159/62/196 321/62/196 97/62/196
f 189/62/197 8/62/197 47/62/197
f 142/62/198 425/62/198 15/62/198
f 372/62/199 91/62/199 518/62/199
f 137/62/200 178/62/200 177/62/200
f 327/62/201 264/62/201 217/62/201
f 141/62/202 162/62/202 181/62/202
f 212/62/203 358/62/203 381/62/203
f 445/62/204 406/62/204 198/62/204
f 425/62/205 205/62/205 247/62/205
f 11/62/206 543/62/206 496/62/206
f 520/62/207 389/62/207 450/62/207
f 206/62/208 330/62/208 349/62/208
f 133/62/209 173/62/209 172/62/209
f 494/62/210 207/62/210 79/62/210
f 389/62/211 292/62/211 256/62/211
f 137/62/212 177/62/212 176/62/212
f 506/62/213 513/62/213 240/62/213
f 284/62/214 474/62/214 478/62/214
f 472/62/215 487/62/215 187/62/215
f 130/62/216 169/62/216 168/62/216
f 511/62/217 395/62/217 402/62/217
f 128/62/218 130/62/218 168/62/218
f 467/62/219 139/62/219 41/62/219
f 128/62/220 168/62/220 126/62/220
f 171/62/221 131/62/221 133/62/221
f 212/62/222 33/62/222 364/62/222
f 131/62/223 171/62/223 130/62/223
f 130/62/224 170/62/224 169/62/224
f 170/62/225 130/62/225 171/62/225
f 122/62/226 164/62/226 163/62/226
f 164/62/227 122/62/227 165/62/227
f 324/62/228 417/62/228 382/62/228
f 185/62/229 370/62/229 4/62/229
f 122/62/230 163/62/230 141/62/230
f 525/62/231 155/62/231 476/62/231
f 485/62/232 209/62/232 390/62/232
f 126/62/233 166/62/233 125/62/233
f 125/62/234 165/62/234 122/62/234
f 165/62/233 125/62/233 166/62/233
f 140/62/235 179/62/235 178/62/235
f 179/62/236 140/62/236 180/62/236
f 138/62/237 140/62/237 178/62/237
f 537/62/238 410/62/238 156/62/238
f 138/62/200 178/62/200 137/62/200
f 386/62/239 435/62/239 502/62/239
f 331/62/240 499/62/240 34/62/240
f 141/62/241 181/62/241 140/62/241
f 213/62/242 221/62/242 455/62/242
f 180/62/243 140/62/243 181/62/243
f 134/62/244 174/62/244 173/62/244
f 491/62/245 124/62/245 386/62/245
f 133/62/246 134/62/246 173/62/246
f 399/62/247 145/62/247 307/62/247
f 124/62/248 435/62/248 386/62/248
f 176/62/249 136/62/249 137/62/249
f 233/62/250 524/62/250 25/62/250
f 136/62/251 176/62/251 134/62/251
f 134/62/252 175/62/252 174/62/252
f 175/62/253 134/62/253 176/62/253
f 428/63/254 404/64/254 88/65/254
f 158/11/255 371/64/255 534/66/255
f 499/67/256 236/65/256 34/64/256
f 221/68/257 403/65/257 79/69/257
f 508/65/258 486/67/258 531/69/258
f 530/70/259 49/66/259 251/64/259
f 426/71/260 69/72/260 541/73/260
f 404/72/261 281/71/261 88/74/261
f 100/75/262 67/73/262 62/72/262
f 513/70/263 506/73/263 87/66/263
f 203/73/264 185/75/264 2/66/264
f 49/76/265 97/77/265 147/78/265
f 298/79/266 249/78/266 356/77/266
f 424/77/267 350/76/267 533/80/267
f 525/81/268 530/80/268 534/82/268
f 98/81/269 393/77/269 340/80/269
f 207/83/270 494/78/270 546/84/270
f 463/85/271 418/68/271 3/86/271
f 421/68/272 184/69/272 150/86/272
f 418/85/273 463/86/273 1/84/273
f 546/79/274 149/84/274 336/78/274
f 330/83/275 361/84/275 85/86/275
f 526/87/276 453/74/276 192/71/276
f 423/88/277 396/89/277 286/90/277
f 455/89/278 364/91/278 213/90/278
f 304/92/279 295/90/279 376/58/279
f 281/92/280 506/58/280 240/93/280
f 87/88/281 506/90/281 328/92/281
f 250/89/282 376/80/282 295/91/282
f 235/76/283 238/78/283 237/94/283
f 377/78/284 501/7/284 252/94/284
f 478/76/285 474/94/285 401/80/285
f 326/80/286 42/95/286 316/91/286
f 350/95/287 156/80/287 533/94/287
f 407/96/288 442/97/288 439/98/288
f 84/96/289 339/99/289 37/97/289
f 227/51/290 235/98/290 229/97/290
f 226/87/290 235/98/290 227/74/290
f 465/98/291 93/51/291 189/74/291
f 235/99/290 231/100/290 229/97/290
f 423/101/292 265/93/292 244/102/292
f 231/101/293 234/92/293 232/93/293
f 442/103/294 356/102/294 336/93/294
f 502/99/295 87/102/295 522/100/295
f 325/102/296 451/103/296 507/100/296
f 313/79/297 485/77/297 535/104/297
f 439/84/298 251/79/298 49/104/298
f 186/77/299 39/81/299 146/104/299
f 532/82/300 308/105/300 35/104/300
f 156/81/301 355/82/301 533/104/301
f 332/85/302 47/84/302 8/104/302
f 351/63/303 374/106/303 460/64/303
f 183/106/304 94/70/304 443/64/304
f 194/63/305 189/65/305 273/104/305
f 498/68/306 194/85/306 27/104/306
f 540/65/307 92/68/307 52/104/307
f 360/107/308 536/108/308 348/104/308
f 508/109/309 94/107/309 88/104/309
f 317/108/310 469/110/310 230/104/310
f 154/106/311 492/63/311 537/104/311
f 295/110/312 352/106/312 303/104/312
f 24/111/313 160/109/313 441/104/313
f 13/112/314 384/113/314 257/104/314
f 544/105/315 427/112/315 30/104/315
f 249/113/316 298/114/316 325/104/316
f 350/115/317 464/111/317 413/104/317
f 511/114/318 319/115/318 400/104/318
f 223/70/290 235/106/290 226/73/290
f 378/113/319 540/101/319 394/102/319
f 231/101/320 235/113/320 234/92/320
f 215/114/321 19/113/321 370/102/321
f 243/99/322 343/115/322 470/102/322
f 494/114/323 403/102/323 44/115/323
f 144/112/324 157/92/324 297/113/324
f 544/82/325 30/89/325 312/105/325
f 150/89/326 406/82/326 145/80/326
f 529/88/327 523/105/327 422/89/327
f 184/112/328 517/105/328 298/92/328
f 247/105/329 352/88/329 380/92/329
f 362/108/330 534/107/330 530/71/330
f 313/107/331 417/87/331 209/71/331
f 487/108/332 186/71/332 339/73/332
f 347/110/333 21/73/333 148/106/333
f 14/110/334 387/108/334 470/73/334
f 2/87/335 482/107/335 12/98/335
f 335/96/336 454/111/336 49/99/336
f 344/115/337 213/99/337 364/111/337
f 364/111/338 455/96/338 358/98/338
f 428/109/339 183/98/339 250/107/339
f 506/109/340 491/111/340 328/98/340
f 241/116/341 235/69/341 242/117/341
f 399/69/342 525/116/342 476/86/342
f 32/67/343 196/117/343 309/69/343
f 367/64/344 366/11/344 368/117/344
f 235/67/293 223/64/293 242/117/293
f 320/83/345 503/118/345 488/78/345
f 158/7/346 527/78/346 371/118/346
f 238/83/347 235/86/347 239/118/347
f 161/119/348 532/86/348 35/116/348
f 235/86/349 241/119/349 239/118/349
f 427/120/350 190/121/350 40/122/350
f 204/121/351 214/120/351 39/123/351
f 59/123/352 326/120/352 316/124/352
f 510/125/353 191/126/353 17/127/353
f 516/121/354 355/123/354 378/128/354
f 430/129/355 459/130/355 228/124/355
f 481/129/356 271/131/356 324/132/356
f 19/131/357 297/120/357 363/122/357
f 326/129/358 518/133/358 246/130/358
f 469/130/359 386/133/359 457/134/359
f 282/133/360 75/129/360 449/132/360
f 337/135/361 433/126/361 473/125/361
f 23/136/362 528/137/362 152/138/362
f 146/138/363 39/139/363 342/136/363
f 17/137/364 432/136/364 157/140/364
f 194/141/365 273/140/365 13/142/365
f 379/140/366 154/141/366 316/137/366
f 248/143/367 155/144/367 388/145/367
f 153/137/368 503/146/368 446/147/368
f 433/147/369 385/138/369 286/137/369
f 386/146/370 502/137/370 457/141/370
f 540/148/371 378/143/371 92/145/371
f 183/142/372 15/143/372 279/148/372
f 370/120/373 278/129/373 320/124/373
f 530/149/374 251/150/374 221/151/374
f 2/150/375 12/149/375 5/152/375
f 251/152/376 149/149/376 221/126/376
f 444/149/377 397/153/377 478/154/377
f 62/150/378 151/152/378 500/155/378
f 219/150/379 257/156/379 384/151/379
f 21/157/380 319/158/380 349/128/380
f 284/158/381 84/156/381 202/159/381
f 393/150/382 152/160/382 528/156/382
f 295/156/383 260/160/383 250/159/383
f 189/160/384 47/150/384 273/155/384
f 263/153/385 182/149/385 401/151/385
f 317/153/386 328/123/386 469/124/386
f 275/123/387 197/153/387 281/157/387
f 197/157/388 506/153/388 281/151/388
f 413/129/389 272/120/389 495/131/389
f 402/123/390 217/157/390 36/128/390
f 300/154/391 293/161/391 333/126/391
f 373/149/392 218/154/392 458/126/392
f 412/154/393 148/153/393 497/124/393
f 9/154/394 360/130/394 348/161/394
f 377/161/395 249/130/395 127/134/395
f 538/130/396 190/154/396 201/124/396
f 139/162/397 95/163/397 521/164/397
f 524/163/398 441/162/398 160/165/398
f 525/162/399 399/164/399 280/166/399
f 452/167/400 75/166/400 437/168/400
f 286/167/401 55/162/401 265/166/401
f 148/169/402 412/165/402 427/162/402
f 279/164/403 72/170/403 376/171/403
f 18/164/404 521/163/404 95/170/404
f 1/166/405 199/164/405 93/171/405
f 149/168/406 251/166/406 82/172/406
f 528/166/407 23/171/407 277/172/407
f 36/173/408 210/167/408 29/168/408
f 397/174/409 84/175/409 478/176/409
f 319/176/410 160/175/410 24/177/410
f 534/174/411 371/176/411 525/178/411
f 405/179/412 480/178/412 156/180/412
f 245/179/413 489/174/413 409/178/413
f 405/177/414 350/175/414 413/181/414
f 465/182/415 418/183/415 93/184/415
f 354/183/416 52/170/416 195/184/416
f 443/181/417 94/185/417 340/177/417
f 492/186/418 355/181/418 410/175/418
f 462/178/419 67/176/419 448/187/419
f 537/170/420 481/163/420 316/188/420
f 444/189/421 246/140/421 397/136/421
f 187/136/422 84/190/422 397/189/422
f 191/140/423 188/189/423 10/191/423
f 519/189/424 385/192/424 504/193/424
f 524/191/425 233/189/425 151/193/425
f 208/190/426 75/136/426 366/139/426
f 329/142/427 485/191/427 266/143/427
f 6/140/428 289/191/428 145/142/428
f 93/191/429 8/193/429 189/143/429
f 517/193/430 195/194/430 377/144/430
f 21/143/431 536/193/431 360/144/431
f 472/193/432 365/192/432 487/194/432
f 314/171/433 528/183/433 277/182/433
f 448/171/434 22/170/434 25/183/434
f 92/172/435 378/171/435 420/182/435
f 12/188/436 188/163/436 5/195/436
f 429/165/437 314/195/437 288/163/437
f 373/170/438 262/188/438 428/184/438
f 488/142/439 343/148/439 459/146/439
f 37/146/440 296/141/440 345/142/440
f 18/148/441 369/147/441 357/146/441
f 98/195/442 531/184/442 393/188/442
f 272/148/443 208/145/443 366/147/443
f 456/196/444 270/197/444 26/198/444
f 329/199/445 266/200/445 208/201/445
f 424/196/446 412/202/446 200/197/446
f 504/202/447 340/203/447 393/204/447
f 196/202/448 16/204/448 309/197/448
f 501/201/449 377/205/449 526/199/449
f 283/206/450 437/196/450 300/199/450
f 326/199/451 444/196/451 182/198/451
f 298/207/452 356/206/452 198/199/452
f 442/200/453 251/199/453 439/208/453
f 507/199/454 484/198/454 325/208/454
f 7/209/455 91/210/455 411/211/455
f 460/209/456 100/212/456 62/213/456
f 143/212/457 526/209/457 294/211/457
f 153/213/458 359/214/458 387/209/458
f 369/213/459 158/215/459 357/216/459
f 383/214/460 471/213/460 416/216/460
f 348/211/461 309/217/461 308/212/461
f 485/218/462 28/214/462 535/219/462
f 274/210/463 225/209/463 498/214/463
f 4/214/464 19/216/464 363/219/464
f 299/216/465 436/220/465 152/221/465
f 385/219/466 519/216/466 286/221/466
f 64/207/467 269/222/467 442/223/467
f 222/204/468 299/224/468 486/225/468
f 346/197/469 358/204/469 455/225/469
f 310/198/470 391/197/470 249/226/470
f 47/208/471 384/198/471 13/226/471
f 509/197/472 505/225/472 517/226/472
f 7/227/473 246/224/473 518/204/473
f 23/228/474 435/229/474 305/202/474
f 357/202/475 33/196/475 521/228/475
f 517/203/476 325/202/476 298/229/476
f 139/204/477 201/203/477 529/227/477
f 96/229/478 527/227/478 158/203/478
f 489/226/479 245/230/479 462/208/479
f 277/205/480 305/231/480 101/232/480
f 443/199/481 15/205/481 183/232/481
f 160/207/482 347/199/482 408/232/482
f 145/206/483 301/207/483 255/223/483
f 500/232/484 233/222/484 22/207/484
f 1/201/485 253/233/485 291/231/485
f 483/230/486 379/234/486 42/200/486
f 399/200/487 515/208/487 145/230/487
f 94/201/488 98/200/488 340/233/488
f 190/205/489 523/201/489 529/231/489
f 221/200/490 44/234/490 403/233/490
f 518/235/491 91/236/491 7/132/491
f 372/131/492 313/235/492 458/132/492
f 149/236/493 44/235/493 221/237/493
f 361/158/494 10/238/494 188/239/494
f 196/132/495 482/236/495 16/240/495
f 423/235/496 244/241/496 259/237/496
f 3/121/497 418/241/497 225/122/497
f 157/241/498 332/239/498 83/237/498
f 346/239/499 345/121/499 358/128/499
f 285/241/500 502/131/500 522/122/500
f 212/131/501 381/241/501 41/235/501
f 443/238/502 142/158/502 15/159/502
f 228/160/503 459/242/503 243/159/503
f 15/242/504 72/160/504 279/240/504
f 99/240/505 47/160/505 432/155/505
f 11/156/506 496/157/506 542/151/506
f 19/157/507 144/156/507 297/158/507
f 270/236/508 456/242/508 129/240/508
f 314/158/509 161/239/509 35/128/509
f 296/239/510 381/238/510 345/237/510
f 395/236/511 400/238/511 538/242/511
f 271/242/512 537/238/512 156/159/512
f 527/238/513 394/236/513 354/237/513
f 453/239/514 92/241/514 420/121/514
f 497/215/515 148/243/515 360/244/515
f 139/245/516 467/243/516 201/215/516
f 143/243/517 501/246/517 526/244/517
f 4/210/518 363/214/518 185/218/518
f 546/211/519 475/210/519 207/218/519
f 293/213/520 282/245/520 449/215/520
f 123/215/521 510/244/521 17/220/521
f 487/216/522 339/215/522 187/220/522
f 501/217/523 447/247/523 336/245/523
f 474/245/524 284/213/524 202/212/524
f 129/245/525 479/212/525 482/217/525
f 31/218/526 435/219/526 23/211/526
f 378/246/527 355/243/527 492/248/527
f 526/243/528 192/245/528 263/248/528
f 204/249/529 186/211/529 258/219/529
f 464/250/530 200/249/530 497/221/530
f 149/219/531 82/221/531 336/249/531
f 28/248/532 9/245/532 535/247/532
f 240/251/533 486/250/533 508/220/533
f 294/250/534 276/221/534 143/220/534
f 421/251/535 255/220/535 542/244/535
f 219/246/536 214/252/536 257/244/536
f 161/252/537 314/251/537 277/244/537
f 336/253/538 249/254/538 252/255/538
f 429/256/539 393/253/539 528/255/539
f 404/257/540 428/256/540 461/255/540
f 299/258/541 222/259/541 31/260/541
f 520/261/542 216/256/542 543/257/542
f 477/260/543 219/259/543 99/262/543
f 215/263/544 370/264/544 123/265/544
f 341/265/545 338/266/545 368/263/545
f 135/267/546 322/265/546 524/264/546
f 236/268/547 86/267/547 34/269/547
f 267/267/548 488/264/548 311/269/548
f 510/270/549 5/271/549 191/272/549
f 16/259/550 479/261/550 434/257/550
f 456/253/551 429/273/551 288/254/551
f 193/259/552 101/257/552 275/274/552
f 10/273/553 99/275/553 432/276/553
f 306/276/554 302/275/554 398/277/554
f 394/278/555 516/268/555 378/269/555
f 202/270/556 345/260/556 346/271/556
f 363/279/557 270/270/557 129/272/557
f 1/270/558 463/258/558 337/260/558
f 345/280/559 202/268/559 37/281/559
f 527/268/560 96/278/560 394/281/560
f 330/266/561 85/279/561 349/263/561
f 539/282/562 475/283/562 447/262/562
f 469/282/563 490/262/563 471/274/563
f 182/284/564 478/285/564 401/286/564
f 75/283/565 452/285/565 366/284/565
f 300/286/566 415/287/566 283/284/566
f 147/274/567 97/288/567 90/282/567
f 442/255/568 82/289/568 251/257/568
f 267/278/569 470/269/569 343/290/569
f 309/289/570 348/291/570 32/257/570
f 33/274/571 212/257/571 41/291/571
f 433/291/572 286/288/572 396/274/572
f 511/284/573 206/262/573 349/283/573
f 213/292/574 344/289/574 362/255/574
f 418/293/575 465/292/575 225/255/575
f 263/276/576 302/254/576 526/273/576
f 328/259/577 491/274/577 386/262/577
f 261/276/578 272/293/578 413/254/578
f 273/293/579 47/255/579 13/254/579
f 504/294/580 385/287/580 340/286/580
f 89/286/581 310/295/581 249/294/581
f 407/294/582 64/295/582 442/296/582
f 28/296/583 329/297/583 261/298/583
f 422/296/584 523/298/584 427/294/584
f 354/286/585 540/285/585 52/299/585
f 275/300/586 101/286/586 197/299/586
f 9/299/587 28/285/587 360/301/587
f 420/301/588 378/283/588 154/302/588
f 11/285/589 290/283/589 292/301/589
f 31/295/590 513/286/590 87/300/590
f 329/297/591 208/296/591 272/303/591
f 471/304/592 383/297/592 230/303/592
f 276/303/593 294/296/593 302/305/593
f 254/305/594 49/295/594 147/300/594
f 359/296/595 243/295/595 387/305/595
f 387/283/596 311/282/596 153/302/596
f 38/306/597 322/307/597 440/308/597
f 464/307/598 424/306/598 200/309/598
f 274/309/599 204/306/599 258/310/599
f 408/309/600 211/311/600 160/312/600
f 210/307/601 214/309/601 219/313/601
f 88/291/602 240/289/602 508/314/602
f 436/282/603 299/288/603 31/315/603
f 438/302/604 243/282/604 359/315/604
f 521/315/605 33/288/605 139/316/605
f 484/316/606 287/291/606 325/314/606
f 528/288/607 314/291/607 429/316/607
f 320/317/608 278/297/608 503/304/608
f 442/318/609 336/280/609 82/281/609
f 200/319/610 412/320/610 497/318/610
f 456/318/611 26/320/611 429/280/611
f 252/314/612 501/289/612 336/321/612
f 20/317/613 262/322/613 535/319/613
f 439/317/614 49/319/614 454/318/614
f 249/275/615 325/319/615 287/277/615
f 515/320/616 399/319/616 476/275/616
f 433/319/617 337/322/617 385/277/617
f 360/281/618 28/297/618 261/317/618
f 292/317/619 389/318/619 11/281/619
f 183/289/620 88/292/620 94/321/620
f 448/277/621 100/322/621 374/323/621
f 380/324/622 425/277/622 247/323/622
f 480/323/623 405/322/623 413/325/623
f 142/325/624 385/317/624 205/304/624
f 415/322/625 426/317/625 283/325/625
f 38/276/626 440/277/626 462/324/626
f 148/292/627 544/293/627 347/326/627
f 72/321/628 304/292/628 376/326/628
f 479/326/629 456/293/629 288/327/629
f 197/327/630 305/276/630 491/324/630
f 486/293/631 299/276/631 531/327/631
f 463/328/632 3/329/632 247/139/632
f 357/328/633 344/139/633 364/138/633
f 203/139/634 132/329/634 228/190/634
f 230/329/635 416/330/635 317/192/635
f 266/330/636 293/194/636 449/192/636
f 435/328/637 124/138/637 305/147/637
f 512/331/638 417/332/638 271/333/638
f 205/334/639 425/331/639 142/333/639
f 96/333/640 355/332/640 516/335/640
f 421/336/641 496/337/641 184/338/641
f 95/332/642 139/339/642 529/335/642
f 245/340/643 524/184/643 151/195/643
f 464/341/644 350/162/644 424/167/644
f 373/169/645 260/162/645 218/341/645
f 529/173/646 422/341/646 533/167/646
f 478/342/647 182/343/647 444/181/647
f 272/184/648 366/344/648 367/182/648
f 377/340/649 195/165/649 526/169/649
f 415/344/650 414/173/650 69/172/650
f 161/172/651 193/182/651 532/344/651
f 39/340/652 186/195/652 204/165/652
f 192/341/653 420/340/653 483/169/653
f 205/168/654 463/172/654 247/173/654
f 72/345/655 380/331/655 304/334/655
f 1/346/656 26/179/656 199/347/656
f 544/346/657 148/348/657 427/179/657
f 458/177/658 313/185/658 535/176/658
f 339/338/659 84/349/659 187/336/659
f 250/187/660 183/176/660 376/185/660
f 339/348/661 186/174/661 146/179/661
f 96/186/662 516/350/662 394/351/662
f 123/347/663 370/179/663 320/180/663
f 211/350/664 408/186/664 322/348/664
f 448/348/665 38/175/665 462/174/665
f 348/175/666 85/348/666 32/186/666
f 129/336/667 185/352/667 363/337/667
f 340/353/668 385/333/668 142/354/668
f 25/334/669 38/333/669 448/353/669
f 305/333/670 277/335/670 23/354/670
f 444/331/671 326/345/671 246/349/671
f 411/349/672 295/355/672 303/331/672
f 151/352/673 233/334/673 500/353/673
f 185/353/674 129/354/674 482/337/674
f 265/352/675 86/353/675 244/337/675
f 219/345/676 29/336/676 210/349/676
f 93/345/677 199/334/677 8/352/677
f 387/336/678 267/345/678 311/352/678
f 31/356/679 222/272/679 513/287/679
f 36/272/680 217/271/680 342/287/680
f 441/294/681 524/356/681 245/287/681
f 220/290/682 389/298/682 256/278/682
f 519/290/683 504/356/683 55/294/683
f 489/271/684 312/284/684 40/287/684
f 412/350/685 422/346/685 427/357/685
f 201/192/686 327/190/686 395/329/686
f 305/350/687 124/348/687 491/346/687
f 293/284/688 323/260/688 333/262/688
f 101/271/689 305/260/689 197/284/689
f 306/298/690 539/290/690 447/294/690
f 1/358/691 93/359/691 418/356/691
f 245/358/692 151/356/692 462/290/692
f 389/264/693 520/359/693 543/358/693
f 370/269/694 203/358/694 278/290/694
f 20/358/695 348/269/695 308/264/695
f 409/359/696 40/264/696 190/263/696
f 430/281/697 5/278/697 510/297/697
f 325/278/698 517/298/698 451/297/698
f 352/359/699 247/272/699 365/356/699
f 531/359/700 152/263/700 393/279/700
f 297/272/701 83/359/701 270/279/701
f 331/189/702 253/190/702 473/192/702
f 367/347/703 368/360/703 338/346/703
f 545/361/704 457/351/704 285/350/704
f 5/362/705 188/360/705 191/347/705
f 490/360/706 545/357/706 471/346/706
f 448/357/707 67/361/707 100/350/707
f 317/363/708 416/362/708 514/347/708
f 21/180/709 347/178/709 319/187/709
f 348/181/710 536/343/710 85/185/710
f 522/342/711 87/186/711 514/351/711
f 334/180/712 522/363/712 514/347/712
f 400/342/713 24/181/713 538/186/713
f 84/343/714 284/187/714 478/185/714
f 313/332/715 372/331/715 382/364/715
f 480/364/716 512/331/716 271/355/716
f 271/339/717 156/332/717 480/364/717
f 512/365/718 341/366/718 375/337/718
f 146/366/719 37/338/719 339/337/719
f 307/339/720 406/367/720 445/335/720
f 504/365/721 429/337/721 26/354/721
f 184/343/722 496/180/722 517/187/722
f 55/368/723 291/365/723 265/354/723
f 20/367/724 535/368/724 9/335/724
f 272/368/725 261/354/725 329/335/725
f 430/369/726 510/370/726 459/371/726
f 228/372/727 243/369/727 438/371/727
f 405/373/728 156/372/728 350/371/728
f 27/374/729 194/375/729 13/376/729
f 389/375/730 220/377/730 493/378/730
f 460/370/731 374/369/731 100/379/731
f 472/379/732 187/369/732 397/380/732
f 363/380/733 297/381/733 270/379/733
f 318/382/734 426/383/734 415/384/734
f 195/379/735 496/384/735 354/370/735
f 143/384/736 276/379/736 501/382/736
f 479/375/737 16/378/737 482/376/737
f 499/385/738 331/386/738 396/376/738
f 210/374/739 36/376/739 342/386/739
f 291/387/740 253/388/740 34/389/740
f 255/390/741 421/391/741 145/392/741
f 19/393/742 4/389/742 370/388/742
f 393/386/743 429/394/743 504/374/743
f 457/378/744 545/395/744 490/385/744
f 17/376/745 191/378/745 432/385/745
f 332/383/746 8/382/746 83/394/746
f 417/385/747 313/383/747 382/386/747
f 198/394/748 442/386/748 97/383/748
f 468/396/749 333/382/749 392/379/749
f 333/392/750 414/391/750 415/397/750
f 483/398/751 263/392/751 192/397/751
f 377/344/752 127/397/752 517/391/752
f 132/390/753 2/374/753 430/399/753
f 390/391/754 209/400/754 512/344/754
f 22/377/755 448/392/755 374/398/755
f 423/401/756 259/402/756 224/403/756
f 495/404/757 338/405/757 413/406/757
f 468/407/758 541/328/758 414/408/758
f 356/408/759 249/409/759 336/410/759
f 541/328/760 69/409/760 414/408/760
f 379/374/761 483/394/761 420/399/761
f 298/410/762 406/396/762 184/381/762
f 277/408/763 193/410/763 161/381/763
f 517/407/764 127/408/764 509/380/764
f 324/381/765 271/396/765 417/379/765
f 55/408/766 1/381/766 291/380/766
f 42/399/767 379/396/767 316/410/767
f 510/399/768 320/400/768 459/391/768
f 183/391/769 279/390/769 376/399/769
f 414/399/770 333/394/770 468/396/770
f 29/400/771 477/399/771 206/410/771
f 404/394/772 461/382/772 275/396/772
f 433/366/773 396/365/773 331/404/773
f 94/411/774 508/412/774 98/330/774
f 465/368/775 498/367/775 225/405/775
f 374/404/776 500/365/776 22/368/776
f 368/405/777 323/404/777 341/368/777
f 326/329/778 59/328/778 518/411/778
f 445/413/779 268/194/779 280/330/779
f 341/145/780 323/144/780 375/413/780
f 388/413/781 450/144/781 389/194/781
f 260/330/782 373/329/782 428/411/782
f 293/330/783 300/412/783 437/413/783
f 426/405/784 318/339/784 69/364/784
f 353/342/785 534/401/785 362/403/785
f 432/351/786 47/414/786 332/401/786
f 438/343/787 153/342/787 446/403/787
f 203/341/788 228/410/788 278/409/788
f 348/340/789 20/341/789 9/409/789
f 280/342/790 307/351/790 445/401/790
f 419/364/791 193/402/791 461/405/791
f 287/405/792 89/367/792 249/339/792
f 40/364/793 409/355/793 489/403/793
f 307/403/794 145/402/794 406/364/794
f 210/355/795 39/349/795 214/403/795
f 420/413/796 192/412/796 453/362/796
f 452/415/797 466/416/797 392/417/797
f 193/418/798 419/419/798 532/415/798
f 449/417/799 208/420/799 266/415/799
f 315/421/800 372/419/800 518/422/800
f 315/418/801 324/415/801 382/420/801
f 315/416/802 518/415/802 59/419/802
f 531/392/803 299/375/803 152/374/803
f 244/374/804 86/390/804 259/392/804
f 254/392/805 335/377/805 49/375/805
f 1/423/806 55/424/806 26/425/806
f 7/423/807 472/426/807 246/424/807
f 207/422/808 475/427/808 346/421/808
f 29/360/809 206/362/809 36/428/809
f 25/357/810 22/360/810 233/428/810
f 253/362/811 337/412/811 473/428/811
f 440/363/812 312/180/812 489/413/812
f 329/362/813 28/363/813 485/413/813
f 135/357/814 524/428/814 211/414/814
f 541/427/815 466/422/815 426/423/815
f 463/406/816 385/421/816 337/427/816
f 203/429/817 370/430/817 185/431/817
f 300/361/818 333/357/818 415/414/818
f 328/351/819 386/361/819 469/414/819
f 338/240/820 495/432/820 367/132/820
f 35/433/821 434/132/821 288/432/821
f 18/388/822 96/387/822 369/434/822
f 440/393/823 544/388/823 312/434/823
f 213/387/824 362/435/824 221/434/824
f 21/436/825 360/433/825 148/432/825
f 398/135/826 302/437/826 263/438/826
f 20/438/827 532/439/827 419/135/827
f 306/387/828 276/438/828 302/437/828
f 410/433/829 355/436/829 156/440/829
f 293/437/830 375/435/830 323/387/830
f 219/135/831 477/439/831 29/441/831
f 263/418/832 401/442/832 398/443/832
f 72/443/833 425/419/833 380/418/833
f 224/426/834 499/443/834 396/442/834
f 49/328/835 280/407/835 268/411/835
f 25/442/836 524/444/836 322/426/836
f 452/443/837 437/426/837 466/423/837
f 366/445/838 452/446/838 392/431/838
f 519/135/839 55/441/839 286/447/839
f 154/445/840 378/431/840 492/430/840
f 19/423/841 215/422/841 144/443/841
f 532/422/842 20/419/842 308/443/842
f 465/448/843 194/449/843 498/450/843
f 144/451/844 17/452/844 157/453/844
f 512/454/845 480/452/845 341/451/845
f 30/455/846 40/436/846 312/432/846
f 182/456/847 483/432/847 42/457/847
f 496/432/848 421/456/848 542/455/848
f 323/450/849 368/454/849 392/451/849
f 225/458/850 274/459/850 258/460/850
f 466/459/851 283/458/851 426/461/851
f 525/459/852 49/461/852 530/462/852
f 219/430/853 384/452/853 99/454/853
f 368/454/854 366/445/854 392/430/854
f 59/432/855 316/240/855 481/457/855
f 330/463/856 206/448/856 477/451/856
f 390/453/857 512/463/857 375/451/857
f 265/448/858 291/434/858 86/449/858
f 294/451/859 526/448/859 302/450/859
f 434/434/860 479/435/860 288/449/860
f 209/393/861 417/434/861 512/448/861
f 353/447/862 357/464/862 158/155/862
f 3/155/863 258/135/863 365/447/863
f 75/240/864 282/155/864 293/464/864
f 529/463/865 201/393/865 190/448/865
f 322/464/866 135/457/866 211/240/866
f 394/465/867 540/417/867 354/466/867
f 468/467/868 392/465/868 466/466/868
f 308/401/869 309/467/869 35/402/869
f 97/419/870 445/421/870 198/416/870
f 468/467/871 466/466/871 541/402/871
f 309/468/872 16/467/872 434/401/872
f 410/417/873 537/465/873 492/469/873
f 357/469/874 353/420/874 344/417/874
f 196/470/875 32/469/875 361/465/875
f 153/414/876 438/468/876 359/401/876
f 510/468/877 123/465/877 320/467/877
f 471/417/878 230/416/878 469/466/878
f 319/427/879 347/471/879 160/472/879
f 31/460/880 23/472/880 436/471/880
f 261/472/881 497/406/881 360/427/881
f 488/406/882 459/472/882 320/404/882
f 317/460/883 514/404/883 328/472/883
f 422/471/884 424/427/884 533/423/884
f 495/406/885 272/405/885 367/416/885
f 222/416/886 486/421/886 513/406/886
f 472/466/887 7/416/887 303/402/887
f 361/423/888 330/425/888 99/471/888
f 154/416/889 537/405/889 316/402/889
f 247/420/890 3/469/890 365/473/890
f 408/474/891 347/475/891 544/412/891
f 461/411/892 262/474/892 20/412/892
f 340/428/893 142/412/893 443/476/893
f 278/414/894 446/428/894 503/468/894
f 525/412/895 280/475/895 49/476/895
f 440/372/896 489/373/896 462/475/896
f 327/369/897 217/372/897 402/474/897
f 20/380/898 419/369/898 461/474/898
f 395/407/899 511/380/899 400/411/899
f 411/474/900 91/372/900 260/475/900
f 145/380/901 421/474/901 150/411/901
f 249/428/902 391/476/902 127/468/902
f 539/371/903 474/477/903 475/478/903
f 322/373/904 38/371/904 25/478/904
f 523/478/905 190/477/905 427/465/905
f 190/473/906 538/418/906 409/420/906
f 536/477/907 21/470/907 349/465/907
f 266/429/908 485/453/908 390/452/908
f 286/475/909 265/373/909 423/478/909
f 261/476/910 464/475/910 497/478/910
f 79/468/911 207/476/911 346/478/911
f 338/452/912 341/430/912 480/429/912
f 151/478/913 62/465/913 67/468/913
f 388/479/914 155/480/914 450/134/914
f 433/481/915 331/479/915 473/132/915
f 438/134/916 446/133/916 278/479/916
f 36/127/917 511/134/917 402/480/917
f 411/133/918 260/132/918 295/479/918
f 517/132/919 496/433/919 195/482/919
f 526/161/920 195/134/920 52/127/920
f 464/440/921 261/483/921 413/433/921
f 499/127/922 259/126/922 236/161/922
f 527/482/923 354/481/923 216/132/923
f 293/482/924 437/433/924 75/483/924
f 101/425/925 193/484/925 277/458/925
f 479/485/926 129/486/926 456/487/926
f 333/485/927 323/488/927 392/486/927
f 34/489/928 86/490/928 291/491/928
f 411/487/929 303/489/929 7/485/929
f 434/490/930 35/492/930 309/491/930
f 196/493/931 12/488/931 482/485/931
f 458/471/932 218/458/932 372/460/932
f 283/458/933 466/471/933 437/425/933
f 197/494/934 491/444/934 506/495/934
f 504/485/935 26/495/935 55/493/935
f 3/444/936 225/493/936 258/495/936
f 458/483/937 262/440/937 373/445/937
f 262/418/938 461/496/938 428/442/938
f 355/217/939 96/211/939 533/442/939
f 403/496/940 494/217/940 79/442/940
f 481/135/941 324/125/941 59/437/941
f 259/211/942 86/497/942 236/442/942
f 511/498/943 36/446/943 206/248/943
f 330/217/944 477/496/944 99/247/944
f 280/499/945 399/496/945 307/418/945
