# Blender 5.1.1
# www.blender.org
o Куб.001
v 0.541383 1.169410 0.598196
v 0.532745 2.435119 0.472993
v 0.602258 1.160461 0.085820
v 0.619472 2.369836 -0.234736
v -0.000103 0.998573 -0.324576
v -0.000000 2.480862 -0.357245
v 0.708421 1.780702 0.099681
v 0.613223 1.125820 0.313276
v 0.609568 2.456489 0.116476
v 0.653432 1.754750 0.517888
v 0.003495 0.931394 0.682038
v -0.000000 2.544096 0.544675
v 0.718904 1.790730 0.192240
v 0.000360 0.887940 0.183576
v -0.000000 2.614716 0.130571
v 0.821093 0.221469 -0.199066
v 0.537649 2.221997 -0.537795
v -0.000099 1.087250 -0.582008
v 0.000000 2.280686 -0.622767
v 0.464366 1.217676 -0.588474
v 0.464300 2.022329 -0.746346
v 0.090363 0.728360 3.016510
v -0.000067 1.210299 -0.802340
v -0.000000 2.103516 -0.887623
v 0.561854 1.600975 -0.776629
v -0.000028 1.592364 -0.914975
v 0.084677 1.105014 3.152733
v 0.172094 1.522886 3.025784
v 0.468019 1.257886 0.953830
v 0.502528 2.385821 0.889792
v 0.175772 0.782182 2.821731
v 0.621148 1.720465 0.848486
v 0.006233 0.974527 1.132013
v 0.000076 2.487082 0.979387
v 0.059274 0.704629 3.246871
v 0.033850 0.849971 3.337346
v 0.047665 0.676356 3.130032
v 0.566536 2.559416 1.239688
v 0.550073 0.787016 0.803141
v 0.003989 0.933410 1.478938
v -0.005628 2.646674 1.345358
v 0.118300 1.312944 3.179353
v 0.136209 0.741011 2.931160
v 0.177045 1.740042 2.829645
v 0.578867 2.562850 1.435920
v 0.455572 0.736034 0.835776
v 0.002657 0.975690 1.622050
v -0.002613 2.653132 1.544478
v 0.190837 0.831278 2.711599
v 0.177045 1.886980 2.656591
v 0.177045 0.888794 2.576615
v 0.540927 2.494132 1.719265
v 0.694963 1.759339 1.700301
v 0.555073 0.953135 1.649117
v 0.000879 1.078548 1.777317
v -0.000057 2.587683 1.817999
v 0.181751 2.051615 2.406054
v 0.181751 1.086342 2.259283
v 0.459997 2.243492 2.018503
v 0.563789 1.551958 1.895400
v 0.460349 1.282234 1.872108
v 0.000339 1.167591 1.902451
v -0.000000 2.337218 2.104247
v 0.227768 2.304012 2.071588
v 0.230170 1.215733 1.882393
v 0.270478 2.556454 1.765668
v 0.359236 1.015825 1.604125
v 0.364925 1.996218 2.360084
v 0.446076 1.416505 2.296720
v 0.364925 1.141965 2.212122
v 0.000000 1.051266 2.266122
v 0.000000 2.080713 2.408716
v 0.284504 2.627629 1.479475
v 0.303940 1.021111 1.490420
v 0.277436 2.625950 1.276950
v 0.355746 1.840338 2.611588
v 0.433703 1.346411 2.566866
v 0.355746 0.943308 2.535719
v 0.000000 0.863837 2.560407
v 0.000000 1.915260 2.644453
v 0.306017 1.076470 1.356233
v 0.251467 2.457853 0.911336
v 0.332566 1.164983 1.111615
v 0.372539 1.562317 2.768271
v 0.455708 1.355421 2.711808
v 0.382651 0.887238 2.674294
v 0.000000 0.807625 2.690801
v 0.000000 1.771496 2.812957
v 0.248963 1.603001 -0.873081
v 0.203268 2.083338 -0.852116
v 0.324554 1.188497 -0.565920
v 0.241143 1.293975 3.123832
v 0.339854 1.068967 2.990190
v 0.276080 0.782930 2.898680
v 0.000000 0.735859 2.894886
v 0.000000 1.340396 3.153843
v 0.249692 2.239162 -0.666914
v 0.282810 1.109466 -0.313365
v 0.307155 2.557857 0.092591
v 0.069124 0.853889 3.315494
v 0.125993 0.725509 3.211884
v 0.103346 0.702504 3.130900
v 0.000000 0.664957 3.137285
v 0.064203 0.801751 3.313309
v 0.000000 0.695463 3.240870
v 0.465527 1.386438 2.804354
v 0.000000 0.767589 2.794735
v 0.353261 0.831516 2.785352
v 0.308934 1.015740 0.247290
v 0.000000 1.557277 3.006332
v 0.402860 1.516886 2.846275
v 0.267621 2.510781 0.480969
v 0.000000 1.107726 3.152255
v 0.274316 1.051773 0.598226
v 0.301735 2.444511 -0.401742
v 0.356928 1.076131 -0.012943
v 0.186642 0.763680 2.984782
v 0.000000 0.730429 2.975286
v 0.210413 0.897231 3.101048
v 0.175549 1.075165 3.125242
v 0.070240 0.702765 3.068017
v 0.067630 0.939764 3.252557
v 0.139993 0.722387 3.063330
v 0.161300 0.812299 3.155998
v 0.000000 0.949724 3.242583
v 0.000000 0.698483 3.052425
v 0.134901 0.933574 3.220420
v 0.624027 2.285827 0.990738
v 0.721856 1.707659 0.894566
v 0.669720 1.364238 0.981210
v 0.679964 2.447446 1.239345
v 0.822390 1.694481 1.300457
v 0.826197 1.148357 1.306669
v 0.641839 2.463264 1.420534
v 0.838104 1.722442 1.471592
v 0.835209 1.044014 1.453185
v 0.661575 2.321612 1.604910
v 0.791423 1.759619 1.666302
v 0.764970 0.989878 1.602600
v 0.444289 0.930642 0.900334
v 0.543601 0.995021 0.854961
v 0.755950 0.652170 1.253656
v 0.604718 0.600414 1.282776
v 0.806690 0.713970 1.152396
v 0.420927 0.759369 1.049296
v 0.799982 0.800757 1.053207
v 0.688138 1.011994 0.857070
v 0.423389 0.659057 1.154572
v 0.466021 0.618916 1.249192
v 0.761978 0.491049 1.025420
v 0.613527 0.458988 1.054529
v 0.530827 0.588031 0.396219
v 0.812943 0.554791 0.959807
v 0.432489 0.624614 0.909987
v 0.415347 0.540921 0.429113
v 0.802067 0.634392 0.896288
v 0.687672 0.783145 0.804989
v 0.433186 0.535860 0.984312
v 0.476216 0.485728 1.036042
v 0.443755 0.676370 0.650806
v 0.547916 0.720316 0.618593
v 0.782301 0.434917 0.804603
v 0.620389 0.404464 0.832339
v 0.802123 0.499832 0.748689
v 0.424700 0.571611 0.715697
v 0.792295 0.575458 0.694928
v 0.700654 0.713297 0.615914
v 0.427385 0.484603 0.779443
v 0.471394 0.433042 0.822864
v 0.815648 0.269872 0.564695
v 0.608884 0.238353 0.589097
v 0.647985 0.345345 0.528401
v 0.812825 0.345831 0.521001
v 0.394060 0.427866 0.493755
v 0.638010 0.436954 0.475141
v 0.803728 0.428906 0.470987
v 0.700074 0.579566 0.392469
v 0.398748 0.332916 0.550822
v 0.416543 0.272638 0.584147
v 0.427294 0.609728 0.545143
v 0.411687 0.410572 0.671771
v 0.406877 0.501347 0.610896
v 0.801518 0.502994 0.588990
v 0.810575 0.423566 0.642934
v 0.796494 0.383307 0.740839
v 0.620808 0.346039 0.766024
v 0.702251 0.646809 0.508536
v 0.538759 0.654684 0.511861
v 0.458097 0.383820 0.757200
v 0.611757 0.179189 0.750699
v 0.606992 0.116718 0.649930
v 0.783572 0.149616 0.626253
v 0.445066 0.150286 0.643022
v 0.782360 0.212481 0.727966
v 0.455426 0.213530 0.744237
v 0.762347 2.231061 -0.306153
v 0.786868 1.774340 0.016444
v 0.762446 1.177394 0.006580
v 0.752301 2.094221 -0.517811
v 0.858089 1.657732 -0.455146
v 0.810220 1.185546 -0.252388
v 0.742114 1.930364 -0.683952
v 0.837762 1.603533 -0.672286
v 0.742197 1.216780 -0.526790
v 0.603956 -0.006356 -0.170271
v 0.522860 0.872190 -0.587064
v 0.633364 0.963237 0.031906
v 0.436668 0.940096 -0.033295
v 0.377282 0.901175 -0.296977
v 0.410758 0.874343 -0.540747
v 0.800122 0.915667 -0.286640
v 0.745614 0.878746 -0.544806
v 0.761810 0.953577 -0.043859
v 0.539248 0.655208 -0.527998
v 0.640252 0.561797 0.037771
v 0.461039 0.562042 -0.029322
v 0.406762 0.609812 -0.269966
v 0.437144 0.646590 -0.486956
v 0.791939 0.617599 -0.252662
v 0.742172 0.652130 -0.488295
v 0.757201 0.576711 -0.029893
v 0.546929 -0.003874 -0.405384
v 0.666678 -0.004368 0.050829
v 0.411754 -0.016223 -0.001029
v 0.399498 -0.014984 -0.194850
v 0.433298 -0.008114 -0.372011
v 0.828190 -0.004534 -0.182623
v 0.772790 -0.002932 -0.373801
v 0.833084 -0.002889 -0.003913
v 0.824048 0.231110 -0.020904
v 0.392401 0.210454 -0.210994
v 0.426206 0.209118 -0.388009
v 0.402718 0.217968 -0.017656
v 0.657640 0.231906 0.033717
v 0.539838 0.211850 -0.421448
v 0.765698 0.214253 -0.389937
v 0.782530 0.114818 0.119291
v 0.789564 0.000031 0.134505
v 0.659383 -0.001467 0.189197
v 0.459937 -0.013257 0.137338
v 0.452904 0.101602 0.122571
v 0.652348 0.115949 0.173881
v 0.783090 0.438208 -0.227334
v 0.423861 0.429358 -0.238945
v 0.641583 0.434052 0.001254
v 0.750665 0.436135 -0.052471
v 0.452175 0.437490 -0.409607
v 0.474450 0.424628 -0.049769
v 0.547392 0.441316 -0.441759
v 0.736655 0.442056 -0.411227
v -0.000000 1.964712 -0.963352
v -0.000000 1.715167 -1.003691
v 0.092420 1.728729 -0.965393
v 0.076591 1.955334 -0.937061
v 0.127601 1.707631 -0.912182
v 0.088882 2.048142 -0.898695
v -0.000000 1.692332 -0.956154
v -0.000000 2.059583 -0.930772
v 0.353936 1.703870 2.705983
v 0.462452 1.281944 2.662889
v 0.346085 1.486545 2.971761
v 0.469988 1.226318 2.859076
v 0.431634 1.595626 2.812056
v 0.509515 1.576783 2.826706
v 0.472450 1.600245 2.829674
v 0.537234 1.541910 2.812604
v 0.536419 1.460264 2.772317
v 0.550043 1.501571 2.794167
v 0.514399 1.534424 2.857567
v 0.455471 1.545213 2.861890
v 0.486059 1.549492 2.864697
v 0.527030 1.462640 2.827779
v 0.527210 1.520331 2.850589
v 0.537319 1.492430 2.838490
v 0.372831 1.525697 2.849469
v 0.460350 1.344243 2.788548
v 0.490673 1.572446 2.873369
v 0.529939 1.551363 2.864000
v 0.447174 1.566228 2.869791
v 0.548145 1.531081 2.854706
v 0.562047 1.492492 2.838592
v 0.548125 1.452231 2.823928
v 0.383871 1.502556 2.841695
v 0.450291 1.365127 2.795540
v 0.413090 1.502955 2.830096
v 0.458299 1.408896 2.799857
v 0.473111 1.526493 2.843390
v 0.493557 1.515637 2.838251
v 0.451044 1.523407 2.841362
v 0.502798 1.505480 2.833221
v 0.510091 1.485368 2.824498
v 0.502668 1.463906 2.816782
v 0.399391 1.492674 2.826806
v 0.447307 1.393516 2.793482
v 0.058900 0.866433 3.306978
v 0.055763 0.778320 3.304892
v 0.099802 0.873017 3.279590
v 0.095412 0.784521 3.278330
v 0.000000 0.778061 3.307932
v 0.000000 0.863562 3.310064
v 0.030579 0.798060 3.334506
v 0.000000 0.848300 3.336013
v 0.000000 0.797925 3.333868
v -0.532762 0.907401 0.646151
v -0.532471 2.425427 0.477286
v -0.602593 1.044643 -0.292893
v -0.619420 2.363381 -0.211003
v -0.708746 1.661467 0.000223
v -0.609955 0.886748 0.115652
v -0.609543 2.444010 0.128744
v -0.649234 1.612346 0.514121
v -0.718991 1.654681 0.109781
v -0.820383 0.608931 -1.276278
v -0.537542 2.273178 -0.495176
v -0.464837 1.391274 -0.841964
v -0.464282 2.117590 -0.748246
v -0.090363 0.728360 3.016510
v -0.562179 1.745861 -0.877000
v -0.084677 1.105014 3.152733
v -0.172094 1.522887 3.025784
v -0.443416 1.022884 1.308463
v -0.500002 2.376721 0.889564
v -0.175772 0.782182 2.821731
v -0.609445 1.618770 0.885049
v -0.059274 0.704629 3.246871
v -0.033850 0.849971 3.337346
v -0.047665 0.676356 3.130032
v -0.570340 2.528199 1.239684
v -0.540928 0.456710 1.706472
v -0.118300 1.312944 3.179353
v -0.136209 0.741011 2.931160
v -0.177045 1.740042 2.829645
v -0.583003 2.528340 1.435916
v -0.447126 0.454951 1.767530
v -0.190837 0.831278 2.711599
v -0.177045 1.886980 2.656591
v -0.177045 0.888794 2.576615
v -0.540207 2.469419 1.719261
v -0.658429 1.831254 1.778822
v -0.539720 1.149256 2.058313
v -0.181751 2.051615 2.406054
v -0.181751 1.086342 2.259283
v -0.453436 2.247450 2.003094
v -0.552673 1.624258 1.933315
v -0.453363 1.370817 1.951446
v -0.227127 2.303779 2.071588
v -0.227121 1.262151 1.928941
v -0.271600 2.554620 1.765669
v -0.350633 1.096483 1.809994
v -0.364925 1.996218 2.360084
v -0.444874 1.430529 2.298979
v -0.364925 1.141965 2.212122
v -0.293612 2.618709 1.479477
v -0.293773 1.072117 1.708905
v -0.287349 2.615790 1.276952
v -0.355746 1.840338 2.611588
v -0.433703 1.346411 2.566866
v -0.355746 0.943308 2.535721
v -0.286982 1.081650 1.704036
v -0.250990 2.456718 0.911335
v -0.309346 1.043267 1.477086
v -0.372539 1.562317 2.768271
v -0.455708 1.355424 2.711810
v -0.382651 0.887239 2.674295
v -0.249092 1.652569 -0.902865
v -0.203261 2.101303 -0.850983
v -0.324925 1.324060 -0.801367
v -0.241143 1.293977 3.123833
v -0.339854 1.068967 2.990190
v -0.276080 0.782930 2.898680
v -0.249671 2.255725 -0.659033
v -0.283206 1.138007 -0.582248
v -0.307152 2.556726 0.094147
v -0.069124 0.853889 3.315494
v -0.125993 0.725509 3.211884
v -0.103346 0.702504 3.130900
v -0.064203 0.801751 3.313309
v -0.465527 1.386445 2.804358
v -0.353261 0.831516 2.785352
v -0.307533 0.871705 0.091407
v -0.402860 1.516901 2.846278
v -0.267639 2.510685 0.480969
v -0.266971 0.887322 0.644587
v -0.301712 2.447237 -0.391789
v -0.357314 1.001780 -0.357710
v -0.186642 0.763680 2.984782
v -0.210413 0.897231 3.101048
v -0.175549 1.075165 3.125242
v -0.070240 0.702765 3.068017
v -0.067630 0.939764 3.252557
v -0.139993 0.722387 3.063330
v -0.161300 0.812299 3.155998
v -0.134901 0.933574 3.220420
v -0.611531 2.242576 0.988150
v -0.707331 1.599836 0.952983
v -0.640020 1.090527 1.333661
v -0.672001 2.393378 1.229395
v -0.785138 1.589721 1.466073
v -0.799660 1.119895 1.783613
v -0.636694 2.421340 1.417304
v -0.799079 1.694816 1.609268
v -0.811258 1.146086 1.961602
v -0.641488 2.278513 1.583653
v -0.751743 1.818183 1.753357
v -0.744161 1.193320 2.077493
v -0.424924 0.659177 1.639146
v -0.522482 0.676890 1.559960
v -0.743217 0.738882 2.092905
v -0.593483 0.719177 2.140169
v -0.792715 0.708175 1.976630
v -0.406208 0.651651 1.875429
v -0.784094 0.695123 1.845584
v -0.666658 0.696465 1.553380
v -0.411295 0.660873 2.004449
v -0.454974 0.695354 2.073917
v -0.756114 0.501029 2.074120
v -0.608176 0.500821 2.119037
v -0.545382 -0.002372 1.688726
v -0.806671 0.483501 1.984133
v -0.425672 0.459519 1.902376
v -0.430514 -0.001691 1.747446
v -0.795008 0.471025 1.883146
v -0.678508 0.462672 1.709461
v -0.427278 0.474683 2.017504
v -0.470602 0.492364 2.087759
v -0.445390 0.260730 1.734915
v -0.549078 0.259169 1.679794
v -0.786270 0.295147 2.015013
v -0.624631 0.296393 2.056608
v -0.805916 0.279566 1.932169
v -0.427617 0.265736 1.857669
v -0.795429 0.268531 1.840323
v -0.701961 0.261338 1.682689
v -0.430917 0.278561 1.963166
v -0.475075 0.292705 2.027970
v -0.834927 0.011544 2.045577
v -0.628681 0.008910 2.088039
v -0.666139 0.005995 1.964483
v -0.831008 0.007707 1.957896
v -0.410886 0.000520 1.878160
v -0.654878 0.000882 1.857972
v -0.820816 0.001947 1.860756
v -0.714844 -0.001008 1.692065
v -0.416839 0.006811 1.989159
v -0.435534 0.009496 2.057928
v -0.435475 0.134837 1.742326
v -0.422250 0.149687 1.977802
v -0.416491 0.139335 1.869201
v -0.811363 0.141247 1.852051
v -0.821215 0.150948 1.947326
v -0.804842 0.217014 2.029643
v -0.629808 0.214000 2.075398
v -0.710112 0.134851 1.688592
v -0.546435 0.133106 1.685447
v -0.466273 0.214298 2.041558
v -0.627490 0.124780 2.214961
v -0.628908 0.007045 2.224037
v -0.804935 0.009447 2.181252
v -0.466237 0.007296 2.193385
v -0.797498 0.127806 2.172693
v -0.470357 0.125673 2.184169
v -0.762253 2.220402 -0.262783
v -0.787234 1.671339 -0.101145
v -0.762786 1.094585 -0.357294
v -0.752253 2.157234 -0.502711
v -0.858448 1.728027 -0.584233
v -0.810607 1.226446 -0.581203
v -0.742194 2.052060 -0.708766
v -0.838149 1.753331 -0.800680
v -0.742699 1.383186 -0.804925
v -0.603037 0.518596 -1.487184
v -0.522925 1.119544 -0.992834
v -0.633369 0.862728 -0.451953
v -0.436723 0.873949 -0.512048
v -0.377348 0.982121 -0.742918
v -0.410815 1.095881 -0.952356
v -0.800145 0.998320 -0.737997
v -0.745671 1.101878 -0.960820
v -0.761799 0.896509 -0.520133
v -0.539125 0.967427 -1.008877
v -0.639552 0.484552 -0.857765
v -0.460410 0.544876 -0.880877
v -0.406430 0.776869 -0.915002
v -0.436992 0.937888 -0.989075
v -0.791594 0.763924 -0.902796
v -0.742026 0.941075 -0.986196
v -0.756586 0.550529 -0.865931
v -0.546290 0.745552 -1.550842
v -0.665501 0.307528 -1.421023
v -0.410629 0.354083 -1.448124
v -0.398602 0.540449 -1.502480
v -0.432617 0.712520 -1.545458
v -0.827287 0.531102 -1.489187
v -0.772114 0.715214 -1.541152
v -0.831973 0.360101 -1.436221
v -0.823134 0.440698 -1.218240
v -0.391698 0.618097 -1.290008
v -0.425711 0.787924 -1.339525
v -0.401791 0.434679 -1.229738
v -0.656664 0.388778 -1.202305
v -0.539384 0.820663 -1.345988
v -0.765209 0.790679 -1.335148
v -0.781365 0.275971 -1.288091
v -0.788291 0.228516 -1.392992
v -0.658046 0.175990 -1.378016
v -0.458651 0.222388 -1.404914
v -0.451724 0.269283 -1.300054
v -0.651120 0.224493 -1.270689
v -0.782579 0.694479 -1.075097
v -0.423356 0.702198 -1.084419
v -0.640802 0.474267 -1.012119
v -0.749946 0.525823 -1.027763
v -0.451863 0.856074 -1.120212
v -0.473721 0.520535 -1.036391
v -0.547117 0.884729 -1.126088
v -0.736349 0.858338 -1.116515
v -0.092425 1.733874 -0.967799
v -0.076591 1.955334 -0.937061
v -0.127634 1.725803 -0.919794
v -0.088882 2.048142 -0.898695
v -0.353936 1.703870 2.705983
v -0.462452 1.281945 2.662891
v -0.346085 1.486549 2.971762
v -0.469988 1.226320 2.859077
v -0.431634 1.595646 2.812056
v -0.509515 1.576817 2.826709
v -0.472450 1.600278 2.829675
v -0.537234 1.541947 2.812610
v -0.536419 1.460285 2.772326
v -0.550043 1.501598 2.794175
v -0.514399 1.534453 2.857572
v -0.455471 1.545239 2.861893
v -0.486059 1.549521 2.864701
v -0.527030 1.462663 2.827787
v -0.527210 1.520359 2.850595
v -0.537319 1.492456 2.838497
v -0.372831 1.525702 2.849470
v -0.460350 1.344247 2.788551
v -0.490673 1.572479 2.873371
v -0.529939 1.551395 2.864004
v -0.447174 1.566254 2.869793
v -0.548145 1.531113 2.854712
v -0.562047 1.492520 2.838599
v -0.548125 1.452254 2.823936
v -0.383871 1.502572 2.841698
v -0.450291 1.365131 2.795543
v -0.413090 1.502971 2.830100
v -0.458299 1.408902 2.799860
v -0.473111 1.526517 2.843394
v -0.493557 1.515657 2.838256
v -0.451044 1.523433 2.841367
v -0.502798 1.505503 2.833226
v -0.510091 1.485393 2.824506
v -0.502668 1.463925 2.816789
v -0.399391 1.492689 2.826810
v -0.447307 1.393521 2.793485
v -0.058900 0.866433 3.306978
v -0.055763 0.778320 3.304892
v -0.099802 0.873017 3.279590
v -0.095412 0.784521 3.278330
v -0.030579 0.798060 3.334506
v 0.291561 1.095193 3.026051
v 0.306648 1.161450 3.048145
v 0.269728 1.088967 3.067514
v 0.232186 1.049257 3.061332
v 0.245906 1.097199 3.038142
v 0.291926 1.166538 3.029993
v 0.256597 1.156463 3.097082
v 0.210577 1.087124 3.105232
v 0.195855 1.092212 3.087080
v 0.232775 1.164696 3.067711
v 0.270316 1.204406 3.073893
v 0.210942 1.158469 3.109174
v 0.285805 1.085979 3.043125
v 0.307506 1.128583 3.031740
v 0.294673 1.124923 3.056112
v 0.307720 1.170519 3.034057
v 0.298852 1.131574 3.021071
v 0.263739 1.062638 3.039492
v 0.250905 1.058978 3.063863
v 0.271803 1.090817 3.025861
v 0.236903 1.063816 3.046599
v 0.272017 1.132753 3.028178
v 0.295019 1.192777 3.059861
v 0.286365 1.195768 3.049191
v 0.265254 1.121992 3.084876
v 0.286955 1.164597 3.073491
v 0.216138 1.057895 3.086033
v 0.238204 1.081235 3.089667
v 0.215548 1.089065 3.061733
v 0.207484 1.060885 3.075363
v 0.264299 1.172427 3.045558
v 0.237249 1.131670 3.050348
v 0.265600 1.189846 3.088626
v 0.230486 1.120909 3.107047
v 0.194783 1.083143 3.101167
v 0.207830 1.128739 3.079113
v 0.251598 1.194685 3.071362
v 0.230700 1.162845 3.109363
v 0.238764 1.191024 3.095733
v 0.203650 1.122088 3.114154
v 0.194997 1.125079 3.103484
v 0.216698 1.167684 3.092100
v -0.291561 1.095193 3.026051
v -0.306648 1.161450 3.048145
v -0.269728 1.088966 3.067514
v -0.232186 1.049256 3.061332
v -0.245906 1.097199 3.038143
v -0.291925 1.166538 3.029993
v -0.256597 1.156463 3.097082
v -0.210577 1.087124 3.105232
v -0.195854 1.092212 3.087080
v -0.232775 1.164696 3.067711
v -0.270316 1.204405 3.073893
v -0.210942 1.158469 3.109174
v -0.285805 1.085978 3.043125
v -0.307506 1.128583 3.031741
v -0.294673 1.124923 3.056112
v -0.307720 1.170519 3.034058
v -0.298852 1.131574 3.021071
v -0.263739 1.062637 3.039492
v -0.250905 1.058977 3.063863
v -0.271803 1.090817 3.025861
v -0.236903 1.063816 3.046599
v -0.272017 1.132753 3.028178
v -0.295019 1.192777 3.059861
v -0.286365 1.195767 3.049192
v -0.265254 1.121992 3.084877
v -0.286955 1.164597 3.073492
v -0.216137 1.057894 3.086033
v -0.238204 1.081235 3.089667
v -0.215548 1.089065 3.061733
v -0.207484 1.060885 3.075363
v -0.264299 1.172427 3.045558
v -0.237249 1.131670 3.050349
v -0.265599 1.189846 3.088626
v -0.230486 1.120909 3.107047
v -0.194782 1.083143 3.101167
v -0.207830 1.128738 3.079113
v -0.251597 1.194684 3.071362
v -0.230700 1.162845 3.109364
v -0.238764 1.191024 3.095733
v -0.203650 1.122088 3.114154
v -0.194997 1.125079 3.103485
v -0.216698 1.167684 3.092100
vn -0.8713 -0.4433 0.2106
vn 0.3819 0.7419 -0.5511
vn 0.9825 -0.1685 -0.0788
vn 0.9888 0.1455 -0.0330
vn 0.9592 0.1832 0.2155
vn 0.9666 -0.1331 0.2190
vn 0.9627 -0.2144 0.1651
vn 0.5150 -0.8330 0.2023
vn 0.3695 -0.9169 -0.1506
vn 0.3473 -0.9216 0.1735
vn 0.1145 0.9632 -0.2431
vn 0.1793 0.9721 0.1514
vn 0.3804 0.6259 -0.6808
vn 0.2594 -0.4380 -0.8608
vn 0.3622 -0.8994 -0.2448
vn 0.6899 0.4373 0.5769
vn 0.3409 0.1072 -0.9340
vn 0.1678 -0.5233 -0.8355
vn 0.3018 0.1015 -0.9479
vn 0.2944 -0.8879 -0.3534
vn 0.7686 0.6394 0.0199
vn 0.9969 -0.0173 -0.0773
vn 0.1505 0.9804 0.1274
vn 0.9794 0.1744 0.1014
vn 0.3106 -0.2944 -0.9038
vn 0.0757 0.9969 -0.0221
vn -0.0189 0.9127 -0.4083
vn -0.7060 0.1638 -0.6890
vn 0.6072 0.1910 -0.7712
vn 0.1476 0.9601 0.2374
vn -0.9690 -0.2079 -0.1336
vn 0.9261 0.1711 -0.3363
vn 0.0144 0.7938 -0.6080
vn 0.8290 -0.2230 0.5128
vn -0.0519 -0.6984 0.7139
vn 0.4741 -0.8734 0.1117
vn 0.3806 -0.9074 -0.1784
vn 0.3947 -0.9133 0.1001
vn 0.3061 -0.6762 0.6701
vn 0.6965 0.5575 -0.4518
vn 0.3276 0.9198 -0.2158
vn 0.9290 -0.3428 0.1396
vn 0.2314 -0.9250 -0.3015
vn 0.2918 0.9473 0.1326
vn 0.2050 0.7387 0.6421
vn 0.0969 0.7953 -0.5984
vn 0.8723 0.1102 0.4764
vn 0.4689 -0.1804 0.8646
vn 0.8400 0.1198 -0.5292
vn 0.3940 -0.3990 -0.8280
vn 0.9857 0.1360 0.0997
vn 0.9745 0.0086 -0.2243
vn 0.1700 0.7648 0.6214
vn 0.4307 -0.8857 -0.1731
vn 0.9440 0.0908 0.3172
vn 0.2796 0.9513 0.1301
vn 0.2165 0.9760 -0.0230
vn 0.9790 0.1931 0.0652
vn 0.1774 0.8792 -0.4422
vn 0.0755 0.7594 0.6463
vn 0.1307 -0.8446 -0.5193
vn 0.9739 -0.2179 -0.0633
vn 0.2505 0.9346 0.2524
vn 0.1166 0.8212 0.5586
vn -0.0037 0.5767 0.8169
vn 0.2819 -0.9585 -0.0417
vn 0.8386 -0.3279 0.4350
vn 0.2122 -0.9399 -0.2675
vn 0.1815 -0.7709 0.6105
vn 0.1833 -0.8980 -0.4001
vn 0.9334 -0.1768 -0.3123
vn 0.1218 -0.9406 0.3170
vn 0.8717 -0.4812 0.0923
vn 0.3324 -0.9260 -0.1789
vn 0.1702 -0.9386 -0.3002
vn 0.2995 0.7027 0.6454
vn 0.3446 0.7191 0.6034
vn 0.7586 0.0174 0.6513
vn 0.4509 0.6111 0.6506
vn 0.1537 -0.8368 -0.5255
vn 0.1859 -0.9518 0.2440
vn 0.8837 -0.0558 0.4647
vn 0.3499 0.7852 0.5110
vn 0.3816 0.4588 0.8024
vn 0.1217 -0.9444 -0.3055
vn 0.4144 0.5061 0.7564
vn 0.1593 -0.9044 -0.3959
vn 0.5346 -0.0827 0.8410
vn 0.1479 -0.9234 -0.3541
vn 0.3937 -0.9041 0.1662
vn -0.3041 -0.4696 0.8288
vn -0.0092 0.6075 0.7942
vn 0.1792 -0.9025 -0.3917
vn 0.9706 -0.2402 -0.0180
vn 0.0310 -0.6241 0.7807
vn 0.0494 0.6690 0.7416
vn 0.6301 -0.0931 0.7709
vn 0.1441 -0.9171 -0.3717
vn -0.1346 -0.0531 0.9895
vn 0.4470 0.6454 0.6194
vn 0.3324 -0.1325 0.9338
vn 0.0463 -0.9943 -0.0957
vn 0.3308 -0.9398 0.0862
vn 0.7809 -0.4004 0.4795
vn 0.4028 0.4358 0.8049
vn 0.1485 -0.9112 -0.3843
vn 0.8472 0.0162 0.5310
vn -0.0169 0.5076 0.8614
vn 0.2233 -0.9087 -0.3527
vn 0.8796 -0.4073 0.2458
vn 0.9309 -0.0876 -0.3546
vn 0.9741 0.2234 0.0342
vn 0.9472 0.1780 -0.2668
vn 0.9580 0.2517 0.1375
vn 0.9970 0.0015 -0.0772
vn 0.9467 -0.0373 0.3198
vn 0.6424 0.1651 0.7484
vn 0.8539 0.4614 0.2408
vn -0.3200 -0.6907 0.6485
vn 0.2640 -0.0978 0.9595
vn 0.0029 0.2314 -0.9728
vn 0.8944 -0.3429 0.2871
vn -0.9860 0.0329 -0.1636
vn -0.9985 -0.0458 -0.0307
vn 0.9970 0.0673 -0.0389
vn 0.3224 -0.7842 0.5302
vn 0.9014 -0.3269 0.2839
vn -0.8217 -0.4977 0.2777
vn -0.0392 0.3353 -0.9413
vn -0.9566 -0.1723 -0.2350
vn 0.9134 -0.3890 0.1202
vn -0.9821 0.1881 -0.0051
vn -0.9995 0.0062 0.0324
vn 0.9943 0.0787 -0.0714
vn 0.2349 -0.9396 0.2491
vn 0.8443 0.5109 -0.1616
vn -0.8691 -0.4310 0.2429
vn -0.2317 -0.8304 0.5067
vn -0.4760 0.2248 -0.8502
vn 0.8821 0.2230 -0.4149
vn 0.0318 0.8648 -0.5011
vn 0.9972 -0.0052 0.0750
vn -0.9834 0.1815 -0.0063
vn -0.9949 0.0124 0.0997
vn 0.9955 0.0876 -0.0369
vn 0.9795 -0.1297 0.1541
vn 0.0342 0.9390 -0.3422
vn -0.8184 -0.5525 0.1582
vn -0.2064 -0.9503 0.2331
vn -0.4850 0.8329 -0.2665
vn -0.0483 -0.4891 -0.8709
vn -0.0323 -0.4905 -0.8708
vn -0.0491 -0.5113 -0.8580
vn -0.0446 -0.4864 -0.8726
vn -0.0585 -0.4835 -0.8734
vn -0.0417 -0.5118 -0.8581
vn -0.9166 -0.2368 0.3220
vn -0.9747 -0.0520 0.2175
vn -0.4439 0.7896 -0.4236
vn 0.8548 0.4443 -0.2681
vn 0.8613 0.4446 -0.2459
vn -0.4528 0.7803 -0.4314
vn -0.1968 -0.7503 0.6312
vn -0.8538 -0.3460 0.3889
vn 0.2463 -0.7261 0.6419
vn 0.9928 0.1200 -0.0014
vn -0.9911 0.0459 0.1252
vn -0.9794 0.1996 0.0297
vn 0.9826 -0.0593 0.1760
vn 0.0301 0.8502 -0.5257
vn 0.2264 -0.8300 0.5098
vn -0.1983 -0.8254 0.5286
vn 0.1550 -0.0928 0.9835
vn -0.0370 -0.4470 -0.8938
vn -0.0660 -0.0812 0.9945
vn -0.0552 -0.4447 -0.8940
vn 0.9871 0.1570 0.0301
vn 0.9605 -0.2261 -0.1621
vn 0.9854 -0.0367 0.1660
vn 0.9507 0.2307 -0.2070
vn 0.5635 -0.0765 0.8226
vn 0.4749 0.7314 -0.4893
vn 0.9838 -0.0509 0.1718
vn 0.3894 0.6161 -0.6846
vn -0.9735 -0.0682 0.2182
vn -0.3577 -0.2619 -0.8964
vn -0.3319 -0.0014 0.9433
vn 0.9879 -0.0077 0.1550
vn 0.2027 0.0421 -0.9783
vn -0.2531 -0.0943 -0.9628
vn -0.9260 -0.3342 -0.1755
vn -0.2688 -0.2938 0.9173
vn -0.2789 -0.0800 -0.9570
vn -0.9446 -0.0140 0.3278
vn 0.9992 0.0334 -0.0230
vn -0.9811 -0.0451 -0.1880
vn 0.5041 0.0235 0.8633
vn 0.1853 -0.2427 -0.9522
vn 0.9769 -0.0572 -0.2060
vn -0.9821 -0.1273 -0.1389
vn 0.0097 -0.9999 0.0074
vn 0.0456 -0.9989 -0.0064
vn 0.0397 -0.9989 -0.0249
vn 0.0066 -0.9999 -0.0113
vn -0.9978 -0.0308 0.0587
vn 0.9452 0.0729 0.3182
vn 0.1385 -0.0689 -0.9880
vn 0.9603 0.0103 -0.2787
vn 0.9583 0.1154 -0.2614
vn 0.1479 -0.0827 -0.9855
vn 0.3561 0.2210 0.9080
vn -0.9557 0.2530 0.1503
vn -0.9792 0.1066 -0.1729
vn 0.9615 0.2645 0.0746
vn -0.2413 0.1834 0.9530
vn -0.2971 -0.0654 -0.9526
vn -0.2556 0.1089 0.9606
vn 0.3829 0.1432 0.9126
vn -0.1917 0.7404 0.6442
vn 0.0488 -0.9987 0.0140
vn 0.2414 0.7271 0.6427
vn 0.0191 -0.9995 0.0245
vn -0.3048 -0.3580 -0.8826
vn -0.3100 -0.2161 0.9258
vn 0.9858 -0.0460 0.1615
vn -0.9786 -0.1260 -0.1628
vn -0.9703 -0.0856 0.2263
vn 0.4753 -0.1980 0.8573
vn 0.1628 -0.3538 -0.9210
vn 0.9682 -0.0964 -0.2308
vn 0.3501 0.1451 -0.9254
vn 0.2838 -0.8387 -0.4648
vn 0.3507 0.3110 -0.8834
vn 0.2442 0.5515 -0.7976
vn 0.2314 -0.2333 -0.9445
vn 0.3603 0.0761 -0.9297
vn 0.9572 0.2807 0.0698
vn 0.9328 0.2808 0.2258
vn 0.9963 0.0825 -0.0243
vn 0.8965 0.3015 0.3247
vn -0.5836 0.7057 0.4018
vn 0.7665 0.6422 -0.0093
vn 0.8095 -0.5568 -0.1864
vn 0.5171 0.8075 0.2839
vn -0.2388 0.8097 0.5361
vn 0.9132 0.3769 -0.1551
vn 0.9428 -0.1984 -0.2681
vn 0.2572 0.4125 -0.8739
vn -0.0617 -0.3435 0.9371
vn 0.0304 -0.3673 0.9296
vn -0.0303 -0.3547 0.9345
vn 0.0069 -0.3885 0.9214
vn -0.0000 -0.3406 0.9402
vn 0.0381 -0.3992 0.9161
vn -0.0439 -0.3974 0.9166
vn 0.0460 -0.3374 0.9402
vn -0.0024 -0.3526 0.9358
vn 0.0086 -0.3148 0.9491
vn 0.1653 -0.6935 0.7013
vn -0.0312 -0.3259 0.9449
vn 0.2956 -0.6240 0.7233
vn -0.4093 0.0501 0.9110
vn -0.4126 -0.1786 0.8932
vn -0.1418 -0.6287 0.7646
vn 0.7275 0.1249 0.6746
vn -0.2081 -0.5794 0.7880
vn -0.5100 0.0085 0.8601
vn 0.0297 -0.6883 0.7248
vn 0.3193 0.6965 0.6426
vn 0.5296 -0.4492 0.7195
vn 0.5248 -0.5067 0.6840
vn -0.0292 -0.0477 0.9984
vn 0.0200 -0.8098 0.5864
vn -0.0339 0.8771 0.4790
vn 0.7525 -0.0659 0.6553
vn 0.8622 -0.5063 -0.0190
vn -0.3668 0.7894 -0.4923
vn -0.9875 -0.1374 -0.0772
vn -0.9914 0.1293 -0.0221
vn -0.9698 0.1391 0.2004
vn -0.9792 -0.1358 0.1508
vn -0.9783 -0.1526 0.1403
vn -0.0746 -0.9808 0.1804
vn -0.1494 -0.9396 -0.3081
vn -0.0598 -0.9974 0.0399
vn -0.1168 0.9634 -0.2414
vn -0.1808 0.9719 0.1505
vn -0.2433 0.7640 -0.5976
vn -0.1995 -0.0945 -0.9753
vn -0.0536 -0.9017 -0.4290
vn -0.6525 0.2706 0.7078
vn -0.1684 0.2400 -0.9561
vn -0.0379 -0.1970 -0.9797
vn -0.2270 0.3631 -0.9037
vn -0.2192 -0.8077 -0.5473
vn -0.8419 0.5396 0.0101
vn -0.9972 -0.0447 -0.0596
vn -0.1531 0.9798 0.1287
vn -0.9847 0.1438 0.0986
vn -0.3298 -0.6000 -0.7289
vn -0.1077 0.9939 -0.0241
vn -0.0031 0.9167 -0.3995
vn 0.6345 -0.5020 -0.5877
vn -0.6698 0.1189 -0.7330
vn -0.1629 0.9596 0.2292
vn 0.9705 -0.2256 0.0856
vn -0.9329 -0.1058 -0.3443
vn -0.0094 0.8052 -0.5929
vn -0.2507 0.2400 0.9379
vn 0.4499 -0.2704 0.8512
vn 0.0395 -0.9872 0.1545
vn 0.0654 -0.9669 -0.2466
vn 0.0920 -0.9944 0.0520
vn -0.0584 0.1126 0.9919
vn -0.7743 0.4774 -0.4153
vn -0.3604 0.9095 -0.2075
vn -0.9435 -0.3220 0.0784
vn -0.2985 -0.8177 -0.4923
vn -0.3201 0.9380 0.1332
vn -0.2078 0.7388 0.6411
vn -0.0488 0.8059 -0.5900
vn -0.8476 0.1420 0.5113
vn -0.4753 -0.5467 0.6894
vn -0.8058 0.1358 -0.5764
vn -0.1056 -0.2766 -0.9552
vn -0.9854 0.1367 0.1018
vn -0.9731 0.1100 -0.2026
vn -0.1707 0.7649 0.6211
vn -0.3309 -0.9436 0.0071
vn -0.9410 0.1065 0.3212
vn -0.3094 0.9416 0.1328
vn -0.2941 0.9555 -0.0213
vn -0.9790 0.1931 0.0652
vn -0.2309 0.8795 -0.4160
vn -0.0755 0.7594 0.6463
vn -0.1307 -0.8446 -0.5193
vn -0.9751 -0.2111 -0.0674
vn -0.3260 0.9157 0.2349
vn -0.1166 0.8212 0.5586
vn 0.0037 0.5767 0.8169
vn -0.2889 -0.9380 0.1917
vn -0.8386 -0.3279 0.4350
vn -0.2122 -0.9399 -0.2675
vn -0.0564 -0.6765 0.7343
vn -0.1833 -0.8980 -0.4001
vn -0.9334 -0.1768 -0.3123
vn -0.0798 -0.9000 0.4284
vn -0.8717 -0.4812 0.0923
vn -0.3324 -0.9260 -0.1789
vn -0.2979 -0.8866 -0.3539
vn -0.3451 0.6933 0.6326
vn -0.3620 0.7189 0.5934
vn -0.7586 0.0174 0.6513
vn -0.4509 0.6111 0.6506
vn -0.1537 -0.8368 -0.5255
vn -0.1859 -0.9518 0.2440
vn -0.8837 -0.0558 0.4647
vn -0.3499 0.7852 0.5110
vn -0.3816 0.4588 0.8024
vn -0.1217 -0.9444 -0.3055
vn -0.4144 0.5061 0.7564
vn -0.1593 -0.9044 -0.3959
vn -0.5346 -0.0827 0.8410
vn -0.1479 -0.9234 -0.3541
vn -0.3937 -0.9041 0.1662
vn 0.3040 -0.4696 0.8289
vn 0.0092 0.6075 0.7942
vn -0.1792 -0.9025 -0.3917
vn -0.9706 -0.2402 -0.0180
vn -0.0310 -0.6241 0.7807
vn -0.0494 0.6690 0.7416
vn -0.6301 -0.0931 0.7709
vn -0.1441 -0.9171 -0.3717
vn 0.1346 -0.0531 0.9895
vn -0.4470 0.6454 0.6194
vn -0.3324 -0.1325 0.9338
vn -0.0463 -0.9943 -0.0957
vn -0.3308 -0.9398 0.0862
vn -0.7809 -0.4004 0.4795
vn -0.4028 0.4358 0.8049
vn -0.1485 -0.9112 -0.3843
vn -0.8472 0.0162 0.5310
vn 0.0169 0.5076 0.8614
vn -0.2233 -0.9087 -0.3527
vn -0.8796 -0.4073 0.2458
vn -0.9492 -0.2150 -0.2297
vn -0.9845 0.1753 -0.0069
vn -0.9734 0.1128 -0.1995
vn -0.9533 0.2638 0.1472
vn -0.9973 -0.0205 -0.0709
vn -0.9383 0.1754 0.2979
vn -0.7690 0.2799 0.5747
vn -0.9068 0.3506 0.2339
vn 0.7029 0.1551 0.6942
vn 0.0247 0.4212 0.9067
vn -0.0395 -0.5524 -0.8327
vn -0.9028 0.0420 0.4281
vn 0.9835 -0.1456 -0.1076
vn 0.9953 -0.0894 0.0362
vn -0.9947 0.0459 -0.0920
vn -0.2992 -0.0652 0.9520
vn -0.8931 -0.0042 0.4499
vn 0.8715 0.0935 0.4814
vn -0.1766 -0.5106 -0.8415
vn 0.9515 -0.3008 -0.0643
vn -0.9233 -0.0373 0.3822
vn 0.9880 0.0297 -0.1516
vn 0.9995 -0.0206 0.0248
vn -0.9927 0.0265 -0.1173
vn -0.2600 -0.2470 0.9335
vn -0.8332 0.1414 -0.5346
vn 0.8432 -0.0314 0.5367
vn 0.3287 -0.0400 0.9436
vn 0.4740 -0.5102 -0.7176
vn -0.8853 -0.1431 -0.4424
vn -0.0197 -0.0246 -0.9995
vn -0.9930 0.1155 0.0253
vn 0.9884 0.0303 -0.1489
vn 0.9978 0.0426 0.0500
vn -0.9923 0.0602 -0.1082
vn -0.9769 0.1262 0.1722
vn -0.0163 0.1341 -0.9908
vn 0.8059 -0.1792 0.5643
vn 0.1834 -0.2933 0.9383
vn 0.5034 0.1212 -0.8555
vn -0.0029 -0.9998 0.0173
vn -0.0163 -0.9993 0.0345
vn -0.0038 -0.9986 0.0521
vn -0.0070 -0.9999 0.0139
vn 0.0035 -0.9996 0.0288
vn -0.0090 -0.9986 0.0524
vn 0.9199 0.1253 0.3717
vn 0.9798 0.1184 0.1613
vn 0.4557 -0.0174 -0.8899
vn -0.8480 0.0203 -0.5296
vn -0.8534 0.0449 -0.5194
vn 0.4628 -0.0229 -0.8862
vn 0.1939 0.1978 0.9609
vn 0.8545 0.1401 0.5003
vn -0.2431 0.2321 0.9418
vn -0.9870 0.1079 -0.1192
vn 0.9962 0.0807 0.0334
vn 0.9864 0.0712 -0.1480
vn -0.9761 0.1779 0.1249
vn -0.0196 -0.0453 -0.9988
vn -0.2367 0.0812 0.9682
vn 0.1878 0.0780 0.9791
vn -0.1213 0.8375 0.5329
vn -0.0102 -0.9999 -0.0135
vn 0.1039 0.8411 0.5308
vn -0.0002 -0.9999 -0.0150
vn -0.9869 0.1391 0.0823
vn -0.9540 -0.1565 -0.2559
vn -0.9853 -0.0988 0.1395
vn -0.9482 0.2927 -0.1235
vn -0.5892 -0.3901 0.7076
vn -0.5195 0.7912 -0.3226
vn -0.9843 -0.1220 0.1274
vn -0.3261 0.7954 -0.5109
vn 0.9665 -0.2235 0.1265
vn 0.2965 0.1207 -0.9474
vn 0.2782 -0.7147 0.6418
vn -0.9839 -0.1305 0.1218
vn -0.1438 0.4921 -0.8586
vn 0.4054 0.3841 -0.8295
vn 0.9339 -0.1944 -0.2999
vn 0.1376 -0.7282 0.6714
vn 0.2777 0.8990 -0.3387
vn 0.9445 -0.3187 0.0796
vn -0.9992 0.0302 0.0254
vn 0.9810 0.1696 -0.0944
vn -0.4532 -0.6416 0.6188
vn -0.1400 0.1354 -0.9808
vn -0.9651 0.0888 -0.2465
vn 0.9724 -0.0139 -0.2331
vn -0.0073 -0.2965 -0.9550
vn -0.0465 -0.2819 -0.9583
vn -0.0391 -0.2559 -0.9659
vn -0.0058 -0.2693 -0.9630
vn 0.9979 -0.0637 -0.0130
vn -0.9446 -0.2868 0.1598
vn -0.1397 0.9312 -0.3366
vn -0.9607 0.2695 -0.0669
vn -0.9550 0.2932 0.0447
vn -0.1427 0.9498 -0.2784
vn -0.3586 -0.8177 0.4504
vn 0.9569 -0.0752 0.2805
vn 0.9771 0.2044 0.0597
vn -0.9621 -0.0000 0.2727
vn 0.2426 -0.8721 0.4251
vn 0.2864 0.9233 -0.2558
vn 0.2569 -0.8876 0.3823
vn -0.3822 -0.8324 0.4013
vn 0.1923 -0.4024 0.8950
vn -0.0509 -0.3038 -0.9514
vn -0.2403 -0.4052 0.8821
vn -0.0147 -0.3140 -0.9493
vn 0.3015 0.7819 -0.5457
vn 0.3044 -0.9481 0.0916
vn -0.9848 -0.1737 0.0028
vn 0.9778 0.1247 -0.1684
vn 0.9688 -0.2473 -0.0148
vn -0.4667 -0.8799 0.0894
vn -0.1556 0.8220 -0.5479
vn -0.9644 0.2143 -0.1546
vn -0.3339 0.1516 -0.9303
vn -0.3336 -0.8540 -0.3992
vn -0.3507 0.3110 -0.8834
vn -0.2188 0.5168 -0.8277
vn -0.1741 -0.2013 -0.9639
vn -0.2719 0.1202 -0.9548
vn -0.9572 0.2807 0.0698
vn -0.9328 0.2808 0.2258
vn -0.9963 0.0825 -0.0243
vn -0.8965 0.3015 0.3248
vn 0.5837 0.7056 0.4017
vn -0.7665 0.6422 -0.0093
vn -0.8095 -0.5567 -0.1864
vn -0.5171 0.8075 0.2839
vn 0.2390 0.8096 0.5360
vn -0.9132 0.3769 -0.1551
vn -0.9428 -0.1983 -0.2681
vn -0.2572 0.4125 -0.8739
vn 0.0618 -0.3435 0.9371
vn -0.0305 -0.3672 0.9296
vn 0.0302 -0.3547 0.9345
vn -0.0069 -0.3884 0.9215
vn -0.0000 -0.3405 0.9402
vn -0.0381 -0.3991 0.9161
vn 0.0439 -0.3974 0.9166
vn -0.0460 -0.3374 0.9402
vn 0.0024 -0.3525 0.9358
vn -0.0086 -0.3148 0.9491
vn -0.1655 -0.6934 0.7013
vn 0.0312 -0.3259 0.9449
vn -0.2957 -0.6240 0.7233
vn 0.4093 0.0500 0.9110
vn 0.4126 -0.1785 0.8932
vn 0.1418 -0.6286 0.7647
vn -0.7275 0.1249 0.6746
vn 0.2080 -0.5794 0.7881
vn 0.5100 0.0085 0.8601
vn -0.0297 -0.6882 0.7249
vn -0.3193 0.6965 0.6426
vn -0.5296 -0.4492 0.7195
vn -0.5248 -0.5067 0.6840
vn 0.0292 -0.0477 0.9984
vn -0.0200 -0.8098 0.5864
vn 0.0339 0.8771 0.4790
vn -0.7525 -0.0659 0.6553
vn 0.8961 -0.4390 0.0652
vn 0.9975 -0.0090 0.0701
vn 0.7307 -0.6727 -0.1167
vn 0.1099 -0.4581 -0.8821
vn 0.0413 -0.1436 -0.9888
vn 0.9363 0.2586 0.2377
vn 0.6878 -0.2626 0.6767
vn 0.3444 -0.7937 0.5013
vn -0.6069 -0.0375 -0.7939
vn -0.4208 0.2941 -0.8582
vn 0.7919 0.0670 0.6070
vn 0.5964 -0.3087 0.7409
vn -0.3952 -0.9164 0.0637
vn -0.6285 0.1146 -0.7693
vn -0.3576 0.4642 -0.8103
vn 0.4470 0.1045 0.8884
vn 0.2431 -0.1943 0.9503
vn -0.9975 0.0090 -0.0701
vn -0.7601 0.3546 -0.5445
vn -0.4475 0.8884 -0.1022
vn -0.7307 0.6726 0.1167
vn -0.6821 0.6848 -0.2564
vn -0.6942 0.4989 -0.5188
vn -0.8961 0.4390 -0.0652
vn -0.8552 0.3284 -0.4010
vn -0.8798 0.1937 -0.4342
vn -0.7220 0.2338 0.6511
vn -0.7805 -0.0305 0.6244
vn -0.1738 -0.2757 0.9454
vn -0.0413 0.1436 0.9888
vn 0.2534 -0.0546 0.9658
vn 0.4174 -0.0522 0.9072
vn -0.1099 0.4581 0.8821
vn 0.2535 0.3614 0.8973
vn 0.2197 0.6578 0.7204
vn -0.3444 0.7937 -0.5014
vn -0.4625 0.5460 -0.6986
vn -0.5848 0.4493 -0.6754
vn -0.6878 0.2626 -0.6767
vn -0.6976 0.1693 -0.6962
vn -0.7767 0.1198 -0.6183
vn -0.9363 -0.2586 -0.2377
vn -0.6272 -0.7152 0.3082
vn -0.0725 -0.5572 0.8272
vn 0.4208 -0.2941 0.8582
vn 0.5257 -0.2534 0.8120
vn 0.5343 -0.1598 0.8301
vn 0.6069 0.0374 0.7939
vn 0.6835 0.1499 0.7144
vn 0.5927 0.4699 0.6541
vn -0.5964 0.3087 -0.7409
vn -0.5257 0.2535 -0.8120
vn -0.5343 0.1597 -0.8301
vn -0.7919 -0.0670 -0.6070
vn -0.6835 -0.1499 -0.7144
vn -0.5927 -0.4699 -0.6541
vn 0.3576 -0.4642 0.8103
vn 0.4625 -0.5460 0.6986
vn 0.5848 -0.4493 0.6754
vn 0.6285 -0.1146 0.7693
vn 0.6976 -0.1693 0.6962
vn 0.7767 -0.1198 0.6183
vn 0.3952 0.9164 -0.0637
vn 0.6272 0.7153 -0.3082
vn 0.0725 0.5572 -0.8272
vn -0.2432 0.1943 -0.9503
vn -0.2534 0.0547 -0.9658
vn -0.4174 0.0523 -0.9072
vn -0.4471 -0.1045 -0.8884
vn -0.2535 -0.3615 -0.8973
vn -0.2197 -0.6578 -0.7204
vn 0.4475 -0.8884 0.1022
vn 0.6821 -0.6848 0.2564
vn 0.6942 -0.4989 0.5188
vn 0.1738 0.2757 -0.9454
vn 0.7805 0.0305 -0.6244
vn 0.7220 -0.2338 -0.6511
vn 0.7601 -0.3546 0.5445
vn 0.8552 -0.3284 0.4010
vn 0.8798 -0.1937 0.4342
vn -0.8961 -0.4390 0.0652
vn -0.9975 -0.0090 0.0701
vn -0.7307 -0.6726 -0.1167
vn -0.1099 -0.4581 -0.8821
vn -0.0413 -0.1436 -0.9888
vn -0.9363 0.2586 0.2378
vn -0.6878 -0.2626 0.6767
vn -0.3444 -0.7937 0.5014
vn 0.6069 -0.0375 -0.7939
vn 0.4208 0.2941 -0.8582
vn -0.7919 0.0670 0.6070
vn -0.5964 -0.3087 0.7409
vn 0.3952 -0.9164 0.0637
vn 0.6285 0.1146 -0.7693
vn 0.3576 0.4642 -0.8103
vn -0.4471 0.1045 0.8884
vn -0.2432 -0.1943 0.9503
vn 0.9975 0.0090 -0.0701
vn 0.7601 0.3546 -0.5445
vn 0.4475 0.8884 -0.1022
vn 0.7307 0.6726 0.1167
vn 0.6821 0.6848 -0.2564
vn 0.6942 0.4989 -0.5188
vn 0.8961 0.4390 -0.0652
vn 0.8552 0.3285 -0.4010
vn 0.8798 0.1937 -0.4342
vn 0.7220 0.2338 0.6511
vn 0.7805 -0.0305 0.6244
vn 0.1738 -0.2757 0.9454
vn 0.0413 0.1436 0.9888
vn -0.2534 -0.0547 0.9658
vn -0.4174 -0.0523 0.9072
vn 0.1099 0.4581 0.8821
vn -0.2535 0.3614 0.8973
vn -0.2197 0.6578 0.7204
vn 0.3444 0.7937 -0.5014
vn 0.4625 0.5460 -0.6986
vn 0.5848 0.4493 -0.6754
vn 0.6878 0.2626 -0.6767
vn 0.6976 0.1693 -0.6962
vn 0.7767 0.1198 -0.6183
vn 0.9363 -0.2587 -0.2377
vn 0.6272 -0.7153 0.3082
vn 0.0725 -0.5571 0.8272
vn -0.4208 -0.2941 0.8582
vn -0.5257 -0.2535 0.8120
vn -0.5343 -0.1597 0.8301
vn -0.6069 0.0374 0.7939
vn -0.6835 0.1500 0.7144
vn -0.5927 0.4699 0.6541
vn 0.5964 0.3087 -0.7409
vn 0.5257 0.2535 -0.8120
vn 0.5343 0.1597 -0.8301
vn 0.7919 -0.0670 -0.6070
vn 0.6835 -0.1499 -0.7144
vn 0.5927 -0.4699 -0.6541
vn -0.3576 -0.4642 0.8103
vn -0.4625 -0.5460 0.6986
vn -0.5848 -0.4493 0.6754
vn -0.6285 -0.1146 0.7693
vn -0.6976 -0.1693 0.6962
vn -0.7767 -0.1198 0.6183
vn -0.3952 0.9164 -0.0637
vn -0.6272 0.7153 -0.3082
vn -0.0725 0.5572 -0.8272
vn 0.2432 0.1943 -0.9503
vn 0.2534 0.0547 -0.9658
vn 0.4174 0.0523 -0.9072
vn 0.4471 -0.1045 -0.8884
vn 0.2535 -0.3615 -0.8973
vn 0.2197 -0.6578 -0.7204
vn -0.4475 -0.8884 0.1022
vn -0.6822 -0.6848 0.2564
vn -0.6943 -0.4989 0.5188
vn -0.1738 0.2757 -0.9454
vn -0.7805 0.0305 -0.6244
vn -0.7220 -0.2338 -0.6511
vn -0.7601 -0.3547 0.5445
vn -0.8552 -0.3284 0.4010
vn -0.8798 -0.1937 0.4342
vt 0.833374 0.494548
vt 0.893919 0.512741
vt 0.908415 0.468160
vt 0.848637 0.467455
vt 0.567859 0.867914
vt 0.639317 0.828812
vt 0.620915 0.894044
vt 0.556155 0.927906
vt 0.812683 0.509803
vt 0.774909 0.642712
vt 0.751394 0.643294
vt 0.751725 0.493743
vt 0.828812 0.793372
vt 0.751727 0.811870
vt 0.672932 0.807420
vt 0.672336 0.642732
vt 0.672998 0.503429
vt 0.598676 0.643182
vt 0.594201 0.530171
vt 0.560191 0.672195
vt 0.619753 0.672998
vt 0.599703 0.594201
vt 0.569702 0.558226
vt 0.580250 0.833374
vt 0.635423 0.812683
vt 0.637090 0.751725
vt 0.569078 0.759035
vt 0.500000 0.859251
vt 0.500000 0.750726
vt 0.569078 0.758996
vt 0.500000 0.657595
vt 0.560191 0.671923
vt 0.604420 0.951058
vt 0.545714 0.976119
vt 0.604420 0.548422
vt 0.626365 0.643481
vt 0.688416 0.643970
vt 0.666902 0.547256
vt 0.500000 0.917421
vt 0.563590 0.893919
vt 0.639317 0.793372
vt 0.659328 0.642712
vt 0.676970 0.643370
vt 0.671449 0.761101
vt 0.555994 0.632181
vt 0.545714 0.747180
vt 0.604420 0.735145
vt 0.572975 0.538591
vt 0.666902 0.715601
vt 0.500000 0.969030
vt 0.572975 0.947229
vt 0.501290 0.830086
vt 0.457158 0.830118
vt 0.460328 0.806630
vt 0.500288 0.803578
vt 0.499838 0.512886
vt 0.460007 0.507514
vt 0.481582 0.413128
vt 0.510774 0.417065
vt 0.500000 0.559830
vt 0.556447 0.575135
vt 0.579931 0.796381
vt 0.599703 0.530171
vt 0.637090 0.643182
vt 0.659115 0.643738
vt 0.643940 0.535244
vt 0.564556 0.492909
vt 0.500000 0.477524
vt 0.500000 0.432743
vt 0.566016 0.447361
vt 0.569702 0.518348
vt 0.616981 0.429733
vt 0.594994 0.421068
vt 0.612448 0.796381
vt 0.637526 0.771615
vt 0.500000 0.371229
vt 0.561082 0.382998
vt 0.450625 0.491920
vt 0.495971 0.498202
vt 0.507939 0.406303
vt 0.474705 0.401699
vt 0.591615 0.535244
vt 0.575831 0.433451
vt 0.407144 0.499901
vt 0.406490 0.640437
vt 0.358675 0.605643
vt 0.363238 0.556600
vt 0.578790 0.420824
vt 0.621227 0.407144
vt 0.601979 0.363238
vt 0.551080 0.357545
vt 0.500000 0.657756
vt 0.500000 0.571782
vt 0.667216 0.508652
vt 0.621227 0.499901
vt 0.632756 0.407548
vt 0.666461 0.413961
vt 0.556577 0.771615
vt 0.637090 0.751727
vt 0.260484 0.580516
vt 0.278839 0.520364
vt 0.582070 0.278839
vt 0.540875 0.268345
vt 0.619753 0.672932
vt 0.500000 0.307117
vt 0.551080 0.314473
vt 0.500000 0.983839
vt 0.393435 0.816867
vt 0.325561 0.763148
vt 0.671449 0.517077
vt 0.635423 0.509803
vt 0.642381 0.470278
vt 0.671266 0.470798
vt 0.988807 0.740196
vt 1.002924 0.661469
vt 1.015365 0.669173
vt 1.001496 0.721513
vt 0.500000 0.531683
vt 0.500000 0.631036
vt 0.249130 0.712570
vt 0.191059 0.679456
vt 0.198981 0.567653
vt 0.945839 0.547256
vt 0.886123 0.529161
vt 0.904522 0.470747
vt 0.963512 0.471464
vt 0.500000 0.238897
vt 0.540875 0.239236
vt 0.564556 0.495971
vt 0.612448 0.579931
vt 0.628268 0.501290
vt 0.631115 0.457158
vt 0.168698 0.648799
vt 0.177283 0.553376
vt 0.539817 0.181283
vt 0.500000 0.184290
vt 0.500000 0.144817
vt 0.539817 0.140934
vt 0.580006 0.205473
vt 0.539817 0.196322
vt 0.205473 0.476864
vt 0.621491 0.393435
vt 0.538703 0.608225
vt 0.500000 0.615960
vt 0.500000 0.567098
vt 0.526605 0.560962
vt 0.566016 0.450625
vt 0.149293 0.452102
vt 0.133162 0.541160
vt 0.103583 0.505809
vt 0.123733 0.441345
vt 0.539531 0.141037
vt 0.579447 0.149293
vt 0.562090 0.123733
vt 0.530633 0.116366
vt 0.500000 0.385014
vt 0.500000 0.353218
vt 0.586057 0.174337
vt 0.542919 0.165879
vt 0.174337 0.464471
vt 0.086614 0.427976
vt 0.065909 0.448336
vt 0.053210 0.428901
vt 0.071388 0.423606
vt 0.515797 0.085531
vt 0.531484 0.086614
vt 0.523242 0.071388
vt 0.510720 0.071544
vt 0.500000 0.266808
vt 0.601979 0.325561
vt 0.582070 0.249130
vt 0.108290 0.599988
vt 0.073849 0.556649
vt 0.580006 0.679456
vt 0.539817 0.690304
vt 0.539817 0.657159
vt 0.579599 0.648799
vt 0.500000 0.199929
vt 0.513331 0.045311
vt 0.500000 0.046647
vt 0.500000 0.069896
vt 0.051602 0.475706
vt 0.038205 0.462176
vt 0.038356 0.442272
vt 0.580006 0.191059
vt 0.577833 0.599988
vt 0.554232 0.556649
vt 0.500000 0.147087
vt 0.500000 0.124516
vt 0.530339 0.475706
vt 0.515210 0.477146
vt 0.513246 0.460736
vt 0.522445 0.462176
vt 0.500000 0.170521
vt 0.515546 0.457928
vt 0.507613 0.457080
vt 0.506877 0.445401
vt 0.514439 0.446199
vt 0.500000 0.089031
vt 0.528336 0.053210
vt 0.620841 0.601238
vt 0.618568 0.607555
vt 0.613078 0.604170
vt 0.614718 0.599612
vt 0.500000 0.479371
vt 0.500000 0.460095
vt 0.513331 0.424258
vt 0.512541 0.440917
vt 0.500000 0.440864
vt 0.500000 0.422187
vt 0.500000 0.664242
vt 0.576432 0.505809
vt 0.539481 0.507406
vt 0.547321 0.467354
vt 0.500000 0.513551
vt 0.519044 0.508271
vt 0.579599 0.168698
vt 0.538703 0.096221
vt 0.577833 0.108290
vt 0.520322 0.097153
vt 0.500000 0.106427
vt 0.541975 0.104341
vt 0.078394 0.467354
vt 0.104341 0.437145
vt 0.073220 0.507406
vt 0.590300 0.643738
vt 0.499630 0.641384
vt 0.459655 0.640419
vt 0.417546 0.774144
vt 0.414448 0.641253
vt 0.423095 0.508652
vt 0.621491 0.816867
vt 0.648114 0.640437
vt 0.669097 0.641253
vt 0.644267 0.774144
vt 0.578790 0.496630
vt 0.601625 0.405151
vt 0.649402 0.433451
vt 0.651726 0.367843
vt 0.620780 0.366797
vt 0.454529 0.413961
vt 0.467814 0.368189
vt 0.488225 0.366596
vt 0.561691 0.421068
vt 0.537425 0.365401
vt 0.507200 0.363509
vt 0.481273 0.364028
vt 0.510983 0.366114
vt 0.635806 0.367147
vt 0.669092 0.368189
vt 0.420824 0.496630
vt 0.452865 0.405151
vt 0.558226 0.518348
vt 0.484328 0.324872
vt 0.502799 0.322553
vt 0.547406 0.321655
vt 0.519920 0.320969
vt 0.496410 0.322232
vt 0.523434 0.321439
vt 0.639292 0.324944
vt 0.675657 0.324872
vt 0.550036 0.367843
vt 0.558926 0.322330
vt 0.465216 0.366023
vt 0.604868 0.366023
vt 0.599660 0.365401
vt 0.621651 0.293283
vt 0.658462 0.293469
vt 0.659368 0.261742
vt 0.621257 0.261665
vt 0.501495 0.293600
vt 0.482345 0.307625
vt 0.480362 0.262732
vt 0.500191 0.261781
vt 0.519246 0.292376
vt 0.547742 0.292993
vt 0.548078 0.261464
vt 0.518571 0.260916
vt 0.494871 0.293528
vt 0.493332 0.261956
vt 0.522889 0.292587
vt 0.522344 0.260869
vt 0.451756 0.288897
vt 0.449773 0.262732
vt 0.656778 0.322330
vt 0.622394 0.322035
vt 0.481902 0.324350
vt 0.605664 0.324350
vt 0.599057 0.321655
vt 0.595403 0.548078
vt 0.621257 0.561263
vt 0.645824 0.523009
vt 0.590945 0.518571
vt 0.639859 0.470735
vt 0.648324 0.498544
vt 0.685407 0.500191
vt 0.686261 0.480362
vt 0.592251 0.493332
vt 0.659368 0.560446
vt 0.683143 0.522344
vt 0.596433 0.477757
vt 0.479829 0.307317
vt 0.477757 0.262636
vt 0.447168 0.262636
vt 0.449241 0.288588
vt 0.596679 0.292993
vt 0.595403 0.261464
vt 0.559686 0.293469
vt 0.560446 0.261742
vt 0.603589 0.307317
vt 0.640355 0.307779
vt 0.679739 0.307625
vt 0.677932 0.288897
vt 0.639680 0.289050
vt 0.639859 0.262967
vt 0.679465 0.262732
vt 0.604354 0.288588
vt 0.603287 0.262636
vt 0.679739 0.482345
vt 0.640355 0.473048
vt 0.639680 0.442459
vt 0.677932 0.451756
vt 0.679465 0.449773
vt 0.639859 0.440146
vt 0.603589 0.479829
vt 0.604354 0.449241
vt 0.603287 0.447168
vt 0.841501 0.761101
vt 0.796910 0.643370
vt 0.906455 0.644155
vt 0.894416 0.742499
vt 0.957194 0.643970
vt 0.829265 0.517077
vt 0.940741 0.715601
vt 0.671449 0.841501
vt 0.669190 0.894416
vt 0.849398 0.470798
vt 0.666902 0.940741
vt 0.909364 0.402088
vt 0.855378 0.389954
vt 0.592313 0.470184
vt 0.617524 0.471308
vt 0.621192 0.417417
vt 0.598226 0.414426
vt 0.598146 0.467455
vt 0.603540 0.389954
vt 0.643835 0.389418
vt 0.855424 0.393127
vt 0.905341 0.403681
vt 0.667620 0.471464
vt 0.947229 0.538591
vt 0.963044 0.470184
vt 0.580250 0.494548
vt 0.595712 0.312254
vt 0.621272 0.312916
vt 0.622837 0.264476
vt 0.597277 0.263453
vt 0.852894 0.313492
vt 0.849695 0.260671
vt 0.818572 0.260902
vt 0.821566 0.286829
vt 0.893654 0.314609
vt 0.853541 0.316407
vt 0.850246 0.263617
vt 0.890422 0.263754
vt 0.896415 0.312211
vt 0.936226 0.312254
vt 0.933075 0.263453
vt 0.893263 0.261490
vt 0.670148 0.393127
vt 0.666826 0.415674
vt 0.958612 0.415674
vt 0.958434 0.414426
vt 0.649700 0.837975
vt 0.635627 0.887710
vt 0.686058 0.890422
vt 0.687133 0.850246
vt 0.592375 0.849695
vt 0.589648 0.893263
vt 0.597277 0.933075
vt 0.622837 0.940554
vt 0.673628 0.933416
vt 0.822213 0.289744
vt 0.819123 0.263848
vt 0.672063 0.313364
vt 0.673628 0.264581
vt 0.936602 0.313364
vt 0.933416 0.264581
vt 0.941647 0.364922
vt 0.899640 0.363406
vt 0.623001 0.364960
vt 0.665562 0.364922
vt 0.668659 0.362549
vt 0.644119 0.361871
vt 0.647700 0.316485
vt 0.685132 0.316407
vt 0.859879 0.359936
vt 0.902447 0.361457
vt 0.941330 0.363919
vt 0.860378 0.362549
vt 0.606538 0.359936
vt 0.590374 0.313492
vt 0.601582 0.363919
vt 0.646474 0.289822
vt 0.601626 0.286829
vt 0.603191 0.260902
vt 0.648039 0.263334
vt 0.675760 0.289744
vt 0.677325 0.263848
vt 0.647700 0.841274
vt 0.590374 0.852894
vt 0.601626 0.821566
vt 0.646474 0.809945
vt 0.648039 0.806852
vt 0.603191 0.818572
vt 0.685132 0.853541
vt 0.675760 0.822213
vt 0.677325 0.819123
vt 0.500000 0.668378
vt 0.500000 0.724779
vt 0.517225 0.721513
vt 0.520785 0.669173
vt 0.528698 1.002924
vt 0.500000 1.014901
vt 0.500000 1.025182
vt 0.520785 1.015365
vt 0.500000 0.744181
vt 0.519989 0.740196
vt 0.519989 0.988807
vt 0.500000 0.995348
vt 0.500000 0.660499
vt 0.528698 0.661469
vt 0.154177 0.616909
vt 0.166410 0.570048
vt 0.135838 0.608740
vt 0.149154 0.567675
vt 0.147623 0.572395
vt 0.137518 0.603560
vt 0.583783 0.154177
vt 0.583848 0.135838
vt 0.600568 0.131366
vt 0.597073 0.144428
vt 0.144166 0.612314
vt 0.141084 0.620214
vt 0.132632 0.614576
vt 0.134671 0.609983
vt 0.153028 0.593819
vt 0.141399 0.592146
vt 0.619182 0.132632
vt 0.614588 0.141084
vt 0.606252 0.140479
vt 0.610351 0.130579
vt 0.138199 0.601250
vt 0.148213 0.603179
vt 0.602487 0.570048
vt 0.583783 0.616909
vt 0.597073 0.624463
vt 0.606252 0.625520
vt 0.614588 0.620214
vt 0.620822 0.612314
vt 0.623703 0.603179
vt 0.620639 0.593819
vt 0.604695 0.577238
vt 0.601269 0.572395
vt 0.603531 0.567675
vt 0.609313 0.614171
vt 0.615687 0.610750
vt 0.619182 0.614576
vt 0.610351 0.619358
vt 0.602434 0.613212
vt 0.600568 0.617961
vt 0.626402 0.601250
vt 0.623276 0.609983
vt 0.618527 0.594500
vt 0.623272 0.592146
vt 0.590602 0.606787
vt 0.583848 0.608740
vt 0.592903 0.603615
vt 0.603070 0.582298
vt 0.613048 0.594751
vt 0.610999 0.606475
vt 0.606401 0.608943
vt 0.601438 0.608251
vt 0.586331 0.603560
vt 0.600598 0.578805
vt 0.589822 0.601288
vt 0.148133 0.578805
vt 0.140843 0.601288
vt 0.522445 0.038205
vt 0.513246 0.032036
vt 0.507613 0.025182
vt 0.515546 0.030102
vt 0.521458 0.442272
vt 0.528336 0.428901
vt 0.500000 0.456702
vt 0.500000 0.445370
vt 0.500000 0.031689
vt 0.512541 0.032373
vt 0.506877 0.025742
vt 0.500000 0.025886
vt 0.500000 0.031337
vt 0.500000 0.025479
vt 0.030102 0.457928
vt 0.030515 0.446199
vt 0.432141 0.867914
vt 0.443845 0.927906
vt 0.379085 0.894044
vt 0.360683 0.828812
vt 0.439809 0.672195
vt 0.430298 0.558226
vt 0.400297 0.594201
vt 0.380247 0.672998
vt 0.419750 0.833374
vt 0.430922 0.759035
vt 0.362910 0.751725
vt 0.364577 0.812683
vt 0.430922 0.758996
vt 0.439809 0.671923
vt 0.454286 0.976119
vt 0.395580 0.951058
vt 0.395580 0.548422
vt 0.333098 0.547256
vt 0.311584 0.643970
vt 0.373635 0.643481
vt 0.436410 0.893919
vt 0.360683 0.793372
vt 0.328551 0.761101
vt 0.323030 0.643370
vt 0.340672 0.642712
vt 0.444006 0.632181
vt 0.395580 0.735145
vt 0.454286 0.747180
vt 0.427025 0.538591
vt 0.333098 0.715601
vt 0.427025 0.947229
vt 0.443553 0.575135
vt 0.400297 0.530171
vt 0.356060 0.535244
vt 0.340885 0.643738
vt 0.362910 0.643182
vt 0.435444 0.492909
vt 0.433984 0.447361
vt 0.430298 0.518348
vt 0.405006 0.421068
vt 0.383019 0.429733
vt 0.362474 0.771615
vt 0.387552 0.796381
vt 0.438918 0.382998
vt 0.421210 0.420824
vt 0.448920 0.357545
vt 0.398021 0.363238
vt 0.378773 0.407144
vt 0.332784 0.508652
vt 0.333539 0.413961
vt 0.367244 0.407548
vt 0.378773 0.499901
vt 0.362910 0.751727
vt 0.459125 0.268345
vt 0.417930 0.278839
vt 0.380247 0.672932
vt 0.448920 0.314473
vt 0.328551 0.517077
vt 0.328734 0.470798
vt 0.357619 0.470278
vt 0.364577 0.509803
vt 0.459125 0.239236
vt 0.435444 0.495971
vt 0.387552 0.579931
vt 0.371732 0.501290
vt 0.368885 0.457158
vt 0.460183 0.181283
vt 0.460183 0.140934
vt 0.460183 0.196322
vt 0.419994 0.205473
vt 0.378509 0.393435
vt 0.461297 0.608225
vt 0.473395 0.560962
vt 0.433984 0.450625
vt 0.460469 0.141037
vt 0.469367 0.116366
vt 0.437911 0.123733
vt 0.420553 0.149293
vt 0.457081 0.165879
vt 0.413943 0.174337
vt 0.484203 0.085531
vt 0.489280 0.071544
vt 0.476758 0.071388
vt 0.468516 0.086614
vt 0.398021 0.325561
vt 0.417930 0.249130
vt 0.419994 0.679456
vt 0.420401 0.648799
vt 0.460183 0.657159
vt 0.460183 0.690304
vt 0.486669 0.045311
vt 0.419994 0.191059
vt 0.422167 0.599988
vt 0.445768 0.556649
vt 0.469661 0.475706
vt 0.477555 0.462176
vt 0.486754 0.460736
vt 0.484790 0.477146
vt 0.484454 0.457928
vt 0.485561 0.446199
vt 0.493123 0.445401
vt 0.492387 0.457080
vt 0.471665 0.053210
vt 0.379159 0.601238
vt 0.385282 0.599612
vt 0.386922 0.604170
vt 0.381432 0.607555
vt 0.486669 0.424258
vt 0.487459 0.440917
vt 0.423568 0.505809
vt 0.452679 0.467354
vt 0.460520 0.507406
vt 0.480956 0.508271
vt 0.420401 0.168698
vt 0.422167 0.108290
vt 0.461297 0.096221
vt 0.479678 0.097153
vt 0.458025 0.104341
vt 0.378509 0.816867
vt 0.355733 0.774144
vt 0.330903 0.641253
vt 0.351886 0.640437
vt 0.398375 0.405151
vt 0.421210 0.496630
vt 0.379220 0.366797
vt 0.348274 0.367843
vt 0.350598 0.433451
vt 0.330908 0.368189
vt 0.364194 0.367147
vt 0.324343 0.324872
vt 0.360708 0.324944
vt 0.395132 0.366023
vt 0.400340 0.365401
vt 0.378349 0.293283
vt 0.378743 0.261665
vt 0.340632 0.261742
vt 0.341538 0.293469
vt 0.377606 0.322035
vt 0.343222 0.322330
vt 0.394336 0.324350
vt 0.400943 0.321655
vt 0.404597 0.548078
vt 0.409055 0.518571
vt 0.354176 0.523009
vt 0.378743 0.561263
vt 0.360141 0.470735
vt 0.313739 0.480362
vt 0.314593 0.500191
vt 0.351676 0.498544
vt 0.407749 0.493332
vt 0.316857 0.522344
vt 0.340632 0.560446
vt 0.403567 0.477757
vt 0.403321 0.292993
vt 0.404597 0.261464
vt 0.359645 0.307779
vt 0.396411 0.307317
vt 0.320262 0.307625
vt 0.322068 0.288897
vt 0.320535 0.262732
vt 0.360141 0.262967
vt 0.360320 0.289050
vt 0.396713 0.262636
vt 0.395646 0.288588
vt 0.320262 0.482345
vt 0.322068 0.451756
vt 0.360320 0.442459
vt 0.359645 0.473048
vt 0.360141 0.440146
vt 0.320535 0.449773
vt 0.395646 0.449241
vt 0.396411 0.479829
vt 0.396713 0.447168
vt 0.330810 0.894416
vt 0.328551 0.841501
vt 0.333098 0.940741
vt 0.407688 0.470184
vt 0.401774 0.414426
vt 0.378808 0.417417
vt 0.382476 0.471308
vt 0.356165 0.389418
vt 0.396460 0.389954
vt 0.401854 0.467455
vt 0.332380 0.471464
vt 0.419750 0.494548
vt 0.404289 0.312254
vt 0.402723 0.263453
vt 0.377163 0.264476
vt 0.378728 0.312916
vt 0.329852 0.393127
vt 0.333174 0.415674
vt 0.350300 0.837975
vt 0.312867 0.850246
vt 0.313942 0.890422
vt 0.364373 0.887710
vt 0.410353 0.893263
vt 0.407625 0.849695
vt 0.377163 0.940554
vt 0.402723 0.933075
vt 0.326372 0.933416
vt 0.326372 0.264581
vt 0.327937 0.313364
vt 0.376999 0.364960
vt 0.334438 0.364922
vt 0.331341 0.362549
vt 0.314868 0.316407
vt 0.352300 0.316485
vt 0.355881 0.361871
vt 0.409626 0.313492
vt 0.393462 0.359936
vt 0.398418 0.363919
vt 0.353526 0.289822
vt 0.351961 0.263334
vt 0.396809 0.260902
vt 0.398374 0.286829
vt 0.324240 0.289744
vt 0.322675 0.263848
vt 0.352300 0.841274
vt 0.353526 0.809945
vt 0.398374 0.821566
vt 0.409626 0.852894
vt 0.396809 0.818572
vt 0.351961 0.806852
vt 0.314868 0.853541
vt 0.324240 0.822213
vt 0.322675 0.819123
vt 0.479215 0.669173
vt 0.482775 0.721513
vt 0.471302 1.002924
vt 0.479215 1.015365
vt 0.480011 0.740196
vt 0.480011 0.988807
vt 0.471302 0.661469
vt 0.416217 0.154177
vt 0.402927 0.144428
vt 0.399432 0.131366
vt 0.416152 0.135838
vt 0.380819 0.132632
vt 0.389649 0.130579
vt 0.393748 0.140479
vt 0.385412 0.141084
vt 0.397513 0.570048
vt 0.379361 0.593819
vt 0.376297 0.603179
vt 0.379178 0.612314
vt 0.385412 0.620214
vt 0.393748 0.625520
vt 0.402927 0.624463
vt 0.416217 0.616909
vt 0.395305 0.577238
vt 0.396469 0.567675
vt 0.398731 0.572395
vt 0.390687 0.614171
vt 0.389649 0.619358
vt 0.380819 0.614576
vt 0.384313 0.610750
vt 0.397566 0.613212
vt 0.399432 0.617961
vt 0.376724 0.609983
vt 0.373598 0.601250
vt 0.376728 0.592146
vt 0.381473 0.594500
vt 0.409398 0.606787
vt 0.416152 0.608740
vt 0.407098 0.603615
vt 0.398562 0.608251
vt 0.393599 0.608943
vt 0.389001 0.606475
vt 0.386952 0.594751
vt 0.396930 0.582298
vt 0.413669 0.603560
vt 0.399402 0.578805
vt 0.410178 0.601288
vt 0.477555 0.038205
vt 0.484454 0.030102
vt 0.492387 0.025182
vt 0.486754 0.032036
vt 0.478542 0.442272
vt 0.471665 0.428901
vt 0.493123 0.025742
vt 0.487459 0.032373
vt 0.181819 0.000000
vt 0.227273 0.078731
vt 0.136365 0.078731
vt 0.272728 0.157461
vt 0.318182 0.078731
vt 0.363637 0.157461
vt 0.909091 0.000000
vt 0.954545 0.078731
vt 0.863636 0.078731
vt 0.727273 0.000000
vt 0.772727 0.078731
vt 0.681818 0.078731
vt 0.545455 0.000000
vt 0.590909 0.078731
vt 0.500000 0.078731
vt 0.318182 0.236191
vt 0.090910 0.157461
vt 0.181819 0.157461
vt 0.136365 0.236191
vt 0.818182 0.157461
vt 0.909091 0.157461
vt 0.863636 0.236191
vt 0.636364 0.157461
vt 0.727273 0.157461
vt 0.681818 0.236191
vt 0.454546 0.157461
vt 0.545455 0.157461
vt 0.500000 0.236191
vt 0.227273 0.236191
vt 0.045455 0.236191
vt 0.772727 0.236191
vt 0.590909 0.236191
vt 0.409092 0.236191
vt 0.181819 0.314921
vt 0.272728 0.314921
vt 0.227273 0.393651
vt 0.000000 0.314921
vt 0.090910 0.314921
vt 0.045455 0.393651
vt 0.727273 0.314921
vt 0.818182 0.314921
vt 0.772727 0.393651
vt 0.545455 0.314921
vt 0.636364 0.314921
vt 0.590909 0.393651
vt 0.363637 0.314921
vt 0.454546 0.314921
vt 0.409092 0.393651
vt 0.500000 0.393651
vt 0.454546 0.472382
vt 0.681818 0.393651
vt 0.636364 0.472382
vt 0.863636 0.393651
vt 0.818182 0.472382
vt 0.909091 0.314921
vt 0.136365 0.393651
vt 0.090910 0.472382
vt 0.318182 0.393651
vt 0.272728 0.472382
vt 0.954545 0.236191
vt 1.000000 0.157461
vt 0.409092 0.078731
vt 0.363637 0.000000
s 1
f 116/1/1 98/2/1 209/3/1 208/4/1
f 115/5/2 4/6/2 17/7/2 97/8/2
f 3/9/3 7/10/3 13/11/3 8/12/3
f 7/10/4 4/13/4 9/14/4 13/11/4
f 13/11/5 9/14/5 2/15/5 10/16/5
f 8/12/6 13/11/6 10/16/6 1/17/6
f 1/17/7 10/16/7 32/18/7 29/19/7
f 114/20/8 1/21/8 29/22/8 83/23/8
f 116/24/9 3/25/9 8/26/9 109/27/9
f 109/27/10 8/26/10 1/21/10 114/20/10
f 115/5/11 6/28/11 15/29/11 99/30/11
f 99/30/12 15/29/12 12/31/12 112/32/12
f 97/8/13 17/7/13 21/33/13 90/34/13
f 20/35/14 25/36/14 203/37/14 204/38/14
f 116/24/15 5/28/15 18/39/15 98/40/15
f 4/41/16 7/42/16 197/43/16 196/44/16
f 89/45/17 90/46/17 21/47/17 25/36/17
f 91/48/18 89/45/18 25/36/18 20/35/18
f 25/36/19 21/47/19 202/49/19 203/37/19
f 98/40/20 18/39/20 23/50/20 91/51/20
f 38/52/21 45/53/21 134/54/21 131/55/21
f 133/56/22 136/57/22 144/58/22 146/59/22
f 112/32/23 12/31/23 34/60/23 82/61/23
f 10/16/24 2/15/24 30/62/24 32/18/24
f 29/63/25 32/64/25 129/65/25 130/66/25
f 75/67/26 41/68/26 48/69/26 73/70/26
f 82/61/27 34/60/27 41/68/27 75/67/27
f 83/71/28 29/63/28 141/72/28 140/73/28
f 32/64/29 30/74/29 128/75/29 129/65/29
f 73/70/30 48/69/30 56/76/30 66/77/30
f 74/78/31 81/79/31 145/80/31 148/81/31
f 130/82/32 133/56/32 146/59/32 147/83/32
f 6/28/33 115/5/33 97/8/33 19/39/33
f 54/84/34 53/85/34 60/86/34 61/87/34
f 67/88/35 54/89/35 61/90/35 65/91/35
f 11/92/36 114/20/36 83/23/36 33/93/36
f 5/28/37 116/24/37 109/27/37 14/29/37
f 14/29/38 109/27/38 114/20/38 11/92/38
f 139/94/39 54/95/39 143/96/39 142/97/39
f 30/62/40 38/52/40 131/55/40 128/98/40
f 4/6/41 115/5/41 99/30/41 9/99/41
f 61/87/42 60/86/42 69/100/42 70/101/42
f 65/91/43 61/90/43 70/102/43 58/103/43
f 9/99/44 99/30/44 112/32/44 2/104/44
f 66/77/45 56/76/45 63/105/45 64/106/45
f 19/39/46 97/8/46 90/34/46 24/107/46
f 53/85/47 52/108/47 59/109/47 60/86/47
f 198/110/48 3/111/48 207/112/48 213/113/48
f 256/114/49 255/115/49 253/116/49 254/117/49
f 23/118/50 26/119/50 89/45/50 91/48/50
f 69/100/51 68/120/51 76/121/51 77/122/51
f 204/123/52 201/124/52 211/125/52 212/126/52
f 64/106/53 63/105/53 72/127/53 57/128/53
f 33/93/54 83/23/54 81/129/54 40/68/54
f 60/86/55 59/109/55 68/120/55 69/100/55
f 2/104/56 112/32/56 82/61/56 30/130/56
f 38/131/57 75/67/57 73/70/57 45/132/57
f 77/122/58 76/121/58 259/133/58 260/134/58
f 30/130/59 82/61/59 75/67/59 38/131/59
f 50/135/60 80/136/60 88/137/60 44/138/60
f 58/103/61 70/102/61 78/139/61 51/140/61
f 70/101/62 69/100/62 77/122/62 78/141/62
f 45/132/63 73/70/63 66/77/63 52/142/63
f 57/128/64 72/127/64 80/136/64 50/135/64
f 28/143/65 110/144/65 96/145/65 42/146/65
f 40/68/66 81/129/66 74/147/66 47/69/66
f 108/148/67 262/149/67 93/150/67 94/151/67
f 31/152/68 108/153/68 94/154/68 43/155/68
f 55/156/69 67/88/69 65/91/69 62/157/69
f 51/140/70 78/139/70 86/158/70 49/159/70
f 78/141/71 77/122/71 260/134/71 86/160/71
f 47/69/72 74/147/72 67/88/72 55/156/72
f 123/161/73 124/162/73 101/163/73 102/164/73
f 121/165/74 123/166/74 102/167/74 37/168/74
f 62/157/75 65/91/75 58/103/75 71/169/75
f 52/142/76 66/77/76 64/106/76 59/170/76
f 59/170/77 64/106/77 57/128/77 68/171/77
f 262/149/78 261/172/78 92/173/78 93/150/78
f 76/174/79 50/175/79 44/176/79 259/177/79
f 71/169/80 58/103/80 51/140/80 79/178/80
f 37/168/81 35/179/81 105/180/81 103/181/81
f 124/162/82 127/182/82 297/183/82 298/184/82 101/163/82
f 68/171/83 57/128/83 50/135/83 76/185/83
f 261/186/84 28/143/84 42/146/84 92/187/84
f 107/188/85 31/152/85 43/155/85 95/189/85
f 127/190/86 122/191/86 295/192/86 297/193/86
f 79/178/87 51/140/87 49/159/87 87/194/87
f 100/195/88 36/196/88 301/197/88 104/198/88
f 126/199/89 121/165/89 37/168/89 103/181/89
f 102/167/90 101/200/90 35/179/90 37/168/90
f 274/201/91 273/202/91 290/203/91 291/204/91
f 122/191/92 125/205/92 300/206/92 295/192/92
f 49/159/93 86/158/93 108/153/93 31/152/93
f 86/160/94 260/134/94 262/149/94 108/148/94
f 35/207/95 296/208/95 299/209/95 105/210/95
f 44/176/96 88/211/96 110/144/96 28/143/96
f 93/212/97 92/187/97 120/213/97 119/214/97
f 87/194/98 49/159/98 31/152/98 107/188/98
f 42/146/99 96/145/99 113/215/99 27/216/99
f 259/217/100 44/138/100 28/218/100 261/219/100
f 92/187/101 42/146/101 27/216/101 120/213/101
f 95/189/102 43/155/102 22/220/102 118/221/102
f 43/155/103 94/154/103 117/222/103 22/220/103
f 94/151/104 93/150/104 119/223/104 117/224/104
f 120/213/105 27/216/105 122/191/105 127/190/105
f 118/221/106 22/220/106 121/165/106 126/199/106
f 119/223/107 120/225/107 127/182/107 124/162/107
f 27/216/108 113/215/108 125/205/108 122/191/108
f 22/220/109 117/222/109 123/166/109 121/165/109
f 117/224/110 119/223/110 124/162/110 123/161/110
f 130/82/111 129/226/111 132/227/111 133/56/111
f 132/227/112 131/55/112 134/54/112 135/228/112
f 129/226/113 128/98/113 131/55/113 132/227/113
f 135/228/114 134/54/114 137/229/114 138/230/114
f 133/56/115 132/227/115 135/228/115 136/57/115
f 136/57/116 135/228/116 138/230/116 139/231/116
f 52/232/117 53/233/117 138/234/117 137/235/117
f 45/53/118 52/108/118 137/229/118 134/54/118
f 54/95/119 67/236/119 149/237/119 143/96/119
f 53/233/120 54/95/120 139/94/120 138/234/120
f 141/72/121 147/238/121 157/239/121 39/240/121
f 144/58/122 142/241/122 150/242/122 153/243/122
f 145/80/123 140/244/123 46/245/123 154/246/123
f 148/81/124 145/80/124 154/246/124 158/247/124
f 146/59/125 144/58/125 153/243/125 156/248/125
f 142/97/126 143/96/126 151/249/126 150/250/126
f 136/57/127 139/231/127 142/241/127 144/58/127
f 67/251/128 74/78/128 148/81/128 149/252/128
f 29/63/129 130/66/129 147/238/129 141/72/129
f 81/79/130 83/253/130 140/244/130 145/80/130
f 153/243/131 150/242/131 162/254/131 164/255/131
f 154/246/132 46/245/132 160/256/132 165/257/132
f 158/247/133 154/246/133 165/257/133 168/258/133
f 156/248/134 153/243/134 164/255/134 166/259/134
f 150/250/135 151/249/135 163/260/135 162/261/135
f 157/262/136 156/248/136 166/259/136 167/263/136
f 149/252/137 148/81/137 158/247/137 159/264/137
f 143/96/138 149/237/138 159/265/138 151/249/138
f 140/73/139 141/72/139 39/240/139 46/266/139
f 147/83/140 146/59/140 156/248/140 157/262/140
f 188/267/141 187/268/141 177/269/141 152/270/141
f 184/271/142 185/272/142 170/273/142 173/274/142
f 182/275/143 180/276/143 155/277/143 174/278/143
f 181/279/144 182/275/144 174/278/144 178/280/144
f 183/281/145 184/271/145 173/274/145 176/282/145
f 170/273/146 185/272/146 194/283/146 192/284/146
f 39/240/147 157/239/147 167/285/147 161/286/147
f 159/264/148 158/247/148 168/258/148 169/287/148
f 151/249/149 159/265/149 169/288/149 163/260/149
f 46/266/150 39/240/150 161/286/150 160/289/150
f 155/290/151 152/291/151 175/292/151 174/293/151
f 171/294/152 172/295/152 173/296/152 170/297/152
f 174/293/153 175/292/153 172/295/153 178/298/153
f 175/292/154 152/291/154 177/299/154 176/300/154
f 178/298/155 172/295/155 171/294/155 179/301/155
f 172/295/156 175/292/156 176/300/156 173/296/156
f 189/302/157 181/279/157 178/280/157 179/303/157
f 189/302/158 179/303/158 193/304/158 195/305/158
f 180/306/159 188/267/159 152/270/159 155/307/159
f 187/308/160 183/281/160 176/282/160 177/309/160
f 167/263/161 166/259/161 183/281/161 187/308/161
f 160/289/162 161/286/162 188/267/162 180/306/162
f 163/260/163 169/288/163 189/310/163 186/311/163
f 169/287/164 168/258/164 181/279/164 189/302/164
f 162/261/165 163/260/165 186/311/165 185/312/165
f 166/259/166 164/255/166 184/271/166 183/281/166
f 168/258/167 165/257/167 182/275/167 181/279/167
f 165/257/168 160/256/168 180/276/168 182/275/168
f 164/255/169 162/254/169 185/272/169 184/271/169
f 161/286/170 167/285/170 187/268/170 188/267/170
f 194/313/171 190/314/171 191/315/171 192/316/171
f 190/314/172 195/317/172 193/318/172 191/315/172
f 185/319/173 186/320/173 190/321/173 194/322/173
f 171/294/174 170/297/174 192/323/174 191/324/174
f 186/320/175 189/325/175 195/326/175 190/321/175
f 179/301/176 171/294/176 191/324/176 193/327/176
f 196/328/177 197/329/177 200/330/177 199/331/177
f 200/330/178 201/124/178 204/123/178 203/332/178
f 197/329/179 198/333/179 201/124/179 200/330/179
f 199/331/180 200/330/180 203/332/180 202/334/180
f 7/42/181 3/111/181 198/110/181 197/43/181
f 17/7/182 4/6/182 196/335/182 199/336/182
f 201/124/183 198/333/183 213/337/183 211/125/183
f 21/33/184 17/7/184 199/336/184 202/338/184
f 208/4/185 209/3/185 217/339/185 216/340/185
f 210/341/186 206/342/186 214/343/186 218/344/186
f 207/112/187 208/345/187 216/346/187 215/347/187
f 211/125/188 213/337/188 221/348/188 219/349/188
f 20/35/189 204/38/189 212/350/189 206/342/189
f 91/48/190 20/35/190 206/342/190 210/341/190
f 98/2/191 91/351/191 210/352/191 209/3/191
f 3/111/192 116/353/192 208/345/192 207/112/192
f 232/354/193 235/355/193 222/356/193 226/357/193
f 233/358/194 224/359/194 240/360/194 241/361/194
f 16/362/195 230/363/195 229/364/195 227/365/195
f 231/366/196 232/367/196 226/368/196 225/369/196
f 213/113/197 207/112/197 215/347/197 221/370/197
f 206/342/198 212/350/198 220/371/198 214/343/198
f 212/126/199 211/125/199 219/349/199 220/372/199
f 209/3/200 210/352/200 218/373/200 217/339/200
f 223/374/201 205/375/201 227/376/201 229/377/201
f 223/374/202 224/378/202 225/379/202 205/375/202
f 205/375/203 225/379/203 226/380/203 222/381/203
f 205/375/204 222/381/204 228/382/204 227/376/204
f 233/358/205 231/366/205 225/369/205 224/359/205
f 229/364/206 230/363/206 237/383/206 238/384/206
f 235/355/207 236/385/207 228/386/207 222/356/207
f 236/387/208 16/362/208 227/365/208 228/388/208
f 250/389/209 243/390/209 16/362/209 236/387/209
f 249/391/210 250/392/210 236/385/210 235/355/210
f 246/393/211 245/394/211 234/395/211 230/396/211
f 248/397/212 244/398/212 231/366/212 233/358/212
f 244/398/213 247/399/213 232/367/213 231/366/213
f 243/390/214 246/400/214 230/363/214 16/362/214
f 245/394/215 248/401/215 233/402/215 234/395/215
f 247/403/216 249/391/216 235/355/216 232/354/216
f 242/404/217 241/405/217 240/406/217 239/407/217
f 237/408/218 242/404/218 239/407/218 238/409/218
f 234/410/219 233/411/219 241/412/219 242/413/219
f 224/378/220 223/374/220 239/414/220 240/415/220
f 230/416/221 234/410/221 242/413/221 237/417/221
f 223/374/222 229/377/222 238/418/222 239/414/222
f 218/344/223 214/343/223 249/391/223 247/403/223
f 215/347/224 216/346/224 248/401/224 245/394/224
f 219/349/225 221/348/225 246/400/225 243/390/225
f 217/339/226 218/373/226 247/399/226 244/398/226
f 216/340/227 217/339/227 244/398/227 248/397/227
f 221/370/228 215/347/228 245/394/228 246/393/228
f 214/343/229 220/371/229 250/392/229 249/391/229
f 220/372/230 219/349/230 243/390/230 250/389/230
f 252/419/231 251/420/231 254/421/231 253/422/231
f 255/423/232 257/424/232 252/425/232 253/426/232
f 258/427/233 256/428/233 254/421/233 251/420/233
f 24/107/234 90/34/234 256/429/234 258/430/234
f 89/45/235 26/119/235 257/431/235 255/432/235
f 90/46/236 89/45/236 255/432/236 256/428/236
f 84/433/237 85/434/237 260/134/237 259/133/237
f 275/435/238 84/433/238 259/133/238 261/172/238
f 85/434/239 276/436/239 262/149/239 260/134/239
f 276/436/240 284/437/240 283/438/240 275/435/240 261/172/240 262/149/240
f 84/439/241 275/440/241 279/441/241 263/442/241
f 266/443/242 264/444/242 278/445/242 280/446/242
f 276/436/243 85/434/243 267/447/243 282/448/243
f 278/449/244 264/450/244 265/451/244 277/452/244
f 277/452/245 265/451/245 263/442/245 279/441/245
f 266/443/246 280/446/246 281/453/246 268/454/246
f 268/454/247 281/453/247 282/448/247 267/447/247
f 85/455/248 84/456/248 263/457/248 265/458/248 264/459/248 266/460/248 268/461/248 267/462/248
f 106/463/249 284/464/249 276/465/249
f 271/466/250 269/467/250 278/468/250 277/469/250
f 270/470/251 271/466/251 277/469/251 279/471/251
f 273/202/252 274/201/252 281/472/252 280/473/252
f 274/201/253 272/474/253 282/475/253 281/472/253
f 269/467/254 273/202/254 280/473/254 278/468/254
f 111/476/255 270/470/255 279/471/255 275/477/255
f 272/474/256 106/463/256 276/465/256 282/475/256
f 285/478/257 286/479/257 292/480/257 291/204/257 290/203/257 288/481/257 287/482/257 289/483/257
f 283/484/258 111/476/258 275/477/258
f 270/470/259 111/476/259 285/478/259 289/483/259
f 294/485/260 286/479/260 285/478/260 293/486/260
f 111/476/261 283/484/261 293/486/261 285/478/261
f 106/463/262 272/474/262 292/480/262 286/479/262
f 272/474/263 274/201/263 291/204/263 292/480/263
f 269/467/264 271/466/264 287/482/264 288/481/264
f 283/438/265 284/437/265 294/487/265 293/488/265
f 273/202/266 269/467/266 288/481/266 290/203/266
f 284/464/267 106/463/267 286/479/267 294/485/267
f 271/466/268 270/470/268 289/483/268 287/482/268
f 297/489/269 295/490/269 36/491/269 100/492/269
f 296/208/270 298/493/270 104/198/270 301/197/270
f 101/494/271 298/493/271 296/208/271 35/207/271
f 36/196/272 302/495/272 303/496/272 301/197/272
f 299/497/273 296/498/273 301/499/273 303/500/273
f 295/490/274 300/501/274 302/502/274 36/491/274
f 298/184/275 297/183/275 100/503/275 104/504/275
f 385/1/276 474/4/276 475/3/276 372/2/276
f 384/505/277 371/506/277 314/507/277 307/508/277
f 306/9/278 309/12/278 312/11/278 308/10/278
f 308/10/279 312/11/279 310/14/279 307/13/279
f 312/11/280 311/16/280 305/15/280 310/14/280
f 309/12/281 304/17/281 311/16/281 312/11/281
f 304/17/282 321/19/282 324/18/282 311/16/282
f 383/509/283 361/510/283 321/511/283 304/512/283
f 385/513/284 380/514/284 309/515/284 306/516/284
f 380/514/285 383/509/285 304/512/285 309/515/285
f 384/505/286 373/517/286 15/29/286 6/28/286
f 373/517/287 382/518/287 12/31/287 15/29/287
f 371/506/288 366/519/288 316/520/288 314/507/288
f 315/521/289 470/522/289 469/523/289 318/524/289
f 385/513/290 372/525/290 18/39/290 5/28/290
f 307/526/291 462/527/291 463/528/291 308/529/291
f 365/530/292 318/524/292 316/531/292 366/532/292
f 367/533/293 315/521/293 318/524/293 365/530/293
f 318/524/294 469/523/294 468/534/294 316/531/294
f 372/525/295 367/535/295 23/50/295 18/39/295
f 328/52/296 397/55/296 400/54/296 333/53/296
f 399/56/297 412/59/297 410/58/297 402/57/297
f 382/518/298 360/536/298 34/60/298 12/31/298
f 311/16/299 324/18/299 322/62/299 305/15/299
f 321/537/300 396/538/300 395/539/300 324/540/300
f 355/541/301 353/542/301 48/69/301 41/68/301
f 360/536/302 355/541/302 41/68/302 34/60/302
f 361/543/303 406/544/303 407/545/303 321/537/303
f 324/540/304 395/539/304 394/546/304 322/547/304
f 353/542/305 348/548/305 56/76/305 48/69/305
f 354/78/306 414/81/306 411/80/306 359/79/306
f 396/82/307 413/83/307 412/59/307 399/56/307
f 6/28/308 19/39/308 371/506/308 384/505/308
f 340/84/309 345/87/309 344/86/309 339/85/309
f 349/549/310 347/550/310 345/551/310 340/552/310
f 11/92/311 33/93/311 361/510/311 383/509/311
f 5/28/312 14/29/312 380/514/312 385/513/312
f 14/29/313 11/92/313 383/509/313 380/514/313
f 405/553/314 408/554/314 409/555/314 340/556/314
f 322/62/315 394/98/315 397/55/315 328/52/315
f 307/508/316 310/557/316 373/517/316 384/505/316
f 345/87/317 352/101/317 351/100/317 344/86/317
f 347/550/318 342/558/318 352/559/318 345/551/318
f 310/557/319 305/560/319 382/518/319 373/517/319
f 348/548/320 346/561/320 63/105/320 56/76/320
f 19/39/321 24/107/321 366/519/321 371/506/321
f 339/85/322 344/86/322 343/109/322 338/108/322
f 464/562/323 479/563/323 473/564/323 306/565/323
f 520/114/324 518/117/324 517/116/324 519/115/324
f 23/118/325 367/533/325 365/530/325 26/119/325
f 351/100/326 357/122/326 356/121/326 350/120/326
f 470/123/327 478/126/327 477/125/327 467/124/327
f 346/561/328 341/566/328 72/127/328 63/105/328
f 33/93/329 40/68/329 359/567/329 361/510/329
f 344/86/330 351/100/330 350/120/330 343/109/330
f 305/560/331 322/568/331 360/536/331 382/518/331
f 328/569/332 333/570/332 353/542/332 355/541/332
f 357/122/333 522/134/333 521/133/333 356/121/333
f 322/568/334 328/569/334 355/541/334 360/536/334
f 336/571/335 332/572/335 88/137/335 80/136/335
f 342/558/336 337/573/336 358/574/336 352/559/336
f 352/101/337 358/141/337 357/122/337 351/100/337
f 333/570/338 338/575/338 348/548/338 353/542/338
f 341/566/339 336/571/339 80/136/339 72/127/339
f 320/576/340 330/577/340 96/145/340 110/144/340
f 40/68/341 47/69/341 354/578/341 359/567/341
f 379/148/342 370/151/342 369/150/342 524/149/342
f 323/579/343 331/580/343 370/581/343 379/582/343
f 55/156/344 62/157/344 347/550/344 349/549/344
f 337/573/345 335/583/345 364/584/345 358/574/345
f 358/141/346 364/160/346 522/134/346 357/122/346
f 47/69/347 55/156/347 349/549/347 354/578/347
f 391/161/348 376/164/348 375/163/348 392/162/348
f 389/585/349 327/586/349 376/587/349 391/588/349
f 62/157/350 71/169/350 342/558/350 347/550/350
f 338/575/351 343/589/351 346/561/351 348/548/351
f 343/589/352 350/590/352 341/566/352 346/561/352
f 524/149/353 369/150/353 368/173/353 523/172/353
f 356/591/354 521/592/354 332/593/354 336/594/354
f 71/169/355 79/178/355 337/573/355 342/558/355
f 327/586/356 103/181/356 105/180/356 325/595/356
f 392/162/357 375/163/357 560/184/357 559/183/357 393/182/357
f 350/590/358 356/596/358 336/571/358 341/566/358
f 523/597/359 368/598/359 330/577/359 320/576/359
f 107/188/360 95/189/360 331/580/360 323/579/360
f 393/599/361 559/600/361 557/601/361 390/602/361
f 79/178/362 87/194/362 335/583/362 337/573/362
f 374/603/363 377/604/363 561/605/363 326/606/363
f 126/199/364 103/181/364 327/586/364 389/585/364
f 376/587/365 327/586/365 325/595/365 375/607/365
f 536/608/366 553/609/366 552/610/366 535/611/366
f 390/602/367 557/601/367 300/206/367 125/205/367
f 335/583/368 323/579/368 379/582/368 364/584/368
f 364/160/369 379/148/369 524/149/369 522/134/369
f 325/612/370 105/210/370 299/209/370 558/613/370
f 332/593/371 320/576/371 110/144/371 88/211/371
f 369/614/372 387/615/372 388/616/372 368/598/372
f 87/194/373 107/188/373 323/579/373 335/583/373
f 330/577/374 319/617/374 113/215/374 96/145/374
f 521/618/375 523/619/375 320/620/375 332/572/375
f 368/598/376 388/616/376 319/617/376 330/577/376
f 95/189/377 118/221/377 317/621/377 331/580/377
f 331/580/378 317/621/378 386/622/378 370/581/378
f 370/151/379 386/224/379 387/223/379 369/150/379
f 388/616/380 393/599/380 390/602/380 319/617/380
f 118/221/381 126/199/381 389/585/381 317/621/381
f 387/223/382 392/162/382 393/182/382 388/225/382
f 319/617/383 390/602/383 125/205/383 113/215/383
f 317/621/384 389/585/384 391/588/384 386/622/384
f 386/224/385 391/161/385 392/162/385 387/223/385
f 396/82/386 399/56/386 398/227/386 395/226/386
f 398/227/387 401/228/387 400/54/387 397/55/387
f 395/226/388 398/227/388 397/55/388 394/98/388
f 401/228/389 404/230/389 403/229/389 400/54/389
f 399/56/390 402/57/390 401/228/390 398/227/390
f 402/57/391 405/231/391 404/230/391 401/228/391
f 338/623/392 403/624/392 404/625/392 339/626/392
f 333/53/393 400/54/393 403/229/393 338/108/393
f 340/556/394 409/555/394 415/627/394 349/628/394
f 339/626/395 404/625/395 405/553/395 340/556/395
f 407/545/396 329/629/396 423/630/396 413/631/396
f 410/58/397 419/243/397 416/242/397 408/241/397
f 411/80/398 420/246/398 334/245/398 406/244/398
f 414/81/399 424/247/399 420/246/399 411/80/399
f 412/59/400 422/248/400 419/243/400 410/58/400
f 408/554/401 416/632/401 417/633/401 409/555/401
f 402/57/402 410/58/402 408/241/402 405/231/402
f 349/251/403 415/252/403 414/81/403 354/78/403
f 321/537/404 407/545/404 413/631/404 396/538/404
f 359/79/405 411/80/405 406/244/405 361/253/405
f 419/243/406 430/255/406 428/254/406 416/242/406
f 420/246/407 431/257/407 426/256/407 334/245/407
f 424/247/408 434/258/408 431/257/408 420/246/408
f 422/248/409 432/259/409 430/255/409 419/243/409
f 416/632/410 428/634/410 429/635/410 417/633/410
f 423/262/411 433/263/411 432/259/411 422/248/411
f 415/252/412 425/264/412 424/247/412 414/81/412
f 409/555/413 417/633/413 425/636/413 415/627/413
f 406/544/414 334/637/414 329/629/414 407/545/414
f 413/83/415 423/262/415 422/248/415 412/59/415
f 454/638/416 418/639/416 443/640/416 453/641/416
f 450/271/417 439/274/417 436/273/417 451/272/417
f 448/275/418 440/278/418 421/277/418 446/276/418
f 447/279/419 444/280/419 440/278/419 448/275/419
f 449/281/420 442/282/420 439/274/420 450/271/420
f 436/273/421 458/284/421 460/283/421 451/272/421
f 329/629/422 427/642/422 433/643/422 423/630/422
f 425/264/423 435/287/423 434/258/423 424/247/423
f 417/633/424 429/635/424 435/644/424 425/636/424
f 334/637/425 426/645/425 427/642/425 329/629/425
f 421/646/426 440/647/426 441/648/426 418/649/426
f 437/650/427 436/651/427 439/652/427 438/653/427
f 440/647/428 444/654/428 438/653/428 441/648/428
f 441/648/429 442/655/429 443/656/429 418/649/429
f 444/654/430 445/657/430 437/650/430 438/653/430
f 438/653/431 439/652/431 442/655/431 441/648/431
f 455/302/432 445/303/432 444/280/432 447/279/432
f 455/302/433 461/305/433 459/304/433 445/303/433
f 446/658/434 421/659/434 418/639/434 454/638/434
f 453/308/435 443/309/435 442/282/435 449/281/435
f 433/263/436 453/308/436 449/281/436 432/259/436
f 426/645/437 446/658/437 454/638/437 427/642/437
f 429/635/438 452/660/438 455/661/438 435/644/438
f 435/287/439 455/302/439 447/279/439 434/258/439
f 428/634/440 451/662/440 452/660/440 429/635/440
f 432/259/441 449/281/441 450/271/441 430/255/441
f 434/258/442 447/279/442 448/275/442 431/257/442
f 431/257/443 448/275/443 446/276/443 426/256/443
f 430/255/444 450/271/444 451/272/444 428/254/444
f 427/642/445 454/638/445 453/641/445 433/643/445
f 460/663/446 458/664/446 457/665/446 456/666/446
f 456/666/447 457/665/447 459/667/447 461/668/447
f 451/669/448 460/670/448 456/671/448 452/672/448
f 437/650/449 457/673/449 458/674/449 436/651/449
f 452/672/450 456/671/450 461/675/450 455/676/450
f 445/657/451 459/677/451 457/673/451 437/650/451
f 462/328/452 465/331/452 466/330/452 463/329/452
f 466/330/453 469/332/453 470/123/453 467/124/453
f 463/329/454 466/330/454 467/124/454 464/333/454
f 465/331/455 468/334/455 469/332/455 466/330/455
f 308/529/456 463/528/456 464/562/456 306/565/456
f 314/507/457 465/678/457 462/679/457 307/508/457
f 467/124/458 477/125/458 479/337/458 464/333/458
f 316/520/459 468/680/459 465/678/459 314/507/459
f 474/4/460 482/340/460 483/339/460 475/3/460
f 476/681/461 484/682/461 480/683/461 472/684/461
f 473/564/462 481/685/462 482/686/462 474/687/462
f 477/125/463 485/349/463 487/348/463 479/337/463
f 315/521/464 472/684/464 478/688/464 470/522/464
f 367/533/465 476/681/465 472/684/465 315/521/465
f 372/2/466 475/3/466 476/352/466 367/351/466
f 306/565/467 473/564/467 474/687/467 385/689/467
f 498/690/468 492/691/468 488/692/468 501/693/468
f 499/358/469 507/361/469 506/360/469 490/359/469
f 313/362/470 493/365/470 495/364/470 496/363/470
f 497/366/471 491/369/471 492/368/471 498/367/471
f 479/563/472 487/694/472 481/685/472 473/564/472
f 472/684/473 480/683/473 486/695/473 478/688/473
f 478/126/474 486/372/474 485/349/474 477/125/474
f 475/3/475 483/339/475 484/373/475 476/352/475
f 489/696/476 495/697/476 493/698/476 471/699/476
f 489/696/477 471/699/477 491/700/477 490/701/477
f 471/699/478 488/702/478 492/703/478 491/700/478
f 471/699/479 493/698/479 494/704/479 488/702/479
f 499/358/480 490/359/480 491/369/480 497/366/480
f 495/364/481 504/384/481 503/383/481 496/363/481
f 501/693/482 488/692/482 494/705/482 502/706/482
f 502/387/483 494/388/483 493/365/483 313/362/483
f 516/389/484 502/387/484 313/362/484 509/390/484
f 515/707/485 501/693/485 502/706/485 516/708/485
f 512/709/486 496/710/486 500/711/486 511/712/486
f 514/397/487 499/358/487 497/366/487 510/398/487
f 510/398/488 497/366/488 498/367/488 513/399/488
f 509/390/489 313/362/489 496/363/489 512/400/489
f 511/712/490 500/711/490 499/713/490 514/714/490
f 513/715/491 498/690/491 501/693/491 515/707/491
f 508/716/492 505/717/492 506/718/492 507/719/492
f 503/720/493 504/721/493 505/717/493 508/716/493
f 500/722/494 508/723/494 507/724/494 499/725/494
f 490/701/495 506/726/495 505/727/495 489/696/495
f 496/728/496 503/729/496 508/723/496 500/722/496
f 489/696/497 505/727/497 504/730/497 495/697/497
f 484/682/498 513/715/498 515/707/498 480/683/498
f 481/685/499 511/712/499 514/714/499 482/686/499
f 485/349/500 509/390/500 512/400/500 487/348/500
f 483/339/501 510/398/501 513/399/501 484/373/501
f 482/340/502 514/397/502 510/398/502 483/339/502
f 487/694/503 512/709/503 511/712/503 481/685/503
f 480/683/504 515/707/504 516/708/504 486/695/504
f 486/372/505 516/389/505 509/390/505 485/349/505
f 252/419/506 517/731/506 518/732/506 251/420/506
f 519/733/507 517/734/507 252/425/507 257/424/507
f 258/427/508 251/420/508 518/732/508 520/735/508
f 24/107/509 258/430/509 520/736/509 366/519/509
f 365/530/510 519/737/510 257/431/510 26/119/510
f 366/532/511 520/735/511 519/737/511 365/530/511
f 362/433/512 521/133/512 522/134/512 363/434/512
f 537/435/513 523/172/513 521/133/513 362/433/513
f 363/434/514 522/134/514 524/149/514 538/436/514
f 538/436/515 524/149/515 523/172/515 537/435/515 545/438/515 546/437/515
f 362/738/516 525/739/516 541/740/516 537/741/516
f 528/443/517 542/446/517 540/445/517 526/444/517
f 538/436/518 544/448/518 529/447/518 363/434/518
f 540/742/519 539/743/519 527/744/519 526/745/519
f 539/743/520 541/740/520 525/739/520 527/744/520
f 528/443/521 530/454/521 543/453/521 542/446/521
f 530/454/522 529/447/522 544/448/522 543/453/522
f 363/746/523 529/747/523 530/748/523 528/749/523 526/750/523 527/751/523 525/752/523 362/753/523
f 378/754/524 538/755/524 546/756/524
f 533/757/525 539/758/525 540/759/525 531/760/525
f 532/761/526 541/762/526 539/758/526 533/757/526
f 535/611/527 542/763/527 543/764/527 536/608/527
f 536/608/528 543/764/528 544/765/528 534/766/528
f 531/760/529 540/759/529 542/763/529 535/611/529
f 381/767/530 537/768/530 541/762/530 532/761/530
f 534/766/531 544/765/531 538/755/531 378/754/531
f 547/769/532 551/770/532 549/771/532 550/772/532 552/610/532 553/609/532 554/773/532 548/774/532
f 545/775/533 537/768/533 381/767/533
f 532/761/534 551/770/534 547/769/534 381/767/534
f 556/776/535 555/777/535 547/769/535 548/774/535
f 381/767/536 547/769/536 555/777/536 545/775/536
f 378/754/537 548/774/537 554/773/537 534/766/537
f 534/766/538 554/773/538 553/609/538 536/608/538
f 531/760/539 550/772/539 549/771/539 533/757/539
f 545/438/540 555/488/540 556/487/540 546/437/540
f 535/611/541 552/610/541 550/772/541 531/760/541
f 546/756/542 556/776/542 548/774/542 378/754/542
f 533/757/543 549/771/543 551/770/543 532/761/543
f 559/778/544 374/779/544 326/780/544 557/781/544
f 558/613/545 561/605/545 377/604/545 560/782/545
f 375/783/546 325/612/546 558/613/546 560/782/546
f 326/606/547 561/605/547 303/496/547 302/495/547
f 299/497/548 303/500/548 561/784/548 558/785/548
f 557/781/549 326/780/549 302/502/549 300/501/549
f 560/184/550 377/504/550 374/503/550 559/183/550
f 562/786/551 575/787/551 574/788/551
f 563/789/552 575/790/552 577/791/552
f 562/792/553 574/793/553 579/794/553
f 562/795/554 579/796/554 581/797/554
f 562/798/555 581/799/555 578/800/555
f 563/789/556 577/791/556 584/801/556
f 564/802/557 576/803/557 586/804/557
f 565/805/558 580/806/558 588/807/558
f 566/808/559 582/809/559 590/810/559
f 567/811/560 583/812/560 592/813/560
f 563/789/561 584/801/561 587/814/561
f 564/802/562 586/804/562 589/815/562
f 565/805/563 588/807/563 591/816/563
f 566/808/564 590/810/564 593/817/564
f 567/811/565 592/813/565 585/818/565
f 568/819/566 594/820/566 599/821/566
f 569/822/567 595/823/567 601/824/567
f 570/825/568 596/826/568 602/827/568
f 571/828/569 597/829/569 603/830/569
f 572/831/570 598/832/570 600/833/570
f 600/833/571 603/834/571 573/835/571
f 600/833/572 598/832/572 603/834/572
f 598/832/573 571/828/573 603/834/573
f 603/830/574 602/836/574 573/837/574
f 603/830/575 597/829/575 602/836/575
f 597/829/576 570/825/576 602/836/576
f 602/827/577 601/838/577 573/839/577
f 602/827/578 596/826/578 601/838/578
f 596/826/579 569/840/579 601/838/579
f 601/824/580 599/841/580 573/842/580
f 601/824/581 595/823/581 599/841/581
f 595/823/582 568/819/582 599/841/582
f 599/821/583 600/843/583 573/844/583
f 599/821/584 594/820/584 600/843/584
f 594/820/585 572/831/585 600/843/585
f 585/818/586 598/832/586 572/831/586
f 585/818/587 592/813/587 598/832/587
f 592/813/588 571/828/588 598/832/588
f 593/817/589 597/829/589 571/828/589
f 593/817/590 590/810/590 597/829/590
f 590/810/591 570/825/591 597/829/591
f 591/816/592 596/826/592 570/825/592
f 591/816/593 588/807/593 596/826/593
f 588/807/594 569/840/594 596/826/594
f 589/815/595 595/823/595 569/822/595
f 589/815/596 586/804/596 595/823/596
f 586/804/597 568/819/597 595/823/597
f 587/814/598 594/820/598 568/819/598
f 587/814/599 584/801/599 594/820/599
f 584/801/600 572/831/600 594/820/600
f 592/813/601 593/817/601 571/828/601
f 592/813/602 583/812/602 593/817/602
f 583/812/603 566/808/603 593/817/603
f 590/810/604 591/816/604 570/825/604
f 590/810/605 582/809/605 591/816/605
f 582/809/606 565/805/606 591/816/606
f 588/807/607 589/845/607 569/840/607
f 588/807/608 580/806/608 589/845/608
f 580/806/609 564/846/609 589/845/609
f 586/804/610 587/814/610 568/819/610
f 586/804/611 576/803/611 587/814/611
f 576/803/612 563/789/612 587/814/612
f 584/801/613 585/818/613 572/831/613
f 584/801/614 577/791/614 585/818/614
f 577/791/615 567/811/615 585/818/615
f 578/800/616 583/812/616 567/811/616
f 578/800/617 581/799/617 583/812/617
f 581/799/618 566/808/618 583/812/618
f 581/797/619 582/809/619 566/808/619
f 581/797/620 579/796/620 582/809/620
f 579/796/621 565/805/621 582/809/621
f 579/794/622 580/806/622 565/805/622
f 579/794/623 574/793/623 580/806/623
f 574/793/624 564/846/624 580/806/624
f 577/791/625 578/847/625 567/811/625
f 577/791/626 575/790/626 578/847/626
f 575/790/627 562/848/627 578/847/627
f 574/788/628 576/803/628 564/802/628
f 574/788/629 575/787/629 576/803/629
f 575/787/630 563/789/630 576/803/630
f 604/786/631 616/788/631 617/787/631
f 605/789/632 619/791/632 617/790/632
f 604/792/633 621/794/633 616/793/633
f 604/795/634 623/797/634 621/796/634
f 604/798/635 620/800/635 623/799/635
f 605/789/636 626/801/636 619/791/636
f 606/802/637 628/804/637 618/803/637
f 607/805/638 630/807/638 622/806/638
f 608/808/639 632/810/639 624/809/639
f 609/811/640 634/813/640 625/812/640
f 605/789/641 629/814/641 626/801/641
f 606/802/642 631/815/642 628/804/642
f 607/805/643 633/816/643 630/807/643
f 608/808/644 635/817/644 632/810/644
f 609/811/645 627/818/645 634/813/645
f 610/819/646 641/821/646 636/820/646
f 611/822/647 643/824/647 637/823/647
f 612/825/648 644/827/648 638/826/648
f 613/828/649 645/830/649 639/829/649
f 614/831/650 642/833/650 640/832/650
f 642/833/651 615/835/651 645/834/651
f 642/833/652 645/834/652 640/832/652
f 640/832/653 645/834/653 613/828/653
f 645/830/654 615/837/654 644/836/654
f 645/830/655 644/836/655 639/829/655
f 639/829/656 644/836/656 612/825/656
f 644/827/657 615/839/657 643/838/657
f 644/827/658 643/838/658 638/826/658
f 638/826/659 643/838/659 611/840/659
f 643/824/660 615/842/660 641/841/660
f 643/824/661 641/841/661 637/823/661
f 637/823/662 641/841/662 610/819/662
f 641/821/663 615/844/663 642/843/663
f 641/821/664 642/843/664 636/820/664
f 636/820/665 642/843/665 614/831/665
f 627/818/666 614/831/666 640/832/666
f 627/818/667 640/832/667 634/813/667
f 634/813/668 640/832/668 613/828/668
f 635/817/669 613/828/669 639/829/669
f 635/817/670 639/829/670 632/810/670
f 632/810/671 639/829/671 612/825/671
f 633/816/672 612/825/672 638/826/672
f 633/816/673 638/826/673 630/807/673
f 630/807/674 638/826/674 611/840/674
f 631/815/675 611/822/675 637/823/675
f 631/815/676 637/823/676 628/804/676
f 628/804/677 637/823/677 610/819/677
f 629/814/678 610/819/678 636/820/678
f 629/814/679 636/820/679 626/801/679
f 626/801/680 636/820/680 614/831/680
f 634/813/681 613/828/681 635/817/681
f 634/813/682 635/817/682 625/812/682
f 625/812/683 635/817/683 608/808/683
f 632/810/684 612/825/684 633/816/684
f 632/810/685 633/816/685 624/809/685
f 624/809/686 633/816/686 607/805/686
f 630/807/687 611/840/687 631/845/687
f 630/807/688 631/845/688 622/806/688
f 622/806/689 631/845/689 606/846/689
f 628/804/690 610/819/690 629/814/690
f 628/804/691 629/814/691 618/803/691
f 618/803/692 629/814/692 605/789/692
f 626/801/693 614/831/693 627/818/693
f 626/801/694 627/818/694 619/791/694
f 619/791/695 627/818/695 609/811/695
f 620/800/696 609/811/696 625/812/696
f 620/800/697 625/812/697 623/799/697
f 623/799/698 625/812/698 608/808/698
f 623/797/699 608/808/699 624/809/699
f 623/797/700 624/809/700 621/796/700
f 621/796/701 624/809/701 607/805/701
f 621/794/702 607/805/702 622/806/702
f 621/794/703 622/806/703 616/793/703
f 616/793/704 622/806/704 606/846/704
f 619/791/705 609/811/705 620/847/705
f 619/791/706 620/847/706 617/790/706
f 617/790/707 620/847/707 604/848/707
f 616/788/708 606/802/708 618/803/708
f 616/788/709 618/803/709 617/787/709
f 617/787/710 618/803/710 605/789/710
