# Blender 5.1.1
# www.blender.org
o Куб.001
v 0.547441 0.995714 0.620222
v 0.532479 2.426607 0.476811
v 0.602276 1.047011 -0.233427
v 0.619472 2.363997 -0.214452
v -0.003323 1.010663 -0.323519
v -0.000000 2.480862 -0.357245
v 0.708422 1.673835 0.018589
v 0.616722 0.935993 0.138163
v 0.609568 2.445849 0.127163
v 0.653243 1.652479 0.513078
v 0.000823 0.955228 0.671219
v -0.000000 2.544096 0.544675
v 0.718904 1.671333 0.125491
v -0.002728 0.905757 0.184667
v -0.000000 2.614716 0.130571
v 0.821408 0.387785 -1.045597
v 0.537649 2.263482 -0.502741
v -0.003017 1.096278 -0.582505
v 0.000000 2.280686 -0.622767
v 0.464354 1.357752 -0.808565
v 0.464300 2.100649 -0.750024
v 0.090363 0.784769 3.090837
v -0.002039 1.212906 -0.803404
v -0.000000 2.103516 -0.887623
v 0.561850 1.719259 -0.864642
v -0.000353 1.594417 -0.916552
v 0.084677 1.170392 3.199092
v 0.172094 1.576074 3.041679
v 0.476682 1.186017 1.215732
v 0.499981 2.377512 0.889562
v 0.175772 0.824171 2.892637
v 0.617498 1.674461 0.875486
v 0.003207 0.992170 1.116228
v -0.000033 2.487471 0.979386
v 0.059274 0.777983 3.322318
v 0.033850 0.929564 3.401898
v 0.047665 0.741223 3.207865
v 0.570340 2.528199 1.239684
v 0.544841 0.582537 1.462134
v 0.001120 0.941551 1.471019
v 0.002962 2.649897 1.345333
v 0.118300 1.379714 3.210402
v 0.136209 0.791131 3.004790
v 0.177045 1.775863 2.831977
v 0.583003 2.528340 1.435916
v 0.448849 0.586712 1.518699
v -0.000122 0.979922 1.618193
v 0.001379 2.654612 1.544466
v 0.190837 0.865065 2.779205
v 0.177045 1.907221 2.656245
v 0.177045 0.912534 2.640368
v 0.540207 2.469419 1.719261
v 0.665310 1.947665 1.766359
v 0.552181 1.179452 1.973142
v -0.000470 1.076083 1.781283
v 0.000031 2.587740 1.817999
v 0.181751 2.060607 2.403383
v 0.181751 1.086614 2.300460
v 0.452144 2.255000 2.006229
v 0.556525 1.646623 1.932446
v 0.458805 1.375442 1.944994
v -0.000150 1.161696 1.912579
v -0.000000 2.337334 2.103260
v 0.227127 2.303801 2.070559
v 0.229602 1.259576 1.929043
v 0.271600 2.554620 1.765669
v 0.358595 1.121066 1.765499
v 0.364925 2.003640 2.358736
v 0.445097 1.435998 2.317395
v 0.364925 1.140130 2.247701
v 0.000000 1.051876 2.310233
v 0.000000 2.089754 2.405596
v 0.293580 2.618873 1.479477
v 0.304851 1.111006 1.658204
v 0.287216 2.616455 1.276949
v 0.355746 1.858829 2.612878
v 0.433703 1.366703 2.594670
v 0.355746 0.963530 2.594045
v 0.000000 0.886457 2.626032
v 0.000000 1.934505 2.643544
v 0.312778 1.165796 1.624601
v 0.250990 2.456718 0.911335
v 0.340747 1.169639 1.387120
v 0.372539 1.595250 2.781912
v 0.455708 1.386297 2.739740
v 0.382651 0.918107 2.737805
v 0.000000 0.839951 2.760195
v 0.000000 1.805808 2.813556
v 0.248960 1.643940 -0.899332
v 0.203268 2.098251 -0.851548
v 0.324496 1.296582 -0.769927
v 0.241143 1.356495 3.156324
v 0.339854 1.122530 3.039627
v 0.276080 0.830556 2.969326
v 0.000000 0.783334 2.968991
v 0.000000 1.405216 3.182946
v 0.249692 2.252878 -0.660590
v 0.282540 1.129523 -0.543779
v 0.307155 2.556901 0.093937
v 0.069124 0.931870 3.379818
v 0.125993 0.796242 3.285895
v 0.103346 0.767365 3.206815
v 0.000000 0.730386 3.215935
v 0.064203 0.879713 3.381460
v 0.000000 0.768401 3.317005
v 0.465527 1.423543 2.829955
v 0.000000 0.807639 2.866784
v 0.353261 0.870707 2.852741
v 0.310563 0.902955 0.111699
v 0.000000 1.608757 3.019850
v 0.402860 1.555790 2.862781
v 0.267639 2.510685 0.480969
v 0.000000 1.173062 3.198416
v 0.277943 0.951229 0.620816
v 0.301735 2.446752 -0.393358
v 0.356925 1.006926 -0.301953
v 0.186642 0.817668 3.056607
v 0.000000 0.783811 3.049573
v 0.210413 0.959380 3.162772
v 0.175549 1.138609 3.173862
v 0.070240 0.763017 3.144082
v 0.067630 1.012902 3.310757
v 0.139993 0.782242 3.137969
v 0.161300 0.878704 3.223799
v 0.000000 1.022105 3.300080
v 0.000000 0.757603 3.128845
v 0.134901 1.004374 3.279161
v 0.611283 2.257270 0.987846
v 0.718006 1.672828 0.938064
v 0.675608 1.289032 1.236599
v 0.671127 2.406911 1.230991
v 0.800137 1.756682 1.425786
v 0.825783 1.244893 1.672143
v 0.636415 2.424495 1.417927
v 0.810743 1.851609 1.578042
v 0.833362 1.229445 1.851395
v 0.639663 2.299047 1.588310
v 0.759250 1.946090 1.737822
v 0.762424 1.240070 1.981606
v 0.440062 0.838532 1.412932
v 0.540500 0.870061 1.342380
v 0.743710 0.815598 1.876640
v 0.591556 0.793634 1.918622
v 0.795578 0.805750 1.757868
v 0.411522 0.787671 1.639403
v 0.790600 0.819128 1.628109
v 0.683371 0.886141 1.340600
v 0.411349 0.768608 1.771151
v 0.453655 0.780949 1.854695
v 0.748027 0.630504 1.833181
v 0.598625 0.632694 1.874158
v 0.539334 0.137995 1.479243
v 0.801182 0.612333 1.746422
v 0.422772 0.596115 1.651831
v 0.422395 0.140679 1.532948
v 0.792779 0.597993 1.646741
v 0.682366 0.584761 1.470255
v 0.420741 0.612009 1.765663
v 0.462074 0.627365 1.837189
v 0.443739 0.388292 1.508374
v 0.549320 0.380294 1.457171
v 0.774779 0.430202 1.799379
v 0.611636 0.434067 1.837598
v 0.797178 0.411375 1.718251
v 0.421591 0.401469 1.629544
v 0.789834 0.394833 1.625511
v 0.702012 0.378911 1.465305
v 0.421239 0.419107 1.733480
v 0.463253 0.433553 1.799069
v 0.815487 0.128063 1.838462
v 0.607678 0.119034 1.870823
v 0.649939 0.132991 1.750062
v 0.814898 0.134441 1.752385
v 0.397978 0.141904 1.660510
v 0.642520 0.137678 1.649449
v 0.808206 0.134772 1.658697
v 0.708541 0.135605 1.488909
v 0.399890 0.140727 1.768135
v 0.415955 0.134770 1.835999
v 0.430495 0.266920 1.525429
v 0.408871 0.289518 1.760515
v 0.406963 0.277374 1.651143
v 0.802153 0.269539 1.648196
v 0.808661 0.282179 1.744297
v 0.790724 0.349116 1.824773
v 0.613514 0.338182 1.873731
v 0.706838 0.257413 1.481939
v 0.543392 0.259463 1.472841
v 0.451957 0.353759 1.824211
v 0.603540 0.220415 2.011440
v 0.602484 0.098417 2.005163
v 0.780142 0.107731 1.970388
v 0.441248 0.111953 1.969639
v 0.775275 0.231183 1.974589
v 0.448014 0.237530 1.973009
v 0.762347 2.219637 -0.269071
v 0.786868 1.680315 -0.080386
v 0.762461 1.092892 -0.300822
v 0.752301 2.144171 -0.506330
v 0.858087 1.710657 -0.565772
v 0.810223 1.208990 -0.533257
v 0.742113 2.029481 -0.707465
v 0.837758 1.724331 -0.784086
v 0.742186 1.350014 -0.767578
v 0.604417 0.202788 -1.181663
v 0.522842 1.074806 -0.956184
v 0.633364 0.872411 -0.371000
v 0.436661 0.879872 -0.433740
v 0.377270 0.964068 -0.684382
v 0.410740 1.055333 -0.913401
v 0.800119 0.976767 -0.676743
v 0.745599 1.060599 -0.918266
v 0.761810 0.898562 -0.444462
v 0.539280 0.886457 -0.987867
v 0.640308 0.469160 -0.626777
v 0.461102 0.514020 -0.675875
v 0.406823 0.710409 -0.817411
v 0.437180 0.858681 -0.959271
v 0.791994 0.704761 -0.799657
v 0.742206 0.863704 -0.957155
v 0.757256 0.525702 -0.665505
v 0.547446 0.364956 -1.354524
v 0.667060 0.061699 -1.011325
v 0.412169 0.084551 -1.061478
v 0.399971 0.213923 -1.207217
v 0.433809 0.339459 -1.332812
v 0.828653 0.213626 -1.190927
v 0.773298 0.344475 -1.330462
v 0.833490 0.096874 -1.054185
v 0.824322 0.272326 -0.912042
v 0.392726 0.388372 -1.062496
v 0.426561 0.511053 -1.189600
v 0.403000 0.261098 -0.919120
v 0.657903 0.235701 -0.872243
v 0.540196 0.536495 -1.211222
v 0.766049 0.516260 -1.186756
v 0.782818 0.104889 -0.884173
v 0.789917 0.009993 -0.945851
v 0.659714 -0.025325 -0.903713
v 0.460300 -0.002410 -0.953034
v 0.453204 0.091251 -0.891457
v 0.652612 0.072147 -0.840989
v 0.783264 0.560451 -0.911505
v 0.424041 0.561869 -0.925055
v 0.641724 0.398466 -0.751183
v 0.750814 0.436693 -0.788795
v 0.452363 0.683093 -1.037500
v 0.474605 0.427263 -0.794775
v 0.547581 0.707067 -1.057465
v 0.736841 0.687488 -1.035315
v -0.000000 1.964712 -0.963352
v -0.000000 1.715167 -1.003691
v 0.092420 1.732961 -0.967545
v 0.076591 1.955334 -0.937061
v 0.127600 1.722680 -0.919000
v 0.088882 2.048142 -0.898695
v -0.000000 1.692332 -0.956154
v -0.000000 2.059583 -0.930772
v 0.353936 1.730976 2.711335
v 0.462452 1.309893 2.696209
v 0.346085 1.535757 2.990304
v 0.469988 1.268815 2.896470
v 0.431634 1.631702 2.823441
v 0.509515 1.614194 2.839293
v 0.472450 1.637653 2.840707
v 0.537234 1.578597 2.827546
v 0.536419 1.494663 2.792854
v 0.550043 1.537233 2.811859
v 0.514399 1.574095 2.872891
v 0.455471 1.584990 2.876472
v 0.486059 1.589515 2.878996
v 0.527030 1.500702 2.848002
v 0.527210 1.559621 2.866873
v 0.537319 1.531058 2.856677
v 0.372831 1.565018 2.865416
v 0.460350 1.380615 2.817216
v 0.490673 1.612975 2.886126
v 0.529939 1.591422 2.878183
v 0.447174 1.606467 2.882965
v 0.548145 1.570623 2.870265
v 0.562047 1.531140 2.856777
v 0.548125 1.490079 2.844862
v 0.383871 1.541142 2.859152
v 0.450291 1.401877 2.822727
v 0.413090 1.540795 2.847560
v 0.458299 1.445507 2.823879
v 0.473111 1.565162 2.859264
v 0.493557 1.554073 2.854871
v 0.451044 1.561900 2.857439
v 0.502798 1.543658 2.850537
v 0.510091 1.523092 2.843194
v 0.502668 1.501261 2.836958
v 0.399391 1.530367 2.844970
v 0.447307 1.429860 2.818627
v 0.058900 0.943756 3.370406
v 0.055763 0.855727 3.374783
v 0.099802 0.948316 3.342609
v 0.095412 0.859965 3.347838
v 0.000000 0.855692 3.377833
v 0.000000 0.941119 3.373694
v 0.030579 0.877585 3.402871
v 0.000000 0.927800 3.400692
v 0.000000 0.877403 3.402244
v -0.546361 1.156128 0.601706
v -0.532457 2.435097 0.474097
v -0.615162 1.244210 0.037500
v -0.618501 2.387934 -0.229694
v -0.712411 1.828455 0.077544
v -0.623125 1.161167 0.287070
v -0.609054 2.461321 0.119335
v -0.653450 1.752408 0.514172
v -0.722237 1.827550 0.174207
v -0.846987 0.294623 -0.318454
v -0.535993 2.292962 -0.530400
v -0.475312 1.279195 -0.634060
v -0.464509 2.091206 -0.749225
v -0.090362 0.784769 3.090837
v -0.566662 1.680051 -0.807128
v -0.084677 1.170392 3.199092
v -0.172094 1.576078 3.041680
v -0.467550 1.192713 0.999096
v -0.501399 2.381738 0.889731
v -0.175772 0.824171 2.892637
v -0.617133 1.702045 0.852050
v -0.059274 0.777983 3.322318
v -0.033850 0.929564 3.401898
v -0.047665 0.741223 3.207865
v -0.568727 2.544257 1.239717
v -0.577390 0.584453 0.917635
v -0.118300 1.379714 3.210402
v -0.136209 0.791131 3.004790
v -0.177045 1.775863 2.831977
v -0.581232 2.546145 1.435953
v -0.482029 0.562121 0.970759
v -0.190837 0.865065 2.779205
v -0.177045 1.907221 2.656245
v -0.177045 0.912534 2.640368
v -0.540804 2.482193 1.719300
v -0.679419 1.748082 1.716547
v -0.560153 0.947806 1.722239
v -0.181751 2.060607 2.403383
v -0.181751 1.086614 2.300460
v -0.456395 2.241533 2.015572
v -0.559229 1.552136 1.906855
v -0.459163 1.282626 1.893272
v -0.227455 2.303921 2.070561
v -0.230026 1.211704 1.899304
v -0.271032 2.555599 1.765667
v -0.361244 1.007555 1.639741
v -0.364925 2.003640 2.358735
v -0.445487 1.421940 2.315728
v -0.364925 1.140130 2.247702
v -0.288972 2.623584 1.479459
v -0.305465 1.009057 1.524813
v -0.282208 2.621760 1.276932
v -0.355746 1.858829 2.612878
v -0.433703 1.366704 2.594672
v -0.355746 0.963531 2.594049
v -0.306780 1.043766 1.408416
v -0.251255 2.457278 0.911339
v -0.331877 1.111829 1.161191
v -0.372539 1.595250 2.781912
v -0.455708 1.386304 2.739746
v -0.382651 0.918108 2.737809
v -0.250569 1.622938 -0.883621
v -0.203249 2.094087 -0.852339
v -0.334408 1.240575 -0.604119
v -0.241143 1.356502 3.156327
v -0.339854 1.122530 3.039627
v -0.276080 0.830556 2.969326
v -0.249399 2.253144 -0.665708
v -0.293607 1.166228 -0.353521
v -0.307091 2.558340 0.092943
v -0.069124 0.931870 3.379818
v -0.125993 0.796242 3.285895
v -0.103346 0.767365 3.206815
v -0.064203 0.879713 3.381460
v -0.465527 1.423560 2.829964
v -0.353261 0.870707 2.852741
v -0.318270 1.040634 0.225897
v -0.402860 1.555825 2.862787
v -0.267632 2.510732 0.480969
v -0.276381 1.042670 0.600456
v -0.301338 2.451452 -0.399759
v -0.369372 1.134144 -0.058163
v -0.186642 0.817668 3.056607
v -0.210413 0.959380 3.162772
v -0.175549 1.138609 3.173862
v -0.070240 0.763017 3.144082
v -0.067630 1.012902 3.310757
v -0.139993 0.782242 3.137969
v -0.161300 0.878704 3.223799
v -0.134901 1.004374 3.279161
v -0.618287 2.270951 0.989741
v -0.716945 1.684254 0.900755
v -0.665688 1.291370 1.023497
v -0.676355 2.425725 1.237460
v -0.809959 1.654805 1.324819
v -0.827718 1.109835 1.381220
v -0.639678 2.443635 1.420037
v -0.823643 1.694924 1.494454
v -0.839044 1.023872 1.539192
v -0.651676 2.301580 1.601708
v -0.774704 1.746543 1.684026
v -0.769299 0.985262 1.687792
v -0.459763 0.823383 0.981409
v -0.557079 0.884852 0.929968
v -0.775566 0.628181 1.393334
v -0.625030 0.582935 1.430333
v -0.825788 0.670796 1.281231
v -0.440184 0.683133 1.164660
v -0.817601 0.736368 1.168180
v -0.701075 0.908247 0.933481
v -0.443686 0.610724 1.287916
v -0.485574 0.590958 1.386499
v -0.784148 0.468156 1.272316
v -0.635406 0.453503 1.308110
v -0.569994 0.130741 0.732456
v -0.836313 0.489665 1.185685
v -0.457243 0.511859 1.094839
v -0.453670 0.120338 0.787078
v -0.826851 0.519774 1.089429
v -0.714907 0.584129 0.925277
v -0.456533 0.476575 1.203900
v -0.498631 0.460909 1.274220
v -0.476118 0.388461 0.866368
v -0.581287 0.403540 0.817464
v -0.809767 0.312635 1.141635
v -0.647350 0.309534 1.173689
v -0.831083 0.324345 1.062757
v -0.454990 0.350340 0.980982
v -0.822972 0.346388 0.975253
v -0.734030 0.399742 0.824438
v -0.455894 0.325913 1.080660
v -0.498808 0.316245 1.144259
v -0.850714 0.063268 1.095337
v -0.643794 0.071171 1.137372
v -0.683757 0.074875 1.013715
v -0.848661 0.068829 1.006165
v -0.430638 0.090073 0.914550
v -0.674968 0.086533 0.899946
v -0.840760 0.081847 0.905692
v -0.739280 0.125546 0.739183
v -0.434006 0.076005 1.028327
v -0.451222 0.071093 1.098907
v -0.462723 0.264313 0.824910
v -0.443342 0.206350 1.048687
v -0.440265 0.227892 0.944619
v -0.835376 0.222186 0.937562
v -0.842830 0.201688 1.028714
v -0.825978 0.241970 1.125185
v -0.650485 0.252453 1.153687
v -0.738721 0.274059 0.780437
v -0.575200 0.278558 0.773587
v -0.487279 0.247833 1.129054
v -0.643208 0.171803 1.272323
v -0.641070 0.059899 1.272888
v -0.817778 0.052811 1.231321
v -0.478972 0.059950 1.236585
v -0.813816 0.163673 1.234488
v -0.486471 0.167185 1.239516
v -0.760562 2.300145 -0.297027
v -0.791636 1.836262 -0.009911
v -0.775033 1.263279 -0.041232
v -0.751756 2.186563 -0.516495
v -0.863673 1.750008 -0.488072
v -0.822562 1.264319 -0.299565
v -0.743448 2.028489 -0.695222
v -0.843656 1.704962 -0.709102
v -0.753996 1.287518 -0.576170
v -0.633326 0.062790 -0.317377
v -0.539001 0.941984 -0.614135
v -0.648839 1.041229 -0.002812
v -0.452471 1.011695 -0.069254
v -0.393321 0.972419 -0.329308
v -0.426908 0.943809 -0.567716
v -0.815940 0.992618 -0.319105
v -0.761710 0.950962 -0.573443
v -0.777309 1.033830 -0.077047
v -0.557942 0.749316 -0.553165
v -0.662025 0.590860 -0.016088
v -0.482588 0.598787 -0.081804
v -0.426740 0.683628 -0.309622
v -0.456038 0.737926 -0.513602
v -0.811827 0.694240 -0.292079
v -0.760958 0.747647 -0.514792
v -0.778494 0.618243 -0.080138
v -0.575690 0.083111 -0.555608
v -0.696155 0.073248 -0.096412
v -0.441519 0.048294 -0.150784
v -0.428961 0.052530 -0.346833
v -0.462205 0.075219 -0.522887
v -0.857473 0.068645 -0.334759
v -0.801581 0.085294 -0.524590
v -0.862576 0.069222 -0.153586
v -0.850387 0.279340 -0.146143
v -0.418461 0.279102 -0.332750
v -0.451629 0.306942 -0.506470
v -0.429288 0.260801 -0.145386
v -0.684144 0.271548 -0.093093
v -0.565075 0.317351 -0.538602
v -0.790987 0.318278 -0.507187
v -0.810404 0.185082 -0.030392
v -0.819085 0.077687 -0.014126
v -0.688906 0.080739 0.041786
v -0.489724 0.057919 -0.011073
v -0.481090 0.162511 -0.026283
v -0.680179 0.190865 0.023310
v -0.805720 0.512468 -0.302387
v -0.446605 0.500682 -0.314198
v -0.665151 0.467320 -0.081389
v -0.774008 0.479080 -0.133102
v -0.474109 0.538727 -0.477205
v -0.497981 0.464136 -0.133455
v -0.569139 0.549038 -0.507680
v -0.758486 0.547697 -0.478308
v -0.092526 1.731282 -0.966013
v -0.076591 1.955334 -0.937061
v -0.128022 1.715450 -0.915133
v -0.088882 2.048142 -0.898695
v -0.353936 1.730976 2.711335
v -0.462452 1.309897 2.696215
v -0.346085 1.535766 2.990305
v -0.469988 1.268820 2.896474
v -0.431634 1.631750 2.823439
v -0.509515 1.614276 2.839293
v -0.472450 1.637731 2.840703
v -0.537234 1.578687 2.827555
v -0.536419 1.494714 2.792872
v -0.550043 1.537300 2.811874
v -0.514399 1.574165 2.872898
v -0.455471 1.585054 2.876477
v -0.486059 1.589585 2.879001
v -0.527030 1.500757 2.848018
v -0.527210 1.559690 2.866883
v -0.537319 1.531123 2.856691
v -0.372831 1.565031 2.865418
v -0.460350 1.380625 2.817222
v -0.490673 1.613052 2.886127
v -0.529939 1.591501 2.878188
v -0.447174 1.606530 2.882967
v -0.548145 1.570701 2.870275
v -0.562047 1.531209 2.856792
v -0.548125 1.490136 2.844881
v -0.383871 1.541179 2.859159
v -0.450291 1.401887 2.822733
v -0.413090 1.540835 2.847568
v -0.458299 1.445522 2.823886
v -0.473111 1.565221 2.859272
v -0.493557 1.554123 2.854879
v -0.451044 1.561964 2.857448
v -0.502798 1.543713 2.850548
v -0.510091 1.523153 2.843209
v -0.502668 1.501310 2.836973
v -0.399391 1.530403 2.844978
v -0.447307 1.429874 2.818635
v -0.058900 0.943756 3.370406
v -0.055763 0.855727 3.374783
v -0.099802 0.948316 3.342609
v -0.095412 0.859965 3.347838
v -0.030579 0.877585 3.402871
v 0.291561 1.151314 3.073470
v 0.306648 1.219012 3.090649
v 0.269728 1.148143 3.115277
v 0.232186 1.108087 3.112022
v 0.245906 1.154201 3.085382
v 0.291926 1.222756 3.072172
v 0.256597 1.217625 3.139820
v 0.210577 1.149069 3.153029
v 0.195855 1.152813 3.134553
v 0.232775 1.223683 3.109925
v 0.270316 1.263739 3.113179
v 0.210942 1.220512 3.151732
v 0.285805 1.143375 3.091173
v 0.307506 1.185031 3.076697
v 0.294673 1.183167 3.101271
v 0.307720 1.227024 3.075935
v 0.298852 1.187232 3.065837
v 0.263739 1.119831 3.089260
v 0.250905 1.117967 3.113834
v 0.271803 1.146936 3.073601
v 0.236903 1.121528 3.096262
v 0.272017 1.188929 3.072839
v 0.295019 1.251113 3.100038
v 0.286365 1.253314 3.089178
v 0.265254 1.182352 3.130173
v 0.286955 1.224008 3.115697
v 0.216138 1.118512 3.136024
v 0.238204 1.142056 3.137938
v 0.215548 1.147817 3.109505
v 0.207484 1.120712 3.125164
v 0.264299 1.229770 3.087265
v 0.237249 1.189474 3.095029
v 0.265600 1.250298 3.128940
v 0.230486 1.182897 3.152363
v 0.194783 1.144801 3.149267
v 0.207830 1.188658 3.123931
v 0.251598 1.253859 3.111368
v 0.230700 1.224889 3.151600
v 0.238764 1.251994 3.135942
v 0.203650 1.184594 3.159365
v 0.194997 1.186794 3.148505
v 0.216698 1.228450 3.134029
v -0.291561 1.151314 3.073470
v -0.306648 1.219012 3.090649
v -0.269728 1.148143 3.115278
v -0.232186 1.108087 3.112023
v -0.245906 1.154201 3.085382
v -0.291925 1.222756 3.072173
v -0.256597 1.217625 3.139820
v -0.210577 1.149069 3.153029
v -0.195854 1.152813 3.134553
v -0.232775 1.223683 3.109925
v -0.270316 1.263739 3.113179
v -0.210942 1.220511 3.151733
v -0.285805 1.143375 3.091173
v -0.307506 1.185031 3.076697
v -0.294673 1.183167 3.101271
v -0.307720 1.227024 3.075935
v -0.298852 1.187232 3.065837
v -0.263739 1.119831 3.089261
v -0.250905 1.117967 3.113834
v -0.271803 1.146936 3.073601
v -0.236903 1.121528 3.096262
v -0.272017 1.188929 3.072839
v -0.295019 1.251113 3.100038
v -0.286365 1.253314 3.089178
v -0.265254 1.182352 3.130173
v -0.286955 1.224008 3.115697
v -0.216137 1.118511 3.136024
v -0.238204 1.142056 3.137938
v -0.215548 1.147817 3.109505
v -0.207484 1.120712 3.125164
v -0.264299 1.229770 3.087265
v -0.237249 1.189473 3.095029
v -0.265599 1.250298 3.128940
v -0.230486 1.182897 3.152363
v -0.194782 1.144801 3.149267
v -0.207830 1.188658 3.123931
v -0.251597 1.253858 3.111368
v -0.230700 1.224889 3.151601
v -0.238764 1.251994 3.135942
v -0.203650 1.184593 3.159365
v -0.194997 1.186794 3.148505
v -0.216698 1.228450 3.134029
vn -0.8534 -0.5211 0.0130
vn 0.3726 0.7798 -0.5030
vn 0.9871 -0.1363 -0.0838
vn 0.9912 0.1303 -0.0243
vn 0.9694 0.1484 0.1954
vn 0.9785 -0.1326 0.1581
vn 0.9776 -0.1547 0.1430
vn 0.2573 -0.9251 0.2792
vn 0.1700 -0.9522 -0.2538
vn 0.1272 -0.9846 0.1203
vn 0.1166 0.9633 -0.2417
vn 0.1806 0.9720 0.1507
vn 0.2716 0.7426 -0.6122
vn 0.2113 -0.1507 -0.9657
vn 0.0785 -0.9164 -0.3926
vn 0.6624 0.2970 0.6878
vn 0.1971 0.2195 -0.9555
vn 0.0683 -0.2545 -0.9646
vn 0.2420 0.3230 -0.9150
vn 0.2191 -0.8332 -0.5077
vn 0.8260 0.5632 0.0215
vn 0.9958 -0.0778 -0.0477
vn 0.1538 0.9798 0.1282
vn 0.9828 0.1599 0.0921
vn 0.3963 -0.5952 -0.6990
vn 0.1148 0.9932 -0.0190
vn 0.0069 0.9150 -0.4033
vn -0.6433 -0.3255 -0.6930
vn 0.6513 0.1503 -0.7437
vn 0.1653 0.9587 0.2315
vn -0.9373 -0.2988 -0.1794
vn 0.9379 -0.0558 -0.3425
vn 0.0104 0.8034 -0.5953
vn 0.5379 0.0682 0.8403
vn -0.2374 -0.4959 0.8353
vn 0.2023 -0.9604 0.1916
vn -0.0264 -0.9747 -0.2222
vn 0.0090 -0.9952 0.0980
vn 0.1329 -0.1881 0.9731
vn 0.7533 0.5053 -0.4211
vn 0.3561 0.9108 -0.2090
vn 0.9483 -0.3060 0.0847
vn 0.3059 -0.8415 -0.4453
vn 0.3162 0.9392 0.1335
vn 0.2081 0.7377 0.6422
vn 0.0565 0.8045 -0.5913
vn 0.8289 0.1556 0.5372
vn 0.4769 -0.5076 0.7176
vn 0.8109 0.1336 -0.5697
vn 0.1519 -0.2982 -0.9423
vn 0.9853 0.1417 0.0952
vn 0.9739 0.1018 -0.2027
vn 0.1707 0.7738 0.6101
vn 0.5485 -0.8347 -0.0489
vn 0.9386 0.1155 0.3252
vn 0.3063 0.9426 0.1331
vn 0.2954 0.9552 -0.0202
vn 0.9789 0.1980 0.0510
vn 0.2307 0.8797 -0.4159
vn 0.0761 0.7969 0.5994
vn 0.1323 -0.8837 -0.4489
vn 0.9751 -0.2153 -0.0527
vn 0.3262 0.9156 0.2351
vn 0.1167 0.8403 0.5295
vn -0.0026 0.6388 0.7694
vn 0.5108 -0.8581 -0.0520
vn 0.8387 -0.2950 0.4577
vn 0.2122 -0.9570 -0.1979
vn 0.1797 -0.7438 0.6438
vn 0.1818 -0.9261 -0.3306
vn 0.9340 -0.2006 -0.2955
vn 0.2324 -0.9200 0.3155
vn 0.8717 -0.4732 0.1273
vn 0.3324 -0.9366 -0.1105
vn 0.2959 -0.9023 -0.3134
vn 0.3320 0.7041 0.6278
vn 0.3466 0.7275 0.5921
vn 0.7597 0.0658 0.6469
vn 0.4528 0.6464 0.6141
vn 0.1546 -0.8778 -0.4534
vn 0.1859 -0.9313 0.3131
vn 0.8837 -0.0216 0.4675
vn 0.3510 0.8029 0.4818
vn 0.3826 0.5193 0.7642
vn 0.1217 -0.9642 -0.2355
vn 0.4144 0.5602 0.7173
vn 0.1593 -0.9310 -0.3285
vn 0.5346 -0.0208 0.8448
vn 0.1479 -0.9469 -0.2855
vn 0.3937 -0.8895 0.2320
vn -0.3037 -0.4140 0.8581
vn -0.0092 0.6641 0.7476
vn 0.1791 -0.9289 -0.3243
vn 0.9704 -0.2414 -0.0005
vn 0.0310 -0.5652 0.8243
vn 0.0501 0.7224 0.6897
vn 0.6301 -0.0362 0.7756
vn 0.1441 -0.9419 -0.3035
vn -0.1346 0.0196 0.9907
vn 0.4467 0.6900 0.5695
vn 0.3328 -0.0636 0.9409
vn 0.0463 -0.9987 -0.0225
vn 0.3308 -0.9309 0.1548
vn 0.7809 -0.3642 0.5076
vn 0.4028 0.4936 0.7708
vn 0.1485 -0.9369 -0.3165
vn 0.8472 0.0551 0.5284
vn -0.0169 0.5694 0.8219
vn 0.2233 -0.9321 -0.2851
vn 0.8796 -0.3882 0.2750
vn 0.9588 -0.1605 -0.2343
vn 0.9712 0.2380 -0.0099
vn 0.9592 0.1554 -0.2360
vn 0.9221 0.3487 0.1675
vn 0.9982 0.0157 -0.0585
vn 0.9292 0.1497 0.3380
vn 0.7591 0.3375 0.5567
vn 0.8978 0.3752 0.2307
vn -0.6218 -0.0779 0.7793
vn 0.0065 0.2918 0.9564
vn 0.0462 -0.3893 -0.9199
vn 0.8872 -0.0434 0.4593
vn -0.9834 -0.0869 -0.1594
vn -0.9982 -0.0594 -0.0097
vn 0.9981 0.0177 -0.0583
vn 0.2721 -0.2285 0.9347
vn 0.8794 -0.1632 0.4472
vn -0.8804 -0.1244 0.4577
vn 0.1532 -0.2881 -0.9453
vn -0.9503 -0.2739 -0.1480
vn 0.9108 -0.0121 0.4126
vn -0.9815 0.0314 -0.1889
vn -0.9999 0.0034 -0.0115
vn 0.9967 -0.0073 -0.0804
vn 0.2404 -0.1453 0.9597
vn 0.8572 0.0677 -0.5105
vn -0.8704 -0.0859 0.4848
vn -0.3267 -0.1982 0.9241
vn -0.4743 -0.3494 -0.8081
vn 0.8933 -0.1209 -0.4330
vn 0.0555 -0.0553 -0.9969
vn 0.9936 0.0877 0.0716
vn -0.9808 0.0519 -0.1881
vn -0.9979 0.0639 0.0143
vn 0.9967 0.0386 -0.0718
vn 0.9716 0.0896 0.2191
vn 0.0558 0.0275 -0.9981
vn -0.8403 -0.1005 0.5327
vn -0.2478 -0.1898 0.9500
vn -0.4696 0.0344 -0.8822
vn -0.0177 -0.9998 0.0077
vn 0.0204 -0.9954 -0.0937
vn -0.0258 -0.9993 -0.0270
vn -0.0162 -0.9998 0.0063
vn -0.0485 -0.9926 -0.1115
vn -0.0035 -0.9997 -0.0256
vn -0.9246 0.1319 0.3573
vn -0.9828 0.1253 0.1360
vn -0.4207 -0.0303 -0.9067
vn 0.8650 -0.0080 -0.5016
vn 0.8726 -0.0171 -0.4881
vn -0.4325 -0.0870 -0.8974
vn -0.2429 0.3311 0.9118
vn -0.8704 0.2094 0.4455
vn 0.2267 0.3401 0.9126
vn 0.9934 0.0767 -0.0847
vn -0.9945 0.1044 -0.0073
vn -0.9786 0.0814 -0.1889
vn 0.9739 0.1651 0.1555
vn 0.0525 -0.1322 -0.9898
vn 0.2028 -0.0386 0.9785
vn -0.2301 -0.0306 0.9727
vn 0.1089 0.7640 0.6359
vn 0.0211 -0.9886 -0.1488
vn -0.0942 0.7733 0.6270
vn -0.0507 -0.9864 -0.1561
vn 0.9870 0.1421 0.0747
vn 0.9546 -0.1700 -0.2445
vn 0.9853 -0.0904 0.1449
vn 0.9489 0.2841 -0.1375
vn 0.5864 -0.3477 0.7316
vn 0.5179 0.7798 -0.3517
vn 0.9842 -0.1151 0.1342
vn 0.3405 0.7698 -0.5399
vn -0.9718 -0.1781 0.1543
vn -0.3420 0.1488 -0.9278
vn -0.3090 -0.5257 0.7926
vn 0.9869 -0.0905 0.1332
vn 0.1575 0.4698 -0.8686
vn -0.3896 0.3626 -0.8466
vn -0.9344 -0.2203 -0.2799
vn -0.1590 -0.6894 0.7067
vn -0.2781 0.6087 -0.7431
vn -0.9426 -0.2354 0.2368
vn 0.9991 0.0413 0.0068
vn -0.9811 0.0977 -0.1668
vn 0.4925 -0.4545 0.7422
vn 0.1720 0.1831 -0.9679
vn 0.9735 0.0528 -0.2224
vn -0.9795 -0.0436 -0.1967
vn 0.0043 -0.7654 -0.6436
vn 0.0525 -0.7526 -0.6564
vn 0.0408 -0.7178 -0.6951
vn 0.0069 -0.7281 -0.6854
vn -0.9977 -0.0638 0.0209
vn 0.9437 -0.1610 0.2889
vn 0.1389 0.6386 -0.7569
vn 0.9604 0.2013 -0.1928
vn 0.9563 0.2734 -0.1037
vn 0.1460 0.6641 -0.7333
vn 0.3570 -0.4941 0.7927
vn -0.9567 0.0725 0.2821
vn -0.9782 0.2020 -0.0481
vn 0.9615 0.1366 0.2383
vn -0.2419 -0.5537 0.7968
vn -0.2935 0.6523 -0.6988
vn -0.2574 -0.5402 0.8012
vn 0.3840 -0.4813 0.7880
vn -0.1937 0.1454 0.9702
vn 0.0608 -0.7718 -0.6330
vn 0.2367 0.1383 0.9617
vn 0.0058 -0.7795 -0.6264
vn -0.3091 0.3481 -0.8850
vn -0.3066 -0.8076 0.5038
vn 0.9855 -0.1480 0.0833
vn -0.9786 0.0197 -0.2049
vn -0.9693 -0.2240 0.1012
vn 0.4716 -0.7454 0.4711
vn 0.1637 0.3797 -0.9105
vn 0.9676 0.0959 -0.2335
vn 0.3360 0.1508 -0.9297
vn 0.3236 -0.8517 -0.4121
vn 0.3507 0.3110 -0.8834
vn 0.2220 0.5212 -0.8241
vn 0.1811 -0.1991 -0.9631
vn 0.2837 0.1138 -0.9521
vn 0.9568 0.2866 0.0496
vn 0.9339 0.2944 0.2026
vn 0.9963 0.0810 -0.0300
vn 0.8968 0.3258 0.2994
vn -0.5829 0.7337 0.3491
vn 0.7654 0.6415 -0.0522
vn 0.8080 -0.5704 -0.1473
vn 0.5151 0.8260 0.2288
vn -0.2408 0.8442 0.4790
vn 0.9129 0.3665 -0.1799
vn 0.9426 -0.2164 -0.2544
vn 0.2558 0.3536 -0.8998
vn -0.0607 -0.2772 0.9589
vn 0.0309 -0.3051 0.9518
vn -0.0298 -0.2922 0.9559
vn 0.0070 -0.3265 0.9452
vn -0.0000 -0.2770 0.9609
vn 0.0384 -0.3377 0.9405
vn -0.0448 -0.3356 0.9409
vn 0.0453 -0.2716 0.9613
vn -0.0021 -0.2892 0.9573
vn 0.0080 -0.2503 0.9681
vn 0.1646 -0.6456 0.7457
vn -0.0307 -0.2611 0.9648
vn 0.2958 -0.5749 0.7629
vn -0.4093 0.1140 0.9053
vn -0.4125 -0.1181 0.9033
vn -0.1406 -0.5773 0.8044
vn 0.7283 0.1737 0.6629
vn -0.2073 -0.5265 0.8245
vn -0.5089 0.0707 0.8579
vn 0.0311 -0.6392 0.7684
vn 0.3193 0.7417 0.5898
vn 0.5296 -0.3953 0.7505
vn 0.5248 -0.4552 0.7193
vn -0.0292 0.0256 0.9992
vn 0.0200 -0.7646 0.6442
vn -0.0339 0.9099 0.4135
vn 0.7525 -0.0177 0.6583
vn 0.8498 -0.4824 0.2127
vn -0.2816 0.8232 -0.4929
vn -0.9832 -0.1596 -0.0892
vn -0.9863 0.1629 -0.0273
vn -0.9558 0.1864 0.2272
vn -0.9715 -0.1268 0.2005
vn -0.9698 -0.1937 0.1482
vn -0.4641 -0.8791 0.1083
vn -0.4339 -0.8652 -0.2512
vn -0.3708 -0.9268 0.0598
vn -0.1048 0.9657 -0.2377
vn -0.1786 0.9721 0.1521
vn -0.2511 0.6858 -0.6831
vn -0.2704 -0.3891 -0.8806
vn -0.4384 -0.8651 -0.2438
vn -0.6153 0.4507 0.6467
vn -0.2816 0.1436 -0.9487
vn -0.1897 -0.4926 -0.8493
vn -0.2706 0.1672 -0.9481
vn -0.3598 -0.8749 -0.3240
vn -0.8001 0.5995 0.0197
vn -0.9978 0.0106 -0.0659
vn -0.1524 0.9800 0.1276
vn -0.9791 0.1703 0.1110
vn -0.3093 -0.3350 -0.8900
vn -0.0981 0.9950 -0.0182
vn 0.0045 0.9130 -0.4078
vn 0.6910 0.0491 -0.7212
vn -0.6275 0.1820 -0.7571
vn -0.1572 0.9590 0.2357
vn 0.9560 -0.2710 -0.1124
vn -0.9268 0.1659 -0.3368
vn 0.0102 0.8005 -0.5992
vn -0.8100 -0.1702 0.5612
vn 0.1171 -0.6502 0.7507
vn -0.3224 -0.9430 0.0825
vn -0.4228 -0.8852 -0.1941
vn -0.3535 -0.9325 0.0744
vn -0.2855 -0.5871 0.7575
vn -0.7293 0.5291 -0.4339
vn -0.3045 0.9317 -0.1982
vn -0.9350 -0.3268 0.1380
vn -0.2398 -0.9285 -0.2836
vn -0.2842 0.9487 0.1387
vn -0.2066 0.7376 0.6428
vn -0.0550 0.7981 -0.6000
vn -0.8762 0.1119 0.4688
vn -0.4692 -0.1151 0.8756
vn -0.8250 0.1265 -0.5508
vn -0.3731 -0.3908 -0.8415
vn -0.9859 0.1403 0.0914
vn -0.9742 0.0080 -0.2256
vn -0.1703 0.7737 0.6102
vn -0.3171 -0.9327 -0.1718
vn -0.9464 0.0999 0.3071
vn -0.2860 0.9486 0.1358
vn -0.2558 0.9665 -0.0214
vn -0.9789 0.1980 0.0510
vn -0.2037 0.8796 -0.4299
vn -0.0761 0.7969 0.5994
vn -0.1323 -0.8837 -0.4489
vn -0.9741 -0.2205 -0.0491
vn -0.2876 0.9261 0.2440
vn -0.1167 0.8403 0.5295
vn 0.0026 0.6388 0.7694
vn -0.2127 -0.9770 0.0136
vn -0.8387 -0.2950 0.4577
vn -0.2122 -0.9570 -0.1979
vn -0.1381 -0.7728 0.6194
vn -0.1818 -0.9261 -0.3306
vn -0.9340 -0.2006 -0.2955
vn -0.0540 -0.9485 0.3121
vn -0.8717 -0.4732 0.1273
vn -0.3324 -0.9366 -0.1105
vn -0.1799 -0.9466 -0.2675
vn -0.3202 0.6984 0.6401
vn -0.3530 0.7269 0.5891
vn -0.7597 0.0658 0.6469
vn -0.4528 0.6464 0.6141
vn -0.1546 -0.8778 -0.4534
vn -0.1859 -0.9313 0.3131
vn -0.8837 -0.0216 0.4675
vn -0.3510 0.8029 0.4818
vn -0.3826 0.5193 0.7642
vn -0.1217 -0.9642 -0.2355
vn -0.4144 0.5602 0.7173
vn -0.1593 -0.9310 -0.3285
vn -0.5346 -0.0208 0.8448
vn -0.1479 -0.9469 -0.2855
vn -0.3937 -0.8895 0.2320
vn 0.3037 -0.4138 0.8582
vn 0.0092 0.6641 0.7476
vn -0.1791 -0.9289 -0.3243
vn -0.9704 -0.2414 -0.0005
vn -0.0310 -0.5652 0.8243
vn -0.0501 0.7224 0.6897
vn -0.6301 -0.0362 0.7756
vn -0.1441 -0.9419 -0.3035
vn 0.1346 0.0196 0.9907
vn -0.4467 0.6900 0.5695
vn -0.3328 -0.0636 0.9409
vn -0.0463 -0.9987 -0.0225
vn -0.3308 -0.9309 0.1548
vn -0.7809 -0.3642 0.5076
vn -0.4028 0.4936 0.7708
vn -0.1485 -0.9369 -0.3165
vn -0.8472 0.0551 0.5284
vn 0.0169 0.5694 0.8219
vn -0.2233 -0.9321 -0.2851
vn -0.8796 -0.3882 0.2750
vn -0.9382 -0.0970 -0.3322
vn -0.9778 0.2075 0.0296
vn -0.9555 0.1638 -0.2454
vn -0.9573 0.2440 0.1547
vn -0.9971 0.0211 -0.0732
vn -0.9436 0.0178 0.3305
vn -0.6787 0.1817 0.7116
vn -0.8789 0.4138 0.2371
vn 0.3835 -0.5890 0.7113
vn -0.2161 -0.0113 0.9763
vn -0.0367 0.0349 -0.9987
vn -0.8957 -0.2015 0.3964
vn 0.9826 -0.0564 -0.1768
vn 0.9961 -0.0840 -0.0270
vn -0.9961 0.0719 -0.0511
vn -0.3004 -0.6020 0.7398
vn -0.9042 -0.2677 0.3327
vn 0.8224 -0.4634 0.3300
vn 0.0005 0.2243 -0.9745
vn 0.9465 -0.2409 -0.2148
vn -0.9065 -0.2248 0.3573
vn 0.9823 0.1184 -0.1451
vn 1.0000 0.0070 0.0029
vn -0.9958 0.0333 -0.0858
vn -0.1989 -0.6355 0.7461
vn -0.8516 0.2962 -0.4325
vn 0.8659 -0.3502 0.3571
vn 0.2368 -0.6631 0.7101
vn 0.4769 -0.0002 -0.8789
vn -0.8891 0.1094 -0.4445
vn -0.0470 0.2669 -0.9626
vn -0.9942 0.0869 0.0630
vn 0.9829 0.1021 -0.1533
vn 0.9972 0.0630 0.0398
vn -0.9960 0.0549 -0.0702
vn -0.9758 0.0732 0.2059
vn -0.0509 0.4839 -0.8736
vn 0.8120 -0.3792 0.4437
vn 0.1927 -0.6672 0.7195
vn 0.4708 0.4429 -0.7630
vn 0.0271 -0.9710 -0.2376
vn 0.0443 -0.9977 -0.0513
vn 0.0160 -0.9936 -0.1115
vn 0.0195 -0.9698 -0.2432
vn -0.0000 -0.9990 -0.0443
vn 0.0328 -0.9932 -0.1118
vn 0.9304 0.0787 0.3579
vn 0.9790 0.1321 0.1552
vn 0.4288 0.2555 -0.8665
vn -0.8623 0.1409 -0.4863
vn -0.8676 0.2072 -0.4521
vn 0.4314 0.3224 -0.8426
vn 0.1668 -0.2560 0.9522
vn 0.8540 -0.0211 0.5199
vn -0.1657 -0.2473 0.9547
vn -0.9917 0.1142 -0.0592
vn 0.9941 0.1002 0.0420
vn 0.9791 0.1537 -0.1332
vn -0.9761 0.0895 0.1979
vn -0.0499 0.3302 -0.9426
vn -0.2225 -0.0096 0.9749
vn 0.2118 -0.0012 0.9773
vn -0.1533 0.8044 0.5740
vn 0.0579 -0.9945 -0.0872
vn 0.1255 0.8133 0.5682
vn -0.0176 -0.9964 -0.0834
vn -0.9845 0.1705 0.0404
vn -0.9665 -0.1981 -0.1633
vn -0.9861 -0.0295 0.1635
vn -0.9449 0.2599 -0.1990
vn -0.5755 -0.1066 0.8108
vn -0.3900 0.8290 -0.4008
vn -0.9848 -0.0275 0.1718
vn -0.3208 0.6693 -0.6702
vn 0.9715 -0.0857 0.2210
vn 0.3443 -0.2986 -0.8901
vn 0.3291 -0.0447 0.9432
vn -0.9877 0.0012 0.1566
vn -0.1933 -0.0125 -0.9811
vn 0.2656 -0.1501 -0.9523
vn 0.9095 -0.3778 -0.1737
vn 0.2655 -0.2426 0.9331
vn 0.2785 0.0561 -0.9588
vn 0.9373 -0.0510 0.3447
vn -0.9984 0.0531 -0.0218
vn 0.9811 -0.0324 -0.1910
vn -0.4921 -0.0083 0.8705
vn -0.1801 -0.2769 -0.9439
vn -0.9753 -0.0463 -0.2160
vn 0.9783 -0.1457 -0.1475
vn -0.0096 -0.9996 0.0258
vn -0.0763 -0.9971 0.0011
vn -0.0556 -0.9928 -0.1063
vn -0.0206 -0.9956 -0.0914
vn 0.9969 -0.0542 0.0576
vn -0.9407 0.0710 0.3316
vn -0.1359 0.0789 -0.9876
vn -0.9588 0.0644 -0.2766
vn -0.9535 0.1814 -0.2406
vn -0.1436 0.1360 -0.9802
vn -0.3541 0.0269 0.9348
vn 0.9596 0.2049 0.1927
vn 0.9804 0.1255 -0.1521
vn -0.9580 0.2618 0.1167
vn 0.2391 -0.0277 0.9706
vn 0.2975 0.1397 -0.9444
vn 0.2625 0.1288 0.9563
vn -0.3870 0.1756 0.9052
vn 0.2041 0.7590 0.6183
vn -0.0935 -0.9945 0.0475
vn -0.2157 0.7598 0.6134
vn 0.0021 -0.9984 0.0570
vn 0.3065 -0.2126 -0.9278
vn 0.2983 -0.4115 0.8612
vn -0.9867 -0.0622 0.1505
vn 0.9774 -0.1120 -0.1795
vn 0.9668 -0.1446 0.2108
vn -0.4749 -0.3633 0.8015
vn -0.1654 -0.1944 -0.9669
vn -0.9683 -0.0387 -0.2469
vn -0.3448 0.1472 -0.9271
vn -0.3076 -0.8426 -0.4420
vn -0.3507 0.3110 -0.8834
vn -0.2265 0.5273 -0.8189
vn -0.2157 -0.2164 -0.9522
vn -0.3270 0.0910 -0.9406
vn -0.9568 0.2866 0.0496
vn -0.9339 0.2945 0.2026
vn -0.9963 0.0810 -0.0300
vn -0.8968 0.3258 0.2995
vn 0.5832 0.7336 0.3489
vn -0.7654 0.6415 -0.0521
vn -0.8082 -0.5703 -0.1472
vn -0.5151 0.8260 0.2288
vn 0.2412 0.8441 0.4789
vn -0.9129 0.3664 -0.1799
vn -0.9426 -0.2164 -0.2544
vn -0.2557 0.3535 -0.8998
vn 0.0607 -0.2772 0.9589
vn -0.0309 -0.3049 0.9519
vn 0.0298 -0.2920 0.9559
vn -0.0070 -0.3263 0.9452
vn -0.0000 -0.2769 0.9609
vn -0.0385 -0.3375 0.9405
vn 0.0446 -0.3355 0.9410
vn -0.0453 -0.2716 0.9614
vn 0.0021 -0.2891 0.9573
vn -0.0081 -0.2503 0.9681
vn -0.1649 -0.6455 0.7457
vn 0.0307 -0.2611 0.9648
vn -0.2959 -0.5748 0.7629
vn 0.4094 0.1140 0.9052
vn 0.4125 -0.1180 0.9033
vn 0.1405 -0.5770 0.8046
vn -0.7282 0.1737 0.6629
vn 0.2071 -0.5264 0.8247
vn 0.5090 0.0707 0.8579
vn -0.0311 -0.6391 0.7685
vn -0.3193 0.7417 0.5898
vn -0.5296 -0.3953 0.7505
vn -0.5248 -0.4552 0.7193
vn 0.0292 0.0256 0.9992
vn -0.0200 -0.7646 0.6442
vn 0.0339 0.9099 0.4135
vn -0.7525 -0.0177 0.6583
vn 0.8961 -0.4331 0.0972
vn 0.9975 -0.0038 0.0706
vn 0.7307 -0.6794 -0.0671
vn 0.1099 -0.5215 -0.8461
vn 0.0413 -0.2157 -0.9756
vn 0.9363 0.2754 0.2182
vn 0.6878 -0.2123 0.6941
vn 0.3444 -0.7549 0.5582
vn -0.6069 -0.0955 -0.7890
vn -0.4208 0.2304 -0.8774
vn 0.7919 0.1113 0.6004
vn 0.5964 -0.2536 0.7616
vn -0.3952 -0.9092 0.1307
vn -0.6285 0.0579 -0.7756
vn -0.3576 0.4036 -0.8422
vn 0.4470 0.1693 0.8783
vn 0.2431 -0.1242 0.9620
vn -0.9975 0.0038 -0.0706
vn -0.7601 0.3138 -0.5690
vn -0.4475 0.8785 -0.1671
vn -0.7307 0.6794 0.0671
vn -0.6821 0.6642 -0.3059
vn -0.6942 0.4595 -0.5539
vn -0.8961 0.4331 -0.0972
vn -0.8552 0.2982 -0.4240
vn -0.8798 0.1614 -0.4472
vn -0.7220 0.2809 0.6323
vn -0.7805 0.0153 0.6250
vn -0.1738 -0.2056 0.9631
vn -0.0413 0.2157 0.9756
vn 0.2534 0.0163 0.9672
vn 0.4174 0.0144 0.9086
vn -0.1099 0.5215 0.8461
vn 0.2535 0.4262 0.8684
vn 0.2197 0.7089 0.6703
vn -0.3444 0.7549 -0.5582
vn -0.4625 0.4933 -0.7367
vn -0.5848 0.3986 -0.7065
vn -0.6878 0.2123 -0.6941
vn -0.6976 0.1178 -0.7067
vn -0.7767 0.0742 -0.6255
vn -0.9363 -0.2754 -0.2182
vn -0.6272 -0.6907 0.3598
vn -0.0725 -0.4950 0.8658
vn 0.4208 -0.2304 0.8774
vn 0.5257 -0.1933 0.8284
vn 0.5343 -0.0985 0.8395
vn 0.6069 0.0955 0.7890
vn 0.6835 0.2019 0.7015
vn 0.5927 0.5166 0.6179
vn -0.5964 0.2536 -0.7616
vn -0.5257 0.1933 -0.8284
vn -0.5343 0.0985 -0.8395
vn -0.7919 -0.1113 -0.6004
vn -0.6835 -0.2019 -0.7015
vn -0.5927 -0.5166 -0.6179
vn 0.3576 -0.4036 0.8422
vn 0.4625 -0.4933 0.7367
vn 0.5848 -0.3986 0.7065
vn 0.6285 -0.0579 0.7756
vn 0.6976 -0.1178 0.7068
vn 0.7767 -0.0741 0.6255
vn 0.3952 0.9093 -0.1307
vn 0.6272 0.6907 -0.3598
vn 0.0725 0.4950 -0.8659
vn -0.2432 0.1241 -0.9620
vn -0.2534 -0.0163 -0.9672
vn -0.4174 -0.0144 -0.9086
vn -0.4471 -0.1693 -0.8783
vn -0.2535 -0.4263 -0.8684
vn -0.2197 -0.7088 -0.6703
vn 0.4475 -0.8785 0.1671
vn 0.6822 -0.6642 0.3059
vn 0.6942 -0.4596 0.5539
vn 0.1738 0.2057 -0.9631
vn 0.7805 -0.0153 -0.6250
vn 0.7220 -0.2809 -0.6323
vn 0.7601 -0.3138 0.5690
vn 0.8552 -0.2982 0.4240
vn 0.8798 -0.1614 0.4472
vn -0.8961 -0.4331 0.0972
vn -0.9975 -0.0038 0.0706
vn -0.7307 -0.6794 -0.0671
vn -0.1099 -0.5215 -0.8461
vn -0.0413 -0.2157 -0.9756
vn -0.9363 0.2754 0.2182
vn -0.6878 -0.2123 0.6941
vn -0.3444 -0.7549 0.5582
vn 0.6069 -0.0955 -0.7890
vn 0.4208 0.2304 -0.8774
vn -0.7919 0.1113 0.6004
vn -0.5964 -0.2536 0.7616
vn 0.3952 -0.9093 0.1307
vn 0.6285 0.0579 -0.7756
vn 0.3576 0.4036 -0.8422
vn -0.4471 0.1693 0.8783
vn -0.2432 -0.1241 0.9620
vn 0.9975 0.0038 -0.0706
vn 0.7601 0.3138 -0.5690
vn 0.4475 0.8785 -0.1671
vn 0.7307 0.6794 0.0671
vn 0.6821 0.6642 -0.3059
vn 0.6943 0.4595 -0.5539
vn 0.8961 0.4331 -0.0972
vn 0.8552 0.2982 -0.4240
vn 0.8798 0.1614 -0.4472
vn 0.7220 0.2809 0.6323
vn 0.7805 0.0153 0.6250
vn 0.1738 -0.2057 0.9631
vn 0.0413 0.2157 0.9756
vn -0.2534 0.0163 0.9672
vn -0.4174 0.0144 0.9086
vn 0.1099 0.5215 0.8461
vn -0.2535 0.4262 0.8684
vn -0.2197 0.7089 0.6703
vn 0.3444 0.7549 -0.5582
vn 0.4625 0.4933 -0.7367
vn 0.5848 0.3986 -0.7065
vn 0.6878 0.2123 -0.6941
vn 0.6976 0.1178 -0.7068
vn 0.7767 0.0741 -0.6255
vn 0.9363 -0.2754 -0.2182
vn 0.6272 -0.6907 0.3598
vn 0.0725 -0.4950 0.8659
vn -0.4208 -0.2304 0.8774
vn -0.5257 -0.1933 0.8284
vn -0.5343 -0.0985 0.8395
vn -0.6069 0.0955 0.7890
vn -0.6835 0.2019 0.7015
vn -0.5927 0.5166 0.6179
vn 0.5964 0.2536 -0.7616
vn 0.5257 0.1932 -0.8284
vn 0.5343 0.0985 -0.8395
vn 0.7919 -0.1113 -0.6004
vn 0.6835 -0.2019 -0.7015
vn 0.5927 -0.5165 -0.6179
vn -0.3576 -0.4036 0.8422
vn -0.4625 -0.4933 0.7367
vn -0.5848 -0.3986 0.7065
vn -0.6285 -0.0579 0.7756
vn -0.6976 -0.1178 0.7067
vn -0.7767 -0.0742 0.6255
vn -0.3952 0.9093 -0.1307
vn -0.6272 0.6907 -0.3598
vn -0.0725 0.4950 -0.8658
vn 0.2432 0.1242 -0.9620
vn 0.2534 -0.0163 -0.9672
vn 0.4174 -0.0144 -0.9086
vn 0.4471 -0.1693 -0.8783
vn 0.2535 -0.4262 -0.8684
vn 0.2197 -0.7089 -0.6703
vn -0.4475 -0.8785 0.1671
vn -0.6822 -0.6642 0.3059
vn -0.6943 -0.4595 0.5539
vn -0.1738 0.2057 -0.9631
vn -0.7805 -0.0153 -0.6250
vn -0.7220 -0.2809 -0.6323
vn -0.7601 -0.3138 0.5690
vn -0.8552 -0.2982 0.4240
vn -0.8798 -0.1614 0.4472
vt 0.833374 0.494548
vt 0.893919 0.512741
vt 0.908415 0.468160
vt 0.848637 0.467455
vt 0.567859 0.867914
vt 0.639317 0.828812
vt 0.620915 0.894044
vt 0.556155 0.927906
vt 0.812683 0.509803
vt 0.774909 0.642712
vt 0.751394 0.643294
vt 0.751725 0.493743
vt 0.828812 0.793372
vt 0.751727 0.811870
vt 0.672932 0.807420
vt 0.672336 0.642732
vt 0.672998 0.503429
vt 0.598676 0.643182
vt 0.594201 0.530171
vt 0.560191 0.672195
vt 0.619753 0.672998
vt 0.599703 0.594201
vt 0.569702 0.558226
vt 0.580250 0.833374
vt 0.635423 0.812683
vt 0.637090 0.751725
vt 0.569078 0.759035
vt 0.500000 0.859251
vt 0.500000 0.750726
vt 0.569078 0.758996
vt 0.500000 0.657595
vt 0.560191 0.671923
vt 0.604420 0.951058
vt 0.545714 0.976119
vt 0.604420 0.548422
vt 0.626365 0.643481
vt 0.688416 0.643970
vt 0.666902 0.547256
vt 0.500000 0.917421
vt 0.563590 0.893919
vt 0.639317 0.793372
vt 0.659328 0.642712
vt 0.676970 0.643370
vt 0.671449 0.761101
vt 0.555994 0.632181
vt 0.545714 0.747180
vt 0.604420 0.735145
vt 0.572975 0.538591
vt 0.666902 0.715601
vt 0.500000 0.969030
vt 0.572975 0.947229
vt 0.501290 0.830086
vt 0.457158 0.830118
vt 0.460328 0.806630
vt 0.500288 0.803578
vt 0.499838 0.512886
vt 0.460007 0.507514
vt 0.481582 0.413128
vt 0.510774 0.417065
vt 0.500000 0.559830
vt 0.556447 0.575135
vt 0.579931 0.796381
vt 0.599703 0.530171
vt 0.637090 0.643182
vt 0.659115 0.643738
vt 0.643940 0.535244
vt 0.564556 0.492909
vt 0.500000 0.477524
vt 0.500000 0.432743
vt 0.566016 0.447361
vt 0.569702 0.518348
vt 0.616981 0.429733
vt 0.594994 0.421068
vt 0.612448 0.796381
vt 0.637526 0.771615
vt 0.500000 0.371229
vt 0.561082 0.382998
vt 0.450625 0.491920
vt 0.495971 0.498202
vt 0.507939 0.406303
vt 0.474705 0.401699
vt 0.591615 0.535244
vt 0.575831 0.433451
vt 0.407144 0.499901
vt 0.406490 0.640437
vt 0.358675 0.605643
vt 0.363238 0.556600
vt 0.578790 0.420824
vt 0.621227 0.407144
vt 0.601979 0.363238
vt 0.551080 0.357545
vt 0.500000 0.657756
vt 0.500000 0.571782
vt 0.667216 0.508652
vt 0.621227 0.499901
vt 0.632756 0.407548
vt 0.666461 0.413961
vt 0.556577 0.771615
vt 0.637090 0.751727
vt 0.260484 0.580516
vt 0.278839 0.520364
vt 0.582070 0.278839
vt 0.540875 0.268345
vt 0.619753 0.672932
vt 0.500000 0.307117
vt 0.551080 0.314473
vt 0.500000 0.983839
vt 0.393435 0.816867
vt 0.325561 0.763148
vt 0.671449 0.517077
vt 0.635423 0.509803
vt 0.642381 0.470278
vt 0.671266 0.470798
vt 0.988807 0.740196
vt 1.002924 0.661469
vt 1.015365 0.669173
vt 1.001496 0.721513
vt 0.500000 0.531683
vt 0.500000 0.631036
vt 0.249130 0.712570
vt 0.191059 0.679456
vt 0.198981 0.567653
vt 0.945839 0.547256
vt 0.886123 0.529161
vt 0.904522 0.470747
vt 0.963512 0.471464
vt 0.500000 0.238897
vt 0.540875 0.239236
vt 0.564556 0.495971
vt 0.612448 0.579931
vt 0.628268 0.501290
vt 0.631115 0.457158
vt 0.168698 0.648799
vt 0.177283 0.553376
vt 0.539817 0.181283
vt 0.500000 0.184290
vt 0.500000 0.144817
vt 0.539817 0.140934
vt 0.580006 0.205473
vt 0.539817 0.196322
vt 0.205473 0.476864
vt 0.621491 0.393435
vt 0.538703 0.608225
vt 0.500000 0.615960
vt 0.500000 0.567098
vt 0.526605 0.560962
vt 0.566016 0.450625
vt 0.149293 0.452102
vt 0.133162 0.541160
vt 0.103583 0.505809
vt 0.123733 0.441345
vt 0.539531 0.141037
vt 0.579447 0.149293
vt 0.562090 0.123733
vt 0.530633 0.116366
vt 0.500000 0.385014
vt 0.500000 0.353218
vt 0.586057 0.174337
vt 0.542919 0.165879
vt 0.174337 0.464471
vt 0.086614 0.427976
vt 0.065909 0.448336
vt 0.053210 0.428901
vt 0.071388 0.423606
vt 0.515797 0.085531
vt 0.531484 0.086614
vt 0.523242 0.071388
vt 0.510720 0.071544
vt 0.500000 0.266808
vt 0.601979 0.325561
vt 0.582070 0.249130
vt 0.108290 0.599988
vt 0.073849 0.556649
vt 0.580006 0.679456
vt 0.539817 0.690304
vt 0.539817 0.657159
vt 0.579599 0.648799
vt 0.500000 0.199929
vt 0.513331 0.045311
vt 0.500000 0.046647
vt 0.500000 0.069896
vt 0.051602 0.475706
vt 0.038205 0.462176
vt 0.038356 0.442272
vt 0.580006 0.191059
vt 0.577833 0.599988
vt 0.554232 0.556649
vt 0.500000 0.147087
vt 0.500000 0.124516
vt 0.530339 0.475706
vt 0.515210 0.477146
vt 0.513246 0.460736
vt 0.522445 0.462176
vt 0.500000 0.170521
vt 0.515546 0.457928
vt 0.507613 0.457080
vt 0.506877 0.445401
vt 0.514439 0.446199
vt 0.500000 0.089031
vt 0.528336 0.053210
vt 0.620841 0.601238
vt 0.618568 0.607555
vt 0.613078 0.604170
vt 0.614718 0.599612
vt 0.500000 0.479371
vt 0.500000 0.460095
vt 0.513331 0.424258
vt 0.512541 0.440917
vt 0.500000 0.440864
vt 0.500000 0.422187
vt 0.500000 0.664242
vt 0.576432 0.505809
vt 0.539481 0.507406
vt 0.547321 0.467354
vt 0.500000 0.513551
vt 0.519044 0.508271
vt 0.579599 0.168698
vt 0.538703 0.096221
vt 0.577833 0.108290
vt 0.520322 0.097153
vt 0.500000 0.106427
vt 0.541975 0.104341
vt 0.078394 0.467354
vt 0.104341 0.437145
vt 0.073220 0.507406
vt 0.590300 0.643738
vt 0.499630 0.641384
vt 0.459655 0.640419
vt 0.417546 0.774144
vt 0.414448 0.641253
vt 0.423095 0.508652
vt 0.621491 0.816867
vt 0.648114 0.640437
vt 0.669097 0.641253
vt 0.644267 0.774144
vt 0.578790 0.496630
vt 0.601625 0.405151
vt 0.649402 0.433451
vt 0.651726 0.367843
vt 0.620780 0.366797
vt 0.454529 0.413961
vt 0.467814 0.368189
vt 0.488225 0.366596
vt 0.561691 0.421068
vt 0.537425 0.365401
vt 0.507200 0.363509
vt 0.481273 0.364028
vt 0.510983 0.366114
vt 0.635806 0.367147
vt 0.669092 0.368189
vt 0.420824 0.496630
vt 0.452865 0.405151
vt 0.558226 0.518348
vt 0.484328 0.324872
vt 0.502799 0.322553
vt 0.547406 0.321655
vt 0.519920 0.320969
vt 0.496410 0.322232
vt 0.523434 0.321439
vt 0.639292 0.324944
vt 0.675657 0.324872
vt 0.550036 0.367843
vt 0.558926 0.322330
vt 0.465216 0.366023
vt 0.604868 0.366023
vt 0.599660 0.365401
vt 0.621651 0.293283
vt 0.658462 0.293469
vt 0.659368 0.261742
vt 0.621257 0.261665
vt 0.501495 0.293600
vt 0.482345 0.307625
vt 0.480362 0.262732
vt 0.500191 0.261781
vt 0.519246 0.292376
vt 0.547742 0.292993
vt 0.548078 0.261464
vt 0.518571 0.260916
vt 0.494871 0.293528
vt 0.493332 0.261956
vt 0.522889 0.292587
vt 0.522344 0.260869
vt 0.451756 0.288897
vt 0.449773 0.262732
vt 0.656778 0.322330
vt 0.622394 0.322035
vt 0.481902 0.324350
vt 0.605664 0.324350
vt 0.599057 0.321655
vt 0.595403 0.548078
vt 0.621257 0.561263
vt 0.645824 0.523009
vt 0.590945 0.518571
vt 0.639859 0.470735
vt 0.648324 0.498544
vt 0.685407 0.500191
vt 0.686261 0.480362
vt 0.592251 0.493332
vt 0.659368 0.560446
vt 0.683143 0.522344
vt 0.596433 0.477757
vt 0.479829 0.307317
vt 0.477757 0.262636
vt 0.447168 0.262636
vt 0.449241 0.288588
vt 0.596679 0.292993
vt 0.595403 0.261464
vt 0.559686 0.293469
vt 0.560446 0.261742
vt 0.603589 0.307317
vt 0.640355 0.307779
vt 0.679739 0.307625
vt 0.677932 0.288897
vt 0.639680 0.289050
vt 0.639859 0.262967
vt 0.679465 0.262732
vt 0.604354 0.288588
vt 0.603287 0.262636
vt 0.679739 0.482345
vt 0.640355 0.473048
vt 0.639680 0.442459
vt 0.677932 0.451756
vt 0.679465 0.449773
vt 0.639859 0.440146
vt 0.603589 0.479829
vt 0.604354 0.449241
vt 0.603287 0.447168
vt 0.841501 0.761101
vt 0.796910 0.643370
vt 0.906455 0.644155
vt 0.894416 0.742499
vt 0.957194 0.643970
vt 0.829265 0.517077
vt 0.940741 0.715601
vt 0.671449 0.841501
vt 0.669190 0.894416
vt 0.849398 0.470798
vt 0.666902 0.940741
vt 0.909364 0.402088
vt 0.855378 0.389954
vt 0.592313 0.470184
vt 0.617524 0.471308
vt 0.621192 0.417417
vt 0.598226 0.414426
vt 0.598146 0.467455
vt 0.603540 0.389954
vt 0.643835 0.389418
vt 0.855424 0.393127
vt 0.905341 0.403681
vt 0.667620 0.471464
vt 0.947229 0.538591
vt 0.963044 0.470184
vt 0.580250 0.494548
vt 0.595712 0.312254
vt 0.621272 0.312916
vt 0.622837 0.264476
vt 0.597277 0.263453
vt 0.852894 0.313492
vt 0.849695 0.260671
vt 0.818572 0.260902
vt 0.821566 0.286829
vt 0.893654 0.314609
vt 0.853541 0.316407
vt 0.850246 0.263617
vt 0.890422 0.263754
vt 0.896415 0.312211
vt 0.936226 0.312254
vt 0.933075 0.263453
vt 0.893263 0.261490
vt 0.670148 0.393127
vt 0.666826 0.415674
vt 0.958612 0.415674
vt 0.958434 0.414426
vt 0.649700 0.837975
vt 0.635627 0.887710
vt 0.686058 0.890422
vt 0.687133 0.850246
vt 0.592375 0.849695
vt 0.589648 0.893263
vt 0.597277 0.933075
vt 0.622837 0.940554
vt 0.673628 0.933416
vt 0.822213 0.289744
vt 0.819123 0.263848
vt 0.672063 0.313364
vt 0.673628 0.264581
vt 0.936602 0.313364
vt 0.933416 0.264581
vt 0.941647 0.364922
vt 0.899640 0.363406
vt 0.623001 0.364960
vt 0.665562 0.364922
vt 0.668659 0.362549
vt 0.644119 0.361871
vt 0.647700 0.316485
vt 0.685132 0.316407
vt 0.859879 0.359936
vt 0.902447 0.361457
vt 0.941330 0.363919
vt 0.860378 0.362549
vt 0.606538 0.359936
vt 0.590374 0.313492
vt 0.601582 0.363919
vt 0.646474 0.289822
vt 0.601626 0.286829
vt 0.603191 0.260902
vt 0.648039 0.263334
vt 0.675760 0.289744
vt 0.677325 0.263848
vt 0.647700 0.841274
vt 0.590374 0.852894
vt 0.601626 0.821566
vt 0.646474 0.809945
vt 0.648039 0.806852
vt 0.603191 0.818572
vt 0.685132 0.853541
vt 0.675760 0.822213
vt 0.677325 0.819123
vt 0.500000 0.668378
vt 0.500000 0.724779
vt 0.517225 0.721513
vt 0.520785 0.669173
vt 0.528698 1.002924
vt 0.500000 1.014901
vt 0.500000 1.025182
vt 0.520785 1.015365
vt 0.500000 0.744181
vt 0.519989 0.740196
vt 0.519989 0.988807
vt 0.500000 0.995348
vt 0.500000 0.660499
vt 0.528698 0.661469
vt 0.154177 0.616909
vt 0.166410 0.570048
vt 0.135838 0.608740
vt 0.149154 0.567675
vt 0.147623 0.572395
vt 0.137518 0.603560
vt 0.583783 0.154177
vt 0.583848 0.135838
vt 0.600568 0.131366
vt 0.597073 0.144428
vt 0.144166 0.612314
vt 0.141084 0.620214
vt 0.132632 0.614576
vt 0.134671 0.609983
vt 0.153028 0.593819
vt 0.141399 0.592146
vt 0.619182 0.132632
vt 0.614588 0.141084
vt 0.606252 0.140479
vt 0.610351 0.130579
vt 0.138199 0.601250
vt 0.148213 0.603179
vt 0.602487 0.570048
vt 0.583783 0.616909
vt 0.597073 0.624463
vt 0.606252 0.625520
vt 0.614588 0.620214
vt 0.620822 0.612314
vt 0.623703 0.603179
vt 0.620639 0.593819
vt 0.604695 0.577238
vt 0.601269 0.572395
vt 0.603531 0.567675
vt 0.609313 0.614171
vt 0.615687 0.610750
vt 0.619182 0.614576
vt 0.610351 0.619358
vt 0.602434 0.613212
vt 0.600568 0.617961
vt 0.626402 0.601250
vt 0.623276 0.609983
vt 0.618527 0.594500
vt 0.623272 0.592146
vt 0.590602 0.606787
vt 0.583848 0.608740
vt 0.592903 0.603615
vt 0.603070 0.582298
vt 0.613048 0.594751
vt 0.610999 0.606475
vt 0.606401 0.608943
vt 0.601438 0.608251
vt 0.586331 0.603560
vt 0.600598 0.578805
vt 0.589822 0.601288
vt 0.148133 0.578805
vt 0.140843 0.601288
vt 0.522445 0.038205
vt 0.513246 0.032036
vt 0.507613 0.025182
vt 0.515546 0.030102
vt 0.521458 0.442272
vt 0.528336 0.428901
vt 0.500000 0.456702
vt 0.500000 0.445370
vt 0.500000 0.031689
vt 0.512541 0.032373
vt 0.506877 0.025742
vt 0.500000 0.025886
vt 0.500000 0.031337
vt 0.500000 0.025479
vt 0.030102 0.457928
vt 0.030515 0.446199
vt 0.432141 0.867914
vt 0.443845 0.927906
vt 0.379085 0.894044
vt 0.360683 0.828812
vt 0.439809 0.672195
vt 0.430298 0.558226
vt 0.400297 0.594201
vt 0.380247 0.672998
vt 0.419750 0.833374
vt 0.430922 0.759035
vt 0.362910 0.751725
vt 0.364577 0.812683
vt 0.430922 0.758996
vt 0.439809 0.671923
vt 0.454286 0.976119
vt 0.395580 0.951058
vt 0.395580 0.548422
vt 0.333098 0.547256
vt 0.311584 0.643970
vt 0.373635 0.643481
vt 0.436410 0.893919
vt 0.360683 0.793372
vt 0.328551 0.761101
vt 0.323030 0.643370
vt 0.340672 0.642712
vt 0.444006 0.632181
vt 0.395580 0.735145
vt 0.454286 0.747180
vt 0.427025 0.538591
vt 0.333098 0.715601
vt 0.427025 0.947229
vt 0.443553 0.575135
vt 0.400297 0.530171
vt 0.356060 0.535244
vt 0.340885 0.643738
vt 0.362910 0.643182
vt 0.435444 0.492909
vt 0.433984 0.447361
vt 0.430298 0.518348
vt 0.405006 0.421068
vt 0.383019 0.429733
vt 0.362474 0.771615
vt 0.387552 0.796381
vt 0.438918 0.382998
vt 0.421210 0.420824
vt 0.448920 0.357545
vt 0.398021 0.363238
vt 0.378773 0.407144
vt 0.332784 0.508652
vt 0.333539 0.413961
vt 0.367244 0.407548
vt 0.378773 0.499901
vt 0.362910 0.751727
vt 0.459125 0.268345
vt 0.417930 0.278839
vt 0.380247 0.672932
vt 0.448920 0.314473
vt 0.328551 0.517077
vt 0.328734 0.470798
vt 0.357619 0.470278
vt 0.364577 0.509803
vt 0.459125 0.239236
vt 0.435444 0.495971
vt 0.387552 0.579931
vt 0.371732 0.501290
vt 0.368885 0.457158
vt 0.460183 0.181283
vt 0.460183 0.140934
vt 0.460183 0.196322
vt 0.419994 0.205473
vt 0.378509 0.393435
vt 0.461297 0.608225
vt 0.473395 0.560962
vt 0.433984 0.450625
vt 0.460469 0.141037
vt 0.469367 0.116366
vt 0.437911 0.123733
vt 0.420553 0.149293
vt 0.457081 0.165879
vt 0.413943 0.174337
vt 0.484203 0.085531
vt 0.489280 0.071544
vt 0.476758 0.071388
vt 0.468516 0.086614
vt 0.398021 0.325561
vt 0.417930 0.249130
vt 0.419994 0.679456
vt 0.420401 0.648799
vt 0.460183 0.657159
vt 0.460183 0.690304
vt 0.486669 0.045311
vt 0.419994 0.191059
vt 0.422167 0.599988
vt 0.445768 0.556649
vt 0.469661 0.475706
vt 0.477555 0.462176
vt 0.486754 0.460736
vt 0.484790 0.477146
vt 0.484454 0.457928
vt 0.485561 0.446199
vt 0.493123 0.445401
vt 0.492387 0.457080
vt 0.471665 0.053210
vt 0.379159 0.601238
vt 0.385282 0.599612
vt 0.386922 0.604170
vt 0.381432 0.607555
vt 0.486669 0.424258
vt 0.487459 0.440917
vt 0.423568 0.505809
vt 0.452679 0.467354
vt 0.460520 0.507406
vt 0.480956 0.508271
vt 0.420401 0.168698
vt 0.422167 0.108290
vt 0.461297 0.096221
vt 0.479678 0.097153
vt 0.458025 0.104341
vt 0.378509 0.816867
vt 0.355733 0.774144
vt 0.330903 0.641253
vt 0.351886 0.640437
vt 0.398375 0.405151
vt 0.421210 0.496630
vt 0.379220 0.366797
vt 0.348274 0.367843
vt 0.350598 0.433451
vt 0.330908 0.368189
vt 0.364194 0.367147
vt 0.324343 0.324872
vt 0.360708 0.324944
vt 0.395132 0.366023
vt 0.400340 0.365401
vt 0.378349 0.293283
vt 0.378743 0.261665
vt 0.340632 0.261742
vt 0.341538 0.293469
vt 0.377606 0.322035
vt 0.343222 0.322330
vt 0.394336 0.324350
vt 0.400943 0.321655
vt 0.404597 0.548078
vt 0.409055 0.518571
vt 0.354176 0.523009
vt 0.378743 0.561263
vt 0.360141 0.470735
vt 0.313739 0.480362
vt 0.314593 0.500191
vt 0.351676 0.498544
vt 0.407749 0.493332
vt 0.316857 0.522344
vt 0.340632 0.560446
vt 0.403567 0.477757
vt 0.403321 0.292993
vt 0.404597 0.261464
vt 0.359645 0.307779
vt 0.396411 0.307317
vt 0.320262 0.307625
vt 0.322068 0.288897
vt 0.320535 0.262732
vt 0.360141 0.262967
vt 0.360320 0.289050
vt 0.396713 0.262636
vt 0.395646 0.288588
vt 0.320262 0.482345
vt 0.322068 0.451756
vt 0.360320 0.442459
vt 0.359645 0.473048
vt 0.360141 0.440146
vt 0.320535 0.449773
vt 0.395646 0.449241
vt 0.396411 0.479829
vt 0.396713 0.447168
vt 0.330810 0.894416
vt 0.328551 0.841501
vt 0.333098 0.940741
vt 0.407688 0.470184
vt 0.401774 0.414426
vt 0.378808 0.417417
vt 0.382476 0.471308
vt 0.356165 0.389418
vt 0.396460 0.389954
vt 0.401854 0.467455
vt 0.332380 0.471464
vt 0.419750 0.494548
vt 0.404289 0.312254
vt 0.402723 0.263453
vt 0.377163 0.264476
vt 0.378728 0.312916
vt 0.329852 0.393127
vt 0.333174 0.415674
vt 0.350300 0.837975
vt 0.312867 0.850246
vt 0.313942 0.890422
vt 0.364373 0.887710
vt 0.410353 0.893263
vt 0.407625 0.849695
vt 0.377163 0.940554
vt 0.402723 0.933075
vt 0.326372 0.933416
vt 0.326372 0.264581
vt 0.327937 0.313364
vt 0.376999 0.364960
vt 0.334438 0.364922
vt 0.331341 0.362549
vt 0.314868 0.316407
vt 0.352300 0.316485
vt 0.355881 0.361871
vt 0.409626 0.313492
vt 0.393462 0.359936
vt 0.398418 0.363919
vt 0.353526 0.289822
vt 0.351961 0.263334
vt 0.396809 0.260902
vt 0.398374 0.286829
vt 0.324240 0.289744
vt 0.322675 0.263848
vt 0.352300 0.841274
vt 0.353526 0.809945
vt 0.398374 0.821566
vt 0.409626 0.852894
vt 0.396809 0.818572
vt 0.351961 0.806852
vt 0.314868 0.853541
vt 0.324240 0.822213
vt 0.322675 0.819123
vt 0.479215 0.669173
vt 0.482775 0.721513
vt 0.471302 1.002924
vt 0.479215 1.015365
vt 0.480011 0.740196
vt 0.480011 0.988807
vt 0.471302 0.661469
vt 0.416217 0.154177
vt 0.402927 0.144428
vt 0.399432 0.131366
vt 0.416152 0.135838
vt 0.380819 0.132632
vt 0.389649 0.130579
vt 0.393748 0.140479
vt 0.385412 0.141084
vt 0.397513 0.570048
vt 0.379361 0.593819
vt 0.376297 0.603179
vt 0.379178 0.612314
vt 0.385412 0.620214
vt 0.393748 0.625520
vt 0.402927 0.624463
vt 0.416217 0.616909
vt 0.395305 0.577238
vt 0.396469 0.567675
vt 0.398731 0.572395
vt 0.390687 0.614171
vt 0.389649 0.619358
vt 0.380819 0.614576
vt 0.384313 0.610750
vt 0.397566 0.613212
vt 0.399432 0.617961
vt 0.376724 0.609983
vt 0.373598 0.601250
vt 0.376728 0.592146
vt 0.381473 0.594500
vt 0.409398 0.606787
vt 0.416152 0.608740
vt 0.407098 0.603615
vt 0.398562 0.608251
vt 0.393599 0.608943
vt 0.389001 0.606475
vt 0.386952 0.594751
vt 0.396930 0.582298
vt 0.413669 0.603560
vt 0.399402 0.578805
vt 0.410178 0.601288
vt 0.477555 0.038205
vt 0.484454 0.030102
vt 0.492387 0.025182
vt 0.486754 0.032036
vt 0.478542 0.442272
vt 0.471665 0.428901
vt 0.493123 0.025742
vt 0.487459 0.032373
vt 0.181819 0.000000
vt 0.227273 0.078731
vt 0.136365 0.078731
vt 0.272728 0.157461
vt 0.318182 0.078731
vt 0.363637 0.157461
vt 0.909091 0.000000
vt 0.954545 0.078731
vt 0.863636 0.078731
vt 0.727273 0.000000
vt 0.772727 0.078731
vt 0.681818 0.078731
vt 0.545455 0.000000
vt 0.590909 0.078731
vt 0.500000 0.078731
vt 0.318182 0.236191
vt 0.090910 0.157461
vt 0.181819 0.157461
vt 0.136365 0.236191
vt 0.818182 0.157461
vt 0.909091 0.157461
vt 0.863636 0.236191
vt 0.636364 0.157461
vt 0.727273 0.157461
vt 0.681818 0.236191
vt 0.454546 0.157461
vt 0.545455 0.157461
vt 0.500000 0.236191
vt 0.227273 0.236191
vt 0.045455 0.236191
vt 0.772727 0.236191
vt 0.590909 0.236191
vt 0.409092 0.236191
vt 0.181819 0.314921
vt 0.272728 0.314921
vt 0.227273 0.393651
vt 0.000000 0.314921
vt 0.090910 0.314921
vt 0.045455 0.393651
vt 0.727273 0.314921
vt 0.818182 0.314921
vt 0.772727 0.393651
vt 0.545455 0.314921
vt 0.636364 0.314921
vt 0.590909 0.393651
vt 0.363637 0.314921
vt 0.454546 0.314921
vt 0.409092 0.393651
vt 0.500000 0.393651
vt 0.454546 0.472382
vt 0.681818 0.393651
vt 0.636364 0.472382
vt 0.863636 0.393651
vt 0.818182 0.472382
vt 0.909091 0.314921
vt 0.136365 0.393651
vt 0.090910 0.472382
vt 0.318182 0.393651
vt 0.272728 0.472382
vt 0.954545 0.236191
vt 1.000000 0.157461
vt 0.409092 0.078731
vt 0.363637 0.000000
s 1
f 116/1/1 98/2/1 209/3/1 208/4/1
f 115/5/2 4/6/2 17/7/2 97/8/2
f 3/9/3 7/10/3 13/11/3 8/12/3
f 7/10/4 4/13/4 9/14/4 13/11/4
f 13/11/5 9/14/5 2/15/5 10/16/5
f 8/12/6 13/11/6 10/16/6 1/17/6
f 1/17/7 10/16/7 32/18/7 29/19/7
f 114/20/8 1/21/8 29/22/8 83/23/8
f 116/24/9 3/25/9 8/26/9 109/27/9
f 109/27/10 8/26/10 1/21/10 114/20/10
f 115/5/11 6/28/11 15/29/11 99/30/11
f 99/30/12 15/29/12 12/31/12 112/32/12
f 97/8/13 17/7/13 21/33/13 90/34/13
f 20/35/14 25/36/14 203/37/14 204/38/14
f 116/24/15 5/28/15 18/39/15 98/40/15
f 4/41/16 7/42/16 197/43/16 196/44/16
f 89/45/17 90/46/17 21/47/17 25/36/17
f 91/48/18 89/45/18 25/36/18 20/35/18
f 25/36/19 21/47/19 202/49/19 203/37/19
f 98/40/20 18/39/20 23/50/20 91/51/20
f 38/52/21 45/53/21 134/54/21 131/55/21
f 133/56/22 136/57/22 144/58/22 146/59/22
f 112/32/23 12/31/23 34/60/23 82/61/23
f 10/16/24 2/15/24 30/62/24 32/18/24
f 29/63/25 32/64/25 129/65/25 130/66/25
f 75/67/26 41/68/26 48/69/26 73/70/26
f 82/61/27 34/60/27 41/68/27 75/67/27
f 83/71/28 29/63/28 141/72/28 140/73/28
f 32/64/29 30/74/29 128/75/29 129/65/29
f 73/70/30 48/69/30 56/76/30 66/77/30
f 74/78/31 81/79/31 145/80/31 148/81/31
f 130/82/32 133/56/32 146/59/32 147/83/32
f 6/28/33 115/5/33 97/8/33 19/39/33
f 54/84/34 53/85/34 60/86/34 61/87/34
f 67/88/35 54/89/35 61/90/35 65/91/35
f 11/92/36 114/20/36 83/23/36 33/93/36
f 5/28/37 116/24/37 109/27/37 14/29/37
f 14/29/38 109/27/38 114/20/38 11/92/38
f 139/94/39 54/95/39 143/96/39 142/97/39
f 30/62/40 38/52/40 131/55/40 128/98/40
f 4/6/41 115/5/41 99/30/41 9/99/41
f 61/87/42 60/86/42 69/100/42 70/101/42
f 65/91/43 61/90/43 70/102/43 58/103/43
f 9/99/44 99/30/44 112/32/44 2/104/44
f 66/77/45 56/76/45 63/105/45 64/106/45
f 19/39/46 97/8/46 90/34/46 24/107/46
f 53/85/47 52/108/47 59/109/47 60/86/47
f 198/110/48 3/111/48 207/112/48 213/113/48
f 256/114/49 255/115/49 253/116/49 254/117/49
f 23/118/50 26/119/50 89/45/50 91/48/50
f 69/100/51 68/120/51 76/121/51 77/122/51
f 204/123/52 201/124/52 211/125/52 212/126/52
f 64/106/53 63/105/53 72/127/53 57/128/53
f 33/93/54 83/23/54 81/129/54 40/68/54
f 60/86/55 59/109/55 68/120/55 69/100/55
f 2/104/56 112/32/56 82/61/56 30/130/56
f 38/131/57 75/67/57 73/70/57 45/132/57
f 77/122/58 76/121/58 259/133/58 260/134/58
f 30/130/59 82/61/59 75/67/59 38/131/59
f 50/135/60 80/136/60 88/137/60 44/138/60
f 58/103/61 70/102/61 78/139/61 51/140/61
f 70/101/62 69/100/62 77/122/62 78/141/62
f 45/132/63 73/70/63 66/77/63 52/142/63
f 57/128/64 72/127/64 80/136/64 50/135/64
f 28/143/65 110/144/65 96/145/65 42/146/65
f 40/68/66 81/129/66 74/147/66 47/69/66
f 108/148/67 262/149/67 93/150/67 94/151/67
f 31/152/68 108/153/68 94/154/68 43/155/68
f 55/156/69 67/88/69 65/91/69 62/157/69
f 51/140/70 78/139/70 86/158/70 49/159/70
f 78/141/71 77/122/71 260/134/71 86/160/71
f 47/69/72 74/147/72 67/88/72 55/156/72
f 123/161/73 124/162/73 101/163/73 102/164/73
f 121/165/74 123/166/74 102/167/74 37/168/74
f 62/157/75 65/91/75 58/103/75 71/169/75
f 52/142/76 66/77/76 64/106/76 59/170/76
f 59/170/77 64/106/77 57/128/77 68/171/77
f 262/149/78 261/172/78 92/173/78 93/150/78
f 76/174/79 50/175/79 44/176/79 259/177/79
f 71/169/80 58/103/80 51/140/80 79/178/80
f 37/168/81 35/179/81 105/180/81 103/181/81
f 124/162/82 127/182/82 297/183/82 298/184/82 101/163/82
f 68/171/83 57/128/83 50/135/83 76/185/83
f 261/186/84 28/143/84 42/146/84 92/187/84
f 107/188/85 31/152/85 43/155/85 95/189/85
f 127/190/86 122/191/86 295/192/86 297/193/86
f 79/178/87 51/140/87 49/159/87 87/194/87
f 100/195/88 36/196/88 301/197/88 104/198/88
f 126/199/89 121/165/89 37/168/89 103/181/89
f 102/167/90 101/200/90 35/179/90 37/168/90
f 274/201/91 273/202/91 290/203/91 291/204/91
f 122/191/92 125/205/92 300/206/92 295/192/92
f 49/159/93 86/158/93 108/153/93 31/152/93
f 86/160/94 260/134/94 262/149/94 108/148/94
f 35/207/95 296/208/95 299/209/95 105/210/95
f 44/176/96 88/211/96 110/144/96 28/143/96
f 93/212/97 92/187/97 120/213/97 119/214/97
f 87/194/98 49/159/98 31/152/98 107/188/98
f 42/146/99 96/145/99 113/215/99 27/216/99
f 259/217/100 44/138/100 28/218/100 261/219/100
f 92/187/101 42/146/101 27/216/101 120/213/101
f 95/189/102 43/155/102 22/220/102 118/221/102
f 43/155/103 94/154/103 117/222/103 22/220/103
f 94/151/104 93/150/104 119/223/104 117/224/104
f 120/213/105 27/216/105 122/191/105 127/190/105
f 118/221/106 22/220/106 121/165/106 126/199/106
f 119/223/107 120/225/107 127/182/107 124/162/107
f 27/216/108 113/215/108 125/205/108 122/191/108
f 22/220/109 117/222/109 123/166/109 121/165/109
f 117/224/110 119/223/110 124/162/110 123/161/110
f 130/82/111 129/226/111 132/227/111 133/56/111
f 132/227/112 131/55/112 134/54/112 135/228/112
f 129/226/113 128/98/113 131/55/113 132/227/113
f 135/228/114 134/54/114 137/229/114 138/230/114
f 133/56/115 132/227/115 135/228/115 136/57/115
f 136/57/116 135/228/116 138/230/116 139/231/116
f 52/232/117 53/233/117 138/234/117 137/235/117
f 45/53/118 52/108/118 137/229/118 134/54/118
f 54/95/119 67/236/119 149/237/119 143/96/119
f 53/233/120 54/95/120 139/94/120 138/234/120
f 141/72/121 147/238/121 157/239/121 39/240/121
f 144/58/122 142/241/122 150/242/122 153/243/122
f 145/80/123 140/244/123 46/245/123 154/246/123
f 148/81/124 145/80/124 154/246/124 158/247/124
f 146/59/125 144/58/125 153/243/125 156/248/125
f 142/97/126 143/96/126 151/249/126 150/250/126
f 136/57/127 139/231/127 142/241/127 144/58/127
f 67/251/128 74/78/128 148/81/128 149/252/128
f 29/63/129 130/66/129 147/238/129 141/72/129
f 81/79/130 83/253/130 140/244/130 145/80/130
f 153/243/131 150/242/131 162/254/131 164/255/131
f 154/246/132 46/245/132 160/256/132 165/257/132
f 158/247/133 154/246/133 165/257/133 168/258/133
f 156/248/134 153/243/134 164/255/134 166/259/134
f 150/250/135 151/249/135 163/260/135 162/261/135
f 157/262/136 156/248/136 166/259/136 167/263/136
f 149/252/137 148/81/137 158/247/137 159/264/137
f 143/96/138 149/237/138 159/265/138 151/249/138
f 140/73/139 141/72/139 39/240/139 46/266/139
f 147/83/140 146/59/140 156/248/140 157/262/140
f 188/267/141 187/268/141 177/269/141 152/270/141
f 184/271/142 185/272/142 170/273/142 173/274/142
f 182/275/143 180/276/143 155/277/143 174/278/143
f 181/279/144 182/275/144 174/278/144 178/280/144
f 183/281/145 184/271/145 173/274/145 176/282/145
f 170/273/146 185/272/146 194/283/146 192/284/146
f 39/240/147 157/239/147 167/285/147 161/286/147
f 159/264/148 158/247/148 168/258/148 169/287/148
f 151/249/149 159/265/149 169/288/149 163/260/149
f 46/266/150 39/240/150 161/286/150 160/289/150
f 155/290/151 152/291/151 175/292/151 174/293/151
f 171/294/152 172/295/152 173/296/152 170/297/152
f 174/293/153 175/292/153 172/295/153 178/298/153
f 175/292/154 152/291/154 177/299/154 176/300/154
f 178/298/155 172/295/155 171/294/155 179/301/155
f 172/295/156 175/292/156 176/300/156 173/296/156
f 189/302/157 181/279/157 178/280/157 179/303/157
f 189/302/158 179/303/158 193/304/158 195/305/158
f 180/306/159 188/267/159 152/270/159 155/307/159
f 187/308/160 183/281/160 176/282/160 177/309/160
f 167/263/161 166/259/161 183/281/161 187/308/161
f 160/289/162 161/286/162 188/267/162 180/306/162
f 163/260/163 169/288/163 189/310/163 186/311/163
f 169/287/164 168/258/164 181/279/164 189/302/164
f 162/261/165 163/260/165 186/311/165 185/312/165
f 166/259/166 164/255/166 184/271/166 183/281/166
f 168/258/167 165/257/167 182/275/167 181/279/167
f 165/257/168 160/256/168 180/276/168 182/275/168
f 164/255/169 162/254/169 185/272/169 184/271/169
f 161/286/170 167/285/170 187/268/170 188/267/170
f 194/313/171 190/314/171 191/315/171 192/316/171
f 190/314/172 195/317/172 193/318/172 191/315/172
f 185/319/173 186/320/173 190/321/173 194/322/173
f 171/294/174 170/297/174 192/323/174 191/324/174
f 186/320/175 189/325/175 195/326/175 190/321/175
f 179/301/176 171/294/176 191/324/176 193/327/176
f 196/328/177 197/329/177 200/330/177 199/331/177
f 200/330/178 201/124/178 204/123/178 203/332/178
f 197/329/179 198/333/179 201/124/179 200/330/179
f 199/331/180 200/330/180 203/332/180 202/334/180
f 7/42/181 3/111/181 198/110/181 197/43/181
f 17/7/182 4/6/182 196/335/182 199/336/182
f 201/124/183 198/333/183 213/337/183 211/125/183
f 21/33/184 17/7/184 199/336/184 202/338/184
f 208/4/185 209/3/185 217/339/185 216/340/185
f 210/341/186 206/342/186 214/343/186 218/344/186
f 207/112/187 208/345/187 216/346/187 215/347/187
f 211/125/188 213/337/188 221/348/188 219/349/188
f 20/35/189 204/38/189 212/350/189 206/342/189
f 91/48/190 20/35/190 206/342/190 210/341/190
f 98/2/191 91/351/191 210/352/191 209/3/191
f 3/111/192 116/353/192 208/345/192 207/112/192
f 232/354/193 235/355/193 222/356/193 226/357/193
f 233/358/194 224/359/194 240/360/194 241/361/194
f 16/362/195 230/363/195 229/364/195 227/365/195
f 231/366/196 232/367/196 226/368/196 225/369/196
f 213/113/197 207/112/197 215/347/197 221/370/197
f 206/342/198 212/350/198 220/371/198 214/343/198
f 212/126/199 211/125/199 219/349/199 220/372/199
f 209/3/200 210/352/200 218/373/200 217/339/200
f 223/374/201 205/375/201 227/376/201 229/377/201
f 223/374/202 224/378/202 225/379/202 205/375/202
f 205/375/203 225/379/203 226/380/203 222/381/203
f 205/375/204 222/381/204 228/382/204 227/376/204
f 233/358/205 231/366/205 225/369/205 224/359/205
f 229/364/206 230/363/206 237/383/206 238/384/206
f 235/355/207 236/385/207 228/386/207 222/356/207
f 236/387/208 16/362/208 227/365/208 228/388/208
f 250/389/209 243/390/209 16/362/209 236/387/209
f 249/391/210 250/392/210 236/385/210 235/355/210
f 246/393/211 245/394/211 234/395/211 230/396/211
f 248/397/212 244/398/212 231/366/212 233/358/212
f 244/398/213 247/399/213 232/367/213 231/366/213
f 243/390/214 246/400/214 230/363/214 16/362/214
f 245/394/215 248/401/215 233/402/215 234/395/215
f 247/403/216 249/391/216 235/355/216 232/354/216
f 242/404/217 241/405/217 240/406/217 239/407/217
f 237/408/218 242/404/218 239/407/218 238/409/218
f 234/410/219 233/411/219 241/412/219 242/413/219
f 224/378/220 223/374/220 239/414/220 240/415/220
f 230/416/221 234/410/221 242/413/221 237/417/221
f 223/374/222 229/377/222 238/418/222 239/414/222
f 218/344/223 214/343/223 249/391/223 247/403/223
f 215/347/224 216/346/224 248/401/224 245/394/224
f 219/349/225 221/348/225 246/400/225 243/390/225
f 217/339/226 218/373/226 247/399/226 244/398/226
f 216/340/227 217/339/227 244/398/227 248/397/227
f 221/370/228 215/347/228 245/394/228 246/393/228
f 214/343/229 220/371/229 250/392/229 249/391/229
f 220/372/230 219/349/230 243/390/230 250/389/230
f 252/419/231 251/420/231 254/421/231 253/422/231
f 255/423/232 257/424/232 252/425/232 253/426/232
f 258/427/233 256/428/233 254/421/233 251/420/233
f 24/107/234 90/34/234 256/429/234 258/430/234
f 89/45/235 26/119/235 257/431/235 255/432/235
f 90/46/236 89/45/236 255/432/236 256/428/236
f 84/433/237 85/434/237 260/134/237 259/133/237
f 275/435/238 84/433/238 259/133/238 261/172/238
f 85/434/239 276/436/239 262/149/239 260/134/239
f 276/436/240 284/437/240 283/438/240 275/435/240 261/172/240 262/149/240
f 84/439/241 275/440/241 279/441/241 263/442/241
f 266/443/242 264/444/242 278/445/242 280/446/242
f 276/436/243 85/434/243 267/447/243 282/448/243
f 278/449/244 264/450/244 265/451/244 277/452/244
f 277/452/245 265/451/245 263/442/245 279/441/245
f 266/443/246 280/446/246 281/453/246 268/454/246
f 268/454/247 281/453/247 282/448/247 267/447/247
f 85/455/248 84/456/248 263/457/248 265/458/248 264/459/248 266/460/248 268/461/248 267/462/248
f 106/463/249 284/464/249 276/465/249
f 271/466/250 269/467/250 278/468/250 277/469/250
f 270/470/251 271/466/251 277/469/251 279/471/251
f 273/202/252 274/201/252 281/472/252 280/473/252
f 274/201/253 272/474/253 282/475/253 281/472/253
f 269/467/254 273/202/254 280/473/254 278/468/254
f 111/476/255 270/470/255 279/471/255 275/477/255
f 272/474/256 106/463/256 276/465/256 282/475/256
f 285/478/257 286/479/257 292/480/257 291/204/257 290/203/257 288/481/257 287/482/257 289/483/257
f 283/484/258 111/476/258 275/477/258
f 270/470/259 111/476/259 285/478/259 289/483/259
f 294/485/260 286/479/260 285/478/260 293/486/260
f 111/476/261 283/484/261 293/486/261 285/478/261
f 106/463/262 272/474/262 292/480/262 286/479/262
f 272/474/263 274/201/263 291/204/263 292/480/263
f 269/467/264 271/466/264 287/482/264 288/481/264
f 283/438/265 284/437/265 294/487/265 293/488/265
f 273/202/266 269/467/266 288/481/266 290/203/266
f 284/464/267 106/463/267 286/479/267 294/485/267
f 271/466/268 270/470/268 289/483/268 287/482/268
f 297/489/269 295/490/269 36/491/269 100/492/269
f 296/208/270 298/493/270 104/198/270 301/197/270
f 101/494/271 298/493/271 296/208/271 35/207/271
f 36/196/272 302/495/272 303/496/272 301/197/272
f 299/497/273 296/498/273 301/499/273 303/500/273
f 295/490/274 300/501/274 302/502/274 36/491/274
f 298/184/275 297/183/275 100/503/275 104/504/275
f 385/1/276 474/4/276 475/3/276 372/2/276
f 384/505/277 371/506/277 314/507/277 307/508/277
f 306/9/278 309/12/278 312/11/278 308/10/278
f 308/10/279 312/11/279 310/14/279 307/13/279
f 312/11/280 311/16/280 305/15/280 310/14/280
f 309/12/281 304/17/281 311/16/281 312/11/281
f 304/17/282 321/19/282 324/18/282 311/16/282
f 383/509/283 361/510/283 321/511/283 304/512/283
f 385/513/284 380/514/284 309/515/284 306/516/284
f 380/514/285 383/509/285 304/512/285 309/515/285
f 384/505/286 373/517/286 15/29/286 6/28/286
f 373/517/287 382/518/287 12/31/287 15/29/287
f 371/506/288 366/519/288 316/520/288 314/507/288
f 315/521/289 470/522/289 469/523/289 318/524/289
f 385/513/290 372/525/290 18/39/290 5/28/290
f 307/526/291 462/527/291 463/528/291 308/529/291
f 365/530/292 318/524/292 316/531/292 366/532/292
f 367/533/293 315/521/293 318/524/293 365/530/293
f 318/524/294 469/523/294 468/534/294 316/531/294
f 372/525/295 367/535/295 23/50/295 18/39/295
f 328/52/296 397/55/296 400/54/296 333/53/296
f 399/56/297 412/59/297 410/58/297 402/57/297
f 382/518/298 360/536/298 34/60/298 12/31/298
f 311/16/299 324/18/299 322/62/299 305/15/299
f 321/537/300 396/538/300 395/539/300 324/540/300
f 355/541/301 353/542/301 48/69/301 41/68/301
f 360/536/302 355/541/302 41/68/302 34/60/302
f 361/543/303 406/544/303 407/545/303 321/537/303
f 324/540/304 395/539/304 394/546/304 322/547/304
f 353/542/305 348/548/305 56/76/305 48/69/305
f 354/78/306 414/81/306 411/80/306 359/79/306
f 396/82/307 413/83/307 412/59/307 399/56/307
f 6/28/308 19/39/308 371/506/308 384/505/308
f 340/84/309 345/87/309 344/86/309 339/85/309
f 349/549/310 347/550/310 345/551/310 340/552/310
f 11/92/311 33/93/311 361/510/311 383/509/311
f 5/28/312 14/29/312 380/514/312 385/513/312
f 14/29/313 11/92/313 383/509/313 380/514/313
f 405/553/314 408/554/314 409/555/314 340/556/314
f 322/62/315 394/98/315 397/55/315 328/52/315
f 307/508/316 310/557/316 373/517/316 384/505/316
f 345/87/317 352/101/317 351/100/317 344/86/317
f 347/550/318 342/558/318 352/559/318 345/551/318
f 310/557/319 305/560/319 382/518/319 373/517/319
f 348/548/320 346/561/320 63/105/320 56/76/320
f 19/39/321 24/107/321 366/519/321 371/506/321
f 339/85/322 344/86/322 343/109/322 338/108/322
f 464/562/323 479/563/323 473/564/323 306/565/323
f 520/114/324 518/117/324 517/116/324 519/115/324
f 23/118/325 367/533/325 365/530/325 26/119/325
f 351/100/326 357/122/326 356/121/326 350/120/326
f 470/123/327 478/126/327 477/125/327 467/124/327
f 346/561/328 341/566/328 72/127/328 63/105/328
f 33/93/329 40/68/329 359/567/329 361/510/329
f 344/86/330 351/100/330 350/120/330 343/109/330
f 305/560/331 322/568/331 360/536/331 382/518/331
f 328/569/332 333/570/332 353/542/332 355/541/332
f 357/122/333 522/134/333 521/133/333 356/121/333
f 322/568/334 328/569/334 355/541/334 360/536/334
f 336/571/335 332/572/335 88/137/335 80/136/335
f 342/558/336 337/573/336 358/574/336 352/559/336
f 352/101/337 358/141/337 357/122/337 351/100/337
f 333/570/338 338/575/338 348/548/338 353/542/338
f 341/566/339 336/571/339 80/136/339 72/127/339
f 320/576/340 330/577/340 96/145/340 110/144/340
f 40/68/341 47/69/341 354/578/341 359/567/341
f 379/148/342 370/151/342 369/150/342 524/149/342
f 323/579/343 331/580/343 370/581/343 379/582/343
f 55/156/344 62/157/344 347/550/344 349/549/344
f 337/573/345 335/583/345 364/584/345 358/574/345
f 358/141/346 364/160/346 522/134/346 357/122/346
f 47/69/347 55/156/347 349/549/347 354/578/347
f 391/161/348 376/164/348 375/163/348 392/162/348
f 389/585/349 327/586/349 376/587/349 391/588/349
f 62/157/350 71/169/350 342/558/350 347/550/350
f 338/575/351 343/589/351 346/561/351 348/548/351
f 343/589/352 350/590/352 341/566/352 346/561/352
f 524/149/353 369/150/353 368/173/353 523/172/353
f 356/591/354 521/592/354 332/593/354 336/594/354
f 71/169/355 79/178/355 337/573/355 342/558/355
f 327/586/356 103/181/356 105/180/356 325/595/356
f 392/162/357 375/163/357 560/184/357 559/183/357 393/182/357
f 350/590/358 356/596/358 336/571/358 341/566/358
f 523/597/359 368/598/359 330/577/359 320/576/359
f 107/188/360 95/189/360 331/580/360 323/579/360
f 393/599/361 559/600/361 557/601/361 390/602/361
f 79/178/362 87/194/362 335/583/362 337/573/362
f 374/603/363 377/604/363 561/605/363 326/606/363
f 126/199/364 103/181/364 327/586/364 389/585/364
f 376/587/365 327/586/365 325/595/365 375/607/365
f 536/608/366 553/609/366 552/610/366 535/611/366
f 390/602/367 557/601/367 300/206/367 125/205/367
f 335/583/368 323/579/368 379/582/368 364/584/368
f 364/160/369 379/148/369 524/149/369 522/134/369
f 325/612/370 105/210/370 299/209/370 558/613/370
f 332/593/371 320/576/371 110/144/371 88/211/371
f 369/614/372 387/615/372 388/616/372 368/598/372
f 87/194/373 107/188/373 323/579/373 335/583/373
f 330/577/374 319/617/374 113/215/374 96/145/374
f 521/618/375 523/619/375 320/620/375 332/572/375
f 368/598/376 388/616/376 319/617/376 330/577/376
f 95/189/377 118/221/377 317/621/377 331/580/377
f 331/580/378 317/621/378 386/622/378 370/581/378
f 370/151/379 386/224/379 387/223/379 369/150/379
f 388/616/380 393/599/380 390/602/380 319/617/380
f 118/221/381 126/199/381 389/585/381 317/621/381
f 387/223/382 392/162/382 393/182/382 388/225/382
f 319/617/383 390/602/383 125/205/383 113/215/383
f 317/621/384 389/585/384 391/588/384 386/622/384
f 386/224/385 391/161/385 392/162/385 387/223/385
f 396/82/386 399/56/386 398/227/386 395/226/386
f 398/227/387 401/228/387 400/54/387 397/55/387
f 395/226/388 398/227/388 397/55/388 394/98/388
f 401/228/389 404/230/389 403/229/389 400/54/389
f 399/56/390 402/57/390 401/228/390 398/227/390
f 402/57/391 405/231/391 404/230/391 401/228/391
f 338/623/392 403/624/392 404/625/392 339/626/392
f 333/53/393 400/54/393 403/229/393 338/108/393
f 340/556/394 409/555/394 415/627/394 349/628/394
f 339/626/395 404/625/395 405/553/395 340/556/395
f 407/545/396 329/629/396 423/630/396 413/631/396
f 410/58/397 419/243/397 416/242/397 408/241/397
f 411/80/398 420/246/398 334/245/398 406/244/398
f 414/81/399 424/247/399 420/246/399 411/80/399
f 412/59/400 422/248/400 419/243/400 410/58/400
f 408/554/401 416/632/401 417/633/401 409/555/401
f 402/57/402 410/58/402 408/241/402 405/231/402
f 349/251/403 415/252/403 414/81/403 354/78/403
f 321/537/404 407/545/404 413/631/404 396/538/404
f 359/79/405 411/80/405 406/244/405 361/253/405
f 419/243/406 430/255/406 428/254/406 416/242/406
f 420/246/407 431/257/407 426/256/407 334/245/407
f 424/247/408 434/258/408 431/257/408 420/246/408
f 422/248/409 432/259/409 430/255/409 419/243/409
f 416/632/410 428/634/410 429/635/410 417/633/410
f 423/262/411 433/263/411 432/259/411 422/248/411
f 415/252/412 425/264/412 424/247/412 414/81/412
f 409/555/413 417/633/413 425/636/413 415/627/413
f 406/544/414 334/637/414 329/629/414 407/545/414
f 413/83/415 423/262/415 422/248/415 412/59/415
f 454/638/416 418/639/416 443/640/416 453/641/416
f 450/271/417 439/274/417 436/273/417 451/272/417
f 448/275/418 440/278/418 421/277/418 446/276/418
f 447/279/419 444/280/419 440/278/419 448/275/419
f 449/281/420 442/282/420 439/274/420 450/271/420
f 436/273/421 458/284/421 460/283/421 451/272/421
f 329/629/422 427/642/422 433/643/422 423/630/422
f 425/264/423 435/287/423 434/258/423 424/247/423
f 417/633/424 429/635/424 435/644/424 425/636/424
f 334/637/425 426/645/425 427/642/425 329/629/425
f 421/646/426 440/647/426 441/648/426 418/649/426
f 437/650/427 436/651/427 439/652/427 438/653/427
f 440/647/428 444/654/428 438/653/428 441/648/428
f 441/648/429 442/655/429 443/656/429 418/649/429
f 444/654/430 445/657/430 437/650/430 438/653/430
f 438/653/431 439/652/431 442/655/431 441/648/431
f 455/302/432 445/303/432 444/280/432 447/279/432
f 455/302/433 461/305/433 459/304/433 445/303/433
f 446/658/434 421/659/434 418/639/434 454/638/434
f 453/308/435 443/309/435 442/282/435 449/281/435
f 433/263/436 453/308/436 449/281/436 432/259/436
f 426/645/437 446/658/437 454/638/437 427/642/437
f 429/635/438 452/660/438 455/661/438 435/644/438
f 435/287/439 455/302/439 447/279/439 434/258/439
f 428/634/440 451/662/440 452/660/440 429/635/440
f 432/259/441 449/281/441 450/271/441 430/255/441
f 434/258/442 447/279/442 448/275/442 431/257/442
f 431/257/443 448/275/443 446/276/443 426/256/443
f 430/255/444 450/271/444 451/272/444 428/254/444
f 427/642/445 454/638/445 453/641/445 433/643/445
f 460/663/446 458/664/446 457/665/446 456/666/446
f 456/666/447 457/665/447 459/667/447 461/668/447
f 451/669/448 460/670/448 456/671/448 452/672/448
f 437/650/449 457/673/449 458/674/449 436/651/449
f 452/672/450 456/671/450 461/675/450 455/676/450
f 445/657/451 459/677/451 457/673/451 437/650/451
f 462/328/452 465/331/452 466/330/452 463/329/452
f 466/330/453 469/332/453 470/123/453 467/124/453
f 463/329/454 466/330/454 467/124/454 464/333/454
f 465/331/455 468/334/455 469/332/455 466/330/455
f 308/529/456 463/528/456 464/562/456 306/565/456
f 314/507/457 465/678/457 462/679/457 307/508/457
f 467/124/458 477/125/458 479/337/458 464/333/458
f 316/520/459 468/680/459 465/678/459 314/507/459
f 474/4/460 482/340/460 483/339/460 475/3/460
f 476/681/461 484/682/461 480/683/461 472/684/461
f 473/564/462 481/685/462 482/686/462 474/687/462
f 477/125/463 485/349/463 487/348/463 479/337/463
f 315/521/464 472/684/464 478/688/464 470/522/464
f 367/533/465 476/681/465 472/684/465 315/521/465
f 372/2/466 475/3/466 476/352/466 367/351/466
f 306/565/467 473/564/467 474/687/467 385/689/467
f 498/690/468 492/691/468 488/692/468 501/693/468
f 499/358/469 507/361/469 506/360/469 490/359/469
f 313/362/470 493/365/470 495/364/470 496/363/470
f 497/366/471 491/369/471 492/368/471 498/367/471
f 479/563/472 487/694/472 481/685/472 473/564/472
f 472/684/473 480/683/473 486/695/473 478/688/473
f 478/126/474 486/372/474 485/349/474 477/125/474
f 475/3/475 483/339/475 484/373/475 476/352/475
f 489/696/476 495/697/476 493/698/476 471/699/476
f 489/696/477 471/699/477 491/700/477 490/701/477
f 471/699/478 488/702/478 492/703/478 491/700/478
f 471/699/479 493/698/479 494/704/479 488/702/479
f 499/358/480 490/359/480 491/369/480 497/366/480
f 495/364/481 504/384/481 503/383/481 496/363/481
f 501/693/482 488/692/482 494/705/482 502/706/482
f 502/387/483 494/388/483 493/365/483 313/362/483
f 516/389/484 502/387/484 313/362/484 509/390/484
f 515/707/485 501/693/485 502/706/485 516/708/485
f 512/709/486 496/710/486 500/711/486 511/712/486
f 514/397/487 499/358/487 497/366/487 510/398/487
f 510/398/488 497/366/488 498/367/488 513/399/488
f 509/390/489 313/362/489 496/363/489 512/400/489
f 511/712/490 500/711/490 499/713/490 514/714/490
f 513/715/491 498/690/491 501/693/491 515/707/491
f 508/716/492 505/717/492 506/718/492 507/719/492
f 503/720/493 504/721/493 505/717/493 508/716/493
f 500/722/494 508/723/494 507/724/494 499/725/494
f 490/701/495 506/726/495 505/727/495 489/696/495
f 496/728/496 503/729/496 508/723/496 500/722/496
f 489/696/497 505/727/497 504/730/497 495/697/497
f 484/682/498 513/715/498 515/707/498 480/683/498
f 481/685/499 511/712/499 514/714/499 482/686/499
f 485/349/500 509/390/500 512/400/500 487/348/500
f 483/339/501 510/398/501 513/399/501 484/373/501
f 482/340/502 514/397/502 510/398/502 483/339/502
f 487/694/503 512/709/503 511/712/503 481/685/503
f 480/683/504 515/707/504 516/708/504 486/695/504
f 486/372/505 516/389/505 509/390/505 485/349/505
f 252/419/506 517/731/506 518/732/506 251/420/506
f 519/733/507 517/734/507 252/425/507 257/424/507
f 258/427/508 251/420/508 518/732/508 520/735/508
f 24/107/509 258/430/509 520/736/509 366/519/509
f 365/530/510 519/737/510 257/431/510 26/119/510
f 366/532/511 520/735/511 519/737/511 365/530/511
f 362/433/512 521/133/512 522/134/512 363/434/512
f 537/435/513 523/172/513 521/133/513 362/433/513
f 363/434/514 522/134/514 524/149/514 538/436/514
f 538/436/515 524/149/515 523/172/515 537/435/515 545/438/515 546/437/515
f 362/738/516 525/739/516 541/740/516 537/741/516
f 528/443/517 542/446/517 540/445/517 526/444/517
f 538/436/518 544/448/518 529/447/518 363/434/518
f 540/742/519 539/743/519 527/744/519 526/745/519
f 539/743/520 541/740/520 525/739/520 527/744/520
f 528/443/521 530/454/521 543/453/521 542/446/521
f 530/454/522 529/447/522 544/448/522 543/453/522
f 363/746/523 529/747/523 530/748/523 528/749/523 526/750/523 527/751/523 525/752/523 362/753/523
f 378/754/524 538/755/524 546/756/524
f 533/757/525 539/758/525 540/759/525 531/760/525
f 532/761/526 541/762/526 539/758/526 533/757/526
f 535/611/527 542/763/527 543/764/527 536/608/527
f 536/608/528 543/764/528 544/765/528 534/766/528
f 531/760/529 540/759/529 542/763/529 535/611/529
f 381/767/530 537/768/530 541/762/530 532/761/530
f 534/766/531 544/765/531 538/755/531 378/754/531
f 547/769/532 551/770/532 549/771/532 550/772/532 552/610/532 553/609/532 554/773/532 548/774/532
f 545/775/533 537/768/533 381/767/533
f 532/761/534 551/770/534 547/769/534 381/767/534
f 556/776/535 555/777/535 547/769/535 548/774/535
f 381/767/536 547/769/536 555/777/536 545/775/536
f 378/754/537 548/774/537 554/773/537 534/766/537
f 534/766/538 554/773/538 553/609/538 536/608/538
f 531/760/539 550/772/539 549/771/539 533/757/539
f 545/438/540 555/488/540 556/487/540 546/437/540
f 535/611/541 552/610/541 550/772/541 531/760/541
f 546/756/542 556/776/542 548/774/542 378/754/542
f 533/757/543 549/771/543 551/770/543 532/761/543
f 559/778/544 374/779/544 326/780/544 557/781/544
f 558/613/545 561/605/545 377/604/545 560/782/545
f 375/783/546 325/612/546 558/613/546 560/782/546
f 326/606/547 561/605/547 303/496/547 302/495/547
f 299/497/548 303/500/548 561/784/548 558/785/548
f 557/781/549 326/780/549 302/502/549 300/501/549
f 560/184/550 377/504/550 374/503/550 559/183/550
f 562/786/551 575/787/551 574/788/551
f 563/789/552 575/790/552 577/791/552
f 562/792/553 574/793/553 579/794/553
f 562/795/554 579/796/554 581/797/554
f 562/798/555 581/799/555 578/800/555
f 563/789/556 577/791/556 584/801/556
f 564/802/557 576/803/557 586/804/557
f 565/805/558 580/806/558 588/807/558
f 566/808/559 582/809/559 590/810/559
f 567/811/560 583/812/560 592/813/560
f 563/789/561 584/801/561 587/814/561
f 564/802/562 586/804/562 589/815/562
f 565/805/563 588/807/563 591/816/563
f 566/808/564 590/810/564 593/817/564
f 567/811/565 592/813/565 585/818/565
f 568/819/566 594/820/566 599/821/566
f 569/822/567 595/823/567 601/824/567
f 570/825/568 596/826/568 602/827/568
f 571/828/569 597/829/569 603/830/569
f 572/831/570 598/832/570 600/833/570
f 600/833/571 603/834/571 573/835/571
f 600/833/572 598/832/572 603/834/572
f 598/832/573 571/828/573 603/834/573
f 603/830/574 602/836/574 573/837/574
f 603/830/575 597/829/575 602/836/575
f 597/829/576 570/825/576 602/836/576
f 602/827/577 601/838/577 573/839/577
f 602/827/578 596/826/578 601/838/578
f 596/826/579 569/840/579 601/838/579
f 601/824/580 599/841/580 573/842/580
f 601/824/581 595/823/581 599/841/581
f 595/823/582 568/819/582 599/841/582
f 599/821/583 600/843/583 573/844/583
f 599/821/584 594/820/584 600/843/584
f 594/820/585 572/831/585 600/843/585
f 585/818/586 598/832/586 572/831/586
f 585/818/587 592/813/587 598/832/587
f 592/813/588 571/828/588 598/832/588
f 593/817/589 597/829/589 571/828/589
f 593/817/590 590/810/590 597/829/590
f 590/810/591 570/825/591 597/829/591
f 591/816/592 596/826/592 570/825/592
f 591/816/593 588/807/593 596/826/593
f 588/807/594 569/840/594 596/826/594
f 589/815/595 595/823/595 569/822/595
f 589/815/596 586/804/596 595/823/596
f 586/804/597 568/819/597 595/823/597
f 587/814/598 594/820/598 568/819/598
f 587/814/599 584/801/599 594/820/599
f 584/801/600 572/831/600 594/820/600
f 592/813/601 593/817/601 571/828/601
f 592/813/602 583/812/602 593/817/602
f 583/812/603 566/808/603 593/817/603
f 590/810/604 591/816/604 570/825/604
f 590/810/605 582/809/605 591/816/605
f 582/809/606 565/805/606 591/816/606
f 588/807/607 589/845/607 569/840/607
f 588/807/608 580/806/608 589/845/608
f 580/806/609 564/846/609 589/845/609
f 586/804/610 587/814/610 568/819/610
f 586/804/611 576/803/611 587/814/611
f 576/803/612 563/789/612 587/814/612
f 584/801/613 585/818/613 572/831/613
f 584/801/614 577/791/614 585/818/614
f 577/791/615 567/811/615 585/818/615
f 578/800/616 583/812/616 567/811/616
f 578/800/617 581/799/617 583/812/617
f 581/799/618 566/808/618 583/812/618
f 581/797/619 582/809/619 566/808/619
f 581/797/620 579/796/620 582/809/620
f 579/796/621 565/805/621 582/809/621
f 579/794/622 580/806/622 565/805/622
f 579/794/623 574/793/623 580/806/623
f 574/793/624 564/846/624 580/806/624
f 577/791/625 578/847/625 567/811/625
f 577/791/626 575/790/626 578/847/626
f 575/790/627 562/848/627 578/847/627
f 574/788/628 576/803/628 564/802/628
f 574/788/629 575/787/629 576/803/629
f 575/787/630 563/789/630 576/803/630
f 604/786/631 616/788/631 617/787/631
f 605/789/632 619/791/632 617/790/632
f 604/792/633 621/794/633 616/793/633
f 604/795/634 623/797/634 621/796/634
f 604/798/635 620/800/635 623/799/635
f 605/789/636 626/801/636 619/791/636
f 606/802/637 628/804/637 618/803/637
f 607/805/638 630/807/638 622/806/638
f 608/808/639 632/810/639 624/809/639
f 609/811/640 634/813/640 625/812/640
f 605/789/641 629/814/641 626/801/641
f 606/802/642 631/815/642 628/804/642
f 607/805/643 633/816/643 630/807/643
f 608/808/644 635/817/644 632/810/644
f 609/811/645 627/818/645 634/813/645
f 610/819/646 641/821/646 636/820/646
f 611/822/647 643/824/647 637/823/647
f 612/825/648 644/827/648 638/826/648
f 613/828/649 645/830/649 639/829/649
f 614/831/650 642/833/650 640/832/650
f 642/833/651 615/835/651 645/834/651
f 642/833/652 645/834/652 640/832/652
f 640/832/653 645/834/653 613/828/653
f 645/830/654 615/837/654 644/836/654
f 645/830/655 644/836/655 639/829/655
f 639/829/656 644/836/656 612/825/656
f 644/827/657 615/839/657 643/838/657
f 644/827/658 643/838/658 638/826/658
f 638/826/659 643/838/659 611/840/659
f 643/824/660 615/842/660 641/841/660
f 643/824/661 641/841/661 637/823/661
f 637/823/662 641/841/662 610/819/662
f 641/821/663 615/844/663 642/843/663
f 641/821/664 642/843/664 636/820/664
f 636/820/665 642/843/665 614/831/665
f 627/818/666 614/831/666 640/832/666
f 627/818/667 640/832/667 634/813/667
f 634/813/668 640/832/668 613/828/668
f 635/817/669 613/828/669 639/829/669
f 635/817/670 639/829/670 632/810/670
f 632/810/671 639/829/671 612/825/671
f 633/816/672 612/825/672 638/826/672
f 633/816/673 638/826/673 630/807/673
f 630/807/674 638/826/674 611/840/674
f 631/815/675 611/822/675 637/823/675
f 631/815/676 637/823/676 628/804/676
f 628/804/677 637/823/677 610/819/677
f 629/814/678 610/819/678 636/820/678
f 629/814/679 636/820/679 626/801/679
f 626/801/680 636/820/680 614/831/680
f 634/813/681 613/828/681 635/817/681
f 634/813/682 635/817/682 625/812/682
f 625/812/683 635/817/683 608/808/683
f 632/810/684 612/825/684 633/816/684
f 632/810/685 633/816/685 624/809/685
f 624/809/686 633/816/686 607/805/686
f 630/807/687 611/840/687 631/845/687
f 630/807/688 631/845/688 622/806/688
f 622/806/689 631/845/689 606/846/689
f 628/804/690 610/819/690 629/814/690
f 628/804/691 629/814/691 618/803/691
f 618/803/692 629/814/692 605/789/692
f 626/801/693 614/831/693 627/818/693
f 626/801/694 627/818/694 619/791/694
f 619/791/695 627/818/695 609/811/695
f 620/800/696 609/811/696 625/812/696
f 620/800/697 625/812/697 623/799/697
f 623/799/698 625/812/698 608/808/698
f 623/797/699 608/808/699 624/809/699
f 623/797/700 624/809/700 621/796/700
f 621/796/701 624/809/701 607/805/701
f 621/794/702 607/805/702 622/806/702
f 621/794/703 622/806/703 616/793/703
f 616/793/704 622/806/704 606/846/704
f 619/791/705 609/811/705 620/847/705
f 619/791/706 620/847/706 617/790/706
f 617/790/707 620/847/707 604/848/707
f 616/788/708 606/802/708 618/803/708
f 616/788/709 618/803/709 617/787/709
f 617/787/710 618/803/710 605/789/710
