# Blender 5.1.1
# www.blender.org
o Куб.001
v 0.554421 1.173095 0.591779
v 0.532555 2.431619 0.474459
v 0.602506 1.111509 -0.013092
v 0.619472 2.368580 -0.227916
v -0.005210 1.016391 -0.329421
v -0.000000 2.480862 -0.357245
v 0.708361 1.743404 0.076941
v 0.619866 1.084119 0.253847
v 0.609568 2.453355 0.120312
v 0.655177 1.744084 0.515840
v 0.006807 0.964531 0.667857
v -0.000000 2.544096 0.544675
v 0.718924 1.751017 0.174261
v -0.003701 0.907814 0.179258
v -0.000000 2.614716 0.130571
v 0.822793 0.224327 -0.387465
v 0.537649 2.236689 -0.527672
v -0.004491 1.105323 -0.588684
v 0.000000 2.280686 -0.622767
v 0.464500 1.255856 -0.667060
v 0.464300 2.047815 -0.750072
v 0.090363 0.720334 3.002583
v -0.002775 1.223706 -0.809092
v -0.000000 2.103516 -0.887623
v 0.561794 1.637168 -0.809654
v -0.000454 1.597793 -0.916860
v 0.084677 1.094115 3.146499
v 0.172094 1.515765 3.028346
v 0.494219 1.385976 1.002830
v 0.500565 2.380255 0.889723
v 0.175772 0.778137 2.808948
v 0.622405 1.750531 0.853500
v 0.015651 1.011237 1.111704
v 0.000013 2.487711 0.979386
v 0.059274 0.691885 3.232409
v 0.033850 0.835342 3.325844
v 0.047665 0.666013 3.115015
v 0.569732 2.535133 1.239707
v 0.550039 0.939752 0.901986
v 0.009465 0.954320 1.468255
v -0.001296 2.651779 1.345342
v 0.118300 1.301457 3.177376
v 0.136209 0.734731 2.917511
v 0.177045 1.738708 2.835487
v 0.582331 2.536044 1.435942
v 0.452246 0.896773 0.936915
v 0.005113 0.989495 1.616438
v -0.000605 2.655466 1.544471
v 0.190837 0.829481 2.699847
v 0.177045 1.891097 2.660058
v 0.177045 0.889752 2.566069
v 0.540524 2.474952 1.719288
v 0.674845 1.967106 1.716884
v 0.562600 1.125544 1.716765
v 0.001248 1.085201 1.775708
v -0.000014 2.587774 1.817999
v 0.181751 2.054690 2.406349
v 0.181751 1.092283 2.254866
v 0.452833 2.254884 2.016140
v 0.560934 1.625971 1.905282
v 0.463497 1.345472 1.888694
v 0.000531 1.172581 1.901465
v -0.000000 2.337260 2.103924
v 0.227268 2.303842 2.071252
v 0.231815 1.248843 1.891302
v 0.271358 2.555052 1.765668
v 0.364746 1.105571 1.638163
v 0.364925 1.998969 2.361037
v 0.445571 1.428525 2.300722
v 0.364925 1.147869 2.209840
v -0.000000 1.057284 2.260735
v 0.000000 2.083763 2.408520
v 0.291587 2.621037 1.479465
v 0.312407 1.112380 1.525629
v 0.284984 2.619164 1.276939
v 0.355746 1.844149 2.615365
v 0.433703 1.348115 2.567079
v 0.355746 0.945170 2.527129
v -0.000000 0.865133 2.549353
v 0.000000 1.919601 2.647434
v 0.328658 1.212877 1.410603
v 0.251110 2.456954 0.911338
v 0.358858 1.299203 1.163883
v 0.372539 1.561386 2.771791
v 0.455708 1.354549 2.711771
v 0.382651 0.886214 2.663764
v -0.000000 0.806259 2.678567
v 0.000000 1.770665 2.819076
v 0.248932 1.615694 -0.883299
v 0.203268 2.088232 -0.852411
v 0.324640 1.216738 -0.637913
v 0.241143 1.283792 3.121556
v 0.339854 1.061408 2.983251
v 0.276080 0.777307 2.885897
v -0.000000 0.730324 2.881139
v -0.000000 1.329431 3.152436
v 0.249692 2.243850 -0.665289
v 0.282552 1.110211 -0.392516
v 0.307155 2.557587 0.093062
v 0.069124 0.839707 3.304078
v 0.125993 0.713477 3.197857
v 0.103346 0.692138 3.116419
v -0.000000 0.654468 3.122033
v 0.064203 0.787625 3.300825
v -0.000000 0.682844 3.226222
v 0.465527 1.384009 2.804817
v -0.000000 0.764101 2.781659
v 0.353261 0.828207 2.773588
v 0.311796 0.991240 0.200198
v 0.000000 1.550689 3.009547
v 0.402860 1.514259 2.849024
v 0.267636 2.510705 0.480969
v -0.000000 1.096837 3.146076
v 0.284327 1.065987 0.592405
v 0.301735 2.445513 -0.399074
v 0.357121 1.046700 -0.106438
v 0.186642 0.756297 2.971586
v -0.000000 0.723247 2.961411
v 0.210413 0.887435 3.090565
v 0.175549 1.064836 3.118402
v 0.070240 0.693688 3.053555
v 0.067630 0.926854 3.242914
v 0.139993 0.713402 3.049271
v 0.161300 0.801396 3.143763
v -0.000000 0.937017 3.233147
v -0.000000 0.689726 3.037878
v 0.134901 0.921324 3.210658
v 0.613536 2.280126 0.989686
v 0.724196 1.760459 0.902639
v 0.694433 1.517966 1.028348
v 0.672251 2.429697 1.237363
v 0.811257 1.894149 1.325397
v 0.841888 1.338050 1.376044
v 0.637589 2.436009 1.419994
v 0.821503 1.944296 1.494646
v 0.848442 1.247242 1.531043
v 0.642846 2.319827 1.601552
v 0.769470 1.978398 1.684177
v 0.776321 1.193273 1.679836
v 0.448264 1.102484 0.990868
v 0.549766 1.158804 0.940119
v 0.745537 0.844554 1.368853
v 0.592145 0.799395 1.401366
v 0.798166 0.894393 1.261875
v 0.415300 0.947643 1.155517
v 0.794690 0.971837 1.154644
v 0.691801 1.170078 0.940423
v 0.412605 0.853038 1.266946
v 0.454427 0.812320 1.361534
v 0.742539 0.665738 1.167296
v 0.592120 0.640010 1.194161
v 0.543521 0.708710 0.547192
v 0.797858 0.719518 1.096967
v 0.422289 0.796222 1.023626
v 0.424869 0.667120 0.572957
v 0.792309 0.791206 1.024208
v 0.687323 0.931317 0.910307
v 0.417164 0.716715 1.108699
v 0.456711 0.670671 1.167750
v 0.447410 0.810295 0.764097
v 0.554648 0.847066 0.731478
v 0.768622 0.572558 0.958624
v 0.604145 0.544221 0.979313
v 0.793781 0.633328 0.898349
v 0.421245 0.713908 0.839234
v 0.789531 0.704720 0.835425
v 0.706999 0.835031 0.736475
v 0.417375 0.632653 0.911663
v 0.457190 0.582247 0.961191
v 0.807624 0.383501 0.703269
v 0.598846 0.355444 0.700136
v 0.645276 0.470279 0.665975
v 0.809961 0.463349 0.674001
v 0.396268 0.558674 0.633577
v 0.641049 0.559173 0.629124
v 0.806310 0.544531 0.633705
v 0.712302 0.694106 0.552581
v 0.394648 0.464566 0.678934
v 0.408406 0.400772 0.701241
v 0.433214 0.732935 0.672124
v 0.403753 0.542430 0.809453
v 0.405539 0.631400 0.744748
v 0.800617 0.618447 0.742265
v 0.803892 0.541526 0.801810
v 0.783310 0.505391 0.898450
v 0.603953 0.453362 0.905317
v 0.710827 0.756882 0.645322
v 0.547776 0.770594 0.640168
v 0.444748 0.518072 0.896578
v 0.589134 0.269637 0.851203
v 0.589007 0.224334 0.734957
v 0.767777 0.256068 0.736293
v 0.429110 0.268737 0.733196
v 0.762178 0.305719 0.852417
v 0.435218 0.320852 0.852235
v 0.762347 2.228521 -0.293662
v 0.786809 1.740752 -0.011917
v 0.762682 1.138622 -0.089727
v 0.752301 2.110921 -0.515667
v 0.858041 1.671752 -0.493095
v 0.810443 1.183354 -0.345229
v 0.742084 1.962170 -0.694891
v 0.837698 1.639841 -0.713072
v 0.742343 1.252329 -0.611795
v 0.605999 -0.003404 -0.359134
v 0.523566 0.918225 -0.725326
v 0.633913 0.926219 -0.097865
v 0.437206 0.912958 -0.164612
v 0.377895 0.907918 -0.432223
v 0.411458 0.913737 -0.679260
v 0.800762 0.921641 -0.420195
v 0.746308 0.919871 -0.682017
v 0.762394 0.926348 -0.174840
v 0.540323 0.685207 -0.695716
v 0.641354 0.550149 -0.134371
v 0.462159 0.554065 -0.201408
v 0.407874 0.615154 -0.439514
v 0.438230 0.671858 -0.655512
v 0.793033 0.622538 -0.421551
v 0.743249 0.678036 -0.656256
v 0.758299 0.568958 -0.201163
v 0.549100 -0.007844 -0.597378
v 0.668540 0.022008 -0.139346
v 0.413694 -0.001000 -0.191490
v 0.401570 -0.013734 -0.386647
v 0.435456 -0.010883 -0.564203
v 0.830239 -0.002157 -0.374774
v 0.774941 -0.005452 -0.565880
v 0.835002 0.013601 -0.194903
v 0.825659 0.231148 -0.212747
v 0.394124 0.212813 -0.400766
v 0.427996 0.216768 -0.576985
v 0.404346 0.218083 -0.210747
v 0.659225 0.231900 -0.159187
v 0.541634 0.221093 -0.609954
v 0.767478 0.223120 -0.578146
v 0.784177 0.140318 -0.081726
v 0.791361 0.032146 -0.056900
v 0.661129 0.039476 -0.002061
v 0.461757 0.017575 -0.053192
v 0.454579 0.123937 -0.076945
v 0.653939 0.150177 -0.028649
v 0.784456 0.442478 -0.403423
v 0.425246 0.433534 -0.415909
v 0.642882 0.428461 -0.178612
v 0.751979 0.432798 -0.230910
v 0.453598 0.450302 -0.587454
v 0.475781 0.420966 -0.230122
v 0.548818 0.456094 -0.619597
v 0.738071 0.455406 -0.588761
v -0.000000 1.964712 -0.963352
v -0.000000 1.715167 -1.003691
v 0.092420 1.730043 -0.966233
v 0.076591 1.955334 -0.937061
v 0.127592 1.712375 -0.914966
v 0.088882 2.048142 -0.898695
v -0.000000 1.692332 -0.956154
v -0.000000 2.059583 -0.930772
v 0.353936 1.704899 2.711072
v 0.462452 1.281754 2.661429
v 0.346085 1.480616 2.973711
v 0.469988 1.222125 2.856056
v 0.431634 1.593786 2.816030
v 0.509515 1.574489 2.830384
v 0.472450 1.598006 2.833714
v 0.537234 1.539747 2.815732
v 0.536419 1.458602 2.774119
v 0.550043 1.499626 2.796647
v 0.514399 1.531577 2.860579
v 0.455471 1.542408 2.865085
v 0.486059 1.546594 2.867951
v 0.527030 1.460126 2.829627
v 0.527210 1.517559 2.853374
v 0.537319 1.489797 2.840826
v 0.372831 1.522856 2.852322
v 0.460350 1.341920 2.788185
v 0.490673 1.569422 2.876976
v 0.529939 1.548412 2.867274
v 0.447174 1.563308 2.873307
v 0.548145 1.528241 2.857659
v 0.562047 1.489848 2.840926
v 0.548125 1.449767 2.825606
v 0.383871 1.500037 2.844233
v 0.450291 1.362716 2.795557
v 0.413090 1.500597 2.832636
v 0.458299 1.406631 2.800744
v 0.473111 1.523924 2.846290
v 0.493557 1.513090 2.840972
v 0.451044 1.520904 2.844223
v 0.502798 1.502977 2.835775
v 0.510091 1.482949 2.826721
v 0.502668 1.461543 2.818642
v 0.399391 1.490336 2.829180
v 0.447307 1.391270 2.794065
v 0.058900 0.852422 3.295820
v 0.055763 0.764370 3.291929
v 0.099802 0.859567 3.268574
v 0.095412 0.771115 3.265500
v -0.000000 0.764050 3.294962
v -0.000000 0.849489 3.298847
v 0.030579 0.783500 3.321941
v -0.000000 0.833699 3.324478
v -0.000000 0.783377 3.321301
v -0.541086 0.999954 0.623842
v -0.532243 2.430712 0.476666
v -0.623923 1.190496 -0.200160
v -0.618003 2.394150 -0.215416
v -0.715586 1.791485 0.021912
v -0.626295 1.022120 0.159934
v -0.608849 2.457589 0.126707
v -0.651726 1.678789 0.512132
v -0.724971 1.775573 0.128430
v -0.859081 0.471792 -0.951420
v -0.534750 2.355807 -0.504813
v -0.479621 1.445736 -0.800001
v -0.464029 2.175347 -0.750463
v -0.090363 0.720334 3.002583
v -0.568288 1.807425 -0.865222
v -0.084677 1.094115 3.146499
v -0.172094 1.515765 3.028346
v -0.445736 1.058419 1.199208
v -0.500008 2.377072 0.889561
v -0.175772 0.778137 2.808948
v -0.609938 1.647300 0.871357
v -0.059274 0.691885 3.232409
v -0.033850 0.835342 3.325844
v -0.047665 0.666013 3.115015
v -0.570340 2.528199 1.239684
v -0.552741 0.412110 1.463655
v -0.118300 1.301457 3.177376
v -0.136209 0.734731 2.917511
v -0.177045 1.738708 2.835487
v -0.583003 2.528340 1.435916
v -0.458828 0.412479 1.523530
v -0.190837 0.829481 2.699847
v -0.177045 1.891097 2.660058
v -0.177045 0.889752 2.566069
v -0.540207 2.469419 1.719261
v -0.657952 1.794921 1.763446
v -0.541764 1.059430 1.963875
v -0.181751 2.054690 2.406349
v -0.181751 1.092283 2.254866
v -0.453337 2.245092 2.007574
v -0.552232 1.598971 1.928454
v -0.453169 1.339788 1.936935
v -0.227127 2.303790 2.071250
v -0.227116 1.247014 1.919573
v -0.271600 2.554620 1.765669
v -0.351577 1.055043 1.760739
v -0.364925 1.998969 2.361037
v -0.444791 1.429428 2.302284
v -0.364925 1.147869 2.209840
v -0.293557 2.618970 1.479477
v -0.294666 1.038309 1.652587
v -0.287124 2.616852 1.276950
v -0.355746 1.844149 2.615365
v -0.433703 1.348115 2.567079
v -0.355746 0.945170 2.527129
v -0.287764 1.049195 1.609763
v -0.250990 2.456718 0.911335
v -0.309815 1.046017 1.369308
v -0.372539 1.561386 2.771791
v -0.455708 1.354549 2.711771
v -0.382651 0.886214 2.663764
v -0.251047 1.666509 -0.900729
v -0.203127 2.108718 -0.851709
v -0.338519 1.371752 -0.759561
v -0.241143 1.283792 3.121556
v -0.339854 1.061408 2.983251
v -0.276080 0.777307 2.885897
v -0.249134 2.268721 -0.661037
v -0.299448 1.219064 -0.527550
v -0.307062 2.558019 0.093874
v -0.069124 0.839707 3.304078
v -0.125993 0.713477 3.197857
v -0.103346 0.692138 3.116419
v -0.064203 0.787625 3.300825
v -0.465527 1.384009 2.804817
v -0.353261 0.828207 2.773588
v -0.321983 0.963239 0.124353
v -0.402860 1.514258 2.849024
v -0.267639 2.510685 0.480969
v -0.270820 0.947678 0.621322
v -0.301100 2.456381 -0.393808
v -0.377163 1.119488 -0.275885
v -0.186642 0.756297 2.971586
v -0.210413 0.887435 3.090565
v -0.175549 1.064836 3.118402
v -0.070240 0.693688 3.053555
v -0.067630 0.926854 3.242914
v -0.139993 0.713402 3.049271
v -0.161300 0.801396 3.143763
v -0.134901 0.921324 3.210658
v -0.611636 2.248091 0.987833
v -0.707535 1.624736 0.932173
v -0.641436 1.134537 1.219191
v -0.672055 2.397658 1.231418
v -0.785752 1.597671 1.417953
v -0.802101 1.089880 1.653641
v -0.636699 2.422117 1.418073
v -0.799289 1.682481 1.572957
v -0.813795 1.078265 1.833206
v -0.641453 2.280330 1.589353
v -0.751352 1.784795 1.735268
v -0.746239 1.099153 1.965883
v -0.432804 0.657317 1.411080
v -0.529928 0.692266 1.337610
v -0.751347 0.660787 1.870344
v -0.601791 0.633734 1.916376
v -0.801021 0.651367 1.750595
v -0.414950 0.609050 1.640804
v -0.792305 0.661741 1.620666
v -0.674081 0.715748 1.333640
v -0.420069 0.596990 1.773655
v -0.463146 0.619180 1.855785
v -0.766639 0.469328 1.827979
v -0.618668 0.466651 1.872456
v -0.563589 -0.051682 1.484053
v -0.817544 0.452628 1.739274
v -0.437058 0.421097 1.657510
v -0.448563 -0.048160 1.542369
v -0.806231 0.437463 1.639696
v -0.690228 0.419658 1.466974
v -0.438289 0.437326 1.771075
v -0.481287 0.455036 1.840729
v -0.459890 0.213087 1.510155
v -0.563738 0.208834 1.455696
v -0.799533 0.271956 1.786441
v -0.637789 0.273641 1.827207
v -0.819597 0.251380 1.706273
v -0.441723 0.226784 1.631602
v -0.809507 0.233438 1.615509
v -0.716568 0.213327 1.458685
v -0.444584 0.246426 1.734253
v -0.488395 0.264673 1.796993
v -0.851945 -0.006637 1.839415
v -0.645636 -0.008703 1.881626
v -0.683471 -0.020720 1.758727
v -0.848320 -0.017305 1.752261
v -0.428554 -0.036367 1.672542
v -0.672572 -0.034175 1.652796
v -0.838472 -0.030610 1.655764
v -0.733006 -0.047734 1.487564
v -0.434117 -0.021521 1.782803
v -0.452585 -0.013257 1.851212
v -0.451674 0.087834 1.527033
v -0.437615 0.120021 1.760689
v -0.432290 0.101493 1.653184
v -0.827143 0.107576 1.636611
v -0.836605 0.124486 1.730889
v -0.819112 0.196309 1.807991
v -0.644009 0.194533 1.853337
v -0.726428 0.087661 1.473909
v -0.562799 0.083423 1.470629
v -0.480580 0.189830 1.819504
v -0.642519 0.116589 1.999169
v -0.645514 0.000024 2.017358
v -0.821611 0.001422 1.974807
v -0.482942 -0.004459 1.986501
v -0.812587 0.118556 1.957124
v -0.485476 0.112759 1.968196
v -0.759640 2.331528 -0.270742
v -0.795117 1.816687 -0.076501
v -0.783251 1.235366 -0.269954
v -0.751054 2.267242 -0.507157
v -0.866344 1.839819 -0.562841
v -0.829179 1.332874 -0.510819
v -0.743398 2.144015 -0.708370
v -0.845882 1.845411 -0.783188
v -0.758847 1.453829 -0.756992
v -0.646849 0.265357 -1.058183
v -0.545372 1.156045 -0.920097
v -0.658742 1.007795 -0.320376
v -0.462133 1.005087 -0.385941
v -0.401524 1.067419 -0.641925
v -0.433587 1.138233 -0.875942
v -0.824000 1.088702 -0.632934
v -0.768307 1.149791 -0.880950
v -0.786756 1.030545 -0.394676
v -0.565532 0.965878 -0.935043
v -0.675080 0.584460 -0.538358
v -0.495023 0.620708 -0.591320
v -0.436630 0.802528 -0.749725
v -0.463989 0.938520 -0.904153
v -0.821791 0.807212 -0.731363
v -0.768830 0.950322 -0.902338
v -0.790805 0.639993 -0.581890
v -0.587032 0.392551 -1.260796
v -0.711341 0.180545 -0.854351
v -0.456490 0.177644 -0.915120
v -0.442295 0.268285 -1.089287
v -0.473878 0.369713 -1.234876
v -0.870784 0.281234 -1.073319
v -0.813161 0.382555 -1.233405
v -0.877361 0.201836 -0.909993
v -0.864106 0.377283 -0.808807
v -0.430540 0.461033 -0.969577
v -0.461956 0.569103 -1.108179
v -0.443139 0.357062 -0.814990
v -0.698382 0.344246 -0.765254
v -0.575037 0.594861 -1.131676
v -0.801216 0.582804 -1.104783
v -0.825440 0.251184 -0.748638
v -0.834906 0.149408 -0.779676
v -0.705129 0.127938 -0.726284
v -0.505725 0.126877 -0.784413
v -0.496352 0.224851 -0.753948
v -0.695572 0.233487 -0.696552
v -0.816681 0.653464 -0.829983
v -0.457544 0.645394 -0.843768
v -0.678400 0.506442 -0.658493
v -0.786721 0.542236 -0.698603
v -0.483323 0.756832 -0.966507
v -0.510783 0.527140 -0.704898
v -0.578012 0.781118 -0.988475
v -0.767620 0.767908 -0.964591
v -0.092553 1.735233 -0.967476
v -0.076591 1.955334 -0.937061
v -0.128119 1.730559 -0.919421
v -0.088882 2.048142 -0.898695
v -0.353936 1.704899 2.711072
v -0.462452 1.281754 2.661429
v -0.346085 1.480616 2.973711
v -0.469988 1.222125 2.856056
v -0.431634 1.593785 2.816030
v -0.509515 1.574488 2.830384
v -0.472450 1.598005 2.833714
v -0.537234 1.539746 2.815732
v -0.536419 1.458602 2.774119
v -0.550043 1.499625 2.796647
v -0.514399 1.531577 2.860579
v -0.455471 1.542407 2.865085
v -0.486059 1.546593 2.867951
v -0.527030 1.460126 2.829627
v -0.527210 1.517558 2.853374
v -0.537319 1.489796 2.840825
v -0.372831 1.522856 2.852322
v -0.460350 1.341920 2.788185
v -0.490673 1.569421 2.876976
v -0.529939 1.548411 2.867274
v -0.447174 1.563307 2.873307
v -0.548145 1.528240 2.857659
v -0.562047 1.489848 2.840925
v -0.548125 1.449766 2.825606
v -0.383871 1.500036 2.844233
v -0.450291 1.362716 2.795557
v -0.413090 1.500597 2.832636
v -0.458299 1.406631 2.800744
v -0.473111 1.523924 2.846290
v -0.493557 1.513090 2.840972
v -0.451044 1.520903 2.844223
v -0.502798 1.502976 2.835775
v -0.510091 1.482948 2.826721
v -0.502668 1.461543 2.818642
v -0.399391 1.490336 2.829180
v -0.447307 1.391270 2.794065
v -0.058900 0.852422 3.295820
v -0.055763 0.764370 3.291929
v -0.099802 0.859567 3.268574
v -0.095412 0.771115 3.265500
v -0.030579 0.783500 3.321941
v 0.291561 1.086894 3.019642
v 0.306648 1.152684 3.043090
v 0.269728 1.079818 3.060968
v 0.232186 1.040244 3.053974
v 0.245906 1.088651 3.031772
v 0.291926 1.158143 3.025046
v 0.256597 1.146695 3.091915
v 0.210577 1.077203 3.098641
v 0.195855 1.082662 3.080597
v 0.232775 1.155528 3.062718
v 0.270316 1.195102 3.069713
v 0.210942 1.148453 3.104045
v 0.285805 1.077331 3.036524
v 0.307506 1.120160 3.026015
v 0.294673 1.116002 3.050306
v 0.307720 1.162040 3.029191
v 0.298852 1.123369 3.015409
v 0.263739 1.054070 3.032413
v 0.250905 1.049911 3.056704
v 0.271803 1.082523 3.019363
v 0.236903 1.055103 3.039543
v 0.272017 1.124402 3.022539
v 0.295019 1.183764 3.055446
v 0.286365 1.186973 3.044840
v 0.265254 1.112481 3.079005
v 0.286955 1.155311 3.068496
v 0.216138 1.048373 3.078847
v 0.238204 1.071635 3.082958
v 0.215548 1.080035 3.055191
v 0.207484 1.051582 3.068241
v 0.264299 1.163711 3.040728
v 0.237249 1.122865 3.044682
v 0.265600 1.180244 3.084144
v 0.230486 1.110944 3.101148
v 0.194783 1.073307 3.094496
v 0.207830 1.119344 3.073381
v 0.251598 1.185436 3.066983
v 0.230700 1.152823 3.104324
v 0.238764 1.181277 3.091274
v 0.203650 1.111977 3.108278
v 0.194997 1.115186 3.097672
v 0.216698 1.158015 3.087163
v -0.291561 1.086894 3.019642
v -0.306648 1.152684 3.043090
v -0.269728 1.079818 3.060969
v -0.232186 1.040244 3.053974
v -0.245906 1.088651 3.031773
v -0.291925 1.158143 3.025046
v -0.256597 1.146695 3.091915
v -0.210577 1.077203 3.098641
v -0.195854 1.082662 3.080597
v -0.232775 1.155528 3.062718
v -0.270316 1.195102 3.069713
v -0.210942 1.148452 3.104045
v -0.285805 1.077331 3.036524
v -0.307506 1.120160 3.026015
v -0.294673 1.116002 3.050306
v -0.307720 1.162039 3.029192
v -0.298852 1.123369 3.015409
v -0.263739 1.054069 3.032413
v -0.250905 1.049911 3.056704
v -0.271803 1.082523 3.019363
v -0.236903 1.055102 3.039543
v -0.272017 1.124402 3.022539
v -0.295019 1.183764 3.055446
v -0.286365 1.186973 3.044840
v -0.265254 1.112481 3.079005
v -0.286955 1.155311 3.068496
v -0.216137 1.048373 3.078847
v -0.238204 1.071635 3.082958
v -0.215548 1.080035 3.055191
v -0.207484 1.051582 3.068241
v -0.264299 1.163711 3.040729
v -0.237249 1.122865 3.044683
v -0.265599 1.180244 3.084145
v -0.230486 1.110944 3.101148
v -0.194782 1.073307 3.094496
v -0.207830 1.119344 3.073381
v -0.251597 1.185435 3.066984
v -0.230700 1.152823 3.104325
v -0.238764 1.181276 3.091274
v -0.203650 1.111977 3.108279
v -0.194997 1.115186 3.097672
v -0.216698 1.158015 3.087163
vn -0.8565 -0.4923 0.1551
vn 0.3776 0.7559 -0.5348
vn 0.9844 -0.1546 -0.0839
vn 0.9897 0.1396 -0.0304
vn 0.9636 0.1747 0.2022
vn 0.9708 -0.1315 0.2005
vn 0.9651 -0.1936 0.1766
vn 0.5138 -0.7840 0.3484
vn 0.3018 -0.9456 -0.1219
vn 0.2968 -0.9230 0.2447
vn 0.1147 0.9634 -0.2424
vn 0.1797 0.9720 0.1513
vn 0.3466 0.6654 -0.6611
vn 0.2474 -0.3487 -0.9040
vn 0.2382 -0.9265 -0.2913
vn 0.6834 0.3937 0.6149
vn 0.2945 0.1445 -0.9447
vn 0.1463 -0.4437 -0.8842
vn 0.2846 0.1750 -0.9426
vn 0.2385 -0.8831 -0.4040
vn 0.7942 0.6067 0.0347
vn 0.9934 -0.0756 -0.0865
vn 0.1536 0.9798 0.1277
vn 0.9787 0.1820 0.0950
vn 0.4116 -0.4628 -0.7851
vn 0.1115 0.9936 -0.0158
vn 0.0042 0.9132 -0.4075
vn -0.7065 0.1438 -0.6930
vn 0.6150 0.2060 -0.7612
vn 0.1630 0.9583 0.2346
vn -0.9681 -0.1440 -0.2050
vn 0.9307 0.0888 -0.3549
vn 0.0120 0.7972 -0.6036
vn 0.8723 -0.1698 0.4585
vn 0.0807 -0.7356 0.6726
vn 0.5272 -0.8293 0.1853
vn 0.2256 -0.9574 -0.1805
vn 0.3067 -0.9405 0.1463
vn 0.3286 -0.6428 0.6920
vn 0.7173 0.5467 -0.4320
vn 0.3362 0.9174 -0.2131
vn 0.9419 -0.3191 0.1053
vn 0.2765 -0.8768 -0.3935
vn 0.3002 0.9443 0.1345
vn 0.2073 0.7384 0.6417
vn 0.0823 0.7985 -0.5964
vn 0.8524 0.1314 0.5061
vn 0.4688 -0.3158 0.8249
vn 0.8298 0.1247 -0.5439
vn 0.3171 -0.3690 -0.8737
vn 0.9855 0.1362 0.1014
vn 0.9744 0.0445 -0.2203
vn 0.1700 0.7689 0.6163
vn 0.6291 -0.7640 -0.1435
vn 0.9415 0.1023 0.3212
vn 0.2940 0.9463 0.1345
vn 0.2791 0.9600 -0.0201
vn 0.9791 0.1914 0.0682
vn 0.2184 0.8802 -0.4215
vn 0.0750 0.7530 0.6537
vn 0.1318 -0.8344 -0.5351
vn 0.9747 -0.2131 -0.0682
vn 0.3097 0.9203 0.2391
vn 0.1166 0.8264 0.5509
vn -0.0044 0.5571 0.8304
vn 0.4813 -0.8588 -0.1755
vn 0.8385 -0.3368 0.4283
vn 0.2122 -0.9342 -0.2867
vn 0.2675 -0.7782 0.5681
vn 0.1841 -0.8888 -0.4196
vn 0.9332 -0.1695 -0.3168
vn 0.2834 -0.9253 0.2521
vn 0.8717 -0.4830 0.0824
vn 0.3324 -0.9221 -0.1978
vn 0.2338 -0.9153 -0.3279
vn 0.3146 0.7130 0.6266
vn 0.3337 0.7242 0.6034
vn 0.7579 0.0036 0.6524
vn 0.4496 0.6067 0.6556
vn 0.1536 -0.8260 -0.5423
vn 0.1859 -0.9566 0.2245
vn 0.8837 -0.0653 0.4634
vn 0.3495 0.7896 0.5044
vn 0.3809 0.4401 0.8132
vn 0.1217 -0.9379 -0.3248
vn 0.4144 0.4905 0.7666
vn 0.1593 -0.8961 -0.4143
vn 0.5346 -0.0999 0.8392
vn 0.1479 -0.9160 -0.3730
vn 0.3937 -0.9073 0.1476
vn -0.3043 -0.4822 0.8215
vn -0.0092 0.5911 0.8065
vn 0.1792 -0.8942 -0.4102
vn 0.9707 -0.2393 -0.0228
vn 0.0310 -0.6400 0.7677
vn 0.0490 0.6533 0.7555
vn 0.6301 -0.1090 0.7688
vn 0.1441 -0.9093 -0.3904
vn -0.1346 -0.0734 0.9882
vn 0.4472 0.6319 0.6330
vn 0.3322 -0.1516 0.9309
vn 0.0463 -0.9922 -0.1160
vn 0.3308 -0.9413 0.0669
vn 0.7809 -0.4101 0.4712
vn 0.4028 0.4192 0.8137
vn 0.1485 -0.9031 -0.4029
vn 0.8472 0.0053 0.5312
vn -0.0169 0.4899 0.8716
vn 0.2233 -0.9013 -0.3712
vn 0.8796 -0.4123 0.2374
vn 0.9536 -0.0639 -0.2941
vn 0.9530 0.3024 0.0176
vn 0.9299 0.2197 -0.2950
vn 0.9059 0.3749 0.1971
vn 0.9980 0.0426 -0.0464
vn 0.9378 0.0289 0.3459
vn 0.7030 0.2778 0.6547
vn 0.8773 0.4215 0.2297
vn -0.2261 -0.6955 0.6821
vn 0.2245 -0.0172 0.9743
vn 0.0290 0.1471 -0.9887
vn 0.8770 -0.3497 0.3296
vn -0.9815 0.0639 -0.1808
vn -0.9992 -0.0000 -0.0398
vn 0.9992 0.0202 -0.0334
vn 0.2912 -0.7381 0.6086
vn 0.8909 -0.3461 0.2941
vn -0.8149 -0.5227 0.2505
vn -0.0319 0.2505 -0.9676
vn -0.9606 -0.1486 -0.2346
vn 0.8978 -0.3831 0.2172
vn -0.9743 0.2095 -0.0829
vn -0.9991 0.0407 -0.0156
vn 0.9988 0.0363 -0.0339
vn 0.2144 -0.8847 0.4140
vn 0.8703 0.4549 -0.1887
vn -0.8927 -0.3619 0.2684
vn -0.2635 -0.7722 0.5782
vn -0.4639 0.1833 -0.8667
vn 0.8967 0.1454 -0.4181
vn 0.0882 0.8264 -0.5561
vn 0.9901 -0.0565 0.1282
vn -0.9733 0.2204 -0.0637
vn -0.9978 0.0467 0.0468
vn 0.9985 0.0534 0.0153
vn 0.9626 -0.1872 0.1957
vn 0.0837 0.8761 -0.4749
vn -0.8556 -0.4765 0.2022
vn -0.2747 -0.8840 0.3783
vn -0.4452 0.7940 -0.4140
vn -0.0162 -0.4869 -0.8733
vn 0.0464 -0.3199 -0.9463
vn -0.0269 -0.4099 -0.9117
vn -0.0165 -0.4867 -0.8734
vn -0.0566 -0.2915 -0.9549
vn 0.0078 -0.4128 -0.9108
vn -0.9317 -0.2394 0.2733
vn -0.9872 -0.0393 0.1545
vn -0.3868 0.7795 -0.4927
vn 0.8789 0.4086 -0.2462
vn 0.8879 0.3767 -0.2642
vn -0.4055 0.7226 -0.5599
vn -0.2747 -0.6283 0.7278
vn -0.8867 -0.2620 0.3810
vn 0.2060 -0.6223 0.7552
vn 0.9961 0.0802 0.0360
vn -0.9936 0.0892 0.0698
vn -0.9717 0.2321 -0.0432
vn 0.9691 -0.0791 0.2336
vn 0.0828 0.7596 -0.6451
vn 0.1728 -0.9103 0.3761
vn -0.2711 -0.8868 0.3744
vn 0.0802 -0.2590 0.9626
vn 0.0516 -0.2628 -0.9635
vn -0.1133 -0.2418 0.9637
vn -0.0617 -0.2479 -0.9668
vn 0.9871 0.1535 0.0452
vn 0.9589 -0.2106 -0.1903
vn 0.9855 -0.0545 0.1610
vn 0.9502 0.2502 -0.1860
vn 0.5733 -0.1694 0.8016
vn 0.4904 0.7495 -0.4447
vn 0.9837 -0.0758 0.1631
vn 0.3750 0.6697 -0.6410
vn -0.9734 -0.0961 0.2080
vn -0.3603 -0.1367 -0.9228
vn -0.3309 -0.1081 0.9374
vn 0.9880 -0.0242 0.1525
vn 0.1900 0.2021 -0.9608
vn -0.2978 0.0801 -0.9513
vn -0.9298 -0.3013 -0.2116
vn -0.2282 -0.4634 0.8562
vn -0.2770 -0.0623 -0.9588
vn -0.9408 -0.0030 0.3390
vn 0.9991 0.0361 -0.0238
vn -0.9811 -0.0434 -0.1887
vn 0.5083 -0.0712 0.8583
vn 0.1884 -0.1084 -0.9761
vn 0.9776 -0.0289 -0.2084
vn -0.9826 -0.1089 -0.1504
vn 0.0004 -0.9947 0.1024
vn 0.0582 -0.9950 0.0810
vn 0.0420 -0.9991 0.0015
vn 0.0075 -0.9998 0.0160
vn -0.9977 -0.0331 0.0594
vn 0.9423 0.0900 0.3224
vn 0.1391 -0.0492 -0.9891
vn 0.9603 0.0162 -0.2784
vn 0.9582 0.1291 -0.2551
vn 0.1492 -0.0357 -0.9882
vn 0.3517 0.1665 0.9212
vn -0.9564 0.2445 0.1594
vn -0.9792 0.1128 -0.1685
vn 0.9610 0.2633 0.0841
vn -0.2414 0.1267 0.9621
vn -0.2967 -0.0202 -0.9548
vn -0.2598 0.2018 0.9443
vn 0.3852 0.2349 0.8924
vn -0.1951 0.8010 0.5661
vn 0.0708 -0.9904 0.1191
vn 0.2312 0.7926 0.5642
vn -0.0046 -0.9917 0.1289
vn -0.3016 -0.3050 -0.9033
vn -0.3085 -0.2788 0.9095
vn 0.9857 -0.0523 0.1602
vn -0.9782 -0.1182 -0.1706
vn -0.9699 -0.0991 0.2226
vn 0.4712 -0.2514 0.8455
vn 0.1626 -0.2979 -0.9407
vn 0.9684 -0.0831 -0.2352
vn 0.3449 0.1472 -0.9270
vn 0.2948 -0.8428 -0.4504
vn 0.3507 0.3110 -0.8834
vn 0.2355 0.5397 -0.8083
vn 0.2110 -0.2200 -0.9524
vn 0.3320 0.0894 -0.9390
vn 0.9576 0.2783 0.0750
vn 0.9320 0.2776 0.2332
vn 0.9963 0.0827 -0.0227
vn 0.8962 0.2937 0.3324
vn -0.5839 0.6970 0.4161
vn 0.7673 0.6413 0.0008
vn 0.8104 -0.5520 -0.1962
vn 0.5185 0.8019 0.2969
vn -0.2374 0.8007 0.5501
vn 0.9134 0.3788 -0.1493
vn 0.9429 -0.1937 -0.2711
vn 0.2582 0.4259 -0.8671
vn -0.0624 -0.3601 0.9308
vn 0.0301 -0.3815 0.9239
vn -0.0306 -0.3690 0.9289
vn 0.0068 -0.4027 0.9153
vn -0.0000 -0.3554 0.9347
vn 0.0379 -0.4132 0.9098
vn -0.0432 -0.4117 0.9103
vn 0.0465 -0.3537 0.9342
vn -0.0027 -0.3672 0.9301
vn 0.0091 -0.3302 0.9439
vn 0.1659 -0.7041 0.6905
vn -0.0315 -0.3413 0.9394
vn 0.2955 -0.6350 0.7138
vn -0.4092 0.0334 0.9118
vn -0.4126 -0.1929 0.8902
vn -0.1427 -0.6399 0.7551
vn 0.7269 0.1114 0.6776
vn -0.2087 -0.5911 0.7792
vn -0.5107 -0.0084 0.8597
vn 0.0287 -0.6991 0.7145
vn 0.3193 0.6832 0.6567
vn 0.5296 -0.4639 0.7101
vn 0.5248 -0.5206 0.6735
vn -0.0292 -0.0682 0.9972
vn 0.0200 -0.8216 0.5697
vn -0.0339 0.8671 0.4969
vn 0.7525 -0.0793 0.6538
vn 0.8053 -0.5920 0.0306
vn -0.1901 0.8927 -0.4086
vn -0.9888 -0.1283 -0.0756
vn -0.9868 0.1609 -0.0176
vn -0.9608 0.1637 0.2238
vn -0.9781 -0.1264 0.1651
vn -0.9759 -0.1603 0.1478
vn -0.2056 -0.9708 0.1238
vn -0.2823 -0.8892 -0.3600
vn -0.1907 -0.9816 -0.0115
vn -0.1009 0.9670 -0.2341
vn -0.1789 0.9721 0.1519
vn -0.0767 0.7760 -0.6260
vn -0.2293 -0.1698 -0.9584
vn -0.3442 -0.8625 -0.3710
vn -0.5735 0.3537 0.7389
vn -0.1480 0.2226 -0.9636
vn -0.1294 -0.2976 -0.9459
vn -0.2020 0.3254 -0.9238
vn -0.4088 -0.7973 -0.4440
vn -0.8366 0.5476 0.0144
vn -0.9976 -0.0173 -0.0670
vn -0.1542 0.9797 0.1279
vn -0.9819 0.1533 0.1110
vn -0.3138 -0.5197 -0.7946
vn -0.1188 0.9928 -0.0160
vn -0.0092 0.9140 -0.4055
vn 0.6455 -0.3404 -0.6838
vn -0.6619 0.1409 -0.7363
vn -0.1666 0.9582 0.2327
vn 0.9622 -0.2705 0.0305
vn -0.9323 -0.0096 -0.3617
vn 0.0262 0.8094 -0.5867
vn -0.5906 0.0414 0.8059
vn 0.3557 -0.3967 0.8462
vn 0.0129 -0.9926 0.1211
vn -0.2156 -0.9410 -0.2607
vn -0.0723 -0.9963 0.0461
vn -0.1499 -0.1505 0.9772
vn -0.7680 0.4871 -0.4158
vn -0.3083 0.9332 -0.1845
vn -0.9396 -0.3267 0.1017
vn -0.2824 -0.8588 -0.4274
vn -0.2940 0.9453 0.1415
vn -0.2080 0.7384 0.6415
vn -0.0089 0.8033 -0.5955
vn -0.8641 0.1289 0.4866
vn -0.4834 -0.4331 0.7608
vn -0.8003 0.1377 -0.5836
vn -0.2196 -0.3143 -0.9236
vn -0.9856 0.1359 0.1003
vn -0.9723 0.1020 -0.2104
vn -0.1701 0.7690 0.6162
vn -0.2521 -0.9644 -0.0801
vn -0.9440 0.1033 0.3133
vn -0.3003 0.9438 0.1379
vn -0.2962 0.9549 -0.0196
vn -0.9791 0.1914 0.0682
vn -0.2317 0.8790 -0.4167
vn -0.0750 0.7530 0.6537
vn -0.1318 -0.8344 -0.5351
vn -0.9749 -0.2114 -0.0692
vn -0.3264 0.9155 0.2353
vn -0.1166 0.8264 0.5509
vn 0.0044 0.5571 0.8304
vn -0.2009 -0.9732 0.1119
vn -0.8385 -0.3368 0.4283
vn -0.2122 -0.9342 -0.2867
vn -0.0497 -0.7019 0.7106
vn -0.1841 -0.8888 -0.4196
vn -0.9332 -0.1695 -0.3168
vn -0.0139 -0.9229 0.3849
vn -0.8717 -0.4830 0.0824
vn -0.3324 -0.9221 -0.1978
vn -0.2526 -0.9072 -0.3364
vn -0.3427 0.6951 0.6319
vn -0.3592 0.7232 0.5899
vn -0.7579 0.0036 0.6524
vn -0.4496 0.6067 0.6556
vn -0.1536 -0.8260 -0.5423
vn -0.1859 -0.9566 0.2245
vn -0.8837 -0.0653 0.4634
vn -0.3495 0.7896 0.5044
vn -0.3809 0.4401 0.8132
vn -0.1217 -0.9379 -0.3248
vn -0.4144 0.4905 0.7666
vn -0.1593 -0.8961 -0.4143
vn -0.5346 -0.0999 0.8392
vn -0.1479 -0.9160 -0.3730
vn -0.3937 -0.9073 0.1476
vn 0.3043 -0.4822 0.8215
vn 0.0092 0.5911 0.8065
vn -0.1792 -0.8942 -0.4102
vn -0.9707 -0.2393 -0.0228
vn -0.0310 -0.6400 0.7677
vn -0.0490 0.6533 0.7555
vn -0.6301 -0.1090 0.7688
vn -0.1441 -0.9093 -0.3904
vn 0.1346 -0.0734 0.9882
vn -0.4472 0.6319 0.6330
vn -0.3322 -0.1516 0.9309
vn -0.0463 -0.9922 -0.1160
vn -0.3308 -0.9413 0.0669
vn -0.7809 -0.4101 0.4712
vn -0.4028 0.4192 0.8137
vn -0.1485 -0.9031 -0.4029
vn -0.8472 0.0053 0.5312
vn 0.0169 0.4899 0.8716
vn -0.2233 -0.9013 -0.3712
vn -0.8796 -0.4123 0.2374
vn -0.9479 -0.1836 -0.2604
vn -0.9840 0.1779 0.0059
vn -0.9708 0.1241 -0.2054
vn -0.9565 0.2483 0.1532
vn -0.9972 -0.0053 -0.0740
vn -0.9405 0.1268 0.3153
vn -0.7501 0.2457 0.6140
vn -0.9042 0.3576 0.2335
vn 0.6208 -0.0806 0.7798
vn -0.0557 0.2854 0.9568
vn -0.0428 -0.4077 -0.9121
vn -0.9012 0.0139 0.4331
vn 0.9817 -0.1458 -0.1228
vn 0.9931 -0.1141 0.0275
vn -0.9936 0.0699 -0.0882
vn -0.3033 -0.1971 0.9323
vn -0.8983 -0.0962 0.4287
vn 0.8692 -0.1164 0.4806
vn -0.1287 -0.2866 -0.9493
vn 0.9490 -0.2960 -0.1089
vn -0.9226 0.0087 0.3858
vn 0.9880 0.0011 -0.1546
vn 0.9992 -0.0324 0.0243
vn -0.9927 0.0295 -0.1168
vn -0.2617 -0.1761 0.9489
vn -0.8347 0.1031 -0.5411
vn 0.8490 -0.1233 0.5139
vn 0.2940 -0.1976 0.9351
vn 0.4747 -0.4003 -0.7839
vn -0.8853 -0.0828 -0.4576
vn -0.0227 -0.0990 -0.9948
vn -0.9912 0.1308 0.0180
vn 0.9883 0.0054 -0.1524
vn 0.9985 0.0325 0.0449
vn -0.9917 0.0656 -0.1108
vn -0.9747 0.1526 0.1636
vn -0.0200 0.0414 -0.9989
vn 0.8079 -0.1489 0.5702
vn 0.1891 -0.2343 0.9536
vn 0.4997 0.0309 -0.8656
vn -0.0165 -0.9956 0.0927
vn -0.0294 -0.9933 0.1120
vn -0.0174 -0.9916 0.1285
vn -0.0206 -0.9958 0.0892
vn -0.0105 -0.9943 0.1065
vn -0.0223 -0.9914 0.1288
vn 0.9226 0.1404 0.3593
vn 0.9817 0.1170 0.1500
vn 0.4531 -0.0902 -0.8869
vn -0.8491 -0.0078 -0.5282
vn -0.8540 0.0183 -0.5199
vn 0.4593 -0.0953 -0.8832
vn 0.2040 0.2969 0.9329
vn 0.8576 0.1802 0.4817
vn -0.2344 0.3217 0.9174
vn -0.9857 0.1124 -0.1253
vn 0.9972 0.0700 0.0261
vn 0.9869 0.0458 -0.1547
vn -0.9728 0.2017 0.1138
vn -0.0229 -0.1184 -0.9927
vn -0.2329 0.1592 0.9594
vn 0.1915 0.1510 0.9698
vn -0.1085 0.8779 0.4664
vn -0.0233 -0.9977 0.0644
vn 0.1171 0.8783 0.4636
vn -0.0145 -0.9979 0.0629
vn -0.9828 0.1684 0.0756
vn -0.9615 -0.1528 -0.2286
vn -0.9869 -0.0638 0.1484
vn -0.9395 0.3085 -0.1488
vn -0.6065 -0.3104 0.7320
vn -0.3452 0.9080 -0.2375
vn -0.9861 -0.0830 0.1442
vn -0.2357 0.7841 -0.5742
vn 0.9682 -0.1834 0.1700
vn 0.3424 0.0594 -0.9377
vn 0.3038 -0.4568 0.8361
vn -0.9884 -0.0571 0.1407
vn -0.1471 0.3919 -0.9081
vn 0.3934 0.2755 -0.8771
vn 0.9120 -0.2978 -0.2820
vn 0.1345 -0.6403 0.7562
vn 0.2861 0.5025 -0.8158
vn 0.9317 -0.2144 0.2932
vn -0.9977 0.0677 0.0006
vn 0.9825 0.0530 -0.1787
vn -0.4984 -0.3763 0.7810
vn -0.1704 0.1005 -0.9802
vn -0.9726 0.0530 -0.2264
vn 0.9778 -0.0814 -0.1929
vn -0.0125 -0.9119 -0.4103
vn -0.0868 -0.8966 -0.4342
vn -0.0611 -0.8321 -0.5513
vn -0.0257 -0.8420 -0.5388
vn 0.9959 -0.0853 0.0307
vn -0.9417 -0.0788 0.3271
vn -0.1262 0.5402 -0.8320
vn -0.9557 0.1977 -0.2182
vn -0.9493 0.2875 -0.1274
vn -0.1325 0.6082 -0.7827
vn -0.3613 -0.4383 0.8230
vn 0.9593 0.0751 0.2721
vn 0.9821 0.1759 -0.0672
vn -0.9576 0.1816 0.2235
vn 0.2290 -0.5088 0.8299
vn 0.3056 0.5895 -0.7478
vn 0.2592 -0.2960 0.9193
vn -0.3956 -0.2247 0.8905
vn 0.2036 0.4280 0.8806
vn -0.1086 -0.9168 -0.3843
vn -0.2074 0.4393 0.8741
vn 0.0053 -0.9260 -0.3774
vn 0.3145 0.2611 -0.9126
vn 0.2860 -0.7834 0.5518
vn -0.9882 -0.1188 0.0966
vn 0.9783 -0.0210 -0.2063
vn 0.9634 -0.2399 0.1196
vn -0.4817 -0.7044 0.5212
vn -0.1575 0.3012 -0.9405
vn -0.9657 0.0970 -0.2407
vn -0.3342 0.1515 -0.9302
vn -0.3511 -0.8570 -0.3772
vn -0.3507 0.3110 -0.8834
vn -0.2065 0.4997 -0.8412
vn -0.1912 -0.2024 -0.9605
vn -0.2666 0.1184 -0.9565
vn -0.9576 0.2783 0.0750
vn -0.9320 0.2776 0.2332
vn -0.9963 0.0827 -0.0227
vn -0.8962 0.2937 0.3324
vn 0.5839 0.6970 0.4161
vn -0.7673 0.6413 0.0008
vn -0.8104 -0.5520 -0.1962
vn -0.5185 0.8019 0.2969
vn 0.2374 0.8007 0.5501
vn -0.9134 0.3788 -0.1493
vn -0.9429 -0.1937 -0.2711
vn -0.2582 0.4259 -0.8671
vn 0.0624 -0.3601 0.9308
vn -0.0301 -0.3815 0.9239
vn 0.0306 -0.3690 0.9289
vn -0.0068 -0.4027 0.9153
vn -0.0379 -0.4132 0.9098
vn 0.0432 -0.4116 0.9103
vn -0.0465 -0.3537 0.9342
vn 0.0027 -0.3672 0.9301
vn -0.0091 -0.3302 0.9439
vn -0.1659 -0.7041 0.6905
vn 0.0315 -0.3413 0.9394
vn -0.2955 -0.6350 0.7138
vn 0.4092 0.0334 0.9118
vn 0.4126 -0.1929 0.8902
vn 0.1427 -0.6399 0.7551
vn -0.7269 0.1114 0.6777
vn 0.2087 -0.5911 0.7792
vn 0.5107 -0.0084 0.8597
vn -0.0287 -0.6991 0.7145
vn -0.3193 0.6832 0.6567
vn -0.5296 -0.4639 0.7102
vn -0.5248 -0.5206 0.6735
vn 0.0292 -0.0682 0.9972
vn -0.0200 -0.8216 0.5697
vn 0.0339 0.8671 0.4969
vn -0.7525 -0.0793 0.6538
vn 0.8961 -0.4403 0.0562
vn 0.9975 -0.0104 0.0699
vn 0.7307 -0.6701 -0.1304
vn 0.1099 -0.4399 -0.8913
vn 0.0413 -0.1233 -0.9915
vn 0.9363 0.2537 0.2430
vn 0.6878 -0.2764 0.6712
vn 0.3444 -0.8039 0.4850
vn -0.6069 -0.0212 -0.7945
vn -0.4208 0.3116 -0.8520
vn 0.7919 0.0545 0.6082
vn 0.5964 -0.3239 0.7344
vn -0.3952 -0.9175 0.0449
vn -0.6285 0.1303 -0.7668
vn -0.3576 0.4807 -0.8006
vn 0.4470 0.0863 0.8903
vn 0.2431 -0.2138 0.9461
vn -0.9975 0.0104 -0.0699
vn -0.7601 0.3657 -0.5371
vn -0.4475 0.8903 -0.0840
vn -0.7307 0.6701 0.1304
vn -0.6821 0.6899 -0.2423
vn -0.6942 0.5094 -0.5084
vn -0.8961 0.4403 -0.0561
vn -0.8552 0.3366 -0.3942
vn -0.8798 0.2026 -0.4301
vn -0.7220 0.2204 0.6558
vn -0.7805 -0.0433 0.6237
vn -0.1738 -0.2950 0.9396
vn -0.0413 0.1233 0.9915
vn 0.2534 -0.0744 0.9645
vn 0.4174 -0.0708 0.9060
vn -0.1099 0.4399 0.8913
vn 0.2535 0.3430 0.9045
vn 0.2197 0.6429 0.7338
vn -0.3444 0.8038 -0.4850
vn -0.4625 0.5602 -0.6872
vn -0.5848 0.4630 -0.6660
vn -0.6878 0.2764 -0.6712
vn -0.6976 0.1835 -0.6926
vn -0.7767 0.1324 -0.6158
vn -0.9363 -0.2537 -0.2430
vn -0.6272 -0.7214 0.2935
vn -0.0725 -0.5740 0.8157
vn 0.4208 -0.3116 0.8520
vn 0.5257 -0.2700 0.8067
vn 0.5343 -0.1767 0.8266
vn 0.6069 0.0212 0.7945
vn 0.6835 0.1352 0.7173
vn 0.5927 0.4564 0.6636
vn -0.5964 0.3239 -0.7344
vn -0.5257 0.2701 -0.8067
vn -0.5343 0.1767 -0.8266
vn -0.7919 -0.0545 -0.6082
vn -0.6835 -0.1353 -0.7173
vn -0.5927 -0.4564 -0.6636
vn 0.3576 -0.4807 0.8006
vn 0.4625 -0.5602 0.6872
vn 0.5848 -0.4630 0.6660
vn 0.6285 -0.1303 0.7668
vn 0.6976 -0.1835 0.6926
vn 0.7767 -0.1324 0.6158
vn 0.3952 0.9175 -0.0449
vn 0.6272 0.7214 -0.2935
vn 0.0725 0.5740 -0.8156
vn -0.2432 0.2138 -0.9461
vn -0.2534 0.0744 -0.9645
vn -0.4174 0.0709 -0.9060
vn -0.4471 -0.0863 -0.8903
vn -0.2535 -0.3430 -0.9045
vn -0.2197 -0.6429 -0.7338
vn 0.4475 -0.8903 0.0840
vn 0.6821 -0.6899 0.2423
vn 0.6943 -0.5094 0.5084
vn 0.1738 0.2950 -0.9395
vn 0.7805 0.0433 -0.6237
vn 0.7220 -0.2204 -0.6558
vn 0.7601 -0.3657 0.5371
vn 0.8552 -0.3366 0.3942
vn 0.8798 -0.2026 0.4301
vn -0.8961 -0.4403 0.0562
vn -0.9975 -0.0104 0.0699
vn -0.7307 -0.6701 -0.1304
vn -0.1099 -0.4399 -0.8913
vn -0.0413 -0.1233 -0.9915
vn -0.9363 0.2537 0.2430
vn -0.6878 -0.2764 0.6712
vn -0.3444 -0.8039 0.4850
vn 0.6069 -0.0212 -0.7945
vn 0.4208 0.3116 -0.8520
vn -0.7919 0.0545 0.6082
vn -0.5964 -0.3239 0.7345
vn 0.3952 -0.9175 0.0449
vn 0.6285 0.1303 -0.7668
vn 0.3576 0.4807 -0.8006
vn -0.4471 0.0863 0.8903
vn -0.2432 -0.2138 0.9461
vn 0.9975 0.0104 -0.0699
vn 0.7601 0.3657 -0.5371
vn 0.4475 0.8903 -0.0840
vn 0.7307 0.6701 0.1304
vn 0.6821 0.6899 -0.2423
vn 0.6942 0.5094 -0.5084
vn 0.8961 0.4403 -0.0561
vn 0.8552 0.3366 -0.3942
vn 0.8798 0.2026 -0.4301
vn 0.7220 0.2204 0.6558
vn 0.7805 -0.0433 0.6237
vn 0.1738 -0.2950 0.9396
vn 0.0413 0.1233 0.9915
vn -0.2534 -0.0745 0.9645
vn -0.4174 -0.0709 0.9060
vn 0.1099 0.4399 0.8913
vn -0.2535 0.3430 0.9045
vn -0.2197 0.6429 0.7338
vn 0.3444 0.8039 -0.4850
vn 0.4625 0.5602 -0.6872
vn 0.5848 0.4630 -0.6660
vn 0.6878 0.2764 -0.6712
vn 0.6976 0.1835 -0.6926
vn 0.7767 0.1324 -0.6158
vn 0.9363 -0.2537 -0.2430
vn 0.6272 -0.7214 0.2935
vn 0.0725 -0.5740 0.8156
vn -0.4208 -0.3116 0.8519
vn -0.5257 -0.2701 0.8067
vn -0.5343 -0.1767 0.8266
vn -0.6069 0.0212 0.7945
vn -0.6835 0.1353 0.7173
vn -0.5927 0.4564 0.6636
vn 0.5964 0.3239 -0.7345
vn 0.5257 0.2701 -0.8067
vn 0.5343 0.1767 -0.8266
vn 0.7919 -0.0545 -0.6082
vn 0.6835 -0.1353 -0.7173
vn 0.5927 -0.4564 -0.6636
vn -0.3576 -0.4807 0.8006
vn -0.4625 -0.5602 0.6873
vn -0.5848 -0.4630 0.6660
vn -0.6285 -0.1303 0.7668
vn -0.6976 -0.1835 0.6926
vn -0.7767 -0.1324 0.6158
vn -0.3952 0.9175 -0.0449
vn -0.6272 0.7214 -0.2935
vn -0.0725 0.5740 -0.8156
vn 0.2432 0.2138 -0.9461
vn 0.2534 0.0745 -0.9645
vn 0.4174 0.0708 -0.9060
vn 0.4470 -0.0863 -0.8903
vn 0.2535 -0.3430 -0.9045
vn 0.2197 -0.6429 -0.7337
vn -0.4475 -0.8903 0.0840
vn -0.6821 -0.6899 0.2423
vn -0.6943 -0.5094 0.5084
vn -0.1738 0.2950 -0.9396
vn -0.7805 0.0433 -0.6237
vn -0.7220 -0.2204 -0.6558
vn -0.7601 -0.3657 0.5371
vn -0.8552 -0.3366 0.3942
vn -0.8798 -0.2026 0.4301
vt 0.833374 0.494548
vt 0.893919 0.512741
vt 0.908415 0.468160
vt 0.848637 0.467455
vt 0.567859 0.867914
vt 0.639317 0.828812
vt 0.620915 0.894044
vt 0.556155 0.927906
vt 0.812683 0.509803
vt 0.774909 0.642712
vt 0.751394 0.643294
vt 0.751725 0.493743
vt 0.828812 0.793372
vt 0.751727 0.811870
vt 0.672932 0.807420
vt 0.672336 0.642732
vt 0.672998 0.503429
vt 0.598676 0.643182
vt 0.594201 0.530171
vt 0.560191 0.672195
vt 0.619753 0.672998
vt 0.599703 0.594201
vt 0.569702 0.558226
vt 0.580250 0.833374
vt 0.635423 0.812683
vt 0.637090 0.751725
vt 0.569078 0.759035
vt 0.500000 0.859251
vt 0.500000 0.750726
vt 0.569078 0.758996
vt 0.500000 0.657595
vt 0.560191 0.671923
vt 0.604420 0.951058
vt 0.545714 0.976119
vt 0.604420 0.548422
vt 0.626365 0.643481
vt 0.688416 0.643970
vt 0.666902 0.547256
vt 0.500000 0.917421
vt 0.563590 0.893919
vt 0.639317 0.793372
vt 0.659328 0.642712
vt 0.676970 0.643370
vt 0.671449 0.761101
vt 0.555994 0.632181
vt 0.545714 0.747180
vt 0.604420 0.735145
vt 0.572975 0.538591
vt 0.666902 0.715601
vt 0.500000 0.969030
vt 0.572975 0.947229
vt 0.501290 0.830086
vt 0.457158 0.830118
vt 0.460328 0.806630
vt 0.500288 0.803578
vt 0.499838 0.512886
vt 0.460007 0.507514
vt 0.481582 0.413128
vt 0.510774 0.417065
vt 0.500000 0.559830
vt 0.556447 0.575135
vt 0.579931 0.796381
vt 0.599703 0.530171
vt 0.637090 0.643182
vt 0.659115 0.643738
vt 0.643940 0.535244
vt 0.564556 0.492909
vt 0.500000 0.477524
vt 0.500000 0.432743
vt 0.566016 0.447361
vt 0.569702 0.518348
vt 0.616981 0.429733
vt 0.594994 0.421068
vt 0.612448 0.796381
vt 0.637526 0.771615
vt 0.500000 0.371229
vt 0.561082 0.382998
vt 0.450625 0.491920
vt 0.495971 0.498202
vt 0.507939 0.406303
vt 0.474705 0.401699
vt 0.591615 0.535244
vt 0.575831 0.433451
vt 0.407144 0.499901
vt 0.406490 0.640437
vt 0.358675 0.605643
vt 0.363238 0.556600
vt 0.578790 0.420824
vt 0.621227 0.407144
vt 0.601979 0.363238
vt 0.551080 0.357545
vt 0.500000 0.657756
vt 0.500000 0.571782
vt 0.667216 0.508652
vt 0.621227 0.499901
vt 0.632756 0.407548
vt 0.666461 0.413961
vt 0.556577 0.771615
vt 0.637090 0.751727
vt 0.260484 0.580516
vt 0.278839 0.520364
vt 0.582070 0.278839
vt 0.540875 0.268345
vt 0.619753 0.672932
vt 0.500000 0.307117
vt 0.551080 0.314473
vt 0.500000 0.983839
vt 0.393435 0.816867
vt 0.325561 0.763148
vt 0.671449 0.517077
vt 0.635423 0.509803
vt 0.642381 0.470278
vt 0.671266 0.470798
vt 0.988807 0.740196
vt 1.002924 0.661469
vt 1.015365 0.669173
vt 1.001496 0.721513
vt 0.500000 0.531683
vt 0.500000 0.631036
vt 0.249130 0.712570
vt 0.191059 0.679456
vt 0.198981 0.567653
vt 0.945839 0.547256
vt 0.886123 0.529161
vt 0.904522 0.470747
vt 0.963512 0.471464
vt 0.500000 0.238897
vt 0.540875 0.239236
vt 0.564556 0.495971
vt 0.612448 0.579931
vt 0.628268 0.501290
vt 0.631115 0.457158
vt 0.168698 0.648799
vt 0.177283 0.553376
vt 0.539817 0.181283
vt 0.500000 0.184290
vt 0.500000 0.144817
vt 0.539817 0.140934
vt 0.580006 0.205473
vt 0.539817 0.196322
vt 0.205473 0.476864
vt 0.621491 0.393435
vt 0.538703 0.608225
vt 0.500000 0.615960
vt 0.500000 0.567098
vt 0.526605 0.560962
vt 0.566016 0.450625
vt 0.149293 0.452102
vt 0.133162 0.541160
vt 0.103583 0.505809
vt 0.123733 0.441345
vt 0.539531 0.141037
vt 0.579447 0.149293
vt 0.562090 0.123733
vt 0.530633 0.116366
vt 0.500000 0.385014
vt 0.500000 0.353218
vt 0.586057 0.174337
vt 0.542919 0.165879
vt 0.174337 0.464471
vt 0.086614 0.427976
vt 0.065909 0.448336
vt 0.053210 0.428901
vt 0.071388 0.423606
vt 0.515797 0.085531
vt 0.531484 0.086614
vt 0.523242 0.071388
vt 0.510720 0.071544
vt 0.500000 0.266808
vt 0.601979 0.325561
vt 0.582070 0.249130
vt 0.108290 0.599988
vt 0.073849 0.556649
vt 0.580006 0.679456
vt 0.539817 0.690304
vt 0.539817 0.657159
vt 0.579599 0.648799
vt 0.500000 0.199929
vt 0.513331 0.045311
vt 0.500000 0.046647
vt 0.500000 0.069896
vt 0.051602 0.475706
vt 0.038205 0.462176
vt 0.038356 0.442272
vt 0.580006 0.191059
vt 0.577833 0.599988
vt 0.554232 0.556649
vt 0.500000 0.147087
vt 0.500000 0.124516
vt 0.530339 0.475706
vt 0.515210 0.477146
vt 0.513246 0.460736
vt 0.522445 0.462176
vt 0.500000 0.170521
vt 0.515546 0.457928
vt 0.507613 0.457080
vt 0.506877 0.445401
vt 0.514439 0.446199
vt 0.500000 0.089031
vt 0.528336 0.053210
vt 0.620841 0.601238
vt 0.618568 0.607555
vt 0.613078 0.604170
vt 0.614718 0.599612
vt 0.500000 0.479371
vt 0.500000 0.460095
vt 0.513331 0.424258
vt 0.512541 0.440917
vt 0.500000 0.440864
vt 0.500000 0.422187
vt 0.500000 0.664242
vt 0.576432 0.505809
vt 0.539481 0.507406
vt 0.547321 0.467354
vt 0.500000 0.513551
vt 0.519044 0.508271
vt 0.579599 0.168698
vt 0.538703 0.096221
vt 0.577833 0.108290
vt 0.520322 0.097153
vt 0.500000 0.106427
vt 0.541975 0.104341
vt 0.078394 0.467354
vt 0.104341 0.437145
vt 0.073220 0.507406
vt 0.590300 0.643738
vt 0.499630 0.641384
vt 0.459655 0.640419
vt 0.417546 0.774144
vt 0.414448 0.641253
vt 0.423095 0.508652
vt 0.621491 0.816867
vt 0.648114 0.640437
vt 0.669097 0.641253
vt 0.644267 0.774144
vt 0.578790 0.496630
vt 0.601625 0.405151
vt 0.649402 0.433451
vt 0.651726 0.367843
vt 0.620780 0.366797
vt 0.454529 0.413961
vt 0.467814 0.368189
vt 0.488225 0.366596
vt 0.561691 0.421068
vt 0.537425 0.365401
vt 0.507200 0.363509
vt 0.481273 0.364028
vt 0.510983 0.366114
vt 0.635806 0.367147
vt 0.669092 0.368189
vt 0.420824 0.496630
vt 0.452865 0.405151
vt 0.558226 0.518348
vt 0.484328 0.324872
vt 0.502799 0.322553
vt 0.547406 0.321655
vt 0.519920 0.320969
vt 0.496410 0.322232
vt 0.523434 0.321439
vt 0.639292 0.324944
vt 0.675657 0.324872
vt 0.550036 0.367843
vt 0.558926 0.322330
vt 0.465216 0.366023
vt 0.604868 0.366023
vt 0.599660 0.365401
vt 0.621651 0.293283
vt 0.658462 0.293469
vt 0.659368 0.261742
vt 0.621257 0.261665
vt 0.501495 0.293600
vt 0.482345 0.307625
vt 0.480362 0.262732
vt 0.500191 0.261781
vt 0.519246 0.292376
vt 0.547742 0.292993
vt 0.548078 0.261464
vt 0.518571 0.260916
vt 0.494871 0.293528
vt 0.493332 0.261956
vt 0.522889 0.292587
vt 0.522344 0.260869
vt 0.451756 0.288897
vt 0.449773 0.262732
vt 0.656778 0.322330
vt 0.622394 0.322035
vt 0.481902 0.324350
vt 0.605664 0.324350
vt 0.599057 0.321655
vt 0.595403 0.548078
vt 0.621257 0.561263
vt 0.645824 0.523009
vt 0.590945 0.518571
vt 0.639859 0.470735
vt 0.648324 0.498544
vt 0.685407 0.500191
vt 0.686261 0.480362
vt 0.592251 0.493332
vt 0.659368 0.560446
vt 0.683143 0.522344
vt 0.596433 0.477757
vt 0.479829 0.307317
vt 0.477757 0.262636
vt 0.447168 0.262636
vt 0.449241 0.288588
vt 0.596679 0.292993
vt 0.595403 0.261464
vt 0.559686 0.293469
vt 0.560446 0.261742
vt 0.603589 0.307317
vt 0.640355 0.307779
vt 0.679739 0.307625
vt 0.677932 0.288897
vt 0.639680 0.289050
vt 0.639859 0.262967
vt 0.679465 0.262732
vt 0.604354 0.288588
vt 0.603287 0.262636
vt 0.679739 0.482345
vt 0.640355 0.473048
vt 0.639680 0.442459
vt 0.677932 0.451756
vt 0.679465 0.449773
vt 0.639859 0.440146
vt 0.603589 0.479829
vt 0.604354 0.449241
vt 0.603287 0.447168
vt 0.841501 0.761101
vt 0.796910 0.643370
vt 0.906455 0.644155
vt 0.894416 0.742499
vt 0.957194 0.643970
vt 0.829265 0.517077
vt 0.940741 0.715601
vt 0.671449 0.841501
vt 0.669190 0.894416
vt 0.849398 0.470798
vt 0.666902 0.940741
vt 0.909364 0.402088
vt 0.855378 0.389954
vt 0.592313 0.470184
vt 0.617524 0.471308
vt 0.621192 0.417417
vt 0.598226 0.414426
vt 0.598146 0.467455
vt 0.603540 0.389954
vt 0.643835 0.389418
vt 0.855424 0.393127
vt 0.905341 0.403681
vt 0.667620 0.471464
vt 0.947229 0.538591
vt 0.963044 0.470184
vt 0.580250 0.494548
vt 0.595712 0.312254
vt 0.621272 0.312916
vt 0.622837 0.264476
vt 0.597277 0.263453
vt 0.852894 0.313492
vt 0.849695 0.260671
vt 0.818572 0.260902
vt 0.821566 0.286829
vt 0.893654 0.314609
vt 0.853541 0.316407
vt 0.850246 0.263617
vt 0.890422 0.263754
vt 0.896415 0.312211
vt 0.936226 0.312254
vt 0.933075 0.263453
vt 0.893263 0.261490
vt 0.670148 0.393127
vt 0.666826 0.415674
vt 0.958612 0.415674
vt 0.958434 0.414426
vt 0.649700 0.837975
vt 0.635627 0.887710
vt 0.686058 0.890422
vt 0.687133 0.850246
vt 0.592375 0.849695
vt 0.589648 0.893263
vt 0.597277 0.933075
vt 0.622837 0.940554
vt 0.673628 0.933416
vt 0.822213 0.289744
vt 0.819123 0.263848
vt 0.672063 0.313364
vt 0.673628 0.264581
vt 0.936602 0.313364
vt 0.933416 0.264581
vt 0.941647 0.364922
vt 0.899640 0.363406
vt 0.623001 0.364960
vt 0.665562 0.364922
vt 0.668659 0.362549
vt 0.644119 0.361871
vt 0.647700 0.316485
vt 0.685132 0.316407
vt 0.859879 0.359936
vt 0.902447 0.361457
vt 0.941330 0.363919
vt 0.860378 0.362549
vt 0.606538 0.359936
vt 0.590374 0.313492
vt 0.601582 0.363919
vt 0.646474 0.289822
vt 0.601626 0.286829
vt 0.603191 0.260902
vt 0.648039 0.263334
vt 0.675760 0.289744
vt 0.677325 0.263848
vt 0.647700 0.841274
vt 0.590374 0.852894
vt 0.601626 0.821566
vt 0.646474 0.809945
vt 0.648039 0.806852
vt 0.603191 0.818572
vt 0.685132 0.853541
vt 0.675760 0.822213
vt 0.677325 0.819123
vt 0.500000 0.668378
vt 0.500000 0.724779
vt 0.517225 0.721513
vt 0.520785 0.669173
vt 0.528698 1.002924
vt 0.500000 1.014901
vt 0.500000 1.025182
vt 0.520785 1.015365
vt 0.500000 0.744181
vt 0.519989 0.740196
vt 0.519989 0.988807
vt 0.500000 0.995348
vt 0.500000 0.660499
vt 0.528698 0.661469
vt 0.154177 0.616909
vt 0.166410 0.570048
vt 0.135838 0.608740
vt 0.149154 0.567675
vt 0.147623 0.572395
vt 0.137518 0.603560
vt 0.583783 0.154177
vt 0.583848 0.135838
vt 0.600568 0.131366
vt 0.597073 0.144428
vt 0.144166 0.612314
vt 0.141084 0.620214
vt 0.132632 0.614576
vt 0.134671 0.609983
vt 0.153028 0.593819
vt 0.141399 0.592146
vt 0.619182 0.132632
vt 0.614588 0.141084
vt 0.606252 0.140479
vt 0.610351 0.130579
vt 0.138199 0.601250
vt 0.148213 0.603179
vt 0.602487 0.570048
vt 0.583783 0.616909
vt 0.597073 0.624463
vt 0.606252 0.625520
vt 0.614588 0.620214
vt 0.620822 0.612314
vt 0.623703 0.603179
vt 0.620639 0.593819
vt 0.604695 0.577238
vt 0.601269 0.572395
vt 0.603531 0.567675
vt 0.609313 0.614171
vt 0.615687 0.610750
vt 0.619182 0.614576
vt 0.610351 0.619358
vt 0.602434 0.613212
vt 0.600568 0.617961
vt 0.626402 0.601250
vt 0.623276 0.609983
vt 0.618527 0.594500
vt 0.623272 0.592146
vt 0.590602 0.606787
vt 0.583848 0.608740
vt 0.592903 0.603615
vt 0.603070 0.582298
vt 0.613048 0.594751
vt 0.610999 0.606475
vt 0.606401 0.608943
vt 0.601438 0.608251
vt 0.586331 0.603560
vt 0.600598 0.578805
vt 0.589822 0.601288
vt 0.148133 0.578805
vt 0.140843 0.601288
vt 0.522445 0.038205
vt 0.513246 0.032036
vt 0.507613 0.025182
vt 0.515546 0.030102
vt 0.521458 0.442272
vt 0.528336 0.428901
vt 0.500000 0.456702
vt 0.500000 0.445370
vt 0.500000 0.031689
vt 0.512541 0.032373
vt 0.506877 0.025742
vt 0.500000 0.025886
vt 0.500000 0.031337
vt 0.500000 0.025479
vt 0.030102 0.457928
vt 0.030515 0.446199
vt 0.432141 0.867914
vt 0.443845 0.927906
vt 0.379085 0.894044
vt 0.360683 0.828812
vt 0.439809 0.672195
vt 0.430298 0.558226
vt 0.400297 0.594201
vt 0.380247 0.672998
vt 0.419750 0.833374
vt 0.430922 0.759035
vt 0.362910 0.751725
vt 0.364577 0.812683
vt 0.430922 0.758996
vt 0.439809 0.671923
vt 0.454286 0.976119
vt 0.395580 0.951058
vt 0.395580 0.548422
vt 0.333098 0.547256
vt 0.311584 0.643970
vt 0.373635 0.643481
vt 0.436410 0.893919
vt 0.360683 0.793372
vt 0.328551 0.761101
vt 0.323030 0.643370
vt 0.340672 0.642712
vt 0.444006 0.632181
vt 0.395580 0.735145
vt 0.454286 0.747180
vt 0.427025 0.538591
vt 0.333098 0.715601
vt 0.427025 0.947229
vt 0.443553 0.575135
vt 0.400297 0.530171
vt 0.356060 0.535244
vt 0.340885 0.643738
vt 0.362910 0.643182
vt 0.435444 0.492909
vt 0.433984 0.447361
vt 0.430298 0.518348
vt 0.405006 0.421068
vt 0.383019 0.429733
vt 0.362474 0.771615
vt 0.387552 0.796381
vt 0.438918 0.382998
vt 0.421210 0.420824
vt 0.448920 0.357545
vt 0.398021 0.363238
vt 0.378773 0.407144
vt 0.332784 0.508652
vt 0.333539 0.413961
vt 0.367244 0.407548
vt 0.378773 0.499901
vt 0.362910 0.751727
vt 0.459125 0.268345
vt 0.417930 0.278839
vt 0.380247 0.672932
vt 0.448920 0.314473
vt 0.328551 0.517077
vt 0.328734 0.470798
vt 0.357619 0.470278
vt 0.364577 0.509803
vt 0.459125 0.239236
vt 0.435444 0.495971
vt 0.387552 0.579931
vt 0.371732 0.501290
vt 0.368885 0.457158
vt 0.460183 0.181283
vt 0.460183 0.140934
vt 0.460183 0.196322
vt 0.419994 0.205473
vt 0.378509 0.393435
vt 0.461297 0.608225
vt 0.473395 0.560962
vt 0.433984 0.450625
vt 0.460469 0.141037
vt 0.469367 0.116366
vt 0.437911 0.123733
vt 0.420553 0.149293
vt 0.457081 0.165879
vt 0.413943 0.174337
vt 0.484203 0.085531
vt 0.489280 0.071544
vt 0.476758 0.071388
vt 0.468516 0.086614
vt 0.398021 0.325561
vt 0.417930 0.249130
vt 0.419994 0.679456
vt 0.420401 0.648799
vt 0.460183 0.657159
vt 0.460183 0.690304
vt 0.486669 0.045311
vt 0.419994 0.191059
vt 0.422167 0.599988
vt 0.445768 0.556649
vt 0.469661 0.475706
vt 0.477555 0.462176
vt 0.486754 0.460736
vt 0.484790 0.477146
vt 0.484454 0.457928
vt 0.485561 0.446199
vt 0.493123 0.445401
vt 0.492387 0.457080
vt 0.471665 0.053210
vt 0.379159 0.601238
vt 0.385282 0.599612
vt 0.386922 0.604170
vt 0.381432 0.607555
vt 0.486669 0.424258
vt 0.487459 0.440917
vt 0.423568 0.505809
vt 0.452679 0.467354
vt 0.460520 0.507406
vt 0.480956 0.508271
vt 0.420401 0.168698
vt 0.422167 0.108290
vt 0.461297 0.096221
vt 0.479678 0.097153
vt 0.458025 0.104341
vt 0.378509 0.816867
vt 0.355733 0.774144
vt 0.330903 0.641253
vt 0.351886 0.640437
vt 0.398375 0.405151
vt 0.421210 0.496630
vt 0.379220 0.366797
vt 0.348274 0.367843
vt 0.350598 0.433451
vt 0.330908 0.368189
vt 0.364194 0.367147
vt 0.324343 0.324872
vt 0.360708 0.324944
vt 0.395132 0.366023
vt 0.400340 0.365401
vt 0.378349 0.293283
vt 0.378743 0.261665
vt 0.340632 0.261742
vt 0.341538 0.293469
vt 0.377606 0.322035
vt 0.343222 0.322330
vt 0.394336 0.324350
vt 0.400943 0.321655
vt 0.404597 0.548078
vt 0.409055 0.518571
vt 0.354176 0.523009
vt 0.378743 0.561263
vt 0.360141 0.470735
vt 0.313739 0.480362
vt 0.314593 0.500191
vt 0.351676 0.498544
vt 0.407749 0.493332
vt 0.316857 0.522344
vt 0.340632 0.560446
vt 0.403567 0.477757
vt 0.403321 0.292993
vt 0.404597 0.261464
vt 0.359645 0.307779
vt 0.396411 0.307317
vt 0.320262 0.307625
vt 0.322068 0.288897
vt 0.320535 0.262732
vt 0.360141 0.262967
vt 0.360320 0.289050
vt 0.396713 0.262636
vt 0.395646 0.288588
vt 0.320262 0.482345
vt 0.322068 0.451756
vt 0.360320 0.442459
vt 0.359645 0.473048
vt 0.360141 0.440146
vt 0.320535 0.449773
vt 0.395646 0.449241
vt 0.396411 0.479829
vt 0.396713 0.447168
vt 0.330810 0.894416
vt 0.328551 0.841501
vt 0.333098 0.940741
vt 0.407688 0.470184
vt 0.401774 0.414426
vt 0.378808 0.417417
vt 0.382476 0.471308
vt 0.356165 0.389418
vt 0.396460 0.389954
vt 0.401854 0.467455
vt 0.332380 0.471464
vt 0.419750 0.494548
vt 0.404289 0.312254
vt 0.402723 0.263453
vt 0.377163 0.264476
vt 0.378728 0.312916
vt 0.329852 0.393127
vt 0.333174 0.415674
vt 0.350300 0.837975
vt 0.312867 0.850246
vt 0.313942 0.890422
vt 0.364373 0.887710
vt 0.410353 0.893263
vt 0.407625 0.849695
vt 0.377163 0.940554
vt 0.402723 0.933075
vt 0.326372 0.933416
vt 0.326372 0.264581
vt 0.327937 0.313364
vt 0.376999 0.364960
vt 0.334438 0.364922
vt 0.331341 0.362549
vt 0.314868 0.316407
vt 0.352300 0.316485
vt 0.355881 0.361871
vt 0.409626 0.313492
vt 0.393462 0.359936
vt 0.398418 0.363919
vt 0.353526 0.289822
vt 0.351961 0.263334
vt 0.396809 0.260902
vt 0.398374 0.286829
vt 0.324240 0.289744
vt 0.322675 0.263848
vt 0.352300 0.841274
vt 0.353526 0.809945
vt 0.398374 0.821566
vt 0.409626 0.852894
vt 0.396809 0.818572
vt 0.351961 0.806852
vt 0.314868 0.853541
vt 0.324240 0.822213
vt 0.322675 0.819123
vt 0.479215 0.669173
vt 0.482775 0.721513
vt 0.471302 1.002924
vt 0.479215 1.015365
vt 0.480011 0.740196
vt 0.480011 0.988807
vt 0.471302 0.661469
vt 0.416217 0.154177
vt 0.402927 0.144428
vt 0.399432 0.131366
vt 0.416152 0.135838
vt 0.380819 0.132632
vt 0.389649 0.130579
vt 0.393748 0.140479
vt 0.385412 0.141084
vt 0.397513 0.570048
vt 0.379361 0.593819
vt 0.376297 0.603179
vt 0.379178 0.612314
vt 0.385412 0.620214
vt 0.393748 0.625520
vt 0.402927 0.624463
vt 0.416217 0.616909
vt 0.395305 0.577238
vt 0.396469 0.567675
vt 0.398731 0.572395
vt 0.390687 0.614171
vt 0.389649 0.619358
vt 0.380819 0.614576
vt 0.384313 0.610750
vt 0.397566 0.613212
vt 0.399432 0.617961
vt 0.376724 0.609983
vt 0.373598 0.601250
vt 0.376728 0.592146
vt 0.381473 0.594500
vt 0.409398 0.606787
vt 0.416152 0.608740
vt 0.407098 0.603615
vt 0.398562 0.608251
vt 0.393599 0.608943
vt 0.389001 0.606475
vt 0.386952 0.594751
vt 0.396930 0.582298
vt 0.413669 0.603560
vt 0.399402 0.578805
vt 0.410178 0.601288
vt 0.477555 0.038205
vt 0.484454 0.030102
vt 0.492387 0.025182
vt 0.486754 0.032036
vt 0.478542 0.442272
vt 0.471665 0.428901
vt 0.493123 0.025742
vt 0.487459 0.032373
vt 0.181819 0.000000
vt 0.227273 0.078731
vt 0.136365 0.078731
vt 0.272728 0.157461
vt 0.318182 0.078731
vt 0.363637 0.157461
vt 0.909091 0.000000
vt 0.954545 0.078731
vt 0.863636 0.078731
vt 0.727273 0.000000
vt 0.772727 0.078731
vt 0.681818 0.078731
vt 0.545455 0.000000
vt 0.590909 0.078731
vt 0.500000 0.078731
vt 0.318182 0.236191
vt 0.090910 0.157461
vt 0.181819 0.157461
vt 0.136365 0.236191
vt 0.818182 0.157461
vt 0.909091 0.157461
vt 0.863636 0.236191
vt 0.636364 0.157461
vt 0.727273 0.157461
vt 0.681818 0.236191
vt 0.454546 0.157461
vt 0.545455 0.157461
vt 0.500000 0.236191
vt 0.227273 0.236191
vt 0.045455 0.236191
vt 0.772727 0.236191
vt 0.590909 0.236191
vt 0.409092 0.236191
vt 0.181819 0.314921
vt 0.272728 0.314921
vt 0.227273 0.393651
vt 0.000000 0.314921
vt 0.090910 0.314921
vt 0.045455 0.393651
vt 0.727273 0.314921
vt 0.818182 0.314921
vt 0.772727 0.393651
vt 0.545455 0.314921
vt 0.636364 0.314921
vt 0.590909 0.393651
vt 0.363637 0.314921
vt 0.454546 0.314921
vt 0.409092 0.393651
vt 0.500000 0.393651
vt 0.454546 0.472382
vt 0.681818 0.393651
vt 0.636364 0.472382
vt 0.863636 0.393651
vt 0.818182 0.472382
vt 0.909091 0.314921
vt 0.136365 0.393651
vt 0.090910 0.472382
vt 0.318182 0.393651
vt 0.272728 0.472382
vt 0.954545 0.236191
vt 1.000000 0.157461
vt 0.409092 0.078731
vt 0.363637 0.000000
s 1
f 116/1/1 98/2/1 209/3/1 208/4/1
f 115/5/2 4/6/2 17/7/2 97/8/2
f 3/9/3 7/10/3 13/11/3 8/12/3
f 7/10/4 4/13/4 9/14/4 13/11/4
f 13/11/5 9/14/5 2/15/5 10/16/5
f 8/12/6 13/11/6 10/16/6 1/17/6
f 1/17/7 10/16/7 32/18/7 29/19/7
f 114/20/8 1/21/8 29/22/8 83/23/8
f 116/24/9 3/25/9 8/26/9 109/27/9
f 109/27/10 8/26/10 1/21/10 114/20/10
f 115/5/11 6/28/11 15/29/11 99/30/11
f 99/30/12 15/29/12 12/31/12 112/32/12
f 97/8/13 17/7/13 21/33/13 90/34/13
f 20/35/14 25/36/14 203/37/14 204/38/14
f 116/24/15 5/28/15 18/39/15 98/40/15
f 4/41/16 7/42/16 197/43/16 196/44/16
f 89/45/17 90/46/17 21/47/17 25/36/17
f 91/48/18 89/45/18 25/36/18 20/35/18
f 25/36/19 21/47/19 202/49/19 203/37/19
f 98/40/20 18/39/20 23/50/20 91/51/20
f 38/52/21 45/53/21 134/54/21 131/55/21
f 133/56/22 136/57/22 144/58/22 146/59/22
f 112/32/23 12/31/23 34/60/23 82/61/23
f 10/16/24 2/15/24 30/62/24 32/18/24
f 29/63/25 32/64/25 129/65/25 130/66/25
f 75/67/26 41/68/26 48/69/26 73/70/26
f 82/61/27 34/60/27 41/68/27 75/67/27
f 83/71/28 29/63/28 141/72/28 140/73/28
f 32/64/29 30/74/29 128/75/29 129/65/29
f 73/70/30 48/69/30 56/76/30 66/77/30
f 74/78/31 81/79/31 145/80/31 148/81/31
f 130/82/32 133/56/32 146/59/32 147/83/32
f 6/28/33 115/5/33 97/8/33 19/39/33
f 54/84/34 53/85/34 60/86/34 61/87/34
f 67/88/35 54/89/35 61/90/35 65/91/35
f 11/92/36 114/20/36 83/23/36 33/93/36
f 5/28/37 116/24/37 109/27/37 14/29/37
f 14/29/38 109/27/38 114/20/38 11/92/38
f 139/94/39 54/95/39 143/96/39 142/97/39
f 30/62/40 38/52/40 131/55/40 128/98/40
f 4/6/41 115/5/41 99/30/41 9/99/41
f 61/87/42 60/86/42 69/100/42 70/101/42
f 65/91/43 61/90/43 70/102/43 58/103/43
f 9/99/44 99/30/44 112/32/44 2/104/44
f 66/77/45 56/76/45 63/105/45 64/106/45
f 19/39/46 97/8/46 90/34/46 24/107/46
f 53/85/47 52/108/47 59/109/47 60/86/47
f 198/110/48 3/111/48 207/112/48 213/113/48
f 256/114/49 255/115/49 253/116/49 254/117/49
f 23/118/50 26/119/50 89/45/50 91/48/50
f 69/100/51 68/120/51 76/121/51 77/122/51
f 204/123/52 201/124/52 211/125/52 212/126/52
f 64/106/53 63/105/53 72/127/53 57/128/53
f 33/93/54 83/23/54 81/129/54 40/68/54
f 60/86/55 59/109/55 68/120/55 69/100/55
f 2/104/56 112/32/56 82/61/56 30/130/56
f 38/131/57 75/67/57 73/70/57 45/132/57
f 77/122/58 76/121/58 259/133/58 260/134/58
f 30/130/59 82/61/59 75/67/59 38/131/59
f 50/135/60 80/136/60 88/137/60 44/138/60
f 58/103/61 70/102/61 78/139/61 51/140/61
f 70/101/62 69/100/62 77/122/62 78/141/62
f 45/132/63 73/70/63 66/77/63 52/142/63
f 57/128/64 72/127/64 80/136/64 50/135/64
f 28/143/65 110/144/65 96/145/65 42/146/65
f 40/68/66 81/129/66 74/147/66 47/69/66
f 108/148/67 262/149/67 93/150/67 94/151/67
f 31/152/68 108/153/68 94/154/68 43/155/68
f 55/156/69 67/88/69 65/91/69 62/157/69
f 51/140/70 78/139/70 86/158/70 49/159/70
f 78/141/71 77/122/71 260/134/71 86/160/71
f 47/69/72 74/147/72 67/88/72 55/156/72
f 123/161/73 124/162/73 101/163/73 102/164/73
f 121/165/74 123/166/74 102/167/74 37/168/74
f 62/157/75 65/91/75 58/103/75 71/169/75
f 52/142/76 66/77/76 64/106/76 59/170/76
f 59/170/77 64/106/77 57/128/77 68/171/77
f 262/149/78 261/172/78 92/173/78 93/150/78
f 76/174/79 50/175/79 44/176/79 259/177/79
f 71/169/80 58/103/80 51/140/80 79/178/80
f 37/168/81 35/179/81 105/180/81 103/181/81
f 124/162/82 127/182/82 297/183/82 298/184/82 101/163/82
f 68/171/83 57/128/83 50/135/83 76/185/83
f 261/186/84 28/143/84 42/146/84 92/187/84
f 107/188/85 31/152/85 43/155/85 95/189/85
f 127/190/86 122/191/86 295/192/86 297/193/86
f 79/178/87 51/140/87 49/159/87 87/194/87
f 100/195/88 36/196/88 301/197/88 104/198/88
f 126/199/89 121/165/89 37/168/89 103/181/89
f 102/167/90 101/200/90 35/179/90 37/168/90
f 274/201/91 273/202/91 290/203/91 291/204/91
f 122/191/92 125/205/92 300/206/92 295/192/92
f 49/159/93 86/158/93 108/153/93 31/152/93
f 86/160/94 260/134/94 262/149/94 108/148/94
f 35/207/95 296/208/95 299/209/95 105/210/95
f 44/176/96 88/211/96 110/144/96 28/143/96
f 93/212/97 92/187/97 120/213/97 119/214/97
f 87/194/98 49/159/98 31/152/98 107/188/98
f 42/146/99 96/145/99 113/215/99 27/216/99
f 259/217/100 44/138/100 28/218/100 261/219/100
f 92/187/101 42/146/101 27/216/101 120/213/101
f 95/189/102 43/155/102 22/220/102 118/221/102
f 43/155/103 94/154/103 117/222/103 22/220/103
f 94/151/104 93/150/104 119/223/104 117/224/104
f 120/213/105 27/216/105 122/191/105 127/190/105
f 118/221/106 22/220/106 121/165/106 126/199/106
f 119/223/107 120/225/107 127/182/107 124/162/107
f 27/216/108 113/215/108 125/205/108 122/191/108
f 22/220/109 117/222/109 123/166/109 121/165/109
f 117/224/110 119/223/110 124/162/110 123/161/110
f 130/82/111 129/226/111 132/227/111 133/56/111
f 132/227/112 131/55/112 134/54/112 135/228/112
f 129/226/113 128/98/113 131/55/113 132/227/113
f 135/228/114 134/54/114 137/229/114 138/230/114
f 133/56/115 132/227/115 135/228/115 136/57/115
f 136/57/116 135/228/116 138/230/116 139/231/116
f 52/232/117 53/233/117 138/234/117 137/235/117
f 45/53/118 52/108/118 137/229/118 134/54/118
f 54/95/119 67/236/119 149/237/119 143/96/119
f 53/233/120 54/95/120 139/94/120 138/234/120
f 141/72/121 147/238/121 157/239/121 39/240/121
f 144/58/122 142/241/122 150/242/122 153/243/122
f 145/80/123 140/244/123 46/245/123 154/246/123
f 148/81/124 145/80/124 154/246/124 158/247/124
f 146/59/125 144/58/125 153/243/125 156/248/125
f 142/97/126 143/96/126 151/249/126 150/250/126
f 136/57/127 139/231/127 142/241/127 144/58/127
f 67/251/128 74/78/128 148/81/128 149/252/128
f 29/63/129 130/66/129 147/238/129 141/72/129
f 81/79/130 83/253/130 140/244/130 145/80/130
f 153/243/131 150/242/131 162/254/131 164/255/131
f 154/246/132 46/245/132 160/256/132 165/257/132
f 158/247/133 154/246/133 165/257/133 168/258/133
f 156/248/134 153/243/134 164/255/134 166/259/134
f 150/250/135 151/249/135 163/260/135 162/261/135
f 157/262/136 156/248/136 166/259/136 167/263/136
f 149/252/137 148/81/137 158/247/137 159/264/137
f 143/96/138 149/237/138 159/265/138 151/249/138
f 140/73/139 141/72/139 39/240/139 46/266/139
f 147/83/140 146/59/140 156/248/140 157/262/140
f 188/267/141 187/268/141 177/269/141 152/270/141
f 184/271/142 185/272/142 170/273/142 173/274/142
f 182/275/143 180/276/143 155/277/143 174/278/143
f 181/279/144 182/275/144 174/278/144 178/280/144
f 183/281/145 184/271/145 173/274/145 176/282/145
f 170/273/146 185/272/146 194/283/146 192/284/146
f 39/240/147 157/239/147 167/285/147 161/286/147
f 159/264/148 158/247/148 168/258/148 169/287/148
f 151/249/149 159/265/149 169/288/149 163/260/149
f 46/266/150 39/240/150 161/286/150 160/289/150
f 155/290/151 152/291/151 175/292/151 174/293/151
f 171/294/152 172/295/152 173/296/152 170/297/152
f 174/293/153 175/292/153 172/295/153 178/298/153
f 175/292/154 152/291/154 177/299/154 176/300/154
f 178/298/155 172/295/155 171/294/155 179/301/155
f 172/295/156 175/292/156 176/300/156 173/296/156
f 189/302/157 181/279/157 178/280/157 179/303/157
f 189/302/158 179/303/158 193/304/158 195/305/158
f 180/306/159 188/267/159 152/270/159 155/307/159
f 187/308/160 183/281/160 176/282/160 177/309/160
f 167/263/161 166/259/161 183/281/161 187/308/161
f 160/289/162 161/286/162 188/267/162 180/306/162
f 163/260/163 169/288/163 189/310/163 186/311/163
f 169/287/164 168/258/164 181/279/164 189/302/164
f 162/261/165 163/260/165 186/311/165 185/312/165
f 166/259/166 164/255/166 184/271/166 183/281/166
f 168/258/167 165/257/167 182/275/167 181/279/167
f 165/257/168 160/256/168 180/276/168 182/275/168
f 164/255/169 162/254/169 185/272/169 184/271/169
f 161/286/170 167/285/170 187/268/170 188/267/170
f 194/313/171 190/314/171 191/315/171 192/316/171
f 190/314/172 195/317/172 193/318/172 191/315/172
f 185/319/173 186/320/173 190/321/173 194/322/173
f 171/294/174 170/297/174 192/323/174 191/324/174
f 186/320/175 189/325/175 195/326/175 190/321/175
f 179/301/176 171/294/176 191/324/176 193/327/176
f 196/328/177 197/329/177 200/330/177 199/331/177
f 200/330/178 201/124/178 204/123/178 203/332/178
f 197/329/179 198/333/179 201/124/179 200/330/179
f 199/331/180 200/330/180 203/332/180 202/334/180
f 7/42/181 3/111/181 198/110/181 197/43/181
f 17/7/182 4/6/182 196/335/182 199/336/182
f 201/124/183 198/333/183 213/337/183 211/125/183
f 21/33/184 17/7/184 199/336/184 202/338/184
f 208/4/185 209/3/185 217/339/185 216/340/185
f 210/341/186 206/342/186 214/343/186 218/344/186
f 207/112/187 208/345/187 216/346/187 215/347/187
f 211/125/188 213/337/188 221/348/188 219/349/188
f 20/35/189 204/38/189 212/350/189 206/342/189
f 91/48/190 20/35/190 206/342/190 210/341/190
f 98/2/191 91/351/191 210/352/191 209/3/191
f 3/111/192 116/353/192 208/345/192 207/112/192
f 232/354/193 235/355/193 222/356/193 226/357/193
f 233/358/194 224/359/194 240/360/194 241/361/194
f 16/362/195 230/363/195 229/364/195 227/365/195
f 231/366/196 232/367/196 226/368/196 225/369/196
f 213/113/197 207/112/197 215/347/197 221/370/197
f 206/342/198 212/350/198 220/371/198 214/343/198
f 212/126/199 211/125/199 219/349/199 220/372/199
f 209/3/200 210/352/200 218/373/200 217/339/200
f 223/374/201 205/375/201 227/376/201 229/377/201
f 223/374/202 224/378/202 225/379/202 205/375/202
f 205/375/203 225/379/203 226/380/203 222/381/203
f 205/375/204 222/381/204 228/382/204 227/376/204
f 233/358/205 231/366/205 225/369/205 224/359/205
f 229/364/206 230/363/206 237/383/206 238/384/206
f 235/355/207 236/385/207 228/386/207 222/356/207
f 236/387/208 16/362/208 227/365/208 228/388/208
f 250/389/209 243/390/209 16/362/209 236/387/209
f 249/391/210 250/392/210 236/385/210 235/355/210
f 246/393/211 245/394/211 234/395/211 230/396/211
f 248/397/212 244/398/212 231/366/212 233/358/212
f 244/398/213 247/399/213 232/367/213 231/366/213
f 243/390/214 246/400/214 230/363/214 16/362/214
f 245/394/215 248/401/215 233/402/215 234/395/215
f 247/403/216 249/391/216 235/355/216 232/354/216
f 242/404/217 241/405/217 240/406/217 239/407/217
f 237/408/218 242/404/218 239/407/218 238/409/218
f 234/410/219 233/411/219 241/412/219 242/413/219
f 224/378/220 223/374/220 239/414/220 240/415/220
f 230/416/221 234/410/221 242/413/221 237/417/221
f 223/374/222 229/377/222 238/418/222 239/414/222
f 218/344/223 214/343/223 249/391/223 247/403/223
f 215/347/224 216/346/224 248/401/224 245/394/224
f 219/349/225 221/348/225 246/400/225 243/390/225
f 217/339/226 218/373/226 247/399/226 244/398/226
f 216/340/227 217/339/227 244/398/227 248/397/227
f 221/370/228 215/347/228 245/394/228 246/393/228
f 214/343/229 220/371/229 250/392/229 249/391/229
f 220/372/230 219/349/230 243/390/230 250/389/230
f 252/419/231 251/420/231 254/421/231 253/422/231
f 255/423/232 257/424/232 252/425/232 253/426/232
f 258/427/233 256/428/233 254/421/233 251/420/233
f 24/107/234 90/34/234 256/429/234 258/430/234
f 89/45/235 26/119/235 257/431/235 255/432/235
f 90/46/236 89/45/236 255/432/236 256/428/236
f 84/433/237 85/434/237 260/134/237 259/133/237
f 275/435/238 84/433/238 259/133/238 261/172/238
f 85/434/239 276/436/239 262/149/239 260/134/239
f 276/436/240 284/437/240 283/438/240 275/435/240 261/172/240 262/149/240
f 84/439/241 275/440/241 279/441/241 263/442/241
f 266/443/242 264/444/242 278/445/242 280/446/242
f 276/436/243 85/434/243 267/447/243 282/448/243
f 278/449/244 264/450/244 265/451/244 277/452/244
f 277/452/245 265/451/245 263/442/245 279/441/245
f 266/443/246 280/446/246 281/453/246 268/454/246
f 268/454/247 281/453/247 282/448/247 267/447/247
f 85/455/248 84/456/248 263/457/248 265/458/248 264/459/248 266/460/248 268/461/248 267/462/248
f 106/463/249 284/464/249 276/465/249
f 271/466/250 269/467/250 278/468/250 277/469/250
f 270/470/251 271/466/251 277/469/251 279/471/251
f 273/202/252 274/201/252 281/472/252 280/473/252
f 274/201/253 272/474/253 282/475/253 281/472/253
f 269/467/254 273/202/254 280/473/254 278/468/254
f 111/476/255 270/470/255 279/471/255 275/477/255
f 272/474/256 106/463/256 276/465/256 282/475/256
f 285/478/257 286/479/257 292/480/257 291/204/257 290/203/257 288/481/257 287/482/257 289/483/257
f 283/484/258 111/476/258 275/477/258
f 270/470/259 111/476/259 285/478/259 289/483/259
f 294/485/260 286/479/260 285/478/260 293/486/260
f 111/476/261 283/484/261 293/486/261 285/478/261
f 106/463/262 272/474/262 292/480/262 286/479/262
f 272/474/263 274/201/263 291/204/263 292/480/263
f 269/467/264 271/466/264 287/482/264 288/481/264
f 283/438/265 284/437/265 294/487/265 293/488/265
f 273/202/266 269/467/266 288/481/266 290/203/266
f 284/464/267 106/463/267 286/479/267 294/485/267
f 271/466/268 270/470/268 289/483/268 287/482/268
f 297/489/269 295/490/269 36/491/269 100/492/269
f 296/208/270 298/493/270 104/198/270 301/197/270
f 101/494/271 298/493/271 296/208/271 35/207/271
f 36/196/272 302/495/272 303/496/272 301/197/272
f 299/497/273 296/498/273 301/499/273 303/500/273
f 295/490/274 300/501/274 302/502/274 36/491/274
f 298/184/275 297/183/275 100/503/275 104/504/275
f 385/1/276 474/4/276 475/3/276 372/2/276
f 384/505/277 371/506/277 314/507/277 307/508/277
f 306/9/278 309/12/278 312/11/278 308/10/278
f 308/10/279 312/11/279 310/14/279 307/13/279
f 312/11/280 311/16/280 305/15/280 310/14/280
f 309/12/281 304/17/281 311/16/281 312/11/281
f 304/17/282 321/19/282 324/18/282 311/16/282
f 383/509/283 361/510/283 321/511/283 304/512/283
f 385/513/284 380/514/284 309/515/284 306/516/284
f 380/514/285 383/509/285 304/512/285 309/515/285
f 384/505/286 373/517/286 15/29/286 6/28/286
f 373/517/287 382/518/287 12/31/287 15/29/287
f 371/506/288 366/519/288 316/520/288 314/507/288
f 315/521/289 470/522/289 469/523/289 318/524/289
f 385/513/290 372/525/290 18/39/290 5/28/290
f 307/526/291 462/527/291 463/528/291 308/529/291
f 365/530/292 318/524/292 316/531/292 366/532/292
f 367/533/293 315/521/293 318/524/293 365/530/293
f 318/524/294 469/523/294 468/534/294 316/531/294
f 372/525/295 367/535/295 23/50/295 18/39/295
f 328/52/296 397/55/296 400/54/296 333/53/296
f 399/56/297 412/59/297 410/58/297 402/57/297
f 382/518/298 360/536/298 34/60/298 12/31/298
f 311/16/299 324/18/299 322/62/299 305/15/299
f 321/537/300 396/538/300 395/539/300 324/540/300
f 355/541/301 353/542/301 48/69/301 41/68/301
f 360/536/302 355/541/302 41/68/302 34/60/302
f 361/543/303 406/544/303 407/545/303 321/537/303
f 324/540/304 395/539/304 394/546/304 322/547/304
f 353/542/305 348/548/305 56/76/305 48/69/305
f 354/78/306 414/81/306 411/80/306 359/79/306
f 396/82/307 413/83/307 412/59/307 399/56/307
f 6/28/308 19/39/308 371/506/308 384/505/308
f 340/84/309 345/87/309 344/86/309 339/85/309
f 349/549/310 347/550/310 345/551/310 340/552/310
f 11/92/311 33/93/311 361/510/311 383/509/311
f 5/28/312 14/29/312 380/514/312 385/513/312
f 14/29/313 11/92/313 383/509/313 380/514/313
f 405/553/314 408/554/314 409/555/314 340/556/314
f 322/62/315 394/98/315 397/55/315 328/52/315
f 307/508/316 310/557/316 373/517/316 384/505/316
f 345/87/317 352/101/317 351/100/317 344/86/317
f 347/550/318 342/558/318 352/559/318 345/551/318
f 310/557/319 305/560/319 382/518/319 373/517/319
f 348/548/320 346/561/320 63/105/320 56/76/320
f 19/39/321 24/107/321 366/519/321 371/506/321
f 339/85/322 344/86/322 343/109/322 338/108/322
f 464/562/323 479/563/323 473/564/323 306/565/323
f 520/114/324 518/117/324 517/116/324 519/115/324
f 23/118/325 367/533/325 365/530/325 26/119/325
f 351/100/326 357/122/326 356/121/326 350/120/326
f 470/123/327 478/126/327 477/125/327 467/124/327
f 346/561/328 341/566/328 72/127/328 63/105/328
f 33/93/329 40/68/329 359/567/329 361/510/329
f 344/86/330 351/100/330 350/120/330 343/109/330
f 305/560/331 322/568/331 360/536/331 382/518/331
f 328/569/332 333/570/332 353/542/332 355/541/332
f 357/122/333 522/134/333 521/133/333 356/121/333
f 322/568/334 328/569/334 355/541/334 360/536/334
f 336/571/335 332/572/335 88/137/335 80/136/335
f 342/558/336 337/573/336 358/574/336 352/559/336
f 352/101/337 358/141/337 357/122/337 351/100/337
f 333/570/338 338/575/338 348/548/338 353/542/338
f 341/566/339 336/571/339 80/136/339 72/127/339
f 320/576/340 330/577/340 96/145/340 110/144/340
f 40/68/341 47/69/341 354/578/341 359/567/341
f 379/148/342 370/151/342 369/150/342 524/149/342
f 323/579/343 331/580/343 370/581/343 379/582/343
f 55/156/344 62/157/344 347/550/344 349/549/344
f 337/573/345 335/583/345 364/584/345 358/574/345
f 358/141/346 364/160/346 522/134/346 357/122/346
f 47/69/347 55/156/347 349/549/347 354/578/347
f 391/161/348 376/164/348 375/163/348 392/162/348
f 389/585/349 327/586/349 376/587/349 391/588/349
f 62/157/350 71/169/350 342/558/350 347/550/350
f 338/575/351 343/589/351 346/561/351 348/548/351
f 343/589/352 350/590/352 341/566/352 346/561/352
f 524/149/353 369/150/353 368/173/353 523/172/353
f 356/591/354 521/592/354 332/593/354 336/594/354
f 71/169/355 79/178/355 337/573/355 342/558/355
f 327/586/356 103/181/356 105/180/356 325/595/356
f 392/162/357 375/163/357 560/184/357 559/183/357 393/182/357
f 350/590/358 356/596/358 336/571/358 341/566/358
f 523/597/359 368/598/359 330/577/359 320/576/359
f 107/188/360 95/189/360 331/580/360 323/579/360
f 393/599/361 559/600/361 557/601/361 390/602/361
f 79/178/362 87/194/362 335/583/362 337/573/362
f 374/603/363 377/604/363 561/605/363 326/606/363
f 126/199/364 103/181/364 327/586/364 389/585/364
f 376/587/365 327/586/365 325/595/365 375/607/365
f 536/608/366 553/609/366 552/610/366 535/611/366
f 390/602/367 557/601/367 300/206/367 125/205/367
f 335/583/368 323/579/368 379/582/368 364/584/368
f 364/160/369 379/148/369 524/149/369 522/134/369
f 325/612/370 105/210/370 299/209/370 558/613/370
f 332/593/371 320/576/371 110/144/371 88/211/371
f 369/614/372 387/615/372 388/616/372 368/598/372
f 87/194/373 107/188/373 323/579/373 335/583/373
f 330/577/374 319/617/374 113/215/374 96/145/374
f 521/618/375 523/619/375 320/620/375 332/572/375
f 368/598/376 388/616/376 319/617/376 330/577/376
f 95/189/377 118/221/377 317/621/377 331/580/377
f 331/580/378 317/621/378 386/622/378 370/581/378
f 370/151/379 386/224/379 387/223/379 369/150/379
f 388/616/380 393/599/380 390/602/380 319/617/380
f 118/221/381 126/199/381 389/585/381 317/621/381
f 387/223/382 392/162/382 393/182/382 388/225/382
f 319/617/383 390/602/383 125/205/383 113/215/383
f 317/621/384 389/585/384 391/588/384 386/622/384
f 386/224/385 391/161/385 392/162/385 387/223/385
f 396/82/386 399/56/386 398/227/386 395/226/386
f 398/227/387 401/228/387 400/54/387 397/55/387
f 395/226/388 398/227/388 397/55/388 394/98/388
f 401/228/389 404/230/389 403/229/389 400/54/389
f 399/56/390 402/57/390 401/228/390 398/227/390
f 402/57/391 405/231/391 404/230/391 401/228/391
f 338/623/392 403/624/392 404/625/392 339/626/392
f 333/53/393 400/54/393 403/229/393 338/108/393
f 340/556/394 409/555/394 415/627/394 349/628/394
f 339/626/395 404/625/395 405/553/395 340/556/395
f 407/545/396 329/629/396 423/630/396 413/631/396
f 410/58/397 419/243/397 416/242/397 408/241/397
f 411/80/398 420/246/398 334/245/398 406/244/398
f 414/81/399 424/247/399 420/246/399 411/80/399
f 412/59/400 422/248/400 419/243/400 410/58/400
f 408/554/401 416/632/401 417/633/401 409/555/401
f 402/57/402 410/58/402 408/241/402 405/231/402
f 349/251/403 415/252/403 414/81/403 354/78/403
f 321/537/404 407/545/404 413/631/404 396/538/404
f 359/79/405 411/80/405 406/244/405 361/253/405
f 419/243/406 430/255/406 428/254/406 416/242/406
f 420/246/407 431/257/407 426/256/407 334/245/407
f 424/247/408 434/258/408 431/257/408 420/246/408
f 422/248/409 432/259/409 430/255/409 419/243/409
f 416/632/410 428/634/410 429/635/410 417/633/410
f 423/262/411 433/263/411 432/259/411 422/248/411
f 415/252/412 425/264/412 424/247/412 414/81/412
f 409/555/413 417/633/413 425/636/413 415/627/413
f 406/544/414 334/637/414 329/629/414 407/545/414
f 413/83/415 423/262/415 422/248/415 412/59/415
f 454/638/416 418/639/416 443/640/416 453/641/416
f 450/271/417 439/274/417 436/273/417 451/272/417
f 448/275/418 440/278/418 421/277/418 446/276/418
f 447/279/419 444/280/419 440/278/419 448/275/419
f 449/281/420 442/282/420 439/274/420 450/271/420
f 436/273/421 458/284/421 460/283/421 451/272/421
f 329/629/422 427/642/422 433/643/422 423/630/422
f 425/264/423 435/287/423 434/258/423 424/247/423
f 417/633/424 429/635/424 435/644/424 425/636/424
f 334/637/425 426/645/425 427/642/425 329/629/425
f 421/646/426 440/647/426 441/648/426 418/649/426
f 437/650/427 436/651/427 439/652/427 438/653/427
f 440/647/428 444/654/428 438/653/428 441/648/428
f 441/648/429 442/655/429 443/656/429 418/649/429
f 444/654/430 445/657/430 437/650/430 438/653/430
f 438/653/431 439/652/431 442/655/431 441/648/431
f 455/302/432 445/303/432 444/280/432 447/279/432
f 455/302/433 461/305/433 459/304/433 445/303/433
f 446/658/434 421/659/434 418/639/434 454/638/434
f 453/308/435 443/309/435 442/282/435 449/281/435
f 433/263/436 453/308/436 449/281/436 432/259/436
f 426/645/437 446/658/437 454/638/437 427/642/437
f 429/635/438 452/660/438 455/661/438 435/644/438
f 435/287/439 455/302/439 447/279/439 434/258/439
f 428/634/440 451/662/440 452/660/440 429/635/440
f 432/259/441 449/281/441 450/271/441 430/255/441
f 434/258/442 447/279/442 448/275/442 431/257/442
f 431/257/443 448/275/443 446/276/443 426/256/443
f 430/255/444 450/271/444 451/272/444 428/254/444
f 427/642/445 454/638/445 453/641/445 433/643/445
f 460/663/446 458/664/446 457/665/446 456/666/446
f 456/666/447 457/665/447 459/667/447 461/668/447
f 451/669/448 460/670/448 456/671/448 452/672/448
f 437/650/449 457/673/449 458/674/449 436/651/449
f 452/672/450 456/671/450 461/675/450 455/676/450
f 445/657/451 459/677/451 457/673/451 437/650/451
f 462/328/452 465/331/452 466/330/452 463/329/452
f 466/330/453 469/332/453 470/123/453 467/124/453
f 463/329/454 466/330/454 467/124/454 464/333/454
f 465/331/455 468/334/455 469/332/455 466/330/455
f 308/529/456 463/528/456 464/562/456 306/565/456
f 314/507/457 465/678/457 462/679/457 307/508/457
f 467/124/458 477/125/458 479/337/458 464/333/458
f 316/520/459 468/680/459 465/678/459 314/507/459
f 474/4/460 482/340/460 483/339/460 475/3/460
f 476/681/461 484/682/461 480/683/461 472/684/461
f 473/564/462 481/685/462 482/686/462 474/687/462
f 477/125/463 485/349/463 487/348/463 479/337/463
f 315/521/464 472/684/464 478/688/464 470/522/464
f 367/533/465 476/681/465 472/684/465 315/521/465
f 372/2/466 475/3/466 476/352/466 367/351/466
f 306/565/467 473/564/467 474/687/467 385/689/467
f 498/690/468 492/691/468 488/692/468 501/693/468
f 499/358/469 507/361/469 506/360/469 490/359/469
f 313/362/470 493/365/470 495/364/470 496/363/470
f 497/366/471 491/369/471 492/368/471 498/367/471
f 479/563/472 487/694/472 481/685/472 473/564/472
f 472/684/473 480/683/473 486/695/473 478/688/473
f 478/126/474 486/372/474 485/349/474 477/125/474
f 475/3/475 483/339/475 484/373/475 476/352/475
f 489/696/476 495/697/476 493/698/476 471/699/476
f 489/696/477 471/699/477 491/700/477 490/701/477
f 471/699/478 488/702/478 492/703/478 491/700/478
f 471/699/479 493/698/479 494/704/479 488/702/479
f 499/358/480 490/359/480 491/369/480 497/366/480
f 495/364/481 504/384/481 503/383/481 496/363/481
f 501/693/482 488/692/482 494/705/482 502/706/482
f 502/387/483 494/388/483 493/365/483 313/362/483
f 516/389/484 502/387/484 313/362/484 509/390/484
f 515/707/485 501/693/485 502/706/485 516/708/485
f 512/709/486 496/710/486 500/711/486 511/712/486
f 514/397/487 499/358/487 497/366/487 510/398/487
f 510/398/488 497/366/488 498/367/488 513/399/488
f 509/390/489 313/362/489 496/363/489 512/400/489
f 511/712/490 500/711/490 499/713/490 514/714/490
f 513/715/491 498/690/491 501/693/491 515/707/491
f 508/716/492 505/717/492 506/718/492 507/719/492
f 503/720/493 504/721/493 505/717/493 508/716/493
f 500/722/494 508/723/494 507/724/494 499/725/494
f 490/701/495 506/726/495 505/727/495 489/696/495
f 496/728/496 503/729/496 508/723/496 500/722/496
f 489/696/497 505/727/497 504/730/497 495/697/497
f 484/682/498 513/715/498 515/707/498 480/683/498
f 481/685/499 511/712/499 514/714/499 482/686/499
f 485/349/500 509/390/500 512/400/500 487/348/500
f 483/339/501 510/398/501 513/399/501 484/373/501
f 482/340/502 514/397/502 510/398/502 483/339/502
f 487/694/503 512/709/503 511/712/503 481/685/503
f 480/683/504 515/707/504 516/708/504 486/695/504
f 486/372/505 516/389/505 509/390/505 485/349/505
f 252/419/506 517/731/506 518/732/506 251/420/506
f 519/733/507 517/734/507 252/425/507 257/424/507
f 258/427/508 251/420/508 518/732/508 520/735/508
f 24/107/509 258/430/509 520/736/509 366/519/509
f 365/530/510 519/737/510 257/431/510 26/119/510
f 366/532/511 520/735/511 519/737/511 365/530/511
f 362/433/512 521/133/512 522/134/512 363/434/512
f 537/435/513 523/172/513 521/133/513 362/433/513
f 363/434/514 522/134/514 524/149/514 538/436/514
f 538/436/515 524/149/515 523/172/515 537/435/515 545/438/515 546/437/515
f 362/738/516 525/739/516 541/740/516 537/741/516
f 528/443/517 542/446/517 540/445/517 526/444/517
f 538/436/518 544/448/518 529/447/518 363/434/518
f 540/742/519 539/743/519 527/744/519 526/745/519
f 539/743/520 541/740/520 525/739/520 527/744/520
f 528/443/521 530/454/521 543/453/521 542/446/521
f 530/454/522 529/447/522 544/448/522 543/453/522
f 363/746/523 529/747/523 530/748/523 528/749/523 526/750/523 527/751/523 525/752/523 362/753/523
f 378/754/524 538/755/524 546/756/524
f 533/757/525 539/758/525 540/759/525 531/760/525
f 532/761/526 541/762/526 539/758/526 533/757/526
f 535/611/527 542/763/527 543/764/527 536/608/527
f 536/608/253 543/764/253 544/765/253 534/766/253
f 531/760/528 540/759/528 542/763/528 535/611/528
f 381/767/529 537/768/529 541/762/529 532/761/529
f 534/766/530 544/765/530 538/755/530 378/754/530
f 547/769/531 551/770/531 549/771/531 550/772/531 552/610/531 553/609/531 554/773/531 548/774/531
f 545/775/532 537/768/532 381/767/532
f 532/761/533 551/770/533 547/769/533 381/767/533
f 556/776/534 555/777/534 547/769/534 548/774/534
f 381/767/535 547/769/535 555/777/535 545/775/535
f 378/754/536 548/774/536 554/773/536 534/766/536
f 534/766/537 554/773/537 553/609/537 536/608/537
f 531/760/538 550/772/538 549/771/538 533/757/538
f 545/438/539 555/488/539 556/487/539 546/437/539
f 535/611/540 552/610/540 550/772/540 531/760/540
f 546/756/541 556/776/541 548/774/541 378/754/541
f 533/757/542 549/771/542 551/770/542 532/761/542
f 559/778/543 374/779/543 326/780/543 557/781/543
f 558/613/544 561/605/544 377/604/544 560/782/544
f 375/783/545 325/612/545 558/613/545 560/782/545
f 326/606/546 561/605/546 303/496/546 302/495/546
f 299/497/547 303/500/547 561/784/547 558/785/547
f 557/781/548 326/780/548 302/502/548 300/501/548
f 560/184/549 377/504/549 374/503/549 559/183/549
f 562/786/550 575/787/550 574/788/550
f 563/789/551 575/790/551 577/791/551
f 562/792/552 574/793/552 579/794/552
f 562/795/553 579/796/553 581/797/553
f 562/798/554 581/799/554 578/800/554
f 563/789/555 577/791/555 584/801/555
f 564/802/556 576/803/556 586/804/556
f 565/805/557 580/806/557 588/807/557
f 566/808/558 582/809/558 590/810/558
f 567/811/559 583/812/559 592/813/559
f 563/789/560 584/801/560 587/814/560
f 564/802/561 586/804/561 589/815/561
f 565/805/562 588/807/562 591/816/562
f 566/808/563 590/810/563 593/817/563
f 567/811/564 592/813/564 585/818/564
f 568/819/565 594/820/565 599/821/565
f 569/822/566 595/823/566 601/824/566
f 570/825/567 596/826/567 602/827/567
f 571/828/568 597/829/568 603/830/568
f 572/831/569 598/832/569 600/833/569
f 600/833/570 603/834/570 573/835/570
f 600/833/571 598/832/571 603/834/571
f 598/832/572 571/828/572 603/834/572
f 603/830/573 602/836/573 573/837/573
f 603/830/574 597/829/574 602/836/574
f 597/829/575 570/825/575 602/836/575
f 602/827/576 601/838/576 573/839/576
f 602/827/577 596/826/577 601/838/577
f 596/826/578 569/840/578 601/838/578
f 601/824/579 599/841/579 573/842/579
f 601/824/580 595/823/580 599/841/580
f 595/823/581 568/819/581 599/841/581
f 599/821/582 600/843/582 573/844/582
f 599/821/583 594/820/583 600/843/583
f 594/820/584 572/831/584 600/843/584
f 585/818/585 598/832/585 572/831/585
f 585/818/586 592/813/586 598/832/586
f 592/813/587 571/828/587 598/832/587
f 593/817/588 597/829/588 571/828/588
f 593/817/589 590/810/589 597/829/589
f 590/810/590 570/825/590 597/829/590
f 591/816/591 596/826/591 570/825/591
f 591/816/592 588/807/592 596/826/592
f 588/807/593 569/840/593 596/826/593
f 589/815/594 595/823/594 569/822/594
f 589/815/595 586/804/595 595/823/595
f 586/804/596 568/819/596 595/823/596
f 587/814/597 594/820/597 568/819/597
f 587/814/598 584/801/598 594/820/598
f 584/801/599 572/831/599 594/820/599
f 592/813/600 593/817/600 571/828/600
f 592/813/601 583/812/601 593/817/601
f 583/812/602 566/808/602 593/817/602
f 590/810/603 591/816/603 570/825/603
f 590/810/604 582/809/604 591/816/604
f 582/809/605 565/805/605 591/816/605
f 588/807/606 589/845/606 569/840/606
f 588/807/607 580/806/607 589/845/607
f 580/806/608 564/846/608 589/845/608
f 586/804/609 587/814/609 568/819/609
f 586/804/610 576/803/610 587/814/610
f 576/803/611 563/789/611 587/814/611
f 584/801/612 585/818/612 572/831/612
f 584/801/613 577/791/613 585/818/613
f 577/791/614 567/811/614 585/818/614
f 578/800/615 583/812/615 567/811/615
f 578/800/616 581/799/616 583/812/616
f 581/799/617 566/808/617 583/812/617
f 581/797/618 582/809/618 566/808/618
f 581/797/619 579/796/619 582/809/619
f 579/796/620 565/805/620 582/809/620
f 579/794/621 580/806/621 565/805/621
f 579/794/622 574/793/622 580/806/622
f 574/793/623 564/846/623 580/806/623
f 577/791/624 578/847/624 567/811/624
f 577/791/625 575/790/625 578/847/625
f 575/790/626 562/848/626 578/847/626
f 574/788/627 576/803/627 564/802/627
f 574/788/628 575/787/628 576/803/628
f 575/787/629 563/789/629 576/803/629
f 604/786/630 616/788/630 617/787/630
f 605/789/631 619/791/631 617/790/631
f 604/792/632 621/794/632 616/793/632
f 604/795/633 623/797/633 621/796/633
f 604/798/634 620/800/634 623/799/634
f 605/789/635 626/801/635 619/791/635
f 606/802/636 628/804/636 618/803/636
f 607/805/637 630/807/637 622/806/637
f 608/808/638 632/810/638 624/809/638
f 609/811/639 634/813/639 625/812/639
f 605/789/640 629/814/640 626/801/640
f 606/802/641 631/815/641 628/804/641
f 607/805/642 633/816/642 630/807/642
f 608/808/643 635/817/643 632/810/643
f 609/811/644 627/818/644 634/813/644
f 610/819/645 641/821/645 636/820/645
f 611/822/646 643/824/646 637/823/646
f 612/825/647 644/827/647 638/826/647
f 613/828/648 645/830/648 639/829/648
f 614/831/649 642/833/649 640/832/649
f 642/833/650 615/835/650 645/834/650
f 642/833/651 645/834/651 640/832/651
f 640/832/652 645/834/652 613/828/652
f 645/830/653 615/837/653 644/836/653
f 645/830/654 644/836/654 639/829/654
f 639/829/655 644/836/655 612/825/655
f 644/827/656 615/839/656 643/838/656
f 644/827/657 643/838/657 638/826/657
f 638/826/658 643/838/658 611/840/658
f 643/824/659 615/842/659 641/841/659
f 643/824/660 641/841/660 637/823/660
f 637/823/661 641/841/661 610/819/661
f 641/821/662 615/844/662 642/843/662
f 641/821/663 642/843/663 636/820/663
f 636/820/664 642/843/664 614/831/664
f 627/818/665 614/831/665 640/832/665
f 627/818/666 640/832/666 634/813/666
f 634/813/667 640/832/667 613/828/667
f 635/817/668 613/828/668 639/829/668
f 635/817/669 639/829/669 632/810/669
f 632/810/670 639/829/670 612/825/670
f 633/816/671 612/825/671 638/826/671
f 633/816/672 638/826/672 630/807/672
f 630/807/673 638/826/673 611/840/673
f 631/815/674 611/822/674 637/823/674
f 631/815/675 637/823/675 628/804/675
f 628/804/676 637/823/676 610/819/676
f 629/814/677 610/819/677 636/820/677
f 629/814/678 636/820/678 626/801/678
f 626/801/679 636/820/679 614/831/679
f 634/813/680 613/828/680 635/817/680
f 634/813/681 635/817/681 625/812/681
f 625/812/682 635/817/682 608/808/682
f 632/810/683 612/825/683 633/816/683
f 632/810/684 633/816/684 624/809/684
f 624/809/685 633/816/685 607/805/685
f 630/807/686 611/840/686 631/845/686
f 630/807/687 631/845/687 622/806/687
f 622/806/688 631/845/688 606/846/688
f 628/804/689 610/819/689 629/814/689
f 628/804/690 629/814/690 618/803/690
f 618/803/691 629/814/691 605/789/691
f 626/801/692 614/831/692 627/818/692
f 626/801/693 627/818/693 619/791/693
f 619/791/694 627/818/694 609/811/694
f 620/800/695 609/811/695 625/812/695
f 620/800/696 625/812/696 623/799/696
f 623/799/697 625/812/697 608/808/697
f 623/797/698 608/808/698 624/809/698
f 623/797/699 624/809/699 621/796/699
f 621/796/700 624/809/700 607/805/700
f 621/794/701 607/805/701 622/806/701
f 621/794/702 622/806/702 616/793/702
f 616/793/703 622/806/703 606/846/703
f 619/791/704 609/811/704 620/847/704
f 619/791/705 620/847/705 617/790/705
f 617/790/706 620/847/706 604/848/706
f 616/788/707 606/802/707 618/803/707
f 616/788/708 618/803/708 617/787/708
f 617/787/709 618/803/709 605/789/709
