# Blender 5.1.1
# www.blender.org
o Куб.001
v 0.565389 1.509919 0.891098
v 0.462932 2.721440 0.242402
v 0.626556 1.167466 0.077708
v 0.630985 2.389890 -0.200297
v 0.051368 1.019842 -0.014084
v 0.003540 2.481226 -0.395756
v 0.739234 1.780299 0.172027
v 0.637849 1.232220 0.464972
v 0.579630 2.561699 0.063736
v 0.682749 2.076909 0.624781
v 0.085539 1.453611 1.069397
v -0.094278 2.795460 0.246667
v 0.750906 1.823039 0.276967
v 0.041041 1.065530 0.538846
v -0.037046 2.682728 -0.012372
v 0.826709 0.226928 -0.314836
v 0.556224 2.247450 -0.437394
v 0.070568 1.042464 -0.281088
v 0.000351 2.269424 -0.627539
v 0.475491 1.225607 -0.563246
v 0.474178 2.058400 -0.671248
v 0.062709 2.800836 3.191147
v 0.080274 1.096387 -0.518416
v 0.001798 2.064489 -0.871542
v 0.575936 1.633397 -0.715254
v 0.038369 1.499826 -0.788861
v 0.062046 3.201328 3.199012
v 0.148237 3.574504 2.934588
v 0.479578 1.928750 1.292303
v 0.469285 2.936604 0.609484
v 0.144703 2.788113 2.988058
v 0.634430 2.300738 0.901944
v 0.097643 1.759238 1.445153
v -0.042809 3.051539 0.655541
v 0.035900 2.852826 3.417365
v 0.013147 3.019843 3.456662
v 0.021869 2.788626 3.316039
v 0.562423 3.201410 0.892565
v 0.501516 1.427226 1.299492
v 0.095778 1.833894 1.778699
v -0.046277 3.319213 0.956583
v 0.097501 3.406348 3.156769
v 0.106987 2.784806 3.105538
v 0.146500 3.732345 2.646750
v 0.579242 3.286405 1.071135
v 0.428707 1.405107 1.381501
v 0.092457 1.946424 1.898680
v -0.045289 3.418366 1.097208
v 0.157963 2.798997 2.867758
v 0.133035 3.800441 2.344409
v 0.141949 2.810214 2.721686
v 0.536316 3.363040 1.333320
v 0.741143 2.725297 1.651418
v 0.711197 1.952969 1.973767
v 0.072335 2.182177 1.989662
v -0.041036 3.500360 1.269644
v 0.130703 3.744460 2.007203
v 0.162599 2.824499 2.383662
v 0.426319 3.489646 1.619355
v 0.616725 2.724630 1.902836
v 0.542674 2.470967 2.004710
v 0.049714 2.406835 2.055648
v -0.050154 3.619984 1.548597
v 0.182060 3.581731 1.570480
v 0.297015 2.442134 2.032630
v 0.240933 3.455430 1.272406
v 0.472370 2.027612 1.902601
v 0.317197 3.683187 2.017533
v 0.433304 3.150248 2.345721
v 0.348779 2.855534 2.338426
v -0.020096 2.795480 2.399776
v -0.052407 3.755337 1.985544
v 0.279117 3.362054 1.073436
v 0.406155 1.980422 1.812727
v 0.271472 3.276084 0.900134
v 0.313757 3.742633 2.341260
v 0.404359 3.252622 2.573624
v 0.322307 2.851213 2.672303
v -0.035531 2.783537 2.717229
v -0.045650 3.809462 2.311151
v 0.392114 1.958891 1.718075
v 0.212534 3.008821 0.594809
v 0.376879 1.923411 1.475387
v 0.342774 3.543500 2.668219
v 0.426098 3.317852 2.699047
v 0.349452 2.838586 2.812084
v -0.033385 2.772247 2.858757
v -0.031372 3.755397 2.617110
v 0.294190 1.513796 -0.721763
v 0.205411 2.061557 -0.825171
v 0.343978 1.184477 -0.495310
v 0.219024 3.372022 3.107955
v 0.313818 3.111809 3.052616
v 0.246474 2.812340 3.059046
v -0.029923 2.769928 3.075053
v -0.021093 3.425665 3.125678
v 0.257103 2.224052 -0.645569
v 0.306166 1.118209 -0.240376
v 0.272395 2.637849 -0.023255
v 0.048019 3.016094 3.434146
v 0.102067 2.860528 3.376448
v 0.077722 2.812982 3.307549
v -0.025720 2.780749 3.327342
v 0.042724 2.966087 3.448932
v -0.023536 2.842943 3.415589
v 0.437241 3.380502 2.771885
v -0.031644 2.767764 2.970032
v 0.321772 2.820955 2.934881
v 0.343402 1.111674 0.463443
v -0.024243 3.603636 2.905848
v 0.374715 3.524628 2.759476
v 0.177508 2.762864 0.199258
v -0.022605 3.204777 3.199053
v 0.328701 1.461951 0.973627
v 0.319112 2.412499 -0.421842
v 0.379956 1.079744 0.026332
v 0.158584 2.822897 3.148194
v -0.028414 2.790643 3.152914
v 0.185437 2.986441 3.214908
v 0.152181 3.163116 3.181124
v 0.043417 2.793412 3.248469
v 0.045865 3.077179 3.346958
v 0.113190 2.809629 3.236593
v 0.136847 2.924300 3.295048
v -0.021879 3.084229 3.335402
v -0.027136 2.785202 3.236218
v 0.112466 3.060162 3.317441
v 0.604802 2.877486 0.761905
v 0.727321 2.336898 0.938335
v 0.633715 2.080952 1.238377
v 0.671527 3.099475 0.940648
v 0.829781 2.470861 1.325472
v 0.873483 1.995495 1.550147
v 0.641148 3.189670 1.101351
v 0.861225 2.578763 1.457450
v 0.935633 1.946975 1.712302
v 0.658701 3.148902 1.327919
v 0.832738 2.707255 1.612555
v 0.911603 1.955909 1.880148
v 0.408561 1.651287 1.368957
v 0.483595 1.696560 1.278013
v 0.841551 1.522290 1.680676
v 0.712051 1.489544 1.772720
v 0.852189 1.542165 1.552503
v 0.449415 1.547477 1.567050
v 0.806529 1.586057 1.436889
v 0.618078 1.714625 1.226377
v 0.494965 1.496402 1.692963
v 0.566368 1.497214 1.776118
v 0.813121 1.321302 1.573353
v 0.684627 1.307689 1.658157
v 0.437766 1.005059 1.122181
v 0.834151 1.338803 1.472471
v 0.445885 1.358313 1.508709
v 0.344724 0.987123 1.209749
v 0.793699 1.366380 1.382698
v 0.634095 1.427815 1.262087
v 0.481034 1.327780 1.614955
v 0.543974 1.315526 1.669767
v 0.391531 1.236163 1.285513
v 0.474895 1.252591 1.204499
v 0.797437 1.154665 1.440934
v 0.655115 1.144856 1.527427
v 0.791392 1.170537 1.356501
v 0.408957 1.195455 1.401311
v 0.754718 1.194817 1.274620
v 0.621498 1.249534 1.161080
v 0.442672 1.167903 1.497819
v 0.504332 1.155643 1.546336
v 0.813912 0.880774 1.356489
v 0.629136 0.868952 1.456870
v 0.630145 0.909080 1.334072
v 0.785358 0.908625 1.278062
v 0.362409 0.941700 1.332791
v 0.589111 0.943065 1.240359
v 0.747948 0.938775 1.192439
v 0.600152 1.000703 1.073788
v 0.399666 0.907140 1.432184
v 0.436892 0.884587 1.488823
v 0.366736 1.116615 1.251024
v 0.420880 1.043532 1.468934
v 0.384149 1.074141 1.370863
v 0.755517 1.071981 1.235576
v 0.792381 1.045465 1.320327
v 0.808439 1.076944 1.421135
v 0.653867 1.063311 1.513769
v 0.613359 1.129512 1.119421
v 0.456479 1.133315 1.166086
v 0.489125 1.078878 1.534330
v 0.678363 0.931809 1.608845
v 0.666794 0.818939 1.577616
v 0.822721 0.831431 1.486199
v 0.503413 0.833733 1.599801
v 0.828852 0.944689 1.520121
v 0.520363 0.946740 1.629607
v 0.785308 2.243815 -0.195542
v 0.815467 1.750034 0.062839
v 0.784582 1.186776 -0.004314
v 0.770246 2.133431 -0.416130
v 0.871923 1.692875 -0.424469
v 0.824929 1.195751 -0.263337
v 0.752571 1.989815 -0.609748
v 0.844789 1.663594 -0.647841
v 0.749210 1.230430 -0.537374
v 0.607467 -0.000258 -0.324488
v 0.525811 0.889692 -0.578864
v 0.654671 0.966410 0.031042
v 0.455888 0.942686 -0.031915
v 0.388739 0.914240 -0.290642
v 0.415118 0.892477 -0.529312
v 0.811841 0.924898 -0.290612
v 0.749691 0.892577 -0.544326
v 0.780862 0.959108 -0.046400
v 0.542261 0.695866 -0.524533
v 0.657095 0.514956 0.002423
v 0.476183 0.529513 -0.057862
v 0.416220 0.624544 -0.280426
v 0.441243 0.685381 -0.482584
v 0.801781 0.625775 -0.273301
v 0.746159 0.688430 -0.492029
v 0.772406 0.542228 -0.063722
v 0.544112 0.043646 -0.556275
v 0.676264 -0.024825 -0.106507
v 0.419815 -0.032075 -0.154042
v 0.402263 -0.002987 -0.346616
v 0.431374 0.034900 -0.520991
v 0.831222 0.002047 -0.345214
v 0.770733 0.037552 -0.531548
v 0.841048 -0.021098 -0.166814
v 0.834440 0.200470 -0.141072
v 0.397723 0.221985 -0.317203
v 0.426844 0.258184 -0.490825
v 0.413196 0.190831 -0.128995
v 0.669554 0.192269 -0.083219
v 0.539592 0.267394 -0.525863
v 0.766221 0.261399 -0.500910
v 0.795216 0.078904 -0.027506
v 0.801407 -0.033499 -0.027179
v 0.672808 -0.038199 0.031393
v 0.471841 -0.045276 -0.016885
v 0.465659 0.065694 -0.016595
v 0.666614 0.076976 0.030287
v 0.791044 0.444686 -0.290783
v 0.431570 0.441567 -0.292976
v 0.655524 0.392768 -0.065859
v 0.763171 0.404672 -0.120793
v 0.455582 0.485498 -0.454881
v 0.486983 0.395706 -0.113205
v 0.549975 0.494854 -0.487543
v 0.739958 0.488066 -0.463589
v 0.002363 1.918270 -0.931719
v 0.013791 1.643014 -0.929141
v 0.108997 1.658602 -0.886490
v 0.078856 1.911976 -0.904249
v 0.149336 1.639987 -0.821445
v 0.090822 2.008433 -0.876159
v 0.016342 1.620461 -0.874033
v 0.002060 2.016123 -0.909655
v 0.320875 3.657733 2.539750
v 0.432010 3.228106 2.680202
v 0.320984 3.523604 2.893321
v 0.442405 3.233939 2.878505
v 0.402590 3.586479 2.695098
v 0.480965 3.571350 2.716418
v 0.443776 3.595412 2.709613
v 0.508651 3.532715 2.717484
v 0.507518 3.440504 2.713177
v 0.521337 3.487654 2.716630
v 0.486385 3.543782 2.761356
v 0.427389 3.557258 2.761246
v 0.458055 3.561294 2.761965
v 0.498834 3.464621 2.762677
v 0.499157 3.527676 2.760531
v 0.509188 3.496723 2.760510
v 0.344903 3.531188 2.760374
v 0.431864 3.332374 2.773054
v 0.462732 3.585550 2.760675
v 0.501984 3.561520 2.760348
v 0.419151 3.579453 2.760198
v 0.520130 3.538879 2.759773
v 0.533918 3.496558 2.760234
v 0.519889 3.453371 2.762897
v 0.355659 3.510574 2.761051
v 0.421925 3.354927 2.771972
v 0.384739 3.506017 2.750042
v 0.429911 3.401282 2.759366
v 0.444878 3.532214 2.751920
v 0.465328 3.519315 2.751532
v 0.422759 3.529303 2.751437
v 0.474552 3.507496 2.750979
v 0.481802 3.484869 2.751019
v 0.474355 3.461189 2.752674
v 0.371049 3.494906 2.751467
v 0.418876 3.383057 2.759580
v 0.037714 3.025357 3.422213
v 0.033974 2.941298 3.448640
v 0.078123 3.022283 3.393507
v 0.073145 2.938143 3.420859
v -0.021720 2.942712 3.452500
v -0.021133 3.024351 3.427009
v 0.009491 2.969820 3.470729
v -0.020732 3.018246 3.456485
v -0.021095 2.969860 3.470662
v -0.457581 1.438905 0.890832
v -0.593996 2.602797 0.335200
v -0.541933 1.114949 -0.010745
v -0.613567 2.333948 -0.294529
v -0.709488 1.703418 0.091504
v -0.548067 1.165086 0.414508
v -0.641482 2.489269 0.010923
v -0.625111 1.959336 0.683782
v -0.727630 1.735941 0.218201
v -0.596120 0.162970 -0.422528
v -0.498944 2.204535 -0.509724
v -0.302093 1.190655 -0.622093
v -0.396106 2.031610 -0.716492
v -0.117979 2.803045 3.194063
v -0.428691 1.592612 -0.783981
v -0.107273 3.203399 3.201744
v -0.195858 3.577355 2.940089
v -0.335788 1.868610 1.328885
v -0.541877 2.855018 0.666940
v -0.206769 2.792410 2.993729
v -0.579145 2.207277 0.959556
v -0.082624 2.854276 3.419277
v -0.054539 3.020670 3.457754
v -0.073442 2.789792 3.317577
v -0.635524 3.116326 0.945838
v -0.289261 1.371061 1.334658
v -0.139051 3.409240 3.160586
v -0.165374 2.788136 3.109933
v -0.207445 3.731734 2.652237
v -0.648326 3.199217 1.125725
v -0.207105 1.359949 1.409775
v -0.223633 2.803663 2.873915
v -0.220766 3.790300 2.349390
v -0.212069 2.814542 2.727399
v -0.592547 3.283207 1.375056
v -0.677570 2.624534 1.714509
v -0.510627 1.866189 2.028101
v -0.232386 3.728837 2.011361
v -0.200628 2.823006 2.391003
v -0.499440 3.428328 1.626926
v -0.547295 2.650424 1.949435
v -0.435029 2.410507 2.043956
v -0.273797 3.551472 1.570845
v -0.195050 2.414037 2.051880
v -0.314717 3.416439 1.285444
v -0.293514 1.973713 1.936490
v -0.411819 3.652393 2.025877
v -0.464572 3.123805 2.363064
v -0.380432 2.848126 2.353312
v -0.361019 3.316658 1.100199
v -0.227935 1.935386 1.840925
v -0.358496 3.231341 0.928149
v -0.397163 3.723366 2.351208
v -0.462688 3.253389 2.587742
v -0.388999 2.857919 2.683870
v -0.219412 1.915458 1.745269
v -0.296935 2.968367 0.624047
v -0.219816 1.880870 1.502170
v -0.402021 3.543769 2.679829
v -0.485036 3.322574 2.713448
v -0.415694 2.847791 2.824408
v -0.165658 1.498408 -0.747730
v -0.191077 2.059479 -0.828833
v -0.182124 1.161390 -0.534182
v -0.263159 3.377665 3.115732
v -0.365750 3.120118 3.063581
v -0.305573 2.819090 3.067954
v -0.234831 2.218073 -0.655807
v -0.174281 1.096612 -0.276738
v -0.337863 2.602103 -0.050615
v -0.090200 3.017783 3.436376
v -0.149868 2.863609 3.380514
v -0.128928 2.815509 3.310884
v -0.085655 2.967657 3.451004
v -0.493523 3.385336 2.786614
v -0.384605 2.829592 2.946279
v -0.252818 1.078829 0.433535
v -0.430715 3.526892 2.772219
v -0.347650 2.696183 0.261149
v -0.172774 1.422889 0.982427
v -0.283011 2.390162 -0.459517
v -0.283582 1.049922 -0.023890
v -0.214622 2.827460 3.154216
v -0.235303 2.991585 3.221697
v -0.198846 3.167408 3.186789
v -0.097035 2.795129 3.250735
v -0.089368 3.078833 3.349140
v -0.166738 2.813052 3.241110
v -0.185687 2.928243 3.300252
v -0.157282 3.063460 3.321794
v -0.643242 2.782073 0.827843
v -0.668431 2.231696 1.006577
v -0.517228 1.999207 1.289559
v -0.724481 3.000324 1.002728
v -0.757869 2.358099 1.396075
v -0.714063 1.882740 1.620746
v -0.693055 3.094908 1.160684
v -0.792438 2.461311 1.530989
v -0.754180 1.826956 1.787448
v -0.684850 3.053580 1.385130
v -0.768775 2.593508 1.683774
v -0.716921 1.840243 1.952569
v -0.223074 1.606426 1.397046
v -0.311480 1.640091 1.313370
v -0.604298 1.419599 1.744972
v -0.463856 1.406026 1.825012
v -0.628911 1.436971 1.618368
v -0.231219 1.499135 1.597317
v -0.600290 1.486138 1.499451
v -0.451196 1.638681 1.273927
v -0.257808 1.442937 1.726439
v -0.320986 1.434190 1.815579
v -0.557392 1.223963 1.634300
v -0.421279 1.229142 1.707337
v -0.182510 0.961004 1.149765
v -0.589507 1.237689 1.535781
v -0.206208 1.311999 1.537708
v -0.080502 0.956922 1.228659
v -0.561438 1.270132 1.442961
v -0.423378 1.352708 1.309113
v -0.227176 1.277480 1.646449
v -0.282669 1.256815 1.706527
v -0.155094 1.197340 1.309821
v -0.246768 1.201335 1.236591
v -0.530116 1.060376 1.499971
v -0.380756 1.071284 1.573492
v -0.533852 1.076413 1.415435
v -0.156308 1.155308 1.426449
v -0.508346 1.105109 1.330789
v -0.394730 1.177357 1.206272
v -0.177142 1.123882 1.525383
v -0.231927 1.103351 1.579078
v -0.515185 0.786376 1.415594
v -0.322453 0.801367 1.499187
v -0.339954 0.840179 1.377212
v -0.497884 0.817484 1.335128
v -0.080666 0.910232 1.352495
v -0.312562 0.879024 1.280456
v -0.472811 0.852071 1.246726
v -0.346292 0.933483 1.115876
v -0.103750 0.871386 1.454570
v -0.132273 0.844163 1.514134
v -0.116827 1.082271 1.272529
v -0.140662 1.003650 1.493906
v -0.117422 1.038518 1.393168
v -0.495254 0.983146 1.291198
v -0.520379 0.952227 1.378706
v -0.531750 0.981758 1.480733
v -0.369229 0.990646 1.559266
v -0.373454 1.059425 1.163304
v -0.215176 1.085611 1.195955
v -0.207165 1.029424 1.565295
v -0.366437 0.857603 1.655307
v -0.341867 0.747300 1.622472
v -0.505455 0.737098 1.545263
v -0.180892 0.785131 1.630233
v -0.524480 0.848570 1.580304
v -0.210913 0.894802 1.662127
v -0.753199 2.174659 -0.312032
v -0.776000 1.676473 -0.053065
v -0.686925 1.120637 -0.115710
v -0.695375 2.067549 -0.527100
v -0.754934 1.619744 -0.547638
v -0.688529 1.127721 -0.377910
v -0.644346 1.931402 -0.708173
v -0.694438 1.595584 -0.762388
v -0.575891 1.170861 -0.637687
v -0.358535 -0.043682 -0.397588
v -0.319300 0.851697 -0.642828
v -0.544668 0.912505 -0.059743
v -0.337367 0.907033 -0.091954
v -0.229836 0.886434 -0.337454
v -0.218004 0.864013 -0.577225
v -0.647383 0.859305 -0.401073
v -0.545182 0.834367 -0.642343
v -0.656629 0.894497 -0.155217
v -0.326370 0.656815 -0.590273
v -0.502482 0.462838 -0.085343
v -0.316593 0.493881 -0.117856
v -0.232587 0.595379 -0.329521
v -0.232275 0.655101 -0.533552
v -0.613396 0.562162 -0.380422
v -0.531351 0.631001 -0.588728
v -0.608512 0.480159 -0.168247
v -0.265241 0.007260 -0.617515
v -0.456837 -0.075756 -0.192258
v -0.196544 -0.059778 -0.200669
v -0.152920 -0.027944 -0.388611
v -0.158760 0.008368 -0.565633
v -0.575938 -0.061207 -0.451716
v -0.491547 -0.019193 -0.627081
v -0.610355 -0.086337 -0.276665
v -0.627482 0.134758 -0.251724
v -0.172938 0.196332 -0.360374
v -0.178751 0.230958 -0.536641
v -0.213675 0.162655 -0.176421
v -0.473095 0.140910 -0.169697
v -0.285320 0.230308 -0.588286
v -0.511676 0.203952 -0.597629
v -0.595083 0.016414 -0.132732
v -0.591201 -0.096093 -0.132579
v -0.472963 -0.089696 -0.055317
v -0.267202 -0.078492 -0.072800
v -0.271057 0.032583 -0.072336
v -0.476972 0.025577 -0.056260
v -0.584043 0.382874 -0.394865
v -0.229492 0.411851 -0.342996
v -0.479775 0.341740 -0.151784
v -0.578573 0.344362 -0.222349
v -0.232725 0.454554 -0.506965
v -0.306975 0.360020 -0.173287
v -0.321592 0.455672 -0.553502
v -0.511646 0.431802 -0.558322
v -0.072086 1.656952 -0.889337
v -0.074325 1.911643 -0.904878
v -0.092922 1.636653 -0.827136
v -0.086940 2.008047 -0.876889
v -0.386652 3.652848 2.550545
v -0.492627 3.233977 2.694857
v -0.370994 3.528867 2.904364
v -0.497336 3.242457 2.893527
v -0.460342 3.587803 2.708773
v -0.537673 3.573917 2.732679
v -0.500751 3.597353 2.724704
v -0.565414 3.535838 2.734615
v -0.564956 3.444533 2.730142
v -0.578360 3.491341 2.734080
v -0.542035 3.546771 2.777710
v -0.483209 3.559461 2.775724
v -0.513699 3.563854 2.777432
v -0.554861 3.468387 2.779363
v -0.554880 3.530900 2.777280
v -0.565068 3.500275 2.777552
v -0.400507 3.533924 2.772144
v -0.488564 3.337976 2.787645
v -0.518238 3.588077 2.776332
v -0.557498 3.564585 2.777235
v -0.474857 3.581601 2.774429
v -0.575758 3.542225 2.777215
v -0.589777 3.500318 2.778065
v -0.575985 3.457350 2.780244
v -0.411806 3.512584 2.773188
v -0.478388 3.360246 2.786241
v -0.441142 3.508241 2.763105
v -0.486395 3.405639 2.773851
v -0.500996 3.534735 2.766931
v -0.521431 3.522261 2.767164
v -0.478991 3.531523 2.765757
v -0.530686 3.510634 2.766913
v -0.538020 3.488274 2.767188
v -0.530637 3.464911 2.768585
v -0.427448 3.497193 2.764088
v -0.475461 3.387711 2.773731
v -0.080062 3.026796 3.424114
v -0.077528 2.942661 3.450439
v -0.121440 3.024724 3.396727
v -0.117639 2.940476 3.423937
v -0.051655 2.970568 3.471716
v 0.266392 3.148763 3.078906
v 0.282323 3.218416 3.078260
v 0.245320 3.156468 3.120514
v 0.207414 3.117342 3.128044
v 0.220991 3.155108 3.090444
v 0.267287 3.217576 3.059676
v 0.233190 3.230043 3.127001
v 0.186894 3.167576 3.157768
v 0.171858 3.166736 3.139184
v 0.208862 3.228684 3.096931
v 0.246768 3.267811 3.089401
v 0.187790 3.236389 3.138539
v 0.260906 3.145599 3.098127
v 0.282656 3.182011 3.073292
v 0.270270 3.186541 3.097748
v 0.283182 3.222459 3.061989
v 0.273818 3.181518 3.062368
v 0.238625 3.122602 3.102554
v 0.226239 3.127131 3.127010
v 0.246606 3.144800 3.080453
v 0.211939 3.126331 3.109336
v 0.247132 3.185248 3.069150
v 0.271121 3.251986 3.079460
v 0.262284 3.251492 3.068537
v 0.241391 3.193375 3.126397
v 0.263141 3.229787 3.101561
v 0.191898 3.133660 3.148908
v 0.214178 3.156657 3.144482
v 0.191040 3.155365 3.115884
v 0.183060 3.133165 3.137985
v 0.240003 3.228494 3.072963
v 0.212791 3.191777 3.091048
v 0.242242 3.258820 3.108109
v 0.207049 3.199904 3.148294
v 0.170999 3.162694 3.155456
v 0.183911 3.198611 3.119697
v 0.227942 3.258021 3.090434
v 0.207575 3.240352 3.136992
v 0.215556 3.262550 3.114891
v 0.180363 3.203635 3.155076
v 0.171525 3.203140 3.144153
v 0.193275 3.239552 3.119317
v -0.316611 3.155891 3.088313
v -0.330848 3.225914 3.088155
v -0.294025 3.163063 3.129217
v -0.256864 3.123018 3.135536
v -0.270720 3.161121 3.098379
v -0.316444 3.224713 3.069096
v -0.279898 3.236317 3.135280
v -0.234174 3.172724 3.164563
v -0.219771 3.171524 3.145504
v -0.256593 3.234375 3.104442
v -0.293754 3.274419 3.098123
v -0.234007 3.241547 3.145346
v -0.310587 3.152587 3.107349
v -0.332230 3.189529 3.083214
v -0.318955 3.193745 3.107256
v -0.332132 3.229982 3.071918
v -0.323764 3.188824 3.072011
v -0.288744 3.129049 3.111064
v -0.275468 3.133265 3.135106
v -0.296888 3.151445 3.089223
v -0.261770 3.132123 3.116980
v -0.296790 3.191898 3.077927
v -0.318796 3.259199 3.088980
v -0.310329 3.258494 3.077777
v -0.289008 3.199860 3.134956
v -0.310651 3.236804 3.110820
v -0.240289 3.138944 3.155882
v -0.262132 3.162481 3.152168
v -0.239967 3.160635 3.122839
v -0.231823 3.138238 3.144679
v -0.288487 3.234956 3.081491
v -0.261610 3.197577 3.098703
v -0.288848 3.265315 3.116679
v -0.253828 3.205539 3.155731
v -0.218486 3.167455 3.161741
v -0.231663 3.203692 3.126403
v -0.275150 3.264173 3.098553
v -0.253730 3.245992 3.144436
v -0.261874 3.268388 3.122596
v -0.226854 3.208613 3.161648
v -0.218388 3.207908 3.150445
v -0.240031 3.244850 3.126310
vn -0.8558 -0.4680 0.2206
vn 0.4265 0.6700 -0.6076
vn 0.9828 -0.1847 -0.0055
vn 0.9800 0.1988 -0.0102
vn 0.9473 0.3072 0.0913
vn 0.9654 -0.0971 0.2421
vn 0.9582 -0.0874 0.2723
vn 0.5553 -0.5838 0.5923
vn 0.3464 -0.9304 0.1197
vn 0.3278 -0.7702 0.5471
vn 0.1318 0.8762 -0.4636
vn 0.0782 0.9035 -0.4214
vn 0.4017 0.6295 -0.6651
vn 0.1806 -0.3312 -0.9261
vn 0.2500 -0.9588 -0.1353
vn 0.6287 0.4439 0.6385
vn 0.2805 -0.0037 -0.9598
vn 0.0465 -0.4588 -0.8873
vn 0.2371 0.1658 -0.9572
vn 0.3281 -0.9245 -0.1940
vn 0.7801 0.5681 -0.2622
vn 0.9261 -0.0454 -0.3746
vn 0.0123 0.8477 -0.5304
vn 0.9661 0.2381 -0.0993
vn 0.5145 -0.7184 -0.4682
vn 0.0695 0.8585 -0.5081
vn -0.0225 0.7507 -0.6602
vn -0.8427 0.0682 -0.5340
vn 0.6202 -0.1549 -0.7690
vn 0.1361 0.9006 -0.4128
vn -0.9482 -0.2231 0.2263
vn 0.7769 0.0189 -0.6293
vn 0.0965 0.7408 -0.6647
vn 0.8113 0.1512 0.5647
vn -0.1064 -0.2071 0.9725
vn 0.3162 -0.7249 0.6120
vn 0.1697 -0.9818 0.0850
vn 0.2533 -0.7924 0.5549
vn 0.4836 -0.3877 0.7848
vn 0.7197 0.3386 -0.6061
vn 0.3520 0.8249 -0.4423
vn 0.8232 -0.1433 0.5494
vn 0.2138 -0.5981 0.7724
vn 0.2688 0.8467 -0.4592
vn 0.1656 0.9141 -0.3701
vn 0.1185 0.7431 -0.6586
vn 0.8789 0.3744 0.2956
vn 0.4886 -0.1501 0.8595
vn 0.8483 0.0596 -0.5262
vn 0.2445 -0.5231 -0.8165
vn 0.9802 0.1978 -0.0005
vn 0.9675 -0.0058 -0.2528
vn 0.1438 0.9393 -0.3116
vn 0.4500 -0.8790 0.1576
vn 0.9513 0.2826 0.1229
vn 0.2282 0.8276 -0.5128
vn 0.2146 0.8726 -0.4389
vn 0.9793 0.1984 -0.0404
vn 0.1970 0.7013 -0.6851
vn 0.0538 0.9795 0.1942
vn 0.1894 -0.9818 -0.0139
vn 0.9677 -0.2141 0.1328
vn 0.2862 0.9143 -0.2867
vn 0.0790 0.9832 -0.1644
vn 0.0042 0.7871 0.6168
vn 0.3281 -0.8085 0.4886
vn 0.8470 -0.1794 0.5004
vn 0.2010 -0.9785 0.0458
vn 0.1155 -0.2584 0.9591
vn 0.1811 -0.9774 -0.1089
vn 0.9317 -0.2660 -0.2473
vn 0.1085 -0.5479 0.8295
vn 0.8703 -0.4366 0.2281
vn 0.3230 -0.9383 0.1232
vn 0.1638 -0.6363 0.7539
vn 0.3611 0.8893 -0.2807
vn 0.3564 0.8821 -0.3079
vn 0.7620 0.2220 0.6083
vn 0.4057 0.8786 0.2517
vn 0.1518 -0.9879 -0.0312
vn 0.1845 -0.8250 0.5342
vn 0.8921 0.0858 0.4436
vn 0.3072 0.9375 -0.1632
vn 0.3877 0.6740 0.6289
vn 0.1098 -0.9939 0.0127
vn 0.4321 0.7174 0.5466
vn 0.1459 -0.9855 -0.0863
vn 0.5501 0.1856 0.8142
vn 0.1351 -0.9900 -0.0405
vn 0.3910 -0.8074 0.4419
vn -0.2911 -0.0936 0.9521
vn 0.0099 0.8307 0.5566
vn 0.1673 -0.9821 -0.0870
vn 0.9709 -0.2356 0.0436
vn 0.0420 -0.3402 0.9394
vn 0.0525 0.8801 0.4718
vn 0.6442 0.1518 0.7496
vn 0.1311 -0.9896 -0.0592
vn -0.1159 0.2696 0.9560
vn 0.4513 0.8127 0.3686
vn 0.3489 0.1707 0.9215
vn 0.0381 -0.9728 0.2286
vn 0.3264 -0.8661 0.3786
vn 0.7874 -0.2344 0.5702
vn 0.4209 0.6665 0.6153
vn 0.1353 -0.9881 -0.0731
vn 0.8573 0.1757 0.4838
vn 0.0029 0.7578 0.6524
vn 0.2107 -0.9765 -0.0451
vn 0.8815 -0.3173 0.3496
vn 0.8534 -0.3411 -0.3942
vn 0.9672 0.2087 -0.1448
vn 0.9428 0.0700 -0.3259
vn 0.9446 0.3247 -0.0476
vn 0.9541 -0.0273 -0.2981
vn 0.9844 0.1461 0.0979
vn 0.6768 0.5255 0.5156
vn 0.8599 0.5104 0.0072
vn -0.2311 -0.3244 0.9173
vn 0.4029 0.3417 0.8491
vn -0.3069 -0.1159 -0.9447
vn 0.9806 -0.1632 0.1089
vn -0.9870 -0.0536 0.1513
vn -0.9496 -0.0701 0.3055
vn 0.9272 0.0501 -0.3713
vn 0.5537 -0.4766 0.6829
vn 0.9692 -0.2226 0.1053
vn -0.7104 -0.2843 0.6439
vn -0.3679 0.0479 -0.9286
vn -0.9813 -0.1651 0.0993
vn 0.9784 -0.2024 0.0427
vn -0.9779 0.1090 0.1785
vn -0.9471 -0.0024 0.3210
vn 0.9161 0.0425 -0.3987
vn 0.4674 -0.5900 0.6584
vn 0.6657 0.3081 -0.6797
vn -0.7002 -0.2743 0.6591
vn 0.0165 -0.5209 0.8535
vn -0.7371 -0.0986 -0.6685
vn 0.6976 0.0305 -0.7158
vn -0.2596 0.3462 -0.9015
vn 0.9674 0.0733 -0.2423
vn -0.9776 0.1086 0.1806
vn -0.9301 0.0473 0.3641
vn 0.9227 0.0700 -0.3790
vn 0.9942 0.0306 -0.1027
vn -0.2381 0.4916 -0.8376
vn -0.6367 -0.3583 0.6828
vn 0.0419 -0.6237 0.7805
vn -0.6975 0.4427 -0.5635
vn -0.1278 -0.9362 -0.3274
vn -0.1086 -0.9462 -0.3048
vn -0.1143 -0.9499 -0.2908
vn -0.1247 -0.9351 -0.3318
vn -0.1244 -0.9443 -0.3047
vn -0.1108 -0.9502 -0.2914
vn -0.7569 0.0055 0.6535
vn -0.8723 0.0781 0.4827
vn -0.6810 0.3245 -0.6564
vn 0.6642 0.1921 -0.7225
vn 0.6757 0.2140 -0.7055
vn -0.6864 0.3231 -0.6515
vn 0.1083 -0.1700 0.9795
vn -0.6557 -0.0328 0.7543
vn 0.5195 -0.1451 0.8421
vn 0.9213 0.1190 -0.3703
vn -0.9278 0.0885 0.3624
vn -0.9697 0.1470 0.1953
vn 0.9877 0.0931 -0.1257
vn -0.2615 0.3323 -0.9062
vn 0.5041 -0.2753 0.8186
vn 0.1028 -0.2715 0.9569
vn 0.3741 0.5901 0.7155
vn -0.1279 -0.9298 -0.3451
vn 0.1571 0.5997 0.7846
vn -0.1320 -0.9292 -0.3451
vn 0.9890 0.1458 0.0233
vn 0.9580 -0.2053 -0.2003
vn 0.9893 -0.0609 0.1323
vn 0.9457 0.2516 -0.2059
vn 0.6169 -0.1805 0.7661
vn 0.5262 0.6964 -0.4880
vn 0.9883 -0.0532 0.1427
vn 0.3618 0.6929 -0.6237
vn -0.9668 -0.0712 0.2455
vn -0.3746 -0.2638 -0.8889
vn -0.3065 -0.0680 0.9494
vn 0.9913 -0.0256 0.1291
vn 0.1198 0.0423 -0.9919
vn -0.4347 -0.0129 -0.9005
vn -0.9515 -0.2697 -0.1481
vn -0.1545 -0.3358 0.9292
vn -0.3043 0.1219 -0.9447
vn -0.9325 -0.0627 0.3557
vn 0.9985 0.0306 -0.0455
vn -0.9864 0.0019 -0.1646
vn 0.5134 -0.0489 0.8567
vn 0.1472 -0.2515 -0.9566
vn 0.9676 -0.0600 -0.2451
vn -0.9847 -0.1206 -0.1255
vn -0.0091 -0.9930 -0.1177
vn 0.0422 -0.9895 -0.1382
vn 0.0271 -0.9795 -0.1995
vn -0.0066 -0.9828 -0.1847
vn -0.9961 -0.0347 0.0809
vn 0.9526 0.0134 0.3038
vn 0.1115 0.1365 -0.9843
vn 0.9526 0.0597 -0.2982
vn 0.9511 0.1683 -0.2592
vn 0.1200 0.1672 -0.9786
vn 0.3827 -0.0053 0.9238
vn -0.9486 0.2190 0.2286
vn -0.9810 0.1534 -0.1187
vn 0.9668 0.2343 0.1020
vn -0.2140 -0.0482 0.9756
vn -0.3201 0.1794 -0.9302
vn -0.2300 -0.0091 0.9732
vn 0.4114 0.0281 0.9110
vn -0.1673 0.6566 0.7355
vn 0.0532 -0.9930 -0.1053
vn 0.2613 0.6433 0.7196
vn -0.0095 -0.9955 -0.0939
vn -0.3367 -0.1680 -0.9265
vn -0.2858 -0.4251 0.8589
vn 0.9887 -0.0900 0.1198
vn -0.9843 -0.0825 -0.1563
vn -0.9643 -0.1292 0.2313
vn 0.4910 -0.3951 0.7764
vn 0.1345 -0.1589 -0.9781
vn 0.9600 -0.0505 -0.2753
vn 0.3783 -0.0059 -0.9256
vn 0.3014 -0.8639 -0.4036
vn 0.3540 0.2138 -0.9105
vn 0.2489 0.4653 -0.8494
vn 0.2990 -0.4342 -0.8497
vn 0.4856 -0.0723 -0.8712
vn 0.9611 0.2697 -0.0595
vn 0.9137 0.3874 0.1227
vn 0.9963 0.0579 -0.0635
vn 0.8966 0.3818 0.2243
vn -0.5773 0.7993 0.1669
vn 0.7728 0.5759 -0.2668
vn 0.8209 -0.5710 0.0061
vn 0.5349 0.8434 -0.0503
vn -0.2055 0.9576 0.2021
vn 0.9114 0.2775 -0.3040
vn 0.9397 -0.2881 -0.1841
vn 0.2599 0.0282 -0.9652
vn -0.0428 0.0290 0.9987
vn 0.0366 0.0370 0.9986
vn -0.0227 0.0485 0.9986
vn 0.0196 0.0124 0.9997
vn 0.0159 0.0589 0.9981
vn 0.0471 0.0015 0.9989
vn -0.0086 -0.0062 0.9999
vn 0.0712 0.0421 0.9966
vn 0.0069 0.0510 0.9987
vn 0.0421 0.0547 0.9976
vn 0.1878 -0.3564 0.9152
vn -0.0193 0.0720 0.9972
vn 0.3006 -0.2825 0.9109
vn -0.3883 0.3787 0.8401
vn -0.3935 0.1873 0.9001
vn -0.1439 -0.2621 0.9543
vn 0.7184 0.3492 0.6015
vn -0.2033 -0.2073 0.9569
vn -0.5001 0.3064 0.8100
vn 0.0226 -0.3350 0.9420
vn 0.3361 0.8622 0.3791
vn 0.5405 -0.2004 0.8171
vn 0.5346 -0.2662 0.8021
vn -0.0103 0.2762 0.9610
vn 0.0261 -0.5784 0.8154
vn -0.0191 0.9849 0.1718
vn 0.7645 0.1391 0.6294
vn 0.8512 -0.3912 0.3499
vn -0.4106 0.6504 -0.6390
vn -0.9580 -0.2868 0.0008
vn -0.9881 0.0715 -0.1364
vn -0.9825 0.1340 0.1294
vn -0.9372 -0.1900 0.2924
vn -0.9070 -0.1776 0.3818
vn -0.4245 -0.6473 0.6331
vn -0.2634 -0.9602 0.0933
vn -0.2443 -0.8120 0.5300
vn -0.1709 0.8649 -0.4719
vn -0.2747 0.8932 -0.3559
vn -0.4282 0.5924 -0.6824
vn -0.0003 -0.3276 -0.9448
vn -0.1403 -0.9763 -0.1648
vn -0.7592 0.3813 0.5275
vn -0.1621 -0.0123 -0.9867
vn 0.1500 -0.4300 -0.8903
vn -0.0882 0.1637 -0.9826
vn -0.2178 -0.9489 -0.2285
vn -0.8725 0.4508 -0.1887
vn -0.9398 -0.1780 -0.2916
vn -0.2739 0.8102 -0.5183
vn -0.9921 0.0938 0.0830
vn -0.4621 -0.7867 -0.4093
vn -0.2327 0.8371 -0.4950
vn -0.1520 0.7350 -0.6608
vn 0.7774 0.1773 -0.6035
vn -0.6888 -0.2340 -0.6862
vn -0.2867 0.8698 -0.4015
vn 0.9864 -0.0857 0.1402
vn -0.8244 -0.0948 -0.5581
vn -0.0831 0.7375 -0.6702
vn -0.7979 0.0231 0.6024
vn 0.2166 -0.1665 0.9620
vn -0.1524 -0.7550 0.6378
vn -0.0823 -0.9938 0.0750
vn -0.1718 -0.8060 0.5665
vn -0.3528 -0.4471 0.8220
vn -0.8188 0.2078 -0.5352
vn -0.3780 0.8048 -0.4576
vn -0.8476 -0.2455 0.4704
vn -0.1169 -0.5997 0.7917
vn -0.3950 0.8800 -0.2638
vn -0.2976 0.8764 -0.3787
vn -0.1199 0.7419 -0.6597
vn -0.9117 0.2385 0.3346
vn -0.5968 -0.1989 0.7773
vn -0.9448 -0.0284 -0.3265
vn -0.1195 -0.5461 -0.8292
vn -0.9937 0.1115 -0.0108
vn -0.9141 -0.0904 -0.3952
vn -0.2528 0.9149 -0.3148
vn -0.2950 -0.9389 0.1771
vn -0.9871 0.1259 0.0988
vn -0.4343 0.7487 -0.5009
vn -0.3737 0.8304 -0.4132
vn -0.9825 0.1863 -0.0076
vn -0.3601 0.6440 -0.6750
vn -0.0808 0.9794 0.1849
vn -0.1878 -0.9822 -0.0037
vn -0.9737 -0.2233 0.0443
vn -0.4354 0.8613 -0.2619
vn -0.1551 0.9740 -0.1653
vn 0.0307 0.7879 0.6151
vn -0.1668 -0.8442 0.5094
vn -0.8334 -0.1595 0.5291
vn -0.2233 -0.9733 0.0526
vn -0.0034 -0.2628 0.9648
vn -0.2060 -0.9736 -0.0987
vn -0.9367 -0.2510 -0.2441
vn 0.0424 -0.5531 0.8321
vn -0.8729 -0.4153 0.2562
vn -0.3417 -0.9302 0.1340
vn -0.0755 -0.6528 0.7537
vn -0.5003 0.8126 -0.2989
vn -0.4630 0.8252 -0.3235
vn -0.7372 0.2370 0.6327
vn -0.4258 0.8712 0.2442
vn -0.1618 -0.9861 -0.0374
vn -0.1872 -0.8204 0.5402
vn -0.8750 0.1074 0.4721
vn -0.3751 0.9118 -0.1672
vn -0.3547 0.6821 0.6395
vn -0.1336 -0.9909 0.0166
vn -0.3965 0.7275 0.5599
vn -0.1727 -0.9816 -0.0812
vn -0.5189 0.1987 0.8314
vn -0.1605 -0.9864 -0.0357
vn -0.3962 -0.7978 0.4546
vn 0.3206 -0.0963 0.9423
vn 0.0283 0.8305 0.5563
vn -0.1938 -0.9777 -0.0807
vn -0.9740 -0.2144 0.0737
vn -0.0200 -0.3395 0.9404
vn -0.0331 0.8823 0.4695
vn -0.6157 0.1669 0.7701
vn -0.1571 -0.9861 -0.0545
vn 0.1532 0.2663 0.9516
vn -0.4386 0.8175 0.3733
vn -0.3145 0.1788 0.9323
vn -0.0544 -0.9716 0.2301
vn -0.3351 -0.8580 0.3893
vn -0.7740 -0.2153 0.5954
vn -0.3845 0.6764 0.6283
vn -0.1617 -0.9845 -0.0683
vn -0.8367 0.1965 0.5111
vn 0.0367 0.7574 0.6519
vn -0.2359 -0.9710 -0.0379
vn -0.8773 -0.2958 0.3780
vn -0.8277 -0.4593 -0.3224
vn -0.9959 0.0693 -0.0575
vn -0.9660 -0.0717 -0.2484
vn -0.9815 0.1876 0.0377
vn -0.9633 -0.1635 -0.2128
vn -0.9826 0.0064 0.1854
vn -0.6852 0.4362 0.5833
vn -0.9172 0.3884 0.0889
vn 0.3563 -0.2818 0.8909
vn -0.3705 0.2868 0.8835
vn 0.2355 -0.0773 -0.9688
vn -0.9343 -0.2992 0.1941
vn 0.9942 0.0871 0.0632
vn 0.9732 0.0665 0.2199
vn -0.9541 -0.0835 -0.2876
vn -0.4185 -0.5456 0.7261
vn -0.9150 -0.3564 0.1891
vn 0.7939 -0.1768 0.5818
vn 0.2721 0.0924 -0.9578
vn 0.9996 -0.0266 0.0131
vn -0.9324 -0.3381 0.1276
vn 0.9646 0.2470 0.0921
vn 0.9626 0.1333 0.2361
vn -0.9445 -0.0896 -0.3160
vn -0.3196 -0.6459 0.6934
vn -0.7599 0.2068 -0.6163
vn 0.7874 -0.1686 0.5930
vn 0.1326 -0.5126 0.8483
vn 0.6817 0.0022 -0.7316
vn -0.7554 -0.0727 -0.6512
vn 0.1275 0.3737 -0.9187
vn -0.9857 -0.0654 -0.1554
vn 0.9645 0.2465 0.0942
vn 0.9427 0.1803 0.2808
vn -0.9532 -0.0632 -0.2956
vn -0.9938 -0.1106 -0.0143
vn 0.0915 0.5151 -0.8523
vn 0.7387 -0.2607 0.6216
vn 0.1156 -0.6185 0.7773
vn 0.5755 0.5331 -0.6201
vn 0.2291 -0.9109 -0.3432
vn 0.2136 -0.9233 -0.3191
vn 0.2211 -0.9261 -0.3057
vn 0.2255 -0.9102 -0.3474
vn 0.2289 -0.9192 -0.3205
vn 0.2175 -0.9269 -0.3060
vn 0.8033 0.1163 0.5842
vn 0.8917 0.2034 0.4043
vn 0.5678 0.4132 -0.7120
vn -0.7458 0.0920 -0.6598
vn -0.7587 0.1121 -0.6417
vn 0.5737 0.4126 -0.7075
vn 0.0037 -0.1775 0.9841
vn 0.7178 0.0648 0.6933
vn -0.4174 -0.2116 0.8837
vn -0.9579 -0.0145 -0.2867
vn 0.9344 0.2207 0.2795
vn 0.9526 0.2836 0.1098
vn -0.9982 -0.0479 -0.0374
vn 0.1309 0.3601 -0.9237
vn -0.3859 -0.3385 0.8582
vn 0.0215 -0.2773 0.9605
vn -0.3889 0.5359 0.7494
vn 0.2268 -0.9046 -0.3609
vn -0.1702 0.5765 0.7992
vn 0.2308 -0.9035 -0.3613
vn -0.9909 0.0553 -0.1229
vn -0.8955 -0.2893 -0.3383
vn -0.9888 -0.1483 -0.0157
vn -0.9309 0.1615 -0.3277
vn -0.7268 -0.2549 0.6378
vn -0.5133 0.6484 -0.5622
vn -0.9898 -0.1421 -0.0070
vn -0.3410 0.6646 -0.6649
vn 0.9214 0.0137 0.3884
vn 0.5259 -0.2234 -0.8207
vn 0.1652 -0.0467 0.9852
vn -0.9932 -0.1148 -0.0212
vn 0.0274 0.0381 -0.9989
vn 0.5715 0.0345 -0.8199
vn 0.9844 -0.1759 -0.0071
vn 0.0425 -0.3270 0.9441
vn 0.4307 0.1549 -0.8891
vn 0.8703 0.0183 0.4922
vn -0.9790 -0.0583 -0.1952
vn 0.9957 0.0910 -0.0146
vn -0.6299 -0.1003 0.7702
vn 0.0212 -0.2572 -0.9661
vn -0.9106 -0.1445 -0.3873
vn 0.9992 -0.0315 0.0247
vn 0.1153 -0.9874 -0.1083
vn 0.0674 -0.9884 -0.1363
vn 0.0907 -0.9767 -0.1947
vn 0.1219 -0.9770 -0.1749
vn 0.9717 0.0538 0.2299
vn -0.9848 -0.0737 0.1571
vn 0.0259 0.1326 -0.9908
vn -0.8985 -0.0235 -0.4384
vn -0.9125 0.0845 -0.4003
vn 0.0140 0.1624 -0.9866
vn -0.5152 -0.0456 0.8559
vn 0.8801 0.3012 0.3670
vn 0.9701 0.2411 0.0290
vn -0.9881 0.1464 -0.0461
vn 0.0684 -0.0355 0.9970
vn 0.4390 0.2135 -0.8728
vn 0.0810 0.0049 0.9967
vn -0.5445 -0.0148 0.8386
vn -0.0044 0.6639 0.7478
vn 0.0521 -0.9931 -0.1054
vn -0.4228 0.6126 0.6678
vn 0.1122 -0.9901 -0.0847
vn 0.4857 -0.1311 -0.8642
vn 0.1903 -0.4036 0.8949
vn -0.9835 -0.1787 -0.0295
vn 1.0000 0.0067 -0.0061
vn 0.9262 -0.0442 0.3744
vn -0.5649 -0.4426 0.6964
vn 0.0288 -0.1637 -0.9861
vn -0.8994 -0.1341 -0.4161
vn -0.3806 -0.0414 -0.9238
vn -0.2995 -0.8802 -0.3682
vn -0.3474 0.2122 -0.9134
vn -0.2485 0.4709 -0.8465
vn -0.2580 -0.4818 -0.8374
vn -0.5377 -0.1282 -0.8334
vn -0.9599 0.2802 -0.0117
vn -0.9091 0.3880 0.1514
vn -0.9968 0.0714 -0.0363
vn -0.8843 0.3957 0.2480
vn 0.5843 0.8012 0.1295
vn -0.7746 0.5816 -0.2485
vn -0.8207 -0.5704 0.0334
vn -0.5275 0.8486 -0.0404
vn 0.2228 0.9567 0.1871
vn -0.9165 0.2850 -0.2809
vn -0.9456 -0.2833 -0.1600
vn -0.2923 0.0306 -0.9558
vn 0.0733 0.0294 0.9969
vn -0.0039 0.0356 0.9994
vn 0.0556 0.0469 0.9973
vn 0.0126 0.0113 0.9999
vn 0.0163 0.0584 0.9982
vn -0.0147 0.0002 0.9999
vn 0.0410 -0.0073 0.9991
vn -0.0391 0.0435 0.9983
vn 0.0254 0.0513 0.9984
vn -0.0102 0.0543 0.9985
vn -0.1575 -0.3562 0.9210
vn 0.0512 0.0732 0.9960
vn -0.2743 -0.2819 0.9194
vn 0.4157 0.3810 0.8259
vn 0.4220 0.1859 0.8873
vn 0.1711 -0.2660 0.9487
vn -0.7019 0.3605 0.6144
vn 0.2328 -0.2106 0.9495
vn 0.5250 0.3091 0.7930
vn 0.0029 -0.3369 0.9415
vn -0.3025 0.8700 0.3894
vn -0.5186 -0.1875 0.8342
vn -0.5148 -0.2534 0.8190
vn 0.0481 0.2755 0.9601
vn -0.0139 -0.5779 0.8160
vn 0.0487 0.9841 0.1707
vn -0.7402 0.1575 0.6537
vn 0.8944 -0.4057 0.1885
vn 0.9986 0.0019 0.0532
vn 0.7240 -0.6833 0.0942
vn 0.0900 -0.7187 -0.6894
vn 0.0214 -0.4544 -0.8905
vn 0.9423 0.3099 0.1268
vn 0.6990 -0.0394 0.7140
vn 0.3489 -0.5945 0.7245
vn -0.6222 -0.2833 -0.7297
vn -0.4353 0.0076 -0.9002
vn 0.8038 0.2489 0.5403
vn 0.6085 -0.0613 0.7912
vn -0.3997 -0.8423 0.3615
vn -0.6424 -0.1312 -0.7550
vn -0.3701 0.1833 -0.9107
vn 0.4647 0.3791 0.8002
vn 0.2601 0.1187 0.9583
vn -0.9986 -0.0019 -0.0532
vn -0.7681 0.1700 -0.6173
vn -0.4437 0.8137 -0.3754
vn -0.7240 0.6833 -0.0942
vn -0.6826 0.5743 -0.4520
vn -0.7009 0.3140 -0.6404
vn -0.8944 0.4057 -0.1885
vn -0.8606 0.1925 -0.4715
vn -0.8867 0.0546 -0.4592
vn -0.7079 0.4396 0.5528
vn -0.7685 0.1815 0.6136
vn -0.1574 0.0451 0.9865
vn -0.0214 0.4544 0.8905
vn 0.2715 0.2557 0.9278
vn 0.4344 0.2372 0.8689
vn -0.0900 0.7187 0.6894
vn 0.2730 0.6277 0.7290
vn 0.2377 0.8518 0.4669
vn -0.3489 0.5945 -0.7244
vn -0.4723 0.2979 -0.8296
vn -0.5948 0.2153 -0.7745
vn -0.6990 0.0394 -0.7140
vn -0.7097 -0.0551 -0.7023
vn -0.7877 -0.0759 -0.6114
vn -0.9423 -0.3099 -0.1267
vn -0.6257 -0.5704 0.5321
vn -0.0601 -0.2606 0.9636
vn 0.4353 -0.0076 0.9002
vn 0.5396 0.0147 0.8418
vn 0.5491 0.1092 0.8286
vn 0.6223 0.2833 0.7297
vn 0.6981 0.3633 0.6170
vn 0.6082 0.6480 0.4585
vn -0.6085 0.0613 -0.7911
vn -0.5396 -0.0147 -0.8418
vn -0.5491 -0.1092 -0.8286
vn -0.8038 -0.2489 -0.5403
vn -0.6981 -0.3633 -0.6170
vn -0.6082 -0.6480 -0.4585
vn 0.3701 -0.1833 0.9107
vn 0.4723 -0.2979 0.8296
vn 0.5948 -0.2153 0.7745
vn 0.6424 0.1312 0.7550
vn 0.7097 0.0551 0.7023
vn 0.7877 0.0759 0.6114
vn 0.3997 0.8423 -0.3615
vn 0.6257 0.5704 -0.5321
vn 0.0601 0.2606 -0.9636
vn -0.2601 -0.1187 -0.9583
vn -0.2715 -0.2557 -0.9278
vn -0.4344 -0.2372 -0.8689
vn -0.4647 -0.3791 -0.8002
vn -0.2730 -0.6277 -0.7290
vn -0.2377 -0.8518 -0.4668
vn 0.4437 -0.8137 0.3754
vn 0.6826 -0.5743 0.4520
vn 0.7009 -0.3140 0.6404
vn 0.1574 -0.0451 -0.9865
vn 0.7685 -0.1815 -0.6136
vn 0.7079 -0.4396 -0.5528
vn 0.7681 -0.1700 0.6173
vn 0.8606 -0.1925 0.4715
vn 0.8867 -0.0546 0.4592
vn -0.8975 -0.3838 0.2174
vn -0.9960 0.0263 0.0854
vn -0.7371 -0.6654 0.1178
vn -0.1297 -0.7161 -0.6859
vn -0.0612 -0.4534 -0.8892
vn -0.9299 0.3328 0.1570
vn -0.6764 -0.0226 0.7362
vn -0.3398 -0.5861 0.7356
vn 0.5913 -0.2982 -0.7493
vn 0.4061 -0.0027 -0.9138
vn -0.7797 0.2683 0.5658
vn -0.5840 -0.0467 0.8104
vn 0.3905 -0.8520 0.3487
vn 0.6143 -0.1466 -0.7753
vn 0.3449 0.1746 -0.9223
vn -0.4292 0.3901 0.8146
vn -0.2261 0.1246 0.9661
vn 0.9960 -0.0263 -0.0854
vn 0.7517 0.1514 -0.6418
vn 0.4511 0.8028 -0.3899
vn 0.7371 0.6655 -0.1178
vn 0.6815 0.5576 -0.4740
vn 0.6873 0.2971 -0.6628
vn 0.8975 0.3838 -0.2174
vn 0.8494 0.1716 -0.4991
vn 0.8725 0.0331 -0.4875
vn 0.7359 0.4220 0.5295
vn 0.7921 0.1624 0.5884
vn 0.1902 0.0409 0.9809
vn 0.0612 0.4534 0.8892
vn -0.2352 0.2619 0.9360
vn -0.4002 0.2474 0.8824
vn 0.1298 0.7160 0.6859
vn -0.2339 0.6339 0.7372
vn -0.2016 0.8572 0.4739
vn 0.3398 0.5861 -0.7356
vn 0.4524 0.2866 -0.8445
vn 0.5746 0.2010 -0.7934
vn 0.6764 0.0226 -0.7362
vn 0.6852 -0.0721 -0.7248
vn 0.7655 -0.0949 -0.6364
vn 0.9298 -0.3328 -0.1570
vn 0.6285 -0.5857 0.5118
vn 0.0848 -0.2624 0.9612
vn -0.4061 0.0027 0.9138
vn -0.5116 0.0276 0.8588
vn -0.5192 0.1222 0.8458
vn -0.5913 0.2982 0.7493
vn -0.6687 0.3800 0.6391
vn -0.5771 0.6625 0.4776
vn 0.5840 0.0468 -0.8104
vn 0.5116 -0.0276 -0.8588
vn 0.5192 -0.1222 -0.8458
vn 0.7797 -0.2683 -0.5658
vn 0.6687 -0.3800 -0.6391
vn 0.5770 -0.6625 -0.4776
vn -0.3449 -0.1746 0.9223
vn -0.4524 -0.2866 0.8445
vn -0.5746 -0.2010 0.7934
vn -0.6143 0.1466 0.7753
vn -0.6852 0.0721 0.7248
vn -0.7654 0.0949 0.6365
vn -0.3905 0.8520 -0.3488
vn -0.6284 0.5858 -0.5118
vn -0.0848 0.2624 -0.9612
vn 0.2261 -0.1246 -0.9661
vn 0.2351 -0.2619 -0.9360
vn 0.4002 -0.2474 -0.8824
vn 0.4292 -0.3901 -0.8146
vn 0.2339 -0.6339 -0.7372
vn 0.2016 -0.8572 -0.4739
vn -0.4511 -0.8028 0.3899
vn -0.6815 -0.5576 0.4740
vn -0.6873 -0.2970 0.6628
vn -0.1902 -0.0409 -0.9809
vn -0.7921 -0.1624 -0.5884
vn -0.7359 -0.4220 -0.5295
vn -0.7517 -0.1514 0.6418
vn -0.8494 -0.1716 0.4991
vn -0.8725 -0.0331 0.4875
vt 0.833374 0.494548
vt 0.893919 0.512741
vt 0.908415 0.468160
vt 0.848637 0.467455
vt 0.567859 0.867914
vt 0.639317 0.828812
vt 0.620915 0.894044
vt 0.556155 0.927906
vt 0.812683 0.509803
vt 0.774909 0.642712
vt 0.751394 0.643294
vt 0.751725 0.493743
vt 0.828812 0.793372
vt 0.751727 0.811870
vt 0.672932 0.807420
vt 0.672336 0.642732
vt 0.672998 0.503429
vt 0.598676 0.643182
vt 0.594201 0.530171
vt 0.560191 0.672195
vt 0.619753 0.672998
vt 0.599703 0.594201
vt 0.569702 0.558226
vt 0.580250 0.833374
vt 0.635423 0.812683
vt 0.637090 0.751725
vt 0.569078 0.759035
vt 0.500000 0.859251
vt 0.500000 0.750726
vt 0.569078 0.758996
vt 0.500000 0.657595
vt 0.560191 0.671923
vt 0.604420 0.951058
vt 0.545714 0.976119
vt 0.604420 0.548422
vt 0.626365 0.643481
vt 0.688416 0.643970
vt 0.666902 0.547256
vt 0.500000 0.917421
vt 0.563590 0.893919
vt 0.639317 0.793372
vt 0.659328 0.642712
vt 0.676970 0.643370
vt 0.671449 0.761101
vt 0.555994 0.632181
vt 0.545714 0.747180
vt 0.604420 0.735145
vt 0.572975 0.538591
vt 0.666902 0.715601
vt 0.500000 0.969030
vt 0.572975 0.947229
vt 0.501290 0.830086
vt 0.457158 0.830118
vt 0.460328 0.806630
vt 0.500288 0.803578
vt 0.499838 0.512886
vt 0.460007 0.507514
vt 0.481582 0.413128
vt 0.510774 0.417065
vt 0.500000 0.559830
vt 0.556447 0.575135
vt 0.579931 0.796381
vt 0.599703 0.530171
vt 0.637090 0.643182
vt 0.659115 0.643738
vt 0.643940 0.535244
vt 0.564556 0.492909
vt 0.500000 0.477524
vt 0.500000 0.432743
vt 0.566016 0.447361
vt 0.569702 0.518348
vt 0.616981 0.429733
vt 0.594994 0.421068
vt 0.612448 0.796381
vt 0.637526 0.771615
vt 0.500000 0.371229
vt 0.561082 0.382998
vt 0.450625 0.491920
vt 0.495971 0.498202
vt 0.507939 0.406303
vt 0.474705 0.401699
vt 0.591615 0.535244
vt 0.575831 0.433451
vt 0.407144 0.499901
vt 0.406490 0.640437
vt 0.358675 0.605643
vt 0.363238 0.556600
vt 0.578790 0.420824
vt 0.621227 0.407144
vt 0.601979 0.363238
vt 0.551080 0.357545
vt 0.500000 0.657756
vt 0.500000 0.571782
vt 0.667216 0.508652
vt 0.621227 0.499901
vt 0.632756 0.407548
vt 0.666461 0.413961
vt 0.556577 0.771615
vt 0.637090 0.751727
vt 0.260484 0.580516
vt 0.278839 0.520364
vt 0.582070 0.278839
vt 0.540875 0.268345
vt 0.619753 0.672932
vt 0.500000 0.307117
vt 0.551080 0.314473
vt 0.500000 0.983839
vt 0.393435 0.816867
vt 0.325561 0.763148
vt 0.671449 0.517077
vt 0.635423 0.509803
vt 0.642381 0.470278
vt 0.671266 0.470798
vt 0.988807 0.740196
vt 1.002924 0.661469
vt 1.015365 0.669173
vt 1.001496 0.721513
vt 0.500000 0.531683
vt 0.500000 0.631036
vt 0.249130 0.712570
vt 0.191059 0.679456
vt 0.198981 0.567653
vt 0.945839 0.547256
vt 0.886123 0.529161
vt 0.904522 0.470747
vt 0.963512 0.471464
vt 0.500000 0.238897
vt 0.540875 0.239236
vt 0.564556 0.495971
vt 0.612448 0.579931
vt 0.628268 0.501290
vt 0.631115 0.457158
vt 0.168698 0.648799
vt 0.177283 0.553376
vt 0.539817 0.181283
vt 0.500000 0.184290
vt 0.500000 0.144817
vt 0.539817 0.140934
vt 0.580006 0.205473
vt 0.539817 0.196322
vt 0.205473 0.476864
vt 0.621491 0.393435
vt 0.538703 0.608225
vt 0.500000 0.615960
vt 0.500000 0.567098
vt 0.526605 0.560962
vt 0.566016 0.450625
vt 0.149293 0.452102
vt 0.133162 0.541160
vt 0.103583 0.505809
vt 0.123733 0.441345
vt 0.539531 0.141037
vt 0.579447 0.149293
vt 0.562090 0.123733
vt 0.530633 0.116366
vt 0.500000 0.385014
vt 0.500000 0.353218
vt 0.586057 0.174337
vt 0.542919 0.165879
vt 0.174337 0.464471
vt 0.086614 0.427976
vt 0.065909 0.448336
vt 0.053210 0.428901
vt 0.071388 0.423606
vt 0.515797 0.085531
vt 0.531484 0.086614
vt 0.523242 0.071388
vt 0.510720 0.071544
vt 0.500000 0.266808
vt 0.601979 0.325561
vt 0.582070 0.249130
vt 0.108290 0.599988
vt 0.073849 0.556649
vt 0.580006 0.679456
vt 0.539817 0.690304
vt 0.539817 0.657159
vt 0.579599 0.648799
vt 0.500000 0.199929
vt 0.513331 0.045311
vt 0.500000 0.046647
vt 0.500000 0.069896
vt 0.051602 0.475706
vt 0.038205 0.462176
vt 0.038356 0.442272
vt 0.580006 0.191059
vt 0.577833 0.599988
vt 0.554232 0.556649
vt 0.500000 0.147087
vt 0.500000 0.124516
vt 0.530339 0.475706
vt 0.515210 0.477146
vt 0.513246 0.460736
vt 0.522445 0.462176
vt 0.500000 0.170521
vt 0.515546 0.457928
vt 0.507613 0.457080
vt 0.506877 0.445401
vt 0.514439 0.446199
vt 0.500000 0.089031
vt 0.528336 0.053210
vt 0.620841 0.601238
vt 0.618568 0.607555
vt 0.613078 0.604170
vt 0.614718 0.599612
vt 0.500000 0.479371
vt 0.500000 0.460095
vt 0.513331 0.424258
vt 0.512541 0.440917
vt 0.500000 0.440864
vt 0.500000 0.422187
vt 0.500000 0.664242
vt 0.576432 0.505809
vt 0.539481 0.507406
vt 0.547321 0.467354
vt 0.500000 0.513551
vt 0.519044 0.508271
vt 0.579599 0.168698
vt 0.538703 0.096221
vt 0.577833 0.108290
vt 0.520322 0.097153
vt 0.500000 0.106427
vt 0.541975 0.104341
vt 0.078394 0.467354
vt 0.104341 0.437145
vt 0.073220 0.507406
vt 0.590300 0.643738
vt 0.499630 0.641384
vt 0.459655 0.640419
vt 0.417546 0.774144
vt 0.414448 0.641253
vt 0.423095 0.508652
vt 0.621491 0.816867
vt 0.648114 0.640437
vt 0.669097 0.641253
vt 0.644267 0.774144
vt 0.578790 0.496630
vt 0.601625 0.405151
vt 0.649402 0.433451
vt 0.651726 0.367843
vt 0.620780 0.366797
vt 0.454529 0.413961
vt 0.467814 0.368189
vt 0.488225 0.366596
vt 0.561691 0.421068
vt 0.537425 0.365401
vt 0.507200 0.363509
vt 0.481273 0.364028
vt 0.510983 0.366114
vt 0.635806 0.367147
vt 0.669092 0.368189
vt 0.420824 0.496630
vt 0.452865 0.405151
vt 0.558226 0.518348
vt 0.484328 0.324872
vt 0.502799 0.322553
vt 0.547406 0.321655
vt 0.519920 0.320969
vt 0.496410 0.322232
vt 0.523434 0.321439
vt 0.639292 0.324944
vt 0.675657 0.324872
vt 0.550036 0.367843
vt 0.558926 0.322330
vt 0.465216 0.366023
vt 0.604868 0.366023
vt 0.599660 0.365401
vt 0.621651 0.293283
vt 0.658462 0.293469
vt 0.659368 0.261742
vt 0.621257 0.261665
vt 0.501495 0.293600
vt 0.482345 0.307625
vt 0.480362 0.262732
vt 0.500191 0.261781
vt 0.519246 0.292376
vt 0.547742 0.292993
vt 0.548078 0.261464
vt 0.518571 0.260916
vt 0.494871 0.293528
vt 0.493332 0.261956
vt 0.522889 0.292587
vt 0.522344 0.260869
vt 0.451756 0.288897
vt 0.449773 0.262732
vt 0.656778 0.322330
vt 0.622394 0.322035
vt 0.481902 0.324350
vt 0.605664 0.324350
vt 0.599057 0.321655
vt 0.595403 0.548078
vt 0.621257 0.561263
vt 0.645824 0.523009
vt 0.590945 0.518571
vt 0.639859 0.470735
vt 0.648324 0.498544
vt 0.685407 0.500191
vt 0.686261 0.480362
vt 0.592251 0.493332
vt 0.659368 0.560446
vt 0.683143 0.522344
vt 0.596433 0.477757
vt 0.479829 0.307317
vt 0.477757 0.262636
vt 0.447168 0.262636
vt 0.449241 0.288588
vt 0.596679 0.292993
vt 0.595403 0.261464
vt 0.559686 0.293469
vt 0.560446 0.261742
vt 0.603589 0.307317
vt 0.640355 0.307779
vt 0.679739 0.307625
vt 0.677932 0.288897
vt 0.639680 0.289050
vt 0.639859 0.262967
vt 0.679465 0.262732
vt 0.604354 0.288588
vt 0.603287 0.262636
vt 0.679739 0.482345
vt 0.640355 0.473048
vt 0.639680 0.442459
vt 0.677932 0.451756
vt 0.679465 0.449773
vt 0.639859 0.440146
vt 0.603589 0.479829
vt 0.604354 0.449241
vt 0.603287 0.447168
vt 0.841501 0.761101
vt 0.796910 0.643370
vt 0.906455 0.644155
vt 0.894416 0.742499
vt 0.957194 0.643970
vt 0.829265 0.517077
vt 0.940741 0.715601
vt 0.671449 0.841501
vt 0.669190 0.894416
vt 0.849398 0.470798
vt 0.666902 0.940741
vt 0.909364 0.402088
vt 0.855378 0.389954
vt 0.592313 0.470184
vt 0.617524 0.471308
vt 0.621192 0.417417
vt 0.598226 0.414426
vt 0.598146 0.467455
vt 0.603540 0.389954
vt 0.643835 0.389418
vt 0.855424 0.393127
vt 0.905341 0.403681
vt 0.667620 0.471464
vt 0.947229 0.538591
vt 0.963044 0.470184
vt 0.580250 0.494548
vt 0.595712 0.312254
vt 0.621272 0.312916
vt 0.622837 0.264476
vt 0.597277 0.263453
vt 0.852894 0.313492
vt 0.849695 0.260671
vt 0.818572 0.260902
vt 0.821566 0.286829
vt 0.893654 0.314609
vt 0.853541 0.316407
vt 0.850246 0.263617
vt 0.890422 0.263754
vt 0.896415 0.312211
vt 0.936226 0.312254
vt 0.933075 0.263453
vt 0.893263 0.261490
vt 0.670148 0.393127
vt 0.666826 0.415674
vt 0.958612 0.415674
vt 0.958434 0.414426
vt 0.649700 0.837975
vt 0.635627 0.887710
vt 0.686058 0.890422
vt 0.687133 0.850246
vt 0.592375 0.849695
vt 0.589648 0.893263
vt 0.597277 0.933075
vt 0.622837 0.940554
vt 0.673628 0.933416
vt 0.822213 0.289744
vt 0.819123 0.263848
vt 0.672063 0.313364
vt 0.673628 0.264581
vt 0.936602 0.313364
vt 0.933416 0.264581
vt 0.941647 0.364922
vt 0.899640 0.363406
vt 0.623001 0.364960
vt 0.665562 0.364922
vt 0.668659 0.362549
vt 0.644119 0.361871
vt 0.647700 0.316485
vt 0.685132 0.316407
vt 0.859879 0.359936
vt 0.902447 0.361457
vt 0.941330 0.363919
vt 0.860378 0.362549
vt 0.606538 0.359936
vt 0.590374 0.313492
vt 0.601582 0.363919
vt 0.646474 0.289822
vt 0.601626 0.286829
vt 0.603191 0.260902
vt 0.648039 0.263334
vt 0.675760 0.289744
vt 0.677325 0.263848
vt 0.647700 0.841274
vt 0.590374 0.852894
vt 0.601626 0.821566
vt 0.646474 0.809945
vt 0.648039 0.806852
vt 0.603191 0.818572
vt 0.685132 0.853541
vt 0.675760 0.822213
vt 0.677325 0.819123
vt 0.500000 0.668378
vt 0.500000 0.724779
vt 0.517225 0.721513
vt 0.520785 0.669173
vt 0.528698 1.002924
vt 0.500000 1.014901
vt 0.500000 1.025182
vt 0.520785 1.015365
vt 0.500000 0.744181
vt 0.519989 0.740196
vt 0.519989 0.988807
vt 0.500000 0.995348
vt 0.500000 0.660499
vt 0.528698 0.661469
vt 0.154177 0.616909
vt 0.166410 0.570048
vt 0.135838 0.608740
vt 0.149154 0.567675
vt 0.147623 0.572395
vt 0.137518 0.603560
vt 0.583783 0.154177
vt 0.583848 0.135838
vt 0.600568 0.131366
vt 0.597073 0.144428
vt 0.144166 0.612314
vt 0.141084 0.620214
vt 0.132632 0.614576
vt 0.134671 0.609983
vt 0.153028 0.593819
vt 0.141399 0.592146
vt 0.619182 0.132632
vt 0.614588 0.141084
vt 0.606252 0.140479
vt 0.610351 0.130579
vt 0.138199 0.601250
vt 0.148213 0.603179
vt 0.602487 0.570048
vt 0.583783 0.616909
vt 0.597073 0.624463
vt 0.606252 0.625520
vt 0.614588 0.620214
vt 0.620822 0.612314
vt 0.623703 0.603179
vt 0.620639 0.593819
vt 0.604695 0.577238
vt 0.601269 0.572395
vt 0.603531 0.567675
vt 0.609313 0.614171
vt 0.615687 0.610750
vt 0.619182 0.614576
vt 0.610351 0.619358
vt 0.602434 0.613212
vt 0.600568 0.617961
vt 0.626402 0.601250
vt 0.623276 0.609983
vt 0.618527 0.594500
vt 0.623272 0.592146
vt 0.590602 0.606787
vt 0.583848 0.608740
vt 0.592903 0.603615
vt 0.603070 0.582298
vt 0.613048 0.594751
vt 0.610999 0.606475
vt 0.606401 0.608943
vt 0.601438 0.608251
vt 0.586331 0.603560
vt 0.600598 0.578805
vt 0.589822 0.601288
vt 0.148133 0.578805
vt 0.140843 0.601288
vt 0.522445 0.038205
vt 0.513246 0.032036
vt 0.507613 0.025182
vt 0.515546 0.030102
vt 0.521458 0.442272
vt 0.528336 0.428901
vt 0.500000 0.456702
vt 0.500000 0.445370
vt 0.500000 0.031689
vt 0.512541 0.032373
vt 0.506877 0.025742
vt 0.500000 0.025886
vt 0.500000 0.031337
vt 0.500000 0.025479
vt 0.030102 0.457928
vt 0.030515 0.446199
vt 0.432141 0.867914
vt 0.443845 0.927906
vt 0.379085 0.894044
vt 0.360683 0.828812
vt 0.439809 0.672195
vt 0.430298 0.558226
vt 0.400297 0.594201
vt 0.380247 0.672998
vt 0.419750 0.833374
vt 0.430922 0.759035
vt 0.362910 0.751725
vt 0.364577 0.812683
vt 0.430922 0.758996
vt 0.439809 0.671923
vt 0.454286 0.976119
vt 0.395580 0.951058
vt 0.395580 0.548422
vt 0.333098 0.547256
vt 0.311584 0.643970
vt 0.373635 0.643481
vt 0.436410 0.893919
vt 0.360683 0.793372
vt 0.328551 0.761101
vt 0.323030 0.643370
vt 0.340672 0.642712
vt 0.444006 0.632181
vt 0.395580 0.735145
vt 0.454286 0.747180
vt 0.427025 0.538591
vt 0.333098 0.715601
vt 0.427025 0.947229
vt 0.443553 0.575135
vt 0.400297 0.530171
vt 0.356060 0.535244
vt 0.340885 0.643738
vt 0.362910 0.643182
vt 0.435444 0.492909
vt 0.433984 0.447361
vt 0.430298 0.518348
vt 0.405006 0.421068
vt 0.383019 0.429733
vt 0.362474 0.771615
vt 0.387552 0.796381
vt 0.438918 0.382998
vt 0.421210 0.420824
vt 0.448920 0.357545
vt 0.398021 0.363238
vt 0.378773 0.407144
vt 0.332784 0.508652
vt 0.333539 0.413961
vt 0.367244 0.407548
vt 0.378773 0.499901
vt 0.362910 0.751727
vt 0.459125 0.268345
vt 0.417930 0.278839
vt 0.380247 0.672932
vt 0.448920 0.314473
vt 0.328551 0.517077
vt 0.328734 0.470798
vt 0.357619 0.470278
vt 0.364577 0.509803
vt 0.459125 0.239236
vt 0.435444 0.495971
vt 0.387552 0.579931
vt 0.371732 0.501290
vt 0.368885 0.457158
vt 0.460183 0.181283
vt 0.460183 0.140934
vt 0.460183 0.196322
vt 0.419994 0.205473
vt 0.378509 0.393435
vt 0.461297 0.608225
vt 0.473395 0.560962
vt 0.433984 0.450625
vt 0.460469 0.141037
vt 0.469367 0.116366
vt 0.437911 0.123733
vt 0.420553 0.149293
vt 0.457081 0.165879
vt 0.413943 0.174337
vt 0.484203 0.085531
vt 0.489280 0.071544
vt 0.476758 0.071388
vt 0.468516 0.086614
vt 0.398021 0.325561
vt 0.417930 0.249130
vt 0.419994 0.679456
vt 0.420401 0.648799
vt 0.460183 0.657159
vt 0.460183 0.690304
vt 0.486669 0.045311
vt 0.419994 0.191059
vt 0.422167 0.599988
vt 0.445768 0.556649
vt 0.469661 0.475706
vt 0.477555 0.462176
vt 0.486754 0.460736
vt 0.484790 0.477146
vt 0.484454 0.457928
vt 0.485561 0.446199
vt 0.493123 0.445401
vt 0.492387 0.457080
vt 0.471665 0.053210
vt 0.379159 0.601238
vt 0.385282 0.599612
vt 0.386922 0.604170
vt 0.381432 0.607555
vt 0.486669 0.424258
vt 0.487459 0.440917
vt 0.423568 0.505809
vt 0.452679 0.467354
vt 0.460520 0.507406
vt 0.480956 0.508271
vt 0.420401 0.168698
vt 0.422167 0.108290
vt 0.461297 0.096221
vt 0.479678 0.097153
vt 0.458025 0.104341
vt 0.378509 0.816867
vt 0.355733 0.774144
vt 0.330903 0.641253
vt 0.351886 0.640437
vt 0.398375 0.405151
vt 0.421210 0.496630
vt 0.379220 0.366797
vt 0.348274 0.367843
vt 0.350598 0.433451
vt 0.330908 0.368189
vt 0.364194 0.367147
vt 0.324343 0.324872
vt 0.360708 0.324944
vt 0.395132 0.366023
vt 0.400340 0.365401
vt 0.378349 0.293283
vt 0.378743 0.261665
vt 0.340632 0.261742
vt 0.341538 0.293469
vt 0.377606 0.322035
vt 0.343222 0.322330
vt 0.394336 0.324350
vt 0.400943 0.321655
vt 0.404597 0.548078
vt 0.409055 0.518571
vt 0.354176 0.523009
vt 0.378743 0.561263
vt 0.360141 0.470735
vt 0.313739 0.480362
vt 0.314593 0.500191
vt 0.351676 0.498544
vt 0.407749 0.493332
vt 0.316857 0.522344
vt 0.340632 0.560446
vt 0.403567 0.477757
vt 0.403321 0.292993
vt 0.404597 0.261464
vt 0.359645 0.307779
vt 0.396411 0.307317
vt 0.320262 0.307625
vt 0.322068 0.288897
vt 0.320535 0.262732
vt 0.360141 0.262967
vt 0.360320 0.289050
vt 0.396713 0.262636
vt 0.395646 0.288588
vt 0.320262 0.482345
vt 0.322068 0.451756
vt 0.360320 0.442459
vt 0.359645 0.473048
vt 0.360141 0.440146
vt 0.320535 0.449773
vt 0.395646 0.449241
vt 0.396411 0.479829
vt 0.396713 0.447168
vt 0.330810 0.894416
vt 0.328551 0.841501
vt 0.333098 0.940741
vt 0.407688 0.470184
vt 0.401774 0.414426
vt 0.378808 0.417417
vt 0.382476 0.471308
vt 0.356165 0.389418
vt 0.396460 0.389954
vt 0.401854 0.467455
vt 0.332380 0.471464
vt 0.419750 0.494548
vt 0.404289 0.312254
vt 0.402723 0.263453
vt 0.377163 0.264476
vt 0.378728 0.312916
vt 0.329852 0.393127
vt 0.333174 0.415674
vt 0.350300 0.837975
vt 0.312867 0.850246
vt 0.313942 0.890422
vt 0.364373 0.887710
vt 0.410353 0.893263
vt 0.407625 0.849695
vt 0.377163 0.940554
vt 0.402723 0.933075
vt 0.326372 0.933416
vt 0.326372 0.264581
vt 0.327937 0.313364
vt 0.376999 0.364960
vt 0.334438 0.364922
vt 0.331341 0.362549
vt 0.314868 0.316407
vt 0.352300 0.316485
vt 0.355881 0.361871
vt 0.409626 0.313492
vt 0.393462 0.359936
vt 0.398418 0.363919
vt 0.353526 0.289822
vt 0.351961 0.263334
vt 0.396809 0.260902
vt 0.398374 0.286829
vt 0.324240 0.289744
vt 0.322675 0.263848
vt 0.352300 0.841274
vt 0.353526 0.809945
vt 0.398374 0.821566
vt 0.409626 0.852894
vt 0.396809 0.818572
vt 0.351961 0.806852
vt 0.314868 0.853541
vt 0.324240 0.822213
vt 0.322675 0.819123
vt 0.479215 0.669173
vt 0.482775 0.721513
vt 0.471302 1.002924
vt 0.479215 1.015365
vt 0.480011 0.740196
vt 0.480011 0.988807
vt 0.471302 0.661469
vt 0.416217 0.154177
vt 0.402927 0.144428
vt 0.399432 0.131366
vt 0.416152 0.135838
vt 0.380819 0.132632
vt 0.389649 0.130579
vt 0.393748 0.140479
vt 0.385412 0.141084
vt 0.397513 0.570048
vt 0.379361 0.593819
vt 0.376297 0.603179
vt 0.379178 0.612314
vt 0.385412 0.620214
vt 0.393748 0.625520
vt 0.402927 0.624463
vt 0.416217 0.616909
vt 0.395305 0.577238
vt 0.396469 0.567675
vt 0.398731 0.572395
vt 0.390687 0.614171
vt 0.389649 0.619358
vt 0.380819 0.614576
vt 0.384313 0.610750
vt 0.397566 0.613212
vt 0.399432 0.617961
vt 0.376724 0.609983
vt 0.373598 0.601250
vt 0.376728 0.592146
vt 0.381473 0.594500
vt 0.409398 0.606787
vt 0.416152 0.608740
vt 0.407098 0.603615
vt 0.398562 0.608251
vt 0.393599 0.608943
vt 0.389001 0.606475
vt 0.386952 0.594751
vt 0.396930 0.582298
vt 0.413669 0.603560
vt 0.399402 0.578805
vt 0.410178 0.601288
vt 0.477555 0.038205
vt 0.484454 0.030102
vt 0.492387 0.025182
vt 0.486754 0.032036
vt 0.478542 0.442272
vt 0.471665 0.428901
vt 0.493123 0.025742
vt 0.487459 0.032373
vt 0.181819 0.000000
vt 0.227273 0.078731
vt 0.136365 0.078731
vt 0.272728 0.157461
vt 0.318182 0.078731
vt 0.363637 0.157461
vt 0.909091 0.000000
vt 0.954545 0.078731
vt 0.863636 0.078731
vt 0.727273 0.000000
vt 0.772727 0.078731
vt 0.681818 0.078731
vt 0.545455 0.000000
vt 0.590909 0.078731
vt 0.500000 0.078731
vt 0.318182 0.236191
vt 0.090910 0.157461
vt 0.181819 0.157461
vt 0.136365 0.236191
vt 0.818182 0.157461
vt 0.909091 0.157461
vt 0.863636 0.236191
vt 0.636364 0.157461
vt 0.727273 0.157461
vt 0.681818 0.236191
vt 0.454546 0.157461
vt 0.545455 0.157461
vt 0.500000 0.236191
vt 0.227273 0.236191
vt 0.045455 0.236191
vt 0.772727 0.236191
vt 0.590909 0.236191
vt 0.409092 0.236191
vt 0.181819 0.314921
vt 0.272728 0.314921
vt 0.227273 0.393651
vt 0.000000 0.314921
vt 0.090910 0.314921
vt 0.045455 0.393651
vt 0.727273 0.314921
vt 0.818182 0.314921
vt 0.772727 0.393651
vt 0.545455 0.314921
vt 0.636364 0.314921
vt 0.590909 0.393651
vt 0.363637 0.314921
vt 0.454546 0.314921
vt 0.409092 0.393651
vt 0.500000 0.393651
vt 0.454546 0.472382
vt 0.681818 0.393651
vt 0.636364 0.472382
vt 0.863636 0.393651
vt 0.818182 0.472382
vt 0.909091 0.314921
vt 0.136365 0.393651
vt 0.090910 0.472382
vt 0.318182 0.393651
vt 0.272728 0.472382
vt 0.954545 0.236191
vt 1.000000 0.157461
vt 0.409092 0.078731
vt 0.363637 0.000000
s 1
f 116/1/1 98/2/1 209/3/1 208/4/1
f 115/5/2 4/6/2 17/7/2 97/8/2
f 3/9/3 7/10/3 13/11/3 8/12/3
f 7/10/4 4/13/4 9/14/4 13/11/4
f 13/11/5 9/14/5 2/15/5 10/16/5
f 8/12/6 13/11/6 10/16/6 1/17/6
f 1/17/7 10/16/7 32/18/7 29/19/7
f 114/20/8 1/21/8 29/22/8 83/23/8
f 116/24/9 3/25/9 8/26/9 109/27/9
f 109/27/10 8/26/10 1/21/10 114/20/10
f 115/5/11 6/28/11 15/29/11 99/30/11
f 99/30/12 15/29/12 12/31/12 112/32/12
f 97/8/13 17/7/13 21/33/13 90/34/13
f 20/35/14 25/36/14 203/37/14 204/38/14
f 116/24/15 5/28/15 18/39/15 98/40/15
f 4/41/16 7/42/16 197/43/16 196/44/16
f 89/45/17 90/46/17 21/47/17 25/36/17
f 91/48/18 89/45/18 25/36/18 20/35/18
f 25/36/19 21/47/19 202/49/19 203/37/19
f 98/40/20 18/39/20 23/50/20 91/51/20
f 38/52/21 45/53/21 134/54/21 131/55/21
f 133/56/22 136/57/22 144/58/22 146/59/22
f 112/32/23 12/31/23 34/60/23 82/61/23
f 10/16/24 2/15/24 30/62/24 32/18/24
f 29/63/25 32/64/25 129/65/25 130/66/25
f 75/67/26 41/68/26 48/69/26 73/70/26
f 82/61/27 34/60/27 41/68/27 75/67/27
f 83/71/28 29/63/28 141/72/28 140/73/28
f 32/64/29 30/74/29 128/75/29 129/65/29
f 73/70/30 48/69/30 56/76/30 66/77/30
f 74/78/31 81/79/31 145/80/31 148/81/31
f 130/82/32 133/56/32 146/59/32 147/83/32
f 6/28/33 115/5/33 97/8/33 19/39/33
f 54/84/34 53/85/34 60/86/34 61/87/34
f 67/88/35 54/89/35 61/90/35 65/91/35
f 11/92/36 114/20/36 83/23/36 33/93/36
f 5/28/37 116/24/37 109/27/37 14/29/37
f 14/29/38 109/27/38 114/20/38 11/92/38
f 139/94/39 54/95/39 143/96/39 142/97/39
f 30/62/40 38/52/40 131/55/40 128/98/40
f 4/6/41 115/5/41 99/30/41 9/99/41
f 61/87/42 60/86/42 69/100/42 70/101/42
f 65/91/43 61/90/43 70/102/43 58/103/43
f 9/99/44 99/30/44 112/32/44 2/104/44
f 66/77/45 56/76/45 63/105/45 64/106/45
f 19/39/46 97/8/46 90/34/46 24/107/46
f 53/85/47 52/108/47 59/109/47 60/86/47
f 198/110/48 3/111/48 207/112/48 213/113/48
f 256/114/49 255/115/49 253/116/49 254/117/49
f 23/118/50 26/119/50 89/45/50 91/48/50
f 69/100/51 68/120/51 76/121/51 77/122/51
f 204/123/52 201/124/52 211/125/52 212/126/52
f 64/106/53 63/105/53 72/127/53 57/128/53
f 33/93/54 83/23/54 81/129/54 40/68/54
f 60/86/55 59/109/55 68/120/55 69/100/55
f 2/104/56 112/32/56 82/61/56 30/130/56
f 38/131/57 75/67/57 73/70/57 45/132/57
f 77/122/58 76/121/58 259/133/58 260/134/58
f 30/130/59 82/61/59 75/67/59 38/131/59
f 50/135/60 80/136/60 88/137/60 44/138/60
f 58/103/61 70/102/61 78/139/61 51/140/61
f 70/101/62 69/100/62 77/122/62 78/141/62
f 45/132/63 73/70/63 66/77/63 52/142/63
f 57/128/64 72/127/64 80/136/64 50/135/64
f 28/143/65 110/144/65 96/145/65 42/146/65
f 40/68/66 81/129/66 74/147/66 47/69/66
f 108/148/67 262/149/67 93/150/67 94/151/67
f 31/152/68 108/153/68 94/154/68 43/155/68
f 55/156/69 67/88/69 65/91/69 62/157/69
f 51/140/70 78/139/70 86/158/70 49/159/70
f 78/141/71 77/122/71 260/134/71 86/160/71
f 47/69/72 74/147/72 67/88/72 55/156/72
f 123/161/73 124/162/73 101/163/73 102/164/73
f 121/165/74 123/166/74 102/167/74 37/168/74
f 62/157/75 65/91/75 58/103/75 71/169/75
f 52/142/76 66/77/76 64/106/76 59/170/76
f 59/170/77 64/106/77 57/128/77 68/171/77
f 262/149/78 261/172/78 92/173/78 93/150/78
f 76/174/79 50/175/79 44/176/79 259/177/79
f 71/169/80 58/103/80 51/140/80 79/178/80
f 37/168/81 35/179/81 105/180/81 103/181/81
f 124/162/82 127/182/82 297/183/82 298/184/82 101/163/82
f 68/171/83 57/128/83 50/135/83 76/185/83
f 261/186/84 28/143/84 42/146/84 92/187/84
f 107/188/85 31/152/85 43/155/85 95/189/85
f 127/190/86 122/191/86 295/192/86 297/193/86
f 79/178/87 51/140/87 49/159/87 87/194/87
f 100/195/88 36/196/88 301/197/88 104/198/88
f 126/199/89 121/165/89 37/168/89 103/181/89
f 102/167/90 101/200/90 35/179/90 37/168/90
f 274/201/91 273/202/91 290/203/91 291/204/91
f 122/191/92 125/205/92 300/206/92 295/192/92
f 49/159/93 86/158/93 108/153/93 31/152/93
f 86/160/94 260/134/94 262/149/94 108/148/94
f 35/207/95 296/208/95 299/209/95 105/210/95
f 44/176/96 88/211/96 110/144/96 28/143/96
f 93/212/97 92/187/97 120/213/97 119/214/97
f 87/194/98 49/159/98 31/152/98 107/188/98
f 42/146/99 96/145/99 113/215/99 27/216/99
f 259/217/100 44/138/100 28/218/100 261/219/100
f 92/187/101 42/146/101 27/216/101 120/213/101
f 95/189/102 43/155/102 22/220/102 118/221/102
f 43/155/103 94/154/103 117/222/103 22/220/103
f 94/151/104 93/150/104 119/223/104 117/224/104
f 120/213/105 27/216/105 122/191/105 127/190/105
f 118/221/106 22/220/106 121/165/106 126/199/106
f 119/223/107 120/225/107 127/182/107 124/162/107
f 27/216/108 113/215/108 125/205/108 122/191/108
f 22/220/109 117/222/109 123/166/109 121/165/109
f 117/224/110 119/223/110 124/162/110 123/161/110
f 130/82/111 129/226/111 132/227/111 133/56/111
f 132/227/112 131/55/112 134/54/112 135/228/112
f 129/226/113 128/98/113 131/55/113 132/227/113
f 135/228/114 134/54/114 137/229/114 138/230/114
f 133/56/115 132/227/115 135/228/115 136/57/115
f 136/57/116 135/228/116 138/230/116 139/231/116
f 52/232/117 53/233/117 138/234/117 137/235/117
f 45/53/118 52/108/118 137/229/118 134/54/118
f 54/95/119 67/236/119 149/237/119 143/96/119
f 53/233/120 54/95/120 139/94/120 138/234/120
f 141/72/121 147/238/121 157/239/121 39/240/121
f 144/58/122 142/241/122 150/242/122 153/243/122
f 145/80/123 140/244/123 46/245/123 154/246/123
f 148/81/124 145/80/124 154/246/124 158/247/124
f 146/59/125 144/58/125 153/243/125 156/248/125
f 142/97/126 143/96/126 151/249/126 150/250/126
f 136/57/127 139/231/127 142/241/127 144/58/127
f 67/251/128 74/78/128 148/81/128 149/252/128
f 29/63/129 130/66/129 147/238/129 141/72/129
f 81/79/130 83/253/130 140/244/130 145/80/130
f 153/243/131 150/242/131 162/254/131 164/255/131
f 154/246/132 46/245/132 160/256/132 165/257/132
f 158/247/133 154/246/133 165/257/133 168/258/133
f 156/248/134 153/243/134 164/255/134 166/259/134
f 150/250/135 151/249/135 163/260/135 162/261/135
f 157/262/136 156/248/136 166/259/136 167/263/136
f 149/252/137 148/81/137 158/247/137 159/264/137
f 143/96/138 149/237/138 159/265/138 151/249/138
f 140/73/139 141/72/139 39/240/139 46/266/139
f 147/83/140 146/59/140 156/248/140 157/262/140
f 188/267/141 187/268/141 177/269/141 152/270/141
f 184/271/142 185/272/142 170/273/142 173/274/142
f 182/275/143 180/276/143 155/277/143 174/278/143
f 181/279/144 182/275/144 174/278/144 178/280/144
f 183/281/145 184/271/145 173/274/145 176/282/145
f 170/273/146 185/272/146 194/283/146 192/284/146
f 39/240/147 157/239/147 167/285/147 161/286/147
f 159/264/148 158/247/148 168/258/148 169/287/148
f 151/249/149 159/265/149 169/288/149 163/260/149
f 46/266/150 39/240/150 161/286/150 160/289/150
f 155/290/151 152/291/151 175/292/151 174/293/151
f 171/294/152 172/295/152 173/296/152 170/297/152
f 174/293/153 175/292/153 172/295/153 178/298/153
f 175/292/154 152/291/154 177/299/154 176/300/154
f 178/298/155 172/295/155 171/294/155 179/301/155
f 172/295/156 175/292/156 176/300/156 173/296/156
f 189/302/157 181/279/157 178/280/157 179/303/157
f 189/302/158 179/303/158 193/304/158 195/305/158
f 180/306/159 188/267/159 152/270/159 155/307/159
f 187/308/160 183/281/160 176/282/160 177/309/160
f 167/263/161 166/259/161 183/281/161 187/308/161
f 160/289/162 161/286/162 188/267/162 180/306/162
f 163/260/163 169/288/163 189/310/163 186/311/163
f 169/287/164 168/258/164 181/279/164 189/302/164
f 162/261/165 163/260/165 186/311/165 185/312/165
f 166/259/166 164/255/166 184/271/166 183/281/166
f 168/258/167 165/257/167 182/275/167 181/279/167
f 165/257/168 160/256/168 180/276/168 182/275/168
f 164/255/169 162/254/169 185/272/169 184/271/169
f 161/286/170 167/285/170 187/268/170 188/267/170
f 194/313/171 190/314/171 191/315/171 192/316/171
f 190/314/172 195/317/172 193/318/172 191/315/172
f 185/319/173 186/320/173 190/321/173 194/322/173
f 171/294/174 170/297/174 192/323/174 191/324/174
f 186/320/175 189/325/175 195/326/175 190/321/175
f 179/301/176 171/294/176 191/324/176 193/327/176
f 196/328/177 197/329/177 200/330/177 199/331/177
f 200/330/178 201/124/178 204/123/178 203/332/178
f 197/329/179 198/333/179 201/124/179 200/330/179
f 199/331/180 200/330/180 203/332/180 202/334/180
f 7/42/181 3/111/181 198/110/181 197/43/181
f 17/7/182 4/6/182 196/335/182 199/336/182
f 201/124/183 198/333/183 213/337/183 211/125/183
f 21/33/184 17/7/184 199/336/184 202/338/184
f 208/4/185 209/3/185 217/339/185 216/340/185
f 210/341/186 206/342/186 214/343/186 218/344/186
f 207/112/187 208/345/187 216/346/187 215/347/187
f 211/125/188 213/337/188 221/348/188 219/349/188
f 20/35/189 204/38/189 212/350/189 206/342/189
f 91/48/190 20/35/190 206/342/190 210/341/190
f 98/2/191 91/351/191 210/352/191 209/3/191
f 3/111/192 116/353/192 208/345/192 207/112/192
f 232/354/193 235/355/193 222/356/193 226/357/193
f 233/358/194 224/359/194 240/360/194 241/361/194
f 16/362/195 230/363/195 229/364/195 227/365/195
f 231/366/196 232/367/196 226/368/196 225/369/196
f 213/113/197 207/112/197 215/347/197 221/370/197
f 206/342/198 212/350/198 220/371/198 214/343/198
f 212/126/199 211/125/199 219/349/199 220/372/199
f 209/3/200 210/352/200 218/373/200 217/339/200
f 223/374/201 205/375/201 227/376/201 229/377/201
f 223/374/202 224/378/202 225/379/202 205/375/202
f 205/375/203 225/379/203 226/380/203 222/381/203
f 205/375/204 222/381/204 228/382/204 227/376/204
f 233/358/205 231/366/205 225/369/205 224/359/205
f 229/364/206 230/363/206 237/383/206 238/384/206
f 235/355/207 236/385/207 228/386/207 222/356/207
f 236/387/208 16/362/208 227/365/208 228/388/208
f 250/389/209 243/390/209 16/362/209 236/387/209
f 249/391/210 250/392/210 236/385/210 235/355/210
f 246/393/211 245/394/211 234/395/211 230/396/211
f 248/397/212 244/398/212 231/366/212 233/358/212
f 244/398/213 247/399/213 232/367/213 231/366/213
f 243/390/214 246/400/214 230/363/214 16/362/214
f 245/394/215 248/401/215 233/402/215 234/395/215
f 247/403/216 249/391/216 235/355/216 232/354/216
f 242/404/217 241/405/217 240/406/217 239/407/217
f 237/408/218 242/404/218 239/407/218 238/409/218
f 234/410/219 233/411/219 241/412/219 242/413/219
f 224/378/220 223/374/220 239/414/220 240/415/220
f 230/416/221 234/410/221 242/413/221 237/417/221
f 223/374/222 229/377/222 238/418/222 239/414/222
f 218/344/223 214/343/223 249/391/223 247/403/223
f 215/347/224 216/346/224 248/401/224 245/394/224
f 219/349/225 221/348/225 246/400/225 243/390/225
f 217/339/226 218/373/226 247/399/226 244/398/226
f 216/340/227 217/339/227 244/398/227 248/397/227
f 221/370/228 215/347/228 245/394/228 246/393/228
f 214/343/229 220/371/229 250/392/229 249/391/229
f 220/372/230 219/349/230 243/390/230 250/389/230
f 252/419/231 251/420/231 254/421/231 253/422/231
f 255/423/232 257/424/232 252/425/232 253/426/232
f 258/427/233 256/428/233 254/421/233 251/420/233
f 24/107/234 90/34/234 256/429/234 258/430/234
f 89/45/235 26/119/235 257/431/235 255/432/235
f 90/46/236 89/45/236 255/432/236 256/428/236
f 84/433/237 85/434/237 260/134/237 259/133/237
f 275/435/238 84/433/238 259/133/238 261/172/238
f 85/434/239 276/436/239 262/149/239 260/134/239
f 276/436/240 284/437/240 283/438/240 275/435/240 261/172/240 262/149/240
f 84/439/241 275/440/241 279/441/241 263/442/241
f 266/443/242 264/444/242 278/445/242 280/446/242
f 276/436/243 85/434/243 267/447/243 282/448/243
f 278/449/244 264/450/244 265/451/244 277/452/244
f 277/452/245 265/451/245 263/442/245 279/441/245
f 266/443/246 280/446/246 281/453/246 268/454/246
f 268/454/247 281/453/247 282/448/247 267/447/247
f 85/455/248 84/456/248 263/457/248 265/458/248 264/459/248 266/460/248 268/461/248 267/462/248
f 106/463/249 284/464/249 276/465/249
f 271/466/250 269/467/250 278/468/250 277/469/250
f 270/470/251 271/466/251 277/469/251 279/471/251
f 273/202/252 274/201/252 281/472/252 280/473/252
f 274/201/253 272/474/253 282/475/253 281/472/253
f 269/467/254 273/202/254 280/473/254 278/468/254
f 111/476/255 270/470/255 279/471/255 275/477/255
f 272/474/256 106/463/256 276/465/256 282/475/256
f 285/478/257 286/479/257 292/480/257 291/204/257 290/203/257 288/481/257 287/482/257 289/483/257
f 283/484/258 111/476/258 275/477/258
f 270/470/259 111/476/259 285/478/259 289/483/259
f 294/485/260 286/479/260 285/478/260 293/486/260
f 111/476/261 283/484/261 293/486/261 285/478/261
f 106/463/262 272/474/262 292/480/262 286/479/262
f 272/474/263 274/201/263 291/204/263 292/480/263
f 269/467/264 271/466/264 287/482/264 288/481/264
f 283/438/265 284/437/265 294/487/265 293/488/265
f 273/202/266 269/467/266 288/481/266 290/203/266
f 284/464/267 106/463/267 286/479/267 294/485/267
f 271/466/268 270/470/268 289/483/268 287/482/268
f 297/489/269 295/490/269 36/491/269 100/492/269
f 296/208/270 298/493/270 104/198/270 301/197/270
f 101/494/271 298/493/271 296/208/271 35/207/271
f 36/196/272 302/495/272 303/496/272 301/197/272
f 299/497/273 296/498/273 301/499/273 303/500/273
f 295/490/274 300/501/274 302/502/274 36/491/274
f 298/184/275 297/183/275 100/503/275 104/504/275
f 385/1/276 474/4/276 475/3/276 372/2/276
f 384/505/277 371/506/277 314/507/277 307/508/277
f 306/9/278 309/12/278 312/11/278 308/10/278
f 308/10/279 312/11/279 310/14/279 307/13/279
f 312/11/280 311/16/280 305/15/280 310/14/280
f 309/12/281 304/17/281 311/16/281 312/11/281
f 304/17/282 321/19/282 324/18/282 311/16/282
f 383/509/283 361/510/283 321/511/283 304/512/283
f 385/513/284 380/514/284 309/515/284 306/516/284
f 380/514/285 383/509/285 304/512/285 309/515/285
f 384/505/286 373/517/286 15/29/286 6/28/286
f 373/517/287 382/518/287 12/31/287 15/29/287
f 371/506/288 366/519/288 316/520/288 314/507/288
f 315/521/289 470/522/289 469/523/289 318/524/289
f 385/513/290 372/525/290 18/39/290 5/28/290
f 307/526/291 462/527/291 463/528/291 308/529/291
f 365/530/292 318/524/292 316/531/292 366/532/292
f 367/533/293 315/521/293 318/524/293 365/530/293
f 318/524/294 469/523/294 468/534/294 316/531/294
f 372/525/295 367/535/295 23/50/295 18/39/295
f 328/52/296 397/55/296 400/54/296 333/53/296
f 399/56/297 412/59/297 410/58/297 402/57/297
f 382/518/298 360/536/298 34/60/298 12/31/298
f 311/16/299 324/18/299 322/62/299 305/15/299
f 321/537/300 396/538/300 395/539/300 324/540/300
f 355/541/301 353/542/301 48/69/301 41/68/301
f 360/536/302 355/541/302 41/68/302 34/60/302
f 361/543/303 406/544/303 407/545/303 321/537/303
f 324/540/304 395/539/304 394/546/304 322/547/304
f 353/542/305 348/548/305 56/76/305 48/69/305
f 354/78/306 414/81/306 411/80/306 359/79/306
f 396/82/307 413/83/307 412/59/307 399/56/307
f 6/28/308 19/39/308 371/506/308 384/505/308
f 340/84/309 345/87/309 344/86/309 339/85/309
f 349/549/310 347/550/310 345/551/310 340/552/310
f 11/92/311 33/93/311 361/510/311 383/509/311
f 5/28/312 14/29/312 380/514/312 385/513/312
f 14/29/313 11/92/313 383/509/313 380/514/313
f 405/553/314 408/554/314 409/555/314 340/556/314
f 322/62/315 394/98/315 397/55/315 328/52/315
f 307/508/316 310/557/316 373/517/316 384/505/316
f 345/87/317 352/101/317 351/100/317 344/86/317
f 347/550/318 342/558/318 352/559/318 345/551/318
f 310/557/319 305/560/319 382/518/319 373/517/319
f 348/548/320 346/561/320 63/105/320 56/76/320
f 19/39/321 24/107/321 366/519/321 371/506/321
f 339/85/322 344/86/322 343/109/322 338/108/322
f 464/562/323 479/563/323 473/564/323 306/565/323
f 520/114/324 518/117/324 517/116/324 519/115/324
f 23/118/325 367/533/325 365/530/325 26/119/325
f 351/100/326 357/122/326 356/121/326 350/120/326
f 470/123/327 478/126/327 477/125/327 467/124/327
f 346/561/328 341/566/328 72/127/328 63/105/328
f 33/93/329 40/68/329 359/567/329 361/510/329
f 344/86/330 351/100/330 350/120/330 343/109/330
f 305/560/331 322/568/331 360/536/331 382/518/331
f 328/569/332 333/570/332 353/542/332 355/541/332
f 357/122/333 522/134/333 521/133/333 356/121/333
f 322/568/334 328/569/334 355/541/334 360/536/334
f 336/571/335 332/572/335 88/137/335 80/136/335
f 342/558/336 337/573/336 358/574/336 352/559/336
f 352/101/337 358/141/337 357/122/337 351/100/337
f 333/570/338 338/575/338 348/548/338 353/542/338
f 341/566/339 336/571/339 80/136/339 72/127/339
f 320/576/340 330/577/340 96/145/340 110/144/340
f 40/68/341 47/69/341 354/578/341 359/567/341
f 379/148/342 370/151/342 369/150/342 524/149/342
f 323/579/343 331/580/343 370/581/343 379/582/343
f 55/156/344 62/157/344 347/550/344 349/549/344
f 337/573/345 335/583/345 364/584/345 358/574/345
f 358/141/346 364/160/346 522/134/346 357/122/346
f 47/69/347 55/156/347 349/549/347 354/578/347
f 391/161/348 376/164/348 375/163/348 392/162/348
f 389/585/349 327/586/349 376/587/349 391/588/349
f 62/157/350 71/169/350 342/558/350 347/550/350
f 338/575/351 343/589/351 346/561/351 348/548/351
f 343/589/352 350/590/352 341/566/352 346/561/352
f 524/149/353 369/150/353 368/173/353 523/172/353
f 356/591/354 521/592/354 332/593/354 336/594/354
f 71/169/355 79/178/355 337/573/355 342/558/355
f 327/586/356 103/181/356 105/180/356 325/595/356
f 392/162/357 375/163/357 560/184/357 559/183/357 393/182/357
f 350/590/358 356/596/358 336/571/358 341/566/358
f 523/597/359 368/598/359 330/577/359 320/576/359
f 107/188/360 95/189/360 331/580/360 323/579/360
f 393/599/361 559/600/361 557/601/361 390/602/361
f 79/178/362 87/194/362 335/583/362 337/573/362
f 374/603/363 377/604/363 561/605/363 326/606/363
f 126/199/364 103/181/364 327/586/364 389/585/364
f 376/587/365 327/586/365 325/595/365 375/607/365
f 536/608/366 553/609/366 552/610/366 535/611/366
f 390/602/367 557/601/367 300/206/367 125/205/367
f 335/583/368 323/579/368 379/582/368 364/584/368
f 364/160/369 379/148/369 524/149/369 522/134/369
f 325/612/370 105/210/370 299/209/370 558/613/370
f 332/593/371 320/576/371 110/144/371 88/211/371
f 369/614/372 387/615/372 388/616/372 368/598/372
f 87/194/373 107/188/373 323/579/373 335/583/373
f 330/577/374 319/617/374 113/215/374 96/145/374
f 521/618/375 523/619/375 320/620/375 332/572/375
f 368/598/376 388/616/376 319/617/376 330/577/376
f 95/189/377 118/221/377 317/621/377 331/580/377
f 331/580/378 317/621/378 386/622/378 370/581/378
f 370/151/379 386/224/379 387/223/379 369/150/379
f 388/616/380 393/599/380 390/602/380 319/617/380
f 118/221/381 126/199/381 389/585/381 317/621/381
f 387/223/382 392/162/382 393/182/382 388/225/382
f 319/617/383 390/602/383 125/205/383 113/215/383
f 317/621/384 389/585/384 391/588/384 386/622/384
f 386/224/385 391/161/385 392/162/385 387/223/385
f 396/82/386 399/56/386 398/227/386 395/226/386
f 398/227/387 401/228/387 400/54/387 397/55/387
f 395/226/388 398/227/388 397/55/388 394/98/388
f 401/228/389 404/230/389 403/229/389 400/54/389
f 399/56/390 402/57/390 401/228/390 398/227/390
f 402/57/391 405/231/391 404/230/391 401/228/391
f 338/623/392 403/624/392 404/625/392 339/626/392
f 333/53/393 400/54/393 403/229/393 338/108/393
f 340/556/394 409/555/394 415/627/394 349/628/394
f 339/626/395 404/625/395 405/553/395 340/556/395
f 407/545/396 329/629/396 423/630/396 413/631/396
f 410/58/397 419/243/397 416/242/397 408/241/397
f 411/80/398 420/246/398 334/245/398 406/244/398
f 414/81/399 424/247/399 420/246/399 411/80/399
f 412/59/400 422/248/400 419/243/400 410/58/400
f 408/554/401 416/632/401 417/633/401 409/555/401
f 402/57/402 410/58/402 408/241/402 405/231/402
f 349/251/403 415/252/403 414/81/403 354/78/403
f 321/537/404 407/545/404 413/631/404 396/538/404
f 359/79/405 411/80/405 406/244/405 361/253/405
f 419/243/406 430/255/406 428/254/406 416/242/406
f 420/246/407 431/257/407 426/256/407 334/245/407
f 424/247/408 434/258/408 431/257/408 420/246/408
f 422/248/409 432/259/409 430/255/409 419/243/409
f 416/632/410 428/634/410 429/635/410 417/633/410
f 423/262/411 433/263/411 432/259/411 422/248/411
f 415/252/412 425/264/412 424/247/412 414/81/412
f 409/555/413 417/633/413 425/636/413 415/627/413
f 406/544/414 334/637/414 329/629/414 407/545/414
f 413/83/415 423/262/415 422/248/415 412/59/415
f 454/638/416 418/639/416 443/640/416 453/641/416
f 450/271/417 439/274/417 436/273/417 451/272/417
f 448/275/418 440/278/418 421/277/418 446/276/418
f 447/279/419 444/280/419 440/278/419 448/275/419
f 449/281/420 442/282/420 439/274/420 450/271/420
f 436/273/421 458/284/421 460/283/421 451/272/421
f 329/629/422 427/642/422 433/643/422 423/630/422
f 425/264/423 435/287/423 434/258/423 424/247/423
f 417/633/424 429/635/424 435/644/424 425/636/424
f 334/637/425 426/645/425 427/642/425 329/629/425
f 421/646/426 440/647/426 441/648/426 418/649/426
f 437/650/427 436/651/427 439/652/427 438/653/427
f 440/647/428 444/654/428 438/653/428 441/648/428
f 441/648/429 442/655/429 443/656/429 418/649/429
f 444/654/430 445/657/430 437/650/430 438/653/430
f 438/653/431 439/652/431 442/655/431 441/648/431
f 455/302/432 445/303/432 444/280/432 447/279/432
f 455/302/433 461/305/433 459/304/433 445/303/433
f 446/658/434 421/659/434 418/639/434 454/638/434
f 453/308/435 443/309/435 442/282/435 449/281/435
f 433/263/436 453/308/436 449/281/436 432/259/436
f 426/645/437 446/658/437 454/638/437 427/642/437
f 429/635/438 452/660/438 455/661/438 435/644/438
f 435/287/439 455/302/439 447/279/439 434/258/439
f 428/634/440 451/662/440 452/660/440 429/635/440
f 432/259/441 449/281/441 450/271/441 430/255/441
f 434/258/442 447/279/442 448/275/442 431/257/442
f 431/257/443 448/275/443 446/276/443 426/256/443
f 430/255/444 450/271/444 451/272/444 428/254/444
f 427/642/445 454/638/445 453/641/445 433/643/445
f 460/663/446 458/664/446 457/665/446 456/666/446
f 456/666/447 457/665/447 459/667/447 461/668/447
f 451/669/448 460/670/448 456/671/448 452/672/448
f 437/650/449 457/673/449 458/674/449 436/651/449
f 452/672/450 456/671/450 461/675/450 455/676/450
f 445/657/451 459/677/451 457/673/451 437/650/451
f 462/328/452 465/331/452 466/330/452 463/329/452
f 466/330/453 469/332/453 470/123/453 467/124/453
f 463/329/454 466/330/454 467/124/454 464/333/454
f 465/331/455 468/334/455 469/332/455 466/330/455
f 308/529/456 463/528/456 464/562/456 306/565/456
f 314/507/457 465/678/457 462/679/457 307/508/457
f 467/124/458 477/125/458 479/337/458 464/333/458
f 316/520/459 468/680/459 465/678/459 314/507/459
f 474/4/460 482/340/460 483/339/460 475/3/460
f 476/681/461 484/682/461 480/683/461 472/684/461
f 473/564/462 481/685/462 482/686/462 474/687/462
f 477/125/463 485/349/463 487/348/463 479/337/463
f 315/521/464 472/684/464 478/688/464 470/522/464
f 367/533/465 476/681/465 472/684/465 315/521/465
f 372/2/466 475/3/466 476/352/466 367/351/466
f 306/565/467 473/564/467 474/687/467 385/689/467
f 498/690/468 492/691/468 488/692/468 501/693/468
f 499/358/469 507/361/469 506/360/469 490/359/469
f 313/362/470 493/365/470 495/364/470 496/363/470
f 497/366/471 491/369/471 492/368/471 498/367/471
f 479/563/472 487/694/472 481/685/472 473/564/472
f 472/684/473 480/683/473 486/695/473 478/688/473
f 478/126/474 486/372/474 485/349/474 477/125/474
f 475/3/475 483/339/475 484/373/475 476/352/475
f 489/696/476 495/697/476 493/698/476 471/699/476
f 489/696/477 471/699/477 491/700/477 490/701/477
f 471/699/478 488/702/478 492/703/478 491/700/478
f 471/699/479 493/698/479 494/704/479 488/702/479
f 499/358/480 490/359/480 491/369/480 497/366/480
f 495/364/481 504/384/481 503/383/481 496/363/481
f 501/693/482 488/692/482 494/705/482 502/706/482
f 502/387/483 494/388/483 493/365/483 313/362/483
f 516/389/484 502/387/484 313/362/484 509/390/484
f 515/707/485 501/693/485 502/706/485 516/708/485
f 512/709/486 496/710/486 500/711/486 511/712/486
f 514/397/487 499/358/487 497/366/487 510/398/487
f 510/398/488 497/366/488 498/367/488 513/399/488
f 509/390/489 313/362/489 496/363/489 512/400/489
f 511/712/490 500/711/490 499/713/490 514/714/490
f 513/715/491 498/690/491 501/693/491 515/707/491
f 508/716/492 505/717/492 506/718/492 507/719/492
f 503/720/493 504/721/493 505/717/493 508/716/493
f 500/722/494 508/723/494 507/724/494 499/725/494
f 490/701/495 506/726/495 505/727/495 489/696/495
f 496/728/496 503/729/496 508/723/496 500/722/496
f 489/696/497 505/727/497 504/730/497 495/697/497
f 484/682/498 513/715/498 515/707/498 480/683/498
f 481/685/499 511/712/499 514/714/499 482/686/499
f 485/349/500 509/390/500 512/400/500 487/348/500
f 483/339/501 510/398/501 513/399/501 484/373/501
f 482/340/502 514/397/502 510/398/502 483/339/502
f 487/694/503 512/709/503 511/712/503 481/685/503
f 480/683/504 515/707/504 516/708/504 486/695/504
f 486/372/505 516/389/505 509/390/505 485/349/505
f 252/419/506 517/731/506 518/732/506 251/420/506
f 519/733/507 517/734/507 252/425/507 257/424/507
f 258/427/508 251/420/508 518/732/508 520/735/508
f 24/107/509 258/430/509 520/736/509 366/519/509
f 365/530/510 519/737/510 257/431/510 26/119/510
f 366/532/511 520/735/511 519/737/511 365/530/511
f 362/433/512 521/133/512 522/134/512 363/434/512
f 537/435/513 523/172/513 521/133/513 362/433/513
f 363/434/514 522/134/514 524/149/514 538/436/514
f 538/436/515 524/149/515 523/172/515 537/435/515 545/438/515 546/437/515
f 362/738/516 525/739/516 541/740/516 537/741/516
f 528/443/517 542/446/517 540/445/517 526/444/517
f 538/436/518 544/448/518 529/447/518 363/434/518
f 540/742/519 539/743/519 527/744/519 526/745/519
f 539/743/520 541/740/520 525/739/520 527/744/520
f 528/443/521 530/454/521 543/453/521 542/446/521
f 530/454/522 529/447/522 544/448/522 543/453/522
f 363/746/523 529/747/523 530/748/523 528/749/523 526/750/523 527/751/523 525/752/523 362/753/523
f 378/754/524 538/755/524 546/756/524
f 533/757/525 539/758/525 540/759/525 531/760/525
f 532/761/526 541/762/526 539/758/526 533/757/526
f 535/611/527 542/763/527 543/764/527 536/608/527
f 536/608/528 543/764/528 544/765/528 534/766/528
f 531/760/529 540/759/529 542/763/529 535/611/529
f 381/767/530 537/768/530 541/762/530 532/761/530
f 534/766/531 544/765/531 538/755/531 378/754/531
f 547/769/532 551/770/532 549/771/532 550/772/532 552/610/532 553/609/532 554/773/532 548/774/532
f 545/775/533 537/768/533 381/767/533
f 532/761/534 551/770/534 547/769/534 381/767/534
f 556/776/535 555/777/535 547/769/535 548/774/535
f 381/767/536 547/769/536 555/777/536 545/775/536
f 378/754/537 548/774/537 554/773/537 534/766/537
f 534/766/538 554/773/538 553/609/538 536/608/538
f 531/760/539 550/772/539 549/771/539 533/757/539
f 545/438/540 555/488/540 556/487/540 546/437/540
f 535/611/541 552/610/541 550/772/541 531/760/541
f 546/756/542 556/776/542 548/774/542 378/754/542
f 533/757/543 549/771/543 551/770/543 532/761/543
f 559/778/544 374/779/544 326/780/544 557/781/544
f 558/613/545 561/605/545 377/604/545 560/782/545
f 375/783/546 325/612/546 558/613/546 560/782/546
f 326/606/547 561/605/547 303/496/547 302/495/547
f 299/497/548 303/500/548 561/784/548 558/785/548
f 557/781/549 326/780/549 302/502/549 300/501/549
f 560/184/550 377/504/550 374/503/550 559/183/550
f 562/786/551 575/787/551 574/788/551
f 563/789/552 575/790/552 577/791/552
f 562/792/553 574/793/553 579/794/553
f 562/795/554 579/796/554 581/797/554
f 562/798/555 581/799/555 578/800/555
f 563/789/556 577/791/556 584/801/556
f 564/802/557 576/803/557 586/804/557
f 565/805/558 580/806/558 588/807/558
f 566/808/559 582/809/559 590/810/559
f 567/811/560 583/812/560 592/813/560
f 563/789/561 584/801/561 587/814/561
f 564/802/562 586/804/562 589/815/562
f 565/805/563 588/807/563 591/816/563
f 566/808/564 590/810/564 593/817/564
f 567/811/565 592/813/565 585/818/565
f 568/819/566 594/820/566 599/821/566
f 569/822/567 595/823/567 601/824/567
f 570/825/568 596/826/568 602/827/568
f 571/828/569 597/829/569 603/830/569
f 572/831/570 598/832/570 600/833/570
f 600/833/571 603/834/571 573/835/571
f 600/833/572 598/832/572 603/834/572
f 598/832/573 571/828/573 603/834/573
f 603/830/574 602/836/574 573/837/574
f 603/830/575 597/829/575 602/836/575
f 597/829/576 570/825/576 602/836/576
f 602/827/577 601/838/577 573/839/577
f 602/827/578 596/826/578 601/838/578
f 596/826/579 569/840/579 601/838/579
f 601/824/580 599/841/580 573/842/580
f 601/824/581 595/823/581 599/841/581
f 595/823/582 568/819/582 599/841/582
f 599/821/583 600/843/583 573/844/583
f 599/821/584 594/820/584 600/843/584
f 594/820/585 572/831/585 600/843/585
f 585/818/586 598/832/586 572/831/586
f 585/818/587 592/813/587 598/832/587
f 592/813/588 571/828/588 598/832/588
f 593/817/589 597/829/589 571/828/589
f 593/817/590 590/810/590 597/829/590
f 590/810/591 570/825/591 597/829/591
f 591/816/592 596/826/592 570/825/592
f 591/816/593 588/807/593 596/826/593
f 588/807/594 569/840/594 596/826/594
f 589/815/595 595/823/595 569/822/595
f 589/815/596 586/804/596 595/823/596
f 586/804/597 568/819/597 595/823/597
f 587/814/598 594/820/598 568/819/598
f 587/814/599 584/801/599 594/820/599
f 584/801/600 572/831/600 594/820/600
f 592/813/601 593/817/601 571/828/601
f 592/813/602 583/812/602 593/817/602
f 583/812/603 566/808/603 593/817/603
f 590/810/604 591/816/604 570/825/604
f 590/810/605 582/809/605 591/816/605
f 582/809/606 565/805/606 591/816/606
f 588/807/607 589/845/607 569/840/607
f 588/807/608 580/806/608 589/845/608
f 580/806/609 564/846/609 589/845/609
f 586/804/610 587/814/610 568/819/610
f 586/804/611 576/803/611 587/814/611
f 576/803/612 563/789/612 587/814/612
f 584/801/613 585/818/613 572/831/613
f 584/801/614 577/791/614 585/818/614
f 577/791/615 567/811/615 585/818/615
f 578/800/616 583/812/616 567/811/616
f 578/800/617 581/799/617 583/812/617
f 581/799/618 566/808/618 583/812/618
f 581/797/619 582/809/619 566/808/619
f 581/797/620 579/796/620 582/809/620
f 579/796/621 565/805/621 582/809/621
f 579/794/622 580/806/622 565/805/622
f 579/794/623 574/793/623 580/806/623
f 574/793/624 564/846/624 580/806/624
f 577/791/625 578/847/625 567/811/625
f 577/791/626 575/790/626 578/847/626
f 575/790/627 562/848/627 578/847/627
f 574/788/628 576/803/628 564/802/628
f 574/788/629 575/787/629 576/803/629
f 575/787/630 563/789/630 576/803/630
f 604/786/631 616/788/631 617/787/631
f 605/789/632 619/791/632 617/790/632
f 604/792/633 621/794/633 616/793/633
f 604/795/634 623/797/634 621/796/634
f 604/798/635 620/800/635 623/799/635
f 605/789/636 626/801/636 619/791/636
f 606/802/637 628/804/637 618/803/637
f 607/805/638 630/807/638 622/806/638
f 608/808/639 632/810/639 624/809/639
f 609/811/640 634/813/640 625/812/640
f 605/789/641 629/814/641 626/801/641
f 606/802/642 631/815/642 628/804/642
f 607/805/643 633/816/643 630/807/643
f 608/808/644 635/817/644 632/810/644
f 609/811/645 627/818/645 634/813/645
f 610/819/646 641/821/646 636/820/646
f 611/822/647 643/824/647 637/823/647
f 612/825/648 644/827/648 638/826/648
f 613/828/649 645/830/649 639/829/649
f 614/831/650 642/833/650 640/832/650
f 642/833/651 615/835/651 645/834/651
f 642/833/652 645/834/652 640/832/652
f 640/832/653 645/834/653 613/828/653
f 645/830/654 615/837/654 644/836/654
f 645/830/655 644/836/655 639/829/655
f 639/829/656 644/836/656 612/825/656
f 644/827/657 615/839/657 643/838/657
f 644/827/658 643/838/658 638/826/658
f 638/826/659 643/838/659 611/840/659
f 643/824/660 615/842/660 641/841/660
f 643/824/661 641/841/661 637/823/661
f 637/823/662 641/841/662 610/819/662
f 641/821/663 615/844/663 642/843/663
f 641/821/664 642/843/664 636/820/664
f 636/820/665 642/843/665 614/831/665
f 627/818/666 614/831/666 640/832/666
f 627/818/667 640/832/667 634/813/667
f 634/813/668 640/832/668 613/828/668
f 635/817/669 613/828/669 639/829/669
f 635/817/670 639/829/670 632/810/670
f 632/810/671 639/829/671 612/825/671
f 633/816/672 612/825/672 638/826/672
f 633/816/673 638/826/673 630/807/673
f 630/807/674 638/826/674 611/840/674
f 631/815/675 611/822/675 637/823/675
f 631/815/676 637/823/676 628/804/676
f 628/804/677 637/823/677 610/819/677
f 629/814/678 610/819/678 636/820/678
f 629/814/679 636/820/679 626/801/679
f 626/801/680 636/820/680 614/831/680
f 634/813/681 613/828/681 635/817/681
f 634/813/682 635/817/682 625/812/682
f 625/812/683 635/817/683 608/808/683
f 632/810/684 612/825/684 633/816/684
f 632/810/685 633/816/685 624/809/685
f 624/809/686 633/816/686 607/805/686
f 630/807/687 611/840/687 631/845/687
f 630/807/688 631/845/688 622/806/688
f 622/806/689 631/845/689 606/846/689
f 628/804/690 610/819/690 629/814/690
f 628/804/691 629/814/691 618/803/691
f 618/803/692 629/814/692 605/789/692
f 626/801/693 614/831/693 627/818/693
f 626/801/694 627/818/694 619/791/694
f 619/791/695 627/818/695 609/811/695
f 620/800/696 609/811/696 625/812/696
f 620/800/697 625/812/697 623/799/697
f 623/799/698 625/812/698 608/808/698
f 623/797/699 608/808/699 624/809/699
f 623/797/700 624/809/700 621/796/700
f 621/796/701 624/809/701 607/805/701
f 621/794/702 607/805/702 622/806/702
f 621/794/703 622/806/703 616/793/703
f 616/793/704 622/806/704 606/846/704
f 619/791/705 609/811/705 620/847/705
f 619/791/706 620/847/706 617/790/706
f 617/790/707 620/847/707 604/848/707
f 616/788/708 606/802/708 618/803/708
f 616/788/709 618/803/709 617/787/709
f 617/787/710 618/803/710 605/789/710
