# Blender 5.1.1
# www.blender.org
o Куб.001
v 0.568619 2.045851 0.907135
v 0.462976 2.990348 -0.035330
v 0.629600 1.337922 0.206134
v 0.630675 2.499966 -0.293383
v 0.061043 1.293611 0.312385
v 0.004173 2.506889 -0.516378
v 0.739964 1.983320 0.236391
v 0.641063 1.562324 0.576083
v 0.579479 2.764039 -0.143478
v 0.683527 2.496686 0.555970
v 0.088825 2.077468 1.110616
v -0.094109 3.064106 -0.058131
v 0.751501 2.060179 0.328975
v 0.053987 1.493983 0.778510
v -0.036114 2.851038 -0.258543
v 0.833385 0.361397 -0.083067
v 0.555850 2.331694 -0.428827
v 0.077479 1.237193 0.066447
v 0.000362 2.222053 -0.633821
v 0.478412 1.328297 -0.412947
v 0.474362 2.091213 -0.612307
v 0.060456 3.883813 2.513785
v 0.083398 1.212349 -0.131767
v 0.001756 1.934197 -0.770476
v 0.577397 1.694532 -0.585756
v 0.038290 1.463544 -0.474956
v 0.059125 4.283323 2.484682
v 0.145382 4.635236 2.181899
v 0.484452 2.646433 1.062207
v 0.469474 3.344433 0.211508
v 0.142974 3.852567 2.312925
v 0.635427 2.868852 0.710616
v 0.091989 2.549903 1.338405
v -0.042596 3.466992 0.207691
v 0.033002 3.956393 2.734181
v 0.009881 4.126278 2.757856
v 0.019326 3.883097 2.639175
v 0.562675 3.701721 0.360979
v 0.510895 2.167070 1.101919
v 0.094372 2.746383 1.664585
v -0.045993 3.835628 0.370122
v 0.094353 4.483638 2.423796
v 0.104972 3.860039 2.430121
v 0.144171 4.765433 1.868699
v 0.579515 3.853284 0.488020
v 0.437970 2.157673 1.186237
v 0.092279 2.917844 1.754122
v -0.044979 3.984287 0.456765
v 0.156515 3.852337 2.192165
v 0.131565 4.786006 1.534833
v 0.140844 3.850007 2.045645
v 0.536608 4.032039 0.694568
v 0.741030 3.512136 1.246675
v 0.714248 2.840809 1.721497
v 0.072585 3.205762 1.745241
v -0.040706 4.130573 0.579474
v 0.130334 4.649132 1.204849
v 0.162229 3.866032 1.757392
v 0.426421 4.270337 0.913744
v 0.616535 3.637805 1.470311
v 0.543018 3.435719 1.635892
v 0.050023 3.447907 1.701444
v -0.049757 4.360089 0.786168
v 0.182455 4.334924 0.821841
v 0.297304 3.448809 1.668291
v 0.241251 4.090794 0.600709
v 0.473812 2.963245 1.696082
v 0.316844 4.595070 1.231545
v 0.432359 4.171450 1.689986
v 0.348406 3.894043 1.719363
v -0.020445 3.838085 1.773968
v -0.052717 4.652555 1.179419
v 0.279411 3.923110 0.458610
v 0.407765 2.883864 1.629530
v 0.271744 3.772849 0.336767
v 0.312349 4.730570 1.544939
v 0.402894 4.289573 1.861771
v 0.321241 3.892789 1.997104
v -0.036581 3.822706 2.043254
v -0.047017 4.787206 1.497588
v 0.395171 2.787491 1.490285
v 0.212736 3.402822 0.170262
v 0.380635 2.690725 1.240424
v 0.340643 4.582991 1.915609
v 0.424216 4.361163 1.974630
v 0.348074 3.887344 2.133619
v -0.034768 3.824519 2.185226
v -0.033651 4.784285 1.835089
v 0.294591 1.516279 -0.442236
v 0.205394 1.966223 -0.730643
v 0.346460 1.300596 -0.300832
v 0.216052 4.446008 2.378106
v 0.311404 4.181149 2.347749
v 0.244528 3.883425 2.381612
v -0.031838 3.842162 2.400821
v -0.024195 4.499810 2.390764
v 0.257041 2.186529 -0.629575
v 0.309262 1.278494 -0.048442
v 0.272507 2.801319 -0.266250
v 0.044815 4.120533 2.735863
v 0.099258 3.960411 2.692882
v 0.075161 3.906669 2.628605
v -0.028278 3.876208 2.651046
v 0.039564 4.072095 2.755185
v -0.026413 3.946278 2.733186
v 0.435086 4.430747 2.039472
v -0.033296 3.830319 2.296444
v 0.320121 3.880692 2.257357
v 0.350512 1.453749 0.629277
v -0.027070 4.661474 2.149462
v 0.372381 4.573231 2.009374
v 0.177635 3.015208 -0.094387
v -0.025532 4.286605 2.484209
v 0.332046 2.044977 1.009614
v 0.318976 2.427601 -0.515616
v 0.382631 1.272552 0.198515
v 0.156402 3.901995 2.469203
v -0.030555 3.869970 2.476444
v 0.182824 4.071044 2.520613
v 0.149366 4.243789 2.470604
v 0.041033 3.881672 2.571502
v 0.042778 4.173315 2.643409
v 0.110810 3.896853 2.558343
v 0.134136 4.016467 2.606029
v -0.024949 4.179145 2.631095
v -0.029475 3.872236 2.559897
v 0.109479 4.153771 2.615741
v 0.605120 3.362040 0.372596
v 0.728706 2.935910 0.714186
v 0.638417 2.802944 0.962946
v 0.671769 3.637856 0.447732
v 0.832273 3.203295 0.966573
v 0.878401 2.770311 1.260532
v 0.641379 3.779732 0.556561
v 0.862687 3.331543 1.076914
v 0.940346 2.748416 1.428444
v 0.658723 3.842058 0.787499
v 0.832854 3.486568 1.211309
v 0.915480 2.795291 1.603499
v 0.416281 2.398644 1.134952
v 0.491311 2.429511 1.038162
v 0.849098 2.323427 1.464043
v 0.719422 2.308479 1.563988
v 0.860015 2.322899 1.334363
v 0.457172 2.327678 1.347033
v 0.814442 2.347681 1.213174
v 0.625839 2.440122 0.984608
v 0.502489 2.302191 1.486080
v 0.573431 2.324239 1.576346
v 0.822303 2.107831 1.389728
v 0.693630 2.106891 1.475343
v 0.450427 1.721785 0.993327
v 0.843540 2.109336 1.287393
v 0.455044 2.131659 1.319272
v 0.357223 1.717256 1.082430
v 0.803198 2.122122 1.194307
v 0.643586 2.162657 1.065172
v 0.490050 2.118517 1.429080
v 0.552893 2.115499 1.485272
v 0.402187 1.975446 1.118037
v 0.485701 1.979455 1.035623
v 0.808112 1.922281 1.285236
v 0.665582 1.925269 1.371890
v 0.802234 1.924588 1.199343
v 0.419506 1.953644 1.238846
v 0.765665 1.935390 1.114579
v 0.632458 1.970589 0.993543
v 0.453091 1.941899 1.338564
v 0.514673 1.937872 1.388539
v 0.826617 1.638616 1.245113
v 0.641602 1.641517 1.345708
v 0.642744 1.661768 1.218118
v 0.798134 1.653544 1.163213
v 0.374810 1.691943 1.211136
v 0.601791 1.680257 1.120129
v 0.760803 1.669546 1.073825
v 0.612991 1.710960 0.946573
v 0.411972 1.673757 1.314816
v 0.449161 1.660681 1.374385
v 0.378271 1.851787 1.102797
v 0.432191 1.814382 1.329624
v 0.395575 1.828878 1.227874
v 0.767378 1.807939 1.095413
v 0.804143 1.795384 1.183365
v 0.819677 1.842486 1.277975
v 0.664901 1.842585 1.371271
v 0.625223 1.845444 0.971332
v 0.468175 1.855488 1.016478
v 0.499998 1.860072 1.388767
v 0.689941 1.727906 1.485962
v 0.679198 1.611445 1.472915
v 0.835331 1.610422 1.381003
v 0.515655 1.628435 1.492139
v 0.840625 1.727654 1.396637
v 0.531783 1.744843 1.503771
v 0.784786 2.377051 -0.191417
v 0.816438 1.918030 0.129241
v 0.787615 1.348884 0.122565
v 0.770190 2.243248 -0.388384
v 0.873451 1.807247 -0.349484
v 0.828114 1.330136 -0.135911
v 0.753111 2.073180 -0.559755
v 0.846547 1.752765 -0.565612
v 0.752468 1.334911 -0.412113
v 0.614961 0.133696 -0.068337
v 0.530314 0.990880 -0.416842
v 0.658465 1.133119 0.181339
v 0.459813 1.102052 0.121229
v 0.392950 1.045743 -0.132968
v 0.419576 0.998571 -0.367912
v 0.816012 1.057874 -0.133945
v 0.754158 0.998269 -0.382741
v 0.784737 1.118000 0.105170
v 0.547416 0.804071 -0.342004
v 0.662519 0.681215 0.201369
v 0.481599 0.688558 0.139812
v 0.421456 0.758921 -0.091690
v 0.446407 0.797786 -0.299205
v 0.807005 0.762306 -0.084614
v 0.751316 0.800907 -0.308824
v 0.777779 0.701643 0.132716
v 0.551614 0.152226 -0.303518
v 0.683690 0.132930 0.151045
v 0.427302 0.119689 0.104479
v 0.409784 0.127865 -0.090110
v 0.438884 0.146911 -0.267536
v 0.838721 0.134572 -0.089117
v 0.778238 0.149643 -0.278206
v 0.848502 0.130756 0.090739
v 0.841086 0.353782 0.092535
v 0.404420 0.354676 -0.085029
v 0.433536 0.372125 -0.261525
v 0.419871 0.343970 0.105442
v 0.676189 0.351244 0.150882
v 0.546275 0.377927 -0.297313
v 0.772906 0.375467 -0.271786
v 0.802215 0.244973 0.218488
v 0.808806 0.133279 0.230886
v 0.680183 0.134431 0.289583
v 0.479277 0.121482 0.242279
v 0.472699 0.231819 0.230647
v 0.673579 0.248797 0.276111
v 0.796927 0.580348 -0.082550
v 0.437467 0.575711 -0.084513
v 0.661432 0.552396 0.146605
v 0.769075 0.558721 0.090745
v 0.461438 0.602087 -0.250192
v 0.492915 0.549622 0.099161
v 0.555820 0.608223 -0.283639
v 0.745809 0.604735 -0.259032
v 0.002281 1.776196 -0.764382
v 0.013729 1.524295 -0.645658
v 0.109007 1.559183 -0.616388
v 0.078772 1.781879 -0.736774
v 0.149469 1.576631 -0.558235
v 0.090764 1.881277 -0.751348
v 0.016279 1.526282 -0.585648
v 0.002005 1.874360 -0.785018
v 0.318934 4.680593 1.769657
v 0.430311 4.269461 1.965967
v 0.318311 4.581778 2.145797
v 0.440217 4.291948 2.161924
v 0.400330 4.627353 1.937922
v 0.478671 4.614345 1.961689
v 0.441466 4.637424 1.951727
v 0.506410 4.576286 1.967603
v 0.505420 4.484659 1.974409
v 0.519162 4.531684 1.972224
v 0.484019 4.592224 2.009286
v 0.425004 4.605766 2.007118
v 0.455663 4.609659 2.007589
v 0.496578 4.514095 2.020172
v 0.496816 4.576209 2.010478
v 0.506892 4.545620 2.014213
v 0.342556 4.579056 2.010098
v 0.429779 4.382456 2.046258
v 0.460308 4.633331 2.003480
v 0.499595 4.609522 2.006279
v 0.416738 4.627412 2.003471
v 0.517774 4.587132 2.008482
v 0.531623 4.545424 2.014020
v 0.517649 4.503045 2.021729
v 0.353341 4.559760 2.012394
v 0.419808 4.404757 2.042669
v 0.382455 4.553986 2.002215
v 0.427756 4.450316 2.024599
v 0.442552 4.579960 2.001096
v 0.463022 4.567054 2.002451
v 0.420439 4.577160 2.000803
v 0.472263 4.555257 2.003413
v 0.479546 4.532825 2.006249
v 0.472129 4.509439 2.010792
v 0.368778 4.543092 2.005003
v 0.416748 4.431897 2.027053
v 0.034525 4.128638 2.723103
v 0.030855 4.047368 2.757159
v 0.075010 4.123005 2.694896
v 0.070099 4.041737 2.729879
v -0.024851 4.049029 2.760743
v -0.024333 4.127971 2.727834
v 0.006271 4.077761 2.776468
v -0.023995 4.124610 2.757748
v -0.024315 4.077737 2.776327
v -0.451632 1.982079 0.938620
v -0.592712 2.921403 0.098341
v -0.494531 1.256846 0.149611
v -0.612075 2.410336 -0.355871
v -0.686375 1.881877 0.196085
v -0.516921 1.482837 0.560549
v -0.637906 2.676775 -0.161342
v -0.618126 2.415220 0.659355
v -0.705476 1.958453 0.312716
v -0.526550 0.263315 -0.151447
v -0.508116 2.262213 -0.477326
v -0.282531 1.273427 -0.451201
v -0.405095 2.047590 -0.642880
v -0.120242 3.885949 2.516065
v -0.429338 1.628956 -0.631531
v -0.110203 4.285324 2.486820
v -0.198731 4.638041 2.186476
v -0.359758 2.605902 1.122713
v -0.541714 3.294388 0.297579
v -0.208518 3.856723 2.317360
v -0.582240 2.808022 0.802431
v -0.085529 3.957794 2.735677
v -0.057809 4.127079 2.758711
v -0.075990 3.884224 2.640378
v -0.635296 3.646799 0.444665
v -0.341693 2.127982 1.161479
v -0.142212 4.486434 2.426781
v -0.167405 3.863259 2.433559
v -0.209789 4.765035 1.873968
v -0.648078 3.797003 0.573775
v -0.257224 2.125800 1.234801
v -0.225103 3.856848 2.196981
v -0.222243 4.776761 1.541632
v -0.213194 3.854192 2.050112
v -0.592278 3.977076 0.765588
v -0.671029 3.447398 1.345317
v -0.517610 2.784333 1.807551
v -0.232759 4.634747 1.212562
v -0.201015 3.865887 1.765322
v -0.497293 4.217327 0.944880
v -0.541876 3.589192 1.542349
v -0.432297 3.396511 1.696250
v -0.273410 4.307364 0.834277
v -0.193643 3.430866 1.697468
v -0.314410 4.060894 0.628714
v -0.296351 2.928281 1.749541
v -0.412181 4.566773 1.247066
v -0.464106 4.150195 1.713500
v -0.380836 3.889875 1.736475
v -0.360738 3.893116 0.501750
v -0.232058 2.854531 1.674227
v -0.358236 3.743967 0.380775
v -0.398587 4.713014 1.558403
v -0.464194 4.291044 1.875092
v -0.390104 3.899459 2.006649
v -0.230183 2.758821 1.533971
v -0.296744 3.378318 0.213614
v -0.240700 2.662195 1.284120
v -0.404185 4.583597 1.926437
v -0.486963 4.365952 1.987160
v -0.417114 3.896238 2.143279
v -0.165703 1.491568 -0.459533
v -0.193002 1.962771 -0.733255
v -0.162808 1.264775 -0.325812
v -0.266158 4.451457 2.384245
v -0.368202 4.189182 2.356326
v -0.307549 3.889952 2.388579
v -0.236850 2.176814 -0.636558
v -0.145196 1.245717 -0.071293
v -0.333892 2.757860 -0.276144
v -0.093412 4.122168 2.737607
v -0.152692 3.963389 2.696062
v -0.131501 3.909112 2.631213
v -0.088822 4.073612 2.756806
v -0.495723 4.435626 2.052296
v -0.386296 3.889043 2.266272
v -0.222707 1.413396 0.617543
v -0.433088 4.575651 2.020894
v -0.346879 2.980488 -0.010400
v -0.168916 2.013583 1.035253
v -0.280412 2.391963 -0.540523
v -0.241233 1.227557 0.167146
v -0.216826 3.906408 2.473913
v -0.237940 4.076017 2.525923
v -0.201681 4.247939 2.475034
v -0.099426 3.883332 2.573274
v -0.092462 4.174913 2.645115
v -0.169134 3.900162 2.561876
v -0.188416 4.020281 2.610099
v -0.160283 4.156960 2.619146
v -0.644696 3.302924 0.472212
v -0.676253 2.868581 0.820626
v -0.544629 2.748706 1.045590
v -0.725026 3.573818 0.545308
v -0.771748 3.129756 1.078625
v -0.737025 2.696249 1.373381
v -0.692877 3.718561 0.649768
v -0.798109 3.255401 1.192932
v -0.772820 2.669873 1.548121
v -0.683863 3.779544 0.878938
v -0.764159 3.413352 1.322871
v -0.728279 2.719931 1.718327
v -0.264894 2.367414 1.182537
v -0.355123 2.390705 1.097292
v -0.639200 2.255194 1.568011
v -0.496094 2.252752 1.648900
v -0.667910 2.252849 1.441099
v -0.269331 2.294371 1.397784
v -0.642040 2.280906 1.314920
v -0.496182 2.388681 1.062989
v -0.292407 2.265748 1.541610
v -0.351848 2.281818 1.640983
v -0.603456 2.042465 1.489327
v -0.464603 2.053790 1.556254
v -0.256583 1.689371 1.042717
v -0.638734 2.041378 1.390940
v -0.253235 2.099186 1.368750
v -0.151897 1.693914 1.117996
v -0.613031 2.057192 1.293241
v -0.477240 2.111271 1.143469
v -0.271324 2.083611 1.482267
v -0.325224 2.075240 1.546615
v -0.214807 1.947159 1.161139
v -0.308962 1.943021 1.091136
v -0.587064 1.858317 1.382699
v -0.434760 1.874822 1.448757
v -0.593395 1.860603 1.296838
v -0.213139 1.924638 1.283041
v -0.570077 1.874151 1.207890
v -0.458716 1.920562 1.069770
v -0.231353 1.910519 1.386378
v -0.284781 1.901219 1.444387
v -0.585050 1.573895 1.343728
v -0.388908 1.594272 1.417697
v -0.409580 1.613523 1.291631
v -0.569684 1.590834 1.258765
v -0.149077 1.667924 1.247734
v -0.384474 1.635040 1.189027
v -0.546731 1.609600 1.165165
v -0.422394 1.663491 1.018902
v -0.169683 1.647090 1.355449
v -0.196901 1.631061 1.419517
v -0.182077 1.826096 1.141942
v -0.200372 1.785381 1.373813
v -0.179702 1.802503 1.268061
v -0.562820 1.746954 1.188337
v -0.585729 1.731663 1.280457
v -0.592210 1.777756 1.376605
v -0.426646 1.792541 1.447523
v -0.443268 1.796457 1.045973
v -0.283047 1.821046 1.068957
v -0.263194 1.825081 1.442082
v -0.424983 1.676790 1.563848
v -0.405594 1.561711 1.548696
v -0.572221 1.545890 1.479331
v -0.243199 1.593644 1.545151
v -0.585948 1.662250 1.496294
v -0.268089 1.708171 1.559648
v -0.756402 2.265896 -0.268911
v -0.752194 1.804959 0.055382
v -0.643351 1.245678 0.050613
v -0.703223 2.136981 -0.462470
v -0.746372 1.690421 -0.430931
v -0.654751 1.223187 -0.210473
v -0.653239 1.978791 -0.625617
v -0.692912 1.643640 -0.641707
v -0.553386 1.240729 -0.477774
v -0.280354 0.069124 -0.113355
v -0.284924 0.932083 -0.457834
v -0.491163 1.050205 0.123534
v -0.285113 1.048326 0.083773
v -0.185849 1.003999 -0.162071
v -0.181869 0.955193 -0.398154
v -0.604059 0.955455 -0.205349
v -0.509795 0.907110 -0.446294
v -0.605732 1.017716 0.035255
v -0.282492 0.744216 -0.383733
v -0.432469 0.602242 0.146311
v -0.249232 0.635849 0.103064
v -0.176981 0.715760 -0.121781
v -0.186404 0.752146 -0.331024
v -0.557807 0.663872 -0.153239
v -0.486122 0.711660 -0.371045
v -0.542033 0.606455 0.066354
v -0.197162 0.098222 -0.341168
v -0.369812 0.056949 0.098073
v -0.110815 0.080879 0.077422
v -0.075317 0.092878 -0.114502
v -0.088991 0.108839 -0.294078
v -0.498733 0.038112 -0.156367
v -0.422466 0.063045 -0.338580
v -0.525766 0.031640 0.021639
v -0.550566 0.253412 0.022560
v -0.103009 0.318079 -0.110543
v -0.116563 0.332451 -0.289185
v -0.135697 0.303901 0.077507
v -0.393659 0.274084 0.097088
v -0.224831 0.322313 -0.336086
v -0.450180 0.287255 -0.333285
v -0.509287 0.150384 0.152543
v -0.501026 0.038810 0.165025
v -0.380399 0.057939 0.236254
v -0.176001 0.074222 0.209330
v -0.184156 0.184445 0.197619
v -0.388922 0.172167 0.222687
v -0.522043 0.485221 -0.148871
v -0.167239 0.532098 -0.114918
v -0.407495 0.475302 0.092857
v -0.508817 0.466556 0.026490
v -0.178084 0.555963 -0.282348
v -0.236431 0.497020 0.062488
v -0.268558 0.548767 -0.325090
v -0.457589 0.517943 -0.319542
v -0.072335 1.556525 -0.618326
v -0.074408 1.781352 -0.737226
v -0.093481 1.571244 -0.562090
v -0.086998 1.880666 -0.751873
v -0.388621 4.676397 1.780780
v -0.494372 4.275330 1.978497
v -0.373703 4.586974 2.155081
v -0.499574 4.300282 2.174260
v -0.462643 4.628929 1.950541
v -0.540015 4.617092 1.976522
v -0.503106 4.639573 1.965593
v -0.567707 4.579542 1.983130
v -0.567106 4.488791 1.989520
v -0.580588 4.535493 1.987890
v -0.544450 4.595368 2.024087
v -0.485636 4.608139 2.020319
v -0.516137 4.612386 2.021651
v -0.557167 4.517969 2.035086
v -0.557272 4.579579 2.025595
v -0.567416 4.549298 2.029524
v -0.402890 4.581927 2.020586
v -0.490695 4.388062 2.058789
v -0.520709 4.636029 2.017747
v -0.559939 4.612744 2.021582
v -0.477313 4.629735 2.016457
v -0.578166 4.590625 2.024238
v -0.592126 4.549311 2.030031
v -0.578277 4.507130 2.037217
v -0.414160 4.561918 2.023398
v -0.480550 4.410089 2.054958
v -0.443465 4.556365 2.014046
v -0.488595 4.454759 2.037292
v -0.503366 4.582644 2.014719
v -0.523784 4.570167 2.016555
v -0.481354 4.579535 2.013844
v -0.533023 4.558542 2.017764
v -0.540325 4.536345 2.020765
v -0.532912 4.513265 2.024983
v -0.429757 4.545521 2.016401
v -0.477633 4.436604 2.039370
v -0.083258 4.130031 2.724589
v -0.080653 4.048686 2.758566
v -0.124564 4.125364 2.697415
v -0.120695 4.043992 2.732286
v -0.054878 4.078483 2.777240
v 0.263853 4.220282 2.370410
v 0.279673 4.289608 2.363381
v 0.242665 4.231752 2.411081
v 0.204804 4.193418 2.422099
v 0.218413 4.227581 2.381208
v 0.264685 4.287030 2.344919
v 0.230401 4.305590 2.410727
v 0.184129 4.246140 2.447016
v 0.169141 4.243563 2.428555
v 0.206149 4.301418 2.380855
v 0.244010 4.339753 2.369836
v 0.184961 4.312889 2.421526
v 0.258324 4.218894 2.389828
v 0.280077 4.252901 2.361791
v 0.267623 4.259644 2.385697
v 0.280566 4.292134 2.346808
v 0.271267 4.251386 2.350939
v 0.236070 4.196362 2.396305
v 0.223616 4.203104 2.420211
v 0.244070 4.216442 2.372269
v 0.209361 4.200652 2.402652
v 0.244559 4.255676 2.357286
v 0.268414 4.323125 2.361454
v 0.259604 4.321609 2.350602
v 0.238662 4.269037 2.413526
v 0.260415 4.303044 2.385489
v 0.189210 4.211561 2.441333
v 0.211464 4.234094 2.434857
v 0.188399 4.230126 2.406446
v 0.180400 4.210046 2.430481
v 0.237350 4.299077 2.357078
v 0.210152 4.264133 2.378409
v 0.239452 4.332519 2.389283
v 0.204255 4.277495 2.434649
v 0.168248 4.241036 2.445127
v 0.181191 4.273527 2.406239
v 0.225198 4.330067 2.371725
v 0.204744 4.316729 2.419665
v 0.212744 4.336809 2.395631
v 0.177547 4.281785 2.440996
v 0.168737 4.280270 2.430144
v 0.190489 4.314277 2.402107
v -0.319182 4.227174 2.377767
v -0.333532 4.296857 2.371119
v -0.296710 4.238128 2.417888
v -0.259499 4.198906 2.427959
v -0.273325 4.233395 2.387414
v -0.319079 4.293931 2.352286
v -0.282717 4.311655 2.417203
v -0.236962 4.251119 2.452331
v -0.222510 4.248193 2.433498
v -0.259332 4.306921 2.386729
v -0.296542 4.346144 2.376658
v -0.236859 4.317875 2.426849
v -0.313200 4.225651 2.397041
v -0.334843 4.260170 2.369551
v -0.321634 4.266609 2.393133
v -0.334783 4.299409 2.354574
v -0.326348 4.258451 2.358481
v -0.291328 4.202597 2.402961
v -0.278119 4.209035 2.426543
v -0.299455 4.222868 2.379129
v -0.264374 4.206252 2.408631
v -0.299394 4.262107 2.364151
v -0.321536 4.330099 2.368899
v -0.313041 4.328380 2.357829
v -0.291766 4.275308 2.420221
v -0.313410 4.309828 2.392731
v -0.243001 4.216670 2.446788
v -0.264872 4.239724 2.440868
v -0.242632 4.235222 2.411886
v -0.234506 4.214951 2.435718
v -0.291169 4.305326 2.363749
v -0.264275 4.269742 2.384397
v -0.291667 4.338798 2.395986
v -0.256647 4.282944 2.440465
v -0.221259 4.245641 2.450043
v -0.234407 4.278440 2.411483
v -0.277922 4.336015 2.378074
v -0.256587 4.322182 2.425488
v -0.264713 4.342453 2.401656
v -0.229693 4.286600 2.446136
v -0.221198 4.284880 2.435066
v -0.242841 4.319399 2.407576
vn -0.8467 -0.4510 0.2823
vn 0.4446 0.3530 -0.8232
vn 0.9820 -0.1770 0.0665
vn 0.9833 0.1665 -0.0733
vn 0.9582 0.2839 -0.0340
vn 0.9531 -0.0368 0.3006
vn 0.9317 0.0111 0.3631
vn 0.6038 -0.2200 0.7662
vn 0.3103 -0.8448 0.4359
vn 0.3391 -0.4991 0.7974
vn 0.1115 0.5824 -0.8052
vn 0.0572 0.6677 -0.7422
vn 0.2651 0.4500 -0.8528
vn 0.0830 -0.4002 -0.9126
vn 0.0748 -0.9929 0.0930
vn 0.5086 0.6063 0.6113
vn 0.1325 -0.3190 -0.9384
vn -0.3075 -0.4327 -0.8475
vn 0.1310 0.0073 -0.9914
vn 0.2701 -0.9623 0.0317
vn 0.7716 0.4198 -0.4779
vn 0.9275 -0.0976 -0.3607
vn 0.0034 0.5570 -0.8305
vn 0.9666 0.1641 -0.1967
vn 0.6110 -0.7642 -0.2068
vn 0.0697 0.5693 -0.8192
vn -0.0223 0.4081 -0.9127
vn -0.8348 0.0693 -0.5463
vn 0.6275 -0.4136 -0.6597
vn 0.1363 0.6473 -0.7500
vn -0.9448 -0.2111 0.2504
vn 0.7679 -0.0539 -0.6383
vn 0.0868 0.3921 -0.9158
vn 0.8411 0.2537 0.4777
vn 0.0475 0.1194 0.9917
vn 0.3905 -0.3647 0.8453
vn 0.0765 -0.9163 0.3932
vn 0.3092 -0.4963 0.8112
vn 0.5116 -0.2722 0.8150
vn 0.7161 0.0657 -0.6949
vn 0.3896 0.5308 -0.7526
vn 0.7070 0.0545 0.7051
vn 0.1640 -0.1310 0.9777
vn 0.2905 0.6090 -0.7381
vn 0.1648 0.6740 -0.7201
vn 0.0899 0.4147 -0.9055
vn 0.8960 0.4264 0.1244
vn 0.4885 -0.0552 0.8708
vn 0.8299 -0.1750 -0.5298
vn 0.0127 -0.7188 -0.6951
vn 0.9790 0.2007 -0.0364
vn 0.9677 -0.0294 -0.2504
vn 0.1428 0.7847 -0.6032
vn 0.4336 -0.8081 0.3987
vn 0.9516 0.3058 0.0317
vn 0.2327 0.5432 -0.8067
vn 0.2148 0.6109 -0.7620
vn 0.9788 0.1962 -0.0594
vn 0.1936 0.3566 -0.9140
vn 0.0496 0.9982 0.0330
vn 0.1864 -0.9824 -0.0140
vn 0.9655 -0.1951 0.1723
vn 0.2865 0.7121 -0.6410
vn 0.0786 0.9192 -0.3859
vn -0.0001 0.8391 0.5440
vn 0.3494 -0.6165 0.7056
vn 0.8480 -0.1300 0.5137
vn 0.2025 -0.9698 0.1363
vn 0.1773 0.1443 0.9735
vn 0.1935 -0.9803 -0.0398
vn 0.9271 -0.2883 -0.2396
vn 0.1683 -0.1736 0.9703
vn 0.8704 -0.4121 0.2694
vn 0.3242 -0.9224 0.2100
vn 0.1242 -0.1643 0.9786
vn 0.3713 0.6935 -0.6174
vn 0.3611 0.7291 -0.5814
vn 0.7594 0.2824 0.5862
vn 0.3871 0.9163 0.1024
vn 0.1497 -0.9877 -0.0456
vn 0.1845 -0.7718 0.6085
vn 0.8909 0.1280 0.4359
vn 0.2993 0.8792 -0.3707
vn 0.3829 0.7300 0.5661
vn 0.1114 -0.9883 0.1045
vn 0.4295 0.7655 0.4791
vn 0.1477 -0.9890 0.0053
vn 0.5478 0.2609 0.7949
vn 0.1368 -0.9893 0.0513
vn 0.3912 -0.7625 0.5153
vn -0.2918 0.0230 0.9562
vn 0.0072 0.8785 0.4776
vn 0.1696 -0.9855 0.0029
vn 0.9719 -0.2260 0.0661
vn 0.0403 -0.2521 0.9669
vn 0.0490 0.9266 0.3729
vn 0.6421 0.2220 0.7338
vn 0.1329 -0.9906 0.0327
vn -0.1187 0.3564 0.9268
vn 0.4472 0.8490 0.2817
vn 0.3475 0.2558 0.9021
vn 0.0391 -0.9475 0.3174
vn 0.3268 -0.8269 0.4576
vn 0.7863 -0.1794 0.5912
vn 0.4183 0.7212 0.5522
vn 0.1371 -0.9904 0.0187
vn 0.8559 0.2212 0.4675
vn 0.0001 0.8148 0.5798
vn 0.2124 -0.9761 0.0456
vn 0.8812 -0.2821 0.3794
vn 0.8431 -0.4050 -0.3538
vn 0.9629 0.1699 -0.2095
vn 0.9260 -0.0660 -0.3718
vn 0.9444 0.2958 -0.1437
vn 0.9544 -0.0684 -0.2907
vn 0.9843 0.1632 0.0675
vn 0.5973 0.6982 0.3946
vn 0.8573 0.4704 -0.2091
vn -0.1179 -0.2387 0.9639
vn 0.4953 0.4807 0.7236
vn -0.3031 -0.2656 -0.9152
vn 0.9812 -0.1372 0.1354
vn -0.9871 -0.0358 0.1557
vn -0.9526 -0.0310 0.3027
vn 0.9280 -0.0027 -0.3726
vn 0.5584 -0.3620 0.7464
vn 0.9699 -0.1961 0.1444
vn -0.6388 -0.2580 0.7249
vn -0.4718 0.0083 -0.8817
vn -0.9775 -0.1689 0.1267
vn 0.9795 -0.1864 0.0762
vn -0.9791 0.1291 0.1570
vn -0.9481 0.0418 0.3153
vn 0.9170 -0.0146 -0.3985
vn 0.4691 -0.4754 0.7442
vn 0.6658 0.2015 -0.7184
vn -0.7114 -0.1950 0.6752
vn 0.0367 -0.4044 0.9138
vn -0.7344 -0.2079 -0.6461
vn 0.6997 -0.0781 -0.7102
vn -0.2589 0.1978 -0.9454
vn 0.9677 0.0408 -0.2488
vn -0.9788 0.1290 0.1591
vn -0.9316 0.0978 0.3501
vn 0.9235 0.0156 -0.3833
vn 0.9943 0.0208 -0.1042
vn -0.2386 0.3517 -0.9052
vn -0.6366 -0.2505 0.7294
vn 0.0434 -0.4924 0.8693
vn -0.6985 0.3435 -0.6278
vn -0.1207 -0.9770 -0.1758
vn -0.1015 -0.9832 -0.1519
vn -0.1073 -0.9847 -0.1375
vn -0.1176 -0.9765 -0.1803
vn -0.1173 -0.9814 -0.1522
vn -0.1037 -0.9850 -0.1380
vn -0.7590 0.1034 0.6429
vn -0.8743 0.1473 0.4625
vn -0.6810 0.2122 -0.7009
vn 0.6652 0.0802 -0.7423
vn 0.6765 0.1046 -0.7290
vn -0.6864 0.2115 -0.6958
vn 0.1063 -0.0126 0.9943
vn -0.6578 0.0822 0.7487
vn 0.5177 -0.0068 0.8555
vn 0.9216 0.0654 -0.3825
vn -0.9295 0.1382 0.3419
vn -0.9712 0.1694 0.1676
vn 0.9875 0.0789 -0.1367
vn -0.2607 0.1833 -0.9479
vn 0.5032 -0.1392 0.8529
vn 0.1015 -0.1164 0.9880
vn 0.3680 0.6982 0.6141
vn -0.1208 -0.9735 -0.1943
vn 0.1508 0.7171 0.6805
vn -0.1250 -0.9729 -0.1944
vn 0.9884 0.1518 0.0071
vn 0.9588 -0.2221 -0.1773
vn 0.9895 -0.0428 0.1384
vn 0.9414 0.2342 -0.2426
vn 0.6149 -0.0943 0.7829
vn 0.5539 0.5366 -0.6366
vn 0.9884 -0.0340 0.1480
vn 0.2709 0.5914 -0.7595
vn -0.9667 -0.0479 0.2514
vn -0.3730 -0.3591 -0.8555
vn -0.3070 0.0333 0.9511
vn 0.9913 -0.0080 0.1314
vn 0.0709 -0.0320 -0.9970
vn -0.5520 -0.0154 -0.8337
vn -0.9616 -0.2499 -0.1131
vn -0.0838 -0.2835 0.9553
vn -0.3041 0.0186 -0.9525
vn -0.9325 -0.0276 0.3600
vn 0.9984 0.0291 -0.0482
vn -0.9862 -0.0193 -0.1642
vn 0.5130 0.0453 0.8572
vn 0.1488 -0.3523 -0.9240
vn 0.9680 -0.0825 -0.2369
vn -0.9842 -0.1370 -0.1122
vn -0.0055 -0.9999 -0.0104
vn 0.0459 -0.9985 -0.0311
vn 0.0307 -0.9952 -0.0932
vn -0.0030 -0.9969 -0.0781
vn -0.9960 -0.0294 0.0838
vn 0.9524 0.0494 0.3009
vn 0.1117 0.0304 -0.9933
vn 0.9526 0.0308 -0.3026
vn 0.9506 0.1429 -0.2754
vn 0.1201 0.0616 -0.9908
vn 0.3821 0.0954 0.9192
vn -0.9495 0.2388 0.2034
vn -0.9815 0.1362 -0.1348
vn 0.9659 0.2474 0.0765
vn -0.2145 0.0560 0.9751
vn -0.3201 0.0773 -0.9442
vn -0.2307 0.0947 0.9684
vn 0.4107 0.1273 0.9028
vn -0.1701 0.7312 0.6606
vn 0.0568 -0.9984 0.0019
vn 0.2585 0.7178 0.6464
vn -0.0058 -0.9999 0.0135
vn -0.3354 -0.2678 -0.9032
vn -0.2849 -0.3314 0.8994
vn 0.9889 -0.0730 0.1291
vn -0.9838 -0.1024 -0.1469
vn -0.9640 -0.1071 0.2435
vn 0.4919 -0.3077 0.8145
vn 0.1357 -0.2626 -0.9553
vn 0.9604 -0.0763 -0.2680
vn 0.3713 -0.3916 -0.8419
vn 0.3429 -0.9389 0.0296
vn 0.3541 -0.1844 -0.9169
vn 0.2374 0.0486 -0.9702
vn 0.2893 -0.7355 -0.6126
vn 0.4543 -0.4142 -0.7887
vn 0.9614 0.2610 -0.0871
vn 0.9020 0.4223 0.0897
vn 0.9965 0.0516 -0.0661
vn 0.8930 0.4054 0.1955
vn -0.5740 0.8144 0.0854
vn 0.7725 0.5425 -0.3301
vn 0.8234 -0.5638 0.0649
vn 0.5345 0.8329 -0.1435
vn -0.1994 0.9755 0.0935
vn 0.9110 0.2414 -0.3343
vn 0.9396 -0.3078 -0.1494
vn 0.2682 -0.0882 -0.9593
vn -0.0362 0.1430 0.9891
vn 0.0299 0.1567 0.9872
vn -0.0284 0.1664 0.9856
vn 0.0164 0.1325 0.9910
vn 0.0142 0.1773 0.9841
vn 0.0419 0.1215 0.9917
vn 0.0012 0.1074 0.9942
vn 0.0733 0.1579 0.9847
vn 0.0022 0.1735 0.9848
vn 0.0527 0.1470 0.9877
vn 0.1896 -0.2458 0.9506
vn -0.0215 0.1935 0.9809
vn 0.2946 -0.1715 0.9401
vn -0.3850 0.4706 0.7939
vn -0.3909 0.2931 0.8725
vn -0.1506 -0.1440 0.9781
vn 0.7080 0.4165 0.5704
vn -0.2073 -0.0888 0.9742
vn -0.4985 0.3934 0.7725
vn 0.0136 -0.2184 0.9758
vn 0.3337 0.8941 0.2988
vn 0.5388 -0.1232 0.8334
vn 0.5330 -0.1901 0.8245
vn -0.0131 0.3637 0.9314
vn 0.0250 -0.5007 0.8653
vn -0.0211 0.9966 0.0802
vn 0.7627 0.1980 0.6156
vn 0.8701 -0.3272 0.3686
vn -0.4234 0.3326 -0.8427
vn -0.9458 -0.3082 0.1024
vn -0.9901 -0.0026 -0.1401
vn -0.9893 0.1304 0.0654
vn -0.9158 -0.1393 0.3767
vn -0.8626 -0.0535 0.5030
vn -0.4758 -0.2766 0.8349
vn -0.2161 -0.8812 0.4204
vn -0.2485 -0.5501 0.7972
vn -0.1471 0.5734 -0.8060
vn -0.2575 0.6861 -0.6804
vn -0.2933 0.4238 -0.8570
vn 0.0762 -0.3881 -0.9185
vn 0.0592 -0.9940 0.0923
vn -0.6766 0.5145 0.5268
vn 0.0209 -0.3050 -0.9521
vn 0.5092 -0.3035 -0.8054
vn -0.0146 0.0075 -0.9999
vn -0.1402 -0.9900 0.0163
vn -0.8654 0.3447 -0.3636
vn -0.9558 -0.1840 -0.2292
vn -0.2647 0.5275 -0.8073
vn -0.9946 0.0991 0.0308
vn -0.5703 -0.8140 -0.1104
vn -0.2324 0.5554 -0.7984
vn -0.1518 0.3936 -0.9067
vn 0.7468 0.1336 -0.6515
vn -0.6991 -0.4558 -0.5509
vn -0.2865 0.6241 -0.7270
vn 0.9857 -0.1226 0.1155
vn -0.8409 -0.1277 -0.5259
vn -0.0714 0.3869 -0.9194
vn -0.8044 0.1639 0.5710
vn 0.0705 0.1330 0.9886
vn -0.2278 -0.3928 0.8910
vn 0.0282 -0.9213 0.3879
vn -0.2295 -0.5085 0.8299
vn -0.3667 -0.3125 0.8763
vn -0.8163 -0.0239 -0.5771
vn -0.4086 0.5020 -0.7623
vn -0.7323 -0.0465 0.6794
vn -0.0684 -0.1122 0.9913
vn -0.4162 0.6920 -0.5899
vn -0.2961 0.6366 -0.7121
vn -0.0883 0.4134 -0.9063
vn -0.9205 0.3225 0.2208
vn -0.5600 -0.1308 0.8181
vn -0.9383 -0.1672 -0.3027
vn 0.1573 -0.6896 -0.7069
vn -0.9937 0.1058 -0.0358
vn -0.9237 -0.1658 -0.3455
vn -0.2532 0.7602 -0.5983
vn -0.2853 -0.8516 0.4397
vn -0.9875 0.1478 0.0555
vn -0.4381 0.4761 -0.7625
vn -0.3735 0.5834 -0.7212
vn -0.9822 0.1850 -0.0312
vn -0.3568 0.3088 -0.8817
vn -0.0784 0.9966 0.0248
vn -0.1884 -0.9820 -0.0110
vn -0.9735 -0.2217 0.0561
vn -0.4352 0.6744 -0.5965
vn -0.1560 0.9097 -0.3849
vn 0.0301 0.8396 0.5424
vn -0.1907 -0.6417 0.7428
vn -0.8362 -0.1108 0.5371
vn -0.2219 -0.9647 0.1416
vn -0.0640 0.1342 0.9889
vn -0.2156 -0.9760 -0.0315
vn -0.9298 -0.2762 -0.2433
vn -0.0165 -0.1844 0.9827
vn -0.8728 -0.3915 0.2914
vn -0.3405 -0.9145 0.2184
vn -0.0336 -0.1707 0.9848
vn -0.5096 0.6168 -0.5999
vn -0.4695 0.6679 -0.5775
vn -0.7377 0.2966 0.6065
vn -0.4098 0.9072 0.0956
vn -0.1632 -0.9850 -0.0565
vn -0.1873 -0.7674 0.6132
vn -0.8763 0.1489 0.4582
vn -0.3690 0.8527 -0.3699
vn -0.3545 0.7375 0.5749
vn -0.1320 -0.9854 0.1076
vn -0.3991 0.7753 0.4895
vn -0.1709 -0.9852 0.0093
vn -0.5213 0.2736 0.8084
vn -0.1589 -0.9858 0.0550
vn -0.3960 -0.7532 0.5253
vn 0.3189 0.0191 0.9476
vn 0.0256 0.8783 0.4774
vn -0.1925 -0.9813 0.0080
vn -0.9745 -0.2058 0.0898
vn -0.0218 -0.2514 0.9676
vn -0.0330 0.9281 0.3708
vn -0.6180 0.2365 0.7498
vn -0.1554 -0.9872 0.0363
vn 0.1504 0.3532 0.9234
vn -0.4372 0.8529 0.2853
vn -0.3182 0.2636 0.9107
vn -0.0534 -0.9464 0.3186
vn -0.3346 -0.8191 0.4660
vn -0.7752 -0.1609 0.6109
vn -0.3871 0.7307 0.5623
vn -0.1599 -0.9869 0.0224
vn -0.8383 0.2412 0.4889
vn 0.0338 0.8144 0.5794
vn -0.2342 -0.9708 0.0513
vn -0.8777 -0.2613 0.4016
vn -0.8424 -0.4811 -0.2426
vn -0.9941 0.0802 -0.0728
vn -0.9554 -0.1623 -0.2465
vn -0.9782 0.2075 -0.0095
vn -0.9752 -0.1568 -0.1559
vn -0.9761 0.0733 0.2045
vn -0.5830 0.6542 0.4819
vn -0.9152 0.3941 -0.0848
vn 0.2732 -0.2203 0.9364
vn -0.4318 0.4382 0.7884
vn 0.1961 -0.2427 -0.9501
vn -0.9364 -0.2251 0.2694
vn 0.9983 0.0552 0.0170
vn 0.9842 0.0578 0.1674
vn -0.9666 -0.0896 -0.2402
vn -0.4141 -0.4065 0.8144
vn -0.9185 -0.2827 0.2763
vn 0.7508 -0.1937 0.6314
vn 0.3403 0.0445 -0.9393
vn 0.9967 -0.0804 -0.0090
vn -0.9384 -0.2743 0.2101
vn 0.9756 0.2187 0.0204
vn 0.9749 0.1300 0.1810
vn -0.9583 -0.1006 -0.2675
vn -0.3161 -0.5114 0.7991
vn -0.7746 0.1355 -0.6177
vn 0.8130 -0.1251 0.5687
vn 0.1275 -0.4002 0.9075
vn 0.6535 -0.1442 -0.7431
vn -0.7814 -0.1460 -0.6067
vn 0.1061 0.2146 -0.9709
vn -0.9925 -0.0491 -0.1118
vn 0.9755 0.2186 0.0226
vn 0.9583 0.1844 0.2181
vn -0.9653 -0.0710 -0.2514
vn -0.9969 -0.0705 0.0349
vn 0.0777 0.3662 -0.9273
vn 0.7517 -0.1868 0.6324
vn 0.1226 -0.4888 0.8637
vn 0.5705 0.4016 -0.7164
vn 0.1836 -0.9631 -0.1970
vn 0.1686 -0.9708 -0.1707
vn 0.1764 -0.9717 -0.1573
vn 0.1799 -0.9629 -0.2011
vn 0.1839 -0.9676 -0.1732
vn 0.1728 -0.9723 -0.1573
vn 0.8282 0.1762 0.5320
vn 0.9129 0.2292 0.3376
vn 0.5550 0.2689 -0.7872
vn -0.7663 0.0146 -0.6423
vn -0.7778 0.0379 -0.6274
vn 0.5611 0.2687 -0.7829
vn 0.0343 -0.0159 0.9993
vn 0.7451 0.1465 0.6507
vn -0.3912 -0.0485 0.9190
vn -0.9679 -0.0212 -0.2505
vn 0.9515 0.2244 0.2105
vn 0.9656 0.2582 0.0323
vn -0.9999 -0.0123 0.0021
vn 0.1089 0.2002 -0.9737
vn -0.3652 -0.1790 0.9135
vn 0.0476 -0.1189 0.9918
vn -0.3412 0.6656 0.6637
vn 0.1809 -0.9596 -0.2154
vn -0.1196 0.7047 0.6993
vn 0.1849 -0.9587 -0.2161
vn -0.9960 0.0078 -0.0892
vn -0.8951 -0.3562 -0.2681
vn -0.9822 -0.1832 0.0409
vn -0.9451 0.0940 -0.3130
vn -0.6904 -0.2053 0.6937
vn -0.5681 0.4565 -0.6848
vn -0.9832 -0.1762 0.0488
vn -0.3005 0.5584 -0.7732
vn 0.9336 0.0891 0.3469
vn 0.5041 -0.2959 -0.8114
vn 0.2026 0.0700 0.9768
vn -0.9881 -0.1508 0.0319
vn 0.0343 -0.0347 -0.9988
vn 0.6345 0.0724 -0.7695
vn 0.9946 -0.1014 -0.0215
vn 0.0278 -0.2755 0.9609
vn 0.3918 0.0688 -0.9175
vn 0.8862 0.1036 0.4515
vn -0.9825 -0.1137 -0.1478
vn 0.9903 0.1232 -0.0648
vn -0.5971 -0.0348 0.8014
vn -0.0039 -0.3633 -0.9317
vn -0.9177 -0.2185 -0.3317
vn 0.9999 0.0061 -0.0124
vn 0.1496 -0.9887 -0.0026
vn 0.1009 -0.9945 -0.0284
vn 0.1215 -0.9886 -0.0886
vn 0.1534 -0.9857 -0.0702
vn 0.9766 0.1129 0.1830
vn -0.9749 -0.0896 0.2040
vn -0.0153 0.0213 -0.9997
vn -0.9122 -0.1037 -0.3964
vn -0.9290 0.0074 -0.3699
vn -0.0282 0.0509 -0.9983
vn -0.4816 0.0331 0.8758
vn 0.8805 0.3708 0.2954
vn 0.9604 0.2762 -0.0372
vn -0.9941 0.1060 -0.0220
vn 0.1059 0.0792 0.9912
vn 0.3983 0.1292 -0.9081
vn 0.1169 0.1197 0.9859
vn -0.5127 0.0607 0.8564
vn -0.0031 0.7432 0.6691
vn 0.0868 -0.9962 0.0035
vn -0.4218 0.6688 0.6122
vn 0.1475 -0.9888 0.0212
vn 0.4587 -0.2105 -0.8633
vn 0.2382 -0.2937 0.9257
vn -0.9762 -0.2148 0.0303
vn 0.9981 0.0406 -0.0472
vn 0.9402 0.0303 0.3393
vn -0.5216 -0.3808 0.7635
vn -0.0007 -0.2724 -0.9622
vn -0.9080 -0.2111 -0.3619
vn -0.3735 -0.4223 -0.8259
vn -0.3478 -0.9343 0.0786
vn -0.3474 -0.1868 -0.9189
vn -0.2344 0.0513 -0.9708
vn -0.2523 -0.7762 -0.5778
vn -0.5062 -0.4502 -0.7355
vn -0.9608 0.2732 -0.0469
vn -0.8986 0.4239 0.1135
vn -0.9969 0.0643 -0.0446
vn -0.8825 0.4185 0.2148
vn 0.5785 0.8140 0.0527
vn -0.7750 0.5473 -0.3160
vn -0.8219 -0.5628 0.0881
vn -0.5297 0.8371 -0.1365
vn 0.2124 0.9738 0.0806
vn -0.9155 0.2487 -0.3163
vn -0.9440 -0.3032 -0.1301
vn -0.2975 -0.0842 -0.9510
vn 0.0653 0.1417 0.9877
vn -0.0003 0.1542 0.9880
vn 0.0584 0.1642 0.9847
vn 0.0131 0.1302 0.9914
vn 0.0152 0.1757 0.9843
vn -0.0123 0.1191 0.9928
vn 0.0305 0.1065 0.9938
vn -0.0436 0.1577 0.9865
vn 0.0271 0.1721 0.9847
vn -0.0213 0.1509 0.9883
vn -0.1594 -0.2457 0.9561
vn 0.0505 0.1928 0.9799
vn -0.2700 -0.1711 0.9475
vn 0.4089 0.4709 0.7817
vn 0.4163 0.2900 0.8617
vn 0.1756 -0.1493 0.9731
vn -0.6942 0.4256 0.5805
vn 0.2350 -0.0932 0.9675
vn 0.5203 0.3935 0.7579
vn 0.0100 -0.2211 0.9752
vn -0.3049 0.9016 0.3068
vn -0.5203 -0.1107 0.8468
vn -0.5164 -0.1777 0.8377
vn 0.0452 0.3630 0.9307
vn -0.0150 -0.5002 0.8658
vn 0.0467 0.9958 0.0794
vn -0.7421 0.2158 0.6346
vn 0.8946 -0.3849 0.2272
vn 0.9984 0.0086 0.0551
vn 0.7249 -0.6704 0.1585
vn 0.0929 -0.7791 -0.6200
vn 0.0244 -0.5346 -0.8448
vn 0.9415 0.3220 0.0998
vn 0.6973 0.0279 0.7162
vn 0.3481 -0.5245 0.7770
vn -0.6200 -0.3506 -0.7019
vn -0.4331 -0.0762 -0.8981
vn 0.8021 0.2991 0.5169
vn 0.6067 0.0130 0.7948
vn -0.3993 -0.8061 0.4367
vn -0.6403 -0.2015 -0.7412
vn -0.3682 0.0979 -0.9246
vn 0.4621 0.4522 0.7629
vn 0.2575 0.2070 0.9438
vn -0.9984 -0.0086 -0.0551
vn -0.7669 0.1109 -0.6321
vn -0.4441 0.7748 -0.4499
vn -0.7249 0.6704 -0.1585
vn -0.6824 0.5289 -0.5046
vn -0.6998 0.2523 -0.6683
vn -0.8946 0.3849 -0.2272
vn -0.8597 0.1466 -0.4892
vn -0.8856 0.0104 -0.4643
vn -0.7100 0.4874 0.5083
vn -0.7703 0.2358 0.5924
vn -0.1599 0.1356 0.9778
vn -0.0243 0.5346 0.8448
vn 0.2688 0.3407 0.9009
vn 0.4318 0.3171 0.8444
vn -0.0929 0.7791 0.6200
vn 0.2702 0.6927 0.6687
vn 0.2352 0.8917 0.3868
vn -0.3481 0.5245 -0.7770
vn -0.4707 0.2193 -0.8546
vn -0.5932 0.1419 -0.7924
vn -0.6973 -0.0279 -0.7162
vn -0.7079 -0.1209 -0.6959
vn -0.7860 -0.1334 -0.6036
vn -0.9415 -0.3220 -0.0998
vn -0.6261 -0.5201 0.5809
vn -0.0621 -0.1707 0.9834
vn 0.4331 0.0762 0.8981
vn 0.5375 0.0933 0.8381
vn 0.5469 0.1861 0.8163
vn 0.6200 0.3506 0.7019
vn 0.6959 0.4200 0.5825
vn 0.6060 0.6886 0.3982
vn -0.6067 -0.0130 -0.7948
vn -0.5375 -0.0933 -0.8381
vn -0.5469 -0.1861 -0.8163
vn -0.8021 -0.2992 -0.5169
vn -0.6959 -0.4200 -0.5825
vn -0.6060 -0.6886 -0.3982
vn 0.3682 -0.0979 0.9246
vn 0.4707 -0.2193 0.8546
vn 0.5932 -0.1419 0.7924
vn 0.6403 0.2015 0.7412
vn 0.7079 0.1209 0.6959
vn 0.7860 0.1335 0.6036
vn 0.3993 0.8061 -0.4367
vn 0.6261 0.5201 -0.5809
vn 0.0621 0.1707 -0.9834
vn -0.2576 -0.2070 -0.9438
vn -0.2688 -0.3407 -0.9009
vn -0.4318 -0.3171 -0.8444
vn -0.4621 -0.4522 -0.7629
vn -0.2702 -0.6927 -0.6687
vn -0.2351 -0.8917 -0.3868
vn 0.4441 -0.7748 0.4499
vn 0.6824 -0.5289 0.5047
vn 0.6998 -0.2523 0.6683
vn 0.1599 -0.1356 -0.9778
vn 0.7703 -0.2358 -0.5924
vn 0.7100 -0.4874 -0.5083
vn 0.7669 -0.1109 0.6322
vn 0.8597 -0.1466 0.4892
vn 0.8856 -0.0104 0.4643
vn -0.8974 -0.3637 0.2498
vn -0.9963 0.0322 0.0803
vn -0.7363 -0.6531 0.1769
vn -0.1269 -0.7765 -0.6172
vn -0.0582 -0.5336 -0.8437
vn -0.9308 0.3441 0.1234
vn -0.6782 0.0441 0.7336
vn -0.3407 -0.5164 0.7857
vn 0.5936 -0.3649 -0.7173
vn 0.4084 -0.0862 -0.9087
vn -0.7815 0.3179 0.5369
vn -0.5859 0.0271 0.8099
vn 0.3910 -0.8155 0.4267
vn 0.6165 -0.2163 -0.7571
vn 0.3469 0.0894 -0.9336
vn -0.4319 0.4627 0.7742
vn -0.2287 0.2127 0.9500
vn 0.9963 -0.0322 -0.0803
vn 0.7531 0.0929 -0.6513
vn 0.4508 0.7642 -0.4612
vn 0.7363 0.6531 -0.1769
vn 0.6817 0.5127 -0.5218
vn 0.6885 0.2359 -0.6858
vn 0.8974 0.3637 -0.2498
vn 0.8504 0.1264 -0.5108
vn 0.8736 -0.0104 -0.4865
vn 0.7339 0.4704 0.4901
vn 0.7904 0.2174 0.5727
vn 0.1877 0.1315 0.9734
vn 0.0583 0.5336 0.8437
vn -0.2379 0.3467 0.9073
vn -0.4028 0.3269 0.8549
vn 0.1270 0.7765 0.6172
vn -0.2368 0.6987 0.6751
vn -0.2041 0.8969 0.3924
vn 0.3407 0.5164 -0.7857
vn 0.4541 0.2084 -0.8663
vn 0.5762 0.1281 -0.8072
vn 0.6781 -0.0442 -0.7336
vn 0.6871 -0.1374 -0.7135
vn 0.7672 -0.1518 -0.6232
vn 0.9308 -0.3441 -0.1234
vn 0.6281 -0.5349 0.5651
vn 0.0828 -0.1724 0.9815
vn -0.4084 0.0862 0.9087
vn -0.5138 0.1057 0.8514
vn -0.5215 0.1987 0.8298
vn -0.5936 0.3649 0.7173
vn -0.6709 0.4361 0.5997
vn -0.5793 0.7026 0.4132
vn 0.5859 -0.0271 -0.8099
vn 0.5138 -0.1057 -0.8514
vn 0.5215 -0.1987 -0.8298
vn 0.7815 -0.3179 -0.5369
vn 0.6709 -0.4361 -0.5997
vn 0.5793 -0.7027 -0.4131
vn -0.3469 -0.0894 0.9336
vn -0.4541 -0.2084 0.8663
vn -0.5762 -0.1281 0.8072
vn -0.6165 0.2163 0.7571
vn -0.6871 0.1374 0.7135
vn -0.7672 0.1518 0.6232
vn -0.3910 0.8155 -0.4268
vn -0.6281 0.5349 -0.5651
vn -0.0828 0.1725 -0.9815
vn 0.2287 -0.2127 -0.9500
vn 0.2379 -0.3467 -0.9073
vn 0.4028 -0.3269 -0.8549
vn 0.4319 -0.4628 -0.7742
vn 0.2368 -0.6987 -0.6751
vn 0.2042 -0.8969 -0.3923
vn -0.4508 -0.7642 0.4612
vn -0.6817 -0.5128 0.5219
vn -0.6885 -0.2359 0.6858
vn -0.1877 -0.1315 -0.9734
vn -0.7904 -0.2174 -0.5728
vn -0.7339 -0.4704 -0.4901
vn -0.7531 -0.0930 0.6513
vn -0.8504 -0.1264 0.5108
vn -0.8736 0.0104 0.4865
vt 0.833374 0.494548
vt 0.893919 0.512741
vt 0.908415 0.468160
vt 0.848637 0.467455
vt 0.567859 0.867914
vt 0.639317 0.828812
vt 0.620915 0.894044
vt 0.556155 0.927906
vt 0.812683 0.509803
vt 0.774909 0.642712
vt 0.751394 0.643294
vt 0.751725 0.493743
vt 0.828812 0.793372
vt 0.751727 0.811870
vt 0.672932 0.807420
vt 0.672336 0.642732
vt 0.672998 0.503429
vt 0.598676 0.643182
vt 0.594201 0.530171
vt 0.560191 0.672195
vt 0.619753 0.672998
vt 0.599703 0.594201
vt 0.569702 0.558226
vt 0.580250 0.833374
vt 0.635423 0.812683
vt 0.637090 0.751725
vt 0.569078 0.759035
vt 0.500000 0.859251
vt 0.500000 0.750726
vt 0.569078 0.758996
vt 0.500000 0.657595
vt 0.560191 0.671923
vt 0.604420 0.951058
vt 0.545714 0.976119
vt 0.604420 0.548422
vt 0.626365 0.643481
vt 0.688416 0.643970
vt 0.666902 0.547256
vt 0.500000 0.917421
vt 0.563590 0.893919
vt 0.639317 0.793372
vt 0.659328 0.642712
vt 0.676970 0.643370
vt 0.671449 0.761101
vt 0.555994 0.632181
vt 0.545714 0.747180
vt 0.604420 0.735145
vt 0.572975 0.538591
vt 0.666902 0.715601
vt 0.500000 0.969030
vt 0.572975 0.947229
vt 0.501290 0.830086
vt 0.457158 0.830118
vt 0.460328 0.806630
vt 0.500288 0.803578
vt 0.499838 0.512886
vt 0.460007 0.507514
vt 0.481582 0.413128
vt 0.510774 0.417065
vt 0.500000 0.559830
vt 0.556447 0.575135
vt 0.579931 0.796381
vt 0.599703 0.530171
vt 0.637090 0.643182
vt 0.659115 0.643738
vt 0.643940 0.535244
vt 0.564556 0.492909
vt 0.500000 0.477524
vt 0.500000 0.432743
vt 0.566016 0.447361
vt 0.569702 0.518348
vt 0.616981 0.429733
vt 0.594994 0.421068
vt 0.612448 0.796381
vt 0.637526 0.771615
vt 0.500000 0.371229
vt 0.561082 0.382998
vt 0.450625 0.491920
vt 0.495971 0.498202
vt 0.507939 0.406303
vt 0.474705 0.401699
vt 0.591615 0.535244
vt 0.575831 0.433451
vt 0.407144 0.499901
vt 0.406490 0.640437
vt 0.358675 0.605643
vt 0.363238 0.556600
vt 0.578790 0.420824
vt 0.621227 0.407144
vt 0.601979 0.363238
vt 0.551080 0.357545
vt 0.500000 0.657756
vt 0.500000 0.571782
vt 0.667216 0.508652
vt 0.621227 0.499901
vt 0.632756 0.407548
vt 0.666461 0.413961
vt 0.556577 0.771615
vt 0.637090 0.751727
vt 0.260484 0.580516
vt 0.278839 0.520364
vt 0.582070 0.278839
vt 0.540875 0.268345
vt 0.619753 0.672932
vt 0.500000 0.307117
vt 0.551080 0.314473
vt 0.500000 0.983839
vt 0.393435 0.816867
vt 0.325561 0.763148
vt 0.671449 0.517077
vt 0.635423 0.509803
vt 0.642381 0.470278
vt 0.671266 0.470798
vt 0.988807 0.740196
vt 1.002924 0.661469
vt 1.015365 0.669173
vt 1.001496 0.721513
vt 0.500000 0.531683
vt 0.500000 0.631036
vt 0.249130 0.712570
vt 0.191059 0.679456
vt 0.198981 0.567653
vt 0.945839 0.547256
vt 0.886123 0.529161
vt 0.904522 0.470747
vt 0.963512 0.471464
vt 0.500000 0.238897
vt 0.540875 0.239236
vt 0.564556 0.495971
vt 0.612448 0.579931
vt 0.628268 0.501290
vt 0.631115 0.457158
vt 0.168698 0.648799
vt 0.177283 0.553376
vt 0.539817 0.181283
vt 0.500000 0.184290
vt 0.500000 0.144817
vt 0.539817 0.140934
vt 0.580006 0.205473
vt 0.539817 0.196322
vt 0.205473 0.476864
vt 0.621491 0.393435
vt 0.538703 0.608225
vt 0.500000 0.615960
vt 0.500000 0.567098
vt 0.526605 0.560962
vt 0.566016 0.450625
vt 0.149293 0.452102
vt 0.133162 0.541160
vt 0.103583 0.505809
vt 0.123733 0.441345
vt 0.539531 0.141037
vt 0.579447 0.149293
vt 0.562090 0.123733
vt 0.530633 0.116366
vt 0.500000 0.385014
vt 0.500000 0.353218
vt 0.586057 0.174337
vt 0.542919 0.165879
vt 0.174337 0.464471
vt 0.086614 0.427976
vt 0.065909 0.448336
vt 0.053210 0.428901
vt 0.071388 0.423606
vt 0.515797 0.085531
vt 0.531484 0.086614
vt 0.523242 0.071388
vt 0.510720 0.071544
vt 0.500000 0.266808
vt 0.601979 0.325561
vt 0.582070 0.249130
vt 0.108290 0.599988
vt 0.073849 0.556649
vt 0.580006 0.679456
vt 0.539817 0.690304
vt 0.539817 0.657159
vt 0.579599 0.648799
vt 0.500000 0.199929
vt 0.513331 0.045311
vt 0.500000 0.046647
vt 0.500000 0.069896
vt 0.051602 0.475706
vt 0.038205 0.462176
vt 0.038356 0.442272
vt 0.580006 0.191059
vt 0.577833 0.599988
vt 0.554232 0.556649
vt 0.500000 0.147087
vt 0.500000 0.124516
vt 0.530339 0.475706
vt 0.515210 0.477146
vt 0.513246 0.460736
vt 0.522445 0.462176
vt 0.500000 0.170521
vt 0.515546 0.457928
vt 0.507613 0.457080
vt 0.506877 0.445401
vt 0.514439 0.446199
vt 0.500000 0.089031
vt 0.528336 0.053210
vt 0.620841 0.601238
vt 0.618568 0.607555
vt 0.613078 0.604170
vt 0.614718 0.599612
vt 0.500000 0.479371
vt 0.500000 0.460095
vt 0.513331 0.424258
vt 0.512541 0.440917
vt 0.500000 0.440864
vt 0.500000 0.422187
vt 0.500000 0.664242
vt 0.576432 0.505809
vt 0.539481 0.507406
vt 0.547321 0.467354
vt 0.500000 0.513551
vt 0.519044 0.508271
vt 0.579599 0.168698
vt 0.538703 0.096221
vt 0.577833 0.108290
vt 0.520322 0.097153
vt 0.500000 0.106427
vt 0.541975 0.104341
vt 0.078394 0.467354
vt 0.104341 0.437145
vt 0.073220 0.507406
vt 0.590300 0.643738
vt 0.499630 0.641384
vt 0.459655 0.640419
vt 0.417546 0.774144
vt 0.414448 0.641253
vt 0.423095 0.508652
vt 0.621491 0.816867
vt 0.648114 0.640437
vt 0.669097 0.641253
vt 0.644267 0.774144
vt 0.578790 0.496630
vt 0.601625 0.405151
vt 0.649402 0.433451
vt 0.651726 0.367843
vt 0.620780 0.366797
vt 0.454529 0.413961
vt 0.467814 0.368189
vt 0.488225 0.366596
vt 0.561691 0.421068
vt 0.537425 0.365401
vt 0.507200 0.363509
vt 0.481273 0.364028
vt 0.510983 0.366114
vt 0.635806 0.367147
vt 0.669092 0.368189
vt 0.420824 0.496630
vt 0.452865 0.405151
vt 0.558226 0.518348
vt 0.484328 0.324872
vt 0.502799 0.322553
vt 0.547406 0.321655
vt 0.519920 0.320969
vt 0.496410 0.322232
vt 0.523434 0.321439
vt 0.639292 0.324944
vt 0.675657 0.324872
vt 0.550036 0.367843
vt 0.558926 0.322330
vt 0.465216 0.366023
vt 0.604868 0.366023
vt 0.599660 0.365401
vt 0.621651 0.293283
vt 0.658462 0.293469
vt 0.659368 0.261742
vt 0.621257 0.261665
vt 0.501495 0.293600
vt 0.482345 0.307625
vt 0.480362 0.262732
vt 0.500191 0.261781
vt 0.519246 0.292376
vt 0.547742 0.292993
vt 0.548078 0.261464
vt 0.518571 0.260916
vt 0.494871 0.293528
vt 0.493332 0.261956
vt 0.522889 0.292587
vt 0.522344 0.260869
vt 0.451756 0.288897
vt 0.449773 0.262732
vt 0.656778 0.322330
vt 0.622394 0.322035
vt 0.481902 0.324350
vt 0.605664 0.324350
vt 0.599057 0.321655
vt 0.595403 0.548078
vt 0.621257 0.561263
vt 0.645824 0.523009
vt 0.590945 0.518571
vt 0.639859 0.470735
vt 0.648324 0.498544
vt 0.685407 0.500191
vt 0.686261 0.480362
vt 0.592251 0.493332
vt 0.659368 0.560446
vt 0.683143 0.522344
vt 0.596433 0.477757
vt 0.479829 0.307317
vt 0.477757 0.262636
vt 0.447168 0.262636
vt 0.449241 0.288588
vt 0.596679 0.292993
vt 0.595403 0.261464
vt 0.559686 0.293469
vt 0.560446 0.261742
vt 0.603589 0.307317
vt 0.640355 0.307779
vt 0.679739 0.307625
vt 0.677932 0.288897
vt 0.639680 0.289050
vt 0.639859 0.262967
vt 0.679465 0.262732
vt 0.604354 0.288588
vt 0.603287 0.262636
vt 0.679739 0.482345
vt 0.640355 0.473048
vt 0.639680 0.442459
vt 0.677932 0.451756
vt 0.679465 0.449773
vt 0.639859 0.440146
vt 0.603589 0.479829
vt 0.604354 0.449241
vt 0.603287 0.447168
vt 0.841501 0.761101
vt 0.796910 0.643370
vt 0.906455 0.644155
vt 0.894416 0.742499
vt 0.957194 0.643970
vt 0.829265 0.517077
vt 0.940741 0.715601
vt 0.671449 0.841501
vt 0.669190 0.894416
vt 0.849398 0.470798
vt 0.666902 0.940741
vt 0.909364 0.402088
vt 0.855378 0.389954
vt 0.592313 0.470184
vt 0.617524 0.471308
vt 0.621192 0.417417
vt 0.598226 0.414426
vt 0.598146 0.467455
vt 0.603540 0.389954
vt 0.643835 0.389418
vt 0.855424 0.393127
vt 0.905341 0.403681
vt 0.667620 0.471464
vt 0.947229 0.538591
vt 0.963044 0.470184
vt 0.580250 0.494548
vt 0.595712 0.312254
vt 0.621272 0.312916
vt 0.622837 0.264476
vt 0.597277 0.263453
vt 0.852894 0.313492
vt 0.849695 0.260671
vt 0.818572 0.260902
vt 0.821566 0.286829
vt 0.893654 0.314609
vt 0.853541 0.316407
vt 0.850246 0.263617
vt 0.890422 0.263754
vt 0.896415 0.312211
vt 0.936226 0.312254
vt 0.933075 0.263453
vt 0.893263 0.261490
vt 0.670148 0.393127
vt 0.666826 0.415674
vt 0.958612 0.415674
vt 0.958434 0.414426
vt 0.649700 0.837975
vt 0.635627 0.887710
vt 0.686058 0.890422
vt 0.687133 0.850246
vt 0.592375 0.849695
vt 0.589648 0.893263
vt 0.597277 0.933075
vt 0.622837 0.940554
vt 0.673628 0.933416
vt 0.822213 0.289744
vt 0.819123 0.263848
vt 0.672063 0.313364
vt 0.673628 0.264581
vt 0.936602 0.313364
vt 0.933416 0.264581
vt 0.941647 0.364922
vt 0.899640 0.363406
vt 0.623001 0.364960
vt 0.665562 0.364922
vt 0.668659 0.362549
vt 0.644119 0.361871
vt 0.647700 0.316485
vt 0.685132 0.316407
vt 0.859879 0.359936
vt 0.902447 0.361457
vt 0.941330 0.363919
vt 0.860378 0.362549
vt 0.606538 0.359936
vt 0.590374 0.313492
vt 0.601582 0.363919
vt 0.646474 0.289822
vt 0.601626 0.286829
vt 0.603191 0.260902
vt 0.648039 0.263334
vt 0.675760 0.289744
vt 0.677325 0.263848
vt 0.647700 0.841274
vt 0.590374 0.852894
vt 0.601626 0.821566
vt 0.646474 0.809945
vt 0.648039 0.806852
vt 0.603191 0.818572
vt 0.685132 0.853541
vt 0.675760 0.822213
vt 0.677325 0.819123
vt 0.500000 0.668378
vt 0.500000 0.724779
vt 0.517225 0.721513
vt 0.520785 0.669173
vt 0.528698 1.002924
vt 0.500000 1.014901
vt 0.500000 1.025182
vt 0.520785 1.015365
vt 0.500000 0.744181
vt 0.519989 0.740196
vt 0.519989 0.988807
vt 0.500000 0.995348
vt 0.500000 0.660499
vt 0.528698 0.661469
vt 0.154177 0.616909
vt 0.166410 0.570048
vt 0.135838 0.608740
vt 0.149154 0.567675
vt 0.147623 0.572395
vt 0.137518 0.603560
vt 0.583783 0.154177
vt 0.583848 0.135838
vt 0.600568 0.131366
vt 0.597073 0.144428
vt 0.144166 0.612314
vt 0.141084 0.620214
vt 0.132632 0.614576
vt 0.134671 0.609983
vt 0.153028 0.593819
vt 0.141399 0.592146
vt 0.619182 0.132632
vt 0.614588 0.141084
vt 0.606252 0.140479
vt 0.610351 0.130579
vt 0.138199 0.601250
vt 0.148213 0.603179
vt 0.602487 0.570048
vt 0.583783 0.616909
vt 0.597073 0.624463
vt 0.606252 0.625520
vt 0.614588 0.620214
vt 0.620822 0.612314
vt 0.623703 0.603179
vt 0.620639 0.593819
vt 0.604695 0.577238
vt 0.601269 0.572395
vt 0.603531 0.567675
vt 0.609313 0.614171
vt 0.615687 0.610750
vt 0.619182 0.614576
vt 0.610351 0.619358
vt 0.602434 0.613212
vt 0.600568 0.617961
vt 0.626402 0.601250
vt 0.623276 0.609983
vt 0.618527 0.594500
vt 0.623272 0.592146
vt 0.590602 0.606787
vt 0.583848 0.608740
vt 0.592903 0.603615
vt 0.603070 0.582298
vt 0.613048 0.594751
vt 0.610999 0.606475
vt 0.606401 0.608943
vt 0.601438 0.608251
vt 0.586331 0.603560
vt 0.600598 0.578805
vt 0.589822 0.601288
vt 0.148133 0.578805
vt 0.140843 0.601288
vt 0.522445 0.038205
vt 0.513246 0.032036
vt 0.507613 0.025182
vt 0.515546 0.030102
vt 0.521458 0.442272
vt 0.528336 0.428901
vt 0.500000 0.456702
vt 0.500000 0.445370
vt 0.500000 0.031689
vt 0.512541 0.032373
vt 0.506877 0.025742
vt 0.500000 0.025886
vt 0.500000 0.031337
vt 0.500000 0.025479
vt 0.030102 0.457928
vt 0.030515 0.446199
vt 0.432141 0.867914
vt 0.443845 0.927906
vt 0.379085 0.894044
vt 0.360683 0.828812
vt 0.439809 0.672195
vt 0.430298 0.558226
vt 0.400297 0.594201
vt 0.380247 0.672998
vt 0.419750 0.833374
vt 0.430922 0.759035
vt 0.362910 0.751725
vt 0.364577 0.812683
vt 0.430922 0.758996
vt 0.439809 0.671923
vt 0.454286 0.976119
vt 0.395580 0.951058
vt 0.395580 0.548422
vt 0.333098 0.547256
vt 0.311584 0.643970
vt 0.373635 0.643481
vt 0.436410 0.893919
vt 0.360683 0.793372
vt 0.328551 0.761101
vt 0.323030 0.643370
vt 0.340672 0.642712
vt 0.444006 0.632181
vt 0.395580 0.735145
vt 0.454286 0.747180
vt 0.427025 0.538591
vt 0.333098 0.715601
vt 0.427025 0.947229
vt 0.443553 0.575135
vt 0.400297 0.530171
vt 0.356060 0.535244
vt 0.340885 0.643738
vt 0.362910 0.643182
vt 0.435444 0.492909
vt 0.433984 0.447361
vt 0.430298 0.518348
vt 0.405006 0.421068
vt 0.383019 0.429733
vt 0.362474 0.771615
vt 0.387552 0.796381
vt 0.438918 0.382998
vt 0.421210 0.420824
vt 0.448920 0.357545
vt 0.398021 0.363238
vt 0.378773 0.407144
vt 0.332784 0.508652
vt 0.333539 0.413961
vt 0.367244 0.407548
vt 0.378773 0.499901
vt 0.362910 0.751727
vt 0.459125 0.268345
vt 0.417930 0.278839
vt 0.380247 0.672932
vt 0.448920 0.314473
vt 0.328551 0.517077
vt 0.328734 0.470798
vt 0.357619 0.470278
vt 0.364577 0.509803
vt 0.459125 0.239236
vt 0.435444 0.495971
vt 0.387552 0.579931
vt 0.371732 0.501290
vt 0.368885 0.457158
vt 0.460183 0.181283
vt 0.460183 0.140934
vt 0.460183 0.196322
vt 0.419994 0.205473
vt 0.378509 0.393435
vt 0.461297 0.608225
vt 0.473395 0.560962
vt 0.433984 0.450625
vt 0.460469 0.141037
vt 0.469367 0.116366
vt 0.437911 0.123733
vt 0.420553 0.149293
vt 0.457081 0.165879
vt 0.413943 0.174337
vt 0.484203 0.085531
vt 0.489280 0.071544
vt 0.476758 0.071388
vt 0.468516 0.086614
vt 0.398021 0.325561
vt 0.417930 0.249130
vt 0.419994 0.679456
vt 0.420401 0.648799
vt 0.460183 0.657159
vt 0.460183 0.690304
vt 0.486669 0.045311
vt 0.419994 0.191059
vt 0.422167 0.599988
vt 0.445768 0.556649
vt 0.469661 0.475706
vt 0.477555 0.462176
vt 0.486754 0.460736
vt 0.484790 0.477146
vt 0.484454 0.457928
vt 0.485561 0.446199
vt 0.493123 0.445401
vt 0.492387 0.457080
vt 0.471665 0.053210
vt 0.379159 0.601238
vt 0.385282 0.599612
vt 0.386922 0.604170
vt 0.381432 0.607555
vt 0.486669 0.424258
vt 0.487459 0.440917
vt 0.423568 0.505809
vt 0.452679 0.467354
vt 0.460520 0.507406
vt 0.480956 0.508271
vt 0.420401 0.168698
vt 0.422167 0.108290
vt 0.461297 0.096221
vt 0.479678 0.097153
vt 0.458025 0.104341
vt 0.378509 0.816867
vt 0.355733 0.774144
vt 0.330903 0.641253
vt 0.351886 0.640437
vt 0.398375 0.405151
vt 0.421210 0.496630
vt 0.379220 0.366797
vt 0.348274 0.367843
vt 0.350598 0.433451
vt 0.330908 0.368189
vt 0.364194 0.367147
vt 0.324343 0.324872
vt 0.360708 0.324944
vt 0.395132 0.366023
vt 0.400340 0.365401
vt 0.378349 0.293283
vt 0.378743 0.261665
vt 0.340632 0.261742
vt 0.341538 0.293469
vt 0.377606 0.322035
vt 0.343222 0.322330
vt 0.394336 0.324350
vt 0.400943 0.321655
vt 0.404597 0.548078
vt 0.409055 0.518571
vt 0.354176 0.523009
vt 0.378743 0.561263
vt 0.360141 0.470735
vt 0.313739 0.480362
vt 0.314593 0.500191
vt 0.351676 0.498544
vt 0.407749 0.493332
vt 0.316857 0.522344
vt 0.340632 0.560446
vt 0.403567 0.477757
vt 0.403321 0.292993
vt 0.404597 0.261464
vt 0.359645 0.307779
vt 0.396411 0.307317
vt 0.320262 0.307625
vt 0.322068 0.288897
vt 0.320535 0.262732
vt 0.360141 0.262967
vt 0.360320 0.289050
vt 0.396713 0.262636
vt 0.395646 0.288588
vt 0.320262 0.482345
vt 0.322068 0.451756
vt 0.360320 0.442459
vt 0.359645 0.473048
vt 0.360141 0.440146
vt 0.320535 0.449773
vt 0.395646 0.449241
vt 0.396411 0.479829
vt 0.396713 0.447168
vt 0.330810 0.894416
vt 0.328551 0.841501
vt 0.333098 0.940741
vt 0.407688 0.470184
vt 0.401774 0.414426
vt 0.378808 0.417417
vt 0.382476 0.471308
vt 0.356165 0.389418
vt 0.396460 0.389954
vt 0.401854 0.467455
vt 0.332380 0.471464
vt 0.419750 0.494548
vt 0.404289 0.312254
vt 0.402723 0.263453
vt 0.377163 0.264476
vt 0.378728 0.312916
vt 0.329852 0.393127
vt 0.333174 0.415674
vt 0.350300 0.837975
vt 0.312867 0.850246
vt 0.313942 0.890422
vt 0.364373 0.887710
vt 0.410353 0.893263
vt 0.407625 0.849695
vt 0.377163 0.940554
vt 0.402723 0.933075
vt 0.326372 0.933416
vt 0.326372 0.264581
vt 0.327937 0.313364
vt 0.376999 0.364960
vt 0.334438 0.364922
vt 0.331341 0.362549
vt 0.314868 0.316407
vt 0.352300 0.316485
vt 0.355881 0.361871
vt 0.409626 0.313492
vt 0.393462 0.359936
vt 0.398418 0.363919
vt 0.353526 0.289822
vt 0.351961 0.263334
vt 0.396809 0.260902
vt 0.398374 0.286829
vt 0.324240 0.289744
vt 0.322675 0.263848
vt 0.352300 0.841274
vt 0.353526 0.809945
vt 0.398374 0.821566
vt 0.409626 0.852894
vt 0.396809 0.818572
vt 0.351961 0.806852
vt 0.314868 0.853541
vt 0.324240 0.822213
vt 0.322675 0.819123
vt 0.479215 0.669173
vt 0.482775 0.721513
vt 0.471302 1.002924
vt 0.479215 1.015365
vt 0.480011 0.740196
vt 0.480011 0.988807
vt 0.471302 0.661469
vt 0.416217 0.154177
vt 0.402927 0.144428
vt 0.399432 0.131366
vt 0.416152 0.135838
vt 0.380819 0.132632
vt 0.389649 0.130579
vt 0.393748 0.140479
vt 0.385412 0.141084
vt 0.397513 0.570048
vt 0.379361 0.593819
vt 0.376297 0.603179
vt 0.379178 0.612314
vt 0.385412 0.620214
vt 0.393748 0.625520
vt 0.402927 0.624463
vt 0.416217 0.616909
vt 0.395305 0.577238
vt 0.396469 0.567675
vt 0.398731 0.572395
vt 0.390687 0.614171
vt 0.389649 0.619358
vt 0.380819 0.614576
vt 0.384313 0.610750
vt 0.397566 0.613212
vt 0.399432 0.617961
vt 0.376724 0.609983
vt 0.373598 0.601250
vt 0.376728 0.592146
vt 0.381473 0.594500
vt 0.409398 0.606787
vt 0.416152 0.608740
vt 0.407098 0.603615
vt 0.398562 0.608251
vt 0.393599 0.608943
vt 0.389001 0.606475
vt 0.386952 0.594751
vt 0.396930 0.582298
vt 0.413669 0.603560
vt 0.399402 0.578805
vt 0.410178 0.601288
vt 0.477555 0.038205
vt 0.484454 0.030102
vt 0.492387 0.025182
vt 0.486754 0.032036
vt 0.478542 0.442272
vt 0.471665 0.428901
vt 0.493123 0.025742
vt 0.487459 0.032373
vt 0.181819 0.000000
vt 0.227273 0.078731
vt 0.136365 0.078731
vt 0.272728 0.157461
vt 0.318182 0.078731
vt 0.363637 0.157461
vt 0.909091 0.000000
vt 0.954545 0.078731
vt 0.863636 0.078731
vt 0.727273 0.000000
vt 0.772727 0.078731
vt 0.681818 0.078731
vt 0.545455 0.000000
vt 0.590909 0.078731
vt 0.500000 0.078731
vt 0.318182 0.236191
vt 0.090910 0.157461
vt 0.181819 0.157461
vt 0.136365 0.236191
vt 0.818182 0.157461
vt 0.909091 0.157461
vt 0.863636 0.236191
vt 0.636364 0.157461
vt 0.727273 0.157461
vt 0.681818 0.236191
vt 0.454546 0.157461
vt 0.545455 0.157461
vt 0.500000 0.236191
vt 0.227273 0.236191
vt 0.045455 0.236191
vt 0.772727 0.236191
vt 0.590909 0.236191
vt 0.409092 0.236191
vt 0.181819 0.314921
vt 0.272728 0.314921
vt 0.227273 0.393651
vt 0.000000 0.314921
vt 0.090910 0.314921
vt 0.045455 0.393651
vt 0.727273 0.314921
vt 0.818182 0.314921
vt 0.772727 0.393651
vt 0.545455 0.314921
vt 0.636364 0.314921
vt 0.590909 0.393651
vt 0.363637 0.314921
vt 0.454546 0.314921
vt 0.409092 0.393651
vt 0.500000 0.393651
vt 0.454546 0.472382
vt 0.681818 0.393651
vt 0.636364 0.472382
vt 0.863636 0.393651
vt 0.818182 0.472382
vt 0.909091 0.314921
vt 0.136365 0.393651
vt 0.090910 0.472382
vt 0.318182 0.393651
vt 0.272728 0.472382
vt 0.954545 0.236191
vt 1.000000 0.157461
vt 0.409092 0.078731
vt 0.363637 0.000000
s 1
f 116/1/1 98/2/1 209/3/1 208/4/1
f 115/5/2 4/6/2 17/7/2 97/8/2
f 3/9/3 7/10/3 13/11/3 8/12/3
f 7/10/4 4/13/4 9/14/4 13/11/4
f 13/11/5 9/14/5 2/15/5 10/16/5
f 8/12/6 13/11/6 10/16/6 1/17/6
f 1/17/7 10/16/7 32/18/7 29/19/7
f 114/20/8 1/21/8 29/22/8 83/23/8
f 116/24/9 3/25/9 8/26/9 109/27/9
f 109/27/10 8/26/10 1/21/10 114/20/10
f 115/5/11 6/28/11 15/29/11 99/30/11
f 99/30/12 15/29/12 12/31/12 112/32/12
f 97/8/13 17/7/13 21/33/13 90/34/13
f 20/35/14 25/36/14 203/37/14 204/38/14
f 116/24/15 5/28/15 18/39/15 98/40/15
f 4/41/16 7/42/16 197/43/16 196/44/16
f 89/45/17 90/46/17 21/47/17 25/36/17
f 91/48/18 89/45/18 25/36/18 20/35/18
f 25/36/19 21/47/19 202/49/19 203/37/19
f 98/40/20 18/39/20 23/50/20 91/51/20
f 38/52/21 45/53/21 134/54/21 131/55/21
f 133/56/22 136/57/22 144/58/22 146/59/22
f 112/32/23 12/31/23 34/60/23 82/61/23
f 10/16/24 2/15/24 30/62/24 32/18/24
f 29/63/25 32/64/25 129/65/25 130/66/25
f 75/67/26 41/68/26 48/69/26 73/70/26
f 82/61/27 34/60/27 41/68/27 75/67/27
f 83/71/28 29/63/28 141/72/28 140/73/28
f 32/64/29 30/74/29 128/75/29 129/65/29
f 73/70/30 48/69/30 56/76/30 66/77/30
f 74/78/31 81/79/31 145/80/31 148/81/31
f 130/82/32 133/56/32 146/59/32 147/83/32
f 6/28/33 115/5/33 97/8/33 19/39/33
f 54/84/34 53/85/34 60/86/34 61/87/34
f 67/88/35 54/89/35 61/90/35 65/91/35
f 11/92/36 114/20/36 83/23/36 33/93/36
f 5/28/37 116/24/37 109/27/37 14/29/37
f 14/29/38 109/27/38 114/20/38 11/92/38
f 139/94/39 54/95/39 143/96/39 142/97/39
f 30/62/40 38/52/40 131/55/40 128/98/40
f 4/6/41 115/5/41 99/30/41 9/99/41
f 61/87/42 60/86/42 69/100/42 70/101/42
f 65/91/43 61/90/43 70/102/43 58/103/43
f 9/99/44 99/30/44 112/32/44 2/104/44
f 66/77/45 56/76/45 63/105/45 64/106/45
f 19/39/46 97/8/46 90/34/46 24/107/46
f 53/85/47 52/108/47 59/109/47 60/86/47
f 198/110/48 3/111/48 207/112/48 213/113/48
f 256/114/49 255/115/49 253/116/49 254/117/49
f 23/118/50 26/119/50 89/45/50 91/48/50
f 69/100/51 68/120/51 76/121/51 77/122/51
f 204/123/52 201/124/52 211/125/52 212/126/52
f 64/106/53 63/105/53 72/127/53 57/128/53
f 33/93/54 83/23/54 81/129/54 40/68/54
f 60/86/55 59/109/55 68/120/55 69/100/55
f 2/104/56 112/32/56 82/61/56 30/130/56
f 38/131/57 75/67/57 73/70/57 45/132/57
f 77/122/58 76/121/58 259/133/58 260/134/58
f 30/130/59 82/61/59 75/67/59 38/131/59
f 50/135/60 80/136/60 88/137/60 44/138/60
f 58/103/61 70/102/61 78/139/61 51/140/61
f 70/101/62 69/100/62 77/122/62 78/141/62
f 45/132/63 73/70/63 66/77/63 52/142/63
f 57/128/64 72/127/64 80/136/64 50/135/64
f 28/143/65 110/144/65 96/145/65 42/146/65
f 40/68/66 81/129/66 74/147/66 47/69/66
f 108/148/67 262/149/67 93/150/67 94/151/67
f 31/152/68 108/153/68 94/154/68 43/155/68
f 55/156/69 67/88/69 65/91/69 62/157/69
f 51/140/70 78/139/70 86/158/70 49/159/70
f 78/141/71 77/122/71 260/134/71 86/160/71
f 47/69/72 74/147/72 67/88/72 55/156/72
f 123/161/73 124/162/73 101/163/73 102/164/73
f 121/165/74 123/166/74 102/167/74 37/168/74
f 62/157/75 65/91/75 58/103/75 71/169/75
f 52/142/76 66/77/76 64/106/76 59/170/76
f 59/170/77 64/106/77 57/128/77 68/171/77
f 262/149/78 261/172/78 92/173/78 93/150/78
f 76/174/79 50/175/79 44/176/79 259/177/79
f 71/169/80 58/103/80 51/140/80 79/178/80
f 37/168/81 35/179/81 105/180/81 103/181/81
f 124/162/82 127/182/82 297/183/82 298/184/82 101/163/82
f 68/171/83 57/128/83 50/135/83 76/185/83
f 261/186/84 28/143/84 42/146/84 92/187/84
f 107/188/85 31/152/85 43/155/85 95/189/85
f 127/190/86 122/191/86 295/192/86 297/193/86
f 79/178/87 51/140/87 49/159/87 87/194/87
f 100/195/88 36/196/88 301/197/88 104/198/88
f 126/199/89 121/165/89 37/168/89 103/181/89
f 102/167/90 101/200/90 35/179/90 37/168/90
f 274/201/91 273/202/91 290/203/91 291/204/91
f 122/191/92 125/205/92 300/206/92 295/192/92
f 49/159/93 86/158/93 108/153/93 31/152/93
f 86/160/94 260/134/94 262/149/94 108/148/94
f 35/207/95 296/208/95 299/209/95 105/210/95
f 44/176/96 88/211/96 110/144/96 28/143/96
f 93/212/97 92/187/97 120/213/97 119/214/97
f 87/194/98 49/159/98 31/152/98 107/188/98
f 42/146/99 96/145/99 113/215/99 27/216/99
f 259/217/100 44/138/100 28/218/100 261/219/100
f 92/187/101 42/146/101 27/216/101 120/213/101
f 95/189/102 43/155/102 22/220/102 118/221/102
f 43/155/103 94/154/103 117/222/103 22/220/103
f 94/151/104 93/150/104 119/223/104 117/224/104
f 120/213/105 27/216/105 122/191/105 127/190/105
f 118/221/106 22/220/106 121/165/106 126/199/106
f 119/223/107 120/225/107 127/182/107 124/162/107
f 27/216/108 113/215/108 125/205/108 122/191/108
f 22/220/109 117/222/109 123/166/109 121/165/109
f 117/224/110 119/223/110 124/162/110 123/161/110
f 130/82/111 129/226/111 132/227/111 133/56/111
f 132/227/112 131/55/112 134/54/112 135/228/112
f 129/226/113 128/98/113 131/55/113 132/227/113
f 135/228/114 134/54/114 137/229/114 138/230/114
f 133/56/115 132/227/115 135/228/115 136/57/115
f 136/57/116 135/228/116 138/230/116 139/231/116
f 52/232/117 53/233/117 138/234/117 137/235/117
f 45/53/118 52/108/118 137/229/118 134/54/118
f 54/95/119 67/236/119 149/237/119 143/96/119
f 53/233/120 54/95/120 139/94/120 138/234/120
f 141/72/121 147/238/121 157/239/121 39/240/121
f 144/58/122 142/241/122 150/242/122 153/243/122
f 145/80/123 140/244/123 46/245/123 154/246/123
f 148/81/124 145/80/124 154/246/124 158/247/124
f 146/59/125 144/58/125 153/243/125 156/248/125
f 142/97/126 143/96/126 151/249/126 150/250/126
f 136/57/127 139/231/127 142/241/127 144/58/127
f 67/251/128 74/78/128 148/81/128 149/252/128
f 29/63/129 130/66/129 147/238/129 141/72/129
f 81/79/130 83/253/130 140/244/130 145/80/130
f 153/243/131 150/242/131 162/254/131 164/255/131
f 154/246/132 46/245/132 160/256/132 165/257/132
f 158/247/133 154/246/133 165/257/133 168/258/133
f 156/248/134 153/243/134 164/255/134 166/259/134
f 150/250/135 151/249/135 163/260/135 162/261/135
f 157/262/136 156/248/136 166/259/136 167/263/136
f 149/252/137 148/81/137 158/247/137 159/264/137
f 143/96/138 149/237/138 159/265/138 151/249/138
f 140/73/139 141/72/139 39/240/139 46/266/139
f 147/83/140 146/59/140 156/248/140 157/262/140
f 188/267/141 187/268/141 177/269/141 152/270/141
f 184/271/142 185/272/142 170/273/142 173/274/142
f 182/275/143 180/276/143 155/277/143 174/278/143
f 181/279/144 182/275/144 174/278/144 178/280/144
f 183/281/145 184/271/145 173/274/145 176/282/145
f 170/273/146 185/272/146 194/283/146 192/284/146
f 39/240/147 157/239/147 167/285/147 161/286/147
f 159/264/148 158/247/148 168/258/148 169/287/148
f 151/249/149 159/265/149 169/288/149 163/260/149
f 46/266/150 39/240/150 161/286/150 160/289/150
f 155/290/151 152/291/151 175/292/151 174/293/151
f 171/294/152 172/295/152 173/296/152 170/297/152
f 174/293/153 175/292/153 172/295/153 178/298/153
f 175/292/154 152/291/154 177/299/154 176/300/154
f 178/298/155 172/295/155 171/294/155 179/301/155
f 172/295/156 175/292/156 176/300/156 173/296/156
f 189/302/157 181/279/157 178/280/157 179/303/157
f 189/302/158 179/303/158 193/304/158 195/305/158
f 180/306/159 188/267/159 152/270/159 155/307/159
f 187/308/160 183/281/160 176/282/160 177/309/160
f 167/263/161 166/259/161 183/281/161 187/308/161
f 160/289/162 161/286/162 188/267/162 180/306/162
f 163/260/163 169/288/163 189/310/163 186/311/163
f 169/287/164 168/258/164 181/279/164 189/302/164
f 162/261/165 163/260/165 186/311/165 185/312/165
f 166/259/166 164/255/166 184/271/166 183/281/166
f 168/258/167 165/257/167 182/275/167 181/279/167
f 165/257/168 160/256/168 180/276/168 182/275/168
f 164/255/169 162/254/169 185/272/169 184/271/169
f 161/286/170 167/285/170 187/268/170 188/267/170
f 194/313/171 190/314/171 191/315/171 192/316/171
f 190/314/172 195/317/172 193/318/172 191/315/172
f 185/319/173 186/320/173 190/321/173 194/322/173
f 171/294/174 170/297/174 192/323/174 191/324/174
f 186/320/175 189/325/175 195/326/175 190/321/175
f 179/301/176 171/294/176 191/324/176 193/327/176
f 196/328/177 197/329/177 200/330/177 199/331/177
f 200/330/178 201/124/178 204/123/178 203/332/178
f 197/329/179 198/333/179 201/124/179 200/330/179
f 199/331/180 200/330/180 203/332/180 202/334/180
f 7/42/181 3/111/181 198/110/181 197/43/181
f 17/7/182 4/6/182 196/335/182 199/336/182
f 201/124/183 198/333/183 213/337/183 211/125/183
f 21/33/184 17/7/184 199/336/184 202/338/184
f 208/4/185 209/3/185 217/339/185 216/340/185
f 210/341/186 206/342/186 214/343/186 218/344/186
f 207/112/187 208/345/187 216/346/187 215/347/187
f 211/125/188 213/337/188 221/348/188 219/349/188
f 20/35/189 204/38/189 212/350/189 206/342/189
f 91/48/190 20/35/190 206/342/190 210/341/190
f 98/2/191 91/351/191 210/352/191 209/3/191
f 3/111/192 116/353/192 208/345/192 207/112/192
f 232/354/193 235/355/193 222/356/193 226/357/193
f 233/358/194 224/359/194 240/360/194 241/361/194
f 16/362/195 230/363/195 229/364/195 227/365/195
f 231/366/196 232/367/196 226/368/196 225/369/196
f 213/113/197 207/112/197 215/347/197 221/370/197
f 206/342/198 212/350/198 220/371/198 214/343/198
f 212/126/199 211/125/199 219/349/199 220/372/199
f 209/3/200 210/352/200 218/373/200 217/339/200
f 223/374/201 205/375/201 227/376/201 229/377/201
f 223/374/202 224/378/202 225/379/202 205/375/202
f 205/375/203 225/379/203 226/380/203 222/381/203
f 205/375/204 222/381/204 228/382/204 227/376/204
f 233/358/205 231/366/205 225/369/205 224/359/205
f 229/364/206 230/363/206 237/383/206 238/384/206
f 235/355/207 236/385/207 228/386/207 222/356/207
f 236/387/208 16/362/208 227/365/208 228/388/208
f 250/389/209 243/390/209 16/362/209 236/387/209
f 249/391/210 250/392/210 236/385/210 235/355/210
f 246/393/211 245/394/211 234/395/211 230/396/211
f 248/397/212 244/398/212 231/366/212 233/358/212
f 244/398/213 247/399/213 232/367/213 231/366/213
f 243/390/214 246/400/214 230/363/214 16/362/214
f 245/394/215 248/401/215 233/402/215 234/395/215
f 247/403/216 249/391/216 235/355/216 232/354/216
f 242/404/217 241/405/217 240/406/217 239/407/217
f 237/408/218 242/404/218 239/407/218 238/409/218
f 234/410/219 233/411/219 241/412/219 242/413/219
f 224/378/220 223/374/220 239/414/220 240/415/220
f 230/416/221 234/410/221 242/413/221 237/417/221
f 223/374/222 229/377/222 238/418/222 239/414/222
f 218/344/223 214/343/223 249/391/223 247/403/223
f 215/347/224 216/346/224 248/401/224 245/394/224
f 219/349/225 221/348/225 246/400/225 243/390/225
f 217/339/226 218/373/226 247/399/226 244/398/226
f 216/340/227 217/339/227 244/398/227 248/397/227
f 221/370/228 215/347/228 245/394/228 246/393/228
f 214/343/229 220/371/229 250/392/229 249/391/229
f 220/372/230 219/349/230 243/390/230 250/389/230
f 252/419/231 251/420/231 254/421/231 253/422/231
f 255/423/232 257/424/232 252/425/232 253/426/232
f 258/427/233 256/428/233 254/421/233 251/420/233
f 24/107/234 90/34/234 256/429/234 258/430/234
f 89/45/235 26/119/235 257/431/235 255/432/235
f 90/46/236 89/45/236 255/432/236 256/428/236
f 84/433/237 85/434/237 260/134/237 259/133/237
f 275/435/238 84/433/238 259/133/238 261/172/238
f 85/434/239 276/436/239 262/149/239 260/134/239
f 276/436/240 284/437/240 283/438/240 275/435/240 261/172/240 262/149/240
f 84/439/241 275/440/241 279/441/241 263/442/241
f 266/443/242 264/444/242 278/445/242 280/446/242
f 276/436/243 85/434/243 267/447/243 282/448/243
f 278/449/244 264/450/244 265/451/244 277/452/244
f 277/452/245 265/451/245 263/442/245 279/441/245
f 266/443/246 280/446/246 281/453/246 268/454/246
f 268/454/247 281/453/247 282/448/247 267/447/247
f 85/455/248 84/456/248 263/457/248 265/458/248 264/459/248 266/460/248 268/461/248 267/462/248
f 106/463/249 284/464/249 276/465/249
f 271/466/250 269/467/250 278/468/250 277/469/250
f 270/470/251 271/466/251 277/469/251 279/471/251
f 273/202/252 274/201/252 281/472/252 280/473/252
f 274/201/253 272/474/253 282/475/253 281/472/253
f 269/467/254 273/202/254 280/473/254 278/468/254
f 111/476/255 270/470/255 279/471/255 275/477/255
f 272/474/256 106/463/256 276/465/256 282/475/256
f 285/478/257 286/479/257 292/480/257 291/204/257 290/203/257 288/481/257 287/482/257 289/483/257
f 283/484/258 111/476/258 275/477/258
f 270/470/259 111/476/259 285/478/259 289/483/259
f 294/485/260 286/479/260 285/478/260 293/486/260
f 111/476/261 283/484/261 293/486/261 285/478/261
f 106/463/262 272/474/262 292/480/262 286/479/262
f 272/474/263 274/201/263 291/204/263 292/480/263
f 269/467/264 271/466/264 287/482/264 288/481/264
f 283/438/265 284/437/265 294/487/265 293/488/265
f 273/202/266 269/467/266 288/481/266 290/203/266
f 284/464/267 106/463/267 286/479/267 294/485/267
f 271/466/268 270/470/268 289/483/268 287/482/268
f 297/489/269 295/490/269 36/491/269 100/492/269
f 296/208/270 298/493/270 104/198/270 301/197/270
f 101/494/271 298/493/271 296/208/271 35/207/271
f 36/196/272 302/495/272 303/496/272 301/197/272
f 299/497/273 296/498/273 301/499/273 303/500/273
f 295/490/274 300/501/274 302/502/274 36/491/274
f 298/184/275 297/183/275 100/503/275 104/504/275
f 385/1/276 474/4/276 475/3/276 372/2/276
f 384/505/277 371/506/277 314/507/277 307/508/277
f 306/9/278 309/12/278 312/11/278 308/10/278
f 308/10/279 312/11/279 310/14/279 307/13/279
f 312/11/280 311/16/280 305/15/280 310/14/280
f 309/12/281 304/17/281 311/16/281 312/11/281
f 304/17/282 321/19/282 324/18/282 311/16/282
f 383/509/283 361/510/283 321/511/283 304/512/283
f 385/513/284 380/514/284 309/515/284 306/516/284
f 380/514/285 383/509/285 304/512/285 309/515/285
f 384/505/286 373/517/286 15/29/286 6/28/286
f 373/517/287 382/518/287 12/31/287 15/29/287
f 371/506/288 366/519/288 316/520/288 314/507/288
f 315/521/289 470/522/289 469/523/289 318/524/289
f 385/513/290 372/525/290 18/39/290 5/28/290
f 307/526/291 462/527/291 463/528/291 308/529/291
f 365/530/292 318/524/292 316/531/292 366/532/292
f 367/533/293 315/521/293 318/524/293 365/530/293
f 318/524/294 469/523/294 468/534/294 316/531/294
f 372/525/295 367/535/295 23/50/295 18/39/295
f 328/52/296 397/55/296 400/54/296 333/53/296
f 399/56/297 412/59/297 410/58/297 402/57/297
f 382/518/298 360/536/298 34/60/298 12/31/298
f 311/16/299 324/18/299 322/62/299 305/15/299
f 321/537/300 396/538/300 395/539/300 324/540/300
f 355/541/301 353/542/301 48/69/301 41/68/301
f 360/536/302 355/541/302 41/68/302 34/60/302
f 361/543/303 406/544/303 407/545/303 321/537/303
f 324/540/304 395/539/304 394/546/304 322/547/304
f 353/542/305 348/548/305 56/76/305 48/69/305
f 354/78/306 414/81/306 411/80/306 359/79/306
f 396/82/307 413/83/307 412/59/307 399/56/307
f 6/28/308 19/39/308 371/506/308 384/505/308
f 340/84/309 345/87/309 344/86/309 339/85/309
f 349/549/310 347/550/310 345/551/310 340/552/310
f 11/92/311 33/93/311 361/510/311 383/509/311
f 5/28/312 14/29/312 380/514/312 385/513/312
f 14/29/313 11/92/313 383/509/313 380/514/313
f 405/553/314 408/554/314 409/555/314 340/556/314
f 322/62/315 394/98/315 397/55/315 328/52/315
f 307/508/316 310/557/316 373/517/316 384/505/316
f 345/87/317 352/101/317 351/100/317 344/86/317
f 347/550/318 342/558/318 352/559/318 345/551/318
f 310/557/319 305/560/319 382/518/319 373/517/319
f 348/548/320 346/561/320 63/105/320 56/76/320
f 19/39/321 24/107/321 366/519/321 371/506/321
f 339/85/322 344/86/322 343/109/322 338/108/322
f 464/562/323 479/563/323 473/564/323 306/565/323
f 520/114/324 518/117/324 517/116/324 519/115/324
f 23/118/325 367/533/325 365/530/325 26/119/325
f 351/100/326 357/122/326 356/121/326 350/120/326
f 470/123/327 478/126/327 477/125/327 467/124/327
f 346/561/328 341/566/328 72/127/328 63/105/328
f 33/93/329 40/68/329 359/567/329 361/510/329
f 344/86/330 351/100/330 350/120/330 343/109/330
f 305/560/331 322/568/331 360/536/331 382/518/331
f 328/569/332 333/570/332 353/542/332 355/541/332
f 357/122/333 522/134/333 521/133/333 356/121/333
f 322/568/334 328/569/334 355/541/334 360/536/334
f 336/571/335 332/572/335 88/137/335 80/136/335
f 342/558/336 337/573/336 358/574/336 352/559/336
f 352/101/337 358/141/337 357/122/337 351/100/337
f 333/570/338 338/575/338 348/548/338 353/542/338
f 341/566/339 336/571/339 80/136/339 72/127/339
f 320/576/340 330/577/340 96/145/340 110/144/340
f 40/68/341 47/69/341 354/578/341 359/567/341
f 379/148/342 370/151/342 369/150/342 524/149/342
f 323/579/343 331/580/343 370/581/343 379/582/343
f 55/156/344 62/157/344 347/550/344 349/549/344
f 337/573/345 335/583/345 364/584/345 358/574/345
f 358/141/346 364/160/346 522/134/346 357/122/346
f 47/69/347 55/156/347 349/549/347 354/578/347
f 391/161/348 376/164/348 375/163/348 392/162/348
f 389/585/349 327/586/349 376/587/349 391/588/349
f 62/157/350 71/169/350 342/558/350 347/550/350
f 338/575/351 343/589/351 346/561/351 348/548/351
f 343/589/352 350/590/352 341/566/352 346/561/352
f 524/149/353 369/150/353 368/173/353 523/172/353
f 356/591/354 521/592/354 332/593/354 336/594/354
f 71/169/355 79/178/355 337/573/355 342/558/355
f 327/586/356 103/181/356 105/180/356 325/595/356
f 392/162/357 375/163/357 560/184/357 559/183/357 393/182/357
f 350/590/358 356/596/358 336/571/358 341/566/358
f 523/597/359 368/598/359 330/577/359 320/576/359
f 107/188/360 95/189/360 331/580/360 323/579/360
f 393/599/361 559/600/361 557/601/361 390/602/361
f 79/178/362 87/194/362 335/583/362 337/573/362
f 374/603/363 377/604/363 561/605/363 326/606/363
f 126/199/364 103/181/364 327/586/364 389/585/364
f 376/587/365 327/586/365 325/595/365 375/607/365
f 536/608/366 553/609/366 552/610/366 535/611/366
f 390/602/367 557/601/367 300/206/367 125/205/367
f 335/583/368 323/579/368 379/582/368 364/584/368
f 364/160/369 379/148/369 524/149/369 522/134/369
f 325/612/370 105/210/370 299/209/370 558/613/370
f 332/593/371 320/576/371 110/144/371 88/211/371
f 369/614/372 387/615/372 388/616/372 368/598/372
f 87/194/373 107/188/373 323/579/373 335/583/373
f 330/577/374 319/617/374 113/215/374 96/145/374
f 521/618/375 523/619/375 320/620/375 332/572/375
f 368/598/376 388/616/376 319/617/376 330/577/376
f 95/189/377 118/221/377 317/621/377 331/580/377
f 331/580/378 317/621/378 386/622/378 370/581/378
f 370/151/379 386/224/379 387/223/379 369/150/379
f 388/616/380 393/599/380 390/602/380 319/617/380
f 118/221/381 126/199/381 389/585/381 317/621/381
f 387/223/382 392/162/382 393/182/382 388/225/382
f 319/617/383 390/602/383 125/205/383 113/215/383
f 317/621/384 389/585/384 391/588/384 386/622/384
f 386/224/385 391/161/385 392/162/385 387/223/385
f 396/82/386 399/56/386 398/227/386 395/226/386
f 398/227/387 401/228/387 400/54/387 397/55/387
f 395/226/388 398/227/388 397/55/388 394/98/388
f 401/228/389 404/230/389 403/229/389 400/54/389
f 399/56/390 402/57/390 401/228/390 398/227/390
f 402/57/391 405/231/391 404/230/391 401/228/391
f 338/623/392 403/624/392 404/625/392 339/626/392
f 333/53/393 400/54/393 403/229/393 338/108/393
f 340/556/394 409/555/394 415/627/394 349/628/394
f 339/626/395 404/625/395 405/553/395 340/556/395
f 407/545/396 329/629/396 423/630/396 413/631/396
f 410/58/397 419/243/397 416/242/397 408/241/397
f 411/80/398 420/246/398 334/245/398 406/244/398
f 414/81/399 424/247/399 420/246/399 411/80/399
f 412/59/400 422/248/400 419/243/400 410/58/400
f 408/554/401 416/632/401 417/633/401 409/555/401
f 402/57/402 410/58/402 408/241/402 405/231/402
f 349/251/403 415/252/403 414/81/403 354/78/403
f 321/537/404 407/545/404 413/631/404 396/538/404
f 359/79/405 411/80/405 406/244/405 361/253/405
f 419/243/406 430/255/406 428/254/406 416/242/406
f 420/246/407 431/257/407 426/256/407 334/245/407
f 424/247/408 434/258/408 431/257/408 420/246/408
f 422/248/409 432/259/409 430/255/409 419/243/409
f 416/632/410 428/634/410 429/635/410 417/633/410
f 423/262/411 433/263/411 432/259/411 422/248/411
f 415/252/412 425/264/412 424/247/412 414/81/412
f 409/555/413 417/633/413 425/636/413 415/627/413
f 406/544/414 334/637/414 329/629/414 407/545/414
f 413/83/415 423/262/415 422/248/415 412/59/415
f 454/638/416 418/639/416 443/640/416 453/641/416
f 450/271/417 439/274/417 436/273/417 451/272/417
f 448/275/418 440/278/418 421/277/418 446/276/418
f 447/279/419 444/280/419 440/278/419 448/275/419
f 449/281/420 442/282/420 439/274/420 450/271/420
f 436/273/421 458/284/421 460/283/421 451/272/421
f 329/629/422 427/642/422 433/643/422 423/630/422
f 425/264/423 435/287/423 434/258/423 424/247/423
f 417/633/424 429/635/424 435/644/424 425/636/424
f 334/637/425 426/645/425 427/642/425 329/629/425
f 421/646/426 440/647/426 441/648/426 418/649/426
f 437/650/427 436/651/427 439/652/427 438/653/427
f 440/647/428 444/654/428 438/653/428 441/648/428
f 441/648/429 442/655/429 443/656/429 418/649/429
f 444/654/430 445/657/430 437/650/430 438/653/430
f 438/653/431 439/652/431 442/655/431 441/648/431
f 455/302/432 445/303/432 444/280/432 447/279/432
f 455/302/433 461/305/433 459/304/433 445/303/433
f 446/658/434 421/659/434 418/639/434 454/638/434
f 453/308/435 443/309/435 442/282/435 449/281/435
f 433/263/436 453/308/436 449/281/436 432/259/436
f 426/645/437 446/658/437 454/638/437 427/642/437
f 429/635/438 452/660/438 455/661/438 435/644/438
f 435/287/439 455/302/439 447/279/439 434/258/439
f 428/634/440 451/662/440 452/660/440 429/635/440
f 432/259/441 449/281/441 450/271/441 430/255/441
f 434/258/442 447/279/442 448/275/442 431/257/442
f 431/257/443 448/275/443 446/276/443 426/256/443
f 430/255/444 450/271/444 451/272/444 428/254/444
f 427/642/445 454/638/445 453/641/445 433/643/445
f 460/663/446 458/664/446 457/665/446 456/666/446
f 456/666/447 457/665/447 459/667/447 461/668/447
f 451/669/448 460/670/448 456/671/448 452/672/448
f 437/650/449 457/673/449 458/674/449 436/651/449
f 452/672/450 456/671/450 461/675/450 455/676/450
f 445/657/451 459/677/451 457/673/451 437/650/451
f 462/328/452 465/331/452 466/330/452 463/329/452
f 466/330/453 469/332/453 470/123/453 467/124/453
f 463/329/454 466/330/454 467/124/454 464/333/454
f 465/331/455 468/334/455 469/332/455 466/330/455
f 308/529/456 463/528/456 464/562/456 306/565/456
f 314/507/457 465/678/457 462/679/457 307/508/457
f 467/124/458 477/125/458 479/337/458 464/333/458
f 316/520/459 468/680/459 465/678/459 314/507/459
f 474/4/460 482/340/460 483/339/460 475/3/460
f 476/681/461 484/682/461 480/683/461 472/684/461
f 473/564/462 481/685/462 482/686/462 474/687/462
f 477/125/463 485/349/463 487/348/463 479/337/463
f 315/521/464 472/684/464 478/688/464 470/522/464
f 367/533/465 476/681/465 472/684/465 315/521/465
f 372/2/466 475/3/466 476/352/466 367/351/466
f 306/565/467 473/564/467 474/687/467 385/689/467
f 498/690/468 492/691/468 488/692/468 501/693/468
f 499/358/469 507/361/469 506/360/469 490/359/469
f 313/362/470 493/365/470 495/364/470 496/363/470
f 497/366/471 491/369/471 492/368/471 498/367/471
f 479/563/472 487/694/472 481/685/472 473/564/472
f 472/684/473 480/683/473 486/695/473 478/688/473
f 478/126/474 486/372/474 485/349/474 477/125/474
f 475/3/475 483/339/475 484/373/475 476/352/475
f 489/696/476 495/697/476 493/698/476 471/699/476
f 489/696/477 471/699/477 491/700/477 490/701/477
f 471/699/478 488/702/478 492/703/478 491/700/478
f 471/699/479 493/698/479 494/704/479 488/702/479
f 499/358/480 490/359/480 491/369/480 497/366/480
f 495/364/481 504/384/481 503/383/481 496/363/481
f 501/693/482 488/692/482 494/705/482 502/706/482
f 502/387/483 494/388/483 493/365/483 313/362/483
f 516/389/484 502/387/484 313/362/484 509/390/484
f 515/707/485 501/693/485 502/706/485 516/708/485
f 512/709/486 496/710/486 500/711/486 511/712/486
f 514/397/487 499/358/487 497/366/487 510/398/487
f 510/398/488 497/366/488 498/367/488 513/399/488
f 509/390/489 313/362/489 496/363/489 512/400/489
f 511/712/490 500/711/490 499/713/490 514/714/490
f 513/715/491 498/690/491 501/693/491 515/707/491
f 508/716/492 505/717/492 506/718/492 507/719/492
f 503/720/493 504/721/493 505/717/493 508/716/493
f 500/722/494 508/723/494 507/724/494 499/725/494
f 490/701/495 506/726/495 505/727/495 489/696/495
f 496/728/496 503/729/496 508/723/496 500/722/496
f 489/696/497 505/727/497 504/730/497 495/697/497
f 484/682/498 513/715/498 515/707/498 480/683/498
f 481/685/499 511/712/499 514/714/499 482/686/499
f 485/349/500 509/390/500 512/400/500 487/348/500
f 483/339/501 510/398/501 513/399/501 484/373/501
f 482/340/502 514/397/502 510/398/502 483/339/502
f 487/694/503 512/709/503 511/712/503 481/685/503
f 480/683/504 515/707/504 516/708/504 486/695/504
f 486/372/505 516/389/505 509/390/505 485/349/505
f 252/419/506 517/731/506 518/732/506 251/420/506
f 519/733/507 517/734/507 252/425/507 257/424/507
f 258/427/508 251/420/508 518/732/508 520/735/508
f 24/107/509 258/430/509 520/736/509 366/519/509
f 365/530/510 519/737/510 257/431/510 26/119/510
f 366/532/511 520/735/511 519/737/511 365/530/511
f 362/433/512 521/133/512 522/134/512 363/434/512
f 537/435/513 523/172/513 521/133/513 362/433/513
f 363/434/514 522/134/514 524/149/514 538/436/514
f 538/436/515 524/149/515 523/172/515 537/435/515 545/438/515 546/437/515
f 362/738/516 525/739/516 541/740/516 537/741/516
f 528/443/517 542/446/517 540/445/517 526/444/517
f 538/436/518 544/448/518 529/447/518 363/434/518
f 540/742/519 539/743/519 527/744/519 526/745/519
f 539/743/520 541/740/520 525/739/520 527/744/520
f 528/443/521 530/454/521 543/453/521 542/446/521
f 530/454/522 529/447/522 544/448/522 543/453/522
f 363/746/523 529/747/523 530/748/523 528/749/523 526/750/523 527/751/523 525/752/523 362/753/523
f 378/754/524 538/755/524 546/756/524
f 533/757/525 539/758/525 540/759/525 531/760/525
f 532/761/526 541/762/526 539/758/526 533/757/526
f 535/611/527 542/763/527 543/764/527 536/608/527
f 536/608/528 543/764/528 544/765/528 534/766/528
f 531/760/529 540/759/529 542/763/529 535/611/529
f 381/767/530 537/768/530 541/762/530 532/761/530
f 534/766/531 544/765/531 538/755/531 378/754/531
f 547/769/532 551/770/532 549/771/532 550/772/532 552/610/532 553/609/532 554/773/532 548/774/532
f 545/775/533 537/768/533 381/767/533
f 532/761/534 551/770/534 547/769/534 381/767/534
f 556/776/535 555/777/535 547/769/535 548/774/535
f 381/767/536 547/769/536 555/777/536 545/775/536
f 378/754/537 548/774/537 554/773/537 534/766/537
f 534/766/538 554/773/538 553/609/538 536/608/538
f 531/760/539 550/772/539 549/771/539 533/757/539
f 545/438/540 555/488/540 556/487/540 546/437/540
f 535/611/541 552/610/541 550/772/541 531/760/541
f 546/756/542 556/776/542 548/774/542 378/754/542
f 533/757/543 549/771/543 551/770/543 532/761/543
f 559/778/544 374/779/544 326/780/544 557/781/544
f 558/613/545 561/605/545 377/604/545 560/782/545
f 375/783/546 325/612/546 558/613/546 560/782/546
f 326/606/547 561/605/547 303/496/547 302/495/547
f 299/497/548 303/500/548 561/784/548 558/785/548
f 557/781/549 326/780/549 302/502/549 300/501/549
f 560/184/550 377/504/550 374/503/550 559/183/550
f 562/786/551 575/787/551 574/788/551
f 563/789/552 575/790/552 577/791/552
f 562/792/553 574/793/553 579/794/553
f 562/795/554 579/796/554 581/797/554
f 562/798/555 581/799/555 578/800/555
f 563/789/556 577/791/556 584/801/556
f 564/802/557 576/803/557 586/804/557
f 565/805/558 580/806/558 588/807/558
f 566/808/559 582/809/559 590/810/559
f 567/811/560 583/812/560 592/813/560
f 563/789/561 584/801/561 587/814/561
f 564/802/562 586/804/562 589/815/562
f 565/805/563 588/807/563 591/816/563
f 566/808/564 590/810/564 593/817/564
f 567/811/565 592/813/565 585/818/565
f 568/819/566 594/820/566 599/821/566
f 569/822/567 595/823/567 601/824/567
f 570/825/568 596/826/568 602/827/568
f 571/828/569 597/829/569 603/830/569
f 572/831/570 598/832/570 600/833/570
f 600/833/571 603/834/571 573/835/571
f 600/833/572 598/832/572 603/834/572
f 598/832/573 571/828/573 603/834/573
f 603/830/574 602/836/574 573/837/574
f 603/830/575 597/829/575 602/836/575
f 597/829/576 570/825/576 602/836/576
f 602/827/577 601/838/577 573/839/577
f 602/827/578 596/826/578 601/838/578
f 596/826/579 569/840/579 601/838/579
f 601/824/580 599/841/580 573/842/580
f 601/824/581 595/823/581 599/841/581
f 595/823/582 568/819/582 599/841/582
f 599/821/583 600/843/583 573/844/583
f 599/821/584 594/820/584 600/843/584
f 594/820/585 572/831/585 600/843/585
f 585/818/586 598/832/586 572/831/586
f 585/818/587 592/813/587 598/832/587
f 592/813/588 571/828/588 598/832/588
f 593/817/589 597/829/589 571/828/589
f 593/817/590 590/810/590 597/829/590
f 590/810/591 570/825/591 597/829/591
f 591/816/592 596/826/592 570/825/592
f 591/816/593 588/807/593 596/826/593
f 588/807/594 569/840/594 596/826/594
f 589/815/595 595/823/595 569/822/595
f 589/815/596 586/804/596 595/823/596
f 586/804/597 568/819/597 595/823/597
f 587/814/598 594/820/598 568/819/598
f 587/814/599 584/801/599 594/820/599
f 584/801/600 572/831/600 594/820/600
f 592/813/601 593/817/601 571/828/601
f 592/813/602 583/812/602 593/817/602
f 583/812/603 566/808/603 593/817/603
f 590/810/604 591/816/604 570/825/604
f 590/810/605 582/809/605 591/816/605
f 582/809/606 565/805/606 591/816/606
f 588/807/607 589/845/607 569/840/607
f 588/807/608 580/806/608 589/845/608
f 580/806/609 564/846/609 589/845/609
f 586/804/610 587/814/610 568/819/610
f 586/804/611 576/803/611 587/814/611
f 576/803/612 563/789/612 587/814/612
f 584/801/613 585/818/613 572/831/613
f 584/801/614 577/791/614 585/818/614
f 577/791/615 567/811/615 585/818/615
f 578/800/616 583/812/616 567/811/616
f 578/800/617 581/799/617 583/812/617
f 581/799/618 566/808/618 583/812/618
f 581/797/619 582/809/619 566/808/619
f 581/797/620 579/796/620 582/809/620
f 579/796/621 565/805/621 582/809/621
f 579/794/622 580/806/622 565/805/622
f 579/794/623 574/793/623 580/806/623
f 574/793/624 564/846/624 580/806/624
f 577/791/625 578/847/625 567/811/625
f 577/791/626 575/790/626 578/847/626
f 575/790/627 562/848/627 578/847/627
f 574/788/628 576/803/628 564/802/628
f 574/788/629 575/787/629 576/803/629
f 575/787/630 563/789/630 576/803/630
f 604/786/631 616/788/631 617/787/631
f 605/789/632 619/791/632 617/790/632
f 604/792/633 621/794/633 616/793/633
f 604/795/634 623/797/634 621/796/634
f 604/798/635 620/800/635 623/799/635
f 605/789/636 626/801/636 619/791/636
f 606/802/637 628/804/637 618/803/637
f 607/805/638 630/807/638 622/806/638
f 608/808/639 632/810/639 624/809/639
f 609/811/640 634/813/640 625/812/640
f 605/789/641 629/814/641 626/801/641
f 606/802/642 631/815/642 628/804/642
f 607/805/643 633/816/643 630/807/643
f 608/808/644 635/817/644 632/810/644
f 609/811/645 627/818/645 634/813/645
f 610/819/646 641/821/646 636/820/646
f 611/822/647 643/824/647 637/823/647
f 612/825/648 644/827/648 638/826/648
f 613/828/649 645/830/649 639/829/649
f 614/831/650 642/833/650 640/832/650
f 642/833/651 615/835/651 645/834/651
f 642/833/652 645/834/652 640/832/652
f 640/832/653 645/834/653 613/828/653
f 645/830/654 615/837/654 644/836/654
f 645/830/655 644/836/655 639/829/655
f 639/829/656 644/836/656 612/825/656
f 644/827/657 615/839/657 643/838/657
f 644/827/658 643/838/658 638/826/658
f 638/826/659 643/838/659 611/840/659
f 643/824/660 615/842/660 641/841/660
f 643/824/661 641/841/661 637/823/661
f 637/823/662 641/841/662 610/819/662
f 641/821/663 615/844/663 642/843/663
f 641/821/664 642/843/664 636/820/664
f 636/820/665 642/843/665 614/831/665
f 627/818/666 614/831/666 640/832/666
f 627/818/667 640/832/667 634/813/667
f 634/813/668 640/832/668 613/828/668
f 635/817/669 613/828/669 639/829/669
f 635/817/670 639/829/670 632/810/670
f 632/810/671 639/829/671 612/825/671
f 633/816/672 612/825/672 638/826/672
f 633/816/673 638/826/673 630/807/673
f 630/807/674 638/826/674 611/840/674
f 631/815/675 611/822/675 637/823/675
f 631/815/676 637/823/676 628/804/676
f 628/804/677 637/823/677 610/819/677
f 629/814/678 610/819/678 636/820/678
f 629/814/679 636/820/679 626/801/679
f 626/801/680 636/820/680 614/831/680
f 634/813/681 613/828/681 635/817/681
f 634/813/682 635/817/682 625/812/682
f 625/812/683 635/817/683 608/808/683
f 632/810/684 612/825/684 633/816/684
f 632/810/685 633/816/685 624/809/685
f 624/809/686 633/816/686 607/805/686
f 630/807/687 611/840/687 631/845/687
f 630/807/688 631/845/688 622/806/688
f 622/806/689 631/845/689 606/846/689
f 628/804/690 610/819/690 629/814/690
f 628/804/691 629/814/691 618/803/691
f 618/803/692 629/814/692 605/789/692
f 626/801/693 614/831/693 627/818/693
f 626/801/694 627/818/694 619/791/694
f 619/791/695 627/818/695 609/811/695
f 620/800/696 609/811/696 625/812/696
f 620/800/697 625/812/697 623/799/697
f 623/799/698 625/812/698 608/808/698
f 623/797/699 608/808/699 624/809/699
f 623/797/700 624/809/700 621/796/700
f 621/796/701 624/809/701 607/805/701
f 621/794/702 607/805/702 622/806/702
f 621/794/703 622/806/703 616/793/703
f 616/793/704 622/806/704 606/846/704
f 619/791/705 609/811/705 620/847/705
f 619/791/706 620/847/706 617/790/706
f 617/790/707 620/847/707 604/848/707
f 616/788/708 606/802/708 618/803/708
f 616/788/709 618/803/709 617/787/709
f 617/787/710 618/803/710 605/789/710
