# Blender 5.1.1
# www.blender.org
o Куб.001
v 0.568619 1.430315 0.944995
v 0.462976 2.703801 0.247825
v 0.629600 1.129698 -0.033910
v 0.630675 2.379915 -0.213158
v 0.052940 1.009582 -0.074794
v 0.004173 2.476170 -0.395388
v 0.739964 1.735268 0.132319
v 0.641063 1.159293 0.427777
v 0.579479 2.552773 0.046275
v 0.683527 2.010420 0.634441
v 0.091388 1.396871 1.125258
v -0.094109 2.774096 0.261667
v 0.751501 1.771051 0.243932
v 0.044928 1.025701 0.494820
v -0.036114 2.671288 -0.012182
v 0.833385 0.240671 -0.530767
v 0.555850 2.254701 -0.429175
v 0.071628 1.043169 -0.336258
v 0.000362 2.272353 -0.626436
v 0.478412 1.257736 -0.656689
v 0.474362 2.084055 -0.676271
v 0.060456 2.924813 3.282210
v 0.080487 1.101897 -0.559769
v 0.001756 2.074301 -0.876058
v 0.577397 1.671394 -0.758275
v 0.038319 1.505755 -0.810099
v 0.059125 3.318797 3.209879
v 0.145382 3.620637 2.885931
v 0.484452 1.887141 1.486859
v 0.469474 2.905425 0.627412
v 0.142974 2.871932 3.085933
v 0.635427 2.239339 0.936947
v 0.100321 1.750282 1.575331
v -0.042596 3.018402 0.677952
v 0.033002 3.020906 3.493417
v 0.009881 3.192358 3.498497
v 0.019326 2.937723 3.406936
v 0.562675 3.161439 0.919065
v 0.510895 1.400496 1.679816
v 0.094520 1.838253 1.856134
v -0.045993 3.277579 0.986340
v 0.094353 3.511312 3.127591
v 0.104972 2.892091 3.201624
v 0.144171 3.714791 2.597506
v 0.579515 3.241417 1.099935
v 0.437970 1.399871 1.764653
v 0.090738 1.933407 1.945969
v -0.044979 3.365956 1.129550
v 0.156515 2.858584 2.965913
v 0.131565 3.754535 2.345358
v 0.140844 2.840350 2.820513
v 0.536608 3.307761 1.360156
v 0.741030 2.740917 1.680835
v 0.714248 2.042179 2.148100
v 0.071486 2.130054 2.018799
v -0.040706 3.433226 1.281608
v 0.130334 3.738629 2.016964
v 0.162229 2.771548 2.447818
v 0.426421 3.477398 1.600171
v 0.616535 2.711347 1.912866
v 0.543018 2.458330 2.041536
v 0.049376 2.335254 2.085129
v -0.049757 3.600892 1.519172
v 0.182455 3.564855 1.547863
v 0.297304 2.395857 2.065963
v 0.241251 3.391673 1.290166
v 0.473812 2.041914 1.987203
v 0.316844 3.675710 2.018657
v 0.432359 3.096117 2.328876
v 0.348406 2.791560 2.382575
v -0.020445 2.746862 2.472343
v -0.052717 3.753022 1.998296
v 0.279411 3.313382 1.104875
v 0.407765 1.994810 1.901602
v 0.271744 3.235953 0.928712
v 0.312349 3.697288 2.335628
v 0.402894 3.226596 2.582406
v 0.321241 2.862812 2.758191
v -0.036581 2.812951 2.821102
v -0.047017 3.765759 2.315938
v 0.395175 2.002185 1.878469
v 0.212736 2.977324 0.616054
v 0.381283 1.925887 1.674116
v 0.340643 3.529977 2.639807
v 0.424216 3.317865 2.700094
v 0.348074 2.885909 2.903537
v -0.034768 2.830177 2.962036
v -0.033651 3.732897 2.566987
v 0.294591 1.520365 -0.746261
v 0.205394 2.074152 -0.829340
v 0.346376 1.206383 -0.581473
v 0.216052 3.466286 3.087720
v 0.311404 3.202352 3.084856
v 0.244528 2.910069 3.150862
v -0.031838 2.871136 3.174439
v -0.024195 3.523725 3.093044
v 0.257041 2.229357 -0.645742
v 0.308684 1.117703 -0.336115
v 0.272507 2.631083 -0.041909
v 0.044815 3.184258 3.477257
v 0.099258 3.020414 3.451926
v 0.075161 2.960007 3.393867
v -0.028278 2.932165 3.419485
v 0.039564 3.138205 3.501728
v -0.026413 3.010743 3.493527
v 0.435086 3.392258 2.762834
v -0.033295 2.848024 3.071966
v 0.320121 2.893853 3.027639
v 0.346693 1.054305 0.406969
v -0.027070 3.642476 2.853032
v 0.372381 3.529009 2.730622
v 0.177635 2.746206 0.207560
v -0.025532 3.322008 3.209051
v 0.332545 1.397153 1.029302
v 0.318976 2.404638 -0.436653
v 0.382631 1.053091 -0.081842
v 0.156402 2.938045 3.235916
v -0.030555 2.906995 3.246593
v 0.182824 3.111677 3.268657
v 0.149366 3.277968 3.200178
v 0.041033 2.928954 3.339818
v 0.042778 3.226684 3.379616
v 0.110810 2.942616 3.325087
v 0.134136 3.066703 3.359497
v -0.024949 3.231142 3.366742
v -0.029475 2.918314 3.329307
v 0.109479 3.204250 3.354236
v 0.605120 2.830604 0.782183
v 0.728706 2.272880 0.989410
v 0.638417 2.022463 1.426124
v 0.671769 3.048905 0.961957
v 0.832273 2.418701 1.431849
v 0.878401 2.016908 1.775177
v 0.641379 3.142034 1.126222
v 0.862687 2.556134 1.534486
v 0.940346 2.012500 1.944452
v 0.658723 3.091258 1.342451
v 0.832854 2.716339 1.648531
v 0.915480 2.053948 2.090589
v 0.416281 1.634245 1.688717
v 0.491311 1.654934 1.589253
v 0.849098 1.593474 2.023823
v 0.719422 1.581608 2.115928
v 0.860015 1.579534 1.894893
v 0.457172 1.585598 1.907001
v 0.814442 1.591647 1.771791
v 0.625839 1.659948 1.534889
v 0.502489 1.565476 2.034117
v 0.573431 1.581823 2.104320
v 0.822303 1.371347 1.972208
v 0.693630 1.379269 2.057462
v 0.450427 0.946366 1.617869
v 0.843540 1.362258 1.870267
v 0.455044 1.387759 1.899666
v 0.357223 0.951079 1.706963
v 0.803198 1.365346 1.776358
v 0.643586 1.392305 1.643723
v 0.490050 1.386047 2.010244
v 0.552893 1.388857 2.066447
v 0.402187 1.211568 1.715670
v 0.485701 1.207029 1.633284
v 0.808112 1.175983 1.887472
v 0.665582 1.187919 1.973352
v 0.802234 1.169393 1.801801
v 0.419506 1.202379 1.838086
v 0.765665 1.171368 1.716374
v 0.632458 1.193857 1.592347
v 0.453091 1.201012 1.938485
v 0.514673 1.202176 1.988608
v 0.826617 0.889689 1.876908
v 0.641602 0.902981 1.976663
v 0.642744 0.909925 1.847663
v 0.798134 0.896065 1.793902
v 0.374810 0.939215 1.837597
v 0.601791 0.918177 1.748287
v 0.760803 0.902735 1.703339
v 0.612991 0.930763 1.572486
v 0.411972 0.931853 1.942602
v 0.449161 0.925009 2.003204
v 0.378271 1.086995 1.713304
v 0.432191 1.073255 1.942783
v 0.395575 1.077147 1.840080
v 0.767378 1.042619 1.710495
v 0.804143 1.039229 1.799274
v 0.819677 1.095865 1.888504
v 0.664901 1.105614 1.981289
v 0.625224 1.067086 1.583200
v 0.468175 1.081746 1.627065
v 0.499998 1.124817 1.996883
v 0.689941 1.003415 2.107228
v 0.679198 0.886229 2.106298
v 0.835331 0.875704 2.014986
v 0.515655 0.905117 2.123662
v 0.840625 0.993924 2.018409
v 0.531783 1.022103 2.123189
v 0.784786 2.231340 -0.188100
v 0.816438 1.711243 0.018121
v 0.787615 1.158769 -0.113023
v 0.770190 2.145279 -0.415077
v 0.873451 1.709715 -0.472724
v 0.828114 1.197318 -0.369295
v 0.753111 2.022486 -0.622524
v 0.846547 1.705378 -0.697410
v 0.752468 1.262712 -0.637686
v 0.614961 0.015305 -0.566469
v 0.530314 0.928143 -0.717951
v 0.658465 0.935362 -0.103133
v 0.459813 0.918273 -0.168604
v 0.392950 0.919239 -0.428961
v 0.419576 0.924885 -0.668527
v 0.816012 0.931289 -0.427246
v 0.754158 0.927852 -0.683059
v 0.784737 0.937362 -0.180763
v 0.547416 0.729449 -0.686024
v 0.662519 0.490114 -0.182966
v 0.481599 0.510814 -0.241402
v 0.421456 0.630361 -0.451765
v 0.446407 0.713907 -0.645654
v 0.807005 0.632107 -0.444117
v 0.751316 0.719066 -0.654352
v 0.777779 0.525138 -0.245447
v 0.551614 0.085096 -0.791819
v 0.683690 -0.033685 -0.352626
v 0.427302 -0.036362 -0.400963
v 0.409784 0.014404 -0.588991
v 0.438884 0.071999 -0.757886
v 0.838721 0.020729 -0.586548
v 0.778238 0.077010 -0.767695
v 0.848502 -0.022545 -0.411933
v 0.841086 0.194627 -0.361138
v 0.404420 0.234546 -0.534159
v 0.433536 0.290379 -0.702498
v 0.419871 0.182218 -0.350705
v 0.676189 0.179322 -0.304778
v 0.546275 0.303908 -0.736135
v 0.772906 0.295895 -0.711773
v 0.802215 0.060786 -0.262195
v 0.808806 -0.050901 -0.274662
v 0.680183 -0.062685 -0.217149
v 0.479277 -0.064914 -0.266142
v 0.472699 0.045280 -0.253227
v 0.673579 0.051845 -0.205141
v 0.796927 0.454149 -0.482116
v 0.437467 0.450057 -0.485051
v 0.661432 0.376490 -0.264718
v 0.769075 0.394944 -0.317819
v 0.461438 0.512220 -0.640874
v 0.492915 0.384217 -0.311609
v 0.555820 0.525561 -0.672153
v 0.745809 0.516747 -0.648916
v 0.002281 1.929817 -0.940288
v 0.013729 1.651377 -0.944860
v 0.109007 1.666139 -0.902282
v 0.078772 1.922737 -0.913004
v 0.149469 1.647353 -0.839103
v 0.090764 2.018371 -0.882236
v 0.016279 1.626688 -0.890128
v 0.002005 2.027016 -0.915504
v 0.318934 3.622572 2.507899
v 0.430311 3.228037 2.695994
v 0.318311 3.561314 2.856047
v 0.440216 3.276540 2.891684
v 0.400330 3.579509 2.659302
v 0.478671 3.569506 2.681406
v 0.441465 3.591759 2.671738
v 0.506410 3.531757 2.687605
v 0.505420 3.440150 2.696234
v 0.519162 3.487200 2.693028
v 0.484019 3.549148 2.729973
v 0.425004 3.561506 2.728378
v 0.455663 3.566192 2.728305
v 0.496578 3.471443 2.742283
v 0.496816 3.533225 2.731354
v 0.506892 3.502741 2.735648
v 0.342556 3.537272 2.729298
v 0.429779 3.346687 2.771240
v 0.460308 3.590287 2.723562
v 0.499595 3.566847 2.726409
v 0.416738 3.583575 2.724120
v 0.517774 3.544420 2.729016
v 0.531623 3.502677 2.735463
v 0.517649 3.460384 2.744244
v 0.353341 3.514726 2.734387
v 0.419808 3.368500 2.766512
v 0.382455 3.508772 2.724049
v 0.427756 3.409846 2.747373
v 0.442552 3.535510 2.722397
v 0.463022 3.523120 2.723610
v 0.420439 3.532130 2.722458
v 0.472263 3.511563 2.724615
v 0.479546 3.489467 2.727724
v 0.472129 3.466705 2.732529
v 0.368778 3.498141 2.726831
v 0.416748 3.392775 2.750065
v 0.034525 3.190928 3.463692
v 0.030855 3.113839 3.506376
v 0.075010 3.182264 3.436265
v 0.070100 3.105278 3.479869
v -0.024851 3.115880 3.509758
v -0.024333 3.190779 3.468468
v 0.006271 3.146149 3.522269
v -0.023995 3.190689 3.498570
v -0.024315 3.146111 3.522130
v -0.444429 1.360205 0.942818
v -0.592945 2.582951 0.337356
v -0.531259 1.080309 -0.123227
v -0.610512 2.327108 -0.308656
v -0.704219 1.661250 0.050024
v -0.534044 1.094485 0.375818
v -0.637796 2.482343 -0.008244
v -0.618888 1.891918 0.690224
v -0.722182 1.686240 0.183098
v -0.580979 0.180497 -0.639589
v -0.500597 2.214060 -0.502772
v -0.298129 1.224704 -0.716425
v -0.398167 2.058687 -0.722419
v -0.120242 2.927184 3.284245
v -0.429175 1.632743 -0.828270
v -0.110203 3.321019 3.211785
v -0.198731 3.623749 2.889636
v -0.324555 1.826669 1.521544
v -0.541519 2.822558 0.682571
v -0.208518 2.876544 3.089891
v -0.574179 2.144904 0.991856
v -0.085529 3.022461 3.494751
v -0.057809 3.193247 3.499259
v -0.075990 2.938974 3.408009
v -0.635296 3.075232 0.969941
v -0.268388 1.344418 1.712911
v -0.142212 3.514416 3.130255
v -0.167405 2.895665 3.204692
v -0.209789 3.714265 2.600853
v -0.648078 3.153078 1.152070
v -0.189229 1.354738 1.791290
v -0.225103 2.863592 2.970210
v -0.222243 3.744038 2.347484
v -0.213194 2.844995 2.824499
v -0.592278 3.227059 1.401885
v -0.686822 2.638168 1.741474
v -0.521133 1.953280 2.200564
v -0.232759 3.722515 2.018644
v -0.201015 2.770215 2.453430
v -0.500117 3.415741 1.613043
v -0.554022 2.635626 1.956479
v -0.441359 2.396595 2.078440
v -0.273410 3.534544 1.551836
v -0.198373 2.367171 2.084054
v -0.314410 3.352423 1.305197
v -0.299336 1.986787 2.019851
v -0.412181 3.643987 2.022282
v -0.466742 3.068922 2.340165
v -0.380836 2.784288 2.393730
v -0.360738 3.267424 1.130811
v -0.232922 1.948706 1.928810
v -0.358236 3.190619 0.955466
v -0.398587 3.677378 2.340070
v -0.464193 3.227726 2.591660
v -0.390104 2.870088 2.766200
v -0.223511 1.957664 1.904744
v -0.296744 2.936209 0.644151
v -0.215141 1.882800 1.699688
v -0.404185 3.530493 2.647048
v -0.486963 3.323147 2.709529
v -0.417114 2.895808 2.912133
v -0.165814 1.505813 -0.772694
v -0.191564 2.072267 -0.833096
v -0.178249 1.184602 -0.620875
v -0.266158 3.472386 3.093126
v -0.368202 3.211270 3.092509
v -0.307549 2.917314 3.157078
v -0.234932 2.223800 -0.656147
v -0.168106 1.097419 -0.372800
v -0.333844 2.596447 -0.069956
v -0.093412 3.186072 3.478814
v -0.152691 3.023720 3.454763
v -0.131501 2.962719 3.396195
v -0.088822 3.139889 3.503173
v -0.495723 3.397718 2.772486
v -0.386296 2.903123 3.035593
v -0.242171 1.022838 0.376472
v -0.433087 3.531810 2.738761
v -0.346879 2.677998 0.267616
v -0.162954 1.358354 1.037045
v -0.279344 2.383687 -0.474645
v -0.274290 1.025142 -0.132386
v -0.216826 2.942943 3.240119
v -0.237940 3.117199 3.273395
v -0.201680 3.282574 3.204131
v -0.099426 2.930798 3.341399
v -0.092462 3.228458 3.381139
v -0.169134 2.946290 3.328240
v -0.188416 3.070936 3.363129
v -0.160283 3.207790 3.357273
v -0.641500 2.733837 0.845369
v -0.662381 2.166529 1.054526
v -0.504433 1.940223 1.474659
v -0.723176 2.948524 1.021198
v -0.751750 2.304714 1.499121
v -0.710854 1.902545 1.842670
v -0.692663 3.046035 1.182877
v -0.792727 2.437010 1.604789
v -0.757031 1.890356 2.016537
v -0.684501 2.994759 1.397634
v -0.776585 2.600523 1.716882
v -0.726107 1.935819 2.160305
v -0.207743 1.589339 1.715219
v -0.293080 1.598488 1.622566
v -0.600466 1.489163 2.085384
v -0.463123 1.496512 2.166149
v -0.620114 1.473023 1.957752
v -0.222703 1.536674 1.935874
v -0.587288 1.490778 1.831321
v -0.431044 1.583894 1.579773
v -0.253794 1.511054 2.066236
v -0.320166 1.517519 2.142270
v -0.546649 1.272837 2.030346
v -0.413701 1.299585 2.104489
v -0.149078 0.903225 1.643329
v -0.574891 1.260187 1.930506
v -0.192947 1.341129 1.927185
v -0.050326 0.921751 1.724271
v -0.543471 1.268439 1.833549
v -0.401113 1.317128 1.688089
v -0.217896 1.335102 2.040309
v -0.275529 1.329243 2.101629
v -0.131161 1.173187 1.738321
v -0.219817 1.156259 1.663246
v -0.511881 1.080996 1.943530
v -0.365789 1.113702 2.017153
v -0.512368 1.074794 1.857631
v -0.136601 1.162361 1.861703
v -0.483794 1.081457 1.769437
v -0.366110 1.122000 1.634755
v -0.161056 1.156818 1.964567
v -0.217723 1.149473 2.019712
v -0.490102 0.794937 1.932827
v -0.301138 0.835141 2.016700
v -0.314138 0.841067 1.888300
v -0.469926 0.804815 1.847755
v -0.054954 0.908289 1.855849
v -0.283314 0.854485 1.785876
v -0.441705 0.816202 1.754408
v -0.310986 0.864273 1.611726
v -0.081691 0.896328 1.963567
v -0.112275 0.884607 2.027047
v -0.089972 1.053300 1.733190
v -0.121824 1.033387 1.966312
v -0.094936 1.041850 1.860911
v -0.467578 0.953751 1.762942
v -0.495860 0.945680 1.854483
v -0.511747 1.000056 1.945048
v -0.352685 1.032388 2.024505
v -0.341629 0.997511 1.624261
v -0.185153 1.034733 1.654811
v -0.191498 1.075057 2.026250
v -0.352147 0.928426 2.151484
v -0.324883 0.813975 2.148940
v -0.485049 0.780689 2.071060
v -0.164843 0.856148 2.152562
v -0.506878 0.896957 2.075635
v -0.197507 0.969624 2.154161
v -0.753539 2.165892 -0.306459
v -0.770609 1.641565 -0.099459
v -0.677223 1.096447 -0.225729
v -0.697241 2.082847 -0.527982
v -0.753336 1.640504 -0.597890
v -0.681223 1.133103 -0.485425
v -0.646656 1.967111 -0.722764
v -0.694567 1.640941 -0.813966
v -0.571275 1.206393 -0.739536
v -0.341425 -0.025385 -0.640054
v -0.312023 0.892305 -0.782761
v -0.532701 0.884683 -0.194782
v -0.325656 0.884855 -0.229038
v -0.220144 0.893155 -0.476133
v -0.210256 0.898089 -0.716987
v -0.637994 0.869428 -0.539118
v -0.537736 0.872888 -0.782459
v -0.645350 0.876518 -0.290795
v -0.316960 0.692674 -0.752530
v -0.486906 0.441211 -0.271404
v -0.301586 0.477493 -0.301661
v -0.220338 0.603056 -0.501145
v -0.222353 0.685454 -0.697109
v -0.601288 0.572191 -0.552473
v -0.521692 0.664906 -0.752298
v -0.593814 0.466784 -0.350978
v -0.250532 0.050969 -0.853537
v -0.437617 -0.081391 -0.438900
v -0.177555 -0.062095 -0.447501
v -0.135880 -0.008811 -0.630975
v -0.143606 0.047217 -0.802704
v -0.559144 -0.038744 -0.694101
v -0.476680 0.023620 -0.864249
v -0.591785 -0.083822 -0.522750
v -0.610576 0.132866 -0.472830
v -0.157560 0.210636 -0.577398
v -0.165238 0.264904 -0.748568
v -0.196369 0.156000 -0.398119
v -0.455523 0.131173 -0.391852
v -0.272254 0.269084 -0.799113
v -0.498451 0.241805 -0.809593
v -0.576109 0.002145 -0.368244
v -0.571265 -0.109617 -0.380846
v -0.452403 -0.110870 -0.304291
v -0.246909 -0.095810 -0.322016
v -0.251709 0.014460 -0.308963
v -0.457404 0.003727 -0.292160
v -0.570535 0.395971 -0.587330
v -0.215796 0.422264 -0.535313
v -0.463759 0.328619 -0.351291
v -0.563200 0.338262 -0.420325
v -0.220854 0.483192 -0.693370
v -0.291319 0.350852 -0.371949
v -0.310138 0.488719 -0.738781
v -0.500016 0.463743 -0.744771
v -0.072169 1.664615 -0.905182
v -0.074408 1.922464 -0.913643
v -0.093075 1.644235 -0.844908
v -0.086998 2.018054 -0.882977
v -0.388621 3.617680 2.514113
v -0.494372 3.234513 2.705704
v -0.373703 3.567094 2.863439
v -0.499574 3.285795 2.901886
v -0.462643 3.581378 2.667901
v -0.540015 3.572886 2.691724
v -0.503106 3.594430 2.681256
v -0.567707 3.535791 2.698535
v -0.567106 3.444980 2.707196
v -0.580588 3.491750 2.704239
v -0.544450 3.552931 2.740414
v -0.485636 3.564402 2.737571
v -0.516137 3.569504 2.738145
v -0.557167 3.476009 2.753039
v -0.557272 3.537267 2.742070
v -0.567416 3.507125 2.746592
v -0.402890 3.540436 2.736884
v -0.490695 3.352906 2.780881
v -0.520709 3.593594 2.733503
v -0.559938 3.570757 2.737177
v -0.477313 3.586395 2.733147
v -0.578166 3.548641 2.740168
v -0.592126 3.507316 2.746918
v -0.578277 3.465199 2.755436
v -0.414160 3.517260 2.742126
v -0.480549 3.374420 2.775924
v -0.443465 3.511564 2.732386
v -0.488595 3.414783 2.756822
v -0.503366 3.538734 2.731962
v -0.523784 3.526759 2.733611
v -0.481354 3.535049 2.731564
v -0.533022 3.515439 2.734825
v -0.540325 3.493664 2.738115
v -0.532911 3.471176 2.742799
v -0.429757 3.500967 2.734902
v -0.477633 3.398012 2.759337
v -0.083258 3.192473 3.465019
v -0.080653 3.115302 3.507632
v -0.124564 3.184884 3.438512
v -0.120695 3.107781 3.482017
v -0.054878 3.146952 3.522957
v 0.263853 3.243715 3.103131
v 0.279673 3.311867 3.088612
v 0.242665 3.259535 3.142315
v 0.204804 3.222624 3.157433
v 0.218413 3.252144 3.113072
v 0.264685 3.307299 3.070539
v 0.230401 3.332898 3.133942
v 0.184129 3.277743 3.176475
v 0.169141 3.273174 3.158402
v 0.206149 3.325506 3.104699
v 0.244010 3.362417 3.089582
v 0.184961 3.341327 3.143884
v 0.258324 3.244445 3.122585
v 0.280077 3.275205 3.091019
v 0.267623 3.284504 3.114051
v 0.280566 3.312578 3.071863
v 0.271267 3.272519 3.080396
v 0.236070 3.222749 3.131471
v 0.223616 3.232048 3.154503
v 0.244070 3.240101 3.105397
v 0.209361 3.227704 3.137315
v 0.244559 3.277474 3.086240
v 0.268414 3.344976 3.083055
v 0.259604 3.342291 3.072433
v 0.238662 3.296865 3.140696
v 0.260415 3.327625 3.109130
v 0.189210 3.242750 3.174582
v 0.211464 3.264446 3.165696
v 0.188399 3.257416 3.137885
v 0.180400 3.240065 3.163959
v 0.237350 3.320595 3.081318
v 0.210152 3.288176 3.106318
v 0.239452 3.357338 3.109699
v 0.204255 3.307567 3.160774
v 0.168248 3.272463 3.175151
v 0.181191 3.300537 3.132963
v 0.225198 3.352993 3.092511
v 0.204744 3.344941 3.141618
v 0.212744 3.362292 3.115544
v 0.177547 3.312522 3.166618
v 0.168737 3.309837 3.155995
v 0.190489 3.340596 3.124429
v -0.319182 3.251366 3.109696
v -0.333532 3.319914 3.095518
v -0.296710 3.266613 3.148389
v -0.259499 3.228717 3.162661
v -0.273325 3.258597 3.118610
v -0.319079 3.314959 3.077113
v -0.282716 3.339631 3.139720
v -0.236962 3.283269 3.181217
v -0.222510 3.278314 3.162813
v -0.259331 3.331614 3.109941
v -0.296542 3.369511 3.095669
v -0.236859 3.346862 3.148634
v -0.313200 3.251945 3.129021
v -0.334843 3.283274 3.097944
v -0.321634 3.292237 3.120687
v -0.334783 3.320653 3.078793
v -0.326348 3.280362 3.087126
v -0.291328 3.229670 3.137410
v -0.278119 3.238633 3.160153
v -0.299455 3.247232 3.111518
v -0.264374 3.233920 3.142650
v -0.299394 3.284612 3.092366
v -0.321536 3.352718 3.089699
v -0.313041 3.349806 3.078881
v -0.291766 3.303827 3.146669
v -0.313410 3.335156 3.115592
v -0.243001 3.248422 3.179449
v -0.264872 3.270697 3.171060
v -0.242632 3.263073 3.142739
v -0.234506 3.245510 3.168631
v -0.291169 3.327531 3.087270
v -0.264275 3.294402 3.111661
v -0.291667 3.364308 3.115681
v -0.256647 3.313616 3.165965
v -0.221259 3.277575 3.179538
v -0.234407 3.305991 3.137643
v -0.277922 3.359596 3.098177
v -0.256586 3.350995 3.146813
v -0.264713 3.368558 3.120920
v -0.229693 3.317867 3.171204
v -0.221198 3.314954 3.160386
v -0.242841 3.346283 3.129309
vn -0.8485 -0.5017 0.1682
vn 0.4380 0.6616 -0.6086
vn 0.9837 -0.1787 -0.0191
vn 0.9813 0.1923 -0.0032
vn 0.9504 0.2936 0.1026
vn 0.9736 -0.0986 0.2060
vn 0.9733 -0.0782 0.2160
vn 0.4515 -0.6797 0.5780
vn 0.3134 -0.9488 0.0388
vn 0.2747 -0.8377 0.4721
vn 0.1047 0.8792 -0.4648
vn 0.0554 0.9274 -0.3700
vn 0.3682 0.6832 -0.6307
vn 0.1572 -0.2169 -0.9634
vn 0.1973 -0.9590 -0.2037
vn 0.5775 0.4055 0.7086
vn 0.2349 0.0456 -0.9709
vn -0.0307 -0.3418 -0.9393
vn 0.2102 0.2593 -0.9426
vn 0.3144 -0.9141 -0.2562
vn 0.7919 0.5577 -0.2486
vn 0.9275 -0.1344 -0.3487
vn 0.0034 0.8662 -0.4997
vn 0.9691 0.2311 -0.0868
vn 0.5206 -0.7793 -0.3487
vn 0.0707 0.8845 -0.4611
vn -0.0223 0.7688 -0.6390
vn -0.8403 -0.1812 -0.5109
vn 0.6460 -0.1621 -0.7459
vn 0.1319 0.9149 -0.3815
vn -0.9341 -0.1083 0.3402
vn 0.7877 -0.1562 -0.5959
vn 0.0805 0.7493 -0.6574
vn 0.6972 0.3262 0.6383
vn -0.2595 -0.0824 0.9622
vn 0.2527 -0.7599 0.5989
vn 0.1166 -0.9930 0.0211
vn 0.2079 -0.8521 0.4803
vn 0.4161 -0.1244 0.9007
vn 0.7342 0.3378 -0.5889
vn 0.3611 0.8190 -0.4460
vn 0.8600 -0.0780 0.5043
vn 0.2713 -0.6224 0.7341
vn 0.2649 0.8797 -0.3949
vn 0.1636 0.8230 -0.5440
vn 0.1095 0.7641 -0.6358
vn 0.8618 0.4020 0.3092
vn 0.4885 -0.2453 0.8374
vn 0.8438 0.0740 -0.5316
vn 0.1779 -0.4751 -0.8618
vn 0.9806 0.1957 0.0062
vn 0.9677 0.0263 -0.2507
vn 0.1496 0.9377 -0.3136
vn 0.4394 -0.8531 0.2815
vn 0.9499 0.2800 0.1388
vn 0.2246 0.8491 -0.4781
vn 0.2103 0.8891 -0.4064
vn 0.9786 0.1950 -0.0664
vn 0.1951 0.7219 -0.6639
vn 0.0579 0.9885 0.1396
vn 0.1787 -0.9650 0.1922
vn 0.9706 -0.1896 0.1482
vn 0.2708 0.9290 -0.2523
vn 0.0765 0.9961 -0.0450
vn 0.0070 0.9035 0.4285
vn 0.2993 -0.7646 0.5708
vn 0.8438 -0.0747 0.5314
vn 0.2025 -0.9492 0.2408
vn 0.0661 -0.2285 0.9713
vn 0.1694 -0.9789 0.1144
vn 0.9366 -0.3081 -0.1670
vn 0.0672 -0.5528 0.8306
vn 0.8704 -0.3804 0.3126
vn 0.3242 -0.8941 0.3090
vn 0.2037 -0.6565 0.7263
vn 0.3612 0.8207 -0.4427
vn 0.3480 0.8855 -0.3078
vn 0.7649 0.3357 0.5497
vn 0.4292 0.8767 0.2170
vn 0.1535 -0.9698 0.1893
vn 0.1845 -0.7012 0.6887
vn 0.8909 0.1746 0.4194
vn 0.3094 0.9494 -0.0536
vn 0.3914 0.7919 0.4687
vn 0.1114 -0.9711 0.2113
vn 0.4295 0.8130 0.3931
vn 0.1477 -0.9826 0.1127
vn 0.5478 0.3457 0.7618
vn 0.1368 -0.9778 0.1585
vn 0.3912 -0.7020 0.5951
vn -0.2948 0.0371 0.9548
vn 0.0072 0.9252 0.3793
vn 0.1681 -0.9792 0.1140
vn 0.9696 -0.2258 0.0946
vn 0.0403 -0.1456 0.9885
vn 0.0533 0.9509 0.3048
vn 0.6421 0.2998 0.7056
vn 0.1329 -0.9812 0.1401
vn -0.1187 0.4549 0.8826
vn 0.4507 0.8673 0.2113
vn 0.3460 0.3521 0.8696
vn 0.0391 -0.9074 0.4185
vn 0.3268 -0.7723 0.5447
vn 0.7863 -0.1141 0.6072
vn 0.4183 0.7769 0.4705
vn 0.1371 -0.9825 0.1262
vn 0.8559 0.2707 0.4407
vn 0.0001 0.8729 0.4878
vn 0.2124 -0.9654 0.1514
vn 0.8812 -0.2392 0.4078
vn 0.8588 -0.4159 -0.2991
vn 0.9689 0.1873 -0.1619
vn 0.9534 0.0595 -0.2956
vn 0.9404 0.3318 -0.0744
vn 0.9559 -0.0961 -0.2777
vn 0.9816 0.1785 0.0680
vn 0.7245 0.5593 0.4029
vn 0.8634 0.5037 0.0299
vn -0.4073 0.0378 0.9125
vn 0.2677 0.5428 0.7961
vn -0.3031 -0.3588 -0.8828
vn 0.9812 -0.1225 0.1489
vn -0.9871 -0.0195 0.1586
vn -0.9470 0.0100 0.3210
vn 0.9280 -0.0412 -0.3703
vn 0.5473 -0.2730 0.7912
vn 0.9701 -0.1805 0.1625
vn -0.7547 0.0191 0.6558
vn -0.2096 -0.3254 -0.9221
vn -0.9827 -0.1263 0.1356
vn 0.9795 -0.1775 0.0950
vn -0.9791 0.1446 0.1428
vn -0.9481 0.0742 0.3093
vn 0.9170 -0.0558 -0.3949
vn 0.4691 -0.3959 0.7894
vn 0.6658 0.1261 -0.7354
vn -0.6809 -0.0607 0.7299
vn -0.0169 -0.2349 0.9719
vn -0.7344 -0.2736 -0.6212
vn 0.6997 -0.1511 -0.6983
vn -0.2589 0.0990 -0.9608
vn 0.9677 0.0148 -0.2516
vn -0.9788 0.1448 0.1449
vn -0.9316 0.1335 0.3381
vn 0.9235 -0.0241 -0.3829
vn 0.9943 0.0099 -0.1058
vn -0.2386 0.2561 -0.9367
vn -0.6366 -0.1737 0.7514
vn 0.0434 -0.3998 0.9156
vn -0.6985 0.2767 -0.6599
vn -0.1207 -0.9899 -0.0738
vn -0.1015 -0.9936 -0.0493
vn -0.1073 -0.9936 -0.0349
vn -0.1176 -0.9900 -0.0784
vn -0.1173 -0.9918 -0.0498
vn -0.1037 -0.9940 -0.0353
vn -0.7590 0.1694 0.6287
vn -0.8743 0.1944 0.4448
vn -0.6810 0.1386 -0.7191
vn 0.6652 0.0030 -0.7466
vn 0.6765 0.0287 -0.7359
vn -0.6864 0.1384 -0.7139
vn 0.1063 0.0903 0.9902
vn -0.6578 0.1592 0.7361
vn 0.5177 0.0817 0.8516
vn 0.9216 0.0255 -0.3872
vn -0.9295 0.1728 0.3258
vn -0.9712 0.1858 0.1491
vn 0.9875 0.0643 -0.1441
vn -0.2607 0.0842 -0.9617
vn 0.5032 -0.0502 0.8627
vn 0.1015 -0.0136 0.9947
vn 0.3680 0.7579 0.5386
vn -0.1208 -0.9883 -0.0926
vn 0.1508 0.7836 0.6026
vn -0.1250 -0.9878 -0.0927
vn 0.9885 0.1459 0.0406
vn 0.9588 -0.1778 -0.2214
vn 0.9895 -0.0722 0.1256
vn 0.9440 0.2780 -0.1779
vn 0.6168 -0.2645 0.7413
vn 0.5442 0.7092 -0.4481
vn 0.9884 -0.0657 0.1369
vn 0.3391 0.7552 -0.5610
vn -0.9667 -0.1020 0.2347
vn -0.3730 -0.1622 -0.9135
vn -0.3070 -0.1767 0.9352
vn 0.9913 -0.0367 0.1264
vn 0.1046 0.1658 -0.9806
vn -0.4740 0.1148 -0.8730
vn -0.9531 -0.2473 -0.1745
vn -0.1276 -0.4580 0.8797
vn -0.3041 0.2276 -0.9251
vn -0.9325 -0.1061 0.3452
vn 0.9984 0.0390 -0.0406
vn -0.9862 0.0172 -0.1645
vn 0.5130 -0.1444 0.8462
vn 0.1488 -0.1404 -0.9788
vn 0.9680 -0.0284 -0.2492
vn -0.9842 -0.1090 -0.1395
vn -0.0055 -0.9732 -0.2300
vn 0.0459 -0.9672 -0.2499
vn 0.0307 -0.9503 -0.3097
vn -0.0030 -0.9554 -0.2954
vn -0.9960 -0.0471 0.0753
vn 0.9524 -0.0180 0.3044
vn 0.1117 0.2481 -0.9623
vn 0.9526 0.0966 -0.2884
vn 0.9506 0.2000 -0.2373
vn 0.1201 0.2779 -0.9531
vn 0.3821 -0.1091 0.9177
vn -0.9495 0.1883 0.2510
vn -0.9815 0.1625 -0.1016
vn 0.9659 0.2245 0.1290
vn -0.2145 -0.1598 0.9636
vn -0.3201 0.2831 -0.9041
vn -0.2306 -0.1206 0.9655
vn 0.4107 -0.0744 0.9087
vn -0.1701 0.5680 0.8053
vn 0.0568 -0.9744 -0.2176
vn 0.2585 0.5581 0.7885
vn -0.0058 -0.9784 -0.2067
vn -0.3354 -0.0626 -0.9400
vn -0.2849 -0.5211 0.8046
vn 0.9889 -0.0996 0.1099
vn -0.9838 -0.0676 -0.1658
vn -0.9640 -0.1580 0.2140
vn 0.4919 -0.4792 0.7269
vn 0.1357 -0.0461 -0.9897
vn 0.9604 -0.0155 -0.2782
vn 0.3760 0.0186 -0.9264
vn 0.3064 -0.8514 -0.4257
vn 0.3541 0.2390 -0.9042
vn 0.2446 0.4822 -0.8412
vn 0.2921 -0.4066 -0.8656
vn 0.4799 -0.0428 -0.8763
vn 0.9585 0.2652 -0.1046
vn 0.9289 0.3679 0.0426
vn 0.9961 0.0503 -0.0723
vn 0.8997 0.4170 0.1293
vn -0.5827 0.8126 0.0094
vn 0.7689 0.5356 -0.3493
vn 0.8146 -0.5689 0.1126
vn 0.5260 0.8311 -0.1806
vn -0.2244 0.9734 0.0462
vn 0.9116 0.2345 -0.3377
vn 0.9412 -0.3100 -0.1345
vn 0.2502 -0.1072 -0.9622
vn -0.0552 0.1873 0.9807
vn 0.0398 0.1762 0.9835
vn -0.0208 0.1898 0.9816
vn 0.0174 0.1527 0.9881
vn 0.0110 0.2015 0.9794
vn 0.0478 0.1415 0.9888
vn -0.0310 0.1431 0.9892
vn 0.0590 0.1956 0.9789
vn 0.0073 0.1886 0.9820
vn 0.0203 0.2294 0.9731
vn 0.1773 -0.2217 0.9589
vn -0.0220 0.2126 0.9769
vn 0.3032 -0.1510 0.9409
vn -0.3992 0.5091 0.7626
vn -0.4027 0.3140 0.8598
vn -0.1365 -0.1304 0.9820
vn 0.7293 0.4459 0.5189
vn -0.2009 -0.0764 0.9766
vn -0.5046 0.4407 0.7425
vn 0.0335 -0.2026 0.9787
vn 0.3337 0.9212 0.1998
vn 0.5388 -0.0320 0.8419
vn 0.5330 -0.0994 0.8402
vn -0.0132 0.4627 0.8864
vn 0.0250 -0.4037 0.9145
vn -0.0211 0.9994 -0.0285
vn 0.7627 0.2637 0.5905
vn 0.8522 -0.4293 0.2991
vn -0.4145 0.6468 -0.6402
vn -0.9556 -0.2945 -0.0131
vn -0.9887 0.0706 -0.1325
vn -0.9845 0.1199 0.1280
vn -0.9446 -0.2024 0.2585
vn -0.9325 -0.1740 0.3165
vn -0.3178 -0.7325 0.6020
vn -0.2248 -0.9742 0.0180
vn -0.1867 -0.8719 0.4527
vn -0.1406 0.8722 -0.4685
vn -0.2559 0.9169 -0.3062
vn -0.3948 0.6507 -0.6487
vn 0.0199 -0.2101 -0.9775
vn -0.0821 -0.9708 -0.2252
vn -0.7222 0.3506 0.5962
vn -0.1054 0.0461 -0.9934
vn 0.2358 -0.2963 -0.9255
vn -0.0683 0.2596 -0.9633
vn -0.2006 -0.9361 -0.2891
vn -0.8816 0.4373 -0.1776
vn -0.9249 -0.2677 -0.2700
vn -0.2647 0.8295 -0.4918
vn -0.9930 0.0832 0.0842
vn -0.4440 -0.8462 -0.2946
vn -0.2337 0.8627 -0.4484
vn -0.1518 0.7532 -0.6401
vn 0.8155 -0.0676 -0.5748
vn -0.7070 -0.2458 -0.6632
vn -0.2848 0.8849 -0.3686
vn 0.9653 0.0284 0.2595
vn -0.8047 -0.2708 -0.5282
vn -0.0633 0.7455 -0.6635
vn -0.7157 0.2044 0.6679
vn 0.3526 -0.0116 0.9357
vn -0.0903 -0.7836 0.6147
vn -0.0245 -0.9996 0.0134
vn -0.1191 -0.8660 0.4856
vn -0.3166 -0.1771 0.9319
vn -0.8287 0.2051 -0.5208
vn -0.3809 0.8008 -0.4621
vn -0.8870 -0.1962 0.4180
vn -0.1813 -0.6361 0.7500
vn -0.3922 0.8932 -0.2199
vn -0.2938 0.7839 -0.5469
vn -0.1098 0.7631 -0.6369
vn -0.8948 0.2732 0.3530
vn -0.5882 -0.2911 0.7545
vn -0.9431 -0.0187 -0.3319
vn -0.0422 -0.4859 -0.8730
vn -0.9937 0.1113 -0.0094
vn -0.9168 -0.0538 -0.3957
vn -0.2604 0.9118 -0.3175
vn -0.2816 -0.9123 0.2975
vn -0.9854 0.1316 0.1080
vn -0.4311 0.7700 -0.4704
vn -0.3690 0.8472 -0.3823
vn -0.9824 0.1834 -0.0352
vn -0.3582 0.6646 -0.6558
vn -0.0898 0.9878 0.1273
vn -0.1730 -0.9637 0.2031
vn -0.9735 -0.2161 0.0742
vn -0.4201 0.8784 -0.2280
vn -0.1522 0.9872 -0.0485
vn 0.0212 0.9042 0.4265
vn -0.1386 -0.7974 0.5874
vn -0.8331 -0.0528 0.5506
vn -0.2219 -0.9436 0.2456
vn 0.0400 -0.2225 0.9741
vn -0.1900 -0.9741 0.1227
vn -0.9397 -0.2970 -0.1696
vn 0.0821 -0.5502 0.8310
vn -0.8728 -0.3575 0.3322
vn -0.3405 -0.8854 0.3164
vn -0.1216 -0.6812 0.7219
vn -0.4992 0.7386 -0.4531
vn -0.4547 0.8285 -0.3269
vn -0.7454 0.3527 0.5657
vn -0.4531 0.8675 0.2054
vn -0.1584 -0.9701 0.1836
vn -0.1873 -0.6963 0.6929
vn -0.8763 0.1978 0.4393
vn -0.3765 0.9242 -0.0644
vn -0.3650 0.8009 0.4748
vn -0.1320 -0.9679 0.2140
vn -0.3991 0.8239 0.4024
vn -0.1709 -0.9784 0.1163
vn -0.5213 0.3598 0.7738
vn -0.1588 -0.9740 0.1618
vn -0.3960 -0.6916 0.6040
vn 0.3155 0.0366 0.9482
vn 0.0256 0.9250 0.3791
vn -0.1909 -0.9744 0.1185
vn -0.9725 -0.2026 0.1151
vn -0.0218 -0.1448 0.9892
vn -0.0413 0.9527 0.3011
vn -0.6179 0.3162 0.7198
vn -0.1554 -0.9774 0.1433
vn 0.1504 0.4514 0.8796
vn -0.4444 0.8707 0.2106
vn -0.3171 0.3608 0.8771
vn -0.0534 -0.9062 0.4195
vn -0.3347 -0.7636 0.5522
vn -0.7752 -0.0936 0.6248
vn -0.3871 0.7875 0.4796
vn -0.1599 -0.9786 0.1295
vn -0.8383 0.2929 0.4598
vn 0.0338 0.8725 0.4875
vn -0.2342 -0.9595 0.1564
vn -0.8777 -0.2161 0.4276
vn -0.8125 -0.5359 -0.2295
vn -0.9959 0.0459 -0.0784
vn -0.9719 -0.0849 -0.2196
vn -0.9812 0.1929 0.0067
vn -0.9523 -0.2334 -0.1966
vn -0.9877 0.0368 0.1516
vn -0.7543 0.4583 0.4702
vn -0.9191 0.3790 0.1080
vn 0.4750 0.1021 0.8740
vn -0.2744 0.5038 0.8191
vn 0.2757 -0.3172 -0.9074
vn -0.9376 -0.2605 0.2304
vn 0.9896 0.1227 0.0747
vn 0.9595 0.1472 0.2400
vn -0.9405 -0.1757 -0.2909
vn -0.4340 -0.3436 0.8328
vn -0.9171 -0.3163 0.2427
vn 0.7929 0.1339 0.5945
vn 0.1713 -0.3002 -0.9384
vn 0.9984 0.0150 0.0539
vn -0.9325 -0.3151 0.1762
vn 0.9569 0.2839 0.0606
vn 0.9504 0.2108 0.2287
vn -0.9297 -0.1887 -0.3164
vn -0.3395 -0.4541 0.8237
vn -0.7367 0.0252 -0.6758
vn 0.7417 0.0417 0.6694
vn 0.1322 -0.2241 0.9655
vn 0.7109 -0.1696 -0.6826
vn -0.7273 -0.2538 -0.6377
vn 0.1601 0.1291 -0.9786
vn -0.9776 -0.1252 -0.1690
vn 0.9568 0.2841 0.0627
vn 0.9281 0.2673 0.2592
vn -0.9395 -0.1582 -0.3038
vn -0.9909 -0.1329 -0.0215
vn 0.1197 0.2819 -0.9519
vn 0.7159 -0.0763 0.6940
vn 0.0916 -0.3964 0.9135
vn 0.5936 0.3697 -0.7148
vn 0.2543 -0.9630 -0.0897
vn 0.2379 -0.9692 -0.0638
vn 0.2449 -0.9683 -0.0499
vn 0.2508 -0.9635 -0.0940
vn 0.2532 -0.9652 -0.0656
vn 0.2414 -0.9691 -0.0500
vn 0.7773 0.2799 0.5635
vn 0.8719 0.3200 0.3706
vn 0.5911 0.2301 -0.7731
vn -0.7194 -0.0966 -0.6878
vn -0.7333 -0.0728 -0.6760
vn 0.5969 0.2307 -0.7684
vn -0.0342 0.0802 0.9962
vn 0.6881 0.2561 0.6790
vn -0.4504 0.0121 0.8927
vn -0.9452 -0.1089 -0.3079
vn 0.9194 0.3059 0.2472
vn 0.9438 0.3236 0.0678
vn -0.9951 -0.0784 -0.0599
vn 0.1640 0.1148 -0.9798
vn -0.4163 -0.1164 0.9018
vn -0.0142 -0.0219 0.9997
vn -0.4258 0.7008 0.5723
vn 0.2526 -0.9615 -0.1084
vn -0.2099 0.7577 0.6179
vn 0.2566 -0.9604 -0.1089
vn -0.9923 0.0597 -0.1084
vn -0.8959 -0.2577 -0.3619
vn -0.9876 -0.1550 -0.0246
vn -0.9343 0.1897 -0.3019
vn -0.7189 -0.3324 0.6105
vn -0.5342 0.6619 -0.5259
vn -0.9886 -0.1498 -0.0152
vn -0.3306 0.7292 -0.5991
vn 0.9246 -0.0216 0.3802
vn 0.5205 -0.1242 -0.8448
vn 0.1744 -0.1562 0.9722
vn -0.9923 -0.1211 -0.0262
vn 0.0328 0.1628 -0.9861
vn 0.5970 0.1620 -0.7857
vn 0.9872 -0.1568 -0.0301
vn 0.0300 -0.4513 0.8919
vn 0.4215 0.2585 -0.8692
vn 0.8745 -0.0292 0.4842
vn -0.9802 -0.0452 -0.1928
vn 0.9948 0.1015 -0.0120
vn -0.6221 -0.1926 0.7588
vn 0.0148 -0.1462 -0.9892
vn -0.9127 -0.1084 -0.3939
vn 0.9996 -0.0246 0.0131
vn 0.1227 -0.9677 -0.2202
vn 0.0747 -0.9660 -0.2477
vn 0.0973 -0.9475 -0.3046
vn 0.1287 -0.9498 -0.2853
vn 0.9732 0.0367 0.2268
vn -0.9827 -0.1003 0.1555
vn 0.0160 0.2440 -0.9696
vn -0.9021 0.0177 -0.4311
vn -0.9167 0.1206 -0.3809
vn 0.0038 0.2730 -0.9620
vn -0.5071 -0.1469 0.8492
vn 0.8807 0.2661 0.3918
vn 0.9682 0.2454 0.0484
vn -0.9897 0.1413 -0.0214
vn 0.0776 -0.1473 0.9860
vn 0.4293 0.3150 -0.8464
vn 0.0899 -0.1070 0.9902
vn -0.5369 -0.1147 0.8358
vn -0.0034 0.5751 0.8181
vn 0.0596 -0.9743 -0.2174
vn -0.4221 0.5292 0.7361
vn 0.1199 -0.9730 -0.1970
vn 0.4791 -0.0280 -0.8773
vn 0.2017 -0.5004 0.8420
vn -0.9821 -0.1835 -0.0418
vn 0.9998 0.0168 -0.0132
vn 0.9298 -0.0774 0.3597
vn -0.5549 -0.5238 0.6464
vn 0.0214 -0.0509 -0.9985
vn -0.9019 -0.0948 -0.4215
vn -0.3782 -0.0164 -0.9256
vn -0.3062 -0.8687 -0.3893
vn -0.3474 0.2377 -0.9071
vn -0.2433 0.4870 -0.8388
vn -0.2509 -0.4531 -0.8554
vn -0.5320 -0.0992 -0.8409
vn -0.9581 0.2800 -0.0601
vn -0.9272 0.3683 0.0683
vn -0.9965 0.0645 -0.0528
vn -0.8906 0.4313 0.1444
vn 0.5864 0.8095 -0.0275
vn -0.7705 0.5420 -0.3355
vn -0.8130 -0.5663 0.1354
vn -0.5198 0.8363 -0.1743
vn 0.2395 0.9704 0.0312
vn -0.9161 0.2413 -0.3203
vn -0.9451 -0.3055 -0.1158
vn -0.2748 -0.1075 -0.9555
vn 0.0722 0.1915 0.9788
vn -0.0167 0.1770 0.9841
vn 0.0439 0.1894 0.9809
vn 0.0049 0.1542 0.9880
vn 0.0110 0.2037 0.9790
vn -0.0254 0.1425 0.9895
vn 0.0492 0.1415 0.9887
vn -0.0380 0.2009 0.9789
vn 0.0153 0.1928 0.9811
vn -0.0028 0.2219 0.9751
vn -0.1583 -0.2208 0.9624
vn 0.0434 0.2183 0.9749
vn -0.2856 -0.1493 0.9466
vn 0.4178 0.5142 0.7490
vn 0.4222 0.3156 0.8498
vn 0.1559 -0.1317 0.9790
vn -0.7187 0.4580 0.5232
vn 0.2213 -0.0774 0.9721
vn 0.5210 0.4478 0.7267
vn -0.0158 -0.2030 0.9791
vn -0.3048 0.9296 0.2070
vn -0.5203 -0.0181 0.8538
vn -0.5164 -0.0857 0.8521
vn 0.0452 0.4619 0.8858
vn -0.0150 -0.4032 0.9150
vn 0.0467 0.9985 -0.0293
vn -0.7421 0.2835 0.6074
vn 0.8946 -0.3580 0.2676
vn 0.9984 0.0145 0.0538
vn 0.7249 -0.6492 0.2304
vn 0.0929 -0.8418 -0.5317
vn 0.0243 -0.6232 -0.7817
vn 0.9415 0.3309 0.0642
vn 0.6973 0.1055 0.7090
vn 0.3481 -0.4370 0.8294
vn -0.6200 -0.4247 -0.6597
vn -0.4331 -0.1734 -0.8845
vn 0.8021 0.3535 0.4813
vn 0.6067 0.0993 0.7887
vn -0.3993 -0.7539 0.5217
vn -0.6404 -0.2808 -0.7149
vn -0.3682 -0.0031 -0.9298
vn 0.4621 0.5324 0.7093
vn 0.2575 0.3083 0.9158
vn -0.9984 -0.0145 -0.0539
vn -0.7669 0.0416 -0.6405
vn -0.4441 0.7214 -0.5314
vn -0.7249 0.6492 -0.2304
vn -0.6824 0.4709 -0.5591
vn -0.6998 0.1782 -0.6917
vn -0.8946 0.3579 -0.2676
vn -0.8597 0.0926 -0.5023
vn -0.8856 -0.0401 -0.4627
vn -0.7099 0.5398 0.4524
vn -0.7703 0.2988 0.5633
vn -0.1599 0.2410 0.9573
vn -0.0243 0.6232 0.7817
vn 0.2688 0.4366 0.8586
vn 0.4318 0.4069 0.8049
vn -0.0929 0.8418 0.5317
vn 0.2702 0.7613 0.5895
vn 0.2352 0.9284 0.2877
vn -0.3481 0.4370 -0.8294
vn -0.4707 0.1252 -0.8734
vn -0.5932 0.0550 -0.8032
vn -0.6973 -0.1055 -0.7090
vn -0.7079 -0.1958 -0.6786
vn -0.7860 -0.1982 -0.5855
vn -0.9415 -0.3309 -0.0642
vn -0.6261 -0.4539 0.6340
vn -0.0621 -0.0629 0.9961
vn 0.4331 0.1734 0.8845
vn 0.5375 0.1838 0.8230
vn 0.5469 0.2737 0.7912
vn 0.6200 0.4247 0.6597
vn 0.6959 0.4808 0.5334
vn 0.6060 0.7278 0.3210
vn -0.6067 -0.0993 -0.7887
vn -0.5375 -0.1838 -0.8230
vn -0.5469 -0.2737 -0.7912
vn -0.8021 -0.3535 -0.4813
vn -0.6959 -0.4808 -0.5334
vn -0.6060 -0.7278 -0.3211
vn 0.3682 0.0032 0.9298
vn 0.4707 -0.1252 0.8733
vn 0.5932 -0.0550 0.8032
vn 0.6403 0.2808 0.7149
vn 0.7079 0.1958 0.6786
vn 0.7860 0.1982 0.5855
vn 0.3993 0.7539 -0.5217
vn 0.6261 0.4539 -0.6340
vn 0.0621 0.0629 -0.9961
vn -0.2576 -0.3083 -0.9158
vn -0.2688 -0.4366 -0.8586
vn -0.4318 -0.4069 -0.8049
vn -0.4621 -0.5324 -0.7092
vn -0.2702 -0.7613 -0.5895
vn -0.2352 -0.9284 -0.2877
vn 0.4441 -0.7214 0.5314
vn 0.6824 -0.4709 0.5591
vn 0.6998 -0.1782 0.6917
vn 0.1599 -0.2410 -0.9573
vn 0.7703 -0.2988 -0.5633
vn 0.7100 -0.5398 -0.4523
vn 0.7669 -0.0416 0.6405
vn 0.8597 -0.0926 0.5023
vn 0.8856 0.0401 0.4627
vn -0.8974 -0.3344 0.2878
vn -0.9963 0.0407 0.0763
vn -0.7363 -0.6300 0.2468
vn -0.1269 -0.8389 -0.5292
vn -0.0582 -0.6221 -0.7808
vn -0.9308 0.3555 0.0853
vn -0.6781 0.1236 0.7245
vn -0.3407 -0.4280 0.8371
vn 0.5936 -0.4407 -0.6734
vn 0.4084 -0.1844 -0.8940
vn -0.7815 0.3743 0.4992
vn -0.5859 0.1149 0.8022
vn 0.3910 -0.7643 0.5128
vn 0.6165 -0.2973 -0.7291
vn 0.3469 -0.0125 -0.9378
vn -0.4319 0.5441 0.7193
vn -0.2287 0.3147 0.9212
vn 0.9963 -0.0407 -0.0763
vn 0.7531 0.0216 -0.6576
vn 0.4508 0.7096 -0.5415
vn 0.7363 0.6300 -0.2468
vn 0.6817 0.4530 -0.5745
vn 0.6885 0.1600 -0.7074
vn 0.8974 0.3345 -0.2878
vn 0.8504 0.0701 -0.5215
vn 0.8736 -0.0632 -0.4825
vn 0.7339 0.5208 0.4361
vn 0.7904 0.2783 0.5457
vn 0.1877 0.2365 0.9533
vn 0.0583 0.6221 0.7808
vn -0.2379 0.4432 0.8643
vn -0.4028 0.4179 0.8143
vn 0.1269 0.8389 0.5292
vn -0.2368 0.7679 0.5952
vn -0.2042 0.9342 0.2926
vn 0.3407 0.4280 -0.8371
vn 0.4541 0.1130 -0.8838
vn 0.5762 0.0396 -0.8163
vn 0.6781 -0.1236 -0.7245
vn 0.6871 -0.2141 -0.6943
vn 0.7672 -0.2186 -0.6030
vn 0.9308 -0.3555 -0.0853
vn 0.6281 -0.4703 0.6199
vn 0.0828 -0.0648 0.9945
vn -0.4084 0.1844 0.8940
vn -0.5138 0.1976 0.8349
vn -0.5215 0.2877 0.8033
vn -0.5936 0.4407 0.6734
vn -0.6709 0.4987 0.5488
vn -0.5793 0.7434 0.3344
vn 0.5859 -0.1149 -0.8022
vn 0.5138 -0.1976 -0.8349
vn 0.5215 -0.2877 -0.8033
vn 0.7815 -0.3743 -0.4992
vn 0.6709 -0.4987 -0.5488
vn 0.5793 -0.7434 -0.3344
vn -0.3469 0.0126 0.9378
vn -0.4541 -0.1130 0.8838
vn -0.5762 -0.0396 0.8163
vn -0.6165 0.2973 0.7291
vn -0.6871 0.2141 0.6943
vn -0.7672 0.2186 0.6030
vn -0.3910 0.7643 -0.5128
vn -0.6281 0.4703 -0.6199
vn -0.0828 0.0648 -0.9945
vn 0.2287 -0.3147 -0.9212
vn 0.2379 -0.4432 -0.8643
vn 0.4028 -0.4179 -0.8143
vn 0.4319 -0.5441 -0.7193
vn 0.2368 -0.7679 -0.5952
vn 0.2042 -0.9342 -0.2926
vn -0.4508 -0.7096 0.5415
vn -0.6817 -0.4530 0.5745
vn -0.6885 -0.1600 0.7074
vn -0.1877 -0.2365 -0.9533
vn -0.7904 -0.2783 -0.5457
vn -0.7339 -0.5208 -0.4361
vn -0.7531 -0.0216 0.6576
vn -0.8504 -0.0702 0.5215
vn -0.8736 0.0632 0.4825
vt 0.833374 0.494548
vt 0.893919 0.512741
vt 0.908415 0.468160
vt 0.848637 0.467455
vt 0.567859 0.867914
vt 0.639317 0.828812
vt 0.620915 0.894044
vt 0.556155 0.927906
vt 0.812683 0.509803
vt 0.774909 0.642712
vt 0.751394 0.643294
vt 0.751725 0.493743
vt 0.828812 0.793372
vt 0.751727 0.811870
vt 0.672932 0.807420
vt 0.672336 0.642732
vt 0.672998 0.503429
vt 0.598676 0.643182
vt 0.594201 0.530171
vt 0.560191 0.672195
vt 0.619753 0.672998
vt 0.599703 0.594201
vt 0.569702 0.558226
vt 0.580250 0.833374
vt 0.635423 0.812683
vt 0.637090 0.751725
vt 0.569078 0.759035
vt 0.500000 0.859251
vt 0.500000 0.750726
vt 0.569078 0.758996
vt 0.500000 0.657595
vt 0.560191 0.671923
vt 0.604420 0.951058
vt 0.545714 0.976119
vt 0.604420 0.548422
vt 0.626365 0.643481
vt 0.688416 0.643970
vt 0.666902 0.547256
vt 0.500000 0.917421
vt 0.563590 0.893919
vt 0.639317 0.793372
vt 0.659328 0.642712
vt 0.676970 0.643370
vt 0.671449 0.761101
vt 0.555994 0.632181
vt 0.545714 0.747180
vt 0.604420 0.735145
vt 0.572975 0.538591
vt 0.666902 0.715601
vt 0.500000 0.969030
vt 0.572975 0.947229
vt 0.501290 0.830086
vt 0.457158 0.830118
vt 0.460328 0.806630
vt 0.500288 0.803578
vt 0.499838 0.512886
vt 0.460007 0.507514
vt 0.481582 0.413128
vt 0.510774 0.417065
vt 0.500000 0.559830
vt 0.556447 0.575135
vt 0.579931 0.796381
vt 0.599703 0.530171
vt 0.637090 0.643182
vt 0.659115 0.643738
vt 0.643940 0.535244
vt 0.564556 0.492909
vt 0.500000 0.477524
vt 0.500000 0.432743
vt 0.566016 0.447361
vt 0.569702 0.518348
vt 0.616981 0.429733
vt 0.594994 0.421068
vt 0.612448 0.796381
vt 0.637526 0.771615
vt 0.500000 0.371229
vt 0.561082 0.382998
vt 0.450625 0.491920
vt 0.495971 0.498202
vt 0.507939 0.406303
vt 0.474705 0.401699
vt 0.591615 0.535244
vt 0.575831 0.433451
vt 0.407144 0.499901
vt 0.406490 0.640437
vt 0.358675 0.605643
vt 0.363238 0.556600
vt 0.578790 0.420824
vt 0.621227 0.407144
vt 0.601979 0.363238
vt 0.551080 0.357545
vt 0.500000 0.657756
vt 0.500000 0.571782
vt 0.667216 0.508652
vt 0.621227 0.499901
vt 0.632756 0.407548
vt 0.666461 0.413961
vt 0.556577 0.771615
vt 0.637090 0.751727
vt 0.260484 0.580516
vt 0.278839 0.520364
vt 0.582070 0.278839
vt 0.540875 0.268345
vt 0.619753 0.672932
vt 0.500000 0.307117
vt 0.551080 0.314473
vt 0.500000 0.983839
vt 0.393435 0.816867
vt 0.325561 0.763148
vt 0.671449 0.517077
vt 0.635423 0.509803
vt 0.642381 0.470278
vt 0.671266 0.470798
vt 0.988807 0.740196
vt 1.002924 0.661469
vt 1.015365 0.669173
vt 1.001496 0.721513
vt 0.500000 0.531683
vt 0.500000 0.631036
vt 0.249130 0.712570
vt 0.191059 0.679456
vt 0.198981 0.567653
vt 0.945839 0.547256
vt 0.886123 0.529161
vt 0.904522 0.470747
vt 0.963512 0.471464
vt 0.500000 0.238897
vt 0.540875 0.239236
vt 0.564556 0.495971
vt 0.612448 0.579931
vt 0.628268 0.501290
vt 0.631115 0.457158
vt 0.168698 0.648799
vt 0.177283 0.553376
vt 0.539817 0.181283
vt 0.500000 0.184290
vt 0.500000 0.144817
vt 0.539817 0.140934
vt 0.580006 0.205473
vt 0.539817 0.196322
vt 0.205473 0.476864
vt 0.621491 0.393435
vt 0.538703 0.608225
vt 0.500000 0.615960
vt 0.500000 0.567098
vt 0.526605 0.560962
vt 0.566016 0.450625
vt 0.149293 0.452102
vt 0.133162 0.541160
vt 0.103583 0.505809
vt 0.123733 0.441345
vt 0.539531 0.141037
vt 0.579447 0.149293
vt 0.562090 0.123733
vt 0.530633 0.116366
vt 0.500000 0.385014
vt 0.500000 0.353218
vt 0.586057 0.174337
vt 0.542919 0.165879
vt 0.174337 0.464471
vt 0.086614 0.427976
vt 0.065909 0.448336
vt 0.053210 0.428901
vt 0.071388 0.423606
vt 0.515797 0.085531
vt 0.531484 0.086614
vt 0.523242 0.071388
vt 0.510720 0.071544
vt 0.500000 0.266808
vt 0.601979 0.325561
vt 0.582070 0.249130
vt 0.108290 0.599988
vt 0.073849 0.556649
vt 0.580006 0.679456
vt 0.539817 0.690304
vt 0.539817 0.657159
vt 0.579599 0.648799
vt 0.500000 0.199929
vt 0.513331 0.045311
vt 0.500000 0.046647
vt 0.500000 0.069896
vt 0.051602 0.475706
vt 0.038205 0.462176
vt 0.038356 0.442272
vt 0.580006 0.191059
vt 0.577833 0.599988
vt 0.554232 0.556649
vt 0.500000 0.147087
vt 0.500000 0.124516
vt 0.530339 0.475706
vt 0.515210 0.477146
vt 0.513246 0.460736
vt 0.522445 0.462176
vt 0.500000 0.170521
vt 0.515546 0.457928
vt 0.507613 0.457080
vt 0.506877 0.445401
vt 0.514439 0.446199
vt 0.500000 0.089031
vt 0.528336 0.053210
vt 0.620841 0.601238
vt 0.618568 0.607555
vt 0.613078 0.604170
vt 0.614718 0.599612
vt 0.500000 0.479371
vt 0.500000 0.460095
vt 0.513331 0.424258
vt 0.512541 0.440917
vt 0.500000 0.440864
vt 0.500000 0.422187
vt 0.500000 0.664242
vt 0.576432 0.505809
vt 0.539481 0.507406
vt 0.547321 0.467354
vt 0.500000 0.513551
vt 0.519044 0.508271
vt 0.579599 0.168698
vt 0.538703 0.096221
vt 0.577833 0.108290
vt 0.520322 0.097153
vt 0.500000 0.106427
vt 0.541975 0.104341
vt 0.078394 0.467354
vt 0.104341 0.437145
vt 0.073220 0.507406
vt 0.590300 0.643738
vt 0.499630 0.641384
vt 0.459655 0.640419
vt 0.417546 0.774144
vt 0.414448 0.641253
vt 0.423095 0.508652
vt 0.621491 0.816867
vt 0.648114 0.640437
vt 0.669097 0.641253
vt 0.644267 0.774144
vt 0.578790 0.496630
vt 0.601625 0.405151
vt 0.649402 0.433451
vt 0.651726 0.367843
vt 0.620780 0.366797
vt 0.454529 0.413961
vt 0.467814 0.368189
vt 0.488225 0.366596
vt 0.561691 0.421068
vt 0.537425 0.365401
vt 0.507200 0.363509
vt 0.481273 0.364028
vt 0.510983 0.366114
vt 0.635806 0.367147
vt 0.669092 0.368189
vt 0.420824 0.496630
vt 0.452865 0.405151
vt 0.558226 0.518348
vt 0.484328 0.324872
vt 0.502799 0.322553
vt 0.547406 0.321655
vt 0.519920 0.320969
vt 0.496410 0.322232
vt 0.523434 0.321439
vt 0.639292 0.324944
vt 0.675657 0.324872
vt 0.550036 0.367843
vt 0.558926 0.322330
vt 0.465216 0.366023
vt 0.604868 0.366023
vt 0.599660 0.365401
vt 0.621651 0.293283
vt 0.658462 0.293469
vt 0.659368 0.261742
vt 0.621257 0.261665
vt 0.501495 0.293600
vt 0.482345 0.307625
vt 0.480362 0.262732
vt 0.500191 0.261781
vt 0.519246 0.292376
vt 0.547742 0.292993
vt 0.548078 0.261464
vt 0.518571 0.260916
vt 0.494871 0.293528
vt 0.493332 0.261956
vt 0.522889 0.292587
vt 0.522344 0.260869
vt 0.451756 0.288897
vt 0.449773 0.262732
vt 0.656778 0.322330
vt 0.622394 0.322035
vt 0.481902 0.324350
vt 0.605664 0.324350
vt 0.599057 0.321655
vt 0.595403 0.548078
vt 0.621257 0.561263
vt 0.645824 0.523009
vt 0.590945 0.518571
vt 0.639859 0.470735
vt 0.648324 0.498544
vt 0.685407 0.500191
vt 0.686261 0.480362
vt 0.592251 0.493332
vt 0.659368 0.560446
vt 0.683143 0.522344
vt 0.596433 0.477757
vt 0.479829 0.307317
vt 0.477757 0.262636
vt 0.447168 0.262636
vt 0.449241 0.288588
vt 0.596679 0.292993
vt 0.595403 0.261464
vt 0.559686 0.293469
vt 0.560446 0.261742
vt 0.603589 0.307317
vt 0.640355 0.307779
vt 0.679739 0.307625
vt 0.677932 0.288897
vt 0.639680 0.289050
vt 0.639859 0.262967
vt 0.679465 0.262732
vt 0.604354 0.288588
vt 0.603287 0.262636
vt 0.679739 0.482345
vt 0.640355 0.473048
vt 0.639680 0.442459
vt 0.677932 0.451756
vt 0.679465 0.449773
vt 0.639859 0.440146
vt 0.603589 0.479829
vt 0.604354 0.449241
vt 0.603287 0.447168
vt 0.841501 0.761101
vt 0.796910 0.643370
vt 0.906455 0.644155
vt 0.894416 0.742499
vt 0.957194 0.643970
vt 0.829265 0.517077
vt 0.940741 0.715601
vt 0.671449 0.841501
vt 0.669190 0.894416
vt 0.849398 0.470798
vt 0.666902 0.940741
vt 0.909364 0.402088
vt 0.855378 0.389954
vt 0.592313 0.470184
vt 0.617524 0.471308
vt 0.621192 0.417417
vt 0.598226 0.414426
vt 0.598146 0.467455
vt 0.603540 0.389954
vt 0.643835 0.389418
vt 0.855424 0.393127
vt 0.905341 0.403681
vt 0.667620 0.471464
vt 0.947229 0.538591
vt 0.963044 0.470184
vt 0.580250 0.494548
vt 0.595712 0.312254
vt 0.621272 0.312916
vt 0.622837 0.264476
vt 0.597277 0.263453
vt 0.852894 0.313492
vt 0.849695 0.260671
vt 0.818572 0.260902
vt 0.821566 0.286829
vt 0.893654 0.314609
vt 0.853541 0.316407
vt 0.850246 0.263617
vt 0.890422 0.263754
vt 0.896415 0.312211
vt 0.936226 0.312254
vt 0.933075 0.263453
vt 0.893263 0.261490
vt 0.670148 0.393127
vt 0.666826 0.415674
vt 0.958612 0.415674
vt 0.958434 0.414426
vt 0.649700 0.837975
vt 0.635627 0.887710
vt 0.686058 0.890422
vt 0.687133 0.850246
vt 0.592375 0.849695
vt 0.589648 0.893263
vt 0.597277 0.933075
vt 0.622837 0.940554
vt 0.673628 0.933416
vt 0.822213 0.289744
vt 0.819123 0.263848
vt 0.672063 0.313364
vt 0.673628 0.264581
vt 0.936602 0.313364
vt 0.933416 0.264581
vt 0.941647 0.364922
vt 0.899640 0.363406
vt 0.623001 0.364960
vt 0.665562 0.364922
vt 0.668659 0.362549
vt 0.644119 0.361871
vt 0.647700 0.316485
vt 0.685132 0.316407
vt 0.859879 0.359936
vt 0.902447 0.361457
vt 0.941330 0.363919
vt 0.860378 0.362549
vt 0.606538 0.359936
vt 0.590374 0.313492
vt 0.601582 0.363919
vt 0.646474 0.289822
vt 0.601626 0.286829
vt 0.603191 0.260902
vt 0.648039 0.263334
vt 0.675760 0.289744
vt 0.677325 0.263848
vt 0.647700 0.841274
vt 0.590374 0.852894
vt 0.601626 0.821566
vt 0.646474 0.809945
vt 0.648039 0.806852
vt 0.603191 0.818572
vt 0.685132 0.853541
vt 0.675760 0.822213
vt 0.677325 0.819123
vt 0.500000 0.668378
vt 0.500000 0.724779
vt 0.517225 0.721513
vt 0.520785 0.669173
vt 0.528698 1.002924
vt 0.500000 1.014901
vt 0.500000 1.025182
vt 0.520785 1.015365
vt 0.500000 0.744181
vt 0.519989 0.740196
vt 0.519989 0.988807
vt 0.500000 0.995348
vt 0.500000 0.660499
vt 0.528698 0.661469
vt 0.154177 0.616909
vt 0.166410 0.570048
vt 0.135838 0.608740
vt 0.149154 0.567675
vt 0.147623 0.572395
vt 0.137518 0.603560
vt 0.583783 0.154177
vt 0.583848 0.135838
vt 0.600568 0.131366
vt 0.597073 0.144428
vt 0.144166 0.612314
vt 0.141084 0.620214
vt 0.132632 0.614576
vt 0.134671 0.609983
vt 0.153028 0.593819
vt 0.141399 0.592146
vt 0.619182 0.132632
vt 0.614588 0.141084
vt 0.606252 0.140479
vt 0.610351 0.130579
vt 0.138199 0.601250
vt 0.148213 0.603179
vt 0.602487 0.570048
vt 0.583783 0.616909
vt 0.597073 0.624463
vt 0.606252 0.625520
vt 0.614588 0.620214
vt 0.620822 0.612314
vt 0.623703 0.603179
vt 0.620639 0.593819
vt 0.604695 0.577238
vt 0.601269 0.572395
vt 0.603531 0.567675
vt 0.609313 0.614171
vt 0.615687 0.610750
vt 0.619182 0.614576
vt 0.610351 0.619358
vt 0.602434 0.613212
vt 0.600568 0.617961
vt 0.626402 0.601250
vt 0.623276 0.609983
vt 0.618527 0.594500
vt 0.623272 0.592146
vt 0.590602 0.606787
vt 0.583848 0.608740
vt 0.592903 0.603615
vt 0.603070 0.582298
vt 0.613048 0.594751
vt 0.610999 0.606475
vt 0.606401 0.608943
vt 0.601438 0.608251
vt 0.586331 0.603560
vt 0.600598 0.578805
vt 0.589822 0.601288
vt 0.148133 0.578805
vt 0.140843 0.601288
vt 0.522445 0.038205
vt 0.513246 0.032036
vt 0.507613 0.025182
vt 0.515546 0.030102
vt 0.521458 0.442272
vt 0.528336 0.428901
vt 0.500000 0.456702
vt 0.500000 0.445370
vt 0.500000 0.031689
vt 0.512541 0.032373
vt 0.506877 0.025742
vt 0.500000 0.025886
vt 0.500000 0.031337
vt 0.500000 0.025479
vt 0.030102 0.457928
vt 0.030515 0.446199
vt 0.432141 0.867914
vt 0.443845 0.927906
vt 0.379085 0.894044
vt 0.360683 0.828812
vt 0.439809 0.672195
vt 0.430298 0.558226
vt 0.400297 0.594201
vt 0.380247 0.672998
vt 0.419750 0.833374
vt 0.430922 0.759035
vt 0.362910 0.751725
vt 0.364577 0.812683
vt 0.430922 0.758996
vt 0.439809 0.671923
vt 0.454286 0.976119
vt 0.395580 0.951058
vt 0.395580 0.548422
vt 0.333098 0.547256
vt 0.311584 0.643970
vt 0.373635 0.643481
vt 0.436410 0.893919
vt 0.360683 0.793372
vt 0.328551 0.761101
vt 0.323030 0.643370
vt 0.340672 0.642712
vt 0.444006 0.632181
vt 0.395580 0.735145
vt 0.454286 0.747180
vt 0.427025 0.538591
vt 0.333098 0.715601
vt 0.427025 0.947229
vt 0.443553 0.575135
vt 0.400297 0.530171
vt 0.356060 0.535244
vt 0.340885 0.643738
vt 0.362910 0.643182
vt 0.435444 0.492909
vt 0.433984 0.447361
vt 0.430298 0.518348
vt 0.405006 0.421068
vt 0.383019 0.429733
vt 0.362474 0.771615
vt 0.387552 0.796381
vt 0.438918 0.382998
vt 0.421210 0.420824
vt 0.448920 0.357545
vt 0.398021 0.363238
vt 0.378773 0.407144
vt 0.332784 0.508652
vt 0.333539 0.413961
vt 0.367244 0.407548
vt 0.378773 0.499901
vt 0.362910 0.751727
vt 0.459125 0.268345
vt 0.417930 0.278839
vt 0.380247 0.672932
vt 0.448920 0.314473
vt 0.328551 0.517077
vt 0.328734 0.470798
vt 0.357619 0.470278
vt 0.364577 0.509803
vt 0.459125 0.239236
vt 0.435444 0.495971
vt 0.387552 0.579931
vt 0.371732 0.501290
vt 0.368885 0.457158
vt 0.460183 0.181283
vt 0.460183 0.140934
vt 0.460183 0.196322
vt 0.419994 0.205473
vt 0.378509 0.393435
vt 0.461297 0.608225
vt 0.473395 0.560962
vt 0.433984 0.450625
vt 0.460469 0.141037
vt 0.469367 0.116366
vt 0.437911 0.123733
vt 0.420553 0.149293
vt 0.457081 0.165879
vt 0.413943 0.174337
vt 0.484203 0.085531
vt 0.489280 0.071544
vt 0.476758 0.071388
vt 0.468516 0.086614
vt 0.398021 0.325561
vt 0.417930 0.249130
vt 0.419994 0.679456
vt 0.420401 0.648799
vt 0.460183 0.657159
vt 0.460183 0.690304
vt 0.486669 0.045311
vt 0.419994 0.191059
vt 0.422167 0.599988
vt 0.445768 0.556649
vt 0.469661 0.475706
vt 0.477555 0.462176
vt 0.486754 0.460736
vt 0.484790 0.477146
vt 0.484454 0.457928
vt 0.485561 0.446199
vt 0.493123 0.445401
vt 0.492387 0.457080
vt 0.471665 0.053210
vt 0.379159 0.601238
vt 0.385282 0.599612
vt 0.386922 0.604170
vt 0.381432 0.607555
vt 0.486669 0.424258
vt 0.487459 0.440917
vt 0.423568 0.505809
vt 0.452679 0.467354
vt 0.460520 0.507406
vt 0.480956 0.508271
vt 0.420401 0.168698
vt 0.422167 0.108290
vt 0.461297 0.096221
vt 0.479678 0.097153
vt 0.458025 0.104341
vt 0.378509 0.816867
vt 0.355733 0.774144
vt 0.330903 0.641253
vt 0.351886 0.640437
vt 0.398375 0.405151
vt 0.421210 0.496630
vt 0.379220 0.366797
vt 0.348274 0.367843
vt 0.350598 0.433451
vt 0.330908 0.368189
vt 0.364194 0.367147
vt 0.324343 0.324872
vt 0.360708 0.324944
vt 0.395132 0.366023
vt 0.400340 0.365401
vt 0.378349 0.293283
vt 0.378743 0.261665
vt 0.340632 0.261742
vt 0.341538 0.293469
vt 0.377606 0.322035
vt 0.343222 0.322330
vt 0.394336 0.324350
vt 0.400943 0.321655
vt 0.404597 0.548078
vt 0.409055 0.518571
vt 0.354176 0.523009
vt 0.378743 0.561263
vt 0.360141 0.470735
vt 0.313739 0.480362
vt 0.314593 0.500191
vt 0.351676 0.498544
vt 0.407749 0.493332
vt 0.316857 0.522344
vt 0.340632 0.560446
vt 0.403567 0.477757
vt 0.403321 0.292993
vt 0.404597 0.261464
vt 0.359645 0.307779
vt 0.396411 0.307317
vt 0.320262 0.307625
vt 0.322068 0.288897
vt 0.320535 0.262732
vt 0.360141 0.262967
vt 0.360320 0.289050
vt 0.396713 0.262636
vt 0.395646 0.288588
vt 0.320262 0.482345
vt 0.322068 0.451756
vt 0.360320 0.442459
vt 0.359645 0.473048
vt 0.360141 0.440146
vt 0.320535 0.449773
vt 0.395646 0.449241
vt 0.396411 0.479829
vt 0.396713 0.447168
vt 0.330810 0.894416
vt 0.328551 0.841501
vt 0.333098 0.940741
vt 0.407688 0.470184
vt 0.401774 0.414426
vt 0.378808 0.417417
vt 0.382476 0.471308
vt 0.356165 0.389418
vt 0.396460 0.389954
vt 0.401854 0.467455
vt 0.332380 0.471464
vt 0.419750 0.494548
vt 0.404289 0.312254
vt 0.402723 0.263453
vt 0.377163 0.264476
vt 0.378728 0.312916
vt 0.329852 0.393127
vt 0.333174 0.415674
vt 0.350300 0.837975
vt 0.312867 0.850246
vt 0.313942 0.890422
vt 0.364373 0.887710
vt 0.410353 0.893263
vt 0.407625 0.849695
vt 0.377163 0.940554
vt 0.402723 0.933075
vt 0.326372 0.933416
vt 0.326372 0.264581
vt 0.327937 0.313364
vt 0.376999 0.364960
vt 0.334438 0.364922
vt 0.331341 0.362549
vt 0.314868 0.316407
vt 0.352300 0.316485
vt 0.355881 0.361871
vt 0.409626 0.313492
vt 0.393462 0.359936
vt 0.398418 0.363919
vt 0.353526 0.289822
vt 0.351961 0.263334
vt 0.396809 0.260902
vt 0.398374 0.286829
vt 0.324240 0.289744
vt 0.322675 0.263848
vt 0.352300 0.841274
vt 0.353526 0.809945
vt 0.398374 0.821566
vt 0.409626 0.852894
vt 0.396809 0.818572
vt 0.351961 0.806852
vt 0.314868 0.853541
vt 0.324240 0.822213
vt 0.322675 0.819123
vt 0.479215 0.669173
vt 0.482775 0.721513
vt 0.471302 1.002924
vt 0.479215 1.015365
vt 0.480011 0.740196
vt 0.480011 0.988807
vt 0.471302 0.661469
vt 0.416217 0.154177
vt 0.402927 0.144428
vt 0.399432 0.131366
vt 0.416152 0.135838
vt 0.380819 0.132632
vt 0.389649 0.130579
vt 0.393748 0.140479
vt 0.385412 0.141084
vt 0.397513 0.570048
vt 0.379361 0.593819
vt 0.376297 0.603179
vt 0.379178 0.612314
vt 0.385412 0.620214
vt 0.393748 0.625520
vt 0.402927 0.624463
vt 0.416217 0.616909
vt 0.395305 0.577238
vt 0.396469 0.567675
vt 0.398731 0.572395
vt 0.390687 0.614171
vt 0.389649 0.619358
vt 0.380819 0.614576
vt 0.384313 0.610750
vt 0.397566 0.613212
vt 0.399432 0.617961
vt 0.376724 0.609983
vt 0.373598 0.601250
vt 0.376728 0.592146
vt 0.381473 0.594500
vt 0.409398 0.606787
vt 0.416152 0.608740
vt 0.407098 0.603615
vt 0.398562 0.608251
vt 0.393599 0.608943
vt 0.389001 0.606475
vt 0.386952 0.594751
vt 0.396930 0.582298
vt 0.413669 0.603560
vt 0.399402 0.578805
vt 0.410178 0.601288
vt 0.477555 0.038205
vt 0.484454 0.030102
vt 0.492387 0.025182
vt 0.486754 0.032036
vt 0.478542 0.442272
vt 0.471665 0.428901
vt 0.493123 0.025742
vt 0.487459 0.032373
vt 0.181819 0.000000
vt 0.227273 0.078731
vt 0.136365 0.078731
vt 0.272728 0.157461
vt 0.318182 0.078731
vt 0.363637 0.157461
vt 0.909091 0.000000
vt 0.954545 0.078731
vt 0.863636 0.078731
vt 0.727273 0.000000
vt 0.772727 0.078731
vt 0.681818 0.078731
vt 0.545455 0.000000
vt 0.590909 0.078731
vt 0.500000 0.078731
vt 0.318182 0.236191
vt 0.090910 0.157461
vt 0.181819 0.157461
vt 0.136365 0.236191
vt 0.818182 0.157461
vt 0.909091 0.157461
vt 0.863636 0.236191
vt 0.636364 0.157461
vt 0.727273 0.157461
vt 0.681818 0.236191
vt 0.454546 0.157461
vt 0.545455 0.157461
vt 0.500000 0.236191
vt 0.227273 0.236191
vt 0.045455 0.236191
vt 0.772727 0.236191
vt 0.590909 0.236191
vt 0.409092 0.236191
vt 0.181819 0.314921
vt 0.272728 0.314921
vt 0.227273 0.393651
vt 0.000000 0.314921
vt 0.090910 0.314921
vt 0.045455 0.393651
vt 0.727273 0.314921
vt 0.818182 0.314921
vt 0.772727 0.393651
vt 0.545455 0.314921
vt 0.636364 0.314921
vt 0.590909 0.393651
vt 0.363637 0.314921
vt 0.454546 0.314921
vt 0.409092 0.393651
vt 0.500000 0.393651
vt 0.454546 0.472382
vt 0.681818 0.393651
vt 0.636364 0.472382
vt 0.863636 0.393651
vt 0.818182 0.472382
vt 0.909091 0.314921
vt 0.136365 0.393651
vt 0.090910 0.472382
vt 0.318182 0.393651
vt 0.272728 0.472382
vt 0.954545 0.236191
vt 1.000000 0.157461
vt 0.409092 0.078731
vt 0.363637 0.000000
s 1
f 116/1/1 98/2/1 209/3/1 208/4/1
f 115/5/2 4/6/2 17/7/2 97/8/2
f 3/9/3 7/10/3 13/11/3 8/12/3
f 7/10/4 4/13/4 9/14/4 13/11/4
f 13/11/5 9/14/5 2/15/5 10/16/5
f 8/12/6 13/11/6 10/16/6 1/17/6
f 1/17/7 10/16/7 32/18/7 29/19/7
f 114/20/8 1/21/8 29/22/8 83/23/8
f 116/24/9 3/25/9 8/26/9 109/27/9
f 109/27/10 8/26/10 1/21/10 114/20/10
f 115/5/11 6/28/11 15/29/11 99/30/11
f 99/30/12 15/29/12 12/31/12 112/32/12
f 97/8/13 17/7/13 21/33/13 90/34/13
f 20/35/14 25/36/14 203/37/14 204/38/14
f 116/24/15 5/28/15 18/39/15 98/40/15
f 4/41/16 7/42/16 197/43/16 196/44/16
f 89/45/17 90/46/17 21/47/17 25/36/17
f 91/48/18 89/45/18 25/36/18 20/35/18
f 25/36/19 21/47/19 202/49/19 203/37/19
f 98/40/20 18/39/20 23/50/20 91/51/20
f 38/52/21 45/53/21 134/54/21 131/55/21
f 133/56/22 136/57/22 144/58/22 146/59/22
f 112/32/23 12/31/23 34/60/23 82/61/23
f 10/16/24 2/15/24 30/62/24 32/18/24
f 29/63/25 32/64/25 129/65/25 130/66/25
f 75/67/26 41/68/26 48/69/26 73/70/26
f 82/61/27 34/60/27 41/68/27 75/67/27
f 83/71/28 29/63/28 141/72/28 140/73/28
f 32/64/29 30/74/29 128/75/29 129/65/29
f 73/70/30 48/69/30 56/76/30 66/77/30
f 74/78/31 81/79/31 145/80/31 148/81/31
f 130/82/32 133/56/32 146/59/32 147/83/32
f 6/28/33 115/5/33 97/8/33 19/39/33
f 54/84/34 53/85/34 60/86/34 61/87/34
f 67/88/35 54/89/35 61/90/35 65/91/35
f 11/92/36 114/20/36 83/23/36 33/93/36
f 5/28/37 116/24/37 109/27/37 14/29/37
f 14/29/38 109/27/38 114/20/38 11/92/38
f 139/94/39 54/95/39 143/96/39 142/97/39
f 30/62/40 38/52/40 131/55/40 128/98/40
f 4/6/41 115/5/41 99/30/41 9/99/41
f 61/87/42 60/86/42 69/100/42 70/101/42
f 65/91/43 61/90/43 70/102/43 58/103/43
f 9/99/44 99/30/44 112/32/44 2/104/44
f 66/77/45 56/76/45 63/105/45 64/106/45
f 19/39/46 97/8/46 90/34/46 24/107/46
f 53/85/47 52/108/47 59/109/47 60/86/47
f 198/110/48 3/111/48 207/112/48 213/113/48
f 256/114/49 255/115/49 253/116/49 254/117/49
f 23/118/50 26/119/50 89/45/50 91/48/50
f 69/100/51 68/120/51 76/121/51 77/122/51
f 204/123/52 201/124/52 211/125/52 212/126/52
f 64/106/53 63/105/53 72/127/53 57/128/53
f 33/93/54 83/23/54 81/129/54 40/68/54
f 60/86/55 59/109/55 68/120/55 69/100/55
f 2/104/56 112/32/56 82/61/56 30/130/56
f 38/131/57 75/67/57 73/70/57 45/132/57
f 77/122/58 76/121/58 259/133/58 260/134/58
f 30/130/59 82/61/59 75/67/59 38/131/59
f 50/135/60 80/136/60 88/137/60 44/138/60
f 58/103/61 70/102/61 78/139/61 51/140/61
f 70/101/62 69/100/62 77/122/62 78/141/62
f 45/132/63 73/70/63 66/77/63 52/142/63
f 57/128/64 72/127/64 80/136/64 50/135/64
f 28/143/65 110/144/65 96/145/65 42/146/65
f 40/68/66 81/129/66 74/147/66 47/69/66
f 108/148/67 262/149/67 93/150/67 94/151/67
f 31/152/68 108/153/68 94/154/68 43/155/68
f 55/156/69 67/88/69 65/91/69 62/157/69
f 51/140/70 78/139/70 86/158/70 49/159/70
f 78/141/71 77/122/71 260/134/71 86/160/71
f 47/69/72 74/147/72 67/88/72 55/156/72
f 123/161/73 124/162/73 101/163/73 102/164/73
f 121/165/74 123/166/74 102/167/74 37/168/74
f 62/157/75 65/91/75 58/103/75 71/169/75
f 52/142/76 66/77/76 64/106/76 59/170/76
f 59/170/77 64/106/77 57/128/77 68/171/77
f 262/149/78 261/172/78 92/173/78 93/150/78
f 76/174/79 50/175/79 44/176/79 259/177/79
f 71/169/80 58/103/80 51/140/80 79/178/80
f 37/168/81 35/179/81 105/180/81 103/181/81
f 124/162/82 127/182/82 297/183/82 298/184/82 101/163/82
f 68/171/83 57/128/83 50/135/83 76/185/83
f 261/186/84 28/143/84 42/146/84 92/187/84
f 107/188/85 31/152/85 43/155/85 95/189/85
f 127/190/86 122/191/86 295/192/86 297/193/86
f 79/178/87 51/140/87 49/159/87 87/194/87
f 100/195/88 36/196/88 301/197/88 104/198/88
f 126/199/89 121/165/89 37/168/89 103/181/89
f 102/167/90 101/200/90 35/179/90 37/168/90
f 274/201/91 273/202/91 290/203/91 291/204/91
f 122/191/92 125/205/92 300/206/92 295/192/92
f 49/159/93 86/158/93 108/153/93 31/152/93
f 86/160/94 260/134/94 262/149/94 108/148/94
f 35/207/95 296/208/95 299/209/95 105/210/95
f 44/176/96 88/211/96 110/144/96 28/143/96
f 93/212/97 92/187/97 120/213/97 119/214/97
f 87/194/98 49/159/98 31/152/98 107/188/98
f 42/146/99 96/145/99 113/215/99 27/216/99
f 259/217/100 44/138/100 28/218/100 261/219/100
f 92/187/101 42/146/101 27/216/101 120/213/101
f 95/189/102 43/155/102 22/220/102 118/221/102
f 43/155/103 94/154/103 117/222/103 22/220/103
f 94/151/104 93/150/104 119/223/104 117/224/104
f 120/213/105 27/216/105 122/191/105 127/190/105
f 118/221/106 22/220/106 121/165/106 126/199/106
f 119/223/107 120/225/107 127/182/107 124/162/107
f 27/216/108 113/215/108 125/205/108 122/191/108
f 22/220/109 117/222/109 123/166/109 121/165/109
f 117/224/110 119/223/110 124/162/110 123/161/110
f 130/82/111 129/226/111 132/227/111 133/56/111
f 132/227/112 131/55/112 134/54/112 135/228/112
f 129/226/113 128/98/113 131/55/113 132/227/113
f 135/228/114 134/54/114 137/229/114 138/230/114
f 133/56/115 132/227/115 135/228/115 136/57/115
f 136/57/116 135/228/116 138/230/116 139/231/116
f 52/232/117 53/233/117 138/234/117 137/235/117
f 45/53/118 52/108/118 137/229/118 134/54/118
f 54/95/119 67/236/119 149/237/119 143/96/119
f 53/233/120 54/95/120 139/94/120 138/234/120
f 141/72/121 147/238/121 157/239/121 39/240/121
f 144/58/122 142/241/122 150/242/122 153/243/122
f 145/80/123 140/244/123 46/245/123 154/246/123
f 148/81/124 145/80/124 154/246/124 158/247/124
f 146/59/125 144/58/125 153/243/125 156/248/125
f 142/97/126 143/96/126 151/249/126 150/250/126
f 136/57/127 139/231/127 142/241/127 144/58/127
f 67/251/128 74/78/128 148/81/128 149/252/128
f 29/63/129 130/66/129 147/238/129 141/72/129
f 81/79/130 83/253/130 140/244/130 145/80/130
f 153/243/131 150/242/131 162/254/131 164/255/131
f 154/246/132 46/245/132 160/256/132 165/257/132
f 158/247/133 154/246/133 165/257/133 168/258/133
f 156/248/134 153/243/134 164/255/134 166/259/134
f 150/250/135 151/249/135 163/260/135 162/261/135
f 157/262/136 156/248/136 166/259/136 167/263/136
f 149/252/137 148/81/137 158/247/137 159/264/137
f 143/96/138 149/237/138 159/265/138 151/249/138
f 140/73/139 141/72/139 39/240/139 46/266/139
f 147/83/140 146/59/140 156/248/140 157/262/140
f 188/267/141 187/268/141 177/269/141 152/270/141
f 184/271/142 185/272/142 170/273/142 173/274/142
f 182/275/143 180/276/143 155/277/143 174/278/143
f 181/279/144 182/275/144 174/278/144 178/280/144
f 183/281/145 184/271/145 173/274/145 176/282/145
f 170/273/146 185/272/146 194/283/146 192/284/146
f 39/240/147 157/239/147 167/285/147 161/286/147
f 159/264/148 158/247/148 168/258/148 169/287/148
f 151/249/149 159/265/149 169/288/149 163/260/149
f 46/266/150 39/240/150 161/286/150 160/289/150
f 155/290/151 152/291/151 175/292/151 174/293/151
f 171/294/152 172/295/152 173/296/152 170/297/152
f 174/293/153 175/292/153 172/295/153 178/298/153
f 175/292/154 152/291/154 177/299/154 176/300/154
f 178/298/155 172/295/155 171/294/155 179/301/155
f 172/295/156 175/292/156 176/300/156 173/296/156
f 189/302/157 181/279/157 178/280/157 179/303/157
f 189/302/158 179/303/158 193/304/158 195/305/158
f 180/306/159 188/267/159 152/270/159 155/307/159
f 187/308/160 183/281/160 176/282/160 177/309/160
f 167/263/161 166/259/161 183/281/161 187/308/161
f 160/289/162 161/286/162 188/267/162 180/306/162
f 163/260/163 169/288/163 189/310/163 186/311/163
f 169/287/164 168/258/164 181/279/164 189/302/164
f 162/261/165 163/260/165 186/311/165 185/312/165
f 166/259/166 164/255/166 184/271/166 183/281/166
f 168/258/167 165/257/167 182/275/167 181/279/167
f 165/257/168 160/256/168 180/276/168 182/275/168
f 164/255/169 162/254/169 185/272/169 184/271/169
f 161/286/170 167/285/170 187/268/170 188/267/170
f 194/313/171 190/314/171 191/315/171 192/316/171
f 190/314/172 195/317/172 193/318/172 191/315/172
f 185/319/173 186/320/173 190/321/173 194/322/173
f 171/294/174 170/297/174 192/323/174 191/324/174
f 186/320/175 189/325/175 195/326/175 190/321/175
f 179/301/176 171/294/176 191/324/176 193/327/176
f 196/328/177 197/329/177 200/330/177 199/331/177
f 200/330/178 201/124/178 204/123/178 203/332/178
f 197/329/179 198/333/179 201/124/179 200/330/179
f 199/331/180 200/330/180 203/332/180 202/334/180
f 7/42/181 3/111/181 198/110/181 197/43/181
f 17/7/182 4/6/182 196/335/182 199/336/182
f 201/124/183 198/333/183 213/337/183 211/125/183
f 21/33/184 17/7/184 199/336/184 202/338/184
f 208/4/185 209/3/185 217/339/185 216/340/185
f 210/341/186 206/342/186 214/343/186 218/344/186
f 207/112/187 208/345/187 216/346/187 215/347/187
f 211/125/188 213/337/188 221/348/188 219/349/188
f 20/35/189 204/38/189 212/350/189 206/342/189
f 91/48/190 20/35/190 206/342/190 210/341/190
f 98/2/191 91/351/191 210/352/191 209/3/191
f 3/111/192 116/353/192 208/345/192 207/112/192
f 232/354/193 235/355/193 222/356/193 226/357/193
f 233/358/194 224/359/194 240/360/194 241/361/194
f 16/362/195 230/363/195 229/364/195 227/365/195
f 231/366/196 232/367/196 226/368/196 225/369/196
f 213/113/197 207/112/197 215/347/197 221/370/197
f 206/342/198 212/350/198 220/371/198 214/343/198
f 212/126/199 211/125/199 219/349/199 220/372/199
f 209/3/200 210/352/200 218/373/200 217/339/200
f 223/374/201 205/375/201 227/376/201 229/377/201
f 223/374/202 224/378/202 225/379/202 205/375/202
f 205/375/203 225/379/203 226/380/203 222/381/203
f 205/375/204 222/381/204 228/382/204 227/376/204
f 233/358/205 231/366/205 225/369/205 224/359/205
f 229/364/206 230/363/206 237/383/206 238/384/206
f 235/355/207 236/385/207 228/386/207 222/356/207
f 236/387/208 16/362/208 227/365/208 228/388/208
f 250/389/209 243/390/209 16/362/209 236/387/209
f 249/391/210 250/392/210 236/385/210 235/355/210
f 246/393/211 245/394/211 234/395/211 230/396/211
f 248/397/212 244/398/212 231/366/212 233/358/212
f 244/398/213 247/399/213 232/367/213 231/366/213
f 243/390/214 246/400/214 230/363/214 16/362/214
f 245/394/215 248/401/215 233/402/215 234/395/215
f 247/403/216 249/391/216 235/355/216 232/354/216
f 242/404/217 241/405/217 240/406/217 239/407/217
f 237/408/218 242/404/218 239/407/218 238/409/218
f 234/410/219 233/411/219 241/412/219 242/413/219
f 224/378/220 223/374/220 239/414/220 240/415/220
f 230/416/221 234/410/221 242/413/221 237/417/221
f 223/374/222 229/377/222 238/418/222 239/414/222
f 218/344/223 214/343/223 249/391/223 247/403/223
f 215/347/224 216/346/224 248/401/224 245/394/224
f 219/349/225 221/348/225 246/400/225 243/390/225
f 217/339/226 218/373/226 247/399/226 244/398/226
f 216/340/227 217/339/227 244/398/227 248/397/227
f 221/370/228 215/347/228 245/394/228 246/393/228
f 214/343/229 220/371/229 250/392/229 249/391/229
f 220/372/230 219/349/230 243/390/230 250/389/230
f 252/419/231 251/420/231 254/421/231 253/422/231
f 255/423/232 257/424/232 252/425/232 253/426/232
f 258/427/233 256/428/233 254/421/233 251/420/233
f 24/107/234 90/34/234 256/429/234 258/430/234
f 89/45/235 26/119/235 257/431/235 255/432/235
f 90/46/236 89/45/236 255/432/236 256/428/236
f 84/433/237 85/434/237 260/134/237 259/133/237
f 275/435/238 84/433/238 259/133/238 261/172/238
f 85/434/239 276/436/239 262/149/239 260/134/239
f 276/436/240 284/437/240 283/438/240 275/435/240 261/172/240 262/149/240
f 84/439/241 275/440/241 279/441/241 263/442/241
f 266/443/242 264/444/242 278/445/242 280/446/242
f 276/436/243 85/434/243 267/447/243 282/448/243
f 278/449/244 264/450/244 265/451/244 277/452/244
f 277/452/245 265/451/245 263/442/245 279/441/245
f 266/443/246 280/446/246 281/453/246 268/454/246
f 268/454/247 281/453/247 282/448/247 267/447/247
f 85/455/248 84/456/248 263/457/248 265/458/248 264/459/248 266/460/248 268/461/248 267/462/248
f 106/463/249 284/464/249 276/465/249
f 271/466/250 269/467/250 278/468/250 277/469/250
f 270/470/251 271/466/251 277/469/251 279/471/251
f 273/202/252 274/201/252 281/472/252 280/473/252
f 274/201/253 272/474/253 282/475/253 281/472/253
f 269/467/254 273/202/254 280/473/254 278/468/254
f 111/476/255 270/470/255 279/471/255 275/477/255
f 272/474/256 106/463/256 276/465/256 282/475/256
f 285/478/257 286/479/257 292/480/257 291/204/257 290/203/257 288/481/257 287/482/257 289/483/257
f 283/484/258 111/476/258 275/477/258
f 270/470/259 111/476/259 285/478/259 289/483/259
f 294/485/260 286/479/260 285/478/260 293/486/260
f 111/476/261 283/484/261 293/486/261 285/478/261
f 106/463/262 272/474/262 292/480/262 286/479/262
f 272/474/263 274/201/263 291/204/263 292/480/263
f 269/467/264 271/466/264 287/482/264 288/481/264
f 283/438/265 284/437/265 294/487/265 293/488/265
f 273/202/266 269/467/266 288/481/266 290/203/266
f 284/464/267 106/463/267 286/479/267 294/485/267
f 271/466/268 270/470/268 289/483/268 287/482/268
f 297/489/269 295/490/269 36/491/269 100/492/269
f 296/208/270 298/493/270 104/198/270 301/197/270
f 101/494/271 298/493/271 296/208/271 35/207/271
f 36/196/272 302/495/272 303/496/272 301/197/272
f 299/497/273 296/498/273 301/499/273 303/500/273
f 295/490/274 300/501/274 302/502/274 36/491/274
f 298/184/275 297/183/275 100/503/275 104/504/275
f 385/1/276 474/4/276 475/3/276 372/2/276
f 384/505/277 371/506/277 314/507/277 307/508/277
f 306/9/278 309/12/278 312/11/278 308/10/278
f 308/10/279 312/11/279 310/14/279 307/13/279
f 312/11/280 311/16/280 305/15/280 310/14/280
f 309/12/281 304/17/281 311/16/281 312/11/281
f 304/17/282 321/19/282 324/18/282 311/16/282
f 383/509/283 361/510/283 321/511/283 304/512/283
f 385/513/284 380/514/284 309/515/284 306/516/284
f 380/514/285 383/509/285 304/512/285 309/515/285
f 384/505/286 373/517/286 15/29/286 6/28/286
f 373/517/287 382/518/287 12/31/287 15/29/287
f 371/506/288 366/519/288 316/520/288 314/507/288
f 315/521/289 470/522/289 469/523/289 318/524/289
f 385/513/290 372/525/290 18/39/290 5/28/290
f 307/526/291 462/527/291 463/528/291 308/529/291
f 365/530/292 318/524/292 316/531/292 366/532/292
f 367/533/293 315/521/293 318/524/293 365/530/293
f 318/524/294 469/523/294 468/534/294 316/531/294
f 372/525/295 367/535/295 23/50/295 18/39/295
f 328/52/296 397/55/296 400/54/296 333/53/296
f 399/56/297 412/59/297 410/58/297 402/57/297
f 382/518/298 360/536/298 34/60/298 12/31/298
f 311/16/299 324/18/299 322/62/299 305/15/299
f 321/537/300 396/538/300 395/539/300 324/540/300
f 355/541/301 353/542/301 48/69/301 41/68/301
f 360/536/302 355/541/302 41/68/302 34/60/302
f 361/543/303 406/544/303 407/545/303 321/537/303
f 324/540/304 395/539/304 394/546/304 322/547/304
f 353/542/305 348/548/305 56/76/305 48/69/305
f 354/78/306 414/81/306 411/80/306 359/79/306
f 396/82/307 413/83/307 412/59/307 399/56/307
f 6/28/308 19/39/308 371/506/308 384/505/308
f 340/84/309 345/87/309 344/86/309 339/85/309
f 349/549/310 347/550/310 345/551/310 340/552/310
f 11/92/311 33/93/311 361/510/311 383/509/311
f 5/28/312 14/29/312 380/514/312 385/513/312
f 14/29/313 11/92/313 383/509/313 380/514/313
f 405/553/314 408/554/314 409/555/314 340/556/314
f 322/62/315 394/98/315 397/55/315 328/52/315
f 307/508/316 310/557/316 373/517/316 384/505/316
f 345/87/317 352/101/317 351/100/317 344/86/317
f 347/550/318 342/558/318 352/559/318 345/551/318
f 310/557/319 305/560/319 382/518/319 373/517/319
f 348/548/320 346/561/320 63/105/320 56/76/320
f 19/39/321 24/107/321 366/519/321 371/506/321
f 339/85/322 344/86/322 343/109/322 338/108/322
f 464/562/323 479/563/323 473/564/323 306/565/323
f 520/114/324 518/117/324 517/116/324 519/115/324
f 23/118/325 367/533/325 365/530/325 26/119/325
f 351/100/326 357/122/326 356/121/326 350/120/326
f 470/123/327 478/126/327 477/125/327 467/124/327
f 346/561/328 341/566/328 72/127/328 63/105/328
f 33/93/329 40/68/329 359/567/329 361/510/329
f 344/86/330 351/100/330 350/120/330 343/109/330
f 305/560/331 322/568/331 360/536/331 382/518/331
f 328/569/332 333/570/332 353/542/332 355/541/332
f 357/122/333 522/134/333 521/133/333 356/121/333
f 322/568/334 328/569/334 355/541/334 360/536/334
f 336/571/335 332/572/335 88/137/335 80/136/335
f 342/558/336 337/573/336 358/574/336 352/559/336
f 352/101/337 358/141/337 357/122/337 351/100/337
f 333/570/338 338/575/338 348/548/338 353/542/338
f 341/566/339 336/571/339 80/136/339 72/127/339
f 320/576/340 330/577/340 96/145/340 110/144/340
f 40/68/341 47/69/341 354/578/341 359/567/341
f 379/148/342 370/151/342 369/150/342 524/149/342
f 323/579/343 331/580/343 370/581/343 379/582/343
f 55/156/344 62/157/344 347/550/344 349/549/344
f 337/573/345 335/583/345 364/584/345 358/574/345
f 358/141/346 364/160/346 522/134/346 357/122/346
f 47/69/347 55/156/347 349/549/347 354/578/347
f 391/161/348 376/164/348 375/163/348 392/162/348
f 389/585/349 327/586/349 376/587/349 391/588/349
f 62/157/350 71/169/350 342/558/350 347/550/350
f 338/575/351 343/589/351 346/561/351 348/548/351
f 343/589/352 350/590/352 341/566/352 346/561/352
f 524/149/353 369/150/353 368/173/353 523/172/353
f 356/591/354 521/592/354 332/593/354 336/594/354
f 71/169/355 79/178/355 337/573/355 342/558/355
f 327/586/356 103/181/356 105/180/356 325/595/356
f 392/162/357 375/163/357 560/184/357 559/183/357 393/182/357
f 350/590/358 356/596/358 336/571/358 341/566/358
f 523/597/359 368/598/359 330/577/359 320/576/359
f 107/188/360 95/189/360 331/580/360 323/579/360
f 393/599/361 559/600/361 557/601/361 390/602/361
f 79/178/362 87/194/362 335/583/362 337/573/362
f 374/603/363 377/604/363 561/605/363 326/606/363
f 126/199/364 103/181/364 327/586/364 389/585/364
f 376/587/365 327/586/365 325/595/365 375/607/365
f 536/608/366 553/609/366 552/610/366 535/611/366
f 390/602/367 557/601/367 300/206/367 125/205/367
f 335/583/368 323/579/368 379/582/368 364/584/368
f 364/160/369 379/148/369 524/149/369 522/134/369
f 325/612/370 105/210/370 299/209/370 558/613/370
f 332/593/371 320/576/371 110/144/371 88/211/371
f 369/614/372 387/615/372 388/616/372 368/598/372
f 87/194/373 107/188/373 323/579/373 335/583/373
f 330/577/374 319/617/374 113/215/374 96/145/374
f 521/618/375 523/619/375 320/620/375 332/572/375
f 368/598/376 388/616/376 319/617/376 330/577/376
f 95/189/377 118/221/377 317/621/377 331/580/377
f 331/580/378 317/621/378 386/622/378 370/581/378
f 370/151/379 386/224/379 387/223/379 369/150/379
f 388/616/380 393/599/380 390/602/380 319/617/380
f 118/221/381 126/199/381 389/585/381 317/621/381
f 387/223/382 392/162/382 393/182/382 388/225/382
f 319/617/383 390/602/383 125/205/383 113/215/383
f 317/621/384 389/585/384 391/588/384 386/622/384
f 386/224/385 391/161/385 392/162/385 387/223/385
f 396/82/386 399/56/386 398/227/386 395/226/386
f 398/227/387 401/228/387 400/54/387 397/55/387
f 395/226/388 398/227/388 397/55/388 394/98/388
f 401/228/389 404/230/389 403/229/389 400/54/389
f 399/56/390 402/57/390 401/228/390 398/227/390
f 402/57/391 405/231/391 404/230/391 401/228/391
f 338/623/392 403/624/392 404/625/392 339/626/392
f 333/53/393 400/54/393 403/229/393 338/108/393
f 340/556/394 409/555/394 415/627/394 349/628/394
f 339/626/395 404/625/395 405/553/395 340/556/395
f 407/545/396 329/629/396 423/630/396 413/631/396
f 410/58/397 419/243/397 416/242/397 408/241/397
f 411/80/398 420/246/398 334/245/398 406/244/398
f 414/81/399 424/247/399 420/246/399 411/80/399
f 412/59/400 422/248/400 419/243/400 410/58/400
f 408/554/401 416/632/401 417/633/401 409/555/401
f 402/57/402 410/58/402 408/241/402 405/231/402
f 349/251/403 415/252/403 414/81/403 354/78/403
f 321/537/404 407/545/404 413/631/404 396/538/404
f 359/79/405 411/80/405 406/244/405 361/253/405
f 419/243/406 430/255/406 428/254/406 416/242/406
f 420/246/407 431/257/407 426/256/407 334/245/407
f 424/247/408 434/258/408 431/257/408 420/246/408
f 422/248/409 432/259/409 430/255/409 419/243/409
f 416/632/410 428/634/410 429/635/410 417/633/410
f 423/262/411 433/263/411 432/259/411 422/248/411
f 415/252/412 425/264/412 424/247/412 414/81/412
f 409/555/413 417/633/413 425/636/413 415/627/413
f 406/544/414 334/637/414 329/629/414 407/545/414
f 413/83/415 423/262/415 422/248/415 412/59/415
f 454/638/416 418/639/416 443/640/416 453/641/416
f 450/271/417 439/274/417 436/273/417 451/272/417
f 448/275/418 440/278/418 421/277/418 446/276/418
f 447/279/419 444/280/419 440/278/419 448/275/419
f 449/281/420 442/282/420 439/274/420 450/271/420
f 436/273/421 458/284/421 460/283/421 451/272/421
f 329/629/422 427/642/422 433/643/422 423/630/422
f 425/264/423 435/287/423 434/258/423 424/247/423
f 417/633/424 429/635/424 435/644/424 425/636/424
f 334/637/425 426/645/425 427/642/425 329/629/425
f 421/646/426 440/647/426 441/648/426 418/649/426
f 437/650/427 436/651/427 439/652/427 438/653/427
f 440/647/428 444/654/428 438/653/428 441/648/428
f 441/648/429 442/655/429 443/656/429 418/649/429
f 444/654/430 445/657/430 437/650/430 438/653/430
f 438/653/431 439/652/431 442/655/431 441/648/431
f 455/302/432 445/303/432 444/280/432 447/279/432
f 455/302/433 461/305/433 459/304/433 445/303/433
f 446/658/434 421/659/434 418/639/434 454/638/434
f 453/308/435 443/309/435 442/282/435 449/281/435
f 433/263/436 453/308/436 449/281/436 432/259/436
f 426/645/437 446/658/437 454/638/437 427/642/437
f 429/635/438 452/660/438 455/661/438 435/644/438
f 435/287/439 455/302/439 447/279/439 434/258/439
f 428/634/440 451/662/440 452/660/440 429/635/440
f 432/259/441 449/281/441 450/271/441 430/255/441
f 434/258/442 447/279/442 448/275/442 431/257/442
f 431/257/443 448/275/443 446/276/443 426/256/443
f 430/255/444 450/271/444 451/272/444 428/254/444
f 427/642/445 454/638/445 453/641/445 433/643/445
f 460/663/446 458/664/446 457/665/446 456/666/446
f 456/666/447 457/665/447 459/667/447 461/668/447
f 451/669/448 460/670/448 456/671/448 452/672/448
f 437/650/449 457/673/449 458/674/449 436/651/449
f 452/672/450 456/671/450 461/675/450 455/676/450
f 445/657/451 459/677/451 457/673/451 437/650/451
f 462/328/452 465/331/452 466/330/452 463/329/452
f 466/330/453 469/332/453 470/123/453 467/124/453
f 463/329/454 466/330/454 467/124/454 464/333/454
f 465/331/455 468/334/455 469/332/455 466/330/455
f 308/529/456 463/528/456 464/562/456 306/565/456
f 314/507/457 465/678/457 462/679/457 307/508/457
f 467/124/458 477/125/458 479/337/458 464/333/458
f 316/520/459 468/680/459 465/678/459 314/507/459
f 474/4/460 482/340/460 483/339/460 475/3/460
f 476/681/461 484/682/461 480/683/461 472/684/461
f 473/564/462 481/685/462 482/686/462 474/687/462
f 477/125/463 485/349/463 487/348/463 479/337/463
f 315/521/464 472/684/464 478/688/464 470/522/464
f 367/533/465 476/681/465 472/684/465 315/521/465
f 372/2/466 475/3/466 476/352/466 367/351/466
f 306/565/467 473/564/467 474/687/467 385/689/467
f 498/690/468 492/691/468 488/692/468 501/693/468
f 499/358/469 507/361/469 506/360/469 490/359/469
f 313/362/470 493/365/470 495/364/470 496/363/470
f 497/366/471 491/369/471 492/368/471 498/367/471
f 479/563/472 487/694/472 481/685/472 473/564/472
f 472/684/473 480/683/473 486/695/473 478/688/473
f 478/126/474 486/372/474 485/349/474 477/125/474
f 475/3/475 483/339/475 484/373/475 476/352/475
f 489/696/476 495/697/476 493/698/476 471/699/476
f 489/696/477 471/699/477 491/700/477 490/701/477
f 471/699/478 488/702/478 492/703/478 491/700/478
f 471/699/479 493/698/479 494/704/479 488/702/479
f 499/358/480 490/359/480 491/369/480 497/366/480
f 495/364/481 504/384/481 503/383/481 496/363/481
f 501/693/482 488/692/482 494/705/482 502/706/482
f 502/387/483 494/388/483 493/365/483 313/362/483
f 516/389/484 502/387/484 313/362/484 509/390/484
f 515/707/485 501/693/485 502/706/485 516/708/485
f 512/709/486 496/710/486 500/711/486 511/712/486
f 514/397/487 499/358/487 497/366/487 510/398/487
f 510/398/488 497/366/488 498/367/488 513/399/488
f 509/390/489 313/362/489 496/363/489 512/400/489
f 511/712/490 500/711/490 499/713/490 514/714/490
f 513/715/491 498/690/491 501/693/491 515/707/491
f 508/716/492 505/717/492 506/718/492 507/719/492
f 503/720/493 504/721/493 505/717/493 508/716/493
f 500/722/494 508/723/494 507/724/494 499/725/494
f 490/701/495 506/726/495 505/727/495 489/696/495
f 496/728/496 503/729/496 508/723/496 500/722/496
f 489/696/497 505/727/497 504/730/497 495/697/497
f 484/682/498 513/715/498 515/707/498 480/683/498
f 481/685/499 511/712/499 514/714/499 482/686/499
f 485/349/500 509/390/500 512/400/500 487/348/500
f 483/339/501 510/398/501 513/399/501 484/373/501
f 482/340/502 514/397/502 510/398/502 483/339/502
f 487/694/503 512/709/503 511/712/503 481/685/503
f 480/683/504 515/707/504 516/708/504 486/695/504
f 486/372/505 516/389/505 509/390/505 485/349/505
f 252/419/506 517/731/506 518/732/506 251/420/506
f 519/733/507 517/734/507 252/425/507 257/424/507
f 258/427/508 251/420/508 518/732/508 520/735/508
f 24/107/509 258/430/509 520/736/509 366/519/509
f 365/530/510 519/737/510 257/431/510 26/119/510
f 366/532/511 520/735/511 519/737/511 365/530/511
f 362/433/512 521/133/512 522/134/512 363/434/512
f 537/435/513 523/172/513 521/133/513 362/433/513
f 363/434/514 522/134/514 524/149/514 538/436/514
f 538/436/515 524/149/515 523/172/515 537/435/515 545/438/515 546/437/515
f 362/738/516 525/739/516 541/740/516 537/741/516
f 528/443/517 542/446/517 540/445/517 526/444/517
f 538/436/518 544/448/518 529/447/518 363/434/518
f 540/742/519 539/743/519 527/744/519 526/745/519
f 539/743/520 541/740/520 525/739/520 527/744/520
f 528/443/521 530/454/521 543/453/521 542/446/521
f 530/454/522 529/447/522 544/448/522 543/453/522
f 363/746/523 529/747/523 530/748/523 528/749/523 526/750/523 527/751/523 525/752/523 362/753/523
f 378/754/524 538/755/524 546/756/524
f 533/757/525 539/758/525 540/759/525 531/760/525
f 532/761/526 541/762/526 539/758/526 533/757/526
f 535/611/527 542/763/527 543/764/527 536/608/527
f 536/608/528 543/764/528 544/765/528 534/766/528
f 531/760/529 540/759/529 542/763/529 535/611/529
f 381/767/530 537/768/530 541/762/530 532/761/530
f 534/766/531 544/765/531 538/755/531 378/754/531
f 547/769/532 551/770/532 549/771/532 550/772/532 552/610/532 553/609/532 554/773/532 548/774/532
f 545/775/533 537/768/533 381/767/533
f 532/761/534 551/770/534 547/769/534 381/767/534
f 556/776/535 555/777/535 547/769/535 548/774/535
f 381/767/536 547/769/536 555/777/536 545/775/536
f 378/754/537 548/774/537 554/773/537 534/766/537
f 534/766/538 554/773/538 553/609/538 536/608/538
f 531/760/539 550/772/539 549/771/539 533/757/539
f 545/438/540 555/488/540 556/487/540 546/437/540
f 535/611/541 552/610/541 550/772/541 531/760/541
f 546/756/542 556/776/542 548/774/542 378/754/542
f 533/757/543 549/771/543 551/770/543 532/761/543
f 559/778/544 374/779/544 326/780/544 557/781/544
f 558/613/545 561/605/545 377/604/545 560/782/545
f 375/783/546 325/612/546 558/613/546 560/782/546
f 326/606/547 561/605/547 303/496/547 302/495/547
f 299/497/548 303/500/548 561/784/548 558/785/548
f 557/781/549 326/780/549 302/502/549 300/501/549
f 560/184/550 377/504/550 374/503/550 559/183/550
f 562/786/551 575/787/551 574/788/551
f 563/789/552 575/790/552 577/791/552
f 562/792/553 574/793/553 579/794/553
f 562/795/554 579/796/554 581/797/554
f 562/798/555 581/799/555 578/800/555
f 563/789/556 577/791/556 584/801/556
f 564/802/557 576/803/557 586/804/557
f 565/805/558 580/806/558 588/807/558
f 566/808/559 582/809/559 590/810/559
f 567/811/560 583/812/560 592/813/560
f 563/789/561 584/801/561 587/814/561
f 564/802/562 586/804/562 589/815/562
f 565/805/563 588/807/563 591/816/563
f 566/808/564 590/810/564 593/817/564
f 567/811/565 592/813/565 585/818/565
f 568/819/566 594/820/566 599/821/566
f 569/822/567 595/823/567 601/824/567
f 570/825/568 596/826/568 602/827/568
f 571/828/569 597/829/569 603/830/569
f 572/831/570 598/832/570 600/833/570
f 600/833/571 603/834/571 573/835/571
f 600/833/572 598/832/572 603/834/572
f 598/832/573 571/828/573 603/834/573
f 603/830/574 602/836/574 573/837/574
f 603/830/575 597/829/575 602/836/575
f 597/829/576 570/825/576 602/836/576
f 602/827/577 601/838/577 573/839/577
f 602/827/578 596/826/578 601/838/578
f 596/826/579 569/840/579 601/838/579
f 601/824/580 599/841/580 573/842/580
f 601/824/581 595/823/581 599/841/581
f 595/823/582 568/819/582 599/841/582
f 599/821/583 600/843/583 573/844/583
f 599/821/584 594/820/584 600/843/584
f 594/820/585 572/831/585 600/843/585
f 585/818/586 598/832/586 572/831/586
f 585/818/587 592/813/587 598/832/587
f 592/813/588 571/828/588 598/832/588
f 593/817/589 597/829/589 571/828/589
f 593/817/590 590/810/590 597/829/590
f 590/810/591 570/825/591 597/829/591
f 591/816/592 596/826/592 570/825/592
f 591/816/593 588/807/593 596/826/593
f 588/807/594 569/840/594 596/826/594
f 589/815/595 595/823/595 569/822/595
f 589/815/596 586/804/596 595/823/596
f 586/804/597 568/819/597 595/823/597
f 587/814/598 594/820/598 568/819/598
f 587/814/599 584/801/599 594/820/599
f 584/801/600 572/831/600 594/820/600
f 592/813/601 593/817/601 571/828/601
f 592/813/602 583/812/602 593/817/602
f 583/812/603 566/808/603 593/817/603
f 590/810/604 591/816/604 570/825/604
f 590/810/605 582/809/605 591/816/605
f 582/809/606 565/805/606 591/816/606
f 588/807/607 589/845/607 569/840/607
f 588/807/608 580/806/608 589/845/608
f 580/806/609 564/846/609 589/845/609
f 586/804/610 587/814/610 568/819/610
f 586/804/611 576/803/611 587/814/611
f 576/803/612 563/789/612 587/814/612
f 584/801/613 585/818/613 572/831/613
f 584/801/614 577/791/614 585/818/614
f 577/791/615 567/811/615 585/818/615
f 578/800/616 583/812/616 567/811/616
f 578/800/617 581/799/617 583/812/617
f 581/799/618 566/808/618 583/812/618
f 581/797/619 582/809/619 566/808/619
f 581/797/620 579/796/620 582/809/620
f 579/796/621 565/805/621 582/809/621
f 579/794/622 580/806/622 565/805/622
f 579/794/623 574/793/623 580/806/623
f 574/793/624 564/846/624 580/806/624
f 577/791/625 578/847/625 567/811/625
f 577/791/626 575/790/626 578/847/626
f 575/790/627 562/848/627 578/847/627
f 574/788/628 576/803/628 564/802/628
f 574/788/629 575/787/629 576/803/629
f 575/787/630 563/789/630 576/803/630
f 604/786/631 616/788/631 617/787/631
f 605/789/632 619/791/632 617/790/632
f 604/792/633 621/794/633 616/793/633
f 604/795/634 623/797/634 621/796/634
f 604/798/635 620/800/635 623/799/635
f 605/789/636 626/801/636 619/791/636
f 606/802/637 628/804/637 618/803/637
f 607/805/638 630/807/638 622/806/638
f 608/808/639 632/810/639 624/809/639
f 609/811/640 634/813/640 625/812/640
f 605/789/641 629/814/641 626/801/641
f 606/802/642 631/815/642 628/804/642
f 607/805/643 633/816/643 630/807/643
f 608/808/644 635/817/644 632/810/644
f 609/811/645 627/818/645 634/813/645
f 610/819/646 641/821/646 636/820/646
f 611/822/647 643/824/647 637/823/647
f 612/825/648 644/827/648 638/826/648
f 613/828/649 645/830/649 639/829/649
f 614/831/650 642/833/650 640/832/650
f 642/833/651 615/835/651 645/834/651
f 642/833/652 645/834/652 640/832/652
f 640/832/653 645/834/653 613/828/653
f 645/830/654 615/837/654 644/836/654
f 645/830/655 644/836/655 639/829/655
f 639/829/656 644/836/656 612/825/656
f 644/827/657 615/839/657 643/838/657
f 644/827/658 643/838/658 638/826/658
f 638/826/659 643/838/659 611/840/659
f 643/824/660 615/842/660 641/841/660
f 643/824/661 641/841/661 637/823/661
f 637/823/662 641/841/662 610/819/662
f 641/821/663 615/844/663 642/843/663
f 641/821/664 642/843/664 636/820/664
f 636/820/665 642/843/665 614/831/665
f 627/818/666 614/831/666 640/832/666
f 627/818/667 640/832/667 634/813/667
f 634/813/668 640/832/668 613/828/668
f 635/817/669 613/828/669 639/829/669
f 635/817/670 639/829/670 632/810/670
f 632/810/671 639/829/671 612/825/671
f 633/816/672 612/825/672 638/826/672
f 633/816/673 638/826/673 630/807/673
f 630/807/674 638/826/674 611/840/674
f 631/815/675 611/822/675 637/823/675
f 631/815/676 637/823/676 628/804/676
f 628/804/677 637/823/677 610/819/677
f 629/814/678 610/819/678 636/820/678
f 629/814/679 636/820/679 626/801/679
f 626/801/680 636/820/680 614/831/680
f 634/813/681 613/828/681 635/817/681
f 634/813/682 635/817/682 625/812/682
f 625/812/683 635/817/683 608/808/683
f 632/810/684 612/825/684 633/816/684
f 632/810/685 633/816/685 624/809/685
f 624/809/686 633/816/686 607/805/686
f 630/807/687 611/840/687 631/845/687
f 630/807/688 631/845/688 622/806/688
f 622/806/689 631/845/689 606/846/689
f 628/804/690 610/819/690 629/814/690
f 628/804/691 629/814/691 618/803/691
f 618/803/692 629/814/692 605/789/692
f 626/801/693 614/831/693 627/818/693
f 626/801/694 627/818/694 619/791/694
f 619/791/695 627/818/695 609/811/695
f 620/800/696 609/811/696 625/812/696
f 620/800/697 625/812/697 623/799/697
f 623/799/698 625/812/698 608/808/698
f 623/797/699 608/808/699 624/809/699
f 623/797/700 624/809/700 621/796/700
f 621/796/701 624/809/701 607/805/701
f 621/794/702 607/805/702 622/806/702
f 621/794/703 622/806/703 616/793/703
f 616/793/704 622/806/704 606/846/704
f 619/791/705 609/811/705 620/847/705
f 619/791/706 620/847/706 617/790/706
f 617/790/707 620/847/707 604/848/707
f 616/788/708 606/802/708 618/803/708
f 616/788/709 618/803/709 617/787/709
f 617/787/710 618/803/710 605/789/710
