# Blender 5.1.1
# www.blender.org
o Куб.001
v 0.568623 1.035881 0.817909
v 0.462972 2.477563 0.347050
v 0.629607 1.018563 -0.378283
v 0.630674 2.290695 -0.184445
v 0.053723 0.933981 -0.431578
v 0.004171 2.432720 -0.333781
v 0.739966 1.571192 -0.024277
v 0.641070 0.901420 0.156450
v 0.579476 2.386794 0.112118
v 0.683529 1.681685 0.569250
v 0.093844 0.990691 0.977951
v -0.094113 2.541474 0.379419
v 0.751502 1.573523 0.095461
v 0.046915 0.786770 0.153672
v -0.036117 2.516711 0.087957
v 0.833397 0.451218 -1.264724
v 0.555850 2.228693 -0.426308
v 0.071982 1.043039 -0.670528
v 0.000362 2.299129 -0.611410
v 0.478418 1.360625 -0.912898
v 0.474363 2.131379 -0.710398
v 0.060443 2.077122 3.470128
v 0.080330 1.166659 -0.865324
v 0.001758 2.176119 -0.905356
v 0.577401 1.761200 -0.894434
v 0.038132 1.612832 -0.994107
v 0.059110 2.474552 3.420077
v 0.145366 2.787531 3.116347
v 0.484448 1.403332 1.628582
v 0.469468 2.567806 0.767377
v 0.142962 2.035368 3.271188
v 0.635426 1.826302 0.940443
v 0.097416 1.292370 1.579605
v -0.042603 2.663851 0.846326
v 0.032989 2.161181 3.686407
v 0.009867 2.332076 3.701124
v 0.019313 2.082995 3.595383
v 0.562666 2.736213 1.117177
v 0.510891 0.929404 1.980552
v 0.087712 1.326366 1.787207
v -0.046002 2.829777 1.213402
v 0.094338 2.671391 3.348750
v 0.104960 2.048986 3.387830
v 0.144157 2.892572 2.844874
v 0.579506 2.764193 1.312952
v 0.437963 0.943026 2.064287
v 0.084917 1.367281 1.850435
v -0.044989 2.876046 1.375200
v 0.156504 2.028793 3.150607
v 0.131551 2.952549 2.628170
v 0.140834 2.018768 3.004411
v 0.536598 2.757549 1.581414
v 0.741014 2.242667 1.750501
v 0.714225 1.591453 2.251709
v 0.068817 1.478482 1.939450
v -0.040717 2.899600 1.539797
v 0.130321 3.004450 2.318284
v 0.162221 1.969370 2.586104
v 0.426409 2.858269 1.840912
v 0.616522 2.109006 1.958911
v 0.543005 1.845652 2.060577
v 0.048166 1.630483 2.056304
v -0.049769 2.996185 1.812439
v 0.182444 2.953573 1.830239
v 0.297295 1.731644 2.061165
v 0.241241 2.857285 1.536777
v 0.473799 1.506777 1.968534
v 0.316831 2.941426 2.305044
v 0.432348 2.318381 2.482806
v 0.348397 1.995690 2.513570
v -0.020454 1.942898 2.611053
v -0.052731 3.023443 2.304605
v 0.279401 2.832126 1.337205
v 0.407753 1.481927 1.882671
v 0.271735 2.805324 1.146652
v 0.312335 2.897994 2.607249
v 0.402882 2.409668 2.780969
v 0.321231 2.041526 2.938059
v -0.036591 1.991378 3.003458
v -0.047031 2.968596 2.603885
v 0.394949 1.546226 1.968300
v 0.212729 2.641082 0.775614
v 0.380903 1.462172 1.817217
v 0.340630 2.706186 2.868201
v 0.424203 2.494544 2.909827
v 0.348063 2.059291 3.089609
v -0.034778 2.000648 3.145138
v -0.033666 2.912649 2.817326
v 0.294596 1.611294 -0.926628
v 0.205396 2.163318 -0.860426
v 0.346379 1.284891 -0.858793
v 0.216037 2.627678 3.306513
v 0.311391 2.365325 3.288702
v 0.244517 2.069792 3.338159
v -0.031850 2.029593 3.359509
v -0.024210 2.685699 3.314960
v 0.257041 2.262973 -0.641643
v 0.308748 1.111343 -0.652849
v 0.272504 2.486066 0.048450
v 0.044800 2.325184 3.679463
v 0.099244 2.163024 3.644954
v 0.075148 2.105979 3.583589
v -0.028291 2.076739 3.607599
v 0.039550 2.277827 3.701304
v -0.026426 2.151028 3.685945
v 0.435073 2.563974 2.978207
v -0.033307 2.012283 3.255898
v 0.320110 2.060535 3.214219
v 0.347095 0.828584 0.087909
v -0.027085 2.810679 3.085308
v 0.372367 2.700113 2.957571
v 0.177630 2.529290 0.319779
v -0.025546 2.477804 3.419431
v 0.333144 1.002659 0.889536
v 0.318974 2.375046 -0.392883
v 0.382638 0.966485 -0.436304
v 0.156389 2.092938 3.424653
v -0.030567 2.061336 3.433565
v 0.182811 2.264454 3.467111
v 0.149352 2.434333 3.408095
v 0.041021 2.078016 3.527878
v 0.042764 2.373034 3.584363
v 0.110798 2.092486 3.513940
v 0.134123 2.214440 3.555276
v -0.024963 2.378209 3.571760
v -0.029488 2.067984 3.516785
v 0.109465 2.352065 3.557761
v 0.605115 2.439147 0.901475
v 0.728705 1.837474 1.021732
v 0.638415 1.515790 1.589783
v 0.671762 2.601934 1.125753
v 0.832268 1.894307 1.561000
v 0.878388 1.553083 1.971114
v 0.641371 2.658479 1.309739
v 0.862678 2.044262 1.643334
v 0.940327 1.577149 2.138730
v 0.658715 2.543703 1.490519
v 0.832840 2.216344 1.724125
v 0.915456 1.631066 2.252426
v 0.416275 1.161329 1.950091
v 0.491308 1.165032 1.848568
v 0.849081 1.177387 2.287301
v 0.719401 1.177937 2.371537
v 0.860002 1.142005 2.162540
v 0.457159 1.150010 2.173444
v 0.814434 1.133285 2.039149
v 0.625838 1.160852 1.794137
v 0.502472 1.148227 2.289383
v 0.573411 1.169417 2.338990
v 0.822289 0.949748 2.273699
v 0.693613 0.971864 2.356409
v 0.450429 0.471318 1.995702
v 0.843530 0.923678 2.174729
v 0.455033 0.953746 2.199419
v 0.357223 0.490916 2.082737
v 0.803191 0.910960 2.081633
v 0.643584 0.915274 1.946349
v 0.490035 0.970617 2.308716
v 0.552876 0.982822 2.363653
v 0.402184 0.749171 2.047602
v 0.485701 0.730871 1.967149
v 0.808103 0.742933 2.222953
v 0.665570 0.769111 2.305606
v 0.802228 0.722057 2.139604
v 0.419499 0.760659 2.169825
v 0.765662 0.709666 2.055056
v 0.632459 0.711018 1.929009
v 0.453080 0.776164 2.269030
v 0.514660 0.785725 2.318249
v 0.826611 0.458927 2.260590
v 0.641593 0.488771 2.356694
v 0.642739 0.473965 2.228358
v 0.798131 0.451281 2.177691
v 0.374805 0.501146 2.213510
v 0.601789 0.465421 2.129005
v 0.760804 0.442655 2.087292
v 0.612995 0.448321 1.953586
v 0.411963 0.511512 2.318262
v 0.449150 0.514937 2.379154
v 0.378269 0.625968 2.066177
v 0.432181 0.650939 2.294709
v 0.395569 0.637538 2.192808
v 0.767376 0.581756 2.070869
v 0.804138 0.593315 2.158959
v 0.819669 0.664125 2.237418
v 0.664890 0.689306 2.327245
v 0.625226 0.584509 1.941268
v 0.468176 0.606322 1.982046
v 0.499986 0.710851 2.339389
v 0.689926 0.609694 2.468551
v 0.679184 0.494015 2.487302
v 0.835320 0.468315 2.399057
v 0.515640 0.515546 2.501245
v 0.840613 0.585433 2.382590
v 0.531767 0.630794 2.481144
v 0.784785 2.140889 -0.200580
v 0.816440 1.579901 -0.140379
v 0.787621 1.073060 -0.443568
v 0.770191 2.119545 -0.442385
v 0.873454 1.716232 -0.612078
v 0.828120 1.202891 -0.668883
v 0.753112 2.057863 -0.672966
v 0.846551 1.776276 -0.826853
v 0.752474 1.360036 -0.894376
v 0.614974 0.289672 -1.425870
v 0.530322 1.084065 -1.082143
v 0.658473 0.850825 -0.520994
v 0.459821 0.858557 -0.583915
v 0.392958 0.959959 -0.821187
v 0.419585 1.061469 -1.037757
v 0.816020 0.974799 -0.819863
v 0.754166 1.070066 -1.052275
v 0.784745 0.883436 -0.592459
v 0.547425 0.909453 -1.115334
v 0.662530 0.455183 -0.829666
v 0.481610 0.504456 -0.865972
v 0.421466 0.719472 -0.969571
v 0.446416 0.878777 -1.087561
v 0.807015 0.716756 -0.962648
v 0.751325 0.887232 -1.092693
v 0.777790 0.518796 -0.860749
v 0.551627 0.478413 -1.567400
v 0.683704 0.124528 -1.281453
v 0.427317 0.150721 -1.322166
v 0.409798 0.302156 -1.444638
v 0.438897 0.447896 -1.547607
v 0.838735 0.305847 -1.438946
v 0.778251 0.457711 -1.552608
v 0.848516 0.168349 -1.322940
v 0.841098 0.314402 -1.154382
v 0.404433 0.448246 -1.271066
v 0.433548 0.592232 -1.374620
v 0.419884 0.298230 -1.153216
v 0.676202 0.268937 -1.117724
v 0.546287 0.622925 -1.393919
v 0.772918 0.602143 -1.378893
v 0.802229 0.147966 -1.152794
v 0.808821 0.064842 -1.228423
v 0.680198 0.021553 -1.188765
v 0.479292 0.048493 -1.229747
v 0.472713 0.130146 -1.154631
v 0.673593 0.107249 -1.111840
v 0.796938 0.595538 -1.100068
v 0.437478 0.593689 -1.104023
v 0.661444 0.405670 -0.968081
v 0.769087 0.451355 -1.001142
v 0.461449 0.731888 -1.191745
v 0.492927 0.439157 -1.001899
v 0.555830 0.759948 -1.209217
v 0.745820 0.740094 -1.195691
v 0.002284 2.054442 -1.006331
v 0.013734 1.787657 -1.086175
v 0.109011 1.790330 -1.041189
v 0.078775 2.040236 -0.981986
v 0.149474 1.755869 -0.984439
v 0.090766 2.123955 -0.926457
v 0.016283 1.749062 -1.040179
v 0.002007 2.141291 -0.956139
v 0.318920 2.806471 2.750481
v 0.430299 2.406492 2.899304
v 0.318297 2.729267 3.082941
v 0.440203 2.444966 3.099065
v 0.400316 2.755188 2.891496
v 0.478657 2.744444 2.912146
v 0.441451 2.766971 2.904638
v 0.506396 2.706730 2.914971
v 0.505406 2.615445 2.915790
v 0.519149 2.662240 2.916555
v 0.484005 2.720450 2.958680
v 0.424990 2.732349 2.958292
v 0.455648 2.737282 2.958547
v 0.496565 2.642710 2.964296
v 0.496802 2.704635 2.958673
v 0.506878 2.674166 2.960343
v 0.342541 2.709353 2.956590
v 0.429766 2.518986 2.983155
v 0.460293 2.761667 2.955884
v 0.499580 2.738408 2.956625
v 0.416723 2.754690 2.955932
v 0.517760 2.716006 2.957295
v 0.531609 2.674162 2.960170
v 0.517636 2.631585 2.965359
v 0.353327 2.685357 2.960152
v 0.419795 2.540878 2.980055
v 0.382441 2.680377 2.949353
v 0.427743 2.582138 2.964172
v 0.442538 2.707189 2.950041
v 0.463008 2.695040 2.950123
v 0.420425 2.703632 2.949854
v 0.472249 2.683625 2.950107
v 0.479532 2.661635 2.951296
v 0.472115 2.638927 2.954122
v 0.368764 2.669727 2.951159
v 0.416735 2.565468 2.965489
v 0.034510 2.332606 3.666294
v 0.030841 2.253238 3.704573
v 0.074995 2.325500 3.638423
v 0.070086 2.246181 3.677627
v -0.024865 2.255085 3.708066
v -0.024347 2.332188 3.671055
v 0.006257 2.284602 3.722259
v -0.024009 2.330404 3.701104
v -0.024329 2.284572 3.722119
v -0.433834 0.969694 0.796829
v -0.592948 2.336969 0.400485
v -0.525754 0.995324 -0.477177
v -0.610512 2.265731 -0.290682
v -0.704389 1.522228 -0.123568
v -0.523325 0.853692 0.089133
v -0.637799 2.333764 0.040553
v -0.614023 1.552882 0.590739
v -0.721863 1.508389 0.013904
v -0.553188 0.423333 -1.383411
v -0.500597 2.209507 -0.508167
v -0.299750 1.344980 -0.979491
v -0.398165 2.119459 -0.761696
v -0.120255 2.079374 3.472292
v -0.430503 1.742927 -0.972400
v -0.110218 2.476662 3.422105
v -0.198747 2.790445 3.120032
v -0.319108 1.336145 1.645493
v -0.541353 2.473103 0.798014
v -0.208529 2.039748 3.275398
v -0.569008 1.720933 0.967596
v -0.085542 2.162658 3.687827
v -0.057823 2.332920 3.701935
v -0.076003 2.084183 3.596524
v -0.635304 2.639440 1.142789
v -0.257699 0.867316 1.996984
v -0.142227 2.674339 3.351584
v -0.167417 2.052381 3.391093
v -0.209804 2.891893 2.847501
v -0.648086 2.665026 1.339197
v -0.184412 0.892750 2.077594
v -0.225114 2.033549 3.155178
v -0.222257 2.942051 2.627685
v -0.213204 2.023180 3.008652
v -0.592288 2.668554 1.599713
v -0.705101 2.125849 1.781419
v -0.552919 1.489092 2.278800
v -0.232772 2.988439 2.316122
v -0.201023 1.967374 2.590514
v -0.501336 2.795289 1.836865
v -0.566957 2.023410 1.980703
v -0.455349 1.775333 2.079570
v -0.273422 2.923300 1.825954
v -0.206026 1.698728 2.070812
v -0.314420 2.815427 1.540609
v -0.316254 1.443513 1.985369
v -0.412194 2.909870 2.301021
v -0.469054 2.289644 2.486620
v -0.380844 1.987054 2.521382
v -0.360747 2.780857 1.349716
v -0.248795 1.428891 1.896708
v -0.358245 2.754433 1.160120
v -0.398600 2.878068 2.606643
v -0.464205 2.410216 2.788816
v -0.390114 2.048311 2.946164
v -0.242848 1.494704 1.981936
v -0.296751 2.593890 0.791519
v -0.220923 1.413329 1.830272
v -0.404199 2.706350 2.874234
v -0.486976 2.499349 2.918666
v -0.417125 2.068695 3.098734
v -0.166609 1.604430 -0.956084
v -0.191563 2.162519 -0.864553
v -0.178886 1.274587 -0.902679
v -0.266172 2.633479 3.312221
v -0.368215 2.373795 3.296842
v -0.307561 2.076673 3.344772
v -0.234932 2.260440 -0.653165
v -0.166881 1.101778 -0.693560
v -0.333847 2.460322 0.012066
v -0.093426 2.326907 3.681118
v -0.152705 2.166164 3.647972
v -0.131514 2.108555 3.586065
v -0.088836 2.279426 3.702842
v -0.495737 2.568969 2.987260
v -0.386308 2.069339 3.222681
v -0.236336 0.806840 0.050176
v -0.433102 2.702580 2.964805
v -0.346883 2.447358 0.359107
v -0.156235 0.963625 0.886483
v -0.279345 2.365170 -0.435131
v -0.270639 0.953346 -0.492222
v -0.216838 2.097590 3.429123
v -0.237953 2.269698 3.472151
v -0.201695 2.438708 3.412299
v -0.099438 2.079767 3.529560
v -0.092476 2.374720 3.585983
v -0.169146 2.095974 3.517293
v -0.188429 2.218461 3.559139
v -0.160297 2.355427 3.560992
v -0.638747 2.329096 0.936016
v -0.655182 1.718032 1.055438
v -0.494127 1.424302 1.613996
v -0.720979 2.489427 1.155529
v -0.747244 1.766712 1.594769
v -0.720564 1.423918 2.005298
v -0.692269 2.550746 1.338251
v -0.797795 1.910128 1.678834
v -0.778388 1.438310 2.175475
v -0.683511 2.435935 1.517466
v -0.792549 2.085043 1.758875
v -0.757684 1.495908 2.288197
v -0.202899 1.111312 1.963329
v -0.281796 1.102580 1.865097
v -0.617959 1.058878 2.318665
v -0.486590 1.080516 2.397321
v -0.628351 1.021775 2.194360
v -0.231915 1.094346 2.188176
v -0.587254 1.020055 2.069117
v -0.416101 1.076684 1.816414
v -0.271391 1.085714 2.305928
v -0.342640 1.095418 2.358575
v -0.555594 0.838441 2.303157
v -0.428739 0.881199 2.380405
v -0.123936 0.424920 2.007982
v -0.576560 0.808962 2.205090
v -0.197227 0.901056 2.213364
v -0.031471 0.459516 2.091047
v -0.538694 0.802561 2.110322
v -0.387736 0.831963 1.968398
v -0.229810 0.912468 2.324106
v -0.291405 0.914620 2.381703
v -0.118735 0.707091 2.058740
v -0.201574 0.675352 1.981843
v -0.510578 0.636408 2.251146
v -0.370712 0.685400 2.327762
v -0.504974 0.616460 2.167552
v -0.132463 0.716071 2.181626
v -0.470518 0.609806 2.081485
v -0.344731 0.632079 1.949901
v -0.163853 0.726327 2.282220
v -0.224024 0.726053 2.334042
v -0.481665 0.353243 2.288561
v -0.299920 0.412714 2.376823
v -0.304124 0.397476 2.248602
v -0.455873 0.349981 2.204502
v -0.044897 0.467242 2.222483
v -0.266590 0.395272 2.147571
v -0.421518 0.347146 2.112570
v -0.282346 0.375995 1.972728
v -0.078756 0.471871 2.328754
v -0.113391 0.469495 2.391181
v -0.074596 0.589385 2.075860
v -0.122063 0.606167 2.306559
v -0.088136 0.598464 2.203150
v -0.451015 0.483333 2.096918
v -0.485381 0.489147 2.186528
v -0.508725 0.556816 2.265818
v -0.356319 0.606812 2.349079
v -0.316781 0.508413 1.961408
v -0.163676 0.555280 1.995555
v -0.196643 0.654577 2.354283
v -0.362234 0.524700 2.491047
v -0.332285 0.412307 2.508928
v -0.485880 0.361588 2.427304
v -0.173872 0.459847 2.515986
v -0.510589 0.476282 2.411479
v -0.209119 0.570945 2.496985
v -0.753539 2.109949 -0.332250
v -0.770871 1.544673 -0.272467
v -0.672429 1.043693 -0.568541
v -0.697240 2.090031 -0.567987
v -0.753994 1.683500 -0.751377
v -0.679215 1.172576 -0.797902
v -0.647070 2.031702 -0.784499
v -0.695813 1.745796 -0.956619
v -0.572696 1.333387 -1.007802
v -0.304294 0.271185 -1.504558
v -0.311041 1.067148 -1.154161
v -0.523239 0.827057 -0.622145
v -0.317255 0.842929 -0.650432
v -0.215159 0.947731 -0.873242
v -0.208640 1.048838 -1.091532
v -0.632547 0.945667 -0.943854
v -0.535965 1.044123 -1.162705
v -0.636735 0.854847 -0.714133
v -0.315272 0.892107 -1.189181
v -0.459005 0.432629 -0.925668
v -0.276660 0.489209 -0.930881
v -0.208423 0.706807 -1.023492
v -0.219306 0.865392 -1.144549
v -0.589125 0.688679 -1.082155
v -0.519003 0.861687 -1.201430
v -0.569756 0.491697 -0.976096
v -0.225410 0.462786 -1.633914
v -0.389910 0.102937 -1.373351
v -0.131585 0.139482 -1.370009
v -0.099575 0.291914 -1.488241
v -0.116553 0.436726 -1.595155
v -0.523045 0.278460 -1.555510
v -0.450243 0.433004 -1.657764
v -0.546894 0.140286 -1.442383
v -0.574054 0.285942 -1.275514
v -0.129609 0.437507 -1.316782
v -0.146434 0.580569 -1.424268
v -0.158855 0.286592 -1.202757
v -0.416100 0.246971 -1.211223
v -0.255390 0.606803 -1.462543
v -0.480267 0.576941 -1.486162
v -0.529407 0.121186 -1.266778
v -0.519732 0.038123 -1.342142
v -0.398092 -0.000132 -1.281063
v -0.194382 0.034947 -1.287413
v -0.203923 0.116539 -1.212551
v -0.408077 0.085496 -1.204428
v -0.551019 0.568430 -1.215450
v -0.196329 0.580944 -1.158278
v -0.432447 0.383672 -1.061716
v -0.534645 0.425137 -1.112738
v -0.210547 0.718375 -1.249269
v -0.262107 0.423975 -1.066530
v -0.301632 0.742705 -1.282616
v -0.490212 0.715237 -1.301493
v -0.072165 1.789648 -1.044394
v -0.074406 2.040145 -0.982675
v -0.093274 1.754435 -0.990889
v -0.086996 2.123850 -0.927256
v -0.388634 2.801331 2.754534
v -0.494384 2.412458 2.908620
v -0.373718 2.734660 3.090203
v -0.499587 2.453664 3.109367
v -0.462657 2.756727 2.898887
v -0.540029 2.747473 2.921245
v -0.503120 2.769322 2.912925
v -0.567721 2.710403 2.924720
v -0.567120 2.619832 2.925777
v -0.580601 2.666369 2.926669
v -0.544464 2.723853 2.967985
v -0.485651 2.734920 2.966389
v -0.516152 2.740243 2.967256
v -0.557181 2.646853 2.974051
v -0.557286 2.708282 2.968263
v -0.567430 2.678137 2.970203
v -0.402904 2.712154 2.963458
v -0.490708 2.524715 2.992360
v -0.520723 2.764633 2.964662
v -0.559953 2.741939 2.966214
v -0.477327 2.757188 2.963871
v -0.578180 2.719828 2.967272
v -0.592140 2.678370 2.970500
v -0.578291 2.635960 2.975527
v -0.414173 2.687584 2.967006
v -0.480563 2.546323 2.989007
v -0.443479 2.682840 2.956749
v -0.488608 2.586617 2.972945
v -0.503380 2.710059 2.958520
v -0.523798 2.698280 2.959053
v -0.481368 2.706232 2.957891
v -0.533036 2.687103 2.959260
v -0.540338 2.665441 2.960669
v -0.532925 2.642984 2.963461
v -0.429771 2.672225 2.958348
v -0.477646 2.570251 2.974183
v -0.083273 2.334074 3.667705
v -0.080667 2.254627 3.705909
v -0.124578 2.327987 3.640814
v -0.120709 2.248559 3.679912
v -0.054892 2.285364 3.722991
v 0.263839 2.405595 3.309275
v 0.279659 2.474456 3.298613
v 0.242651 2.419186 3.349287
v 0.204790 2.381483 3.362303
v 0.218400 2.413451 3.319674
v 0.264671 2.470912 3.280312
v 0.230386 2.492903 3.345054
v 0.184115 2.435442 3.384417
v 0.169127 2.431898 3.366115
v 0.206135 2.487168 3.315442
v 0.243996 2.524872 3.302425
v 0.184947 2.500760 3.355454
v 0.258311 2.405229 3.328739
v 0.280063 2.437716 3.298954
v 0.267609 2.445705 3.322473
v 0.280552 2.476109 3.281930
v 0.271253 2.435633 3.288197
v 0.236057 2.383068 3.336390
v 0.223603 2.391057 3.359909
v 0.244056 2.401859 3.311333
v 0.209348 2.387686 3.342503
v 0.244545 2.440251 3.294310
v 0.268400 2.507826 3.294928
v 0.259590 2.505743 3.284171
v 0.238648 2.456548 3.349770
v 0.260401 2.489035 3.319984
v 0.189196 2.400612 3.380558
v 0.211450 2.422773 3.372907
v 0.188385 2.417319 3.344744
v 0.180386 2.398529 3.369801
v 0.237336 2.483581 3.291822
v 0.210138 2.449806 3.314958
v 0.239438 2.518669 3.322225
v 0.204241 2.466104 3.370419
v 0.168234 2.430246 3.382798
v 0.181177 2.460649 3.342256
v 0.225183 2.515297 3.304820
v 0.204730 2.504496 3.353395
v 0.212729 2.523286 3.328338
v 0.177533 2.470721 3.376532
v 0.168723 2.468638 3.365775
v 0.190475 2.501124 3.335990
v -0.319196 2.412861 3.316258
v -0.333546 2.482099 3.305958
v -0.296724 2.425908 3.355748
v -0.259513 2.387269 3.367865
v -0.273338 2.419580 3.325565
v -0.319093 2.478187 3.287304
v -0.282731 2.499298 3.351200
v -0.236976 2.440690 3.389461
v -0.222524 2.436779 3.370807
v -0.259346 2.492969 3.321017
v -0.296556 2.531608 3.308900
v -0.236873 2.506016 3.360507
v -0.313214 2.412352 3.335585
v -0.334857 2.445380 3.306320
v -0.321648 2.453049 3.329531
v -0.334796 2.483778 3.289301
v -0.326362 2.443081 3.295355
v -0.291342 2.389641 3.342708
v -0.278133 2.397310 3.365919
v -0.299468 2.408633 3.317844
v -0.264388 2.393590 3.348178
v -0.299408 2.447030 3.300825
v -0.321550 2.515178 3.301995
v -0.313055 2.512879 3.291030
v -0.291780 2.463159 3.356123
v -0.313424 2.496187 3.326858
v -0.243014 2.405998 3.385735
v -0.264886 2.428710 3.378613
v -0.242646 2.422691 3.349907
v -0.234519 2.403699 3.374771
v -0.291183 2.490168 3.298152
v -0.264289 2.455719 3.320642
v -0.291682 2.525288 3.328587
v -0.256661 2.471848 3.375940
v -0.221273 2.435100 3.387464
v -0.234421 2.465828 3.347234
v -0.277936 2.521568 3.310846
v -0.256601 2.510245 3.358922
v -0.264727 2.529237 3.334058
v -0.229707 2.475797 3.381410
v -0.221212 2.473497 3.370445
v -0.242855 2.506525 3.341180
vn -0.8566 -0.5158 -0.0142
vn 0.4380 0.8018 -0.4066
vn 0.9847 -0.1624 -0.0631
vn 0.9815 0.1848 0.0498
vn 0.9509 0.2545 0.1761
vn 0.9799 -0.1324 0.1495
vn 0.9819 -0.1072 0.1563
vn 0.2563 -0.8708 0.4196
vn 0.2680 -0.9380 -0.2198
vn 0.1931 -0.9577 0.2134
vn 0.1047 0.9723 -0.2092
vn 0.0554 0.9929 -0.1049
vn 0.3682 0.8285 -0.4220
vn 0.1544 0.0673 -0.9857
vn 0.1634 -0.8531 -0.4955
vn 0.5766 0.1998 0.7922
vn 0.2405 0.3006 -0.9229
vn -0.0164 -0.0667 -0.9976
vn 0.2142 0.4997 -0.8393
vn 0.3152 -0.7793 -0.5417
vn 0.8115 0.5759 -0.0992
vn 0.9276 -0.1910 -0.3211
vn 0.0034 0.9692 -0.2463
vn 0.9708 0.2390 -0.0199
vn 0.4649 -0.7979 -0.3837
vn 0.0707 0.9764 -0.2042
vn -0.0223 0.9132 -0.4068
vn -0.8252 -0.3531 -0.4408
vn 0.6817 -0.0128 -0.7315
vn 0.1319 0.9841 -0.1194
vn 0.3808 0.6407 0.6667
vn 0.7968 -0.2689 -0.5410
vn 0.0805 0.8993 -0.4298
vn 0.2567 0.5122 0.8196
vn -0.4516 -0.1468 0.8801
vn 0.1832 -0.8825 0.4331
vn 0.0866 -0.9657 -0.2449
vn 0.1590 -0.9623 0.2205
vn 0.2244 0.1558 0.9620
vn 0.7585 0.4504 -0.4710
vn 0.3611 0.9092 -0.2074
vn 0.9018 -0.1508 0.4051
vn 0.3440 -0.8273 0.4440
vn 0.2649 0.9538 -0.1418
vn 0.1638 0.9396 -0.3005
vn 0.1095 0.9078 -0.4049
vn 0.8247 0.3570 0.4387
vn 0.4941 -0.5278 0.6909
vn 0.8455 0.2144 -0.4891
vn 0.1850 -0.2212 -0.9575
vn 0.9801 0.1944 0.0400
vn 0.9671 0.1157 -0.2266
vn 0.1516 0.9860 -0.0701
vn 0.3787 -0.8805 0.2852
vn 0.9449 0.2547 0.2055
vn 0.2264 0.9467 -0.2291
vn 0.2103 0.9660 -0.1503
vn 0.9778 0.2028 -0.0537
vn 0.1966 0.8738 -0.4447
vn 0.0605 0.9647 0.2563
vn 0.1765 -0.9769 0.1206
vn 0.9727 -0.2020 0.1146
vn 0.2707 0.9626 0.0088
vn 0.0772 0.9822 0.1712
vn 0.0108 0.8860 0.4635
vn -0.1025 0.6649 -0.7399
vn 0.8437 -0.1045 0.5265
vn 0.2025 -0.9613 0.1870
vn 0.0465 -0.4666 0.8832
vn 0.1643 -0.9840 0.0684
vn 0.9386 -0.2988 -0.1725
vn 0.1072 -0.7993 0.5913
vn 0.8704 -0.3974 0.2907
vn 0.3242 -0.9101 0.2582
vn 0.2695 -0.8365 0.4771
vn 0.3516 0.9107 -0.2170
vn 0.3439 0.9361 -0.0734
vn 0.7686 0.3037 0.5630
vn 0.4377 0.8368 0.3289
vn 0.1549 -0.9799 0.1255
vn 0.1845 -0.7388 0.6482
vn 0.8909 0.1507 0.4285
vn 0.3140 0.9379 0.1477
vn 0.3951 0.7702 0.5006
vn 0.1114 -0.9814 0.1563
vn 0.4295 0.7896 0.4382
vn 0.1477 -0.9874 0.0572
vn 0.5478 0.3023 0.7801
vn 0.1368 -0.9852 0.1032
vn 0.3912 -0.7343 0.5547
vn -0.2946 -0.0454 0.9545
vn 0.0072 0.9024 0.4308
vn 0.1677 -0.9840 0.0598
vn 0.9689 -0.2335 0.0825
vn 0.0403 -0.2009 0.9788
vn 0.0554 0.9325 0.3570
vn 0.6421 0.2601 0.7211
vn 0.1329 -0.9875 0.0847
vn -0.1187 0.4046 0.9068
vn 0.4498 0.8552 0.2576
vn 0.3470 0.3027 0.8877
vn 0.0391 -0.9295 0.3668
vn 0.3268 -0.8017 0.5004
vn 0.7863 -0.1481 0.5998
vn 0.4183 0.7492 0.5135
vn 0.1371 -0.9880 0.0707
vn 0.8559 0.2454 0.4553
vn 0.0001 0.8441 0.5362
vn 0.2124 -0.9724 0.0968
vn 0.8812 -0.2618 0.3937
vn 0.8485 -0.4551 -0.2701
vn 0.9697 0.1930 -0.1497
vn 0.9638 0.1051 -0.2451
vn 0.9290 0.3683 -0.0363
vn 0.9565 -0.1401 -0.2558
vn 0.9795 0.1958 0.0480
vn 0.7774 0.5192 0.3551
vn 0.8748 0.4529 0.1722
vn -0.6414 0.3547 0.6803
vn 0.0381 0.6404 0.7671
vn -0.3031 -0.5019 -0.8101
vn 0.9812 -0.0957 0.1674
vn -0.9872 0.0074 0.1596
vn -0.9407 0.0767 0.3303
vn 0.9280 -0.1028 -0.3581
vn 0.5314 -0.1200 0.8386
vn 0.9687 -0.1467 0.2003
vn -0.7012 0.4435 0.5583
vn -0.0446 -0.5809 -0.8127
vn -0.9857 -0.0620 0.1567
vn 0.9795 -0.1590 0.1235
vn -0.9791 0.1665 0.1164
vn -0.9481 0.1251 0.2924
vn 0.9171 -0.1213 -0.3799
vn 0.4691 -0.2578 0.8447
vn 0.6659 0.0009 -0.7461
vn -0.6317 0.1491 0.7607
vn -0.0876 0.0345 0.9956
vn -0.7343 -0.3740 -0.5665
vn 0.6997 -0.2661 -0.6630
vn -0.2589 -0.0637 -0.9638
vn 0.9677 -0.0276 -0.2505
vn -0.9788 0.1670 0.1185
vn -0.9316 0.1883 0.3109
vn 0.9235 -0.0880 -0.3734
vn 0.9943 -0.0079 -0.1059
vn -0.2386 0.0953 -0.9664
vn -0.6366 -0.0451 0.7699
vn 0.0434 -0.2405 0.9697
vn -0.6985 0.1620 -0.6970
vn -0.1207 -0.9883 0.0934
vn -0.1015 -0.9878 0.1181
vn -0.1073 -0.9854 0.1324
vn -0.1176 -0.9891 0.0889
vn -0.1173 -0.9861 0.1173
vn -0.1037 -0.9858 0.1320
vn -0.7590 0.2725 0.5913
vn -0.8743 0.2662 0.4058
vn -0.6810 0.0159 -0.7321
vn 0.6653 -0.1223 -0.7365
vn 0.6765 -0.0952 -0.7302
vn -0.6864 0.0166 -0.7271
vn 0.1063 0.2552 0.9610
vn -0.6579 0.2805 0.6990
vn 0.5177 0.2235 0.8258
vn 0.9217 -0.0399 -0.3859
vn -0.9295 0.2250 0.2921
vn -0.9712 0.2082 0.1158
vn 0.9875 0.0392 -0.1528
vn -0.2607 -0.0784 -0.9622
vn 0.5032 0.0953 0.8589
vn 0.1014 0.1536 0.9829
vn 0.3679 0.8376 0.4038
vn -0.1208 -0.9899 0.0746
vn 0.1507 0.8737 0.4626
vn -0.1250 -0.9894 0.0744
vn 0.9884 0.1293 0.0796
vn 0.9555 -0.1065 -0.2751
vn 0.9895 -0.1064 0.0978
vn 0.9441 0.3158 -0.0944
vn 0.6154 -0.4723 0.6310
vn 0.5442 0.8041 -0.2392
vn 0.9886 -0.1095 0.1032
vn 0.3399 0.8782 -0.3364
vn -0.9641 -0.2043 0.1696
vn -0.3559 0.1697 -0.9190
vn -0.2855 -0.5992 0.7480
vn 0.9906 -0.0921 0.1011
vn 0.0981 0.5046 -0.8578
vn -0.4815 0.4165 -0.7711
vn -0.9531 -0.1659 -0.2530
vn -0.1065 -0.7402 0.6639
vn -0.3041 0.7271 -0.6155
vn -0.9325 -0.2884 0.2173
vn 0.9984 0.0554 -0.0100
vn -0.9862 0.1105 -0.1230
vn 0.5012 -0.5243 0.6884
vn 0.1363 0.2050 -0.9692
vn 0.9639 0.0797 -0.2541
vn -0.9820 -0.0421 -0.1842
vn -0.0055 -0.6531 -0.7573
vn 0.0459 -0.6365 -0.7699
vn 0.0307 -0.5878 -0.8084
vn -0.0030 -0.6003 -0.7998
vn -0.9960 -0.0823 0.0334
vn 0.9524 -0.1932 0.2359
vn 0.1117 0.7655 -0.6336
vn 0.9526 0.2475 -0.1769
vn 0.9492 0.3056 -0.0745
vn 0.1183 0.7981 -0.5908
vn 0.3833 -0.6280 0.6773
vn -0.9499 0.0045 0.3125
vn -0.9810 0.1935 0.0132
vn 0.9660 0.1062 0.2356
vn -0.2146 -0.6968 0.6844
vn -0.3168 0.7730 -0.5496
vn -0.2306 -0.6642 0.7111
vn 0.4107 -0.5934 0.6922
vn -0.1701 -0.0126 0.9853
vn 0.0568 -0.6613 -0.7480
vn 0.2585 -0.0107 0.9659
vn -0.0058 -0.6710 -0.7414
vn -0.3359 0.5048 -0.7952
vn -0.2829 -0.8885 0.3613
vn 0.9888 -0.1460 0.0323
vn -0.9838 0.0409 -0.1748
vn -0.9633 -0.2552 0.0829
vn 0.4899 -0.8099 0.3225
vn 0.1344 0.5489 -0.8250
vn 0.9591 0.1559 -0.2362
vn 0.3760 0.2690 -0.8867
vn 0.3088 -0.7093 -0.6336
vn 0.3541 0.4750 -0.8056
vn 0.2446 0.6921 -0.6791
vn 0.2992 -0.1695 -0.9390
vn 0.4849 0.1931 -0.8530
vn 0.9567 0.2769 -0.0901
vn 0.9338 0.3528 0.0592
vn 0.9960 0.0565 -0.0694
vn 0.9010 0.4098 0.1425
vn -0.5814 0.8117 0.0555
vn 0.7651 0.5667 -0.3058
vn 0.8095 -0.5823 0.0751
vn 0.5193 0.8468 -0.1154
vn -0.2322 0.9653 0.1192
vn 0.9107 0.2642 -0.3176
vn 0.9407 -0.2996 -0.1590
vn 0.2449 -0.0256 -0.9692
vn -0.0547 0.1155 0.9918
vn 0.0412 0.0912 0.9950
vn -0.0197 0.1053 0.9942
vn 0.0169 0.0683 0.9975
vn 0.0097 0.1194 0.9928
vn 0.0483 0.0565 0.9972
vn -0.0374 0.0604 0.9975
vn 0.0547 0.1215 0.9911
vn 0.0080 0.1053 0.9944
vn 0.0151 0.1534 0.9880
vn 0.1727 -0.3026 0.9373
vn -0.0215 0.1327 0.9909
vn 0.3034 -0.2310 0.9244
vn -0.4009 0.4538 0.7958
vn -0.4038 0.2426 0.8821
vn -0.1325 -0.2160 0.9674
vn 0.7329 0.4117 0.5416
vn -0.1987 -0.1616 0.9666
vn -0.5021 0.3932 0.7702
vn 0.0382 -0.2873 0.9571
vn 0.3337 0.9085 0.2513
vn 0.5388 -0.0793 0.8387
vn 0.5330 -0.1466 0.8333
vn -0.0132 0.4121 0.9110
vn 0.0250 -0.4545 0.8904
vn -0.0211 0.9994 0.0277
vn 0.7627 0.2301 0.6044
vn 0.8665 -0.4811 0.1333
vn -0.4145 0.7960 -0.4411
vn -0.9548 -0.2851 -0.0834
vn -0.9890 0.1027 -0.1063
vn -0.9844 0.0802 0.1564
vn -0.9516 -0.2508 0.1775
vn -0.9501 -0.2210 0.2202
vn -0.1317 -0.9008 0.4138
vn -0.1803 -0.9534 -0.2418
vn -0.1081 -0.9769 0.1845
vn -0.1407 0.9665 -0.2146
vn -0.2559 0.9656 -0.0463
vn -0.3948 0.8021 -0.4481
vn 0.0219 0.0785 -0.9967
vn -0.0426 -0.8572 -0.5131
vn -0.7214 0.1774 0.6694
vn -0.1117 0.3066 -0.9453
vn 0.2219 -0.0259 -0.9747
vn -0.0717 0.5056 -0.8598
vn -0.1947 -0.7916 -0.5792
vn -0.8969 0.4379 -0.0627
vn -0.8977 -0.3385 -0.2821
vn -0.2647 0.9317 -0.2487
vn -0.9932 0.0554 0.1021
vn -0.3584 -0.8635 -0.3548
vn -0.2337 0.9520 -0.1979
vn -0.1518 0.8984 -0.4121
vn 0.8556 -0.2201 -0.4685
vn -0.7313 -0.1187 -0.6716
vn -0.2848 0.9517 -0.1151
vn -0.4500 0.5736 0.6844
vn -0.7656 -0.3952 -0.5076
vn -0.0633 0.8974 -0.4367
vn -0.3505 0.4493 0.8218
vn 0.5239 -0.0221 0.8515
vn -0.0264 -0.8994 0.4363
vn 0.0053 -0.9677 -0.2522
vn -0.0664 -0.9740 0.2166
vn -0.2054 0.1210 0.9712
vn -0.8463 0.3019 -0.4390
vn -0.3809 0.8961 -0.2279
vn -0.9181 -0.2607 0.2985
vn -0.2553 -0.8563 0.4489
vn -0.3922 0.9194 0.0303
vn -0.2941 0.9027 -0.3139
vn -0.1098 0.9071 -0.4063
vn -0.8674 0.2274 0.4427
vn -0.5828 -0.5495 0.5987
vn -0.9434 0.0716 -0.3238
vn -0.0508 -0.2301 -0.9718
vn -0.9931 0.1162 0.0132
vn -0.9184 0.0778 -0.3880
vn -0.2620 0.9617 -0.0804
vn -0.2240 -0.9335 0.2801
vn -0.9825 0.1201 0.1423
vn -0.4327 0.8682 -0.2427
vn -0.3690 0.9190 -0.1384
vn -0.9820 0.1878 -0.0219
vn -0.3595 0.8162 -0.4523
vn -0.0928 0.9658 0.2421
vn -0.1711 -0.9765 0.1313
vn -0.9735 -0.2233 0.0499
vn -0.4201 0.9073 0.0185
vn -0.1524 0.9744 0.1655
vn 0.0169 0.8870 0.4615
vn -0.0377 0.6691 -0.7422
vn -0.8335 -0.0835 0.5462
vn -0.2219 -0.9560 0.1921
vn 0.0603 -0.4547 0.8886
vn -0.1848 -0.9798 0.0767
vn -0.9418 -0.2876 -0.1739
vn 0.0461 -0.8049 0.5916
vn -0.8728 -0.3757 0.3116
vn -0.3405 -0.9018 0.2661
vn -0.1915 -0.8680 0.4581
vn -0.4888 0.8353 -0.2516
vn -0.4489 0.8873 -0.1060
vn -0.7498 0.3201 0.5790
vn -0.4618 0.8294 0.3144
vn -0.1596 -0.9798 0.1205
vn -0.1873 -0.7342 0.6526
vn -0.8763 0.1728 0.4497
vn -0.3802 0.9156 0.1308
vn -0.3692 0.7790 0.5067
vn -0.1320 -0.9784 0.1592
vn -0.3991 0.7999 0.4481
vn -0.1709 -0.9834 0.0610
vn -0.5213 0.3156 0.7929
vn -0.1588 -0.9815 0.1067
vn -0.3960 -0.7245 0.5641
vn 0.3133 -0.0442 0.9486
vn 0.0256 0.9022 0.4306
vn -0.1905 -0.9796 0.0644
vn -0.9719 -0.2111 0.1039
vn -0.0218 -0.2002 0.9795
vn -0.0442 0.9345 0.3531
vn -0.6180 0.2757 0.7363
vn -0.1554 -0.9839 0.0881
vn 0.1504 0.4012 0.9035
vn -0.4441 0.8586 0.2563
vn -0.3182 0.3111 0.8955
vn -0.0534 -0.9283 0.3679
vn -0.3346 -0.7935 0.5084
vn -0.7752 -0.1286 0.6185
vn -0.3871 0.7592 0.5232
vn -0.1599 -0.9843 0.0743
vn -0.8383 0.2666 0.4756
vn 0.0338 0.8437 0.5358
vn -0.2342 -0.9668 0.1022
vn -0.8777 -0.2399 0.4148
vn -0.7753 -0.5863 -0.2349
vn -0.9936 0.0344 -0.1078
vn -0.9763 -0.0562 -0.2088
vn -0.9770 0.2134 0.0033
vn -0.9316 -0.2927 -0.2155
vn -0.9953 0.0363 0.0902
vn -0.8314 0.3926 0.3932
vn -0.9262 0.3101 0.2145
vn 0.6058 0.4558 0.6521
vn -0.1078 0.6286 0.7702
vn 0.3450 -0.4496 -0.8239
vn -0.9452 -0.2513 0.2085
vn 0.9791 0.1662 0.1176
vn 0.9294 0.2277 0.2903
vn -0.9139 -0.2516 -0.3187
vn -0.4691 -0.2008 0.8600
vn -0.9232 -0.2995 0.2408
vn 0.6389 0.5562 0.5314
vn 0.0959 -0.5723 -0.8144
vn 0.9883 0.0973 0.1171
vn -0.9352 -0.3137 0.1644
vn 0.9438 0.3219 0.0753
vn 0.9273 0.2766 0.2523
vn -0.9010 -0.2681 -0.3410
vn -0.3854 -0.3268 0.8629
vn -0.6885 -0.1085 -0.7171
vn 0.6313 0.2511 0.7337
vn 0.1231 0.0515 0.9911
vn 0.7601 -0.2533 -0.5984
vn -0.6755 -0.3772 -0.6336
vn 0.2246 -0.0246 -0.9741
vn -0.9605 -0.1834 -0.2093
vn 0.9435 0.3223 0.0774
vn 0.9017 0.3364 0.2717
vn -0.9124 -0.2363 -0.3341
vn -0.9838 -0.1677 -0.0636
vn 0.1790 0.1290 -0.9754
vn 0.6677 0.0603 0.7420
vn 0.0370 -0.2410 0.9698
vn 0.6332 0.2696 -0.7255
vn 0.2816 -0.9558 0.0848
vn 0.2636 -0.9583 0.1103
vn 0.2695 -0.9549 0.1243
vn 0.2784 -0.9571 0.0804
vn 0.2789 -0.9541 0.1089
vn 0.2661 -0.9559 0.1241
vn 0.7299 0.3927 0.5595
vn 0.8367 0.4044 0.3692
vn 0.6379 0.1224 -0.7603
vn -0.6677 -0.2300 -0.7080
vn -0.6829 -0.2051 -0.7012
vn 0.6433 0.1240 -0.7555
vn -0.1049 0.2382 0.9655
vn 0.6334 0.3848 0.6713
vn -0.5113 0.1404 0.8478
vn -0.9189 -0.1885 -0.3466
vn 0.8929 0.3722 0.2531
vn 0.9293 0.3617 0.0752
vn -0.9866 -0.1203 -0.1106
vn 0.2288 -0.0388 -0.9727
vn -0.4750 0.0163 0.8798
vn -0.0829 0.1387 0.9869
vn -0.4801 0.7691 0.4219
vn 0.2811 -0.9574 0.0660
vn -0.2692 0.8398 0.4715
vn 0.2851 -0.9562 0.0656
vn -0.9924 0.0867 -0.0872
vn -0.8904 -0.1452 -0.4313
vn -0.9869 -0.1456 -0.0691
vn -0.9347 0.2644 -0.2376
vn -0.7155 -0.5008 0.4872
vn -0.5342 0.7796 -0.3269
vn -0.9866 -0.1493 -0.0659
vn -0.3312 0.8636 -0.3801
vn 0.9287 -0.1662 0.3316
vn 0.4997 0.1869 -0.8458
vn 0.1780 -0.5899 0.7876
vn -0.9889 -0.1319 -0.0684
vn 0.0289 0.5032 -0.8637
vn 0.5949 0.4380 -0.6739
vn 0.9891 -0.1177 -0.0881
vn 0.0217 -0.7376 0.6749
vn 0.3750 0.7407 -0.5574
vn 0.8928 -0.2517 0.3735
vn -0.9836 0.0155 -0.1796
vn 0.9876 0.1502 0.0459
vn -0.5895 -0.5463 0.5951
vn 0.0222 0.2027 -0.9790
vn -0.9091 0.0420 -0.4145
vn 0.9999 -0.0023 -0.0146
vn 0.1601 -0.6497 -0.7431
vn 0.1110 -0.6352 -0.7643
vn 0.1305 -0.5858 -0.7999
vn 0.1628 -0.5970 -0.7856
vn 0.9784 -0.0426 0.2024
vn -0.9701 -0.2318 0.0714
vn -0.0329 0.7626 -0.6460
vn -0.9178 0.2098 -0.3370
vn -0.9342 0.2677 -0.2357
vn -0.0480 0.7947 -0.6051
vn -0.4674 -0.6451 0.6045
vn 0.8821 0.0414 0.4693
vn 0.9560 0.2325 0.1790
vn -0.9955 0.0668 0.0677
vn 0.1229 -0.6900 0.7133
vn 0.3745 0.7869 -0.4904
vn 0.1328 -0.6569 0.7422
vn -0.4983 -0.6117 0.6144
vn 0.0007 -0.0091 1.0000
vn 0.0975 -0.6605 -0.7445
vn -0.4182 -0.0243 0.9080
vn 0.1585 -0.6677 -0.7274
vn 0.4457 0.5205 -0.7283
vn 0.2527 -0.8777 0.4071
vn -0.9732 -0.1855 -0.1356
vn 0.9967 0.0808 -0.0052
vn 0.9447 -0.2168 0.2463
vn -0.5049 -0.8299 0.2374
vn -0.0141 0.5459 -0.8377
vn -0.9105 0.1183 -0.3963
vn -0.3782 0.2350 -0.8954
vn -0.3087 -0.7355 -0.6031
vn -0.3474 0.4746 -0.8088
vn -0.2433 0.6961 -0.6755
vn -0.2592 -0.2192 -0.9406
vn -0.5373 0.1286 -0.8335
vn -0.9565 0.2886 -0.0421
vn -0.9328 0.3502 0.0857
vn -0.9964 0.0694 -0.0493
vn -0.8922 0.4231 0.1578
vn 0.5854 0.8106 0.0178
vn -0.7664 0.5724 -0.2915
vn -0.8081 -0.5808 0.0977
vn -0.5124 0.8518 -0.1088
vn 0.2485 0.9631 0.1036
vn -0.9152 0.2692 -0.2998
vn -0.9446 -0.2968 -0.1400
vn -0.2682 -0.0279 -0.9630
vn 0.0678 0.1218 0.9902
vn -0.0201 0.0928 0.9955
vn 0.0405 0.1056 0.9936
vn 0.0031 0.0709 0.9975
vn 0.0099 0.1227 0.9924
vn -0.0281 0.0585 0.9979
vn 0.0515 0.0587 0.9969
vn -0.0363 0.1288 0.9910
vn 0.0126 0.1115 0.9937
vn -0.0014 0.1435 0.9896
vn -0.1575 -0.3016 0.9403
vn 0.0404 0.1409 0.9892
vn -0.2883 -0.2294 0.9297
vn 0.4181 0.4616 0.7823
vn 0.4215 0.2464 0.8727
vn 0.1498 -0.2159 0.9649
vn -0.7229 0.4244 0.5452
vn 0.2166 -0.1612 0.9628
vn 0.5169 0.4040 0.7547
vn -0.0227 -0.2869 0.9577
vn -0.3048 0.9165 0.2590
vn -0.5203 -0.0661 0.8514
vn -0.5164 -0.1335 0.8459
vn 0.0452 0.4114 0.9103
vn -0.0150 -0.4540 0.8909
vn 0.0467 0.9985 0.0269
vn -0.7421 0.2488 0.6224
vn 0.8946 -0.3724 0.2471
vn 0.9984 0.0115 0.0546
vn 0.7249 -0.6611 0.1935
vn 0.0929 -0.8106 -0.5782
vn 0.0243 -0.5783 -0.8155
vn 0.9415 0.3268 0.0828
vn 0.6973 0.0655 0.7138
vn 0.3481 -0.4830 0.8035
vn -0.6200 -0.3870 -0.6826
vn -0.4331 -0.1233 -0.8929
vn 0.8021 0.3259 0.5005
vn 0.6067 0.0548 0.7931
vn -0.3993 -0.7821 0.4785
vn -0.6403 -0.2401 -0.7296
vn -0.3682 0.0492 -0.9285
vn 0.4621 0.4916 0.7381
vn 0.2575 0.2563 0.9317
vn -0.9984 -0.0115 -0.0546
vn -0.7669 0.0775 -0.6371
vn -0.4441 0.7501 -0.4900
vn -0.7249 0.6611 -0.1935
vn -0.6824 0.5016 -0.5317
vn -0.6998 0.2169 -0.6806
vn -0.8946 0.3724 -0.2471
vn -0.8597 0.1207 -0.4963
vn -0.8856 -0.0140 -0.4642
vn -0.7100 0.5135 0.4820
vn -0.7703 0.2666 0.5792
vn -0.1599 0.1868 0.9693
vn -0.0243 0.5782 0.8155
vn 0.2688 0.3876 0.8818
vn 0.4318 0.3610 0.8266
vn -0.0929 0.8106 0.5782
vn 0.2702 0.7269 0.6314
vn 0.2352 0.9108 0.3395
vn -0.3481 0.4830 -0.8035
vn -0.4707 0.1741 -0.8649
vn -0.5932 0.1001 -0.7988
vn -0.6973 -0.0655 -0.7138
vn -0.7079 -0.1573 -0.6886
vn -0.7860 -0.1650 -0.5958
vn -0.9415 -0.3268 -0.0828
vn -0.6261 -0.4888 0.6075
vn -0.0621 -0.1188 0.9910
vn 0.4331 0.1233 0.8929
vn 0.5375 0.1372 0.8321
vn 0.5469 0.2287 0.8054
vn 0.6200 0.3870 0.6826
vn 0.6959 0.4500 0.5596
vn 0.6060 0.7086 0.3615
vn -0.6067 -0.0547 -0.7931
vn -0.5374 -0.1372 -0.8321
vn -0.5469 -0.2287 -0.8054
vn -0.8021 -0.3259 -0.5005
vn -0.6959 -0.4500 -0.5596
vn -0.6060 -0.7086 -0.3615
vn 0.3682 -0.0492 0.9285
vn 0.4707 -0.1741 0.8649
vn 0.5932 -0.1001 0.7988
vn 0.6403 0.2401 0.7296
vn 0.7079 0.1573 0.6886
vn 0.7860 0.1650 0.5958
vn 0.3993 0.7821 -0.4785
vn 0.6261 0.4888 -0.6075
vn 0.0621 0.1188 -0.9910
vn -0.2576 -0.2563 -0.9317
vn -0.2688 -0.3876 -0.8818
vn -0.4318 -0.3610 -0.8266
vn -0.4621 -0.4916 -0.7381
vn -0.2702 -0.7269 -0.6314
vn -0.2352 -0.9108 -0.3395
vn 0.4441 -0.7501 0.4900
vn 0.6824 -0.5016 0.5317
vn 0.6998 -0.2169 0.6806
vn 0.1599 -0.1868 -0.9693
vn 0.7703 -0.2666 -0.5792
vn 0.7100 -0.5135 -0.4820
vn 0.7669 -0.0776 0.6371
vn 0.8597 -0.1207 0.4963
vn 0.8856 0.0141 0.4642
vn -0.8974 -0.3501 0.2685
vn -0.9963 0.0364 0.0785
vn -0.7363 -0.6429 0.2110
vn -0.1269 -0.8079 -0.5756
vn -0.0582 -0.5772 -0.8145
vn -0.9308 0.3501 0.1052
vn -0.6781 0.0826 0.7303
vn -0.3406 -0.4744 0.8117
vn 0.5936 -0.4021 -0.6971
vn 0.4084 -0.1338 -0.9029
vn -0.7815 0.3456 0.5194
vn -0.5859 0.0696 0.8074
vn 0.3910 -0.7919 0.4690
vn 0.6165 -0.2558 -0.7446
vn 0.3469 0.0403 -0.9370
vn -0.4319 0.5028 0.7488
vn -0.2287 0.2623 0.9375
vn 0.9963 -0.0364 -0.0785
vn 0.7531 0.0586 -0.6553
vn 0.4508 0.7390 -0.5007
vn 0.7363 0.6429 -0.2110
vn 0.6817 0.4846 -0.5481
vn 0.6885 0.1996 -0.6973
vn 0.8974 0.3501 -0.2685
vn 0.8504 0.0994 -0.5167
vn 0.8736 -0.0360 -0.4853
vn 0.7339 0.4955 0.4647
vn 0.7904 0.2472 0.5605
vn 0.1877 0.1825 0.9651
vn 0.0583 0.5772 0.8145
vn -0.2379 0.3939 0.8878
vn -0.4028 0.3714 0.8366
vn 0.1269 0.8078 0.5756
vn -0.2368 0.7332 0.6374
vn -0.2042 0.9162 0.3447
vn 0.3407 0.4744 -0.8117
vn 0.4541 0.1626 -0.8760
vn 0.5762 0.0855 -0.8128
vn 0.6781 -0.0826 -0.7303
vn 0.6871 -0.1747 -0.7053
vn 0.7672 -0.1843 -0.6144
vn 0.9308 -0.3501 -0.1052
vn 0.6281 -0.5045 0.5925
vn 0.0828 -0.1207 0.9892
vn -0.4084 0.1338 0.9029
vn -0.5138 0.1503 0.8446
vn -0.5216 0.2420 0.8182
vn -0.5936 0.4021 0.6971
vn -0.6709 0.4670 0.5760
vn -0.5793 0.7234 0.3757
vn 0.5859 -0.0696 -0.8074
vn 0.5138 -0.1503 -0.8446
vn 0.5216 -0.2421 -0.8182
vn 0.7815 -0.3456 -0.5194
vn 0.6709 -0.4670 -0.5760
vn 0.5793 -0.7234 -0.3757
vn -0.3469 -0.0402 0.9370
vn -0.4541 -0.1626 0.8760
vn -0.5762 -0.0855 0.8128
vn -0.6165 0.2558 0.7446
vn -0.6871 0.1747 0.7053
vn -0.7672 0.1843 0.6144
vn -0.3910 0.7919 -0.4690
vn -0.6281 0.5045 -0.5924
vn -0.0829 0.1207 -0.9892
vn 0.2287 -0.2624 -0.9375
vn 0.2379 -0.3939 -0.8878
vn 0.4028 -0.3714 -0.8365
vn 0.4319 -0.5028 -0.7488
vn 0.2368 -0.7332 -0.6374
vn 0.2042 -0.9162 -0.3447
vn -0.4508 -0.7390 0.5007
vn -0.6817 -0.4846 0.5481
vn -0.6885 -0.1996 0.6973
vn -0.1877 -0.1825 -0.9651
vn -0.7904 -0.2472 -0.5605
vn -0.7339 -0.4955 -0.4647
vn -0.7531 -0.0586 0.6553
vn -0.8504 -0.0994 0.5167
vn -0.8736 0.0360 0.4853
vt 0.833374 0.494548
vt 0.893919 0.512741
vt 0.908415 0.468160
vt 0.848637 0.467455
vt 0.567859 0.867914
vt 0.639317 0.828812
vt 0.620915 0.894044
vt 0.556155 0.927906
vt 0.812683 0.509803
vt 0.774909 0.642712
vt 0.751394 0.643294
vt 0.751725 0.493743
vt 0.828812 0.793372
vt 0.751727 0.811870
vt 0.672932 0.807420
vt 0.672336 0.642732
vt 0.672998 0.503429
vt 0.598676 0.643182
vt 0.594201 0.530171
vt 0.560191 0.672195
vt 0.619753 0.672998
vt 0.599703 0.594201
vt 0.569702 0.558226
vt 0.580250 0.833374
vt 0.635423 0.812683
vt 0.637090 0.751725
vt 0.569078 0.759035
vt 0.500000 0.859251
vt 0.500000 0.750726
vt 0.569078 0.758996
vt 0.500000 0.657595
vt 0.560191 0.671923
vt 0.604420 0.951058
vt 0.545714 0.976119
vt 0.604420 0.548422
vt 0.626365 0.643481
vt 0.688416 0.643970
vt 0.666902 0.547256
vt 0.500000 0.917421
vt 0.563590 0.893919
vt 0.639317 0.793372
vt 0.659328 0.642712
vt 0.676970 0.643370
vt 0.671449 0.761101
vt 0.555994 0.632181
vt 0.545714 0.747180
vt 0.604420 0.735145
vt 0.572975 0.538591
vt 0.666902 0.715601
vt 0.500000 0.969030
vt 0.572975 0.947229
vt 0.501290 0.830086
vt 0.457158 0.830118
vt 0.460328 0.806630
vt 0.500288 0.803578
vt 0.499838 0.512886
vt 0.460007 0.507514
vt 0.481582 0.413128
vt 0.510774 0.417065
vt 0.500000 0.559830
vt 0.556447 0.575135
vt 0.579931 0.796381
vt 0.599703 0.530171
vt 0.637090 0.643182
vt 0.659115 0.643738
vt 0.643940 0.535244
vt 0.564556 0.492909
vt 0.500000 0.477524
vt 0.500000 0.432743
vt 0.566016 0.447361
vt 0.569702 0.518348
vt 0.616981 0.429733
vt 0.594994 0.421068
vt 0.612448 0.796381
vt 0.637526 0.771615
vt 0.500000 0.371229
vt 0.561082 0.382998
vt 0.450625 0.491920
vt 0.495971 0.498202
vt 0.507939 0.406303
vt 0.474705 0.401699
vt 0.591615 0.535244
vt 0.575831 0.433451
vt 0.407144 0.499901
vt 0.406490 0.640437
vt 0.358675 0.605643
vt 0.363238 0.556600
vt 0.578790 0.420824
vt 0.621227 0.407144
vt 0.601979 0.363238
vt 0.551080 0.357545
vt 0.500000 0.657756
vt 0.500000 0.571782
vt 0.667216 0.508652
vt 0.621227 0.499901
vt 0.632756 0.407548
vt 0.666461 0.413961
vt 0.556577 0.771615
vt 0.637090 0.751727
vt 0.260484 0.580516
vt 0.278839 0.520364
vt 0.582070 0.278839
vt 0.540875 0.268345
vt 0.619753 0.672932
vt 0.500000 0.307117
vt 0.551080 0.314473
vt 0.500000 0.983839
vt 0.393435 0.816867
vt 0.325561 0.763148
vt 0.671449 0.517077
vt 0.635423 0.509803
vt 0.642381 0.470278
vt 0.671266 0.470798
vt 0.988807 0.740196
vt 1.002924 0.661469
vt 1.015365 0.669173
vt 1.001496 0.721513
vt 0.500000 0.531683
vt 0.500000 0.631036
vt 0.249130 0.712570
vt 0.191059 0.679456
vt 0.198981 0.567653
vt 0.945839 0.547256
vt 0.886123 0.529161
vt 0.904522 0.470747
vt 0.963512 0.471464
vt 0.500000 0.238897
vt 0.540875 0.239236
vt 0.564556 0.495971
vt 0.612448 0.579931
vt 0.628268 0.501290
vt 0.631115 0.457158
vt 0.168698 0.648799
vt 0.177283 0.553376
vt 0.539817 0.181283
vt 0.500000 0.184290
vt 0.500000 0.144817
vt 0.539817 0.140934
vt 0.580006 0.205473
vt 0.539817 0.196322
vt 0.205473 0.476864
vt 0.621491 0.393435
vt 0.538703 0.608225
vt 0.500000 0.615960
vt 0.500000 0.567098
vt 0.526605 0.560962
vt 0.566016 0.450625
vt 0.149293 0.452102
vt 0.133162 0.541160
vt 0.103583 0.505809
vt 0.123733 0.441345
vt 0.539531 0.141037
vt 0.579447 0.149293
vt 0.562090 0.123733
vt 0.530633 0.116366
vt 0.500000 0.385014
vt 0.500000 0.353218
vt 0.586057 0.174337
vt 0.542919 0.165879
vt 0.174337 0.464471
vt 0.086614 0.427976
vt 0.065909 0.448336
vt 0.053210 0.428901
vt 0.071388 0.423606
vt 0.515797 0.085531
vt 0.531484 0.086614
vt 0.523242 0.071388
vt 0.510720 0.071544
vt 0.500000 0.266808
vt 0.601979 0.325561
vt 0.582070 0.249130
vt 0.108290 0.599988
vt 0.073849 0.556649
vt 0.580006 0.679456
vt 0.539817 0.690304
vt 0.539817 0.657159
vt 0.579599 0.648799
vt 0.500000 0.199929
vt 0.513331 0.045311
vt 0.500000 0.046647
vt 0.500000 0.069896
vt 0.051602 0.475706
vt 0.038205 0.462176
vt 0.038356 0.442272
vt 0.580006 0.191059
vt 0.577833 0.599988
vt 0.554232 0.556649
vt 0.500000 0.147087
vt 0.500000 0.124516
vt 0.530339 0.475706
vt 0.515210 0.477146
vt 0.513246 0.460736
vt 0.522445 0.462176
vt 0.500000 0.170521
vt 0.515546 0.457928
vt 0.507613 0.457080
vt 0.506877 0.445401
vt 0.514439 0.446199
vt 0.500000 0.089031
vt 0.528336 0.053210
vt 0.620841 0.601238
vt 0.618568 0.607555
vt 0.613078 0.604170
vt 0.614718 0.599612
vt 0.500000 0.479371
vt 0.500000 0.460095
vt 0.513331 0.424258
vt 0.512541 0.440917
vt 0.500000 0.440864
vt 0.500000 0.422187
vt 0.500000 0.664242
vt 0.576432 0.505809
vt 0.539481 0.507406
vt 0.547321 0.467354
vt 0.500000 0.513551
vt 0.519044 0.508271
vt 0.579599 0.168698
vt 0.538703 0.096221
vt 0.577833 0.108290
vt 0.520322 0.097153
vt 0.500000 0.106427
vt 0.541975 0.104341
vt 0.078394 0.467354
vt 0.104341 0.437145
vt 0.073220 0.507406
vt 0.590300 0.643738
vt 0.499630 0.641384
vt 0.459655 0.640419
vt 0.417546 0.774144
vt 0.414448 0.641253
vt 0.423095 0.508652
vt 0.621491 0.816867
vt 0.648114 0.640437
vt 0.669097 0.641253
vt 0.644267 0.774144
vt 0.578790 0.496630
vt 0.601625 0.405151
vt 0.649402 0.433451
vt 0.651726 0.367843
vt 0.620780 0.366797
vt 0.454529 0.413961
vt 0.467814 0.368189
vt 0.488225 0.366596
vt 0.561691 0.421068
vt 0.537425 0.365401
vt 0.507200 0.363509
vt 0.481273 0.364028
vt 0.510983 0.366114
vt 0.635806 0.367147
vt 0.669092 0.368189
vt 0.420824 0.496630
vt 0.452865 0.405151
vt 0.558226 0.518348
vt 0.484328 0.324872
vt 0.502799 0.322553
vt 0.547406 0.321655
vt 0.519920 0.320969
vt 0.496410 0.322232
vt 0.523434 0.321439
vt 0.639292 0.324944
vt 0.675657 0.324872
vt 0.550036 0.367843
vt 0.558926 0.322330
vt 0.465216 0.366023
vt 0.604868 0.366023
vt 0.599660 0.365401
vt 0.621651 0.293283
vt 0.658462 0.293469
vt 0.659368 0.261742
vt 0.621257 0.261665
vt 0.501495 0.293600
vt 0.482345 0.307625
vt 0.480362 0.262732
vt 0.500191 0.261781
vt 0.519246 0.292376
vt 0.547742 0.292993
vt 0.548078 0.261464
vt 0.518571 0.260916
vt 0.494871 0.293528
vt 0.493332 0.261956
vt 0.522889 0.292587
vt 0.522344 0.260869
vt 0.451756 0.288897
vt 0.449773 0.262732
vt 0.656778 0.322330
vt 0.622394 0.322035
vt 0.481902 0.324350
vt 0.605664 0.324350
vt 0.599057 0.321655
vt 0.595403 0.548078
vt 0.621257 0.561263
vt 0.645824 0.523009
vt 0.590945 0.518571
vt 0.639859 0.470735
vt 0.648324 0.498544
vt 0.685407 0.500191
vt 0.686261 0.480362
vt 0.592251 0.493332
vt 0.659368 0.560446
vt 0.683143 0.522344
vt 0.596433 0.477757
vt 0.479829 0.307317
vt 0.477757 0.262636
vt 0.447168 0.262636
vt 0.449241 0.288588
vt 0.596679 0.292993
vt 0.595403 0.261464
vt 0.559686 0.293469
vt 0.560446 0.261742
vt 0.603589 0.307317
vt 0.640355 0.307779
vt 0.679739 0.307625
vt 0.677932 0.288897
vt 0.639680 0.289050
vt 0.639859 0.262967
vt 0.679465 0.262732
vt 0.604354 0.288588
vt 0.603287 0.262636
vt 0.679739 0.482345
vt 0.640355 0.473048
vt 0.639680 0.442459
vt 0.677932 0.451756
vt 0.679465 0.449773
vt 0.639859 0.440146
vt 0.603589 0.479829
vt 0.604354 0.449241
vt 0.603287 0.447168
vt 0.841501 0.761101
vt 0.796910 0.643370
vt 0.906455 0.644155
vt 0.894416 0.742499
vt 0.957194 0.643970
vt 0.829265 0.517077
vt 0.940741 0.715601
vt 0.671449 0.841501
vt 0.669190 0.894416
vt 0.849398 0.470798
vt 0.666902 0.940741
vt 0.909364 0.402088
vt 0.855378 0.389954
vt 0.592313 0.470184
vt 0.617524 0.471308
vt 0.621192 0.417417
vt 0.598226 0.414426
vt 0.598146 0.467455
vt 0.603540 0.389954
vt 0.643835 0.389418
vt 0.855424 0.393127
vt 0.905341 0.403681
vt 0.667620 0.471464
vt 0.947229 0.538591
vt 0.963044 0.470184
vt 0.580250 0.494548
vt 0.595712 0.312254
vt 0.621272 0.312916
vt 0.622837 0.264476
vt 0.597277 0.263453
vt 0.852894 0.313492
vt 0.849695 0.260671
vt 0.818572 0.260902
vt 0.821566 0.286829
vt 0.893654 0.314609
vt 0.853541 0.316407
vt 0.850246 0.263617
vt 0.890422 0.263754
vt 0.896415 0.312211
vt 0.936226 0.312254
vt 0.933075 0.263453
vt 0.893263 0.261490
vt 0.670148 0.393127
vt 0.666826 0.415674
vt 0.958612 0.415674
vt 0.958434 0.414426
vt 0.649700 0.837975
vt 0.635627 0.887710
vt 0.686058 0.890422
vt 0.687133 0.850246
vt 0.592375 0.849695
vt 0.589648 0.893263
vt 0.597277 0.933075
vt 0.622837 0.940554
vt 0.673628 0.933416
vt 0.822213 0.289744
vt 0.819123 0.263848
vt 0.672063 0.313364
vt 0.673628 0.264581
vt 0.936602 0.313364
vt 0.933416 0.264581
vt 0.941647 0.364922
vt 0.899640 0.363406
vt 0.623001 0.364960
vt 0.665562 0.364922
vt 0.668659 0.362549
vt 0.644119 0.361871
vt 0.647700 0.316485
vt 0.685132 0.316407
vt 0.859879 0.359936
vt 0.902447 0.361457
vt 0.941330 0.363919
vt 0.860378 0.362549
vt 0.606538 0.359936
vt 0.590374 0.313492
vt 0.601582 0.363919
vt 0.646474 0.289822
vt 0.601626 0.286829
vt 0.603191 0.260902
vt 0.648039 0.263334
vt 0.675760 0.289744
vt 0.677325 0.263848
vt 0.647700 0.841274
vt 0.590374 0.852894
vt 0.601626 0.821566
vt 0.646474 0.809945
vt 0.648039 0.806852
vt 0.603191 0.818572
vt 0.685132 0.853541
vt 0.675760 0.822213
vt 0.677325 0.819123
vt 0.500000 0.668378
vt 0.500000 0.724779
vt 0.517225 0.721513
vt 0.520785 0.669173
vt 0.528698 1.002924
vt 0.500000 1.014901
vt 0.500000 1.025182
vt 0.520785 1.015365
vt 0.500000 0.744181
vt 0.519989 0.740196
vt 0.519989 0.988807
vt 0.500000 0.995348
vt 0.500000 0.660499
vt 0.528698 0.661469
vt 0.154177 0.616909
vt 0.166410 0.570048
vt 0.135838 0.608740
vt 0.149154 0.567675
vt 0.147623 0.572395
vt 0.137518 0.603560
vt 0.583783 0.154177
vt 0.583848 0.135838
vt 0.600568 0.131366
vt 0.597073 0.144428
vt 0.144166 0.612314
vt 0.141084 0.620214
vt 0.132632 0.614576
vt 0.134671 0.609983
vt 0.153028 0.593819
vt 0.141399 0.592146
vt 0.619182 0.132632
vt 0.614588 0.141084
vt 0.606252 0.140479
vt 0.610351 0.130579
vt 0.138199 0.601250
vt 0.148213 0.603179
vt 0.602487 0.570048
vt 0.583783 0.616909
vt 0.597073 0.624463
vt 0.606252 0.625520
vt 0.614588 0.620214
vt 0.620822 0.612314
vt 0.623703 0.603179
vt 0.620639 0.593819
vt 0.604695 0.577238
vt 0.601269 0.572395
vt 0.603531 0.567675
vt 0.609313 0.614171
vt 0.615687 0.610750
vt 0.619182 0.614576
vt 0.610351 0.619358
vt 0.602434 0.613212
vt 0.600568 0.617961
vt 0.626402 0.601250
vt 0.623276 0.609983
vt 0.618527 0.594500
vt 0.623272 0.592146
vt 0.590602 0.606787
vt 0.583848 0.608740
vt 0.592903 0.603615
vt 0.603070 0.582298
vt 0.613048 0.594751
vt 0.610999 0.606475
vt 0.606401 0.608943
vt 0.601438 0.608251
vt 0.586331 0.603560
vt 0.600598 0.578805
vt 0.589822 0.601288
vt 0.148133 0.578805
vt 0.140843 0.601288
vt 0.522445 0.038205
vt 0.513246 0.032036
vt 0.507613 0.025182
vt 0.515546 0.030102
vt 0.521458 0.442272
vt 0.528336 0.428901
vt 0.500000 0.456702
vt 0.500000 0.445370
vt 0.500000 0.031689
vt 0.512541 0.032373
vt 0.506877 0.025742
vt 0.500000 0.025886
vt 0.500000 0.031337
vt 0.500000 0.025479
vt 0.030102 0.457928
vt 0.030515 0.446199
vt 0.432141 0.867914
vt 0.443845 0.927906
vt 0.379085 0.894044
vt 0.360683 0.828812
vt 0.439809 0.672195
vt 0.430298 0.558226
vt 0.400297 0.594201
vt 0.380247 0.672998
vt 0.419750 0.833374
vt 0.430922 0.759035
vt 0.362910 0.751725
vt 0.364577 0.812683
vt 0.430922 0.758996
vt 0.439809 0.671923
vt 0.454286 0.976119
vt 0.395580 0.951058
vt 0.395580 0.548422
vt 0.333098 0.547256
vt 0.311584 0.643970
vt 0.373635 0.643481
vt 0.436410 0.893919
vt 0.360683 0.793372
vt 0.328551 0.761101
vt 0.323030 0.643370
vt 0.340672 0.642712
vt 0.444006 0.632181
vt 0.395580 0.735145
vt 0.454286 0.747180
vt 0.427025 0.538591
vt 0.333098 0.715601
vt 0.427025 0.947229
vt 0.443553 0.575135
vt 0.400297 0.530171
vt 0.356060 0.535244
vt 0.340885 0.643738
vt 0.362910 0.643182
vt 0.435444 0.492909
vt 0.433984 0.447361
vt 0.430298 0.518348
vt 0.405006 0.421068
vt 0.383019 0.429733
vt 0.362474 0.771615
vt 0.387552 0.796381
vt 0.438918 0.382998
vt 0.421210 0.420824
vt 0.448920 0.357545
vt 0.398021 0.363238
vt 0.378773 0.407144
vt 0.332784 0.508652
vt 0.333539 0.413961
vt 0.367244 0.407548
vt 0.378773 0.499901
vt 0.362910 0.751727
vt 0.459125 0.268345
vt 0.417930 0.278839
vt 0.380247 0.672932
vt 0.448920 0.314473
vt 0.328551 0.517077
vt 0.328734 0.470798
vt 0.357619 0.470278
vt 0.364577 0.509803
vt 0.459125 0.239236
vt 0.435444 0.495971
vt 0.387552 0.579931
vt 0.371732 0.501290
vt 0.368885 0.457158
vt 0.460183 0.181283
vt 0.460183 0.140934
vt 0.460183 0.196322
vt 0.419994 0.205473
vt 0.378509 0.393435
vt 0.461297 0.608225
vt 0.473395 0.560962
vt 0.433984 0.450625
vt 0.460469 0.141037
vt 0.469367 0.116366
vt 0.437911 0.123733
vt 0.420553 0.149293
vt 0.457081 0.165879
vt 0.413943 0.174337
vt 0.484203 0.085531
vt 0.489280 0.071544
vt 0.476758 0.071388
vt 0.468516 0.086614
vt 0.398021 0.325561
vt 0.417930 0.249130
vt 0.419994 0.679456
vt 0.420401 0.648799
vt 0.460183 0.657159
vt 0.460183 0.690304
vt 0.486669 0.045311
vt 0.419994 0.191059
vt 0.422167 0.599988
vt 0.445768 0.556649
vt 0.469661 0.475706
vt 0.477555 0.462176
vt 0.486754 0.460736
vt 0.484790 0.477146
vt 0.484454 0.457928
vt 0.485561 0.446199
vt 0.493123 0.445401
vt 0.492387 0.457080
vt 0.471665 0.053210
vt 0.379159 0.601238
vt 0.385282 0.599612
vt 0.386922 0.604170
vt 0.381432 0.607555
vt 0.486669 0.424258
vt 0.487459 0.440917
vt 0.423568 0.505809
vt 0.452679 0.467354
vt 0.460520 0.507406
vt 0.480956 0.508271
vt 0.420401 0.168698
vt 0.422167 0.108290
vt 0.461297 0.096221
vt 0.479678 0.097153
vt 0.458025 0.104341
vt 0.378509 0.816867
vt 0.355733 0.774144
vt 0.330903 0.641253
vt 0.351886 0.640437
vt 0.398375 0.405151
vt 0.421210 0.496630
vt 0.379220 0.366797
vt 0.348274 0.367843
vt 0.350598 0.433451
vt 0.330908 0.368189
vt 0.364194 0.367147
vt 0.324343 0.324872
vt 0.360708 0.324944
vt 0.395132 0.366023
vt 0.400340 0.365401
vt 0.378349 0.293283
vt 0.378743 0.261665
vt 0.340632 0.261742
vt 0.341538 0.293469
vt 0.377606 0.322035
vt 0.343222 0.322330
vt 0.394336 0.324350
vt 0.400943 0.321655
vt 0.404597 0.548078
vt 0.409055 0.518571
vt 0.354176 0.523009
vt 0.378743 0.561263
vt 0.360141 0.470735
vt 0.313739 0.480362
vt 0.314593 0.500191
vt 0.351676 0.498544
vt 0.407749 0.493332
vt 0.316857 0.522344
vt 0.340632 0.560446
vt 0.403567 0.477757
vt 0.403321 0.292993
vt 0.404597 0.261464
vt 0.359645 0.307779
vt 0.396411 0.307317
vt 0.320262 0.307625
vt 0.322068 0.288897
vt 0.320535 0.262732
vt 0.360141 0.262967
vt 0.360320 0.289050
vt 0.396713 0.262636
vt 0.395646 0.288588
vt 0.320262 0.482345
vt 0.322068 0.451756
vt 0.360320 0.442459
vt 0.359645 0.473048
vt 0.360141 0.440146
vt 0.320535 0.449773
vt 0.395646 0.449241
vt 0.396411 0.479829
vt 0.396713 0.447168
vt 0.330810 0.894416
vt 0.328551 0.841501
vt 0.333098 0.940741
vt 0.407688 0.470184
vt 0.401774 0.414426
vt 0.378808 0.417417
vt 0.382476 0.471308
vt 0.356165 0.389418
vt 0.396460 0.389954
vt 0.401854 0.467455
vt 0.332380 0.471464
vt 0.419750 0.494548
vt 0.404289 0.312254
vt 0.402723 0.263453
vt 0.377163 0.264476
vt 0.378728 0.312916
vt 0.329852 0.393127
vt 0.333174 0.415674
vt 0.350300 0.837975
vt 0.312867 0.850246
vt 0.313942 0.890422
vt 0.364373 0.887710
vt 0.410353 0.893263
vt 0.407625 0.849695
vt 0.377163 0.940554
vt 0.402723 0.933075
vt 0.326372 0.933416
vt 0.326372 0.264581
vt 0.327937 0.313364
vt 0.376999 0.364960
vt 0.334438 0.364922
vt 0.331341 0.362549
vt 0.314868 0.316407
vt 0.352300 0.316485
vt 0.355881 0.361871
vt 0.409626 0.313492
vt 0.393462 0.359936
vt 0.398418 0.363919
vt 0.353526 0.289822
vt 0.351961 0.263334
vt 0.396809 0.260902
vt 0.398374 0.286829
vt 0.324240 0.289744
vt 0.322675 0.263848
vt 0.352300 0.841274
vt 0.353526 0.809945
vt 0.398374 0.821566
vt 0.409626 0.852894
vt 0.396809 0.818572
vt 0.351961 0.806852
vt 0.314868 0.853541
vt 0.324240 0.822213
vt 0.322675 0.819123
vt 0.479215 0.669173
vt 0.482775 0.721513
vt 0.471302 1.002924
vt 0.479215 1.015365
vt 0.480011 0.740196
vt 0.480011 0.988807
vt 0.471302 0.661469
vt 0.416217 0.154177
vt 0.402927 0.144428
vt 0.399432 0.131366
vt 0.416152 0.135838
vt 0.380819 0.132632
vt 0.389649 0.130579
vt 0.393748 0.140479
vt 0.385412 0.141084
vt 0.397513 0.570048
vt 0.379361 0.593819
vt 0.376297 0.603179
vt 0.379178 0.612314
vt 0.385412 0.620214
vt 0.393748 0.625520
vt 0.402927 0.624463
vt 0.416217 0.616909
vt 0.395305 0.577238
vt 0.396469 0.567675
vt 0.398731 0.572395
vt 0.390687 0.614171
vt 0.389649 0.619358
vt 0.380819 0.614576
vt 0.384313 0.610750
vt 0.397566 0.613212
vt 0.399432 0.617961
vt 0.376724 0.609983
vt 0.373598 0.601250
vt 0.376728 0.592146
vt 0.381473 0.594500
vt 0.409398 0.606787
vt 0.416152 0.608740
vt 0.407098 0.603615
vt 0.398562 0.608251
vt 0.393599 0.608943
vt 0.389001 0.606475
vt 0.386952 0.594751
vt 0.396930 0.582298
vt 0.413669 0.603560
vt 0.399402 0.578805
vt 0.410178 0.601288
vt 0.477555 0.038205
vt 0.484454 0.030102
vt 0.492387 0.025182
vt 0.486754 0.032036
vt 0.478542 0.442272
vt 0.471665 0.428901
vt 0.493123 0.025742
vt 0.487459 0.032373
vt 0.181819 0.000000
vt 0.227273 0.078731
vt 0.136365 0.078731
vt 0.272728 0.157461
vt 0.318182 0.078731
vt 0.363637 0.157461
vt 0.909091 0.000000
vt 0.954545 0.078731
vt 0.863636 0.078731
vt 0.727273 0.000000
vt 0.772727 0.078731
vt 0.681818 0.078731
vt 0.545455 0.000000
vt 0.590909 0.078731
vt 0.500000 0.078731
vt 0.318182 0.236191
vt 0.090910 0.157461
vt 0.181819 0.157461
vt 0.136365 0.236191
vt 0.818182 0.157461
vt 0.909091 0.157461
vt 0.863636 0.236191
vt 0.636364 0.157461
vt 0.727273 0.157461
vt 0.681818 0.236191
vt 0.454546 0.157461
vt 0.545455 0.157461
vt 0.500000 0.236191
vt 0.227273 0.236191
vt 0.045455 0.236191
vt 0.772727 0.236191
vt 0.590909 0.236191
vt 0.409092 0.236191
vt 0.181819 0.314921
vt 0.272728 0.314921
vt 0.227273 0.393651
vt 0.000000 0.314921
vt 0.090910 0.314921
vt 0.045455 0.393651
vt 0.727273 0.314921
vt 0.818182 0.314921
vt 0.772727 0.393651
vt 0.545455 0.314921
vt 0.636364 0.314921
vt 0.590909 0.393651
vt 0.363637 0.314921
vt 0.454546 0.314921
vt 0.409092 0.393651
vt 0.500000 0.393651
vt 0.454546 0.472382
vt 0.681818 0.393651
vt 0.636364 0.472382
vt 0.863636 0.393651
vt 0.818182 0.472382
vt 0.909091 0.314921
vt 0.136365 0.393651
vt 0.090910 0.472382
vt 0.318182 0.393651
vt 0.272728 0.472382
vt 0.954545 0.236191
vt 1.000000 0.157461
vt 0.409092 0.078731
vt 0.363637 0.000000
s 1
f 116/1/1 98/2/1 209/3/1 208/4/1
f 115/5/2 4/6/2 17/7/2 97/8/2
f 3/9/3 7/10/3 13/11/3 8/12/3
f 7/10/4 4/13/4 9/14/4 13/11/4
f 13/11/5 9/14/5 2/15/5 10/16/5
f 8/12/6 13/11/6 10/16/6 1/17/6
f 1/17/7 10/16/7 32/18/7 29/19/7
f 114/20/8 1/21/8 29/22/8 83/23/8
f 116/24/9 3/25/9 8/26/9 109/27/9
f 109/27/10 8/26/10 1/21/10 114/20/10
f 115/5/11 6/28/11 15/29/11 99/30/11
f 99/30/12 15/29/12 12/31/12 112/32/12
f 97/8/13 17/7/13 21/33/13 90/34/13
f 20/35/14 25/36/14 203/37/14 204/38/14
f 116/24/15 5/28/15 18/39/15 98/40/15
f 4/41/16 7/42/16 197/43/16 196/44/16
f 89/45/17 90/46/17 21/47/17 25/36/17
f 91/48/18 89/45/18 25/36/18 20/35/18
f 25/36/19 21/47/19 202/49/19 203/37/19
f 98/40/20 18/39/20 23/50/20 91/51/20
f 38/52/21 45/53/21 134/54/21 131/55/21
f 133/56/22 136/57/22 144/58/22 146/59/22
f 112/32/23 12/31/23 34/60/23 82/61/23
f 10/16/24 2/15/24 30/62/24 32/18/24
f 29/63/25 32/64/25 129/65/25 130/66/25
f 75/67/26 41/68/26 48/69/26 73/70/26
f 82/61/27 34/60/27 41/68/27 75/67/27
f 83/71/28 29/63/28 141/72/28 140/73/28
f 32/64/29 30/74/29 128/75/29 129/65/29
f 73/70/30 48/69/30 56/76/30 66/77/30
f 74/78/31 81/79/31 145/80/31 148/81/31
f 130/82/32 133/56/32 146/59/32 147/83/32
f 6/28/33 115/5/33 97/8/33 19/39/33
f 54/84/34 53/85/34 60/86/34 61/87/34
f 67/88/35 54/89/35 61/90/35 65/91/35
f 11/92/36 114/20/36 83/23/36 33/93/36
f 5/28/37 116/24/37 109/27/37 14/29/37
f 14/29/38 109/27/38 114/20/38 11/92/38
f 139/94/39 54/95/39 143/96/39 142/97/39
f 30/62/40 38/52/40 131/55/40 128/98/40
f 4/6/41 115/5/41 99/30/41 9/99/41
f 61/87/42 60/86/42 69/100/42 70/101/42
f 65/91/43 61/90/43 70/102/43 58/103/43
f 9/99/44 99/30/44 112/32/44 2/104/44
f 66/77/45 56/76/45 63/105/45 64/106/45
f 19/39/46 97/8/46 90/34/46 24/107/46
f 53/85/47 52/108/47 59/109/47 60/86/47
f 198/110/48 3/111/48 207/112/48 213/113/48
f 256/114/49 255/115/49 253/116/49 254/117/49
f 23/118/50 26/119/50 89/45/50 91/48/50
f 69/100/51 68/120/51 76/121/51 77/122/51
f 204/123/52 201/124/52 211/125/52 212/126/52
f 64/106/53 63/105/53 72/127/53 57/128/53
f 33/93/54 83/23/54 81/129/54 40/68/54
f 60/86/55 59/109/55 68/120/55 69/100/55
f 2/104/56 112/32/56 82/61/56 30/130/56
f 38/131/57 75/67/57 73/70/57 45/132/57
f 77/122/58 76/121/58 259/133/58 260/134/58
f 30/130/59 82/61/59 75/67/59 38/131/59
f 50/135/60 80/136/60 88/137/60 44/138/60
f 58/103/61 70/102/61 78/139/61 51/140/61
f 70/101/62 69/100/62 77/122/62 78/141/62
f 45/132/63 73/70/63 66/77/63 52/142/63
f 57/128/64 72/127/64 80/136/64 50/135/64
f 28/143/65 110/144/65 96/145/65 42/146/65
f 40/68/66 81/129/66 74/147/66 47/69/66
f 108/148/67 262/149/67 93/150/67 94/151/67
f 31/152/68 108/153/68 94/154/68 43/155/68
f 55/156/69 67/88/69 65/91/69 62/157/69
f 51/140/70 78/139/70 86/158/70 49/159/70
f 78/141/71 77/122/71 260/134/71 86/160/71
f 47/69/72 74/147/72 67/88/72 55/156/72
f 123/161/73 124/162/73 101/163/73 102/164/73
f 121/165/74 123/166/74 102/167/74 37/168/74
f 62/157/75 65/91/75 58/103/75 71/169/75
f 52/142/76 66/77/76 64/106/76 59/170/76
f 59/170/77 64/106/77 57/128/77 68/171/77
f 262/149/78 261/172/78 92/173/78 93/150/78
f 76/174/79 50/175/79 44/176/79 259/177/79
f 71/169/80 58/103/80 51/140/80 79/178/80
f 37/168/81 35/179/81 105/180/81 103/181/81
f 124/162/82 127/182/82 297/183/82 298/184/82 101/163/82
f 68/171/83 57/128/83 50/135/83 76/185/83
f 261/186/84 28/143/84 42/146/84 92/187/84
f 107/188/85 31/152/85 43/155/85 95/189/85
f 127/190/86 122/191/86 295/192/86 297/193/86
f 79/178/87 51/140/87 49/159/87 87/194/87
f 100/195/88 36/196/88 301/197/88 104/198/88
f 126/199/89 121/165/89 37/168/89 103/181/89
f 102/167/90 101/200/90 35/179/90 37/168/90
f 274/201/91 273/202/91 290/203/91 291/204/91
f 122/191/92 125/205/92 300/206/92 295/192/92
f 49/159/93 86/158/93 108/153/93 31/152/93
f 86/160/94 260/134/94 262/149/94 108/148/94
f 35/207/95 296/208/95 299/209/95 105/210/95
f 44/176/96 88/211/96 110/144/96 28/143/96
f 93/212/97 92/187/97 120/213/97 119/214/97
f 87/194/98 49/159/98 31/152/98 107/188/98
f 42/146/99 96/145/99 113/215/99 27/216/99
f 259/217/100 44/138/100 28/218/100 261/219/100
f 92/187/101 42/146/101 27/216/101 120/213/101
f 95/189/102 43/155/102 22/220/102 118/221/102
f 43/155/103 94/154/103 117/222/103 22/220/103
f 94/151/104 93/150/104 119/223/104 117/224/104
f 120/213/105 27/216/105 122/191/105 127/190/105
f 118/221/106 22/220/106 121/165/106 126/199/106
f 119/223/107 120/225/107 127/182/107 124/162/107
f 27/216/108 113/215/108 125/205/108 122/191/108
f 22/220/109 117/222/109 123/166/109 121/165/109
f 117/224/110 119/223/110 124/162/110 123/161/110
f 130/82/111 129/226/111 132/227/111 133/56/111
f 132/227/112 131/55/112 134/54/112 135/228/112
f 129/226/113 128/98/113 131/55/113 132/227/113
f 135/228/114 134/54/114 137/229/114 138/230/114
f 133/56/115 132/227/115 135/228/115 136/57/115
f 136/57/116 135/228/116 138/230/116 139/231/116
f 52/232/117 53/233/117 138/234/117 137/235/117
f 45/53/118 52/108/118 137/229/118 134/54/118
f 54/95/119 67/236/119 149/237/119 143/96/119
f 53/233/120 54/95/120 139/94/120 138/234/120
f 141/72/121 147/238/121 157/239/121 39/240/121
f 144/58/122 142/241/122 150/242/122 153/243/122
f 145/80/123 140/244/123 46/245/123 154/246/123
f 148/81/124 145/80/124 154/246/124 158/247/124
f 146/59/125 144/58/125 153/243/125 156/248/125
f 142/97/126 143/96/126 151/249/126 150/250/126
f 136/57/127 139/231/127 142/241/127 144/58/127
f 67/251/128 74/78/128 148/81/128 149/252/128
f 29/63/129 130/66/129 147/238/129 141/72/129
f 81/79/130 83/253/130 140/244/130 145/80/130
f 153/243/131 150/242/131 162/254/131 164/255/131
f 154/246/132 46/245/132 160/256/132 165/257/132
f 158/247/133 154/246/133 165/257/133 168/258/133
f 156/248/134 153/243/134 164/255/134 166/259/134
f 150/250/135 151/249/135 163/260/135 162/261/135
f 157/262/136 156/248/136 166/259/136 167/263/136
f 149/252/137 148/81/137 158/247/137 159/264/137
f 143/96/138 149/237/138 159/265/138 151/249/138
f 140/73/139 141/72/139 39/240/139 46/266/139
f 147/83/140 146/59/140 156/248/140 157/262/140
f 188/267/141 187/268/141 177/269/141 152/270/141
f 184/271/142 185/272/142 170/273/142 173/274/142
f 182/275/143 180/276/143 155/277/143 174/278/143
f 181/279/144 182/275/144 174/278/144 178/280/144
f 183/281/145 184/271/145 173/274/145 176/282/145
f 170/273/146 185/272/146 194/283/146 192/284/146
f 39/240/147 157/239/147 167/285/147 161/286/147
f 159/264/148 158/247/148 168/258/148 169/287/148
f 151/249/149 159/265/149 169/288/149 163/260/149
f 46/266/150 39/240/150 161/286/150 160/289/150
f 155/290/151 152/291/151 175/292/151 174/293/151
f 171/294/152 172/295/152 173/296/152 170/297/152
f 174/293/153 175/292/153 172/295/153 178/298/153
f 175/292/154 152/291/154 177/299/154 176/300/154
f 178/298/155 172/295/155 171/294/155 179/301/155
f 172/295/156 175/292/156 176/300/156 173/296/156
f 189/302/157 181/279/157 178/280/157 179/303/157
f 189/302/158 179/303/158 193/304/158 195/305/158
f 180/306/159 188/267/159 152/270/159 155/307/159
f 187/308/160 183/281/160 176/282/160 177/309/160
f 167/263/161 166/259/161 183/281/161 187/308/161
f 160/289/162 161/286/162 188/267/162 180/306/162
f 163/260/163 169/288/163 189/310/163 186/311/163
f 169/287/164 168/258/164 181/279/164 189/302/164
f 162/261/165 163/260/165 186/311/165 185/312/165
f 166/259/166 164/255/166 184/271/166 183/281/166
f 168/258/167 165/257/167 182/275/167 181/279/167
f 165/257/168 160/256/168 180/276/168 182/275/168
f 164/255/169 162/254/169 185/272/169 184/271/169
f 161/286/170 167/285/170 187/268/170 188/267/170
f 194/313/171 190/314/171 191/315/171 192/316/171
f 190/314/172 195/317/172 193/318/172 191/315/172
f 185/319/173 186/320/173 190/321/173 194/322/173
f 171/294/174 170/297/174 192/323/174 191/324/174
f 186/320/175 189/325/175 195/326/175 190/321/175
f 179/301/176 171/294/176 191/324/176 193/327/176
f 196/328/177 197/329/177 200/330/177 199/331/177
f 200/330/178 201/124/178 204/123/178 203/332/178
f 197/329/179 198/333/179 201/124/179 200/330/179
f 199/331/180 200/330/180 203/332/180 202/334/180
f 7/42/181 3/111/181 198/110/181 197/43/181
f 17/7/182 4/6/182 196/335/182 199/336/182
f 201/124/183 198/333/183 213/337/183 211/125/183
f 21/33/184 17/7/184 199/336/184 202/338/184
f 208/4/185 209/3/185 217/339/185 216/340/185
f 210/341/186 206/342/186 214/343/186 218/344/186
f 207/112/187 208/345/187 216/346/187 215/347/187
f 211/125/188 213/337/188 221/348/188 219/349/188
f 20/35/189 204/38/189 212/350/189 206/342/189
f 91/48/190 20/35/190 206/342/190 210/341/190
f 98/2/191 91/351/191 210/352/191 209/3/191
f 3/111/192 116/353/192 208/345/192 207/112/192
f 232/354/193 235/355/193 222/356/193 226/357/193
f 233/358/194 224/359/194 240/360/194 241/361/194
f 16/362/195 230/363/195 229/364/195 227/365/195
f 231/366/196 232/367/196 226/368/196 225/369/196
f 213/113/197 207/112/197 215/347/197 221/370/197
f 206/342/198 212/350/198 220/371/198 214/343/198
f 212/126/199 211/125/199 219/349/199 220/372/199
f 209/3/200 210/352/200 218/373/200 217/339/200
f 223/374/201 205/375/201 227/376/201 229/377/201
f 223/374/202 224/378/202 225/379/202 205/375/202
f 205/375/203 225/379/203 226/380/203 222/381/203
f 205/375/204 222/381/204 228/382/204 227/376/204
f 233/358/205 231/366/205 225/369/205 224/359/205
f 229/364/206 230/363/206 237/383/206 238/384/206
f 235/355/207 236/385/207 228/386/207 222/356/207
f 236/387/208 16/362/208 227/365/208 228/388/208
f 250/389/209 243/390/209 16/362/209 236/387/209
f 249/391/210 250/392/210 236/385/210 235/355/210
f 246/393/211 245/394/211 234/395/211 230/396/211
f 248/397/212 244/398/212 231/366/212 233/358/212
f 244/398/213 247/399/213 232/367/213 231/366/213
f 243/390/214 246/400/214 230/363/214 16/362/214
f 245/394/215 248/401/215 233/402/215 234/395/215
f 247/403/216 249/391/216 235/355/216 232/354/216
f 242/404/217 241/405/217 240/406/217 239/407/217
f 237/408/218 242/404/218 239/407/218 238/409/218
f 234/410/219 233/411/219 241/412/219 242/413/219
f 224/378/220 223/374/220 239/414/220 240/415/220
f 230/416/221 234/410/221 242/413/221 237/417/221
f 223/374/222 229/377/222 238/418/222 239/414/222
f 218/344/223 214/343/223 249/391/223 247/403/223
f 215/347/224 216/346/224 248/401/224 245/394/224
f 219/349/225 221/348/225 246/400/225 243/390/225
f 217/339/226 218/373/226 247/399/226 244/398/226
f 216/340/227 217/339/227 244/398/227 248/397/227
f 221/370/228 215/347/228 245/394/228 246/393/228
f 214/343/229 220/371/229 250/392/229 249/391/229
f 220/372/230 219/349/230 243/390/230 250/389/230
f 252/419/231 251/420/231 254/421/231 253/422/231
f 255/423/232 257/424/232 252/425/232 253/426/232
f 258/427/233 256/428/233 254/421/233 251/420/233
f 24/107/234 90/34/234 256/429/234 258/430/234
f 89/45/235 26/119/235 257/431/235 255/432/235
f 90/46/236 89/45/236 255/432/236 256/428/236
f 84/433/237 85/434/237 260/134/237 259/133/237
f 275/435/238 84/433/238 259/133/238 261/172/238
f 85/434/239 276/436/239 262/149/239 260/134/239
f 276/436/240 284/437/240 283/438/240 275/435/240 261/172/240 262/149/240
f 84/439/241 275/440/241 279/441/241 263/442/241
f 266/443/242 264/444/242 278/445/242 280/446/242
f 276/436/243 85/434/243 267/447/243 282/448/243
f 278/449/244 264/450/244 265/451/244 277/452/244
f 277/452/245 265/451/245 263/442/245 279/441/245
f 266/443/246 280/446/246 281/453/246 268/454/246
f 268/454/247 281/453/247 282/448/247 267/447/247
f 85/455/248 84/456/248 263/457/248 265/458/248 264/459/248 266/460/248 268/461/248 267/462/248
f 106/463/249 284/464/249 276/465/249
f 271/466/250 269/467/250 278/468/250 277/469/250
f 270/470/251 271/466/251 277/469/251 279/471/251
f 273/202/252 274/201/252 281/472/252 280/473/252
f 274/201/253 272/474/253 282/475/253 281/472/253
f 269/467/254 273/202/254 280/473/254 278/468/254
f 111/476/255 270/470/255 279/471/255 275/477/255
f 272/474/256 106/463/256 276/465/256 282/475/256
f 285/478/257 286/479/257 292/480/257 291/204/257 290/203/257 288/481/257 287/482/257 289/483/257
f 283/484/258 111/476/258 275/477/258
f 270/470/259 111/476/259 285/478/259 289/483/259
f 294/485/260 286/479/260 285/478/260 293/486/260
f 111/476/261 283/484/261 293/486/261 285/478/261
f 106/463/262 272/474/262 292/480/262 286/479/262
f 272/474/263 274/201/263 291/204/263 292/480/263
f 269/467/264 271/466/264 287/482/264 288/481/264
f 283/438/265 284/437/265 294/487/265 293/488/265
f 273/202/266 269/467/266 288/481/266 290/203/266
f 284/464/267 106/463/267 286/479/267 294/485/267
f 271/466/268 270/470/268 289/483/268 287/482/268
f 297/489/269 295/490/269 36/491/269 100/492/269
f 296/208/270 298/493/270 104/198/270 301/197/270
f 101/494/271 298/493/271 296/208/271 35/207/271
f 36/196/272 302/495/272 303/496/272 301/197/272
f 299/497/273 296/498/273 301/499/273 303/500/273
f 295/490/274 300/501/274 302/502/274 36/491/274
f 298/184/275 297/183/275 100/503/275 104/504/275
f 385/1/276 474/4/276 475/3/276 372/2/276
f 384/505/277 371/506/277 314/507/277 307/508/277
f 306/9/278 309/12/278 312/11/278 308/10/278
f 308/10/279 312/11/279 310/14/279 307/13/279
f 312/11/280 311/16/280 305/15/280 310/14/280
f 309/12/281 304/17/281 311/16/281 312/11/281
f 304/17/282 321/19/282 324/18/282 311/16/282
f 383/509/283 361/510/283 321/511/283 304/512/283
f 385/513/284 380/514/284 309/515/284 306/516/284
f 380/514/285 383/509/285 304/512/285 309/515/285
f 384/505/286 373/517/286 15/29/286 6/28/286
f 373/517/287 382/518/287 12/31/287 15/29/287
f 371/506/288 366/519/288 316/520/288 314/507/288
f 315/521/289 470/522/289 469/523/289 318/524/289
f 385/513/290 372/525/290 18/39/290 5/28/290
f 307/526/291 462/527/291 463/528/291 308/529/291
f 365/530/292 318/524/292 316/531/292 366/532/292
f 367/533/293 315/521/293 318/524/293 365/530/293
f 318/524/294 469/523/294 468/534/294 316/531/294
f 372/525/295 367/535/295 23/50/295 18/39/295
f 328/52/296 397/55/296 400/54/296 333/53/296
f 399/56/297 412/59/297 410/58/297 402/57/297
f 382/518/298 360/536/298 34/60/298 12/31/298
f 311/16/299 324/18/299 322/62/299 305/15/299
f 321/537/300 396/538/300 395/539/300 324/540/300
f 355/541/301 353/542/301 48/69/301 41/68/301
f 360/536/302 355/541/302 41/68/302 34/60/302
f 361/543/303 406/544/303 407/545/303 321/537/303
f 324/540/304 395/539/304 394/546/304 322/547/304
f 353/542/305 348/548/305 56/76/305 48/69/305
f 354/78/306 414/81/306 411/80/306 359/79/306
f 396/82/307 413/83/307 412/59/307 399/56/307
f 6/28/308 19/39/308 371/506/308 384/505/308
f 340/84/309 345/87/309 344/86/309 339/85/309
f 349/549/310 347/550/310 345/551/310 340/552/310
f 11/92/311 33/93/311 361/510/311 383/509/311
f 5/28/312 14/29/312 380/514/312 385/513/312
f 14/29/313 11/92/313 383/509/313 380/514/313
f 405/553/314 408/554/314 409/555/314 340/556/314
f 322/62/315 394/98/315 397/55/315 328/52/315
f 307/508/316 310/557/316 373/517/316 384/505/316
f 345/87/317 352/101/317 351/100/317 344/86/317
f 347/550/318 342/558/318 352/559/318 345/551/318
f 310/557/319 305/560/319 382/518/319 373/517/319
f 348/548/320 346/561/320 63/105/320 56/76/320
f 19/39/321 24/107/321 366/519/321 371/506/321
f 339/85/322 344/86/322 343/109/322 338/108/322
f 464/562/323 479/563/323 473/564/323 306/565/323
f 520/114/324 518/117/324 517/116/324 519/115/324
f 23/118/325 367/533/325 365/530/325 26/119/325
f 351/100/326 357/122/326 356/121/326 350/120/326
f 470/123/327 478/126/327 477/125/327 467/124/327
f 346/561/328 341/566/328 72/127/328 63/105/328
f 33/93/329 40/68/329 359/567/329 361/510/329
f 344/86/330 351/100/330 350/120/330 343/109/330
f 305/560/331 322/568/331 360/536/331 382/518/331
f 328/569/332 333/570/332 353/542/332 355/541/332
f 357/122/333 522/134/333 521/133/333 356/121/333
f 322/568/334 328/569/334 355/541/334 360/536/334
f 336/571/335 332/572/335 88/137/335 80/136/335
f 342/558/336 337/573/336 358/574/336 352/559/336
f 352/101/337 358/141/337 357/122/337 351/100/337
f 333/570/338 338/575/338 348/548/338 353/542/338
f 341/566/339 336/571/339 80/136/339 72/127/339
f 320/576/340 330/577/340 96/145/340 110/144/340
f 40/68/341 47/69/341 354/578/341 359/567/341
f 379/148/342 370/151/342 369/150/342 524/149/342
f 323/579/343 331/580/343 370/581/343 379/582/343
f 55/156/344 62/157/344 347/550/344 349/549/344
f 337/573/345 335/583/345 364/584/345 358/574/345
f 358/141/346 364/160/346 522/134/346 357/122/346
f 47/69/347 55/156/347 349/549/347 354/578/347
f 391/161/348 376/164/348 375/163/348 392/162/348
f 389/585/349 327/586/349 376/587/349 391/588/349
f 62/157/350 71/169/350 342/558/350 347/550/350
f 338/575/351 343/589/351 346/561/351 348/548/351
f 343/589/352 350/590/352 341/566/352 346/561/352
f 524/149/353 369/150/353 368/173/353 523/172/353
f 356/591/354 521/592/354 332/593/354 336/594/354
f 71/169/355 79/178/355 337/573/355 342/558/355
f 327/586/356 103/181/356 105/180/356 325/595/356
f 392/162/357 375/163/357 560/184/357 559/183/357 393/182/357
f 350/590/358 356/596/358 336/571/358 341/566/358
f 523/597/359 368/598/359 330/577/359 320/576/359
f 107/188/360 95/189/360 331/580/360 323/579/360
f 393/599/361 559/600/361 557/601/361 390/602/361
f 79/178/362 87/194/362 335/583/362 337/573/362
f 374/603/363 377/604/363 561/605/363 326/606/363
f 126/199/364 103/181/364 327/586/364 389/585/364
f 376/587/365 327/586/365 325/595/365 375/607/365
f 536/608/366 553/609/366 552/610/366 535/611/366
f 390/602/367 557/601/367 300/206/367 125/205/367
f 335/583/368 323/579/368 379/582/368 364/584/368
f 364/160/369 379/148/369 524/149/369 522/134/369
f 325/612/370 105/210/370 299/209/370 558/613/370
f 332/593/371 320/576/371 110/144/371 88/211/371
f 369/614/372 387/615/372 388/616/372 368/598/372
f 87/194/373 107/188/373 323/579/373 335/583/373
f 330/577/374 319/617/374 113/215/374 96/145/374
f 521/618/375 523/619/375 320/620/375 332/572/375
f 368/598/376 388/616/376 319/617/376 330/577/376
f 95/189/377 118/221/377 317/621/377 331/580/377
f 331/580/378 317/621/378 386/622/378 370/581/378
f 370/151/379 386/224/379 387/223/379 369/150/379
f 388/616/380 393/599/380 390/602/380 319/617/380
f 118/221/381 126/199/381 389/585/381 317/621/381
f 387/223/382 392/162/382 393/182/382 388/225/382
f 319/617/383 390/602/383 125/205/383 113/215/383
f 317/621/384 389/585/384 391/588/384 386/622/384
f 386/224/385 391/161/385 392/162/385 387/223/385
f 396/82/386 399/56/386 398/227/386 395/226/386
f 398/227/387 401/228/387 400/54/387 397/55/387
f 395/226/388 398/227/388 397/55/388 394/98/388
f 401/228/389 404/230/389 403/229/389 400/54/389
f 399/56/390 402/57/390 401/228/390 398/227/390
f 402/57/391 405/231/391 404/230/391 401/228/391
f 338/623/392 403/624/392 404/625/392 339/626/392
f 333/53/393 400/54/393 403/229/393 338/108/393
f 340/556/394 409/555/394 415/627/394 349/628/394
f 339/626/395 404/625/395 405/553/395 340/556/395
f 407/545/396 329/629/396 423/630/396 413/631/396
f 410/58/397 419/243/397 416/242/397 408/241/397
f 411/80/398 420/246/398 334/245/398 406/244/398
f 414/81/399 424/247/399 420/246/399 411/80/399
f 412/59/400 422/248/400 419/243/400 410/58/400
f 408/554/401 416/632/401 417/633/401 409/555/401
f 402/57/402 410/58/402 408/241/402 405/231/402
f 349/251/403 415/252/403 414/81/403 354/78/403
f 321/537/404 407/545/404 413/631/404 396/538/404
f 359/79/405 411/80/405 406/244/405 361/253/405
f 419/243/406 430/255/406 428/254/406 416/242/406
f 420/246/407 431/257/407 426/256/407 334/245/407
f 424/247/408 434/258/408 431/257/408 420/246/408
f 422/248/409 432/259/409 430/255/409 419/243/409
f 416/632/410 428/634/410 429/635/410 417/633/410
f 423/262/411 433/263/411 432/259/411 422/248/411
f 415/252/412 425/264/412 424/247/412 414/81/412
f 409/555/413 417/633/413 425/636/413 415/627/413
f 406/544/414 334/637/414 329/629/414 407/545/414
f 413/83/415 423/262/415 422/248/415 412/59/415
f 454/638/416 418/639/416 443/640/416 453/641/416
f 450/271/417 439/274/417 436/273/417 451/272/417
f 448/275/418 440/278/418 421/277/418 446/276/418
f 447/279/419 444/280/419 440/278/419 448/275/419
f 449/281/420 442/282/420 439/274/420 450/271/420
f 436/273/421 458/284/421 460/283/421 451/272/421
f 329/629/422 427/642/422 433/643/422 423/630/422
f 425/264/423 435/287/423 434/258/423 424/247/423
f 417/633/424 429/635/424 435/644/424 425/636/424
f 334/637/425 426/645/425 427/642/425 329/629/425
f 421/646/426 440/647/426 441/648/426 418/649/426
f 437/650/427 436/651/427 439/652/427 438/653/427
f 440/647/428 444/654/428 438/653/428 441/648/428
f 441/648/429 442/655/429 443/656/429 418/649/429
f 444/654/430 445/657/430 437/650/430 438/653/430
f 438/653/431 439/652/431 442/655/431 441/648/431
f 455/302/432 445/303/432 444/280/432 447/279/432
f 455/302/433 461/305/433 459/304/433 445/303/433
f 446/658/434 421/659/434 418/639/434 454/638/434
f 453/308/435 443/309/435 442/282/435 449/281/435
f 433/263/436 453/308/436 449/281/436 432/259/436
f 426/645/437 446/658/437 454/638/437 427/642/437
f 429/635/438 452/660/438 455/661/438 435/644/438
f 435/287/439 455/302/439 447/279/439 434/258/439
f 428/634/440 451/662/440 452/660/440 429/635/440
f 432/259/441 449/281/441 450/271/441 430/255/441
f 434/258/442 447/279/442 448/275/442 431/257/442
f 431/257/443 448/275/443 446/276/443 426/256/443
f 430/255/444 450/271/444 451/272/444 428/254/444
f 427/642/445 454/638/445 453/641/445 433/643/445
f 460/663/446 458/664/446 457/665/446 456/666/446
f 456/666/447 457/665/447 459/667/447 461/668/447
f 451/669/448 460/670/448 456/671/448 452/672/448
f 437/650/449 457/673/449 458/674/449 436/651/449
f 452/672/450 456/671/450 461/675/450 455/676/450
f 445/657/451 459/677/451 457/673/451 437/650/451
f 462/328/452 465/331/452 466/330/452 463/329/452
f 466/330/453 469/332/453 470/123/453 467/124/453
f 463/329/454 466/330/454 467/124/454 464/333/454
f 465/331/455 468/334/455 469/332/455 466/330/455
f 308/529/456 463/528/456 464/562/456 306/565/456
f 314/507/457 465/678/457 462/679/457 307/508/457
f 467/124/458 477/125/458 479/337/458 464/333/458
f 316/520/459 468/680/459 465/678/459 314/507/459
f 474/4/460 482/340/460 483/339/460 475/3/460
f 476/681/461 484/682/461 480/683/461 472/684/461
f 473/564/462 481/685/462 482/686/462 474/687/462
f 477/125/463 485/349/463 487/348/463 479/337/463
f 315/521/464 472/684/464 478/688/464 470/522/464
f 367/533/465 476/681/465 472/684/465 315/521/465
f 372/2/466 475/3/466 476/352/466 367/351/466
f 306/565/467 473/564/467 474/687/467 385/689/467
f 498/690/468 492/691/468 488/692/468 501/693/468
f 499/358/469 507/361/469 506/360/469 490/359/469
f 313/362/470 493/365/470 495/364/470 496/363/470
f 497/366/471 491/369/471 492/368/471 498/367/471
f 479/563/472 487/694/472 481/685/472 473/564/472
f 472/684/473 480/683/473 486/695/473 478/688/473
f 478/126/474 486/372/474 485/349/474 477/125/474
f 475/3/475 483/339/475 484/373/475 476/352/475
f 489/696/476 495/697/476 493/698/476 471/699/476
f 489/696/477 471/699/477 491/700/477 490/701/477
f 471/699/478 488/702/478 492/703/478 491/700/478
f 471/699/479 493/698/479 494/704/479 488/702/479
f 499/358/480 490/359/480 491/369/480 497/366/480
f 495/364/481 504/384/481 503/383/481 496/363/481
f 501/693/482 488/692/482 494/705/482 502/706/482
f 502/387/483 494/388/483 493/365/483 313/362/483
f 516/389/484 502/387/484 313/362/484 509/390/484
f 515/707/485 501/693/485 502/706/485 516/708/485
f 512/709/486 496/710/486 500/711/486 511/712/486
f 514/397/487 499/358/487 497/366/487 510/398/487
f 510/398/488 497/366/488 498/367/488 513/399/488
f 509/390/489 313/362/489 496/363/489 512/400/489
f 511/712/490 500/711/490 499/713/490 514/714/490
f 513/715/491 498/690/491 501/693/491 515/707/491
f 508/716/492 505/717/492 506/718/492 507/719/492
f 503/720/493 504/721/493 505/717/493 508/716/493
f 500/722/494 508/723/494 507/724/494 499/725/494
f 490/701/495 506/726/495 505/727/495 489/696/495
f 496/728/496 503/729/496 508/723/496 500/722/496
f 489/696/497 505/727/497 504/730/497 495/697/497
f 484/682/498 513/715/498 515/707/498 480/683/498
f 481/685/499 511/712/499 514/714/499 482/686/499
f 485/349/500 509/390/500 512/400/500 487/348/500
f 483/339/501 510/398/501 513/399/501 484/373/501
f 482/340/502 514/397/502 510/398/502 483/339/502
f 487/694/503 512/709/503 511/712/503 481/685/503
f 480/683/504 515/707/504 516/708/504 486/695/504
f 486/372/505 516/389/505 509/390/505 485/349/505
f 252/419/506 517/731/506 518/732/506 251/420/506
f 519/733/507 517/734/507 252/425/507 257/424/507
f 258/427/508 251/420/508 518/732/508 520/735/508
f 24/107/509 258/430/509 520/736/509 366/519/509
f 365/530/510 519/737/510 257/431/510 26/119/510
f 366/532/511 520/735/511 519/737/511 365/530/511
f 362/433/512 521/133/512 522/134/512 363/434/512
f 537/435/513 523/172/513 521/133/513 362/433/513
f 363/434/514 522/134/514 524/149/514 538/436/514
f 538/436/515 524/149/515 523/172/515 537/435/515 545/438/515 546/437/515
f 362/738/516 525/739/516 541/740/516 537/741/516
f 528/443/517 542/446/517 540/445/517 526/444/517
f 538/436/518 544/448/518 529/447/518 363/434/518
f 540/742/519 539/743/519 527/744/519 526/745/519
f 539/743/520 541/740/520 525/739/520 527/744/520
f 528/443/521 530/454/521 543/453/521 542/446/521
f 530/454/522 529/447/522 544/448/522 543/453/522
f 363/746/523 529/747/523 530/748/523 528/749/523 526/750/523 527/751/523 525/752/523 362/753/523
f 378/754/524 538/755/524 546/756/524
f 533/757/525 539/758/525 540/759/525 531/760/525
f 532/761/526 541/762/526 539/758/526 533/757/526
f 535/611/527 542/763/527 543/764/527 536/608/527
f 536/608/528 543/764/528 544/765/528 534/766/528
f 531/760/529 540/759/529 542/763/529 535/611/529
f 381/767/530 537/768/530 541/762/530 532/761/530
f 534/766/531 544/765/531 538/755/531 378/754/531
f 547/769/532 551/770/532 549/771/532 550/772/532 552/610/532 553/609/532 554/773/532 548/774/532
f 545/775/533 537/768/533 381/767/533
f 532/761/534 551/770/534 547/769/534 381/767/534
f 556/776/535 555/777/535 547/769/535 548/774/535
f 381/767/536 547/769/536 555/777/536 545/775/536
f 378/754/537 548/774/537 554/773/537 534/766/537
f 534/766/538 554/773/538 553/609/538 536/608/538
f 531/760/539 550/772/539 549/771/539 533/757/539
f 545/438/540 555/488/540 556/487/540 546/437/540
f 535/611/541 552/610/541 550/772/541 531/760/541
f 546/756/542 556/776/542 548/774/542 378/754/542
f 533/757/543 549/771/543 551/770/543 532/761/543
f 559/778/544 374/779/544 326/780/544 557/781/544
f 558/613/545 561/605/545 377/604/545 560/782/545
f 375/783/546 325/612/546 558/613/546 560/782/546
f 326/606/547 561/605/547 303/496/547 302/495/547
f 299/497/548 303/500/548 561/784/548 558/785/548
f 557/781/549 326/780/549 302/502/549 300/501/549
f 560/184/550 377/504/550 374/503/550 559/183/550
f 562/786/551 575/787/551 574/788/551
f 563/789/552 575/790/552 577/791/552
f 562/792/553 574/793/553 579/794/553
f 562/795/554 579/796/554 581/797/554
f 562/798/555 581/799/555 578/800/555
f 563/789/556 577/791/556 584/801/556
f 564/802/557 576/803/557 586/804/557
f 565/805/558 580/806/558 588/807/558
f 566/808/559 582/809/559 590/810/559
f 567/811/560 583/812/560 592/813/560
f 563/789/561 584/801/561 587/814/561
f 564/802/562 586/804/562 589/815/562
f 565/805/563 588/807/563 591/816/563
f 566/808/564 590/810/564 593/817/564
f 567/811/565 592/813/565 585/818/565
f 568/819/566 594/820/566 599/821/566
f 569/822/567 595/823/567 601/824/567
f 570/825/568 596/826/568 602/827/568
f 571/828/569 597/829/569 603/830/569
f 572/831/570 598/832/570 600/833/570
f 600/833/571 603/834/571 573/835/571
f 600/833/572 598/832/572 603/834/572
f 598/832/573 571/828/573 603/834/573
f 603/830/574 602/836/574 573/837/574
f 603/830/575 597/829/575 602/836/575
f 597/829/576 570/825/576 602/836/576
f 602/827/577 601/838/577 573/839/577
f 602/827/578 596/826/578 601/838/578
f 596/826/579 569/840/579 601/838/579
f 601/824/580 599/841/580 573/842/580
f 601/824/581 595/823/581 599/841/581
f 595/823/582 568/819/582 599/841/582
f 599/821/583 600/843/583 573/844/583
f 599/821/584 594/820/584 600/843/584
f 594/820/585 572/831/585 600/843/585
f 585/818/586 598/832/586 572/831/586
f 585/818/587 592/813/587 598/832/587
f 592/813/588 571/828/588 598/832/588
f 593/817/589 597/829/589 571/828/589
f 593/817/590 590/810/590 597/829/590
f 590/810/591 570/825/591 597/829/591
f 591/816/592 596/826/592 570/825/592
f 591/816/593 588/807/593 596/826/593
f 588/807/594 569/840/594 596/826/594
f 589/815/595 595/823/595 569/822/595
f 589/815/596 586/804/596 595/823/596
f 586/804/597 568/819/597 595/823/597
f 587/814/598 594/820/598 568/819/598
f 587/814/599 584/801/599 594/820/599
f 584/801/600 572/831/600 594/820/600
f 592/813/601 593/817/601 571/828/601
f 592/813/602 583/812/602 593/817/602
f 583/812/603 566/808/603 593/817/603
f 590/810/604 591/816/604 570/825/604
f 590/810/605 582/809/605 591/816/605
f 582/809/606 565/805/606 591/816/606
f 588/807/607 589/845/607 569/840/607
f 588/807/608 580/806/608 589/845/608
f 580/806/609 564/846/609 589/845/609
f 586/804/610 587/814/610 568/819/610
f 586/804/611 576/803/611 587/814/611
f 576/803/612 563/789/612 587/814/612
f 584/801/613 585/818/613 572/831/613
f 584/801/614 577/791/614 585/818/614
f 577/791/615 567/811/615 585/818/615
f 578/800/616 583/812/616 567/811/616
f 578/800/617 581/799/617 583/812/617
f 581/799/618 566/808/618 583/812/618
f 581/797/619 582/809/619 566/808/619
f 581/797/620 579/796/620 582/809/620
f 579/796/621 565/805/621 582/809/621
f 579/794/622 580/806/622 565/805/622
f 579/794/623 574/793/623 580/806/623
f 574/793/624 564/846/624 580/806/624
f 577/791/625 578/847/625 567/811/625
f 577/791/626 575/790/626 578/847/626
f 575/790/627 562/848/627 578/847/627
f 574/788/628 576/803/628 564/802/628
f 574/788/629 575/787/629 576/803/629
f 575/787/630 563/789/630 576/803/630
f 604/786/631 616/788/631 617/787/631
f 605/789/632 619/791/632 617/790/632
f 604/792/633 621/794/633 616/793/633
f 604/795/634 623/797/634 621/796/634
f 604/798/635 620/800/635 623/799/635
f 605/789/636 626/801/636 619/791/636
f 606/802/637 628/804/637 618/803/637
f 607/805/638 630/807/638 622/806/638
f 608/808/639 632/810/639 624/809/639
f 609/811/640 634/813/640 625/812/640
f 605/789/641 629/814/641 626/801/641
f 606/802/642 631/815/642 628/804/642
f 607/805/643 633/816/643 630/807/643
f 608/808/644 635/817/644 632/810/644
f 609/811/645 627/818/645 634/813/645
f 610/819/646 641/821/646 636/820/646
f 611/822/647 643/824/647 637/823/647
f 612/825/648 644/827/648 638/826/648
f 613/828/649 645/830/649 639/829/649
f 614/831/650 642/833/650 640/832/650
f 642/833/651 615/835/651 645/834/651
f 642/833/652 645/834/652 640/832/652
f 640/832/653 645/834/653 613/828/653
f 645/830/654 615/837/654 644/836/654
f 645/830/655 644/836/655 639/829/655
f 639/829/656 644/836/656 612/825/656
f 644/827/657 615/839/657 643/838/657
f 644/827/658 643/838/658 638/826/658
f 638/826/659 643/838/659 611/840/659
f 643/824/660 615/842/660 641/841/660
f 643/824/661 641/841/661 637/823/661
f 637/823/662 641/841/662 610/819/662
f 641/821/663 615/844/663 642/843/663
f 641/821/664 642/843/664 636/820/664
f 636/820/665 642/843/665 614/831/665
f 627/818/666 614/831/666 640/832/666
f 627/818/667 640/832/667 634/813/667
f 634/813/668 640/832/668 613/828/668
f 635/817/669 613/828/669 639/829/669
f 635/817/670 639/829/670 632/810/670
f 632/810/671 639/829/671 612/825/671
f 633/816/672 612/825/672 638/826/672
f 633/816/673 638/826/673 630/807/673
f 630/807/674 638/826/674 611/840/674
f 631/815/675 611/822/675 637/823/675
f 631/815/676 637/823/676 628/804/676
f 628/804/677 637/823/677 610/819/677
f 629/814/678 610/819/678 636/820/678
f 629/814/679 636/820/679 626/801/679
f 626/801/680 636/820/680 614/831/680
f 634/813/681 613/828/681 635/817/681
f 634/813/682 635/817/682 625/812/682
f 625/812/683 635/817/683 608/808/683
f 632/810/684 612/825/684 633/816/684
f 632/810/685 633/816/685 624/809/685
f 624/809/686 633/816/686 607/805/686
f 630/807/687 611/840/687 631/845/687
f 630/807/688 631/845/688 622/806/688
f 622/806/689 631/845/689 606/846/689
f 628/804/690 610/819/690 629/814/690
f 628/804/691 629/814/691 618/803/691
f 618/803/692 629/814/692 605/789/692
f 626/801/693 614/831/693 627/818/693
f 626/801/694 627/818/694 619/791/694
f 619/791/695 627/818/695 609/811/695
f 620/800/696 609/811/696 625/812/696
f 620/800/697 625/812/697 623/799/697
f 623/799/698 625/812/698 608/808/698
f 623/797/699 608/808/699 624/809/699
f 623/797/700 624/809/700 621/796/700
f 621/796/701 624/809/701 607/805/701
f 621/794/702 607/805/702 622/806/702
f 621/794/703 622/806/703 616/793/703
f 616/793/704 622/806/704 606/846/704
f 619/791/705 609/811/705 620/847/705
f 619/791/706 620/847/706 617/790/706
f 617/790/707 620/847/707 604/848/707
f 616/788/708 606/802/708 618/803/708
f 616/788/709 618/803/709 617/787/709
f 617/787/710 618/803/710 605/789/710
